<?xml version="1.0" encoding="UTF-8" standalone="no"?>
<!DOCTYPE svg PUBLIC "-//W3C//DTD SVG 1.1//EN"
 "http://www.w3.org/Graphics/SVG/1.1/DTD/svg11.dtd">
<!-- Generated by graphviz version 2.43.0 (0)
 -->
<!-- Title: G Pages: 1 -->
<svg width="744pt" height="1395pt"
 viewBox="0.00 0.00 744.45 1395.26" xmlns="http://www.w3.org/2000/svg" xmlns:xlink="http://www.w3.org/1999/xlink">
<g id="graph0" class="graph" transform="scale(1 1) rotate(0) translate(4 1391.26)">
<title>G</title>
<polygon fill="white" stroke="transparent" points="-4,4 -4,-1391.26 740.45,-1391.26 740.45,4 -4,4"/>
<!-- http://www.w3.org/2002/07/owl#Ontology -->
<g id="node1" class="node">
<title>http://www.w3.org/2002/07/owl#Ontology</title>
<ellipse fill="none" stroke="#1f77b4" cx="453.87" cy="-16.26" rx="77.56" ry="16.03"/>
<text text-anchor="middle" x="453.87" y="-12.56" font-family="Times,serif" font-size="14.00">owl:Ontology</text>
</g>
<!-- http://purl.org/oseg/ontologies/OTRL#ODRL -->
<g id="node2" class="node">
<title>http://purl.org/oseg/ontologies/OTRL#ODRL</title>
<ellipse fill="none" stroke="#e377c2" cx="453.87" cy="-1195.26" rx="41.94" ry="16.03"/>
<text text-anchor="middle" x="453.87" y="-1191.56" font-family="Times,serif" font-size="14.00">ODRL</text>
</g>
<!-- http://www.w3.org/2002/07/owl#class -->
<g id="node5" class="node">
<title>http://www.w3.org/2002/07/owl#class</title>
<ellipse fill="none" stroke="#1f77b4" cx="679.18" cy="-942.26" rx="57.05" ry="16.03"/>
<text text-anchor="middle" x="679.18" y="-938.56" font-family="Times,serif" font-size="14.00">owl:class</text>
</g>
<!-- http://purl.org/oseg/ontologies/OTRL#ODRL&#45;&gt;http://www.w3.org/2002/07/owl#class -->
<g id="edge43" class="edge">
<title>http://purl.org/oseg/ontologies/OTRL#ODRL&#45;&gt;http://www.w3.org/2002/07/owl#class</title>
<path fill="none" stroke="black" d="M495.84,-1195.97C528.89,-1194.36 574.57,-1186.87 603.9,-1160.26 659.84,-1109.54 673.67,-1015.01 677.08,-968.92"/>
<polygon fill="black" stroke="black" points="680.58,-969.01 677.71,-958.81 673.59,-968.57 680.58,-969.01"/>
<text text-anchor="middle" x="599.4" y="-1170.06" font-family="Times,serif" font-size="14.00">a</text>
</g>
<!-- http://purl.org/oseg/ontologies/OTRL#OTRL -->
<g id="node3" class="node">
<title>http://purl.org/oseg/ontologies/OTRL#OTRL</title>
<ellipse fill="none" stroke="#e377c2" cx="453.87" cy="-651.26" rx="39.7" ry="16.03"/>
<text text-anchor="middle" x="453.87" y="-647.56" font-family="Times,serif" font-size="14.00">OTRL</text>
</g>
<!-- http://purl.org/oseg/ontologies/OTRL#OTRL&#45;&gt;http://www.w3.org/2002/07/owl#class -->
<g id="edge45" class="edge">
<title>http://purl.org/oseg/ontologies/OTRL#OTRL&#45;&gt;http://www.w3.org/2002/07/owl#class</title>
<path fill="none" stroke="black" d="M491.75,-656.45C525.39,-663.06 574.25,-677.69 603.9,-709.26 659.19,-768.12 673.32,-868.12 676.94,-915.65"/>
<polygon fill="black" stroke="black" points="673.45,-916.01 677.61,-925.76 680.44,-915.55 673.45,-916.01"/>
<text text-anchor="middle" x="599.4" y="-713.06" font-family="Times,serif" font-size="14.00">a</text>
</g>
<!-- http://www.w3.org/2002/07/owl#DatatypeProperty -->
<g id="node4" class="node">
<title>http://www.w3.org/2002/07/owl#DatatypeProperty</title>
<ellipse fill="none" stroke="#1f77b4" cx="453.87" cy="-111.26" rx="123.07" ry="16.03"/>
<text text-anchor="middle" x="453.87" y="-107.56" font-family="Times,serif" font-size="14.00">owl:DatatypeProperty</text>
</g>
<!-- http://purl.org/oseg/ontologies/OTRL#ODRL&#45;3 -->
<g id="node6" class="node">
<title>http://purl.org/oseg/ontologies/OTRL#ODRL&#45;3</title>
<ellipse fill="none" stroke="#e377c2" cx="120.92" cy="-1279.26" rx="50.82" ry="16.03"/>
<text text-anchor="middle" x="120.92" y="-1275.56" font-family="Times,serif" font-size="14.00">ODRL&#45;3</text>
</g>
<!-- http://purl.org/oseg/ontologies/OTRL#ODRL&#45;3&#45;&gt;http://purl.org/oseg/ontologies/OTRL#ODRL -->
<g id="edge20" class="edge">
<title>http://purl.org/oseg/ontologies/OTRL#ODRL&#45;3&#45;&gt;http://purl.org/oseg/ontologies/OTRL#ODRL</title>
<path fill="none" stroke="black" d="M160.77,-1269.07C202.69,-1258.11 271.44,-1240.24 330.83,-1225.26 356.45,-1218.8 385.13,-1211.74 408.25,-1206.1"/>
<polygon fill="black" stroke="black" points="409.24,-1209.46 418.12,-1203.69 407.58,-1202.66 409.24,-1209.46"/>
</g>
<!-- http://purl.org/oseg/ontologies/OTRL#ODRL&#45;3&#45;&gt;http://www.w3.org/2002/07/owl#class -->
<g id="edge1" class="edge">
<title>http://purl.org/oseg/ontologies/OTRL#ODRL&#45;3&#45;&gt;http://www.w3.org/2002/07/owl#class</title>
<path fill="none" stroke="black" d="M168.89,-1285.05C271.19,-1296.68 510.31,-1318.39 576.9,-1276.26 630.36,-1242.45 663.98,-1041.63 674.57,-968.71"/>
<polygon fill="black" stroke="black" points="678.07,-968.92 676.02,-958.53 671.14,-967.94 678.07,-968.92"/>
<text text-anchor="middle" x="453.87" y="-1304.06" font-family="Times,serif" font-size="14.00">a</text>
</g>
<!-- http://purl.org/oseg/ontologies/OTRL#OTRL&#45;9 -->
<g id="node7" class="node">
<title>http://purl.org/oseg/ontologies/OTRL#OTRL&#45;9</title>
<ellipse fill="none" stroke="#e377c2" cx="120.92" cy="-756.26" rx="49.49" ry="16.03"/>
<text text-anchor="middle" x="120.92" y="-752.56" font-family="Times,serif" font-size="14.00">OTRL&#45;9</text>
</g>
<!-- http://purl.org/oseg/ontologies/OTRL#OTRL&#45;9&#45;&gt;http://purl.org/oseg/ontologies/OTRL#OTRL -->
<g id="edge37" class="edge">
<title>http://purl.org/oseg/ontologies/OTRL#OTRL&#45;9&#45;&gt;http://purl.org/oseg/ontologies/OTRL#OTRL</title>
<path fill="none" stroke="black" d="M146.84,-742.31C173.91,-727.69 218.78,-704.97 259.83,-691.26 308.51,-675 366.39,-664.07 405.99,-657.8"/>
<polygon fill="black" stroke="black" points="406.55,-661.25 415.9,-656.27 405.48,-654.34 406.55,-661.25"/>
</g>
<!-- http://purl.org/oseg/ontologies/OTRL#OTRL&#45;9&#45;&gt;http://www.w3.org/2002/07/owl#class -->
<g id="edge29" class="edge">
<title>http://purl.org/oseg/ontologies/OTRL#OTRL&#45;9&#45;&gt;http://www.w3.org/2002/07/owl#class</title>
<path fill="none" stroke="black" d="M159.37,-766.59C186.94,-773.78 225.45,-783.01 259.83,-788.26 399.53,-809.63 452.36,-745.47 576.9,-812.26 620.13,-835.45 650.88,-885.88 666.48,-916.67"/>
<polygon fill="black" stroke="black" points="663.47,-918.48 671.01,-925.92 669.75,-915.4 663.47,-918.48"/>
<text text-anchor="middle" x="453.87" y="-816.06" font-family="Times,serif" font-size="14.00">a</text>
</g>
<!-- http://purl.org/oseg/ontologies/OTRL#documentationDescription -->
<g id="node8" class="node">
<title>http://purl.org/oseg/ontologies/OTRL#documentationDescription</title>
<ellipse fill="none" stroke="#e377c2" cx="120.92" cy="-320.26" rx="120.83" ry="16.03"/>
<text text-anchor="middle" x="120.92" y="-316.56" font-family="Times,serif" font-size="14.00">documentationDesc...</text>
</g>
<!-- http://purl.org/oseg/ontologies/OTRL#documentationDescription&#45;&gt;http://purl.org/oseg/ontologies/OTRL#OTRL -->
<g id="edge8" class="edge">
<title>http://purl.org/oseg/ontologies/OTRL#documentationDescription&#45;&gt;http://purl.org/oseg/ontologies/OTRL#OTRL</title>
<path fill="none" stroke="black" d="M154.49,-336.03C182.17,-351.17 220.67,-376.68 241.83,-410.26 263.57,-444.78 233.18,-469.38 259.83,-500.26 276.18,-519.21 296.7,-500.13 312.83,-519.26 342.51,-554.45 299.38,-587.65 330.83,-621.26 349.37,-641.08 378.7,-648.72 403.96,-651.34"/>
<polygon fill="black" stroke="black" points="403.88,-654.84 414.13,-652.16 404.44,-647.87 403.88,-654.84"/>
<text text-anchor="middle" x="286.33" y="-523.06" font-family="Times,serif" font-size="14.00">domain</text>
</g>
<!-- http://purl.org/oseg/ontologies/OTRL#documentationDescription&#45;&gt;http://www.w3.org/2002/07/owl#DatatypeProperty -->
<g id="edge3" class="edge">
<title>http://purl.org/oseg/ontologies/OTRL#documentationDescription&#45;&gt;http://www.w3.org/2002/07/owl#DatatypeProperty</title>
<path fill="none" stroke="black" d="M171.2,-305.39C226.9,-288.49 310.24,-262.89 312.83,-260.26 332.39,-240.45 314.74,-222.99 330.83,-200.26 351.66,-170.84 385.31,-147.36 412,-131.92"/>
<polygon fill="black" stroke="black" points="413.76,-134.94 420.76,-126.99 410.32,-128.84 413.76,-134.94"/>
<text text-anchor="middle" x="286.33" y="-282.06" font-family="Times,serif" font-size="14.00">a</text>
</g>
<!-- http://schema.org/Text -->
<g id="node16" class="node">
<title>http://schema.org/Text</title>
<ellipse fill="none" stroke="#e377c2" cx="453.87" cy="-225.26" rx="74.91" ry="16.03"/>
<text text-anchor="middle" x="453.87" y="-221.56" font-family="Times,serif" font-size="14.00">schema:Text</text>
</g>
<!-- http://purl.org/oseg/ontologies/OTRL#documentationDescription&#45;&gt;http://schema.org/Text -->
<g id="edge18" class="edge">
<title>http://purl.org/oseg/ontologies/OTRL#documentationDescription&#45;&gt;http://schema.org/Text</title>
<path fill="none" stroke="black" d="M233.62,-314.31C259.98,-311.02 287.71,-305.97 312.83,-298.26 352.16,-286.2 393.49,-263.2 420.97,-246.23"/>
<polygon fill="black" stroke="black" points="423.12,-249.01 429.73,-240.73 419.4,-243.08 423.12,-249.01"/>
<text text-anchor="middle" x="286.33" y="-314.06" font-family="Times,serif" font-size="14.00">range</text>
</g>
<!-- http://purl.org/oseg/ontologies/OTRL#ODRL&#45;5 -->
<g id="node9" class="node">
<title>http://purl.org/oseg/ontologies/OTRL#ODRL&#45;5</title>
<ellipse fill="none" stroke="#e377c2" cx="120.92" cy="-1336.26" rx="50.82" ry="16.03"/>
<text text-anchor="middle" x="120.92" y="-1332.56" font-family="Times,serif" font-size="14.00">ODRL&#45;5</text>
</g>
<!-- http://purl.org/oseg/ontologies/OTRL#ODRL&#45;5&#45;&gt;http://purl.org/oseg/ontologies/OTRL#ODRL -->
<g id="edge32" class="edge">
<title>http://purl.org/oseg/ontologies/OTRL#ODRL&#45;5&#45;&gt;http://purl.org/oseg/ontologies/OTRL#ODRL</title>
<path fill="none" stroke="black" d="M166.11,-1328.77C189.42,-1323.77 218.03,-1315.92 241.83,-1304.26 277.43,-1286.82 285.17,-1278.66 312.83,-1250.26 322.38,-1240.46 319.48,-1232.93 330.83,-1225.26 351.94,-1211.01 379.17,-1203.52 402.55,-1199.59"/>
<polygon fill="black" stroke="black" points="403.28,-1203.02 412.64,-1198.06 402.23,-1196.09 403.28,-1203.02"/>
</g>
<!-- http://purl.org/oseg/ontologies/OTRL#ODRL&#45;5&#45;&gt;http://www.w3.org/2002/07/owl#class -->
<g id="edge5" class="edge">
<title>http://purl.org/oseg/ontologies/OTRL#ODRL&#45;5&#45;&gt;http://www.w3.org/2002/07/owl#class</title>
<path fill="none" stroke="black" d="M159.92,-1346.85C243.22,-1367.68 444.97,-1404.93 576.9,-1319.26 637.03,-1280.22 666.94,-1048.26 675.52,-968.88"/>
<polygon fill="black" stroke="black" points="679.02,-969.04 676.59,-958.73 672.06,-968.31 679.02,-969.04"/>
<text text-anchor="middle" x="453.87" y="-1376.06" font-family="Times,serif" font-size="14.00">a</text>
</g>
<!-- http://purl.org/oseg/ontologies/OTRL#ODRL&#45;2 -->
<g id="node10" class="node">
<title>http://purl.org/oseg/ontologies/OTRL#ODRL&#45;2</title>
<ellipse fill="none" stroke="#e377c2" cx="120.92" cy="-1217.26" rx="50.82" ry="16.03"/>
<text text-anchor="middle" x="120.92" y="-1213.56" font-family="Times,serif" font-size="14.00">ODRL&#45;2</text>
</g>
<!-- http://purl.org/oseg/ontologies/OTRL#ODRL&#45;2&#45;&gt;http://purl.org/oseg/ontologies/OTRL#ODRL -->
<g id="edge42" class="edge">
<title>http://purl.org/oseg/ontologies/OTRL#ODRL&#45;2&#45;&gt;http://purl.org/oseg/ontologies/OTRL#ODRL</title>
<path fill="none" stroke="black" d="M171.1,-1213.99C233.19,-1209.87 339.44,-1202.8 402.21,-1198.63"/>
<polygon fill="black" stroke="black" points="402.53,-1202.12 412.28,-1197.96 402.07,-1195.13 402.53,-1202.12"/>
</g>
<!-- http://purl.org/oseg/ontologies/OTRL#ODRL&#45;2&#45;&gt;http://www.w3.org/2002/07/owl#class -->
<g id="edge30" class="edge">
<title>http://purl.org/oseg/ontologies/OTRL#ODRL&#45;2&#45;&gt;http://www.w3.org/2002/07/owl#class</title>
<path fill="none" stroke="black" d="M159.17,-1228.12C240.14,-1249.53 436.18,-1289.43 576.9,-1220.26 669.56,-1174.72 679.15,-1029.33 678.99,-968.95"/>
<polygon fill="black" stroke="black" points="682.49,-968.66 678.87,-958.71 675.49,-968.75 682.49,-968.66"/>
<text text-anchor="middle" x="453.87" y="-1262.06" font-family="Times,serif" font-size="14.00">a</text>
</g>
<!-- http://purl.org/oseg/ontologies/OTRL#OTRL&#45;4 -->
<g id="node11" class="node">
<title>http://purl.org/oseg/ontologies/OTRL#OTRL&#45;4</title>
<ellipse fill="none" stroke="#e377c2" cx="120.92" cy="-993.26" rx="49.49" ry="16.03"/>
<text text-anchor="middle" x="120.92" y="-989.56" font-family="Times,serif" font-size="14.00">OTRL&#45;4</text>
</g>
<!-- http://purl.org/oseg/ontologies/OTRL#OTRL&#45;4&#45;&gt;http://purl.org/oseg/ontologies/OTRL#OTRL -->
<g id="edge15" class="edge">
<title>http://purl.org/oseg/ontologies/OTRL#OTRL&#45;4&#45;&gt;http://purl.org/oseg/ontologies/OTRL#OTRL</title>
<path fill="none" stroke="black" d="M170.59,-992.16C194.14,-989.42 221.61,-982.73 241.83,-967.26 296.3,-925.59 291.43,-895.42 312.83,-830.26 328.84,-781.53 301.07,-758.04 330.83,-716.26 349.81,-689.62 383.16,-672.93 410.21,-663.14"/>
<polygon fill="black" stroke="black" points="411.52,-666.39 419.85,-659.84 409.25,-659.76 411.52,-666.39"/>
</g>
<!-- http://purl.org/oseg/ontologies/OTRL#OTRL&#45;4&#45;&gt;http://www.w3.org/2002/07/owl#class -->
<g id="edge6" class="edge">
<title>http://purl.org/oseg/ontologies/OTRL#OTRL&#45;4&#45;&gt;http://www.w3.org/2002/07/owl#class</title>
<path fill="none" stroke="black" d="M170.24,-991.66C253.54,-988.49 429.42,-980.04 576.9,-961.26 591.9,-959.35 608.03,-956.63 622.91,-953.85"/>
<polygon fill="black" stroke="black" points="623.82,-957.24 632.99,-951.92 622.51,-950.36 623.82,-957.24"/>
<text text-anchor="middle" x="453.87" y="-987.06" font-family="Times,serif" font-size="14.00">a</text>
</g>
<!-- http://purl.org/oseg/ontologies/OTRL#OTRL&#45;7 -->
<g id="node12" class="node">
<title>http://purl.org/oseg/ontologies/OTRL#OTRL&#45;7</title>
<ellipse fill="none" stroke="#e377c2" cx="120.92" cy="-942.26" rx="49.49" ry="16.03"/>
<text text-anchor="middle" x="120.92" y="-938.56" font-family="Times,serif" font-size="14.00">OTRL&#45;7</text>
</g>
<!-- http://purl.org/oseg/ontologies/OTRL#OTRL&#45;7&#45;&gt;http://purl.org/oseg/ontologies/OTRL#OTRL -->
<g id="edge4" class="edge">
<title>http://purl.org/oseg/ontologies/OTRL#OTRL&#45;7&#45;&gt;http://purl.org/oseg/ontologies/OTRL#OTRL</title>
<path fill="none" stroke="black" d="M169.28,-938.66C193.34,-934.67 221.66,-926.38 241.83,-909.26 313.86,-848.15 265.98,-784.94 330.83,-716.26 353.34,-692.43 386.55,-675.53 412.65,-664.94"/>
<polygon fill="black" stroke="black" points="414.23,-668.09 422.27,-661.2 411.68,-661.57 414.23,-668.09"/>
</g>
<!-- http://purl.org/oseg/ontologies/OTRL#OTRL&#45;7&#45;&gt;http://www.w3.org/2002/07/owl#class -->
<g id="edge7" class="edge">
<title>http://purl.org/oseg/ontologies/OTRL#OTRL&#45;7&#45;&gt;http://www.w3.org/2002/07/owl#class</title>
<path fill="none" stroke="black" d="M170.79,-942.26C270.67,-942.26 498.28,-942.26 611.57,-942.26"/>
<polygon fill="black" stroke="black" points="611.84,-945.76 621.84,-942.26 611.84,-938.76 611.84,-945.76"/>
<text text-anchor="middle" x="453.87" y="-946.06" font-family="Times,serif" font-size="14.00">a</text>
</g>
<!-- http://purl.org/oseg/ontologies/OTRL#ODRL&#45;0 -->
<g id="node13" class="node">
<title>http://purl.org/oseg/ontologies/OTRL#ODRL&#45;0</title>
<ellipse fill="none" stroke="#e377c2" cx="120.92" cy="-1105.26" rx="50.82" ry="16.03"/>
<text text-anchor="middle" x="120.92" y="-1101.56" font-family="Times,serif" font-size="14.00">ODRL&#45;0</text>
</g>
<!-- http://purl.org/oseg/ontologies/OTRL#ODRL&#45;0&#45;&gt;http://purl.org/oseg/ontologies/OTRL#ODRL -->
<g id="edge10" class="edge">
<title>http://purl.org/oseg/ontologies/OTRL#ODRL&#45;0&#45;&gt;http://purl.org/oseg/ontologies/OTRL#ODRL</title>
<path fill="none" stroke="black" d="M165.61,-1113.08C188.52,-1117.6 216.92,-1123.85 241.83,-1131.26 282.42,-1143.34 290.42,-1152.63 330.83,-1165.26 355.68,-1173.03 383.88,-1180.08 406.91,-1185.39"/>
<polygon fill="black" stroke="black" points="406.24,-1188.82 416.77,-1187.62 407.79,-1182 406.24,-1188.82"/>
</g>
<!-- http://purl.org/oseg/ontologies/OTRL#ODRL&#45;0&#45;&gt;http://www.w3.org/2002/07/owl#class -->
<g id="edge31" class="edge">
<title>http://purl.org/oseg/ontologies/OTRL#ODRL&#45;0&#45;&gt;http://www.w3.org/2002/07/owl#class</title>
<path fill="none" stroke="black" d="M171.86,-1105.38C274.98,-1104.87 507.62,-1099.6 576.9,-1063.26 617.66,-1041.89 648.54,-996.45 664.96,-967.75"/>
<polygon fill="black" stroke="black" points="668.18,-969.15 669.96,-958.71 662.05,-965.76 668.18,-969.15"/>
<text text-anchor="middle" x="453.87" y="-1105.06" font-family="Times,serif" font-size="14.00">a</text>
</g>
<!-- http://purl.org/oseg/ontologies/OTRL#ODRL&#45;1 -->
<g id="node14" class="node">
<title>http://purl.org/oseg/ontologies/OTRL#ODRL&#45;1</title>
<ellipse fill="none" stroke="#e377c2" cx="120.92" cy="-1044.26" rx="50.82" ry="16.03"/>
<text text-anchor="middle" x="120.92" y="-1040.56" font-family="Times,serif" font-size="14.00">ODRL&#45;1</text>
</g>
<!-- http://purl.org/oseg/ontologies/OTRL#ODRL&#45;1&#45;&gt;http://purl.org/oseg/ontologies/OTRL#ODRL -->
<g id="edge25" class="edge">
<title>http://purl.org/oseg/ontologies/OTRL#ODRL&#45;1&#45;&gt;http://purl.org/oseg/ontologies/OTRL#ODRL</title>
<path fill="none" stroke="black" d="M164.12,-1053C187.76,-1058.85 217.33,-1067.79 241.83,-1080.26 277.16,-1098.25 286.59,-1104.54 312.83,-1134.26 323.38,-1146.21 318.08,-1155.71 330.83,-1165.26 351.29,-1180.59 378.58,-1188.17 402.17,-1191.89"/>
<polygon fill="black" stroke="black" points="401.98,-1195.39 412.36,-1193.29 402.94,-1188.46 401.98,-1195.39"/>
</g>
<!-- http://purl.org/oseg/ontologies/OTRL#ODRL&#45;1&#45;&gt;http://www.w3.org/2002/07/owl#class -->
<g id="edge11" class="edge">
<title>http://purl.org/oseg/ontologies/OTRL#ODRL&#45;1&#45;&gt;http://www.w3.org/2002/07/owl#class</title>
<path fill="none" stroke="black" d="M171.48,-1046.69C256.63,-1049.34 435.22,-1048.19 576.9,-1002.26 603.54,-993.63 630.68,-977.05 650.15,-963.5"/>
<polygon fill="black" stroke="black" points="652.41,-966.19 658.52,-957.53 648.35,-960.49 652.41,-966.19"/>
<text text-anchor="middle" x="453.87" y="-1048.06" font-family="Times,serif" font-size="14.00">a</text>
</g>
<!-- http://purl.org/oseg/ontologies/OTRL#OTRL&#45;3 -->
<g id="node15" class="node">
<title>http://purl.org/oseg/ontologies/OTRL#OTRL&#45;3</title>
<ellipse fill="none" stroke="#e377c2" cx="120.92" cy="-884.26" rx="49.49" ry="16.03"/>
<text text-anchor="middle" x="120.92" y="-880.56" font-family="Times,serif" font-size="14.00">OTRL&#45;3</text>
</g>
<!-- http://purl.org/oseg/ontologies/OTRL#OTRL&#45;3&#45;&gt;http://purl.org/oseg/ontologies/OTRL#OTRL -->
<g id="edge40" class="edge">
<title>http://purl.org/oseg/ontologies/OTRL#OTRL&#45;3&#45;&gt;http://purl.org/oseg/ontologies/OTRL#OTRL</title>
<path fill="none" stroke="black" d="M170.12,-882.47C195.03,-878.95 223.88,-870.36 241.83,-850.26 274.54,-813.65 230.15,-780.38 259.83,-741.26 264.97,-734.49 362.4,-690.98 416.83,-667.03"/>
<polygon fill="black" stroke="black" points="418.39,-670.16 426.14,-662.94 415.57,-663.75 418.39,-670.16"/>
</g>
<!-- http://purl.org/oseg/ontologies/OTRL#OTRL&#45;3&#45;&gt;http://www.w3.org/2002/07/owl#class -->
<g id="edge12" class="edge">
<title>http://purl.org/oseg/ontologies/OTRL#OTRL&#45;3&#45;&gt;http://www.w3.org/2002/07/owl#class</title>
<path fill="none" stroke="black" d="M169.91,-886.8C253.07,-891.54 429.22,-903.13 576.9,-923.26 591.81,-925.3 607.85,-928.04 622.67,-930.82"/>
<polygon fill="black" stroke="black" points="622.23,-934.29 632.71,-932.73 623.54,-927.42 622.23,-934.29"/>
<text text-anchor="middle" x="453.87" y="-927.06" font-family="Times,serif" font-size="14.00">a</text>
</g>
<!-- http://purl.org/oseg/ontologies/OTRL#OTRL&#45;8 -->
<g id="node17" class="node">
<title>http://purl.org/oseg/ontologies/OTRL#OTRL&#45;8</title>
<ellipse fill="none" stroke="#e377c2" cx="120.92" cy="-825.26" rx="49.49" ry="16.03"/>
<text text-anchor="middle" x="120.92" y="-821.56" font-family="Times,serif" font-size="14.00">OTRL&#45;8</text>
</g>
<!-- http://purl.org/oseg/ontologies/OTRL#OTRL&#45;8&#45;&gt;http://purl.org/oseg/ontologies/OTRL#OTRL -->
<g id="edge19" class="edge">
<title>http://purl.org/oseg/ontologies/OTRL#OTRL&#45;8&#45;&gt;http://purl.org/oseg/ontologies/OTRL#OTRL</title>
<path fill="none" stroke="black" d="M166.86,-819.05C192.15,-813.31 222.44,-802.3 241.83,-781.26 262.15,-759.22 239.22,-738.03 259.83,-716.26 280.42,-694.52 358.23,-673.1 408.55,-661.09"/>
<polygon fill="black" stroke="black" points="409.6,-664.44 418.54,-658.75 408,-657.63 409.6,-664.44"/>
</g>
<!-- http://purl.org/oseg/ontologies/OTRL#OTRL&#45;8&#45;&gt;http://www.w3.org/2002/07/owl#class -->
<g id="edge36" class="edge">
<title>http://purl.org/oseg/ontologies/OTRL#OTRL&#45;8&#45;&gt;http://www.w3.org/2002/07/owl#class</title>
<path fill="none" stroke="black" d="M170.62,-824.2C255.6,-823.82 435.41,-829.64 576.9,-879.26 604.14,-888.81 631.74,-906.64 651.23,-920.9"/>
<polygon fill="black" stroke="black" points="649.22,-923.77 659.32,-926.96 653.42,-918.16 649.22,-923.77"/>
<text text-anchor="middle" x="453.87" y="-883.06" font-family="Times,serif" font-size="14.00">a</text>
</g>
<!-- http://purl.org/oseg/ontologies/OTRL#OTRL&#45;6 -->
<g id="node18" class="node">
<title>http://purl.org/oseg/ontologies/OTRL#OTRL&#45;6</title>
<ellipse fill="none" stroke="#e377c2" cx="120.92" cy="-669.26" rx="49.49" ry="16.03"/>
<text text-anchor="middle" x="120.92" y="-665.56" font-family="Times,serif" font-size="14.00">OTRL&#45;6</text>
</g>
<!-- http://purl.org/oseg/ontologies/OTRL#OTRL&#45;6&#45;&gt;http://purl.org/oseg/ontologies/OTRL#OTRL -->
<g id="edge24" class="edge">
<title>http://purl.org/oseg/ontologies/OTRL#OTRL&#45;6&#45;&gt;http://purl.org/oseg/ontologies/OTRL#OTRL</title>
<path fill="none" stroke="black" d="M170.04,-666.65C232.7,-663.24 341.62,-657.31 404.44,-653.9"/>
<polygon fill="black" stroke="black" points="404.69,-657.39 414.48,-653.35 404.31,-650.4 404.69,-657.39"/>
</g>
<!-- http://purl.org/oseg/ontologies/OTRL#OTRL&#45;6&#45;&gt;http://www.w3.org/2002/07/owl#class -->
<g id="edge13" class="edge">
<title>http://purl.org/oseg/ontologies/OTRL#OTRL&#45;6&#45;&gt;http://www.w3.org/2002/07/owl#class</title>
<path fill="none" stroke="black" d="M168.74,-673.89C271.3,-684.8 511.84,-714.83 576.9,-762.26 629.97,-800.95 658.94,-876.4 671.13,-916.22"/>
<polygon fill="black" stroke="black" points="667.83,-917.38 674,-925.99 674.54,-915.41 667.83,-917.38"/>
<text text-anchor="middle" x="453.87" y="-766.06" font-family="Times,serif" font-size="14.00">a</text>
</g>
<!-- http://purl.org/oseg/ontologies/OTRL#ODRL&#45;4 -->
<g id="node19" class="node">
<title>http://purl.org/oseg/ontologies/OTRL#ODRL&#45;4</title>
<ellipse fill="none" stroke="#e377c2" cx="120.92" cy="-1156.26" rx="50.82" ry="16.03"/>
<text text-anchor="middle" x="120.92" y="-1152.56" font-family="Times,serif" font-size="14.00">ODRL&#45;4</text>
</g>
<!-- http://purl.org/oseg/ontologies/OTRL#ODRL&#45;4&#45;&gt;http://purl.org/oseg/ontologies/OTRL#ODRL -->
<g id="edge2" class="edge">
<title>http://purl.org/oseg/ontologies/OTRL#ODRL&#45;4&#45;&gt;http://purl.org/oseg/ontologies/OTRL#ODRL</title>
<path fill="none" stroke="black" d="M168.98,-1161.81C231.19,-1169.14 340.29,-1182 403.59,-1189.46"/>
<polygon fill="black" stroke="black" points="403.37,-1192.96 413.72,-1190.65 404.19,-1186 403.37,-1192.96"/>
</g>
<!-- http://purl.org/oseg/ontologies/OTRL#ODRL&#45;4&#45;&gt;http://www.w3.org/2002/07/owl#class -->
<g id="edge38" class="edge">
<title>http://purl.org/oseg/ontologies/OTRL#ODRL&#45;4&#45;&gt;http://www.w3.org/2002/07/owl#class</title>
<path fill="none" stroke="black" d="M172.07,-1154.93C283.28,-1151.58 543.38,-1141.57 576.9,-1120.26 632.11,-1085.17 660.27,-1008.58 671.75,-968.27"/>
<polygon fill="black" stroke="black" points="675.13,-969.18 674.38,-958.61 668.37,-967.34 675.13,-969.18"/>
<text text-anchor="middle" x="453.87" y="-1153.06" font-family="Times,serif" font-size="14.00">a</text>
</g>
<!-- http://purl.org/oseg/ontologies/OTRL#OTRL&#45;5 -->
<g id="node20" class="node">
<title>http://purl.org/oseg/ontologies/OTRL#OTRL&#45;5</title>
<ellipse fill="none" stroke="#e377c2" cx="120.92" cy="-610.26" rx="49.49" ry="16.03"/>
<text text-anchor="middle" x="120.92" y="-606.56" font-family="Times,serif" font-size="14.00">OTRL&#45;5</text>
</g>
<!-- http://purl.org/oseg/ontologies/OTRL#OTRL&#45;5&#45;&gt;http://purl.org/oseg/ontologies/OTRL#OTRL -->
<g id="edge33" class="edge">
<title>http://purl.org/oseg/ontologies/OTRL#OTRL&#45;5&#45;&gt;http://purl.org/oseg/ontologies/OTRL#OTRL</title>
<path fill="none" stroke="black" d="M167.59,-615.92C230.24,-623.68 342.28,-637.56 405.71,-645.42"/>
<polygon fill="black" stroke="black" points="405.47,-648.92 415.83,-646.68 406.34,-641.97 405.47,-648.92"/>
</g>
<!-- http://purl.org/oseg/ontologies/OTRL#OTRL&#45;5&#45;&gt;http://www.w3.org/2002/07/owl#class -->
<g id="edge39" class="edge">
<title>http://purl.org/oseg/ontologies/OTRL#OTRL&#45;5&#45;&gt;http://www.w3.org/2002/07/owl#class</title>
<path fill="none" stroke="black" d="M154.88,-598.4C235.9,-571.52 447.58,-515.45 576.9,-611.26 627.2,-648.52 662.7,-844.3 674.18,-915.96"/>
<polygon fill="black" stroke="black" points="670.74,-916.64 675.76,-925.97 677.66,-915.55 670.74,-916.64"/>
<text text-anchor="middle" x="453.87" y="-615.06" font-family="Times,serif" font-size="14.00">a</text>
</g>
<!-- http://purl.org/oseg/ontologies/OTRL#exitCriteria -->
<g id="node21" class="node">
<title>http://purl.org/oseg/ontologies/OTRL#exitCriteria</title>
<ellipse fill="none" stroke="#e377c2" cx="120.92" cy="-206.26" rx="70.01" ry="16.03"/>
<text text-anchor="middle" x="120.92" y="-202.56" font-family="Times,serif" font-size="14.00">exitCriteria</text>
</g>
<!-- http://purl.org/oseg/ontologies/OTRL#exitCriteria&#45;&gt;http://purl.org/oseg/ontologies/OTRL#OTRL -->
<g id="edge21" class="edge">
<title>http://purl.org/oseg/ontologies/OTRL#exitCriteria&#45;&gt;http://purl.org/oseg/ontologies/OTRL#OTRL</title>
<path fill="none" stroke="black" d="M191.12,-206.67C210.1,-210.28 228.97,-217.76 241.83,-232.26 270.26,-264.33 233.56,-390.41 259.83,-424.26 275.17,-444.03 297.42,-423.55 312.83,-443.26 361.81,-505.9 278.68,-561.24 330.83,-621.26 348.75,-641.89 378.35,-649.52 403.9,-651.92"/>
<polygon fill="black" stroke="black" points="403.98,-655.44 414.2,-652.64 404.46,-648.45 403.98,-655.44"/>
<text text-anchor="middle" x="286.33" y="-447.06" font-family="Times,serif" font-size="14.00">domain</text>
</g>
<!-- http://purl.org/oseg/ontologies/OTRL#exitCriteria&#45;&gt;http://www.w3.org/2002/07/owl#DatatypeProperty -->
<g id="edge16" class="edge">
<title>http://purl.org/oseg/ontologies/OTRL#exitCriteria&#45;&gt;http://www.w3.org/2002/07/owl#DatatypeProperty</title>
<path fill="none" stroke="black" d="M190.77,-204.83C209.51,-201.14 228.34,-193.88 241.83,-180.26 269.62,-152.21 229.21,-118.2 259.83,-93.26 302.05,-58.88 367.99,-75.14 410.82,-91.77"/>
<polygon fill="black" stroke="black" points="409.53,-95.02 420.12,-95.52 412.16,-88.53 409.53,-95.02"/>
<text text-anchor="middle" x="286.33" y="-97.06" font-family="Times,serif" font-size="14.00">a</text>
</g>
<!-- http://purl.org/oseg/ontologies/OTRL#exitCriteria&#45;&gt;http://schema.org/Text -->
<g id="edge17" class="edge">
<title>http://purl.org/oseg/ontologies/OTRL#exitCriteria&#45;&gt;http://schema.org/Text</title>
<path fill="none" stroke="black" d="M190.92,-204.59C227.23,-204.22 272.48,-204.57 312.83,-207.26 335.52,-208.78 360.16,-211.56 382.36,-214.49"/>
<polygon fill="black" stroke="black" points="381.99,-217.97 392.37,-215.84 382.93,-211.03 381.99,-217.97"/>
<text text-anchor="middle" x="286.33" y="-211.06" font-family="Times,serif" font-size="14.00">range</text>
</g>
<!-- http://purl.org/oseg/ontologies/OTRL -->
<g id="node22" class="node">
<title>http://purl.org/oseg/ontologies/OTRL</title>
<ellipse fill="none" stroke="#e377c2" cx="120.92" cy="-16.26" rx="60.62" ry="16.03"/>
<text text-anchor="middle" x="120.92" y="-12.56" font-family="Times,serif" font-size="14.00">ns1:OTRL</text>
</g>
<!-- http://purl.org/oseg/ontologies/OTRL&#45;&gt;http://www.w3.org/2002/07/owl#Ontology -->
<g id="edge41" class="edge">
<title>http://purl.org/oseg/ontologies/OTRL&#45;&gt;http://www.w3.org/2002/07/owl#Ontology</title>
<path fill="none" stroke="black" d="M181.85,-16.26C233.16,-16.26 307.71,-16.26 365.63,-16.26"/>
<polygon fill="black" stroke="black" points="365.88,-19.76 375.88,-16.26 365.88,-12.76 365.88,-19.76"/>
<text text-anchor="middle" x="286.33" y="-20.06" font-family="Times,serif" font-size="14.00">a</text>
</g>
<!-- http://purl.org/oseg/ontologies/OTRL&#45;&gt;http://purl.org/oseg/ontologies/OTRL -->
<g id="edge27" class="edge">
<title>http://purl.org/oseg/ontologies/OTRL&#45;&gt;http://purl.org/oseg/ontologies/OTRL</title>
<path fill="none" stroke="black" d="M92.88,-31.06C84.98,-40.92 94.33,-50.53 120.92,-50.53 137.95,-50.53 147.9,-46.59 150.79,-41.16"/>
<polygon fill="black" stroke="black" points="154.18,-40.27 148.96,-31.06 147.29,-41.52 154.18,-40.27"/>
<text text-anchor="middle" x="120.92" y="-54.33" font-family="Times,serif" font-size="14.00">owl:versionIRI</text>
</g>
<!-- http://purl.org/oseg/ontologies/OTRL#softwareDescription -->
<g id="node23" class="node">
<title>http://purl.org/oseg/ontologies/OTRL#softwareDescription</title>
<ellipse fill="none" stroke="#e377c2" cx="120.92" cy="-257.26" rx="113.69" ry="16.03"/>
<text text-anchor="middle" x="120.92" y="-253.56" font-family="Times,serif" font-size="14.00">softwareDescription</text>
</g>
<!-- http://purl.org/oseg/ontologies/OTRL#softwareDescription&#45;&gt;http://purl.org/oseg/ontologies/OTRL#OTRL -->
<g id="edge9" class="edge">
<title>http://purl.org/oseg/ontologies/OTRL#softwareDescription&#45;&gt;http://purl.org/oseg/ontologies/OTRL#OTRL</title>
<path fill="none" stroke="black" d="M202.36,-268.72C217.45,-274.42 231.67,-282.84 241.83,-295.26 289.1,-353.05 213.65,-403.61 259.83,-462.26 275.31,-481.92 297.15,-461.76 312.83,-481.26 352.14,-530.15 289.05,-574.47 330.83,-621.26 348.96,-641.58 378.42,-649.21 403.85,-651.71"/>
<polygon fill="black" stroke="black" points="403.86,-655.22 414.09,-652.46 404.38,-648.24 403.86,-655.22"/>
<text text-anchor="middle" x="286.33" y="-485.06" font-family="Times,serif" font-size="14.00">domain</text>
</g>
<!-- http://purl.org/oseg/ontologies/OTRL#softwareDescription&#45;&gt;http://www.w3.org/2002/07/owl#DatatypeProperty -->
<g id="edge22" class="edge">
<title>http://purl.org/oseg/ontologies/OTRL#softwareDescription&#45;&gt;http://www.w3.org/2002/07/owl#DatatypeProperty</title>
<path fill="none" stroke="black" d="M215.38,-248.17C225.17,-244.11 234.28,-238.63 241.83,-231.26 266.06,-207.63 235.84,-181.14 259.83,-157.26 278.67,-138.51 303.68,-126.89 329.44,-119.79"/>
<polygon fill="black" stroke="black" points="330.5,-123.14 339.34,-117.29 328.78,-116.35 330.5,-123.14"/>
<text text-anchor="middle" x="286.33" y="-161.06" font-family="Times,serif" font-size="14.00">a</text>
</g>
<!-- http://purl.org/oseg/ontologies/OTRL#softwareDescription&#45;&gt;http://schema.org/Text -->
<g id="edge23" class="edge">
<title>http://purl.org/oseg/ontologies/OTRL#softwareDescription&#45;&gt;http://schema.org/Text</title>
<path fill="none" stroke="black" d="M215.87,-248.18C266.07,-243.32 327.16,-237.42 374.74,-232.82"/>
<polygon fill="black" stroke="black" points="375.37,-236.27 384.98,-231.83 374.69,-229.31 375.37,-236.27"/>
<text text-anchor="middle" x="286.33" y="-247.06" font-family="Times,serif" font-size="14.00">range</text>
</g>
<!-- http://purl.org/oseg/ontologies/OTRL#hardwareDescription -->
<g id="node24" class="node">
<title>http://purl.org/oseg/ontologies/OTRL#hardwareDescription</title>
<ellipse fill="none" stroke="#e377c2" cx="120.92" cy="-155.26" rx="118.17" ry="16.03"/>
<text text-anchor="middle" x="120.92" y="-151.56" font-family="Times,serif" font-size="14.00">hardwareDescription</text>
</g>
<!-- http://purl.org/oseg/ontologies/OTRL#hardwareDescription&#45;&gt;http://purl.org/oseg/ontologies/OTRL#OTRL -->
<g id="edge14" class="edge">
<title>http://purl.org/oseg/ontologies/OTRL#hardwareDescription&#45;&gt;http://purl.org/oseg/ontologies/OTRL#OTRL</title>
<path fill="none" stroke="black" d="M218.57,-164.56C227.3,-168.66 235.3,-174.1 241.83,-181.26 264.15,-205.75 248,-298.31 259.83,-329.26 274.53,-367.73 298.86,-366.52 312.83,-405.26 329.17,-450.57 299.56,-584.62 330.83,-621.26 348.71,-642.21 378.63,-649.8 404.37,-652.1"/>
<polygon fill="black" stroke="black" points="404.16,-655.6 414.36,-652.76 404.62,-648.61 404.16,-655.6"/>
<text text-anchor="middle" x="286.33" y="-409.06" font-family="Times,serif" font-size="14.00">domain</text>
</g>
<!-- http://purl.org/oseg/ontologies/OTRL#hardwareDescription&#45;&gt;http://www.w3.org/2002/07/owl#DatatypeProperty -->
<g id="edge26" class="edge">
<title>http://purl.org/oseg/ontologies/OTRL#hardwareDescription&#45;&gt;http://www.w3.org/2002/07/owl#DatatypeProperty</title>
<path fill="none" stroke="black" d="M148.83,-139.44C173.95,-124.14 211.94,-99.61 241.83,-74.26 250.7,-66.74 249.14,-59.86 259.83,-55.26 315.03,-31.52 383.31,-65.06 422.1,-89.56"/>
<polygon fill="black" stroke="black" points="420.54,-92.72 430.83,-95.24 424.36,-86.85 420.54,-92.72"/>
<text text-anchor="middle" x="286.33" y="-59.06" font-family="Times,serif" font-size="14.00">a</text>
</g>
<!-- http://purl.org/oseg/ontologies/OTRL#hardwareDescription&#45;&gt;http://schema.org/Text -->
<g id="edge35" class="edge">
<title>http://purl.org/oseg/ontologies/OTRL#hardwareDescription&#45;&gt;http://schema.org/Text</title>
<path fill="none" stroke="black" d="M204.99,-166.71C238.63,-171.87 277.74,-178.55 312.83,-186.26 342.01,-192.67 374.15,-201.5 400.27,-209.13"/>
<polygon fill="black" stroke="black" points="399.38,-212.52 409.96,-211.99 401.36,-205.8 399.38,-212.52"/>
<text text-anchor="middle" x="286.33" y="-190.06" font-family="Times,serif" font-size="14.00">range</text>
</g>
<!-- http://purl.org/oseg/ontologies/OTRL#OTRL&#45;1 -->
<g id="node25" class="node">
<title>http://purl.org/oseg/ontologies/OTRL#OTRL&#45;1</title>
<ellipse fill="none" stroke="#e377c2" cx="120.92" cy="-527.26" rx="49.49" ry="16.03"/>
<text text-anchor="middle" x="120.92" y="-523.56" font-family="Times,serif" font-size="14.00">OTRL&#45;1</text>
</g>
<!-- http://purl.org/oseg/ontologies/OTRL#OTRL&#45;1&#45;&gt;http://purl.org/oseg/ontologies/OTRL#OTRL -->
<g id="edge34" class="edge">
<title>http://purl.org/oseg/ontologies/OTRL#OTRL&#45;1&#45;&gt;http://purl.org/oseg/ontologies/OTRL#OTRL</title>
<path fill="none" stroke="black" d="M149.67,-540.51C197.85,-563.38 295.2,-608.98 330.83,-621.26 355.81,-629.87 384.46,-637.05 407.72,-642.22"/>
<polygon fill="black" stroke="black" points="407.15,-645.68 417.66,-644.38 408.63,-638.84 407.15,-645.68"/>
</g>
<!-- http://purl.org/oseg/ontologies/OTRL#OTRL&#45;1&#45;&gt;http://www.w3.org/2002/07/owl#class -->
<g id="edge28" class="edge">
<title>http://purl.org/oseg/ontologies/OTRL#OTRL&#45;1&#45;&gt;http://www.w3.org/2002/07/owl#class</title>
<path fill="none" stroke="black" d="M157.29,-516.19C184.36,-505.91 220.55,-487.97 241.83,-460.26 261.66,-434.44 234.14,-409.25 259.83,-389.26 312.38,-348.37 475.13,-410.76 576.9,-539.26 669.16,-655.75 678.52,-845.69 678.66,-915.46"/>
<polygon fill="black" stroke="black" points="675.16,-915.58 678.61,-925.6 682.16,-915.61 675.16,-915.58"/>
<text text-anchor="middle" x="453.87" y="-543.06" font-family="Times,serif" font-size="14.00">a</text>
</g>
<!-- http://purl.org/oseg/ontologies/OTRL#OTRL&#45;2 -->
<g id="node26" class="node">
<title>http://purl.org/oseg/ontologies/OTRL#OTRL&#45;2</title>
<ellipse fill="none" stroke="#e377c2" cx="120.92" cy="-435.26" rx="49.49" ry="16.03"/>
<text text-anchor="middle" x="120.92" y="-431.56" font-family="Times,serif" font-size="14.00">OTRL&#45;2</text>
</g>
<!-- http://purl.org/oseg/ontologies/OTRL#OTRL&#45;2&#45;&gt;http://purl.org/oseg/ontologies/OTRL#OTRL -->
<g id="edge44" class="edge">
<title>http://purl.org/oseg/ontologies/OTRL#OTRL&#45;2&#45;&gt;http://purl.org/oseg/ontologies/OTRL#OTRL</title>
<path fill="none" stroke="black" d="M154.65,-447.24C180.94,-458.21 217.37,-476.65 241.83,-502.26 254.19,-515.2 249.3,-523.8 259.83,-538.26 279.25,-564.94 292.58,-564.2 312.83,-590.26 322.6,-602.84 318.08,-611.71 330.83,-621.26 351.92,-637.06 380.26,-644.63 404.33,-648.22"/>
<polygon fill="black" stroke="black" points="403.98,-651.7 414.34,-649.52 404.88,-644.76 403.98,-651.7"/>
</g>
<!-- http://purl.org/oseg/ontologies/OTRL#OTRL&#45;2&#45;&gt;http://www.w3.org/2002/07/owl#class -->
<g id="edge46" class="edge">
<title>http://purl.org/oseg/ontologies/OTRL#OTRL&#45;2&#45;&gt;http://www.w3.org/2002/07/owl#class</title>
<path fill="none" stroke="black" d="M144.3,-420.89C216.49,-376.52 445.97,-251.18 576.9,-361.26 663.2,-433.82 675.97,-811.51 677.85,-915.65"/>
<polygon fill="black" stroke="black" points="674.36,-915.97 678.02,-925.91 681.36,-915.86 674.36,-915.97"/>
<text text-anchor="middle" x="453.87" y="-365.06" font-family="Times,serif" font-size="14.00">a</text>
</g>
</g>
</svg>
