<?xml version="1.0" encoding="UTF-8" standalone="no"?>
<!DOCTYPE svg PUBLIC "-//W3C//DTD SVG 1.1//EN"
 "http://www.w3.org/Graphics/SVG/1.1/DTD/svg11.dtd">
<!-- Generated by graphviz version 2.43.0 (0)
 -->
<!-- Title: G Pages: 1 -->
<svg width="632pt" height="941pt"
 viewBox="0.00 0.00 631.63 941.34" xmlns="http://www.w3.org/2000/svg" xmlns:xlink="http://www.w3.org/1999/xlink">
<g id="graph0" class="graph" transform="scale(1 1) rotate(0) translate(4 937.34)">
<title>G</title>
<polygon fill="white" stroke="transparent" points="-4,4 -4,-937.34 627.63,-937.34 627.63,4 -4,4"/>
<!-- http://purl.org/oseg/ontologies/OTRL#ODRL -->
<g id="node1" class="node">
<title>http://purl.org/oseg/ontologies/OTRL#ODRL</title>
<ellipse fill="none" stroke="#e377c2" cx="566.36" cy="-506.07" rx="41.94" ry="16.03"/>
<text text-anchor="middle" x="566.36" y="-502.37" font-family="Times,serif" font-size="14.00">ODRL</text>
</g>
<!-- http://purl.org/oseg/ontologies/OTRL#OTRL -->
<g id="node2" class="node">
<title>http://purl.org/oseg/ontologies/OTRL#OTRL</title>
<ellipse fill="none" stroke="#e377c2" cx="341.04" cy="-182.07" rx="39.7" ry="16.03"/>
<text text-anchor="middle" x="341.04" y="-178.37" font-family="Times,serif" font-size="14.00">OTRL</text>
</g>
<!-- http://www.w3.org/2002/07/owl#class -->
<g id="node3" class="node">
<title>http://www.w3.org/2002/07/owl#class</title>
<ellipse fill="none" stroke="#1f77b4" cx="566.36" cy="-300.07" rx="57.05" ry="16.03"/>
<text text-anchor="middle" x="566.36" y="-296.37" font-family="Times,serif" font-size="14.00">owl:class</text>
</g>
<!-- http://purl.org/oseg/ontologies/OTRL#OTRL&#45;&gt;http://www.w3.org/2002/07/owl#class -->
<g id="edge10" class="edge">
<title>http://purl.org/oseg/ontologies/OTRL#OTRL&#45;&gt;http://www.w3.org/2002/07/owl#class</title>
<path fill="none" stroke="black" d="M380.75,-180.43C412.46,-180.79 457.43,-185.35 491.08,-205.07 519.05,-221.47 540.37,-252.8 552.84,-274.99"/>
<polygon fill="black" stroke="black" points="549.8,-276.73 557.63,-283.87 555.96,-273.41 549.8,-276.73"/>
<text text-anchor="middle" x="486.58" y="-208.87" font-family="Times,serif" font-size="14.00">a</text>
</g>
<!-- http://www.w3.org/2002/07/owl#Ontology -->
<g id="node4" class="node">
<title>http://www.w3.org/2002/07/owl#Ontology</title>
<ellipse fill="none" stroke="#1f77b4" cx="341.04" cy="-668.07" rx="77.56" ry="16.03"/>
<text text-anchor="middle" x="341.04" y="-664.37" font-family="Times,serif" font-size="14.00">owl:Ontology</text>
</g>
<!-- http://www.w3.org/2002/07/owl#DatatypeProperty -->
<g id="node5" class="node">
<title>http://www.w3.org/2002/07/owl#DatatypeProperty</title>
<ellipse fill="none" stroke="#1f77b4" cx="341.04" cy="-826.07" rx="123.07" ry="16.03"/>
<text text-anchor="middle" x="341.04" y="-822.37" font-family="Times,serif" font-size="14.00">owl:DatatypeProperty</text>
</g>
<!-- http://purl.org/oseg/ontologies/OTRL#Otrl -->
<g id="node6" class="node">
<title>http://purl.org/oseg/ontologies/OTRL#Otrl</title>
<ellipse fill="none" stroke="#e377c2" cx="70" cy="-866.07" rx="31.64" ry="16.03"/>
<text text-anchor="middle" x="70" y="-862.37" font-family="Times,serif" font-size="14.00">Otrl</text>
</g>
<!-- http://purl.org/oseg/ontologies/OTRL#Odrl2 -->
<g id="node7" class="node">
<title>http://purl.org/oseg/ontologies/OTRL#Odrl2</title>
<ellipse fill="none" stroke="#e377c2" cx="341.04" cy="-617.07" rx="40.11" ry="16.03"/>
<text text-anchor="middle" x="341.04" y="-613.37" font-family="Times,serif" font-size="14.00">Odrl2</text>
</g>
<!-- http://purl.org/oseg/ontologies/OTRL#Odrl2&#45;&gt;http://purl.org/oseg/ontologies/OTRL#ODRL -->
<g id="edge7" class="edge">
<title>http://purl.org/oseg/ontologies/OTRL#Odrl2&#45;&gt;http://purl.org/oseg/ontologies/OTRL#ODRL</title>
<path fill="none" stroke="black" d="M375.01,-625.9C406.73,-632.49 455.06,-637.41 491.08,-618.07 524.8,-599.97 545.81,-559.08 556.54,-532.04"/>
<polygon fill="black" stroke="black" points="559.91,-533.02 560.16,-522.43 553.36,-530.55 559.91,-533.02"/>
</g>
<!-- http://purl.org/oseg/ontologies/OTRL#Odrl2&#45;&gt;http://www.w3.org/2002/07/owl#class -->
<g id="edge16" class="edge">
<title>http://purl.org/oseg/ontologies/OTRL#Odrl2&#45;&gt;http://www.w3.org/2002/07/owl#class</title>
<path fill="none" stroke="black" d="M380.82,-614.16C406.94,-610.38 440.74,-601.75 464.08,-582.07 484.56,-564.81 537.65,-392.76 557.61,-326.19"/>
<polygon fill="black" stroke="black" points="561.01,-327.03 560.52,-316.45 554.31,-325.03 561.01,-327.03"/>
<text text-anchor="middle" x="486.58" y="-548.87" font-family="Times,serif" font-size="14.00">a</text>
</g>
<!-- http://schema.org/Text -->
<g id="node8" class="node">
<title>http://schema.org/Text</title>
<ellipse fill="none" stroke="#e377c2" cx="341.04" cy="-746.07" rx="74.91" ry="16.03"/>
<text text-anchor="middle" x="341.04" y="-742.37" font-family="Times,serif" font-size="14.00">schema:Text</text>
</g>
<!-- http://purl.org/oseg/ontologies/OTRL#Odrl4 -->
<g id="node9" class="node">
<title>http://purl.org/oseg/ontologies/OTRL#Odrl4</title>
<ellipse fill="none" stroke="#e377c2" cx="341.04" cy="-557.07" rx="40.11" ry="16.03"/>
<text text-anchor="middle" x="341.04" y="-553.37" font-family="Times,serif" font-size="14.00">Odrl4</text>
</g>
<!-- http://purl.org/oseg/ontologies/OTRL#Odrl4&#45;&gt;http://purl.org/oseg/ontologies/OTRL#ODRL -->
<g id="edge15" class="edge">
<title>http://purl.org/oseg/ontologies/OTRL#Odrl4&#45;&gt;http://purl.org/oseg/ontologies/OTRL#ODRL</title>
<path fill="none" stroke="black" d="M379.38,-562.29C410.08,-565.23 454.35,-566.37 491.08,-555.07 509.3,-549.47 527.21,-537.89 540.88,-527.39"/>
<polygon fill="black" stroke="black" points="543.18,-530.03 548.81,-521.05 538.81,-524.56 543.18,-530.03"/>
</g>
<!-- http://purl.org/oseg/ontologies/OTRL#Odrl4&#45;&gt;http://www.w3.org/2002/07/owl#class -->
<g id="edge19" class="edge">
<title>http://purl.org/oseg/ontologies/OTRL#Odrl4&#45;&gt;http://www.w3.org/2002/07/owl#class</title>
<path fill="none" stroke="black" d="M381.18,-555.34C407.29,-552.3 440.94,-544.52 464.08,-525.07 526.44,-472.65 552.04,-373.94 561.08,-326.65"/>
<polygon fill="black" stroke="black" points="564.57,-327.04 562.9,-316.58 557.68,-325.79 564.57,-327.04"/>
<text text-anchor="middle" x="486.58" y="-510.87" font-family="Times,serif" font-size="14.00">a</text>
</g>
<!-- http://www.w3.org/1999/02/22&#45;rdf&#45;syntax&#45;ns#nil -->
<g id="node10" class="node">
<title>http://www.w3.org/1999/02/22&#45;rdf&#45;syntax&#45;ns#nil</title>
<ellipse fill="none" stroke="#e377c2" cx="70" cy="-917.07" rx="42.35" ry="16.03"/>
<text text-anchor="middle" x="70" y="-913.37" font-family="Times,serif" font-size="14.00">rdf:nil</text>
</g>
<!-- http://purl.org/oseg/ontologies/OTRL#Odrl -->
<g id="node11" class="node">
<title>http://purl.org/oseg/ontologies/OTRL#Odrl</title>
<ellipse fill="none" stroke="#e377c2" cx="341.04" cy="-283.07" rx="33.88" ry="16.03"/>
<text text-anchor="middle" x="341.04" y="-279.37" font-family="Times,serif" font-size="14.00">Odrl</text>
</g>
<!-- http://purl.org/oseg/ontologies/OTRL#Odrl&#45;&gt;http://www.w3.org/2002/07/owl#class -->
<g id="edge28" class="edge">
<title>http://purl.org/oseg/ontologies/OTRL#Odrl&#45;&gt;http://www.w3.org/2002/07/owl#class</title>
<path fill="none" stroke="black" d="M375.27,-282.99C405.53,-283.19 451.4,-284.22 491.08,-288.07 496.44,-288.59 502.01,-289.26 507.57,-290.01"/>
<polygon fill="black" stroke="black" points="507.13,-293.48 517.53,-291.43 508.12,-286.55 507.13,-293.48"/>
<text text-anchor="middle" x="486.58" y="-291.87" font-family="Times,serif" font-size="14.00">a</text>
</g>
<!-- http://purl.org/oseg/ontologies/OTRL#Otrl3 -->
<g id="node12" class="node">
<title>http://purl.org/oseg/ontologies/OTRL#Otrl3</title>
<ellipse fill="none" stroke="#e377c2" cx="70" cy="-316.07" rx="38.37" ry="16.03"/>
<text text-anchor="middle" x="70" y="-312.37" font-family="Times,serif" font-size="14.00">Otrl3</text>
</g>
<!-- http://purl.org/oseg/ontologies/OTRL#Otrl3&#45;&gt;http://purl.org/oseg/ontologies/OTRL#OTRL -->
<g id="edge27" class="edge">
<title>http://purl.org/oseg/ontologies/OTRL#Otrl3&#45;&gt;http://purl.org/oseg/ontologies/OTRL#OTRL</title>
<path fill="none" stroke="black" d="M87.35,-301.32C113.21,-278.77 165.97,-235.84 218.01,-212.07 241.78,-201.22 270.02,-193.95 293.35,-189.3"/>
<polygon fill="black" stroke="black" points="294.18,-192.7 303.35,-187.4 292.87,-185.82 294.18,-192.7"/>
</g>
<!-- http://purl.org/oseg/ontologies/OTRL#Otrl3&#45;&gt;http://www.w3.org/2002/07/owl#class -->
<g id="edge21" class="edge">
<title>http://purl.org/oseg/ontologies/OTRL#Otrl3&#45;&gt;http://www.w3.org/2002/07/owl#class</title>
<path fill="none" stroke="black" d="M108.43,-316.04C178.34,-315.81 333.53,-314.55 464.08,-308.07 476.12,-307.48 488.95,-306.63 501.3,-305.7"/>
<polygon fill="black" stroke="black" points="501.82,-309.17 511.52,-304.91 501.28,-302.19 501.82,-309.17"/>
<text text-anchor="middle" x="341.04" y="-318.87" font-family="Times,serif" font-size="14.00">a</text>
</g>
<!-- http://purl.org/oseg/ontologies/OTRL#Otrl1 -->
<g id="node13" class="node">
<title>http://purl.org/oseg/ontologies/OTRL#Otrl1</title>
<ellipse fill="none" stroke="#e377c2" cx="70" cy="-205.07" rx="38.37" ry="16.03"/>
<text text-anchor="middle" x="70" y="-201.37" font-family="Times,serif" font-size="14.00">Otrl1</text>
</g>
<!-- http://purl.org/oseg/ontologies/OTRL#Otrl1&#45;&gt;http://purl.org/oseg/ontologies/OTRL#OTRL -->
<g id="edge5" class="edge">
<title>http://purl.org/oseg/ontologies/OTRL#Otrl1&#45;&gt;http://purl.org/oseg/ontologies/OTRL#OTRL</title>
<path fill="none" stroke="black" d="M107.57,-201.95C155.25,-197.87 238.79,-190.73 291.67,-186.21"/>
<polygon fill="black" stroke="black" points="292.16,-189.68 301.82,-185.34 291.56,-182.7 292.16,-189.68"/>
</g>
<!-- http://purl.org/oseg/ontologies/OTRL#Otrl1&#45;&gt;http://www.w3.org/2002/07/owl#class -->
<g id="edge2" class="edge">
<title>http://purl.org/oseg/ontologies/OTRL#Otrl1&#45;&gt;http://www.w3.org/2002/07/owl#class</title>
<path fill="none" stroke="black" d="M107.93,-207.77C199.23,-214.55 430.6,-232.55 464.08,-243.07 489.95,-251.2 516.58,-266.51 536.03,-279.22"/>
<polygon fill="black" stroke="black" points="534.18,-282.19 544.43,-284.83 538.07,-276.37 534.18,-282.19"/>
<text text-anchor="middle" x="341.04" y="-246.87" font-family="Times,serif" font-size="14.00">a</text>
</g>
<!-- http://purl.org/oseg/ontologies/OTRL#Odrl3 -->
<g id="node14" class="node">
<title>http://purl.org/oseg/ontologies/OTRL#Odrl3</title>
<ellipse fill="none" stroke="#e377c2" cx="341.04" cy="-500.07" rx="40.11" ry="16.03"/>
<text text-anchor="middle" x="341.04" y="-496.37" font-family="Times,serif" font-size="14.00">Odrl3</text>
</g>
<!-- http://purl.org/oseg/ontologies/OTRL#Odrl3&#45;&gt;http://purl.org/oseg/ontologies/OTRL#ODRL -->
<g id="edge1" class="edge">
<title>http://purl.org/oseg/ontologies/OTRL#Odrl3&#45;&gt;http://purl.org/oseg/ontologies/OTRL#ODRL</title>
<path fill="none" stroke="black" d="M381.45,-501.13C418.43,-502.13 473.93,-503.62 514.28,-504.7"/>
<polygon fill="black" stroke="black" points="514.36,-508.2 524.45,-504.97 514.55,-501.21 514.36,-508.2"/>
</g>
<!-- http://purl.org/oseg/ontologies/OTRL#Odrl3&#45;&gt;http://www.w3.org/2002/07/owl#class -->
<g id="edge22" class="edge">
<title>http://purl.org/oseg/ontologies/OTRL#Odrl3&#45;&gt;http://www.w3.org/2002/07/owl#class</title>
<path fill="none" stroke="black" d="M380.2,-496.02C406.04,-491.66 439.77,-482.64 464.08,-464.07 511.73,-427.68 542.29,-361.91 556.34,-325.7"/>
<polygon fill="black" stroke="black" points="559.62,-326.91 559.86,-316.32 553.07,-324.44 559.62,-326.91"/>
<text text-anchor="middle" x="486.58" y="-450.87" font-family="Times,serif" font-size="14.00">a</text>
</g>
<!-- http://purl.org/oseg/ontologies/OTRL#Otrl5 -->
<g id="node15" class="node">
<title>http://purl.org/oseg/ontologies/OTRL#Otrl5</title>
<ellipse fill="none" stroke="#e377c2" cx="70" cy="-143.07" rx="38.37" ry="16.03"/>
<text text-anchor="middle" x="70" y="-139.37" font-family="Times,serif" font-size="14.00">Otrl5</text>
</g>
<!-- http://purl.org/oseg/ontologies/OTRL#Otrl5&#45;&gt;http://purl.org/oseg/ontologies/OTRL#OTRL -->
<g id="edge6" class="edge">
<title>http://purl.org/oseg/ontologies/OTRL#Otrl5&#45;&gt;http://purl.org/oseg/ontologies/OTRL#OTRL</title>
<path fill="none" stroke="black" d="M106.45,-148.21C154.34,-155.15 239.82,-167.54 293.03,-175.26"/>
<polygon fill="black" stroke="black" points="292.82,-178.76 303.22,-176.74 293.83,-171.84 292.82,-178.76"/>
</g>
<!-- http://purl.org/oseg/ontologies/OTRL#Otrl5&#45;&gt;http://www.w3.org/2002/07/owl#class -->
<g id="edge3" class="edge">
<title>http://purl.org/oseg/ontologies/OTRL#Otrl5&#45;&gt;http://www.w3.org/2002/07/owl#class</title>
<path fill="none" stroke="black" d="M101.49,-133.7C170.91,-114.22 344.03,-76.43 464.08,-142.07 515.56,-170.22 544.72,-236.94 557.5,-274.05"/>
<polygon fill="black" stroke="black" points="554.22,-275.27 560.67,-283.67 560.86,-273.08 554.22,-275.27"/>
<text text-anchor="middle" x="341.04" y="-145.87" font-family="Times,serif" font-size="14.00">a</text>
</g>
<!-- http://purl.org/oseg/ontologies/OTRL#exitCriteria -->
<g id="node16" class="node">
<title>http://purl.org/oseg/ontologies/OTRL#exitCriteria</title>
<ellipse fill="none" stroke="#e377c2" cx="70" cy="-815.07" rx="70.01" ry="16.03"/>
<text text-anchor="middle" x="70" y="-811.37" font-family="Times,serif" font-size="14.00">exitCriteria</text>
</g>
<!-- http://purl.org/oseg/ontologies/OTRL#exitCriteria&#45;&gt;http://www.w3.org/2002/07/owl#DatatypeProperty -->
<g id="edge14" class="edge">
<title>http://purl.org/oseg/ontologies/OTRL#exitCriteria&#45;&gt;http://www.w3.org/2002/07/owl#DatatypeProperty</title>
<path fill="none" stroke="black" d="M139.24,-817.86C161.78,-818.78 187.63,-819.84 213.11,-820.88"/>
<polygon fill="black" stroke="black" points="213.1,-824.39 223.23,-821.3 213.39,-817.39 213.1,-824.39"/>
<text text-anchor="middle" x="179.01" y="-823.87" font-family="Times,serif" font-size="14.00">a</text>
</g>
<!-- http://purl.org/oseg/ontologies/OTRL#exitCriteria&#45;&gt;http://schema.org/Text -->
<g id="edge18" class="edge">
<title>http://purl.org/oseg/ontologies/OTRL#exitCriteria&#45;&gt;http://schema.org/Text</title>
<path fill="none" stroke="black" d="M117.56,-803.13C163.15,-791.44 232.74,-773.59 281.93,-760.98"/>
<polygon fill="black" stroke="black" points="282.97,-764.32 291.79,-758.45 281.24,-757.54 282.97,-764.32"/>
<text text-anchor="middle" x="179.01" y="-795.87" font-family="Times,serif" font-size="14.00">range</text>
</g>
<!-- http://purl.org/oseg/ontologies/OTRL#Odrl1 -->
<g id="node17" class="node">
<title>http://purl.org/oseg/ontologies/OTRL#Odrl1</title>
<ellipse fill="none" stroke="#e377c2" cx="341.04" cy="-439.07" rx="40.11" ry="16.03"/>
<text text-anchor="middle" x="341.04" y="-435.37" font-family="Times,serif" font-size="14.00">Odrl1</text>
</g>
<!-- http://purl.org/oseg/ontologies/OTRL#Odrl1&#45;&gt;http://purl.org/oseg/ontologies/OTRL#ODRL -->
<g id="edge11" class="edge">
<title>http://purl.org/oseg/ontologies/OTRL#Odrl1&#45;&gt;http://purl.org/oseg/ontologies/OTRL#ODRL</title>
<path fill="none" stroke="black" d="M381.48,-438.94C412.2,-439.98 455.48,-444.01 491.08,-457.07 508.74,-463.55 526.39,-474.95 540.06,-485.12"/>
<polygon fill="black" stroke="black" points="537.96,-487.92 548.02,-491.24 542.23,-482.37 537.96,-487.92"/>
</g>
<!-- http://purl.org/oseg/ontologies/OTRL#Odrl1&#45;&gt;http://www.w3.org/2002/07/owl#class -->
<g id="edge23" class="edge">
<title>http://purl.org/oseg/ontologies/OTRL#Odrl1&#45;&gt;http://www.w3.org/2002/07/owl#class</title>
<path fill="none" stroke="black" d="M380.49,-435.39C405.66,-431.64 438.5,-424.11 464.08,-409.07 500.33,-387.76 531.43,-349.47 549.28,-324.42"/>
<polygon fill="black" stroke="black" points="552.18,-326.37 555.02,-316.16 546.44,-322.37 552.18,-326.37"/>
<text text-anchor="middle" x="486.58" y="-399.87" font-family="Times,serif" font-size="14.00">a</text>
</g>
<!-- http://purl.org/oseg/ontologies/OTRL#goal -->
<g id="node18" class="node">
<title>http://purl.org/oseg/ontologies/OTRL#goal</title>
<ellipse fill="none" stroke="#e377c2" cx="70" cy="-752.07" rx="33.47" ry="16.03"/>
<text text-anchor="middle" x="70" y="-748.37" font-family="Times,serif" font-size="14.00">goal</text>
</g>
<!-- http://purl.org/oseg/ontologies/OTRL#goal&#45;&gt;http://www.w3.org/2002/07/owl#DatatypeProperty -->
<g id="edge4" class="edge">
<title>http://purl.org/oseg/ontologies/OTRL#goal&#45;&gt;http://www.w3.org/2002/07/owl#DatatypeProperty</title>
<path fill="none" stroke="black" d="M103.32,-751.83C129.72,-752.35 167.81,-754.72 200.01,-763.07 200.65,-763.24 255.22,-787.82 296.03,-806.22"/>
<polygon fill="black" stroke="black" points="294.73,-809.48 305.29,-810.4 297.61,-803.09 294.73,-809.48"/>
<text text-anchor="middle" x="179.01" y="-766.87" font-family="Times,serif" font-size="14.00">a</text>
</g>
<!-- http://purl.org/oseg/ontologies/OTRL#goal&#45;&gt;http://schema.org/Text -->
<g id="edge20" class="edge">
<title>http://purl.org/oseg/ontologies/OTRL#goal&#45;&gt;http://schema.org/Text</title>
<path fill="none" stroke="black" d="M97.24,-742.45C114.29,-736.72 137.15,-730.01 158.01,-727.07 198.24,-721.41 243.7,-726.14 279.13,-732.3"/>
<polygon fill="black" stroke="black" points="278.85,-735.81 289.31,-734.16 280.1,-728.92 278.85,-735.81"/>
<text text-anchor="middle" x="179.01" y="-730.87" font-family="Times,serif" font-size="14.00">range</text>
</g>
<!-- http://purl.org/oseg/ontologies/OTRL -->
<g id="node19" class="node">
<title>http://purl.org/oseg/ontologies/OTRL</title>
<ellipse fill="none" stroke="#e377c2" cx="70" cy="-668.07" rx="60.62" ry="16.03"/>
<text text-anchor="middle" x="70" y="-664.37" font-family="Times,serif" font-size="14.00">ns1:OTRL</text>
</g>
<!-- http://purl.org/oseg/ontologies/OTRL&#45;&gt;http://www.w3.org/2002/07/owl#Ontology -->
<g id="edge24" class="edge">
<title>http://purl.org/oseg/ontologies/OTRL&#45;&gt;http://www.w3.org/2002/07/owl#Ontology</title>
<path fill="none" stroke="black" d="M131.05,-668.07C166.88,-668.07 213,-668.07 252.8,-668.07"/>
<polygon fill="black" stroke="black" points="253.04,-671.57 263.04,-668.07 253.04,-664.57 253.04,-671.57"/>
<text text-anchor="middle" x="179.01" y="-671.87" font-family="Times,serif" font-size="14.00">a</text>
</g>
<!-- http://purl.org/oseg/ontologies/OTRL&#45;&gt;http://purl.org/oseg/ontologies/OTRL -->
<g id="edge13" class="edge">
<title>http://purl.org/oseg/ontologies/OTRL&#45;&gt;http://purl.org/oseg/ontologies/OTRL</title>
<path fill="none" stroke="black" d="M51.18,-683.58C46.64,-693.19 52.92,-702.34 70,-702.34 80.68,-702.34 87.14,-698.76 89.37,-693.74"/>
<polygon fill="black" stroke="black" points="92.85,-693.38 88.82,-683.58 85.86,-693.75 92.85,-693.38"/>
<text text-anchor="middle" x="70" y="-706.14" font-family="Times,serif" font-size="14.00">owl:versionIRI</text>
</g>
<!-- http://purl.org/oseg/ontologies/OTRL#Otrl2 -->
<g id="node20" class="node">
<title>http://purl.org/oseg/ontologies/OTRL#Otrl2</title>
<ellipse fill="none" stroke="#e377c2" cx="70" cy="-82.07" rx="38.37" ry="16.03"/>
<text text-anchor="middle" x="70" y="-78.37" font-family="Times,serif" font-size="14.00">Otrl2</text>
</g>
<!-- http://purl.org/oseg/ontologies/OTRL#Otrl2&#45;&gt;http://purl.org/oseg/ontologies/OTRL#OTRL -->
<g id="edge17" class="edge">
<title>http://purl.org/oseg/ontologies/OTRL#Otrl2&#45;&gt;http://purl.org/oseg/ontologies/OTRL#OTRL</title>
<path fill="none" stroke="black" d="M95.26,-94.36C130.4,-112.04 193.91,-143.48 218.01,-152.07 242.89,-160.95 271.53,-168.14 294.82,-173.26"/>
<polygon fill="black" stroke="black" points="294.26,-176.72 304.77,-175.39 295.73,-169.87 294.26,-176.72"/>
</g>
<!-- http://purl.org/oseg/ontologies/OTRL#Otrl2&#45;&gt;http://www.w3.org/2002/07/owl#class -->
<g id="edge26" class="edge">
<title>http://purl.org/oseg/ontologies/OTRL#Otrl2&#45;&gt;http://www.w3.org/2002/07/owl#class</title>
<path fill="none" stroke="black" d="M107.07,-77.82C192.76,-68.45 405.75,-49.7 464.08,-87.07 529.81,-129.19 553.81,-226.71 561.78,-273.75"/>
<polygon fill="black" stroke="black" points="558.34,-274.44 563.36,-283.78 565.26,-273.35 558.34,-274.44"/>
<text text-anchor="middle" x="341.04" y="-90.87" font-family="Times,serif" font-size="14.00">a</text>
</g>
<!-- http://purl.org/oseg/ontologies/OTRL#Odrl3Star -->
<g id="node21" class="node">
<title>http://purl.org/oseg/ontologies/OTRL#Odrl3Star</title>
<ellipse fill="none" stroke="#e377c2" cx="341.04" cy="-384.07" rx="62.45" ry="16.03"/>
<text text-anchor="middle" x="341.04" y="-380.37" font-family="Times,serif" font-size="14.00">Odrl3Star</text>
</g>
<!-- http://purl.org/oseg/ontologies/OTRL#Odrl3Star&#45;&gt;http://purl.org/oseg/ontologies/OTRL#ODRL -->
<g id="edge8" class="edge">
<title>http://purl.org/oseg/ontologies/OTRL#Odrl3Star&#45;&gt;http://purl.org/oseg/ontologies/OTRL#ODRL</title>
<path fill="none" stroke="black" d="M396.45,-376.5C426.28,-374.99 462.82,-377.66 491.08,-394.07 524,-413.19 545.13,-453.43 556.12,-480.11"/>
<polygon fill="black" stroke="black" points="552.93,-481.56 559.84,-489.59 559.45,-479.01 552.93,-481.56"/>
</g>
<!-- http://purl.org/oseg/ontologies/OTRL#Odrl3Star&#45;&gt;http://www.w3.org/2002/07/owl#class -->
<g id="edge9" class="edge">
<title>http://purl.org/oseg/ontologies/OTRL#Odrl3Star&#45;&gt;http://www.w3.org/2002/07/owl#class</title>
<path fill="none" stroke="black" d="M392.18,-374.7C414.58,-369.76 441.05,-362.88 464.08,-354.07 488.02,-344.91 513.47,-331.33 532.87,-320.07"/>
<polygon fill="black" stroke="black" points="534.76,-323.02 541.6,-314.93 531.21,-316.99 534.76,-323.02"/>
<text text-anchor="middle" x="486.58" y="-349.87" font-family="Times,serif" font-size="14.00">a</text>
</g>
<!-- http://purl.org/oseg/ontologies/OTRL#Otrl4 -->
<g id="node22" class="node">
<title>http://purl.org/oseg/ontologies/OTRL#Otrl4</title>
<ellipse fill="none" stroke="#e377c2" cx="70" cy="-31.07" rx="38.37" ry="16.03"/>
<text text-anchor="middle" x="70" y="-27.37" font-family="Times,serif" font-size="14.00">Otrl4</text>
</g>
<!-- http://purl.org/oseg/ontologies/OTRL#Otrl4&#45;&gt;http://purl.org/oseg/ontologies/OTRL#OTRL -->
<g id="edge25" class="edge">
<title>http://purl.org/oseg/ontologies/OTRL#Otrl4&#45;&gt;http://purl.org/oseg/ontologies/OTRL#OTRL</title>
<path fill="none" stroke="black" d="M102.72,-39.58C114.99,-43.73 128.75,-49.49 140.01,-57.07 172.61,-79.04 176.44,-90.61 200.01,-122.07 209.33,-134.52 205.5,-142.84 218.01,-152.07 239.21,-167.72 267.56,-175.28 291.6,-178.9"/>
<polygon fill="black" stroke="black" points="291.23,-182.38 301.6,-180.22 292.15,-175.44 291.23,-182.38"/>
</g>
<!-- http://purl.org/oseg/ontologies/OTRL#Otrl4&#45;&gt;http://www.w3.org/2002/07/owl#class -->
<g id="edge12" class="edge">
<title>http://purl.org/oseg/ontologies/OTRL#Otrl4&#45;&gt;http://www.w3.org/2002/07/owl#class</title>
<path fill="none" stroke="black" d="M102.64,-22.41C173.7,-4.92 348.72,27.06 464.08,-46.07 542.85,-96.01 560.37,-218.9 564.25,-273.35"/>
<polygon fill="black" stroke="black" points="560.77,-273.82 564.88,-283.59 567.76,-273.39 560.77,-273.82"/>
<text text-anchor="middle" x="341.04" y="-49.87" font-family="Times,serif" font-size="14.00">a</text>
</g>
</g>
</svg>
