<?xml version="1.0" encoding="UTF-8" standalone="no"?>
<!DOCTYPE svg PUBLIC "-//W3C//DTD SVG 1.1//EN"
 "http://www.w3.org/Graphics/SVG/1.1/DTD/svg11.dtd">
<!-- Generated by graphviz version 2.43.0 (0)
 -->
<!-- Title: G Pages: 1 -->
<svg width="2065pt" height="1185pt"
 viewBox="0.00 0.00 2064.64 1184.53" xmlns="http://www.w3.org/2000/svg" xmlns:xlink="http://www.w3.org/1999/xlink">
<g id="graph0" class="graph" transform="scale(1 1) rotate(0) translate(4 1180.53)">
<title>G</title>
<polygon fill="white" stroke="transparent" points="-4,4 -4,-1180.53 2060.64,-1180.53 2060.64,4 -4,4"/>
<!-- https://w3id.org/oseg/ont/otrl#ODRL1 -->
<g id="node1" class="node">
<title>https://w3id.org/oseg/ont/otrl#ODRL1</title>
<ellipse fill="none" stroke="#e377c2" cx="1412.36" cy="-811.26" rx="69.09" ry="16.03"/>
<text text-anchor="middle" x="1412.36" y="-807.56" font-family="Times,serif" font-size="14.00">otrl:ODRL1</text>
</g>
<!-- https://w3id.org/oseg/ont/otrl#ODRL -->
<g id="node7" class="node">
<title>https://w3id.org/oseg/ont/otrl#ODRL</title>
<ellipse fill="none" stroke="#e377c2" cx="1933.6" cy="-719.26" rx="62.87" ry="16.03"/>
<text text-anchor="middle" x="1933.6" y="-715.56" font-family="Times,serif" font-size="14.00">otrl:ODRL</text>
</g>
<!-- https://w3id.org/oseg/ont/otrl#ODRL1&#45;&gt;https://w3id.org/oseg/ont/otrl#ODRL -->
<g id="edge24" class="edge">
<title>https://w3id.org/oseg/ont/otrl#ODRL1&#45;&gt;https://w3id.org/oseg/ont/otrl#ODRL</title>
<path fill="none" stroke="black" d="M1473.76,-803.66C1548.86,-793.8 1680.78,-775.12 1792.57,-752.26 1820.87,-746.48 1852.18,-739.18 1878,-732.93"/>
<polygon fill="black" stroke="black" points="1879.09,-736.26 1887.98,-730.49 1877.43,-729.46 1879.09,-736.26"/>
</g>
<!-- https://w3id.org/oseg/ont/otrl#OTRL6 -->
<g id="node2" class="node">
<title>https://w3id.org/oseg/ont/otrl#OTRL6</title>
<ellipse fill="none" stroke="#e377c2" cx="1412.36" cy="-377.26" rx="67.35" ry="16.03"/>
<text text-anchor="middle" x="1412.36" y="-373.56" font-family="Times,serif" font-size="14.00">otrl:OTRL6</text>
</g>
<!-- https://w3id.org/oseg/ont/otrl#OTRL -->
<g id="node15" class="node">
<title>https://w3id.org/oseg/ont/otrl#OTRL</title>
<ellipse fill="none" stroke="#e377c2" cx="1933.6" cy="-266.26" rx="60.62" ry="16.03"/>
<text text-anchor="middle" x="1933.6" y="-262.56" font-family="Times,serif" font-size="14.00">otrl:OTRL</text>
</g>
<!-- https://w3id.org/oseg/ont/otrl#OTRL6&#45;&gt;https://w3id.org/oseg/ont/otrl#OTRL -->
<g id="edge37" class="edge">
<title>https://w3id.org/oseg/ont/otrl#OTRL6&#45;&gt;https://w3id.org/oseg/ont/otrl#OTRL</title>
<path fill="none" stroke="black" d="M1474.57,-371.07C1550.2,-362.54 1682.38,-344.8 1792.57,-315.26 1825.47,-306.44 1861.75,-293.66 1889.14,-283.36"/>
<polygon fill="black" stroke="black" points="1890.7,-286.51 1898.81,-279.69 1888.21,-279.97 1890.7,-286.51"/>
</g>
<!-- https://w3id.org/oseg/ont/otrl#OTRL1 -->
<g id="node3" class="node">
<title>https://w3id.org/oseg/ont/otrl#OTRL1</title>
<ellipse fill="none" stroke="#e377c2" cx="1412.36" cy="-326.26" rx="67.35" ry="16.03"/>
<text text-anchor="middle" x="1412.36" y="-322.56" font-family="Times,serif" font-size="14.00">otrl:OTRL1</text>
</g>
<!-- https://w3id.org/oseg/ont/otrl#OTRL1&#45;&gt;https://w3id.org/oseg/ont/otrl#OTRL -->
<g id="edge52" class="edge">
<title>https://w3id.org/oseg/ont/otrl#OTRL1&#45;&gt;https://w3id.org/oseg/ont/otrl#OTRL</title>
<path fill="none" stroke="black" d="M1477.28,-322.02C1552.81,-316.63 1682.17,-306.19 1792.57,-291.26 1819.56,-287.61 1849.29,-282.47 1874.39,-277.79"/>
<polygon fill="black" stroke="black" points="1875.3,-281.18 1884.48,-275.89 1874,-274.3 1875.3,-281.18"/>
</g>
<!-- https://w3id.org/oseg/ont/otrl#ODRL4 -->
<g id="node4" class="node">
<title>https://w3id.org/oseg/ont/otrl#ODRL4</title>
<ellipse fill="none" stroke="#e377c2" cx="1412.36" cy="-760.26" rx="69.09" ry="16.03"/>
<text text-anchor="middle" x="1412.36" y="-756.56" font-family="Times,serif" font-size="14.00">otrl:ODRL4</text>
</g>
<!-- https://w3id.org/oseg/ont/otrl#ODRL4&#45;&gt;https://w3id.org/oseg/ont/otrl#ODRL -->
<g id="edge2" class="edge">
<title>https://w3id.org/oseg/ont/otrl#ODRL4&#45;&gt;https://w3id.org/oseg/ont/otrl#ODRL</title>
<path fill="none" stroke="black" d="M1478.33,-755.13C1576.59,-747.37 1762.21,-732.72 1863.09,-724.75"/>
<polygon fill="black" stroke="black" points="1863.48,-728.23 1873.18,-723.96 1862.93,-721.25 1863.48,-728.23"/>
</g>
<!-- https://w3id.org/oseg/ont/otrl#ODRL2 -->
<g id="node5" class="node">
<title>https://w3id.org/oseg/ont/otrl#ODRL2</title>
<ellipse fill="none" stroke="#e377c2" cx="1412.36" cy="-709.26" rx="69.09" ry="16.03"/>
<text text-anchor="middle" x="1412.36" y="-705.56" font-family="Times,serif" font-size="14.00">otrl:ODRL2</text>
</g>
<!-- https://w3id.org/oseg/ont/otrl#ODRL2&#45;&gt;https://w3id.org/oseg/ont/otrl#ODRL -->
<g id="edge5" class="edge">
<title>https://w3id.org/oseg/ont/otrl#ODRL2&#45;&gt;https://w3id.org/oseg/ont/otrl#ODRL</title>
<path fill="none" stroke="black" d="M1481.5,-710.58C1579.66,-712.47 1760.04,-715.94 1860.4,-717.87"/>
<polygon fill="black" stroke="black" points="1860.39,-721.37 1870.45,-718.07 1860.52,-714.37 1860.39,-721.37"/>
</g>
<!-- http://www.w3.org/2002/07/owl#DatatypeProperty -->
<g id="node6" class="node">
<title>http://www.w3.org/2002/07/owl#DatatypeProperty</title>
<ellipse fill="none" stroke="#1f77b4" cx="1933.6" cy="-544.26" rx="123.07" ry="16.03"/>
<text text-anchor="middle" x="1933.6" y="-540.56" font-family="Times,serif" font-size="14.00">owl:DatatypeProperty</text>
</g>
<!-- https://w3id.org/oseg/ont/otrl#OTRL4 -->
<g id="node8" class="node">
<title>https://w3id.org/oseg/ont/otrl#OTRL4</title>
<ellipse fill="none" stroke="#e377c2" cx="1412.36" cy="-224.26" rx="67.35" ry="16.03"/>
<text text-anchor="middle" x="1412.36" y="-220.56" font-family="Times,serif" font-size="14.00">otrl:OTRL4</text>
</g>
<!-- https://w3id.org/oseg/ont/otrl#OTRL4&#45;&gt;https://w3id.org/oseg/ont/otrl#OTRL -->
<g id="edge4" class="edge">
<title>https://w3id.org/oseg/ont/otrl#OTRL4&#45;&gt;https://w3id.org/oseg/ont/otrl#OTRL</title>
<path fill="none" stroke="black" d="M1479.64,-225.32C1555.47,-227.06 1683.27,-231.59 1792.57,-243.26 1819.37,-246.13 1848.85,-250.74 1873.81,-255.09"/>
<polygon fill="black" stroke="black" points="1873.4,-258.58 1883.86,-256.87 1874.62,-251.68 1873.4,-258.58"/>
</g>
<!-- https://w3id.org/oseg/ont/otrl#OTRL2 -->
<g id="node9" class="node">
<title>https://w3id.org/oseg/ont/otrl#OTRL2</title>
<ellipse fill="none" stroke="#e377c2" cx="1412.36" cy="-173.26" rx="67.35" ry="16.03"/>
<text text-anchor="middle" x="1412.36" y="-169.56" font-family="Times,serif" font-size="14.00">otrl:OTRL2</text>
</g>
<!-- https://w3id.org/oseg/ont/otrl#OTRL2&#45;&gt;https://w3id.org/oseg/ont/otrl#OTRL -->
<g id="edge3" class="edge">
<title>https://w3id.org/oseg/ont/otrl#OTRL2&#45;&gt;https://w3id.org/oseg/ont/otrl#OTRL</title>
<path fill="none" stroke="black" d="M1474.88,-179.44C1550.27,-187.6 1681.65,-203.74 1792.57,-227.26 1823.11,-233.74 1856.83,-243.06 1883.53,-250.97"/>
<polygon fill="black" stroke="black" points="1882.81,-254.41 1893.39,-253.92 1884.82,-247.7 1882.81,-254.41"/>
</g>
<!-- http://www.w3.org/2002/07/owl#Ontology -->
<g id="node10" class="node">
<title>http://www.w3.org/2002/07/owl#Ontology</title>
<ellipse fill="none" stroke="#1f77b4" cx="807.65" cy="-1160.26" rx="77.56" ry="16.03"/>
<text text-anchor="middle" x="807.65" y="-1156.56" font-family="Times,serif" font-size="14.00">owl:Ontology</text>
</g>
<!-- https://w3id.org/oseg/ont/otrl#OTRL5 -->
<g id="node11" class="node">
<title>https://w3id.org/oseg/ont/otrl#OTRL5</title>
<ellipse fill="none" stroke="#e377c2" cx="1412.36" cy="-111.26" rx="67.35" ry="16.03"/>
<text text-anchor="middle" x="1412.36" y="-107.56" font-family="Times,serif" font-size="14.00">otrl:OTRL5</text>
</g>
<!-- https://w3id.org/oseg/ont/otrl#OTRL5&#45;&gt;https://w3id.org/oseg/ont/otrl#OTRL -->
<g id="edge35" class="edge">
<title>https://w3id.org/oseg/ont/otrl#OTRL5&#45;&gt;https://w3id.org/oseg/ont/otrl#OTRL</title>
<path fill="none" stroke="black" d="M1471.63,-119.06C1547.32,-130.34 1682.75,-154.44 1792.57,-195.26 1830.21,-209.26 1870.91,-230.66 1898.68,-246.31"/>
<polygon fill="black" stroke="black" points="1897.16,-249.47 1907.58,-251.38 1900.62,-243.39 1897.16,-249.47"/>
</g>
<!-- https://w3id.org/oseg/ont/otrl#ODRL3 -->
<g id="node12" class="node">
<title>https://w3id.org/oseg/ont/otrl#ODRL3</title>
<ellipse fill="none" stroke="#e377c2" cx="1412.36" cy="-646.26" rx="69.09" ry="16.03"/>
<text text-anchor="middle" x="1412.36" y="-642.56" font-family="Times,serif" font-size="14.00">otrl:ODRL3</text>
</g>
<!-- https://w3id.org/oseg/ont/otrl#ODRL3&#45;&gt;https://w3id.org/oseg/ont/otrl#ODRL -->
<g id="edge42" class="edge">
<title>https://w3id.org/oseg/ont/otrl#ODRL3&#45;&gt;https://w3id.org/oseg/ont/otrl#ODRL</title>
<path fill="none" stroke="black" d="M1468.67,-655.93C1510.36,-663.07 1568.97,-672.81 1620.57,-680.26 1704.76,-692.43 1802.07,-704.23 1865.34,-711.61"/>
<polygon fill="black" stroke="black" points="1865.24,-715.12 1875.58,-712.8 1866.05,-708.17 1865.24,-715.12"/>
</g>
<!-- https://w3id.org/oseg/ont/otrl#ODRL3Star -->
<g id="node13" class="node">
<title>https://w3id.org/oseg/ont/otrl#ODRL3Star</title>
<ellipse fill="none" stroke="#e377c2" cx="1412.36" cy="-576.26" rx="90.52" ry="16.03"/>
<text text-anchor="middle" x="1412.36" y="-572.56" font-family="Times,serif" font-size="14.00">otrl:ODRL3Star</text>
</g>
<!-- https://w3id.org/oseg/ont/otrl#ODRL3Star&#45;&gt;https://w3id.org/oseg/ont/otrl#ODRL -->
<g id="edge49" class="edge">
<title>https://w3id.org/oseg/ont/otrl#ODRL3Star&#45;&gt;https://w3id.org/oseg/ont/otrl#ODRL</title>
<path fill="none" stroke="black" d="M1498.65,-581.22C1533.78,-586.92 1573.06,-598.43 1602.57,-621.26 1616.09,-631.73 1606.68,-645.29 1620.57,-655.26 1683.48,-700.43 1716.76,-667.38 1792.57,-683.26 1821.98,-689.42 1854.5,-697.7 1880.8,-704.76"/>
<polygon fill="black" stroke="black" points="1879.99,-708.16 1890.55,-707.4 1881.81,-701.4 1879.99,-708.16"/>
</g>
<!-- https://w3id.org/oseg/ont/otrl#OTRL3 -->
<g id="node14" class="node">
<title>https://w3id.org/oseg/ont/otrl#OTRL3</title>
<ellipse fill="none" stroke="#e377c2" cx="1412.36" cy="-35.26" rx="67.35" ry="16.03"/>
<text text-anchor="middle" x="1412.36" y="-31.56" font-family="Times,serif" font-size="14.00">otrl:OTRL3</text>
</g>
<!-- https://w3id.org/oseg/ont/otrl#OTRL3&#45;&gt;https://w3id.org/oseg/ont/otrl#OTRL -->
<g id="edge21" class="edge">
<title>https://w3id.org/oseg/ont/otrl#OTRL3&#45;&gt;https://w3id.org/oseg/ont/otrl#OTRL</title>
<path fill="none" stroke="black" d="M1470.4,-43.62C1547.41,-56.67 1687.09,-86.7 1792.57,-145.26 1839.87,-171.53 1885.53,-215.59 1911.24,-242.67"/>
<polygon fill="black" stroke="black" points="1908.87,-245.26 1918.26,-250.16 1913.98,-240.47 1908.87,-245.26"/>
</g>
<!-- https://w3id.org/oseg/ont/otrl#goal -->
<g id="node16" class="node">
<title>https://w3id.org/oseg/ont/otrl#goal</title>
<ellipse fill="none" stroke="#e377c2" cx="1412.36" cy="-525.26" rx="54.39" ry="16.03"/>
<text text-anchor="middle" x="1412.36" y="-521.56" font-family="Times,serif" font-size="14.00">otrl:goal</text>
</g>
<!-- https://w3id.org/oseg/ont/otrl#goal&#45;&gt;http://www.w3.org/2002/07/owl#DatatypeProperty -->
<g id="edge6" class="edge">
<title>https://w3id.org/oseg/ont/otrl#goal&#45;&gt;http://www.w3.org/2002/07/owl#DatatypeProperty</title>
<path fill="none" stroke="black" d="M1465.12,-521.12C1505.57,-520.39 1561.62,-525.13 1602.57,-551.26 1615.04,-559.22 1607.58,-572.17 1620.57,-579.26 1687.66,-615.89 1716.69,-588.6 1792.57,-579.26 1820.12,-575.87 1850.06,-568.86 1875.15,-562"/>
<polygon fill="black" stroke="black" points="1876.18,-565.34 1884.87,-559.28 1874.3,-558.6 1876.18,-565.34"/>
<text text-anchor="middle" x="1706.57" y="-602.06" font-family="Times,serif" font-size="14.00">a</text>
</g>
<!-- https://w3id.org/oseg/ont/otrl#goal&#45;&gt;https://w3id.org/oseg/ont/otrl#ODRL -->
<g id="edge22" class="edge">
<title>https://w3id.org/oseg/ont/otrl#goal&#45;&gt;https://w3id.org/oseg/ont/otrl#ODRL</title>
<path fill="none" stroke="black" d="M1461.67,-518.28C1503.91,-515.02 1564.32,-517.68 1602.57,-551.26 1625.41,-571.32 1597.46,-597.51 1620.57,-617.26 1649.8,-642.25 1756.09,-624.07 1792.57,-636.26 1834.41,-650.25 1877.29,-678.04 1904.39,-697.6"/>
<polygon fill="black" stroke="black" points="1902.48,-700.54 1912.61,-703.63 1906.62,-694.9 1902.48,-700.54"/>
<text text-anchor="middle" x="1706.57" y="-640.06" font-family="Times,serif" font-size="14.00">schema:domainIncludes</text>
</g>
<!-- https://w3id.org/oseg/ont/otrl#goal&#45;&gt;https://w3id.org/oseg/ont/otrl#OTRL -->
<g id="edge7" class="edge">
<title>https://w3id.org/oseg/ont/otrl#goal&#45;&gt;https://w3id.org/oseg/ont/otrl#OTRL</title>
<path fill="none" stroke="black" d="M1466.95,-524.48C1507.88,-521.32 1563.69,-511.2 1602.57,-481.26 1616.11,-470.83 1606.45,-456.92 1620.57,-447.26 1684.09,-403.82 1724.49,-463.17 1792.57,-427.26 1851.82,-396.01 1897.24,-328.57 1918.8,-291.67"/>
<polygon fill="black" stroke="black" points="1922.09,-292.97 1924,-282.55 1916.01,-289.5 1922.09,-292.97"/>
<text text-anchor="middle" x="1706.57" y="-451.06" font-family="Times,serif" font-size="14.00">schema:domainIncludes</text>
</g>
<!-- http://schema.org/Text -->
<g id="node19" class="node">
<title>http://schema.org/Text</title>
<ellipse fill="none" stroke="#e377c2" cx="1933.6" cy="-452.26" rx="74.91" ry="16.03"/>
<text text-anchor="middle" x="1933.6" y="-448.56" font-family="Times,serif" font-size="14.00">schema:Text</text>
</g>
<!-- https://w3id.org/oseg/ont/otrl#goal&#45;&gt;http://schema.org/Text -->
<g id="edge45" class="edge">
<title>https://w3id.org/oseg/ont/otrl#goal&#45;&gt;http://schema.org/Text</title>
<path fill="none" stroke="black" d="M1466.75,-527.01C1540.73,-528.35 1678.25,-526.87 1792.57,-503.26 1826.79,-496.2 1863.89,-482.39 1891.3,-470.92"/>
<polygon fill="black" stroke="black" points="1892.73,-474.11 1900.56,-466.98 1889.99,-467.67 1892.73,-474.11"/>
<text text-anchor="middle" x="1706.57" y="-528.06" font-family="Times,serif" font-size="14.00">range</text>
</g>
<!-- https://w3id.org/oseg/ont/otrl#exitCriteria -->
<g id="node17" class="node">
<title>https://w3id.org/oseg/ont/otrl#exitCriteria</title>
<ellipse fill="none" stroke="#e377c2" cx="1412.36" cy="-456.26" rx="91.43" ry="16.03"/>
<text text-anchor="middle" x="1412.36" y="-452.56" font-family="Times,serif" font-size="14.00">otrl:exitCriteria</text>
</g>
<!-- https://w3id.org/oseg/ont/otrl#exitCriteria&#45;&gt;http://www.w3.org/2002/07/owl#DatatypeProperty -->
<g id="edge8" class="edge">
<title>https://w3id.org/oseg/ont/otrl#exitCriteria&#45;&gt;http://www.w3.org/2002/07/owl#DatatypeProperty</title>
<path fill="none" stroke="black" d="M1502.12,-459.43C1596.56,-463.41 1739.5,-471.32 1792.57,-484.26 1828.42,-493.01 1866.8,-510.05 1894.29,-523.74"/>
<polygon fill="black" stroke="black" points="1893.04,-527.03 1903.54,-528.43 1896.2,-520.79 1893.04,-527.03"/>
<text text-anchor="middle" x="1706.57" y="-488.06" font-family="Times,serif" font-size="14.00">a</text>
</g>
<!-- https://w3id.org/oseg/ont/otrl#exitCriteria&#45;&gt;https://w3id.org/oseg/ont/otrl#ODRL -->
<g id="edge54" class="edge">
<title>https://w3id.org/oseg/ont/otrl#exitCriteria&#45;&gt;https://w3id.org/oseg/ont/otrl#ODRL</title>
<path fill="none" stroke="black" d="M1501.37,-459.98C1536.13,-465.43 1574.41,-476.89 1602.57,-500.26 1617.88,-512.97 1604.53,-529.48 1620.57,-541.26 1682.55,-586.8 1724.33,-524.79 1792.57,-560.26 1851.59,-590.94 1897.1,-657.62 1918.74,-694.13"/>
<polygon fill="black" stroke="black" points="1915.92,-696.25 1923.96,-703.15 1921.98,-692.74 1915.92,-696.25"/>
<text text-anchor="middle" x="1706.57" y="-564.06" font-family="Times,serif" font-size="14.00">schema:domainIncludes</text>
</g>
<!-- https://w3id.org/oseg/ont/otrl#exitCriteria&#45;&gt;https://w3id.org/oseg/ont/otrl#OTRL -->
<g id="edge44" class="edge">
<title>https://w3id.org/oseg/ont/otrl#exitCriteria&#45;&gt;https://w3id.org/oseg/ont/otrl#OTRL</title>
<path fill="none" stroke="black" d="M1479.22,-445.05C1516.94,-436.82 1564.24,-423.32 1602.57,-402.26 1611.95,-397.11 1611.05,-391.16 1620.57,-386.26 1690.28,-350.43 1719.59,-375.88 1792.57,-347.26 1832.68,-331.54 1875,-305.57 1902.48,-287.29"/>
<polygon fill="black" stroke="black" points="1904.52,-290.13 1910.86,-281.64 1900.61,-284.33 1904.52,-290.13"/>
<text text-anchor="middle" x="1706.57" y="-390.06" font-family="Times,serif" font-size="14.00">schema:domainIncludes</text>
</g>
<!-- https://w3id.org/oseg/ont/otrl#exitCriteria&#45;&gt;http://schema.org/Text -->
<g id="edge13" class="edge">
<title>https://w3id.org/oseg/ont/otrl#exitCriteria&#45;&gt;http://schema.org/Text</title>
<path fill="none" stroke="black" d="M1463.13,-442.63C1504.82,-431.95 1566.07,-417.99 1620.57,-412.26 1696.59,-404.28 1716.86,-401.66 1792.57,-412.26 1824.01,-416.67 1858.3,-426.37 1885.08,-435.12"/>
<polygon fill="black" stroke="black" points="1884,-438.45 1894.59,-438.29 1886.21,-431.81 1884,-438.45"/>
<text text-anchor="middle" x="1706.57" y="-416.06" font-family="Times,serif" font-size="14.00">range</text>
</g>
<!-- https://w3id.org/oseg/ont/1.1.0/otrl -->
<g id="node18" class="node">
<title>https://w3id.org/oseg/ont/1.1.0/otrl</title>
<ellipse fill="none" stroke="#e377c2" cx="807.65" cy="-1109.26" rx="50.82" ry="16.03"/>
<text text-anchor="middle" x="807.65" y="-1105.56" font-family="Times,serif" font-size="14.00">ns1:otrl</text>
</g>
<!-- https://orcid.org/0009&#45;0004&#45;3559&#45;6542 -->
<g id="node20" class="node">
<title>https://orcid.org/0009&#45;0004&#45;3559&#45;6542</title>
<ellipse fill="none" stroke="#e377c2" cx="807.65" cy="-1058.26" rx="113.69" ry="16.03"/>
<text text-anchor="middle" x="807.65" y="-1054.56" font-family="Times,serif" font-size="14.00">orcid:0009&#45;0004&#45;3...</text>
</g>
<!-- https://www.gnu.org/licenses/gpl&#45;3.0.txt -->
<g id="node21" class="node">
<title>https://www.gnu.org/licenses/gpl&#45;3.0.txt</title>
<ellipse fill="none" stroke="#e377c2" cx="807.65" cy="-1004.26" rx="85.62" ry="16.03"/>
<text text-anchor="middle" x="807.65" y="-1000.56" font-family="Times,serif" font-size="14.00">ns2:gpl&#45;3.0.txt</text>
</g>
<!-- https://w3id.org/oseg/ont/otrl -->
<g id="node22" class="node">
<title>https://w3id.org/oseg/ont/otrl</title>
<ellipse fill="none" stroke="#e377c2" cx="196.58" cy="-1023.26" rx="50.82" ry="16.03"/>
<text text-anchor="middle" x="196.58" y="-1019.56" font-family="Times,serif" font-size="14.00">ns3:otrl</text>
</g>
<!-- https://w3id.org/oseg/ont/otrl&#45;&gt;http://www.w3.org/2002/07/owl#Ontology -->
<g id="edge18" class="edge">
<title>https://w3id.org/oseg/ont/otrl&#45;&gt;http://www.w3.org/2002/07/owl#Ontology</title>
<path fill="none" stroke="black" d="M227.83,-1036.13C268.75,-1053.12 344.32,-1083 411.15,-1101.26 517.28,-1130.26 643.57,-1145.97 724.39,-1153.72"/>
<polygon fill="black" stroke="black" points="724.22,-1157.22 734.5,-1154.68 724.88,-1150.26 724.22,-1157.22"/>
<text text-anchor="middle" x="491.15" y="-1136.06" font-family="Times,serif" font-size="14.00">a</text>
</g>
<!-- https://w3id.org/oseg/ont/otrl&#45;&gt;https://w3id.org/oseg/ont/1.1.0/otrl -->
<g id="edge12" class="edge">
<title>https://w3id.org/oseg/ont/otrl&#45;&gt;https://w3id.org/oseg/ont/1.1.0/otrl</title>
<path fill="none" stroke="black" d="M239.99,-1031.82C283,-1040.29 351.52,-1053.28 411.15,-1062.26 530.74,-1080.27 671.52,-1095.61 748.72,-1103.52"/>
<polygon fill="black" stroke="black" points="748.42,-1107.01 758.73,-1104.54 749.13,-1100.05 748.42,-1107.01"/>
<text text-anchor="middle" x="491.15" y="-1086.06" font-family="Times,serif" font-size="14.00">owl:versionIRI</text>
</g>
<!-- https://w3id.org/oseg/ont/otrl&#45;&gt;https://orcid.org/0009&#45;0004&#45;3559&#45;6542 -->
<g id="edge14" class="edge">
<title>https://w3id.org/oseg/ont/otrl&#45;&gt;https://orcid.org/0009&#45;0004&#45;3559&#45;6542</title>
<path fill="none" stroke="black" d="M246.9,-1026.1C343.02,-1031.62 557.68,-1043.96 691.48,-1051.65"/>
<polygon fill="black" stroke="black" points="691.59,-1055.16 701.77,-1052.24 691.99,-1048.17 691.59,-1055.16"/>
<text text-anchor="middle" x="491.15" y="-1047.06" font-family="Times,serif" font-size="14.00">dcterms:creator</text>
</g>
<!-- https://w3id.org/oseg/ont/otrl&#45;&gt;https://www.gnu.org/licenses/gpl&#45;3.0.txt -->
<g id="edge17" class="edge">
<title>https://w3id.org/oseg/ont/otrl&#45;&gt;https://www.gnu.org/licenses/gpl&#45;3.0.txt</title>
<path fill="none" stroke="black" d="M247.42,-1021.71C349.18,-1018.53 582.23,-1011.26 713.09,-1007.18"/>
<polygon fill="black" stroke="black" points="713.22,-1010.68 723.11,-1006.87 713,-1003.68 713.22,-1010.68"/>
<text text-anchor="middle" x="491.15" y="-1020.06" font-family="Times,serif" font-size="14.00">dcterms:license</text>
</g>
<!-- https://w3id.org/oseg/ont/otrl&#45;&gt;https://www.gnu.org/licenses/gpl&#45;3.0.txt -->
<g id="edge50" class="edge">
<title>https://w3id.org/oseg/ont/otrl&#45;&gt;https://www.gnu.org/licenses/gpl&#45;3.0.txt</title>
<path fill="none" stroke="black" d="M240.74,-1015.13C283.73,-1007.47 351.73,-996.55 411.15,-992.26 517.27,-984.6 639.74,-990.6 719.94,-996.54"/>
<polygon fill="black" stroke="black" points="719.76,-1000.04 729.99,-997.3 720.29,-993.06 719.76,-1000.04"/>
<text text-anchor="middle" x="491.15" y="-996.06" font-family="Times,serif" font-size="14.00">cc:license</text>
</g>
<!-- https://orcid.org/0000&#45;0002&#45;1611&#45;7129 -->
<g id="node23" class="node">
<title>https://orcid.org/0000&#45;0002&#45;1611&#45;7129</title>
<ellipse fill="none" stroke="#e377c2" cx="807.65" cy="-947.26" rx="113.69" ry="16.03"/>
<text text-anchor="middle" x="807.65" y="-943.56" font-family="Times,serif" font-size="14.00">orcid:0000&#45;0002&#45;1...</text>
</g>
<!-- https://w3id.org/oseg/ont/otrl&#45;&gt;https://orcid.org/0000&#45;0002&#45;1611&#45;7129 -->
<g id="edge34" class="edge">
<title>https://w3id.org/oseg/ont/otrl&#45;&gt;https://orcid.org/0000&#45;0002&#45;1611&#45;7129</title>
<path fill="none" stroke="black" d="M233.42,-1011.95C275.5,-999.19 347.64,-978.97 411.15,-969.26 501.58,-955.45 604.82,-950.05 683.14,-948.05"/>
<polygon fill="black" stroke="black" points="683.63,-951.54 693.54,-947.8 683.46,-944.54 683.63,-951.54"/>
<text text-anchor="middle" x="491.15" y="-973.06" font-family="Times,serif" font-size="14.00">dcterms:creator</text>
</g>
<!-- http://id.loc.gov/vocabulary/iso639&#45;1/en -->
<g id="node25" class="node">
<title>http://id.loc.gov/vocabulary/iso639&#45;1/en</title>
<ellipse fill="none" stroke="#e377c2" cx="807.65" cy="-896.26" rx="45.01" ry="16.03"/>
<text text-anchor="middle" x="807.65" y="-892.56" font-family="Times,serif" font-size="14.00">ns4:en</text>
</g>
<!-- https://w3id.org/oseg/ont/otrl&#45;&gt;http://id.loc.gov/vocabulary/iso639&#45;1/en -->
<g id="edge39" class="edge">
<title>https://w3id.org/oseg/ont/otrl&#45;&gt;http://id.loc.gov/vocabulary/iso639&#45;1/en</title>
<path fill="none" stroke="black" d="M223.67,-1009.37C263.06,-989.1 340.62,-951.92 411.15,-934.26 530.18,-904.46 674.75,-897.73 751.89,-896.39"/>
<polygon fill="black" stroke="black" points="752.38,-899.89 762.32,-896.24 752.27,-892.89 752.38,-899.89"/>
<text text-anchor="middle" x="491.15" y="-938.06" font-family="Times,serif" font-size="14.00">dcterms:language</text>
</g>
<!-- https://w3id.org/oseg/ont/otrl#Odrl4 -->
<g id="node24" class="node">
<title>https://w3id.org/oseg/ont/otrl#Odrl4</title>
<ellipse fill="none" stroke="#e377c2" cx="807.65" cy="-788.26" rx="61.54" ry="16.03"/>
<text text-anchor="middle" x="807.65" y="-784.56" font-family="Times,serif" font-size="14.00">otrl:Odrl4</text>
</g>
<!-- https://w3id.org/oseg/ont/otrl#Odrl4&#45;&gt;https://w3id.org/oseg/ont/otrl#ODRL4 -->
<g id="edge25" class="edge">
<title>https://w3id.org/oseg/ont/otrl#Odrl4&#45;&gt;https://w3id.org/oseg/ont/otrl#ODRL4</title>
<path fill="none" stroke="black" d="M869.32,-787.3C946.98,-785.87 1085.65,-782.63 1204.14,-776.26 1248.39,-773.89 1297.87,-770.11 1337.38,-766.82"/>
<polygon fill="black" stroke="black" points="1337.79,-770.3 1347.46,-765.97 1337.21,-763.32 1337.79,-770.3"/>
<text text-anchor="middle" x="1124.14" y="-787.06" font-family="Times,serif" font-size="14.00">owl:sameAs</text>
</g>
<!-- https://w3id.org/oseg/ont/otrl#Odrl4&#45;&gt;https://w3id.org/oseg/ont/otrl#ODRL4 -->
<g id="edge48" class="edge">
<title>https://w3id.org/oseg/ont/otrl#Odrl4&#45;&gt;https://w3id.org/oseg/ont/otrl#ODRL4</title>
<path fill="none" stroke="black" d="M859.91,-779.55C907.48,-771.93 980.36,-761.44 1044.14,-757.26 1115.1,-752.61 1133.03,-756.75 1204.14,-757.26 1246.75,-757.57 1294.27,-758.24 1333.05,-758.86"/>
<polygon fill="black" stroke="black" points="1333.17,-762.36 1343.23,-759.03 1333.29,-755.37 1333.17,-762.36"/>
<text text-anchor="middle" x="1124.14" y="-761.06" font-family="Times,serif" font-size="14.00">schema:supersededBy</text>
</g>
<!-- https://w3id.org/oseg/ont/otrl#Odrl2 -->
<g id="node26" class="node">
<title>https://w3id.org/oseg/ont/otrl#Odrl2</title>
<ellipse fill="none" stroke="black" cx="807.65" cy="-710.26" rx="196.65" ry="16.03"/>
<text text-anchor="middle" x="807.65" y="-706.56" font-family="Times,serif" font-size="14.00">https://w3id.org/oseg/ont/otrl#Odrl2</text>
</g>
<!-- https://w3id.org/oseg/ont/otrl#Odrl2&#45;&gt;https://w3id.org/oseg/ont/otrl#ODRL2 -->
<g id="edge1" class="edge">
<title>https://w3id.org/oseg/ont/otrl#Odrl2&#45;&gt;https://w3id.org/oseg/ont/otrl#ODRL2</title>
<path fill="none" stroke="black" d="M1004.33,-709.94C1116.02,-709.75 1249.89,-709.53 1332.79,-709.39"/>
<polygon fill="black" stroke="black" points="1332.9,-712.89 1342.9,-709.38 1332.89,-705.89 1332.9,-712.89"/>
<text text-anchor="middle" x="1124.14" y="-714.06" font-family="Times,serif" font-size="14.00">schema:supersededBy</text>
</g>
<!-- https://w3id.org/oseg/ont/otrl#Odrl2&#45;&gt;https://w3id.org/oseg/ont/otrl#ODRL2 -->
<g id="edge43" class="edge">
<title>https://w3id.org/oseg/ont/otrl#Odrl2&#45;&gt;https://w3id.org/oseg/ont/otrl#ODRL2</title>
<path fill="none" stroke="black" d="M937.17,-698.01C971.86,-695.22 1009.41,-692.66 1044.14,-691.26 1115.2,-688.4 1133.1,-688.18 1204.14,-691.26 1249.11,-693.21 1299.42,-697.53 1339.2,-701.45"/>
<polygon fill="black" stroke="black" points="1339.04,-704.95 1349.34,-702.46 1339.73,-697.99 1339.04,-704.95"/>
<text text-anchor="middle" x="1124.14" y="-695.06" font-family="Times,serif" font-size="14.00">owl:sameAs</text>
</g>
<!-- https://w3id.org/oseg/ont/otrl#Otrl4 -->
<g id="node27" class="node">
<title>https://w3id.org/oseg/ont/otrl#Otrl4</title>
<ellipse fill="none" stroke="black" cx="807.65" cy="-234.26" rx="194.41" ry="16.03"/>
<text text-anchor="middle" x="807.65" y="-230.56" font-family="Times,serif" font-size="14.00">https://w3id.org/oseg/ont/otrl#Otrl4</text>
</g>
<!-- https://w3id.org/oseg/ont/otrl#Otrl4&#45;&gt;https://w3id.org/oseg/ont/otrl#OTRL4 -->
<g id="edge9" class="edge">
<title>https://w3id.org/oseg/ont/otrl#Otrl4&#45;&gt;https://w3id.org/oseg/ont/otrl#OTRL4</title>
<path fill="none" stroke="black" d="M980.99,-241.7C1050.35,-243.55 1131.07,-244.26 1204.14,-241.26 1249.43,-239.41 1300.14,-235.28 1340.07,-231.56"/>
<polygon fill="black" stroke="black" points="1340.61,-235.03 1350.23,-230.6 1339.95,-228.06 1340.61,-235.03"/>
<text text-anchor="middle" x="1124.14" y="-248.06" font-family="Times,serif" font-size="14.00">schema:supersededBy</text>
</g>
<!-- https://w3id.org/oseg/ont/otrl#Otrl4&#45;&gt;https://w3id.org/oseg/ont/otrl#OTRL4 -->
<g id="edge11" class="edge">
<title>https://w3id.org/oseg/ont/otrl#Otrl4&#45;&gt;https://w3id.org/oseg/ont/otrl#OTRL4</title>
<path fill="none" stroke="black" d="M967.9,-225.05C993.39,-223.89 1019.49,-222.89 1044.14,-222.26 1115.23,-220.45 1133.03,-221.92 1204.14,-222.26 1247.41,-222.47 1295.75,-222.93 1334.85,-223.35"/>
<polygon fill="black" stroke="black" points="1335.06,-226.85 1345.1,-223.46 1335.14,-219.85 1335.06,-226.85"/>
<text text-anchor="middle" x="1124.14" y="-226.06" font-family="Times,serif" font-size="14.00">owl:sameAs</text>
</g>
<!-- https://w3id.org/oseg/ont/otrl#Odrl -->
<g id="node28" class="node">
<title>https://w3id.org/oseg/ont/otrl#Odrl</title>
<ellipse fill="none" stroke="black" cx="1412.36" cy="-862.26" rx="190.42" ry="16.03"/>
<text text-anchor="middle" x="1412.36" y="-858.56" font-family="Times,serif" font-size="14.00">https://w3id.org/oseg/ont/otrl#Odrl</text>
</g>
<!-- https://w3id.org/oseg/ont/otrl#Odrl&#45;&gt;https://w3id.org/oseg/ont/otrl#ODRL -->
<g id="edge10" class="edge">
<title>https://w3id.org/oseg/ont/otrl#Odrl&#45;&gt;https://w3id.org/oseg/ont/otrl#ODRL</title>
<path fill="none" stroke="black" d="M1554.05,-851.36C1570.76,-847.62 1587.29,-842.7 1602.57,-836.26 1611.91,-832.33 1611.43,-826.65 1620.57,-822.26 1691.41,-788.26 1718.1,-806.39 1792.57,-781.26 1828.17,-769.25 1867.15,-751.6 1894.92,-738.21"/>
<polygon fill="black" stroke="black" points="1896.79,-741.19 1904.25,-733.66 1893.73,-734.89 1896.79,-741.19"/>
<text text-anchor="middle" x="1706.57" y="-826.06" font-family="Times,serif" font-size="14.00">owl:sameAs</text>
</g>
<!-- https://w3id.org/oseg/ont/otrl#Odrl&#45;&gt;https://w3id.org/oseg/ont/otrl#ODRL -->
<g id="edge26" class="edge">
<title>https://w3id.org/oseg/ont/otrl#Odrl&#45;&gt;https://w3id.org/oseg/ont/otrl#ODRL</title>
<path fill="none" stroke="black" d="M1549.53,-873.54C1623.87,-874.77 1716.07,-868.09 1792.57,-837.26 1842.76,-817.04 1888.11,-771.55 1912.87,-743.33"/>
<polygon fill="black" stroke="black" points="1915.72,-745.38 1919.59,-735.52 1910.41,-740.82 1915.72,-745.38"/>
<text text-anchor="middle" x="1706.57" y="-876.06" font-family="Times,serif" font-size="14.00">schema:supersededBy</text>
</g>
<!-- https://w3id.org/oseg/ont/otrl#Otrl5 -->
<g id="node29" class="node">
<title>https://w3id.org/oseg/ont/otrl#Otrl5</title>
<ellipse fill="none" stroke="black" cx="807.65" cy="-99.26" rx="194.41" ry="16.03"/>
<text text-anchor="middle" x="807.65" y="-95.56" font-family="Times,serif" font-size="14.00">https://w3id.org/oseg/ont/otrl#Otrl5</text>
</g>
<!-- https://w3id.org/oseg/ont/otrl#Otrl5&#45;&gt;https://w3id.org/oseg/ont/otrl#OTRL5 -->
<g id="edge15" class="edge">
<title>https://w3id.org/oseg/ont/otrl#Otrl5&#45;&gt;https://w3id.org/oseg/ont/otrl#OTRL5</title>
<path fill="none" stroke="black" d="M997.28,-103.02C1111.43,-105.29 1250.78,-108.07 1335.22,-109.75"/>
<polygon fill="black" stroke="black" points="1335.17,-113.25 1345.23,-109.95 1335.31,-106.25 1335.17,-113.25"/>
<text text-anchor="middle" x="1124.14" y="-111.06" font-family="Times,serif" font-size="14.00">owl:sameAs</text>
</g>
<!-- https://w3id.org/oseg/ont/otrl#Otrl5&#45;&gt;https://w3id.org/oseg/ont/otrl#OTRL5 -->
<g id="edge16" class="edge">
<title>https://w3id.org/oseg/ont/otrl#Otrl5&#45;&gt;https://w3id.org/oseg/ont/otrl#OTRL5</title>
<path fill="none" stroke="black" d="M946.01,-87.81C1022.13,-83.12 1118.43,-79.91 1204.14,-85.26 1251.68,-88.23 1304.99,-95 1345.64,-100.89"/>
<polygon fill="black" stroke="black" points="1345.28,-104.37 1355.69,-102.36 1346.3,-97.45 1345.28,-104.37"/>
<text text-anchor="middle" x="1124.14" y="-89.06" font-family="Times,serif" font-size="14.00">schema:supersededBy</text>
</g>
<!-- https://w3id.org/oseg/ont/otrl#Odrl3Star -->
<g id="node30" class="node">
<title>https://w3id.org/oseg/ont/otrl#Odrl3Star</title>
<ellipse fill="none" stroke="black" cx="807.65" cy="-551.26" rx="218.49" ry="16.03"/>
<text text-anchor="middle" x="807.65" y="-547.56" font-family="Times,serif" font-size="14.00">https://w3id.org/oseg/ont/otrl#Odrl3Star</text>
</g>
<!-- https://w3id.org/oseg/ont/otrl#Odrl3Star&#45;&gt;https://w3id.org/oseg/ont/otrl#ODRL3Star -->
<g id="edge19" class="edge">
<title>https://w3id.org/oseg/ont/otrl#Odrl3Star&#45;&gt;https://w3id.org/oseg/ont/otrl#ODRL3Star</title>
<path fill="none" stroke="black" d="M998.93,-559.16C1103.52,-563.49 1228.85,-568.69 1313.69,-572.21"/>
<polygon fill="black" stroke="black" points="1313.7,-575.72 1323.83,-572.63 1313.99,-568.72 1313.7,-575.72"/>
<text text-anchor="middle" x="1124.14" y="-572.06" font-family="Times,serif" font-size="14.00">owl:sameAs</text>
</g>
<!-- https://w3id.org/oseg/ont/otrl#Odrl3Star&#45;&gt;https://w3id.org/oseg/ont/otrl#ODRL3Star -->
<g id="edge20" class="edge">
<title>https://w3id.org/oseg/ont/otrl#Odrl3Star&#45;&gt;https://w3id.org/oseg/ont/otrl#ODRL3Star</title>
<path fill="none" stroke="black" d="M917.48,-537.18C997.48,-529.69 1108.46,-525.31 1204.14,-543.26 1212.58,-544.85 1213.83,-548.11 1222.14,-550.26 1253.57,-558.41 1288.63,-564.13 1319.95,-568.09"/>
<polygon fill="black" stroke="black" points="1319.63,-571.57 1329.98,-569.31 1320.48,-564.62 1319.63,-571.57"/>
<text text-anchor="middle" x="1124.14" y="-547.06" font-family="Times,serif" font-size="14.00">schema:supersededBy</text>
</g>
<!-- https://w3id.org/oseg/ont/otrl#Otrl1 -->
<g id="node31" class="node">
<title>https://w3id.org/oseg/ont/otrl#Otrl1</title>
<ellipse fill="none" stroke="black" cx="807.65" cy="-320.26" rx="194.41" ry="16.03"/>
<text text-anchor="middle" x="807.65" y="-316.56" font-family="Times,serif" font-size="14.00">https://w3id.org/oseg/ont/otrl#Otrl1</text>
</g>
<!-- https://w3id.org/oseg/ont/otrl#Otrl1&#45;&gt;https://w3id.org/oseg/ont/otrl#OTRL1 -->
<g id="edge23" class="edge">
<title>https://w3id.org/oseg/ont/otrl#Otrl1&#45;&gt;https://w3id.org/oseg/ont/otrl#OTRL1</title>
<path fill="none" stroke="black" d="M1001,-322.18C1114.27,-323.31 1251.29,-324.67 1334.84,-325.5"/>
<polygon fill="black" stroke="black" points="1334.97,-329 1345.01,-325.6 1335.04,-322 1334.97,-329"/>
<text text-anchor="middle" x="1124.14" y="-328.06" font-family="Times,serif" font-size="14.00">owl:sameAs</text>
</g>
<!-- https://w3id.org/oseg/ont/otrl#Otrl1&#45;&gt;https://w3id.org/oseg/ont/otrl#OTRL1 -->
<g id="edge41" class="edge">
<title>https://w3id.org/oseg/ont/otrl#Otrl1&#45;&gt;https://w3id.org/oseg/ont/otrl#OTRL1</title>
<path fill="none" stroke="black" d="M943.23,-308.6C1019.75,-303.52 1117.34,-299.67 1204.14,-304.26 1250.6,-306.72 1302.67,-312.26 1343,-317.17"/>
<polygon fill="black" stroke="black" points="1342.63,-320.65 1352.98,-318.4 1343.49,-313.7 1342.63,-320.65"/>
<text text-anchor="middle" x="1124.14" y="-308.06" font-family="Times,serif" font-size="14.00">schema:supersededBy</text>
</g>
<!-- https://w3id.org/oseg/ont/otrl#Otrl2 -->
<g id="node32" class="node">
<title>https://w3id.org/oseg/ont/otrl#Otrl2</title>
<ellipse fill="none" stroke="black" cx="807.65" cy="-177.26" rx="194.41" ry="16.03"/>
<text text-anchor="middle" x="807.65" y="-173.56" font-family="Times,serif" font-size="14.00">https://w3id.org/oseg/ont/otrl#Otrl2</text>
</g>
<!-- https://w3id.org/oseg/ont/otrl#Otrl2&#45;&gt;https://w3id.org/oseg/ont/otrl#OTRL2 -->
<g id="edge27" class="edge">
<title>https://w3id.org/oseg/ont/otrl#Otrl2&#45;&gt;https://w3id.org/oseg/ont/otrl#OTRL2</title>
<path fill="none" stroke="black" d="M1001.83,-175.98C1115.04,-175.23 1251.73,-174.32 1335.06,-173.77"/>
<polygon fill="black" stroke="black" points="1335.22,-177.27 1345.2,-173.7 1335.18,-170.27 1335.22,-177.27"/>
<text text-anchor="middle" x="1124.14" y="-180.06" font-family="Times,serif" font-size="14.00">schema:supersededBy</text>
</g>
<!-- https://w3id.org/oseg/ont/otrl#Otrl2&#45;&gt;https://w3id.org/oseg/ont/otrl#OTRL2 -->
<g id="edge28" class="edge">
<title>https://w3id.org/oseg/ont/otrl#Otrl2&#45;&gt;https://w3id.org/oseg/ont/otrl#OTRL2</title>
<path fill="none" stroke="black" d="M928.61,-164.49C965.62,-161.11 1006.52,-157.94 1044.14,-156.26 1115.18,-153.1 1133.09,-153.35 1204.14,-156.26 1249.43,-158.12 1300.14,-162.24 1340.07,-165.97"/>
<polygon fill="black" stroke="black" points="1339.95,-169.47 1350.23,-166.93 1340.61,-162.5 1339.95,-169.47"/>
<text text-anchor="middle" x="1124.14" y="-160.06" font-family="Times,serif" font-size="14.00">owl:sameAs</text>
</g>
<!-- https://w3id.org/oseg/ont/otrl#Otrl6 -->
<g id="node33" class="node">
<title>https://w3id.org/oseg/ont/otrl#Otrl6</title>
<ellipse fill="none" stroke="black" cx="807.65" cy="-403.26" rx="194.41" ry="16.03"/>
<text text-anchor="middle" x="807.65" y="-399.56" font-family="Times,serif" font-size="14.00">https://w3id.org/oseg/ont/otrl#Otrl6</text>
</g>
<!-- https://w3id.org/oseg/ont/otrl#Otrl6&#45;&gt;https://w3id.org/oseg/ont/otrl#OTRL6 -->
<g id="edge29" class="edge">
<title>https://w3id.org/oseg/ont/otrl#Otrl6&#45;&gt;https://w3id.org/oseg/ont/otrl#OTRL6</title>
<path fill="none" stroke="black" d="M999.33,-400.44C1064.34,-398.94 1137.44,-396.68 1204.14,-393.26 1249.06,-390.96 1299.36,-387.11 1339.16,-383.76"/>
<polygon fill="black" stroke="black" points="1339.63,-387.23 1349.3,-382.9 1339.04,-380.26 1339.63,-387.23"/>
<text text-anchor="middle" x="1124.14" y="-403.06" font-family="Times,serif" font-size="14.00">owl:sameAs</text>
</g>
<!-- https://w3id.org/oseg/ont/otrl#Otrl6&#45;&gt;https://w3id.org/oseg/ont/otrl#OTRL6 -->
<g id="edge31" class="edge">
<title>https://w3id.org/oseg/ont/otrl#Otrl6&#45;&gt;https://w3id.org/oseg/ont/otrl#OTRL6</title>
<path fill="none" stroke="black" d="M902.37,-389.05C945.44,-383.2 997.27,-377.14 1044.14,-374.26 1115.12,-369.91 1133.03,-373.75 1204.14,-374.26 1247.41,-374.58 1295.75,-375.26 1334.85,-375.89"/>
<polygon fill="black" stroke="black" points="1335.04,-379.4 1345.1,-376.06 1335.16,-372.4 1335.04,-379.4"/>
<text text-anchor="middle" x="1124.14" y="-378.06" font-family="Times,serif" font-size="14.00">schema:supersededBy</text>
</g>
<!-- https://w3id.org/oseg/ont/otrl#Odrl3 -->
<g id="node34" class="node">
<title>https://w3id.org/oseg/ont/otrl#Odrl3</title>
<ellipse fill="none" stroke="black" cx="807.65" cy="-634.26" rx="196.65" ry="16.03"/>
<text text-anchor="middle" x="807.65" y="-630.56" font-family="Times,serif" font-size="14.00">https://w3id.org/oseg/ont/otrl#Odrl3</text>
</g>
<!-- https://w3id.org/oseg/ont/otrl#Odrl3&#45;&gt;https://w3id.org/oseg/ont/otrl#ODRL3 -->
<g id="edge30" class="edge">
<title>https://w3id.org/oseg/ont/otrl#Odrl3&#45;&gt;https://w3id.org/oseg/ont/otrl#ODRL3</title>
<path fill="none" stroke="black" d="M998.93,-638.05C1111.81,-640.3 1248.85,-643.03 1333.07,-644.7"/>
<polygon fill="black" stroke="black" points="1333,-648.2 1343.07,-644.9 1333.14,-641.21 1333,-648.2"/>
<text text-anchor="middle" x="1124.14" y="-646.06" font-family="Times,serif" font-size="14.00">schema:supersededBy</text>
</g>
<!-- https://w3id.org/oseg/ont/otrl#Odrl3&#45;&gt;https://w3id.org/oseg/ont/otrl#ODRL3 -->
<g id="edge32" class="edge">
<title>https://w3id.org/oseg/ont/otrl#Odrl3&#45;&gt;https://w3id.org/oseg/ont/otrl#ODRL3</title>
<path fill="none" stroke="black" d="M946.93,-622.75C1022.9,-618.09 1118.77,-614.93 1204.14,-620.26 1251.18,-623.2 1303.87,-629.86 1344.35,-635.7"/>
<polygon fill="black" stroke="black" points="1343.97,-639.18 1354.37,-637.17 1344.98,-632.26 1343.97,-639.18"/>
<text text-anchor="middle" x="1124.14" y="-624.06" font-family="Times,serif" font-size="14.00">owl:sameAs</text>
</g>
<!-- https://w3id.org/oseg/ont/otrl#Otrl3 -->
<g id="node35" class="node">
<title>https://w3id.org/oseg/ont/otrl#Otrl3</title>
<ellipse fill="none" stroke="black" cx="807.65" cy="-16.26" rx="194.41" ry="16.03"/>
<text text-anchor="middle" x="807.65" y="-12.56" font-family="Times,serif" font-size="14.00">https://w3id.org/oseg/ont/otrl#Otrl3</text>
</g>
<!-- https://w3id.org/oseg/ont/otrl#Otrl3&#45;&gt;https://w3id.org/oseg/ont/otrl#OTRL3 -->
<g id="edge33" class="edge">
<title>https://w3id.org/oseg/ont/otrl#Otrl3&#45;&gt;https://w3id.org/oseg/ont/otrl#OTRL3</title>
<path fill="none" stroke="black" d="M989.89,-21.98C1105.32,-25.62 1248.86,-30.14 1335.13,-32.86"/>
<polygon fill="black" stroke="black" points="1335.26,-36.37 1345.37,-33.18 1335.48,-29.37 1335.26,-36.37"/>
<text text-anchor="middle" x="1124.14" y="-33.06" font-family="Times,serif" font-size="14.00">owl:sameAs</text>
</g>
<!-- https://w3id.org/oseg/ont/otrl#Otrl3&#45;&gt;https://w3id.org/oseg/ont/otrl#OTRL3 -->
<g id="edge51" class="edge">
<title>https://w3id.org/oseg/ont/otrl#Otrl3&#45;&gt;https://w3id.org/oseg/ont/otrl#OTRL3</title>
<path fill="none" stroke="black" d="M952.51,-5.38C1027.59,-1.44 1120.9,0.73 1204.14,-5.26 1252.77,-8.77 1307.33,-16.83 1348.25,-23.72"/>
<polygon fill="black" stroke="black" points="1347.9,-27.21 1358.35,-25.44 1349.08,-20.31 1347.9,-27.21"/>
<text text-anchor="middle" x="1124.14" y="-9.06" font-family="Times,serif" font-size="14.00">schema:supersededBy</text>
</g>
<!-- https://w3id.org/oseg/ont/otrl#Odrl5 -->
<g id="node36" class="node">
<title>https://w3id.org/oseg/ont/otrl#Odrl5</title>
<ellipse fill="none" stroke="black" cx="196.58" cy="-788.26" rx="196.65" ry="16.03"/>
<text text-anchor="middle" x="196.58" y="-784.56" font-family="Times,serif" font-size="14.00">https://w3id.org/oseg/ont/otrl#Odrl5</text>
</g>
<!-- https://w3id.org/oseg/ont/otrl#Odrl5&#45;&gt;https://w3id.org/oseg/ont/otrl#Odrl4 -->
<g id="edge36" class="edge">
<title>https://w3id.org/oseg/ont/otrl#Odrl5&#45;&gt;https://w3id.org/oseg/ont/otrl#Odrl4</title>
<path fill="none" stroke="black" d="M393.22,-788.26C510.43,-788.26 652.42,-788.26 735.81,-788.26"/>
<polygon fill="black" stroke="black" points="735.94,-791.76 745.94,-788.26 735.94,-784.76 735.94,-791.76"/>
<text text-anchor="middle" x="491.15" y="-792.06" font-family="Times,serif" font-size="14.00">schema:supersededBy</text>
</g>
<!-- https://w3id.org/oseg/ont/otrl#Odrl5&#45;&gt;https://w3id.org/oseg/ont/otrl#Odrl4 -->
<g id="edge40" class="edge">
<title>https://w3id.org/oseg/ont/otrl#Odrl5&#45;&gt;https://w3id.org/oseg/ont/otrl#Odrl4</title>
<path fill="none" stroke="black" d="M319.43,-775.54C349.39,-772.93 381.4,-770.58 411.15,-769.26 482.19,-766.11 500.1,-766.4 571.15,-769.26 628.23,-771.56 692.91,-776.98 740.02,-781.45"/>
<polygon fill="black" stroke="black" points="739.81,-784.95 750.1,-782.42 740.48,-777.98 739.81,-784.95"/>
<text text-anchor="middle" x="491.15" y="-773.06" font-family="Times,serif" font-size="14.00">owl:sameAs</text>
</g>
<!-- https://w3id.org/oseg/ont/otrl#Odrl1 -->
<g id="node37" class="node">
<title>https://w3id.org/oseg/ont/otrl#Odrl1</title>
<ellipse fill="none" stroke="black" cx="807.65" cy="-845.26" rx="196.65" ry="16.03"/>
<text text-anchor="middle" x="807.65" y="-841.56" font-family="Times,serif" font-size="14.00">https://w3id.org/oseg/ont/otrl#Odrl1</text>
</g>
<!-- https://w3id.org/oseg/ont/otrl#Odrl1&#45;&gt;https://w3id.org/oseg/ont/otrl#ODRL1 -->
<g id="edge38" class="edge">
<title>https://w3id.org/oseg/ont/otrl#Odrl1&#45;&gt;https://w3id.org/oseg/ont/otrl#ODRL1</title>
<path fill="none" stroke="black" d="M938.36,-857.45C1034.58,-864.64 1156.93,-869.36 1204.14,-852.26 1213.94,-848.72 1212.62,-841.47 1222.14,-837.26 1256.52,-822.09 1297.53,-815.26 1332.57,-812.35"/>
<polygon fill="black" stroke="black" points="1333.05,-815.83 1342.77,-811.6 1332.54,-808.85 1333.05,-815.83"/>
<text text-anchor="middle" x="1124.14" y="-868.06" font-family="Times,serif" font-size="14.00">schema:supersededBy</text>
</g>
<!-- https://w3id.org/oseg/ont/otrl#Odrl1&#45;&gt;https://w3id.org/oseg/ont/otrl#ODRL1 -->
<g id="edge53" class="edge">
<title>https://w3id.org/oseg/ont/otrl#Odrl1&#45;&gt;https://w3id.org/oseg/ont/otrl#ODRL1</title>
<path fill="none" stroke="black" d="M970.56,-836.13C1088.69,-829.47 1243.49,-820.73 1334.71,-815.59"/>
<polygon fill="black" stroke="black" points="1334.91,-819.08 1344.69,-815.02 1334.51,-812.09 1334.91,-819.08"/>
<text text-anchor="middle" x="1124.14" y="-836.06" font-family="Times,serif" font-size="14.00">owl:sameAs</text>
</g>
<!-- https://w3id.org/oseg/ont/otrl#Otrl -->
<g id="node38" class="node">
<title>https://w3id.org/oseg/ont/otrl#Otrl</title>
<ellipse fill="none" stroke="black" cx="1412.36" cy="-275.26" rx="188.18" ry="16.03"/>
<text text-anchor="middle" x="1412.36" y="-271.56" font-family="Times,serif" font-size="14.00">https://w3id.org/oseg/ont/otrl#Otrl</text>
</g>
<!-- https://w3id.org/oseg/ont/otrl#Otrl&#45;&gt;https://w3id.org/oseg/ont/otrl#OTRL -->
<g id="edge46" class="edge">
<title>https://w3id.org/oseg/ont/otrl#Otrl&#45;&gt;https://w3id.org/oseg/ont/otrl#OTRL</title>
<path fill="none" stroke="black" d="M1597.15,-272.08C1689,-270.49 1794.74,-268.65 1862.55,-267.48"/>
<polygon fill="black" stroke="black" points="1862.74,-270.97 1872.68,-267.3 1862.62,-263.98 1862.74,-270.97"/>
<text text-anchor="middle" x="1706.57" y="-276.06" font-family="Times,serif" font-size="14.00">owl:sameAs</text>
</g>
<!-- https://w3id.org/oseg/ont/otrl#Otrl&#45;&gt;https://w3id.org/oseg/ont/otrl#OTRL -->
<g id="edge47" class="edge">
<title>https://w3id.org/oseg/ont/otrl#Otrl&#45;&gt;https://w3id.org/oseg/ont/otrl#OTRL</title>
<path fill="none" stroke="black" d="M1509.08,-261.28C1544.08,-256.81 1584.04,-252.46 1620.57,-250.26 1696.87,-245.68 1716.25,-245.92 1792.57,-250.26 1817.79,-251.7 1845.45,-254.58 1869.47,-257.51"/>
<polygon fill="black" stroke="black" points="1869.17,-261 1879.53,-258.76 1870.04,-254.05 1869.17,-261"/>
<text text-anchor="middle" x="1706.57" y="-254.06" font-family="Times,serif" font-size="14.00">schema:supersededBy</text>
</g>
</g>
</svg>
