<?xml version="1.0" encoding="UTF-8" standalone="no"?>
<!DOCTYPE svg PUBLIC "-//W3C//DTD SVG 1.1//EN"
 "http://www.w3.org/Graphics/SVG/1.1/DTD/svg11.dtd">
<!-- Generated by graphviz version 2.43.0 (0)
 -->
<!-- Title: G Pages: 1 -->
<svg width="632pt" height="929pt"
 viewBox="0.00 0.00 631.63 928.53" xmlns="http://www.w3.org/2000/svg" xmlns:xlink="http://www.w3.org/1999/xlink">
<g id="graph0" class="graph" transform="scale(1 1) rotate(0) translate(4 924.53)">
<title>G</title>
<polygon fill="white" stroke="transparent" points="-4,4 -4,-924.53 627.63,-924.53 627.63,4 -4,4"/>
<!-- http://purl.org/oseg/ontologies/OTRL#OTRL -->
<g id="node1" class="node">
<title>http://purl.org/oseg/ontologies/OTRL#OTRL</title>
<ellipse fill="none" stroke="#e377c2" cx="341.04" cy="-503.26" rx="39.7" ry="16.03"/>
<text text-anchor="middle" x="341.04" y="-499.56" font-family="Times,serif" font-size="14.00">OTRL</text>
</g>
<!-- http://www.w3.org/2002/07/owl#class -->
<g id="node2" class="node">
<title>http://www.w3.org/2002/07/owl#class</title>
<ellipse fill="none" stroke="#1f77b4" cx="566.36" cy="-333.26" rx="57.05" ry="16.03"/>
<text text-anchor="middle" x="566.36" y="-329.56" font-family="Times,serif" font-size="14.00">owl:class</text>
</g>
<!-- http://purl.org/oseg/ontologies/OTRL#OTRL&#45;&gt;http://www.w3.org/2002/07/owl#class -->
<g id="edge1" class="edge">
<title>http://purl.org/oseg/ontologies/OTRL#OTRL&#45;&gt;http://www.w3.org/2002/07/owl#class</title>
<path fill="none" stroke="black" d="M380.88,-502.65C413.31,-500.29 459.22,-492.45 491.08,-468.26 527.26,-440.8 548.12,-390.37 558.07,-359.53"/>
<polygon fill="black" stroke="black" points="561.44,-360.47 561.03,-349.88 554.75,-358.42 561.44,-360.47"/>
<text text-anchor="middle" x="486.58" y="-477.06" font-family="Times,serif" font-size="14.00">a</text>
</g>
<!-- http://purl.org/oseg/ontologies/OTRL#ODRL -->
<g id="node3" class="node">
<title>http://purl.org/oseg/ontologies/OTRL#ODRL</title>
<ellipse fill="none" stroke="#e377c2" cx="566.36" cy="-127.26" rx="41.94" ry="16.03"/>
<text text-anchor="middle" x="566.36" y="-123.56" font-family="Times,serif" font-size="14.00">ODRL</text>
</g>
<!-- http://www.w3.org/2002/07/owl#Ontology -->
<g id="node4" class="node">
<title>http://www.w3.org/2002/07/owl#Ontology</title>
<ellipse fill="none" stroke="#1f77b4" cx="341.04" cy="-655.26" rx="77.56" ry="16.03"/>
<text text-anchor="middle" x="341.04" y="-651.56" font-family="Times,serif" font-size="14.00">owl:Ontology</text>
</g>
<!-- http://www.w3.org/2002/07/owl#DatatypeProperty -->
<g id="node5" class="node">
<title>http://www.w3.org/2002/07/owl#DatatypeProperty</title>
<ellipse fill="none" stroke="#1f77b4" cx="341.04" cy="-813.26" rx="123.07" ry="16.03"/>
<text text-anchor="middle" x="341.04" y="-809.56" font-family="Times,serif" font-size="14.00">owl:DatatypeProperty</text>
</g>
<!-- http://purl.org/oseg/ontologies/OTRL#Otrl3 -->
<g id="node6" class="node">
<title>http://purl.org/oseg/ontologies/OTRL#Otrl3</title>
<ellipse fill="none" stroke="#e377c2" cx="70" cy="-408.26" rx="38.37" ry="16.03"/>
<text text-anchor="middle" x="70" y="-404.56" font-family="Times,serif" font-size="14.00">Otrl3</text>
</g>
<!-- http://purl.org/oseg/ontologies/OTRL#Otrl3&#45;&gt;http://purl.org/oseg/ontologies/OTRL#OTRL -->
<g id="edge19" class="edge">
<title>http://purl.org/oseg/ontologies/OTRL#Otrl3&#45;&gt;http://purl.org/oseg/ontologies/OTRL#OTRL</title>
<path fill="none" stroke="black" d="M96.92,-419.86C137.45,-437.98 211.88,-471.17 218.01,-473.26 243.1,-481.82 271.87,-489.01 295.17,-494.21"/>
<polygon fill="black" stroke="black" points="294.61,-497.67 305.12,-496.38 296.1,-490.83 294.61,-497.67"/>
</g>
<!-- http://purl.org/oseg/ontologies/OTRL#Otrl3&#45;&gt;http://www.w3.org/2002/07/owl#class -->
<g id="edge12" class="edge">
<title>http://purl.org/oseg/ontologies/OTRL#Otrl3&#45;&gt;http://www.w3.org/2002/07/owl#class</title>
<path fill="none" stroke="black" d="M108.21,-409.15C178.74,-409.98 336.27,-407.73 464.08,-376.26 486.45,-370.76 510.23,-360.89 529.11,-352"/>
<polygon fill="black" stroke="black" points="530.75,-355.1 538.24,-347.6 527.71,-348.79 530.75,-355.1"/>
<text text-anchor="middle" x="341.04" y="-412.06" font-family="Times,serif" font-size="14.00">a</text>
</g>
<!-- http://purl.org/oseg/ontologies/OTRL#Odrl -->
<g id="node7" class="node">
<title>http://purl.org/oseg/ontologies/OTRL#Odrl</title>
<ellipse fill="none" stroke="#e377c2" cx="341.04" cy="-351.26" rx="33.88" ry="16.03"/>
<text text-anchor="middle" x="341.04" y="-347.56" font-family="Times,serif" font-size="14.00">Odrl</text>
</g>
<!-- http://purl.org/oseg/ontologies/OTRL#Odrl&#45;&gt;http://www.w3.org/2002/07/owl#class -->
<g id="edge4" class="edge">
<title>http://purl.org/oseg/ontologies/OTRL#Odrl&#45;&gt;http://www.w3.org/2002/07/owl#class</title>
<path fill="none" stroke="black" d="M374.99,-348.61C407.99,-345.95 459.64,-341.78 500.82,-338.47"/>
<polygon fill="black" stroke="black" points="501.36,-341.93 511.04,-337.64 500.8,-334.96 501.36,-341.93"/>
<text text-anchor="middle" x="486.58" y="-344.06" font-family="Times,serif" font-size="14.00">a</text>
</g>
<!-- http://schema.org/Text -->
<g id="node8" class="node">
<title>http://schema.org/Text</title>
<ellipse fill="none" stroke="#e377c2" cx="341.04" cy="-733.26" rx="74.91" ry="16.03"/>
<text text-anchor="middle" x="341.04" y="-729.56" font-family="Times,serif" font-size="14.00">schema:Text</text>
</g>
<!-- http://purl.org/oseg/ontologies/OTRL -->
<g id="node9" class="node">
<title>http://purl.org/oseg/ontologies/OTRL</title>
<ellipse fill="none" stroke="#e377c2" cx="70" cy="-655.26" rx="60.62" ry="16.03"/>
<text text-anchor="middle" x="70" y="-651.56" font-family="Times,serif" font-size="14.00">ns1:OTRL</text>
</g>
<!-- http://purl.org/oseg/ontologies/OTRL&#45;&gt;http://www.w3.org/2002/07/owl#Ontology -->
<g id="edge13" class="edge">
<title>http://purl.org/oseg/ontologies/OTRL&#45;&gt;http://www.w3.org/2002/07/owl#Ontology</title>
<path fill="none" stroke="black" d="M131.05,-655.26C166.88,-655.26 213,-655.26 252.8,-655.26"/>
<polygon fill="black" stroke="black" points="253.04,-658.76 263.04,-655.26 253.04,-651.76 253.04,-658.76"/>
<text text-anchor="middle" x="179.01" y="-659.06" font-family="Times,serif" font-size="14.00">a</text>
</g>
<!-- http://purl.org/oseg/ontologies/OTRL&#45;&gt;http://purl.org/oseg/ontologies/OTRL -->
<g id="edge24" class="edge">
<title>http://purl.org/oseg/ontologies/OTRL&#45;&gt;http://purl.org/oseg/ontologies/OTRL</title>
<path fill="none" stroke="black" d="M51.18,-670.77C46.64,-680.38 52.92,-689.53 70,-689.53 80.68,-689.53 87.14,-685.95 89.37,-680.93"/>
<polygon fill="black" stroke="black" points="92.85,-680.57 88.82,-670.77 85.86,-680.94 92.85,-680.57"/>
<text text-anchor="middle" x="70" y="-693.33" font-family="Times,serif" font-size="14.00">owl:versionIRI</text>
</g>
<!-- http://purl.org/oseg/ontologies/OTRL#Odrl4 -->
<g id="node10" class="node">
<title>http://purl.org/oseg/ontologies/OTRL#Odrl4</title>
<ellipse fill="none" stroke="#e377c2" cx="341.04" cy="-16.26" rx="40.11" ry="16.03"/>
<text text-anchor="middle" x="341.04" y="-12.56" font-family="Times,serif" font-size="14.00">Odrl4</text>
</g>
<!-- http://purl.org/oseg/ontologies/OTRL#Odrl4&#45;&gt;http://www.w3.org/2002/07/owl#class -->
<g id="edge14" class="edge">
<title>http://purl.org/oseg/ontologies/OTRL#Odrl4&#45;&gt;http://www.w3.org/2002/07/owl#class</title>
<path fill="none" stroke="black" d="M381.22,-17.95C407.35,-20.97 441,-28.74 464.08,-48.26 484.72,-65.73 537.71,-239.6 557.63,-306.87"/>
<polygon fill="black" stroke="black" points="554.35,-308.12 560.53,-316.72 561.06,-306.13 554.35,-308.12"/>
<text text-anchor="middle" x="486.58" y="-103.06" font-family="Times,serif" font-size="14.00">a</text>
</g>
<!-- http://purl.org/oseg/ontologies/OTRL#Odrl4&#45;&gt;http://purl.org/oseg/ontologies/OTRL#ODRL -->
<g id="edge23" class="edge">
<title>http://purl.org/oseg/ontologies/OTRL#Odrl4&#45;&gt;http://purl.org/oseg/ontologies/OTRL#ODRL</title>
<path fill="none" stroke="black" d="M375.01,-7.44C406.73,-0.84 455.06,4.07 491.08,-15.26 524.8,-33.36 545.81,-74.26 556.54,-101.3"/>
<polygon fill="black" stroke="black" points="553.36,-102.78 560.16,-110.91 559.91,-100.32 553.36,-102.78"/>
</g>
<!-- http://purl.org/oseg/ontologies/OTRL#goal -->
<g id="node11" class="node">
<title>http://purl.org/oseg/ontologies/OTRL#goal</title>
<ellipse fill="none" stroke="#e377c2" cx="70" cy="-802.26" rx="33.47" ry="16.03"/>
<text text-anchor="middle" x="70" y="-798.56" font-family="Times,serif" font-size="14.00">goal</text>
</g>
<!-- http://purl.org/oseg/ontologies/OTRL#goal&#45;&gt;http://www.w3.org/2002/07/owl#DatatypeProperty -->
<g id="edge3" class="edge">
<title>http://purl.org/oseg/ontologies/OTRL#goal&#45;&gt;http://www.w3.org/2002/07/owl#DatatypeProperty</title>
<path fill="none" stroke="black" d="M103.19,-803.58C130.83,-804.71 172.55,-806.42 213.32,-808.08"/>
<polygon fill="black" stroke="black" points="213.24,-811.58 223.37,-808.49 213.53,-804.59 213.24,-811.58"/>
<text text-anchor="middle" x="179.01" y="-811.06" font-family="Times,serif" font-size="14.00">a</text>
</g>
<!-- http://purl.org/oseg/ontologies/OTRL#goal&#45;&gt;http://schema.org/Text -->
<g id="edge2" class="edge">
<title>http://purl.org/oseg/ontologies/OTRL#goal&#45;&gt;http://schema.org/Text</title>
<path fill="none" stroke="black" d="M99.8,-794.88C143.15,-783.76 226.07,-762.49 282.22,-748.09"/>
<polygon fill="black" stroke="black" points="283.22,-751.45 292.03,-745.58 281.48,-744.67 283.22,-751.45"/>
<text text-anchor="middle" x="179.01" y="-783.06" font-family="Times,serif" font-size="14.00">range</text>
</g>
<!-- http://purl.org/oseg/ontologies/OTRL#Odrl3Star -->
<g id="node12" class="node">
<title>http://purl.org/oseg/ontologies/OTRL#Odrl3Star</title>
<ellipse fill="none" stroke="#e377c2" cx="341.04" cy="-133.26" rx="62.45" ry="16.03"/>
<text text-anchor="middle" x="341.04" y="-129.56" font-family="Times,serif" font-size="14.00">Odrl3Star</text>
</g>
<!-- http://purl.org/oseg/ontologies/OTRL#Odrl3Star&#45;&gt;http://www.w3.org/2002/07/owl#class -->
<g id="edge15" class="edge">
<title>http://purl.org/oseg/ontologies/OTRL#Odrl3Star&#45;&gt;http://www.w3.org/2002/07/owl#class</title>
<path fill="none" stroke="black" d="M396.7,-140.57C419.29,-145.72 444.68,-154.45 464.08,-169.26 511.73,-205.65 542.29,-271.43 556.34,-307.64"/>
<polygon fill="black" stroke="black" points="553.07,-308.89 559.86,-317.02 559.62,-306.43 553.07,-308.89"/>
<text text-anchor="middle" x="486.58" y="-198.06" font-family="Times,serif" font-size="14.00">a</text>
</g>
<!-- http://purl.org/oseg/ontologies/OTRL#Odrl3Star&#45;&gt;http://purl.org/oseg/ontologies/OTRL#ODRL -->
<g id="edge16" class="edge">
<title>http://purl.org/oseg/ontologies/OTRL#Odrl3Star&#45;&gt;http://purl.org/oseg/ontologies/OTRL#ODRL</title>
<path fill="none" stroke="black" d="M403.06,-131.62C437.91,-130.69 481.09,-129.53 514.16,-128.64"/>
<polygon fill="black" stroke="black" points="514.61,-132.13 524.51,-128.36 514.42,-125.13 514.61,-132.13"/>
</g>
<!-- http://www.w3.org/1999/02/22&#45;rdf&#45;syntax&#45;ns#nil -->
<g id="node13" class="node">
<title>http://www.w3.org/1999/02/22&#45;rdf&#45;syntax&#45;ns#nil</title>
<ellipse fill="none" stroke="#e377c2" cx="70" cy="-853.26" rx="42.35" ry="16.03"/>
<text text-anchor="middle" x="70" y="-849.56" font-family="Times,serif" font-size="14.00">rdf:nil</text>
</g>
<!-- http://purl.org/oseg/ontologies/OTRL#Otrl5 -->
<g id="node14" class="node">
<title>http://purl.org/oseg/ontologies/OTRL#Otrl5</title>
<ellipse fill="none" stroke="#e377c2" cx="70" cy="-332.26" rx="38.37" ry="16.03"/>
<text text-anchor="middle" x="70" y="-328.56" font-family="Times,serif" font-size="14.00">Otrl5</text>
</g>
<!-- http://purl.org/oseg/ontologies/OTRL#Otrl5&#45;&gt;http://purl.org/oseg/ontologies/OTRL#OTRL -->
<g id="edge18" class="edge">
<title>http://purl.org/oseg/ontologies/OTRL#Otrl5&#45;&gt;http://purl.org/oseg/ontologies/OTRL#OTRL</title>
<path fill="none" stroke="black" d="M91.27,-345.98C105.37,-355.82 124.37,-369.69 140.01,-383.26 168.72,-408.2 176.5,-414.37 200.01,-444.26 209.38,-456.19 205.73,-464.35 218.01,-473.26 239.32,-488.75 267.68,-496.3 291.7,-499.95"/>
<polygon fill="black" stroke="black" points="291.31,-503.43 301.69,-501.3 292.24,-496.5 291.31,-503.43"/>
</g>
<!-- http://purl.org/oseg/ontologies/OTRL#Otrl5&#45;&gt;http://www.w3.org/2002/07/owl#class -->
<g id="edge17" class="edge">
<title>http://purl.org/oseg/ontologies/OTRL#Otrl5&#45;&gt;http://www.w3.org/2002/07/owl#class</title>
<path fill="none" stroke="black" d="M105.31,-325.96C135.01,-320.83 179.18,-314.02 218.01,-311.26 327.1,-303.51 355.34,-299.59 464.08,-311.26 480.37,-313.01 497.88,-316.3 513.69,-319.81"/>
<polygon fill="black" stroke="black" points="513.27,-323.31 523.8,-322.14 514.84,-316.48 513.27,-323.31"/>
<text text-anchor="middle" x="341.04" y="-315.06" font-family="Times,serif" font-size="14.00">a</text>
</g>
<!-- http://purl.org/oseg/ontologies/OTRL#Otrl -->
<g id="node15" class="node">
<title>http://purl.org/oseg/ontologies/OTRL#Otrl</title>
<ellipse fill="none" stroke="#e377c2" cx="70" cy="-904.26" rx="31.64" ry="16.03"/>
<text text-anchor="middle" x="70" y="-900.56" font-family="Times,serif" font-size="14.00">Otrl</text>
</g>
<!-- http://purl.org/oseg/ontologies/OTRL#Odrl3 -->
<g id="node16" class="node">
<title>http://purl.org/oseg/ontologies/OTRL#Odrl3</title>
<ellipse fill="none" stroke="#e377c2" cx="341.04" cy="-73.26" rx="40.11" ry="16.03"/>
<text text-anchor="middle" x="341.04" y="-69.56" font-family="Times,serif" font-size="14.00">Odrl3</text>
</g>
<!-- http://purl.org/oseg/ontologies/OTRL#Odrl3&#45;&gt;http://www.w3.org/2002/07/owl#class -->
<g id="edge21" class="edge">
<title>http://purl.org/oseg/ontologies/OTRL#Odrl3&#45;&gt;http://www.w3.org/2002/07/owl#class</title>
<path fill="none" stroke="black" d="M380.98,-75.99C407.17,-79.68 441,-88.28 464.08,-108.26 525.67,-161.59 551.65,-259.86 560.93,-306.87"/>
<polygon fill="black" stroke="black" points="557.52,-307.69 562.8,-316.88 564.4,-306.4 557.52,-307.69"/>
<text text-anchor="middle" x="486.58" y="-136.06" font-family="Times,serif" font-size="14.00">a</text>
</g>
<!-- http://purl.org/oseg/ontologies/OTRL#Odrl3&#45;&gt;http://purl.org/oseg/ontologies/OTRL#ODRL -->
<g id="edge5" class="edge">
<title>http://purl.org/oseg/ontologies/OTRL#Odrl3&#45;&gt;http://purl.org/oseg/ontologies/OTRL#ODRL</title>
<path fill="none" stroke="black" d="M380.06,-68.95C410.76,-66.78 454.7,-66.67 491.08,-78.26 509.24,-84.05 527.15,-95.64 540.83,-106.1"/>
<polygon fill="black" stroke="black" points="538.76,-108.92 548.77,-112.4 543.12,-103.44 538.76,-108.92"/>
</g>
<!-- http://purl.org/oseg/ontologies/OTRL#Otrl2 -->
<g id="node17" class="node">
<title>http://purl.org/oseg/ontologies/OTRL#Otrl2</title>
<ellipse fill="none" stroke="#e377c2" cx="70" cy="-464.26" rx="38.37" ry="16.03"/>
<text text-anchor="middle" x="70" y="-460.56" font-family="Times,serif" font-size="14.00">Otrl2</text>
</g>
<!-- http://purl.org/oseg/ontologies/OTRL#Otrl2&#45;&gt;http://purl.org/oseg/ontologies/OTRL#OTRL -->
<g id="edge6" class="edge">
<title>http://purl.org/oseg/ontologies/OTRL#Otrl2&#45;&gt;http://purl.org/oseg/ontologies/OTRL#OTRL</title>
<path fill="none" stroke="black" d="M106.45,-469.4C154.34,-476.34 239.82,-488.74 293.03,-496.45"/>
<polygon fill="black" stroke="black" points="292.82,-499.95 303.22,-497.93 293.83,-493.03 292.82,-499.95"/>
</g>
<!-- http://purl.org/oseg/ontologies/OTRL#Otrl2&#45;&gt;http://www.w3.org/2002/07/owl#class -->
<g id="edge22" class="edge">
<title>http://purl.org/oseg/ontologies/OTRL#Otrl2&#45;&gt;http://www.w3.org/2002/07/owl#class</title>
<path fill="none" stroke="black" d="M108.29,-463.78C193.72,-462.2 401.05,-455.49 464.08,-427.26 498.64,-411.79 529.08,-379.66 547.35,-357.3"/>
<polygon fill="black" stroke="black" points="550.25,-359.27 553.73,-349.27 544.77,-354.92 550.25,-359.27"/>
<text text-anchor="middle" x="341.04" y="-464.06" font-family="Times,serif" font-size="14.00">a</text>
</g>
<!-- http://purl.org/oseg/ontologies/OTRL#exitCriteria -->
<g id="node18" class="node">
<title>http://purl.org/oseg/ontologies/OTRL#exitCriteria</title>
<ellipse fill="none" stroke="#e377c2" cx="70" cy="-739.26" rx="70.01" ry="16.03"/>
<text text-anchor="middle" x="70" y="-735.56" font-family="Times,serif" font-size="14.00">exitCriteria</text>
</g>
<!-- http://purl.org/oseg/ontologies/OTRL#exitCriteria&#45;&gt;http://www.w3.org/2002/07/owl#DatatypeProperty -->
<g id="edge11" class="edge">
<title>http://purl.org/oseg/ontologies/OTRL#exitCriteria&#45;&gt;http://www.w3.org/2002/07/owl#DatatypeProperty</title>
<path fill="none" stroke="black" d="M140.02,-740.84C159.63,-742.44 180.86,-745.29 200.01,-750.26 200.65,-750.43 255.22,-775.01 296.03,-793.41"/>
<polygon fill="black" stroke="black" points="294.73,-796.67 305.29,-797.59 297.61,-790.28 294.73,-796.67"/>
<text text-anchor="middle" x="179.01" y="-754.06" font-family="Times,serif" font-size="14.00">a</text>
</g>
<!-- http://purl.org/oseg/ontologies/OTRL#exitCriteria&#45;&gt;http://schema.org/Text -->
<g id="edge10" class="edge">
<title>http://purl.org/oseg/ontologies/OTRL#exitCriteria&#45;&gt;http://schema.org/Text</title>
<path fill="none" stroke="black" d="M109.48,-725.7C124.43,-721.1 141.82,-716.54 158.01,-714.26 198.24,-708.6 243.7,-713.33 279.13,-719.49"/>
<polygon fill="black" stroke="black" points="278.85,-723 289.31,-721.35 280.1,-716.11 278.85,-723"/>
<text text-anchor="middle" x="179.01" y="-718.06" font-family="Times,serif" font-size="14.00">range</text>
</g>
<!-- http://purl.org/oseg/ontologies/OTRL#Odrl1 -->
<g id="node19" class="node">
<title>http://purl.org/oseg/ontologies/OTRL#Odrl1</title>
<ellipse fill="none" stroke="#e377c2" cx="341.04" cy="-250.26" rx="40.11" ry="16.03"/>
<text text-anchor="middle" x="341.04" y="-246.56" font-family="Times,serif" font-size="14.00">Odrl1</text>
</g>
<!-- http://purl.org/oseg/ontologies/OTRL#Odrl1&#45;&gt;http://www.w3.org/2002/07/owl#class -->
<g id="edge26" class="edge">
<title>http://purl.org/oseg/ontologies/OTRL#Odrl1&#45;&gt;http://www.w3.org/2002/07/owl#class</title>
<path fill="none" stroke="black" d="M378.94,-256.01C409.76,-261.61 454.43,-271.59 491.08,-287.26 506.6,-293.9 522.67,-303.46 535.87,-312.15"/>
<polygon fill="black" stroke="black" points="534.27,-315.29 544.51,-317.98 538.18,-309.49 534.27,-315.29"/>
<text text-anchor="middle" x="486.58" y="-291.06" font-family="Times,serif" font-size="14.00">a</text>
</g>
<!-- http://purl.org/oseg/ontologies/OTRL#Odrl1&#45;&gt;http://purl.org/oseg/ontologies/OTRL#ODRL -->
<g id="edge8" class="edge">
<title>http://purl.org/oseg/ontologies/OTRL#Odrl1&#45;&gt;http://purl.org/oseg/ontologies/OTRL#ODRL</title>
<path fill="none" stroke="black" d="M378.68,-256.12C410.58,-259.32 456.93,-259.25 491.08,-239.26 523.94,-220.04 545.08,-179.82 556.1,-153.19"/>
<polygon fill="black" stroke="black" points="559.42,-154.3 559.83,-143.71 552.91,-151.74 559.42,-154.3"/>
</g>
<!-- http://purl.org/oseg/ontologies/OTRL#Otrl1 -->
<g id="node20" class="node">
<title>http://purl.org/oseg/ontologies/OTRL#Otrl1</title>
<ellipse fill="none" stroke="#e377c2" cx="70" cy="-526.26" rx="38.37" ry="16.03"/>
<text text-anchor="middle" x="70" y="-522.56" font-family="Times,serif" font-size="14.00">Otrl1</text>
</g>
<!-- http://purl.org/oseg/ontologies/OTRL#Otrl1&#45;&gt;http://purl.org/oseg/ontologies/OTRL#OTRL -->
<g id="edge7" class="edge">
<title>http://purl.org/oseg/ontologies/OTRL#Otrl1&#45;&gt;http://purl.org/oseg/ontologies/OTRL#OTRL</title>
<path fill="none" stroke="black" d="M107.57,-523.14C155.25,-519.06 238.79,-511.92 291.67,-507.4"/>
<polygon fill="black" stroke="black" points="292.16,-510.87 301.82,-506.53 291.56,-503.9 292.16,-510.87"/>
</g>
<!-- http://purl.org/oseg/ontologies/OTRL#Otrl1&#45;&gt;http://www.w3.org/2002/07/owl#class -->
<g id="edge28" class="edge">
<title>http://purl.org/oseg/ontologies/OTRL#Otrl1&#45;&gt;http://www.w3.org/2002/07/owl#class</title>
<path fill="none" stroke="black" d="M101.73,-535.37C170.91,-554.05 342.35,-589.99 464.08,-528.26 528.34,-495.68 552.9,-405.04 561.37,-359.74"/>
<polygon fill="black" stroke="black" points="564.84,-360.23 563.11,-349.78 557.94,-359.03 564.84,-360.23"/>
<text text-anchor="middle" x="341.04" y="-567.06" font-family="Times,serif" font-size="14.00">a</text>
</g>
<!-- http://purl.org/oseg/ontologies/OTRL#Odrl2 -->
<g id="node21" class="node">
<title>http://purl.org/oseg/ontologies/OTRL#Odrl2</title>
<ellipse fill="none" stroke="#e377c2" cx="341.04" cy="-194.26" rx="40.11" ry="16.03"/>
<text text-anchor="middle" x="341.04" y="-190.56" font-family="Times,serif" font-size="14.00">Odrl2</text>
</g>
<!-- http://purl.org/oseg/ontologies/OTRL#Odrl2&#45;&gt;http://www.w3.org/2002/07/owl#class -->
<g id="edge27" class="edge">
<title>http://purl.org/oseg/ontologies/OTRL#Odrl2&#45;&gt;http://www.w3.org/2002/07/owl#class</title>
<path fill="none" stroke="black" d="M380.19,-198.31C405.39,-202.29 438.38,-210.1 464.08,-225.26 499.92,-246.42 530.94,-284.01 548.9,-308.79"/>
<polygon fill="black" stroke="black" points="546.05,-310.84 554.69,-316.97 551.77,-306.79 546.05,-310.84"/>
<text text-anchor="middle" x="486.58" y="-248.06" font-family="Times,serif" font-size="14.00">a</text>
</g>
<!-- http://purl.org/oseg/ontologies/OTRL#Odrl2&#45;&gt;http://purl.org/oseg/ontologies/OTRL#ODRL -->
<g id="edge25" class="edge">
<title>http://purl.org/oseg/ontologies/OTRL#Odrl2&#45;&gt;http://purl.org/oseg/ontologies/OTRL#ODRL</title>
<path fill="none" stroke="black" d="M381.48,-194.4C412.2,-193.35 455.48,-189.33 491.08,-176.26 508.74,-169.79 526.39,-158.39 540.06,-148.21"/>
<polygon fill="black" stroke="black" points="542.23,-150.96 548.02,-142.09 537.96,-145.42 542.23,-150.96"/>
</g>
<!-- http://purl.org/oseg/ontologies/OTRL#Otrl4 -->
<g id="node22" class="node">
<title>http://purl.org/oseg/ontologies/OTRL#Otrl4</title>
<ellipse fill="none" stroke="#e377c2" cx="70" cy="-592.26" rx="38.37" ry="16.03"/>
<text text-anchor="middle" x="70" y="-588.56" font-family="Times,serif" font-size="14.00">Otrl4</text>
</g>
<!-- http://purl.org/oseg/ontologies/OTRL#Otrl4&#45;&gt;http://purl.org/oseg/ontologies/OTRL#OTRL -->
<g id="edge9" class="edge">
<title>http://purl.org/oseg/ontologies/OTRL#Otrl4&#45;&gt;http://purl.org/oseg/ontologies/OTRL#OTRL</title>
<path fill="none" stroke="black" d="M96.89,-580.58C125.94,-567.78 174.68,-547.21 218.01,-533.26 243.24,-525.14 272.02,-517.97 295.29,-512.68"/>
<polygon fill="black" stroke="black" points="296.23,-516.05 305.23,-510.45 294.7,-509.22 296.23,-516.05"/>
</g>
<!-- http://purl.org/oseg/ontologies/OTRL#Otrl4&#45;&gt;http://www.w3.org/2002/07/owl#class -->
<g id="edge20" class="edge">
<title>http://purl.org/oseg/ontologies/OTRL#Otrl4&#45;&gt;http://www.w3.org/2002/07/owl#class</title>
<path fill="none" stroke="black" d="M107.39,-595.99C193.28,-604.07 405.82,-619.6 464.08,-582.26 541.09,-532.91 559.54,-413.17 563.96,-359.75"/>
<polygon fill="black" stroke="black" points="567.46,-359.93 564.69,-349.7 560.48,-359.42 567.46,-359.93"/>
<text text-anchor="middle" x="341.04" y="-610.06" font-family="Times,serif" font-size="14.00">a</text>
</g>
</g>
</svg>
