<?xml version="1.0" encoding="UTF-8" standalone="no"?>
<!DOCTYPE svg PUBLIC "-//W3C//DTD SVG 1.1//EN"
 "http://www.w3.org/Graphics/SVG/1.1/DTD/svg11.dtd">
<!-- Generated by graphviz version 2.43.0 (0)
 -->
<!-- Title: G Pages: 1 -->
<svg width="2065pt" height="1189pt"
 viewBox="0.00 0.00 2064.64 1188.53" xmlns="http://www.w3.org/2000/svg" xmlns:xlink="http://www.w3.org/1999/xlink">
<g id="graph0" class="graph" transform="scale(1 1) rotate(0) translate(4 1184.53)">
<title>G</title>
<polygon fill="white" stroke="transparent" points="-4,4 -4,-1184.53 2060.64,-1184.53 2060.64,4 -4,4"/>
<!-- https://w3id.org/oseg/ont/otrl#ODRL2 -->
<g id="node1" class="node">
<title>https://w3id.org/oseg/ont/otrl#ODRL2</title>
<ellipse fill="none" stroke="#e377c2" cx="1412.36" cy="-866.26" rx="69.09" ry="16.03"/>
<text text-anchor="middle" x="1412.36" y="-862.56" font-family="Times,serif" font-size="14.00">otrl:ODRL2</text>
</g>
<!-- https://w3id.org/oseg/ont/otrl#ODRL -->
<g id="node10" class="node">
<title>https://w3id.org/oseg/ont/otrl#ODRL</title>
<ellipse fill="none" stroke="#e377c2" cx="1933.6" cy="-774.26" rx="62.87" ry="16.03"/>
<text text-anchor="middle" x="1933.6" y="-770.56" font-family="Times,serif" font-size="14.00">otrl:ODRL</text>
</g>
<!-- https://w3id.org/oseg/ont/otrl#ODRL2&#45;&gt;https://w3id.org/oseg/ont/otrl#ODRL -->
<g id="edge2" class="edge">
<title>https://w3id.org/oseg/ont/otrl#ODRL2&#45;&gt;https://w3id.org/oseg/ont/otrl#ODRL</title>
<path fill="none" stroke="black" d="M1473.76,-858.66C1548.86,-848.8 1680.78,-830.12 1792.57,-807.26 1820.87,-801.48 1852.18,-794.18 1878,-787.93"/>
<polygon fill="black" stroke="black" points="1879.09,-791.26 1887.98,-785.49 1877.43,-784.46 1879.09,-791.26"/>
</g>
<!-- https://w3id.org/oseg/ont/otrl#ODRL3Star -->
<g id="node2" class="node">
<title>https://w3id.org/oseg/ont/otrl#ODRL3Star</title>
<ellipse fill="none" stroke="#e377c2" cx="1412.36" cy="-815.26" rx="90.52" ry="16.03"/>
<text text-anchor="middle" x="1412.36" y="-811.56" font-family="Times,serif" font-size="14.00">otrl:ODRL3Star</text>
</g>
<!-- https://w3id.org/oseg/ont/otrl#ODRL3Star&#45;&gt;https://w3id.org/oseg/ont/otrl#ODRL -->
<g id="edge7" class="edge">
<title>https://w3id.org/oseg/ont/otrl#ODRL3Star&#45;&gt;https://w3id.org/oseg/ont/otrl#ODRL</title>
<path fill="none" stroke="black" d="M1495.63,-808.77C1597.17,-800.75 1768.02,-787.26 1863.23,-779.74"/>
<polygon fill="black" stroke="black" points="1863.63,-783.22 1873.32,-778.94 1863.08,-776.24 1863.63,-783.22"/>
</g>
<!-- https://w3id.org/oseg/ont/otrl#OTRL1 -->
<g id="node3" class="node">
<title>https://w3id.org/oseg/ont/otrl#OTRL1</title>
<ellipse fill="none" stroke="#e377c2" cx="1412.36" cy="-111.26" rx="67.35" ry="16.03"/>
<text text-anchor="middle" x="1412.36" y="-107.56" font-family="Times,serif" font-size="14.00">otrl:OTRL1</text>
</g>
<!-- https://w3id.org/oseg/ont/otrl#OTRL -->
<g id="node5" class="node">
<title>https://w3id.org/oseg/ont/otrl#OTRL</title>
<ellipse fill="none" stroke="#e377c2" cx="1933.6" cy="-307.26" rx="60.62" ry="16.03"/>
<text text-anchor="middle" x="1933.6" y="-303.56" font-family="Times,serif" font-size="14.00">otrl:OTRL</text>
</g>
<!-- https://w3id.org/oseg/ont/otrl#OTRL1&#45;&gt;https://w3id.org/oseg/ont/otrl#OTRL -->
<g id="edge15" class="edge">
<title>https://w3id.org/oseg/ont/otrl#OTRL1&#45;&gt;https://w3id.org/oseg/ont/otrl#OTRL</title>
<path fill="none" stroke="black" d="M1463.02,-121.95C1536.91,-138.82 1679.26,-175.03 1792.57,-226.26 1831.36,-243.81 1873.32,-268.98 1901.08,-286.59"/>
<polygon fill="black" stroke="black" points="1899.27,-289.58 1909.58,-292.02 1903.04,-283.68 1899.27,-289.58"/>
</g>
<!-- https://w3id.org/oseg/ont/otrl#OTRL2 -->
<g id="node4" class="node">
<title>https://w3id.org/oseg/ont/otrl#OTRL2</title>
<ellipse fill="none" stroke="#e377c2" cx="1412.36" cy="-352.26" rx="67.35" ry="16.03"/>
<text text-anchor="middle" x="1412.36" y="-348.56" font-family="Times,serif" font-size="14.00">otrl:OTRL2</text>
</g>
<!-- https://w3id.org/oseg/ont/otrl#OTRL2&#45;&gt;https://w3id.org/oseg/ont/otrl#OTRL -->
<g id="edge18" class="edge">
<title>https://w3id.org/oseg/ont/otrl#OTRL2&#45;&gt;https://w3id.org/oseg/ont/otrl#OTRL</title>
<path fill="none" stroke="black" d="M1475.45,-346.43C1516.61,-342.6 1571.8,-337.53 1620.57,-333.26 1704.7,-325.9 1801.63,-317.9 1864.84,-312.75"/>
<polygon fill="black" stroke="black" points="1865.4,-316.21 1875.08,-311.91 1864.83,-309.24 1865.4,-316.21"/>
</g>
<!-- https://w3id.org/oseg/ont/otrl#ODRL1 -->
<g id="node6" class="node">
<title>https://w3id.org/oseg/ont/otrl#ODRL1</title>
<ellipse fill="none" stroke="#e377c2" cx="1412.36" cy="-764.26" rx="69.09" ry="16.03"/>
<text text-anchor="middle" x="1412.36" y="-760.56" font-family="Times,serif" font-size="14.00">otrl:ODRL1</text>
</g>
<!-- https://w3id.org/oseg/ont/otrl#ODRL1&#45;&gt;https://w3id.org/oseg/ont/otrl#ODRL -->
<g id="edge39" class="edge">
<title>https://w3id.org/oseg/ont/otrl#ODRL1&#45;&gt;https://w3id.org/oseg/ont/otrl#ODRL</title>
<path fill="none" stroke="black" d="M1481.5,-765.58C1579.66,-767.47 1760.04,-770.94 1860.4,-772.87"/>
<polygon fill="black" stroke="black" points="1860.39,-776.37 1870.45,-773.07 1860.52,-769.37 1860.39,-776.37"/>
</g>
<!-- https://w3id.org/oseg/ont/otrl#ODRL3 -->
<g id="node7" class="node">
<title>https://w3id.org/oseg/ont/otrl#ODRL3</title>
<ellipse fill="none" stroke="#e377c2" cx="1412.36" cy="-701.26" rx="69.09" ry="16.03"/>
<text text-anchor="middle" x="1412.36" y="-697.56" font-family="Times,serif" font-size="14.00">otrl:ODRL3</text>
</g>
<!-- https://w3id.org/oseg/ont/otrl#ODRL3&#45;&gt;https://w3id.org/oseg/ont/otrl#ODRL -->
<g id="edge14" class="edge">
<title>https://w3id.org/oseg/ont/otrl#ODRL3&#45;&gt;https://w3id.org/oseg/ont/otrl#ODRL</title>
<path fill="none" stroke="black" d="M1468.67,-710.93C1510.36,-718.07 1568.97,-727.81 1620.57,-735.26 1704.76,-747.43 1802.07,-759.23 1865.34,-766.61"/>
<polygon fill="black" stroke="black" points="1865.24,-770.12 1875.58,-767.8 1866.05,-763.17 1865.24,-770.12"/>
</g>
<!-- https://w3id.org/oseg/ont/otrl#OTRL4 -->
<g id="node8" class="node">
<title>https://w3id.org/oseg/ont/otrl#OTRL4</title>
<ellipse fill="none" stroke="#e377c2" cx="1412.36" cy="-301.26" rx="67.35" ry="16.03"/>
<text text-anchor="middle" x="1412.36" y="-297.56" font-family="Times,serif" font-size="14.00">otrl:OTRL4</text>
</g>
<!-- https://w3id.org/oseg/ont/otrl#OTRL4&#45;&gt;https://w3id.org/oseg/ont/otrl#OTRL -->
<g id="edge38" class="edge">
<title>https://w3id.org/oseg/ont/otrl#OTRL4&#45;&gt;https://w3id.org/oseg/ont/otrl#OTRL</title>
<path fill="none" stroke="black" d="M1479.65,-302.03C1578.11,-303.17 1762.16,-305.29 1862.68,-306.46"/>
<polygon fill="black" stroke="black" points="1862.69,-309.96 1872.73,-306.57 1862.77,-302.96 1862.69,-309.96"/>
</g>
<!-- https://w3id.org/oseg/ont/otrl#ODRL4 -->
<g id="node9" class="node">
<title>https://w3id.org/oseg/ont/otrl#ODRL4</title>
<ellipse fill="none" stroke="#e377c2" cx="1412.36" cy="-631.26" rx="69.09" ry="16.03"/>
<text text-anchor="middle" x="1412.36" y="-627.56" font-family="Times,serif" font-size="14.00">otrl:ODRL4</text>
</g>
<!-- https://w3id.org/oseg/ont/otrl#ODRL4&#45;&gt;https://w3id.org/oseg/ont/otrl#ODRL -->
<g id="edge40" class="edge">
<title>https://w3id.org/oseg/ont/otrl#ODRL4&#45;&gt;https://w3id.org/oseg/ont/otrl#ODRL</title>
<path fill="none" stroke="black" d="M1480.97,-633.76C1519.98,-638.3 1567.99,-649.5 1602.57,-676.26 1616.09,-686.73 1606.68,-700.29 1620.57,-710.26 1683.48,-755.43 1716.76,-722.38 1792.57,-738.26 1821.98,-744.42 1854.5,-752.7 1880.8,-759.76"/>
<polygon fill="black" stroke="black" points="1879.99,-763.16 1890.55,-762.4 1881.81,-756.4 1879.99,-763.16"/>
</g>
<!-- https://w3id.org/oseg/ont/otrl#OTRL6 -->
<g id="node11" class="node">
<title>https://w3id.org/oseg/ont/otrl#OTRL6</title>
<ellipse fill="none" stroke="#e377c2" cx="1412.36" cy="-250.26" rx="67.35" ry="16.03"/>
<text text-anchor="middle" x="1412.36" y="-246.56" font-family="Times,serif" font-size="14.00">otrl:OTRL6</text>
</g>
<!-- https://w3id.org/oseg/ont/otrl#OTRL6&#45;&gt;https://w3id.org/oseg/ont/otrl#OTRL -->
<g id="edge53" class="edge">
<title>https://w3id.org/oseg/ont/otrl#OTRL6&#45;&gt;https://w3id.org/oseg/ont/otrl#OTRL</title>
<path fill="none" stroke="black" d="M1473.94,-256.91C1572.22,-267.7 1765.61,-288.93 1867.02,-300.06"/>
<polygon fill="black" stroke="black" points="1866.81,-303.56 1877.13,-301.17 1867.58,-296.6 1866.81,-303.56"/>
</g>
<!-- https://w3id.org/oseg/ont/otrl#OTRL3 -->
<g id="node12" class="node">
<title>https://w3id.org/oseg/ont/otrl#OTRL3</title>
<ellipse fill="none" stroke="#e377c2" cx="1412.36" cy="-187.26" rx="67.35" ry="16.03"/>
<text text-anchor="middle" x="1412.36" y="-183.56" font-family="Times,serif" font-size="14.00">otrl:OTRL3</text>
</g>
<!-- https://w3id.org/oseg/ont/otrl#OTRL3&#45;&gt;https://w3id.org/oseg/ont/otrl#OTRL -->
<g id="edge12" class="edge">
<title>https://w3id.org/oseg/ont/otrl#OTRL3&#45;&gt;https://w3id.org/oseg/ont/otrl#OTRL</title>
<path fill="none" stroke="black" d="M1465.66,-197.27C1503.7,-204.66 1556.42,-215.17 1602.57,-225.26 1687.34,-243.81 1708.39,-249.18 1792.57,-270.26 1821.77,-277.58 1854.28,-286.14 1880.62,-293.19"/>
<polygon fill="black" stroke="black" points="1879.83,-296.6 1890.39,-295.81 1881.64,-289.84 1879.83,-296.6"/>
</g>
<!-- https://w3id.org/oseg/ont/otrl#OTRL5 -->
<g id="node13" class="node">
<title>https://w3id.org/oseg/ont/otrl#OTRL5</title>
<ellipse fill="none" stroke="#e377c2" cx="1412.36" cy="-35.26" rx="67.35" ry="16.03"/>
<text text-anchor="middle" x="1412.36" y="-31.56" font-family="Times,serif" font-size="14.00">otrl:OTRL5</text>
</g>
<!-- https://w3id.org/oseg/ont/otrl#OTRL5&#45;&gt;https://w3id.org/oseg/ont/otrl#OTRL -->
<g id="edge11" class="edge">
<title>https://w3id.org/oseg/ont/otrl#OTRL5&#45;&gt;https://w3id.org/oseg/ont/otrl#OTRL</title>
<path fill="none" stroke="black" d="M1468.62,-44.19C1546.32,-58.76 1689.85,-93.24 1792.57,-162.26 1843.28,-196.34 1889.95,-251.38 1914.51,-282.94"/>
<polygon fill="black" stroke="black" points="1911.97,-285.37 1920.83,-291.18 1917.52,-281.11 1911.97,-285.37"/>
</g>
<!-- http://www.w3.org/2002/07/owl#DatatypeProperty -->
<g id="node14" class="node">
<title>http://www.w3.org/2002/07/owl#DatatypeProperty</title>
<ellipse fill="none" stroke="#1f77b4" cx="1933.6" cy="-599.26" rx="123.07" ry="16.03"/>
<text text-anchor="middle" x="1933.6" y="-595.56" font-family="Times,serif" font-size="14.00">owl:DatatypeProperty</text>
</g>
<!-- http://www.w3.org/2002/07/owl#Ontology -->
<g id="node15" class="node">
<title>http://www.w3.org/2002/07/owl#Ontology</title>
<ellipse fill="none" stroke="#1f77b4" cx="807.65" cy="-1164.26" rx="77.56" ry="16.03"/>
<text text-anchor="middle" x="807.65" y="-1160.56" font-family="Times,serif" font-size="14.00">owl:Ontology</text>
</g>
<!-- https://w3id.org/oseg/ont/otrl -->
<g id="node16" class="node">
<title>https://w3id.org/oseg/ont/otrl</title>
<ellipse fill="none" stroke="#e377c2" cx="196.58" cy="-1069.26" rx="50.82" ry="16.03"/>
<text text-anchor="middle" x="196.58" y="-1065.56" font-family="Times,serif" font-size="14.00">ns1:otrl</text>
</g>
<!-- https://w3id.org/oseg/ont/otrl&#45;&gt;http://www.w3.org/2002/07/owl#Ontology -->
<g id="edge9" class="edge">
<title>https://w3id.org/oseg/ont/otrl&#45;&gt;http://www.w3.org/2002/07/owl#Ontology</title>
<path fill="none" stroke="black" d="M231.49,-1081.15C273.22,-1095.26 346.49,-1118.36 411.15,-1130.26 516.45,-1149.64 639.6,-1158.02 720.15,-1161.61"/>
<polygon fill="black" stroke="black" points="720.11,-1165.12 730.25,-1162.05 720.41,-1158.12 720.11,-1165.12"/>
<text text-anchor="middle" x="491.15" y="-1154.06" font-family="Times,serif" font-size="14.00">a</text>
</g>
<!-- https://www.gnu.org/licenses/gpl&#45;3.0.txt -->
<g id="node19" class="node">
<title>https://www.gnu.org/licenses/gpl&#45;3.0.txt</title>
<ellipse fill="none" stroke="#e377c2" cx="807.65" cy="-1110.26" rx="85.62" ry="16.03"/>
<text text-anchor="middle" x="807.65" y="-1106.56" font-family="Times,serif" font-size="14.00">ns2:gpl&#45;3.0.txt</text>
</g>
<!-- https://w3id.org/oseg/ont/otrl&#45;&gt;https://www.gnu.org/licenses/gpl&#45;3.0.txt -->
<g id="edge5" class="edge">
<title>https://w3id.org/oseg/ont/otrl&#45;&gt;https://www.gnu.org/licenses/gpl&#45;3.0.txt</title>
<path fill="none" stroke="black" d="M239.89,-1078.09C282.81,-1086.59 351.27,-1098.93 411.15,-1104.26 513.97,-1113.42 632.4,-1113.89 712.67,-1112.72"/>
<polygon fill="black" stroke="black" points="712.81,-1116.22 722.75,-1112.56 712.7,-1109.22 712.81,-1116.22"/>
<text text-anchor="middle" x="491.15" y="-1115.06" font-family="Times,serif" font-size="14.00">dcterms:license</text>
</g>
<!-- https://w3id.org/oseg/ont/otrl&#45;&gt;https://www.gnu.org/licenses/gpl&#45;3.0.txt -->
<g id="edge29" class="edge">
<title>https://w3id.org/oseg/ont/otrl&#45;&gt;https://www.gnu.org/licenses/gpl&#45;3.0.txt</title>
<path fill="none" stroke="black" d="M247.49,-1070.4C319.18,-1072.27 455.43,-1076.65 571.15,-1085.26 622.52,-1089.09 680,-1095.15 725.32,-1100.35"/>
<polygon fill="black" stroke="black" points="725.05,-1103.85 735.39,-1101.52 725.85,-1096.89 725.05,-1103.85"/>
<text text-anchor="middle" x="491.15" y="-1089.06" font-family="Times,serif" font-size="14.00">cc:license</text>
</g>
<!-- https://w3id.org/oseg/ont/1.1.0/otrl -->
<g id="node20" class="node">
<title>https://w3id.org/oseg/ont/1.1.0/otrl</title>
<ellipse fill="none" stroke="#e377c2" cx="807.65" cy="-1053.26" rx="50.82" ry="16.03"/>
<text text-anchor="middle" x="807.65" y="-1049.56" font-family="Times,serif" font-size="14.00">ns3:otrl</text>
</g>
<!-- https://w3id.org/oseg/ont/otrl&#45;&gt;https://w3id.org/oseg/ont/1.1.0/otrl -->
<g id="edge31" class="edge">
<title>https://w3id.org/oseg/ont/otrl&#45;&gt;https://w3id.org/oseg/ont/1.1.0/otrl</title>
<path fill="none" stroke="black" d="M245.01,-1064.11C288.24,-1059.7 353.9,-1053.67 411.15,-1051.26 530.15,-1046.26 669.47,-1048.95 746.93,-1051.21"/>
<polygon fill="black" stroke="black" points="746.88,-1054.71 756.98,-1051.51 747.09,-1047.72 746.88,-1054.71"/>
<text text-anchor="middle" x="491.15" y="-1055.06" font-family="Times,serif" font-size="14.00">owl:versionIRI</text>
</g>
<!-- https://orcid.org/0009&#45;0004&#45;3559&#45;6542 -->
<g id="node21" class="node">
<title>https://orcid.org/0009&#45;0004&#45;3559&#45;6542</title>
<ellipse fill="none" stroke="#e377c2" cx="807.65" cy="-1002.26" rx="113.69" ry="16.03"/>
<text text-anchor="middle" x="807.65" y="-998.56" font-family="Times,serif" font-size="14.00">orcid:0009&#45;0004&#45;3...</text>
</g>
<!-- https://w3id.org/oseg/ont/otrl&#45;&gt;https://orcid.org/0009&#45;0004&#45;3559&#45;6542 -->
<g id="edge35" class="edge">
<title>https://w3id.org/oseg/ont/otrl&#45;&gt;https://orcid.org/0009&#45;0004&#45;3559&#45;6542</title>
<path fill="none" stroke="black" d="M238.69,-1060.08C281.53,-1050.86 350.72,-1036.96 411.15,-1029.26 503.28,-1017.53 608.17,-1010.67 686.77,-1006.8"/>
<polygon fill="black" stroke="black" points="687.38,-1010.27 697.2,-1006.29 687.04,-1003.28 687.38,-1010.27"/>
<text text-anchor="middle" x="491.15" y="-1033.06" font-family="Times,serif" font-size="14.00">dcterms:creator</text>
</g>
<!-- https://orcid.org/0000&#45;0002&#45;1611&#45;7129 -->
<g id="node24" class="node">
<title>https://orcid.org/0000&#45;0002&#45;1611&#45;7129</title>
<ellipse fill="none" stroke="#e377c2" cx="807.65" cy="-951.26" rx="113.69" ry="16.03"/>
<text text-anchor="middle" x="807.65" y="-947.56" font-family="Times,serif" font-size="14.00">orcid:0000&#45;0002&#45;1...</text>
</g>
<!-- https://w3id.org/oseg/ont/otrl&#45;&gt;https://orcid.org/0000&#45;0002&#45;1611&#45;7129 -->
<g id="edge49" class="edge">
<title>https://w3id.org/oseg/ont/otrl&#45;&gt;https://orcid.org/0000&#45;0002&#45;1611&#45;7129</title>
<path fill="none" stroke="black" d="M228.07,-1056.27C268.96,-1039.42 344.17,-1010.4 411.15,-995.26 503.73,-974.35 610.83,-963.21 690.22,-957.38"/>
<polygon fill="black" stroke="black" points="690.52,-960.87 700.25,-956.66 690.02,-953.89 690.52,-960.87"/>
<text text-anchor="middle" x="491.15" y="-999.06" font-family="Times,serif" font-size="14.00">dcterms:creator</text>
</g>
<!-- http://schema.org/Text -->
<g id="node17" class="node">
<title>http://schema.org/Text</title>
<ellipse fill="none" stroke="#e377c2" cx="1933.6" cy="-507.26" rx="74.91" ry="16.03"/>
<text text-anchor="middle" x="1933.6" y="-503.56" font-family="Times,serif" font-size="14.00">schema:Text</text>
</g>
<!-- https://w3id.org/oseg/ont/otrl#goal -->
<g id="node18" class="node">
<title>https://w3id.org/oseg/ont/otrl#goal</title>
<ellipse fill="none" stroke="#e377c2" cx="1412.36" cy="-580.26" rx="54.39" ry="16.03"/>
<text text-anchor="middle" x="1412.36" y="-576.56" font-family="Times,serif" font-size="14.00">otrl:goal</text>
</g>
<!-- https://w3id.org/oseg/ont/otrl#goal&#45;&gt;https://w3id.org/oseg/ont/otrl#OTRL -->
<g id="edge4" class="edge">
<title>https://w3id.org/oseg/ont/otrl#goal&#45;&gt;https://w3id.org/oseg/ont/otrl#OTRL</title>
<path fill="none" stroke="black" d="M1463.57,-574.61C1503.94,-568.13 1560.62,-554.49 1602.57,-526.26 1613.34,-519.02 1609.26,-509.65 1620.57,-503.26 1687.62,-465.39 1725.31,-519.77 1792.57,-482.26 1855.07,-447.41 1900.04,-372.31 1920.41,-332.79"/>
<polygon fill="black" stroke="black" points="1923.69,-334.05 1925.06,-323.55 1917.44,-330.91 1923.69,-334.05"/>
<text text-anchor="middle" x="1706.57" y="-507.06" font-family="Times,serif" font-size="14.00">schema:domainIncludes</text>
</g>
<!-- https://w3id.org/oseg/ont/otrl#goal&#45;&gt;https://w3id.org/oseg/ont/otrl#ODRL -->
<g id="edge32" class="edge">
<title>https://w3id.org/oseg/ont/otrl#goal&#45;&gt;https://w3id.org/oseg/ont/otrl#ODRL</title>
<path fill="none" stroke="black" d="M1461.67,-573.28C1503.91,-570.02 1564.32,-572.68 1602.57,-606.26 1625.41,-626.32 1597.46,-652.51 1620.57,-672.26 1649.8,-697.25 1756.09,-679.07 1792.57,-691.26 1834.41,-705.25 1877.29,-733.04 1904.39,-752.6"/>
<polygon fill="black" stroke="black" points="1902.48,-755.54 1912.61,-758.63 1906.62,-749.9 1902.48,-755.54"/>
<text text-anchor="middle" x="1706.57" y="-695.06" font-family="Times,serif" font-size="14.00">schema:domainIncludes</text>
</g>
<!-- https://w3id.org/oseg/ont/otrl#goal&#45;&gt;http://www.w3.org/2002/07/owl#DatatypeProperty -->
<g id="edge27" class="edge">
<title>https://w3id.org/oseg/ont/otrl#goal&#45;&gt;http://www.w3.org/2002/07/owl#DatatypeProperty</title>
<path fill="none" stroke="black" d="M1465.12,-576.12C1505.57,-575.39 1561.62,-580.13 1602.57,-606.26 1615.04,-614.22 1607.58,-627.17 1620.57,-634.26 1687.66,-670.89 1716.69,-643.6 1792.57,-634.26 1820.12,-630.87 1850.06,-623.86 1875.15,-617"/>
<polygon fill="black" stroke="black" points="1876.18,-620.34 1884.87,-614.28 1874.3,-613.6 1876.18,-620.34"/>
<text text-anchor="middle" x="1706.57" y="-657.06" font-family="Times,serif" font-size="14.00">a</text>
</g>
<!-- https://w3id.org/oseg/ont/otrl#goal&#45;&gt;http://schema.org/Text -->
<g id="edge25" class="edge">
<title>https://w3id.org/oseg/ont/otrl#goal&#45;&gt;http://schema.org/Text</title>
<path fill="none" stroke="black" d="M1466.75,-582.01C1540.73,-583.35 1678.25,-581.87 1792.57,-558.26 1826.79,-551.2 1863.89,-537.39 1891.3,-525.92"/>
<polygon fill="black" stroke="black" points="1892.73,-529.11 1900.56,-521.98 1889.99,-522.67 1892.73,-529.11"/>
<text text-anchor="middle" x="1706.57" y="-583.06" font-family="Times,serif" font-size="14.00">range</text>
</g>
<!-- https://w3id.org/oseg/ont/otrl#Odrl4 -->
<g id="node22" class="node">
<title>https://w3id.org/oseg/ont/otrl#Odrl4</title>
<ellipse fill="none" stroke="#e377c2" cx="807.65" cy="-613.26" rx="61.54" ry="16.03"/>
<text text-anchor="middle" x="807.65" y="-609.56" font-family="Times,serif" font-size="14.00">otrl:Odrl4</text>
</g>
<!-- https://w3id.org/oseg/ont/otrl#Odrl4&#45;&gt;https://w3id.org/oseg/ont/otrl#ODRL4 -->
<g id="edge6" class="edge">
<title>https://w3id.org/oseg/ont/otrl#Odrl4&#45;&gt;https://w3id.org/oseg/ont/otrl#ODRL4</title>
<path fill="none" stroke="black" d="M868.92,-615.06C978.82,-618.35 1211.66,-625.3 1333.44,-628.94"/>
<polygon fill="black" stroke="black" points="1333.34,-632.43 1343.44,-629.24 1333.55,-625.44 1333.34,-632.43"/>
<text text-anchor="middle" x="1124.14" y="-629.06" font-family="Times,serif" font-size="14.00">schema:supersededBy</text>
</g>
<!-- https://w3id.org/oseg/ont/otrl#Odrl4&#45;&gt;https://w3id.org/oseg/ont/otrl#ODRL4 -->
<g id="edge19" class="edge">
<title>https://w3id.org/oseg/ont/otrl#Odrl4&#45;&gt;https://w3id.org/oseg/ont/otrl#ODRL4</title>
<path fill="none" stroke="black" d="M865.74,-607.73C942.71,-601.18 1084,-592.32 1204.14,-602.26 1212.23,-602.93 1214.13,-604.04 1222.14,-605.26 1261.38,-611.23 1305.28,-617.3 1340.92,-622.07"/>
<polygon fill="black" stroke="black" points="1340.84,-625.59 1351.22,-623.45 1341.77,-618.65 1340.84,-625.59"/>
<text text-anchor="middle" x="1124.14" y="-606.06" font-family="Times,serif" font-size="14.00">owl:sameAs</text>
</g>
<!-- https://w3id.org/oseg/ont/otrl#exitCriteria -->
<g id="node23" class="node">
<title>https://w3id.org/oseg/ont/otrl#exitCriteria</title>
<ellipse fill="none" stroke="#e377c2" cx="1412.36" cy="-501.26" rx="91.43" ry="16.03"/>
<text text-anchor="middle" x="1412.36" y="-497.56" font-family="Times,serif" font-size="14.00">otrl:exitCriteria</text>
</g>
<!-- https://w3id.org/oseg/ont/otrl#exitCriteria&#45;&gt;https://w3id.org/oseg/ont/otrl#OTRL -->
<g id="edge3" class="edge">
<title>https://w3id.org/oseg/ont/otrl#exitCriteria&#45;&gt;https://w3id.org/oseg/ont/otrl#OTRL</title>
<path fill="none" stroke="black" d="M1460.05,-487.31C1501.9,-475.02 1565.08,-456.98 1620.57,-443.26 1696.47,-424.49 1720.97,-437.69 1792.57,-406.26 1836.79,-386.85 1881.2,-352.29 1907.8,-329.57"/>
<polygon fill="black" stroke="black" points="1910.2,-332.12 1915.46,-322.93 1905.61,-326.83 1910.2,-332.12"/>
<text text-anchor="middle" x="1706.57" y="-447.06" font-family="Times,serif" font-size="14.00">schema:domainIncludes</text>
</g>
<!-- https://w3id.org/oseg/ont/otrl#exitCriteria&#45;&gt;https://w3id.org/oseg/ont/otrl#ODRL -->
<g id="edge30" class="edge">
<title>https://w3id.org/oseg/ont/otrl#exitCriteria&#45;&gt;https://w3id.org/oseg/ont/otrl#ODRL</title>
<path fill="none" stroke="black" d="M1493.97,-508.58C1530.7,-515.56 1572.58,-529.09 1602.57,-555.26 1617.56,-568.35 1604.53,-584.48 1620.57,-596.26 1682.55,-641.8 1724.33,-579.79 1792.57,-615.26 1851.59,-645.94 1897.1,-712.62 1918.74,-749.13"/>
<polygon fill="black" stroke="black" points="1915.92,-751.25 1923.96,-758.15 1921.98,-747.74 1915.92,-751.25"/>
<text text-anchor="middle" x="1706.57" y="-619.06" font-family="Times,serif" font-size="14.00">schema:domainIncludes</text>
</g>
<!-- https://w3id.org/oseg/ont/otrl#exitCriteria&#45;&gt;http://www.w3.org/2002/07/owl#DatatypeProperty -->
<g id="edge43" class="edge">
<title>https://w3id.org/oseg/ont/otrl#exitCriteria&#45;&gt;http://www.w3.org/2002/07/owl#DatatypeProperty</title>
<path fill="none" stroke="black" d="M1494,-508.72C1601.05,-518.7 1778.33,-535.59 1792.57,-539.26 1828.08,-548.42 1866.2,-565.26 1893.69,-578.77"/>
<polygon fill="black" stroke="black" points="1892.44,-582.06 1902.95,-583.39 1895.57,-575.8 1892.44,-582.06"/>
<text text-anchor="middle" x="1706.57" y="-543.06" font-family="Times,serif" font-size="14.00">a</text>
</g>
<!-- https://w3id.org/oseg/ont/otrl#exitCriteria&#45;&gt;http://schema.org/Text -->
<g id="edge23" class="edge">
<title>https://w3id.org/oseg/ont/otrl#exitCriteria&#45;&gt;http://schema.org/Text</title>
<path fill="none" stroke="black" d="M1468.82,-488.39C1542.87,-473 1678.01,-451.22 1792.57,-467.26 1824.01,-471.67 1858.3,-481.37 1885.08,-490.12"/>
<polygon fill="black" stroke="black" points="1884,-493.45 1894.59,-493.29 1886.21,-486.81 1884,-493.45"/>
<text text-anchor="middle" x="1706.57" y="-471.06" font-family="Times,serif" font-size="14.00">range</text>
</g>
<!-- https://w3id.org/oseg/ont/otrl#Otrl5 -->
<g id="node25" class="node">
<title>https://w3id.org/oseg/ont/otrl#Otrl5</title>
<ellipse fill="none" stroke="black" cx="807.65" cy="-16.26" rx="194.41" ry="16.03"/>
<text text-anchor="middle" x="807.65" y="-12.56" font-family="Times,serif" font-size="14.00">https://w3id.org/oseg/ont/otrl#Otrl5</text>
</g>
<!-- https://w3id.org/oseg/ont/otrl#Otrl5&#45;&gt;https://w3id.org/oseg/ont/otrl#OTRL5 -->
<g id="edge1" class="edge">
<title>https://w3id.org/oseg/ont/otrl#Otrl5&#45;&gt;https://w3id.org/oseg/ont/otrl#OTRL5</title>
<path fill="none" stroke="black" d="M989.89,-21.98C1105.32,-25.62 1248.86,-30.14 1335.13,-32.86"/>
<polygon fill="black" stroke="black" points="1335.26,-36.37 1345.37,-33.18 1335.48,-29.37 1335.26,-36.37"/>
<text text-anchor="middle" x="1124.14" y="-33.06" font-family="Times,serif" font-size="14.00">schema:supersededBy</text>
</g>
<!-- https://w3id.org/oseg/ont/otrl#Otrl5&#45;&gt;https://w3id.org/oseg/ont/otrl#OTRL5 -->
<g id="edge51" class="edge">
<title>https://w3id.org/oseg/ont/otrl#Otrl5&#45;&gt;https://w3id.org/oseg/ont/otrl#OTRL5</title>
<path fill="none" stroke="black" d="M952.51,-5.38C1027.59,-1.44 1120.9,0.73 1204.14,-5.26 1252.77,-8.77 1307.33,-16.83 1348.25,-23.72"/>
<polygon fill="black" stroke="black" points="1347.9,-27.21 1358.35,-25.44 1349.08,-20.31 1347.9,-27.21"/>
<text text-anchor="middle" x="1124.14" y="-9.06" font-family="Times,serif" font-size="14.00">owl:sameAs</text>
</g>
<!-- https://w3id.org/oseg/ont/otrl#Odrl3 -->
<g id="node26" class="node">
<title>https://w3id.org/oseg/ont/otrl#Odrl3</title>
<ellipse fill="none" stroke="black" cx="807.65" cy="-676.26" rx="196.65" ry="16.03"/>
<text text-anchor="middle" x="807.65" y="-672.56" font-family="Times,serif" font-size="14.00">https://w3id.org/oseg/ont/otrl#Odrl3</text>
</g>
<!-- https://w3id.org/oseg/ont/otrl#Odrl3&#45;&gt;https://w3id.org/oseg/ont/otrl#ODRL3 -->
<g id="edge8" class="edge">
<title>https://w3id.org/oseg/ont/otrl#Odrl3&#45;&gt;https://w3id.org/oseg/ont/otrl#ODRL3</title>
<path fill="none" stroke="black" d="M983.79,-683.53C1099.63,-688.33 1245.84,-694.4 1333.79,-698.05"/>
<polygon fill="black" stroke="black" points="1333.83,-701.55 1343.96,-698.47 1334.12,-694.56 1333.83,-701.55"/>
<text text-anchor="middle" x="1124.14" y="-697.06" font-family="Times,serif" font-size="14.00">schema:supersededBy</text>
</g>
<!-- https://w3id.org/oseg/ont/otrl#Odrl3&#45;&gt;https://w3id.org/oseg/ont/otrl#ODRL3 -->
<g id="edge44" class="edge">
<title>https://w3id.org/oseg/ont/otrl#Odrl3&#45;&gt;https://w3id.org/oseg/ont/otrl#ODRL3</title>
<path fill="none" stroke="black" d="M961.45,-666.12C1034.93,-663.05 1124.21,-661.94 1204.14,-668.26 1253.29,-672.15 1308.39,-681.15 1349.41,-688.77"/>
<polygon fill="black" stroke="black" points="1348.78,-692.22 1359.25,-690.63 1350.07,-685.34 1348.78,-692.22"/>
<text text-anchor="middle" x="1124.14" y="-672.06" font-family="Times,serif" font-size="14.00">owl:sameAs</text>
</g>
<!-- https://w3id.org/oseg/ont/otrl#Odrl2 -->
<g id="node27" class="node">
<title>https://w3id.org/oseg/ont/otrl#Odrl2</title>
<ellipse fill="none" stroke="black" cx="807.65" cy="-900.26" rx="196.65" ry="16.03"/>
<text text-anchor="middle" x="807.65" y="-896.56" font-family="Times,serif" font-size="14.00">https://w3id.org/oseg/ont/otrl#Odrl2</text>
</g>
<!-- https://w3id.org/oseg/ont/otrl#Odrl2&#45;&gt;https://w3id.org/oseg/ont/otrl#ODRL2 -->
<g id="edge10" class="edge">
<title>https://w3id.org/oseg/ont/otrl#Odrl2&#45;&gt;https://w3id.org/oseg/ont/otrl#ODRL2</title>
<path fill="none" stroke="black" d="M938.36,-912.45C1034.58,-919.64 1156.93,-924.36 1204.14,-907.26 1213.94,-903.72 1212.62,-896.47 1222.14,-892.26 1256.52,-877.09 1297.53,-870.26 1332.57,-867.35"/>
<polygon fill="black" stroke="black" points="1333.05,-870.83 1342.77,-866.6 1332.54,-863.85 1333.05,-870.83"/>
<text text-anchor="middle" x="1124.14" y="-923.06" font-family="Times,serif" font-size="14.00">owl:sameAs</text>
</g>
<!-- https://w3id.org/oseg/ont/otrl#Odrl2&#45;&gt;https://w3id.org/oseg/ont/otrl#ODRL2 -->
<g id="edge47" class="edge">
<title>https://w3id.org/oseg/ont/otrl#Odrl2&#45;&gt;https://w3id.org/oseg/ont/otrl#ODRL2</title>
<path fill="none" stroke="black" d="M970.56,-891.13C1088.69,-884.47 1243.49,-875.73 1334.71,-870.59"/>
<polygon fill="black" stroke="black" points="1334.91,-874.08 1344.69,-870.02 1334.51,-867.09 1334.91,-874.08"/>
<text text-anchor="middle" x="1124.14" y="-891.06" font-family="Times,serif" font-size="14.00">schema:supersededBy</text>
</g>
<!-- https://w3id.org/oseg/ont/otrl#Otrl2 -->
<g id="node28" class="node">
<title>https://w3id.org/oseg/ont/otrl#Otrl2</title>
<ellipse fill="none" stroke="black" cx="807.65" cy="-403.26" rx="194.41" ry="16.03"/>
<text text-anchor="middle" x="807.65" y="-399.56" font-family="Times,serif" font-size="14.00">https://w3id.org/oseg/ont/otrl#Otrl2</text>
</g>
<!-- https://w3id.org/oseg/ont/otrl#Otrl2&#45;&gt;https://w3id.org/oseg/ont/otrl#OTRL2 -->
<g id="edge13" class="edge">
<title>https://w3id.org/oseg/ont/otrl#Otrl2&#45;&gt;https://w3id.org/oseg/ont/otrl#OTRL2</title>
<path fill="none" stroke="black" d="M900.63,-417.6C982.94,-426.6 1105.47,-430.4 1204.14,-393.26 1213.89,-389.59 1212.62,-382.47 1222.14,-378.26 1257.21,-362.79 1299.18,-355.99 1334.68,-353.18"/>
<polygon fill="black" stroke="black" points="1335.26,-356.65 1344.99,-352.46 1334.77,-349.67 1335.26,-356.65"/>
<text text-anchor="middle" x="1124.14" y="-427.06" font-family="Times,serif" font-size="14.00">schema:supersededBy</text>
</g>
<!-- https://w3id.org/oseg/ont/otrl#Otrl2&#45;&gt;https://w3id.org/oseg/ont/otrl#OTRL2 -->
<g id="edge48" class="edge">
<title>https://w3id.org/oseg/ont/otrl#Otrl2&#45;&gt;https://w3id.org/oseg/ont/otrl#OTRL2</title>
<path fill="none" stroke="black" d="M909.92,-389.38C951.46,-384.06 1000.04,-378.3 1044.14,-374.26 1144.83,-365.06 1261.41,-358.82 1335.72,-355.41"/>
<polygon fill="black" stroke="black" points="1336.09,-358.89 1345.92,-354.94 1335.78,-351.9 1336.09,-358.89"/>
<text text-anchor="middle" x="1124.14" y="-378.06" font-family="Times,serif" font-size="14.00">owl:sameAs</text>
</g>
<!-- https://w3id.org/oseg/ont/otrl#Otrl1 -->
<g id="node29" class="node">
<title>https://w3id.org/oseg/ont/otrl#Otrl1</title>
<ellipse fill="none" stroke="black" cx="807.65" cy="-99.26" rx="194.41" ry="16.03"/>
<text text-anchor="middle" x="807.65" y="-95.56" font-family="Times,serif" font-size="14.00">https://w3id.org/oseg/ont/otrl#Otrl1</text>
</g>
<!-- https://w3id.org/oseg/ont/otrl#Otrl1&#45;&gt;https://w3id.org/oseg/ont/otrl#OTRL1 -->
<g id="edge16" class="edge">
<title>https://w3id.org/oseg/ont/otrl#Otrl1&#45;&gt;https://w3id.org/oseg/ont/otrl#OTRL1</title>
<path fill="none" stroke="black" d="M997.28,-103.02C1111.43,-105.29 1250.78,-108.07 1335.22,-109.75"/>
<polygon fill="black" stroke="black" points="1335.17,-113.25 1345.23,-109.95 1335.31,-106.25 1335.17,-113.25"/>
<text text-anchor="middle" x="1124.14" y="-111.06" font-family="Times,serif" font-size="14.00">owl:sameAs</text>
</g>
<!-- https://w3id.org/oseg/ont/otrl#Otrl1&#45;&gt;https://w3id.org/oseg/ont/otrl#OTRL1 -->
<g id="edge52" class="edge">
<title>https://w3id.org/oseg/ont/otrl#Otrl1&#45;&gt;https://w3id.org/oseg/ont/otrl#OTRL1</title>
<path fill="none" stroke="black" d="M946.01,-87.81C1022.13,-83.12 1118.43,-79.91 1204.14,-85.26 1251.68,-88.23 1304.99,-95 1345.64,-100.89"/>
<polygon fill="black" stroke="black" points="1345.28,-104.37 1355.69,-102.36 1346.3,-97.45 1345.28,-104.37"/>
<text text-anchor="middle" x="1124.14" y="-89.06" font-family="Times,serif" font-size="14.00">schema:supersededBy</text>
</g>
<!-- https://w3id.org/oseg/ont/otrl#Otrl3 -->
<g id="node30" class="node">
<title>https://w3id.org/oseg/ont/otrl#Otrl3</title>
<ellipse fill="none" stroke="black" cx="807.65" cy="-162.26" rx="194.41" ry="16.03"/>
<text text-anchor="middle" x="807.65" y="-158.56" font-family="Times,serif" font-size="14.00">https://w3id.org/oseg/ont/otrl#Otrl3</text>
</g>
<!-- https://w3id.org/oseg/ont/otrl#Otrl3&#45;&gt;https://w3id.org/oseg/ont/otrl#OTRL3 -->
<g id="edge17" class="edge">
<title>https://w3id.org/oseg/ont/otrl#Otrl3&#45;&gt;https://w3id.org/oseg/ont/otrl#OTRL3</title>
<path fill="none" stroke="black" d="M982.17,-169.46C1099.08,-174.31 1247.5,-180.47 1335.65,-184.12"/>
<polygon fill="black" stroke="black" points="1335.69,-187.63 1345.83,-184.55 1335.98,-180.63 1335.69,-187.63"/>
<text text-anchor="middle" x="1124.14" y="-183.06" font-family="Times,serif" font-size="14.00">owl:sameAs</text>
</g>
<!-- https://w3id.org/oseg/ont/otrl#Otrl3&#45;&gt;https://w3id.org/oseg/ont/otrl#OTRL3 -->
<g id="edge26" class="edge">
<title>https://w3id.org/oseg/ont/otrl#Otrl3&#45;&gt;https://w3id.org/oseg/ont/otrl#OTRL3</title>
<path fill="none" stroke="black" d="M960.51,-152.16C1034.17,-149.06 1123.87,-147.91 1204.14,-154.26 1253.79,-158.19 1309.52,-167.34 1350.66,-175.01"/>
<polygon fill="black" stroke="black" points="1350.05,-178.45 1360.53,-176.87 1351.35,-171.58 1350.05,-178.45"/>
<text text-anchor="middle" x="1124.14" y="-158.06" font-family="Times,serif" font-size="14.00">schema:supersededBy</text>
</g>
<!-- https://w3id.org/oseg/ont/otrl#Otrl4 -->
<g id="node31" class="node">
<title>https://w3id.org/oseg/ont/otrl#Otrl4</title>
<ellipse fill="none" stroke="black" cx="807.65" cy="-327.26" rx="194.41" ry="16.03"/>
<text text-anchor="middle" x="807.65" y="-323.56" font-family="Times,serif" font-size="14.00">https://w3id.org/oseg/ont/otrl#Otrl4</text>
</g>
<!-- https://w3id.org/oseg/ont/otrl#Otrl4&#45;&gt;https://w3id.org/oseg/ont/otrl#OTRL4 -->
<g id="edge20" class="edge">
<title>https://w3id.org/oseg/ont/otrl#Otrl4&#45;&gt;https://w3id.org/oseg/ont/otrl#OTRL4</title>
<path fill="none" stroke="black" d="M999.33,-324.44C1064.34,-322.94 1137.44,-320.68 1204.14,-317.26 1249.06,-314.96 1299.36,-311.11 1339.16,-307.76"/>
<polygon fill="black" stroke="black" points="1339.63,-311.23 1349.3,-306.9 1339.04,-304.26 1339.63,-311.23"/>
<text text-anchor="middle" x="1124.14" y="-327.06" font-family="Times,serif" font-size="14.00">owl:sameAs</text>
</g>
<!-- https://w3id.org/oseg/ont/otrl#Otrl4&#45;&gt;https://w3id.org/oseg/ont/otrl#OTRL4 -->
<g id="edge22" class="edge">
<title>https://w3id.org/oseg/ont/otrl#Otrl4&#45;&gt;https://w3id.org/oseg/ont/otrl#OTRL4</title>
<path fill="none" stroke="black" d="M902.37,-313.05C945.44,-307.2 997.27,-301.14 1044.14,-298.26 1115.12,-293.91 1133.03,-297.75 1204.14,-298.26 1247.41,-298.58 1295.75,-299.26 1334.85,-299.89"/>
<polygon fill="black" stroke="black" points="1335.04,-303.4 1345.1,-300.06 1335.16,-296.4 1335.04,-303.4"/>
<text text-anchor="middle" x="1124.14" y="-302.06" font-family="Times,serif" font-size="14.00">schema:supersededBy</text>
</g>
<!-- https://w3id.org/oseg/ont/otrl#Odrl3Star -->
<g id="node32" class="node">
<title>https://w3id.org/oseg/ont/otrl#Odrl3Star</title>
<ellipse fill="none" stroke="black" cx="807.65" cy="-843.26" rx="218.49" ry="16.03"/>
<text text-anchor="middle" x="807.65" y="-839.56" font-family="Times,serif" font-size="14.00">https://w3id.org/oseg/ont/otrl#Odrl3Star</text>
</g>
<!-- https://w3id.org/oseg/ont/otrl#Odrl3Star&#45;&gt;https://w3id.org/oseg/ont/otrl#ODRL3Star -->
<g id="edge21" class="edge">
<title>https://w3id.org/oseg/ont/otrl#Odrl3Star&#45;&gt;https://w3id.org/oseg/ont/otrl#ODRL3Star</title>
<path fill="none" stroke="black" d="M1017.57,-838.75C1077.81,-836.95 1143.61,-834.52 1204.14,-831.26 1242.35,-829.21 1284.45,-826.11 1320.67,-823.19"/>
<polygon fill="black" stroke="black" points="1321.04,-826.67 1330.72,-822.37 1320.47,-819.69 1321.04,-826.67"/>
<text text-anchor="middle" x="1124.14" y="-842.06" font-family="Times,serif" font-size="14.00">schema:supersededBy</text>
</g>
<!-- https://w3id.org/oseg/ont/otrl#Odrl3Star&#45;&gt;https://w3id.org/oseg/ont/otrl#ODRL3Star -->
<g id="edge36" class="edge">
<title>https://w3id.org/oseg/ont/otrl#Odrl3Star&#45;&gt;https://w3id.org/oseg/ont/otrl#ODRL3Star</title>
<path fill="none" stroke="black" d="M899.52,-828.48C943.13,-822.11 996.2,-815.41 1044.14,-812.26 1115.1,-807.61 1133.03,-811.75 1204.14,-812.26 1239.19,-812.52 1277.57,-813.01 1311.68,-813.53"/>
<polygon fill="black" stroke="black" points="1312.06,-817.03 1322.11,-813.69 1312.17,-810.04 1312.06,-817.03"/>
<text text-anchor="middle" x="1124.14" y="-816.06" font-family="Times,serif" font-size="14.00">owl:sameAs</text>
</g>
<!-- https://w3id.org/oseg/ont/otrl#Odrl -->
<g id="node33" class="node">
<title>https://w3id.org/oseg/ont/otrl#Odrl</title>
<ellipse fill="none" stroke="black" cx="1412.36" cy="-917.26" rx="190.42" ry="16.03"/>
<text text-anchor="middle" x="1412.36" y="-913.56" font-family="Times,serif" font-size="14.00">https://w3id.org/oseg/ont/otrl#Odrl</text>
</g>
<!-- https://w3id.org/oseg/ont/otrl#Odrl&#45;&gt;https://w3id.org/oseg/ont/otrl#ODRL -->
<g id="edge24" class="edge">
<title>https://w3id.org/oseg/ont/otrl#Odrl&#45;&gt;https://w3id.org/oseg/ont/otrl#ODRL</title>
<path fill="none" stroke="black" d="M1554.05,-906.36C1570.76,-902.62 1587.29,-897.7 1602.57,-891.26 1611.91,-887.33 1611.43,-881.65 1620.57,-877.26 1691.41,-843.26 1718.1,-861.39 1792.57,-836.26 1828.17,-824.25 1867.15,-806.6 1894.92,-793.21"/>
<polygon fill="black" stroke="black" points="1896.79,-796.19 1904.25,-788.66 1893.73,-789.89 1896.79,-796.19"/>
<text text-anchor="middle" x="1706.57" y="-881.06" font-family="Times,serif" font-size="14.00">schema:supersededBy</text>
</g>
<!-- https://w3id.org/oseg/ont/otrl#Odrl&#45;&gt;https://w3id.org/oseg/ont/otrl#ODRL -->
<g id="edge37" class="edge">
<title>https://w3id.org/oseg/ont/otrl#Odrl&#45;&gt;https://w3id.org/oseg/ont/otrl#ODRL</title>
<path fill="none" stroke="black" d="M1549.53,-928.54C1623.87,-929.77 1716.07,-923.09 1792.57,-892.26 1842.76,-872.04 1888.11,-826.55 1912.87,-798.33"/>
<polygon fill="black" stroke="black" points="1915.72,-800.38 1919.59,-790.52 1910.41,-795.82 1915.72,-800.38"/>
<text text-anchor="middle" x="1706.57" y="-931.06" font-family="Times,serif" font-size="14.00">owl:sameAs</text>
</g>
<!-- https://w3id.org/oseg/ont/otrl#Otrl -->
<g id="node34" class="node">
<title>https://w3id.org/oseg/ont/otrl#Otrl</title>
<ellipse fill="none" stroke="black" cx="1412.36" cy="-403.26" rx="188.18" ry="16.03"/>
<text text-anchor="middle" x="1412.36" y="-399.56" font-family="Times,serif" font-size="14.00">https://w3id.org/oseg/ont/otrl#Otrl</text>
</g>
<!-- https://w3id.org/oseg/ont/otrl#Otrl&#45;&gt;https://w3id.org/oseg/ont/otrl#OTRL -->
<g id="edge28" class="edge">
<title>https://w3id.org/oseg/ont/otrl#Otrl&#45;&gt;https://w3id.org/oseg/ont/otrl#OTRL</title>
<path fill="none" stroke="black" d="M1564.77,-393.64C1578.03,-389.51 1590.85,-384.16 1602.57,-377.26 1614.06,-370.5 1609.06,-360.01 1620.57,-353.26 1687.11,-314.27 1716.28,-341.63 1792.57,-330.26 1818.7,-326.37 1847.51,-321.7 1872.16,-317.6"/>
<polygon fill="black" stroke="black" points="1872.82,-321.03 1882.1,-315.93 1871.66,-314.13 1872.82,-321.03"/>
<text text-anchor="middle" x="1706.57" y="-357.06" font-family="Times,serif" font-size="14.00">schema:supersededBy</text>
</g>
<!-- https://w3id.org/oseg/ont/otrl#Otrl&#45;&gt;https://w3id.org/oseg/ont/otrl#OTRL -->
<g id="edge42" class="edge">
<title>https://w3id.org/oseg/ont/otrl#Otrl&#45;&gt;https://w3id.org/oseg/ont/otrl#OTRL</title>
<path fill="none" stroke="black" d="M1567.28,-394.01C1653.06,-387.88 1750.78,-379 1792.57,-368.26 1829.72,-358.72 1869.6,-340.49 1897.26,-326.43"/>
<polygon fill="black" stroke="black" points="1898.87,-329.54 1906.15,-321.84 1895.65,-323.32 1898.87,-329.54"/>
<text text-anchor="middle" x="1706.57" y="-394.06" font-family="Times,serif" font-size="14.00">owl:sameAs</text>
</g>
<!-- https://w3id.org/oseg/ont/otrl#Odrl1 -->
<g id="node35" class="node">
<title>https://w3id.org/oseg/ont/otrl#Odrl1</title>
<ellipse fill="none" stroke="black" cx="807.65" cy="-758.26" rx="196.65" ry="16.03"/>
<text text-anchor="middle" x="807.65" y="-754.56" font-family="Times,serif" font-size="14.00">https://w3id.org/oseg/ont/otrl#Odrl1</text>
</g>
<!-- https://w3id.org/oseg/ont/otrl#Odrl1&#45;&gt;https://w3id.org/oseg/ont/otrl#ODRL1 -->
<g id="edge33" class="edge">
<title>https://w3id.org/oseg/ont/otrl#Odrl1&#45;&gt;https://w3id.org/oseg/ont/otrl#ODRL1</title>
<path fill="none" stroke="black" d="M1003.08,-760.2C1115.04,-761.31 1249.61,-762.65 1332.82,-763.48"/>
<polygon fill="black" stroke="black" points="1332.93,-766.98 1342.96,-763.58 1333,-759.98 1332.93,-766.98"/>
<text text-anchor="middle" x="1124.14" y="-766.06" font-family="Times,serif" font-size="14.00">schema:supersededBy</text>
</g>
<!-- https://w3id.org/oseg/ont/otrl#Odrl1&#45;&gt;https://w3id.org/oseg/ont/otrl#ODRL1 -->
<g id="edge46" class="edge">
<title>https://w3id.org/oseg/ont/otrl#Odrl1&#45;&gt;https://w3id.org/oseg/ont/otrl#ODRL1</title>
<path fill="none" stroke="black" d="M944.14,-746.53C1020.52,-741.49 1117.68,-737.69 1204.14,-742.26 1250.1,-744.7 1301.56,-750.14 1341.69,-755.01"/>
<polygon fill="black" stroke="black" points="1341.29,-758.49 1351.64,-756.23 1342.14,-751.54 1341.29,-758.49"/>
<text text-anchor="middle" x="1124.14" y="-746.06" font-family="Times,serif" font-size="14.00">owl:sameAs</text>
</g>
<!-- https://w3id.org/oseg/ont/otrl#Otrl6 -->
<g id="node36" class="node">
<title>https://w3id.org/oseg/ont/otrl#Otrl6</title>
<ellipse fill="none" stroke="black" cx="807.65" cy="-244.26" rx="194.41" ry="16.03"/>
<text text-anchor="middle" x="807.65" y="-240.56" font-family="Times,serif" font-size="14.00">https://w3id.org/oseg/ont/otrl#Otrl6</text>
</g>
<!-- https://w3id.org/oseg/ont/otrl#Otrl6&#45;&gt;https://w3id.org/oseg/ont/otrl#OTRL6 -->
<g id="edge34" class="edge">
<title>https://w3id.org/oseg/ont/otrl#Otrl6&#45;&gt;https://w3id.org/oseg/ont/otrl#OTRL6</title>
<path fill="none" stroke="black" d="M1001,-246.18C1114.27,-247.31 1251.29,-248.67 1334.84,-249.5"/>
<polygon fill="black" stroke="black" points="1334.97,-253 1345.01,-249.6 1335.04,-246 1334.97,-253"/>
<text text-anchor="middle" x="1124.14" y="-252.06" font-family="Times,serif" font-size="14.00">schema:supersededBy</text>
</g>
<!-- https://w3id.org/oseg/ont/otrl#Otrl6&#45;&gt;https://w3id.org/oseg/ont/otrl#OTRL6 -->
<g id="edge50" class="edge">
<title>https://w3id.org/oseg/ont/otrl#Otrl6&#45;&gt;https://w3id.org/oseg/ont/otrl#OTRL6</title>
<path fill="none" stroke="black" d="M943.23,-232.6C1019.75,-227.52 1117.34,-223.67 1204.14,-228.26 1250.6,-230.72 1302.67,-236.26 1343,-241.17"/>
<polygon fill="black" stroke="black" points="1342.63,-244.65 1352.98,-242.4 1343.49,-237.7 1342.63,-244.65"/>
<text text-anchor="middle" x="1124.14" y="-232.06" font-family="Times,serif" font-size="14.00">owl:sameAs</text>
</g>
<!-- https://w3id.org/oseg/ont/otrl#Odrl5 -->
<g id="node37" class="node">
<title>https://w3id.org/oseg/ont/otrl#Odrl5</title>
<ellipse fill="none" stroke="black" cx="196.58" cy="-613.26" rx="196.65" ry="16.03"/>
<text text-anchor="middle" x="196.58" y="-609.56" font-family="Times,serif" font-size="14.00">https://w3id.org/oseg/ont/otrl#Odrl5</text>
</g>
<!-- https://w3id.org/oseg/ont/otrl#Odrl5&#45;&gt;https://w3id.org/oseg/ont/otrl#Odrl4 -->
<g id="edge41" class="edge">
<title>https://w3id.org/oseg/ont/otrl#Odrl5&#45;&gt;https://w3id.org/oseg/ont/otrl#Odrl4</title>
<path fill="none" stroke="black" d="M393.22,-613.26C510.43,-613.26 652.42,-613.26 735.81,-613.26"/>
<polygon fill="black" stroke="black" points="735.94,-616.76 745.94,-613.26 735.94,-609.76 735.94,-616.76"/>
<text text-anchor="middle" x="491.15" y="-617.06" font-family="Times,serif" font-size="14.00">schema:supersededBy</text>
</g>
<!-- https://w3id.org/oseg/ont/otrl#Odrl5&#45;&gt;https://w3id.org/oseg/ont/otrl#Odrl4 -->
<g id="edge45" class="edge">
<title>https://w3id.org/oseg/ont/otrl#Odrl5&#45;&gt;https://w3id.org/oseg/ont/otrl#Odrl4</title>
<path fill="none" stroke="black" d="M319.43,-600.54C349.39,-597.93 381.4,-595.58 411.15,-594.26 482.19,-591.11 500.1,-591.4 571.15,-594.26 628.23,-596.56 692.91,-601.98 740.02,-606.45"/>
<polygon fill="black" stroke="black" points="739.81,-609.95 750.1,-607.42 740.48,-602.98 739.81,-609.95"/>
<text text-anchor="middle" x="491.15" y="-598.06" font-family="Times,serif" font-size="14.00">owl:sameAs</text>
</g>
</g>
</svg>
