<?xml version="1.0" encoding="UTF-8" standalone="no"?>
<!DOCTYPE svg PUBLIC "-//W3C//DTD SVG 1.1//EN"
 "http://www.w3.org/Graphics/SVG/1.1/DTD/svg11.dtd">
<!-- Generated by graphviz version 2.43.0 (0)
 -->
<!-- Title: G Pages: 1 -->
<svg width="2244pt" height="1603pt"
 viewBox="0.00 0.00 2244.00 1603.00" xmlns="http://www.w3.org/2000/svg" xmlns:xlink="http://www.w3.org/1999/xlink">
<g id="graph0" class="graph" transform="scale(1 1) rotate(0) translate(4 1599)">
<title>G</title>
<polygon fill="white" stroke="transparent" points="-4,4 -4,-1599 2240,-1599 2240,4 -4,4"/>
<!-- https://w3id.org/oseg/ont/otrl#ODRL2 -->
<g id="node1" class="node">
<title>https://w3id.org/oseg/ont/otrl#ODRL2</title>
<ellipse fill="none" stroke="#e377c2" cx="666.86" cy="-735.79" rx="69.09" ry="16.03"/>
<text text-anchor="middle" x="666.86" y="-732.09" font-family="Times,serif" font-size="14.00">otrl:ODRL2</text>
</g>
<!-- https://w3id.org/oseg/ont/otrl#ODRL -->
<g id="node10" class="node">
<title>https://w3id.org/oseg/ont/otrl#ODRL</title>
<ellipse fill="none" stroke="#e377c2" cx="845.05" cy="-956.75" rx="62.87" ry="16.03"/>
<text text-anchor="middle" x="845.05" y="-953.05" font-family="Times,serif" font-size="14.00">otrl:ODRL</text>
</g>
<!-- https://w3id.org/oseg/ont/otrl#ODRL2&#45;&gt;https://w3id.org/oseg/ont/otrl#ODRL -->
<g id="edge2" class="edge">
<title>https://w3id.org/oseg/ont/otrl#ODRL2&#45;&gt;https://w3id.org/oseg/ont/otrl#ODRL</title>
<path fill="none" stroke="black" d="M679.96,-752.04C711.06,-790.6 789.44,-887.79 825.88,-932.97"/>
<polygon fill="black" stroke="black" points="823.17,-935.19 832.17,-940.78 828.62,-930.8 823.17,-935.19"/>
</g>
<!-- https://w3id.org/oseg/ont/otrl#ODRL3Star -->
<g id="node2" class="node">
<title>https://w3id.org/oseg/ont/otrl#ODRL3Star</title>
<ellipse fill="none" stroke="#e377c2" cx="748.21" cy="-1229.55" rx="90.52" ry="16.03"/>
<text text-anchor="middle" x="748.21" y="-1225.85" font-family="Times,serif" font-size="14.00">otrl:ODRL3Star</text>
</g>
<!-- https://w3id.org/oseg/ont/otrl#ODRL3Star&#45;&gt;https://w3id.org/oseg/ont/otrl#ODRL -->
<g id="edge7" class="edge">
<title>https://w3id.org/oseg/ont/otrl#ODRL3Star&#45;&gt;https://w3id.org/oseg/ont/otrl#ODRL</title>
<path fill="none" stroke="black" d="M753.98,-1213.3C770.16,-1167.74 816.06,-1038.42 835.82,-982.76"/>
<polygon fill="black" stroke="black" points="839.15,-983.86 839.19,-973.26 832.55,-981.51 839.15,-983.86"/>
</g>
<!-- https://w3id.org/oseg/ont/otrl#OTRL1 -->
<g id="node3" class="node">
<title>https://w3id.org/oseg/ont/otrl#OTRL1</title>
<ellipse fill="none" stroke="#e377c2" cx="1442.78" cy="-1098.63" rx="67.35" ry="16.03"/>
<text text-anchor="middle" x="1442.78" y="-1094.93" font-family="Times,serif" font-size="14.00">otrl:OTRL1</text>
</g>
<!-- https://w3id.org/oseg/ont/otrl#OTRL -->
<g id="node5" class="node">
<title>https://w3id.org/oseg/ont/otrl#OTRL</title>
<ellipse fill="none" stroke="#e377c2" cx="1376.57" cy="-1265.49" rx="60.62" ry="16.03"/>
<text text-anchor="middle" x="1376.57" y="-1261.79" font-family="Times,serif" font-size="14.00">otrl:OTRL</text>
</g>
<!-- https://w3id.org/oseg/ont/otrl#OTRL1&#45;&gt;https://w3id.org/oseg/ont/otrl#OTRL -->
<g id="edge14" class="edge">
<title>https://w3id.org/oseg/ont/otrl#OTRL1&#45;&gt;https://w3id.org/oseg/ont/otrl#OTRL</title>
<path fill="none" stroke="black" d="M1436.31,-1114.93C1424.82,-1143.89 1400.76,-1204.52 1386.93,-1239.36"/>
<polygon fill="black" stroke="black" points="1383.6,-1238.29 1383.16,-1248.87 1390.1,-1240.87 1383.6,-1238.29"/>
</g>
<!-- https://w3id.org/oseg/ont/otrl#OTRL2 -->
<g id="node4" class="node">
<title>https://w3id.org/oseg/ont/otrl#OTRL2</title>
<ellipse fill="none" stroke="#e377c2" cx="1282.79" cy="-1424.07" rx="67.35" ry="16.03"/>
<text text-anchor="middle" x="1282.79" y="-1420.37" font-family="Times,serif" font-size="14.00">otrl:OTRL2</text>
</g>
<!-- https://w3id.org/oseg/ont/otrl#OTRL2&#45;&gt;https://w3id.org/oseg/ont/otrl#OTRL -->
<g id="edge17" class="edge">
<title>https://w3id.org/oseg/ont/otrl#OTRL2&#45;&gt;https://w3id.org/oseg/ont/otrl#OTRL</title>
<path fill="none" stroke="black" d="M1292.48,-1407.7C1308.83,-1380.04 1342.04,-1323.88 1361.47,-1291.01"/>
<polygon fill="black" stroke="black" points="1364.72,-1292.4 1366.8,-1282.01 1358.69,-1288.84 1364.72,-1292.4"/>
</g>
<!-- https://w3id.org/oseg/ont/otrl#ODRL1 -->
<g id="node6" class="node">
<title>https://w3id.org/oseg/ont/otrl#ODRL1</title>
<ellipse fill="none" stroke="#e377c2" cx="587.24" cy="-867.51" rx="69.09" ry="16.03"/>
<text text-anchor="middle" x="587.24" y="-863.81" font-family="Times,serif" font-size="14.00">otrl:ODRL1</text>
</g>
<!-- https://w3id.org/oseg/ont/otrl#ODRL1&#45;&gt;https://w3id.org/oseg/ont/otrl#ODRL -->
<g id="edge37" class="edge">
<title>https://w3id.org/oseg/ont/otrl#ODRL1&#45;&gt;https://w3id.org/oseg/ont/otrl#ODRL</title>
<path fill="none" stroke="black" d="M626.39,-881.06C672.35,-896.97 748.52,-923.34 797.74,-940.38"/>
<polygon fill="black" stroke="black" points="796.62,-943.69 807.21,-943.65 798.91,-937.08 796.62,-943.69"/>
</g>
<!-- https://w3id.org/oseg/ont/otrl#ODRL3 -->
<g id="node7" class="node">
<title>https://w3id.org/oseg/ont/otrl#ODRL3</title>
<ellipse fill="none" stroke="#e377c2" cx="584.11" cy="-1019.07" rx="69.09" ry="16.03"/>
<text text-anchor="middle" x="584.11" y="-1015.37" font-family="Times,serif" font-size="14.00">otrl:ODRL3</text>
</g>
<!-- https://w3id.org/oseg/ont/otrl#ODRL3&#45;&gt;https://w3id.org/oseg/ont/otrl#ODRL -->
<g id="edge13" class="edge">
<title>https://w3id.org/oseg/ont/otrl#ODRL3&#45;&gt;https://w3id.org/oseg/ont/otrl#ODRL</title>
<path fill="none" stroke="black" d="M632.88,-1007.42C677.13,-996.85 742.37,-981.28 788.8,-970.19"/>
<polygon fill="black" stroke="black" points="789.79,-973.55 798.71,-967.82 788.17,-966.74 789.79,-973.55"/>
</g>
<!-- https://w3id.org/oseg/ont/otrl#OTRL4 -->
<g id="node8" class="node">
<title>https://w3id.org/oseg/ont/otrl#OTRL4</title>
<ellipse fill="none" stroke="#e377c2" cx="1661.8" cy="-1290.95" rx="67.35" ry="16.03"/>
<text text-anchor="middle" x="1661.8" y="-1287.25" font-family="Times,serif" font-size="14.00">otrl:OTRL4</text>
</g>
<!-- https://w3id.org/oseg/ont/otrl#OTRL4&#45;&gt;https://w3id.org/oseg/ont/otrl#OTRL -->
<g id="edge36" class="edge">
<title>https://w3id.org/oseg/ont/otrl#OTRL4&#45;&gt;https://w3id.org/oseg/ont/otrl#OTRL</title>
<path fill="none" stroke="black" d="M1598.5,-1285.3C1552.78,-1281.22 1491.11,-1275.71 1444.39,-1271.54"/>
<polygon fill="black" stroke="black" points="1444.63,-1268.05 1434.36,-1270.65 1444.01,-1275.02 1444.63,-1268.05"/>
</g>
<!-- https://w3id.org/oseg/ont/otrl#ODRL4 -->
<g id="node9" class="node">
<title>https://w3id.org/oseg/ont/otrl#ODRL4</title>
<ellipse fill="none" stroke="#e377c2" cx="833.68" cy="-654.92" rx="69.09" ry="16.03"/>
<text text-anchor="middle" x="833.68" y="-651.22" font-family="Times,serif" font-size="14.00">otrl:ODRL4</text>
</g>
<!-- https://w3id.org/oseg/ont/otrl#ODRL4&#45;&gt;https://w3id.org/oseg/ont/otrl#ODRL -->
<g id="edge38" class="edge">
<title>https://w3id.org/oseg/ont/otrl#ODRL4&#45;&gt;https://w3id.org/oseg/ont/otrl#ODRL</title>
<path fill="none" stroke="black" d="M834.31,-671.58C836.18,-721.26 841.74,-868.71 844.04,-929.79"/>
<polygon fill="black" stroke="black" points="840.55,-930.29 844.43,-940.15 847.55,-930.02 840.55,-930.29"/>
</g>
<!-- https://w3id.org/oseg/ont/otrl#OTRL6 -->
<g id="node11" class="node">
<title>https://w3id.org/oseg/ont/otrl#OTRL6</title>
<ellipse fill="none" stroke="#e377c2" cx="1636.93" cy="-1136.21" rx="67.35" ry="16.03"/>
<text text-anchor="middle" x="1636.93" y="-1132.51" font-family="Times,serif" font-size="14.00">otrl:OTRL6</text>
</g>
<!-- https://w3id.org/oseg/ont/otrl#OTRL6&#45;&gt;https://w3id.org/oseg/ont/otrl#OTRL -->
<g id="edge50" class="edge">
<title>https://w3id.org/oseg/ont/otrl#OTRL6&#45;&gt;https://w3id.org/oseg/ont/otrl#OTRL</title>
<path fill="none" stroke="black" d="M1607.32,-1150.92C1559.92,-1174.45 1467.03,-1220.57 1414.72,-1246.55"/>
<polygon fill="black" stroke="black" points="1413.15,-1243.41 1405.75,-1251 1416.27,-1249.68 1413.15,-1243.41"/>
</g>
<!-- https://w3id.org/oseg/ont/otrl#OTRL3 -->
<g id="node12" class="node">
<title>https://w3id.org/oseg/ont/otrl#OTRL3</title>
<ellipse fill="none" stroke="#e377c2" cx="1349.72" cy="-1522.57" rx="67.35" ry="16.03"/>
<text text-anchor="middle" x="1349.72" y="-1518.87" font-family="Times,serif" font-size="14.00">otrl:OTRL3</text>
</g>
<!-- https://w3id.org/oseg/ont/otrl#OTRL3&#45;&gt;https://w3id.org/oseg/ont/otrl#OTRL -->
<g id="edge11" class="edge">
<title>https://w3id.org/oseg/ont/otrl#OTRL3&#45;&gt;https://w3id.org/oseg/ont/otrl#OTRL</title>
<path fill="none" stroke="black" d="M1351.44,-1506.1C1355.97,-1462.66 1368.29,-1344.7 1373.82,-1291.79"/>
<polygon fill="black" stroke="black" points="1377.3,-1292.13 1374.86,-1281.82 1370.34,-1291.41 1377.3,-1292.13"/>
</g>
<!-- https://w3id.org/oseg/ont/otrl#OTRL5 -->
<g id="node13" class="node">
<title>https://w3id.org/oseg/ont/otrl#OTRL5</title>
<ellipse fill="none" stroke="#e377c2" cx="1528.99" cy="-1434.39" rx="67.35" ry="16.03"/>
<text text-anchor="middle" x="1528.99" y="-1430.69" font-family="Times,serif" font-size="14.00">otrl:OTRL5</text>
</g>
<!-- https://w3id.org/oseg/ont/otrl#OTRL5&#45;&gt;https://w3id.org/oseg/ont/otrl#OTRL -->
<g id="edge10" class="edge">
<title>https://w3id.org/oseg/ont/otrl#OTRL5&#45;&gt;https://w3id.org/oseg/ont/otrl#OTRL</title>
<path fill="none" stroke="black" d="M1514.65,-1418.5C1487.75,-1388.7 1429.61,-1324.27 1398.03,-1289.28"/>
<polygon fill="black" stroke="black" points="1400.28,-1286.54 1390.98,-1281.46 1395.08,-1291.23 1400.28,-1286.54"/>
</g>
<!-- https://w3id.org/oseg/ont/otrl -->
<g id="node14" class="node">
<title>https://w3id.org/oseg/ont/otrl</title>
<ellipse fill="none" stroke="#e377c2" cx="1648.51" cy="-673.55" rx="50.82" ry="16.03"/>
<text text-anchor="middle" x="1648.51" y="-669.85" font-family="Times,serif" font-size="14.00">ns1:otrl</text>
</g>
<!-- https://www.gnu.org/licenses/gpl&#45;3.0.txt -->
<g id="node17" class="node">
<title>https://www.gnu.org/licenses/gpl&#45;3.0.txt</title>
<ellipse fill="none" stroke="#e377c2" cx="1817.34" cy="-608.71" rx="85.62" ry="16.03"/>
<text text-anchor="middle" x="1817.34" y="-605.01" font-family="Times,serif" font-size="14.00">ns2:gpl&#45;3.0.txt</text>
</g>
<!-- https://w3id.org/oseg/ont/otrl&#45;&gt;https://www.gnu.org/licenses/gpl&#45;3.0.txt -->
<g id="edge5" class="edge">
<title>https://w3id.org/oseg/ont/otrl&#45;&gt;https://www.gnu.org/licenses/gpl&#45;3.0.txt</title>
<path fill="none" stroke="black" d="M1689.75,-663.93C1717.97,-654.47 1755,-640.22 1781.9,-628.45"/>
<polygon fill="black" stroke="black" points="1783.62,-631.52 1791.32,-624.24 1780.76,-625.13 1783.62,-631.52"/>
<text text-anchor="middle" x="1792.32" y="-649.99" font-family="Times,serif" font-size="14.00">dcterms:license</text>
</g>
<!-- https://w3id.org/oseg/ont/otrl&#45;&gt;https://www.gnu.org/licenses/gpl&#45;3.0.txt -->
<g id="edge27" class="edge">
<title>https://w3id.org/oseg/ont/otrl&#45;&gt;https://www.gnu.org/licenses/gpl&#45;3.0.txt</title>
<path fill="none" stroke="black" d="M1672.36,-659.03C1694.15,-648.91 1727.29,-635.66 1756.4,-625.2"/>
<polygon fill="black" stroke="black" points="1757.83,-628.4 1766.09,-621.76 1755.49,-621.8 1757.83,-628.4"/>
<text text-anchor="middle" x="1749.38" y="-630.91" font-family="Times,serif" font-size="14.00">cc:license</text>
</g>
<!-- https://w3id.org/oseg/ont/1.1.0/otrl -->
<g id="node18" class="node">
<title>https://w3id.org/oseg/ont/1.1.0/otrl</title>
<ellipse fill="none" stroke="#e377c2" cx="1616.88" cy="-633.01" rx="50.82" ry="16.03"/>
<text text-anchor="middle" x="1616.88" y="-629.31" font-family="Times,serif" font-size="14.00">ns3:otrl</text>
</g>
<!-- https://w3id.org/oseg/ont/otrl&#45;&gt;https://w3id.org/oseg/ont/1.1.0/otrl -->
<g id="edge29" class="edge">
<title>https://w3id.org/oseg/ont/otrl&#45;&gt;https://w3id.org/oseg/ont/1.1.0/otrl</title>
<path fill="none" stroke="black" d="M1636.01,-657.53C1635.87,-657.35 1635.73,-657.17 1635.59,-656.99"/>
<polygon fill="black" stroke="black" points="1638.2,-654.65 1629.29,-648.92 1632.68,-658.95 1638.2,-654.65"/>
<text text-anchor="middle" x="1687.3" y="-646.06" font-family="Times,serif" font-size="14.00">owl:versionIRI</text>
</g>
<!-- https://orcid.org/0009&#45;0004&#45;3559&#45;6542 -->
<g id="node19" class="node">
<title>https://orcid.org/0009&#45;0004&#45;3559&#45;6542</title>
<ellipse fill="none" stroke="#e377c2" cx="1445.37" cy="-729.6" rx="113.69" ry="16.03"/>
<text text-anchor="middle" x="1445.37" y="-725.9" font-family="Times,serif" font-size="14.00">orcid:0009&#45;0004&#45;3...</text>
</g>
<!-- https://w3id.org/oseg/ont/otrl&#45;&gt;https://orcid.org/0009&#45;0004&#45;3559&#45;6542 -->
<g id="edge33" class="edge">
<title>https://w3id.org/oseg/ont/otrl&#45;&gt;https://orcid.org/0009&#45;0004&#45;3559&#45;6542</title>
<path fill="none" stroke="black" d="M1609.82,-684.22C1580.9,-692.2 1540.77,-703.27 1507.4,-712.48"/>
<polygon fill="black" stroke="black" points="1506.44,-709.12 1497.73,-715.15 1508.3,-715.87 1506.44,-709.12"/>
<text text-anchor="middle" x="1501.11" y="-702.15" font-family="Times,serif" font-size="14.00">dcterms:creator</text>
</g>
<!-- https://orcid.org/0000&#45;0002&#45;1611&#45;7129 -->
<g id="node22" class="node">
<title>https://orcid.org/0000&#45;0002&#45;1611&#45;7129</title>
<ellipse fill="none" stroke="#e377c2" cx="1683.76" cy="-714.96" rx="113.69" ry="16.03"/>
<text text-anchor="middle" x="1683.76" y="-711.26" font-family="Times,serif" font-size="14.00">orcid:0000&#45;0002&#45;1...</text>
</g>
<!-- https://w3id.org/oseg/ont/otrl&#45;&gt;https://orcid.org/0000&#45;0002&#45;1611&#45;7129 -->
<g id="edge46" class="edge">
<title>https://w3id.org/oseg/ont/otrl&#45;&gt;https://orcid.org/0000&#45;0002&#45;1611&#45;7129</title>
<path fill="none" stroke="black" d="M1662.04,-689.44C1662.44,-689.91 1662.84,-690.38 1663.25,-690.86"/>
<polygon fill="black" stroke="black" points="1660.71,-693.28 1669.86,-698.63 1666.04,-688.75 1660.71,-693.28"/>
<text text-anchor="middle" x="1720.14" y="-678.95" font-family="Times,serif" font-size="14.00">dcterms:creator</text>
</g>
<!-- http://schema.org/Text -->
<g id="node15" class="node">
<title>http://schema.org/Text</title>
<ellipse fill="none" stroke="#e377c2" cx="1023.68" cy="-1288.5" rx="74.91" ry="16.03"/>
<text text-anchor="middle" x="1023.68" y="-1284.8" font-family="Times,serif" font-size="14.00">schema:Text</text>
</g>
<!-- https://w3id.org/oseg/ont/otrl#goal -->
<g id="node16" class="node">
<title>https://w3id.org/oseg/ont/otrl#goal</title>
<ellipse fill="none" stroke="#e377c2" cx="1124.54" cy="-1092.6" rx="54.39" ry="16.03"/>
<text text-anchor="middle" x="1124.54" y="-1088.9" font-family="Times,serif" font-size="14.00">otrl:goal</text>
</g>
<!-- https://w3id.org/oseg/ont/otrl#goal&#45;&gt;https://w3id.org/oseg/ont/otrl#OTRL -->
<g id="edge4" class="edge">
<title>https://w3id.org/oseg/ont/otrl#goal&#45;&gt;https://w3id.org/oseg/ont/otrl#OTRL</title>
<path fill="none" stroke="black" d="M1146.46,-1107.64C1191.41,-1138.47 1294.09,-1208.91 1345.72,-1244.33"/>
<polygon fill="black" stroke="black" points="1343.93,-1247.34 1354.15,-1250.11 1347.89,-1241.57 1343.93,-1247.34"/>
<text text-anchor="middle" x="1160.09" y="-1164.79" font-family="Times,serif" font-size="14.00">schema:domainIncludes</text>
</g>
<!-- https://w3id.org/oseg/ont/otrl#goal&#45;&gt;https://w3id.org/oseg/ont/otrl#ODRL -->
<g id="edge30" class="edge">
<title>https://w3id.org/oseg/ont/otrl#goal&#45;&gt;https://w3id.org/oseg/ont/otrl#ODRL</title>
<path fill="none" stroke="black" d="M1095.94,-1078.7C1045.47,-1054.17 940.55,-1003.17 883.69,-975.53"/>
<polygon fill="black" stroke="black" points="885.18,-972.37 874.66,-971.14 882.12,-978.66 885.18,-972.37"/>
<text text-anchor="middle" x="903.82" y="-1030.92" font-family="Times,serif" font-size="14.00">schema:domainIncludes</text>
</g>
<!-- https://w3id.org/oseg/ont/otrl#goal&#45;&gt;http://schema.org/Text -->
<g id="edge24" class="edge">
<title>https://w3id.org/oseg/ont/otrl#goal&#45;&gt;http://schema.org/Text</title>
<path fill="none" stroke="black" d="M1116.11,-1108.97C1098.49,-1143.19 1057.65,-1222.52 1036.65,-1263.3"/>
<polygon fill="black" stroke="black" points="1033.47,-1261.83 1032.01,-1272.32 1039.7,-1265.03 1033.47,-1261.83"/>
<text text-anchor="middle" x="1055.38" y="-1189.94" font-family="Times,serif" font-size="14.00">range</text>
</g>
<!-- https://w3id.org/oseg/ont/otrl#Odrl4 -->
<g id="node20" class="node">
<title>https://w3id.org/oseg/ont/otrl#Odrl4</title>
<ellipse fill="none" stroke="#e377c2" cx="809.42" cy="-399" rx="61.54" ry="16.03"/>
<text text-anchor="middle" x="809.42" y="-395.3" font-family="Times,serif" font-size="14.00">otrl:Odrl4</text>
</g>
<!-- https://w3id.org/oseg/ont/otrl#Odrl4&#45;&gt;https://w3id.org/oseg/ont/otrl#ODRL4 -->
<g id="edge6" class="edge">
<title>https://w3id.org/oseg/ont/otrl#Odrl4&#45;&gt;https://w3id.org/oseg/ont/otrl#ODRL4</title>
<path fill="none" stroke="black" d="M807.47,-415.34C807.49,-458.52 818.34,-575.92 826.85,-628.66"/>
<polygon fill="black" stroke="black" points="823.42,-629.34 828.57,-638.59 830.31,-628.14 823.42,-629.34"/>
<text text-anchor="middle" x="737.16" y="-525.8" font-family="Times,serif" font-size="14.00">schema:supersededBy</text>
</g>
<!-- https://w3id.org/oseg/ont/otrl#Odrl4&#45;&gt;https://w3id.org/oseg/ont/otrl#ODRL4 -->
<g id="edge18" class="edge">
<title>https://w3id.org/oseg/ont/otrl#Odrl4&#45;&gt;https://w3id.org/oseg/ont/otrl#ODRL4</title>
<path fill="none" stroke="black" d="M814.56,-415.46C822.65,-458.58 833.96,-575.17 835.47,-628.12"/>
<polygon fill="black" stroke="black" points="831.97,-628.46 835.64,-638.4 838.97,-628.34 831.97,-628.46"/>
<text text-anchor="middle" x="782.51" y="-510.59" font-family="Times,serif" font-size="14.00">owl:sameAs</text>
</g>
<!-- https://w3id.org/oseg/ont/otrl#exitCriteria -->
<g id="node21" class="node">
<title>https://w3id.org/oseg/ont/otrl#exitCriteria</title>
<ellipse fill="none" stroke="#e377c2" cx="1094.59" cy="-1136.56" rx="91.43" ry="16.03"/>
<text text-anchor="middle" x="1094.59" y="-1132.86" font-family="Times,serif" font-size="14.00">otrl:exitCriteria</text>
</g>
<!-- https://w3id.org/oseg/ont/otrl#exitCriteria&#45;&gt;https://w3id.org/oseg/ont/otrl#OTRL -->
<g id="edge3" class="edge">
<title>https://w3id.org/oseg/ont/otrl#exitCriteria&#45;&gt;https://w3id.org/oseg/ont/otrl#OTRL</title>
<path fill="none" stroke="black" d="M1127.76,-1151.73C1179.78,-1175.52 1280.38,-1221.51 1336.41,-1247.13"/>
<polygon fill="black" stroke="black" points="1335.12,-1250.39 1345.67,-1251.36 1338.03,-1244.02 1335.12,-1250.39"/>
<text text-anchor="middle" x="1318.09" y="-1203.23" font-family="Times,serif" font-size="14.00">schema:domainIncludes</text>
</g>
<!-- https://w3id.org/oseg/ont/otrl#exitCriteria&#45;&gt;https://w3id.org/oseg/ont/otrl#ODRL -->
<g id="edge28" class="edge">
<title>https://w3id.org/oseg/ont/otrl#exitCriteria&#45;&gt;https://w3id.org/oseg/ont/otrl#ODRL</title>
<path fill="none" stroke="black" d="M1072.44,-1120.61C1027.45,-1088.19 925.35,-1014.61 874.69,-978.11"/>
<polygon fill="black" stroke="black" points="876.6,-975.17 866.44,-972.16 872.5,-980.85 876.6,-975.17"/>
<text text-anchor="middle" x="887.57" y="-1053.16" font-family="Times,serif" font-size="14.00">schema:domainIncludes</text>
</g>
<!-- https://w3id.org/oseg/ont/otrl#exitCriteria&#45;&gt;http://schema.org/Text -->
<g id="edge22" class="edge">
<title>https://w3id.org/oseg/ont/otrl#exitCriteria&#45;&gt;http://schema.org/Text</title>
<path fill="none" stroke="black" d="M1087,-1152.82C1074.75,-1179.07 1050.51,-1231.02 1035.83,-1262.47"/>
<polygon fill="black" stroke="black" points="1032.48,-1261.36 1031.43,-1271.9 1038.83,-1264.32 1032.48,-1261.36"/>
<text text-anchor="middle" x="1040.41" y="-1211.45" font-family="Times,serif" font-size="14.00">range</text>
</g>
<!-- https://w3id.org/oseg/ont/otrl#Otrl5 -->
<g id="node23" class="node">
<title>https://w3id.org/oseg/ont/otrl#Otrl5</title>
<ellipse fill="none" stroke="black" cx="1633.64" cy="-1479.81" rx="194.41" ry="16.03"/>
<text text-anchor="middle" x="1633.64" y="-1476.11" font-family="Times,serif" font-size="14.00">https://w3id.org/oseg/ont/otrl#Otrl5</text>
</g>
<!-- https://w3id.org/oseg/ont/otrl#Otrl5&#45;&gt;https://w3id.org/oseg/ont/otrl#OTRL5 -->
<g id="edge1" class="edge">
<title>https://w3id.org/oseg/ont/otrl#Otrl5&#45;&gt;https://w3id.org/oseg/ont/otrl#OTRL5</title>
<path fill="none" stroke="black" d="M1610.91,-1463.56C1602.63,-1459.3 1592.88,-1454.74 1583.06,-1450.5"/>
<polygon fill="black" stroke="black" points="1584.23,-1447.2 1573.66,-1446.55 1581.52,-1453.65 1584.23,-1447.2"/>
<text text-anchor="middle" x="1676.98" y="-1445.83" font-family="Times,serif" font-size="14.00">schema:supersededBy</text>
</g>
<!-- https://w3id.org/oseg/ont/otrl#Otrl5&#45;&gt;https://w3id.org/oseg/ont/otrl#OTRL5 -->
<g id="edge48" class="edge">
<title>https://w3id.org/oseg/ont/otrl#Otrl5&#45;&gt;https://w3id.org/oseg/ont/otrl#OTRL5</title>
<path fill="none" stroke="black" d="M1580.47,-1464.09C1573.29,-1461.01 1566.14,-1457.75 1559.54,-1454.55"/>
<polygon fill="black" stroke="black" points="1560.85,-1451.29 1550.34,-1449.93 1557.71,-1457.55 1560.85,-1451.29"/>
<text text-anchor="middle" x="1527.5" y="-1448.12" font-family="Times,serif" font-size="14.00">owl:sameAs</text>
</g>
<!-- https://w3id.org/oseg/ont/otrl#Odrl3 -->
<g id="node24" class="node">
<title>https://w3id.org/oseg/ont/otrl#Odrl3</title>
<ellipse fill="none" stroke="black" cx="196.8" cy="-1129.07" rx="196.65" ry="16.03"/>
<text text-anchor="middle" x="196.8" y="-1125.37" font-family="Times,serif" font-size="14.00">https://w3id.org/oseg/ont/otrl#Odrl3</text>
</g>
<!-- https://w3id.org/oseg/ont/otrl#Odrl3&#45;&gt;https://w3id.org/oseg/ont/otrl#ODRL3 -->
<g id="edge8" class="edge">
<title>https://w3id.org/oseg/ont/otrl#Odrl3&#45;&gt;https://w3id.org/oseg/ont/otrl#ODRL3</title>
<path fill="none" stroke="black" d="M269.76,-1113.94C349.12,-1093.56 473.45,-1057.96 539.45,-1036.49"/>
<polygon fill="black" stroke="black" points="540.74,-1039.75 549.14,-1033.29 538.55,-1033.1 540.74,-1039.75"/>
<text text-anchor="middle" x="324.61" y="-1079.01" font-family="Times,serif" font-size="14.00">schema:supersededBy</text>
</g>
<!-- https://w3id.org/oseg/ont/otrl#Odrl3&#45;&gt;https://w3id.org/oseg/ont/otrl#ODRL3 -->
<g id="edge41" class="edge">
<title>https://w3id.org/oseg/ont/otrl#Odrl3&#45;&gt;https://w3id.org/oseg/ont/otrl#ODRL3</title>
<path fill="none" stroke="black" d="M237.06,-1113.1C304.29,-1090.99 439.94,-1052.2 520.29,-1031.87"/>
<polygon fill="black" stroke="black" points="521.44,-1035.19 530.29,-1029.37 519.74,-1028.4 521.44,-1035.19"/>
<text text-anchor="middle" x="336.17" y="-1061.28" font-family="Times,serif" font-size="14.00">owl:sameAs</text>
</g>
<!-- https://w3id.org/oseg/ont/otrl#Odrl2 -->
<g id="node25" class="node">
<title>https://w3id.org/oseg/ont/otrl#Odrl2</title>
<ellipse fill="none" stroke="black" cx="403.12" cy="-453.72" rx="196.65" ry="16.03"/>
<text text-anchor="middle" x="403.12" y="-450.02" font-family="Times,serif" font-size="14.00">https://w3id.org/oseg/ont/otrl#Odrl2</text>
</g>
<!-- https://w3id.org/oseg/ont/otrl#Odrl2&#45;&gt;https://w3id.org/oseg/ont/otrl#ODRL2 -->
<g id="edge9" class="edge">
<title>https://w3id.org/oseg/ont/otrl#Odrl2&#45;&gt;https://w3id.org/oseg/ont/otrl#ODRL2</title>
<path fill="none" stroke="black" d="M414.23,-470.27C453.11,-518.32 582.65,-657.32 639.66,-712.71"/>
<polygon fill="black" stroke="black" points="637.57,-715.55 647.21,-719.95 642.41,-710.5 637.57,-715.55"/>
<text text-anchor="middle" x="484.45" y="-595.29" font-family="Times,serif" font-size="14.00">owl:sameAs</text>
</g>
<!-- https://w3id.org/oseg/ont/otrl#Odrl2&#45;&gt;https://w3id.org/oseg/ont/otrl#ODRL2 -->
<g id="edge44" class="edge">
<title>https://w3id.org/oseg/ont/otrl#Odrl2&#45;&gt;https://w3id.org/oseg/ont/otrl#ODRL2</title>
<path fill="none" stroke="black" d="M423.46,-470.21C473.72,-517.9 602.54,-655.57 649.51,-711.67"/>
<polygon fill="black" stroke="black" points="647.01,-714.15 656.07,-719.64 652.42,-709.7 647.01,-714.15"/>
<text text-anchor="middle" x="456.48" y="-579.74" font-family="Times,serif" font-size="14.00">schema:supersededBy</text>
</g>
<!-- https://w3id.org/oseg/ont/otrl#Otrl2 -->
<g id="node26" class="node">
<title>https://w3id.org/oseg/ont/otrl#Otrl2</title>
<ellipse fill="none" stroke="black" cx="1232.67" cy="-1477.73" rx="194.41" ry="16.03"/>
<text text-anchor="middle" x="1232.67" y="-1474.03" font-family="Times,serif" font-size="14.00">https://w3id.org/oseg/ont/otrl#Otrl2</text>
</g>
<!-- https://w3id.org/oseg/ont/otrl#Otrl2&#45;&gt;https://w3id.org/oseg/ont/otrl#OTRL2 -->
<g id="edge12" class="edge">
<title>https://w3id.org/oseg/ont/otrl#Otrl2&#45;&gt;https://w3id.org/oseg/ont/otrl#OTRL2</title>
<path fill="none" stroke="black" d="M1257.01,-1461.34C1261.23,-1457.15 1265.47,-1452.57 1269.28,-1448.1"/>
<polygon fill="black" stroke="black" points="1272.04,-1450.24 1275.57,-1440.25 1266.59,-1445.86 1272.04,-1450.24"/>
<text text-anchor="middle" x="1183.15" y="-1443.52" font-family="Times,serif" font-size="14.00">schema:supersededBy</text>
</g>
<!-- https://w3id.org/oseg/ont/otrl#Otrl2&#45;&gt;https://w3id.org/oseg/ont/otrl#OTRL2 -->
<g id="edge45" class="edge">
<title>https://w3id.org/oseg/ont/otrl#Otrl2&#45;&gt;https://w3id.org/oseg/ont/otrl#OTRL2</title>
<path fill="none" stroke="black" d="M1240.05,-1461.32C1243.48,-1456.76 1247.73,-1451.75 1252.22,-1446.92"/>
<polygon fill="black" stroke="black" points="1254.92,-1449.16 1259.38,-1439.54 1249.9,-1444.28 1254.92,-1449.16"/>
<text text-anchor="middle" x="1288.63" y="-1442.92" font-family="Times,serif" font-size="14.00">owl:sameAs</text>
</g>
<!-- https://w3id.org/oseg/ont/otrl#Otrl1 -->
<g id="node27" class="node">
<title>https://w3id.org/oseg/ont/otrl#Otrl1</title>
<ellipse fill="none" stroke="black" cx="1465.76" cy="-1058.04" rx="194.41" ry="16.03"/>
<text text-anchor="middle" x="1465.76" y="-1054.34" font-family="Times,serif" font-size="14.00">https://w3id.org/oseg/ont/otrl#Otrl1</text>
</g>
<!-- https://w3id.org/oseg/ont/otrl#Otrl1&#45;&gt;https://w3id.org/oseg/ont/otrl#OTRL1 -->
<g id="edge15" class="edge">
<title>https://w3id.org/oseg/ont/otrl#Otrl1&#45;&gt;https://w3id.org/oseg/ont/otrl#OTRL1</title>
<path fill="none" stroke="black" d="M1448.67,-1074.53C1448.58,-1074.69 1448.48,-1074.85 1448.39,-1075.01"/>
<polygon fill="black" stroke="black" points="1446.09,-1071.81 1444.7,-1082.31 1452.34,-1074.97 1446.09,-1071.81"/>
<text text-anchor="middle" x="1491.03" y="-1078.57" font-family="Times,serif" font-size="14.00">owl:sameAs</text>
</g>
<!-- https://w3id.org/oseg/ont/otrl#Otrl1&#45;&gt;https://w3id.org/oseg/ont/otrl#OTRL1 -->
<g id="edge49" class="edge">
<title>https://w3id.org/oseg/ont/otrl#Otrl1&#45;&gt;https://w3id.org/oseg/ont/otrl#OTRL1</title>
<path fill="none" stroke="black" d="M1463.79,-1074.47C1463.75,-1074.56 1463.71,-1074.64 1463.67,-1074.73"/>
<polygon fill="black" stroke="black" points="1461.01,-1072.25 1459.52,-1082.74 1467.23,-1075.47 1461.01,-1072.25"/>
<text text-anchor="middle" x="1383.73" y="-1078.4" font-family="Times,serif" font-size="14.00">schema:supersededBy</text>
</g>
<!-- https://w3id.org/oseg/ont/otrl#Otrl3 -->
<g id="node28" class="node">
<title>https://w3id.org/oseg/ont/otrl#Otrl3</title>
<ellipse fill="none" stroke="black" cx="1343.21" cy="-1579.2" rx="194.41" ry="16.03"/>
<text text-anchor="middle" x="1343.21" y="-1575.5" font-family="Times,serif" font-size="14.00">https://w3id.org/oseg/ont/otrl#Otrl3</text>
</g>
<!-- https://w3id.org/oseg/ont/otrl#Otrl3&#45;&gt;https://w3id.org/oseg/ont/otrl#OTRL3 -->
<g id="edge16" class="edge">
<title>https://w3id.org/oseg/ont/otrl#Otrl3&#45;&gt;https://w3id.org/oseg/ont/otrl#OTRL3</title>
<path fill="none" stroke="black" d="M1351.37,-1562.92C1352.28,-1558.6 1352.99,-1553.82 1353.44,-1549.1"/>
<polygon fill="black" stroke="black" points="1356.93,-1549.27 1353.99,-1539.09 1349.95,-1548.88 1356.93,-1549.27"/>
<text text-anchor="middle" x="1394.9" y="-1544.81" font-family="Times,serif" font-size="14.00">owl:sameAs</text>
</g>
<!-- https://w3id.org/oseg/ont/otrl#Otrl3&#45;&gt;https://w3id.org/oseg/ont/otrl#OTRL3 -->
<g id="edge25" class="edge">
<title>https://w3id.org/oseg/ont/otrl#Otrl3&#45;&gt;https://w3id.org/oseg/ont/otrl#OTRL3</title>
<path fill="none" stroke="black" d="M1338.94,-1562.73C1338.98,-1558.36 1339.32,-1553.54 1339.92,-1548.79"/>
<polygon fill="black" stroke="black" points="1343.4,-1549.18 1341.58,-1538.74 1336.49,-1548.03 1343.4,-1549.18"/>
<text text-anchor="middle" x="1259.43" y="-1544.56" font-family="Times,serif" font-size="14.00">schema:supersededBy</text>
</g>
<!-- https://w3id.org/oseg/ont/otrl#Otrl4 -->
<g id="node29" class="node">
<title>https://w3id.org/oseg/ont/otrl#Otrl4</title>
<ellipse fill="none" stroke="black" cx="2041.69" cy="-1373.78" rx="194.41" ry="16.03"/>
<text text-anchor="middle" x="2041.69" y="-1370.08" font-family="Times,serif" font-size="14.00">https://w3id.org/oseg/ont/otrl#Otrl4</text>
</g>
<!-- https://w3id.org/oseg/ont/otrl#Otrl4&#45;&gt;https://w3id.org/oseg/ont/otrl#OTRL4 -->
<g id="edge19" class="edge">
<title>https://w3id.org/oseg/ont/otrl#Otrl4&#45;&gt;https://w3id.org/oseg/ont/otrl#OTRL4</title>
<path fill="none" stroke="black" d="M1991.86,-1358.03C1925.14,-1340.99 1806.46,-1314.92 1731.07,-1300.6"/>
<polygon fill="black" stroke="black" points="1731.66,-1297.15 1721.19,-1298.75 1730.37,-1304.03 1731.66,-1297.15"/>
<text text-anchor="middle" x="1818.97" y="-1318.12" font-family="Times,serif" font-size="14.00">owl:sameAs</text>
</g>
<!-- https://w3id.org/oseg/ont/otrl#Otrl4&#45;&gt;https://w3id.org/oseg/ont/otrl#OTRL4 -->
<g id="edge21" class="edge">
<title>https://w3id.org/oseg/ont/otrl#Otrl4&#45;&gt;https://w3id.org/oseg/ont/otrl#OTRL4</title>
<path fill="none" stroke="black" d="M1948.47,-1359.47C1873.64,-1344.65 1771.49,-1321.99 1711.49,-1306.66"/>
<polygon fill="black" stroke="black" points="1712.08,-1303.2 1701.52,-1304.08 1710.32,-1309.98 1712.08,-1303.2"/>
<text text-anchor="middle" x="1749.98" y="-1336.87" font-family="Times,serif" font-size="14.00">schema:supersededBy</text>
</g>
<!-- https://w3id.org/oseg/ont/otrl#Odrl3Star -->
<g id="node30" class="node">
<title>https://w3id.org/oseg/ont/otrl#Odrl3Star</title>
<ellipse fill="none" stroke="black" cx="718.48" cy="-1279.17" rx="218.49" ry="16.03"/>
<text text-anchor="middle" x="718.48" y="-1275.47" font-family="Times,serif" font-size="14.00">https://w3id.org/oseg/ont/otrl#Odrl3Star</text>
</g>
<!-- https://w3id.org/oseg/ont/otrl#Odrl3Star&#45;&gt;https://w3id.org/oseg/ont/otrl#ODRL3Star -->
<g id="edge20" class="edge">
<title>https://w3id.org/oseg/ont/otrl#Odrl3Star&#45;&gt;https://w3id.org/oseg/ont/otrl#ODRL3Star</title>
<path fill="none" stroke="black" d="M736.09,-1262.68C737.69,-1260.25 739.25,-1257.71 740.71,-1255.15"/>
<polygon fill="black" stroke="black" points="743.94,-1256.52 745.41,-1246.03 737.72,-1253.31 743.94,-1256.52"/>
<text text-anchor="middle" x="658.4" y="-1247.72" font-family="Times,serif" font-size="14.00">schema:supersededBy</text>
</g>
<!-- https://w3id.org/oseg/ont/otrl#Odrl3Star&#45;&gt;https://w3id.org/oseg/ont/otrl#ODRL3Star -->
<g id="edge34" class="edge">
<title>https://w3id.org/oseg/ont/otrl#Odrl3Star&#45;&gt;https://w3id.org/oseg/ont/otrl#ODRL3Star</title>
<path fill="none" stroke="black" d="M721.26,-1262.76C722.52,-1260 724.01,-1257.1 725.64,-1254.19"/>
<polygon fill="black" stroke="black" points="728.64,-1256 730.86,-1245.65 722.66,-1252.36 728.64,-1256"/>
<text text-anchor="middle" x="765.95" y="-1247.28" font-family="Times,serif" font-size="14.00">owl:sameAs</text>
</g>
<!-- https://w3id.org/oseg/ont/otrl#Odrl -->
<g id="node31" class="node">
<title>https://w3id.org/oseg/ont/otrl#Odrl</title>
<ellipse fill="none" stroke="black" cx="872.04" cy="-905.79" rx="190.42" ry="16.03"/>
<text text-anchor="middle" x="872.04" y="-902.09" font-family="Times,serif" font-size="14.00">https://w3id.org/oseg/ont/otrl#Odrl</text>
</g>
<!-- https://w3id.org/oseg/ont/otrl#Odrl&#45;&gt;https://w3id.org/oseg/ont/otrl#ODRL -->
<g id="edge23" class="edge">
<title>https://w3id.org/oseg/ont/otrl#Odrl&#45;&gt;https://w3id.org/oseg/ont/otrl#ODRL</title>
<path fill="none" stroke="black" d="M855.87,-922.26C854.2,-925.07 852.57,-928.04 851.09,-931.01"/>
<polygon fill="black" stroke="black" points="847.8,-929.78 846.9,-940.34 854.19,-932.65 847.8,-929.78"/>
<text text-anchor="middle" x="933.48" y="-930.44" font-family="Times,serif" font-size="14.00">schema:supersededBy</text>
</g>
<!-- https://w3id.org/oseg/ont/otrl#Odrl&#45;&gt;https://w3id.org/oseg/ont/otrl#ODRL -->
<g id="edge35" class="edge">
<title>https://w3id.org/oseg/ont/otrl#Odrl&#45;&gt;https://w3id.org/oseg/ont/otrl#ODRL</title>
<path fill="none" stroke="black" d="M870.16,-922.28C868.94,-925.37 867.45,-928.66 865.8,-931.93"/>
<polygon fill="black" stroke="black" points="862.6,-930.5 860.83,-940.95 868.72,-933.88 862.6,-930.5"/>
<text text-anchor="middle" x="825.48" y="-930.91" font-family="Times,serif" font-size="14.00">owl:sameAs</text>
</g>
<!-- https://w3id.org/oseg/ont/otrl#Otrl -->
<g id="node32" class="node">
<title>https://w3id.org/oseg/ont/otrl#Otrl</title>
<ellipse fill="none" stroke="black" cx="1704.59" cy="-1526.16" rx="188.18" ry="16.03"/>
<text text-anchor="middle" x="1704.59" y="-1522.46" font-family="Times,serif" font-size="14.00">https://w3id.org/oseg/ont/otrl#Otrl</text>
</g>
<!-- https://w3id.org/oseg/ont/otrl#Otrl&#45;&gt;https://w3id.org/oseg/ont/otrl#OTRL -->
<g id="edge26" class="edge">
<title>https://w3id.org/oseg/ont/otrl#Otrl&#45;&gt;https://w3id.org/oseg/ont/otrl#OTRL</title>
<path fill="none" stroke="black" d="M1688.99,-1509.59C1638.47,-1463.9 1479.21,-1336.98 1409.6,-1286.47"/>
<polygon fill="black" stroke="black" points="1411.34,-1283.41 1401.18,-1280.42 1407.26,-1289.1 1411.34,-1283.41"/>
<text text-anchor="middle" x="1469.3" y="-1386.83" font-family="Times,serif" font-size="14.00">schema:supersededBy</text>
</g>
<!-- https://w3id.org/oseg/ont/otrl#Otrl&#45;&gt;https://w3id.org/oseg/ont/otrl#OTRL -->
<g id="edge40" class="edge">
<title>https://w3id.org/oseg/ont/otrl#Otrl&#45;&gt;https://w3id.org/oseg/ont/otrl#OTRL</title>
<path fill="none" stroke="black" d="M1678.15,-1509.92C1615.18,-1464.99 1457.55,-1339.74 1398.92,-1288.08"/>
<polygon fill="black" stroke="black" points="1401.11,-1285.34 1391.33,-1281.29 1396.45,-1290.56 1401.11,-1285.34"/>
<text text-anchor="middle" x="1496.03" y="-1402.8" font-family="Times,serif" font-size="14.00">owl:sameAs</text>
</g>
<!-- https://w3id.org/oseg/ont/otrl#Odrl1 -->
<g id="node33" class="node">
<title>https://w3id.org/oseg/ont/otrl#Odrl1</title>
<ellipse fill="none" stroke="black" cx="200.78" cy="-757.46" rx="196.65" ry="16.03"/>
<text text-anchor="middle" x="200.78" y="-753.76" font-family="Times,serif" font-size="14.00">https://w3id.org/oseg/ont/otrl#Odrl1</text>
</g>
<!-- https://w3id.org/oseg/ont/otrl#Odrl1&#45;&gt;https://w3id.org/oseg/ont/otrl#ODRL1 -->
<g id="edge31" class="edge">
<title>https://w3id.org/oseg/ont/otrl#Odrl1&#45;&gt;https://w3id.org/oseg/ont/otrl#ODRL1</title>
<path fill="none" stroke="black" d="M240.94,-773.44C308.02,-795.56 443.37,-834.36 523.56,-854.7"/>
<polygon fill="black" stroke="black" points="522.98,-858.16 533.53,-857.2 524.69,-851.37 522.98,-858.16"/>
<text text-anchor="middle" x="302.25" y="-817.87" font-family="Times,serif" font-size="14.00">schema:supersededBy</text>
</g>
<!-- https://w3id.org/oseg/ont/otrl#Odrl1&#45;&gt;https://w3id.org/oseg/ont/otrl#ODRL1 -->
<g id="edge43" class="edge">
<title>https://w3id.org/oseg/ont/otrl#Odrl1&#45;&gt;https://w3id.org/oseg/ont/otrl#ODRL1</title>
<path fill="none" stroke="black" d="M273.58,-772.6C352.77,-793 476.83,-828.61 542.69,-850.09"/>
<polygon fill="black" stroke="black" points="541.76,-853.47 552.36,-853.28 543.96,-846.82 541.76,-853.47"/>
<text text-anchor="middle" x="365.63" y="-800.15" font-family="Times,serif" font-size="14.00">owl:sameAs</text>
</g>
<!-- https://w3id.org/oseg/ont/otrl#Otrl6 -->
<g id="node34" class="node">
<title>https://w3id.org/oseg/ont/otrl#Otrl6</title>
<ellipse fill="none" stroke="black" cx="1987.26" cy="-977.82" rx="194.41" ry="16.03"/>
<text text-anchor="middle" x="1987.26" y="-974.12" font-family="Times,serif" font-size="14.00">https://w3id.org/oseg/ont/otrl#Otrl6</text>
</g>
<!-- https://w3id.org/oseg/ont/otrl#Otrl6&#45;&gt;https://w3id.org/oseg/ont/otrl#OTRL6 -->
<g id="edge32" class="edge">
<title>https://w3id.org/oseg/ont/otrl#Otrl6&#45;&gt;https://w3id.org/oseg/ont/otrl#OTRL6</title>
<path fill="none" stroke="black" d="M1940.96,-993.62C1869.37,-1022.81 1733.53,-1084.38 1670.54,-1116.33"/>
<polygon fill="black" stroke="black" points="1668.73,-1113.33 1661.43,-1121.01 1671.93,-1119.56 1668.73,-1113.33"/>
<text text-anchor="middle" x="1885.75" y="-1043.78" font-family="Times,serif" font-size="14.00">schema:supersededBy</text>
</g>
<!-- https://w3id.org/oseg/ont/otrl#Otrl6&#45;&gt;https://w3id.org/oseg/ont/otrl#OTRL6 -->
<g id="edge47" class="edge">
<title>https://w3id.org/oseg/ont/otrl#Otrl6&#45;&gt;https://w3id.org/oseg/ont/otrl#OTRL6</title>
<path fill="none" stroke="black" d="M1960.78,-994.05C1902.27,-1024.34 1761.34,-1088.39 1686.13,-1119.23"/>
<polygon fill="black" stroke="black" points="1684.8,-1115.99 1676.85,-1122.99 1687.43,-1122.47 1684.8,-1115.99"/>
<text text-anchor="middle" x="1780.95" y="-1060.44" font-family="Times,serif" font-size="14.00">owl:sameAs</text>
</g>
<!-- https://w3id.org/oseg/ont/otrl#Odrl5 -->
<g id="node35" class="node">
<title>https://w3id.org/oseg/ont/otrl#Odrl5</title>
<ellipse fill="none" stroke="black" cx="760.63" cy="-16.73" rx="196.65" ry="16.03"/>
<text text-anchor="middle" x="760.63" y="-13.03" font-family="Times,serif" font-size="14.00">https://w3id.org/oseg/ont/otrl#Odrl5</text>
</g>
<!-- https://w3id.org/oseg/ont/otrl#Odrl5&#45;&gt;https://w3id.org/oseg/ont/otrl#Odrl4 -->
<g id="edge39" class="edge">
<title>https://w3id.org/oseg/ont/otrl#Odrl5&#45;&gt;https://w3id.org/oseg/ont/otrl#Odrl4</title>
<path fill="none" stroke="black" d="M759.77,-33.04C762.49,-92.64 788.58,-299.02 802.36,-372.65"/>
<polygon fill="black" stroke="black" points="798.94,-373.38 804.3,-382.52 805.81,-372.03 798.94,-373.38"/>
<text text-anchor="middle" x="701.07" y="-206.64" font-family="Times,serif" font-size="14.00">schema:supersededBy</text>
</g>
<!-- https://w3id.org/oseg/ont/otrl#Odrl5&#45;&gt;https://w3id.org/oseg/ont/otrl#Odrl4 -->
<g id="edge42" class="edge">
<title>https://w3id.org/oseg/ont/otrl#Odrl5&#45;&gt;https://w3id.org/oseg/ont/otrl#Odrl4</title>
<path fill="none" stroke="black" d="M765.76,-33.27C778.2,-93 804.57,-297.9 809.65,-372"/>
<polygon fill="black" stroke="black" points="806.18,-372.56 810.26,-382.34 813.17,-372.15 806.18,-372.56"/>
<text text-anchor="middle" x="745.2" y="-191.43" font-family="Times,serif" font-size="14.00">owl:sameAs</text>
</g>
</g>
</svg>
