<?xml version="1.0" encoding="UTF-8" standalone="no"?>
<!DOCTYPE svg PUBLIC "-//W3C//DTD SVG 1.1//EN"
 "http://www.w3.org/Graphics/SVG/1.1/DTD/svg11.dtd">
<!-- Generated by graphviz version 2.43.0 (0)
 -->
<!-- Title: G Pages: 1 -->
<svg width="632pt" height="995pt"
 viewBox="0.00 0.00 631.63 995.20" xmlns="http://www.w3.org/2000/svg" xmlns:xlink="http://www.w3.org/1999/xlink">
<g id="graph0" class="graph" transform="scale(1 1) rotate(0) translate(4 991.2)">
<title>G</title>
<polygon fill="white" stroke="transparent" points="-4,4 -4,-991.2 627.63,-991.2 627.63,4 -4,4"/>
<!-- http://purl.org/oseg/ontologies/OTRL#ODRL -->
<g id="node1" class="node">
<title>http://purl.org/oseg/ontologies/OTRL#ODRL</title>
<ellipse fill="none" stroke="#e377c2" cx="566.36" cy="-559.94" rx="41.94" ry="16.03"/>
<text text-anchor="middle" x="566.36" y="-556.24" font-family="Times,serif" font-size="14.00">ODRL</text>
</g>
<!-- http://www.w3.org/2002/07/owl#Ontology -->
<g id="node2" class="node">
<title>http://www.w3.org/2002/07/owl#Ontology</title>
<ellipse fill="none" stroke="#1f77b4" cx="341.04" cy="-721.94" rx="77.56" ry="16.03"/>
<text text-anchor="middle" x="341.04" y="-718.24" font-family="Times,serif" font-size="14.00">owl:Ontology</text>
</g>
<!-- http://www.w3.org/2002/07/owl#DatatypeProperty -->
<g id="node3" class="node">
<title>http://www.w3.org/2002/07/owl#DatatypeProperty</title>
<ellipse fill="none" stroke="#1f77b4" cx="341.04" cy="-879.94" rx="123.07" ry="16.03"/>
<text text-anchor="middle" x="341.04" y="-876.24" font-family="Times,serif" font-size="14.00">owl:DatatypeProperty</text>
</g>
<!-- http://www.w3.org/2002/07/owl#class -->
<g id="node4" class="node">
<title>http://www.w3.org/2002/07/owl#class</title>
<ellipse fill="none" stroke="#1f77b4" cx="566.36" cy="-336.94" rx="57.05" ry="16.03"/>
<text text-anchor="middle" x="566.36" y="-333.24" font-family="Times,serif" font-size="14.00">owl:class</text>
</g>
<!-- http://purl.org/oseg/ontologies/OTRL#OTRL -->
<g id="node5" class="node">
<title>http://purl.org/oseg/ontologies/OTRL#OTRL</title>
<ellipse fill="none" stroke="#e377c2" cx="341.04" cy="-183.94" rx="39.7" ry="16.03"/>
<text text-anchor="middle" x="341.04" y="-180.24" font-family="Times,serif" font-size="14.00">OTRL</text>
</g>
<!-- http://purl.org/oseg/ontologies/OTRL#OTRL&#45;&gt;http://www.w3.org/2002/07/owl#class -->
<g id="edge16" class="edge">
<title>http://purl.org/oseg/ontologies/OTRL#OTRL&#45;&gt;http://www.w3.org/2002/07/owl#class</title>
<path fill="none" stroke="black" d="M380.25,-181.06C412.51,-180.56 458.51,-184.54 491.08,-206.94 527.29,-231.84 548.07,-280.55 558,-310.76"/>
<polygon fill="black" stroke="black" points="554.76,-312.1 561.07,-320.6 561.44,-310.02 554.76,-312.1"/>
<text text-anchor="middle" x="486.58" y="-210.74" font-family="Times,serif" font-size="14.00">a</text>
</g>
<!-- http://purl.org/oseg/ontologies/OTRL -->
<g id="node6" class="node">
<title>http://purl.org/oseg/ontologies/OTRL</title>
<ellipse fill="none" stroke="#e377c2" cx="70" cy="-721.94" rx="60.62" ry="16.03"/>
<text text-anchor="middle" x="70" y="-718.24" font-family="Times,serif" font-size="14.00">ns1:OTRL</text>
</g>
<!-- http://purl.org/oseg/ontologies/OTRL&#45;&gt;http://www.w3.org/2002/07/owl#Ontology -->
<g id="edge11" class="edge">
<title>http://purl.org/oseg/ontologies/OTRL&#45;&gt;http://www.w3.org/2002/07/owl#Ontology</title>
<path fill="none" stroke="black" d="M131.05,-721.94C166.88,-721.94 213,-721.94 252.8,-721.94"/>
<polygon fill="black" stroke="black" points="253.04,-725.44 263.04,-721.94 253.04,-718.44 253.04,-725.44"/>
<text text-anchor="middle" x="179.01" y="-725.74" font-family="Times,serif" font-size="14.00">a</text>
</g>
<!-- http://purl.org/oseg/ontologies/OTRL&#45;&gt;http://purl.org/oseg/ontologies/OTRL -->
<g id="edge2" class="edge">
<title>http://purl.org/oseg/ontologies/OTRL&#45;&gt;http://purl.org/oseg/ontologies/OTRL</title>
<path fill="none" stroke="black" d="M51.18,-737.44C46.64,-747.05 52.92,-756.2 70,-756.2 80.68,-756.2 87.14,-752.63 89.37,-747.6"/>
<polygon fill="black" stroke="black" points="92.85,-747.24 88.82,-737.44 85.86,-747.61 92.85,-747.24"/>
<text text-anchor="middle" x="70" y="-760" font-family="Times,serif" font-size="14.00">owl:versionIRI</text>
</g>
<!-- http://purl.org/oseg/ontologies/OTRL#Odrl3Star -->
<g id="node7" class="node">
<title>http://purl.org/oseg/ontologies/OTRL#Odrl3Star</title>
<ellipse fill="none" stroke="#e377c2" cx="341.04" cy="-670.94" rx="62.45" ry="16.03"/>
<text text-anchor="middle" x="341.04" y="-667.24" font-family="Times,serif" font-size="14.00">Odrl3Star</text>
</g>
<!-- http://purl.org/oseg/ontologies/OTRL#Odrl3Star&#45;&gt;http://purl.org/oseg/ontologies/OTRL#ODRL -->
<g id="edge25" class="edge">
<title>http://purl.org/oseg/ontologies/OTRL#Odrl3Star&#45;&gt;http://purl.org/oseg/ontologies/OTRL#ODRL</title>
<path fill="none" stroke="black" d="M386.79,-681.97C417.88,-687.18 459.28,-689.01 491.08,-671.94 524.8,-653.84 545.81,-612.94 556.54,-585.9"/>
<polygon fill="black" stroke="black" points="559.91,-586.88 560.16,-576.29 553.36,-584.42 559.91,-586.88"/>
</g>
<!-- http://purl.org/oseg/ontologies/OTRL#Odrl3Star&#45;&gt;http://www.w3.org/2002/07/owl#class -->
<g id="edge1" class="edge">
<title>http://purl.org/oseg/ontologies/OTRL#Odrl3Star&#45;&gt;http://www.w3.org/2002/07/owl#class</title>
<path fill="none" stroke="black" d="M399.05,-664.81C421.38,-659.98 445.93,-651.34 464.08,-635.94 485.74,-617.55 538.76,-432.78 558.12,-363.23"/>
<polygon fill="black" stroke="black" points="561.53,-364.04 560.83,-353.47 554.78,-362.17 561.53,-364.04"/>
<text text-anchor="middle" x="486.58" y="-606.74" font-family="Times,serif" font-size="14.00">a</text>
</g>
<!-- http://purl.org/oseg/ontologies/OTRL#Otrl6 -->
<g id="node8" class="node">
<title>http://purl.org/oseg/ontologies/OTRL#Otrl6</title>
<ellipse fill="none" stroke="#e377c2" cx="70" cy="-374.94" rx="38.37" ry="16.03"/>
<text text-anchor="middle" x="70" y="-371.24" font-family="Times,serif" font-size="14.00">Otrl6</text>
</g>
<!-- http://purl.org/oseg/ontologies/OTRL#Otrl6&#45;&gt;http://www.w3.org/2002/07/owl#class -->
<g id="edge12" class="edge">
<title>http://purl.org/oseg/ontologies/OTRL#Otrl6&#45;&gt;http://www.w3.org/2002/07/owl#class</title>
<path fill="none" stroke="black" d="M108.26,-374.8C178.23,-374.19 333.95,-371.06 464.08,-355.94 479.17,-354.18 495.39,-351.5 510.33,-348.7"/>
<polygon fill="black" stroke="black" points="511.28,-352.08 520.44,-346.76 509.96,-345.21 511.28,-352.08"/>
<text text-anchor="middle" x="341.04" y="-376.74" font-family="Times,serif" font-size="14.00">a</text>
</g>
<!-- http://purl.org/oseg/ontologies/OTRL#Otrl6&#45;&gt;http://purl.org/oseg/ontologies/OTRL#OTRL -->
<g id="edge24" class="edge">
<title>http://purl.org/oseg/ontologies/OTRL#Otrl6&#45;&gt;http://purl.org/oseg/ontologies/OTRL#OTRL</title>
<path fill="none" stroke="black" d="M91.73,-361.41C106.04,-351.59 125.1,-337.51 140.01,-322.94 170.78,-292.85 176.29,-282.84 200.01,-246.94 209.22,-233 204.77,-224.13 218.01,-213.94 238.88,-197.86 267.21,-190.28 291.32,-186.75"/>
<polygon fill="black" stroke="black" points="291.89,-190.21 301.37,-185.47 291,-183.26 291.89,-190.21"/>
</g>
<!-- http://purl.org/oseg/ontologies/OTRL#Odrl4 -->
<g id="node9" class="node">
<title>http://purl.org/oseg/ontologies/OTRL#Odrl4</title>
<ellipse fill="none" stroke="#e377c2" cx="341.04" cy="-610.94" rx="40.11" ry="16.03"/>
<text text-anchor="middle" x="341.04" y="-607.24" font-family="Times,serif" font-size="14.00">Odrl4</text>
</g>
<!-- http://purl.org/oseg/ontologies/OTRL#Odrl4&#45;&gt;http://purl.org/oseg/ontologies/OTRL#ODRL -->
<g id="edge13" class="edge">
<title>http://purl.org/oseg/ontologies/OTRL#Odrl4&#45;&gt;http://purl.org/oseg/ontologies/OTRL#ODRL</title>
<path fill="none" stroke="black" d="M379.38,-616.15C410.08,-619.09 454.35,-620.23 491.08,-608.94 509.3,-603.33 527.21,-591.75 540.88,-581.25"/>
<polygon fill="black" stroke="black" points="543.18,-583.89 548.81,-574.92 538.81,-578.42 543.18,-583.89"/>
</g>
<!-- http://purl.org/oseg/ontologies/OTRL#Odrl4&#45;&gt;http://www.w3.org/2002/07/owl#class -->
<g id="edge14" class="edge">
<title>http://purl.org/oseg/ontologies/OTRL#Odrl4&#45;&gt;http://www.w3.org/2002/07/owl#class</title>
<path fill="none" stroke="black" d="M381.22,-609.25C407.35,-606.23 441,-598.46 464.08,-578.94 531.13,-522.21 554.64,-413.62 562.15,-363.49"/>
<polygon fill="black" stroke="black" points="565.64,-363.84 563.56,-353.45 558.7,-362.87 565.64,-363.84"/>
<text text-anchor="middle" x="486.58" y="-563.74" font-family="Times,serif" font-size="14.00">a</text>
</g>
<!-- http://schema.org/Text -->
<g id="node10" class="node">
<title>http://schema.org/Text</title>
<ellipse fill="none" stroke="#e377c2" cx="341.04" cy="-799.94" rx="74.91" ry="16.03"/>
<text text-anchor="middle" x="341.04" y="-796.24" font-family="Times,serif" font-size="14.00">schema:Text</text>
</g>
<!-- http://purl.org/oseg/ontologies/OTRL#Odrl -->
<g id="node11" class="node">
<title>http://purl.org/oseg/ontologies/OTRL#Odrl</title>
<ellipse fill="none" stroke="#e377c2" cx="341.04" cy="-284.94" rx="33.88" ry="16.03"/>
<text text-anchor="middle" x="341.04" y="-281.24" font-family="Times,serif" font-size="14.00">Odrl</text>
</g>
<!-- http://purl.org/oseg/ontologies/OTRL#Odrl&#45;&gt;http://www.w3.org/2002/07/owl#class -->
<g id="edge19" class="edge">
<title>http://purl.org/oseg/ontologies/OTRL#Odrl&#45;&gt;http://www.w3.org/2002/07/owl#class</title>
<path fill="none" stroke="black" d="M374.45,-287.87C404.92,-291.11 451.64,-297.33 491.08,-307.94 502.45,-310.99 514.47,-315.22 525.45,-319.51"/>
<polygon fill="black" stroke="black" points="524.2,-322.78 534.78,-323.26 526.81,-316.28 524.2,-322.78"/>
<text text-anchor="middle" x="486.58" y="-311.74" font-family="Times,serif" font-size="14.00">a</text>
</g>
<!-- http://www.w3.org/1999/02/22&#45;rdf&#45;syntax&#45;ns#nil -->
<g id="node12" class="node">
<title>http://www.w3.org/1999/02/22&#45;rdf&#45;syntax&#45;ns#nil</title>
<ellipse fill="none" stroke="#e377c2" cx="70" cy="-919.94" rx="42.35" ry="16.03"/>
<text text-anchor="middle" x="70" y="-916.24" font-family="Times,serif" font-size="14.00">rdf:nil</text>
</g>
<!-- http://purl.org/oseg/ontologies/OTRL#Otrl -->
<g id="node13" class="node">
<title>http://purl.org/oseg/ontologies/OTRL#Otrl</title>
<ellipse fill="none" stroke="#e377c2" cx="70" cy="-970.94" rx="31.64" ry="16.03"/>
<text text-anchor="middle" x="70" y="-967.24" font-family="Times,serif" font-size="14.00">Otrl</text>
</g>
<!-- http://purl.org/oseg/ontologies/OTRL#Otrl3 -->
<g id="node14" class="node">
<title>http://purl.org/oseg/ontologies/OTRL#Otrl3</title>
<ellipse fill="none" stroke="#e377c2" cx="70" cy="-297.94" rx="38.37" ry="16.03"/>
<text text-anchor="middle" x="70" y="-294.24" font-family="Times,serif" font-size="14.00">Otrl3</text>
</g>
<!-- http://purl.org/oseg/ontologies/OTRL#Otrl3&#45;&gt;http://www.w3.org/2002/07/owl#class -->
<g id="edge6" class="edge">
<title>http://purl.org/oseg/ontologies/OTRL#Otrl3&#45;&gt;http://www.w3.org/2002/07/owl#class</title>
<path fill="none" stroke="black" d="M107.55,-300.96C137.29,-303.41 180.36,-306.94 218.01,-309.94 316.51,-317.78 430.74,-326.61 500.52,-331.97"/>
<polygon fill="black" stroke="black" points="500.67,-335.49 510.9,-332.77 501.2,-328.51 500.67,-335.49"/>
<text text-anchor="middle" x="341.04" y="-333.74" font-family="Times,serif" font-size="14.00">a</text>
</g>
<!-- http://purl.org/oseg/ontologies/OTRL#Otrl3&#45;&gt;http://purl.org/oseg/ontologies/OTRL#OTRL -->
<g id="edge28" class="edge">
<title>http://purl.org/oseg/ontologies/OTRL#Otrl3&#45;&gt;http://purl.org/oseg/ontologies/OTRL#OTRL</title>
<path fill="none" stroke="black" d="M91.02,-284.08C118.5,-265.64 169.97,-233.13 218.01,-213.94 242.45,-204.17 270.96,-196.95 294.27,-192.04"/>
<polygon fill="black" stroke="black" points="295.15,-195.43 304.25,-190.01 293.75,-188.57 295.15,-195.43"/>
</g>
<!-- http://purl.org/oseg/ontologies/OTRL#Odrl1 -->
<g id="node15" class="node">
<title>http://purl.org/oseg/ontologies/OTRL#Odrl1</title>
<ellipse fill="none" stroke="#e377c2" cx="341.04" cy="-553.94" rx="40.11" ry="16.03"/>
<text text-anchor="middle" x="341.04" y="-550.24" font-family="Times,serif" font-size="14.00">Odrl1</text>
</g>
<!-- http://purl.org/oseg/ontologies/OTRL#Odrl1&#45;&gt;http://purl.org/oseg/ontologies/OTRL#ODRL -->
<g id="edge10" class="edge">
<title>http://purl.org/oseg/ontologies/OTRL#Odrl1&#45;&gt;http://purl.org/oseg/ontologies/OTRL#ODRL</title>
<path fill="none" stroke="black" d="M381.45,-555C418.43,-555.99 473.93,-557.48 514.28,-558.56"/>
<polygon fill="black" stroke="black" points="514.36,-562.07 524.45,-558.84 514.55,-555.07 514.36,-562.07"/>
</g>
<!-- http://purl.org/oseg/ontologies/OTRL#Odrl1&#45;&gt;http://www.w3.org/2002/07/owl#class -->
<g id="edge18" class="edge">
<title>http://purl.org/oseg/ontologies/OTRL#Odrl1&#45;&gt;http://www.w3.org/2002/07/owl#class</title>
<path fill="none" stroke="black" d="M380.74,-550.54C406.66,-546.54 440.26,-537.85 464.08,-518.94 515.81,-477.86 545.28,-402.73 557.92,-363.07"/>
<polygon fill="black" stroke="black" points="561.32,-363.92 560.91,-353.33 554.63,-361.86 561.32,-363.92"/>
<text text-anchor="middle" x="486.58" y="-503.74" font-family="Times,serif" font-size="14.00">a</text>
</g>
<!-- http://purl.org/oseg/ontologies/OTRL#Odrl2 -->
<g id="node16" class="node">
<title>http://purl.org/oseg/ontologies/OTRL#Odrl2</title>
<ellipse fill="none" stroke="#e377c2" cx="341.04" cy="-493.94" rx="40.11" ry="16.03"/>
<text text-anchor="middle" x="341.04" y="-490.24" font-family="Times,serif" font-size="14.00">Odrl2</text>
</g>
<!-- http://purl.org/oseg/ontologies/OTRL#Odrl2&#45;&gt;http://purl.org/oseg/ontologies/OTRL#ODRL -->
<g id="edge20" class="edge">
<title>http://purl.org/oseg/ontologies/OTRL#Odrl2&#45;&gt;http://purl.org/oseg/ontologies/OTRL#ODRL</title>
<path fill="none" stroke="black" d="M381.47,-493.47C412.19,-494.28 455.47,-498 491.08,-510.94 508.76,-517.36 526.42,-528.75 540.08,-538.94"/>
<polygon fill="black" stroke="black" points="537.98,-541.74 548.04,-545.07 542.25,-536.19 537.98,-541.74"/>
</g>
<!-- http://purl.org/oseg/ontologies/OTRL#Odrl2&#45;&gt;http://www.w3.org/2002/07/owl#class -->
<g id="edge21" class="edge">
<title>http://purl.org/oseg/ontologies/OTRL#Odrl2&#45;&gt;http://www.w3.org/2002/07/owl#class</title>
<path fill="none" stroke="black" d="M380.29,-490.17C405.69,-486.23 438.87,-478.21 464.08,-461.94 503.51,-436.49 534.8,-390.61 551.66,-362.07"/>
<polygon fill="black" stroke="black" points="554.86,-363.52 556.81,-353.11 548.79,-360.03 554.86,-363.52"/>
<text text-anchor="middle" x="486.58" y="-450.74" font-family="Times,serif" font-size="14.00">a</text>
</g>
<!-- http://purl.org/oseg/ontologies/OTRL#Otrl4 -->
<g id="node17" class="node">
<title>http://purl.org/oseg/ontologies/OTRL#Otrl4</title>
<ellipse fill="none" stroke="#e377c2" cx="70" cy="-206.94" rx="38.37" ry="16.03"/>
<text text-anchor="middle" x="70" y="-203.24" font-family="Times,serif" font-size="14.00">Otrl4</text>
</g>
<!-- http://purl.org/oseg/ontologies/OTRL#Otrl4&#45;&gt;http://www.w3.org/2002/07/owl#class -->
<g id="edge23" class="edge">
<title>http://purl.org/oseg/ontologies/OTRL#Otrl4&#45;&gt;http://www.w3.org/2002/07/owl#class</title>
<path fill="none" stroke="black" d="M108.1,-209.19C199.79,-214.94 431.99,-230.73 464.08,-244.94 498.17,-260.03 528.53,-291.2 546.91,-313.06"/>
<polygon fill="black" stroke="black" points="544.31,-315.41 553.36,-320.92 549.73,-310.97 544.31,-315.41"/>
<text text-anchor="middle" x="341.04" y="-248.74" font-family="Times,serif" font-size="14.00">a</text>
</g>
<!-- http://purl.org/oseg/ontologies/OTRL#Otrl4&#45;&gt;http://purl.org/oseg/ontologies/OTRL#OTRL -->
<g id="edge22" class="edge">
<title>http://purl.org/oseg/ontologies/OTRL#Otrl4&#45;&gt;http://purl.org/oseg/ontologies/OTRL#OTRL</title>
<path fill="none" stroke="black" d="M107.57,-203.81C155.25,-199.73 238.79,-192.59 291.67,-188.07"/>
<polygon fill="black" stroke="black" points="292.16,-191.54 301.82,-187.2 291.56,-184.57 292.16,-191.54"/>
</g>
<!-- http://purl.org/oseg/ontologies/OTRL#Otrl2 -->
<g id="node18" class="node">
<title>http://purl.org/oseg/ontologies/OTRL#Otrl2</title>
<ellipse fill="none" stroke="#e377c2" cx="70" cy="-144.94" rx="38.37" ry="16.03"/>
<text text-anchor="middle" x="70" y="-141.24" font-family="Times,serif" font-size="14.00">Otrl2</text>
</g>
<!-- http://purl.org/oseg/ontologies/OTRL#Otrl2&#45;&gt;http://www.w3.org/2002/07/owl#class -->
<g id="edge26" class="edge">
<title>http://purl.org/oseg/ontologies/OTRL#Otrl2&#45;&gt;http://www.w3.org/2002/07/owl#class</title>
<path fill="none" stroke="black" d="M100.86,-135.15C170.45,-114.26 346.41,-72.79 464.08,-143.94 524.81,-180.65 550.91,-267.15 560.53,-310.79"/>
<polygon fill="black" stroke="black" points="557.12,-311.58 562.58,-320.65 563.97,-310.15 557.12,-311.58"/>
<text text-anchor="middle" x="341.04" y="-147.74" font-family="Times,serif" font-size="14.00">a</text>
</g>
<!-- http://purl.org/oseg/ontologies/OTRL#Otrl2&#45;&gt;http://purl.org/oseg/ontologies/OTRL#OTRL -->
<g id="edge3" class="edge">
<title>http://purl.org/oseg/ontologies/OTRL#Otrl2&#45;&gt;http://purl.org/oseg/ontologies/OTRL#OTRL</title>
<path fill="none" stroke="black" d="M106.45,-150.08C154.34,-157.02 239.82,-169.41 293.03,-177.12"/>
<polygon fill="black" stroke="black" points="292.82,-180.63 303.22,-178.6 293.83,-173.7 292.82,-180.63"/>
</g>
<!-- http://purl.org/oseg/ontologies/OTRL#exitCriteria -->
<g id="node19" class="node">
<title>http://purl.org/oseg/ontologies/OTRL#exitCriteria</title>
<ellipse fill="none" stroke="#e377c2" cx="70" cy="-868.94" rx="70.01" ry="16.03"/>
<text text-anchor="middle" x="70" y="-865.24" font-family="Times,serif" font-size="14.00">exitCriteria</text>
</g>
<!-- http://purl.org/oseg/ontologies/OTRL#exitCriteria&#45;&gt;http://www.w3.org/2002/07/owl#DatatypeProperty -->
<g id="edge7" class="edge">
<title>http://purl.org/oseg/ontologies/OTRL#exitCriteria&#45;&gt;http://www.w3.org/2002/07/owl#DatatypeProperty</title>
<path fill="none" stroke="black" d="M139.24,-871.73C161.78,-872.65 187.63,-873.7 213.11,-874.75"/>
<polygon fill="black" stroke="black" points="213.1,-878.25 223.23,-875.16 213.39,-871.25 213.1,-878.25"/>
<text text-anchor="middle" x="179.01" y="-877.74" font-family="Times,serif" font-size="14.00">a</text>
</g>
<!-- http://purl.org/oseg/ontologies/OTRL#exitCriteria&#45;&gt;http://schema.org/Text -->
<g id="edge17" class="edge">
<title>http://purl.org/oseg/ontologies/OTRL#exitCriteria&#45;&gt;http://schema.org/Text</title>
<path fill="none" stroke="black" d="M117.56,-857C163.15,-845.3 232.74,-827.46 281.93,-814.84"/>
<polygon fill="black" stroke="black" points="282.97,-818.19 291.79,-812.31 281.24,-811.41 282.97,-818.19"/>
<text text-anchor="middle" x="179.01" y="-849.74" font-family="Times,serif" font-size="14.00">range</text>
</g>
<!-- http://purl.org/oseg/ontologies/OTRL#Otrl1 -->
<g id="node20" class="node">
<title>http://purl.org/oseg/ontologies/OTRL#Otrl1</title>
<ellipse fill="none" stroke="#e377c2" cx="70" cy="-83.94" rx="38.37" ry="16.03"/>
<text text-anchor="middle" x="70" y="-80.24" font-family="Times,serif" font-size="14.00">Otrl1</text>
</g>
<!-- http://purl.org/oseg/ontologies/OTRL#Otrl1&#45;&gt;http://www.w3.org/2002/07/owl#class -->
<g id="edge8" class="edge">
<title>http://purl.org/oseg/ontologies/OTRL#Otrl1&#45;&gt;http://www.w3.org/2002/07/owl#class</title>
<path fill="none" stroke="black" d="M106.57,-79.23C192.13,-68.68 406.62,-46.95 464.08,-85.94 540.29,-137.65 559.17,-257.31 563.83,-310.56"/>
<polygon fill="black" stroke="black" points="560.35,-310.87 564.61,-320.57 567.33,-310.33 560.35,-310.87"/>
<text text-anchor="middle" x="341.04" y="-89.74" font-family="Times,serif" font-size="14.00">a</text>
</g>
<!-- http://purl.org/oseg/ontologies/OTRL#Otrl1&#45;&gt;http://purl.org/oseg/ontologies/OTRL#OTRL -->
<g id="edge4" class="edge">
<title>http://purl.org/oseg/ontologies/OTRL#Otrl1&#45;&gt;http://purl.org/oseg/ontologies/OTRL#OTRL</title>
<path fill="none" stroke="black" d="M95.26,-96.23C130.4,-113.91 193.91,-145.34 218.01,-153.94 242.89,-162.81 271.53,-170.01 294.82,-175.12"/>
<polygon fill="black" stroke="black" points="294.26,-178.58 304.77,-177.25 295.73,-171.73 294.26,-178.58"/>
</g>
<!-- http://purl.org/oseg/ontologies/OTRL#goal -->
<g id="node21" class="node">
<title>http://purl.org/oseg/ontologies/OTRL#goal</title>
<ellipse fill="none" stroke="#e377c2" cx="70" cy="-805.94" rx="33.47" ry="16.03"/>
<text text-anchor="middle" x="70" y="-802.24" font-family="Times,serif" font-size="14.00">goal</text>
</g>
<!-- http://purl.org/oseg/ontologies/OTRL#goal&#45;&gt;http://www.w3.org/2002/07/owl#DatatypeProperty -->
<g id="edge9" class="edge">
<title>http://purl.org/oseg/ontologies/OTRL#goal&#45;&gt;http://www.w3.org/2002/07/owl#DatatypeProperty</title>
<path fill="none" stroke="black" d="M103.32,-805.7C129.72,-806.21 167.81,-808.58 200.01,-816.94 200.65,-817.1 255.22,-841.68 296.03,-860.09"/>
<polygon fill="black" stroke="black" points="294.73,-863.34 305.29,-864.26 297.61,-856.96 294.73,-863.34"/>
<text text-anchor="middle" x="179.01" y="-820.74" font-family="Times,serif" font-size="14.00">a</text>
</g>
<!-- http://purl.org/oseg/ontologies/OTRL#goal&#45;&gt;http://schema.org/Text -->
<g id="edge15" class="edge">
<title>http://purl.org/oseg/ontologies/OTRL#goal&#45;&gt;http://schema.org/Text</title>
<path fill="none" stroke="black" d="M97.24,-796.32C114.29,-790.59 137.15,-783.87 158.01,-780.94 198.24,-775.27 243.7,-780.01 279.13,-786.16"/>
<polygon fill="black" stroke="black" points="278.85,-789.67 289.31,-788.02 280.1,-782.78 278.85,-789.67"/>
<text text-anchor="middle" x="179.01" y="-784.74" font-family="Times,serif" font-size="14.00">range</text>
</g>
<!-- http://purl.org/oseg/ontologies/OTRL#Otrl5 -->
<g id="node22" class="node">
<title>http://purl.org/oseg/ontologies/OTRL#Otrl5</title>
<ellipse fill="none" stroke="#e377c2" cx="70" cy="-32.94" rx="38.37" ry="16.03"/>
<text text-anchor="middle" x="70" y="-29.24" font-family="Times,serif" font-size="14.00">Otrl5</text>
</g>
<!-- http://purl.org/oseg/ontologies/OTRL#Otrl5&#45;&gt;http://www.w3.org/2002/07/owl#class -->
<g id="edge27" class="edge">
<title>http://purl.org/oseg/ontologies/OTRL#Otrl5&#45;&gt;http://www.w3.org/2002/07/owl#class</title>
<path fill="none" stroke="black" d="M102.34,-24.04C173.15,-5.9 348.33,27.83 464.08,-44.94 555.38,-102.33 565.75,-249.59 565.98,-310.23"/>
<polygon fill="black" stroke="black" points="562.48,-310.49 565.93,-320.51 569.48,-310.53 562.48,-310.49"/>
<text text-anchor="middle" x="341.04" y="-48.74" font-family="Times,serif" font-size="14.00">a</text>
</g>
<!-- http://purl.org/oseg/ontologies/OTRL#Otrl5&#45;&gt;http://purl.org/oseg/ontologies/OTRL#OTRL -->
<g id="edge5" class="edge">
<title>http://purl.org/oseg/ontologies/OTRL#Otrl5&#45;&gt;http://purl.org/oseg/ontologies/OTRL#OTRL</title>
<path fill="none" stroke="black" d="M102.72,-41.45C114.99,-45.59 128.75,-51.35 140.01,-58.94 172.61,-80.9 176.44,-92.47 200.01,-123.94 209.33,-136.38 205.5,-144.7 218.01,-153.94 239.21,-169.58 267.56,-177.14 291.6,-180.76"/>
<polygon fill="black" stroke="black" points="291.23,-184.24 301.6,-182.09 292.15,-177.3 291.23,-184.24"/>
</g>
<!-- http://purl.org/oseg/ontologies/OTRL#Odrl3 -->
<g id="node23" class="node">
<title>http://purl.org/oseg/ontologies/OTRL#Odrl3</title>
<ellipse fill="none" stroke="#e377c2" cx="341.04" cy="-436.94" rx="40.11" ry="16.03"/>
<text text-anchor="middle" x="341.04" y="-433.24" font-family="Times,serif" font-size="14.00">Odrl3</text>
</g>
<!-- http://purl.org/oseg/ontologies/OTRL#Odrl3&#45;&gt;http://purl.org/oseg/ontologies/OTRL#ODRL -->
<g id="edge29" class="edge">
<title>http://purl.org/oseg/ontologies/OTRL#Odrl3&#45;&gt;http://purl.org/oseg/ontologies/OTRL#ODRL</title>
<path fill="none" stroke="black" d="M378.68,-431.08C410.58,-427.87 456.93,-427.95 491.08,-447.94 523.94,-467.16 545.08,-507.37 556.1,-534.01"/>
<polygon fill="black" stroke="black" points="552.91,-535.46 559.83,-543.49 559.42,-532.9 552.91,-535.46"/>
</g>
<!-- http://purl.org/oseg/ontologies/OTRL#Odrl3&#45;&gt;http://www.w3.org/2002/07/owl#class -->
<g id="edge30" class="edge">
<title>http://purl.org/oseg/ontologies/OTRL#Odrl3&#45;&gt;http://www.w3.org/2002/07/owl#class</title>
<path fill="none" stroke="black" d="M379.24,-431.42C404.03,-426.88 436.92,-419.16 464.08,-406.94 491.71,-394.5 519.79,-374.38 539.35,-358.89"/>
<polygon fill="black" stroke="black" points="541.6,-361.57 547.19,-352.57 537.21,-356.12 541.6,-361.57"/>
<text text-anchor="middle" x="486.58" y="-400.74" font-family="Times,serif" font-size="14.00">a</text>
</g>
</g>
</svg>
