<?xml version="1.0" encoding="UTF-8" standalone="no"?>
<!DOCTYPE svg PUBLIC "-//W3C//DTD SVG 1.1//EN"
 "http://www.w3.org/Graphics/SVG/1.1/DTD/svg11.dtd">
<!-- Generated by graphviz version 2.43.0 (0)
 -->
<!-- Title: G Pages: 1 -->
<svg width="2065pt" height="1176pt"
 viewBox="0.00 0.00 2064.64 1175.53" xmlns="http://www.w3.org/2000/svg" xmlns:xlink="http://www.w3.org/1999/xlink">
<g id="graph0" class="graph" transform="scale(1 1) rotate(0) translate(4 1171.53)">
<title>G</title>
<polygon fill="white" stroke="transparent" points="-4,4 -4,-1171.53 2060.64,-1171.53 2060.64,4 -4,4"/>
<!-- https://w3id.org/oseg/ont/otrl#ODRL1 -->
<g id="node1" class="node">
<title>https://w3id.org/oseg/ont/otrl#ODRL1</title>
<ellipse fill="none" stroke="#e377c2" cx="1412.36" cy="-811.26" rx="69.09" ry="16.03"/>
<text text-anchor="middle" x="1412.36" y="-807.56" font-family="Times,serif" font-size="14.00">otrl:ODRL1</text>
</g>
<!-- https://w3id.org/oseg/ont/otrl#ODRL -->
<g id="node7" class="node">
<title>https://w3id.org/oseg/ont/otrl#ODRL</title>
<ellipse fill="none" stroke="#e377c2" cx="1933.6" cy="-719.26" rx="62.87" ry="16.03"/>
<text text-anchor="middle" x="1933.6" y="-715.56" font-family="Times,serif" font-size="14.00">otrl:ODRL</text>
</g>
<!-- https://w3id.org/oseg/ont/otrl#ODRL1&#45;&gt;https://w3id.org/oseg/ont/otrl#ODRL -->
<g id="edge21" class="edge">
<title>https://w3id.org/oseg/ont/otrl#ODRL1&#45;&gt;https://w3id.org/oseg/ont/otrl#ODRL</title>
<path fill="none" stroke="black" d="M1473.76,-803.66C1548.86,-793.8 1680.78,-775.12 1792.57,-752.26 1820.87,-746.48 1852.18,-739.18 1878,-732.93"/>
<polygon fill="black" stroke="black" points="1879.09,-736.26 1887.98,-730.49 1877.43,-729.46 1879.09,-736.26"/>
</g>
<!-- https://w3id.org/oseg/ont/otrl#OTRL4 -->
<g id="node2" class="node">
<title>https://w3id.org/oseg/ont/otrl#OTRL4</title>
<ellipse fill="none" stroke="#e377c2" cx="1412.36" cy="-377.26" rx="67.35" ry="16.03"/>
<text text-anchor="middle" x="1412.36" y="-373.56" font-family="Times,serif" font-size="14.00">otrl:OTRL4</text>
</g>
<!-- https://w3id.org/oseg/ont/otrl#OTRL -->
<g id="node8" class="node">
<title>https://w3id.org/oseg/ont/otrl#OTRL</title>
<ellipse fill="none" stroke="#e377c2" cx="1933.6" cy="-266.26" rx="60.62" ry="16.03"/>
<text text-anchor="middle" x="1933.6" y="-262.56" font-family="Times,serif" font-size="14.00">otrl:OTRL</text>
</g>
<!-- https://w3id.org/oseg/ont/otrl#OTRL4&#45;&gt;https://w3id.org/oseg/ont/otrl#OTRL -->
<g id="edge13" class="edge">
<title>https://w3id.org/oseg/ont/otrl#OTRL4&#45;&gt;https://w3id.org/oseg/ont/otrl#OTRL</title>
<path fill="none" stroke="black" d="M1474.57,-371.07C1550.2,-362.54 1682.38,-344.8 1792.57,-315.26 1825.47,-306.44 1861.75,-293.66 1889.14,-283.36"/>
<polygon fill="black" stroke="black" points="1890.7,-286.51 1898.81,-279.69 1888.21,-279.97 1890.7,-286.51"/>
</g>
<!-- https://w3id.org/oseg/ont/otrl#OTRL6 -->
<g id="node3" class="node">
<title>https://w3id.org/oseg/ont/otrl#OTRL6</title>
<ellipse fill="none" stroke="#e377c2" cx="1412.36" cy="-326.26" rx="67.35" ry="16.03"/>
<text text-anchor="middle" x="1412.36" y="-322.56" font-family="Times,serif" font-size="14.00">otrl:OTRL6</text>
</g>
<!-- https://w3id.org/oseg/ont/otrl#OTRL6&#45;&gt;https://w3id.org/oseg/ont/otrl#OTRL -->
<g id="edge37" class="edge">
<title>https://w3id.org/oseg/ont/otrl#OTRL6&#45;&gt;https://w3id.org/oseg/ont/otrl#OTRL</title>
<path fill="none" stroke="black" d="M1477.28,-322.02C1552.81,-316.63 1682.17,-306.19 1792.57,-291.26 1819.56,-287.61 1849.29,-282.47 1874.39,-277.79"/>
<polygon fill="black" stroke="black" points="1875.3,-281.18 1884.48,-275.89 1874,-274.3 1875.3,-281.18"/>
</g>
<!-- http://www.w3.org/2002/07/owl#DatatypeProperty -->
<g id="node4" class="node">
<title>http://www.w3.org/2002/07/owl#DatatypeProperty</title>
<ellipse fill="none" stroke="#1f77b4" cx="1933.6" cy="-589.26" rx="123.07" ry="16.03"/>
<text text-anchor="middle" x="1933.6" y="-585.56" font-family="Times,serif" font-size="14.00">owl:DatatypeProperty</text>
</g>
<!-- https://w3id.org/oseg/ont/otrl#OTRL2 -->
<g id="node5" class="node">
<title>https://w3id.org/oseg/ont/otrl#OTRL2</title>
<ellipse fill="none" stroke="#e377c2" cx="1412.36" cy="-224.26" rx="67.35" ry="16.03"/>
<text text-anchor="middle" x="1412.36" y="-220.56" font-family="Times,serif" font-size="14.00">otrl:OTRL2</text>
</g>
<!-- https://w3id.org/oseg/ont/otrl#OTRL2&#45;&gt;https://w3id.org/oseg/ont/otrl#OTRL -->
<g id="edge14" class="edge">
<title>https://w3id.org/oseg/ont/otrl#OTRL2&#45;&gt;https://w3id.org/oseg/ont/otrl#OTRL</title>
<path fill="none" stroke="black" d="M1479.64,-225.32C1555.47,-227.06 1683.27,-231.59 1792.57,-243.26 1819.37,-246.13 1848.85,-250.74 1873.81,-255.09"/>
<polygon fill="black" stroke="black" points="1873.4,-258.58 1883.86,-256.87 1874.62,-251.68 1873.4,-258.58"/>
</g>
<!-- https://w3id.org/oseg/ont/otrl#OTRL3 -->
<g id="node6" class="node">
<title>https://w3id.org/oseg/ont/otrl#OTRL3</title>
<ellipse fill="none" stroke="#e377c2" cx="1412.36" cy="-173.26" rx="67.35" ry="16.03"/>
<text text-anchor="middle" x="1412.36" y="-169.56" font-family="Times,serif" font-size="14.00">otrl:OTRL3</text>
</g>
<!-- https://w3id.org/oseg/ont/otrl#OTRL3&#45;&gt;https://w3id.org/oseg/ont/otrl#OTRL -->
<g id="edge10" class="edge">
<title>https://w3id.org/oseg/ont/otrl#OTRL3&#45;&gt;https://w3id.org/oseg/ont/otrl#OTRL</title>
<path fill="none" stroke="black" d="M1474.88,-179.44C1550.27,-187.6 1681.65,-203.74 1792.57,-227.26 1823.11,-233.74 1856.83,-243.06 1883.53,-250.97"/>
<polygon fill="black" stroke="black" points="1882.81,-254.41 1893.39,-253.92 1884.82,-247.7 1882.81,-254.41"/>
</g>
<!-- https://w3id.org/oseg/ont/otrl#ODRL2 -->
<g id="node9" class="node">
<title>https://w3id.org/oseg/ont/otrl#ODRL2</title>
<ellipse fill="none" stroke="#e377c2" cx="1412.36" cy="-760.26" rx="69.09" ry="16.03"/>
<text text-anchor="middle" x="1412.36" y="-756.56" font-family="Times,serif" font-size="14.00">otrl:ODRL2</text>
</g>
<!-- https://w3id.org/oseg/ont/otrl#ODRL2&#45;&gt;https://w3id.org/oseg/ont/otrl#ODRL -->
<g id="edge2" class="edge">
<title>https://w3id.org/oseg/ont/otrl#ODRL2&#45;&gt;https://w3id.org/oseg/ont/otrl#ODRL</title>
<path fill="none" stroke="black" d="M1478.33,-755.13C1576.59,-747.37 1762.21,-732.72 1863.09,-724.75"/>
<polygon fill="black" stroke="black" points="1863.48,-728.23 1873.18,-723.96 1862.93,-721.25 1863.48,-728.23"/>
</g>
<!-- http://www.w3.org/2002/07/owl#Ontology -->
<g id="node10" class="node">
<title>http://www.w3.org/2002/07/owl#Ontology</title>
<ellipse fill="none" stroke="#1f77b4" cx="807.65" cy="-1151.26" rx="77.56" ry="16.03"/>
<text text-anchor="middle" x="807.65" y="-1147.56" font-family="Times,serif" font-size="14.00">owl:Ontology</text>
</g>
<!-- https://w3id.org/oseg/ont/otrl#ODRL4 -->
<g id="node11" class="node">
<title>https://w3id.org/oseg/ont/otrl#ODRL4</title>
<ellipse fill="none" stroke="#e377c2" cx="1412.36" cy="-709.26" rx="69.09" ry="16.03"/>
<text text-anchor="middle" x="1412.36" y="-705.56" font-family="Times,serif" font-size="14.00">otrl:ODRL4</text>
</g>
<!-- https://w3id.org/oseg/ont/otrl#ODRL4&#45;&gt;https://w3id.org/oseg/ont/otrl#ODRL -->
<g id="edge46" class="edge">
<title>https://w3id.org/oseg/ont/otrl#ODRL4&#45;&gt;https://w3id.org/oseg/ont/otrl#ODRL</title>
<path fill="none" stroke="black" d="M1481.5,-710.58C1579.66,-712.47 1760.04,-715.94 1860.4,-717.87"/>
<polygon fill="black" stroke="black" points="1860.39,-721.37 1870.45,-718.07 1860.52,-714.37 1860.39,-721.37"/>
</g>
<!-- https://w3id.org/oseg/ont/otrl#OTRL1 -->
<g id="node12" class="node">
<title>https://w3id.org/oseg/ont/otrl#OTRL1</title>
<ellipse fill="none" stroke="#e377c2" cx="1412.36" cy="-111.26" rx="67.35" ry="16.03"/>
<text text-anchor="middle" x="1412.36" y="-107.56" font-family="Times,serif" font-size="14.00">otrl:OTRL1</text>
</g>
<!-- https://w3id.org/oseg/ont/otrl#OTRL1&#45;&gt;https://w3id.org/oseg/ont/otrl#OTRL -->
<g id="edge6" class="edge">
<title>https://w3id.org/oseg/ont/otrl#OTRL1&#45;&gt;https://w3id.org/oseg/ont/otrl#OTRL</title>
<path fill="none" stroke="black" d="M1471.63,-119.06C1547.32,-130.34 1682.75,-154.44 1792.57,-195.26 1830.21,-209.26 1870.91,-230.66 1898.68,-246.31"/>
<polygon fill="black" stroke="black" points="1897.16,-249.47 1907.58,-251.38 1900.62,-243.39 1897.16,-249.47"/>
</g>
<!-- https://w3id.org/oseg/ont/otrl#OTRL5 -->
<g id="node13" class="node">
<title>https://w3id.org/oseg/ont/otrl#OTRL5</title>
<ellipse fill="none" stroke="#e377c2" cx="1412.36" cy="-35.26" rx="67.35" ry="16.03"/>
<text text-anchor="middle" x="1412.36" y="-31.56" font-family="Times,serif" font-size="14.00">otrl:OTRL5</text>
</g>
<!-- https://w3id.org/oseg/ont/otrl#OTRL5&#45;&gt;https://w3id.org/oseg/ont/otrl#OTRL -->
<g id="edge41" class="edge">
<title>https://w3id.org/oseg/ont/otrl#OTRL5&#45;&gt;https://w3id.org/oseg/ont/otrl#OTRL</title>
<path fill="none" stroke="black" d="M1470.4,-43.62C1547.41,-56.67 1687.09,-86.7 1792.57,-145.26 1839.87,-171.53 1885.53,-215.59 1911.24,-242.67"/>
<polygon fill="black" stroke="black" points="1908.87,-245.26 1918.26,-250.16 1913.98,-240.47 1908.87,-245.26"/>
</g>
<!-- https://w3id.org/oseg/ont/otrl#ODRL3Star -->
<g id="node14" class="node">
<title>https://w3id.org/oseg/ont/otrl#ODRL3Star</title>
<ellipse fill="none" stroke="#e377c2" cx="1412.36" cy="-646.26" rx="90.52" ry="16.03"/>
<text text-anchor="middle" x="1412.36" y="-642.56" font-family="Times,serif" font-size="14.00">otrl:ODRL3Star</text>
</g>
<!-- https://w3id.org/oseg/ont/otrl#ODRL3Star&#45;&gt;https://w3id.org/oseg/ont/otrl#ODRL -->
<g id="edge16" class="edge">
<title>https://w3id.org/oseg/ont/otrl#ODRL3Star&#45;&gt;https://w3id.org/oseg/ont/otrl#ODRL</title>
<path fill="none" stroke="black" d="M1478.12,-657.54C1518.93,-664.49 1572.76,-673.36 1620.57,-680.26 1704.76,-692.43 1802.07,-704.23 1865.34,-711.61"/>
<polygon fill="black" stroke="black" points="1865.24,-715.12 1875.58,-712.8 1866.05,-708.17 1865.24,-715.12"/>
</g>
<!-- https://w3id.org/oseg/ont/otrl#ODRL3 -->
<g id="node15" class="node">
<title>https://w3id.org/oseg/ont/otrl#ODRL3</title>
<ellipse fill="none" stroke="#e377c2" cx="1412.36" cy="-576.26" rx="69.09" ry="16.03"/>
<text text-anchor="middle" x="1412.36" y="-572.56" font-family="Times,serif" font-size="14.00">otrl:ODRL3</text>
</g>
<!-- https://w3id.org/oseg/ont/otrl#ODRL3&#45;&gt;https://w3id.org/oseg/ont/otrl#ODRL -->
<g id="edge34" class="edge">
<title>https://w3id.org/oseg/ont/otrl#ODRL3&#45;&gt;https://w3id.org/oseg/ont/otrl#ODRL</title>
<path fill="none" stroke="black" d="M1480.97,-578.76C1519.98,-583.3 1567.99,-594.5 1602.57,-621.26 1616.09,-631.73 1606.68,-645.29 1620.57,-655.26 1683.48,-700.43 1716.76,-667.38 1792.57,-683.26 1821.98,-689.42 1854.5,-697.7 1880.8,-704.76"/>
<polygon fill="black" stroke="black" points="1879.99,-708.16 1890.55,-707.4 1881.81,-701.4 1879.99,-708.16"/>
</g>
<!-- https://www.gnu.org/licenses/gpl&#45;3.0.txt -->
<g id="node16" class="node">
<title>https://www.gnu.org/licenses/gpl&#45;3.0.txt</title>
<ellipse fill="none" stroke="#e377c2" cx="807.65" cy="-1100.26" rx="85.62" ry="16.03"/>
<text text-anchor="middle" x="807.65" y="-1096.56" font-family="Times,serif" font-size="14.00">ns1:gpl&#45;3.0.txt</text>
</g>
<!-- https://w3id.org/oseg/ont/otrl#goal -->
<g id="node17" class="node">
<title>https://w3id.org/oseg/ont/otrl#goal</title>
<ellipse fill="none" stroke="#e377c2" cx="1412.36" cy="-525.26" rx="54.39" ry="16.03"/>
<text text-anchor="middle" x="1412.36" y="-521.56" font-family="Times,serif" font-size="14.00">otrl:goal</text>
</g>
<!-- https://w3id.org/oseg/ont/otrl#goal&#45;&gt;http://www.w3.org/2002/07/owl#DatatypeProperty -->
<g id="edge12" class="edge">
<title>https://w3id.org/oseg/ont/otrl#goal&#45;&gt;http://www.w3.org/2002/07/owl#DatatypeProperty</title>
<path fill="none" stroke="black" d="M1465.12,-521.12C1505.57,-520.39 1561.62,-525.13 1602.57,-551.26 1615.04,-559.22 1607.7,-571.97 1620.57,-579.26 1652.65,-597.45 1738.82,-599.13 1812.49,-596.71"/>
<polygon fill="black" stroke="black" points="1812.92,-600.2 1822.79,-596.34 1812.68,-593.2 1812.92,-600.2"/>
<text text-anchor="middle" x="1706.57" y="-602.06" font-family="Times,serif" font-size="14.00">a</text>
</g>
<!-- https://w3id.org/oseg/ont/otrl#goal&#45;&gt;https://w3id.org/oseg/ont/otrl#ODRL -->
<g id="edge1" class="edge">
<title>https://w3id.org/oseg/ont/otrl#goal&#45;&gt;https://w3id.org/oseg/ont/otrl#ODRL</title>
<path fill="none" stroke="black" d="M1461.67,-518.28C1503.91,-515.02 1564.32,-517.68 1602.57,-551.26 1625.41,-571.32 1597.46,-597.51 1620.57,-617.26 1649.8,-642.25 1756.09,-624.07 1792.57,-636.26 1834.41,-650.25 1877.29,-678.04 1904.39,-697.6"/>
<polygon fill="black" stroke="black" points="1902.48,-700.54 1912.61,-703.63 1906.62,-694.9 1902.48,-700.54"/>
<text text-anchor="middle" x="1706.57" y="-640.06" font-family="Times,serif" font-size="14.00">schema:domainIncludes</text>
</g>
<!-- https://w3id.org/oseg/ont/otrl#goal&#45;&gt;https://w3id.org/oseg/ont/otrl#OTRL -->
<g id="edge5" class="edge">
<title>https://w3id.org/oseg/ont/otrl#goal&#45;&gt;https://w3id.org/oseg/ont/otrl#OTRL</title>
<path fill="none" stroke="black" d="M1466.74,-524.2C1507.55,-520.89 1563.31,-510.7 1602.57,-481.26 1615.62,-471.47 1607.03,-458.38 1620.57,-449.26 1684.48,-406.21 1724.61,-463.61 1792.57,-427.26 1851.64,-395.67 1897.14,-328.37 1918.76,-291.58"/>
<polygon fill="black" stroke="black" points="1922.03,-292.91 1923.97,-282.49 1915.96,-289.42 1922.03,-292.91"/>
<text text-anchor="middle" x="1706.57" y="-453.06" font-family="Times,serif" font-size="14.00">schema:domainIncludes</text>
</g>
<!-- http://schema.org/Text -->
<g id="node18" class="node">
<title>http://schema.org/Text</title>
<ellipse fill="none" stroke="#e377c2" cx="1933.6" cy="-468.26" rx="74.91" ry="16.03"/>
<text text-anchor="middle" x="1933.6" y="-464.56" font-family="Times,serif" font-size="14.00">schema:Text</text>
</g>
<!-- https://w3id.org/oseg/ont/otrl#goal&#45;&gt;http://schema.org/Text -->
<g id="edge33" class="edge">
<title>https://w3id.org/oseg/ont/otrl#goal&#45;&gt;http://schema.org/Text</title>
<path fill="none" stroke="black" d="M1467.06,-525.3C1540.85,-524.63 1677.5,-520.82 1792.57,-503.26 1821.44,-498.86 1853.04,-491.21 1878.9,-484.19"/>
<polygon fill="black" stroke="black" points="1880.18,-487.47 1888.88,-481.43 1878.31,-480.72 1880.18,-487.47"/>
<text text-anchor="middle" x="1706.57" y="-524.06" font-family="Times,serif" font-size="14.00">range</text>
</g>
<!-- https://orcid.org/0009&#45;0004&#45;3559&#45;6542 -->
<g id="node19" class="node">
<title>https://orcid.org/0009&#45;0004&#45;3559&#45;6542</title>
<ellipse fill="none" stroke="#e377c2" cx="807.65" cy="-1049.26" rx="113.69" ry="16.03"/>
<text text-anchor="middle" x="807.65" y="-1045.56" font-family="Times,serif" font-size="14.00">orcid:0009&#45;0004&#45;3...</text>
</g>
<!-- https://w3id.org/oseg/ont/otrl#Odrl4 -->
<g id="node20" class="node">
<title>https://w3id.org/oseg/ont/otrl#Odrl4</title>
<ellipse fill="none" stroke="#e377c2" cx="807.65" cy="-710.26" rx="61.54" ry="16.03"/>
<text text-anchor="middle" x="807.65" y="-706.56" font-family="Times,serif" font-size="14.00">otrl:Odrl4</text>
</g>
<!-- https://w3id.org/oseg/ont/otrl#Odrl4&#45;&gt;https://w3id.org/oseg/ont/otrl#ODRL4 -->
<g id="edge22" class="edge">
<title>https://w3id.org/oseg/ont/otrl#Odrl4&#45;&gt;https://w3id.org/oseg/ont/otrl#ODRL4</title>
<path fill="none" stroke="black" d="M869.2,-710.16C979.09,-709.98 1211.26,-709.6 1333.04,-709.39"/>
<polygon fill="black" stroke="black" points="1333.05,-712.89 1343.04,-709.38 1333.04,-705.89 1333.05,-712.89"/>
<text text-anchor="middle" x="1124.14" y="-714.06" font-family="Times,serif" font-size="14.00">schema:supersededBy</text>
</g>
<!-- https://w3id.org/oseg/ont/otrl#Odrl4&#45;&gt;https://w3id.org/oseg/ont/otrl#ODRL4 -->
<g id="edge54" class="edge">
<title>https://w3id.org/oseg/ont/otrl#Odrl4&#45;&gt;https://w3id.org/oseg/ont/otrl#ODRL4</title>
<path fill="none" stroke="black" d="M865.19,-704.42C912.85,-699.8 982.87,-693.73 1044.14,-691.26 1115.2,-688.4 1133.1,-688.18 1204.14,-691.26 1249.11,-693.21 1299.42,-697.53 1339.2,-701.45"/>
<polygon fill="black" stroke="black" points="1339.04,-704.95 1349.34,-702.46 1339.73,-697.99 1339.04,-704.95"/>
<text text-anchor="middle" x="1124.14" y="-695.06" font-family="Times,serif" font-size="14.00">owl:sameAs</text>
</g>
<!-- https://orcid.org/0000&#45;0002&#45;1611&#45;7129 -->
<g id="node21" class="node">
<title>https://orcid.org/0000&#45;0002&#45;1611&#45;7129</title>
<ellipse fill="none" stroke="#e377c2" cx="807.65" cy="-998.26" rx="113.69" ry="16.03"/>
<text text-anchor="middle" x="807.65" y="-994.56" font-family="Times,serif" font-size="14.00">orcid:0000&#45;0002&#45;1...</text>
</g>
<!-- http://id.loc.gov/vocabulary/iso639&#45;1/en -->
<g id="node22" class="node">
<title>http://id.loc.gov/vocabulary/iso639&#45;1/en</title>
<ellipse fill="none" stroke="#e377c2" cx="807.65" cy="-947.26" rx="45.01" ry="16.03"/>
<text text-anchor="middle" x="807.65" y="-943.56" font-family="Times,serif" font-size="14.00">ns2:en</text>
</g>
<!-- https://w3id.org/oseg/ont/otrl#exitCriteria -->
<g id="node23" class="node">
<title>https://w3id.org/oseg/ont/otrl#exitCriteria</title>
<ellipse fill="none" stroke="#e377c2" cx="1412.36" cy="-456.26" rx="91.43" ry="16.03"/>
<text text-anchor="middle" x="1412.36" y="-452.56" font-family="Times,serif" font-size="14.00">otrl:exitCriteria</text>
</g>
<!-- https://w3id.org/oseg/ont/otrl#exitCriteria&#45;&gt;http://www.w3.org/2002/07/owl#DatatypeProperty -->
<g id="edge36" class="edge">
<title>https://w3id.org/oseg/ont/otrl#exitCriteria&#45;&gt;http://www.w3.org/2002/07/owl#DatatypeProperty</title>
<path fill="none" stroke="black" d="M1501.36,-460.16C1604.88,-465.14 1766.06,-474.33 1792.57,-484.26 1817.22,-493.5 1872.68,-538.36 1905.93,-566.37"/>
<polygon fill="black" stroke="black" points="1903.98,-569.3 1913.87,-573.1 1908.5,-563.96 1903.98,-569.3"/>
<text text-anchor="middle" x="1706.57" y="-488.06" font-family="Times,serif" font-size="14.00">a</text>
</g>
<!-- https://w3id.org/oseg/ont/otrl#exitCriteria&#45;&gt;https://w3id.org/oseg/ont/otrl#ODRL -->
<g id="edge40" class="edge">
<title>https://w3id.org/oseg/ont/otrl#exitCriteria&#45;&gt;https://w3id.org/oseg/ont/otrl#ODRL</title>
<path fill="none" stroke="black" d="M1501.15,-460.24C1535.88,-465.73 1574.19,-477.16 1602.57,-500.26 1617.37,-512.32 1605.14,-528.02 1620.57,-539.26 1682.8,-584.63 1732.94,-511.52 1792.57,-560.26 1812.15,-576.27 1796.47,-593.26 1810.57,-614.26 1834.04,-649.24 1872.16,-679.42 1899.55,-698.33"/>
<polygon fill="black" stroke="black" points="1897.8,-701.37 1908.04,-704.07 1901.72,-695.57 1897.8,-701.37"/>
<text text-anchor="middle" x="1706.57" y="-564.06" font-family="Times,serif" font-size="14.00">schema:domainIncludes</text>
</g>
<!-- https://w3id.org/oseg/ont/otrl#exitCriteria&#45;&gt;https://w3id.org/oseg/ont/otrl#OTRL -->
<g id="edge43" class="edge">
<title>https://w3id.org/oseg/ont/otrl#exitCriteria&#45;&gt;https://w3id.org/oseg/ont/otrl#OTRL</title>
<path fill="none" stroke="black" d="M1479.22,-445.05C1516.94,-436.82 1564.24,-423.32 1602.57,-402.26 1611.95,-397.11 1611.05,-391.16 1620.57,-386.26 1690.28,-350.43 1719.59,-375.88 1792.57,-347.26 1832.68,-331.54 1875,-305.57 1902.48,-287.29"/>
<polygon fill="black" stroke="black" points="1904.52,-290.13 1910.86,-281.64 1900.61,-284.33 1904.52,-290.13"/>
<text text-anchor="middle" x="1706.57" y="-390.06" font-family="Times,serif" font-size="14.00">schema:domainIncludes</text>
</g>
<!-- https://w3id.org/oseg/ont/otrl#exitCriteria&#45;&gt;http://schema.org/Text -->
<g id="edge15" class="edge">
<title>https://w3id.org/oseg/ont/otrl#exitCriteria&#45;&gt;http://schema.org/Text</title>
<path fill="none" stroke="black" d="M1458.64,-442.14C1530.09,-421.85 1673.14,-389.27 1792.57,-412.26 1828.79,-419.24 1867.56,-435.5 1895.1,-448.71"/>
<polygon fill="black" stroke="black" points="1893.83,-451.98 1904.35,-453.23 1896.9,-445.7 1893.83,-451.98"/>
<text text-anchor="middle" x="1706.57" y="-416.06" font-family="Times,serif" font-size="14.00">range</text>
</g>
<!-- https://w3id.org/oseg/ont/otrl -->
<g id="node24" class="node">
<title>https://w3id.org/oseg/ont/otrl</title>
<ellipse fill="none" stroke="#e377c2" cx="196.58" cy="-1036.26" rx="50.82" ry="16.03"/>
<text text-anchor="middle" x="196.58" y="-1032.56" font-family="Times,serif" font-size="14.00">ns3:otrl</text>
</g>
<!-- https://w3id.org/oseg/ont/otrl&#45;&gt;http://www.w3.org/2002/07/owl#Ontology -->
<g id="edge45" class="edge">
<title>https://w3id.org/oseg/ont/otrl&#45;&gt;http://www.w3.org/2002/07/owl#Ontology</title>
<path fill="none" stroke="black" d="M224.36,-1050.01C264.01,-1069.63 341.16,-1105.08 411.15,-1121.26 515.38,-1145.36 638.76,-1151.26 719.66,-1152.17"/>
<polygon fill="black" stroke="black" points="719.77,-1155.67 729.8,-1152.26 719.83,-1148.68 719.77,-1155.67"/>
<text text-anchor="middle" x="491.15" y="-1148.06" font-family="Times,serif" font-size="14.00">a</text>
</g>
<!-- https://w3id.org/oseg/ont/otrl&#45;&gt;https://www.gnu.org/licenses/gpl&#45;3.0.txt -->
<g id="edge11" class="edge">
<title>https://w3id.org/oseg/ont/otrl&#45;&gt;https://www.gnu.org/licenses/gpl&#45;3.0.txt</title>
<path fill="none" stroke="black" d="M233,-1047.8C274.98,-1060.88 347.31,-1081.5 411.15,-1090.26 513.93,-1104.38 633.1,-1105.32 713.54,-1103.72"/>
<polygon fill="black" stroke="black" points="713.73,-1107.21 723.65,-1103.5 713.58,-1100.21 713.73,-1107.21"/>
<text text-anchor="middle" x="491.15" y="-1106.06" font-family="Times,serif" font-size="14.00">dcterms:license</text>
</g>
<!-- https://w3id.org/oseg/ont/otrl&#45;&gt;https://www.gnu.org/licenses/gpl&#45;3.0.txt -->
<g id="edge31" class="edge">
<title>https://w3id.org/oseg/ont/otrl&#45;&gt;https://www.gnu.org/licenses/gpl&#45;3.0.txt</title>
<path fill="none" stroke="black" d="M246.36,-1039.71C317.8,-1045.02 455.04,-1056.17 571.15,-1071.26 579.19,-1072.31 581.12,-1073.12 589.15,-1074.26 633.05,-1080.54 682.09,-1086.5 722.47,-1091.12"/>
<polygon fill="black" stroke="black" points="722.21,-1094.61 732.55,-1092.26 723.01,-1087.66 722.21,-1094.61"/>
<text text-anchor="middle" x="491.15" y="-1075.06" font-family="Times,serif" font-size="14.00">cc:license</text>
</g>
<!-- https://w3id.org/oseg/ont/otrl&#45;&gt;https://orcid.org/0009&#45;0004&#45;3559&#45;6542 -->
<g id="edge20" class="edge">
<title>https://w3id.org/oseg/ont/otrl&#45;&gt;https://orcid.org/0009&#45;0004&#45;3559&#45;6542</title>
<path fill="none" stroke="black" d="M247.74,-1035.63C319.46,-1034.9 455.42,-1034.16 571.15,-1037.26 610.69,-1038.32 653.93,-1040.29 692.44,-1042.33"/>
<polygon fill="black" stroke="black" points="692.47,-1045.84 702.65,-1042.88 692.85,-1038.85 692.47,-1045.84"/>
<text text-anchor="middle" x="491.15" y="-1041.06" font-family="Times,serif" font-size="14.00">dcterms:creator</text>
</g>
<!-- https://w3id.org/oseg/ont/otrl&#45;&gt;https://orcid.org/0000&#45;0002&#45;1611&#45;7129 -->
<g id="edge27" class="edge">
<title>https://w3id.org/oseg/ont/otrl&#45;&gt;https://orcid.org/0000&#45;0002&#45;1611&#45;7129</title>
<path fill="none" stroke="black" d="M245.02,-1030.84C288.25,-1026.08 353.92,-1019.3 411.15,-1015.26 503,-1008.78 607.05,-1004.43 685.36,-1001.75"/>
<polygon fill="black" stroke="black" points="685.87,-1005.23 695.75,-1001.4 685.63,-998.24 685.87,-1005.23"/>
<text text-anchor="middle" x="491.15" y="-1019.06" font-family="Times,serif" font-size="14.00">dcterms:creator</text>
</g>
<!-- https://w3id.org/oseg/ont/otrl&#45;&gt;http://id.loc.gov/vocabulary/iso639&#45;1/en -->
<g id="edge32" class="edge">
<title>https://w3id.org/oseg/ont/otrl&#45;&gt;http://id.loc.gov/vocabulary/iso639&#45;1/en</title>
<path fill="none" stroke="black" d="M236.26,-1025.85C278.82,-1014.76 349.4,-997.43 411.15,-987.26 532.28,-967.32 676.03,-955.78 752.48,-950.59"/>
<polygon fill="black" stroke="black" points="753.07,-954.06 762.81,-949.9 752.6,-947.08 753.07,-954.06"/>
<text text-anchor="middle" x="491.15" y="-991.06" font-family="Times,serif" font-size="14.00">dcterms:language</text>
</g>
<!-- https://w3id.org/oseg/ont/1.1.0/otrl -->
<g id="node25" class="node">
<title>https://w3id.org/oseg/ont/1.1.0/otrl</title>
<ellipse fill="none" stroke="#e377c2" cx="807.65" cy="-896.26" rx="50.82" ry="16.03"/>
<text text-anchor="middle" x="807.65" y="-892.56" font-family="Times,serif" font-size="14.00">ns4:otrl</text>
</g>
<!-- https://w3id.org/oseg/ont/otrl&#45;&gt;https://w3id.org/oseg/ont/1.1.0/otrl -->
<g id="edge52" class="edge">
<title>https://w3id.org/oseg/ont/otrl&#45;&gt;https://w3id.org/oseg/ont/1.1.0/otrl</title>
<path fill="none" stroke="black" d="M224.43,-1022.44C264.15,-1002.6 341.41,-966.35 411.15,-947.26 527.46,-915.43 668.58,-903.3 746.91,-898.81"/>
<polygon fill="black" stroke="black" points="747.28,-902.29 757.08,-898.25 746.9,-895.3 747.28,-902.29"/>
<text text-anchor="middle" x="491.15" y="-951.06" font-family="Times,serif" font-size="14.00">owl:versionIRI</text>
</g>
<!-- https://w3id.org/oseg/ont/otrl#Odrl -->
<g id="node26" class="node">
<title>https://w3id.org/oseg/ont/otrl#Odrl</title>
<ellipse fill="none" stroke="black" cx="1412.36" cy="-862.26" rx="190.42" ry="16.03"/>
<text text-anchor="middle" x="1412.36" y="-858.56" font-family="Times,serif" font-size="14.00">https://w3id.org/oseg/ont/otrl#Odrl</text>
</g>
<!-- https://w3id.org/oseg/ont/otrl#Odrl&#45;&gt;https://w3id.org/oseg/ont/otrl#ODRL -->
<g id="edge3" class="edge">
<title>https://w3id.org/oseg/ont/otrl#Odrl&#45;&gt;https://w3id.org/oseg/ont/otrl#ODRL</title>
<path fill="none" stroke="black" d="M1554.05,-851.36C1570.76,-847.62 1587.29,-842.7 1602.57,-836.26 1611.91,-832.33 1611.43,-826.65 1620.57,-822.26 1691.41,-788.26 1718.1,-806.39 1792.57,-781.26 1828.17,-769.25 1867.15,-751.6 1894.92,-738.21"/>
<polygon fill="black" stroke="black" points="1896.79,-741.19 1904.25,-733.66 1893.73,-734.89 1896.79,-741.19"/>
<text text-anchor="middle" x="1706.57" y="-826.06" font-family="Times,serif" font-size="14.00">owl:sameAs</text>
</g>
<!-- https://w3id.org/oseg/ont/otrl#Odrl&#45;&gt;https://w3id.org/oseg/ont/otrl#ODRL -->
<g id="edge26" class="edge">
<title>https://w3id.org/oseg/ont/otrl#Odrl&#45;&gt;https://w3id.org/oseg/ont/otrl#ODRL</title>
<path fill="none" stroke="black" d="M1549.53,-873.54C1623.87,-874.77 1716.07,-868.09 1792.57,-837.26 1842.76,-817.04 1888.11,-771.55 1912.87,-743.33"/>
<polygon fill="black" stroke="black" points="1915.72,-745.38 1919.59,-735.52 1910.41,-740.82 1915.72,-745.38"/>
<text text-anchor="middle" x="1706.57" y="-876.06" font-family="Times,serif" font-size="14.00">schema:supersededBy</text>
</g>
<!-- https://w3id.org/oseg/ont/otrl#Odrl1 -->
<g id="node27" class="node">
<title>https://w3id.org/oseg/ont/otrl#Odrl1</title>
<ellipse fill="none" stroke="black" cx="807.65" cy="-845.26" rx="196.65" ry="16.03"/>
<text text-anchor="middle" x="807.65" y="-841.56" font-family="Times,serif" font-size="14.00">https://w3id.org/oseg/ont/otrl#Odrl1</text>
</g>
<!-- https://w3id.org/oseg/ont/otrl#Odrl1&#45;&gt;https://w3id.org/oseg/ont/otrl#ODRL1 -->
<g id="edge4" class="edge">
<title>https://w3id.org/oseg/ont/otrl#Odrl1&#45;&gt;https://w3id.org/oseg/ont/otrl#ODRL1</title>
<path fill="none" stroke="black" d="M938.36,-857.45C1034.58,-864.64 1156.93,-869.36 1204.14,-852.26 1213.94,-848.72 1212.62,-841.47 1222.14,-837.26 1256.52,-822.09 1297.53,-815.26 1332.57,-812.35"/>
<polygon fill="black" stroke="black" points="1333.05,-815.83 1342.77,-811.6 1332.54,-808.85 1333.05,-815.83"/>
<text text-anchor="middle" x="1124.14" y="-868.06" font-family="Times,serif" font-size="14.00">schema:supersededBy</text>
</g>
<!-- https://w3id.org/oseg/ont/otrl#Odrl1&#45;&gt;https://w3id.org/oseg/ont/otrl#ODRL1 -->
<g id="edge42" class="edge">
<title>https://w3id.org/oseg/ont/otrl#Odrl1&#45;&gt;https://w3id.org/oseg/ont/otrl#ODRL1</title>
<path fill="none" stroke="black" d="M970.56,-836.13C1088.69,-829.47 1243.49,-820.73 1334.71,-815.59"/>
<polygon fill="black" stroke="black" points="1334.91,-819.08 1344.69,-815.02 1334.51,-812.09 1334.91,-819.08"/>
<text text-anchor="middle" x="1124.14" y="-836.06" font-family="Times,serif" font-size="14.00">owl:sameAs</text>
</g>
<!-- https://w3id.org/oseg/ont/otrl#Otrl4 -->
<g id="node28" class="node">
<title>https://w3id.org/oseg/ont/otrl#Otrl4</title>
<ellipse fill="none" stroke="black" cx="807.65" cy="-396.26" rx="194.41" ry="16.03"/>
<text text-anchor="middle" x="807.65" y="-392.56" font-family="Times,serif" font-size="14.00">https://w3id.org/oseg/ont/otrl#Otrl4</text>
</g>
<!-- https://w3id.org/oseg/ont/otrl#Otrl4&#45;&gt;https://w3id.org/oseg/ont/otrl#OTRL4 -->
<g id="edge7" class="edge">
<title>https://w3id.org/oseg/ont/otrl#Otrl4&#45;&gt;https://w3id.org/oseg/ont/otrl#OTRL4</title>
<path fill="none" stroke="black" d="M1001.58,-397.48C1066.02,-397.17 1138.2,-396.06 1204.14,-393.26 1249.08,-391.36 1299.38,-387.52 1339.17,-384.07"/>
<polygon fill="black" stroke="black" points="1339.66,-387.55 1349.31,-383.19 1339.04,-380.57 1339.66,-387.55"/>
<text text-anchor="middle" x="1124.14" y="-401.06" font-family="Times,serif" font-size="14.00">owl:sameAs</text>
</g>
<!-- https://w3id.org/oseg/ont/otrl#Otrl4&#45;&gt;https://w3id.org/oseg/ont/otrl#OTRL4 -->
<g id="edge30" class="edge">
<title>https://w3id.org/oseg/ont/otrl#Otrl4&#45;&gt;https://w3id.org/oseg/ont/otrl#OTRL4</title>
<path fill="none" stroke="black" d="M924.68,-383.26C962.7,-379.58 1005.18,-376.08 1044.14,-374.26 1115.18,-370.95 1133.03,-373.75 1204.14,-374.26 1247.41,-374.58 1295.75,-375.26 1334.85,-375.89"/>
<polygon fill="black" stroke="black" points="1335.04,-379.4 1345.1,-376.06 1335.16,-372.4 1335.04,-379.4"/>
<text text-anchor="middle" x="1124.14" y="-378.06" font-family="Times,serif" font-size="14.00">schema:supersededBy</text>
</g>
<!-- https://w3id.org/oseg/ont/otrl#Otrl3 -->
<g id="node29" class="node">
<title>https://w3id.org/oseg/ont/otrl#Otrl3</title>
<ellipse fill="none" stroke="black" cx="807.65" cy="-177.26" rx="194.41" ry="16.03"/>
<text text-anchor="middle" x="807.65" y="-173.56" font-family="Times,serif" font-size="14.00">https://w3id.org/oseg/ont/otrl#Otrl3</text>
</g>
<!-- https://w3id.org/oseg/ont/otrl#Otrl3&#45;&gt;https://w3id.org/oseg/ont/otrl#OTRL3 -->
<g id="edge8" class="edge">
<title>https://w3id.org/oseg/ont/otrl#Otrl3&#45;&gt;https://w3id.org/oseg/ont/otrl#OTRL3</title>
<path fill="none" stroke="black" d="M1001.83,-175.98C1115.04,-175.23 1251.73,-174.32 1335.06,-173.77"/>
<polygon fill="black" stroke="black" points="1335.22,-177.27 1345.2,-173.7 1335.18,-170.27 1335.22,-177.27"/>
<text text-anchor="middle" x="1124.14" y="-180.06" font-family="Times,serif" font-size="14.00">owl:sameAs</text>
</g>
<!-- https://w3id.org/oseg/ont/otrl#Otrl3&#45;&gt;https://w3id.org/oseg/ont/otrl#OTRL3 -->
<g id="edge44" class="edge">
<title>https://w3id.org/oseg/ont/otrl#Otrl3&#45;&gt;https://w3id.org/oseg/ont/otrl#OTRL3</title>
<path fill="none" stroke="black" d="M928.61,-164.49C965.62,-161.11 1006.52,-157.94 1044.14,-156.26 1115.18,-153.1 1133.09,-153.35 1204.14,-156.26 1249.43,-158.12 1300.14,-162.24 1340.07,-165.97"/>
<polygon fill="black" stroke="black" points="1339.95,-169.47 1350.23,-166.93 1340.61,-162.5 1339.95,-169.47"/>
<text text-anchor="middle" x="1124.14" y="-160.06" font-family="Times,serif" font-size="14.00">schema:supersededBy</text>
</g>
<!-- https://w3id.org/oseg/ont/otrl#Otrl1 -->
<g id="node30" class="node">
<title>https://w3id.org/oseg/ont/otrl#Otrl1</title>
<ellipse fill="none" stroke="black" cx="807.65" cy="-99.26" rx="194.41" ry="16.03"/>
<text text-anchor="middle" x="807.65" y="-95.56" font-family="Times,serif" font-size="14.00">https://w3id.org/oseg/ont/otrl#Otrl1</text>
</g>
<!-- https://w3id.org/oseg/ont/otrl#Otrl1&#45;&gt;https://w3id.org/oseg/ont/otrl#OTRL1 -->
<g id="edge9" class="edge">
<title>https://w3id.org/oseg/ont/otrl#Otrl1&#45;&gt;https://w3id.org/oseg/ont/otrl#OTRL1</title>
<path fill="none" stroke="black" d="M997.28,-103.02C1111.43,-105.29 1250.78,-108.07 1335.22,-109.75"/>
<polygon fill="black" stroke="black" points="1335.17,-113.25 1345.23,-109.95 1335.31,-106.25 1335.17,-113.25"/>
<text text-anchor="middle" x="1124.14" y="-111.06" font-family="Times,serif" font-size="14.00">owl:sameAs</text>
</g>
<!-- https://w3id.org/oseg/ont/otrl#Otrl1&#45;&gt;https://w3id.org/oseg/ont/otrl#OTRL1 -->
<g id="edge29" class="edge">
<title>https://w3id.org/oseg/ont/otrl#Otrl1&#45;&gt;https://w3id.org/oseg/ont/otrl#OTRL1</title>
<path fill="none" stroke="black" d="M946.01,-87.81C1022.13,-83.12 1118.43,-79.91 1204.14,-85.26 1251.68,-88.23 1304.99,-95 1345.64,-100.89"/>
<polygon fill="black" stroke="black" points="1345.28,-104.37 1355.69,-102.36 1346.3,-97.45 1345.28,-104.37"/>
<text text-anchor="middle" x="1124.14" y="-89.06" font-family="Times,serif" font-size="14.00">schema:supersededBy</text>
</g>
<!-- https://w3id.org/oseg/ont/otrl#Otrl6 -->
<g id="node31" class="node">
<title>https://w3id.org/oseg/ont/otrl#Otrl6</title>
<ellipse fill="none" stroke="black" cx="807.65" cy="-320.26" rx="194.41" ry="16.03"/>
<text text-anchor="middle" x="807.65" y="-316.56" font-family="Times,serif" font-size="14.00">https://w3id.org/oseg/ont/otrl#Otrl6</text>
</g>
<!-- https://w3id.org/oseg/ont/otrl#Otrl6&#45;&gt;https://w3id.org/oseg/ont/otrl#OTRL6 -->
<g id="edge17" class="edge">
<title>https://w3id.org/oseg/ont/otrl#Otrl6&#45;&gt;https://w3id.org/oseg/ont/otrl#OTRL6</title>
<path fill="none" stroke="black" d="M1001,-322.18C1114.27,-323.31 1251.29,-324.67 1334.84,-325.5"/>
<polygon fill="black" stroke="black" points="1334.97,-329 1345.01,-325.6 1335.04,-322 1334.97,-329"/>
<text text-anchor="middle" x="1124.14" y="-328.06" font-family="Times,serif" font-size="14.00">owl:sameAs</text>
</g>
<!-- https://w3id.org/oseg/ont/otrl#Otrl6&#45;&gt;https://w3id.org/oseg/ont/otrl#OTRL6 -->
<g id="edge24" class="edge">
<title>https://w3id.org/oseg/ont/otrl#Otrl6&#45;&gt;https://w3id.org/oseg/ont/otrl#OTRL6</title>
<path fill="none" stroke="black" d="M943.23,-308.6C1019.75,-303.52 1117.34,-299.67 1204.14,-304.26 1250.6,-306.72 1302.67,-312.26 1343,-317.17"/>
<polygon fill="black" stroke="black" points="1342.63,-320.65 1352.98,-318.4 1343.49,-313.7 1342.63,-320.65"/>
<text text-anchor="middle" x="1124.14" y="-308.06" font-family="Times,serif" font-size="14.00">schema:supersededBy</text>
</g>
<!-- https://w3id.org/oseg/ont/otrl#Odrl2 -->
<g id="node32" class="node">
<title>https://w3id.org/oseg/ont/otrl#Odrl2</title>
<ellipse fill="none" stroke="black" cx="807.65" cy="-788.26" rx="196.65" ry="16.03"/>
<text text-anchor="middle" x="807.65" y="-784.56" font-family="Times,serif" font-size="14.00">https://w3id.org/oseg/ont/otrl#Odrl2</text>
</g>
<!-- https://w3id.org/oseg/ont/otrl#Odrl2&#45;&gt;https://w3id.org/oseg/ont/otrl#ODRL2 -->
<g id="edge18" class="edge">
<title>https://w3id.org/oseg/ont/otrl#Odrl2&#45;&gt;https://w3id.org/oseg/ont/otrl#ODRL2</title>
<path fill="none" stroke="black" d="M998.32,-784.31C1063.58,-782.47 1137.09,-779.87 1204.14,-776.26 1248.39,-773.89 1297.87,-770.11 1337.38,-766.82"/>
<polygon fill="black" stroke="black" points="1337.79,-770.3 1347.46,-765.97 1337.21,-763.32 1337.79,-770.3"/>
<text text-anchor="middle" x="1124.14" y="-787.06" font-family="Times,serif" font-size="14.00">owl:sameAs</text>
</g>
<!-- https://w3id.org/oseg/ont/otrl#Odrl2&#45;&gt;https://w3id.org/oseg/ont/otrl#ODRL2 -->
<g id="edge25" class="edge">
<title>https://w3id.org/oseg/ont/otrl#Odrl2&#45;&gt;https://w3id.org/oseg/ont/otrl#ODRL2</title>
<path fill="none" stroke="black" d="M897.56,-773.77C941.53,-767.31 995.48,-760.45 1044.14,-757.26 1115.1,-752.61 1133.03,-756.75 1204.14,-757.26 1246.75,-757.57 1294.27,-758.24 1333.05,-758.86"/>
<polygon fill="black" stroke="black" points="1333.17,-762.36 1343.23,-759.03 1333.29,-755.37 1333.17,-762.36"/>
<text text-anchor="middle" x="1124.14" y="-761.06" font-family="Times,serif" font-size="14.00">schema:supersededBy</text>
</g>
<!-- https://w3id.org/oseg/ont/otrl#Odrl3Star -->
<g id="node33" class="node">
<title>https://w3id.org/oseg/ont/otrl#Odrl3Star</title>
<ellipse fill="none" stroke="black" cx="807.65" cy="-634.26" rx="218.49" ry="16.03"/>
<text text-anchor="middle" x="807.65" y="-630.56" font-family="Times,serif" font-size="14.00">https://w3id.org/oseg/ont/otrl#Odrl3Star</text>
</g>
<!-- https://w3id.org/oseg/ont/otrl#Odrl3Star&#45;&gt;https://w3id.org/oseg/ont/otrl#ODRL3Star -->
<g id="edge19" class="edge">
<title>https://w3id.org/oseg/ont/otrl#Odrl3Star&#45;&gt;https://w3id.org/oseg/ont/otrl#ODRL3Star</title>
<path fill="none" stroke="black" d="M1019.02,-638.45C1118.31,-640.43 1232.14,-642.7 1311.52,-644.28"/>
<polygon fill="black" stroke="black" points="1311.94,-647.78 1322,-644.48 1312.08,-640.79 1311.94,-647.78"/>
<text text-anchor="middle" x="1124.14" y="-646.06" font-family="Times,serif" font-size="14.00">owl:sameAs</text>
</g>
<!-- https://w3id.org/oseg/ont/otrl#Odrl3Star&#45;&gt;https://w3id.org/oseg/ont/otrl#ODRL3Star -->
<g id="edge38" class="edge">
<title>https://w3id.org/oseg/ont/otrl#Odrl3Star&#45;&gt;https://w3id.org/oseg/ont/otrl#ODRL3Star</title>
<path fill="none" stroke="black" d="M955.24,-622.25C1029.81,-617.88 1121.86,-615.12 1204.14,-620.26 1246.99,-622.94 1294.54,-628.71 1333.27,-634.13"/>
<polygon fill="black" stroke="black" points="1333.04,-637.63 1343.43,-635.57 1334.02,-630.7 1333.04,-637.63"/>
<text text-anchor="middle" x="1124.14" y="-624.06" font-family="Times,serif" font-size="14.00">schema:supersededBy</text>
</g>
<!-- https://w3id.org/oseg/ont/otrl#Odrl5 -->
<g id="node34" class="node">
<title>https://w3id.org/oseg/ont/otrl#Odrl5</title>
<ellipse fill="none" stroke="black" cx="196.58" cy="-710.26" rx="196.65" ry="16.03"/>
<text text-anchor="middle" x="196.58" y="-706.56" font-family="Times,serif" font-size="14.00">https://w3id.org/oseg/ont/otrl#Odrl5</text>
</g>
<!-- https://w3id.org/oseg/ont/otrl#Odrl5&#45;&gt;https://w3id.org/oseg/ont/otrl#Odrl4 -->
<g id="edge23" class="edge">
<title>https://w3id.org/oseg/ont/otrl#Odrl5&#45;&gt;https://w3id.org/oseg/ont/otrl#Odrl4</title>
<path fill="none" stroke="black" d="M393.22,-710.26C510.43,-710.26 652.42,-710.26 735.81,-710.26"/>
<polygon fill="black" stroke="black" points="735.94,-713.76 745.94,-710.26 735.94,-706.76 735.94,-713.76"/>
<text text-anchor="middle" x="491.15" y="-714.06" font-family="Times,serif" font-size="14.00">schema:supersededBy</text>
</g>
<!-- https://w3id.org/oseg/ont/otrl#Odrl5&#45;&gt;https://w3id.org/oseg/ont/otrl#Odrl4 -->
<g id="edge47" class="edge">
<title>https://w3id.org/oseg/ont/otrl#Odrl5&#45;&gt;https://w3id.org/oseg/ont/otrl#Odrl4</title>
<path fill="none" stroke="black" d="M319.43,-697.54C349.39,-694.93 381.4,-692.58 411.15,-691.26 482.19,-688.11 500.1,-688.4 571.15,-691.26 628.23,-693.56 692.91,-698.98 740.02,-703.45"/>
<polygon fill="black" stroke="black" points="739.81,-706.95 750.1,-704.42 740.48,-699.98 739.81,-706.95"/>
<text text-anchor="middle" x="491.15" y="-695.06" font-family="Times,serif" font-size="14.00">owl:sameAs</text>
</g>
<!-- https://w3id.org/oseg/ont/otrl#Otrl2 -->
<g id="node35" class="node">
<title>https://w3id.org/oseg/ont/otrl#Otrl2</title>
<ellipse fill="none" stroke="black" cx="807.65" cy="-234.26" rx="194.41" ry="16.03"/>
<text text-anchor="middle" x="807.65" y="-230.56" font-family="Times,serif" font-size="14.00">https://w3id.org/oseg/ont/otrl#Otrl2</text>
</g>
<!-- https://w3id.org/oseg/ont/otrl#Otrl2&#45;&gt;https://w3id.org/oseg/ont/otrl#OTRL2 -->
<g id="edge28" class="edge">
<title>https://w3id.org/oseg/ont/otrl#Otrl2&#45;&gt;https://w3id.org/oseg/ont/otrl#OTRL2</title>
<path fill="none" stroke="black" d="M980.99,-241.7C1050.35,-243.55 1131.07,-244.26 1204.14,-241.26 1249.43,-239.41 1300.14,-235.28 1340.07,-231.56"/>
<polygon fill="black" stroke="black" points="1340.61,-235.03 1350.23,-230.6 1339.95,-228.06 1340.61,-235.03"/>
<text text-anchor="middle" x="1124.14" y="-248.06" font-family="Times,serif" font-size="14.00">owl:sameAs</text>
</g>
<!-- https://w3id.org/oseg/ont/otrl#Otrl2&#45;&gt;https://w3id.org/oseg/ont/otrl#OTRL2 -->
<g id="edge48" class="edge">
<title>https://w3id.org/oseg/ont/otrl#Otrl2&#45;&gt;https://w3id.org/oseg/ont/otrl#OTRL2</title>
<path fill="none" stroke="black" d="M967.9,-225.05C993.39,-223.89 1019.49,-222.89 1044.14,-222.26 1115.23,-220.45 1133.03,-221.92 1204.14,-222.26 1247.41,-222.47 1295.75,-222.93 1334.85,-223.35"/>
<polygon fill="black" stroke="black" points="1335.06,-226.85 1345.1,-223.46 1335.14,-219.85 1335.06,-226.85"/>
<text text-anchor="middle" x="1124.14" y="-226.06" font-family="Times,serif" font-size="14.00">schema:supersededBy</text>
</g>
<!-- https://w3id.org/oseg/ont/otrl#Otrl -->
<g id="node36" class="node">
<title>https://w3id.org/oseg/ont/otrl#Otrl</title>
<ellipse fill="none" stroke="black" cx="1412.36" cy="-275.26" rx="188.18" ry="16.03"/>
<text text-anchor="middle" x="1412.36" y="-271.56" font-family="Times,serif" font-size="14.00">https://w3id.org/oseg/ont/otrl#Otrl</text>
</g>
<!-- https://w3id.org/oseg/ont/otrl#Otrl&#45;&gt;https://w3id.org/oseg/ont/otrl#OTRL -->
<g id="edge35" class="edge">
<title>https://w3id.org/oseg/ont/otrl#Otrl&#45;&gt;https://w3id.org/oseg/ont/otrl#OTRL</title>
<path fill="none" stroke="black" d="M1597.15,-272.08C1689,-270.49 1794.74,-268.65 1862.55,-267.48"/>
<polygon fill="black" stroke="black" points="1862.74,-270.97 1872.68,-267.3 1862.62,-263.98 1862.74,-270.97"/>
<text text-anchor="middle" x="1706.57" y="-276.06" font-family="Times,serif" font-size="14.00">owl:sameAs</text>
</g>
<!-- https://w3id.org/oseg/ont/otrl#Otrl&#45;&gt;https://w3id.org/oseg/ont/otrl#OTRL -->
<g id="edge51" class="edge">
<title>https://w3id.org/oseg/ont/otrl#Otrl&#45;&gt;https://w3id.org/oseg/ont/otrl#OTRL</title>
<path fill="none" stroke="black" d="M1509.08,-261.28C1544.08,-256.81 1584.04,-252.46 1620.57,-250.26 1696.87,-245.68 1716.25,-245.92 1792.57,-250.26 1817.79,-251.7 1845.45,-254.58 1869.47,-257.51"/>
<polygon fill="black" stroke="black" points="1869.17,-261 1879.53,-258.76 1870.04,-254.05 1869.17,-261"/>
<text text-anchor="middle" x="1706.57" y="-254.06" font-family="Times,serif" font-size="14.00">schema:supersededBy</text>
</g>
<!-- https://w3id.org/oseg/ont/otrl#Otrl5 -->
<g id="node37" class="node">
<title>https://w3id.org/oseg/ont/otrl#Otrl5</title>
<ellipse fill="none" stroke="black" cx="807.65" cy="-16.26" rx="194.41" ry="16.03"/>
<text text-anchor="middle" x="807.65" y="-12.56" font-family="Times,serif" font-size="14.00">https://w3id.org/oseg/ont/otrl#Otrl5</text>
</g>
<!-- https://w3id.org/oseg/ont/otrl#Otrl5&#45;&gt;https://w3id.org/oseg/ont/otrl#OTRL5 -->
<g id="edge39" class="edge">
<title>https://w3id.org/oseg/ont/otrl#Otrl5&#45;&gt;https://w3id.org/oseg/ont/otrl#OTRL5</title>
<path fill="none" stroke="black" d="M989.89,-21.98C1105.32,-25.62 1248.86,-30.14 1335.13,-32.86"/>
<polygon fill="black" stroke="black" points="1335.26,-36.37 1345.37,-33.18 1335.48,-29.37 1335.26,-36.37"/>
<text text-anchor="middle" x="1124.14" y="-33.06" font-family="Times,serif" font-size="14.00">owl:sameAs</text>
</g>
<!-- https://w3id.org/oseg/ont/otrl#Otrl5&#45;&gt;https://w3id.org/oseg/ont/otrl#OTRL5 -->
<g id="edge53" class="edge">
<title>https://w3id.org/oseg/ont/otrl#Otrl5&#45;&gt;https://w3id.org/oseg/ont/otrl#OTRL5</title>
<path fill="none" stroke="black" d="M952.51,-5.38C1027.59,-1.44 1120.9,0.73 1204.14,-5.26 1252.77,-8.77 1307.33,-16.83 1348.25,-23.72"/>
<polygon fill="black" stroke="black" points="1347.9,-27.21 1358.35,-25.44 1349.08,-20.31 1347.9,-27.21"/>
<text text-anchor="middle" x="1124.14" y="-9.06" font-family="Times,serif" font-size="14.00">schema:supersededBy</text>
</g>
<!-- https://w3id.org/oseg/ont/otrl#Odrl3 -->
<g id="node38" class="node">
<title>https://w3id.org/oseg/ont/otrl#Odrl3</title>
<ellipse fill="none" stroke="black" cx="807.65" cy="-551.26" rx="196.65" ry="16.03"/>
<text text-anchor="middle" x="807.65" y="-547.56" font-family="Times,serif" font-size="14.00">https://w3id.org/oseg/ont/otrl#Odrl3</text>
</g>
<!-- https://w3id.org/oseg/ont/otrl#Odrl3&#45;&gt;https://w3id.org/oseg/ont/otrl#ODRL3 -->
<g id="edge49" class="edge">
<title>https://w3id.org/oseg/ont/otrl#Odrl3&#45;&gt;https://w3id.org/oseg/ont/otrl#ODRL3</title>
<path fill="none" stroke="black" d="M983.79,-558.53C1099.63,-563.33 1245.84,-569.4 1333.79,-573.05"/>
<polygon fill="black" stroke="black" points="1333.83,-576.55 1343.96,-573.47 1334.12,-569.56 1333.83,-576.55"/>
<text text-anchor="middle" x="1124.14" y="-572.06" font-family="Times,serif" font-size="14.00">owl:sameAs</text>
</g>
<!-- https://w3id.org/oseg/ont/otrl#Odrl3&#45;&gt;https://w3id.org/oseg/ont/otrl#ODRL3 -->
<g id="edge50" class="edge">
<title>https://w3id.org/oseg/ont/otrl#Odrl3&#45;&gt;https://w3id.org/oseg/ont/otrl#ODRL3</title>
<path fill="none" stroke="black" d="M913.7,-537.54C993.96,-529.84 1106.94,-525.03 1204.14,-543.26 1212.58,-544.85 1213.83,-548.11 1222.14,-550.26 1259.1,-559.85 1301.08,-566.07 1336.1,-570.01"/>
<polygon fill="black" stroke="black" points="1335.94,-573.52 1346.26,-571.12 1336.69,-566.56 1335.94,-573.52"/>
<text text-anchor="middle" x="1124.14" y="-547.06" font-family="Times,serif" font-size="14.00">schema:supersededBy</text>
</g>
</g>
</svg>
