<?xml version="1.0" encoding="UTF-8" standalone="no"?>
<!DOCTYPE svg PUBLIC "-//W3C//DTD SVG 1.1//EN"
 "http://www.w3.org/Graphics/SVG/1.1/DTD/svg11.dtd">
<!-- Generated by graphviz version 2.43.0 (0)
 -->
<!-- Title: G Pages: 1 -->
<svg width="2041pt" height="2019pt"
 viewBox="0.00 0.00 2041.00 2019.00" xmlns="http://www.w3.org/2000/svg" xmlns:xlink="http://www.w3.org/1999/xlink">
<g id="graph0" class="graph" transform="scale(1 1) rotate(0) translate(4 2015)">
<title>G</title>
<polygon fill="white" stroke="transparent" points="-4,4 -4,-2015 2037,-2015 2037,4 -4,4"/>
<!-- https://w3id.org/oseg/ont/otrl#ODRL1 -->
<g id="node1" class="node">
<title>https://w3id.org/oseg/ont/otrl#ODRL1</title>
<ellipse fill="none" stroke="#e377c2" cx="965.55" cy="-421.38" rx="69.09" ry="16.03"/>
<text text-anchor="middle" x="965.55" y="-417.68" font-family="Times,serif" font-size="14.00">otrl:ODRL1</text>
</g>
<!-- https://w3id.org/oseg/ont/otrl#ODRL -->
<g id="node6" class="node">
<title>https://w3id.org/oseg/ont/otrl#ODRL</title>
<ellipse fill="none" stroke="#e377c2" cx="1042.63" cy="-722.46" rx="62.87" ry="16.03"/>
<text text-anchor="middle" x="1042.63" y="-718.76" font-family="Times,serif" font-size="14.00">otrl:ODRL</text>
</g>
<!-- https://w3id.org/oseg/ont/otrl#ODRL1&#45;&gt;https://w3id.org/oseg/ont/otrl#ODRL -->
<g id="edge20" class="edge">
<title>https://w3id.org/oseg/ont/otrl#ODRL1&#45;&gt;https://w3id.org/oseg/ont/otrl#ODRL</title>
<path fill="none" stroke="black" d="M969.81,-438C982.52,-487.65 1020.3,-635.25 1035.84,-695.94"/>
<polygon fill="black" stroke="black" points="1032.52,-697.07 1038.39,-705.89 1039.3,-695.34 1032.52,-697.07"/>
</g>
<!-- https://w3id.org/oseg/ont/otrl#OTRL4 -->
<g id="node2" class="node">
<title>https://w3id.org/oseg/ont/otrl#OTRL4</title>
<ellipse fill="none" stroke="#e377c2" cx="878.03" cy="-1589.13" rx="67.35" ry="16.03"/>
<text text-anchor="middle" x="878.03" y="-1585.43" font-family="Times,serif" font-size="14.00">otrl:OTRL4</text>
</g>
<!-- https://w3id.org/oseg/ont/otrl#OTRL -->
<g id="node7" class="node">
<title>https://w3id.org/oseg/ont/otrl#OTRL</title>
<ellipse fill="none" stroke="#e377c2" cx="894.8" cy="-1371.54" rx="60.62" ry="16.03"/>
<text text-anchor="middle" x="894.8" y="-1367.84" font-family="Times,serif" font-size="14.00">otrl:OTRL</text>
</g>
<!-- https://w3id.org/oseg/ont/otrl#OTRL4&#45;&gt;https://w3id.org/oseg/ont/otrl#OTRL -->
<g id="edge12" class="edge">
<title>https://w3id.org/oseg/ont/otrl#OTRL4&#45;&gt;https://w3id.org/oseg/ont/otrl#OTRL</title>
<path fill="none" stroke="black" d="M879.29,-1572.77C882.17,-1535.44 889.24,-1443.67 892.76,-1398.1"/>
<polygon fill="black" stroke="black" points="896.25,-1398.32 893.53,-1388.09 889.27,-1397.79 896.25,-1398.32"/>
</g>
<!-- https://w3id.org/oseg/ont/otrl#OTRL6 -->
<g id="node3" class="node">
<title>https://w3id.org/oseg/ont/otrl#OTRL6</title>
<ellipse fill="none" stroke="#e377c2" cx="679.97" cy="-1597.2" rx="67.35" ry="16.03"/>
<text text-anchor="middle" x="679.97" y="-1593.5" font-family="Times,serif" font-size="14.00">otrl:OTRL6</text>
</g>
<!-- https://w3id.org/oseg/ont/otrl#OTRL6&#45;&gt;https://w3id.org/oseg/ont/otrl#OTRL -->
<g id="edge35" class="edge">
<title>https://w3id.org/oseg/ont/otrl#OTRL6&#45;&gt;https://w3id.org/oseg/ont/otrl#OTRL</title>
<path fill="none" stroke="black" d="M695.08,-1581.33C732.36,-1542.16 828.92,-1440.75 872.67,-1394.79"/>
<polygon fill="black" stroke="black" points="875.35,-1397.05 879.71,-1387.39 870.28,-1392.22 875.35,-1397.05"/>
</g>
<!-- https://w3id.org/oseg/ont/otrl#OTRL2 -->
<g id="node4" class="node">
<title>https://w3id.org/oseg/ont/otrl#OTRL2</title>
<ellipse fill="none" stroke="#e377c2" cx="1153.87" cy="-1599.77" rx="67.35" ry="16.03"/>
<text text-anchor="middle" x="1153.87" y="-1596.07" font-family="Times,serif" font-size="14.00">otrl:OTRL2</text>
</g>
<!-- https://w3id.org/oseg/ont/otrl#OTRL2&#45;&gt;https://w3id.org/oseg/ont/otrl#OTRL -->
<g id="edge13" class="edge">
<title>https://w3id.org/oseg/ont/otrl#OTRL2&#45;&gt;https://w3id.org/oseg/ont/otrl#OTRL</title>
<path fill="none" stroke="black" d="M1136.06,-1584.08C1091.04,-1544.42 972.56,-1440.04 920.25,-1393.96"/>
<polygon fill="black" stroke="black" points="922.55,-1391.32 912.74,-1387.34 917.93,-1396.57 922.55,-1391.32"/>
</g>
<!-- https://w3id.org/oseg/ont/otrl#OTRL3 -->
<g id="node5" class="node">
<title>https://w3id.org/oseg/ont/otrl#OTRL3</title>
<ellipse fill="none" stroke="#e377c2" cx="624.18" cy="-1483.49" rx="67.35" ry="16.03"/>
<text text-anchor="middle" x="624.18" y="-1479.79" font-family="Times,serif" font-size="14.00">otrl:OTRL3</text>
</g>
<!-- https://w3id.org/oseg/ont/otrl#OTRL3&#45;&gt;https://w3id.org/oseg/ont/otrl#OTRL -->
<g id="edge10" class="edge">
<title>https://w3id.org/oseg/ont/otrl#OTRL3&#45;&gt;https://w3id.org/oseg/ont/otrl#OTRL</title>
<path fill="none" stroke="black" d="M658.18,-1469.43C707.36,-1449.08 798.32,-1411.45 852.01,-1389.25"/>
<polygon fill="black" stroke="black" points="853.68,-1392.34 861.58,-1385.29 851,-1385.87 853.68,-1392.34"/>
</g>
<!-- https://w3id.org/oseg/ont/otrl#ODRL2 -->
<g id="node8" class="node">
<title>https://w3id.org/oseg/ont/otrl#ODRL2</title>
<ellipse fill="none" stroke="#e377c2" cx="1335.13" cy="-716.3" rx="69.09" ry="16.03"/>
<text text-anchor="middle" x="1335.13" y="-712.6" font-family="Times,serif" font-size="14.00">otrl:ODRL2</text>
</g>
<!-- https://w3id.org/oseg/ont/otrl#ODRL2&#45;&gt;https://w3id.org/oseg/ont/otrl#ODRL -->
<g id="edge2" class="edge">
<title>https://w3id.org/oseg/ont/otrl#ODRL2&#45;&gt;https://w3id.org/oseg/ont/otrl#ODRL</title>
<path fill="none" stroke="black" d="M1265.81,-717.76C1220.58,-718.71 1161.62,-719.95 1115.66,-720.92"/>
<polygon fill="black" stroke="black" points="1115.39,-717.43 1105.47,-721.14 1115.54,-724.42 1115.39,-717.43"/>
</g>
<!-- https://w3id.org/oseg/ont/otrl#ODRL4 -->
<g id="node9" class="node">
<title>https://w3id.org/oseg/ont/otrl#ODRL4</title>
<ellipse fill="none" stroke="#e377c2" cx="1126.7" cy="-487.26" rx="69.09" ry="16.03"/>
<text text-anchor="middle" x="1126.7" y="-483.56" font-family="Times,serif" font-size="14.00">otrl:ODRL4</text>
</g>
<!-- https://w3id.org/oseg/ont/otrl#ODRL4&#45;&gt;https://w3id.org/oseg/ont/otrl#ODRL -->
<g id="edge43" class="edge">
<title>https://w3id.org/oseg/ont/otrl#ODRL4&#45;&gt;https://w3id.org/oseg/ont/otrl#ODRL</title>
<path fill="none" stroke="black" d="M1120.79,-503.8C1106.34,-544.21 1069.16,-648.22 1051.81,-696.77"/>
<polygon fill="black" stroke="black" points="1048.49,-695.65 1048.42,-706.25 1055.08,-698.01 1048.49,-695.65"/>
</g>
<!-- https://w3id.org/oseg/ont/otrl#OTRL1 -->
<g id="node10" class="node">
<title>https://w3id.org/oseg/ont/otrl#OTRL1</title>
<ellipse fill="none" stroke="#e377c2" cx="1122.99" cy="-1532.63" rx="67.35" ry="16.03"/>
<text text-anchor="middle" x="1122.99" y="-1528.93" font-family="Times,serif" font-size="14.00">otrl:OTRL1</text>
</g>
<!-- https://w3id.org/oseg/ont/otrl#OTRL1&#45;&gt;https://w3id.org/oseg/ont/otrl#OTRL -->
<g id="edge6" class="edge">
<title>https://w3id.org/oseg/ont/otrl#OTRL1&#45;&gt;https://w3id.org/oseg/ont/otrl#OTRL</title>
<path fill="none" stroke="black" d="M1101.11,-1517.18C1060.05,-1488.2 971.4,-1425.61 924.81,-1392.72"/>
<polygon fill="black" stroke="black" points="926.81,-1389.85 916.62,-1386.94 922.77,-1395.57 926.81,-1389.85"/>
</g>
<!-- https://w3id.org/oseg/ont/otrl#OTRL5 -->
<g id="node11" class="node">
<title>https://w3id.org/oseg/ont/otrl#OTRL5</title>
<ellipse fill="none" stroke="#e377c2" cx="609.56" cy="-1326.86" rx="67.35" ry="16.03"/>
<text text-anchor="middle" x="609.56" y="-1323.16" font-family="Times,serif" font-size="14.00">otrl:OTRL5</text>
</g>
<!-- https://w3id.org/oseg/ont/otrl#OTRL5&#45;&gt;https://w3id.org/oseg/ont/otrl#OTRL -->
<g id="edge39" class="edge">
<title>https://w3id.org/oseg/ont/otrl#OTRL5&#45;&gt;https://w3id.org/oseg/ont/otrl#OTRL</title>
<path fill="none" stroke="black" d="M666.26,-1335.74C714.14,-1343.24 782.62,-1353.97 832.12,-1361.72"/>
<polygon fill="black" stroke="black" points="831.65,-1365.19 842.07,-1363.28 832.73,-1358.28 831.65,-1365.19"/>
</g>
<!-- https://w3id.org/oseg/ont/otrl#ODRL3Star -->
<g id="node12" class="node">
<title>https://w3id.org/oseg/ont/otrl#ODRL3Star</title>
<ellipse fill="none" stroke="#e377c2" cx="811.27" cy="-483.3" rx="90.52" ry="16.03"/>
<text text-anchor="middle" x="811.27" y="-479.6" font-family="Times,serif" font-size="14.00">otrl:ODRL3Star</text>
</g>
<!-- https://w3id.org/oseg/ont/otrl#ODRL3Star&#45;&gt;https://w3id.org/oseg/ont/otrl#ODRL -->
<g id="edge15" class="edge">
<title>https://w3id.org/oseg/ont/otrl#ODRL3Star&#45;&gt;https://w3id.org/oseg/ont/otrl#ODRL</title>
<path fill="none" stroke="black" d="M826.81,-499.36C866.82,-540.72 973.48,-650.98 1020.19,-699.27"/>
<polygon fill="black" stroke="black" points="1017.69,-701.71 1027.16,-706.46 1022.72,-696.84 1017.69,-701.71"/>
</g>
<!-- https://w3id.org/oseg/ont/otrl#ODRL3 -->
<g id="node13" class="node">
<title>https://w3id.org/oseg/ont/otrl#ODRL3</title>
<ellipse fill="none" stroke="#e377c2" cx="1295.38" cy="-567.06" rx="69.09" ry="16.03"/>
<text text-anchor="middle" x="1295.38" y="-563.36" font-family="Times,serif" font-size="14.00">otrl:ODRL3</text>
</g>
<!-- https://w3id.org/oseg/ont/otrl#ODRL3&#45;&gt;https://w3id.org/oseg/ont/otrl#ODRL -->
<g id="edge33" class="edge">
<title>https://w3id.org/oseg/ont/otrl#ODRL3&#45;&gt;https://w3id.org/oseg/ont/otrl#ODRL</title>
<path fill="none" stroke="black" d="M1270.22,-582.53C1224.4,-610.7 1127.34,-670.37 1076.04,-701.92"/>
<polygon fill="black" stroke="black" points="1074,-699.06 1067.31,-707.28 1077.66,-705.02 1074,-699.06"/>
</g>
<!-- https://www.gnu.org/licenses/gpl&#45;3.0.txt -->
<g id="node14" class="node">
<title>https://www.gnu.org/licenses/gpl&#45;3.0.txt</title>
<ellipse fill="none" stroke="#e377c2" cx="1489.18" cy="-1108.01" rx="85.62" ry="16.03"/>
<text text-anchor="middle" x="1489.18" y="-1104.31" font-family="Times,serif" font-size="14.00">ns1:gpl&#45;3.0.txt</text>
</g>
<!-- https://w3id.org/oseg/ont/otrl#goal -->
<g id="node15" class="node">
<title>https://w3id.org/oseg/ont/otrl#goal</title>
<ellipse fill="none" stroke="#e377c2" cx="918.95" cy="-1026.97" rx="54.39" ry="16.03"/>
<text text-anchor="middle" x="918.95" y="-1023.27" font-family="Times,serif" font-size="14.00">otrl:goal</text>
</g>
<!-- https://w3id.org/oseg/ont/otrl#goal&#45;&gt;https://w3id.org/oseg/ont/otrl#ODRL -->
<g id="edge1" class="edge">
<title>https://w3id.org/oseg/ont/otrl#goal&#45;&gt;https://w3id.org/oseg/ont/otrl#ODRL</title>
<path fill="none" stroke="black" d="M925.6,-1010.6C945.94,-960.51 1007.45,-809.07 1032.17,-748.2"/>
<polygon fill="black" stroke="black" points="1035.42,-749.49 1035.94,-738.91 1028.94,-746.86 1035.42,-749.49"/>
<text text-anchor="middle" x="892.89" y="-883.2" font-family="Times,serif" font-size="14.00">schema:domainIncludes</text>
</g>
<!-- https://w3id.org/oseg/ont/otrl#goal&#45;&gt;https://w3id.org/oseg/ont/otrl#OTRL -->
<g id="edge5" class="edge">
<title>https://w3id.org/oseg/ont/otrl#goal&#45;&gt;https://w3id.org/oseg/ont/otrl#OTRL</title>
<path fill="none" stroke="black" d="M917.79,-1043.59C913.92,-1098.86 901.44,-1276.81 896.68,-1344.8"/>
<polygon fill="black" stroke="black" points="893.17,-1344.87 895.96,-1355.09 900.15,-1345.36 893.17,-1344.87"/>
<text text-anchor="middle" x="821.23" y="-1197.99" font-family="Times,serif" font-size="14.00">schema:domainIncludes</text>
</g>
<!-- http://schema.org/Text -->
<g id="node16" class="node">
<title>http://schema.org/Text</title>
<ellipse fill="none" stroke="#e377c2" cx="1158.8" cy="-1024.66" rx="74.91" ry="16.03"/>
<text text-anchor="middle" x="1158.8" y="-1020.96" font-family="Times,serif" font-size="14.00">schema:Text</text>
</g>
<!-- https://w3id.org/oseg/ont/otrl#goal&#45;&gt;http://schema.org/Text -->
<g id="edge32" class="edge">
<title>https://w3id.org/oseg/ont/otrl#goal&#45;&gt;http://schema.org/Text</title>
<path fill="none" stroke="black" d="M973.38,-1026.45C1002.94,-1026.16 1040.16,-1025.8 1073.48,-1025.48"/>
<polygon fill="black" stroke="black" points="1073.71,-1028.98 1083.68,-1025.38 1073.65,-1021.98 1073.71,-1028.98"/>
<text text-anchor="middle" x="1002.43" y="-1029.76" font-family="Times,serif" font-size="14.00">range</text>
</g>
<!-- https://orcid.org/0009&#45;0004&#45;3559&#45;6542 -->
<g id="node17" class="node">
<title>https://orcid.org/0009&#45;0004&#45;3559&#45;6542</title>
<ellipse fill="none" stroke="#e377c2" cx="1919" cy="-1186.49" rx="113.69" ry="16.03"/>
<text text-anchor="middle" x="1919" y="-1182.79" font-family="Times,serif" font-size="14.00">orcid:0009&#45;0004&#45;3...</text>
</g>
<!-- https://w3id.org/oseg/ont/otrl#Odrl4 -->
<g id="node18" class="node">
<title>https://w3id.org/oseg/ont/otrl#Odrl4</title>
<ellipse fill="none" stroke="#e377c2" cx="1273.14" cy="-333.55" rx="61.54" ry="16.03"/>
<text text-anchor="middle" x="1273.14" y="-329.85" font-family="Times,serif" font-size="14.00">otrl:Odrl4</text>
</g>
<!-- https://w3id.org/oseg/ont/otrl#Odrl4&#45;&gt;https://w3id.org/oseg/ont/otrl#ODRL4 -->
<g id="edge21" class="edge">
<title>https://w3id.org/oseg/ont/otrl#Odrl4&#45;&gt;https://w3id.org/oseg/ont/otrl#ODRL4</title>
<path fill="none" stroke="black" d="M1252.15,-348.93C1222.75,-375.73 1170.19,-430.79 1143.31,-462.83"/>
<polygon fill="black" stroke="black" points="1140.39,-460.88 1136.76,-470.83 1145.8,-465.31 1140.39,-460.88"/>
<text text-anchor="middle" x="1117.73" y="-409.68" font-family="Times,serif" font-size="14.00">schema:supersededBy</text>
</g>
<!-- https://w3id.org/oseg/ont/otrl#Odrl4&#45;&gt;https://w3id.org/oseg/ont/otrl#ODRL4 -->
<g id="edge51" class="edge">
<title>https://w3id.org/oseg/ont/otrl#Odrl4&#45;&gt;https://w3id.org/oseg/ont/otrl#ODRL4</title>
<path fill="none" stroke="black" d="M1263.3,-349.69C1241.45,-377.24 1188.88,-433.02 1155.63,-464.49"/>
<polygon fill="black" stroke="black" points="1152.97,-462.19 1148.03,-471.56 1157.73,-467.31 1152.97,-462.19"/>
<text text-anchor="middle" x="1251.97" y="-410.89" font-family="Times,serif" font-size="14.00">owl:sameAs</text>
</g>
<!-- https://orcid.org/0000&#45;0002&#45;1611&#45;7129 -->
<g id="node19" class="node">
<title>https://orcid.org/0000&#45;0002&#45;1611&#45;7129</title>
<ellipse fill="none" stroke="#e377c2" cx="1701.93" cy="-1141.69" rx="113.69" ry="16.03"/>
<text text-anchor="middle" x="1701.93" y="-1137.99" font-family="Times,serif" font-size="14.00">orcid:0000&#45;0002&#45;1...</text>
</g>
<!-- http://id.loc.gov/vocabulary/iso639&#45;1/en -->
<g id="node20" class="node">
<title>http://id.loc.gov/vocabulary/iso639&#45;1/en</title>
<ellipse fill="none" stroke="#e377c2" cx="1696.58" cy="-1244.23" rx="45.01" ry="16.03"/>
<text text-anchor="middle" x="1696.58" y="-1240.53" font-family="Times,serif" font-size="14.00">ns2:en</text>
</g>
<!-- https://w3id.org/oseg/ont/otrl#exitCriteria -->
<g id="node21" class="node">
<title>https://w3id.org/oseg/ont/otrl#exitCriteria</title>
<ellipse fill="none" stroke="#e377c2" cx="1039.52" cy="-1068" rx="91.43" ry="16.03"/>
<text text-anchor="middle" x="1039.52" y="-1064.3" font-family="Times,serif" font-size="14.00">otrl:exitCriteria</text>
</g>
<!-- https://w3id.org/oseg/ont/otrl#exitCriteria&#45;&gt;https://w3id.org/oseg/ont/otrl#ODRL -->
<g id="edge38" class="edge">
<title>https://w3id.org/oseg/ont/otrl#exitCriteria&#45;&gt;https://w3id.org/oseg/ont/otrl#ODRL</title>
<path fill="none" stroke="black" d="M1039.67,-1051.34C1040.16,-995.91 1041.77,-817.45 1042.39,-749.28"/>
<polygon fill="black" stroke="black" points="1045.89,-748.99 1042.48,-738.96 1038.89,-748.92 1045.89,-748.99"/>
<text text-anchor="middle" x="955.03" y="-904.11" font-family="Times,serif" font-size="14.00">schema:domainIncludes</text>
</g>
<!-- https://w3id.org/oseg/ont/otrl#exitCriteria&#45;&gt;https://w3id.org/oseg/ont/otrl#OTRL -->
<g id="edge41" class="edge">
<title>https://w3id.org/oseg/ont/otrl#exitCriteria&#45;&gt;https://w3id.org/oseg/ont/otrl#OTRL</title>
<path fill="none" stroke="black" d="M1031.74,-1084.32C1007.93,-1134.25 935.97,-1285.2 907.04,-1345.88"/>
<polygon fill="black" stroke="black" points="903.77,-1344.61 902.62,-1355.14 910.09,-1347.62 903.77,-1344.61"/>
<text text-anchor="middle" x="883.39" y="-1218.9" font-family="Times,serif" font-size="14.00">schema:domainIncludes</text>
</g>
<!-- https://w3id.org/oseg/ont/otrl#exitCriteria&#45;&gt;http://schema.org/Text -->
<g id="edge14" class="edge">
<title>https://w3id.org/oseg/ont/otrl#exitCriteria&#45;&gt;http://schema.org/Text</title>
<path fill="none" stroke="black" d="M1079.9,-1053.33C1089.73,-1049.75 1100.35,-1045.9 1110.51,-1042.2"/>
<polygon fill="black" stroke="black" points="1111.87,-1045.43 1120.07,-1038.73 1109.48,-1038.86 1111.87,-1045.43"/>
<text text-anchor="middle" x="1074.2" y="-1036.57" font-family="Times,serif" font-size="14.00">range</text>
</g>
<!-- https://w3id.org/oseg/ont/otrl -->
<g id="node22" class="node">
<title>https://w3id.org/oseg/ont/otrl</title>
<ellipse fill="none" stroke="#e377c2" cx="1678.89" cy="-1191.29" rx="50.82" ry="16.03"/>
<text text-anchor="middle" x="1678.89" y="-1187.59" font-family="Times,serif" font-size="14.00">ns3:otrl</text>
</g>
<!-- https://w3id.org/oseg/ont/otrl&#45;&gt;https://www.gnu.org/licenses/gpl&#45;3.0.txt -->
<g id="edge11" class="edge">
<title>https://w3id.org/oseg/ont/otrl&#45;&gt;https://www.gnu.org/licenses/gpl&#45;3.0.txt</title>
<path fill="none" stroke="black" d="M1656.74,-1176.47C1629.39,-1162.12 1581.94,-1140.76 1544.49,-1125.6"/>
<polygon fill="black" stroke="black" points="1545.79,-1122.35 1535.2,-1121.89 1543.19,-1128.85 1545.79,-1122.35"/>
<text text-anchor="middle" x="1544.12" y="-1154.84" font-family="Times,serif" font-size="14.00">dcterms:license</text>
</g>
<!-- https://w3id.org/oseg/ont/otrl&#45;&gt;https://www.gnu.org/licenses/gpl&#45;3.0.txt -->
<g id="edge30" class="edge">
<title>https://w3id.org/oseg/ont/otrl&#45;&gt;https://www.gnu.org/licenses/gpl&#45;3.0.txt</title>
<path fill="none" stroke="black" d="M1640.58,-1180.41C1605.82,-1167.08 1555.13,-1144.81 1522.14,-1128.36"/>
<polygon fill="black" stroke="black" points="1523.42,-1125.08 1512.92,-1123.67 1520.24,-1131.32 1523.42,-1125.08"/>
<text text-anchor="middle" x="1546.36" y="-1143.18" font-family="Times,serif" font-size="14.00">cc:license</text>
</g>
<!-- https://w3id.org/oseg/ont/otrl&#45;&gt;https://orcid.org/0009&#45;0004&#45;3559&#45;6542 -->
<g id="edge19" class="edge">
<title>https://w3id.org/oseg/ont/otrl&#45;&gt;https://orcid.org/0009&#45;0004&#45;3559&#45;6542</title>
<path fill="none" stroke="black" d="M1729.81,-1190.28C1749.33,-1189.89 1772.54,-1189.42 1795.9,-1188.96"/>
<polygon fill="black" stroke="black" points="1795.99,-1192.45 1805.91,-1188.75 1795.85,-1185.46 1795.99,-1192.45"/>
<text text-anchor="middle" x="1762.86" y="-1178.42" font-family="Times,serif" font-size="14.00">dcterms:creator</text>
</g>
<!-- https://w3id.org/oseg/ont/otrl&#45;&gt;https://orcid.org/0000&#45;0002&#45;1611&#45;7129 -->
<g id="edge26" class="edge">
<title>https://w3id.org/oseg/ont/otrl&#45;&gt;https://orcid.org/0000&#45;0002&#45;1611&#45;7129</title>
<path fill="none" stroke="black" d="M1686.44,-1175.05C1687.58,-1172.59 1688.78,-1170.01 1689.99,-1167.41"/>
<polygon fill="black" stroke="black" points="1693.25,-1168.68 1694.29,-1158.14 1686.9,-1165.73 1693.25,-1168.68"/>
<text text-anchor="middle" x="1745.71" y="-1160.03" font-family="Times,serif" font-size="14.00">dcterms:creator</text>
</g>
<!-- https://w3id.org/oseg/ont/otrl&#45;&gt;http://id.loc.gov/vocabulary/iso639&#45;1/en -->
<g id="edge31" class="edge">
<title>https://w3id.org/oseg/ont/otrl&#45;&gt;http://id.loc.gov/vocabulary/iso639&#45;1/en</title>
<path fill="none" stroke="black" d="M1684.39,-1207.75C1685.5,-1211.07 1686.69,-1214.64 1687.88,-1218.19"/>
<polygon fill="black" stroke="black" points="1684.66,-1219.59 1691.15,-1227.97 1691.3,-1217.37 1684.66,-1219.59"/>
<text text-anchor="middle" x="1621.64" y="-1216.77" font-family="Times,serif" font-size="14.00">dcterms:language</text>
</g>
<!-- https://w3id.org/oseg/ont/1.1.0/otrl -->
<g id="node23" class="node">
<title>https://w3id.org/oseg/ont/1.1.0/otrl</title>
<ellipse fill="none" stroke="#e377c2" cx="1591.96" cy="-1333.41" rx="50.82" ry="16.03"/>
<text text-anchor="middle" x="1591.96" y="-1329.71" font-family="Times,serif" font-size="14.00">ns4:otrl</text>
</g>
<!-- https://w3id.org/oseg/ont/otrl&#45;&gt;https://w3id.org/oseg/ont/1.1.0/otrl -->
<g id="edge49" class="edge">
<title>https://w3id.org/oseg/ont/otrl&#45;&gt;https://w3id.org/oseg/ont/1.1.0/otrl</title>
<path fill="none" stroke="black" d="M1669.09,-1207.32C1654.02,-1231.95 1625.05,-1279.31 1607.22,-1308.45"/>
<polygon fill="black" stroke="black" points="1604.09,-1306.87 1601.86,-1317.23 1610.06,-1310.52 1604.09,-1306.87"/>
<text text-anchor="middle" x="1586.66" y="-1261.69" font-family="Times,serif" font-size="14.00">owl:versionIRI</text>
</g>
<!-- https://w3id.org/oseg/ont/otrl#Odrl -->
<g id="node24" class="node">
<title>https://w3id.org/oseg/ont/otrl#Odrl</title>
<ellipse fill="none" stroke="black" cx="660.79" cy="-590.07" rx="190.42" ry="16.03"/>
<text text-anchor="middle" x="660.79" y="-586.37" font-family="Times,serif" font-size="14.00">https://w3id.org/oseg/ont/otrl#Odrl</text>
</g>
<!-- https://w3id.org/oseg/ont/otrl#Odrl&#45;&gt;https://w3id.org/oseg/ont/otrl#ODRL -->
<g id="edge3" class="edge">
<title>https://w3id.org/oseg/ont/otrl#Odrl&#45;&gt;https://w3id.org/oseg/ont/otrl#ODRL</title>
<path fill="none" stroke="black" d="M694.68,-606.17C760.55,-632.43 906.36,-683.26 986.75,-708.25"/>
<polygon fill="black" stroke="black" points="986.1,-711.72 996.69,-711.32 988.16,-705.03 986.1,-711.72"/>
<text text-anchor="middle" x="798.22" y="-661.01" font-family="Times,serif" font-size="14.00">owl:sameAs</text>
</g>
<!-- https://w3id.org/oseg/ont/otrl#Odrl&#45;&gt;https://w3id.org/oseg/ont/otrl#ODRL -->
<g id="edge25" class="edge">
<title>https://w3id.org/oseg/ont/otrl#Odrl&#45;&gt;https://w3id.org/oseg/ont/otrl#ODRL</title>
<path fill="none" stroke="black" d="M720.85,-605.58C799.92,-630.34 936.71,-678 1003.57,-704.31"/>
<polygon fill="black" stroke="black" points="1002.33,-707.58 1012.92,-708.03 1004.92,-701.08 1002.33,-707.58"/>
<text text-anchor="middle" x="782.21" y="-643.74" font-family="Times,serif" font-size="14.00">schema:supersededBy</text>
</g>
<!-- https://w3id.org/oseg/ont/otrl#Odrl1 -->
<g id="node25" class="node">
<title>https://w3id.org/oseg/ont/otrl#Odrl1</title>
<ellipse fill="none" stroke="black" cx="895.83" cy="-15.98" rx="196.65" ry="16.03"/>
<text text-anchor="middle" x="895.83" y="-12.28" font-family="Times,serif" font-size="14.00">https://w3id.org/oseg/ont/otrl#Odrl1</text>
</g>
<!-- https://w3id.org/oseg/ont/otrl#Odrl1&#45;&gt;https://w3id.org/oseg/ont/otrl#ODRL1 -->
<g id="edge4" class="edge">
<title>https://w3id.org/oseg/ont/otrl#Odrl1&#45;&gt;https://w3id.org/oseg/ont/otrl#ODRL1</title>
<path fill="none" stroke="black" d="M895.77,-32.35C901.47,-94.71 939.56,-317.69 957.35,-394.87"/>
<polygon fill="black" stroke="black" points="953.99,-395.85 959.72,-404.76 960.79,-394.22 953.99,-395.85"/>
<text text-anchor="middle" x="846.56" y="-217.41" font-family="Times,serif" font-size="14.00">schema:supersededBy</text>
</g>
<!-- https://w3id.org/oseg/ont/otrl#Odrl1&#45;&gt;https://w3id.org/oseg/ont/otrl#ODRL1 -->
<g id="edge40" class="edge">
<title>https://w3id.org/oseg/ont/otrl#Odrl1&#45;&gt;https://w3id.org/oseg/ont/otrl#ODRL1</title>
<path fill="none" stroke="black" d="M901.61,-32.39C917.29,-94.69 955.72,-316.92 964.52,-394.46"/>
<polygon fill="black" stroke="black" points="961.08,-395.23 965.59,-404.81 968.04,-394.5 961.08,-395.23"/>
<text text-anchor="middle" x="890.56" y="-202.22" font-family="Times,serif" font-size="14.00">owl:sameAs</text>
</g>
<!-- https://w3id.org/oseg/ont/otrl#Otrl4 -->
<g id="node26" class="node">
<title>https://w3id.org/oseg/ont/otrl#Otrl4</title>
<ellipse fill="none" stroke="black" cx="876.2" cy="-1638.57" rx="194.41" ry="16.03"/>
<text text-anchor="middle" x="876.2" y="-1634.87" font-family="Times,serif" font-size="14.00">https://w3id.org/oseg/ont/otrl#Otrl4</text>
</g>
<!-- https://w3id.org/oseg/ont/otrl#Otrl4&#45;&gt;https://w3id.org/oseg/ont/otrl#OTRL4 -->
<g id="edge7" class="edge">
<title>https://w3id.org/oseg/ont/otrl#Otrl4&#45;&gt;https://w3id.org/oseg/ont/otrl#OTRL4</title>
<path fill="none" stroke="black" d="M883.24,-1622.07C883.49,-1619.98 883.68,-1617.79 883.79,-1615.59"/>
<polygon fill="black" stroke="black" points="887.29,-1615.42 883.79,-1605.42 880.29,-1615.42 887.29,-1615.42"/>
<text text-anchor="middle" x="926.01" y="-1607.63" font-family="Times,serif" font-size="14.00">owl:sameAs</text>
</g>
<!-- https://w3id.org/oseg/ont/otrl#Otrl4&#45;&gt;https://w3id.org/oseg/ont/otrl#OTRL4 -->
<g id="edge29" class="edge">
<title>https://w3id.org/oseg/ont/otrl#Otrl4&#45;&gt;https://w3id.org/oseg/ont/otrl#OTRL4</title>
<path fill="none" stroke="black" d="M870.42,-1622.15C870.31,-1620.07 870.27,-1617.91 870.31,-1615.73"/>
<polygon fill="black" stroke="black" points="873.81,-1615.84 870.98,-1605.63 866.83,-1615.37 873.81,-1615.84"/>
<text text-anchor="middle" x="790.37" y="-1607.74" font-family="Times,serif" font-size="14.00">schema:supersededBy</text>
</g>
<!-- https://w3id.org/oseg/ont/otrl#Otrl3 -->
<g id="node27" class="node">
<title>https://w3id.org/oseg/ont/otrl#Otrl3</title>
<ellipse fill="none" stroke="black" cx="251.51" cy="-1677.2" rx="194.41" ry="16.03"/>
<text text-anchor="middle" x="251.51" y="-1673.5" font-family="Times,serif" font-size="14.00">https://w3id.org/oseg/ont/otrl#Otrl3</text>
</g>
<!-- https://w3id.org/oseg/ont/otrl#Otrl3&#45;&gt;https://w3id.org/oseg/ont/otrl#OTRL3 -->
<g id="edge8" class="edge">
<title>https://w3id.org/oseg/ont/otrl#Otrl3&#45;&gt;https://w3id.org/oseg/ont/otrl#OTRL3</title>
<path fill="none" stroke="black" d="M291.62,-1661.19C366.52,-1626.05 526.06,-1543.02 593.31,-1504.08"/>
<polygon fill="black" stroke="black" points="595.31,-1506.97 602.16,-1498.89 591.77,-1500.93 595.31,-1506.97"/>
<text text-anchor="middle" x="399.96" y="-1586.44" font-family="Times,serif" font-size="14.00">owl:sameAs</text>
</g>
<!-- https://w3id.org/oseg/ont/otrl#Otrl3&#45;&gt;https://w3id.org/oseg/ont/otrl#OTRL3 -->
<g id="edge42" class="edge">
<title>https://w3id.org/oseg/ont/otrl#Otrl3&#45;&gt;https://w3id.org/oseg/ont/otrl#OTRL3</title>
<path fill="none" stroke="black" d="M274.89,-1661C335.67,-1625.04 499.34,-1539.62 579.18,-1501.81"/>
<polygon fill="black" stroke="black" points="580.92,-1504.86 588.49,-1497.44 577.95,-1498.52 580.92,-1504.86"/>
<text text-anchor="middle" x="347.03" y="-1570.21" font-family="Times,serif" font-size="14.00">schema:supersededBy</text>
</g>
<!-- https://w3id.org/oseg/ont/otrl#Otrl1 -->
<g id="node28" class="node">
<title>https://w3id.org/oseg/ont/otrl#Otrl1</title>
<ellipse fill="none" stroke="black" cx="1433.8" cy="-1796.49" rx="194.41" ry="16.03"/>
<text text-anchor="middle" x="1433.8" y="-1792.79" font-family="Times,serif" font-size="14.00">https://w3id.org/oseg/ont/otrl#Otrl1</text>
</g>
<!-- https://w3id.org/oseg/ont/otrl#Otrl1&#45;&gt;https://w3id.org/oseg/ont/otrl#OTRL1 -->
<g id="edge9" class="edge">
<title>https://w3id.org/oseg/ont/otrl#Otrl1&#45;&gt;https://w3id.org/oseg/ont/otrl#OTRL1</title>
<path fill="none" stroke="black" d="M1419.61,-1780.22C1372.5,-1734.48 1221.09,-1605.55 1154.66,-1554.09"/>
<polygon fill="black" stroke="black" points="1156.68,-1551.23 1146.61,-1547.93 1152.42,-1556.79 1156.68,-1551.23"/>
<text text-anchor="middle" x="1244.63" y="-1655.96" font-family="Times,serif" font-size="14.00">owl:sameAs</text>
</g>
<!-- https://w3id.org/oseg/ont/otrl#Otrl1&#45;&gt;https://w3id.org/oseg/ont/otrl#OTRL1 -->
<g id="edge28" class="edge">
<title>https://w3id.org/oseg/ont/otrl#Otrl1&#45;&gt;https://w3id.org/oseg/ont/otrl#OTRL1</title>
<path fill="none" stroke="black" d="M1409.05,-1780.34C1349.66,-1735.21 1200.22,-1608.38 1144.39,-1555.79"/>
<polygon fill="black" stroke="black" points="1146.5,-1552.97 1136.86,-1548.59 1141.67,-1558.03 1146.5,-1552.97"/>
<text text-anchor="middle" x="1196.72" y="-1671.87" font-family="Times,serif" font-size="14.00">schema:supersededBy</text>
</g>
<!-- https://w3id.org/oseg/ont/otrl#Otrl6 -->
<g id="node29" class="node">
<title>https://w3id.org/oseg/ont/otrl#Otrl6</title>
<ellipse fill="none" stroke="black" cx="472.95" cy="-1952.66" rx="194.41" ry="16.03"/>
<text text-anchor="middle" x="472.95" y="-1948.96" font-family="Times,serif" font-size="14.00">https://w3id.org/oseg/ont/otrl#Otrl6</text>
</g>
<!-- https://w3id.org/oseg/ont/otrl#Otrl6&#45;&gt;https://w3id.org/oseg/ont/otrl#OTRL6 -->
<g id="edge16" class="edge">
<title>https://w3id.org/oseg/ont/otrl#Otrl6&#45;&gt;https://w3id.org/oseg/ont/otrl#OTRL6</title>
<path fill="none" stroke="black" d="M486.26,-1936.15C524.72,-1879.27 634.17,-1691.59 669.23,-1622.76"/>
<polygon fill="black" stroke="black" points="672.52,-1624 673.85,-1613.49 666.26,-1620.88 672.52,-1624"/>
<text text-anchor="middle" x="535.25" y="-1783.25" font-family="Times,serif" font-size="14.00">owl:sameAs</text>
</g>
<!-- https://w3id.org/oseg/ont/otrl#Otrl6&#45;&gt;https://w3id.org/oseg/ont/otrl#OTRL6 -->
<g id="edge23" class="edge">
<title>https://w3id.org/oseg/ont/otrl#Otrl6&#45;&gt;https://w3id.org/oseg/ont/otrl#OTRL6</title>
<path fill="none" stroke="black" d="M479.07,-1936.37C506.62,-1879.5 616.71,-1689.9 661.3,-1621.79"/>
<polygon fill="black" stroke="black" points="664.27,-1623.63 666.89,-1613.37 658.44,-1619.76 664.27,-1623.63"/>
<text text-anchor="middle" x="490.18" y="-1767.88" font-family="Times,serif" font-size="14.00">schema:supersededBy</text>
</g>
<!-- https://w3id.org/oseg/ont/otrl#Odrl2 -->
<g id="node30" class="node">
<title>https://w3id.org/oseg/ont/otrl#Odrl2</title>
<ellipse fill="none" stroke="black" cx="1755.09" cy="-674.06" rx="196.65" ry="16.03"/>
<text text-anchor="middle" x="1755.09" y="-670.36" font-family="Times,serif" font-size="14.00">https://w3id.org/oseg/ont/otrl#Odrl2</text>
</g>
<!-- https://w3id.org/oseg/ont/otrl#Odrl2&#45;&gt;https://w3id.org/oseg/ont/otrl#ODRL2 -->
<g id="edge17" class="edge">
<title>https://w3id.org/oseg/ont/otrl#Odrl2&#45;&gt;https://w3id.org/oseg/ont/otrl#ODRL2</title>
<path fill="none" stroke="black" d="M1595.06,-683.55C1526.93,-689.92 1451.34,-698.04 1399.32,-704.79"/>
<polygon fill="black" stroke="black" points="1398.69,-701.34 1389.24,-706.12 1399.61,-708.28 1398.69,-701.34"/>
<text text-anchor="middle" x="1454.69" y="-697.97" font-family="Times,serif" font-size="14.00">owl:sameAs</text>
</g>
<!-- https://w3id.org/oseg/ont/otrl#Odrl2&#45;&gt;https://w3id.org/oseg/ont/otrl#ODRL2 -->
<g id="edge24" class="edge">
<title>https://w3id.org/oseg/ont/otrl#Odrl2&#45;&gt;https://w3id.org/oseg/ont/otrl#ODRL2</title>
<path fill="none" stroke="black" d="M1666.85,-688.6C1592.33,-697.66 1486.55,-708.23 1414.62,-713.75"/>
<polygon fill="black" stroke="black" points="1413.97,-710.28 1404.26,-714.52 1414.49,-717.27 1413.97,-710.28"/>
<text text-anchor="middle" x="1620.73" y="-704.97" font-family="Times,serif" font-size="14.00">schema:supersededBy</text>
</g>
<!-- https://w3id.org/oseg/ont/otrl#Odrl3Star -->
<g id="node31" class="node">
<title>https://w3id.org/oseg/ont/otrl#Odrl3Star</title>
<ellipse fill="none" stroke="black" cx="508.16" cy="-142.26" rx="218.49" ry="16.03"/>
<text text-anchor="middle" x="508.16" y="-138.56" font-family="Times,serif" font-size="14.00">https://w3id.org/oseg/ont/otrl#Odrl3Star</text>
</g>
<!-- https://w3id.org/oseg/ont/otrl#Odrl3Star&#45;&gt;https://w3id.org/oseg/ont/otrl#ODRL3Star -->
<g id="edge18" class="edge">
<title>https://w3id.org/oseg/ont/otrl#Odrl3Star&#45;&gt;https://w3id.org/oseg/ont/otrl#ODRL3Star</title>
<path fill="none" stroke="black" d="M518.98,-158.87C562.24,-214.72 722.21,-395.14 785.43,-459.93"/>
<polygon fill="black" stroke="black" points="783.13,-462.59 792.65,-467.25 788.12,-457.67 783.13,-462.59"/>
<text text-anchor="middle" x="609.71" y="-313.2" font-family="Times,serif" font-size="14.00">owl:sameAs</text>
</g>
<!-- https://w3id.org/oseg/ont/otrl#Odrl3Star&#45;&gt;https://w3id.org/oseg/ont/otrl#ODRL3Star -->
<g id="edge36" class="edge">
<title>https://w3id.org/oseg/ont/otrl#Odrl3Star&#45;&gt;https://w3id.org/oseg/ont/otrl#ODRL3Star</title>
<path fill="none" stroke="black" d="M527.36,-158.89C582.76,-214.42 741.61,-393.04 794.22,-458.79"/>
<polygon fill="black" stroke="black" points="791.71,-461.25 800.65,-466.94 797.21,-456.92 791.71,-461.25"/>
<text text-anchor="middle" x="580.79" y="-297.64" font-family="Times,serif" font-size="14.00">schema:supersededBy</text>
</g>
<!-- https://w3id.org/oseg/ont/otrl#Odrl5 -->
<g id="node32" class="node">
<title>https://w3id.org/oseg/ont/otrl#Odrl5</title>
<ellipse fill="none" stroke="black" cx="1292.91" cy="-292.93" rx="196.65" ry="16.03"/>
<text text-anchor="middle" x="1292.91" y="-289.23" font-family="Times,serif" font-size="14.00">https://w3id.org/oseg/ont/otrl#Odrl5</text>
</g>
<!-- https://w3id.org/oseg/ont/otrl#Odrl5&#45;&gt;https://w3id.org/oseg/ont/otrl#Odrl4 -->
<g id="edge22" class="edge">
<title>https://w3id.org/oseg/ont/otrl#Odrl5&#45;&gt;https://w3id.org/oseg/ont/otrl#Odrl4</title>
<path fill="none" stroke="black" d="M1277.42,-309.34C1277.34,-309.5 1277.26,-309.66 1277.18,-309.83"/>
<polygon fill="black" stroke="black" points="1274.74,-306.66 1273.96,-317.22 1281.16,-309.45 1274.74,-306.66"/>
<text text-anchor="middle" x="1357.3" y="-313.38" font-family="Times,serif" font-size="14.00">schema:supersededBy</text>
</g>
<!-- https://w3id.org/oseg/ont/otrl#Odrl5&#45;&gt;https://w3id.org/oseg/ont/otrl#Odrl4 -->
<g id="edge44" class="edge">
<title>https://w3id.org/oseg/ont/otrl#Odrl5&#45;&gt;https://w3id.org/oseg/ont/otrl#Odrl4</title>
<path fill="none" stroke="black" d="M1291.99,-309.49C1291.96,-309.58 1291.93,-309.66 1291.9,-309.75"/>
<polygon fill="black" stroke="black" points="1289.25,-307.09 1288.37,-317.64 1295.64,-309.94 1289.25,-307.09"/>
<text text-anchor="middle" x="1249.44" y="-313.42" font-family="Times,serif" font-size="14.00">owl:sameAs</text>
</g>
<!-- https://w3id.org/oseg/ont/otrl#Otrl2 -->
<g id="node33" class="node">
<title>https://w3id.org/oseg/ont/otrl#Otrl2</title>
<ellipse fill="none" stroke="black" cx="1276.43" cy="-1995.01" rx="194.41" ry="16.03"/>
<text text-anchor="middle" x="1276.43" y="-1991.31" font-family="Times,serif" font-size="14.00">https://w3id.org/oseg/ont/otrl#Otrl2</text>
</g>
<!-- https://w3id.org/oseg/ont/otrl#Otrl2&#45;&gt;https://w3id.org/oseg/ont/otrl#OTRL2 -->
<g id="edge27" class="edge">
<title>https://w3id.org/oseg/ont/otrl#Otrl2&#45;&gt;https://w3id.org/oseg/ont/otrl#OTRL2</title>
<path fill="none" stroke="black" d="M1274.33,-1978.67C1260.5,-1917.37 1193.61,-1700.8 1165.69,-1625.66"/>
<polygon fill="black" stroke="black" points="1168.85,-1624.12 1162.01,-1616.03 1162.3,-1626.62 1168.85,-1624.12"/>
<text text-anchor="middle" x="1177.51" y="-1790.97" font-family="Times,serif" font-size="14.00">owl:sameAs</text>
</g>
<!-- https://w3id.org/oseg/ont/otrl#Otrl2&#45;&gt;https://w3id.org/oseg/ont/otrl#OTRL2 -->
<g id="edge45" class="edge">
<title>https://w3id.org/oseg/ont/otrl#Otrl2&#45;&gt;https://w3id.org/oseg/ont/otrl#OTRL2</title>
<path fill="none" stroke="black" d="M1268.24,-1978.65C1244.21,-1917.49 1177.2,-1702.04 1158.4,-1626.32"/>
<polygon fill="black" stroke="black" points="1161.71,-1625.11 1155.99,-1616.19 1154.9,-1626.73 1161.71,-1625.11"/>
<text text-anchor="middle" x="1133.32" y="-1806.28" font-family="Times,serif" font-size="14.00">schema:supersededBy</text>
</g>
<!-- https://w3id.org/oseg/ont/otrl#Otrl -->
<g id="node34" class="node">
<title>https://w3id.org/oseg/ont/otrl#Otrl</title>
<ellipse fill="none" stroke="black" cx="1289.9" cy="-1449.12" rx="188.18" ry="16.03"/>
<text text-anchor="middle" x="1289.9" y="-1445.42" font-family="Times,serif" font-size="14.00">https://w3id.org/oseg/ont/otrl#Otrl</text>
</g>
<!-- https://w3id.org/oseg/ont/otrl#Otrl&#45;&gt;https://w3id.org/oseg/ont/otrl#OTRL -->
<g id="edge34" class="edge">
<title>https://w3id.org/oseg/ont/otrl#Otrl&#45;&gt;https://w3id.org/oseg/ont/otrl#OTRL</title>
<path fill="none" stroke="black" d="M1235.49,-1433.49C1164,-1416.99 1038.53,-1392.25 961.44,-1379.35"/>
<polygon fill="black" stroke="black" points="961.79,-1375.86 951.36,-1377.68 960.65,-1382.77 961.79,-1375.86"/>
<text text-anchor="middle" x="1055.96" y="-1395.22" font-family="Times,serif" font-size="14.00">owl:sameAs</text>
</g>
<!-- https://w3id.org/oseg/ont/otrl#Otrl&#45;&gt;https://w3id.org/oseg/ont/otrl#OTRL -->
<g id="edge48" class="edge">
<title>https://w3id.org/oseg/ont/otrl#Otrl&#45;&gt;https://w3id.org/oseg/ont/otrl#OTRL</title>
<path fill="none" stroke="black" d="M1189.06,-1435.39C1110.83,-1421.44 1005.76,-1400.38 944.65,-1386.12"/>
<polygon fill="black" stroke="black" points="945.4,-1382.7 934.86,-1383.8 943.79,-1389.51 945.4,-1382.7"/>
<text text-anchor="middle" x="986.85" y="-1414.55" font-family="Times,serif" font-size="14.00">schema:supersededBy</text>
</g>
<!-- https://w3id.org/oseg/ont/otrl#Otrl5 -->
<g id="node35" class="node">
<title>https://w3id.org/oseg/ont/otrl#Otrl5</title>
<ellipse fill="none" stroke="black" cx="193.97" cy="-1311.56" rx="194.41" ry="16.03"/>
<text text-anchor="middle" x="193.97" y="-1307.86" font-family="Times,serif" font-size="14.00">https://w3id.org/oseg/ont/otrl#Otrl5</text>
</g>
<!-- https://w3id.org/oseg/ont/otrl#Otrl5&#45;&gt;https://w3id.org/oseg/ont/otrl#OTRL5 -->
<g id="edge37" class="edge">
<title>https://w3id.org/oseg/ont/otrl#Otrl5&#45;&gt;https://w3id.org/oseg/ont/otrl#OTRL5</title>
<path fill="none" stroke="black" d="M331.84,-1323.04C398.74,-1326.2 476.6,-1328.73 532.82,-1329.41"/>
<polygon fill="black" stroke="black" points="533.02,-1332.92 543.06,-1329.52 533.1,-1325.92 533.02,-1332.92"/>
<text text-anchor="middle" x="474.83" y="-1330.03" font-family="Times,serif" font-size="14.00">owl:sameAs</text>
</g>
<!-- https://w3id.org/oseg/ont/otrl#Otrl5&#45;&gt;https://w3id.org/oseg/ont/otrl#OTRL5 -->
<g id="edge50" class="edge">
<title>https://w3id.org/oseg/ont/otrl#Otrl5&#45;&gt;https://w3id.org/oseg/ont/otrl#OTRL5</title>
<path fill="none" stroke="black" d="M388.63,-1311.99C442.31,-1313.86 497.15,-1316.39 538.77,-1319.02"/>
<polygon fill="black" stroke="black" points="538.58,-1322.52 548.79,-1319.68 539.04,-1315.53 538.58,-1322.52"/>
<text text-anchor="middle" x="463.7" y="-1304.31" font-family="Times,serif" font-size="14.00">schema:supersededBy</text>
</g>
<!-- https://w3id.org/oseg/ont/otrl#Odrl3 -->
<g id="node36" class="node">
<title>https://w3id.org/oseg/ont/otrl#Odrl3</title>
<ellipse fill="none" stroke="black" cx="1656.26" cy="-334.33" rx="196.65" ry="16.03"/>
<text text-anchor="middle" x="1656.26" y="-330.63" font-family="Times,serif" font-size="14.00">https://w3id.org/oseg/ont/otrl#Odrl3</text>
</g>
<!-- https://w3id.org/oseg/ont/otrl#Odrl3&#45;&gt;https://w3id.org/oseg/ont/otrl#ODRL3 -->
<g id="edge46" class="edge">
<title>https://w3id.org/oseg/ont/otrl#Odrl3&#45;&gt;https://w3id.org/oseg/ont/otrl#ODRL3</title>
<path fill="none" stroke="black" d="M1623.97,-350.45C1553.52,-391.41 1387.26,-498.66 1322.15,-545.18"/>
<polygon fill="black" stroke="black" points="1320.06,-542.38 1314.01,-551.07 1324.16,-548.05 1320.06,-542.38"/>
<text text-anchor="middle" x="1430.56" y="-451.62" font-family="Times,serif" font-size="14.00">owl:sameAs</text>
</g>
<!-- https://w3id.org/oseg/ont/otrl#Odrl3&#45;&gt;https://w3id.org/oseg/ont/otrl#ODRL3 -->
<g id="edge47" class="edge">
<title>https://w3id.org/oseg/ont/otrl#Odrl3&#45;&gt;https://w3id.org/oseg/ont/otrl#ODRL3</title>
<path fill="none" stroke="black" d="M1637.13,-350.68C1580.12,-392.42 1410.95,-501.87 1334.1,-547.17"/>
<polygon fill="black" stroke="black" points="1332.07,-544.3 1325.2,-552.36 1335.6,-550.34 1332.07,-544.3"/>
<text text-anchor="middle" x="1565.61" y="-452.72" font-family="Times,serif" font-size="14.00">schema:supersededBy</text>
</g>
</g>
</svg>
