<?xml version="1.0" encoding="UTF-8" standalone="no"?>
<!DOCTYPE svg PUBLIC "-//W3C//DTD SVG 1.1//EN"
 "http://www.w3.org/Graphics/SVG/1.1/DTD/svg11.dtd">
<!-- Generated by graphviz version 2.43.0 (0)
 -->
<!-- Title: G Pages: 1 -->
<svg width="632pt" height="970pt"
 viewBox="0.00 0.00 631.63 969.53" xmlns="http://www.w3.org/2000/svg" xmlns:xlink="http://www.w3.org/1999/xlink">
<g id="graph0" class="graph" transform="scale(1 1) rotate(0) translate(4 965.53)">
<title>G</title>
<polygon fill="white" stroke="transparent" points="-4,4 -4,-965.53 627.63,-965.53 627.63,4 -4,4"/>
<!-- http://www.w3.org/2002/07/owl#class -->
<g id="node1" class="node">
<title>http://www.w3.org/2002/07/owl#class</title>
<ellipse fill="none" stroke="#1f77b4" cx="566.36" cy="-343.26" rx="57.05" ry="16.03"/>
<text text-anchor="middle" x="566.36" y="-339.56" font-family="Times,serif" font-size="14.00">owl:class</text>
</g>
<!-- http://purl.org/oseg/ontologies/OTRL#ODRL -->
<g id="node2" class="node">
<title>http://purl.org/oseg/ontologies/OTRL#ODRL</title>
<ellipse fill="none" stroke="#e377c2" cx="566.36" cy="-61.26" rx="41.94" ry="16.03"/>
<text text-anchor="middle" x="566.36" y="-57.56" font-family="Times,serif" font-size="14.00">ODRL</text>
</g>
<!-- http://www.w3.org/2002/07/owl#DatatypeProperty -->
<g id="node3" class="node">
<title>http://www.w3.org/2002/07/owl#DatatypeProperty</title>
<ellipse fill="none" stroke="#1f77b4" cx="341.04" cy="-751.26" rx="123.07" ry="16.03"/>
<text text-anchor="middle" x="341.04" y="-747.56" font-family="Times,serif" font-size="14.00">owl:DatatypeProperty</text>
</g>
<!-- http://purl.org/oseg/ontologies/OTRL#OTRL -->
<g id="node4" class="node">
<title>http://purl.org/oseg/ontologies/OTRL#OTRL</title>
<ellipse fill="none" stroke="#e377c2" cx="341.04" cy="-462.26" rx="39.7" ry="16.03"/>
<text text-anchor="middle" x="341.04" y="-458.56" font-family="Times,serif" font-size="14.00">OTRL</text>
</g>
<!-- http://purl.org/oseg/ontologies/OTRL#OTRL&#45;&gt;http://www.w3.org/2002/07/owl#class -->
<g id="edge21" class="edge">
<title>http://purl.org/oseg/ontologies/OTRL#OTRL&#45;&gt;http://www.w3.org/2002/07/owl#class</title>
<path fill="none" stroke="black" d="M380.25,-459.72C411.88,-456.16 456.97,-447.65 491.08,-427.26 515.75,-412.52 536.66,-386.85 549.95,-367.75"/>
<polygon fill="black" stroke="black" points="553,-369.5 555.68,-359.25 547.19,-365.59 553,-369.5"/>
<text text-anchor="middle" x="486.58" y="-436.06" font-family="Times,serif" font-size="14.00">a</text>
</g>
<!-- http://www.w3.org/2002/07/owl#Ontology -->
<g id="node5" class="node">
<title>http://www.w3.org/2002/07/owl#Ontology</title>
<ellipse fill="none" stroke="#1f77b4" cx="341.04" cy="-810.26" rx="77.56" ry="16.03"/>
<text text-anchor="middle" x="341.04" y="-806.56" font-family="Times,serif" font-size="14.00">owl:Ontology</text>
</g>
<!-- http://purl.org/oseg/ontologies/OTRL#exitCriteria -->
<g id="node6" class="node">
<title>http://purl.org/oseg/ontologies/OTRL#exitCriteria</title>
<ellipse fill="none" stroke="#e377c2" cx="70" cy="-753.26" rx="70.01" ry="16.03"/>
<text text-anchor="middle" x="70" y="-749.56" font-family="Times,serif" font-size="14.00">exitCriteria</text>
</g>
<!-- http://purl.org/oseg/ontologies/OTRL#exitCriteria&#45;&gt;http://www.w3.org/2002/07/owl#DatatypeProperty -->
<g id="edge19" class="edge">
<title>http://purl.org/oseg/ontologies/OTRL#exitCriteria&#45;&gt;http://www.w3.org/2002/07/owl#DatatypeProperty</title>
<path fill="none" stroke="black" d="M140.29,-752.75C161.06,-752.59 184.58,-752.42 207.99,-752.25"/>
<polygon fill="black" stroke="black" points="208.04,-755.74 218.01,-752.17 207.99,-748.75 208.04,-755.74"/>
<text text-anchor="middle" x="179.01" y="-757.06" font-family="Times,serif" font-size="14.00">a</text>
</g>
<!-- http://schema.org/Text -->
<g id="node15" class="node">
<title>http://schema.org/Text</title>
<ellipse fill="none" stroke="#e377c2" cx="341.04" cy="-683.26" rx="74.91" ry="16.03"/>
<text text-anchor="middle" x="341.04" y="-679.56" font-family="Times,serif" font-size="14.00">schema:Text</text>
</g>
<!-- http://purl.org/oseg/ontologies/OTRL#exitCriteria&#45;&gt;http://schema.org/Text -->
<g id="edge13" class="edge">
<title>http://purl.org/oseg/ontologies/OTRL#exitCriteria&#45;&gt;http://schema.org/Text</title>
<path fill="none" stroke="black" d="M117.25,-741.23C162.93,-729.34 232.93,-711.13 282.25,-698.3"/>
<polygon fill="black" stroke="black" points="283.34,-701.63 292.13,-695.73 281.58,-694.86 283.34,-701.63"/>
<text text-anchor="middle" x="179.01" y="-735.06" font-family="Times,serif" font-size="14.00">range</text>
</g>
<!-- http://purl.org/oseg/ontologies/OTRL#Odrl4 -->
<g id="node7" class="node">
<title>http://purl.org/oseg/ontologies/OTRL#Odrl4</title>
<ellipse fill="none" stroke="#e377c2" cx="341.04" cy="-260.26" rx="40.11" ry="16.03"/>
<text text-anchor="middle" x="341.04" y="-256.56" font-family="Times,serif" font-size="14.00">Odrl4</text>
</g>
<!-- http://purl.org/oseg/ontologies/OTRL#Odrl4&#45;&gt;http://www.w3.org/2002/07/owl#class -->
<g id="edge1" class="edge">
<title>http://purl.org/oseg/ontologies/OTRL#Odrl4&#45;&gt;http://www.w3.org/2002/07/owl#class</title>
<path fill="none" stroke="black" d="M378.94,-266.01C409.76,-271.61 454.43,-281.59 491.08,-297.26 506.6,-303.9 522.67,-313.46 535.87,-322.15"/>
<polygon fill="black" stroke="black" points="534.27,-325.29 544.51,-327.98 538.18,-319.49 534.27,-325.29"/>
<text text-anchor="middle" x="486.58" y="-301.06" font-family="Times,serif" font-size="14.00">a</text>
</g>
<!-- http://purl.org/oseg/ontologies/OTRL#Odrl4&#45;&gt;http://purl.org/oseg/ontologies/OTRL#ODRL -->
<g id="edge16" class="edge">
<title>http://purl.org/oseg/ontologies/OTRL#Odrl4&#45;&gt;http://purl.org/oseg/ontologies/OTRL#ODRL</title>
<path fill="none" stroke="black" d="M377.26,-267.47C409.95,-272.07 458.37,-273.32 491.08,-249.26 543.36,-210.82 558.87,-129.83 563.45,-87.81"/>
<polygon fill="black" stroke="black" points="566.94,-88.07 564.41,-77.78 559.97,-87.4 566.94,-88.07"/>
</g>
<!-- http://www.w3.org/1999/02/22&#45;rdf&#45;syntax&#45;ns#nil -->
<g id="node8" class="node">
<title>http://www.w3.org/1999/02/22&#45;rdf&#45;syntax&#45;ns#nil</title>
<ellipse fill="none" stroke="#e377c2" cx="70" cy="-894.26" rx="42.35" ry="16.03"/>
<text text-anchor="middle" x="70" y="-890.56" font-family="Times,serif" font-size="14.00">rdf:nil</text>
</g>
<!-- http://purl.org/oseg/ontologies/OTRL#Otrl -->
<g id="node9" class="node">
<title>http://purl.org/oseg/ontologies/OTRL#Otrl</title>
<ellipse fill="none" stroke="#e377c2" cx="70" cy="-945.26" rx="31.64" ry="16.03"/>
<text text-anchor="middle" x="70" y="-941.56" font-family="Times,serif" font-size="14.00">Otrl</text>
</g>
<!-- http://purl.org/oseg/ontologies/OTRL#Odrl -->
<g id="node10" class="node">
<title>http://purl.org/oseg/ontologies/OTRL#Odrl</title>
<ellipse fill="none" stroke="#e377c2" cx="341.04" cy="-361.26" rx="33.88" ry="16.03"/>
<text text-anchor="middle" x="341.04" y="-357.56" font-family="Times,serif" font-size="14.00">Odrl</text>
</g>
<!-- http://purl.org/oseg/ontologies/OTRL#Odrl&#45;&gt;http://www.w3.org/2002/07/owl#class -->
<g id="edge5" class="edge">
<title>http://purl.org/oseg/ontologies/OTRL#Odrl&#45;&gt;http://www.w3.org/2002/07/owl#class</title>
<path fill="none" stroke="black" d="M374.99,-358.61C407.99,-355.95 459.64,-351.78 500.82,-348.47"/>
<polygon fill="black" stroke="black" points="501.36,-351.93 511.04,-347.64 500.8,-344.96 501.36,-351.93"/>
<text text-anchor="middle" x="486.58" y="-354.06" font-family="Times,serif" font-size="14.00">a</text>
</g>
<!-- http://purl.org/oseg/ontologies/OTRL#Otrl5 -->
<g id="node11" class="node">
<title>http://purl.org/oseg/ontologies/OTRL#Otrl5</title>
<ellipse fill="none" stroke="#e377c2" cx="70" cy="-550.26" rx="38.37" ry="16.03"/>
<text text-anchor="middle" x="70" y="-546.56" font-family="Times,serif" font-size="14.00">Otrl5</text>
</g>
<!-- http://purl.org/oseg/ontologies/OTRL#Otrl5&#45;&gt;http://www.w3.org/2002/07/owl#class -->
<g id="edge20" class="edge">
<title>http://purl.org/oseg/ontologies/OTRL#Otrl5&#45;&gt;http://www.w3.org/2002/07/owl#class</title>
<path fill="none" stroke="black" d="M107.34,-554.14C193.14,-562.58 405.46,-579.03 464.08,-542.26 525.82,-503.54 551.5,-414.37 560.78,-369.73"/>
<polygon fill="black" stroke="black" points="564.27,-370.14 562.76,-359.65 557.4,-368.79 564.27,-370.14"/>
<text text-anchor="middle" x="341.04" y="-569.06" font-family="Times,serif" font-size="14.00">a</text>
</g>
<!-- http://purl.org/oseg/ontologies/OTRL#Otrl5&#45;&gt;http://purl.org/oseg/ontologies/OTRL#OTRL -->
<g id="edge7" class="edge">
<title>http://purl.org/oseg/ontologies/OTRL#Otrl5&#45;&gt;http://purl.org/oseg/ontologies/OTRL#OTRL</title>
<path fill="none" stroke="black" d="M97.17,-538.7C126.27,-526.13 174.87,-506.01 218.01,-492.26 243.36,-484.19 272.25,-477 295.56,-471.68"/>
<polygon fill="black" stroke="black" points="296.52,-475.05 305.51,-469.45 294.98,-468.22 296.52,-475.05"/>
</g>
<!-- http://purl.org/oseg/ontologies/OTRL#Odrl2 -->
<g id="node12" class="node">
<title>http://purl.org/oseg/ontologies/OTRL#Odrl2</title>
<ellipse fill="none" stroke="#e377c2" cx="341.04" cy="-206.26" rx="40.11" ry="16.03"/>
<text text-anchor="middle" x="341.04" y="-202.56" font-family="Times,serif" font-size="14.00">Odrl2</text>
</g>
<!-- http://purl.org/oseg/ontologies/OTRL#Odrl2&#45;&gt;http://www.w3.org/2002/07/owl#class -->
<g id="edge22" class="edge">
<title>http://purl.org/oseg/ontologies/OTRL#Odrl2&#45;&gt;http://www.w3.org/2002/07/owl#class</title>
<path fill="none" stroke="black" d="M380.74,-209.65C405.86,-213.21 438.55,-220.46 464.08,-235.26 500.28,-256.25 531.4,-294.23 549.26,-319.09"/>
<polygon fill="black" stroke="black" points="546.4,-321.11 555.01,-327.29 552.13,-317.09 546.4,-321.11"/>
<text text-anchor="middle" x="486.58" y="-258.06" font-family="Times,serif" font-size="14.00">a</text>
</g>
<!-- http://purl.org/oseg/ontologies/OTRL#Odrl2&#45;&gt;http://purl.org/oseg/ontologies/OTRL#ODRL -->
<g id="edge2" class="edge">
<title>http://purl.org/oseg/ontologies/OTRL#Odrl2&#45;&gt;http://purl.org/oseg/ontologies/OTRL#ODRL</title>
<path fill="none" stroke="black" d="M381.55,-206.33C408.35,-204.22 442.66,-196.97 464.08,-175.26 488.16,-150.86 460.41,-126.83 482.08,-100.26 492,-88.1 506.58,-79.53 520.78,-73.58"/>
<polygon fill="black" stroke="black" points="522.4,-76.71 530.49,-69.87 519.9,-70.17 522.4,-76.71"/>
</g>
<!-- http://purl.org/oseg/ontologies/OTRL#goal -->
<g id="node13" class="node">
<title>http://purl.org/oseg/ontologies/OTRL#goal</title>
<ellipse fill="none" stroke="#e377c2" cx="70" cy="-677.26" rx="33.47" ry="16.03"/>
<text text-anchor="middle" x="70" y="-673.56" font-family="Times,serif" font-size="14.00">goal</text>
</g>
<!-- http://purl.org/oseg/ontologies/OTRL#goal&#45;&gt;http://www.w3.org/2002/07/owl#DatatypeProperty -->
<g id="edge6" class="edge">
<title>http://purl.org/oseg/ontologies/OTRL#goal&#45;&gt;http://www.w3.org/2002/07/owl#DatatypeProperty</title>
<path fill="none" stroke="black" d="M102.05,-681.98C128.36,-686.29 166.97,-693.33 200.01,-702.26 204.56,-703.49 249.81,-719.38 287.66,-732.73"/>
<polygon fill="black" stroke="black" points="286.5,-736.04 297.09,-736.07 288.83,-729.44 286.5,-736.04"/>
<text text-anchor="middle" x="179.01" y="-706.06" font-family="Times,serif" font-size="14.00">a</text>
</g>
<!-- http://purl.org/oseg/ontologies/OTRL#goal&#45;&gt;http://schema.org/Text -->
<g id="edge24" class="edge">
<title>http://purl.org/oseg/ontologies/OTRL#goal&#45;&gt;http://schema.org/Text</title>
<path fill="none" stroke="black" d="M96.41,-667.15C113.52,-660.91 136.74,-653.49 158.01,-650.26 204.01,-643.29 256.25,-654.78 292.93,-666.07"/>
<polygon fill="black" stroke="black" points="292.25,-669.52 302.84,-669.23 294.38,-662.86 292.25,-669.52"/>
<text text-anchor="middle" x="179.01" y="-654.06" font-family="Times,serif" font-size="14.00">range</text>
</g>
<!-- http://purl.org/oseg/ontologies/OTRL#Otrl2 -->
<g id="node14" class="node">
<title>http://purl.org/oseg/ontologies/OTRL#Otrl2</title>
<ellipse fill="none" stroke="#e377c2" cx="70" cy="-487.26" rx="38.37" ry="16.03"/>
<text text-anchor="middle" x="70" y="-483.56" font-family="Times,serif" font-size="14.00">Otrl2</text>
</g>
<!-- http://purl.org/oseg/ontologies/OTRL#Otrl2&#45;&gt;http://www.w3.org/2002/07/owl#class -->
<g id="edge23" class="edge">
<title>http://purl.org/oseg/ontologies/OTRL#Otrl2&#45;&gt;http://www.w3.org/2002/07/owl#class</title>
<path fill="none" stroke="black" d="M102,-496.23C171.39,-514.46 342.62,-549.15 464.08,-487.26 512.17,-462.76 542.1,-403.56 556.04,-369.17"/>
<polygon fill="black" stroke="black" points="559.34,-370.36 559.71,-359.77 552.82,-367.82 559.34,-370.36"/>
<text text-anchor="middle" x="341.04" y="-527.06" font-family="Times,serif" font-size="14.00">a</text>
</g>
<!-- http://purl.org/oseg/ontologies/OTRL#Otrl2&#45;&gt;http://purl.org/oseg/ontologies/OTRL#OTRL -->
<g id="edge17" class="edge">
<title>http://purl.org/oseg/ontologies/OTRL#Otrl2&#45;&gt;http://purl.org/oseg/ontologies/OTRL#OTRL</title>
<path fill="none" stroke="black" d="M107.4,-483.37C122.98,-481.74 141.38,-479.85 158.01,-478.26 203.28,-473.93 254.93,-469.44 291.62,-466.32"/>
<polygon fill="black" stroke="black" points="292.36,-469.77 302.03,-465.43 291.77,-462.79 292.36,-469.77"/>
</g>
<!-- http://purl.org/oseg/ontologies/OTRL#Otrl1 -->
<g id="node16" class="node">
<title>http://purl.org/oseg/ontologies/OTRL#Otrl1</title>
<ellipse fill="none" stroke="#e377c2" cx="70" cy="-337.26" rx="38.37" ry="16.03"/>
<text text-anchor="middle" x="70" y="-333.56" font-family="Times,serif" font-size="14.00">Otrl1</text>
</g>
<!-- http://purl.org/oseg/ontologies/OTRL#Otrl1&#45;&gt;http://www.w3.org/2002/07/owl#class -->
<g id="edge25" class="edge">
<title>http://purl.org/oseg/ontologies/OTRL#Otrl1&#45;&gt;http://www.w3.org/2002/07/owl#class</title>
<path fill="none" stroke="black" d="M106.62,-332.31C175.75,-323.47 332.85,-307.17 464.08,-321.26 480.37,-323.01 497.88,-326.3 513.69,-329.81"/>
<polygon fill="black" stroke="black" points="513.27,-333.31 523.8,-332.14 514.84,-326.48 513.27,-333.31"/>
<text text-anchor="middle" x="341.04" y="-325.06" font-family="Times,serif" font-size="14.00">a</text>
</g>
<!-- http://purl.org/oseg/ontologies/OTRL#Otrl1&#45;&gt;http://purl.org/oseg/ontologies/OTRL#OTRL -->
<g id="edge28" class="edge">
<title>http://purl.org/oseg/ontologies/OTRL#Otrl1&#45;&gt;http://purl.org/oseg/ontologies/OTRL#OTRL</title>
<path fill="none" stroke="black" d="M88.9,-351.68C115.51,-372.43 167.79,-410.59 218.01,-432.26 242.09,-442.66 270.46,-449.9 293.79,-454.67"/>
<polygon fill="black" stroke="black" points="293.3,-458.14 303.78,-456.62 294.64,-451.27 293.3,-458.14"/>
</g>
<!-- http://purl.org/oseg/ontologies/OTRL#Odrl3 -->
<g id="node17" class="node">
<title>http://purl.org/oseg/ontologies/OTRL#Odrl3</title>
<ellipse fill="none" stroke="#e377c2" cx="341.04" cy="-16.26" rx="40.11" ry="16.03"/>
<text text-anchor="middle" x="341.04" y="-12.56" font-family="Times,serif" font-size="14.00">Odrl3</text>
</g>
<!-- http://purl.org/oseg/ontologies/OTRL#Odrl3&#45;&gt;http://www.w3.org/2002/07/owl#class -->
<g id="edge26" class="edge">
<title>http://purl.org/oseg/ontologies/OTRL#Odrl3&#45;&gt;http://www.w3.org/2002/07/owl#class</title>
<path fill="none" stroke="black" d="M378.36,-22.5C405,-28.75 440.48,-40.8 464.08,-63.26 537.96,-133.61 558.12,-261.89 563.48,-316.98"/>
<polygon fill="black" stroke="black" points="560,-317.33 564.36,-326.98 566.97,-316.71 560,-317.33"/>
<text text-anchor="middle" x="486.58" y="-98.06" font-family="Times,serif" font-size="14.00">a</text>
</g>
<!-- http://purl.org/oseg/ontologies/OTRL#Odrl3&#45;&gt;http://purl.org/oseg/ontologies/OTRL#ODRL -->
<g id="edge4" class="edge">
<title>http://purl.org/oseg/ontologies/OTRL#Odrl3&#45;&gt;http://purl.org/oseg/ontologies/OTRL#ODRL</title>
<path fill="none" stroke="black" d="M377.58,-23.41C407.77,-29.48 452.27,-38.44 491.08,-46.26 500.17,-48.1 509.89,-50.06 519.2,-51.94"/>
<polygon fill="black" stroke="black" points="518.59,-55.39 529.09,-53.93 519.98,-48.52 518.59,-55.39"/>
</g>
<!-- http://purl.org/oseg/ontologies/OTRL#Otrl3 -->
<g id="node18" class="node">
<title>http://purl.org/oseg/ontologies/OTRL#Otrl3</title>
<ellipse fill="none" stroke="#e377c2" cx="70" cy="-426.26" rx="38.37" ry="16.03"/>
<text text-anchor="middle" x="70" y="-422.56" font-family="Times,serif" font-size="14.00">Otrl3</text>
</g>
<!-- http://purl.org/oseg/ontologies/OTRL#Otrl3&#45;&gt;http://www.w3.org/2002/07/owl#class -->
<g id="edge27" class="edge">
<title>http://purl.org/oseg/ontologies/OTRL#Otrl3&#45;&gt;http://www.w3.org/2002/07/owl#class</title>
<path fill="none" stroke="black" d="M108.23,-426.16C178.78,-425.16 336.35,-419.08 464.08,-386.26 486.4,-380.53 510.17,-370.65 529.07,-361.81"/>
<polygon fill="black" stroke="black" points="530.69,-364.92 538.2,-357.44 527.67,-358.6 530.69,-364.92"/>
<text text-anchor="middle" x="341.04" y="-426.06" font-family="Times,serif" font-size="14.00">a</text>
</g>
<!-- http://purl.org/oseg/ontologies/OTRL#Otrl3&#45;&gt;http://purl.org/oseg/ontologies/OTRL#OTRL -->
<g id="edge12" class="edge">
<title>http://purl.org/oseg/ontologies/OTRL#Otrl3&#45;&gt;http://purl.org/oseg/ontologies/OTRL#OTRL</title>
<path fill="none" stroke="black" d="M106.73,-431.04C154.57,-437.45 239.56,-448.82 292.69,-455.93"/>
<polygon fill="black" stroke="black" points="292.5,-459.43 302.87,-457.29 293.42,-452.49 292.5,-459.43"/>
</g>
<!-- http://purl.org/oseg/ontologies/OTRL -->
<g id="node19" class="node">
<title>http://purl.org/oseg/ontologies/OTRL</title>
<ellipse fill="none" stroke="#e377c2" cx="70" cy="-810.26" rx="60.62" ry="16.03"/>
<text text-anchor="middle" x="70" y="-806.56" font-family="Times,serif" font-size="14.00">ns1:OTRL</text>
</g>
<!-- http://purl.org/oseg/ontologies/OTRL&#45;&gt;http://www.w3.org/2002/07/owl#Ontology -->
<g id="edge10" class="edge">
<title>http://purl.org/oseg/ontologies/OTRL&#45;&gt;http://www.w3.org/2002/07/owl#Ontology</title>
<path fill="none" stroke="black" d="M131.05,-810.26C166.88,-810.26 213,-810.26 252.8,-810.26"/>
<polygon fill="black" stroke="black" points="253.04,-813.76 263.04,-810.26 253.04,-806.76 253.04,-813.76"/>
<text text-anchor="middle" x="179.01" y="-814.06" font-family="Times,serif" font-size="14.00">a</text>
</g>
<!-- http://purl.org/oseg/ontologies/OTRL&#45;&gt;http://purl.org/oseg/ontologies/OTRL -->
<g id="edge11" class="edge">
<title>http://purl.org/oseg/ontologies/OTRL&#45;&gt;http://purl.org/oseg/ontologies/OTRL</title>
<path fill="none" stroke="black" d="M51.18,-825.77C46.64,-835.38 52.92,-844.53 70,-844.53 80.68,-844.53 87.14,-840.95 89.37,-835.93"/>
<polygon fill="black" stroke="black" points="92.85,-835.57 88.82,-825.77 85.86,-835.94 92.85,-835.57"/>
<text text-anchor="middle" x="70" y="-848.33" font-family="Times,serif" font-size="14.00">owl:versionIRI</text>
</g>
<!-- http://purl.org/oseg/ontologies/OTRL#Odrl1 -->
<g id="node20" class="node">
<title>http://purl.org/oseg/ontologies/OTRL#Odrl1</title>
<ellipse fill="none" stroke="#e377c2" cx="341.04" cy="-150.26" rx="40.11" ry="16.03"/>
<text text-anchor="middle" x="341.04" y="-146.56" font-family="Times,serif" font-size="14.00">Odrl1</text>
</g>
<!-- http://purl.org/oseg/ontologies/OTRL#Odrl1&#45;&gt;http://www.w3.org/2002/07/owl#class -->
<g id="edge14" class="edge">
<title>http://purl.org/oseg/ontologies/OTRL#Odrl1&#45;&gt;http://www.w3.org/2002/07/owl#class</title>
<path fill="none" stroke="black" d="M380.96,-152.69C406.64,-155.97 439.89,-163.61 464.08,-181.26 511.88,-216.14 542.24,-281.08 556.25,-317.24"/>
<polygon fill="black" stroke="black" points="553.14,-318.92 559.93,-327.05 559.7,-316.46 553.14,-318.92"/>
<text text-anchor="middle" x="486.58" y="-210.06" font-family="Times,serif" font-size="14.00">a</text>
</g>
<!-- http://purl.org/oseg/ontologies/OTRL#Odrl1&#45;&gt;http://purl.org/oseg/ontologies/OTRL#ODRL -->
<g id="edge3" class="edge">
<title>http://purl.org/oseg/ontologies/OTRL#Odrl1&#45;&gt;http://purl.org/oseg/ontologies/OTRL#ODRL</title>
<path fill="none" stroke="black" d="M380.61,-146.73C406.8,-142.54 440.77,-133.36 464.08,-113.26 478.24,-101.06 467.17,-86.54 482.08,-75.26 491.4,-68.22 502.98,-64.2 514.51,-62.01"/>
<polygon fill="black" stroke="black" points="515.2,-65.45 524.58,-60.53 514.18,-58.52 515.2,-65.45"/>
</g>
<!-- http://purl.org/oseg/ontologies/OTRL#Otrl4 -->
<g id="node21" class="node">
<title>http://purl.org/oseg/ontologies/OTRL#Otrl4</title>
<ellipse fill="none" stroke="#e377c2" cx="70" cy="-607.26" rx="38.37" ry="16.03"/>
<text text-anchor="middle" x="70" y="-603.56" font-family="Times,serif" font-size="14.00">Otrl4</text>
</g>
<!-- http://purl.org/oseg/ontologies/OTRL#Otrl4&#45;&gt;http://www.w3.org/2002/07/owl#class -->
<g id="edge15" class="edge">
<title>http://purl.org/oseg/ontologies/OTRL#Otrl4&#45;&gt;http://www.w3.org/2002/07/owl#class</title>
<path fill="none" stroke="black" d="M103.75,-614.88C175.17,-629.6 347.86,-654.63 464.08,-584.26 539.83,-538.4 558.94,-422.44 563.75,-369.89"/>
<polygon fill="black" stroke="black" points="567.26,-369.93 564.57,-359.68 560.28,-369.37 567.26,-369.93"/>
<text text-anchor="middle" x="341.04" y="-636.06" font-family="Times,serif" font-size="14.00">a</text>
</g>
<!-- http://purl.org/oseg/ontologies/OTRL#Otrl4&#45;&gt;http://purl.org/oseg/ontologies/OTRL#OTRL -->
<g id="edge9" class="edge">
<title>http://purl.org/oseg/ontologies/OTRL#Otrl4&#45;&gt;http://purl.org/oseg/ontologies/OTRL#OTRL</title>
<path fill="none" stroke="black" d="M99.24,-596.5C112.16,-591 127.37,-583.69 140.01,-575.26 170.11,-555.19 176.7,-547.93 200.01,-520.26 209.54,-508.95 205.97,-500.86 218.01,-492.26 239.37,-477.01 267.6,-469.46 291.54,-465.75"/>
<polygon fill="black" stroke="black" points="292.07,-469.21 301.5,-464.39 291.11,-462.28 292.07,-469.21"/>
</g>
<!-- http://purl.org/oseg/ontologies/OTRL#Odrl3Star -->
<g id="node22" class="node">
<title>http://purl.org/oseg/ontologies/OTRL#Odrl3Star</title>
<ellipse fill="none" stroke="#e377c2" cx="341.04" cy="-88.26" rx="62.45" ry="16.03"/>
<text text-anchor="middle" x="341.04" y="-84.56" font-family="Times,serif" font-size="14.00">Odrl3Star</text>
</g>
<!-- http://purl.org/oseg/ontologies/OTRL#Odrl3Star&#45;&gt;http://www.w3.org/2002/07/owl#class -->
<g id="edge18" class="edge">
<title>http://purl.org/oseg/ontologies/OTRL#Odrl3Star&#45;&gt;http://www.w3.org/2002/07/owl#class</title>
<path fill="none" stroke="black" d="M397.38,-95.25C420.09,-100.44 445.38,-109.49 464.08,-125.26 524.47,-176.21 550.93,-271.03 560.61,-316.97"/>
<polygon fill="black" stroke="black" points="557.23,-317.91 562.63,-327.03 564.1,-316.53 557.23,-317.91"/>
<text text-anchor="middle" x="486.58" y="-157.06" font-family="Times,serif" font-size="14.00">a</text>
</g>
<!-- http://purl.org/oseg/ontologies/OTRL#Odrl3Star&#45;&gt;http://purl.org/oseg/ontologies/OTRL#ODRL -->
<g id="edge8" class="edge">
<title>http://purl.org/oseg/ontologies/OTRL#Odrl3Star&#45;&gt;http://purl.org/oseg/ontologies/OTRL#ODRL</title>
<path fill="none" stroke="black" d="M372.91,-74.23C402.69,-62.17 449.27,-47.18 491.08,-50.26 499.86,-50.91 509.19,-51.98 518.15,-53.21"/>
<polygon fill="black" stroke="black" points="517.67,-56.68 528.07,-54.65 518.68,-49.75 517.67,-56.68"/>
</g>
</g>
</svg>
