<?xml version="1.0" encoding="UTF-8" standalone="no"?>
<!DOCTYPE svg PUBLIC "-//W3C//DTD SVG 1.1//EN"
 "http://www.w3.org/Graphics/SVG/1.1/DTD/svg11.dtd">
<!-- Generated by graphviz version 2.43.0 (0)
 -->
<!-- Title: G Pages: 1 -->
<svg width="744pt" height="1382pt"
 viewBox="0.00 0.00 744.45 1382.26" xmlns="http://www.w3.org/2000/svg" xmlns:xlink="http://www.w3.org/1999/xlink">
<g id="graph0" class="graph" transform="scale(1 1) rotate(0) translate(4 1378.26)">
<title>G</title>
<polygon fill="white" stroke="transparent" points="-4,4 -4,-1378.26 740.45,-1378.26 740.45,4 -4,4"/>
<!-- http://www.w3.org/2002/07/owl#Ontology -->
<g id="node1" class="node">
<title>http://www.w3.org/2002/07/owl#Ontology</title>
<ellipse fill="none" stroke="#1f77b4" cx="453.87" cy="-16.26" rx="77.56" ry="16.03"/>
<text text-anchor="middle" x="453.87" y="-12.56" font-family="Times,serif" font-size="14.00">owl:Ontology</text>
</g>
<!-- http://purl.org/oseg/ontologies/OTRL#OTRL -->
<g id="node2" class="node">
<title>http://purl.org/oseg/ontologies/OTRL#OTRL</title>
<ellipse fill="none" stroke="#e377c2" cx="453.87" cy="-652.26" rx="39.7" ry="16.03"/>
<text text-anchor="middle" x="453.87" y="-648.56" font-family="Times,serif" font-size="14.00">OTRL</text>
</g>
<!-- http://www.w3.org/2002/07/owl#class -->
<g id="node5" class="node">
<title>http://www.w3.org/2002/07/owl#class</title>
<ellipse fill="none" stroke="#1f77b4" cx="679.18" cy="-942.26" rx="57.05" ry="16.03"/>
<text text-anchor="middle" x="679.18" y="-938.56" font-family="Times,serif" font-size="14.00">owl:class</text>
</g>
<!-- http://purl.org/oseg/ontologies/OTRL#OTRL&#45;&gt;http://www.w3.org/2002/07/owl#class -->
<g id="edge15" class="edge">
<title>http://purl.org/oseg/ontologies/OTRL#OTRL&#45;&gt;http://www.w3.org/2002/07/owl#class</title>
<path fill="none" stroke="black" d="M491.74,-657.18C525.37,-663.56 574.22,-677.85 603.9,-709.26 659.36,-767.96 673.41,-868.04 676.97,-915.62"/>
<polygon fill="black" stroke="black" points="673.49,-915.99 677.63,-925.74 680.47,-915.53 673.49,-915.99"/>
<text text-anchor="middle" x="599.4" y="-713.06" font-family="Times,serif" font-size="14.00">a</text>
</g>
<!-- http://www.w3.org/2002/07/owl#DatatypeProperty -->
<g id="node3" class="node">
<title>http://www.w3.org/2002/07/owl#DatatypeProperty</title>
<ellipse fill="none" stroke="#1f77b4" cx="453.87" cy="-225.26" rx="123.07" ry="16.03"/>
<text text-anchor="middle" x="453.87" y="-221.56" font-family="Times,serif" font-size="14.00">owl:DatatypeProperty</text>
</g>
<!-- http://purl.org/oseg/ontologies/OTRL#ODRL -->
<g id="node4" class="node">
<title>http://purl.org/oseg/ontologies/OTRL#ODRL</title>
<ellipse fill="none" stroke="#e377c2" cx="453.87" cy="-1246.26" rx="41.94" ry="16.03"/>
<text text-anchor="middle" x="453.87" y="-1242.56" font-family="Times,serif" font-size="14.00">ODRL</text>
</g>
<!-- http://purl.org/oseg/ontologies/OTRL#ODRL&#45;&gt;http://www.w3.org/2002/07/owl#class -->
<g id="edge2" class="edge">
<title>http://purl.org/oseg/ontologies/OTRL#ODRL&#45;&gt;http://www.w3.org/2002/07/owl#class</title>
<path fill="none" stroke="black" d="M495.59,-1247.45C528.94,-1246.17 575.17,-1238.9 603.9,-1211.26 672.34,-1145.43 679.52,-1022.72 679.13,-968.82"/>
<polygon fill="black" stroke="black" points="682.63,-968.64 678.96,-958.7 675.63,-968.76 682.63,-968.64"/>
<text text-anchor="middle" x="599.4" y="-1220.06" font-family="Times,serif" font-size="14.00">a</text>
</g>
<!-- http://schema.org/Text -->
<g id="node6" class="node">
<title>http://schema.org/Text</title>
<ellipse fill="none" stroke="#e377c2" cx="453.87" cy="-111.26" rx="74.91" ry="16.03"/>
<text text-anchor="middle" x="453.87" y="-107.56" font-family="Times,serif" font-size="14.00">schema:Text</text>
</g>
<!-- http://purl.org/oseg/ontologies/OTRL -->
<g id="node7" class="node">
<title>http://purl.org/oseg/ontologies/OTRL</title>
<ellipse fill="none" stroke="#e377c2" cx="120.92" cy="-16.26" rx="60.62" ry="16.03"/>
<text text-anchor="middle" x="120.92" y="-12.56" font-family="Times,serif" font-size="14.00">ns1:OTRL</text>
</g>
<!-- http://purl.org/oseg/ontologies/OTRL&#45;&gt;http://www.w3.org/2002/07/owl#Ontology -->
<g id="edge5" class="edge">
<title>http://purl.org/oseg/ontologies/OTRL&#45;&gt;http://www.w3.org/2002/07/owl#Ontology</title>
<path fill="none" stroke="black" d="M181.85,-16.26C233.16,-16.26 307.71,-16.26 365.63,-16.26"/>
<polygon fill="black" stroke="black" points="365.88,-19.76 375.88,-16.26 365.88,-12.76 365.88,-19.76"/>
<text text-anchor="middle" x="286.33" y="-20.06" font-family="Times,serif" font-size="14.00">a</text>
</g>
<!-- http://purl.org/oseg/ontologies/OTRL&#45;&gt;http://purl.org/oseg/ontologies/OTRL -->
<g id="edge26" class="edge">
<title>http://purl.org/oseg/ontologies/OTRL&#45;&gt;http://purl.org/oseg/ontologies/OTRL</title>
<path fill="none" stroke="black" d="M92.88,-31.06C84.98,-40.92 94.33,-50.53 120.92,-50.53 137.95,-50.53 147.9,-46.59 150.79,-41.16"/>
<polygon fill="black" stroke="black" points="154.18,-40.27 148.96,-31.06 147.29,-41.52 154.18,-40.27"/>
<text text-anchor="middle" x="120.92" y="-54.33" font-family="Times,serif" font-size="14.00">owl:versionIRI</text>
</g>
<!-- http://purl.org/oseg/ontologies/OTRL#OTRL&#45;2 -->
<g id="node8" class="node">
<title>http://purl.org/oseg/ontologies/OTRL#OTRL&#45;2</title>
<ellipse fill="none" stroke="#e377c2" cx="120.92" cy="-885.26" rx="49.49" ry="16.03"/>
<text text-anchor="middle" x="120.92" y="-881.56" font-family="Times,serif" font-size="14.00">OTRL&#45;2</text>
</g>
<!-- http://purl.org/oseg/ontologies/OTRL#OTRL&#45;2&#45;&gt;http://purl.org/oseg/ontologies/OTRL#OTRL -->
<g id="edge3" class="edge">
<title>http://purl.org/oseg/ontologies/OTRL#OTRL&#45;2&#45;&gt;http://purl.org/oseg/ontologies/OTRL#OTRL</title>
<path fill="none" stroke="black" d="M170.25,-887.01C195.04,-885.21 223.74,-878.51 241.83,-859.26 278.16,-820.6 227.93,-783.65 259.83,-741.26 264.92,-734.5 361.88,-691.71 416.4,-668.01"/>
<polygon fill="black" stroke="black" points="417.95,-671.16 425.73,-663.96 415.17,-664.73 417.95,-671.16"/>
</g>
<!-- http://purl.org/oseg/ontologies/OTRL#OTRL&#45;2&#45;&gt;http://www.w3.org/2002/07/owl#class -->
<g id="edge1" class="edge">
<title>http://purl.org/oseg/ontologies/OTRL#OTRL&#45;2&#45;&gt;http://www.w3.org/2002/07/owl#class</title>
<path fill="none" stroke="black" d="M170.28,-887.1C253.65,-890.7 429.63,-900.25 576.9,-921.26 592.51,-923.49 609.32,-926.66 624.67,-929.86"/>
<polygon fill="black" stroke="black" points="624.01,-933.3 634.52,-931.96 625.47,-926.45 624.01,-933.3"/>
<text text-anchor="middle" x="453.87" y="-925.06" font-family="Times,serif" font-size="14.00">a</text>
</g>
<!-- http://purl.org/oseg/ontologies/OTRL#ODRL&#45;2 -->
<g id="node9" class="node">
<title>http://purl.org/oseg/ontologies/OTRL#ODRL&#45;2</title>
<ellipse fill="none" stroke="#e377c2" cx="120.92" cy="-1272.26" rx="50.82" ry="16.03"/>
<text text-anchor="middle" x="120.92" y="-1268.56" font-family="Times,serif" font-size="14.00">ODRL&#45;2</text>
</g>
<!-- http://purl.org/oseg/ontologies/OTRL#ODRL&#45;2&#45;&gt;http://purl.org/oseg/ontologies/OTRL#ODRL -->
<g id="edge11" class="edge">
<title>http://purl.org/oseg/ontologies/OTRL#ODRL&#45;2&#45;&gt;http://purl.org/oseg/ontologies/OTRL#ODRL</title>
<path fill="none" stroke="black" d="M170.75,-1268.43C232.92,-1263.54 339.77,-1255.15 402.61,-1250.21"/>
<polygon fill="black" stroke="black" points="402.99,-1253.69 412.68,-1249.42 402.44,-1246.71 402.99,-1253.69"/>
</g>
<!-- http://purl.org/oseg/ontologies/OTRL#ODRL&#45;2&#45;&gt;http://www.w3.org/2002/07/owl#class -->
<g id="edge27" class="edge">
<title>http://purl.org/oseg/ontologies/OTRL#ODRL&#45;2&#45;&gt;http://www.w3.org/2002/07/owl#class</title>
<path fill="none" stroke="black" d="M169.49,-1277.44C271.32,-1287.69 506.83,-1306.63 576.9,-1271.26 632.6,-1243.15 664.81,-1042.07 674.8,-968.84"/>
<polygon fill="black" stroke="black" points="678.31,-968.99 676.16,-958.62 671.37,-968.07 678.31,-968.99"/>
<text text-anchor="middle" x="453.87" y="-1295.06" font-family="Times,serif" font-size="14.00">a</text>
</g>
<!-- http://purl.org/oseg/ontologies/OTRL#exitCriteria -->
<g id="node10" class="node">
<title>http://purl.org/oseg/ontologies/OTRL#exitCriteria</title>
<ellipse fill="none" stroke="#e377c2" cx="120.92" cy="-320.26" rx="70.01" ry="16.03"/>
<text text-anchor="middle" x="120.92" y="-316.56" font-family="Times,serif" font-size="14.00">exitCriteria</text>
</g>
<!-- http://purl.org/oseg/ontologies/OTRL#exitCriteria&#45;&gt;http://purl.org/oseg/ontologies/OTRL#OTRL -->
<g id="edge21" class="edge">
<title>http://purl.org/oseg/ontologies/OTRL#exitCriteria&#45;&gt;http://purl.org/oseg/ontologies/OTRL#OTRL</title>
<path fill="none" stroke="black" d="M147.7,-335.38C175.32,-352.95 218.34,-384.55 241.83,-423.26 260.06,-453.31 236.44,-474.03 259.83,-500.26 276.48,-518.94 296.7,-500.13 312.83,-519.26 342.51,-554.45 299.51,-587.53 330.83,-621.26 349.33,-641.19 378.66,-649.07 403.92,-651.91"/>
<polygon fill="black" stroke="black" points="403.83,-655.41 414.1,-652.81 404.45,-648.44 403.83,-655.41"/>
<text text-anchor="middle" x="286.33" y="-523.06" font-family="Times,serif" font-size="14.00">domain</text>
</g>
<!-- http://purl.org/oseg/ontologies/OTRL#exitCriteria&#45;&gt;http://www.w3.org/2002/07/owl#DatatypeProperty -->
<g id="edge4" class="edge">
<title>http://purl.org/oseg/ontologies/OTRL#exitCriteria&#45;&gt;http://www.w3.org/2002/07/owl#DatatypeProperty</title>
<path fill="none" stroke="black" d="M190.75,-318.39C227.62,-315.89 273.44,-310.35 312.83,-298.26 351.69,-286.34 392.5,-263.75 419.97,-246.84"/>
<polygon fill="black" stroke="black" points="422.13,-249.62 428.76,-241.35 418.42,-243.68 422.13,-249.62"/>
<text text-anchor="middle" x="286.33" y="-314.06" font-family="Times,serif" font-size="14.00">a</text>
</g>
<!-- http://purl.org/oseg/ontologies/OTRL#exitCriteria&#45;&gt;http://schema.org/Text -->
<g id="edge35" class="edge">
<title>http://purl.org/oseg/ontologies/OTRL#exitCriteria&#45;&gt;http://schema.org/Text</title>
<path fill="none" stroke="black" d="M164.47,-307.43C219.9,-290.63 310.13,-263 312.83,-260.26 332.39,-240.45 314.74,-222.99 330.83,-200.26 352.07,-170.27 386.63,-146.44 413.56,-131.02"/>
<polygon fill="black" stroke="black" points="415.34,-134.03 422.37,-126.11 411.93,-127.92 415.34,-134.03"/>
<text text-anchor="middle" x="286.33" y="-282.06" font-family="Times,serif" font-size="14.00">range</text>
</g>
<!-- http://purl.org/oseg/ontologies/OTRL#softwareDescription -->
<g id="node11" class="node">
<title>http://purl.org/oseg/ontologies/OTRL#softwareDescription</title>
<ellipse fill="none" stroke="#e377c2" cx="120.92" cy="-206.26" rx="113.69" ry="16.03"/>
<text text-anchor="middle" x="120.92" y="-202.56" font-family="Times,serif" font-size="14.00">softwareDescription</text>
</g>
<!-- http://purl.org/oseg/ontologies/OTRL#softwareDescription&#45;&gt;http://purl.org/oseg/ontologies/OTRL#OTRL -->
<g id="edge33" class="edge">
<title>http://purl.org/oseg/ontologies/OTRL#softwareDescription&#45;&gt;http://purl.org/oseg/ontologies/OTRL#OTRL</title>
<path fill="none" stroke="black" d="M217.91,-214.98C226.94,-219.15 235.19,-224.77 241.83,-232.26 270.26,-264.33 233.56,-390.41 259.83,-424.26 275.17,-444.03 297.42,-423.55 312.83,-443.26 361.81,-505.9 278.92,-561.04 330.83,-621.26 348.71,-642 378.3,-649.87 403.87,-652.49"/>
<polygon fill="black" stroke="black" points="403.92,-656.01 414.17,-653.3 404.47,-649.03 403.92,-656.01"/>
<text text-anchor="middle" x="286.33" y="-447.06" font-family="Times,serif" font-size="14.00">domain</text>
</g>
<!-- http://purl.org/oseg/ontologies/OTRL#softwareDescription&#45;&gt;http://www.w3.org/2002/07/owl#DatatypeProperty -->
<g id="edge29" class="edge">
<title>http://purl.org/oseg/ontologies/OTRL#softwareDescription&#45;&gt;http://www.w3.org/2002/07/owl#DatatypeProperty</title>
<path fill="none" stroke="black" d="M234.31,-204.56C260.12,-204.8 287.45,-205.57 312.83,-207.26 328.63,-208.32 345.37,-209.98 361.57,-211.89"/>
<polygon fill="black" stroke="black" points="361.23,-215.37 371.58,-213.1 362.07,-208.42 361.23,-215.37"/>
<text text-anchor="middle" x="286.33" y="-211.06" font-family="Times,serif" font-size="14.00">a</text>
</g>
<!-- http://purl.org/oseg/ontologies/OTRL#softwareDescription&#45;&gt;http://schema.org/Text -->
<g id="edge46" class="edge">
<title>http://purl.org/oseg/ontologies/OTRL#softwareDescription&#45;&gt;http://schema.org/Text</title>
<path fill="none" stroke="black" d="M215.92,-197.3C225.56,-193.21 234.48,-187.68 241.83,-180.26 269.62,-152.21 229.21,-118.2 259.83,-93.26 302.78,-58.29 370.27,-75.72 413.01,-92.63"/>
<polygon fill="black" stroke="black" points="411.68,-95.86 422.26,-96.43 414.35,-89.39 411.68,-95.86"/>
<text text-anchor="middle" x="286.33" y="-97.06" font-family="Times,serif" font-size="14.00">range</text>
</g>
<!-- http://purl.org/oseg/ontologies/OTRL#documentationDescription -->
<g id="node12" class="node">
<title>http://purl.org/oseg/ontologies/OTRL#documentationDescription</title>
<ellipse fill="none" stroke="#e377c2" cx="120.92" cy="-257.26" rx="120.83" ry="16.03"/>
<text text-anchor="middle" x="120.92" y="-253.56" font-family="Times,serif" font-size="14.00">documentationDesc...</text>
</g>
<!-- http://purl.org/oseg/ontologies/OTRL#documentationDescription&#45;&gt;http://purl.org/oseg/ontologies/OTRL#OTRL -->
<g id="edge23" class="edge">
<title>http://purl.org/oseg/ontologies/OTRL#documentationDescription&#45;&gt;http://purl.org/oseg/ontologies/OTRL#OTRL</title>
<path fill="none" stroke="black" d="M203.59,-269.19C218.23,-274.88 231.94,-283.18 241.83,-295.26 289.1,-353.05 213.65,-403.61 259.83,-462.26 275.31,-481.92 297.15,-461.76 312.83,-481.26 352.14,-530.15 289.23,-574.3 330.83,-621.26 348.92,-641.68 378.38,-649.56 403.82,-652.27"/>
<polygon fill="black" stroke="black" points="403.81,-655.78 414.06,-653.12 404.39,-648.81 403.81,-655.78"/>
<text text-anchor="middle" x="286.33" y="-485.06" font-family="Times,serif" font-size="14.00">domain</text>
</g>
<!-- http://purl.org/oseg/ontologies/OTRL#documentationDescription&#45;&gt;http://www.w3.org/2002/07/owl#DatatypeProperty -->
<g id="edge6" class="edge">
<title>http://purl.org/oseg/ontologies/OTRL#documentationDescription&#45;&gt;http://www.w3.org/2002/07/owl#DatatypeProperty</title>
<path fill="none" stroke="black" d="M219.87,-247.79C258.88,-244.02 303.93,-239.66 343.96,-235.79"/>
<polygon fill="black" stroke="black" points="344.4,-239.27 354.02,-234.82 343.73,-232.3 344.4,-239.27"/>
<text text-anchor="middle" x="286.33" y="-247.06" font-family="Times,serif" font-size="14.00">a</text>
</g>
<!-- http://purl.org/oseg/ontologies/OTRL#documentationDescription&#45;&gt;http://schema.org/Text -->
<g id="edge25" class="edge">
<title>http://purl.org/oseg/ontologies/OTRL#documentationDescription&#45;&gt;http://schema.org/Text</title>
<path fill="none" stroke="black" d="M217.44,-247.29C226.45,-243.33 234.82,-238.1 241.83,-231.26 266.06,-207.63 235.84,-181.14 259.83,-157.26 288.3,-128.93 330.87,-116.86 368.8,-112.12"/>
<polygon fill="black" stroke="black" points="369.28,-115.59 378.84,-111.02 368.52,-108.63 369.28,-115.59"/>
<text text-anchor="middle" x="286.33" y="-161.06" font-family="Times,serif" font-size="14.00">range</text>
</g>
<!-- http://purl.org/oseg/ontologies/OTRL#OTRL&#45;3 -->
<g id="node13" class="node">
<title>http://purl.org/oseg/ontologies/OTRL#OTRL&#45;3</title>
<ellipse fill="none" stroke="#e377c2" cx="120.92" cy="-834.26" rx="49.49" ry="16.03"/>
<text text-anchor="middle" x="120.92" y="-830.56" font-family="Times,serif" font-size="14.00">OTRL&#45;3</text>
</g>
<!-- http://purl.org/oseg/ontologies/OTRL#OTRL&#45;3&#45;&gt;http://purl.org/oseg/ontologies/OTRL#OTRL -->
<g id="edge16" class="edge">
<title>http://purl.org/oseg/ontologies/OTRL#OTRL&#45;3&#45;&gt;http://purl.org/oseg/ontologies/OTRL#OTRL</title>
<path fill="none" stroke="black" d="M169.18,-830.45C194.12,-825.98 223.3,-816.45 241.83,-796.26 266.47,-769.41 235.36,-743.27 259.83,-716.26 279.84,-694.17 357.45,-673.38 407.96,-661.78"/>
<polygon fill="black" stroke="black" points="409,-665.13 417.98,-659.52 407.46,-658.31 409,-665.13"/>
</g>
<!-- http://purl.org/oseg/ontologies/OTRL#OTRL&#45;3&#45;&gt;http://www.w3.org/2002/07/owl#class -->
<g id="edge31" class="edge">
<title>http://purl.org/oseg/ontologies/OTRL#OTRL&#45;3&#45;&gt;http://www.w3.org/2002/07/owl#class</title>
<path fill="none" stroke="black" d="M169.97,-831.5C254.71,-828.21 435.15,-828.33 576.9,-877.26 604.77,-886.88 632.69,-905.65 652.14,-920.55"/>
<polygon fill="black" stroke="black" points="650.16,-923.45 660.18,-926.88 654.48,-917.95 650.16,-923.45"/>
<text text-anchor="middle" x="453.87" y="-881.06" font-family="Times,serif" font-size="14.00">a</text>
</g>
<!-- http://purl.org/oseg/ontologies/OTRL#ODRL&#45;5 -->
<g id="node14" class="node">
<title>http://purl.org/oseg/ontologies/OTRL#ODRL&#45;5</title>
<ellipse fill="none" stroke="#e377c2" cx="120.92" cy="-1323.26" rx="50.82" ry="16.03"/>
<text text-anchor="middle" x="120.92" y="-1319.56" font-family="Times,serif" font-size="14.00">ODRL&#45;5</text>
</g>
<!-- http://purl.org/oseg/ontologies/OTRL#ODRL&#45;5&#45;&gt;http://purl.org/oseg/ontologies/OTRL#ODRL -->
<g id="edge8" class="edge">
<title>http://purl.org/oseg/ontologies/OTRL#ODRL&#45;5&#45;&gt;http://purl.org/oseg/ontologies/OTRL#ODRL</title>
<path fill="none" stroke="black" d="M163.87,-1314.42C186.91,-1309.5 215.98,-1303.19 241.83,-1297.26 273.09,-1290.1 356.03,-1269.93 408.14,-1257.2"/>
<polygon fill="black" stroke="black" points="409.24,-1260.54 418.12,-1254.77 407.58,-1253.74 409.24,-1260.54"/>
</g>
<!-- http://purl.org/oseg/ontologies/OTRL#ODRL&#45;5&#45;&gt;http://www.w3.org/2002/07/owl#class -->
<g id="edge34" class="edge">
<title>http://purl.org/oseg/ontologies/OTRL#ODRL&#45;5&#45;&gt;http://www.w3.org/2002/07/owl#class</title>
<path fill="none" stroke="black" d="M160.09,-1333.78C242.87,-1354.25 442.28,-1390.77 576.9,-1310.26 636.92,-1274.37 666.82,-1047.5 675.46,-968.97"/>
<polygon fill="black" stroke="black" points="678.95,-969.23 676.54,-958.91 671.99,-968.48 678.95,-969.23"/>
<text text-anchor="middle" x="453.87" y="-1363.06" font-family="Times,serif" font-size="14.00">a</text>
</g>
<!-- http://purl.org/oseg/ontologies/OTRL#OTRL&#45;8 -->
<g id="node15" class="node">
<title>http://purl.org/oseg/ontologies/OTRL#OTRL&#45;8</title>
<ellipse fill="none" stroke="#e377c2" cx="120.92" cy="-771.26" rx="49.49" ry="16.03"/>
<text text-anchor="middle" x="120.92" y="-767.56" font-family="Times,serif" font-size="14.00">OTRL&#45;8</text>
</g>
<!-- http://purl.org/oseg/ontologies/OTRL#OTRL&#45;8&#45;&gt;http://purl.org/oseg/ontologies/OTRL#OTRL -->
<g id="edge24" class="edge">
<title>http://purl.org/oseg/ontologies/OTRL#OTRL&#45;8&#45;&gt;http://purl.org/oseg/ontologies/OTRL#OTRL</title>
<path fill="none" stroke="black" d="M161.89,-762.05C187.07,-754.64 219.02,-742.13 241.83,-722.26 253.85,-711.8 246.88,-700.55 259.83,-691.26 301.97,-661.05 361.92,-652.95 403.8,-651.36"/>
<polygon fill="black" stroke="black" points="404.13,-654.85 414.03,-651.09 403.94,-647.86 404.13,-654.85"/>
</g>
<!-- http://purl.org/oseg/ontologies/OTRL#OTRL&#45;8&#45;&gt;http://www.w3.org/2002/07/owl#class -->
<g id="edge36" class="edge">
<title>http://purl.org/oseg/ontologies/OTRL#OTRL&#45;8&#45;&gt;http://www.w3.org/2002/07/owl#class</title>
<path fill="none" stroke="black" d="M167.21,-777.32C194.09,-780.8 228.87,-785.09 259.83,-788.26 400.49,-802.69 452.26,-747.52 576.9,-814.26 619.51,-837.08 650.29,-886.3 666.1,-916.62"/>
<polygon fill="black" stroke="black" points="663.07,-918.39 670.7,-925.75 669.32,-915.24 663.07,-918.39"/>
<text text-anchor="middle" x="453.87" y="-818.06" font-family="Times,serif" font-size="14.00">a</text>
</g>
<!-- http://purl.org/oseg/ontologies/OTRL#OTRL&#45;1 -->
<g id="node16" class="node">
<title>http://purl.org/oseg/ontologies/OTRL#OTRL&#45;1</title>
<ellipse fill="none" stroke="#e377c2" cx="120.92" cy="-992.26" rx="49.49" ry="16.03"/>
<text text-anchor="middle" x="120.92" y="-988.56" font-family="Times,serif" font-size="14.00">OTRL&#45;1</text>
</g>
<!-- http://purl.org/oseg/ontologies/OTRL#OTRL&#45;1&#45;&gt;http://purl.org/oseg/ontologies/OTRL#OTRL -->
<g id="edge13" class="edge">
<title>http://purl.org/oseg/ontologies/OTRL#OTRL&#45;1&#45;&gt;http://purl.org/oseg/ontologies/OTRL#OTRL</title>
<path fill="none" stroke="black" d="M170.28,-990.21C193.89,-987.05 221.51,-979.92 241.83,-964.26 295.22,-923.13 291.51,-894.2 312.83,-830.26 329.06,-781.6 300.94,-757.95 330.83,-716.26 349.77,-689.86 382.96,-673.46 409.95,-663.88"/>
<polygon fill="black" stroke="black" points="411.21,-667.15 419.58,-660.65 408.99,-660.51 411.21,-667.15"/>
</g>
<!-- http://purl.org/oseg/ontologies/OTRL#OTRL&#45;1&#45;&gt;http://www.w3.org/2002/07/owl#class -->
<g id="edge10" class="edge">
<title>http://purl.org/oseg/ontologies/OTRL#OTRL&#45;1&#45;&gt;http://www.w3.org/2002/07/owl#class</title>
<path fill="none" stroke="black" d="M170.23,-990.54C253.5,-987.21 429.36,-978.51 576.9,-960.26 591.59,-958.45 607.38,-955.92 622.03,-953.33"/>
<polygon fill="black" stroke="black" points="622.73,-956.76 631.95,-951.54 621.49,-949.87 622.73,-956.76"/>
<text text-anchor="middle" x="453.87" y="-985.06" font-family="Times,serif" font-size="14.00">a</text>
</g>
<!-- http://purl.org/oseg/ontologies/OTRL#OTRL&#45;6 -->
<g id="node17" class="node">
<title>http://purl.org/oseg/ontologies/OTRL#OTRL&#45;6</title>
<ellipse fill="none" stroke="#e377c2" cx="120.92" cy="-939.26" rx="49.49" ry="16.03"/>
<text text-anchor="middle" x="120.92" y="-935.56" font-family="Times,serif" font-size="14.00">OTRL&#45;6</text>
</g>
<!-- http://purl.org/oseg/ontologies/OTRL#OTRL&#45;6&#45;&gt;http://purl.org/oseg/ontologies/OTRL#OTRL -->
<g id="edge40" class="edge">
<title>http://purl.org/oseg/ontologies/OTRL#OTRL&#45;6&#45;&gt;http://purl.org/oseg/ontologies/OTRL#OTRL</title>
<path fill="none" stroke="black" d="M170.1,-937.32C193.94,-934.12 221.83,-926.74 241.83,-910.26 315.05,-849.95 265.55,-785.09 330.83,-716.26 353.24,-692.64 386.32,-676.04 412.38,-665.68"/>
<polygon fill="black" stroke="black" points="413.9,-668.85 422,-662.01 411.4,-662.31 413.9,-668.85"/>
</g>
<!-- http://purl.org/oseg/ontologies/OTRL#OTRL&#45;6&#45;&gt;http://www.w3.org/2002/07/owl#class -->
<g id="edge37" class="edge">
<title>http://purl.org/oseg/ontologies/OTRL#OTRL&#45;6&#45;&gt;http://www.w3.org/2002/07/owl#class</title>
<path fill="none" stroke="black" d="M170.79,-939.53C270.67,-940.07 498.28,-941.29 611.57,-941.9"/>
<polygon fill="black" stroke="black" points="611.82,-945.41 621.84,-941.96 611.85,-938.41 611.82,-945.41"/>
<text text-anchor="middle" x="453.87" y="-945.06" font-family="Times,serif" font-size="14.00">a</text>
</g>
<!-- http://purl.org/oseg/ontologies/OTRL#OTRL&#45;5 -->
<g id="node18" class="node">
<title>http://purl.org/oseg/ontologies/OTRL#OTRL&#45;5</title>
<ellipse fill="none" stroke="#e377c2" cx="120.92" cy="-697.26" rx="49.49" ry="16.03"/>
<text text-anchor="middle" x="120.92" y="-693.56" font-family="Times,serif" font-size="14.00">OTRL&#45;5</text>
</g>
<!-- http://purl.org/oseg/ontologies/OTRL#OTRL&#45;5&#45;&gt;http://purl.org/oseg/ontologies/OTRL#OTRL -->
<g id="edge28" class="edge">
<title>http://purl.org/oseg/ontologies/OTRL#OTRL&#45;5&#45;&gt;http://purl.org/oseg/ontologies/OTRL#OTRL</title>
<path fill="none" stroke="black" d="M159.97,-687.11C187.51,-680.15 225.72,-671.31 259.83,-666.26 308.65,-659.05 364.99,-655.5 404.16,-653.79"/>
<polygon fill="black" stroke="black" points="404.38,-657.29 414.23,-653.38 404.09,-650.29 404.38,-657.29"/>
</g>
<!-- http://purl.org/oseg/ontologies/OTRL#OTRL&#45;5&#45;&gt;http://www.w3.org/2002/07/owl#class -->
<g id="edge38" class="edge">
<title>http://purl.org/oseg/ontologies/OTRL#OTRL&#45;5&#45;&gt;http://www.w3.org/2002/07/owl#class</title>
<path fill="none" stroke="black" d="M167.26,-691.26C254.76,-682.13 449.53,-674.08 576.9,-761.26 631.57,-798.68 659.97,-875.8 671.62,-916.23"/>
<polygon fill="black" stroke="black" points="668.26,-917.2 674.29,-925.91 675.01,-915.34 668.26,-917.2"/>
<text text-anchor="middle" x="453.87" y="-765.06" font-family="Times,serif" font-size="14.00">a</text>
</g>
<!-- http://purl.org/oseg/ontologies/OTRL#hardwareDescription -->
<g id="node19" class="node">
<title>http://purl.org/oseg/ontologies/OTRL#hardwareDescription</title>
<ellipse fill="none" stroke="#e377c2" cx="120.92" cy="-155.26" rx="118.17" ry="16.03"/>
<text text-anchor="middle" x="120.92" y="-151.56" font-family="Times,serif" font-size="14.00">hardwareDescription</text>
</g>
<!-- http://purl.org/oseg/ontologies/OTRL#hardwareDescription&#45;&gt;http://purl.org/oseg/ontologies/OTRL#OTRL -->
<g id="edge22" class="edge">
<title>http://purl.org/oseg/ontologies/OTRL#hardwareDescription&#45;&gt;http://purl.org/oseg/ontologies/OTRL#OTRL</title>
<path fill="none" stroke="black" d="M218.57,-164.56C227.3,-168.66 235.3,-174.1 241.83,-181.26 264.15,-205.75 248,-298.31 259.83,-329.26 274.53,-367.73 298.86,-366.52 312.83,-405.26 329.17,-450.57 299.71,-584.5 330.83,-621.26 348.66,-642.32 378.58,-650.15 404.34,-652.68"/>
<polygon fill="black" stroke="black" points="404.1,-656.17 414.33,-653.42 404.62,-649.19 404.1,-656.17"/>
<text text-anchor="middle" x="286.33" y="-409.06" font-family="Times,serif" font-size="14.00">domain</text>
</g>
<!-- http://purl.org/oseg/ontologies/OTRL#hardwareDescription&#45;&gt;http://www.w3.org/2002/07/owl#DatatypeProperty -->
<g id="edge12" class="edge">
<title>http://purl.org/oseg/ontologies/OTRL#hardwareDescription&#45;&gt;http://www.w3.org/2002/07/owl#DatatypeProperty</title>
<path fill="none" stroke="black" d="M204.99,-166.71C238.63,-171.87 277.74,-178.55 312.83,-186.26 339.92,-192.22 369.56,-200.25 394.57,-207.47"/>
<polygon fill="black" stroke="black" points="393.69,-210.86 404.27,-210.3 395.65,-204.14 393.69,-210.86"/>
<text text-anchor="middle" x="286.33" y="-190.06" font-family="Times,serif" font-size="14.00">a</text>
</g>
<!-- http://purl.org/oseg/ontologies/OTRL#hardwareDescription&#45;&gt;http://schema.org/Text -->
<g id="edge32" class="edge">
<title>http://purl.org/oseg/ontologies/OTRL#hardwareDescription&#45;&gt;http://schema.org/Text</title>
<path fill="none" stroke="black" d="M148.83,-139.44C173.95,-124.14 211.94,-99.61 241.83,-74.26 250.7,-66.74 249.14,-59.86 259.83,-55.26 315.33,-31.39 384.04,-65.42 422.72,-89.95"/>
<polygon fill="black" stroke="black" points="421.13,-93.09 431.42,-95.63 424.96,-87.23 421.13,-93.09"/>
<text text-anchor="middle" x="286.33" y="-59.06" font-family="Times,serif" font-size="14.00">range</text>
</g>
<!-- http://purl.org/oseg/ontologies/OTRL#OTRL&#45;9 -->
<g id="node20" class="node">
<title>http://purl.org/oseg/ontologies/OTRL#OTRL&#45;9</title>
<ellipse fill="none" stroke="#e377c2" cx="120.92" cy="-615.26" rx="49.49" ry="16.03"/>
<text text-anchor="middle" x="120.92" y="-611.56" font-family="Times,serif" font-size="14.00">OTRL&#45;9</text>
</g>
<!-- http://purl.org/oseg/ontologies/OTRL#OTRL&#45;9&#45;&gt;http://purl.org/oseg/ontologies/OTRL#OTRL -->
<g id="edge43" class="edge">
<title>http://purl.org/oseg/ontologies/OTRL#OTRL&#45;9&#45;&gt;http://purl.org/oseg/ontologies/OTRL#OTRL</title>
<path fill="none" stroke="black" d="M167.93,-620.41C230.52,-627.41 341.92,-639.86 405.3,-646.95"/>
<polygon fill="black" stroke="black" points="405.1,-650.44 415.43,-648.08 405.88,-643.49 405.1,-650.44"/>
</g>
<!-- http://purl.org/oseg/ontologies/OTRL#OTRL&#45;9&#45;&gt;http://www.w3.org/2002/07/owl#class -->
<g id="edge41" class="edge">
<title>http://purl.org/oseg/ontologies/OTRL#OTRL&#45;9&#45;&gt;http://www.w3.org/2002/07/owl#class</title>
<path fill="none" stroke="black" d="M154.25,-603.21C234.76,-575.48 447.01,-516.57 576.9,-612.26 627.16,-649.29 662.68,-844.55 674.18,-916.02"/>
<polygon fill="black" stroke="black" points="670.74,-916.68 675.76,-926.01 677.65,-915.59 670.74,-916.68"/>
<text text-anchor="middle" x="453.87" y="-616.06" font-family="Times,serif" font-size="14.00">a</text>
</g>
<!-- http://purl.org/oseg/ontologies/OTRL#ODRL&#45;0 -->
<g id="node21" class="node">
<title>http://purl.org/oseg/ontologies/OTRL#ODRL&#45;0</title>
<ellipse fill="none" stroke="#e377c2" cx="120.92" cy="-1221.26" rx="50.82" ry="16.03"/>
<text text-anchor="middle" x="120.92" y="-1217.56" font-family="Times,serif" font-size="14.00">ODRL&#45;0</text>
</g>
<!-- http://purl.org/oseg/ontologies/OTRL#ODRL&#45;0&#45;&gt;http://purl.org/oseg/ontologies/OTRL#ODRL -->
<g id="edge14" class="edge">
<title>http://purl.org/oseg/ontologies/OTRL#ODRL&#45;0&#45;&gt;http://purl.org/oseg/ontologies/OTRL#ODRL</title>
<path fill="none" stroke="black" d="M170.42,-1225.22C196.85,-1227.35 230.13,-1230 259.83,-1232.26 308.27,-1235.95 363.57,-1239.94 402.53,-1242.71"/>
<polygon fill="black" stroke="black" points="402.34,-1246.21 412.56,-1243.43 402.83,-1239.23 402.34,-1246.21"/>
</g>
<!-- http://purl.org/oseg/ontologies/OTRL#ODRL&#45;0&#45;&gt;http://www.w3.org/2002/07/owl#class -->
<g id="edge42" class="edge">
<title>http://purl.org/oseg/ontologies/OTRL#ODRL&#45;0&#45;&gt;http://www.w3.org/2002/07/owl#class</title>
<path fill="none" stroke="black" d="M170.65,-1217.41C284.68,-1208.22 560.48,-1184.91 576.9,-1173.26 645.79,-1124.42 668.36,-1018.08 675.31,-968.58"/>
<polygon fill="black" stroke="black" points="678.78,-969.02 676.6,-958.65 671.84,-968.12 678.78,-969.02"/>
<text text-anchor="middle" x="453.87" y="-1207.06" font-family="Times,serif" font-size="14.00">a</text>
</g>
<!-- http://purl.org/oseg/ontologies/OTRL#ODRL&#45;1 -->
<g id="node22" class="node">
<title>http://purl.org/oseg/ontologies/OTRL#ODRL&#45;1</title>
<ellipse fill="none" stroke="#e377c2" cx="120.92" cy="-1167.26" rx="50.82" ry="16.03"/>
<text text-anchor="middle" x="120.92" y="-1163.56" font-family="Times,serif" font-size="14.00">ODRL&#45;1</text>
</g>
<!-- http://purl.org/oseg/ontologies/OTRL#ODRL&#45;1&#45;&gt;http://purl.org/oseg/ontologies/OTRL#ODRL -->
<g id="edge39" class="edge">
<title>http://purl.org/oseg/ontologies/OTRL#ODRL&#45;1&#45;&gt;http://purl.org/oseg/ontologies/OTRL#ODRL</title>
<path fill="none" stroke="black" d="M162.17,-1176.87C224.3,-1191.7 343.17,-1220.08 407.99,-1235.55"/>
<polygon fill="black" stroke="black" points="407.38,-1239 417.92,-1237.92 409,-1232.19 407.38,-1239"/>
</g>
<!-- http://purl.org/oseg/ontologies/OTRL#ODRL&#45;1&#45;&gt;http://www.w3.org/2002/07/owl#class -->
<g id="edge17" class="edge">
<title>http://purl.org/oseg/ontologies/OTRL#ODRL&#45;1&#45;&gt;http://www.w3.org/2002/07/owl#class</title>
<path fill="none" stroke="black" d="M171.27,-1164.83C282.06,-1158.99 543.5,-1143.07 576.9,-1121.26 631.91,-1085.35 660.16,-1008.6 671.7,-968.26"/>
<polygon fill="black" stroke="black" points="675.08,-969.18 674.35,-958.61 668.33,-967.33 675.08,-969.18"/>
<text text-anchor="middle" x="453.87" y="-1158.06" font-family="Times,serif" font-size="14.00">a</text>
</g>
<!-- http://purl.org/oseg/ontologies/OTRL#OTRL&#45;4 -->
<g id="node23" class="node">
<title>http://purl.org/oseg/ontologies/OTRL#OTRL&#45;4</title>
<ellipse fill="none" stroke="#e377c2" cx="120.92" cy="-537.26" rx="49.49" ry="16.03"/>
<text text-anchor="middle" x="120.92" y="-533.56" font-family="Times,serif" font-size="14.00">OTRL&#45;4</text>
</g>
<!-- http://purl.org/oseg/ontologies/OTRL#OTRL&#45;4&#45;&gt;http://purl.org/oseg/ontologies/OTRL#OTRL -->
<g id="edge20" class="edge">
<title>http://purl.org/oseg/ontologies/OTRL#OTRL&#45;4&#45;&gt;http://purl.org/oseg/ontologies/OTRL#OTRL</title>
<path fill="none" stroke="black" d="M150.87,-550.34C190.79,-568.04 265.24,-599.85 330.83,-621.26 356.26,-629.57 385.27,-637.02 408.62,-642.53"/>
<polygon fill="black" stroke="black" points="408.06,-645.99 418.59,-644.85 409.64,-639.17 408.06,-645.99"/>
</g>
<!-- http://purl.org/oseg/ontologies/OTRL#OTRL&#45;4&#45;&gt;http://www.w3.org/2002/07/owl#class -->
<g id="edge18" class="edge">
<title>http://purl.org/oseg/ontologies/OTRL#OTRL&#45;4&#45;&gt;http://www.w3.org/2002/07/owl#class</title>
<path fill="none" stroke="black" d="M158.95,-526.82C185.99,-517.26 221.38,-500.4 241.83,-473.26 264.81,-442.77 230.14,-413.27 259.83,-389.26 311.76,-347.28 470.43,-405.84 576.9,-540.26 668.95,-656.47 678.44,-845.93 678.63,-915.53"/>
<polygon fill="black" stroke="black" points="675.13,-915.63 678.6,-925.64 682.13,-915.65 675.13,-915.63"/>
<text text-anchor="middle" x="453.87" y="-544.06" font-family="Times,serif" font-size="14.00">a</text>
</g>
<!-- http://purl.org/oseg/ontologies/OTRL#ODRL&#45;3 -->
<g id="node24" class="node">
<title>http://purl.org/oseg/ontologies/OTRL#ODRL&#45;3</title>
<ellipse fill="none" stroke="#e377c2" cx="120.92" cy="-1110.26" rx="50.82" ry="16.03"/>
<text text-anchor="middle" x="120.92" y="-1106.56" font-family="Times,serif" font-size="14.00">ODRL&#45;3</text>
</g>
<!-- http://purl.org/oseg/ontologies/OTRL#ODRL&#45;3&#45;&gt;http://purl.org/oseg/ontologies/OTRL#ODRL -->
<g id="edge30" class="edge">
<title>http://purl.org/oseg/ontologies/OTRL#ODRL&#45;3&#45;&gt;http://purl.org/oseg/ontologies/OTRL#ODRL</title>
<path fill="none" stroke="black" d="M166.9,-1117.45C190.16,-1122.34 218.49,-1130.18 241.83,-1142.26 251.08,-1147.05 251.67,-1150.79 259.83,-1157.26 282.95,-1175.6 290.83,-1177.6 312.83,-1197.26 321.5,-1205.02 320.77,-1210.42 330.83,-1216.26 352.85,-1229.07 380.16,-1236.43 403.36,-1240.65"/>
<polygon fill="black" stroke="black" points="402.91,-1244.13 413.36,-1242.33 404.07,-1237.23 402.91,-1244.13"/>
</g>
<!-- http://purl.org/oseg/ontologies/OTRL#ODRL&#45;3&#45;&gt;http://www.w3.org/2002/07/owl#class -->
<g id="edge19" class="edge">
<title>http://purl.org/oseg/ontologies/OTRL#ODRL&#45;3&#45;&gt;http://www.w3.org/2002/07/owl#class</title>
<path fill="none" stroke="black" d="M171.87,-1109.64C275.02,-1107.6 507.69,-1098.96 576.9,-1062.26 617.37,-1040.81 648.34,-995.83 664.85,-967.45"/>
<polygon fill="black" stroke="black" points="668.03,-968.94 669.89,-958.51 661.93,-965.5 668.03,-968.94"/>
<text text-anchor="middle" x="453.87" y="-1106.06" font-family="Times,serif" font-size="14.00">a</text>
</g>
<!-- http://purl.org/oseg/ontologies/OTRL#ODRL&#45;4 -->
<g id="node25" class="node">
<title>http://purl.org/oseg/ontologies/OTRL#ODRL&#45;4</title>
<ellipse fill="none" stroke="#e377c2" cx="120.92" cy="-1047.26" rx="50.82" ry="16.03"/>
<text text-anchor="middle" x="120.92" y="-1043.56" font-family="Times,serif" font-size="14.00">ODRL&#45;4</text>
</g>
<!-- http://purl.org/oseg/ontologies/OTRL#ODRL&#45;4&#45;&gt;http://purl.org/oseg/ontologies/OTRL#ODRL -->
<g id="edge7" class="edge">
<title>http://purl.org/oseg/ontologies/OTRL#ODRL&#45;4&#45;&gt;http://purl.org/oseg/ontologies/OTRL#ODRL</title>
<path fill="none" stroke="black" d="M165.24,-1055.4C189.1,-1061.22 218.51,-1070.65 241.83,-1085.26 280.72,-1109.64 289.45,-1120.76 312.83,-1160.26 326.15,-1182.76 311.71,-1198.44 330.83,-1216.26 349.82,-1233.97 377.52,-1241.7 401.74,-1244.9"/>
<polygon fill="black" stroke="black" points="401.55,-1248.4 411.87,-1246.01 402.31,-1241.44 401.55,-1248.4"/>
</g>
<!-- http://purl.org/oseg/ontologies/OTRL#ODRL&#45;4&#45;&gt;http://www.w3.org/2002/07/owl#class -->
<g id="edge44" class="edge">
<title>http://purl.org/oseg/ontologies/OTRL#ODRL&#45;4&#45;&gt;http://www.w3.org/2002/07/owl#class</title>
<path fill="none" stroke="black" d="M171.77,-1048.77C256.98,-1049.9 435.17,-1045.9 576.9,-1000.26 602.99,-991.86 629.79,-976.14 649.26,-963.19"/>
<polygon fill="black" stroke="black" points="651.37,-965.99 657.66,-957.46 647.43,-960.2 651.37,-965.99"/>
<text text-anchor="middle" x="453.87" y="-1047.06" font-family="Times,serif" font-size="14.00">a</text>
</g>
<!-- http://purl.org/oseg/ontologies/OTRL#OTRL&#45;7 -->
<g id="node26" class="node">
<title>http://purl.org/oseg/ontologies/OTRL#OTRL&#45;7</title>
<ellipse fill="none" stroke="#e377c2" cx="120.92" cy="-448.26" rx="49.49" ry="16.03"/>
<text text-anchor="middle" x="120.92" y="-444.56" font-family="Times,serif" font-size="14.00">OTRL&#45;7</text>
</g>
<!-- http://purl.org/oseg/ontologies/OTRL#OTRL&#45;7&#45;&gt;http://purl.org/oseg/ontologies/OTRL#OTRL -->
<g id="edge9" class="edge">
<title>http://purl.org/oseg/ontologies/OTRL#OTRL&#45;7&#45;&gt;http://purl.org/oseg/ontologies/OTRL#OTRL</title>
<path fill="none" stroke="black" d="M154.01,-460.42C179.75,-471.27 215.75,-489.03 241.83,-512.26 252.32,-521.61 250.83,-527.47 259.83,-538.26 281.18,-563.84 292.33,-565.01 312.83,-591.26 322.4,-603.52 318.35,-611.98 330.83,-621.26 352.01,-637.02 380.36,-644.81 404.4,-648.64"/>
<polygon fill="black" stroke="black" points="404.02,-652.12 414.41,-650.05 405,-645.19 404.02,-652.12"/>
</g>
<!-- http://purl.org/oseg/ontologies/OTRL#OTRL&#45;7&#45;&gt;http://www.w3.org/2002/07/owl#class -->
<g id="edge45" class="edge">
<title>http://purl.org/oseg/ontologies/OTRL#OTRL&#45;7&#45;&gt;http://www.w3.org/2002/07/owl#class</title>
<path fill="none" stroke="black" d="M143,-433.5C213.55,-386.04 444.44,-246.8 576.9,-358.26 663.69,-431.29 676.11,-811.61 677.88,-915.83"/>
<polygon fill="black" stroke="black" points="674.38,-915.88 678.03,-925.83 681.38,-915.78 674.38,-915.88"/>
<text text-anchor="middle" x="453.87" y="-362.06" font-family="Times,serif" font-size="14.00">a</text>
</g>
</g>
</svg>
