<?xml version="1.0" encoding="UTF-8" standalone="no"?>
<!DOCTYPE svg PUBLIC "-//W3C//DTD SVG 1.1//EN"
 "http://www.w3.org/Graphics/SVG/1.1/DTD/svg11.dtd">
<!-- Generated by graphviz version 2.43.0 (0)
 -->
<!-- Title: G Pages: 1 -->
<svg width="632pt" height="804pt"
 viewBox="0.00 0.00 631.63 803.53" xmlns="http://www.w3.org/2000/svg" xmlns:xlink="http://www.w3.org/1999/xlink">
<g id="graph0" class="graph" transform="scale(1 1) rotate(0) translate(4 799.53)">
<title>G</title>
<polygon fill="white" stroke="transparent" points="-4,4 -4,-799.53 627.63,-799.53 627.63,4 -4,4"/>
<!-- http://www.w3.org/2002/07/owl#Ontology -->
<g id="node1" class="node">
<title>http://www.w3.org/2002/07/owl#Ontology</title>
<ellipse fill="none" stroke="#1f77b4" cx="341.04" cy="-16.26" rx="77.56" ry="16.03"/>
<text text-anchor="middle" x="341.04" y="-12.56" font-family="Times,serif" font-size="14.00">owl:Ontology</text>
</g>
<!-- http://www.w3.org/2002/07/owl#DatatypeProperty -->
<g id="node2" class="node">
<title>http://www.w3.org/2002/07/owl#DatatypeProperty</title>
<ellipse fill="none" stroke="#1f77b4" cx="341.04" cy="-126.26" rx="123.07" ry="16.03"/>
<text text-anchor="middle" x="341.04" y="-122.56" font-family="Times,serif" font-size="14.00">owl:DatatypeProperty</text>
</g>
<!-- http://purl.org/oseg/ontologies/OTRL#OTRL -->
<g id="node3" class="node">
<title>http://purl.org/oseg/ontologies/OTRL#OTRL</title>
<ellipse fill="none" stroke="#e377c2" cx="341.04" cy="-333.26" rx="39.7" ry="16.03"/>
<text text-anchor="middle" x="341.04" y="-329.56" font-family="Times,serif" font-size="14.00">OTRL</text>
</g>
<!-- http://www.w3.org/2002/07/owl#class -->
<g id="node5" class="node">
<title>http://www.w3.org/2002/07/owl#class</title>
<ellipse fill="none" stroke="#1f77b4" cx="566.36" cy="-458.26" rx="57.05" ry="16.03"/>
<text text-anchor="middle" x="566.36" y="-454.56" font-family="Times,serif" font-size="14.00">owl:class</text>
</g>
<!-- http://purl.org/oseg/ontologies/OTRL#OTRL&#45;&gt;http://www.w3.org/2002/07/owl#class -->
<g id="edge8" class="edge">
<title>http://purl.org/oseg/ontologies/OTRL#OTRL&#45;&gt;http://www.w3.org/2002/07/owl#class</title>
<path fill="none" stroke="black" d="M380.61,-331.32C412.44,-331.47 457.66,-335.9 491.08,-356.26 520.67,-374.3 542.06,-409 554.08,-432.87"/>
<polygon fill="black" stroke="black" points="551.01,-434.57 558.51,-442.06 557.31,-431.53 551.01,-434.57"/>
<text text-anchor="middle" x="486.58" y="-360.06" font-family="Times,serif" font-size="14.00">a</text>
</g>
<!-- http://purl.org/oseg/ontologies/OTRL#ODRL -->
<g id="node4" class="node">
<title>http://purl.org/oseg/ontologies/OTRL#ODRL</title>
<ellipse fill="none" stroke="#e377c2" cx="566.36" cy="-659.26" rx="41.94" ry="16.03"/>
<text text-anchor="middle" x="566.36" y="-655.56" font-family="Times,serif" font-size="14.00">ODRL</text>
</g>
<!-- http://purl.org/oseg/ontologies/OTRL#Odrl1 -->
<g id="node6" class="node">
<title>http://purl.org/oseg/ontologies/OTRL#Odrl1</title>
<ellipse fill="none" stroke="#e377c2" cx="341.04" cy="-779.26" rx="40.11" ry="16.03"/>
<text text-anchor="middle" x="341.04" y="-775.56" font-family="Times,serif" font-size="14.00">Odrl1</text>
</g>
<!-- http://purl.org/oseg/ontologies/OTRL#Odrl1&#45;&gt;http://purl.org/oseg/ontologies/OTRL#ODRL -->
<g id="edge19" class="edge">
<title>http://purl.org/oseg/ontologies/OTRL#Odrl1&#45;&gt;http://purl.org/oseg/ontologies/OTRL#ODRL</title>
<path fill="none" stroke="black" d="M377.98,-785.94C409.85,-789.95 456.55,-791.01 491.08,-771.26 524.31,-752.27 545.45,-711.63 556.35,-684.88"/>
<polygon fill="black" stroke="black" points="559.68,-685.97 560.03,-675.39 553.15,-683.44 559.68,-685.97"/>
</g>
<!-- http://purl.org/oseg/ontologies/OTRL#Odrl1&#45;&gt;http://www.w3.org/2002/07/owl#class -->
<g id="edge1" class="edge">
<title>http://purl.org/oseg/ontologies/OTRL#Odrl1&#45;&gt;http://www.w3.org/2002/07/owl#class</title>
<path fill="none" stroke="black" d="M380.62,-775.74C406.97,-771.48 441.15,-762.06 464.08,-741.26 486.95,-720.52 480.12,-706.12 491.08,-677.26 517.31,-608.24 544.18,-525.36 557.24,-484.16"/>
<polygon fill="black" stroke="black" points="560.58,-485.21 560.26,-474.62 553.91,-483.1 560.58,-485.21"/>
<text text-anchor="middle" x="486.58" y="-714.06" font-family="Times,serif" font-size="14.00">a</text>
</g>
<!-- http://purl.org/oseg/ontologies/OTRL#Odrl3Star -->
<g id="node7" class="node">
<title>http://purl.org/oseg/ontologies/OTRL#Odrl3Star</title>
<ellipse fill="none" stroke="#e377c2" cx="341.04" cy="-716.26" rx="62.45" ry="16.03"/>
<text text-anchor="middle" x="341.04" y="-712.56" font-family="Times,serif" font-size="14.00">Odrl3Star</text>
</g>
<!-- http://purl.org/oseg/ontologies/OTRL#Odrl3Star&#45;&gt;http://purl.org/oseg/ontologies/OTRL#ODRL -->
<g id="edge13" class="edge">
<title>http://purl.org/oseg/ontologies/OTRL#Odrl3Star&#45;&gt;http://purl.org/oseg/ontologies/OTRL#ODRL</title>
<path fill="none" stroke="black" d="M401.76,-720.15C429.54,-720.18 462.66,-717.63 491.08,-708.26 509.18,-702.3 527.09,-690.7 540.79,-680.28"/>
<polygon fill="black" stroke="black" points="543.05,-682.95 548.73,-674.01 538.71,-677.46 543.05,-682.95"/>
</g>
<!-- http://purl.org/oseg/ontologies/OTRL#Odrl3Star&#45;&gt;http://www.w3.org/2002/07/owl#class -->
<g id="edge2" class="edge">
<title>http://purl.org/oseg/ontologies/OTRL#Odrl3Star&#45;&gt;http://www.w3.org/2002/07/owl#class</title>
<path fill="none" stroke="black" d="M396.34,-708.77C419.4,-703.27 445.25,-693.74 464.08,-677.26 523.62,-625.17 550.43,-530.75 560.4,-484.8"/>
<polygon fill="black" stroke="black" points="563.88,-485.24 562.48,-474.73 557.03,-483.82 563.88,-485.24"/>
<text text-anchor="middle" x="486.58" y="-662.06" font-family="Times,serif" font-size="14.00">a</text>
</g>
<!-- http://www.w3.org/1999/02/22&#45;rdf&#45;syntax&#45;ns#nil -->
<g id="node8" class="node">
<title>http://www.w3.org/1999/02/22&#45;rdf&#45;syntax&#45;ns#nil</title>
<ellipse fill="none" stroke="#e377c2" cx="70" cy="-527.26" rx="42.35" ry="16.03"/>
<text text-anchor="middle" x="70" y="-523.56" font-family="Times,serif" font-size="14.00">rdf:nil</text>
</g>
<!-- http://schema.org/Text -->
<g id="node9" class="node">
<title>http://schema.org/Text</title>
<ellipse fill="none" stroke="#e377c2" cx="341.04" cy="-67.26" rx="74.91" ry="16.03"/>
<text text-anchor="middle" x="341.04" y="-63.56" font-family="Times,serif" font-size="14.00">schema:Text</text>
</g>
<!-- http://purl.org/oseg/ontologies/OTRL#Otrl4 -->
<g id="node10" class="node">
<title>http://purl.org/oseg/ontologies/OTRL#Otrl4</title>
<ellipse fill="none" stroke="#e377c2" cx="70" cy="-419.26" rx="38.37" ry="16.03"/>
<text text-anchor="middle" x="70" y="-415.56" font-family="Times,serif" font-size="14.00">Otrl4</text>
</g>
<!-- http://purl.org/oseg/ontologies/OTRL#Otrl4&#45;&gt;http://purl.org/oseg/ontologies/OTRL#OTRL -->
<g id="edge16" class="edge">
<title>http://purl.org/oseg/ontologies/OTRL#Otrl4&#45;&gt;http://purl.org/oseg/ontologies/OTRL#OTRL</title>
<path fill="none" stroke="black" d="M97.75,-407.93C126.95,-395.84 175.25,-376.61 218.01,-363.26 243.41,-355.34 272.3,-348.15 295.6,-342.81"/>
<polygon fill="black" stroke="black" points="296.56,-346.18 305.54,-340.56 295.02,-339.35 296.56,-346.18"/>
</g>
<!-- http://purl.org/oseg/ontologies/OTRL#Otrl4&#45;&gt;http://www.w3.org/2002/07/owl#class -->
<g id="edge5" class="edge">
<title>http://purl.org/oseg/ontologies/OTRL#Otrl4&#45;&gt;http://www.w3.org/2002/07/owl#class</title>
<path fill="none" stroke="black" d="M108.23,-420.22C178.13,-422.3 333.76,-428.19 464.08,-442.26 478.18,-443.79 493.31,-445.91 507.47,-448.11"/>
<polygon fill="black" stroke="black" points="507.15,-451.61 517.57,-449.73 508.25,-444.69 507.15,-451.61"/>
<text text-anchor="middle" x="341.04" y="-446.06" font-family="Times,serif" font-size="14.00">a</text>
</g>
<!-- http://purl.org/oseg/ontologies/OTRL -->
<g id="node11" class="node">
<title>http://purl.org/oseg/ontologies/OTRL</title>
<ellipse fill="none" stroke="#e377c2" cx="70" cy="-16.26" rx="60.62" ry="16.03"/>
<text text-anchor="middle" x="70" y="-12.56" font-family="Times,serif" font-size="14.00">ns1:OTRL</text>
</g>
<!-- http://purl.org/oseg/ontologies/OTRL&#45;&gt;http://www.w3.org/2002/07/owl#Ontology -->
<g id="edge21" class="edge">
<title>http://purl.org/oseg/ontologies/OTRL&#45;&gt;http://www.w3.org/2002/07/owl#Ontology</title>
<path fill="none" stroke="black" d="M131.05,-16.26C166.88,-16.26 213,-16.26 252.8,-16.26"/>
<polygon fill="black" stroke="black" points="253.04,-19.76 263.04,-16.26 253.04,-12.76 253.04,-19.76"/>
<text text-anchor="middle" x="179.01" y="-20.06" font-family="Times,serif" font-size="14.00">a</text>
</g>
<!-- http://purl.org/oseg/ontologies/OTRL&#45;&gt;http://purl.org/oseg/ontologies/OTRL -->
<g id="edge20" class="edge">
<title>http://purl.org/oseg/ontologies/OTRL&#45;&gt;http://purl.org/oseg/ontologies/OTRL</title>
<path fill="none" stroke="black" d="M51.18,-31.77C46.64,-41.38 52.92,-50.53 70,-50.53 80.68,-50.53 87.14,-46.95 89.37,-41.93"/>
<polygon fill="black" stroke="black" points="92.85,-41.57 88.82,-31.77 85.86,-41.94 92.85,-41.57"/>
<text text-anchor="middle" x="70" y="-54.33" font-family="Times,serif" font-size="14.00">owl:versionIRI</text>
</g>
<!-- http://purl.org/oseg/ontologies/OTRL#Otrl2 -->
<g id="node12" class="node">
<title>http://purl.org/oseg/ontologies/OTRL#Otrl2</title>
<ellipse fill="none" stroke="#e377c2" cx="70" cy="-293.26" rx="38.37" ry="16.03"/>
<text text-anchor="middle" x="70" y="-289.56" font-family="Times,serif" font-size="14.00">Otrl2</text>
</g>
<!-- http://purl.org/oseg/ontologies/OTRL#Otrl2&#45;&gt;http://purl.org/oseg/ontologies/OTRL#OTRL -->
<g id="edge23" class="edge">
<title>http://purl.org/oseg/ontologies/OTRL#Otrl2&#45;&gt;http://purl.org/oseg/ontologies/OTRL#OTRL</title>
<path fill="none" stroke="black" d="M106.18,-298.49C154.11,-305.62 240.08,-318.4 293.37,-326.32"/>
<polygon fill="black" stroke="black" points="293.17,-329.83 303.57,-327.84 294.2,-322.91 293.17,-329.83"/>
</g>
<!-- http://purl.org/oseg/ontologies/OTRL#Otrl2&#45;&gt;http://www.w3.org/2002/07/owl#class -->
<g id="edge7" class="edge">
<title>http://purl.org/oseg/ontologies/OTRL#Otrl2&#45;&gt;http://www.w3.org/2002/07/owl#class</title>
<path fill="none" stroke="black" d="M101.32,-283.92C170.76,-264.39 344.53,-226.37 464.08,-293.26 517.3,-323.04 545.95,-393.49 558.13,-432.01"/>
<polygon fill="black" stroke="black" points="554.9,-433.4 561.14,-441.96 561.6,-431.38 554.9,-433.4"/>
<text text-anchor="middle" x="341.04" y="-297.06" font-family="Times,serif" font-size="14.00">a</text>
</g>
<!-- http://purl.org/oseg/ontologies/OTRL#Otrl -->
<g id="node13" class="node">
<title>http://purl.org/oseg/ontologies/OTRL#Otrl</title>
<ellipse fill="none" stroke="#e377c2" cx="70" cy="-578.26" rx="31.64" ry="16.03"/>
<text text-anchor="middle" x="70" y="-574.56" font-family="Times,serif" font-size="14.00">Otrl</text>
</g>
<!-- http://purl.org/oseg/ontologies/OTRL#Odrl3 -->
<g id="node14" class="node">
<title>http://purl.org/oseg/ontologies/OTRL#Odrl3</title>
<ellipse fill="none" stroke="#e377c2" cx="341.04" cy="-536.26" rx="40.11" ry="16.03"/>
<text text-anchor="middle" x="341.04" y="-532.56" font-family="Times,serif" font-size="14.00">Odrl3</text>
</g>
<!-- http://purl.org/oseg/ontologies/OTRL#Odrl3&#45;&gt;http://purl.org/oseg/ontologies/OTRL#ODRL -->
<g id="edge15" class="edge">
<title>http://purl.org/oseg/ontologies/OTRL#Odrl3&#45;&gt;http://purl.org/oseg/ontologies/OTRL#ODRL</title>
<path fill="none" stroke="black" d="M378.68,-530.4C410.58,-527.2 456.93,-527.28 491.08,-547.26 523.94,-566.49 545.08,-606.7 556.1,-633.34"/>
<polygon fill="black" stroke="black" points="552.91,-634.79 559.83,-642.81 559.42,-632.23 552.91,-634.79"/>
</g>
<!-- http://purl.org/oseg/ontologies/OTRL#Odrl3&#45;&gt;http://www.w3.org/2002/07/owl#class -->
<g id="edge9" class="edge">
<title>http://purl.org/oseg/ontologies/OTRL#Odrl3&#45;&gt;http://www.w3.org/2002/07/owl#class</title>
<path fill="none" stroke="black" d="M377.85,-529.45C402.47,-524.29 435.71,-516.36 464.08,-506.26 486.61,-498.25 510.85,-486.87 529.96,-477.2"/>
<polygon fill="black" stroke="black" points="531.6,-480.29 538.9,-472.61 528.41,-474.06 531.6,-480.29"/>
<text text-anchor="middle" x="486.58" y="-502.06" font-family="Times,serif" font-size="14.00">a</text>
</g>
<!-- http://purl.org/oseg/ontologies/OTRL#Odrl4 -->
<g id="node15" class="node">
<title>http://purl.org/oseg/ontologies/OTRL#Odrl4</title>
<ellipse fill="none" stroke="#e377c2" cx="341.04" cy="-593.26" rx="40.11" ry="16.03"/>
<text text-anchor="middle" x="341.04" y="-589.56" font-family="Times,serif" font-size="14.00">Odrl4</text>
</g>
<!-- http://purl.org/oseg/ontologies/OTRL#Odrl4&#45;&gt;http://purl.org/oseg/ontologies/OTRL#ODRL -->
<g id="edge17" class="edge">
<title>http://purl.org/oseg/ontologies/OTRL#Odrl4&#45;&gt;http://purl.org/oseg/ontologies/OTRL#ODRL</title>
<path fill="none" stroke="black" d="M381.47,-592.8C412.19,-593.61 455.47,-597.33 491.08,-610.26 508.76,-616.68 526.42,-628.08 540.08,-638.26"/>
<polygon fill="black" stroke="black" points="537.98,-641.06 548.04,-644.39 542.25,-635.52 537.98,-641.06"/>
</g>
<!-- http://purl.org/oseg/ontologies/OTRL#Odrl4&#45;&gt;http://www.w3.org/2002/07/owl#class -->
<g id="edge10" class="edge">
<title>http://purl.org/oseg/ontologies/OTRL#Odrl4&#45;&gt;http://www.w3.org/2002/07/owl#class</title>
<path fill="none" stroke="black" d="M379.81,-588.7C404.99,-584.41 438.12,-576.31 464.08,-561.26 498.67,-541.22 529.46,-506.2 547.76,-482.62"/>
<polygon fill="black" stroke="black" points="550.66,-484.59 553.92,-474.5 545.09,-480.35 550.66,-484.59"/>
<text text-anchor="middle" x="486.58" y="-551.06" font-family="Times,serif" font-size="14.00">a</text>
</g>
<!-- http://purl.org/oseg/ontologies/OTRL#goal -->
<g id="node16" class="node">
<title>http://purl.org/oseg/ontologies/OTRL#goal</title>
<ellipse fill="none" stroke="#e377c2" cx="70" cy="-176.26" rx="33.47" ry="16.03"/>
<text text-anchor="middle" x="70" y="-172.56" font-family="Times,serif" font-size="14.00">goal</text>
</g>
<!-- http://purl.org/oseg/ontologies/OTRL#goal&#45;&gt;http://www.w3.org/2002/07/owl#DatatypeProperty -->
<g id="edge22" class="edge">
<title>http://purl.org/oseg/ontologies/OTRL#goal&#45;&gt;http://www.w3.org/2002/07/owl#DatatypeProperty</title>
<path fill="none" stroke="black" d="M102.39,-172.28C128.58,-168.8 166.83,-163.37 200.01,-157.26 223.05,-153.02 248.06,-147.71 270.49,-142.69"/>
<polygon fill="black" stroke="black" points="271.28,-146.1 280.27,-140.48 269.74,-139.27 271.28,-146.1"/>
<text text-anchor="middle" x="179.01" y="-168.06" font-family="Times,serif" font-size="14.00">a</text>
</g>
<!-- http://purl.org/oseg/ontologies/OTRL#goal&#45;&gt;http://schema.org/Text -->
<g id="edge12" class="edge">
<title>http://purl.org/oseg/ontologies/OTRL#goal&#45;&gt;http://schema.org/Text</title>
<path fill="none" stroke="black" d="M95.33,-165.65C132.06,-149.61 197.68,-120.86 200.01,-119.26 209.34,-112.87 208.24,-106.97 218.01,-101.26 234.35,-91.72 253.49,-84.75 271.7,-79.71"/>
<polygon fill="black" stroke="black" points="272.62,-83.08 281.41,-77.17 270.85,-76.31 272.62,-83.08"/>
<text text-anchor="middle" x="179.01" y="-141.06" font-family="Times,serif" font-size="14.00">range</text>
</g>
<!-- http://purl.org/oseg/ontologies/OTRL#Odrl -->
<g id="node17" class="node">
<title>http://purl.org/oseg/ontologies/OTRL#Odrl</title>
<ellipse fill="none" stroke="#e377c2" cx="341.04" cy="-181.26" rx="33.88" ry="16.03"/>
<text text-anchor="middle" x="341.04" y="-177.56" font-family="Times,serif" font-size="14.00">Odrl</text>
</g>
<!-- http://purl.org/oseg/ontologies/OTRL#Odrl&#45;&gt;http://www.w3.org/2002/07/owl#class -->
<g id="edge24" class="edge">
<title>http://purl.org/oseg/ontologies/OTRL#Odrl&#45;&gt;http://www.w3.org/2002/07/owl#class</title>
<path fill="none" stroke="black" d="M374.05,-177.03C407.34,-174.5 458.99,-176.13 491.08,-204.26 558.33,-263.21 566.26,-379.37 566.19,-431.65"/>
<polygon fill="black" stroke="black" points="562.69,-431.76 566.07,-441.8 569.69,-431.84 562.69,-431.76"/>
<text text-anchor="middle" x="486.58" y="-208.06" font-family="Times,serif" font-size="14.00">a</text>
</g>
<!-- http://purl.org/oseg/ontologies/OTRL#Otrl1 -->
<g id="node18" class="node">
<title>http://purl.org/oseg/ontologies/OTRL#Otrl1</title>
<ellipse fill="none" stroke="#e377c2" cx="70" cy="-476.26" rx="38.37" ry="16.03"/>
<text text-anchor="middle" x="70" y="-472.56" font-family="Times,serif" font-size="14.00">Otrl1</text>
</g>
<!-- http://purl.org/oseg/ontologies/OTRL#Otrl1&#45;&gt;http://purl.org/oseg/ontologies/OTRL#OTRL -->
<g id="edge28" class="edge">
<title>http://purl.org/oseg/ontologies/OTRL#Otrl1&#45;&gt;http://purl.org/oseg/ontologies/OTRL#OTRL</title>
<path fill="none" stroke="black" d="M98.87,-465.59C111.86,-460.06 127.22,-452.7 140.01,-444.26 169.95,-424.5 176.54,-417.4 200.01,-390.26 209.44,-379.35 206.2,-371.55 218.01,-363.26 239.49,-348.18 267.74,-340.65 291.64,-336.9"/>
<polygon fill="black" stroke="black" points="292.17,-340.37 301.59,-335.52 291.2,-333.43 292.17,-340.37"/>
</g>
<!-- http://purl.org/oseg/ontologies/OTRL#Otrl1&#45;&gt;http://www.w3.org/2002/07/owl#class -->
<g id="edge11" class="edge">
<title>http://purl.org/oseg/ontologies/OTRL#Otrl1&#45;&gt;http://www.w3.org/2002/07/owl#class</title>
<path fill="none" stroke="black" d="M108.16,-474.91C191.39,-471.88 393.72,-464.51 499.09,-460.68"/>
<polygon fill="black" stroke="black" points="499.42,-464.17 509.29,-460.3 499.17,-457.17 499.42,-464.17"/>
<text text-anchor="middle" x="341.04" y="-474.06" font-family="Times,serif" font-size="14.00">a</text>
</g>
<!-- http://purl.org/oseg/ontologies/OTRL#Odrl2 -->
<g id="node19" class="node">
<title>http://purl.org/oseg/ontologies/OTRL#Odrl2</title>
<ellipse fill="none" stroke="#e377c2" cx="341.04" cy="-652.26" rx="40.11" ry="16.03"/>
<text text-anchor="middle" x="341.04" y="-648.56" font-family="Times,serif" font-size="14.00">Odrl2</text>
</g>
<!-- http://purl.org/oseg/ontologies/OTRL#Odrl2&#45;&gt;http://purl.org/oseg/ontologies/OTRL#ODRL -->
<g id="edge18" class="edge">
<title>http://purl.org/oseg/ontologies/OTRL#Odrl2&#45;&gt;http://purl.org/oseg/ontologies/OTRL#ODRL</title>
<path fill="none" stroke="black" d="M381.45,-653.5C418.43,-654.66 473.93,-656.4 514.28,-657.66"/>
<polygon fill="black" stroke="black" points="514.35,-661.17 524.45,-657.98 514.57,-654.17 514.35,-661.17"/>
</g>
<!-- http://purl.org/oseg/ontologies/OTRL#Odrl2&#45;&gt;http://www.w3.org/2002/07/owl#class -->
<g id="edge14" class="edge">
<title>http://purl.org/oseg/ontologies/OTRL#Odrl2&#45;&gt;http://www.w3.org/2002/07/owl#class</title>
<path fill="none" stroke="black" d="M380.68,-648.75C406.4,-644.77 439.81,-636.3 464.08,-618.26 511.03,-583.37 541.64,-519.69 555.94,-484.09"/>
<polygon fill="black" stroke="black" points="559.34,-485.01 559.7,-474.42 552.82,-482.48 559.34,-485.01"/>
<text text-anchor="middle" x="486.58" y="-605.06" font-family="Times,serif" font-size="14.00">a</text>
</g>
<!-- http://purl.org/oseg/ontologies/OTRL#Otrl3 -->
<g id="node20" class="node">
<title>http://purl.org/oseg/ontologies/OTRL#Otrl3</title>
<ellipse fill="none" stroke="#e377c2" cx="70" cy="-235.26" rx="38.37" ry="16.03"/>
<text text-anchor="middle" x="70" y="-231.56" font-family="Times,serif" font-size="14.00">Otrl3</text>
</g>
<!-- http://purl.org/oseg/ontologies/OTRL#Otrl3&#45;&gt;http://purl.org/oseg/ontologies/OTRL#OTRL -->
<g id="edge3" class="edge">
<title>http://purl.org/oseg/ontologies/OTRL#Otrl3&#45;&gt;http://purl.org/oseg/ontologies/OTRL#OTRL</title>
<path fill="none" stroke="black" d="M96.14,-247.21C134.81,-265.55 205.77,-298.97 218.01,-303.26 242.94,-312 271.58,-319.19 294.86,-324.33"/>
<polygon fill="black" stroke="black" points="294.29,-327.79 304.81,-326.48 295.77,-320.95 294.29,-327.79"/>
</g>
<!-- http://purl.org/oseg/ontologies/OTRL#Otrl3&#45;&gt;http://www.w3.org/2002/07/owl#class -->
<g id="edge25" class="edge">
<title>http://purl.org/oseg/ontologies/OTRL#Otrl3&#45;&gt;http://www.w3.org/2002/07/owl#class</title>
<path fill="none" stroke="black" d="M106.77,-230.69C192.29,-220.51 405.81,-199.66 464.08,-237.26 532.16,-281.2 555.09,-383.52 562.3,-431.96"/>
<polygon fill="black" stroke="black" points="558.84,-432.54 563.67,-441.97 565.78,-431.59 558.84,-432.54"/>
<text text-anchor="middle" x="341.04" y="-241.06" font-family="Times,serif" font-size="14.00">a</text>
</g>
<!-- http://purl.org/oseg/ontologies/OTRL#exitCriteria -->
<g id="node21" class="node">
<title>http://purl.org/oseg/ontologies/OTRL#exitCriteria</title>
<ellipse fill="none" stroke="#e377c2" cx="70" cy="-102.26" rx="70.01" ry="16.03"/>
<text text-anchor="middle" x="70" y="-98.56" font-family="Times,serif" font-size="14.00">exitCriteria</text>
</g>
<!-- http://purl.org/oseg/ontologies/OTRL#exitCriteria&#45;&gt;http://www.w3.org/2002/07/owl#DatatypeProperty -->
<g id="edge26" class="edge">
<title>http://purl.org/oseg/ontologies/OTRL#exitCriteria&#45;&gt;http://www.w3.org/2002/07/owl#DatatypeProperty</title>
<path fill="none" stroke="black" d="M140.05,-101.55C159.47,-101.83 180.59,-102.6 200.01,-104.26 219.11,-105.9 239.56,-108.58 258.76,-111.52"/>
<polygon fill="black" stroke="black" points="258.26,-114.98 268.68,-113.07 259.34,-108.07 258.26,-114.98"/>
<text text-anchor="middle" x="179.01" y="-108.06" font-family="Times,serif" font-size="14.00">a</text>
</g>
<!-- http://purl.org/oseg/ontologies/OTRL#exitCriteria&#45;&gt;http://schema.org/Text -->
<g id="edge4" class="edge">
<title>http://purl.org/oseg/ontologies/OTRL#exitCriteria&#45;&gt;http://schema.org/Text</title>
<path fill="none" stroke="black" d="M119.12,-90.61C131.72,-87.88 145.32,-85.2 158.01,-83.26 190.69,-78.28 226.94,-74.7 258.42,-72.21"/>
<polygon fill="black" stroke="black" points="258.77,-75.69 268.47,-71.44 258.23,-68.72 258.77,-75.69"/>
<text text-anchor="middle" x="179.01" y="-87.06" font-family="Times,serif" font-size="14.00">range</text>
</g>
<!-- http://purl.org/oseg/ontologies/OTRL#Otrl5 -->
<g id="node22" class="node">
<title>http://purl.org/oseg/ontologies/OTRL#Otrl5</title>
<ellipse fill="none" stroke="#e377c2" cx="70" cy="-356.26" rx="38.37" ry="16.03"/>
<text text-anchor="middle" x="70" y="-352.56" font-family="Times,serif" font-size="14.00">Otrl5</text>
</g>
<!-- http://purl.org/oseg/ontologies/OTRL#Otrl5&#45;&gt;http://purl.org/oseg/ontologies/OTRL#OTRL -->
<g id="edge6" class="edge">
<title>http://purl.org/oseg/ontologies/OTRL#Otrl5&#45;&gt;http://purl.org/oseg/ontologies/OTRL#OTRL</title>
<path fill="none" stroke="black" d="M107.57,-353.14C155.25,-349.06 238.79,-341.92 291.67,-337.4"/>
<polygon fill="black" stroke="black" points="292.16,-340.87 301.82,-336.53 291.56,-333.9 292.16,-340.87"/>
</g>
<!-- http://purl.org/oseg/ontologies/OTRL#Otrl5&#45;&gt;http://www.w3.org/2002/07/owl#class -->
<g id="edge27" class="edge">
<title>http://purl.org/oseg/ontologies/OTRL#Otrl5&#45;&gt;http://www.w3.org/2002/07/owl#class</title>
<path fill="none" stroke="black" d="M107.87,-359.17C192.4,-366.1 397.95,-384.58 464.08,-405.26 488.77,-412.98 514.57,-426.58 533.96,-438.07"/>
<polygon fill="black" stroke="black" points="532.29,-441.15 542.65,-443.34 535.91,-435.17 532.29,-441.15"/>
<text text-anchor="middle" x="341.04" y="-409.06" font-family="Times,serif" font-size="14.00">a</text>
</g>
</g>
</svg>
