<?xml version="1.0" encoding="UTF-8" standalone="no"?>
<!DOCTYPE svg PUBLIC "-//W3C//DTD SVG 1.1//EN"
 "http://www.w3.org/Graphics/SVG/1.1/DTD/svg11.dtd">
<!-- Generated by graphviz version 2.43.0 (0)
 -->
<!-- Title: G Pages: 1 -->
<svg width="632pt" height="955pt"
 viewBox="0.00 0.00 631.63 954.53" xmlns="http://www.w3.org/2000/svg" xmlns:xlink="http://www.w3.org/1999/xlink">
<g id="graph0" class="graph" transform="scale(1 1) rotate(0) translate(4 950.53)">
<title>G</title>
<polygon fill="white" stroke="transparent" points="-4,4 -4,-950.53 627.63,-950.53 627.63,4 -4,4"/>
<!-- http://purl.org/oseg/ontologies/OTRL#OTRL -->
<g id="node1" class="node">
<title>http://purl.org/oseg/ontologies/OTRL#OTRL</title>
<ellipse fill="none" stroke="#e377c2" cx="341.04" cy="-501.26" rx="39.7" ry="16.03"/>
<text text-anchor="middle" x="341.04" y="-497.56" font-family="Times,serif" font-size="14.00">OTRL</text>
</g>
<!-- http://www.w3.org/2002/07/owl#class -->
<g id="node2" class="node">
<title>http://www.w3.org/2002/07/owl#class</title>
<ellipse fill="none" stroke="#1f77b4" cx="566.36" cy="-331.26" rx="57.05" ry="16.03"/>
<text text-anchor="middle" x="566.36" y="-327.56" font-family="Times,serif" font-size="14.00">owl:class</text>
</g>
<!-- http://purl.org/oseg/ontologies/OTRL#OTRL&#45;&gt;http://www.w3.org/2002/07/owl#class -->
<g id="edge4" class="edge">
<title>http://purl.org/oseg/ontologies/OTRL#OTRL&#45;&gt;http://www.w3.org/2002/07/owl#class</title>
<path fill="none" stroke="black" d="M380.88,-500.65C413.31,-498.29 459.22,-490.45 491.08,-466.26 527.26,-438.8 548.12,-388.37 558.07,-357.53"/>
<polygon fill="black" stroke="black" points="561.44,-358.47 561.03,-347.88 554.75,-356.42 561.44,-358.47"/>
<text text-anchor="middle" x="486.58" y="-475.06" font-family="Times,serif" font-size="14.00">a</text>
</g>
<!-- http://purl.org/oseg/ontologies/OTRL#ODRL -->
<g id="node3" class="node">
<title>http://purl.org/oseg/ontologies/OTRL#ODRL</title>
<ellipse fill="none" stroke="#e377c2" cx="566.36" cy="-125.26" rx="41.94" ry="16.03"/>
<text text-anchor="middle" x="566.36" y="-121.56" font-family="Times,serif" font-size="14.00">ODRL</text>
</g>
<!-- http://www.w3.org/2002/07/owl#DatatypeProperty -->
<g id="node4" class="node">
<title>http://www.w3.org/2002/07/owl#DatatypeProperty</title>
<ellipse fill="none" stroke="#1f77b4" cx="341.04" cy="-734.26" rx="123.07" ry="16.03"/>
<text text-anchor="middle" x="341.04" y="-730.56" font-family="Times,serif" font-size="14.00">owl:DatatypeProperty</text>
</g>
<!-- http://www.w3.org/2002/07/owl#Ontology -->
<g id="node5" class="node">
<title>http://www.w3.org/2002/07/owl#Ontology</title>
<ellipse fill="none" stroke="#1f77b4" cx="341.04" cy="-795.26" rx="77.56" ry="16.03"/>
<text text-anchor="middle" x="341.04" y="-791.56" font-family="Times,serif" font-size="14.00">owl:Ontology</text>
</g>
<!-- http://www.w3.org/1999/02/22&#45;rdf&#45;syntax&#45;ns#nil -->
<g id="node6" class="node">
<title>http://www.w3.org/1999/02/22&#45;rdf&#45;syntax&#45;ns#nil</title>
<ellipse fill="none" stroke="#e377c2" cx="70" cy="-879.26" rx="42.35" ry="16.03"/>
<text text-anchor="middle" x="70" y="-875.56" font-family="Times,serif" font-size="14.00">rdf:nil</text>
</g>
<!-- http://purl.org/oseg/ontologies/OTRL#Odrl3Star -->
<g id="node7" class="node">
<title>http://purl.org/oseg/ontologies/OTRL#Odrl3Star</title>
<ellipse fill="none" stroke="#e377c2" cx="341.04" cy="-143.26" rx="62.45" ry="16.03"/>
<text text-anchor="middle" x="341.04" y="-139.56" font-family="Times,serif" font-size="14.00">Odrl3Star</text>
</g>
<!-- http://purl.org/oseg/ontologies/OTRL#Odrl3Star&#45;&gt;http://www.w3.org/2002/07/owl#class -->
<g id="edge18" class="edge">
<title>http://purl.org/oseg/ontologies/OTRL#Odrl3Star&#45;&gt;http://www.w3.org/2002/07/owl#class</title>
<path fill="none" stroke="black" d="M401.44,-147.51C422.71,-151.34 445.89,-158.39 464.08,-171.26 511.82,-205.06 542.13,-269.17 556.17,-305.13"/>
<polygon fill="black" stroke="black" points="553.05,-306.78 559.85,-314.9 559.6,-304.31 553.05,-306.78"/>
<text text-anchor="middle" x="486.58" y="-199.06" font-family="Times,serif" font-size="14.00">a</text>
</g>
<!-- http://purl.org/oseg/ontologies/OTRL#Odrl3Star&#45;&gt;http://purl.org/oseg/ontologies/OTRL#ODRL -->
<g id="edge26" class="edge">
<title>http://purl.org/oseg/ontologies/OTRL#Odrl3Star&#45;&gt;http://purl.org/oseg/ontologies/OTRL#ODRL</title>
<path fill="none" stroke="black" d="M400.72,-138.53C436.32,-135.66 481.28,-132.04 515.21,-129.31"/>
<polygon fill="black" stroke="black" points="515.68,-132.78 525.37,-128.49 515.12,-125.8 515.68,-132.78"/>
</g>
<!-- http://purl.org/oseg/ontologies/OTRL#Otrl2 -->
<g id="node8" class="node">
<title>http://purl.org/oseg/ontologies/OTRL#Otrl2</title>
<ellipse fill="none" stroke="#e377c2" cx="70" cy="-414.26" rx="38.37" ry="16.03"/>
<text text-anchor="middle" x="70" y="-410.56" font-family="Times,serif" font-size="14.00">Otrl2</text>
</g>
<!-- http://purl.org/oseg/ontologies/OTRL#Otrl2&#45;&gt;http://purl.org/oseg/ontologies/OTRL#OTRL -->
<g id="edge7" class="edge">
<title>http://purl.org/oseg/ontologies/OTRL#Otrl2&#45;&gt;http://purl.org/oseg/ontologies/OTRL#OTRL</title>
<path fill="none" stroke="black" d="M97.46,-425.71C126.61,-438.05 175.06,-457.72 218.01,-471.26 243.38,-479.27 272.28,-486.45 295.58,-491.78"/>
<polygon fill="black" stroke="black" points="295,-495.24 305.52,-494.03 296.54,-488.41 295,-495.24"/>
</g>
<!-- http://purl.org/oseg/ontologies/OTRL#Otrl2&#45;&gt;http://www.w3.org/2002/07/owl#class -->
<g id="edge1" class="edge">
<title>http://purl.org/oseg/ontologies/OTRL#Otrl2&#45;&gt;http://www.w3.org/2002/07/owl#class</title>
<path fill="none" stroke="black" d="M108.23,-414.16C178.78,-413.16 336.35,-407.08 464.08,-374.26 486.4,-368.53 510.17,-358.65 529.07,-349.81"/>
<polygon fill="black" stroke="black" points="530.69,-352.92 538.2,-345.44 527.67,-346.6 530.69,-352.92"/>
<text text-anchor="middle" x="341.04" y="-414.06" font-family="Times,serif" font-size="14.00">a</text>
</g>
<!-- http://purl.org/oseg/ontologies/OTRL#goal -->
<g id="node9" class="node">
<title>http://purl.org/oseg/ontologies/OTRL#goal</title>
<ellipse fill="none" stroke="#e377c2" cx="70" cy="-738.26" rx="33.47" ry="16.03"/>
<text text-anchor="middle" x="70" y="-734.56" font-family="Times,serif" font-size="14.00">goal</text>
</g>
<!-- http://purl.org/oseg/ontologies/OTRL#goal&#45;&gt;http://www.w3.org/2002/07/owl#DatatypeProperty -->
<g id="edge2" class="edge">
<title>http://purl.org/oseg/ontologies/OTRL#goal&#45;&gt;http://www.w3.org/2002/07/owl#DatatypeProperty</title>
<path fill="none" stroke="black" d="M103.46,-737.78C129.95,-737.39 169.25,-736.8 208.25,-736.22"/>
<polygon fill="black" stroke="black" points="208.75,-739.72 218.69,-736.07 208.64,-732.72 208.75,-739.72"/>
<text text-anchor="middle" x="179.01" y="-741.06" font-family="Times,serif" font-size="14.00">a</text>
</g>
<!-- http://schema.org/Text -->
<g id="node12" class="node">
<title>http://schema.org/Text</title>
<ellipse fill="none" stroke="#e377c2" cx="341.04" cy="-663.26" rx="74.91" ry="16.03"/>
<text text-anchor="middle" x="341.04" y="-659.56" font-family="Times,serif" font-size="14.00">schema:Text</text>
</g>
<!-- http://purl.org/oseg/ontologies/OTRL#goal&#45;&gt;http://schema.org/Text -->
<g id="edge8" class="edge">
<title>http://purl.org/oseg/ontologies/OTRL#goal&#45;&gt;http://schema.org/Text</title>
<path fill="none" stroke="black" d="M99.29,-730.38C143.07,-718.17 228.07,-694.48 284.45,-678.76"/>
<polygon fill="black" stroke="black" points="285.59,-682.08 294.28,-676.02 283.71,-675.33 285.59,-682.08"/>
<text text-anchor="middle" x="179.01" y="-718.06" font-family="Times,serif" font-size="14.00">range</text>
</g>
<!-- http://purl.org/oseg/ontologies/OTRL#Odrl -->
<g id="node10" class="node">
<title>http://purl.org/oseg/ontologies/OTRL#Odrl</title>
<ellipse fill="none" stroke="#e377c2" cx="341.04" cy="-349.26" rx="33.88" ry="16.03"/>
<text text-anchor="middle" x="341.04" y="-345.56" font-family="Times,serif" font-size="14.00">Odrl</text>
</g>
<!-- http://purl.org/oseg/ontologies/OTRL#Odrl&#45;&gt;http://www.w3.org/2002/07/owl#class -->
<g id="edge21" class="edge">
<title>http://purl.org/oseg/ontologies/OTRL#Odrl&#45;&gt;http://www.w3.org/2002/07/owl#class</title>
<path fill="none" stroke="black" d="M374.99,-346.61C407.99,-343.95 459.64,-339.78 500.82,-336.47"/>
<polygon fill="black" stroke="black" points="501.36,-339.93 511.04,-335.64 500.8,-332.96 501.36,-339.93"/>
<text text-anchor="middle" x="486.58" y="-342.06" font-family="Times,serif" font-size="14.00">a</text>
</g>
<!-- http://purl.org/oseg/ontologies/OTRL#Odrl4 -->
<g id="node11" class="node">
<title>http://purl.org/oseg/ontologies/OTRL#Odrl4</title>
<ellipse fill="none" stroke="#e377c2" cx="341.04" cy="-87.26" rx="40.11" ry="16.03"/>
<text text-anchor="middle" x="341.04" y="-83.56" font-family="Times,serif" font-size="14.00">Odrl4</text>
</g>
<!-- http://purl.org/oseg/ontologies/OTRL#Odrl4&#45;&gt;http://www.w3.org/2002/07/owl#class -->
<g id="edge19" class="edge">
<title>http://purl.org/oseg/ontologies/OTRL#Odrl4&#45;&gt;http://www.w3.org/2002/07/owl#class</title>
<path fill="none" stroke="black" d="M381.09,-89.1C407,-92.12 440.45,-99.68 464.08,-118.26 524.87,-166.06 551.09,-259.26 560.66,-304.86"/>
<polygon fill="black" stroke="black" points="557.26,-305.73 562.65,-314.86 564.13,-304.37 557.26,-305.73"/>
<text text-anchor="middle" x="486.58" y="-149.06" font-family="Times,serif" font-size="14.00">a</text>
</g>
<!-- http://purl.org/oseg/ontologies/OTRL#Odrl4&#45;&gt;http://purl.org/oseg/ontologies/OTRL#ODRL -->
<g id="edge16" class="edge">
<title>http://purl.org/oseg/ontologies/OTRL#Odrl4&#45;&gt;http://purl.org/oseg/ontologies/OTRL#ODRL</title>
<path fill="none" stroke="black" d="M374.76,-78.21C405.45,-71.26 452.31,-64.63 491.08,-76.26 509.46,-81.78 527.49,-93.48 541.18,-104.06"/>
<polygon fill="black" stroke="black" points="539.13,-106.9 549.11,-110.44 543.52,-101.45 539.13,-106.9"/>
</g>
<!-- http://purl.org/oseg/ontologies/OTRL -->
<g id="node13" class="node">
<title>http://purl.org/oseg/ontologies/OTRL</title>
<ellipse fill="none" stroke="#e377c2" cx="70" cy="-795.26" rx="60.62" ry="16.03"/>
<text text-anchor="middle" x="70" y="-791.56" font-family="Times,serif" font-size="14.00">ns1:OTRL</text>
</g>
<!-- http://purl.org/oseg/ontologies/OTRL&#45;&gt;http://www.w3.org/2002/07/owl#Ontology -->
<g id="edge12" class="edge">
<title>http://purl.org/oseg/ontologies/OTRL&#45;&gt;http://www.w3.org/2002/07/owl#Ontology</title>
<path fill="none" stroke="black" d="M131.05,-795.26C166.88,-795.26 213,-795.26 252.8,-795.26"/>
<polygon fill="black" stroke="black" points="253.04,-798.76 263.04,-795.26 253.04,-791.76 253.04,-798.76"/>
<text text-anchor="middle" x="179.01" y="-799.06" font-family="Times,serif" font-size="14.00">a</text>
</g>
<!-- http://purl.org/oseg/ontologies/OTRL&#45;&gt;http://purl.org/oseg/ontologies/OTRL -->
<g id="edge5" class="edge">
<title>http://purl.org/oseg/ontologies/OTRL&#45;&gt;http://purl.org/oseg/ontologies/OTRL</title>
<path fill="none" stroke="black" d="M51.18,-810.77C46.64,-820.38 52.92,-829.53 70,-829.53 80.68,-829.53 87.14,-825.95 89.37,-820.93"/>
<polygon fill="black" stroke="black" points="92.85,-820.57 88.82,-810.77 85.86,-820.94 92.85,-820.57"/>
<text text-anchor="middle" x="70" y="-833.33" font-family="Times,serif" font-size="14.00">owl:versionIRI</text>
</g>
<!-- http://purl.org/oseg/ontologies/OTRL#exitCriteria -->
<g id="node14" class="node">
<title>http://purl.org/oseg/ontologies/OTRL#exitCriteria</title>
<ellipse fill="none" stroke="#e377c2" cx="70" cy="-662.26" rx="70.01" ry="16.03"/>
<text text-anchor="middle" x="70" y="-658.56" font-family="Times,serif" font-size="14.00">exitCriteria</text>
</g>
<!-- http://purl.org/oseg/ontologies/OTRL#exitCriteria&#45;&gt;http://www.w3.org/2002/07/owl#DatatypeProperty -->
<g id="edge6" class="edge">
<title>http://purl.org/oseg/ontologies/OTRL#exitCriteria&#45;&gt;http://www.w3.org/2002/07/owl#DatatypeProperty</title>
<path fill="none" stroke="black" d="M140.01,-663.63C159.82,-665.65 181.16,-669.43 200.01,-676.26 209.05,-679.54 209.45,-683.87 218.01,-688.26 238.53,-698.8 262.04,-708.23 282.91,-715.77"/>
<polygon fill="black" stroke="black" points="282.02,-719.17 292.61,-719.21 284.35,-712.57 282.02,-719.17"/>
<text text-anchor="middle" x="179.01" y="-680.06" font-family="Times,serif" font-size="14.00">a</text>
</g>
<!-- http://purl.org/oseg/ontologies/OTRL#exitCriteria&#45;&gt;http://schema.org/Text -->
<g id="edge20" class="edge">
<title>http://purl.org/oseg/ontologies/OTRL#exitCriteria&#45;&gt;http://schema.org/Text</title>
<path fill="none" stroke="black" d="M110.82,-648.86C125.47,-644.57 142.32,-640.39 158.01,-638.26 200.77,-632.47 249.17,-639.78 285.31,-647.97"/>
<polygon fill="black" stroke="black" points="284.63,-651.4 295.16,-650.29 286.23,-644.59 284.63,-651.4"/>
<text text-anchor="middle" x="179.01" y="-642.06" font-family="Times,serif" font-size="14.00">range</text>
</g>
<!-- http://purl.org/oseg/ontologies/OTRL#Odrl2 -->
<g id="node15" class="node">
<title>http://purl.org/oseg/ontologies/OTRL#Odrl2</title>
<ellipse fill="none" stroke="#e377c2" cx="341.04" cy="-16.26" rx="40.11" ry="16.03"/>
<text text-anchor="middle" x="341.04" y="-12.56" font-family="Times,serif" font-size="14.00">Odrl2</text>
</g>
<!-- http://purl.org/oseg/ontologies/OTRL#Odrl2&#45;&gt;http://www.w3.org/2002/07/owl#class -->
<g id="edge22" class="edge">
<title>http://purl.org/oseg/ontologies/OTRL#Odrl2&#45;&gt;http://www.w3.org/2002/07/owl#class</title>
<path fill="none" stroke="black" d="M378.38,-22.51C404.84,-28.69 440.11,-40.49 464.08,-62.26 482.97,-79.43 536.36,-240.99 557.03,-305.17"/>
<polygon fill="black" stroke="black" points="553.78,-306.49 560.17,-314.94 560.45,-304.35 553.78,-306.49"/>
<text text-anchor="middle" x="486.58" y="-114.06" font-family="Times,serif" font-size="14.00">a</text>
</g>
<!-- http://purl.org/oseg/ontologies/OTRL#Odrl2&#45;&gt;http://purl.org/oseg/ontologies/OTRL#ODRL -->
<g id="edge28" class="edge">
<title>http://purl.org/oseg/ontologies/OTRL#Odrl2&#45;&gt;http://purl.org/oseg/ontologies/OTRL#ODRL</title>
<path fill="none" stroke="black" d="M374.4,-6.92C406.11,0.33 454.82,6.2 491.08,-13.26 524.8,-31.36 545.81,-72.26 556.54,-99.3"/>
<polygon fill="black" stroke="black" points="553.36,-100.78 560.16,-108.91 559.91,-98.32 553.36,-100.78"/>
</g>
<!-- http://purl.org/oseg/ontologies/OTRL#Otrl3 -->
<g id="node16" class="node">
<title>http://purl.org/oseg/ontologies/OTRL#Otrl3</title>
<ellipse fill="none" stroke="#e377c2" cx="70" cy="-325.26" rx="38.37" ry="16.03"/>
<text text-anchor="middle" x="70" y="-321.56" font-family="Times,serif" font-size="14.00">Otrl3</text>
</g>
<!-- http://purl.org/oseg/ontologies/OTRL#Otrl3&#45;&gt;http://purl.org/oseg/ontologies/OTRL#OTRL -->
<g id="edge17" class="edge">
<title>http://purl.org/oseg/ontologies/OTRL#Otrl3&#45;&gt;http://purl.org/oseg/ontologies/OTRL#OTRL</title>
<path fill="none" stroke="black" d="M86.99,-339.91C101.03,-352.83 121.97,-372.19 140.01,-389.26 166.94,-414.76 175.47,-419.45 200.01,-447.26 208.83,-457.26 206.88,-463.91 218.01,-471.26 239.9,-485.74 268.17,-493.24 291.99,-497.11"/>
<polygon fill="black" stroke="black" points="291.49,-500.58 301.89,-498.57 292.5,-493.65 291.49,-500.58"/>
</g>
<!-- http://purl.org/oseg/ontologies/OTRL#Otrl3&#45;&gt;http://www.w3.org/2002/07/owl#class -->
<g id="edge9" class="edge">
<title>http://purl.org/oseg/ontologies/OTRL#Otrl3&#45;&gt;http://www.w3.org/2002/07/owl#class</title>
<path fill="none" stroke="black" d="M106.62,-320.31C175.75,-311.47 332.85,-295.17 464.08,-309.26 480.37,-311.01 497.88,-314.3 513.69,-317.81"/>
<polygon fill="black" stroke="black" points="513.27,-321.31 523.8,-320.14 514.84,-314.48 513.27,-321.31"/>
<text text-anchor="middle" x="341.04" y="-313.06" font-family="Times,serif" font-size="14.00">a</text>
</g>
<!-- http://purl.org/oseg/ontologies/OTRL#Odrl3 -->
<g id="node17" class="node">
<title>http://purl.org/oseg/ontologies/OTRL#Odrl3</title>
<ellipse fill="none" stroke="#e377c2" cx="341.04" cy="-248.26" rx="40.11" ry="16.03"/>
<text text-anchor="middle" x="341.04" y="-244.56" font-family="Times,serif" font-size="14.00">Odrl3</text>
</g>
<!-- http://purl.org/oseg/ontologies/OTRL#Odrl3&#45;&gt;http://www.w3.org/2002/07/owl#class -->
<g id="edge10" class="edge">
<title>http://purl.org/oseg/ontologies/OTRL#Odrl3&#45;&gt;http://www.w3.org/2002/07/owl#class</title>
<path fill="none" stroke="black" d="M378.94,-254.01C409.76,-259.61 454.43,-269.59 491.08,-285.26 506.6,-291.9 522.67,-301.46 535.87,-310.15"/>
<polygon fill="black" stroke="black" points="534.27,-313.29 544.51,-315.98 538.18,-307.49 534.27,-313.29"/>
<text text-anchor="middle" x="486.58" y="-289.06" font-family="Times,serif" font-size="14.00">a</text>
</g>
<!-- http://purl.org/oseg/ontologies/OTRL#Odrl3&#45;&gt;http://purl.org/oseg/ontologies/OTRL#ODRL -->
<g id="edge3" class="edge">
<title>http://purl.org/oseg/ontologies/OTRL#Odrl3&#45;&gt;http://purl.org/oseg/ontologies/OTRL#ODRL</title>
<path fill="none" stroke="black" d="M378.68,-254.12C410.58,-257.32 456.93,-257.25 491.08,-237.26 523.94,-218.04 545.08,-177.82 556.1,-151.19"/>
<polygon fill="black" stroke="black" points="559.42,-152.3 559.83,-141.71 552.91,-149.74 559.42,-152.3"/>
</g>
<!-- http://purl.org/oseg/ontologies/OTRL#Otrl4 -->
<g id="node18" class="node">
<title>http://purl.org/oseg/ontologies/OTRL#Otrl4</title>
<ellipse fill="none" stroke="#e377c2" cx="70" cy="-478.26" rx="38.37" ry="16.03"/>
<text text-anchor="middle" x="70" y="-474.56" font-family="Times,serif" font-size="14.00">Otrl4</text>
</g>
<!-- http://purl.org/oseg/ontologies/OTRL#Otrl4&#45;&gt;http://purl.org/oseg/ontologies/OTRL#OTRL -->
<g id="edge11" class="edge">
<title>http://purl.org/oseg/ontologies/OTRL#Otrl4&#45;&gt;http://purl.org/oseg/ontologies/OTRL#OTRL</title>
<path fill="none" stroke="black" d="M107.57,-481.39C155.25,-485.47 238.79,-492.61 291.67,-497.13"/>
<polygon fill="black" stroke="black" points="291.56,-500.63 301.82,-498 292.16,-493.66 291.56,-500.63"/>
</g>
<!-- http://purl.org/oseg/ontologies/OTRL#Otrl4&#45;&gt;http://www.w3.org/2002/07/owl#class -->
<g id="edge24" class="edge">
<title>http://purl.org/oseg/ontologies/OTRL#Otrl4&#45;&gt;http://www.w3.org/2002/07/owl#class</title>
<path fill="none" stroke="black" d="M107.12,-474.07C202.79,-462.91 456.04,-433.11 464.08,-429.26 499.26,-412.42 529.9,-378.55 548.01,-355.39"/>
<polygon fill="black" stroke="black" points="550.83,-357.47 554.1,-347.4 545.26,-353.23 550.83,-357.47"/>
<text text-anchor="middle" x="341.04" y="-465.06" font-family="Times,serif" font-size="14.00">a</text>
</g>
<!-- http://purl.org/oseg/ontologies/OTRL#Otrl5 -->
<g id="node19" class="node">
<title>http://purl.org/oseg/ontologies/OTRL#Otrl5</title>
<ellipse fill="none" stroke="#e377c2" cx="70" cy="-544.26" rx="38.37" ry="16.03"/>
<text text-anchor="middle" x="70" y="-540.56" font-family="Times,serif" font-size="14.00">Otrl5</text>
</g>
<!-- http://purl.org/oseg/ontologies/OTRL#Otrl5&#45;&gt;http://purl.org/oseg/ontologies/OTRL#OTRL -->
<g id="edge23" class="edge">
<title>http://purl.org/oseg/ontologies/OTRL#Otrl5&#45;&gt;http://purl.org/oseg/ontologies/OTRL#OTRL</title>
<path fill="none" stroke="black" d="M105.9,-538.69C153.99,-531 240.71,-517.14 294.04,-508.62"/>
<polygon fill="black" stroke="black" points="294.6,-512.07 303.92,-507.04 293.49,-505.16 294.6,-512.07"/>
</g>
<!-- http://purl.org/oseg/ontologies/OTRL#Otrl5&#45;&gt;http://www.w3.org/2002/07/owl#class -->
<g id="edge14" class="edge">
<title>http://purl.org/oseg/ontologies/OTRL#Otrl5&#45;&gt;http://www.w3.org/2002/07/owl#class</title>
<path fill="none" stroke="black" d="M107.96,-546.52C193.64,-551.12 403.14,-558.63 464.08,-526.26 527.71,-492.47 552.57,-402.41 561.24,-357.49"/>
<polygon fill="black" stroke="black" points="564.69,-358.08 563.02,-347.61 557.8,-356.83 564.69,-358.08"/>
<text text-anchor="middle" x="341.04" y="-555.06" font-family="Times,serif" font-size="14.00">a</text>
</g>
<!-- http://purl.org/oseg/ontologies/OTRL#Odrl1 -->
<g id="node20" class="node">
<title>http://purl.org/oseg/ontologies/OTRL#Odrl1</title>
<ellipse fill="none" stroke="#e377c2" cx="341.04" cy="-196.26" rx="40.11" ry="16.03"/>
<text text-anchor="middle" x="341.04" y="-192.56" font-family="Times,serif" font-size="14.00">Odrl1</text>
</g>
<!-- http://purl.org/oseg/ontologies/OTRL#Odrl1&#45;&gt;http://www.w3.org/2002/07/owl#class -->
<g id="edge25" class="edge">
<title>http://purl.org/oseg/ontologies/OTRL#Odrl1&#45;&gt;http://www.w3.org/2002/07/owl#class</title>
<path fill="none" stroke="black" d="M381,-198.94C406.08,-202.05 438.62,-208.77 464.08,-223.26 500.45,-243.97 531.52,-282.02 549.32,-306.98"/>
<polygon fill="black" stroke="black" points="546.47,-309 555.05,-315.21 552.21,-305 546.47,-309"/>
<text text-anchor="middle" x="486.58" y="-246.06" font-family="Times,serif" font-size="14.00">a</text>
</g>
<!-- http://purl.org/oseg/ontologies/OTRL#Odrl1&#45;&gt;http://purl.org/oseg/ontologies/OTRL#ODRL -->
<g id="edge15" class="edge">
<title>http://purl.org/oseg/ontologies/OTRL#Odrl1&#45;&gt;http://purl.org/oseg/ontologies/OTRL#ODRL</title>
<path fill="none" stroke="black" d="M381.5,-195.1C412.25,-193.09 455.53,-187.84 491.08,-174.26 508.65,-167.55 526.3,-156.14 539.99,-146.02"/>
<polygon fill="black" stroke="black" points="542.14,-148.79 547.96,-139.94 537.89,-143.22 542.14,-148.79"/>
</g>
<!-- http://purl.org/oseg/ontologies/OTRL#Otrl -->
<g id="node21" class="node">
<title>http://purl.org/oseg/ontologies/OTRL#Otrl</title>
<ellipse fill="none" stroke="#e377c2" cx="70" cy="-930.26" rx="31.64" ry="16.03"/>
<text text-anchor="middle" x="70" y="-926.56" font-family="Times,serif" font-size="14.00">Otrl</text>
</g>
<!-- http://purl.org/oseg/ontologies/OTRL#Otrl1 -->
<g id="node22" class="node">
<title>http://purl.org/oseg/ontologies/OTRL#Otrl1</title>
<ellipse fill="none" stroke="#e377c2" cx="70" cy="-598.26" rx="38.37" ry="16.03"/>
<text text-anchor="middle" x="70" y="-594.56" font-family="Times,serif" font-size="14.00">Otrl1</text>
</g>
<!-- http://purl.org/oseg/ontologies/OTRL#Otrl1&#45;&gt;http://purl.org/oseg/ontologies/OTRL#OTRL -->
<g id="edge13" class="edge">
<title>http://purl.org/oseg/ontologies/OTRL#Otrl1&#45;&gt;http://purl.org/oseg/ontologies/OTRL#OTRL</title>
<path fill="none" stroke="black" d="M98.31,-587.07C111.03,-581.79 126.35,-575.32 140.01,-569.26 166.91,-557.34 173.8,-554.64 200.01,-541.26 208.16,-537.1 209.49,-534.61 218.01,-531.26 242.51,-521.65 271.02,-514.43 294.32,-509.49"/>
<polygon fill="black" stroke="black" points="295.2,-512.88 304.29,-507.44 293.79,-506.02 295.2,-512.88"/>
</g>
<!-- http://purl.org/oseg/ontologies/OTRL#Otrl1&#45;&gt;http://www.w3.org/2002/07/owl#class -->
<g id="edge27" class="edge">
<title>http://purl.org/oseg/ontologies/OTRL#Otrl1&#45;&gt;http://www.w3.org/2002/07/owl#class</title>
<path fill="none" stroke="black" d="M104.34,-605.47C176.2,-619.08 348.5,-641.24 464.08,-570.26 538.83,-524.36 558.46,-410.08 563.57,-357.95"/>
<polygon fill="black" stroke="black" points="567.08,-358.08 564.46,-347.82 560.1,-357.47 567.08,-358.08"/>
<text text-anchor="middle" x="341.04" y="-624.06" font-family="Times,serif" font-size="14.00">a</text>
</g>
</g>
</svg>
