<?xml version="1.0" encoding="UTF-8" standalone="no"?>
<!DOCTYPE svg PUBLIC "-//W3C//DTD SVG 1.1//EN"
 "http://www.w3.org/Graphics/SVG/1.1/DTD/svg11.dtd">
<!-- Generated by graphviz version 2.43.0 (0)
 -->
<!-- Title: G Pages: 1 -->
<svg width="632pt" height="1009pt"
 viewBox="0.00 0.00 631.63 1008.53" xmlns="http://www.w3.org/2000/svg" xmlns:xlink="http://www.w3.org/1999/xlink">
<g id="graph0" class="graph" transform="scale(1 1) rotate(0) translate(4 1004.53)">
<title>G</title>
<polygon fill="white" stroke="transparent" points="-4,4 -4,-1004.53 627.63,-1004.53 627.63,4 -4,4"/>
<!-- http://www.w3.org/2002/07/owl#class -->
<g id="node1" class="node">
<title>http://www.w3.org/2002/07/owl#class</title>
<ellipse fill="none" stroke="#1f77b4" cx="566.36" cy="-349.26" rx="57.05" ry="16.03"/>
<text text-anchor="middle" x="566.36" y="-345.56" font-family="Times,serif" font-size="14.00">owl:class</text>
</g>
<!-- http://purl.org/oseg/ontologies/OTRL#ODRL -->
<g id="node2" class="node">
<title>http://purl.org/oseg/ontologies/OTRL#ODRL</title>
<ellipse fill="none" stroke="#e377c2" cx="566.36" cy="-125.26" rx="41.94" ry="16.03"/>
<text text-anchor="middle" x="566.36" y="-121.56" font-family="Times,serif" font-size="14.00">ODRL</text>
</g>
<!-- http://www.w3.org/2002/07/owl#DatatypeProperty -->
<g id="node3" class="node">
<title>http://www.w3.org/2002/07/owl#DatatypeProperty</title>
<ellipse fill="none" stroke="#1f77b4" cx="341.04" cy="-790.26" rx="123.07" ry="16.03"/>
<text text-anchor="middle" x="341.04" y="-786.56" font-family="Times,serif" font-size="14.00">owl:DatatypeProperty</text>
</g>
<!-- http://www.w3.org/2002/07/owl#Ontology -->
<g id="node4" class="node">
<title>http://www.w3.org/2002/07/owl#Ontology</title>
<ellipse fill="none" stroke="#1f77b4" cx="341.04" cy="-849.26" rx="77.56" ry="16.03"/>
<text text-anchor="middle" x="341.04" y="-845.56" font-family="Times,serif" font-size="14.00">owl:Ontology</text>
</g>
<!-- http://purl.org/oseg/ontologies/OTRL#OTRL -->
<g id="node5" class="node">
<title>http://purl.org/oseg/ontologies/OTRL#OTRL</title>
<ellipse fill="none" stroke="#e377c2" cx="341.04" cy="-501.26" rx="39.7" ry="16.03"/>
<text text-anchor="middle" x="341.04" y="-497.56" font-family="Times,serif" font-size="14.00">OTRL</text>
</g>
<!-- http://purl.org/oseg/ontologies/OTRL#OTRL&#45;&gt;http://www.w3.org/2002/07/owl#class -->
<g id="edge7" class="edge">
<title>http://purl.org/oseg/ontologies/OTRL#OTRL&#45;&gt;http://www.w3.org/2002/07/owl#class</title>
<path fill="none" stroke="black" d="M380.83,-500.11C413,-497.41 458.58,-489.36 491.08,-466.26 523.08,-443.52 544.46,-402.24 555.76,-375.29"/>
<polygon fill="black" stroke="black" points="559.12,-376.32 559.6,-365.74 552.62,-373.71 559.12,-376.32"/>
<text text-anchor="middle" x="486.58" y="-475.06" font-family="Times,serif" font-size="14.00">a</text>
</g>
<!-- http://purl.org/oseg/ontologies/OTRL#Otrl3 -->
<g id="node6" class="node">
<title>http://purl.org/oseg/ontologies/OTRL#Otrl3</title>
<ellipse fill="none" stroke="#e377c2" cx="70" cy="-547.26" rx="38.37" ry="16.03"/>
<text text-anchor="middle" x="70" y="-543.56" font-family="Times,serif" font-size="14.00">Otrl3</text>
</g>
<!-- http://purl.org/oseg/ontologies/OTRL#Otrl3&#45;&gt;http://www.w3.org/2002/07/owl#class -->
<g id="edge19" class="edge">
<title>http://purl.org/oseg/ontologies/OTRL#Otrl3&#45;&gt;http://www.w3.org/2002/07/owl#class</title>
<path fill="none" stroke="black" d="M107.97,-549.19C193.65,-553.05 403.19,-558.77 464.08,-526.26 521.83,-495.44 548.99,-416.8 559.62,-375.5"/>
<polygon fill="black" stroke="black" points="563.06,-376.17 562.03,-365.62 556.26,-374.51 563.06,-376.17"/>
<text text-anchor="middle" x="341.04" y="-556.06" font-family="Times,serif" font-size="14.00">a</text>
</g>
<!-- http://purl.org/oseg/ontologies/OTRL#Otrl3&#45;&gt;http://purl.org/oseg/ontologies/OTRL#OTRL -->
<g id="edge15" class="edge">
<title>http://purl.org/oseg/ontologies/OTRL#Otrl3&#45;&gt;http://purl.org/oseg/ontologies/OTRL#OTRL</title>
<path fill="none" stroke="black" d="M105.63,-541.34C153.76,-533.11 240.98,-518.2 294.39,-509.07"/>
<polygon fill="black" stroke="black" points="295,-512.52 304.27,-507.38 293.82,-505.62 295,-512.52"/>
</g>
<!-- http://purl.org/oseg/ontologies/OTRL#Otrl6 -->
<g id="node7" class="node">
<title>http://purl.org/oseg/ontologies/OTRL#Otrl6</title>
<ellipse fill="none" stroke="#e377c2" cx="70" cy="-414.26" rx="38.37" ry="16.03"/>
<text text-anchor="middle" x="70" y="-410.56" font-family="Times,serif" font-size="14.00">Otrl6</text>
</g>
<!-- http://purl.org/oseg/ontologies/OTRL#Otrl6&#45;&gt;http://www.w3.org/2002/07/owl#class -->
<g id="edge1" class="edge">
<title>http://purl.org/oseg/ontologies/OTRL#Otrl6&#45;&gt;http://www.w3.org/2002/07/owl#class</title>
<path fill="none" stroke="black" d="M108.04,-411.95C177.97,-407.26 334.06,-395.25 464.08,-374.26 480.96,-371.54 499.16,-367.42 515.42,-363.31"/>
<polygon fill="black" stroke="black" points="516.45,-366.66 525.26,-360.77 514.7,-359.89 516.45,-366.66"/>
<text text-anchor="middle" x="341.04" y="-408.06" font-family="Times,serif" font-size="14.00">a</text>
</g>
<!-- http://purl.org/oseg/ontologies/OTRL#Otrl6&#45;&gt;http://purl.org/oseg/ontologies/OTRL#OTRL -->
<g id="edge28" class="edge">
<title>http://purl.org/oseg/ontologies/OTRL#Otrl6&#45;&gt;http://purl.org/oseg/ontologies/OTRL#OTRL</title>
<path fill="none" stroke="black" d="M97.46,-425.71C126.61,-438.05 175.06,-457.72 218.01,-471.26 243.38,-479.27 272.28,-486.45 295.58,-491.78"/>
<polygon fill="black" stroke="black" points="295,-495.24 305.52,-494.03 296.54,-488.41 295,-495.24"/>
</g>
<!-- http://purl.org/oseg/ontologies/OTRL#goal -->
<g id="node8" class="node">
<title>http://purl.org/oseg/ontologies/OTRL#goal</title>
<ellipse fill="none" stroke="#e377c2" cx="70" cy="-792.26" rx="33.47" ry="16.03"/>
<text text-anchor="middle" x="70" y="-788.56" font-family="Times,serif" font-size="14.00">goal</text>
</g>
<!-- http://purl.org/oseg/ontologies/OTRL#goal&#45;&gt;http://www.w3.org/2002/07/owl#DatatypeProperty -->
<g id="edge3" class="edge">
<title>http://purl.org/oseg/ontologies/OTRL#goal&#45;&gt;http://www.w3.org/2002/07/owl#DatatypeProperty</title>
<path fill="none" stroke="black" d="M103.46,-792.02C129.82,-791.83 168.87,-791.54 207.69,-791.25"/>
<polygon fill="black" stroke="black" points="208.1,-794.74 218.08,-791.17 208.05,-787.74 208.1,-794.74"/>
<text text-anchor="middle" x="179.01" y="-796.06" font-family="Times,serif" font-size="14.00">a</text>
</g>
<!-- http://schema.org/Text -->
<g id="node15" class="node">
<title>http://schema.org/Text</title>
<ellipse fill="none" stroke="#e377c2" cx="341.04" cy="-722.26" rx="74.91" ry="16.03"/>
<text text-anchor="middle" x="341.04" y="-718.56" font-family="Times,serif" font-size="14.00">schema:Text</text>
</g>
<!-- http://purl.org/oseg/ontologies/OTRL#goal&#45;&gt;http://schema.org/Text -->
<g id="edge8" class="edge">
<title>http://purl.org/oseg/ontologies/OTRL#goal&#45;&gt;http://schema.org/Text</title>
<path fill="none" stroke="black" d="M99.8,-784.77C143.15,-773.49 226.07,-751.92 282.22,-737.31"/>
<polygon fill="black" stroke="black" points="283.24,-740.66 292.03,-734.76 281.47,-733.89 283.24,-740.66"/>
<text text-anchor="middle" x="179.01" y="-774.06" font-family="Times,serif" font-size="14.00">range</text>
</g>
<!-- http://purl.org/oseg/ontologies/OTRL#Odrl4 -->
<g id="node9" class="node">
<title>http://purl.org/oseg/ontologies/OTRL#Odrl4</title>
<ellipse fill="none" stroke="#e377c2" cx="341.04" cy="-16.26" rx="40.11" ry="16.03"/>
<text text-anchor="middle" x="341.04" y="-12.56" font-family="Times,serif" font-size="14.00">Odrl4</text>
</g>
<!-- http://purl.org/oseg/ontologies/OTRL#Odrl4&#45;&gt;http://www.w3.org/2002/07/owl#class -->
<g id="edge21" class="edge">
<title>http://purl.org/oseg/ontologies/OTRL#Odrl4&#45;&gt;http://www.w3.org/2002/07/owl#class</title>
<path fill="none" stroke="black" d="M378.42,-22.46C404.91,-28.62 440.19,-40.41 464.08,-62.26 484.47,-80.91 480.83,-92.61 491.08,-118.26 520.18,-191.08 546.23,-280.14 558.28,-323.32"/>
<polygon fill="black" stroke="black" points="554.93,-324.33 560.97,-333.03 561.68,-322.46 554.93,-324.33"/>
<text text-anchor="middle" x="486.58" y="-122.06" font-family="Times,serif" font-size="14.00">a</text>
</g>
<!-- http://purl.org/oseg/ontologies/OTRL#Odrl4&#45;&gt;http://purl.org/oseg/ontologies/OTRL#ODRL -->
<g id="edge23" class="edge">
<title>http://purl.org/oseg/ontologies/OTRL#Odrl4&#45;&gt;http://purl.org/oseg/ontologies/OTRL#ODRL</title>
<path fill="none" stroke="black" d="M374.4,-6.92C406.11,0.33 454.82,6.2 491.08,-13.26 524.8,-31.36 545.81,-72.26 556.54,-99.3"/>
<polygon fill="black" stroke="black" points="553.36,-100.78 560.16,-108.91 559.91,-98.32 553.36,-100.78"/>
</g>
<!-- http://purl.org/oseg/ontologies/OTRL#Otrl1 -->
<g id="node10" class="node">
<title>http://purl.org/oseg/ontologies/OTRL#Otrl1</title>
<ellipse fill="none" stroke="#e377c2" cx="70" cy="-601.26" rx="38.37" ry="16.03"/>
<text text-anchor="middle" x="70" y="-597.56" font-family="Times,serif" font-size="14.00">Otrl1</text>
</g>
<!-- http://purl.org/oseg/ontologies/OTRL#Otrl1&#45;&gt;http://www.w3.org/2002/07/owl#class -->
<g id="edge22" class="edge">
<title>http://purl.org/oseg/ontologies/OTRL#Otrl1&#45;&gt;http://www.w3.org/2002/07/owl#class</title>
<path fill="none" stroke="black" d="M108.29,-602.75C194.68,-605.5 405.62,-608.14 464.08,-571.26 532.87,-527.87 555.44,-424.71 562.43,-375.83"/>
<polygon fill="black" stroke="black" points="565.92,-376.09 563.76,-365.72 558.98,-375.18 565.92,-376.09"/>
<text text-anchor="middle" x="341.04" y="-608.06" font-family="Times,serif" font-size="14.00">a</text>
</g>
<!-- http://purl.org/oseg/ontologies/OTRL#Otrl1&#45;&gt;http://purl.org/oseg/ontologies/OTRL#OTRL -->
<g id="edge29" class="edge">
<title>http://purl.org/oseg/ontologies/OTRL#Otrl1&#45;&gt;http://purl.org/oseg/ontologies/OTRL#OTRL</title>
<path fill="none" stroke="black" d="M98.35,-590.16C111.08,-584.89 126.39,-578.41 140.01,-572.26 167,-560.08 174.29,-557.96 200.01,-543.26 208.36,-538.49 209.21,-535.14 218.01,-531.26 242.01,-520.7 270.38,-513.44 293.73,-508.72"/>
<polygon fill="black" stroke="black" points="294.57,-512.12 303.73,-506.78 293.24,-505.24 294.57,-512.12"/>
</g>
<!-- http://purl.org/oseg/ontologies/OTRL#Odrl -->
<g id="node11" class="node">
<title>http://purl.org/oseg/ontologies/OTRL#Odrl</title>
<ellipse fill="none" stroke="#e377c2" cx="341.04" cy="-349.26" rx="33.88" ry="16.03"/>
<text text-anchor="middle" x="341.04" y="-345.56" font-family="Times,serif" font-size="14.00">Odrl</text>
</g>
<!-- http://purl.org/oseg/ontologies/OTRL#Odrl&#45;&gt;http://www.w3.org/2002/07/owl#class -->
<g id="edge4" class="edge">
<title>http://purl.org/oseg/ontologies/OTRL#Odrl&#45;&gt;http://www.w3.org/2002/07/owl#class</title>
<path fill="none" stroke="black" d="M374.99,-349.26C407.43,-349.26 457.89,-349.26 498.72,-349.26"/>
<polygon fill="black" stroke="black" points="498.87,-352.76 508.87,-349.26 498.87,-345.76 498.87,-352.76"/>
<text text-anchor="middle" x="486.58" y="-353.06" font-family="Times,serif" font-size="14.00">a</text>
</g>
<!-- http://purl.org/oseg/ontologies/OTRL#exitCriteria -->
<g id="node12" class="node">
<title>http://purl.org/oseg/ontologies/OTRL#exitCriteria</title>
<ellipse fill="none" stroke="#e377c2" cx="70" cy="-716.26" rx="70.01" ry="16.03"/>
<text text-anchor="middle" x="70" y="-712.56" font-family="Times,serif" font-size="14.00">exitCriteria</text>
</g>
<!-- http://purl.org/oseg/ontologies/OTRL#exitCriteria&#45;&gt;http://www.w3.org/2002/07/owl#DatatypeProperty -->
<g id="edge5" class="edge">
<title>http://purl.org/oseg/ontologies/OTRL#exitCriteria&#45;&gt;http://www.w3.org/2002/07/owl#DatatypeProperty</title>
<path fill="none" stroke="black" d="M127.93,-725.45C150.53,-729.58 176.66,-734.95 200.01,-741.26 204.56,-742.49 249.81,-758.38 287.66,-771.73"/>
<polygon fill="black" stroke="black" points="286.5,-775.04 297.09,-775.07 288.83,-768.44 286.5,-775.04"/>
<text text-anchor="middle" x="179.01" y="-745.06" font-family="Times,serif" font-size="14.00">a</text>
</g>
<!-- http://purl.org/oseg/ontologies/OTRL#exitCriteria&#45;&gt;http://schema.org/Text -->
<g id="edge30" class="edge">
<title>http://purl.org/oseg/ontologies/OTRL#exitCriteria&#45;&gt;http://schema.org/Text</title>
<path fill="none" stroke="black" d="M107.26,-702.34C122.66,-697.13 140.96,-691.85 158.01,-689.26 204.01,-682.29 256.25,-693.78 292.93,-705.07"/>
<polygon fill="black" stroke="black" points="292.25,-708.52 302.84,-708.23 294.38,-701.86 292.25,-708.52"/>
<text text-anchor="middle" x="179.01" y="-693.06" font-family="Times,serif" font-size="14.00">range</text>
</g>
<!-- http://purl.org/oseg/ontologies/OTRL#Otrl5 -->
<g id="node13" class="node">
<title>http://purl.org/oseg/ontologies/OTRL#Otrl5</title>
<ellipse fill="none" stroke="#e377c2" cx="70" cy="-325.26" rx="38.37" ry="16.03"/>
<text text-anchor="middle" x="70" y="-321.56" font-family="Times,serif" font-size="14.00">Otrl5</text>
</g>
<!-- http://purl.org/oseg/ontologies/OTRL#Otrl5&#45;&gt;http://www.w3.org/2002/07/owl#class -->
<g id="edge24" class="edge">
<title>http://purl.org/oseg/ontologies/OTRL#Otrl5&#45;&gt;http://www.w3.org/2002/07/owl#class</title>
<path fill="none" stroke="black" d="M105.04,-318.73C173.66,-306.68 333.25,-284.36 464.08,-309.26 486.32,-313.5 509.92,-322.52 528.73,-330.93"/>
<polygon fill="black" stroke="black" points="527.29,-334.12 537.83,-335.12 530.21,-327.76 527.29,-334.12"/>
<text text-anchor="middle" x="341.04" y="-313.06" font-family="Times,serif" font-size="14.00">a</text>
</g>
<!-- http://purl.org/oseg/ontologies/OTRL#Otrl5&#45;&gt;http://purl.org/oseg/ontologies/OTRL#OTRL -->
<g id="edge6" class="edge">
<title>http://purl.org/oseg/ontologies/OTRL#Otrl5&#45;&gt;http://purl.org/oseg/ontologies/OTRL#OTRL</title>
<path fill="none" stroke="black" d="M86.99,-339.91C101.03,-352.83 121.97,-372.19 140.01,-389.26 166.94,-414.76 175.47,-419.45 200.01,-447.26 208.83,-457.26 206.88,-463.91 218.01,-471.26 239.9,-485.74 268.17,-493.24 291.99,-497.11"/>
<polygon fill="black" stroke="black" points="291.49,-500.58 301.89,-498.57 292.5,-493.65 291.49,-500.58"/>
</g>
<!-- http://purl.org/oseg/ontologies/OTRL#Odrl3 -->
<g id="node14" class="node">
<title>http://purl.org/oseg/ontologies/OTRL#Odrl3</title>
<ellipse fill="none" stroke="#e377c2" cx="341.04" cy="-87.26" rx="40.11" ry="16.03"/>
<text text-anchor="middle" x="341.04" y="-83.56" font-family="Times,serif" font-size="14.00">Odrl3</text>
</g>
<!-- http://purl.org/oseg/ontologies/OTRL#Odrl3&#45;&gt;http://www.w3.org/2002/07/owl#class -->
<g id="edge25" class="edge">
<title>http://purl.org/oseg/ontologies/OTRL#Odrl3&#45;&gt;http://www.w3.org/2002/07/owl#class</title>
<path fill="none" stroke="black" d="M381.19,-88.98C407.14,-91.95 440.6,-99.5 464.08,-118.26 529.59,-170.62 553.77,-273.92 561.79,-322.64"/>
<polygon fill="black" stroke="black" points="558.36,-323.36 563.34,-332.71 565.27,-322.3 558.36,-323.36"/>
<text text-anchor="middle" x="486.58" y="-146.06" font-family="Times,serif" font-size="14.00">a</text>
</g>
<!-- http://purl.org/oseg/ontologies/OTRL#Odrl3&#45;&gt;http://purl.org/oseg/ontologies/OTRL#ODRL -->
<g id="edge17" class="edge">
<title>http://purl.org/oseg/ontologies/OTRL#Odrl3&#45;&gt;http://purl.org/oseg/ontologies/OTRL#ODRL</title>
<path fill="none" stroke="black" d="M374.76,-78.21C405.45,-71.26 452.31,-64.63 491.08,-76.26 509.46,-81.78 527.49,-93.48 541.18,-104.06"/>
<polygon fill="black" stroke="black" points="539.13,-106.9 549.11,-110.44 543.52,-101.45 539.13,-106.9"/>
</g>
<!-- http://purl.org/oseg/ontologies/OTRL#Odrl1 -->
<g id="node16" class="node">
<title>http://purl.org/oseg/ontologies/OTRL#Odrl1</title>
<ellipse fill="none" stroke="#e377c2" cx="341.04" cy="-196.26" rx="40.11" ry="16.03"/>
<text text-anchor="middle" x="341.04" y="-192.56" font-family="Times,serif" font-size="14.00">Odrl1</text>
</g>
<!-- http://purl.org/oseg/ontologies/OTRL#Odrl1&#45;&gt;http://www.w3.org/2002/07/owl#class -->
<g id="edge9" class="edge">
<title>http://purl.org/oseg/ontologies/OTRL#Odrl1&#45;&gt;http://www.w3.org/2002/07/owl#class</title>
<path fill="none" stroke="black" d="M381.1,-198.27C406.38,-201.1 439.1,-207.75 464.08,-223.26 504.35,-248.27 535.57,-295.13 552.15,-324.12"/>
<polygon fill="black" stroke="black" points="549.28,-326.17 557.2,-333.21 555.4,-322.77 549.28,-326.17"/>
<text text-anchor="middle" x="486.58" y="-246.06" font-family="Times,serif" font-size="14.00">a</text>
</g>
<!-- http://purl.org/oseg/ontologies/OTRL#Odrl1&#45;&gt;http://purl.org/oseg/ontologies/OTRL#ODRL -->
<g id="edge10" class="edge">
<title>http://purl.org/oseg/ontologies/OTRL#Odrl1&#45;&gt;http://purl.org/oseg/ontologies/OTRL#ODRL</title>
<path fill="none" stroke="black" d="M381.5,-195.1C412.25,-193.09 455.53,-187.84 491.08,-174.26 508.65,-167.55 526.3,-156.14 539.99,-146.02"/>
<polygon fill="black" stroke="black" points="542.14,-148.79 547.96,-139.94 537.89,-143.22 542.14,-148.79"/>
</g>
<!-- http://purl.org/oseg/ontologies/OTRL -->
<g id="node17" class="node">
<title>http://purl.org/oseg/ontologies/OTRL</title>
<ellipse fill="none" stroke="#e377c2" cx="70" cy="-849.26" rx="60.62" ry="16.03"/>
<text text-anchor="middle" x="70" y="-845.56" font-family="Times,serif" font-size="14.00">ns1:OTRL</text>
</g>
<!-- http://purl.org/oseg/ontologies/OTRL&#45;&gt;http://www.w3.org/2002/07/owl#Ontology -->
<g id="edge26" class="edge">
<title>http://purl.org/oseg/ontologies/OTRL&#45;&gt;http://www.w3.org/2002/07/owl#Ontology</title>
<path fill="none" stroke="black" d="M131.05,-849.26C166.88,-849.26 213,-849.26 252.8,-849.26"/>
<polygon fill="black" stroke="black" points="253.04,-852.76 263.04,-849.26 253.04,-845.76 253.04,-852.76"/>
<text text-anchor="middle" x="179.01" y="-853.06" font-family="Times,serif" font-size="14.00">a</text>
</g>
<!-- http://purl.org/oseg/ontologies/OTRL&#45;&gt;http://purl.org/oseg/ontologies/OTRL -->
<g id="edge16" class="edge">
<title>http://purl.org/oseg/ontologies/OTRL&#45;&gt;http://purl.org/oseg/ontologies/OTRL</title>
<path fill="none" stroke="black" d="M51.18,-864.77C46.64,-874.38 52.92,-883.53 70,-883.53 80.68,-883.53 87.14,-879.95 89.37,-874.93"/>
<polygon fill="black" stroke="black" points="92.85,-874.57 88.82,-864.77 85.86,-874.94 92.85,-874.57"/>
<text text-anchor="middle" x="70" y="-887.33" font-family="Times,serif" font-size="14.00">owl:versionIRI</text>
</g>
<!-- http://purl.org/oseg/ontologies/OTRL#Odrl2 -->
<g id="node18" class="node">
<title>http://purl.org/oseg/ontologies/OTRL#Odrl2</title>
<ellipse fill="none" stroke="#e377c2" cx="341.04" cy="-248.26" rx="40.11" ry="16.03"/>
<text text-anchor="middle" x="341.04" y="-244.56" font-family="Times,serif" font-size="14.00">Odrl2</text>
</g>
<!-- http://purl.org/oseg/ontologies/OTRL#Odrl2&#45;&gt;http://www.w3.org/2002/07/owl#class -->
<g id="edge27" class="edge">
<title>http://purl.org/oseg/ontologies/OTRL#Odrl2&#45;&gt;http://www.w3.org/2002/07/owl#class</title>
<path fill="none" stroke="black" d="M379.95,-252.59C411.18,-257.32 455.89,-266.83 491.08,-285.26 511.06,-295.72 530.25,-312.5 544.12,-326.25"/>
<polygon fill="black" stroke="black" points="541.74,-328.83 551.24,-333.52 546.74,-323.92 541.74,-328.83"/>
<text text-anchor="middle" x="486.58" y="-289.06" font-family="Times,serif" font-size="14.00">a</text>
</g>
<!-- http://purl.org/oseg/ontologies/OTRL#Odrl2&#45;&gt;http://purl.org/oseg/ontologies/OTRL#ODRL -->
<g id="edge2" class="edge">
<title>http://purl.org/oseg/ontologies/OTRL#Odrl2&#45;&gt;http://purl.org/oseg/ontologies/OTRL#ODRL</title>
<path fill="none" stroke="black" d="M378.68,-254.12C410.58,-257.32 456.93,-257.25 491.08,-237.26 523.94,-218.04 545.08,-177.82 556.1,-151.19"/>
<polygon fill="black" stroke="black" points="559.42,-152.3 559.83,-141.71 552.91,-149.74 559.42,-152.3"/>
</g>
<!-- http://purl.org/oseg/ontologies/OTRL#Otrl4 -->
<g id="node19" class="node">
<title>http://purl.org/oseg/ontologies/OTRL#Otrl4</title>
<ellipse fill="none" stroke="#e377c2" cx="70" cy="-654.26" rx="38.37" ry="16.03"/>
<text text-anchor="middle" x="70" y="-650.56" font-family="Times,serif" font-size="14.00">Otrl4</text>
</g>
<!-- http://purl.org/oseg/ontologies/OTRL#Otrl4&#45;&gt;http://www.w3.org/2002/07/owl#class -->
<g id="edge14" class="edge">
<title>http://purl.org/oseg/ontologies/OTRL#Otrl4&#45;&gt;http://www.w3.org/2002/07/owl#class</title>
<path fill="none" stroke="black" d="M104.03,-661.72C176.37,-676.08 351.39,-699.8 464.08,-623.26 547.44,-566.65 562.41,-432.86 564.93,-375.8"/>
<polygon fill="black" stroke="black" points="568.43,-375.88 565.28,-365.76 561.44,-375.63 568.43,-375.88"/>
<text text-anchor="middle" x="341.04" y="-681.06" font-family="Times,serif" font-size="14.00">a</text>
</g>
<!-- http://purl.org/oseg/ontologies/OTRL#Otrl4&#45;&gt;http://purl.org/oseg/ontologies/OTRL#OTRL -->
<g id="edge11" class="edge">
<title>http://purl.org/oseg/ontologies/OTRL#Otrl4&#45;&gt;http://purl.org/oseg/ontologies/OTRL#OTRL</title>
<path fill="none" stroke="black" d="M101.45,-644.77C113.93,-640.17 128.2,-633.95 140.01,-626.26 171.09,-606.03 178.23,-598.29 200.01,-568.26 210.74,-553.46 203.78,-542.76 218.01,-531.26 238.57,-514.65 267.02,-507.04 291.27,-503.64"/>
<polygon fill="black" stroke="black" points="291.86,-507.09 301.37,-502.42 291.03,-500.14 291.86,-507.09"/>
</g>
<!-- http://purl.org/oseg/ontologies/OTRL#Odrl3Star -->
<g id="node20" class="node">
<title>http://purl.org/oseg/ontologies/OTRL#Odrl3Star</title>
<ellipse fill="none" stroke="#e377c2" cx="341.04" cy="-143.26" rx="62.45" ry="16.03"/>
<text text-anchor="middle" x="341.04" y="-139.56" font-family="Times,serif" font-size="14.00">Odrl3Star</text>
</g>
<!-- http://purl.org/oseg/ontologies/OTRL#Odrl3Star&#45;&gt;http://www.w3.org/2002/07/owl#class -->
<g id="edge13" class="edge">
<title>http://purl.org/oseg/ontologies/OTRL#Odrl3Star&#45;&gt;http://www.w3.org/2002/07/owl#class</title>
<path fill="none" stroke="black" d="M401.77,-147.05C423.08,-150.83 446.2,-157.97 464.08,-171.26 516.19,-210.03 545.5,-284.1 558.02,-323.36"/>
<polygon fill="black" stroke="black" points="554.69,-324.47 560.97,-333 561.39,-322.41 554.69,-324.47"/>
<text text-anchor="middle" x="486.58" y="-198.06" font-family="Times,serif" font-size="14.00">a</text>
</g>
<!-- http://purl.org/oseg/ontologies/OTRL#Odrl3Star&#45;&gt;http://purl.org/oseg/ontologies/OTRL#ODRL -->
<g id="edge20" class="edge">
<title>http://purl.org/oseg/ontologies/OTRL#Odrl3Star&#45;&gt;http://purl.org/oseg/ontologies/OTRL#ODRL</title>
<path fill="none" stroke="black" d="M400.72,-138.53C436.32,-135.66 481.28,-132.04 515.21,-129.31"/>
<polygon fill="black" stroke="black" points="515.68,-132.78 525.37,-128.49 515.12,-125.8 515.68,-132.78"/>
</g>
<!-- http://purl.org/oseg/ontologies/OTRL#Otrl -->
<g id="node21" class="node">
<title>http://purl.org/oseg/ontologies/OTRL#Otrl</title>
<ellipse fill="none" stroke="#e377c2" cx="70" cy="-933.26" rx="31.64" ry="16.03"/>
<text text-anchor="middle" x="70" y="-929.56" font-family="Times,serif" font-size="14.00">Otrl</text>
</g>
<!-- http://www.w3.org/1999/02/22&#45;rdf&#45;syntax&#45;ns#nil -->
<g id="node22" class="node">
<title>http://www.w3.org/1999/02/22&#45;rdf&#45;syntax&#45;ns#nil</title>
<ellipse fill="none" stroke="#e377c2" cx="70" cy="-984.26" rx="42.35" ry="16.03"/>
<text text-anchor="middle" x="70" y="-980.56" font-family="Times,serif" font-size="14.00">rdf:nil</text>
</g>
<!-- http://purl.org/oseg/ontologies/OTRL#Otrl2 -->
<g id="node23" class="node">
<title>http://purl.org/oseg/ontologies/OTRL#Otrl2</title>
<ellipse fill="none" stroke="#e377c2" cx="70" cy="-478.26" rx="38.37" ry="16.03"/>
<text text-anchor="middle" x="70" y="-474.56" font-family="Times,serif" font-size="14.00">Otrl2</text>
</g>
<!-- http://purl.org/oseg/ontologies/OTRL#Otrl2&#45;&gt;http://www.w3.org/2002/07/owl#class -->
<g id="edge18" class="edge">
<title>http://purl.org/oseg/ontologies/OTRL#Otrl2&#45;&gt;http://www.w3.org/2002/07/owl#class</title>
<path fill="none" stroke="black" d="M107.03,-474.24C197.84,-463.95 431.27,-436.56 464.08,-423.26 493.57,-411.31 522.39,-388.89 541.7,-371.85"/>
<polygon fill="black" stroke="black" points="544.29,-374.23 549.37,-364.92 539.6,-369.03 544.29,-374.23"/>
<text text-anchor="middle" x="341.04" y="-465.06" font-family="Times,serif" font-size="14.00">a</text>
</g>
<!-- http://purl.org/oseg/ontologies/OTRL#Otrl2&#45;&gt;http://purl.org/oseg/ontologies/OTRL#OTRL -->
<g id="edge12" class="edge">
<title>http://purl.org/oseg/ontologies/OTRL#Otrl2&#45;&gt;http://purl.org/oseg/ontologies/OTRL#OTRL</title>
<path fill="none" stroke="black" d="M107.57,-481.39C155.25,-485.47 238.79,-492.61 291.67,-497.13"/>
<polygon fill="black" stroke="black" points="291.56,-500.63 301.82,-498 292.16,-493.66 291.56,-500.63"/>
</g>
</g>
</svg>
