<?xml version="1.0" encoding="UTF-8" standalone="no"?>
<!DOCTYPE svg PUBLIC "-//W3C//DTD SVG 1.1//EN"
 "http://www.w3.org/Graphics/SVG/1.1/DTD/svg11.dtd">
<!-- Generated by graphviz version 2.43.0 (0)
 -->
<!-- Title: G Pages: 1 -->
<svg width="2285pt" height="1039pt"
 viewBox="0.00 0.00 2285.26 1038.53" xmlns="http://www.w3.org/2000/svg" xmlns:xlink="http://www.w3.org/1999/xlink">
<g id="graph0" class="graph" transform="scale(1 1) rotate(0) translate(4 1034.53)">
<title>G</title>
<polygon fill="white" stroke="transparent" points="-4,4 -4,-1034.53 2281.26,-1034.53 2281.26,4 -4,4"/>
<!-- http://purl.org/oseg/ontologies/OTRL#ODRL3 -->
<g id="node1" class="node">
<title>http://purl.org/oseg/ontologies/OTRL#ODRL3</title>
<ellipse fill="none" stroke="#e377c2" cx="1596.2" cy="-866.26" rx="48.17" ry="16.03"/>
<text text-anchor="middle" x="1596.2" y="-862.56" font-family="Times,serif" font-size="14.00">ODRL3</text>
</g>
<!-- http://purl.org/oseg/ontologies/OTRL#ODRL -->
<g id="node9" class="node">
<title>http://purl.org/oseg/ontologies/OTRL#ODRL</title>
<ellipse fill="none" stroke="#e377c2" cx="2154.22" cy="-774.26" rx="41.94" ry="16.03"/>
<text text-anchor="middle" x="2154.22" y="-770.56" font-family="Times,serif" font-size="14.00">ODRL</text>
</g>
<!-- http://purl.org/oseg/ontologies/OTRL#ODRL3&#45;&gt;http://purl.org/oseg/ontologies/OTRL#ODRL -->
<g id="edge50" class="edge">
<title>http://purl.org/oseg/ontologies/OTRL#ODRL3&#45;&gt;http://purl.org/oseg/ontologies/OTRL#ODRL</title>
<path fill="none" stroke="black" d="M1642.77,-861.93C1688.49,-857.38 1760.89,-849.57 1823.18,-840.26 1908.11,-827.57 1929.03,-822.32 2013.18,-805.26 2044.89,-798.84 2080.47,-790.95 2107.84,-784.74"/>
<polygon fill="black" stroke="black" points="2108.93,-788.08 2117.9,-782.45 2107.37,-781.26 2108.93,-788.08"/>
</g>
<!-- http://purl.org/oseg/ontologies/OTRL#ODRL3Star -->
<g id="node2" class="node">
<title>http://purl.org/oseg/ontologies/OTRL#ODRL3Star</title>
<ellipse fill="none" stroke="#e377c2" cx="1596.2" cy="-815.26" rx="69.09" ry="16.03"/>
<text text-anchor="middle" x="1596.2" y="-811.56" font-family="Times,serif" font-size="14.00">ODRL3Star</text>
</g>
<!-- http://purl.org/oseg/ontologies/OTRL#ODRL3Star&#45;&gt;http://purl.org/oseg/ontologies/OTRL#ODRL -->
<g id="edge44" class="edge">
<title>http://purl.org/oseg/ontologies/OTRL#ODRL3Star&#45;&gt;http://purl.org/oseg/ontologies/OTRL#ODRL</title>
<path fill="none" stroke="black" d="M1662.62,-810.44C1774.91,-802.16 2001.97,-785.42 2102.9,-777.97"/>
<polygon fill="black" stroke="black" points="2103.41,-781.45 2113.13,-777.22 2102.9,-774.46 2103.41,-781.45"/>
</g>
<!-- http://purl.org/oseg/ontologies/OTRL#ODRL4 -->
<g id="node3" class="node">
<title>http://purl.org/oseg/ontologies/OTRL#ODRL4</title>
<ellipse fill="none" stroke="#e377c2" cx="1596.2" cy="-764.26" rx="48.17" ry="16.03"/>
<text text-anchor="middle" x="1596.2" y="-760.56" font-family="Times,serif" font-size="14.00">ODRL4</text>
</g>
<!-- http://purl.org/oseg/ontologies/OTRL#ODRL4&#45;&gt;http://purl.org/oseg/ontologies/OTRL#ODRL -->
<g id="edge15" class="edge">
<title>http://purl.org/oseg/ontologies/OTRL#ODRL4&#45;&gt;http://purl.org/oseg/ontologies/OTRL#ODRL</title>
<path fill="none" stroke="black" d="M1644.61,-765.12C1748.43,-766.98 1995.16,-771.42 2102.2,-773.35"/>
<polygon fill="black" stroke="black" points="2102.36,-776.85 2112.42,-773.53 2102.49,-769.85 2102.36,-776.85"/>
</g>
<!-- http://purl.org/oseg/ontologies/OTRL#OTRL3 -->
<g id="node4" class="node">
<title>http://purl.org/oseg/ontologies/OTRL#OTRL3</title>
<ellipse fill="none" stroke="#e377c2" cx="1596.2" cy="-111.26" rx="45.92" ry="16.03"/>
<text text-anchor="middle" x="1596.2" y="-107.56" font-family="Times,serif" font-size="14.00">OTRL3</text>
</g>
<!-- http://purl.org/oseg/ontologies/OTRL#OTRL -->
<g id="node11" class="node">
<title>http://purl.org/oseg/ontologies/OTRL#OTRL</title>
<ellipse fill="none" stroke="#e377c2" cx="2154.22" cy="-307.26" rx="39.7" ry="16.03"/>
<text text-anchor="middle" x="2154.22" y="-303.56" font-family="Times,serif" font-size="14.00">OTRL</text>
</g>
<!-- http://purl.org/oseg/ontologies/OTRL#OTRL3&#45;&gt;http://purl.org/oseg/ontologies/OTRL#OTRL -->
<g id="edge21" class="edge">
<title>http://purl.org/oseg/ontologies/OTRL#OTRL3&#45;&gt;http://purl.org/oseg/ontologies/OTRL#OTRL</title>
<path fill="none" stroke="black" d="M1637.92,-118.17C1714.09,-132.03 1882.27,-167.07 2013.18,-226.26 2053.13,-244.33 2096.43,-270.48 2124.14,-288.14"/>
<polygon fill="black" stroke="black" points="2122.26,-291.09 2132.57,-293.55 2126.05,-285.2 2122.26,-291.09"/>
</g>
<!-- http://purl.org/oseg/ontologies/OTRL#OTRL6 -->
<g id="node5" class="node">
<title>http://purl.org/oseg/ontologies/OTRL#OTRL6</title>
<ellipse fill="none" stroke="#e377c2" cx="1596.2" cy="-352.26" rx="45.92" ry="16.03"/>
<text text-anchor="middle" x="1596.2" y="-348.56" font-family="Times,serif" font-size="14.00">OTRL6</text>
</g>
<!-- http://purl.org/oseg/ontologies/OTRL#OTRL6&#45;&gt;http://purl.org/oseg/ontologies/OTRL#OTRL -->
<g id="edge48" class="edge">
<title>http://purl.org/oseg/ontologies/OTRL#OTRL6&#45;&gt;http://purl.org/oseg/ontologies/OTRL#OTRL</title>
<path fill="none" stroke="black" d="M1641.3,-348.69C1743.96,-340.39 1998.31,-319.8 2104.95,-311.17"/>
<polygon fill="black" stroke="black" points="2105.42,-314.64 2115.1,-310.35 2104.85,-307.67 2105.42,-314.64"/>
</g>
<!-- http://purl.org/oseg/ontologies/OTRL#OTRL4 -->
<g id="node6" class="node">
<title>http://purl.org/oseg/ontologies/OTRL#OTRL4</title>
<ellipse fill="none" stroke="#e377c2" cx="1596.2" cy="-301.26" rx="45.92" ry="16.03"/>
<text text-anchor="middle" x="1596.2" y="-297.56" font-family="Times,serif" font-size="14.00">OTRL4</text>
</g>
<!-- http://purl.org/oseg/ontologies/OTRL#OTRL4&#45;&gt;http://purl.org/oseg/ontologies/OTRL#OTRL -->
<g id="edge16" class="edge">
<title>http://purl.org/oseg/ontologies/OTRL#OTRL4&#45;&gt;http://purl.org/oseg/ontologies/OTRL#OTRL</title>
<path fill="none" stroke="black" d="M1642.23,-301.75C1745.32,-302.86 1997.74,-305.59 2104.39,-306.74"/>
<polygon fill="black" stroke="black" points="2104.51,-310.24 2114.55,-306.85 2104.59,-303.24 2104.51,-310.24"/>
</g>
<!-- http://purl.org/oseg/ontologies/OTRL#ODRL1 -->
<g id="node7" class="node">
<title>http://purl.org/oseg/ontologies/OTRL#ODRL1</title>
<ellipse fill="none" stroke="#e377c2" cx="1596.2" cy="-701.26" rx="48.17" ry="16.03"/>
<text text-anchor="middle" x="1596.2" y="-697.56" font-family="Times,serif" font-size="14.00">ODRL1</text>
</g>
<!-- http://purl.org/oseg/ontologies/OTRL#ODRL1&#45;&gt;http://purl.org/oseg/ontologies/OTRL#ODRL -->
<g id="edge36" class="edge">
<title>http://purl.org/oseg/ontologies/OTRL#ODRL1&#45;&gt;http://purl.org/oseg/ontologies/OTRL#ODRL</title>
<path fill="none" stroke="black" d="M1640.81,-707.53C1689.6,-714.5 1771.01,-725.99 1841.18,-735.26 1933.79,-747.5 2042,-760.8 2103.58,-768.28"/>
<polygon fill="black" stroke="black" points="2103.44,-771.79 2113.79,-769.52 2104.29,-764.84 2103.44,-771.79"/>
</g>
<!-- http://purl.org/oseg/ontologies/OTRL#OTRL2 -->
<g id="node8" class="node">
<title>http://purl.org/oseg/ontologies/OTRL#OTRL2</title>
<ellipse fill="none" stroke="#e377c2" cx="1596.2" cy="-250.26" rx="45.92" ry="16.03"/>
<text text-anchor="middle" x="1596.2" y="-246.56" font-family="Times,serif" font-size="14.00">OTRL2</text>
</g>
<!-- http://purl.org/oseg/ontologies/OTRL#OTRL2&#45;&gt;http://purl.org/oseg/ontologies/OTRL#OTRL -->
<g id="edge12" class="edge">
<title>http://purl.org/oseg/ontologies/OTRL#OTRL2&#45;&gt;http://purl.org/oseg/ontologies/OTRL#OTRL</title>
<path fill="none" stroke="black" d="M1640.83,-254.74C1743.4,-265.25 1999.21,-291.48 2105.62,-302.38"/>
<polygon fill="black" stroke="black" points="2105.43,-305.88 2115.74,-303.42 2106.15,-298.92 2105.43,-305.88"/>
</g>
<!-- http://www.w3.org/2002/07/owl#Ontology -->
<g id="node10" class="node">
<title>http://www.w3.org/2002/07/owl#Ontology</title>
<ellipse fill="none" stroke="#1f77b4" cx="917.96" cy="-1014.26" rx="77.56" ry="16.03"/>
<text text-anchor="middle" x="917.96" y="-1010.56" font-family="Times,serif" font-size="14.00">owl:Ontology</text>
</g>
<!-- http://purl.org/oseg/ontologies/OTRL#OTRL1 -->
<g id="node12" class="node">
<title>http://purl.org/oseg/ontologies/OTRL#OTRL1</title>
<ellipse fill="none" stroke="#e377c2" cx="1596.2" cy="-187.26" rx="45.92" ry="16.03"/>
<text text-anchor="middle" x="1596.2" y="-183.56" font-family="Times,serif" font-size="14.00">OTRL1</text>
</g>
<!-- http://purl.org/oseg/ontologies/OTRL#OTRL1&#45;&gt;http://purl.org/oseg/ontologies/OTRL#OTRL -->
<g id="edge22" class="edge">
<title>http://purl.org/oseg/ontologies/OTRL#OTRL1&#45;&gt;http://purl.org/oseg/ontologies/OTRL#OTRL</title>
<path fill="none" stroke="black" d="M1639.03,-193.32C1684.52,-200.14 1759.3,-212.01 1823.18,-225.26 1908.36,-242.93 1928.76,-251.27 2013.18,-272.26 2045.78,-280.37 2082.63,-289.58 2110.35,-296.52"/>
<polygon fill="black" stroke="black" points="2109.57,-299.93 2120.12,-298.97 2111.27,-293.14 2109.57,-299.93"/>
</g>
<!-- http://purl.org/oseg/ontologies/OTRL#OTRL5 -->
<g id="node13" class="node">
<title>http://purl.org/oseg/ontologies/OTRL#OTRL5</title>
<ellipse fill="none" stroke="#e377c2" cx="1596.2" cy="-35.26" rx="45.92" ry="16.03"/>
<text text-anchor="middle" x="1596.2" y="-31.56" font-family="Times,serif" font-size="14.00">OTRL5</text>
</g>
<!-- http://purl.org/oseg/ontologies/OTRL#OTRL5&#45;&gt;http://purl.org/oseg/ontologies/OTRL#OTRL -->
<g id="edge47" class="edge">
<title>http://purl.org/oseg/ontologies/OTRL#OTRL5&#45;&gt;http://purl.org/oseg/ontologies/OTRL#OTRL</title>
<path fill="none" stroke="black" d="M1640.25,-40.16C1719.91,-50.94 1893.13,-82.5 2013.18,-163.26 2063.96,-197.42 2110.93,-252.42 2135.45,-283.64"/>
<polygon fill="black" stroke="black" points="2132.86,-286.01 2141.76,-291.77 2138.4,-281.72 2132.86,-286.01"/>
</g>
<!-- http://purl.org/oseg/ontologies/OTRL#ODRL2 -->
<g id="node14" class="node">
<title>http://purl.org/oseg/ontologies/OTRL#ODRL2</title>
<ellipse fill="none" stroke="#e377c2" cx="1596.2" cy="-631.26" rx="48.17" ry="16.03"/>
<text text-anchor="middle" x="1596.2" y="-627.56" font-family="Times,serif" font-size="14.00">ODRL2</text>
</g>
<!-- http://purl.org/oseg/ontologies/OTRL#ODRL2&#45;&gt;http://purl.org/oseg/ontologies/OTRL#ODRL -->
<g id="edge18" class="edge">
<title>http://purl.org/oseg/ontologies/OTRL#ODRL2&#45;&gt;http://purl.org/oseg/ontologies/OTRL#ODRL</title>
<path fill="none" stroke="black" d="M1644.3,-629.34C1693.58,-629.72 1770.89,-637.31 1823.18,-676.26 1836.9,-686.48 1827.29,-700.29 1841.18,-710.26 1904.1,-755.43 1937.38,-722.38 2013.18,-738.26 2046.01,-745.14 2082.71,-754.64 2110.3,-762.16"/>
<polygon fill="black" stroke="black" points="2109.46,-765.56 2120.03,-764.83 2111.31,-758.81 2109.46,-765.56"/>
</g>
<!-- http://www.w3.org/2002/07/owl#DatatypeProperty -->
<g id="node15" class="node">
<title>http://www.w3.org/2002/07/owl#DatatypeProperty</title>
<ellipse fill="none" stroke="#1f77b4" cx="2154.22" cy="-599.26" rx="123.07" ry="16.03"/>
<text text-anchor="middle" x="2154.22" y="-595.56" font-family="Times,serif" font-size="14.00">owl:DatatypeProperty</text>
</g>
<!-- https://www.gnu.org/licenses/gpl&#45;3.0.txt -->
<g id="node16" class="node">
<title>https://www.gnu.org/licenses/gpl&#45;3.0.txt</title>
<ellipse fill="none" stroke="#e377c2" cx="917.96" cy="-951.26" rx="85.62" ry="16.03"/>
<text text-anchor="middle" x="917.96" y="-947.56" font-family="Times,serif" font-size="14.00">ns1:gpl&#45;3.0.txt</text>
</g>
<!-- http://purl.org/oseg/ontologies/OTRL#goal -->
<g id="node17" class="node">
<title>http://purl.org/oseg/ontologies/OTRL#goal</title>
<ellipse fill="none" stroke="#e377c2" cx="1596.2" cy="-580.26" rx="33.47" ry="16.03"/>
<text text-anchor="middle" x="1596.2" y="-576.56" font-family="Times,serif" font-size="14.00">goal</text>
</g>
<!-- http://purl.org/oseg/ontologies/OTRL#goal&#45;&gt;http://purl.org/oseg/ontologies/OTRL#ODRL -->
<g id="edge9" class="edge">
<title>http://purl.org/oseg/ontologies/OTRL#goal&#45;&gt;http://purl.org/oseg/ontologies/OTRL#ODRL</title>
<path fill="none" stroke="black" d="M1627.3,-574.11C1674.93,-566.24 1767.91,-558.79 1823.18,-606.26 1846.25,-626.07 1818.07,-652.51 1841.18,-672.26 1870.41,-697.25 1976.71,-679.07 2013.18,-691.26 2055.75,-705.49 2099.4,-734.01 2126.4,-753.61"/>
<polygon fill="black" stroke="black" points="2124.44,-756.51 2134.56,-759.63 2128.59,-750.88 2124.44,-756.51"/>
<text text-anchor="middle" x="1927.18" y="-695.06" font-family="Times,serif" font-size="14.00">schema:domainIncludes</text>
</g>
<!-- http://purl.org/oseg/ontologies/OTRL#goal&#45;&gt;http://purl.org/oseg/ontologies/OTRL#OTRL -->
<g id="edge35" class="edge">
<title>http://purl.org/oseg/ontologies/OTRL#goal&#45;&gt;http://purl.org/oseg/ontologies/OTRL#OTRL</title>
<path fill="none" stroke="black" d="M1629.47,-579.32C1675.91,-576.56 1762.66,-566 1823.18,-526.26 1834.33,-518.95 1829.62,-508.91 1841.18,-502.26 1907.91,-463.92 1945.86,-519.55 2013.18,-482.26 2075.94,-447.5 2120.94,-372.04 2141.21,-332.53"/>
<polygon fill="black" stroke="black" points="2144.48,-333.82 2145.82,-323.31 2138.22,-330.68 2144.48,-333.82"/>
<text text-anchor="middle" x="1927.18" y="-506.06" font-family="Times,serif" font-size="14.00">schema:domainIncludes</text>
</g>
<!-- http://purl.org/oseg/ontologies/OTRL#goal&#45;&gt;http://www.w3.org/2002/07/owl#DatatypeProperty -->
<g id="edge8" class="edge">
<title>http://purl.org/oseg/ontologies/OTRL#goal&#45;&gt;http://www.w3.org/2002/07/owl#DatatypeProperty</title>
<path fill="none" stroke="black" d="M1628.4,-575.92C1674.67,-571.13 1762.51,-568.48 1823.18,-606.26 1835.74,-614.08 1828.2,-627.17 1841.18,-634.26 1908.28,-670.89 1937.31,-643.6 2013.18,-634.26 2040.74,-630.87 2070.67,-623.86 2095.77,-617"/>
<polygon fill="black" stroke="black" points="2096.8,-620.34 2105.49,-614.28 2094.91,-613.6 2096.8,-620.34"/>
<text text-anchor="middle" x="1927.18" y="-657.06" font-family="Times,serif" font-size="14.00">a</text>
</g>
<!-- http://schema.org/Text -->
<g id="node18" class="node">
<title>http://schema.org/Text</title>
<ellipse fill="none" stroke="#e377c2" cx="2154.22" cy="-507.26" rx="74.91" ry="16.03"/>
<text text-anchor="middle" x="2154.22" y="-503.56" font-family="Times,serif" font-size="14.00">schema:Text</text>
</g>
<!-- http://purl.org/oseg/ontologies/OTRL#goal&#45;&gt;http://schema.org/Text -->
<g id="edge45" class="edge">
<title>http://purl.org/oseg/ontologies/OTRL#goal&#45;&gt;http://schema.org/Text</title>
<path fill="none" stroke="black" d="M1629.44,-581.77C1699.89,-584.37 1872.52,-586.93 2013.18,-558.26 2047.54,-551.26 2084.77,-537.38 2112.2,-525.87"/>
<polygon fill="black" stroke="black" points="2113.65,-529.05 2121.47,-521.91 2110.9,-522.61 2113.65,-529.05"/>
<text text-anchor="middle" x="1927.18" y="-584.06" font-family="Times,serif" font-size="14.00">range</text>
</g>
<!-- http://purl.org/oseg/ontologies/OTRL -->
<g id="node19" class="node">
<title>http://purl.org/oseg/ontologies/OTRL</title>
<ellipse fill="none" stroke="#e377c2" cx="233.35" cy="-976.26" rx="60.62" ry="16.03"/>
<text text-anchor="middle" x="233.35" y="-972.56" font-family="Times,serif" font-size="14.00">ns2:OTRL</text>
</g>
<!-- http://purl.org/oseg/ontologies/OTRL&#45;&gt;http://www.w3.org/2002/07/owl#Ontology -->
<g id="edge11" class="edge">
<title>http://purl.org/oseg/ontologies/OTRL&#45;&gt;http://www.w3.org/2002/07/owl#Ontology</title>
<path fill="none" stroke="black" d="M293.14,-979.54C414.21,-986.28 691.76,-1001.73 832.22,-1009.55"/>
<polygon fill="black" stroke="black" points="832.32,-1013.06 842.5,-1010.12 832.71,-1006.07 832.32,-1013.06"/>
<text text-anchor="middle" x="564.69" y="-1002.06" font-family="Times,serif" font-size="14.00">a</text>
</g>
<!-- http://purl.org/oseg/ontologies/OTRL&#45;&gt;https://www.gnu.org/licenses/gpl&#45;3.0.txt -->
<g id="edge3" class="edge">
<title>http://purl.org/oseg/ontologies/OTRL&#45;&gt;https://www.gnu.org/licenses/gpl&#45;3.0.txt</title>
<path fill="none" stroke="black" d="M293.73,-974.09C412.67,-969.73 680.93,-959.91 823.6,-954.68"/>
<polygon fill="black" stroke="black" points="823.79,-958.18 833.66,-954.31 823.53,-951.18 823.79,-958.18"/>
<text text-anchor="middle" x="564.69" y="-971.06" font-family="Times,serif" font-size="14.00">cc:license</text>
</g>
<!-- http://purl.org/oseg/ontologies/OTRL&#45;&gt;https://www.gnu.org/licenses/gpl&#45;3.0.txt -->
<g id="edge6" class="edge">
<title>http://purl.org/oseg/ontologies/OTRL&#45;&gt;https://www.gnu.org/licenses/gpl&#45;3.0.txt</title>
<path fill="none" stroke="black" d="M284.98,-967.61C335.41,-959.45 415.14,-947.83 484.69,-943.26 602.84,-935.51 739.53,-940.35 827.03,-945.21"/>
<polygon fill="black" stroke="black" points="827.01,-948.71 837.19,-945.78 827.41,-941.72 827.01,-948.71"/>
<text text-anchor="middle" x="564.69" y="-947.06" font-family="Times,serif" font-size="14.00">dcterms:license</text>
</g>
<!-- http://purl.org/oseg/ontologies/OTRL&#45;&gt;http://purl.org/oseg/ontologies/OTRL -->
<g id="edge20" class="edge">
<title>http://purl.org/oseg/ontologies/OTRL&#45;&gt;http://purl.org/oseg/ontologies/OTRL</title>
<path fill="none" stroke="black" d="M185.99,-986.79C156.33,-997.94 172.11,-1010.53 233.35,-1010.53 286.44,-1010.53 305.37,-1001.06 290.12,-991.28"/>
<polygon fill="black" stroke="black" points="291.24,-987.93 280.7,-986.79 288.22,-994.25 291.24,-987.93"/>
<text text-anchor="middle" x="233.35" y="-1014.33" font-family="Times,serif" font-size="14.00">owl:versionIRI</text>
</g>
<!-- http://purl.org/oseg/ontologies/OTRL#Odrl4 -->
<g id="node20" class="node">
<title>http://purl.org/oseg/ontologies/OTRL#Odrl4</title>
<ellipse fill="none" stroke="#e377c2" cx="917.96" cy="-765.26" rx="40.11" ry="16.03"/>
<text text-anchor="middle" x="917.96" y="-761.56" font-family="Times,serif" font-size="14.00">Odrl4</text>
</g>
<!-- http://purl.org/oseg/ontologies/OTRL#Odrl4&#45;&gt;http://purl.org/oseg/ontologies/OTRL#ODRL4 -->
<g id="edge25" class="edge">
<title>http://purl.org/oseg/ontologies/OTRL#Odrl4&#45;&gt;http://purl.org/oseg/ontologies/OTRL#ODRL4</title>
<path fill="none" stroke="black" d="M958.73,-765.2C1073.25,-765.04 1404.02,-764.55 1537.92,-764.35"/>
<polygon fill="black" stroke="black" points="1537.98,-767.85 1547.98,-764.33 1537.97,-760.85 1537.98,-767.85"/>
<text text-anchor="middle" x="1271.22" y="-769.06" font-family="Times,serif" font-size="14.00">schema:supersededBy</text>
</g>
<!-- http://purl.org/oseg/ontologies/OTRL#Odrl4&#45;&gt;http://purl.org/oseg/ontologies/OTRL#ODRL4 -->
<g id="edge42" class="edge">
<title>http://purl.org/oseg/ontologies/OTRL#Odrl4&#45;&gt;http://purl.org/oseg/ontologies/OTRL#ODRL4</title>
<path fill="none" stroke="black" d="M957.69,-761.71C1010.44,-757.06 1107.88,-749.17 1191.22,-746.26 1262.29,-743.79 1280.16,-743.65 1351.22,-746.26 1416.01,-748.65 1490.28,-754.59 1539.69,-759"/>
<polygon fill="black" stroke="black" points="1539.57,-762.5 1549.84,-759.91 1540.2,-755.53 1539.57,-762.5"/>
<text text-anchor="middle" x="1271.22" y="-750.06" font-family="Times,serif" font-size="14.00">owl:sameAs</text>
</g>
<!-- http://purl.org/oseg/ontologies/OTRL#exitCriteria -->
<g id="node21" class="node">
<title>http://purl.org/oseg/ontologies/OTRL#exitCriteria</title>
<ellipse fill="none" stroke="#e377c2" cx="1596.2" cy="-501.26" rx="70.01" ry="16.03"/>
<text text-anchor="middle" x="1596.2" y="-497.56" font-family="Times,serif" font-size="14.00">exitCriteria</text>
</g>
<!-- http://purl.org/oseg/ontologies/OTRL#exitCriteria&#45;&gt;http://purl.org/oseg/ontologies/OTRL#ODRL -->
<g id="edge2" class="edge">
<title>http://purl.org/oseg/ontologies/OTRL#exitCriteria&#45;&gt;http://purl.org/oseg/ontologies/OTRL#ODRL</title>
<path fill="none" stroke="black" d="M1666.35,-502.07C1715.18,-506.08 1779.45,-518.74 1823.18,-555.26 1838.46,-568.02 1825.15,-584.48 1841.18,-596.26 1903.17,-641.8 1944.94,-579.79 2013.18,-615.26 2072.36,-646.02 2117.95,-712.96 2139.52,-749.41"/>
<polygon fill="black" stroke="black" points="2136.69,-751.49 2144.72,-758.4 2142.75,-747.99 2136.69,-751.49"/>
<text text-anchor="middle" x="1927.18" y="-619.06" font-family="Times,serif" font-size="14.00">schema:domainIncludes</text>
</g>
<!-- http://purl.org/oseg/ontologies/OTRL#exitCriteria&#45;&gt;http://purl.org/oseg/ontologies/OTRL#OTRL -->
<g id="edge28" class="edge">
<title>http://purl.org/oseg/ontologies/OTRL#exitCriteria&#45;&gt;http://purl.org/oseg/ontologies/OTRL#OTRL</title>
<path fill="none" stroke="black" d="M1644.33,-489.41C1693.4,-477.17 1772.53,-457.75 1841.18,-442.26 1917.37,-425.08 1941.58,-437.46 2013.18,-406.26 2057.96,-386.76 2102.85,-351.6 2129.32,-328.86"/>
<polygon fill="black" stroke="black" points="2131.69,-331.44 2136.93,-322.23 2127.09,-326.17 2131.69,-331.44"/>
<text text-anchor="middle" x="1927.18" y="-446.06" font-family="Times,serif" font-size="14.00">schema:domainIncludes</text>
</g>
<!-- http://purl.org/oseg/ontologies/OTRL#exitCriteria&#45;&gt;http://www.w3.org/2002/07/owl#DatatypeProperty -->
<g id="edge46" class="edge">
<title>http://purl.org/oseg/ontologies/OTRL#exitCriteria&#45;&gt;http://www.w3.org/2002/07/owl#DatatypeProperty</title>
<path fill="none" stroke="black" d="M1663.1,-506.14C1771.84,-514.37 1980.19,-530.91 2013.18,-539.26 2048.85,-548.29 2087.1,-565.22 2114.6,-578.8"/>
<polygon fill="black" stroke="black" points="2113.35,-582.09 2123.85,-583.45 2116.49,-575.84 2113.35,-582.09"/>
<text text-anchor="middle" x="1927.18" y="-543.06" font-family="Times,serif" font-size="14.00">a</text>
</g>
<!-- http://purl.org/oseg/ontologies/OTRL#exitCriteria&#45;&gt;http://schema.org/Text -->
<g id="edge10" class="edge">
<title>http://purl.org/oseg/ontologies/OTRL#exitCriteria&#45;&gt;http://schema.org/Text</title>
<path fill="none" stroke="black" d="M1647.35,-490.06C1725.72,-474.15 1881.86,-448.88 2013.18,-467.26 2044.63,-471.67 2078.92,-481.37 2105.7,-490.12"/>
<polygon fill="black" stroke="black" points="2104.61,-493.45 2115.21,-493.29 2106.83,-486.81 2104.61,-493.45"/>
<text text-anchor="middle" x="1927.18" y="-471.06" font-family="Times,serif" font-size="14.00">range</text>
</g>
<!-- http://purl.org/oseg/ontologies/OTRL#Odrl3Star -->
<g id="node22" class="node">
<title>http://purl.org/oseg/ontologies/OTRL#Odrl3Star</title>
<ellipse fill="none" stroke="black" cx="917.96" cy="-843.26" rx="255.03" ry="16.03"/>
<text text-anchor="middle" x="917.96" y="-839.56" font-family="Times,serif" font-size="14.00">http://purl.org/oseg/ontologies/OTRL#Odrl3Star</text>
</g>
<!-- http://purl.org/oseg/ontologies/OTRL#Odrl3Star&#45;&gt;http://purl.org/oseg/ontologies/OTRL#ODRL3Star -->
<g id="edge1" class="edge">
<title>http://purl.org/oseg/ontologies/OTRL#Odrl3Star&#45;&gt;http://purl.org/oseg/ontologies/OTRL#ODRL3Star</title>
<path fill="none" stroke="black" d="M1160.51,-838.17C1222.67,-836.42 1289.45,-834.15 1351.22,-831.26 1407.83,-828.62 1471.75,-824.38 1519.96,-820.93"/>
<polygon fill="black" stroke="black" points="1520.28,-824.42 1530,-820.21 1519.77,-817.44 1520.28,-824.42"/>
<text text-anchor="middle" x="1271.22" y="-841.06" font-family="Times,serif" font-size="14.00">schema:supersededBy</text>
</g>
<!-- http://purl.org/oseg/ontologies/OTRL#Odrl3Star&#45;&gt;http://purl.org/oseg/ontologies/OTRL#ODRL3Star -->
<g id="edge4" class="edge">
<title>http://purl.org/oseg/ontologies/OTRL#Odrl3Star&#45;&gt;http://purl.org/oseg/ontologies/OTRL#ODRL3Star</title>
<path fill="none" stroke="black" d="M1024.42,-828.44C1074.79,-822.08 1136.01,-815.4 1191.22,-812.26 1262.22,-808.23 1280.11,-811.83 1351.22,-812.26 1406.47,-812.6 1468.76,-813.38 1516.56,-814.05"/>
<polygon fill="black" stroke="black" points="1516.8,-817.55 1526.85,-814.2 1516.9,-810.56 1516.8,-817.55"/>
<text text-anchor="middle" x="1271.22" y="-816.06" font-family="Times,serif" font-size="14.00">owl:sameAs</text>
</g>
<!-- http://purl.org/oseg/ontologies/OTRL#Otrl1 -->
<g id="node23" class="node">
<title>http://purl.org/oseg/ontologies/OTRL#Otrl1</title>
<ellipse fill="none" stroke="black" cx="917.96" cy="-177.26" rx="231.45" ry="16.03"/>
<text text-anchor="middle" x="917.96" y="-173.56" font-family="Times,serif" font-size="14.00">http://purl.org/oseg/ontologies/OTRL#Otrl1</text>
</g>
<!-- http://purl.org/oseg/ontologies/OTRL#Otrl1&#45;&gt;http://purl.org/oseg/ontologies/OTRL#OTRL1 -->
<g id="edge5" class="edge">
<title>http://purl.org/oseg/ontologies/OTRL#Otrl1&#45;&gt;http://purl.org/oseg/ontologies/OTRL#OTRL1</title>
<path fill="none" stroke="black" d="M1144.61,-180.6C1285.04,-182.68 1454.7,-185.19 1540.22,-186.45"/>
<polygon fill="black" stroke="black" points="1540.17,-189.95 1550.22,-186.6 1540.28,-182.95 1540.17,-189.95"/>
<text text-anchor="middle" x="1271.22" y="-188.06" font-family="Times,serif" font-size="14.00">owl:sameAs</text>
</g>
<!-- http://purl.org/oseg/ontologies/OTRL#Otrl1&#45;&gt;http://purl.org/oseg/ontologies/OTRL#OTRL1 -->
<g id="edge51" class="edge">
<title>http://purl.org/oseg/ontologies/OTRL#Otrl1&#45;&gt;http://purl.org/oseg/ontologies/OTRL#OTRL1</title>
<path fill="none" stroke="black" d="M1081.43,-165.75C1162.51,-161.6 1262.07,-158.89 1351.22,-163.26 1417.3,-166.51 1493.09,-174.66 1542.43,-180.56"/>
<polygon fill="black" stroke="black" points="1542.2,-184.06 1552.55,-181.79 1543.04,-177.11 1542.2,-184.06"/>
<text text-anchor="middle" x="1271.22" y="-167.06" font-family="Times,serif" font-size="14.00">schema:supersededBy</text>
</g>
<!-- http://purl.org/oseg/ontologies/OTRL#Otrl -->
<g id="node24" class="node">
<title>http://purl.org/oseg/ontologies/OTRL#Otrl</title>
<ellipse fill="none" stroke="black" cx="1596.2" cy="-403.26" rx="224.72" ry="16.03"/>
<text text-anchor="middle" x="1596.2" y="-399.56" font-family="Times,serif" font-size="14.00">http://purl.org/oseg/ontologies/OTRL#Otrl</text>
</g>
<!-- http://purl.org/oseg/ontologies/OTRL#Otrl&#45;&gt;http://purl.org/oseg/ontologies/OTRL#OTRL -->
<g id="edge7" class="edge">
<title>http://purl.org/oseg/ontologies/OTRL#Otrl&#45;&gt;http://purl.org/oseg/ontologies/OTRL#OTRL</title>
<path fill="none" stroke="black" d="M1784,-394.25C1797.71,-389.86 1810.94,-384.29 1823.18,-377.26 1834.75,-370.63 1829.68,-360.01 1841.18,-353.26 1907.72,-314.27 1936.9,-341.63 2013.18,-330.26 2044.62,-325.58 2079.94,-319.78 2107.24,-315.17"/>
<polygon fill="black" stroke="black" points="2108.02,-318.59 2117.29,-313.47 2106.85,-311.69 2108.02,-318.59"/>
<text text-anchor="middle" x="1927.18" y="-357.06" font-family="Times,serif" font-size="14.00">owl:sameAs</text>
</g>
<!-- http://purl.org/oseg/ontologies/OTRL#Otrl&#45;&gt;http://purl.org/oseg/ontologies/OTRL#OTRL -->
<g id="edge23" class="edge">
<title>http://purl.org/oseg/ontologies/OTRL#Otrl&#45;&gt;http://purl.org/oseg/ontologies/OTRL#OTRL</title>
<path fill="none" stroke="black" d="M1779.1,-393.79C1869.86,-387.89 1969.44,-379.31 2013.18,-368.26 2051.59,-358.56 2092.86,-339.41 2120.57,-325.14"/>
<polygon fill="black" stroke="black" points="2122.54,-328.06 2129.78,-320.32 2119.3,-321.86 2122.54,-328.06"/>
<text text-anchor="middle" x="1927.18" y="-393.06" font-family="Times,serif" font-size="14.00">schema:supersededBy</text>
</g>
<!-- http://purl.org/oseg/ontologies/OTRL#Otrl5 -->
<g id="node25" class="node">
<title>http://purl.org/oseg/ontologies/OTRL#Otrl5</title>
<ellipse fill="none" stroke="black" cx="917.96" cy="-16.26" rx="231.45" ry="16.03"/>
<text text-anchor="middle" x="917.96" y="-12.56" font-family="Times,serif" font-size="14.00">http://purl.org/oseg/ontologies/OTRL#Otrl5</text>
</g>
<!-- http://purl.org/oseg/ontologies/OTRL#Otrl5&#45;&gt;http://purl.org/oseg/ontologies/OTRL#OTRL5 -->
<g id="edge13" class="edge">
<title>http://purl.org/oseg/ontologies/OTRL#Otrl5&#45;&gt;http://purl.org/oseg/ontologies/OTRL#OTRL5</title>
<path fill="none" stroke="black" d="M1132.92,-22.28C1275.48,-26.28 1452.23,-31.25 1540.16,-33.72"/>
<polygon fill="black" stroke="black" points="1540.08,-37.22 1550.18,-34 1540.28,-30.22 1540.08,-37.22"/>
<text text-anchor="middle" x="1271.22" y="-32.06" font-family="Times,serif" font-size="14.00">owl:sameAs</text>
</g>
<!-- http://purl.org/oseg/ontologies/OTRL#Otrl5&#45;&gt;http://purl.org/oseg/ontologies/OTRL#OTRL5 -->
<g id="edge49" class="edge">
<title>http://purl.org/oseg/ontologies/OTRL#Otrl5&#45;&gt;http://purl.org/oseg/ontologies/OTRL#OTRL5</title>
<path fill="none" stroke="black" d="M1087.67,-5.2C1167.61,-1.7 1264.4,0.05 1351.22,-5.26 1418.03,-9.36 1494.56,-19.69 1543.82,-27.09"/>
<polygon fill="black" stroke="black" points="1543.49,-30.58 1553.9,-28.62 1544.54,-23.66 1543.49,-30.58"/>
<text text-anchor="middle" x="1271.22" y="-9.06" font-family="Times,serif" font-size="14.00">schema:supersededBy</text>
</g>
<!-- http://purl.org/oseg/ontologies/OTRL#Odrl5 -->
<g id="node26" class="node">
<title>http://purl.org/oseg/ontologies/OTRL#Odrl5</title>
<ellipse fill="none" stroke="black" cx="233.35" cy="-765.26" rx="233.19" ry="16.03"/>
<text text-anchor="middle" x="233.35" y="-761.56" font-family="Times,serif" font-size="14.00">http://purl.org/oseg/ontologies/OTRL#Odrl5</text>
</g>
<!-- http://purl.org/oseg/ontologies/OTRL#Odrl5&#45;&gt;http://purl.org/oseg/ontologies/OTRL#Odrl4 -->
<g id="edge14" class="edge">
<title>http://purl.org/oseg/ontologies/OTRL#Odrl5&#45;&gt;http://purl.org/oseg/ontologies/OTRL#Odrl4</title>
<path fill="none" stroke="black" d="M466.88,-765.26C611.01,-765.26 784.04,-765.26 867.35,-765.26"/>
<polygon fill="black" stroke="black" points="867.53,-768.76 877.53,-765.26 867.53,-761.76 867.53,-768.76"/>
<text text-anchor="middle" x="564.69" y="-769.06" font-family="Times,serif" font-size="14.00">schema:supersededBy</text>
</g>
<!-- http://purl.org/oseg/ontologies/OTRL#Odrl5&#45;&gt;http://purl.org/oseg/ontologies/OTRL#Odrl4 -->
<g id="edge24" class="edge">
<title>http://purl.org/oseg/ontologies/OTRL#Odrl5&#45;&gt;http://purl.org/oseg/ontologies/OTRL#Odrl4</title>
<path fill="none" stroke="black" d="M377.88,-752.49C412.8,-749.91 450.06,-747.58 484.69,-746.26 555.75,-743.57 573.62,-743.79 644.69,-746.26 722.99,-748.99 813.72,-756.12 868.16,-760.83"/>
<polygon fill="black" stroke="black" points="867.96,-764.32 878.23,-761.71 868.57,-757.35 867.96,-764.32"/>
<text text-anchor="middle" x="564.69" y="-750.06" font-family="Times,serif" font-size="14.00">owl:sameAs</text>
</g>
<!-- http://purl.org/oseg/ontologies/OTRL#Odrl2 -->
<g id="node27" class="node">
<title>http://purl.org/oseg/ontologies/OTRL#Odrl2</title>
<ellipse fill="none" stroke="black" cx="917.96" cy="-606.26" rx="233.19" ry="16.03"/>
<text text-anchor="middle" x="917.96" y="-602.56" font-family="Times,serif" font-size="14.00">http://purl.org/oseg/ontologies/OTRL#Odrl2</text>
</g>
<!-- http://purl.org/oseg/ontologies/OTRL#Odrl2&#45;&gt;http://purl.org/oseg/ontologies/OTRL#ODRL2 -->
<g id="edge17" class="edge">
<title>http://purl.org/oseg/ontologies/OTRL#Odrl2&#45;&gt;http://purl.org/oseg/ontologies/OTRL#ODRL2</title>
<path fill="none" stroke="black" d="M1124.61,-613.87C1267.54,-619.15 1447.98,-625.82 1538.27,-629.16"/>
<polygon fill="black" stroke="black" points="1538.18,-632.66 1548.3,-629.53 1538.44,-625.66 1538.18,-632.66"/>
<text text-anchor="middle" x="1271.22" y="-626.06" font-family="Times,serif" font-size="14.00">owl:sameAs</text>
</g>
<!-- http://purl.org/oseg/ontologies/OTRL#Odrl2&#45;&gt;http://purl.org/oseg/ontologies/OTRL#ODRL2 -->
<g id="edge30" class="edge">
<title>http://purl.org/oseg/ontologies/OTRL#Odrl2&#45;&gt;http://purl.org/oseg/ontologies/OTRL#ODRL2</title>
<path fill="none" stroke="black" d="M1029.69,-591.95C1117.63,-583.52 1243.33,-578.02 1351.22,-598.26 1359.66,-599.85 1360.89,-603.2 1369.22,-605.26 1425.71,-619.25 1492.04,-625.75 1538.17,-628.75"/>
<polygon fill="black" stroke="black" points="1538.08,-632.25 1548.27,-629.37 1538.51,-625.26 1538.08,-632.25"/>
<text text-anchor="middle" x="1271.22" y="-602.06" font-family="Times,serif" font-size="14.00">schema:supersededBy</text>
</g>
<!-- http://purl.org/oseg/ontologies/OTRL#Otrl3 -->
<g id="node28" class="node">
<title>http://purl.org/oseg/ontologies/OTRL#Otrl3</title>
<ellipse fill="none" stroke="black" cx="917.96" cy="-92.26" rx="231.45" ry="16.03"/>
<text text-anchor="middle" x="917.96" y="-88.56" font-family="Times,serif" font-size="14.00">http://purl.org/oseg/ontologies/OTRL#Otrl3</text>
</g>
<!-- http://purl.org/oseg/ontologies/OTRL#Otrl3&#45;&gt;http://purl.org/oseg/ontologies/OTRL#OTRL3 -->
<g id="edge19" class="edge">
<title>http://purl.org/oseg/ontologies/OTRL#Otrl3&#45;&gt;http://purl.org/oseg/ontologies/OTRL#OTRL3</title>
<path fill="none" stroke="black" d="M1132.92,-98.28C1275.48,-102.28 1452.23,-107.25 1540.16,-109.72"/>
<polygon fill="black" stroke="black" points="1540.08,-113.22 1550.18,-110 1540.28,-106.22 1540.08,-113.22"/>
<text text-anchor="middle" x="1271.22" y="-108.06" font-family="Times,serif" font-size="14.00">schema:supersededBy</text>
</g>
<!-- http://purl.org/oseg/ontologies/OTRL#Otrl3&#45;&gt;http://purl.org/oseg/ontologies/OTRL#OTRL3 -->
<g id="edge37" class="edge">
<title>http://purl.org/oseg/ontologies/OTRL#Otrl3&#45;&gt;http://purl.org/oseg/ontologies/OTRL#OTRL3</title>
<path fill="none" stroke="black" d="M1087.67,-81.2C1167.61,-77.7 1264.4,-75.95 1351.22,-81.26 1418.03,-85.36 1494.56,-95.69 1543.82,-103.09"/>
<polygon fill="black" stroke="black" points="1543.49,-106.58 1553.9,-104.62 1544.54,-99.66 1543.49,-106.58"/>
<text text-anchor="middle" x="1271.22" y="-85.06" font-family="Times,serif" font-size="14.00">owl:sameAs</text>
</g>
<!-- http://purl.org/oseg/ontologies/OTRL#Otrl6 -->
<g id="node29" class="node">
<title>http://purl.org/oseg/ontologies/OTRL#Otrl6</title>
<ellipse fill="none" stroke="black" cx="917.96" cy="-403.26" rx="231.45" ry="16.03"/>
<text text-anchor="middle" x="917.96" y="-399.56" font-family="Times,serif" font-size="14.00">http://purl.org/oseg/ontologies/OTRL#Otrl6</text>
</g>
<!-- http://purl.org/oseg/ontologies/OTRL#Otrl6&#45;&gt;http://purl.org/oseg/ontologies/OTRL#OTRL6 -->
<g id="edge26" class="edge">
<title>http://purl.org/oseg/ontologies/OTRL#Otrl6&#45;&gt;http://purl.org/oseg/ontologies/OTRL#OTRL6</title>
<path fill="none" stroke="black" d="M1010.82,-418.2C1100.67,-428.93 1239.82,-435.06 1351.22,-393.26 1360.97,-389.61 1359.65,-382.36 1369.22,-378.26 1424.18,-354.73 1493.17,-349.93 1540.37,-349.95"/>
<polygon fill="black" stroke="black" points="1540.37,-353.45 1550.4,-350.02 1540.42,-346.45 1540.37,-353.45"/>
<text text-anchor="middle" x="1271.22" y="-428.06" font-family="Times,serif" font-size="14.00">schema:supersededBy</text>
</g>
<!-- http://purl.org/oseg/ontologies/OTRL#Otrl6&#45;&gt;http://purl.org/oseg/ontologies/OTRL#OTRL6 -->
<g id="edge29" class="edge">
<title>http://purl.org/oseg/ontologies/OTRL#Otrl6&#45;&gt;http://purl.org/oseg/ontologies/OTRL#OTRL6</title>
<path fill="none" stroke="black" d="M1037.44,-389.3C1085.16,-384.02 1140.76,-378.32 1191.22,-374.26 1315.85,-364.24 1462.49,-357.52 1540.26,-354.35"/>
<polygon fill="black" stroke="black" points="1540.47,-357.85 1550.32,-353.95 1540.18,-350.85 1540.47,-357.85"/>
<text text-anchor="middle" x="1271.22" y="-378.06" font-family="Times,serif" font-size="14.00">owl:sameAs</text>
</g>
<!-- http://purl.org/oseg/ontologies/OTRL#Odrl -->
<g id="node30" class="node">
<title>http://purl.org/oseg/ontologies/OTRL#Odrl</title>
<ellipse fill="none" stroke="black" cx="1596.2" cy="-917.26" rx="226.96" ry="16.03"/>
<text text-anchor="middle" x="1596.2" y="-913.56" font-family="Times,serif" font-size="14.00">http://purl.org/oseg/ontologies/OTRL#Odrl</text>
</g>
<!-- http://purl.org/oseg/ontologies/OTRL#Odrl&#45;&gt;http://purl.org/oseg/ontologies/OTRL#ODRL -->
<g id="edge27" class="edge">
<title>http://purl.org/oseg/ontologies/OTRL#Odrl&#45;&gt;http://purl.org/oseg/ontologies/OTRL#ODRL</title>
<path fill="none" stroke="black" d="M1772.06,-906.89C1789.67,-902.97 1807.01,-897.87 1823.18,-891.26 1832.57,-887.43 1832.05,-881.65 1841.18,-877.26 1912.03,-843.26 1938.72,-861.39 2013.18,-836.26 2050.14,-823.79 2090.73,-805.26 2118.65,-791.7"/>
<polygon fill="black" stroke="black" points="2120.53,-794.67 2127.97,-787.13 2117.45,-788.39 2120.53,-794.67"/>
<text text-anchor="middle" x="1927.18" y="-881.06" font-family="Times,serif" font-size="14.00">owl:sameAs</text>
</g>
<!-- http://purl.org/oseg/ontologies/OTRL#Odrl&#45;&gt;http://purl.org/oseg/ontologies/OTRL#ODRL -->
<g id="edge32" class="edge">
<title>http://purl.org/oseg/ontologies/OTRL#Odrl&#45;&gt;http://purl.org/oseg/ontologies/OTRL#ODRL</title>
<path fill="none" stroke="black" d="M1732.55,-930.27C1816.27,-933.26 1924.33,-927.76 2013.18,-892.26 2063.97,-871.97 2109.73,-825.67 2134.29,-797.48"/>
<polygon fill="black" stroke="black" points="2137.1,-799.58 2140.93,-789.7 2131.78,-795.03 2137.1,-799.58"/>
<text text-anchor="middle" x="1927.18" y="-932.06" font-family="Times,serif" font-size="14.00">schema:supersededBy</text>
</g>
<!-- http://purl.org/oseg/ontologies/OTRL#Odrl1 -->
<g id="node31" class="node">
<title>http://purl.org/oseg/ontologies/OTRL#Odrl1</title>
<ellipse fill="none" stroke="black" cx="917.96" cy="-689.26" rx="233.19" ry="16.03"/>
<text text-anchor="middle" x="917.96" y="-685.56" font-family="Times,serif" font-size="14.00">http://purl.org/oseg/ontologies/OTRL#Odrl1</text>
</g>
<!-- http://purl.org/oseg/ontologies/OTRL#Odrl1&#45;&gt;http://purl.org/oseg/ontologies/OTRL#ODRL1 -->
<g id="edge31" class="edge">
<title>http://purl.org/oseg/ontologies/OTRL#Odrl1&#45;&gt;http://purl.org/oseg/ontologies/OTRL#ODRL1</title>
<path fill="none" stroke="black" d="M1144.61,-693.27C1283.75,-695.74 1451.58,-698.71 1537.84,-700.25"/>
<polygon fill="black" stroke="black" points="1537.88,-703.75 1547.94,-700.42 1538.01,-696.75 1537.88,-703.75"/>
<text text-anchor="middle" x="1271.22" y="-701.06" font-family="Times,serif" font-size="14.00">owl:sameAs</text>
</g>
<!-- http://purl.org/oseg/ontologies/OTRL#Odrl1&#45;&gt;http://purl.org/oseg/ontologies/OTRL#ODRL1 -->
<g id="edge40" class="edge">
<title>http://purl.org/oseg/ontologies/OTRL#Odrl1&#45;&gt;http://purl.org/oseg/ontologies/OTRL#ODRL1</title>
<path fill="none" stroke="black" d="M1079.65,-677.53C1161.06,-673.25 1261.43,-670.49 1351.22,-675.26 1416.75,-678.75 1491.76,-687.45 1541.11,-693.83"/>
<polygon fill="black" stroke="black" points="1540.87,-697.33 1551.24,-695.16 1541.78,-690.39 1540.87,-697.33"/>
<text text-anchor="middle" x="1271.22" y="-679.06" font-family="Times,serif" font-size="14.00">schema:supersededBy</text>
</g>
<!-- http://purl.org/oseg/ontologies/OTRL#Odrl3 -->
<g id="node32" class="node">
<title>http://purl.org/oseg/ontologies/OTRL#Odrl3</title>
<ellipse fill="none" stroke="black" cx="917.96" cy="-900.26" rx="233.19" ry="16.03"/>
<text text-anchor="middle" x="917.96" y="-896.56" font-family="Times,serif" font-size="14.00">http://purl.org/oseg/ontologies/OTRL#Odrl3</text>
</g>
<!-- http://purl.org/oseg/ontologies/OTRL#Odrl3&#45;&gt;http://purl.org/oseg/ontologies/OTRL#ODRL3 -->
<g id="edge33" class="edge">
<title>http://purl.org/oseg/ontologies/OTRL#Odrl3&#45;&gt;http://purl.org/oseg/ontologies/OTRL#ODRL3</title>
<path fill="none" stroke="black" d="M1059.38,-913.22C1164.75,-920.96 1299.39,-926.03 1351.22,-907.26 1361.01,-903.72 1359.65,-896.36 1369.22,-892.26 1423.33,-869.09 1491.05,-864.09 1538.18,-863.95"/>
<polygon fill="black" stroke="black" points="1538.19,-867.45 1548.21,-864 1538.22,-860.45 1538.19,-867.45"/>
<text text-anchor="middle" x="1271.22" y="-924.06" font-family="Times,serif" font-size="14.00">owl:sameAs</text>
</g>
<!-- http://purl.org/oseg/ontologies/OTRL#Odrl3&#45;&gt;http://purl.org/oseg/ontologies/OTRL#ODRL3 -->
<g id="edge41" class="edge">
<title>http://purl.org/oseg/ontologies/OTRL#Odrl3&#45;&gt;http://purl.org/oseg/ontologies/OTRL#ODRL3</title>
<path fill="none" stroke="black" d="M1107.78,-890.77C1253.17,-883.46 1444.64,-873.83 1538.45,-869.12"/>
<polygon fill="black" stroke="black" points="1538.77,-872.61 1548.58,-868.61 1538.42,-865.61 1538.77,-872.61"/>
<text text-anchor="middle" x="1271.22" y="-891.06" font-family="Times,serif" font-size="14.00">schema:supersededBy</text>
</g>
<!-- http://purl.org/oseg/ontologies/OTRL#Otrl4 -->
<g id="node33" class="node">
<title>http://purl.org/oseg/ontologies/OTRL#Otrl4</title>
<ellipse fill="none" stroke="black" cx="917.96" cy="-320.26" rx="231.45" ry="16.03"/>
<text text-anchor="middle" x="917.96" y="-316.56" font-family="Times,serif" font-size="14.00">http://purl.org/oseg/ontologies/OTRL#Otrl4</text>
</g>
<!-- http://purl.org/oseg/ontologies/OTRL#Otrl4&#45;&gt;http://purl.org/oseg/ontologies/OTRL#OTRL4 -->
<g id="edge34" class="edge">
<title>http://purl.org/oseg/ontologies/OTRL#Otrl4&#45;&gt;http://purl.org/oseg/ontologies/OTRL#OTRL4</title>
<path fill="none" stroke="black" d="M1148.95,-321.17C1214.33,-320.74 1285.6,-319.64 1351.22,-317.26 1416.57,-314.9 1491.61,-309.58 1541.02,-305.73"/>
<polygon fill="black" stroke="black" points="1541.47,-309.2 1551.17,-304.93 1540.92,-302.23 1541.47,-309.2"/>
<text text-anchor="middle" x="1271.22" y="-325.06" font-family="Times,serif" font-size="14.00">schema:supersededBy</text>
</g>
<!-- http://purl.org/oseg/ontologies/OTRL#Otrl4&#45;&gt;http://purl.org/oseg/ontologies/OTRL#OTRL4 -->
<g id="edge39" class="edge">
<title>http://purl.org/oseg/ontologies/OTRL#Otrl4&#45;&gt;http://purl.org/oseg/ontologies/OTRL#OTRL4</title>
<path fill="none" stroke="black" d="M1054.89,-307.11C1098.4,-303.49 1146.8,-300.06 1191.22,-298.26 1262.27,-295.4 1280.11,-297.83 1351.22,-298.26 1416.08,-298.66 1490.63,-299.66 1540.08,-300.39"/>
<polygon fill="black" stroke="black" points="1540.19,-303.89 1550.24,-300.55 1540.29,-296.9 1540.19,-303.89"/>
<text text-anchor="middle" x="1271.22" y="-302.06" font-family="Times,serif" font-size="14.00">owl:sameAs</text>
</g>
<!-- http://purl.org/oseg/ontologies/OTRL#Otrl2 -->
<g id="node34" class="node">
<title>http://purl.org/oseg/ontologies/OTRL#Otrl2</title>
<ellipse fill="none" stroke="black" cx="917.96" cy="-234.26" rx="231.45" ry="16.03"/>
<text text-anchor="middle" x="917.96" y="-230.56" font-family="Times,serif" font-size="14.00">http://purl.org/oseg/ontologies/OTRL#Otrl2</text>
</g>
<!-- http://purl.org/oseg/ontologies/OTRL#Otrl2&#45;&gt;http://purl.org/oseg/ontologies/OTRL#OTRL2 -->
<g id="edge38" class="edge">
<title>http://purl.org/oseg/ontologies/OTRL#Otrl2&#45;&gt;http://purl.org/oseg/ontologies/OTRL#OTRL2</title>
<path fill="none" stroke="black" d="M1135.19,-239.89C1154.14,-240.36 1173.02,-240.83 1191.22,-241.26 1315.9,-244.25 1462.22,-247.43 1540.01,-249.09"/>
<polygon fill="black" stroke="black" points="1539.99,-252.59 1550.07,-249.31 1540.14,-245.6 1539.99,-252.59"/>
<text text-anchor="middle" x="1271.22" y="-249.06" font-family="Times,serif" font-size="14.00">schema:supersededBy</text>
</g>
<!-- http://purl.org/oseg/ontologies/OTRL#Otrl2&#45;&gt;http://purl.org/oseg/ontologies/OTRL#OTRL2 -->
<g id="edge43" class="edge">
<title>http://purl.org/oseg/ontologies/OTRL#Otrl2&#45;&gt;http://purl.org/oseg/ontologies/OTRL#OTRL2</title>
<path fill="none" stroke="black" d="M1085.58,-223.04C1165.91,-219.32 1263.62,-217.25 1351.22,-222.26 1417.79,-226.07 1494.07,-235.67 1543.36,-242.57"/>
<polygon fill="black" stroke="black" points="1543.06,-246.07 1553.45,-244 1544.04,-239.13 1543.06,-246.07"/>
<text text-anchor="middle" x="1271.22" y="-226.06" font-family="Times,serif" font-size="14.00">owl:sameAs</text>
</g>
</g>
</svg>
