<?xml version="1.0" encoding="UTF-8" standalone="no"?>
<!DOCTYPE svg PUBLIC "-//W3C//DTD SVG 1.1//EN"
 "http://www.w3.org/Graphics/SVG/1.1/DTD/svg11.dtd">
<!-- Generated by graphviz version 2.43.0 (0)
 -->
<!-- Title: G Pages: 1 -->
<svg width="632pt" height="905pt"
 viewBox="0.00 0.00 631.63 904.53" xmlns="http://www.w3.org/2000/svg" xmlns:xlink="http://www.w3.org/1999/xlink">
<g id="graph0" class="graph" transform="scale(1 1) rotate(0) translate(4 900.53)">
<title>G</title>
<polygon fill="white" stroke="transparent" points="-4,4 -4,-900.53 627.63,-900.53 627.63,4 -4,4"/>
<!-- http://www.w3.org/2002/07/owl#DatatypeProperty -->
<g id="node1" class="node">
<title>http://www.w3.org/2002/07/owl#DatatypeProperty</title>
<ellipse fill="none" stroke="#1f77b4" cx="341.04" cy="-71.26" rx="123.07" ry="16.03"/>
<text text-anchor="middle" x="341.04" y="-67.56" font-family="Times,serif" font-size="14.00">owl:DatatypeProperty</text>
</g>
<!-- http://purl.org/oseg/ontologies/OTRL#OTRL -->
<g id="node2" class="node">
<title>http://purl.org/oseg/ontologies/OTRL#OTRL</title>
<ellipse fill="none" stroke="#e377c2" cx="341.04" cy="-327.26" rx="39.7" ry="16.03"/>
<text text-anchor="middle" x="341.04" y="-323.56" font-family="Times,serif" font-size="14.00">OTRL</text>
</g>
<!-- http://www.w3.org/2002/07/owl#class -->
<g id="node3" class="node">
<title>http://www.w3.org/2002/07/owl#class</title>
<ellipse fill="none" stroke="#1f77b4" cx="566.36" cy="-396.26" rx="57.05" ry="16.03"/>
<text text-anchor="middle" x="566.36" y="-392.56" font-family="Times,serif" font-size="14.00">owl:class</text>
</g>
<!-- http://purl.org/oseg/ontologies/OTRL#OTRL&#45;&gt;http://www.w3.org/2002/07/owl#class -->
<g id="edge26" class="edge">
<title>http://purl.org/oseg/ontologies/OTRL#OTRL&#45;&gt;http://www.w3.org/2002/07/owl#class</title>
<path fill="none" stroke="black" d="M380.46,-328.97C411.2,-331.32 454.98,-336.93 491.08,-350.26 507.42,-356.3 524.05,-366.18 537.42,-375.23"/>
<polygon fill="black" stroke="black" points="535.49,-378.16 545.7,-381.02 539.5,-372.42 535.49,-378.16"/>
<text text-anchor="middle" x="486.58" y="-354.06" font-family="Times,serif" font-size="14.00">a</text>
</g>
<!-- http://www.w3.org/2002/07/owl#Ontology -->
<g id="node4" class="node">
<title>http://www.w3.org/2002/07/owl#Ontology</title>
<ellipse fill="none" stroke="#1f77b4" cx="341.04" cy="-745.26" rx="77.56" ry="16.03"/>
<text text-anchor="middle" x="341.04" y="-741.56" font-family="Times,serif" font-size="14.00">owl:Ontology</text>
</g>
<!-- http://purl.org/oseg/ontologies/OTRL#ODRL -->
<g id="node5" class="node">
<title>http://purl.org/oseg/ontologies/OTRL#ODRL</title>
<ellipse fill="none" stroke="#e377c2" cx="566.36" cy="-593.26" rx="41.94" ry="16.03"/>
<text text-anchor="middle" x="566.36" y="-589.56" font-family="Times,serif" font-size="14.00">ODRL</text>
</g>
<!-- http://purl.org/oseg/ontologies/OTRL#Otrl2 -->
<g id="node6" class="node">
<title>http://purl.org/oseg/ontologies/OTRL#Otrl2</title>
<ellipse fill="none" stroke="#e377c2" cx="70" cy="-362.26" rx="38.37" ry="16.03"/>
<text text-anchor="middle" x="70" y="-358.56" font-family="Times,serif" font-size="14.00">Otrl2</text>
</g>
<!-- http://purl.org/oseg/ontologies/OTRL#Otrl2&#45;&gt;http://purl.org/oseg/ontologies/OTRL#OTRL -->
<g id="edge13" class="edge">
<title>http://purl.org/oseg/ontologies/OTRL#Otrl2&#45;&gt;http://purl.org/oseg/ontologies/OTRL#OTRL</title>
<path fill="none" stroke="black" d="M106.73,-357.62C154.57,-351.39 239.56,-340.34 292.69,-333.42"/>
<polygon fill="black" stroke="black" points="293.41,-336.86 302.87,-332.1 292.5,-329.92 293.41,-336.86"/>
</g>
<!-- http://purl.org/oseg/ontologies/OTRL#Otrl2&#45;&gt;http://www.w3.org/2002/07/owl#class -->
<g id="edge15" class="edge">
<title>http://purl.org/oseg/ontologies/OTRL#Otrl2&#45;&gt;http://www.w3.org/2002/07/owl#class</title>
<path fill="none" stroke="black" d="M107.87,-364.54C177.49,-368.89 333.11,-378.76 464.08,-388.26 475.97,-389.13 488.64,-390.09 500.85,-391.04"/>
<polygon fill="black" stroke="black" points="500.72,-394.54 510.97,-391.84 501.27,-387.57 500.72,-394.54"/>
<text text-anchor="middle" x="341.04" y="-392.06" font-family="Times,serif" font-size="14.00">a</text>
</g>
<!-- http://purl.org/oseg/ontologies/OTRL#goal -->
<g id="node7" class="node">
<title>http://purl.org/oseg/ontologies/OTRL#goal</title>
<ellipse fill="none" stroke="#e377c2" cx="70" cy="-119.26" rx="33.47" ry="16.03"/>
<text text-anchor="middle" x="70" y="-115.56" font-family="Times,serif" font-size="14.00">goal</text>
</g>
<!-- http://purl.org/oseg/ontologies/OTRL#goal&#45;&gt;http://www.w3.org/2002/07/owl#DatatypeProperty -->
<g id="edge1" class="edge">
<title>http://purl.org/oseg/ontologies/OTRL#goal&#45;&gt;http://www.w3.org/2002/07/owl#DatatypeProperty</title>
<path fill="none" stroke="black" d="M102.09,-114.83C128.25,-111.01 166.65,-105.18 200.01,-99.26 220.99,-95.54 243.66,-91.16 264.53,-86.99"/>
<polygon fill="black" stroke="black" points="265.5,-90.36 274.61,-84.96 264.12,-83.5 265.5,-90.36"/>
<text text-anchor="middle" x="179.01" y="-110.06" font-family="Times,serif" font-size="14.00">a</text>
</g>
<!-- http://schema.org/Text -->
<g id="node14" class="node">
<title>http://schema.org/Text</title>
<ellipse fill="none" stroke="#e377c2" cx="341.04" cy="-16.26" rx="74.91" ry="16.03"/>
<text text-anchor="middle" x="341.04" y="-12.56" font-family="Times,serif" font-size="14.00">schema:Text</text>
</g>
<!-- http://purl.org/oseg/ontologies/OTRL#goal&#45;&gt;http://schema.org/Text -->
<g id="edge28" class="edge">
<title>http://purl.org/oseg/ontologies/OTRL#goal&#45;&gt;http://schema.org/Text</title>
<path fill="none" stroke="black" d="M94.99,-108.53C131.97,-91.97 198.8,-62.02 200.01,-61.26 208.84,-55.74 208.71,-50.96 218.01,-46.26 233.8,-38.28 251.83,-32.35 269.1,-27.97"/>
<polygon fill="black" stroke="black" points="270.24,-31.29 279.15,-25.56 268.61,-24.48 270.24,-31.29"/>
<text text-anchor="middle" x="179.01" y="-83.06" font-family="Times,serif" font-size="14.00">range</text>
</g>
<!-- http://purl.org/oseg/ontologies/OTRL#Odrl3Star -->
<g id="node8" class="node">
<title>http://purl.org/oseg/ontologies/OTRL#Odrl3Star</title>
<ellipse fill="none" stroke="#e377c2" cx="341.04" cy="-694.26" rx="62.45" ry="16.03"/>
<text text-anchor="middle" x="341.04" y="-690.56" font-family="Times,serif" font-size="14.00">Odrl3Star</text>
</g>
<!-- http://purl.org/oseg/ontologies/OTRL#Odrl3Star&#45;&gt;http://www.w3.org/2002/07/owl#class -->
<g id="edge16" class="edge">
<title>http://purl.org/oseg/ontologies/OTRL#Odrl3Star&#45;&gt;http://www.w3.org/2002/07/owl#class</title>
<path fill="none" stroke="black" d="M401.99,-690.77C423.32,-687.02 446.41,-679.83 464.08,-666.26 484.42,-650.65 480.93,-638.82 491.08,-615.26 506.47,-579.55 541.1,-472.48 557.04,-422.5"/>
<polygon fill="black" stroke="black" points="560.45,-423.34 560.14,-412.75 553.78,-421.22 560.45,-423.34"/>
<text text-anchor="middle" x="486.58" y="-646.06" font-family="Times,serif" font-size="14.00">a</text>
</g>
<!-- http://purl.org/oseg/ontologies/OTRL#Odrl3Star&#45;&gt;http://purl.org/oseg/ontologies/OTRL#ODRL -->
<g id="edge19" class="edge">
<title>http://purl.org/oseg/ontologies/OTRL#Odrl3Star&#45;&gt;http://purl.org/oseg/ontologies/OTRL#ODRL</title>
<path fill="none" stroke="black" d="M378.33,-707.38C410,-716.49 456.22,-723.98 491.08,-705.26 524.8,-687.16 545.81,-646.27 556.54,-619.23"/>
<polygon fill="black" stroke="black" points="559.91,-620.21 560.16,-609.62 553.36,-617.74 559.91,-620.21"/>
</g>
<!-- http://www.w3.org/1999/02/22&#45;rdf&#45;syntax&#45;ns#nil -->
<g id="node9" class="node">
<title>http://www.w3.org/1999/02/22&#45;rdf&#45;syntax&#45;ns#nil</title>
<ellipse fill="none" stroke="#e377c2" cx="70" cy="-829.26" rx="42.35" ry="16.03"/>
<text text-anchor="middle" x="70" y="-825.56" font-family="Times,serif" font-size="14.00">rdf:nil</text>
</g>
<!-- http://purl.org/oseg/ontologies/OTRL#Otrl5 -->
<g id="node10" class="node">
<title>http://purl.org/oseg/ontologies/OTRL#Otrl5</title>
<ellipse fill="none" stroke="#e377c2" cx="70" cy="-239.26" rx="38.37" ry="16.03"/>
<text text-anchor="middle" x="70" y="-235.56" font-family="Times,serif" font-size="14.00">Otrl5</text>
</g>
<!-- http://purl.org/oseg/ontologies/OTRL#Otrl5&#45;&gt;http://purl.org/oseg/ontologies/OTRL#OTRL -->
<g id="edge14" class="edge">
<title>http://purl.org/oseg/ontologies/OTRL#Otrl5&#45;&gt;http://purl.org/oseg/ontologies/OTRL#OTRL</title>
<path fill="none" stroke="black" d="M97.17,-250.83C126.27,-263.4 174.87,-283.52 218.01,-297.26 243.36,-305.34 272.25,-312.53 295.56,-317.84"/>
<polygon fill="black" stroke="black" points="294.98,-321.3 305.51,-320.08 296.52,-314.47 294.98,-321.3"/>
</g>
<!-- http://purl.org/oseg/ontologies/OTRL#Otrl5&#45;&gt;http://www.w3.org/2002/07/owl#class -->
<g id="edge17" class="edge">
<title>http://purl.org/oseg/ontologies/OTRL#Otrl5&#45;&gt;http://www.w3.org/2002/07/owl#class</title>
<path fill="none" stroke="black" d="M101.99,-230.27C171.71,-211.89 344.19,-177.02 464.08,-242.26 514.22,-269.55 543.66,-333.59 556.9,-369.91"/>
<polygon fill="black" stroke="black" points="553.75,-371.5 560.35,-379.79 560.36,-369.2 553.75,-371.5"/>
<text text-anchor="middle" x="341.04" y="-246.06" font-family="Times,serif" font-size="14.00">a</text>
</g>
<!-- http://purl.org/oseg/ontologies/OTRL#Otrl -->
<g id="node11" class="node">
<title>http://purl.org/oseg/ontologies/OTRL#Otrl</title>
<ellipse fill="none" stroke="#e377c2" cx="70" cy="-880.26" rx="31.64" ry="16.03"/>
<text text-anchor="middle" x="70" y="-876.56" font-family="Times,serif" font-size="14.00">Otrl</text>
</g>
<!-- http://purl.org/oseg/ontologies/OTRL#Odrl -->
<g id="node12" class="node">
<title>http://purl.org/oseg/ontologies/OTRL#Odrl</title>
<ellipse fill="none" stroke="#e377c2" cx="341.04" cy="-124.26" rx="33.88" ry="16.03"/>
<text text-anchor="middle" x="341.04" y="-120.56" font-family="Times,serif" font-size="14.00">Odrl</text>
</g>
<!-- http://purl.org/oseg/ontologies/OTRL#Odrl&#45;&gt;http://www.w3.org/2002/07/owl#class -->
<g id="edge3" class="edge">
<title>http://purl.org/oseg/ontologies/OTRL#Odrl&#45;&gt;http://www.w3.org/2002/07/owl#class</title>
<path fill="none" stroke="black" d="M374.02,-120.06C407.29,-117.56 458.91,-119.22 491.08,-147.26 556.97,-204.71 565.67,-317.86 566,-369.47"/>
<polygon fill="black" stroke="black" points="562.5,-369.77 565.96,-379.79 569.5,-369.8 562.5,-369.77"/>
<text text-anchor="middle" x="486.58" y="-151.06" font-family="Times,serif" font-size="14.00">a</text>
</g>
<!-- http://purl.org/oseg/ontologies/OTRL#Otrl3 -->
<g id="node13" class="node">
<title>http://purl.org/oseg/ontologies/OTRL#Otrl3</title>
<ellipse fill="none" stroke="#e377c2" cx="70" cy="-177.26" rx="38.37" ry="16.03"/>
<text text-anchor="middle" x="70" y="-173.56" font-family="Times,serif" font-size="14.00">Otrl3</text>
</g>
<!-- http://purl.org/oseg/ontologies/OTRL#Otrl3&#45;&gt;http://purl.org/oseg/ontologies/OTRL#OTRL -->
<g id="edge2" class="edge">
<title>http://purl.org/oseg/ontologies/OTRL#Otrl3&#45;&gt;http://purl.org/oseg/ontologies/OTRL#OTRL</title>
<path fill="none" stroke="black" d="M96.95,-188.98C110.35,-195.57 126.65,-204.43 140.01,-214.26 170.13,-236.44 175.38,-245.11 200.01,-273.26 208.79,-283.3 206.88,-289.91 218.01,-297.26 239.9,-311.74 268.17,-319.24 291.99,-323.11"/>
<polygon fill="black" stroke="black" points="291.49,-326.58 301.89,-324.57 292.5,-319.65 291.49,-326.58"/>
</g>
<!-- http://purl.org/oseg/ontologies/OTRL#Otrl3&#45;&gt;http://www.w3.org/2002/07/owl#class -->
<g id="edge18" class="edge">
<title>http://purl.org/oseg/ontologies/OTRL#Otrl3&#45;&gt;http://www.w3.org/2002/07/owl#class</title>
<path fill="none" stroke="black" d="M107.4,-173.41C193.32,-165.03 405.9,-148.8 464.08,-186.26 528.8,-227.94 553.25,-323.6 561.55,-370.03"/>
<polygon fill="black" stroke="black" points="558.1,-370.64 563.21,-379.93 565.01,-369.49 558.1,-370.64"/>
<text text-anchor="middle" x="341.04" y="-190.06" font-family="Times,serif" font-size="14.00">a</text>
</g>
<!-- http://purl.org/oseg/ontologies/OTRL -->
<g id="node15" class="node">
<title>http://purl.org/oseg/ontologies/OTRL</title>
<ellipse fill="none" stroke="#e377c2" cx="70" cy="-745.26" rx="60.62" ry="16.03"/>
<text text-anchor="middle" x="70" y="-741.56" font-family="Times,serif" font-size="14.00">ns1:OTRL</text>
</g>
<!-- http://purl.org/oseg/ontologies/OTRL&#45;&gt;http://www.w3.org/2002/07/owl#Ontology -->
<g id="edge25" class="edge">
<title>http://purl.org/oseg/ontologies/OTRL&#45;&gt;http://www.w3.org/2002/07/owl#Ontology</title>
<path fill="none" stroke="black" d="M131.05,-745.26C166.88,-745.26 213,-745.26 252.8,-745.26"/>
<polygon fill="black" stroke="black" points="253.04,-748.76 263.04,-745.26 253.04,-741.76 253.04,-748.76"/>
<text text-anchor="middle" x="179.01" y="-749.06" font-family="Times,serif" font-size="14.00">a</text>
</g>
<!-- http://purl.org/oseg/ontologies/OTRL&#45;&gt;http://purl.org/oseg/ontologies/OTRL -->
<g id="edge22" class="edge">
<title>http://purl.org/oseg/ontologies/OTRL&#45;&gt;http://purl.org/oseg/ontologies/OTRL</title>
<path fill="none" stroke="black" d="M51.18,-760.77C46.64,-770.38 52.92,-779.53 70,-779.53 80.68,-779.53 87.14,-775.95 89.37,-770.93"/>
<polygon fill="black" stroke="black" points="92.85,-770.57 88.82,-760.77 85.86,-770.94 92.85,-770.57"/>
<text text-anchor="middle" x="70" y="-783.33" font-family="Times,serif" font-size="14.00">owl:versionIRI</text>
</g>
<!-- http://purl.org/oseg/ontologies/OTRL#Otrl4 -->
<g id="node16" class="node">
<title>http://purl.org/oseg/ontologies/OTRL#Otrl4</title>
<ellipse fill="none" stroke="#e377c2" cx="70" cy="-308.26" rx="38.37" ry="16.03"/>
<text text-anchor="middle" x="70" y="-304.56" font-family="Times,serif" font-size="14.00">Otrl4</text>
</g>
<!-- http://purl.org/oseg/ontologies/OTRL#Otrl4&#45;&gt;http://purl.org/oseg/ontologies/OTRL#OTRL -->
<g id="edge5" class="edge">
<title>http://purl.org/oseg/ontologies/OTRL#Otrl4&#45;&gt;http://purl.org/oseg/ontologies/OTRL#OTRL</title>
<path fill="none" stroke="black" d="M107.85,-310.87C155.61,-314.24 239.01,-320.13 291.78,-323.86"/>
<polygon fill="black" stroke="black" points="291.69,-327.36 301.91,-324.57 292.18,-320.37 291.69,-327.36"/>
</g>
<!-- http://purl.org/oseg/ontologies/OTRL#Otrl4&#45;&gt;http://www.w3.org/2002/07/owl#class -->
<g id="edge7" class="edge">
<title>http://purl.org/oseg/ontologies/OTRL#Otrl4&#45;&gt;http://www.w3.org/2002/07/owl#class</title>
<path fill="none" stroke="black" d="M100.2,-298.17C167.65,-276.62 338.16,-232.38 464.08,-287.26 503.27,-304.34 534.11,-344.89 551.02,-371.43"/>
<polygon fill="black" stroke="black" points="548.19,-373.49 556.42,-380.17 554.14,-369.82 548.19,-373.49"/>
<text text-anchor="middle" x="341.04" y="-291.06" font-family="Times,serif" font-size="14.00">a</text>
</g>
<!-- http://purl.org/oseg/ontologies/OTRL#Odrl4 -->
<g id="node17" class="node">
<title>http://purl.org/oseg/ontologies/OTRL#Odrl4</title>
<ellipse fill="none" stroke="#e377c2" cx="341.04" cy="-641.26" rx="40.11" ry="16.03"/>
<text text-anchor="middle" x="341.04" y="-637.56" font-family="Times,serif" font-size="14.00">Odrl4</text>
</g>
<!-- http://purl.org/oseg/ontologies/OTRL#Odrl4&#45;&gt;http://www.w3.org/2002/07/owl#class -->
<g id="edge23" class="edge">
<title>http://purl.org/oseg/ontologies/OTRL#Odrl4&#45;&gt;http://www.w3.org/2002/07/owl#class</title>
<path fill="none" stroke="black" d="M381.37,-639.76C407.07,-637.01 440.18,-629.94 464.08,-612.26 527.42,-565.43 552.54,-468.97 561.28,-422.47"/>
<polygon fill="black" stroke="black" points="564.73,-423.01 563.03,-412.56 557.84,-421.79 564.73,-423.01"/>
<text text-anchor="middle" x="486.58" y="-600.06" font-family="Times,serif" font-size="14.00">a</text>
</g>
<!-- http://purl.org/oseg/ontologies/OTRL#Odrl4&#45;&gt;http://purl.org/oseg/ontologies/OTRL#ODRL -->
<g id="edge6" class="edge">
<title>http://purl.org/oseg/ontologies/OTRL#Odrl4&#45;&gt;http://purl.org/oseg/ontologies/OTRL#ODRL</title>
<path fill="none" stroke="black" d="M378.42,-647.37C409.13,-651.16 453.91,-653.42 491.08,-642.26 509.46,-636.75 527.49,-625.05 541.18,-614.46"/>
<polygon fill="black" stroke="black" points="543.52,-617.08 549.11,-608.08 539.13,-611.62 543.52,-617.08"/>
</g>
<!-- http://purl.org/oseg/ontologies/OTRL#exitCriteria -->
<g id="node18" class="node">
<title>http://purl.org/oseg/ontologies/OTRL#exitCriteria</title>
<ellipse fill="none" stroke="#e377c2" cx="70" cy="-26.26" rx="70.01" ry="16.03"/>
<text text-anchor="middle" x="70" y="-22.56" font-family="Times,serif" font-size="14.00">exitCriteria</text>
</g>
<!-- http://purl.org/oseg/ontologies/OTRL#exitCriteria&#45;&gt;http://www.w3.org/2002/07/owl#DatatypeProperty -->
<g id="edge24" class="edge">
<title>http://purl.org/oseg/ontologies/OTRL#exitCriteria&#45;&gt;http://www.w3.org/2002/07/owl#DatatypeProperty</title>
<path fill="none" stroke="black" d="M129.17,-34.99C151.35,-38.4 176.87,-42.41 200.01,-46.26 218.88,-49.41 239.16,-52.94 258.27,-56.34"/>
<polygon fill="black" stroke="black" points="257.68,-59.79 268.14,-58.1 258.91,-52.9 257.68,-59.79"/>
<text text-anchor="middle" x="179.01" y="-50.06" font-family="Times,serif" font-size="14.00">a</text>
</g>
<!-- http://purl.org/oseg/ontologies/OTRL#exitCriteria&#45;&gt;http://schema.org/Text -->
<g id="edge21" class="edge">
<title>http://purl.org/oseg/ontologies/OTRL#exitCriteria&#45;&gt;http://schema.org/Text</title>
<path fill="none" stroke="black" d="M119.05,-14.5C131.65,-11.92 145.27,-9.57 158.01,-8.26 192.65,-4.72 231.16,-5.7 263.81,-7.97"/>
<polygon fill="black" stroke="black" points="263.95,-11.49 274.19,-8.75 264.48,-4.51 263.95,-11.49"/>
<text text-anchor="middle" x="179.01" y="-12.06" font-family="Times,serif" font-size="14.00">range</text>
</g>
<!-- http://purl.org/oseg/ontologies/OTRL#Otrl1 -->
<g id="node19" class="node">
<title>http://purl.org/oseg/ontologies/OTRL#Otrl1</title>
<ellipse fill="none" stroke="#e377c2" cx="70" cy="-493.26" rx="38.37" ry="16.03"/>
<text text-anchor="middle" x="70" y="-489.56" font-family="Times,serif" font-size="14.00">Otrl1</text>
</g>
<!-- http://purl.org/oseg/ontologies/OTRL#Otrl1&#45;&gt;http://purl.org/oseg/ontologies/OTRL#OTRL -->
<g id="edge20" class="edge">
<title>http://purl.org/oseg/ontologies/OTRL#Otrl1&#45;&gt;http://purl.org/oseg/ontologies/OTRL#OTRL</title>
<path fill="none" stroke="black" d="M82.95,-477.95C105.93,-449.58 159.23,-388.9 218.01,-357.26 240.93,-344.92 269.01,-337.57 292.44,-333.23"/>
<polygon fill="black" stroke="black" points="293.25,-336.65 302.51,-331.5 292.06,-329.75 293.25,-336.65"/>
</g>
<!-- http://purl.org/oseg/ontologies/OTRL#Otrl1&#45;&gt;http://www.w3.org/2002/07/owl#class -->
<g id="edge10" class="edge">
<title>http://purl.org/oseg/ontologies/OTRL#Otrl1&#45;&gt;http://www.w3.org/2002/07/owl#class</title>
<path fill="none" stroke="black" d="M101.73,-502.55C170.2,-521.48 339.1,-558.4 464.08,-504.26 502.9,-487.45 533.67,-447.61 550.69,-421.31"/>
<polygon fill="black" stroke="black" points="553.78,-422.96 556.13,-412.63 547.85,-419.24 553.78,-422.96"/>
<text text-anchor="middle" x="341.04" y="-537.06" font-family="Times,serif" font-size="14.00">a</text>
</g>
<!-- http://purl.org/oseg/ontologies/OTRL#Odrl2 -->
<g id="node20" class="node">
<title>http://purl.org/oseg/ontologies/OTRL#Odrl2</title>
<ellipse fill="none" stroke="#e377c2" cx="341.04" cy="-479.26" rx="40.11" ry="16.03"/>
<text text-anchor="middle" x="341.04" y="-475.56" font-family="Times,serif" font-size="14.00">Odrl2</text>
</g>
<!-- http://purl.org/oseg/ontologies/OTRL#Odrl2&#45;&gt;http://www.w3.org/2002/07/owl#class -->
<g id="edge12" class="edge">
<title>http://purl.org/oseg/ontologies/OTRL#Odrl2&#45;&gt;http://www.w3.org/2002/07/owl#class</title>
<path fill="none" stroke="black" d="M379.45,-474.3C404.04,-470.31 436.62,-463.64 464.08,-453.26 489.12,-443.8 515.41,-428.84 534.93,-416.61"/>
<polygon fill="black" stroke="black" points="536.84,-419.55 543.39,-411.22 533.07,-413.64 536.84,-419.55"/>
<text text-anchor="middle" x="486.58" y="-449.06" font-family="Times,serif" font-size="14.00">a</text>
</g>
<!-- http://purl.org/oseg/ontologies/OTRL#Odrl2&#45;&gt;http://purl.org/oseg/ontologies/OTRL#ODRL -->
<g id="edge9" class="edge">
<title>http://purl.org/oseg/ontologies/OTRL#Odrl2&#45;&gt;http://purl.org/oseg/ontologies/OTRL#ODRL</title>
<path fill="none" stroke="black" d="M379.61,-484.01C404.55,-488.22 437.48,-495.86 464.08,-509.26 495.06,-524.87 524.92,-551.52 544.09,-570.61"/>
<polygon fill="black" stroke="black" points="541.63,-573.1 551.13,-577.78 546.62,-568.19 541.63,-573.1"/>
</g>
<!-- http://purl.org/oseg/ontologies/OTRL#Odrl1 -->
<g id="node21" class="node">
<title>http://purl.org/oseg/ontologies/OTRL#Odrl1</title>
<ellipse fill="none" stroke="#e377c2" cx="341.04" cy="-587.26" rx="40.11" ry="16.03"/>
<text text-anchor="middle" x="341.04" y="-583.56" font-family="Times,serif" font-size="14.00">Odrl1</text>
</g>
<!-- http://purl.org/oseg/ontologies/OTRL#Odrl1&#45;&gt;http://www.w3.org/2002/07/owl#class -->
<g id="edge27" class="edge">
<title>http://purl.org/oseg/ontologies/OTRL#Odrl1&#45;&gt;http://www.w3.org/2002/07/owl#class</title>
<path fill="none" stroke="black" d="M380.71,-583.89C413.48,-579.19 459.96,-567.99 491.08,-541.26 528.06,-509.5 548.91,-454.79 558.59,-422.42"/>
<polygon fill="black" stroke="black" points="561.97,-423.33 561.35,-412.75 555.24,-421.41 561.97,-423.33"/>
<text text-anchor="middle" x="486.58" y="-551.06" font-family="Times,serif" font-size="14.00">a</text>
</g>
<!-- http://purl.org/oseg/ontologies/OTRL#Odrl1&#45;&gt;http://purl.org/oseg/ontologies/OTRL#ODRL -->
<g id="edge11" class="edge">
<title>http://purl.org/oseg/ontologies/OTRL#Odrl1&#45;&gt;http://purl.org/oseg/ontologies/OTRL#ODRL</title>
<path fill="none" stroke="black" d="M381.45,-588.32C418.43,-589.32 473.93,-590.81 514.28,-591.89"/>
<polygon fill="black" stroke="black" points="514.36,-595.39 524.45,-592.16 514.55,-588.4 514.36,-595.39"/>
</g>
<!-- http://purl.org/oseg/ontologies/OTRL#Odrl3 -->
<g id="node22" class="node">
<title>http://purl.org/oseg/ontologies/OTRL#Odrl3</title>
<ellipse fill="none" stroke="#e377c2" cx="341.04" cy="-428.26" rx="40.11" ry="16.03"/>
<text text-anchor="middle" x="341.04" y="-424.56" font-family="Times,serif" font-size="14.00">Odrl3</text>
</g>
<!-- http://purl.org/oseg/ontologies/OTRL#Odrl3&#45;&gt;http://www.w3.org/2002/07/owl#class -->
<g id="edge8" class="edge">
<title>http://purl.org/oseg/ontologies/OTRL#Odrl3&#45;&gt;http://www.w3.org/2002/07/owl#class</title>
<path fill="none" stroke="black" d="M379.17,-422.94C413.36,-418.04 464.7,-410.69 504.81,-404.94"/>
<polygon fill="black" stroke="black" points="505.35,-408.4 514.75,-403.51 504.36,-401.47 505.35,-408.4"/>
<text text-anchor="middle" x="486.58" y="-412.06" font-family="Times,serif" font-size="14.00">a</text>
</g>
<!-- http://purl.org/oseg/ontologies/OTRL#Odrl3&#45;&gt;http://purl.org/oseg/ontologies/OTRL#ODRL -->
<g id="edge4" class="edge">
<title>http://purl.org/oseg/ontologies/OTRL#Odrl3&#45;&gt;http://purl.org/oseg/ontologies/OTRL#ODRL</title>
<path fill="none" stroke="black" d="M381.45,-426.73C413.79,-427.43 459.27,-433.08 491.08,-456.26 528.4,-483.47 548.98,-535.31 558.54,-566.83"/>
<polygon fill="black" stroke="black" points="555.25,-568.03 561.37,-576.68 561.98,-566.1 555.25,-568.03"/>
</g>
</g>
</svg>
