<?xml version="1.0" encoding="UTF-8" standalone="no"?>
<!DOCTYPE svg PUBLIC "-//W3C//DTD SVG 1.1//EN"
 "http://www.w3.org/Graphics/SVG/1.1/DTD/svg11.dtd">
<!-- Generated by graphviz version 2.43.0 (0)
 -->
<!-- Title: G Pages: 1 -->
<svg width="2198pt" height="1872pt"
 viewBox="0.00 0.00 2198.00 1872.00" xmlns="http://www.w3.org/2000/svg" xmlns:xlink="http://www.w3.org/1999/xlink">
<g id="graph0" class="graph" transform="scale(1 1) rotate(0) translate(4 1868)">
<title>G</title>
<polygon fill="white" stroke="transparent" points="-4,4 -4,-1868 2194,-1868 2194,4 -4,4"/>
<!-- https://w3id.org/oseg/ont/osh/otrl#OTRL -->
<g id="node1" class="node">
<title>https://w3id.org/oseg/ont/osh/otrl#OTRL</title>
<ellipse fill="none" stroke="#e377c2" cx="896.53" cy="-1220.09" rx="60.62" ry="16.03"/>
<text text-anchor="middle" x="896.53" y="-1216.39" font-family="Times,serif" font-size="14.00">otrl:OTRL</text>
</g>
<!-- https://w3id.org/oseg/ont/osh/otrl#ODRL1 -->
<g id="node2" class="node">
<title>https://w3id.org/oseg/ont/osh/otrl#ODRL1</title>
<ellipse fill="none" stroke="#e377c2" cx="1119" cy="-690.82" rx="69.09" ry="16.03"/>
<text text-anchor="middle" x="1119" y="-687.12" font-family="Times,serif" font-size="14.00">otrl:ODRL1</text>
</g>
<!-- https://w3id.org/oseg/ont/osh/otrl#ODRL -->
<g id="node5" class="node">
<title>https://w3id.org/oseg/ont/osh/otrl#ODRL</title>
<ellipse fill="none" stroke="#e377c2" cx="1273.7" cy="-691.05" rx="62.87" ry="16.03"/>
<text text-anchor="middle" x="1273.7" y="-687.35" font-family="Times,serif" font-size="14.00">otrl:ODRL</text>
</g>
<!-- https://w3id.org/oseg/ont/osh/otrl#ODRL1&#45;&gt;https://w3id.org/oseg/ont/osh/otrl#ODRL -->
<g id="edge39" class="edge">
<title>https://w3id.org/oseg/ont/osh/otrl#ODRL1&#45;&gt;https://w3id.org/oseg/ont/osh/otrl#ODRL</title>
<path fill="none" stroke="black" d="M1188.65,-690.93C1192.49,-690.93 1196.35,-690.94 1200.19,-690.94"/>
<polygon fill="black" stroke="black" points="1200.32,-694.44 1210.32,-690.96 1200.33,-687.44 1200.32,-694.44"/>
</g>
<!-- https://w3id.org/oseg/ont/osh/otrl#ODRL3 -->
<g id="node3" class="node">
<title>https://w3id.org/oseg/ont/osh/otrl#ODRL3</title>
<ellipse fill="none" stroke="#e377c2" cx="1193.61" cy="-426.59" rx="69.09" ry="16.03"/>
<text text-anchor="middle" x="1193.61" y="-422.89" font-family="Times,serif" font-size="14.00">otrl:ODRL3</text>
</g>
<!-- https://w3id.org/oseg/ont/osh/otrl#ODRL3&#45;&gt;https://w3id.org/oseg/ont/osh/otrl#ODRL -->
<g id="edge9" class="edge">
<title>https://w3id.org/oseg/ont/osh/otrl#ODRL3&#45;&gt;https://w3id.org/oseg/ont/osh/otrl#ODRL</title>
<path fill="none" stroke="black" d="M1198.62,-443.13C1212.1,-487.66 1249.25,-610.33 1265.69,-664.61"/>
<polygon fill="black" stroke="black" points="1262.44,-665.96 1268.69,-674.52 1269.14,-663.93 1262.44,-665.96"/>
</g>
<!-- https://w3id.org/oseg/ont/osh/otrl#OTRL4 -->
<g id="node4" class="node">
<title>https://w3id.org/oseg/ont/osh/otrl#OTRL4</title>
<ellipse fill="none" stroke="#e377c2" cx="1059.94" cy="-1220.82" rx="67.35" ry="16.03"/>
<text text-anchor="middle" x="1059.94" y="-1217.12" font-family="Times,serif" font-size="14.00">otrl:OTRL4</text>
</g>
<!-- https://w3id.org/oseg/ont/osh/otrl#OTRL4&#45;&gt;https://w3id.org/oseg/ont/osh/otrl#OTRL -->
<g id="edge31" class="edge">
<title>https://w3id.org/oseg/ont/osh/otrl#OTRL4&#45;&gt;https://w3id.org/oseg/ont/osh/otrl#OTRL</title>
<path fill="none" stroke="black" d="M992.54,-1220.52C984.29,-1220.48 975.83,-1220.45 967.53,-1220.41"/>
<polygon fill="black" stroke="black" points="967.52,-1216.91 957.51,-1220.36 967.49,-1223.91 967.52,-1216.91"/>
</g>
<!-- https://w3id.org/oseg/ont/osh/otrl#OTRL6 -->
<g id="node6" class="node">
<title>https://w3id.org/oseg/ont/osh/otrl#OTRL6</title>
<ellipse fill="none" stroke="#e377c2" cx="759.18" cy="-1457.44" rx="67.35" ry="16.03"/>
<text text-anchor="middle" x="759.18" y="-1453.74" font-family="Times,serif" font-size="14.00">otrl:OTRL6</text>
</g>
<!-- https://w3id.org/oseg/ont/osh/otrl#OTRL6&#45;&gt;https://w3id.org/oseg/ont/osh/otrl#OTRL -->
<g id="edge47" class="edge">
<title>https://w3id.org/oseg/ont/osh/otrl#OTRL6&#45;&gt;https://w3id.org/oseg/ont/osh/otrl#OTRL</title>
<path fill="none" stroke="black" d="M768.62,-1441.13C792.2,-1400.38 853.81,-1293.93 882.03,-1245.16"/>
<polygon fill="black" stroke="black" points="885.23,-1246.62 887.21,-1236.21 879.17,-1243.11 885.23,-1246.62"/>
</g>
<!-- https://w3id.org/oseg/ont/osh/otrl#OTRL2 -->
<g id="node7" class="node">
<title>https://w3id.org/oseg/ont/osh/otrl#OTRL2</title>
<ellipse fill="none" stroke="#e377c2" cx="630.44" cy="-1285.01" rx="67.35" ry="16.03"/>
<text text-anchor="middle" x="630.44" y="-1281.31" font-family="Times,serif" font-size="14.00">otrl:OTRL2</text>
</g>
<!-- https://w3id.org/oseg/ont/osh/otrl#OTRL2&#45;&gt;https://w3id.org/oseg/ont/osh/otrl#OTRL -->
<g id="edge6" class="edge">
<title>https://w3id.org/oseg/ont/osh/otrl#OTRL2&#45;&gt;https://w3id.org/oseg/ont/osh/otrl#OTRL</title>
<path fill="none" stroke="black" d="M678.01,-1273.4C723.93,-1262.2 793.4,-1245.25 841.63,-1233.49"/>
<polygon fill="black" stroke="black" points="842.7,-1236.83 851.59,-1231.06 841.05,-1230.03 842.7,-1236.83"/>
</g>
<!-- https://w3id.org/oseg/ont/osh/otrl#ODRL3Star -->
<g id="node8" class="node">
<title>https://w3id.org/oseg/ont/osh/otrl#ODRL3Star</title>
<ellipse fill="none" stroke="#e377c2" cx="1537.2" cy="-554.7" rx="90.52" ry="16.03"/>
<text text-anchor="middle" x="1537.2" y="-551" font-family="Times,serif" font-size="14.00">otrl:ODRL3Star</text>
</g>
<!-- https://w3id.org/oseg/ont/osh/otrl#ODRL3Star&#45;&gt;https://w3id.org/oseg/ont/osh/otrl#ODRL -->
<g id="edge14" class="edge">
<title>https://w3id.org/oseg/ont/osh/otrl#ODRL3Star&#45;&gt;https://w3id.org/oseg/ont/osh/otrl#ODRL</title>
<path fill="none" stroke="black" d="M1507.48,-570.07C1459.23,-595.04 1363.94,-644.35 1311.13,-671.68"/>
<polygon fill="black" stroke="black" points="1309.37,-668.65 1302.1,-676.35 1312.59,-674.86 1309.37,-668.65"/>
</g>
<!-- https://w3id.org/oseg/ont/osh/otrl#ODRL4 -->
<g id="node9" class="node">
<title>https://w3id.org/oseg/ont/osh/otrl#ODRL4</title>
<ellipse fill="none" stroke="#e377c2" cx="1521.86" cy="-771.7" rx="69.09" ry="16.03"/>
<text text-anchor="middle" x="1521.86" y="-768" font-family="Times,serif" font-size="14.00">otrl:ODRL4</text>
</g>
<!-- https://w3id.org/oseg/ont/osh/otrl#ODRL4&#45;&gt;https://w3id.org/oseg/ont/osh/otrl#ODRL -->
<g id="edge26" class="edge">
<title>https://w3id.org/oseg/ont/osh/otrl#ODRL4&#45;&gt;https://w3id.org/oseg/ont/osh/otrl#ODRL</title>
<path fill="none" stroke="black" d="M1481.16,-758.47C1437.77,-744.37 1369.06,-722.04 1322.72,-706.98"/>
<polygon fill="black" stroke="black" points="1323.78,-703.65 1313.19,-703.89 1321.62,-710.31 1323.78,-703.65"/>
</g>
<!-- https://w3id.org/oseg/ont/osh/otrl#ODRL2 -->
<g id="node10" class="node">
<title>https://w3id.org/oseg/ont/osh/otrl#ODRL2</title>
<ellipse fill="none" stroke="#e377c2" cx="1407.83" cy="-456.16" rx="69.09" ry="16.03"/>
<text text-anchor="middle" x="1407.83" y="-452.46" font-family="Times,serif" font-size="14.00">otrl:ODRL2</text>
</g>
<!-- https://w3id.org/oseg/ont/osh/otrl#ODRL2&#45;&gt;https://w3id.org/oseg/ont/osh/otrl#ODRL -->
<g id="edge46" class="edge">
<title>https://w3id.org/oseg/ont/osh/otrl#ODRL2&#45;&gt;https://w3id.org/oseg/ont/osh/otrl#ODRL</title>
<path fill="none" stroke="black" d="M1398.61,-472.31C1375.63,-512.53 1315.71,-617.47 1288.06,-665.9"/>
<polygon fill="black" stroke="black" points="1284.9,-664.37 1282.98,-674.79 1290.98,-667.85 1284.9,-664.37"/>
</g>
<!-- https://w3id.org/oseg/ont/osh/otrl#OTRL5 -->
<g id="node11" class="node">
<title>https://w3id.org/oseg/ont/osh/otrl#OTRL5</title>
<ellipse fill="none" stroke="#e377c2" cx="719.71" cy="-1143.26" rx="67.35" ry="16.03"/>
<text text-anchor="middle" x="719.71" y="-1139.56" font-family="Times,serif" font-size="14.00">otrl:OTRL5</text>
</g>
<!-- https://w3id.org/oseg/ont/osh/otrl#OTRL5&#45;&gt;https://w3id.org/oseg/ont/osh/otrl#OTRL -->
<g id="edge13" class="edge">
<title>https://w3id.org/oseg/ont/osh/otrl#OTRL5&#45;&gt;https://w3id.org/oseg/ont/osh/otrl#OTRL</title>
<path fill="none" stroke="black" d="M752.56,-1157.53C781.52,-1170.12 823.86,-1188.52 855.14,-1202.11"/>
<polygon fill="black" stroke="black" points="853.9,-1205.38 864.46,-1206.16 856.69,-1198.96 853.9,-1205.38"/>
</g>
<!-- https://w3id.org/oseg/ont/osh/otrl#OTRL1 -->
<g id="node12" class="node">
<title>https://w3id.org/oseg/ont/osh/otrl#OTRL1</title>
<ellipse fill="none" stroke="#e377c2" cx="1046.85" cy="-1464.42" rx="67.35" ry="16.03"/>
<text text-anchor="middle" x="1046.85" y="-1460.72" font-family="Times,serif" font-size="14.00">otrl:OTRL1</text>
</g>
<!-- https://w3id.org/oseg/ont/osh/otrl#OTRL1&#45;&gt;https://w3id.org/oseg/ont/osh/otrl#OTRL -->
<g id="edge41" class="edge">
<title>https://w3id.org/oseg/ont/osh/otrl#OTRL1&#45;&gt;https://w3id.org/oseg/ont/osh/otrl#OTRL</title>
<path fill="none" stroke="black" d="M1036.76,-1448.01C1010.98,-1406.11 942.6,-1294.96 911.87,-1245.02"/>
<polygon fill="black" stroke="black" points="914.81,-1243.12 906.59,-1236.43 908.85,-1246.78 914.81,-1243.12"/>
</g>
<!-- https://w3id.org/oseg/ont/osh/otrl#OTRL3 -->
<g id="node13" class="node">
<title>https://w3id.org/oseg/ont/osh/otrl#OTRL3</title>
<ellipse fill="none" stroke="#e377c2" cx="903.07" cy="-1466.65" rx="67.35" ry="16.03"/>
<text text-anchor="middle" x="903.07" y="-1462.95" font-family="Times,serif" font-size="14.00">otrl:OTRL3</text>
</g>
<!-- https://w3id.org/oseg/ont/osh/otrl#OTRL3&#45;&gt;https://w3id.org/oseg/ont/osh/otrl#OTRL -->
<g id="edge16" class="edge">
<title>https://w3id.org/oseg/ont/osh/otrl#OTRL3&#45;&gt;https://w3id.org/oseg/ont/osh/otrl#OTRL</title>
<path fill="none" stroke="black" d="M902.64,-1450.09C901.53,-1408.24 898.6,-1297.96 897.24,-1246.83"/>
<polygon fill="black" stroke="black" points="900.74,-1246.48 896.97,-1236.58 893.74,-1246.67 900.74,-1246.48"/>
</g>
<!-- https://w3id.org/oseg/ont/osh/otrl -->
<g id="node14" class="node">
<title>https://w3id.org/oseg/ont/osh/otrl</title>
<ellipse fill="none" stroke="#e377c2" cx="1601.32" cy="-1278.47" rx="50.82" ry="16.03"/>
<text text-anchor="middle" x="1601.32" y="-1274.77" font-family="Times,serif" font-size="14.00">ns1:otrl</text>
</g>
<!-- https://w3id.org/oseg/ont/osh/otrl&#45;&gt;https://w3id.org/oseg/ont/osh/otrl -->
<g id="edge2" class="edge">
<title>https://w3id.org/oseg/ont/osh/otrl&#45;&gt;https://w3id.org/oseg/ont/osh/otrl</title>
<path fill="none" stroke="black" d="M1648.02,-1285.17C1660.63,-1284.82 1670.23,-1282.59 1670.23,-1278.47 1670.23,-1275.58 1665.48,-1273.62 1658.28,-1272.58"/>
<polygon fill="black" stroke="black" points="1658.26,-1269.07 1648.02,-1271.77 1657.71,-1276.05 1658.26,-1269.07"/>
<text text-anchor="middle" x="1721.73" y="-1274.77" font-family="Times,serif" font-size="14.00">owl:versionIRI</text>
</g>
<!-- https://www.gnu.org/licenses/gpl&#45;3.0.txt -->
<g id="node19" class="node">
<title>https://www.gnu.org/licenses/gpl&#45;3.0.txt</title>
<ellipse fill="none" stroke="#e377c2" cx="1748.95" cy="-1256.42" rx="85.62" ry="16.03"/>
<text text-anchor="middle" x="1748.95" y="-1252.72" font-family="Times,serif" font-size="14.00">ns2:gpl&#45;3.0.txt</text>
</g>
<!-- https://w3id.org/oseg/ont/osh/otrl&#45;&gt;https://www.gnu.org/licenses/gpl&#45;3.0.txt -->
<g id="edge29" class="edge">
<title>https://w3id.org/oseg/ont/osh/otrl&#45;&gt;https://www.gnu.org/licenses/gpl&#45;3.0.txt</title>
<path fill="none" stroke="black" d="M1652.25,-1277.36C1664.84,-1275.84 1678.42,-1273.87 1691.31,-1271.72"/>
<polygon fill="black" stroke="black" points="1692.21,-1275.12 1701.46,-1269.96 1691.01,-1268.22 1692.21,-1275.12"/>
<text text-anchor="middle" x="1706.78" y="-1278.34" font-family="Times,serif" font-size="14.00">cc:license</text>
</g>
<!-- https://w3id.org/oseg/ont/osh/otrl&#45;&gt;https://www.gnu.org/licenses/gpl&#45;3.0.txt -->
<g id="edge42" class="edge">
<title>https://w3id.org/oseg/ont/osh/otrl&#45;&gt;https://www.gnu.org/licenses/gpl&#45;3.0.txt</title>
<path fill="none" stroke="black" d="M1637.69,-1267.02C1643.9,-1265.79 1650.6,-1264.57 1657.51,-1263.41"/>
<polygon fill="black" stroke="black" points="1658.45,-1266.8 1667.76,-1261.74 1657.33,-1259.89 1658.45,-1266.8"/>
<text text-anchor="middle" x="1591.1" y="-1254.01" font-family="Times,serif" font-size="14.00">dcterms:license</text>
</g>
<!-- https://w3id.org/oseg/ont/osh/otrl#goal -->
<g id="node15" class="node">
<title>https://w3id.org/oseg/ont/osh/otrl#goal</title>
<ellipse fill="none" stroke="#e377c2" cx="1101.64" cy="-968.21" rx="54.39" ry="16.03"/>
<text text-anchor="middle" x="1101.64" y="-964.51" font-family="Times,serif" font-size="14.00">otrl:goal</text>
</g>
<!-- https://w3id.org/oseg/ont/osh/otrl#goal&#45;&gt;https://w3id.org/oseg/ont/osh/otrl#OTRL -->
<g id="edge43" class="edge">
<title>https://w3id.org/oseg/ont/osh/otrl#goal&#45;&gt;https://w3id.org/oseg/ont/osh/otrl#OTRL</title>
<path fill="none" stroke="black" d="M1088.49,-984.35C1053.4,-1027.44 957.36,-1145.39 915.95,-1196.24"/>
<polygon fill="black" stroke="black" points="913.17,-1194.12 909.57,-1204.09 918.6,-1198.54 913.17,-1194.12"/>
<text text-anchor="middle" x="1088.22" y="-1094.1" font-family="Times,serif" font-size="14.00">schema:domainIncludes</text>
</g>
<!-- https://w3id.org/oseg/ont/osh/otrl#goal&#45;&gt;https://w3id.org/oseg/ont/osh/otrl#ODRL -->
<g id="edge34" class="edge">
<title>https://w3id.org/oseg/ont/osh/otrl#goal&#45;&gt;https://w3id.org/oseg/ont/osh/otrl#ODRL</title>
<path fill="none" stroke="black" d="M1111.63,-952.11C1140.44,-905.71 1223.78,-771.46 1258.37,-715.74"/>
<polygon fill="black" stroke="black" points="1261.37,-717.54 1263.67,-707.2 1255.43,-713.85 1261.37,-717.54"/>
<text text-anchor="middle" x="1099" y="-837.73" font-family="Times,serif" font-size="14.00">schema:domainIncludes</text>
</g>
<!-- http://schema.org/Text -->
<g id="node17" class="node">
<title>http://schema.org/Text</title>
<ellipse fill="none" stroke="#e377c2" cx="913.71" cy="-840.01" rx="74.91" ry="16.03"/>
<text text-anchor="middle" x="913.71" y="-836.31" font-family="Times,serif" font-size="14.00">schema:Text</text>
</g>
<!-- https://w3id.org/oseg/ont/osh/otrl#goal&#45;&gt;http://schema.org/Text -->
<g id="edge35" class="edge">
<title>https://w3id.org/oseg/ont/osh/otrl#goal&#45;&gt;http://schema.org/Text</title>
<path fill="none" stroke="black" d="M1079.71,-953.25C1046.54,-930.63 983.45,-887.59 945.33,-861.58"/>
<polygon fill="black" stroke="black" points="946.9,-858.41 936.66,-855.67 942.95,-864.2 946.9,-858.41"/>
<text text-anchor="middle" x="991.52" y="-896.21" font-family="Times,serif" font-size="14.00">range</text>
</g>
<!-- https://w3id.org/oseg/ont/osh/otrl#exitCriteria -->
<g id="node16" class="node">
<title>https://w3id.org/oseg/ont/osh/otrl#exitCriteria</title>
<ellipse fill="none" stroke="#e377c2" cx="1041.6" cy="-927.63" rx="91.43" ry="16.03"/>
<text text-anchor="middle" x="1041.6" y="-923.93" font-family="Times,serif" font-size="14.00">otrl:exitCriteria</text>
</g>
<!-- https://w3id.org/oseg/ont/osh/otrl#exitCriteria&#45;&gt;https://w3id.org/oseg/ont/osh/otrl#OTRL -->
<g id="edge40" class="edge">
<title>https://w3id.org/oseg/ont/osh/otrl#exitCriteria&#45;&gt;https://w3id.org/oseg/ont/osh/otrl#OTRL</title>
<path fill="none" stroke="black" d="M1033.39,-944.19C1009.25,-992.85 938.42,-1135.65 909.28,-1194.39"/>
<polygon fill="black" stroke="black" points="905.97,-1193.2 904.66,-1203.71 912.24,-1196.31 905.97,-1193.2"/>
<text text-anchor="middle" x="885.33" y="-1073.09" font-family="Times,serif" font-size="14.00">schema:domainIncludes</text>
</g>
<!-- https://w3id.org/oseg/ont/osh/otrl#exitCriteria&#45;&gt;https://w3id.org/oseg/ont/osh/otrl#ODRL -->
<g id="edge11" class="edge">
<title>https://w3id.org/oseg/ont/osh/otrl#exitCriteria&#45;&gt;https://w3id.org/oseg/ont/osh/otrl#ODRL</title>
<path fill="none" stroke="black" d="M1057.56,-911.36C1097.82,-870.33 1203.67,-762.43 1250.66,-714.53"/>
<polygon fill="black" stroke="black" points="1253.43,-716.7 1257.94,-707.11 1248.44,-711.8 1253.43,-716.7"/>
<text text-anchor="middle" x="1068.11" y="-801.75" font-family="Times,serif" font-size="14.00">schema:domainIncludes</text>
</g>
<!-- https://w3id.org/oseg/ont/osh/otrl#exitCriteria&#45;&gt;http://schema.org/Text -->
<g id="edge15" class="edge">
<title>https://w3id.org/oseg/ont/osh/otrl#exitCriteria&#45;&gt;http://schema.org/Text</title>
<path fill="none" stroke="black" d="M1018.44,-911.76C997.89,-897.68 967.69,-876.99 944.99,-861.44"/>
<polygon fill="black" stroke="black" points="946.92,-858.52 936.7,-855.76 942.97,-864.3 946.92,-858.52"/>
<text text-anchor="middle" x="960.72" y="-875.4" font-family="Times,serif" font-size="14.00">range</text>
</g>
<!-- https://w3id.org/oseg/ont/osh/otrl#Odrl4 -->
<g id="node18" class="node">
<title>https://w3id.org/oseg/ont/osh/otrl#Odrl4</title>
<ellipse fill="none" stroke="#e377c2" cx="1734.5" cy="-880.65" rx="61.54" ry="16.03"/>
<text text-anchor="middle" x="1734.5" y="-876.95" font-family="Times,serif" font-size="14.00">otrl:Odrl4</text>
</g>
<!-- https://w3id.org/oseg/ont/osh/otrl#Odrl4&#45;&gt;https://w3id.org/oseg/ont/osh/otrl#ODRL4 -->
<g id="edge8" class="edge">
<title>https://w3id.org/oseg/ont/osh/otrl#Odrl4&#45;&gt;https://w3id.org/oseg/ont/osh/otrl#ODRL4</title>
<path fill="none" stroke="black" d="M1713.74,-865.1C1680.45,-845.04 1614.41,-810.73 1569.18,-789.63"/>
<polygon fill="black" stroke="black" points="1570.41,-786.34 1559.86,-785.33 1567.48,-792.7 1570.41,-786.34"/>
<text text-anchor="middle" x="1598.96" y="-816.16" font-family="Times,serif" font-size="14.00">owl:sameAs</text>
</g>
<!-- https://w3id.org/oseg/ont/osh/otrl#Odrl4&#45;&gt;https://w3id.org/oseg/ont/osh/otrl#ODRL4 -->
<g id="edge27" class="edge">
<title>https://w3id.org/oseg/ont/osh/otrl#Odrl4&#45;&gt;https://w3id.org/oseg/ont/osh/otrl#ODRL4</title>
<path fill="none" stroke="black" d="M1697.52,-867.48C1656.16,-848.75 1590.03,-814.82 1551.79,-792.66"/>
<polygon fill="black" stroke="black" points="1553.09,-789.36 1542.7,-787.29 1549.53,-795.39 1553.09,-789.36"/>
<text text-anchor="middle" x="1544.65" y="-833.87" font-family="Times,serif" font-size="14.00">schema:supersededBy</text>
</g>
<!-- https://w3id.org/oseg/ont/osh/otrl#Otrl3 -->
<g id="node20" class="node">
<title>https://w3id.org/oseg/ont/osh/otrl#Otrl3</title>
<ellipse fill="none" stroke="black" cx="895.21" cy="-1510.5" rx="215.84" ry="16.03"/>
<text text-anchor="middle" x="895.21" y="-1506.8" font-family="Times,serif" font-size="14.00">https://w3id.org/oseg/ont/osh/otrl#Otrl3</text>
</g>
<!-- https://w3id.org/oseg/ont/osh/otrl#Otrl3&#45;&gt;https://w3id.org/oseg/ont/osh/otrl#OTRL3 -->
<g id="edge1" class="edge">
<title>https://w3id.org/oseg/ont/osh/otrl#Otrl3&#45;&gt;https://w3id.org/oseg/ont/osh/otrl#OTRL3</title>
<path fill="none" stroke="black" d="M904.95,-1493.84C905.03,-1493.5 905.1,-1493.17 905.18,-1492.83"/>
<polygon fill="black" stroke="black" points="908.64,-1493.36 906.71,-1482.94 901.72,-1492.29 908.64,-1493.36"/>
<text text-anchor="middle" x="862.56" y="-1482.13" font-family="Times,serif" font-size="14.00">owl:sameAs</text>
</g>
<!-- https://w3id.org/oseg/ont/osh/otrl#Otrl3&#45;&gt;https://w3id.org/oseg/ont/osh/otrl#OTRL3 -->
<g id="edge37" class="edge">
<title>https://w3id.org/oseg/ont/osh/otrl#Otrl3&#45;&gt;https://w3id.org/oseg/ont/osh/otrl#OTRL3</title>
<path fill="none" stroke="black" d="M891.59,-1494.02C891.62,-1493.68 891.65,-1493.34 891.69,-1493"/>
<polygon fill="black" stroke="black" points="895.17,-1493.43 893.41,-1482.98 888.27,-1492.25 895.17,-1493.43"/>
<text text-anchor="middle" x="971.64" y="-1482.31" font-family="Times,serif" font-size="14.00">schema:supersededBy</text>
</g>
<!-- https://w3id.org/oseg/ont/osh/otrl#Odrl3 -->
<g id="node21" class="node">
<title>https://w3id.org/oseg/ont/osh/otrl#Odrl3</title>
<ellipse fill="none" stroke="black" cx="1085.55" cy="-16.58" rx="217.58" ry="16.03"/>
<text text-anchor="middle" x="1085.55" y="-12.88" font-family="Times,serif" font-size="14.00">https://w3id.org/oseg/ont/osh/otrl#Odrl3</text>
</g>
<!-- https://w3id.org/oseg/ont/osh/otrl#Odrl3&#45;&gt;https://w3id.org/oseg/ont/osh/otrl#ODRL3 -->
<g id="edge3" class="edge">
<title>https://w3id.org/oseg/ont/osh/otrl#Odrl3&#45;&gt;https://w3id.org/oseg/ont/osh/otrl#ODRL3</title>
<path fill="none" stroke="black" d="M1086.96,-32.87C1098.35,-95.75 1157.97,-322.99 1183.04,-400.49"/>
<polygon fill="black" stroke="black" points="1179.86,-402.02 1186.34,-410.4 1186.5,-399.81 1179.86,-402.02"/>
<text text-anchor="middle" x="1055" y="-220.48" font-family="Times,serif" font-size="14.00">schema:supersededBy</text>
</g>
<!-- https://w3id.org/oseg/ont/osh/otrl#Odrl3&#45;&gt;https://w3id.org/oseg/ont/osh/otrl#ODRL3 -->
<g id="edge20" class="edge">
<title>https://w3id.org/oseg/ont/osh/otrl#Odrl3&#45;&gt;https://w3id.org/oseg/ont/osh/otrl#ODRL3</title>
<path fill="none" stroke="black" d="M1092.88,-32.94C1114.53,-95.81 1174.39,-322.21 1190.22,-400.08"/>
<polygon fill="black" stroke="black" points="1186.82,-400.9 1192.16,-410.05 1193.69,-399.56 1186.82,-400.9"/>
<text text-anchor="middle" x="1099.05" y="-205.31" font-family="Times,serif" font-size="14.00">owl:sameAs</text>
</g>
<!-- https://w3id.org/oseg/ont/osh/otrl#Otrl5 -->
<g id="node22" class="node">
<title>https://w3id.org/oseg/ont/osh/otrl#Otrl5</title>
<ellipse fill="none" stroke="black" cx="617.7" cy="-1100.59" rx="215.84" ry="16.03"/>
<text text-anchor="middle" x="617.7" y="-1096.89" font-family="Times,serif" font-size="14.00">https://w3id.org/oseg/ont/osh/otrl#Otrl5</text>
</g>
<!-- https://w3id.org/oseg/ont/osh/otrl#Otrl5&#45;&gt;https://w3id.org/oseg/ont/osh/otrl#OTRL5 -->
<g id="edge4" class="edge">
<title>https://w3id.org/oseg/ont/osh/otrl#Otrl5&#45;&gt;https://w3id.org/oseg/ont/osh/otrl#OTRL5</title>
<path fill="none" stroke="black" d="M641.14,-1116.85C648.24,-1120.36 656.35,-1124.04 664.61,-1127.52"/>
<polygon fill="black" stroke="black" points="663.36,-1130.79 673.94,-1131.35 666.02,-1124.32 663.36,-1130.79"/>
<text text-anchor="middle" x="572.88" y="-1125.99" font-family="Times,serif" font-size="14.00">schema:supersededBy</text>
</g>
<!-- https://w3id.org/oseg/ont/osh/otrl#Otrl5&#45;&gt;https://w3id.org/oseg/ont/osh/otrl#OTRL5 -->
<g id="edge25" class="edge">
<title>https://w3id.org/oseg/ont/osh/otrl#Otrl5&#45;&gt;https://w3id.org/oseg/ont/osh/otrl#OTRL5</title>
<path fill="none" stroke="black" d="M672.8,-1116.33C678.15,-1118.58 683.44,-1120.92 688.43,-1123.24"/>
<polygon fill="black" stroke="black" points="687.07,-1126.47 697.6,-1127.66 690.11,-1120.17 687.07,-1126.47"/>
<text text-anchor="middle" x="723.12" y="-1123.58" font-family="Times,serif" font-size="14.00">owl:sameAs</text>
</g>
<!-- https://w3id.org/oseg/ont/osh/otrl#Otrl -->
<g id="node23" class="node">
<title>https://w3id.org/oseg/ont/osh/otrl#Otrl</title>
<ellipse fill="none" stroke="black" cx="524.75" cy="-1412.76" rx="209.11" ry="16.03"/>
<text text-anchor="middle" x="524.75" y="-1409.06" font-family="Times,serif" font-size="14.00">https://w3id.org/oseg/ont/osh/otrl#Otrl</text>
</g>
<!-- https://w3id.org/oseg/ont/osh/otrl#Otrl&#45;&gt;https://w3id.org/oseg/ont/osh/otrl#OTRL -->
<g id="edge5" class="edge">
<title>https://w3id.org/oseg/ont/osh/otrl#Otrl&#45;&gt;https://w3id.org/oseg/ont/osh/otrl#OTRL</title>
<path fill="none" stroke="black" d="M565.12,-1396.69C640.02,-1361.65 798.87,-1279.22 865.8,-1240.55"/>
<polygon fill="black" stroke="black" points="867.76,-1243.47 874.62,-1235.4 864.22,-1237.42 867.76,-1243.47"/>
<text text-anchor="middle" x="672.96" y="-1322.42" font-family="Times,serif" font-size="14.00">owl:sameAs</text>
</g>
<!-- https://w3id.org/oseg/ont/osh/otrl#Otrl&#45;&gt;https://w3id.org/oseg/ont/osh/otrl#OTRL -->
<g id="edge7" class="edge">
<title>https://w3id.org/oseg/ont/osh/otrl#Otrl&#45;&gt;https://w3id.org/oseg/ont/osh/otrl#OTRL</title>
<path fill="none" stroke="black" d="M548.35,-1396.46C609.47,-1360.42 773.46,-1275.12 852.62,-1237.82"/>
<polygon fill="black" stroke="black" points="854.26,-1240.92 861.85,-1233.52 851.3,-1234.58 854.26,-1240.92"/>
<text text-anchor="middle" x="620.49" y="-1305.94" font-family="Times,serif" font-size="14.00">schema:supersededBy</text>
</g>
<!-- https://w3id.org/oseg/ont/osh/otrl#Odrl -->
<g id="node24" class="node">
<title>https://w3id.org/oseg/ont/osh/otrl#Odrl</title>
<ellipse fill="none" stroke="black" cx="1318.93" cy="-285.77" rx="211.35" ry="16.03"/>
<text text-anchor="middle" x="1318.93" y="-282.07" font-family="Times,serif" font-size="14.00">https://w3id.org/oseg/ont/osh/otrl#Odrl</text>
</g>
<!-- https://w3id.org/oseg/ont/osh/otrl#Odrl&#45;&gt;https://w3id.org/oseg/ont/osh/otrl#ODRL -->
<g id="edge10" class="edge">
<title>https://w3id.org/oseg/ont/osh/otrl#Odrl&#45;&gt;https://w3id.org/oseg/ont/osh/otrl#ODRL</title>
<path fill="none" stroke="black" d="M1314.2,-302.09C1302.31,-364.3 1277.25,-586.88 1273.11,-664.29"/>
<polygon fill="black" stroke="black" points="1269.6,-664.48 1272.66,-674.62 1276.6,-664.78 1269.6,-664.48"/>
<text text-anchor="middle" x="1251.16" y="-486.99" font-family="Times,serif" font-size="14.00">owl:sameAs</text>
</g>
<!-- https://w3id.org/oseg/ont/osh/otrl#Odrl&#45;&gt;https://w3id.org/oseg/ont/osh/otrl#ODRL -->
<g id="edge44" class="edge">
<title>https://w3id.org/oseg/ont/osh/otrl#Odrl&#45;&gt;https://w3id.org/oseg/ont/osh/otrl#ODRL</title>
<path fill="none" stroke="black" d="M1319.97,-302.22C1317.97,-364.65 1293.37,-587.23 1280.27,-664.44"/>
<polygon fill="black" stroke="black" points="1276.74,-664.28 1278.43,-674.74 1283.63,-665.52 1276.74,-664.28"/>
<text text-anchor="middle" x="1380.12" y="-487.13" font-family="Times,serif" font-size="14.00">schema:supersededBy</text>
</g>
<!-- https://w3id.org/oseg/ont/osh/otrl#Odrl2 -->
<g id="node25" class="node">
<title>https://w3id.org/oseg/ont/osh/otrl#Odrl2</title>
<ellipse fill="none" stroke="black" cx="1613.8" cy="-85.82" rx="217.58" ry="16.03"/>
<text text-anchor="middle" x="1613.8" y="-82.12" font-family="Times,serif" font-size="14.00">https://w3id.org/oseg/ont/osh/otrl#Odrl2</text>
</g>
<!-- https://w3id.org/oseg/ont/osh/otrl#Odrl2&#45;&gt;https://w3id.org/oseg/ont/osh/otrl#ODRL2 -->
<g id="edge12" class="edge">
<title>https://w3id.org/oseg/ont/osh/otrl#Odrl2&#45;&gt;https://w3id.org/oseg/ont/osh/otrl#ODRL2</title>
<path fill="none" stroke="black" d="M1601.15,-102.17C1563.27,-160.6 1452.74,-359.03 1418.11,-430.38"/>
<polygon fill="black" stroke="black" points="1414.87,-429.04 1413.74,-439.58 1421.19,-432.04 1414.87,-429.04"/>
<text text-anchor="middle" x="1467.13" y="-255.07" font-family="Times,serif" font-size="14.00">owl:sameAs</text>
</g>
<!-- https://w3id.org/oseg/ont/osh/otrl#Odrl2&#45;&gt;https://w3id.org/oseg/ont/osh/otrl#ODRL2 -->
<g id="edge17" class="edge">
<title>https://w3id.org/oseg/ont/osh/otrl#Odrl2&#45;&gt;https://w3id.org/oseg/ont/osh/otrl#ODRL2</title>
<path fill="none" stroke="black" d="M1607.99,-102.19C1580.91,-160.9 1470.1,-360.7 1425.91,-431.27"/>
<polygon fill="black" stroke="black" points="1422.79,-429.65 1420.38,-439.97 1428.7,-433.41 1422.79,-429.65"/>
<text text-anchor="middle" x="1596.95" y="-255.53" font-family="Times,serif" font-size="14.00">schema:supersededBy</text>
</g>
<!-- https://w3id.org/oseg/ont/osh/otrl#Otrl1 -->
<g id="node26" class="node">
<title>https://w3id.org/oseg/ont/osh/otrl#Otrl1</title>
<ellipse fill="none" stroke="black" cx="1194.78" cy="-1847.25" rx="215.84" ry="16.03"/>
<text text-anchor="middle" x="1194.78" y="-1843.55" font-family="Times,serif" font-size="14.00">https://w3id.org/oseg/ont/osh/otrl#Otrl1</text>
</g>
<!-- https://w3id.org/oseg/ont/osh/otrl#Otrl1&#45;&gt;https://w3id.org/oseg/ont/osh/otrl#OTRL1 -->
<g id="edge18" class="edge">
<title>https://w3id.org/oseg/ont/osh/otrl#Otrl1&#45;&gt;https://w3id.org/oseg/ont/osh/otrl#OTRL1</title>
<path fill="none" stroke="black" d="M1191.48,-1830.73C1173.48,-1770.59 1093.62,-1563.19 1060.72,-1490.12"/>
<polygon fill="black" stroke="black" points="1063.76,-1488.36 1056.4,-1480.73 1057.4,-1491.28 1063.76,-1488.36"/>
<text text-anchor="middle" x="1046.1" y="-1649.23" font-family="Times,serif" font-size="14.00">schema:supersededBy</text>
</g>
<!-- https://w3id.org/oseg/ont/osh/otrl#Otrl1&#45;&gt;https://w3id.org/oseg/ont/osh/otrl#OTRL1 -->
<g id="edge48" class="edge">
<title>https://w3id.org/oseg/ont/osh/otrl#Otrl1&#45;&gt;https://w3id.org/oseg/ont/osh/otrl#OTRL1</title>
<path fill="none" stroke="black" d="M1185.21,-1830.9C1157,-1771.13 1076.93,-1564.41 1053.21,-1490.74"/>
<polygon fill="black" stroke="black" points="1056.45,-1489.37 1050.13,-1480.86 1049.77,-1491.45 1056.45,-1489.37"/>
<text text-anchor="middle" x="1076.71" y="-1664.62" font-family="Times,serif" font-size="14.00">owl:sameAs</text>
</g>
<!-- https://w3id.org/oseg/ont/osh/otrl#Otrl4 -->
<g id="node27" class="node">
<title>https://w3id.org/oseg/ont/osh/otrl#Otrl4</title>
<ellipse fill="none" stroke="black" cx="1107.84" cy="-1262.53" rx="215.84" ry="16.03"/>
<text text-anchor="middle" x="1107.84" y="-1258.83" font-family="Times,serif" font-size="14.00">https://w3id.org/oseg/ont/osh/otrl#Otrl4</text>
</g>
<!-- https://w3id.org/oseg/ont/osh/otrl#Otrl4&#45;&gt;https://w3id.org/oseg/ont/osh/otrl#OTRL4 -->
<g id="edge19" class="edge">
<title>https://w3id.org/oseg/ont/osh/otrl#Otrl4&#45;&gt;https://w3id.org/oseg/ont/osh/otrl#OTRL4</title>
<path fill="none" stroke="black" d="M1098.29,-1246.04C1097.17,-1244.87 1095.99,-1243.68 1094.76,-1242.49"/>
<polygon fill="black" stroke="black" points="1097.09,-1239.88 1087.34,-1235.73 1092.37,-1245.05 1097.09,-1239.88"/>
<text text-anchor="middle" x="1139.02" y="-1233.07" font-family="Times,serif" font-size="14.00">owl:sameAs</text>
</g>
<!-- https://w3id.org/oseg/ont/osh/otrl#Otrl4&#45;&gt;https://w3id.org/oseg/ont/osh/otrl#OTRL4 -->
<g id="edge21" class="edge">
<title>https://w3id.org/oseg/ont/osh/otrl#Otrl4&#45;&gt;https://w3id.org/oseg/ont/osh/otrl#OTRL4</title>
<path fill="none" stroke="black" d="M1078.9,-1246.27C1078.03,-1245.51 1077.17,-1244.73 1076.32,-1243.96"/>
<polygon fill="black" stroke="black" points="1078.76,-1241.45 1069.17,-1236.95 1073.87,-1246.45 1078.76,-1241.45"/>
<text text-anchor="middle" x="997.61" y="-1233.91" font-family="Times,serif" font-size="14.00">schema:supersededBy</text>
</g>
<!-- https://w3id.org/oseg/ont/osh/otrl#Odrl1 -->
<g id="node28" class="node">
<title>https://w3id.org/oseg/ont/osh/otrl#Odrl1</title>
<ellipse fill="none" stroke="black" cx="1080.06" cy="-641.46" rx="217.58" ry="16.03"/>
<text text-anchor="middle" x="1080.06" y="-637.76" font-family="Times,serif" font-size="14.00">https://w3id.org/oseg/ont/osh/otrl#Odrl1</text>
</g>
<!-- https://w3id.org/oseg/ont/osh/otrl#Odrl1&#45;&gt;https://w3id.org/oseg/ont/osh/otrl#ODRL1 -->
<g id="edge22" class="edge">
<title>https://w3id.org/oseg/ont/osh/otrl#Odrl1&#45;&gt;https://w3id.org/oseg/ont/osh/otrl#ODRL1</title>
<path fill="none" stroke="black" d="M1085.38,-657.88C1087.24,-660.85 1089.42,-663.98 1091.75,-667.1"/>
<polygon fill="black" stroke="black" points="1089.22,-669.55 1098.2,-675.17 1094.69,-665.17 1089.22,-669.55"/>
<text text-anchor="middle" x="1008.57" y="-666.29" font-family="Times,serif" font-size="14.00">schema:supersededBy</text>
</g>
<!-- https://w3id.org/oseg/ont/osh/otrl#Odrl1&#45;&gt;https://w3id.org/oseg/ont/osh/otrl#ODRL1 -->
<g id="edge36" class="edge">
<title>https://w3id.org/oseg/ont/osh/otrl#Odrl1&#45;&gt;https://w3id.org/oseg/ont/osh/otrl#ODRL1</title>
<path fill="none" stroke="black" d="M1101.35,-657.7C1103.62,-660.39 1105.86,-663.22 1107.96,-666.06"/>
<polygon fill="black" stroke="black" points="1105.15,-668.15 1113.69,-674.43 1110.92,-664.2 1105.15,-668.15"/>
<text text-anchor="middle" x="1147.15" y="-665.68" font-family="Times,serif" font-size="14.00">owl:sameAs</text>
</g>
<!-- https://w3id.org/oseg/ont/osh/otrl#Odrl3Star -->
<g id="node29" class="node">
<title>https://w3id.org/oseg/ont/osh/otrl#Odrl3Star</title>
<ellipse fill="none" stroke="black" cx="1950.52" cy="-336.67" rx="239" ry="16.03"/>
<text text-anchor="middle" x="1950.52" y="-332.97" font-family="Times,serif" font-size="14.00">https://w3id.org/oseg/ont/osh/otrl#Odrl3Star</text>
</g>
<!-- https://w3id.org/oseg/ont/osh/otrl#Odrl3Star&#45;&gt;https://w3id.org/oseg/ont/osh/otrl#ODRL3Star -->
<g id="edge23" class="edge">
<title>https://w3id.org/oseg/ont/osh/otrl#Odrl3Star&#45;&gt;https://w3id.org/oseg/ont/osh/otrl#ODRL3Star</title>
<path fill="none" stroke="black" d="M1911.21,-352.8C1829.67,-391.72 1643.65,-489.91 1569.02,-533.5"/>
<polygon fill="black" stroke="black" points="1566.9,-530.68 1560.07,-538.78 1570.46,-536.71 1566.9,-530.68"/>
<text text-anchor="middle" x="1660.11" y="-446.95" font-family="Times,serif" font-size="14.00">schema:supersededBy</text>
</g>
<!-- https://w3id.org/oseg/ont/osh/otrl#Odrl3Star&#45;&gt;https://w3id.org/oseg/ont/osh/otrl#ODRL3Star -->
<g id="edge45" class="edge">
<title>https://w3id.org/oseg/ont/osh/otrl#Odrl3Star&#45;&gt;https://w3id.org/oseg/ont/osh/otrl#ODRL3Star</title>
<path fill="none" stroke="black" d="M1926.9,-353.03C1860.48,-392.67 1671.38,-492.76 1583.33,-535.3"/>
<polygon fill="black" stroke="black" points="1581.62,-532.23 1574.12,-539.71 1584.65,-538.55 1581.62,-532.23"/>
<text text-anchor="middle" x="1797.61" y="-447.97" font-family="Times,serif" font-size="14.00">owl:sameAs</text>
</g>
<!-- https://w3id.org/oseg/ont/osh/otrl#Odrl5 -->
<g id="node30" class="node">
<title>https://w3id.org/oseg/ont/osh/otrl#Odrl5</title>
<ellipse fill="none" stroke="black" cx="1910.91" cy="-927.53" rx="217.58" ry="16.03"/>
<text text-anchor="middle" x="1910.91" y="-923.83" font-family="Times,serif" font-size="14.00">https://w3id.org/oseg/ont/osh/otrl#Odrl5</text>
</g>
<!-- https://w3id.org/oseg/ont/osh/otrl#Odrl5&#45;&gt;https://w3id.org/oseg/ont/osh/otrl#Odrl4 -->
<g id="edge24" class="edge">
<title>https://w3id.org/oseg/ont/osh/otrl#Odrl5&#45;&gt;https://w3id.org/oseg/ont/osh/otrl#Odrl4</title>
<path fill="none" stroke="black" d="M1872.79,-911.46C1851.08,-904.64 1823.32,-897.01 1798.38,-890.92"/>
<polygon fill="black" stroke="black" points="1799.15,-887.51 1788.61,-888.58 1797.52,-894.31 1799.15,-887.51"/>
<text text-anchor="middle" x="1878.08" y="-889.99" font-family="Times,serif" font-size="14.00">owl:sameAs</text>
</g>
<!-- https://w3id.org/oseg/ont/osh/otrl#Odrl5&#45;&gt;https://w3id.org/oseg/ont/osh/otrl#Odrl4 -->
<g id="edge30" class="edge">
<title>https://w3id.org/oseg/ont/osh/otrl#Odrl5&#45;&gt;https://w3id.org/oseg/ont/osh/otrl#Odrl4</title>
<path fill="none" stroke="black" d="M1827.95,-912.45C1809.97,-907.77 1791.7,-902.63 1776.14,-897.82"/>
<polygon fill="black" stroke="black" points="1776.93,-894.4 1766.34,-894.71 1774.82,-901.07 1776.93,-894.4"/>
<text text-anchor="middle" x="1722.04" y="-893.94" font-family="Times,serif" font-size="14.00">schema:supersededBy</text>
</g>
<!-- https://w3id.org/oseg/ont/osh/otrl#Otrl6 -->
<g id="node31" class="node">
<title>https://w3id.org/oseg/ont/osh/otrl#Otrl6</title>
<ellipse fill="none" stroke="black" cx="549.68" cy="-1817.66" rx="215.84" ry="16.03"/>
<text text-anchor="middle" x="549.68" y="-1813.96" font-family="Times,serif" font-size="14.00">https://w3id.org/oseg/ont/osh/otrl#Otrl6</text>
</g>
<!-- https://w3id.org/oseg/ont/osh/otrl#Otrl6&#45;&gt;https://w3id.org/oseg/ont/osh/otrl#OTRL6 -->
<g id="edge28" class="edge">
<title>https://w3id.org/oseg/ont/osh/otrl#Otrl6&#45;&gt;https://w3id.org/oseg/ont/osh/otrl#OTRL6</title>
<path fill="none" stroke="black" d="M562.79,-1801.38C601.43,-1744.2 713,-1552.65 748.45,-1482.99"/>
<polygon fill="black" stroke="black" points="751.6,-1484.51 752.93,-1474 745.33,-1481.39 751.6,-1484.51"/>
<text text-anchor="middle" x="613.12" y="-1645.99" font-family="Times,serif" font-size="14.00">owl:sameAs</text>
</g>
<!-- https://w3id.org/oseg/ont/osh/otrl#Otrl6&#45;&gt;https://w3id.org/oseg/ont/osh/otrl#OTRL6 -->
<g id="edge32" class="edge">
<title>https://w3id.org/oseg/ont/osh/otrl#Otrl6&#45;&gt;https://w3id.org/oseg/ont/osh/otrl#OTRL6</title>
<path fill="none" stroke="black" d="M555.89,-1801.18C583.89,-1743.45 695.76,-1550.56 740.63,-1481.91"/>
<polygon fill="black" stroke="black" points="743.64,-1483.71 746.26,-1473.44 737.81,-1479.83 743.64,-1483.71"/>
<text text-anchor="middle" x="568.26" y="-1630.34" font-family="Times,serif" font-size="14.00">schema:supersededBy</text>
</g>
<!-- https://w3id.org/oseg/ont/osh/otrl#Otrl2 -->
<g id="node32" class="node">
<title>https://w3id.org/oseg/ont/osh/otrl#Otrl2</title>
<ellipse fill="none" stroke="black" cx="215.75" cy="-1372.21" rx="215.84" ry="16.03"/>
<text text-anchor="middle" x="215.75" y="-1368.51" font-family="Times,serif" font-size="14.00">https://w3id.org/oseg/ont/osh/otrl#Otrl2</text>
</g>
<!-- https://w3id.org/oseg/ont/osh/otrl#Otrl2&#45;&gt;https://w3id.org/oseg/ont/osh/otrl#OTRL2 -->
<g id="edge33" class="edge">
<title>https://w3id.org/oseg/ont/osh/otrl#Otrl2&#45;&gt;https://w3id.org/oseg/ont/osh/otrl#OTRL2</title>
<path fill="none" stroke="black" d="M313.13,-1357.66C396.63,-1341.71 513.62,-1316.72 579.72,-1300.42"/>
<polygon fill="black" stroke="black" points="580.63,-1303.8 589.49,-1297.98 578.94,-1297.01 580.63,-1303.8"/>
<text text-anchor="middle" x="403.92" y="-1332.84" font-family="Times,serif" font-size="14.00">owl:sameAs</text>
</g>
<!-- https://w3id.org/oseg/ont/osh/otrl#Otrl2&#45;&gt;https://w3id.org/oseg/ont/osh/otrl#OTRL2 -->
<g id="edge38" class="edge">
<title>https://w3id.org/oseg/ont/osh/otrl#Otrl2&#45;&gt;https://w3id.org/oseg/ont/osh/otrl#OTRL2</title>
<path fill="none" stroke="black" d="M268.15,-1356.39C342.27,-1338.18 477.9,-1309.5 560.54,-1294.42"/>
<polygon fill="black" stroke="black" points="561.37,-1297.82 570.59,-1292.6 560.13,-1290.94 561.37,-1297.82"/>
<text text-anchor="middle" x="334.34" y="-1314.2" font-family="Times,serif" font-size="14.00">schema:supersededBy</text>
</g>
</g>
</svg>
