<?xml version="1.0" encoding="UTF-8" standalone="no"?>
<!DOCTYPE svg PUBLIC "-//W3C//DTD SVG 1.1//EN"
 "http://www.w3.org/Graphics/SVG/1.1/DTD/svg11.dtd">
<!-- Generated by graphviz version 2.43.0 (0)
 -->
<!-- Title: G Pages: 1 -->
<svg width="632pt" height="1011pt"
 viewBox="0.00 0.00 631.63 1010.53" xmlns="http://www.w3.org/2000/svg" xmlns:xlink="http://www.w3.org/1999/xlink">
<g id="graph0" class="graph" transform="scale(1 1) rotate(0) translate(4 1006.53)">
<title>G</title>
<polygon fill="white" stroke="transparent" points="-4,4 -4,-1006.53 627.63,-1006.53 627.63,4 -4,4"/>
<!-- http://www.w3.org/2002/07/owl#class -->
<g id="node1" class="node">
<title>http://www.w3.org/2002/07/owl#class</title>
<ellipse fill="none" stroke="#1f77b4" cx="566.36" cy="-352.26" rx="57.05" ry="16.03"/>
<text text-anchor="middle" x="566.36" y="-348.56" font-family="Times,serif" font-size="14.00">owl:class</text>
</g>
<!-- http://www.w3.org/2002/07/owl#DatatypeProperty -->
<g id="node2" class="node">
<title>http://www.w3.org/2002/07/owl#DatatypeProperty</title>
<ellipse fill="none" stroke="#1f77b4" cx="341.04" cy="-792.26" rx="123.07" ry="16.03"/>
<text text-anchor="middle" x="341.04" y="-788.56" font-family="Times,serif" font-size="14.00">owl:DatatypeProperty</text>
</g>
<!-- http://www.w3.org/2002/07/owl#Ontology -->
<g id="node3" class="node">
<title>http://www.w3.org/2002/07/owl#Ontology</title>
<ellipse fill="none" stroke="#1f77b4" cx="341.04" cy="-851.26" rx="77.56" ry="16.03"/>
<text text-anchor="middle" x="341.04" y="-847.56" font-family="Times,serif" font-size="14.00">owl:Ontology</text>
</g>
<!-- http://purl.org/oseg/ontologies/OTRL#OTRL -->
<g id="node4" class="node">
<title>http://purl.org/oseg/ontologies/OTRL#OTRL</title>
<ellipse fill="none" stroke="#e377c2" cx="341.04" cy="-503.26" rx="39.7" ry="16.03"/>
<text text-anchor="middle" x="341.04" y="-499.56" font-family="Times,serif" font-size="14.00">OTRL</text>
</g>
<!-- http://purl.org/oseg/ontologies/OTRL#OTRL&#45;&gt;http://www.w3.org/2002/07/owl#class -->
<g id="edge30" class="edge">
<title>http://purl.org/oseg/ontologies/OTRL#OTRL&#45;&gt;http://www.w3.org/2002/07/owl#class</title>
<path fill="none" stroke="black" d="M380.8,-502.08C412.97,-499.35 458.54,-491.3 491.08,-468.26 522.93,-445.72 544.35,-404.8 555.7,-378.07"/>
<polygon fill="black" stroke="black" points="559.03,-379.18 559.56,-368.6 552.55,-376.54 559.03,-379.18"/>
<text text-anchor="middle" x="486.58" y="-477.06" font-family="Times,serif" font-size="14.00">a</text>
</g>
<!-- http://purl.org/oseg/ontologies/OTRL#ODRL -->
<g id="node5" class="node">
<title>http://purl.org/oseg/ontologies/OTRL#ODRL</title>
<ellipse fill="none" stroke="#e377c2" cx="566.36" cy="-125.26" rx="41.94" ry="16.03"/>
<text text-anchor="middle" x="566.36" y="-121.56" font-family="Times,serif" font-size="14.00">ODRL</text>
</g>
<!-- http://purl.org/oseg/ontologies/OTRL#Otrl1 -->
<g id="node6" class="node">
<title>http://purl.org/oseg/ontologies/OTRL#Otrl1</title>
<ellipse fill="none" stroke="#e377c2" cx="70" cy="-533.26" rx="38.37" ry="16.03"/>
<text text-anchor="middle" x="70" y="-529.56" font-family="Times,serif" font-size="14.00">Otrl1</text>
</g>
<!-- http://purl.org/oseg/ontologies/OTRL#Otrl1&#45;&gt;http://www.w3.org/2002/07/owl#class -->
<g id="edge14" class="edge">
<title>http://purl.org/oseg/ontologies/OTRL#Otrl1&#45;&gt;http://www.w3.org/2002/07/owl#class</title>
<path fill="none" stroke="black" d="M102.6,-541.87C172.45,-559.07 343.39,-590.91 464.08,-528.26 521.94,-498.23 549.05,-419.77 559.65,-378.5"/>
<polygon fill="black" stroke="black" points="563.09,-379.17 562.05,-368.62 556.29,-377.51 563.09,-379.17"/>
<text text-anchor="middle" x="341.04" y="-570.06" font-family="Times,serif" font-size="14.00">a</text>
</g>
<!-- http://purl.org/oseg/ontologies/OTRL#Otrl1&#45;&gt;http://purl.org/oseg/ontologies/OTRL#OTRL -->
<g id="edge13" class="edge">
<title>http://purl.org/oseg/ontologies/OTRL#Otrl1&#45;&gt;http://purl.org/oseg/ontologies/OTRL#OTRL</title>
<path fill="none" stroke="black" d="M107.01,-529.25C154.8,-523.92 239.3,-514.5 292.35,-508.58"/>
<polygon fill="black" stroke="black" points="292.97,-512.03 302.52,-507.45 292.2,-505.08 292.97,-512.03"/>
</g>
<!-- http://purl.org/oseg/ontologies/OTRL#Otrl3 -->
<g id="node7" class="node">
<title>http://purl.org/oseg/ontologies/OTRL#Otrl3</title>
<ellipse fill="none" stroke="#e377c2" cx="70" cy="-420.26" rx="38.37" ry="16.03"/>
<text text-anchor="middle" x="70" y="-416.56" font-family="Times,serif" font-size="14.00">Otrl3</text>
</g>
<!-- http://purl.org/oseg/ontologies/OTRL#Otrl3&#45;&gt;http://www.w3.org/2002/07/owl#class -->
<g id="edge15" class="edge">
<title>http://purl.org/oseg/ontologies/OTRL#Otrl3&#45;&gt;http://www.w3.org/2002/07/owl#class</title>
<path fill="none" stroke="black" d="M107.77,-417.41C177.56,-411.68 333.9,-397.43 464.08,-375.26 479.97,-372.56 497.12,-368.94 512.7,-365.37"/>
<polygon fill="black" stroke="black" points="513.75,-368.72 522.69,-363.04 512.16,-361.9 513.75,-368.72"/>
<text text-anchor="middle" x="341.04" y="-412.06" font-family="Times,serif" font-size="14.00">a</text>
</g>
<!-- http://purl.org/oseg/ontologies/OTRL#Otrl3&#45;&gt;http://purl.org/oseg/ontologies/OTRL#OTRL -->
<g id="edge16" class="edge">
<title>http://purl.org/oseg/ontologies/OTRL#Otrl3&#45;&gt;http://purl.org/oseg/ontologies/OTRL#OTRL</title>
<path fill="none" stroke="black" d="M98.62,-431.2C127.95,-442.59 175.81,-460.51 218.01,-473.26 243.48,-480.96 272.37,-488.13 295.65,-493.53"/>
<polygon fill="black" stroke="black" points="295.06,-496.99 305.59,-495.81 296.63,-490.17 295.06,-496.99"/>
</g>
<!-- http://www.w3.org/1999/02/22&#45;rdf&#45;syntax&#45;ns#nil -->
<g id="node8" class="node">
<title>http://www.w3.org/1999/02/22&#45;rdf&#45;syntax&#45;ns#nil</title>
<ellipse fill="none" stroke="#e377c2" cx="70" cy="-935.26" rx="42.35" ry="16.03"/>
<text text-anchor="middle" x="70" y="-931.56" font-family="Times,serif" font-size="14.00">rdf:nil</text>
</g>
<!-- http://purl.org/oseg/ontologies/OTRL#goal -->
<g id="node9" class="node">
<title>http://purl.org/oseg/ontologies/OTRL#goal</title>
<ellipse fill="none" stroke="#e377c2" cx="70" cy="-794.26" rx="33.47" ry="16.03"/>
<text text-anchor="middle" x="70" y="-790.56" font-family="Times,serif" font-size="14.00">goal</text>
</g>
<!-- http://purl.org/oseg/ontologies/OTRL#goal&#45;&gt;http://www.w3.org/2002/07/owl#DatatypeProperty -->
<g id="edge17" class="edge">
<title>http://purl.org/oseg/ontologies/OTRL#goal&#45;&gt;http://www.w3.org/2002/07/owl#DatatypeProperty</title>
<path fill="none" stroke="black" d="M103.46,-794.02C129.82,-793.83 168.87,-793.54 207.69,-793.25"/>
<polygon fill="black" stroke="black" points="208.1,-796.74 218.08,-793.17 208.05,-789.74 208.1,-796.74"/>
<text text-anchor="middle" x="179.01" y="-798.06" font-family="Times,serif" font-size="14.00">a</text>
</g>
<!-- http://schema.org/Text -->
<g id="node11" class="node">
<title>http://schema.org/Text</title>
<ellipse fill="none" stroke="#e377c2" cx="341.04" cy="-724.26" rx="74.91" ry="16.03"/>
<text text-anchor="middle" x="341.04" y="-720.56" font-family="Times,serif" font-size="14.00">schema:Text</text>
</g>
<!-- http://purl.org/oseg/ontologies/OTRL#goal&#45;&gt;http://schema.org/Text -->
<g id="edge1" class="edge">
<title>http://purl.org/oseg/ontologies/OTRL#goal&#45;&gt;http://schema.org/Text</title>
<path fill="none" stroke="black" d="M99.8,-786.77C143.15,-775.49 226.07,-753.92 282.22,-739.31"/>
<polygon fill="black" stroke="black" points="283.24,-742.66 292.03,-736.76 281.47,-735.89 283.24,-742.66"/>
<text text-anchor="middle" x="179.01" y="-776.06" font-family="Times,serif" font-size="14.00">range</text>
</g>
<!-- http://purl.org/oseg/ontologies/OTRL#Otrl -->
<g id="node10" class="node">
<title>http://purl.org/oseg/ontologies/OTRL#Otrl</title>
<ellipse fill="none" stroke="#e377c2" cx="70" cy="-986.26" rx="31.64" ry="16.03"/>
<text text-anchor="middle" x="70" y="-982.56" font-family="Times,serif" font-size="14.00">Otrl</text>
</g>
<!-- http://purl.org/oseg/ontologies/OTRL#Otrl2 -->
<g id="node12" class="node">
<title>http://purl.org/oseg/ontologies/OTRL#Otrl2</title>
<ellipse fill="none" stroke="#e377c2" cx="70" cy="-357.26" rx="38.37" ry="16.03"/>
<text text-anchor="middle" x="70" y="-353.56" font-family="Times,serif" font-size="14.00">Otrl2</text>
</g>
<!-- http://purl.org/oseg/ontologies/OTRL#Otrl2&#45;&gt;http://www.w3.org/2002/07/owl#class -->
<g id="edge18" class="edge">
<title>http://purl.org/oseg/ontologies/OTRL#Otrl2&#45;&gt;http://www.w3.org/2002/07/owl#class</title>
<path fill="none" stroke="black" d="M108.57,-356.88C191.97,-356.04 393.55,-354 498.82,-352.94"/>
<polygon fill="black" stroke="black" points="499.05,-356.43 509.01,-352.83 498.98,-349.43 499.05,-356.43"/>
<text text-anchor="middle" x="341.04" y="-360.06" font-family="Times,serif" font-size="14.00">a</text>
</g>
<!-- http://purl.org/oseg/ontologies/OTRL#Otrl2&#45;&gt;http://purl.org/oseg/ontologies/OTRL#OTRL -->
<g id="edge5" class="edge">
<title>http://purl.org/oseg/ontologies/OTRL#Otrl2&#45;&gt;http://purl.org/oseg/ontologies/OTRL#OTRL</title>
<path fill="none" stroke="black" d="M96.17,-369.22C109.66,-376.08 126.28,-385.31 140.01,-395.26 169.54,-416.67 175.07,-424.64 200.01,-451.26 208.64,-460.48 207.32,-466.52 218.01,-473.26 240.11,-487.21 268.24,-494.68 291.92,-498.67"/>
<polygon fill="black" stroke="black" points="291.7,-502.17 302.11,-500.22 292.76,-495.26 291.7,-502.17"/>
</g>
<!-- http://purl.org/oseg/ontologies/OTRL#Odrl1 -->
<g id="node13" class="node">
<title>http://purl.org/oseg/ontologies/OTRL#Odrl1</title>
<ellipse fill="none" stroke="#e377c2" cx="341.04" cy="-147.26" rx="40.11" ry="16.03"/>
<text text-anchor="middle" x="341.04" y="-143.56" font-family="Times,serif" font-size="14.00">Odrl1</text>
</g>
<!-- http://purl.org/oseg/ontologies/OTRL#Odrl1&#45;&gt;http://www.w3.org/2002/07/owl#class -->
<g id="edge19" class="edge">
<title>http://purl.org/oseg/ontologies/OTRL#Odrl1&#45;&gt;http://www.w3.org/2002/07/owl#class</title>
<path fill="none" stroke="black" d="M381.41,-147.54C407.13,-149.54 440.24,-155.77 464.08,-173.26 516.67,-211.84 545.78,-286.51 558.13,-326.12"/>
<polygon fill="black" stroke="black" points="554.83,-327.27 561.05,-335.84 561.53,-325.26 554.83,-327.27"/>
<text text-anchor="middle" x="486.58" y="-200.06" font-family="Times,serif" font-size="14.00">a</text>
</g>
<!-- http://purl.org/oseg/ontologies/OTRL#Odrl1&#45;&gt;http://purl.org/oseg/ontologies/OTRL#ODRL -->
<g id="edge20" class="edge">
<title>http://purl.org/oseg/ontologies/OTRL#Odrl1&#45;&gt;http://purl.org/oseg/ontologies/OTRL#ODRL</title>
<path fill="none" stroke="black" d="M380.43,-143.48C417.79,-139.8 474.75,-134.19 515.58,-130.17"/>
<polygon fill="black" stroke="black" points="515.98,-133.64 525.59,-129.18 515.3,-126.68 515.98,-133.64"/>
</g>
<!-- http://purl.org/oseg/ontologies/OTRL#Odrl4 -->
<g id="node14" class="node">
<title>http://purl.org/oseg/ontologies/OTRL#Odrl4</title>
<ellipse fill="none" stroke="#e377c2" cx="341.04" cy="-81.26" rx="40.11" ry="16.03"/>
<text text-anchor="middle" x="341.04" y="-77.56" font-family="Times,serif" font-size="14.00">Odrl4</text>
</g>
<!-- http://purl.org/oseg/ontologies/OTRL#Odrl4&#45;&gt;http://www.w3.org/2002/07/owl#class -->
<g id="edge6" class="edge">
<title>http://purl.org/oseg/ontologies/OTRL#Odrl4&#45;&gt;http://www.w3.org/2002/07/owl#class</title>
<path fill="none" stroke="black" d="M379.53,-86.36C405.72,-91.57 440.14,-101.94 464.08,-122.26 527.62,-176.22 552.73,-277.74 561.38,-325.78"/>
<polygon fill="black" stroke="black" points="557.94,-326.45 563.07,-335.72 564.84,-325.27 557.94,-326.45"/>
<text text-anchor="middle" x="486.58" y="-151.06" font-family="Times,serif" font-size="14.00">a</text>
</g>
<!-- http://purl.org/oseg/ontologies/OTRL#Odrl4&#45;&gt;http://purl.org/oseg/ontologies/OTRL#ODRL -->
<g id="edge23" class="edge">
<title>http://purl.org/oseg/ontologies/OTRL#Odrl4&#45;&gt;http://purl.org/oseg/ontologies/OTRL#ODRL</title>
<path fill="none" stroke="black" d="M377.19,-73.86C407.92,-68.83 453.39,-64.95 491.08,-76.26 509.46,-81.78 527.49,-93.48 541.18,-104.06"/>
<polygon fill="black" stroke="black" points="539.13,-106.9 549.11,-110.44 543.52,-101.45 539.13,-106.9"/>
</g>
<!-- http://purl.org/oseg/ontologies/OTRL#Odrl -->
<g id="node15" class="node">
<title>http://purl.org/oseg/ontologies/OTRL#Odrl</title>
<ellipse fill="none" stroke="#e377c2" cx="341.04" cy="-300.26" rx="33.88" ry="16.03"/>
<text text-anchor="middle" x="341.04" y="-296.56" font-family="Times,serif" font-size="14.00">Odrl</text>
</g>
<!-- http://purl.org/oseg/ontologies/OTRL#Odrl&#45;&gt;http://www.w3.org/2002/07/owl#class -->
<g id="edge22" class="edge">
<title>http://purl.org/oseg/ontologies/OTRL#Odrl&#45;&gt;http://www.w3.org/2002/07/owl#class</title>
<path fill="none" stroke="black" d="M374.45,-303.2C404.92,-306.44 451.64,-312.66 491.08,-323.26 502.45,-326.32 514.47,-330.55 525.45,-334.83"/>
<polygon fill="black" stroke="black" points="524.2,-338.1 534.78,-338.58 526.81,-331.61 524.2,-338.1"/>
<text text-anchor="middle" x="486.58" y="-327.06" font-family="Times,serif" font-size="14.00">a</text>
</g>
<!-- http://purl.org/oseg/ontologies/OTRL -->
<g id="node16" class="node">
<title>http://purl.org/oseg/ontologies/OTRL</title>
<ellipse fill="none" stroke="#e377c2" cx="70" cy="-851.26" rx="60.62" ry="16.03"/>
<text text-anchor="middle" x="70" y="-847.56" font-family="Times,serif" font-size="14.00">ns1:OTRL</text>
</g>
<!-- http://purl.org/oseg/ontologies/OTRL&#45;&gt;http://www.w3.org/2002/07/owl#Ontology -->
<g id="edge12" class="edge">
<title>http://purl.org/oseg/ontologies/OTRL&#45;&gt;http://www.w3.org/2002/07/owl#Ontology</title>
<path fill="none" stroke="black" d="M131.05,-851.26C166.88,-851.26 213,-851.26 252.8,-851.26"/>
<polygon fill="black" stroke="black" points="253.04,-854.76 263.04,-851.26 253.04,-847.76 253.04,-854.76"/>
<text text-anchor="middle" x="179.01" y="-855.06" font-family="Times,serif" font-size="14.00">a</text>
</g>
<!-- http://purl.org/oseg/ontologies/OTRL&#45;&gt;http://purl.org/oseg/ontologies/OTRL -->
<g id="edge21" class="edge">
<title>http://purl.org/oseg/ontologies/OTRL&#45;&gt;http://purl.org/oseg/ontologies/OTRL</title>
<path fill="none" stroke="black" d="M51.18,-866.77C46.64,-876.38 52.92,-885.53 70,-885.53 80.68,-885.53 87.14,-881.95 89.37,-876.93"/>
<polygon fill="black" stroke="black" points="92.85,-876.57 88.82,-866.77 85.86,-876.94 92.85,-876.57"/>
<text text-anchor="middle" x="70" y="-889.33" font-family="Times,serif" font-size="14.00">owl:versionIRI</text>
</g>
<!-- http://purl.org/oseg/ontologies/OTRL#Odrl3 -->
<g id="node17" class="node">
<title>http://purl.org/oseg/ontologies/OTRL#Odrl3</title>
<ellipse fill="none" stroke="#e377c2" cx="341.04" cy="-16.26" rx="40.11" ry="16.03"/>
<text text-anchor="middle" x="341.04" y="-12.56" font-family="Times,serif" font-size="14.00">Odrl3</text>
</g>
<!-- http://purl.org/oseg/ontologies/OTRL#Odrl3&#45;&gt;http://www.w3.org/2002/07/owl#class -->
<g id="edge24" class="edge">
<title>http://purl.org/oseg/ontologies/OTRL#Odrl3&#45;&gt;http://www.w3.org/2002/07/owl#class</title>
<path fill="none" stroke="black" d="M380.15,-20.31C406.63,-24.96 441.15,-34.92 464.08,-56.26 484.69,-75.45 538.36,-257.75 558.01,-326.34"/>
<polygon fill="black" stroke="black" points="554.65,-327.31 560.76,-335.97 561.38,-325.39 554.65,-327.31"/>
<text text-anchor="middle" x="486.58" y="-113.06" font-family="Times,serif" font-size="14.00">a</text>
</g>
<!-- http://purl.org/oseg/ontologies/OTRL#Odrl3&#45;&gt;http://purl.org/oseg/ontologies/OTRL#ODRL -->
<g id="edge4" class="edge">
<title>http://purl.org/oseg/ontologies/OTRL#Odrl3&#45;&gt;http://purl.org/oseg/ontologies/OTRL#ODRL</title>
<path fill="none" stroke="black" d="M374.4,-6.92C406.11,0.33 454.82,6.2 491.08,-13.26 524.8,-31.36 545.81,-72.26 556.54,-99.3"/>
<polygon fill="black" stroke="black" points="553.36,-100.78 560.16,-108.91 559.91,-98.32 553.36,-100.78"/>
</g>
<!-- http://purl.org/oseg/ontologies/OTRL#Odrl3Star -->
<g id="node18" class="node">
<title>http://purl.org/oseg/ontologies/OTRL#Odrl3Star</title>
<ellipse fill="none" stroke="#e377c2" cx="341.04" cy="-249.26" rx="62.45" ry="16.03"/>
<text text-anchor="middle" x="341.04" y="-245.56" font-family="Times,serif" font-size="14.00">Odrl3Star</text>
</g>
<!-- http://purl.org/oseg/ontologies/OTRL#Odrl3Star&#45;&gt;http://www.w3.org/2002/07/owl#class -->
<g id="edge8" class="edge">
<title>http://purl.org/oseg/ontologies/OTRL#Odrl3Star&#45;&gt;http://www.w3.org/2002/07/owl#class</title>
<path fill="none" stroke="black" d="M398.06,-255.89C419.39,-259.76 443.5,-265.83 464.08,-275.26 493.72,-288.86 522.86,-312.39 542.22,-329.87"/>
<polygon fill="black" stroke="black" points="539.91,-332.5 549.64,-336.71 544.66,-327.35 539.91,-332.5"/>
<text text-anchor="middle" x="486.58" y="-293.06" font-family="Times,serif" font-size="14.00">a</text>
</g>
<!-- http://purl.org/oseg/ontologies/OTRL#Odrl3Star&#45;&gt;http://purl.org/oseg/ontologies/OTRL#ODRL -->
<g id="edge28" class="edge">
<title>http://purl.org/oseg/ontologies/OTRL#Odrl3Star&#45;&gt;http://purl.org/oseg/ontologies/OTRL#ODRL</title>
<path fill="none" stroke="black" d="M397.94,-256.02C427.52,-256.94 463.35,-253.61 491.08,-237.26 523.87,-217.93 545.03,-177.75 556.07,-151.14"/>
<polygon fill="black" stroke="black" points="559.39,-152.27 559.81,-141.68 552.88,-149.7 559.39,-152.27"/>
</g>
<!-- http://purl.org/oseg/ontologies/OTRL#Otrl4 -->
<g id="node19" class="node">
<title>http://purl.org/oseg/ontologies/OTRL#Otrl4</title>
<ellipse fill="none" stroke="#e377c2" cx="70" cy="-653.26" rx="38.37" ry="16.03"/>
<text text-anchor="middle" x="70" y="-649.56" font-family="Times,serif" font-size="14.00">Otrl4</text>
</g>
<!-- http://purl.org/oseg/ontologies/OTRL#Otrl4&#45;&gt;http://www.w3.org/2002/07/owl#class -->
<g id="edge25" class="edge">
<title>http://purl.org/oseg/ontologies/OTRL#Otrl4&#45;&gt;http://www.w3.org/2002/07/owl#class</title>
<path fill="none" stroke="black" d="M103.69,-661.04C175.36,-676.16 349.1,-702 464.08,-629.26 550.26,-574.74 563.65,-437.4 565.34,-379.1"/>
<polygon fill="black" stroke="black" points="568.84,-378.92 565.54,-368.86 561.85,-378.79 568.84,-378.92"/>
<text text-anchor="middle" x="341.04" y="-682.06" font-family="Times,serif" font-size="14.00">a</text>
</g>
<!-- http://purl.org/oseg/ontologies/OTRL#Otrl4&#45;&gt;http://purl.org/oseg/ontologies/OTRL#OTRL -->
<g id="edge2" class="edge">
<title>http://purl.org/oseg/ontologies/OTRL#Otrl4&#45;&gt;http://purl.org/oseg/ontologies/OTRL#OTRL</title>
<path fill="none" stroke="black" d="M99.38,-642.7C112.33,-637.24 127.52,-629.91 140.01,-621.26 170.76,-599.97 176.65,-591.47 200.01,-562.26 209.48,-550.42 205.73,-542.18 218.01,-533.26 239.32,-517.78 267.68,-510.23 291.7,-506.57"/>
<polygon fill="black" stroke="black" points="292.24,-510.03 301.69,-505.23 291.31,-503.09 292.24,-510.03"/>
</g>
<!-- http://purl.org/oseg/ontologies/OTRL#Odrl2 -->
<g id="node20" class="node">
<title>http://purl.org/oseg/ontologies/OTRL#Odrl2</title>
<ellipse fill="none" stroke="#e377c2" cx="341.04" cy="-198.26" rx="40.11" ry="16.03"/>
<text text-anchor="middle" x="341.04" y="-194.56" font-family="Times,serif" font-size="14.00">Odrl2</text>
</g>
<!-- http://purl.org/oseg/ontologies/OTRL#Odrl2&#45;&gt;http://www.w3.org/2002/07/owl#class -->
<g id="edge26" class="edge">
<title>http://purl.org/oseg/ontologies/OTRL#Odrl2&#45;&gt;http://www.w3.org/2002/07/owl#class</title>
<path fill="none" stroke="black" d="M381.41,-199.86C406.66,-202.45 439.24,-208.84 464.08,-224.26 504.92,-249.62 536.1,-297.58 552.5,-327.05"/>
<polygon fill="black" stroke="black" points="549.46,-328.79 557.29,-335.92 555.62,-325.46 549.46,-328.79"/>
<text text-anchor="middle" x="486.58" y="-247.06" font-family="Times,serif" font-size="14.00">a</text>
</g>
<!-- http://purl.org/oseg/ontologies/OTRL#Odrl2&#45;&gt;http://purl.org/oseg/ontologies/OTRL#ODRL -->
<g id="edge11" class="edge">
<title>http://purl.org/oseg/ontologies/OTRL#Odrl2&#45;&gt;http://purl.org/oseg/ontologies/OTRL#ODRL</title>
<path fill="none" stroke="black" d="M381.2,-196.47C411.96,-194 455.43,-188.15 491.08,-174.26 508.6,-167.44 526.26,-156.02 539.95,-145.93"/>
<polygon fill="black" stroke="black" points="542.09,-148.7 547.93,-139.87 537.85,-143.13 542.09,-148.7"/>
</g>
<!-- http://purl.org/oseg/ontologies/OTRL#Otrl6 -->
<g id="node21" class="node">
<title>http://purl.org/oseg/ontologies/OTRL#Otrl6</title>
<ellipse fill="none" stroke="#e377c2" cx="70" cy="-477.26" rx="38.37" ry="16.03"/>
<text text-anchor="middle" x="70" y="-473.56" font-family="Times,serif" font-size="14.00">Otrl6</text>
</g>
<!-- http://purl.org/oseg/ontologies/OTRL#Otrl6&#45;&gt;http://www.w3.org/2002/07/owl#class -->
<g id="edge9" class="edge">
<title>http://purl.org/oseg/ontologies/OTRL#Otrl6&#45;&gt;http://www.w3.org/2002/07/owl#class</title>
<path fill="none" stroke="black" d="M107.36,-473.7C198.42,-464.62 431.33,-440.42 464.08,-427.26 494.06,-415.22 523.15,-392.12 542.4,-374.72"/>
<polygon fill="black" stroke="black" points="544.81,-377.26 549.77,-367.9 540.06,-372.12 544.81,-377.26"/>
<text text-anchor="middle" x="341.04" y="-466.06" font-family="Times,serif" font-size="14.00">a</text>
</g>
<!-- http://purl.org/oseg/ontologies/OTRL#Otrl6&#45;&gt;http://purl.org/oseg/ontologies/OTRL#OTRL -->
<g id="edge7" class="edge">
<title>http://purl.org/oseg/ontologies/OTRL#Otrl6&#45;&gt;http://purl.org/oseg/ontologies/OTRL#OTRL</title>
<path fill="none" stroke="black" d="M107.57,-480.8C155.38,-485.42 239.27,-493.52 292.12,-498.63"/>
<polygon fill="black" stroke="black" points="291.97,-502.13 302.26,-499.61 292.64,-495.17 291.97,-502.13"/>
</g>
<!-- http://purl.org/oseg/ontologies/OTRL#Otrl5 -->
<g id="node22" class="node">
<title>http://purl.org/oseg/ontologies/OTRL#Otrl5</title>
<ellipse fill="none" stroke="#e377c2" cx="70" cy="-596.26" rx="38.37" ry="16.03"/>
<text text-anchor="middle" x="70" y="-592.56" font-family="Times,serif" font-size="14.00">Otrl5</text>
</g>
<!-- http://purl.org/oseg/ontologies/OTRL#Otrl5&#45;&gt;http://www.w3.org/2002/07/owl#class -->
<g id="edge27" class="edge">
<title>http://purl.org/oseg/ontologies/OTRL#Otrl5&#45;&gt;http://www.w3.org/2002/07/owl#class</title>
<path fill="none" stroke="black" d="M107.45,-599.87C193.48,-607.64 406.29,-622.36 464.08,-584.26 535.01,-537.5 556.57,-429.07 562.87,-378.77"/>
<polygon fill="black" stroke="black" points="566.37,-379.02 564.03,-368.69 559.41,-378.22 566.37,-379.02"/>
<text text-anchor="middle" x="341.04" y="-614.06" font-family="Times,serif" font-size="14.00">a</text>
</g>
<!-- http://purl.org/oseg/ontologies/OTRL#Otrl5&#45;&gt;http://purl.org/oseg/ontologies/OTRL#OTRL -->
<g id="edge3" class="edge">
<title>http://purl.org/oseg/ontologies/OTRL#Otrl5&#45;&gt;http://purl.org/oseg/ontologies/OTRL#OTRL</title>
<path fill="none" stroke="black" d="M95.75,-584.17C124.58,-570.44 173.9,-548.02 218.01,-533.26 243.15,-524.85 271.92,-517.66 295.21,-512.44"/>
<polygon fill="black" stroke="black" points="296.14,-515.81 305.16,-510.25 294.64,-508.98 296.14,-515.81"/>
</g>
<!-- http://purl.org/oseg/ontologies/OTRL#exitCriteria -->
<g id="node23" class="node">
<title>http://purl.org/oseg/ontologies/OTRL#exitCriteria</title>
<ellipse fill="none" stroke="#e377c2" cx="70" cy="-718.26" rx="70.01" ry="16.03"/>
<text text-anchor="middle" x="70" y="-714.56" font-family="Times,serif" font-size="14.00">exitCriteria</text>
</g>
<!-- http://purl.org/oseg/ontologies/OTRL#exitCriteria&#45;&gt;http://www.w3.org/2002/07/owl#DatatypeProperty -->
<g id="edge10" class="edge">
<title>http://purl.org/oseg/ontologies/OTRL#exitCriteria&#45;&gt;http://www.w3.org/2002/07/owl#DatatypeProperty</title>
<path fill="none" stroke="black" d="M127.93,-727.45C150.53,-731.58 176.66,-736.95 200.01,-743.26 204.56,-744.49 249.81,-760.38 287.66,-773.73"/>
<polygon fill="black" stroke="black" points="286.5,-777.04 297.09,-777.07 288.83,-770.44 286.5,-777.04"/>
<text text-anchor="middle" x="179.01" y="-747.06" font-family="Times,serif" font-size="14.00">a</text>
</g>
<!-- http://purl.org/oseg/ontologies/OTRL#exitCriteria&#45;&gt;http://schema.org/Text -->
<g id="edge29" class="edge">
<title>http://purl.org/oseg/ontologies/OTRL#exitCriteria&#45;&gt;http://schema.org/Text</title>
<path fill="none" stroke="black" d="M107.26,-704.34C122.66,-699.13 140.96,-693.85 158.01,-691.26 204.01,-684.29 256.25,-695.78 292.93,-707.07"/>
<polygon fill="black" stroke="black" points="292.25,-710.52 302.84,-710.23 294.38,-703.86 292.25,-710.52"/>
<text text-anchor="middle" x="179.01" y="-695.06" font-family="Times,serif" font-size="14.00">range</text>
</g>
</g>
</svg>
