<?xml version="1.0" encoding="UTF-8" standalone="no"?>
<!DOCTYPE svg PUBLIC "-//W3C//DTD SVG 1.1//EN"
 "http://www.w3.org/Graphics/SVG/1.1/DTD/svg11.dtd">
<!-- Generated by graphviz version 2.43.0 (0)
 -->
<!-- Title: G Pages: 1 -->
<svg width="632pt" height="932pt"
 viewBox="0.00 0.00 631.63 931.53" xmlns="http://www.w3.org/2000/svg" xmlns:xlink="http://www.w3.org/1999/xlink">
<g id="graph0" class="graph" transform="scale(1 1) rotate(0) translate(4 927.53)">
<title>G</title>
<polygon fill="white" stroke="transparent" points="-4,4 -4,-927.53 627.63,-927.53 627.63,4 -4,4"/>
<!-- http://purl.org/oseg/ontologies/OTRL#OTRL -->
<g id="node1" class="node">
<title>http://purl.org/oseg/ontologies/OTRL#OTRL</title>
<ellipse fill="none" stroke="#e377c2" cx="341.04" cy="-506.26" rx="39.7" ry="16.03"/>
<text text-anchor="middle" x="341.04" y="-502.56" font-family="Times,serif" font-size="14.00">OTRL</text>
</g>
<!-- http://www.w3.org/2002/07/owl#class -->
<g id="node3" class="node">
<title>http://www.w3.org/2002/07/owl#class</title>
<ellipse fill="none" stroke="#1f77b4" cx="566.36" cy="-336.26" rx="57.05" ry="16.03"/>
<text text-anchor="middle" x="566.36" y="-332.56" font-family="Times,serif" font-size="14.00">owl:class</text>
</g>
<!-- http://purl.org/oseg/ontologies/OTRL#OTRL&#45;&gt;http://www.w3.org/2002/07/owl#class -->
<g id="edge4" class="edge">
<title>http://purl.org/oseg/ontologies/OTRL#OTRL&#45;&gt;http://www.w3.org/2002/07/owl#class</title>
<path fill="none" stroke="black" d="M380.88,-505.65C413.31,-503.29 459.22,-495.45 491.08,-471.26 527.26,-443.8 548.12,-393.37 558.07,-362.53"/>
<polygon fill="black" stroke="black" points="561.44,-363.47 561.03,-352.88 554.75,-361.42 561.44,-363.47"/>
<text text-anchor="middle" x="486.58" y="-480.06" font-family="Times,serif" font-size="14.00">a</text>
</g>
<!-- http://www.w3.org/2002/07/owl#Ontology -->
<g id="node2" class="node">
<title>http://www.w3.org/2002/07/owl#Ontology</title>
<ellipse fill="none" stroke="#1f77b4" cx="341.04" cy="-658.26" rx="77.56" ry="16.03"/>
<text text-anchor="middle" x="341.04" y="-654.56" font-family="Times,serif" font-size="14.00">owl:Ontology</text>
</g>
<!-- http://www.w3.org/2002/07/owl#DatatypeProperty -->
<g id="node4" class="node">
<title>http://www.w3.org/2002/07/owl#DatatypeProperty</title>
<ellipse fill="none" stroke="#1f77b4" cx="341.04" cy="-816.26" rx="123.07" ry="16.03"/>
<text text-anchor="middle" x="341.04" y="-812.56" font-family="Times,serif" font-size="14.00">owl:DatatypeProperty</text>
</g>
<!-- http://purl.org/oseg/ontologies/OTRL#ODRL -->
<g id="node5" class="node">
<title>http://purl.org/oseg/ontologies/OTRL#ODRL</title>
<ellipse fill="none" stroke="#e377c2" cx="566.36" cy="-130.26" rx="41.94" ry="16.03"/>
<text text-anchor="middle" x="566.36" y="-126.56" font-family="Times,serif" font-size="14.00">ODRL</text>
</g>
<!-- http://purl.org/oseg/ontologies/OTRL -->
<g id="node6" class="node">
<title>http://purl.org/oseg/ontologies/OTRL</title>
<ellipse fill="none" stroke="#e377c2" cx="70" cy="-658.26" rx="60.62" ry="16.03"/>
<text text-anchor="middle" x="70" y="-654.56" font-family="Times,serif" font-size="14.00">ns1:OTRL</text>
</g>
<!-- http://purl.org/oseg/ontologies/OTRL&#45;&gt;http://www.w3.org/2002/07/owl#Ontology -->
<g id="edge1" class="edge">
<title>http://purl.org/oseg/ontologies/OTRL&#45;&gt;http://www.w3.org/2002/07/owl#Ontology</title>
<path fill="none" stroke="black" d="M131.05,-658.26C166.88,-658.26 213,-658.26 252.8,-658.26"/>
<polygon fill="black" stroke="black" points="253.04,-661.76 263.04,-658.26 253.04,-654.76 253.04,-661.76"/>
<text text-anchor="middle" x="179.01" y="-662.06" font-family="Times,serif" font-size="14.00">a</text>
</g>
<!-- http://purl.org/oseg/ontologies/OTRL&#45;&gt;http://purl.org/oseg/ontologies/OTRL -->
<g id="edge2" class="edge">
<title>http://purl.org/oseg/ontologies/OTRL&#45;&gt;http://purl.org/oseg/ontologies/OTRL</title>
<path fill="none" stroke="black" d="M51.18,-673.77C46.64,-683.38 52.92,-692.53 70,-692.53 80.68,-692.53 87.14,-688.95 89.37,-683.93"/>
<polygon fill="black" stroke="black" points="92.85,-683.57 88.82,-673.77 85.86,-683.94 92.85,-683.57"/>
<text text-anchor="middle" x="70" y="-696.33" font-family="Times,serif" font-size="14.00">owl:versionIRI</text>
</g>
<!-- http://schema.org/Text -->
<g id="node7" class="node">
<title>http://schema.org/Text</title>
<ellipse fill="none" stroke="#e377c2" cx="341.04" cy="-736.26" rx="74.91" ry="16.03"/>
<text text-anchor="middle" x="341.04" y="-732.56" font-family="Times,serif" font-size="14.00">schema:Text</text>
</g>
<!-- http://purl.org/oseg/ontologies/OTRL#Odrl3 -->
<g id="node8" class="node">
<title>http://purl.org/oseg/ontologies/OTRL#Odrl3</title>
<ellipse fill="none" stroke="#e377c2" cx="341.04" cy="-73.26" rx="40.11" ry="16.03"/>
<text text-anchor="middle" x="341.04" y="-69.56" font-family="Times,serif" font-size="14.00">Odrl3</text>
</g>
<!-- http://purl.org/oseg/ontologies/OTRL#Odrl3&#45;&gt;http://www.w3.org/2002/07/owl#class -->
<g id="edge3" class="edge">
<title>http://purl.org/oseg/ontologies/OTRL#Odrl3&#45;&gt;http://www.w3.org/2002/07/owl#class</title>
<path fill="none" stroke="black" d="M380.46,-76.96C406.75,-81.3 440.91,-90.74 464.08,-111.26 525.07,-165.28 551.33,-263.22 560.81,-310.01"/>
<polygon fill="black" stroke="black" points="557.4,-310.81 562.73,-319.96 564.27,-309.48 557.4,-310.81"/>
<text text-anchor="middle" x="486.58" y="-145.06" font-family="Times,serif" font-size="14.00">a</text>
</g>
<!-- http://purl.org/oseg/ontologies/OTRL#Odrl3&#45;&gt;http://purl.org/oseg/ontologies/OTRL#ODRL -->
<g id="edge26" class="edge">
<title>http://purl.org/oseg/ontologies/OTRL#Odrl3&#45;&gt;http://purl.org/oseg/ontologies/OTRL#ODRL</title>
<path fill="none" stroke="black" d="M380.73,-69.88C411.43,-68.48 455.03,-69.38 491.08,-81.26 509.18,-87.23 527.09,-98.83 540.79,-109.24"/>
<polygon fill="black" stroke="black" points="538.71,-112.07 548.73,-115.52 543.05,-106.57 538.71,-112.07"/>
</g>
<!-- http://www.w3.org/1999/02/22&#45;rdf&#45;syntax&#45;ns#nil -->
<g id="node9" class="node">
<title>http://www.w3.org/1999/02/22&#45;rdf&#45;syntax&#45;ns#nil</title>
<ellipse fill="none" stroke="#e377c2" cx="70" cy="-856.26" rx="42.35" ry="16.03"/>
<text text-anchor="middle" x="70" y="-852.56" font-family="Times,serif" font-size="14.00">rdf:nil</text>
</g>
<!-- http://purl.org/oseg/ontologies/OTRL#Otrl2 -->
<g id="node10" class="node">
<title>http://purl.org/oseg/ontologies/OTRL#Otrl2</title>
<ellipse fill="none" stroke="#e377c2" cx="70" cy="-411.26" rx="38.37" ry="16.03"/>
<text text-anchor="middle" x="70" y="-407.56" font-family="Times,serif" font-size="14.00">Otrl2</text>
</g>
<!-- http://purl.org/oseg/ontologies/OTRL#Otrl2&#45;&gt;http://purl.org/oseg/ontologies/OTRL#OTRL -->
<g id="edge21" class="edge">
<title>http://purl.org/oseg/ontologies/OTRL#Otrl2&#45;&gt;http://purl.org/oseg/ontologies/OTRL#OTRL</title>
<path fill="none" stroke="black" d="M96.92,-422.86C137.45,-440.98 211.88,-474.17 218.01,-476.26 243.1,-484.82 271.87,-492.01 295.17,-497.21"/>
<polygon fill="black" stroke="black" points="294.61,-500.67 305.12,-499.38 296.1,-493.83 294.61,-500.67"/>
</g>
<!-- http://purl.org/oseg/ontologies/OTRL#Otrl2&#45;&gt;http://www.w3.org/2002/07/owl#class -->
<g id="edge14" class="edge">
<title>http://purl.org/oseg/ontologies/OTRL#Otrl2&#45;&gt;http://www.w3.org/2002/07/owl#class</title>
<path fill="none" stroke="black" d="M108.21,-412.15C178.74,-412.98 336.27,-410.73 464.08,-379.26 486.45,-373.76 510.23,-363.89 529.11,-355"/>
<polygon fill="black" stroke="black" points="530.75,-358.1 538.24,-350.6 527.71,-351.79 530.75,-358.1"/>
<text text-anchor="middle" x="341.04" y="-415.06" font-family="Times,serif" font-size="14.00">a</text>
</g>
<!-- http://purl.org/oseg/ontologies/OTRL#Odrl2 -->
<g id="node11" class="node">
<title>http://purl.org/oseg/ontologies/OTRL#Odrl2</title>
<ellipse fill="none" stroke="#e377c2" cx="341.04" cy="-136.26" rx="40.11" ry="16.03"/>
<text text-anchor="middle" x="341.04" y="-132.56" font-family="Times,serif" font-size="14.00">Odrl2</text>
</g>
<!-- http://purl.org/oseg/ontologies/OTRL#Odrl2&#45;&gt;http://www.w3.org/2002/07/owl#class -->
<g id="edge15" class="edge">
<title>http://purl.org/oseg/ontologies/OTRL#Odrl2&#45;&gt;http://www.w3.org/2002/07/owl#class</title>
<path fill="none" stroke="black" d="M380.2,-140.32C406.04,-144.68 439.77,-153.69 464.08,-172.26 511.73,-208.65 542.29,-274.43 556.34,-310.64"/>
<polygon fill="black" stroke="black" points="553.07,-311.89 559.86,-320.02 559.62,-309.43 553.07,-311.89"/>
<text text-anchor="middle" x="486.58" y="-201.06" font-family="Times,serif" font-size="14.00">a</text>
</g>
<!-- http://purl.org/oseg/ontologies/OTRL#Odrl2&#45;&gt;http://purl.org/oseg/ontologies/OTRL#ODRL -->
<g id="edge13" class="edge">
<title>http://purl.org/oseg/ontologies/OTRL#Odrl2&#45;&gt;http://purl.org/oseg/ontologies/OTRL#ODRL</title>
<path fill="none" stroke="black" d="M381.45,-135.2C418.43,-134.21 473.93,-132.72 514.28,-131.64"/>
<polygon fill="black" stroke="black" points="514.55,-135.13 524.45,-131.36 514.36,-128.13 514.55,-135.13"/>
</g>
<!-- http://purl.org/oseg/ontologies/OTRL#goal -->
<g id="node12" class="node">
<title>http://purl.org/oseg/ontologies/OTRL#goal</title>
<ellipse fill="none" stroke="#e377c2" cx="70" cy="-805.26" rx="33.47" ry="16.03"/>
<text text-anchor="middle" x="70" y="-801.56" font-family="Times,serif" font-size="14.00">goal</text>
</g>
<!-- http://purl.org/oseg/ontologies/OTRL#goal&#45;&gt;http://www.w3.org/2002/07/owl#DatatypeProperty -->
<g id="edge16" class="edge">
<title>http://purl.org/oseg/ontologies/OTRL#goal&#45;&gt;http://www.w3.org/2002/07/owl#DatatypeProperty</title>
<path fill="none" stroke="black" d="M103.19,-806.58C130.83,-807.71 172.55,-809.42 213.32,-811.08"/>
<polygon fill="black" stroke="black" points="213.24,-814.58 223.37,-811.49 213.53,-807.59 213.24,-814.58"/>
<text text-anchor="middle" x="179.01" y="-814.06" font-family="Times,serif" font-size="14.00">a</text>
</g>
<!-- http://purl.org/oseg/ontologies/OTRL#goal&#45;&gt;http://schema.org/Text -->
<g id="edge11" class="edge">
<title>http://purl.org/oseg/ontologies/OTRL#goal&#45;&gt;http://schema.org/Text</title>
<path fill="none" stroke="black" d="M99.8,-797.88C143.15,-786.76 226.07,-765.49 282.22,-751.09"/>
<polygon fill="black" stroke="black" points="283.22,-754.45 292.03,-748.58 281.48,-747.67 283.22,-754.45"/>
<text text-anchor="middle" x="179.01" y="-786.06" font-family="Times,serif" font-size="14.00">range</text>
</g>
<!-- http://purl.org/oseg/ontologies/OTRL#Odrl -->
<g id="node13" class="node">
<title>http://purl.org/oseg/ontologies/OTRL#Odrl</title>
<ellipse fill="none" stroke="#e377c2" cx="341.04" cy="-354.26" rx="33.88" ry="16.03"/>
<text text-anchor="middle" x="341.04" y="-350.56" font-family="Times,serif" font-size="14.00">Odrl</text>
</g>
<!-- http://purl.org/oseg/ontologies/OTRL#Odrl&#45;&gt;http://www.w3.org/2002/07/owl#class -->
<g id="edge10" class="edge">
<title>http://purl.org/oseg/ontologies/OTRL#Odrl&#45;&gt;http://www.w3.org/2002/07/owl#class</title>
<path fill="none" stroke="black" d="M374.99,-351.61C407.99,-348.95 459.64,-344.78 500.82,-341.47"/>
<polygon fill="black" stroke="black" points="501.36,-344.93 511.04,-340.64 500.8,-337.96 501.36,-344.93"/>
<text text-anchor="middle" x="486.58" y="-347.06" font-family="Times,serif" font-size="14.00">a</text>
</g>
<!-- http://purl.org/oseg/ontologies/OTRL#Odrl4 -->
<g id="node14" class="node">
<title>http://purl.org/oseg/ontologies/OTRL#Odrl4</title>
<ellipse fill="none" stroke="#e377c2" cx="341.04" cy="-16.26" rx="40.11" ry="16.03"/>
<text text-anchor="middle" x="341.04" y="-12.56" font-family="Times,serif" font-size="14.00">Odrl4</text>
</g>
<!-- http://purl.org/oseg/ontologies/OTRL#Odrl4&#45;&gt;http://www.w3.org/2002/07/owl#class -->
<g id="edge19" class="edge">
<title>http://purl.org/oseg/ontologies/OTRL#Odrl4&#45;&gt;http://www.w3.org/2002/07/owl#class</title>
<path fill="none" stroke="black" d="M381.33,-17.82C407.51,-20.78 441.18,-28.53 464.08,-48.26 487.16,-68.15 480.3,-82.77 491.08,-111.26 518,-182.37 544.77,-268.09 557.57,-310.25"/>
<polygon fill="black" stroke="black" points="554.27,-311.44 560.51,-320 560.97,-309.41 554.27,-311.44"/>
<text text-anchor="middle" x="486.58" y="-115.06" font-family="Times,serif" font-size="14.00">a</text>
</g>
<!-- http://purl.org/oseg/ontologies/OTRL#Odrl4&#45;&gt;http://purl.org/oseg/ontologies/OTRL#ODRL -->
<g id="edge9" class="edge">
<title>http://purl.org/oseg/ontologies/OTRL#Odrl4&#45;&gt;http://purl.org/oseg/ontologies/OTRL#ODRL</title>
<path fill="none" stroke="black" d="M375.97,-8.15C407.75,-2.44 455.53,1.13 491.08,-18.26 524.68,-36.59 545.72,-77.42 556.5,-104.39"/>
<polygon fill="black" stroke="black" points="553.31,-105.86 560.13,-113.97 559.86,-103.38 553.31,-105.86"/>
</g>
<!-- http://purl.org/oseg/ontologies/OTRL#Otrl1 -->
<g id="node15" class="node">
<title>http://purl.org/oseg/ontologies/OTRL#Otrl1</title>
<ellipse fill="none" stroke="#e377c2" cx="70" cy="-335.26" rx="38.37" ry="16.03"/>
<text text-anchor="middle" x="70" y="-331.56" font-family="Times,serif" font-size="14.00">Otrl1</text>
</g>
<!-- http://purl.org/oseg/ontologies/OTRL#Otrl1&#45;&gt;http://purl.org/oseg/ontologies/OTRL#OTRL -->
<g id="edge7" class="edge">
<title>http://purl.org/oseg/ontologies/OTRL#Otrl1&#45;&gt;http://purl.org/oseg/ontologies/OTRL#OTRL</title>
<path fill="none" stroke="black" d="M91.27,-348.98C105.37,-358.82 124.37,-372.69 140.01,-386.26 168.72,-411.2 176.5,-417.37 200.01,-447.26 209.38,-459.19 205.73,-467.35 218.01,-476.26 239.32,-491.75 267.68,-499.3 291.7,-502.95"/>
<polygon fill="black" stroke="black" points="291.31,-506.43 301.69,-504.3 292.24,-499.5 291.31,-506.43"/>
</g>
<!-- http://purl.org/oseg/ontologies/OTRL#Otrl1&#45;&gt;http://www.w3.org/2002/07/owl#class -->
<g id="edge5" class="edge">
<title>http://purl.org/oseg/ontologies/OTRL#Otrl1&#45;&gt;http://www.w3.org/2002/07/owl#class</title>
<path fill="none" stroke="black" d="M105.31,-328.96C135.01,-323.83 179.18,-317.02 218.01,-314.26 327.1,-306.51 355.34,-302.59 464.08,-314.26 480.37,-316.01 497.88,-319.3 513.69,-322.81"/>
<polygon fill="black" stroke="black" points="513.27,-326.31 523.8,-325.14 514.84,-319.48 513.27,-326.31"/>
<text text-anchor="middle" x="341.04" y="-318.06" font-family="Times,serif" font-size="14.00">a</text>
</g>
<!-- http://purl.org/oseg/ontologies/OTRL#Otrl4 -->
<g id="node16" class="node">
<title>http://purl.org/oseg/ontologies/OTRL#Otrl4</title>
<ellipse fill="none" stroke="#e377c2" cx="70" cy="-467.26" rx="38.37" ry="16.03"/>
<text text-anchor="middle" x="70" y="-463.56" font-family="Times,serif" font-size="14.00">Otrl4</text>
</g>
<!-- http://purl.org/oseg/ontologies/OTRL#Otrl4&#45;&gt;http://purl.org/oseg/ontologies/OTRL#OTRL -->
<g id="edge12" class="edge">
<title>http://purl.org/oseg/ontologies/OTRL#Otrl4&#45;&gt;http://purl.org/oseg/ontologies/OTRL#OTRL</title>
<path fill="none" stroke="black" d="M106.45,-472.4C154.34,-479.34 239.82,-491.74 293.03,-499.45"/>
<polygon fill="black" stroke="black" points="292.82,-502.95 303.22,-500.93 293.83,-496.03 292.82,-502.95"/>
</g>
<!-- http://purl.org/oseg/ontologies/OTRL#Otrl4&#45;&gt;http://www.w3.org/2002/07/owl#class -->
<g id="edge6" class="edge">
<title>http://purl.org/oseg/ontologies/OTRL#Otrl4&#45;&gt;http://www.w3.org/2002/07/owl#class</title>
<path fill="none" stroke="black" d="M108.29,-466.78C193.72,-465.2 401.05,-458.49 464.08,-430.26 498.64,-414.79 529.08,-382.66 547.35,-360.3"/>
<polygon fill="black" stroke="black" points="550.25,-362.27 553.73,-352.27 544.77,-357.92 550.25,-362.27"/>
<text text-anchor="middle" x="341.04" y="-467.06" font-family="Times,serif" font-size="14.00">a</text>
</g>
<!-- http://purl.org/oseg/ontologies/OTRL#Otrl -->
<g id="node17" class="node">
<title>http://purl.org/oseg/ontologies/OTRL#Otrl</title>
<ellipse fill="none" stroke="#e377c2" cx="70" cy="-907.26" rx="31.64" ry="16.03"/>
<text text-anchor="middle" x="70" y="-903.56" font-family="Times,serif" font-size="14.00">Otrl</text>
</g>
<!-- http://purl.org/oseg/ontologies/OTRL#Odrl1 -->
<g id="node18" class="node">
<title>http://purl.org/oseg/ontologies/OTRL#Odrl1</title>
<ellipse fill="none" stroke="#e377c2" cx="341.04" cy="-253.26" rx="40.11" ry="16.03"/>
<text text-anchor="middle" x="341.04" y="-249.56" font-family="Times,serif" font-size="14.00">Odrl1</text>
</g>
<!-- http://purl.org/oseg/ontologies/OTRL#Odrl1&#45;&gt;http://www.w3.org/2002/07/owl#class -->
<g id="edge22" class="edge">
<title>http://purl.org/oseg/ontologies/OTRL#Odrl1&#45;&gt;http://www.w3.org/2002/07/owl#class</title>
<path fill="none" stroke="black" d="M378.94,-259.01C409.76,-264.61 454.43,-274.59 491.08,-290.26 506.6,-296.9 522.67,-306.46 535.87,-315.15"/>
<polygon fill="black" stroke="black" points="534.27,-318.29 544.51,-320.98 538.18,-312.49 534.27,-318.29"/>
<text text-anchor="middle" x="486.58" y="-294.06" font-family="Times,serif" font-size="14.00">a</text>
</g>
<!-- http://purl.org/oseg/ontologies/OTRL#Odrl1&#45;&gt;http://purl.org/oseg/ontologies/OTRL#ODRL -->
<g id="edge20" class="edge">
<title>http://purl.org/oseg/ontologies/OTRL#Odrl1&#45;&gt;http://purl.org/oseg/ontologies/OTRL#ODRL</title>
<path fill="none" stroke="black" d="M378.68,-259.12C410.58,-262.32 456.93,-262.25 491.08,-242.26 523.94,-223.04 545.08,-182.82 556.1,-156.19"/>
<polygon fill="black" stroke="black" points="559.42,-157.3 559.83,-146.71 552.91,-154.74 559.42,-157.3"/>
</g>
<!-- http://purl.org/oseg/ontologies/OTRL#Otrl5 -->
<g id="node19" class="node">
<title>http://purl.org/oseg/ontologies/OTRL#Otrl5</title>
<ellipse fill="none" stroke="#e377c2" cx="70" cy="-529.26" rx="38.37" ry="16.03"/>
<text text-anchor="middle" x="70" y="-525.56" font-family="Times,serif" font-size="14.00">Otrl5</text>
</g>
<!-- http://purl.org/oseg/ontologies/OTRL#Otrl5&#45;&gt;http://purl.org/oseg/ontologies/OTRL#OTRL -->
<g id="edge28" class="edge">
<title>http://purl.org/oseg/ontologies/OTRL#Otrl5&#45;&gt;http://purl.org/oseg/ontologies/OTRL#OTRL</title>
<path fill="none" stroke="black" d="M107.57,-526.14C155.25,-522.06 238.79,-514.92 291.67,-510.4"/>
<polygon fill="black" stroke="black" points="292.16,-513.87 301.82,-509.53 291.56,-506.9 292.16,-513.87"/>
</g>
<!-- http://purl.org/oseg/ontologies/OTRL#Otrl5&#45;&gt;http://www.w3.org/2002/07/owl#class -->
<g id="edge23" class="edge">
<title>http://purl.org/oseg/ontologies/OTRL#Otrl5&#45;&gt;http://www.w3.org/2002/07/owl#class</title>
<path fill="none" stroke="black" d="M101.73,-538.37C170.91,-557.05 342.35,-592.99 464.08,-531.26 528.34,-498.68 552.9,-408.04 561.37,-362.74"/>
<polygon fill="black" stroke="black" points="564.84,-363.23 563.11,-352.78 557.94,-362.03 564.84,-363.23"/>
<text text-anchor="middle" x="341.04" y="-570.06" font-family="Times,serif" font-size="14.00">a</text>
</g>
<!-- http://purl.org/oseg/ontologies/OTRL#exitCriteria -->
<g id="node20" class="node">
<title>http://purl.org/oseg/ontologies/OTRL#exitCriteria</title>
<ellipse fill="none" stroke="#e377c2" cx="70" cy="-742.26" rx="70.01" ry="16.03"/>
<text text-anchor="middle" x="70" y="-738.56" font-family="Times,serif" font-size="14.00">exitCriteria</text>
</g>
<!-- http://purl.org/oseg/ontologies/OTRL#exitCriteria&#45;&gt;http://www.w3.org/2002/07/owl#DatatypeProperty -->
<g id="edge25" class="edge">
<title>http://purl.org/oseg/ontologies/OTRL#exitCriteria&#45;&gt;http://www.w3.org/2002/07/owl#DatatypeProperty</title>
<path fill="none" stroke="black" d="M140.02,-743.84C159.63,-745.44 180.86,-748.29 200.01,-753.26 200.65,-753.43 255.22,-778.01 296.03,-796.41"/>
<polygon fill="black" stroke="black" points="294.73,-799.67 305.29,-800.59 297.61,-793.28 294.73,-799.67"/>
<text text-anchor="middle" x="179.01" y="-757.06" font-family="Times,serif" font-size="14.00">a</text>
</g>
<!-- http://purl.org/oseg/ontologies/OTRL#exitCriteria&#45;&gt;http://schema.org/Text -->
<g id="edge17" class="edge">
<title>http://purl.org/oseg/ontologies/OTRL#exitCriteria&#45;&gt;http://schema.org/Text</title>
<path fill="none" stroke="black" d="M109.48,-728.7C124.43,-724.1 141.82,-719.54 158.01,-717.26 198.24,-711.6 243.7,-716.33 279.13,-722.49"/>
<polygon fill="black" stroke="black" points="278.85,-726 289.31,-724.35 280.1,-719.11 278.85,-726"/>
<text text-anchor="middle" x="179.01" y="-721.06" font-family="Times,serif" font-size="14.00">range</text>
</g>
<!-- http://purl.org/oseg/ontologies/OTRL#Odrl3Star -->
<g id="node21" class="node">
<title>http://purl.org/oseg/ontologies/OTRL#Odrl3Star</title>
<ellipse fill="none" stroke="#e377c2" cx="341.04" cy="-197.26" rx="62.45" ry="16.03"/>
<text text-anchor="middle" x="341.04" y="-193.56" font-family="Times,serif" font-size="14.00">Odrl3Star</text>
</g>
<!-- http://purl.org/oseg/ontologies/OTRL#Odrl3Star&#45;&gt;http://www.w3.org/2002/07/owl#class -->
<g id="edge27" class="edge">
<title>http://purl.org/oseg/ontologies/OTRL#Odrl3Star&#45;&gt;http://www.w3.org/2002/07/owl#class</title>
<path fill="none" stroke="black" d="M397.17,-204.4C419.08,-208.94 443.84,-216.32 464.08,-228.26 499.92,-249.42 530.94,-287.01 548.9,-311.79"/>
<polygon fill="black" stroke="black" points="546.05,-313.84 554.69,-319.97 551.77,-309.79 546.05,-313.84"/>
<text text-anchor="middle" x="486.58" y="-251.06" font-family="Times,serif" font-size="14.00">a</text>
</g>
<!-- http://purl.org/oseg/ontologies/OTRL#Odrl3Star&#45;&gt;http://purl.org/oseg/ontologies/OTRL#ODRL -->
<g id="edge24" class="edge">
<title>http://purl.org/oseg/ontologies/OTRL#Odrl3Star&#45;&gt;http://purl.org/oseg/ontologies/OTRL#ODRL</title>
<path fill="none" stroke="black" d="M403.36,-196.21C430.87,-194.15 463.31,-189.45 491.08,-179.26 508.74,-172.79 526.39,-161.39 540.06,-151.21"/>
<polygon fill="black" stroke="black" points="542.23,-153.96 548.02,-145.09 537.96,-148.42 542.23,-153.96"/>
</g>
<!-- http://purl.org/oseg/ontologies/OTRL#Otrl3 -->
<g id="node22" class="node">
<title>http://purl.org/oseg/ontologies/OTRL#Otrl3</title>
<ellipse fill="none" stroke="#e377c2" cx="70" cy="-595.26" rx="38.37" ry="16.03"/>
<text text-anchor="middle" x="70" y="-591.56" font-family="Times,serif" font-size="14.00">Otrl3</text>
</g>
<!-- http://purl.org/oseg/ontologies/OTRL#Otrl3&#45;&gt;http://purl.org/oseg/ontologies/OTRL#OTRL -->
<g id="edge18" class="edge">
<title>http://purl.org/oseg/ontologies/OTRL#Otrl3&#45;&gt;http://purl.org/oseg/ontologies/OTRL#OTRL</title>
<path fill="none" stroke="black" d="M96.89,-583.58C125.94,-570.78 174.68,-550.21 218.01,-536.26 243.24,-528.14 272.02,-520.97 295.29,-515.68"/>
<polygon fill="black" stroke="black" points="296.23,-519.05 305.23,-513.45 294.7,-512.22 296.23,-519.05"/>
</g>
<!-- http://purl.org/oseg/ontologies/OTRL#Otrl3&#45;&gt;http://www.w3.org/2002/07/owl#class -->
<g id="edge8" class="edge">
<title>http://purl.org/oseg/ontologies/OTRL#Otrl3&#45;&gt;http://www.w3.org/2002/07/owl#class</title>
<path fill="none" stroke="black" d="M107.39,-598.99C193.28,-607.07 405.82,-622.6 464.08,-585.26 541.09,-535.91 559.54,-416.17 563.96,-362.75"/>
<polygon fill="black" stroke="black" points="567.46,-362.93 564.69,-352.7 560.48,-362.42 567.46,-362.93"/>
<text text-anchor="middle" x="341.04" y="-613.06" font-family="Times,serif" font-size="14.00">a</text>
</g>
</g>
</svg>
