<?xml version="1.0" encoding="UTF-8" standalone="no"?>
<!DOCTYPE svg PUBLIC "-//W3C//DTD SVG 1.1//EN"
 "http://www.w3.org/Graphics/SVG/1.1/DTD/svg11.dtd">
<!-- Generated by graphviz version 2.43.0 (0)
 -->
<!-- Title: G Pages: 1 -->
<svg width="2306pt" height="1792pt"
 viewBox="0.00 0.00 2306.00 1792.00" xmlns="http://www.w3.org/2000/svg" xmlns:xlink="http://www.w3.org/1999/xlink">
<g id="graph0" class="graph" transform="scale(1 1) rotate(0) translate(4 1788)">
<title>G</title>
<polygon fill="white" stroke="transparent" points="-4,4 -4,-1788 2302,-1788 2302,4 -4,4"/>
<!-- https://w3id.org/oseg/ont/otrl#ODRL -->
<g id="node1" class="node">
<title>https://w3id.org/oseg/ont/otrl#ODRL</title>
<ellipse fill="none" stroke="#e377c2" cx="1349.21" cy="-707.56" rx="62.87" ry="16.03"/>
<text text-anchor="middle" x="1349.21" y="-703.86" font-family="Times,serif" font-size="14.00">otrl:ODRL</text>
</g>
<!-- https://w3id.org/oseg/ont/otrl#OTRL2 -->
<g id="node2" class="node">
<title>https://w3id.org/oseg/ont/otrl#OTRL2</title>
<ellipse fill="none" stroke="#e377c2" cx="911.94" cy="-1439.32" rx="67.35" ry="16.03"/>
<text text-anchor="middle" x="911.94" y="-1435.62" font-family="Times,serif" font-size="14.00">otrl:OTRL2</text>
</g>
<!-- https://w3id.org/oseg/ont/otrl#OTRL -->
<g id="node11" class="node">
<title>https://w3id.org/oseg/ont/otrl#OTRL</title>
<ellipse fill="none" stroke="#e377c2" cx="967.94" cy="-1119.18" rx="60.62" ry="16.03"/>
<text text-anchor="middle" x="967.94" y="-1115.48" font-family="Times,serif" font-size="14.00">otrl:OTRL</text>
</g>
<!-- https://w3id.org/oseg/ont/otrl#OTRL2&#45;&gt;https://w3id.org/oseg/ont/otrl#OTRL -->
<g id="edge46" class="edge">
<title>https://w3id.org/oseg/ont/otrl#OTRL2&#45;&gt;https://w3id.org/oseg/ont/otrl#OTRL</title>
<path fill="none" stroke="black" d="M914.79,-1423.01C923.87,-1371.09 952.15,-1209.41 963.33,-1145.53"/>
<polygon fill="black" stroke="black" points="966.81,-1145.92 965.09,-1135.47 959.92,-1144.71 966.81,-1145.92"/>
</g>
<!-- https://w3id.org/oseg/ont/otrl#ODRL4 -->
<g id="node3" class="node">
<title>https://w3id.org/oseg/ont/otrl#ODRL4</title>
<ellipse fill="none" stroke="#e377c2" cx="1151.86" cy="-432.3" rx="69.09" ry="16.03"/>
<text text-anchor="middle" x="1151.86" y="-428.6" font-family="Times,serif" font-size="14.00">otrl:ODRL4</text>
</g>
<!-- https://w3id.org/oseg/ont/otrl#ODRL4&#45;&gt;https://w3id.org/oseg/ont/otrl#ODRL -->
<g id="edge16" class="edge">
<title>https://w3id.org/oseg/ont/otrl#ODRL4&#45;&gt;https://w3id.org/oseg/ont/otrl#ODRL</title>
<path fill="none" stroke="black" d="M1163.62,-448.69C1196.94,-495.17 1292.14,-627.95 1331.67,-683.1"/>
<polygon fill="black" stroke="black" points="1328.85,-685.17 1337.52,-691.25 1334.54,-681.09 1328.85,-685.17"/>
</g>
<!-- https://w3id.org/oseg/ont/otrl#OTRL3 -->
<g id="node4" class="node">
<title>https://w3id.org/oseg/ont/otrl#OTRL3</title>
<ellipse fill="none" stroke="#e377c2" cx="740" cy="-1306.72" rx="67.35" ry="16.03"/>
<text text-anchor="middle" x="740" y="-1303.02" font-family="Times,serif" font-size="14.00">otrl:OTRL3</text>
</g>
<!-- https://w3id.org/oseg/ont/otrl#OTRL3&#45;&gt;https://w3id.org/oseg/ont/otrl#OTRL -->
<g id="edge35" class="edge">
<title>https://w3id.org/oseg/ont/otrl#OTRL3&#45;&gt;https://w3id.org/oseg/ont/otrl#OTRL</title>
<path fill="none" stroke="black" d="M759.04,-1291.06C799.62,-1257.67 894.69,-1179.45 941.27,-1141.13"/>
<polygon fill="black" stroke="black" points="943.61,-1143.73 949.11,-1134.67 939.16,-1138.32 943.61,-1143.73"/>
</g>
<!-- https://w3id.org/oseg/ont/otrl#OTRL5 -->
<g id="node5" class="node">
<title>https://w3id.org/oseg/ont/otrl#OTRL5</title>
<ellipse fill="none" stroke="#e377c2" cx="1042.66" cy="-806.98" rx="67.35" ry="16.03"/>
<text text-anchor="middle" x="1042.66" y="-803.28" font-family="Times,serif" font-size="14.00">otrl:OTRL5</text>
</g>
<!-- https://w3id.org/oseg/ont/otrl#OTRL5&#45;&gt;https://w3id.org/oseg/ont/otrl#OTRL -->
<g id="edge7" class="edge">
<title>https://w3id.org/oseg/ont/otrl#OTRL5&#45;&gt;https://w3id.org/oseg/ont/otrl#OTRL</title>
<path fill="none" stroke="black" d="M1038.75,-823.33C1026.57,-874.21 989.26,-1030.1 974.27,-1092.73"/>
<polygon fill="black" stroke="black" points="970.82,-1092.08 971.9,-1102.62 977.63,-1093.71 970.82,-1092.08"/>
</g>
<!-- https://w3id.org/oseg/ont/otrl#ODRL3Star -->
<g id="node6" class="node">
<title>https://w3id.org/oseg/ont/otrl#ODRL3Star</title>
<ellipse fill="none" stroke="#e377c2" cx="961.32" cy="-683.98" rx="90.52" ry="16.03"/>
<text text-anchor="middle" x="961.32" y="-680.28" font-family="Times,serif" font-size="14.00">otrl:ODRL3Star</text>
</g>
<!-- https://w3id.org/oseg/ont/otrl#ODRL3Star&#45;&gt;https://w3id.org/oseg/ont/otrl#ODRL -->
<g id="edge32" class="edge">
<title>https://w3id.org/oseg/ont/otrl#ODRL3Star&#45;&gt;https://w3id.org/oseg/ont/otrl#ODRL</title>
<path fill="none" stroke="black" d="M1047.41,-689.21C1116.58,-693.42 1212.59,-699.26 1277.61,-703.21"/>
<polygon fill="black" stroke="black" points="1277.57,-706.71 1287.77,-703.83 1278,-699.73 1277.57,-706.71"/>
</g>
<!-- https://w3id.org/oseg/ont/otrl#ODRL3 -->
<g id="node7" class="node">
<title>https://w3id.org/oseg/ont/otrl#ODRL3</title>
<ellipse fill="none" stroke="#e377c2" cx="1493.89" cy="-480.84" rx="69.09" ry="16.03"/>
<text text-anchor="middle" x="1493.89" y="-477.14" font-family="Times,serif" font-size="14.00">otrl:ODRL3</text>
</g>
<!-- https://w3id.org/oseg/ont/otrl#ODRL3&#45;&gt;https://w3id.org/oseg/ont/otrl#ODRL -->
<g id="edge20" class="edge">
<title>https://w3id.org/oseg/ont/otrl#ODRL3&#45;&gt;https://w3id.org/oseg/ont/otrl#ODRL</title>
<path fill="none" stroke="black" d="M1483.49,-497.15C1458.46,-536.36 1394.78,-636.16 1365,-682.82"/>
<polygon fill="black" stroke="black" points="1361.95,-681.09 1359.52,-691.4 1367.85,-684.86 1361.95,-681.09"/>
</g>
<!-- https://w3id.org/oseg/ont/otrl#OTRL4 -->
<g id="node8" class="node">
<title>https://w3id.org/oseg/ont/otrl#OTRL4</title>
<ellipse fill="none" stroke="#e377c2" cx="703.37" cy="-914.43" rx="67.35" ry="16.03"/>
<text text-anchor="middle" x="703.37" y="-910.73" font-family="Times,serif" font-size="14.00">otrl:OTRL4</text>
</g>
<!-- https://w3id.org/oseg/ont/otrl#OTRL4&#45;&gt;https://w3id.org/oseg/ont/otrl#OTRL -->
<g id="edge40" class="edge">
<title>https://w3id.org/oseg/ont/otrl#OTRL4&#45;&gt;https://w3id.org/oseg/ont/otrl#OTRL</title>
<path fill="none" stroke="black" d="M723.69,-930.16C770.55,-966.42 886.27,-1055.98 939.86,-1097.45"/>
<polygon fill="black" stroke="black" points="937.86,-1100.33 947.91,-1103.68 942.14,-1094.79 937.86,-1100.33"/>
</g>
<!-- https://w3id.org/oseg/ont/otrl#OTRL6 -->
<g id="node9" class="node">
<title>https://w3id.org/oseg/ont/otrl#OTRL6</title>
<ellipse fill="none" stroke="#e377c2" cx="629.06" cy="-1144.4" rx="67.35" ry="16.03"/>
<text text-anchor="middle" x="629.06" y="-1140.7" font-family="Times,serif" font-size="14.00">otrl:OTRL6</text>
</g>
<!-- https://w3id.org/oseg/ont/otrl#OTRL6&#45;&gt;https://w3id.org/oseg/ont/otrl#OTRL -->
<g id="edge21" class="edge">
<title>https://w3id.org/oseg/ont/otrl#OTRL6&#45;&gt;https://w3id.org/oseg/ont/otrl#OTRL</title>
<path fill="none" stroke="black" d="M693.6,-1139.6C752.41,-1135.22 839.03,-1128.78 899.15,-1124.3"/>
<polygon fill="black" stroke="black" points="899.59,-1127.78 909.3,-1123.55 899.07,-1120.8 899.59,-1127.78"/>
</g>
<!-- https://w3id.org/oseg/ont/otrl#ODRL1 -->
<g id="node10" class="node">
<title>https://w3id.org/oseg/ont/otrl#ODRL1</title>
<ellipse fill="none" stroke="#e377c2" cx="1650.13" cy="-574.48" rx="69.09" ry="16.03"/>
<text text-anchor="middle" x="1650.13" y="-570.78" font-family="Times,serif" font-size="14.00">otrl:ODRL1</text>
</g>
<!-- https://w3id.org/oseg/ont/otrl#ODRL1&#45;&gt;https://w3id.org/oseg/ont/otrl#ODRL -->
<g id="edge26" class="edge">
<title>https://w3id.org/oseg/ont/otrl#ODRL1&#45;&gt;https://w3id.org/oseg/ont/otrl#ODRL</title>
<path fill="none" stroke="black" d="M1617.64,-588.84C1562.53,-613.22 1450.85,-662.61 1390.36,-689.36"/>
<polygon fill="black" stroke="black" points="1388.84,-686.21 1381.11,-693.45 1391.67,-692.61 1388.84,-686.21"/>
</g>
<!-- https://w3id.org/oseg/ont/otrl#ODRL2 -->
<g id="node12" class="node">
<title>https://w3id.org/oseg/ont/otrl#ODRL2</title>
<ellipse fill="none" stroke="#e377c2" cx="1411.3" cy="-1024.53" rx="69.09" ry="16.03"/>
<text text-anchor="middle" x="1411.3" y="-1020.83" font-family="Times,serif" font-size="14.00">otrl:ODRL2</text>
</g>
<!-- https://w3id.org/oseg/ont/otrl#ODRL2&#45;&gt;https://w3id.org/oseg/ont/otrl#ODRL -->
<g id="edge27" class="edge">
<title>https://w3id.org/oseg/ont/otrl#ODRL2&#45;&gt;https://w3id.org/oseg/ont/otrl#ODRL</title>
<path fill="none" stroke="black" d="M1408.05,-1007.94C1397.91,-956.16 1366.78,-797.27 1354.39,-733.98"/>
<polygon fill="black" stroke="black" points="1357.79,-733.13 1352.43,-723.99 1350.92,-734.48 1357.79,-733.13"/>
</g>
<!-- https://w3id.org/oseg/ont/otrl#OTRL1 -->
<g id="node13" class="node">
<title>https://w3id.org/oseg/ont/otrl#OTRL1</title>
<ellipse fill="none" stroke="#e377c2" cx="1133.15" cy="-1401.4" rx="67.35" ry="16.03"/>
<text text-anchor="middle" x="1133.15" y="-1397.7" font-family="Times,serif" font-size="14.00">otrl:OTRL1</text>
</g>
<!-- https://w3id.org/oseg/ont/otrl#OTRL1&#45;&gt;https://w3id.org/oseg/ont/otrl#OTRL -->
<g id="edge22" class="edge">
<title>https://w3id.org/oseg/ont/otrl#OTRL1&#45;&gt;https://w3id.org/oseg/ont/otrl#OTRL</title>
<path fill="none" stroke="black" d="M1123.56,-1385C1095.83,-1337.64 1015.49,-1200.41 982.42,-1143.92"/>
<polygon fill="black" stroke="black" points="985.43,-1142.13 977.36,-1135.27 979.39,-1145.67 985.43,-1142.13"/>
</g>
<!-- http://schema.org/Text -->
<g id="node14" class="node">
<title>http://schema.org/Text</title>
<ellipse fill="none" stroke="#e377c2" cx="1561.01" cy="-1069.84" rx="74.91" ry="16.03"/>
<text text-anchor="middle" x="1561.01" y="-1066.14" font-family="Times,serif" font-size="14.00">schema:Text</text>
</g>
<!-- https://orcid.org/0009&#45;0004&#45;3559&#45;6542 -->
<g id="node15" class="node">
<title>https://orcid.org/0009&#45;0004&#45;3559&#45;6542</title>
<ellipse fill="none" stroke="#e377c2" cx="1852.23" cy="-1280.31" rx="113.69" ry="16.03"/>
<text text-anchor="middle" x="1852.23" y="-1276.61" font-family="Times,serif" font-size="14.00">orcid:0009&#45;0004&#45;3...</text>
</g>
<!-- https://w3id.org/oseg/ont/otrl -->
<g id="node16" class="node">
<title>https://w3id.org/oseg/ont/otrl</title>
<ellipse fill="none" stroke="#e377c2" cx="2038.07" cy="-1371.5" rx="50.82" ry="16.03"/>
<text text-anchor="middle" x="2038.07" y="-1367.8" font-family="Times,serif" font-size="14.00">ns1:otrl</text>
</g>
<!-- https://w3id.org/oseg/ont/otrl&#45;&gt;https://orcid.org/0009&#45;0004&#45;3559&#45;6542 -->
<g id="edge10" class="edge">
<title>https://w3id.org/oseg/ont/otrl&#45;&gt;https://orcid.org/0009&#45;0004&#45;3559&#45;6542</title>
<path fill="none" stroke="black" d="M2010.25,-1357.85C1979.29,-1342.66 1928.98,-1317.97 1893.45,-1300.53"/>
<polygon fill="black" stroke="black" points="1894.82,-1297.31 1884.3,-1296.05 1891.74,-1303.59 1894.82,-1297.31"/>
<text text-anchor="middle" x="1894.35" y="-1332.99" font-family="Times,serif" font-size="14.00">dcterms:creator</text>
</g>
<!-- http://id.loc.gov/vocabulary/iso639&#45;1/en -->
<g id="node17" class="node">
<title>http://id.loc.gov/vocabulary/iso639&#45;1/en</title>
<ellipse fill="none" stroke="#e377c2" cx="2048.83" cy="-1330.44" rx="45.01" ry="16.03"/>
<text text-anchor="middle" x="2048.83" y="-1326.74" font-family="Times,serif" font-size="14.00">ns2:en</text>
</g>
<!-- https://w3id.org/oseg/ont/otrl&#45;&gt;http://id.loc.gov/vocabulary/iso639&#45;1/en -->
<g id="edge18" class="edge">
<title>https://w3id.org/oseg/ont/otrl&#45;&gt;http://id.loc.gov/vocabulary/iso639&#45;1/en</title>
<path fill="none" stroke="black" d="M2042.32,-1355.27C2042.35,-1355.19 2042.37,-1355.1 2042.39,-1355.01"/>
<polygon fill="black" stroke="black" points="2045.39,-1357.38 2044.54,-1346.82 2038.62,-1355.61 2045.39,-1357.38"/>
<text text-anchor="middle" x="2106.86" y="-1343.94" font-family="Times,serif" font-size="14.00">dcterms:language</text>
</g>
<!-- https://orcid.org/0000&#45;0002&#45;1611&#45;7129 -->
<g id="node19" class="node">
<title>https://orcid.org/0000&#45;0002&#45;1611&#45;7129</title>
<ellipse fill="none" stroke="#e377c2" cx="2042.89" cy="-1413.37" rx="113.69" ry="16.03"/>
<text text-anchor="middle" x="2042.89" y="-1409.67" font-family="Times,serif" font-size="14.00">orcid:0000&#45;0002&#45;1...</text>
</g>
<!-- https://w3id.org/oseg/ont/otrl&#45;&gt;https://orcid.org/0000&#45;0002&#45;1611&#45;7129 -->
<g id="edge30" class="edge">
<title>https://w3id.org/oseg/ont/otrl&#45;&gt;https://orcid.org/0000&#45;0002&#45;1611&#45;7129</title>
<path fill="none" stroke="black" d="M2039.97,-1388.05C2039.98,-1388.14 2039.99,-1388.23 2040,-1388.32"/>
<polygon fill="black" stroke="black" points="2036.38,-1387.41 2041,-1396.94 2043.33,-1386.61 2036.38,-1387.41"/>
<text text-anchor="middle" x="1982.49" y="-1391.99" font-family="Times,serif" font-size="14.00">dcterms:creator</text>
</g>
<!-- https://www.gnu.org/licenses/gpl&#45;3.0.txt -->
<g id="node21" class="node">
<title>https://www.gnu.org/licenses/gpl&#45;3.0.txt</title>
<ellipse fill="none" stroke="#e377c2" cx="2211.96" cy="-1319.3" rx="85.62" ry="16.03"/>
<text text-anchor="middle" x="2211.96" y="-1315.6" font-family="Times,serif" font-size="14.00">ns3:gpl&#45;3.0.txt</text>
</g>
<!-- https://w3id.org/oseg/ont/otrl&#45;&gt;https://www.gnu.org/licenses/gpl&#45;3.0.txt -->
<g id="edge37" class="edge">
<title>https://w3id.org/oseg/ont/otrl&#45;&gt;https://www.gnu.org/licenses/gpl&#45;3.0.txt</title>
<path fill="none" stroke="black" d="M2083.66,-1364.03C2110.65,-1357.05 2144.55,-1346.86 2170.74,-1337.85"/>
<polygon fill="black" stroke="black" points="2172.09,-1341.09 2180.36,-1334.47 2169.77,-1334.48 2172.09,-1341.09"/>
<text text-anchor="middle" x="2162.2" y="-1354.74" font-family="Times,serif" font-size="14.00">cc:license</text>
</g>
<!-- https://w3id.org/oseg/ont/otrl&#45;&gt;https://www.gnu.org/licenses/gpl&#45;3.0.txt -->
<g id="edge42" class="edge">
<title>https://w3id.org/oseg/ont/otrl&#45;&gt;https://www.gnu.org/licenses/gpl&#45;3.0.txt</title>
<path fill="none" stroke="black" d="M2065.68,-1357.79C2086.13,-1350.24 2114.95,-1341.1 2141.61,-1333.52"/>
<polygon fill="black" stroke="black" points="2142.62,-1336.87 2151.31,-1330.8 2140.74,-1330.13 2142.62,-1336.87"/>
<text text-anchor="middle" x="2160.14" y="-1334.45" font-family="Times,serif" font-size="14.00">dcterms:license</text>
</g>
<!-- https://w3id.org/oseg/ont/1.1.0/otrl -->
<g id="node22" class="node">
<title>https://w3id.org/oseg/ont/1.1.0/otrl</title>
<ellipse fill="none" stroke="#e377c2" cx="1957.69" cy="-1492.49" rx="50.82" ry="16.03"/>
<text text-anchor="middle" x="1957.69" y="-1488.79" font-family="Times,serif" font-size="14.00">ns4:otrl</text>
</g>
<!-- https://w3id.org/oseg/ont/otrl&#45;&gt;https://w3id.org/oseg/ont/1.1.0/otrl -->
<g id="edge49" class="edge">
<title>https://w3id.org/oseg/ont/otrl&#45;&gt;https://w3id.org/oseg/ont/1.1.0/otrl</title>
<path fill="none" stroke="black" d="M2027.23,-1387.82C2013.55,-1408.41 1989.9,-1444.01 1974.03,-1467.9"/>
<polygon fill="black" stroke="black" points="1970.98,-1466.16 1968.36,-1476.43 1976.81,-1470.04 1970.98,-1466.16"/>
<text text-anchor="middle" x="1949.13" y="-1431.66" font-family="Times,serif" font-size="14.00">owl:versionIRI</text>
</g>
<!-- https://w3id.org/oseg/ont/otrl#goal -->
<g id="node18" class="node">
<title>https://w3id.org/oseg/ont/otrl#goal</title>
<ellipse fill="none" stroke="#e377c2" cx="1267.54" cy="-1018.22" rx="54.39" ry="16.03"/>
<text text-anchor="middle" x="1267.54" y="-1014.52" font-family="Times,serif" font-size="14.00">otrl:goal</text>
</g>
<!-- https://w3id.org/oseg/ont/otrl#goal&#45;&gt;https://w3id.org/oseg/ont/otrl#ODRL -->
<g id="edge12" class="edge">
<title>https://w3id.org/oseg/ont/otrl#goal&#45;&gt;https://w3id.org/oseg/ont/otrl#ODRL</title>
<path fill="none" stroke="black" d="M1271.82,-1001.95C1285.13,-951.32 1325.91,-796.21 1342.29,-733.89"/>
<polygon fill="black" stroke="black" points="1345.72,-734.6 1344.88,-724.04 1338.95,-732.82 1345.72,-734.6"/>
<text text-anchor="middle" x="1221.05" y="-871.72" font-family="Times,serif" font-size="14.00">schema:domainIncludes</text>
</g>
<!-- https://w3id.org/oseg/ont/otrl#goal&#45;&gt;https://w3id.org/oseg/ont/otrl#OTRL -->
<g id="edge45" class="edge">
<title>https://w3id.org/oseg/ont/otrl#goal&#45;&gt;https://w3id.org/oseg/ont/otrl#OTRL</title>
<path fill="none" stroke="black" d="M1231.4,-1030.4C1177.44,-1048.58 1075.75,-1082.85 1015.72,-1103.08"/>
<polygon fill="black" stroke="black" points="1014.45,-1099.81 1006.09,-1106.32 1016.69,-1106.45 1014.45,-1099.81"/>
<text text-anchor="middle" x="1209.56" y="-1070.54" font-family="Times,serif" font-size="14.00">schema:domainIncludes</text>
</g>
<!-- https://w3id.org/oseg/ont/otrl#goal&#45;&gt;http://schema.org/Text -->
<g id="edge1" class="edge">
<title>https://w3id.org/oseg/ont/otrl#goal&#45;&gt;http://schema.org/Text</title>
<path fill="none" stroke="black" d="M1314.69,-1026.51C1362.82,-1034.98 1438,-1048.2 1492.65,-1057.81"/>
<polygon fill="black" stroke="black" points="1492.15,-1061.28 1502.61,-1059.57 1493.36,-1054.39 1492.15,-1061.28"/>
<text text-anchor="middle" x="1382.67" y="-1045.96" font-family="Times,serif" font-size="14.00">range</text>
</g>
<!-- https://w3id.org/oseg/ont/otrl#Odrl4 -->
<g id="node20" class="node">
<title>https://w3id.org/oseg/ont/otrl#Odrl4</title>
<ellipse fill="none" stroke="#e377c2" cx="991.76" cy="-178.14" rx="61.54" ry="16.03"/>
<text text-anchor="middle" x="991.76" y="-174.44" font-family="Times,serif" font-size="14.00">otrl:Odrl4</text>
</g>
<!-- https://w3id.org/oseg/ont/otrl#Odrl4&#45;&gt;https://w3id.org/oseg/ont/otrl#ODRL4 -->
<g id="edge17" class="edge">
<title>https://w3id.org/oseg/ont/otrl#Odrl4&#45;&gt;https://w3id.org/oseg/ont/otrl#ODRL4</title>
<path fill="none" stroke="black" d="M998.2,-194.71C1020.81,-238.38 1094.84,-356.5 1131.37,-407.91"/>
<polygon fill="black" stroke="black" points="1128.62,-410.08 1137.32,-416.13 1134.3,-405.98 1128.62,-410.08"/>
<text text-anchor="middle" x="984.79" y="-305.11" font-family="Times,serif" font-size="14.00">schema:supersededBy</text>
</g>
<!-- https://w3id.org/oseg/ont/otrl#Odrl4&#45;&gt;https://w3id.org/oseg/ont/otrl#ODRL4 -->
<g id="edge25" class="edge">
<title>https://w3id.org/oseg/ont/otrl#Odrl4&#45;&gt;https://w3id.org/oseg/ont/otrl#ODRL4</title>
<path fill="none" stroke="black" d="M1006.12,-194.06C1037.82,-236.94 1112.23,-354.8 1140.74,-406.96"/>
<polygon fill="black" stroke="black" points="1137.71,-408.73 1145.51,-415.91 1143.89,-405.43 1137.71,-408.73"/>
<text text-anchor="middle" x="1030.93" y="-289.31" font-family="Times,serif" font-size="14.00">owl:sameAs</text>
</g>
<!-- https://w3id.org/oseg/ont/otrl#exitCriteria -->
<g id="node23" class="node">
<title>https://w3id.org/oseg/ont/otrl#exitCriteria</title>
<ellipse fill="none" stroke="#e377c2" cx="1269.9" cy="-957.77" rx="91.43" ry="16.03"/>
<text text-anchor="middle" x="1269.9" y="-954.07" font-family="Times,serif" font-size="14.00">otrl:exitCriteria</text>
</g>
<!-- https://w3id.org/oseg/ont/otrl#exitCriteria&#45;&gt;https://w3id.org/oseg/ont/otrl#ODRL -->
<g id="edge38" class="edge">
<title>https://w3id.org/oseg/ont/otrl#exitCriteria&#45;&gt;https://w3id.org/oseg/ont/otrl#ODRL</title>
<path fill="none" stroke="black" d="M1275.1,-941.35C1288.55,-898.94 1324.53,-785.43 1340.9,-733.79"/>
<polygon fill="black" stroke="black" points="1344.3,-734.63 1343.99,-724.04 1337.63,-732.51 1344.3,-734.63"/>
<text text-anchor="middle" x="1222" y="-841.37" font-family="Times,serif" font-size="14.00">schema:domainIncludes</text>
</g>
<!-- https://w3id.org/oseg/ont/otrl#exitCriteria&#45;&gt;https://w3id.org/oseg/ont/otrl#OTRL -->
<g id="edge14" class="edge">
<title>https://w3id.org/oseg/ont/otrl#exitCriteria&#45;&gt;https://w3id.org/oseg/ont/otrl#OTRL</title>
<path fill="none" stroke="black" d="M1240.95,-973.25C1185.63,-1002.82 1065.02,-1067.29 1004.34,-1099.72"/>
<polygon fill="black" stroke="black" points="1002.66,-1096.65 995.49,-1104.45 1005.96,-1102.83 1002.66,-1096.65"/>
<text text-anchor="middle" x="1036.64" y="-1025.29" font-family="Times,serif" font-size="14.00">schema:domainIncludes</text>
</g>
<!-- https://w3id.org/oseg/ont/otrl#exitCriteria&#45;&gt;http://schema.org/Text -->
<g id="edge19" class="edge">
<title>https://w3id.org/oseg/ont/otrl#exitCriteria&#45;&gt;http://schema.org/Text</title>
<path fill="none" stroke="black" d="M1308.26,-972.54C1361.38,-992.99 1457.26,-1029.9 1514.43,-1051.91"/>
<polygon fill="black" stroke="black" points="1513.36,-1055.25 1523.95,-1055.57 1515.88,-1048.71 1513.36,-1055.25"/>
<text text-anchor="middle" x="1390.34" y="-1001.02" font-family="Times,serif" font-size="14.00">range</text>
</g>
<!-- https://w3id.org/oseg/ont/otrl#Odrl3Star -->
<g id="node24" class="node">
<title>https://w3id.org/oseg/ont/otrl#Odrl3Star</title>
<ellipse fill="none" stroke="black" cx="443.53" cy="-835.89" rx="218.49" ry="16.03"/>
<text text-anchor="middle" x="443.53" y="-832.19" font-family="Times,serif" font-size="14.00">https://w3id.org/oseg/ont/otrl#Odrl3Star</text>
</g>
<!-- https://w3id.org/oseg/ont/otrl#Odrl3Star&#45;&gt;https://w3id.org/oseg/ont/otrl#ODRL3Star -->
<g id="edge2" class="edge">
<title>https://w3id.org/oseg/ont/otrl#Odrl3Star&#45;&gt;https://w3id.org/oseg/ont/otrl#ODRL3Star</title>
<path fill="none" stroke="black" d="M513.09,-820.43C620.28,-791.97 822.99,-732.28 914.46,-702.02"/>
<polygon fill="black" stroke="black" points="915.63,-705.32 924.01,-698.84 913.41,-698.68 915.63,-705.32"/>
<text text-anchor="middle" x="671.28" y="-765.03" font-family="Times,serif" font-size="14.00">owl:sameAs</text>
</g>
<!-- https://w3id.org/oseg/ont/otrl#Odrl3Star&#45;&gt;https://w3id.org/oseg/ont/otrl#ODRL3Star -->
<g id="edge24" class="edge">
<title>https://w3id.org/oseg/ont/otrl#Odrl3Star&#45;&gt;https://w3id.org/oseg/ont/otrl#ODRL3Star</title>
<path fill="none" stroke="black" d="M484.37,-819.85C573.04,-790.18 783.91,-728.03 893.14,-699.08"/>
<polygon fill="black" stroke="black" points="894.28,-702.4 903.06,-696.47 892.5,-695.63 894.28,-702.4"/>
<text text-anchor="middle" x="608.75" y="-748.27" font-family="Times,serif" font-size="14.00">schema:supersededBy</text>
</g>
<!-- https://w3id.org/oseg/ont/otrl#Otrl4 -->
<g id="node25" class="node">
<title>https://w3id.org/oseg/ont/otrl#Otrl4</title>
<ellipse fill="none" stroke="black" cx="327.82" cy="-677.12" rx="194.41" ry="16.03"/>
<text text-anchor="middle" x="327.82" y="-673.42" font-family="Times,serif" font-size="14.00">https://w3id.org/oseg/ont/otrl#Otrl4</text>
</g>
<!-- https://w3id.org/oseg/ont/otrl#Otrl4&#45;&gt;https://w3id.org/oseg/ont/otrl#OTRL4 -->
<g id="edge3" class="edge">
<title>https://w3id.org/oseg/ont/otrl#Otrl4&#45;&gt;https://w3id.org/oseg/ont/otrl#OTRL4</title>
<path fill="none" stroke="black" d="M347.3,-693.38C406.52,-735.81 584.87,-848.85 664.4,-894.79"/>
<polygon fill="black" stroke="black" points="662.72,-897.86 673.14,-899.79 666.2,-891.79 662.72,-897.86"/>
<text text-anchor="middle" x="463.35" y="-797.88" font-family="Times,serif" font-size="14.00">owl:sameAs</text>
</g>
<!-- https://w3id.org/oseg/ont/otrl#Otrl4&#45;&gt;https://w3id.org/oseg/ont/otrl#OTRL4 -->
<g id="edge6" class="edge">
<title>https://w3id.org/oseg/ont/otrl#Otrl4&#45;&gt;https://w3id.org/oseg/ont/otrl#OTRL4</title>
<path fill="none" stroke="black" d="M360.64,-693.23C433.76,-734.93 608.74,-845.53 676.23,-892.75"/>
<polygon fill="black" stroke="black" points="674.46,-895.79 684.65,-898.72 678.51,-890.08 674.46,-895.79"/>
<text text-anchor="middle" x="438.43" y="-781.79" font-family="Times,serif" font-size="14.00">schema:supersededBy</text>
</g>
<!-- https://w3id.org/oseg/ont/otrl#Otrl6 -->
<g id="node26" class="node">
<title>https://w3id.org/oseg/ont/otrl#Otrl6</title>
<ellipse fill="none" stroke="black" cx="193.99" cy="-1161.13" rx="194.41" ry="16.03"/>
<text text-anchor="middle" x="193.99" y="-1157.43" font-family="Times,serif" font-size="14.00">https://w3id.org/oseg/ont/otrl#Otrl6</text>
</g>
<!-- https://w3id.org/oseg/ont/otrl#Otrl6&#45;&gt;https://w3id.org/oseg/ont/otrl#OTRL6 -->
<g id="edge4" class="edge">
<title>https://w3id.org/oseg/ont/otrl#Otrl6&#45;&gt;https://w3id.org/oseg/ont/otrl#OTRL6</title>
<path fill="none" stroke="black" d="M388.25,-1160.38C448.92,-1158.23 512.04,-1155.28 558.43,-1152.26"/>
<polygon fill="black" stroke="black" points="558.92,-1155.74 568.66,-1151.58 558.45,-1148.75 558.92,-1155.74"/>
<text text-anchor="middle" x="430.84" y="-1160.12" font-family="Times,serif" font-size="14.00">owl:sameAs</text>
</g>
<!-- https://w3id.org/oseg/ont/otrl#Otrl6&#45;&gt;https://w3id.org/oseg/ont/otrl#OTRL6 -->
<g id="edge28" class="edge">
<title>https://w3id.org/oseg/ont/otrl#Otrl6&#45;&gt;https://w3id.org/oseg/ont/otrl#OTRL6</title>
<path fill="none" stroke="black" d="M330.81,-1149.54C403.77,-1145.93 490.84,-1142.92 552.02,-1142.07"/>
<polygon fill="black" stroke="black" points="552.41,-1145.56 562.36,-1141.94 552.32,-1138.57 552.41,-1145.56"/>
<text text-anchor="middle" x="481.41" y="-1134.61" font-family="Times,serif" font-size="14.00">schema:supersededBy</text>
</g>
<!-- https://w3id.org/oseg/ont/otrl#Odrl1 -->
<g id="node27" class="node">
<title>https://w3id.org/oseg/ont/otrl#Odrl1</title>
<ellipse fill="none" stroke="black" cx="2066.97" cy="-396.22" rx="196.65" ry="16.03"/>
<text text-anchor="middle" x="2066.97" y="-392.52" font-family="Times,serif" font-size="14.00">https://w3id.org/oseg/ont/otrl#Odrl1</text>
</g>
<!-- https://w3id.org/oseg/ont/otrl#Odrl1&#45;&gt;https://w3id.org/oseg/ont/otrl#ODRL1 -->
<g id="edge5" class="edge">
<title>https://w3id.org/oseg/ont/otrl#Odrl1&#45;&gt;https://w3id.org/oseg/ont/otrl#ODRL1</title>
<path fill="none" stroke="black" d="M2018.62,-412.06C1933.72,-444.88 1759.88,-519.37 1685.33,-555.03"/>
<polygon fill="black" stroke="black" points="1683.8,-551.88 1676.32,-559.39 1686.85,-558.18 1683.8,-551.88"/>
<text text-anchor="middle" x="1771.97" y="-487.35" font-family="Times,serif" font-size="14.00">schema:supersededBy</text>
</g>
<!-- https://w3id.org/oseg/ont/otrl#Odrl1&#45;&gt;https://w3id.org/oseg/ont/otrl#ODRL1 -->
<g id="edge23" class="edge">
<title>https://w3id.org/oseg/ont/otrl#Odrl1&#45;&gt;https://w3id.org/oseg/ont/otrl#ODRL1</title>
<path fill="none" stroke="black" d="M2038.45,-412.45C1968.85,-446.3 1789.67,-523.22 1701.15,-557.6"/>
<polygon fill="black" stroke="black" points="1699.66,-554.42 1691.59,-561.28 1702.18,-560.96 1699.66,-554.42"/>
<text text-anchor="middle" x="1912.3" y="-488.82" font-family="Times,serif" font-size="14.00">owl:sameAs</text>
</g>
<!-- https://w3id.org/oseg/ont/otrl#Otrl -->
<g id="node28" class="node">
<title>https://w3id.org/oseg/ont/otrl#Otrl</title>
<ellipse fill="none" stroke="black" cx="923.09" cy="-1063.68" rx="188.18" ry="16.03"/>
<text text-anchor="middle" x="923.09" y="-1059.98" font-family="Times,serif" font-size="14.00">https://w3id.org/oseg/ont/otrl#Otrl</text>
</g>
<!-- https://w3id.org/oseg/ont/otrl#Otrl&#45;&gt;https://w3id.org/oseg/ont/otrl#OTRL -->
<g id="edge8" class="edge">
<title>https://w3id.org/oseg/ont/otrl#Otrl&#45;&gt;https://w3id.org/oseg/ont/otrl#OTRL</title>
<path fill="none" stroke="black" d="M928.98,-1080.2C932.09,-1085.05 936.03,-1090.43 940.22,-1095.62"/>
<polygon fill="black" stroke="black" points="937.77,-1098.15 946.92,-1103.5 943.11,-1093.62 937.77,-1098.15"/>
<text text-anchor="middle" x="892.1" y="-1091.71" font-family="Times,serif" font-size="14.00">owl:sameAs</text>
</g>
<!-- https://w3id.org/oseg/ont/otrl#Otrl&#45;&gt;https://w3id.org/oseg/ont/otrl#OTRL -->
<g id="edge51" class="edge">
<title>https://w3id.org/oseg/ont/otrl#Otrl&#45;&gt;https://w3id.org/oseg/ont/otrl#OTRL</title>
<path fill="none" stroke="black" d="M944.62,-1079.93C948.65,-1084.47 952.72,-1089.49 956.33,-1094.39"/>
<polygon fill="black" stroke="black" points="953.68,-1096.71 962.23,-1102.96 959.44,-1092.74 953.68,-1096.71"/>
<text text-anchor="middle" x="1030.47" y="-1090.96" font-family="Times,serif" font-size="14.00">schema:supersededBy</text>
</g>
<!-- https://w3id.org/oseg/ont/otrl#Odrl -->
<g id="node29" class="node">
<title>https://w3id.org/oseg/ont/otrl#Odrl</title>
<ellipse fill="none" stroke="black" cx="1777.19" cy="-722.44" rx="190.42" ry="16.03"/>
<text text-anchor="middle" x="1777.19" y="-718.74" font-family="Times,serif" font-size="14.00">https://w3id.org/oseg/ont/otrl#Odrl</text>
</g>
<!-- https://w3id.org/oseg/ont/otrl#Odrl&#45;&gt;https://w3id.org/oseg/ont/otrl#ODRL -->
<g id="edge9" class="edge">
<title>https://w3id.org/oseg/ont/otrl#Odrl&#45;&gt;https://w3id.org/oseg/ont/otrl#ODRL</title>
<path fill="none" stroke="black" d="M1638.76,-711.26C1566.31,-707.97 1480.61,-705.38 1421.34,-704.87"/>
<polygon fill="black" stroke="black" points="1421.35,-701.37 1411.33,-704.8 1421.3,-708.37 1421.35,-701.37"/>
<text text-anchor="middle" x="1487.55" y="-696.86" font-family="Times,serif" font-size="14.00">owl:sameAs</text>
</g>
<!-- https://w3id.org/oseg/ont/otrl#Odrl&#45;&gt;https://w3id.org/oseg/ont/otrl#ODRL -->
<g id="edge34" class="edge">
<title>https://w3id.org/oseg/ont/otrl#Odrl&#45;&gt;https://w3id.org/oseg/ont/otrl#ODRL</title>
<path fill="none" stroke="black" d="M1586.75,-722.54C1525.93,-720.61 1462.54,-717.87 1416.56,-714.99"/>
<polygon fill="black" stroke="black" points="1416.64,-711.49 1406.43,-714.33 1416.19,-718.47 1416.64,-711.49"/>
<text text-anchor="middle" x="1421.65" y="-722.56" font-family="Times,serif" font-size="14.00">schema:supersededBy</text>
</g>
<!-- https://w3id.org/oseg/ont/otrl#Odrl2 -->
<g id="node30" class="node">
<title>https://w3id.org/oseg/ont/otrl#Odrl2</title>
<ellipse fill="none" stroke="black" cx="1466.43" cy="-1464.08" rx="196.65" ry="16.03"/>
<text text-anchor="middle" x="1466.43" y="-1460.38" font-family="Times,serif" font-size="14.00">https://w3id.org/oseg/ont/otrl#Odrl2</text>
</g>
<!-- https://w3id.org/oseg/ont/otrl#Odrl2&#45;&gt;https://w3id.org/oseg/ont/otrl#ODRL2 -->
<g id="edge11" class="edge">
<title>https://w3id.org/oseg/ont/otrl#Odrl2&#45;&gt;https://w3id.org/oseg/ont/otrl#ODRL2</title>
<path fill="none" stroke="black" d="M1467.13,-1447.57C1463.93,-1381.13 1433.03,-1132.91 1418.1,-1050.97"/>
<polygon fill="black" stroke="black" points="1421.5,-1050.13 1416.19,-1040.97 1414.63,-1051.45 1421.5,-1050.13"/>
<text text-anchor="middle" x="1362.62" y="-1238.07" font-family="Times,serif" font-size="14.00">schema:supersededBy</text>
</g>
<!-- https://w3id.org/oseg/ont/otrl#Odrl2&#45;&gt;https://w3id.org/oseg/ont/otrl#ODRL2 -->
<g id="edge36" class="edge">
<title>https://w3id.org/oseg/ont/otrl#Odrl2&#45;&gt;https://w3id.org/oseg/ont/otrl#ODRL2</title>
<path fill="none" stroke="black" d="M1461.56,-1447.73C1448.17,-1381.58 1416.83,-1133.36 1411.2,-1051.16"/>
<polygon fill="black" stroke="black" points="1414.69,-1050.89 1410.6,-1041.12 1407.71,-1051.31 1414.69,-1050.89"/>
<text text-anchor="middle" x="1393.88" y="-1253.25" font-family="Times,serif" font-size="14.00">owl:sameAs</text>
</g>
<!-- https://w3id.org/oseg/ont/otrl#Otrl2 -->
<g id="node31" class="node">
<title>https://w3id.org/oseg/ont/otrl#Otrl2</title>
<ellipse fill="none" stroke="black" cx="900.59" cy="-1498.83" rx="194.41" ry="16.03"/>
<text text-anchor="middle" x="900.59" y="-1495.13" font-family="Times,serif" font-size="14.00">https://w3id.org/oseg/ont/otrl#Otrl2</text>
</g>
<!-- https://w3id.org/oseg/ont/otrl#Otrl2&#45;&gt;https://w3id.org/oseg/ont/otrl#OTRL2 -->
<g id="edge13" class="edge">
<title>https://w3id.org/oseg/ont/otrl#Otrl2&#45;&gt;https://w3id.org/oseg/ont/otrl#OTRL2</title>
<path fill="none" stroke="black" d="M910.04,-1482.46C911.54,-1477.24 912.82,-1471.33 913.72,-1465.59"/>
<polygon fill="black" stroke="black" points="917.2,-1465.97 914.91,-1455.63 910.25,-1465.15 917.2,-1465.97"/>
<text text-anchor="middle" x="954.38" y="-1462.82" font-family="Times,serif" font-size="14.00">owl:sameAs</text>
</g>
<!-- https://w3id.org/oseg/ont/otrl#Otrl2&#45;&gt;https://w3id.org/oseg/ont/otrl#OTRL2 -->
<g id="edge39" class="edge">
<title>https://w3id.org/oseg/ont/otrl#Otrl2&#45;&gt;https://w3id.org/oseg/ont/otrl#OTRL2</title>
<path fill="none" stroke="black" d="M897.63,-1482.39C898.03,-1477.2 898.89,-1471.33 900.07,-1465.63"/>
<polygon fill="black" stroke="black" points="903.51,-1466.29 902.47,-1455.75 896.71,-1464.64 903.51,-1466.29"/>
<text text-anchor="middle" x="818.85" y="-1462.81" font-family="Times,serif" font-size="14.00">schema:supersededBy</text>
</g>
<!-- https://w3id.org/oseg/ont/otrl#Otrl5 -->
<g id="node32" class="node">
<title>https://w3id.org/oseg/ont/otrl#Otrl5</title>
<ellipse fill="none" stroke="black" cx="1188.45" cy="-359.46" rx="194.41" ry="16.03"/>
<text text-anchor="middle" x="1188.45" y="-355.76" font-family="Times,serif" font-size="14.00">https://w3id.org/oseg/ont/otrl#Otrl5</text>
</g>
<!-- https://w3id.org/oseg/ont/otrl#Otrl5&#45;&gt;https://w3id.org/oseg/ont/otrl#OTRL5 -->
<g id="edge15" class="edge">
<title>https://w3id.org/oseg/ont/otrl#Otrl5&#45;&gt;https://w3id.org/oseg/ont/otrl#OTRL5</title>
<path fill="none" stroke="black" d="M1180.15,-375.86C1152.92,-443.07 1069.78,-697.72 1047.72,-780.69"/>
<polygon fill="black" stroke="black" points="1044.27,-780.02 1045.18,-790.58 1051.05,-781.77 1044.27,-780.02"/>
<text text-anchor="middle" x="1033.93" y="-582.07" font-family="Times,serif" font-size="14.00">schema:supersededBy</text>
</g>
<!-- https://w3id.org/oseg/ont/otrl#Otrl5&#45;&gt;https://w3id.org/oseg/ont/otrl#OTRL5 -->
<g id="edge43" class="edge">
<title>https://w3id.org/oseg/ont/otrl#Otrl5&#45;&gt;https://w3id.org/oseg/ont/otrl#OTRL5</title>
<path fill="none" stroke="black" d="M1185.91,-375.96C1169.33,-443.49 1086.35,-699 1054.62,-781.29"/>
<polygon fill="black" stroke="black" points="1051.34,-780.07 1050.93,-790.66 1057.85,-782.64 1051.34,-780.07"/>
<text text-anchor="middle" x="1162.77" y="-582.42" font-family="Times,serif" font-size="14.00">owl:sameAs</text>
</g>
<!-- https://w3id.org/oseg/ont/otrl#Odrl3 -->
<g id="node33" class="node">
<title>https://w3id.org/oseg/ont/otrl#Odrl3</title>
<ellipse fill="none" stroke="black" cx="1677.67" cy="-224.17" rx="196.65" ry="16.03"/>
<text text-anchor="middle" x="1677.67" y="-220.47" font-family="Times,serif" font-size="14.00">https://w3id.org/oseg/ont/otrl#Odrl3</text>
</g>
<!-- https://w3id.org/oseg/ont/otrl#Odrl3&#45;&gt;https://w3id.org/oseg/ont/otrl#ODRL3 -->
<g id="edge29" class="edge">
<title>https://w3id.org/oseg/ont/otrl#Odrl3&#45;&gt;https://w3id.org/oseg/ont/otrl#ODRL3</title>
<path fill="none" stroke="black" d="M1661.44,-240.47C1625.31,-284.15 1539.64,-403.61 1506.8,-455.88"/>
<polygon fill="black" stroke="black" points="1503.74,-454.18 1501.48,-464.53 1509.7,-457.85 1503.74,-454.18"/>
<text text-anchor="middle" x="1504.12" y="-351.98" font-family="Times,serif" font-size="14.00">schema:supersededBy</text>
</g>
<!-- https://w3id.org/oseg/ont/otrl#Odrl3&#45;&gt;https://w3id.org/oseg/ont/otrl#ODRL3 -->
<g id="edge41" class="edge">
<title>https://w3id.org/oseg/ont/otrl#Odrl3&#45;&gt;https://w3id.org/oseg/ont/otrl#ODRL3</title>
<path fill="none" stroke="black" d="M1669.98,-240.65C1643.54,-284.78 1557.59,-405.39 1516.26,-456.98"/>
<polygon fill="black" stroke="black" points="1513.39,-454.97 1509.79,-464.94 1518.82,-459.39 1513.39,-454.97"/>
<text text-anchor="middle" x="1635.62" y="-352.62" font-family="Times,serif" font-size="14.00">owl:sameAs</text>
</g>
<!-- https://w3id.org/oseg/ont/otrl#Otrl3 -->
<g id="node34" class="node">
<title>https://w3id.org/oseg/ont/otrl#Otrl3</title>
<ellipse fill="none" stroke="black" cx="434.49" cy="-1510.72" rx="194.41" ry="16.03"/>
<text text-anchor="middle" x="434.49" y="-1507.02" font-family="Times,serif" font-size="14.00">https://w3id.org/oseg/ont/otrl#Otrl3</text>
</g>
<!-- https://w3id.org/oseg/ont/otrl#Otrl3&#45;&gt;https://w3id.org/oseg/ont/otrl#OTRL3 -->
<g id="edge31" class="edge">
<title>https://w3id.org/oseg/ont/otrl#Otrl3&#45;&gt;https://w3id.org/oseg/ont/otrl#OTRL3</title>
<path fill="none" stroke="black" d="M466.1,-1494.63C526.85,-1458.22 658.65,-1370.19 714.37,-1328.76"/>
<polygon fill="black" stroke="black" points="716.75,-1331.35 722.63,-1322.53 712.54,-1325.76 716.75,-1331.35"/>
<text text-anchor="middle" x="547.73" y="-1415.5" font-family="Times,serif" font-size="14.00">owl:sameAs</text>
</g>
<!-- https://w3id.org/oseg/ont/otrl#Otrl3&#45;&gt;https://w3id.org/oseg/ont/otrl#OTRL3 -->
<g id="edge50" class="edge">
<title>https://w3id.org/oseg/ont/otrl#Otrl3&#45;&gt;https://w3id.org/oseg/ont/otrl#OTRL3</title>
<path fill="none" stroke="black" d="M452.55,-1494.37C501.11,-1457.27 634.89,-1367.55 701.43,-1327.01"/>
<polygon fill="black" stroke="black" points="703.6,-1329.79 710.36,-1321.63 699.99,-1323.79 703.6,-1329.79"/>
<text text-anchor="middle" x="496.99" y="-1399.49" font-family="Times,serif" font-size="14.00">schema:supersededBy</text>
</g>
<!-- https://w3id.org/oseg/ont/otrl#Odrl5 -->
<g id="node35" class="node">
<title>https://w3id.org/oseg/ont/otrl#Odrl5</title>
<ellipse fill="none" stroke="black" cx="807.33" cy="-15.95" rx="196.65" ry="16.03"/>
<text text-anchor="middle" x="807.33" y="-12.25" font-family="Times,serif" font-size="14.00">https://w3id.org/oseg/ont/otrl#Odrl5</text>
</g>
<!-- https://w3id.org/oseg/ont/otrl#Odrl5&#45;&gt;https://w3id.org/oseg/ont/otrl#Odrl4 -->
<g id="edge33" class="edge">
<title>https://w3id.org/oseg/ont/otrl#Odrl5&#45;&gt;https://w3id.org/oseg/ont/otrl#Odrl4</title>
<path fill="none" stroke="black" d="M820.13,-32.46C848.8,-62.1 918.36,-123.77 959.64,-156.63"/>
<polygon fill="black" stroke="black" points="957.72,-159.57 967.74,-163 962.04,-154.07 957.72,-159.57"/>
<text text-anchor="middle" x="809.88" y="-98.35" font-family="Times,serif" font-size="14.00">schema:supersededBy</text>
</g>
<!-- https://w3id.org/oseg/ont/otrl#Odrl5&#45;&gt;https://w3id.org/oseg/ont/otrl#Odrl4 -->
<g id="edge48" class="edge">
<title>https://w3id.org/oseg/ont/otrl#Odrl5&#45;&gt;https://w3id.org/oseg/ont/otrl#Odrl4</title>
<path fill="none" stroke="black" d="M832.99,-32.37C870.13,-61.26 937.86,-120.81 971.64,-154.24"/>
<polygon fill="black" stroke="black" points="969.55,-157.1 979.07,-161.74 974.52,-152.18 969.55,-157.1"/>
<text text-anchor="middle" x="859.81" y="-82.11" font-family="Times,serif" font-size="14.00">owl:sameAs</text>
</g>
<!-- https://w3id.org/oseg/ont/otrl#Otrl1 -->
<g id="node36" class="node">
<title>https://w3id.org/oseg/ont/otrl#Otrl1</title>
<ellipse fill="none" stroke="black" cx="1371.38" cy="-1768.23" rx="194.41" ry="16.03"/>
<text text-anchor="middle" x="1371.38" y="-1764.53" font-family="Times,serif" font-size="14.00">https://w3id.org/oseg/ont/otrl#Otrl1</text>
</g>
<!-- https://w3id.org/oseg/ont/otrl#Otrl1&#45;&gt;https://w3id.org/oseg/ont/otrl#OTRL1 -->
<g id="edge44" class="edge">
<title>https://w3id.org/oseg/ont/otrl#Otrl1&#45;&gt;https://w3id.org/oseg/ont/otrl#OTRL1</title>
<path fill="none" stroke="black" d="M1364.15,-1751.83C1332.01,-1693.39 1203.87,-1495.55 1153.48,-1425.87"/>
<polygon fill="black" stroke="black" points="1156.19,-1423.65 1147.45,-1417.66 1150.54,-1427.79 1156.19,-1423.65"/>
<text text-anchor="middle" x="1216.31" y="-1577.65" font-family="Times,serif" font-size="14.00">owl:sameAs</text>
</g>
<!-- https://w3id.org/oseg/ont/otrl#Otrl1&#45;&gt;https://w3id.org/oseg/ont/otrl#OTRL1 -->
<g id="edge47" class="edge">
<title>https://w3id.org/oseg/ont/otrl#Otrl1&#45;&gt;https://w3id.org/oseg/ont/otrl#OTRL1</title>
<path fill="none" stroke="black" d="M1356.92,-1751.75C1313.55,-1693.54 1186.23,-1497.72 1145.6,-1427.05"/>
<polygon fill="black" stroke="black" points="1148.42,-1424.93 1140.46,-1417.94 1142.32,-1428.37 1148.42,-1424.93"/>
<text text-anchor="middle" x="1171.26" y="-1593.2" font-family="Times,serif" font-size="14.00">schema:supersededBy</text>
</g>
</g>
</svg>
