<?xml version="1.0" encoding="UTF-8" standalone="no"?>
<!DOCTYPE svg PUBLIC "-//W3C//DTD SVG 1.1//EN"
 "http://www.w3.org/Graphics/SVG/1.1/DTD/svg11.dtd">
<!-- Generated by graphviz version 2.43.0 (0)
 -->
<!-- Title: G Pages: 1 -->
<svg width="632pt" height="929pt"
 viewBox="0.00 0.00 631.63 929.42" xmlns="http://www.w3.org/2000/svg" xmlns:xlink="http://www.w3.org/1999/xlink">
<g id="graph0" class="graph" transform="scale(1 1) rotate(0) translate(4 925.42)">
<title>G</title>
<polygon fill="white" stroke="transparent" points="-4,4 -4,-925.42 627.63,-925.42 627.63,4 -4,4"/>
<!-- http://www.w3.org/2002/07/owl#DatatypeProperty -->
<g id="node1" class="node">
<title>http://www.w3.org/2002/07/owl#DatatypeProperty</title>
<ellipse fill="none" stroke="#1f77b4" cx="341.04" cy="-102.16" rx="123.07" ry="16.03"/>
<text text-anchor="middle" x="341.04" y="-98.46" font-family="Times,serif" font-size="14.00">owl:DatatypeProperty</text>
</g>
<!-- http://www.w3.org/2002/07/owl#Ontology -->
<g id="node2" class="node">
<title>http://www.w3.org/2002/07/owl#Ontology</title>
<ellipse fill="none" stroke="#1f77b4" cx="341.04" cy="-165.16" rx="77.56" ry="16.03"/>
<text text-anchor="middle" x="341.04" y="-161.46" font-family="Times,serif" font-size="14.00">owl:Ontology</text>
</g>
<!-- http://purl.org/oseg/ontologies/OTRL#OTRL -->
<g id="node3" class="node">
<title>http://purl.org/oseg/ontologies/OTRL#OTRL</title>
<ellipse fill="none" stroke="#e377c2" cx="341.04" cy="-714.16" rx="39.7" ry="16.03"/>
<text text-anchor="middle" x="341.04" y="-710.46" font-family="Times,serif" font-size="14.00">OTRL</text>
</g>
<!-- http://www.w3.org/2002/07/owl#class -->
<g id="node5" class="node">
<title>http://www.w3.org/2002/07/owl#class</title>
<ellipse fill="none" stroke="#1f77b4" cx="566.36" cy="-548.16" rx="57.05" ry="16.03"/>
<text text-anchor="middle" x="566.36" y="-544.46" font-family="Times,serif" font-size="14.00">owl:class</text>
</g>
<!-- http://purl.org/oseg/ontologies/OTRL#OTRL&#45;&gt;http://www.w3.org/2002/07/owl#class -->
<g id="edge15" class="edge">
<title>http://purl.org/oseg/ontologies/OTRL#OTRL&#45;&gt;http://www.w3.org/2002/07/owl#class</title>
<path fill="none" stroke="black" d="M380.8,-713.44C413.18,-711.02 459.06,-703.14 491.08,-679.16 526.27,-652.8 547.28,-604.54 557.55,-574.53"/>
<polygon fill="black" stroke="black" points="560.97,-575.33 560.75,-564.74 554.32,-573.16 560.97,-575.33"/>
<text text-anchor="middle" x="486.58" y="-686.96" font-family="Times,serif" font-size="14.00">a</text>
</g>
<!-- http://purl.org/oseg/ontologies/OTRL#ODRL -->
<g id="node4" class="node">
<title>http://purl.org/oseg/ontologies/OTRL#ODRL</title>
<ellipse fill="none" stroke="#e377c2" cx="566.36" cy="-336.16" rx="41.94" ry="16.03"/>
<text text-anchor="middle" x="566.36" y="-332.46" font-family="Times,serif" font-size="14.00">ODRL</text>
</g>
<!-- http://purl.org/oseg/ontologies/OTRL#Otrl4 -->
<g id="node6" class="node">
<title>http://purl.org/oseg/ontologies/OTRL#Otrl4</title>
<ellipse fill="none" stroke="#e377c2" cx="70" cy="-740.16" rx="38.37" ry="16.03"/>
<text text-anchor="middle" x="70" y="-736.46" font-family="Times,serif" font-size="14.00">Otrl4</text>
</g>
<!-- http://purl.org/oseg/ontologies/OTRL#Otrl4&#45;&gt;http://purl.org/oseg/ontologies/OTRL#OTRL -->
<g id="edge1" class="edge">
<title>http://purl.org/oseg/ontologies/OTRL#Otrl4&#45;&gt;http://purl.org/oseg/ontologies/OTRL#OTRL</title>
<path fill="none" stroke="black" d="M107.57,-736.63C155.38,-732.01 239.27,-723.9 292.12,-718.79"/>
<polygon fill="black" stroke="black" points="292.64,-722.26 302.26,-717.81 291.97,-715.29 292.64,-722.26"/>
</g>
<!-- http://purl.org/oseg/ontologies/OTRL#Otrl4&#45;&gt;http://www.w3.org/2002/07/owl#class -->
<g id="edge13" class="edge">
<title>http://purl.org/oseg/ontologies/OTRL#Otrl4&#45;&gt;http://www.w3.org/2002/07/owl#class</title>
<path fill="none" stroke="black" d="M102.06,-749.12C171.57,-767.31 343.03,-801.84 464.08,-739.16 526.74,-706.72 551.99,-618.92 560.98,-574.56"/>
<polygon fill="black" stroke="black" points="564.46,-575.01 562.88,-564.53 557.58,-573.71 564.46,-575.01"/>
<text text-anchor="middle" x="341.04" y="-777.96" font-family="Times,serif" font-size="14.00">a</text>
</g>
<!-- http://purl.org/oseg/ontologies/OTRL#Otrl1 -->
<g id="node7" class="node">
<title>http://purl.org/oseg/ontologies/OTRL#Otrl1</title>
<ellipse fill="none" stroke="#e377c2" cx="70" cy="-626.16" rx="38.37" ry="16.03"/>
<text text-anchor="middle" x="70" y="-622.46" font-family="Times,serif" font-size="14.00">Otrl1</text>
</g>
<!-- http://purl.org/oseg/ontologies/OTRL#Otrl1&#45;&gt;http://purl.org/oseg/ontologies/OTRL#OTRL -->
<g id="edge26" class="edge">
<title>http://purl.org/oseg/ontologies/OTRL#Otrl1&#45;&gt;http://purl.org/oseg/ontologies/OTRL#OTRL</title>
<path fill="none" stroke="black" d="M99.61,-636.73C112.05,-641.38 126.78,-646.96 140.01,-652.16 174.88,-665.88 182.38,-672.55 218.01,-684.16 243.21,-692.38 271.99,-699.56 295.26,-704.83"/>
<polygon fill="black" stroke="black" points="294.68,-708.28 305.2,-707.04 296.2,-701.45 294.68,-708.28"/>
</g>
<!-- http://purl.org/oseg/ontologies/OTRL#Otrl1&#45;&gt;http://www.w3.org/2002/07/owl#class -->
<g id="edge14" class="edge">
<title>http://purl.org/oseg/ontologies/OTRL#Otrl1&#45;&gt;http://www.w3.org/2002/07/owl#class</title>
<path fill="none" stroke="black" d="M107.92,-623.71C177.95,-618.62 334.67,-605.03 464.08,-578.16 482.24,-574.39 501.86,-568.92 518.95,-563.67"/>
<polygon fill="black" stroke="black" points="520.19,-566.95 528.69,-560.63 518.1,-560.27 520.19,-566.95"/>
<text text-anchor="middle" x="341.04" y="-617.96" font-family="Times,serif" font-size="14.00">a</text>
</g>
<!-- http://purl.org/oseg/ontologies/OTRL#goal -->
<g id="node8" class="node">
<title>http://purl.org/oseg/ontologies/OTRL#goal</title>
<ellipse fill="none" stroke="#e377c2" cx="70" cy="-89.16" rx="33.47" ry="16.03"/>
<text text-anchor="middle" x="70" y="-85.46" font-family="Times,serif" font-size="14.00">goal</text>
</g>
<!-- http://purl.org/oseg/ontologies/OTRL#goal&#45;&gt;http://www.w3.org/2002/07/owl#DatatypeProperty -->
<g id="edge2" class="edge">
<title>http://purl.org/oseg/ontologies/OTRL#goal&#45;&gt;http://www.w3.org/2002/07/owl#DatatypeProperty</title>
<path fill="none" stroke="black" d="M103.19,-90.72C131.21,-92.07 173.72,-94.12 215.03,-96.12"/>
<polygon fill="black" stroke="black" points="215.05,-99.63 225.21,-96.61 215.39,-92.63 215.05,-99.63"/>
<text text-anchor="middle" x="179.01" y="-99.96" font-family="Times,serif" font-size="14.00">a</text>
</g>
<!-- http://schema.org/Text -->
<g id="node19" class="node">
<title>http://schema.org/Text</title>
<ellipse fill="none" stroke="#e377c2" cx="341.04" cy="-26.16" rx="74.91" ry="16.03"/>
<text text-anchor="middle" x="341.04" y="-22.46" font-family="Times,serif" font-size="14.00">schema:Text</text>
</g>
<!-- http://purl.org/oseg/ontologies/OTRL#goal&#45;&gt;http://schema.org/Text -->
<g id="edge24" class="edge">
<title>http://purl.org/oseg/ontologies/OTRL#goal&#45;&gt;http://schema.org/Text</title>
<path fill="none" stroke="black" d="M100.31,-82.3C143.15,-72.27 223.86,-53.37 279.73,-40.29"/>
<polygon fill="black" stroke="black" points="280.57,-43.68 289.51,-37.99 278.97,-36.87 280.57,-43.68"/>
<text text-anchor="middle" x="179.01" y="-72.96" font-family="Times,serif" font-size="14.00">range</text>
</g>
<!-- http://purl.org/oseg/ontologies/OTRL#Otrl -->
<g id="node9" class="node">
<title>http://purl.org/oseg/ontologies/OTRL#Otrl</title>
<ellipse fill="none" stroke="#e377c2" cx="70" cy="-854.16" rx="31.64" ry="16.03"/>
<text text-anchor="middle" x="70" y="-850.46" font-family="Times,serif" font-size="14.00">Otrl</text>
</g>
<!-- http://purl.org/oseg/ontologies/OTRL#Odrl2 -->
<g id="node10" class="node">
<title>http://purl.org/oseg/ontologies/OTRL#Odrl2</title>
<ellipse fill="none" stroke="#e377c2" cx="341.04" cy="-216.16" rx="40.11" ry="16.03"/>
<text text-anchor="middle" x="341.04" y="-212.46" font-family="Times,serif" font-size="14.00">Odrl2</text>
</g>
<!-- http://purl.org/oseg/ontologies/OTRL#Odrl2&#45;&gt;http://purl.org/oseg/ontologies/OTRL#ODRL -->
<g id="edge20" class="edge">
<title>http://purl.org/oseg/ontologies/OTRL#Odrl2&#45;&gt;http://purl.org/oseg/ontologies/OTRL#ODRL</title>
<path fill="none" stroke="black" d="M377.98,-209.49C409.85,-205.47 456.55,-204.42 491.08,-224.16 524.31,-243.16 545.45,-283.8 556.35,-310.54"/>
<polygon fill="black" stroke="black" points="553.15,-311.98 560.03,-320.04 559.68,-309.45 553.15,-311.98"/>
</g>
<!-- http://purl.org/oseg/ontologies/OTRL#Odrl2&#45;&gt;http://www.w3.org/2002/07/owl#class -->
<g id="edge17" class="edge">
<title>http://purl.org/oseg/ontologies/OTRL#Odrl2&#45;&gt;http://www.w3.org/2002/07/owl#class</title>
<path fill="none" stroke="black" d="M380.69,-219.61C407.08,-223.83 441.27,-233.24 464.08,-254.16 484.66,-273.04 538.14,-453.49 557.89,-521.98"/>
<polygon fill="black" stroke="black" points="554.63,-523.32 560.76,-531.96 561.36,-521.39 554.63,-523.32"/>
<text text-anchor="middle" x="486.58" y="-310.96" font-family="Times,serif" font-size="14.00">a</text>
</g>
<!-- http://purl.org/oseg/ontologies/OTRL#Odrl3 -->
<g id="node11" class="node">
<title>http://purl.org/oseg/ontologies/OTRL#Odrl3</title>
<ellipse fill="none" stroke="#e377c2" cx="341.04" cy="-279.16" rx="40.11" ry="16.03"/>
<text text-anchor="middle" x="341.04" y="-275.46" font-family="Times,serif" font-size="14.00">Odrl3</text>
</g>
<!-- http://purl.org/oseg/ontologies/OTRL#Odrl3&#45;&gt;http://purl.org/oseg/ontologies/OTRL#ODRL -->
<g id="edge7" class="edge">
<title>http://purl.org/oseg/ontologies/OTRL#Odrl3&#45;&gt;http://purl.org/oseg/ontologies/OTRL#ODRL</title>
<path fill="none" stroke="black" d="M380.73,-275.78C411.43,-274.38 455.03,-275.28 491.08,-287.16 509.18,-293.13 527.09,-304.73 540.79,-315.14"/>
<polygon fill="black" stroke="black" points="538.71,-317.97 548.73,-321.41 543.05,-312.47 538.71,-317.97"/>
</g>
<!-- http://purl.org/oseg/ontologies/OTRL#Odrl3&#45;&gt;http://www.w3.org/2002/07/owl#class -->
<g id="edge3" class="edge">
<title>http://purl.org/oseg/ontologies/OTRL#Odrl3&#45;&gt;http://www.w3.org/2002/07/owl#class</title>
<path fill="none" stroke="black" d="M380.17,-283.55C406.49,-288.35 440.8,-298.36 464.08,-319.16 525.88,-374.38 551.8,-474.36 561.01,-521.81"/>
<polygon fill="black" stroke="black" points="557.61,-522.69 562.86,-531.89 564.5,-521.42 557.61,-522.69"/>
<text text-anchor="middle" x="486.58" y="-347.96" font-family="Times,serif" font-size="14.00">a</text>
</g>
<!-- http://www.w3.org/1999/02/22&#45;rdf&#45;syntax&#45;ns#nil -->
<g id="node12" class="node">
<title>http://www.w3.org/1999/02/22&#45;rdf&#45;syntax&#45;ns#nil</title>
<ellipse fill="none" stroke="#e377c2" cx="70" cy="-905.16" rx="42.35" ry="16.03"/>
<text text-anchor="middle" x="70" y="-901.46" font-family="Times,serif" font-size="14.00">rdf:nil</text>
</g>
<!-- http://purl.org/oseg/ontologies/OTRL -->
<g id="node13" class="node">
<title>http://purl.org/oseg/ontologies/OTRL</title>
<ellipse fill="none" stroke="#e377c2" cx="70" cy="-165.16" rx="60.62" ry="16.03"/>
<text text-anchor="middle" x="70" y="-161.46" font-family="Times,serif" font-size="14.00">ns1:OTRL</text>
</g>
<!-- http://purl.org/oseg/ontologies/OTRL&#45;&gt;http://www.w3.org/2002/07/owl#Ontology -->
<g id="edge4" class="edge">
<title>http://purl.org/oseg/ontologies/OTRL&#45;&gt;http://www.w3.org/2002/07/owl#Ontology</title>
<path fill="none" stroke="black" d="M131.05,-165.16C166.88,-165.16 213,-165.16 252.8,-165.16"/>
<polygon fill="black" stroke="black" points="253.04,-168.66 263.04,-165.16 253.04,-161.66 253.04,-168.66"/>
<text text-anchor="middle" x="179.01" y="-168.96" font-family="Times,serif" font-size="14.00">a</text>
</g>
<!-- http://purl.org/oseg/ontologies/OTRL&#45;&gt;http://purl.org/oseg/ontologies/OTRL -->
<g id="edge11" class="edge">
<title>http://purl.org/oseg/ontologies/OTRL&#45;&gt;http://purl.org/oseg/ontologies/OTRL</title>
<path fill="none" stroke="black" d="M51.18,-180.67C46.64,-190.28 52.92,-199.42 70,-199.42 80.68,-199.42 87.14,-195.85 89.37,-190.82"/>
<polygon fill="black" stroke="black" points="92.85,-190.46 88.82,-180.67 85.86,-190.84 92.85,-190.46"/>
<text text-anchor="middle" x="70" y="-203.22" font-family="Times,serif" font-size="14.00">owl:versionIRI</text>
</g>
<!-- http://purl.org/oseg/ontologies/OTRL#exitCriteria -->
<g id="node14" class="node">
<title>http://purl.org/oseg/ontologies/OTRL#exitCriteria</title>
<ellipse fill="none" stroke="#e377c2" cx="70" cy="-26.16" rx="70.01" ry="16.03"/>
<text text-anchor="middle" x="70" y="-22.46" font-family="Times,serif" font-size="14.00">exitCriteria</text>
</g>
<!-- http://purl.org/oseg/ontologies/OTRL#exitCriteria&#45;&gt;http://www.w3.org/2002/07/owl#DatatypeProperty -->
<g id="edge19" class="edge">
<title>http://purl.org/oseg/ontologies/OTRL#exitCriteria&#45;&gt;http://www.w3.org/2002/07/owl#DatatypeProperty</title>
<path fill="none" stroke="black" d="M139.02,-29.06C159.01,-31.24 180.69,-34.94 200.01,-41.16 208.72,-43.97 209.77,-47.17 218.01,-51.16 241.51,-62.56 268.22,-73.89 290.65,-82.98"/>
<polygon fill="black" stroke="black" points="289.39,-86.24 299.98,-86.72 292,-79.75 289.39,-86.24"/>
<text text-anchor="middle" x="179.01" y="-44.96" font-family="Times,serif" font-size="14.00">a</text>
</g>
<!-- http://purl.org/oseg/ontologies/OTRL#exitCriteria&#45;&gt;http://schema.org/Text -->
<g id="edge25" class="edge">
<title>http://purl.org/oseg/ontologies/OTRL#exitCriteria&#45;&gt;http://schema.org/Text</title>
<path fill="none" stroke="black" d="M110.82,-12.76C125.47,-8.47 142.32,-4.28 158.01,-2.16 200.45,3.59 248.49,-3.31 284.56,-11.16"/>
<polygon fill="black" stroke="black" points="283.87,-14.6 294.4,-13.39 285.42,-7.77 283.87,-14.6"/>
<text text-anchor="middle" x="179.01" y="-5.96" font-family="Times,serif" font-size="14.00">range</text>
</g>
<!-- http://purl.org/oseg/ontologies/OTRL#Otrl3 -->
<g id="node15" class="node">
<title>http://purl.org/oseg/ontologies/OTRL#Otrl3</title>
<ellipse fill="none" stroke="#e377c2" cx="70" cy="-563.16" rx="38.37" ry="16.03"/>
<text text-anchor="middle" x="70" y="-559.46" font-family="Times,serif" font-size="14.00">Otrl3</text>
</g>
<!-- http://purl.org/oseg/ontologies/OTRL#Otrl3&#45;&gt;http://purl.org/oseg/ontologies/OTRL#OTRL -->
<g id="edge6" class="edge">
<title>http://purl.org/oseg/ontologies/OTRL#Otrl3&#45;&gt;http://purl.org/oseg/ontologies/OTRL#OTRL</title>
<path fill="none" stroke="black" d="M96.13,-575.16C109.61,-582.05 126.23,-591.27 140.01,-601.16 169.39,-622.26 176.7,-628.49 200.01,-656.16 209.54,-667.48 205.97,-675.56 218.01,-684.16 239.37,-699.42 267.6,-706.96 291.54,-710.67"/>
<polygon fill="black" stroke="black" points="291.11,-714.14 301.5,-712.04 292.07,-707.21 291.11,-714.14"/>
</g>
<!-- http://purl.org/oseg/ontologies/OTRL#Otrl3&#45;&gt;http://www.w3.org/2002/07/owl#class -->
<g id="edge5" class="edge">
<title>http://purl.org/oseg/ontologies/OTRL#Otrl3&#45;&gt;http://www.w3.org/2002/07/owl#class</title>
<path fill="none" stroke="black" d="M108.16,-562.03C191.39,-559.51 393.72,-553.37 499.09,-550.17"/>
<polygon fill="black" stroke="black" points="499.4,-553.66 509.29,-549.86 499.19,-546.67 499.4,-553.66"/>
<text text-anchor="middle" x="341.04" y="-562.96" font-family="Times,serif" font-size="14.00">a</text>
</g>
<!-- http://purl.org/oseg/ontologies/OTRL#Odrl -->
<g id="node16" class="node">
<title>http://purl.org/oseg/ontologies/OTRL#Odrl</title>
<ellipse fill="none" stroke="#e377c2" cx="341.04" cy="-511.16" rx="33.88" ry="16.03"/>
<text text-anchor="middle" x="341.04" y="-507.46" font-family="Times,serif" font-size="14.00">Odrl</text>
</g>
<!-- http://purl.org/oseg/ontologies/OTRL#Odrl&#45;&gt;http://www.w3.org/2002/07/owl#class -->
<g id="edge22" class="edge">
<title>http://purl.org/oseg/ontologies/OTRL#Odrl&#45;&gt;http://www.w3.org/2002/07/owl#class</title>
<path fill="none" stroke="black" d="M373.78,-515.75C403.99,-520.19 450.7,-527.24 491.08,-534.16 496.8,-535.14 502.75,-536.2 508.7,-537.28"/>
<polygon fill="black" stroke="black" points="508.18,-540.74 518.64,-539.11 509.44,-533.86 508.18,-540.74"/>
<text text-anchor="middle" x="486.58" y="-537.96" font-family="Times,serif" font-size="14.00">a</text>
</g>
<!-- http://purl.org/oseg/ontologies/OTRL#Odrl4 -->
<g id="node17" class="node">
<title>http://purl.org/oseg/ontologies/OTRL#Odrl4</title>
<ellipse fill="none" stroke="#e377c2" cx="341.04" cy="-404.16" rx="40.11" ry="16.03"/>
<text text-anchor="middle" x="341.04" y="-400.46" font-family="Times,serif" font-size="14.00">Odrl4</text>
</g>
<!-- http://purl.org/oseg/ontologies/OTRL#Odrl4&#45;&gt;http://purl.org/oseg/ontologies/OTRL#ODRL -->
<g id="edge16" class="edge">
<title>http://purl.org/oseg/ontologies/OTRL#Odrl4&#45;&gt;http://purl.org/oseg/ontologies/OTRL#ODRL</title>
<path fill="none" stroke="black" d="M381.48,-403.97C412.22,-402.69 455.49,-398.35 491.08,-385.16 508.71,-378.62 526.37,-367.22 540.04,-357.06"/>
<polygon fill="black" stroke="black" points="542.21,-359.82 548.01,-350.95 537.94,-354.27 542.21,-359.82"/>
</g>
<!-- http://purl.org/oseg/ontologies/OTRL#Odrl4&#45;&gt;http://www.w3.org/2002/07/owl#class -->
<g id="edge21" class="edge">
<title>http://purl.org/oseg/ontologies/OTRL#Odrl4&#45;&gt;http://www.w3.org/2002/07/owl#class</title>
<path fill="none" stroke="black" d="M380.31,-408.02C405.55,-411.92 438.56,-419.71 464.08,-435.16 500.97,-457.5 532.09,-497.47 549.74,-523.4"/>
<polygon fill="black" stroke="black" points="546.96,-525.53 555.41,-531.93 552.79,-521.66 546.96,-525.53"/>
<text text-anchor="middle" x="486.58" y="-458.96" font-family="Times,serif" font-size="14.00">a</text>
</g>
<!-- http://purl.org/oseg/ontologies/OTRL#Odrl3Star -->
<g id="node18" class="node">
<title>http://purl.org/oseg/ontologies/OTRL#Odrl3Star</title>
<ellipse fill="none" stroke="#e377c2" cx="341.04" cy="-460.16" rx="62.45" ry="16.03"/>
<text text-anchor="middle" x="341.04" y="-456.46" font-family="Times,serif" font-size="14.00">Odrl3Star</text>
</g>
<!-- http://purl.org/oseg/ontologies/OTRL#Odrl3Star&#45;&gt;http://purl.org/oseg/ontologies/OTRL#ODRL -->
<g id="edge9" class="edge">
<title>http://purl.org/oseg/ontologies/OTRL#Odrl3Star&#45;&gt;http://purl.org/oseg/ontologies/OTRL#ODRL</title>
<path fill="none" stroke="black" d="M397.94,-466.92C427.52,-467.84 463.35,-464.51 491.08,-448.16 523.87,-428.83 545.03,-388.64 556.07,-362.04"/>
<polygon fill="black" stroke="black" points="559.39,-363.17 559.81,-352.58 552.88,-360.59 559.39,-363.17"/>
</g>
<!-- http://purl.org/oseg/ontologies/OTRL#Odrl3Star&#45;&gt;http://www.w3.org/2002/07/owl#class -->
<g id="edge8" class="edge">
<title>http://purl.org/oseg/ontologies/OTRL#Odrl3Star&#45;&gt;http://www.w3.org/2002/07/owl#class</title>
<path fill="none" stroke="black" d="M396.37,-467.66C417.93,-471.68 442.65,-477.61 464.08,-486.16 490.15,-496.56 517.14,-513.44 536.69,-526.96"/>
<polygon fill="black" stroke="black" points="534.93,-530 545.12,-532.9 538.96,-524.28 534.93,-530"/>
<text text-anchor="middle" x="486.58" y="-502.96" font-family="Times,serif" font-size="14.00">a</text>
</g>
<!-- http://purl.org/oseg/ontologies/OTRL#Otrl2 -->
<g id="node20" class="node">
<title>http://purl.org/oseg/ontologies/OTRL#Otrl2</title>
<ellipse fill="none" stroke="#e377c2" cx="70" cy="-803.16" rx="38.37" ry="16.03"/>
<text text-anchor="middle" x="70" y="-799.46" font-family="Times,serif" font-size="14.00">Otrl2</text>
</g>
<!-- http://purl.org/oseg/ontologies/OTRL#Otrl2&#45;&gt;http://purl.org/oseg/ontologies/OTRL#OTRL -->
<g id="edge18" class="edge">
<title>http://purl.org/oseg/ontologies/OTRL#Otrl2&#45;&gt;http://purl.org/oseg/ontologies/OTRL#OTRL</title>
<path fill="none" stroke="black" d="M96.89,-791.48C125.94,-778.68 174.68,-758.1 218.01,-744.16 243.24,-736.04 272.02,-728.87 295.29,-723.58"/>
<polygon fill="black" stroke="black" points="296.23,-726.95 305.23,-721.35 294.7,-720.12 296.23,-726.95"/>
</g>
<!-- http://purl.org/oseg/ontologies/OTRL#Otrl2&#45;&gt;http://www.w3.org/2002/07/owl#class -->
<g id="edge12" class="edge">
<title>http://purl.org/oseg/ontologies/OTRL#Otrl2&#45;&gt;http://www.w3.org/2002/07/owl#class</title>
<path fill="none" stroke="black" d="M101.68,-812.28C172.23,-831.31 348.82,-867.61 464.08,-793.16 539.52,-744.44 558.79,-627.66 563.7,-574.87"/>
<polygon fill="black" stroke="black" points="567.21,-574.88 564.54,-564.63 560.23,-574.3 567.21,-574.88"/>
<text text-anchor="middle" x="341.04" y="-840.96" font-family="Times,serif" font-size="14.00">a</text>
</g>
<!-- http://purl.org/oseg/ontologies/OTRL#Otrl5 -->
<g id="node21" class="node">
<title>http://purl.org/oseg/ontologies/OTRL#Otrl5</title>
<ellipse fill="none" stroke="#e377c2" cx="70" cy="-677.16" rx="38.37" ry="16.03"/>
<text text-anchor="middle" x="70" y="-673.46" font-family="Times,serif" font-size="14.00">Otrl5</text>
</g>
<!-- http://purl.org/oseg/ontologies/OTRL#Otrl5&#45;&gt;http://purl.org/oseg/ontologies/OTRL#OTRL -->
<g id="edge10" class="edge">
<title>http://purl.org/oseg/ontologies/OTRL#Otrl5&#45;&gt;http://purl.org/oseg/ontologies/OTRL#OTRL</title>
<path fill="none" stroke="black" d="M106.45,-682.04C154.34,-688.62 239.82,-700.38 293.03,-707.7"/>
<polygon fill="black" stroke="black" points="292.84,-711.2 303.22,-709.1 293.79,-704.27 292.84,-711.2"/>
</g>
<!-- http://purl.org/oseg/ontologies/OTRL#Otrl5&#45;&gt;http://www.w3.org/2002/07/owl#class -->
<g id="edge27" class="edge">
<title>http://purl.org/oseg/ontologies/OTRL#Otrl5&#45;&gt;http://www.w3.org/2002/07/owl#class</title>
<path fill="none" stroke="black" d="M108.22,-675.73C193.48,-672.02 400.49,-660.41 464.08,-633.16 496.3,-619.35 526.12,-591.77 544.94,-571.76"/>
<polygon fill="black" stroke="black" points="547.66,-573.98 551.83,-564.24 542.49,-569.25 547.66,-573.98"/>
<text text-anchor="middle" x="341.04" y="-673.96" font-family="Times,serif" font-size="14.00">a</text>
</g>
<!-- http://purl.org/oseg/ontologies/OTRL#Odrl1 -->
<g id="node22" class="node">
<title>http://purl.org/oseg/ontologies/OTRL#Odrl1</title>
<ellipse fill="none" stroke="#e377c2" cx="341.04" cy="-344.16" rx="40.11" ry="16.03"/>
<text text-anchor="middle" x="341.04" y="-340.46" font-family="Times,serif" font-size="14.00">Odrl1</text>
</g>
<!-- http://purl.org/oseg/ontologies/OTRL#Odrl1&#45;&gt;http://purl.org/oseg/ontologies/OTRL#ODRL -->
<g id="edge23" class="edge">
<title>http://purl.org/oseg/ontologies/OTRL#Odrl1&#45;&gt;http://purl.org/oseg/ontologies/OTRL#ODRL</title>
<path fill="none" stroke="black" d="M381.45,-342.75C418.43,-341.42 473.93,-339.44 514.28,-337.99"/>
<polygon fill="black" stroke="black" points="514.58,-341.48 524.45,-337.63 514.33,-334.49 514.58,-341.48"/>
</g>
<!-- http://purl.org/oseg/ontologies/OTRL#Odrl1&#45;&gt;http://www.w3.org/2002/07/owl#class -->
<g id="edge28" class="edge">
<title>http://purl.org/oseg/ontologies/OTRL#Odrl1&#45;&gt;http://www.w3.org/2002/07/owl#class</title>
<path fill="none" stroke="black" d="M380.55,-347.8C406.38,-351.91 439.96,-360.63 464.08,-379.16 512.92,-416.69 543.16,-485.04 556.8,-522.28"/>
<polygon fill="black" stroke="black" points="553.58,-523.65 560.21,-531.91 560.17,-521.32 553.58,-523.65"/>
<text text-anchor="middle" x="486.58" y="-408.96" font-family="Times,serif" font-size="14.00">a</text>
</g>
</g>
</svg>
