<?xml version="1.0" encoding="UTF-8" standalone="no"?>
<!DOCTYPE svg PUBLIC "-//W3C//DTD SVG 1.1//EN"
 "http://www.w3.org/Graphics/SVG/1.1/DTD/svg11.dtd">
<!-- Generated by graphviz version 2.43.0 (0)
 -->
<!-- Title: G Pages: 1 -->
<svg width="632pt" height="967pt"
 viewBox="0.00 0.00 631.63 966.53" xmlns="http://www.w3.org/2000/svg" xmlns:xlink="http://www.w3.org/1999/xlink">
<g id="graph0" class="graph" transform="scale(1 1) rotate(0) translate(4 962.53)">
<title>G</title>
<polygon fill="white" stroke="transparent" points="-4,4 -4,-962.53 627.63,-962.53 627.63,4 -4,4"/>
<!-- http://purl.org/oseg/ontologies/OTRL#OTRL -->
<g id="node1" class="node">
<title>http://purl.org/oseg/ontologies/OTRL#OTRL</title>
<ellipse fill="none" stroke="#e377c2" cx="341.04" cy="-462.26" rx="39.7" ry="16.03"/>
<text text-anchor="middle" x="341.04" y="-458.56" font-family="Times,serif" font-size="14.00">OTRL</text>
</g>
<!-- http://www.w3.org/2002/07/owl#class -->
<g id="node3" class="node">
<title>http://www.w3.org/2002/07/owl#class</title>
<ellipse fill="none" stroke="#1f77b4" cx="566.36" cy="-343.26" rx="57.05" ry="16.03"/>
<text text-anchor="middle" x="566.36" y="-339.56" font-family="Times,serif" font-size="14.00">owl:class</text>
</g>
<!-- http://purl.org/oseg/ontologies/OTRL#OTRL&#45;&gt;http://www.w3.org/2002/07/owl#class -->
<g id="edge11" class="edge">
<title>http://purl.org/oseg/ontologies/OTRL#OTRL&#45;&gt;http://www.w3.org/2002/07/owl#class</title>
<path fill="none" stroke="black" d="M380.25,-459.72C411.88,-456.16 456.97,-447.65 491.08,-427.26 515.75,-412.52 536.66,-386.85 549.95,-367.75"/>
<polygon fill="black" stroke="black" points="553,-369.5 555.68,-359.25 547.19,-365.59 553,-369.5"/>
<text text-anchor="middle" x="486.58" y="-436.06" font-family="Times,serif" font-size="14.00">a</text>
</g>
<!-- http://www.w3.org/2002/07/owl#DatatypeProperty -->
<g id="node2" class="node">
<title>http://www.w3.org/2002/07/owl#DatatypeProperty</title>
<ellipse fill="none" stroke="#1f77b4" cx="341.04" cy="-746.26" rx="123.07" ry="16.03"/>
<text text-anchor="middle" x="341.04" y="-742.56" font-family="Times,serif" font-size="14.00">owl:DatatypeProperty</text>
</g>
<!-- http://purl.org/oseg/ontologies/OTRL#ODRL -->
<g id="node4" class="node">
<title>http://purl.org/oseg/ontologies/OTRL#ODRL</title>
<ellipse fill="none" stroke="#e377c2" cx="566.36" cy="-61.26" rx="41.94" ry="16.03"/>
<text text-anchor="middle" x="566.36" y="-57.56" font-family="Times,serif" font-size="14.00">ODRL</text>
</g>
<!-- http://www.w3.org/2002/07/owl#Ontology -->
<g id="node5" class="node">
<title>http://www.w3.org/2002/07/owl#Ontology</title>
<ellipse fill="none" stroke="#1f77b4" cx="341.04" cy="-807.26" rx="77.56" ry="16.03"/>
<text text-anchor="middle" x="341.04" y="-803.56" font-family="Times,serif" font-size="14.00">owl:Ontology</text>
</g>
<!-- http://schema.org/Text -->
<g id="node6" class="node">
<title>http://schema.org/Text</title>
<ellipse fill="none" stroke="#e377c2" cx="341.04" cy="-675.26" rx="74.91" ry="16.03"/>
<text text-anchor="middle" x="341.04" y="-671.56" font-family="Times,serif" font-size="14.00">schema:Text</text>
</g>
<!-- http://purl.org/oseg/ontologies/OTRL#exitCriteria -->
<g id="node7" class="node">
<title>http://purl.org/oseg/ontologies/OTRL#exitCriteria</title>
<ellipse fill="none" stroke="#e377c2" cx="70" cy="-750.26" rx="70.01" ry="16.03"/>
<text text-anchor="middle" x="70" y="-746.56" font-family="Times,serif" font-size="14.00">exitCriteria</text>
</g>
<!-- http://purl.org/oseg/ontologies/OTRL#exitCriteria&#45;&gt;http://www.w3.org/2002/07/owl#DatatypeProperty -->
<g id="edge1" class="edge">
<title>http://purl.org/oseg/ontologies/OTRL#exitCriteria&#45;&gt;http://www.w3.org/2002/07/owl#DatatypeProperty</title>
<path fill="none" stroke="black" d="M139.94,-749.24C160.92,-748.93 184.71,-748.57 208.39,-748.22"/>
<polygon fill="black" stroke="black" points="208.58,-751.72 218.52,-748.07 208.47,-744.72 208.58,-751.72"/>
<text text-anchor="middle" x="179.01" y="-753.06" font-family="Times,serif" font-size="14.00">a</text>
</g>
<!-- http://purl.org/oseg/ontologies/OTRL#exitCriteria&#45;&gt;http://schema.org/Text -->
<g id="edge16" class="edge">
<title>http://purl.org/oseg/ontologies/OTRL#exitCriteria&#45;&gt;http://schema.org/Text</title>
<path fill="none" stroke="black" d="M115.43,-737.88C161.74,-724.97 234.43,-704.71 284.5,-690.75"/>
<polygon fill="black" stroke="black" points="285.51,-694.1 294.2,-688.04 283.63,-687.36 285.51,-694.1"/>
<text text-anchor="middle" x="179.01" y="-730.06" font-family="Times,serif" font-size="14.00">range</text>
</g>
<!-- http://purl.org/oseg/ontologies/OTRL#Odrl -->
<g id="node8" class="node">
<title>http://purl.org/oseg/ontologies/OTRL#Odrl</title>
<ellipse fill="none" stroke="#e377c2" cx="341.04" cy="-361.26" rx="33.88" ry="16.03"/>
<text text-anchor="middle" x="341.04" y="-357.56" font-family="Times,serif" font-size="14.00">Odrl</text>
</g>
<!-- http://purl.org/oseg/ontologies/OTRL#Odrl&#45;&gt;http://www.w3.org/2002/07/owl#class -->
<g id="edge2" class="edge">
<title>http://purl.org/oseg/ontologies/OTRL#Odrl&#45;&gt;http://www.w3.org/2002/07/owl#class</title>
<path fill="none" stroke="black" d="M374.99,-358.61C407.99,-355.95 459.64,-351.78 500.82,-348.47"/>
<polygon fill="black" stroke="black" points="501.36,-351.93 511.04,-347.64 500.8,-344.96 501.36,-351.93"/>
<text text-anchor="middle" x="486.58" y="-354.06" font-family="Times,serif" font-size="14.00">a</text>
</g>
<!-- http://purl.org/oseg/ontologies/OTRL#Otrl3 -->
<g id="node9" class="node">
<title>http://purl.org/oseg/ontologies/OTRL#Otrl3</title>
<ellipse fill="none" stroke="#e377c2" cx="70" cy="-553.26" rx="38.37" ry="16.03"/>
<text text-anchor="middle" x="70" y="-549.56" font-family="Times,serif" font-size="14.00">Otrl3</text>
</g>
<!-- http://purl.org/oseg/ontologies/OTRL#Otrl3&#45;&gt;http://purl.org/oseg/ontologies/OTRL#OTRL -->
<g id="edge26" class="edge">
<title>http://purl.org/oseg/ontologies/OTRL#Otrl3&#45;&gt;http://purl.org/oseg/ontologies/OTRL#OTRL</title>
<path fill="none" stroke="black" d="M99.69,-542.9C112.15,-538.29 126.87,-532.68 140.01,-527.26 175.14,-512.78 182.08,-504.63 218.01,-492.26 243.08,-483.64 271.84,-476.44 295.15,-471.26"/>
<polygon fill="black" stroke="black" points="296.08,-474.64 305.11,-469.09 294.59,-467.8 296.08,-474.64"/>
</g>
<!-- http://purl.org/oseg/ontologies/OTRL#Otrl3&#45;&gt;http://www.w3.org/2002/07/owl#class -->
<g id="edge3" class="edge">
<title>http://purl.org/oseg/ontologies/OTRL#Otrl3&#45;&gt;http://www.w3.org/2002/07/owl#class</title>
<path fill="none" stroke="black" d="M107.36,-556.95C193.19,-564.92 405.59,-580.24 464.08,-543.26 526.06,-504.08 551.66,-414.25 560.86,-369.54"/>
<polygon fill="black" stroke="black" points="564.3,-370.19 562.77,-359.71 557.43,-368.86 564.3,-370.19"/>
<text text-anchor="middle" x="341.04" y="-571.06" font-family="Times,serif" font-size="14.00">a</text>
</g>
<!-- http://purl.org/oseg/ontologies/OTRL#Odrl3Star -->
<g id="node10" class="node">
<title>http://purl.org/oseg/ontologies/OTRL#Odrl3Star</title>
<ellipse fill="none" stroke="#e377c2" cx="341.04" cy="-260.26" rx="62.45" ry="16.03"/>
<text text-anchor="middle" x="341.04" y="-256.56" font-family="Times,serif" font-size="14.00">Odrl3Star</text>
</g>
<!-- http://purl.org/oseg/ontologies/OTRL#Odrl3Star&#45;&gt;http://www.w3.org/2002/07/owl#class -->
<g id="edge4" class="edge">
<title>http://purl.org/oseg/ontologies/OTRL#Odrl3Star&#45;&gt;http://www.w3.org/2002/07/owl#class</title>
<path fill="none" stroke="black" d="M394.07,-268.91C423.32,-274.81 460.07,-284 491.08,-297.26 506.6,-303.9 522.67,-313.46 535.87,-322.15"/>
<polygon fill="black" stroke="black" points="534.27,-325.29 544.51,-327.98 538.18,-319.49 534.27,-325.29"/>
<text text-anchor="middle" x="486.58" y="-301.06" font-family="Times,serif" font-size="14.00">a</text>
</g>
<!-- http://purl.org/oseg/ontologies/OTRL#Odrl3Star&#45;&gt;http://purl.org/oseg/ontologies/OTRL#ODRL -->
<g id="edge7" class="edge">
<title>http://purl.org/oseg/ontologies/OTRL#Odrl3Star&#45;&gt;http://purl.org/oseg/ontologies/OTRL#ODRL</title>
<path fill="none" stroke="black" d="M392.95,-269.24C424.14,-271.88 463.28,-269.71 491.08,-249.26 543.36,-210.82 558.87,-129.83 563.45,-87.81"/>
<polygon fill="black" stroke="black" points="566.94,-88.07 564.41,-77.78 559.97,-87.4 566.94,-88.07"/>
</g>
<!-- http://purl.org/oseg/ontologies/OTRL#Otrl1 -->
<g id="node11" class="node">
<title>http://purl.org/oseg/ontologies/OTRL#Otrl1</title>
<ellipse fill="none" stroke="#e377c2" cx="70" cy="-502.26" rx="38.37" ry="16.03"/>
<text text-anchor="middle" x="70" y="-498.56" font-family="Times,serif" font-size="14.00">Otrl1</text>
</g>
<!-- http://purl.org/oseg/ontologies/OTRL#Otrl1&#45;&gt;http://purl.org/oseg/ontologies/OTRL#OTRL -->
<g id="edge27" class="edge">
<title>http://purl.org/oseg/ontologies/OTRL#Otrl1&#45;&gt;http://purl.org/oseg/ontologies/OTRL#OTRL</title>
<path fill="none" stroke="black" d="M100.89,-492.57C117.54,-487.54 138.73,-481.74 158.01,-478.26 202.62,-470.22 254.15,-466.17 290.97,-464.16"/>
<polygon fill="black" stroke="black" points="291.61,-467.63 301.42,-463.63 291.25,-460.64 291.61,-467.63"/>
</g>
<!-- http://purl.org/oseg/ontologies/OTRL#Otrl1&#45;&gt;http://www.w3.org/2002/07/owl#class -->
<g id="edge5" class="edge">
<title>http://purl.org/oseg/ontologies/OTRL#Otrl1&#45;&gt;http://www.w3.org/2002/07/owl#class</title>
<path fill="none" stroke="black" d="M103.95,-509.97C174.67,-524.68 344.31,-550.03 464.08,-487.26 511.88,-462.21 541.92,-403.21 555.96,-369.01"/>
<polygon fill="black" stroke="black" points="559.24,-370.25 559.65,-359.67 552.72,-367.68 559.24,-370.25"/>
<text text-anchor="middle" x="341.04" y="-532.06" font-family="Times,serif" font-size="14.00">a</text>
</g>
<!-- http://purl.org/oseg/ontologies/OTRL#Otrl2 -->
<g id="node12" class="node">
<title>http://purl.org/oseg/ontologies/OTRL#Otrl2</title>
<ellipse fill="none" stroke="#e377c2" cx="70" cy="-337.26" rx="38.37" ry="16.03"/>
<text text-anchor="middle" x="70" y="-333.56" font-family="Times,serif" font-size="14.00">Otrl2</text>
</g>
<!-- http://purl.org/oseg/ontologies/OTRL#Otrl2&#45;&gt;http://purl.org/oseg/ontologies/OTRL#OTRL -->
<g id="edge14" class="edge">
<title>http://purl.org/oseg/ontologies/OTRL#Otrl2&#45;&gt;http://purl.org/oseg/ontologies/OTRL#OTRL</title>
<path fill="none" stroke="black" d="M88.9,-351.68C115.51,-372.43 167.79,-410.59 218.01,-432.26 242.09,-442.66 270.46,-449.9 293.79,-454.67"/>
<polygon fill="black" stroke="black" points="293.3,-458.14 303.78,-456.62 294.64,-451.27 293.3,-458.14"/>
</g>
<!-- http://purl.org/oseg/ontologies/OTRL#Otrl2&#45;&gt;http://www.w3.org/2002/07/owl#class -->
<g id="edge6" class="edge">
<title>http://purl.org/oseg/ontologies/OTRL#Otrl2&#45;&gt;http://www.w3.org/2002/07/owl#class</title>
<path fill="none" stroke="black" d="M106.62,-332.31C175.75,-323.47 332.85,-307.17 464.08,-321.26 480.37,-323.01 497.88,-326.3 513.69,-329.81"/>
<polygon fill="black" stroke="black" points="513.27,-333.31 523.8,-332.14 514.84,-326.48 513.27,-333.31"/>
<text text-anchor="middle" x="341.04" y="-325.06" font-family="Times,serif" font-size="14.00">a</text>
</g>
<!-- http://purl.org/oseg/ontologies/OTRL#Odrl3 -->
<g id="node13" class="node">
<title>http://purl.org/oseg/ontologies/OTRL#Odrl3</title>
<ellipse fill="none" stroke="#e377c2" cx="341.04" cy="-206.26" rx="40.11" ry="16.03"/>
<text text-anchor="middle" x="341.04" y="-202.56" font-family="Times,serif" font-size="14.00">Odrl3</text>
</g>
<!-- http://purl.org/oseg/ontologies/OTRL#Odrl3&#45;&gt;http://www.w3.org/2002/07/owl#class -->
<g id="edge8" class="edge">
<title>http://purl.org/oseg/ontologies/OTRL#Odrl3&#45;&gt;http://www.w3.org/2002/07/owl#class</title>
<path fill="none" stroke="black" d="M380.74,-209.65C405.86,-213.21 438.55,-220.46 464.08,-235.26 500.28,-256.25 531.4,-294.23 549.26,-319.09"/>
<polygon fill="black" stroke="black" points="546.4,-321.11 555.01,-327.29 552.13,-317.09 546.4,-321.11"/>
<text text-anchor="middle" x="486.58" y="-258.06" font-family="Times,serif" font-size="14.00">a</text>
</g>
<!-- http://purl.org/oseg/ontologies/OTRL#Odrl3&#45;&gt;http://purl.org/oseg/ontologies/OTRL#ODRL -->
<g id="edge9" class="edge">
<title>http://purl.org/oseg/ontologies/OTRL#Odrl3&#45;&gt;http://purl.org/oseg/ontologies/OTRL#ODRL</title>
<path fill="none" stroke="black" d="M381.55,-206.33C408.35,-204.22 442.66,-196.97 464.08,-175.26 488.16,-150.86 460.41,-126.83 482.08,-100.26 492,-88.1 506.58,-79.53 520.78,-73.58"/>
<polygon fill="black" stroke="black" points="522.4,-76.71 530.49,-69.87 519.9,-70.17 522.4,-76.71"/>
</g>
<!-- http://www.w3.org/1999/02/22&#45;rdf&#45;syntax&#45;ns#nil -->
<g id="node14" class="node">
<title>http://www.w3.org/1999/02/22&#45;rdf&#45;syntax&#45;ns#nil</title>
<ellipse fill="none" stroke="#e377c2" cx="70" cy="-891.26" rx="42.35" ry="16.03"/>
<text text-anchor="middle" x="70" y="-887.56" font-family="Times,serif" font-size="14.00">rdf:nil</text>
</g>
<!-- http://purl.org/oseg/ontologies/OTRL#goal -->
<g id="node15" class="node">
<title>http://purl.org/oseg/ontologies/OTRL#goal</title>
<ellipse fill="none" stroke="#e377c2" cx="70" cy="-671.26" rx="33.47" ry="16.03"/>
<text text-anchor="middle" x="70" y="-667.56" font-family="Times,serif" font-size="14.00">goal</text>
</g>
<!-- http://purl.org/oseg/ontologies/OTRL#goal&#45;&gt;http://www.w3.org/2002/07/owl#DatatypeProperty -->
<g id="edge20" class="edge">
<title>http://purl.org/oseg/ontologies/OTRL#goal&#45;&gt;http://www.w3.org/2002/07/owl#DatatypeProperty</title>
<path fill="none" stroke="black" d="M102.06,-675.93C128.38,-680.2 167,-687.23 200.01,-696.26 231.16,-704.79 265.32,-716.93 292.1,-727.11"/>
<polygon fill="black" stroke="black" points="291.02,-730.45 301.61,-730.76 293.53,-723.91 291.02,-730.45"/>
<text text-anchor="middle" x="179.01" y="-700.06" font-family="Times,serif" font-size="14.00">a</text>
</g>
<!-- http://purl.org/oseg/ontologies/OTRL#goal&#45;&gt;http://schema.org/Text -->
<g id="edge18" class="edge">
<title>http://purl.org/oseg/ontologies/OTRL#goal&#45;&gt;http://schema.org/Text</title>
<path fill="none" stroke="black" d="M98.52,-662.85C115.49,-658.11 137.79,-652.67 158.01,-650.26 200.57,-645.2 248.6,-652.34 284.64,-660.27"/>
<polygon fill="black" stroke="black" points="283.94,-663.7 294.47,-662.51 285.5,-656.87 283.94,-663.7"/>
<text text-anchor="middle" x="179.01" y="-654.06" font-family="Times,serif" font-size="14.00">range</text>
</g>
<!-- http://purl.org/oseg/ontologies/OTRL#Otrl4 -->
<g id="node16" class="node">
<title>http://purl.org/oseg/ontologies/OTRL#Otrl4</title>
<ellipse fill="none" stroke="#e377c2" cx="70" cy="-426.26" rx="38.37" ry="16.03"/>
<text text-anchor="middle" x="70" y="-422.56" font-family="Times,serif" font-size="14.00">Otrl4</text>
</g>
<!-- http://purl.org/oseg/ontologies/OTRL#Otrl4&#45;&gt;http://purl.org/oseg/ontologies/OTRL#OTRL -->
<g id="edge17" class="edge">
<title>http://purl.org/oseg/ontologies/OTRL#Otrl4&#45;&gt;http://purl.org/oseg/ontologies/OTRL#OTRL</title>
<path fill="none" stroke="black" d="M106.73,-431.04C154.57,-437.45 239.56,-448.82 292.69,-455.93"/>
<polygon fill="black" stroke="black" points="292.5,-459.43 302.87,-457.29 293.42,-452.49 292.5,-459.43"/>
</g>
<!-- http://purl.org/oseg/ontologies/OTRL#Otrl4&#45;&gt;http://www.w3.org/2002/07/owl#class -->
<g id="edge21" class="edge">
<title>http://purl.org/oseg/ontologies/OTRL#Otrl4&#45;&gt;http://www.w3.org/2002/07/owl#class</title>
<path fill="none" stroke="black" d="M108.23,-426.16C178.78,-425.16 336.35,-419.08 464.08,-386.26 486.4,-380.53 510.17,-370.65 529.07,-361.81"/>
<polygon fill="black" stroke="black" points="530.69,-364.92 538.2,-357.44 527.67,-358.6 530.69,-364.92"/>
<text text-anchor="middle" x="341.04" y="-426.06" font-family="Times,serif" font-size="14.00">a</text>
</g>
<!-- http://purl.org/oseg/ontologies/OTRL#Odrl2 -->
<g id="node17" class="node">
<title>http://purl.org/oseg/ontologies/OTRL#Odrl2</title>
<ellipse fill="none" stroke="#e377c2" cx="341.04" cy="-88.26" rx="40.11" ry="16.03"/>
<text text-anchor="middle" x="341.04" y="-84.56" font-family="Times,serif" font-size="14.00">Odrl2</text>
</g>
<!-- http://purl.org/oseg/ontologies/OTRL#Odrl2&#45;&gt;http://www.w3.org/2002/07/owl#class -->
<g id="edge22" class="edge">
<title>http://purl.org/oseg/ontologies/OTRL#Odrl2&#45;&gt;http://www.w3.org/2002/07/owl#class</title>
<path fill="none" stroke="black" d="M380.48,-91.95C406.6,-96.22 440.56,-105.42 464.08,-125.26 524.47,-176.21 550.93,-271.03 560.61,-316.97"/>
<polygon fill="black" stroke="black" points="557.23,-317.91 562.63,-327.03 564.1,-316.53 557.23,-317.91"/>
<text text-anchor="middle" x="486.58" y="-157.06" font-family="Times,serif" font-size="14.00">a</text>
</g>
<!-- http://purl.org/oseg/ontologies/OTRL#Odrl2&#45;&gt;http://purl.org/oseg/ontologies/OTRL#ODRL -->
<g id="edge15" class="edge">
<title>http://purl.org/oseg/ontologies/OTRL#Odrl2&#45;&gt;http://purl.org/oseg/ontologies/OTRL#ODRL</title>
<path fill="none" stroke="black" d="M368.23,-76.16C397.63,-63.85 447.01,-47.02 491.08,-50.26 499.86,-50.91 509.19,-51.98 518.15,-53.21"/>
<polygon fill="black" stroke="black" points="517.67,-56.68 528.07,-54.65 518.68,-49.75 517.67,-56.68"/>
</g>
<!-- http://purl.org/oseg/ontologies/OTRL#Otrl5 -->
<g id="node18" class="node">
<title>http://purl.org/oseg/ontologies/OTRL#Otrl5</title>
<ellipse fill="none" stroke="#e377c2" cx="70" cy="-604.26" rx="38.37" ry="16.03"/>
<text text-anchor="middle" x="70" y="-600.56" font-family="Times,serif" font-size="14.00">Otrl5</text>
</g>
<!-- http://purl.org/oseg/ontologies/OTRL#Otrl5&#45;&gt;http://purl.org/oseg/ontologies/OTRL#OTRL -->
<g id="edge12" class="edge">
<title>http://purl.org/oseg/ontologies/OTRL#Otrl5&#45;&gt;http://purl.org/oseg/ontologies/OTRL#OTRL</title>
<path fill="none" stroke="black" d="M102.06,-595.38C114.37,-591.16 128.34,-585.44 140.01,-578.26 170.83,-559.32 177.33,-551.45 200.01,-523.26 209.99,-510.85 205.26,-501.81 218.01,-492.26 239.09,-476.47 267.44,-468.9 291.5,-465.31"/>
<polygon fill="black" stroke="black" points="292.06,-468.77 301.52,-464 291.15,-461.83 292.06,-468.77"/>
</g>
<!-- http://purl.org/oseg/ontologies/OTRL#Otrl5&#45;&gt;http://www.w3.org/2002/07/owl#class -->
<g id="edge10" class="edge">
<title>http://purl.org/oseg/ontologies/OTRL#Otrl5&#45;&gt;http://www.w3.org/2002/07/owl#class</title>
<path fill="none" stroke="black" d="M103.21,-612.37C174.29,-628.34 347.54,-656.58 464.08,-586.26 540.44,-540.19 559.23,-423.18 563.85,-370.14"/>
<polygon fill="black" stroke="black" points="567.37,-370.08 564.64,-359.84 560.39,-369.54 567.37,-370.08"/>
<text text-anchor="middle" x="341.04" y="-636.06" font-family="Times,serif" font-size="14.00">a</text>
</g>
<!-- http://purl.org/oseg/ontologies/OTRL -->
<g id="node19" class="node">
<title>http://purl.org/oseg/ontologies/OTRL</title>
<ellipse fill="none" stroke="#e377c2" cx="70" cy="-807.26" rx="60.62" ry="16.03"/>
<text text-anchor="middle" x="70" y="-803.56" font-family="Times,serif" font-size="14.00">ns1:OTRL</text>
</g>
<!-- http://purl.org/oseg/ontologies/OTRL&#45;&gt;http://www.w3.org/2002/07/owl#Ontology -->
<g id="edge23" class="edge">
<title>http://purl.org/oseg/ontologies/OTRL&#45;&gt;http://www.w3.org/2002/07/owl#Ontology</title>
<path fill="none" stroke="black" d="M131.05,-807.26C166.88,-807.26 213,-807.26 252.8,-807.26"/>
<polygon fill="black" stroke="black" points="253.04,-810.76 263.04,-807.26 253.04,-803.76 253.04,-810.76"/>
<text text-anchor="middle" x="179.01" y="-811.06" font-family="Times,serif" font-size="14.00">a</text>
</g>
<!-- http://purl.org/oseg/ontologies/OTRL&#45;&gt;http://purl.org/oseg/ontologies/OTRL -->
<g id="edge28" class="edge">
<title>http://purl.org/oseg/ontologies/OTRL&#45;&gt;http://purl.org/oseg/ontologies/OTRL</title>
<path fill="none" stroke="black" d="M51.18,-822.77C46.64,-832.38 52.92,-841.53 70,-841.53 80.68,-841.53 87.14,-837.95 89.37,-832.93"/>
<polygon fill="black" stroke="black" points="92.85,-832.57 88.82,-822.77 85.86,-832.94 92.85,-832.57"/>
<text text-anchor="middle" x="70" y="-845.33" font-family="Times,serif" font-size="14.00">owl:versionIRI</text>
</g>
<!-- http://purl.org/oseg/ontologies/OTRL#Odrl4 -->
<g id="node20" class="node">
<title>http://purl.org/oseg/ontologies/OTRL#Odrl4</title>
<ellipse fill="none" stroke="#e377c2" cx="341.04" cy="-16.26" rx="40.11" ry="16.03"/>
<text text-anchor="middle" x="341.04" y="-12.56" font-family="Times,serif" font-size="14.00">Odrl4</text>
</g>
<!-- http://purl.org/oseg/ontologies/OTRL#Odrl4&#45;&gt;http://www.w3.org/2002/07/owl#class -->
<g id="edge24" class="edge">
<title>http://purl.org/oseg/ontologies/OTRL#Odrl4&#45;&gt;http://www.w3.org/2002/07/owl#class</title>
<path fill="none" stroke="black" d="M378.36,-22.5C405,-28.75 440.48,-40.8 464.08,-63.26 537.96,-133.61 558.12,-261.89 563.48,-316.98"/>
<polygon fill="black" stroke="black" points="560,-317.33 564.36,-326.98 566.97,-316.71 560,-317.33"/>
<text text-anchor="middle" x="486.58" y="-98.06" font-family="Times,serif" font-size="14.00">a</text>
</g>
<!-- http://purl.org/oseg/ontologies/OTRL#Odrl4&#45;&gt;http://purl.org/oseg/ontologies/OTRL#ODRL -->
<g id="edge19" class="edge">
<title>http://purl.org/oseg/ontologies/OTRL#Odrl4&#45;&gt;http://purl.org/oseg/ontologies/OTRL#ODRL</title>
<path fill="none" stroke="black" d="M377.58,-23.41C407.77,-29.48 452.27,-38.44 491.08,-46.26 500.17,-48.1 509.89,-50.06 519.2,-51.94"/>
<polygon fill="black" stroke="black" points="518.59,-55.39 529.09,-53.93 519.98,-48.52 518.59,-55.39"/>
</g>
<!-- http://purl.org/oseg/ontologies/OTRL#Odrl1 -->
<g id="node21" class="node">
<title>http://purl.org/oseg/ontologies/OTRL#Odrl1</title>
<ellipse fill="none" stroke="#e377c2" cx="341.04" cy="-150.26" rx="40.11" ry="16.03"/>
<text text-anchor="middle" x="341.04" y="-146.56" font-family="Times,serif" font-size="14.00">Odrl1</text>
</g>
<!-- http://purl.org/oseg/ontologies/OTRL#Odrl1&#45;&gt;http://www.w3.org/2002/07/owl#class -->
<g id="edge25" class="edge">
<title>http://purl.org/oseg/ontologies/OTRL#Odrl1&#45;&gt;http://www.w3.org/2002/07/owl#class</title>
<path fill="none" stroke="black" d="M380.96,-152.69C406.64,-155.97 439.89,-163.61 464.08,-181.26 511.88,-216.14 542.24,-281.08 556.25,-317.24"/>
<polygon fill="black" stroke="black" points="553.14,-318.92 559.93,-327.05 559.7,-316.46 553.14,-318.92"/>
<text text-anchor="middle" x="486.58" y="-210.06" font-family="Times,serif" font-size="14.00">a</text>
</g>
<!-- http://purl.org/oseg/ontologies/OTRL#Odrl1&#45;&gt;http://purl.org/oseg/ontologies/OTRL#ODRL -->
<g id="edge13" class="edge">
<title>http://purl.org/oseg/ontologies/OTRL#Odrl1&#45;&gt;http://purl.org/oseg/ontologies/OTRL#ODRL</title>
<path fill="none" stroke="black" d="M380.61,-146.73C406.8,-142.54 440.77,-133.36 464.08,-113.26 478.24,-101.06 467.17,-86.54 482.08,-75.26 491.4,-68.22 502.98,-64.2 514.51,-62.01"/>
<polygon fill="black" stroke="black" points="515.2,-65.45 524.58,-60.53 514.18,-58.52 515.2,-65.45"/>
</g>
<!-- http://purl.org/oseg/ontologies/OTRL#Otrl -->
<g id="node22" class="node">
<title>http://purl.org/oseg/ontologies/OTRL#Otrl</title>
<ellipse fill="none" stroke="#e377c2" cx="70" cy="-942.26" rx="31.64" ry="16.03"/>
<text text-anchor="middle" x="70" y="-938.56" font-family="Times,serif" font-size="14.00">Otrl</text>
</g>
</g>
</svg>
