<?xml version="1.0" encoding="UTF-8" standalone="no"?>
<!DOCTYPE svg PUBLIC "-//W3C//DTD SVG 1.1//EN"
 "http://www.w3.org/Graphics/SVG/1.1/DTD/svg11.dtd">
<!-- Generated by graphviz version 2.43.0 (0)
 -->
<!-- Title: G Pages: 1 -->
<svg width="744pt" height="1408pt"
 viewBox="0.00 0.00 744.45 1408.02" xmlns="http://www.w3.org/2000/svg" xmlns:xlink="http://www.w3.org/1999/xlink">
<g id="graph0" class="graph" transform="scale(1 1) rotate(0) translate(4 1404.02)">
<title>G</title>
<polygon fill="white" stroke="transparent" points="-4,4 -4,-1404.02 740.45,-1404.02 740.45,4 -4,4"/>
<!-- http://purl.org/oseg/ontologies/OTRL#ODRL -->
<g id="node1" class="node">
<title>http://purl.org/oseg/ontologies/OTRL#ODRL</title>
<ellipse fill="none" stroke="#e377c2" cx="453.87" cy="-1145.76" rx="41.94" ry="16.03"/>
<text text-anchor="middle" x="453.87" y="-1142.06" font-family="Times,serif" font-size="14.00">ODRL</text>
</g>
<!-- http://www.w3.org/2002/07/owl#class -->
<g id="node4" class="node">
<title>http://www.w3.org/2002/07/owl#class</title>
<ellipse fill="none" stroke="#1f77b4" cx="679.18" cy="-892.76" rx="57.05" ry="16.03"/>
<text text-anchor="middle" x="679.18" y="-889.06" font-family="Times,serif" font-size="14.00">owl:class</text>
</g>
<!-- http://purl.org/oseg/ontologies/OTRL#ODRL&#45;&gt;http://www.w3.org/2002/07/owl#class -->
<g id="edge30" class="edge">
<title>http://purl.org/oseg/ontologies/OTRL#ODRL&#45;&gt;http://www.w3.org/2002/07/owl#class</title>
<path fill="none" stroke="black" d="M495.84,-1146.47C528.89,-1144.85 574.57,-1137.36 603.9,-1110.76 659.84,-1060.03 673.67,-965.5 677.08,-919.41"/>
<polygon fill="black" stroke="black" points="680.58,-919.5 677.71,-909.3 673.59,-919.07 680.58,-919.5"/>
<text text-anchor="middle" x="599.4" y="-1120.56" font-family="Times,serif" font-size="14.00">a</text>
</g>
<!-- http://purl.org/oseg/ontologies/OTRL#OTRL -->
<g id="node2" class="node">
<title>http://purl.org/oseg/ontologies/OTRL#OTRL</title>
<ellipse fill="none" stroke="#e377c2" cx="453.87" cy="-602.76" rx="39.7" ry="16.03"/>
<text text-anchor="middle" x="453.87" y="-599.06" font-family="Times,serif" font-size="14.00">OTRL</text>
</g>
<!-- http://purl.org/oseg/ontologies/OTRL#OTRL&#45;&gt;http://www.w3.org/2002/07/owl#class -->
<g id="edge36" class="edge">
<title>http://purl.org/oseg/ontologies/OTRL#OTRL&#45;&gt;http://www.w3.org/2002/07/owl#class</title>
<path fill="none" stroke="black" d="M491.74,-607.68C525.37,-614.05 574.22,-628.34 603.9,-659.76 659.36,-718.45 673.41,-818.53 676.97,-866.11"/>
<polygon fill="black" stroke="black" points="673.49,-866.48 677.63,-876.23 680.47,-866.03 673.49,-866.48"/>
<text text-anchor="middle" x="599.4" y="-663.56" font-family="Times,serif" font-size="14.00">a</text>
</g>
<!-- http://www.w3.org/2002/07/owl#Ontology -->
<g id="node3" class="node">
<title>http://www.w3.org/2002/07/owl#Ontology</title>
<ellipse fill="none" stroke="#1f77b4" cx="453.87" cy="-1350.76" rx="77.56" ry="16.03"/>
<text text-anchor="middle" x="453.87" y="-1347.06" font-family="Times,serif" font-size="14.00">owl:Ontology</text>
</g>
<!-- http://www.w3.org/2002/07/owl#DatatypeProperty -->
<g id="node5" class="node">
<title>http://www.w3.org/2002/07/owl#DatatypeProperty</title>
<ellipse fill="none" stroke="#1f77b4" cx="453.87" cy="-61.76" rx="123.07" ry="16.03"/>
<text text-anchor="middle" x="453.87" y="-58.06" font-family="Times,serif" font-size="14.00">owl:DatatypeProperty</text>
</g>
<!-- http://purl.org/oseg/ontologies/OTRL -->
<g id="node6" class="node">
<title>http://purl.org/oseg/ontologies/OTRL</title>
<ellipse fill="none" stroke="#e377c2" cx="120.92" cy="-1350.76" rx="60.62" ry="16.03"/>
<text text-anchor="middle" x="120.92" y="-1347.06" font-family="Times,serif" font-size="14.00">ns1:OTRL</text>
</g>
<!-- http://purl.org/oseg/ontologies/OTRL&#45;&gt;http://www.w3.org/2002/07/owl#Ontology -->
<g id="edge26" class="edge">
<title>http://purl.org/oseg/ontologies/OTRL&#45;&gt;http://www.w3.org/2002/07/owl#Ontology</title>
<path fill="none" stroke="black" d="M181.85,-1350.76C233.16,-1350.76 307.71,-1350.76 365.63,-1350.76"/>
<polygon fill="black" stroke="black" points="365.88,-1354.26 375.88,-1350.76 365.88,-1347.26 365.88,-1354.26"/>
<text text-anchor="middle" x="286.33" y="-1354.56" font-family="Times,serif" font-size="14.00">a</text>
</g>
<!-- http://purl.org/oseg/ontologies/OTRL&#45;&gt;http://purl.org/oseg/ontologies/OTRL -->
<g id="edge27" class="edge">
<title>http://purl.org/oseg/ontologies/OTRL&#45;&gt;http://purl.org/oseg/ontologies/OTRL</title>
<path fill="none" stroke="black" d="M92.88,-1365.55C84.98,-1375.42 94.33,-1385.02 120.92,-1385.02 137.95,-1385.02 147.9,-1381.08 150.79,-1375.65"/>
<polygon fill="black" stroke="black" points="154.18,-1374.76 148.96,-1365.55 147.29,-1376.01 154.18,-1374.76"/>
<text text-anchor="middle" x="120.92" y="-1388.82" font-family="Times,serif" font-size="14.00">owl:versionIRI</text>
</g>
<!-- http://schema.org/Text -->
<g id="node7" class="node">
<title>http://schema.org/Text</title>
<ellipse fill="none" stroke="#e377c2" cx="453.87" cy="-175.76" rx="74.91" ry="16.03"/>
<text text-anchor="middle" x="453.87" y="-172.06" font-family="Times,serif" font-size="14.00">schema:Text</text>
</g>
<!-- http://purl.org/oseg/ontologies/OTRL#OTRL&#45;9 -->
<g id="node8" class="node">
<title>http://purl.org/oseg/ontologies/OTRL#OTRL&#45;9</title>
<ellipse fill="none" stroke="#e377c2" cx="120.92" cy="-715.76" rx="49.49" ry="16.03"/>
<text text-anchor="middle" x="120.92" y="-712.06" font-family="Times,serif" font-size="14.00">OTRL&#45;9</text>
</g>
<!-- http://purl.org/oseg/ontologies/OTRL#OTRL&#45;9&#45;&gt;http://purl.org/oseg/ontologies/OTRL#OTRL -->
<g id="edge16" class="edge">
<title>http://purl.org/oseg/ontologies/OTRL#OTRL&#45;9&#45;&gt;http://purl.org/oseg/ontologies/OTRL#OTRL</title>
<path fill="none" stroke="black" d="M160.7,-705.94C185.7,-698.24 217.89,-685.62 241.83,-666.76 252.58,-658.28 248.33,-649.18 259.83,-641.76 303.26,-613.73 362.72,-605.2 404.13,-602.92"/>
<polygon fill="black" stroke="black" points="404.42,-606.41 414.25,-602.47 404.1,-599.42 404.42,-606.41"/>
</g>
<!-- http://purl.org/oseg/ontologies/OTRL#OTRL&#45;9&#45;&gt;http://www.w3.org/2002/07/owl#class -->
<g id="edge2" class="edge">
<title>http://purl.org/oseg/ontologies/OTRL#OTRL&#45;9&#45;&gt;http://www.w3.org/2002/07/owl#class</title>
<path fill="none" stroke="black" d="M164.03,-723.79C191.27,-728.73 227.54,-734.85 259.83,-738.76 400.13,-755.73 452.36,-695.96 576.9,-762.76 620.13,-785.94 650.88,-836.38 666.48,-867.17"/>
<polygon fill="black" stroke="black" points="663.47,-868.97 671.01,-876.41 669.75,-865.89 663.47,-868.97"/>
<text text-anchor="middle" x="453.87" y="-766.56" font-family="Times,serif" font-size="14.00">a</text>
</g>
<!-- http://purl.org/oseg/ontologies/OTRL#ODRL&#45;4 -->
<g id="node9" class="node">
<title>http://purl.org/oseg/ontologies/OTRL#ODRL&#45;4</title>
<ellipse fill="none" stroke="#e377c2" cx="120.92" cy="-1240.76" rx="50.82" ry="16.03"/>
<text text-anchor="middle" x="120.92" y="-1237.06" font-family="Times,serif" font-size="14.00">ODRL&#45;4</text>
</g>
<!-- http://purl.org/oseg/ontologies/OTRL#ODRL&#45;4&#45;&gt;http://purl.org/oseg/ontologies/OTRL#ODRL -->
<g id="edge4" class="edge">
<title>http://purl.org/oseg/ontologies/OTRL#ODRL&#45;4&#45;&gt;http://purl.org/oseg/ontologies/OTRL#ODRL</title>
<path fill="none" stroke="black" d="M158.14,-1229.64C181.94,-1222.32 213.75,-1212.51 241.83,-1203.76 281.42,-1191.42 290.9,-1186.93 330.83,-1175.76 356.09,-1168.69 384.53,-1161.64 407.6,-1156.16"/>
<polygon fill="black" stroke="black" points="408.54,-1159.53 417.47,-1153.83 406.93,-1152.72 408.54,-1159.53"/>
</g>
<!-- http://purl.org/oseg/ontologies/OTRL#ODRL&#45;4&#45;&gt;http://www.w3.org/2002/07/owl#class -->
<g id="edge29" class="edge">
<title>http://purl.org/oseg/ontologies/OTRL#ODRL&#45;4&#45;&gt;http://www.w3.org/2002/07/owl#class</title>
<path fill="none" stroke="black" d="M171.35,-1243.16C274.6,-1247.31 509.19,-1251.97 576.9,-1212.76 629.3,-1182.41 663.37,-990.43 674.34,-919.26"/>
<polygon fill="black" stroke="black" points="677.81,-919.7 675.84,-909.29 670.89,-918.66 677.81,-919.7"/>
<text text-anchor="middle" x="453.87" y="-1249.56" font-family="Times,serif" font-size="14.00">a</text>
</g>
<!-- http://purl.org/oseg/ontologies/OTRL#OTRL&#45;1 -->
<g id="node10" class="node">
<title>http://purl.org/oseg/ontologies/OTRL#OTRL&#45;1</title>
<ellipse fill="none" stroke="#e377c2" cx="120.92" cy="-943.76" rx="49.49" ry="16.03"/>
<text text-anchor="middle" x="120.92" y="-940.06" font-family="Times,serif" font-size="14.00">OTRL&#45;1</text>
</g>
<!-- http://purl.org/oseg/ontologies/OTRL#OTRL&#45;1&#45;&gt;http://purl.org/oseg/ontologies/OTRL#OTRL -->
<g id="edge11" class="edge">
<title>http://purl.org/oseg/ontologies/OTRL#OTRL&#45;1&#45;&gt;http://purl.org/oseg/ontologies/OTRL#OTRL</title>
<path fill="none" stroke="black" d="M170.39,-942.82C194.03,-940.13 221.64,-933.44 241.83,-917.76 297.56,-874.48 291.06,-842.87 312.83,-775.76 327.98,-729.05 302.07,-706.55 330.83,-666.76 349.86,-640.42 383.05,-624.01 410.02,-614.41"/>
<polygon fill="black" stroke="black" points="411.27,-617.69 419.63,-611.18 409.04,-611.05 411.27,-617.69"/>
</g>
<!-- http://purl.org/oseg/ontologies/OTRL#OTRL&#45;1&#45;&gt;http://www.w3.org/2002/07/owl#class -->
<g id="edge7" class="edge">
<title>http://purl.org/oseg/ontologies/OTRL#OTRL&#45;1&#45;&gt;http://www.w3.org/2002/07/owl#class</title>
<path fill="none" stroke="black" d="M170.24,-942.15C253.54,-938.98 429.42,-930.54 576.9,-911.76 591.9,-909.85 608.03,-907.13 622.91,-904.34"/>
<polygon fill="black" stroke="black" points="623.82,-907.73 632.99,-902.41 622.51,-900.86 623.82,-907.73"/>
<text text-anchor="middle" x="453.87" y="-937.56" font-family="Times,serif" font-size="14.00">a</text>
</g>
<!-- http://purl.org/oseg/ontologies/OTRL#ODRL&#45;1 -->
<g id="node11" class="node">
<title>http://purl.org/oseg/ontologies/OTRL#ODRL&#45;1</title>
<ellipse fill="none" stroke="#e377c2" cx="120.92" cy="-1296.76" rx="50.82" ry="16.03"/>
<text text-anchor="middle" x="120.92" y="-1293.06" font-family="Times,serif" font-size="14.00">ODRL&#45;1</text>
</g>
<!-- http://purl.org/oseg/ontologies/OTRL#ODRL&#45;1&#45;&gt;http://purl.org/oseg/ontologies/OTRL#ODRL -->
<g id="edge32" class="edge">
<title>http://purl.org/oseg/ontologies/OTRL#ODRL&#45;1&#45;&gt;http://purl.org/oseg/ontologies/OTRL#ODRL</title>
<path fill="none" stroke="black" d="M167.59,-1290.11C190.77,-1285.49 218.82,-1277.9 241.83,-1265.76 278.88,-1246.21 285.45,-1235.47 312.83,-1203.76 322.5,-1192.56 318.79,-1184.36 330.83,-1175.76 351.55,-1160.95 378.75,-1153.41 402.21,-1149.59"/>
<polygon fill="black" stroke="black" points="402.95,-1153.02 412.34,-1148.12 401.95,-1146.09 402.95,-1153.02"/>
</g>
<!-- http://purl.org/oseg/ontologies/OTRL#ODRL&#45;1&#45;&gt;http://www.w3.org/2002/07/owl#class -->
<g id="edge9" class="edge">
<title>http://purl.org/oseg/ontologies/OTRL#ODRL&#45;1&#45;&gt;http://www.w3.org/2002/07/owl#class</title>
<path fill="none" stroke="black" d="M171.14,-1299.52C275.12,-1304.38 512.8,-1310.05 576.9,-1264.76 634.59,-1223.99 666,-997.56 675.25,-919.34"/>
<polygon fill="black" stroke="black" points="678.73,-919.66 676.41,-909.32 671.78,-918.85 678.73,-919.66"/>
<text text-anchor="middle" x="453.87" y="-1306.56" font-family="Times,serif" font-size="14.00">a</text>
</g>
<!-- http://purl.org/oseg/ontologies/OTRL#OTRL&#45;6 -->
<g id="node12" class="node">
<title>http://purl.org/oseg/ontologies/OTRL#OTRL&#45;6</title>
<ellipse fill="none" stroke="#e377c2" cx="120.92" cy="-892.76" rx="49.49" ry="16.03"/>
<text text-anchor="middle" x="120.92" y="-889.06" font-family="Times,serif" font-size="14.00">OTRL&#45;6</text>
</g>
<!-- http://purl.org/oseg/ontologies/OTRL#OTRL&#45;6&#45;&gt;http://purl.org/oseg/ontologies/OTRL#OTRL -->
<g id="edge5" class="edge">
<title>http://purl.org/oseg/ontologies/OTRL#OTRL&#45;6&#45;&gt;http://purl.org/oseg/ontologies/OTRL#OTRL</title>
<path fill="none" stroke="black" d="M167.53,-887.25C191.96,-882.27 221.18,-872.78 241.83,-854.76 311.47,-793.95 266.81,-733.45 330.83,-666.76 353.38,-643.27 386.45,-626.66 412.48,-616.26"/>
<polygon fill="black" stroke="black" points="413.99,-619.43 422.07,-612.58 411.48,-612.9 413.99,-619.43"/>
</g>
<!-- http://purl.org/oseg/ontologies/OTRL#OTRL&#45;6&#45;&gt;http://www.w3.org/2002/07/owl#class -->
<g id="edge10" class="edge">
<title>http://purl.org/oseg/ontologies/OTRL#OTRL&#45;6&#45;&gt;http://www.w3.org/2002/07/owl#class</title>
<path fill="none" stroke="black" d="M170.79,-892.76C270.67,-892.76 498.28,-892.76 611.57,-892.76"/>
<polygon fill="black" stroke="black" points="611.84,-896.26 621.84,-892.76 611.84,-889.26 611.84,-896.26"/>
<text text-anchor="middle" x="453.87" y="-896.56" font-family="Times,serif" font-size="14.00">a</text>
</g>
<!-- http://purl.org/oseg/ontologies/OTRL#ODRL&#45;0 -->
<g id="node13" class="node">
<title>http://purl.org/oseg/ontologies/OTRL#ODRL&#45;0</title>
<ellipse fill="none" stroke="#e377c2" cx="120.92" cy="-1178.76" rx="50.82" ry="16.03"/>
<text text-anchor="middle" x="120.92" y="-1175.06" font-family="Times,serif" font-size="14.00">ODRL&#45;0</text>
</g>
<!-- http://purl.org/oseg/ontologies/OTRL#ODRL&#45;0&#45;&gt;http://purl.org/oseg/ontologies/OTRL#ODRL -->
<g id="edge12" class="edge">
<title>http://purl.org/oseg/ontologies/OTRL#ODRL&#45;0&#45;&gt;http://purl.org/oseg/ontologies/OTRL#ODRL</title>
<path fill="none" stroke="black" d="M168.15,-1172.59C194.9,-1169.14 229.23,-1164.91 259.83,-1161.76 308.19,-1156.77 363.5,-1152.32 402.48,-1149.38"/>
<polygon fill="black" stroke="black" points="402.81,-1152.86 412.52,-1148.63 402.29,-1145.88 402.81,-1152.86"/>
</g>
<!-- http://purl.org/oseg/ontologies/OTRL#ODRL&#45;0&#45;&gt;http://www.w3.org/2002/07/owl#class -->
<g id="edge34" class="edge">
<title>http://purl.org/oseg/ontologies/OTRL#ODRL&#45;0&#45;&gt;http://www.w3.org/2002/07/owl#class</title>
<path fill="none" stroke="black" d="M170.25,-1183.09C272.47,-1191.42 506.93,-1205.92 576.9,-1170.76 669.15,-1124.4 678.98,-979.47 678.94,-919.33"/>
<polygon fill="black" stroke="black" points="682.44,-919.09 678.83,-909.13 675.44,-919.16 682.44,-919.09"/>
<text text-anchor="middle" x="453.87" y="-1197.56" font-family="Times,serif" font-size="14.00">a</text>
</g>
<!-- http://purl.org/oseg/ontologies/OTRL#ODRL&#45;5 -->
<g id="node14" class="node">
<title>http://purl.org/oseg/ontologies/OTRL#ODRL&#45;5</title>
<ellipse fill="none" stroke="#e377c2" cx="120.92" cy="-1062.76" rx="50.82" ry="16.03"/>
<text text-anchor="middle" x="120.92" y="-1059.06" font-family="Times,serif" font-size="14.00">ODRL&#45;5</text>
</g>
<!-- http://purl.org/oseg/ontologies/OTRL#ODRL&#45;5&#45;&gt;http://purl.org/oseg/ontologies/OTRL#ODRL -->
<g id="edge28" class="edge">
<title>http://purl.org/oseg/ontologies/OTRL#ODRL&#45;5&#45;&gt;http://purl.org/oseg/ontologies/OTRL#ODRL</title>
<path fill="none" stroke="black" d="M161.17,-1072.81C203.14,-1083.53 271.66,-1100.98 330.83,-1115.76 356.46,-1122.16 385.15,-1129.22 408.26,-1134.88"/>
<polygon fill="black" stroke="black" points="407.59,-1138.31 418.13,-1137.29 409.25,-1131.51 407.59,-1138.31"/>
</g>
<!-- http://purl.org/oseg/ontologies/OTRL#ODRL&#45;5&#45;&gt;http://www.w3.org/2002/07/owl#class -->
<g id="edge35" class="edge">
<title>http://purl.org/oseg/ontologies/OTRL#ODRL&#45;5&#45;&gt;http://www.w3.org/2002/07/owl#class</title>
<path fill="none" stroke="black" d="M171.9,-1062.32C275.11,-1060.66 507.89,-1052.78 576.9,-1015.76 618.07,-993.67 649,-947.18 665.28,-918.11"/>
<polygon fill="black" stroke="black" points="668.55,-919.44 670.24,-908.98 662.39,-916.1 668.55,-919.44"/>
<text text-anchor="middle" x="453.87" y="-1060.56" font-family="Times,serif" font-size="14.00">a</text>
</g>
<!-- http://purl.org/oseg/ontologies/OTRL#OTRL&#45;7 -->
<g id="node15" class="node">
<title>http://purl.org/oseg/ontologies/OTRL#OTRL&#45;7</title>
<ellipse fill="none" stroke="#e377c2" cx="120.92" cy="-829.76" rx="49.49" ry="16.03"/>
<text text-anchor="middle" x="120.92" y="-826.06" font-family="Times,serif" font-size="14.00">OTRL&#45;7</text>
</g>
<!-- http://purl.org/oseg/ontologies/OTRL#OTRL&#45;7&#45;&gt;http://purl.org/oseg/ontologies/OTRL#OTRL -->
<g id="edge18" class="edge">
<title>http://purl.org/oseg/ontologies/OTRL#OTRL&#45;7&#45;&gt;http://purl.org/oseg/ontologies/OTRL#OTRL</title>
<path fill="none" stroke="black" d="M170.19,-831.44C194.96,-829.63 223.66,-822.93 241.83,-803.76 276.5,-767.15 229.36,-731.92 259.83,-691.76 264.95,-685.01 361.89,-642.22 416.41,-618.51"/>
<polygon fill="black" stroke="black" points="417.96,-621.65 425.74,-614.46 415.17,-615.23 417.96,-621.65"/>
</g>
<!-- http://purl.org/oseg/ontologies/OTRL#OTRL&#45;7&#45;&gt;http://www.w3.org/2002/07/owl#class -->
<g id="edge37" class="edge">
<title>http://purl.org/oseg/ontologies/OTRL#OTRL&#45;7&#45;&gt;http://www.w3.org/2002/07/owl#class</title>
<path fill="none" stroke="black" d="M169.57,-832.96C252.58,-838.86 428.99,-852.77 576.9,-873.76 591.73,-875.86 607.68,-878.62 622.44,-881.38"/>
<polygon fill="black" stroke="black" points="621.97,-884.85 632.44,-883.28 623.27,-877.97 621.97,-884.85"/>
<text text-anchor="middle" x="453.87" y="-877.56" font-family="Times,serif" font-size="14.00">a</text>
</g>
<!-- http://purl.org/oseg/ontologies/OTRL#ODRL&#45;3 -->
<g id="node16" class="node">
<title>http://purl.org/oseg/ontologies/OTRL#ODRL&#45;3</title>
<ellipse fill="none" stroke="#e377c2" cx="120.92" cy="-998.76" rx="50.82" ry="16.03"/>
<text text-anchor="middle" x="120.92" y="-995.06" font-family="Times,serif" font-size="14.00">ODRL&#45;3</text>
</g>
<!-- http://purl.org/oseg/ontologies/OTRL#ODRL&#45;3&#45;&gt;http://purl.org/oseg/ontologies/OTRL#ODRL -->
<g id="edge13" class="edge">
<title>http://purl.org/oseg/ontologies/OTRL#ODRL&#45;3&#45;&gt;http://purl.org/oseg/ontologies/OTRL#ODRL</title>
<path fill="none" stroke="black" d="M162.83,-1008.12C186.73,-1014.53 216.99,-1024.33 241.83,-1037.76 277.43,-1057 283.76,-1066.61 312.83,-1094.76 321.66,-1103.31 320.36,-1109.31 330.83,-1115.76 352.52,-1129.1 379.8,-1136.52 403.07,-1140.63"/>
<polygon fill="black" stroke="black" points="402.67,-1144.11 413.1,-1142.25 403.79,-1137.2 402.67,-1144.11"/>
</g>
<!-- http://purl.org/oseg/ontologies/OTRL#ODRL&#45;3&#45;&gt;http://www.w3.org/2002/07/owl#class -->
<g id="edge39" class="edge">
<title>http://purl.org/oseg/ontologies/OTRL#ODRL&#45;3&#45;&gt;http://www.w3.org/2002/07/owl#class</title>
<path fill="none" stroke="black" d="M171.5,-1000.62C256.68,-1002.33 435.31,-999.34 576.9,-952.76 603.5,-944.01 630.64,-927.44 650.12,-913.92"/>
<polygon fill="black" stroke="black" points="652.38,-916.61 658.5,-907.97 648.32,-910.91 652.38,-916.61"/>
<text text-anchor="middle" x="453.87" y="-1000.56" font-family="Times,serif" font-size="14.00">a</text>
</g>
<!-- http://purl.org/oseg/ontologies/OTRL#OTRL&#45;4 -->
<g id="node17" class="node">
<title>http://purl.org/oseg/ontologies/OTRL#OTRL&#45;4</title>
<ellipse fill="none" stroke="#e377c2" cx="120.92" cy="-778.76" rx="49.49" ry="16.03"/>
<text text-anchor="middle" x="120.92" y="-775.06" font-family="Times,serif" font-size="14.00">OTRL&#45;4</text>
</g>
<!-- http://purl.org/oseg/ontologies/OTRL#OTRL&#45;4&#45;&gt;http://purl.org/oseg/ontologies/OTRL#OTRL -->
<g id="edge41" class="edge">
<title>http://purl.org/oseg/ontologies/OTRL#OTRL&#45;4&#45;&gt;http://purl.org/oseg/ontologies/OTRL#OTRL</title>
<path fill="none" stroke="black" d="M169.05,-774.82C193.94,-770.31 223.12,-760.79 241.83,-740.76 264.93,-716.02 236.89,-691.65 259.83,-666.76 280.03,-644.84 357.58,-623.99 408.02,-612.33"/>
<polygon fill="black" stroke="black" points="409.06,-615.69 418.04,-610.06 407.51,-608.86 409.06,-615.69"/>
</g>
<!-- http://purl.org/oseg/ontologies/OTRL#OTRL&#45;4&#45;&gt;http://www.w3.org/2002/07/owl#class -->
<g id="edge14" class="edge">
<title>http://purl.org/oseg/ontologies/OTRL#OTRL&#45;4&#45;&gt;http://www.w3.org/2002/07/owl#class</title>
<path fill="none" stroke="black" d="M170.33,-776.8C255.26,-774.92 435.48,-777.9 576.9,-827.76 604.54,-837.5 632.29,-856.07 651.74,-870.88"/>
<polygon fill="black" stroke="black" points="649.76,-873.78 659.8,-877.17 654.06,-868.26 649.76,-873.78"/>
<text text-anchor="middle" x="453.87" y="-831.56" font-family="Times,serif" font-size="14.00">a</text>
</g>
<!-- http://purl.org/oseg/ontologies/OTRL#OTRL&#45;5 -->
<g id="node18" class="node">
<title>http://purl.org/oseg/ontologies/OTRL#OTRL&#45;5</title>
<ellipse fill="none" stroke="#e377c2" cx="120.92" cy="-641.76" rx="49.49" ry="16.03"/>
<text text-anchor="middle" x="120.92" y="-638.06" font-family="Times,serif" font-size="14.00">OTRL&#45;5</text>
</g>
<!-- http://purl.org/oseg/ontologies/OTRL#OTRL&#45;5&#45;&gt;http://purl.org/oseg/ontologies/OTRL#OTRL -->
<g id="edge17" class="edge">
<title>http://purl.org/oseg/ontologies/OTRL#OTRL&#45;5&#45;&gt;http://purl.org/oseg/ontologies/OTRL#OTRL</title>
<path fill="none" stroke="black" d="M163.08,-633.11C190.4,-627.66 227.12,-620.9 259.83,-616.76 308.79,-610.56 365.11,-606.87 404.23,-604.84"/>
<polygon fill="black" stroke="black" points="404.48,-608.33 414.29,-604.34 404.13,-601.34 404.48,-608.33"/>
</g>
<!-- http://purl.org/oseg/ontologies/OTRL#OTRL&#45;5&#45;&gt;http://www.w3.org/2002/07/owl#class -->
<g id="edge40" class="edge">
<title>http://purl.org/oseg/ontologies/OTRL#OTRL&#45;5&#45;&gt;http://www.w3.org/2002/07/owl#class</title>
<path fill="none" stroke="black" d="M167.99,-636.41C255.93,-628.69 450.18,-623.82 576.9,-711.76 631.33,-749.53 659.84,-826.5 671.57,-866.81"/>
<polygon fill="black" stroke="black" points="668.2,-867.76 674.25,-876.46 674.94,-865.88 668.2,-867.76"/>
<text text-anchor="middle" x="453.87" y="-715.56" font-family="Times,serif" font-size="14.00">a</text>
</g>
<!-- http://purl.org/oseg/ontologies/OTRL#exitCriteria -->
<g id="node19" class="node">
<title>http://purl.org/oseg/ontologies/OTRL#exitCriteria</title>
<ellipse fill="none" stroke="#e377c2" cx="120.92" cy="-270.76" rx="70.01" ry="16.03"/>
<text text-anchor="middle" x="120.92" y="-267.06" font-family="Times,serif" font-size="14.00">exitCriteria</text>
</g>
<!-- http://purl.org/oseg/ontologies/OTRL#exitCriteria&#45;&gt;http://purl.org/oseg/ontologies/OTRL#OTRL -->
<g id="edge6" class="edge">
<title>http://purl.org/oseg/ontologies/OTRL#exitCriteria&#45;&gt;http://purl.org/oseg/ontologies/OTRL#OTRL</title>
<path fill="none" stroke="black" d="M166.08,-283.27C192.25,-293.01 223.73,-309.26 241.83,-334.76 272.03,-377.3 226.61,-410.53 259.83,-450.76 275.76,-470.05 296.7,-450.63 312.83,-469.76 342.51,-504.95 299.51,-538.02 330.83,-571.76 349.33,-591.68 378.66,-599.56 403.92,-602.4"/>
<polygon fill="black" stroke="black" points="403.83,-605.9 414.1,-603.3 404.45,-598.93 403.83,-605.9"/>
<text text-anchor="middle" x="286.33" y="-473.56" font-family="Times,serif" font-size="14.00">domain</text>
</g>
<!-- http://purl.org/oseg/ontologies/OTRL#exitCriteria&#45;&gt;http://www.w3.org/2002/07/owl#DatatypeProperty -->
<g id="edge15" class="edge">
<title>http://purl.org/oseg/ontologies/OTRL#exitCriteria&#45;&gt;http://www.w3.org/2002/07/owl#DatatypeProperty</title>
<path fill="none" stroke="black" d="M164.47,-257.92C219.9,-241.13 310.13,-213.49 312.83,-210.76 332.39,-190.94 314.74,-173.48 330.83,-150.76 351.66,-121.34 385.31,-97.85 412,-82.41"/>
<polygon fill="black" stroke="black" points="413.76,-85.44 420.76,-77.48 410.32,-79.33 413.76,-85.44"/>
<text text-anchor="middle" x="286.33" y="-232.56" font-family="Times,serif" font-size="14.00">a</text>
</g>
<!-- http://purl.org/oseg/ontologies/OTRL#exitCriteria&#45;&gt;http://schema.org/Text -->
<g id="edge45" class="edge">
<title>http://purl.org/oseg/ontologies/OTRL#exitCriteria&#45;&gt;http://schema.org/Text</title>
<path fill="none" stroke="black" d="M190.75,-268.89C227.62,-266.39 273.44,-260.84 312.83,-248.76 352.16,-236.69 393.49,-213.69 420.97,-196.72"/>
<polygon fill="black" stroke="black" points="423.12,-199.5 429.73,-191.22 419.4,-193.57 423.12,-199.5"/>
<text text-anchor="middle" x="286.33" y="-264.56" font-family="Times,serif" font-size="14.00">range</text>
</g>
<!-- http://purl.org/oseg/ontologies/OTRL#softwareDescription -->
<g id="node20" class="node">
<title>http://purl.org/oseg/ontologies/OTRL#softwareDescription</title>
<ellipse fill="none" stroke="#e377c2" cx="120.92" cy="-156.76" rx="113.69" ry="16.03"/>
<text text-anchor="middle" x="120.92" y="-153.06" font-family="Times,serif" font-size="14.00">softwareDescription</text>
</g>
<!-- http://purl.org/oseg/ontologies/OTRL#softwareDescription&#45;&gt;http://purl.org/oseg/ontologies/OTRL#OTRL -->
<g id="edge8" class="edge">
<title>http://purl.org/oseg/ontologies/OTRL#softwareDescription&#45;&gt;http://purl.org/oseg/ontologies/OTRL#OTRL</title>
<path fill="none" stroke="black" d="M217.91,-165.47C226.94,-169.65 235.19,-175.27 241.83,-182.76 270.26,-214.82 233.56,-340.9 259.83,-374.76 275.17,-394.52 297.42,-374.04 312.83,-393.76 361.81,-456.39 278.92,-511.53 330.83,-571.76 348.71,-592.49 378.3,-600.36 403.87,-602.99"/>
<polygon fill="black" stroke="black" points="403.92,-606.5 414.17,-603.79 404.47,-599.52 403.92,-606.5"/>
<text text-anchor="middle" x="286.33" y="-397.56" font-family="Times,serif" font-size="14.00">domain</text>
</g>
<!-- http://purl.org/oseg/ontologies/OTRL#softwareDescription&#45;&gt;http://www.w3.org/2002/07/owl#DatatypeProperty -->
<g id="edge42" class="edge">
<title>http://purl.org/oseg/ontologies/OTRL#softwareDescription&#45;&gt;http://www.w3.org/2002/07/owl#DatatypeProperty</title>
<path fill="none" stroke="black" d="M215.92,-147.8C225.56,-143.7 234.48,-138.17 241.83,-130.76 269.62,-102.7 229.21,-68.69 259.83,-43.76 302.05,-9.38 367.99,-25.63 410.82,-42.26"/>
<polygon fill="black" stroke="black" points="409.53,-45.52 420.12,-46.02 412.16,-39.03 409.53,-45.52"/>
<text text-anchor="middle" x="286.33" y="-47.56" font-family="Times,serif" font-size="14.00">a</text>
</g>
<!-- http://purl.org/oseg/ontologies/OTRL#softwareDescription&#45;&gt;http://schema.org/Text -->
<g id="edge1" class="edge">
<title>http://purl.org/oseg/ontologies/OTRL#softwareDescription&#45;&gt;http://schema.org/Text</title>
<path fill="none" stroke="black" d="M234.31,-155.05C260.12,-155.3 287.45,-156.07 312.83,-157.76 335.52,-159.27 360.16,-162.05 382.36,-164.98"/>
<polygon fill="black" stroke="black" points="381.99,-168.46 392.37,-166.33 382.93,-161.53 381.99,-168.46"/>
<text text-anchor="middle" x="286.33" y="-161.56" font-family="Times,serif" font-size="14.00">range</text>
</g>
<!-- http://purl.org/oseg/ontologies/OTRL#OTRL&#45;3 -->
<g id="node21" class="node">
<title>http://purl.org/oseg/ontologies/OTRL#OTRL&#45;3</title>
<ellipse fill="none" stroke="#e377c2" cx="120.92" cy="-565.76" rx="49.49" ry="16.03"/>
<text text-anchor="middle" x="120.92" y="-562.06" font-family="Times,serif" font-size="14.00">OTRL&#45;3</text>
</g>
<!-- http://purl.org/oseg/ontologies/OTRL#OTRL&#45;3&#45;&gt;http://purl.org/oseg/ontologies/OTRL#OTRL -->
<g id="edge33" class="edge">
<title>http://purl.org/oseg/ontologies/OTRL#OTRL&#45;3&#45;&gt;http://purl.org/oseg/ontologies/OTRL#OTRL</title>
<path fill="none" stroke="black" d="M167.93,-570.9C230.52,-577.9 341.92,-590.35 405.3,-597.44"/>
<polygon fill="black" stroke="black" points="405.1,-600.94 415.43,-598.57 405.88,-593.98 405.1,-600.94"/>
</g>
<!-- http://purl.org/oseg/ontologies/OTRL#OTRL&#45;3&#45;&gt;http://www.w3.org/2002/07/owl#class -->
<g id="edge19" class="edge">
<title>http://purl.org/oseg/ontologies/OTRL#OTRL&#45;3&#45;&gt;http://www.w3.org/2002/07/owl#class</title>
<path fill="none" stroke="black" d="M154.27,-553.68C234.82,-525.89 447.16,-466.86 576.9,-562.76 627.1,-599.86 662.66,-795.07 674.17,-866.53"/>
<polygon fill="black" stroke="black" points="670.73,-867.18 675.75,-876.51 677.64,-866.09 670.73,-867.18"/>
<text text-anchor="middle" x="453.87" y="-566.56" font-family="Times,serif" font-size="14.00">a</text>
</g>
<!-- http://purl.org/oseg/ontologies/OTRL#hardwareDescription -->
<g id="node22" class="node">
<title>http://purl.org/oseg/ontologies/OTRL#hardwareDescription</title>
<ellipse fill="none" stroke="#e377c2" cx="120.92" cy="-207.76" rx="118.17" ry="16.03"/>
<text text-anchor="middle" x="120.92" y="-204.06" font-family="Times,serif" font-size="14.00">hardwareDescription</text>
</g>
<!-- http://purl.org/oseg/ontologies/OTRL#hardwareDescription&#45;&gt;http://purl.org/oseg/ontologies/OTRL#OTRL -->
<g id="edge46" class="edge">
<title>http://purl.org/oseg/ontologies/OTRL#hardwareDescription&#45;&gt;http://purl.org/oseg/ontologies/OTRL#OTRL</title>
<path fill="none" stroke="black" d="M203.28,-219.57C218.03,-225.26 231.87,-233.59 241.83,-245.76 289.1,-303.54 213.65,-354.1 259.83,-412.76 275.31,-432.42 297.15,-412.26 312.83,-431.76 352.14,-480.65 289.23,-524.8 330.83,-571.76 348.92,-592.18 378.38,-600.06 403.82,-602.77"/>
<polygon fill="black" stroke="black" points="403.81,-606.28 414.06,-603.61 404.39,-599.3 403.81,-606.28"/>
<text text-anchor="middle" x="286.33" y="-435.56" font-family="Times,serif" font-size="14.00">domain</text>
</g>
<!-- http://purl.org/oseg/ontologies/OTRL#hardwareDescription&#45;&gt;http://www.w3.org/2002/07/owl#DatatypeProperty -->
<g id="edge43" class="edge">
<title>http://purl.org/oseg/ontologies/OTRL#hardwareDescription&#45;&gt;http://www.w3.org/2002/07/owl#DatatypeProperty</title>
<path fill="none" stroke="black" d="M216.56,-198.17C225.9,-194.16 234.59,-188.82 241.83,-181.76 266.06,-158.12 235.84,-131.63 259.83,-107.76 278.67,-89.01 303.68,-77.38 329.44,-70.29"/>
<polygon fill="black" stroke="black" points="330.5,-73.63 339.34,-67.78 328.78,-66.84 330.5,-73.63"/>
<text text-anchor="middle" x="286.33" y="-111.56" font-family="Times,serif" font-size="14.00">a</text>
</g>
<!-- http://purl.org/oseg/ontologies/OTRL#hardwareDescription&#45;&gt;http://schema.org/Text -->
<g id="edge22" class="edge">
<title>http://purl.org/oseg/ontologies/OTRL#hardwareDescription&#45;&gt;http://schema.org/Text</title>
<path fill="none" stroke="black" d="M218.08,-198.46C267.96,-193.64 328.08,-187.82 375,-183.29"/>
<polygon fill="black" stroke="black" points="375.49,-186.75 385.11,-182.31 374.82,-179.79 375.49,-186.75"/>
<text text-anchor="middle" x="286.33" y="-197.56" font-family="Times,serif" font-size="14.00">range</text>
</g>
<!-- http://purl.org/oseg/ontologies/OTRL#OTRL&#45;2 -->
<g id="node23" class="node">
<title>http://purl.org/oseg/ontologies/OTRL#OTRL&#45;2</title>
<ellipse fill="none" stroke="#e377c2" cx="120.92" cy="-437.76" rx="49.49" ry="16.03"/>
<text text-anchor="middle" x="120.92" y="-434.06" font-family="Times,serif" font-size="14.00">OTRL&#45;2</text>
</g>
<!-- http://purl.org/oseg/ontologies/OTRL#OTRL&#45;2&#45;&gt;http://purl.org/oseg/ontologies/OTRL#OTRL -->
<g id="edge20" class="edge">
<title>http://purl.org/oseg/ontologies/OTRL#OTRL&#45;2&#45;&gt;http://purl.org/oseg/ontologies/OTRL#OTRL</title>
<path fill="none" stroke="black" d="M140.6,-452.73C175.78,-480.22 255.14,-538.9 330.83,-571.76 355.02,-582.26 383.52,-589.75 406.89,-594.73"/>
<polygon fill="black" stroke="black" points="406.39,-598.2 416.89,-596.78 407.8,-591.34 406.39,-598.2"/>
</g>
<!-- http://purl.org/oseg/ontologies/OTRL#OTRL&#45;2&#45;&gt;http://www.w3.org/2002/07/owl#class -->
<g id="edge44" class="edge">
<title>http://purl.org/oseg/ontologies/OTRL#OTRL&#45;2&#45;&gt;http://www.w3.org/2002/07/owl#class</title>
<path fill="none" stroke="black" d="M161.81,-428.51C187.6,-420.7 220.26,-407.11 241.83,-384.76 256.79,-369.26 241.99,-351.83 259.83,-339.76 279.34,-326.55 290.07,-333.67 312.83,-339.76 443.66,-374.72 492.97,-385.48 576.9,-491.76 668.57,-607.83 678.29,-796.72 678.59,-866.11"/>
<polygon fill="black" stroke="black" points="675.09,-866.18 678.57,-876.19 682.09,-866.19 675.09,-866.18"/>
<text text-anchor="middle" x="453.87" y="-495.56" font-family="Times,serif" font-size="14.00">a</text>
</g>
<!-- http://purl.org/oseg/ontologies/OTRL#ODRL&#45;2 -->
<g id="node24" class="node">
<title>http://purl.org/oseg/ontologies/OTRL#ODRL&#45;2</title>
<ellipse fill="none" stroke="#e377c2" cx="120.92" cy="-1119.76" rx="50.82" ry="16.03"/>
<text text-anchor="middle" x="120.92" y="-1116.06" font-family="Times,serif" font-size="14.00">ODRL&#45;2</text>
</g>
<!-- http://purl.org/oseg/ontologies/OTRL#ODRL&#45;2&#45;&gt;http://purl.org/oseg/ontologies/OTRL#ODRL -->
<g id="edge31" class="edge">
<title>http://purl.org/oseg/ontologies/OTRL#ODRL&#45;2&#45;&gt;http://purl.org/oseg/ontologies/OTRL#ODRL</title>
<path fill="none" stroke="black" d="M170.75,-1123.59C232.92,-1128.48 339.77,-1136.87 402.61,-1141.81"/>
<polygon fill="black" stroke="black" points="402.44,-1145.31 412.68,-1142.6 402.99,-1138.33 402.44,-1145.31"/>
</g>
<!-- http://purl.org/oseg/ontologies/OTRL#ODRL&#45;2&#45;&gt;http://www.w3.org/2002/07/owl#class -->
<g id="edge21" class="edge">
<title>http://purl.org/oseg/ontologies/OTRL#ODRL&#45;2&#45;&gt;http://www.w3.org/2002/07/owl#class</title>
<path fill="none" stroke="black" d="M170.6,-1116.16C284.51,-1107.57 560.09,-1085.79 576.9,-1074.76 632.66,-1038.16 660.65,-959.82 671.93,-918.89"/>
<polygon fill="black" stroke="black" points="675.35,-919.66 674.51,-909.1 668.58,-917.88 675.35,-919.66"/>
<text text-anchor="middle" x="453.87" y="-1107.56" font-family="Times,serif" font-size="14.00">a</text>
</g>
<!-- http://purl.org/oseg/ontologies/OTRL#documentationDescription -->
<g id="node25" class="node">
<title>http://purl.org/oseg/ontologies/OTRL#documentationDescription</title>
<ellipse fill="none" stroke="#e377c2" cx="120.92" cy="-105.76" rx="120.83" ry="16.03"/>
<text text-anchor="middle" x="120.92" y="-102.06" font-family="Times,serif" font-size="14.00">documentationDesc...</text>
</g>
<!-- http://purl.org/oseg/ontologies/OTRL#documentationDescription&#45;&gt;http://purl.org/oseg/ontologies/OTRL#OTRL -->
<g id="edge25" class="edge">
<title>http://purl.org/oseg/ontologies/OTRL#documentationDescription&#45;&gt;http://purl.org/oseg/ontologies/OTRL#OTRL</title>
<path fill="none" stroke="black" d="M219.14,-115.33C227.66,-119.4 235.44,-124.75 241.83,-131.76 264.15,-156.24 248,-248.81 259.83,-279.76 274.53,-318.22 298.86,-317.02 312.83,-355.76 329.17,-401.07 299.71,-535 330.83,-571.76 348.66,-592.82 378.58,-600.65 404.34,-603.17"/>
<polygon fill="black" stroke="black" points="404.1,-606.66 414.33,-603.91 404.62,-599.68 404.1,-606.66"/>
<text text-anchor="middle" x="286.33" y="-359.56" font-family="Times,serif" font-size="14.00">domain</text>
</g>
<!-- http://purl.org/oseg/ontologies/OTRL#documentationDescription&#45;&gt;http://www.w3.org/2002/07/owl#DatatypeProperty -->
<g id="edge23" class="edge">
<title>http://purl.org/oseg/ontologies/OTRL#documentationDescription&#45;&gt;http://www.w3.org/2002/07/owl#DatatypeProperty</title>
<path fill="none" stroke="black" d="M137.38,-89.29C161.05,-65.42 208.91,-22.27 259.83,-5.76 315.91,12.44 382.05,-17.78 420.54,-40.43"/>
<polygon fill="black" stroke="black" points="418.88,-43.51 429.25,-45.7 422.51,-37.52 418.88,-43.51"/>
<text text-anchor="middle" x="286.33" y="-9.56" font-family="Times,serif" font-size="14.00">a</text>
</g>
<!-- http://purl.org/oseg/ontologies/OTRL#documentationDescription&#45;&gt;http://schema.org/Text -->
<g id="edge3" class="edge">
<title>http://purl.org/oseg/ontologies/OTRL#documentationDescription&#45;&gt;http://schema.org/Text</title>
<path fill="none" stroke="black" d="M205.93,-117.35C239.36,-122.49 278.07,-129.12 312.83,-136.76 342.01,-143.17 374.15,-151.99 400.27,-159.62"/>
<polygon fill="black" stroke="black" points="399.38,-163.01 409.96,-162.48 401.36,-156.29 399.38,-163.01"/>
<text text-anchor="middle" x="286.33" y="-140.56" font-family="Times,serif" font-size="14.00">range</text>
</g>
<!-- http://purl.org/oseg/ontologies/OTRL#OTRL&#45;8 -->
<g id="node26" class="node">
<title>http://purl.org/oseg/ontologies/OTRL#OTRL&#45;8</title>
<ellipse fill="none" stroke="#e377c2" cx="120.92" cy="-359.76" rx="49.49" ry="16.03"/>
<text text-anchor="middle" x="120.92" y="-356.06" font-family="Times,serif" font-size="14.00">OTRL&#45;8</text>
</g>
<!-- http://purl.org/oseg/ontologies/OTRL#OTRL&#45;8&#45;&gt;http://purl.org/oseg/ontologies/OTRL#OTRL -->
<g id="edge38" class="edge">
<title>http://purl.org/oseg/ontologies/OTRL#OTRL&#45;8&#45;&gt;http://purl.org/oseg/ontologies/OTRL#OTRL</title>
<path fill="none" stroke="black" d="M163.5,-368.17C189.67,-375.58 222.11,-389.04 241.83,-412.76 264.02,-439.45 241.7,-459.16 259.83,-488.76 275.97,-515.11 294.02,-509.24 312.83,-533.76 324.21,-548.58 316.4,-559.88 330.83,-571.76 351.36,-588.65 379.93,-596.49 404.26,-600.06"/>
<polygon fill="black" stroke="black" points="404.04,-603.56 414.4,-601.35 404.92,-596.62 404.04,-603.56"/>
</g>
<!-- http://purl.org/oseg/ontologies/OTRL#OTRL&#45;8&#45;&gt;http://www.w3.org/2002/07/owl#class -->
<g id="edge24" class="edge">
<title>http://purl.org/oseg/ontologies/OTRL#OTRL&#45;8&#45;&gt;http://www.w3.org/2002/07/owl#class</title>
<path fill="none" stroke="black" d="M149.18,-346.22C226.5,-309.96 449.82,-220.39 576.9,-326.76 661.01,-397.15 675.35,-763.73 677.72,-866.15"/>
<polygon fill="black" stroke="black" points="674.22,-866.34 677.94,-876.27 681.22,-866.19 674.22,-866.34"/>
<text text-anchor="middle" x="453.87" y="-330.56" font-family="Times,serif" font-size="14.00">a</text>
</g>
</g>
</svg>
