<?xml version="1.0" encoding="UTF-8" standalone="no"?>
<!DOCTYPE svg PUBLIC "-//W3C//DTD SVG 1.1//EN"
 "http://www.w3.org/Graphics/SVG/1.1/DTD/svg11.dtd">
<!-- Generated by graphviz version 2.43.0 (0)
 -->
<!-- Title: G Pages: 1 -->
<svg width="632pt" height="868pt"
 viewBox="0.00 0.00 631.63 867.58" xmlns="http://www.w3.org/2000/svg" xmlns:xlink="http://www.w3.org/1999/xlink">
<g id="graph0" class="graph" transform="scale(1 1) rotate(0) translate(4 863.58)">
<title>G</title>
<polygon fill="white" stroke="transparent" points="-4,4 -4,-863.58 627.63,-863.58 627.63,4 -4,4"/>
<!-- http://purl.org/oseg/ontologies/OTRL#ODRL -->
<g id="node1" class="node">
<title>http://purl.org/oseg/ontologies/OTRL#ODRL</title>
<ellipse fill="none" stroke="#e377c2" cx="341.04" cy="-491.31" rx="41.94" ry="16.03"/>
<text text-anchor="middle" x="341.04" y="-487.61" font-family="Times,serif" font-size="14.00">ODRL</text>
</g>
<!-- http://www.w3.org/2002/07/owl#class -->
<g id="node3" class="node">
<title>http://www.w3.org/2002/07/owl#class</title>
<ellipse fill="none" stroke="#1f77b4" cx="566.36" cy="-314.31" rx="57.05" ry="16.03"/>
<text text-anchor="middle" x="566.36" y="-310.61" font-family="Times,serif" font-size="14.00">owl:class</text>
</g>
<!-- http://purl.org/oseg/ontologies/OTRL#ODRL&#45;&gt;http://www.w3.org/2002/07/owl#class -->
<g id="edge11" class="edge">
<title>http://purl.org/oseg/ontologies/OTRL#ODRL&#45;&gt;http://www.w3.org/2002/07/owl#class</title>
<path fill="none" stroke="black" d="M382.97,-490.73C415.35,-488.3 460.1,-480.34 491.08,-456.31 528.97,-426.92 549.51,-372.74 558.88,-340.48"/>
<polygon fill="black" stroke="black" points="562.26,-341.4 561.54,-330.83 555.51,-339.54 562.26,-341.4"/>
<text text-anchor="middle" x="486.58" y="-465.11" font-family="Times,serif" font-size="14.00">a</text>
</g>
<!-- http://www.w3.org/2002/07/owl#Ontology -->
<g id="node2" class="node">
<title>http://www.w3.org/2002/07/owl#Ontology</title>
<ellipse fill="none" stroke="#1f77b4" cx="341.04" cy="-645.31" rx="77.56" ry="16.03"/>
<text text-anchor="middle" x="341.04" y="-641.61" font-family="Times,serif" font-size="14.00">owl:Ontology</text>
</g>
<!-- http://www.w3.org/2002/07/owl#DatatypeProperty -->
<g id="node4" class="node">
<title>http://www.w3.org/2002/07/owl#DatatypeProperty</title>
<ellipse fill="none" stroke="#1f77b4" cx="341.04" cy="-803.31" rx="123.07" ry="16.03"/>
<text text-anchor="middle" x="341.04" y="-799.61" font-family="Times,serif" font-size="14.00">owl:DatatypeProperty</text>
</g>
<!-- http://purl.org/oseg/ontologies/OTRL#OTRL -->
<g id="node5" class="node">
<title>http://purl.org/oseg/ontologies/OTRL#OTRL</title>
<ellipse fill="none" stroke="#e377c2" cx="341.04" cy="-186.31" rx="39.7" ry="16.03"/>
<text text-anchor="middle" x="341.04" y="-182.61" font-family="Times,serif" font-size="14.00">OTRL</text>
</g>
<!-- http://purl.org/oseg/ontologies/OTRL#OTRL&#45;&gt;http://www.w3.org/2002/07/owl#class -->
<g id="edge26" class="edge">
<title>http://purl.org/oseg/ontologies/OTRL#OTRL&#45;&gt;http://www.w3.org/2002/07/owl#class</title>
<path fill="none" stroke="black" d="M380.36,-184.25C412.26,-184.3 457.69,-188.65 491.08,-209.31 521.42,-228.09 542.82,-264.33 554.62,-288.92"/>
<polygon fill="black" stroke="black" points="551.46,-290.41 558.82,-298.03 557.82,-287.48 551.46,-290.41"/>
<text text-anchor="middle" x="486.58" y="-213.11" font-family="Times,serif" font-size="14.00">a</text>
</g>
<!-- http://purl.org/oseg/ontologies/OTRL -->
<g id="node6" class="node">
<title>http://purl.org/oseg/ontologies/OTRL</title>
<ellipse fill="none" stroke="#e377c2" cx="70" cy="-645.31" rx="60.62" ry="16.03"/>
<text text-anchor="middle" x="70" y="-641.61" font-family="Times,serif" font-size="14.00">ns1:OTRL</text>
</g>
<!-- http://purl.org/oseg/ontologies/OTRL&#45;&gt;http://www.w3.org/2002/07/owl#Ontology -->
<g id="edge1" class="edge">
<title>http://purl.org/oseg/ontologies/OTRL&#45;&gt;http://www.w3.org/2002/07/owl#Ontology</title>
<path fill="none" stroke="black" d="M131.05,-645.31C166.88,-645.31 213,-645.31 252.8,-645.31"/>
<polygon fill="black" stroke="black" points="253.04,-648.81 263.04,-645.31 253.04,-641.81 253.04,-648.81"/>
<text text-anchor="middle" x="179.01" y="-649.11" font-family="Times,serif" font-size="14.00">a</text>
</g>
<!-- http://purl.org/oseg/ontologies/OTRL&#45;&gt;http://purl.org/oseg/ontologies/OTRL -->
<g id="edge18" class="edge">
<title>http://purl.org/oseg/ontologies/OTRL&#45;&gt;http://purl.org/oseg/ontologies/OTRL</title>
<path fill="none" stroke="black" d="M51.18,-660.82C46.64,-670.43 52.92,-679.58 70,-679.58 80.68,-679.58 87.14,-676 89.37,-670.98"/>
<polygon fill="black" stroke="black" points="92.85,-670.62 88.82,-660.82 85.86,-670.99 92.85,-670.62"/>
<text text-anchor="middle" x="70" y="-683.38" font-family="Times,serif" font-size="14.00">owl:versionIRI</text>
</g>
<!-- http://purl.org/oseg/ontologies/OTRL#exitCriteria -->
<g id="node7" class="node">
<title>http://purl.org/oseg/ontologies/OTRL#exitCriteria</title>
<ellipse fill="none" stroke="#e377c2" cx="70" cy="-792.31" rx="70.01" ry="16.03"/>
<text text-anchor="middle" x="70" y="-788.61" font-family="Times,serif" font-size="14.00">exitCriteria</text>
</g>
<!-- http://purl.org/oseg/ontologies/OTRL#exitCriteria&#45;&gt;http://www.w3.org/2002/07/owl#DatatypeProperty -->
<g id="edge13" class="edge">
<title>http://purl.org/oseg/ontologies/OTRL#exitCriteria&#45;&gt;http://www.w3.org/2002/07/owl#DatatypeProperty</title>
<path fill="none" stroke="black" d="M139.24,-795.1C161.78,-796.02 187.63,-797.08 213.11,-798.12"/>
<polygon fill="black" stroke="black" points="213.1,-801.62 223.23,-798.54 213.39,-794.63 213.1,-801.62"/>
<text text-anchor="middle" x="179.01" y="-801.11" font-family="Times,serif" font-size="14.00">a</text>
</g>
<!-- http://schema.org/Text -->
<g id="node16" class="node">
<title>http://schema.org/Text</title>
<ellipse fill="none" stroke="#e377c2" cx="341.04" cy="-723.31" rx="74.91" ry="16.03"/>
<text text-anchor="middle" x="341.04" y="-719.61" font-family="Times,serif" font-size="14.00">schema:Text</text>
</g>
<!-- http://purl.org/oseg/ontologies/OTRL#exitCriteria&#45;&gt;http://schema.org/Text -->
<g id="edge23" class="edge">
<title>http://purl.org/oseg/ontologies/OTRL#exitCriteria&#45;&gt;http://schema.org/Text</title>
<path fill="none" stroke="black" d="M117.56,-780.37C163.15,-768.68 232.74,-750.83 281.93,-738.22"/>
<polygon fill="black" stroke="black" points="282.97,-741.56 291.79,-735.69 281.24,-734.78 282.97,-741.56"/>
<text text-anchor="middle" x="179.01" y="-773.11" font-family="Times,serif" font-size="14.00">range</text>
</g>
<!-- http://purl.org/oseg/ontologies/OTRL#OTRL&#45;2 -->
<g id="node8" class="node">
<title>http://purl.org/oseg/ontologies/OTRL#OTRL&#45;2</title>
<ellipse fill="none" stroke="#e377c2" cx="70" cy="-225.31" rx="49.49" ry="16.03"/>
<text text-anchor="middle" x="70" y="-221.61" font-family="Times,serif" font-size="14.00">OTRL&#45;2</text>
</g>
<!-- http://purl.org/oseg/ontologies/OTRL#OTRL&#45;2&#45;&gt;http://www.w3.org/2002/07/owl#class -->
<g id="edge2" class="edge">
<title>http://purl.org/oseg/ontologies/OTRL#OTRL&#45;2&#45;&gt;http://www.w3.org/2002/07/owl#class</title>
<path fill="none" stroke="black" d="M119.51,-224.87C194.74,-225.38 343.47,-231.15 464.08,-265.31 487.82,-272.04 512.79,-284.06 532,-294.51"/>
<polygon fill="black" stroke="black" points="530.5,-297.68 540.93,-299.48 533.9,-291.56 530.5,-297.68"/>
<text text-anchor="middle" x="341.04" y="-269.11" font-family="Times,serif" font-size="14.00">a</text>
</g>
<!-- http://purl.org/oseg/ontologies/OTRL#OTRL&#45;2&#45;&gt;http://purl.org/oseg/ontologies/OTRL#OTRL -->
<g id="edge16" class="edge">
<title>http://purl.org/oseg/ontologies/OTRL#OTRL&#45;2&#45;&gt;http://purl.org/oseg/ontologies/OTRL#OTRL</title>
<path fill="none" stroke="black" d="M115.73,-218.83C164.84,-211.71 243.31,-200.33 293.23,-193.1"/>
<polygon fill="black" stroke="black" points="294.03,-196.52 303.43,-191.62 293.03,-189.59 294.03,-196.52"/>
</g>
<!-- http://purl.org/oseg/ontologies/OTRL#ODRL&#45;1 -->
<g id="node9" class="node">
<title>http://purl.org/oseg/ontologies/OTRL#ODRL&#45;1</title>
<ellipse fill="none" stroke="#e377c2" cx="70" cy="-534.31" rx="50.82" ry="16.03"/>
<text text-anchor="middle" x="70" y="-530.61" font-family="Times,serif" font-size="14.00">ODRL&#45;1</text>
</g>
<!-- http://purl.org/oseg/ontologies/OTRL#ODRL&#45;1&#45;&gt;http://purl.org/oseg/ontologies/OTRL#ODRL -->
<g id="edge28" class="edge">
<title>http://purl.org/oseg/ontologies/OTRL#ODRL&#45;1&#45;&gt;http://purl.org/oseg/ontologies/OTRL#ODRL</title>
<path fill="none" stroke="black" d="M116.03,-527.11C164.88,-519.31 242.52,-506.9 292.37,-498.93"/>
<polygon fill="black" stroke="black" points="292.94,-502.39 302.26,-497.35 291.83,-495.47 292.94,-502.39"/>
</g>
<!-- http://purl.org/oseg/ontologies/OTRL#ODRL&#45;1&#45;&gt;http://www.w3.org/2002/07/owl#class -->
<g id="edge3" class="edge">
<title>http://purl.org/oseg/ontologies/OTRL#ODRL&#45;1&#45;&gt;http://www.w3.org/2002/07/owl#class</title>
<path fill="none" stroke="black" d="M120.13,-537.2C212.01,-541.76 405.86,-547.23 464.08,-516.31 529.97,-481.31 553.86,-386.83 561.78,-340.56"/>
<polygon fill="black" stroke="black" points="565.24,-341.1 563.36,-330.68 558.33,-340 565.24,-341.1"/>
<text text-anchor="middle" x="341.04" y="-545.11" font-family="Times,serif" font-size="14.00">a</text>
</g>
<!-- http://purl.org/oseg/ontologies/OTRL#ODRL&#45;3 -->
<g id="node10" class="node">
<title>http://purl.org/oseg/ontologies/OTRL#ODRL&#45;3</title>
<ellipse fill="none" stroke="#e377c2" cx="70" cy="-591.31" rx="50.82" ry="16.03"/>
<text text-anchor="middle" x="70" y="-587.61" font-family="Times,serif" font-size="14.00">ODRL&#45;3</text>
</g>
<!-- http://purl.org/oseg/ontologies/OTRL#ODRL&#45;3&#45;&gt;http://purl.org/oseg/ontologies/OTRL#ODRL -->
<g id="edge5" class="edge">
<title>http://purl.org/oseg/ontologies/OTRL#ODRL&#45;3&#45;&gt;http://purl.org/oseg/ontologies/OTRL#ODRL</title>
<path fill="none" stroke="black" d="M99.88,-577.94C112.24,-572.21 126.84,-565.44 140.01,-559.31 166.69,-546.9 173.8,-544.69 200.01,-531.31 208.16,-527.15 209.49,-524.66 218.01,-521.31 241.98,-511.9 269.79,-504.79 292.8,-499.86"/>
<polygon fill="black" stroke="black" points="293.59,-503.27 302.67,-497.82 292.17,-496.42 293.59,-503.27"/>
</g>
<!-- http://purl.org/oseg/ontologies/OTRL#ODRL&#45;3&#45;&gt;http://www.w3.org/2002/07/owl#class -->
<g id="edge14" class="edge">
<title>http://purl.org/oseg/ontologies/OTRL#ODRL&#45;3&#45;&gt;http://www.w3.org/2002/07/owl#class</title>
<path fill="none" stroke="black" d="M120.89,-592.98C213.61,-595.19 408.16,-595.32 464.08,-560.31 540.81,-512.28 559.41,-393.6 563.92,-340.6"/>
<polygon fill="black" stroke="black" points="567.41,-340.86 564.66,-330.63 560.43,-340.34 567.41,-340.86"/>
<text text-anchor="middle" x="341.04" y="-598.11" font-family="Times,serif" font-size="14.00">a</text>
</g>
<!-- http://purl.org/oseg/ontologies/OTRL#OTRL&#45;4 -->
<g id="node11" class="node">
<title>http://purl.org/oseg/ontologies/OTRL#OTRL&#45;4</title>
<ellipse fill="none" stroke="#e377c2" cx="70" cy="-276.31" rx="49.49" ry="16.03"/>
<text text-anchor="middle" x="70" y="-272.61" font-family="Times,serif" font-size="14.00">OTRL&#45;4</text>
</g>
<!-- http://purl.org/oseg/ontologies/OTRL#OTRL&#45;4&#45;&gt;http://www.w3.org/2002/07/owl#class -->
<g id="edge15" class="edge">
<title>http://purl.org/oseg/ontologies/OTRL#OTRL&#45;4&#45;&gt;http://www.w3.org/2002/07/owl#class</title>
<path fill="none" stroke="black" d="M119.19,-278.38C193.38,-281.79 340.03,-289.42 464.08,-301.31 477.23,-302.57 491.3,-304.2 504.65,-305.88"/>
<polygon fill="black" stroke="black" points="504.32,-309.36 514.68,-307.16 505.21,-302.42 504.32,-309.36"/>
<text text-anchor="middle" x="341.04" y="-305.11" font-family="Times,serif" font-size="14.00">a</text>
</g>
<!-- http://purl.org/oseg/ontologies/OTRL#OTRL&#45;4&#45;&gt;http://purl.org/oseg/ontologies/OTRL#OTRL -->
<g id="edge9" class="edge">
<title>http://purl.org/oseg/ontologies/OTRL#OTRL&#45;4&#45;&gt;http://purl.org/oseg/ontologies/OTRL#OTRL</title>
<path fill="none" stroke="black" d="M103.77,-264.34C115.28,-260.03 128.26,-255.07 140.01,-250.31 166.95,-239.41 173.39,-235.99 200.01,-224.31 208.02,-220.79 209.72,-219.15 218.01,-216.31 243.09,-207.73 271.86,-200.54 295.16,-195.35"/>
<polygon fill="black" stroke="black" points="296.09,-198.73 305.12,-193.18 294.6,-191.89 296.09,-198.73"/>
</g>
<!-- http://purl.org/oseg/ontologies/OTRL#goal -->
<g id="node12" class="node">
<title>http://purl.org/oseg/ontologies/OTRL#goal</title>
<ellipse fill="none" stroke="#e377c2" cx="70" cy="-729.31" rx="33.47" ry="16.03"/>
<text text-anchor="middle" x="70" y="-725.61" font-family="Times,serif" font-size="14.00">goal</text>
</g>
<!-- http://purl.org/oseg/ontologies/OTRL#goal&#45;&gt;http://www.w3.org/2002/07/owl#DatatypeProperty -->
<g id="edge17" class="edge">
<title>http://purl.org/oseg/ontologies/OTRL#goal&#45;&gt;http://www.w3.org/2002/07/owl#DatatypeProperty</title>
<path fill="none" stroke="black" d="M103.32,-729.07C129.72,-729.59 167.81,-731.96 200.01,-740.31 200.65,-740.48 255.22,-765.06 296.03,-783.46"/>
<polygon fill="black" stroke="black" points="294.73,-786.71 305.29,-787.63 297.61,-780.33 294.73,-786.71"/>
<text text-anchor="middle" x="179.01" y="-744.11" font-family="Times,serif" font-size="14.00">a</text>
</g>
<!-- http://purl.org/oseg/ontologies/OTRL#goal&#45;&gt;http://schema.org/Text -->
<g id="edge10" class="edge">
<title>http://purl.org/oseg/ontologies/OTRL#goal&#45;&gt;http://schema.org/Text</title>
<path fill="none" stroke="black" d="M97.24,-719.69C114.29,-713.96 137.15,-707.25 158.01,-704.31 198.24,-698.65 243.7,-703.38 279.13,-709.54"/>
<polygon fill="black" stroke="black" points="278.85,-713.05 289.31,-711.4 280.1,-706.16 278.85,-713.05"/>
<text text-anchor="middle" x="179.01" y="-708.11" font-family="Times,serif" font-size="14.00">range</text>
</g>
<!-- http://purl.org/oseg/ontologies/OTRL#ODRL&#45;2 -->
<g id="node13" class="node">
<title>http://purl.org/oseg/ontologies/OTRL#ODRL&#45;2</title>
<ellipse fill="none" stroke="#e377c2" cx="70" cy="-471.31" rx="50.82" ry="16.03"/>
<text text-anchor="middle" x="70" y="-467.61" font-family="Times,serif" font-size="14.00">ODRL&#45;2</text>
</g>
<!-- http://purl.org/oseg/ontologies/OTRL#ODRL&#45;2&#45;&gt;http://purl.org/oseg/ontologies/OTRL#ODRL -->
<g id="edge12" class="edge">
<title>http://purl.org/oseg/ontologies/OTRL#ODRL&#45;2&#45;&gt;http://purl.org/oseg/ontologies/OTRL#ODRL</title>
<path fill="none" stroke="black" d="M119.72,-474.93C167.93,-478.52 241.37,-483.98 290.02,-487.59"/>
<polygon fill="black" stroke="black" points="289.78,-491.09 300.01,-488.34 290.3,-484.1 289.78,-491.09"/>
</g>
<!-- http://purl.org/oseg/ontologies/OTRL#ODRL&#45;2&#45;&gt;http://www.w3.org/2002/07/owl#class -->
<g id="edge4" class="edge">
<title>http://purl.org/oseg/ontologies/OTRL#ODRL&#45;2&#45;&gt;http://www.w3.org/2002/07/owl#class</title>
<path fill="none" stroke="black" d="M116.6,-464.73C216.79,-450.16 448.53,-415.89 464.08,-408.31 497.92,-391.82 528.34,-360.21 546.8,-338.23"/>
<polygon fill="black" stroke="black" points="549.65,-340.28 553.28,-330.33 544.23,-335.84 549.65,-340.28"/>
<text text-anchor="middle" x="341.04" y="-453.11" font-family="Times,serif" font-size="14.00">a</text>
</g>
<!-- http://purl.org/oseg/ontologies/OTRL#ODRL&#45;5 -->
<g id="node14" class="node">
<title>http://purl.org/oseg/ontologies/OTRL#ODRL&#45;5</title>
<ellipse fill="none" stroke="#e377c2" cx="70" cy="-341.31" rx="50.82" ry="16.03"/>
<text text-anchor="middle" x="70" y="-337.61" font-family="Times,serif" font-size="14.00">ODRL&#45;5</text>
</g>
<!-- http://purl.org/oseg/ontologies/OTRL#ODRL&#45;5&#45;&gt;http://purl.org/oseg/ontologies/OTRL#ODRL -->
<g id="edge25" class="edge">
<title>http://purl.org/oseg/ontologies/OTRL#ODRL&#45;5&#45;&gt;http://purl.org/oseg/ontologies/OTRL#ODRL</title>
<path fill="none" stroke="black" d="M105.45,-353.06C116.98,-357.81 129.54,-363.94 140.01,-371.31 171.88,-393.77 175.51,-404.98 200.01,-435.31 208.84,-446.25 206.43,-453.34 218.01,-461.31 238.98,-475.76 266.2,-483.27 289.61,-487.16"/>
<polygon fill="black" stroke="black" points="289.31,-490.66 299.72,-488.67 290.34,-483.73 289.31,-490.66"/>
</g>
<!-- http://purl.org/oseg/ontologies/OTRL#ODRL&#45;5&#45;&gt;http://www.w3.org/2002/07/owl#class -->
<g id="edge20" class="edge">
<title>http://purl.org/oseg/ontologies/OTRL#ODRL&#45;5&#45;&gt;http://www.w3.org/2002/07/owl#class</title>
<path fill="none" stroke="black" d="M120.67,-338.6C210.38,-333.7 399.44,-323.37 499.7,-317.9"/>
<polygon fill="black" stroke="black" points="499.92,-321.39 509.71,-317.35 499.53,-314.4 499.92,-321.39"/>
<text text-anchor="middle" x="341.04" y="-337.11" font-family="Times,serif" font-size="14.00">a</text>
</g>
<!-- http://purl.org/oseg/ontologies/OTRL#OTRL&#45;5 -->
<g id="node15" class="node">
<title>http://purl.org/oseg/ontologies/OTRL#OTRL&#45;5</title>
<ellipse fill="none" stroke="#e377c2" cx="70" cy="-174.31" rx="49.49" ry="16.03"/>
<text text-anchor="middle" x="70" y="-170.61" font-family="Times,serif" font-size="14.00">OTRL&#45;5</text>
</g>
<!-- http://purl.org/oseg/ontologies/OTRL#OTRL&#45;5&#45;&gt;http://www.w3.org/2002/07/owl#class -->
<g id="edge22" class="edge">
<title>http://purl.org/oseg/ontologies/OTRL#OTRL&#45;5&#45;&gt;http://www.w3.org/2002/07/owl#class</title>
<path fill="none" stroke="black" d="M101.06,-161.63C170.31,-134.51 344.34,-78.68 464.08,-146.31 518.02,-176.78 546.44,-248.77 558.37,-287.89"/>
<polygon fill="black" stroke="black" points="555.15,-289.37 561.31,-297.99 561.88,-287.41 555.15,-289.37"/>
<text text-anchor="middle" x="341.04" y="-150.11" font-family="Times,serif" font-size="14.00">a</text>
</g>
<!-- http://purl.org/oseg/ontologies/OTRL#OTRL&#45;5&#45;&gt;http://purl.org/oseg/ontologies/OTRL#OTRL -->
<g id="edge27" class="edge">
<title>http://purl.org/oseg/ontologies/OTRL#OTRL&#45;5&#45;&gt;http://purl.org/oseg/ontologies/OTRL#OTRL</title>
<path fill="none" stroke="black" d="M119.1,-176.46C167.78,-178.63 242.65,-181.97 291.49,-184.15"/>
<polygon fill="black" stroke="black" points="291.36,-187.64 301.5,-184.59 291.67,-180.65 291.36,-187.64"/>
</g>
<!-- http://purl.org/oseg/ontologies/OTRL#OTRL&#45;3 -->
<g id="node17" class="node">
<title>http://purl.org/oseg/ontologies/OTRL#OTRL&#45;3</title>
<ellipse fill="none" stroke="#e377c2" cx="70" cy="-54.31" rx="49.49" ry="16.03"/>
<text text-anchor="middle" x="70" y="-50.61" font-family="Times,serif" font-size="14.00">OTRL&#45;3</text>
</g>
<!-- http://purl.org/oseg/ontologies/OTRL#OTRL&#45;3&#45;&gt;http://www.w3.org/2002/07/owl#class -->
<g id="edge24" class="edge">
<title>http://purl.org/oseg/ontologies/OTRL#OTRL&#45;3&#45;&gt;http://www.w3.org/2002/07/owl#class</title>
<path fill="none" stroke="black" d="M102.15,-41.92C173.32,-15.81 350.47,36.39 464.08,-40.31 547.6,-96.7 562.48,-230.62 564.96,-287.75"/>
<polygon fill="black" stroke="black" points="561.46,-287.92 565.3,-297.79 568.46,-287.68 561.46,-287.92"/>
<text text-anchor="middle" x="341.04" y="-44.11" font-family="Times,serif" font-size="14.00">a</text>
</g>
<!-- http://purl.org/oseg/ontologies/OTRL#OTRL&#45;3&#45;&gt;http://purl.org/oseg/ontologies/OTRL#OTRL -->
<g id="edge19" class="edge">
<title>http://purl.org/oseg/ontologies/OTRL#OTRL&#45;3&#45;&gt;http://purl.org/oseg/ontologies/OTRL#OTRL</title>
<path fill="none" stroke="black" d="M97.76,-67.84C110.78,-74.72 126.5,-83.49 140.01,-92.31 168.14,-110.69 174.74,-116.16 200.01,-138.31 208.51,-145.77 208.15,-150.76 218.01,-156.31 240.69,-169.1 268.74,-176.48 292.23,-180.72"/>
<polygon fill="black" stroke="black" points="291.89,-184.21 302.33,-182.41 293.04,-177.31 291.89,-184.21"/>
</g>
<!-- http://purl.org/oseg/ontologies/OTRL#OTRL&#45;1 -->
<g id="node18" class="node">
<title>http://purl.org/oseg/ontologies/OTRL#OTRL&#45;1</title>
<ellipse fill="none" stroke="#e377c2" cx="70" cy="-117.31" rx="49.49" ry="16.03"/>
<text text-anchor="middle" x="70" y="-113.61" font-family="Times,serif" font-size="14.00">OTRL&#45;1</text>
</g>
<!-- http://purl.org/oseg/ontologies/OTRL#OTRL&#45;1&#45;&gt;http://www.w3.org/2002/07/owl#class -->
<g id="edge7" class="edge">
<title>http://purl.org/oseg/ontologies/OTRL#OTRL&#45;1&#45;&gt;http://www.w3.org/2002/07/owl#class</title>
<path fill="none" stroke="black" d="M101.35,-104.56C171.59,-77.22 348.19,-21.22 464.08,-95.31 531.67,-138.52 554.81,-239.65 562.18,-287.85"/>
<polygon fill="black" stroke="black" points="558.73,-288.42 563.6,-297.83 565.66,-287.44 558.73,-288.42"/>
<text text-anchor="middle" x="341.04" y="-99.11" font-family="Times,serif" font-size="14.00">a</text>
</g>
<!-- http://purl.org/oseg/ontologies/OTRL#OTRL&#45;1&#45;&gt;http://purl.org/oseg/ontologies/OTRL#OTRL -->
<g id="edge6" class="edge">
<title>http://purl.org/oseg/ontologies/OTRL#OTRL&#45;1&#45;&gt;http://purl.org/oseg/ontologies/OTRL#OTRL</title>
<path fill="none" stroke="black" d="M108.72,-127.52C138.39,-135.5 180.78,-146.8 218.01,-156.31 244.06,-162.97 273.32,-170.17 296.65,-175.85"/>
<polygon fill="black" stroke="black" points="296.05,-179.3 306.59,-178.26 297.7,-172.5 296.05,-179.3"/>
</g>
<!-- http://purl.org/oseg/ontologies/OTRL#ODRL&#45;4 -->
<g id="node19" class="node">
<title>http://purl.org/oseg/ontologies/OTRL#ODRL&#45;4</title>
<ellipse fill="none" stroke="#e377c2" cx="70" cy="-396.31" rx="50.82" ry="16.03"/>
<text text-anchor="middle" x="70" y="-392.61" font-family="Times,serif" font-size="14.00">ODRL&#45;4</text>
</g>
<!-- http://purl.org/oseg/ontologies/OTRL#ODRL&#45;4&#45;&gt;http://purl.org/oseg/ontologies/OTRL#ODRL -->
<g id="edge21" class="edge">
<title>http://purl.org/oseg/ontologies/OTRL#ODRL&#45;4&#45;&gt;http://purl.org/oseg/ontologies/OTRL#ODRL</title>
<path fill="none" stroke="black" d="M98.07,-410C127.13,-424.29 174.96,-446.63 218.01,-461.31 242.56,-469.69 270.63,-476.75 293.66,-481.92"/>
<polygon fill="black" stroke="black" points="293,-485.36 303.52,-484.09 294.5,-478.52 293,-485.36"/>
</g>
<!-- http://purl.org/oseg/ontologies/OTRL#ODRL&#45;4&#45;&gt;http://www.w3.org/2002/07/owl#class -->
<g id="edge8" class="edge">
<title>http://purl.org/oseg/ontologies/OTRL#ODRL&#45;4&#45;&gt;http://www.w3.org/2002/07/owl#class</title>
<path fill="none" stroke="black" d="M120.7,-394.68C195.95,-391.33 342.88,-381.36 464.08,-352.31 484.82,-347.34 507.1,-339.3 525.46,-331.89"/>
<polygon fill="black" stroke="black" points="527.04,-335.03 534.95,-327.98 524.37,-328.56 527.04,-335.03"/>
<text text-anchor="middle" x="341.04" y="-393.11" font-family="Times,serif" font-size="14.00">a</text>
</g>
<!-- http://www.w3.org/1999/02/22&#45;rdf&#45;syntax&#45;ns#nil -->
<g id="node20" class="node">
<title>http://www.w3.org/1999/02/22&#45;rdf&#45;syntax&#45;ns#nil</title>
<ellipse fill="none" stroke="#e377c2" cx="70" cy="-843.31" rx="42.35" ry="16.03"/>
<text text-anchor="middle" x="70" y="-839.61" font-family="Times,serif" font-size="14.00">rdf:nil</text>
</g>
</g>
</svg>
