<?xml version="1.0" encoding="UTF-8" standalone="no"?>
<!DOCTYPE svg PUBLIC "-//W3C//DTD SVG 1.1//EN"
 "http://www.w3.org/Graphics/SVG/1.1/DTD/svg11.dtd">
<!-- Generated by graphviz version 2.43.0 (0)
 -->
<!-- Title: G Pages: 1 -->
<svg width="632pt" height="877pt"
 viewBox="0.00 0.00 631.63 877.34" xmlns="http://www.w3.org/2000/svg" xmlns:xlink="http://www.w3.org/1999/xlink">
<g id="graph0" class="graph" transform="scale(1 1) rotate(0) translate(4 873.34)">
<title>G</title>
<polygon fill="white" stroke="transparent" points="-4,4 -4,-873.34 627.63,-873.34 627.63,4 -4,4"/>
<!-- http://www.w3.org/2002/07/owl#DatatypeProperty -->
<g id="node1" class="node">
<title>http://www.w3.org/2002/07/owl#DatatypeProperty</title>
<ellipse fill="none" stroke="#1f77b4" cx="341.04" cy="-99.07" rx="123.07" ry="16.03"/>
<text text-anchor="middle" x="341.04" y="-95.37" font-family="Times,serif" font-size="14.00">owl:DatatypeProperty</text>
</g>
<!-- http://purl.org/oseg/ontologies/OTRL#OTRL -->
<g id="node2" class="node">
<title>http://purl.org/oseg/ontologies/OTRL#OTRL</title>
<ellipse fill="none" stroke="#e377c2" cx="341.04" cy="-617.07" rx="39.7" ry="16.03"/>
<text text-anchor="middle" x="341.04" y="-613.37" font-family="Times,serif" font-size="14.00">OTRL</text>
</g>
<!-- http://www.w3.org/2002/07/owl#class -->
<g id="node3" class="node">
<title>http://www.w3.org/2002/07/owl#class</title>
<ellipse fill="none" stroke="#1f77b4" cx="566.36" cy="-440.07" rx="57.05" ry="16.03"/>
<text text-anchor="middle" x="566.36" y="-436.37" font-family="Times,serif" font-size="14.00">owl:class</text>
</g>
<!-- http://purl.org/oseg/ontologies/OTRL#OTRL&#45;&gt;http://www.w3.org/2002/07/owl#class -->
<g id="edge8" class="edge">
<title>http://purl.org/oseg/ontologies/OTRL#OTRL&#45;&gt;http://www.w3.org/2002/07/owl#class</title>
<path fill="none" stroke="black" d="M380.69,-616.65C413.22,-614.43 459.37,-606.67 491.08,-582.07 528.97,-552.68 549.51,-498.51 558.88,-466.24"/>
<polygon fill="black" stroke="black" points="562.26,-467.16 561.54,-456.59 555.51,-465.3 562.26,-467.16"/>
<text text-anchor="middle" x="486.58" y="-590.87" font-family="Times,serif" font-size="14.00">a</text>
</g>
<!-- http://purl.org/oseg/ontologies/OTRL#ODRL -->
<g id="node4" class="node">
<title>http://purl.org/oseg/ontologies/OTRL#ODRL</title>
<ellipse fill="none" stroke="#e377c2" cx="341.04" cy="-312.07" rx="41.94" ry="16.03"/>
<text text-anchor="middle" x="341.04" y="-308.37" font-family="Times,serif" font-size="14.00">ODRL</text>
</g>
<!-- http://purl.org/oseg/ontologies/OTRL#ODRL&#45;&gt;http://www.w3.org/2002/07/owl#class -->
<g id="edge20" class="edge">
<title>http://purl.org/oseg/ontologies/OTRL#ODRL&#45;&gt;http://www.w3.org/2002/07/owl#class</title>
<path fill="none" stroke="black" d="M382.62,-310.02C414.37,-310.28 458.46,-314.89 491.08,-335.07 521.42,-353.85 542.82,-390.09 554.62,-414.68"/>
<polygon fill="black" stroke="black" points="551.46,-416.17 558.82,-423.79 557.82,-413.25 551.46,-416.17"/>
<text text-anchor="middle" x="486.58" y="-338.87" font-family="Times,serif" font-size="14.00">a</text>
</g>
<!-- http://www.w3.org/2002/07/owl#Ontology -->
<g id="node5" class="node">
<title>http://www.w3.org/2002/07/owl#Ontology</title>
<ellipse fill="none" stroke="#1f77b4" cx="341.04" cy="-769.07" rx="77.56" ry="16.03"/>
<text text-anchor="middle" x="341.04" y="-765.37" font-family="Times,serif" font-size="14.00">owl:Ontology</text>
</g>
<!-- http://purl.org/oseg/ontologies/OTRL#ODRL&#45;4 -->
<g id="node6" class="node">
<title>http://purl.org/oseg/ontologies/OTRL#ODRL&#45;4</title>
<ellipse fill="none" stroke="#e377c2" cx="70" cy="-351.07" rx="50.82" ry="16.03"/>
<text text-anchor="middle" x="70" y="-347.37" font-family="Times,serif" font-size="14.00">ODRL&#45;4</text>
</g>
<!-- http://purl.org/oseg/ontologies/OTRL#ODRL&#45;4&#45;&gt;http://www.w3.org/2002/07/owl#class -->
<g id="edge1" class="edge">
<title>http://purl.org/oseg/ontologies/OTRL#ODRL&#45;4&#45;&gt;http://www.w3.org/2002/07/owl#class</title>
<path fill="none" stroke="black" d="M120.94,-351.8C196.48,-353.97 343.79,-362.45 464.08,-395.07 486.8,-401.23 510.93,-411.78 529.94,-421.12"/>
<polygon fill="black" stroke="black" points="528.59,-424.36 539.1,-425.72 531.73,-418.1 528.59,-424.36"/>
<text text-anchor="middle" x="341.04" y="-398.87" font-family="Times,serif" font-size="14.00">a</text>
</g>
<!-- http://purl.org/oseg/ontologies/OTRL#ODRL&#45;4&#45;&gt;http://purl.org/oseg/ontologies/OTRL#ODRL -->
<g id="edge21" class="edge">
<title>http://purl.org/oseg/ontologies/OTRL#ODRL&#45;4&#45;&gt;http://purl.org/oseg/ontologies/OTRL#ODRL</title>
<path fill="none" stroke="black" d="M116.64,-344.46C165.21,-337.42 241.75,-326.32 291.43,-319.12"/>
<polygon fill="black" stroke="black" points="292.21,-322.54 301.6,-317.65 291.2,-315.62 292.21,-322.54"/>
</g>
<!-- http://purl.org/oseg/ontologies/OTRL#OTRL&#45;5 -->
<g id="node7" class="node">
<title>http://purl.org/oseg/ontologies/OTRL#OTRL&#45;5</title>
<ellipse fill="none" stroke="#e377c2" cx="70" cy="-644.07" rx="49.49" ry="16.03"/>
<text text-anchor="middle" x="70" y="-640.37" font-family="Times,serif" font-size="14.00">OTRL&#45;5</text>
</g>
<!-- http://purl.org/oseg/ontologies/OTRL#OTRL&#45;5&#45;&gt;http://purl.org/oseg/ontologies/OTRL#OTRL -->
<g id="edge11" class="edge">
<title>http://purl.org/oseg/ontologies/OTRL#OTRL&#45;5&#45;&gt;http://purl.org/oseg/ontologies/OTRL#OTRL</title>
<path fill="none" stroke="black" d="M117.56,-639.4C166.42,-634.5 242.86,-626.83 292.2,-621.87"/>
<polygon fill="black" stroke="black" points="292.7,-625.34 302.3,-620.86 292,-618.38 292.7,-625.34"/>
</g>
<!-- http://purl.org/oseg/ontologies/OTRL#OTRL&#45;5&#45;&gt;http://www.w3.org/2002/07/owl#class -->
<g id="edge15" class="edge">
<title>http://purl.org/oseg/ontologies/OTRL#OTRL&#45;5&#45;&gt;http://www.w3.org/2002/07/owl#class</title>
<path fill="none" stroke="black" d="M108.29,-654.43C181.32,-672.55 346.35,-702.62 464.08,-642.07 530.43,-607.95 554.09,-513.04 561.87,-466.5"/>
<polygon fill="black" stroke="black" points="565.34,-466.97 563.41,-456.55 558.42,-465.9 565.34,-466.97"/>
<text text-anchor="middle" x="341.04" y="-682.87" font-family="Times,serif" font-size="14.00">a</text>
</g>
<!-- http://purl.org/oseg/ontologies/OTRL -->
<g id="node8" class="node">
<title>http://purl.org/oseg/ontologies/OTRL</title>
<ellipse fill="none" stroke="#e377c2" cx="70" cy="-769.07" rx="60.62" ry="16.03"/>
<text text-anchor="middle" x="70" y="-765.37" font-family="Times,serif" font-size="14.00">ns1:OTRL</text>
</g>
<!-- http://purl.org/oseg/ontologies/OTRL&#45;&gt;http://www.w3.org/2002/07/owl#Ontology -->
<g id="edge2" class="edge">
<title>http://purl.org/oseg/ontologies/OTRL&#45;&gt;http://www.w3.org/2002/07/owl#Ontology</title>
<path fill="none" stroke="black" d="M131.05,-769.07C166.88,-769.07 213,-769.07 252.8,-769.07"/>
<polygon fill="black" stroke="black" points="253.04,-772.57 263.04,-769.07 253.04,-765.57 253.04,-772.57"/>
<text text-anchor="middle" x="179.01" y="-772.87" font-family="Times,serif" font-size="14.00">a</text>
</g>
<!-- http://purl.org/oseg/ontologies/OTRL&#45;&gt;http://purl.org/oseg/ontologies/OTRL -->
<g id="edge26" class="edge">
<title>http://purl.org/oseg/ontologies/OTRL&#45;&gt;http://purl.org/oseg/ontologies/OTRL</title>
<path fill="none" stroke="black" d="M51.18,-784.58C46.64,-794.19 52.92,-803.34 70,-803.34 80.68,-803.34 87.14,-799.76 89.37,-794.74"/>
<polygon fill="black" stroke="black" points="92.85,-794.38 88.82,-784.58 85.86,-794.75 92.85,-794.38"/>
<text text-anchor="middle" x="70" y="-807.14" font-family="Times,serif" font-size="14.00">owl:versionIRI</text>
</g>
<!-- http://purl.org/oseg/ontologies/OTRL#OTRL&#45;1 -->
<g id="node9" class="node">
<title>http://purl.org/oseg/ontologies/OTRL#OTRL&#45;1</title>
<ellipse fill="none" stroke="#e377c2" cx="70" cy="-706.07" rx="49.49" ry="16.03"/>
<text text-anchor="middle" x="70" y="-702.37" font-family="Times,serif" font-size="14.00">OTRL&#45;1</text>
</g>
<!-- http://purl.org/oseg/ontologies/OTRL#OTRL&#45;1&#45;&gt;http://purl.org/oseg/ontologies/OTRL#OTRL -->
<g id="edge4" class="edge">
<title>http://purl.org/oseg/ontologies/OTRL#OTRL&#45;1&#45;&gt;http://purl.org/oseg/ontologies/OTRL#OTRL</title>
<path fill="none" stroke="black" d="M99.85,-693.09C129.17,-680.23 176.12,-660.55 218.01,-647.07 243.24,-638.95 272.02,-631.78 295.29,-626.49"/>
<polygon fill="black" stroke="black" points="296.23,-629.86 305.23,-624.26 294.7,-623.03 296.23,-629.86"/>
</g>
<!-- http://purl.org/oseg/ontologies/OTRL#OTRL&#45;1&#45;&gt;http://www.w3.org/2002/07/owl#class -->
<g id="edge16" class="edge">
<title>http://purl.org/oseg/ontologies/OTRL#OTRL&#45;1&#45;&gt;http://www.w3.org/2002/07/owl#class</title>
<path fill="none" stroke="black" d="M117.45,-711.05C208.88,-719.91 408.14,-734.28 464.08,-698.07 543.64,-646.59 560.72,-521.64 564.37,-466.72"/>
<polygon fill="black" stroke="black" points="567.89,-466.59 564.95,-456.41 560.9,-466.2 567.89,-466.59"/>
<text text-anchor="middle" x="341.04" y="-725.87" font-family="Times,serif" font-size="14.00">a</text>
</g>
<!-- http://purl.org/oseg/ontologies/OTRL#goal -->
<g id="node10" class="node">
<title>http://purl.org/oseg/ontologies/OTRL#goal</title>
<ellipse fill="none" stroke="#e377c2" cx="70" cy="-89.07" rx="33.47" ry="16.03"/>
<text text-anchor="middle" x="70" y="-85.37" font-family="Times,serif" font-size="14.00">goal</text>
</g>
<!-- http://purl.org/oseg/ontologies/OTRL#goal&#45;&gt;http://www.w3.org/2002/07/owl#DatatypeProperty -->
<g id="edge3" class="edge">
<title>http://purl.org/oseg/ontologies/OTRL#goal&#45;&gt;http://www.w3.org/2002/07/owl#DatatypeProperty</title>
<path fill="none" stroke="black" d="M103.23,-90.65C119.63,-91.43 139.88,-92.36 158.01,-93.07 175.04,-93.75 192.98,-94.4 210.68,-95.02"/>
<polygon fill="black" stroke="black" points="210.95,-98.53 221.06,-95.37 211.19,-91.53 210.95,-98.53"/>
<text text-anchor="middle" x="179.01" y="-98.87" font-family="Times,serif" font-size="14.00">a</text>
</g>
<!-- http://schema.org/Text -->
<g id="node11" class="node">
<title>http://schema.org/Text</title>
<ellipse fill="none" stroke="#e377c2" cx="341.04" cy="-28.07" rx="74.91" ry="16.03"/>
<text text-anchor="middle" x="341.04" y="-24.37" font-family="Times,serif" font-size="14.00">schema:Text</text>
</g>
<!-- http://purl.org/oseg/ontologies/OTRL#goal&#45;&gt;http://schema.org/Text -->
<g id="edge10" class="edge">
<title>http://purl.org/oseg/ontologies/OTRL#goal&#45;&gt;http://schema.org/Text</title>
<path fill="none" stroke="black" d="M100.57,-82.37C143.25,-72.69 223.13,-54.58 278.85,-41.95"/>
<polygon fill="black" stroke="black" points="279.63,-45.36 288.61,-39.73 278.08,-38.53 279.63,-45.36"/>
<text text-anchor="middle" x="179.01" y="-73.87" font-family="Times,serif" font-size="14.00">range</text>
</g>
<!-- http://purl.org/oseg/ontologies/OTRL#OTRL&#45;4 -->
<g id="node12" class="node">
<title>http://purl.org/oseg/ontologies/OTRL#OTRL&#45;4</title>
<ellipse fill="none" stroke="#e377c2" cx="70" cy="-592.07" rx="49.49" ry="16.03"/>
<text text-anchor="middle" x="70" y="-588.37" font-family="Times,serif" font-size="14.00">OTRL&#45;4</text>
</g>
<!-- http://purl.org/oseg/ontologies/OTRL#OTRL&#45;4&#45;&gt;http://purl.org/oseg/ontologies/OTRL#OTRL -->
<g id="edge18" class="edge">
<title>http://purl.org/oseg/ontologies/OTRL#OTRL&#45;4&#45;&gt;http://purl.org/oseg/ontologies/OTRL#OTRL</title>
<path fill="none" stroke="black" d="M116.11,-598.2C129.57,-599.92 144.37,-601.69 158.01,-603.07 203.07,-607.65 254.54,-611.48 291.23,-613.97"/>
<polygon fill="black" stroke="black" points="291.43,-617.49 301.64,-614.67 291.9,-610.51 291.43,-617.49"/>
</g>
<!-- http://purl.org/oseg/ontologies/OTRL#OTRL&#45;4&#45;&gt;http://www.w3.org/2002/07/owl#class -->
<g id="edge5" class="edge">
<title>http://purl.org/oseg/ontologies/OTRL#OTRL&#45;4&#45;&gt;http://www.w3.org/2002/07/owl#class</title>
<path fill="none" stroke="black" d="M117.3,-587.21C214.48,-576.78 433.35,-551.97 464.08,-537.07 498.85,-520.21 529.44,-486.97 547.66,-464.14"/>
<polygon fill="black" stroke="black" points="550.65,-466 554.02,-455.96 545.12,-461.71 550.65,-466"/>
<text text-anchor="middle" x="341.04" y="-579.87" font-family="Times,serif" font-size="14.00">a</text>
</g>
<!-- http://purl.org/oseg/ontologies/OTRL#ODRL&#45;5 -->
<g id="node13" class="node">
<title>http://purl.org/oseg/ontologies/OTRL#ODRL&#45;5</title>
<ellipse fill="none" stroke="#e377c2" cx="70" cy="-409.07" rx="50.82" ry="16.03"/>
<text text-anchor="middle" x="70" y="-405.37" font-family="Times,serif" font-size="14.00">ODRL&#45;5</text>
</g>
<!-- http://purl.org/oseg/ontologies/OTRL#ODRL&#45;5&#45;&gt;http://www.w3.org/2002/07/owl#class -->
<g id="edge6" class="edge">
<title>http://purl.org/oseg/ontologies/OTRL#ODRL&#45;5&#45;&gt;http://www.w3.org/2002/07/owl#class</title>
<path fill="none" stroke="black" d="M121.04,-410.05C195.81,-411.81 341.07,-416.38 464.08,-427.07 477.31,-428.22 491.47,-429.81 504.88,-431.49"/>
<polygon fill="black" stroke="black" points="504.6,-434.98 514.96,-432.78 505.49,-428.04 504.6,-434.98"/>
<text text-anchor="middle" x="341.04" y="-430.87" font-family="Times,serif" font-size="14.00">a</text>
</g>
<!-- http://purl.org/oseg/ontologies/OTRL#ODRL&#45;5&#45;&gt;http://purl.org/oseg/ontologies/OTRL#ODRL -->
<g id="edge24" class="edge">
<title>http://purl.org/oseg/ontologies/OTRL#ODRL&#45;5&#45;&gt;http://purl.org/oseg/ontologies/OTRL#ODRL</title>
<path fill="none" stroke="black" d="M100,-395.78C141.96,-376.54 214.99,-343.12 218.01,-342.07 242.51,-333.56 270.58,-326.48 293.62,-321.34"/>
<polygon fill="black" stroke="black" points="294.46,-324.74 303.48,-319.19 292.97,-317.9 294.46,-324.74"/>
</g>
<!-- http://purl.org/oseg/ontologies/OTRL#ODRL&#45;2 -->
<g id="node14" class="node">
<title>http://purl.org/oseg/ontologies/OTRL#ODRL&#45;2</title>
<ellipse fill="none" stroke="#e377c2" cx="70" cy="-300.07" rx="50.82" ry="16.03"/>
<text text-anchor="middle" x="70" y="-296.37" font-family="Times,serif" font-size="14.00">ODRL&#45;2</text>
</g>
<!-- http://purl.org/oseg/ontologies/OTRL#ODRL&#45;2&#45;&gt;http://www.w3.org/2002/07/owl#class -->
<g id="edge7" class="edge">
<title>http://purl.org/oseg/ontologies/OTRL#ODRL&#45;2&#45;&gt;http://www.w3.org/2002/07/owl#class</title>
<path fill="none" stroke="black" d="M101.58,-287.18C171.18,-260 344.64,-204.61 464.08,-272.07 518.02,-302.54 546.44,-374.53 558.37,-413.65"/>
<polygon fill="black" stroke="black" points="555.15,-415.13 561.31,-423.75 561.88,-413.17 555.15,-415.13"/>
<text text-anchor="middle" x="341.04" y="-275.87" font-family="Times,serif" font-size="14.00">a</text>
</g>
<!-- http://purl.org/oseg/ontologies/OTRL#ODRL&#45;2&#45;&gt;http://purl.org/oseg/ontologies/OTRL#ODRL -->
<g id="edge27" class="edge">
<title>http://purl.org/oseg/ontologies/OTRL#ODRL&#45;2&#45;&gt;http://purl.org/oseg/ontologies/OTRL#ODRL</title>
<path fill="none" stroke="black" d="M120.66,-302.29C168.62,-304.43 240.88,-307.65 289.22,-309.81"/>
<polygon fill="black" stroke="black" points="289.31,-313.31 299.46,-310.26 289.62,-306.32 289.31,-313.31"/>
</g>
<!-- http://purl.org/oseg/ontologies/OTRL#ODRL&#45;3 -->
<g id="node15" class="node">
<title>http://purl.org/oseg/ontologies/OTRL#ODRL&#45;3</title>
<ellipse fill="none" stroke="#e377c2" cx="70" cy="-167.07" rx="50.82" ry="16.03"/>
<text text-anchor="middle" x="70" y="-163.37" font-family="Times,serif" font-size="14.00">ODRL&#45;3</text>
</g>
<!-- http://purl.org/oseg/ontologies/OTRL#ODRL&#45;3&#45;&gt;http://www.w3.org/2002/07/owl#class -->
<g id="edge19" class="edge">
<title>http://purl.org/oseg/ontologies/OTRL#ODRL&#45;3&#45;&gt;http://www.w3.org/2002/07/owl#class</title>
<path fill="none" stroke="black" d="M109.55,-156.81C184.44,-139.24 352.05,-111.67 464.08,-182.07 544.48,-232.6 561.11,-358.54 564.51,-413.6"/>
<polygon fill="black" stroke="black" points="561.01,-413.82 565.02,-423.63 568,-413.46 561.01,-413.82"/>
<text text-anchor="middle" x="341.04" y="-185.87" font-family="Times,serif" font-size="14.00">a</text>
</g>
<!-- http://purl.org/oseg/ontologies/OTRL#ODRL&#45;3&#45;&gt;http://purl.org/oseg/ontologies/OTRL#ODRL -->
<g id="edge13" class="edge">
<title>http://purl.org/oseg/ontologies/OTRL#ODRL&#45;3&#45;&gt;http://purl.org/oseg/ontologies/OTRL#ODRL</title>
<path fill="none" stroke="black" d="M103.5,-179.4C115.47,-184.64 128.82,-191.33 140.01,-199.07 170.76,-220.36 175.38,-229.92 200.01,-258.07 208.79,-268.11 206.88,-274.72 218.01,-282.07 239.25,-296.12 266.49,-303.59 289.85,-307.57"/>
<polygon fill="black" stroke="black" points="289.51,-311.06 299.93,-309.11 290.57,-304.14 289.51,-311.06"/>
</g>
<!-- http://www.w3.org/1999/02/22&#45;rdf&#45;syntax&#45;ns#nil -->
<g id="node16" class="node">
<title>http://www.w3.org/1999/02/22&#45;rdf&#45;syntax&#45;ns#nil</title>
<ellipse fill="none" stroke="#e377c2" cx="70" cy="-853.07" rx="42.35" ry="16.03"/>
<text text-anchor="middle" x="70" y="-849.37" font-family="Times,serif" font-size="14.00">rdf:nil</text>
</g>
<!-- http://purl.org/oseg/ontologies/OTRL#OTRL&#45;2 -->
<g id="node17" class="node">
<title>http://purl.org/oseg/ontologies/OTRL#OTRL&#45;2</title>
<ellipse fill="none" stroke="#e377c2" cx="70" cy="-466.07" rx="49.49" ry="16.03"/>
<text text-anchor="middle" x="70" y="-462.37" font-family="Times,serif" font-size="14.00">OTRL&#45;2</text>
</g>
<!-- http://purl.org/oseg/ontologies/OTRL#OTRL&#45;2&#45;&gt;http://purl.org/oseg/ontologies/OTRL#OTRL -->
<g id="edge23" class="edge">
<title>http://purl.org/oseg/ontologies/OTRL#OTRL&#45;2&#45;&gt;http://purl.org/oseg/ontologies/OTRL#OTRL</title>
<path fill="none" stroke="black" d="M99.26,-479.41C112.19,-486.06 127.39,-494.68 140.01,-504.07 170,-526.41 175.38,-534.92 200.01,-563.07 208.79,-573.11 206.88,-579.72 218.01,-587.07 239.9,-601.55 268.17,-609.05 291.99,-612.92"/>
<polygon fill="black" stroke="black" points="291.49,-616.39 301.89,-614.38 292.5,-609.46 291.49,-616.39"/>
</g>
<!-- http://purl.org/oseg/ontologies/OTRL#OTRL&#45;2&#45;&gt;http://www.w3.org/2002/07/owl#class -->
<g id="edge9" class="edge">
<title>http://purl.org/oseg/ontologies/OTRL#OTRL&#45;2&#45;&gt;http://www.w3.org/2002/07/owl#class</title>
<path fill="none" stroke="black" d="M119.3,-463.53C208.44,-458.84 398.88,-448.83 499.66,-443.53"/>
<polygon fill="black" stroke="black" points="499.92,-447.02 509.72,-443 499.55,-440.03 499.92,-447.02"/>
<text text-anchor="middle" x="341.04" y="-462.87" font-family="Times,serif" font-size="14.00">a</text>
</g>
<!-- http://purl.org/oseg/ontologies/OTRL#OTRL&#45;3 -->
<g id="node18" class="node">
<title>http://purl.org/oseg/ontologies/OTRL#OTRL&#45;3</title>
<ellipse fill="none" stroke="#e377c2" cx="70" cy="-529.07" rx="49.49" ry="16.03"/>
<text text-anchor="middle" x="70" y="-525.37" font-family="Times,serif" font-size="14.00">OTRL&#45;3</text>
</g>
<!-- http://purl.org/oseg/ontologies/OTRL#OTRL&#45;3&#45;&gt;http://purl.org/oseg/ontologies/OTRL#OTRL -->
<g id="edge25" class="edge">
<title>http://purl.org/oseg/ontologies/OTRL#OTRL&#45;3&#45;&gt;http://purl.org/oseg/ontologies/OTRL#OTRL</title>
<path fill="none" stroke="black" d="M100.42,-542.04C129.8,-554.66 176.44,-573.83 218.01,-587.07 243.36,-595.15 272.25,-602.34 295.56,-607.65"/>
<polygon fill="black" stroke="black" points="294.98,-611.11 305.51,-609.89 296.52,-604.28 294.98,-611.11"/>
</g>
<!-- http://purl.org/oseg/ontologies/OTRL#OTRL&#45;3&#45;&gt;http://www.w3.org/2002/07/owl#class -->
<g id="edge22" class="edge">
<title>http://purl.org/oseg/ontologies/OTRL#OTRL&#45;3&#45;&gt;http://www.w3.org/2002/07/owl#class</title>
<path fill="none" stroke="black" d="M118.85,-526.42C193.52,-521.48 341.88,-508.5 464.08,-478.07 484.62,-472.96 506.72,-464.98 525.01,-457.65"/>
<polygon fill="black" stroke="black" points="526.54,-460.81 534.47,-453.78 523.89,-454.33 526.54,-460.81"/>
<text text-anchor="middle" x="341.04" y="-521.87" font-family="Times,serif" font-size="14.00">a</text>
</g>
<!-- http://purl.org/oseg/ontologies/OTRL#exitCriteria -->
<g id="node19" class="node">
<title>http://purl.org/oseg/ontologies/OTRL#exitCriteria</title>
<ellipse fill="none" stroke="#e377c2" cx="70" cy="-26.07" rx="70.01" ry="16.03"/>
<text text-anchor="middle" x="70" y="-22.37" font-family="Times,serif" font-size="14.00">exitCriteria</text>
</g>
<!-- http://purl.org/oseg/ontologies/OTRL#exitCriteria&#45;&gt;http://www.w3.org/2002/07/owl#DatatypeProperty -->
<g id="edge12" class="edge">
<title>http://purl.org/oseg/ontologies/OTRL#exitCriteria&#45;&gt;http://www.w3.org/2002/07/owl#DatatypeProperty</title>
<path fill="none" stroke="black" d="M138.86,-29.05C158.95,-31.37 180.72,-35.34 200.01,-42.07 208.86,-45.16 209.58,-48.96 218.01,-53.07 239.18,-63.42 263.3,-72.95 284.48,-80.63"/>
<polygon fill="black" stroke="black" points="283.39,-83.95 293.98,-84.02 285.74,-77.36 283.39,-83.95"/>
<text text-anchor="middle" x="179.01" y="-45.87" font-family="Times,serif" font-size="14.00">a</text>
</g>
<!-- http://purl.org/oseg/ontologies/OTRL#exitCriteria&#45;&gt;http://schema.org/Text -->
<g id="edge17" class="edge">
<title>http://purl.org/oseg/ontologies/OTRL#exitCriteria&#45;&gt;http://schema.org/Text</title>
<path fill="none" stroke="black" d="M110.82,-12.67C125.47,-8.38 142.32,-4.2 158.01,-2.07 201.24,3.78 250.19,-4.02 286.43,-12.57"/>
<polygon fill="black" stroke="black" points="285.75,-16.01 296.3,-14.99 287.42,-9.21 285.75,-16.01"/>
<text text-anchor="middle" x="179.01" y="-5.87" font-family="Times,serif" font-size="14.00">range</text>
</g>
<!-- http://purl.org/oseg/ontologies/OTRL#ODRL&#45;1 -->
<g id="node20" class="node">
<title>http://purl.org/oseg/ontologies/OTRL#ODRL&#45;1</title>
<ellipse fill="none" stroke="#e377c2" cx="70" cy="-224.07" rx="50.82" ry="16.03"/>
<text text-anchor="middle" x="70" y="-220.37" font-family="Times,serif" font-size="14.00">ODRL&#45;1</text>
</g>
<!-- http://purl.org/oseg/ontologies/OTRL#ODRL&#45;1&#45;&gt;http://www.w3.org/2002/07/owl#class -->
<g id="edge28" class="edge">
<title>http://purl.org/oseg/ontologies/OTRL#ODRL&#45;1&#45;&gt;http://www.w3.org/2002/07/owl#class</title>
<path fill="none" stroke="black" d="M117.07,-217.63C208.27,-205.84 407.88,-185.14 464.08,-221.07 531.67,-264.29 554.81,-365.41 562.18,-413.61"/>
<polygon fill="black" stroke="black" points="558.73,-414.18 563.6,-423.59 565.66,-413.2 558.73,-414.18"/>
<text text-anchor="middle" x="341.04" y="-224.87" font-family="Times,serif" font-size="14.00">a</text>
</g>
<!-- http://purl.org/oseg/ontologies/OTRL#ODRL&#45;1&#45;&gt;http://purl.org/oseg/ontologies/OTRL#ODRL -->
<g id="edge14" class="edge">
<title>http://purl.org/oseg/ontologies/OTRL#ODRL&#45;1&#45;&gt;http://purl.org/oseg/ontologies/OTRL#ODRL</title>
<path fill="none" stroke="black" d="M100.7,-237.16C130.09,-249.78 176.57,-268.87 218.01,-282.07 242.82,-289.98 271.01,-297.03 294.05,-302.31"/>
<polygon fill="black" stroke="black" points="293.39,-305.75 303.91,-304.53 294.93,-298.92 293.39,-305.75"/>
</g>
</g>
</svg>
