<?xml version="1.0" encoding="UTF-8" standalone="no"?>
<!DOCTYPE svg PUBLIC "-//W3C//DTD SVG 1.1//EN"
 "http://www.w3.org/Graphics/SVG/1.1/DTD/svg11.dtd">
<!-- Generated by graphviz version 2.43.0 (0)
 -->
<!-- Title: G Pages: 1 -->
<svg width="2065pt" height="1039pt"
 viewBox="0.00 0.00 2064.64 1038.53" xmlns="http://www.w3.org/2000/svg" xmlns:xlink="http://www.w3.org/1999/xlink">
<g id="graph0" class="graph" transform="scale(1 1) rotate(0) translate(4 1034.53)">
<title>G</title>
<polygon fill="white" stroke="transparent" points="-4,4 -4,-1034.53 2060.64,-1034.53 2060.64,4 -4,4"/>
<!-- https://w3id.org/oseg/ont/otrl#ODRL3Star -->
<g id="node1" class="node">
<title>https://w3id.org/oseg/ont/otrl#ODRL3Star</title>
<ellipse fill="none" stroke="#e377c2" cx="1412.36" cy="-866.26" rx="90.52" ry="16.03"/>
<text text-anchor="middle" x="1412.36" y="-862.56" font-family="Times,serif" font-size="14.00">otrl:ODRL3Star</text>
</g>
<!-- https://w3id.org/oseg/ont/otrl#ODRL -->
<g id="node13" class="node">
<title>https://w3id.org/oseg/ont/otrl#ODRL</title>
<ellipse fill="none" stroke="#e377c2" cx="1933.6" cy="-774.26" rx="62.87" ry="16.03"/>
<text text-anchor="middle" x="1933.6" y="-770.56" font-family="Times,serif" font-size="14.00">otrl:ODRL</text>
</g>
<!-- https://w3id.org/oseg/ont/otrl#ODRL3Star&#45;&gt;https://w3id.org/oseg/ont/otrl#ODRL -->
<g id="edge46" class="edge">
<title>https://w3id.org/oseg/ont/otrl#ODRL3Star&#45;&gt;https://w3id.org/oseg/ont/otrl#ODRL</title>
<path fill="none" stroke="black" d="M1486.77,-856.94C1563.43,-846.71 1686.98,-828.85 1792.57,-807.26 1820.87,-801.48 1852.18,-794.18 1878,-787.93"/>
<polygon fill="black" stroke="black" points="1879.09,-791.26 1887.98,-785.49 1877.43,-784.46 1879.09,-791.26"/>
</g>
<!-- https://w3id.org/oseg/ont/otrl#ODRL1 -->
<g id="node2" class="node">
<title>https://w3id.org/oseg/ont/otrl#ODRL1</title>
<ellipse fill="none" stroke="#e377c2" cx="1412.36" cy="-815.26" rx="69.09" ry="16.03"/>
<text text-anchor="middle" x="1412.36" y="-811.56" font-family="Times,serif" font-size="14.00">otrl:ODRL1</text>
</g>
<!-- https://w3id.org/oseg/ont/otrl#ODRL1&#45;&gt;https://w3id.org/oseg/ont/otrl#ODRL -->
<g id="edge18" class="edge">
<title>https://w3id.org/oseg/ont/otrl#ODRL1&#45;&gt;https://w3id.org/oseg/ont/otrl#ODRL</title>
<path fill="none" stroke="black" d="M1478.33,-810.13C1576.59,-802.37 1762.21,-787.72 1863.09,-779.75"/>
<polygon fill="black" stroke="black" points="1863.48,-783.23 1873.18,-778.96 1862.93,-776.25 1863.48,-783.23"/>
</g>
<!-- https://w3id.org/oseg/ont/otrl#OTRL2 -->
<g id="node3" class="node">
<title>https://w3id.org/oseg/ont/otrl#OTRL2</title>
<ellipse fill="none" stroke="#e377c2" cx="1412.36" cy="-111.26" rx="67.35" ry="16.03"/>
<text text-anchor="middle" x="1412.36" y="-107.56" font-family="Times,serif" font-size="14.00">otrl:OTRL2</text>
</g>
<!-- https://w3id.org/oseg/ont/otrl#OTRL -->
<g id="node14" class="node">
<title>https://w3id.org/oseg/ont/otrl#OTRL</title>
<ellipse fill="none" stroke="#e377c2" cx="1933.6" cy="-307.26" rx="60.62" ry="16.03"/>
<text text-anchor="middle" x="1933.6" y="-303.56" font-family="Times,serif" font-size="14.00">otrl:OTRL</text>
</g>
<!-- https://w3id.org/oseg/ont/otrl#OTRL2&#45;&gt;https://w3id.org/oseg/ont/otrl#OTRL -->
<g id="edge38" class="edge">
<title>https://w3id.org/oseg/ont/otrl#OTRL2&#45;&gt;https://w3id.org/oseg/ont/otrl#OTRL</title>
<path fill="none" stroke="black" d="M1463.02,-121.95C1536.91,-138.82 1679.26,-175.03 1792.57,-226.26 1831.36,-243.81 1873.32,-268.98 1901.08,-286.59"/>
<polygon fill="black" stroke="black" points="1899.27,-289.58 1909.58,-292.02 1903.04,-283.68 1899.27,-289.58"/>
</g>
<!-- http://www.w3.org/2002/07/owl#Ontology -->
<g id="node4" class="node">
<title>http://www.w3.org/2002/07/owl#Ontology</title>
<ellipse fill="none" stroke="#1f77b4" cx="807.65" cy="-1014.26" rx="77.56" ry="16.03"/>
<text text-anchor="middle" x="807.65" y="-1010.56" font-family="Times,serif" font-size="14.00">owl:Ontology</text>
</g>
<!-- https://w3id.org/oseg/ont/otrl#OTRL4 -->
<g id="node5" class="node">
<title>https://w3id.org/oseg/ont/otrl#OTRL4</title>
<ellipse fill="none" stroke="#e377c2" cx="1412.36" cy="-352.26" rx="67.35" ry="16.03"/>
<text text-anchor="middle" x="1412.36" y="-348.56" font-family="Times,serif" font-size="14.00">otrl:OTRL4</text>
</g>
<!-- https://w3id.org/oseg/ont/otrl#OTRL4&#45;&gt;https://w3id.org/oseg/ont/otrl#OTRL -->
<g id="edge12" class="edge">
<title>https://w3id.org/oseg/ont/otrl#OTRL4&#45;&gt;https://w3id.org/oseg/ont/otrl#OTRL</title>
<path fill="none" stroke="black" d="M1475.45,-346.43C1516.61,-342.6 1571.8,-337.53 1620.57,-333.26 1704.7,-325.9 1801.63,-317.9 1864.84,-312.75"/>
<polygon fill="black" stroke="black" points="1865.4,-316.21 1875.08,-311.91 1864.83,-309.24 1865.4,-316.21"/>
</g>
<!-- https://w3id.org/oseg/ont/otrl#ODRL4 -->
<g id="node6" class="node">
<title>https://w3id.org/oseg/ont/otrl#ODRL4</title>
<ellipse fill="none" stroke="#e377c2" cx="1412.36" cy="-764.26" rx="69.09" ry="16.03"/>
<text text-anchor="middle" x="1412.36" y="-760.56" font-family="Times,serif" font-size="14.00">otrl:ODRL4</text>
</g>
<!-- https://w3id.org/oseg/ont/otrl#ODRL4&#45;&gt;https://w3id.org/oseg/ont/otrl#ODRL -->
<g id="edge22" class="edge">
<title>https://w3id.org/oseg/ont/otrl#ODRL4&#45;&gt;https://w3id.org/oseg/ont/otrl#ODRL</title>
<path fill="none" stroke="black" d="M1481.5,-765.58C1579.66,-767.47 1760.04,-770.94 1860.4,-772.87"/>
<polygon fill="black" stroke="black" points="1860.39,-776.37 1870.45,-773.07 1860.52,-769.37 1860.39,-776.37"/>
</g>
<!-- https://w3id.org/oseg/ont/otrl#OTRL1 -->
<g id="node7" class="node">
<title>https://w3id.org/oseg/ont/otrl#OTRL1</title>
<ellipse fill="none" stroke="#e377c2" cx="1412.36" cy="-301.26" rx="67.35" ry="16.03"/>
<text text-anchor="middle" x="1412.36" y="-297.56" font-family="Times,serif" font-size="14.00">otrl:OTRL1</text>
</g>
<!-- https://w3id.org/oseg/ont/otrl#OTRL1&#45;&gt;https://w3id.org/oseg/ont/otrl#OTRL -->
<g id="edge5" class="edge">
<title>https://w3id.org/oseg/ont/otrl#OTRL1&#45;&gt;https://w3id.org/oseg/ont/otrl#OTRL</title>
<path fill="none" stroke="black" d="M1479.65,-302.03C1578.11,-303.17 1762.16,-305.29 1862.68,-306.46"/>
<polygon fill="black" stroke="black" points="1862.69,-309.96 1872.73,-306.57 1862.77,-302.96 1862.69,-309.96"/>
</g>
<!-- https://w3id.org/oseg/ont/otrl#OTRL3 -->
<g id="node8" class="node">
<title>https://w3id.org/oseg/ont/otrl#OTRL3</title>
<ellipse fill="none" stroke="#e377c2" cx="1412.36" cy="-250.26" rx="67.35" ry="16.03"/>
<text text-anchor="middle" x="1412.36" y="-246.56" font-family="Times,serif" font-size="14.00">otrl:OTRL3</text>
</g>
<!-- https://w3id.org/oseg/ont/otrl#OTRL3&#45;&gt;https://w3id.org/oseg/ont/otrl#OTRL -->
<g id="edge43" class="edge">
<title>https://w3id.org/oseg/ont/otrl#OTRL3&#45;&gt;https://w3id.org/oseg/ont/otrl#OTRL</title>
<path fill="none" stroke="black" d="M1473.94,-256.91C1572.22,-267.7 1765.61,-288.93 1867.02,-300.06"/>
<polygon fill="black" stroke="black" points="1866.81,-303.56 1877.13,-301.17 1867.58,-296.6 1866.81,-303.56"/>
</g>
<!-- https://w3id.org/oseg/ont/otrl#ODRL3 -->
<g id="node9" class="node">
<title>https://w3id.org/oseg/ont/otrl#ODRL3</title>
<ellipse fill="none" stroke="#e377c2" cx="1412.36" cy="-701.26" rx="69.09" ry="16.03"/>
<text text-anchor="middle" x="1412.36" y="-697.56" font-family="Times,serif" font-size="14.00">otrl:ODRL3</text>
</g>
<!-- https://w3id.org/oseg/ont/otrl#ODRL3&#45;&gt;https://w3id.org/oseg/ont/otrl#ODRL -->
<g id="edge16" class="edge">
<title>https://w3id.org/oseg/ont/otrl#ODRL3&#45;&gt;https://w3id.org/oseg/ont/otrl#ODRL</title>
<path fill="none" stroke="black" d="M1468.67,-710.93C1510.36,-718.07 1568.97,-727.81 1620.57,-735.26 1704.76,-747.43 1802.07,-759.23 1865.34,-766.61"/>
<polygon fill="black" stroke="black" points="1865.24,-770.12 1875.58,-767.8 1866.05,-763.17 1865.24,-770.12"/>
</g>
<!-- https://w3id.org/oseg/ont/otrl#OTRL6 -->
<g id="node10" class="node">
<title>https://w3id.org/oseg/ont/otrl#OTRL6</title>
<ellipse fill="none" stroke="#e377c2" cx="1412.36" cy="-187.26" rx="67.35" ry="16.03"/>
<text text-anchor="middle" x="1412.36" y="-183.56" font-family="Times,serif" font-size="14.00">otrl:OTRL6</text>
</g>
<!-- https://w3id.org/oseg/ont/otrl#OTRL6&#45;&gt;https://w3id.org/oseg/ont/otrl#OTRL -->
<g id="edge3" class="edge">
<title>https://w3id.org/oseg/ont/otrl#OTRL6&#45;&gt;https://w3id.org/oseg/ont/otrl#OTRL</title>
<path fill="none" stroke="black" d="M1465.66,-197.27C1503.7,-204.66 1556.42,-215.17 1602.57,-225.26 1687.34,-243.81 1708.39,-249.18 1792.57,-270.26 1821.77,-277.58 1854.28,-286.14 1880.62,-293.19"/>
<polygon fill="black" stroke="black" points="1879.83,-296.6 1890.39,-295.81 1881.64,-289.84 1879.83,-296.6"/>
</g>
<!-- https://w3id.org/oseg/ont/otrl#ODRL2 -->
<g id="node11" class="node">
<title>https://w3id.org/oseg/ont/otrl#ODRL2</title>
<ellipse fill="none" stroke="#e377c2" cx="1412.36" cy="-631.26" rx="69.09" ry="16.03"/>
<text text-anchor="middle" x="1412.36" y="-627.56" font-family="Times,serif" font-size="14.00">otrl:ODRL2</text>
</g>
<!-- https://w3id.org/oseg/ont/otrl#ODRL2&#45;&gt;https://w3id.org/oseg/ont/otrl#ODRL -->
<g id="edge23" class="edge">
<title>https://w3id.org/oseg/ont/otrl#ODRL2&#45;&gt;https://w3id.org/oseg/ont/otrl#ODRL</title>
<path fill="none" stroke="black" d="M1480.97,-633.76C1519.98,-638.3 1567.99,-649.5 1602.57,-676.26 1616.09,-686.73 1606.68,-700.29 1620.57,-710.26 1683.48,-755.43 1716.76,-722.38 1792.57,-738.26 1821.98,-744.42 1854.5,-752.7 1880.8,-759.76"/>
<polygon fill="black" stroke="black" points="1879.99,-763.16 1890.55,-762.4 1881.81,-756.4 1879.99,-763.16"/>
</g>
<!-- https://w3id.org/oseg/ont/otrl#OTRL5 -->
<g id="node12" class="node">
<title>https://w3id.org/oseg/ont/otrl#OTRL5</title>
<ellipse fill="none" stroke="#e377c2" cx="1412.36" cy="-35.26" rx="67.35" ry="16.03"/>
<text text-anchor="middle" x="1412.36" y="-31.56" font-family="Times,serif" font-size="14.00">otrl:OTRL5</text>
</g>
<!-- https://w3id.org/oseg/ont/otrl#OTRL5&#45;&gt;https://w3id.org/oseg/ont/otrl#OTRL -->
<g id="edge8" class="edge">
<title>https://w3id.org/oseg/ont/otrl#OTRL5&#45;&gt;https://w3id.org/oseg/ont/otrl#OTRL</title>
<path fill="none" stroke="black" d="M1468.62,-44.19C1546.32,-58.76 1689.85,-93.24 1792.57,-162.26 1843.28,-196.34 1889.95,-251.38 1914.51,-282.94"/>
<polygon fill="black" stroke="black" points="1911.97,-285.37 1920.83,-291.18 1917.52,-281.11 1911.97,-285.37"/>
</g>
<!-- http://www.w3.org/2002/07/owl#DatatypeProperty -->
<g id="node15" class="node">
<title>http://www.w3.org/2002/07/owl#DatatypeProperty</title>
<ellipse fill="none" stroke="#1f77b4" cx="1933.6" cy="-599.26" rx="123.07" ry="16.03"/>
<text text-anchor="middle" x="1933.6" y="-595.56" font-family="Times,serif" font-size="14.00">owl:DatatypeProperty</text>
</g>
<!-- https://w3id.org/oseg/ont/otrl -->
<g id="node16" class="node">
<title>https://w3id.org/oseg/ont/otrl</title>
<ellipse fill="none" stroke="#e377c2" cx="196.58" cy="-976.26" rx="50.82" ry="16.03"/>
<text text-anchor="middle" x="196.58" y="-972.56" font-family="Times,serif" font-size="14.00">ns1:otrl</text>
</g>
<!-- https://w3id.org/oseg/ont/otrl&#45;&gt;http://www.w3.org/2002/07/owl#Ontology -->
<g id="edge1" class="edge">
<title>https://w3id.org/oseg/ont/otrl&#45;&gt;http://www.w3.org/2002/07/owl#Ontology</title>
<path fill="none" stroke="black" d="M246.65,-979.32C350.5,-985.8 593.55,-1000.97 722.63,-1009.02"/>
<polygon fill="black" stroke="black" points="722.66,-1012.53 732.86,-1009.66 723.1,-1005.54 722.66,-1012.53"/>
<text text-anchor="middle" x="491.15" y="-1002.06" font-family="Times,serif" font-size="14.00">a</text>
</g>
<!-- https://w3id.org/oseg/ont/otrl&#45;&gt;https://w3id.org/oseg/ont/otrl -->
<g id="edge51" class="edge">
<title>https://w3id.org/oseg/ont/otrl&#45;&gt;https://w3id.org/oseg/ont/otrl</title>
<path fill="none" stroke="black" d="M155.67,-986.26C127.53,-997.54 141.16,-1010.53 196.58,-1010.53 244.63,-1010.53 261.27,-1000.76 246.49,-990.81"/>
<polygon fill="black" stroke="black" points="247.99,-987.65 237.49,-986.26 244.83,-993.9 247.99,-987.65"/>
<text text-anchor="middle" x="196.58" y="-1014.33" font-family="Times,serif" font-size="14.00">owl:versionIRI</text>
</g>
<!-- https://www.gnu.org/licenses/gpl&#45;3.0.txt -->
<g id="node21" class="node">
<title>https://www.gnu.org/licenses/gpl&#45;3.0.txt</title>
<ellipse fill="none" stroke="#e377c2" cx="807.65" cy="-951.26" rx="85.62" ry="16.03"/>
<text text-anchor="middle" x="807.65" y="-947.56" font-family="Times,serif" font-size="14.00">ns2:gpl&#45;3.0.txt</text>
</g>
<!-- https://w3id.org/oseg/ont/otrl&#45;&gt;https://www.gnu.org/licenses/gpl&#45;3.0.txt -->
<g id="edge41" class="edge">
<title>https://w3id.org/oseg/ont/otrl&#45;&gt;https://www.gnu.org/licenses/gpl&#45;3.0.txt</title>
<path fill="none" stroke="black" d="M247.16,-974.23C348.96,-970.05 582.96,-960.45 713.79,-955.07"/>
<polygon fill="black" stroke="black" points="713.96,-958.57 723.81,-954.66 713.67,-951.58 713.96,-958.57"/>
<text text-anchor="middle" x="491.15" y="-972.06" font-family="Times,serif" font-size="14.00">cc:license</text>
</g>
<!-- https://w3id.org/oseg/ont/otrl&#45;&gt;https://www.gnu.org/licenses/gpl&#45;3.0.txt -->
<g id="edge44" class="edge">
<title>https://w3id.org/oseg/ont/otrl&#45;&gt;https://www.gnu.org/licenses/gpl&#45;3.0.txt</title>
<path fill="none" stroke="black" d="M240.3,-967.68C283.26,-959.53 351.48,-947.85 411.15,-943.26 516.38,-935.18 637.79,-939.69 718.04,-944.58"/>
<polygon fill="black" stroke="black" points="717.91,-948.08 728.1,-945.21 718.34,-941.09 717.91,-948.08"/>
<text text-anchor="middle" x="491.15" y="-947.06" font-family="Times,serif" font-size="14.00">dcterms:license</text>
</g>
<!-- https://w3id.org/oseg/ont/otrl#exitCriteria -->
<g id="node17" class="node">
<title>https://w3id.org/oseg/ont/otrl#exitCriteria</title>
<ellipse fill="none" stroke="#e377c2" cx="1412.36" cy="-580.26" rx="91.43" ry="16.03"/>
<text text-anchor="middle" x="1412.36" y="-576.56" font-family="Times,serif" font-size="14.00">otrl:exitCriteria</text>
</g>
<!-- https://w3id.org/oseg/ont/otrl#exitCriteria&#45;&gt;https://w3id.org/oseg/ont/otrl#ODRL -->
<g id="edge39" class="edge">
<title>https://w3id.org/oseg/ont/otrl#exitCriteria&#45;&gt;https://w3id.org/oseg/ont/otrl#ODRL</title>
<path fill="none" stroke="black" d="M1491.98,-572.26C1529.59,-572.72 1572.79,-580.12 1602.57,-606.26 1625.41,-626.32 1597.46,-652.51 1620.57,-672.26 1649.8,-697.25 1756.09,-679.07 1792.57,-691.26 1834.41,-705.25 1877.29,-733.04 1904.39,-752.6"/>
<polygon fill="black" stroke="black" points="1902.48,-755.54 1912.61,-758.63 1906.62,-749.9 1902.48,-755.54"/>
<text text-anchor="middle" x="1706.57" y="-695.06" font-family="Times,serif" font-size="14.00">schema:domainIncludes</text>
</g>
<!-- https://w3id.org/oseg/ont/otrl#exitCriteria&#45;&gt;https://w3id.org/oseg/ont/otrl#OTRL -->
<g id="edge13" class="edge">
<title>https://w3id.org/oseg/ont/otrl#exitCriteria&#45;&gt;https://w3id.org/oseg/ont/otrl#OTRL</title>
<path fill="none" stroke="black" d="M1485.73,-570.59C1523.03,-563 1567.85,-549.63 1602.57,-526.26 1613.34,-519.02 1609.26,-509.65 1620.57,-503.26 1687.62,-465.39 1725.31,-519.77 1792.57,-482.26 1855.07,-447.41 1900.04,-372.31 1920.41,-332.79"/>
<polygon fill="black" stroke="black" points="1923.69,-334.05 1925.06,-323.55 1917.44,-330.91 1923.69,-334.05"/>
<text text-anchor="middle" x="1706.57" y="-507.06" font-family="Times,serif" font-size="14.00">schema:domainIncludes</text>
</g>
<!-- https://w3id.org/oseg/ont/otrl#exitCriteria&#45;&gt;http://www.w3.org/2002/07/owl#DatatypeProperty -->
<g id="edge7" class="edge">
<title>https://w3id.org/oseg/ont/otrl#exitCriteria&#45;&gt;http://www.w3.org/2002/07/owl#DatatypeProperty</title>
<path fill="none" stroke="black" d="M1502.07,-577.14C1535.76,-579.72 1573.08,-587.44 1602.57,-606.26 1615.04,-614.22 1607.58,-627.17 1620.57,-634.26 1687.66,-670.89 1716.69,-643.6 1792.57,-634.26 1820.12,-630.87 1850.06,-623.86 1875.15,-617"/>
<polygon fill="black" stroke="black" points="1876.18,-620.34 1884.87,-614.28 1874.3,-613.6 1876.18,-620.34"/>
<text text-anchor="middle" x="1706.57" y="-657.06" font-family="Times,serif" font-size="14.00">a</text>
</g>
<!-- http://schema.org/Text -->
<g id="node18" class="node">
<title>http://schema.org/Text</title>
<ellipse fill="none" stroke="#e377c2" cx="1933.6" cy="-507.26" rx="74.91" ry="16.03"/>
<text text-anchor="middle" x="1933.6" y="-503.56" font-family="Times,serif" font-size="14.00">schema:Text</text>
</g>
<!-- https://w3id.org/oseg/ont/otrl#exitCriteria&#45;&gt;http://schema.org/Text -->
<g id="edge40" class="edge">
<title>https://w3id.org/oseg/ont/otrl#exitCriteria&#45;&gt;http://schema.org/Text</title>
<path fill="none" stroke="black" d="M1503.19,-582.36C1580.63,-582.43 1695.05,-578.4 1792.57,-558.26 1826.79,-551.2 1863.89,-537.39 1891.3,-525.92"/>
<polygon fill="black" stroke="black" points="1892.73,-529.11 1900.56,-521.98 1889.99,-522.67 1892.73,-529.11"/>
<text text-anchor="middle" x="1706.57" y="-583.06" font-family="Times,serif" font-size="14.00">range</text>
</g>
<!-- https://w3id.org/oseg/ont/otrl#goal -->
<g id="node19" class="node">
<title>https://w3id.org/oseg/ont/otrl#goal</title>
<ellipse fill="none" stroke="#e377c2" cx="1412.36" cy="-501.26" rx="54.39" ry="16.03"/>
<text text-anchor="middle" x="1412.36" y="-497.56" font-family="Times,serif" font-size="14.00">otrl:goal</text>
</g>
<!-- https://w3id.org/oseg/ont/otrl#goal&#45;&gt;https://w3id.org/oseg/ont/otrl#ODRL -->
<g id="edge45" class="edge">
<title>https://w3id.org/oseg/ont/otrl#goal&#45;&gt;https://w3id.org/oseg/ont/otrl#ODRL</title>
<path fill="none" stroke="black" d="M1466.05,-504.29C1507.57,-509.25 1564.6,-522.13 1602.57,-555.26 1617.56,-568.35 1604.53,-584.48 1620.57,-596.26 1682.55,-641.8 1724.33,-579.79 1792.57,-615.26 1851.59,-645.94 1897.1,-712.62 1918.74,-749.13"/>
<polygon fill="black" stroke="black" points="1915.92,-751.25 1923.96,-758.15 1921.98,-747.74 1915.92,-751.25"/>
<text text-anchor="middle" x="1706.57" y="-619.06" font-family="Times,serif" font-size="14.00">schema:domainIncludes</text>
</g>
<!-- https://w3id.org/oseg/ont/otrl#goal&#45;&gt;https://w3id.org/oseg/ont/otrl#OTRL -->
<g id="edge26" class="edge">
<title>https://w3id.org/oseg/ont/otrl#goal&#45;&gt;https://w3id.org/oseg/ont/otrl#OTRL</title>
<path fill="none" stroke="black" d="M1451.36,-489.87C1492.78,-477.64 1561.09,-457.97 1620.57,-443.26 1696.47,-424.49 1720.97,-437.69 1792.57,-406.26 1836.79,-386.85 1881.2,-352.29 1907.8,-329.57"/>
<polygon fill="black" stroke="black" points="1910.2,-332.12 1915.46,-322.93 1905.61,-326.83 1910.2,-332.12"/>
<text text-anchor="middle" x="1706.57" y="-447.06" font-family="Times,serif" font-size="14.00">schema:domainIncludes</text>
</g>
<!-- https://w3id.org/oseg/ont/otrl#goal&#45;&gt;http://www.w3.org/2002/07/owl#DatatypeProperty -->
<g id="edge24" class="edge">
<title>https://w3id.org/oseg/ont/otrl#goal&#45;&gt;http://www.w3.org/2002/07/owl#DatatypeProperty</title>
<path fill="none" stroke="black" d="M1464.64,-505.99C1564.56,-515.25 1776.93,-535.23 1792.57,-539.26 1828.08,-548.42 1866.2,-565.26 1893.69,-578.77"/>
<polygon fill="black" stroke="black" points="1892.44,-582.06 1902.95,-583.39 1895.57,-575.8 1892.44,-582.06"/>
<text text-anchor="middle" x="1706.57" y="-543.06" font-family="Times,serif" font-size="14.00">a</text>
</g>
<!-- https://w3id.org/oseg/ont/otrl#goal&#45;&gt;http://schema.org/Text -->
<g id="edge10" class="edge">
<title>https://w3id.org/oseg/ont/otrl#goal&#45;&gt;http://schema.org/Text</title>
<path fill="none" stroke="black" d="M1455.32,-491.26C1525.41,-475.96 1670.65,-450.19 1792.57,-467.26 1824.01,-471.67 1858.3,-481.37 1885.08,-490.12"/>
<polygon fill="black" stroke="black" points="1884,-493.45 1894.59,-493.29 1886.21,-486.81 1884,-493.45"/>
<text text-anchor="middle" x="1706.57" y="-471.06" font-family="Times,serif" font-size="14.00">range</text>
</g>
<!-- https://w3id.org/oseg/ont/otrl#Odrl4 -->
<g id="node20" class="node">
<title>https://w3id.org/oseg/ont/otrl#Odrl4</title>
<ellipse fill="none" stroke="#e377c2" cx="807.65" cy="-765.26" rx="61.54" ry="16.03"/>
<text text-anchor="middle" x="807.65" y="-761.56" font-family="Times,serif" font-size="14.00">otrl:Odrl4</text>
</g>
<!-- https://w3id.org/oseg/ont/otrl#Odrl4&#45;&gt;https://w3id.org/oseg/ont/otrl#ODRL4 -->
<g id="edge30" class="edge">
<title>https://w3id.org/oseg/ont/otrl#Odrl4&#45;&gt;https://w3id.org/oseg/ont/otrl#ODRL4</title>
<path fill="none" stroke="black" d="M869.2,-765.16C979.09,-764.98 1211.26,-764.6 1333.04,-764.39"/>
<polygon fill="black" stroke="black" points="1333.05,-767.89 1343.04,-764.38 1333.04,-760.89 1333.05,-767.89"/>
<text text-anchor="middle" x="1124.14" y="-769.06" font-family="Times,serif" font-size="14.00">schema:supersededBy</text>
</g>
<!-- https://w3id.org/oseg/ont/otrl#Odrl4&#45;&gt;https://w3id.org/oseg/ont/otrl#ODRL4 -->
<g id="edge47" class="edge">
<title>https://w3id.org/oseg/ont/otrl#Odrl4&#45;&gt;https://w3id.org/oseg/ont/otrl#ODRL4</title>
<path fill="none" stroke="black" d="M865.19,-759.42C912.85,-754.8 982.87,-748.73 1044.14,-746.26 1115.2,-743.4 1133.1,-743.18 1204.14,-746.26 1249.11,-748.21 1299.42,-752.53 1339.2,-756.45"/>
<polygon fill="black" stroke="black" points="1339.04,-759.95 1349.34,-757.46 1339.73,-752.99 1339.04,-759.95"/>
<text text-anchor="middle" x="1124.14" y="-750.06" font-family="Times,serif" font-size="14.00">owl:sameAs</text>
</g>
<!-- https://w3id.org/oseg/ont/otrl#Odrl2 -->
<g id="node22" class="node">
<title>https://w3id.org/oseg/ont/otrl#Odrl2</title>
<ellipse fill="none" stroke="black" cx="807.65" cy="-606.26" rx="196.65" ry="16.03"/>
<text text-anchor="middle" x="807.65" y="-602.56" font-family="Times,serif" font-size="14.00">https://w3id.org/oseg/ont/otrl#Odrl2</text>
</g>
<!-- https://w3id.org/oseg/ont/otrl#Odrl2&#45;&gt;https://w3id.org/oseg/ont/otrl#ODRL2 -->
<g id="edge2" class="edge">
<title>https://w3id.org/oseg/ont/otrl#Odrl2&#45;&gt;https://w3id.org/oseg/ont/otrl#ODRL2</title>
<path fill="none" stroke="black" d="M983.79,-613.53C1099.63,-618.33 1245.84,-624.4 1333.79,-628.05"/>
<polygon fill="black" stroke="black" points="1333.83,-631.55 1343.96,-628.47 1334.12,-624.56 1333.83,-631.55"/>
<text text-anchor="middle" x="1124.14" y="-627.06" font-family="Times,serif" font-size="14.00">schema:supersededBy</text>
</g>
<!-- https://w3id.org/oseg/ont/otrl#Odrl2&#45;&gt;https://w3id.org/oseg/ont/otrl#ODRL2 -->
<g id="edge15" class="edge">
<title>https://w3id.org/oseg/ont/otrl#Odrl2&#45;&gt;https://w3id.org/oseg/ont/otrl#ODRL2</title>
<path fill="none" stroke="black" d="M913.7,-592.54C993.96,-584.84 1106.94,-580.03 1204.14,-598.26 1212.58,-599.85 1213.83,-603.11 1222.14,-605.26 1259.1,-614.85 1301.08,-621.07 1336.1,-625.01"/>
<polygon fill="black" stroke="black" points="1335.94,-628.52 1346.26,-626.12 1336.69,-621.56 1335.94,-628.52"/>
<text text-anchor="middle" x="1124.14" y="-602.06" font-family="Times,serif" font-size="14.00">owl:sameAs</text>
</g>
<!-- https://w3id.org/oseg/ont/otrl#Odrl -->
<g id="node23" class="node">
<title>https://w3id.org/oseg/ont/otrl#Odrl</title>
<ellipse fill="none" stroke="black" cx="1412.36" cy="-917.26" rx="190.42" ry="16.03"/>
<text text-anchor="middle" x="1412.36" y="-913.56" font-family="Times,serif" font-size="14.00">https://w3id.org/oseg/ont/otrl#Odrl</text>
</g>
<!-- https://w3id.org/oseg/ont/otrl#Odrl&#45;&gt;https://w3id.org/oseg/ont/otrl#ODRL -->
<g id="edge4" class="edge">
<title>https://w3id.org/oseg/ont/otrl#Odrl&#45;&gt;https://w3id.org/oseg/ont/otrl#ODRL</title>
<path fill="none" stroke="black" d="M1554.05,-906.36C1570.76,-902.62 1587.29,-897.7 1602.57,-891.26 1611.91,-887.33 1611.43,-881.65 1620.57,-877.26 1691.41,-843.26 1718.1,-861.39 1792.57,-836.26 1828.17,-824.25 1867.15,-806.6 1894.92,-793.21"/>
<polygon fill="black" stroke="black" points="1896.79,-796.19 1904.25,-788.66 1893.73,-789.89 1896.79,-796.19"/>
<text text-anchor="middle" x="1706.57" y="-881.06" font-family="Times,serif" font-size="14.00">owl:sameAs</text>
</g>
<!-- https://w3id.org/oseg/ont/otrl#Odrl&#45;&gt;https://w3id.org/oseg/ont/otrl#ODRL -->
<g id="edge42" class="edge">
<title>https://w3id.org/oseg/ont/otrl#Odrl&#45;&gt;https://w3id.org/oseg/ont/otrl#ODRL</title>
<path fill="none" stroke="black" d="M1549.53,-928.54C1623.87,-929.77 1716.07,-923.09 1792.57,-892.26 1842.76,-872.04 1888.11,-826.55 1912.87,-798.33"/>
<polygon fill="black" stroke="black" points="1915.72,-800.38 1919.59,-790.52 1910.41,-795.82 1915.72,-800.38"/>
<text text-anchor="middle" x="1706.57" y="-931.06" font-family="Times,serif" font-size="14.00">schema:supersededBy</text>
</g>
<!-- https://w3id.org/oseg/ont/otrl#Otrl -->
<g id="node24" class="node">
<title>https://w3id.org/oseg/ont/otrl#Otrl</title>
<ellipse fill="none" stroke="black" cx="1412.36" cy="-403.26" rx="188.18" ry="16.03"/>
<text text-anchor="middle" x="1412.36" y="-399.56" font-family="Times,serif" font-size="14.00">https://w3id.org/oseg/ont/otrl#Otrl</text>
</g>
<!-- https://w3id.org/oseg/ont/otrl#Otrl&#45;&gt;https://w3id.org/oseg/ont/otrl#OTRL -->
<g id="edge6" class="edge">
<title>https://w3id.org/oseg/ont/otrl#Otrl&#45;&gt;https://w3id.org/oseg/ont/otrl#OTRL</title>
<path fill="none" stroke="black" d="M1564.77,-393.64C1578.03,-389.51 1590.85,-384.16 1602.57,-377.26 1614.06,-370.5 1609.06,-360.01 1620.57,-353.26 1687.11,-314.27 1716.28,-341.63 1792.57,-330.26 1818.7,-326.37 1847.51,-321.7 1872.16,-317.6"/>
<polygon fill="black" stroke="black" points="1872.82,-321.03 1882.1,-315.93 1871.66,-314.13 1872.82,-321.03"/>
<text text-anchor="middle" x="1706.57" y="-357.06" font-family="Times,serif" font-size="14.00">schema:supersededBy</text>
</g>
<!-- https://w3id.org/oseg/ont/otrl#Otrl&#45;&gt;https://w3id.org/oseg/ont/otrl#OTRL -->
<g id="edge50" class="edge">
<title>https://w3id.org/oseg/ont/otrl#Otrl&#45;&gt;https://w3id.org/oseg/ont/otrl#OTRL</title>
<path fill="none" stroke="black" d="M1567.28,-394.01C1653.06,-387.88 1750.78,-379 1792.57,-368.26 1829.72,-358.72 1869.6,-340.49 1897.26,-326.43"/>
<polygon fill="black" stroke="black" points="1898.87,-329.54 1906.15,-321.84 1895.65,-323.32 1898.87,-329.54"/>
<text text-anchor="middle" x="1706.57" y="-394.06" font-family="Times,serif" font-size="14.00">owl:sameAs</text>
</g>
<!-- https://w3id.org/oseg/ont/otrl#Odrl3 -->
<g id="node25" class="node">
<title>https://w3id.org/oseg/ont/otrl#Odrl3</title>
<ellipse fill="none" stroke="black" cx="807.65" cy="-689.26" rx="196.65" ry="16.03"/>
<text text-anchor="middle" x="807.65" y="-685.56" font-family="Times,serif" font-size="14.00">https://w3id.org/oseg/ont/otrl#Odrl3</text>
</g>
<!-- https://w3id.org/oseg/ont/otrl#Odrl3&#45;&gt;https://w3id.org/oseg/ont/otrl#ODRL3 -->
<g id="edge9" class="edge">
<title>https://w3id.org/oseg/ont/otrl#Odrl3&#45;&gt;https://w3id.org/oseg/ont/otrl#ODRL3</title>
<path fill="none" stroke="black" d="M998.93,-693.05C1111.81,-695.3 1248.85,-698.03 1333.07,-699.7"/>
<polygon fill="black" stroke="black" points="1333,-703.2 1343.07,-699.9 1333.14,-696.21 1333,-703.2"/>
<text text-anchor="middle" x="1124.14" y="-701.06" font-family="Times,serif" font-size="14.00">schema:supersededBy</text>
</g>
<!-- https://w3id.org/oseg/ont/otrl#Odrl3&#45;&gt;https://w3id.org/oseg/ont/otrl#ODRL3 -->
<g id="edge36" class="edge">
<title>https://w3id.org/oseg/ont/otrl#Odrl3&#45;&gt;https://w3id.org/oseg/ont/otrl#ODRL3</title>
<path fill="none" stroke="black" d="M946.93,-677.75C1022.9,-673.09 1118.77,-669.93 1204.14,-675.26 1251.18,-678.2 1303.87,-684.86 1344.35,-690.7"/>
<polygon fill="black" stroke="black" points="1343.97,-694.18 1354.37,-692.17 1344.98,-687.26 1343.97,-694.18"/>
<text text-anchor="middle" x="1124.14" y="-679.06" font-family="Times,serif" font-size="14.00">owl:sameAs</text>
</g>
<!-- https://w3id.org/oseg/ont/otrl#Otrl5 -->
<g id="node26" class="node">
<title>https://w3id.org/oseg/ont/otrl#Otrl5</title>
<ellipse fill="none" stroke="black" cx="807.65" cy="-16.26" rx="194.41" ry="16.03"/>
<text text-anchor="middle" x="807.65" y="-12.56" font-family="Times,serif" font-size="14.00">https://w3id.org/oseg/ont/otrl#Otrl5</text>
</g>
<!-- https://w3id.org/oseg/ont/otrl#Otrl5&#45;&gt;https://w3id.org/oseg/ont/otrl#OTRL5 -->
<g id="edge11" class="edge">
<title>https://w3id.org/oseg/ont/otrl#Otrl5&#45;&gt;https://w3id.org/oseg/ont/otrl#OTRL5</title>
<path fill="none" stroke="black" d="M989.89,-21.98C1105.32,-25.62 1248.86,-30.14 1335.13,-32.86"/>
<polygon fill="black" stroke="black" points="1335.26,-36.37 1345.37,-33.18 1335.48,-29.37 1335.26,-36.37"/>
<text text-anchor="middle" x="1124.14" y="-33.06" font-family="Times,serif" font-size="14.00">schema:supersededBy</text>
</g>
<!-- https://w3id.org/oseg/ont/otrl#Otrl5&#45;&gt;https://w3id.org/oseg/ont/otrl#OTRL5 -->
<g id="edge25" class="edge">
<title>https://w3id.org/oseg/ont/otrl#Otrl5&#45;&gt;https://w3id.org/oseg/ont/otrl#OTRL5</title>
<path fill="none" stroke="black" d="M952.51,-5.38C1027.59,-1.44 1120.9,0.73 1204.14,-5.26 1252.77,-8.77 1307.33,-16.83 1348.25,-23.72"/>
<polygon fill="black" stroke="black" points="1347.9,-27.21 1358.35,-25.44 1349.08,-20.31 1347.9,-27.21"/>
<text text-anchor="middle" x="1124.14" y="-9.06" font-family="Times,serif" font-size="14.00">owl:sameAs</text>
</g>
<!-- https://w3id.org/oseg/ont/otrl#Otrl1 -->
<g id="node27" class="node">
<title>https://w3id.org/oseg/ont/otrl#Otrl1</title>
<ellipse fill="none" stroke="black" cx="807.65" cy="-320.26" rx="194.41" ry="16.03"/>
<text text-anchor="middle" x="807.65" y="-316.56" font-family="Times,serif" font-size="14.00">https://w3id.org/oseg/ont/otrl#Otrl1</text>
</g>
<!-- https://w3id.org/oseg/ont/otrl#Otrl1&#45;&gt;https://w3id.org/oseg/ont/otrl#OTRL1 -->
<g id="edge14" class="edge">
<title>https://w3id.org/oseg/ont/otrl#Otrl1&#45;&gt;https://w3id.org/oseg/ont/otrl#OTRL1</title>
<path fill="none" stroke="black" d="M1001.58,-321.48C1066.02,-321.17 1138.2,-320.06 1204.14,-317.26 1249.08,-315.36 1299.38,-311.52 1339.17,-308.07"/>
<polygon fill="black" stroke="black" points="1339.66,-311.55 1349.31,-307.19 1339.04,-304.57 1339.66,-311.55"/>
<text text-anchor="middle" x="1124.14" y="-325.06" font-family="Times,serif" font-size="14.00">owl:sameAs</text>
</g>
<!-- https://w3id.org/oseg/ont/otrl#Otrl1&#45;&gt;https://w3id.org/oseg/ont/otrl#OTRL1 -->
<g id="edge17" class="edge">
<title>https://w3id.org/oseg/ont/otrl#Otrl1&#45;&gt;https://w3id.org/oseg/ont/otrl#OTRL1</title>
<path fill="none" stroke="black" d="M924.68,-307.26C962.7,-303.58 1005.18,-300.08 1044.14,-298.26 1115.18,-294.95 1133.03,-297.75 1204.14,-298.26 1247.41,-298.58 1295.75,-299.26 1334.85,-299.89"/>
<polygon fill="black" stroke="black" points="1335.04,-303.4 1345.1,-300.06 1335.16,-296.4 1335.04,-303.4"/>
<text text-anchor="middle" x="1124.14" y="-302.06" font-family="Times,serif" font-size="14.00">schema:supersededBy</text>
</g>
<!-- https://w3id.org/oseg/ont/otrl#Otrl3 -->
<g id="node28" class="node">
<title>https://w3id.org/oseg/ont/otrl#Otrl3</title>
<ellipse fill="none" stroke="black" cx="807.65" cy="-234.26" rx="194.41" ry="16.03"/>
<text text-anchor="middle" x="807.65" y="-230.56" font-family="Times,serif" font-size="14.00">https://w3id.org/oseg/ont/otrl#Otrl3</text>
</g>
<!-- https://w3id.org/oseg/ont/otrl#Otrl3&#45;&gt;https://w3id.org/oseg/ont/otrl#OTRL3 -->
<g id="edge19" class="edge">
<title>https://w3id.org/oseg/ont/otrl#Otrl3&#45;&gt;https://w3id.org/oseg/ont/otrl#OTRL3</title>
<path fill="none" stroke="black" d="M990.89,-239.77C1008.88,-240.29 1026.87,-240.8 1044.14,-241.26 1144.75,-243.99 1260.88,-246.78 1335.15,-248.51"/>
<polygon fill="black" stroke="black" points="1335.27,-252.02 1345.35,-248.75 1335.43,-245.02 1335.27,-252.02"/>
<text text-anchor="middle" x="1124.14" y="-249.06" font-family="Times,serif" font-size="14.00">schema:supersededBy</text>
</g>
<!-- https://w3id.org/oseg/ont/otrl#Otrl3&#45;&gt;https://w3id.org/oseg/ont/otrl#OTRL3 -->
<g id="edge48" class="edge">
<title>https://w3id.org/oseg/ont/otrl#Otrl3&#45;&gt;https://w3id.org/oseg/ont/otrl#OTRL3</title>
<path fill="none" stroke="black" d="M951.1,-223.24C1026.4,-219.11 1120.35,-216.63 1204.14,-222.26 1252.22,-225.5 1306.16,-232.91 1346.95,-239.29"/>
<polygon fill="black" stroke="black" points="1346.6,-242.78 1357.02,-240.89 1347.69,-235.87 1346.6,-242.78"/>
<text text-anchor="middle" x="1124.14" y="-226.06" font-family="Times,serif" font-size="14.00">owl:sameAs</text>
</g>
<!-- https://w3id.org/oseg/ont/otrl#Otrl4 -->
<g id="node29" class="node">
<title>https://w3id.org/oseg/ont/otrl#Otrl4</title>
<ellipse fill="none" stroke="black" cx="807.65" cy="-403.26" rx="194.41" ry="16.03"/>
<text text-anchor="middle" x="807.65" y="-399.56" font-family="Times,serif" font-size="14.00">https://w3id.org/oseg/ont/otrl#Otrl4</text>
</g>
<!-- https://w3id.org/oseg/ont/otrl#Otrl4&#45;&gt;https://w3id.org/oseg/ont/otrl#OTRL4 -->
<g id="edge20" class="edge">
<title>https://w3id.org/oseg/ont/otrl#Otrl4&#45;&gt;https://w3id.org/oseg/ont/otrl#OTRL4</title>
<path fill="none" stroke="black" d="M900.63,-417.6C982.94,-426.6 1105.47,-430.4 1204.14,-393.26 1213.89,-389.59 1212.62,-382.47 1222.14,-378.26 1257.21,-362.79 1299.18,-355.99 1334.68,-353.18"/>
<polygon fill="black" stroke="black" points="1335.26,-356.65 1344.99,-352.46 1334.77,-349.67 1335.26,-356.65"/>
<text text-anchor="middle" x="1124.14" y="-427.06" font-family="Times,serif" font-size="14.00">schema:supersededBy</text>
</g>
<!-- https://w3id.org/oseg/ont/otrl#Otrl4&#45;&gt;https://w3id.org/oseg/ont/otrl#OTRL4 -->
<g id="edge31" class="edge">
<title>https://w3id.org/oseg/ont/otrl#Otrl4&#45;&gt;https://w3id.org/oseg/ont/otrl#OTRL4</title>
<path fill="none" stroke="black" d="M909.92,-389.38C951.46,-384.06 1000.04,-378.3 1044.14,-374.26 1144.83,-365.06 1261.41,-358.82 1335.72,-355.41"/>
<polygon fill="black" stroke="black" points="1336.09,-358.89 1345.92,-354.94 1335.78,-351.9 1336.09,-358.89"/>
<text text-anchor="middle" x="1124.14" y="-378.06" font-family="Times,serif" font-size="14.00">owl:sameAs</text>
</g>
<!-- https://w3id.org/oseg/ont/otrl#Otrl6 -->
<g id="node30" class="node">
<title>https://w3id.org/oseg/ont/otrl#Otrl6</title>
<ellipse fill="none" stroke="black" cx="807.65" cy="-177.26" rx="194.41" ry="16.03"/>
<text text-anchor="middle" x="807.65" y="-173.56" font-family="Times,serif" font-size="14.00">https://w3id.org/oseg/ont/otrl#Otrl6</text>
</g>
<!-- https://w3id.org/oseg/ont/otrl#Otrl6&#45;&gt;https://w3id.org/oseg/ont/otrl#OTRL6 -->
<g id="edge21" class="edge">
<title>https://w3id.org/oseg/ont/otrl#Otrl6&#45;&gt;https://w3id.org/oseg/ont/otrl#OTRL6</title>
<path fill="none" stroke="black" d="M998.52,-180.41C1112.3,-182.3 1250.76,-184.6 1334.92,-186"/>
<polygon fill="black" stroke="black" points="1335.1,-189.5 1345.16,-186.17 1335.22,-182.5 1335.1,-189.5"/>
<text text-anchor="middle" x="1124.14" y="-188.06" font-family="Times,serif" font-size="14.00">schema:supersededBy</text>
</g>
<!-- https://w3id.org/oseg/ont/otrl#Otrl6&#45;&gt;https://w3id.org/oseg/ont/otrl#OTRL6 -->
<g id="edge35" class="edge">
<title>https://w3id.org/oseg/ont/otrl#Otrl6&#45;&gt;https://w3id.org/oseg/ont/otrl#OTRL6</title>
<path fill="none" stroke="black" d="M948.28,-165.99C1024.03,-161.47 1119.26,-158.36 1204.14,-163.26 1251.14,-165.98 1303.83,-172.12 1344.32,-177.51"/>
<polygon fill="black" stroke="black" points="1343.96,-181 1354.34,-178.87 1344.9,-174.06 1343.96,-181"/>
<text text-anchor="middle" x="1124.14" y="-167.06" font-family="Times,serif" font-size="14.00">owl:sameAs</text>
</g>
<!-- https://w3id.org/oseg/ont/otrl#Odrl1 -->
<g id="node31" class="node">
<title>https://w3id.org/oseg/ont/otrl#Odrl1</title>
<ellipse fill="none" stroke="black" cx="807.65" cy="-843.26" rx="196.65" ry="16.03"/>
<text text-anchor="middle" x="807.65" y="-839.56" font-family="Times,serif" font-size="14.00">https://w3id.org/oseg/ont/otrl#Odrl1</text>
</g>
<!-- https://w3id.org/oseg/ont/otrl#Odrl1&#45;&gt;https://w3id.org/oseg/ont/otrl#ODRL1 -->
<g id="edge27" class="edge">
<title>https://w3id.org/oseg/ont/otrl#Odrl1&#45;&gt;https://w3id.org/oseg/ont/otrl#ODRL1</title>
<path fill="none" stroke="black" d="M998.32,-839.31C1063.58,-837.47 1137.09,-834.87 1204.14,-831.26 1248.39,-828.89 1297.87,-825.11 1337.38,-821.82"/>
<polygon fill="black" stroke="black" points="1337.79,-825.3 1347.46,-820.97 1337.21,-818.32 1337.79,-825.3"/>
<text text-anchor="middle" x="1124.14" y="-842.06" font-family="Times,serif" font-size="14.00">schema:supersededBy</text>
</g>
<!-- https://w3id.org/oseg/ont/otrl#Odrl1&#45;&gt;https://w3id.org/oseg/ont/otrl#ODRL1 -->
<g id="edge32" class="edge">
<title>https://w3id.org/oseg/ont/otrl#Odrl1&#45;&gt;https://w3id.org/oseg/ont/otrl#ODRL1</title>
<path fill="none" stroke="black" d="M897.56,-828.77C941.53,-822.31 995.48,-815.45 1044.14,-812.26 1115.1,-807.61 1133.03,-811.75 1204.14,-812.26 1246.75,-812.57 1294.27,-813.24 1333.05,-813.86"/>
<polygon fill="black" stroke="black" points="1333.17,-817.36 1343.23,-814.03 1333.29,-810.37 1333.17,-817.36"/>
<text text-anchor="middle" x="1124.14" y="-816.06" font-family="Times,serif" font-size="14.00">owl:sameAs</text>
</g>
<!-- https://w3id.org/oseg/ont/otrl#Otrl2 -->
<g id="node32" class="node">
<title>https://w3id.org/oseg/ont/otrl#Otrl2</title>
<ellipse fill="none" stroke="black" cx="807.65" cy="-92.26" rx="194.41" ry="16.03"/>
<text text-anchor="middle" x="807.65" y="-88.56" font-family="Times,serif" font-size="14.00">https://w3id.org/oseg/ont/otrl#Otrl2</text>
</g>
<!-- https://w3id.org/oseg/ont/otrl#Otrl2&#45;&gt;https://w3id.org/oseg/ont/otrl#OTRL2 -->
<g id="edge28" class="edge">
<title>https://w3id.org/oseg/ont/otrl#Otrl2&#45;&gt;https://w3id.org/oseg/ont/otrl#OTRL2</title>
<path fill="none" stroke="black" d="M989.89,-97.98C1105.32,-101.62 1248.86,-106.14 1335.13,-108.86"/>
<polygon fill="black" stroke="black" points="1335.26,-112.37 1345.37,-109.18 1335.48,-105.37 1335.26,-112.37"/>
<text text-anchor="middle" x="1124.14" y="-109.06" font-family="Times,serif" font-size="14.00">owl:sameAs</text>
</g>
<!-- https://w3id.org/oseg/ont/otrl#Otrl2&#45;&gt;https://w3id.org/oseg/ont/otrl#OTRL2 -->
<g id="edge29" class="edge">
<title>https://w3id.org/oseg/ont/otrl#Otrl2&#45;&gt;https://w3id.org/oseg/ont/otrl#OTRL2</title>
<path fill="none" stroke="black" d="M952.51,-81.38C1027.59,-77.44 1120.9,-75.27 1204.14,-81.26 1252.77,-84.77 1307.33,-92.83 1348.25,-99.72"/>
<polygon fill="black" stroke="black" points="1347.9,-103.21 1358.35,-101.44 1349.08,-96.31 1347.9,-103.21"/>
<text text-anchor="middle" x="1124.14" y="-85.06" font-family="Times,serif" font-size="14.00">schema:supersededBy</text>
</g>
<!-- https://w3id.org/oseg/ont/otrl#Odrl3Star -->
<g id="node33" class="node">
<title>https://w3id.org/oseg/ont/otrl#Odrl3Star</title>
<ellipse fill="none" stroke="black" cx="807.65" cy="-900.26" rx="218.49" ry="16.03"/>
<text text-anchor="middle" x="807.65" y="-896.56" font-family="Times,serif" font-size="14.00">https://w3id.org/oseg/ont/otrl#Odrl3Star</text>
</g>
<!-- https://w3id.org/oseg/ont/otrl#Odrl3Star&#45;&gt;https://w3id.org/oseg/ont/otrl#ODRL3Star -->
<g id="edge33" class="edge">
<title>https://w3id.org/oseg/ont/otrl#Odrl3Star&#45;&gt;https://w3id.org/oseg/ont/otrl#ODRL3Star</title>
<path fill="none" stroke="black" d="M945.31,-912.96C1040.39,-919.85 1158.06,-923.95 1204.14,-907.26 1213.94,-903.72 1212.62,-896.47 1222.14,-892.26 1250.08,-879.93 1282.4,-873.11 1312.34,-869.43"/>
<polygon fill="black" stroke="black" points="1312.84,-872.89 1322.39,-868.29 1312.06,-865.94 1312.84,-872.89"/>
<text text-anchor="middle" x="1124.14" y="-923.06" font-family="Times,serif" font-size="14.00">owl:sameAs</text>
</g>
<!-- https://w3id.org/oseg/ont/otrl#Odrl3Star&#45;&gt;https://w3id.org/oseg/ont/otrl#ODRL3Star -->
<g id="edge37" class="edge">
<title>https://w3id.org/oseg/ont/otrl#Odrl3Star&#45;&gt;https://w3id.org/oseg/ont/otrl#ODRL3Star</title>
<path fill="none" stroke="black" d="M982.17,-890.47C1090.66,-884.35 1226.29,-876.7 1315.7,-871.66"/>
<polygon fill="black" stroke="black" points="1316.04,-875.15 1325.83,-871.09 1315.65,-868.16 1316.04,-875.15"/>
<text text-anchor="middle" x="1124.14" y="-891.06" font-family="Times,serif" font-size="14.00">schema:supersededBy</text>
</g>
<!-- https://w3id.org/oseg/ont/otrl#Odrl5 -->
<g id="node34" class="node">
<title>https://w3id.org/oseg/ont/otrl#Odrl5</title>
<ellipse fill="none" stroke="black" cx="196.58" cy="-765.26" rx="196.65" ry="16.03"/>
<text text-anchor="middle" x="196.58" y="-761.56" font-family="Times,serif" font-size="14.00">https://w3id.org/oseg/ont/otrl#Odrl5</text>
</g>
<!-- https://w3id.org/oseg/ont/otrl#Odrl5&#45;&gt;https://w3id.org/oseg/ont/otrl#Odrl4 -->
<g id="edge34" class="edge">
<title>https://w3id.org/oseg/ont/otrl#Odrl5&#45;&gt;https://w3id.org/oseg/ont/otrl#Odrl4</title>
<path fill="none" stroke="black" d="M393.22,-765.26C510.43,-765.26 652.42,-765.26 735.81,-765.26"/>
<polygon fill="black" stroke="black" points="735.94,-768.76 745.94,-765.26 735.94,-761.76 735.94,-768.76"/>
<text text-anchor="middle" x="491.15" y="-769.06" font-family="Times,serif" font-size="14.00">schema:supersededBy</text>
</g>
<!-- https://w3id.org/oseg/ont/otrl#Odrl5&#45;&gt;https://w3id.org/oseg/ont/otrl#Odrl4 -->
<g id="edge49" class="edge">
<title>https://w3id.org/oseg/ont/otrl#Odrl5&#45;&gt;https://w3id.org/oseg/ont/otrl#Odrl4</title>
<path fill="none" stroke="black" d="M319.43,-752.54C349.39,-749.93 381.4,-747.58 411.15,-746.26 482.19,-743.11 500.1,-743.4 571.15,-746.26 628.23,-748.56 692.91,-753.98 740.02,-758.45"/>
<polygon fill="black" stroke="black" points="739.81,-761.95 750.1,-759.42 740.48,-754.98 739.81,-761.95"/>
<text text-anchor="middle" x="491.15" y="-750.06" font-family="Times,serif" font-size="14.00">owl:sameAs</text>
</g>
</g>
</svg>
