<?xml version="1.0" encoding="UTF-8" standalone="no"?>
<!DOCTYPE svg PUBLIC "-//W3C//DTD SVG 1.1//EN"
 "http://www.w3.org/Graphics/SVG/1.1/DTD/svg11.dtd">
<!-- Generated by graphviz version 2.43.0 (0)
 -->
<!-- Title: G Pages: 1 -->
<svg width="632pt" height="985pt"
 viewBox="0.00 0.00 631.63 984.53" xmlns="http://www.w3.org/2000/svg" xmlns:xlink="http://www.w3.org/1999/xlink">
<g id="graph0" class="graph" transform="scale(1 1) rotate(0) translate(4 980.53)">
<title>G</title>
<polygon fill="white" stroke="transparent" points="-4,4 -4,-980.53 627.63,-980.53 627.63,4 -4,4"/>
<!-- http://purl.org/oseg/ontologies/OTRL#OTRL -->
<g id="node1" class="node">
<title>http://purl.org/oseg/ontologies/OTRL#OTRL</title>
<ellipse fill="none" stroke="#e377c2" cx="341.04" cy="-508.26" rx="39.7" ry="16.03"/>
<text text-anchor="middle" x="341.04" y="-504.56" font-family="Times,serif" font-size="14.00">OTRL</text>
</g>
<!-- http://www.w3.org/2002/07/owl#class -->
<g id="node3" class="node">
<title>http://www.w3.org/2002/07/owl#class</title>
<ellipse fill="none" stroke="#1f77b4" cx="566.36" cy="-357.26" rx="57.05" ry="16.03"/>
<text text-anchor="middle" x="566.36" y="-353.56" font-family="Times,serif" font-size="14.00">owl:class</text>
</g>
<!-- http://purl.org/oseg/ontologies/OTRL#OTRL&#45;&gt;http://www.w3.org/2002/07/owl#class -->
<g id="edge9" class="edge">
<title>http://purl.org/oseg/ontologies/OTRL#OTRL&#45;&gt;http://www.w3.org/2002/07/owl#class</title>
<path fill="none" stroke="black" d="M380.8,-507.08C412.97,-504.35 458.54,-496.3 491.08,-473.26 522.93,-450.72 544.35,-409.8 555.7,-383.07"/>
<polygon fill="black" stroke="black" points="559.03,-384.18 559.56,-373.6 552.55,-381.54 559.03,-384.18"/>
<text text-anchor="middle" x="486.58" y="-482.06" font-family="Times,serif" font-size="14.00">a</text>
</g>
<!-- http://purl.org/oseg/ontologies/OTRL#ODRL -->
<g id="node2" class="node">
<title>http://purl.org/oseg/ontologies/OTRL#ODRL</title>
<ellipse fill="none" stroke="#e377c2" cx="566.36" cy="-130.26" rx="41.94" ry="16.03"/>
<text text-anchor="middle" x="566.36" y="-126.56" font-family="Times,serif" font-size="14.00">ODRL</text>
</g>
<!-- http://www.w3.org/2002/07/owl#Ontology -->
<g id="node4" class="node">
<title>http://www.w3.org/2002/07/owl#Ontology</title>
<ellipse fill="none" stroke="#1f77b4" cx="341.04" cy="-711.26" rx="77.56" ry="16.03"/>
<text text-anchor="middle" x="341.04" y="-707.56" font-family="Times,serif" font-size="14.00">owl:Ontology</text>
</g>
<!-- http://www.w3.org/2002/07/owl#DatatypeProperty -->
<g id="node5" class="node">
<title>http://www.w3.org/2002/07/owl#DatatypeProperty</title>
<ellipse fill="none" stroke="#1f77b4" cx="341.04" cy="-869.26" rx="123.07" ry="16.03"/>
<text text-anchor="middle" x="341.04" y="-865.56" font-family="Times,serif" font-size="14.00">owl:DatatypeProperty</text>
</g>
<!-- http://purl.org/oseg/ontologies/OTRL -->
<g id="node6" class="node">
<title>http://purl.org/oseg/ontologies/OTRL</title>
<ellipse fill="none" stroke="#e377c2" cx="70" cy="-711.26" rx="60.62" ry="16.03"/>
<text text-anchor="middle" x="70" y="-707.56" font-family="Times,serif" font-size="14.00">ns1:OTRL</text>
</g>
<!-- http://purl.org/oseg/ontologies/OTRL&#45;&gt;http://www.w3.org/2002/07/owl#Ontology -->
<g id="edge8" class="edge">
<title>http://purl.org/oseg/ontologies/OTRL&#45;&gt;http://www.w3.org/2002/07/owl#Ontology</title>
<path fill="none" stroke="black" d="M131.05,-711.26C166.88,-711.26 213,-711.26 252.8,-711.26"/>
<polygon fill="black" stroke="black" points="253.04,-714.76 263.04,-711.26 253.04,-707.76 253.04,-714.76"/>
<text text-anchor="middle" x="179.01" y="-715.06" font-family="Times,serif" font-size="14.00">a</text>
</g>
<!-- http://purl.org/oseg/ontologies/OTRL&#45;&gt;http://purl.org/oseg/ontologies/OTRL -->
<g id="edge13" class="edge">
<title>http://purl.org/oseg/ontologies/OTRL&#45;&gt;http://purl.org/oseg/ontologies/OTRL</title>
<path fill="none" stroke="black" d="M51.18,-726.77C46.64,-736.38 52.92,-745.53 70,-745.53 80.68,-745.53 87.14,-741.95 89.37,-736.93"/>
<polygon fill="black" stroke="black" points="92.85,-736.57 88.82,-726.77 85.86,-736.94 92.85,-736.57"/>
<text text-anchor="middle" x="70" y="-749.33" font-family="Times,serif" font-size="14.00">owl:versionIRI</text>
</g>
<!-- http://purl.org/oseg/ontologies/OTRL#exitCriteria -->
<g id="node7" class="node">
<title>http://purl.org/oseg/ontologies/OTRL#exitCriteria</title>
<ellipse fill="none" stroke="#e377c2" cx="70" cy="-858.26" rx="70.01" ry="16.03"/>
<text text-anchor="middle" x="70" y="-854.56" font-family="Times,serif" font-size="14.00">exitCriteria</text>
</g>
<!-- http://purl.org/oseg/ontologies/OTRL#exitCriteria&#45;&gt;http://www.w3.org/2002/07/owl#DatatypeProperty -->
<g id="edge15" class="edge">
<title>http://purl.org/oseg/ontologies/OTRL#exitCriteria&#45;&gt;http://www.w3.org/2002/07/owl#DatatypeProperty</title>
<path fill="none" stroke="black" d="M139.24,-861.05C161.78,-861.97 187.63,-863.03 213.11,-864.07"/>
<polygon fill="black" stroke="black" points="213.1,-867.58 223.23,-864.49 213.39,-860.58 213.1,-867.58"/>
<text text-anchor="middle" x="179.01" y="-867.06" font-family="Times,serif" font-size="14.00">a</text>
</g>
<!-- http://schema.org/Text -->
<g id="node16" class="node">
<title>http://schema.org/Text</title>
<ellipse fill="none" stroke="#e377c2" cx="341.04" cy="-789.26" rx="74.91" ry="16.03"/>
<text text-anchor="middle" x="341.04" y="-785.56" font-family="Times,serif" font-size="14.00">schema:Text</text>
</g>
<!-- http://purl.org/oseg/ontologies/OTRL#exitCriteria&#45;&gt;http://schema.org/Text -->
<g id="edge23" class="edge">
<title>http://purl.org/oseg/ontologies/OTRL#exitCriteria&#45;&gt;http://schema.org/Text</title>
<path fill="none" stroke="black" d="M117.56,-846.32C163.15,-834.63 232.74,-816.78 281.93,-804.17"/>
<polygon fill="black" stroke="black" points="282.97,-807.51 291.79,-801.64 281.24,-800.73 282.97,-807.51"/>
<text text-anchor="middle" x="179.01" y="-839.06" font-family="Times,serif" font-size="14.00">range</text>
</g>
<!-- http://purl.org/oseg/ontologies/OTRL#goal -->
<g id="node8" class="node">
<title>http://purl.org/oseg/ontologies/OTRL#goal</title>
<ellipse fill="none" stroke="#e377c2" cx="70" cy="-795.26" rx="33.47" ry="16.03"/>
<text text-anchor="middle" x="70" y="-791.56" font-family="Times,serif" font-size="14.00">goal</text>
</g>
<!-- http://purl.org/oseg/ontologies/OTRL#goal&#45;&gt;http://www.w3.org/2002/07/owl#DatatypeProperty -->
<g id="edge16" class="edge">
<title>http://purl.org/oseg/ontologies/OTRL#goal&#45;&gt;http://www.w3.org/2002/07/owl#DatatypeProperty</title>
<path fill="none" stroke="black" d="M103.32,-795.02C129.72,-795.54 167.81,-797.91 200.01,-806.26 200.65,-806.43 255.22,-831.01 296.03,-849.41"/>
<polygon fill="black" stroke="black" points="294.73,-852.67 305.29,-853.59 297.61,-846.28 294.73,-852.67"/>
<text text-anchor="middle" x="179.01" y="-810.06" font-family="Times,serif" font-size="14.00">a</text>
</g>
<!-- http://purl.org/oseg/ontologies/OTRL#goal&#45;&gt;http://schema.org/Text -->
<g id="edge24" class="edge">
<title>http://purl.org/oseg/ontologies/OTRL#goal&#45;&gt;http://schema.org/Text</title>
<path fill="none" stroke="black" d="M97.24,-785.64C114.29,-779.91 137.15,-773.2 158.01,-770.26 198.24,-764.6 243.7,-769.33 279.13,-775.49"/>
<polygon fill="black" stroke="black" points="278.85,-779 289.31,-777.35 280.1,-772.11 278.85,-779"/>
<text text-anchor="middle" x="179.01" y="-774.06" font-family="Times,serif" font-size="14.00">range</text>
</g>
<!-- http://purl.org/oseg/ontologies/OTRL#Otrl4 -->
<g id="node9" class="node">
<title>http://purl.org/oseg/ontologies/OTRL#Otrl4</title>
<ellipse fill="none" stroke="#e377c2" cx="70" cy="-418.26" rx="38.37" ry="16.03"/>
<text text-anchor="middle" x="70" y="-414.56" font-family="Times,serif" font-size="14.00">Otrl4</text>
</g>
<!-- http://purl.org/oseg/ontologies/OTRL#Otrl4&#45;&gt;http://purl.org/oseg/ontologies/OTRL#OTRL -->
<g id="edge11" class="edge">
<title>http://purl.org/oseg/ontologies/OTRL#Otrl4&#45;&gt;http://purl.org/oseg/ontologies/OTRL#OTRL</title>
<path fill="none" stroke="black" d="M99.67,-428.69C112.12,-433.32 126.84,-438.92 140.01,-444.26 175.05,-458.49 182.18,-466.15 218.01,-478.26 243.12,-486.76 271.89,-493.95 295.19,-499.16"/>
<polygon fill="black" stroke="black" points="294.62,-502.61 305.14,-501.34 296.12,-495.78 294.62,-502.61"/>
</g>
<!-- http://purl.org/oseg/ontologies/OTRL#Otrl4&#45;&gt;http://www.w3.org/2002/07/owl#class -->
<g id="edge18" class="edge">
<title>http://purl.org/oseg/ontologies/OTRL#Otrl4&#45;&gt;http://www.w3.org/2002/07/owl#class</title>
<path fill="none" stroke="black" d="M108.11,-416.97C178.15,-414.08 334.43,-405.53 464.08,-383.26 481.27,-380.31 499.82,-375.92 516.28,-371.57"/>
<polygon fill="black" stroke="black" points="517.49,-374.87 526.24,-368.89 515.67,-368.11 517.49,-374.87"/>
<text text-anchor="middle" x="341.04" y="-415.06" font-family="Times,serif" font-size="14.00">a</text>
</g>
<!-- http://purl.org/oseg/ontologies/OTRL#Odrl -->
<g id="node10" class="node">
<title>http://purl.org/oseg/ontologies/OTRL#Odrl</title>
<ellipse fill="none" stroke="#e377c2" cx="341.04" cy="-305.26" rx="33.88" ry="16.03"/>
<text text-anchor="middle" x="341.04" y="-301.56" font-family="Times,serif" font-size="14.00">Odrl</text>
</g>
<!-- http://purl.org/oseg/ontologies/OTRL#Odrl&#45;&gt;http://www.w3.org/2002/07/owl#class -->
<g id="edge20" class="edge">
<title>http://purl.org/oseg/ontologies/OTRL#Odrl&#45;&gt;http://www.w3.org/2002/07/owl#class</title>
<path fill="none" stroke="black" d="M374.45,-308.2C404.92,-311.44 451.64,-317.66 491.08,-328.26 502.45,-331.32 514.47,-335.55 525.45,-339.83"/>
<polygon fill="black" stroke="black" points="524.2,-343.1 534.78,-343.58 526.81,-336.61 524.2,-343.1"/>
<text text-anchor="middle" x="486.58" y="-332.06" font-family="Times,serif" font-size="14.00">a</text>
</g>
<!-- http://www.w3.org/1999/02/22&#45;rdf&#45;syntax&#45;ns#nil -->
<g id="node11" class="node">
<title>http://www.w3.org/1999/02/22&#45;rdf&#45;syntax&#45;ns#nil</title>
<ellipse fill="none" stroke="#e377c2" cx="70" cy="-909.26" rx="42.35" ry="16.03"/>
<text text-anchor="middle" x="70" y="-905.56" font-family="Times,serif" font-size="14.00">rdf:nil</text>
</g>
<!-- http://purl.org/oseg/ontologies/OTRL#Otrl1 -->
<g id="node12" class="node">
<title>http://purl.org/oseg/ontologies/OTRL#Otrl1</title>
<ellipse fill="none" stroke="#e377c2" cx="70" cy="-585.26" rx="38.37" ry="16.03"/>
<text text-anchor="middle" x="70" y="-581.56" font-family="Times,serif" font-size="14.00">Otrl1</text>
</g>
<!-- http://purl.org/oseg/ontologies/OTRL#Otrl1&#45;&gt;http://purl.org/oseg/ontologies/OTRL#OTRL -->
<g id="edge1" class="edge">
<title>http://purl.org/oseg/ontologies/OTRL#Otrl1&#45;&gt;http://purl.org/oseg/ontologies/OTRL#OTRL</title>
<path fill="none" stroke="black" d="M100.39,-575.21C129.94,-565.27 176.88,-549.88 218.01,-538.26 243.7,-531.01 272.72,-523.83 296.02,-518.32"/>
<polygon fill="black" stroke="black" points="297.01,-521.68 305.95,-515.99 295.41,-514.86 297.01,-521.68"/>
</g>
<!-- http://purl.org/oseg/ontologies/OTRL#Otrl1&#45;&gt;http://www.w3.org/2002/07/owl#class -->
<g id="edge4" class="edge">
<title>http://purl.org/oseg/ontologies/OTRL#Otrl1&#45;&gt;http://www.w3.org/2002/07/owl#class</title>
<path fill="none" stroke="black" d="M106.7,-590.15C192.05,-601.12 405.22,-623.94 464.08,-587.26 535.67,-542.66 556.89,-434.27 562.99,-383.86"/>
<polygon fill="black" stroke="black" points="566.49,-384.07 564.1,-373.75 559.53,-383.3 566.49,-384.07"/>
<text text-anchor="middle" x="341.04" y="-612.06" font-family="Times,serif" font-size="14.00">a</text>
</g>
<!-- http://purl.org/oseg/ontologies/OTRL#Otrl3 -->
<g id="node13" class="node">
<title>http://purl.org/oseg/ontologies/OTRL#Otrl3</title>
<ellipse fill="none" stroke="#e377c2" cx="70" cy="-469.26" rx="38.37" ry="16.03"/>
<text text-anchor="middle" x="70" y="-465.56" font-family="Times,serif" font-size="14.00">Otrl3</text>
</g>
<!-- http://purl.org/oseg/ontologies/OTRL#Otrl3&#45;&gt;http://purl.org/oseg/ontologies/OTRL#OTRL -->
<g id="edge17" class="edge">
<title>http://purl.org/oseg/ontologies/OTRL#Otrl3&#45;&gt;http://purl.org/oseg/ontologies/OTRL#OTRL</title>
<path fill="none" stroke="black" d="M106.45,-474.4C154.34,-481.34 239.82,-493.74 293.03,-501.45"/>
<polygon fill="black" stroke="black" points="292.82,-504.95 303.22,-502.93 293.83,-498.03 292.82,-504.95"/>
</g>
<!-- http://purl.org/oseg/ontologies/OTRL#Otrl3&#45;&gt;http://www.w3.org/2002/07/owl#class -->
<g id="edge21" class="edge">
<title>http://purl.org/oseg/ontologies/OTRL#Otrl3&#45;&gt;http://www.w3.org/2002/07/owl#class</title>
<path fill="none" stroke="black" d="M108.39,-468.03C193.55,-464.81 399.54,-454.68 464.08,-430.26 493.7,-419.06 522.5,-396.86 541.77,-379.87"/>
<polygon fill="black" stroke="black" points="544.35,-382.26 549.42,-372.95 539.66,-377.06 544.35,-382.26"/>
<text text-anchor="middle" x="341.04" y="-467.06" font-family="Times,serif" font-size="14.00">a</text>
</g>
<!-- http://purl.org/oseg/ontologies/OTRL#Otrl5 -->
<g id="node14" class="node">
<title>http://purl.org/oseg/ontologies/OTRL#Otrl5</title>
<ellipse fill="none" stroke="#e377c2" cx="70" cy="-531.26" rx="38.37" ry="16.03"/>
<text text-anchor="middle" x="70" y="-527.56" font-family="Times,serif" font-size="14.00">Otrl5</text>
</g>
<!-- http://purl.org/oseg/ontologies/OTRL#Otrl5&#45;&gt;http://purl.org/oseg/ontologies/OTRL#OTRL -->
<g id="edge2" class="edge">
<title>http://purl.org/oseg/ontologies/OTRL#Otrl5&#45;&gt;http://purl.org/oseg/ontologies/OTRL#OTRL</title>
<path fill="none" stroke="black" d="M107.57,-528.14C155.25,-524.06 238.79,-516.92 291.67,-512.4"/>
<polygon fill="black" stroke="black" points="292.16,-515.87 301.82,-511.53 291.56,-508.9 292.16,-515.87"/>
</g>
<!-- http://purl.org/oseg/ontologies/OTRL#Otrl5&#45;&gt;http://www.w3.org/2002/07/owl#class -->
<g id="edge5" class="edge">
<title>http://purl.org/oseg/ontologies/OTRL#Otrl5&#45;&gt;http://www.w3.org/2002/07/owl#class</title>
<path fill="none" stroke="black" d="M101.73,-540.37C170.91,-559.05 342.35,-594.99 464.08,-533.26 522.22,-503.78 549.21,-425.07 559.71,-383.63"/>
<polygon fill="black" stroke="black" points="563.16,-384.25 562.09,-373.71 556.36,-382.61 563.16,-384.25"/>
<text text-anchor="middle" x="341.04" y="-572.06" font-family="Times,serif" font-size="14.00">a</text>
</g>
<!-- http://purl.org/oseg/ontologies/OTRL#Odrl3 -->
<g id="node15" class="node">
<title>http://purl.org/oseg/ontologies/OTRL#Odrl3</title>
<ellipse fill="none" stroke="#e377c2" cx="341.04" cy="-198.26" rx="40.11" ry="16.03"/>
<text text-anchor="middle" x="341.04" y="-194.56" font-family="Times,serif" font-size="14.00">Odrl3</text>
</g>
<!-- http://purl.org/oseg/ontologies/OTRL#Odrl3&#45;&gt;http://purl.org/oseg/ontologies/OTRL#ODRL -->
<g id="edge3" class="edge">
<title>http://purl.org/oseg/ontologies/OTRL#Odrl3&#45;&gt;http://purl.org/oseg/ontologies/OTRL#ODRL</title>
<path fill="none" stroke="black" d="M381.48,-198.07C412.22,-196.79 455.49,-192.45 491.08,-179.26 508.71,-172.73 526.37,-161.33 540.04,-151.17"/>
<polygon fill="black" stroke="black" points="542.21,-153.92 548.01,-145.06 537.94,-148.37 542.21,-153.92"/>
</g>
<!-- http://purl.org/oseg/ontologies/OTRL#Odrl3&#45;&gt;http://www.w3.org/2002/07/owl#class -->
<g id="edge22" class="edge">
<title>http://purl.org/oseg/ontologies/OTRL#Odrl3&#45;&gt;http://www.w3.org/2002/07/owl#class</title>
<path fill="none" stroke="black" d="M380.63,-201.61C406.01,-205.3 439.04,-213.03 464.08,-229.26 504.42,-255.41 535.77,-303.11 552.33,-332.32"/>
<polygon fill="black" stroke="black" points="549.28,-334.04 557.18,-341.1 555.41,-330.66 549.28,-334.04"/>
<text text-anchor="middle" x="486.58" y="-253.06" font-family="Times,serif" font-size="14.00">a</text>
</g>
<!-- http://purl.org/oseg/ontologies/OTRL#Odrl1 -->
<g id="node17" class="node">
<title>http://purl.org/oseg/ontologies/OTRL#Odrl1</title>
<ellipse fill="none" stroke="#e377c2" cx="341.04" cy="-16.26" rx="40.11" ry="16.03"/>
<text text-anchor="middle" x="341.04" y="-12.56" font-family="Times,serif" font-size="14.00">Odrl1</text>
</g>
<!-- http://purl.org/oseg/ontologies/OTRL#Odrl1&#45;&gt;http://purl.org/oseg/ontologies/OTRL#ODRL -->
<g id="edge30" class="edge">
<title>http://purl.org/oseg/ontologies/OTRL#Odrl1&#45;&gt;http://purl.org/oseg/ontologies/OTRL#ODRL</title>
<path fill="none" stroke="black" d="M375.97,-8.15C407.75,-2.44 455.53,1.13 491.08,-18.26 524.68,-36.59 545.72,-77.42 556.5,-104.39"/>
<polygon fill="black" stroke="black" points="553.31,-105.86 560.13,-113.97 559.86,-103.38 553.31,-105.86"/>
</g>
<!-- http://purl.org/oseg/ontologies/OTRL#Odrl1&#45;&gt;http://www.w3.org/2002/07/owl#class -->
<g id="edge7" class="edge">
<title>http://purl.org/oseg/ontologies/OTRL#Odrl1&#45;&gt;http://www.w3.org/2002/07/owl#class</title>
<path fill="none" stroke="black" d="M381.47,-17.66C407.71,-20.55 441.4,-28.29 464.08,-48.26 486.14,-67.69 539.36,-260.09 558.42,-331.11"/>
<polygon fill="black" stroke="black" points="555.11,-332.29 561.07,-341.05 561.87,-330.48 555.11,-332.29"/>
<text text-anchor="middle" x="486.58" y="-107.06" font-family="Times,serif" font-size="14.00">a</text>
</g>
<!-- http://purl.org/oseg/ontologies/OTRL#Odrl2 -->
<g id="node18" class="node">
<title>http://purl.org/oseg/ontologies/OTRL#Odrl2</title>
<ellipse fill="none" stroke="#e377c2" cx="341.04" cy="-73.26" rx="40.11" ry="16.03"/>
<text text-anchor="middle" x="341.04" y="-69.56" font-family="Times,serif" font-size="14.00">Odrl2</text>
</g>
<!-- http://purl.org/oseg/ontologies/OTRL#Odrl2&#45;&gt;http://purl.org/oseg/ontologies/OTRL#ODRL -->
<g id="edge6" class="edge">
<title>http://purl.org/oseg/ontologies/OTRL#Odrl2&#45;&gt;http://purl.org/oseg/ontologies/OTRL#ODRL</title>
<path fill="none" stroke="black" d="M380.73,-69.88C411.43,-68.48 455.03,-69.38 491.08,-81.26 509.18,-87.23 527.09,-98.83 540.79,-109.24"/>
<polygon fill="black" stroke="black" points="538.71,-112.07 548.73,-115.52 543.05,-106.57 538.71,-112.07"/>
</g>
<!-- http://purl.org/oseg/ontologies/OTRL#Odrl2&#45;&gt;http://www.w3.org/2002/07/owl#class -->
<g id="edge26" class="edge">
<title>http://purl.org/oseg/ontologies/OTRL#Odrl2&#45;&gt;http://www.w3.org/2002/07/owl#class</title>
<path fill="none" stroke="black" d="M379.97,-77.51C406.36,-82.25 440.85,-92.25 464.08,-113.26 529.67,-172.6 553.91,-281.01 561.88,-330.88"/>
<polygon fill="black" stroke="black" points="558.44,-331.5 563.38,-340.87 565.36,-330.46 558.44,-331.5"/>
<text text-anchor="middle" x="486.58" y="-143.06" font-family="Times,serif" font-size="14.00">a</text>
</g>
<!-- http://purl.org/oseg/ontologies/OTRL#Otrl6 -->
<g id="node19" class="node">
<title>http://purl.org/oseg/ontologies/OTRL#Otrl6</title>
<ellipse fill="none" stroke="#e377c2" cx="70" cy="-367.26" rx="38.37" ry="16.03"/>
<text text-anchor="middle" x="70" y="-363.56" font-family="Times,serif" font-size="14.00">Otrl6</text>
</g>
<!-- http://purl.org/oseg/ontologies/OTRL#Otrl6&#45;&gt;http://purl.org/oseg/ontologies/OTRL#OTRL -->
<g id="edge19" class="edge">
<title>http://purl.org/oseg/ontologies/OTRL#Otrl6&#45;&gt;http://purl.org/oseg/ontologies/OTRL#OTRL</title>
<path fill="none" stroke="black" d="M102.06,-376.14C114.37,-380.37 128.34,-386.09 140.01,-393.26 170.83,-412.21 177.13,-420.24 200.01,-448.26 209.84,-460.31 205.5,-469.03 218.01,-478.26 239.21,-493.91 267.56,-501.47 291.6,-505.09"/>
<polygon fill="black" stroke="black" points="291.23,-508.57 301.6,-506.41 292.15,-501.63 291.23,-508.57"/>
</g>
<!-- http://purl.org/oseg/ontologies/OTRL#Otrl6&#45;&gt;http://www.w3.org/2002/07/owl#class -->
<g id="edge27" class="edge">
<title>http://purl.org/oseg/ontologies/OTRL#Otrl6&#45;&gt;http://www.w3.org/2002/07/owl#class</title>
<path fill="none" stroke="black" d="M108.16,-366.51C191.28,-364.83 393.2,-360.75 498.68,-358.61"/>
<polygon fill="black" stroke="black" points="498.96,-362.11 508.89,-358.41 498.82,-355.11 498.96,-362.11"/>
<text text-anchor="middle" x="341.04" y="-368.06" font-family="Times,serif" font-size="14.00">a</text>
</g>
<!-- http://purl.org/oseg/ontologies/OTRL#Odrl3Star -->
<g id="node20" class="node">
<title>http://purl.org/oseg/ontologies/OTRL#Odrl3Star</title>
<ellipse fill="none" stroke="#e377c2" cx="341.04" cy="-254.26" rx="62.45" ry="16.03"/>
<text text-anchor="middle" x="341.04" y="-250.56" font-family="Times,serif" font-size="14.00">Odrl3Star</text>
</g>
<!-- http://purl.org/oseg/ontologies/OTRL#Odrl3Star&#45;&gt;http://purl.org/oseg/ontologies/OTRL#ODRL -->
<g id="edge14" class="edge">
<title>http://purl.org/oseg/ontologies/OTRL#Odrl3Star&#45;&gt;http://purl.org/oseg/ontologies/OTRL#ODRL</title>
<path fill="none" stroke="black" d="M397.94,-261.02C427.52,-261.94 463.35,-258.61 491.08,-242.26 523.87,-222.93 545.03,-182.75 556.07,-156.14"/>
<polygon fill="black" stroke="black" points="559.39,-157.27 559.81,-146.68 552.88,-154.7 559.39,-157.27"/>
</g>
<!-- http://purl.org/oseg/ontologies/OTRL#Odrl3Star&#45;&gt;http://www.w3.org/2002/07/owl#class -->
<g id="edge28" class="edge">
<title>http://purl.org/oseg/ontologies/OTRL#Odrl3Star&#45;&gt;http://www.w3.org/2002/07/owl#class</title>
<path fill="none" stroke="black" d="M398.06,-260.89C419.39,-264.76 443.5,-270.83 464.08,-280.26 493.72,-293.86 522.86,-317.39 542.22,-334.87"/>
<polygon fill="black" stroke="black" points="539.91,-337.5 549.64,-341.71 544.66,-332.35 539.91,-337.5"/>
<text text-anchor="middle" x="486.58" y="-298.06" font-family="Times,serif" font-size="14.00">a</text>
</g>
<!-- http://purl.org/oseg/ontologies/OTRL#Odrl4 -->
<g id="node21" class="node">
<title>http://purl.org/oseg/ontologies/OTRL#Odrl4</title>
<ellipse fill="none" stroke="#e377c2" cx="341.04" cy="-138.26" rx="40.11" ry="16.03"/>
<text text-anchor="middle" x="341.04" y="-134.56" font-family="Times,serif" font-size="14.00">Odrl4</text>
</g>
<!-- http://purl.org/oseg/ontologies/OTRL#Odrl4&#45;&gt;http://purl.org/oseg/ontologies/OTRL#ODRL -->
<g id="edge25" class="edge">
<title>http://purl.org/oseg/ontologies/OTRL#Odrl4&#45;&gt;http://purl.org/oseg/ontologies/OTRL#ODRL</title>
<path fill="none" stroke="black" d="M381.45,-136.85C418.43,-135.53 473.93,-133.54 514.28,-132.09"/>
<polygon fill="black" stroke="black" points="514.58,-135.58 524.45,-131.73 514.33,-128.59 514.58,-135.58"/>
</g>
<!-- http://purl.org/oseg/ontologies/OTRL#Odrl4&#45;&gt;http://www.w3.org/2002/07/owl#class -->
<g id="edge10" class="edge">
<title>http://purl.org/oseg/ontologies/OTRL#Odrl4&#45;&gt;http://www.w3.org/2002/07/owl#class</title>
<path fill="none" stroke="black" d="M380.77,-141.62C406.7,-145.6 440.3,-154.29 464.08,-173.26 516.28,-214.91 545.62,-291.14 558.1,-331.15"/>
<polygon fill="black" stroke="black" points="554.82,-332.39 561.04,-340.96 561.52,-330.38 554.82,-332.39"/>
<text text-anchor="middle" x="486.58" y="-201.06" font-family="Times,serif" font-size="14.00">a</text>
</g>
<!-- http://purl.org/oseg/ontologies/OTRL#Otrl -->
<g id="node22" class="node">
<title>http://purl.org/oseg/ontologies/OTRL#Otrl</title>
<ellipse fill="none" stroke="#e377c2" cx="70" cy="-960.26" rx="31.64" ry="16.03"/>
<text text-anchor="middle" x="70" y="-956.56" font-family="Times,serif" font-size="14.00">Otrl</text>
</g>
<!-- http://purl.org/oseg/ontologies/OTRL#Otrl2 -->
<g id="node23" class="node">
<title>http://purl.org/oseg/ontologies/OTRL#Otrl2</title>
<ellipse fill="none" stroke="#e377c2" cx="70" cy="-648.26" rx="38.37" ry="16.03"/>
<text text-anchor="middle" x="70" y="-644.56" font-family="Times,serif" font-size="14.00">Otrl2</text>
</g>
<!-- http://purl.org/oseg/ontologies/OTRL#Otrl2&#45;&gt;http://purl.org/oseg/ontologies/OTRL#OTRL -->
<g id="edge12" class="edge">
<title>http://purl.org/oseg/ontologies/OTRL#Otrl2&#45;&gt;http://purl.org/oseg/ontologies/OTRL#OTRL</title>
<path fill="none" stroke="black" d="M95.48,-635.94C108.91,-628.89 125.7,-619.61 140.01,-610.26 168.14,-591.88 176.83,-588.59 200.01,-564.26 209.7,-554.09 206.43,-546.24 218.01,-538.26 239.62,-523.37 267.88,-515.85 291.75,-512.06"/>
<polygon fill="black" stroke="black" points="292.28,-515.53 301.69,-510.66 291.3,-508.59 292.28,-515.53"/>
</g>
<!-- http://purl.org/oseg/ontologies/OTRL#Otrl2&#45;&gt;http://www.w3.org/2002/07/owl#class -->
<g id="edge29" class="edge">
<title>http://purl.org/oseg/ontologies/OTRL#Otrl2&#45;&gt;http://www.w3.org/2002/07/owl#class</title>
<path fill="none" stroke="black" d="M107.86,-650.55C193.8,-655.21 404.7,-662.61 464.08,-627.26 549.76,-576.27 563.42,-441.2 565.27,-383.74"/>
<polygon fill="black" stroke="black" points="568.77,-383.71 565.49,-373.64 561.77,-383.56 568.77,-383.71"/>
<text text-anchor="middle" x="341.04" y="-659.06" font-family="Times,serif" font-size="14.00">a</text>
</g>
</g>
</svg>
