<?xml version="1.0" encoding="UTF-8" standalone="no"?>
<!DOCTYPE svg PUBLIC "-//W3C//DTD SVG 1.1//EN"
 "http://www.w3.org/Graphics/SVG/1.1/DTD/svg11.dtd">
<!-- Generated by graphviz version 2.43.0 (0)
 -->
<!-- Title: G Pages: 1 -->
<svg width="744pt" height="1406pt"
 viewBox="0.00 0.00 744.45 1406.02" xmlns="http://www.w3.org/2000/svg" xmlns:xlink="http://www.w3.org/1999/xlink">
<g id="graph0" class="graph" transform="scale(1 1) rotate(0) translate(4 1402.02)">
<title>G</title>
<polygon fill="white" stroke="transparent" points="-4,4 -4,-1402.02 740.45,-1402.02 740.45,4 -4,4"/>
<!-- http://purl.org/oseg/ontologies/OTRL#ODRL -->
<g id="node1" class="node">
<title>http://purl.org/oseg/ontologies/OTRL#ODRL</title>
<ellipse fill="none" stroke="#e377c2" cx="453.87" cy="-1145.76" rx="41.94" ry="16.03"/>
<text text-anchor="middle" x="453.87" y="-1142.06" font-family="Times,serif" font-size="14.00">ODRL</text>
</g>
<!-- http://www.w3.org/2002/07/owl#class -->
<g id="node4" class="node">
<title>http://www.w3.org/2002/07/owl#class</title>
<ellipse fill="none" stroke="#1f77b4" cx="679.18" cy="-892.76" rx="57.05" ry="16.03"/>
<text text-anchor="middle" x="679.18" y="-889.06" font-family="Times,serif" font-size="14.00">owl:class</text>
</g>
<!-- http://purl.org/oseg/ontologies/OTRL#ODRL&#45;&gt;http://www.w3.org/2002/07/owl#class -->
<g id="edge30" class="edge">
<title>http://purl.org/oseg/ontologies/OTRL#ODRL&#45;&gt;http://www.w3.org/2002/07/owl#class</title>
<path fill="none" stroke="black" d="M495.84,-1146.47C528.89,-1144.85 574.57,-1137.36 603.9,-1110.76 659.84,-1060.03 673.67,-965.5 677.08,-919.41"/>
<polygon fill="black" stroke="black" points="680.58,-919.5 677.71,-909.3 673.59,-919.07 680.58,-919.5"/>
<text text-anchor="middle" x="599.4" y="-1120.56" font-family="Times,serif" font-size="14.00">a</text>
</g>
<!-- http://www.w3.org/2002/07/owl#Ontology -->
<g id="node2" class="node">
<title>http://www.w3.org/2002/07/owl#Ontology</title>
<ellipse fill="none" stroke="#1f77b4" cx="453.87" cy="-1348.76" rx="77.56" ry="16.03"/>
<text text-anchor="middle" x="453.87" y="-1345.06" font-family="Times,serif" font-size="14.00">owl:Ontology</text>
</g>
<!-- http://www.w3.org/2002/07/owl#DatatypeProperty -->
<g id="node3" class="node">
<title>http://www.w3.org/2002/07/owl#DatatypeProperty</title>
<ellipse fill="none" stroke="#1f77b4" cx="453.87" cy="-61.76" rx="123.07" ry="16.03"/>
<text text-anchor="middle" x="453.87" y="-58.06" font-family="Times,serif" font-size="14.00">owl:DatatypeProperty</text>
</g>
<!-- http://purl.org/oseg/ontologies/OTRL#OTRL -->
<g id="node5" class="node">
<title>http://purl.org/oseg/ontologies/OTRL#OTRL</title>
<ellipse fill="none" stroke="#e377c2" cx="453.87" cy="-601.76" rx="39.7" ry="16.03"/>
<text text-anchor="middle" x="453.87" y="-598.06" font-family="Times,serif" font-size="14.00">OTRL</text>
</g>
<!-- http://purl.org/oseg/ontologies/OTRL#OTRL&#45;&gt;http://www.w3.org/2002/07/owl#class -->
<g id="edge32" class="edge">
<title>http://purl.org/oseg/ontologies/OTRL#OTRL&#45;&gt;http://www.w3.org/2002/07/owl#class</title>
<path fill="none" stroke="black" d="M491.75,-606.94C525.39,-613.56 574.25,-628.19 603.9,-659.76 659.19,-718.61 673.32,-818.61 676.94,-866.14"/>
<polygon fill="black" stroke="black" points="673.45,-866.5 677.61,-876.25 680.44,-866.04 673.45,-866.5"/>
<text text-anchor="middle" x="599.4" y="-663.56" font-family="Times,serif" font-size="14.00">a</text>
</g>
<!-- http://purl.org/oseg/ontologies/OTRL#OTRL&#45;9 -->
<g id="node6" class="node">
<title>http://purl.org/oseg/ontologies/OTRL#OTRL&#45;9</title>
<ellipse fill="none" stroke="#e377c2" cx="120.92" cy="-705.76" rx="49.49" ry="16.03"/>
<text text-anchor="middle" x="120.92" y="-702.06" font-family="Times,serif" font-size="14.00">OTRL&#45;9</text>
</g>
<!-- http://purl.org/oseg/ontologies/OTRL#OTRL&#45;9&#45;&gt;http://www.w3.org/2002/07/owl#class -->
<g id="edge1" class="edge">
<title>http://purl.org/oseg/ontologies/OTRL#OTRL&#45;9&#45;&gt;http://www.w3.org/2002/07/owl#class</title>
<path fill="none" stroke="black" d="M158.76,-716.3C186.36,-723.77 225.16,-733.39 259.83,-738.76 399.46,-760.38 452.41,-694.94 576.9,-761.76 620.33,-785.06 651.01,-835.91 666.55,-866.95"/>
<polygon fill="black" stroke="black" points="663.55,-868.79 671.05,-876.27 669.85,-865.75 663.55,-868.79"/>
<text text-anchor="middle" x="453.87" y="-765.56" font-family="Times,serif" font-size="14.00">a</text>
</g>
<!-- http://purl.org/oseg/ontologies/OTRL#OTRL&#45;9&#45;&gt;http://purl.org/oseg/ontologies/OTRL#OTRL -->
<g id="edge38" class="edge">
<title>http://purl.org/oseg/ontologies/OTRL#OTRL&#45;9&#45;&gt;http://purl.org/oseg/ontologies/OTRL#OTRL</title>
<path fill="none" stroke="black" d="M157.11,-694.59C181.75,-686.02 214.94,-672.92 241.83,-656.76 250.76,-651.39 250.45,-646.28 259.83,-641.76 305.91,-619.52 364,-609.62 404.35,-605.22"/>
<polygon fill="black" stroke="black" points="404.88,-608.69 414.47,-604.19 404.17,-601.72 404.88,-608.69"/>
</g>
<!-- http://purl.org/oseg/ontologies/OTRL#OTRL&#45;8 -->
<g id="node7" class="node">
<title>http://purl.org/oseg/ontologies/OTRL#OTRL&#45;8</title>
<ellipse fill="none" stroke="#e377c2" cx="120.92" cy="-930.76" rx="49.49" ry="16.03"/>
<text text-anchor="middle" x="120.92" y="-927.06" font-family="Times,serif" font-size="14.00">OTRL&#45;8</text>
</g>
<!-- http://purl.org/oseg/ontologies/OTRL#OTRL&#45;8&#45;&gt;http://www.w3.org/2002/07/owl#class -->
<g id="edge24" class="edge">
<title>http://purl.org/oseg/ontologies/OTRL#OTRL&#45;8&#45;&gt;http://www.w3.org/2002/07/owl#class</title>
<path fill="none" stroke="black" d="M170.51,-930.12C253.85,-928.67 429.33,-924.06 576.9,-909.76 591.54,-908.34 607.25,-906.07 621.84,-903.65"/>
<polygon fill="black" stroke="black" points="622.46,-907.09 631.72,-901.95 621.27,-900.19 622.46,-907.09"/>
<text text-anchor="middle" x="453.87" y="-929.56" font-family="Times,serif" font-size="14.00">a</text>
</g>
<!-- http://purl.org/oseg/ontologies/OTRL#OTRL&#45;8&#45;&gt;http://purl.org/oseg/ontologies/OTRL#OTRL -->
<g id="edge13" class="edge">
<title>http://purl.org/oseg/ontologies/OTRL#OTRL&#45;8&#45;&gt;http://purl.org/oseg/ontologies/OTRL#OTRL</title>
<path fill="none" stroke="black" d="M170.18,-929.05C193.76,-926.07 221.39,-919.18 241.83,-903.76 294.39,-864.12 291.29,-835.97 312.83,-773.76 328.61,-728.19 302.65,-705.89 330.83,-666.76 349.94,-640.21 383.29,-623.51 410.29,-613.69"/>
<polygon fill="black" stroke="black" points="411.6,-616.94 419.92,-610.38 409.33,-610.32 411.6,-616.94"/>
</g>
<!-- http://purl.org/oseg/ontologies/OTRL#OTRL&#45;4 -->
<g id="node8" class="node">
<title>http://purl.org/oseg/ontologies/OTRL#OTRL&#45;4</title>
<ellipse fill="none" stroke="#e377c2" cx="120.92" cy="-878.76" rx="49.49" ry="16.03"/>
<text text-anchor="middle" x="120.92" y="-875.06" font-family="Times,serif" font-size="14.00">OTRL&#45;4</text>
</g>
<!-- http://purl.org/oseg/ontologies/OTRL#OTRL&#45;4&#45;&gt;http://www.w3.org/2002/07/owl#class -->
<g id="edge3" class="edge">
<title>http://purl.org/oseg/ontologies/OTRL#OTRL&#45;4&#45;&gt;http://www.w3.org/2002/07/owl#class</title>
<path fill="none" stroke="black" d="M170.31,-879.97C269.89,-882.48 497.9,-888.22 611.42,-891.08"/>
<polygon fill="black" stroke="black" points="611.63,-894.58 621.71,-891.34 611.8,-887.58 611.63,-894.58"/>
<text text-anchor="middle" x="453.87" y="-894.56" font-family="Times,serif" font-size="14.00">a</text>
</g>
<!-- http://purl.org/oseg/ontologies/OTRL#OTRL&#45;4&#45;&gt;http://purl.org/oseg/ontologies/OTRL#OTRL -->
<g id="edge5" class="edge">
<title>http://purl.org/oseg/ontologies/OTRL#OTRL&#45;4&#45;&gt;http://purl.org/oseg/ontologies/OTRL#OTRL</title>
<path fill="none" stroke="black" d="M170.24,-876.58C193.98,-873.31 221.72,-865.94 241.83,-849.76 312.29,-793.05 268.06,-731.87 330.83,-666.76 353.58,-643.16 386.78,-626.24 412.81,-615.59"/>
<polygon fill="black" stroke="black" points="414.38,-618.73 422.4,-611.81 411.82,-612.22 414.38,-618.73"/>
</g>
<!-- http://schema.org/Text -->
<g id="node9" class="node">
<title>http://schema.org/Text</title>
<ellipse fill="none" stroke="#e377c2" cx="453.87" cy="-175.76" rx="74.91" ry="16.03"/>
<text text-anchor="middle" x="453.87" y="-172.06" font-family="Times,serif" font-size="14.00">schema:Text</text>
</g>
<!-- http://purl.org/oseg/ontologies/OTRL#hardwareDescription -->
<g id="node10" class="node">
<title>http://purl.org/oseg/ontologies/OTRL#hardwareDescription</title>
<ellipse fill="none" stroke="#e377c2" cx="120.92" cy="-270.76" rx="118.17" ry="16.03"/>
<text text-anchor="middle" x="120.92" y="-267.06" font-family="Times,serif" font-size="14.00">hardwareDescription</text>
</g>
<!-- http://purl.org/oseg/ontologies/OTRL#hardwareDescription&#45;&gt;http://www.w3.org/2002/07/owl#DatatypeProperty -->
<g id="edge26" class="edge">
<title>http://purl.org/oseg/ontologies/OTRL#hardwareDescription&#45;&gt;http://www.w3.org/2002/07/owl#DatatypeProperty</title>
<path fill="none" stroke="black" d="M171.2,-255.88C226.9,-238.98 310.24,-213.38 312.83,-210.76 332.39,-190.94 314.74,-173.48 330.83,-150.76 351.66,-121.34 385.31,-97.85 412,-82.41"/>
<polygon fill="black" stroke="black" points="413.76,-85.44 420.76,-77.48 410.32,-79.33 413.76,-85.44"/>
<text text-anchor="middle" x="286.33" y="-232.56" font-family="Times,serif" font-size="14.00">a</text>
</g>
<!-- http://purl.org/oseg/ontologies/OTRL#hardwareDescription&#45;&gt;http://purl.org/oseg/ontologies/OTRL#OTRL -->
<g id="edge22" class="edge">
<title>http://purl.org/oseg/ontologies/OTRL#hardwareDescription&#45;&gt;http://purl.org/oseg/ontologies/OTRL#OTRL</title>
<path fill="none" stroke="black" d="M166.08,-285.91C192.24,-297.21 223.73,-315.3 241.83,-341.76 269.55,-382.28 228.38,-413.05 259.83,-450.76 275.86,-469.97 296.7,-450.63 312.83,-469.76 342.51,-504.95 299.38,-538.14 330.83,-571.76 349.37,-591.57 378.7,-599.21 403.96,-601.83"/>
<polygon fill="black" stroke="black" points="403.88,-605.34 414.13,-602.65 404.44,-598.36 403.88,-605.34"/>
<text text-anchor="middle" x="286.33" y="-473.56" font-family="Times,serif" font-size="14.00">domain</text>
</g>
<!-- http://purl.org/oseg/ontologies/OTRL#hardwareDescription&#45;&gt;http://schema.org/Text -->
<g id="edge34" class="edge">
<title>http://purl.org/oseg/ontologies/OTRL#hardwareDescription&#45;&gt;http://schema.org/Text</title>
<path fill="none" stroke="black" d="M231.62,-265.05C258.57,-261.76 287.07,-256.66 312.83,-248.76 352.16,-236.69 393.49,-213.69 420.97,-196.72"/>
<polygon fill="black" stroke="black" points="423.12,-199.5 429.73,-191.22 419.4,-193.57 423.12,-199.5"/>
<text text-anchor="middle" x="286.33" y="-264.56" font-family="Times,serif" font-size="14.00">range</text>
</g>
<!-- http://purl.org/oseg/ontologies/OTRL -->
<g id="node11" class="node">
<title>http://purl.org/oseg/ontologies/OTRL</title>
<ellipse fill="none" stroke="#e377c2" cx="120.92" cy="-1348.76" rx="60.62" ry="16.03"/>
<text text-anchor="middle" x="120.92" y="-1345.06" font-family="Times,serif" font-size="14.00">ns1:OTRL</text>
</g>
<!-- http://purl.org/oseg/ontologies/OTRL&#45;&gt;http://www.w3.org/2002/07/owl#Ontology -->
<g id="edge11" class="edge">
<title>http://purl.org/oseg/ontologies/OTRL&#45;&gt;http://www.w3.org/2002/07/owl#Ontology</title>
<path fill="none" stroke="black" d="M181.85,-1348.76C233.16,-1348.76 307.71,-1348.76 365.63,-1348.76"/>
<polygon fill="black" stroke="black" points="365.88,-1352.26 375.88,-1348.76 365.88,-1345.26 365.88,-1352.26"/>
<text text-anchor="middle" x="286.33" y="-1352.56" font-family="Times,serif" font-size="14.00">a</text>
</g>
<!-- http://purl.org/oseg/ontologies/OTRL&#45;&gt;http://purl.org/oseg/ontologies/OTRL -->
<g id="edge29" class="edge">
<title>http://purl.org/oseg/ontologies/OTRL&#45;&gt;http://purl.org/oseg/ontologies/OTRL</title>
<path fill="none" stroke="black" d="M92.88,-1363.55C84.98,-1373.42 94.33,-1383.02 120.92,-1383.02 137.95,-1383.02 147.9,-1379.08 150.79,-1373.65"/>
<polygon fill="black" stroke="black" points="154.18,-1372.76 148.96,-1363.55 147.29,-1374.01 154.18,-1372.76"/>
<text text-anchor="middle" x="120.92" y="-1386.82" font-family="Times,serif" font-size="14.00">owl:versionIRI</text>
</g>
<!-- http://purl.org/oseg/ontologies/OTRL#ODRL&#45;5 -->
<g id="node12" class="node">
<title>http://purl.org/oseg/ontologies/OTRL#ODRL&#45;5</title>
<ellipse fill="none" stroke="#e377c2" cx="120.92" cy="-1228.76" rx="50.82" ry="16.03"/>
<text text-anchor="middle" x="120.92" y="-1225.06" font-family="Times,serif" font-size="14.00">ODRL&#45;5</text>
</g>
<!-- http://purl.org/oseg/ontologies/OTRL#ODRL&#45;5&#45;&gt;http://purl.org/oseg/ontologies/OTRL#ODRL -->
<g id="edge7" class="edge">
<title>http://purl.org/oseg/ontologies/OTRL#ODRL&#45;5&#45;&gt;http://purl.org/oseg/ontologies/OTRL#ODRL</title>
<path fill="none" stroke="black" d="M161.17,-1218.71C203.14,-1207.98 271.66,-1190.54 330.83,-1175.76 356.46,-1169.36 385.15,-1162.3 408.26,-1156.64"/>
<polygon fill="black" stroke="black" points="409.25,-1160 418.13,-1154.22 407.59,-1153.2 409.25,-1160"/>
</g>
<!-- http://purl.org/oseg/ontologies/OTRL#ODRL&#45;5&#45;&gt;http://www.w3.org/2002/07/owl#class -->
<g id="edge6" class="edge">
<title>http://purl.org/oseg/ontologies/OTRL#ODRL&#45;5&#45;&gt;http://www.w3.org/2002/07/owl#class</title>
<path fill="none" stroke="black" d="M168.48,-1234.57C270.51,-1246.37 510.04,-1268.62 576.9,-1226.76 630.52,-1193.19 664.04,-992.22 674.59,-919.23"/>
<polygon fill="black" stroke="black" points="678.09,-919.43 676.03,-909.04 671.16,-918.45 678.09,-919.43"/>
<text text-anchor="middle" x="453.87" y="-1255.56" font-family="Times,serif" font-size="14.00">a</text>
</g>
<!-- http://purl.org/oseg/ontologies/OTRL#ODRL&#45;3 -->
<g id="node13" class="node">
<title>http://purl.org/oseg/ontologies/OTRL#ODRL&#45;3</title>
<ellipse fill="none" stroke="#e377c2" cx="120.92" cy="-1285.76" rx="50.82" ry="16.03"/>
<text text-anchor="middle" x="120.92" y="-1282.06" font-family="Times,serif" font-size="14.00">ODRL&#45;3</text>
</g>
<!-- http://purl.org/oseg/ontologies/OTRL#ODRL&#45;3&#45;&gt;http://purl.org/oseg/ontologies/OTRL#ODRL -->
<g id="edge8" class="edge">
<title>http://purl.org/oseg/ontologies/OTRL#ODRL&#45;3&#45;&gt;http://purl.org/oseg/ontologies/OTRL#ODRL</title>
<path fill="none" stroke="black" d="M166.03,-1278.09C189.31,-1273.03 217.93,-1265.2 241.83,-1253.76 277.11,-1236.87 285.54,-1229.78 312.83,-1201.76 322.64,-1191.69 319.26,-1183.73 330.83,-1175.76 351.8,-1161.31 379.02,-1153.8 402.43,-1149.91"/>
<polygon fill="black" stroke="black" points="403.16,-1153.34 412.54,-1148.4 402.13,-1146.41 403.16,-1153.34"/>
</g>
<!-- http://purl.org/oseg/ontologies/OTRL#ODRL&#45;3&#45;&gt;http://www.w3.org/2002/07/owl#class -->
<g id="edge35" class="edge">
<title>http://purl.org/oseg/ontologies/OTRL#ODRL&#45;3&#45;&gt;http://www.w3.org/2002/07/owl#class</title>
<path fill="none" stroke="black" d="M170.1,-1290.24C273.16,-1298.86 510.94,-1313.38 576.9,-1270.76 637.26,-1231.75 667.02,-999.08 675.54,-919.46"/>
<polygon fill="black" stroke="black" points="679.04,-919.59 676.6,-909.28 672.08,-918.86 679.04,-919.59"/>
<text text-anchor="middle" x="453.87" y="-1304.56" font-family="Times,serif" font-size="14.00">a</text>
</g>
<!-- http://purl.org/oseg/ontologies/OTRL#documentationDescription -->
<g id="node14" class="node">
<title>http://purl.org/oseg/ontologies/OTRL#documentationDescription</title>
<ellipse fill="none" stroke="#e377c2" cx="120.92" cy="-156.76" rx="120.83" ry="16.03"/>
<text text-anchor="middle" x="120.92" y="-153.06" font-family="Times,serif" font-size="14.00">documentationDesc...</text>
</g>
<!-- http://purl.org/oseg/ontologies/OTRL#documentationDescription&#45;&gt;http://www.w3.org/2002/07/owl#DatatypeProperty -->
<g id="edge37" class="edge">
<title>http://purl.org/oseg/ontologies/OTRL#documentationDescription&#45;&gt;http://www.w3.org/2002/07/owl#DatatypeProperty</title>
<path fill="none" stroke="black" d="M217.98,-146.9C226.83,-142.9 235.01,-137.64 241.83,-130.76 269.62,-102.7 229.21,-68.69 259.83,-43.76 302.05,-9.38 367.99,-25.63 410.82,-42.26"/>
<polygon fill="black" stroke="black" points="409.53,-45.52 420.12,-46.02 412.16,-39.03 409.53,-45.52"/>
<text text-anchor="middle" x="286.33" y="-47.56" font-family="Times,serif" font-size="14.00">a</text>
</g>
<!-- http://purl.org/oseg/ontologies/OTRL#documentationDescription&#45;&gt;http://purl.org/oseg/ontologies/OTRL#OTRL -->
<g id="edge31" class="edge">
<title>http://purl.org/oseg/ontologies/OTRL#documentationDescription&#45;&gt;http://purl.org/oseg/ontologies/OTRL#OTRL</title>
<path fill="none" stroke="black" d="M219.63,-166.29C227.99,-170.37 235.61,-175.74 241.83,-182.76 270.26,-214.82 233.56,-340.9 259.83,-374.76 275.17,-394.52 297.42,-374.04 312.83,-393.76 361.81,-456.39 278.68,-511.73 330.83,-571.76 348.75,-592.39 378.35,-600.01 403.9,-602.42"/>
<polygon fill="black" stroke="black" points="403.98,-605.93 414.2,-603.14 404.46,-598.95 403.98,-605.93"/>
<text text-anchor="middle" x="286.33" y="-397.56" font-family="Times,serif" font-size="14.00">domain</text>
</g>
<!-- http://purl.org/oseg/ontologies/OTRL#documentationDescription&#45;&gt;http://schema.org/Text -->
<g id="edge28" class="edge">
<title>http://purl.org/oseg/ontologies/OTRL#documentationDescription&#45;&gt;http://schema.org/Text</title>
<path fill="none" stroke="black" d="M241.41,-155.13C265.09,-155.45 289.76,-156.22 312.83,-157.76 335.52,-159.27 360.16,-162.05 382.36,-164.98"/>
<polygon fill="black" stroke="black" points="381.99,-168.46 392.37,-166.33 382.93,-161.53 381.99,-168.46"/>
<text text-anchor="middle" x="286.33" y="-161.56" font-family="Times,serif" font-size="14.00">range</text>
</g>
<!-- http://purl.org/oseg/ontologies/OTRL#OTRL&#45;1 -->
<g id="node15" class="node">
<title>http://purl.org/oseg/ontologies/OTRL#OTRL&#45;1</title>
<ellipse fill="none" stroke="#e377c2" cx="120.92" cy="-824.76" rx="49.49" ry="16.03"/>
<text text-anchor="middle" x="120.92" y="-821.06" font-family="Times,serif" font-size="14.00">OTRL&#45;1</text>
</g>
<!-- http://purl.org/oseg/ontologies/OTRL#OTRL&#45;1&#45;&gt;http://www.w3.org/2002/07/owl#class -->
<g id="edge12" class="edge">
<title>http://purl.org/oseg/ontologies/OTRL#OTRL&#45;1&#45;&gt;http://www.w3.org/2002/07/owl#class</title>
<path fill="none" stroke="black" d="M170.42,-826.41C254,-829.86 430.28,-839.8 576.9,-865.76 594.26,-868.83 612.99,-873.44 629.56,-877.99"/>
<polygon fill="black" stroke="black" points="629,-881.47 639.57,-880.8 630.89,-874.73 629,-881.47"/>
<text text-anchor="middle" x="453.87" y="-869.56" font-family="Times,serif" font-size="14.00">a</text>
</g>
<!-- http://purl.org/oseg/ontologies/OTRL#OTRL&#45;1&#45;&gt;http://purl.org/oseg/ontologies/OTRL#OTRL -->
<g id="edge16" class="edge">
<title>http://purl.org/oseg/ontologies/OTRL#OTRL&#45;1&#45;&gt;http://purl.org/oseg/ontologies/OTRL#OTRL</title>
<path fill="none" stroke="black" d="M170.56,-823.66C195.28,-820.49 223.82,-812.35 241.83,-792.76 272.68,-759.18 232.04,-727.9 259.83,-691.76 265.01,-685.02 362.42,-641.49 416.84,-617.53"/>
<polygon fill="black" stroke="black" points="418.4,-620.66 426.15,-613.43 415.58,-614.26 418.4,-620.66"/>
</g>
<!-- http://purl.org/oseg/ontologies/OTRL#OTRL&#45;2 -->
<g id="node16" class="node">
<title>http://purl.org/oseg/ontologies/OTRL#OTRL&#45;2</title>
<ellipse fill="none" stroke="#e377c2" cx="120.92" cy="-767.76" rx="49.49" ry="16.03"/>
<text text-anchor="middle" x="120.92" y="-764.06" font-family="Times,serif" font-size="14.00">OTRL&#45;2</text>
</g>
<!-- http://purl.org/oseg/ontologies/OTRL#OTRL&#45;2&#45;&gt;http://www.w3.org/2002/07/owl#class -->
<g id="edge39" class="edge">
<title>http://purl.org/oseg/ontologies/OTRL#OTRL&#45;2&#45;&gt;http://www.w3.org/2002/07/owl#class</title>
<path fill="none" stroke="black" d="M170.12,-769.87C271.54,-774.84 503.65,-789.06 576.9,-817.76 606.98,-829.54 636.06,-852.68 655.28,-870.16"/>
<polygon fill="black" stroke="black" points="652.93,-872.76 662.64,-877.02 657.71,-867.64 652.93,-872.76"/>
<text text-anchor="middle" x="453.87" y="-821.56" font-family="Times,serif" font-size="14.00">a</text>
</g>
<!-- http://purl.org/oseg/ontologies/OTRL#OTRL&#45;2&#45;&gt;http://purl.org/oseg/ontologies/OTRL#OTRL -->
<g id="edge44" class="edge">
<title>http://purl.org/oseg/ontologies/OTRL#OTRL&#45;2&#45;&gt;http://purl.org/oseg/ontologies/OTRL#OTRL</title>
<path fill="none" stroke="black" d="M169.04,-763.92C193.78,-759.53 222.82,-750.25 241.83,-730.76 262.46,-709.6 239.47,-688.17 259.83,-666.76 280.46,-645.06 358.26,-623.62 408.57,-611.6"/>
<polygon fill="black" stroke="black" points="409.61,-614.95 418.55,-609.25 408.01,-608.14 409.61,-614.95"/>
</g>
<!-- http://purl.org/oseg/ontologies/OTRL#exitCriteria -->
<g id="node17" class="node">
<title>http://purl.org/oseg/ontologies/OTRL#exitCriteria</title>
<ellipse fill="none" stroke="#e377c2" cx="120.92" cy="-207.76" rx="70.01" ry="16.03"/>
<text text-anchor="middle" x="120.92" y="-204.06" font-family="Times,serif" font-size="14.00">exitCriteria</text>
</g>
<!-- http://purl.org/oseg/ontologies/OTRL#exitCriteria&#45;&gt;http://www.w3.org/2002/07/owl#DatatypeProperty -->
<g id="edge14" class="edge">
<title>http://purl.org/oseg/ontologies/OTRL#exitCriteria&#45;&gt;http://www.w3.org/2002/07/owl#DatatypeProperty</title>
<path fill="none" stroke="black" d="M190.79,-205.96C209.42,-202.25 228.18,-195.07 241.83,-181.76 266.06,-158.12 235.84,-131.63 259.83,-107.76 278.67,-89.01 303.68,-77.38 329.44,-70.29"/>
<polygon fill="black" stroke="black" points="330.5,-73.63 339.34,-67.78 328.78,-66.84 330.5,-73.63"/>
<text text-anchor="middle" x="286.33" y="-111.56" font-family="Times,serif" font-size="14.00">a</text>
</g>
<!-- http://purl.org/oseg/ontologies/OTRL#exitCriteria&#45;&gt;http://purl.org/oseg/ontologies/OTRL#OTRL -->
<g id="edge23" class="edge">
<title>http://purl.org/oseg/ontologies/OTRL#exitCriteria&#45;&gt;http://purl.org/oseg/ontologies/OTRL#OTRL</title>
<path fill="none" stroke="black" d="M185.83,-214.06C206.68,-219.36 228,-228.85 241.83,-245.76 289.1,-303.54 213.65,-354.1 259.83,-412.76 275.31,-432.42 297.15,-412.26 312.83,-431.76 352.14,-480.65 289.05,-524.96 330.83,-571.76 348.96,-592.07 378.42,-599.71 403.85,-602.2"/>
<polygon fill="black" stroke="black" points="403.86,-605.71 414.09,-602.96 404.38,-598.73 403.86,-605.71"/>
<text text-anchor="middle" x="286.33" y="-435.56" font-family="Times,serif" font-size="14.00">domain</text>
</g>
<!-- http://purl.org/oseg/ontologies/OTRL#exitCriteria&#45;&gt;http://schema.org/Text -->
<g id="edge19" class="edge">
<title>http://purl.org/oseg/ontologies/OTRL#exitCriteria&#45;&gt;http://schema.org/Text</title>
<path fill="none" stroke="black" d="M185.73,-201.59C239.68,-196.37 317.18,-188.88 374.82,-183.3"/>
<polygon fill="black" stroke="black" points="375.37,-186.77 384.98,-182.32 374.69,-179.8 375.37,-186.77"/>
<text text-anchor="middle" x="286.33" y="-197.56" font-family="Times,serif" font-size="14.00">range</text>
</g>
<!-- http://purl.org/oseg/ontologies/OTRL#ODRL&#45;1 -->
<g id="node18" class="node">
<title>http://purl.org/oseg/ontologies/OTRL#ODRL&#45;1</title>
<ellipse fill="none" stroke="#e377c2" cx="120.92" cy="-1166.76" rx="50.82" ry="16.03"/>
<text text-anchor="middle" x="120.92" y="-1163.06" font-family="Times,serif" font-size="14.00">ODRL&#45;1</text>
</g>
<!-- http://purl.org/oseg/ontologies/OTRL#ODRL&#45;1&#45;&gt;http://purl.org/oseg/ontologies/OTRL#ODRL -->
<g id="edge40" class="edge">
<title>http://purl.org/oseg/ontologies/OTRL#ODRL&#45;1&#45;&gt;http://purl.org/oseg/ontologies/OTRL#ODRL</title>
<path fill="none" stroke="black" d="M171.1,-1163.64C233.19,-1159.7 339.44,-1152.95 402.21,-1148.97"/>
<polygon fill="black" stroke="black" points="402.52,-1152.46 412.28,-1148.33 402.08,-1145.47 402.52,-1152.46"/>
</g>
<!-- http://purl.org/oseg/ontologies/OTRL#ODRL&#45;1&#45;&gt;http://www.w3.org/2002/07/owl#class -->
<g id="edge15" class="edge">
<title>http://purl.org/oseg/ontologies/OTRL#ODRL&#45;1&#45;&gt;http://www.w3.org/2002/07/owl#class</title>
<path fill="none" stroke="black" d="M158.86,-1177.66C239.64,-1199.32 436,-1240.01 576.9,-1170.76 669.56,-1125.21 679.15,-979.82 678.99,-919.44"/>
<polygon fill="black" stroke="black" points="682.49,-919.16 678.87,-909.2 675.49,-919.24 682.49,-919.16"/>
<text text-anchor="middle" x="453.87" y="-1213.56" font-family="Times,serif" font-size="14.00">a</text>
</g>
<!-- http://purl.org/oseg/ontologies/OTRL#OTRL&#45;5 -->
<g id="node19" class="node">
<title>http://purl.org/oseg/ontologies/OTRL#OTRL&#45;5</title>
<ellipse fill="none" stroke="#e377c2" cx="120.92" cy="-631.76" rx="49.49" ry="16.03"/>
<text text-anchor="middle" x="120.92" y="-628.06" font-family="Times,serif" font-size="14.00">OTRL&#45;5</text>
</g>
<!-- http://purl.org/oseg/ontologies/OTRL#OTRL&#45;5&#45;&gt;http://www.w3.org/2002/07/owl#class -->
<g id="edge17" class="edge">
<title>http://purl.org/oseg/ontologies/OTRL#OTRL&#45;5&#45;&gt;http://www.w3.org/2002/07/owl#class</title>
<path fill="none" stroke="black" d="M169.47,-635.11C272.38,-643.18 511.72,-666.49 576.9,-712.76 630.45,-750.76 659.22,-826.51 671.25,-866.55"/>
<polygon fill="black" stroke="black" points="667.95,-867.73 674.08,-876.37 674.68,-865.8 667.95,-867.73"/>
<text text-anchor="middle" x="453.87" y="-716.56" font-family="Times,serif" font-size="14.00">a</text>
</g>
<!-- http://purl.org/oseg/ontologies/OTRL#OTRL&#45;5&#45;&gt;http://purl.org/oseg/ontologies/OTRL#OTRL -->
<g id="edge10" class="edge">
<title>http://purl.org/oseg/ontologies/OTRL#OTRL&#45;5&#45;&gt;http://purl.org/oseg/ontologies/OTRL#OTRL</title>
<path fill="none" stroke="black" d="M167.85,-626.4C194.66,-623.37 229.14,-619.62 259.83,-616.76 309.14,-612.16 365.63,-607.89 404.71,-605.09"/>
<polygon fill="black" stroke="black" points="405.02,-608.57 414.75,-604.37 404.52,-601.59 405.02,-608.57"/>
</g>
<!-- http://purl.org/oseg/ontologies/OTRL#ODRL&#45;4 -->
<g id="node20" class="node">
<title>http://purl.org/oseg/ontologies/OTRL#ODRL&#45;4</title>
<ellipse fill="none" stroke="#e377c2" cx="120.92" cy="-1055.76" rx="50.82" ry="16.03"/>
<text text-anchor="middle" x="120.92" y="-1052.06" font-family="Times,serif" font-size="14.00">ODRL&#45;4</text>
</g>
<!-- http://purl.org/oseg/ontologies/OTRL#ODRL&#45;4&#45;&gt;http://purl.org/oseg/ontologies/OTRL#ODRL -->
<g id="edge33" class="edge">
<title>http://purl.org/oseg/ontologies/OTRL#ODRL&#45;4&#45;&gt;http://purl.org/oseg/ontologies/OTRL#ODRL</title>
<path fill="none" stroke="black" d="M165.61,-1063.58C188.52,-1068.09 216.92,-1074.34 241.83,-1081.76 282.42,-1093.83 290.42,-1103.12 330.83,-1115.76 355.68,-1123.53 383.88,-1130.57 406.91,-1135.88"/>
<polygon fill="black" stroke="black" points="406.24,-1139.31 416.77,-1138.12 407.79,-1132.49 406.24,-1139.31"/>
</g>
<!-- http://purl.org/oseg/ontologies/OTRL#ODRL&#45;4&#45;&gt;http://www.w3.org/2002/07/owl#class -->
<g id="edge42" class="edge">
<title>http://purl.org/oseg/ontologies/OTRL#ODRL&#45;4&#45;&gt;http://www.w3.org/2002/07/owl#class</title>
<path fill="none" stroke="black" d="M171.8,-1054.87C274.82,-1052.32 507.25,-1042.65 576.9,-1006.76 615.85,-986.69 646.76,-944.93 663.76,-917.91"/>
<polygon fill="black" stroke="black" points="666.96,-919.38 669.18,-909.02 660.98,-915.74 666.96,-919.38"/>
<text text-anchor="middle" x="453.87" y="-1051.56" font-family="Times,serif" font-size="14.00">a</text>
</g>
<!-- http://purl.org/oseg/ontologies/OTRL#ODRL&#45;2 -->
<g id="node21" class="node">
<title>http://purl.org/oseg/ontologies/OTRL#ODRL&#45;2</title>
<ellipse fill="none" stroke="#e377c2" cx="120.92" cy="-994.76" rx="50.82" ry="16.03"/>
<text text-anchor="middle" x="120.92" y="-991.06" font-family="Times,serif" font-size="14.00">ODRL&#45;2</text>
</g>
<!-- http://purl.org/oseg/ontologies/OTRL#ODRL&#45;2&#45;&gt;http://purl.org/oseg/ontologies/OTRL#ODRL -->
<g id="edge41" class="edge">
<title>http://purl.org/oseg/ontologies/OTRL#ODRL&#45;2&#45;&gt;http://purl.org/oseg/ontologies/OTRL#ODRL</title>
<path fill="none" stroke="black" d="M164.12,-1003.5C187.76,-1009.34 217.33,-1018.28 241.83,-1030.76 277.16,-1048.74 286.59,-1055.04 312.83,-1084.76 323.38,-1096.7 318.08,-1106.21 330.83,-1115.76 351.29,-1131.08 378.58,-1138.66 402.17,-1142.38"/>
<polygon fill="black" stroke="black" points="401.98,-1145.89 412.36,-1143.79 402.94,-1138.95 401.98,-1145.89"/>
</g>
<!-- http://purl.org/oseg/ontologies/OTRL#ODRL&#45;2&#45;&gt;http://www.w3.org/2002/07/owl#class -->
<g id="edge18" class="edge">
<title>http://purl.org/oseg/ontologies/OTRL#ODRL&#45;2&#45;&gt;http://www.w3.org/2002/07/owl#class</title>
<path fill="none" stroke="black" d="M171.9,-995.14C256.94,-994.51 434.4,-987.58 576.9,-944.76 601.41,-937.39 627.04,-924.17 646.38,-912.91"/>
<polygon fill="black" stroke="black" points="648.27,-915.86 655.07,-907.73 644.69,-909.84 648.27,-915.86"/>
<text text-anchor="middle" x="453.87" y="-991.56" font-family="Times,serif" font-size="14.00">a</text>
</g>
<!-- http://purl.org/oseg/ontologies/OTRL#OTRL&#45;3 -->
<g id="node22" class="node">
<title>http://purl.org/oseg/ontologies/OTRL#OTRL&#45;3</title>
<ellipse fill="none" stroke="#e377c2" cx="120.92" cy="-564.76" rx="49.49" ry="16.03"/>
<text text-anchor="middle" x="120.92" y="-561.06" font-family="Times,serif" font-size="14.00">OTRL&#45;3</text>
</g>
<!-- http://purl.org/oseg/ontologies/OTRL#OTRL&#45;3&#45;&gt;http://www.w3.org/2002/07/owl#class -->
<g id="edge43" class="edge">
<title>http://purl.org/oseg/ontologies/OTRL#OTRL&#45;3&#45;&gt;http://www.w3.org/2002/07/owl#class</title>
<path fill="none" stroke="black" d="M154.27,-552.68C234.82,-524.89 447.16,-465.85 576.9,-561.76 627.24,-598.96 662.71,-794.78 674.18,-866.45"/>
<polygon fill="black" stroke="black" points="670.75,-867.13 675.76,-876.46 677.66,-866.04 670.75,-867.13"/>
<text text-anchor="middle" x="453.87" y="-565.56" font-family="Times,serif" font-size="14.00">a</text>
</g>
<!-- http://purl.org/oseg/ontologies/OTRL#OTRL&#45;3&#45;&gt;http://purl.org/oseg/ontologies/OTRL#OTRL -->
<g id="edge2" class="edge">
<title>http://purl.org/oseg/ontologies/OTRL#OTRL&#45;3&#45;&gt;http://purl.org/oseg/ontologies/OTRL#OTRL</title>
<path fill="none" stroke="black" d="M167.93,-569.9C230.52,-576.9 341.92,-589.35 405.3,-596.44"/>
<polygon fill="black" stroke="black" points="405.1,-599.94 415.43,-597.57 405.88,-592.98 405.1,-599.94"/>
</g>
<!-- http://purl.org/oseg/ontologies/OTRL#OTRL&#45;6 -->
<g id="node23" class="node">
<title>http://purl.org/oseg/ontologies/OTRL#OTRL&#45;6</title>
<ellipse fill="none" stroke="#e377c2" cx="120.92" cy="-481.76" rx="49.49" ry="16.03"/>
<text text-anchor="middle" x="120.92" y="-478.06" font-family="Times,serif" font-size="14.00">OTRL&#45;6</text>
</g>
<!-- http://purl.org/oseg/ontologies/OTRL#OTRL&#45;6&#45;&gt;http://www.w3.org/2002/07/owl#class -->
<g id="edge45" class="edge">
<title>http://purl.org/oseg/ontologies/OTRL#OTRL&#45;6&#45;&gt;http://www.w3.org/2002/07/owl#class</title>
<path fill="none" stroke="black" d="M148.5,-468.05C175.56,-452.82 216.98,-425.83 241.83,-391.76 256.24,-372 239.91,-353.94 259.83,-339.76 314.29,-300.98 484.97,-374.69 576.9,-490.76 668.95,-606.97 678.44,-796.42 678.63,-866.02"/>
<polygon fill="black" stroke="black" points="675.13,-866.12 678.6,-876.13 682.13,-866.15 675.13,-866.12"/>
<text text-anchor="middle" x="453.87" y="-494.56" font-family="Times,serif" font-size="14.00">a</text>
</g>
<!-- http://purl.org/oseg/ontologies/OTRL#OTRL&#45;6&#45;&gt;http://purl.org/oseg/ontologies/OTRL#OTRL -->
<g id="edge36" class="edge">
<title>http://purl.org/oseg/ontologies/OTRL#OTRL&#45;6&#45;&gt;http://purl.org/oseg/ontologies/OTRL#OTRL</title>
<path fill="none" stroke="black" d="M149.06,-495.18C188.38,-514.22 263.82,-549.26 330.83,-571.76 355.96,-580.19 384.73,-587.38 408.03,-592.6"/>
<polygon fill="black" stroke="black" points="407.46,-596.06 417.98,-594.79 408.96,-589.23 407.46,-596.06"/>
</g>
<!-- http://purl.org/oseg/ontologies/OTRL#softwareDescription -->
<g id="node24" class="node">
<title>http://purl.org/oseg/ontologies/OTRL#softwareDescription</title>
<ellipse fill="none" stroke="#e377c2" cx="120.92" cy="-105.76" rx="113.69" ry="16.03"/>
<text text-anchor="middle" x="120.92" y="-102.06" font-family="Times,serif" font-size="14.00">softwareDescription</text>
</g>
<!-- http://purl.org/oseg/ontologies/OTRL#softwareDescription&#45;&gt;http://www.w3.org/2002/07/owl#DatatypeProperty -->
<g id="edge20" class="edge">
<title>http://purl.org/oseg/ontologies/OTRL#softwareDescription&#45;&gt;http://www.w3.org/2002/07/owl#DatatypeProperty</title>
<path fill="none" stroke="black" d="M137.38,-89.29C161.05,-65.42 208.91,-22.27 259.83,-5.76 315.91,12.44 382.05,-17.78 420.54,-40.43"/>
<polygon fill="black" stroke="black" points="418.88,-43.51 429.25,-45.7 422.51,-37.52 418.88,-43.51"/>
<text text-anchor="middle" x="286.33" y="-9.56" font-family="Times,serif" font-size="14.00">a</text>
</g>
<!-- http://purl.org/oseg/ontologies/OTRL#softwareDescription&#45;&gt;http://purl.org/oseg/ontologies/OTRL#OTRL -->
<g id="edge27" class="edge">
<title>http://purl.org/oseg/ontologies/OTRL#softwareDescription&#45;&gt;http://purl.org/oseg/ontologies/OTRL#OTRL</title>
<path fill="none" stroke="black" d="M217.41,-114.52C226.6,-118.68 235.01,-124.28 241.83,-131.76 264.15,-156.24 248,-248.81 259.83,-279.76 274.53,-318.22 298.86,-317.02 312.83,-355.76 329.17,-401.07 299.56,-535.12 330.83,-571.76 348.71,-592.71 378.63,-600.29 404.37,-602.6"/>
<polygon fill="black" stroke="black" points="404.16,-606.09 414.36,-603.25 404.62,-599.1 404.16,-606.09"/>
<text text-anchor="middle" x="286.33" y="-359.56" font-family="Times,serif" font-size="14.00">domain</text>
</g>
<!-- http://purl.org/oseg/ontologies/OTRL#softwareDescription&#45;&gt;http://schema.org/Text -->
<g id="edge25" class="edge">
<title>http://purl.org/oseg/ontologies/OTRL#softwareDescription&#45;&gt;http://schema.org/Text</title>
<path fill="none" stroke="black" d="M203.58,-116.98C237.53,-122.18 277.25,-128.94 312.83,-136.76 342.01,-143.17 374.15,-151.99 400.27,-159.62"/>
<polygon fill="black" stroke="black" points="399.38,-163.01 409.96,-162.48 401.36,-156.29 399.38,-163.01"/>
<text text-anchor="middle" x="286.33" y="-140.56" font-family="Times,serif" font-size="14.00">range</text>
</g>
<!-- http://purl.org/oseg/ontologies/OTRL#ODRL&#45;0 -->
<g id="node25" class="node">
<title>http://purl.org/oseg/ontologies/OTRL#ODRL&#45;0</title>
<ellipse fill="none" stroke="#e377c2" cx="120.92" cy="-1106.76" rx="50.82" ry="16.03"/>
<text text-anchor="middle" x="120.92" y="-1103.06" font-family="Times,serif" font-size="14.00">ODRL&#45;0</text>
</g>
<!-- http://purl.org/oseg/ontologies/OTRL#ODRL&#45;0&#45;&gt;http://purl.org/oseg/ontologies/OTRL#ODRL -->
<g id="edge9" class="edge">
<title>http://purl.org/oseg/ontologies/OTRL#ODRL&#45;0&#45;&gt;http://purl.org/oseg/ontologies/OTRL#ODRL</title>
<path fill="none" stroke="black" d="M168.98,-1112.3C231.19,-1119.63 340.29,-1132.49 403.59,-1139.95"/>
<polygon fill="black" stroke="black" points="403.37,-1143.45 413.72,-1141.14 404.19,-1136.5 403.37,-1143.45"/>
</g>
<!-- http://purl.org/oseg/ontologies/OTRL#ODRL&#45;0&#45;&gt;http://www.w3.org/2002/07/owl#class -->
<g id="edge21" class="edge">
<title>http://purl.org/oseg/ontologies/OTRL#ODRL&#45;0&#45;&gt;http://www.w3.org/2002/07/owl#class</title>
<path fill="none" stroke="black" d="M171.65,-1104.95C282.61,-1100.56 543.31,-1088.09 576.9,-1066.76 630.94,-1032.45 659.49,-958.18 671.37,-918.68"/>
<polygon fill="black" stroke="black" points="674.76,-919.56 674.16,-908.98 668.03,-917.62 674.76,-919.56"/>
<text text-anchor="middle" x="453.87" y="-1101.56" font-family="Times,serif" font-size="14.00">a</text>
</g>
<!-- http://purl.org/oseg/ontologies/OTRL#OTRL&#45;7 -->
<g id="node26" class="node">
<title>http://purl.org/oseg/ontologies/OTRL#OTRL&#45;7</title>
<ellipse fill="none" stroke="#e377c2" cx="120.92" cy="-366.76" rx="49.49" ry="16.03"/>
<text text-anchor="middle" x="120.92" y="-363.06" font-family="Times,serif" font-size="14.00">OTRL&#45;7</text>
</g>
<!-- http://purl.org/oseg/ontologies/OTRL#OTRL&#45;7&#45;&gt;http://www.w3.org/2002/07/owl#class -->
<g id="edge46" class="edge">
<title>http://purl.org/oseg/ontologies/OTRL#OTRL&#45;7&#45;&gt;http://www.w3.org/2002/07/owl#class</title>
<path fill="none" stroke="black" d="M146.71,-352.7C221.58,-312.32 448.13,-205.55 576.9,-313.76 662.93,-386.04 675.9,-762.44 677.84,-866.23"/>
<polygon fill="black" stroke="black" points="674.34,-866.52 678.01,-876.46 681.34,-866.41 674.34,-866.52"/>
<text text-anchor="middle" x="453.87" y="-317.56" font-family="Times,serif" font-size="14.00">a</text>
</g>
<!-- http://purl.org/oseg/ontologies/OTRL#OTRL&#45;7&#45;&gt;http://purl.org/oseg/ontologies/OTRL#OTRL -->
<g id="edge4" class="edge">
<title>http://purl.org/oseg/ontologies/OTRL#OTRL&#45;7&#45;&gt;http://purl.org/oseg/ontologies/OTRL#OTRL</title>
<path fill="none" stroke="black" d="M146.34,-380.83C172.39,-396.75 213.69,-424.65 241.83,-456.76 252.59,-469.03 249.97,-475.76 259.83,-488.76 279.96,-515.3 292.33,-515.5 312.83,-541.76 322.4,-554.01 318.32,-562.52 330.83,-571.76 352.03,-587.4 380.38,-594.96 404.42,-598.58"/>
<polygon fill="black" stroke="black" points="404.05,-602.06 414.43,-599.91 404.97,-595.12 404.05,-602.06"/>
</g>
</g>
</svg>
