<?xml version="1.0" encoding="UTF-8" standalone="no"?>
<!DOCTYPE svg PUBLIC "-//W3C//DTD SVG 1.1//EN"
 "http://www.w3.org/Graphics/SVG/1.1/DTD/svg11.dtd">
<!-- Generated by graphviz version 2.43.0 (0)
 -->
<!-- Title: G Pages: 1 -->
<svg width="2065pt" height="987pt"
 viewBox="0.00 0.00 2064.64 986.53" xmlns="http://www.w3.org/2000/svg" xmlns:xlink="http://www.w3.org/1999/xlink">
<g id="graph0" class="graph" transform="scale(1 1) rotate(0) translate(4 982.53)">
<title>G</title>
<polygon fill="white" stroke="transparent" points="-4,4 -4,-982.53 2060.64,-982.53 2060.64,4 -4,4"/>
<!-- https://w3id.org/oseg/ont/otrl#ODRL3 -->
<g id="node1" class="node">
<title>https://w3id.org/oseg/ont/otrl#ODRL3</title>
<ellipse fill="none" stroke="#e377c2" cx="1412.36" cy="-811.26" rx="69.09" ry="16.03"/>
<text text-anchor="middle" x="1412.36" y="-807.56" font-family="Times,serif" font-size="14.00">otrl:ODRL3</text>
</g>
<!-- https://w3id.org/oseg/ont/otrl#ODRL -->
<g id="node9" class="node">
<title>https://w3id.org/oseg/ont/otrl#ODRL</title>
<ellipse fill="none" stroke="#e377c2" cx="1933.6" cy="-719.26" rx="62.87" ry="16.03"/>
<text text-anchor="middle" x="1933.6" y="-715.56" font-family="Times,serif" font-size="14.00">otrl:ODRL</text>
</g>
<!-- https://w3id.org/oseg/ont/otrl#ODRL3&#45;&gt;https://w3id.org/oseg/ont/otrl#ODRL -->
<g id="edge14" class="edge">
<title>https://w3id.org/oseg/ont/otrl#ODRL3&#45;&gt;https://w3id.org/oseg/ont/otrl#ODRL</title>
<path fill="none" stroke="black" d="M1473.76,-803.66C1548.86,-793.8 1680.78,-775.12 1792.57,-752.26 1820.87,-746.48 1852.18,-739.18 1878,-732.93"/>
<polygon fill="black" stroke="black" points="1879.09,-736.26 1887.98,-730.49 1877.43,-729.46 1879.09,-736.26"/>
</g>
<!-- https://w3id.org/oseg/ont/otrl#OTRL1 -->
<g id="node2" class="node">
<title>https://w3id.org/oseg/ont/otrl#OTRL1</title>
<ellipse fill="none" stroke="#e377c2" cx="1412.36" cy="-377.26" rx="67.35" ry="16.03"/>
<text text-anchor="middle" x="1412.36" y="-373.56" font-family="Times,serif" font-size="14.00">otrl:OTRL1</text>
</g>
<!-- https://w3id.org/oseg/ont/otrl#OTRL -->
<g id="node10" class="node">
<title>https://w3id.org/oseg/ont/otrl#OTRL</title>
<ellipse fill="none" stroke="#e377c2" cx="1933.6" cy="-266.26" rx="60.62" ry="16.03"/>
<text text-anchor="middle" x="1933.6" y="-262.56" font-family="Times,serif" font-size="14.00">otrl:OTRL</text>
</g>
<!-- https://w3id.org/oseg/ont/otrl#OTRL1&#45;&gt;https://w3id.org/oseg/ont/otrl#OTRL -->
<g id="edge49" class="edge">
<title>https://w3id.org/oseg/ont/otrl#OTRL1&#45;&gt;https://w3id.org/oseg/ont/otrl#OTRL</title>
<path fill="none" stroke="black" d="M1474.57,-371.07C1550.2,-362.54 1682.38,-344.8 1792.57,-315.26 1825.47,-306.44 1861.75,-293.66 1889.14,-283.36"/>
<polygon fill="black" stroke="black" points="1890.7,-286.51 1898.81,-279.69 1888.21,-279.97 1890.7,-286.51"/>
</g>
<!-- https://w3id.org/oseg/ont/otrl#OTRL6 -->
<g id="node3" class="node">
<title>https://w3id.org/oseg/ont/otrl#OTRL6</title>
<ellipse fill="none" stroke="#e377c2" cx="1412.36" cy="-326.26" rx="67.35" ry="16.03"/>
<text text-anchor="middle" x="1412.36" y="-322.56" font-family="Times,serif" font-size="14.00">otrl:OTRL6</text>
</g>
<!-- https://w3id.org/oseg/ont/otrl#OTRL6&#45;&gt;https://w3id.org/oseg/ont/otrl#OTRL -->
<g id="edge24" class="edge">
<title>https://w3id.org/oseg/ont/otrl#OTRL6&#45;&gt;https://w3id.org/oseg/ont/otrl#OTRL</title>
<path fill="none" stroke="black" d="M1477.28,-322.02C1552.81,-316.63 1682.17,-306.19 1792.57,-291.26 1819.56,-287.61 1849.29,-282.47 1874.39,-277.79"/>
<polygon fill="black" stroke="black" points="1875.3,-281.18 1884.48,-275.89 1874,-274.3 1875.3,-281.18"/>
</g>
<!-- https://w3id.org/oseg/ont/otrl#ODRL3Star -->
<g id="node4" class="node">
<title>https://w3id.org/oseg/ont/otrl#ODRL3Star</title>
<ellipse fill="none" stroke="#e377c2" cx="1412.36" cy="-760.26" rx="90.52" ry="16.03"/>
<text text-anchor="middle" x="1412.36" y="-756.56" font-family="Times,serif" font-size="14.00">otrl:ODRL3Star</text>
</g>
<!-- https://w3id.org/oseg/ont/otrl#ODRL3Star&#45;&gt;https://w3id.org/oseg/ont/otrl#ODRL -->
<g id="edge50" class="edge">
<title>https://w3id.org/oseg/ont/otrl#ODRL3Star&#45;&gt;https://w3id.org/oseg/ont/otrl#ODRL</title>
<path fill="none" stroke="black" d="M1495.63,-753.77C1597.17,-745.75 1768.02,-732.26 1863.23,-724.74"/>
<polygon fill="black" stroke="black" points="1863.63,-728.22 1873.32,-723.94 1863.08,-721.24 1863.63,-728.22"/>
</g>
<!-- https://w3id.org/oseg/ont/otrl#ODRL2 -->
<g id="node5" class="node">
<title>https://w3id.org/oseg/ont/otrl#ODRL2</title>
<ellipse fill="none" stroke="#e377c2" cx="1412.36" cy="-709.26" rx="69.09" ry="16.03"/>
<text text-anchor="middle" x="1412.36" y="-705.56" font-family="Times,serif" font-size="14.00">otrl:ODRL2</text>
</g>
<!-- https://w3id.org/oseg/ont/otrl#ODRL2&#45;&gt;https://w3id.org/oseg/ont/otrl#ODRL -->
<g id="edge16" class="edge">
<title>https://w3id.org/oseg/ont/otrl#ODRL2&#45;&gt;https://w3id.org/oseg/ont/otrl#ODRL</title>
<path fill="none" stroke="black" d="M1481.5,-710.58C1579.66,-712.47 1760.04,-715.94 1860.4,-717.87"/>
<polygon fill="black" stroke="black" points="1860.39,-721.37 1870.45,-718.07 1860.52,-714.37 1860.39,-721.37"/>
</g>
<!-- https://w3id.org/oseg/ont/otrl#OTRL2 -->
<g id="node6" class="node">
<title>https://w3id.org/oseg/ont/otrl#OTRL2</title>
<ellipse fill="none" stroke="#e377c2" cx="1412.36" cy="-224.26" rx="67.35" ry="16.03"/>
<text text-anchor="middle" x="1412.36" y="-220.56" font-family="Times,serif" font-size="14.00">otrl:OTRL2</text>
</g>
<!-- https://w3id.org/oseg/ont/otrl#OTRL2&#45;&gt;https://w3id.org/oseg/ont/otrl#OTRL -->
<g id="edge25" class="edge">
<title>https://w3id.org/oseg/ont/otrl#OTRL2&#45;&gt;https://w3id.org/oseg/ont/otrl#OTRL</title>
<path fill="none" stroke="black" d="M1479.64,-225.32C1555.47,-227.06 1683.27,-231.59 1792.57,-243.26 1819.37,-246.13 1848.85,-250.74 1873.81,-255.09"/>
<polygon fill="black" stroke="black" points="1873.4,-258.58 1883.86,-256.87 1874.62,-251.68 1873.4,-258.58"/>
</g>
<!-- http://www.w3.org/2002/07/owl#Ontology -->
<g id="node7" class="node">
<title>http://www.w3.org/2002/07/owl#Ontology</title>
<ellipse fill="none" stroke="#1f77b4" cx="807.65" cy="-962.26" rx="77.56" ry="16.03"/>
<text text-anchor="middle" x="807.65" y="-958.56" font-family="Times,serif" font-size="14.00">owl:Ontology</text>
</g>
<!-- http://www.w3.org/2002/07/owl#DatatypeProperty -->
<g id="node8" class="node">
<title>http://www.w3.org/2002/07/owl#DatatypeProperty</title>
<ellipse fill="none" stroke="#1f77b4" cx="1933.6" cy="-537.26" rx="123.07" ry="16.03"/>
<text text-anchor="middle" x="1933.6" y="-533.56" font-family="Times,serif" font-size="14.00">owl:DatatypeProperty</text>
</g>
<!-- https://w3id.org/oseg/ont/otrl#ODRL1 -->
<g id="node11" class="node">
<title>https://w3id.org/oseg/ont/otrl#ODRL1</title>
<ellipse fill="none" stroke="#e377c2" cx="1412.36" cy="-646.26" rx="69.09" ry="16.03"/>
<text text-anchor="middle" x="1412.36" y="-642.56" font-family="Times,serif" font-size="14.00">otrl:ODRL1</text>
</g>
<!-- https://w3id.org/oseg/ont/otrl#ODRL1&#45;&gt;https://w3id.org/oseg/ont/otrl#ODRL -->
<g id="edge21" class="edge">
<title>https://w3id.org/oseg/ont/otrl#ODRL1&#45;&gt;https://w3id.org/oseg/ont/otrl#ODRL</title>
<path fill="none" stroke="black" d="M1468.67,-655.93C1510.36,-663.07 1568.97,-672.81 1620.57,-680.26 1704.76,-692.43 1802.07,-704.23 1865.34,-711.61"/>
<polygon fill="black" stroke="black" points="1865.24,-715.12 1875.58,-712.8 1866.05,-708.17 1865.24,-715.12"/>
</g>
<!-- https://w3id.org/oseg/ont/otrl#ODRL4 -->
<g id="node12" class="node">
<title>https://w3id.org/oseg/ont/otrl#ODRL4</title>
<ellipse fill="none" stroke="#e377c2" cx="1412.36" cy="-576.26" rx="69.09" ry="16.03"/>
<text text-anchor="middle" x="1412.36" y="-572.56" font-family="Times,serif" font-size="14.00">otrl:ODRL4</text>
</g>
<!-- https://w3id.org/oseg/ont/otrl#ODRL4&#45;&gt;https://w3id.org/oseg/ont/otrl#ODRL -->
<g id="edge32" class="edge">
<title>https://w3id.org/oseg/ont/otrl#ODRL4&#45;&gt;https://w3id.org/oseg/ont/otrl#ODRL</title>
<path fill="none" stroke="black" d="M1480.97,-578.76C1519.98,-583.3 1567.99,-594.5 1602.57,-621.26 1616.09,-631.73 1606.68,-645.29 1620.57,-655.26 1683.48,-700.43 1716.76,-667.38 1792.57,-683.26 1821.98,-689.42 1854.5,-697.7 1880.8,-704.76"/>
<polygon fill="black" stroke="black" points="1879.99,-708.16 1890.55,-707.4 1881.81,-701.4 1879.99,-708.16"/>
</g>
<!-- https://w3id.org/oseg/ont/otrl#OTRL3 -->
<g id="node13" class="node">
<title>https://w3id.org/oseg/ont/otrl#OTRL3</title>
<ellipse fill="none" stroke="#e377c2" cx="1412.36" cy="-173.26" rx="67.35" ry="16.03"/>
<text text-anchor="middle" x="1412.36" y="-169.56" font-family="Times,serif" font-size="14.00">otrl:OTRL3</text>
</g>
<!-- https://w3id.org/oseg/ont/otrl#OTRL3&#45;&gt;https://w3id.org/oseg/ont/otrl#OTRL -->
<g id="edge26" class="edge">
<title>https://w3id.org/oseg/ont/otrl#OTRL3&#45;&gt;https://w3id.org/oseg/ont/otrl#OTRL</title>
<path fill="none" stroke="black" d="M1474.88,-179.44C1550.27,-187.6 1681.65,-203.74 1792.57,-227.26 1823.11,-233.74 1856.83,-243.06 1883.53,-250.97"/>
<polygon fill="black" stroke="black" points="1882.81,-254.41 1893.39,-253.92 1884.82,-247.7 1882.81,-254.41"/>
</g>
<!-- https://w3id.org/oseg/ont/otrl#OTRL5 -->
<g id="node14" class="node">
<title>https://w3id.org/oseg/ont/otrl#OTRL5</title>
<ellipse fill="none" stroke="#e377c2" cx="1412.36" cy="-111.26" rx="67.35" ry="16.03"/>
<text text-anchor="middle" x="1412.36" y="-107.56" font-family="Times,serif" font-size="14.00">otrl:OTRL5</text>
</g>
<!-- https://w3id.org/oseg/ont/otrl#OTRL5&#45;&gt;https://w3id.org/oseg/ont/otrl#OTRL -->
<g id="edge13" class="edge">
<title>https://w3id.org/oseg/ont/otrl#OTRL5&#45;&gt;https://w3id.org/oseg/ont/otrl#OTRL</title>
<path fill="none" stroke="black" d="M1471.63,-119.06C1547.32,-130.34 1682.75,-154.44 1792.57,-195.26 1830.21,-209.26 1870.91,-230.66 1898.68,-246.31"/>
<polygon fill="black" stroke="black" points="1897.16,-249.47 1907.58,-251.38 1900.62,-243.39 1897.16,-249.47"/>
</g>
<!-- https://w3id.org/oseg/ont/otrl#OTRL4 -->
<g id="node15" class="node">
<title>https://w3id.org/oseg/ont/otrl#OTRL4</title>
<ellipse fill="none" stroke="#e377c2" cx="1412.36" cy="-35.26" rx="67.35" ry="16.03"/>
<text text-anchor="middle" x="1412.36" y="-31.56" font-family="Times,serif" font-size="14.00">otrl:OTRL4</text>
</g>
<!-- https://w3id.org/oseg/ont/otrl#OTRL4&#45;&gt;https://w3id.org/oseg/ont/otrl#OTRL -->
<g id="edge31" class="edge">
<title>https://w3id.org/oseg/ont/otrl#OTRL4&#45;&gt;https://w3id.org/oseg/ont/otrl#OTRL</title>
<path fill="none" stroke="black" d="M1470.4,-43.62C1547.41,-56.67 1687.09,-86.7 1792.57,-145.26 1839.87,-171.53 1885.53,-215.59 1911.24,-242.67"/>
<polygon fill="black" stroke="black" points="1908.87,-245.26 1918.26,-250.16 1913.98,-240.47 1908.87,-245.26"/>
</g>
<!-- https://www.gnu.org/licenses/gpl&#45;3.0.txt -->
<g id="node16" class="node">
<title>https://www.gnu.org/licenses/gpl&#45;3.0.txt</title>
<ellipse fill="none" stroke="#e377c2" cx="807.65" cy="-899.26" rx="85.62" ry="16.03"/>
<text text-anchor="middle" x="807.65" y="-895.56" font-family="Times,serif" font-size="14.00">ns1:gpl&#45;3.0.txt</text>
</g>
<!-- https://w3id.org/oseg/ont/otrl#Odrl4 -->
<g id="node17" class="node">
<title>https://w3id.org/oseg/ont/otrl#Odrl4</title>
<ellipse fill="none" stroke="#e377c2" cx="807.65" cy="-551.26" rx="61.54" ry="16.03"/>
<text text-anchor="middle" x="807.65" y="-547.56" font-family="Times,serif" font-size="14.00">otrl:Odrl4</text>
</g>
<!-- https://w3id.org/oseg/ont/otrl#Odrl4&#45;&gt;https://w3id.org/oseg/ont/otrl#ODRL4 -->
<g id="edge23" class="edge">
<title>https://w3id.org/oseg/ont/otrl#Odrl4&#45;&gt;https://w3id.org/oseg/ont/otrl#ODRL4</title>
<path fill="none" stroke="black" d="M868.64,-553.75C978.55,-558.31 1212.06,-568 1333.83,-573.05"/>
<polygon fill="black" stroke="black" points="1333.69,-576.55 1343.83,-573.46 1333.98,-569.55 1333.69,-576.55"/>
<text text-anchor="middle" x="1124.14" y="-572.06" font-family="Times,serif" font-size="14.00">owl:sameAs</text>
</g>
<!-- https://w3id.org/oseg/ont/otrl#Odrl4&#45;&gt;https://w3id.org/oseg/ont/otrl#ODRL4 -->
<g id="edge44" class="edge">
<title>https://w3id.org/oseg/ont/otrl#Odrl4&#45;&gt;https://w3id.org/oseg/ont/otrl#ODRL4</title>
<path fill="none" stroke="black" d="M861.67,-543.38C938.1,-533.54 1083.32,-520.6 1204.14,-543.26 1212.58,-544.85 1213.83,-548.11 1222.14,-550.26 1259.1,-559.85 1301.08,-566.07 1336.1,-570.01"/>
<polygon fill="black" stroke="black" points="1335.94,-573.52 1346.26,-571.12 1336.69,-566.56 1335.94,-573.52"/>
<text text-anchor="middle" x="1124.14" y="-547.06" font-family="Times,serif" font-size="14.00">schema:supersededBy</text>
</g>
<!-- https://w3id.org/oseg/ont/otrl#goal -->
<g id="node18" class="node">
<title>https://w3id.org/oseg/ont/otrl#goal</title>
<ellipse fill="none" stroke="#e377c2" cx="1412.36" cy="-525.26" rx="54.39" ry="16.03"/>
<text text-anchor="middle" x="1412.36" y="-521.56" font-family="Times,serif" font-size="14.00">otrl:goal</text>
</g>
<!-- https://w3id.org/oseg/ont/otrl#goal&#45;&gt;http://www.w3.org/2002/07/owl#DatatypeProperty -->
<g id="edge34" class="edge">
<title>https://w3id.org/oseg/ont/otrl#goal&#45;&gt;http://www.w3.org/2002/07/owl#DatatypeProperty</title>
<path fill="none" stroke="black" d="M1465.12,-521.12C1505.57,-520.39 1561.62,-525.13 1602.57,-551.26 1615.04,-559.22 1607.58,-572.17 1620.57,-579.26 1687.66,-615.89 1716.93,-590.36 1792.57,-579.26 1823.19,-574.77 1856.4,-565.03 1882.8,-556.06"/>
<polygon fill="black" stroke="black" points="1884.26,-559.26 1892.56,-552.67 1881.97,-552.64 1884.26,-559.26"/>
<text text-anchor="middle" x="1706.57" y="-603.06" font-family="Times,serif" font-size="14.00">a</text>
</g>
<!-- https://w3id.org/oseg/ont/otrl#goal&#45;&gt;https://w3id.org/oseg/ont/otrl#ODRL -->
<g id="edge20" class="edge">
<title>https://w3id.org/oseg/ont/otrl#goal&#45;&gt;https://w3id.org/oseg/ont/otrl#ODRL</title>
<path fill="none" stroke="black" d="M1461.67,-518.28C1503.91,-515.02 1564.32,-517.68 1602.57,-551.26 1625.41,-571.32 1597.46,-597.51 1620.57,-617.26 1649.8,-642.25 1756.09,-624.07 1792.57,-636.26 1834.41,-650.25 1877.29,-678.04 1904.39,-697.6"/>
<polygon fill="black" stroke="black" points="1902.48,-700.54 1912.61,-703.63 1906.62,-694.9 1902.48,-700.54"/>
<text text-anchor="middle" x="1706.57" y="-640.06" font-family="Times,serif" font-size="14.00">schema:domainIncludes</text>
</g>
<!-- https://w3id.org/oseg/ont/otrl#goal&#45;&gt;https://w3id.org/oseg/ont/otrl#OTRL -->
<g id="edge11" class="edge">
<title>https://w3id.org/oseg/ont/otrl#goal&#45;&gt;https://w3id.org/oseg/ont/otrl#OTRL</title>
<path fill="none" stroke="black" d="M1466.95,-524.48C1507.88,-521.32 1563.69,-511.2 1602.57,-481.26 1616.11,-470.83 1606.45,-456.92 1620.57,-447.26 1684.09,-403.82 1724.49,-463.17 1792.57,-427.26 1851.82,-396.01 1897.24,-328.57 1918.8,-291.67"/>
<polygon fill="black" stroke="black" points="1922.09,-292.97 1924,-282.55 1916.01,-289.5 1922.09,-292.97"/>
<text text-anchor="middle" x="1706.57" y="-451.06" font-family="Times,serif" font-size="14.00">schema:domainIncludes</text>
</g>
<!-- http://schema.org/Text -->
<g id="node20" class="node">
<title>http://schema.org/Text</title>
<ellipse fill="none" stroke="#e377c2" cx="1933.6" cy="-474.26" rx="74.91" ry="16.03"/>
<text text-anchor="middle" x="1933.6" y="-470.56" font-family="Times,serif" font-size="14.00">schema:Text</text>
</g>
<!-- https://w3id.org/oseg/ont/otrl#goal&#45;&gt;http://schema.org/Text -->
<g id="edge43" class="edge">
<title>https://w3id.org/oseg/ont/otrl#goal&#45;&gt;http://schema.org/Text</title>
<path fill="none" stroke="black" d="M1466.97,-524.62C1540.64,-523.17 1677.17,-518.48 1792.57,-503.26 1819.18,-499.76 1848.28,-494.04 1873.04,-488.6"/>
<polygon fill="black" stroke="black" points="1874,-491.97 1883,-486.38 1872.48,-485.14 1874,-491.97"/>
<text text-anchor="middle" x="1706.57" y="-523.06" font-family="Times,serif" font-size="14.00">range</text>
</g>
<!-- https://w3id.org/oseg/ont/otrl -->
<g id="node19" class="node">
<title>https://w3id.org/oseg/ont/otrl</title>
<ellipse fill="none" stroke="#e377c2" cx="196.58" cy="-924.26" rx="50.82" ry="16.03"/>
<text text-anchor="middle" x="196.58" y="-920.56" font-family="Times,serif" font-size="14.00">ns2:otrl</text>
</g>
<!-- https://w3id.org/oseg/ont/otrl&#45;&gt;http://www.w3.org/2002/07/owl#Ontology -->
<g id="edge37" class="edge">
<title>https://w3id.org/oseg/ont/otrl&#45;&gt;http://www.w3.org/2002/07/owl#Ontology</title>
<path fill="none" stroke="black" d="M246.65,-927.32C350.5,-933.8 593.55,-948.97 722.63,-957.02"/>
<polygon fill="black" stroke="black" points="722.66,-960.53 732.86,-957.66 723.1,-953.54 722.66,-960.53"/>
<text text-anchor="middle" x="491.15" y="-950.06" font-family="Times,serif" font-size="14.00">a</text>
</g>
<!-- https://w3id.org/oseg/ont/otrl&#45;&gt;https://www.gnu.org/licenses/gpl&#45;3.0.txt -->
<g id="edge28" class="edge">
<title>https://w3id.org/oseg/ont/otrl&#45;&gt;https://www.gnu.org/licenses/gpl&#45;3.0.txt</title>
<path fill="none" stroke="black" d="M247.16,-922.23C348.96,-918.05 582.96,-908.45 713.79,-903.07"/>
<polygon fill="black" stroke="black" points="713.96,-906.57 723.81,-902.66 713.67,-899.58 713.96,-906.57"/>
<text text-anchor="middle" x="491.15" y="-920.06" font-family="Times,serif" font-size="14.00">cc:license</text>
</g>
<!-- https://w3id.org/oseg/ont/otrl&#45;&gt;https://www.gnu.org/licenses/gpl&#45;3.0.txt -->
<g id="edge29" class="edge">
<title>https://w3id.org/oseg/ont/otrl&#45;&gt;https://www.gnu.org/licenses/gpl&#45;3.0.txt</title>
<path fill="none" stroke="black" d="M240.3,-915.68C283.26,-907.53 351.48,-895.85 411.15,-891.26 516.38,-883.18 637.79,-887.69 718.04,-892.58"/>
<polygon fill="black" stroke="black" points="717.91,-896.08 728.1,-893.21 718.34,-889.09 717.91,-896.08"/>
<text text-anchor="middle" x="491.15" y="-895.06" font-family="Times,serif" font-size="14.00">dcterms:license</text>
</g>
<!-- https://w3id.org/oseg/ont/otrl&#45;&gt;https://w3id.org/oseg/ont/otrl -->
<g id="edge38" class="edge">
<title>https://w3id.org/oseg/ont/otrl&#45;&gt;https://w3id.org/oseg/ont/otrl</title>
<path fill="none" stroke="black" d="M155.67,-934.26C127.53,-945.54 141.16,-958.53 196.58,-958.53 244.63,-958.53 261.27,-948.76 246.49,-938.81"/>
<polygon fill="black" stroke="black" points="247.99,-935.65 237.49,-934.26 244.83,-941.9 247.99,-935.65"/>
<text text-anchor="middle" x="196.58" y="-962.33" font-family="Times,serif" font-size="14.00">owl:versionIRI</text>
</g>
<!-- https://w3id.org/oseg/ont/otrl#exitCriteria -->
<g id="node21" class="node">
<title>https://w3id.org/oseg/ont/otrl#exitCriteria</title>
<ellipse fill="none" stroke="#e377c2" cx="1412.36" cy="-456.26" rx="91.43" ry="16.03"/>
<text text-anchor="middle" x="1412.36" y="-452.56" font-family="Times,serif" font-size="14.00">otrl:exitCriteria</text>
</g>
<!-- https://w3id.org/oseg/ont/otrl#exitCriteria&#45;&gt;http://www.w3.org/2002/07/owl#DatatypeProperty -->
<g id="edge45" class="edge">
<title>https://w3id.org/oseg/ont/otrl#exitCriteria&#45;&gt;http://www.w3.org/2002/07/owl#DatatypeProperty</title>
<path fill="none" stroke="black" d="M1501.45,-459.93C1605.06,-464.69 1766.33,-473.65 1792.57,-484.26 1802.22,-488.17 1801.42,-494.29 1810.57,-499.26 1826.21,-507.77 1844.04,-514.68 1861.14,-520.16"/>
<polygon fill="black" stroke="black" points="1860.52,-523.63 1871.11,-523.22 1862.58,-516.94 1860.52,-523.63"/>
<text text-anchor="middle" x="1706.57" y="-488.06" font-family="Times,serif" font-size="14.00">a</text>
</g>
<!-- https://w3id.org/oseg/ont/otrl#exitCriteria&#45;&gt;https://w3id.org/oseg/ont/otrl#ODRL -->
<g id="edge18" class="edge">
<title>https://w3id.org/oseg/ont/otrl#exitCriteria&#45;&gt;https://w3id.org/oseg/ont/otrl#ODRL</title>
<path fill="none" stroke="black" d="M1501.04,-460.38C1535.75,-465.9 1574.08,-477.3 1602.57,-500.26 1617.12,-511.99 1605.44,-527.29 1620.57,-538.26 1682.94,-583.53 1724.49,-524.13 1792.57,-560.26 1851.17,-591.37 1896.72,-657.58 1918.51,-693.98"/>
<polygon fill="black" stroke="black" points="1915.7,-696.12 1923.77,-702.98 1921.74,-692.58 1915.7,-696.12"/>
<text text-anchor="middle" x="1706.57" y="-564.06" font-family="Times,serif" font-size="14.00">schema:domainIncludes</text>
</g>
<!-- https://w3id.org/oseg/ont/otrl#exitCriteria&#45;&gt;https://w3id.org/oseg/ont/otrl#OTRL -->
<g id="edge4" class="edge">
<title>https://w3id.org/oseg/ont/otrl#exitCriteria&#45;&gt;https://w3id.org/oseg/ont/otrl#OTRL</title>
<path fill="none" stroke="black" d="M1480.35,-445.29C1518,-437.18 1564.86,-423.72 1602.57,-402.26 1612.13,-396.82 1610.84,-390.41 1620.57,-385.26 1689.75,-348.62 1719.6,-375.64 1792.57,-347.26 1832.72,-331.65 1875.03,-305.66 1902.5,-287.34"/>
<polygon fill="black" stroke="black" points="1904.55,-290.18 1910.88,-281.69 1900.63,-284.38 1904.55,-290.18"/>
<text text-anchor="middle" x="1706.57" y="-389.06" font-family="Times,serif" font-size="14.00">schema:domainIncludes</text>
</g>
<!-- https://w3id.org/oseg/ont/otrl#exitCriteria&#45;&gt;http://schema.org/Text -->
<g id="edge42" class="edge">
<title>https://w3id.org/oseg/ont/otrl#exitCriteria&#45;&gt;http://schema.org/Text</title>
<path fill="none" stroke="black" d="M1457.29,-442.05C1528.38,-421.08 1672.77,-386.93 1792.57,-412.26 1830.43,-420.27 1870.5,-439.21 1898.04,-454.07"/>
<polygon fill="black" stroke="black" points="1896.42,-457.18 1906.87,-458.93 1899.8,-451.04 1896.42,-457.18"/>
<text text-anchor="middle" x="1706.57" y="-416.06" font-family="Times,serif" font-size="14.00">range</text>
</g>
<!-- https://w3id.org/oseg/ont/otrl#Odrl2 -->
<g id="node22" class="node">
<title>https://w3id.org/oseg/ont/otrl#Odrl2</title>
<ellipse fill="none" stroke="black" cx="807.65" cy="-693.26" rx="196.65" ry="16.03"/>
<text text-anchor="middle" x="807.65" y="-689.56" font-family="Times,serif" font-size="14.00">https://w3id.org/oseg/ont/otrl#Odrl2</text>
</g>
<!-- https://w3id.org/oseg/ont/otrl#Odrl2&#45;&gt;https://w3id.org/oseg/ont/otrl#ODRL2 -->
<g id="edge1" class="edge">
<title>https://w3id.org/oseg/ont/otrl#Odrl2&#45;&gt;https://w3id.org/oseg/ont/otrl#ODRL2</title>
<path fill="none" stroke="black" d="M992.48,-698.82C1009.94,-699.32 1027.38,-699.81 1044.14,-700.26 1143.84,-702.97 1258.77,-705.73 1333.12,-707.46"/>
<polygon fill="black" stroke="black" points="1333.26,-710.97 1343.33,-707.7 1333.42,-703.97 1333.26,-710.97"/>
<text text-anchor="middle" x="1124.14" y="-708.06" font-family="Times,serif" font-size="14.00">schema:supersededBy</text>
</g>
<!-- https://w3id.org/oseg/ont/otrl#Odrl2&#45;&gt;https://w3id.org/oseg/ont/otrl#ODRL2 -->
<g id="edge40" class="edge">
<title>https://w3id.org/oseg/ont/otrl#Odrl2&#45;&gt;https://w3id.org/oseg/ont/otrl#ODRL2</title>
<path fill="none" stroke="black" d="M952.02,-682.19C1027.17,-678.09 1120.7,-675.65 1204.14,-681.26 1251.89,-684.47 1305.41,-691.8 1346.1,-698.16"/>
<polygon fill="black" stroke="black" points="1345.73,-701.64 1356.15,-699.75 1346.82,-694.73 1345.73,-701.64"/>
<text text-anchor="middle" x="1124.14" y="-685.06" font-family="Times,serif" font-size="14.00">owl:sameAs</text>
</g>
<!-- https://w3id.org/oseg/ont/otrl#Odrl3Star -->
<g id="node23" class="node">
<title>https://w3id.org/oseg/ont/otrl#Odrl3Star</title>
<ellipse fill="none" stroke="black" cx="807.65" cy="-785.26" rx="218.49" ry="16.03"/>
<text text-anchor="middle" x="807.65" y="-781.56" font-family="Times,serif" font-size="14.00">https://w3id.org/oseg/ont/otrl#Odrl3Star</text>
</g>
<!-- https://w3id.org/oseg/ont/otrl#Odrl3Star&#45;&gt;https://w3id.org/oseg/ont/otrl#ODRL3Star -->
<g id="edge2" class="edge">
<title>https://w3id.org/oseg/ont/otrl#Odrl3Star&#45;&gt;https://w3id.org/oseg/ont/otrl#ODRL3Star</title>
<path fill="none" stroke="black" d="M1023.22,-782.5C1081.91,-781.17 1145.49,-779.19 1204.14,-776.26 1242.35,-774.35 1284.46,-771.28 1320.68,-768.34"/>
<polygon fill="black" stroke="black" points="1321.05,-771.82 1330.73,-767.51 1320.47,-764.84 1321.05,-771.82"/>
<text text-anchor="middle" x="1124.14" y="-786.06" font-family="Times,serif" font-size="14.00">schema:supersededBy</text>
</g>
<!-- https://w3id.org/oseg/ont/otrl#Odrl3Star&#45;&gt;https://w3id.org/oseg/ont/otrl#ODRL3Star -->
<g id="edge27" class="edge">
<title>https://w3id.org/oseg/ont/otrl#Odrl3Star&#45;&gt;https://w3id.org/oseg/ont/otrl#ODRL3Star</title>
<path fill="none" stroke="black" d="M908.11,-770.79C950,-765.39 999.34,-759.92 1044.14,-757.26 1115.13,-753.06 1133.03,-756.75 1204.14,-757.26 1239.19,-757.52 1277.57,-758.01 1311.68,-758.53"/>
<polygon fill="black" stroke="black" points="1312.06,-762.03 1322.11,-758.69 1312.17,-755.04 1312.06,-762.03"/>
<text text-anchor="middle" x="1124.14" y="-761.06" font-family="Times,serif" font-size="14.00">owl:sameAs</text>
</g>
<!-- https://w3id.org/oseg/ont/otrl#Otrl6 -->
<g id="node24" class="node">
<title>https://w3id.org/oseg/ont/otrl#Otrl6</title>
<ellipse fill="none" stroke="black" cx="807.65" cy="-320.26" rx="194.41" ry="16.03"/>
<text text-anchor="middle" x="807.65" y="-316.56" font-family="Times,serif" font-size="14.00">https://w3id.org/oseg/ont/otrl#Otrl6</text>
</g>
<!-- https://w3id.org/oseg/ont/otrl#Otrl6&#45;&gt;https://w3id.org/oseg/ont/otrl#OTRL6 -->
<g id="edge3" class="edge">
<title>https://w3id.org/oseg/ont/otrl#Otrl6&#45;&gt;https://w3id.org/oseg/ont/otrl#OTRL6</title>
<path fill="none" stroke="black" d="M1001,-322.18C1114.27,-323.31 1251.29,-324.67 1334.84,-325.5"/>
<polygon fill="black" stroke="black" points="1334.97,-329 1345.01,-325.6 1335.04,-322 1334.97,-329"/>
<text text-anchor="middle" x="1124.14" y="-328.06" font-family="Times,serif" font-size="14.00">owl:sameAs</text>
</g>
<!-- https://w3id.org/oseg/ont/otrl#Otrl6&#45;&gt;https://w3id.org/oseg/ont/otrl#OTRL6 -->
<g id="edge39" class="edge">
<title>https://w3id.org/oseg/ont/otrl#Otrl6&#45;&gt;https://w3id.org/oseg/ont/otrl#OTRL6</title>
<path fill="none" stroke="black" d="M943.23,-308.6C1019.75,-303.52 1117.34,-299.67 1204.14,-304.26 1250.6,-306.72 1302.67,-312.26 1343,-317.17"/>
<polygon fill="black" stroke="black" points="1342.63,-320.65 1352.98,-318.4 1343.49,-313.7 1342.63,-320.65"/>
<text text-anchor="middle" x="1124.14" y="-308.06" font-family="Times,serif" font-size="14.00">schema:supersededBy</text>
</g>
<!-- https://w3id.org/oseg/ont/otrl#Odrl1 -->
<g id="node25" class="node">
<title>https://w3id.org/oseg/ont/otrl#Odrl1</title>
<ellipse fill="none" stroke="black" cx="807.65" cy="-636.26" rx="196.65" ry="16.03"/>
<text text-anchor="middle" x="807.65" y="-632.56" font-family="Times,serif" font-size="14.00">https://w3id.org/oseg/ont/otrl#Odrl1</text>
</g>
<!-- https://w3id.org/oseg/ont/otrl#Odrl1&#45;&gt;https://w3id.org/oseg/ont/otrl#ODRL1 -->
<g id="edge5" class="edge">
<title>https://w3id.org/oseg/ont/otrl#Odrl1&#45;&gt;https://w3id.org/oseg/ont/otrl#ODRL1</title>
<path fill="none" stroke="black" d="M1000.59,-639.45C1113.06,-641.31 1249.06,-643.57 1332.89,-644.96"/>
<polygon fill="black" stroke="black" points="1333.04,-648.46 1343.1,-645.13 1333.16,-641.47 1333.04,-648.46"/>
<text text-anchor="middle" x="1124.14" y="-647.06" font-family="Times,serif" font-size="14.00">schema:supersededBy</text>
</g>
<!-- https://w3id.org/oseg/ont/otrl#Odrl1&#45;&gt;https://w3id.org/oseg/ont/otrl#ODRL1 -->
<g id="edge8" class="edge">
<title>https://w3id.org/oseg/ont/otrl#Odrl1&#45;&gt;https://w3id.org/oseg/ont/otrl#ODRL1</title>
<path fill="none" stroke="black" d="M949.2,-624.94C1024.8,-620.45 1119.6,-617.38 1204.14,-622.26 1250.64,-624.95 1302.71,-630.99 1343.02,-636.34"/>
<polygon fill="black" stroke="black" points="1342.63,-639.82 1353.01,-637.68 1343.57,-632.88 1342.63,-639.82"/>
<text text-anchor="middle" x="1124.14" y="-626.06" font-family="Times,serif" font-size="14.00">owl:sameAs</text>
</g>
<!-- https://w3id.org/oseg/ont/otrl#Odrl -->
<g id="node26" class="node">
<title>https://w3id.org/oseg/ont/otrl#Odrl</title>
<ellipse fill="none" stroke="black" cx="1412.36" cy="-862.26" rx="190.42" ry="16.03"/>
<text text-anchor="middle" x="1412.36" y="-858.56" font-family="Times,serif" font-size="14.00">https://w3id.org/oseg/ont/otrl#Odrl</text>
</g>
<!-- https://w3id.org/oseg/ont/otrl#Odrl&#45;&gt;https://w3id.org/oseg/ont/otrl#ODRL -->
<g id="edge6" class="edge">
<title>https://w3id.org/oseg/ont/otrl#Odrl&#45;&gt;https://w3id.org/oseg/ont/otrl#ODRL</title>
<path fill="none" stroke="black" d="M1554.05,-851.36C1570.76,-847.62 1587.29,-842.7 1602.57,-836.26 1611.91,-832.33 1611.43,-826.65 1620.57,-822.26 1691.41,-788.26 1718.1,-806.39 1792.57,-781.26 1828.17,-769.25 1867.15,-751.6 1894.92,-738.21"/>
<polygon fill="black" stroke="black" points="1896.79,-741.19 1904.25,-733.66 1893.73,-734.89 1896.79,-741.19"/>
<text text-anchor="middle" x="1706.57" y="-826.06" font-family="Times,serif" font-size="14.00">owl:sameAs</text>
</g>
<!-- https://w3id.org/oseg/ont/otrl#Odrl&#45;&gt;https://w3id.org/oseg/ont/otrl#ODRL -->
<g id="edge30" class="edge">
<title>https://w3id.org/oseg/ont/otrl#Odrl&#45;&gt;https://w3id.org/oseg/ont/otrl#ODRL</title>
<path fill="none" stroke="black" d="M1549.53,-873.54C1623.87,-874.77 1716.07,-868.09 1792.57,-837.26 1842.76,-817.04 1888.11,-771.55 1912.87,-743.33"/>
<polygon fill="black" stroke="black" points="1915.72,-745.38 1919.59,-735.52 1910.41,-740.82 1915.72,-745.38"/>
<text text-anchor="middle" x="1706.57" y="-876.06" font-family="Times,serif" font-size="14.00">schema:supersededBy</text>
</g>
<!-- https://w3id.org/oseg/ont/otrl#Odrl3 -->
<g id="node27" class="node">
<title>https://w3id.org/oseg/ont/otrl#Odrl3</title>
<ellipse fill="none" stroke="black" cx="807.65" cy="-848.26" rx="196.65" ry="16.03"/>
<text text-anchor="middle" x="807.65" y="-844.56" font-family="Times,serif" font-size="14.00">https://w3id.org/oseg/ont/otrl#Odrl3</text>
</g>
<!-- https://w3id.org/oseg/ont/otrl#Odrl3&#45;&gt;https://w3id.org/oseg/ont/otrl#ODRL3 -->
<g id="edge7" class="edge">
<title>https://w3id.org/oseg/ont/otrl#Odrl3&#45;&gt;https://w3id.org/oseg/ont/otrl#ODRL3</title>
<path fill="none" stroke="black" d="M946.56,-859.79C1041.43,-865.81 1158.26,-868.87 1204.14,-852.26 1213.94,-848.72 1212.62,-841.47 1222.14,-837.26 1256.52,-822.09 1297.53,-815.26 1332.57,-812.35"/>
<polygon fill="black" stroke="black" points="1333.05,-815.83 1342.77,-811.6 1332.54,-808.85 1333.05,-815.83"/>
<text text-anchor="middle" x="1124.14" y="-869.06" font-family="Times,serif" font-size="14.00">owl:sameAs</text>
</g>
<!-- https://w3id.org/oseg/ont/otrl#Odrl3&#45;&gt;https://w3id.org/oseg/ont/otrl#ODRL3 -->
<g id="edge47" class="edge">
<title>https://w3id.org/oseg/ont/otrl#Odrl3&#45;&gt;https://w3id.org/oseg/ont/otrl#ODRL3</title>
<path fill="none" stroke="black" d="M963.5,-838.32C990.39,-836.61 1018.08,-834.87 1044.14,-833.26 1144.6,-827.06 1260.53,-820.15 1334.81,-815.76"/>
<polygon fill="black" stroke="black" points="1335.24,-819.25 1345.01,-815.16 1334.82,-812.26 1335.24,-819.25"/>
<text text-anchor="middle" x="1124.14" y="-837.06" font-family="Times,serif" font-size="14.00">schema:supersededBy</text>
</g>
<!-- https://w3id.org/oseg/ont/otrl#Otrl5 -->
<g id="node28" class="node">
<title>https://w3id.org/oseg/ont/otrl#Otrl5</title>
<ellipse fill="none" stroke="black" cx="807.65" cy="-99.26" rx="194.41" ry="16.03"/>
<text text-anchor="middle" x="807.65" y="-95.56" font-family="Times,serif" font-size="14.00">https://w3id.org/oseg/ont/otrl#Otrl5</text>
</g>
<!-- https://w3id.org/oseg/ont/otrl#Otrl5&#45;&gt;https://w3id.org/oseg/ont/otrl#OTRL5 -->
<g id="edge9" class="edge">
<title>https://w3id.org/oseg/ont/otrl#Otrl5&#45;&gt;https://w3id.org/oseg/ont/otrl#OTRL5</title>
<path fill="none" stroke="black" d="M997.28,-103.02C1111.43,-105.29 1250.78,-108.07 1335.22,-109.75"/>
<polygon fill="black" stroke="black" points="1335.17,-113.25 1345.23,-109.95 1335.31,-106.25 1335.17,-113.25"/>
<text text-anchor="middle" x="1124.14" y="-111.06" font-family="Times,serif" font-size="14.00">schema:supersededBy</text>
</g>
<!-- https://w3id.org/oseg/ont/otrl#Otrl5&#45;&gt;https://w3id.org/oseg/ont/otrl#OTRL5 -->
<g id="edge35" class="edge">
<title>https://w3id.org/oseg/ont/otrl#Otrl5&#45;&gt;https://w3id.org/oseg/ont/otrl#OTRL5</title>
<path fill="none" stroke="black" d="M946.01,-87.81C1022.13,-83.12 1118.43,-79.91 1204.14,-85.26 1251.68,-88.23 1304.99,-95 1345.64,-100.89"/>
<polygon fill="black" stroke="black" points="1345.28,-104.37 1355.69,-102.36 1346.3,-97.45 1345.28,-104.37"/>
<text text-anchor="middle" x="1124.14" y="-89.06" font-family="Times,serif" font-size="14.00">owl:sameAs</text>
</g>
<!-- https://w3id.org/oseg/ont/otrl#Otrl4 -->
<g id="node29" class="node">
<title>https://w3id.org/oseg/ont/otrl#Otrl4</title>
<ellipse fill="none" stroke="black" cx="807.65" cy="-16.26" rx="194.41" ry="16.03"/>
<text text-anchor="middle" x="807.65" y="-12.56" font-family="Times,serif" font-size="14.00">https://w3id.org/oseg/ont/otrl#Otrl4</text>
</g>
<!-- https://w3id.org/oseg/ont/otrl#Otrl4&#45;&gt;https://w3id.org/oseg/ont/otrl#OTRL4 -->
<g id="edge10" class="edge">
<title>https://w3id.org/oseg/ont/otrl#Otrl4&#45;&gt;https://w3id.org/oseg/ont/otrl#OTRL4</title>
<path fill="none" stroke="black" d="M989.89,-21.98C1105.32,-25.62 1248.86,-30.14 1335.13,-32.86"/>
<polygon fill="black" stroke="black" points="1335.26,-36.37 1345.37,-33.18 1335.48,-29.37 1335.26,-36.37"/>
<text text-anchor="middle" x="1124.14" y="-33.06" font-family="Times,serif" font-size="14.00">owl:sameAs</text>
</g>
<!-- https://w3id.org/oseg/ont/otrl#Otrl4&#45;&gt;https://w3id.org/oseg/ont/otrl#OTRL4 -->
<g id="edge22" class="edge">
<title>https://w3id.org/oseg/ont/otrl#Otrl4&#45;&gt;https://w3id.org/oseg/ont/otrl#OTRL4</title>
<path fill="none" stroke="black" d="M952.51,-5.38C1027.59,-1.44 1120.9,0.73 1204.14,-5.26 1252.77,-8.77 1307.33,-16.83 1348.25,-23.72"/>
<polygon fill="black" stroke="black" points="1347.9,-27.21 1358.35,-25.44 1349.08,-20.31 1347.9,-27.21"/>
<text text-anchor="middle" x="1124.14" y="-9.06" font-family="Times,serif" font-size="14.00">schema:supersededBy</text>
</g>
<!-- https://w3id.org/oseg/ont/otrl#Otrl1 -->
<g id="node30" class="node">
<title>https://w3id.org/oseg/ont/otrl#Otrl1</title>
<ellipse fill="none" stroke="black" cx="807.65" cy="-403.26" rx="194.41" ry="16.03"/>
<text text-anchor="middle" x="807.65" y="-399.56" font-family="Times,serif" font-size="14.00">https://w3id.org/oseg/ont/otrl#Otrl1</text>
</g>
<!-- https://w3id.org/oseg/ont/otrl#Otrl1&#45;&gt;https://w3id.org/oseg/ont/otrl#OTRL1 -->
<g id="edge12" class="edge">
<title>https://w3id.org/oseg/ont/otrl#Otrl1&#45;&gt;https://w3id.org/oseg/ont/otrl#OTRL1</title>
<path fill="none" stroke="black" d="M999.33,-400.44C1064.34,-398.94 1137.44,-396.68 1204.14,-393.26 1249.06,-390.96 1299.36,-387.11 1339.16,-383.76"/>
<polygon fill="black" stroke="black" points="1339.63,-387.23 1349.3,-382.9 1339.04,-380.26 1339.63,-387.23"/>
<text text-anchor="middle" x="1124.14" y="-403.06" font-family="Times,serif" font-size="14.00">schema:supersededBy</text>
</g>
<!-- https://w3id.org/oseg/ont/otrl#Otrl1&#45;&gt;https://w3id.org/oseg/ont/otrl#OTRL1 -->
<g id="edge48" class="edge">
<title>https://w3id.org/oseg/ont/otrl#Otrl1&#45;&gt;https://w3id.org/oseg/ont/otrl#OTRL1</title>
<path fill="none" stroke="black" d="M902.37,-389.05C945.44,-383.2 997.27,-377.14 1044.14,-374.26 1115.12,-369.91 1133.03,-373.75 1204.14,-374.26 1247.41,-374.58 1295.75,-375.26 1334.85,-375.89"/>
<polygon fill="black" stroke="black" points="1335.04,-379.4 1345.1,-376.06 1335.16,-372.4 1335.04,-379.4"/>
<text text-anchor="middle" x="1124.14" y="-378.06" font-family="Times,serif" font-size="14.00">owl:sameAs</text>
</g>
<!-- https://w3id.org/oseg/ont/otrl#Otrl -->
<g id="node31" class="node">
<title>https://w3id.org/oseg/ont/otrl#Otrl</title>
<ellipse fill="none" stroke="black" cx="1412.36" cy="-275.26" rx="188.18" ry="16.03"/>
<text text-anchor="middle" x="1412.36" y="-271.56" font-family="Times,serif" font-size="14.00">https://w3id.org/oseg/ont/otrl#Otrl</text>
</g>
<!-- https://w3id.org/oseg/ont/otrl#Otrl&#45;&gt;https://w3id.org/oseg/ont/otrl#OTRL -->
<g id="edge15" class="edge">
<title>https://w3id.org/oseg/ont/otrl#Otrl&#45;&gt;https://w3id.org/oseg/ont/otrl#OTRL</title>
<path fill="none" stroke="black" d="M1597.15,-272.08C1689,-270.49 1794.74,-268.65 1862.55,-267.48"/>
<polygon fill="black" stroke="black" points="1862.74,-270.97 1872.68,-267.3 1862.62,-263.98 1862.74,-270.97"/>
<text text-anchor="middle" x="1706.57" y="-276.06" font-family="Times,serif" font-size="14.00">schema:supersededBy</text>
</g>
<!-- https://w3id.org/oseg/ont/otrl#Otrl&#45;&gt;https://w3id.org/oseg/ont/otrl#OTRL -->
<g id="edge36" class="edge">
<title>https://w3id.org/oseg/ont/otrl#Otrl&#45;&gt;https://w3id.org/oseg/ont/otrl#OTRL</title>
<path fill="none" stroke="black" d="M1509.08,-261.28C1544.08,-256.81 1584.04,-252.46 1620.57,-250.26 1696.87,-245.68 1716.25,-245.92 1792.57,-250.26 1817.79,-251.7 1845.45,-254.58 1869.47,-257.51"/>
<polygon fill="black" stroke="black" points="1869.17,-261 1879.53,-258.76 1870.04,-254.05 1869.17,-261"/>
<text text-anchor="middle" x="1706.57" y="-254.06" font-family="Times,serif" font-size="14.00">owl:sameAs</text>
</g>
<!-- https://w3id.org/oseg/ont/otrl#Otrl3 -->
<g id="node32" class="node">
<title>https://w3id.org/oseg/ont/otrl#Otrl3</title>
<ellipse fill="none" stroke="black" cx="807.65" cy="-177.26" rx="194.41" ry="16.03"/>
<text text-anchor="middle" x="807.65" y="-173.56" font-family="Times,serif" font-size="14.00">https://w3id.org/oseg/ont/otrl#Otrl3</text>
</g>
<!-- https://w3id.org/oseg/ont/otrl#Otrl3&#45;&gt;https://w3id.org/oseg/ont/otrl#OTRL3 -->
<g id="edge17" class="edge">
<title>https://w3id.org/oseg/ont/otrl#Otrl3&#45;&gt;https://w3id.org/oseg/ont/otrl#OTRL3</title>
<path fill="none" stroke="black" d="M1001.83,-175.98C1115.04,-175.23 1251.73,-174.32 1335.06,-173.77"/>
<polygon fill="black" stroke="black" points="1335.22,-177.27 1345.2,-173.7 1335.18,-170.27 1335.22,-177.27"/>
<text text-anchor="middle" x="1124.14" y="-180.06" font-family="Times,serif" font-size="14.00">schema:supersededBy</text>
</g>
<!-- https://w3id.org/oseg/ont/otrl#Otrl3&#45;&gt;https://w3id.org/oseg/ont/otrl#OTRL3 -->
<g id="edge51" class="edge">
<title>https://w3id.org/oseg/ont/otrl#Otrl3&#45;&gt;https://w3id.org/oseg/ont/otrl#OTRL3</title>
<path fill="none" stroke="black" d="M928.61,-164.49C965.62,-161.11 1006.52,-157.94 1044.14,-156.26 1115.18,-153.1 1133.09,-153.35 1204.14,-156.26 1249.43,-158.12 1300.14,-162.24 1340.07,-165.97"/>
<polygon fill="black" stroke="black" points="1339.95,-169.47 1350.23,-166.93 1340.61,-162.5 1339.95,-169.47"/>
<text text-anchor="middle" x="1124.14" y="-160.06" font-family="Times,serif" font-size="14.00">owl:sameAs</text>
</g>
<!-- https://w3id.org/oseg/ont/otrl#Otrl2 -->
<g id="node33" class="node">
<title>https://w3id.org/oseg/ont/otrl#Otrl2</title>
<ellipse fill="none" stroke="black" cx="807.65" cy="-234.26" rx="194.41" ry="16.03"/>
<text text-anchor="middle" x="807.65" y="-230.56" font-family="Times,serif" font-size="14.00">https://w3id.org/oseg/ont/otrl#Otrl2</text>
</g>
<!-- https://w3id.org/oseg/ont/otrl#Otrl2&#45;&gt;https://w3id.org/oseg/ont/otrl#OTRL2 -->
<g id="edge19" class="edge">
<title>https://w3id.org/oseg/ont/otrl#Otrl2&#45;&gt;https://w3id.org/oseg/ont/otrl#OTRL2</title>
<path fill="none" stroke="black" d="M980.99,-241.7C1050.35,-243.55 1131.07,-244.26 1204.14,-241.26 1249.43,-239.41 1300.14,-235.28 1340.07,-231.56"/>
<polygon fill="black" stroke="black" points="1340.61,-235.03 1350.23,-230.6 1339.95,-228.06 1340.61,-235.03"/>
<text text-anchor="middle" x="1124.14" y="-248.06" font-family="Times,serif" font-size="14.00">schema:supersededBy</text>
</g>
<!-- https://w3id.org/oseg/ont/otrl#Otrl2&#45;&gt;https://w3id.org/oseg/ont/otrl#OTRL2 -->
<g id="edge41" class="edge">
<title>https://w3id.org/oseg/ont/otrl#Otrl2&#45;&gt;https://w3id.org/oseg/ont/otrl#OTRL2</title>
<path fill="none" stroke="black" d="M967.9,-225.05C993.39,-223.89 1019.49,-222.89 1044.14,-222.26 1115.23,-220.45 1133.03,-221.92 1204.14,-222.26 1247.41,-222.47 1295.75,-222.93 1334.85,-223.35"/>
<polygon fill="black" stroke="black" points="1335.06,-226.85 1345.1,-223.46 1335.14,-219.85 1335.06,-226.85"/>
<text text-anchor="middle" x="1124.14" y="-226.06" font-family="Times,serif" font-size="14.00">owl:sameAs</text>
</g>
<!-- https://w3id.org/oseg/ont/otrl#Odrl5 -->
<g id="node34" class="node">
<title>https://w3id.org/oseg/ont/otrl#Odrl5</title>
<ellipse fill="none" stroke="black" cx="196.58" cy="-551.26" rx="196.65" ry="16.03"/>
<text text-anchor="middle" x="196.58" y="-547.56" font-family="Times,serif" font-size="14.00">https://w3id.org/oseg/ont/otrl#Odrl5</text>
</g>
<!-- https://w3id.org/oseg/ont/otrl#Odrl5&#45;&gt;https://w3id.org/oseg/ont/otrl#Odrl4 -->
<g id="edge33" class="edge">
<title>https://w3id.org/oseg/ont/otrl#Odrl5&#45;&gt;https://w3id.org/oseg/ont/otrl#Odrl4</title>
<path fill="none" stroke="black" d="M393.22,-551.26C510.43,-551.26 652.42,-551.26 735.81,-551.26"/>
<polygon fill="black" stroke="black" points="735.94,-554.76 745.94,-551.26 735.94,-547.76 735.94,-554.76"/>
<text text-anchor="middle" x="491.15" y="-555.06" font-family="Times,serif" font-size="14.00">schema:supersededBy</text>
</g>
<!-- https://w3id.org/oseg/ont/otrl#Odrl5&#45;&gt;https://w3id.org/oseg/ont/otrl#Odrl4 -->
<g id="edge46" class="edge">
<title>https://w3id.org/oseg/ont/otrl#Odrl5&#45;&gt;https://w3id.org/oseg/ont/otrl#Odrl4</title>
<path fill="none" stroke="black" d="M319.43,-538.54C349.39,-535.93 381.4,-533.58 411.15,-532.26 482.19,-529.11 500.1,-529.4 571.15,-532.26 628.23,-534.56 692.91,-539.98 740.02,-544.45"/>
<polygon fill="black" stroke="black" points="739.81,-547.95 750.1,-545.42 740.48,-540.98 739.81,-547.95"/>
<text text-anchor="middle" x="491.15" y="-536.06" font-family="Times,serif" font-size="14.00">owl:sameAs</text>
</g>
</g>
</svg>
