<?xml version="1.0" encoding="UTF-8" standalone="no"?>
<!DOCTYPE svg PUBLIC "-//W3C//DTD SVG 1.1//EN"
 "http://www.w3.org/Graphics/SVG/1.1/DTD/svg11.dtd">
<!-- Generated by graphviz version 2.43.0 (0)
 -->
<!-- Title: G Pages: 1 -->
<svg width="2059pt" height="1526pt"
 viewBox="0.00 0.00 2059.00 1526.00" xmlns="http://www.w3.org/2000/svg" xmlns:xlink="http://www.w3.org/1999/xlink">
<g id="graph0" class="graph" transform="scale(1 1) rotate(0) translate(4 1522)">
<title>G</title>
<polygon fill="white" stroke="transparent" points="-4,4 -4,-1522 2055,-1522 2055,4 -4,4"/>
<!-- https://w3id.org/oseg/ont/otrl#ODRL1 -->
<g id="node1" class="node">
<title>https://w3id.org/oseg/ont/otrl#ODRL1</title>
<ellipse fill="none" stroke="#e377c2" cx="574.47" cy="-585.31" rx="69.09" ry="16.03"/>
<text text-anchor="middle" x="574.47" y="-581.61" font-family="Times,serif" font-size="14.00">otrl:ODRL1</text>
</g>
<!-- https://w3id.org/oseg/ont/otrl#ODRL -->
<g id="node6" class="node">
<title>https://w3id.org/oseg/ont/otrl#ODRL</title>
<ellipse fill="none" stroke="#e377c2" cx="814.44" cy="-637.44" rx="62.87" ry="16.03"/>
<text text-anchor="middle" x="814.44" y="-633.74" font-family="Times,serif" font-size="14.00">otrl:ODRL</text>
</g>
<!-- https://w3id.org/oseg/ont/otrl#ODRL1&#45;&gt;https://w3id.org/oseg/ont/otrl#ODRL -->
<g id="edge21" class="edge">
<title>https://w3id.org/oseg/ont/otrl#ODRL1&#45;&gt;https://w3id.org/oseg/ont/otrl#ODRL</title>
<path fill="none" stroke="black" d="M625.36,-596.36C663.66,-604.69 716.22,-616.1 756.2,-624.79"/>
<polygon fill="black" stroke="black" points="755.56,-628.23 766.08,-626.93 757.05,-621.39 755.56,-628.23"/>
</g>
<!-- https://w3id.org/oseg/ont/otrl#OTRL6 -->
<g id="node2" class="node">
<title>https://w3id.org/oseg/ont/otrl#OTRL6</title>
<ellipse fill="none" stroke="#e377c2" cx="1201.11" cy="-1169.09" rx="67.35" ry="16.03"/>
<text text-anchor="middle" x="1201.11" y="-1165.39" font-family="Times,serif" font-size="14.00">otrl:OTRL6</text>
</g>
<!-- https://w3id.org/oseg/ont/otrl#OTRL -->
<g id="node13" class="node">
<title>https://w3id.org/oseg/ont/otrl#OTRL</title>
<ellipse fill="none" stroke="#e377c2" cx="1247.18" cy="-970.45" rx="60.62" ry="16.03"/>
<text text-anchor="middle" x="1247.18" y="-966.75" font-family="Times,serif" font-size="14.00">otrl:OTRL</text>
</g>
<!-- https://w3id.org/oseg/ont/otrl#OTRL6&#45;&gt;https://w3id.org/oseg/ont/otrl#OTRL -->
<g id="edge34" class="edge">
<title>https://w3id.org/oseg/ont/otrl#OTRL6&#45;&gt;https://w3id.org/oseg/ont/otrl#OTRL</title>
<path fill="none" stroke="black" d="M1204.88,-1152.83C1212.83,-1118.57 1231.36,-1038.65 1241.04,-996.91"/>
<polygon fill="black" stroke="black" points="1244.51,-997.46 1243.36,-986.93 1237.69,-995.88 1244.51,-997.46"/>
</g>
<!-- https://w3id.org/oseg/ont/otrl#OTRL1 -->
<g id="node3" class="node">
<title>https://w3id.org/oseg/ont/otrl#OTRL1</title>
<ellipse fill="none" stroke="#e377c2" cx="1407.41" cy="-1179.75" rx="67.35" ry="16.03"/>
<text text-anchor="middle" x="1407.41" y="-1176.05" font-family="Times,serif" font-size="14.00">otrl:OTRL1</text>
</g>
<!-- https://w3id.org/oseg/ont/otrl#OTRL1&#45;&gt;https://w3id.org/oseg/ont/otrl#OTRL -->
<g id="edge49" class="edge">
<title>https://w3id.org/oseg/ont/otrl#OTRL1&#45;&gt;https://w3id.org/oseg/ont/otrl#OTRL</title>
<path fill="none" stroke="black" d="M1395.1,-1163.68C1367.14,-1127.15 1298.7,-1037.75 1265.64,-994.57"/>
<polygon fill="black" stroke="black" points="1268.39,-992.4 1259.53,-986.58 1262.83,-996.65 1268.39,-992.4"/>
</g>
<!-- https://w3id.org/oseg/ont/otrl#ODRL4 -->
<g id="node4" class="node">
<title>https://w3id.org/oseg/ont/otrl#ODRL4</title>
<ellipse fill="none" stroke="#e377c2" cx="1028.88" cy="-518.96" rx="69.09" ry="16.03"/>
<text text-anchor="middle" x="1028.88" y="-515.26" font-family="Times,serif" font-size="14.00">otrl:ODRL4</text>
</g>
<!-- https://w3id.org/oseg/ont/otrl#ODRL4&#45;&gt;https://w3id.org/oseg/ont/otrl#ODRL -->
<g id="edge2" class="edge">
<title>https://w3id.org/oseg/ont/otrl#ODRL4&#45;&gt;https://w3id.org/oseg/ont/otrl#ODRL</title>
<path fill="none" stroke="black" d="M1001.72,-533.97C963.29,-555.2 892.98,-594.04 850.31,-617.62"/>
<polygon fill="black" stroke="black" points="848.44,-614.66 841.38,-622.56 851.83,-620.78 848.44,-614.66"/>
</g>
<!-- https://w3id.org/oseg/ont/otrl#ODRL2 -->
<g id="node5" class="node">
<title>https://w3id.org/oseg/ont/otrl#ODRL2</title>
<ellipse fill="none" stroke="#e377c2" cx="645.53" cy="-805.31" rx="69.09" ry="16.03"/>
<text text-anchor="middle" x="645.53" y="-801.61" font-family="Times,serif" font-size="14.00">otrl:ODRL2</text>
</g>
<!-- https://w3id.org/oseg/ont/otrl#ODRL2&#45;&gt;https://w3id.org/oseg/ont/otrl#ODRL -->
<g id="edge5" class="edge">
<title>https://w3id.org/oseg/ont/otrl#ODRL2&#45;&gt;https://w3id.org/oseg/ont/otrl#ODRL</title>
<path fill="none" stroke="black" d="M661.73,-789.22C691.82,-759.31 756.45,-695.08 791.2,-660.54"/>
<polygon fill="black" stroke="black" points="793.92,-662.77 798.54,-653.24 788.98,-657.81 793.92,-662.77"/>
</g>
<!-- https://w3id.org/oseg/ont/otrl#OTRL4 -->
<g id="node7" class="node">
<title>https://w3id.org/oseg/ont/otrl#OTRL4</title>
<ellipse fill="none" stroke="#e377c2" cx="1067.39" cy="-1121.85" rx="67.35" ry="16.03"/>
<text text-anchor="middle" x="1067.39" y="-1118.15" font-family="Times,serif" font-size="14.00">otrl:OTRL4</text>
</g>
<!-- https://w3id.org/oseg/ont/otrl#OTRL4&#45;&gt;https://w3id.org/oseg/ont/otrl#OTRL -->
<g id="edge4" class="edge">
<title>https://w3id.org/oseg/ont/otrl#OTRL4&#45;&gt;https://w3id.org/oseg/ont/otrl#OTRL</title>
<path fill="none" stroke="black" d="M1085.95,-1106.22C1118.06,-1079.18 1184.07,-1023.59 1220.89,-992.59"/>
<polygon fill="black" stroke="black" points="1223.32,-995.12 1228.72,-986 1218.81,-989.76 1223.32,-995.12"/>
</g>
<!-- https://w3id.org/oseg/ont/otrl#OTRL2 -->
<g id="node8" class="node">
<title>https://w3id.org/oseg/ont/otrl#OTRL2</title>
<ellipse fill="none" stroke="#e377c2" cx="1499.9" cy="-902.25" rx="67.35" ry="16.03"/>
<text text-anchor="middle" x="1499.9" y="-898.55" font-family="Times,serif" font-size="14.00">otrl:OTRL2</text>
</g>
<!-- https://w3id.org/oseg/ont/otrl#OTRL2&#45;&gt;https://w3id.org/oseg/ont/otrl#OTRL -->
<g id="edge3" class="edge">
<title>https://w3id.org/oseg/ont/otrl#OTRL2&#45;&gt;https://w3id.org/oseg/ont/otrl#OTRL</title>
<path fill="none" stroke="black" d="M1455.01,-914.36C1411.67,-926.06 1346.03,-943.77 1300.15,-956.16"/>
<polygon fill="black" stroke="black" points="1299.13,-952.81 1290.38,-958.79 1300.95,-959.57 1299.13,-952.81"/>
</g>
<!-- https://w3id.org/oseg/ont/otrl#OTRL5 -->
<g id="node9" class="node">
<title>https://w3id.org/oseg/ont/otrl#OTRL5</title>
<ellipse fill="none" stroke="#e377c2" cx="1250.93" cy="-768.35" rx="67.35" ry="16.03"/>
<text text-anchor="middle" x="1250.93" y="-764.65" font-family="Times,serif" font-size="14.00">otrl:OTRL5</text>
</g>
<!-- https://w3id.org/oseg/ont/otrl#OTRL5&#45;&gt;https://w3id.org/oseg/ont/otrl#OTRL -->
<g id="edge32" class="edge">
<title>https://w3id.org/oseg/ont/otrl#OTRL5&#45;&gt;https://w3id.org/oseg/ont/otrl#OTRL</title>
<path fill="none" stroke="black" d="M1250.63,-784.89C1249.98,-819.84 1248.46,-901.46 1247.67,-943.85"/>
<polygon fill="black" stroke="black" points="1244.17,-943.91 1247.48,-953.97 1251.17,-944.04 1244.17,-943.91"/>
</g>
<!-- https://w3id.org/oseg/ont/otrl#ODRL3 -->
<g id="node10" class="node">
<title>https://w3id.org/oseg/ont/otrl#ODRL3</title>
<ellipse fill="none" stroke="#e377c2" cx="787.01" cy="-389.42" rx="69.09" ry="16.03"/>
<text text-anchor="middle" x="787.01" y="-385.72" font-family="Times,serif" font-size="14.00">otrl:ODRL3</text>
</g>
<!-- https://w3id.org/oseg/ont/otrl#ODRL3&#45;&gt;https://w3id.org/oseg/ont/otrl#ODRL -->
<g id="edge39" class="edge">
<title>https://w3id.org/oseg/ont/otrl#ODRL3&#45;&gt;https://w3id.org/oseg/ont/otrl#ODRL</title>
<path fill="none" stroke="black" d="M788.81,-405.69C793.45,-447.65 805.85,-559.79 811.53,-611.12"/>
<polygon fill="black" stroke="black" points="808.06,-611.55 812.64,-621.11 815.01,-610.78 808.06,-611.55"/>
</g>
<!-- https://w3id.org/oseg/ont/otrl#ODRL3Star -->
<g id="node11" class="node">
<title>https://w3id.org/oseg/ont/otrl#ODRL3Star</title>
<ellipse fill="none" stroke="#e377c2" cx="631.25" cy="-438.35" rx="90.52" ry="16.03"/>
<text text-anchor="middle" x="631.25" y="-434.65" font-family="Times,serif" font-size="14.00">otrl:ODRL3Star</text>
</g>
<!-- https://w3id.org/oseg/ont/otrl#ODRL3Star&#45;&gt;https://w3id.org/oseg/ont/otrl#ODRL -->
<g id="edge46" class="edge">
<title>https://w3id.org/oseg/ont/otrl#ODRL3Star&#45;&gt;https://w3id.org/oseg/ont/otrl#ODRL</title>
<path fill="none" stroke="black" d="M646.24,-454.64C678.6,-489.81 755.13,-572.98 792.77,-613.89"/>
<polygon fill="black" stroke="black" points="790.41,-616.49 799.76,-621.48 795.56,-611.75 790.41,-616.49"/>
</g>
<!-- https://w3id.org/oseg/ont/otrl#OTRL3 -->
<g id="node12" class="node">
<title>https://w3id.org/oseg/ont/otrl#OTRL3</title>
<ellipse fill="none" stroke="#e377c2" cx="1477.08" cy="-1083" rx="67.35" ry="16.03"/>
<text text-anchor="middle" x="1477.08" y="-1079.3" font-family="Times,serif" font-size="14.00">otrl:OTRL3</text>
</g>
<!-- https://w3id.org/oseg/ont/otrl#OTRL3&#45;&gt;https://w3id.org/oseg/ont/otrl#OTRL -->
<g id="edge18" class="edge">
<title>https://w3id.org/oseg/ont/otrl#OTRL3&#45;&gt;https://w3id.org/oseg/ont/otrl#OTRL</title>
<path fill="none" stroke="black" d="M1447.03,-1068.29C1405.66,-1048.04 1331.17,-1011.57 1285.74,-989.33"/>
<polygon fill="black" stroke="black" points="1287.04,-986.07 1276.51,-984.81 1283.96,-992.35 1287.04,-986.07"/>
</g>
<!-- https://w3id.org/oseg/ont/otrl#goal -->
<g id="node14" class="node">
<title>https://w3id.org/oseg/ont/otrl#goal</title>
<ellipse fill="none" stroke="#e377c2" cx="1047.82" cy="-798.54" rx="54.39" ry="16.03"/>
<text text-anchor="middle" x="1047.82" y="-794.84" font-family="Times,serif" font-size="14.00">otrl:goal</text>
</g>
<!-- https://w3id.org/oseg/ont/otrl#goal&#45;&gt;https://w3id.org/oseg/ont/otrl#ODRL -->
<g id="edge19" class="edge">
<title>https://w3id.org/oseg/ont/otrl#goal&#45;&gt;https://w3id.org/oseg/ont/otrl#ODRL</title>
<path fill="none" stroke="black" d="M1025.86,-783.38C983.99,-754.48 892.64,-691.42 844.9,-658.46"/>
<polygon fill="black" stroke="black" points="846.73,-655.47 836.51,-652.67 842.75,-661.23 846.73,-655.47"/>
<text text-anchor="middle" x="849.38" y="-724.72" font-family="Times,serif" font-size="14.00">schema:domainIncludes</text>
</g>
<!-- https://w3id.org/oseg/ont/otrl#goal&#45;&gt;https://w3id.org/oseg/ont/otrl#OTRL -->
<g id="edge6" class="edge">
<title>https://w3id.org/oseg/ont/otrl#goal&#45;&gt;https://w3id.org/oseg/ont/otrl#OTRL</title>
<path fill="none" stroke="black" d="M1065.86,-814.1C1101.36,-844.7 1180.36,-912.83 1221.36,-948.19"/>
<polygon fill="black" stroke="black" points="1219.17,-950.92 1229.03,-954.8 1223.74,-945.62 1219.17,-950.92"/>
<text text-anchor="middle" x="1057.61" y="-884.94" font-family="Times,serif" font-size="14.00">schema:domainIncludes</text>
</g>
<!-- http://schema.org/Text -->
<g id="node17" class="node">
<title>http://schema.org/Text</title>
<ellipse fill="none" stroke="#e377c2" cx="1200.9" cy="-868.96" rx="74.91" ry="16.03"/>
<text text-anchor="middle" x="1200.9" y="-865.26" font-family="Times,serif" font-size="14.00">schema:Text</text>
</g>
<!-- https://w3id.org/oseg/ont/otrl#goal&#45;&gt;http://schema.org/Text -->
<g id="edge42" class="edge">
<title>https://w3id.org/oseg/ont/otrl#goal&#45;&gt;http://schema.org/Text</title>
<path fill="none" stroke="black" d="M1077.7,-812.28C1101.02,-823.01 1133.7,-838.04 1159.54,-849.93"/>
<polygon fill="black" stroke="black" points="1158.17,-853.16 1168.72,-854.16 1161.1,-846.8 1158.17,-853.16"/>
<text text-anchor="middle" x="1097.62" y="-819.91" font-family="Times,serif" font-size="14.00">range</text>
</g>
<!-- https://w3id.org/oseg/ont/otrl#exitCriteria -->
<g id="node15" class="node">
<title>https://w3id.org/oseg/ont/otrl#exitCriteria</title>
<ellipse fill="none" stroke="#e377c2" cx="1008.69" cy="-852.1" rx="91.43" ry="16.03"/>
<text text-anchor="middle" x="1008.69" y="-848.4" font-family="Times,serif" font-size="14.00">otrl:exitCriteria</text>
</g>
<!-- https://w3id.org/oseg/ont/otrl#exitCriteria&#45;&gt;https://w3id.org/oseg/ont/otrl#ODRL -->
<g id="edge51" class="edge">
<title>https://w3id.org/oseg/ont/otrl#exitCriteria&#45;&gt;https://w3id.org/oseg/ont/otrl#ODRL</title>
<path fill="none" stroke="black" d="M994.09,-835.97C960.12,-798.43 875.64,-705.07 835.84,-661.08"/>
<polygon fill="black" stroke="black" points="838.25,-658.54 828.95,-653.47 833.06,-663.23 838.25,-658.54"/>
<text text-anchor="middle" x="828.96" y="-752.33" font-family="Times,serif" font-size="14.00">schema:domainIncludes</text>
</g>
<!-- https://w3id.org/oseg/ont/otrl#exitCriteria&#45;&gt;https://w3id.org/oseg/ont/otrl#OTRL -->
<g id="edge41" class="edge">
<title>https://w3id.org/oseg/ont/otrl#exitCriteria&#45;&gt;https://w3id.org/oseg/ont/otrl#OTRL</title>
<path fill="none" stroke="black" d="M1039.87,-867.57C1083.34,-889.15 1162.08,-928.22 1209.01,-951.51"/>
<polygon fill="black" stroke="black" points="1207.72,-954.78 1218.23,-956.09 1210.83,-948.51 1207.72,-954.78"/>
<text text-anchor="middle" x="1038.44" y="-913.34" font-family="Times,serif" font-size="14.00">schema:domainIncludes</text>
</g>
<!-- https://w3id.org/oseg/ont/otrl#exitCriteria&#45;&gt;http://schema.org/Text -->
<g id="edge11" class="edge">
<title>https://w3id.org/oseg/ont/otrl#exitCriteria&#45;&gt;http://schema.org/Text</title>
<path fill="none" stroke="black" d="M1090.76,-859.3C1100.86,-860.19 1111.18,-861.09 1121.24,-861.97"/>
<polygon fill="black" stroke="black" points="1120.94,-865.46 1131.21,-862.85 1121.55,-858.49 1120.94,-865.46"/>
<text text-anchor="middle" x="1127" y="-849.44" font-family="Times,serif" font-size="14.00">range</text>
</g>
<!-- https://w3id.org/oseg/ont/1.1.0/otrl -->
<g id="node16" class="node">
<title>https://w3id.org/oseg/ont/1.1.0/otrl</title>
<ellipse fill="none" stroke="#e377c2" cx="1282.45" cy="-554.14" rx="50.82" ry="16.03"/>
<text text-anchor="middle" x="1282.45" y="-550.44" font-family="Times,serif" font-size="14.00">ns1:otrl</text>
</g>
<!-- https://orcid.org/0009&#45;0004&#45;3559&#45;6542 -->
<g id="node18" class="node">
<title>https://orcid.org/0009&#45;0004&#45;3559&#45;6542</title>
<ellipse fill="none" stroke="#e377c2" cx="1383.59" cy="-428.48" rx="113.69" ry="16.03"/>
<text text-anchor="middle" x="1383.59" y="-424.78" font-family="Times,serif" font-size="14.00">orcid:0009&#45;0004&#45;3...</text>
</g>
<!-- https://www.gnu.org/licenses/gpl&#45;3.0.txt -->
<g id="node19" class="node">
<title>https://www.gnu.org/licenses/gpl&#45;3.0.txt</title>
<ellipse fill="none" stroke="#e377c2" cx="1334.13" cy="-341.15" rx="85.62" ry="16.03"/>
<text text-anchor="middle" x="1334.13" y="-337.45" font-family="Times,serif" font-size="14.00">ns2:gpl&#45;3.0.txt</text>
</g>
<!-- https://w3id.org/oseg/ont/otrl -->
<g id="node20" class="node">
<title>https://w3id.org/oseg/ont/otrl</title>
<ellipse fill="none" stroke="#e377c2" cx="1320.85" cy="-382.34" rx="50.82" ry="16.03"/>
<text text-anchor="middle" x="1320.85" y="-378.64" font-family="Times,serif" font-size="14.00">ns3:otrl</text>
</g>
<!-- https://w3id.org/oseg/ont/otrl&#45;&gt;https://w3id.org/oseg/ont/1.1.0/otrl -->
<g id="edge10" class="edge">
<title>https://w3id.org/oseg/ont/otrl&#45;&gt;https://w3id.org/oseg/ont/1.1.0/otrl</title>
<path fill="none" stroke="black" d="M1317.17,-398.82C1310.49,-428.71 1296.32,-492.09 1288.3,-527.96"/>
<polygon fill="black" stroke="black" points="1284.88,-527.2 1286.12,-537.72 1291.72,-528.73 1284.88,-527.2"/>
<text text-anchor="middle" x="1251.23" y="-467.19" font-family="Times,serif" font-size="14.00">owl:versionIRI</text>
</g>
<!-- https://w3id.org/oseg/ont/otrl&#45;&gt;https://orcid.org/0009&#45;0004&#45;3559&#45;6542 -->
<g id="edge12" class="edge">
<title>https://w3id.org/oseg/ont/otrl&#45;&gt;https://orcid.org/0009&#45;0004&#45;3559&#45;6542</title>
<path fill="none" stroke="black" d="M1341.39,-397.45C1345.21,-400.26 1349.27,-403.25 1353.31,-406.22"/>
<polygon fill="black" stroke="black" points="1351.36,-409.12 1361.49,-412.22 1355.5,-403.48 1351.36,-409.12"/>
<text text-anchor="middle" x="1404.85" y="-390.63" font-family="Times,serif" font-size="14.00">dcterms:creator</text>
</g>
<!-- https://w3id.org/oseg/ont/otrl&#45;&gt;https://www.gnu.org/licenses/gpl&#45;3.0.txt -->
<g id="edge15" class="edge">
<title>https://w3id.org/oseg/ont/otrl&#45;&gt;https://www.gnu.org/licenses/gpl&#45;3.0.txt</title>
<path fill="none" stroke="black" d="M1333.1,-366.22C1333.13,-366.13 1333.16,-366.04 1333.19,-365.95"/>
<polygon fill="black" stroke="black" points="1336.17,-368.23 1335.62,-357.65 1329.45,-366.26 1336.17,-368.23"/>
<text text-anchor="middle" x="1276.64" y="-354.88" font-family="Times,serif" font-size="14.00">dcterms:license</text>
</g>
<!-- https://w3id.org/oseg/ont/otrl&#45;&gt;https://www.gnu.org/licenses/gpl&#45;3.0.txt -->
<g id="edge47" class="edge">
<title>https://w3id.org/oseg/ont/otrl&#45;&gt;https://www.gnu.org/licenses/gpl&#45;3.0.txt</title>
<path fill="none" stroke="black" d="M1319.33,-365.95C1319.35,-365.86 1319.37,-365.77 1319.4,-365.68"/>
<polygon fill="black" stroke="black" points="1322.41,-367.84 1321.89,-357.26 1315.69,-365.86 1322.41,-367.84"/>
<text text-anchor="middle" x="1354.36" y="-369.62" font-family="Times,serif" font-size="14.00">cc:license</text>
</g>
<!-- https://orcid.org/0000&#45;0002&#45;1611&#45;7129 -->
<g id="node21" class="node">
<title>https://orcid.org/0000&#45;0002&#45;1611&#45;7129</title>
<ellipse fill="none" stroke="#e377c2" cx="1546.13" cy="-296.67" rx="113.69" ry="16.03"/>
<text text-anchor="middle" x="1546.13" y="-292.97" font-family="Times,serif" font-size="14.00">orcid:0000&#45;0002&#45;1...</text>
</g>
<!-- https://w3id.org/oseg/ont/otrl&#45;&gt;https://orcid.org/0000&#45;0002&#45;1611&#45;7129 -->
<g id="edge31" class="edge">
<title>https://w3id.org/oseg/ont/otrl&#45;&gt;https://orcid.org/0000&#45;0002&#45;1611&#45;7129</title>
<path fill="none" stroke="black" d="M1353.61,-369.89C1391.05,-355.65 1452.74,-332.19 1496.18,-315.67"/>
<polygon fill="black" stroke="black" points="1497.61,-318.87 1505.71,-312.04 1495.12,-312.33 1497.61,-318.87"/>
<text text-anchor="middle" x="1482.39" y="-346.58" font-family="Times,serif" font-size="14.00">dcterms:creator</text>
</g>
<!-- http://id.loc.gov/vocabulary/iso639&#45;1/en -->
<g id="node23" class="node">
<title>http://id.loc.gov/vocabulary/iso639&#45;1/en</title>
<ellipse fill="none" stroke="#e377c2" cx="1164.9" cy="-332.47" rx="45.01" ry="16.03"/>
<text text-anchor="middle" x="1164.9" y="-328.77" font-family="Times,serif" font-size="14.00">ns4:en</text>
</g>
<!-- https://w3id.org/oseg/ont/otrl&#45;&gt;http://id.loc.gov/vocabulary/iso639&#45;1/en -->
<g id="edge36" class="edge">
<title>https://w3id.org/oseg/ont/otrl&#45;&gt;http://id.loc.gov/vocabulary/iso639&#45;1/en</title>
<path fill="none" stroke="black" d="M1284.68,-370.78C1261.9,-363.49 1232.37,-354.05 1208.33,-346.36"/>
<polygon fill="black" stroke="black" points="1209.33,-343.01 1198.74,-343.3 1207.2,-349.68 1209.33,-343.01"/>
<text text-anchor="middle" x="1182" y="-362.37" font-family="Times,serif" font-size="14.00">dcterms:language</text>
</g>
<!-- https://w3id.org/oseg/ont/otrl#Odrl4 -->
<g id="node22" class="node">
<title>https://w3id.org/oseg/ont/otrl#Odrl4</title>
<ellipse fill="none" stroke="#e377c2" cx="1011.71" cy="-564.13" rx="61.54" ry="16.03"/>
<text text-anchor="middle" x="1011.71" y="-560.43" font-family="Times,serif" font-size="14.00">otrl:Odrl4</text>
</g>
<!-- https://w3id.org/oseg/ont/otrl#Odrl4&#45;&gt;https://w3id.org/oseg/ont/otrl#ODRL4 -->
<g id="edge22" class="edge">
<title>https://w3id.org/oseg/ont/otrl#Odrl4&#45;&gt;https://w3id.org/oseg/ont/otrl#ODRL4</title>
<path fill="none" stroke="black" d="M1024.91,-548.12C1025.35,-547.09 1025.79,-546.04 1026.21,-544.98"/>
<polygon fill="black" stroke="black" points="1029.55,-546 1029.39,-535.41 1022.91,-543.79 1029.55,-546"/>
<text text-anchor="middle" x="983.06" y="-535.35" font-family="Times,serif" font-size="14.00">owl:sameAs</text>
</g>
<!-- https://w3id.org/oseg/ont/otrl#Odrl4&#45;&gt;https://w3id.org/oseg/ont/otrl#ODRL4 -->
<g id="edge45" class="edge">
<title>https://w3id.org/oseg/ont/otrl#Odrl4&#45;&gt;https://w3id.org/oseg/ont/otrl#ODRL4</title>
<path fill="none" stroke="black" d="M1011.16,-547.85C1011.44,-546.8 1011.75,-545.73 1012.08,-544.65"/>
<polygon fill="black" stroke="black" points="1015.48,-545.55 1015.69,-534.96 1008.92,-543.11 1015.48,-545.55"/>
<text text-anchor="middle" x="1091.62" y="-535.05" font-family="Times,serif" font-size="14.00">schema:supersededBy</text>
</g>
<!-- https://w3id.org/oseg/ont/otrl#Odrl2 -->
<g id="node24" class="node">
<title>https://w3id.org/oseg/ont/otrl#Odrl2</title>
<ellipse fill="none" stroke="black" cx="592.97" cy="-853.9" rx="196.65" ry="16.03"/>
<text text-anchor="middle" x="592.97" y="-850.2" font-family="Times,serif" font-size="14.00">https://w3id.org/oseg/ont/otrl#Odrl2</text>
</g>
<!-- https://w3id.org/oseg/ont/otrl#Odrl2&#45;&gt;https://w3id.org/oseg/ont/otrl#ODRL2 -->
<g id="edge1" class="edge">
<title>https://w3id.org/oseg/ont/otrl#Odrl2&#45;&gt;https://w3id.org/oseg/ont/otrl#ODRL2</title>
<path fill="none" stroke="black" d="M620.42,-837.65C623.63,-834.81 626.82,-831.81 629.79,-828.83"/>
<polygon fill="black" stroke="black" points="632.36,-831.21 636.67,-821.54 627.26,-826.41 632.36,-831.21"/>
<text text-anchor="middle" x="545.11" y="-822.04" font-family="Times,serif" font-size="14.00">schema:supersededBy</text>
</g>
<!-- https://w3id.org/oseg/ont/otrl#Odrl2&#45;&gt;https://w3id.org/oseg/ont/otrl#ODRL2 -->
<g id="edge40" class="edge">
<title>https://w3id.org/oseg/ont/otrl#Odrl2&#45;&gt;https://w3id.org/oseg/ont/otrl#ODRL2</title>
<path fill="none" stroke="black" d="M601.95,-837.54C604.83,-834.29 608.18,-830.83 611.72,-827.43"/>
<polygon fill="black" stroke="black" points="614.15,-829.94 619.16,-820.61 609.42,-824.78 614.15,-829.94"/>
<text text-anchor="middle" x="649.33" y="-821.29" font-family="Times,serif" font-size="14.00">owl:sameAs</text>
</g>
<!-- https://w3id.org/oseg/ont/otrl#Otrl4 -->
<g id="node25" class="node">
<title>https://w3id.org/oseg/ont/otrl#Otrl4</title>
<ellipse fill="none" stroke="black" cx="757.59" cy="-1323.81" rx="194.41" ry="16.03"/>
<text text-anchor="middle" x="757.59" y="-1320.11" font-family="Times,serif" font-size="14.00">https://w3id.org/oseg/ont/otrl#Otrl4</text>
</g>
<!-- https://w3id.org/oseg/ont/otrl#Otrl4&#45;&gt;https://w3id.org/oseg/ont/otrl#OTRL4 -->
<g id="edge7" class="edge">
<title>https://w3id.org/oseg/ont/otrl#Otrl4&#45;&gt;https://w3id.org/oseg/ont/otrl#OTRL4</title>
<path fill="none" stroke="black" d="M790.15,-1307.6C851.85,-1271.46 984.49,-1184.96 1041.04,-1143.94"/>
<polygon fill="black" stroke="black" points="1043.45,-1146.51 1049.44,-1137.76 1039.31,-1140.87 1043.45,-1146.51"/>
<text text-anchor="middle" x="835.6" y="-1229.57" font-family="Times,serif" font-size="14.00">schema:supersededBy</text>
</g>
<!-- https://w3id.org/oseg/ont/otrl#Otrl4&#45;&gt;https://w3id.org/oseg/ont/otrl#OTRL4 -->
<g id="edge9" class="edge">
<title>https://w3id.org/oseg/ont/otrl#Otrl4&#45;&gt;https://w3id.org/oseg/ont/otrl#OTRL4</title>
<path fill="none" stroke="black" d="M775.97,-1307.57C825.37,-1270.71 961.49,-1181.59 1028.77,-1141.63"/>
<polygon fill="black" stroke="black" points="1030.56,-1144.64 1037.4,-1136.55 1027.01,-1138.6 1030.56,-1144.64"/>
<text text-anchor="middle" x="859.87" y="-1213.4" font-family="Times,serif" font-size="14.00">owl:sameAs</text>
</g>
<!-- https://w3id.org/oseg/ont/otrl#Odrl -->
<g id="node26" class="node">
<title>https://w3id.org/oseg/ont/otrl#Odrl</title>
<ellipse fill="none" stroke="black" cx="451.97" cy="-653.86" rx="190.42" ry="16.03"/>
<text text-anchor="middle" x="451.97" y="-650.16" font-family="Times,serif" font-size="14.00">https://w3id.org/oseg/ont/otrl#Odrl</text>
</g>
<!-- https://w3id.org/oseg/ont/otrl#Odrl&#45;&gt;https://w3id.org/oseg/ont/otrl#ODRL -->
<g id="edge8" class="edge">
<title>https://w3id.org/oseg/ont/otrl#Odrl&#45;&gt;https://w3id.org/oseg/ont/otrl#ODRL</title>
<path fill="none" stroke="black" d="M641.21,-652.04C679.8,-650.24 717.91,-648.05 748.52,-645.79"/>
<polygon fill="black" stroke="black" points="748.89,-649.27 758.6,-645.02 748.36,-642.29 748.89,-649.27"/>
<text text-anchor="middle" x="694.86" y="-637.71" font-family="Times,serif" font-size="14.00">owl:sameAs</text>
</g>
<!-- https://w3id.org/oseg/ont/otrl#Odrl&#45;&gt;https://w3id.org/oseg/ont/otrl#ODRL -->
<g id="edge23" class="edge">
<title>https://w3id.org/oseg/ont/otrl#Odrl&#45;&gt;https://w3id.org/oseg/ont/otrl#ODRL</title>
<path fill="none" stroke="black" d="M578.2,-641.67C632.97,-638.61 695.15,-636.11 741.96,-635.2"/>
<polygon fill="black" stroke="black" points="742.07,-638.7 752.01,-635.02 741.95,-631.7 742.07,-638.7"/>
<text text-anchor="middle" x="580.08" y="-627.23" font-family="Times,serif" font-size="14.00">schema:supersededBy</text>
</g>
<!-- https://w3id.org/oseg/ont/otrl#Otrl5 -->
<g id="node27" class="node">
<title>https://w3id.org/oseg/ont/otrl#Otrl5</title>
<ellipse fill="none" stroke="black" cx="1271.19" cy="-720.05" rx="194.41" ry="16.03"/>
<text text-anchor="middle" x="1271.19" y="-716.35" font-family="Times,serif" font-size="14.00">https://w3id.org/oseg/ont/otrl#Otrl5</text>
</g>
<!-- https://w3id.org/oseg/ont/otrl#Otrl5&#45;&gt;https://w3id.org/oseg/ont/otrl#OTRL5 -->
<g id="edge13" class="edge">
<title>https://w3id.org/oseg/ont/otrl#Otrl5&#45;&gt;https://w3id.org/oseg/ont/otrl#OTRL5</title>
<path fill="none" stroke="black" d="M1257.21,-736.31C1256.29,-738.21 1255.41,-740.19 1254.59,-742.18"/>
<polygon fill="black" stroke="black" points="1251.13,-741.46 1251.06,-752.06 1257.72,-743.82 1251.13,-741.46"/>
<text text-anchor="middle" x="1298.4" y="-743.04" font-family="Times,serif" font-size="14.00">owl:sameAs</text>
</g>
<!-- https://w3id.org/oseg/ont/otrl#Otrl5&#45;&gt;https://w3id.org/oseg/ont/otrl#OTRL5 -->
<g id="edge14" class="edge">
<title>https://w3id.org/oseg/ont/otrl#Otrl5&#45;&gt;https://w3id.org/oseg/ont/otrl#OTRL5</title>
<path fill="none" stroke="black" d="M1271.03,-736.41C1270.39,-738.57 1269.62,-740.83 1268.77,-743.09"/>
<polygon fill="black" stroke="black" points="1265.55,-741.71 1264.81,-752.28 1271.98,-744.48 1265.55,-741.71"/>
<text text-anchor="middle" x="1189.9" y="-743.55" font-family="Times,serif" font-size="14.00">schema:supersededBy</text>
</g>
<!-- https://w3id.org/oseg/ont/otrl#Odrl3Star -->
<g id="node28" class="node">
<title>https://w3id.org/oseg/ont/otrl#Odrl3Star</title>
<ellipse fill="none" stroke="black" cx="327.97" cy="-138.84" rx="218.49" ry="16.03"/>
<text text-anchor="middle" x="327.97" y="-135.14" font-family="Times,serif" font-size="14.00">https://w3id.org/oseg/ont/otrl#Odrl3Star</text>
</g>
<!-- https://w3id.org/oseg/ont/otrl#Odrl3Star&#45;&gt;https://w3id.org/oseg/ont/otrl#ODRL3Star -->
<g id="edge16" class="edge">
<title>https://w3id.org/oseg/ont/otrl#Odrl3Star&#45;&gt;https://w3id.org/oseg/ont/otrl#ODRL3Star</title>
<path fill="none" stroke="black" d="M340.41,-155.5C385.22,-206.13 538.15,-357.57 602.47,-415.53"/>
<polygon fill="black" stroke="black" points="600.43,-418.4 610.22,-422.44 605.09,-413.18 600.43,-418.4"/>
<text text-anchor="middle" x="428.94" y="-289.31" font-family="Times,serif" font-size="14.00">owl:sameAs</text>
</g>
<!-- https://w3id.org/oseg/ont/otrl#Odrl3Star&#45;&gt;https://w3id.org/oseg/ont/otrl#ODRL3Star -->
<g id="edge17" class="edge">
<title>https://w3id.org/oseg/ont/otrl#Odrl3Star&#45;&gt;https://w3id.org/oseg/ont/otrl#ODRL3Star</title>
<path fill="none" stroke="black" d="M349.39,-155.09C406.03,-205.01 558.55,-355.54 612.29,-414.45"/>
<polygon fill="black" stroke="black" points="609.91,-417.04 619.2,-422.13 615.12,-412.36 609.91,-417.04"/>
<text text-anchor="middle" x="400.84" y="-273.57" font-family="Times,serif" font-size="14.00">schema:supersededBy</text>
</g>
<!-- https://w3id.org/oseg/ont/otrl#Otrl1 -->
<g id="node29" class="node">
<title>https://w3id.org/oseg/ont/otrl#Otrl1</title>
<ellipse fill="none" stroke="black" cx="1582.91" cy="-1501.5" rx="194.41" ry="16.03"/>
<text text-anchor="middle" x="1582.91" y="-1497.8" font-family="Times,serif" font-size="14.00">https://w3id.org/oseg/ont/otrl#Otrl1</text>
</g>
<!-- https://w3id.org/oseg/ont/otrl#Otrl1&#45;&gt;https://w3id.org/oseg/ont/otrl#OTRL1 -->
<g id="edge20" class="edge">
<title>https://w3id.org/oseg/ont/otrl#Otrl1&#45;&gt;https://w3id.org/oseg/ont/otrl#OTRL1</title>
<path fill="none" stroke="black" d="M1577.37,-1484.94C1553.77,-1432.06 1464.24,-1267.33 1425.35,-1204.45"/>
<polygon fill="black" stroke="black" points="1428.28,-1202.53 1419.99,-1195.93 1422.36,-1206.26 1428.28,-1202.53"/>
<text text-anchor="middle" x="1458.86" y="-1333.49" font-family="Times,serif" font-size="14.00">owl:sameAs</text>
</g>
<!-- https://w3id.org/oseg/ont/otrl#Otrl1&#45;&gt;https://w3id.org/oseg/ont/otrl#OTRL1 -->
<g id="edge38" class="edge">
<title>https://w3id.org/oseg/ont/otrl#Otrl1&#45;&gt;https://w3id.org/oseg/ont/otrl#OTRL1</title>
<path fill="none" stroke="black" d="M1570.04,-1484.88C1536.3,-1432.22 1447.19,-1269.15 1417.18,-1205.52"/>
<polygon fill="black" stroke="black" points="1420.25,-1203.81 1412.89,-1196.19 1413.89,-1206.74 1420.25,-1203.81"/>
<text text-anchor="middle" x="1413.61" y="-1349" font-family="Times,serif" font-size="14.00">schema:supersededBy</text>
</g>
<!-- https://w3id.org/oseg/ont/otrl#Otrl2 -->
<g id="node30" class="node">
<title>https://w3id.org/oseg/ont/otrl#Otrl2</title>
<ellipse fill="none" stroke="black" cx="1856.6" cy="-823.82" rx="194.41" ry="16.03"/>
<text text-anchor="middle" x="1856.6" y="-820.12" font-family="Times,serif" font-size="14.00">https://w3id.org/oseg/ont/otrl#Otrl2</text>
</g>
<!-- https://w3id.org/oseg/ont/otrl#Otrl2&#45;&gt;https://w3id.org/oseg/ont/otrl#OTRL2 -->
<g id="edge24" class="edge">
<title>https://w3id.org/oseg/ont/otrl#Otrl2&#45;&gt;https://w3id.org/oseg/ont/otrl#OTRL2</title>
<path fill="none" stroke="black" d="M1763.45,-838.17C1694.96,-851.89 1604.57,-872.15 1549.41,-886.36"/>
<polygon fill="black" stroke="black" points="1548.33,-883.03 1539.54,-888.95 1550.1,-889.8 1548.33,-883.03"/>
<text text-anchor="middle" x="1576.43" y="-866.07" font-family="Times,serif" font-size="14.00">schema:supersededBy</text>
</g>
<!-- https://w3id.org/oseg/ont/otrl#Otrl2&#45;&gt;https://w3id.org/oseg/ont/otrl#OTRL2 -->
<g id="edge25" class="edge">
<title>https://w3id.org/oseg/ont/otrl#Otrl2&#45;&gt;https://w3id.org/oseg/ont/otrl#OTRL2</title>
<path fill="none" stroke="black" d="M1807.29,-839.65C1745.46,-855.6 1639.1,-879.18 1569.13,-892.59"/>
<polygon fill="black" stroke="black" points="1568.26,-889.2 1559.08,-894.5 1569.56,-896.08 1568.26,-889.2"/>
<text text-anchor="middle" x="1730.71" y="-869.92" font-family="Times,serif" font-size="14.00">owl:sameAs</text>
</g>
<!-- https://w3id.org/oseg/ont/otrl#Otrl6 -->
<g id="node31" class="node">
<title>https://w3id.org/oseg/ont/otrl#Otrl6</title>
<ellipse fill="none" stroke="black" cx="1151.65" cy="-1220.56" rx="194.41" ry="16.03"/>
<text text-anchor="middle" x="1151.65" y="-1216.86" font-family="Times,serif" font-size="14.00">https://w3id.org/oseg/ont/otrl#Otrl6</text>
</g>
<!-- https://w3id.org/oseg/ont/otrl#Otrl6&#45;&gt;https://w3id.org/oseg/ont/otrl#OTRL6 -->
<g id="edge26" class="edge">
<title>https://w3id.org/oseg/ont/otrl#Otrl6&#45;&gt;https://w3id.org/oseg/ont/otrl#OTRL6</title>
<path fill="none" stroke="black" d="M1176.56,-1204.23C1180.14,-1200.74 1183.71,-1196.99 1186.99,-1193.28"/>
<polygon fill="black" stroke="black" points="1189.89,-1195.26 1193.6,-1185.33 1184.51,-1190.78 1189.89,-1195.26"/>
<text text-anchor="middle" x="1139.27" y="-1187.55" font-family="Times,serif" font-size="14.00">owl:sameAs</text>
</g>
<!-- https://w3id.org/oseg/ont/otrl#Otrl6&#45;&gt;https://w3id.org/oseg/ont/otrl#OTRL6 -->
<g id="edge28" class="edge">
<title>https://w3id.org/oseg/ont/otrl#Otrl6&#45;&gt;https://w3id.org/oseg/ont/otrl#OTRL6</title>
<path fill="none" stroke="black" d="M1159.38,-1204.03C1162.44,-1200.1 1166.12,-1195.86 1170.01,-1191.73"/>
<polygon fill="black" stroke="black" points="1172.62,-1194.06 1177.16,-1184.49 1167.64,-1189.15 1172.62,-1194.06"/>
<text text-anchor="middle" x="1244.7" y="-1186.68" font-family="Times,serif" font-size="14.00">schema:supersededBy</text>
</g>
<!-- https://w3id.org/oseg/ont/otrl#Odrl3 -->
<g id="node32" class="node">
<title>https://w3id.org/oseg/ont/otrl#Odrl3</title>
<ellipse fill="none" stroke="black" cx="717.03" cy="-16.29" rx="196.65" ry="16.03"/>
<text text-anchor="middle" x="717.03" y="-12.59" font-family="Times,serif" font-size="14.00">https://w3id.org/oseg/ont/otrl#Odrl3</text>
</g>
<!-- https://w3id.org/oseg/ont/otrl#Odrl3&#45;&gt;https://w3id.org/oseg/ont/otrl#ODRL3 -->
<g id="edge27" class="edge">
<title>https://w3id.org/oseg/ont/otrl#Odrl3&#45;&gt;https://w3id.org/oseg/ont/otrl#ODRL3</title>
<path fill="none" stroke="black" d="M717.14,-32.86C723.3,-91.73 760.4,-290.97 778.29,-363.09"/>
<polygon fill="black" stroke="black" points="775,-364.34 780.89,-373.15 781.78,-362.6 775,-364.34"/>
<text text-anchor="middle" x="667.71" y="-201.78" font-family="Times,serif" font-size="14.00">schema:supersededBy</text>
</g>
<!-- https://w3id.org/oseg/ont/otrl#Odrl3&#45;&gt;https://w3id.org/oseg/ont/otrl#ODRL3 -->
<g id="edge29" class="edge">
<title>https://w3id.org/oseg/ont/otrl#Odrl3&#45;&gt;https://w3id.org/oseg/ont/otrl#ODRL3</title>
<path fill="none" stroke="black" d="M723.2,-32.73C739.03,-91.39 776.6,-290.65 785.75,-362.94"/>
<polygon fill="black" stroke="black" points="782.29,-363.51 786.92,-373.04 789.24,-362.7 782.29,-363.51"/>
<text text-anchor="middle" x="711.97" y="-186.64" font-family="Times,serif" font-size="14.00">owl:sameAs</text>
</g>
<!-- https://w3id.org/oseg/ont/otrl#Otrl3 -->
<g id="node33" class="node">
<title>https://w3id.org/oseg/ont/otrl#Otrl3</title>
<ellipse fill="none" stroke="black" cx="1801.04" cy="-1249.97" rx="194.41" ry="16.03"/>
<text text-anchor="middle" x="1801.04" y="-1246.27" font-family="Times,serif" font-size="14.00">https://w3id.org/oseg/ont/otrl#Otrl3</text>
</g>
<!-- https://w3id.org/oseg/ont/otrl#Otrl3&#45;&gt;https://w3id.org/oseg/ont/otrl#OTRL3 -->
<g id="edge30" class="edge">
<title>https://w3id.org/oseg/ont/otrl#Otrl3&#45;&gt;https://w3id.org/oseg/ont/otrl#OTRL3</title>
<path fill="none" stroke="black" d="M1777.9,-1233.76C1724.7,-1202.33 1593.02,-1134.1 1522.83,-1101.2"/>
<polygon fill="black" stroke="black" points="1523.89,-1097.83 1513.34,-1096.8 1520.94,-1104.18 1523.89,-1097.83"/>
<text text-anchor="middle" x="1607.86" y="-1156.28" font-family="Times,serif" font-size="14.00">owl:sameAs</text>
</g>
<!-- https://w3id.org/oseg/ont/otrl#Otrl3&#45;&gt;https://w3id.org/oseg/ont/otrl#OTRL3 -->
<g id="edge48" class="edge">
<title>https://w3id.org/oseg/ont/otrl#Otrl3&#45;&gt;https://w3id.org/oseg/ont/otrl#OTRL3</title>
<path fill="none" stroke="black" d="M1760.19,-1234.05C1694.41,-1203.53 1566.53,-1137.51 1507.84,-1103.66"/>
<polygon fill="black" stroke="black" points="1509.43,-1100.53 1499.03,-1098.51 1505.9,-1106.58 1509.43,-1100.53"/>
<text text-anchor="middle" x="1554.01" y="-1172.65" font-family="Times,serif" font-size="14.00">schema:supersededBy</text>
</g>
<!-- https://w3id.org/oseg/ont/otrl#Odrl5 -->
<g id="node34" class="node">
<title>https://w3id.org/oseg/ont/otrl#Odrl5</title>
<ellipse fill="none" stroke="black" cx="740.17" cy="-504.46" rx="196.65" ry="16.03"/>
<text text-anchor="middle" x="740.17" y="-500.76" font-family="Times,serif" font-size="14.00">https://w3id.org/oseg/ont/otrl#Odrl5</text>
</g>
<!-- https://w3id.org/oseg/ont/otrl#Odrl5&#45;&gt;https://w3id.org/oseg/ont/otrl#Odrl4 -->
<g id="edge33" class="edge">
<title>https://w3id.org/oseg/ont/otrl#Odrl5&#45;&gt;https://w3id.org/oseg/ont/otrl#Odrl4</title>
<path fill="none" stroke="black" d="M787.57,-520.32C831.31,-531.68 896.66,-546.23 945.53,-555.59"/>
<polygon fill="black" stroke="black" points="944.91,-559.03 955.38,-557.44 946.21,-552.15 944.91,-559.03"/>
<text text-anchor="middle" x="786.55" y="-541.75" font-family="Times,serif" font-size="14.00">schema:supersededBy</text>
</g>
<!-- https://w3id.org/oseg/ont/otrl#Odrl5&#45;&gt;https://w3id.org/oseg/ont/otrl#Odrl4 -->
<g id="edge37" class="edge">
<title>https://w3id.org/oseg/ont/otrl#Odrl5&#45;&gt;https://w3id.org/oseg/ont/otrl#Odrl4</title>
<path fill="none" stroke="black" d="M835.38,-518.78C879.19,-527.75 929.2,-539.14 964.75,-548.39"/>
<polygon fill="black" stroke="black" points="964.27,-551.88 974.83,-551.06 966.06,-545.11 964.27,-551.88"/>
<text text-anchor="middle" x="857.57" y="-522.38" font-family="Times,serif" font-size="14.00">owl:sameAs</text>
</g>
<!-- https://w3id.org/oseg/ont/otrl#Odrl1 -->
<g id="node35" class="node">
<title>https://w3id.org/oseg/ont/otrl#Odrl1</title>
<ellipse fill="none" stroke="black" cx="196.11" cy="-524.35" rx="196.65" ry="16.03"/>
<text text-anchor="middle" x="196.11" y="-520.65" font-family="Times,serif" font-size="14.00">https://w3id.org/oseg/ont/otrl#Odrl1</text>
</g>
<!-- https://w3id.org/oseg/ont/otrl#Odrl1&#45;&gt;https://w3id.org/oseg/ont/otrl#ODRL1 -->
<g id="edge35" class="edge">
<title>https://w3id.org/oseg/ont/otrl#Odrl1&#45;&gt;https://w3id.org/oseg/ont/otrl#ODRL1</title>
<path fill="none" stroke="black" d="M259.04,-539.76C324.87,-552.35 428.22,-569.1 498.54,-578.66"/>
<polygon fill="black" stroke="black" points="498.29,-582.16 508.67,-580.01 499.22,-575.22 498.29,-582.16"/>
<text text-anchor="middle" x="298.79" y="-563.01" font-family="Times,serif" font-size="14.00">schema:supersededBy</text>
</g>
<!-- https://w3id.org/oseg/ont/otrl#Odrl1&#45;&gt;https://w3id.org/oseg/ont/otrl#ODRL1 -->
<g id="edge50" class="edge">
<title>https://w3id.org/oseg/ont/otrl#Odrl1&#45;&gt;https://w3id.org/oseg/ont/otrl#ODRL1</title>
<path fill="none" stroke="black" d="M316.05,-537.28C383.76,-547.31 465.21,-560.87 518.33,-571.21"/>
<polygon fill="black" stroke="black" points="517.74,-574.66 528.23,-573.16 519.1,-567.79 517.74,-574.66"/>
<text text-anchor="middle" x="459.69" y="-558.04" font-family="Times,serif" font-size="14.00">owl:sameAs</text>
</g>
<!-- https://w3id.org/oseg/ont/otrl#Otrl -->
<g id="node36" class="node">
<title>https://w3id.org/oseg/ont/otrl#Otrl</title>
<ellipse fill="none" stroke="black" cx="1617.84" cy="-984.5" rx="188.18" ry="16.03"/>
<text text-anchor="middle" x="1617.84" y="-980.8" font-family="Times,serif" font-size="14.00">https://w3id.org/oseg/ont/otrl#Otrl</text>
</g>
<!-- https://w3id.org/oseg/ont/otrl#Otrl&#45;&gt;https://w3id.org/oseg/ont/otrl#OTRL -->
<g id="edge43" class="edge">
<title>https://w3id.org/oseg/ont/otrl#Otrl&#45;&gt;https://w3id.org/oseg/ont/otrl#OTRL</title>
<path fill="none" stroke="black" d="M1485.06,-972.96C1428.4,-970.27 1364.59,-968.21 1317.34,-967.69"/>
<polygon fill="black" stroke="black" points="1317.25,-964.19 1307.22,-967.6 1317.18,-971.19 1317.25,-964.19"/>
<text text-anchor="middle" x="1358.7" y="-959.12" font-family="Times,serif" font-size="14.00">owl:sameAs</text>
</g>
<!-- https://w3id.org/oseg/ont/otrl#Otrl&#45;&gt;https://w3id.org/oseg/ont/otrl#OTRL -->
<g id="edge44" class="edge">
<title>https://w3id.org/oseg/ont/otrl#Otrl&#45;&gt;https://w3id.org/oseg/ont/otrl#OTRL</title>
<path fill="none" stroke="black" d="M1429.54,-984.12C1387.5,-982.5 1345.66,-980.44 1312.68,-978.24"/>
<polygon fill="black" stroke="black" points="1312.51,-974.72 1302.3,-977.52 1312.03,-981.7 1312.51,-974.72"/>
<text text-anchor="middle" x="1291.11" y="-984.98" font-family="Times,serif" font-size="14.00">schema:supersededBy</text>
</g>
</g>
</svg>
