<?xml version="1.0" encoding="UTF-8" standalone="no"?>
<!DOCTYPE svg PUBLIC "-//W3C//DTD SVG 1.1//EN"
 "http://www.w3.org/Graphics/SVG/1.1/DTD/svg11.dtd">
<!-- Generated by graphviz version 2.43.0 (0)
 -->
<!-- Title: G Pages: 1 -->
<svg width="2434pt" height="1802pt"
 viewBox="0.00 0.00 2434.00 1802.00" xmlns="http://www.w3.org/2000/svg" xmlns:xlink="http://www.w3.org/1999/xlink">
<g id="graph0" class="graph" transform="scale(1 1) rotate(0) translate(4 1798)">
<title>G</title>
<polygon fill="white" stroke="transparent" points="-4,4 -4,-1798 2430,-1798 2430,4 -4,4"/>
<!-- https://w3id.org/oseg/ont/osh/otrl#OTRL1 -->
<g id="node1" class="node">
<title>https://w3id.org/oseg/ont/osh/otrl#OTRL1</title>
<ellipse fill="none" stroke="#e377c2" cx="1661.97" cy="-656.94" rx="67.35" ry="16.03"/>
<text text-anchor="middle" x="1661.97" y="-653.24" font-family="Times,serif" font-size="14.00">otrl:OTRL1</text>
</g>
<!-- https://w3id.org/oseg/ont/osh/otrl#OTRL -->
<g id="node3" class="node">
<title>https://w3id.org/oseg/ont/osh/otrl#OTRL</title>
<ellipse fill="none" stroke="#e377c2" cx="1537.64" cy="-548.47" rx="60.62" ry="16.03"/>
<text text-anchor="middle" x="1537.64" y="-544.77" font-family="Times,serif" font-size="14.00">otrl:OTRL</text>
</g>
<!-- https://w3id.org/oseg/ont/osh/otrl#OTRL1&#45;&gt;https://w3id.org/oseg/ont/osh/otrl#OTRL -->
<g id="edge41" class="edge">
<title>https://w3id.org/oseg/ont/osh/otrl#OTRL1&#45;&gt;https://w3id.org/oseg/ont/osh/otrl#OTRL</title>
<path fill="none" stroke="black" d="M1643.89,-641.17C1622.71,-622.69 1587.47,-591.94 1563.43,-570.97"/>
<polygon fill="black" stroke="black" points="1565.58,-568.2 1555.74,-564.26 1560.98,-573.47 1565.58,-568.2"/>
</g>
<!-- https://w3id.org/oseg/ont/osh/otrl#OTRL2 -->
<g id="node2" class="node">
<title>https://w3id.org/oseg/ont/osh/otrl#OTRL2</title>
<ellipse fill="none" stroke="#e377c2" cx="1808.52" cy="-626.27" rx="67.35" ry="16.03"/>
<text text-anchor="middle" x="1808.52" y="-622.57" font-family="Times,serif" font-size="14.00">otrl:OTRL2</text>
</g>
<!-- https://w3id.org/oseg/ont/osh/otrl#OTRL2&#45;&gt;https://w3id.org/oseg/ont/osh/otrl#OTRL -->
<g id="edge42" class="edge">
<title>https://w3id.org/oseg/ont/osh/otrl#OTRL2&#45;&gt;https://w3id.org/oseg/ont/osh/otrl#OTRL</title>
<path fill="none" stroke="black" d="M1765,-613.77C1717.05,-600 1640,-577.87 1589.09,-563.25"/>
<polygon fill="black" stroke="black" points="1589.85,-559.83 1579.28,-560.43 1587.92,-566.55 1589.85,-559.83"/>
</g>
<!-- https://w3id.org/oseg/ont/osh/otrl#ODRL -->
<g id="node4" class="node">
<title>https://w3id.org/oseg/ont/osh/otrl#ODRL</title>
<ellipse fill="none" stroke="#e377c2" cx="1001.12" cy="-843.62" rx="62.87" ry="16.03"/>
<text text-anchor="middle" x="1001.12" y="-839.92" font-family="Times,serif" font-size="14.00">otrl:ODRL</text>
</g>
<!-- https://w3id.org/oseg/ont/osh/otrl#ODRL2 -->
<g id="node5" class="node">
<title>https://w3id.org/oseg/ont/osh/otrl#ODRL2</title>
<ellipse fill="none" stroke="#e377c2" cx="1120.09" cy="-1037.09" rx="69.09" ry="16.03"/>
<text text-anchor="middle" x="1120.09" y="-1033.39" font-family="Times,serif" font-size="14.00">otrl:ODRL2</text>
</g>
<!-- https://w3id.org/oseg/ont/osh/otrl#ODRL2&#45;&gt;https://w3id.org/oseg/ont/osh/otrl#ODRL -->
<g id="edge17" class="edge">
<title>https://w3id.org/oseg/ont/osh/otrl#ODRL2&#45;&gt;https://w3id.org/oseg/ont/osh/otrl#ODRL</title>
<path fill="none" stroke="black" d="M1110.16,-1020.93C1089.38,-987.14 1041.23,-908.84 1016.45,-868.55"/>
<polygon fill="black" stroke="black" points="1019.33,-866.55 1011.11,-859.87 1013.37,-870.22 1019.33,-866.55"/>
</g>
<!-- https://w3id.org/oseg/ont/osh/otrl#ODRL1 -->
<g id="node6" class="node">
<title>https://w3id.org/oseg/ont/osh/otrl#ODRL1</title>
<ellipse fill="none" stroke="#e377c2" cx="778.47" cy="-678.72" rx="69.09" ry="16.03"/>
<text text-anchor="middle" x="778.47" y="-675.02" font-family="Times,serif" font-size="14.00">otrl:ODRL1</text>
</g>
<!-- https://w3id.org/oseg/ont/osh/otrl#ODRL1&#45;&gt;https://w3id.org/oseg/ont/osh/otrl#ODRL -->
<g id="edge2" class="edge">
<title>https://w3id.org/oseg/ont/osh/otrl#ODRL1&#45;&gt;https://w3id.org/oseg/ont/osh/otrl#ODRL</title>
<path fill="none" stroke="black" d="M799.41,-694.24C839.28,-723.76 926.15,-788.09 971.78,-821.89"/>
<polygon fill="black" stroke="black" points="969.95,-824.88 980.07,-828.02 974.11,-819.26 969.95,-824.88"/>
</g>
<!-- https://w3id.org/oseg/ont/osh/otrl#ODRL4 -->
<g id="node7" class="node">
<title>https://w3id.org/oseg/ont/osh/otrl#ODRL4</title>
<ellipse fill="none" stroke="#e377c2" cx="918.85" cy="-1132.73" rx="69.09" ry="16.03"/>
<text text-anchor="middle" x="918.85" y="-1129.03" font-family="Times,serif" font-size="14.00">otrl:ODRL4</text>
</g>
<!-- https://w3id.org/oseg/ont/osh/otrl#ODRL4&#45;&gt;https://w3id.org/oseg/ont/osh/otrl#ODRL -->
<g id="edge46" class="edge">
<title>https://w3id.org/oseg/ont/osh/otrl#ODRL4&#45;&gt;https://w3id.org/oseg/ont/osh/otrl#ODRL</title>
<path fill="none" stroke="black" d="M923.51,-1116.36C937.14,-1068.47 977.01,-928.34 993.67,-869.79"/>
<polygon fill="black" stroke="black" points="997.04,-870.74 996.41,-860.17 990.31,-868.83 997.04,-870.74"/>
</g>
<!-- https://w3id.org/oseg/ont/osh/otrl#OTRL5 -->
<g id="node8" class="node">
<title>https://w3id.org/oseg/ont/osh/otrl#OTRL5</title>
<ellipse fill="none" stroke="#e377c2" cx="1736.55" cy="-337.97" rx="67.35" ry="16.03"/>
<text text-anchor="middle" x="1736.55" y="-334.27" font-family="Times,serif" font-size="14.00">otrl:OTRL5</text>
</g>
<!-- https://w3id.org/oseg/ont/osh/otrl#OTRL5&#45;&gt;https://w3id.org/oseg/ont/osh/otrl#OTRL -->
<g id="edge32" class="edge">
<title>https://w3id.org/oseg/ont/osh/otrl#OTRL5&#45;&gt;https://w3id.org/oseg/ont/osh/otrl#OTRL</title>
<path fill="none" stroke="black" d="M1721.28,-354.14C1686.33,-391.12 1600.47,-481.98 1559.76,-525.07"/>
<polygon fill="black" stroke="black" points="1557.02,-522.86 1552.7,-532.54 1562.11,-527.67 1557.02,-522.86"/>
</g>
<!-- https://w3id.org/oseg/ont/osh/otrl#ODRL3 -->
<g id="node9" class="node">
<title>https://w3id.org/oseg/ont/osh/otrl#ODRL3</title>
<ellipse fill="none" stroke="#e377c2" cx="783.83" cy="-1012.87" rx="69.09" ry="16.03"/>
<text text-anchor="middle" x="783.83" y="-1009.17" font-family="Times,serif" font-size="14.00">otrl:ODRL3</text>
</g>
<!-- https://w3id.org/oseg/ont/osh/otrl#ODRL3&#45;&gt;https://w3id.org/oseg/ont/osh/otrl#ODRL -->
<g id="edge16" class="edge">
<title>https://w3id.org/oseg/ont/osh/otrl#ODRL3&#45;&gt;https://w3id.org/oseg/ont/osh/otrl#ODRL</title>
<path fill="none" stroke="black" d="M803.88,-997.25C842.77,-966.96 928.52,-900.17 973.04,-865.49"/>
<polygon fill="black" stroke="black" points="975.38,-868.1 981.11,-859.2 971.07,-862.58 975.38,-868.1"/>
</g>
<!-- https://w3id.org/oseg/ont/osh/otrl#OTRL6 -->
<g id="node10" class="node">
<title>https://w3id.org/oseg/ont/osh/otrl#OTRL6</title>
<ellipse fill="none" stroke="#e377c2" cx="1341.32" cy="-354.14" rx="67.35" ry="16.03"/>
<text text-anchor="middle" x="1341.32" y="-350.44" font-family="Times,serif" font-size="14.00">otrl:OTRL6</text>
</g>
<!-- https://w3id.org/oseg/ont/osh/otrl#OTRL6&#45;&gt;https://w3id.org/oseg/ont/osh/otrl#OTRL -->
<g id="edge8" class="edge">
<title>https://w3id.org/oseg/ont/osh/otrl#OTRL6&#45;&gt;https://w3id.org/oseg/ont/osh/otrl#OTRL</title>
<path fill="none" stroke="black" d="M1357.38,-370.04C1391.98,-404.29 1473.67,-485.15 1514.12,-525.18"/>
<polygon fill="black" stroke="black" points="1512.06,-528.07 1521.63,-532.62 1516.99,-523.1 1512.06,-528.07"/>
</g>
<!-- https://w3id.org/oseg/ont/osh/otrl#OTRL4 -->
<g id="node11" class="node">
<title>https://w3id.org/oseg/ont/osh/otrl#OTRL4</title>
<ellipse fill="none" stroke="#e377c2" cx="1565.9" cy="-310.09" rx="67.35" ry="16.03"/>
<text text-anchor="middle" x="1565.9" y="-306.39" font-family="Times,serif" font-size="14.00">otrl:OTRL4</text>
</g>
<!-- https://w3id.org/oseg/ont/osh/otrl#OTRL4&#45;&gt;https://w3id.org/oseg/ont/osh/otrl#OTRL -->
<g id="edge39" class="edge">
<title>https://w3id.org/oseg/ont/osh/otrl#OTRL4&#45;&gt;https://w3id.org/oseg/ont/osh/otrl#OTRL</title>
<path fill="none" stroke="black" d="M1563.96,-326.47C1559.15,-367.04 1546.65,-472.47 1540.78,-522.02"/>
<polygon fill="black" stroke="black" points="1537.3,-521.63 1539.6,-531.97 1544.25,-522.45 1537.3,-521.63"/>
</g>
<!-- https://w3id.org/oseg/ont/osh/otrl#ODRL3Star -->
<g id="node12" class="node">
<title>https://w3id.org/oseg/ont/osh/otrl#ODRL3Star</title>
<ellipse fill="none" stroke="#e377c2" cx="698.62" cy="-816.65" rx="90.52" ry="16.03"/>
<text text-anchor="middle" x="698.62" y="-812.95" font-family="Times,serif" font-size="14.00">otrl:ODRL3Star</text>
</g>
<!-- https://w3id.org/oseg/ont/osh/otrl#ODRL3Star&#45;&gt;https://w3id.org/oseg/ont/osh/otrl#ODRL -->
<g id="edge4" class="edge">
<title>https://w3id.org/oseg/ont/osh/otrl#ODRL3Star&#45;&gt;https://w3id.org/oseg/ont/osh/otrl#ODRL</title>
<path fill="none" stroke="black" d="M780.08,-823.91C827.42,-828.13 886.45,-833.39 931.59,-837.42"/>
<polygon fill="black" stroke="black" points="931.32,-840.91 941.59,-838.31 931.94,-833.94 931.32,-840.91"/>
</g>
<!-- https://w3id.org/oseg/ont/osh/otrl#OTRL3 -->
<g id="node13" class="node">
<title>https://w3id.org/oseg/ont/osh/otrl#OTRL3</title>
<ellipse fill="none" stroke="#e377c2" cx="1805" cy="-470.98" rx="67.35" ry="16.03"/>
<text text-anchor="middle" x="1805" y="-467.28" font-family="Times,serif" font-size="14.00">otrl:OTRL3</text>
</g>
<!-- https://w3id.org/oseg/ont/osh/otrl#OTRL3&#45;&gt;https://w3id.org/oseg/ont/osh/otrl#OTRL -->
<g id="edge21" class="edge">
<title>https://w3id.org/oseg/ont/osh/otrl#OTRL3&#45;&gt;https://w3id.org/oseg/ont/osh/otrl#OTRL</title>
<path fill="none" stroke="black" d="M1761.75,-483.51C1714.5,-497.21 1638.89,-519.13 1588.75,-533.66"/>
<polygon fill="black" stroke="black" points="1587.7,-530.32 1579.07,-536.46 1589.65,-537.04 1587.7,-530.32"/>
</g>
<!-- https://w3id.org/oseg/ont/osh/otrl -->
<g id="node14" class="node">
<title>https://w3id.org/oseg/ont/osh/otrl</title>
<ellipse fill="none" stroke="#e377c2" cx="1491.32" cy="-1158.47" rx="50.82" ry="16.03"/>
<text text-anchor="middle" x="1491.32" y="-1154.77" font-family="Times,serif" font-size="14.00">ns1:otrl</text>
</g>
<!-- https://w3id.org/oseg/ont/osh/otrl&#45;&gt;https://w3id.org/oseg/ont/osh/otrl -->
<g id="edge9" class="edge">
<title>https://w3id.org/oseg/ont/osh/otrl&#45;&gt;https://w3id.org/oseg/ont/osh/otrl</title>
<path fill="none" stroke="black" d="M1538.02,-1165.17C1550.63,-1164.82 1560.23,-1162.59 1560.23,-1158.47 1560.23,-1155.58 1555.48,-1153.62 1548.28,-1152.58"/>
<polygon fill="black" stroke="black" points="1548.26,-1149.07 1538.02,-1151.77 1547.71,-1156.05 1548.26,-1149.07"/>
<text text-anchor="middle" x="1611.73" y="-1154.77" font-family="Times,serif" font-size="14.00">owl:versionIRI</text>
</g>
<!-- https://www.gnu.org/licenses/gpl&#45;3.0.txt -->
<g id="node17" class="node">
<title>https://www.gnu.org/licenses/gpl&#45;3.0.txt</title>
<ellipse fill="none" stroke="#e377c2" cx="1638.95" cy="-1136.42" rx="85.62" ry="16.03"/>
<text text-anchor="middle" x="1638.95" y="-1132.72" font-family="Times,serif" font-size="14.00">ns2:gpl&#45;3.0.txt</text>
</g>
<!-- https://w3id.org/oseg/ont/osh/otrl&#45;&gt;https://www.gnu.org/licenses/gpl&#45;3.0.txt -->
<g id="edge31" class="edge">
<title>https://w3id.org/oseg/ont/osh/otrl&#45;&gt;https://www.gnu.org/licenses/gpl&#45;3.0.txt</title>
<path fill="none" stroke="black" d="M1542.25,-1157.36C1554.84,-1155.84 1568.42,-1153.87 1581.31,-1151.72"/>
<polygon fill="black" stroke="black" points="1582.21,-1155.12 1591.46,-1149.96 1581.01,-1148.22 1582.21,-1155.12"/>
<text text-anchor="middle" x="1618.28" y="-1158.34" font-family="Times,serif" font-size="14.00">dcterms:license</text>
</g>
<!-- https://w3id.org/oseg/ont/osh/otrl&#45;&gt;https://www.gnu.org/licenses/gpl&#45;3.0.txt -->
<g id="edge37" class="edge">
<title>https://w3id.org/oseg/ont/osh/otrl&#45;&gt;https://www.gnu.org/licenses/gpl&#45;3.0.txt</title>
<path fill="none" stroke="black" d="M1527.69,-1147.02C1533.9,-1145.79 1540.6,-1144.57 1547.51,-1143.41"/>
<polygon fill="black" stroke="black" points="1548.45,-1146.8 1557.76,-1141.74 1547.33,-1139.89 1548.45,-1146.8"/>
<text text-anchor="middle" x="1520.1" y="-1134.01" font-family="Times,serif" font-size="14.00">cc:license</text>
</g>
<!-- https://w3id.org/oseg/ont/osh/otrl#Odrl4 -->
<g id="node15" class="node">
<title>https://w3id.org/oseg/ont/osh/otrl#Odrl4</title>
<ellipse fill="none" stroke="#e377c2" cx="851.63" cy="-1386.93" rx="61.54" ry="16.03"/>
<text text-anchor="middle" x="851.63" y="-1383.23" font-family="Times,serif" font-size="14.00">otrl:Odrl4</text>
</g>
<!-- https://w3id.org/oseg/ont/osh/otrl#Odrl4&#45;&gt;https://w3id.org/oseg/ont/osh/otrl#ODRL4 -->
<g id="edge1" class="edge">
<title>https://w3id.org/oseg/ont/osh/otrl#Odrl4&#45;&gt;https://w3id.org/oseg/ont/osh/otrl#ODRL4</title>
<path fill="none" stroke="black" d="M859.62,-1370.78C875.03,-1328.05 905.99,-1211.85 916.24,-1159.23"/>
<polygon fill="black" stroke="black" points="919.7,-1159.77 918.05,-1149.31 912.81,-1158.52 919.7,-1159.77"/>
<text text-anchor="middle" x="807.93" y="-1268.8" font-family="Times,serif" font-size="14.00">schema:supersededBy</text>
</g>
<!-- https://w3id.org/oseg/ont/osh/otrl#Odrl4&#45;&gt;https://w3id.org/oseg/ont/osh/otrl#ODRL4 -->
<g id="edge36" class="edge">
<title>https://w3id.org/oseg/ont/osh/otrl#Odrl4&#45;&gt;https://w3id.org/oseg/ont/osh/otrl#ODRL4</title>
<path fill="none" stroke="black" d="M852.4,-1370.53C859.58,-1327.45 890.09,-1210.89 907.49,-1158.66"/>
<polygon fill="black" stroke="black" points="910.83,-1159.7 910.78,-1149.11 904.21,-1157.42 910.83,-1159.7"/>
<text text-anchor="middle" x="837.44" y="-1253.39" font-family="Times,serif" font-size="14.00">owl:sameAs</text>
</g>
<!-- http://schema.org/Text -->
<g id="node16" class="node">
<title>http://schema.org/Text</title>
<ellipse fill="none" stroke="#e377c2" cx="1097.98" cy="-553.68" rx="74.91" ry="16.03"/>
<text text-anchor="middle" x="1097.98" y="-549.98" font-family="Times,serif" font-size="14.00">schema:Text</text>
</g>
<!-- https://w3id.org/oseg/ont/osh/otrl#goal -->
<g id="node18" class="node">
<title>https://w3id.org/oseg/ont/osh/otrl#goal</title>
<ellipse fill="none" stroke="#e377c2" cx="1251" cy="-669.77" rx="54.39" ry="16.03"/>
<text text-anchor="middle" x="1251" y="-666.07" font-family="Times,serif" font-size="14.00">otrl:goal</text>
</g>
<!-- https://w3id.org/oseg/ont/osh/otrl#goal&#45;&gt;https://w3id.org/oseg/ont/osh/otrl#OTRL -->
<g id="edge48" class="edge">
<title>https://w3id.org/oseg/ont/osh/otrl#goal&#45;&gt;https://w3id.org/oseg/ont/osh/otrl#OTRL</title>
<path fill="none" stroke="black" d="M1282.49,-656.44C1334.29,-634.52 1437.5,-590.85 1495.52,-566.3"/>
<polygon fill="black" stroke="black" points="1496.93,-569.5 1504.77,-562.38 1494.2,-563.05 1496.93,-569.5"/>
<text text-anchor="middle" x="1303.01" y="-615.17" font-family="Times,serif" font-size="14.00">schema:domainIncludes</text>
</g>
<!-- https://w3id.org/oseg/ont/osh/otrl#goal&#45;&gt;https://w3id.org/oseg/ont/osh/otrl#ODRL -->
<g id="edge23" class="edge">
<title>https://w3id.org/oseg/ont/osh/otrl#goal&#45;&gt;https://w3id.org/oseg/ont/osh/otrl#ODRL</title>
<path fill="none" stroke="black" d="M1229.26,-684.89C1184.7,-715.9 1082.89,-786.73 1031.7,-822.34"/>
<polygon fill="black" stroke="black" points="1029.55,-819.57 1023.34,-828.15 1033.55,-825.32 1029.55,-819.57"/>
<text text-anchor="middle" x="1044.48" y="-757.42" font-family="Times,serif" font-size="14.00">schema:domainIncludes</text>
</g>
<!-- https://w3id.org/oseg/ont/osh/otrl#goal&#45;&gt;http://schema.org/Text -->
<g id="edge22" class="edge">
<title>https://w3id.org/oseg/ont/osh/otrl#goal&#45;&gt;http://schema.org/Text</title>
<path fill="none" stroke="black" d="M1230.99,-654.59C1204.49,-634.48 1157.53,-598.85 1127.09,-575.76"/>
<polygon fill="black" stroke="black" points="1129.06,-572.86 1118.97,-569.6 1124.82,-578.43 1129.06,-572.86"/>
<text text-anchor="middle" x="1158.04" y="-618.98" font-family="Times,serif" font-size="14.00">range</text>
</g>
<!-- https://w3id.org/oseg/ont/osh/otrl#exitCriteria -->
<g id="node19" class="node">
<title>https://w3id.org/oseg/ont/osh/otrl#exitCriteria</title>
<ellipse fill="none" stroke="#e377c2" cx="1275.88" cy="-722.17" rx="91.43" ry="16.03"/>
<text text-anchor="middle" x="1275.88" y="-718.47" font-family="Times,serif" font-size="14.00">otrl:exitCriteria</text>
</g>
<!-- https://w3id.org/oseg/ont/osh/otrl#exitCriteria&#45;&gt;https://w3id.org/oseg/ont/osh/otrl#OTRL -->
<g id="edge7" class="edge">
<title>https://w3id.org/oseg/ont/osh/otrl#exitCriteria&#45;&gt;https://w3id.org/oseg/ont/osh/otrl#OTRL</title>
<path fill="none" stroke="black" d="M1299.57,-706.45C1346.9,-675.04 1453.14,-604.55 1506.22,-569.32"/>
<polygon fill="black" stroke="black" points="1508.17,-572.23 1514.57,-563.78 1504.3,-566.4 1508.17,-572.23"/>
<text text-anchor="middle" x="1316.89" y="-641.69" font-family="Times,serif" font-size="14.00">schema:domainIncludes</text>
</g>
<!-- https://w3id.org/oseg/ont/osh/otrl#exitCriteria&#45;&gt;https://w3id.org/oseg/ont/osh/otrl#ODRL -->
<g id="edge15" class="edge">
<title>https://w3id.org/oseg/ont/osh/otrl#exitCriteria&#45;&gt;https://w3id.org/oseg/ont/osh/otrl#ODRL</title>
<path fill="none" stroke="black" d="M1241.64,-737.31C1191.15,-759.62 1096.88,-801.29 1042.56,-825.3"/>
<polygon fill="black" stroke="black" points="1040.96,-822.18 1033.23,-829.42 1043.79,-828.58 1040.96,-822.18"/>
<text text-anchor="middle" x="1056.1" y="-785.1" font-family="Times,serif" font-size="14.00">schema:domainIncludes</text>
</g>
<!-- https://w3id.org/oseg/ont/osh/otrl#exitCriteria&#45;&gt;http://schema.org/Text -->
<g id="edge26" class="edge">
<title>https://w3id.org/oseg/ont/osh/otrl#exitCriteria&#45;&gt;http://schema.org/Text</title>
<path fill="none" stroke="black" d="M1258.82,-706.01C1227,-675.87 1158.49,-610.99 1122,-576.43"/>
<polygon fill="black" stroke="black" points="1124.4,-573.87 1114.73,-569.54 1119.58,-578.96 1124.4,-573.87"/>
<text text-anchor="middle" x="1169.41" y="-645.02" font-family="Times,serif" font-size="14.00">range</text>
</g>
<!-- https://w3id.org/oseg/ont/osh/otrl#Odrl -->
<g id="node20" class="node">
<title>https://w3id.org/oseg/ont/osh/otrl#Odrl</title>
<ellipse fill="none" stroke="black" cx="605.61" cy="-967.47" rx="211.35" ry="16.03"/>
<text text-anchor="middle" x="605.61" y="-963.77" font-family="Times,serif" font-size="14.00">https://w3id.org/oseg/ont/osh/otrl#Odrl</text>
</g>
<!-- https://w3id.org/oseg/ont/osh/otrl#Odrl&#45;&gt;https://w3id.org/oseg/ont/osh/otrl#ODRL -->
<g id="edge3" class="edge">
<title>https://w3id.org/oseg/ont/osh/otrl#Odrl&#45;&gt;https://w3id.org/oseg/ont/osh/otrl#ODRL</title>
<path fill="none" stroke="black" d="M672.47,-951.95C754.51,-928.71 891.12,-885.66 959.49,-861.26"/>
<polygon fill="black" stroke="black" points="960.85,-864.49 969.06,-857.8 958.47,-857.9 960.85,-864.49"/>
<text text-anchor="middle" x="773.48" y="-910.4" font-family="Times,serif" font-size="14.00">owl:sameAs</text>
</g>
<!-- https://w3id.org/oseg/ont/osh/otrl#Odrl&#45;&gt;https://w3id.org/oseg/ont/osh/otrl#ODRL -->
<g id="edge28" class="edge">
<title>https://w3id.org/oseg/ont/osh/otrl#Odrl&#45;&gt;https://w3id.org/oseg/ont/osh/otrl#ODRL</title>
<path fill="none" stroke="black" d="M643,-951.35C712.1,-926.42 860.26,-879.79 942.71,-856.76"/>
<polygon fill="black" stroke="black" points="943.73,-860.11 952.43,-854.07 941.86,-853.37 943.73,-860.11"/>
<text text-anchor="middle" x="712.85" y="-892.85" font-family="Times,serif" font-size="14.00">schema:supersededBy</text>
</g>
<!-- https://w3id.org/oseg/ont/osh/otrl#Odrl3Star -->
<g id="node21" class="node">
<title>https://w3id.org/oseg/ont/osh/otrl#Odrl3Star</title>
<ellipse fill="none" stroke="black" cx="239.43" cy="-799.51" rx="239" ry="16.03"/>
<text text-anchor="middle" x="239.43" y="-795.81" font-family="Times,serif" font-size="14.00">https://w3id.org/oseg/ont/osh/otrl#Odrl3Star</text>
</g>
<!-- https://w3id.org/oseg/ont/osh/otrl#Odrl3Star&#45;&gt;https://w3id.org/oseg/ont/osh/otrl#ODRL3Star -->
<g id="edge5" class="edge">
<title>https://w3id.org/oseg/ont/osh/otrl#Odrl3Star&#45;&gt;https://w3id.org/oseg/ont/osh/otrl#ODRL3Star</title>
<path fill="none" stroke="black" d="M396.25,-811.81C463.26,-814.9 539.48,-817.49 598.64,-818.61"/>
<polygon fill="black" stroke="black" points="598.67,-822.11 608.73,-818.78 598.79,-815.11 598.67,-822.11"/>
<text text-anchor="middle" x="454.94" y="-819.01" font-family="Times,serif" font-size="14.00">owl:sameAs</text>
</g>
<!-- https://w3id.org/oseg/ont/osh/otrl#Odrl3Star&#45;&gt;https://w3id.org/oseg/ont/osh/otrl#ODRL3Star -->
<g id="edge18" class="edge">
<title>https://w3id.org/oseg/ont/osh/otrl#Odrl3Star&#45;&gt;https://w3id.org/oseg/ont/osh/otrl#ODRL3Star</title>
<path fill="none" stroke="black" d="M476.67,-801.62C524.28,-803.43 571.45,-805.62 609.98,-807.88"/>
<polygon fill="black" stroke="black" points="609.91,-811.38 620.1,-808.48 610.32,-804.39 609.91,-811.38"/>
<text text-anchor="middle" x="583.33" y="-793.55" font-family="Times,serif" font-size="14.00">schema:supersededBy</text>
</g>
<!-- https://w3id.org/oseg/ont/osh/otrl#Otrl6 -->
<g id="node22" class="node">
<title>https://w3id.org/oseg/ont/osh/otrl#Otrl6</title>
<ellipse fill="none" stroke="black" cx="1252.61" cy="-309.93" rx="215.84" ry="16.03"/>
<text text-anchor="middle" x="1252.61" y="-306.23" font-family="Times,serif" font-size="14.00">https://w3id.org/oseg/ont/osh/otrl#Otrl6</text>
</g>
<!-- https://w3id.org/oseg/ont/osh/otrl#Otrl6&#45;&gt;https://w3id.org/oseg/ont/osh/otrl#OTRL6 -->
<g id="edge6" class="edge">
<title>https://w3id.org/oseg/ont/osh/otrl#Otrl6&#45;&gt;https://w3id.org/oseg/ont/osh/otrl#OTRL6</title>
<path fill="none" stroke="black" d="M1271.9,-326.15C1277.67,-329.57 1284.29,-333.18 1291.09,-336.64"/>
<polygon fill="black" stroke="black" points="1289.91,-339.95 1300.43,-341.23 1293,-333.67 1289.91,-339.95"/>
<text text-anchor="middle" x="1201.5" y="-335.19" font-family="Times,serif" font-size="14.00">schema:supersededBy</text>
</g>
<!-- https://w3id.org/oseg/ont/osh/otrl#Otrl6&#45;&gt;https://w3id.org/oseg/ont/osh/otrl#OTRL6 -->
<g id="edge43" class="edge">
<title>https://w3id.org/oseg/ont/osh/otrl#Otrl6&#45;&gt;https://w3id.org/oseg/ont/osh/otrl#OTRL6</title>
<path fill="none" stroke="black" d="M1299.71,-325.86C1304.57,-328.28 1309.38,-330.79 1313.91,-333.29"/>
<polygon fill="black" stroke="black" points="1312.34,-336.42 1322.76,-338.35 1315.82,-330.34 1312.34,-336.42"/>
<text text-anchor="middle" x="1349.31" y="-333.37" font-family="Times,serif" font-size="14.00">owl:sameAs</text>
</g>
<!-- https://w3id.org/oseg/ont/osh/otrl#Odrl5 -->
<g id="node23" class="node">
<title>https://w3id.org/oseg/ont/osh/otrl#Odrl5</title>
<ellipse fill="none" stroke="black" cx="739.51" cy="-1777.58" rx="217.58" ry="16.03"/>
<text text-anchor="middle" x="739.51" y="-1773.88" font-family="Times,serif" font-size="14.00">https://w3id.org/oseg/ont/osh/otrl#Odrl5</text>
</g>
<!-- https://w3id.org/oseg/ont/osh/otrl#Odrl5&#45;&gt;https://w3id.org/oseg/ont/osh/otrl#Odrl4 -->
<g id="edge10" class="edge">
<title>https://w3id.org/oseg/ont/osh/otrl#Odrl5&#45;&gt;https://w3id.org/oseg/ont/osh/otrl#Odrl4</title>
<path fill="none" stroke="black" d="M747.35,-1761.12C769.79,-1700.38 830.76,-1488.64 847.69,-1413.56"/>
<polygon fill="black" stroke="black" points="851.17,-1414.03 849.86,-1403.51 844.33,-1412.55 851.17,-1414.03"/>
<text text-anchor="middle" x="717.52" y="-1591.14" font-family="Times,serif" font-size="14.00">schema:supersededBy</text>
</g>
<!-- https://w3id.org/oseg/ont/osh/otrl#Odrl5&#45;&gt;https://w3id.org/oseg/ont/osh/otrl#Odrl4 -->
<g id="edge34" class="edge">
<title>https://w3id.org/oseg/ont/osh/otrl#Odrl5&#45;&gt;https://w3id.org/oseg/ont/osh/otrl#Odrl4</title>
<path fill="none" stroke="black" d="M741.29,-1760.99C753.72,-1699.93 814.42,-1487.48 840.36,-1412.98"/>
<polygon fill="black" stroke="black" points="843.71,-1414.01 843.79,-1403.41 837.12,-1411.65 843.71,-1414.01"/>
<text text-anchor="middle" x="748.33" y="-1575.78" font-family="Times,serif" font-size="14.00">owl:sameAs</text>
</g>
<!-- https://w3id.org/oseg/ont/osh/otrl#Otrl5 -->
<g id="node24" class="node">
<title>https://w3id.org/oseg/ont/osh/otrl#Otrl5</title>
<ellipse fill="none" stroke="black" cx="1992.96" cy="-15.77" rx="215.84" ry="16.03"/>
<text text-anchor="middle" x="1992.96" y="-12.07" font-family="Times,serif" font-size="14.00">https://w3id.org/oseg/ont/osh/otrl#Otrl5</text>
</g>
<!-- https://w3id.org/oseg/ont/osh/otrl#Otrl5&#45;&gt;https://w3id.org/oseg/ont/osh/otrl#OTRL5 -->
<g id="edge11" class="edge">
<title>https://w3id.org/oseg/ont/osh/otrl#Otrl5&#45;&gt;https://w3id.org/oseg/ont/osh/otrl#OTRL5</title>
<path fill="none" stroke="black" d="M1975.43,-32.39C1927.67,-85.33 1796.68,-249.78 1751.76,-312.97"/>
<polygon fill="black" stroke="black" points="1748.64,-311.33 1745.78,-321.53 1754.38,-315.34 1748.64,-311.33"/>
<text text-anchor="middle" x="1783.59" y="-176.48" font-family="Times,serif" font-size="14.00">schema:supersededBy</text>
</g>
<!-- https://w3id.org/oseg/ont/osh/otrl#Otrl5&#45;&gt;https://w3id.org/oseg/ont/osh/otrl#OTRL5 -->
<g id="edge47" class="edge">
<title>https://w3id.org/oseg/ont/osh/otrl#Otrl5&#45;&gt;https://w3id.org/oseg/ont/osh/otrl#OTRL5</title>
<path fill="none" stroke="black" d="M1983.65,-32.34C1947.16,-85.67 1814.83,-252.41 1760.23,-314.47"/>
<polygon fill="black" stroke="black" points="1757.4,-312.38 1753.36,-322.17 1762.62,-317.04 1757.4,-312.38"/>
<text text-anchor="middle" x="1914.44" y="-177.2" font-family="Times,serif" font-size="14.00">owl:sameAs</text>
</g>
<!-- https://w3id.org/oseg/ont/osh/otrl#Otrl2 -->
<g id="node25" class="node">
<title>https://w3id.org/oseg/ont/osh/otrl#Otrl2</title>
<ellipse fill="none" stroke="black" cx="2204.81" cy="-765.64" rx="215.84" ry="16.03"/>
<text text-anchor="middle" x="2204.81" y="-761.94" font-family="Times,serif" font-size="14.00">https://w3id.org/oseg/ont/osh/otrl#Otrl2</text>
</g>
<!-- https://w3id.org/oseg/ont/osh/otrl#Otrl2&#45;&gt;https://w3id.org/oseg/ont/osh/otrl#OTRL2 -->
<g id="edge12" class="edge">
<title>https://w3id.org/oseg/ont/osh/otrl#Otrl2&#45;&gt;https://w3id.org/oseg/ont/osh/otrl#OTRL2</title>
<path fill="none" stroke="black" d="M2170.99,-749.46C2102.85,-721.97 1948.5,-667.41 1864.88,-640.96"/>
<polygon fill="black" stroke="black" points="1865.88,-637.61 1855.29,-637.96 1863.79,-644.29 1865.88,-637.61"/>
<text text-anchor="middle" x="1975.43" y="-684.01" font-family="Times,serif" font-size="14.00">owl:sameAs</text>
</g>
<!-- https://w3id.org/oseg/ont/osh/otrl#Otrl2&#45;&gt;https://w3id.org/oseg/ont/osh/otrl#OTRL2 -->
<g id="edge27" class="edge">
<title>https://w3id.org/oseg/ont/osh/otrl#Otrl2&#45;&gt;https://w3id.org/oseg/ont/osh/otrl#OTRL2</title>
<path fill="none" stroke="black" d="M2145.12,-749.89C2063.15,-723.82 1918,-672.55 1848.19,-644.79"/>
<polygon fill="black" stroke="black" points="1849.44,-641.52 1838.85,-641.03 1846.82,-648.01 1849.44,-641.52"/>
<text text-anchor="middle" x="2076.66" y="-701.14" font-family="Times,serif" font-size="14.00">schema:supersededBy</text>
</g>
<!-- https://w3id.org/oseg/ont/osh/otrl#Otrl3 -->
<g id="node26" class="node">
<title>https://w3id.org/oseg/ont/osh/otrl#Otrl3</title>
<ellipse fill="none" stroke="black" cx="2210.51" cy="-355.35" rx="215.84" ry="16.03"/>
<text text-anchor="middle" x="2210.51" y="-351.65" font-family="Times,serif" font-size="14.00">https://w3id.org/oseg/ont/osh/otrl#Otrl3</text>
</g>
<!-- https://w3id.org/oseg/ont/osh/otrl#Otrl3&#45;&gt;https://w3id.org/oseg/ont/osh/otrl#OTRL3 -->
<g id="edge13" class="edge">
<title>https://w3id.org/oseg/ont/osh/otrl#Otrl3&#45;&gt;https://w3id.org/oseg/ont/osh/otrl#OTRL3</title>
<path fill="none" stroke="black" d="M2137.49,-370.67C2053.57,-392.32 1918.51,-431.12 1849.18,-453.75"/>
<polygon fill="black" stroke="black" points="1847.84,-450.51 1839.45,-456.97 1850.04,-457.16 1847.84,-450.51"/>
<text text-anchor="middle" x="1950.84" y="-416.01" font-family="Times,serif" font-size="14.00">owl:sameAs</text>
</g>
<!-- https://w3id.org/oseg/ont/osh/otrl#Otrl3&#45;&gt;https://w3id.org/oseg/ont/osh/otrl#OTRL3 -->
<g id="edge24" class="edge">
<title>https://w3id.org/oseg/ont/osh/otrl#Otrl3&#45;&gt;https://w3id.org/oseg/ont/osh/otrl#OTRL3</title>
<path fill="none" stroke="black" d="M2169.82,-371.43C2098.79,-394.81 1951.78,-436.97 1867.67,-458.31"/>
<polygon fill="black" stroke="black" points="1866.58,-454.97 1857.73,-460.8 1868.29,-461.76 1866.58,-454.97"/>
<text text-anchor="middle" x="2098.74" y="-418.67" font-family="Times,serif" font-size="14.00">schema:supersededBy</text>
</g>
<!-- https://w3id.org/oseg/ont/osh/otrl#Odrl3 -->
<g id="node27" class="node">
<title>https://w3id.org/oseg/ont/osh/otrl#Odrl3</title>
<ellipse fill="none" stroke="black" cx="451.81" cy="-1260.52" rx="217.58" ry="16.03"/>
<text text-anchor="middle" x="451.81" y="-1256.82" font-family="Times,serif" font-size="14.00">https://w3id.org/oseg/ont/osh/otrl#Odrl3</text>
</g>
<!-- https://w3id.org/oseg/ont/osh/otrl#Odrl3&#45;&gt;https://w3id.org/oseg/ont/osh/otrl#ODRL3 -->
<g id="edge14" class="edge">
<title>https://w3id.org/oseg/ont/osh/otrl#Odrl3&#45;&gt;https://w3id.org/oseg/ont/osh/otrl#ODRL3</title>
<path fill="none" stroke="black" d="M479.87,-1244.36C544.05,-1201.35 700.31,-1084.8 760.1,-1035.37"/>
<polygon fill="black" stroke="black" points="762.46,-1037.96 767.87,-1028.85 757.96,-1032.59 762.46,-1037.96"/>
<text text-anchor="middle" x="577.48" y="-1143.66" font-family="Times,serif" font-size="14.00">owl:sameAs</text>
</g>
<!-- https://w3id.org/oseg/ont/osh/otrl#Odrl3&#45;&gt;https://w3id.org/oseg/ont/osh/otrl#ODRL3 -->
<g id="edge25" class="edge">
<title>https://w3id.org/oseg/ont/osh/otrl#Odrl3&#45;&gt;https://w3id.org/oseg/ont/osh/otrl#ODRL3</title>
<path fill="none" stroke="black" d="M468.16,-1244.2C519.45,-1200.62 677.52,-1082.34 748.62,-1033.87"/>
<polygon fill="black" stroke="black" points="750.92,-1036.54 757.25,-1028.04 747,-1030.74 750.92,-1036.54"/>
<text text-anchor="middle" x="528.39" y="-1127.84" font-family="Times,serif" font-size="14.00">schema:supersededBy</text>
</g>
<!-- https://w3id.org/oseg/ont/osh/otrl#Odrl1 -->
<g id="node28" class="node">
<title>https://w3id.org/oseg/ont/osh/otrl#Odrl1</title>
<ellipse fill="none" stroke="black" cx="438.25" cy="-448.95" rx="217.58" ry="16.03"/>
<text text-anchor="middle" x="438.25" y="-445.25" font-family="Times,serif" font-size="14.00">https://w3id.org/oseg/ont/osh/otrl#Odrl1</text>
</g>
<!-- https://w3id.org/oseg/ont/osh/otrl#Odrl1&#45;&gt;https://w3id.org/oseg/ont/osh/otrl#ODRL1 -->
<g id="edge19" class="edge">
<title>https://w3id.org/oseg/ont/osh/otrl#Odrl1&#45;&gt;https://w3id.org/oseg/ont/osh/otrl#ODRL1</title>
<path fill="none" stroke="black" d="M456.6,-465.46C510.27,-506.68 667.37,-613.15 740.39,-658.24"/>
<polygon fill="black" stroke="black" points="738.93,-661.45 749.29,-663.68 742.58,-655.47 738.93,-661.45"/>
<text text-anchor="middle" x="556" y="-565.65" font-family="Times,serif" font-size="14.00">owl:sameAs</text>
</g>
<!-- https://w3id.org/oseg/ont/osh/otrl#Odrl1&#45;&gt;https://w3id.org/oseg/ont/osh/otrl#ODRL1 -->
<g id="edge40" class="edge">
<title>https://w3id.org/oseg/ont/osh/otrl#Odrl1&#45;&gt;https://w3id.org/oseg/ont/osh/otrl#ODRL1</title>
<path fill="none" stroke="black" d="M469.18,-465.06C535.84,-505.57 691.77,-610.91 753.1,-656.89"/>
<polygon fill="black" stroke="black" points="751.03,-659.71 761.11,-662.98 755.26,-654.14 751.03,-659.71"/>
<text text-anchor="middle" x="531.14" y="-549.78" font-family="Times,serif" font-size="14.00">schema:supersededBy</text>
</g>
<!-- https://w3id.org/oseg/ont/osh/otrl#Odrl2 -->
<g id="node29" class="node">
<title>https://w3id.org/oseg/ont/osh/otrl#Odrl2</title>
<ellipse fill="none" stroke="black" cx="1151.27" cy="-1089.37" rx="217.58" ry="16.03"/>
<text text-anchor="middle" x="1151.27" y="-1085.67" font-family="Times,serif" font-size="14.00">https://w3id.org/oseg/ont/osh/otrl#Odrl2</text>
</g>
<!-- https://w3id.org/oseg/ont/osh/otrl#Odrl2&#45;&gt;https://w3id.org/oseg/ont/osh/otrl#ODRL2 -->
<g id="edge20" class="edge">
<title>https://w3id.org/oseg/ont/osh/otrl#Odrl2&#45;&gt;https://w3id.org/oseg/ont/osh/otrl#ODRL2</title>
<path fill="none" stroke="black" d="M1148.38,-1072.84C1146.77,-1069.28 1144.77,-1065.46 1142.59,-1061.67"/>
<polygon fill="black" stroke="black" points="1145.49,-1059.71 1137.24,-1053.07 1139.55,-1063.41 1145.49,-1059.71"/>
<text text-anchor="middle" x="1187.99" y="-1056.06" font-family="Times,serif" font-size="14.00">owl:sameAs</text>
</g>
<!-- https://w3id.org/oseg/ont/osh/otrl#Odrl2&#45;&gt;https://w3id.org/oseg/ont/osh/otrl#ODRL2 -->
<g id="edge29" class="edge">
<title>https://w3id.org/oseg/ont/osh/otrl#Odrl2&#45;&gt;https://w3id.org/oseg/ont/osh/otrl#ODRL2</title>
<path fill="none" stroke="black" d="M1133.84,-1072.97C1131.66,-1069.69 1129.52,-1066.18 1127.57,-1062.68"/>
<polygon fill="black" stroke="black" points="1130.62,-1060.95 1122.98,-1053.61 1124.38,-1064.11 1130.62,-1060.95"/>
<text text-anchor="middle" x="1050.71" y="-1056.62" font-family="Times,serif" font-size="14.00">schema:supersededBy</text>
</g>
<!-- https://w3id.org/oseg/ont/osh/otrl#Otrl1 -->
<g id="node30" class="node">
<title>https://w3id.org/oseg/ont/osh/otrl#Otrl1</title>
<ellipse fill="none" stroke="black" cx="1702.46" cy="-708.65" rx="215.84" ry="16.03"/>
<text text-anchor="middle" x="1702.46" y="-704.95" font-family="Times,serif" font-size="14.00">https://w3id.org/oseg/ont/osh/otrl#Otrl1</text>
</g>
<!-- https://w3id.org/oseg/ont/osh/otrl#Otrl1&#45;&gt;https://w3id.org/oseg/ont/osh/otrl#OTRL1 -->
<g id="edge30" class="edge">
<title>https://w3id.org/oseg/ont/osh/otrl#Otrl1&#45;&gt;https://w3id.org/oseg/ont/osh/otrl#OTRL1</title>
<path fill="none" stroke="black" d="M1697.11,-692.22C1694.81,-688.52 1692.04,-684.53 1689.05,-680.61"/>
<polygon fill="black" stroke="black" points="1691.73,-678.35 1682.72,-672.76 1686.28,-682.74 1691.73,-678.35"/>
<text text-anchor="middle" x="1735.58" y="-675.21" font-family="Times,serif" font-size="14.00">owl:sameAs</text>
</g>
<!-- https://w3id.org/oseg/ont/osh/otrl#Otrl1&#45;&gt;https://w3id.org/oseg/ont/osh/otrl#OTRL1 -->
<g id="edge38" class="edge">
<title>https://w3id.org/oseg/ont/osh/otrl#Otrl1&#45;&gt;https://w3id.org/oseg/ont/osh/otrl#OTRL1</title>
<path fill="none" stroke="black" d="M1681.25,-692.29C1678.45,-689 1675.69,-685.48 1673.14,-681.97"/>
<polygon fill="black" stroke="black" points="1675.87,-679.77 1667.37,-673.45 1670.07,-683.69 1675.87,-679.77"/>
<text text-anchor="middle" x="1597.19" y="-675.93" font-family="Times,serif" font-size="14.00">schema:supersededBy</text>
</g>
<!-- https://w3id.org/oseg/ont/osh/otrl#Otrl4 -->
<g id="node31" class="node">
<title>https://w3id.org/oseg/ont/osh/otrl#Otrl4</title>
<ellipse fill="none" stroke="black" cx="1605.91" cy="-267.93" rx="215.84" ry="16.03"/>
<text text-anchor="middle" x="1605.91" y="-264.23" font-family="Times,serif" font-size="14.00">https://w3id.org/oseg/ont/osh/otrl#Otrl4</text>
</g>
<!-- https://w3id.org/oseg/ont/osh/otrl#Otrl4&#45;&gt;https://w3id.org/oseg/ont/osh/otrl#OTRL4 -->
<g id="edge33" class="edge">
<title>https://w3id.org/oseg/ont/osh/otrl#Otrl4&#45;&gt;https://w3id.org/oseg/ont/osh/otrl#OTRL4</title>
<path fill="none" stroke="black" d="M1581.01,-284.36C1580.45,-284.95 1579.9,-285.54 1579.35,-286.13"/>
<polygon fill="black" stroke="black" points="1576.58,-283.99 1572.79,-293.88 1581.93,-288.51 1576.58,-283.99"/>
<text text-anchor="middle" x="1622.68" y="-289.05" font-family="Times,serif" font-size="14.00">owl:sameAs</text>
</g>
<!-- https://w3id.org/oseg/ont/osh/otrl#Otrl4&#45;&gt;https://w3id.org/oseg/ont/osh/otrl#OTRL4 -->
<g id="edge44" class="edge">
<title>https://w3id.org/oseg/ont/osh/otrl#Otrl4&#45;&gt;https://w3id.org/oseg/ont/osh/otrl#OTRL4</title>
<path fill="none" stroke="black" d="M1598.63,-284.63C1597.99,-285.45 1597.32,-286.28 1596.62,-287.11"/>
<polygon fill="black" stroke="black" points="1594,-284.79 1589.92,-294.57 1599.21,-289.47 1594,-284.79"/>
<text text-anchor="middle" x="1677.63" y="-289.67" font-family="Times,serif" font-size="14.00">schema:supersededBy</text>
</g>
<!-- https://w3id.org/oseg/ont/osh/otrl#Otrl -->
<g id="node32" class="node">
<title>https://w3id.org/oseg/ont/osh/otrl#Otrl</title>
<ellipse fill="none" stroke="black" cx="1517.26" cy="-497.54" rx="209.11" ry="16.03"/>
<text text-anchor="middle" x="1517.26" y="-493.84" font-family="Times,serif" font-size="14.00">https://w3id.org/oseg/ont/osh/otrl#Otrl</text>
</g>
<!-- https://w3id.org/oseg/ont/osh/otrl#Otrl&#45;&gt;https://w3id.org/oseg/ont/osh/otrl#OTRL -->
<g id="edge35" class="edge">
<title>https://w3id.org/oseg/ont/osh/otrl#Otrl&#45;&gt;https://w3id.org/oseg/ont/osh/otrl#OTRL</title>
<path fill="none" stroke="black" d="M1517.25,-514C1518.05,-516.86 1519.04,-519.89 1520.18,-522.92"/>
<polygon fill="black" stroke="black" points="1517.07,-524.55 1524.19,-532.4 1523.52,-521.82 1517.07,-524.55"/>
<text text-anchor="middle" x="1476.21" y="-522.26" font-family="Times,serif" font-size="14.00">owl:sameAs</text>
</g>
<!-- https://w3id.org/oseg/ont/osh/otrl#Otrl&#45;&gt;https://w3id.org/oseg/ont/osh/otrl#OTRL -->
<g id="edge45" class="edge">
<title>https://w3id.org/oseg/ont/osh/otrl#Otrl&#45;&gt;https://w3id.org/oseg/ont/osh/otrl#OTRL</title>
<path fill="none" stroke="black" d="M1530.8,-513.79C1532.1,-516.54 1533.34,-519.46 1534.45,-522.38"/>
<polygon fill="black" stroke="black" points="1531.22,-523.76 1537.69,-532.16 1537.87,-521.56 1531.22,-523.76"/>
<text text-anchor="middle" x="1612.63" y="-521.89" font-family="Times,serif" font-size="14.00">schema:supersededBy</text>
</g>
</g>
</svg>
