<?xml version="1.0" encoding="UTF-8" standalone="no"?>
<!DOCTYPE svg PUBLIC "-//W3C//DTD SVG 1.1//EN"
 "http://www.w3.org/Graphics/SVG/1.1/DTD/svg11.dtd">
<!-- Generated by graphviz version 2.43.0 (0)
 -->
<!-- Title: G Pages: 1 -->
<svg width="2225pt" height="1972pt"
 viewBox="0.00 0.00 2225.00 1972.00" xmlns="http://www.w3.org/2000/svg" xmlns:xlink="http://www.w3.org/1999/xlink">
<g id="graph0" class="graph" transform="scale(1 1) rotate(0) translate(4 1968)">
<title>G</title>
<polygon fill="white" stroke="transparent" points="-4,4 -4,-1968 2221,-1968 2221,4 -4,4"/>
<!-- https://w3id.org/oseg/ont/otrl#ODRL3 -->
<g id="node1" class="node">
<title>https://w3id.org/oseg/ont/otrl#ODRL3</title>
<ellipse fill="none" stroke="#e377c2" cx="585.63" cy="-963.08" rx="69.09" ry="16.03"/>
<text text-anchor="middle" x="585.63" y="-959.38" font-family="Times,serif" font-size="14.00">otrl:ODRL3</text>
</g>
<!-- https://w3id.org/oseg/ont/otrl#ODRL -->
<g id="node7" class="node">
<title>https://w3id.org/oseg/ont/otrl#ODRL</title>
<ellipse fill="none" stroke="#e377c2" cx="858.24" cy="-956.34" rx="62.87" ry="16.03"/>
<text text-anchor="middle" x="858.24" y="-952.64" font-family="Times,serif" font-size="14.00">otrl:ODRL</text>
</g>
<!-- https://w3id.org/oseg/ont/otrl#ODRL3&#45;&gt;https://w3id.org/oseg/ont/otrl#ODRL -->
<g id="edge14" class="edge">
<title>https://w3id.org/oseg/ont/otrl#ODRL3&#45;&gt;https://w3id.org/oseg/ont/otrl#ODRL</title>
<path fill="none" stroke="black" d="M654.78,-961.37C694.62,-960.38 744.67,-959.15 785.16,-958.14"/>
<polygon fill="black" stroke="black" points="785.33,-961.64 795.24,-957.89 785.15,-954.64 785.33,-961.64"/>
</g>
<!-- https://w3id.org/oseg/ont/otrl#OTRL1 -->
<g id="node2" class="node">
<title>https://w3id.org/oseg/ont/otrl#OTRL1</title>
<ellipse fill="none" stroke="#e377c2" cx="1523.52" cy="-1128.99" rx="67.35" ry="16.03"/>
<text text-anchor="middle" x="1523.52" y="-1125.29" font-family="Times,serif" font-size="14.00">otrl:OTRL1</text>
</g>
<!-- https://w3id.org/oseg/ont/otrl#OTRL -->
<g id="node8" class="node">
<title>https://w3id.org/oseg/ont/otrl#OTRL</title>
<ellipse fill="none" stroke="#e377c2" cx="1337.13" cy="-1328.57" rx="60.62" ry="16.03"/>
<text text-anchor="middle" x="1337.13" y="-1324.87" font-family="Times,serif" font-size="14.00">otrl:OTRL</text>
</g>
<!-- https://w3id.org/oseg/ont/otrl#OTRL1&#45;&gt;https://w3id.org/oseg/ont/otrl#OTRL -->
<g id="edge46" class="edge">
<title>https://w3id.org/oseg/ont/otrl#OTRL1&#45;&gt;https://w3id.org/oseg/ont/otrl#OTRL</title>
<path fill="none" stroke="black" d="M1508.58,-1144.99C1475.71,-1180.18 1397.01,-1264.45 1358.75,-1305.42"/>
<polygon fill="black" stroke="black" points="1356.15,-1303.08 1351.88,-1312.77 1361.26,-1307.85 1356.15,-1303.08"/>
</g>
<!-- https://w3id.org/oseg/ont/otrl#OTRL6 -->
<g id="node3" class="node">
<title>https://w3id.org/oseg/ont/otrl#OTRL6</title>
<ellipse fill="none" stroke="#e377c2" cx="1354.23" cy="-1579.4" rx="67.35" ry="16.03"/>
<text text-anchor="middle" x="1354.23" y="-1575.7" font-family="Times,serif" font-size="14.00">otrl:OTRL6</text>
</g>
<!-- https://w3id.org/oseg/ont/otrl#OTRL6&#45;&gt;https://w3id.org/oseg/ont/otrl#OTRL -->
<g id="edge24" class="edge">
<title>https://w3id.org/oseg/ont/otrl#OTRL6&#45;&gt;https://w3id.org/oseg/ont/otrl#OTRL</title>
<path fill="none" stroke="black" d="M1353.11,-1562.94C1350.22,-1520.51 1342.48,-1407.1 1338.94,-1355.18"/>
<polygon fill="black" stroke="black" points="1342.43,-1354.82 1338.26,-1345.09 1335.44,-1355.3 1342.43,-1354.82"/>
</g>
<!-- https://w3id.org/oseg/ont/otrl#ODRL3Star -->
<g id="node4" class="node">
<title>https://w3id.org/oseg/ont/otrl#ODRL3Star</title>
<ellipse fill="none" stroke="#e377c2" cx="652.08" cy="-744.23" rx="90.52" ry="16.03"/>
<text text-anchor="middle" x="652.08" y="-740.53" font-family="Times,serif" font-size="14.00">otrl:ODRL3Star</text>
</g>
<!-- https://w3id.org/oseg/ont/otrl#ODRL3Star&#45;&gt;https://w3id.org/oseg/ont/otrl#ODRL -->
<g id="edge47" class="edge">
<title>https://w3id.org/oseg/ont/otrl#ODRL3Star&#45;&gt;https://w3id.org/oseg/ont/otrl#ODRL</title>
<path fill="none" stroke="black" d="M667.92,-760.53C704.21,-797.86 793.49,-889.72 835.58,-933.03"/>
<polygon fill="black" stroke="black" points="833.15,-935.55 842.63,-940.28 838.17,-930.67 833.15,-935.55"/>
</g>
<!-- https://w3id.org/oseg/ont/otrl#ODRL2 -->
<g id="node5" class="node">
<title>https://w3id.org/oseg/ont/otrl#ODRL2</title>
<ellipse fill="none" stroke="#e377c2" cx="700.21" cy="-1125.81" rx="69.09" ry="16.03"/>
<text text-anchor="middle" x="700.21" y="-1122.11" font-family="Times,serif" font-size="14.00">otrl:ODRL2</text>
</g>
<!-- https://w3id.org/oseg/ont/otrl#ODRL2&#45;&gt;https://w3id.org/oseg/ont/otrl#ODRL -->
<g id="edge16" class="edge">
<title>https://w3id.org/oseg/ont/otrl#ODRL2&#45;&gt;https://w3id.org/oseg/ont/otrl#ODRL</title>
<path fill="none" stroke="black" d="M715.08,-1109.87C743.08,-1079.84 803.75,-1014.77 836.4,-979.76"/>
<polygon fill="black" stroke="black" points="839.04,-982.06 843.3,-972.36 833.92,-977.29 839.04,-982.06"/>
</g>
<!-- https://w3id.org/oseg/ont/otrl#OTRL2 -->
<g id="node6" class="node">
<title>https://w3id.org/oseg/ont/otrl#OTRL2</title>
<ellipse fill="none" stroke="#e377c2" cx="1207.82" cy="-1570.76" rx="67.35" ry="16.03"/>
<text text-anchor="middle" x="1207.82" y="-1567.06" font-family="Times,serif" font-size="14.00">otrl:OTRL2</text>
</g>
<!-- https://w3id.org/oseg/ont/otrl#OTRL2&#45;&gt;https://w3id.org/oseg/ont/otrl#OTRL -->
<g id="edge25" class="edge">
<title>https://w3id.org/oseg/ont/otrl#OTRL2&#45;&gt;https://w3id.org/oseg/ont/otrl#OTRL</title>
<path fill="none" stroke="black" d="M1216.5,-1554.49C1238.59,-1513.13 1297.02,-1403.7 1323.61,-1353.89"/>
<polygon fill="black" stroke="black" points="1326.86,-1355.23 1328.48,-1344.76 1320.68,-1351.94 1326.86,-1355.23"/>
</g>
<!-- https://w3id.org/oseg/ont/otrl#ODRL1 -->
<g id="node9" class="node">
<title>https://w3id.org/oseg/ont/otrl#ODRL1</title>
<ellipse fill="none" stroke="#e377c2" cx="1013.02" cy="-801.41" rx="69.09" ry="16.03"/>
<text text-anchor="middle" x="1013.02" y="-797.71" font-family="Times,serif" font-size="14.00">otrl:ODRL1</text>
</g>
<!-- https://w3id.org/oseg/ont/otrl#ODRL1&#45;&gt;https://w3id.org/oseg/ont/otrl#ODRL -->
<g id="edge21" class="edge">
<title>https://w3id.org/oseg/ont/otrl#ODRL1&#45;&gt;https://w3id.org/oseg/ont/otrl#ODRL</title>
<path fill="none" stroke="black" d="M997.04,-817.41C969.58,-844.89 913.34,-901.19 881.52,-933.03"/>
<polygon fill="black" stroke="black" points="878.96,-930.65 874.36,-940.2 883.91,-935.59 878.96,-930.65"/>
</g>
<!-- https://w3id.org/oseg/ont/otrl#ODRL4 -->
<g id="node10" class="node">
<title>https://w3id.org/oseg/ont/otrl#ODRL4</title>
<ellipse fill="none" stroke="#e377c2" cx="818.97" cy="-653.91" rx="69.09" ry="16.03"/>
<text text-anchor="middle" x="818.97" y="-650.21" font-family="Times,serif" font-size="14.00">otrl:ODRL4</text>
</g>
<!-- https://w3id.org/oseg/ont/otrl#ODRL4&#45;&gt;https://w3id.org/oseg/ont/otrl#ODRL -->
<g id="edge32" class="edge">
<title>https://w3id.org/oseg/ont/otrl#ODRL4&#45;&gt;https://w3id.org/oseg/ont/otrl#ODRL</title>
<path fill="none" stroke="black" d="M821.08,-670.17C827.51,-719.71 846.91,-869.08 854.82,-930.02"/>
<polygon fill="black" stroke="black" points="851.36,-930.53 856.12,-940 858.3,-929.63 851.36,-930.53"/>
</g>
<!-- https://w3id.org/oseg/ont/otrl#OTRL3 -->
<g id="node11" class="node">
<title>https://w3id.org/oseg/ont/otrl#OTRL3</title>
<ellipse fill="none" stroke="#e377c2" cx="1463.69" cy="-1372.92" rx="67.35" ry="16.03"/>
<text text-anchor="middle" x="1463.69" y="-1369.22" font-family="Times,serif" font-size="14.00">otrl:OTRL3</text>
</g>
<!-- https://w3id.org/oseg/ont/otrl#OTRL3&#45;&gt;https://w3id.org/oseg/ont/otrl#OTRL -->
<g id="edge26" class="edge">
<title>https://w3id.org/oseg/ont/otrl#OTRL3&#45;&gt;https://w3id.org/oseg/ont/otrl#OTRL</title>
<path fill="none" stroke="black" d="M1425.37,-1359.49C1412.38,-1354.94 1397.71,-1349.8 1384.11,-1345.03"/>
<polygon fill="black" stroke="black" points="1385.04,-1341.65 1374.44,-1341.64 1382.72,-1348.25 1385.04,-1341.65"/>
</g>
<!-- https://w3id.org/oseg/ont/otrl#OTRL5 -->
<g id="node12" class="node">
<title>https://w3id.org/oseg/ont/otrl#OTRL5</title>
<ellipse fill="none" stroke="#e377c2" cx="1523.22" cy="-1561.56" rx="67.35" ry="16.03"/>
<text text-anchor="middle" x="1523.22" y="-1557.86" font-family="Times,serif" font-size="14.00">otrl:OTRL5</text>
</g>
<!-- https://w3id.org/oseg/ont/otrl#OTRL5&#45;&gt;https://w3id.org/oseg/ont/otrl#OTRL -->
<g id="edge13" class="edge">
<title>https://w3id.org/oseg/ont/otrl#OTRL5&#45;&gt;https://w3id.org/oseg/ont/otrl#OTRL</title>
<path fill="none" stroke="black" d="M1510.43,-1545.54C1478.36,-1505.39 1394.38,-1400.25 1356.34,-1352.62"/>
<polygon fill="black" stroke="black" points="1358.98,-1350.32 1350.01,-1344.69 1353.52,-1354.69 1358.98,-1350.32"/>
</g>
<!-- https://w3id.org/oseg/ont/otrl#OTRL4 -->
<g id="node13" class="node">
<title>https://w3id.org/oseg/ont/otrl#OTRL4</title>
<ellipse fill="none" stroke="#e377c2" cx="1626.54" cy="-1371.87" rx="67.35" ry="16.03"/>
<text text-anchor="middle" x="1626.54" y="-1368.17" font-family="Times,serif" font-size="14.00">otrl:OTRL4</text>
</g>
<!-- https://w3id.org/oseg/ont/otrl#OTRL4&#45;&gt;https://w3id.org/oseg/ont/otrl#OTRL -->
<g id="edge31" class="edge">
<title>https://w3id.org/oseg/ont/otrl#OTRL4&#45;&gt;https://w3id.org/oseg/ont/otrl#OTRL</title>
<path fill="none" stroke="black" d="M1569.36,-1363.32C1520.66,-1356.03 1450.78,-1345.57 1400.41,-1338.03"/>
<polygon fill="black" stroke="black" points="1400.69,-1334.54 1390.29,-1336.52 1399.66,-1341.46 1400.69,-1334.54"/>
</g>
<!-- https://www.gnu.org/licenses/gpl&#45;3.0.txt -->
<g id="node14" class="node">
<title>https://www.gnu.org/licenses/gpl&#45;3.0.txt</title>
<ellipse fill="none" stroke="#e377c2" cx="1525.32" cy="-678.47" rx="85.62" ry="16.03"/>
<text text-anchor="middle" x="1525.32" y="-674.77" font-family="Times,serif" font-size="14.00">ns1:gpl&#45;3.0.txt</text>
</g>
<!-- https://w3id.org/oseg/ont/otrl#Odrl4 -->
<g id="node15" class="node">
<title>https://w3id.org/oseg/ont/otrl#Odrl4</title>
<ellipse fill="none" stroke="#e377c2" cx="782" cy="-395.87" rx="61.54" ry="16.03"/>
<text text-anchor="middle" x="782" y="-392.17" font-family="Times,serif" font-size="14.00">otrl:Odrl4</text>
</g>
<!-- https://w3id.org/oseg/ont/otrl#Odrl4&#45;&gt;https://w3id.org/oseg/ont/otrl#ODRL4 -->
<g id="edge23" class="edge">
<title>https://w3id.org/oseg/ont/otrl#Odrl4&#45;&gt;https://w3id.org/oseg/ont/otrl#ODRL4</title>
<path fill="none" stroke="black" d="M780.86,-412.51C783.03,-456.23 799.71,-574.62 810.83,-627.63"/>
<polygon fill="black" stroke="black" points="807.46,-628.61 813.05,-637.61 814.3,-627.09 807.46,-628.61"/>
<text text-anchor="middle" x="753.35" y="-523.87" font-family="Times,serif" font-size="14.00">owl:sameAs</text>
</g>
<!-- https://w3id.org/oseg/ont/otrl#Odrl4&#45;&gt;https://w3id.org/oseg/ont/otrl#ODRL4 -->
<g id="edge42" class="edge">
<title>https://w3id.org/oseg/ont/otrl#Odrl4&#45;&gt;https://w3id.org/oseg/ont/otrl#ODRL4</title>
<path fill="none" stroke="black" d="M787.95,-412.29C798.22,-455.78 815.42,-574.19 819.47,-627.4"/>
<polygon fill="black" stroke="black" points="815.98,-627.67 820.11,-637.42 822.97,-627.22 815.98,-627.67"/>
<text text-anchor="middle" x="723.71" y="-508.65" font-family="Times,serif" font-size="14.00">schema:supersededBy</text>
</g>
<!-- https://w3id.org/oseg/ont/otrl#goal -->
<g id="node16" class="node">
<title>https://w3id.org/oseg/ont/otrl#goal</title>
<ellipse fill="none" stroke="#e377c2" cx="1109.12" cy="-1138.43" rx="54.39" ry="16.03"/>
<text text-anchor="middle" x="1109.12" y="-1134.73" font-family="Times,serif" font-size="14.00">otrl:goal</text>
</g>
<!-- https://w3id.org/oseg/ont/otrl#goal&#45;&gt;https://w3id.org/oseg/ont/otrl#ODRL -->
<g id="edge20" class="edge">
<title>https://w3id.org/oseg/ont/otrl#goal&#45;&gt;https://w3id.org/oseg/ont/otrl#ODRL</title>
<path fill="none" stroke="black" d="M1088.16,-1123.22C1043.63,-1090.9 939.47,-1015.3 888.04,-977.97"/>
<polygon fill="black" stroke="black" points="889.82,-974.93 879.67,-971.89 885.71,-980.6 889.82,-974.93"/>
<text text-anchor="middle" x="902.1" y="-1054.39" font-family="Times,serif" font-size="14.00">schema:domainIncludes</text>
</g>
<!-- https://w3id.org/oseg/ont/otrl#goal&#45;&gt;https://w3id.org/oseg/ont/otrl#OTRL -->
<g id="edge11" class="edge">
<title>https://w3id.org/oseg/ont/otrl#goal&#45;&gt;https://w3id.org/oseg/ont/otrl#OTRL</title>
<path fill="none" stroke="black" d="M1127.78,-1153.99C1168.21,-1187.71 1264.03,-1267.61 1310.68,-1306.51"/>
<polygon fill="black" stroke="black" points="1308.61,-1309.34 1318.53,-1313.06 1313.09,-1303.97 1308.61,-1309.34"/>
<text text-anchor="middle" x="1133.23" y="-1234.05" font-family="Times,serif" font-size="14.00">schema:domainIncludes</text>
</g>
<!-- http://schema.org/Text -->
<g id="node18" class="node">
<title>http://schema.org/Text</title>
<ellipse fill="none" stroke="#e377c2" cx="944.83" cy="-1314.02" rx="74.91" ry="16.03"/>
<text text-anchor="middle" x="944.83" y="-1310.32" font-family="Times,serif" font-size="14.00">schema:Text</text>
</g>
<!-- https://w3id.org/oseg/ont/otrl#goal&#45;&gt;http://schema.org/Text -->
<g id="edge41" class="edge">
<title>https://w3id.org/oseg/ont/otrl#goal&#45;&gt;http://schema.org/Text</title>
<path fill="none" stroke="black" d="M1094.25,-1154.32C1065.25,-1185.32 1000.98,-1254.01 966.96,-1290.37"/>
<polygon fill="black" stroke="black" points="964.06,-1288.35 959.79,-1298.04 969.18,-1293.13 964.06,-1288.35"/>
<text text-anchor="middle" x="1009.61" y="-1226.15" font-family="Times,serif" font-size="14.00">range</text>
</g>
<!-- https://w3id.org/oseg/ont/otrl -->
<g id="node17" class="node">
<title>https://w3id.org/oseg/ont/otrl</title>
<ellipse fill="none" stroke="#e377c2" cx="1672.95" cy="-656.42" rx="50.82" ry="16.03"/>
<text text-anchor="middle" x="1672.95" y="-652.72" font-family="Times,serif" font-size="14.00">ns2:otrl</text>
</g>
<!-- https://w3id.org/oseg/ont/otrl&#45;&gt;https://www.gnu.org/licenses/gpl&#45;3.0.txt -->
<g id="edge28" class="edge">
<title>https://w3id.org/oseg/ont/otrl&#45;&gt;https://www.gnu.org/licenses/gpl&#45;3.0.txt</title>
<path fill="none" stroke="black" d="M1622.02,-657.53C1609.43,-659.05 1595.85,-661.02 1582.96,-663.17"/>
<polygon fill="black" stroke="black" points="1582.06,-659.77 1572.8,-664.93 1583.25,-666.67 1582.06,-659.77"/>
<text text-anchor="middle" x="1567.49" y="-649.15" font-family="Times,serif" font-size="14.00">cc:license</text>
</g>
<!-- https://w3id.org/oseg/ont/otrl&#45;&gt;https://www.gnu.org/licenses/gpl&#45;3.0.txt -->
<g id="edge29" class="edge">
<title>https://w3id.org/oseg/ont/otrl&#45;&gt;https://www.gnu.org/licenses/gpl&#45;3.0.txt</title>
<path fill="none" stroke="black" d="M1636.58,-667.87C1630.37,-669.1 1623.67,-670.31 1616.76,-671.48"/>
<polygon fill="black" stroke="black" points="1615.82,-668.09 1606.51,-673.15 1616.94,-675 1615.82,-668.09"/>
<text text-anchor="middle" x="1683.17" y="-673.47" font-family="Times,serif" font-size="14.00">dcterms:license</text>
</g>
<!-- https://w3id.org/oseg/ont/otrl&#45;&gt;https://w3id.org/oseg/ont/otrl -->
<g id="edge36" class="edge">
<title>https://w3id.org/oseg/ont/otrl&#45;&gt;https://w3id.org/oseg/ont/otrl</title>
<path fill="none" stroke="black" d="M1719.65,-663.12C1732.27,-662.76 1741.86,-660.53 1741.86,-656.42 1741.86,-653.52 1737.12,-651.56 1729.92,-650.53"/>
<polygon fill="black" stroke="black" points="1729.9,-647.02 1719.65,-649.72 1729.35,-653.99 1729.9,-647.02"/>
<text text-anchor="middle" x="1793.36" y="-652.72" font-family="Times,serif" font-size="14.00">owl:versionIRI</text>
</g>
<!-- https://w3id.org/oseg/ont/otrl#exitCriteria -->
<g id="node19" class="node">
<title>https://w3id.org/oseg/ont/otrl#exitCriteria</title>
<ellipse fill="none" stroke="#e377c2" cx="1065.55" cy="-1192.6" rx="91.43" ry="16.03"/>
<text text-anchor="middle" x="1065.55" y="-1188.9" font-family="Times,serif" font-size="14.00">otrl:exitCriteria</text>
</g>
<!-- https://w3id.org/oseg/ont/otrl#exitCriteria&#45;&gt;https://w3id.org/oseg/ont/otrl#ODRL -->
<g id="edge18" class="edge">
<title>https://w3id.org/oseg/ont/otrl#exitCriteria&#45;&gt;https://w3id.org/oseg/ont/otrl#ODRL</title>
<path fill="none" stroke="black" d="M1051.3,-1176.36C1015.41,-1135.46 921.18,-1028.06 879.08,-980.08"/>
<polygon fill="black" stroke="black" points="881.54,-977.59 872.31,-972.38 876.28,-982.2 881.54,-977.59"/>
<text text-anchor="middle" x="879.19" y="-1082.02" font-family="Times,serif" font-size="14.00">schema:domainIncludes</text>
</g>
<!-- https://w3id.org/oseg/ont/otrl#exitCriteria&#45;&gt;https://w3id.org/oseg/ont/otrl#OTRL -->
<g id="edge4" class="edge">
<title>https://w3id.org/oseg/ont/otrl#exitCriteria&#45;&gt;https://w3id.org/oseg/ont/otrl#OTRL</title>
<path fill="none" stroke="black" d="M1096.18,-1207.93C1146.14,-1232.95 1245.04,-1282.46 1299.31,-1309.63"/>
<polygon fill="black" stroke="black" points="1297.75,-1312.77 1308.26,-1314.11 1300.88,-1306.51 1297.75,-1312.77"/>
<text text-anchor="middle" x="1111.74" y="-1262.58" font-family="Times,serif" font-size="14.00">schema:domainIncludes</text>
</g>
<!-- https://w3id.org/oseg/ont/otrl#exitCriteria&#45;&gt;http://schema.org/Text -->
<g id="edge40" class="edge">
<title>https://w3id.org/oseg/ont/otrl#exitCriteria&#45;&gt;http://schema.org/Text</title>
<path fill="none" stroke="black" d="M1049.52,-1208.72C1028.69,-1229.68 992.15,-1266.43 968.22,-1290.5"/>
<polygon fill="black" stroke="black" points="965.5,-1288.27 960.93,-1297.83 970.46,-1293.21 965.5,-1288.27"/>
<text text-anchor="middle" x="987.87" y="-1253.41" font-family="Times,serif" font-size="14.00">range</text>
</g>
<!-- https://w3id.org/oseg/ont/otrl#Odrl2 -->
<g id="node20" class="node">
<title>https://w3id.org/oseg/ont/otrl#Odrl2</title>
<ellipse fill="none" stroke="black" cx="645.22" cy="-1172.55" rx="196.65" ry="16.03"/>
<text text-anchor="middle" x="645.22" y="-1168.85" font-family="Times,serif" font-size="14.00">https://w3id.org/oseg/ont/otrl#Odrl2</text>
</g>
<!-- https://w3id.org/oseg/ont/otrl#Odrl2&#45;&gt;https://w3id.org/oseg/ont/otrl#ODRL2 -->
<g id="edge1" class="edge">
<title>https://w3id.org/oseg/ont/otrl#Odrl2&#45;&gt;https://w3id.org/oseg/ont/otrl#ODRL2</title>
<path fill="none" stroke="black" d="M674.82,-1156.23C677.62,-1153.91 680.39,-1151.5 683.02,-1149.09"/>
<polygon fill="black" stroke="black" points="685.63,-1151.44 690.36,-1141.96 680.75,-1146.41 685.63,-1151.44"/>
<text text-anchor="middle" x="598.92" y="-1141.46" font-family="Times,serif" font-size="14.00">schema:supersededBy</text>
</g>
<!-- https://w3id.org/oseg/ont/otrl#Odrl2&#45;&gt;https://w3id.org/oseg/ont/otrl#ODRL2 -->
<g id="edge38" class="edge">
<title>https://w3id.org/oseg/ont/otrl#Odrl2&#45;&gt;https://w3id.org/oseg/ont/otrl#ODRL2</title>
<path fill="none" stroke="black" d="M655.24,-1156.22C657.93,-1153.44 660.99,-1150.53 664.21,-1147.64"/>
<polygon fill="black" stroke="black" points="666.6,-1150.2 671.94,-1141.05 662.06,-1144.88 666.6,-1150.2"/>
<text text-anchor="middle" x="702.22" y="-1155.73" font-family="Times,serif" font-size="14.00">owl:sameAs</text>
</g>
<!-- https://w3id.org/oseg/ont/otrl#Odrl3Star -->
<g id="node21" class="node">
<title>https://w3id.org/oseg/ont/otrl#Odrl3Star</title>
<ellipse fill="none" stroke="black" cx="321.26" cy="-460.56" rx="218.49" ry="16.03"/>
<text text-anchor="middle" x="321.26" y="-456.86" font-family="Times,serif" font-size="14.00">https://w3id.org/oseg/ont/otrl#Odrl3Star</text>
</g>
<!-- https://w3id.org/oseg/ont/otrl#Odrl3Star&#45;&gt;https://w3id.org/oseg/ont/otrl#ODRL3Star -->
<g id="edge2" class="edge">
<title>https://w3id.org/oseg/ont/otrl#Odrl3Star&#45;&gt;https://w3id.org/oseg/ont/otrl#ODRL3Star</title>
<path fill="none" stroke="black" d="M335.61,-477.02C385.32,-525.54 550.15,-667.28 620.21,-722.23"/>
<polygon fill="black" stroke="black" points="618.23,-725.12 628.27,-728.49 622.52,-719.59 618.23,-725.12"/>
<text text-anchor="middle" x="397.91" y="-603.42" font-family="Times,serif" font-size="14.00">schema:supersededBy</text>
</g>
<!-- https://w3id.org/oseg/ont/otrl#Odrl3Star&#45;&gt;https://w3id.org/oseg/ont/otrl#ODRL3Star -->
<g id="edge27" class="edge">
<title>https://w3id.org/oseg/ont/otrl#Odrl3Star&#45;&gt;https://w3id.org/oseg/ont/otrl#ODRL3Star</title>
<path fill="none" stroke="black" d="M345.82,-476.88C408.29,-524.96 572.08,-665.36 630.81,-721.13"/>
<polygon fill="black" stroke="black" points="628.44,-723.7 638.07,-728.12 633.29,-718.66 628.44,-723.7"/>
<text text-anchor="middle" x="445.82" y="-587.81" font-family="Times,serif" font-size="14.00">owl:sameAs</text>
</g>
<!-- https://w3id.org/oseg/ont/otrl#Otrl6 -->
<g id="node22" class="node">
<title>https://w3id.org/oseg/ont/otrl#Otrl6</title>
<ellipse fill="none" stroke="black" cx="1353.29" cy="-1622.36" rx="194.41" ry="16.03"/>
<text text-anchor="middle" x="1353.29" y="-1618.66" font-family="Times,serif" font-size="14.00">https://w3id.org/oseg/ont/otrl#Otrl6</text>
</g>
<!-- https://w3id.org/oseg/ont/otrl#Otrl6&#45;&gt;https://w3id.org/oseg/ont/otrl#OTRL6 -->
<g id="edge3" class="edge">
<title>https://w3id.org/oseg/ont/otrl#Otrl6&#45;&gt;https://w3id.org/oseg/ont/otrl#OTRL6</title>
<path fill="none" stroke="black" d="M1360.24,-1606.02C1360.25,-1605.91 1360.25,-1605.8 1360.26,-1605.7"/>
<polygon fill="black" stroke="black" points="1363.76,-1605.69 1360.44,-1595.63 1356.77,-1605.57 1363.76,-1605.69"/>
<text text-anchor="middle" x="1402.75" y="-1594.66" font-family="Times,serif" font-size="14.00">owl:sameAs</text>
</g>
<!-- https://w3id.org/oseg/ont/otrl#Otrl6&#45;&gt;https://w3id.org/oseg/ont/otrl#OTRL6 -->
<g id="edge37" class="edge">
<title>https://w3id.org/oseg/ont/otrl#Otrl6&#45;&gt;https://w3id.org/oseg/ont/otrl#OTRL6</title>
<path fill="none" stroke="black" d="M1347.07,-1605.73C1347.06,-1605.62 1347.06,-1605.52 1347.06,-1605.42"/>
<polygon fill="black" stroke="black" points="1350.55,-1605.71 1347.3,-1595.62 1343.55,-1605.54 1350.55,-1605.71"/>
<text text-anchor="middle" x="1267.06" y="-1594.37" font-family="Times,serif" font-size="14.00">schema:supersededBy</text>
</g>
<!-- https://w3id.org/oseg/ont/otrl#Odrl1 -->
<g id="node23" class="node">
<title>https://w3id.org/oseg/ont/otrl#Odrl1</title>
<ellipse fill="none" stroke="black" cx="1046.82" cy="-755.97" rx="196.65" ry="16.03"/>
<text text-anchor="middle" x="1046.82" y="-752.27" font-family="Times,serif" font-size="14.00">https://w3id.org/oseg/ont/otrl#Odrl1</text>
</g>
<!-- https://w3id.org/oseg/ont/otrl#Odrl1&#45;&gt;https://w3id.org/oseg/ont/otrl#ODRL1 -->
<g id="edge5" class="edge">
<title>https://w3id.org/oseg/ont/otrl#Odrl1&#45;&gt;https://w3id.org/oseg/ont/otrl#ODRL1</title>
<path fill="none" stroke="black" d="M1026.31,-772.29C1025.19,-773.72 1024.09,-775.2 1023.03,-776.68"/>
<polygon fill="black" stroke="black" points="1020.04,-774.86 1017.5,-785.14 1025.9,-778.69 1020.04,-774.86"/>
<text text-anchor="middle" x="1104.67" y="-778.29" font-family="Times,serif" font-size="14.00">schema:supersededBy</text>
</g>
<!-- https://w3id.org/oseg/ont/otrl#Odrl1&#45;&gt;https://w3id.org/oseg/ont/otrl#ODRL1 -->
<g id="edge8" class="edge">
<title>https://w3id.org/oseg/ont/otrl#Odrl1&#45;&gt;https://w3id.org/oseg/ont/otrl#ODRL1</title>
<path fill="none" stroke="black" d="M1042.32,-772.28C1041.37,-773.9 1040.32,-775.56 1039.21,-777.23"/>
<polygon fill="black" stroke="black" points="1036.25,-775.35 1033.21,-785.5 1041.91,-779.46 1036.25,-775.35"/>
<text text-anchor="middle" x="998.26" y="-778.55" font-family="Times,serif" font-size="14.00">owl:sameAs</text>
</g>
<!-- https://w3id.org/oseg/ont/otrl#Odrl -->
<g id="node24" class="node">
<title>https://w3id.org/oseg/ont/otrl#Odrl</title>
<ellipse fill="none" stroke="black" cx="501.37" cy="-814.63" rx="190.42" ry="16.03"/>
<text text-anchor="middle" x="501.37" y="-810.93" font-family="Times,serif" font-size="14.00">https://w3id.org/oseg/ont/otrl#Odrl</text>
</g>
<!-- https://w3id.org/oseg/ont/otrl#Odrl&#45;&gt;https://w3id.org/oseg/ont/otrl#ODRL -->
<g id="edge6" class="edge">
<title>https://w3id.org/oseg/ont/otrl#Odrl&#45;&gt;https://w3id.org/oseg/ont/otrl#ODRL</title>
<path fill="none" stroke="black" d="M531.24,-830.82C591.87,-858.47 729.98,-913.62 805.88,-940.8"/>
<polygon fill="black" stroke="black" points="805.12,-944.24 815.72,-944.28 807.46,-937.64 805.12,-944.24"/>
<text text-anchor="middle" x="626.06" y="-889.61" font-family="Times,serif" font-size="14.00">owl:sameAs</text>
</g>
<!-- https://w3id.org/oseg/ont/otrl#Odrl&#45;&gt;https://w3id.org/oseg/ont/otrl#ODRL -->
<g id="edge30" class="edge">
<title>https://w3id.org/oseg/ont/otrl#Odrl&#45;&gt;https://w3id.org/oseg/ont/otrl#ODRL</title>
<path fill="none" stroke="black" d="M554.31,-830.38C627.88,-856.75 759.06,-909.04 822.26,-937.38"/>
<polygon fill="black" stroke="black" points="820.89,-940.6 831.44,-941.55 823.79,-934.23 820.89,-940.6"/>
<text text-anchor="middle" x="608.29" y="-872.68" font-family="Times,serif" font-size="14.00">schema:supersededBy</text>
</g>
<!-- https://w3id.org/oseg/ont/otrl#Odrl3 -->
<g id="node25" class="node">
<title>https://w3id.org/oseg/ont/otrl#Odrl3</title>
<ellipse fill="none" stroke="black" cx="196.17" cy="-981.58" rx="196.65" ry="16.03"/>
<text text-anchor="middle" x="196.17" y="-977.88" font-family="Times,serif" font-size="14.00">https://w3id.org/oseg/ont/otrl#Odrl3</text>
</g>
<!-- https://w3id.org/oseg/ont/otrl#Odrl3&#45;&gt;https://w3id.org/oseg/ont/otrl#ODRL3 -->
<g id="edge7" class="edge">
<title>https://w3id.org/oseg/ont/otrl#Odrl3&#45;&gt;https://w3id.org/oseg/ont/otrl#ODRL3</title>
<path fill="none" stroke="black" d="M390.65,-979.1C435.05,-976.99 479.46,-974.42 514.66,-971.81"/>
<polygon fill="black" stroke="black" points="515.1,-975.29 524.81,-971.04 514.57,-968.31 515.1,-975.29"/>
<text text-anchor="middle" x="473.91" y="-964.26" font-family="Times,serif" font-size="14.00">owl:sameAs</text>
</g>
<!-- https://w3id.org/oseg/ont/otrl#Odrl3&#45;&gt;https://w3id.org/oseg/ont/otrl#ODRL3 -->
<g id="edge44" class="edge">
<title>https://w3id.org/oseg/ont/otrl#Odrl3&#45;&gt;https://w3id.org/oseg/ont/otrl#ODRL3</title>
<path fill="none" stroke="black" d="M323.4,-969.15C383.68,-965.6 453.81,-962.54 506.37,-961.28"/>
<polygon fill="black" stroke="black" points="506.72,-964.78 516.64,-961.06 506.56,-957.78 506.72,-964.78"/>
<text text-anchor="middle" x="334.88" y="-954.02" font-family="Times,serif" font-size="14.00">schema:supersededBy</text>
</g>
<!-- https://w3id.org/oseg/ont/otrl#Otrl5 -->
<g id="node26" class="node">
<title>https://w3id.org/oseg/ont/otrl#Otrl5</title>
<ellipse fill="none" stroke="black" cx="1755.13" cy="-1875.22" rx="194.41" ry="16.03"/>
<text text-anchor="middle" x="1755.13" y="-1871.52" font-family="Times,serif" font-size="14.00">https://w3id.org/oseg/ont/otrl#Otrl5</text>
</g>
<!-- https://w3id.org/oseg/ont/otrl#Otrl5&#45;&gt;https://w3id.org/oseg/ont/otrl#OTRL5 -->
<g id="edge9" class="edge">
<title>https://w3id.org/oseg/ont/otrl#Otrl5&#45;&gt;https://w3id.org/oseg/ont/otrl#OTRL5</title>
<path fill="none" stroke="black" d="M1746.73,-1858.69C1713.98,-1806.68 1596.11,-1646.76 1545.93,-1585.61"/>
<polygon fill="black" stroke="black" points="1548.4,-1583.11 1539.31,-1577.66 1543.02,-1587.59 1548.4,-1583.11"/>
<text text-anchor="middle" x="1566.33" y="-1710.95" font-family="Times,serif" font-size="14.00">schema:supersededBy</text>
</g>
<!-- https://w3id.org/oseg/ont/otrl#Otrl5&#45;&gt;https://w3id.org/oseg/ont/otrl#OTRL5 -->
<g id="edge34" class="edge">
<title>https://w3id.org/oseg/ont/otrl#Otrl5&#45;&gt;https://w3id.org/oseg/ont/otrl#OTRL5</title>
<path fill="none" stroke="black" d="M1738.95,-1859.01C1695.52,-1807.64 1577.87,-1648.71 1537.15,-1586.67"/>
<polygon fill="black" stroke="black" points="1539.86,-1584.42 1531.51,-1577.9 1533.98,-1588.21 1539.86,-1584.42"/>
<text text-anchor="middle" x="1595.55" y="-1726.64" font-family="Times,serif" font-size="14.00">owl:sameAs</text>
</g>
<!-- https://w3id.org/oseg/ont/otrl#Otrl4 -->
<g id="node27" class="node">
<title>https://w3id.org/oseg/ont/otrl#Otrl4</title>
<ellipse fill="none" stroke="black" cx="2022.56" cy="-1446.55" rx="194.41" ry="16.03"/>
<text text-anchor="middle" x="2022.56" y="-1442.85" font-family="Times,serif" font-size="14.00">https://w3id.org/oseg/ont/otrl#Otrl4</text>
</g>
<!-- https://w3id.org/oseg/ont/otrl#Otrl4&#45;&gt;https://w3id.org/oseg/ont/otrl#OTRL4 -->
<g id="edge10" class="edge">
<title>https://w3id.org/oseg/ont/otrl#Otrl4&#45;&gt;https://w3id.org/oseg/ont/otrl#OTRL4</title>
<path fill="none" stroke="black" d="M1966.31,-1430.95C1895.91,-1415.32 1775.26,-1392.43 1698.29,-1379.99"/>
<polygon fill="black" stroke="black" points="1698.62,-1376.5 1688.19,-1378.38 1697.52,-1383.41 1698.62,-1376.5"/>
<text text-anchor="middle" x="1789.8" y="-1394.27" font-family="Times,serif" font-size="14.00">owl:sameAs</text>
</g>
<!-- https://w3id.org/oseg/ont/otrl#Otrl4&#45;&gt;https://w3id.org/oseg/ont/otrl#OTRL4 -->
<g id="edge22" class="edge">
<title>https://w3id.org/oseg/ont/otrl#Otrl4&#45;&gt;https://w3id.org/oseg/ont/otrl#OTRL4</title>
<path fill="none" stroke="black" d="M1917.4,-1432.85C1840.69,-1419.69 1739.95,-1400.27 1679.4,-1386.72"/>
<polygon fill="black" stroke="black" points="1679.83,-1383.23 1669.3,-1384.43 1678.28,-1390.06 1679.83,-1383.23"/>
<text text-anchor="middle" x="1878.4" y="-1413.59" font-family="Times,serif" font-size="14.00">schema:supersededBy</text>
</g>
<!-- https://w3id.org/oseg/ont/otrl#Otrl1 -->
<g id="node28" class="node">
<title>https://w3id.org/oseg/ont/otrl#Otrl1</title>
<ellipse fill="none" stroke="black" cx="1560.04" cy="-1088.07" rx="194.41" ry="16.03"/>
<text text-anchor="middle" x="1560.04" y="-1084.37" font-family="Times,serif" font-size="14.00">https://w3id.org/oseg/ont/otrl#Otrl1</text>
</g>
<!-- https://w3id.org/oseg/ont/otrl#Otrl1&#45;&gt;https://w3id.org/oseg/ont/otrl#OTRL1 -->
<g id="edge12" class="edge">
<title>https://w3id.org/oseg/ont/otrl#Otrl1&#45;&gt;https://w3id.org/oseg/ont/otrl#OTRL1</title>
<path fill="none" stroke="black" d="M1536.32,-1104.52C1536.24,-1104.6 1536.17,-1104.68 1536.09,-1104.77"/>
<polygon fill="black" stroke="black" points="1533.28,-1102.68 1529.73,-1112.67 1538.73,-1107.07 1533.28,-1102.68"/>
<text text-anchor="middle" x="1616.21" y="-1108.44" font-family="Times,serif" font-size="14.00">schema:supersededBy</text>
</g>
<!-- https://w3id.org/oseg/ont/otrl#Otrl1&#45;&gt;https://w3id.org/oseg/ont/otrl#OTRL1 -->
<g id="edge45" class="edge">
<title>https://w3id.org/oseg/ont/otrl#Otrl1&#45;&gt;https://w3id.org/oseg/ont/otrl#OTRL1</title>
<path fill="none" stroke="black" d="M1553.57,-1104.75C1553.29,-1105.12 1553.02,-1105.49 1552.73,-1105.86"/>
<polygon fill="black" stroke="black" points="1549.94,-1103.75 1546.23,-1113.67 1555.32,-1108.22 1549.94,-1103.75"/>
<text text-anchor="middle" x="1510.65" y="-1109.11" font-family="Times,serif" font-size="14.00">owl:sameAs</text>
</g>
<!-- https://w3id.org/oseg/ont/otrl#Otrl -->
<g id="node29" class="node">
<title>https://w3id.org/oseg/ont/otrl#Otrl</title>
<ellipse fill="none" stroke="black" cx="1727.36" cy="-1237.33" rx="188.18" ry="16.03"/>
<text text-anchor="middle" x="1727.36" y="-1233.63" font-family="Times,serif" font-size="14.00">https://w3id.org/oseg/ont/otrl#Otrl</text>
</g>
<!-- https://w3id.org/oseg/ont/otrl#Otrl&#45;&gt;https://w3id.org/oseg/ont/otrl#OTRL -->
<g id="edge15" class="edge">
<title>https://w3id.org/oseg/ont/otrl#Otrl&#45;&gt;https://w3id.org/oseg/ont/otrl#OTRL</title>
<path fill="none" stroke="black" d="M1640.42,-1251.8C1561.24,-1268.57 1447.31,-1295.58 1384.02,-1312.86"/>
<polygon fill="black" stroke="black" points="1383.01,-1309.51 1374.31,-1315.55 1384.88,-1316.26 1383.01,-1309.51"/>
<text text-anchor="middle" x="1432.22" y="-1286.13" font-family="Times,serif" font-size="14.00">schema:supersededBy</text>
</g>
<!-- https://w3id.org/oseg/ont/otrl#Otrl&#45;&gt;https://w3id.org/oseg/ont/otrl#OTRL -->
<g id="edge35" class="edge">
<title>https://w3id.org/oseg/ont/otrl#Otrl&#45;&gt;https://w3id.org/oseg/ont/otrl#OTRL</title>
<path fill="none" stroke="black" d="M1680.17,-1253.12C1610.42,-1272.15 1479.63,-1302.9 1401.25,-1318.84"/>
<polygon fill="black" stroke="black" points="1400.14,-1315.49 1391.02,-1320.89 1401.51,-1322.35 1400.14,-1315.49"/>
<text text-anchor="middle" x="1583.21" y="-1289.78" font-family="Times,serif" font-size="14.00">owl:sameAs</text>
</g>
<!-- https://w3id.org/oseg/ont/otrl#Otrl3 -->
<g id="node30" class="node">
<title>https://w3id.org/oseg/ont/otrl#Otrl3</title>
<ellipse fill="none" stroke="black" cx="1513.14" cy="-1415.84" rx="194.41" ry="16.03"/>
<text text-anchor="middle" x="1513.14" y="-1412.14" font-family="Times,serif" font-size="14.00">https://w3id.org/oseg/ont/otrl#Otrl3</text>
</g>
<!-- https://w3id.org/oseg/ont/otrl#Otrl3&#45;&gt;https://w3id.org/oseg/ont/otrl#OTRL3 -->
<g id="edge17" class="edge">
<title>https://w3id.org/oseg/ont/otrl#Otrl3&#45;&gt;https://w3id.org/oseg/ont/otrl#OTRL3</title>
<path fill="none" stroke="black" d="M1503.62,-1399.51C1502.12,-1397.95 1500.52,-1396.34 1498.84,-1394.74"/>
<polygon fill="black" stroke="black" points="1500.89,-1391.88 1491.11,-1387.8 1496.21,-1397.09 1500.89,-1391.88"/>
<text text-anchor="middle" x="1421.23" y="-1385.93" font-family="Times,serif" font-size="14.00">schema:supersededBy</text>
</g>
<!-- https://w3id.org/oseg/ont/otrl#Otrl3&#45;&gt;https://w3id.org/oseg/ont/otrl#OTRL3 -->
<g id="edge48" class="edge">
<title>https://w3id.org/oseg/ont/otrl#Otrl3&#45;&gt;https://w3id.org/oseg/ont/otrl#OTRL3</title>
<path fill="none" stroke="black" d="M1484.28,-1399.73C1483.03,-1398.65 1481.79,-1397.55 1480.58,-1396.45"/>
<polygon fill="black" stroke="black" points="1482.73,-1393.65 1473.13,-1389.17 1477.84,-1398.66 1482.73,-1393.65"/>
<text text-anchor="middle" x="1524.93" y="-1386.89" font-family="Times,serif" font-size="14.00">owl:sameAs</text>
</g>
<!-- https://w3id.org/oseg/ont/otrl#Otrl2 -->
<g id="node31" class="node">
<title>https://w3id.org/oseg/ont/otrl#Otrl2</title>
<ellipse fill="none" stroke="black" cx="1094.06" cy="-1947.32" rx="194.41" ry="16.03"/>
<text text-anchor="middle" x="1094.06" y="-1943.62" font-family="Times,serif" font-size="14.00">https://w3id.org/oseg/ont/otrl#Otrl2</text>
</g>
<!-- https://w3id.org/oseg/ont/otrl#Otrl2&#45;&gt;https://w3id.org/oseg/ont/otrl#OTRL2 -->
<g id="edge19" class="edge">
<title>https://w3id.org/oseg/ont/otrl#Otrl2&#45;&gt;https://w3id.org/oseg/ont/otrl#OTRL2</title>
<path fill="none" stroke="black" d="M1102.15,-1931.04C1124.89,-1872.2 1186.07,-1670.34 1203.56,-1597.35"/>
<polygon fill="black" stroke="black" points="1207.07,-1597.7 1205.89,-1587.17 1200.24,-1596.13 1207.07,-1597.7"/>
<text text-anchor="middle" x="1072.85" y="-1767.99" font-family="Times,serif" font-size="14.00">schema:supersededBy</text>
</g>
<!-- https://w3id.org/oseg/ont/otrl#Otrl2&#45;&gt;https://w3id.org/oseg/ont/otrl#OTRL2 -->
<g id="edge39" class="edge">
<title>https://w3id.org/oseg/ont/otrl#Otrl2&#45;&gt;https://w3id.org/oseg/ont/otrl#OTRL2</title>
<path fill="none" stroke="black" d="M1096.02,-1930.77C1108.9,-1871.4 1169.81,-1668.86 1196.15,-1596.61"/>
<polygon fill="black" stroke="black" points="1199.54,-1597.52 1199.77,-1586.93 1192.99,-1595.07 1199.54,-1597.52"/>
<text text-anchor="middle" x="1103.58" y="-1752.49" font-family="Times,serif" font-size="14.00">owl:sameAs</text>
</g>
<!-- https://w3id.org/oseg/ont/otrl#Odrl5 -->
<g id="node32" class="node">
<title>https://w3id.org/oseg/ont/otrl#Odrl5</title>
<ellipse fill="none" stroke="black" cx="721.26" cy="-15.81" rx="196.65" ry="16.03"/>
<text text-anchor="middle" x="721.26" y="-12.11" font-family="Times,serif" font-size="14.00">https://w3id.org/oseg/ont/otrl#Odrl5</text>
</g>
<!-- https://w3id.org/oseg/ont/otrl#Odrl5&#45;&gt;https://w3id.org/oseg/ont/otrl#Odrl4 -->
<g id="edge33" class="edge">
<title>https://w3id.org/oseg/ont/otrl#Odrl5&#45;&gt;https://w3id.org/oseg/ont/otrl#Odrl4</title>
<path fill="none" stroke="black" d="M720.91,-32.12C725.5,-91.53 758.03,-296.72 774.12,-369.78"/>
<polygon fill="black" stroke="black" points="770.72,-370.61 776.37,-379.57 777.54,-369.04 770.72,-370.61"/>
<text text-anchor="middle" x="667.52" y="-204.75" font-family="Times,serif" font-size="14.00">schema:supersededBy</text>
</g>
<!-- https://w3id.org/oseg/ont/otrl#Odrl5&#45;&gt;https://w3id.org/oseg/ont/otrl#Odrl4 -->
<g id="edge43" class="edge">
<title>https://w3id.org/oseg/ont/otrl#Odrl5&#45;&gt;https://w3id.org/oseg/ont/otrl#Odrl4</title>
<path fill="none" stroke="black" d="M726.9,-32.16C741.21,-91.39 773.99,-295.1 781.38,-368.9"/>
<polygon fill="black" stroke="black" points="777.93,-369.56 782.31,-379.2 784.9,-368.93 777.93,-369.56"/>
<text text-anchor="middle" x="711.64" y="-189.33" font-family="Times,serif" font-size="14.00">owl:sameAs</text>
</g>
</g>
</svg>
