<?xml version="1.0" encoding="UTF-8" standalone="no"?>
<!DOCTYPE svg PUBLIC "-//W3C//DTD SVG 1.1//EN"
 "http://www.w3.org/Graphics/SVG/1.1/DTD/svg11.dtd">
<!-- Generated by graphviz version 2.43.0 (0)
 -->
<!-- Title: G Pages: 1 -->
<svg width="632pt" height="968pt"
 viewBox="0.00 0.00 631.63 967.69" xmlns="http://www.w3.org/2000/svg" xmlns:xlink="http://www.w3.org/1999/xlink">
<g id="graph0" class="graph" transform="scale(1 1) rotate(0) translate(4 963.69)">
<title>G</title>
<polygon fill="white" stroke="transparent" points="-4,4 -4,-963.69 627.63,-963.69 627.63,4 -4,4"/>
<!-- http://purl.org/oseg/ontologies/OTRL#ODRL -->
<g id="node1" class="node">
<title>http://purl.org/oseg/ontologies/OTRL#ODRL</title>
<ellipse fill="none" stroke="#e377c2" cx="566.36" cy="-512.43" rx="41.94" ry="16.03"/>
<text text-anchor="middle" x="566.36" y="-508.73" font-family="Times,serif" font-size="14.00">ODRL</text>
</g>
<!-- http://www.w3.org/2002/07/owl#DatatypeProperty -->
<g id="node2" class="node">
<title>http://www.w3.org/2002/07/owl#DatatypeProperty</title>
<ellipse fill="none" stroke="#1f77b4" cx="341.04" cy="-743.43" rx="123.07" ry="16.03"/>
<text text-anchor="middle" x="341.04" y="-739.73" font-family="Times,serif" font-size="14.00">owl:DatatypeProperty</text>
</g>
<!-- http://www.w3.org/2002/07/owl#Ontology -->
<g id="node3" class="node">
<title>http://www.w3.org/2002/07/owl#Ontology</title>
<ellipse fill="none" stroke="#1f77b4" cx="341.04" cy="-808.43" rx="77.56" ry="16.03"/>
<text text-anchor="middle" x="341.04" y="-804.73" font-family="Times,serif" font-size="14.00">owl:Ontology</text>
</g>
<!-- http://purl.org/oseg/ontologies/OTRL#OTRL -->
<g id="node4" class="node">
<title>http://purl.org/oseg/ontologies/OTRL#OTRL</title>
<ellipse fill="none" stroke="#e377c2" cx="341.04" cy="-237.43" rx="39.7" ry="16.03"/>
<text text-anchor="middle" x="341.04" y="-233.73" font-family="Times,serif" font-size="14.00">OTRL</text>
</g>
<!-- http://www.w3.org/2002/07/owl#class -->
<g id="node5" class="node">
<title>http://www.w3.org/2002/07/owl#class</title>
<ellipse fill="none" stroke="#1f77b4" cx="566.36" cy="-301.43" rx="57.05" ry="16.03"/>
<text text-anchor="middle" x="566.36" y="-297.73" font-family="Times,serif" font-size="14.00">owl:class</text>
</g>
<!-- http://purl.org/oseg/ontologies/OTRL#OTRL&#45;&gt;http://www.w3.org/2002/07/owl#class -->
<g id="edge22" class="edge">
<title>http://purl.org/oseg/ontologies/OTRL#OTRL&#45;&gt;http://www.w3.org/2002/07/owl#class</title>
<path fill="none" stroke="black" d="M380.28,-239.63C410.92,-242.27 454.66,-248.01 491.08,-260.43 506,-265.52 521.43,-273.52 534.33,-281.11"/>
<polygon fill="black" stroke="black" points="532.87,-284.32 543.23,-286.51 536.5,-278.33 532.87,-284.32"/>
<text text-anchor="middle" x="486.58" y="-264.23" font-family="Times,serif" font-size="14.00">a</text>
</g>
<!-- http://purl.org/oseg/ontologies/OTRL#Otrl -->
<g id="node6" class="node">
<title>http://purl.org/oseg/ontologies/OTRL#Otrl</title>
<ellipse fill="none" stroke="#e377c2" cx="70" cy="-892.43" rx="31.64" ry="16.03"/>
<text text-anchor="middle" x="70" y="-888.73" font-family="Times,serif" font-size="14.00">Otrl</text>
</g>
<!-- http://www.w3.org/1999/02/22&#45;rdf&#45;syntax&#45;ns#nil -->
<g id="node7" class="node">
<title>http://www.w3.org/1999/02/22&#45;rdf&#45;syntax&#45;ns#nil</title>
<ellipse fill="none" stroke="#e377c2" cx="70" cy="-943.43" rx="42.35" ry="16.03"/>
<text text-anchor="middle" x="70" y="-939.73" font-family="Times,serif" font-size="14.00">rdf:nil</text>
</g>
<!-- http://purl.org/oseg/ontologies/OTRL#Otrl3 -->
<g id="node8" class="node">
<title>http://purl.org/oseg/ontologies/OTRL#Otrl3</title>
<ellipse fill="none" stroke="#e377c2" cx="70" cy="-333.43" rx="38.37" ry="16.03"/>
<text text-anchor="middle" x="70" y="-329.73" font-family="Times,serif" font-size="14.00">Otrl3</text>
</g>
<!-- http://purl.org/oseg/ontologies/OTRL#Otrl3&#45;&gt;http://purl.org/oseg/ontologies/OTRL#OTRL -->
<g id="edge16" class="edge">
<title>http://purl.org/oseg/ontologies/OTRL#Otrl3&#45;&gt;http://purl.org/oseg/ontologies/OTRL#OTRL</title>
<path fill="none" stroke="black" d="M96.18,-321.46C131.55,-304.76 194.27,-275.6 218.01,-267.43 242.99,-258.83 271.64,-251.66 294.9,-246.48"/>
<polygon fill="black" stroke="black" points="295.81,-249.86 304.84,-244.32 294.32,-243.02 295.81,-249.86"/>
</g>
<!-- http://purl.org/oseg/ontologies/OTRL#Otrl3&#45;&gt;http://www.w3.org/2002/07/owl#class -->
<g id="edge17" class="edge">
<title>http://purl.org/oseg/ontologies/OTRL#Otrl3&#45;&gt;http://www.w3.org/2002/07/owl#class</title>
<path fill="none" stroke="black" d="M108.2,-332.86C178.07,-331.54 333.64,-327.41 464.08,-315.43 477.53,-314.2 491.94,-312.46 505.54,-310.62"/>
<polygon fill="black" stroke="black" points="506.33,-314.05 515.75,-309.21 505.37,-307.12 506.33,-314.05"/>
<text text-anchor="middle" x="341.04" y="-334.23" font-family="Times,serif" font-size="14.00">a</text>
</g>
<!-- http://purl.org/oseg/ontologies/OTRL#Odrl3 -->
<g id="node9" class="node">
<title>http://purl.org/oseg/ontologies/OTRL#Odrl3</title>
<ellipse fill="none" stroke="#e377c2" cx="341.04" cy="-613.43" rx="40.11" ry="16.03"/>
<text text-anchor="middle" x="341.04" y="-609.73" font-family="Times,serif" font-size="14.00">Odrl3</text>
</g>
<!-- http://purl.org/oseg/ontologies/OTRL#Odrl3&#45;&gt;http://purl.org/oseg/ontologies/OTRL#ODRL -->
<g id="edge6" class="edge">
<title>http://purl.org/oseg/ontologies/OTRL#Odrl3&#45;&gt;http://purl.org/oseg/ontologies/OTRL#ODRL</title>
<path fill="none" stroke="black" d="M371.14,-624.38C402.66,-634.32 453.48,-644.61 491.08,-624.43 524.8,-606.33 545.81,-565.44 556.54,-538.4"/>
<polygon fill="black" stroke="black" points="559.91,-539.38 560.16,-528.79 553.36,-536.91 559.91,-539.38"/>
</g>
<!-- http://purl.org/oseg/ontologies/OTRL#Odrl3&#45;&gt;http://www.w3.org/2002/07/owl#class -->
<g id="edge1" class="edge">
<title>http://purl.org/oseg/ontologies/OTRL#Odrl3&#45;&gt;http://www.w3.org/2002/07/owl#class</title>
<path fill="none" stroke="black" d="M381.4,-613.15C407.27,-611.08 440.57,-604.63 464.08,-586.43 484.99,-570.25 481.02,-557.88 491.08,-533.43 521.05,-460.63 546.71,-371.03 558.48,-327.56"/>
<polygon fill="black" stroke="black" points="561.89,-328.35 561.1,-317.78 555.13,-326.53 561.89,-328.35"/>
<text text-anchor="middle" x="486.58" y="-565.23" font-family="Times,serif" font-size="14.00">a</text>
</g>
<!-- http://purl.org/oseg/ontologies/OTRL#Odrl2 -->
<g id="node10" class="node">
<title>http://purl.org/oseg/ontologies/OTRL#Odrl2</title>
<ellipse fill="none" stroke="#e377c2" cx="341.04" cy="-561.43" rx="40.11" ry="16.03"/>
<text text-anchor="middle" x="341.04" y="-557.73" font-family="Times,serif" font-size="14.00">Odrl2</text>
</g>
<!-- http://purl.org/oseg/ontologies/OTRL#Odrl2&#45;&gt;http://purl.org/oseg/ontologies/OTRL#ODRL -->
<g id="edge13" class="edge">
<title>http://purl.org/oseg/ontologies/OTRL#Odrl2&#45;&gt;http://purl.org/oseg/ontologies/OTRL#ODRL</title>
<path fill="none" stroke="black" d="M378.73,-567.2C409.43,-570.68 454.03,-572.55 491.08,-561.43 509.46,-555.91 527.49,-544.21 541.18,-533.63"/>
<polygon fill="black" stroke="black" points="543.52,-536.25 549.11,-527.25 539.13,-530.79 543.52,-536.25"/>
</g>
<!-- http://purl.org/oseg/ontologies/OTRL#Odrl2&#45;&gt;http://www.w3.org/2002/07/owl#class -->
<g id="edge2" class="edge">
<title>http://purl.org/oseg/ontologies/OTRL#Odrl2&#45;&gt;http://www.w3.org/2002/07/owl#class</title>
<path fill="none" stroke="black" d="M381.41,-560.76C407.45,-558.39 440.94,-551.43 464.08,-532.43 528.89,-479.21 553.41,-376.34 561.65,-327.89"/>
<polygon fill="black" stroke="black" points="565.13,-328.3 563.25,-317.87 558.22,-327.2 565.13,-328.3"/>
<text text-anchor="middle" x="486.58" y="-518.23" font-family="Times,serif" font-size="14.00">a</text>
</g>
<!-- http://schema.org/Text -->
<g id="node11" class="node">
<title>http://schema.org/Text</title>
<ellipse fill="none" stroke="#e377c2" cx="341.04" cy="-664.43" rx="74.91" ry="16.03"/>
<text text-anchor="middle" x="341.04" y="-660.73" font-family="Times,serif" font-size="14.00">schema:Text</text>
</g>
<!-- http://purl.org/oseg/ontologies/OTRL#Otrl1 -->
<g id="node12" class="node">
<title>http://purl.org/oseg/ontologies/OTRL#Otrl1</title>
<ellipse fill="none" stroke="#e377c2" cx="70" cy="-275.43" rx="38.37" ry="16.03"/>
<text text-anchor="middle" x="70" y="-271.73" font-family="Times,serif" font-size="14.00">Otrl1</text>
</g>
<!-- http://purl.org/oseg/ontologies/OTRL#Otrl1&#45;&gt;http://purl.org/oseg/ontologies/OTRL#OTRL -->
<g id="edge10" class="edge">
<title>http://purl.org/oseg/ontologies/OTRL#Otrl1&#45;&gt;http://purl.org/oseg/ontologies/OTRL#OTRL</title>
<path fill="none" stroke="black" d="M106.45,-270.42C154.34,-263.66 239.82,-251.59 293.03,-244.07"/>
<polygon fill="black" stroke="black" points="293.81,-247.5 303.22,-242.63 292.83,-240.56 293.81,-247.5"/>
</g>
<!-- http://purl.org/oseg/ontologies/OTRL#Otrl1&#45;&gt;http://www.w3.org/2002/07/owl#class -->
<g id="edge20" class="edge">
<title>http://purl.org/oseg/ontologies/OTRL#Otrl1&#45;&gt;http://www.w3.org/2002/07/owl#class</title>
<path fill="none" stroke="black" d="M108.16,-277.38C191.5,-281.77 394.25,-292.43 499.51,-297.97"/>
<polygon fill="black" stroke="black" points="499.52,-301.47 509.69,-298.5 499.89,-294.48 499.52,-301.47"/>
<text text-anchor="middle" x="341.04" y="-300.23" font-family="Times,serif" font-size="14.00">a</text>
</g>
<!-- http://purl.org/oseg/ontologies/OTRL -->
<g id="node13" class="node">
<title>http://purl.org/oseg/ontologies/OTRL</title>
<ellipse fill="none" stroke="#e377c2" cx="70" cy="-808.43" rx="60.62" ry="16.03"/>
<text text-anchor="middle" x="70" y="-804.73" font-family="Times,serif" font-size="14.00">ns1:OTRL</text>
</g>
<!-- http://purl.org/oseg/ontologies/OTRL&#45;&gt;http://www.w3.org/2002/07/owl#Ontology -->
<g id="edge23" class="edge">
<title>http://purl.org/oseg/ontologies/OTRL&#45;&gt;http://www.w3.org/2002/07/owl#Ontology</title>
<path fill="none" stroke="black" d="M131.05,-808.43C166.88,-808.43 213,-808.43 252.8,-808.43"/>
<polygon fill="black" stroke="black" points="253.04,-811.93 263.04,-808.43 253.04,-804.93 253.04,-811.93"/>
<text text-anchor="middle" x="179.01" y="-812.23" font-family="Times,serif" font-size="14.00">a</text>
</g>
<!-- http://purl.org/oseg/ontologies/OTRL&#45;&gt;http://purl.org/oseg/ontologies/OTRL -->
<g id="edge3" class="edge">
<title>http://purl.org/oseg/ontologies/OTRL&#45;&gt;http://purl.org/oseg/ontologies/OTRL</title>
<path fill="none" stroke="black" d="M51.18,-823.94C46.64,-833.55 52.92,-842.69 70,-842.69 80.68,-842.69 87.14,-839.12 89.37,-834.09"/>
<polygon fill="black" stroke="black" points="92.85,-833.73 88.82,-823.94 85.86,-834.11 92.85,-833.73"/>
<text text-anchor="middle" x="70" y="-846.49" font-family="Times,serif" font-size="14.00">owl:versionIRI</text>
</g>
<!-- http://purl.org/oseg/ontologies/OTRL#goal -->
<g id="node14" class="node">
<title>http://purl.org/oseg/ontologies/OTRL#goal</title>
<ellipse fill="none" stroke="#e377c2" cx="70" cy="-751.43" rx="33.47" ry="16.03"/>
<text text-anchor="middle" x="70" y="-747.73" font-family="Times,serif" font-size="14.00">goal</text>
</g>
<!-- http://purl.org/oseg/ontologies/OTRL#goal&#45;&gt;http://www.w3.org/2002/07/owl#DatatypeProperty -->
<g id="edge4" class="edge">
<title>http://purl.org/oseg/ontologies/OTRL#goal&#45;&gt;http://www.w3.org/2002/07/owl#DatatypeProperty</title>
<path fill="none" stroke="black" d="M103.19,-750.47C130.25,-749.67 170.83,-748.46 210.78,-747.27"/>
<polygon fill="black" stroke="black" points="211.03,-750.77 220.92,-746.97 210.82,-743.77 211.03,-750.77"/>
<text text-anchor="middle" x="179.01" y="-753.23" font-family="Times,serif" font-size="14.00">a</text>
</g>
<!-- http://purl.org/oseg/ontologies/OTRL#goal&#45;&gt;http://schema.org/Text -->
<g id="edge11" class="edge">
<title>http://purl.org/oseg/ontologies/OTRL#goal&#45;&gt;http://schema.org/Text</title>
<path fill="none" stroke="black" d="M98.03,-742.69C142.5,-728.31 231.8,-699.43 288.61,-681.06"/>
<polygon fill="black" stroke="black" points="289.69,-684.39 298.13,-677.98 287.54,-677.73 289.69,-684.39"/>
<text text-anchor="middle" x="179.01" y="-727.23" font-family="Times,serif" font-size="14.00">range</text>
</g>
<!-- http://purl.org/oseg/ontologies/OTRL#Odrl4 -->
<g id="node15" class="node">
<title>http://purl.org/oseg/ontologies/OTRL#Odrl4</title>
<ellipse fill="none" stroke="#e377c2" cx="341.04" cy="-507.43" rx="40.11" ry="16.03"/>
<text text-anchor="middle" x="341.04" y="-503.73" font-family="Times,serif" font-size="14.00">Odrl4</text>
</g>
<!-- http://purl.org/oseg/ontologies/OTRL#Odrl4&#45;&gt;http://purl.org/oseg/ontologies/OTRL#ODRL -->
<g id="edge9" class="edge">
<title>http://purl.org/oseg/ontologies/OTRL#Odrl4&#45;&gt;http://purl.org/oseg/ontologies/OTRL#ODRL</title>
<path fill="none" stroke="black" d="M381.45,-508.31C418.43,-509.14 473.93,-510.38 514.28,-511.29"/>
<polygon fill="black" stroke="black" points="514.38,-514.79 524.45,-511.51 514.53,-507.79 514.38,-514.79"/>
</g>
<!-- http://purl.org/oseg/ontologies/OTRL#Odrl4&#45;&gt;http://www.w3.org/2002/07/owl#class -->
<g id="edge21" class="edge">
<title>http://purl.org/oseg/ontologies/OTRL#Odrl4&#45;&gt;http://www.w3.org/2002/07/owl#class</title>
<path fill="none" stroke="black" d="M380.3,-503.5C406.18,-499.19 439.91,-490.19 464.08,-471.43 512.94,-433.49 543.17,-364.81 556.81,-327.41"/>
<polygon fill="black" stroke="black" points="560.19,-328.34 560.22,-317.74 553.59,-326.01 560.19,-328.34"/>
<text text-anchor="middle" x="486.58" y="-458.23" font-family="Times,serif" font-size="14.00">a</text>
</g>
<!-- http://purl.org/oseg/ontologies/OTRL#Odrl -->
<g id="node16" class="node">
<title>http://purl.org/oseg/ontologies/OTRL#Odrl</title>
<ellipse fill="none" stroke="#e377c2" cx="341.04" cy="-186.43" rx="33.88" ry="16.03"/>
<text text-anchor="middle" x="341.04" y="-182.73" font-family="Times,serif" font-size="14.00">Odrl</text>
</g>
<!-- http://purl.org/oseg/ontologies/OTRL#Odrl&#45;&gt;http://www.w3.org/2002/07/owl#class -->
<g id="edge8" class="edge">
<title>http://purl.org/oseg/ontologies/OTRL#Odrl&#45;&gt;http://www.w3.org/2002/07/owl#class</title>
<path fill="none" stroke="black" d="M374.62,-188.84C400.1,-191.78 435.82,-198.24 464.08,-212.43 496.21,-228.57 526.25,-257.38 545.13,-277.85"/>
<polygon fill="black" stroke="black" points="542.75,-280.43 552.04,-285.51 547.94,-275.74 542.75,-280.43"/>
<text text-anchor="middle" x="486.58" y="-232.23" font-family="Times,serif" font-size="14.00">a</text>
</g>
<!-- http://purl.org/oseg/ontologies/OTRL#Odrl1 -->
<g id="node17" class="node">
<title>http://purl.org/oseg/ontologies/OTRL#Odrl1</title>
<ellipse fill="none" stroke="#e377c2" cx="341.04" cy="-446.43" rx="40.11" ry="16.03"/>
<text text-anchor="middle" x="341.04" y="-442.73" font-family="Times,serif" font-size="14.00">Odrl1</text>
</g>
<!-- http://purl.org/oseg/ontologies/OTRL#Odrl1&#45;&gt;http://purl.org/oseg/ontologies/OTRL#ODRL -->
<g id="edge7" class="edge">
<title>http://purl.org/oseg/ontologies/OTRL#Odrl1&#45;&gt;http://purl.org/oseg/ontologies/OTRL#ODRL</title>
<path fill="none" stroke="black" d="M381.47,-445.97C412.19,-446.77 455.47,-450.5 491.08,-463.43 508.76,-469.85 526.42,-481.24 540.08,-491.43"/>
<polygon fill="black" stroke="black" points="537.98,-494.23 548.04,-497.56 542.25,-488.68 537.98,-494.23"/>
</g>
<!-- http://purl.org/oseg/ontologies/OTRL#Odrl1&#45;&gt;http://www.w3.org/2002/07/owl#class -->
<g id="edge24" class="edge">
<title>http://purl.org/oseg/ontologies/OTRL#Odrl1&#45;&gt;http://www.w3.org/2002/07/owl#class</title>
<path fill="none" stroke="black" d="M380.04,-442.25C405.32,-438.14 438.47,-430.07 464.08,-414.43 500.88,-391.95 532.03,-352.02 549.71,-326.14"/>
<polygon fill="black" stroke="black" points="552.75,-327.89 555.38,-317.63 546.92,-324 552.75,-327.89"/>
<text text-anchor="middle" x="486.58" y="-404.23" font-family="Times,serif" font-size="14.00">a</text>
</g>
<!-- http://purl.org/oseg/ontologies/OTRL#exitCriteria -->
<g id="node18" class="node">
<title>http://purl.org/oseg/ontologies/OTRL#exitCriteria</title>
<ellipse fill="none" stroke="#e377c2" cx="70" cy="-669.43" rx="70.01" ry="16.03"/>
<text text-anchor="middle" x="70" y="-665.73" font-family="Times,serif" font-size="14.00">exitCriteria</text>
</g>
<!-- http://purl.org/oseg/ontologies/OTRL#exitCriteria&#45;&gt;http://www.w3.org/2002/07/owl#DatatypeProperty -->
<g id="edge12" class="edge">
<title>http://purl.org/oseg/ontologies/OTRL#exitCriteria&#45;&gt;http://www.w3.org/2002/07/owl#DatatypeProperty</title>
<path fill="none" stroke="black" d="M133.57,-676.38C154.86,-679.47 178.66,-683.73 200.01,-689.43 233.11,-698.27 269.15,-712.28 296.38,-723.81"/>
<polygon fill="black" stroke="black" points="295.06,-727.05 305.63,-727.77 297.82,-720.61 295.06,-727.05"/>
<text text-anchor="middle" x="179.01" y="-693.23" font-family="Times,serif" font-size="14.00">a</text>
</g>
<!-- http://purl.org/oseg/ontologies/OTRL#exitCriteria&#45;&gt;http://schema.org/Text -->
<g id="edge19" class="edge">
<title>http://purl.org/oseg/ontologies/OTRL#exitCriteria&#45;&gt;http://schema.org/Text</title>
<path fill="none" stroke="black" d="M119.05,-657.67C131.65,-655.08 145.27,-652.73 158.01,-651.43 194.86,-647.66 236.01,-650.04 269.86,-653.75"/>
<polygon fill="black" stroke="black" points="269.78,-657.26 280.11,-654.93 270.58,-650.31 269.78,-657.26"/>
<text text-anchor="middle" x="179.01" y="-655.23" font-family="Times,serif" font-size="14.00">range</text>
</g>
<!-- http://purl.org/oseg/ontologies/OTRL#Otrl2 -->
<g id="node19" class="node">
<title>http://purl.org/oseg/ontologies/OTRL#Otrl2</title>
<ellipse fill="none" stroke="#e377c2" cx="70" cy="-196.43" rx="38.37" ry="16.03"/>
<text text-anchor="middle" x="70" y="-192.73" font-family="Times,serif" font-size="14.00">Otrl2</text>
</g>
<!-- http://purl.org/oseg/ontologies/OTRL#Otrl2&#45;&gt;http://purl.org/oseg/ontologies/OTRL#OTRL -->
<g id="edge25" class="edge">
<title>http://purl.org/oseg/ontologies/OTRL#Otrl2&#45;&gt;http://purl.org/oseg/ontologies/OTRL#OTRL</title>
<path fill="none" stroke="black" d="M106.18,-201.79C154.11,-209.1 240.08,-222.2 293.37,-230.32"/>
<polygon fill="black" stroke="black" points="293.16,-233.83 303.57,-231.87 294.21,-226.91 293.16,-233.83"/>
</g>
<!-- http://purl.org/oseg/ontologies/OTRL#Otrl2&#45;&gt;http://www.w3.org/2002/07/owl#class -->
<g id="edge26" class="edge">
<title>http://purl.org/oseg/ontologies/OTRL#Otrl2&#45;&gt;http://www.w3.org/2002/07/owl#class</title>
<path fill="none" stroke="black" d="M95.4,-183.96C160,-152.82 339.14,-78.82 464.08,-146.43 514.86,-173.91 544.24,-239.13 557.25,-275.6"/>
<polygon fill="black" stroke="black" points="553.94,-276.75 560.49,-285.08 560.56,-274.48 553.94,-276.75"/>
<text text-anchor="middle" x="341.04" y="-150.23" font-family="Times,serif" font-size="14.00">a</text>
</g>
<!-- http://purl.org/oseg/ontologies/OTRL#Otrl4 -->
<g id="node20" class="node">
<title>http://purl.org/oseg/ontologies/OTRL#Otrl4</title>
<ellipse fill="none" stroke="#e377c2" cx="70" cy="-106.43" rx="38.37" ry="16.03"/>
<text text-anchor="middle" x="70" y="-102.73" font-family="Times,serif" font-size="14.00">Otrl4</text>
</g>
<!-- http://purl.org/oseg/ontologies/OTRL#Otrl4&#45;&gt;http://purl.org/oseg/ontologies/OTRL#OTRL -->
<g id="edge5" class="edge">
<title>http://purl.org/oseg/ontologies/OTRL#Otrl4&#45;&gt;http://purl.org/oseg/ontologies/OTRL#OTRL</title>
<path fill="none" stroke="black" d="M86.82,-121.15C112.36,-144.1 165.2,-188.16 218.01,-211.43 241.49,-221.78 269.37,-228.12 292.56,-231.94"/>
<polygon fill="black" stroke="black" points="292.09,-235.41 302.51,-233.48 293.16,-228.49 292.09,-235.41"/>
</g>
<!-- http://purl.org/oseg/ontologies/OTRL#Otrl4&#45;&gt;http://www.w3.org/2002/07/owl#class -->
<g id="edge27" class="edge">
<title>http://purl.org/oseg/ontologies/OTRL#Otrl4&#45;&gt;http://www.w3.org/2002/07/owl#class</title>
<path fill="none" stroke="black" d="M99.91,-96.26C168.94,-73.89 346.4,-27.95 464.08,-100.43 526.92,-139.13 552.16,-230.12 561.08,-275.19"/>
<polygon fill="black" stroke="black" points="557.65,-275.9 562.92,-285.09 564.53,-274.62 557.65,-275.9"/>
<text text-anchor="middle" x="341.04" y="-104.23" font-family="Times,serif" font-size="14.00">a</text>
</g>
<!-- http://purl.org/oseg/ontologies/OTRL#Odrl3Star -->
<g id="node21" class="node">
<title>http://purl.org/oseg/ontologies/OTRL#Odrl3Star</title>
<ellipse fill="none" stroke="#e377c2" cx="341.04" cy="-389.43" rx="62.45" ry="16.03"/>
<text text-anchor="middle" x="341.04" y="-385.73" font-family="Times,serif" font-size="14.00">Odrl3Star</text>
</g>
<!-- http://purl.org/oseg/ontologies/OTRL#Odrl3Star&#45;&gt;http://purl.org/oseg/ontologies/OTRL#ODRL -->
<g id="edge18" class="edge">
<title>http://purl.org/oseg/ontologies/OTRL#Odrl3Star&#45;&gt;http://purl.org/oseg/ontologies/OTRL#ODRL</title>
<path fill="none" stroke="black" d="M397.19,-382.26C426.9,-381.04 463.09,-384.05 491.08,-400.43 523.94,-419.66 545.08,-459.87 556.1,-486.51"/>
<polygon fill="black" stroke="black" points="552.91,-487.96 559.83,-495.98 559.42,-485.39 552.91,-487.96"/>
</g>
<!-- http://purl.org/oseg/ontologies/OTRL#Odrl3Star&#45;&gt;http://www.w3.org/2002/07/owl#class -->
<g id="edge28" class="edge">
<title>http://purl.org/oseg/ontologies/OTRL#Odrl3Star&#45;&gt;http://www.w3.org/2002/07/owl#class</title>
<path fill="none" stroke="black" d="M392.61,-380.31C414.96,-375.45 441.29,-368.55 464.08,-359.43 489.04,-349.44 515.33,-334.23 534.87,-321.89"/>
<polygon fill="black" stroke="black" points="536.82,-324.8 543.34,-316.45 533.04,-318.91 536.82,-324.8"/>
<text text-anchor="middle" x="486.58" y="-354.23" font-family="Times,serif" font-size="14.00">a</text>
</g>
<!-- http://purl.org/oseg/ontologies/OTRL#Otrl5 -->
<g id="node22" class="node">
<title>http://purl.org/oseg/ontologies/OTRL#Otrl5</title>
<ellipse fill="none" stroke="#e377c2" cx="70" cy="-48.43" rx="38.37" ry="16.03"/>
<text text-anchor="middle" x="70" y="-44.73" font-family="Times,serif" font-size="14.00">Otrl5</text>
</g>
<!-- http://purl.org/oseg/ontologies/OTRL#Otrl5&#45;&gt;http://purl.org/oseg/ontologies/OTRL#OTRL -->
<g id="edge14" class="edge">
<title>http://purl.org/oseg/ontologies/OTRL#Otrl5&#45;&gt;http://purl.org/oseg/ontologies/OTRL#OTRL</title>
<path fill="none" stroke="black" d="M100.7,-58.34C113.77,-63.73 128.69,-71.37 140.01,-81.43 177.33,-114.61 175.23,-133.07 200.01,-176.43 208.69,-191.62 204.11,-200.8 218.01,-211.43 238.79,-227.32 267.11,-234 291.25,-236.63"/>
<polygon fill="black" stroke="black" points="291.03,-240.13 301.3,-237.53 291.65,-233.15 291.03,-240.13"/>
</g>
<!-- http://purl.org/oseg/ontologies/OTRL#Otrl5&#45;&gt;http://www.w3.org/2002/07/owl#class -->
<g id="edge15" class="edge">
<title>http://purl.org/oseg/ontologies/OTRL#Otrl5&#45;&gt;http://www.w3.org/2002/07/owl#class</title>
<path fill="none" stroke="black" d="M99.32,-37.93C168.56,-14.23 349.17,35.58 464.08,-42.43 542.56,-95.71 560.23,-219.75 564.2,-274.57"/>
<polygon fill="black" stroke="black" points="560.73,-275.1 564.85,-284.86 567.72,-274.67 560.73,-275.1"/>
<text text-anchor="middle" x="341.04" y="-46.23" font-family="Times,serif" font-size="14.00">a</text>
</g>
</g>
</svg>
