<?xml version="1.0" encoding="UTF-8" standalone="no"?>
<!DOCTYPE svg PUBLIC "-//W3C//DTD SVG 1.1//EN"
 "http://www.w3.org/Graphics/SVG/1.1/DTD/svg11.dtd">
<!-- Generated by graphviz version 2.43.0 (0)
 -->
<!-- Title: G Pages: 1 -->
<svg width="760pt" height="488pt"
 viewBox="0.00 0.00 760.00 488.00" xmlns="http://www.w3.org/2000/svg" xmlns:xlink="http://www.w3.org/1999/xlink">
<g id="graph0" class="graph" transform="scale(1 1) rotate(0) translate(4 484)">
<title>G</title>
<polygon fill="white" stroke="transparent" points="-4,4 -4,-484 756,-484 756,4 -4,4"/>
<!-- http://www.w3.org/2002/07/owl#class -->
<g id="node1" class="node">
<title>http://www.w3.org/2002/07/owl#class</title>
<ellipse fill="none" stroke="#1f77b4" cx="236.04" cy="-204.46" rx="57.05" ry="16.03"/>
<text text-anchor="middle" x="236.04" y="-200.76" font-family="Times,serif" font-size="14.00">owl:class</text>
</g>
<!-- http://purl.org/oseg/ontologies/OTRL#ODRL -->
<g id="node2" class="node">
<title>http://purl.org/oseg/ontologies/OTRL#ODRL</title>
<ellipse fill="none" stroke="#e377c2" cx="472" cy="-159.49" rx="41.94" ry="16.03"/>
<text text-anchor="middle" x="472" y="-155.79" font-family="Times,serif" font-size="14.00">ODRL</text>
</g>
<!-- http://www.w3.org/2002/07/owl#DatatypeProperty -->
<g id="node3" class="node">
<title>http://www.w3.org/2002/07/owl#DatatypeProperty</title>
<ellipse fill="none" stroke="#1f77b4" cx="472.9" cy="-360.96" rx="123.07" ry="16.03"/>
<text text-anchor="middle" x="472.9" y="-357.26" font-family="Times,serif" font-size="14.00">owl:DatatypeProperty</text>
</g>
<!-- http://purl.org/oseg/ontologies/OTRL#OTRL -->
<g id="node4" class="node">
<title>http://purl.org/oseg/ontologies/OTRL#OTRL</title>
<ellipse fill="none" stroke="#e377c2" cx="130.11" cy="-200.04" rx="39.7" ry="16.03"/>
<text text-anchor="middle" x="130.11" y="-196.34" font-family="Times,serif" font-size="14.00">OTRL</text>
</g>
<!-- http://purl.org/oseg/ontologies/OTRL#OTRL&#45;&gt;http://www.w3.org/2002/07/owl#class -->
<g id="edge19" class="edge">
<title>http://purl.org/oseg/ontologies/OTRL#OTRL&#45;&gt;http://www.w3.org/2002/07/owl#class</title>
<path fill="none" stroke="black" d="M169.55,-201.69C169.65,-201.69 169.75,-201.7 169.85,-201.7"/>
<polygon fill="black" stroke="black" points="169.1,-205.17 179.24,-202.09 169.4,-198.18 169.1,-205.17"/>
<text text-anchor="middle" x="174.2" y="-205.49" font-family="Times,serif" font-size="14.00">a</text>
</g>
<!-- http://www.w3.org/2002/07/owl#Ontology -->
<g id="node5" class="node">
<title>http://www.w3.org/2002/07/owl#Ontology</title>
<ellipse fill="none" stroke="#1f77b4" cx="177.32" cy="-463.47" rx="77.56" ry="16.03"/>
<text text-anchor="middle" x="177.32" y="-459.77" font-family="Times,serif" font-size="14.00">owl:Ontology</text>
</g>
<!-- http://purl.org/oseg/ontologies/OTRL -->
<g id="node6" class="node">
<title>http://purl.org/oseg/ontologies/OTRL</title>
<ellipse fill="none" stroke="#e377c2" cx="324.95" cy="-441.42" rx="60.62" ry="16.03"/>
<text text-anchor="middle" x="324.95" y="-437.72" font-family="Times,serif" font-size="14.00">ns1:OTRL</text>
</g>
<!-- http://purl.org/oseg/ontologies/OTRL&#45;&gt;http://www.w3.org/2002/07/owl#Ontology -->
<g id="edge16" class="edge">
<title>http://purl.org/oseg/ontologies/OTRL&#45;&gt;http://www.w3.org/2002/07/owl#Ontology</title>
<path fill="none" stroke="black" d="M271.65,-449.38C264.94,-450.38 257.98,-451.42 251.02,-452.46"/>
<polygon fill="black" stroke="black" points="250.22,-449.04 240.85,-453.98 251.26,-455.96 250.22,-449.04"/>
<text text-anchor="middle" x="259.08" y="-439.72" font-family="Times,serif" font-size="14.00">a</text>
</g>
<!-- http://purl.org/oseg/ontologies/OTRL&#45;&gt;http://purl.org/oseg/ontologies/OTRL -->
<g id="edge14" class="edge">
<title>http://purl.org/oseg/ontologies/OTRL&#45;&gt;http://purl.org/oseg/ontologies/OTRL</title>
<path fill="none" stroke="black" d="M380.55,-448.05C393.89,-447.53 403.76,-445.32 403.76,-441.42 403.76,-438.58 398.55,-436.64 390.58,-435.59"/>
<polygon fill="black" stroke="black" points="390.8,-432.1 380.55,-434.78 390.24,-439.07 390.8,-432.1"/>
<text text-anchor="middle" x="455.26" y="-437.72" font-family="Times,serif" font-size="14.00">owl:versionIRI</text>
</g>
<!-- http://www.w3.org/1999/02/22&#45;rdf&#45;syntax&#45;ns#nil -->
<g id="node7" class="node">
<title>http://www.w3.org/1999/02/22&#45;rdf&#45;syntax&#45;ns#nil</title>
<ellipse fill="none" stroke="#e377c2" cx="467.24" cy="-41.64" rx="42.35" ry="16.03"/>
<text text-anchor="middle" x="467.24" y="-37.94" font-family="Times,serif" font-size="14.00">rdf:nil</text>
</g>
<!-- http://purl.org/oseg/ontologies/OTRL#Otrl5 -->
<g id="node8" class="node">
<title>http://purl.org/oseg/ontologies/OTRL#Otrl5</title>
<ellipse fill="none" stroke="#e377c2" cx="37.74" cy="-205.19" rx="38.37" ry="16.03"/>
<text text-anchor="middle" x="37.74" y="-201.49" font-family="Times,serif" font-size="14.00">Otrl5</text>
</g>
<!-- http://purl.org/oseg/ontologies/OTRL#Otrl5&#45;&gt;http://www.w3.org/2002/07/owl#class -->
<g id="edge15" class="edge">
<title>http://purl.org/oseg/ontologies/OTRL#Otrl5&#45;&gt;http://www.w3.org/2002/07/owl#class</title>
<path fill="none" stroke="black" d="M75.98,-205.05C102.16,-204.95 137.61,-204.82 168.49,-204.71"/>
<polygon fill="black" stroke="black" points="168.78,-208.21 178.77,-204.67 168.75,-201.21 168.78,-208.21"/>
<text text-anchor="middle" x="117.73" y="-208.68" font-family="Times,serif" font-size="14.00">a</text>
</g>
<!-- http://purl.org/oseg/ontologies/OTRL#Otrl5&#45;&gt;http://purl.org/oseg/ontologies/OTRL#OTRL -->
<g id="edge22" class="edge">
<title>http://purl.org/oseg/ontologies/OTRL#Otrl5&#45;&gt;http://purl.org/oseg/ontologies/OTRL#OTRL</title>
<path fill="none" stroke="black" d="M75.85,-203.07C77.37,-202.98 78.9,-202.9 80.44,-202.81"/>
<polygon fill="black" stroke="black" points="80.81,-206.3 90.6,-202.25 80.42,-199.31 80.81,-206.3"/>
</g>
<!-- http://purl.org/oseg/ontologies/OTRL#Otrl2 -->
<g id="node9" class="node">
<title>http://purl.org/oseg/ontologies/OTRL#Otrl2</title>
<ellipse fill="none" stroke="#e377c2" cx="76.09" cy="-295.3" rx="38.37" ry="16.03"/>
<text text-anchor="middle" x="76.09" y="-291.6" font-family="Times,serif" font-size="14.00">Otrl2</text>
</g>
<!-- http://purl.org/oseg/ontologies/OTRL#Otrl2&#45;&gt;http://www.w3.org/2002/07/owl#class -->
<g id="edge3" class="edge">
<title>http://purl.org/oseg/ontologies/OTRL#Otrl2&#45;&gt;http://www.w3.org/2002/07/owl#class</title>
<path fill="none" stroke="black" d="M99.01,-282.29C125.82,-267.06 170.48,-241.7 201.49,-224.08"/>
<polygon fill="black" stroke="black" points="203.28,-227.09 210.25,-219.11 199.83,-221 203.28,-227.09"/>
<text text-anchor="middle" x="145.75" y="-256.98" font-family="Times,serif" font-size="14.00">a</text>
</g>
<!-- http://purl.org/oseg/ontologies/OTRL#Otrl2&#45;&gt;http://purl.org/oseg/ontologies/OTRL#OTRL -->
<g id="edge9" class="edge">
<title>http://purl.org/oseg/ontologies/OTRL#Otrl2&#45;&gt;http://purl.org/oseg/ontologies/OTRL#OTRL</title>
<path fill="none" stroke="black" d="M85.26,-279.14C93.69,-264.27 106.32,-242 116.03,-224.87"/>
<polygon fill="black" stroke="black" points="119.19,-226.39 121.08,-215.96 113.11,-222.94 119.19,-226.39"/>
</g>
<!-- http://purl.org/oseg/ontologies/OTRL#Odrl -->
<g id="node10" class="node">
<title>http://purl.org/oseg/ontologies/OTRL#Odrl</title>
<ellipse fill="none" stroke="#e377c2" cx="260.93" cy="-377.16" rx="33.88" ry="16.03"/>
<text text-anchor="middle" x="260.93" y="-373.46" font-family="Times,serif" font-size="14.00">Odrl</text>
</g>
<!-- http://purl.org/oseg/ontologies/OTRL#Odrl&#45;&gt;http://www.w3.org/2002/07/owl#class -->
<g id="edge5" class="edge">
<title>http://purl.org/oseg/ontologies/OTRL#Odrl&#45;&gt;http://www.w3.org/2002/07/owl#class</title>
<path fill="none" stroke="black" d="M258.59,-360.91C254.29,-331.08 245.1,-267.33 239.88,-231.08"/>
<polygon fill="black" stroke="black" points="243.28,-230.19 238.39,-220.79 236.35,-231.19 243.28,-230.19"/>
<text text-anchor="middle" x="244.73" y="-299.8" font-family="Times,serif" font-size="14.00">a</text>
</g>
<!-- http://purl.org/oseg/ontologies/OTRL#Otrl -->
<g id="node11" class="node">
<title>http://purl.org/oseg/ontologies/OTRL#Otrl</title>
<ellipse fill="none" stroke="#e377c2" cx="282.24" cy="-16.64" rx="31.64" ry="16.03"/>
<text text-anchor="middle" x="282.24" y="-12.94" font-family="Times,serif" font-size="14.00">Otrl</text>
</g>
<!-- http://schema.org/Text -->
<g id="node12" class="node">
<title>http://schema.org/Text</title>
<ellipse fill="none" stroke="#e377c2" cx="677.4" cy="-316.71" rx="74.91" ry="16.03"/>
<text text-anchor="middle" x="677.4" y="-313.01" font-family="Times,serif" font-size="14.00">schema:Text</text>
</g>
<!-- http://purl.org/oseg/ontologies/OTRL#Odrl3Star -->
<g id="node13" class="node">
<title>http://purl.org/oseg/ontologies/OTRL#Odrl3Star</title>
<ellipse fill="none" stroke="#e377c2" cx="316.78" cy="-160.23" rx="62.45" ry="16.03"/>
<text text-anchor="middle" x="316.78" y="-156.53" font-family="Times,serif" font-size="14.00">Odrl3Star</text>
</g>
<!-- http://purl.org/oseg/ontologies/OTRL#Odrl3Star&#45;&gt;http://www.w3.org/2002/07/owl#class -->
<g id="edge18" class="edge">
<title>http://purl.org/oseg/ontologies/OTRL#Odrl3Star&#45;&gt;http://www.w3.org/2002/07/owl#class</title>
<path fill="none" stroke="black" d="M289.9,-174.96C283.98,-178.2 277.62,-181.68 271.43,-185.07"/>
<polygon fill="black" stroke="black" points="269.62,-182.07 262.53,-189.95 272.98,-188.21 269.62,-182.07"/>
<text text-anchor="middle" x="276.16" y="-183.82" font-family="Times,serif" font-size="14.00">a</text>
</g>
<!-- http://purl.org/oseg/ontologies/OTRL#Odrl3Star&#45;&gt;http://purl.org/oseg/ontologies/OTRL#ODRL -->
<g id="edge8" class="edge">
<title>http://purl.org/oseg/ontologies/OTRL#Odrl3Star&#45;&gt;http://purl.org/oseg/ontologies/OTRL#ODRL</title>
<path fill="none" stroke="black" d="M379.02,-159.93C392.6,-159.87 406.83,-159.8 419.96,-159.74"/>
<polygon fill="black" stroke="black" points="420.23,-163.24 430.22,-159.69 420.2,-156.24 420.23,-163.24"/>
</g>
<!-- http://purl.org/oseg/ontologies/OTRL#Odrl3 -->
<g id="node14" class="node">
<title>http://purl.org/oseg/ontologies/OTRL#Odrl3</title>
<ellipse fill="none" stroke="#e377c2" cx="382.31" cy="-114.65" rx="40.11" ry="16.03"/>
<text text-anchor="middle" x="382.31" y="-110.95" font-family="Times,serif" font-size="14.00">Odrl3</text>
</g>
<!-- http://purl.org/oseg/ontologies/OTRL#Odrl3&#45;&gt;http://www.w3.org/2002/07/owl#class -->
<g id="edge20" class="edge">
<title>http://purl.org/oseg/ontologies/OTRL#Odrl3&#45;&gt;http://www.w3.org/2002/07/owl#class</title>
<path fill="none" stroke="black" d="M360.09,-128.29C335.86,-143.16 296.83,-167.13 269.02,-184.21"/>
<polygon fill="black" stroke="black" points="267.11,-181.27 260.42,-189.49 270.77,-187.24 267.11,-181.27"/>
<text text-anchor="middle" x="310.06" y="-145.05" font-family="Times,serif" font-size="14.00">a</text>
</g>
<!-- http://purl.org/oseg/ontologies/OTRL#Odrl3&#45;&gt;http://purl.org/oseg/ontologies/OTRL#ODRL -->
<g id="edge11" class="edge">
<title>http://purl.org/oseg/ontologies/OTRL#Odrl3&#45;&gt;http://purl.org/oseg/ontologies/OTRL#ODRL</title>
<path fill="none" stroke="black" d="M407.77,-127.38C416.87,-131.93 427.3,-137.14 437.06,-142.03"/>
<polygon fill="black" stroke="black" points="435.65,-145.23 446.16,-146.57 438.78,-138.97 435.65,-145.23"/>
</g>
<!-- http://purl.org/oseg/ontologies/OTRL#Odrl4 -->
<g id="node15" class="node">
<title>http://purl.org/oseg/ontologies/OTRL#Odrl4</title>
<ellipse fill="none" stroke="#e377c2" cx="389.46" cy="-291.59" rx="40.11" ry="16.03"/>
<text text-anchor="middle" x="389.46" y="-287.89" font-family="Times,serif" font-size="14.00">Odrl4</text>
</g>
<!-- http://purl.org/oseg/ontologies/OTRL#Odrl4&#45;&gt;http://www.w3.org/2002/07/owl#class -->
<g id="edge4" class="edge">
<title>http://purl.org/oseg/ontologies/OTRL#Odrl4&#45;&gt;http://www.w3.org/2002/07/owl#class</title>
<path fill="none" stroke="black" d="M365.82,-278.17C340.41,-263.74 299.77,-240.65 270.73,-224.16"/>
<polygon fill="black" stroke="black" points="272.17,-220.96 261.75,-219.06 268.72,-227.04 272.17,-220.96"/>
<text text-anchor="middle" x="313.78" y="-254.97" font-family="Times,serif" font-size="14.00">a</text>
</g>
<!-- http://purl.org/oseg/ontologies/OTRL#Odrl4&#45;&gt;http://purl.org/oseg/ontologies/OTRL#ODRL -->
<g id="edge27" class="edge">
<title>http://purl.org/oseg/ontologies/OTRL#Odrl4&#45;&gt;http://purl.org/oseg/ontologies/OTRL#ODRL</title>
<path fill="none" stroke="black" d="M399.41,-275.66C413.61,-252.94 439.78,-211.05 456.52,-184.27"/>
<polygon fill="black" stroke="black" points="459.68,-185.82 462.01,-175.48 453.74,-182.11 459.68,-185.82"/>
</g>
<!-- http://purl.org/oseg/ontologies/OTRL#goal -->
<g id="node16" class="node">
<title>http://purl.org/oseg/ontologies/OTRL#goal</title>
<ellipse fill="none" stroke="#e377c2" cx="497.52" cy="-320.31" rx="33.47" ry="16.03"/>
<text text-anchor="middle" x="497.52" y="-316.61" font-family="Times,serif" font-size="14.00">goal</text>
</g>
<!-- http://purl.org/oseg/ontologies/OTRL#goal&#45;&gt;http://www.w3.org/2002/07/owl#DatatypeProperty -->
<g id="edge23" class="edge">
<title>http://purl.org/oseg/ontologies/OTRL#goal&#45;&gt;http://www.w3.org/2002/07/owl#DatatypeProperty</title>
<path fill="none" stroke="black" d="M488.07,-335.91C488.02,-336 487.96,-336.09 487.91,-336.18"/>
<polygon fill="black" stroke="black" points="484.96,-334.29 482.77,-344.66 490.94,-337.92 484.96,-334.29"/>
<text text-anchor="middle" x="483.49" y="-339.85" font-family="Times,serif" font-size="14.00">a</text>
</g>
<!-- http://purl.org/oseg/ontologies/OTRL#goal&#45;&gt;http://schema.org/Text -->
<g id="edge17" class="edge">
<title>http://purl.org/oseg/ontologies/OTRL#goal&#45;&gt;http://schema.org/Text</title>
<path fill="none" stroke="black" d="M530.93,-319.64C548.3,-319.3 570.39,-318.85 592.12,-318.42"/>
<polygon fill="black" stroke="black" points="592.47,-321.91 602.4,-318.21 592.33,-314.92 592.47,-321.91"/>
<text text-anchor="middle" x="572.03" y="-307.83" font-family="Times,serif" font-size="14.00">range</text>
</g>
<!-- http://purl.org/oseg/ontologies/OTRL#Odrl1 -->
<g id="node17" class="node">
<title>http://purl.org/oseg/ontologies/OTRL#Odrl1</title>
<ellipse fill="none" stroke="#e377c2" cx="349.46" cy="-69.78" rx="40.11" ry="16.03"/>
<text text-anchor="middle" x="349.46" y="-66.08" font-family="Times,serif" font-size="14.00">Odrl1</text>
</g>
<!-- http://purl.org/oseg/ontologies/OTRL#Odrl1&#45;&gt;http://www.w3.org/2002/07/owl#class -->
<g id="edge7" class="edge">
<title>http://purl.org/oseg/ontologies/OTRL#Odrl1&#45;&gt;http://www.w3.org/2002/07/owl#class</title>
<path fill="none" stroke="black" d="M336.45,-85.23C316.83,-108.52 279.51,-152.83 256.31,-180.39"/>
<polygon fill="black" stroke="black" points="253.36,-178.45 249.6,-188.36 258.72,-182.96 253.36,-178.45"/>
<text text-anchor="middle" x="291.88" y="-121.61" font-family="Times,serif" font-size="14.00">a</text>
</g>
<!-- http://purl.org/oseg/ontologies/OTRL#Odrl1&#45;&gt;http://purl.org/oseg/ontologies/OTRL#ODRL -->
<g id="edge6" class="edge">
<title>http://purl.org/oseg/ontologies/OTRL#Odrl1&#45;&gt;http://purl.org/oseg/ontologies/OTRL#ODRL</title>
<path fill="none" stroke="black" d="M369.15,-84.19C389.42,-99.04 421.2,-122.31 444.07,-139.05"/>
<polygon fill="black" stroke="black" points="442.22,-142.03 452.36,-145.11 446.36,-136.38 442.22,-142.03"/>
</g>
<!-- http://purl.org/oseg/ontologies/OTRL#Otrl3 -->
<g id="node18" class="node">
<title>http://purl.org/oseg/ontologies/OTRL#Otrl3</title>
<ellipse fill="none" stroke="#e377c2" cx="78.01" cy="-107.84" rx="38.37" ry="16.03"/>
<text text-anchor="middle" x="78.01" y="-104.14" font-family="Times,serif" font-size="14.00">Otrl3</text>
</g>
<!-- http://purl.org/oseg/ontologies/OTRL#Otrl3&#45;&gt;http://www.w3.org/2002/07/owl#class -->
<g id="edge24" class="edge">
<title>http://purl.org/oseg/ontologies/OTRL#Otrl3&#45;&gt;http://www.w3.org/2002/07/owl#class</title>
<path fill="none" stroke="black" d="M99.98,-121.28C126.69,-137.6 172.01,-165.32 202.95,-184.23"/>
<polygon fill="black" stroke="black" points="201.3,-187.32 211.66,-189.55 204.95,-181.35 201.3,-187.32"/>
<text text-anchor="middle" x="146.97" y="-156.55" font-family="Times,serif" font-size="14.00">a</text>
</g>
<!-- http://purl.org/oseg/ontologies/OTRL#Otrl3&#45;&gt;http://purl.org/oseg/ontologies/OTRL#OTRL -->
<g id="edge1" class="edge">
<title>http://purl.org/oseg/ontologies/OTRL#Otrl3&#45;&gt;http://purl.org/oseg/ontologies/OTRL#OTRL</title>
<path fill="none" stroke="black" d="M87.08,-123.9C95.08,-138.05 106.85,-158.88 116.06,-175.18"/>
<polygon fill="black" stroke="black" points="113.17,-177.18 121.14,-184.17 119.27,-173.74 113.17,-177.18"/>
</g>
<!-- http://purl.org/oseg/ontologies/OTRL#Otrl1 -->
<g id="node19" class="node">
<title>http://purl.org/oseg/ontologies/OTRL#Otrl1</title>
<ellipse fill="none" stroke="#e377c2" cx="157.75" cy="-66.69" rx="38.37" ry="16.03"/>
<text text-anchor="middle" x="157.75" y="-62.99" font-family="Times,serif" font-size="14.00">Otrl1</text>
</g>
<!-- http://purl.org/oseg/ontologies/OTRL#Otrl1&#45;&gt;http://www.w3.org/2002/07/owl#class -->
<g id="edge25" class="edge">
<title>http://purl.org/oseg/ontologies/OTRL#Otrl1&#45;&gt;http://www.w3.org/2002/07/owl#class</title>
<path fill="none" stroke="black" d="M166.88,-82.76C180.36,-106.49 205.71,-151.09 221.69,-179.21"/>
<polygon fill="black" stroke="black" points="218.74,-181.1 226.72,-188.06 224.82,-177.64 218.74,-181.1"/>
<text text-anchor="middle" x="189.79" y="-134.79" font-family="Times,serif" font-size="14.00">a</text>
</g>
<!-- http://purl.org/oseg/ontologies/OTRL#Otrl1&#45;&gt;http://purl.org/oseg/ontologies/OTRL#OTRL -->
<g id="edge2" class="edge">
<title>http://purl.org/oseg/ontologies/OTRL#Otrl1&#45;&gt;http://purl.org/oseg/ontologies/OTRL#OTRL</title>
<path fill="none" stroke="black" d="M154.36,-83.04C149.68,-105.64 141.17,-146.67 135.58,-173.64"/>
<polygon fill="black" stroke="black" points="132.13,-173.06 133.53,-183.56 138.98,-174.48 132.13,-173.06"/>
</g>
<!-- http://purl.org/oseg/ontologies/OTRL#exitCriteria -->
<g id="node20" class="node">
<title>http://purl.org/oseg/ontologies/OTRL#exitCriteria</title>
<ellipse fill="none" stroke="#e377c2" cx="489.05" cy="-406.86" rx="70.01" ry="16.03"/>
<text text-anchor="middle" x="489.05" y="-403.16" font-family="Times,serif" font-size="14.00">exitCriteria</text>
</g>
<!-- http://purl.org/oseg/ontologies/OTRL#exitCriteria&#45;&gt;http://www.w3.org/2002/07/owl#DatatypeProperty -->
<g id="edge26" class="edge">
<title>http://purl.org/oseg/ontologies/OTRL#exitCriteria&#45;&gt;http://www.w3.org/2002/07/owl#DatatypeProperty</title>
<path fill="none" stroke="black" d="M483.31,-390.55C482.88,-389.33 482.44,-388.09 482,-386.83"/>
<polygon fill="black" stroke="black" points="485.24,-385.49 478.62,-377.22 478.64,-387.82 485.24,-385.49"/>
<text text-anchor="middle" x="478.15" y="-377.49" font-family="Times,serif" font-size="14.00">a</text>
</g>
<!-- http://purl.org/oseg/ontologies/OTRL#exitCriteria&#45;&gt;http://schema.org/Text -->
<g id="edge28" class="edge">
<title>http://purl.org/oseg/ontologies/OTRL#exitCriteria&#45;&gt;http://schema.org/Text</title>
<path fill="none" stroke="black" d="M519.73,-392.18C551.78,-376.84 602.21,-352.7 637.38,-335.87"/>
<polygon fill="black" stroke="black" points="638.91,-339.02 646.42,-331.54 635.89,-332.7 638.91,-339.02"/>
<text text-anchor="middle" x="599.55" y="-367.82" font-family="Times,serif" font-size="14.00">range</text>
</g>
<!-- http://purl.org/oseg/ontologies/OTRL#Otrl4 -->
<g id="node21" class="node">
<title>http://purl.org/oseg/ontologies/OTRL#Otrl4</title>
<ellipse fill="none" stroke="#e377c2" cx="150.22" cy="-341.13" rx="38.37" ry="16.03"/>
<text text-anchor="middle" x="150.22" y="-337.43" font-family="Times,serif" font-size="14.00">Otrl4</text>
</g>
<!-- http://purl.org/oseg/ontologies/OTRL#Otrl4&#45;&gt;http://www.w3.org/2002/07/owl#class -->
<g id="edge12" class="edge">
<title>http://purl.org/oseg/ontologies/OTRL#Otrl4&#45;&gt;http://www.w3.org/2002/07/owl#class</title>
<path fill="none" stroke="black" d="M160.23,-325.18C175.01,-301.65 202.8,-257.4 220.31,-229.51"/>
<polygon fill="black" stroke="black" points="223.47,-231.06 225.82,-220.73 217.54,-227.33 223.47,-231.06"/>
<text text-anchor="middle" x="185.77" y="-281.14" font-family="Times,serif" font-size="14.00">a</text>
</g>
<!-- http://purl.org/oseg/ontologies/OTRL#Otrl4&#45;&gt;http://purl.org/oseg/ontologies/OTRL#OTRL -->
<g id="edge10" class="edge">
<title>http://purl.org/oseg/ontologies/OTRL#Otrl4&#45;&gt;http://purl.org/oseg/ontologies/OTRL#OTRL</title>
<path fill="none" stroke="black" d="M147.88,-324.67C144.44,-300.56 138,-255.4 133.89,-226.57"/>
<polygon fill="black" stroke="black" points="137.32,-225.81 132.44,-216.4 130.39,-226.79 137.32,-225.81"/>
</g>
<!-- http://purl.org/oseg/ontologies/OTRL#Odrl2 -->
<g id="node22" class="node">
<title>http://purl.org/oseg/ontologies/OTRL#Odrl2</title>
<ellipse fill="none" stroke="#e377c2" cx="401.38" cy="-241.34" rx="40.11" ry="16.03"/>
<text text-anchor="middle" x="401.38" y="-237.64" font-family="Times,serif" font-size="14.00">Odrl2</text>
</g>
<!-- http://purl.org/oseg/ontologies/OTRL#Odrl2&#45;&gt;http://www.w3.org/2002/07/owl#class -->
<g id="edge13" class="edge">
<title>http://purl.org/oseg/ontologies/OTRL#Odrl2&#45;&gt;http://www.w3.org/2002/07/owl#class</title>
<path fill="none" stroke="black" d="M365.91,-233.43C344.14,-228.57 315.81,-222.25 291.16,-216.76"/>
<polygon fill="black" stroke="black" points="291.74,-213.3 281.22,-214.54 290.21,-220.13 291.74,-213.3"/>
<text text-anchor="middle" x="324.04" y="-228.89" font-family="Times,serif" font-size="14.00">a</text>
</g>
<!-- http://purl.org/oseg/ontologies/OTRL#Odrl2&#45;&gt;http://purl.org/oseg/ontologies/OTRL#ODRL -->
<g id="edge21" class="edge">
<title>http://purl.org/oseg/ontologies/OTRL#Odrl2&#45;&gt;http://purl.org/oseg/ontologies/OTRL#ODRL</title>
<path fill="none" stroke="black" d="M414.66,-225.94C425.15,-213.79 439.95,-196.63 451.89,-182.8"/>
<polygon fill="black" stroke="black" points="454.65,-184.95 458.53,-175.1 449.35,-180.38 454.65,-184.95"/>
</g>
</g>
</svg>
