<?xml version="1.0" encoding="UTF-8" standalone="no"?>
<!DOCTYPE svg PUBLIC "-//W3C//DTD SVG 1.1//EN"
 "http://www.w3.org/Graphics/SVG/1.1/DTD/svg11.dtd">
<!-- Generated by graphviz version 2.43.0 (0)
 -->
<!-- Title: G Pages: 1 -->
<svg width="1793pt" height="2275pt"
 viewBox="0.00 0.00 1793.00 2275.00" xmlns="http://www.w3.org/2000/svg" xmlns:xlink="http://www.w3.org/1999/xlink">
<g id="graph0" class="graph" transform="scale(1 1) rotate(0) translate(4 2271)">
<title>G</title>
<polygon fill="white" stroke="transparent" points="-4,4 -4,-2271 1789,-2271 1789,4 -4,4"/>
<!-- https://w3id.org/oseg/ont/otrl#ODRL4 -->
<g id="node1" class="node">
<title>https://w3id.org/oseg/ont/otrl#ODRL4</title>
<ellipse fill="none" stroke="#e377c2" cx="993.36" cy="-665.61" rx="69.09" ry="16.03"/>
<text text-anchor="middle" x="993.36" y="-661.91" font-family="Times,serif" font-size="14.00">otrl:ODRL4</text>
</g>
<!-- https://w3id.org/oseg/ont/otrl#ODRL -->
<g id="node11" class="node">
<title>https://w3id.org/oseg/ont/otrl#ODRL</title>
<ellipse fill="none" stroke="#e377c2" cx="954.36" cy="-955.83" rx="62.87" ry="16.03"/>
<text text-anchor="middle" x="954.36" y="-952.13" font-family="Times,serif" font-size="14.00">otrl:ODRL</text>
</g>
<!-- https://w3id.org/oseg/ont/otrl#ODRL4&#45;&gt;https://w3id.org/oseg/ont/otrl#ODRL -->
<g id="edge11" class="edge">
<title>https://w3id.org/oseg/ont/otrl#ODRL4&#45;&gt;https://w3id.org/oseg/ont/otrl#ODRL</title>
<path fill="none" stroke="black" d="M991.15,-682.04C984.69,-730.13 965.78,-870.86 957.88,-929.6"/>
<polygon fill="black" stroke="black" points="954.41,-929.2 956.54,-939.58 961.34,-930.13 954.41,-929.2"/>
</g>
<!-- http://www.w3.org/2002/07/owl#DatatypeProperty -->
<g id="node2" class="node">
<title>http://www.w3.org/2002/07/owl#DatatypeProperty</title>
<ellipse fill="none" stroke="#1f77b4" cx="764.55" cy="-1211.29" rx="123.07" ry="16.03"/>
<text text-anchor="middle" x="764.55" y="-1207.59" font-family="Times,serif" font-size="14.00">owl:DatatypeProperty</text>
</g>
<!-- https://w3id.org/oseg/ont/otrl#ODRL3Star -->
<g id="node3" class="node">
<title>https://w3id.org/oseg/ont/otrl#ODRL3Star</title>
<ellipse fill="none" stroke="#e377c2" cx="821.31" cy="-691" rx="90.52" ry="16.03"/>
<text text-anchor="middle" x="821.31" y="-687.3" font-family="Times,serif" font-size="14.00">otrl:ODRL3Star</text>
</g>
<!-- https://w3id.org/oseg/ont/otrl#ODRL3Star&#45;&gt;https://w3id.org/oseg/ont/otrl#ODRL -->
<g id="edge49" class="edge">
<title>https://w3id.org/oseg/ont/otrl#ODRL3Star&#45;&gt;https://w3id.org/oseg/ont/otrl#ODRL</title>
<path fill="none" stroke="black" d="M829.64,-707.57C852.18,-752.45 914.56,-876.61 941.59,-930.42"/>
<polygon fill="black" stroke="black" points="938.59,-932.24 946.21,-939.61 944.85,-929.1 938.59,-932.24"/>
</g>
<!-- https://w3id.org/oseg/ont/otrl#OTRL6 -->
<g id="node4" class="node">
<title>https://w3id.org/oseg/ont/otrl#OTRL6</title>
<ellipse fill="none" stroke="#e377c2" cx="583.84" cy="-1725.55" rx="67.35" ry="16.03"/>
<text text-anchor="middle" x="583.84" y="-1721.85" font-family="Times,serif" font-size="14.00">otrl:OTRL6</text>
</g>
<!-- https://w3id.org/oseg/ont/otrl#OTRL -->
<g id="node13" class="node">
<title>https://w3id.org/oseg/ont/otrl#OTRL</title>
<ellipse fill="none" stroke="#e377c2" cx="844.95" cy="-1594.95" rx="60.62" ry="16.03"/>
<text text-anchor="middle" x="844.95" y="-1591.25" font-family="Times,serif" font-size="14.00">otrl:OTRL</text>
</g>
<!-- https://w3id.org/oseg/ont/otrl#OTRL6&#45;&gt;https://w3id.org/oseg/ont/otrl#OTRL -->
<g id="edge15" class="edge">
<title>https://w3id.org/oseg/ont/otrl#OTRL6&#45;&gt;https://w3id.org/oseg/ont/otrl#OTRL</title>
<path fill="none" stroke="black" d="M613.29,-1710.82C660.85,-1687.04 754.53,-1640.18 807.02,-1613.92"/>
<polygon fill="black" stroke="black" points="808.63,-1617.03 816.01,-1609.43 805.5,-1610.77 808.63,-1617.03"/>
</g>
<!-- https://w3id.org/oseg/ont/otrl#ODRL1 -->
<g id="node5" class="node">
<title>https://w3id.org/oseg/ont/otrl#ODRL1</title>
<ellipse fill="none" stroke="#e377c2" cx="1217.08" cy="-903.64" rx="69.09" ry="16.03"/>
<text text-anchor="middle" x="1217.08" y="-899.94" font-family="Times,serif" font-size="14.00">otrl:ODRL1</text>
</g>
<!-- https://w3id.org/oseg/ont/otrl#ODRL1&#45;&gt;https://w3id.org/oseg/ont/otrl#ODRL -->
<g id="edge36" class="edge">
<title>https://w3id.org/oseg/ont/otrl#ODRL1&#45;&gt;https://w3id.org/oseg/ont/otrl#ODRL</title>
<path fill="none" stroke="black" d="M1163.92,-914.2C1120.56,-922.81 1059.35,-934.98 1014.27,-943.93"/>
<polygon fill="black" stroke="black" points="1013.46,-940.52 1004.33,-945.9 1014.82,-947.39 1013.46,-940.52"/>
</g>
<!-- https://w3id.org/oseg/ont/otrl#ODRL3 -->
<g id="node6" class="node">
<title>https://w3id.org/oseg/ont/otrl#ODRL3</title>
<ellipse fill="none" stroke="#e377c2" cx="737.1" cy="-803.45" rx="69.09" ry="16.03"/>
<text text-anchor="middle" x="737.1" y="-799.75" font-family="Times,serif" font-size="14.00">otrl:ODRL3</text>
</g>
<!-- https://w3id.org/oseg/ont/otrl#ODRL3&#45;&gt;https://w3id.org/oseg/ont/otrl#ODRL -->
<g id="edge31" class="edge">
<title>https://w3id.org/oseg/ont/otrl#ODRL3&#45;&gt;https://w3id.org/oseg/ont/otrl#ODRL</title>
<path fill="none" stroke="black" d="M759.13,-818.9C798.27,-846.35 879.97,-903.65 924.26,-934.72"/>
<polygon fill="black" stroke="black" points="922.4,-937.69 932.59,-940.57 926.42,-931.96 922.4,-937.69"/>
</g>
<!-- https://w3id.org/oseg/ont/otrl#OTRL5 -->
<g id="node7" class="node">
<title>https://w3id.org/oseg/ont/otrl#OTRL5</title>
<ellipse fill="none" stroke="#e377c2" cx="715.2" cy="-1832.87" rx="67.35" ry="16.03"/>
<text text-anchor="middle" x="715.2" y="-1829.17" font-family="Times,serif" font-size="14.00">otrl:OTRL5</text>
</g>
<!-- https://w3id.org/oseg/ont/otrl#OTRL5&#45;&gt;https://w3id.org/oseg/ont/otrl#OTRL -->
<g id="edge43" class="edge">
<title>https://w3id.org/oseg/ont/otrl#OTRL5&#45;&gt;https://w3id.org/oseg/ont/otrl#OTRL</title>
<path fill="none" stroke="black" d="M724.12,-1816.52C746.39,-1775.67 804.59,-1668.97 831.25,-1620.08"/>
<polygon fill="black" stroke="black" points="834.43,-1621.56 836.14,-1611.11 828.28,-1618.21 834.43,-1621.56"/>
</g>
<!-- https://w3id.org/oseg/ont/otrl#OTRL4 -->
<g id="node8" class="node">
<title>https://w3id.org/oseg/ont/otrl#OTRL4</title>
<ellipse fill="none" stroke="#e377c2" cx="1104.94" cy="-1670.57" rx="67.35" ry="16.03"/>
<text text-anchor="middle" x="1104.94" y="-1666.87" font-family="Times,serif" font-size="14.00">otrl:OTRL4</text>
</g>
<!-- https://w3id.org/oseg/ont/otrl#OTRL4&#45;&gt;https://w3id.org/oseg/ont/otrl#OTRL -->
<g id="edge2" class="edge">
<title>https://w3id.org/oseg/ont/otrl#OTRL4&#45;&gt;https://w3id.org/oseg/ont/otrl#OTRL</title>
<path fill="none" stroke="black" d="M1061.71,-1658C1016.05,-1644.72 944.11,-1623.8 895.77,-1609.73"/>
<polygon fill="black" stroke="black" points="896.71,-1606.36 886.13,-1606.93 894.75,-1613.08 896.71,-1606.36"/>
</g>
<!-- http://www.w3.org/2002/07/owl#Ontology -->
<g id="node9" class="node">
<title>http://www.w3.org/2002/07/owl#Ontology</title>
<ellipse fill="none" stroke="#1f77b4" cx="1341.77" cy="-1133.4" rx="77.56" ry="16.03"/>
<text text-anchor="middle" x="1341.77" y="-1129.7" font-family="Times,serif" font-size="14.00">owl:Ontology</text>
</g>
<!-- https://w3id.org/oseg/ont/otrl#OTRL2 -->
<g id="node10" class="node">
<title>https://w3id.org/oseg/ont/otrl#OTRL2</title>
<ellipse fill="none" stroke="#e377c2" cx="900.24" cy="-1861.8" rx="67.35" ry="16.03"/>
<text text-anchor="middle" x="900.24" y="-1858.1" font-family="Times,serif" font-size="14.00">otrl:OTRL2</text>
</g>
<!-- https://w3id.org/oseg/ont/otrl#OTRL2&#45;&gt;https://w3id.org/oseg/ont/otrl#OTRL -->
<g id="edge9" class="edge">
<title>https://w3id.org/oseg/ont/otrl#OTRL2&#45;&gt;https://w3id.org/oseg/ont/otrl#OTRL</title>
<path fill="none" stroke="black" d="M896.86,-1845.51C887.61,-1800.85 861.77,-1676.15 850.42,-1621.35"/>
<polygon fill="black" stroke="black" points="853.81,-1620.45 848.35,-1611.37 846.95,-1621.87 853.81,-1620.45"/>
</g>
<!-- https://w3id.org/oseg/ont/otrl#OTRL3 -->
<g id="node12" class="node">
<title>https://w3id.org/oseg/ont/otrl#OTRL3</title>
<ellipse fill="none" stroke="#e377c2" cx="1029.28" cy="-1797.26" rx="67.35" ry="16.03"/>
<text text-anchor="middle" x="1029.28" y="-1793.56" font-family="Times,serif" font-size="14.00">otrl:OTRL3</text>
</g>
<!-- https://w3id.org/oseg/ont/otrl#OTRL3&#45;&gt;https://w3id.org/oseg/ont/otrl#OTRL -->
<g id="edge32" class="edge">
<title>https://w3id.org/oseg/ont/otrl#OTRL3&#45;&gt;https://w3id.org/oseg/ont/otrl#OTRL</title>
<path fill="none" stroke="black" d="M1014.5,-1781.05C982,-1745.37 904.17,-1659.95 866.33,-1618.42"/>
<polygon fill="black" stroke="black" points="868.86,-1616 859.54,-1610.96 863.68,-1620.71 868.86,-1616"/>
</g>
<!-- https://w3id.org/oseg/ont/otrl#OTRL1 -->
<g id="node14" class="node">
<title>https://w3id.org/oseg/ont/otrl#OTRL1</title>
<ellipse fill="none" stroke="#e377c2" cx="582.63" cy="-1598.09" rx="67.35" ry="16.03"/>
<text text-anchor="middle" x="582.63" y="-1594.39" font-family="Times,serif" font-size="14.00">otrl:OTRL1</text>
</g>
<!-- https://w3id.org/oseg/ont/otrl#OTRL1&#45;&gt;https://w3id.org/oseg/ont/otrl#OTRL -->
<g id="edge14" class="edge">
<title>https://w3id.org/oseg/ont/otrl#OTRL1&#45;&gt;https://w3id.org/oseg/ont/otrl#OTRL</title>
<path fill="none" stroke="black" d="M649.84,-1597.29C687.88,-1596.83 735.43,-1596.26 774.06,-1595.8"/>
<polygon fill="black" stroke="black" points="774.23,-1599.3 784.19,-1595.68 774.15,-1592.3 774.23,-1599.3"/>
</g>
<!-- https://w3id.org/oseg/ont/otrl#ODRL2 -->
<g id="node15" class="node">
<title>https://w3id.org/oseg/ont/otrl#ODRL2</title>
<ellipse fill="none" stroke="#e377c2" cx="1139.63" cy="-765.11" rx="69.09" ry="16.03"/>
<text text-anchor="middle" x="1139.63" y="-761.41" font-family="Times,serif" font-size="14.00">otrl:ODRL2</text>
</g>
<!-- https://w3id.org/oseg/ont/otrl#ODRL2&#45;&gt;https://w3id.org/oseg/ont/otrl#ODRL -->
<g id="edge21" class="edge">
<title>https://w3id.org/oseg/ont/otrl#ODRL2&#45;&gt;https://w3id.org/oseg/ont/otrl#ODRL</title>
<path fill="none" stroke="black" d="M1124.16,-781.05C1091.46,-814.7 1015.24,-893.17 977.03,-932.49"/>
<polygon fill="black" stroke="black" points="974.38,-930.2 969.92,-939.81 979.4,-935.08 974.38,-930.2"/>
</g>
<!-- https://w3id.org/oseg/ont/otrl -->
<g id="node16" class="node">
<title>https://w3id.org/oseg/ont/otrl</title>
<ellipse fill="none" stroke="#e377c2" cx="1484.74" cy="-1227.4" rx="50.82" ry="16.03"/>
<text text-anchor="middle" x="1484.74" y="-1223.7" font-family="Times,serif" font-size="14.00">ns1:otrl</text>
</g>
<!-- https://w3id.org/oseg/ont/otrl&#45;&gt;http://www.w3.org/2002/07/owl#Ontology -->
<g id="edge1" class="edge">
<title>https://w3id.org/oseg/ont/otrl&#45;&gt;http://www.w3.org/2002/07/owl#Ontology</title>
<path fill="none" stroke="black" d="M1462.4,-1212.71C1438.69,-1197.12 1401.01,-1172.34 1374.07,-1154.63"/>
<polygon fill="black" stroke="black" points="1375.66,-1151.49 1365.38,-1148.92 1371.81,-1157.34 1375.66,-1151.49"/>
<text text-anchor="middle" x="1413.73" y="-1187.47" font-family="Times,serif" font-size="14.00">a</text>
</g>
<!-- https://www.gnu.org/licenses/gpl&#45;3.0.txt -->
<g id="node17" class="node">
<title>https://www.gnu.org/licenses/gpl&#45;3.0.txt</title>
<ellipse fill="none" stroke="#e377c2" cx="1633.29" cy="-1121.78" rx="85.62" ry="16.03"/>
<text text-anchor="middle" x="1633.29" y="-1118.08" font-family="Times,serif" font-size="14.00">ns2:gpl&#45;3.0.txt</text>
</g>
<!-- https://w3id.org/oseg/ont/otrl&#45;&gt;https://www.gnu.org/licenses/gpl&#45;3.0.txt -->
<g id="edge4" class="edge">
<title>https://w3id.org/oseg/ont/otrl&#45;&gt;https://www.gnu.org/licenses/gpl&#45;3.0.txt</title>
<path fill="none" stroke="black" d="M1512.96,-1213.74C1541.33,-1196.06 1584.4,-1165.45 1610.63,-1144.34"/>
<polygon fill="black" stroke="black" points="1613.01,-1146.91 1618.51,-1137.85 1608.56,-1141.5 1613.01,-1146.91"/>
<text text-anchor="middle" x="1618.29" y="-1182.84" font-family="Times,serif" font-size="14.00">dcterms:license</text>
</g>
<!-- https://w3id.org/oseg/ont/otrl&#45;&gt;https://www.gnu.org/licenses/gpl&#45;3.0.txt -->
<g id="edge25" class="edge">
<title>https://w3id.org/oseg/ont/otrl&#45;&gt;https://www.gnu.org/licenses/gpl&#45;3.0.txt</title>
<path fill="none" stroke="black" d="M1499.18,-1211.62C1520.96,-1193.14 1562.79,-1162.83 1593.99,-1142.51"/>
<polygon fill="black" stroke="black" points="1595.96,-1145.41 1602.49,-1137.06 1592.18,-1139.51 1595.96,-1145.41"/>
<text text-anchor="middle" x="1581.58" y="-1165.87" font-family="Times,serif" font-size="14.00">cc:license</text>
</g>
<!-- http://id.loc.gov/vocabulary/iso639&#45;1/en -->
<g id="node20" class="node">
<title>http://id.loc.gov/vocabulary/iso639&#45;1/en</title>
<ellipse fill="none" stroke="#e377c2" cx="1585.64" cy="-1298.59" rx="45.01" ry="16.03"/>
<text text-anchor="middle" x="1585.64" y="-1294.89" font-family="Times,serif" font-size="14.00">ns3:en</text>
</g>
<!-- https://w3id.org/oseg/ont/otrl&#45;&gt;http://id.loc.gov/vocabulary/iso639&#45;1/en -->
<g id="edge28" class="edge">
<title>https://w3id.org/oseg/ont/otrl&#45;&gt;http://id.loc.gov/vocabulary/iso639&#45;1/en</title>
<path fill="none" stroke="black" d="M1506.14,-1242.5C1520.78,-1252.83 1540.37,-1266.66 1556.45,-1278"/>
<polygon fill="black" stroke="black" points="1554.77,-1281.1 1564.96,-1284 1558.81,-1275.38 1554.77,-1281.1"/>
<text text-anchor="middle" x="1595.79" y="-1264.05" font-family="Times,serif" font-size="14.00">dcterms:language</text>
</g>
<!-- https://orcid.org/0000&#45;0002&#45;1611&#45;7129 -->
<g id="node21" class="node">
<title>https://orcid.org/0000&#45;0002&#45;1611&#45;7129</title>
<ellipse fill="none" stroke="#e377c2" cx="1665.54" cy="-1339.69" rx="113.69" ry="16.03"/>
<text text-anchor="middle" x="1665.54" y="-1335.99" font-family="Times,serif" font-size="14.00">orcid:0000&#45;0002&#45;1...</text>
</g>
<!-- https://w3id.org/oseg/ont/otrl&#45;&gt;https://orcid.org/0000&#45;0002&#45;1611&#45;7129 -->
<g id="edge30" class="edge">
<title>https://w3id.org/oseg/ont/otrl&#45;&gt;https://orcid.org/0000&#45;0002&#45;1611&#45;7129</title>
<path fill="none" stroke="black" d="M1508.38,-1242.08C1539.7,-1261.54 1595.19,-1296 1631.16,-1318.33"/>
<polygon fill="black" stroke="black" points="1629.52,-1321.43 1639.86,-1323.73 1633.21,-1315.49 1629.52,-1321.43"/>
<text text-anchor="middle" x="1512.27" y="-1284.01" font-family="Times,serif" font-size="14.00">dcterms:creator</text>
</g>
<!-- https://orcid.org/0009&#45;0004&#45;3559&#45;6542 -->
<g id="node23" class="node">
<title>https://orcid.org/0009&#45;0004&#45;3559&#45;6542</title>
<ellipse fill="none" stroke="#e377c2" cx="1398.48" cy="-1268.33" rx="113.69" ry="16.03"/>
<text text-anchor="middle" x="1398.48" y="-1264.63" font-family="Times,serif" font-size="14.00">orcid:0009&#45;0004&#45;3...</text>
</g>
<!-- https://w3id.org/oseg/ont/otrl&#45;&gt;https://orcid.org/0009&#45;0004&#45;3559&#45;6542 -->
<g id="edge37" class="edge">
<title>https://w3id.org/oseg/ont/otrl&#45;&gt;https://orcid.org/0009&#45;0004&#45;3559&#45;6542</title>
<path fill="none" stroke="black" d="M1456.01,-1241.03C1451.11,-1243.35 1445.93,-1245.81 1440.77,-1248.26"/>
<polygon fill="black" stroke="black" points="1439.08,-1245.19 1431.55,-1252.64 1442.08,-1251.51 1439.08,-1245.19"/>
<text text-anchor="middle" x="1390.89" y="-1233.45" font-family="Times,serif" font-size="14.00">dcterms:creator</text>
</g>
<!-- https://w3id.org/oseg/ont/1.1.0/otrl -->
<g id="node25" class="node">
<title>https://w3id.org/oseg/ont/1.1.0/otrl</title>
<ellipse fill="none" stroke="#e377c2" cx="1494.02" cy="-1181.53" rx="50.82" ry="16.03"/>
<text text-anchor="middle" x="1494.02" y="-1177.83" font-family="Times,serif" font-size="14.00">ns4:otrl</text>
</g>
<!-- https://w3id.org/oseg/ont/otrl&#45;&gt;https://w3id.org/oseg/ont/1.1.0/otrl -->
<g id="edge47" class="edge">
<title>https://w3id.org/oseg/ont/otrl&#45;&gt;https://w3id.org/oseg/ont/1.1.0/otrl</title>
<path fill="none" stroke="black" d="M1488.04,-1211.1C1488.25,-1210.02 1488.48,-1208.92 1488.7,-1207.8"/>
<polygon fill="black" stroke="black" points="1492.18,-1208.28 1490.73,-1197.78 1485.32,-1206.89 1492.18,-1208.28"/>
<text text-anchor="middle" x="1539.87" y="-1198.25" font-family="Times,serif" font-size="14.00">owl:versionIRI</text>
</g>
<!-- http://schema.org/Text -->
<g id="node18" class="node">
<title>http://schema.org/Text</title>
<ellipse fill="none" stroke="#e377c2" cx="813.17" cy="-1299.72" rx="74.91" ry="16.03"/>
<text text-anchor="middle" x="813.17" y="-1296.02" font-family="Times,serif" font-size="14.00">schema:Text</text>
</g>
<!-- https://w3id.org/oseg/ont/otrl#Odrl4 -->
<g id="node19" class="node">
<title>https://w3id.org/oseg/ont/otrl#Odrl4</title>
<ellipse fill="none" stroke="#e377c2" cx="1016.36" cy="-392.64" rx="61.54" ry="16.03"/>
<text text-anchor="middle" x="1016.36" y="-388.94" font-family="Times,serif" font-size="14.00">otrl:Odrl4</text>
</g>
<!-- https://w3id.org/oseg/ont/otrl#Odrl4&#45;&gt;https://w3id.org/oseg/ont/otrl#ODRL4 -->
<g id="edge3" class="edge">
<title>https://w3id.org/oseg/ont/otrl#Odrl4&#45;&gt;https://w3id.org/oseg/ont/otrl#ODRL4</title>
<path fill="none" stroke="black" d="M1011.52,-409.01C1003.52,-454.57 992.45,-583.1 991.4,-639.04"/>
<polygon fill="black" stroke="black" points="987.9,-639.19 991.33,-649.22 994.9,-639.24 987.9,-639.19"/>
<text text-anchor="middle" x="958.96" y="-527.83" font-family="Times,serif" font-size="14.00">owl:sameAs</text>
</g>
<!-- https://w3id.org/oseg/ont/otrl#Odrl4&#45;&gt;https://w3id.org/oseg/ont/otrl#ODRL4 -->
<g id="edge8" class="edge">
<title>https://w3id.org/oseg/ont/otrl#Odrl4&#45;&gt;https://w3id.org/oseg/ont/otrl#ODRL4</title>
<path fill="none" stroke="black" d="M1018.39,-409.18C1018.71,-454.94 1008.15,-583.47 999.81,-639.24"/>
<polygon fill="black" stroke="black" points="996.32,-638.95 998.18,-649.38 1003.23,-640.06 996.32,-638.95"/>
<text text-anchor="middle" x="1089.1" y="-528.01" font-family="Times,serif" font-size="14.00">schema:supersededBy</text>
</g>
<!-- https://w3id.org/oseg/ont/otrl#exitCriteria -->
<g id="node22" class="node">
<title>https://w3id.org/oseg/ont/otrl#exitCriteria</title>
<ellipse fill="none" stroke="#e377c2" cx="866.81" cy="-1252.13" rx="91.43" ry="16.03"/>
<text text-anchor="middle" x="866.81" y="-1248.43" font-family="Times,serif" font-size="14.00">otrl:exitCriteria</text>
</g>
<!-- https://w3id.org/oseg/ont/otrl#exitCriteria&#45;&gt;http://www.w3.org/2002/07/owl#DatatypeProperty -->
<g id="edge35" class="edge">
<title>https://w3id.org/oseg/ont/otrl#exitCriteria&#45;&gt;http://www.w3.org/2002/07/owl#DatatypeProperty</title>
<path fill="none" stroke="black" d="M829.6,-1237.27C824.11,-1235.08 818.39,-1232.79 812.72,-1230.53"/>
<polygon fill="black" stroke="black" points="813.86,-1227.21 803.27,-1226.75 811.26,-1233.71 813.86,-1227.21"/>
<text text-anchor="middle" x="816.66" y="-1222.7" font-family="Times,serif" font-size="14.00">a</text>
</g>
<!-- https://w3id.org/oseg/ont/otrl#exitCriteria&#45;&gt;https://w3id.org/oseg/ont/otrl#ODRL -->
<g id="edge52" class="edge">
<title>https://w3id.org/oseg/ont/otrl#exitCriteria&#45;&gt;https://w3id.org/oseg/ont/otrl#ODRL</title>
<path fill="none" stroke="black" d="M871.64,-1235.77C886.08,-1186.91 929,-1041.66 946.65,-981.93"/>
<polygon fill="black" stroke="black" points="950.06,-982.71 949.54,-972.13 943.35,-980.73 950.06,-982.71"/>
<text text-anchor="middle" x="823.14" y="-1112.65" font-family="Times,serif" font-size="14.00">schema:domainIncludes</text>
</g>
<!-- https://w3id.org/oseg/ont/otrl#exitCriteria&#45;&gt;https://w3id.org/oseg/ont/otrl#OTRL -->
<g id="edge18" class="edge">
<title>https://w3id.org/oseg/ont/otrl#exitCriteria&#45;&gt;https://w3id.org/oseg/ont/otrl#OTRL</title>
<path fill="none" stroke="black" d="M865.76,-1268.66C862.25,-1323.65 850.96,-1500.7 846.65,-1568.34"/>
<polygon fill="black" stroke="black" points="843.14,-1568.38 845.99,-1578.58 850.12,-1568.83 843.14,-1568.38"/>
<text text-anchor="middle" x="770.2" y="-1422.3" font-family="Times,serif" font-size="14.00">schema:domainIncludes</text>
</g>
<!-- https://w3id.org/oseg/ont/otrl#exitCriteria&#45;&gt;http://schema.org/Text -->
<g id="edge38" class="edge">
<title>https://w3id.org/oseg/ont/otrl#exitCriteria&#45;&gt;http://schema.org/Text</title>
<path fill="none" stroke="black" d="M848.65,-1268.24C845.51,-1271.03 842.18,-1273.98 838.88,-1276.91"/>
<polygon fill="black" stroke="black" points="836.47,-1274.37 831.31,-1283.62 841.12,-1279.6 836.47,-1274.37"/>
<text text-anchor="middle" x="822.77" y="-1276.37" font-family="Times,serif" font-size="14.00">range</text>
</g>
<!-- https://w3id.org/oseg/ont/otrl#goal -->
<g id="node24" class="node">
<title>https://w3id.org/oseg/ont/otrl#goal</title>
<ellipse fill="none" stroke="#e377c2" cx="995.38" cy="-1297.8" rx="54.39" ry="16.03"/>
<text text-anchor="middle" x="995.38" y="-1294.1" font-family="Times,serif" font-size="14.00">otrl:goal</text>
</g>
<!-- https://w3id.org/oseg/ont/otrl#goal&#45;&gt;http://www.w3.org/2002/07/owl#DatatypeProperty -->
<g id="edge45" class="edge">
<title>https://w3id.org/oseg/ont/otrl#goal&#45;&gt;http://www.w3.org/2002/07/owl#DatatypeProperty</title>
<path fill="none" stroke="black" d="M961.32,-1285.04C922.76,-1270.59 859.56,-1246.9 815.21,-1230.28"/>
<polygon fill="black" stroke="black" points="816.37,-1226.97 805.77,-1226.74 813.91,-1233.52 816.37,-1226.97"/>
<text text-anchor="middle" x="883.77" y="-1261.46" font-family="Times,serif" font-size="14.00">a</text>
</g>
<!-- https://w3id.org/oseg/ont/otrl#goal&#45;&gt;https://w3id.org/oseg/ont/otrl#ODRL -->
<g id="edge12" class="edge">
<title>https://w3id.org/oseg/ont/otrl#goal&#45;&gt;https://w3id.org/oseg/ont/otrl#ODRL</title>
<path fill="none" stroke="black" d="M993.4,-1281.31C986.82,-1226.46 965.63,-1049.85 957.54,-982.37"/>
<polygon fill="black" stroke="black" points="960.98,-981.67 956.32,-972.16 954.03,-982.51 960.98,-981.67"/>
<text text-anchor="middle" x="889.47" y="-1135.64" font-family="Times,serif" font-size="14.00">schema:domainIncludes</text>
</g>
<!-- https://w3id.org/oseg/ont/otrl#goal&#45;&gt;https://w3id.org/oseg/ont/otrl#OTRL -->
<g id="edge40" class="edge">
<title>https://w3id.org/oseg/ont/otrl#goal&#45;&gt;https://w3id.org/oseg/ont/otrl#OTRL</title>
<path fill="none" stroke="black" d="M987.08,-1314.2C962.16,-1363.41 887.91,-1510.09 857.82,-1569.52"/>
<polygon fill="black" stroke="black" points="854.62,-1568.1 853.23,-1578.6 860.87,-1571.26 854.62,-1568.1"/>
<text text-anchor="middle" x="836.45" y="-1445.66" font-family="Times,serif" font-size="14.00">schema:domainIncludes</text>
</g>
<!-- https://w3id.org/oseg/ont/otrl#goal&#45;&gt;http://schema.org/Text -->
<g id="edge7" class="edge">
<title>https://w3id.org/oseg/ont/otrl#goal&#45;&gt;http://schema.org/Text</title>
<path fill="none" stroke="black" d="M940.71,-1298.38C927.47,-1298.52 913,-1298.67 898.71,-1298.82"/>
<polygon fill="black" stroke="black" points="898.32,-1295.32 888.35,-1298.93 898.39,-1302.32 898.32,-1295.32"/>
<text text-anchor="middle" x="919.71" y="-1287.4" font-family="Times,serif" font-size="14.00">range</text>
</g>
<!-- https://w3id.org/oseg/ont/otrl#Otrl1 -->
<g id="node26" class="node">
<title>https://w3id.org/oseg/ont/otrl#Otrl1</title>
<ellipse fill="none" stroke="black" cx="194.92" cy="-1682.67" rx="194.41" ry="16.03"/>
<text text-anchor="middle" x="194.92" y="-1678.97" font-family="Times,serif" font-size="14.00">https://w3id.org/oseg/ont/otrl#Otrl1</text>
</g>
<!-- https://w3id.org/oseg/ont/otrl#Otrl1&#45;&gt;https://w3id.org/oseg/ont/otrl#OTRL1 -->
<g id="edge5" class="edge">
<title>https://w3id.org/oseg/ont/otrl#Otrl1&#45;&gt;https://w3id.org/oseg/ont/otrl#OTRL1</title>
<path fill="none" stroke="black" d="M288.05,-1668.33C364.95,-1653.1 471.12,-1629.56 532.76,-1613.82"/>
<polygon fill="black" stroke="black" points="533.83,-1617.16 542.63,-1611.26 532.08,-1610.38 533.83,-1617.16"/>
<text text-anchor="middle" x="367.91" y="-1644.88" font-family="Times,serif" font-size="14.00">owl:sameAs</text>
</g>
<!-- https://w3id.org/oseg/ont/otrl#Otrl1&#45;&gt;https://w3id.org/oseg/ont/otrl#OTRL1 -->
<g id="edge53" class="edge">
<title>https://w3id.org/oseg/ont/otrl#Otrl1&#45;&gt;https://w3id.org/oseg/ont/otrl#OTRL1</title>
<path fill="none" stroke="black" d="M245,-1666.89C313.34,-1649.44 436.14,-1622.47 513.3,-1607.81"/>
<polygon fill="black" stroke="black" points="514.22,-1611.19 523.41,-1605.91 512.93,-1604.31 514.22,-1611.19"/>
<text text-anchor="middle" x="299.15" y="-1626.15" font-family="Times,serif" font-size="14.00">schema:supersededBy</text>
</g>
<!-- https://w3id.org/oseg/ont/otrl#Otrl -->
<g id="node27" class="node">
<title>https://w3id.org/oseg/ont/otrl#Otrl</title>
<ellipse fill="none" stroke="black" cx="810.89" cy="-1978.67" rx="188.18" ry="16.03"/>
<text text-anchor="middle" x="810.89" y="-1974.97" font-family="Times,serif" font-size="14.00">https://w3id.org/oseg/ont/otrl#Otrl</text>
</g>
<!-- https://w3id.org/oseg/ont/otrl#Otrl&#45;&gt;https://w3id.org/oseg/ont/otrl#OTRL -->
<g id="edge6" class="edge">
<title>https://w3id.org/oseg/ont/otrl#Otrl&#45;&gt;https://w3id.org/oseg/ont/otrl#OTRL</title>
<path fill="none" stroke="black" d="M815.38,-1961.95C825.51,-1901.81 843.99,-1696.13 846.22,-1621.92"/>
<polygon fill="black" stroke="black" points="849.72,-1621.64 846.43,-1611.57 842.73,-1621.5 849.72,-1621.64"/>
<text text-anchor="middle" x="788.3" y="-1795.74" font-family="Times,serif" font-size="14.00">owl:sameAs</text>
</g>
<!-- https://w3id.org/oseg/ont/otrl#Otrl&#45;&gt;https://w3id.org/oseg/ont/otrl#OTRL -->
<g id="edge54" class="edge">
<title>https://w3id.org/oseg/ont/otrl#Otrl&#45;&gt;https://w3id.org/oseg/ont/otrl#OTRL</title>
<path fill="none" stroke="black" d="M809.41,-1961.92C809.93,-1901.61 828.01,-1695.22 838.93,-1621.44"/>
<polygon fill="black" stroke="black" points="842.39,-1621.97 840.48,-1611.55 835.47,-1620.88 842.39,-1621.97"/>
<text text-anchor="middle" x="864.17" y="-1780.48" font-family="Times,serif" font-size="14.00">schema:supersededBy</text>
</g>
<!-- https://w3id.org/oseg/ont/otrl#Odrl5 -->
<g id="node28" class="node">
<title>https://w3id.org/oseg/ont/otrl#Odrl5</title>
<ellipse fill="none" stroke="black" cx="1041.57" cy="-16.29" rx="196.65" ry="16.03"/>
<text text-anchor="middle" x="1041.57" y="-12.59" font-family="Times,serif" font-size="14.00">https://w3id.org/oseg/ont/otrl#Odrl5</text>
</g>
<!-- https://w3id.org/oseg/ont/otrl#Odrl5&#45;&gt;https://w3id.org/oseg/ont/otrl#Odrl4 -->
<g id="edge10" class="edge">
<title>https://w3id.org/oseg/ont/otrl#Odrl5&#45;&gt;https://w3id.org/oseg/ont/otrl#Odrl4</title>
<path fill="none" stroke="black" d="M1037.47,-32.75C1028.74,-91.69 1015.05,-292.65 1014.47,-365.76"/>
<polygon fill="black" stroke="black" points="1010.97,-365.98 1014.49,-375.97 1017.97,-365.97 1010.97,-365.98"/>
<text text-anchor="middle" x="983.47" y="-203.05" font-family="Times,serif" font-size="14.00">owl:sameAs</text>
</g>
<!-- https://w3id.org/oseg/ont/otrl#Odrl5&#45;&gt;https://w3id.org/oseg/ont/otrl#Odrl4 -->
<g id="edge44" class="edge">
<title>https://w3id.org/oseg/ont/otrl#Odrl5&#45;&gt;https://w3id.org/oseg/ont/otrl#Odrl4</title>
<path fill="none" stroke="black" d="M1043.44,-32.66C1044.3,-91.59 1031.03,-293.31 1021.83,-366.14"/>
<polygon fill="black" stroke="black" points="1018.32,-365.92 1020.44,-376.3 1025.26,-366.87 1018.32,-365.92"/>
<text text-anchor="middle" x="1112.63" y="-203.2" font-family="Times,serif" font-size="14.00">schema:supersededBy</text>
</g>
<!-- https://w3id.org/oseg/ont/otrl#Odrl3Star -->
<g id="node29" class="node">
<title>https://w3id.org/oseg/ont/otrl#Odrl3Star</title>
<ellipse fill="none" stroke="black" cx="611.74" cy="-299.54" rx="218.49" ry="16.03"/>
<text text-anchor="middle" x="611.74" y="-295.84" font-family="Times,serif" font-size="14.00">https://w3id.org/oseg/ont/otrl#Odrl3Star</text>
</g>
<!-- https://w3id.org/oseg/ont/otrl#Odrl3Star&#45;&gt;https://w3id.org/oseg/ont/otrl#ODRL3Star -->
<g id="edge13" class="edge">
<title>https://w3id.org/oseg/ont/otrl#Odrl3Star&#45;&gt;https://w3id.org/oseg/ont/otrl#ODRL3Star</title>
<path fill="none" stroke="black" d="M617.35,-315.97C644.5,-377.2 759.16,-591.96 803.73,-665.84"/>
<polygon fill="black" stroke="black" points="800.84,-667.83 809.05,-674.53 806.81,-664.17 800.84,-667.83"/>
<text text-anchor="middle" x="630.54" y="-494.71" font-family="Times,serif" font-size="14.00">schema:supersededBy</text>
</g>
<!-- https://w3id.org/oseg/ont/otrl#Odrl3Star&#45;&gt;https://w3id.org/oseg/ont/otrl#ODRL3Star -->
<g id="edge17" class="edge">
<title>https://w3id.org/oseg/ont/otrl#Odrl3Star&#45;&gt;https://w3id.org/oseg/ont/otrl#ODRL3Star</title>
<path fill="none" stroke="black" d="M623.96,-315.94C662.08,-376.96 776.69,-590.73 811.44,-665.21"/>
<polygon fill="black" stroke="black" points="808.46,-667.12 815.79,-674.76 814.83,-664.21 808.46,-667.12"/>
<text text-anchor="middle" x="675.2" y="-479.38" font-family="Times,serif" font-size="14.00">owl:sameAs</text>
</g>
<!-- https://w3id.org/oseg/ont/otrl#Odrl2 -->
<g id="node30" class="node">
<title>https://w3id.org/oseg/ont/otrl#Odrl2</title>
<ellipse fill="none" stroke="black" cx="1401.55" cy="-472.14" rx="196.65" ry="16.03"/>
<text text-anchor="middle" x="1401.55" y="-468.44" font-family="Times,serif" font-size="14.00">https://w3id.org/oseg/ont/otrl#Odrl2</text>
</g>
<!-- https://w3id.org/oseg/ont/otrl#Odrl2&#45;&gt;https://w3id.org/oseg/ont/otrl#ODRL2 -->
<g id="edge16" class="edge">
<title>https://w3id.org/oseg/ont/otrl#Odrl2&#45;&gt;https://w3id.org/oseg/ont/otrl#ODRL2</title>
<path fill="none" stroke="black" d="M1382.14,-488.56C1332.61,-537.63 1202.8,-682.72 1156.34,-740.78"/>
<polygon fill="black" stroke="black" points="1153.55,-738.67 1150.11,-748.7 1159.05,-743 1153.55,-738.67"/>
<text text-anchor="middle" x="1189.24" y="-618.47" font-family="Times,serif" font-size="14.00">schema:supersededBy</text>
</g>
<!-- https://w3id.org/oseg/ont/otrl#Odrl2&#45;&gt;https://w3id.org/oseg/ont/otrl#ODRL2 -->
<g id="edge23" class="edge">
<title>https://w3id.org/oseg/ont/otrl#Odrl2&#45;&gt;https://w3id.org/oseg/ont/otrl#ODRL2</title>
<path fill="none" stroke="black" d="M1390.91,-488.77C1352.56,-538.39 1221.98,-684.9 1165.68,-742.03"/>
<polygon fill="black" stroke="black" points="1163.15,-739.61 1158.56,-749.16 1168.1,-744.56 1163.15,-739.61"/>
<text text-anchor="middle" x="1320.79" y="-619.2" font-family="Times,serif" font-size="14.00">owl:sameAs</text>
</g>
<!-- https://w3id.org/oseg/ont/otrl#Otrl6 -->
<g id="node31" class="node">
<title>https://w3id.org/oseg/ont/otrl#Otrl6</title>
<ellipse fill="none" stroke="black" cx="488.04" cy="-1767.97" rx="194.41" ry="16.03"/>
<text text-anchor="middle" x="488.04" y="-1764.27" font-family="Times,serif" font-size="14.00">https://w3id.org/oseg/ont/otrl#Otrl6</text>
</g>
<!-- https://w3id.org/oseg/ont/otrl#Otrl6&#45;&gt;https://w3id.org/oseg/ont/otrl#OTRL6 -->
<g id="edge19" class="edge">
<title>https://w3id.org/oseg/ont/otrl#Otrl6&#45;&gt;https://w3id.org/oseg/ont/otrl#OTRL6</title>
<path fill="none" stroke="black" d="M540.36,-1752.18C544.99,-1750.11 549.57,-1747.96 553.93,-1745.83"/>
<polygon fill="black" stroke="black" points="555.69,-1748.86 563.02,-1741.2 552.52,-1742.62 555.69,-1748.86"/>
<text text-anchor="middle" x="467.14" y="-1737.81" font-family="Times,serif" font-size="14.00">schema:supersededBy</text>
</g>
<!-- https://w3id.org/oseg/ont/otrl#Otrl6&#45;&gt;https://w3id.org/oseg/ont/otrl#OTRL6 -->
<g id="edge27" class="edge">
<title>https://w3id.org/oseg/ont/otrl#Otrl6&#45;&gt;https://w3id.org/oseg/ont/otrl#OTRL6</title>
<path fill="none" stroke="black" d="M510.29,-1751.57C516.28,-1748.43 523.04,-1745.17 529.96,-1742.04"/>
<polygon fill="black" stroke="black" points="531.69,-1745.1 539.45,-1737.88 528.88,-1738.69 531.69,-1745.1"/>
<text text-anchor="middle" x="477.62" y="-1735.61" font-family="Times,serif" font-size="14.00">owl:sameAs</text>
</g>
<!-- https://w3id.org/oseg/ont/otrl#Otrl5 -->
<g id="node32" class="node">
<title>https://w3id.org/oseg/ont/otrl#Otrl5</title>
<ellipse fill="none" stroke="black" cx="511.9" cy="-2170.75" rx="194.41" ry="16.03"/>
<text text-anchor="middle" x="511.9" y="-2167.05" font-family="Times,serif" font-size="14.00">https://w3id.org/oseg/ont/otrl#Otrl5</text>
</g>
<!-- https://w3id.org/oseg/ont/otrl#Otrl5&#45;&gt;https://w3id.org/oseg/ont/otrl#OTRL5 -->
<g id="edge20" class="edge">
<title>https://w3id.org/oseg/ont/otrl#Otrl5&#45;&gt;https://w3id.org/oseg/ont/otrl#OTRL5</title>
<path fill="none" stroke="black" d="M525.62,-2154.26C563.77,-2099.62 669.29,-1924.5 704.11,-1858.41"/>
<polygon fill="black" stroke="black" points="707.42,-1859.61 708.89,-1849.12 701.2,-1856.41 707.42,-1859.61"/>
<text text-anchor="middle" x="534.87" y="-2010.13" font-family="Times,serif" font-size="14.00">schema:supersededBy</text>
</g>
<!-- https://w3id.org/oseg/ont/otrl#Otrl5&#45;&gt;https://w3id.org/oseg/ont/otrl#OTRL5 -->
<g id="edge24" class="edge">
<title>https://w3id.org/oseg/ont/otrl#Otrl5&#45;&gt;https://w3id.org/oseg/ont/otrl#OTRL5</title>
<path fill="none" stroke="black" d="M518.33,-2154.25C545.86,-2099.38 651.56,-1923.16 695.79,-1857.65"/>
<polygon fill="black" stroke="black" points="698.83,-1859.4 701.6,-1849.17 693.06,-1855.44 698.83,-1859.4"/>
<text text-anchor="middle" x="564.56" y="-1994.75" font-family="Times,serif" font-size="14.00">owl:sameAs</text>
</g>
<!-- https://w3id.org/oseg/ont/otrl#Otrl4 -->
<g id="node33" class="node">
<title>https://w3id.org/oseg/ont/otrl#Otrl4</title>
<ellipse fill="none" stroke="black" cx="1459.48" cy="-1819.57" rx="194.41" ry="16.03"/>
<text text-anchor="middle" x="1459.48" y="-1815.87" font-family="Times,serif" font-size="14.00">https://w3id.org/oseg/ont/otrl#Otrl4</text>
</g>
<!-- https://w3id.org/oseg/ont/otrl#Otrl4&#45;&gt;https://w3id.org/oseg/ont/otrl#OTRL4 -->
<g id="edge22" class="edge">
<title>https://w3id.org/oseg/ont/otrl#Otrl4&#45;&gt;https://w3id.org/oseg/ont/otrl#OTRL4</title>
<path fill="none" stroke="black" d="M1431.09,-1803.34C1371.33,-1774.55 1231.9,-1715.63 1156.13,-1686.83"/>
<polygon fill="black" stroke="black" points="1157.36,-1683.56 1146.77,-1683.31 1154.9,-1690.11 1157.36,-1683.56"/>
<text text-anchor="middle" x="1213.61" y="-1733.89" font-family="Times,serif" font-size="14.00">schema:supersededBy</text>
</g>
<!-- https://w3id.org/oseg/ont/otrl#Otrl4&#45;&gt;https://w3id.org/oseg/ont/otrl#OTRL4 -->
<g id="edge34" class="edge">
<title>https://w3id.org/oseg/ont/otrl#Otrl4&#45;&gt;https://w3id.org/oseg/ont/otrl#OTRL4</title>
<path fill="none" stroke="black" d="M1409.43,-1803.75C1336.69,-1776.16 1203.59,-1720.05 1140.23,-1690.1"/>
<polygon fill="black" stroke="black" points="1141.58,-1686.86 1131.04,-1685.7 1138.55,-1693.18 1141.58,-1686.86"/>
<text text-anchor="middle" x="1232.33" y="-1750.73" font-family="Times,serif" font-size="14.00">owl:sameAs</text>
</g>
<!-- https://w3id.org/oseg/ont/otrl#Otrl2 -->
<g id="node34" class="node">
<title>https://w3id.org/oseg/ont/otrl#Otrl2</title>
<ellipse fill="none" stroke="black" cx="946.57" cy="-2251.05" rx="194.41" ry="16.03"/>
<text text-anchor="middle" x="946.57" y="-2247.35" font-family="Times,serif" font-size="14.00">https://w3id.org/oseg/ont/otrl#Otrl2</text>
</g>
<!-- https://w3id.org/oseg/ont/otrl#Otrl2&#45;&gt;https://w3id.org/oseg/ont/otrl#OTRL2 -->
<g id="edge26" class="edge">
<title>https://w3id.org/oseg/ont/otrl#Otrl2&#45;&gt;https://w3id.org/oseg/ont/otrl#OTRL2</title>
<path fill="none" stroke="black" d="M947.53,-2234.48C945.2,-2173.7 920.33,-1962.74 907.04,-1888.17"/>
<polygon fill="black" stroke="black" points="910.45,-1887.37 905.16,-1878.19 903.57,-1888.66 910.45,-1887.37"/>
<text text-anchor="middle" x="847.28" y="-2050.12" font-family="Times,serif" font-size="14.00">schema:supersededBy</text>
</g>
<!-- https://w3id.org/oseg/ont/otrl#Otrl2&#45;&gt;https://w3id.org/oseg/ont/otrl#OTRL2 -->
<g id="edge33" class="edge">
<title>https://w3id.org/oseg/ont/otrl#Otrl2&#45;&gt;https://w3id.org/oseg/ont/otrl#OTRL2</title>
<path fill="none" stroke="black" d="M941.65,-2234.68C929.58,-2174.22 904.25,-1963.26 899.78,-1888.4"/>
<polygon fill="black" stroke="black" points="903.27,-1888.19 899.28,-1878.38 896.28,-1888.54 903.27,-1888.19"/>
<text text-anchor="middle" x="878.21" y="-2065.34" font-family="Times,serif" font-size="14.00">owl:sameAs</text>
</g>
<!-- https://w3id.org/oseg/ont/otrl#Odrl3 -->
<g id="node35" class="node">
<title>https://w3id.org/oseg/ont/otrl#Odrl3</title>
<ellipse fill="none" stroke="black" cx="407.32" cy="-579.89" rx="196.65" ry="16.03"/>
<text text-anchor="middle" x="407.32" y="-576.19" font-family="Times,serif" font-size="14.00">https://w3id.org/oseg/ont/otrl#Odrl3</text>
</g>
<!-- https://w3id.org/oseg/ont/otrl#Odrl3&#45;&gt;https://w3id.org/oseg/ont/otrl#ODRL3 -->
<g id="edge29" class="edge">
<title>https://w3id.org/oseg/ont/otrl#Odrl3&#45;&gt;https://w3id.org/oseg/ont/otrl#ODRL3</title>
<path fill="none" stroke="black" d="M425.52,-596.4C477.69,-636.67 628.21,-739.08 699.22,-783.06"/>
<polygon fill="black" stroke="black" points="697.53,-786.12 707.89,-788.37 701.19,-780.16 697.53,-786.12"/>
<text text-anchor="middle" x="482.37" y="-693.53" font-family="Times,serif" font-size="14.00">schema:supersededBy</text>
</g>
<!-- https://w3id.org/oseg/ont/otrl#Odrl3&#45;&gt;https://w3id.org/oseg/ont/otrl#ODRL3 -->
<g id="edge39" class="edge">
<title>https://w3id.org/oseg/ont/otrl#Odrl3&#45;&gt;https://w3id.org/oseg/ont/otrl#ODRL3</title>
<path fill="none" stroke="black" d="M438.26,-596.02C503.05,-635.51 651.74,-736.32 711.55,-781.34"/>
<polygon fill="black" stroke="black" points="709.63,-784.28 719.71,-787.56 713.88,-778.71 709.63,-784.28"/>
<text text-anchor="middle" x="532.4" y="-677.48" font-family="Times,serif" font-size="14.00">owl:sameAs</text>
</g>
<!-- https://w3id.org/oseg/ont/otrl#Odrl -->
<g id="node36" class="node">
<title>https://w3id.org/oseg/ont/otrl#Odrl</title>
<ellipse fill="none" stroke="black" cx="591.78" cy="-849.57" rx="190.42" ry="16.03"/>
<text text-anchor="middle" x="591.78" y="-845.87" font-family="Times,serif" font-size="14.00">https://w3id.org/oseg/ont/otrl#Odrl</text>
</g>
<!-- https://w3id.org/oseg/ont/otrl#Odrl&#45;&gt;https://w3id.org/oseg/ont/otrl#ODRL -->
<g id="edge41" class="edge">
<title>https://w3id.org/oseg/ont/otrl#Odrl&#45;&gt;https://w3id.org/oseg/ont/otrl#ODRL</title>
<path fill="none" stroke="black" d="M630.72,-865.6C693.98,-887.1 819.47,-924.12 894.24,-943.56"/>
<polygon fill="black" stroke="black" points="893.44,-946.96 904,-946.07 895.18,-940.19 893.44,-946.96"/>
<text text-anchor="middle" x="682.48" y="-908.38" font-family="Times,serif" font-size="14.00">schema:supersededBy</text>
</g>
<!-- https://w3id.org/oseg/ont/otrl#Odrl&#45;&gt;https://w3id.org/oseg/ont/otrl#ODRL -->
<g id="edge51" class="edge">
<title>https://w3id.org/oseg/ont/otrl#Odrl&#45;&gt;https://w3id.org/oseg/ont/otrl#ODRL</title>
<path fill="none" stroke="black" d="M662.79,-864.71C736.78,-884.32 850.29,-917.88 911.57,-938.5"/>
<polygon fill="black" stroke="black" points="910.71,-941.91 921.31,-941.82 912.97,-935.28 910.71,-941.91"/>
<text text-anchor="middle" x="744.68" y="-890.4" font-family="Times,serif" font-size="14.00">owl:sameAs</text>
</g>
<!-- https://w3id.org/oseg/ont/otrl#Otrl3 -->
<g id="node37" class="node">
<title>https://w3id.org/oseg/ont/otrl#Otrl3</title>
<ellipse fill="none" stroke="black" cx="1265.34" cy="-2105.02" rx="194.41" ry="16.03"/>
<text text-anchor="middle" x="1265.34" y="-2101.32" font-family="Times,serif" font-size="14.00">https://w3id.org/oseg/ont/otrl#Otrl3</text>
</g>
<!-- https://w3id.org/oseg/ont/otrl#Otrl3&#45;&gt;https://w3id.org/oseg/ont/otrl#OTRL3 -->
<g id="edge42" class="edge">
<title>https://w3id.org/oseg/ont/otrl#Otrl3&#45;&gt;https://w3id.org/oseg/ont/otrl#OTRL3</title>
<path fill="none" stroke="black" d="M1256.7,-2088.72C1223.34,-2037.7 1103.84,-1881.4 1052.65,-1821.19"/>
<polygon fill="black" stroke="black" points="1055.08,-1818.64 1045.9,-1813.35 1049.77,-1823.21 1055.08,-1818.64"/>
<text text-anchor="middle" x="1074.68" y="-1943.76" font-family="Times,serif" font-size="14.00">schema:supersededBy</text>
</g>
<!-- https://w3id.org/oseg/ont/otrl#Otrl3&#45;&gt;https://w3id.org/oseg/ont/otrl#OTRL3 -->
<g id="edge48" class="edge">
<title>https://w3id.org/oseg/ont/otrl#Otrl3&#45;&gt;https://w3id.org/oseg/ont/otrl#OTRL3</title>
<path fill="none" stroke="black" d="M1248.57,-2088.77C1204.25,-2038.11 1085.4,-1883.34 1043.77,-1822.31"/>
<polygon fill="black" stroke="black" points="1046.46,-1820.04 1037.99,-1813.68 1040.64,-1823.94 1046.46,-1820.04"/>
<text text-anchor="middle" x="1103.67" y="-1959.34" font-family="Times,serif" font-size="14.00">owl:sameAs</text>
</g>
<!-- https://w3id.org/oseg/ont/otrl#Odrl1 -->
<g id="node38" class="node">
<title>https://w3id.org/oseg/ont/otrl#Odrl1</title>
<ellipse fill="none" stroke="black" cx="1588.9" cy="-788.55" rx="196.65" ry="16.03"/>
<text text-anchor="middle" x="1588.9" y="-784.85" font-family="Times,serif" font-size="14.00">https://w3id.org/oseg/ont/otrl#Odrl1</text>
</g>
<!-- https://w3id.org/oseg/ont/otrl#Odrl1&#45;&gt;https://w3id.org/oseg/ont/otrl#ODRL1 -->
<g id="edge46" class="edge">
<title>https://w3id.org/oseg/ont/otrl#Odrl1&#45;&gt;https://w3id.org/oseg/ont/otrl#ODRL1</title>
<path fill="none" stroke="black" d="M1521.29,-803.92C1445.18,-825.23 1323.84,-863.05 1259.83,-885.64"/>
<polygon fill="black" stroke="black" points="1258.3,-882.47 1250.06,-889.13 1260.66,-889.06 1258.3,-882.47"/>
<text text-anchor="middle" x="1310.56" y="-848.58" font-family="Times,serif" font-size="14.00">schema:supersededBy</text>
</g>
<!-- https://w3id.org/oseg/ont/otrl#Odrl1&#45;&gt;https://w3id.org/oseg/ont/otrl#ODRL1 -->
<g id="edge50" class="edge">
<title>https://w3id.org/oseg/ont/otrl#Odrl1&#45;&gt;https://w3id.org/oseg/ont/otrl#ODRL1</title>
<path fill="none" stroke="black" d="M1551.79,-804.54C1487.8,-827.45 1356.17,-868.48 1278.41,-890.02"/>
<polygon fill="black" stroke="black" points="1277.45,-886.65 1268.74,-892.67 1279.3,-893.4 1277.45,-886.65"/>
<text text-anchor="middle" x="1457.6" y="-851.08" font-family="Times,serif" font-size="14.00">owl:sameAs</text>
</g>
</g>
</svg>
