<?xml version="1.0" encoding="UTF-8" standalone="no"?>
<!DOCTYPE svg PUBLIC "-//W3C//DTD SVG 1.1//EN"
 "http://www.w3.org/Graphics/SVG/1.1/DTD/svg11.dtd">
<!-- Generated by graphviz version 2.43.0 (0)
 -->
<!-- Title: G Pages: 1 -->
<svg width="847pt" height="589pt"
 viewBox="0.00 0.00 846.76 589.00" xmlns="http://www.w3.org/2000/svg" xmlns:xlink="http://www.w3.org/1999/xlink">
<g id="graph0" class="graph" transform="scale(1 1) rotate(0) translate(4 585)">
<title>G</title>
<polygon fill="white" stroke="transparent" points="-4,4 -4,-585 842.76,-585 842.76,4 -4,4"/>
<!-- http://purl.org/oseg/ontologies/OTRL#ODRL -->
<g id="node1" class="node">
<title>http://purl.org/oseg/ontologies/OTRL#ODRL</title>
<ellipse fill="none" stroke="#e377c2" cx="316.52" cy="-237.92" rx="41.94" ry="16.03"/>
<text text-anchor="middle" x="316.52" y="-234.22" font-family="Times,serif" font-size="14.00">ODRL</text>
</g>
<!-- http://www.w3.org/2002/07/owl#DatatypeProperty -->
<g id="node2" class="node">
<title>http://www.w3.org/2002/07/owl#DatatypeProperty</title>
<ellipse fill="none" stroke="#1f77b4" cx="500.93" cy="-385.71" rx="123.07" ry="16.03"/>
<text text-anchor="middle" x="500.93" y="-382.01" font-family="Times,serif" font-size="14.00">owl:DatatypeProperty</text>
</g>
<!-- http://www.w3.org/2002/07/owl#class -->
<g id="node3" class="node">
<title>http://www.w3.org/2002/07/owl#class</title>
<ellipse fill="none" stroke="#1f77b4" cx="209.92" cy="-176.78" rx="57.05" ry="16.03"/>
<text text-anchor="middle" x="209.92" y="-173.08" font-family="Times,serif" font-size="14.00">owl:class</text>
</g>
<!-- http://purl.org/oseg/ontologies/OTRL#OTRL -->
<g id="node4" class="node">
<title>http://purl.org/oseg/ontologies/OTRL#OTRL</title>
<ellipse fill="none" stroke="#e377c2" cx="132.08" cy="-130.83" rx="39.7" ry="16.03"/>
<text text-anchor="middle" x="132.08" y="-127.13" font-family="Times,serif" font-size="14.00">OTRL</text>
</g>
<!-- http://purl.org/oseg/ontologies/OTRL#OTRL&#45;&gt;http://www.w3.org/2002/07/owl#class -->
<g id="edge6" class="edge">
<title>http://purl.org/oseg/ontologies/OTRL#OTRL&#45;&gt;http://www.w3.org/2002/07/owl#class</title>
<path fill="none" stroke="black" d="M155.02,-144.37C161.64,-148.28 169.01,-152.63 176.14,-156.84"/>
<polygon fill="black" stroke="black" points="174.59,-159.99 184.98,-162.06 178.14,-153.96 174.59,-159.99"/>
<text text-anchor="middle" x="161.08" y="-154.4" font-family="Times,serif" font-size="14.00">a</text>
</g>
<!-- http://www.w3.org/2002/07/owl#Ontology -->
<g id="node5" class="node">
<title>http://www.w3.org/2002/07/owl#Ontology</title>
<ellipse fill="none" stroke="#1f77b4" cx="509.32" cy="-38.47" rx="77.56" ry="16.03"/>
<text text-anchor="middle" x="509.32" y="-34.77" font-family="Times,serif" font-size="14.00">owl:Ontology</text>
</g>
<!-- http://purl.org/oseg/ontologies/OTRL#Odrl -->
<g id="node6" class="node">
<title>http://purl.org/oseg/ontologies/OTRL#Odrl</title>
<ellipse fill="none" stroke="#e377c2" cx="194.42" cy="-353.98" rx="33.88" ry="16.03"/>
<text text-anchor="middle" x="194.42" y="-350.28" font-family="Times,serif" font-size="14.00">Odrl</text>
</g>
<!-- http://purl.org/oseg/ontologies/OTRL#Odrl&#45;&gt;http://www.w3.org/2002/07/owl#class -->
<g id="edge14" class="edge">
<title>http://purl.org/oseg/ontologies/OTRL#Odrl&#45;&gt;http://www.w3.org/2002/07/owl#class</title>
<path fill="none" stroke="black" d="M195.85,-337.63C198.54,-306.91 204.36,-240.31 207.61,-203.17"/>
<polygon fill="black" stroke="black" points="211.11,-203.36 208.49,-193.09 204.13,-202.75 211.11,-203.36"/>
<text text-anchor="middle" x="197.23" y="-259.2" font-family="Times,serif" font-size="14.00">a</text>
</g>
<!-- http://purl.org/oseg/ontologies/OTRL#Odrl3Star -->
<g id="node7" class="node">
<title>http://purl.org/oseg/ontologies/OTRL#Odrl3Star</title>
<ellipse fill="none" stroke="#e377c2" cx="346.45" cy="-316.14" rx="62.45" ry="16.03"/>
<text text-anchor="middle" x="346.45" y="-312.44" font-family="Times,serif" font-size="14.00">Odrl3Star</text>
</g>
<!-- http://purl.org/oseg/ontologies/OTRL#Odrl3Star&#45;&gt;http://purl.org/oseg/ontologies/OTRL#ODRL -->
<g id="edge26" class="edge">
<title>http://purl.org/oseg/ontologies/OTRL#Odrl3Star&#45;&gt;http://purl.org/oseg/ontologies/OTRL#ODRL</title>
<path fill="none" stroke="black" d="M340.25,-299.93C336.23,-289.44 330.92,-275.56 326.34,-263.59"/>
<polygon fill="black" stroke="black" points="329.55,-262.19 322.71,-254.11 323.02,-264.7 329.55,-262.19"/>
</g>
<!-- http://purl.org/oseg/ontologies/OTRL#Odrl3Star&#45;&gt;http://www.w3.org/2002/07/owl#class -->
<g id="edge2" class="edge">
<title>http://purl.org/oseg/ontologies/OTRL#Odrl3Star&#45;&gt;http://www.w3.org/2002/07/owl#class</title>
<path fill="none" stroke="black" d="M330.79,-300.15C306.72,-275.58 260.5,-228.41 232.71,-200.05"/>
<polygon fill="black" stroke="black" points="234.9,-197.27 225.4,-192.58 229.9,-202.17 234.9,-197.27"/>
<text text-anchor="middle" x="277.25" y="-253.9" font-family="Times,serif" font-size="14.00">a</text>
</g>
<!-- http://purl.org/oseg/ontologies/OTRL#Otrl3 -->
<g id="node8" class="node">
<title>http://purl.org/oseg/ontologies/OTRL#Otrl3</title>
<ellipse fill="none" stroke="#e377c2" cx="73.23" cy="-253.7" rx="38.37" ry="16.03"/>
<text text-anchor="middle" x="73.23" y="-250" font-family="Times,serif" font-size="14.00">Otrl3</text>
</g>
<!-- http://purl.org/oseg/ontologies/OTRL#Otrl3&#45;&gt;http://www.w3.org/2002/07/owl#class -->
<g id="edge3" class="edge">
<title>http://purl.org/oseg/ontologies/OTRL#Otrl3&#45;&gt;http://www.w3.org/2002/07/owl#class</title>
<path fill="none" stroke="black" d="M96.41,-240.65C117.89,-228.57 150.14,-210.42 174.78,-196.55"/>
<polygon fill="black" stroke="black" points="176.81,-199.43 183.81,-191.47 173.38,-193.32 176.81,-199.43"/>
<text text-anchor="middle" x="131.1" y="-222.4" font-family="Times,serif" font-size="14.00">a</text>
</g>
<!-- http://purl.org/oseg/ontologies/OTRL#Otrl3&#45;&gt;http://purl.org/oseg/ontologies/OTRL#OTRL -->
<g id="edge13" class="edge">
<title>http://purl.org/oseg/ontologies/OTRL#Otrl3&#45;&gt;http://purl.org/oseg/ontologies/OTRL#OTRL</title>
<path fill="none" stroke="black" d="M80.92,-237.64C90.88,-216.85 108.34,-180.4 120.06,-155.94"/>
<polygon fill="black" stroke="black" points="123.22,-157.43 124.39,-146.9 116.91,-154.4 123.22,-157.43"/>
</g>
<!-- http://purl.org/oseg/ontologies/OTRL#Otrl2 -->
<g id="node9" class="node">
<title>http://purl.org/oseg/ontologies/OTRL#Otrl2</title>
<ellipse fill="none" stroke="#e377c2" cx="126.42" cy="-19.08" rx="38.37" ry="16.03"/>
<text text-anchor="middle" x="126.42" y="-15.38" font-family="Times,serif" font-size="14.00">Otrl2</text>
</g>
<!-- http://purl.org/oseg/ontologies/OTRL#Otrl2&#45;&gt;http://www.w3.org/2002/07/owl#class -->
<g id="edge16" class="edge">
<title>http://purl.org/oseg/ontologies/OTRL#Otrl2&#45;&gt;http://www.w3.org/2002/07/owl#class</title>
<path fill="none" stroke="black" d="M134.88,-35.07C149.37,-62.44 179.04,-118.48 196.42,-151.29"/>
<polygon fill="black" stroke="black" points="193.41,-153.08 201.18,-160.28 199.59,-149.8 193.41,-153.08"/>
<text text-anchor="middle" x="161.15" y="-96.98" font-family="Times,serif" font-size="14.00">a</text>
</g>
<!-- http://purl.org/oseg/ontologies/OTRL#Otrl2&#45;&gt;http://purl.org/oseg/ontologies/OTRL#OTRL -->
<g id="edge28" class="edge">
<title>http://purl.org/oseg/ontologies/OTRL#Otrl2&#45;&gt;http://purl.org/oseg/ontologies/OTRL#OTRL</title>
<path fill="none" stroke="black" d="M127.25,-35.57C128.17,-53.65 129.65,-82.91 130.73,-104.24"/>
<polygon fill="black" stroke="black" points="127.24,-104.46 131.24,-114.27 134.23,-104.11 127.24,-104.46"/>
</g>
<!-- http://purl.org/oseg/ontologies/OTRL#Odrl1 -->
<g id="node10" class="node">
<title>http://purl.org/oseg/ontologies/OTRL#Odrl1</title>
<ellipse fill="none" stroke="#e377c2" cx="392.29" cy="-134.27" rx="40.11" ry="16.03"/>
<text text-anchor="middle" x="392.29" y="-130.57" font-family="Times,serif" font-size="14.00">Odrl1</text>
</g>
<!-- http://purl.org/oseg/ontologies/OTRL#Odrl1&#45;&gt;http://purl.org/oseg/ontologies/OTRL#ODRL -->
<g id="edge22" class="edge">
<title>http://purl.org/oseg/ontologies/OTRL#Odrl1&#45;&gt;http://purl.org/oseg/ontologies/OTRL#ODRL</title>
<path fill="none" stroke="black" d="M380.78,-150.02C368.37,-166.98 348.48,-194.2 334.11,-213.86"/>
<polygon fill="black" stroke="black" points="331.21,-211.89 328.13,-222.03 336.86,-216.02 331.21,-211.89"/>
</g>
<!-- http://purl.org/oseg/ontologies/OTRL#Odrl1&#45;&gt;http://www.w3.org/2002/07/owl#class -->
<g id="edge17" class="edge">
<title>http://purl.org/oseg/ontologies/OTRL#Odrl1&#45;&gt;http://www.w3.org/2002/07/owl#class</title>
<path fill="none" stroke="black" d="M357.13,-142.47C330.81,-148.6 294.33,-157.11 264.27,-164.11"/>
<polygon fill="black" stroke="black" points="263.29,-160.75 254.34,-166.43 264.87,-167.57 263.29,-160.75"/>
<text text-anchor="middle" x="306.2" y="-157.09" font-family="Times,serif" font-size="14.00">a</text>
</g>
<!-- http://purl.org/oseg/ontologies/OTRL#goal -->
<g id="node11" class="node">
<title>http://purl.org/oseg/ontologies/OTRL#goal</title>
<ellipse fill="none" stroke="#e377c2" cx="640.71" cy="-564.29" rx="33.47" ry="16.03"/>
<text text-anchor="middle" x="640.71" y="-560.59" font-family="Times,serif" font-size="14.00">goal</text>
</g>
<!-- http://purl.org/oseg/ontologies/OTRL#goal&#45;&gt;http://www.w3.org/2002/07/owl#DatatypeProperty -->
<g id="edge18" class="edge">
<title>http://purl.org/oseg/ontologies/OTRL#goal&#45;&gt;http://www.w3.org/2002/07/owl#DatatypeProperty</title>
<path fill="none" stroke="black" d="M628.79,-549.06C604.59,-518.14 549.49,-447.75 520.15,-410.27"/>
<polygon fill="black" stroke="black" points="522.54,-407.64 513.62,-401.93 517.03,-411.96 522.54,-407.64"/>
<text text-anchor="middle" x="569.97" y="-483.47" font-family="Times,serif" font-size="14.00">a</text>
</g>
<!-- http://schema.org/Text -->
<g id="node19" class="node">
<title>http://schema.org/Text</title>
<ellipse fill="none" stroke="#e377c2" cx="714.2" cy="-410.11" rx="74.91" ry="16.03"/>
<text text-anchor="middle" x="714.2" y="-406.41" font-family="Times,serif" font-size="14.00">schema:Text</text>
</g>
<!-- http://purl.org/oseg/ontologies/OTRL#goal&#45;&gt;http://schema.org/Text -->
<g id="edge10" class="edge">
<title>http://purl.org/oseg/ontologies/OTRL#goal&#45;&gt;http://schema.org/Text</title>
<path fill="none" stroke="black" d="M648.29,-548.37C660.99,-521.73 686.65,-467.91 701.94,-435.84"/>
<polygon fill="black" stroke="black" points="705.18,-437.17 706.32,-426.64 698.86,-434.16 705.18,-437.17"/>
<text text-anchor="middle" x="654.12" y="-495.9" font-family="Times,serif" font-size="14.00">range</text>
</g>
<!-- http://purl.org/oseg/ontologies/OTRL#Otrl1 -->
<g id="node12" class="node">
<title>http://purl.org/oseg/ontologies/OTRL#Otrl1</title>
<ellipse fill="none" stroke="#e377c2" cx="38.36" cy="-191.32" rx="38.37" ry="16.03"/>
<text text-anchor="middle" x="38.36" y="-187.62" font-family="Times,serif" font-size="14.00">Otrl1</text>
</g>
<!-- http://purl.org/oseg/ontologies/OTRL#Otrl1&#45;&gt;http://www.w3.org/2002/07/owl#class -->
<g id="edge19" class="edge">
<title>http://purl.org/oseg/ontologies/OTRL#Otrl1&#45;&gt;http://www.w3.org/2002/07/owl#class</title>
<path fill="none" stroke="black" d="M76.01,-188.13C96.11,-186.43 121.43,-184.28 144.63,-182.31"/>
<polygon fill="black" stroke="black" points="145.1,-185.79 154.77,-181.45 144.51,-178.81 145.1,-185.79"/>
<text text-anchor="middle" x="105.82" y="-189.02" font-family="Times,serif" font-size="14.00">a</text>
</g>
<!-- http://purl.org/oseg/ontologies/OTRL#Otrl1&#45;&gt;http://purl.org/oseg/ontologies/OTRL#OTRL -->
<g id="edge8" class="edge">
<title>http://purl.org/oseg/ontologies/OTRL#Otrl1&#45;&gt;http://purl.org/oseg/ontologies/OTRL#OTRL</title>
<path fill="none" stroke="black" d="M59.62,-177.59C72.12,-169.53 88.11,-159.21 101.9,-150.31"/>
<polygon fill="black" stroke="black" points="104.07,-153.08 110.57,-144.71 100.27,-147.19 104.07,-153.08"/>
</g>
<!-- http://www.w3.org/1999/02/22&#45;rdf&#45;syntax&#45;ns#nil -->
<g id="node13" class="node">
<title>http://www.w3.org/1999/02/22&#45;rdf&#45;syntax&#45;ns#nil</title>
<ellipse fill="none" stroke="#e377c2" cx="339.24" cy="-16.64" rx="42.35" ry="16.03"/>
<text text-anchor="middle" x="339.24" y="-12.94" font-family="Times,serif" font-size="14.00">rdf:nil</text>
</g>
<!-- http://purl.org/oseg/ontologies/OTRL#Odrl2 -->
<g id="node14" class="node">
<title>http://purl.org/oseg/ontologies/OTRL#Odrl2</title>
<ellipse fill="none" stroke="#e377c2" cx="346.18" cy="-86.34" rx="40.11" ry="16.03"/>
<text text-anchor="middle" x="346.18" y="-82.64" font-family="Times,serif" font-size="14.00">Odrl2</text>
</g>
<!-- http://purl.org/oseg/ontologies/OTRL#Odrl2&#45;&gt;http://purl.org/oseg/ontologies/OTRL#ODRL -->
<g id="edge23" class="edge">
<title>http://purl.org/oseg/ontologies/OTRL#Odrl2&#45;&gt;http://purl.org/oseg/ontologies/OTRL#ODRL</title>
<path fill="none" stroke="black" d="M343.01,-102.56C337.9,-128.64 327.83,-180.12 321.68,-211.54"/>
<polygon fill="black" stroke="black" points="318.24,-210.87 319.76,-221.35 325.11,-212.21 318.24,-210.87"/>
</g>
<!-- http://purl.org/oseg/ontologies/OTRL#Odrl2&#45;&gt;http://www.w3.org/2002/07/owl#class -->
<g id="edge20" class="edge">
<title>http://purl.org/oseg/ontologies/OTRL#Odrl2&#45;&gt;http://www.w3.org/2002/07/owl#class</title>
<path fill="none" stroke="black" d="M325.19,-100.27C302.75,-115.17 266.93,-138.94 241.18,-156.03"/>
<polygon fill="black" stroke="black" points="238.92,-153.33 232.52,-161.78 242.79,-159.16 238.92,-153.33"/>
<text text-anchor="middle" x="278.68" y="-131.95" font-family="Times,serif" font-size="14.00">a</text>
</g>
<!-- http://purl.org/oseg/ontologies/OTRL#exitCriteria -->
<g id="node15" class="node">
<title>http://purl.org/oseg/ontologies/OTRL#exitCriteria</title>
<ellipse fill="none" stroke="#e377c2" cx="545.39" cy="-340.71" rx="70.01" ry="16.03"/>
<text text-anchor="middle" x="545.39" y="-337.01" font-family="Times,serif" font-size="14.00">exitCriteria</text>
</g>
<!-- http://purl.org/oseg/ontologies/OTRL#exitCriteria&#45;&gt;http://www.w3.org/2002/07/owl#DatatypeProperty -->
<g id="edge4" class="edge">
<title>http://purl.org/oseg/ontologies/OTRL#exitCriteria&#45;&gt;http://www.w3.org/2002/07/owl#DatatypeProperty</title>
<path fill="none" stroke="black" d="M529.59,-356.7C527.8,-358.51 525.95,-360.39 524.09,-362.27"/>
<polygon fill="black" stroke="black" points="521.52,-359.89 516.98,-369.47 526.5,-364.81 521.52,-359.89"/>
<text text-anchor="middle" x="522.34" y="-363.29" font-family="Times,serif" font-size="14.00">a</text>
</g>
<!-- http://purl.org/oseg/ontologies/OTRL#exitCriteria&#45;&gt;http://schema.org/Text -->
<g id="edge24" class="edge">
<title>http://purl.org/oseg/ontologies/OTRL#exitCriteria&#45;&gt;http://schema.org/Text</title>
<path fill="none" stroke="black" d="M579.96,-354.92C605.85,-365.56 641.48,-380.21 669.52,-391.74"/>
<polygon fill="black" stroke="black" points="668.52,-395.11 679.1,-395.68 671.18,-388.64 668.52,-395.11"/>
<text text-anchor="middle" x="645.74" y="-377.13" font-family="Times,serif" font-size="14.00">range</text>
</g>
<!-- http://purl.org/oseg/ontologies/OTRL -->
<g id="node16" class="node">
<title>http://purl.org/oseg/ontologies/OTRL</title>
<ellipse fill="none" stroke="#e377c2" cx="656.95" cy="-16.42" rx="60.62" ry="16.03"/>
<text text-anchor="middle" x="656.95" y="-12.72" font-family="Times,serif" font-size="14.00">ns1:OTRL</text>
</g>
<!-- http://purl.org/oseg/ontologies/OTRL&#45;&gt;http://www.w3.org/2002/07/owl#Ontology -->
<g id="edge5" class="edge">
<title>http://purl.org/oseg/ontologies/OTRL&#45;&gt;http://www.w3.org/2002/07/owl#Ontology</title>
<path fill="none" stroke="black" d="M603.65,-24.38C596.94,-25.38 589.98,-26.42 583.02,-27.46"/>
<polygon fill="black" stroke="black" points="582.22,-24.04 572.85,-28.98 583.26,-30.96 582.22,-24.04"/>
<text text-anchor="middle" x="591.08" y="-14.72" font-family="Times,serif" font-size="14.00">a</text>
</g>
<!-- http://purl.org/oseg/ontologies/OTRL&#45;&gt;http://purl.org/oseg/ontologies/OTRL -->
<g id="edge7" class="edge">
<title>http://purl.org/oseg/ontologies/OTRL&#45;&gt;http://purl.org/oseg/ontologies/OTRL</title>
<path fill="none" stroke="black" d="M712.55,-23.05C725.89,-22.53 735.76,-20.32 735.76,-16.42 735.76,-13.58 730.55,-11.64 722.58,-10.59"/>
<polygon fill="black" stroke="black" points="722.8,-7.1 712.55,-9.78 722.24,-14.07 722.8,-7.1"/>
<text text-anchor="middle" x="787.26" y="-12.72" font-family="Times,serif" font-size="14.00">owl:versionIRI</text>
</g>
<!-- http://purl.org/oseg/ontologies/OTRL#Otrl4 -->
<g id="node17" class="node">
<title>http://purl.org/oseg/ontologies/OTRL#Otrl4</title>
<ellipse fill="none" stroke="#e377c2" cx="214.38" cy="-16.26" rx="38.37" ry="16.03"/>
<text text-anchor="middle" x="214.38" y="-12.56" font-family="Times,serif" font-size="14.00">Otrl4</text>
</g>
<!-- http://purl.org/oseg/ontologies/OTRL#Otrl4&#45;&gt;http://www.w3.org/2002/07/owl#class -->
<g id="edge21" class="edge">
<title>http://purl.org/oseg/ontologies/OTRL#Otrl4&#45;&gt;http://www.w3.org/2002/07/owl#class</title>
<path fill="none" stroke="black" d="M213.93,-32.53C213.16,-60.18 211.59,-116.55 210.66,-150.05"/>
<polygon fill="black" stroke="black" points="207.15,-150.37 210.37,-160.46 214.15,-150.56 207.15,-150.37"/>
<text text-anchor="middle" x="207.8" y="-95.09" font-family="Times,serif" font-size="14.00">a</text>
</g>
<!-- http://purl.org/oseg/ontologies/OTRL#Otrl4&#45;&gt;http://purl.org/oseg/ontologies/OTRL#OTRL -->
<g id="edge12" class="edge">
<title>http://purl.org/oseg/ontologies/OTRL#Otrl4&#45;&gt;http://purl.org/oseg/ontologies/OTRL#OTRL</title>
<path fill="none" stroke="black" d="M202.94,-32.19C189.06,-51.51 165.52,-84.28 149.41,-106.71"/>
<polygon fill="black" stroke="black" points="146.42,-104.87 143.43,-115.04 152.11,-108.96 146.42,-104.87"/>
</g>
<!-- http://purl.org/oseg/ontologies/OTRL#Otrl -->
<g id="node18" class="node">
<title>http://purl.org/oseg/ontologies/OTRL#Otrl</title>
<ellipse fill="none" stroke="#e377c2" cx="302.24" cy="-394.64" rx="31.64" ry="16.03"/>
<text text-anchor="middle" x="302.24" y="-390.94" font-family="Times,serif" font-size="14.00">Otrl</text>
</g>
<!-- http://purl.org/oseg/ontologies/OTRL#Otrl5 -->
<g id="node20" class="node">
<title>http://purl.org/oseg/ontologies/OTRL#Otrl5</title>
<ellipse fill="none" stroke="#e377c2" cx="41.63" cy="-83.22" rx="38.37" ry="16.03"/>
<text text-anchor="middle" x="41.63" y="-79.52" font-family="Times,serif" font-size="14.00">Otrl5</text>
</g>
<!-- http://purl.org/oseg/ontologies/OTRL#Otrl5&#45;&gt;http://www.w3.org/2002/07/owl#class -->
<g id="edge11" class="edge">
<title>http://purl.org/oseg/ontologies/OTRL#Otrl5&#45;&gt;http://www.w3.org/2002/07/owl#class</title>
<path fill="none" stroke="black" d="M65.03,-96.23C93.51,-112.06 141.87,-138.95 174.82,-157.27"/>
<polygon fill="black" stroke="black" points="173.23,-160.39 183.67,-162.19 176.63,-154.27 173.23,-160.39"/>
<text text-anchor="middle" x="115.42" y="-115.55" font-family="Times,serif" font-size="14.00">a</text>
</g>
<!-- http://purl.org/oseg/ontologies/OTRL#Otrl5&#45;&gt;http://purl.org/oseg/ontologies/OTRL#OTRL -->
<g id="edge15" class="edge">
<title>http://purl.org/oseg/ontologies/OTRL#Otrl5&#45;&gt;http://purl.org/oseg/ontologies/OTRL#OTRL</title>
<path fill="none" stroke="black" d="M65.87,-95.98C75.82,-101.22 87.53,-107.38 98.3,-113.05"/>
<polygon fill="black" stroke="black" points="96.98,-116.31 107.46,-117.87 100.24,-110.12 96.98,-116.31"/>
</g>
<!-- http://purl.org/oseg/ontologies/OTRL#Odrl3 -->
<g id="node21" class="node">
<title>http://purl.org/oseg/ontologies/OTRL#Odrl3</title>
<ellipse fill="none" stroke="#e377c2" cx="416.23" cy="-227.67" rx="40.11" ry="16.03"/>
<text text-anchor="middle" x="416.23" y="-223.97" font-family="Times,serif" font-size="14.00">Odrl3</text>
</g>
<!-- http://purl.org/oseg/ontologies/OTRL#Odrl3&#45;&gt;http://purl.org/oseg/ontologies/OTRL#ODRL -->
<g id="edge9" class="edge">
<title>http://purl.org/oseg/ontologies/OTRL#Odrl3&#45;&gt;http://purl.org/oseg/ontologies/OTRL#ODRL</title>
<path fill="none" stroke="black" d="M377.11,-231.69C373.84,-232.03 370.5,-232.37 367.15,-232.72"/>
<polygon fill="black" stroke="black" points="366.76,-229.24 357.17,-233.74 367.48,-236.2 366.76,-229.24"/>
</g>
<!-- http://purl.org/oseg/ontologies/OTRL#Odrl3&#45;&gt;http://www.w3.org/2002/07/owl#class -->
<g id="edge25" class="edge">
<title>http://purl.org/oseg/ontologies/OTRL#Odrl3&#45;&gt;http://www.w3.org/2002/07/owl#class</title>
<path fill="none" stroke="black" d="M381.7,-219.16C349.27,-211.15 300.27,-199.07 262.89,-189.85"/>
<polygon fill="black" stroke="black" points="263.72,-186.45 253.17,-187.45 262.04,-193.24 263.72,-186.45"/>
<text text-anchor="middle" x="317.8" y="-208.3" font-family="Times,serif" font-size="14.00">a</text>
</g>
<!-- http://purl.org/oseg/ontologies/OTRL#Odrl4 -->
<g id="node22" class="node">
<title>http://purl.org/oseg/ontologies/OTRL#Odrl4</title>
<ellipse fill="none" stroke="#e377c2" cx="199.46" cy="-285.98" rx="40.11" ry="16.03"/>
<text text-anchor="middle" x="199.46" y="-282.28" font-family="Times,serif" font-size="14.00">Odrl4</text>
</g>
<!-- http://purl.org/oseg/ontologies/OTRL#Odrl4&#45;&gt;http://purl.org/oseg/ontologies/OTRL#ODRL -->
<g id="edge1" class="edge">
<title>http://purl.org/oseg/ontologies/OTRL#Odrl4&#45;&gt;http://purl.org/oseg/ontologies/OTRL#ODRL</title>
<path fill="none" stroke="black" d="M227.8,-274.35C242.96,-268.12 261.83,-260.37 278.28,-253.62"/>
<polygon fill="black" stroke="black" points="279.71,-256.82 287.63,-249.78 277.05,-250.34 279.71,-256.82"/>
</g>
<!-- http://purl.org/oseg/ontologies/OTRL#Odrl4&#45;&gt;http://www.w3.org/2002/07/owl#class -->
<g id="edge27" class="edge">
<title>http://purl.org/oseg/ontologies/OTRL#Odrl4&#45;&gt;http://www.w3.org/2002/07/owl#class</title>
<path fill="none" stroke="black" d="M201.05,-269.4C202.73,-251.82 205.42,-223.8 207.39,-203.18"/>
<polygon fill="black" stroke="black" points="210.88,-203.45 208.35,-193.16 203.91,-202.79 210.88,-203.45"/>
<text text-anchor="middle" x="199.72" y="-240.09" font-family="Times,serif" font-size="14.00">a</text>
</g>
</g>
</svg>
