<?xml version="1.0" encoding="UTF-8" standalone="no"?>
<!DOCTYPE svg PUBLIC "-//W3C//DTD SVG 1.1//EN"
 "http://www.w3.org/Graphics/SVG/1.1/DTD/svg11.dtd">
<!-- Generated by graphviz version 2.43.0 (0)
 -->
<!-- Title: G Pages: 1 -->
<svg width="1355pt" height="666pt"
 viewBox="0.00 0.00 1355.00 666.00" xmlns="http://www.w3.org/2000/svg" xmlns:xlink="http://www.w3.org/1999/xlink">
<g id="graph0" class="graph" transform="scale(1 1) rotate(0) translate(4 662)">
<title>G</title>
<polygon fill="white" stroke="transparent" points="-4,4 -4,-662 1351,-662 1351,4 -4,4"/>
<!-- http://purl.org/oseg/ontologies/OTRL#ODRL -->
<g id="node1" class="node">
<title>http://purl.org/oseg/ontologies/OTRL#ODRL</title>
<ellipse fill="none" stroke="#e377c2" cx="152.62" cy="-186.41" rx="41.94" ry="16.03"/>
<text text-anchor="middle" x="152.62" y="-182.71" font-family="Times,serif" font-size="14.00">ODRL</text>
</g>
<!-- http://www.w3.org/2002/07/owl#class -->
<g id="node3" class="node">
<title>http://www.w3.org/2002/07/owl#class</title>
<ellipse fill="none" stroke="#1f77b4" cx="341.03" cy="-259.61" rx="57.05" ry="16.03"/>
<text text-anchor="middle" x="341.03" y="-255.91" font-family="Times,serif" font-size="14.00">owl:class</text>
</g>
<!-- http://purl.org/oseg/ontologies/OTRL#ODRL&#45;&gt;http://www.w3.org/2002/07/owl#class -->
<g id="edge5" class="edge">
<title>http://purl.org/oseg/ontologies/OTRL#ODRL&#45;&gt;http://www.w3.org/2002/07/owl#class</title>
<path fill="none" stroke="black" d="M182.47,-198.01C213.49,-210.05 262.33,-229.03 297.61,-242.74"/>
<polygon fill="black" stroke="black" points="296.59,-246.09 307.17,-246.45 299.12,-239.57 296.59,-246.09"/>
<text text-anchor="middle" x="235.54" y="-224.17" font-family="Times,serif" font-size="14.00">a</text>
</g>
<!-- http://purl.org/oseg/ontologies/OTRL#OTRL -->
<g id="node2" class="node">
<title>http://purl.org/oseg/ontologies/OTRL#OTRL</title>
<ellipse fill="none" stroke="#e377c2" cx="628.73" cy="-374.77" rx="39.7" ry="16.03"/>
<text text-anchor="middle" x="628.73" y="-371.07" font-family="Times,serif" font-size="14.00">OTRL</text>
</g>
<!-- http://purl.org/oseg/ontologies/OTRL#OTRL&#45;&gt;http://www.w3.org/2002/07/owl#class -->
<g id="edge26" class="edge">
<title>http://purl.org/oseg/ontologies/OTRL#OTRL&#45;&gt;http://www.w3.org/2002/07/owl#class</title>
<path fill="none" stroke="black" d="M600.36,-363.41C549.73,-343.14 443.56,-300.65 383.96,-276.79"/>
<polygon fill="black" stroke="black" points="385.04,-273.45 374.46,-272.99 382.44,-279.95 385.04,-273.45"/>
<text text-anchor="middle" x="487.66" y="-323.9" font-family="Times,serif" font-size="14.00">a</text>
</g>
<!-- http://www.w3.org/2002/07/owl#DatatypeProperty -->
<g id="node4" class="node">
<title>http://www.w3.org/2002/07/owl#DatatypeProperty</title>
<ellipse fill="none" stroke="#1f77b4" cx="1224.44" cy="-540.45" rx="123.07" ry="16.03"/>
<text text-anchor="middle" x="1224.44" y="-536.75" font-family="Times,serif" font-size="14.00">owl:DatatypeProperty</text>
</g>
<!-- http://www.w3.org/2002/07/owl#Ontology -->
<g id="node5" class="node">
<title>http://www.w3.org/2002/07/owl#Ontology</title>
<ellipse fill="none" stroke="#1f77b4" cx="817.32" cy="-260.47" rx="77.56" ry="16.03"/>
<text text-anchor="middle" x="817.32" y="-256.77" font-family="Times,serif" font-size="14.00">owl:Ontology</text>
</g>
<!-- http://purl.org/oseg/ontologies/OTRL#OTRL&#45;1 -->
<g id="node6" class="node">
<title>http://purl.org/oseg/ontologies/OTRL#OTRL&#45;1</title>
<ellipse fill="none" stroke="#e377c2" cx="596.09" cy="-241.4" rx="49.49" ry="16.03"/>
<text text-anchor="middle" x="596.09" y="-237.7" font-family="Times,serif" font-size="14.00">OTRL&#45;1</text>
</g>
<!-- http://purl.org/oseg/ontologies/OTRL#OTRL&#45;1&#45;&gt;http://purl.org/oseg/ontologies/OTRL#OTRL -->
<g id="edge28" class="edge">
<title>http://purl.org/oseg/ontologies/OTRL#OTRL&#45;1&#45;&gt;http://purl.org/oseg/ontologies/OTRL#OTRL</title>
<path fill="none" stroke="black" d="M600.1,-257.75C605.63,-280.35 615.67,-321.38 622.27,-348.36"/>
<polygon fill="black" stroke="black" points="618.92,-349.4 624.69,-358.28 625.72,-347.73 618.92,-349.4"/>
</g>
<!-- http://purl.org/oseg/ontologies/OTRL#OTRL&#45;1&#45;&gt;http://www.w3.org/2002/07/owl#class -->
<g id="edge1" class="edge">
<title>http://purl.org/oseg/ontologies/OTRL#OTRL&#45;1&#45;&gt;http://www.w3.org/2002/07/owl#class</title>
<path fill="none" stroke="black" d="M547.52,-244.87C507.69,-247.71 450.93,-251.76 406.99,-254.9"/>
<polygon fill="black" stroke="black" points="406.7,-251.41 396.97,-255.61 407.2,-258.39 406.7,-251.41"/>
<text text-anchor="middle" x="472.75" y="-253.68" font-family="Times,serif" font-size="14.00">a</text>
</g>
<!-- http://purl.org/oseg/ontologies/OTRL#OTRL&#45;2 -->
<g id="node7" class="node">
<title>http://purl.org/oseg/ontologies/OTRL#OTRL&#45;2</title>
<ellipse fill="none" stroke="#e377c2" cx="498.62" cy="-176.62" rx="49.49" ry="16.03"/>
<text text-anchor="middle" x="498.62" y="-172.92" font-family="Times,serif" font-size="14.00">OTRL&#45;2</text>
</g>
<!-- http://purl.org/oseg/ontologies/OTRL#OTRL&#45;2&#45;&gt;http://purl.org/oseg/ontologies/OTRL#OTRL -->
<g id="edge31" class="edge">
<title>http://purl.org/oseg/ontologies/OTRL#OTRL&#45;2&#45;&gt;http://purl.org/oseg/ontologies/OTRL#OTRL</title>
<path fill="none" stroke="black" d="M509.26,-192.84C532.06,-227.55 585.7,-309.24 612.66,-350.3"/>
<polygon fill="black" stroke="black" points="609.88,-352.44 618.3,-358.88 615.73,-348.6 609.88,-352.44"/>
</g>
<!-- http://purl.org/oseg/ontologies/OTRL#OTRL&#45;2&#45;&gt;http://www.w3.org/2002/07/owl#class -->
<g id="edge2" class="edge">
<title>http://purl.org/oseg/ontologies/OTRL#OTRL&#45;2&#45;&gt;http://www.w3.org/2002/07/owl#class</title>
<path fill="none" stroke="black" d="M472.24,-190.51C446.23,-204.21 406.27,-225.25 377.28,-240.52"/>
<polygon fill="black" stroke="black" points="375.5,-237.5 368.28,-245.25 378.76,-243.69 375.5,-237.5"/>
<text text-anchor="middle" x="420.26" y="-219.31" font-family="Times,serif" font-size="14.00">a</text>
</g>
<!-- http://purl.org/oseg/ontologies/OTRL#ODRL&#45;1 -->
<g id="node8" class="node">
<title>http://purl.org/oseg/ontologies/OTRL#ODRL&#45;1</title>
<ellipse fill="none" stroke="#e377c2" cx="50.88" cy="-221.97" rx="50.82" ry="16.03"/>
<text text-anchor="middle" x="50.88" y="-218.27" font-family="Times,serif" font-size="14.00">ODRL&#45;1</text>
</g>
<!-- http://purl.org/oseg/ontologies/OTRL#ODRL&#45;1&#45;&gt;http://purl.org/oseg/ontologies/OTRL#ODRL -->
<g id="edge38" class="edge">
<title>http://purl.org/oseg/ontologies/OTRL#ODRL&#45;1&#45;&gt;http://purl.org/oseg/ontologies/OTRL#ODRL</title>
<path fill="none" stroke="black" d="M85.32,-209.93C93.78,-206.97 102.92,-203.78 111.66,-200.72"/>
<polygon fill="black" stroke="black" points="113,-203.96 121.29,-197.36 110.69,-197.35 113,-203.96"/>
</g>
<!-- http://purl.org/oseg/ontologies/OTRL#ODRL&#45;1&#45;&gt;http://www.w3.org/2002/07/owl#class -->
<g id="edge3" class="edge">
<title>http://purl.org/oseg/ontologies/OTRL#ODRL&#45;1&#45;&gt;http://www.w3.org/2002/07/owl#class</title>
<path fill="none" stroke="black" d="M98.14,-228.1C147.32,-234.48 224.57,-244.5 278.71,-251.52"/>
<polygon fill="black" stroke="black" points="278.51,-255.03 288.88,-252.84 279.41,-248.08 278.51,-255.03"/>
<text text-anchor="middle" x="183.93" y="-243.61" font-family="Times,serif" font-size="14.00">a</text>
</g>
<!-- http://purl.org/oseg/ontologies/OTRL#OTRL&#45;3 -->
<g id="node9" class="node">
<title>http://purl.org/oseg/ontologies/OTRL#OTRL&#45;3</title>
<ellipse fill="none" stroke="#e377c2" cx="551.59" cy="-124.92" rx="49.49" ry="16.03"/>
<text text-anchor="middle" x="551.59" y="-121.22" font-family="Times,serif" font-size="14.00">OTRL&#45;3</text>
</g>
<!-- http://purl.org/oseg/ontologies/OTRL#OTRL&#45;3&#45;&gt;http://purl.org/oseg/ontologies/OTRL#OTRL -->
<g id="edge11" class="edge">
<title>http://purl.org/oseg/ontologies/OTRL#OTRL&#45;3&#45;&gt;http://purl.org/oseg/ontologies/OTRL#OTRL</title>
<path fill="none" stroke="black" d="M556.66,-141.31C569.73,-183.66 604.72,-297.01 620.64,-348.58"/>
<polygon fill="black" stroke="black" points="617.35,-349.79 623.65,-358.31 624.04,-347.73 617.35,-349.79"/>
</g>
<!-- http://purl.org/oseg/ontologies/OTRL#OTRL&#45;3&#45;&gt;http://www.w3.org/2002/07/owl#class -->
<g id="edge23" class="edge">
<title>http://purl.org/oseg/ontologies/OTRL#OTRL&#45;3&#45;&gt;http://www.w3.org/2002/07/owl#class</title>
<path fill="none" stroke="black" d="M528.66,-139.59C491.04,-163.65 416.14,-211.56 373.22,-239.01"/>
<polygon fill="black" stroke="black" points="371.11,-236.21 364.58,-244.54 374.89,-242.1 371.11,-236.21"/>
<text text-anchor="middle" x="446.44" y="-193.1" font-family="Times,serif" font-size="14.00">a</text>
</g>
<!-- http://purl.org/oseg/ontologies/OTRL#OTRL&#45;5 -->
<g id="node10" class="node">
<title>http://purl.org/oseg/ontologies/OTRL#OTRL&#45;5</title>
<ellipse fill="none" stroke="#e377c2" cx="482.91" cy="-314.79" rx="49.49" ry="16.03"/>
<text text-anchor="middle" x="482.91" y="-311.09" font-family="Times,serif" font-size="14.00">OTRL&#45;5</text>
</g>
<!-- http://purl.org/oseg/ontologies/OTRL#OTRL&#45;5&#45;&gt;http://purl.org/oseg/ontologies/OTRL#OTRL -->
<g id="edge33" class="edge">
<title>http://purl.org/oseg/ontologies/OTRL#OTRL&#45;5&#45;&gt;http://purl.org/oseg/ontologies/OTRL#OTRL</title>
<path fill="none" stroke="black" d="M513.83,-327.51C536.32,-336.76 566.88,-349.33 590.84,-359.18"/>
<polygon fill="black" stroke="black" points="589.74,-362.52 600.32,-363.08 592.4,-356.04 589.74,-362.52"/>
</g>
<!-- http://purl.org/oseg/ontologies/OTRL#OTRL&#45;5&#45;&gt;http://www.w3.org/2002/07/owl#class -->
<g id="edge4" class="edge">
<title>http://purl.org/oseg/ontologies/OTRL#OTRL&#45;5&#45;&gt;http://www.w3.org/2002/07/owl#class</title>
<path fill="none" stroke="black" d="M450.71,-302.27C431.15,-294.66 405.9,-284.84 384.57,-276.54"/>
<polygon fill="black" stroke="black" points="385.66,-273.21 375.07,-272.85 383.12,-279.73 385.66,-273.21"/>
<text text-anchor="middle" x="413.14" y="-293.2" font-family="Times,serif" font-size="14.00">a</text>
</g>
<!-- http://purl.org/oseg/ontologies/OTRL#ODRL&#45;5 -->
<g id="node11" class="node">
<title>http://purl.org/oseg/ontologies/OTRL#ODRL&#45;5</title>
<ellipse fill="none" stroke="#e377c2" cx="100.3" cy="-90.57" rx="50.82" ry="16.03"/>
<text text-anchor="middle" x="100.3" y="-86.87" font-family="Times,serif" font-size="14.00">ODRL&#45;5</text>
</g>
<!-- http://purl.org/oseg/ontologies/OTRL#ODRL&#45;5&#45;&gt;http://purl.org/oseg/ontologies/OTRL#ODRL -->
<g id="edge22" class="edge">
<title>http://purl.org/oseg/ontologies/OTRL#ODRL&#45;5&#45;&gt;http://purl.org/oseg/ontologies/OTRL#ODRL</title>
<path fill="none" stroke="black" d="M109.18,-106.83C117.34,-121.79 129.58,-144.2 138.98,-161.43"/>
<polygon fill="black" stroke="black" points="136.01,-163.29 143.88,-170.39 142.16,-159.93 136.01,-163.29"/>
</g>
<!-- http://purl.org/oseg/ontologies/OTRL#ODRL&#45;5&#45;&gt;http://www.w3.org/2002/07/owl#class -->
<g id="edge6" class="edge">
<title>http://purl.org/oseg/ontologies/OTRL#ODRL&#45;5&#45;&gt;http://www.w3.org/2002/07/owl#class</title>
<path fill="none" stroke="black" d="M121.66,-105.57C164.65,-135.75 261.69,-203.89 311.02,-238.53"/>
<polygon fill="black" stroke="black" points="309.17,-241.51 319.37,-244.4 313.19,-235.78 309.17,-241.51"/>
<text text-anchor="middle" x="211.84" y="-175.85" font-family="Times,serif" font-size="14.00">a</text>
</g>
<!-- http://purl.org/oseg/ontologies/OTRL -->
<g id="node12" class="node">
<title>http://purl.org/oseg/ontologies/OTRL</title>
<ellipse fill="none" stroke="#e377c2" cx="964.95" cy="-238.42" rx="60.62" ry="16.03"/>
<text text-anchor="middle" x="964.95" y="-234.72" font-family="Times,serif" font-size="14.00">ns1:OTRL</text>
</g>
<!-- http://purl.org/oseg/ontologies/OTRL&#45;&gt;http://www.w3.org/2002/07/owl#Ontology -->
<g id="edge27" class="edge">
<title>http://purl.org/oseg/ontologies/OTRL&#45;&gt;http://www.w3.org/2002/07/owl#Ontology</title>
<path fill="none" stroke="black" d="M911.65,-246.38C904.94,-247.38 897.98,-248.42 891.02,-249.46"/>
<polygon fill="black" stroke="black" points="890.22,-246.04 880.85,-250.98 891.26,-252.96 890.22,-246.04"/>
<text text-anchor="middle" x="899.08" y="-236.72" font-family="Times,serif" font-size="14.00">a</text>
</g>
<!-- http://purl.org/oseg/ontologies/OTRL&#45;&gt;http://purl.org/oseg/ontologies/OTRL -->
<g id="edge7" class="edge">
<title>http://purl.org/oseg/ontologies/OTRL&#45;&gt;http://purl.org/oseg/ontologies/OTRL</title>
<path fill="none" stroke="black" d="M1020.55,-245.05C1033.89,-244.53 1043.76,-242.32 1043.76,-238.42 1043.76,-235.58 1038.55,-233.64 1030.58,-232.59"/>
<polygon fill="black" stroke="black" points="1030.8,-229.1 1020.55,-231.78 1030.24,-236.07 1030.8,-229.1"/>
<text text-anchor="middle" x="1095.26" y="-234.72" font-family="Times,serif" font-size="14.00">owl:versionIRI</text>
</g>
<!-- http://purl.org/oseg/ontologies/OTRL#hardwareDescription -->
<g id="node13" class="node">
<title>http://purl.org/oseg/ontologies/OTRL#hardwareDescription</title>
<ellipse fill="none" stroke="#e377c2" cx="973.41" cy="-340.69" rx="118.17" ry="16.03"/>
<text text-anchor="middle" x="973.41" y="-336.99" font-family="Times,serif" font-size="14.00">hardwareDescription</text>
</g>
<!-- http://purl.org/oseg/ontologies/OTRL#hardwareDescription&#45;&gt;http://purl.org/oseg/ontologies/OTRL#OTRL -->
<g id="edge8" class="edge">
<title>http://purl.org/oseg/ontologies/OTRL#hardwareDescription&#45;&gt;http://purl.org/oseg/ontologies/OTRL#OTRL</title>
<path fill="none" stroke="black" d="M877.4,-350.18C812.55,-356.59 729.62,-364.79 677.83,-369.91"/>
<polygon fill="black" stroke="black" points="677.2,-366.46 667.59,-370.93 677.88,-373.42 677.2,-366.46"/>
<text text-anchor="middle" x="751.12" y="-363.85" font-family="Times,serif" font-size="14.00">domain</text>
</g>
<!-- http://purl.org/oseg/ontologies/OTRL#hardwareDescription&#45;&gt;http://www.w3.org/2002/07/owl#DatatypeProperty -->
<g id="edge24" class="edge">
<title>http://purl.org/oseg/ontologies/OTRL#hardwareDescription&#45;&gt;http://www.w3.org/2002/07/owl#DatatypeProperty</title>
<path fill="none" stroke="black" d="M993.96,-357.04C1038.66,-392.61 1144.83,-477.1 1195.96,-517.79"/>
<polygon fill="black" stroke="black" points="1193.97,-520.67 1203.97,-524.16 1198.32,-515.19 1193.97,-520.67"/>
<text text-anchor="middle" x="1090.46" y="-441.21" font-family="Times,serif" font-size="14.00">a</text>
</g>
<!-- http://schema.org/Text -->
<g id="node16" class="node">
<title>http://schema.org/Text</title>
<ellipse fill="none" stroke="#e377c2" cx="1132.6" cy="-606.59" rx="74.91" ry="16.03"/>
<text text-anchor="middle" x="1132.6" y="-602.89" font-family="Times,serif" font-size="14.00">schema:Text</text>
</g>
<!-- http://purl.org/oseg/ontologies/OTRL#hardwareDescription&#45;&gt;http://schema.org/Text -->
<g id="edge30" class="edge">
<title>http://purl.org/oseg/ontologies/OTRL#hardwareDescription&#45;&gt;http://schema.org/Text</title>
<path fill="none" stroke="black" d="M983.13,-356.92C1010,-401.8 1085.41,-527.75 1117.66,-581.63"/>
<polygon fill="black" stroke="black" points="1114.67,-583.45 1122.81,-590.23 1120.67,-579.85 1114.67,-583.45"/>
<text text-anchor="middle" x="1029.4" y="-473.08" font-family="Times,serif" font-size="14.00">range</text>
</g>
<!-- http://purl.org/oseg/ontologies/OTRL#OTRL&#45;9 -->
<g id="node14" class="node">
<title>http://purl.org/oseg/ontologies/OTRL#OTRL&#45;9</title>
<ellipse fill="none" stroke="#e377c2" cx="504.49" cy="-436.83" rx="49.49" ry="16.03"/>
<text text-anchor="middle" x="504.49" y="-433.13" font-family="Times,serif" font-size="14.00">OTRL&#45;9</text>
</g>
<!-- http://purl.org/oseg/ontologies/OTRL#OTRL&#45;9&#45;&gt;http://purl.org/oseg/ontologies/OTRL#OTRL -->
<g id="edge14" class="edge">
<title>http://purl.org/oseg/ontologies/OTRL#OTRL&#45;9&#45;&gt;http://purl.org/oseg/ontologies/OTRL#OTRL</title>
<path fill="none" stroke="black" d="M531.76,-423.21C550.13,-414.03 574.52,-401.85 594.25,-391.99"/>
<polygon fill="black" stroke="black" points="595.84,-395.11 603.22,-387.51 592.71,-388.85 595.84,-395.11"/>
</g>
<!-- http://purl.org/oseg/ontologies/OTRL#OTRL&#45;9&#45;&gt;http://www.w3.org/2002/07/owl#class -->
<g id="edge25" class="edge">
<title>http://purl.org/oseg/ontologies/OTRL#OTRL&#45;9&#45;&gt;http://www.w3.org/2002/07/owl#class</title>
<path fill="none" stroke="black" d="M489.99,-421.1C461.22,-389.92 396.8,-320.08 362.88,-283.3"/>
<polygon fill="black" stroke="black" points="365.09,-280.53 355.74,-275.55 359.94,-285.28 365.09,-280.53"/>
<text text-anchor="middle" x="421.93" y="-356" font-family="Times,serif" font-size="14.00">a</text>
</g>
<!-- http://purl.org/oseg/ontologies/OTRL#OTRL&#45;4 -->
<g id="node15" class="node">
<title>http://purl.org/oseg/ontologies/OTRL#OTRL&#45;4</title>
<ellipse fill="none" stroke="#e377c2" cx="619.52" cy="-168.81" rx="49.49" ry="16.03"/>
<text text-anchor="middle" x="619.52" y="-165.11" font-family="Times,serif" font-size="14.00">OTRL&#45;4</text>
</g>
<!-- http://purl.org/oseg/ontologies/OTRL#OTRL&#45;4&#45;&gt;http://purl.org/oseg/ontologies/OTRL#OTRL -->
<g id="edge15" class="edge">
<title>http://purl.org/oseg/ontologies/OTRL#OTRL&#45;4&#45;&gt;http://purl.org/oseg/ontologies/OTRL#OTRL</title>
<path fill="none" stroke="black" d="M620.25,-185.32C621.85,-220.96 625.62,-305.36 627.55,-348.46"/>
<polygon fill="black" stroke="black" points="624.06,-348.63 628,-358.47 631.05,-348.32 624.06,-348.63"/>
</g>
<!-- http://purl.org/oseg/ontologies/OTRL#OTRL&#45;4&#45;&gt;http://www.w3.org/2002/07/owl#class -->
<g id="edge29" class="edge">
<title>http://purl.org/oseg/ontologies/OTRL#OTRL&#45;4&#45;&gt;http://www.w3.org/2002/07/owl#class</title>
<path fill="none" stroke="black" d="M584.24,-180.31C534.54,-196.52 443.76,-226.11 388.27,-244.2"/>
<polygon fill="black" stroke="black" points="387.1,-240.9 378.68,-247.33 389.27,-247.56 387.1,-240.9"/>
<text text-anchor="middle" x="481.76" y="-216.06" font-family="Times,serif" font-size="14.00">a</text>
</g>
<!-- http://purl.org/oseg/ontologies/OTRL#documentationDescription -->
<g id="node17" class="node">
<title>http://purl.org/oseg/ontologies/OTRL#documentationDescription</title>
<ellipse fill="none" stroke="#e377c2" cx="860.74" cy="-641.51" rx="120.83" ry="16.03"/>
<text text-anchor="middle" x="860.74" y="-637.81" font-family="Times,serif" font-size="14.00">documentationDesc...</text>
</g>
<!-- http://purl.org/oseg/ontologies/OTRL#documentationDescription&#45;&gt;http://purl.org/oseg/ontologies/OTRL#OTRL -->
<g id="edge32" class="edge">
<title>http://purl.org/oseg/ontologies/OTRL#documentationDescription&#45;&gt;http://purl.org/oseg/ontologies/OTRL#OTRL</title>
<path fill="none" stroke="black" d="M846.57,-625.23C806.98,-579.7 695.02,-450.99 648.94,-398"/>
<polygon fill="black" stroke="black" points="651.33,-395.42 642.13,-390.17 646.05,-400.01 651.33,-395.42"/>
<text text-anchor="middle" x="721.25" y="-515.41" font-family="Times,serif" font-size="14.00">domain</text>
</g>
<!-- http://purl.org/oseg/ontologies/OTRL#documentationDescription&#45;&gt;http://www.w3.org/2002/07/owl#DatatypeProperty -->
<g id="edge10" class="edge">
<title>http://purl.org/oseg/ontologies/OTRL#documentationDescription&#45;&gt;http://www.w3.org/2002/07/owl#DatatypeProperty</title>
<path fill="none" stroke="black" d="M913.62,-626.81C979.35,-608.55 1091.37,-577.42 1161.47,-557.95"/>
<polygon fill="black" stroke="black" points="1162.8,-561.21 1171.49,-555.16 1160.92,-554.47 1162.8,-561.21"/>
<text text-anchor="middle" x="1033.05" y="-596.18" font-family="Times,serif" font-size="14.00">a</text>
</g>
<!-- http://purl.org/oseg/ontologies/OTRL#documentationDescription&#45;&gt;http://schema.org/Text -->
<g id="edge34" class="edge">
<title>http://purl.org/oseg/ontologies/OTRL#documentationDescription&#45;&gt;http://schema.org/Text</title>
<path fill="none" stroke="black" d="M948.25,-630.27C983.56,-625.73 1023.88,-620.55 1057.79,-616.2"/>
<polygon fill="black" stroke="black" points="1058.63,-619.62 1068.1,-614.87 1057.74,-612.67 1058.63,-619.62"/>
<text text-anchor="middle" x="982.02" y="-612.03" font-family="Times,serif" font-size="14.00">range</text>
</g>
<!-- http://purl.org/oseg/ontologies/OTRL#ODRL&#45;4 -->
<g id="node18" class="node">
<title>http://purl.org/oseg/ontologies/OTRL#ODRL&#45;4</title>
<ellipse fill="none" stroke="#e377c2" cx="168.85" cy="-26.14" rx="50.82" ry="16.03"/>
<text text-anchor="middle" x="168.85" y="-22.44" font-family="Times,serif" font-size="14.00">ODRL&#45;4</text>
</g>
<!-- http://purl.org/oseg/ontologies/OTRL#ODRL&#45;4&#45;&gt;http://purl.org/oseg/ontologies/OTRL#ODRL -->
<g id="edge42" class="edge">
<title>http://purl.org/oseg/ontologies/OTRL#ODRL&#45;4&#45;&gt;http://purl.org/oseg/ontologies/OTRL#ODRL</title>
<path fill="none" stroke="black" d="M167.17,-42.69C164.37,-70.4 158.69,-126.43 155.32,-159.75"/>
<polygon fill="black" stroke="black" points="151.84,-159.41 154.31,-169.71 158.8,-160.11 151.84,-159.41"/>
</g>
<!-- http://purl.org/oseg/ontologies/OTRL#ODRL&#45;4&#45;&gt;http://www.w3.org/2002/07/owl#class -->
<g id="edge9" class="edge">
<title>http://purl.org/oseg/ontologies/OTRL#ODRL&#45;4&#45;&gt;http://www.w3.org/2002/07/owl#class</title>
<path fill="none" stroke="black" d="M180.68,-42.19C210.29,-82.34 287.73,-187.35 323.03,-235.2"/>
<polygon fill="black" stroke="black" points="320.36,-237.48 329.11,-243.45 325.99,-233.32 320.36,-237.48"/>
<text text-anchor="middle" x="247.36" y="-142.5" font-family="Times,serif" font-size="14.00">a</text>
</g>
<!-- http://purl.org/oseg/ontologies/OTRL#exitCriteria -->
<g id="node19" class="node">
<title>http://purl.org/oseg/ontologies/OTRL#exitCriteria</title>
<ellipse fill="none" stroke="#e377c2" cx="917.76" cy="-447.41" rx="70.01" ry="16.03"/>
<text text-anchor="middle" x="917.76" y="-443.71" font-family="Times,serif" font-size="14.00">exitCriteria</text>
</g>
<!-- http://purl.org/oseg/ontologies/OTRL#exitCriteria&#45;&gt;http://purl.org/oseg/ontologies/OTRL#OTRL -->
<g id="edge16" class="edge">
<title>http://purl.org/oseg/ontologies/OTRL#exitCriteria&#45;&gt;http://purl.org/oseg/ontologies/OTRL#OTRL</title>
<path fill="none" stroke="black" d="M870.03,-435.41C815.05,-421.59 725.48,-399.08 672.31,-385.72"/>
<polygon fill="black" stroke="black" points="673.06,-382.3 662.51,-383.26 671.35,-389.09 673.06,-382.3"/>
<text text-anchor="middle" x="744.67" y="-414.37" font-family="Times,serif" font-size="14.00">domain</text>
</g>
<!-- http://purl.org/oseg/ontologies/OTRL#exitCriteria&#45;&gt;http://www.w3.org/2002/07/owl#DatatypeProperty -->
<g id="edge36" class="edge">
<title>http://purl.org/oseg/ontologies/OTRL#exitCriteria&#45;&gt;http://www.w3.org/2002/07/owl#DatatypeProperty</title>
<path fill="none" stroke="black" d="M960.4,-460.34C1013.72,-476.52 1105.28,-504.3 1165.34,-522.52"/>
<polygon fill="black" stroke="black" points="1164.48,-525.91 1175.06,-525.47 1166.51,-519.22 1164.48,-525.91"/>
<text text-anchor="middle" x="1058.37" y="-495.23" font-family="Times,serif" font-size="14.00">a</text>
</g>
<!-- http://purl.org/oseg/ontologies/OTRL#exitCriteria&#45;&gt;http://schema.org/Text -->
<g id="edge46" class="edge">
<title>http://purl.org/oseg/ontologies/OTRL#exitCriteria&#45;&gt;http://schema.org/Text</title>
<path fill="none" stroke="black" d="M938.75,-462.96C977.25,-491.49 1059.26,-552.24 1103.26,-584.84"/>
<polygon fill="black" stroke="black" points="1101.41,-587.83 1111.52,-590.97 1105.57,-582.2 1101.41,-587.83"/>
<text text-anchor="middle" x="1000" y="-512.7" font-family="Times,serif" font-size="14.00">range</text>
</g>
<!-- http://purl.org/oseg/ontologies/OTRL#ODRL&#45;0 -->
<g id="node20" class="node">
<title>http://purl.org/oseg/ontologies/OTRL#ODRL&#45;0</title>
<ellipse fill="none" stroke="#e377c2" cx="122.58" cy="-387.04" rx="50.82" ry="16.03"/>
<text text-anchor="middle" x="122.58" y="-383.34" font-family="Times,serif" font-size="14.00">ODRL&#45;0</text>
</g>
<!-- http://purl.org/oseg/ontologies/OTRL#ODRL&#45;0&#45;&gt;http://purl.org/oseg/ontologies/OTRL#ODRL -->
<g id="edge43" class="edge">
<title>http://purl.org/oseg/ontologies/OTRL#ODRL&#45;0&#45;&gt;http://purl.org/oseg/ontologies/OTRL#ODRL</title>
<path fill="none" stroke="black" d="M125.04,-370.62C130.23,-335.93 142.37,-254.89 148.67,-212.82"/>
<polygon fill="black" stroke="black" points="152.15,-213.18 150.17,-202.77 145.23,-212.14 152.15,-213.18"/>
</g>
<!-- http://purl.org/oseg/ontologies/OTRL#ODRL&#45;0&#45;&gt;http://www.w3.org/2002/07/owl#class -->
<g id="edge17" class="edge">
<title>http://purl.org/oseg/ontologies/OTRL#ODRL&#45;0&#45;&gt;http://www.w3.org/2002/07/owl#class</title>
<path fill="none" stroke="black" d="M147.21,-372.67C186.36,-349.83 262.86,-305.21 307.14,-279.37"/>
<polygon fill="black" stroke="black" points="308.94,-282.38 315.81,-274.32 305.41,-276.33 308.94,-282.38"/>
<text text-anchor="middle" x="222.68" y="-329.82" font-family="Times,serif" font-size="14.00">a</text>
</g>
<!-- http://purl.org/oseg/ontologies/OTRL#ODRL&#45;2 -->
<g id="node21" class="node">
<title>http://purl.org/oseg/ontologies/OTRL#ODRL&#45;2</title>
<ellipse fill="none" stroke="#e377c2" cx="66.12" cy="-322.46" rx="50.82" ry="16.03"/>
<text text-anchor="middle" x="66.12" y="-318.76" font-family="Times,serif" font-size="14.00">ODRL&#45;2</text>
</g>
<!-- http://purl.org/oseg/ontologies/OTRL#ODRL&#45;2&#45;&gt;http://purl.org/oseg/ontologies/OTRL#ODRL -->
<g id="edge13" class="edge">
<title>http://purl.org/oseg/ontologies/OTRL#ODRL&#45;2&#45;&gt;http://purl.org/oseg/ontologies/OTRL#ODRL</title>
<path fill="none" stroke="black" d="M76.38,-306.32C91.34,-282.8 119.25,-238.89 136.84,-211.23"/>
<polygon fill="black" stroke="black" points="139.96,-212.84 142.37,-202.53 134.05,-209.09 139.96,-212.84"/>
</g>
<!-- http://purl.org/oseg/ontologies/OTRL#ODRL&#45;2&#45;&gt;http://www.w3.org/2002/07/owl#class -->
<g id="edge37" class="edge">
<title>http://purl.org/oseg/ontologies/OTRL#ODRL&#45;2&#45;&gt;http://www.w3.org/2002/07/owl#class</title>
<path fill="none" stroke="black" d="M107.57,-312.98C155.2,-302.09 233.55,-284.18 286.19,-272.14"/>
<polygon fill="black" stroke="black" points="287.06,-275.53 296.03,-269.89 285.5,-268.71 287.06,-275.53"/>
<text text-anchor="middle" x="192.38" y="-296.36" font-family="Times,serif" font-size="14.00">a</text>
</g>
<!-- http://purl.org/oseg/ontologies/OTRL#OTRL&#45;6 -->
<g id="node22" class="node">
<title>http://purl.org/oseg/ontologies/OTRL#OTRL&#45;6</title>
<ellipse fill="none" stroke="#e377c2" cx="503.55" cy="-512.85" rx="49.49" ry="16.03"/>
<text text-anchor="middle" x="503.55" y="-509.15" font-family="Times,serif" font-size="14.00">OTRL&#45;6</text>
</g>
<!-- http://purl.org/oseg/ontologies/OTRL#OTRL&#45;6&#45;&gt;http://purl.org/oseg/ontologies/OTRL#OTRL -->
<g id="edge41" class="edge">
<title>http://purl.org/oseg/ontologies/OTRL#OTRL&#45;6&#45;&gt;http://purl.org/oseg/ontologies/OTRL#OTRL</title>
<path fill="none" stroke="black" d="M517.91,-497.01C539.89,-472.77 581.99,-426.32 607.5,-398.18"/>
<polygon fill="black" stroke="black" points="610.41,-400.18 614.54,-390.42 605.23,-395.48 610.41,-400.18"/>
</g>
<!-- http://purl.org/oseg/ontologies/OTRL#OTRL&#45;6&#45;&gt;http://www.w3.org/2002/07/owl#class -->
<g id="edge18" class="edge">
<title>http://purl.org/oseg/ontologies/OTRL#OTRL&#45;6&#45;&gt;http://www.w3.org/2002/07/owl#class</title>
<path fill="none" stroke="black" d="M493.14,-496.63C465.45,-453.48 389.85,-335.69 356.82,-284.22"/>
<polygon fill="black" stroke="black" points="359.7,-282.22 351.35,-275.7 353.81,-286 359.7,-282.22"/>
<text text-anchor="middle" x="420.48" y="-394.22" font-family="Times,serif" font-size="14.00">a</text>
</g>
<!-- http://purl.org/oseg/ontologies/OTRL#OTRL&#45;8 -->
<g id="node23" class="node">
<title>http://purl.org/oseg/ontologies/OTRL#OTRL&#45;8</title>
<ellipse fill="none" stroke="#e377c2" cx="396.5" cy="-506.07" rx="49.49" ry="16.03"/>
<text text-anchor="middle" x="396.5" y="-502.37" font-family="Times,serif" font-size="14.00">OTRL&#45;8</text>
</g>
<!-- http://purl.org/oseg/ontologies/OTRL#OTRL&#45;8&#45;&gt;http://purl.org/oseg/ontologies/OTRL#OTRL -->
<g id="edge12" class="edge">
<title>http://purl.org/oseg/ontologies/OTRL#OTRL&#45;8&#45;&gt;http://purl.org/oseg/ontologies/OTRL#OTRL</title>
<path fill="none" stroke="black" d="M421.8,-491.77C464.23,-467.78 549.67,-419.47 596.4,-393.05"/>
<polygon fill="black" stroke="black" points="598.22,-396.04 605.2,-388.07 594.78,-389.94 598.22,-396.04"/>
</g>
<!-- http://purl.org/oseg/ontologies/OTRL#OTRL&#45;8&#45;&gt;http://www.w3.org/2002/07/owl#class -->
<g id="edge19" class="edge">
<title>http://purl.org/oseg/ontologies/OTRL#OTRL&#45;8&#45;&gt;http://www.w3.org/2002/07/owl#class</title>
<path fill="none" stroke="black" d="M392.78,-489.51C383.34,-447.6 358.44,-336.98 346.97,-286.01"/>
<polygon fill="black" stroke="black" points="350.35,-285.07 344.74,-276.09 343.52,-286.61 350.35,-285.07"/>
<text text-anchor="middle" x="365.37" y="-391.56" font-family="Times,serif" font-size="14.00">a</text>
</g>
<!-- http://purl.org/oseg/ontologies/OTRL#ODRL&#45;3 -->
<g id="node24" class="node">
<title>http://purl.org/oseg/ontologies/OTRL#ODRL&#45;3</title>
<ellipse fill="none" stroke="#e377c2" cx="286.25" cy="-16.07" rx="50.82" ry="16.03"/>
<text text-anchor="middle" x="286.25" y="-12.37" font-family="Times,serif" font-size="14.00">ODRL&#45;3</text>
</g>
<!-- http://purl.org/oseg/ontologies/OTRL#ODRL&#45;3&#45;&gt;http://purl.org/oseg/ontologies/OTRL#ODRL -->
<g id="edge40" class="edge">
<title>http://purl.org/oseg/ontologies/OTRL#ODRL&#45;3&#45;&gt;http://purl.org/oseg/ontologies/OTRL#ODRL</title>
<path fill="none" stroke="black" d="M273.68,-32.1C250.08,-62.18 199.04,-127.24 171.37,-162.51"/>
<polygon fill="black" stroke="black" points="168.29,-160.77 164.87,-170.8 173.79,-165.09 168.29,-160.77"/>
</g>
<!-- http://purl.org/oseg/ontologies/OTRL#ODRL&#45;3&#45;&gt;http://www.w3.org/2002/07/owl#class -->
<g id="edge39" class="edge">
<title>http://purl.org/oseg/ontologies/OTRL#ODRL&#45;3&#45;&gt;http://www.w3.org/2002/07/owl#class</title>
<path fill="none" stroke="black" d="M289.93,-32.43C299.24,-73.85 323.83,-183.15 335.16,-233.51"/>
<polygon fill="black" stroke="black" points="331.75,-234.33 337.36,-243.32 338.58,-232.8 331.75,-234.33"/>
<text text-anchor="middle" x="308.04" y="-136.77" font-family="Times,serif" font-size="14.00">a</text>
</g>
<!-- http://purl.org/oseg/ontologies/OTRL#OTRL&#45;7 -->
<g id="node25" class="node">
<title>http://purl.org/oseg/ontologies/OTRL#OTRL&#45;7</title>
<ellipse fill="none" stroke="#e377c2" cx="392.99" cy="-433.61" rx="49.49" ry="16.03"/>
<text text-anchor="middle" x="392.99" y="-429.91" font-family="Times,serif" font-size="14.00">OTRL&#45;7</text>
</g>
<!-- http://purl.org/oseg/ontologies/OTRL#OTRL&#45;7&#45;&gt;http://purl.org/oseg/ontologies/OTRL#OTRL -->
<g id="edge45" class="edge">
<title>http://purl.org/oseg/ontologies/OTRL#OTRL&#45;7&#45;&gt;http://purl.org/oseg/ontologies/OTRL#OTRL</title>
<path fill="none" stroke="black" d="M432.45,-423.76C474.64,-413.23 541.37,-396.57 585.11,-385.66"/>
<polygon fill="black" stroke="black" points="586.03,-389.03 594.88,-383.22 584.33,-382.24 586.03,-389.03"/>
</g>
<!-- http://purl.org/oseg/ontologies/OTRL#OTRL&#45;7&#45;&gt;http://www.w3.org/2002/07/owl#class -->
<g id="edge20" class="edge">
<title>http://purl.org/oseg/ontologies/OTRL#OTRL&#45;7&#45;&gt;http://www.w3.org/2002/07/owl#class</title>
<path fill="none" stroke="black" d="M388.1,-417.24C379.09,-387.06 359.78,-322.39 348.9,-285.96"/>
<polygon fill="black" stroke="black" points="352.16,-284.64 345.94,-276.06 345.45,-286.64 352.16,-284.64"/>
<text text-anchor="middle" x="364" y="-355.4" font-family="Times,serif" font-size="14.00">a</text>
</g>
<!-- http://purl.org/oseg/ontologies/OTRL#softwareDescription -->
<g id="node26" class="node">
<title>http://purl.org/oseg/ontologies/OTRL#softwareDescription</title>
<ellipse fill="none" stroke="#e377c2" cx="896.51" cy="-550.52" rx="113.69" ry="16.03"/>
<text text-anchor="middle" x="896.51" y="-546.82" font-family="Times,serif" font-size="14.00">softwareDescription</text>
</g>
<!-- http://purl.org/oseg/ontologies/OTRL#softwareDescription&#45;&gt;http://purl.org/oseg/ontologies/OTRL#OTRL -->
<g id="edge35" class="edge">
<title>http://purl.org/oseg/ontologies/OTRL#softwareDescription&#45;&gt;http://purl.org/oseg/ontologies/OTRL#OTRL</title>
<path fill="none" stroke="black" d="M872.27,-534.61C823.13,-502.35 711.88,-429.34 658.45,-394.27"/>
<polygon fill="black" stroke="black" points="660.37,-391.35 650.09,-388.79 656.53,-397.2 660.37,-391.35"/>
<text text-anchor="middle" x="738.86" y="-468.24" font-family="Times,serif" font-size="14.00">domain</text>
</g>
<!-- http://purl.org/oseg/ontologies/OTRL#softwareDescription&#45;&gt;http://www.w3.org/2002/07/owl#DatatypeProperty -->
<g id="edge44" class="edge">
<title>http://purl.org/oseg/ontologies/OTRL#softwareDescription&#45;&gt;http://www.w3.org/2002/07/owl#DatatypeProperty</title>
<path fill="none" stroke="black" d="M1007.99,-547.09C1035.81,-546.24 1065.89,-545.32 1094.51,-544.44"/>
<polygon fill="black" stroke="black" points="1094.69,-547.94 1104.57,-544.13 1094.47,-540.94 1094.69,-547.94"/>
<text text-anchor="middle" x="1046.75" y="-549.57" font-family="Times,serif" font-size="14.00">a</text>
</g>
<!-- http://purl.org/oseg/ontologies/OTRL#softwareDescription&#45;&gt;http://schema.org/Text -->
<g id="edge21" class="edge">
<title>http://purl.org/oseg/ontologies/OTRL#softwareDescription&#45;&gt;http://schema.org/Text</title>
<path fill="none" stroke="black" d="M955.48,-564.52C991.06,-572.97 1036.28,-583.71 1072.13,-592.22"/>
<polygon fill="black" stroke="black" points="1071.44,-595.66 1081.98,-594.56 1073.06,-588.85 1071.44,-595.66"/>
<text text-anchor="middle" x="992.8" y="-582.17" font-family="Times,serif" font-size="14.00">range</text>
</g>
</g>
</svg>
