<?xml version="1.0" encoding="UTF-8" standalone="no"?>
<!DOCTYPE svg PUBLIC "-//W3C//DTD SVG 1.1//EN"
 "http://www.w3.org/Graphics/SVG/1.1/DTD/svg11.dtd">
<!-- Generated by graphviz version 2.43.0 (0)
 -->
<!-- Title: G Pages: 1 -->
<svg width="753pt" height="511pt"
 viewBox="0.00 0.00 753.00 511.00" xmlns="http://www.w3.org/2000/svg" xmlns:xlink="http://www.w3.org/1999/xlink">
<g id="graph0" class="graph" transform="scale(1 1) rotate(0) translate(4 507)">
<title>G</title>
<polygon fill="white" stroke="transparent" points="-4,4 -4,-507 749,-507 749,4 -4,4"/>
<!-- http://purl.org/oseg/ontologies/OTRL#ODRL -->
<g id="node1" class="node">
<title>http://purl.org/oseg/ontologies/OTRL#ODRL</title>
<ellipse fill="none" stroke="#e377c2" cx="155.67" cy="-188.51" rx="41.94" ry="16.03"/>
<text text-anchor="middle" x="155.67" y="-184.81" font-family="Times,serif" font-size="14.00">ODRL</text>
</g>
<!-- http://www.w3.org/2002/07/owl#class -->
<g id="node3" class="node">
<title>http://www.w3.org/2002/07/owl#class</title>
<ellipse fill="none" stroke="#1f77b4" cx="264.45" cy="-218.55" rx="57.05" ry="16.03"/>
<text text-anchor="middle" x="264.45" y="-214.85" font-family="Times,serif" font-size="14.00">owl:class</text>
</g>
<!-- http://purl.org/oseg/ontologies/OTRL#ODRL&#45;&gt;http://www.w3.org/2002/07/owl#class -->
<g id="edge6" class="edge">
<title>http://purl.org/oseg/ontologies/OTRL#ODRL&#45;&gt;http://www.w3.org/2002/07/owl#class</title>
<path fill="none" stroke="black" d="M189.79,-197.93C197.32,-200.01 205.46,-202.26 213.49,-204.48"/>
<polygon fill="black" stroke="black" points="212.62,-207.87 223.2,-207.16 214.49,-201.12 212.62,-207.87"/>
<text text-anchor="middle" x="206.14" y="-190" font-family="Times,serif" font-size="14.00">a</text>
</g>
<!-- http://www.w3.org/2002/07/owl#Ontology -->
<g id="node2" class="node">
<title>http://www.w3.org/2002/07/owl#Ontology</title>
<ellipse fill="none" stroke="#1f77b4" cx="133.32" cy="-486.47" rx="77.56" ry="16.03"/>
<text text-anchor="middle" x="133.32" y="-482.77" font-family="Times,serif" font-size="14.00">owl:Ontology</text>
</g>
<!-- http://www.w3.org/2002/07/owl#DatatypeProperty -->
<g id="node4" class="node">
<title>http://www.w3.org/2002/07/owl#DatatypeProperty</title>
<ellipse fill="none" stroke="#1f77b4" cx="514.58" cy="-464.66" rx="123.07" ry="16.03"/>
<text text-anchor="middle" x="514.58" y="-460.96" font-family="Times,serif" font-size="14.00">owl:DatatypeProperty</text>
</g>
<!-- http://purl.org/oseg/ontologies/OTRL#OTRL -->
<g id="node5" class="node">
<title>http://purl.org/oseg/ontologies/OTRL#OTRL</title>
<ellipse fill="none" stroke="#e377c2" cx="413.13" cy="-248.93" rx="39.7" ry="16.03"/>
<text text-anchor="middle" x="413.13" y="-245.23" font-family="Times,serif" font-size="14.00">OTRL</text>
</g>
<!-- http://purl.org/oseg/ontologies/OTRL#OTRL&#45;&gt;http://www.w3.org/2002/07/owl#class -->
<g id="edge8" class="edge">
<title>http://purl.org/oseg/ontologies/OTRL#OTRL&#45;&gt;http://www.w3.org/2002/07/owl#class</title>
<path fill="none" stroke="black" d="M377.52,-241.65C360.63,-238.2 340.03,-233.99 321.07,-230.12"/>
<polygon fill="black" stroke="black" points="321.53,-226.64 311.03,-228.07 320.13,-233.5 321.53,-226.64"/>
<text text-anchor="middle" x="344.79" y="-239.69" font-family="Times,serif" font-size="14.00">a</text>
</g>
<!-- http://purl.org/oseg/ontologies/OTRL#goal -->
<g id="node6" class="node">
<title>http://purl.org/oseg/ontologies/OTRL#goal</title>
<ellipse fill="none" stroke="#e377c2" cx="711.93" cy="-423.07" rx="33.47" ry="16.03"/>
<text text-anchor="middle" x="711.93" y="-419.37" font-family="Times,serif" font-size="14.00">goal</text>
</g>
<!-- http://purl.org/oseg/ontologies/OTRL#goal&#45;&gt;http://www.w3.org/2002/07/owl#DatatypeProperty -->
<g id="edge15" class="edge">
<title>http://purl.org/oseg/ontologies/OTRL#goal&#45;&gt;http://www.w3.org/2002/07/owl#DatatypeProperty</title>
<path fill="none" stroke="black" d="M681.09,-429.57C656.83,-434.68 621.97,-442.03 590.41,-448.68"/>
<polygon fill="black" stroke="black" points="589.36,-445.32 580.3,-450.81 590.8,-452.17 589.36,-445.32"/>
<text text-anchor="middle" x="640.25" y="-442.92" font-family="Times,serif" font-size="14.00">a</text>
</g>
<!-- http://schema.org/Text -->
<g id="node7" class="node">
<title>http://schema.org/Text</title>
<ellipse fill="none" stroke="#e377c2" cx="643.43" cy="-380.02" rx="74.91" ry="16.03"/>
<text text-anchor="middle" x="643.43" y="-376.32" font-family="Times,serif" font-size="14.00">schema:Text</text>
</g>
<!-- http://purl.org/oseg/ontologies/OTRL#goal&#45;&gt;http://schema.org/Text -->
<g id="edge2" class="edge">
<title>http://purl.org/oseg/ontologies/OTRL#goal&#45;&gt;http://schema.org/Text</title>
<path fill="none" stroke="black" d="M691.38,-410.15C686.84,-407.3 681.93,-404.21 677.03,-401.13"/>
<polygon fill="black" stroke="black" points="678.65,-398.02 668.32,-395.66 674.93,-403.95 678.65,-398.02"/>
<text text-anchor="middle" x="705.2" y="-394.44" font-family="Times,serif" font-size="14.00">range</text>
</g>
<!-- http://www.w3.org/1999/02/22&#45;rdf&#45;syntax&#45;ns#nil -->
<g id="node8" class="node">
<title>http://www.w3.org/1999/02/22&#45;rdf&#45;syntax&#45;ns#nil</title>
<ellipse fill="none" stroke="#e377c2" cx="378.24" cy="-16.64" rx="42.35" ry="16.03"/>
<text text-anchor="middle" x="378.24" y="-12.94" font-family="Times,serif" font-size="14.00">rdf:nil</text>
</g>
<!-- http://purl.org/oseg/ontologies/OTRL#OTRL&#45;5 -->
<g id="node9" class="node">
<title>http://purl.org/oseg/ontologies/OTRL#OTRL&#45;5</title>
<ellipse fill="none" stroke="#e377c2" cx="326.47" cy="-381.92" rx="49.49" ry="16.03"/>
<text text-anchor="middle" x="326.47" y="-378.22" font-family="Times,serif" font-size="14.00">OTRL&#45;5</text>
</g>
<!-- http://purl.org/oseg/ontologies/OTRL#OTRL&#45;5&#45;&gt;http://www.w3.org/2002/07/owl#class -->
<g id="edge19" class="edge">
<title>http://purl.org/oseg/ontologies/OTRL#OTRL&#45;5&#45;&gt;http://www.w3.org/2002/07/owl#class</title>
<path fill="none" stroke="black" d="M320.29,-365.66C309.52,-337.28 287.21,-278.5 274.29,-244.46"/>
<polygon fill="black" stroke="black" points="277.42,-242.86 270.6,-234.75 270.88,-245.34 277.42,-242.86"/>
<text text-anchor="middle" x="292.79" y="-308.86" font-family="Times,serif" font-size="14.00">a</text>
</g>
<!-- http://purl.org/oseg/ontologies/OTRL#OTRL&#45;5&#45;&gt;http://purl.org/oseg/ontologies/OTRL#OTRL -->
<g id="edge14" class="edge">
<title>http://purl.org/oseg/ontologies/OTRL#OTRL&#45;5&#45;&gt;http://purl.org/oseg/ontologies/OTRL#OTRL</title>
<path fill="none" stroke="black" d="M336.92,-365.88C351.89,-342.92 379.55,-300.47 397.11,-273.52"/>
<polygon fill="black" stroke="black" points="400.12,-275.32 402.64,-265.03 394.25,-271.5 400.12,-275.32"/>
</g>
<!-- http://purl.org/oseg/ontologies/OTRL#OTRL&#45;4 -->
<g id="node10" class="node">
<title>http://purl.org/oseg/ontologies/OTRL#OTRL&#45;4</title>
<ellipse fill="none" stroke="#e377c2" cx="459.5" cy="-201.36" rx="49.49" ry="16.03"/>
<text text-anchor="middle" x="459.5" y="-197.66" font-family="Times,serif" font-size="14.00">OTRL&#45;4</text>
</g>
<!-- http://purl.org/oseg/ontologies/OTRL#OTRL&#45;4&#45;&gt;http://www.w3.org/2002/07/owl#class -->
<g id="edge3" class="edge">
<title>http://purl.org/oseg/ontologies/OTRL#OTRL&#45;4&#45;&gt;http://www.w3.org/2002/07/owl#class</title>
<path fill="none" stroke="black" d="M411.54,-205.59C386.83,-207.76 356.35,-210.45 329.55,-212.81"/>
<polygon fill="black" stroke="black" points="329.13,-209.34 319.48,-213.7 329.75,-216.31 329.13,-209.34"/>
<text text-anchor="middle" x="366.04" y="-213" font-family="Times,serif" font-size="14.00">a</text>
</g>
<!-- http://purl.org/oseg/ontologies/OTRL#OTRL&#45;4&#45;&gt;http://purl.org/oseg/ontologies/OTRL#OTRL -->
<g id="edge16" class="edge">
<title>http://purl.org/oseg/ontologies/OTRL#OTRL&#45;4&#45;&gt;http://purl.org/oseg/ontologies/OTRL#OTRL</title>
<path fill="none" stroke="black" d="M444.32,-216.93C441.35,-219.98 438.17,-223.24 435.04,-226.46"/>
<polygon fill="black" stroke="black" points="432.35,-224.2 427.88,-233.8 437.36,-229.09 432.35,-224.2"/>
</g>
<!-- http://purl.org/oseg/ontologies/OTRL -->
<g id="node11" class="node">
<title>http://purl.org/oseg/ontologies/OTRL</title>
<ellipse fill="none" stroke="#e377c2" cx="280.95" cy="-464.42" rx="60.62" ry="16.03"/>
<text text-anchor="middle" x="280.95" y="-460.72" font-family="Times,serif" font-size="14.00">ns1:OTRL</text>
</g>
<!-- http://purl.org/oseg/ontologies/OTRL&#45;&gt;http://www.w3.org/2002/07/owl#Ontology -->
<g id="edge7" class="edge">
<title>http://purl.org/oseg/ontologies/OTRL&#45;&gt;http://www.w3.org/2002/07/owl#Ontology</title>
<path fill="none" stroke="black" d="M227.65,-472.38C220.94,-473.38 213.98,-474.42 207.02,-475.46"/>
<polygon fill="black" stroke="black" points="206.22,-472.04 196.85,-476.98 207.26,-478.96 206.22,-472.04"/>
<text text-anchor="middle" x="215.08" y="-462.72" font-family="Times,serif" font-size="14.00">a</text>
</g>
<!-- http://purl.org/oseg/ontologies/OTRL&#45;&gt;http://purl.org/oseg/ontologies/OTRL -->
<g id="edge4" class="edge">
<title>http://purl.org/oseg/ontologies/OTRL&#45;&gt;http://purl.org/oseg/ontologies/OTRL</title>
<path fill="none" stroke="black" d="M336.55,-471.05C349.89,-470.53 359.76,-468.32 359.76,-464.42 359.76,-461.58 354.55,-459.64 346.58,-458.59"/>
<polygon fill="black" stroke="black" points="346.8,-455.1 336.55,-457.78 346.24,-462.07 346.8,-455.1"/>
<text text-anchor="middle" x="411.26" y="-460.72" font-family="Times,serif" font-size="14.00">owl:versionIRI</text>
</g>
<!-- http://purl.org/oseg/ontologies/OTRL#OTRL&#45;1 -->
<g id="node12" class="node">
<title>http://purl.org/oseg/ontologies/OTRL#OTRL&#45;1</title>
<ellipse fill="none" stroke="#e377c2" cx="422.24" cy="-336.49" rx="49.49" ry="16.03"/>
<text text-anchor="middle" x="422.24" y="-332.79" font-family="Times,serif" font-size="14.00">OTRL&#45;1</text>
</g>
<!-- http://purl.org/oseg/ontologies/OTRL#OTRL&#45;1&#45;&gt;http://www.w3.org/2002/07/owl#class -->
<g id="edge21" class="edge">
<title>http://purl.org/oseg/ontologies/OTRL#OTRL&#45;1&#45;&gt;http://www.w3.org/2002/07/owl#class</title>
<path fill="none" stroke="black" d="M402.26,-321.55C374.74,-300.99 325.02,-263.82 293.42,-240.21"/>
<polygon fill="black" stroke="black" points="295.13,-237.11 285.02,-233.93 290.94,-242.72 295.13,-237.11"/>
<text text-anchor="middle" x="343.34" y="-284.68" font-family="Times,serif" font-size="14.00">a</text>
</g>
<!-- http://purl.org/oseg/ontologies/OTRL#OTRL&#45;1&#45;&gt;http://purl.org/oseg/ontologies/OTRL#OTRL -->
<g id="edge25" class="edge">
<title>http://purl.org/oseg/ontologies/OTRL#OTRL&#45;1&#45;&gt;http://purl.org/oseg/ontologies/OTRL#OTRL</title>
<path fill="none" stroke="black" d="M420.53,-320.02C419.23,-307.55 417.42,-290.15 415.92,-275.68"/>
<polygon fill="black" stroke="black" points="419.36,-274.91 414.84,-265.33 412.39,-275.63 419.36,-274.91"/>
</g>
<!-- http://purl.org/oseg/ontologies/OTRL#ODRL&#45;2 -->
<g id="node13" class="node">
<title>http://purl.org/oseg/ontologies/OTRL#ODRL&#45;2</title>
<ellipse fill="none" stroke="#e377c2" cx="51.06" cy="-206.48" rx="50.82" ry="16.03"/>
<text text-anchor="middle" x="51.06" y="-202.78" font-family="Times,serif" font-size="14.00">ODRL&#45;2</text>
</g>
<!-- http://purl.org/oseg/ontologies/OTRL#ODRL&#45;2&#45;&gt;http://purl.org/oseg/ontologies/OTRL#ODRL -->
<g id="edge17" class="edge">
<title>http://purl.org/oseg/ontologies/OTRL#ODRL&#45;2&#45;&gt;http://purl.org/oseg/ontologies/OTRL#ODRL</title>
<path fill="none" stroke="black" d="M96.03,-198.75C99.79,-198.1 103.61,-197.45 107.4,-196.8"/>
<polygon fill="black" stroke="black" points="108.04,-200.24 117.31,-195.1 106.86,-193.34 108.04,-200.24"/>
</g>
<!-- http://purl.org/oseg/ontologies/OTRL#ODRL&#45;2&#45;&gt;http://www.w3.org/2002/07/owl#class -->
<g id="edge5" class="edge">
<title>http://purl.org/oseg/ontologies/OTRL#ODRL&#45;2&#45;&gt;http://www.w3.org/2002/07/owl#class</title>
<path fill="none" stroke="black" d="M101.36,-209.32C130.14,-210.95 166.61,-213.02 197.76,-214.78"/>
<polygon fill="black" stroke="black" points="197.92,-218.29 208.1,-215.36 198.31,-211.3 197.92,-218.29"/>
<text text-anchor="middle" x="145.06" y="-215.85" font-family="Times,serif" font-size="14.00">a</text>
</g>
<!-- http://purl.org/oseg/ontologies/OTRL#OTRL&#45;2 -->
<g id="node14" class="node">
<title>http://purl.org/oseg/ontologies/OTRL#OTRL&#45;2</title>
<ellipse fill="none" stroke="#e377c2" cx="432.56" cy="-102.99" rx="49.49" ry="16.03"/>
<text text-anchor="middle" x="432.56" y="-99.29" font-family="Times,serif" font-size="14.00">OTRL&#45;2</text>
</g>
<!-- http://purl.org/oseg/ontologies/OTRL#OTRL&#45;2&#45;&gt;http://www.w3.org/2002/07/owl#class -->
<g id="edge9" class="edge">
<title>http://purl.org/oseg/ontologies/OTRL#OTRL&#45;2&#45;&gt;http://www.w3.org/2002/07/owl#class</title>
<path fill="none" stroke="black" d="M410.93,-117.86C381.46,-138.12 328.54,-174.5 295.03,-197.54"/>
<polygon fill="black" stroke="black" points="292.79,-194.82 286.54,-203.37 296.76,-200.59 292.79,-194.82"/>
<text text-anchor="middle" x="348.48" y="-161.5" font-family="Times,serif" font-size="14.00">a</text>
</g>
<!-- http://purl.org/oseg/ontologies/OTRL#OTRL&#45;2&#45;&gt;http://purl.org/oseg/ontologies/OTRL#OTRL -->
<g id="edge18" class="edge">
<title>http://purl.org/oseg/ontologies/OTRL#OTRL&#45;2&#45;&gt;http://purl.org/oseg/ontologies/OTRL#OTRL</title>
<path fill="none" stroke="black" d="M430.37,-119.45C427.05,-144.41 420.7,-192.11 416.7,-222.12"/>
<polygon fill="black" stroke="black" points="413.2,-221.93 415.35,-232.31 420.14,-222.86 413.2,-221.93"/>
</g>
<!-- http://purl.org/oseg/ontologies/OTRL#ODRL&#45;4 -->
<g id="node15" class="node">
<title>http://purl.org/oseg/ontologies/OTRL#ODRL&#45;4</title>
<ellipse fill="none" stroke="#e377c2" cx="115.39" cy="-84.52" rx="50.82" ry="16.03"/>
<text text-anchor="middle" x="115.39" y="-80.82" font-family="Times,serif" font-size="14.00">ODRL&#45;4</text>
</g>
<!-- http://purl.org/oseg/ontologies/OTRL#ODRL&#45;4&#45;&gt;http://purl.org/oseg/ontologies/OTRL#ODRL -->
<g id="edge20" class="edge">
<title>http://purl.org/oseg/ontologies/OTRL#ODRL&#45;4&#45;&gt;http://purl.org/oseg/ontologies/OTRL#ODRL</title>
<path fill="none" stroke="black" d="M121.68,-100.77C128.13,-117.41 138.23,-143.5 145.75,-162.92"/>
<polygon fill="black" stroke="black" points="142.54,-164.31 149.42,-172.37 149.07,-161.78 142.54,-164.31"/>
</g>
<!-- http://purl.org/oseg/ontologies/OTRL#ODRL&#45;4&#45;&gt;http://www.w3.org/2002/07/owl#class -->
<g id="edge10" class="edge">
<title>http://purl.org/oseg/ontologies/OTRL#ODRL&#45;4&#45;&gt;http://www.w3.org/2002/07/owl#class</title>
<path fill="none" stroke="black" d="M132.49,-99.9C158.74,-123.51 209.12,-168.8 239.47,-196.09"/>
<polygon fill="black" stroke="black" points="237.32,-198.86 247.09,-202.94 242,-193.66 237.32,-198.86"/>
<text text-anchor="middle" x="181.48" y="-151.79" font-family="Times,serif" font-size="14.00">a</text>
</g>
<!-- http://purl.org/oseg/ontologies/OTRL#OTRL&#45;3 -->
<g id="node16" class="node">
<title>http://purl.org/oseg/ontologies/OTRL#OTRL&#45;3</title>
<ellipse fill="none" stroke="#e377c2" cx="319.35" cy="-137.45" rx="49.49" ry="16.03"/>
<text text-anchor="middle" x="319.35" y="-133.75" font-family="Times,serif" font-size="14.00">OTRL&#45;3</text>
</g>
<!-- http://purl.org/oseg/ontologies/OTRL#OTRL&#45;3&#45;&gt;http://www.w3.org/2002/07/owl#class -->
<g id="edge24" class="edge">
<title>http://purl.org/oseg/ontologies/OTRL#OTRL&#45;3&#45;&gt;http://www.w3.org/2002/07/owl#class</title>
<path fill="none" stroke="black" d="M308.51,-153.47C300.69,-165.03 289.99,-180.83 281.09,-193.98"/>
<polygon fill="black" stroke="black" points="277.98,-192.32 275.28,-202.56 283.78,-196.24 277.98,-192.32"/>
<text text-anchor="middle" x="290.3" y="-177.52" font-family="Times,serif" font-size="14.00">a</text>
</g>
<!-- http://purl.org/oseg/ontologies/OTRL#OTRL&#45;3&#45;&gt;http://purl.org/oseg/ontologies/OTRL#OTRL -->
<g id="edge23" class="edge">
<title>http://purl.org/oseg/ontologies/OTRL#OTRL&#45;3&#45;&gt;http://purl.org/oseg/ontologies/OTRL#OTRL</title>
<path fill="none" stroke="black" d="M332.79,-153.42C348.69,-172.32 375.29,-203.94 393.5,-225.59"/>
<polygon fill="black" stroke="black" points="390.91,-227.95 400.02,-233.35 396.27,-223.44 390.91,-227.95"/>
</g>
<!-- http://purl.org/oseg/ontologies/OTRL#ODRL&#45;5 -->
<g id="node17" class="node">
<title>http://purl.org/oseg/ontologies/OTRL#ODRL&#45;5</title>
<ellipse fill="none" stroke="#e377c2" cx="229.37" cy="-44.68" rx="50.82" ry="16.03"/>
<text text-anchor="middle" x="229.37" y="-40.98" font-family="Times,serif" font-size="14.00">ODRL&#45;5</text>
</g>
<!-- http://purl.org/oseg/ontologies/OTRL#ODRL&#45;5&#45;&gt;http://purl.org/oseg/ontologies/OTRL#ODRL -->
<g id="edge28" class="edge">
<title>http://purl.org/oseg/ontologies/OTRL#ODRL&#45;5&#45;&gt;http://purl.org/oseg/ontologies/OTRL#ODRL</title>
<path fill="none" stroke="black" d="M221.06,-60.9C208.34,-85.71 183.94,-133.33 168.81,-162.86"/>
<polygon fill="black" stroke="black" points="165.51,-161.63 164.06,-172.12 171.74,-164.82 165.51,-161.63"/>
</g>
<!-- http://purl.org/oseg/ontologies/OTRL#ODRL&#45;5&#45;&gt;http://www.w3.org/2002/07/owl#class -->
<g id="edge26" class="edge">
<title>http://purl.org/oseg/ontologies/OTRL#ODRL&#45;5&#45;&gt;http://www.w3.org/2002/07/owl#class</title>
<path fill="none" stroke="black" d="M232.67,-61.03C238.76,-91.2 251.79,-155.81 259.14,-192.22"/>
<polygon fill="black" stroke="black" points="255.73,-193 261.13,-202.11 262.59,-191.62 255.73,-193"/>
<text text-anchor="middle" x="241.4" y="-130.42" font-family="Times,serif" font-size="14.00">a</text>
</g>
<!-- http://purl.org/oseg/ontologies/OTRL#ODRL&#45;1 -->
<g id="node18" class="node">
<title>http://purl.org/oseg/ontologies/OTRL#ODRL&#45;1</title>
<ellipse fill="none" stroke="#e377c2" cx="153.63" cy="-352.45" rx="50.82" ry="16.03"/>
<text text-anchor="middle" x="153.63" y="-348.75" font-family="Times,serif" font-size="14.00">ODRL&#45;1</text>
</g>
<!-- http://purl.org/oseg/ontologies/OTRL#ODRL&#45;1&#45;&gt;http://purl.org/oseg/ontologies/OTRL#ODRL -->
<g id="edge13" class="edge">
<title>http://purl.org/oseg/ontologies/OTRL#ODRL&#45;1&#45;&gt;http://purl.org/oseg/ontologies/OTRL#ODRL</title>
<path fill="none" stroke="black" d="M153.83,-336.13C154.18,-307.92 154.9,-249.77 155.33,-215.48"/>
<polygon fill="black" stroke="black" points="158.83,-215.29 155.46,-205.25 151.83,-215.2 158.83,-215.29"/>
</g>
<!-- http://purl.org/oseg/ontologies/OTRL#ODRL&#45;1&#45;&gt;http://www.w3.org/2002/07/owl#class -->
<g id="edge27" class="edge">
<title>http://purl.org/oseg/ontologies/OTRL#ODRL&#45;1&#45;&gt;http://www.w3.org/2002/07/owl#class</title>
<path fill="none" stroke="black" d="M166.77,-336.57C186.1,-313.21 222.33,-269.45 244.82,-242.28"/>
<polygon fill="black" stroke="black" points="247.64,-244.35 251.32,-234.42 242.25,-239.89 247.64,-244.35"/>
<text text-anchor="middle" x="201.3" y="-293.22" font-family="Times,serif" font-size="14.00">a</text>
</g>
<!-- http://purl.org/oseg/ontologies/OTRL#ODRL&#45;3 -->
<g id="node19" class="node">
<title>http://purl.org/oseg/ontologies/OTRL#ODRL&#45;3</title>
<ellipse fill="none" stroke="#e377c2" cx="87.18" cy="-307.16" rx="50.82" ry="16.03"/>
<text text-anchor="middle" x="87.18" y="-303.46" font-family="Times,serif" font-size="14.00">ODRL&#45;3</text>
</g>
<!-- http://purl.org/oseg/ontologies/OTRL#ODRL&#45;3&#45;&gt;http://purl.org/oseg/ontologies/OTRL#ODRL -->
<g id="edge22" class="edge">
<title>http://purl.org/oseg/ontologies/OTRL#ODRL&#45;3&#45;&gt;http://purl.org/oseg/ontologies/OTRL#ODRL</title>
<path fill="none" stroke="black" d="M96.42,-291.16C107.96,-271.17 127.83,-236.74 141.34,-213.32"/>
<polygon fill="black" stroke="black" points="144.39,-215.04 146.36,-204.63 138.33,-211.54 144.39,-215.04"/>
</g>
<!-- http://purl.org/oseg/ontologies/OTRL#ODRL&#45;3&#45;&gt;http://www.w3.org/2002/07/owl#class -->
<g id="edge11" class="edge">
<title>http://purl.org/oseg/ontologies/OTRL#ODRL&#45;3&#45;&gt;http://www.w3.org/2002/07/owl#class</title>
<path fill="none" stroke="black" d="M114.88,-293.32C145.06,-278.23 193.49,-254.02 227.03,-237.26"/>
<polygon fill="black" stroke="black" points="228.69,-240.34 236.07,-232.74 225.56,-234.08 228.69,-240.34"/>
<text text-anchor="middle" x="166.46" y="-269.09" font-family="Times,serif" font-size="14.00">a</text>
</g>
<!-- http://purl.org/oseg/ontologies/OTRL#exitCriteria -->
<g id="node20" class="node">
<title>http://purl.org/oseg/ontologies/OTRL#exitCriteria</title>
<ellipse fill="none" stroke="#e377c2" cx="600.05" cy="-423.26" rx="70.01" ry="16.03"/>
<text text-anchor="middle" x="600.05" y="-419.56" font-family="Times,serif" font-size="14.00">exitCriteria</text>
</g>
<!-- http://purl.org/oseg/ontologies/OTRL#exitCriteria&#45;&gt;http://www.w3.org/2002/07/owl#DatatypeProperty -->
<g id="edge12" class="edge">
<title>http://purl.org/oseg/ontologies/OTRL#exitCriteria&#45;&gt;http://www.w3.org/2002/07/owl#DatatypeProperty</title>
<path fill="none" stroke="black" d="M569.68,-437.97C565.35,-440.07 560.83,-442.26 556.33,-444.44"/>
<polygon fill="black" stroke="black" points="554.65,-441.36 547.18,-448.87 557.7,-447.66 554.65,-441.36"/>
<text text-anchor="middle" x="558.5" y="-445.01" font-family="Times,serif" font-size="14.00">a</text>
</g>
<!-- http://purl.org/oseg/ontologies/OTRL#exitCriteria&#45;&gt;http://schema.org/Text -->
<g id="edge1" class="edge">
<title>http://purl.org/oseg/ontologies/OTRL#exitCriteria&#45;&gt;http://schema.org/Text</title>
<path fill="none" stroke="black" d="M616.2,-407.16C617.46,-405.9 618.75,-404.62 620.04,-403.33"/>
<polygon fill="black" stroke="black" points="622.8,-405.53 627.41,-395.99 617.86,-400.57 622.8,-405.53"/>
<text text-anchor="middle" x="597.12" y="-394.04" font-family="Times,serif" font-size="14.00">range</text>
</g>
</g>
</svg>
