<?xml version="1.0" encoding="UTF-8" standalone="no"?>
<!DOCTYPE svg PUBLIC "-//W3C//DTD SVG 1.1//EN"
 "http://www.w3.org/Graphics/SVG/1.1/DTD/svg11.dtd">
<!-- Generated by graphviz version 2.43.0 (0)
 -->
<!-- Title: G Pages: 1 -->
<svg width="847pt" height="425pt"
 viewBox="0.00 0.00 846.76 425.00" xmlns="http://www.w3.org/2000/svg" xmlns:xlink="http://www.w3.org/1999/xlink">
<g id="graph0" class="graph" transform="scale(1 1) rotate(0) translate(4 421)">
<title>G</title>
<polygon fill="white" stroke="transparent" points="-4,4 -4,-421 842.76,-421 842.76,4 -4,4"/>
<!-- http://www.w3.org/2002/07/owl#Ontology -->
<g id="node1" class="node">
<title>http://www.w3.org/2002/07/owl#Ontology</title>
<ellipse fill="none" stroke="#1f77b4" cx="509.32" cy="-326.47" rx="77.56" ry="16.03"/>
<text text-anchor="middle" x="509.32" y="-322.77" font-family="Times,serif" font-size="14.00">owl:Ontology</text>
</g>
<!-- http://www.w3.org/2002/07/owl#class -->
<g id="node2" class="node">
<title>http://www.w3.org/2002/07/owl#class</title>
<ellipse fill="none" stroke="#1f77b4" cx="225.52" cy="-189.62" rx="57.05" ry="16.03"/>
<text text-anchor="middle" x="225.52" y="-185.92" font-family="Times,serif" font-size="14.00">owl:class</text>
</g>
<!-- http://purl.org/oseg/ontologies/OTRL#ODRL -->
<g id="node3" class="node">
<title>http://purl.org/oseg/ontologies/OTRL#ODRL</title>
<ellipse fill="none" stroke="#e377c2" cx="431.14" cy="-219.61" rx="41.94" ry="16.03"/>
<text text-anchor="middle" x="431.14" y="-215.91" font-family="Times,serif" font-size="14.00">ODRL</text>
</g>
<!-- http://www.w3.org/2002/07/owl#DatatypeProperty -->
<g id="node4" class="node">
<title>http://www.w3.org/2002/07/owl#DatatypeProperty</title>
<ellipse fill="none" stroke="#1f77b4" cx="411.02" cy="-21.83" rx="123.07" ry="16.03"/>
<text text-anchor="middle" x="411.02" y="-18.13" font-family="Times,serif" font-size="14.00">owl:DatatypeProperty</text>
</g>
<!-- http://purl.org/oseg/ontologies/OTRL#OTRL -->
<g id="node5" class="node">
<title>http://purl.org/oseg/ontologies/OTRL#OTRL</title>
<ellipse fill="none" stroke="#e377c2" cx="117.19" cy="-189.55" rx="39.7" ry="16.03"/>
<text text-anchor="middle" x="117.19" y="-185.85" font-family="Times,serif" font-size="14.00">OTRL</text>
</g>
<!-- http://purl.org/oseg/ontologies/OTRL#OTRL&#45;&gt;http://www.w3.org/2002/07/owl#class -->
<g id="edge21" class="edge">
<title>http://purl.org/oseg/ontologies/OTRL#OTRL&#45;&gt;http://www.w3.org/2002/07/owl#class</title>
<path fill="none" stroke="black" d="M156.91,-189.58C157.25,-189.58 157.59,-189.58 157.93,-189.58"/>
<polygon fill="black" stroke="black" points="157.99,-193.08 167.99,-189.58 157.99,-186.08 157.99,-193.08"/>
<text text-anchor="middle" x="161.92" y="-193.38" font-family="Times,serif" font-size="14.00">a</text>
</g>
<!-- http://purl.org/oseg/ontologies/OTRL#Otrl1 -->
<g id="node6" class="node">
<title>http://purl.org/oseg/ontologies/OTRL#Otrl1</title>
<ellipse fill="none" stroke="#e377c2" cx="68.19" cy="-276.91" rx="38.37" ry="16.03"/>
<text text-anchor="middle" x="68.19" y="-273.21" font-family="Times,serif" font-size="14.00">Otrl1</text>
</g>
<!-- http://purl.org/oseg/ontologies/OTRL#Otrl1&#45;&gt;http://www.w3.org/2002/07/owl#class -->
<g id="edge27" class="edge">
<title>http://purl.org/oseg/ontologies/OTRL#Otrl1&#45;&gt;http://www.w3.org/2002/07/owl#class</title>
<path fill="none" stroke="black" d="M91.74,-263.84C117.85,-249.36 160.22,-225.85 190.27,-209.18"/>
<polygon fill="black" stroke="black" points="192.13,-212.15 199.17,-204.24 188.73,-206.03 192.13,-212.15"/>
<text text-anchor="middle" x="136.51" y="-240.31" font-family="Times,serif" font-size="14.00">a</text>
</g>
<!-- http://purl.org/oseg/ontologies/OTRL#Otrl1&#45;&gt;http://purl.org/oseg/ontologies/OTRL#OTRL -->
<g id="edge18" class="edge">
<title>http://purl.org/oseg/ontologies/OTRL#Otrl1&#45;&gt;http://purl.org/oseg/ontologies/OTRL#OTRL</title>
<path fill="none" stroke="black" d="M77.18,-260.89C84.5,-247.83 94.96,-229.18 103.35,-214.22"/>
<polygon fill="black" stroke="black" points="106.42,-215.9 108.26,-205.47 100.31,-212.48 106.42,-215.9"/>
</g>
<!-- http://purl.org/oseg/ontologies/OTRL#exitCriteria -->
<g id="node7" class="node">
<title>http://purl.org/oseg/ontologies/OTRL#exitCriteria</title>
<ellipse fill="none" stroke="#e377c2" cx="694.16" cy="-78.54" rx="70.01" ry="16.03"/>
<text text-anchor="middle" x="694.16" y="-74.84" font-family="Times,serif" font-size="14.00">exitCriteria</text>
</g>
<!-- http://purl.org/oseg/ontologies/OTRL#exitCriteria&#45;&gt;http://www.w3.org/2002/07/owl#DatatypeProperty -->
<g id="edge13" class="edge">
<title>http://purl.org/oseg/ontologies/OTRL#exitCriteria&#45;&gt;http://www.w3.org/2002/07/owl#DatatypeProperty</title>
<path fill="none" stroke="black" d="M640.9,-67.87C597.97,-59.27 536.99,-47.06 488.62,-37.37"/>
<polygon fill="black" stroke="black" points="489.3,-33.94 478.81,-35.41 487.93,-40.81 489.3,-33.94"/>
<text text-anchor="middle" x="560.26" y="-56.42" font-family="Times,serif" font-size="14.00">a</text>
</g>
<!-- http://schema.org/Text -->
<g id="node19" class="node">
<title>http://schema.org/Text</title>
<ellipse fill="none" stroke="#e377c2" cx="527.2" cy="-84.77" rx="74.91" ry="16.03"/>
<text text-anchor="middle" x="527.2" y="-81.07" font-family="Times,serif" font-size="14.00">schema:Text</text>
</g>
<!-- http://purl.org/oseg/ontologies/OTRL#exitCriteria&#45;&gt;http://schema.org/Text -->
<g id="edge23" class="edge">
<title>http://purl.org/oseg/ontologies/OTRL#exitCriteria&#45;&gt;http://schema.org/Text</title>
<path fill="none" stroke="black" d="M624.8,-81.13C620.42,-81.29 615.98,-81.45 611.54,-81.62"/>
<polygon fill="black" stroke="black" points="611.06,-78.14 601.19,-82.01 611.32,-85.13 611.06,-78.14"/>
<text text-anchor="middle" x="607.67" y="-70.17" font-family="Times,serif" font-size="14.00">range</text>
</g>
<!-- http://purl.org/oseg/ontologies/OTRL#Odrl1 -->
<g id="node8" class="node">
<title>http://purl.org/oseg/ontologies/OTRL#Odrl1</title>
<ellipse fill="none" stroke="#e377c2" cx="392.43" cy="-263.53" rx="40.11" ry="16.03"/>
<text text-anchor="middle" x="392.43" y="-259.83" font-family="Times,serif" font-size="14.00">Odrl1</text>
</g>
<!-- http://purl.org/oseg/ontologies/OTRL#Odrl1&#45;&gt;http://www.w3.org/2002/07/owl#class -->
<g id="edge1" class="edge">
<title>http://purl.org/oseg/ontologies/OTRL#Odrl1&#45;&gt;http://www.w3.org/2002/07/owl#class</title>
<path fill="none" stroke="black" d="M365.24,-251.49C338.29,-239.55 296.67,-221.13 265.86,-207.49"/>
<polygon fill="black" stroke="black" points="267.23,-204.27 256.67,-203.42 264.4,-210.67 267.23,-204.27"/>
<text text-anchor="middle" x="311.05" y="-233.29" font-family="Times,serif" font-size="14.00">a</text>
</g>
<!-- http://purl.org/oseg/ontologies/OTRL#Odrl1&#45;&gt;http://purl.org/oseg/ontologies/OTRL#ODRL -->
<g id="edge10" class="edge">
<title>http://purl.org/oseg/ontologies/OTRL#Odrl1&#45;&gt;http://purl.org/oseg/ontologies/OTRL#ODRL</title>
<path fill="none" stroke="black" d="M405.97,-248.17C407.49,-246.44 409.07,-244.65 410.65,-242.85"/>
<polygon fill="black" stroke="black" points="413.56,-244.85 417.54,-235.04 408.3,-240.23 413.56,-244.85"/>
</g>
<!-- http://purl.org/oseg/ontologies/OTRL#Otrl2 -->
<g id="node9" class="node">
<title>http://purl.org/oseg/ontologies/OTRL#Otrl2</title>
<ellipse fill="none" stroke="#e377c2" cx="134.95" cy="-320.44" rx="38.37" ry="16.03"/>
<text text-anchor="middle" x="134.95" y="-316.74" font-family="Times,serif" font-size="14.00">Otrl2</text>
</g>
<!-- http://purl.org/oseg/ontologies/OTRL#Otrl2&#45;&gt;http://www.w3.org/2002/07/owl#class -->
<g id="edge15" class="edge">
<title>http://purl.org/oseg/ontologies/OTRL#Otrl2&#45;&gt;http://www.w3.org/2002/07/owl#class</title>
<path fill="none" stroke="black" d="M145.88,-304.66C161.43,-282.19 190.11,-240.77 208.47,-214.25"/>
<polygon fill="black" stroke="black" points="211.46,-216.08 214.27,-205.87 205.7,-212.1 211.46,-216.08"/>
<text text-anchor="middle" x="172.67" y="-263.25" font-family="Times,serif" font-size="14.00">a</text>
</g>
<!-- http://purl.org/oseg/ontologies/OTRL#Otrl2&#45;&gt;http://purl.org/oseg/ontologies/OTRL#OTRL -->
<g id="edge8" class="edge">
<title>http://purl.org/oseg/ontologies/OTRL#Otrl2&#45;&gt;http://purl.org/oseg/ontologies/OTRL#OTRL</title>
<path fill="none" stroke="black" d="M132.74,-304.12C129.75,-282.08 124.38,-242.51 120.8,-216.14"/>
<polygon fill="black" stroke="black" points="124.24,-215.51 119.43,-206.07 117.31,-216.45 124.24,-215.51"/>
</g>
<!-- http://purl.org/oseg/ontologies/OTRL#Odrl2 -->
<g id="node10" class="node">
<title>http://purl.org/oseg/ontologies/OTRL#Odrl2</title>
<ellipse fill="none" stroke="#e377c2" cx="371.76" cy="-83.67" rx="40.11" ry="16.03"/>
<text text-anchor="middle" x="371.76" y="-79.97" font-family="Times,serif" font-size="14.00">Odrl2</text>
</g>
<!-- http://purl.org/oseg/ontologies/OTRL#Odrl2&#45;&gt;http://www.w3.org/2002/07/owl#class -->
<g id="edge2" class="edge">
<title>http://purl.org/oseg/ontologies/OTRL#Odrl2&#45;&gt;http://www.w3.org/2002/07/owl#class</title>
<path fill="none" stroke="black" d="M352.03,-97.96C327.06,-116.06 283.8,-147.4 254.92,-168.32"/>
<polygon fill="black" stroke="black" points="252.87,-165.49 246.82,-174.19 256.97,-171.16 252.87,-165.49"/>
<text text-anchor="middle" x="298.98" y="-136.94" font-family="Times,serif" font-size="14.00">a</text>
</g>
<!-- http://purl.org/oseg/ontologies/OTRL#Odrl2&#45;&gt;http://purl.org/oseg/ontologies/OTRL#ODRL -->
<g id="edge22" class="edge">
<title>http://purl.org/oseg/ontologies/OTRL#Odrl2&#45;&gt;http://purl.org/oseg/ontologies/OTRL#ODRL</title>
<path fill="none" stroke="black" d="M378.8,-99.8C388.98,-123.1 407.9,-166.42 419.99,-194.09"/>
<polygon fill="black" stroke="black" points="416.89,-195.74 424.1,-203.51 423.3,-192.94 416.89,-195.74"/>
</g>
<!-- http://purl.org/oseg/ontologies/OTRL#Odrl3 -->
<g id="node11" class="node">
<title>http://purl.org/oseg/ontologies/OTRL#Odrl3</title>
<ellipse fill="none" stroke="#e377c2" cx="403.8" cy="-161.55" rx="40.11" ry="16.03"/>
<text text-anchor="middle" x="403.8" y="-157.85" font-family="Times,serif" font-size="14.00">Odrl3</text>
</g>
<!-- http://purl.org/oseg/ontologies/OTRL#Odrl3&#45;&gt;http://www.w3.org/2002/07/owl#class -->
<g id="edge17" class="edge">
<title>http://purl.org/oseg/ontologies/OTRL#Odrl3&#45;&gt;http://www.w3.org/2002/07/owl#class</title>
<path fill="none" stroke="black" d="M365.99,-167.5C342.7,-171.17 312.31,-175.96 285.76,-180.14"/>
<polygon fill="black" stroke="black" points="285.13,-176.69 275.8,-181.71 286.22,-183.61 285.13,-176.69"/>
<text text-anchor="middle" x="321.38" y="-177.62" font-family="Times,serif" font-size="14.00">a</text>
</g>
<!-- http://purl.org/oseg/ontologies/OTRL#Odrl3&#45;&gt;http://purl.org/oseg/ontologies/OTRL#ODRL -->
<g id="edge9" class="edge">
<title>http://purl.org/oseg/ontologies/OTRL#Odrl3&#45;&gt;http://purl.org/oseg/ontologies/OTRL#ODRL</title>
<path fill="none" stroke="black" d="M411.41,-177.72C413.84,-182.88 416.59,-188.72 419.25,-194.36"/>
<polygon fill="black" stroke="black" points="416.14,-195.97 423.56,-203.52 422.47,-192.99 416.14,-195.97"/>
</g>
<!-- http://purl.org/oseg/ontologies/OTRL#Otrl -->
<g id="node12" class="node">
<title>http://purl.org/oseg/ontologies/OTRL#Otrl</title>
<ellipse fill="none" stroke="#e377c2" cx="224.24" cy="-400.64" rx="31.64" ry="16.03"/>
<text text-anchor="middle" x="224.24" y="-396.94" font-family="Times,serif" font-size="14.00">Otrl</text>
</g>
<!-- http://purl.org/oseg/ontologies/OTRL -->
<g id="node13" class="node">
<title>http://purl.org/oseg/ontologies/OTRL</title>
<ellipse fill="none" stroke="#e377c2" cx="656.95" cy="-304.42" rx="60.62" ry="16.03"/>
<text text-anchor="middle" x="656.95" y="-300.72" font-family="Times,serif" font-size="14.00">ns1:OTRL</text>
</g>
<!-- http://purl.org/oseg/ontologies/OTRL&#45;&gt;http://www.w3.org/2002/07/owl#Ontology -->
<g id="edge3" class="edge">
<title>http://purl.org/oseg/ontologies/OTRL&#45;&gt;http://www.w3.org/2002/07/owl#Ontology</title>
<path fill="none" stroke="black" d="M603.65,-312.38C596.94,-313.38 589.98,-314.42 583.02,-315.46"/>
<polygon fill="black" stroke="black" points="582.22,-312.04 572.85,-316.98 583.26,-318.96 582.22,-312.04"/>
<text text-anchor="middle" x="591.08" y="-302.72" font-family="Times,serif" font-size="14.00">a</text>
</g>
<!-- http://purl.org/oseg/ontologies/OTRL&#45;&gt;http://purl.org/oseg/ontologies/OTRL -->
<g id="edge6" class="edge">
<title>http://purl.org/oseg/ontologies/OTRL&#45;&gt;http://purl.org/oseg/ontologies/OTRL</title>
<path fill="none" stroke="black" d="M712.55,-311.05C725.89,-310.53 735.76,-308.32 735.76,-304.42 735.76,-301.58 730.55,-299.64 722.58,-298.59"/>
<polygon fill="black" stroke="black" points="722.8,-295.1 712.55,-297.78 722.24,-302.07 722.8,-295.1"/>
<text text-anchor="middle" x="787.26" y="-300.72" font-family="Times,serif" font-size="14.00">owl:versionIRI</text>
</g>
<!-- http://purl.org/oseg/ontologies/OTRL#Odrl -->
<g id="node14" class="node">
<title>http://purl.org/oseg/ontologies/OTRL#Odrl</title>
<ellipse fill="none" stroke="#e377c2" cx="89.58" cy="-66.31" rx="33.88" ry="16.03"/>
<text text-anchor="middle" x="89.58" y="-62.61" font-family="Times,serif" font-size="14.00">Odrl</text>
</g>
<!-- http://purl.org/oseg/ontologies/OTRL#Odrl&#45;&gt;http://www.w3.org/2002/07/owl#class -->
<g id="edge4" class="edge">
<title>http://purl.org/oseg/ontologies/OTRL#Odrl&#45;&gt;http://www.w3.org/2002/07/owl#class</title>
<path fill="none" stroke="black" d="M105.44,-80.7C128.77,-101.86 172.57,-141.6 200.33,-166.78"/>
<polygon fill="black" stroke="black" points="198.29,-169.65 208.05,-173.78 202.99,-164.47 198.29,-169.65"/>
<text text-anchor="middle" x="148.38" y="-127.54" font-family="Times,serif" font-size="14.00">a</text>
</g>
<!-- http://purl.org/oseg/ontologies/OTRL#Otrl3 -->
<g id="node15" class="node">
<title>http://purl.org/oseg/ontologies/OTRL#Otrl3</title>
<ellipse fill="none" stroke="#e377c2" cx="173.63" cy="-40.43" rx="38.37" ry="16.03"/>
<text text-anchor="middle" x="173.63" y="-36.73" font-family="Times,serif" font-size="14.00">Otrl3</text>
</g>
<!-- http://purl.org/oseg/ontologies/OTRL#Otrl3&#45;&gt;http://www.w3.org/2002/07/owl#class -->
<g id="edge19" class="edge">
<title>http://purl.org/oseg/ontologies/OTRL#Otrl3&#45;&gt;http://www.w3.org/2002/07/owl#class</title>
<path fill="none" stroke="black" d="M179.29,-56.68C188.25,-82.47 205.82,-132.98 216.53,-163.77"/>
<polygon fill="black" stroke="black" points="213.28,-165.1 219.87,-173.39 219.9,-162.8 213.28,-165.1"/>
<text text-anchor="middle" x="193.41" y="-114.03" font-family="Times,serif" font-size="14.00">a</text>
</g>
<!-- http://purl.org/oseg/ontologies/OTRL#Otrl3&#45;&gt;http://purl.org/oseg/ontologies/OTRL#OTRL -->
<g id="edge26" class="edge">
<title>http://purl.org/oseg/ontologies/OTRL#Otrl3&#45;&gt;http://purl.org/oseg/ontologies/OTRL#OTRL</title>
<path fill="none" stroke="black" d="M167.49,-56.67C157.73,-82.44 138.62,-132.93 126.97,-163.71"/>
<polygon fill="black" stroke="black" points="123.6,-162.74 123.33,-173.33 130.14,-165.21 123.6,-162.74"/>
</g>
<!-- http://purl.org/oseg/ontologies/OTRL#goal -->
<g id="node16" class="node">
<title>http://purl.org/oseg/ontologies/OTRL#goal</title>
<ellipse fill="none" stroke="#e377c2" cx="580.54" cy="-15.85" rx="33.47" ry="16.03"/>
<text text-anchor="middle" x="580.54" y="-12.15" font-family="Times,serif" font-size="14.00">goal</text>
</g>
<!-- http://purl.org/oseg/ontologies/OTRL#goal&#45;&gt;http://www.w3.org/2002/07/owl#DatatypeProperty -->
<g id="edge5" class="edge">
<title>http://purl.org/oseg/ontologies/OTRL#goal&#45;&gt;http://www.w3.org/2002/07/owl#DatatypeProperty</title>
<path fill="none" stroke="black" d="M547.05,-17.03C544.81,-17.11 542.5,-17.19 540.12,-17.28"/>
<polygon fill="black" stroke="black" points="539.86,-13.79 529.99,-17.64 540.11,-20.78 539.86,-13.79"/>
<text text-anchor="middle" x="539.08" y="-20.96" font-family="Times,serif" font-size="14.00">a</text>
</g>
<!-- http://purl.org/oseg/ontologies/OTRL#goal&#45;&gt;http://schema.org/Text -->
<g id="edge12" class="edge">
<title>http://purl.org/oseg/ontologies/OTRL#goal&#45;&gt;http://schema.org/Text</title>
<path fill="none" stroke="black" d="M568.7,-31.15C562.06,-39.73 553.61,-50.65 546.07,-60.39"/>
<polygon fill="black" stroke="black" points="543.1,-58.5 539.75,-68.55 548.64,-62.79 543.1,-58.5"/>
<text text-anchor="middle" x="536.39" y="-49.57" font-family="Times,serif" font-size="14.00">range</text>
</g>
<!-- http://www.w3.org/1999/02/22&#45;rdf&#45;syntax&#45;ns#nil -->
<g id="node17" class="node">
<title>http://www.w3.org/1999/02/22&#45;rdf&#45;syntax&#45;ns#nil</title>
<ellipse fill="none" stroke="#e377c2" cx="474.24" cy="-400.64" rx="42.35" ry="16.03"/>
<text text-anchor="middle" x="474.24" y="-396.94" font-family="Times,serif" font-size="14.00">rdf:nil</text>
</g>
<!-- http://purl.org/oseg/ontologies/OTRL#Odrl4 -->
<g id="node18" class="node">
<title>http://purl.org/oseg/ontologies/OTRL#Odrl4</title>
<ellipse fill="none" stroke="#e377c2" cx="293.38" cy="-271.5" rx="40.11" ry="16.03"/>
<text text-anchor="middle" x="293.38" y="-267.8" font-family="Times,serif" font-size="14.00">Odrl4</text>
</g>
<!-- http://purl.org/oseg/ontologies/OTRL#Odrl4&#45;&gt;http://www.w3.org/2002/07/owl#class -->
<g id="edge20" class="edge">
<title>http://purl.org/oseg/ontologies/OTRL#Odrl4&#45;&gt;http://www.w3.org/2002/07/owl#class</title>
<path fill="none" stroke="black" d="M280.29,-255.72C270.41,-243.79 256.66,-227.2 245.42,-213.63"/>
<polygon fill="black" stroke="black" points="247.87,-211.11 238.79,-205.64 242.48,-215.58 247.87,-211.11"/>
<text text-anchor="middle" x="258.36" y="-238.48" font-family="Times,serif" font-size="14.00">a</text>
</g>
<!-- http://purl.org/oseg/ontologies/OTRL#Odrl4&#45;&gt;http://purl.org/oseg/ontologies/OTRL#ODRL -->
<g id="edge16" class="edge">
<title>http://purl.org/oseg/ontologies/OTRL#Odrl4&#45;&gt;http://purl.org/oseg/ontologies/OTRL#ODRL</title>
<path fill="none" stroke="black" d="M322.93,-260.37C342.81,-252.88 369.27,-242.92 391.04,-234.71"/>
<polygon fill="black" stroke="black" points="392.55,-237.89 400.68,-231.08 390.09,-231.33 392.55,-237.89"/>
</g>
<!-- http://purl.org/oseg/ontologies/OTRL#Otrl5 -->
<g id="node20" class="node">
<title>http://purl.org/oseg/ontologies/OTRL#Otrl5</title>
<ellipse fill="none" stroke="#e377c2" cx="38.3" cy="-146.17" rx="38.37" ry="16.03"/>
<text text-anchor="middle" x="38.3" y="-142.47" font-family="Times,serif" font-size="14.00">Otrl5</text>
</g>
<!-- http://purl.org/oseg/ontologies/OTRL#Otrl5&#45;&gt;http://www.w3.org/2002/07/owl#class -->
<g id="edge24" class="edge">
<title>http://purl.org/oseg/ontologies/OTRL#Otrl5&#45;&gt;http://www.w3.org/2002/07/owl#class</title>
<path fill="none" stroke="black" d="M72.2,-154.04C99.68,-160.42 138.94,-169.53 170.85,-176.94"/>
<polygon fill="black" stroke="black" points="170.4,-180.43 180.93,-179.28 171.98,-173.61 170.4,-180.43"/>
<text text-anchor="middle" x="117.03" y="-154.29" font-family="Times,serif" font-size="14.00">a</text>
</g>
<!-- http://purl.org/oseg/ontologies/OTRL#Otrl5&#45;&gt;http://purl.org/oseg/ontologies/OTRL#OTRL -->
<g id="edge14" class="edge">
<title>http://purl.org/oseg/ontologies/OTRL#Otrl5&#45;&gt;http://purl.org/oseg/ontologies/OTRL#OTRL</title>
<path fill="none" stroke="black" d="M61.97,-159.19C68.92,-163.01 76.66,-167.27 84.1,-171.35"/>
<polygon fill="black" stroke="black" points="82.81,-174.64 93.26,-176.39 86.19,-168.51 82.81,-174.64"/>
</g>
<!-- http://purl.org/oseg/ontologies/OTRL#Otrl4 -->
<g id="node21" class="node">
<title>http://purl.org/oseg/ontologies/OTRL#Otrl4</title>
<ellipse fill="none" stroke="#e377c2" cx="229.31" cy="-141.53" rx="38.37" ry="16.03"/>
<text text-anchor="middle" x="229.31" y="-137.83" font-family="Times,serif" font-size="14.00">Otrl4</text>
</g>
<!-- http://purl.org/oseg/ontologies/OTRL#Otrl4&#45;&gt;http://www.w3.org/2002/07/owl#class -->
<g id="edge25" class="edge">
<title>http://purl.org/oseg/ontologies/OTRL#Otrl4&#45;&gt;http://www.w3.org/2002/07/owl#class</title>
<path fill="none" stroke="black" d="M228.03,-157.81C227.89,-159.54 227.75,-161.32 227.61,-163.12"/>
<polygon fill="black" stroke="black" points="224.1,-163.11 226.8,-173.36 231.08,-163.67 224.1,-163.11"/>
<text text-anchor="middle" x="223.32" y="-164.27" font-family="Times,serif" font-size="14.00">a</text>
</g>
<!-- http://purl.org/oseg/ontologies/OTRL#Otrl4&#45;&gt;http://purl.org/oseg/ontologies/OTRL#OTRL -->
<g id="edge11" class="edge">
<title>http://purl.org/oseg/ontologies/OTRL#Otrl4&#45;&gt;http://purl.org/oseg/ontologies/OTRL#OTRL</title>
<path fill="none" stroke="black" d="M202.17,-153.15C187.79,-159.31 169.9,-166.97 154.26,-173.67"/>
<polygon fill="black" stroke="black" points="152.67,-170.54 144.86,-177.7 155.43,-176.98 152.67,-170.54"/>
</g>
<!-- http://purl.org/oseg/ontologies/OTRL#Odrl3Star -->
<g id="node22" class="node">
<title>http://purl.org/oseg/ontologies/OTRL#Odrl3Star</title>
<ellipse fill="none" stroke="#e377c2" cx="337.8" cy="-351.44" rx="62.45" ry="16.03"/>
<text text-anchor="middle" x="337.8" y="-347.74" font-family="Times,serif" font-size="14.00">Odrl3Star</text>
</g>
<!-- http://purl.org/oseg/ontologies/OTRL#Odrl3Star&#45;&gt;http://www.w3.org/2002/07/owl#class -->
<g id="edge28" class="edge">
<title>http://purl.org/oseg/ontologies/OTRL#Odrl3Star&#45;&gt;http://www.w3.org/2002/07/owl#class</title>
<path fill="none" stroke="black" d="M326.62,-335.33C306.87,-306.86 265.67,-247.49 242.42,-213.99"/>
<polygon fill="black" stroke="black" points="245.23,-211.89 236.65,-205.67 239.48,-215.88 245.23,-211.89"/>
<text text-anchor="middle" x="280.02" y="-278.46" font-family="Times,serif" font-size="14.00">a</text>
</g>
<!-- http://purl.org/oseg/ontologies/OTRL#Odrl3Star&#45;&gt;http://purl.org/oseg/ontologies/OTRL#ODRL -->
<g id="edge7" class="edge">
<title>http://purl.org/oseg/ontologies/OTRL#Odrl3Star&#45;&gt;http://purl.org/oseg/ontologies/OTRL#ODRL</title>
<path fill="none" stroke="black" d="M349.25,-335.27C365.43,-312.42 395.12,-270.49 413.95,-243.88"/>
<polygon fill="black" stroke="black" points="416.97,-245.68 419.89,-235.5 411.25,-241.64 416.97,-245.68"/>
</g>
</g>
</svg>
