<?xml version="1.0" encoding="UTF-8" standalone="no"?>
<!DOCTYPE svg PUBLIC "-//W3C//DTD SVG 1.1//EN"
 "http://www.w3.org/Graphics/SVG/1.1/DTD/svg11.dtd">
<!-- Generated by graphviz version 2.43.0 (0)
 -->
<!-- Title: G Pages: 1 -->
<svg width="2395pt" height="1827pt"
 viewBox="0.00 0.00 2395.00 1827.00" xmlns="http://www.w3.org/2000/svg" xmlns:xlink="http://www.w3.org/1999/xlink">
<g id="graph0" class="graph" transform="scale(1 1) rotate(0) translate(4 1823)">
<title>G</title>
<polygon fill="white" stroke="transparent" points="-4,4 -4,-1823 2391,-1823 2391,4 -4,4"/>
<!-- https://w3id.org/oseg/ont/osh/otrl#OTRL3 -->
<g id="node1" class="node">
<title>https://w3id.org/oseg/ont/osh/otrl#OTRL3</title>
<ellipse fill="none" stroke="#e377c2" cx="1305.24" cy="-1425.33" rx="67.35" ry="16.03"/>
<text text-anchor="middle" x="1305.24" y="-1421.63" font-family="Times,serif" font-size="14.00">otrl:OTRL3</text>
</g>
<!-- https://w3id.org/oseg/ont/osh/otrl#OTRL -->
<g id="node15" class="node">
<title>https://w3id.org/oseg/ont/osh/otrl#OTRL</title>
<ellipse fill="none" stroke="#e377c2" cx="1477.32" cy="-1203.72" rx="60.62" ry="16.03"/>
<text text-anchor="middle" x="1477.32" y="-1200.02" font-family="Times,serif" font-size="14.00">otrl:OTRL</text>
</g>
<!-- https://w3id.org/oseg/ont/osh/otrl#OTRL3&#45;&gt;https://w3id.org/oseg/ont/osh/otrl#OTRL -->
<g id="edge10" class="edge">
<title>https://w3id.org/oseg/ont/osh/otrl#OTRL3&#45;&gt;https://w3id.org/oseg/ont/osh/otrl#OTRL</title>
<path fill="none" stroke="black" d="M1317.89,-1409.03C1347.86,-1370.44 1423.3,-1273.29 1458.58,-1227.85"/>
<polygon fill="black" stroke="black" points="1461.51,-1229.79 1464.88,-1219.74 1455.98,-1225.49 1461.51,-1229.79"/>
</g>
<!-- https://w3id.org/oseg/ont/osh/otrl#OTRL1 -->
<g id="node2" class="node">
<title>https://w3id.org/oseg/ont/osh/otrl#OTRL1</title>
<ellipse fill="none" stroke="#e377c2" cx="1763.54" cy="-1198.61" rx="67.35" ry="16.03"/>
<text text-anchor="middle" x="1763.54" y="-1194.91" font-family="Times,serif" font-size="14.00">otrl:OTRL1</text>
</g>
<!-- https://w3id.org/oseg/ont/osh/otrl#OTRL1&#45;&gt;https://w3id.org/oseg/ont/osh/otrl#OTRL -->
<g id="edge39" class="edge">
<title>https://w3id.org/oseg/ont/osh/otrl#OTRL1&#45;&gt;https://w3id.org/oseg/ont/osh/otrl#OTRL</title>
<path fill="none" stroke="black" d="M1696.43,-1199.81C1651.88,-1200.6 1593.49,-1201.65 1548.19,-1202.45"/>
<polygon fill="black" stroke="black" points="1548.09,-1198.96 1538.15,-1202.63 1548.21,-1205.95 1548.09,-1198.96"/>
</g>
<!-- https://w3id.org/oseg/ont/osh/otrl#ODRL1 -->
<g id="node3" class="node">
<title>https://w3id.org/oseg/ont/osh/otrl#ODRL1</title>
<ellipse fill="none" stroke="#e377c2" cx="1077.19" cy="-435" rx="69.09" ry="16.03"/>
<text text-anchor="middle" x="1077.19" y="-431.3" font-family="Times,serif" font-size="14.00">otrl:ODRL1</text>
</g>
<!-- https://w3id.org/oseg/ont/osh/otrl#ODRL -->
<g id="node10" class="node">
<title>https://w3id.org/oseg/ont/osh/otrl#ODRL</title>
<ellipse fill="none" stroke="#e377c2" cx="1120.67" cy="-694.51" rx="62.87" ry="16.03"/>
<text text-anchor="middle" x="1120.67" y="-690.81" font-family="Times,serif" font-size="14.00">otrl:ODRL</text>
</g>
<!-- https://w3id.org/oseg/ont/osh/otrl#ODRL1&#45;&gt;https://w3id.org/oseg/ont/osh/otrl#ODRL -->
<g id="edge20" class="edge">
<title>https://w3id.org/oseg/ont/osh/otrl#ODRL1&#45;&gt;https://w3id.org/oseg/ont/osh/otrl#ODRL</title>
<path fill="none" stroke="black" d="M1079.98,-451.63C1087.33,-495.48 1107.28,-614.56 1116.23,-667.97"/>
<polygon fill="black" stroke="black" points="1112.81,-668.74 1117.91,-678.02 1119.71,-667.58 1112.81,-668.74"/>
</g>
<!-- https://w3id.org/oseg/ont/osh/otrl#OTRL2 -->
<g id="node4" class="node">
<title>https://w3id.org/oseg/ont/osh/otrl#OTRL2</title>
<ellipse fill="none" stroke="#e377c2" cx="1416.28" cy="-1470.78" rx="67.35" ry="16.03"/>
<text text-anchor="middle" x="1416.28" y="-1467.08" font-family="Times,serif" font-size="14.00">otrl:OTRL2</text>
</g>
<!-- https://w3id.org/oseg/ont/osh/otrl#OTRL2&#45;&gt;https://w3id.org/oseg/ont/osh/otrl#OTRL -->
<g id="edge22" class="edge">
<title>https://w3id.org/oseg/ont/osh/otrl#OTRL2&#45;&gt;https://w3id.org/oseg/ont/osh/otrl#OTRL</title>
<path fill="none" stroke="black" d="M1420.01,-1454.47C1430.22,-1409.78 1458.74,-1284.98 1471.28,-1230.14"/>
<polygon fill="black" stroke="black" points="1474.75,-1230.68 1473.56,-1220.15 1467.92,-1229.12 1474.75,-1230.68"/>
</g>
<!-- http://www.w3.org/2002/07/owl#Ontology -->
<g id="node5" class="node">
<title>http://www.w3.org/2002/07/owl#Ontology</title>
<ellipse fill="none" stroke="#1f77b4" cx="1678.06" cy="-741.49" rx="77.56" ry="16.03"/>
<text text-anchor="middle" x="1678.06" y="-737.79" font-family="Times,serif" font-size="14.00">owl:Ontology</text>
</g>
<!-- https://w3id.org/oseg/ont/osh/otrl#ODRL3Star -->
<g id="node6" class="node">
<title>https://w3id.org/oseg/ont/osh/otrl#ODRL3Star</title>
<ellipse fill="none" stroke="#e377c2" cx="1346.59" cy="-508.93" rx="90.52" ry="16.03"/>
<text text-anchor="middle" x="1346.59" y="-505.23" font-family="Times,serif" font-size="14.00">otrl:ODRL3Star</text>
</g>
<!-- https://w3id.org/oseg/ont/osh/otrl#ODRL3Star&#45;&gt;https://w3id.org/oseg/ont/osh/otrl#ODRL -->
<g id="edge18" class="edge">
<title>https://w3id.org/oseg/ont/osh/otrl#ODRL3Star&#45;&gt;https://w3id.org/oseg/ont/osh/otrl#ODRL</title>
<path fill="none" stroke="black" d="M1326.93,-525.07C1286.43,-558.35 1193.59,-634.61 1147.56,-672.42"/>
<polygon fill="black" stroke="black" points="1145.31,-669.75 1139.8,-678.8 1149.75,-675.16 1145.31,-669.75"/>
</g>
<!-- http://www.w3.org/2002/07/owl#DatatypeProperty -->
<g id="node7" class="node">
<title>http://www.w3.org/2002/07/owl#DatatypeProperty</title>
<ellipse fill="none" stroke="#1f77b4" cx="1028.23" cy="-1164.12" rx="123.07" ry="16.03"/>
<text text-anchor="middle" x="1028.23" y="-1160.42" font-family="Times,serif" font-size="14.00">owl:DatatypeProperty</text>
</g>
<!-- https://w3id.org/oseg/ont/osh/otrl#ODRL4 -->
<g id="node8" class="node">
<title>https://w3id.org/oseg/ont/osh/otrl#ODRL4</title>
<ellipse fill="none" stroke="#e377c2" cx="851.2" cy="-613.1" rx="69.09" ry="16.03"/>
<text text-anchor="middle" x="851.2" y="-609.4" font-family="Times,serif" font-size="14.00">otrl:ODRL4</text>
</g>
<!-- https://w3id.org/oseg/ont/osh/otrl#ODRL4&#45;&gt;https://w3id.org/oseg/ont/osh/otrl#ODRL -->
<g id="edge9" class="edge">
<title>https://w3id.org/oseg/ont/osh/otrl#ODRL4&#45;&gt;https://w3id.org/oseg/ont/osh/otrl#ODRL</title>
<path fill="none" stroke="black" d="M893.9,-626C941.62,-640.42 1018.85,-663.75 1069.7,-679.11"/>
<polygon fill="black" stroke="black" points="1068.92,-682.53 1079.5,-682.07 1070.94,-675.83 1068.92,-682.53"/>
</g>
<!-- https://w3id.org/oseg/ont/osh/otrl#OTRL4 -->
<g id="node9" class="node">
<title>https://w3id.org/oseg/ont/osh/otrl#OTRL4</title>
<ellipse fill="none" stroke="#e377c2" cx="1729.47" cy="-1343.1" rx="67.35" ry="16.03"/>
<text text-anchor="middle" x="1729.47" y="-1339.4" font-family="Times,serif" font-size="14.00">otrl:OTRL4</text>
</g>
<!-- https://w3id.org/oseg/ont/osh/otrl#OTRL4&#45;&gt;https://w3id.org/oseg/ont/osh/otrl#OTRL -->
<g id="edge5" class="edge">
<title>https://w3id.org/oseg/ont/osh/otrl#OTRL4&#45;&gt;https://w3id.org/oseg/ont/osh/otrl#OTRL</title>
<path fill="none" stroke="black" d="M1702.49,-1328.19C1656.8,-1302.93 1564.21,-1251.75 1513.14,-1223.52"/>
<polygon fill="black" stroke="black" points="1514.55,-1220.3 1504.11,-1218.53 1511.17,-1226.43 1514.55,-1220.3"/>
</g>
<!-- https://w3id.org/oseg/ont/osh/otrl#OTRL5 -->
<g id="node11" class="node">
<title>https://w3id.org/oseg/ont/osh/otrl#OTRL5</title>
<ellipse fill="none" stroke="#e377c2" cx="1619.59" cy="-973.07" rx="67.35" ry="16.03"/>
<text text-anchor="middle" x="1619.59" y="-969.37" font-family="Times,serif" font-size="14.00">otrl:OTRL5</text>
</g>
<!-- https://w3id.org/oseg/ont/osh/otrl#OTRL5&#45;&gt;https://w3id.org/oseg/ont/osh/otrl#OTRL -->
<g id="edge12" class="edge">
<title>https://w3id.org/oseg/ont/osh/otrl#OTRL5&#45;&gt;https://w3id.org/oseg/ont/osh/otrl#OTRL</title>
<path fill="none" stroke="black" d="M1609.59,-989.29C1585.1,-1028.99 1522,-1131.27 1492.7,-1178.78"/>
<polygon fill="black" stroke="black" points="1489.58,-1177.17 1487.31,-1187.52 1495.54,-1180.85 1489.58,-1177.17"/>
</g>
<!-- https://w3id.org/oseg/ont/osh/otrl#OTRL6 -->
<g id="node12" class="node">
<title>https://w3id.org/oseg/ont/osh/otrl#OTRL6</title>
<ellipse fill="none" stroke="#e377c2" cx="1664.42" cy="-1421.95" rx="67.35" ry="16.03"/>
<text text-anchor="middle" x="1664.42" y="-1418.25" font-family="Times,serif" font-size="14.00">otrl:OTRL6</text>
</g>
<!-- https://w3id.org/oseg/ont/osh/otrl#OTRL6&#45;&gt;https://w3id.org/oseg/ont/osh/otrl#OTRL -->
<g id="edge24" class="edge">
<title>https://w3id.org/oseg/ont/osh/otrl#OTRL6&#45;&gt;https://w3id.org/oseg/ont/osh/otrl#OTRL</title>
<path fill="none" stroke="black" d="M1650.66,-1405.91C1618.09,-1367.91 1536.11,-1272.3 1497.73,-1227.53"/>
<polygon fill="black" stroke="black" points="1500.26,-1225.1 1491.1,-1219.79 1494.95,-1229.66 1500.26,-1225.1"/>
</g>
<!-- https://w3id.org/oseg/ont/osh/otrl#ODRL3 -->
<g id="node13" class="node">
<title>https://w3id.org/oseg/ont/osh/otrl#ODRL3</title>
<ellipse fill="none" stroke="#e377c2" cx="956.34" cy="-493.55" rx="69.09" ry="16.03"/>
<text text-anchor="middle" x="956.34" y="-489.85" font-family="Times,serif" font-size="14.00">otrl:ODRL3</text>
</g>
<!-- https://w3id.org/oseg/ont/osh/otrl#ODRL3&#45;&gt;https://w3id.org/oseg/ont/osh/otrl#ODRL -->
<g id="edge34" class="edge">
<title>https://w3id.org/oseg/ont/osh/otrl#ODRL3&#45;&gt;https://w3id.org/oseg/ont/osh/otrl#ODRL</title>
<path fill="none" stroke="black" d="M969.51,-509.66C998.3,-544.86 1066.96,-628.83 1100.94,-670.38"/>
<polygon fill="black" stroke="black" points="1098.4,-672.81 1107.44,-678.33 1103.82,-668.37 1098.4,-672.81"/>
</g>
<!-- https://w3id.org/oseg/ont/osh/otrl#ODRL2 -->
<g id="node14" class="node">
<title>https://w3id.org/oseg/ont/osh/otrl#ODRL2</title>
<ellipse fill="none" stroke="#e377c2" cx="1228.3" cy="-456.39" rx="69.09" ry="16.03"/>
<text text-anchor="middle" x="1228.3" y="-452.69" font-family="Times,serif" font-size="14.00">otrl:ODRL2</text>
</g>
<!-- https://w3id.org/oseg/ont/osh/otrl#ODRL2&#45;&gt;https://w3id.org/oseg/ont/osh/otrl#ODRL -->
<g id="edge6" class="edge">
<title>https://w3id.org/oseg/ont/osh/otrl#ODRL2&#45;&gt;https://w3id.org/oseg/ont/osh/otrl#ODRL</title>
<path fill="none" stroke="black" d="M1220.9,-472.76C1202.46,-513.55 1154.35,-619.99 1132.18,-669.06"/>
<polygon fill="black" stroke="black" points="1128.91,-667.79 1127.98,-678.35 1135.29,-670.68 1128.91,-667.79"/>
</g>
<!-- https://w3id.org/oseg/ont/osh/otrl -->
<g id="node16" class="node">
<title>https://w3id.org/oseg/ont/osh/otrl</title>
<ellipse fill="none" stroke="#e377c2" cx="1725.54" cy="-700.92" rx="50.82" ry="16.03"/>
<text text-anchor="middle" x="1725.54" y="-697.22" font-family="Times,serif" font-size="14.00">ns1:otrl</text>
</g>
<!-- https://w3id.org/oseg/ont/osh/otrl&#45;&gt;http://www.w3.org/2002/07/owl#Ontology -->
<g id="edge3" class="edge">
<title>https://w3id.org/oseg/ont/osh/otrl&#45;&gt;http://www.w3.org/2002/07/owl#Ontology</title>
<path fill="none" stroke="black" d="M1707.59,-716.26C1706.58,-717.11 1705.57,-717.99 1704.54,-718.86"/>
<polygon fill="black" stroke="black" points="1702,-716.43 1696.67,-725.59 1706.54,-721.75 1702,-716.43"/>
<text text-anchor="middle" x="1701.56" y="-721.36" font-family="Times,serif" font-size="14.00">a</text>
</g>
<!-- https://w3id.org/oseg/ont/osh/otrl&#45;&gt;https://w3id.org/oseg/ont/osh/otrl -->
<g id="edge29" class="edge">
<title>https://w3id.org/oseg/ont/osh/otrl&#45;&gt;https://w3id.org/oseg/ont/osh/otrl</title>
<path fill="none" stroke="black" d="M1772.24,-707.62C1784.85,-707.27 1794.45,-705.03 1794.45,-700.92 1794.45,-698.03 1789.71,-696.06 1782.51,-695.03"/>
<polygon fill="black" stroke="black" points="1782.49,-691.52 1772.24,-694.22 1781.93,-698.5 1782.49,-691.52"/>
<text text-anchor="middle" x="1845.95" y="-697.22" font-family="Times,serif" font-size="14.00">owl:versionIRI</text>
</g>
<!-- https://www.gnu.org/licenses/gpl&#45;3.0.txt -->
<g id="node18" class="node">
<title>https://www.gnu.org/licenses/gpl&#45;3.0.txt</title>
<ellipse fill="none" stroke="#e377c2" cx="1732.03" cy="-656.4" rx="85.62" ry="16.03"/>
<text text-anchor="middle" x="1732.03" y="-652.7" font-family="Times,serif" font-size="14.00">ns2:gpl&#45;3.0.txt</text>
</g>
<!-- https://w3id.org/oseg/ont/osh/otrl&#45;&gt;https://www.gnu.org/licenses/gpl&#45;3.0.txt -->
<g id="edge14" class="edge">
<title>https://w3id.org/oseg/ont/osh/otrl&#45;&gt;https://www.gnu.org/licenses/gpl&#45;3.0.txt</title>
<path fill="none" stroke="black" d="M1734.55,-684.78C1734.67,-684.18 1734.8,-683.56 1734.91,-682.94"/>
<polygon fill="black" stroke="black" points="1738.41,-683.19 1736.16,-672.84 1731.46,-682.33 1738.41,-683.19"/>
<text text-anchor="middle" x="1791.23" y="-672.66" font-family="Times,serif" font-size="14.00">dcterms:license</text>
</g>
<!-- https://w3id.org/oseg/ont/osh/otrl&#45;&gt;https://www.gnu.org/licenses/gpl&#45;3.0.txt -->
<g id="edge25" class="edge">
<title>https://w3id.org/oseg/ont/osh/otrl&#45;&gt;https://www.gnu.org/licenses/gpl&#45;3.0.txt</title>
<path fill="none" stroke="black" d="M1721.39,-684.67C1721.42,-684.06 1721.47,-683.45 1721.52,-682.83"/>
<polygon fill="black" stroke="black" points="1725,-683.18 1722.97,-672.78 1718.07,-682.18 1725,-683.18"/>
<text text-anchor="middle" x="1686.45" y="-672.55" font-family="Times,serif" font-size="14.00">cc:license</text>
</g>
<!-- https://w3id.org/oseg/ont/osh/otrl#goal -->
<g id="node17" class="node">
<title>https://w3id.org/oseg/ont/osh/otrl#goal</title>
<ellipse fill="none" stroke="#e377c2" cx="1220.6" cy="-1008.81" rx="54.39" ry="16.03"/>
<text text-anchor="middle" x="1220.6" y="-1005.11" font-family="Times,serif" font-size="14.00">otrl:goal</text>
</g>
<!-- https://w3id.org/oseg/ont/osh/otrl#goal&#45;&gt;http://www.w3.org/2002/07/owl#DatatypeProperty -->
<g id="edge11" class="edge">
<title>https://w3id.org/oseg/ont/osh/otrl#goal&#45;&gt;http://www.w3.org/2002/07/owl#DatatypeProperty</title>
<path fill="none" stroke="black" d="M1201.45,-1024.27C1167.29,-1051.85 1095.73,-1109.63 1056.11,-1141.61"/>
<polygon fill="black" stroke="black" points="1053.75,-1139.02 1048.17,-1148.02 1058.14,-1144.47 1053.75,-1139.02"/>
<text text-anchor="middle" x="1124.28" y="-1086.74" font-family="Times,serif" font-size="14.00">a</text>
</g>
<!-- https://w3id.org/oseg/ont/osh/otrl#goal&#45;&gt;https://w3id.org/oseg/ont/osh/otrl#ODRL -->
<g id="edge46" class="edge">
<title>https://w3id.org/oseg/ont/osh/otrl#goal&#45;&gt;https://w3id.org/oseg/ont/osh/otrl#ODRL</title>
<path fill="none" stroke="black" d="M1215.36,-992.36C1199.04,-941.01 1148.95,-783.46 1129,-720.71"/>
<polygon fill="black" stroke="black" points="1132.22,-719.28 1125.85,-710.81 1125.55,-721.4 1132.22,-719.28"/>
<text text-anchor="middle" x="1086.18" y="-860.33" font-family="Times,serif" font-size="14.00">schema:domainIncludes</text>
</g>
<!-- https://w3id.org/oseg/ont/osh/otrl#goal&#45;&gt;https://w3id.org/oseg/ont/osh/otrl#OTRL -->
<g id="edge40" class="edge">
<title>https://w3id.org/oseg/ont/osh/otrl#goal&#45;&gt;https://w3id.org/oseg/ont/osh/otrl#OTRL</title>
<path fill="none" stroke="black" d="M1240.74,-1024.11C1286.09,-1058.53 1396.3,-1142.21 1448.72,-1182.01"/>
<polygon fill="black" stroke="black" points="1446.83,-1184.97 1456.91,-1188.23 1451.06,-1179.39 1446.83,-1184.97"/>
<text text-anchor="middle" x="1258.73" y="-1106.86" font-family="Times,serif" font-size="14.00">schema:domainIncludes</text>
</g>
<!-- http://schema.org/Text -->
<g id="node21" class="node">
<title>http://schema.org/Text</title>
<ellipse fill="none" stroke="#e377c2" cx="1027.21" cy="-1012.44" rx="74.91" ry="16.03"/>
<text text-anchor="middle" x="1027.21" y="-1008.74" font-family="Times,serif" font-size="14.00">schema:Text</text>
</g>
<!-- https://w3id.org/oseg/ont/osh/otrl#goal&#45;&gt;http://schema.org/Text -->
<g id="edge33" class="edge">
<title>https://w3id.org/oseg/ont/osh/otrl#goal&#45;&gt;http://schema.org/Text</title>
<path fill="none" stroke="black" d="M1166.21,-1009.83C1149.44,-1010.15 1130.54,-1010.5 1112.21,-1010.85"/>
<polygon fill="black" stroke="black" points="1112.04,-1007.35 1102.11,-1011.04 1112.17,-1014.35 1112.04,-1007.35"/>
<text text-anchor="middle" x="1139.21" y="-999.14" font-family="Times,serif" font-size="14.00">range</text>
</g>
<!-- https://w3id.org/oseg/ont/osh/otrl#Odrl4 -->
<g id="node19" class="node">
<title>https://w3id.org/oseg/ont/osh/otrl#Odrl4</title>
<ellipse fill="none" stroke="#e377c2" cx="589" cy="-517.84" rx="61.54" ry="16.03"/>
<text text-anchor="middle" x="589" y="-514.14" font-family="Times,serif" font-size="14.00">otrl:Odrl4</text>
</g>
<!-- https://w3id.org/oseg/ont/osh/otrl#Odrl4&#45;&gt;https://w3id.org/oseg/ont/osh/otrl#ODRL4 -->
<g id="edge1" class="edge">
<title>https://w3id.org/oseg/ont/osh/otrl#Odrl4&#45;&gt;https://w3id.org/oseg/ont/osh/otrl#ODRL4</title>
<path fill="none" stroke="black" d="M616.55,-532.56C658.3,-550.51 738.49,-580.07 793.41,-598.11"/>
<polygon fill="black" stroke="black" points="792.42,-601.46 803.01,-601.22 794.58,-594.81 792.42,-601.46"/>
<text text-anchor="middle" x="662.48" y="-569.13" font-family="Times,serif" font-size="14.00">owl:sameAs</text>
</g>
<!-- https://w3id.org/oseg/ont/osh/otrl#Odrl4&#45;&gt;https://w3id.org/oseg/ont/osh/otrl#ODRL4 -->
<g id="edge15" class="edge">
<title>https://w3id.org/oseg/ont/osh/otrl#Odrl4&#45;&gt;https://w3id.org/oseg/ont/osh/otrl#ODRL4</title>
<path fill="none" stroke="black" d="M634.66,-528.9C685.45,-545.07 766.52,-574.6 813.74,-594.19"/>
<polygon fill="black" stroke="black" points="812.42,-597.43 822.99,-598.09 815.14,-590.98 812.42,-597.43"/>
<text text-anchor="middle" x="644.2" y="-550.35" font-family="Times,serif" font-size="14.00">schema:supersededBy</text>
</g>
<!-- https://w3id.org/oseg/ont/osh/otrl#exitCriteria -->
<g id="node20" class="node">
<title>https://w3id.org/oseg/ont/osh/otrl#exitCriteria</title>
<ellipse fill="none" stroke="#e377c2" cx="1277.91" cy="-958.31" rx="91.43" ry="16.03"/>
<text text-anchor="middle" x="1277.91" y="-954.61" font-family="Times,serif" font-size="14.00">otrl:exitCriteria</text>
</g>
<!-- https://w3id.org/oseg/ont/osh/otrl#exitCriteria&#45;&gt;http://www.w3.org/2002/07/owl#DatatypeProperty -->
<g id="edge30" class="edge">
<title>https://w3id.org/oseg/ont/osh/otrl#exitCriteria&#45;&gt;http://www.w3.org/2002/07/owl#DatatypeProperty</title>
<path fill="none" stroke="black" d="M1258.32,-974.46C1214.11,-1010.9 1106.49,-1099.61 1055.67,-1141.5"/>
<polygon fill="black" stroke="black" points="1053.22,-1138.98 1047.73,-1148.04 1057.68,-1144.38 1053.22,-1138.98"/>
<text text-anchor="middle" x="1152.5" y="-1061.78" font-family="Times,serif" font-size="14.00">a</text>
</g>
<!-- https://w3id.org/oseg/ont/osh/otrl#exitCriteria&#45;&gt;https://w3id.org/oseg/ont/osh/otrl#ODRL -->
<g id="edge48" class="edge">
<title>https://w3id.org/oseg/ont/osh/otrl#exitCriteria&#45;&gt;https://w3id.org/oseg/ont/osh/otrl#ODRL</title>
<path fill="none" stroke="black" d="M1268.08,-941.81C1241.37,-897.01 1167.41,-772.92 1135.57,-719.5"/>
<polygon fill="black" stroke="black" points="1138.43,-717.47 1130.31,-710.67 1132.42,-721.05 1138.43,-717.47"/>
<text text-anchor="middle" x="1115.82" y="-834.45" font-family="Times,serif" font-size="14.00">schema:domainIncludes</text>
</g>
<!-- https://w3id.org/oseg/ont/osh/otrl#exitCriteria&#45;&gt;https://w3id.org/oseg/ont/osh/otrl#OTRL -->
<g id="edge42" class="edge">
<title>https://w3id.org/oseg/ont/osh/otrl#exitCriteria&#45;&gt;https://w3id.org/oseg/ont/osh/otrl#OTRL</title>
<path fill="none" stroke="black" d="M1291,-974.41C1325.15,-1016.45 1417.16,-1129.68 1457.69,-1179.56"/>
<polygon fill="black" stroke="black" points="1455.16,-1182 1464.19,-1187.56 1460.6,-1177.59 1455.16,-1182"/>
<text text-anchor="middle" x="1288.34" y="-1080.79" font-family="Times,serif" font-size="14.00">schema:domainIncludes</text>
</g>
<!-- https://w3id.org/oseg/ont/osh/otrl#exitCriteria&#45;&gt;http://schema.org/Text -->
<g id="edge38" class="edge">
<title>https://w3id.org/oseg/ont/osh/otrl#exitCriteria&#45;&gt;http://schema.org/Text</title>
<path fill="none" stroke="black" d="M1219.77,-970.86C1181.1,-979.21 1130.31,-990.18 1090.6,-998.75"/>
<polygon fill="black" stroke="black" points="1089.8,-995.35 1080.76,-1000.88 1091.28,-1002.19 1089.8,-995.35"/>
<text text-anchor="middle" x="1134.19" y="-973.61" font-family="Times,serif" font-size="14.00">range</text>
</g>
<!-- https://w3id.org/oseg/ont/osh/otrl#Otrl5 -->
<g id="node22" class="node">
<title>https://w3id.org/oseg/ont/osh/otrl#Otrl5</title>
<ellipse fill="none" stroke="black" cx="1643.21" cy="-932.16" rx="215.84" ry="16.03"/>
<text text-anchor="middle" x="1643.21" y="-928.46" font-family="Times,serif" font-size="14.00">https://w3id.org/oseg/ont/osh/otrl#Otrl5</text>
</g>
<!-- https://w3id.org/oseg/ont/osh/otrl#Otrl5&#45;&gt;https://w3id.org/oseg/ont/osh/otrl#OTRL5 -->
<g id="edge2" class="edge">
<title>https://w3id.org/oseg/ont/osh/otrl#Otrl5&#45;&gt;https://w3id.org/oseg/ont/osh/otrl#OTRL5</title>
<path fill="none" stroke="black" d="M1625.83,-948.76C1625.74,-948.93 1625.65,-949.09 1625.55,-949.25"/>
<polygon fill="black" stroke="black" points="1623.23,-946.12 1621.75,-956.61 1629.45,-949.33 1623.23,-946.12"/>
<text text-anchor="middle" x="1705.69" y="-952.81" font-family="Times,serif" font-size="14.00">schema:supersededBy</text>
</g>
<!-- https://w3id.org/oseg/ont/osh/otrl#Otrl5&#45;&gt;https://w3id.org/oseg/ont/osh/otrl#OTRL5 -->
<g id="edge21" class="edge">
<title>https://w3id.org/oseg/ont/osh/otrl#Otrl5&#45;&gt;https://w3id.org/oseg/ont/osh/otrl#OTRL5</title>
<path fill="none" stroke="black" d="M1641,-948.75C1640.96,-948.84 1640.92,-948.92 1640.88,-949.01"/>
<polygon fill="black" stroke="black" points="1638.19,-946.61 1636.61,-957.08 1644.38,-949.88 1638.19,-946.61"/>
<text text-anchor="middle" x="1598.44" y="-952.68" font-family="Times,serif" font-size="14.00">owl:sameAs</text>
</g>
<!-- https://w3id.org/oseg/ont/osh/otrl#Otrl3 -->
<g id="node23" class="node">
<title>https://w3id.org/oseg/ont/osh/otrl#Otrl3</title>
<ellipse fill="none" stroke="black" cx="1143.62" cy="-1802.59" rx="215.84" ry="16.03"/>
<text text-anchor="middle" x="1143.62" y="-1798.89" font-family="Times,serif" font-size="14.00">https://w3id.org/oseg/ont/osh/otrl#Otrl3</text>
</g>
<!-- https://w3id.org/oseg/ont/osh/otrl#Otrl3&#45;&gt;https://w3id.org/oseg/ont/osh/otrl#OTRL3 -->
<g id="edge4" class="edge">
<title>https://w3id.org/oseg/ont/osh/otrl#Otrl3&#45;&gt;https://w3id.org/oseg/ont/osh/otrl#OTRL3</title>
<path fill="none" stroke="black" d="M1154.02,-1786.11C1184.61,-1726.75 1271.74,-1523.77 1297.98,-1451.29"/>
<polygon fill="black" stroke="black" points="1301.38,-1452.17 1301.39,-1441.58 1294.78,-1449.85 1301.38,-1452.17"/>
<text text-anchor="middle" x="1183.5" y="-1622.5" font-family="Times,serif" font-size="14.00">owl:sameAs</text>
</g>
<!-- https://w3id.org/oseg/ont/osh/otrl#Otrl3&#45;&gt;https://w3id.org/oseg/ont/osh/otrl#OTRL3 -->
<g id="edge47" class="edge">
<title>https://w3id.org/oseg/ont/osh/otrl#Otrl3&#45;&gt;https://w3id.org/oseg/ont/osh/otrl#OTRL3</title>
<path fill="none" stroke="black" d="M1147.51,-1786.2C1167.62,-1726.88 1254.54,-1523.28 1290.21,-1451.01"/>
<polygon fill="black" stroke="black" points="1293.52,-1452.22 1294.89,-1441.71 1287.27,-1449.07 1293.52,-1452.22"/>
<text text-anchor="middle" x="1138.86" y="-1607.41" font-family="Times,serif" font-size="14.00">schema:supersededBy</text>
</g>
<!-- https://w3id.org/oseg/ont/osh/otrl#Odrl3 -->
<g id="node24" class="node">
<title>https://w3id.org/oseg/ont/osh/otrl#Odrl3</title>
<ellipse fill="none" stroke="black" cx="711.17" cy="-147.12" rx="217.58" ry="16.03"/>
<text text-anchor="middle" x="711.17" y="-143.42" font-family="Times,serif" font-size="14.00">https://w3id.org/oseg/ont/osh/otrl#Odrl3</text>
</g>
<!-- https://w3id.org/oseg/ont/osh/otrl#Odrl3&#45;&gt;https://w3id.org/oseg/ont/osh/otrl#ODRL3 -->
<g id="edge7" class="edge">
<title>https://w3id.org/oseg/ont/osh/otrl#Odrl3&#45;&gt;https://w3id.org/oseg/ont/osh/otrl#ODRL3</title>
<path fill="none" stroke="black" d="M719.29,-163.72C753.29,-220 882.69,-403.33 934.69,-469.51"/>
<polygon fill="black" stroke="black" points="931.95,-471.69 940.92,-477.34 937.43,-467.33 931.95,-471.69"/>
<text text-anchor="middle" x="784.49" y="-320.41" font-family="Times,serif" font-size="14.00">owl:sameAs</text>
</g>
<!-- https://w3id.org/oseg/ont/osh/otrl#Odrl3&#45;&gt;https://w3id.org/oseg/ont/osh/otrl#ODRL3 -->
<g id="edge19" class="edge">
<title>https://w3id.org/oseg/ont/osh/otrl#Odrl3&#45;&gt;https://w3id.org/oseg/ont/osh/otrl#ODRL3</title>
<path fill="none" stroke="black" d="M726.64,-163.4C771.59,-218.99 900.65,-401.15 942.92,-468.38"/>
<polygon fill="black" stroke="black" points="940.06,-470.41 948.29,-477.08 946.02,-466.74 940.06,-470.41"/>
<text text-anchor="middle" x="754.78" y="-304.69" font-family="Times,serif" font-size="14.00">schema:supersededBy</text>
</g>
<!-- https://w3id.org/oseg/ont/osh/otrl#Otrl2 -->
<g id="node25" class="node">
<title>https://w3id.org/oseg/ont/osh/otrl#Otrl2</title>
<ellipse fill="none" stroke="black" cx="1387.83" cy="-1513.39" rx="215.84" ry="16.03"/>
<text text-anchor="middle" x="1387.83" y="-1509.69" font-family="Times,serif" font-size="14.00">https://w3id.org/oseg/ont/osh/otrl#Otrl2</text>
</g>
<!-- https://w3id.org/oseg/ont/osh/otrl#Otrl2&#45;&gt;https://w3id.org/oseg/ont/osh/otrl#OTRL2 -->
<g id="edge8" class="edge">
<title>https://w3id.org/oseg/ont/osh/otrl#Otrl2&#45;&gt;https://w3id.org/oseg/ont/osh/otrl#OTRL2</title>
<path fill="none" stroke="black" d="M1407,-1496.82C1407.2,-1496.53 1407.4,-1496.23 1407.6,-1495.93"/>
<polygon fill="black" stroke="black" points="1410.68,-1497.61 1412.83,-1487.24 1404.68,-1494 1410.68,-1497.61"/>
<text text-anchor="middle" x="1327.3" y="-1485.18" font-family="Times,serif" font-size="14.00">schema:supersededBy</text>
</g>
<!-- https://w3id.org/oseg/ont/osh/otrl#Otrl2&#45;&gt;https://w3id.org/oseg/ont/osh/otrl#OTRL2 -->
<g id="edge50" class="edge">
<title>https://w3id.org/oseg/ont/osh/otrl#Otrl2&#45;&gt;https://w3id.org/oseg/ont/osh/otrl#OTRL2</title>
<path fill="none" stroke="black" d="M1391.31,-1496.89C1391.65,-1496.24 1392.01,-1495.59 1392.38,-1494.93"/>
<polygon fill="black" stroke="black" points="1395.38,-1496.74 1397.76,-1486.41 1389.46,-1493 1395.38,-1496.74"/>
<text text-anchor="middle" x="1434.34" y="-1499.71" font-family="Times,serif" font-size="14.00">owl:sameAs</text>
</g>
<!-- https://w3id.org/oseg/ont/osh/otrl#Odrl1 -->
<g id="node26" class="node">
<title>https://w3id.org/oseg/ont/osh/otrl#Odrl1</title>
<ellipse fill="none" stroke="black" cx="1028.79" cy="-16.28" rx="217.58" ry="16.03"/>
<text text-anchor="middle" x="1028.79" y="-12.58" font-family="Times,serif" font-size="14.00">https://w3id.org/oseg/ont/osh/otrl#Odrl1</text>
</g>
<!-- https://w3id.org/oseg/ont/osh/otrl#Odrl1&#45;&gt;https://w3id.org/oseg/ont/osh/otrl#ODRL1 -->
<g id="edge13" class="edge">
<title>https://w3id.org/oseg/ont/osh/otrl#Odrl1&#45;&gt;https://w3id.org/oseg/ont/osh/otrl#ODRL1</title>
<path fill="none" stroke="black" d="M1027.87,-32.76C1030.24,-96.78 1056.87,-329.29 1070.56,-408.42"/>
<polygon fill="black" stroke="black" points="1067.17,-409.33 1072.41,-418.54 1074.06,-408.07 1067.17,-409.33"/>
<text text-anchor="middle" x="1006.72" y="-224.39" font-family="Times,serif" font-size="14.00">owl:sameAs</text>
</g>
<!-- https://w3id.org/oseg/ont/osh/otrl#Odrl1&#45;&gt;https://w3id.org/oseg/ont/osh/otrl#ODRL1 -->
<g id="edge36" class="edge">
<title>https://w3id.org/oseg/ont/osh/otrl#Odrl1&#45;&gt;https://w3id.org/oseg/ont/osh/otrl#ODRL1</title>
<path fill="none" stroke="black" d="M1033.56,-32.62C1045.93,-96.41 1073.02,-328.93 1077.62,-408.26"/>
<polygon fill="black" stroke="black" points="1074.13,-408.59 1078.11,-418.41 1081.12,-408.25 1074.13,-408.59"/>
<text text-anchor="middle" x="975.59" y="-209.24" font-family="Times,serif" font-size="14.00">schema:supersededBy</text>
</g>
<!-- https://w3id.org/oseg/ont/osh/otrl#Otrl -->
<g id="node27" class="node">
<title>https://w3id.org/oseg/ont/osh/otrl#Otrl</title>
<ellipse fill="none" stroke="black" cx="1500.73" cy="-1247.95" rx="209.11" ry="16.03"/>
<text text-anchor="middle" x="1500.73" y="-1244.25" font-family="Times,serif" font-size="14.00">https://w3id.org/oseg/ont/osh/otrl#Otrl</text>
</g>
<!-- https://w3id.org/oseg/ont/osh/otrl#Otrl&#45;&gt;https://w3id.org/oseg/ont/osh/otrl#OTRL -->
<g id="edge16" class="edge">
<title>https://w3id.org/oseg/ont/osh/otrl#Otrl&#45;&gt;https://w3id.org/oseg/ont/osh/otrl#OTRL</title>
<path fill="none" stroke="black" d="M1499.12,-1231.51C1498.78,-1230.66 1498.42,-1229.81 1498.04,-1228.94"/>
<polygon fill="black" stroke="black" points="1501,-1227.05 1493.36,-1219.72 1494.76,-1230.22 1501,-1227.05"/>
<text text-anchor="middle" x="1541.08" y="-1219.02" font-family="Times,serif" font-size="14.00">owl:sameAs</text>
</g>
<!-- https://w3id.org/oseg/ont/osh/otrl#Otrl&#45;&gt;https://w3id.org/oseg/ont/osh/otrl#OTRL -->
<g id="edge23" class="edge">
<title>https://w3id.org/oseg/ont/osh/otrl#Otrl&#45;&gt;https://w3id.org/oseg/ont/osh/otrl#OTRL</title>
<path fill="none" stroke="black" d="M1484.46,-1231.56C1484.07,-1230.86 1483.68,-1230.15 1483.3,-1229.44"/>
<polygon fill="black" stroke="black" points="1486.33,-1227.67 1478.9,-1220.11 1480,-1230.65 1486.33,-1227.67"/>
<text text-anchor="middle" x="1403.88" y="-1219.3" font-family="Times,serif" font-size="14.00">schema:supersededBy</text>
</g>
<!-- https://w3id.org/oseg/ont/osh/otrl#Otrl6 -->
<g id="node28" class="node">
<title>https://w3id.org/oseg/ont/osh/otrl#Otrl6</title>
<ellipse fill="none" stroke="black" cx="1741.01" cy="-1472.79" rx="215.84" ry="16.03"/>
<text text-anchor="middle" x="1741.01" y="-1469.09" font-family="Times,serif" font-size="14.00">https://w3id.org/oseg/ont/osh/otrl#Otrl6</text>
</g>
<!-- https://w3id.org/oseg/ont/osh/otrl#Otrl6&#45;&gt;https://w3id.org/oseg/ont/osh/otrl#OTRL6 -->
<g id="edge17" class="edge">
<title>https://w3id.org/oseg/ont/osh/otrl#Otrl6&#45;&gt;https://w3id.org/oseg/ont/osh/otrl#OTRL6</title>
<path fill="none" stroke="black" d="M1726.82,-1456.46C1720.9,-1451.74 1713.72,-1446.57 1706.36,-1441.69"/>
<polygon fill="black" stroke="black" points="1708.01,-1438.59 1697.7,-1436.13 1704.22,-1444.48 1708.01,-1438.59"/>
<text text-anchor="middle" x="1796.59" y="-1437.87" font-family="Times,serif" font-size="14.00">schema:supersededBy</text>
</g>
<!-- https://w3id.org/oseg/ont/osh/otrl#Otrl6&#45;&gt;https://w3id.org/oseg/ont/osh/otrl#OTRL6 -->
<g id="edge35" class="edge">
<title>https://w3id.org/oseg/ont/osh/otrl#Otrl6&#45;&gt;https://w3id.org/oseg/ont/osh/otrl#OTRL6</title>
<path fill="none" stroke="black" d="M1704.38,-1456.51C1698.24,-1452.6 1692.05,-1448.37 1686.42,-1444.24"/>
<polygon fill="black" stroke="black" points="1688.2,-1441.2 1678.13,-1437.9 1683.95,-1446.76 1688.2,-1441.2"/>
<text text-anchor="middle" x="1652.9" y="-1439.18" font-family="Times,serif" font-size="14.00">owl:sameAs</text>
</g>
<!-- https://w3id.org/oseg/ont/osh/otrl#Odrl -->
<g id="node29" class="node">
<title>https://w3id.org/oseg/ont/osh/otrl#Odrl</title>
<ellipse fill="none" stroke="black" cx="727.47" cy="-780.67" rx="211.35" ry="16.03"/>
<text text-anchor="middle" x="727.47" y="-776.97" font-family="Times,serif" font-size="14.00">https://w3id.org/oseg/ont/osh/otrl#Odrl</text>
</g>
<!-- https://w3id.org/oseg/ont/osh/otrl#Odrl&#45;&gt;https://w3id.org/oseg/ont/osh/otrl#ODRL -->
<g id="edge26" class="edge">
<title>https://w3id.org/oseg/ont/osh/otrl#Odrl&#45;&gt;https://w3id.org/oseg/ont/osh/otrl#ODRL</title>
<path fill="none" stroke="black" d="M821.41,-766.05C900.24,-750.35 1009.67,-725.98 1072.03,-709.95"/>
<polygon fill="black" stroke="black" points="1073.19,-713.26 1081.99,-707.36 1071.43,-706.49 1073.19,-713.26"/>
<text text-anchor="middle" x="866.72" y="-741.8" font-family="Times,serif" font-size="14.00">schema:supersededBy</text>
</g>
<!-- https://w3id.org/oseg/ont/osh/otrl#Odrl&#45;&gt;https://w3id.org/oseg/ont/osh/otrl#ODRL -->
<g id="edge49" class="edge">
<title>https://w3id.org/oseg/ont/osh/otrl#Odrl&#45;&gt;https://w3id.org/oseg/ont/osh/otrl#ODRL</title>
<path fill="none" stroke="black" d="M777.86,-764.78C848.25,-746.77 976.1,-718.6 1054.21,-703.78"/>
<polygon fill="black" stroke="black" points="1055.23,-707.14 1064.42,-701.86 1053.94,-700.26 1055.23,-707.14"/>
<text text-anchor="middle" x="873.54" y="-723.08" font-family="Times,serif" font-size="14.00">owl:sameAs</text>
</g>
<!-- https://w3id.org/oseg/ont/osh/otrl#Odrl3Star -->
<g id="node30" class="node">
<title>https://w3id.org/oseg/ont/osh/otrl#Odrl3Star</title>
<ellipse fill="none" stroke="black" cx="1687.35" cy="-185.4" rx="239" ry="16.03"/>
<text text-anchor="middle" x="1687.35" y="-181.7" font-family="Times,serif" font-size="14.00">https://w3id.org/oseg/ont/osh/otrl#Odrl3Star</text>
</g>
<!-- https://w3id.org/oseg/ont/osh/otrl#Odrl3Star&#45;&gt;https://w3id.org/oseg/ont/osh/otrl#ODRL3Star -->
<g id="edge27" class="edge">
<title>https://w3id.org/oseg/ont/osh/otrl#Odrl3Star&#45;&gt;https://w3id.org/oseg/ont/osh/otrl#ODRL3Star</title>
<path fill="none" stroke="black" d="M1665.23,-201.75C1602.78,-254.92 1426.3,-422.39 1366.56,-485.05"/>
<polygon fill="black" stroke="black" points="1363.85,-482.81 1359.55,-492.5 1368.95,-487.61 1363.85,-482.81"/>
<text text-anchor="middle" x="1473.39" y="-347.2" font-family="Times,serif" font-size="14.00">owl:sameAs</text>
</g>
<!-- https://w3id.org/oseg/ont/osh/otrl#Odrl3Star&#45;&gt;https://w3id.org/oseg/ont/osh/otrl#ODRL3Star -->
<g id="edge44" class="edge">
<title>https://w3id.org/oseg/ont/osh/otrl#Odrl3Star&#45;&gt;https://w3id.org/oseg/ont/osh/otrl#ODRL3Star</title>
<path fill="none" stroke="black" d="M1674.33,-201.89C1624.61,-255.58 1446.88,-424.71 1376,-486.3"/>
<polygon fill="black" stroke="black" points="1373.59,-483.76 1368.29,-492.93 1378.15,-489.07 1373.59,-483.76"/>
<text text-anchor="middle" x="1605.16" y="-347.9" font-family="Times,serif" font-size="14.00">schema:supersededBy</text>
</g>
<!-- https://w3id.org/oseg/ont/osh/otrl#Odrl5 -->
<g id="node31" class="node">
<title>https://w3id.org/oseg/ont/osh/otrl#Odrl5</title>
<ellipse fill="none" stroke="black" cx="218.04" cy="-381.75" rx="217.58" ry="16.03"/>
<text text-anchor="middle" x="218.04" y="-378.05" font-family="Times,serif" font-size="14.00">https://w3id.org/oseg/ont/osh/otrl#Odrl5</text>
</g>
<!-- https://w3id.org/oseg/ont/osh/otrl#Odrl5&#45;&gt;https://w3id.org/oseg/ont/osh/otrl#Odrl4 -->
<g id="edge28" class="edge">
<title>https://w3id.org/oseg/ont/osh/otrl#Odrl5&#45;&gt;https://w3id.org/oseg/ont/osh/otrl#Odrl4</title>
<path fill="none" stroke="black" d="M250.21,-397.9C313.99,-424.78 457,-477.53 535.28,-503.31"/>
<polygon fill="black" stroke="black" points="534.37,-506.69 544.96,-506.47 536.54,-500.04 534.37,-506.69"/>
<text text-anchor="middle" x="312.75" y="-454.4" font-family="Times,serif" font-size="14.00">schema:supersededBy</text>
</g>
<!-- https://w3id.org/oseg/ont/osh/otrl#Odrl5&#45;&gt;https://w3id.org/oseg/ont/osh/otrl#Odrl4 -->
<g id="edge31" class="edge">
<title>https://w3id.org/oseg/ont/osh/otrl#Odrl5&#45;&gt;https://w3id.org/oseg/ont/osh/otrl#Odrl4</title>
<path fill="none" stroke="black" d="M275.29,-397.44C351.92,-422.84 485.7,-472.14 550.99,-499.25"/>
<polygon fill="black" stroke="black" points="549.91,-502.59 560.49,-503.24 552.63,-496.14 549.91,-502.59"/>
<text text-anchor="middle" x="370.64" y="-437.15" font-family="Times,serif" font-size="14.00">owl:sameAs</text>
</g>
<!-- https://w3id.org/oseg/ont/osh/otrl#Odrl2 -->
<g id="node32" class="node">
<title>https://w3id.org/oseg/ont/osh/otrl#Odrl2</title>
<ellipse fill="none" stroke="black" cx="1393.21" cy="-66.98" rx="217.58" ry="16.03"/>
<text text-anchor="middle" x="1393.21" y="-63.28" font-family="Times,serif" font-size="14.00">https://w3id.org/oseg/ont/osh/otrl#Odrl2</text>
</g>
<!-- https://w3id.org/oseg/ont/osh/otrl#Odrl2&#45;&gt;https://w3id.org/oseg/ont/osh/otrl#ODRL2 -->
<g id="edge32" class="edge">
<title>https://w3id.org/oseg/ont/osh/otrl#Odrl2&#45;&gt;https://w3id.org/oseg/ont/osh/otrl#ODRL2</title>
<path fill="none" stroke="black" d="M1382.9,-83.54C1351.88,-144.48 1262.01,-356.32 1235.46,-430.51"/>
<polygon fill="black" stroke="black" points="1232.13,-429.44 1232.15,-440.03 1238.74,-431.74 1232.13,-429.44"/>
<text text-anchor="middle" x="1229.18" y="-260.82" font-family="Times,serif" font-size="14.00">schema:supersededBy</text>
</g>
<!-- https://w3id.org/oseg/ont/osh/otrl#Odrl2&#45;&gt;https://w3id.org/oseg/ont/osh/otrl#ODRL2 -->
<g id="edge37" class="edge">
<title>https://w3id.org/oseg/ont/osh/otrl#Odrl2&#45;&gt;https://w3id.org/oseg/ont/osh/otrl#ODRL2</title>
<path fill="none" stroke="black" d="M1389.35,-83.35C1368.94,-144.22 1278.89,-357.54 1242.91,-431.18"/>
<polygon fill="black" stroke="black" points="1239.73,-429.72 1238.4,-440.23 1245.99,-432.84 1239.73,-429.72"/>
<text text-anchor="middle" x="1358.63" y="-261.07" font-family="Times,serif" font-size="14.00">owl:sameAs</text>
</g>
<!-- https://w3id.org/oseg/ont/osh/otrl#Otrl1 -->
<g id="node33" class="node">
<title>https://w3id.org/oseg/ont/osh/otrl#Otrl1</title>
<ellipse fill="none" stroke="black" cx="2171.07" cy="-1228.55" rx="215.84" ry="16.03"/>
<text text-anchor="middle" x="2171.07" y="-1224.85" font-family="Times,serif" font-size="14.00">https://w3id.org/oseg/ont/osh/otrl#Otrl1</text>
</g>
<!-- https://w3id.org/oseg/ont/osh/otrl#Otrl1&#45;&gt;https://w3id.org/oseg/ont/osh/otrl#OTRL1 -->
<g id="edge41" class="edge">
<title>https://w3id.org/oseg/ont/osh/otrl#Otrl1&#45;&gt;https://w3id.org/oseg/ont/osh/otrl#OTRL1</title>
<path fill="none" stroke="black" d="M2062.3,-1214.49C1992.59,-1208.26 1903.76,-1201.95 1841.14,-1198.87"/>
<polygon fill="black" stroke="black" points="1841.09,-1195.37 1830.94,-1198.39 1840.76,-1202.36 1841.09,-1195.37"/>
<text text-anchor="middle" x="1909.22" y="-1195.48" font-family="Times,serif" font-size="14.00">owl:sameAs</text>
</g>
<!-- https://w3id.org/oseg/ont/osh/otrl#Otrl1&#45;&gt;https://w3id.org/oseg/ont/osh/otrl#OTRL1 -->
<g id="edge45" class="edge">
<title>https://w3id.org/oseg/ont/osh/otrl#Otrl1&#45;&gt;https://w3id.org/oseg/ont/osh/otrl#OTRL1</title>
<path fill="none" stroke="black" d="M1978.74,-1221.18C1925.25,-1217.34 1870.71,-1212.81 1829.92,-1208.65"/>
<polygon fill="black" stroke="black" points="1830.16,-1205.16 1819.86,-1207.61 1829.44,-1212.12 1830.16,-1205.16"/>
<text text-anchor="middle" x="1824.33" y="-1218.72" font-family="Times,serif" font-size="14.00">schema:supersededBy</text>
</g>
<!-- https://w3id.org/oseg/ont/osh/otrl#Otrl4 -->
<g id="node34" class="node">
<title>https://w3id.org/oseg/ont/osh/otrl#Otrl4</title>
<ellipse fill="none" stroke="black" cx="2038.89" cy="-1616.36" rx="215.84" ry="16.03"/>
<text text-anchor="middle" x="2038.89" y="-1612.66" font-family="Times,serif" font-size="14.00">https://w3id.org/oseg/ont/osh/otrl#Otrl4</text>
</g>
<!-- https://w3id.org/oseg/ont/osh/otrl#Otrl4&#45;&gt;https://w3id.org/oseg/ont/osh/otrl#OTRL4 -->
<g id="edge43" class="edge">
<title>https://w3id.org/oseg/ont/osh/otrl#Otrl4&#45;&gt;https://w3id.org/oseg/ont/osh/otrl#OTRL4</title>
<path fill="none" stroke="black" d="M2025.23,-1600.05C1978.68,-1553.03 1826.2,-1417.97 1760.25,-1364.83"/>
<polygon fill="black" stroke="black" points="1762.27,-1361.97 1752.27,-1358.48 1757.91,-1367.45 1762.27,-1361.97"/>
<text text-anchor="middle" x="1935.24" y="-1486.24" font-family="Times,serif" font-size="14.00">owl:sameAs</text>
</g>
<!-- https://w3id.org/oseg/ont/osh/otrl#Otrl4&#45;&gt;https://w3id.org/oseg/ont/osh/otrl#OTRL4 -->
<g id="edge51" class="edge">
<title>https://w3id.org/oseg/ont/osh/otrl#Otrl4&#45;&gt;https://w3id.org/oseg/ont/osh/otrl#OTRL4</title>
<path fill="none" stroke="black" d="M2014.96,-1600.1C1956.1,-1553.58 1805.42,-1420.56 1750.13,-1366.37"/>
<polygon fill="black" stroke="black" points="1752.54,-1363.83 1742.98,-1359.27 1747.61,-1368.8 1752.54,-1363.83"/>
<text text-anchor="middle" x="1802.55" y="-1487.04" font-family="Times,serif" font-size="14.00">schema:supersededBy</text>
</g>
</g>
</svg>
