<?xml version="1.0" encoding="UTF-8" standalone="no"?>
<!DOCTYPE svg PUBLIC "-//W3C//DTD SVG 1.1//EN"
 "http://www.w3.org/Graphics/SVG/1.1/DTD/svg11.dtd">
<!-- Generated by graphviz version 2.43.0 (0)
 -->
<!-- Title: G Pages: 1 -->
<svg width="727pt" height="437pt"
 viewBox="0.00 0.00 726.76 437.00" xmlns="http://www.w3.org/2000/svg" xmlns:xlink="http://www.w3.org/1999/xlink">
<g id="graph0" class="graph" transform="scale(1 1) rotate(0) translate(4 433)">
<title>G</title>
<polygon fill="white" stroke="transparent" points="-4,4 -4,-433 722.76,-433 722.76,4 -4,4"/>
<!-- http://www.w3.org/2002/07/owl#DatatypeProperty -->
<g id="node1" class="node">
<title>http://www.w3.org/2002/07/owl#DatatypeProperty</title>
<ellipse fill="none" stroke="#1f77b4" cx="458.58" cy="-412.66" rx="123.07" ry="16.03"/>
<text text-anchor="middle" x="458.58" y="-408.96" font-family="Times,serif" font-size="14.00">owl:DatatypeProperty</text>
</g>
<!-- http://purl.org/oseg/ontologies/OTRL#OTRL -->
<g id="node2" class="node">
<title>http://purl.org/oseg/ontologies/OTRL#OTRL</title>
<ellipse fill="none" stroke="#e377c2" cx="306.89" cy="-263.35" rx="39.7" ry="16.03"/>
<text text-anchor="middle" x="306.89" y="-259.65" font-family="Times,serif" font-size="14.00">OTRL</text>
</g>
<!-- http://www.w3.org/2002/07/owl#class -->
<g id="node3" class="node">
<title>http://www.w3.org/2002/07/owl#class</title>
<ellipse fill="none" stroke="#1f77b4" cx="215.62" cy="-220.88" rx="57.05" ry="16.03"/>
<text text-anchor="middle" x="215.62" y="-217.18" font-family="Times,serif" font-size="14.00">owl:class</text>
</g>
<!-- http://purl.org/oseg/ontologies/OTRL#OTRL&#45;&gt;http://www.w3.org/2002/07/owl#class -->
<g id="edge22" class="edge">
<title>http://purl.org/oseg/ontologies/OTRL#OTRL&#45;&gt;http://www.w3.org/2002/07/owl#class</title>
<path fill="none" stroke="black" d="M280.49,-251.06C272.45,-247.32 263.43,-243.13 254.74,-239.08"/>
<polygon fill="black" stroke="black" points="256.03,-235.83 245.49,-234.78 253.08,-242.17 256.03,-235.83"/>
<text text-anchor="middle" x="263.11" y="-248.87" font-family="Times,serif" font-size="14.00">a</text>
</g>
<!-- http://www.w3.org/2002/07/owl#Ontology -->
<g id="node4" class="node">
<title>http://www.w3.org/2002/07/owl#Ontology</title>
<ellipse fill="none" stroke="#1f77b4" cx="389.32" cy="-62.47" rx="77.56" ry="16.03"/>
<text text-anchor="middle" x="389.32" y="-58.77" font-family="Times,serif" font-size="14.00">owl:Ontology</text>
</g>
<!-- http://purl.org/oseg/ontologies/OTRL#ODRL -->
<g id="node5" class="node">
<title>http://purl.org/oseg/ontologies/OTRL#ODRL</title>
<ellipse fill="none" stroke="#e377c2" cx="156.97" cy="-168.53" rx="41.94" ry="16.03"/>
<text text-anchor="middle" x="156.97" y="-164.83" font-family="Times,serif" font-size="14.00">ODRL</text>
</g>
<!-- http://purl.org/oseg/ontologies/OTRL#Odrl2 -->
<g id="node6" class="node">
<title>http://purl.org/oseg/ontologies/OTRL#Odrl2</title>
<ellipse fill="none" stroke="#e377c2" cx="83.28" cy="-297.17" rx="40.11" ry="16.03"/>
<text text-anchor="middle" x="83.28" y="-293.47" font-family="Times,serif" font-size="14.00">Odrl2</text>
</g>
<!-- http://purl.org/oseg/ontologies/OTRL#Odrl2&#45;&gt;http://www.w3.org/2002/07/owl#class -->
<g id="edge1" class="edge">
<title>http://purl.org/oseg/ontologies/OTRL#Odrl2&#45;&gt;http://www.w3.org/2002/07/owl#class</title>
<path fill="none" stroke="black" d="M106.63,-283.71C127.33,-271.78 157.83,-254.2 181.31,-240.66"/>
<polygon fill="black" stroke="black" points="183.33,-243.54 190.24,-235.51 179.83,-237.47 183.33,-243.54"/>
<text text-anchor="middle" x="139.47" y="-265.99" font-family="Times,serif" font-size="14.00">a</text>
</g>
<!-- http://purl.org/oseg/ontologies/OTRL#Odrl2&#45;&gt;http://purl.org/oseg/ontologies/OTRL#ODRL -->
<g id="edge5" class="edge">
<title>http://purl.org/oseg/ontologies/OTRL#Odrl2&#45;&gt;http://purl.org/oseg/ontologies/OTRL#ODRL</title>
<path fill="none" stroke="black" d="M92.46,-281.14C105.04,-259.19 127.75,-219.54 142.59,-193.63"/>
<polygon fill="black" stroke="black" points="145.73,-195.18 147.67,-184.77 139.66,-191.7 145.73,-195.18"/>
</g>
<!-- http://purl.org/oseg/ontologies/OTRL#goal -->
<g id="node7" class="node">
<title>http://purl.org/oseg/ontologies/OTRL#goal</title>
<ellipse fill="none" stroke="#e377c2" cx="655.93" cy="-371.07" rx="33.47" ry="16.03"/>
<text text-anchor="middle" x="655.93" y="-367.37" font-family="Times,serif" font-size="14.00">goal</text>
</g>
<!-- http://purl.org/oseg/ontologies/OTRL#goal&#45;&gt;http://www.w3.org/2002/07/owl#DatatypeProperty -->
<g id="edge16" class="edge">
<title>http://purl.org/oseg/ontologies/OTRL#goal&#45;&gt;http://www.w3.org/2002/07/owl#DatatypeProperty</title>
<path fill="none" stroke="black" d="M625.09,-377.57C600.83,-382.68 565.97,-390.03 534.41,-396.68"/>
<polygon fill="black" stroke="black" points="533.36,-393.32 524.3,-398.81 534.8,-400.17 533.36,-393.32"/>
<text text-anchor="middle" x="584.25" y="-390.92" font-family="Times,serif" font-size="14.00">a</text>
</g>
<!-- http://schema.org/Text -->
<g id="node10" class="node">
<title>http://schema.org/Text</title>
<ellipse fill="none" stroke="#e377c2" cx="587.43" cy="-328.02" rx="74.91" ry="16.03"/>
<text text-anchor="middle" x="587.43" y="-324.32" font-family="Times,serif" font-size="14.00">schema:Text</text>
</g>
<!-- http://purl.org/oseg/ontologies/OTRL#goal&#45;&gt;http://schema.org/Text -->
<g id="edge17" class="edge">
<title>http://purl.org/oseg/ontologies/OTRL#goal&#45;&gt;http://schema.org/Text</title>
<path fill="none" stroke="black" d="M635.38,-358.15C630.84,-355.3 625.93,-352.21 621.03,-349.13"/>
<polygon fill="black" stroke="black" points="622.65,-346.02 612.32,-343.66 618.93,-351.95 622.65,-346.02"/>
<text text-anchor="middle" x="649.2" y="-342.44" font-family="Times,serif" font-size="14.00">range</text>
</g>
<!-- http://purl.org/oseg/ontologies/OTRL#Otrl1 -->
<g id="node8" class="node">
<title>http://purl.org/oseg/ontologies/OTRL#Otrl1</title>
<ellipse fill="none" stroke="#e377c2" cx="264.65" cy="-381.65" rx="38.37" ry="16.03"/>
<text text-anchor="middle" x="264.65" y="-377.95" font-family="Times,serif" font-size="14.00">Otrl1</text>
</g>
<!-- http://purl.org/oseg/ontologies/OTRL#Otrl1&#45;&gt;http://purl.org/oseg/ontologies/OTRL#OTRL -->
<g id="edge3" class="edge">
<title>http://purl.org/oseg/ontologies/OTRL#Otrl1&#45;&gt;http://purl.org/oseg/ontologies/OTRL#OTRL</title>
<path fill="none" stroke="black" d="M270.52,-365.2C277.55,-345.51 289.41,-312.31 297.66,-289.18"/>
<polygon fill="black" stroke="black" points="301,-290.25 301.07,-279.66 294.41,-287.9 301,-290.25"/>
</g>
<!-- http://purl.org/oseg/ontologies/OTRL#Otrl1&#45;&gt;http://www.w3.org/2002/07/owl#class -->
<g id="edge2" class="edge">
<title>http://purl.org/oseg/ontologies/OTRL#Otrl1&#45;&gt;http://www.w3.org/2002/07/owl#class</title>
<path fill="none" stroke="black" d="M259.68,-365.35C251.2,-337.55 233.87,-280.71 223.65,-247.22"/>
<polygon fill="black" stroke="black" points="226.87,-245.77 220.61,-237.23 220.18,-247.81 226.87,-245.77"/>
<text text-anchor="middle" x="237.17" y="-310.08" font-family="Times,serif" font-size="14.00">a</text>
</g>
<!-- http://www.w3.org/1999/02/22&#45;rdf&#45;syntax&#45;ns#nil -->
<g id="node9" class="node">
<title>http://www.w3.org/1999/02/22&#45;rdf&#45;syntax&#45;ns#nil</title>
<ellipse fill="none" stroke="#e377c2" cx="426.24" cy="-280.64" rx="42.35" ry="16.03"/>
<text text-anchor="middle" x="426.24" y="-276.94" font-family="Times,serif" font-size="14.00">rdf:nil</text>
</g>
<!-- http://purl.org/oseg/ontologies/OTRL#Otrl -->
<g id="node11" class="node">
<title>http://purl.org/oseg/ontologies/OTRL#Otrl</title>
<ellipse fill="none" stroke="#e377c2" cx="104.24" cy="-376.64" rx="31.64" ry="16.03"/>
<text text-anchor="middle" x="104.24" y="-372.94" font-family="Times,serif" font-size="14.00">Otrl</text>
</g>
<!-- http://purl.org/oseg/ontologies/OTRL#Odrl1 -->
<g id="node12" class="node">
<title>http://purl.org/oseg/ontologies/OTRL#Odrl1</title>
<ellipse fill="none" stroke="#e377c2" cx="40.69" cy="-234.26" rx="40.11" ry="16.03"/>
<text text-anchor="middle" x="40.69" y="-230.56" font-family="Times,serif" font-size="14.00">Odrl1</text>
</g>
<!-- http://purl.org/oseg/ontologies/OTRL#Odrl1&#45;&gt;http://www.w3.org/2002/07/owl#class -->
<g id="edge18" class="edge">
<title>http://purl.org/oseg/ontologies/OTRL#Odrl1&#45;&gt;http://www.w3.org/2002/07/owl#class</title>
<path fill="none" stroke="black" d="M80.39,-231.22C100.94,-229.65 126.56,-227.69 149.95,-225.9"/>
<polygon fill="black" stroke="black" points="150.47,-229.37 160.17,-225.12 149.94,-222.39 150.47,-229.37"/>
<text text-anchor="middle" x="110.67" y="-232.36" font-family="Times,serif" font-size="14.00">a</text>
</g>
<!-- http://purl.org/oseg/ontologies/OTRL#Odrl1&#45;&gt;http://purl.org/oseg/ontologies/OTRL#ODRL -->
<g id="edge15" class="edge">
<title>http://purl.org/oseg/ontologies/OTRL#Odrl1&#45;&gt;http://purl.org/oseg/ontologies/OTRL#ODRL</title>
<path fill="none" stroke="black" d="M64.22,-220.96C81.45,-211.22 105.04,-197.89 124.12,-187.1"/>
<polygon fill="black" stroke="black" points="126.09,-190.01 133.07,-182.04 122.65,-183.91 126.09,-190.01"/>
</g>
<!-- http://purl.org/oseg/ontologies/OTRL#Odrl -->
<g id="node13" class="node">
<title>http://purl.org/oseg/ontologies/OTRL#Odrl</title>
<ellipse fill="none" stroke="#e377c2" cx="113.11" cy="-66.93" rx="33.88" ry="16.03"/>
<text text-anchor="middle" x="113.11" y="-63.23" font-family="Times,serif" font-size="14.00">Odrl</text>
</g>
<!-- http://purl.org/oseg/ontologies/OTRL#Odrl&#45;&gt;http://www.w3.org/2002/07/owl#class -->
<g id="edge19" class="edge">
<title>http://purl.org/oseg/ontologies/OTRL#Odrl&#45;&gt;http://www.w3.org/2002/07/owl#class</title>
<path fill="none" stroke="black" d="M123.5,-82.54C141.37,-109.37 178.03,-164.43 199.32,-196.41"/>
<polygon fill="black" stroke="black" points="196.44,-198.39 204.89,-204.77 202.26,-194.51 196.44,-198.39"/>
<text text-anchor="middle" x="156.91" y="-128.27" font-family="Times,serif" font-size="14.00">a</text>
</g>
<!-- http://purl.org/oseg/ontologies/OTRL#Odrl3Star -->
<g id="node14" class="node">
<title>http://purl.org/oseg/ontologies/OTRL#Odrl3Star</title>
<ellipse fill="none" stroke="#e377c2" cx="221.3" cy="-15.81" rx="62.45" ry="16.03"/>
<text text-anchor="middle" x="221.3" y="-12.11" font-family="Times,serif" font-size="14.00">Odrl3Star</text>
</g>
<!-- http://purl.org/oseg/ontologies/OTRL#Odrl3Star&#45;&gt;http://www.w3.org/2002/07/owl#class -->
<g id="edge9" class="edge">
<title>http://purl.org/oseg/ontologies/OTRL#Odrl3Star&#45;&gt;http://www.w3.org/2002/07/owl#class</title>
<path fill="none" stroke="black" d="M220.84,-32.24C219.86,-67.64 217.55,-151.36 216.36,-194.37"/>
<polygon fill="black" stroke="black" points="212.86,-194.28 216.08,-204.37 219.86,-194.47 212.86,-194.28"/>
<text text-anchor="middle" x="214.1" y="-102.1" font-family="Times,serif" font-size="14.00">a</text>
</g>
<!-- http://purl.org/oseg/ontologies/OTRL#Odrl3Star&#45;&gt;http://purl.org/oseg/ontologies/OTRL#ODRL -->
<g id="edge4" class="edge">
<title>http://purl.org/oseg/ontologies/OTRL#Odrl3Star&#45;&gt;http://purl.org/oseg/ontologies/OTRL#ODRL</title>
<path fill="none" stroke="black" d="M214.41,-32.15C203.24,-58.68 181.08,-111.3 167.78,-142.86"/>
<polygon fill="black" stroke="black" points="164.46,-141.73 163.8,-152.31 170.91,-144.45 164.46,-141.73"/>
</g>
<!-- http://purl.org/oseg/ontologies/OTRL -->
<g id="node15" class="node">
<title>http://purl.org/oseg/ontologies/OTRL</title>
<ellipse fill="none" stroke="#e377c2" cx="536.95" cy="-40.42" rx="60.62" ry="16.03"/>
<text text-anchor="middle" x="536.95" y="-36.72" font-family="Times,serif" font-size="14.00">ns1:OTRL</text>
</g>
<!-- http://purl.org/oseg/ontologies/OTRL&#45;&gt;http://www.w3.org/2002/07/owl#Ontology -->
<g id="edge10" class="edge">
<title>http://purl.org/oseg/ontologies/OTRL&#45;&gt;http://www.w3.org/2002/07/owl#Ontology</title>
<path fill="none" stroke="black" d="M483.65,-48.38C476.94,-49.38 469.98,-50.42 463.02,-51.46"/>
<polygon fill="black" stroke="black" points="462.22,-48.04 452.85,-52.98 463.26,-54.96 462.22,-48.04"/>
<text text-anchor="middle" x="471.08" y="-38.72" font-family="Times,serif" font-size="14.00">a</text>
</g>
<!-- http://purl.org/oseg/ontologies/OTRL&#45;&gt;http://purl.org/oseg/ontologies/OTRL -->
<g id="edge14" class="edge">
<title>http://purl.org/oseg/ontologies/OTRL&#45;&gt;http://purl.org/oseg/ontologies/OTRL</title>
<path fill="none" stroke="black" d="M592.55,-47.05C605.89,-46.53 615.76,-44.32 615.76,-40.42 615.76,-37.58 610.55,-35.64 602.58,-34.59"/>
<polygon fill="black" stroke="black" points="602.8,-31.1 592.55,-33.78 602.24,-38.07 602.8,-31.1"/>
<text text-anchor="middle" x="667.26" y="-36.72" font-family="Times,serif" font-size="14.00">owl:versionIRI</text>
</g>
<!-- http://purl.org/oseg/ontologies/OTRL#Odrl3 -->
<g id="node16" class="node">
<title>http://purl.org/oseg/ontologies/OTRL#Odrl3</title>
<ellipse fill="none" stroke="#e377c2" cx="41.17" cy="-148.21" rx="40.11" ry="16.03"/>
<text text-anchor="middle" x="41.17" y="-144.51" font-family="Times,serif" font-size="14.00">Odrl3</text>
</g>
<!-- http://purl.org/oseg/ontologies/OTRL#Odrl3&#45;&gt;http://www.w3.org/2002/07/owl#class -->
<g id="edge11" class="edge">
<title>http://purl.org/oseg/ontologies/OTRL#Odrl3&#45;&gt;http://www.w3.org/2002/07/owl#class</title>
<path fill="none" stroke="black" d="M69.59,-160.05C97.76,-171.78 141.26,-189.9 173.46,-203.32"/>
<polygon fill="black" stroke="black" points="172.48,-206.7 183.06,-207.32 175.18,-200.24 172.48,-206.7"/>
<text text-anchor="middle" x="117.03" y="-185.48" font-family="Times,serif" font-size="14.00">a</text>
</g>
<!-- http://purl.org/oseg/ontologies/OTRL#Odrl3&#45;&gt;http://purl.org/oseg/ontologies/OTRL#ODRL -->
<g id="edge6" class="edge">
<title>http://purl.org/oseg/ontologies/OTRL#Odrl3&#45;&gt;http://purl.org/oseg/ontologies/OTRL#ODRL</title>
<path fill="none" stroke="black" d="M78.45,-154.75C88.07,-156.44 98.56,-158.28 108.66,-160.05"/>
<polygon fill="black" stroke="black" points="108.11,-163.51 118.57,-161.79 109.32,-156.62 108.11,-163.51"/>
</g>
<!-- http://purl.org/oseg/ontologies/OTRL#exitCriteria -->
<g id="node17" class="node">
<title>http://purl.org/oseg/ontologies/OTRL#exitCriteria</title>
<ellipse fill="none" stroke="#e377c2" cx="544.05" cy="-371.26" rx="70.01" ry="16.03"/>
<text text-anchor="middle" x="544.05" y="-367.56" font-family="Times,serif" font-size="14.00">exitCriteria</text>
</g>
<!-- http://purl.org/oseg/ontologies/OTRL#exitCriteria&#45;&gt;http://www.w3.org/2002/07/owl#DatatypeProperty -->
<g id="edge12" class="edge">
<title>http://purl.org/oseg/ontologies/OTRL#exitCriteria&#45;&gt;http://www.w3.org/2002/07/owl#DatatypeProperty</title>
<path fill="none" stroke="black" d="M513.68,-385.97C509.35,-388.07 504.83,-390.26 500.33,-392.44"/>
<polygon fill="black" stroke="black" points="498.65,-389.36 491.18,-396.87 501.7,-395.66 498.65,-389.36"/>
<text text-anchor="middle" x="502.5" y="-393.01" font-family="Times,serif" font-size="14.00">a</text>
</g>
<!-- http://purl.org/oseg/ontologies/OTRL#exitCriteria&#45;&gt;http://schema.org/Text -->
<g id="edge7" class="edge">
<title>http://purl.org/oseg/ontologies/OTRL#exitCriteria&#45;&gt;http://schema.org/Text</title>
<path fill="none" stroke="black" d="M560.2,-355.16C561.46,-353.9 562.75,-352.62 564.04,-351.33"/>
<polygon fill="black" stroke="black" points="566.8,-353.53 571.41,-343.99 561.86,-348.57 566.8,-353.53"/>
<text text-anchor="middle" x="541.12" y="-342.04" font-family="Times,serif" font-size="14.00">range</text>
</g>
<!-- http://purl.org/oseg/ontologies/OTRL#Otrl3 -->
<g id="node18" class="node">
<title>http://purl.org/oseg/ontologies/OTRL#Otrl3</title>
<ellipse fill="none" stroke="#e377c2" cx="239.56" cy="-126.96" rx="38.37" ry="16.03"/>
<text text-anchor="middle" x="239.56" y="-123.26" font-family="Times,serif" font-size="14.00">Otrl3</text>
</g>
<!-- http://purl.org/oseg/ontologies/OTRL#Otrl3&#45;&gt;http://purl.org/oseg/ontologies/OTRL#OTRL -->
<g id="edge25" class="edge">
<title>http://purl.org/oseg/ontologies/OTRL#Otrl3&#45;&gt;http://purl.org/oseg/ontologies/OTRL#OTRL</title>
<path fill="none" stroke="black" d="M247.55,-143.14C259.14,-166.62 280.73,-210.36 294.43,-238.1"/>
<polygon fill="black" stroke="black" points="291.35,-239.77 298.91,-247.19 297.62,-236.67 291.35,-239.77"/>
</g>
<!-- http://purl.org/oseg/ontologies/OTRL#Otrl3&#45;&gt;http://www.w3.org/2002/07/owl#class -->
<g id="edge23" class="edge">
<title>http://purl.org/oseg/ontologies/OTRL#Otrl3&#45;&gt;http://www.w3.org/2002/07/owl#class</title>
<path fill="none" stroke="black" d="M235.39,-143.32C231.81,-157.38 226.58,-177.91 222.39,-194.32"/>
<polygon fill="black" stroke="black" points="218.9,-193.84 219.83,-204.4 225.69,-195.57 218.9,-193.84"/>
<text text-anchor="middle" x="224.39" y="-172.62" font-family="Times,serif" font-size="14.00">a</text>
</g>
<!-- http://purl.org/oseg/ontologies/OTRL#Otrl5 -->
<g id="node19" class="node">
<title>http://purl.org/oseg/ontologies/OTRL#Otrl5</title>
<ellipse fill="none" stroke="#e377c2" cx="394.41" cy="-211.07" rx="38.37" ry="16.03"/>
<text text-anchor="middle" x="394.41" y="-207.37" font-family="Times,serif" font-size="14.00">Otrl5</text>
</g>
<!-- http://purl.org/oseg/ontologies/OTRL#Otrl5&#45;&gt;http://purl.org/oseg/ontologies/OTRL#OTRL -->
<g id="edge8" class="edge">
<title>http://purl.org/oseg/ontologies/OTRL#Otrl5&#45;&gt;http://purl.org/oseg/ontologies/OTRL#OTRL</title>
<path fill="none" stroke="black" d="M371.87,-224.53C361.56,-230.69 349.17,-238.09 338,-244.77"/>
<polygon fill="black" stroke="black" points="336.14,-241.8 329.35,-249.93 339.73,-247.81 336.14,-241.8"/>
</g>
<!-- http://purl.org/oseg/ontologies/OTRL#Otrl5&#45;&gt;http://www.w3.org/2002/07/owl#class -->
<g id="edge24" class="edge">
<title>http://purl.org/oseg/ontologies/OTRL#Otrl5&#45;&gt;http://www.w3.org/2002/07/owl#class</title>
<path fill="none" stroke="black" d="M356.49,-213.15C334.96,-214.33 307.39,-215.85 282.35,-217.22"/>
<polygon fill="black" stroke="black" points="281.96,-213.74 272.17,-217.78 282.35,-220.73 281.96,-213.74"/>
<text text-anchor="middle" x="314.92" y="-218.98" font-family="Times,serif" font-size="14.00">a</text>
</g>
<!-- http://purl.org/oseg/ontologies/OTRL#Otrl2 -->
<g id="node20" class="node">
<title>http://purl.org/oseg/ontologies/OTRL#Otrl2</title>
<ellipse fill="none" stroke="#e377c2" cx="196.07" cy="-338" rx="38.37" ry="16.03"/>
<text text-anchor="middle" x="196.07" y="-334.3" font-family="Times,serif" font-size="14.00">Otrl2</text>
</g>
<!-- http://purl.org/oseg/ontologies/OTRL#Otrl2&#45;&gt;http://purl.org/oseg/ontologies/OTRL#OTRL -->
<g id="edge20" class="edge">
<title>http://purl.org/oseg/ontologies/OTRL#Otrl2&#45;&gt;http://purl.org/oseg/ontologies/OTRL#OTRL</title>
<path fill="none" stroke="black" d="M216.66,-324.14C233.81,-312.58 258.45,-295.98 277.65,-283.05"/>
<polygon fill="black" stroke="black" points="279.7,-285.88 286.04,-277.39 275.79,-280.08 279.7,-285.88"/>
</g>
<!-- http://purl.org/oseg/ontologies/OTRL#Otrl2&#45;&gt;http://www.w3.org/2002/07/owl#class -->
<g id="edge13" class="edge">
<title>http://purl.org/oseg/ontologies/OTRL#Otrl2&#45;&gt;http://www.w3.org/2002/07/owl#class</title>
<path fill="none" stroke="black" d="M198.79,-321.72C202,-302.51 207.37,-270.31 211.19,-247.47"/>
<polygon fill="black" stroke="black" points="214.67,-247.85 212.86,-237.41 207.77,-246.7 214.67,-247.85"/>
<text text-anchor="middle" x="200.49" y="-288.39" font-family="Times,serif" font-size="14.00">a</text>
</g>
<!-- http://purl.org/oseg/ontologies/OTRL#Odrl4 -->
<g id="node21" class="node">
<title>http://purl.org/oseg/ontologies/OTRL#Odrl4</title>
<ellipse fill="none" stroke="#e377c2" cx="327.31" cy="-117.63" rx="40.11" ry="16.03"/>
<text text-anchor="middle" x="327.31" y="-113.93" font-family="Times,serif" font-size="14.00">Odrl4</text>
</g>
<!-- http://purl.org/oseg/ontologies/OTRL#Odrl4&#45;&gt;http://www.w3.org/2002/07/owl#class -->
<g id="edge26" class="edge">
<title>http://purl.org/oseg/ontologies/OTRL#Odrl4&#45;&gt;http://www.w3.org/2002/07/owl#class</title>
<path fill="none" stroke="black" d="M310.83,-132.87C292.13,-150.16 261.45,-178.52 239.99,-198.36"/>
<polygon fill="black" stroke="black" points="237.5,-195.89 232.54,-205.25 242.25,-201.03 237.5,-195.89"/>
<text text-anchor="middle" x="270.91" y="-169.41" font-family="Times,serif" font-size="14.00">a</text>
</g>
<!-- http://purl.org/oseg/ontologies/OTRL#Odrl4&#45;&gt;http://purl.org/oseg/ontologies/OTRL#ODRL -->
<g id="edge21" class="edge">
<title>http://purl.org/oseg/ontologies/OTRL#Odrl4&#45;&gt;http://purl.org/oseg/ontologies/OTRL#ODRL</title>
<path fill="none" stroke="black" d="M294.87,-127.33C267.89,-135.39 229.29,-146.92 199.79,-155.74"/>
<polygon fill="black" stroke="black" points="198.74,-152.4 190.16,-158.62 200.74,-159.11 198.74,-152.4"/>
</g>
<!-- http://purl.org/oseg/ontologies/OTRL#Otrl4 -->
<g id="node22" class="node">
<title>http://purl.org/oseg/ontologies/OTRL#Otrl4</title>
<ellipse fill="none" stroke="#e377c2" cx="348.05" cy="-339.56" rx="38.37" ry="16.03"/>
<text text-anchor="middle" x="348.05" y="-335.86" font-family="Times,serif" font-size="14.00">Otrl4</text>
</g>
<!-- http://purl.org/oseg/ontologies/OTRL#Otrl4&#45;&gt;http://purl.org/oseg/ontologies/OTRL#OTRL -->
<g id="edge28" class="edge">
<title>http://purl.org/oseg/ontologies/OTRL#Otrl4&#45;&gt;http://purl.org/oseg/ontologies/OTRL#OTRL</title>
<path fill="none" stroke="black" d="M339.32,-323.4C333.83,-313.23 326.62,-299.89 320.4,-288.37"/>
<polygon fill="black" stroke="black" points="323.3,-286.36 315.46,-279.23 317.14,-289.69 323.3,-286.36"/>
</g>
<!-- http://purl.org/oseg/ontologies/OTRL#Otrl4&#45;&gt;http://www.w3.org/2002/07/owl#class -->
<g id="edge27" class="edge">
<title>http://purl.org/oseg/ontologies/OTRL#Otrl4&#45;&gt;http://www.w3.org/2002/07/owl#class</title>
<path fill="none" stroke="black" d="M331.55,-324.77C308.8,-304.39 267.61,-267.47 240.95,-243.58"/>
<polygon fill="black" stroke="black" points="242.96,-240.68 233.18,-236.62 238.29,-245.9 242.96,-240.68"/>
<text text-anchor="middle" x="281.75" y="-287.98" font-family="Times,serif" font-size="14.00">a</text>
</g>
</g>
</svg>
