<?xml version="1.0" encoding="UTF-8" standalone="no"?>
<!DOCTYPE svg PUBLIC "-//W3C//DTD SVG 1.1//EN"
 "http://www.w3.org/Graphics/SVG/1.1/DTD/svg11.dtd">
<!-- Generated by graphviz version 2.43.0 (0)
 -->
<!-- Title: G Pages: 1 -->
<svg width="2348pt" height="2418pt"
 viewBox="0.00 0.00 2348.00 2418.00" xmlns="http://www.w3.org/2000/svg" xmlns:xlink="http://www.w3.org/1999/xlink">
<g id="graph0" class="graph" transform="scale(1 1) rotate(0) translate(4 2414)">
<title>G</title>
<polygon fill="white" stroke="transparent" points="-4,4 -4,-2414 2344,-2414 2344,4 -4,4"/>
<!-- http://www.w3.org/2002/07/owl#DatatypeProperty -->
<g id="node1" class="node">
<title>http://www.w3.org/2002/07/owl#DatatypeProperty</title>
<ellipse fill="none" stroke="#1f77b4" cx="1366.56" cy="-1416.4" rx="123.07" ry="16.03"/>
<text text-anchor="middle" x="1366.56" y="-1412.7" font-family="Times,serif" font-size="14.00">owl:DatatypeProperty</text>
</g>
<!-- https://w3id.org/oseg/ont/otrl#OTRL5 -->
<g id="node2" class="node">
<title>https://w3id.org/oseg/ont/otrl#OTRL5</title>
<ellipse fill="none" stroke="#e377c2" cx="1185.01" cy="-1857.46" rx="67.35" ry="16.03"/>
<text text-anchor="middle" x="1185.01" y="-1853.76" font-family="Times,serif" font-size="14.00">otrl:OTRL5</text>
</g>
<!-- https://w3id.org/oseg/ont/otrl#OTRL -->
<g id="node4" class="node">
<title>https://w3id.org/oseg/ont/otrl#OTRL</title>
<ellipse fill="none" stroke="#e377c2" cx="920.27" cy="-1666.26" rx="60.62" ry="16.03"/>
<text text-anchor="middle" x="920.27" y="-1662.56" font-family="Times,serif" font-size="14.00">otrl:OTRL</text>
</g>
<!-- https://w3id.org/oseg/ont/otrl#OTRL5&#45;&gt;https://w3id.org/oseg/ont/otrl#OTRL -->
<g id="edge1" class="edge">
<title>https://w3id.org/oseg/ont/otrl#OTRL5&#45;&gt;https://w3id.org/oseg/ont/otrl#OTRL</title>
<path fill="none" stroke="black" d="M1163.35,-1841.81C1116.09,-1807.68 1003.67,-1726.49 949.91,-1687.66"/>
<polygon fill="black" stroke="black" points="951.65,-1684.61 941.49,-1681.59 947.55,-1690.28 951.65,-1684.61"/>
</g>
<!-- https://w3id.org/oseg/ont/otrl#OTRL2 -->
<g id="node3" class="node">
<title>https://w3id.org/oseg/ont/otrl#OTRL2</title>
<ellipse fill="none" stroke="#e377c2" cx="626.58" cy="-1564.91" rx="67.35" ry="16.03"/>
<text text-anchor="middle" x="626.58" y="-1561.21" font-family="Times,serif" font-size="14.00">otrl:OTRL2</text>
</g>
<!-- https://w3id.org/oseg/ont/otrl#OTRL2&#45;&gt;https://w3id.org/oseg/ont/otrl#OTRL -->
<g id="edge53" class="edge">
<title>https://w3id.org/oseg/ont/otrl#OTRL2&#45;&gt;https://w3id.org/oseg/ont/otrl#OTRL</title>
<path fill="none" stroke="black" d="M665.27,-1578.27C718.87,-1596.76 815.6,-1630.14 873.28,-1650.04"/>
<polygon fill="black" stroke="black" points="872.28,-1653.4 882.88,-1653.36 874.57,-1646.79 872.28,-1653.4"/>
</g>
<!-- https://w3id.org/oseg/ont/otrl#ODRL -->
<g id="node5" class="node">
<title>https://w3id.org/oseg/ont/otrl#ODRL</title>
<ellipse fill="none" stroke="#e377c2" cx="1300.99" cy="-963.38" rx="62.87" ry="16.03"/>
<text text-anchor="middle" x="1300.99" y="-959.68" font-family="Times,serif" font-size="14.00">otrl:ODRL</text>
</g>
<!-- https://w3id.org/oseg/ont/otrl#OTRL4 -->
<g id="node6" class="node">
<title>https://w3id.org/oseg/ont/otrl#OTRL4</title>
<ellipse fill="none" stroke="#e377c2" cx="636.9" cy="-1806.76" rx="67.35" ry="16.03"/>
<text text-anchor="middle" x="636.9" y="-1803.06" font-family="Times,serif" font-size="14.00">otrl:OTRL4</text>
</g>
<!-- https://w3id.org/oseg/ont/otrl#OTRL4&#45;&gt;https://w3id.org/oseg/ont/otrl#OTRL -->
<g id="edge44" class="edge">
<title>https://w3id.org/oseg/ont/otrl#OTRL4&#45;&gt;https://w3id.org/oseg/ont/otrl#OTRL</title>
<path fill="none" stroke="black" d="M666.43,-1792.12C718.12,-1766.49 824.96,-1713.51 882.16,-1685.15"/>
<polygon fill="black" stroke="black" points="883.83,-1688.23 891.23,-1680.66 880.72,-1681.96 883.83,-1688.23"/>
</g>
<!-- https://w3id.org/oseg/ont/otrl#ODRL2 -->
<g id="node7" class="node">
<title>https://w3id.org/oseg/ont/otrl#ODRL2</title>
<ellipse fill="none" stroke="#e377c2" cx="1259.34" cy="-655.96" rx="69.09" ry="16.03"/>
<text text-anchor="middle" x="1259.34" y="-652.26" font-family="Times,serif" font-size="14.00">otrl:ODRL2</text>
</g>
<!-- https://w3id.org/oseg/ont/otrl#ODRL2&#45;&gt;https://w3id.org/oseg/ont/otrl#ODRL -->
<g id="edge47" class="edge">
<title>https://w3id.org/oseg/ont/otrl#ODRL2&#45;&gt;https://w3id.org/oseg/ont/otrl#ODRL</title>
<path fill="none" stroke="black" d="M1261.58,-672.49C1268.4,-722.84 1288.97,-874.67 1297.37,-936.62"/>
<polygon fill="black" stroke="black" points="1293.93,-937.33 1298.74,-946.77 1300.87,-936.39 1293.93,-937.33"/>
</g>
<!-- https://w3id.org/oseg/ont/otrl#ODRL1 -->
<g id="node8" class="node">
<title>https://w3id.org/oseg/ont/otrl#ODRL1</title>
<ellipse fill="none" stroke="#e377c2" cx="1431.48" cy="-667.55" rx="69.09" ry="16.03"/>
<text text-anchor="middle" x="1431.48" y="-663.85" font-family="Times,serif" font-size="14.00">otrl:ODRL1</text>
</g>
<!-- https://w3id.org/oseg/ont/otrl#ODRL1&#45;&gt;https://w3id.org/oseg/ont/otrl#ODRL -->
<g id="edge38" class="edge">
<title>https://w3id.org/oseg/ont/otrl#ODRL1&#45;&gt;https://w3id.org/oseg/ont/otrl#ODRL</title>
<path fill="none" stroke="black" d="M1424.28,-683.88C1402.71,-732.77 1338.53,-878.29 1312.32,-937.69"/>
<polygon fill="black" stroke="black" points="1309.01,-936.54 1308.17,-947.1 1315.41,-939.36 1309.01,-936.54"/>
</g>
<!-- http://www.w3.org/2002/07/owl#Ontology -->
<g id="node9" class="node">
<title>http://www.w3.org/2002/07/owl#Ontology</title>
<ellipse fill="none" stroke="#1f77b4" cx="1565.69" cy="-1569.71" rx="77.56" ry="16.03"/>
<text text-anchor="middle" x="1565.69" y="-1566.01" font-family="Times,serif" font-size="14.00">owl:Ontology</text>
</g>
<!-- https://w3id.org/oseg/ont/otrl#OTRL6 -->
<g id="node10" class="node">
<title>https://w3id.org/oseg/ont/otrl#OTRL6</title>
<ellipse fill="none" stroke="#e377c2" cx="894.38" cy="-1975.71" rx="67.35" ry="16.03"/>
<text text-anchor="middle" x="894.38" y="-1972.01" font-family="Times,serif" font-size="14.00">otrl:OTRL6</text>
</g>
<!-- https://w3id.org/oseg/ont/otrl#OTRL6&#45;&gt;https://w3id.org/oseg/ont/otrl#OTRL -->
<g id="edge17" class="edge">
<title>https://w3id.org/oseg/ont/otrl#OTRL6&#45;&gt;https://w3id.org/oseg/ont/otrl#OTRL</title>
<path fill="none" stroke="black" d="M895.78,-1959.08C900.03,-1908.27 912.86,-1754.84 918.05,-1692.76"/>
<polygon fill="black" stroke="black" points="921.55,-1692.86 918.9,-1682.61 914.58,-1692.28 921.55,-1692.86"/>
</g>
<!-- https://w3id.org/oseg/ont/otrl#OTRL3 -->
<g id="node11" class="node">
<title>https://w3id.org/oseg/ont/otrl#OTRL3</title>
<ellipse fill="none" stroke="#e377c2" cx="1057.49" cy="-1970.26" rx="67.35" ry="16.03"/>
<text text-anchor="middle" x="1057.49" y="-1966.56" font-family="Times,serif" font-size="14.00">otrl:OTRL3</text>
</g>
<!-- https://w3id.org/oseg/ont/otrl#OTRL3&#45;&gt;https://w3id.org/oseg/ont/otrl#OTRL -->
<g id="edge33" class="edge">
<title>https://w3id.org/oseg/ont/otrl#OTRL3&#45;&gt;https://w3id.org/oseg/ont/otrl#OTRL</title>
<path fill="none" stroke="black" d="M1050.11,-1953.92C1027.54,-1903.91 959.3,-1752.73 931.87,-1691.96"/>
<polygon fill="black" stroke="black" points="934.99,-1690.36 927.68,-1682.69 928.61,-1693.24 934.99,-1690.36"/>
</g>
<!-- https://w3id.org/oseg/ont/otrl#ODRL4 -->
<g id="node12" class="node">
<title>https://w3id.org/oseg/ont/otrl#ODRL4</title>
<ellipse fill="none" stroke="#e377c2" cx="1083.7" cy="-680.66" rx="69.09" ry="16.03"/>
<text text-anchor="middle" x="1083.7" y="-676.96" font-family="Times,serif" font-size="14.00">otrl:ODRL4</text>
</g>
<!-- https://w3id.org/oseg/ont/otrl#ODRL4&#45;&gt;https://w3id.org/oseg/ont/otrl#ODRL -->
<g id="edge6" class="edge">
<title>https://w3id.org/oseg/ont/otrl#ODRL4&#45;&gt;https://w3id.org/oseg/ont/otrl#ODRL</title>
<path fill="none" stroke="black" d="M1096,-696.67C1132.3,-743.89 1239.07,-882.81 1282.4,-939.19"/>
<polygon fill="black" stroke="black" points="1279.69,-941.4 1288.55,-947.19 1285.24,-937.13 1279.69,-941.4"/>
</g>
<!-- https://w3id.org/oseg/ont/otrl#OTRL1 -->
<g id="node13" class="node">
<title>https://w3id.org/oseg/ont/otrl#OTRL1</title>
<ellipse fill="none" stroke="#e377c2" cx="729.37" cy="-1935.38" rx="67.35" ry="16.03"/>
<text text-anchor="middle" x="729.37" y="-1931.68" font-family="Times,serif" font-size="14.00">otrl:OTRL1</text>
</g>
<!-- https://w3id.org/oseg/ont/otrl#OTRL1&#45;&gt;https://w3id.org/oseg/ont/otrl#OTRL -->
<g id="edge31" class="edge">
<title>https://w3id.org/oseg/ont/otrl#OTRL1&#45;&gt;https://w3id.org/oseg/ont/otrl#OTRL</title>
<path fill="none" stroke="black" d="M741.03,-1918.95C773.39,-1873.33 864.48,-1744.91 902.86,-1690.8"/>
<polygon fill="black" stroke="black" points="905.84,-1692.66 908.77,-1682.48 900.13,-1688.61 905.84,-1692.66"/>
</g>
<!-- https://w3id.org/oseg/ont/otrl#ODRL3Star -->
<g id="node14" class="node">
<title>https://w3id.org/oseg/ont/otrl#ODRL3Star</title>
<ellipse fill="none" stroke="#e377c2" cx="1644.01" cy="-1040.16" rx="90.52" ry="16.03"/>
<text text-anchor="middle" x="1644.01" y="-1036.46" font-family="Times,serif" font-size="14.00">otrl:ODRL3Star</text>
</g>
<!-- https://w3id.org/oseg/ont/otrl#ODRL3Star&#45;&gt;https://w3id.org/oseg/ont/otrl#ODRL -->
<g id="edge51" class="edge">
<title>https://w3id.org/oseg/ont/otrl#ODRL3Star&#45;&gt;https://w3id.org/oseg/ont/otrl#ODRL</title>
<path fill="none" stroke="black" d="M1586.98,-1027.39C1523.69,-1013.23 1422.12,-990.49 1358.6,-976.27"/>
<polygon fill="black" stroke="black" points="1359.27,-972.83 1348.74,-974.06 1357.74,-979.66 1359.27,-972.83"/>
</g>
<!-- https://w3id.org/oseg/ont/otrl#ODRL3 -->
<g id="node15" class="node">
<title>https://w3id.org/oseg/ont/otrl#ODRL3</title>
<ellipse fill="none" stroke="#e377c2" cx="1616.81" cy="-867.45" rx="69.09" ry="16.03"/>
<text text-anchor="middle" x="1616.81" y="-863.75" font-family="Times,serif" font-size="14.00">otrl:ODRL3</text>
</g>
<!-- https://w3id.org/oseg/ont/otrl#ODRL3&#45;&gt;https://w3id.org/oseg/ont/otrl#ODRL -->
<g id="edge2" class="edge">
<title>https://w3id.org/oseg/ont/otrl#ODRL3&#45;&gt;https://w3id.org/oseg/ont/otrl#ODRL</title>
<path fill="none" stroke="black" d="M1574.22,-880.39C1516.49,-897.92 1413.53,-929.2 1351.82,-947.94"/>
<polygon fill="black" stroke="black" points="1350.46,-944.69 1341.91,-950.95 1352.5,-951.39 1350.46,-944.69"/>
</g>
<!-- https://w3id.org/oseg/ont/otrl#Odrl4 -->
<g id="node16" class="node">
<title>https://w3id.org/oseg/ont/otrl#Odrl4</title>
<ellipse fill="none" stroke="#e377c2" cx="929.38" cy="-391.99" rx="61.54" ry="16.03"/>
<text text-anchor="middle" x="929.38" y="-388.29" font-family="Times,serif" font-size="14.00">otrl:Odrl4</text>
</g>
<!-- https://w3id.org/oseg/ont/otrl#Odrl4&#45;&gt;https://w3id.org/oseg/ont/otrl#ODRL4 -->
<g id="edge14" class="edge">
<title>https://w3id.org/oseg/ont/otrl#Odrl4&#45;&gt;https://w3id.org/oseg/ont/otrl#ODRL4</title>
<path fill="none" stroke="black" d="M934.44,-408.2C955.14,-456.31 1030.62,-598.15 1065.77,-655.86"/>
<polygon fill="black" stroke="black" points="1062.81,-657.72 1071.05,-664.38 1068.75,-654.03 1062.81,-657.72"/>
<text text-anchor="middle" x="957.6" y="-535.83" font-family="Times,serif" font-size="14.00">owl:sameAs</text>
</g>
<!-- https://w3id.org/oseg/ont/otrl#Odrl4&#45;&gt;https://w3id.org/oseg/ont/otrl#ODRL4 -->
<g id="edge37" class="edge">
<title>https://w3id.org/oseg/ont/otrl#Odrl4&#45;&gt;https://w3id.org/oseg/ont/otrl#ODRL4</title>
<path fill="none" stroke="black" d="M941.84,-407.99C972.12,-455.63 1047.66,-596.61 1074.42,-654.97"/>
<polygon fill="black" stroke="black" points="1071.28,-656.53 1078.55,-664.23 1077.67,-653.67 1071.28,-656.53"/>
<text text-anchor="middle" x="928.13" y="-520.28" font-family="Times,serif" font-size="14.00">schema:supersededBy</text>
</g>
<!-- https://w3id.org/oseg/ont/otrl -->
<g id="node17" class="node">
<title>https://w3id.org/oseg/ont/otrl</title>
<ellipse fill="none" stroke="#e377c2" cx="1733.65" cy="-1669.06" rx="50.82" ry="16.03"/>
<text text-anchor="middle" x="1733.65" y="-1665.36" font-family="Times,serif" font-size="14.00">ns1:otrl</text>
</g>
<!-- https://w3id.org/oseg/ont/otrl&#45;&gt;http://www.w3.org/2002/07/owl#Ontology -->
<g id="edge4" class="edge">
<title>https://w3id.org/oseg/ont/otrl&#45;&gt;http://www.w3.org/2002/07/owl#Ontology</title>
<path fill="none" stroke="black" d="M1709.23,-1654.61C1680.62,-1637.69 1633.01,-1609.53 1600.53,-1590.32"/>
<polygon fill="black" stroke="black" points="1602.19,-1587.23 1591.8,-1585.15 1598.62,-1593.26 1602.19,-1587.23"/>
<text text-anchor="middle" x="1650.38" y="-1626.26" font-family="Times,serif" font-size="14.00">a</text>
</g>
<!-- https://www.gnu.org/licenses/gpl&#45;3.0.txt -->
<g id="node19" class="node">
<title>https://www.gnu.org/licenses/gpl&#45;3.0.txt</title>
<ellipse fill="none" stroke="#e377c2" cx="1874.62" cy="-1612.86" rx="85.62" ry="16.03"/>
<text text-anchor="middle" x="1874.62" y="-1609.16" font-family="Times,serif" font-size="14.00">ns2:gpl&#45;3.0.txt</text>
</g>
<!-- https://w3id.org/oseg/ont/otrl&#45;&gt;https://www.gnu.org/licenses/gpl&#45;3.0.txt -->
<g id="edge24" class="edge">
<title>https://w3id.org/oseg/ont/otrl&#45;&gt;https://www.gnu.org/licenses/gpl&#45;3.0.txt</title>
<path fill="none" stroke="black" d="M1774.8,-1659.23C1795.73,-1651.85 1820.84,-1641.8 1840.65,-1632.85"/>
<polygon fill="black" stroke="black" points="1842.3,-1635.94 1849.9,-1628.56 1839.36,-1629.59 1842.3,-1635.94"/>
<text text-anchor="middle" x="1864.23" y="-1649.84" font-family="Times,serif" font-size="14.00">dcterms:license</text>
</g>
<!-- https://w3id.org/oseg/ont/otrl&#45;&gt;https://www.gnu.org/licenses/gpl&#45;3.0.txt -->
<g id="edge36" class="edge">
<title>https://w3id.org/oseg/ont/otrl&#45;&gt;https://www.gnu.org/licenses/gpl&#45;3.0.txt</title>
<path fill="none" stroke="black" d="M1756.25,-1654.38C1772.07,-1646.73 1793.97,-1637.5 1814.64,-1629.61"/>
<polygon fill="black" stroke="black" points="1815.89,-1632.88 1824.03,-1626.1 1813.44,-1626.33 1815.89,-1632.88"/>
<text text-anchor="middle" x="1750.45" y="-1630.8" font-family="Times,serif" font-size="14.00">cc:license</text>
</g>
<!-- https://orcid.org/0009&#45;0004&#45;3559&#45;6542 -->
<g id="node20" class="node">
<title>https://orcid.org/0009&#45;0004&#45;3559&#45;6542</title>
<ellipse fill="none" stroke="#e377c2" cx="1741.65" cy="-1710.51" rx="113.69" ry="16.03"/>
<text text-anchor="middle" x="1741.65" y="-1706.81" font-family="Times,serif" font-size="14.00">orcid:0009&#45;0004&#45;3...</text>
</g>
<!-- https://w3id.org/oseg/ont/otrl&#45;&gt;https://orcid.org/0009&#45;0004&#45;3559&#45;6542 -->
<g id="edge25" class="edge">
<title>https://w3id.org/oseg/ont/otrl&#45;&gt;https://orcid.org/0009&#45;0004&#45;3559&#45;6542</title>
<path fill="none" stroke="black" d="M1736.81,-1685.44C1736.83,-1685.53 1736.85,-1685.62 1736.86,-1685.71"/>
<polygon fill="black" stroke="black" points="1733.18,-1685.09 1738.51,-1694.25 1740.05,-1683.77 1733.18,-1685.09"/>
<text text-anchor="middle" x="1679.34" y="-1689.38" font-family="Times,serif" font-size="14.00">dcterms:creator</text>
</g>
<!-- https://orcid.org/0000&#45;0002&#45;1611&#45;7129 -->
<g id="node23" class="node">
<title>https://orcid.org/0000&#45;0002&#45;1611&#45;7129</title>
<ellipse fill="none" stroke="#e377c2" cx="1966.1" cy="-1753.86" rx="113.69" ry="16.03"/>
<text text-anchor="middle" x="1966.1" y="-1750.16" font-family="Times,serif" font-size="14.00">orcid:0000&#45;0002&#45;1...</text>
</g>
<!-- https://w3id.org/oseg/ont/otrl&#45;&gt;https://orcid.org/0000&#45;0002&#45;1611&#45;7129 -->
<g id="edge43" class="edge">
<title>https://w3id.org/oseg/ont/otrl&#45;&gt;https://orcid.org/0000&#45;0002&#45;1611&#45;7129</title>
<path fill="none" stroke="black" d="M1767.45,-1681.39C1806.16,-1695.51 1870.01,-1718.8 1914.85,-1735.16"/>
<polygon fill="black" stroke="black" points="1913.8,-1738.5 1924.4,-1738.64 1916.2,-1731.93 1913.8,-1738.5"/>
<text text-anchor="middle" x="1898.65" y="-1697.08" font-family="Times,serif" font-size="14.00">dcterms:creator</text>
</g>
<!-- http://id.loc.gov/vocabulary/iso639&#45;1/en -->
<g id="node24" class="node">
<title>http://id.loc.gov/vocabulary/iso639&#45;1/en</title>
<ellipse fill="none" stroke="#e377c2" cx="1585.92" cy="-1753" rx="45.01" ry="16.03"/>
<text text-anchor="middle" x="1585.92" y="-1749.3" font-family="Times,serif" font-size="14.00">ns3:en</text>
</g>
<!-- https://w3id.org/oseg/ont/otrl&#45;&gt;http://id.loc.gov/vocabulary/iso639&#45;1/en -->
<g id="edge45" class="edge">
<title>https://w3id.org/oseg/ont/otrl&#45;&gt;http://id.loc.gov/vocabulary/iso639&#45;1/en</title>
<path fill="none" stroke="black" d="M1708.59,-1683.3C1683.89,-1697.33 1646.01,-1718.86 1618.88,-1734.28"/>
<polygon fill="black" stroke="black" points="1617.09,-1731.27 1610.12,-1739.25 1620.55,-1737.35 1617.09,-1731.27"/>
<text text-anchor="middle" x="1599.23" y="-1712.59" font-family="Times,serif" font-size="14.00">dcterms:language</text>
</g>
<!-- https://w3id.org/oseg/ont/1.1.0/otrl -->
<g id="node25" class="node">
<title>https://w3id.org/oseg/ont/1.1.0/otrl</title>
<ellipse fill="none" stroke="#e377c2" cx="1750.03" cy="-1503.85" rx="50.82" ry="16.03"/>
<text text-anchor="middle" x="1750.03" y="-1500.15" font-family="Times,serif" font-size="14.00">ns4:otrl</text>
</g>
<!-- https://w3id.org/oseg/ont/otrl&#45;&gt;https://w3id.org/oseg/ont/1.1.0/otrl -->
<g id="edge5" class="edge">
<title>https://w3id.org/oseg/ont/otrl&#45;&gt;https://w3id.org/oseg/ont/1.1.0/otrl</title>
<path fill="none" stroke="black" d="M1735.28,-1652.61C1738.11,-1624.04 1743.97,-1564.98 1747.39,-1530.5"/>
<polygon fill="black" stroke="black" points="1750.9,-1530.53 1748.4,-1520.23 1743.93,-1529.84 1750.9,-1530.53"/>
<text text-anchor="middle" x="1689.83" y="-1595.36" font-family="Times,serif" font-size="14.00">owl:versionIRI</text>
</g>
<!-- http://schema.org/Text -->
<g id="node18" class="node">
<title>http://schema.org/Text</title>
<ellipse fill="none" stroke="#e377c2" cx="910.32" cy="-1175.92" rx="74.91" ry="16.03"/>
<text text-anchor="middle" x="910.32" y="-1172.22" font-family="Times,serif" font-size="14.00">schema:Text</text>
</g>
<!-- https://w3id.org/oseg/ont/otrl#exitCriteria -->
<g id="node21" class="node">
<title>https://w3id.org/oseg/ont/otrl#exitCriteria</title>
<ellipse fill="none" stroke="#e377c2" cx="1149.99" cy="-1336.06" rx="91.43" ry="16.03"/>
<text text-anchor="middle" x="1149.99" y="-1332.36" font-family="Times,serif" font-size="14.00">otrl:exitCriteria</text>
</g>
<!-- https://w3id.org/oseg/ont/otrl#exitCriteria&#45;&gt;http://www.w3.org/2002/07/owl#DatatypeProperty -->
<g id="edge27" class="edge">
<title>https://w3id.org/oseg/ont/otrl#exitCriteria&#45;&gt;http://www.w3.org/2002/07/owl#DatatypeProperty</title>
<path fill="none" stroke="black" d="M1189.71,-1350.79C1225.17,-1363.95 1277.3,-1383.29 1315.78,-1397.56"/>
<polygon fill="black" stroke="black" points="1314.65,-1400.88 1325.25,-1401.08 1317.09,-1394.32 1314.65,-1400.88"/>
<text text-anchor="middle" x="1248.24" y="-1377.98" font-family="Times,serif" font-size="14.00">a</text>
</g>
<!-- https://w3id.org/oseg/ont/otrl#exitCriteria&#45;&gt;https://w3id.org/oseg/ont/otrl#OTRL -->
<g id="edge21" class="edge">
<title>https://w3id.org/oseg/ont/otrl#exitCriteria&#45;&gt;https://w3id.org/oseg/ont/otrl#OTRL</title>
<path fill="none" stroke="black" d="M1138.6,-1352.43C1101.16,-1406.25 981.76,-1577.87 937.23,-1641.88"/>
<polygon fill="black" stroke="black" points="934.3,-1639.97 931.46,-1650.18 940.04,-1643.97 934.3,-1639.97"/>
<text text-anchor="middle" x="951.91" y="-1500.96" font-family="Times,serif" font-size="14.00">schema:domainIncludes</text>
</g>
<!-- https://w3id.org/oseg/ont/otrl#exitCriteria&#45;&gt;https://w3id.org/oseg/ont/otrl#ODRL -->
<g id="edge46" class="edge">
<title>https://w3id.org/oseg/ont/otrl#exitCriteria&#45;&gt;https://w3id.org/oseg/ont/otrl#ODRL</title>
<path fill="none" stroke="black" d="M1156.67,-1319.56C1180.5,-1260.75 1261.42,-1061.04 1290.49,-989.3"/>
<polygon fill="black" stroke="black" points="1293.88,-990.26 1294.39,-979.68 1287.39,-987.63 1293.88,-990.26"/>
<text text-anchor="middle" x="1137.58" y="-1158.23" font-family="Times,serif" font-size="14.00">schema:domainIncludes</text>
</g>
<!-- https://w3id.org/oseg/ont/otrl#exitCriteria&#45;&gt;http://schema.org/Text -->
<g id="edge22" class="edge">
<title>https://w3id.org/oseg/ont/otrl#exitCriteria&#45;&gt;http://schema.org/Text</title>
<path fill="none" stroke="black" d="M1126.13,-1320.12C1082.78,-1291.15 991.04,-1229.85 942.31,-1197.29"/>
<polygon fill="black" stroke="black" points="943.99,-1194.21 933.73,-1191.56 940.1,-1200.03 943.99,-1194.21"/>
<text text-anchor="middle" x="1013.22" y="-1262.51" font-family="Times,serif" font-size="14.00">range</text>
</g>
<!-- https://w3id.org/oseg/ont/otrl#goal -->
<g id="node22" class="node">
<title>https://w3id.org/oseg/ont/otrl#goal</title>
<ellipse fill="none" stroke="#e377c2" cx="1072.39" cy="-1293.86" rx="54.39" ry="16.03"/>
<text text-anchor="middle" x="1072.39" y="-1290.16" font-family="Times,serif" font-size="14.00">otrl:goal</text>
</g>
<!-- https://w3id.org/oseg/ont/otrl#goal&#45;&gt;http://www.w3.org/2002/07/owl#DatatypeProperty -->
<g id="edge29" class="edge">
<title>https://w3id.org/oseg/ont/otrl#goal&#45;&gt;http://www.w3.org/2002/07/owl#DatatypeProperty</title>
<path fill="none" stroke="black" d="M1104.15,-1307.09C1156.05,-1328.71 1259.27,-1371.71 1319.63,-1396.86"/>
<polygon fill="black" stroke="black" points="1318.36,-1400.12 1328.94,-1400.73 1321.05,-1393.66 1318.36,-1400.12"/>
<text text-anchor="middle" x="1207.39" y="-1355.77" font-family="Times,serif" font-size="14.00">a</text>
</g>
<!-- https://w3id.org/oseg/ont/otrl#goal&#45;&gt;https://w3id.org/oseg/ont/otrl#OTRL -->
<g id="edge49" class="edge">
<title>https://w3id.org/oseg/ont/otrl#goal&#45;&gt;https://w3id.org/oseg/ont/otrl#OTRL</title>
<path fill="none" stroke="black" d="M1065.66,-1310.34C1041.65,-1369.1 960.13,-1568.66 930.85,-1640.35"/>
<polygon fill="black" stroke="black" points="927.46,-1639.39 926.92,-1649.97 933.94,-1642.04 927.46,-1639.39"/>
<text text-anchor="middle" x="912.25" y="-1479.15" font-family="Times,serif" font-size="14.00">schema:domainIncludes</text>
</g>
<!-- https://w3id.org/oseg/ont/otrl#goal&#45;&gt;https://w3id.org/oseg/ont/otrl#ODRL -->
<g id="edge26" class="edge">
<title>https://w3id.org/oseg/ont/otrl#goal&#45;&gt;https://w3id.org/oseg/ont/otrl#ODRL</title>
<path fill="none" stroke="black" d="M1083.41,-1277.92C1120.3,-1224.6 1239.55,-1052.2 1284.04,-987.88"/>
<polygon fill="black" stroke="black" points="1287,-989.76 1289.81,-979.54 1281.24,-985.78 1287,-989.76"/>
<text text-anchor="middle" x="1097.73" y="-1136.7" font-family="Times,serif" font-size="14.00">schema:domainIncludes</text>
</g>
<!-- https://w3id.org/oseg/ont/otrl#goal&#45;&gt;http://schema.org/Text -->
<g id="edge18" class="edge">
<title>https://w3id.org/oseg/ont/otrl#goal&#45;&gt;http://schema.org/Text</title>
<path fill="none" stroke="black" d="M1051.53,-1278.68C1023.2,-1258.06 972.39,-1221.09 940.07,-1197.57"/>
<polygon fill="black" stroke="black" points="942.02,-1194.66 931.87,-1191.6 937.9,-1200.32 942.02,-1194.66"/>
<text text-anchor="middle" x="974.8" y="-1241.92" font-family="Times,serif" font-size="14.00">range</text>
</g>
<!-- https://w3id.org/oseg/ont/otrl#Odrl5 -->
<g id="node26" class="node">
<title>https://w3id.org/oseg/ont/otrl#Odrl5</title>
<ellipse fill="none" stroke="black" cx="753.11" cy="-16.06" rx="196.65" ry="16.03"/>
<text text-anchor="middle" x="753.11" y="-12.36" font-family="Times,serif" font-size="14.00">https://w3id.org/oseg/ont/otrl#Odrl5</text>
</g>
<!-- https://w3id.org/oseg/ont/otrl#Odrl5&#45;&gt;https://w3id.org/oseg/ont/otrl#Odrl4 -->
<g id="edge3" class="edge">
<title>https://w3id.org/oseg/ont/otrl#Odrl5&#45;&gt;https://w3id.org/oseg/ont/otrl#Odrl4</title>
<path fill="none" stroke="black" d="M757.64,-32.49C780.09,-91.88 875.26,-295.47 913.58,-366.96"/>
<polygon fill="black" stroke="black" points="910.53,-368.66 918.39,-375.76 916.67,-365.31 910.53,-368.66"/>
<text text-anchor="middle" x="793.11" y="-203.52" font-family="Times,serif" font-size="14.00">owl:sameAs</text>
</g>
<!-- https://w3id.org/oseg/ont/otrl#Odrl5&#45;&gt;https://w3id.org/oseg/ont/otrl#Odrl4 -->
<g id="edge48" class="edge">
<title>https://w3id.org/oseg/ont/otrl#Odrl5&#45;&gt;https://w3id.org/oseg/ont/otrl#Odrl4</title>
<path fill="none" stroke="black" d="M764.16,-32.39C797.06,-91.39 892.07,-293.64 921.12,-366"/>
<polygon fill="black" stroke="black" points="918.01,-367.67 924.91,-375.71 924.53,-365.12 918.01,-367.67"/>
<text text-anchor="middle" x="762.64" y="-188" font-family="Times,serif" font-size="14.00">schema:supersededBy</text>
</g>
<!-- https://w3id.org/oseg/ont/otrl#Otrl1 -->
<g id="node27" class="node">
<title>https://w3id.org/oseg/ont/otrl#Otrl1</title>
<ellipse fill="none" stroke="black" cx="511.45" cy="-2322.28" rx="194.41" ry="16.03"/>
<text text-anchor="middle" x="511.45" y="-2318.58" font-family="Times,serif" font-size="14.00">https://w3id.org/oseg/ont/otrl#Otrl1</text>
</g>
<!-- https://w3id.org/oseg/ont/otrl#Otrl1&#45;&gt;https://w3id.org/oseg/ont/otrl#OTRL1 -->
<g id="edge7" class="edge">
<title>https://w3id.org/oseg/ont/otrl#Otrl1&#45;&gt;https://w3id.org/oseg/ont/otrl#OTRL1</title>
<path fill="none" stroke="black" d="M524.35,-2305.65C564.1,-2244.79 682.77,-2034.37 718.97,-1960.9"/>
<polygon fill="black" stroke="black" points="722.14,-1962.38 723.34,-1951.85 715.84,-1959.34 722.14,-1962.38"/>
<text text-anchor="middle" x="541.66" y="-2137.07" font-family="Times,serif" font-size="14.00">schema:supersededBy</text>
</g>
<!-- https://w3id.org/oseg/ont/otrl#Otrl1&#45;&gt;https://w3id.org/oseg/ont/otrl#OTRL1 -->
<g id="edge8" class="edge">
<title>https://w3id.org/oseg/ont/otrl#Otrl1&#45;&gt;https://w3id.org/oseg/ont/otrl#OTRL1</title>
<path fill="none" stroke="black" d="M517.53,-2305.72C546.2,-2244.75 665.24,-2032.87 711.29,-1960.1"/>
<polygon fill="black" stroke="black" points="714.32,-1961.85 716.78,-1951.55 708.43,-1958.07 714.32,-1961.85"/>
<text text-anchor="middle" x="571.91" y="-2121.71" font-family="Times,serif" font-size="14.00">owl:sameAs</text>
</g>
<!-- https://w3id.org/oseg/ont/otrl#Otrl2 -->
<g id="node28" class="node">
<title>https://w3id.org/oseg/ont/otrl#Otrl2</title>
<ellipse fill="none" stroke="black" cx="194.36" cy="-1489.3" rx="194.41" ry="16.03"/>
<text text-anchor="middle" x="194.36" y="-1485.6" font-family="Times,serif" font-size="14.00">https://w3id.org/oseg/ont/otrl#Otrl2</text>
</g>
<!-- https://w3id.org/oseg/ont/otrl#Otrl2&#45;&gt;https://w3id.org/oseg/ont/otrl#OTRL2 -->
<g id="edge9" class="edge">
<title>https://w3id.org/oseg/ont/otrl#Otrl2&#45;&gt;https://w3id.org/oseg/ont/otrl#OTRL2</title>
<path fill="none" stroke="black" d="M254.53,-1504.77C332.94,-1520.92 469.92,-1544.99 554,-1557.47"/>
<polygon fill="black" stroke="black" points="553.58,-1560.94 563.99,-1558.93 554.6,-1554.02 553.58,-1560.94"/>
<text text-anchor="middle" x="361.76" y="-1534.92" font-family="Times,serif" font-size="14.00">owl:sameAs</text>
</g>
<!-- https://w3id.org/oseg/ont/otrl#Otrl2&#45;&gt;https://w3id.org/oseg/ont/otrl#OTRL2 -->
<g id="edge10" class="edge">
<title>https://w3id.org/oseg/ont/otrl#Otrl2&#45;&gt;https://w3id.org/oseg/ont/otrl#OTRL2</title>
<path fill="none" stroke="black" d="M305.57,-1502.69C391.09,-1516.27 505.55,-1536.73 572.15,-1550.63"/>
<polygon fill="black" stroke="black" points="571.51,-1554.07 582.02,-1552.72 572.96,-1547.22 571.51,-1554.07"/>
<text text-anchor="middle" x="358.86" y="-1515.46" font-family="Times,serif" font-size="14.00">schema:supersededBy</text>
</g>
<!-- https://w3id.org/oseg/ont/otrl#Otrl -->
<g id="node29" class="node">
<title>https://w3id.org/oseg/ont/otrl#Otrl</title>
<ellipse fill="none" stroke="black" cx="500.33" cy="-1685.62" rx="188.18" ry="16.03"/>
<text text-anchor="middle" x="500.33" y="-1681.92" font-family="Times,serif" font-size="14.00">https://w3id.org/oseg/ont/otrl#Otrl</text>
</g>
<!-- https://w3id.org/oseg/ont/otrl#Otrl&#45;&gt;https://w3id.org/oseg/ont/otrl#OTRL -->
<g id="edge11" class="edge">
<title>https://w3id.org/oseg/ont/otrl#Otrl&#45;&gt;https://w3id.org/oseg/ont/otrl#OTRL</title>
<path fill="none" stroke="black" d="M687.28,-1683.72C747.44,-1681.14 810.15,-1677.7 855.34,-1674.31"/>
<polygon fill="black" stroke="black" points="855.87,-1677.78 865.57,-1673.52 855.33,-1670.8 855.87,-1677.78"/>
<text text-anchor="middle" x="813.81" y="-1682.82" font-family="Times,serif" font-size="14.00">owl:sameAs</text>
</g>
<!-- https://w3id.org/oseg/ont/otrl#Otrl&#45;&gt;https://w3id.org/oseg/ont/otrl#OTRL -->
<g id="edge28" class="edge">
<title>https://w3id.org/oseg/ont/otrl#Otrl&#45;&gt;https://w3id.org/oseg/ont/otrl#OTRL</title>
<path fill="none" stroke="black" d="M626.61,-1673.54C699.62,-1669.26 788.77,-1665.5 849.56,-1664.32"/>
<polygon fill="black" stroke="black" points="849.88,-1667.81 859.82,-1664.14 849.76,-1660.82 849.88,-1667.81"/>
<text text-anchor="middle" x="658.08" y="-1657.73" font-family="Times,serif" font-size="14.00">schema:supersededBy</text>
</g>
<!-- https://w3id.org/oseg/ont/otrl#Odrl -->
<g id="node30" class="node">
<title>https://w3id.org/oseg/ont/otrl#Odrl</title>
<ellipse fill="none" stroke="black" cx="1651.32" cy="-709.12" rx="190.42" ry="16.03"/>
<text text-anchor="middle" x="1651.32" y="-705.42" font-family="Times,serif" font-size="14.00">https://w3id.org/oseg/ont/otrl#Odrl</text>
</g>
<!-- https://w3id.org/oseg/ont/otrl#Odrl&#45;&gt;https://w3id.org/oseg/ont/otrl#ODRL -->
<g id="edge12" class="edge">
<title>https://w3id.org/oseg/ont/otrl#Odrl&#45;&gt;https://w3id.org/oseg/ont/otrl#ODRL</title>
<path fill="none" stroke="black" d="M1622.48,-725.37C1554.9,-769.53 1387.6,-890.96 1325.05,-941.26"/>
<polygon fill="black" stroke="black" points="1322.82,-938.56 1317.27,-947.59 1327.24,-943.99 1322.82,-938.56"/>
<text text-anchor="middle" x="1393.76" y="-837.12" font-family="Times,serif" font-size="14.00">schema:supersededBy</text>
</g>
<!-- https://w3id.org/oseg/ont/otrl#Odrl&#45;&gt;https://w3id.org/oseg/ont/otrl#ODRL -->
<g id="edge13" class="edge">
<title>https://w3id.org/oseg/ont/otrl#Odrl&#45;&gt;https://w3id.org/oseg/ont/otrl#ODRL</title>
<path fill="none" stroke="black" d="M1634.4,-725.43C1580.21,-770.13 1410.55,-893.62 1336.31,-942.86"/>
<polygon fill="black" stroke="black" points="1334.18,-940.08 1327.74,-948.49 1338.02,-945.93 1334.18,-940.08"/>
<text text-anchor="middle" x="1527.86" y="-837.95" font-family="Times,serif" font-size="14.00">owl:sameAs</text>
</g>
<!-- https://w3id.org/oseg/ont/otrl#Otrl6 -->
<g id="node31" class="node">
<title>https://w3id.org/oseg/ont/otrl#Otrl6</title>
<ellipse fill="none" stroke="black" cx="890.37" cy="-2016.3" rx="194.41" ry="16.03"/>
<text text-anchor="middle" x="890.37" y="-2012.6" font-family="Times,serif" font-size="14.00">https://w3id.org/oseg/ont/otrl#Otrl6</text>
</g>
<!-- https://w3id.org/oseg/ont/otrl#Otrl6&#45;&gt;https://w3id.org/oseg/ont/otrl#OTRL6 -->
<g id="edge15" class="edge">
<title>https://w3id.org/oseg/ont/otrl#Otrl6&#45;&gt;https://w3id.org/oseg/ont/otrl#OTRL6</title>
<path fill="none" stroke="black" d="M898.68,-1999.98C898.71,-1999.82 898.73,-1999.66 898.76,-1999.49"/>
<polygon fill="black" stroke="black" points="902.02,-2002.37 899.39,-1992.11 895.05,-2001.77 902.02,-2002.37"/>
<text text-anchor="middle" x="818.72" y="-1988.54" font-family="Times,serif" font-size="14.00">schema:supersededBy</text>
</g>
<!-- https://w3id.org/oseg/ont/otrl#Otrl6&#45;&gt;https://w3id.org/oseg/ont/otrl#OTRL6 -->
<g id="edge16" class="edge">
<title>https://w3id.org/oseg/ont/otrl#Otrl6&#45;&gt;https://w3id.org/oseg/ont/otrl#OTRL6</title>
<path fill="none" stroke="black" d="M885.37,-1999.61C885.38,-1999.45 885.38,-1999.3 885.39,-1999.14"/>
<polygon fill="black" stroke="black" points="888.6,-2002.34 886.07,-1992.05 881.63,-2001.67 888.6,-2002.34"/>
<text text-anchor="middle" x="927.88" y="-1988.17" font-family="Times,serif" font-size="14.00">owl:sameAs</text>
</g>
<!-- https://w3id.org/oseg/ont/otrl#Otrl3 -->
<g id="node32" class="node">
<title>https://w3id.org/oseg/ont/otrl#Otrl3</title>
<ellipse fill="none" stroke="black" cx="1156.57" cy="-2393.78" rx="194.41" ry="16.03"/>
<text text-anchor="middle" x="1156.57" y="-2390.08" font-family="Times,serif" font-size="14.00">https://w3id.org/oseg/ont/otrl#Otrl3</text>
</g>
<!-- https://w3id.org/oseg/ont/otrl#Otrl3&#45;&gt;https://w3id.org/oseg/ont/otrl#OTRL3 -->
<g id="edge19" class="edge">
<title>https://w3id.org/oseg/ont/otrl#Otrl3&#45;&gt;https://w3id.org/oseg/ont/otrl#OTRL3</title>
<path fill="none" stroke="black" d="M1155.57,-2377.32C1145.62,-2312.65 1090.45,-2075.75 1067.21,-1996.37"/>
<polygon fill="black" stroke="black" points="1070.52,-1995.22 1064.28,-1986.66 1063.82,-1997.25 1070.52,-1995.22"/>
<text text-anchor="middle" x="1031.39" y="-2175.64" font-family="Times,serif" font-size="14.00">schema:supersededBy</text>
</g>
<!-- https://w3id.org/oseg/ont/otrl#Otrl3&#45;&gt;https://w3id.org/oseg/ont/otrl#OTRL3 -->
<g id="edge20" class="edge">
<title>https://w3id.org/oseg/ont/otrl#Otrl3&#45;&gt;https://w3id.org/oseg/ont/otrl#OTRL3</title>
<path fill="none" stroke="black" d="M1149.77,-2377.31C1129.58,-2312.81 1074.25,-2077.17 1060.22,-1997.09"/>
<polygon fill="black" stroke="black" points="1063.61,-1996.15 1058.52,-1986.86 1056.7,-1997.3 1063.61,-1996.15"/>
<text text-anchor="middle" x="1062.49" y="-2191" font-family="Times,serif" font-size="14.00">owl:sameAs</text>
</g>
<!-- https://w3id.org/oseg/ont/otrl#Odrl2 -->
<g id="node33" class="node">
<title>https://w3id.org/oseg/ont/otrl#Odrl2</title>
<ellipse fill="none" stroke="black" cx="1254.57" cy="-614.25" rx="196.65" ry="16.03"/>
<text text-anchor="middle" x="1254.57" y="-610.55" font-family="Times,serif" font-size="14.00">https://w3id.org/oseg/ont/otrl#Odrl2</text>
</g>
<!-- https://w3id.org/oseg/ont/otrl#Odrl2&#45;&gt;https://w3id.org/oseg/ont/otrl#ODRL2 -->
<g id="edge23" class="edge">
<title>https://w3id.org/oseg/ont/otrl#Odrl2&#45;&gt;https://w3id.org/oseg/ont/otrl#ODRL2</title>
<path fill="none" stroke="black" d="M1249.84,-630.52C1249.84,-630.62 1249.84,-630.71 1249.85,-630.8"/>
<polygon fill="black" stroke="black" points="1246.25,-630.05 1250.78,-639.63 1253.21,-629.32 1246.25,-630.05"/>
<text text-anchor="middle" x="1169.84" y="-634.46" font-family="Times,serif" font-size="14.00">schema:supersededBy</text>
</g>
<!-- https://w3id.org/oseg/ont/otrl#Odrl2&#45;&gt;https://w3id.org/oseg/ont/otrl#ODRL2 -->
<g id="edge52" class="edge">
<title>https://w3id.org/oseg/ont/otrl#Odrl2&#45;&gt;https://w3id.org/oseg/ont/otrl#ODRL2</title>
<path fill="none" stroke="black" d="M1263.19,-630.94C1263.2,-631.02 1263.22,-631.11 1263.23,-631.2"/>
<polygon fill="black" stroke="black" points="1259.59,-629.96 1264.06,-639.56 1266.56,-629.26 1259.59,-629.96"/>
<text text-anchor="middle" x="1305.71" y="-634.87" font-family="Times,serif" font-size="14.00">owl:sameAs</text>
</g>
<!-- https://w3id.org/oseg/ont/otrl#Odrl1 -->
<g id="node34" class="node">
<title>https://w3id.org/oseg/ont/otrl#Odrl1</title>
<ellipse fill="none" stroke="black" cx="1613.05" cy="-265.2" rx="196.65" ry="16.03"/>
<text text-anchor="middle" x="1613.05" y="-261.5" font-family="Times,serif" font-size="14.00">https://w3id.org/oseg/ont/otrl#Odrl1</text>
</g>
<!-- https://w3id.org/oseg/ont/otrl#Odrl1&#45;&gt;https://w3id.org/oseg/ont/otrl#ODRL1 -->
<g id="edge30" class="edge">
<title>https://w3id.org/oseg/ont/otrl#Odrl1&#45;&gt;https://w3id.org/oseg/ont/otrl#ODRL1</title>
<path fill="none" stroke="black" d="M1602.42,-281.52C1569.04,-343.65 1468.82,-565.36 1439.41,-641.6"/>
<polygon fill="black" stroke="black" points="1436.13,-640.37 1435.89,-650.96 1442.68,-642.83 1436.13,-640.37"/>
<text text-anchor="middle" x="1440.92" y="-465.36" font-family="Times,serif" font-size="14.00">schema:supersededBy</text>
</g>
<!-- https://w3id.org/oseg/ont/otrl#Odrl1&#45;&gt;https://w3id.org/oseg/ont/otrl#ODRL1 -->
<g id="edge32" class="edge">
<title>https://w3id.org/oseg/ont/otrl#Odrl1&#45;&gt;https://w3id.org/oseg/ont/otrl#ODRL1</title>
<path fill="none" stroke="black" d="M1608.7,-281.63C1586.03,-343.99 1486.11,-566.07 1446.99,-641.94"/>
<polygon fill="black" stroke="black" points="1443.65,-640.77 1442.1,-651.25 1449.84,-644.03 1443.65,-640.77"/>
<text text-anchor="middle" x="1570.34" y="-465.59" font-family="Times,serif" font-size="14.00">owl:sameAs</text>
</g>
<!-- https://w3id.org/oseg/ont/otrl#Otrl4 -->
<g id="node35" class="node">
<title>https://w3id.org/oseg/ont/otrl#Otrl4</title>
<ellipse fill="none" stroke="black" cx="246.46" cy="-2017.06" rx="194.41" ry="16.03"/>
<text text-anchor="middle" x="246.46" y="-2013.36" font-family="Times,serif" font-size="14.00">https://w3id.org/oseg/ont/otrl#Otrl4</text>
</g>
<!-- https://w3id.org/oseg/ont/otrl#Otrl4&#45;&gt;https://w3id.org/oseg/ont/otrl#OTRL4 -->
<g id="edge34" class="edge">
<title>https://w3id.org/oseg/ont/otrl#Otrl4&#45;&gt;https://w3id.org/oseg/ont/otrl#OTRL4</title>
<path fill="none" stroke="black" d="M284.8,-2001.1C362.21,-1963.44 535.72,-1869.92 606.25,-1827.75"/>
<polygon fill="black" stroke="black" points="608.36,-1830.56 615.11,-1822.39 604.74,-1824.57 608.36,-1830.56"/>
<text text-anchor="middle" x="365.52" y="-1918.22" font-family="Times,serif" font-size="14.00">schema:supersededBy</text>
</g>
<!-- https://w3id.org/oseg/ont/otrl#Otrl4&#45;&gt;https://w3id.org/oseg/ont/otrl#OTRL4 -->
<g id="edge35" class="edge">
<title>https://w3id.org/oseg/ont/otrl#Otrl4&#45;&gt;https://w3id.org/oseg/ont/otrl#OTRL4</title>
<path fill="none" stroke="black" d="M269.23,-2000.84C332.42,-1962.21 510.55,-1865.94 593.47,-1825.21"/>
<polygon fill="black" stroke="black" points="595.16,-1828.28 602.62,-1820.75 592.1,-1821.98 595.16,-1828.28"/>
<text text-anchor="middle" x="388.85" y="-1901.82" font-family="Times,serif" font-size="14.00">owl:sameAs</text>
</g>
<!-- https://w3id.org/oseg/ont/otrl#Odrl3Star -->
<g id="node36" class="node">
<title>https://w3id.org/oseg/ont/otrl#Odrl3Star</title>
<ellipse fill="none" stroke="black" cx="2121.24" cy="-1088.24" rx="218.49" ry="16.03"/>
<text text-anchor="middle" x="2121.24" y="-1084.54" font-family="Times,serif" font-size="14.00">https://w3id.org/oseg/ont/otrl#Odrl3Star</text>
</g>
<!-- https://w3id.org/oseg/ont/otrl#Odrl3Star&#45;&gt;https://w3id.org/oseg/ont/otrl#ODRL3Star -->
<g id="edge39" class="edge">
<title>https://w3id.org/oseg/ont/otrl#Odrl3Star&#45;&gt;https://w3id.org/oseg/ont/otrl#ODRL3Star</title>
<path fill="none" stroke="black" d="M2029.2,-1073.47C1946.93,-1063.5 1826.71,-1051.35 1742.52,-1044.48"/>
<polygon fill="black" stroke="black" points="1742.69,-1040.98 1732.44,-1043.67 1742.13,-1047.96 1742.69,-1040.98"/>
<text text-anchor="middle" x="1965.86" y="-1047.77" font-family="Times,serif" font-size="14.00">schema:supersededBy</text>
</g>
<!-- https://w3id.org/oseg/ont/otrl#Odrl3Star&#45;&gt;https://w3id.org/oseg/ont/otrl#ODRL3Star -->
<g id="edge50" class="edge">
<title>https://w3id.org/oseg/ont/otrl#Odrl3Star&#45;&gt;https://w3id.org/oseg/ont/otrl#ODRL3Star</title>
<path fill="none" stroke="black" d="M1953.34,-1077.83C1873.36,-1070.41 1781.73,-1060.71 1719.08,-1052.83"/>
<polygon fill="black" stroke="black" points="1719.26,-1049.33 1708.9,-1051.54 1718.37,-1056.27 1719.26,-1049.33"/>
<text text-anchor="middle" x="1793.71" y="-1069.13" font-family="Times,serif" font-size="14.00">owl:sameAs</text>
</g>
<!-- https://w3id.org/oseg/ont/otrl#Otrl5 -->
<g id="node37" class="node">
<title>https://w3id.org/oseg/ont/otrl#Otrl5</title>
<ellipse fill="none" stroke="black" cx="1488.84" cy="-2159.91" rx="194.41" ry="16.03"/>
<text text-anchor="middle" x="1488.84" y="-2156.21" font-family="Times,serif" font-size="14.00">https://w3id.org/oseg/ont/otrl#Otrl5</text>
</g>
<!-- https://w3id.org/oseg/ont/otrl#Otrl5&#45;&gt;https://w3id.org/oseg/ont/otrl#OTRL5 -->
<g id="edge40" class="edge">
<title>https://w3id.org/oseg/ont/otrl#Otrl5&#45;&gt;https://w3id.org/oseg/ont/otrl#OTRL5</title>
<path fill="none" stroke="black" d="M1476.76,-2143.55C1432.3,-2092.81 1277.93,-1938.73 1213.51,-1880.23"/>
<polygon fill="black" stroke="black" points="1215.53,-1877.34 1205.75,-1873.26 1210.85,-1882.54 1215.53,-1877.34"/>
<text text-anchor="middle" x="1265.14" y="-2000.69" font-family="Times,serif" font-size="14.00">schema:supersededBy</text>
</g>
<!-- https://w3id.org/oseg/ont/otrl#Otrl5&#45;&gt;https://w3id.org/oseg/ont/otrl#OTRL5 -->
<g id="edge41" class="edge">
<title>https://w3id.org/oseg/ont/otrl#Otrl5&#45;&gt;https://w3id.org/oseg/ont/otrl#OTRL5</title>
<path fill="none" stroke="black" d="M1467.38,-2143.46C1410.63,-2093.02 1257.83,-1941 1204,-1881.55"/>
<polygon fill="black" stroke="black" points="1206.35,-1878.93 1197.08,-1873.8 1201.13,-1883.59 1206.35,-1878.93"/>
<text text-anchor="middle" x="1293.19" y="-2016.31" font-family="Times,serif" font-size="14.00">owl:sameAs</text>
</g>
<!-- https://w3id.org/oseg/ont/otrl#Odrl3 -->
<g id="node38" class="node">
<title>https://w3id.org/oseg/ont/otrl#Odrl3</title>
<ellipse fill="none" stroke="black" cx="2051.69" cy="-711.48" rx="196.65" ry="16.03"/>
<text text-anchor="middle" x="2051.69" y="-707.78" font-family="Times,serif" font-size="14.00">https://w3id.org/oseg/ont/otrl#Odrl3</text>
</g>
<!-- https://w3id.org/oseg/ont/otrl#Odrl3&#45;&gt;https://w3id.org/oseg/ont/otrl#ODRL3 -->
<g id="edge42" class="edge">
<title>https://w3id.org/oseg/ont/otrl#Odrl3&#45;&gt;https://w3id.org/oseg/ont/otrl#ODRL3</title>
<path fill="none" stroke="black" d="M1994.14,-727.13C1904.39,-756.23 1733.44,-817.74 1656.3,-848.89"/>
<polygon fill="black" stroke="black" points="1654.86,-845.69 1646.93,-852.71 1657.51,-852.17 1654.86,-845.69"/>
<text text-anchor="middle" x="1782.72" y="-791.81" font-family="Times,serif" font-size="14.00">owl:sameAs</text>
</g>
<!-- https://w3id.org/oseg/ont/otrl#Odrl3&#45;&gt;https://w3id.org/oseg/ont/otrl#ODRL3 -->
<g id="edge54" class="edge">
<title>https://w3id.org/oseg/ont/otrl#Odrl3&#45;&gt;https://w3id.org/oseg/ont/otrl#ODRL3</title>
<path fill="none" stroke="black" d="M2018.15,-727.63C1943.89,-758.03 1765.01,-822.47 1673.21,-852.18"/>
<polygon fill="black" stroke="black" points="1671.99,-848.89 1663.54,-855.28 1674.13,-855.56 1671.99,-848.89"/>
<text text-anchor="middle" x="1925.68" y="-793.71" font-family="Times,serif" font-size="14.00">schema:supersededBy</text>
</g>
</g>
</svg>
