<?xml version="1.0" encoding="UTF-8" standalone="no"?>
<!DOCTYPE svg PUBLIC "-//W3C//DTD SVG 1.1//EN"
 "http://www.w3.org/Graphics/SVG/1.1/DTD/svg11.dtd">
<!-- Generated by graphviz version 2.43.0 (0)
 -->
<!-- Title: G Pages: 1 -->
<svg width="1075pt" height="707pt"
 viewBox="0.00 0.00 1074.76 707.00" xmlns="http://www.w3.org/2000/svg" xmlns:xlink="http://www.w3.org/1999/xlink">
<g id="graph0" class="graph" transform="scale(1 1) rotate(0) translate(4 703)">
<title>G</title>
<polygon fill="white" stroke="transparent" points="-4,4 -4,-703 1070.76,-703 1070.76,4 -4,4"/>
<!-- http://www.w3.org/2002/07/owl#DatatypeProperty -->
<g id="node1" class="node">
<title>http://www.w3.org/2002/07/owl#DatatypeProperty</title>
<ellipse fill="none" stroke="#1f77b4" cx="894.38" cy="-547.65" rx="123.07" ry="16.03"/>
<text text-anchor="middle" x="894.38" y="-543.95" font-family="Times,serif" font-size="14.00">owl:DatatypeProperty</text>
</g>
<!-- http://www.w3.org/2002/07/owl#Ontology -->
<g id="node2" class="node">
<title>http://www.w3.org/2002/07/owl#Ontology</title>
<ellipse fill="none" stroke="#1f77b4" cx="737.32" cy="-368.47" rx="77.56" ry="16.03"/>
<text text-anchor="middle" x="737.32" y="-364.77" font-family="Times,serif" font-size="14.00">owl:Ontology</text>
</g>
<!-- http://purl.org/oseg/ontologies/OTRL#OTRL -->
<g id="node3" class="node">
<title>http://purl.org/oseg/ontologies/OTRL#OTRL</title>
<ellipse fill="none" stroke="#e377c2" cx="480.17" cy="-401.88" rx="39.7" ry="16.03"/>
<text text-anchor="middle" x="480.17" y="-398.18" font-family="Times,serif" font-size="14.00">OTRL</text>
</g>
<!-- http://www.w3.org/2002/07/owl#class -->
<g id="node4" class="node">
<title>http://www.w3.org/2002/07/owl#class</title>
<ellipse fill="none" stroke="#1f77b4" cx="295.59" cy="-254.38" rx="57.05" ry="16.03"/>
<text text-anchor="middle" x="295.59" y="-250.68" font-family="Times,serif" font-size="14.00">owl:class</text>
</g>
<!-- http://purl.org/oseg/ontologies/OTRL#OTRL&#45;&gt;http://www.w3.org/2002/07/owl#class -->
<g id="edge32" class="edge">
<title>http://purl.org/oseg/ontologies/OTRL#OTRL&#45;&gt;http://www.w3.org/2002/07/owl#class</title>
<path fill="none" stroke="black" d="M461.8,-387.2C429.24,-361.19 361.28,-306.88 323.11,-276.38"/>
<polygon fill="black" stroke="black" points="324.99,-273.4 314.99,-269.89 320.62,-278.87 324.99,-273.4"/>
<text text-anchor="middle" x="387.95" y="-335.59" font-family="Times,serif" font-size="14.00">a</text>
</g>
<!-- http://purl.org/oseg/ontologies/OTRL#ODRL -->
<g id="node5" class="node">
<title>http://purl.org/oseg/ontologies/OTRL#ODRL</title>
<ellipse fill="none" stroke="#e377c2" cx="176.12" cy="-148.7" rx="41.94" ry="16.03"/>
<text text-anchor="middle" x="176.12" y="-145" font-family="Times,serif" font-size="14.00">ODRL</text>
</g>
<!-- http://purl.org/oseg/ontologies/OTRL#ODRL&#45;&gt;http://www.w3.org/2002/07/owl#class -->
<g id="edge1" class="edge">
<title>http://purl.org/oseg/ontologies/OTRL#ODRL&#45;&gt;http://www.w3.org/2002/07/owl#class</title>
<path fill="none" stroke="black" d="M192.98,-163.62C213.12,-181.43 247,-211.4 270.28,-232"/>
<polygon fill="black" stroke="black" points="268.22,-234.85 278.03,-238.85 272.86,-229.61 268.22,-234.85"/>
<text text-anchor="middle" x="227.13" y="-201.61" font-family="Times,serif" font-size="14.00">a</text>
</g>
<!-- http://purl.org/oseg/ontologies/OTRL#OTRL&#45;8 -->
<g id="node6" class="node">
<title>http://purl.org/oseg/ontologies/OTRL#OTRL&#45;8</title>
<ellipse fill="none" stroke="#e377c2" cx="317.75" cy="-510.25" rx="49.49" ry="16.03"/>
<text text-anchor="middle" x="317.75" y="-506.55" font-family="Times,serif" font-size="14.00">OTRL&#45;8</text>
</g>
<!-- http://purl.org/oseg/ontologies/OTRL#OTRL&#45;8&#45;&gt;http://purl.org/oseg/ontologies/OTRL#OTRL -->
<g id="edge44" class="edge">
<title>http://purl.org/oseg/ontologies/OTRL#OTRL&#45;8&#45;&gt;http://purl.org/oseg/ontologies/OTRL#OTRL</title>
<path fill="none" stroke="black" d="M339.65,-495.63C368.38,-476.46 418.89,-442.77 450.88,-421.42"/>
<polygon fill="black" stroke="black" points="453,-424.22 459.38,-415.75 449.12,-418.39 453,-424.22"/>
</g>
<!-- http://purl.org/oseg/ontologies/OTRL#OTRL&#45;8&#45;&gt;http://www.w3.org/2002/07/owl#class -->
<g id="edge2" class="edge">
<title>http://purl.org/oseg/ontologies/OTRL#OTRL&#45;8&#45;&gt;http://www.w3.org/2002/07/owl#class</title>
<path fill="none" stroke="black" d="M316.33,-493.85C312.59,-450.72 302.46,-333.78 297.89,-280.94"/>
<polygon fill="black" stroke="black" points="301.38,-280.63 297.03,-270.97 294.4,-281.24 301.38,-280.63"/>
<text text-anchor="middle" x="302.61" y="-376.19" font-family="Times,serif" font-size="14.00">a</text>
</g>
<!-- http://purl.org/oseg/ontologies/OTRL -->
<g id="node7" class="node">
<title>http://purl.org/oseg/ontologies/OTRL</title>
<ellipse fill="none" stroke="#e377c2" cx="884.95" cy="-346.42" rx="60.62" ry="16.03"/>
<text text-anchor="middle" x="884.95" y="-342.72" font-family="Times,serif" font-size="14.00">ns1:OTRL</text>
</g>
<!-- http://purl.org/oseg/ontologies/OTRL&#45;&gt;http://www.w3.org/2002/07/owl#Ontology -->
<g id="edge3" class="edge">
<title>http://purl.org/oseg/ontologies/OTRL&#45;&gt;http://www.w3.org/2002/07/owl#Ontology</title>
<path fill="none" stroke="black" d="M831.65,-354.38C824.94,-355.38 817.98,-356.42 811.02,-357.46"/>
<polygon fill="black" stroke="black" points="810.22,-354.04 800.85,-358.98 811.26,-360.96 810.22,-354.04"/>
<text text-anchor="middle" x="819.08" y="-344.72" font-family="Times,serif" font-size="14.00">a</text>
</g>
<!-- http://purl.org/oseg/ontologies/OTRL&#45;&gt;http://purl.org/oseg/ontologies/OTRL -->
<g id="edge36" class="edge">
<title>http://purl.org/oseg/ontologies/OTRL&#45;&gt;http://purl.org/oseg/ontologies/OTRL</title>
<path fill="none" stroke="black" d="M940.55,-353.05C953.89,-352.53 963.76,-350.32 963.76,-346.42 963.76,-343.58 958.55,-341.64 950.58,-340.59"/>
<polygon fill="black" stroke="black" points="950.8,-337.1 940.55,-339.78 950.24,-344.07 950.8,-337.1"/>
<text text-anchor="middle" x="1015.26" y="-342.72" font-family="Times,serif" font-size="14.00">owl:versionIRI</text>
</g>
<!-- http://purl.org/oseg/ontologies/OTRL#OTRL&#45;1 -->
<g id="node8" class="node">
<title>http://purl.org/oseg/ontologies/OTRL#OTRL&#45;1</title>
<ellipse fill="none" stroke="#e377c2" cx="316.07" cy="-414.28" rx="49.49" ry="16.03"/>
<text text-anchor="middle" x="316.07" y="-410.58" font-family="Times,serif" font-size="14.00">OTRL&#45;1</text>
</g>
<!-- http://purl.org/oseg/ontologies/OTRL#OTRL&#45;1&#45;&gt;http://purl.org/oseg/ontologies/OTRL#OTRL -->
<g id="edge37" class="edge">
<title>http://purl.org/oseg/ontologies/OTRL#OTRL&#45;1&#45;&gt;http://purl.org/oseg/ontologies/OTRL#OTRL</title>
<path fill="none" stroke="black" d="M364.41,-410.63C385.38,-409.04 409.89,-407.19 430.95,-405.6"/>
<polygon fill="black" stroke="black" points="431.27,-409.09 440.98,-404.84 430.74,-402.11 431.27,-409.09"/>
</g>
<!-- http://purl.org/oseg/ontologies/OTRL#OTRL&#45;1&#45;&gt;http://www.w3.org/2002/07/owl#class -->
<g id="edge26" class="edge">
<title>http://purl.org/oseg/ontologies/OTRL#OTRL&#45;1&#45;&gt;http://www.w3.org/2002/07/owl#class</title>
<path fill="none" stroke="black" d="M313.95,-397.77C310.41,-370.12 303.25,-314.22 298.99,-280.98"/>
<polygon fill="black" stroke="black" points="302.46,-280.52 297.72,-271.04 295.52,-281.41 302.46,-280.52"/>
<text text-anchor="middle" x="301.97" y="-343.17" font-family="Times,serif" font-size="14.00">a</text>
</g>
<!-- http://purl.org/oseg/ontologies/OTRL#OTRL&#45;6 -->
<g id="node9" class="node">
<title>http://purl.org/oseg/ontologies/OTRL#OTRL&#45;6</title>
<ellipse fill="none" stroke="#e377c2" cx="433.53" cy="-180.61" rx="49.49" ry="16.03"/>
<text text-anchor="middle" x="433.53" y="-176.91" font-family="Times,serif" font-size="14.00">OTRL&#45;6</text>
</g>
<!-- http://purl.org/oseg/ontologies/OTRL#OTRL&#45;6&#45;&gt;http://purl.org/oseg/ontologies/OTRL#OTRL -->
<g id="edge38" class="edge">
<title>http://purl.org/oseg/ontologies/OTRL#OTRL&#45;6&#45;&gt;http://purl.org/oseg/ontologies/OTRL#OTRL</title>
<path fill="none" stroke="black" d="M436.96,-196.89C444.96,-234.85 464.92,-329.55 474.66,-375.73"/>
<polygon fill="black" stroke="black" points="471.25,-376.53 476.73,-385.59 478.1,-375.08 471.25,-376.53"/>
</g>
<!-- http://purl.org/oseg/ontologies/OTRL#OTRL&#45;6&#45;&gt;http://www.w3.org/2002/07/owl#class -->
<g id="edge27" class="edge">
<title>http://purl.org/oseg/ontologies/OTRL#OTRL&#45;6&#45;&gt;http://www.w3.org/2002/07/owl#class</title>
<path fill="none" stroke="black" d="M407.58,-194.49C386.23,-205.91 355.7,-222.24 331.91,-234.96"/>
<polygon fill="black" stroke="black" points="330,-232.01 322.83,-239.81 333.3,-238.18 330,-232.01"/>
<text text-anchor="middle" x="365.25" y="-218.52" font-family="Times,serif" font-size="14.00">a</text>
</g>
<!-- http://purl.org/oseg/ontologies/OTRL#ODRL&#45;4 -->
<g id="node10" class="node">
<title>http://purl.org/oseg/ontologies/OTRL#ODRL&#45;4</title>
<ellipse fill="none" stroke="#e377c2" cx="50.6" cy="-251.59" rx="50.82" ry="16.03"/>
<text text-anchor="middle" x="50.6" y="-247.89" font-family="Times,serif" font-size="14.00">ODRL&#45;4</text>
</g>
<!-- http://purl.org/oseg/ontologies/OTRL#ODRL&#45;4&#45;&gt;http://www.w3.org/2002/07/owl#class -->
<g id="edge6" class="edge">
<title>http://purl.org/oseg/ontologies/OTRL#ODRL&#45;4&#45;&gt;http://www.w3.org/2002/07/owl#class</title>
<path fill="none" stroke="black" d="M101.66,-252.17C138.3,-252.59 188.04,-253.16 227.97,-253.61"/>
<polygon fill="black" stroke="black" points="228.12,-257.11 238.16,-253.73 228.2,-250.11 228.12,-257.11"/>
<text text-anchor="middle" x="160.32" y="-256.69" font-family="Times,serif" font-size="14.00">a</text>
</g>
<!-- http://purl.org/oseg/ontologies/OTRL#ODRL&#45;4&#45;&gt;http://purl.org/oseg/ontologies/OTRL#ODRL -->
<g id="edge45" class="edge">
<title>http://purl.org/oseg/ontologies/OTRL#ODRL&#45;4&#45;&gt;http://purl.org/oseg/ontologies/OTRL#ODRL</title>
<path fill="none" stroke="black" d="M69.12,-236.4C90.47,-218.9 125.72,-190.01 149.88,-170.2"/>
<polygon fill="black" stroke="black" points="152.41,-172.65 157.93,-163.61 147.98,-167.24 152.41,-172.65"/>
</g>
<!-- http://purl.org/oseg/ontologies/OTRL#ODRL&#45;3 -->
<g id="node11" class="node">
<title>http://purl.org/oseg/ontologies/OTRL#ODRL&#45;3</title>
<ellipse fill="none" stroke="#e377c2" cx="194.26" cy="-22.57" rx="50.82" ry="16.03"/>
<text text-anchor="middle" x="194.26" y="-18.87" font-family="Times,serif" font-size="14.00">ODRL&#45;3</text>
</g>
<!-- http://purl.org/oseg/ontologies/OTRL#ODRL&#45;3&#45;&gt;http://www.w3.org/2002/07/owl#class -->
<g id="edge29" class="edge">
<title>http://purl.org/oseg/ontologies/OTRL#ODRL&#45;3&#45;&gt;http://www.w3.org/2002/07/owl#class</title>
<path fill="none" stroke="black" d="M201.39,-38.87C218.76,-78.61 263.39,-180.72 284.37,-228.72"/>
<polygon fill="black" stroke="black" points="281.26,-230.34 288.47,-238.1 287.67,-227.54 281.26,-230.34"/>
<text text-anchor="middle" x="238.38" y="-137.6" font-family="Times,serif" font-size="14.00">a</text>
</g>
<!-- http://purl.org/oseg/ontologies/OTRL#ODRL&#45;3&#45;&gt;http://purl.org/oseg/ontologies/OTRL#ODRL -->
<g id="edge33" class="edge">
<title>http://purl.org/oseg/ontologies/OTRL#ODRL&#45;3&#45;&gt;http://purl.org/oseg/ontologies/OTRL#ODRL</title>
<path fill="none" stroke="black" d="M191.89,-39.06C188.85,-60.21 183.53,-97.15 179.92,-122.25"/>
<polygon fill="black" stroke="black" points="176.45,-121.81 178.49,-132.21 183.38,-122.81 176.45,-121.81"/>
</g>
<!-- http://purl.org/oseg/ontologies/OTRL#OTRL&#45;4 -->
<g id="node12" class="node">
<title>http://purl.org/oseg/ontologies/OTRL#OTRL&#45;4</title>
<ellipse fill="none" stroke="#e377c2" cx="540.66" cy="-201.85" rx="49.49" ry="16.03"/>
<text text-anchor="middle" x="540.66" y="-198.15" font-family="Times,serif" font-size="14.00">OTRL&#45;4</text>
</g>
<!-- http://purl.org/oseg/ontologies/OTRL#OTRL&#45;4&#45;&gt;http://purl.org/oseg/ontologies/OTRL#OTRL -->
<g id="edge18" class="edge">
<title>http://purl.org/oseg/ontologies/OTRL#OTRL&#45;4&#45;&gt;http://purl.org/oseg/ontologies/OTRL#OTRL</title>
<path fill="none" stroke="black" d="M535.71,-218.22C525.23,-252.88 500.71,-333.95 488.05,-375.82"/>
<polygon fill="black" stroke="black" points="484.65,-374.98 485.1,-385.57 491.35,-377.01 484.65,-374.98"/>
</g>
<!-- http://purl.org/oseg/ontologies/OTRL#OTRL&#45;4&#45;&gt;http://www.w3.org/2002/07/owl#class -->
<g id="edge30" class="edge">
<title>http://purl.org/oseg/ontologies/OTRL#OTRL&#45;4&#45;&gt;http://www.w3.org/2002/07/owl#class</title>
<path fill="none" stroke="black" d="M499.09,-210.76C458.46,-219.47 396.34,-232.79 351.42,-242.42"/>
<polygon fill="black" stroke="black" points="350.59,-239.01 341.54,-244.53 352.05,-245.86 350.59,-239.01"/>
<text text-anchor="middle" x="420.76" y="-215.39" font-family="Times,serif" font-size="14.00">a</text>
</g>
<!-- http://purl.org/oseg/ontologies/OTRL#OTRL&#45;5 -->
<g id="node13" class="node">
<title>http://purl.org/oseg/ontologies/OTRL#OTRL&#45;5</title>
<ellipse fill="none" stroke="#e377c2" cx="233.3" cy="-455.01" rx="49.49" ry="16.03"/>
<text text-anchor="middle" x="233.3" y="-451.31" font-family="Times,serif" font-size="14.00">OTRL&#45;5</text>
</g>
<!-- http://purl.org/oseg/ontologies/OTRL#OTRL&#45;5&#45;&gt;http://purl.org/oseg/ontologies/OTRL#OTRL -->
<g id="edge20" class="edge">
<title>http://purl.org/oseg/ontologies/OTRL#OTRL&#45;5&#45;&gt;http://purl.org/oseg/ontologies/OTRL#OTRL</title>
<path fill="none" stroke="black" d="M274.9,-446.06C319.23,-436.52 389.19,-421.46 434.88,-411.63"/>
<polygon fill="black" stroke="black" points="435.77,-415.02 444.81,-409.49 434.3,-408.18 435.77,-415.02"/>
</g>
<!-- http://purl.org/oseg/ontologies/OTRL#OTRL&#45;5&#45;&gt;http://www.w3.org/2002/07/owl#class -->
<g id="edge10" class="edge">
<title>http://purl.org/oseg/ontologies/OTRL#OTRL&#45;5&#45;&gt;http://www.w3.org/2002/07/owl#class</title>
<path fill="none" stroke="black" d="M238.4,-438.59C249.19,-403.82 274.43,-322.52 287.47,-280.53"/>
<polygon fill="black" stroke="black" points="290.89,-281.34 290.51,-270.75 284.2,-279.26 290.89,-281.34"/>
<text text-anchor="middle" x="258.44" y="-363.36" font-family="Times,serif" font-size="14.00">a</text>
</g>
<!-- http://purl.org/oseg/ontologies/OTRL#ODRL&#45;0 -->
<g id="node14" class="node">
<title>http://purl.org/oseg/ontologies/OTRL#ODRL&#45;0</title>
<ellipse fill="none" stroke="#e377c2" cx="122.79" cy="-89.45" rx="50.82" ry="16.03"/>
<text text-anchor="middle" x="122.79" y="-85.75" font-family="Times,serif" font-size="14.00">ODRL&#45;0</text>
</g>
<!-- http://purl.org/oseg/ontologies/OTRL#ODRL&#45;0&#45;&gt;http://www.w3.org/2002/07/owl#class -->
<g id="edge11" class="edge">
<title>http://purl.org/oseg/ontologies/OTRL#ODRL&#45;0&#45;&gt;http://www.w3.org/2002/07/owl#class</title>
<path fill="none" stroke="black" d="M139.05,-104.97C169.66,-134.19 236.01,-197.51 271.7,-231.59"/>
<polygon fill="black" stroke="black" points="269.6,-234.42 279.25,-238.79 274.43,-229.35 269.6,-234.42"/>
<text text-anchor="middle" x="200.87" y="-172.08" font-family="Times,serif" font-size="14.00">a</text>
</g>
<!-- http://purl.org/oseg/ontologies/OTRL#ODRL&#45;0&#45;&gt;http://purl.org/oseg/ontologies/OTRL#ODRL -->
<g id="edge14" class="edge">
<title>http://purl.org/oseg/ontologies/OTRL#ODRL&#45;0&#45;&gt;http://purl.org/oseg/ontologies/OTRL#ODRL</title>
<path fill="none" stroke="black" d="M137.08,-105.33C142.67,-111.54 149.19,-118.78 155.28,-125.55"/>
<polygon fill="black" stroke="black" points="152.86,-128.1 162.15,-133.19 158.07,-123.41 152.86,-128.1"/>
</g>
<!-- http://schema.org/Text -->
<g id="node15" class="node">
<title>http://schema.org/Text</title>
<ellipse fill="none" stroke="#e377c2" cx="830.59" cy="-648.13" rx="74.91" ry="16.03"/>
<text text-anchor="middle" x="830.59" y="-644.43" font-family="Times,serif" font-size="14.00">schema:Text</text>
</g>
<!-- http://purl.org/oseg/ontologies/OTRL#OTRL&#45;2 -->
<g id="node16" class="node">
<title>http://purl.org/oseg/ontologies/OTRL#OTRL&#45;2</title>
<ellipse fill="none" stroke="#e377c2" cx="551.27" cy="-263.18" rx="49.49" ry="16.03"/>
<text text-anchor="middle" x="551.27" y="-259.48" font-family="Times,serif" font-size="14.00">OTRL&#45;2</text>
</g>
<!-- http://purl.org/oseg/ontologies/OTRL#OTRL&#45;2&#45;&gt;http://purl.org/oseg/ontologies/OTRL#OTRL -->
<g id="edge8" class="edge">
<title>http://purl.org/oseg/ontologies/OTRL#OTRL&#45;2&#45;&gt;http://purl.org/oseg/ontologies/OTRL#OTRL</title>
<path fill="none" stroke="black" d="M542.98,-279.37C530.72,-303.27 507.66,-348.25 493.15,-376.55"/>
<polygon fill="black" stroke="black" points="489.86,-375.31 488.41,-385.81 496.09,-378.5 489.86,-375.31"/>
</g>
<!-- http://purl.org/oseg/ontologies/OTRL#OTRL&#45;2&#45;&gt;http://www.w3.org/2002/07/owl#class -->
<g id="edge13" class="edge">
<title>http://purl.org/oseg/ontologies/OTRL#OTRL&#45;2&#45;&gt;http://www.w3.org/2002/07/owl#class</title>
<path fill="none" stroke="black" d="M501.97,-261.49C462.48,-260.13 406.65,-258.21 363.01,-256.7"/>
<polygon fill="black" stroke="black" points="362.88,-253.2 352.77,-256.35 362.64,-260.19 362.88,-253.2"/>
<text text-anchor="middle" x="427.99" y="-262.9" font-family="Times,serif" font-size="14.00">a</text>
</g>
<!-- http://purl.org/oseg/ontologies/OTRL#exitCriteria -->
<g id="node17" class="node">
<title>http://purl.org/oseg/ontologies/OTRL#exitCriteria</title>
<ellipse fill="none" stroke="#e377c2" cx="615.26" cy="-548.01" rx="70.01" ry="16.03"/>
<text text-anchor="middle" x="615.26" y="-544.31" font-family="Times,serif" font-size="14.00">exitCriteria</text>
</g>
<!-- http://purl.org/oseg/ontologies/OTRL#exitCriteria&#45;&gt;http://www.w3.org/2002/07/owl#DatatypeProperty -->
<g id="edge34" class="edge">
<title>http://purl.org/oseg/ontologies/OTRL#exitCriteria&#45;&gt;http://www.w3.org/2002/07/owl#DatatypeProperty</title>
<path fill="none" stroke="black" d="M685.33,-547.92C708.46,-547.89 735,-547.86 761.24,-547.82"/>
<polygon fill="black" stroke="black" points="761.28,-551.32 771.28,-547.81 761.27,-544.32 761.28,-551.32"/>
<text text-anchor="middle" x="718.79" y="-551.67" font-family="Times,serif" font-size="14.00">a</text>
</g>
<!-- http://purl.org/oseg/ontologies/OTRL#exitCriteria&#45;&gt;http://purl.org/oseg/ontologies/OTRL#OTRL -->
<g id="edge31" class="edge">
<title>http://purl.org/oseg/ontologies/OTRL#exitCriteria&#45;&gt;http://purl.org/oseg/ontologies/OTRL#OTRL</title>
<path fill="none" stroke="black" d="M600.55,-532.1C576.57,-506.16 528.97,-454.67 501.35,-424.8"/>
<polygon fill="black" stroke="black" points="503.81,-422.31 494.46,-417.34 498.67,-427.06 503.81,-422.31"/>
<text text-anchor="middle" x="524.45" y="-482.25" font-family="Times,serif" font-size="14.00">domain</text>
</g>
<!-- http://purl.org/oseg/ontologies/OTRL#exitCriteria&#45;&gt;http://schema.org/Text -->
<g id="edge35" class="edge">
<title>http://purl.org/oseg/ontologies/OTRL#exitCriteria&#45;&gt;http://schema.org/Text</title>
<path fill="none" stroke="black" d="M646.57,-562.57C684.34,-580.13 747.93,-609.7 789.58,-629.06"/>
<polygon fill="black" stroke="black" points="788.35,-632.35 798.89,-633.39 791.3,-626 788.35,-632.35"/>
<text text-anchor="middle" x="697.08" y="-599.62" font-family="Times,serif" font-size="14.00">range</text>
</g>
<!-- http://purl.org/oseg/ontologies/OTRL#OTRL&#45;9 -->
<g id="node18" class="node">
<title>http://purl.org/oseg/ontologies/OTRL#OTRL&#45;9</title>
<ellipse fill="none" stroke="#e377c2" cx="504.29" cy="-320.62" rx="49.49" ry="16.03"/>
<text text-anchor="middle" x="504.29" y="-316.92" font-family="Times,serif" font-size="14.00">OTRL&#45;9</text>
</g>
<!-- http://purl.org/oseg/ontologies/OTRL#OTRL&#45;9&#45;&gt;http://purl.org/oseg/ontologies/OTRL#OTRL -->
<g id="edge15" class="edge">
<title>http://purl.org/oseg/ontologies/OTRL#OTRL&#45;9&#45;&gt;http://purl.org/oseg/ontologies/OTRL#OTRL</title>
<path fill="none" stroke="black" d="M499.4,-337.07C496.1,-348.19 491.67,-363.12 487.9,-375.85"/>
<polygon fill="black" stroke="black" points="484.53,-374.88 485.04,-385.46 491.24,-376.87 484.53,-374.88"/>
</g>
<!-- http://purl.org/oseg/ontologies/OTRL#OTRL&#45;9&#45;&gt;http://www.w3.org/2002/07/owl#class -->
<g id="edge17" class="edge">
<title>http://purl.org/oseg/ontologies/OTRL#OTRL&#45;9&#45;&gt;http://www.w3.org/2002/07/owl#class</title>
<path fill="none" stroke="black" d="M468.41,-309.24C433.96,-298.3 381.69,-281.71 343.65,-269.64"/>
<polygon fill="black" stroke="black" points="344.41,-266.21 333.82,-266.52 342.29,-272.88 344.41,-266.21"/>
<text text-anchor="middle" x="401.53" y="-293.24" font-family="Times,serif" font-size="14.00">a</text>
</g>
<!-- http://purl.org/oseg/ontologies/OTRL#hardwareDescription -->
<g id="node19" class="node">
<title>http://purl.org/oseg/ontologies/OTRL#hardwareDescription</title>
<ellipse fill="none" stroke="#e377c2" cx="727.98" cy="-596.27" rx="118.17" ry="16.03"/>
<text text-anchor="middle" x="727.98" y="-592.57" font-family="Times,serif" font-size="14.00">hardwareDescription</text>
</g>
<!-- http://purl.org/oseg/ontologies/OTRL#hardwareDescription&#45;&gt;http://www.w3.org/2002/07/owl#DatatypeProperty -->
<g id="edge39" class="edge">
<title>http://purl.org/oseg/ontologies/OTRL#hardwareDescription&#45;&gt;http://www.w3.org/2002/07/owl#DatatypeProperty</title>
<path fill="none" stroke="black" d="M778.36,-581.55C795.87,-576.43 815.7,-570.64 833.94,-565.31"/>
<polygon fill="black" stroke="black" points="834.98,-568.65 843.6,-562.49 833.02,-561.93 834.98,-568.65"/>
<text text-anchor="middle" x="801.65" y="-562.23" font-family="Times,serif" font-size="14.00">a</text>
</g>
<!-- http://purl.org/oseg/ontologies/OTRL#hardwareDescription&#45;&gt;http://purl.org/oseg/ontologies/OTRL#OTRL -->
<g id="edge4" class="edge">
<title>http://purl.org/oseg/ontologies/OTRL#hardwareDescription&#45;&gt;http://purl.org/oseg/ontologies/OTRL#OTRL</title>
<path fill="none" stroke="black" d="M707.28,-580.03C662.42,-544.84 556.27,-461.58 506.62,-422.64"/>
<polygon fill="black" stroke="black" points="508.63,-419.76 498.6,-416.34 504.31,-425.27 508.63,-419.76"/>
<text text-anchor="middle" x="580.45" y="-505.14" font-family="Times,serif" font-size="14.00">domain</text>
</g>
<!-- http://purl.org/oseg/ontologies/OTRL#hardwareDescription&#45;&gt;http://schema.org/Text -->
<g id="edge42" class="edge">
<title>http://purl.org/oseg/ontologies/OTRL#hardwareDescription&#45;&gt;http://schema.org/Text</title>
<path fill="none" stroke="black" d="M759.05,-611.97C769.27,-617.14 780.76,-622.95 791.5,-628.37"/>
<polygon fill="black" stroke="black" points="790.19,-631.63 800.69,-633.02 793.34,-625.38 790.19,-631.63"/>
<text text-anchor="middle" x="754.28" y="-623.97" font-family="Times,serif" font-size="14.00">range</text>
</g>
<!-- http://purl.org/oseg/ontologies/OTRL#OTRL&#45;7 -->
<g id="node20" class="node">
<title>http://purl.org/oseg/ontologies/OTRL#OTRL&#45;7</title>
<ellipse fill="none" stroke="#e377c2" cx="422.41" cy="-455.5" rx="49.49" ry="16.03"/>
<text text-anchor="middle" x="422.41" y="-451.8" font-family="Times,serif" font-size="14.00">OTRL&#45;7</text>
</g>
<!-- http://purl.org/oseg/ontologies/OTRL#OTRL&#45;7&#45;&gt;http://purl.org/oseg/ontologies/OTRL#OTRL -->
<g id="edge7" class="edge">
<title>http://purl.org/oseg/ontologies/OTRL#OTRL&#45;7&#45;&gt;http://purl.org/oseg/ontologies/OTRL#OTRL</title>
<path fill="none" stroke="black" d="M439.11,-439.99C444.52,-434.97 450.62,-429.31 456.44,-423.91"/>
<polygon fill="black" stroke="black" points="459.15,-426.17 464.1,-416.8 454.38,-421.04 459.15,-426.17"/>
</g>
<!-- http://purl.org/oseg/ontologies/OTRL#OTRL&#45;7&#45;&gt;http://www.w3.org/2002/07/owl#class -->
<g id="edge41" class="edge">
<title>http://purl.org/oseg/ontologies/OTRL#OTRL&#45;7&#45;&gt;http://www.w3.org/2002/07/owl#class</title>
<path fill="none" stroke="black" d="M412.24,-439.38C390.12,-404.3 337.48,-320.82 311.15,-279.06"/>
<polygon fill="black" stroke="black" points="314.1,-277.17 305.8,-270.58 308.17,-280.9 314.1,-277.17"/>
<text text-anchor="middle" x="357.2" y="-363.02" font-family="Times,serif" font-size="14.00">a</text>
</g>
<!-- http://purl.org/oseg/ontologies/OTRL#documentationDescription -->
<g id="node21" class="node">
<title>http://purl.org/oseg/ontologies/OTRL#documentationDescription</title>
<ellipse fill="none" stroke="#e377c2" cx="792.53" cy="-496.65" rx="120.83" ry="16.03"/>
<text text-anchor="middle" x="792.53" y="-492.95" font-family="Times,serif" font-size="14.00">documentationDesc...</text>
</g>
<!-- http://purl.org/oseg/ontologies/OTRL#documentationDescription&#45;&gt;http://www.w3.org/2002/07/owl#DatatypeProperty -->
<g id="edge21" class="edge">
<title>http://purl.org/oseg/ontologies/OTRL#documentationDescription&#45;&gt;http://www.w3.org/2002/07/owl#DatatypeProperty</title>
<path fill="none" stroke="black" d="M823.92,-512.37C833.4,-517.12 843.96,-522.4 853.95,-527.41"/>
<polygon fill="black" stroke="black" points="852.41,-530.55 862.92,-531.9 855.54,-524.29 852.41,-530.55"/>
<text text-anchor="middle" x="834.43" y="-523.69" font-family="Times,serif" font-size="14.00">a</text>
</g>
<!-- http://purl.org/oseg/ontologies/OTRL#documentationDescription&#45;&gt;http://purl.org/oseg/ontologies/OTRL#OTRL -->
<g id="edge16" class="edge">
<title>http://purl.org/oseg/ontologies/OTRL#documentationDescription&#45;&gt;http://purl.org/oseg/ontologies/OTRL#OTRL</title>
<path fill="none" stroke="black" d="M743.38,-481.74C682.44,-463.25 579.61,-432.05 522.18,-414.63"/>
<polygon fill="black" stroke="black" points="522.93,-411.2 512.34,-411.65 520.89,-417.9 522.93,-411.2"/>
<text text-anchor="middle" x="606.28" y="-451.99" font-family="Times,serif" font-size="14.00">domain</text>
</g>
<!-- http://purl.org/oseg/ontologies/OTRL#documentationDescription&#45;&gt;http://schema.org/Text -->
<g id="edge23" class="edge">
<title>http://purl.org/oseg/ontologies/OTRL#documentationDescription&#45;&gt;http://schema.org/Text</title>
<path fill="none" stroke="black" d="M796.67,-513.15C803.25,-539.33 816.14,-590.61 824,-621.88"/>
<polygon fill="black" stroke="black" points="820.62,-622.8 826.45,-631.65 827.41,-621.1 820.62,-622.8"/>
<text text-anchor="middle" x="831.33" y="-571.32" font-family="Times,serif" font-size="14.00">range</text>
</g>
<!-- http://purl.org/oseg/ontologies/OTRL#softwareDescription -->
<g id="node22" class="node">
<title>http://purl.org/oseg/ontologies/OTRL#softwareDescription</title>
<ellipse fill="none" stroke="#e377c2" cx="596.41" cy="-682.96" rx="113.69" ry="16.03"/>
<text text-anchor="middle" x="596.41" y="-679.26" font-family="Times,serif" font-size="14.00">softwareDescription</text>
</g>
<!-- http://purl.org/oseg/ontologies/OTRL#softwareDescription&#45;&gt;http://www.w3.org/2002/07/owl#DatatypeProperty -->
<g id="edge22" class="edge">
<title>http://purl.org/oseg/ontologies/OTRL#softwareDescription&#45;&gt;http://www.w3.org/2002/07/owl#DatatypeProperty</title>
<path fill="none" stroke="black" d="M630.59,-667.44C684.86,-642.79 790.69,-594.73 850.49,-567.58"/>
<polygon fill="black" stroke="black" points="852.02,-570.73 859.68,-563.41 849.13,-564.35 852.02,-570.73"/>
<text text-anchor="middle" x="736.04" y="-621.31" font-family="Times,serif" font-size="14.00">a</text>
</g>
<!-- http://purl.org/oseg/ontologies/OTRL#softwareDescription&#45;&gt;http://purl.org/oseg/ontologies/OTRL#OTRL -->
<g id="edge28" class="edge">
<title>http://purl.org/oseg/ontologies/OTRL#softwareDescription&#45;&gt;http://purl.org/oseg/ontologies/OTRL#OTRL</title>
<path fill="none" stroke="black" d="M589.65,-666.63C570.27,-619.77 514.35,-484.55 490.81,-427.63"/>
<polygon fill="black" stroke="black" points="493.99,-426.16 486.94,-418.26 487.53,-428.83 493.99,-426.16"/>
<text text-anchor="middle" x="513.73" y="-550.93" font-family="Times,serif" font-size="14.00">domain</text>
</g>
<!-- http://purl.org/oseg/ontologies/OTRL#softwareDescription&#45;&gt;http://schema.org/Text -->
<g id="edge12" class="edge">
<title>http://purl.org/oseg/ontologies/OTRL#softwareDescription&#45;&gt;http://schema.org/Text</title>
<path fill="none" stroke="black" d="M675.36,-671.21C702.33,-667.2 732.32,-662.74 758.7,-658.82"/>
<polygon fill="black" stroke="black" points="759.24,-662.28 768.62,-657.35 758.21,-655.35 759.24,-662.28"/>
<text text-anchor="middle" x="696.03" y="-653.82" font-family="Times,serif" font-size="14.00">range</text>
</g>
<!-- http://purl.org/oseg/ontologies/OTRL#OTRL&#45;3 -->
<g id="node23" class="node">
<title>http://purl.org/oseg/ontologies/OTRL#OTRL&#45;3</title>
<ellipse fill="none" stroke="#e377c2" cx="441.72" cy="-243.09" rx="49.49" ry="16.03"/>
<text text-anchor="middle" x="441.72" y="-239.39" font-family="Times,serif" font-size="14.00">OTRL&#45;3</text>
</g>
<!-- http://purl.org/oseg/ontologies/OTRL#OTRL&#45;3&#45;&gt;http://purl.org/oseg/ontologies/OTRL#OTRL -->
<g id="edge40" class="edge">
<title>http://purl.org/oseg/ontologies/OTRL#OTRL&#45;3&#45;&gt;http://purl.org/oseg/ontologies/OTRL#OTRL</title>
<path fill="none" stroke="black" d="M445.69,-259.48C452.33,-286.94 465.78,-342.45 473.77,-375.47"/>
<polygon fill="black" stroke="black" points="470.41,-376.44 476.16,-385.34 477.21,-374.8 470.41,-376.44"/>
</g>
<!-- http://purl.org/oseg/ontologies/OTRL#OTRL&#45;3&#45;&gt;http://www.w3.org/2002/07/owl#class -->
<g id="edge43" class="edge">
<title>http://purl.org/oseg/ontologies/OTRL#OTRL&#45;3&#45;&gt;http://www.w3.org/2002/07/owl#class</title>
<path fill="none" stroke="black" d="M393.46,-246.82C383.03,-247.63 371.82,-248.49 360.85,-249.34"/>
<polygon fill="black" stroke="black" points="360.58,-245.85 350.88,-250.11 361.12,-252.83 360.58,-245.85"/>
<text text-anchor="middle" x="372.66" y="-251.88" font-family="Times,serif" font-size="14.00">a</text>
</g>
<!-- http://purl.org/oseg/ontologies/OTRL#ODRL&#45;2 -->
<g id="node24" class="node">
<title>http://purl.org/oseg/ontologies/OTRL#ODRL&#45;2</title>
<ellipse fill="none" stroke="#e377c2" cx="304.09" cy="-15.77" rx="50.82" ry="16.03"/>
<text text-anchor="middle" x="304.09" y="-12.07" font-family="Times,serif" font-size="14.00">ODRL&#45;2</text>
</g>
<!-- http://purl.org/oseg/ontologies/OTRL#ODRL&#45;2&#45;&gt;http://www.w3.org/2002/07/owl#class -->
<g id="edge24" class="edge">
<title>http://purl.org/oseg/ontologies/OTRL#ODRL&#45;2&#45;&gt;http://www.w3.org/2002/07/owl#class</title>
<path fill="none" stroke="black" d="M303.5,-32.17C302.06,-72.7 298.31,-177.87 296.54,-227.59"/>
<polygon fill="black" stroke="black" points="293.04,-227.75 296.18,-237.87 300.03,-228 293.04,-227.75"/>
<text text-anchor="middle" x="295.52" y="-133.68" font-family="Times,serif" font-size="14.00">a</text>
</g>
<!-- http://purl.org/oseg/ontologies/OTRL#ODRL&#45;2&#45;&gt;http://purl.org/oseg/ontologies/OTRL#ODRL -->
<g id="edge19" class="edge">
<title>http://purl.org/oseg/ontologies/OTRL#ODRL&#45;2&#45;&gt;http://purl.org/oseg/ontologies/OTRL#ODRL</title>
<path fill="none" stroke="black" d="M288.91,-31.54C266.37,-54.95 223.94,-99.02 198.04,-125.93"/>
<polygon fill="black" stroke="black" points="195.3,-123.73 190.88,-133.36 200.34,-128.58 195.3,-123.73"/>
</g>
<!-- http://purl.org/oseg/ontologies/OTRL#ODRL&#45;1 -->
<g id="node25" class="node">
<title>http://purl.org/oseg/ontologies/OTRL#ODRL&#45;1</title>
<ellipse fill="none" stroke="#e377c2" cx="58.82" cy="-172.1" rx="50.82" ry="16.03"/>
<text text-anchor="middle" x="58.82" y="-168.4" font-family="Times,serif" font-size="14.00">ODRL&#45;1</text>
</g>
<!-- http://purl.org/oseg/ontologies/OTRL#ODRL&#45;1&#45;&gt;http://www.w3.org/2002/07/owl#class -->
<g id="edge46" class="edge">
<title>http://purl.org/oseg/ontologies/OTRL#ODRL&#45;1&#45;&gt;http://www.w3.org/2002/07/owl#class</title>
<path fill="none" stroke="black" d="M93.5,-184.16C134.78,-198.5 203.88,-222.51 249.59,-238.4"/>
<polygon fill="black" stroke="black" points="248.66,-241.78 259.26,-241.76 250.96,-235.17 248.66,-241.78"/>
<text text-anchor="middle" x="167.05" y="-215.08" font-family="Times,serif" font-size="14.00">a</text>
</g>
<!-- http://purl.org/oseg/ontologies/OTRL#ODRL&#45;1&#45;&gt;http://purl.org/oseg/ontologies/OTRL#ODRL -->
<g id="edge9" class="edge">
<title>http://purl.org/oseg/ontologies/OTRL#ODRL&#45;1&#45;&gt;http://purl.org/oseg/ontologies/OTRL#ODRL</title>
<path fill="none" stroke="black" d="M102.16,-163.45C110.79,-161.73 119.9,-159.92 128.66,-158.17"/>
<polygon fill="black" stroke="black" points="129.61,-161.55 138.73,-156.16 128.24,-154.68 129.61,-161.55"/>
</g>
<!-- http://purl.org/oseg/ontologies/OTRL#ODRL&#45;5 -->
<g id="node26" class="node">
<title>http://purl.org/oseg/ontologies/OTRL#ODRL&#45;5</title>
<ellipse fill="none" stroke="#e377c2" cx="84.29" cy="-317.85" rx="50.82" ry="16.03"/>
<text text-anchor="middle" x="84.29" y="-314.15" font-family="Times,serif" font-size="14.00">ODRL&#45;5</text>
</g>
<!-- http://purl.org/oseg/ontologies/OTRL#ODRL&#45;5&#45;&gt;http://www.w3.org/2002/07/owl#class -->
<g id="edge25" class="edge">
<title>http://purl.org/oseg/ontologies/OTRL#ODRL&#45;5&#45;&gt;http://www.w3.org/2002/07/owl#class</title>
<path fill="none" stroke="black" d="M121.58,-306.65C156.27,-296.23 208.2,-280.63 246.3,-269.19"/>
<polygon fill="black" stroke="black" points="247.59,-272.45 256.16,-266.22 245.58,-265.75 247.59,-272.45"/>
<text text-anchor="middle" x="179.44" y="-291.72" font-family="Times,serif" font-size="14.00">a</text>
</g>
<!-- http://purl.org/oseg/ontologies/OTRL#ODRL&#45;5&#45;&gt;http://purl.org/oseg/ontologies/OTRL#ODRL -->
<g id="edge5" class="edge">
<title>http://purl.org/oseg/ontologies/OTRL#ODRL&#45;5&#45;&gt;http://purl.org/oseg/ontologies/OTRL#ODRL</title>
<path fill="none" stroke="black" d="M93.1,-301.63C109.18,-272 143.41,-208.94 162.51,-173.76"/>
<polygon fill="black" stroke="black" points="165.78,-175.08 167.47,-164.62 159.62,-171.74 165.78,-175.08"/>
</g>
</g>
</svg>
