<?xml version="1.0" encoding="UTF-8" standalone="no"?>
<!DOCTYPE svg PUBLIC "-//W3C//DTD SVG 1.1//EN"
 "http://www.w3.org/Graphics/SVG/1.1/DTD/svg11.dtd">
<!-- Generated by graphviz version 2.43.0 (0)
 -->
<!-- Title: G Pages: 1 -->
<svg width="847pt" height="365pt"
 viewBox="0.00 0.00 846.76 365.00" xmlns="http://www.w3.org/2000/svg" xmlns:xlink="http://www.w3.org/1999/xlink">
<g id="graph0" class="graph" transform="scale(1 1) rotate(0) translate(4 361)">
<title>G</title>
<polygon fill="white" stroke="transparent" points="-4,4 -4,-361 842.76,-361 842.76,4 -4,4"/>
<!-- http://www.w3.org/2002/07/owl#DatatypeProperty -->
<g id="node1" class="node">
<title>http://www.w3.org/2002/07/owl#DatatypeProperty</title>
<ellipse fill="none" stroke="#1f77b4" cx="500.58" cy="-316.66" rx="123.07" ry="16.03"/>
<text text-anchor="middle" x="500.58" y="-312.96" font-family="Times,serif" font-size="14.00">owl:DatatypeProperty</text>
</g>
<!-- http://www.w3.org/2002/07/owl#Ontology -->
<g id="node2" class="node">
<title>http://www.w3.org/2002/07/owl#Ontology</title>
<ellipse fill="none" stroke="#1f77b4" cx="509.32" cy="-38.47" rx="77.56" ry="16.03"/>
<text text-anchor="middle" x="509.32" y="-34.77" font-family="Times,serif" font-size="14.00">owl:Ontology</text>
</g>
<!-- http://purl.org/oseg/ontologies/OTRL#ODRL -->
<g id="node3" class="node">
<title>http://purl.org/oseg/ontologies/OTRL#ODRL</title>
<ellipse fill="none" stroke="#e377c2" cx="113.86" cy="-238.27" rx="41.94" ry="16.03"/>
<text text-anchor="middle" x="113.86" y="-234.57" font-family="Times,serif" font-size="14.00">ODRL</text>
</g>
<!-- http://www.w3.org/2002/07/owl#class -->
<g id="node4" class="node">
<title>http://www.w3.org/2002/07/owl#class</title>
<ellipse fill="none" stroke="#1f77b4" cx="247.48" cy="-184.97" rx="57.05" ry="16.03"/>
<text text-anchor="middle" x="247.48" y="-181.27" font-family="Times,serif" font-size="14.00">owl:class</text>
</g>
<!-- http://purl.org/oseg/ontologies/OTRL#ODRL&#45;&gt;http://www.w3.org/2002/07/owl#class -->
<g id="edge14" class="edge">
<title>http://purl.org/oseg/ontologies/OTRL#ODRL&#45;&gt;http://www.w3.org/2002/07/owl#class</title>
<path fill="none" stroke="black" d="M143.18,-226.58C161.14,-219.41 184.44,-210.12 204.46,-202.13"/>
<polygon fill="black" stroke="black" points="206,-205.29 213.99,-198.33 203.41,-198.79 206,-205.29"/>
<text text-anchor="middle" x="169.32" y="-218.15" font-family="Times,serif" font-size="14.00">a</text>
</g>
<!-- http://purl.org/oseg/ontologies/OTRL#OTRL -->
<g id="node5" class="node">
<title>http://purl.org/oseg/ontologies/OTRL#OTRL</title>
<ellipse fill="none" stroke="#e377c2" cx="402.03" cy="-157.52" rx="39.7" ry="16.03"/>
<text text-anchor="middle" x="402.03" y="-153.82" font-family="Times,serif" font-size="14.00">OTRL</text>
</g>
<!-- http://purl.org/oseg/ontologies/OTRL#OTRL&#45;&gt;http://www.w3.org/2002/07/owl#class -->
<g id="edge11" class="edge">
<title>http://purl.org/oseg/ontologies/OTRL#OTRL&#45;&gt;http://www.w3.org/2002/07/owl#class</title>
<path fill="none" stroke="black" d="M365.4,-164.03C347.69,-167.17 325.99,-171.03 306.06,-174.57"/>
<polygon fill="black" stroke="black" points="305.36,-171.14 296.13,-176.33 306.59,-178.03 305.36,-171.14"/>
<text text-anchor="middle" x="331.23" y="-173.1" font-family="Times,serif" font-size="14.00">a</text>
</g>
<!-- http://purl.org/oseg/ontologies/OTRL -->
<g id="node6" class="node">
<title>http://purl.org/oseg/ontologies/OTRL</title>
<ellipse fill="none" stroke="#e377c2" cx="656.95" cy="-16.42" rx="60.62" ry="16.03"/>
<text text-anchor="middle" x="656.95" y="-12.72" font-family="Times,serif" font-size="14.00">ns1:OTRL</text>
</g>
<!-- http://purl.org/oseg/ontologies/OTRL&#45;&gt;http://www.w3.org/2002/07/owl#Ontology -->
<g id="edge19" class="edge">
<title>http://purl.org/oseg/ontologies/OTRL&#45;&gt;http://www.w3.org/2002/07/owl#Ontology</title>
<path fill="none" stroke="black" d="M603.65,-24.38C596.94,-25.38 589.98,-26.42 583.02,-27.46"/>
<polygon fill="black" stroke="black" points="582.22,-24.04 572.85,-28.98 583.26,-30.96 582.22,-24.04"/>
<text text-anchor="middle" x="591.08" y="-14.72" font-family="Times,serif" font-size="14.00">a</text>
</g>
<!-- http://purl.org/oseg/ontologies/OTRL&#45;&gt;http://purl.org/oseg/ontologies/OTRL -->
<g id="edge24" class="edge">
<title>http://purl.org/oseg/ontologies/OTRL&#45;&gt;http://purl.org/oseg/ontologies/OTRL</title>
<path fill="none" stroke="black" d="M712.55,-23.05C725.89,-22.53 735.76,-20.32 735.76,-16.42 735.76,-13.58 730.55,-11.64 722.58,-10.59"/>
<polygon fill="black" stroke="black" points="722.8,-7.1 712.55,-9.78 722.24,-14.07 722.8,-7.1"/>
<text text-anchor="middle" x="787.26" y="-12.72" font-family="Times,serif" font-size="14.00">owl:versionIRI</text>
</g>
<!-- http://purl.org/oseg/ontologies/OTRL#ODRL&#45;1 -->
<g id="node7" class="node">
<title>http://purl.org/oseg/ontologies/OTRL#ODRL&#45;1</title>
<ellipse fill="none" stroke="#e377c2" cx="110.91" cy="-313.21" rx="50.82" ry="16.03"/>
<text text-anchor="middle" x="110.91" y="-309.51" font-family="Times,serif" font-size="14.00">ODRL&#45;1</text>
</g>
<!-- http://purl.org/oseg/ontologies/OTRL#ODRL&#45;1&#45;&gt;http://purl.org/oseg/ontologies/OTRL#ODRL -->
<g id="edge3" class="edge">
<title>http://purl.org/oseg/ontologies/OTRL#ODRL&#45;1&#45;&gt;http://purl.org/oseg/ontologies/OTRL#ODRL</title>
<path fill="none" stroke="black" d="M111.56,-296.58C111.93,-287.2 112.4,-275.27 112.82,-264.65"/>
<polygon fill="black" stroke="black" points="116.32,-264.73 113.22,-254.6 109.32,-264.45 116.32,-264.73"/>
</g>
<!-- http://purl.org/oseg/ontologies/OTRL#ODRL&#45;1&#45;&gt;http://www.w3.org/2002/07/owl#class -->
<g id="edge1" class="edge">
<title>http://purl.org/oseg/ontologies/OTRL#ODRL&#45;1&#45;&gt;http://www.w3.org/2002/07/owl#class</title>
<path fill="none" stroke="black" d="M127.38,-297.75C151.25,-275.34 195.59,-233.7 223.21,-207.77"/>
<polygon fill="black" stroke="black" points="225.63,-210.3 230.52,-200.9 220.84,-205.19 225.63,-210.3"/>
<text text-anchor="middle" x="170.79" y="-256.56" font-family="Times,serif" font-size="14.00">a</text>
</g>
<!-- http://www.w3.org/1999/02/22&#45;rdf&#45;syntax&#45;ns#nil -->
<g id="node8" class="node">
<title>http://www.w3.org/1999/02/22&#45;rdf&#45;syntax&#45;ns#nil</title>
<ellipse fill="none" stroke="#e377c2" cx="285.24" cy="-340.64" rx="42.35" ry="16.03"/>
<text text-anchor="middle" x="285.24" y="-336.94" font-family="Times,serif" font-size="14.00">rdf:nil</text>
</g>
<!-- http://purl.org/oseg/ontologies/OTRL#OTRL&#45;2 -->
<g id="node9" class="node">
<title>http://purl.org/oseg/ontologies/OTRL#OTRL&#45;2</title>
<ellipse fill="none" stroke="#e377c2" cx="466.25" cy="-219.11" rx="49.49" ry="16.03"/>
<text text-anchor="middle" x="466.25" y="-215.41" font-family="Times,serif" font-size="14.00">OTRL&#45;2</text>
</g>
<!-- http://purl.org/oseg/ontologies/OTRL#OTRL&#45;2&#45;&gt;http://www.w3.org/2002/07/owl#class -->
<g id="edge21" class="edge">
<title>http://purl.org/oseg/ontologies/OTRL#OTRL&#45;2&#45;&gt;http://www.w3.org/2002/07/owl#class</title>
<path fill="none" stroke="black" d="M421.45,-212.12C388.66,-207 343.8,-200 307.85,-194.39"/>
<polygon fill="black" stroke="black" points="308.38,-190.93 297.96,-192.85 307.3,-197.85 308.38,-190.93"/>
<text text-anchor="middle" x="360.15" y="-207.06" font-family="Times,serif" font-size="14.00">a</text>
</g>
<!-- http://purl.org/oseg/ontologies/OTRL#OTRL&#45;2&#45;&gt;http://purl.org/oseg/ontologies/OTRL#OTRL -->
<g id="edge4" class="edge">
<title>http://purl.org/oseg/ontologies/OTRL#OTRL&#45;2&#45;&gt;http://purl.org/oseg/ontologies/OTRL#OTRL</title>
<path fill="none" stroke="black" d="M450.04,-203.57C442.53,-196.37 433.47,-187.67 425.25,-179.79"/>
<polygon fill="black" stroke="black" points="427.65,-177.24 418.01,-172.84 422.8,-182.29 427.65,-177.24"/>
</g>
<!-- http://purl.org/oseg/ontologies/OTRL#OTRL&#45;3 -->
<g id="node10" class="node">
<title>http://purl.org/oseg/ontologies/OTRL#OTRL&#45;3</title>
<ellipse fill="none" stroke="#e377c2" cx="357.92" cy="-251.35" rx="49.49" ry="16.03"/>
<text text-anchor="middle" x="357.92" y="-247.65" font-family="Times,serif" font-size="14.00">OTRL&#45;3</text>
</g>
<!-- http://purl.org/oseg/ontologies/OTRL#OTRL&#45;3&#45;&gt;http://www.w3.org/2002/07/owl#class -->
<g id="edge22" class="edge">
<title>http://purl.org/oseg/ontologies/OTRL#OTRL&#45;3&#45;&gt;http://www.w3.org/2002/07/owl#class</title>
<path fill="none" stroke="black" d="M333.95,-236.95C318.4,-227.6 297.9,-215.28 280.77,-204.98"/>
<polygon fill="black" stroke="black" points="282.54,-201.96 272.16,-199.81 278.93,-207.96 282.54,-201.96"/>
<text text-anchor="middle" x="302.86" y="-224.77" font-family="Times,serif" font-size="14.00">a</text>
</g>
<!-- http://purl.org/oseg/ontologies/OTRL#OTRL&#45;3&#45;&gt;http://purl.org/oseg/ontologies/OTRL#OTRL -->
<g id="edge7" class="edge">
<title>http://purl.org/oseg/ontologies/OTRL#OTRL&#45;3&#45;&gt;http://purl.org/oseg/ontologies/OTRL#OTRL</title>
<path fill="none" stroke="black" d="M365.6,-235.01C372.37,-220.61 382.33,-199.41 390.13,-182.83"/>
<polygon fill="black" stroke="black" points="393.35,-184.22 394.43,-173.68 387.01,-181.24 393.35,-184.22"/>
</g>
<!-- http://purl.org/oseg/ontologies/OTRL#ODRL&#45;5 -->
<g id="node11" class="node">
<title>http://purl.org/oseg/ontologies/OTRL#ODRL&#45;5</title>
<ellipse fill="none" stroke="#e377c2" cx="65.62" cy="-109.4" rx="50.82" ry="16.03"/>
<text text-anchor="middle" x="65.62" y="-105.7" font-family="Times,serif" font-size="14.00">ODRL&#45;5</text>
</g>
<!-- http://purl.org/oseg/ontologies/OTRL#ODRL&#45;5&#45;&gt;http://purl.org/oseg/ontologies/OTRL#ODRL -->
<g id="edge9" class="edge">
<title>http://purl.org/oseg/ontologies/OTRL#ODRL&#45;5&#45;&gt;http://purl.org/oseg/ontologies/OTRL#ODRL</title>
<path fill="none" stroke="black" d="M71.73,-125.72C79.92,-147.6 94.55,-186.69 104.23,-212.55"/>
<polygon fill="black" stroke="black" points="101.02,-213.94 107.8,-222.08 107.57,-211.49 101.02,-213.94"/>
</g>
<!-- http://purl.org/oseg/ontologies/OTRL#ODRL&#45;5&#45;&gt;http://www.w3.org/2002/07/owl#class -->
<g id="edge23" class="edge">
<title>http://purl.org/oseg/ontologies/OTRL#ODRL&#45;5&#45;&gt;http://www.w3.org/2002/07/owl#class</title>
<path fill="none" stroke="black" d="M96.88,-122.39C126.92,-134.87 172.52,-153.82 205.67,-167.6"/>
<polygon fill="black" stroke="black" points="204.52,-170.91 215.1,-171.52 207.21,-164.45 204.52,-170.91"/>
<text text-anchor="middle" x="146.78" y="-148.79" font-family="Times,serif" font-size="14.00">a</text>
</g>
<!-- http://purl.org/oseg/ontologies/OTRL#ODRL&#45;4 -->
<g id="node12" class="node">
<title>http://purl.org/oseg/ontologies/OTRL#ODRL&#45;4</title>
<ellipse fill="none" stroke="#e377c2" cx="240.43" cy="-271.65" rx="50.82" ry="16.03"/>
<text text-anchor="middle" x="240.43" y="-267.95" font-family="Times,serif" font-size="14.00">ODRL&#45;4</text>
</g>
<!-- http://purl.org/oseg/ontologies/OTRL#ODRL&#45;4&#45;&gt;http://purl.org/oseg/ontologies/OTRL#ODRL -->
<g id="edge20" class="edge">
<title>http://purl.org/oseg/ontologies/OTRL#ODRL&#45;4&#45;&gt;http://purl.org/oseg/ontologies/OTRL#ODRL</title>
<path fill="none" stroke="black" d="M201.08,-261.27C187.53,-257.7 172.26,-253.67 158.34,-250"/>
<polygon fill="black" stroke="black" points="159.04,-246.57 148.48,-247.4 157.25,-253.33 159.04,-246.57"/>
</g>
<!-- http://purl.org/oseg/ontologies/OTRL#ODRL&#45;4&#45;&gt;http://www.w3.org/2002/07/owl#class -->
<g id="edge5" class="edge">
<title>http://purl.org/oseg/ontologies/OTRL#ODRL&#45;4&#45;&gt;http://www.w3.org/2002/07/owl#class</title>
<path fill="none" stroke="black" d="M241.76,-255.34C242.76,-243.07 244.15,-225.99 245.31,-211.73"/>
<polygon fill="black" stroke="black" points="248.82,-211.75 246.14,-201.5 241.84,-211.18 248.82,-211.75"/>
<text text-anchor="middle" x="239.03" y="-237.34" font-family="Times,serif" font-size="14.00">a</text>
</g>
<!-- http://purl.org/oseg/ontologies/OTRL#goal -->
<g id="node13" class="node">
<title>http://purl.org/oseg/ontologies/OTRL#goal</title>
<ellipse fill="none" stroke="#e377c2" cx="697.93" cy="-275.07" rx="33.47" ry="16.03"/>
<text text-anchor="middle" x="697.93" y="-271.37" font-family="Times,serif" font-size="14.00">goal</text>
</g>
<!-- http://purl.org/oseg/ontologies/OTRL#goal&#45;&gt;http://www.w3.org/2002/07/owl#DatatypeProperty -->
<g id="edge8" class="edge">
<title>http://purl.org/oseg/ontologies/OTRL#goal&#45;&gt;http://www.w3.org/2002/07/owl#DatatypeProperty</title>
<path fill="none" stroke="black" d="M667.09,-281.57C642.83,-286.68 607.97,-294.03 576.41,-300.68"/>
<polygon fill="black" stroke="black" points="575.36,-297.32 566.3,-302.81 576.8,-304.17 575.36,-297.32"/>
<text text-anchor="middle" x="626.25" y="-294.92" font-family="Times,serif" font-size="14.00">a</text>
</g>
<!-- http://schema.org/Text -->
<g id="node15" class="node">
<title>http://schema.org/Text</title>
<ellipse fill="none" stroke="#e377c2" cx="629.43" cy="-232.02" rx="74.91" ry="16.03"/>
<text text-anchor="middle" x="629.43" y="-228.32" font-family="Times,serif" font-size="14.00">schema:Text</text>
</g>
<!-- http://purl.org/oseg/ontologies/OTRL#goal&#45;&gt;http://schema.org/Text -->
<g id="edge10" class="edge">
<title>http://purl.org/oseg/ontologies/OTRL#goal&#45;&gt;http://schema.org/Text</title>
<path fill="none" stroke="black" d="M677.38,-262.15C672.84,-259.3 667.93,-256.21 663.03,-253.13"/>
<polygon fill="black" stroke="black" points="664.65,-250.02 654.32,-247.66 660.93,-255.95 664.65,-250.02"/>
<text text-anchor="middle" x="691.2" y="-246.44" font-family="Times,serif" font-size="14.00">range</text>
</g>
<!-- http://purl.org/oseg/ontologies/OTRL#OTRL&#45;1 -->
<g id="node14" class="node">
<title>http://purl.org/oseg/ontologies/OTRL#OTRL&#45;1</title>
<ellipse fill="none" stroke="#e377c2" cx="347.17" cy="-15.77" rx="49.49" ry="16.03"/>
<text text-anchor="middle" x="347.17" y="-12.07" font-family="Times,serif" font-size="14.00">OTRL&#45;1</text>
</g>
<!-- http://purl.org/oseg/ontologies/OTRL#OTRL&#45;1&#45;&gt;http://www.w3.org/2002/07/owl#class -->
<g id="edge25" class="edge">
<title>http://purl.org/oseg/ontologies/OTRL#OTRL&#45;1&#45;&gt;http://www.w3.org/2002/07/owl#class</title>
<path fill="none" stroke="black" d="M337.61,-32C320.12,-61.68 282.86,-124.93 262.14,-160.09"/>
<polygon fill="black" stroke="black" points="259.07,-158.41 257.01,-168.8 265.1,-161.96 259.07,-158.41"/>
<text text-anchor="middle" x="295.38" y="-99.84" font-family="Times,serif" font-size="14.00">a</text>
</g>
<!-- http://purl.org/oseg/ontologies/OTRL#OTRL&#45;1&#45;&gt;http://purl.org/oseg/ontologies/OTRL#OTRL -->
<g id="edge2" class="edge">
<title>http://purl.org/oseg/ontologies/OTRL#OTRL&#45;1&#45;&gt;http://purl.org/oseg/ontologies/OTRL#OTRL</title>
<path fill="none" stroke="black" d="M353.46,-32.03C362.93,-56.49 380.91,-102.97 392.14,-131.98"/>
<polygon fill="black" stroke="black" points="388.93,-133.39 395.81,-141.45 395.46,-130.86 388.93,-133.39"/>
</g>
<!-- http://purl.org/oseg/ontologies/OTRL#OTRL&#45;5 -->
<g id="node16" class="node">
<title>http://purl.org/oseg/ontologies/OTRL#OTRL&#45;5</title>
<ellipse fill="none" stroke="#e377c2" cx="268.78" cy="-136.33" rx="49.49" ry="16.03"/>
<text text-anchor="middle" x="268.78" y="-132.63" font-family="Times,serif" font-size="14.00">OTRL&#45;5</text>
</g>
<!-- http://purl.org/oseg/ontologies/OTRL#OTRL&#45;5&#45;&gt;http://www.w3.org/2002/07/owl#class -->
<g id="edge13" class="edge">
<title>http://purl.org/oseg/ontologies/OTRL#OTRL&#45;5&#45;&gt;http://www.w3.org/2002/07/owl#class</title>
<path fill="none" stroke="black" d="M261.69,-152.52C260.73,-154.72 259.73,-157.01 258.72,-159.32"/>
<polygon fill="black" stroke="black" points="255.42,-158.12 254.62,-168.68 261.83,-160.92 255.42,-158.12"/>
<text text-anchor="middle" x="255.7" y="-159.72" font-family="Times,serif" font-size="14.00">a</text>
</g>
<!-- http://purl.org/oseg/ontologies/OTRL#OTRL&#45;5&#45;&gt;http://purl.org/oseg/ontologies/OTRL#OTRL -->
<g id="edge15" class="edge">
<title>http://purl.org/oseg/ontologies/OTRL#OTRL&#45;5&#45;&gt;http://purl.org/oseg/ontologies/OTRL#OTRL</title>
<path fill="none" stroke="black" d="M313.52,-143.44C326.77,-145.55 341.33,-147.87 354.74,-150"/>
<polygon fill="black" stroke="black" points="354.31,-153.47 364.73,-151.59 355.41,-146.56 354.31,-153.47"/>
</g>
<!-- http://purl.org/oseg/ontologies/OTRL#ODRL&#45;2 -->
<g id="node17" class="node">
<title>http://purl.org/oseg/ontologies/OTRL#ODRL&#45;2</title>
<ellipse fill="none" stroke="#e377c2" cx="118.8" cy="-68.59" rx="50.82" ry="16.03"/>
<text text-anchor="middle" x="118.8" y="-64.89" font-family="Times,serif" font-size="14.00">ODRL&#45;2</text>
</g>
<!-- http://purl.org/oseg/ontologies/OTRL#ODRL&#45;2&#45;&gt;http://purl.org/oseg/ontologies/OTRL#ODRL -->
<g id="edge16" class="edge">
<title>http://purl.org/oseg/ontologies/OTRL#ODRL&#45;2&#45;&gt;http://purl.org/oseg/ontologies/OTRL#ODRL</title>
<path fill="none" stroke="black" d="M118.33,-84.86C117.47,-114.18 115.67,-176.12 114.63,-211.68"/>
<polygon fill="black" stroke="black" points="111.13,-211.7 114.34,-221.8 118.13,-211.91 111.13,-211.7"/>
</g>
<!-- http://purl.org/oseg/ontologies/OTRL#ODRL&#45;2&#45;&gt;http://www.w3.org/2002/07/owl#class -->
<g id="edge27" class="edge">
<title>http://purl.org/oseg/ontologies/OTRL#ODRL&#45;2&#45;&gt;http://www.w3.org/2002/07/owl#class</title>
<path fill="none" stroke="black" d="M135.89,-84.05C158.2,-104.22 197.39,-139.66 222.89,-162.73"/>
<polygon fill="black" stroke="black" points="220.56,-165.34 230.33,-169.46 225.26,-160.15 220.56,-165.34"/>
<text text-anchor="middle" x="174.89" y="-127.19" font-family="Times,serif" font-size="14.00">a</text>
</g>
<!-- http://purl.org/oseg/ontologies/OTRL#exitCriteria -->
<g id="node18" class="node">
<title>http://purl.org/oseg/ontologies/OTRL#exitCriteria</title>
<ellipse fill="none" stroke="#e377c2" cx="586.05" cy="-275.26" rx="70.01" ry="16.03"/>
<text text-anchor="middle" x="586.05" y="-271.56" font-family="Times,serif" font-size="14.00">exitCriteria</text>
</g>
<!-- http://purl.org/oseg/ontologies/OTRL#exitCriteria&#45;&gt;http://www.w3.org/2002/07/owl#DatatypeProperty -->
<g id="edge28" class="edge">
<title>http://purl.org/oseg/ontologies/OTRL#exitCriteria&#45;&gt;http://www.w3.org/2002/07/owl#DatatypeProperty</title>
<path fill="none" stroke="black" d="M555.68,-289.97C551.35,-292.07 546.83,-294.26 542.33,-296.44"/>
<polygon fill="black" stroke="black" points="540.65,-293.36 533.18,-300.87 543.7,-299.66 540.65,-293.36"/>
<text text-anchor="middle" x="544.5" y="-297.01" font-family="Times,serif" font-size="14.00">a</text>
</g>
<!-- http://purl.org/oseg/ontologies/OTRL#exitCriteria&#45;&gt;http://schema.org/Text -->
<g id="edge12" class="edge">
<title>http://purl.org/oseg/ontologies/OTRL#exitCriteria&#45;&gt;http://schema.org/Text</title>
<path fill="none" stroke="black" d="M602.2,-259.16C603.46,-257.9 604.75,-256.62 606.04,-255.33"/>
<polygon fill="black" stroke="black" points="608.8,-257.53 613.41,-247.99 603.86,-252.57 608.8,-257.53"/>
<text text-anchor="middle" x="583.12" y="-246.04" font-family="Times,serif" font-size="14.00">range</text>
</g>
<!-- http://purl.org/oseg/ontologies/OTRL#ODRL&#45;3 -->
<g id="node19" class="node">
<title>http://purl.org/oseg/ontologies/OTRL#ODRL&#45;3</title>
<ellipse fill="none" stroke="#e377c2" cx="50.89" cy="-195.19" rx="50.82" ry="16.03"/>
<text text-anchor="middle" x="50.89" y="-191.49" font-family="Times,serif" font-size="14.00">ODRL&#45;3</text>
</g>
<!-- http://purl.org/oseg/ontologies/OTRL#ODRL&#45;3&#45;&gt;http://purl.org/oseg/ontologies/OTRL#ODRL -->
<g id="edge6" class="edge">
<title>http://purl.org/oseg/ontologies/OTRL#ODRL&#45;3&#45;&gt;http://purl.org/oseg/ontologies/OTRL#ODRL</title>
<path fill="none" stroke="black" d="M72.56,-210.02C76.35,-212.61 80.34,-215.34 84.29,-218.05"/>
<polygon fill="black" stroke="black" points="82.56,-221.1 92.79,-223.86 86.51,-215.32 82.56,-221.1"/>
</g>
<!-- http://purl.org/oseg/ontologies/OTRL#ODRL&#45;3&#45;&gt;http://www.w3.org/2002/07/owl#class -->
<g id="edge17" class="edge">
<title>http://purl.org/oseg/ontologies/OTRL#ODRL&#45;3&#45;&gt;http://www.w3.org/2002/07/owl#class</title>
<path fill="none" stroke="black" d="M101.26,-192.58C125.47,-191.32 154.81,-189.79 180.83,-188.44"/>
<polygon fill="black" stroke="black" points="181.19,-191.93 191,-187.91 180.83,-184.93 181.19,-191.93"/>
<text text-anchor="middle" x="136.55" y="-194.31" font-family="Times,serif" font-size="14.00">a</text>
</g>
<!-- http://purl.org/oseg/ontologies/OTRL#OTRL&#45;4 -->
<g id="node20" class="node">
<title>http://purl.org/oseg/ontologies/OTRL#OTRL&#45;4</title>
<ellipse fill="none" stroke="#e377c2" cx="425.04" cy="-106.57" rx="49.49" ry="16.03"/>
<text text-anchor="middle" x="425.04" y="-102.87" font-family="Times,serif" font-size="14.00">OTRL&#45;4</text>
</g>
<!-- http://purl.org/oseg/ontologies/OTRL#OTRL&#45;4&#45;&gt;http://www.w3.org/2002/07/owl#class -->
<g id="edge18" class="edge">
<title>http://purl.org/oseg/ontologies/OTRL#OTRL&#45;4&#45;&gt;http://www.w3.org/2002/07/owl#class</title>
<path fill="none" stroke="black" d="M395.32,-119.69C365.85,-132.71 320.49,-152.74 287.78,-167.18"/>
<polygon fill="black" stroke="black" points="286.23,-164.04 278.5,-171.28 289.06,-170.44 286.23,-164.04"/>
<text text-anchor="middle" x="337.05" y="-147.23" font-family="Times,serif" font-size="14.00">a</text>
</g>
<!-- http://purl.org/oseg/ontologies/OTRL#OTRL&#45;4&#45;&gt;http://purl.org/oseg/ontologies/OTRL#OTRL -->
<g id="edge26" class="edge">
<title>http://purl.org/oseg/ontologies/OTRL#OTRL&#45;4&#45;&gt;http://purl.org/oseg/ontologies/OTRL#OTRL</title>
<path fill="none" stroke="black" d="M417.76,-122.69C416.42,-125.66 414.99,-128.83 413.55,-132.01"/>
<polygon fill="black" stroke="black" points="410.27,-130.77 409.34,-141.33 416.65,-133.66 410.27,-130.77"/>
</g>
</g>
</svg>
