<?xml version="1.0" encoding="UTF-8" standalone="no"?>
<!DOCTYPE svg PUBLIC "-//W3C//DTD SVG 1.1//EN"
 "http://www.w3.org/Graphics/SVG/1.1/DTD/svg11.dtd">
<!-- Generated by graphviz version 2.43.0 (0)
 -->
<!-- Title: G Pages: 1 -->
<svg width="919pt" height="1123pt"
 viewBox="0.00 0.00 918.76 1123.00" xmlns="http://www.w3.org/2000/svg" xmlns:xlink="http://www.w3.org/1999/xlink">
<g id="graph0" class="graph" transform="scale(1 1) rotate(0) translate(4 1119)">
<title>G</title>
<polygon fill="white" stroke="transparent" points="-4,4 -4,-1119 914.76,-1119 914.76,4 -4,4"/>
<!-- http://www.w3.org/2002/07/owl#DatatypeProperty -->
<g id="node1" class="node">
<title>http://www.w3.org/2002/07/owl#DatatypeProperty</title>
<ellipse fill="none" stroke="#1f77b4" cx="645.18" cy="-234.45" rx="123.07" ry="16.03"/>
<text text-anchor="middle" x="645.18" y="-230.75" font-family="Times,serif" font-size="14.00">owl:DatatypeProperty</text>
</g>
<!-- http://purl.org/oseg/ontologies/OTRL#ODRL -->
<g id="node2" class="node">
<title>http://purl.org/oseg/ontologies/OTRL#ODRL</title>
<ellipse fill="none" stroke="#e377c2" cx="235.37" cy="-1005.61" rx="41.94" ry="16.03"/>
<text text-anchor="middle" x="235.37" y="-1001.91" font-family="Times,serif" font-size="14.00">ODRL</text>
</g>
<!-- http://www.w3.org/2002/07/owl#class -->
<g id="node5" class="node">
<title>http://www.w3.org/2002/07/owl#class</title>
<ellipse fill="none" stroke="#1f77b4" cx="285.08" cy="-818.15" rx="57.05" ry="16.03"/>
<text text-anchor="middle" x="285.08" y="-814.45" font-family="Times,serif" font-size="14.00">owl:class</text>
</g>
<!-- http://purl.org/oseg/ontologies/OTRL#ODRL&#45;&gt;http://www.w3.org/2002/07/owl#class -->
<g id="edge44" class="edge">
<title>http://purl.org/oseg/ontologies/OTRL#ODRL&#45;&gt;http://www.w3.org/2002/07/owl#class</title>
<path fill="none" stroke="black" d="M239.69,-989.3C248.32,-956.76 267.75,-883.51 278.17,-844.22"/>
<polygon fill="black" stroke="black" points="281.55,-845.12 280.73,-834.55 274.78,-843.32 281.55,-845.12"/>
<text text-anchor="middle" x="254.43" y="-920.56" font-family="Times,serif" font-size="14.00">a</text>
</g>
<!-- http://www.w3.org/2002/07/owl#Ontology -->
<g id="node3" class="node">
<title>http://www.w3.org/2002/07/owl#Ontology</title>
<ellipse fill="none" stroke="#1f77b4" cx="581.32" cy="-542.47" rx="77.56" ry="16.03"/>
<text text-anchor="middle" x="581.32" y="-538.77" font-family="Times,serif" font-size="14.00">owl:Ontology</text>
</g>
<!-- http://purl.org/oseg/ontologies/OTRL#OTRL -->
<g id="node4" class="node">
<title>http://purl.org/oseg/ontologies/OTRL#OTRL</title>
<ellipse fill="none" stroke="#e377c2" cx="361.77" cy="-525.62" rx="39.7" ry="16.03"/>
<text text-anchor="middle" x="361.77" y="-521.92" font-family="Times,serif" font-size="14.00">OTRL</text>
</g>
<!-- http://purl.org/oseg/ontologies/OTRL#OTRL&#45;&gt;http://www.w3.org/2002/07/owl#class -->
<g id="edge17" class="edge">
<title>http://purl.org/oseg/ontologies/OTRL#OTRL&#45;&gt;http://www.w3.org/2002/07/owl#class</title>
<path fill="none" stroke="black" d="M357.43,-542.19C344.69,-590.76 307.38,-733.1 291.91,-792.08"/>
<polygon fill="black" stroke="black" points="288.53,-791.21 289.38,-801.77 295.3,-792.98 288.53,-791.21"/>
<text text-anchor="middle" x="320.17" y="-655.93" font-family="Times,serif" font-size="14.00">a</text>
</g>
<!-- http://purl.org/oseg/ontologies/OTRL#hardwareDescription -->
<g id="node6" class="node">
<title>http://purl.org/oseg/ontologies/OTRL#hardwareDescription</title>
<ellipse fill="none" stroke="#e377c2" cx="412.39" cy="-187.66" rx="118.17" ry="16.03"/>
<text text-anchor="middle" x="412.39" y="-183.96" font-family="Times,serif" font-size="14.00">hardwareDescription</text>
</g>
<!-- http://purl.org/oseg/ontologies/OTRL#hardwareDescription&#45;&gt;http://www.w3.org/2002/07/owl#DatatypeProperty -->
<g id="edge3" class="edge">
<title>http://purl.org/oseg/ontologies/OTRL#hardwareDescription&#45;&gt;http://www.w3.org/2002/07/owl#DatatypeProperty</title>
<path fill="none" stroke="black" d="M479.41,-201.13C506.93,-206.66 538.96,-213.1 567.49,-218.83"/>
<polygon fill="black" stroke="black" points="566.93,-222.29 577.42,-220.83 568.31,-215.43 566.93,-222.29"/>
<text text-anchor="middle" x="518.95" y="-213.78" font-family="Times,serif" font-size="14.00">a</text>
</g>
<!-- http://purl.org/oseg/ontologies/OTRL#hardwareDescription&#45;&gt;http://purl.org/oseg/ontologies/OTRL#OTRL -->
<g id="edge7" class="edge">
<title>http://purl.org/oseg/ontologies/OTRL#hardwareDescription&#45;&gt;http://purl.org/oseg/ontologies/OTRL#OTRL</title>
<path fill="none" stroke="black" d="M409.95,-203.96C401.85,-258.05 375.81,-431.91 365.77,-498.93"/>
<polygon fill="black" stroke="black" points="362.27,-498.68 364.25,-509.09 369.19,-499.72 362.27,-498.68"/>
<text text-anchor="middle" x="361.36" y="-355.25" font-family="Times,serif" font-size="14.00">domain</text>
</g>
<!-- http://schema.org/Text -->
<g id="node15" class="node">
<title>http://schema.org/Text</title>
<ellipse fill="none" stroke="#e377c2" cx="447.99" cy="-15.84" rx="74.91" ry="16.03"/>
<text text-anchor="middle" x="447.99" y="-12.14" font-family="Times,serif" font-size="14.00">schema:Text</text>
</g>
<!-- http://purl.org/oseg/ontologies/OTRL#hardwareDescription&#45;&gt;http://schema.org/Text -->
<g id="edge16" class="edge">
<title>http://purl.org/oseg/ontologies/OTRL#hardwareDescription&#45;&gt;http://schema.org/Text</title>
<path fill="none" stroke="black" d="M415.81,-171.19C421.97,-141.42 435.02,-78.45 442.47,-42.49"/>
<polygon fill="black" stroke="black" points="445.99,-42.76 444.59,-32.26 439.13,-41.34 445.99,-42.76"/>
<text text-anchor="middle" x="408.14" y="-110.64" font-family="Times,serif" font-size="14.00">range</text>
</g>
<!-- http://purl.org/oseg/ontologies/OTRL#ODRL&#45;3 -->
<g id="node7" class="node">
<title>http://purl.org/oseg/ontologies/OTRL#ODRL&#45;3</title>
<ellipse fill="none" stroke="#e377c2" cx="447.59" cy="-1012.81" rx="50.82" ry="16.03"/>
<text text-anchor="middle" x="447.59" y="-1009.11" font-family="Times,serif" font-size="14.00">ODRL&#45;3</text>
</g>
<!-- http://purl.org/oseg/ontologies/OTRL#ODRL&#45;3&#45;&gt;http://purl.org/oseg/ontologies/OTRL#ODRL -->
<g id="edge19" class="edge">
<title>http://purl.org/oseg/ontologies/OTRL#ODRL&#45;3&#45;&gt;http://purl.org/oseg/ontologies/OTRL#ODRL</title>
<path fill="none" stroke="black" d="M396.76,-1011.08C363.64,-1009.96 320.56,-1008.5 287.24,-1007.37"/>
<polygon fill="black" stroke="black" points="287.35,-1003.87 277.23,-1007.03 287.11,-1010.87 287.35,-1003.87"/>
</g>
<!-- http://purl.org/oseg/ontologies/OTRL#ODRL&#45;3&#45;&gt;http://www.w3.org/2002/07/owl#class -->
<g id="edge22" class="edge">
<title>http://purl.org/oseg/ontologies/OTRL#ODRL&#45;3&#45;&gt;http://www.w3.org/2002/07/owl#class</title>
<path fill="none" stroke="black" d="M434.3,-996.88C405.71,-962.64 338.31,-881.91 304.76,-841.73"/>
<polygon fill="black" stroke="black" points="307.43,-839.46 298.34,-834.03 302.06,-843.95 307.43,-839.46"/>
<text text-anchor="middle" x="365.03" y="-923.1" font-family="Times,serif" font-size="14.00">a</text>
</g>
<!-- http://purl.org/oseg/ontologies/OTRL#ODRL&#45;1 -->
<g id="node8" class="node">
<title>http://purl.org/oseg/ontologies/OTRL#ODRL&#45;1</title>
<ellipse fill="none" stroke="#e377c2" cx="50.78" cy="-909.69" rx="50.82" ry="16.03"/>
<text text-anchor="middle" x="50.78" y="-905.99" font-family="Times,serif" font-size="14.00">ODRL&#45;1</text>
</g>
<!-- http://purl.org/oseg/ontologies/OTRL#ODRL&#45;1&#45;&gt;http://purl.org/oseg/ontologies/OTRL#ODRL -->
<g id="edge21" class="edge">
<title>http://purl.org/oseg/ontologies/OTRL#ODRL&#45;1&#45;&gt;http://purl.org/oseg/ontologies/OTRL#ODRL</title>
<path fill="none" stroke="black" d="M77.62,-923.64C110.3,-940.62 165.53,-969.32 201.21,-987.86"/>
<polygon fill="black" stroke="black" points="199.79,-991.07 210.27,-992.57 203.01,-984.85 199.79,-991.07"/>
</g>
<!-- http://purl.org/oseg/ontologies/OTRL#ODRL&#45;1&#45;&gt;http://www.w3.org/2002/07/owl#class -->
<g id="edge24" class="edge">
<title>http://purl.org/oseg/ontologies/OTRL#ODRL&#45;1&#45;&gt;http://www.w3.org/2002/07/owl#class</title>
<path fill="none" stroke="black" d="M83.35,-896.96C124.68,-880.82 196.06,-852.93 241.89,-835.02"/>
<polygon fill="black" stroke="black" points="243.22,-838.26 251.26,-831.36 240.67,-831.74 243.22,-838.26"/>
<text text-anchor="middle" x="158.12" y="-869.79" font-family="Times,serif" font-size="14.00">a</text>
</g>
<!-- http://purl.org/oseg/ontologies/OTRL#ODRL&#45;2 -->
<g id="node9" class="node">
<title>http://purl.org/oseg/ontologies/OTRL#ODRL&#45;2</title>
<ellipse fill="none" stroke="#e377c2" cx="389.84" cy="-1070.11" rx="50.82" ry="16.03"/>
<text text-anchor="middle" x="389.84" y="-1066.41" font-family="Times,serif" font-size="14.00">ODRL&#45;2</text>
</g>
<!-- http://purl.org/oseg/ontologies/OTRL#ODRL&#45;2&#45;&gt;http://purl.org/oseg/ontologies/OTRL#ODRL -->
<g id="edge39" class="edge">
<title>http://purl.org/oseg/ontologies/OTRL#ODRL&#45;2&#45;&gt;http://purl.org/oseg/ontologies/OTRL#ODRL</title>
<path fill="none" stroke="black" d="M358.58,-1057.06C333.92,-1046.76 299.44,-1032.37 273.23,-1021.42"/>
<polygon fill="black" stroke="black" points="274.55,-1018.18 263.98,-1017.56 271.86,-1024.64 274.55,-1018.18"/>
</g>
<!-- http://purl.org/oseg/ontologies/OTRL#ODRL&#45;2&#45;&gt;http://www.w3.org/2002/07/owl#class -->
<g id="edge5" class="edge">
<title>http://purl.org/oseg/ontologies/OTRL#ODRL&#45;2&#45;&gt;http://www.w3.org/2002/07/owl#class</title>
<path fill="none" stroke="black" d="M383.12,-1053.97C365.43,-1011.4 317.39,-895.85 295.82,-843.97"/>
<polygon fill="black" stroke="black" points="298.94,-842.38 291.87,-834.49 292.48,-845.06 298.94,-842.38"/>
<text text-anchor="middle" x="334.97" y="-952.77" font-family="Times,serif" font-size="14.00">a</text>
</g>
<!-- http://purl.org/oseg/ontologies/OTRL#OTRL&#45;4 -->
<g id="node10" class="node">
<title>http://purl.org/oseg/ontologies/OTRL#OTRL&#45;4</title>
<ellipse fill="none" stroke="#e377c2" cx="119.74" cy="-606.12" rx="49.49" ry="16.03"/>
<text text-anchor="middle" x="119.74" y="-602.42" font-family="Times,serif" font-size="14.00">OTRL&#45;4</text>
</g>
<!-- http://purl.org/oseg/ontologies/OTRL#OTRL&#45;4&#45;&gt;http://purl.org/oseg/ontologies/OTRL#OTRL -->
<g id="edge28" class="edge">
<title>http://purl.org/oseg/ontologies/OTRL#OTRL&#45;4&#45;&gt;http://purl.org/oseg/ontologies/OTRL#OTRL</title>
<path fill="none" stroke="black" d="M154.67,-594.5C198.7,-579.86 274.25,-554.73 320.91,-539.21"/>
<polygon fill="black" stroke="black" points="322.3,-542.44 330.69,-535.96 320.09,-535.8 322.3,-542.44"/>
</g>
<!-- http://purl.org/oseg/ontologies/OTRL#OTRL&#45;4&#45;&gt;http://www.w3.org/2002/07/owl#class -->
<g id="edge26" class="edge">
<title>http://purl.org/oseg/ontologies/OTRL#OTRL&#45;4&#45;&gt;http://www.w3.org/2002/07/owl#class</title>
<path fill="none" stroke="black" d="M132.17,-622.06C160.89,-658.9 232.04,-750.13 266.19,-793.93"/>
<polygon fill="black" stroke="black" points="263.6,-796.3 272.51,-802.03 269.12,-791.99 263.6,-796.3"/>
<text text-anchor="middle" x="194.68" y="-711.8" font-family="Times,serif" font-size="14.00">a</text>
</g>
<!-- http://purl.org/oseg/ontologies/OTRL#documentationDescription -->
<g id="node11" class="node">
<title>http://purl.org/oseg/ontologies/OTRL#documentationDescription</title>
<ellipse fill="none" stroke="#e377c2" cx="248.33" cy="-233.2" rx="120.83" ry="16.03"/>
<text text-anchor="middle" x="248.33" y="-229.5" font-family="Times,serif" font-size="14.00">documentationDesc...</text>
</g>
<!-- http://purl.org/oseg/ontologies/OTRL#documentationDescription&#45;&gt;http://www.w3.org/2002/07/owl#DatatypeProperty -->
<g id="edge27" class="edge">
<title>http://purl.org/oseg/ontologies/OTRL#documentationDescription&#45;&gt;http://www.w3.org/2002/07/owl#DatatypeProperty</title>
<path fill="none" stroke="black" d="M369.28,-233.58C414.42,-233.72 465.9,-233.88 512.07,-234.03"/>
<polygon fill="black" stroke="black" points="512.13,-237.53 522.14,-234.06 512.15,-230.53 512.13,-237.53"/>
<text text-anchor="middle" x="436.18" y="-237.6" font-family="Times,serif" font-size="14.00">a</text>
</g>
<!-- http://purl.org/oseg/ontologies/OTRL#documentationDescription&#45;&gt;http://purl.org/oseg/ontologies/OTRL#OTRL -->
<g id="edge23" class="edge">
<title>http://purl.org/oseg/ontologies/OTRL#documentationDescription&#45;&gt;http://purl.org/oseg/ontologies/OTRL#OTRL</title>
<path fill="none" stroke="black" d="M254.75,-249.76C273.59,-298.31 328.79,-440.6 351.66,-499.56"/>
<polygon fill="black" stroke="black" points="348.54,-501.19 355.42,-509.24 355.06,-498.66 348.54,-501.19"/>
<text text-anchor="middle" x="276.71" y="-378.46" font-family="Times,serif" font-size="14.00">domain</text>
</g>
<!-- http://purl.org/oseg/ontologies/OTRL#documentationDescription&#45;&gt;http://schema.org/Text -->
<g id="edge40" class="edge">
<title>http://purl.org/oseg/ontologies/OTRL#documentationDescription&#45;&gt;http://schema.org/Text</title>
<path fill="none" stroke="black" d="M263.34,-216.86C298.33,-178.77 385.45,-83.93 426.26,-39.5"/>
<polygon fill="black" stroke="black" points="428.9,-41.8 433.09,-32.07 423.74,-37.06 428.9,-41.8"/>
<text text-anchor="middle" x="323.8" y="-131.98" font-family="Times,serif" font-size="14.00">range</text>
</g>
<!-- http://purl.org/oseg/ontologies/OTRL#exitCriteria -->
<g id="node12" class="node">
<title>http://purl.org/oseg/ontologies/OTRL#exitCriteria</title>
<ellipse fill="none" stroke="#e377c2" cx="396.67" cy="-279.6" rx="70.01" ry="16.03"/>
<text text-anchor="middle" x="396.67" y="-275.9" font-family="Times,serif" font-size="14.00">exitCriteria</text>
</g>
<!-- http://purl.org/oseg/ontologies/OTRL#exitCriteria&#45;&gt;http://www.w3.org/2002/07/owl#DatatypeProperty -->
<g id="edge8" class="edge">
<title>http://purl.org/oseg/ontologies/OTRL#exitCriteria&#45;&gt;http://www.w3.org/2002/07/owl#DatatypeProperty</title>
<path fill="none" stroke="black" d="M451.82,-269.58C484.37,-263.67 526.19,-256.07 562.6,-249.45"/>
<polygon fill="black" stroke="black" points="563.51,-252.84 572.72,-247.61 562.25,-245.96 563.51,-252.84"/>
<text text-anchor="middle" x="502.71" y="-263.32" font-family="Times,serif" font-size="14.00">a</text>
</g>
<!-- http://purl.org/oseg/ontologies/OTRL#exitCriteria&#45;&gt;http://purl.org/oseg/ontologies/OTRL#OTRL -->
<g id="edge1" class="edge">
<title>http://purl.org/oseg/ontologies/OTRL#exitCriteria&#45;&gt;http://purl.org/oseg/ontologies/OTRL#OTRL</title>
<path fill="none" stroke="black" d="M394.33,-296.13C388.39,-337.97 372.73,-448.38 365.51,-499.26"/>
<polygon fill="black" stroke="black" points="362.04,-498.78 364.11,-509.17 368.98,-499.76 362.04,-498.78"/>
<text text-anchor="middle" x="353.42" y="-401.49" font-family="Times,serif" font-size="14.00">domain</text>
</g>
<!-- http://purl.org/oseg/ontologies/OTRL#exitCriteria&#45;&gt;http://schema.org/Text -->
<g id="edge29" class="edge">
<title>http://purl.org/oseg/ontologies/OTRL#exitCriteria&#45;&gt;http://schema.org/Text</title>
<path fill="none" stroke="black" d="M399.88,-263.1C408.52,-218.69 432.33,-96.35 442.86,-42.21"/>
<polygon fill="black" stroke="black" points="446.31,-42.81 444.78,-32.33 439.44,-41.48 446.31,-42.81"/>
<text text-anchor="middle" x="400.37" y="-156.45" font-family="Times,serif" font-size="14.00">range</text>
</g>
<!-- http://purl.org/oseg/ontologies/OTRL#OTRL&#45;3 -->
<g id="node13" class="node">
<title>http://purl.org/oseg/ontologies/OTRL#OTRL&#45;3</title>
<ellipse fill="none" stroke="#e377c2" cx="172.87" cy="-544.37" rx="49.49" ry="16.03"/>
<text text-anchor="middle" x="172.87" y="-540.67" font-family="Times,serif" font-size="14.00">OTRL&#45;3</text>
</g>
<!-- http://purl.org/oseg/ontologies/OTRL#OTRL&#45;3&#45;&gt;http://purl.org/oseg/ontologies/OTRL#OTRL -->
<g id="edge42" class="edge">
<title>http://purl.org/oseg/ontologies/OTRL#OTRL&#45;3&#45;&gt;http://purl.org/oseg/ontologies/OTRL#OTRL</title>
<path fill="none" stroke="black" d="M220.54,-539.64C248.77,-536.84 284.46,-533.3 312.89,-530.47"/>
<polygon fill="black" stroke="black" points="313.41,-533.94 323.02,-529.47 312.72,-526.97 313.41,-533.94"/>
</g>
<!-- http://purl.org/oseg/ontologies/OTRL#OTRL&#45;3&#45;&gt;http://www.w3.org/2002/07/owl#class -->
<g id="edge9" class="edge">
<title>http://purl.org/oseg/ontologies/OTRL#OTRL&#45;3&#45;&gt;http://www.w3.org/2002/07/owl#class</title>
<path fill="none" stroke="black" d="M179.55,-560.68C198.34,-606.52 251.74,-736.8 274.55,-792.45"/>
<polygon fill="black" stroke="black" points="271.4,-794 278.43,-801.93 277.88,-791.35 271.4,-794"/>
<text text-anchor="middle" x="222.55" y="-680.36" font-family="Times,serif" font-size="14.00">a</text>
</g>
<!-- http://purl.org/oseg/ontologies/OTRL#OTRL&#45;7 -->
<g id="node14" class="node">
<title>http://purl.org/oseg/ontologies/OTRL#OTRL&#45;7</title>
<ellipse fill="none" stroke="#e377c2" cx="276.83" cy="-691.1" rx="49.49" ry="16.03"/>
<text text-anchor="middle" x="276.83" y="-687.4" font-family="Times,serif" font-size="14.00">OTRL&#45;7</text>
</g>
<!-- http://purl.org/oseg/ontologies/OTRL#OTRL&#45;7&#45;&gt;http://purl.org/oseg/ontologies/OTRL#OTRL -->
<g id="edge43" class="edge">
<title>http://purl.org/oseg/ontologies/OTRL#OTRL&#45;7&#45;&gt;http://purl.org/oseg/ontologies/OTRL#OTRL</title>
<path fill="none" stroke="black" d="M285.13,-674.93C300.01,-645.94 331.32,-584.94 348.97,-550.56"/>
<polygon fill="black" stroke="black" points="352.11,-552.11 353.56,-541.61 345.88,-548.91 352.11,-552.11"/>
</g>
<!-- http://purl.org/oseg/ontologies/OTRL#OTRL&#45;7&#45;&gt;http://www.w3.org/2002/07/owl#class -->
<g id="edge10" class="edge">
<title>http://purl.org/oseg/ontologies/OTRL#OTRL&#45;7&#45;&gt;http://www.w3.org/2002/07/owl#class</title>
<path fill="none" stroke="black" d="M277.89,-707.45C279.28,-728.79 281.72,-766.42 283.37,-791.81"/>
<polygon fill="black" stroke="black" points="279.88,-792.11 284.02,-801.86 286.87,-791.66 279.88,-792.11"/>
<text text-anchor="middle" x="276.13" y="-753.43" font-family="Times,serif" font-size="14.00">a</text>
</g>
<!-- http://purl.org/oseg/ontologies/OTRL -->
<g id="node16" class="node">
<title>http://purl.org/oseg/ontologies/OTRL</title>
<ellipse fill="none" stroke="#e377c2" cx="728.95" cy="-520.42" rx="60.62" ry="16.03"/>
<text text-anchor="middle" x="728.95" y="-516.72" font-family="Times,serif" font-size="14.00">ns1:OTRL</text>
</g>
<!-- http://purl.org/oseg/ontologies/OTRL&#45;&gt;http://www.w3.org/2002/07/owl#Ontology -->
<g id="edge14" class="edge">
<title>http://purl.org/oseg/ontologies/OTRL&#45;&gt;http://www.w3.org/2002/07/owl#Ontology</title>
<path fill="none" stroke="black" d="M675.65,-528.38C668.94,-529.38 661.98,-530.42 655.02,-531.46"/>
<polygon fill="black" stroke="black" points="654.22,-528.04 644.85,-532.98 655.26,-534.96 654.22,-528.04"/>
<text text-anchor="middle" x="663.08" y="-518.72" font-family="Times,serif" font-size="14.00">a</text>
</g>
<!-- http://purl.org/oseg/ontologies/OTRL&#45;&gt;http://purl.org/oseg/ontologies/OTRL -->
<g id="edge32" class="edge">
<title>http://purl.org/oseg/ontologies/OTRL&#45;&gt;http://purl.org/oseg/ontologies/OTRL</title>
<path fill="none" stroke="black" d="M784.55,-527.05C797.89,-526.53 807.76,-524.32 807.76,-520.42 807.76,-517.58 802.55,-515.64 794.58,-514.59"/>
<polygon fill="black" stroke="black" points="794.8,-511.1 784.55,-513.78 794.24,-518.07 794.8,-511.1"/>
<text text-anchor="middle" x="859.26" y="-516.72" font-family="Times,serif" font-size="14.00">owl:versionIRI</text>
</g>
<!-- http://purl.org/oseg/ontologies/OTRL#OTRL&#45;8 -->
<g id="node17" class="node">
<title>http://purl.org/oseg/ontologies/OTRL#OTRL&#45;8</title>
<ellipse fill="none" stroke="#e377c2" cx="495.67" cy="-757.02" rx="49.49" ry="16.03"/>
<text text-anchor="middle" x="495.67" y="-753.32" font-family="Times,serif" font-size="14.00">OTRL&#45;8</text>
</g>
<!-- http://purl.org/oseg/ontologies/OTRL#OTRL&#45;8&#45;&gt;http://purl.org/oseg/ontologies/OTRL#OTRL -->
<g id="edge4" class="edge">
<title>http://purl.org/oseg/ontologies/OTRL#OTRL&#45;8&#45;&gt;http://purl.org/oseg/ontologies/OTRL#OTRL</title>
<path fill="none" stroke="black" d="M486.26,-740.75C463.15,-700.82 403.54,-597.81 376.05,-550.3"/>
<polygon fill="black" stroke="black" points="379.04,-548.47 371,-541.57 372.98,-551.98 379.04,-548.47"/>
</g>
<!-- http://purl.org/oseg/ontologies/OTRL#OTRL&#45;8&#45;&gt;http://www.w3.org/2002/07/owl#class -->
<g id="edge13" class="edge">
<title>http://purl.org/oseg/ontologies/OTRL#OTRL&#45;8&#45;&gt;http://www.w3.org/2002/07/owl#class</title>
<path fill="none" stroke="black" d="M458.51,-767.81C424.26,-777.75 373.15,-792.59 335.28,-803.58"/>
<polygon fill="black" stroke="black" points="334.09,-800.28 325.46,-806.43 336.04,-807 334.09,-800.28"/>
<text text-anchor="middle" x="392.39" y="-789.49" font-family="Times,serif" font-size="14.00">a</text>
</g>
<!-- http://purl.org/oseg/ontologies/OTRL#OTRL&#45;6 -->
<g id="node18" class="node">
<title>http://purl.org/oseg/ontologies/OTRL#OTRL&#45;6</title>
<ellipse fill="none" stroke="#e377c2" cx="288.89" cy="-581.52" rx="49.49" ry="16.03"/>
<text text-anchor="middle" x="288.89" y="-577.82" font-family="Times,serif" font-size="14.00">OTRL&#45;6</text>
</g>
<!-- http://purl.org/oseg/ontologies/OTRL#OTRL&#45;6&#45;&gt;http://purl.org/oseg/ontologies/OTRL#OTRL -->
<g id="edge25" class="edge">
<title>http://purl.org/oseg/ontologies/OTRL#OTRL&#45;6&#45;&gt;http://purl.org/oseg/ontologies/OTRL#OTRL</title>
<path fill="none" stroke="black" d="M308.42,-566.54C316.54,-560.32 326.09,-552.99 334.86,-546.27"/>
<polygon fill="black" stroke="black" points="337.14,-548.93 342.94,-540.07 332.88,-543.37 337.14,-548.93"/>
</g>
<!-- http://purl.org/oseg/ontologies/OTRL#OTRL&#45;6&#45;&gt;http://www.w3.org/2002/07/owl#class -->
<g id="edge33" class="edge">
<title>http://purl.org/oseg/ontologies/OTRL#OTRL&#45;6&#45;&gt;http://www.w3.org/2002/07/owl#class</title>
<path fill="none" stroke="black" d="M288.63,-597.79C287.98,-637.98 286.3,-742.27 285.51,-791.58"/>
<polygon fill="black" stroke="black" points="282.01,-791.72 285.34,-801.77 289.01,-791.83 282.01,-791.72"/>
<text text-anchor="middle" x="282.57" y="-698.48" font-family="Times,serif" font-size="14.00">a</text>
</g>
<!-- http://purl.org/oseg/ontologies/OTRL#OTRL&#45;2 -->
<g id="node19" class="node">
<title>http://purl.org/oseg/ontologies/OTRL#OTRL&#45;2</title>
<ellipse fill="none" stroke="#e377c2" cx="541.57" cy="-691" rx="49.49" ry="16.03"/>
<text text-anchor="middle" x="541.57" y="-687.3" font-family="Times,serif" font-size="14.00">OTRL&#45;2</text>
</g>
<!-- http://purl.org/oseg/ontologies/OTRL#OTRL&#45;2&#45;&gt;http://purl.org/oseg/ontologies/OTRL#OTRL -->
<g id="edge30" class="edge">
<title>http://purl.org/oseg/ontologies/OTRL#OTRL&#45;2&#45;&gt;http://purl.org/oseg/ontologies/OTRL#OTRL</title>
<path fill="none" stroke="black" d="M524.65,-675.44C492.55,-645.91 422.71,-581.67 385.78,-547.7"/>
<polygon fill="black" stroke="black" points="387.72,-544.74 377.99,-540.54 382.98,-549.89 387.72,-544.74"/>
</g>
<!-- http://purl.org/oseg/ontologies/OTRL#OTRL&#45;2&#45;&gt;http://www.w3.org/2002/07/owl#class -->
<g id="edge35" class="edge">
<title>http://purl.org/oseg/ontologies/OTRL#OTRL&#45;2&#45;&gt;http://www.w3.org/2002/07/owl#class</title>
<path fill="none" stroke="black" d="M514.12,-704.6C468.13,-727.4 375.43,-773.36 323.16,-799.27"/>
<polygon fill="black" stroke="black" points="321.3,-796.29 313.9,-803.87 324.41,-802.56 321.3,-796.29"/>
<text text-anchor="middle" x="414.14" y="-755.74" font-family="Times,serif" font-size="14.00">a</text>
</g>
<!-- http://purl.org/oseg/ontologies/OTRL#ODRL&#45;0 -->
<g id="node20" class="node">
<title>http://purl.org/oseg/ontologies/OTRL#ODRL&#45;0</title>
<ellipse fill="none" stroke="#e377c2" cx="266.39" cy="-1098.34" rx="50.82" ry="16.03"/>
<text text-anchor="middle" x="266.39" y="-1094.64" font-family="Times,serif" font-size="14.00">ODRL&#45;0</text>
</g>
<!-- http://purl.org/oseg/ontologies/OTRL#ODRL&#45;0&#45;&gt;http://purl.org/oseg/ontologies/OTRL#ODRL -->
<g id="edge2" class="edge">
<title>http://purl.org/oseg/ontologies/OTRL#ODRL&#45;0&#45;&gt;http://purl.org/oseg/ontologies/OTRL#ODRL</title>
<path fill="none" stroke="black" d="M260.85,-1081.76C256.21,-1067.91 249.53,-1047.92 244.17,-1031.9"/>
<polygon fill="black" stroke="black" points="247.36,-1030.42 240.87,-1022.04 240.72,-1032.64 247.36,-1030.42"/>
</g>
<!-- http://purl.org/oseg/ontologies/OTRL#ODRL&#45;0&#45;&gt;http://www.w3.org/2002/07/owl#class -->
<g id="edge36" class="edge">
<title>http://purl.org/oseg/ontologies/OTRL#ODRL&#45;0&#45;&gt;http://www.w3.org/2002/07/owl#class</title>
<path fill="none" stroke="black" d="M267.48,-1082.06C270.58,-1035.54 279.51,-901.67 283.32,-844.52"/>
<polygon fill="black" stroke="black" points="286.82,-844.68 283.99,-834.47 279.83,-844.22 286.82,-844.68"/>
<text text-anchor="middle" x="270.9" y="-967.09" font-family="Times,serif" font-size="14.00">a</text>
</g>
<!-- http://purl.org/oseg/ontologies/OTRL#OTRL&#45;9 -->
<g id="node21" class="node">
<title>http://purl.org/oseg/ontologies/OTRL#OTRL&#45;9</title>
<ellipse fill="none" stroke="#e377c2" cx="494.57" cy="-621.83" rx="49.49" ry="16.03"/>
<text text-anchor="middle" x="494.57" y="-618.13" font-family="Times,serif" font-size="14.00">OTRL&#45;9</text>
</g>
<!-- http://purl.org/oseg/ontologies/OTRL#OTRL&#45;9&#45;&gt;http://purl.org/oseg/ontologies/OTRL#OTRL -->
<g id="edge11" class="edge">
<title>http://purl.org/oseg/ontologies/OTRL#OTRL&#45;9&#45;&gt;http://purl.org/oseg/ontologies/OTRL#OTRL</title>
<path fill="none" stroke="black" d="M474.11,-607C451.59,-590.69 415.25,-564.36 390.02,-546.09"/>
<polygon fill="black" stroke="black" points="391.75,-543.02 381.6,-539.99 387.65,-548.69 391.75,-543.02"/>
</g>
<!-- http://purl.org/oseg/ontologies/OTRL#OTRL&#45;9&#45;&gt;http://www.w3.org/2002/07/owl#class -->
<g id="edge18" class="edge">
<title>http://purl.org/oseg/ontologies/OTRL#OTRL&#45;9&#45;&gt;http://www.w3.org/2002/07/owl#class</title>
<path fill="none" stroke="black" d="M478.13,-637.23C441.35,-671.7 352.3,-755.16 309.22,-795.53"/>
<polygon fill="black" stroke="black" points="306.64,-793.15 301.73,-802.54 311.42,-798.26 306.64,-793.15"/>
<text text-anchor="middle" x="389.17" y="-720.18" font-family="Times,serif" font-size="14.00">a</text>
</g>
<!-- http://purl.org/oseg/ontologies/OTRL#ODRL&#45;4 -->
<g id="node22" class="node">
<title>http://purl.org/oseg/ontologies/OTRL#ODRL&#45;4</title>
<ellipse fill="none" stroke="#e377c2" cx="67.08" cy="-991.32" rx="50.82" ry="16.03"/>
<text text-anchor="middle" x="67.08" y="-987.62" font-family="Times,serif" font-size="14.00">ODRL&#45;4</text>
</g>
<!-- http://purl.org/oseg/ontologies/OTRL#ODRL&#45;4&#45;&gt;http://purl.org/oseg/ontologies/OTRL#ODRL -->
<g id="edge12" class="edge">
<title>http://purl.org/oseg/ontologies/OTRL#ODRL&#45;4&#45;&gt;http://purl.org/oseg/ontologies/OTRL#ODRL</title>
<path fill="none" stroke="black" d="M116.66,-995.53C137.91,-997.33 162.71,-999.44 184.14,-1001.26"/>
<polygon fill="black" stroke="black" points="184.1,-1004.77 194.36,-1002.13 184.69,-997.79 184.1,-1004.77"/>
</g>
<!-- http://purl.org/oseg/ontologies/OTRL#ODRL&#45;4&#45;&gt;http://www.w3.org/2002/07/owl#class -->
<g id="edge20" class="edge">
<title>http://purl.org/oseg/ontologies/OTRL#ODRL&#45;4&#45;&gt;http://www.w3.org/2002/07/owl#class</title>
<path fill="none" stroke="black" d="M86.42,-975.95C125.29,-945.08 212.95,-875.45 257.69,-839.91"/>
<polygon fill="black" stroke="black" points="260.12,-842.44 265.78,-833.48 255.77,-836.96 260.12,-842.44"/>
<text text-anchor="middle" x="167.56" y="-911.73" font-family="Times,serif" font-size="14.00">a</text>
</g>
<!-- http://purl.org/oseg/ontologies/OTRL#OTRL&#45;1 -->
<g id="node23" class="node">
<title>http://purl.org/oseg/ontologies/OTRL#OTRL&#45;1</title>
<ellipse fill="none" stroke="#e377c2" cx="432.08" cy="-708.06" rx="49.49" ry="16.03"/>
<text text-anchor="middle" x="432.08" y="-704.36" font-family="Times,serif" font-size="14.00">OTRL&#45;1</text>
</g>
<!-- http://purl.org/oseg/ontologies/OTRL#OTRL&#45;1&#45;&gt;http://purl.org/oseg/ontologies/OTRL#OTRL -->
<g id="edge31" class="edge">
<title>http://purl.org/oseg/ontologies/OTRL#OTRL&#45;1&#45;&gt;http://purl.org/oseg/ontologies/OTRL#OTRL</title>
<path fill="none" stroke="black" d="M425.84,-691.87C413.6,-660.09 386.32,-589.32 371.62,-551.17"/>
<polygon fill="black" stroke="black" points="374.86,-549.85 368,-541.78 368.33,-552.37 374.86,-549.85"/>
</g>
<!-- http://purl.org/oseg/ontologies/OTRL#OTRL&#45;1&#45;&gt;http://www.w3.org/2002/07/owl#class -->
<g id="edge38" class="edge">
<title>http://purl.org/oseg/ontologies/OTRL#OTRL&#45;1&#45;&gt;http://www.w3.org/2002/07/owl#class</title>
<path fill="none" stroke="black" d="M411.95,-723.13C386.47,-742.21 342.43,-775.2 313.53,-796.85"/>
<polygon fill="black" stroke="black" points="311.35,-794.11 305.44,-802.9 315.54,-799.71 311.35,-794.11"/>
<text text-anchor="middle" x="358.24" y="-763.79" font-family="Times,serif" font-size="14.00">a</text>
</g>
<!-- http://purl.org/oseg/ontologies/OTRL#ODRL&#45;5 -->
<g id="node24" class="node">
<title>http://purl.org/oseg/ontologies/OTRL#ODRL&#45;5</title>
<ellipse fill="none" stroke="#e377c2" cx="137.83" cy="-1061.66" rx="50.82" ry="16.03"/>
<text text-anchor="middle" x="137.83" y="-1057.96" font-family="Times,serif" font-size="14.00">ODRL&#45;5</text>
</g>
<!-- http://purl.org/oseg/ontologies/OTRL#ODRL&#45;5&#45;&gt;http://purl.org/oseg/ontologies/OTRL#ODRL -->
<g id="edge34" class="edge">
<title>http://purl.org/oseg/ontologies/OTRL#ODRL&#45;5&#45;&gt;http://purl.org/oseg/ontologies/OTRL#ODRL</title>
<path fill="none" stroke="black" d="M162.69,-1047.37C174.98,-1040.31 189.97,-1031.7 203.13,-1024.14"/>
<polygon fill="black" stroke="black" points="204.96,-1027.12 211.89,-1019.1 201.48,-1021.05 204.96,-1027.12"/>
</g>
<!-- http://purl.org/oseg/ontologies/OTRL#ODRL&#45;5&#45;&gt;http://www.w3.org/2002/07/owl#class -->
<g id="edge41" class="edge">
<title>http://purl.org/oseg/ontologies/OTRL#ODRL&#45;5&#45;&gt;http://www.w3.org/2002/07/owl#class</title>
<path fill="none" stroke="black" d="M147.49,-1045.68C172.55,-1004.23 239.81,-893.01 270.02,-843.05"/>
<polygon fill="black" stroke="black" points="273.2,-844.55 275.38,-834.19 267.21,-840.93 273.2,-844.55"/>
<text text-anchor="middle" x="204.26" y="-948.16" font-family="Times,serif" font-size="14.00">a</text>
</g>
<!-- http://purl.org/oseg/ontologies/OTRL#softwareDescription -->
<g id="node25" class="node">
<title>http://purl.org/oseg/ontologies/OTRL#softwareDescription</title>
<ellipse fill="none" stroke="#e377c2" cx="599.92" cy="-292.04" rx="113.69" ry="16.03"/>
<text text-anchor="middle" x="599.92" y="-288.34" font-family="Times,serif" font-size="14.00">softwareDescription</text>
</g>
<!-- http://purl.org/oseg/ontologies/OTRL#softwareDescription&#45;&gt;http://www.w3.org/2002/07/owl#DatatypeProperty -->
<g id="edge45" class="edge">
<title>http://purl.org/oseg/ontologies/OTRL#softwareDescription&#45;&gt;http://www.w3.org/2002/07/owl#DatatypeProperty</title>
<path fill="none" stroke="black" d="M612.77,-275.69C616.91,-270.42 621.6,-264.46 626.09,-258.74"/>
<polygon fill="black" stroke="black" points="629.03,-260.67 632.45,-250.64 623.52,-256.34 629.03,-260.67"/>
<text text-anchor="middle" x="614.93" y="-256.02" font-family="Times,serif" font-size="14.00">a</text>
</g>
<!-- http://purl.org/oseg/ontologies/OTRL#softwareDescription&#45;&gt;http://purl.org/oseg/ontologies/OTRL#OTRL -->
<g id="edge37" class="edge">
<title>http://purl.org/oseg/ontologies/OTRL#softwareDescription&#45;&gt;http://purl.org/oseg/ontologies/OTRL#OTRL</title>
<path fill="none" stroke="black" d="M583.18,-308.47C541.35,-349.49 432.28,-456.47 384.62,-503.22"/>
<polygon fill="black" stroke="black" points="381.94,-500.94 377.25,-510.44 386.84,-505.94 381.94,-500.94"/>
<text text-anchor="middle" x="457.4" y="-409.64" font-family="Times,serif" font-size="14.00">domain</text>
</g>
<!-- http://purl.org/oseg/ontologies/OTRL#softwareDescription&#45;&gt;http://schema.org/Text -->
<g id="edge15" class="edge">
<title>http://purl.org/oseg/ontologies/OTRL#softwareDescription&#45;&gt;http://schema.org/Text</title>
<path fill="none" stroke="black" d="M590.87,-275.59C565.33,-229.15 492.54,-96.81 461.88,-41.07"/>
<polygon fill="black" stroke="black" points="464.88,-39.28 457,-32.2 458.75,-42.65 464.88,-39.28"/>
<text text-anchor="middle" x="505.37" y="-147.13" font-family="Times,serif" font-size="14.00">range</text>
</g>
<!-- http://purl.org/oseg/ontologies/OTRL#OTRL&#45;5 -->
<g id="node26" class="node">
<title>http://purl.org/oseg/ontologies/OTRL#OTRL&#45;5</title>
<ellipse fill="none" stroke="#e377c2" cx="152.84" cy="-669.74" rx="49.49" ry="16.03"/>
<text text-anchor="middle" x="152.84" y="-666.04" font-family="Times,serif" font-size="14.00">OTRL&#45;5</text>
</g>
<!-- http://purl.org/oseg/ontologies/OTRL#OTRL&#45;5&#45;&gt;http://purl.org/oseg/ontologies/OTRL#OTRL -->
<g id="edge6" class="edge">
<title>http://purl.org/oseg/ontologies/OTRL#OTRL&#45;5&#45;&gt;http://purl.org/oseg/ontologies/OTRL#OTRL</title>
<path fill="none" stroke="black" d="M174.41,-654.86C212.18,-628.81 290.29,-574.93 332.75,-545.64"/>
<polygon fill="black" stroke="black" points="335,-548.34 341.24,-539.78 331.02,-542.58 335,-548.34"/>
</g>
<!-- http://purl.org/oseg/ontologies/OTRL#OTRL&#45;5&#45;&gt;http://www.w3.org/2002/07/owl#class -->
<g id="edge46" class="edge">
<title>http://purl.org/oseg/ontologies/OTRL#OTRL&#45;5&#45;&gt;http://www.w3.org/2002/07/owl#class</title>
<path fill="none" stroke="black" d="M166.99,-685.62C190.35,-711.84 237.11,-764.31 264.25,-794.78"/>
<polygon fill="black" stroke="black" points="261.76,-797.24 271.03,-802.38 266.99,-792.59 261.76,-797.24"/>
<text text-anchor="middle" x="211.12" y="-744" font-family="Times,serif" font-size="14.00">a</text>
</g>
</g>
</svg>
