<?xml version="1.0" encoding="UTF-8" standalone="no"?>
<!DOCTYPE svg PUBLIC "-//W3C//DTD SVG 1.1//EN"
 "http://www.w3.org/Graphics/SVG/1.1/DTD/svg11.dtd">
<!-- Generated by graphviz version 2.43.0 (0)
 -->
<!-- Title: G Pages: 1 -->
<svg width="824pt" height="562pt"
 viewBox="0.00 0.00 824.00 562.00" xmlns="http://www.w3.org/2000/svg" xmlns:xlink="http://www.w3.org/1999/xlink">
<g id="graph0" class="graph" transform="scale(1 1) rotate(0) translate(4 558)">
<title>G</title>
<polygon fill="white" stroke="transparent" points="-4,4 -4,-558 820,-558 820,4 -4,4"/>
<!-- http://www.w3.org/2002/07/owl#class -->
<g id="node1" class="node">
<title>http://www.w3.org/2002/07/owl#class</title>
<ellipse fill="none" stroke="#1f77b4" cx="271.84" cy="-199.04" rx="57.05" ry="16.03"/>
<text text-anchor="middle" x="271.84" y="-195.34" font-family="Times,serif" font-size="14.00">owl:class</text>
</g>
<!-- http://www.w3.org/2002/07/owl#Ontology -->
<g id="node2" class="node">
<title>http://www.w3.org/2002/07/owl#Ontology</title>
<ellipse fill="none" stroke="#1f77b4" cx="482.32" cy="-38.47" rx="77.56" ry="16.03"/>
<text text-anchor="middle" x="482.32" y="-34.77" font-family="Times,serif" font-size="14.00">owl:Ontology</text>
</g>
<!-- http://www.w3.org/2002/07/owl#DatatypeProperty -->
<g id="node3" class="node">
<title>http://www.w3.org/2002/07/owl#DatatypeProperty</title>
<ellipse fill="none" stroke="#1f77b4" cx="527.93" cy="-358.71" rx="123.07" ry="16.03"/>
<text text-anchor="middle" x="527.93" y="-355.01" font-family="Times,serif" font-size="14.00">owl:DatatypeProperty</text>
</g>
<!-- http://purl.org/oseg/ontologies/OTRL#OTRL -->
<g id="node4" class="node">
<title>http://purl.org/oseg/ontologies/OTRL#OTRL</title>
<ellipse fill="none" stroke="#e377c2" cx="287.33" cy="-253.19" rx="39.7" ry="16.03"/>
<text text-anchor="middle" x="287.33" y="-249.49" font-family="Times,serif" font-size="14.00">OTRL</text>
</g>
<!-- http://purl.org/oseg/ontologies/OTRL#OTRL&#45;&gt;http://www.w3.org/2002/07/owl#class -->
<g id="edge7" class="edge">
<title>http://purl.org/oseg/ontologies/OTRL#OTRL&#45;&gt;http://www.w3.org/2002/07/owl#class</title>
<path fill="none" stroke="black" d="M282.68,-236.94C281.61,-233.19 280.44,-229.12 279.29,-225.07"/>
<polygon fill="black" stroke="black" points="282.6,-223.93 276.48,-215.28 275.87,-225.85 282.6,-223.93"/>
<text text-anchor="middle" x="276.49" y="-219.81" font-family="Times,serif" font-size="14.00">a</text>
</g>
<!-- http://purl.org/oseg/ontologies/OTRL#ODRL -->
<g id="node5" class="node">
<title>http://purl.org/oseg/ontologies/OTRL#ODRL</title>
<ellipse fill="none" stroke="#e377c2" cx="169.13" cy="-69.26" rx="41.94" ry="16.03"/>
<text text-anchor="middle" x="169.13" y="-65.56" font-family="Times,serif" font-size="14.00">ODRL</text>
</g>
<!-- http://purl.org/oseg/ontologies/OTRL#Otrl1 -->
<g id="node6" class="node">
<title>http://purl.org/oseg/ontologies/OTRL#Otrl1</title>
<ellipse fill="none" stroke="#e377c2" cx="333.2" cy="-356.38" rx="38.37" ry="16.03"/>
<text text-anchor="middle" x="333.2" y="-352.68" font-family="Times,serif" font-size="14.00">Otrl1</text>
</g>
<!-- http://purl.org/oseg/ontologies/OTRL#Otrl1&#45;&gt;http://www.w3.org/2002/07/owl#class -->
<g id="edge11" class="edge">
<title>http://purl.org/oseg/ontologies/OTRL#Otrl1&#45;&gt;http://www.w3.org/2002/07/owl#class</title>
<path fill="none" stroke="black" d="M326.86,-340.14C316.21,-312.81 294.62,-257.45 281.88,-224.79"/>
<polygon fill="black" stroke="black" points="285.13,-223.48 278.23,-215.43 278.6,-226.02 285.13,-223.48"/>
<text text-anchor="middle" x="299.87" y="-286.26" font-family="Times,serif" font-size="14.00">a</text>
</g>
<!-- http://purl.org/oseg/ontologies/OTRL#Otrl1&#45;&gt;http://purl.org/oseg/ontologies/OTRL#OTRL -->
<g id="edge23" class="edge">
<title>http://purl.org/oseg/ontologies/OTRL#Otrl1&#45;&gt;http://purl.org/oseg/ontologies/OTRL#OTRL</title>
<path fill="none" stroke="black" d="M326.03,-340.26C318.69,-323.75 307.18,-297.85 298.62,-278.59"/>
<polygon fill="black" stroke="black" points="301.71,-276.92 294.45,-269.2 295.31,-279.76 301.71,-276.92"/>
</g>
<!-- http://purl.org/oseg/ontologies/OTRL#Otrl4 -->
<g id="node7" class="node">
<title>http://purl.org/oseg/ontologies/OTRL#Otrl4</title>
<ellipse fill="none" stroke="#e377c2" cx="399.13" cy="-299.9" rx="38.37" ry="16.03"/>
<text text-anchor="middle" x="399.13" y="-296.2" font-family="Times,serif" font-size="14.00">Otrl4</text>
</g>
<!-- http://purl.org/oseg/ontologies/OTRL#Otrl4&#45;&gt;http://www.w3.org/2002/07/owl#class -->
<g id="edge13" class="edge">
<title>http://purl.org/oseg/ontologies/OTRL#Otrl4&#45;&gt;http://www.w3.org/2002/07/owl#class</title>
<path fill="none" stroke="black" d="M380.89,-285.45C359.52,-268.52 323.9,-240.29 299.21,-220.73"/>
<polygon fill="black" stroke="black" points="301.31,-217.92 291.29,-214.46 296.96,-223.41 301.31,-217.92"/>
<text text-anchor="middle" x="335.55" y="-256.89" font-family="Times,serif" font-size="14.00">a</text>
</g>
<!-- http://purl.org/oseg/ontologies/OTRL#Otrl4&#45;&gt;http://purl.org/oseg/ontologies/OTRL#OTRL -->
<g id="edge12" class="edge">
<title>http://purl.org/oseg/ontologies/OTRL#Otrl4&#45;&gt;http://purl.org/oseg/ontologies/OTRL#OTRL</title>
<path fill="none" stroke="black" d="M371.78,-288.47C357.54,-282.52 339.92,-275.16 324.47,-268.71"/>
<polygon fill="black" stroke="black" points="325.75,-265.45 315.18,-264.82 323.05,-271.91 325.75,-265.45"/>
</g>
<!-- http://purl.org/oseg/ontologies/OTRL#Otrl -->
<g id="node8" class="node">
<title>http://purl.org/oseg/ontologies/OTRL#Otrl</title>
<ellipse fill="none" stroke="#e377c2" cx="59.24" cy="-313.64" rx="31.64" ry="16.03"/>
<text text-anchor="middle" x="59.24" y="-309.94" font-family="Times,serif" font-size="14.00">Otrl</text>
</g>
<!-- http://purl.org/oseg/ontologies/OTRL#Otrl6 -->
<g id="node9" class="node">
<title>http://purl.org/oseg/ontologies/OTRL#Otrl6</title>
<ellipse fill="none" stroke="#e377c2" cx="239.7" cy="-367.75" rx="38.37" ry="16.03"/>
<text text-anchor="middle" x="239.7" y="-364.05" font-family="Times,serif" font-size="14.00">Otrl6</text>
</g>
<!-- http://purl.org/oseg/ontologies/OTRL#Otrl6&#45;&gt;http://www.w3.org/2002/07/owl#class -->
<g id="edge14" class="edge">
<title>http://purl.org/oseg/ontologies/OTRL#Otrl6&#45;&gt;http://www.w3.org/2002/07/owl#class</title>
<path fill="none" stroke="black" d="M242.84,-351.27C248.42,-321.96 260.12,-260.58 266.82,-225.37"/>
<polygon fill="black" stroke="black" points="270.3,-225.82 268.73,-215.34 263.42,-224.51 270.3,-225.82"/>
<text text-anchor="middle" x="250.33" y="-292.12" font-family="Times,serif" font-size="14.00">a</text>
</g>
<!-- http://purl.org/oseg/ontologies/OTRL#Otrl6&#45;&gt;http://purl.org/oseg/ontologies/OTRL#OTRL -->
<g id="edge24" class="edge">
<title>http://purl.org/oseg/ontologies/OTRL#Otrl6&#45;&gt;http://purl.org/oseg/ontologies/OTRL#OTRL</title>
<path fill="none" stroke="black" d="M246.53,-351.34C254.38,-332.45 267.37,-301.2 276.59,-279.04"/>
<polygon fill="black" stroke="black" points="279.91,-280.15 280.52,-269.57 273.45,-277.46 279.91,-280.15"/>
</g>
<!-- http://purl.org/oseg/ontologies/OTRL#Otrl5 -->
<g id="node10" class="node">
<title>http://purl.org/oseg/ontologies/OTRL#Otrl5</title>
<ellipse fill="none" stroke="#e377c2" cx="174.34" cy="-154.78" rx="38.37" ry="16.03"/>
<text text-anchor="middle" x="174.34" y="-151.08" font-family="Times,serif" font-size="14.00">Otrl5</text>
</g>
<!-- http://purl.org/oseg/ontologies/OTRL#Otrl5&#45;&gt;http://www.w3.org/2002/07/owl#class -->
<g id="edge15" class="edge">
<title>http://purl.org/oseg/ontologies/OTRL#Otrl5&#45;&gt;http://www.w3.org/2002/07/owl#class</title>
<path fill="none" stroke="black" d="M200.47,-166.64C210.15,-171.04 221.37,-176.13 232,-180.96"/>
<polygon fill="black" stroke="black" points="230.58,-184.16 241.14,-185.1 233.48,-177.78 230.58,-184.16"/>
<text text-anchor="middle" x="220.73" y="-162.6" font-family="Times,serif" font-size="14.00">a</text>
</g>
<!-- http://purl.org/oseg/ontologies/OTRL#Otrl5&#45;&gt;http://purl.org/oseg/ontologies/OTRL#OTRL -->
<g id="edge2" class="edge">
<title>http://purl.org/oseg/ontologies/OTRL#Otrl5&#45;&gt;http://purl.org/oseg/ontologies/OTRL#OTRL</title>
<path fill="none" stroke="black" d="M191.5,-169.73C210.44,-186.23 241.09,-212.92 262.62,-231.67"/>
<polygon fill="black" stroke="black" points="260.54,-234.5 270.38,-238.43 265.14,-229.22 260.54,-234.5"/>
</g>
<!-- http://purl.org/oseg/ontologies/OTRL#goal -->
<g id="node11" class="node">
<title>http://purl.org/oseg/ontologies/OTRL#goal</title>
<ellipse fill="none" stroke="#e377c2" cx="667.71" cy="-537.29" rx="33.47" ry="16.03"/>
<text text-anchor="middle" x="667.71" y="-533.59" font-family="Times,serif" font-size="14.00">goal</text>
</g>
<!-- http://purl.org/oseg/ontologies/OTRL#goal&#45;&gt;http://www.w3.org/2002/07/owl#DatatypeProperty -->
<g id="edge1" class="edge">
<title>http://purl.org/oseg/ontologies/OTRL#goal&#45;&gt;http://www.w3.org/2002/07/owl#DatatypeProperty</title>
<path fill="none" stroke="black" d="M655.79,-522.06C631.59,-491.14 576.49,-420.75 547.15,-383.27"/>
<polygon fill="black" stroke="black" points="549.54,-380.64 540.62,-374.93 544.03,-384.96 549.54,-380.64"/>
<text text-anchor="middle" x="596.97" y="-456.47" font-family="Times,serif" font-size="14.00">a</text>
</g>
<!-- http://schema.org/Text -->
<g id="node19" class="node">
<title>http://schema.org/Text</title>
<ellipse fill="none" stroke="#e377c2" cx="741.2" cy="-383.11" rx="74.91" ry="16.03"/>
<text text-anchor="middle" x="741.2" y="-379.41" font-family="Times,serif" font-size="14.00">schema:Text</text>
</g>
<!-- http://purl.org/oseg/ontologies/OTRL#goal&#45;&gt;http://schema.org/Text -->
<g id="edge26" class="edge">
<title>http://purl.org/oseg/ontologies/OTRL#goal&#45;&gt;http://schema.org/Text</title>
<path fill="none" stroke="black" d="M675.29,-521.37C687.99,-494.73 713.65,-440.91 728.94,-408.84"/>
<polygon fill="black" stroke="black" points="732.18,-410.17 733.32,-399.64 725.86,-407.16 732.18,-410.17"/>
<text text-anchor="middle" x="681.12" y="-468.9" font-family="Times,serif" font-size="14.00">range</text>
</g>
<!-- http://purl.org/oseg/ontologies/OTRL#Odrl -->
<g id="node12" class="node">
<title>http://purl.org/oseg/ontologies/OTRL#Odrl</title>
<ellipse fill="none" stroke="#e377c2" cx="418.88" cy="-105.72" rx="33.88" ry="16.03"/>
<text text-anchor="middle" x="418.88" y="-102.02" font-family="Times,serif" font-size="14.00">Odrl</text>
</g>
<!-- http://purl.org/oseg/ontologies/OTRL#Odrl&#45;&gt;http://www.w3.org/2002/07/owl#class -->
<g id="edge19" class="edge">
<title>http://purl.org/oseg/ontologies/OTRL#Odrl&#45;&gt;http://www.w3.org/2002/07/owl#class</title>
<path fill="none" stroke="black" d="M398.13,-118.89C373.59,-134.46 332.48,-160.55 303.86,-178.72"/>
<polygon fill="black" stroke="black" points="301.97,-175.77 295.41,-184.08 305.72,-181.68 301.97,-175.77"/>
<text text-anchor="middle" x="346.49" y="-152.6" font-family="Times,serif" font-size="14.00">a</text>
</g>
<!-- http://purl.org/oseg/ontologies/OTRL#Odrl3Star -->
<g id="node13" class="node">
<title>http://purl.org/oseg/ontologies/OTRL#Odrl3Star</title>
<ellipse fill="none" stroke="#e377c2" cx="62.29" cy="-127.56" rx="62.45" ry="16.03"/>
<text text-anchor="middle" x="62.29" y="-123.86" font-family="Times,serif" font-size="14.00">Odrl3Star</text>
</g>
<!-- http://purl.org/oseg/ontologies/OTRL#Odrl3Star&#45;&gt;http://www.w3.org/2002/07/owl#class -->
<g id="edge3" class="edge">
<title>http://purl.org/oseg/ontologies/OTRL#Odrl3Star&#45;&gt;http://www.w3.org/2002/07/owl#class</title>
<path fill="none" stroke="black" d="M100.24,-140.51C135.32,-152.47 187.55,-170.29 225.16,-183.12"/>
<polygon fill="black" stroke="black" points="224.28,-186.52 234.88,-186.43 226.54,-179.89 224.28,-186.52"/>
<text text-anchor="middle" x="158.2" y="-165.61" font-family="Times,serif" font-size="14.00">a</text>
</g>
<!-- http://purl.org/oseg/ontologies/OTRL#Odrl3Star&#45;&gt;http://purl.org/oseg/ontologies/OTRL#ODRL -->
<g id="edge5" class="edge">
<title>http://purl.org/oseg/ontologies/OTRL#Odrl3Star&#45;&gt;http://purl.org/oseg/ontologies/OTRL#ODRL</title>
<path fill="none" stroke="black" d="M89.25,-112.85C103.38,-105.14 120.81,-95.63 135.78,-87.46"/>
<polygon fill="black" stroke="black" points="137.63,-90.43 144.74,-82.57 134.28,-84.29 137.63,-90.43"/>
</g>
<!-- http://purl.org/oseg/ontologies/OTRL#Odrl3 -->
<g id="node14" class="node">
<title>http://purl.org/oseg/ontologies/OTRL#Odrl3</title>
<ellipse fill="none" stroke="#e377c2" cx="194.52" cy="-26.62" rx="40.11" ry="16.03"/>
<text text-anchor="middle" x="194.52" y="-22.92" font-family="Times,serif" font-size="14.00">Odrl3</text>
</g>
<!-- http://purl.org/oseg/ontologies/OTRL#Odrl3&#45;&gt;http://www.w3.org/2002/07/owl#class -->
<g id="edge21" class="edge">
<title>http://purl.org/oseg/ontologies/OTRL#Odrl3&#45;&gt;http://www.w3.org/2002/07/owl#class</title>
<path fill="none" stroke="black" d="M201.79,-42.84C215.26,-72.88 244.19,-137.38 260.33,-173.39"/>
<polygon fill="black" stroke="black" points="257.24,-175.05 264.53,-182.74 263.63,-172.18 257.24,-175.05"/>
<text text-anchor="middle" x="226.56" y="-111.92" font-family="Times,serif" font-size="14.00">a</text>
</g>
<!-- http://purl.org/oseg/ontologies/OTRL#Odrl3&#45;&gt;http://purl.org/oseg/ontologies/OTRL#ODRL -->
<g id="edge18" class="edge">
<title>http://purl.org/oseg/ontologies/OTRL#Odrl3&#45;&gt;http://purl.org/oseg/ontologies/OTRL#ODRL</title>
<path fill="none" stroke="black" d="M185.07,-42.5C184.67,-43.16 184.28,-43.82 183.88,-44.49"/>
<polygon fill="black" stroke="black" points="180.79,-42.85 178.68,-53.23 186.8,-46.43 180.79,-42.85"/>
</g>
<!-- http://purl.org/oseg/ontologies/OTRL#exitCriteria -->
<g id="node15" class="node">
<title>http://purl.org/oseg/ontologies/OTRL#exitCriteria</title>
<ellipse fill="none" stroke="#e377c2" cx="572.39" cy="-313.71" rx="70.01" ry="16.03"/>
<text text-anchor="middle" x="572.39" y="-310.01" font-family="Times,serif" font-size="14.00">exitCriteria</text>
</g>
<!-- http://purl.org/oseg/ontologies/OTRL#exitCriteria&#45;&gt;http://www.w3.org/2002/07/owl#DatatypeProperty -->
<g id="edge22" class="edge">
<title>http://purl.org/oseg/ontologies/OTRL#exitCriteria&#45;&gt;http://www.w3.org/2002/07/owl#DatatypeProperty</title>
<path fill="none" stroke="black" d="M556.59,-329.7C554.8,-331.51 552.95,-333.39 551.09,-335.27"/>
<polygon fill="black" stroke="black" points="548.52,-332.89 543.98,-342.47 553.5,-337.81 548.52,-332.89"/>
<text text-anchor="middle" x="549.34" y="-336.29" font-family="Times,serif" font-size="14.00">a</text>
</g>
<!-- http://purl.org/oseg/ontologies/OTRL#exitCriteria&#45;&gt;http://schema.org/Text -->
<g id="edge25" class="edge">
<title>http://purl.org/oseg/ontologies/OTRL#exitCriteria&#45;&gt;http://schema.org/Text</title>
<path fill="none" stroke="black" d="M606.96,-327.92C632.85,-338.56 668.48,-353.21 696.52,-364.74"/>
<polygon fill="black" stroke="black" points="695.52,-368.11 706.1,-368.68 698.18,-361.64 695.52,-368.11"/>
<text text-anchor="middle" x="672.74" y="-350.13" font-family="Times,serif" font-size="14.00">range</text>
</g>
<!-- http://purl.org/oseg/ontologies/OTRL#Odrl4 -->
<g id="node16" class="node">
<title>http://purl.org/oseg/ontologies/OTRL#Odrl4</title>
<ellipse fill="none" stroke="#e377c2" cx="290.43" cy="-16.54" rx="40.11" ry="16.03"/>
<text text-anchor="middle" x="290.43" y="-12.84" font-family="Times,serif" font-size="14.00">Odrl4</text>
</g>
<!-- http://purl.org/oseg/ontologies/OTRL#Odrl4&#45;&gt;http://www.w3.org/2002/07/owl#class -->
<g id="edge4" class="edge">
<title>http://purl.org/oseg/ontologies/OTRL#Odrl4&#45;&gt;http://www.w3.org/2002/07/owl#class</title>
<path fill="none" stroke="black" d="M288.75,-33.05C285.53,-64.68 278.46,-134.03 274.56,-172.33"/>
<polygon fill="black" stroke="black" points="271.04,-172.39 273.5,-182.69 278,-173.1 271.04,-172.39"/>
<text text-anchor="middle" x="277.15" y="-106.49" font-family="Times,serif" font-size="14.00">a</text>
</g>
<!-- http://purl.org/oseg/ontologies/OTRL#Odrl4&#45;&gt;http://purl.org/oseg/ontologies/OTRL#ODRL -->
<g id="edge28" class="edge">
<title>http://purl.org/oseg/ontologies/OTRL#Odrl4&#45;&gt;http://purl.org/oseg/ontologies/OTRL#ODRL</title>
<path fill="none" stroke="black" d="M262.91,-28.5C246.24,-35.74 224.76,-45.08 206.56,-52.99"/>
<polygon fill="black" stroke="black" points="205.16,-49.78 197.39,-56.98 207.95,-56.2 205.16,-49.78"/>
</g>
<!-- http://purl.org/oseg/ontologies/OTRL#Otrl2 -->
<g id="node17" class="node">
<title>http://purl.org/oseg/ontologies/OTRL#Otrl2</title>
<ellipse fill="none" stroke="#e377c2" cx="163.69" cy="-324.84" rx="38.37" ry="16.03"/>
<text text-anchor="middle" x="163.69" y="-321.14" font-family="Times,serif" font-size="14.00">Otrl2</text>
</g>
<!-- http://purl.org/oseg/ontologies/OTRL#Otrl2&#45;&gt;http://www.w3.org/2002/07/owl#class -->
<g id="edge8" class="edge">
<title>http://purl.org/oseg/ontologies/OTRL#Otrl2&#45;&gt;http://www.w3.org/2002/07/owl#class</title>
<path fill="none" stroke="black" d="M176.95,-309.42C195.58,-287.75 229.65,-248.11 251.5,-222.7"/>
<polygon fill="black" stroke="black" points="254.26,-224.85 258.13,-214.99 248.95,-220.29 254.26,-224.85"/>
<text text-anchor="middle" x="209.72" y="-269.86" font-family="Times,serif" font-size="14.00">a</text>
</g>
<!-- http://purl.org/oseg/ontologies/OTRL#Otrl2&#45;&gt;http://purl.org/oseg/ontologies/OTRL#OTRL -->
<g id="edge6" class="edge">
<title>http://purl.org/oseg/ontologies/OTRL#Otrl2&#45;&gt;http://purl.org/oseg/ontologies/OTRL#OTRL</title>
<path fill="none" stroke="black" d="M186.37,-311.7C205.76,-300.46 233.9,-284.16 255.54,-271.61"/>
<polygon fill="black" stroke="black" points="257.48,-274.53 264.38,-266.49 253.97,-268.48 257.48,-274.53"/>
</g>
<!-- http://purl.org/oseg/ontologies/OTRL -->
<g id="node18" class="node">
<title>http://purl.org/oseg/ontologies/OTRL</title>
<ellipse fill="none" stroke="#e377c2" cx="629.95" cy="-16.42" rx="60.62" ry="16.03"/>
<text text-anchor="middle" x="629.95" y="-12.72" font-family="Times,serif" font-size="14.00">ns1:OTRL</text>
</g>
<!-- http://purl.org/oseg/ontologies/OTRL&#45;&gt;http://www.w3.org/2002/07/owl#Ontology -->
<g id="edge9" class="edge">
<title>http://purl.org/oseg/ontologies/OTRL&#45;&gt;http://www.w3.org/2002/07/owl#Ontology</title>
<path fill="none" stroke="black" d="M576.65,-24.38C569.94,-25.38 562.98,-26.42 556.02,-27.46"/>
<polygon fill="black" stroke="black" points="555.22,-24.04 545.85,-28.98 556.26,-30.96 555.22,-24.04"/>
<text text-anchor="middle" x="564.08" y="-14.72" font-family="Times,serif" font-size="14.00">a</text>
</g>
<!-- http://purl.org/oseg/ontologies/OTRL&#45;&gt;http://purl.org/oseg/ontologies/OTRL -->
<g id="edge27" class="edge">
<title>http://purl.org/oseg/ontologies/OTRL&#45;&gt;http://purl.org/oseg/ontologies/OTRL</title>
<path fill="none" stroke="black" d="M685.55,-23.05C698.89,-22.53 708.76,-20.32 708.76,-16.42 708.76,-13.58 703.55,-11.64 695.58,-10.59"/>
<polygon fill="black" stroke="black" points="695.8,-7.1 685.55,-9.78 695.24,-14.07 695.8,-7.1"/>
<text text-anchor="middle" x="760.26" y="-12.72" font-family="Times,serif" font-size="14.00">owl:versionIRI</text>
</g>
<!-- http://www.w3.org/1999/02/22&#45;rdf&#45;syntax&#45;ns#nil -->
<g id="node20" class="node">
<title>http://www.w3.org/1999/02/22&#45;rdf&#45;syntax&#45;ns#nil</title>
<ellipse fill="none" stroke="#e377c2" cx="123.24" cy="-394.64" rx="42.35" ry="16.03"/>
<text text-anchor="middle" x="123.24" y="-390.94" font-family="Times,serif" font-size="14.00">rdf:nil</text>
</g>
<!-- http://purl.org/oseg/ontologies/OTRL#Otrl3 -->
<g id="node21" class="node">
<title>http://purl.org/oseg/ontologies/OTRL#Otrl3</title>
<ellipse fill="none" stroke="#e377c2" cx="420.94" cy="-223.77" rx="38.37" ry="16.03"/>
<text text-anchor="middle" x="420.94" y="-220.07" font-family="Times,serif" font-size="14.00">Otrl3</text>
</g>
<!-- http://purl.org/oseg/ontologies/OTRL#Otrl3&#45;&gt;http://www.w3.org/2002/07/owl#class -->
<g id="edge10" class="edge">
<title>http://purl.org/oseg/ontologies/OTRL#Otrl3&#45;&gt;http://www.w3.org/2002/07/owl#class</title>
<path fill="none" stroke="black" d="M385.22,-217.85C369.09,-215.17 349.58,-211.94 331.33,-208.91"/>
<polygon fill="black" stroke="black" points="331.79,-205.44 321.35,-207.25 330.64,-212.34 331.79,-205.44"/>
<text text-anchor="middle" x="353.78" y="-217.18" font-family="Times,serif" font-size="14.00">a</text>
</g>
<!-- http://purl.org/oseg/ontologies/OTRL#Otrl3&#45;&gt;http://purl.org/oseg/ontologies/OTRL#OTRL -->
<g id="edge20" class="edge">
<title>http://purl.org/oseg/ontologies/OTRL#Otrl3&#45;&gt;http://purl.org/oseg/ontologies/OTRL#OTRL</title>
<path fill="none" stroke="black" d="M386.88,-231.27C370.33,-234.92 350.23,-239.34 332.43,-243.26"/>
<polygon fill="black" stroke="black" points="331.28,-239.93 322.26,-245.5 332.78,-246.77 331.28,-239.93"/>
</g>
<!-- http://purl.org/oseg/ontologies/OTRL#Odrl2 -->
<g id="node22" class="node">
<title>http://purl.org/oseg/ontologies/OTRL#Odrl2</title>
<ellipse fill="none" stroke="#e377c2" cx="310.54" cy="-87.71" rx="40.11" ry="16.03"/>
<text text-anchor="middle" x="310.54" y="-84.01" font-family="Times,serif" font-size="14.00">Odrl2</text>
</g>
<!-- http://purl.org/oseg/ontologies/OTRL#Odrl2&#45;&gt;http://www.w3.org/2002/07/owl#class -->
<g id="edge29" class="edge">
<title>http://purl.org/oseg/ontologies/OTRL#Odrl2&#45;&gt;http://www.w3.org/2002/07/owl#class</title>
<path fill="none" stroke="black" d="M304.83,-104.14C298.54,-122.23 288.34,-151.56 280.95,-172.84"/>
<polygon fill="black" stroke="black" points="277.55,-171.95 277.57,-182.55 284.16,-174.25 277.55,-171.95"/>
<text text-anchor="middle" x="288.39" y="-142.29" font-family="Times,serif" font-size="14.00">a</text>
</g>
<!-- http://purl.org/oseg/ontologies/OTRL#Odrl2&#45;&gt;http://purl.org/oseg/ontologies/OTRL#ODRL -->
<g id="edge16" class="edge">
<title>http://purl.org/oseg/ontologies/OTRL#Odrl2&#45;&gt;http://purl.org/oseg/ontologies/OTRL#ODRL</title>
<path fill="none" stroke="black" d="M271.9,-82.67C255.49,-80.53 236.16,-78.01 218.72,-75.73"/>
<polygon fill="black" stroke="black" points="219.08,-72.25 208.71,-74.42 218.17,-79.19 219.08,-72.25"/>
</g>
<!-- http://purl.org/oseg/ontologies/OTRL#Odrl1 -->
<g id="node23" class="node">
<title>http://purl.org/oseg/ontologies/OTRL#Odrl1</title>
<ellipse fill="none" stroke="#e377c2" cx="93.04" cy="-197.65" rx="40.11" ry="16.03"/>
<text text-anchor="middle" x="93.04" y="-193.95" font-family="Times,serif" font-size="14.00">Odrl1</text>
</g>
<!-- http://purl.org/oseg/ontologies/OTRL#Odrl1&#45;&gt;http://www.w3.org/2002/07/owl#class -->
<g id="edge30" class="edge">
<title>http://purl.org/oseg/ontologies/OTRL#Odrl1&#45;&gt;http://www.w3.org/2002/07/owl#class</title>
<path fill="none" stroke="black" d="M133.61,-197.97C154.53,-198.13 180.59,-198.33 204.42,-198.52"/>
<polygon fill="black" stroke="black" points="204.45,-202.02 214.48,-198.6 204.51,-195.02 204.45,-202.02"/>
<text text-anchor="middle" x="164.52" y="-202.04" font-family="Times,serif" font-size="14.00">a</text>
</g>
<!-- http://purl.org/oseg/ontologies/OTRL#Odrl1&#45;&gt;http://purl.org/oseg/ontologies/OTRL#ODRL -->
<g id="edge17" class="edge">
<title>http://purl.org/oseg/ontologies/OTRL#Odrl1&#45;&gt;http://purl.org/oseg/ontologies/OTRL#ODRL</title>
<path fill="none" stroke="black" d="M102.52,-181.65C115.51,-159.74 138.96,-120.17 154.28,-94.31"/>
<polygon fill="black" stroke="black" points="157.44,-95.85 159.53,-85.46 151.42,-92.28 157.44,-95.85"/>
</g>
</g>
</svg>
