<?xml version="1.0" encoding="UTF-8" standalone="no"?>
<!DOCTYPE svg PUBLIC "-//W3C//DTD SVG 1.1//EN"
 "http://www.w3.org/Graphics/SVG/1.1/DTD/svg11.dtd">
<!-- Generated by graphviz version 2.43.0 (0)
 -->
<!-- Title: G Pages: 1 -->
<svg width="2147pt" height="1808pt"
 viewBox="0.00 0.00 2147.00 1808.00" xmlns="http://www.w3.org/2000/svg" xmlns:xlink="http://www.w3.org/1999/xlink">
<g id="graph0" class="graph" transform="scale(1 1) rotate(0) translate(4 1804)">
<title>G</title>
<polygon fill="white" stroke="transparent" points="-4,4 -4,-1804 2143,-1804 2143,4 -4,4"/>
<!-- http://purl.org/oseg/ontologies/OTRL#OTRL5 -->
<g id="node1" class="node">
<title>http://purl.org/oseg/ontologies/OTRL#OTRL5</title>
<ellipse fill="none" stroke="#e377c2" cx="657.42" cy="-1221.11" rx="45.92" ry="16.03"/>
<text text-anchor="middle" x="657.42" y="-1217.41" font-family="Times,serif" font-size="14.00">OTRL5</text>
</g>
<!-- http://purl.org/oseg/ontologies/OTRL#OTRL -->
<g id="node5" class="node">
<title>http://purl.org/oseg/ontologies/OTRL#OTRL</title>
<ellipse fill="none" stroke="#e377c2" cx="873.7" cy="-1245.42" rx="39.7" ry="16.03"/>
<text text-anchor="middle" x="873.7" y="-1241.72" font-family="Times,serif" font-size="14.00">OTRL</text>
</g>
<!-- http://purl.org/oseg/ontologies/OTRL#OTRL5&#45;&gt;http://purl.org/oseg/ontologies/OTRL#OTRL -->
<g id="edge4" class="edge">
<title>http://purl.org/oseg/ontologies/OTRL#OTRL5&#45;&gt;http://purl.org/oseg/ontologies/OTRL#OTRL</title>
<path fill="none" stroke="black" d="M701.45,-1226.06C737.35,-1230.1 788,-1235.79 825.09,-1239.96"/>
<polygon fill="black" stroke="black" points="824.84,-1243.45 835.16,-1241.09 825.62,-1236.5 824.84,-1243.45"/>
</g>
<!-- http://purl.org/oseg/ontologies/OTRL#OTRL1 -->
<g id="node2" class="node">
<title>http://purl.org/oseg/ontologies/OTRL#OTRL1</title>
<ellipse fill="none" stroke="#e377c2" cx="683.08" cy="-1342.14" rx="45.92" ry="16.03"/>
<text text-anchor="middle" x="683.08" y="-1338.44" font-family="Times,serif" font-size="14.00">OTRL1</text>
</g>
<!-- http://purl.org/oseg/ontologies/OTRL#OTRL1&#45;&gt;http://purl.org/oseg/ontologies/OTRL#OTRL -->
<g id="edge19" class="edge">
<title>http://purl.org/oseg/ontologies/OTRL#OTRL1&#45;&gt;http://purl.org/oseg/ontologies/OTRL#OTRL</title>
<path fill="none" stroke="black" d="M709.58,-1328.69C743.53,-1311.46 802.42,-1281.59 839.66,-1262.69"/>
<polygon fill="black" stroke="black" points="841.3,-1265.79 848.63,-1258.14 838.13,-1259.55 841.3,-1265.79"/>
</g>
<!-- http://purl.org/oseg/ontologies/OTRL#OTRL6 -->
<g id="node3" class="node">
<title>http://purl.org/oseg/ontologies/OTRL#OTRL6</title>
<ellipse fill="none" stroke="#e377c2" cx="850.53" cy="-1412.12" rx="45.92" ry="16.03"/>
<text text-anchor="middle" x="850.53" y="-1408.42" font-family="Times,serif" font-size="14.00">OTRL6</text>
</g>
<!-- http://purl.org/oseg/ontologies/OTRL#OTRL6&#45;&gt;http://purl.org/oseg/ontologies/OTRL#OTRL -->
<g id="edge8" class="edge">
<title>http://purl.org/oseg/ontologies/OTRL#OTRL6&#45;&gt;http://purl.org/oseg/ontologies/OTRL#OTRL</title>
<path fill="none" stroke="black" d="M852.8,-1395.84C856.8,-1367.03 865.16,-1306.85 870.01,-1271.97"/>
<polygon fill="black" stroke="black" points="873.48,-1272.41 871.39,-1262.02 866.55,-1271.45 873.48,-1272.41"/>
</g>
<!-- http://purl.org/oseg/ontologies/OTRL#OTRL4 -->
<g id="node4" class="node">
<title>http://purl.org/oseg/ontologies/OTRL#OTRL4</title>
<ellipse fill="none" stroke="#e377c2" cx="695.73" cy="-1416.44" rx="45.92" ry="16.03"/>
<text text-anchor="middle" x="695.73" y="-1412.74" font-family="Times,serif" font-size="14.00">OTRL4</text>
</g>
<!-- http://purl.org/oseg/ontologies/OTRL#OTRL4&#45;&gt;http://purl.org/oseg/ontologies/OTRL#OTRL -->
<g id="edge33" class="edge">
<title>http://purl.org/oseg/ontologies/OTRL#OTRL4&#45;&gt;http://purl.org/oseg/ontologies/OTRL#OTRL</title>
<path fill="none" stroke="black" d="M711.84,-1400.96C743.55,-1370.48 814.17,-1302.63 850.75,-1267.48"/>
<polygon fill="black" stroke="black" points="853.22,-1269.95 858.01,-1260.5 848.37,-1264.9 853.22,-1269.95"/>
</g>
<!-- http://purl.org/oseg/ontologies/OTRL#ODRL2 -->
<g id="node6" class="node">
<title>http://purl.org/oseg/ontologies/OTRL#ODRL2</title>
<ellipse fill="none" stroke="#e377c2" cx="1421.85" cy="-697.72" rx="48.17" ry="16.03"/>
<text text-anchor="middle" x="1421.85" y="-694.02" font-family="Times,serif" font-size="14.00">ODRL2</text>
</g>
<!-- http://purl.org/oseg/ontologies/OTRL#ODRL -->
<g id="node12" class="node">
<title>http://purl.org/oseg/ontologies/OTRL#ODRL</title>
<ellipse fill="none" stroke="#e377c2" cx="1283.87" cy="-889.92" rx="41.94" ry="16.03"/>
<text text-anchor="middle" x="1283.87" y="-886.22" font-family="Times,serif" font-size="14.00">ODRL</text>
</g>
<!-- http://purl.org/oseg/ontologies/OTRL#ODRL2&#45;&gt;http://purl.org/oseg/ontologies/OTRL#ODRL -->
<g id="edge9" class="edge">
<title>http://purl.org/oseg/ontologies/OTRL#ODRL2&#45;&gt;http://purl.org/oseg/ontologies/OTRL#ODRL</title>
<path fill="none" stroke="black" d="M1410.32,-713.77C1386.11,-747.49 1329.87,-825.84 1301.26,-865.7"/>
<polygon fill="black" stroke="black" points="1298.25,-863.88 1295.26,-874.04 1303.94,-867.96 1298.25,-863.88"/>
</g>
<!-- http://purl.org/oseg/ontologies/OTRL#ODRL3Star -->
<g id="node7" class="node">
<title>http://purl.org/oseg/ontologies/OTRL#ODRL3Star</title>
<ellipse fill="none" stroke="#e377c2" cx="1092.32" cy="-761.52" rx="69.09" ry="16.03"/>
<text text-anchor="middle" x="1092.32" y="-757.82" font-family="Times,serif" font-size="14.00">ODRL3Star</text>
</g>
<!-- http://purl.org/oseg/ontologies/OTRL#ODRL3Star&#45;&gt;http://purl.org/oseg/ontologies/OTRL#ODRL -->
<g id="edge2" class="edge">
<title>http://purl.org/oseg/ontologies/OTRL#ODRL3Star&#45;&gt;http://purl.org/oseg/ontologies/OTRL#ODRL</title>
<path fill="none" stroke="black" d="M1115.42,-777.01C1150.15,-800.29 1215.81,-844.3 1254.09,-869.96"/>
<polygon fill="black" stroke="black" points="1252.48,-873.09 1262.73,-875.75 1256.38,-867.28 1252.48,-873.09"/>
</g>
<!-- http://www.w3.org/2002/07/owl#DatatypeProperty -->
<g id="node8" class="node">
<title>http://www.w3.org/2002/07/owl#DatatypeProperty</title>
<ellipse fill="none" stroke="#1f77b4" cx="1275.08" cy="-1297.64" rx="123.07" ry="16.03"/>
<text text-anchor="middle" x="1275.08" y="-1293.94" font-family="Times,serif" font-size="14.00">owl:DatatypeProperty</text>
</g>
<!-- http://purl.org/oseg/ontologies/OTRL#ODRL4 -->
<g id="node9" class="node">
<title>http://purl.org/oseg/ontologies/OTRL#ODRL4</title>
<ellipse fill="none" stroke="#e377c2" cx="1296.16" cy="-645.75" rx="48.17" ry="16.03"/>
<text text-anchor="middle" x="1296.16" y="-642.05" font-family="Times,serif" font-size="14.00">ODRL4</text>
</g>
<!-- http://purl.org/oseg/ontologies/OTRL#ODRL4&#45;&gt;http://purl.org/oseg/ontologies/OTRL#ODRL -->
<g id="edge50" class="edge">
<title>http://purl.org/oseg/ontologies/OTRL#ODRL4&#45;&gt;http://purl.org/oseg/ontologies/OTRL#ODRL</title>
<path fill="none" stroke="black" d="M1295.34,-662.15C1293.25,-703.59 1287.75,-812.8 1285.2,-863.44"/>
<polygon fill="black" stroke="black" points="1281.7,-863.43 1284.69,-873.59 1288.69,-863.78 1281.7,-863.43"/>
</g>
<!-- http://purl.org/oseg/ontologies/OTRL#ODRL3 -->
<g id="node10" class="node">
<title>http://purl.org/oseg/ontologies/OTRL#ODRL3</title>
<ellipse fill="none" stroke="#e377c2" cx="1509.86" cy="-960.34" rx="48.17" ry="16.03"/>
<text text-anchor="middle" x="1509.86" y="-956.64" font-family="Times,serif" font-size="14.00">ODRL3</text>
</g>
<!-- http://purl.org/oseg/ontologies/OTRL#ODRL3&#45;&gt;http://purl.org/oseg/ontologies/OTRL#ODRL -->
<g id="edge51" class="edge">
<title>http://purl.org/oseg/ontologies/OTRL#ODRL3&#45;&gt;http://purl.org/oseg/ontologies/OTRL#ODRL</title>
<path fill="none" stroke="black" d="M1474.3,-949.26C1434.17,-936.75 1368.93,-916.42 1326.2,-903.11"/>
<polygon fill="black" stroke="black" points="1327.24,-899.77 1316.65,-900.13 1325.16,-906.45 1327.24,-899.77"/>
</g>
<!-- http://purl.org/oseg/ontologies/OTRL#OTRL2 -->
<g id="node11" class="node">
<title>http://purl.org/oseg/ontologies/OTRL#OTRL2</title>
<ellipse fill="none" stroke="#e377c2" cx="733.77" cy="-1110.23" rx="45.92" ry="16.03"/>
<text text-anchor="middle" x="733.77" y="-1106.53" font-family="Times,serif" font-size="14.00">OTRL2</text>
</g>
<!-- http://purl.org/oseg/ontologies/OTRL#OTRL2&#45;&gt;http://purl.org/oseg/ontologies/OTRL#OTRL -->
<g id="edge42" class="edge">
<title>http://purl.org/oseg/ontologies/OTRL#OTRL2&#45;&gt;http://purl.org/oseg/ontologies/OTRL#OTRL</title>
<path fill="none" stroke="black" d="M749.82,-1125.74C774.49,-1149.58 821.86,-1195.34 850.34,-1222.85"/>
<polygon fill="black" stroke="black" points="848.21,-1225.67 857.83,-1230.1 853.07,-1220.63 848.21,-1225.67"/>
</g>
<!-- http://purl.org/oseg/ontologies/OTRL#ODRL1 -->
<g id="node13" class="node">
<title>http://purl.org/oseg/ontologies/OTRL#ODRL1</title>
<ellipse fill="none" stroke="#e377c2" cx="1502" cy="-798.99" rx="48.17" ry="16.03"/>
<text text-anchor="middle" x="1502" y="-795.29" font-family="Times,serif" font-size="14.00">ODRL1</text>
</g>
<!-- http://purl.org/oseg/ontologies/OTRL#ODRL1&#45;&gt;http://purl.org/oseg/ontologies/OTRL#ODRL -->
<g id="edge27" class="edge">
<title>http://purl.org/oseg/ontologies/OTRL#ODRL1&#45;&gt;http://purl.org/oseg/ontologies/OTRL#ODRL</title>
<path fill="none" stroke="black" d="M1471.67,-811.64C1432.57,-827.93 1364.57,-856.28 1322.01,-874.02"/>
<polygon fill="black" stroke="black" points="1320.44,-870.88 1312.55,-877.96 1323.13,-877.34 1320.44,-870.88"/>
</g>
<!-- http://www.w3.org/2002/07/owl#Ontology -->
<g id="node14" class="node">
<title>http://www.w3.org/2002/07/owl#Ontology</title>
<ellipse fill="none" stroke="#1f77b4" cx="1587.71" cy="-1417.82" rx="77.56" ry="16.03"/>
<text text-anchor="middle" x="1587.71" y="-1414.12" font-family="Times,serif" font-size="14.00">owl:Ontology</text>
</g>
<!-- http://purl.org/oseg/ontologies/OTRL#OTRL3 -->
<g id="node15" class="node">
<title>http://purl.org/oseg/ontologies/OTRL#OTRL3</title>
<ellipse fill="none" stroke="#e377c2" cx="1024.24" cy="-1418.14" rx="45.92" ry="16.03"/>
<text text-anchor="middle" x="1024.24" y="-1414.44" font-family="Times,serif" font-size="14.00">OTRL3</text>
</g>
<!-- http://purl.org/oseg/ontologies/OTRL#OTRL3&#45;&gt;http://purl.org/oseg/ontologies/OTRL#OTRL -->
<g id="edge14" class="edge">
<title>http://purl.org/oseg/ontologies/OTRL#OTRL3&#45;&gt;http://purl.org/oseg/ontologies/OTRL#OTRL</title>
<path fill="none" stroke="black" d="M1010.62,-1402.5C984.08,-1372.06 925.35,-1304.68 894.13,-1268.87"/>
<polygon fill="black" stroke="black" points="896.39,-1266.13 887.18,-1260.9 891.11,-1270.73 896.39,-1266.13"/>
</g>
<!-- https://www.gnu.org/licenses/gpl&#45;3.0.txt -->
<g id="node16" class="node">
<title>https://www.gnu.org/licenses/gpl&#45;3.0.txt</title>
<ellipse fill="none" stroke="#e377c2" cx="1762.29" cy="-1417.69" rx="85.62" ry="16.03"/>
<text text-anchor="middle" x="1762.29" y="-1413.99" font-family="Times,serif" font-size="14.00">ns1:gpl&#45;3.0.txt</text>
</g>
<!-- http://purl.org/oseg/ontologies/OTRL -->
<g id="node17" class="node">
<title>http://purl.org/oseg/ontologies/OTRL</title>
<ellipse fill="none" stroke="#e377c2" cx="1696.38" cy="-1375" rx="60.62" ry="16.03"/>
<text text-anchor="middle" x="1696.38" y="-1371.3" font-family="Times,serif" font-size="14.00">ns2:OTRL</text>
</g>
<!-- http://purl.org/oseg/ontologies/OTRL&#45;&gt;http://www.w3.org/2002/07/owl#Ontology -->
<g id="edge15" class="edge">
<title>http://purl.org/oseg/ontologies/OTRL&#45;&gt;http://www.w3.org/2002/07/owl#Ontology</title>
<path fill="none" stroke="black" d="M1662,-1388.55C1653.14,-1392.04 1643.45,-1395.85 1634.09,-1399.54"/>
<polygon fill="black" stroke="black" points="1632.52,-1396.4 1624.5,-1403.32 1635.09,-1402.91 1632.52,-1396.4"/>
<text text-anchor="middle" x="1643.55" y="-1397.84" font-family="Times,serif" font-size="14.00">a</text>
</g>
<!-- http://purl.org/oseg/ontologies/OTRL&#45;&gt;https://www.gnu.org/licenses/gpl&#45;3.0.txt -->
<g id="edge3" class="edge">
<title>http://purl.org/oseg/ontologies/OTRL&#45;&gt;https://www.gnu.org/licenses/gpl&#45;3.0.txt</title>
<path fill="none" stroke="black" d="M1710.1,-1391.02C1712.66,-1393.01 1715.45,-1395.06 1718.37,-1397.11"/>
<polygon fill="black" stroke="black" points="1716.6,-1400.13 1726.86,-1402.78 1720.49,-1394.31 1716.6,-1400.13"/>
<text text-anchor="middle" x="1770.74" y="-1397.86" font-family="Times,serif" font-size="14.00">dcterms:license</text>
</g>
<!-- http://purl.org/oseg/ontologies/OTRL&#45;&gt;https://www.gnu.org/licenses/gpl&#45;3.0.txt -->
<g id="edge47" class="edge">
<title>http://purl.org/oseg/ontologies/OTRL&#45;&gt;https://www.gnu.org/licenses/gpl&#45;3.0.txt</title>
<path fill="none" stroke="black" d="M1729.9,-1388.7C1733.34,-1390.86 1736.76,-1393.12 1740.03,-1395.4"/>
<polygon fill="black" stroke="black" points="1738.09,-1398.32 1748.23,-1401.4 1742.23,-1392.67 1738.09,-1398.32"/>
<text text-anchor="middle" x="1699.97" y="-1395.85" font-family="Times,serif" font-size="14.00">cc:license</text>
</g>
<!-- http://purl.org/oseg/ontologies/OTRL&#45;&gt;http://purl.org/oseg/ontologies/OTRL -->
<g id="edge25" class="edge">
<title>http://purl.org/oseg/ontologies/OTRL&#45;&gt;http://purl.org/oseg/ontologies/OTRL</title>
<path fill="none" stroke="black" d="M1751.98,-1381.63C1765.31,-1381.11 1775.19,-1378.9 1775.19,-1375 1775.19,-1372.16 1769.98,-1370.22 1762.01,-1369.17"/>
<polygon fill="black" stroke="black" points="1762.23,-1365.68 1751.98,-1368.37 1761.67,-1372.65 1762.23,-1365.68"/>
<text text-anchor="middle" x="1826.69" y="-1371.3" font-family="Times,serif" font-size="14.00">owl:versionIRI</text>
</g>
<!-- http://purl.org/oseg/ontologies/OTRL#goal -->
<g id="node18" class="node">
<title>http://purl.org/oseg/ontologies/OTRL#goal</title>
<ellipse fill="none" stroke="#e377c2" cx="1126.7" cy="-1120.04" rx="33.47" ry="16.03"/>
<text text-anchor="middle" x="1126.7" y="-1116.34" font-family="Times,serif" font-size="14.00">goal</text>
</g>
<!-- http://purl.org/oseg/ontologies/OTRL#goal&#45;&gt;http://purl.org/oseg/ontologies/OTRL#OTRL -->
<g id="edge18" class="edge">
<title>http://purl.org/oseg/ontologies/OTRL#goal&#45;&gt;http://purl.org/oseg/ontologies/OTRL#OTRL</title>
<path fill="none" stroke="black" d="M1102.9,-1131.83C1057.96,-1154.1 960.49,-1202.41 908.31,-1228.27"/>
<polygon fill="black" stroke="black" points="906.52,-1225.25 899.12,-1232.83 909.63,-1231.52 906.52,-1225.25"/>
<text text-anchor="middle" x="919.6" y="-1183.85" font-family="Times,serif" font-size="14.00">schema:domainIncludes</text>
</g>
<!-- http://purl.org/oseg/ontologies/OTRL#goal&#45;&gt;http://www.w3.org/2002/07/owl#DatatypeProperty -->
<g id="edge16" class="edge">
<title>http://purl.org/oseg/ontologies/OTRL#goal&#45;&gt;http://www.w3.org/2002/07/owl#DatatypeProperty</title>
<path fill="none" stroke="black" d="M1139.35,-1135.18C1165.09,-1165.99 1223.73,-1236.18 1254.83,-1273.41"/>
<polygon fill="black" stroke="black" points="1252.3,-1275.83 1261.39,-1281.26 1257.67,-1271.34 1252.3,-1275.83"/>
<text text-anchor="middle" x="1192.59" y="-1208.09" font-family="Times,serif" font-size="14.00">a</text>
</g>
<!-- http://purl.org/oseg/ontologies/OTRL#goal&#45;&gt;http://purl.org/oseg/ontologies/OTRL#ODRL -->
<g id="edge11" class="edge">
<title>http://purl.org/oseg/ontologies/OTRL#goal&#45;&gt;http://purl.org/oseg/ontologies/OTRL#ODRL</title>
<path fill="none" stroke="black" d="M1137.25,-1104.58C1164.02,-1065.39 1234.72,-961.87 1267.17,-914.37"/>
<polygon fill="black" stroke="black" points="1270.19,-916.15 1272.94,-905.92 1264.41,-912.2 1270.19,-916.15"/>
<text text-anchor="middle" x="1116.21" y="-1013.28" font-family="Times,serif" font-size="14.00">schema:domainIncludes</text>
</g>
<!-- http://schema.org/Text -->
<g id="node20" class="node">
<title>http://schema.org/Text</title>
<ellipse fill="none" stroke="#e377c2" cx="1294.48" cy="-1163.32" rx="74.91" ry="16.03"/>
<text text-anchor="middle" x="1294.48" y="-1159.62" font-family="Times,serif" font-size="14.00">schema:Text</text>
</g>
<!-- http://purl.org/oseg/ontologies/OTRL#goal&#45;&gt;http://schema.org/Text -->
<g id="edge48" class="edge">
<title>http://purl.org/oseg/ontologies/OTRL#goal&#45;&gt;http://schema.org/Text</title>
<path fill="none" stroke="black" d="M1156.31,-1127.68C1178.43,-1133.38 1209.37,-1141.37 1236.37,-1148.33"/>
<polygon fill="black" stroke="black" points="1235.56,-1151.73 1246.11,-1150.84 1237.3,-1144.96 1235.56,-1151.73"/>
<text text-anchor="middle" x="1175.34" y="-1141.8" font-family="Times,serif" font-size="14.00">range</text>
</g>
<!-- http://purl.org/oseg/ontologies/OTRL#exitCriteria -->
<g id="node19" class="node">
<title>http://purl.org/oseg/ontologies/OTRL#exitCriteria</title>
<ellipse fill="none" stroke="#e377c2" cx="1083.57" cy="-1064.53" rx="70.01" ry="16.03"/>
<text text-anchor="middle" x="1083.57" y="-1060.83" font-family="Times,serif" font-size="14.00">exitCriteria</text>
</g>
<!-- http://purl.org/oseg/ontologies/OTRL#exitCriteria&#45;&gt;http://purl.org/oseg/ontologies/OTRL#OTRL -->
<g id="edge40" class="edge">
<title>http://purl.org/oseg/ontologies/OTRL#exitCriteria&#45;&gt;http://purl.org/oseg/ontologies/OTRL#OTRL</title>
<path fill="none" stroke="black" d="M1065.31,-1080.26C1027.65,-1112.73 941.29,-1187.16 898.57,-1223.98"/>
<polygon fill="black" stroke="black" points="896.17,-1221.43 890.88,-1230.61 900.74,-1226.74 896.17,-1221.43"/>
<text text-anchor="middle" x="895.94" y="-1155.92" font-family="Times,serif" font-size="14.00">schema:domainIncludes</text>
</g>
<!-- http://purl.org/oseg/ontologies/OTRL#exitCriteria&#45;&gt;http://www.w3.org/2002/07/owl#DatatypeProperty -->
<g id="edge17" class="edge">
<title>http://purl.org/oseg/ontologies/OTRL#exitCriteria&#45;&gt;http://www.w3.org/2002/07/owl#DatatypeProperty</title>
<path fill="none" stroke="black" d="M1096.73,-1080.55C1129.66,-1120.63 1215.75,-1225.42 1255.02,-1273.23"/>
<polygon fill="black" stroke="black" points="1252.52,-1275.69 1261.57,-1281.2 1257.93,-1271.25 1252.52,-1275.69"/>
<text text-anchor="middle" x="1171.38" y="-1180.69" font-family="Times,serif" font-size="14.00">a</text>
</g>
<!-- http://purl.org/oseg/ontologies/OTRL#exitCriteria&#45;&gt;http://purl.org/oseg/ontologies/OTRL#ODRL -->
<g id="edge45" class="edge">
<title>http://purl.org/oseg/ontologies/OTRL#exitCriteria&#45;&gt;http://purl.org/oseg/ontologies/OTRL#ODRL</title>
<path fill="none" stroke="black" d="M1101.7,-1048.72C1137.72,-1017.32 1218.34,-947.04 1259.17,-911.45"/>
<polygon fill="black" stroke="black" points="1261.54,-914.02 1266.78,-904.82 1256.94,-908.75 1261.54,-914.02"/>
<text text-anchor="middle" x="1094.43" y="-983.89" font-family="Times,serif" font-size="14.00">schema:domainIncludes</text>
</g>
<!-- http://purl.org/oseg/ontologies/OTRL#exitCriteria&#45;&gt;http://schema.org/Text -->
<g id="edge22" class="edge">
<title>http://purl.org/oseg/ontologies/OTRL#exitCriteria&#45;&gt;http://schema.org/Text</title>
<path fill="none" stroke="black" d="M1114.69,-1079.1C1151.58,-1096.38 1213.16,-1125.23 1253.79,-1144.26"/>
<polygon fill="black" stroke="black" points="1252.35,-1147.45 1262.89,-1148.52 1255.32,-1141.11 1252.35,-1147.45"/>
<text text-anchor="middle" x="1205.24" y="-1115.48" font-family="Times,serif" font-size="14.00">range</text>
</g>
<!-- http://purl.org/oseg/ontologies/OTRL#Odrl4 -->
<g id="node21" class="node">
<title>http://purl.org/oseg/ontologies/OTRL#Odrl4</title>
<ellipse fill="none" stroke="#e377c2" cx="1300.08" cy="-411.02" rx="40.11" ry="16.03"/>
<text text-anchor="middle" x="1300.08" y="-407.32" font-family="Times,serif" font-size="14.00">Odrl4</text>
</g>
<!-- http://purl.org/oseg/ontologies/OTRL#Odrl4&#45;&gt;http://purl.org/oseg/ontologies/OTRL#ODRL4 -->
<g id="edge31" class="edge">
<title>http://purl.org/oseg/ontologies/OTRL#Odrl4&#45;&gt;http://purl.org/oseg/ontologies/OTRL#ODRL4</title>
<path fill="none" stroke="black" d="M1296.14,-427.46C1291.64,-467.56 1289.66,-570.66 1292.16,-619.43"/>
<polygon fill="black" stroke="black" points="1288.67,-619.75 1292.8,-629.51 1295.65,-619.31 1288.67,-619.75"/>
<text text-anchor="middle" x="1214.15" y="-527.24" font-family="Times,serif" font-size="14.00">schema:supersededBy</text>
</g>
<!-- http://purl.org/oseg/ontologies/OTRL#Odrl4&#45;&gt;http://purl.org/oseg/ontologies/OTRL#ODRL4 -->
<g id="edge39" class="edge">
<title>http://purl.org/oseg/ontologies/OTRL#Odrl4&#45;&gt;http://purl.org/oseg/ontologies/OTRL#ODRL4</title>
<path fill="none" stroke="black" d="M1303.47,-427.58C1306.63,-467.72 1305.18,-570.42 1301.08,-619.22"/>
<polygon fill="black" stroke="black" points="1297.58,-619.03 1300.1,-629.32 1304.55,-619.7 1297.58,-619.03"/>
<text text-anchor="middle" x="1259.78" y="-512.2" font-family="Times,serif" font-size="14.00">owl:sameAs</text>
</g>
<!-- http://purl.org/oseg/ontologies/OTRL#Odrl2 -->
<g id="node22" class="node">
<title>http://purl.org/oseg/ontologies/OTRL#Odrl2</title>
<ellipse fill="none" stroke="black" cx="1659.85" cy="-363.32" rx="233.19" ry="16.03"/>
<text text-anchor="middle" x="1659.85" y="-359.62" font-family="Times,serif" font-size="14.00">http://purl.org/oseg/ontologies/OTRL#Odrl2</text>
</g>
<!-- http://purl.org/oseg/ontologies/OTRL#Odrl2&#45;&gt;http://purl.org/oseg/ontologies/OTRL#ODRL2 -->
<g id="edge1" class="edge">
<title>http://purl.org/oseg/ontologies/OTRL#Odrl2&#45;&gt;http://purl.org/oseg/ontologies/OTRL#ODRL2</title>
<path fill="none" stroke="black" d="M1644.03,-379.86C1599.78,-434.29 1476.33,-607.56 1435.2,-672.7"/>
<polygon fill="black" stroke="black" points="1432.04,-671.15 1429.75,-681.5 1437.99,-674.84 1432.04,-671.15"/>
<text text-anchor="middle" x="1459.61" y="-530.08" font-family="Times,serif" font-size="14.00">schema:supersededBy</text>
</g>
<!-- http://purl.org/oseg/ontologies/OTRL#Odrl2&#45;&gt;http://purl.org/oseg/ontologies/OTRL#ODRL2 -->
<g id="edge37" class="edge">
<title>http://purl.org/oseg/ontologies/OTRL#Odrl2&#45;&gt;http://purl.org/oseg/ontologies/OTRL#ODRL2</title>
<path fill="none" stroke="black" d="M1651.75,-379.86C1618.49,-434.73 1493.76,-610.45 1443.18,-674.3"/>
<polygon fill="black" stroke="black" points="1440.37,-672.22 1436.83,-682.21 1445.82,-676.6 1440.37,-672.22"/>
<text text-anchor="middle" x="1589.97" y="-530.88" font-family="Times,serif" font-size="14.00">owl:sameAs</text>
</g>
<!-- http://purl.org/oseg/ontologies/OTRL#Otrl1 -->
<g id="node23" class="node">
<title>http://purl.org/oseg/ontologies/OTRL#Otrl1</title>
<ellipse fill="none" stroke="black" cx="324.49" cy="-1569.02" rx="231.45" ry="16.03"/>
<text text-anchor="middle" x="324.49" y="-1565.32" font-family="Times,serif" font-size="14.00">http://purl.org/oseg/ontologies/OTRL#Otrl1</text>
</g>
<!-- http://purl.org/oseg/ontologies/OTRL#Otrl1&#45;&gt;http://purl.org/oseg/ontologies/OTRL#OTRL1 -->
<g id="edge5" class="edge">
<title>http://purl.org/oseg/ontologies/OTRL#Otrl1&#45;&gt;http://purl.org/oseg/ontologies/OTRL#OTRL1</title>
<path fill="none" stroke="black" d="M357.51,-1552.85C428.13,-1512.57 592.46,-1408.54 656.71,-1363.39"/>
<polygon fill="black" stroke="black" points="658.98,-1366.07 665.09,-1357.42 654.92,-1360.37 658.98,-1366.07"/>
<text text-anchor="middle" x="427.11" y="-1461.92" font-family="Times,serif" font-size="14.00">schema:supersededBy</text>
</g>
<!-- http://purl.org/oseg/ontologies/OTRL#Otrl1&#45;&gt;http://purl.org/oseg/ontologies/OTRL#OTRL1 -->
<g id="edge7" class="edge">
<title>http://purl.org/oseg/ontologies/OTRL#Otrl1&#45;&gt;http://purl.org/oseg/ontologies/OTRL#OTRL1</title>
<path fill="none" stroke="black" d="M343.77,-1552.8C401.13,-1511.55 571.09,-1403.7 646.45,-1360.37"/>
<polygon fill="black" stroke="black" points="648.62,-1363.16 655.58,-1355.17 645.16,-1357.08 648.62,-1363.16"/>
<text text-anchor="middle" x="452.61" y="-1445.39" font-family="Times,serif" font-size="14.00">owl:sameAs</text>
</g>
<!-- http://purl.org/oseg/ontologies/OTRL#Odrl1 -->
<g id="node24" class="node">
<title>http://purl.org/oseg/ontologies/OTRL#Odrl1</title>
<ellipse fill="none" stroke="black" cx="1878.81" cy="-630.45" rx="233.19" ry="16.03"/>
<text text-anchor="middle" x="1878.81" y="-626.75" font-family="Times,serif" font-size="14.00">http://purl.org/oseg/ontologies/OTRL#Odrl1</text>
</g>
<!-- http://purl.org/oseg/ontologies/OTRL#Odrl1&#45;&gt;http://purl.org/oseg/ontologies/OTRL#ODRL1 -->
<g id="edge6" class="edge">
<title>http://purl.org/oseg/ontologies/OTRL#Odrl1&#45;&gt;http://purl.org/oseg/ontologies/OTRL#ODRL1</title>
<path fill="none" stroke="black" d="M1831.86,-646.44C1754.28,-677.79 1601.29,-746.4 1534.48,-780"/>
<polygon fill="black" stroke="black" points="1532.59,-777.03 1525.26,-784.69 1535.76,-783.27 1532.59,-777.03"/>
<text text-anchor="middle" x="1603.17" y="-717.02" font-family="Times,serif" font-size="14.00">schema:supersededBy</text>
</g>
<!-- http://purl.org/oseg/ontologies/OTRL#Odrl1&#45;&gt;http://purl.org/oseg/ontologies/OTRL#ODRL1 -->
<g id="edge24" class="edge">
<title>http://purl.org/oseg/ontologies/OTRL#Odrl1&#45;&gt;http://purl.org/oseg/ontologies/OTRL#ODRL1</title>
<path fill="none" stroke="black" d="M1851.72,-646.72C1787.52,-679.49 1625.66,-752.14 1546.7,-783.91"/>
<polygon fill="black" stroke="black" points="1545.03,-780.81 1537.03,-787.75 1547.62,-787.31 1545.03,-780.81"/>
<text text-anchor="middle" x="1741.71" y="-719.11" font-family="Times,serif" font-size="14.00">owl:sameAs</text>
</g>
<!-- http://purl.org/oseg/ontologies/OTRL#Otrl5 -->
<g id="node25" class="node">
<title>http://purl.org/oseg/ontologies/OTRL#Otrl5</title>
<ellipse fill="none" stroke="black" cx="230.94" cy="-1176.96" rx="231.45" ry="16.03"/>
<text text-anchor="middle" x="230.94" y="-1173.26" font-family="Times,serif" font-size="14.00">http://purl.org/oseg/ontologies/OTRL#Otrl5</text>
</g>
<!-- http://purl.org/oseg/ontologies/OTRL#Otrl5&#45;&gt;http://purl.org/oseg/ontologies/OTRL#OTRL5 -->
<g id="edge10" class="edge">
<title>http://purl.org/oseg/ontologies/OTRL#Otrl5&#45;&gt;http://purl.org/oseg/ontologies/OTRL#OTRL5</title>
<path fill="none" stroke="black" d="M321.06,-1191.96C405.74,-1202.47 529.8,-1215.01 601.19,-1220.05"/>
<polygon fill="black" stroke="black" points="601.12,-1223.55 611.33,-1220.74 601.59,-1216.57 601.12,-1223.55"/>
<text text-anchor="middle" x="381.13" y="-1209.81" font-family="Times,serif" font-size="14.00">schema:supersededBy</text>
</g>
<!-- http://purl.org/oseg/ontologies/OTRL#Otrl5&#45;&gt;http://purl.org/oseg/ontologies/OTRL#OTRL5 -->
<g id="edge23" class="edge">
<title>http://purl.org/oseg/ontologies/OTRL#Otrl5&#45;&gt;http://purl.org/oseg/ontologies/OTRL#OTRL5</title>
<path fill="none" stroke="black" d="M401.4,-1187.95C475.55,-1195.19 556.9,-1204.31 607.56,-1211.38"/>
<polygon fill="black" stroke="black" points="607.18,-1214.87 617.58,-1212.82 608.17,-1207.94 607.18,-1214.87"/>
<text text-anchor="middle" x="546.98" y="-1203.47" font-family="Times,serif" font-size="14.00">owl:sameAs</text>
</g>
<!-- http://purl.org/oseg/ontologies/OTRL#Odrl3 -->
<g id="node26" class="node">
<title>http://purl.org/oseg/ontologies/OTRL#Odrl3</title>
<ellipse fill="none" stroke="black" cx="1905.45" cy="-1072.29" rx="233.19" ry="16.03"/>
<text text-anchor="middle" x="1905.45" y="-1068.59" font-family="Times,serif" font-size="14.00">http://purl.org/oseg/ontologies/OTRL#Odrl3</text>
</g>
<!-- http://purl.org/oseg/ontologies/OTRL#Odrl3&#45;&gt;http://purl.org/oseg/ontologies/OTRL#ODRL3 -->
<g id="edge12" class="edge">
<title>http://purl.org/oseg/ontologies/OTRL#Odrl3&#45;&gt;http://purl.org/oseg/ontologies/OTRL#ODRL3</title>
<path fill="none" stroke="black" d="M1864.68,-1056.22C1792.48,-1032.6 1642.28,-989.97 1562.42,-970.31"/>
<polygon fill="black" stroke="black" points="1563.12,-966.88 1552.57,-967.92 1561.46,-973.68 1563.12,-966.88"/>
<text text-anchor="middle" x="1633.55" y="-1002.07" font-family="Times,serif" font-size="14.00">schema:supersededBy</text>
</g>
<!-- http://purl.org/oseg/ontologies/OTRL#Odrl3&#45;&gt;http://purl.org/oseg/ontologies/OTRL#ODRL3 -->
<g id="edge13" class="edge">
<title>http://purl.org/oseg/ontologies/OTRL#Odrl3&#45;&gt;http://purl.org/oseg/ontologies/OTRL#ODRL3</title>
<path fill="none" stroke="black" d="M1830.97,-1056.8C1747.79,-1035.47 1616.2,-997.87 1550.29,-976.29"/>
<polygon fill="black" stroke="black" points="1551.27,-972.93 1540.67,-973.1 1549.06,-979.57 1551.27,-972.93"/>
<text text-anchor="middle" x="1648.13" y="-1020.34" font-family="Times,serif" font-size="14.00">owl:sameAs</text>
</g>
<!-- http://purl.org/oseg/ontologies/OTRL#Otrl6 -->
<g id="node27" class="node">
<title>http://purl.org/oseg/ontologies/OTRL#Otrl6</title>
<ellipse fill="none" stroke="black" cx="894.03" cy="-1463.49" rx="231.45" ry="16.03"/>
<text text-anchor="middle" x="894.03" y="-1459.79" font-family="Times,serif" font-size="14.00">http://purl.org/oseg/ontologies/OTRL#Otrl6</text>
</g>
<!-- http://purl.org/oseg/ontologies/OTRL#Otrl6&#45;&gt;http://purl.org/oseg/ontologies/OTRL#OTRL6 -->
<g id="edge20" class="edge">
<title>http://purl.org/oseg/ontologies/OTRL#Otrl6&#45;&gt;http://purl.org/oseg/ontologies/OTRL#OTRL6</title>
<path fill="none" stroke="black" d="M887.79,-1446.97C885.11,-1443.02 881.86,-1438.76 878.4,-1434.6"/>
<polygon fill="black" stroke="black" points="880.82,-1432.05 871.58,-1426.86 875.56,-1436.67 880.82,-1432.05"/>
<text text-anchor="middle" x="883.1" y="-1429.59" font-family="Times,serif" font-size="14.00">schema:supersededBy</text>
</g>
<!-- http://purl.org/oseg/ontologies/OTRL#Otrl6&#45;&gt;http://purl.org/oseg/ontologies/OTRL#OTRL6 -->
<g id="edge21" class="edge">
<title>http://purl.org/oseg/ontologies/OTRL#Otrl6&#45;&gt;http://purl.org/oseg/ontologies/OTRL#OTRL6</title>
<path fill="none" stroke="black" d="M871.53,-1447.18C868.48,-1443.83 865.45,-1440.25 862.66,-1436.69"/>
<polygon fill="black" stroke="black" points="865.44,-1434.56 856.71,-1428.56 859.79,-1438.69 865.44,-1434.56"/>
<text text-anchor="middle" x="824.6" y="-1445.73" font-family="Times,serif" font-size="14.00">owl:sameAs</text>
</g>
<!-- http://purl.org/oseg/ontologies/OTRL#Otrl -->
<g id="node28" class="node">
<title>http://purl.org/oseg/ontologies/OTRL#Otrl</title>
<ellipse fill="none" stroke="black" cx="471.7" cy="-1268.73" rx="224.72" ry="16.03"/>
<text text-anchor="middle" x="471.7" y="-1265.03" font-family="Times,serif" font-size="14.00">http://purl.org/oseg/ontologies/OTRL#Otrl</text>
</g>
<!-- http://purl.org/oseg/ontologies/OTRL#Otrl&#45;&gt;http://purl.org/oseg/ontologies/OTRL#OTRL -->
<g id="edge26" class="edge">
<title>http://purl.org/oseg/ontologies/OTRL#Otrl&#45;&gt;http://purl.org/oseg/ontologies/OTRL#OTRL</title>
<path fill="none" stroke="black" d="M683.39,-1263.21C737.5,-1259.99 790.58,-1256.18 826.87,-1252.68"/>
<polygon fill="black" stroke="black" points="827.51,-1256.13 837.11,-1251.65 826.81,-1249.17 827.51,-1256.13"/>
<text text-anchor="middle" x="755.13" y="-1246.74" font-family="Times,serif" font-size="14.00">schema:supersededBy</text>
</g>
<!-- http://purl.org/oseg/ontologies/OTRL#Otrl&#45;&gt;http://purl.org/oseg/ontologies/OTRL#OTRL -->
<g id="edge28" class="edge">
<title>http://purl.org/oseg/ontologies/OTRL#Otrl&#45;&gt;http://purl.org/oseg/ontologies/OTRL#OTRL</title>
<path fill="none" stroke="black" d="M596.6,-1255.17C673.34,-1249.78 767.44,-1244.88 823.87,-1243.68"/>
<polygon fill="black" stroke="black" points="824.03,-1247.18 833.96,-1243.5 823.9,-1240.18 824.03,-1247.18"/>
<text text-anchor="middle" x="667.74" y="-1238.23" font-family="Times,serif" font-size="14.00">owl:sameAs</text>
</g>
<!-- http://purl.org/oseg/ontologies/OTRL#Odrl3Star -->
<g id="node29" class="node">
<title>http://purl.org/oseg/ontologies/OTRL#Odrl3Star</title>
<ellipse fill="none" stroke="black" cx="1027.7" cy="-719.15" rx="255.03" ry="16.03"/>
<text text-anchor="middle" x="1027.7" y="-715.45" font-family="Times,serif" font-size="14.00">http://purl.org/oseg/ontologies/OTRL#Odrl3Star</text>
</g>
<!-- http://purl.org/oseg/ontologies/OTRL#Odrl3Star&#45;&gt;http://purl.org/oseg/ontologies/OTRL#ODRL3Star -->
<g id="edge29" class="edge">
<title>http://purl.org/oseg/ontologies/OTRL#Odrl3Star&#45;&gt;http://purl.org/oseg/ontologies/OTRL#ODRL3Star</title>
<path fill="none" stroke="black" d="M1041.7,-735.57C1044.25,-737.56 1047.02,-739.61 1049.91,-741.64"/>
<polygon fill="black" stroke="black" points="1048.03,-744.6 1058.29,-747.26 1051.93,-738.78 1048.03,-744.6"/>
<text text-anchor="middle" x="965.8" y="-742.41" font-family="Times,serif" font-size="14.00">schema:supersededBy</text>
</g>
<!-- http://purl.org/oseg/ontologies/OTRL#Odrl3Star&#45;&gt;http://purl.org/oseg/ontologies/OTRL#ODRL3Star -->
<g id="edge46" class="edge">
<title>http://purl.org/oseg/ontologies/OTRL#Odrl3Star&#45;&gt;http://purl.org/oseg/ontologies/OTRL#ODRL3Star</title>
<path fill="none" stroke="black" d="M1064.84,-735.44C1066.68,-736.66 1068.5,-737.9 1070.28,-739.15"/>
<polygon fill="black" stroke="black" points="1068.55,-742.22 1078.66,-745.37 1072.71,-736.6 1068.55,-742.22"/>
<text text-anchor="middle" x="1110.06" y="-741.09" font-family="Times,serif" font-size="14.00">owl:sameAs</text>
</g>
<!-- http://purl.org/oseg/ontologies/OTRL#Odrl -->
<g id="node30" class="node">
<title>http://purl.org/oseg/ontologies/OTRL#Odrl</title>
<ellipse fill="none" stroke="black" cx="1697.45" cy="-851.42" rx="226.96" ry="16.03"/>
<text text-anchor="middle" x="1697.45" y="-847.72" font-family="Times,serif" font-size="14.00">http://purl.org/oseg/ontologies/OTRL#Odrl</text>
</g>
<!-- http://purl.org/oseg/ontologies/OTRL#Odrl&#45;&gt;http://purl.org/oseg/ontologies/OTRL#ODRL -->
<g id="edge30" class="edge">
<title>http://purl.org/oseg/ontologies/OTRL#Odrl&#45;&gt;http://purl.org/oseg/ontologies/OTRL#ODRL</title>
<path fill="none" stroke="black" d="M1517.83,-861.42C1449.41,-867.51 1376.95,-874.99 1331.11,-881"/>
<polygon fill="black" stroke="black" points="1330.63,-877.53 1321.18,-882.33 1331.56,-884.47 1330.63,-877.53"/>
<text text-anchor="middle" x="1344.47" y="-860.01" font-family="Times,serif" font-size="14.00">schema:supersededBy</text>
</g>
<!-- http://purl.org/oseg/ontologies/OTRL#Odrl&#45;&gt;http://purl.org/oseg/ontologies/OTRL#ODRL -->
<g id="edge38" class="edge">
<title>http://purl.org/oseg/ontologies/OTRL#Odrl&#45;&gt;http://purl.org/oseg/ontologies/OTRL#ODRL</title>
<path fill="none" stroke="black" d="M1601.55,-866.18C1518.77,-875.46 1402.32,-885.91 1335.83,-889.74"/>
<polygon fill="black" stroke="black" points="1335.4,-886.26 1325.61,-890.3 1335.78,-893.25 1335.4,-886.26"/>
<text text-anchor="middle" x="1426.19" y="-881.76" font-family="Times,serif" font-size="14.00">owl:sameAs</text>
</g>
<!-- http://purl.org/oseg/ontologies/OTRL#Otrl4 -->
<g id="node31" class="node">
<title>http://purl.org/oseg/ontologies/OTRL#Otrl4</title>
<ellipse fill="none" stroke="black" cx="504.02" cy="-1783.61" rx="231.45" ry="16.03"/>
<text text-anchor="middle" x="504.02" y="-1779.91" font-family="Times,serif" font-size="14.00">http://purl.org/oseg/ontologies/OTRL#Otrl4</text>
</g>
<!-- http://purl.org/oseg/ontologies/OTRL#Otrl4&#45;&gt;http://purl.org/oseg/ontologies/OTRL#OTRL4 -->
<g id="edge32" class="edge">
<title>http://purl.org/oseg/ontologies/OTRL#Otrl4&#45;&gt;http://purl.org/oseg/ontologies/OTRL#OTRL4</title>
<path fill="none" stroke="black" d="M516.03,-1767.34C551.55,-1709.43 654.09,-1513.39 686.22,-1442.36"/>
<polygon fill="black" stroke="black" points="689.6,-1443.38 690.43,-1432.82 683.19,-1440.56 689.6,-1443.38"/>
<text text-anchor="middle" x="521.12" y="-1608.65" font-family="Times,serif" font-size="14.00">schema:supersededBy</text>
</g>
<!-- http://purl.org/oseg/ontologies/OTRL#Otrl4&#45;&gt;http://purl.org/oseg/ontologies/OTRL#OTRL4 -->
<g id="edge35" class="edge">
<title>http://purl.org/oseg/ontologies/OTRL#Otrl4&#45;&gt;http://purl.org/oseg/ontologies/OTRL#OTRL4</title>
<path fill="none" stroke="black" d="M509.43,-1766.95C534.65,-1708.21 637.4,-1510.84 678.69,-1441.08"/>
<polygon fill="black" stroke="black" points="681.71,-1442.85 683.86,-1432.48 675.71,-1439.24 681.71,-1442.85"/>
<text text-anchor="middle" x="551.56" y="-1592.81" font-family="Times,serif" font-size="14.00">owl:sameAs</text>
</g>
<!-- http://purl.org/oseg/ontologies/OTRL#Otrl2 -->
<g id="node32" class="node">
<title>http://purl.org/oseg/ontologies/OTRL#Otrl2</title>
<ellipse fill="none" stroke="black" cx="676.49" cy="-1064.39" rx="231.45" ry="16.03"/>
<text text-anchor="middle" x="676.49" y="-1060.69" font-family="Times,serif" font-size="14.00">http://purl.org/oseg/ontologies/OTRL#Otrl2</text>
</g>
<!-- http://purl.org/oseg/ontologies/OTRL#Otrl2&#45;&gt;http://purl.org/oseg/ontologies/OTRL#OTRL2 -->
<g id="edge34" class="edge">
<title>http://purl.org/oseg/ontologies/OTRL#Otrl2&#45;&gt;http://purl.org/oseg/ontologies/OTRL#OTRL2</title>
<path fill="none" stroke="black" d="M687.5,-1080.87C690.86,-1084.12 694.74,-1087.54 698.78,-1090.86"/>
<polygon fill="black" stroke="black" points="696.66,-1093.65 706.7,-1097.06 700.98,-1088.14 696.66,-1093.65"/>
<text text-anchor="middle" x="613.14" y="-1089.67" font-family="Times,serif" font-size="14.00">schema:supersededBy</text>
</g>
<!-- http://purl.org/oseg/ontologies/OTRL#Otrl2&#45;&gt;http://purl.org/oseg/ontologies/OTRL#OTRL2 -->
<g id="edge36" class="edge">
<title>http://purl.org/oseg/ontologies/OTRL#Otrl2&#45;&gt;http://purl.org/oseg/ontologies/OTRL#OTRL2</title>
<path fill="none" stroke="black" d="M707.66,-1080.71C710.47,-1082.91 713.24,-1085.2 715.88,-1087.48"/>
<polygon fill="black" stroke="black" points="713.53,-1090.08 723.27,-1094.25 718.26,-1084.91 713.53,-1090.08"/>
<text text-anchor="middle" x="754.27" y="-1087.89" font-family="Times,serif" font-size="14.00">owl:sameAs</text>
</g>
<!-- http://purl.org/oseg/ontologies/OTRL#Odrl5 -->
<g id="node33" class="node">
<title>http://purl.org/oseg/ontologies/OTRL#Odrl5</title>
<ellipse fill="none" stroke="black" cx="1305.92" cy="-16.4" rx="233.19" ry="16.03"/>
<text text-anchor="middle" x="1305.92" y="-12.7" font-family="Times,serif" font-size="14.00">http://purl.org/oseg/ontologies/OTRL#Odrl5</text>
</g>
<!-- http://purl.org/oseg/ontologies/OTRL#Odrl5&#45;&gt;http://purl.org/oseg/ontologies/OTRL#Odrl4 -->
<g id="edge41" class="edge">
<title>http://purl.org/oseg/ontologies/OTRL#Odrl5&#45;&gt;http://purl.org/oseg/ontologies/OTRL#Odrl4</title>
<path fill="none" stroke="black" d="M1302.76,-32.81C1296.98,-93.91 1293.58,-308.58 1296.87,-384.32"/>
<polygon fill="black" stroke="black" points="1293.39,-384.65 1297.41,-394.45 1300.38,-384.28 1293.39,-384.65"/>
<text text-anchor="middle" x="1257.32" y="-212.37" font-family="Times,serif" font-size="14.00">owl:sameAs</text>
</g>
<!-- http://purl.org/oseg/ontologies/OTRL#Odrl5&#45;&gt;http://purl.org/oseg/ontologies/OTRL#Odrl4 -->
<g id="edge49" class="edge">
<title>http://purl.org/oseg/ontologies/OTRL#Odrl5&#45;&gt;http://purl.org/oseg/ontologies/OTRL#Odrl4</title>
<path fill="none" stroke="black" d="M1308.59,-32.9C1312.55,-94.15 1309.61,-308.82 1304.08,-384.42"/>
<polygon fill="black" stroke="black" points="1300.58,-384.28 1303.25,-394.54 1307.56,-384.86 1300.58,-384.28"/>
<text text-anchor="middle" x="1386.33" y="-212.46" font-family="Times,serif" font-size="14.00">schema:supersededBy</text>
</g>
<!-- http://purl.org/oseg/ontologies/OTRL#Otrl3 -->
<g id="node34" class="node">
<title>http://purl.org/oseg/ontologies/OTRL#Otrl3</title>
<ellipse fill="none" stroke="black" cx="1265.83" cy="-1753.06" rx="231.45" ry="16.03"/>
<text text-anchor="middle" x="1265.83" y="-1749.36" font-family="Times,serif" font-size="14.00">http://purl.org/oseg/ontologies/OTRL#Otrl3</text>
</g>
<!-- http://purl.org/oseg/ontologies/OTRL#Otrl3&#45;&gt;http://purl.org/oseg/ontologies/OTRL#OTRL3 -->
<g id="edge43" class="edge">
<title>http://purl.org/oseg/ontologies/OTRL#Otrl3&#45;&gt;http://purl.org/oseg/ontologies/OTRL#OTRL3</title>
<path fill="none" stroke="black" d="M1257.57,-1736.48C1223.73,-1681.5 1097.11,-1505.51 1045.84,-1441.57"/>
<polygon fill="black" stroke="black" points="1048.43,-1439.21 1039.4,-1433.66 1043,-1443.62 1048.43,-1439.21"/>
<text text-anchor="middle" x="1071.7" y="-1577.83" font-family="Times,serif" font-size="14.00">schema:supersededBy</text>
</g>
<!-- http://purl.org/oseg/ontologies/OTRL#Otrl3&#45;&gt;http://purl.org/oseg/ontologies/OTRL#OTRL3 -->
<g id="edge44" class="edge">
<title>http://purl.org/oseg/ontologies/OTRL#Otrl3&#45;&gt;http://purl.org/oseg/ontologies/OTRL#OTRL3</title>
<path fill="none" stroke="black" d="M1249.82,-1736.5C1204.98,-1682.01 1079.67,-1508.47 1037.86,-1443.21"/>
<polygon fill="black" stroke="black" points="1040.6,-1441 1032.31,-1434.39 1034.67,-1444.72 1040.6,-1441"/>
<text text-anchor="middle" x="1101.34" y="-1593.66" font-family="Times,serif" font-size="14.00">owl:sameAs</text>
</g>
</g>
</svg>
