<?xml version="1.0" encoding="UTF-8" standalone="no"?>
<!DOCTYPE svg PUBLIC "-//W3C//DTD SVG 1.1//EN"
 "http://www.w3.org/Graphics/SVG/1.1/DTD/svg11.dtd">
<!-- Generated by graphviz version 2.43.0 (0)
 -->
<!-- Title: G Pages: 1 -->
<svg width="779pt" height="490pt"
 viewBox="0.00 0.00 778.76 490.00" xmlns="http://www.w3.org/2000/svg" xmlns:xlink="http://www.w3.org/1999/xlink">
<g id="graph0" class="graph" transform="scale(1 1) rotate(0) translate(4 486)">
<title>G</title>
<polygon fill="white" stroke="transparent" points="-4,4 -4,-486 774.76,-486 774.76,4 -4,4"/>
<!-- http://www.w3.org/2002/07/owl#class -->
<g id="node1" class="node">
<title>http://www.w3.org/2002/07/owl#class</title>
<ellipse fill="none" stroke="#1f77b4" cx="242.03" cy="-192.67" rx="57.05" ry="16.03"/>
<text text-anchor="middle" x="242.03" y="-188.97" font-family="Times,serif" font-size="14.00">owl:class</text>
</g>
<!-- http://www.w3.org/2002/07/owl#Ontology -->
<g id="node2" class="node">
<title>http://www.w3.org/2002/07/owl#Ontology</title>
<ellipse fill="none" stroke="#1f77b4" cx="441.32" cy="-38.47" rx="77.56" ry="16.03"/>
<text text-anchor="middle" x="441.32" y="-34.77" font-family="Times,serif" font-size="14.00">owl:Ontology</text>
</g>
<!-- http://purl.org/oseg/ontologies/OTRL#OTRL -->
<g id="node3" class="node">
<title>http://purl.org/oseg/ontologies/OTRL#OTRL</title>
<ellipse fill="none" stroke="#e377c2" cx="332.04" cy="-255" rx="39.7" ry="16.03"/>
<text text-anchor="middle" x="332.04" y="-251.3" font-family="Times,serif" font-size="14.00">OTRL</text>
</g>
<!-- http://purl.org/oseg/ontologies/OTRL#OTRL&#45;&gt;http://www.w3.org/2002/07/owl#class -->
<g id="edge1" class="edge">
<title>http://purl.org/oseg/ontologies/OTRL#OTRL&#45;&gt;http://www.w3.org/2002/07/owl#class</title>
<path fill="none" stroke="black" d="M311.61,-240.86C300.07,-232.86 285.41,-222.71 272.52,-213.79"/>
<polygon fill="black" stroke="black" points="274.16,-210.67 263.95,-207.85 270.17,-216.42 274.16,-210.67"/>
<text text-anchor="middle" x="287.57" y="-231.12" font-family="Times,serif" font-size="14.00">a</text>
</g>
<!-- http://purl.org/oseg/ontologies/OTRL#ODRL -->
<g id="node4" class="node">
<title>http://purl.org/oseg/ontologies/OTRL#ODRL</title>
<ellipse fill="none" stroke="#e377c2" cx="153.25" cy="-131.67" rx="41.94" ry="16.03"/>
<text text-anchor="middle" x="153.25" y="-127.97" font-family="Times,serif" font-size="14.00">ODRL</text>
</g>
<!-- http://purl.org/oseg/ontologies/OTRL#ODRL&#45;&gt;http://www.w3.org/2002/07/owl#class -->
<g id="edge20" class="edge">
<title>http://purl.org/oseg/ontologies/OTRL#ODRL&#45;&gt;http://www.w3.org/2002/07/owl#class</title>
<path fill="none" stroke="black" d="M173.84,-145.82C185.08,-153.54 199.21,-163.25 211.68,-171.82"/>
<polygon fill="black" stroke="black" points="209.78,-174.76 220,-177.54 213.74,-168.99 209.78,-174.76"/>
<text text-anchor="middle" x="188.26" y="-162.62" font-family="Times,serif" font-size="14.00">a</text>
</g>
<!-- http://www.w3.org/2002/07/owl#DatatypeProperty -->
<g id="node5" class="node">
<title>http://www.w3.org/2002/07/owl#DatatypeProperty</title>
<ellipse fill="none" stroke="#1f77b4" cx="542.82" cy="-392.42" rx="123.07" ry="16.03"/>
<text text-anchor="middle" x="542.82" y="-388.72" font-family="Times,serif" font-size="14.00">owl:DatatypeProperty</text>
</g>
<!-- http://purl.org/oseg/ontologies/OTRL#OTRL&#45;2 -->
<g id="node6" class="node">
<title>http://purl.org/oseg/ontologies/OTRL#OTRL&#45;2</title>
<ellipse fill="none" stroke="#e377c2" cx="429.55" cy="-279.71" rx="49.49" ry="16.03"/>
<text text-anchor="middle" x="429.55" y="-276.01" font-family="Times,serif" font-size="14.00">OTRL&#45;2</text>
</g>
<!-- http://purl.org/oseg/ontologies/OTRL#OTRL&#45;2&#45;&gt;http://www.w3.org/2002/07/owl#class -->
<g id="edge2" class="edge">
<title>http://purl.org/oseg/ontologies/OTRL#OTRL&#45;2&#45;&gt;http://www.w3.org/2002/07/owl#class</title>
<path fill="none" stroke="black" d="M400.66,-266.3C368.69,-251.47 316.98,-227.46 281.34,-210.92"/>
<polygon fill="black" stroke="black" points="282.74,-207.71 272.2,-206.68 279.79,-214.06 282.74,-207.71"/>
<text text-anchor="middle" x="336.5" y="-227.41" font-family="Times,serif" font-size="14.00">a</text>
</g>
<!-- http://purl.org/oseg/ontologies/OTRL#OTRL&#45;2&#45;&gt;http://purl.org/oseg/ontologies/OTRL#OTRL -->
<g id="edge9" class="edge">
<title>http://purl.org/oseg/ontologies/OTRL#OTRL&#45;2&#45;&gt;http://purl.org/oseg/ontologies/OTRL#OTRL</title>
<path fill="none" stroke="black" d="M390.17,-269.73C385.4,-268.53 380.5,-267.29 375.68,-266.06"/>
<polygon fill="black" stroke="black" points="376.48,-262.65 365.93,-263.59 374.76,-269.44 376.48,-262.65"/>
</g>
<!-- http://schema.org/Text -->
<g id="node7" class="node">
<title>http://schema.org/Text</title>
<ellipse fill="none" stroke="#e377c2" cx="691.34" cy="-466.12" rx="74.91" ry="16.03"/>
<text text-anchor="middle" x="691.34" y="-462.42" font-family="Times,serif" font-size="14.00">schema:Text</text>
</g>
<!-- http://purl.org/oseg/ontologies/OTRL#ODRL&#45;3 -->
<g id="node8" class="node">
<title>http://purl.org/oseg/ontologies/OTRL#ODRL&#45;3</title>
<ellipse fill="none" stroke="#e377c2" cx="94.8" cy="-279.62" rx="50.82" ry="16.03"/>
<text text-anchor="middle" x="94.8" y="-275.92" font-family="Times,serif" font-size="14.00">ODRL&#45;3</text>
</g>
<!-- http://purl.org/oseg/ontologies/OTRL#ODRL&#45;3&#45;&gt;http://www.w3.org/2002/07/owl#class -->
<g id="edge19" class="edge">
<title>http://purl.org/oseg/ontologies/OTRL#ODRL&#45;3&#45;&gt;http://www.w3.org/2002/07/owl#class</title>
<path fill="none" stroke="black" d="M119.11,-265.26C143.47,-250.87 181.17,-228.61 208.39,-212.54"/>
<polygon fill="black" stroke="black" points="210.36,-215.44 217.19,-207.34 206.8,-209.41 210.36,-215.44"/>
<text text-anchor="middle" x="159.25" y="-242.7" font-family="Times,serif" font-size="14.00">a</text>
</g>
<!-- http://purl.org/oseg/ontologies/OTRL#ODRL&#45;3&#45;&gt;http://purl.org/oseg/ontologies/OTRL#ODRL -->
<g id="edge26" class="edge">
<title>http://purl.org/oseg/ontologies/OTRL#ODRL&#45;3&#45;&gt;http://purl.org/oseg/ontologies/OTRL#ODRL</title>
<path fill="none" stroke="black" d="M101.28,-263.22C111.37,-237.67 130.94,-188.14 142.98,-157.68"/>
<polygon fill="black" stroke="black" points="146.33,-158.73 146.74,-148.14 139.81,-156.16 146.33,-158.73"/>
</g>
<!-- http://purl.org/oseg/ontologies/OTRL#OTRL&#45;4 -->
<g id="node9" class="node">
<title>http://purl.org/oseg/ontologies/OTRL#OTRL&#45;4</title>
<ellipse fill="none" stroke="#e377c2" cx="330.35" cy="-368.47" rx="49.49" ry="16.03"/>
<text text-anchor="middle" x="330.35" y="-364.77" font-family="Times,serif" font-size="14.00">OTRL&#45;4</text>
</g>
<!-- http://purl.org/oseg/ontologies/OTRL#OTRL&#45;4&#45;&gt;http://www.w3.org/2002/07/owl#class -->
<g id="edge4" class="edge">
<title>http://purl.org/oseg/ontologies/OTRL#OTRL&#45;4&#45;&gt;http://www.w3.org/2002/07/owl#class</title>
<path fill="none" stroke="black" d="M322.19,-352.25C306.75,-321.51 273.12,-254.57 254.71,-217.91"/>
<polygon fill="black" stroke="black" points="257.78,-216.22 250.16,-208.86 251.52,-219.37 257.78,-216.22"/>
<text text-anchor="middle" x="283.95" y="-288.88" font-family="Times,serif" font-size="14.00">a</text>
</g>
<!-- http://purl.org/oseg/ontologies/OTRL#OTRL&#45;4&#45;&gt;http://purl.org/oseg/ontologies/OTRL#OTRL -->
<g id="edge3" class="edge">
<title>http://purl.org/oseg/ontologies/OTRL#OTRL&#45;4&#45;&gt;http://purl.org/oseg/ontologies/OTRL#OTRL</title>
<path fill="none" stroke="black" d="M330.59,-351.73C330.87,-333.27 331.32,-303.32 331.64,-281.64"/>
<polygon fill="black" stroke="black" points="335.14,-281.5 331.79,-271.45 328.14,-281.39 335.14,-281.5"/>
</g>
<!-- http://purl.org/oseg/ontologies/OTRL#ODRL&#45;4 -->
<g id="node10" class="node">
<title>http://purl.org/oseg/ontologies/OTRL#ODRL&#45;4</title>
<ellipse fill="none" stroke="#e377c2" cx="52.61" cy="-107.48" rx="50.82" ry="16.03"/>
<text text-anchor="middle" x="52.61" y="-103.78" font-family="Times,serif" font-size="14.00">ODRL&#45;4</text>
</g>
<!-- http://purl.org/oseg/ontologies/OTRL#ODRL&#45;4&#45;&gt;http://www.w3.org/2002/07/owl#class -->
<g id="edge21" class="edge">
<title>http://purl.org/oseg/ontologies/OTRL#ODRL&#45;4&#45;&gt;http://www.w3.org/2002/07/owl#class</title>
<path fill="none" stroke="black" d="M82.21,-120.79C114.49,-135.31 166.34,-158.63 202.19,-174.75"/>
<polygon fill="black" stroke="black" points="200.83,-177.98 211.39,-178.89 203.7,-171.6 200.83,-177.98"/>
<text text-anchor="middle" x="137.7" y="-151.57" font-family="Times,serif" font-size="14.00">a</text>
</g>
<!-- http://purl.org/oseg/ontologies/OTRL#ODRL&#45;4&#45;&gt;http://purl.org/oseg/ontologies/OTRL#ODRL -->
<g id="edge12" class="edge">
<title>http://purl.org/oseg/ontologies/OTRL#ODRL&#45;4&#45;&gt;http://purl.org/oseg/ontologies/OTRL#ODRL</title>
<path fill="none" stroke="black" d="M93.55,-117.32C98.14,-118.42 102.84,-119.55 107.49,-120.67"/>
<polygon fill="black" stroke="black" points="106.98,-124.15 117.52,-123.08 108.62,-117.34 106.98,-124.15"/>
</g>
<!-- http://purl.org/oseg/ontologies/OTRL -->
<g id="node11" class="node">
<title>http://purl.org/oseg/ontologies/OTRL</title>
<ellipse fill="none" stroke="#e377c2" cx="588.95" cy="-16.42" rx="60.62" ry="16.03"/>
<text text-anchor="middle" x="588.95" y="-12.72" font-family="Times,serif" font-size="14.00">ns1:OTRL</text>
</g>
<!-- http://purl.org/oseg/ontologies/OTRL&#45;&gt;http://www.w3.org/2002/07/owl#Ontology -->
<g id="edge11" class="edge">
<title>http://purl.org/oseg/ontologies/OTRL&#45;&gt;http://www.w3.org/2002/07/owl#Ontology</title>
<path fill="none" stroke="black" d="M535.65,-24.38C528.94,-25.38 521.98,-26.42 515.02,-27.46"/>
<polygon fill="black" stroke="black" points="514.22,-24.04 504.85,-28.98 515.26,-30.96 514.22,-24.04"/>
<text text-anchor="middle" x="523.08" y="-14.72" font-family="Times,serif" font-size="14.00">a</text>
</g>
<!-- http://purl.org/oseg/ontologies/OTRL&#45;&gt;http://purl.org/oseg/ontologies/OTRL -->
<g id="edge6" class="edge">
<title>http://purl.org/oseg/ontologies/OTRL&#45;&gt;http://purl.org/oseg/ontologies/OTRL</title>
<path fill="none" stroke="black" d="M644.55,-23.05C657.89,-22.53 667.76,-20.32 667.76,-16.42 667.76,-13.58 662.55,-11.64 654.58,-10.59"/>
<polygon fill="black" stroke="black" points="654.8,-7.1 644.55,-9.78 654.24,-14.07 654.8,-7.1"/>
<text text-anchor="middle" x="719.26" y="-12.72" font-family="Times,serif" font-size="14.00">owl:versionIRI</text>
</g>
<!-- http://purl.org/oseg/ontologies/OTRL#ODRL&#45;2 -->
<g id="node12" class="node">
<title>http://purl.org/oseg/ontologies/OTRL#ODRL&#45;2</title>
<ellipse fill="none" stroke="#e377c2" cx="259.44" cy="-16.57" rx="50.82" ry="16.03"/>
<text text-anchor="middle" x="259.44" y="-12.87" font-family="Times,serif" font-size="14.00">ODRL&#45;2</text>
</g>
<!-- http://purl.org/oseg/ontologies/OTRL#ODRL&#45;2&#45;&gt;http://www.w3.org/2002/07/owl#class -->
<g id="edge24" class="edge">
<title>http://purl.org/oseg/ontologies/OTRL#ODRL&#45;2&#45;&gt;http://www.w3.org/2002/07/owl#class</title>
<path fill="none" stroke="black" d="M257.81,-33.14C254.78,-63.76 248.28,-129.46 244.64,-166.28"/>
<polygon fill="black" stroke="black" points="241.15,-165.98 243.65,-176.28 248.12,-166.67 241.15,-165.98"/>
<text text-anchor="middle" x="246.72" y="-103.51" font-family="Times,serif" font-size="14.00">a</text>
</g>
<!-- http://purl.org/oseg/ontologies/OTRL#ODRL&#45;2&#45;&gt;http://purl.org/oseg/ontologies/OTRL#ODRL -->
<g id="edge16" class="edge">
<title>http://purl.org/oseg/ontologies/OTRL#ODRL&#45;2&#45;&gt;http://purl.org/oseg/ontologies/OTRL#ODRL</title>
<path fill="none" stroke="black" d="M244.68,-32.57C226.43,-52.36 195.24,-86.16 174.44,-108.71"/>
<polygon fill="black" stroke="black" points="171.76,-106.45 167.55,-116.17 176.91,-111.2 171.76,-106.45"/>
</g>
<!-- http://purl.org/oseg/ontologies/OTRL#ODRL&#45;5 -->
<g id="node13" class="node">
<title>http://purl.org/oseg/ontologies/OTRL#ODRL&#45;5</title>
<ellipse fill="none" stroke="#e377c2" cx="50.6" cy="-213.05" rx="50.82" ry="16.03"/>
<text text-anchor="middle" x="50.6" y="-209.35" font-family="Times,serif" font-size="14.00">ODRL&#45;5</text>
</g>
<!-- http://purl.org/oseg/ontologies/OTRL#ODRL&#45;5&#45;&gt;http://www.w3.org/2002/07/owl#class -->
<g id="edge25" class="edge">
<title>http://purl.org/oseg/ontologies/OTRL#ODRL&#45;5&#45;&gt;http://www.w3.org/2002/07/owl#class</title>
<path fill="none" stroke="black" d="M98.91,-207.91C122.96,-205.35 152.36,-202.22 178.24,-199.47"/>
<polygon fill="black" stroke="black" points="178.77,-202.93 188.34,-198.39 178.03,-195.97 178.77,-202.93"/>
<text text-anchor="middle" x="134.08" y="-207.49" font-family="Times,serif" font-size="14.00">a</text>
</g>
<!-- http://purl.org/oseg/ontologies/OTRL#ODRL&#45;5&#45;&gt;http://purl.org/oseg/ontologies/OTRL#ODRL -->
<g id="edge22" class="edge">
<title>http://purl.org/oseg/ontologies/OTRL#ODRL&#45;5&#45;&gt;http://purl.org/oseg/ontologies/OTRL#ODRL</title>
<path fill="none" stroke="black" d="M69.91,-197.75C85.88,-185.09 108.74,-166.96 126.48,-152.9"/>
<polygon fill="black" stroke="black" points="129.06,-155.32 134.72,-146.36 124.71,-149.83 129.06,-155.32"/>
</g>
<!-- http://purl.org/oseg/ontologies/OTRL#OTRL&#45;3 -->
<g id="node14" class="node">
<title>http://purl.org/oseg/ontologies/OTRL#OTRL&#45;3</title>
<ellipse fill="none" stroke="#e377c2" cx="389.15" cy="-109.26" rx="49.49" ry="16.03"/>
<text text-anchor="middle" x="389.15" y="-105.56" font-family="Times,serif" font-size="14.00">OTRL&#45;3</text>
</g>
<!-- http://purl.org/oseg/ontologies/OTRL#OTRL&#45;3&#45;&gt;http://www.w3.org/2002/07/owl#class -->
<g id="edge7" class="edge">
<title>http://purl.org/oseg/ontologies/OTRL#OTRL&#45;3&#45;&gt;http://www.w3.org/2002/07/owl#class</title>
<path fill="none" stroke="black" d="M364.19,-123.41C340.11,-137.06 303.44,-157.85 276.56,-173.09"/>
<polygon fill="black" stroke="black" points="274.82,-170.06 267.85,-178.03 278.28,-176.14 274.82,-170.06"/>
<text text-anchor="middle" x="315.88" y="-152.05" font-family="Times,serif" font-size="14.00">a</text>
</g>
<!-- http://purl.org/oseg/ontologies/OTRL#OTRL&#45;3&#45;&gt;http://purl.org/oseg/ontologies/OTRL#OTRL -->
<g id="edge18" class="edge">
<title>http://purl.org/oseg/ontologies/OTRL#OTRL&#45;3&#45;&gt;http://purl.org/oseg/ontologies/OTRL#OTRL</title>
<path fill="none" stroke="black" d="M382.82,-125.41C372.96,-150.58 353.83,-199.38 342.08,-229.38"/>
<polygon fill="black" stroke="black" points="338.78,-228.19 338.4,-238.78 345.3,-230.74 338.78,-228.19"/>
</g>
<!-- http://purl.org/oseg/ontologies/OTRL#ODRL&#45;1 -->
<g id="node15" class="node">
<title>http://purl.org/oseg/ontologies/OTRL#ODRL&#45;1</title>
<ellipse fill="none" stroke="#e377c2" cx="148.76" cy="-17.7" rx="50.82" ry="16.03"/>
<text text-anchor="middle" x="148.76" y="-14" font-family="Times,serif" font-size="14.00">ODRL&#45;1</text>
</g>
<!-- http://purl.org/oseg/ontologies/OTRL#ODRL&#45;1&#45;&gt;http://www.w3.org/2002/07/owl#class -->
<g id="edge8" class="edge">
<title>http://purl.org/oseg/ontologies/OTRL#ODRL&#45;1&#45;&gt;http://www.w3.org/2002/07/owl#class</title>
<path fill="none" stroke="black" d="M157.37,-33.85C173.68,-64.45 209.19,-131.07 228.64,-167.55"/>
<polygon fill="black" stroke="black" points="225.65,-169.39 233.44,-176.57 231.83,-166.09 225.65,-169.39"/>
<text text-anchor="middle" x="188.5" y="-104.5" font-family="Times,serif" font-size="14.00">a</text>
</g>
<!-- http://purl.org/oseg/ontologies/OTRL#ODRL&#45;1&#45;&gt;http://purl.org/oseg/ontologies/OTRL#ODRL -->
<g id="edge10" class="edge">
<title>http://purl.org/oseg/ontologies/OTRL#ODRL&#45;1&#45;&gt;http://purl.org/oseg/ontologies/OTRL#ODRL</title>
<path fill="none" stroke="black" d="M149.41,-34.03C150.14,-52.65 151.35,-83.35 152.22,-105.36"/>
<polygon fill="black" stroke="black" points="148.72,-105.52 152.61,-115.37 155.71,-105.24 148.72,-105.52"/>
</g>
<!-- http://www.w3.org/1999/02/22&#45;rdf&#45;syntax&#45;ns#nil -->
<g id="node16" class="node">
<title>http://www.w3.org/1999/02/22&#45;rdf&#45;syntax&#45;ns#nil</title>
<ellipse fill="none" stroke="#e377c2" cx="98.24" cy="-408.64" rx="42.35" ry="16.03"/>
<text text-anchor="middle" x="98.24" y="-404.94" font-family="Times,serif" font-size="14.00">rdf:nil</text>
</g>
<!-- http://purl.org/oseg/ontologies/OTRL#OTRL&#45;1 -->
<g id="node17" class="node">
<title>http://purl.org/oseg/ontologies/OTRL#OTRL&#45;1</title>
<ellipse fill="none" stroke="#e377c2" cx="222.5" cy="-364.81" rx="49.49" ry="16.03"/>
<text text-anchor="middle" x="222.5" y="-361.11" font-family="Times,serif" font-size="14.00">OTRL&#45;1</text>
</g>
<!-- http://purl.org/oseg/ontologies/OTRL#OTRL&#45;1&#45;&gt;http://www.w3.org/2002/07/owl#class -->
<g id="edge14" class="edge">
<title>http://purl.org/oseg/ontologies/OTRL#OTRL&#45;1&#45;&gt;http://www.w3.org/2002/07/owl#class</title>
<path fill="none" stroke="black" d="M224.37,-348.31C227.76,-318.49 234.91,-255.4 239,-219.37"/>
<polygon fill="black" stroke="black" points="242.51,-219.46 240.16,-209.13 235.56,-218.67 242.51,-219.46"/>
<text text-anchor="middle" x="227.19" y="-287.64" font-family="Times,serif" font-size="14.00">a</text>
</g>
<!-- http://purl.org/oseg/ontologies/OTRL#OTRL&#45;1&#45;&gt;http://purl.org/oseg/ontologies/OTRL#OTRL -->
<g id="edge13" class="edge">
<title>http://purl.org/oseg/ontologies/OTRL#OTRL&#45;1&#45;&gt;http://purl.org/oseg/ontologies/OTRL#OTRL</title>
<path fill="none" stroke="black" d="M238.2,-349.08C256.93,-330.3 288.39,-298.76 309.66,-277.43"/>
<polygon fill="black" stroke="black" points="312.14,-279.91 316.73,-270.35 307.19,-274.96 312.14,-279.91"/>
</g>
<!-- http://purl.org/oseg/ontologies/OTRL#exitCriteria -->
<g id="node18" class="node">
<title>http://purl.org/oseg/ontologies/OTRL#exitCriteria</title>
<ellipse fill="none" stroke="#e377c2" cx="545.93" cy="-351.88" rx="70.01" ry="16.03"/>
<text text-anchor="middle" x="545.93" y="-348.18" font-family="Times,serif" font-size="14.00">exitCriteria</text>
</g>
<!-- http://purl.org/oseg/ontologies/OTRL#exitCriteria&#45;&gt;http://www.w3.org/2002/07/owl#DatatypeProperty -->
<g id="edge15" class="edge">
<title>http://purl.org/oseg/ontologies/OTRL#exitCriteria&#45;&gt;http://www.w3.org/2002/07/owl#DatatypeProperty</title>
<path fill="none" stroke="black" d="M544.67,-368.37C544.65,-368.52 544.64,-368.68 544.63,-368.84"/>
<polygon fill="black" stroke="black" points="541.35,-365.84 544.07,-376.07 548.33,-366.37 541.35,-365.84"/>
<text text-anchor="middle" x="540.15" y="-372.4" font-family="Times,serif" font-size="14.00">a</text>
</g>
<!-- http://purl.org/oseg/ontologies/OTRL#exitCriteria&#45;&gt;http://schema.org/Text -->
<g id="edge23" class="edge">
<title>http://purl.org/oseg/ontologies/OTRL#exitCriteria&#45;&gt;http://schema.org/Text</title>
<path fill="none" stroke="black" d="M565.84,-367.52C591.05,-387.32 634.61,-421.55 663.2,-444.01"/>
<polygon fill="black" stroke="black" points="661.17,-446.87 671.2,-450.3 665.5,-441.37 661.17,-446.87"/>
<text text-anchor="middle" x="635.52" y="-409.57" font-family="Times,serif" font-size="14.00">range</text>
</g>
<!-- http://purl.org/oseg/ontologies/OTRL#OTRL&#45;5 -->
<g id="node19" class="node">
<title>http://purl.org/oseg/ontologies/OTRL#OTRL&#45;5</title>
<ellipse fill="none" stroke="#e377c2" cx="432.92" cy="-174.53" rx="49.49" ry="16.03"/>
<text text-anchor="middle" x="432.92" y="-170.83" font-family="Times,serif" font-size="14.00">OTRL&#45;5</text>
</g>
<!-- http://purl.org/oseg/ontologies/OTRL#OTRL&#45;5&#45;&gt;http://www.w3.org/2002/07/owl#class -->
<g id="edge27" class="edge">
<title>http://purl.org/oseg/ontologies/OTRL#OTRL&#45;5&#45;&gt;http://www.w3.org/2002/07/owl#class</title>
<path fill="none" stroke="black" d="M385.24,-179.06C361.46,-181.32 332.34,-184.09 306.58,-186.54"/>
<polygon fill="black" stroke="black" points="306.14,-183.06 296.52,-187.49 306.81,-190.03 306.14,-183.06"/>
<text text-anchor="middle" x="341.41" y="-186.6" font-family="Times,serif" font-size="14.00">a</text>
</g>
<!-- http://purl.org/oseg/ontologies/OTRL#OTRL&#45;5&#45;&gt;http://purl.org/oseg/ontologies/OTRL#OTRL -->
<g id="edge5" class="edge">
<title>http://purl.org/oseg/ontologies/OTRL#OTRL&#45;5&#45;&gt;http://purl.org/oseg/ontologies/OTRL#OTRL</title>
<path fill="none" stroke="black" d="M413.95,-189.66C398.25,-202.18 375.79,-220.11 358.35,-234.01"/>
<polygon fill="black" stroke="black" points="355.88,-231.5 350.25,-240.48 360.25,-236.98 355.88,-231.5"/>
</g>
<!-- http://purl.org/oseg/ontologies/OTRL#goal -->
<g id="node20" class="node">
<title>http://purl.org/oseg/ontologies/OTRL#goal</title>
<ellipse fill="none" stroke="#e377c2" cx="545.88" cy="-433.28" rx="33.47" ry="16.03"/>
<text text-anchor="middle" x="545.88" y="-429.58" font-family="Times,serif" font-size="14.00">goal</text>
</g>
<!-- http://purl.org/oseg/ontologies/OTRL#goal&#45;&gt;http://www.w3.org/2002/07/owl#DatatypeProperty -->
<g id="edge28" class="edge">
<title>http://purl.org/oseg/ontologies/OTRL#goal&#45;&gt;http://www.w3.org/2002/07/owl#DatatypeProperty</title>
<path fill="none" stroke="black" d="M544.64,-416.66C544.63,-416.5 544.61,-416.34 544.6,-416.18"/>
<polygon fill="black" stroke="black" points="548.29,-418.6 544.06,-408.89 541.31,-419.13 548.29,-418.6"/>
<text text-anchor="middle" x="540.12" y="-405.22" font-family="Times,serif" font-size="14.00">a</text>
</g>
<!-- http://purl.org/oseg/ontologies/OTRL#goal&#45;&gt;http://schema.org/Text -->
<g id="edge17" class="edge">
<title>http://purl.org/oseg/ontologies/OTRL#goal&#45;&gt;http://schema.org/Text</title>
<path fill="none" stroke="black" d="M576.38,-440.17C591.77,-443.64 611.03,-447.99 629.35,-452.13"/>
<polygon fill="black" stroke="black" points="628.59,-455.54 639.12,-454.33 630.13,-448.71 628.59,-455.54"/>
<text text-anchor="middle" x="623.86" y="-434.95" font-family="Times,serif" font-size="14.00">range</text>
</g>
</g>
</svg>
