<?xml version="1.0" encoding="UTF-8" standalone="no"?>
<!DOCTYPE svg PUBLIC "-//W3C//DTD SVG 1.1//EN"
 "http://www.w3.org/Graphics/SVG/1.1/DTD/svg11.dtd">
<!-- Generated by graphviz version 2.43.0 (0)
 -->
<!-- Title: G Pages: 1 -->
<svg width="1072pt" height="845pt"
 viewBox="0.00 0.00 1071.76 845.00" xmlns="http://www.w3.org/2000/svg" xmlns:xlink="http://www.w3.org/1999/xlink">
<g id="graph0" class="graph" transform="scale(1 1) rotate(0) translate(4 841)">
<title>G</title>
<polygon fill="white" stroke="transparent" points="-4,4 -4,-841 1067.76,-841 1067.76,4 -4,4"/>
<!-- http://www.w3.org/2002/07/owl#class -->
<g id="node1" class="node">
<title>http://www.w3.org/2002/07/owl#class</title>
<ellipse fill="none" stroke="#1f77b4" cx="297.02" cy="-270.58" rx="57.05" ry="16.03"/>
<text text-anchor="middle" x="297.02" y="-266.88" font-family="Times,serif" font-size="14.00">owl:class</text>
</g>
<!-- http://www.w3.org/2002/07/owl#DatatypeProperty -->
<g id="node2" class="node">
<title>http://www.w3.org/2002/07/owl#DatatypeProperty</title>
<ellipse fill="none" stroke="#1f77b4" cx="930.95" cy="-820.31" rx="123.07" ry="16.03"/>
<text text-anchor="middle" x="930.95" y="-816.61" font-family="Times,serif" font-size="14.00">owl:DatatypeProperty</text>
</g>
<!-- http://purl.org/oseg/ontologies/OTRL#ODRL -->
<g id="node3" class="node">
<title>http://purl.org/oseg/ontologies/OTRL#ODRL</title>
<ellipse fill="none" stroke="#e377c2" cx="172.74" cy="-142.2" rx="41.94" ry="16.03"/>
<text text-anchor="middle" x="172.74" y="-138.5" font-family="Times,serif" font-size="14.00">ODRL</text>
</g>
<!-- http://purl.org/oseg/ontologies/OTRL#ODRL&#45;&gt;http://www.w3.org/2002/07/owl#class -->
<g id="edge14" class="edge">
<title>http://purl.org/oseg/ontologies/OTRL#ODRL&#45;&gt;http://www.w3.org/2002/07/owl#class</title>
<path fill="none" stroke="black" d="M187.49,-157.43C209.02,-179.68 249.26,-221.24 274.51,-247.32"/>
<polygon fill="black" stroke="black" points="272.05,-249.81 281.52,-254.56 277.08,-244.94 272.05,-249.81"/>
<text text-anchor="middle" x="226.5" y="-206.18" font-family="Times,serif" font-size="14.00">a</text>
</g>
<!-- http://www.w3.org/2002/07/owl#Ontology -->
<g id="node4" class="node">
<title>http://www.w3.org/2002/07/owl#Ontology</title>
<ellipse fill="none" stroke="#1f77b4" cx="734.32" cy="-403.47" rx="77.56" ry="16.03"/>
<text text-anchor="middle" x="734.32" y="-399.77" font-family="Times,serif" font-size="14.00">owl:Ontology</text>
</g>
<!-- http://purl.org/oseg/ontologies/OTRL#OTRL -->
<g id="node5" class="node">
<title>http://purl.org/oseg/ontologies/OTRL#OTRL</title>
<ellipse fill="none" stroke="#e377c2" cx="503.11" cy="-440.28" rx="39.7" ry="16.03"/>
<text text-anchor="middle" x="503.11" y="-436.58" font-family="Times,serif" font-size="14.00">OTRL</text>
</g>
<!-- http://purl.org/oseg/ontologies/OTRL#OTRL&#45;&gt;http://www.w3.org/2002/07/owl#class -->
<g id="edge46" class="edge">
<title>http://purl.org/oseg/ontologies/OTRL#OTRL&#45;&gt;http://www.w3.org/2002/07/owl#class</title>
<path fill="none" stroke="black" d="M485.18,-425.52C448.84,-395.59 366.34,-327.66 323.68,-292.53"/>
<polygon fill="black" stroke="black" points="325.89,-289.82 315.95,-286.16 321.44,-295.22 325.89,-289.82"/>
<text text-anchor="middle" x="399.93" y="-362.82" font-family="Times,serif" font-size="14.00">a</text>
</g>
<!-- http://purl.org/oseg/ontologies/OTRL#OTRL&#45;9 -->
<g id="node6" class="node">
<title>http://purl.org/oseg/ontologies/OTRL#OTRL&#45;9</title>
<ellipse fill="none" stroke="#e377c2" cx="424.54" cy="-271.35" rx="49.49" ry="16.03"/>
<text text-anchor="middle" x="424.54" y="-267.65" font-family="Times,serif" font-size="14.00">OTRL&#45;9</text>
</g>
<!-- http://purl.org/oseg/ontologies/OTRL#OTRL&#45;9&#45;&gt;http://www.w3.org/2002/07/owl#class -->
<g id="edge22" class="edge">
<title>http://purl.org/oseg/ontologies/OTRL#OTRL&#45;9&#45;&gt;http://www.w3.org/2002/07/owl#class</title>
<path fill="none" stroke="black" d="M374.87,-271.05C371.52,-271.03 368.11,-271.01 364.68,-270.99"/>
<polygon fill="black" stroke="black" points="364.42,-267.48 354.39,-270.92 364.37,-274.48 364.42,-267.48"/>
<text text-anchor="middle" x="365.28" y="-274.82" font-family="Times,serif" font-size="14.00">a</text>
</g>
<!-- http://purl.org/oseg/ontologies/OTRL#OTRL&#45;9&#45;&gt;http://purl.org/oseg/ontologies/OTRL#OTRL -->
<g id="edge28" class="edge">
<title>http://purl.org/oseg/ontologies/OTRL#OTRL&#45;9&#45;&gt;http://purl.org/oseg/ontologies/OTRL#OTRL</title>
<path fill="none" stroke="black" d="M432.08,-287.55C445.8,-317.06 474.98,-379.79 491.35,-414.98"/>
<polygon fill="black" stroke="black" points="488.21,-416.54 495.6,-424.13 494.56,-413.59 488.21,-416.54"/>
</g>
<!-- http://purl.org/oseg/ontologies/OTRL#documentationDescription -->
<g id="node7" class="node">
<title>http://purl.org/oseg/ontologies/OTRL#documentationDescription</title>
<ellipse fill="none" stroke="#e377c2" cx="634.77" cy="-741" rx="120.83" ry="16.03"/>
<text text-anchor="middle" x="634.77" y="-737.3" font-family="Times,serif" font-size="14.00">documentationDesc...</text>
</g>
<!-- http://purl.org/oseg/ontologies/OTRL#documentationDescription&#45;&gt;http://www.w3.org/2002/07/owl#DatatypeProperty -->
<g id="edge2" class="edge">
<title>http://purl.org/oseg/ontologies/OTRL#documentationDescription&#45;&gt;http://www.w3.org/2002/07/owl#DatatypeProperty</title>
<path fill="none" stroke="black" d="M689.09,-755.55C739.14,-768.95 813.46,-788.85 866.49,-803.05"/>
<polygon fill="black" stroke="black" points="865.9,-806.51 876.47,-805.72 867.71,-799.75 865.9,-806.51"/>
<text text-anchor="middle" x="773.29" y="-783.1" font-family="Times,serif" font-size="14.00">a</text>
</g>
<!-- http://purl.org/oseg/ontologies/OTRL#documentationDescription&#45;&gt;http://purl.org/oseg/ontologies/OTRL#OTRL -->
<g id="edge20" class="edge">
<title>http://purl.org/oseg/ontologies/OTRL#documentationDescription&#45;&gt;http://purl.org/oseg/ontologies/OTRL#OTRL</title>
<path fill="none" stroke="black" d="M627.5,-724.41C605.69,-674.59 540.68,-526.08 514.36,-465.97"/>
<polygon fill="black" stroke="black" points="517.41,-464.21 510.2,-456.46 511,-467.02 517.41,-464.21"/>
<text text-anchor="middle" x="544.43" y="-598.99" font-family="Times,serif" font-size="14.00">domain</text>
</g>
<!-- http://schema.org/Text -->
<g id="node10" class="node">
<title>http://schema.org/Text</title>
<ellipse fill="none" stroke="#e377c2" cx="924.27" cy="-718.55" rx="74.91" ry="16.03"/>
<text text-anchor="middle" x="924.27" y="-714.85" font-family="Times,serif" font-size="14.00">schema:Text</text>
</g>
<!-- http://purl.org/oseg/ontologies/OTRL#documentationDescription&#45;&gt;http://schema.org/Text -->
<g id="edge35" class="edge">
<title>http://purl.org/oseg/ontologies/OTRL#documentationDescription&#45;&gt;http://schema.org/Text</title>
<path fill="none" stroke="black" d="M739.69,-732.87C773.86,-730.22 811.24,-727.32 843.37,-724.83"/>
<polygon fill="black" stroke="black" points="843.91,-728.3 853.61,-724.03 843.37,-721.32 843.91,-728.3"/>
<text text-anchor="middle" x="812.53" y="-732.65" font-family="Times,serif" font-size="14.00">range</text>
</g>
<!-- http://purl.org/oseg/ontologies/OTRL#OTRL&#45;1 -->
<g id="node8" class="node">
<title>http://purl.org/oseg/ontologies/OTRL#OTRL&#45;1</title>
<ellipse fill="none" stroke="#e377c2" cx="316.97" cy="-411.86" rx="49.49" ry="16.03"/>
<text text-anchor="middle" x="316.97" y="-408.16" font-family="Times,serif" font-size="14.00">OTRL&#45;1</text>
</g>
<!-- http://purl.org/oseg/ontologies/OTRL#OTRL&#45;1&#45;&gt;http://www.w3.org/2002/07/owl#class -->
<g id="edge26" class="edge">
<title>http://purl.org/oseg/ontologies/OTRL#OTRL&#45;1&#45;&gt;http://www.w3.org/2002/07/owl#class</title>
<path fill="none" stroke="black" d="M314.65,-395.38C311.24,-371.24 304.85,-326.01 300.77,-297.14"/>
<polygon fill="black" stroke="black" points="304.2,-296.37 299.34,-286.96 297.27,-297.35 304.2,-296.37"/>
<text text-anchor="middle" x="303.21" y="-350.06" font-family="Times,serif" font-size="14.00">a</text>
</g>
<!-- http://purl.org/oseg/ontologies/OTRL#OTRL&#45;1&#45;&gt;http://purl.org/oseg/ontologies/OTRL#OTRL -->
<g id="edge44" class="edge">
<title>http://purl.org/oseg/ontologies/OTRL#OTRL&#45;1&#45;&gt;http://purl.org/oseg/ontologies/OTRL#OTRL</title>
<path fill="none" stroke="black" d="M362.03,-418.74C390.4,-423.07 426.95,-428.65 455.75,-433.05"/>
<polygon fill="black" stroke="black" points="455.56,-436.56 465.98,-434.61 456.62,-429.64 455.56,-436.56"/>
</g>
<!-- http://purl.org/oseg/ontologies/OTRL#ODRL&#45;4 -->
<g id="node9" class="node">
<title>http://purl.org/oseg/ontologies/OTRL#ODRL&#45;4</title>
<ellipse fill="none" stroke="#e377c2" cx="357.1" cy="-59.39" rx="50.82" ry="16.03"/>
<text text-anchor="middle" x="357.1" y="-55.69" font-family="Times,serif" font-size="14.00">ODRL&#45;4</text>
</g>
<!-- http://purl.org/oseg/ontologies/OTRL#ODRL&#45;4&#45;&gt;http://www.w3.org/2002/07/owl#class -->
<g id="edge4" class="edge">
<title>http://purl.org/oseg/ontologies/OTRL#ODRL&#45;4&#45;&gt;http://www.w3.org/2002/07/owl#class</title>
<path fill="none" stroke="black" d="M352.48,-75.61C342.13,-112 316.98,-200.42 304.42,-244.58"/>
<polygon fill="black" stroke="black" points="301.02,-243.72 301.65,-254.3 307.76,-245.64 301.02,-243.72"/>
<text text-anchor="middle" x="323.95" y="-163.9" font-family="Times,serif" font-size="14.00">a</text>
</g>
<!-- http://purl.org/oseg/ontologies/OTRL#ODRL&#45;4&#45;&gt;http://purl.org/oseg/ontologies/OTRL#ODRL -->
<g id="edge12" class="edge">
<title>http://purl.org/oseg/ontologies/OTRL#ODRL&#45;4&#45;&gt;http://purl.org/oseg/ontologies/OTRL#ODRL</title>
<path fill="none" stroke="black" d="M327.48,-72.69C295.38,-87.11 244.12,-110.14 209.48,-125.7"/>
<polygon fill="black" stroke="black" points="207.87,-122.58 200.18,-129.87 210.74,-128.97 207.87,-122.58"/>
</g>
<!-- http://purl.org/oseg/ontologies/OTRL#hardwareDescription -->
<g id="node11" class="node">
<title>http://purl.org/oseg/ontologies/OTRL#hardwareDescription</title>
<ellipse fill="none" stroke="#e377c2" cx="814.5" cy="-505.76" rx="118.17" ry="16.03"/>
<text text-anchor="middle" x="814.5" y="-502.06" font-family="Times,serif" font-size="14.00">hardwareDescription</text>
</g>
<!-- http://purl.org/oseg/ontologies/OTRL#hardwareDescription&#45;&gt;http://www.w3.org/2002/07/owl#DatatypeProperty -->
<g id="edge29" class="edge">
<title>http://purl.org/oseg/ontologies/OTRL#hardwareDescription&#45;&gt;http://www.w3.org/2002/07/owl#DatatypeProperty</title>
<path fill="none" stroke="black" d="M820.6,-522.23C839.66,-573.72 898.23,-731.94 921.39,-794.48"/>
<polygon fill="black" stroke="black" points="918.16,-795.84 924.91,-804 924.72,-793.41 918.16,-795.84"/>
<text text-anchor="middle" x="866.49" y="-662.15" font-family="Times,serif" font-size="14.00">a</text>
</g>
<!-- http://purl.org/oseg/ontologies/OTRL#hardwareDescription&#45;&gt;http://purl.org/oseg/ontologies/OTRL#OTRL -->
<g id="edge13" class="edge">
<title>http://purl.org/oseg/ontologies/OTRL#hardwareDescription&#45;&gt;http://purl.org/oseg/ontologies/OTRL#OTRL</title>
<path fill="none" stroke="black" d="M749.6,-492.11C689.45,-479.46 601.49,-460.97 548.53,-449.83"/>
<polygon fill="black" stroke="black" points="548.93,-446.34 538.42,-447.7 547.49,-453.19 548.93,-446.34"/>
<text text-anchor="middle" x="622.57" y="-474.77" font-family="Times,serif" font-size="14.00">domain</text>
</g>
<!-- http://purl.org/oseg/ontologies/OTRL#hardwareDescription&#45;&gt;http://schema.org/Text -->
<g id="edge18" class="edge">
<title>http://purl.org/oseg/ontologies/OTRL#hardwareDescription&#45;&gt;http://schema.org/Text</title>
<path fill="none" stroke="black" d="M822.93,-522.1C841.97,-559.01 888.39,-649 911.19,-693.2"/>
<polygon fill="black" stroke="black" points="908.12,-694.87 915.81,-702.15 914.34,-691.66 908.12,-694.87"/>
<text text-anchor="middle" x="846.06" y="-611.45" font-family="Times,serif" font-size="14.00">range</text>
</g>
<!-- http://purl.org/oseg/ontologies/OTRL#OTRL&#45;3 -->
<g id="node12" class="node">
<title>http://purl.org/oseg/ontologies/OTRL#OTRL&#45;3</title>
<ellipse fill="none" stroke="#e377c2" cx="481.16" cy="-211.44" rx="49.49" ry="16.03"/>
<text text-anchor="middle" x="481.16" y="-207.74" font-family="Times,serif" font-size="14.00">OTRL&#45;3</text>
</g>
<!-- http://purl.org/oseg/ontologies/OTRL#OTRL&#45;3&#45;&gt;http://www.w3.org/2002/07/owl#class -->
<g id="edge6" class="edge">
<title>http://purl.org/oseg/ontologies/OTRL#OTRL&#45;3&#45;&gt;http://www.w3.org/2002/07/owl#class</title>
<path fill="none" stroke="black" d="M445.65,-222.85C417.08,-232.02 376.64,-245.01 345.15,-255.12"/>
<polygon fill="black" stroke="black" points="343.72,-251.9 335.27,-258.29 345.86,-258.57 343.72,-251.9"/>
<text text-anchor="middle" x="390.9" y="-242.78" font-family="Times,serif" font-size="14.00">a</text>
</g>
<!-- http://purl.org/oseg/ontologies/OTRL#OTRL&#45;3&#45;&gt;http://purl.org/oseg/ontologies/OTRL#OTRL -->
<g id="edge37" class="edge">
<title>http://purl.org/oseg/ontologies/OTRL#OTRL&#45;3&#45;&gt;http://purl.org/oseg/ontologies/OTRL#OTRL</title>
<path fill="none" stroke="black" d="M482.74,-227.9C486.49,-267.07 496,-366.12 500.57,-413.81"/>
<polygon fill="black" stroke="black" points="497.11,-414.35 501.55,-423.97 504.08,-413.68 497.11,-414.35"/>
</g>
<!-- http://purl.org/oseg/ontologies/OTRL#ODRL&#45;1 -->
<g id="node13" class="node">
<title>http://purl.org/oseg/ontologies/OTRL#ODRL&#45;1</title>
<ellipse fill="none" stroke="#e377c2" cx="78.32" cy="-300.12" rx="50.82" ry="16.03"/>
<text text-anchor="middle" x="78.32" y="-296.42" font-family="Times,serif" font-size="14.00">ODRL&#45;1</text>
</g>
<!-- http://purl.org/oseg/ontologies/OTRL#ODRL&#45;1&#45;&gt;http://www.w3.org/2002/07/owl#class -->
<g id="edge8" class="edge">
<title>http://purl.org/oseg/ontologies/OTRL#ODRL&#45;1&#45;&gt;http://www.w3.org/2002/07/owl#class</title>
<path fill="none" stroke="black" d="M125.24,-293.78C157.34,-289.44 200.23,-283.65 235.13,-278.94"/>
<polygon fill="black" stroke="black" points="235.77,-282.38 245.21,-277.58 234.83,-275.45 235.77,-282.38"/>
<text text-anchor="middle" x="175.68" y="-290.16" font-family="Times,serif" font-size="14.00">a</text>
</g>
<!-- http://purl.org/oseg/ontologies/OTRL#ODRL&#45;1&#45;&gt;http://purl.org/oseg/ontologies/OTRL#ODRL -->
<g id="edge1" class="edge">
<title>http://purl.org/oseg/ontologies/OTRL#ODRL&#45;1&#45;&gt;http://purl.org/oseg/ontologies/OTRL#ODRL</title>
<path fill="none" stroke="black" d="M87.9,-284.11C104.37,-256.56 138.18,-200 157.78,-167.22"/>
<polygon fill="black" stroke="black" points="161.02,-168.63 163.14,-158.25 155.01,-165.04 161.02,-168.63"/>
</g>
<!-- http://purl.org/oseg/ontologies/OTRL#OTRL&#45;6 -->
<g id="node14" class="node">
<title>http://purl.org/oseg/ontologies/OTRL#OTRL&#45;6</title>
<ellipse fill="none" stroke="#e377c2" cx="531.59" cy="-311.77" rx="49.49" ry="16.03"/>
<text text-anchor="middle" x="531.59" y="-308.07" font-family="Times,serif" font-size="14.00">OTRL&#45;6</text>
</g>
<!-- http://purl.org/oseg/ontologies/OTRL#OTRL&#45;6&#45;&gt;http://www.w3.org/2002/07/owl#class -->
<g id="edge10" class="edge">
<title>http://purl.org/oseg/ontologies/OTRL#OTRL&#45;6&#45;&gt;http://www.w3.org/2002/07/owl#class</title>
<path fill="none" stroke="black" d="M487.75,-304.07C450.51,-297.53 396.74,-288.09 355.77,-280.89"/>
<polygon fill="black" stroke="black" points="356.37,-277.45 345.92,-279.16 355.16,-284.34 356.37,-277.45"/>
<text text-anchor="middle" x="417.26" y="-296.28" font-family="Times,serif" font-size="14.00">a</text>
</g>
<!-- http://purl.org/oseg/ontologies/OTRL#OTRL&#45;6&#45;&gt;http://purl.org/oseg/ontologies/OTRL#OTRL -->
<g id="edge16" class="edge">
<title>http://purl.org/oseg/ontologies/OTRL#OTRL&#45;6&#45;&gt;http://purl.org/oseg/ontologies/OTRL#OTRL</title>
<path fill="none" stroke="black" d="M527.99,-328.04C523.2,-349.65 514.68,-388.08 508.97,-413.87"/>
<polygon fill="black" stroke="black" points="505.53,-413.21 506.78,-423.73 512.36,-414.72 505.53,-413.21"/>
</g>
<!-- http://purl.org/oseg/ontologies/OTRL#ODRL&#45;5 -->
<g id="node15" class="node">
<title>http://purl.org/oseg/ontologies/OTRL#ODRL&#45;5</title>
<ellipse fill="none" stroke="#e377c2" cx="146.34" cy="-58.66" rx="50.82" ry="16.03"/>
<text text-anchor="middle" x="146.34" y="-54.96" font-family="Times,serif" font-size="14.00">ODRL&#45;5</text>
</g>
<!-- http://purl.org/oseg/ontologies/OTRL#ODRL&#45;5&#45;&gt;http://www.w3.org/2002/07/owl#class -->
<g id="edge11" class="edge">
<title>http://purl.org/oseg/ontologies/OTRL#ODRL&#45;5&#45;&gt;http://www.w3.org/2002/07/owl#class</title>
<path fill="none" stroke="black" d="M157.67,-74.59C183.79,-111.33 248.42,-202.22 279.62,-246.1"/>
<polygon fill="black" stroke="black" points="276.92,-248.34 285.57,-254.46 282.62,-244.29 276.92,-248.34"/>
<text text-anchor="middle" x="214.14" y="-164.14" font-family="Times,serif" font-size="14.00">a</text>
</g>
<!-- http://purl.org/oseg/ontologies/OTRL#ODRL&#45;5&#45;&gt;http://purl.org/oseg/ontologies/OTRL#ODRL -->
<g id="edge3" class="edge">
<title>http://purl.org/oseg/ontologies/OTRL#ODRL&#45;5&#45;&gt;http://purl.org/oseg/ontologies/OTRL#ODRL</title>
<path fill="none" stroke="black" d="M151.56,-75.17C155.27,-86.91 160.33,-102.93 164.58,-116.36"/>
<polygon fill="black" stroke="black" points="161.28,-117.53 167.63,-126.01 167.95,-115.43 161.28,-117.53"/>
</g>
<!-- http://purl.org/oseg/ontologies/OTRL#softwareDescription -->
<g id="node16" class="node">
<title>http://purl.org/oseg/ontologies/OTRL#softwareDescription</title>
<ellipse fill="none" stroke="#e377c2" cx="690.21" cy="-676" rx="113.69" ry="16.03"/>
<text text-anchor="middle" x="690.21" y="-672.3" font-family="Times,serif" font-size="14.00">softwareDescription</text>
</g>
<!-- http://purl.org/oseg/ontologies/OTRL#softwareDescription&#45;&gt;http://www.w3.org/2002/07/owl#DatatypeProperty -->
<g id="edge32" class="edge">
<title>http://purl.org/oseg/ontologies/OTRL#softwareDescription&#45;&gt;http://www.w3.org/2002/07/owl#DatatypeProperty</title>
<path fill="none" stroke="black" d="M716.89,-691.99C760.45,-718.11 846.86,-769.91 895.52,-799.07"/>
<polygon fill="black" stroke="black" points="893.77,-802.1 904.15,-804.24 897.37,-796.1 893.77,-802.1"/>
<text text-anchor="middle" x="801.7" y="-749.33" font-family="Times,serif" font-size="14.00">a</text>
</g>
<!-- http://purl.org/oseg/ontologies/OTRL#softwareDescription&#45;&gt;http://purl.org/oseg/ontologies/OTRL#OTRL -->
<g id="edge40" class="edge">
<title>http://purl.org/oseg/ontologies/OTRL#softwareDescription&#45;&gt;http://purl.org/oseg/ontologies/OTRL#OTRL</title>
<path fill="none" stroke="black" d="M677.35,-659.8C644.95,-618.98 559.85,-511.77 521.88,-463.92"/>
<polygon fill="black" stroke="black" points="524.53,-461.63 515.57,-455.97 519.04,-465.98 524.53,-461.63"/>
<text text-anchor="middle" x="573.11" y="-565.66" font-family="Times,serif" font-size="14.00">domain</text>
</g>
<!-- http://purl.org/oseg/ontologies/OTRL#softwareDescription&#45;&gt;http://schema.org/Text -->
<g id="edge21" class="edge">
<title>http://purl.org/oseg/ontologies/OTRL#softwareDescription&#45;&gt;http://schema.org/Text</title>
<path fill="none" stroke="black" d="M760.75,-688.83C791.11,-694.34 826.44,-700.77 856.49,-706.23"/>
<polygon fill="black" stroke="black" points="855.99,-709.7 866.46,-708.04 857.24,-702.81 855.99,-709.7"/>
<text text-anchor="middle" x="787.62" y="-701.33" font-family="Times,serif" font-size="14.00">range</text>
</g>
<!-- http://purl.org/oseg/ontologies/OTRL#OTRL&#45;7 -->
<g id="node17" class="node">
<title>http://purl.org/oseg/ontologies/OTRL#OTRL&#45;7</title>
<ellipse fill="none" stroke="#e377c2" cx="469.46" cy="-488.54" rx="49.49" ry="16.03"/>
<text text-anchor="middle" x="469.46" y="-484.84" font-family="Times,serif" font-size="14.00">OTRL&#45;7</text>
</g>
<!-- http://purl.org/oseg/ontologies/OTRL#OTRL&#45;7&#45;&gt;http://www.w3.org/2002/07/owl#class -->
<g id="edge33" class="edge">
<title>http://purl.org/oseg/ontologies/OTRL#OTRL&#45;7&#45;&gt;http://www.w3.org/2002/07/owl#class</title>
<path fill="none" stroke="black" d="M456.78,-472.52C426.82,-434.65 351.52,-339.47 316.06,-294.64"/>
<polygon fill="black" stroke="black" points="318.67,-292.3 309.72,-286.63 313.18,-296.64 318.67,-292.3"/>
<text text-anchor="middle" x="381.92" y="-387.38" font-family="Times,serif" font-size="14.00">a</text>
</g>
<!-- http://purl.org/oseg/ontologies/OTRL#OTRL&#45;7&#45;&gt;http://purl.org/oseg/ontologies/OTRL#OTRL -->
<g id="edge7" class="edge">
<title>http://purl.org/oseg/ontologies/OTRL#OTRL&#45;7&#45;&gt;http://purl.org/oseg/ontologies/OTRL#OTRL</title>
<path fill="none" stroke="black" d="M480.67,-472.47C482.44,-469.92 484.32,-467.24 486.19,-464.55"/>
<polygon fill="black" stroke="black" points="489.22,-466.32 492.07,-456.12 483.48,-462.32 489.22,-466.32"/>
</g>
<!-- http://purl.org/oseg/ontologies/OTRL#ODRL&#45;3 -->
<g id="node18" class="node">
<title>http://purl.org/oseg/ontologies/OTRL#ODRL&#45;3</title>
<ellipse fill="none" stroke="#e377c2" cx="70.11" cy="-148.65" rx="50.82" ry="16.03"/>
<text text-anchor="middle" x="70.11" y="-144.95" font-family="Times,serif" font-size="14.00">ODRL&#45;3</text>
</g>
<!-- http://purl.org/oseg/ontologies/OTRL#ODRL&#45;3&#45;&gt;http://www.w3.org/2002/07/owl#class -->
<g id="edge34" class="edge">
<title>http://purl.org/oseg/ontologies/OTRL#ODRL&#45;3&#45;&gt;http://www.w3.org/2002/07/owl#class</title>
<path fill="none" stroke="black" d="M96.14,-162.64C136.76,-184.46 215.33,-226.68 261.24,-251.35"/>
<polygon fill="black" stroke="black" points="259.78,-254.54 270.25,-256.19 263.09,-248.37 259.78,-254.54"/>
<text text-anchor="middle" x="174.19" y="-210.79" font-family="Times,serif" font-size="14.00">a</text>
</g>
<!-- http://purl.org/oseg/ontologies/OTRL#ODRL&#45;3&#45;&gt;http://purl.org/oseg/ontologies/OTRL#ODRL -->
<g id="edge42" class="edge">
<title>http://purl.org/oseg/ontologies/OTRL#ODRL&#45;3&#45;&gt;http://purl.org/oseg/ontologies/OTRL#ODRL</title>
<path fill="none" stroke="black" d="M120.22,-145.5C120.58,-145.48 120.93,-145.46 121.28,-145.43"/>
<polygon fill="black" stroke="black" points="121.7,-148.91 131.46,-144.79 121.26,-141.93 121.7,-148.91"/>
</g>
<!-- http://purl.org/oseg/ontologies/OTRL#ODRL&#45;0 -->
<g id="node19" class="node">
<title>http://purl.org/oseg/ontologies/OTRL#ODRL&#45;0</title>
<ellipse fill="none" stroke="#e377c2" cx="51.18" cy="-232.44" rx="50.82" ry="16.03"/>
<text text-anchor="middle" x="51.18" y="-228.74" font-family="Times,serif" font-size="14.00">ODRL&#45;0</text>
</g>
<!-- http://purl.org/oseg/ontologies/OTRL#ODRL&#45;0&#45;&gt;http://www.w3.org/2002/07/owl#class -->
<g id="edge36" class="edge">
<title>http://purl.org/oseg/ontologies/OTRL#ODRL&#45;0&#45;&gt;http://www.w3.org/2002/07/owl#class</title>
<path fill="none" stroke="black" d="M97.13,-239.57C136.5,-245.68 193.5,-254.52 236.57,-261.2"/>
<polygon fill="black" stroke="black" points="236.22,-264.69 246.64,-262.76 237.29,-257.77 236.22,-264.69"/>
<text text-anchor="middle" x="162.35" y="-254.18" font-family="Times,serif" font-size="14.00">a</text>
</g>
<!-- http://purl.org/oseg/ontologies/OTRL#ODRL&#45;0&#45;&gt;http://purl.org/oseg/ontologies/OTRL#ODRL -->
<g id="edge9" class="edge">
<title>http://purl.org/oseg/ontologies/OTRL#ODRL&#45;0&#45;&gt;http://purl.org/oseg/ontologies/OTRL#ODRL</title>
<path fill="none" stroke="black" d="M71.52,-217.34C91.66,-202.39 122.64,-179.39 145.02,-162.78"/>
<polygon fill="black" stroke="black" points="147.19,-165.53 153.13,-156.76 143.02,-159.91 147.19,-165.53"/>
</g>
<!-- http://purl.org/oseg/ontologies/OTRL#OTRL&#45;2 -->
<g id="node20" class="node">
<title>http://purl.org/oseg/ontologies/OTRL#OTRL&#45;2</title>
<ellipse fill="none" stroke="#e377c2" cx="362.17" cy="-480.27" rx="49.49" ry="16.03"/>
<text text-anchor="middle" x="362.17" y="-476.57" font-family="Times,serif" font-size="14.00">OTRL&#45;2</text>
</g>
<!-- http://purl.org/oseg/ontologies/OTRL#OTRL&#45;2&#45;&gt;http://www.w3.org/2002/07/owl#class -->
<g id="edge15" class="edge">
<title>http://purl.org/oseg/ontologies/OTRL#OTRL&#45;2&#45;&gt;http://www.w3.org/2002/07/owl#class</title>
<path fill="none" stroke="black" d="M357.06,-463.81C345.78,-427.52 318.71,-340.38 305.11,-296.6"/>
<polygon fill="black" stroke="black" points="308.42,-295.47 302.11,-286.95 301.74,-297.54 308.42,-295.47"/>
<text text-anchor="middle" x="326.58" y="-384.01" font-family="Times,serif" font-size="14.00">a</text>
</g>
<!-- http://purl.org/oseg/ontologies/OTRL#OTRL&#45;2&#45;&gt;http://purl.org/oseg/ontologies/OTRL#OTRL -->
<g id="edge30" class="edge">
<title>http://purl.org/oseg/ontologies/OTRL#OTRL&#45;2&#45;&gt;http://purl.org/oseg/ontologies/OTRL#OTRL</title>
<path fill="none" stroke="black" d="M399.94,-469.55C418.69,-464.23 441.4,-457.79 460.74,-452.3"/>
<polygon fill="black" stroke="black" points="461.84,-455.63 470.51,-449.53 459.93,-448.89 461.84,-455.63"/>
</g>
<!-- http://purl.org/oseg/ontologies/OTRL#OTRL&#45;8 -->
<g id="node21" class="node">
<title>http://purl.org/oseg/ontologies/OTRL#OTRL&#45;8</title>
<ellipse fill="none" stroke="#e377c2" cx="245.2" cy="-466.02" rx="49.49" ry="16.03"/>
<text text-anchor="middle" x="245.2" y="-462.32" font-family="Times,serif" font-size="14.00">OTRL&#45;8</text>
</g>
<!-- http://purl.org/oseg/ontologies/OTRL#OTRL&#45;8&#45;&gt;http://www.w3.org/2002/07/owl#class -->
<g id="edge38" class="edge">
<title>http://purl.org/oseg/ontologies/OTRL#OTRL&#45;8&#45;&gt;http://www.w3.org/2002/07/owl#class</title>
<path fill="none" stroke="black" d="M249.53,-449.69C258.5,-415.85 279.2,-337.79 290.07,-296.8"/>
<polygon fill="black" stroke="black" points="293.49,-297.56 292.67,-287 286.72,-295.76 293.49,-297.56"/>
<text text-anchor="middle" x="265.3" y="-377.05" font-family="Times,serif" font-size="14.00">a</text>
</g>
<!-- http://purl.org/oseg/ontologies/OTRL#OTRL&#45;8&#45;&gt;http://purl.org/oseg/ontologies/OTRL#OTRL -->
<g id="edge23" class="edge">
<title>http://purl.org/oseg/ontologies/OTRL#OTRL&#45;8&#45;&gt;http://purl.org/oseg/ontologies/OTRL#OTRL</title>
<path fill="none" stroke="black" d="M292.81,-461.27C338.81,-456.68 408.17,-449.75 454.51,-445.13"/>
<polygon fill="black" stroke="black" points="455.01,-448.6 464.61,-444.12 454.31,-441.63 455.01,-448.6"/>
</g>
<!-- http://purl.org/oseg/ontologies/OTRL#OTRL&#45;4 -->
<g id="node22" class="node">
<title>http://purl.org/oseg/ontologies/OTRL#OTRL&#45;4</title>
<ellipse fill="none" stroke="#e377c2" cx="558.34" cy="-254.34" rx="49.49" ry="16.03"/>
<text text-anchor="middle" x="558.34" y="-250.64" font-family="Times,serif" font-size="14.00">OTRL&#45;4</text>
</g>
<!-- http://purl.org/oseg/ontologies/OTRL#OTRL&#45;4&#45;&gt;http://www.w3.org/2002/07/owl#class -->
<g id="edge39" class="edge">
<title>http://purl.org/oseg/ontologies/OTRL#OTRL&#45;4&#45;&gt;http://www.w3.org/2002/07/owl#class</title>
<path fill="none" stroke="black" d="M509.5,-257.38C468.29,-259.94 408.93,-263.63 363.42,-266.45"/>
<polygon fill="black" stroke="black" points="363.11,-262.96 353.35,-267.08 363.54,-269.95 363.11,-262.96"/>
<text text-anchor="middle" x="431.96" y="-250.72" font-family="Times,serif" font-size="14.00">a</text>
</g>
<!-- http://purl.org/oseg/ontologies/OTRL#OTRL&#45;4&#45;&gt;http://purl.org/oseg/ontologies/OTRL#OTRL -->
<g id="edge24" class="edge">
<title>http://purl.org/oseg/ontologies/OTRL#OTRL&#45;4&#45;&gt;http://purl.org/oseg/ontologies/OTRL#OTRL</title>
<path fill="none" stroke="black" d="M553.44,-270.84C543.84,-303.18 522.47,-375.1 510.91,-414.04"/>
<polygon fill="black" stroke="black" points="507.42,-413.5 507.92,-424.08 514.13,-415.49 507.42,-413.5"/>
</g>
<!-- http://purl.org/oseg/ontologies/OTRL#OTRL&#45;5 -->
<g id="node23" class="node">
<title>http://purl.org/oseg/ontologies/OTRL#OTRL&#45;5</title>
<ellipse fill="none" stroke="#e377c2" cx="309.62" cy="-525.48" rx="49.49" ry="16.03"/>
<text text-anchor="middle" x="309.62" y="-521.78" font-family="Times,serif" font-size="14.00">OTRL&#45;5</text>
</g>
<!-- http://purl.org/oseg/ontologies/OTRL#OTRL&#45;5&#45;&gt;http://www.w3.org/2002/07/owl#class -->
<g id="edge41" class="edge">
<title>http://purl.org/oseg/ontologies/OTRL#OTRL&#45;5&#45;&gt;http://www.w3.org/2002/07/owl#class</title>
<path fill="none" stroke="black" d="M308.81,-509.15C306.69,-466.27 300.96,-350.16 298.35,-297.36"/>
<polygon fill="black" stroke="black" points="301.83,-296.92 297.84,-287.1 294.84,-297.26 301.83,-296.92"/>
<text text-anchor="middle" x="299.08" y="-392.05" font-family="Times,serif" font-size="14.00">a</text>
</g>
<!-- http://purl.org/oseg/ontologies/OTRL#OTRL&#45;5&#45;&gt;http://purl.org/oseg/ontologies/OTRL#OTRL -->
<g id="edge27" class="edge">
<title>http://purl.org/oseg/ontologies/OTRL#OTRL&#45;5&#45;&gt;http://purl.org/oseg/ontologies/OTRL#OTRL</title>
<path fill="none" stroke="black" d="M339.43,-512.35C373.68,-497.27 429.9,-472.52 466.71,-456.31"/>
<polygon fill="black" stroke="black" points="468.34,-459.42 476.08,-452.18 465.52,-453.01 468.34,-459.42"/>
</g>
<!-- http://purl.org/oseg/ontologies/OTRL#exitCriteria -->
<g id="node24" class="node">
<title>http://purl.org/oseg/ontologies/OTRL#exitCriteria</title>
<ellipse fill="none" stroke="#e377c2" cx="735.52" cy="-589.37" rx="70.01" ry="16.03"/>
<text text-anchor="middle" x="735.52" y="-585.67" font-family="Times,serif" font-size="14.00">exitCriteria</text>
</g>
<!-- http://purl.org/oseg/ontologies/OTRL#exitCriteria&#45;&gt;http://www.w3.org/2002/07/owl#DatatypeProperty -->
<g id="edge17" class="edge">
<title>http://purl.org/oseg/ontologies/OTRL#exitCriteria&#45;&gt;http://www.w3.org/2002/07/owl#DatatypeProperty</title>
<path fill="none" stroke="black" d="M749.26,-605.61C783.11,-645.61 870.65,-749.05 910.57,-796.22"/>
<polygon fill="black" stroke="black" points="908.09,-798.71 917.22,-804.09 913.43,-794.19 908.09,-798.71"/>
<text text-anchor="middle" x="825.41" y="-704.72" font-family="Times,serif" font-size="14.00">a</text>
</g>
<!-- http://purl.org/oseg/ontologies/OTRL#exitCriteria&#45;&gt;http://purl.org/oseg/ontologies/OTRL#OTRL -->
<g id="edge31" class="edge">
<title>http://purl.org/oseg/ontologies/OTRL#exitCriteria&#45;&gt;http://purl.org/oseg/ontologies/OTRL#OTRL</title>
<path fill="none" stroke="black" d="M711.52,-573.98C668.81,-546.58 579.72,-489.42 533.07,-459.5"/>
<polygon fill="black" stroke="black" points="534.91,-456.52 524.6,-454.06 531.13,-462.41 534.91,-456.52"/>
<text text-anchor="middle" x="595.79" y="-520.54" font-family="Times,serif" font-size="14.00">domain</text>
</g>
<!-- http://purl.org/oseg/ontologies/OTRL#exitCriteria&#45;&gt;http://schema.org/Text -->
<g id="edge5" class="edge">
<title>http://purl.org/oseg/ontologies/OTRL#exitCriteria&#45;&gt;http://schema.org/Text</title>
<path fill="none" stroke="black" d="M758.28,-604.95C791.87,-627.94 854.81,-671.02 892.8,-697.01"/>
<polygon fill="black" stroke="black" points="891.19,-700.16 901.42,-702.92 895.15,-694.38 891.19,-700.16"/>
<text text-anchor="middle" x="804.54" y="-639.78" font-family="Times,serif" font-size="14.00">range</text>
</g>
<!-- http://purl.org/oseg/ontologies/OTRL#ODRL&#45;2 -->
<g id="node25" class="node">
<title>http://purl.org/oseg/ontologies/OTRL#ODRL&#45;2</title>
<ellipse fill="none" stroke="#e377c2" cx="244.98" cy="-16.32" rx="50.82" ry="16.03"/>
<text text-anchor="middle" x="244.98" y="-12.62" font-family="Times,serif" font-size="14.00">ODRL&#45;2</text>
</g>
<!-- http://purl.org/oseg/ontologies/OTRL#ODRL&#45;2&#45;&gt;http://www.w3.org/2002/07/owl#class -->
<g id="edge19" class="edge">
<title>http://purl.org/oseg/ontologies/OTRL#ODRL&#45;2&#45;&gt;http://www.w3.org/2002/07/owl#class</title>
<path fill="none" stroke="black" d="M248.32,-32.61C257.09,-75.47 280.87,-191.68 291.62,-244.19"/>
<polygon fill="black" stroke="black" points="288.21,-245 293.65,-254.09 295.07,-243.59 288.21,-245"/>
<text text-anchor="middle" x="265.47" y="-142.2" font-family="Times,serif" font-size="14.00">a</text>
</g>
<!-- http://purl.org/oseg/ontologies/OTRL#ODRL&#45;2&#45;&gt;http://purl.org/oseg/ontologies/OTRL#ODRL -->
<g id="edge25" class="edge">
<title>http://purl.org/oseg/ontologies/OTRL#ODRL&#45;2&#45;&gt;http://purl.org/oseg/ontologies/OTRL#ODRL</title>
<path fill="none" stroke="black" d="M235.69,-32.52C223.39,-53.95 201.58,-91.95 187.14,-117.11"/>
<polygon fill="black" stroke="black" points="183.94,-115.65 182,-126.06 190.02,-119.13 183.94,-115.65"/>
</g>
<!-- http://purl.org/oseg/ontologies/OTRL -->
<g id="node26" class="node">
<title>http://purl.org/oseg/ontologies/OTRL</title>
<ellipse fill="none" stroke="#e377c2" cx="881.95" cy="-381.42" rx="60.62" ry="16.03"/>
<text text-anchor="middle" x="881.95" y="-377.72" font-family="Times,serif" font-size="14.00">ns1:OTRL</text>
</g>
<!-- http://purl.org/oseg/ontologies/OTRL&#45;&gt;http://www.w3.org/2002/07/owl#Ontology -->
<g id="edge43" class="edge">
<title>http://purl.org/oseg/ontologies/OTRL&#45;&gt;http://www.w3.org/2002/07/owl#Ontology</title>
<path fill="none" stroke="black" d="M828.65,-389.38C821.94,-390.38 814.98,-391.42 808.02,-392.46"/>
<polygon fill="black" stroke="black" points="807.22,-389.04 797.85,-393.98 808.26,-395.96 807.22,-389.04"/>
<text text-anchor="middle" x="816.08" y="-379.72" font-family="Times,serif" font-size="14.00">a</text>
</g>
<!-- http://purl.org/oseg/ontologies/OTRL&#45;&gt;http://purl.org/oseg/ontologies/OTRL -->
<g id="edge45" class="edge">
<title>http://purl.org/oseg/ontologies/OTRL&#45;&gt;http://purl.org/oseg/ontologies/OTRL</title>
<path fill="none" stroke="black" d="M937.55,-388.05C950.89,-387.53 960.76,-385.32 960.76,-381.42 960.76,-378.58 955.55,-376.64 947.58,-375.59"/>
<polygon fill="black" stroke="black" points="947.8,-372.1 937.55,-374.78 947.24,-379.07 947.8,-372.1"/>
<text text-anchor="middle" x="1012.26" y="-377.72" font-family="Times,serif" font-size="14.00">owl:versionIRI</text>
</g>
</g>
</svg>
