<?xml version="1.0" encoding="UTF-8" standalone="no"?>
<!DOCTYPE svg PUBLIC "-//W3C//DTD SVG 1.1//EN"
 "http://www.w3.org/Graphics/SVG/1.1/DTD/svg11.dtd">
<!-- Generated by graphviz version 2.43.0 (0)
 -->
<!-- Title: G Pages: 1 -->
<svg width="823pt" height="419pt"
 viewBox="0.00 0.00 822.76 419.00" xmlns="http://www.w3.org/2000/svg" xmlns:xlink="http://www.w3.org/1999/xlink">
<g id="graph0" class="graph" transform="scale(1 1) rotate(0) translate(4 415)">
<title>G</title>
<polygon fill="white" stroke="transparent" points="-4,4 -4,-415 818.76,-415 818.76,4 -4,4"/>
<!-- http://purl.org/oseg/ontologies/OTRL#OTRL -->
<g id="node1" class="node">
<title>http://purl.org/oseg/ontologies/OTRL#OTRL</title>
<ellipse fill="none" stroke="#e377c2" cx="125.67" cy="-245.53" rx="39.7" ry="16.03"/>
<text text-anchor="middle" x="125.67" y="-241.83" font-family="Times,serif" font-size="14.00">OTRL</text>
</g>
<!-- http://www.w3.org/2002/07/owl#class -->
<g id="node3" class="node">
<title>http://www.w3.org/2002/07/owl#class</title>
<ellipse fill="none" stroke="#1f77b4" cx="207.54" cy="-198.9" rx="57.05" ry="16.03"/>
<text text-anchor="middle" x="207.54" y="-195.2" font-family="Times,serif" font-size="14.00">owl:class</text>
</g>
<!-- http://purl.org/oseg/ontologies/OTRL#OTRL&#45;&gt;http://www.w3.org/2002/07/owl#class -->
<g id="edge16" class="edge">
<title>http://purl.org/oseg/ontologies/OTRL#OTRL&#45;&gt;http://www.w3.org/2002/07/owl#class</title>
<path fill="none" stroke="black" d="M148.91,-232.29C156.48,-227.98 165.05,-223.1 173.25,-218.43"/>
<polygon fill="black" stroke="black" points="174.99,-221.47 181.94,-213.48 171.52,-215.39 174.99,-221.47"/>
<text text-anchor="middle" x="165.58" y="-229.16" font-family="Times,serif" font-size="14.00">a</text>
</g>
<!-- http://www.w3.org/2002/07/owl#Ontology -->
<g id="node2" class="node">
<title>http://www.w3.org/2002/07/owl#Ontology</title>
<ellipse fill="none" stroke="#1f77b4" cx="485.32" cy="-62.47" rx="77.56" ry="16.03"/>
<text text-anchor="middle" x="485.32" y="-58.77" font-family="Times,serif" font-size="14.00">owl:Ontology</text>
</g>
<!-- http://purl.org/oseg/ontologies/OTRL#ODRL -->
<g id="node4" class="node">
<title>http://purl.org/oseg/ontologies/OTRL#ODRL</title>
<ellipse fill="none" stroke="#e377c2" cx="307.26" cy="-139.35" rx="41.94" ry="16.03"/>
<text text-anchor="middle" x="307.26" y="-135.65" font-family="Times,serif" font-size="14.00">ODRL</text>
</g>
<!-- http://www.w3.org/2002/07/owl#DatatypeProperty -->
<g id="node5" class="node">
<title>http://www.w3.org/2002/07/owl#DatatypeProperty</title>
<ellipse fill="none" stroke="#1f77b4" cx="458.9" cy="-348.96" rx="123.07" ry="16.03"/>
<text text-anchor="middle" x="458.9" y="-345.26" font-family="Times,serif" font-size="14.00">owl:DatatypeProperty</text>
</g>
<!-- http://purl.org/oseg/ontologies/OTRL#Odrl2 -->
<g id="node6" class="node">
<title>http://purl.org/oseg/ontologies/OTRL#Odrl2</title>
<ellipse fill="none" stroke="#e377c2" cx="316.94" cy="-281.79" rx="40.11" ry="16.03"/>
<text text-anchor="middle" x="316.94" y="-278.09" font-family="Times,serif" font-size="14.00">Odrl2</text>
</g>
<!-- http://purl.org/oseg/ontologies/OTRL#Odrl2&#45;&gt;http://www.w3.org/2002/07/owl#class -->
<g id="edge1" class="edge">
<title>http://purl.org/oseg/ontologies/OTRL#Odrl2&#45;&gt;http://www.w3.org/2002/07/owl#class</title>
<path fill="none" stroke="black" d="M297.89,-267.36C280.82,-254.42 255.56,-235.28 236.08,-220.53"/>
<polygon fill="black" stroke="black" points="237.95,-217.55 227.86,-214.3 233.72,-223.13 237.95,-217.55"/>
<text text-anchor="middle" x="262.49" y="-247.74" font-family="Times,serif" font-size="14.00">a</text>
</g>
<!-- http://purl.org/oseg/ontologies/OTRL#Odrl2&#45;&gt;http://purl.org/oseg/ontologies/OTRL#ODRL -->
<g id="edge11" class="edge">
<title>http://purl.org/oseg/ontologies/OTRL#Odrl2&#45;&gt;http://purl.org/oseg/ontologies/OTRL#ODRL</title>
<path fill="none" stroke="black" d="M315.83,-265.45C314.18,-241.22 311.07,-195.48 309.09,-166.25"/>
<polygon fill="black" stroke="black" points="312.56,-165.68 308.39,-155.94 305.57,-166.16 312.56,-165.68"/>
</g>
<!-- http://purl.org/oseg/ontologies/OTRL#Otrl -->
<g id="node7" class="node">
<title>http://purl.org/oseg/ontologies/OTRL#Otrl</title>
<ellipse fill="none" stroke="#e377c2" cx="344.24" cy="-16.64" rx="31.64" ry="16.03"/>
<text text-anchor="middle" x="344.24" y="-12.94" font-family="Times,serif" font-size="14.00">Otrl</text>
</g>
<!-- http://purl.org/oseg/ontologies/OTRL#Otrl2 -->
<g id="node8" class="node">
<title>http://purl.org/oseg/ontologies/OTRL#Otrl2</title>
<ellipse fill="none" stroke="#e377c2" cx="77.82" cy="-289.82" rx="38.37" ry="16.03"/>
<text text-anchor="middle" x="77.82" y="-286.12" font-family="Times,serif" font-size="14.00">Otrl2</text>
</g>
<!-- http://purl.org/oseg/ontologies/OTRL#Otrl2&#45;&gt;http://purl.org/oseg/ontologies/OTRL#OTRL -->
<g id="edge25" class="edge">
<title>http://purl.org/oseg/ontologies/OTRL#Otrl2&#45;&gt;http://purl.org/oseg/ontologies/OTRL#OTRL</title>
<path fill="none" stroke="black" d="M94.02,-274.83C96.51,-272.52 99.13,-270.09 101.75,-267.67"/>
<polygon fill="black" stroke="black" points="104.53,-269.87 109.49,-260.51 99.77,-264.73 104.53,-269.87"/>
</g>
<!-- http://purl.org/oseg/ontologies/OTRL#Otrl2&#45;&gt;http://www.w3.org/2002/07/owl#class -->
<g id="edge5" class="edge">
<title>http://purl.org/oseg/ontologies/OTRL#Otrl2&#45;&gt;http://www.w3.org/2002/07/owl#class</title>
<path fill="none" stroke="black" d="M97.8,-275.81C119.17,-260.84 153.26,-236.94 177.78,-219.76"/>
<polygon fill="black" stroke="black" points="179.84,-222.59 186.02,-213.98 175.82,-216.86 179.84,-222.59"/>
<text text-anchor="middle" x="133.29" y="-251.58" font-family="Times,serif" font-size="14.00">a</text>
</g>
<!-- http://purl.org/oseg/ontologies/OTRL#Odrl -->
<g id="node9" class="node">
<title>http://purl.org/oseg/ontologies/OTRL#Odrl</title>
<ellipse fill="none" stroke="#e377c2" cx="136.72" cy="-343.5" rx="33.88" ry="16.03"/>
<text text-anchor="middle" x="136.72" y="-339.8" font-family="Times,serif" font-size="14.00">Odrl</text>
</g>
<!-- http://purl.org/oseg/ontologies/OTRL#Odrl&#45;&gt;http://www.w3.org/2002/07/owl#class -->
<g id="edge6" class="edge">
<title>http://purl.org/oseg/ontologies/OTRL#Odrl&#45;&gt;http://www.w3.org/2002/07/owl#class</title>
<path fill="none" stroke="black" d="M144.57,-327.47C156.74,-302.63 180.26,-254.6 194.86,-224.79"/>
<polygon fill="black" stroke="black" points="198.19,-225.96 199.44,-215.44 191.9,-222.88 198.19,-225.96"/>
<text text-anchor="middle" x="165.22" y="-279.93" font-family="Times,serif" font-size="14.00">a</text>
</g>
<!-- http://schema.org/Text -->
<g id="node10" class="node">
<title>http://schema.org/Text</title>
<ellipse fill="none" stroke="#e377c2" cx="663.4" cy="-304.71" rx="74.91" ry="16.03"/>
<text text-anchor="middle" x="663.4" y="-301.01" font-family="Times,serif" font-size="14.00">schema:Text</text>
</g>
<!-- http://www.w3.org/1999/02/22&#45;rdf&#45;syntax&#45;ns#nil -->
<g id="node11" class="node">
<title>http://www.w3.org/1999/02/22&#45;rdf&#45;syntax&#45;ns#nil</title>
<ellipse fill="none" stroke="#e377c2" cx="114.24" cy="-40.64" rx="42.35" ry="16.03"/>
<text text-anchor="middle" x="114.24" y="-36.94" font-family="Times,serif" font-size="14.00">rdf:nil</text>
</g>
<!-- http://purl.org/oseg/ontologies/OTRL#goal -->
<g id="node12" class="node">
<title>http://purl.org/oseg/ontologies/OTRL#goal</title>
<ellipse fill="none" stroke="#e377c2" cx="483.52" cy="-308.31" rx="33.47" ry="16.03"/>
<text text-anchor="middle" x="483.52" y="-304.61" font-family="Times,serif" font-size="14.00">goal</text>
</g>
<!-- http://purl.org/oseg/ontologies/OTRL#goal&#45;&gt;http://www.w3.org/2002/07/owl#DatatypeProperty -->
<g id="edge10" class="edge">
<title>http://purl.org/oseg/ontologies/OTRL#goal&#45;&gt;http://www.w3.org/2002/07/owl#DatatypeProperty</title>
<path fill="none" stroke="black" d="M474.07,-323.91C474.02,-324 473.96,-324.09 473.91,-324.18"/>
<polygon fill="black" stroke="black" points="470.96,-322.29 468.77,-332.66 476.94,-325.92 470.96,-322.29"/>
<text text-anchor="middle" x="469.49" y="-327.85" font-family="Times,serif" font-size="14.00">a</text>
</g>
<!-- http://purl.org/oseg/ontologies/OTRL#goal&#45;&gt;http://schema.org/Text -->
<g id="edge17" class="edge">
<title>http://purl.org/oseg/ontologies/OTRL#goal&#45;&gt;http://schema.org/Text</title>
<path fill="none" stroke="black" d="M516.93,-307.64C534.3,-307.3 556.39,-306.85 578.12,-306.42"/>
<polygon fill="black" stroke="black" points="578.47,-309.91 588.4,-306.21 578.33,-302.92 578.47,-309.91"/>
<text text-anchor="middle" x="558.03" y="-295.83" font-family="Times,serif" font-size="14.00">range</text>
</g>
<!-- http://purl.org/oseg/ontologies/OTRL#exitCriteria -->
<g id="node13" class="node">
<title>http://purl.org/oseg/ontologies/OTRL#exitCriteria</title>
<ellipse fill="none" stroke="#e377c2" cx="475.05" cy="-394.86" rx="70.01" ry="16.03"/>
<text text-anchor="middle" x="475.05" y="-391.16" font-family="Times,serif" font-size="14.00">exitCriteria</text>
</g>
<!-- http://purl.org/oseg/ontologies/OTRL#exitCriteria&#45;&gt;http://www.w3.org/2002/07/owl#DatatypeProperty -->
<g id="edge18" class="edge">
<title>http://purl.org/oseg/ontologies/OTRL#exitCriteria&#45;&gt;http://www.w3.org/2002/07/owl#DatatypeProperty</title>
<path fill="none" stroke="black" d="M469.31,-378.55C468.88,-377.33 468.44,-376.09 468,-374.83"/>
<polygon fill="black" stroke="black" points="471.24,-373.49 464.62,-365.22 464.64,-375.82 471.24,-373.49"/>
<text text-anchor="middle" x="464.15" y="-365.49" font-family="Times,serif" font-size="14.00">a</text>
</g>
<!-- http://purl.org/oseg/ontologies/OTRL#exitCriteria&#45;&gt;http://schema.org/Text -->
<g id="edge7" class="edge">
<title>http://purl.org/oseg/ontologies/OTRL#exitCriteria&#45;&gt;http://schema.org/Text</title>
<path fill="none" stroke="black" d="M505.73,-380.18C537.78,-364.84 588.21,-340.7 623.38,-323.87"/>
<polygon fill="black" stroke="black" points="624.91,-327.02 632.42,-319.54 621.89,-320.7 624.91,-327.02"/>
<text text-anchor="middle" x="585.55" y="-355.82" font-family="Times,serif" font-size="14.00">range</text>
</g>
<!-- http://purl.org/oseg/ontologies/OTRL -->
<g id="node14" class="node">
<title>http://purl.org/oseg/ontologies/OTRL</title>
<ellipse fill="none" stroke="#e377c2" cx="632.95" cy="-40.42" rx="60.62" ry="16.03"/>
<text text-anchor="middle" x="632.95" y="-36.72" font-family="Times,serif" font-size="14.00">ns1:OTRL</text>
</g>
<!-- http://purl.org/oseg/ontologies/OTRL&#45;&gt;http://www.w3.org/2002/07/owl#Ontology -->
<g id="edge19" class="edge">
<title>http://purl.org/oseg/ontologies/OTRL&#45;&gt;http://www.w3.org/2002/07/owl#Ontology</title>
<path fill="none" stroke="black" d="M579.65,-48.38C572.94,-49.38 565.98,-50.42 559.02,-51.46"/>
<polygon fill="black" stroke="black" points="558.22,-48.04 548.85,-52.98 559.26,-54.96 558.22,-48.04"/>
<text text-anchor="middle" x="567.08" y="-38.72" font-family="Times,serif" font-size="14.00">a</text>
</g>
<!-- http://purl.org/oseg/ontologies/OTRL&#45;&gt;http://purl.org/oseg/ontologies/OTRL -->
<g id="edge12" class="edge">
<title>http://purl.org/oseg/ontologies/OTRL&#45;&gt;http://purl.org/oseg/ontologies/OTRL</title>
<path fill="none" stroke="black" d="M688.55,-47.05C701.89,-46.53 711.76,-44.32 711.76,-40.42 711.76,-37.58 706.55,-35.64 698.58,-34.59"/>
<polygon fill="black" stroke="black" points="698.8,-31.1 688.55,-33.78 698.24,-38.07 698.8,-31.1"/>
<text text-anchor="middle" x="763.26" y="-36.72" font-family="Times,serif" font-size="14.00">owl:versionIRI</text>
</g>
<!-- http://purl.org/oseg/ontologies/OTRL#Otrl1 -->
<g id="node15" class="node">
<title>http://purl.org/oseg/ontologies/OTRL#Otrl1</title>
<ellipse fill="none" stroke="#e377c2" cx="54.92" cy="-150.89" rx="38.37" ry="16.03"/>
<text text-anchor="middle" x="54.92" y="-147.19" font-family="Times,serif" font-size="14.00">Otrl1</text>
</g>
<!-- http://purl.org/oseg/ontologies/OTRL#Otrl1&#45;&gt;http://purl.org/oseg/ontologies/OTRL#OTRL -->
<g id="edge3" class="edge">
<title>http://purl.org/oseg/ontologies/OTRL#Otrl1&#45;&gt;http://purl.org/oseg/ontologies/OTRL#OTRL</title>
<path fill="none" stroke="black" d="M66.6,-166.52C77.77,-181.45 94.75,-204.18 107.65,-221.43"/>
<polygon fill="black" stroke="black" points="105.18,-223.97 113.97,-229.88 110.79,-219.77 105.18,-223.97"/>
</g>
<!-- http://purl.org/oseg/ontologies/OTRL#Otrl1&#45;&gt;http://www.w3.org/2002/07/owl#class -->
<g id="edge13" class="edge">
<title>http://purl.org/oseg/ontologies/OTRL#Otrl1&#45;&gt;http://www.w3.org/2002/07/owl#class</title>
<path fill="none" stroke="black" d="M85.81,-160.61C106.93,-167.25 135.37,-176.2 159.44,-183.77"/>
<polygon fill="black" stroke="black" points="158.53,-187.15 169.12,-186.81 160.63,-180.47 158.53,-187.15"/>
<text text-anchor="middle" x="118.12" y="-175.99" font-family="Times,serif" font-size="14.00">a</text>
</g>
<!-- http://purl.org/oseg/ontologies/OTRL#Odrl1 -->
<g id="node16" class="node">
<title>http://purl.org/oseg/ontologies/OTRL#Odrl1</title>
<ellipse fill="none" stroke="#e377c2" cx="316.3" cy="-84.56" rx="40.11" ry="16.03"/>
<text text-anchor="middle" x="316.3" y="-80.86" font-family="Times,serif" font-size="14.00">Odrl1</text>
</g>
<!-- http://purl.org/oseg/ontologies/OTRL#Odrl1&#45;&gt;http://www.w3.org/2002/07/owl#class -->
<g id="edge20" class="edge">
<title>http://purl.org/oseg/ontologies/OTRL#Odrl1&#45;&gt;http://www.w3.org/2002/07/owl#class</title>
<path fill="none" stroke="black" d="M301.63,-99.98C283.17,-119.39 251.27,-152.92 229.8,-175.5"/>
<polygon fill="black" stroke="black" points="227.03,-173.33 222.68,-182.99 232.1,-178.16 227.03,-173.33"/>
<text text-anchor="middle" x="261.22" y="-141.54" font-family="Times,serif" font-size="14.00">a</text>
</g>
<!-- http://purl.org/oseg/ontologies/OTRL#Odrl1&#45;&gt;http://purl.org/oseg/ontologies/OTRL#ODRL -->
<g id="edge28" class="edge">
<title>http://purl.org/oseg/ontologies/OTRL#Odrl1&#45;&gt;http://purl.org/oseg/ontologies/OTRL#ODRL</title>
<path fill="none" stroke="black" d="M313.59,-101C312.96,-104.79 312.28,-108.92 311.6,-113.02"/>
<polygon fill="black" stroke="black" points="308.14,-112.49 309.97,-122.93 315.05,-113.63 308.14,-112.49"/>
</g>
<!-- http://purl.org/oseg/ontologies/OTRL#Otrl3 -->
<g id="node17" class="node">
<title>http://purl.org/oseg/ontologies/OTRL#Otrl3</title>
<ellipse fill="none" stroke="#e377c2" cx="115.47" cy="-102.28" rx="38.37" ry="16.03"/>
<text text-anchor="middle" x="115.47" y="-98.58" font-family="Times,serif" font-size="14.00">Otrl3</text>
</g>
<!-- http://purl.org/oseg/ontologies/OTRL#Otrl3&#45;&gt;http://purl.org/oseg/ontologies/OTRL#OTRL -->
<g id="edge26" class="edge">
<title>http://purl.org/oseg/ontologies/OTRL#Otrl3&#45;&gt;http://purl.org/oseg/ontologies/OTRL#OTRL</title>
<path fill="none" stroke="black" d="M116.64,-118.72C118.38,-143.2 121.68,-189.5 123.77,-218.87"/>
<polygon fill="black" stroke="black" points="120.28,-219.12 124.48,-228.85 127.26,-218.63 120.28,-219.12"/>
</g>
<!-- http://purl.org/oseg/ontologies/OTRL#Otrl3&#45;&gt;http://www.w3.org/2002/07/owl#class -->
<g id="edge21" class="edge">
<title>http://purl.org/oseg/ontologies/OTRL#Otrl3&#45;&gt;http://www.w3.org/2002/07/owl#class</title>
<path fill="none" stroke="black" d="M129.86,-117.38C144.73,-132.98 168.13,-157.55 185.37,-175.63"/>
<polygon fill="black" stroke="black" points="182.91,-178.12 192.34,-182.94 187.97,-173.29 182.91,-178.12"/>
<text text-anchor="middle" x="153.11" y="-150.31" font-family="Times,serif" font-size="14.00">a</text>
</g>
<!-- http://purl.org/oseg/ontologies/OTRL#Odrl3 -->
<g id="node18" class="node">
<title>http://purl.org/oseg/ontologies/OTRL#Odrl3</title>
<ellipse fill="none" stroke="#e377c2" cx="231.46" cy="-40.68" rx="40.11" ry="16.03"/>
<text text-anchor="middle" x="231.46" y="-36.98" font-family="Times,serif" font-size="14.00">Odrl3</text>
</g>
<!-- http://purl.org/oseg/ontologies/OTRL#Odrl3&#45;&gt;http://www.w3.org/2002/07/owl#class -->
<g id="edge22" class="edge">
<title>http://purl.org/oseg/ontologies/OTRL#Odrl3&#45;&gt;http://www.w3.org/2002/07/owl#class</title>
<path fill="none" stroke="black" d="M228.99,-57.01C224.87,-84.25 216.56,-139.2 211.58,-172.15"/>
<polygon fill="black" stroke="black" points="208.07,-172 210.03,-182.41 214.99,-173.05 208.07,-172"/>
<text text-anchor="middle" x="215.79" y="-118.38" font-family="Times,serif" font-size="14.00">a</text>
</g>
<!-- http://purl.org/oseg/ontologies/OTRL#Odrl3&#45;&gt;http://purl.org/oseg/ontologies/OTRL#ODRL -->
<g id="edge14" class="edge">
<title>http://purl.org/oseg/ontologies/OTRL#Odrl3&#45;&gt;http://purl.org/oseg/ontologies/OTRL#ODRL</title>
<path fill="none" stroke="black" d="M243.63,-56.53C255.79,-72.36 274.63,-96.88 288.66,-115.14"/>
<polygon fill="black" stroke="black" points="286.24,-117.74 295.11,-123.54 291.79,-113.48 286.24,-117.74"/>
</g>
<!-- http://purl.org/oseg/ontologies/OTRL#Odrl4 -->
<g id="node19" class="node">
<title>http://purl.org/oseg/ontologies/OTRL#Odrl4</title>
<ellipse fill="none" stroke="#e377c2" cx="367.28" cy="-185.51" rx="40.11" ry="16.03"/>
<text text-anchor="middle" x="367.28" y="-181.81" font-family="Times,serif" font-size="14.00">Odrl4</text>
</g>
<!-- http://purl.org/oseg/ontologies/OTRL#Odrl4&#45;&gt;http://www.w3.org/2002/07/owl#class -->
<g id="edge23" class="edge">
<title>http://purl.org/oseg/ontologies/OTRL#Odrl4&#45;&gt;http://www.w3.org/2002/07/owl#class</title>
<path fill="none" stroke="black" d="M327.8,-188.82C311.12,-190.22 291.25,-191.88 272.51,-193.45"/>
<polygon fill="black" stroke="black" points="272.22,-189.97 262.54,-194.29 272.8,-196.94 272.22,-189.97"/>
<text text-anchor="middle" x="295.65" y="-194.94" font-family="Times,serif" font-size="14.00">a</text>
</g>
<!-- http://purl.org/oseg/ontologies/OTRL#Odrl4&#45;&gt;http://purl.org/oseg/ontologies/OTRL#ODRL -->
<g id="edge2" class="edge">
<title>http://purl.org/oseg/ontologies/OTRL#Odrl4&#45;&gt;http://purl.org/oseg/ontologies/OTRL#ODRL</title>
<path fill="none" stroke="black" d="M348.29,-170.91C343.91,-167.54 339.17,-163.89 334.52,-160.31"/>
<polygon fill="black" stroke="black" points="336.39,-157.34 326.33,-154.02 332.13,-162.89 336.39,-157.34"/>
</g>
<!-- http://purl.org/oseg/ontologies/OTRL#Otrl5 -->
<g id="node20" class="node">
<title>http://purl.org/oseg/ontologies/OTRL#Otrl5</title>
<ellipse fill="none" stroke="#e377c2" cx="38" cy="-204.99" rx="38.37" ry="16.03"/>
<text text-anchor="middle" x="38" y="-201.29" font-family="Times,serif" font-size="14.00">Otrl5</text>
</g>
<!-- http://purl.org/oseg/ontologies/OTRL#Otrl5&#45;&gt;http://purl.org/oseg/ontologies/OTRL#OTRL -->
<g id="edge9" class="edge">
<title>http://purl.org/oseg/ontologies/OTRL#Otrl5&#45;&gt;http://purl.org/oseg/ontologies/OTRL#OTRL</title>
<path fill="none" stroke="black" d="M64.3,-217.16C72.38,-220.89 81.4,-225.06 89.99,-229.03"/>
<polygon fill="black" stroke="black" points="88.54,-232.22 99.08,-233.24 91.47,-225.86 88.54,-232.22"/>
</g>
<!-- http://purl.org/oseg/ontologies/OTRL#Otrl5&#45;&gt;http://www.w3.org/2002/07/owl#class -->
<g id="edge24" class="edge">
<title>http://purl.org/oseg/ontologies/OTRL#Otrl5&#45;&gt;http://www.w3.org/2002/07/owl#class</title>
<path fill="none" stroke="black" d="M76.05,-203.63C95.01,-202.94 118.51,-202.1 140.38,-201.31"/>
<polygon fill="black" stroke="black" points="140.75,-204.8 150.62,-200.94 140.5,-197.81 140.75,-204.8"/>
<text text-anchor="middle" x="103.71" y="-206.27" font-family="Times,serif" font-size="14.00">a</text>
</g>
<!-- http://purl.org/oseg/ontologies/OTRL#Odrl3Star -->
<g id="node21" class="node">
<title>http://purl.org/oseg/ontologies/OTRL#Odrl3Star</title>
<ellipse fill="none" stroke="#e377c2" cx="400.04" cy="-231.05" rx="62.45" ry="16.03"/>
<text text-anchor="middle" x="400.04" y="-227.35" font-family="Times,serif" font-size="14.00">Odrl3Star</text>
</g>
<!-- http://purl.org/oseg/ontologies/OTRL#Odrl3Star&#45;&gt;http://www.w3.org/2002/07/owl#class -->
<g id="edge15" class="edge">
<title>http://purl.org/oseg/ontologies/OTRL#Odrl3Star&#45;&gt;http://www.w3.org/2002/07/owl#class</title>
<path fill="none" stroke="black" d="M347.44,-222.27C322.57,-218.11 292.78,-213.14 267.09,-208.85"/>
<polygon fill="black" stroke="black" points="267.54,-205.37 257.1,-207.18 266.39,-212.28 267.54,-205.37"/>
<text text-anchor="middle" x="302.76" y="-219.36" font-family="Times,serif" font-size="14.00">a</text>
</g>
<!-- http://purl.org/oseg/ontologies/OTRL#Odrl3Star&#45;&gt;http://purl.org/oseg/ontologies/OTRL#ODRL -->
<g id="edge8" class="edge">
<title>http://purl.org/oseg/ontologies/OTRL#Odrl3Star&#45;&gt;http://purl.org/oseg/ontologies/OTRL#ODRL</title>
<path fill="none" stroke="black" d="M383.87,-215.08C368.93,-200.31 346.56,-178.2 329.85,-161.69"/>
<polygon fill="black" stroke="black" points="332.19,-159.08 322.62,-154.53 327.27,-164.05 332.19,-159.08"/>
</g>
<!-- http://purl.org/oseg/ontologies/OTRL#Otrl4 -->
<g id="node22" class="node">
<title>http://purl.org/oseg/ontologies/OTRL#Otrl4</title>
<ellipse fill="none" stroke="#e377c2" cx="222.26" cy="-348.8" rx="38.37" ry="16.03"/>
<text text-anchor="middle" x="222.26" y="-345.1" font-family="Times,serif" font-size="14.00">Otrl4</text>
</g>
<!-- http://purl.org/oseg/ontologies/OTRL#Otrl4&#45;&gt;http://purl.org/oseg/ontologies/OTRL#OTRL -->
<g id="edge4" class="edge">
<title>http://purl.org/oseg/ontologies/OTRL#Otrl4&#45;&gt;http://purl.org/oseg/ontologies/OTRL#OTRL</title>
<path fill="none" stroke="black" d="M208,-333.56C191.88,-316.33 165.46,-288.08 146.91,-268.24"/>
<polygon fill="black" stroke="black" points="149.37,-265.74 139.98,-260.83 144.25,-270.53 149.37,-265.74"/>
</g>
<!-- http://purl.org/oseg/ontologies/OTRL#Otrl4&#45;&gt;http://www.w3.org/2002/07/owl#class -->
<g id="edge27" class="edge">
<title>http://purl.org/oseg/ontologies/OTRL#Otrl4&#45;&gt;http://www.w3.org/2002/07/owl#class</title>
<path fill="none" stroke="black" d="M220.65,-332.48C218.12,-306.68 213.17,-256.26 210.13,-225.28"/>
<polygon fill="black" stroke="black" points="213.6,-224.82 209.14,-215.21 206.64,-225.5 213.6,-224.82"/>
<text text-anchor="middle" x="210.89" y="-282.68" font-family="Times,serif" font-size="14.00">a</text>
</g>
</g>
</svg>
