<?xml version="1.0" encoding="UTF-8" standalone="no"?>
<!DOCTYPE svg PUBLIC "-//W3C//DTD SVG 1.1//EN"
 "http://www.w3.org/Graphics/SVG/1.1/DTD/svg11.dtd">
<!-- Generated by graphviz version 2.43.0 (0)
 -->
<!-- Title: G Pages: 1 -->
<svg width="1409pt" height="631pt"
 viewBox="0.00 0.00 1408.76 631.00" xmlns="http://www.w3.org/2000/svg" xmlns:xlink="http://www.w3.org/1999/xlink">
<g id="graph0" class="graph" transform="scale(1 1) rotate(0) translate(4 627)">
<title>G</title>
<polygon fill="white" stroke="transparent" points="-4,4 -4,-627 1404.76,-627 1404.76,4 -4,4"/>
<!-- http://www.w3.org/2002/07/owl#Ontology -->
<g id="node1" class="node">
<title>http://www.w3.org/2002/07/owl#Ontology</title>
<ellipse fill="none" stroke="#1f77b4" cx="1071.32" cy="-606.47" rx="77.56" ry="16.03"/>
<text text-anchor="middle" x="1071.32" y="-602.77" font-family="Times,serif" font-size="14.00">owl:Ontology</text>
</g>
<!-- http://purl.org/oseg/ontologies/OTRL#OTRL -->
<g id="node2" class="node">
<title>http://purl.org/oseg/ontologies/OTRL#OTRL</title>
<ellipse fill="none" stroke="#e377c2" cx="725.89" cy="-337.94" rx="39.7" ry="16.03"/>
<text text-anchor="middle" x="725.89" y="-334.24" font-family="Times,serif" font-size="14.00">OTRL</text>
</g>
<!-- http://www.w3.org/2002/07/owl#class -->
<g id="node4" class="node">
<title>http://www.w3.org/2002/07/owl#class</title>
<ellipse fill="none" stroke="#1f77b4" cx="1018.21" cy="-252" rx="57.05" ry="16.03"/>
<text text-anchor="middle" x="1018.21" y="-248.3" font-family="Times,serif" font-size="14.00">owl:class</text>
</g>
<!-- http://purl.org/oseg/ontologies/OTRL#OTRL&#45;&gt;http://www.w3.org/2002/07/owl#class -->
<g id="edge8" class="edge">
<title>http://purl.org/oseg/ontologies/OTRL#OTRL&#45;&gt;http://www.w3.org/2002/07/owl#class</title>
<path fill="none" stroke="black" d="M758.29,-328.42C809.27,-313.43 908.55,-284.24 968.57,-266.6"/>
<polygon fill="black" stroke="black" points="969.6,-269.94 978.21,-263.76 967.63,-263.22 969.6,-269.94"/>
<text text-anchor="middle" x="858.93" y="-301.31" font-family="Times,serif" font-size="14.00">a</text>
</g>
<!-- http://purl.org/oseg/ontologies/OTRL#ODRL -->
<g id="node3" class="node">
<title>http://purl.org/oseg/ontologies/OTRL#ODRL</title>
<ellipse fill="none" stroke="#e377c2" cx="1218.25" cy="-197.46" rx="41.94" ry="16.03"/>
<text text-anchor="middle" x="1218.25" y="-193.76" font-family="Times,serif" font-size="14.00">ODRL</text>
</g>
<!-- http://purl.org/oseg/ontologies/OTRL#ODRL&#45;&gt;http://www.w3.org/2002/07/owl#class -->
<g id="edge24" class="edge">
<title>http://purl.org/oseg/ontologies/OTRL#ODRL&#45;&gt;http://www.w3.org/2002/07/owl#class</title>
<path fill="none" stroke="black" d="M1183.86,-206.84C1152.41,-215.41 1105.46,-228.21 1069.57,-238"/>
<polygon fill="black" stroke="black" points="1068.49,-234.67 1059.76,-240.67 1070.33,-241.42 1068.49,-234.67"/>
<text text-anchor="middle" x="1122.21" y="-226.22" font-family="Times,serif" font-size="14.00">a</text>
</g>
<!-- http://www.w3.org/2002/07/owl#DatatypeProperty -->
<g id="node5" class="node">
<title>http://www.w3.org/2002/07/owl#DatatypeProperty</title>
<ellipse fill="none" stroke="#1f77b4" cx="123.34" cy="-499.4" rx="123.07" ry="16.03"/>
<text text-anchor="middle" x="123.34" y="-495.7" font-family="Times,serif" font-size="14.00">owl:DatatypeProperty</text>
</g>
<!-- http://purl.org/oseg/ontologies/OTRL#OTRL&#45;9 -->
<g id="node6" class="node">
<title>http://purl.org/oseg/ontologies/OTRL#OTRL&#45;9</title>
<ellipse fill="none" stroke="#e377c2" cx="852.65" cy="-169.57" rx="49.49" ry="16.03"/>
<text text-anchor="middle" x="852.65" y="-165.87" font-family="Times,serif" font-size="14.00">OTRL&#45;9</text>
</g>
<!-- http://purl.org/oseg/ontologies/OTRL#OTRL&#45;9&#45;&gt;http://purl.org/oseg/ontologies/OTRL#OTRL -->
<g id="edge12" class="edge">
<title>http://purl.org/oseg/ontologies/OTRL#OTRL&#45;9&#45;&gt;http://purl.org/oseg/ontologies/OTRL#OTRL</title>
<path fill="none" stroke="black" d="M840.72,-185.41C818.45,-214.99 770.41,-278.8 744.08,-313.79"/>
<polygon fill="black" stroke="black" points="741.1,-311.93 737.88,-322.02 746.69,-316.14 741.1,-311.93"/>
</g>
<!-- http://purl.org/oseg/ontologies/OTRL#OTRL&#45;9&#45;&gt;http://www.w3.org/2002/07/owl#class -->
<g id="edge1" class="edge">
<title>http://purl.org/oseg/ontologies/OTRL#OTRL&#45;9&#45;&gt;http://www.w3.org/2002/07/owl#class</title>
<path fill="none" stroke="black" d="M879.99,-183.18C907.45,-196.86 949.99,-218.04 980.62,-233.29"/>
<polygon fill="black" stroke="black" points="979.21,-236.49 989.72,-237.82 982.33,-230.23 979.21,-236.49"/>
<text text-anchor="middle" x="925.8" y="-212.03" font-family="Times,serif" font-size="14.00">a</text>
</g>
<!-- http://purl.org/oseg/ontologies/OTRL#documentationDescription -->
<g id="node7" class="node">
<title>http://purl.org/oseg/ontologies/OTRL#documentationDescription</title>
<ellipse fill="none" stroke="#e377c2" cx="366.98" cy="-289.22" rx="120.83" ry="16.03"/>
<text text-anchor="middle" x="366.98" y="-285.52" font-family="Times,serif" font-size="14.00">documentationDesc...</text>
</g>
<!-- http://purl.org/oseg/ontologies/OTRL#documentationDescription&#45;&gt;http://purl.org/oseg/ontologies/OTRL#OTRL -->
<g id="edge40" class="edge">
<title>http://purl.org/oseg/ontologies/OTRL#documentationDescription&#45;&gt;http://purl.org/oseg/ontologies/OTRL#OTRL</title>
<path fill="none" stroke="black" d="M452.5,-300.83C522.96,-310.4 620.34,-323.61 677.85,-331.42"/>
<polygon fill="black" stroke="black" points="677.73,-334.94 688.11,-332.82 678.67,-328 677.73,-334.94"/>
<text text-anchor="middle" x="538.67" y="-319.93" font-family="Times,serif" font-size="14.00">domain</text>
</g>
<!-- http://purl.org/oseg/ontologies/OTRL#documentationDescription&#45;&gt;http://www.w3.org/2002/07/owl#DatatypeProperty -->
<g id="edge2" class="edge">
<title>http://purl.org/oseg/ontologies/OTRL#documentationDescription&#45;&gt;http://www.w3.org/2002/07/owl#DatatypeProperty</title>
<path fill="none" stroke="black" d="M348.27,-305.37C305.31,-342.43 199.51,-433.69 149.86,-476.52"/>
<polygon fill="black" stroke="black" points="147.4,-474.02 142.12,-483.2 151.97,-479.32 147.4,-474.02"/>
<text text-anchor="middle" x="244.57" y="-394.74" font-family="Times,serif" font-size="14.00">a</text>
</g>
<!-- http://schema.org/Text -->
<g id="node12" class="node">
<title>http://schema.org/Text</title>
<ellipse fill="none" stroke="#e377c2" cx="216.17" cy="-569.27" rx="74.91" ry="16.03"/>
<text text-anchor="middle" x="216.17" y="-565.57" font-family="Times,serif" font-size="14.00">schema:Text</text>
</g>
<!-- http://purl.org/oseg/ontologies/OTRL#documentationDescription&#45;&gt;http://schema.org/Text -->
<g id="edge11" class="edge">
<title>http://purl.org/oseg/ontologies/OTRL#documentationDescription&#45;&gt;http://schema.org/Text</title>
<path fill="none" stroke="black" d="M358.22,-305.49C333.03,-352.28 260.22,-487.47 229.79,-543.98"/>
<polygon fill="black" stroke="black" points="226.61,-542.5 224.95,-552.96 232.77,-545.82 226.61,-542.5"/>
<text text-anchor="middle" x="273.01" y="-413.53" font-family="Times,serif" font-size="14.00">range</text>
</g>
<!-- http://purl.org/oseg/ontologies/OTRL#OTRL&#45;5 -->
<g id="node8" class="node">
<title>http://purl.org/oseg/ontologies/OTRL#OTRL&#45;5</title>
<ellipse fill="none" stroke="#e377c2" cx="865.3" cy="-100.47" rx="49.49" ry="16.03"/>
<text text-anchor="middle" x="865.3" y="-96.77" font-family="Times,serif" font-size="14.00">OTRL&#45;5</text>
</g>
<!-- http://purl.org/oseg/ontologies/OTRL#OTRL&#45;5&#45;&gt;http://purl.org/oseg/ontologies/OTRL#OTRL -->
<g id="edge22" class="edge">
<title>http://purl.org/oseg/ontologies/OTRL#OTRL&#45;5&#45;&gt;http://purl.org/oseg/ontologies/OTRL#OTRL</title>
<path fill="none" stroke="black" d="M855.72,-116.79C831.73,-157.66 768.96,-264.58 740.41,-313.22"/>
<polygon fill="black" stroke="black" points="737.22,-311.74 735.18,-322.13 743.26,-315.28 737.22,-311.74"/>
</g>
<!-- http://purl.org/oseg/ontologies/OTRL#OTRL&#45;5&#45;&gt;http://www.w3.org/2002/07/owl#class -->
<g id="edge3" class="edge">
<title>http://purl.org/oseg/ontologies/OTRL#OTRL&#45;5&#45;&gt;http://www.w3.org/2002/07/owl#class</title>
<path fill="none" stroke="black" d="M881.09,-116.11C908.1,-142.88 963.31,-197.6 994.81,-228.81"/>
<polygon fill="black" stroke="black" points="992.71,-231.66 1002.28,-236.21 997.64,-226.69 992.71,-231.66"/>
<text text-anchor="middle" x="933.45" y="-176.26" font-family="Times,serif" font-size="14.00">a</text>
</g>
<!-- http://purl.org/oseg/ontologies/OTRL#OTRL&#45;4 -->
<g id="node9" class="node">
<title>http://purl.org/oseg/ontologies/OTRL#OTRL&#45;4</title>
<ellipse fill="none" stroke="#e377c2" cx="913.5" cy="-393.91" rx="49.49" ry="16.03"/>
<text text-anchor="middle" x="913.5" y="-390.21" font-family="Times,serif" font-size="14.00">OTRL&#45;4</text>
</g>
<!-- http://purl.org/oseg/ontologies/OTRL#OTRL&#45;4&#45;&gt;http://purl.org/oseg/ontologies/OTRL#OTRL -->
<g id="edge33" class="edge">
<title>http://purl.org/oseg/ontologies/OTRL#OTRL&#45;4&#45;&gt;http://purl.org/oseg/ontologies/OTRL#OTRL</title>
<path fill="none" stroke="black" d="M876.44,-382.86C845.18,-373.53 800.46,-360.19 767.88,-350.47"/>
<polygon fill="black" stroke="black" points="768.77,-347.08 758.19,-347.58 766.77,-353.79 768.77,-347.08"/>
</g>
<!-- http://purl.org/oseg/ontologies/OTRL#OTRL&#45;4&#45;&gt;http://www.w3.org/2002/07/owl#class -->
<g id="edge4" class="edge">
<title>http://purl.org/oseg/ontologies/OTRL#OTRL&#45;4&#45;&gt;http://www.w3.org/2002/07/owl#class</title>
<path fill="none" stroke="black" d="M925.31,-377.91C943.54,-353.21 978.65,-305.62 1000.1,-276.55"/>
<polygon fill="black" stroke="black" points="1003.16,-278.29 1006.28,-268.16 997.53,-274.13 1003.16,-278.29"/>
<text text-anchor="middle" x="958.21" y="-331.03" font-family="Times,serif" font-size="14.00">a</text>
</g>
<!-- http://purl.org/oseg/ontologies/OTRL#exitCriteria -->
<g id="node10" class="node">
<title>http://purl.org/oseg/ontologies/OTRL#exitCriteria</title>
<ellipse fill="none" stroke="#e377c2" cx="447.07" cy="-465.64" rx="70.01" ry="16.03"/>
<text text-anchor="middle" x="447.07" y="-461.94" font-family="Times,serif" font-size="14.00">exitCriteria</text>
</g>
<!-- http://purl.org/oseg/ontologies/OTRL#exitCriteria&#45;&gt;http://purl.org/oseg/ontologies/OTRL#OTRL -->
<g id="edge43" class="edge">
<title>http://purl.org/oseg/ontologies/OTRL#exitCriteria&#45;&gt;http://purl.org/oseg/ontologies/OTRL#OTRL</title>
<path fill="none" stroke="black" d="M478.78,-451.11C531.02,-427.19 634.86,-379.63 689.83,-354.46"/>
<polygon fill="black" stroke="black" points="691.54,-357.53 699.18,-350.18 688.63,-351.16 691.54,-357.53"/>
<text text-anchor="middle" x="557.8" y="-406.59" font-family="Times,serif" font-size="14.00">domain</text>
</g>
<!-- http://purl.org/oseg/ontologies/OTRL#exitCriteria&#45;&gt;http://www.w3.org/2002/07/owl#DatatypeProperty -->
<g id="edge25" class="edge">
<title>http://purl.org/oseg/ontologies/OTRL#exitCriteria&#45;&gt;http://www.w3.org/2002/07/owl#DatatypeProperty</title>
<path fill="none" stroke="black" d="M383.11,-472.31C339.49,-476.86 280.68,-482.99 230.04,-488.27"/>
<polygon fill="black" stroke="black" points="229.61,-484.8 220.03,-489.31 230.34,-491.76 229.61,-484.8"/>
<text text-anchor="middle" x="302.07" y="-484.09" font-family="Times,serif" font-size="14.00">a</text>
</g>
<!-- http://purl.org/oseg/ontologies/OTRL#exitCriteria&#45;&gt;http://schema.org/Text -->
<g id="edge44" class="edge">
<title>http://purl.org/oseg/ontologies/OTRL#exitCriteria&#45;&gt;http://schema.org/Text</title>
<path fill="none" stroke="black" d="M414.47,-480.27C373.5,-498.65 303.12,-530.25 258.15,-550.43"/>
<polygon fill="black" stroke="black" points="256.66,-547.26 248.97,-554.55 259.52,-553.65 256.66,-547.26"/>
<text text-anchor="middle" x="315.31" y="-519.15" font-family="Times,serif" font-size="14.00">range</text>
</g>
<!-- http://purl.org/oseg/ontologies/OTRL#ODRL&#45;3 -->
<g id="node11" class="node">
<title>http://purl.org/oseg/ontologies/OTRL#ODRL&#45;3</title>
<ellipse fill="none" stroke="#e377c2" cx="1110.53" cy="-16.57" rx="50.82" ry="16.03"/>
<text text-anchor="middle" x="1110.53" y="-12.87" font-family="Times,serif" font-size="14.00">ODRL&#45;3</text>
</g>
<!-- http://purl.org/oseg/ontologies/OTRL#ODRL&#45;3&#45;&gt;http://purl.org/oseg/ontologies/OTRL#ODRL -->
<g id="edge15" class="edge">
<title>http://purl.org/oseg/ontologies/OTRL#ODRL&#45;3&#45;&gt;http://purl.org/oseg/ontologies/OTRL#ODRL</title>
<path fill="none" stroke="black" d="M1120.09,-32.63C1138.93,-64.27 1180.99,-134.9 1203.45,-172.61"/>
<polygon fill="black" stroke="black" points="1200.59,-174.64 1208.71,-181.44 1206.6,-171.06 1200.59,-174.64"/>
</g>
<!-- http://purl.org/oseg/ontologies/OTRL#ODRL&#45;3&#45;&gt;http://www.w3.org/2002/07/owl#class -->
<g id="edge27" class="edge">
<title>http://purl.org/oseg/ontologies/OTRL#ODRL&#45;3&#45;&gt;http://www.w3.org/2002/07/owl#class</title>
<path fill="none" stroke="black" d="M1104.18,-32.76C1088.44,-72.91 1047.47,-177.38 1028.33,-226.18"/>
<polygon fill="black" stroke="black" points="1024.99,-225.12 1024.6,-235.71 1031.51,-227.68 1024.99,-225.12"/>
<text text-anchor="middle" x="1061.76" y="-133.27" font-family="Times,serif" font-size="14.00">a</text>
</g>
<!-- http://purl.org/oseg/ontologies/OTRL#OTRL&#45;2 -->
<g id="node13" class="node">
<title>http://purl.org/oseg/ontologies/OTRL#OTRL&#45;2</title>
<ellipse fill="none" stroke="#e377c2" cx="756.82" cy="-118.52" rx="49.49" ry="16.03"/>
<text text-anchor="middle" x="756.82" y="-114.82" font-family="Times,serif" font-size="14.00">OTRL&#45;2</text>
</g>
<!-- http://purl.org/oseg/ontologies/OTRL#OTRL&#45;2&#45;&gt;http://purl.org/oseg/ontologies/OTRL#OTRL -->
<g id="edge23" class="edge">
<title>http://purl.org/oseg/ontologies/OTRL#OTRL&#45;2&#45;&gt;http://purl.org/oseg/ontologies/OTRL#OTRL</title>
<path fill="none" stroke="black" d="M754.49,-135.02C749.18,-172.75 736.08,-265.66 729.62,-311.5"/>
<polygon fill="black" stroke="black" points="726.13,-311.17 728.2,-321.56 733.06,-312.15 726.13,-311.17"/>
</g>
<!-- http://purl.org/oseg/ontologies/OTRL#OTRL&#45;2&#45;&gt;http://www.w3.org/2002/07/owl#class -->
<g id="edge30" class="edge">
<title>http://purl.org/oseg/ontologies/OTRL#OTRL&#45;2&#45;&gt;http://www.w3.org/2002/07/owl#class</title>
<path fill="none" stroke="black" d="M783.81,-132.31C830.81,-156.31 927.77,-205.82 981.08,-233.04"/>
<polygon fill="black" stroke="black" points="979.69,-236.26 990.19,-237.69 982.87,-230.03 979.69,-236.26"/>
<text text-anchor="middle" x="877.94" y="-186.47" font-family="Times,serif" font-size="14.00">a</text>
</g>
<!-- http://purl.org/oseg/ontologies/OTRL#OTRL&#45;7 -->
<g id="node14" class="node">
<title>http://purl.org/oseg/ontologies/OTRL#OTRL&#45;7</title>
<ellipse fill="none" stroke="#e377c2" cx="850.83" cy="-286.57" rx="49.49" ry="16.03"/>
<text text-anchor="middle" x="850.83" y="-282.87" font-family="Times,serif" font-size="14.00">OTRL&#45;7</text>
</g>
<!-- http://purl.org/oseg/ontologies/OTRL#OTRL&#45;7&#45;&gt;http://purl.org/oseg/ontologies/OTRL#OTRL -->
<g id="edge5" class="edge">
<title>http://purl.org/oseg/ontologies/OTRL#OTRL&#45;7&#45;&gt;http://purl.org/oseg/ontologies/OTRL#OTRL</title>
<path fill="none" stroke="black" d="M819.63,-299.4C802.67,-306.37 781.58,-315.04 763.7,-322.4"/>
<polygon fill="black" stroke="black" points="762.06,-319.29 754.14,-326.33 764.72,-325.76 762.06,-319.29"/>
</g>
<!-- http://purl.org/oseg/ontologies/OTRL#OTRL&#45;7&#45;&gt;http://www.w3.org/2002/07/owl#class -->
<g id="edge6" class="edge">
<title>http://purl.org/oseg/ontologies/OTRL#OTRL&#45;7&#45;&gt;http://www.w3.org/2002/07/owl#class</title>
<path fill="none" stroke="black" d="M893.07,-277.84C913.9,-273.54 939.31,-268.3 961.77,-263.66"/>
<polygon fill="black" stroke="black" points="962.78,-267.02 971.86,-261.57 961.36,-260.17 962.78,-267.02"/>
<text text-anchor="middle" x="922.92" y="-274.55" font-family="Times,serif" font-size="14.00">a</text>
</g>
<!-- http://purl.org/oseg/ontologies/OTRL#OTRL&#45;6 -->
<g id="node15" class="node">
<title>http://purl.org/oseg/ontologies/OTRL#OTRL&#45;6</title>
<ellipse fill="none" stroke="#e377c2" cx="962.02" cy="-460.45" rx="49.49" ry="16.03"/>
<text text-anchor="middle" x="962.02" y="-456.75" font-family="Times,serif" font-size="14.00">OTRL&#45;6</text>
</g>
<!-- http://purl.org/oseg/ontologies/OTRL#OTRL&#45;6&#45;&gt;http://purl.org/oseg/ontologies/OTRL#OTRL -->
<g id="edge26" class="edge">
<title>http://purl.org/oseg/ontologies/OTRL#OTRL&#45;6&#45;&gt;http://purl.org/oseg/ontologies/OTRL#OTRL</title>
<path fill="none" stroke="black" d="M935.39,-446.63C892.2,-424.22 806.93,-379.99 759.58,-355.42"/>
<polygon fill="black" stroke="black" points="761.13,-352.28 750.64,-350.78 757.91,-358.5 761.13,-352.28"/>
</g>
<!-- http://purl.org/oseg/ontologies/OTRL#OTRL&#45;6&#45;&gt;http://www.w3.org/2002/07/owl#class -->
<g id="edge7" class="edge">
<title>http://purl.org/oseg/ontologies/OTRL#OTRL&#45;6&#45;&gt;http://www.w3.org/2002/07/owl#class</title>
<path fill="none" stroke="black" d="M966.43,-444.09C976.13,-408.09 999.41,-321.75 1011.16,-278.15"/>
<polygon fill="black" stroke="black" points="1014.6,-278.85 1013.82,-268.28 1007.84,-277.03 1014.6,-278.85"/>
<text text-anchor="middle" x="984.3" y="-364.92" font-family="Times,serif" font-size="14.00">a</text>
</g>
<!-- http://purl.org/oseg/ontologies/OTRL#OTRL&#45;1 -->
<g id="node16" class="node">
<title>http://purl.org/oseg/ontologies/OTRL#OTRL&#45;1</title>
<ellipse fill="none" stroke="#e377c2" cx="880.58" cy="-503.91" rx="49.49" ry="16.03"/>
<text text-anchor="middle" x="880.58" y="-500.21" font-family="Times,serif" font-size="14.00">OTRL&#45;1</text>
</g>
<!-- http://purl.org/oseg/ontologies/OTRL#OTRL&#45;1&#45;&gt;http://purl.org/oseg/ontologies/OTRL#OTRL -->
<g id="edge37" class="edge">
<title>http://purl.org/oseg/ontologies/OTRL#OTRL&#45;1&#45;&gt;http://purl.org/oseg/ontologies/OTRL#OTRL</title>
<path fill="none" stroke="black" d="M866.03,-488.29C838.6,-458.86 779.13,-395.06 747.19,-360.79"/>
<polygon fill="black" stroke="black" points="749.45,-358.08 740.07,-353.15 744.33,-362.86 749.45,-358.08"/>
</g>
<!-- http://purl.org/oseg/ontologies/OTRL#OTRL&#45;1&#45;&gt;http://www.w3.org/2002/07/owl#class -->
<g id="edge10" class="edge">
<title>http://purl.org/oseg/ontologies/OTRL#OTRL&#45;1&#45;&gt;http://www.w3.org/2002/07/owl#class</title>
<path fill="none" stroke="black" d="M889.4,-487.77C912.75,-445.04 976.29,-328.72 1004.46,-277.17"/>
<polygon fill="black" stroke="black" points="1007.56,-278.79 1009.29,-268.33 1001.42,-275.43 1007.56,-278.79"/>
<text text-anchor="middle" x="942.43" y="-371.27" font-family="Times,serif" font-size="14.00">a</text>
</g>
<!-- http://purl.org/oseg/ontologies/OTRL#ODRL&#45;4 -->
<g id="node17" class="node">
<title>http://purl.org/oseg/ontologies/OTRL#ODRL&#45;4</title>
<ellipse fill="none" stroke="#e377c2" cx="1288.73" cy="-346.83" rx="50.82" ry="16.03"/>
<text text-anchor="middle" x="1288.73" y="-343.13" font-family="Times,serif" font-size="14.00">ODRL&#45;4</text>
</g>
<!-- http://purl.org/oseg/ontologies/OTRL#ODRL&#45;4&#45;&gt;http://purl.org/oseg/ontologies/OTRL#ODRL -->
<g id="edge9" class="edge">
<title>http://purl.org/oseg/ontologies/OTRL#ODRL&#45;4&#45;&gt;http://purl.org/oseg/ontologies/OTRL#ODRL</title>
<path fill="none" stroke="black" d="M1281.05,-330.56C1268.82,-304.63 1244.8,-253.74 1230.27,-222.94"/>
<polygon fill="black" stroke="black" points="1233.35,-221.26 1225.92,-213.71 1227.02,-224.25 1233.35,-221.26"/>
</g>
<!-- http://purl.org/oseg/ontologies/OTRL#ODRL&#45;4&#45;&gt;http://www.w3.org/2002/07/owl#class -->
<g id="edge31" class="edge">
<title>http://purl.org/oseg/ontologies/OTRL#ODRL&#45;4&#45;&gt;http://www.w3.org/2002/07/owl#class</title>
<path fill="none" stroke="black" d="M1254.19,-334.73C1205.78,-317.76 1117.67,-286.87 1063.89,-268.01"/>
<polygon fill="black" stroke="black" points="1064.86,-264.65 1054.26,-264.64 1062.54,-271.25 1064.86,-264.65"/>
<text text-anchor="middle" x="1154.54" y="-305.17" font-family="Times,serif" font-size="14.00">a</text>
</g>
<!-- http://purl.org/oseg/ontologies/OTRL#OTRL&#45;3 -->
<g id="node18" class="node">
<title>http://purl.org/oseg/ontologies/OTRL#OTRL&#45;3</title>
<ellipse fill="none" stroke="#e377c2" cx="745.27" cy="-195.27" rx="49.49" ry="16.03"/>
<text text-anchor="middle" x="745.27" y="-191.57" font-family="Times,serif" font-size="14.00">OTRL&#45;3</text>
</g>
<!-- http://purl.org/oseg/ontologies/OTRL#OTRL&#45;3&#45;&gt;http://purl.org/oseg/ontologies/OTRL#OTRL -->
<g id="edge17" class="edge">
<title>http://purl.org/oseg/ontologies/OTRL#OTRL&#45;3&#45;&gt;http://purl.org/oseg/ontologies/OTRL#OTRL</title>
<path fill="none" stroke="black" d="M743.04,-211.64C739.73,-236.02 733.47,-282.13 729.5,-311.39"/>
<polygon fill="black" stroke="black" points="726.03,-310.95 728.15,-321.33 732.96,-311.89 726.03,-310.95"/>
</g>
<!-- http://purl.org/oseg/ontologies/OTRL#OTRL&#45;3&#45;&gt;http://www.w3.org/2002/07/owl#class -->
<g id="edge32" class="edge">
<title>http://purl.org/oseg/ontologies/OTRL#OTRL&#45;3&#45;&gt;http://www.w3.org/2002/07/owl#class</title>
<path fill="none" stroke="black" d="M787.32,-204.01C834,-213.71 909.6,-229.43 961.49,-240.21"/>
<polygon fill="black" stroke="black" points="961.03,-243.69 971.54,-242.3 962.46,-236.84 961.03,-243.69"/>
<text text-anchor="middle" x="869.9" y="-225.91" font-family="Times,serif" font-size="14.00">a</text>
</g>
<!-- http://purl.org/oseg/ontologies/OTRL#hardwareDescription -->
<g id="node19" class="node">
<title>http://purl.org/oseg/ontologies/OTRL#hardwareDescription</title>
<ellipse fill="none" stroke="#e377c2" cx="394.02" cy="-375.84" rx="118.17" ry="16.03"/>
<text text-anchor="middle" x="394.02" y="-372.14" font-family="Times,serif" font-size="14.00">hardwareDescription</text>
</g>
<!-- http://purl.org/oseg/ontologies/OTRL#hardwareDescription&#45;&gt;http://purl.org/oseg/ontologies/OTRL#OTRL -->
<g id="edge21" class="edge">
<title>http://purl.org/oseg/ontologies/OTRL#hardwareDescription&#45;&gt;http://purl.org/oseg/ontologies/OTRL#OTRL</title>
<path fill="none" stroke="black" d="M485.15,-365.43C547.26,-358.34 627.06,-349.23 677.36,-343.49"/>
<polygon fill="black" stroke="black" points="677.78,-346.96 687.32,-342.35 676.99,-340 677.78,-346.96"/>
<text text-anchor="middle" x="554.75" y="-358.26" font-family="Times,serif" font-size="14.00">domain</text>
</g>
<!-- http://purl.org/oseg/ontologies/OTRL#hardwareDescription&#45;&gt;http://www.w3.org/2002/07/owl#DatatypeProperty -->
<g id="edge13" class="edge">
<title>http://purl.org/oseg/ontologies/OTRL#hardwareDescription&#45;&gt;http://www.w3.org/2002/07/owl#DatatypeProperty</title>
<path fill="none" stroke="black" d="M359.74,-391.48C310.76,-413.84 220.74,-454.94 167.03,-479.45"/>
<polygon fill="black" stroke="black" points="165.41,-476.34 157.77,-483.68 168.32,-482.71 165.41,-476.34"/>
<text text-anchor="middle" x="258.89" y="-439.27" font-family="Times,serif" font-size="14.00">a</text>
</g>
<!-- http://purl.org/oseg/ontologies/OTRL#hardwareDescription&#45;&gt;http://schema.org/Text -->
<g id="edge19" class="edge">
<title>http://purl.org/oseg/ontologies/OTRL#hardwareDescription&#45;&gt;http://schema.org/Text</title>
<path fill="none" stroke="black" d="M379.16,-392C347.7,-426.22 274.24,-506.11 237.66,-545.9"/>
<polygon fill="black" stroke="black" points="235.05,-543.57 230.86,-553.3 240.2,-548.3 235.05,-543.57"/>
<text text-anchor="middle" x="287.41" y="-457.75" font-family="Times,serif" font-size="14.00">range</text>
</g>
<!-- http://purl.org/oseg/ontologies/OTRL#ODRL&#45;0 -->
<g id="node20" class="node">
<title>http://purl.org/oseg/ontologies/OTRL#ODRL&#45;0</title>
<ellipse fill="none" stroke="#e377c2" cx="1227.24" cy="-40.52" rx="50.82" ry="16.03"/>
<text text-anchor="middle" x="1227.24" y="-36.82" font-family="Times,serif" font-size="14.00">ODRL&#45;0</text>
</g>
<!-- http://purl.org/oseg/ontologies/OTRL#ODRL&#45;0&#45;&gt;http://purl.org/oseg/ontologies/OTRL#ODRL -->
<g id="edge46" class="edge">
<title>http://purl.org/oseg/ontologies/OTRL#ODRL&#45;0&#45;&gt;http://purl.org/oseg/ontologies/OTRL#ODRL</title>
<path fill="none" stroke="black" d="M1226.3,-57.02C1224.74,-84.17 1221.63,-138.5 1219.76,-171.05"/>
<polygon fill="black" stroke="black" points="1216.26,-171 1219.18,-181.18 1223.25,-171.4 1216.26,-171"/>
</g>
<!-- http://purl.org/oseg/ontologies/OTRL#ODRL&#45;0&#45;&gt;http://www.w3.org/2002/07/owl#class -->
<g id="edge14" class="edge">
<title>http://purl.org/oseg/ontologies/OTRL#ODRL&#45;0&#45;&gt;http://www.w3.org/2002/07/owl#class</title>
<path fill="none" stroke="black" d="M1211.87,-56.07C1175.49,-92.88 1083.96,-185.48 1041.06,-228.88"/>
<polygon fill="black" stroke="black" points="1038.43,-226.57 1033.89,-236.14 1043.41,-231.49 1038.43,-226.57"/>
<text text-anchor="middle" x="1121.97" y="-146.28" font-family="Times,serif" font-size="14.00">a</text>
</g>
<!-- http://purl.org/oseg/ontologies/OTRL#OTRL&#45;8 -->
<g id="node21" class="node">
<title>http://purl.org/oseg/ontologies/OTRL#OTRL&#45;8</title>
<ellipse fill="none" stroke="#e377c2" cx="830.36" cy="-443.87" rx="49.49" ry="16.03"/>
<text text-anchor="middle" x="830.36" y="-440.17" font-family="Times,serif" font-size="14.00">OTRL&#45;8</text>
</g>
<!-- http://purl.org/oseg/ontologies/OTRL#OTRL&#45;8&#45;&gt;http://purl.org/oseg/ontologies/OTRL#OTRL -->
<g id="edge36" class="edge">
<title>http://purl.org/oseg/ontologies/OTRL#OTRL&#45;8&#45;&gt;http://purl.org/oseg/ontologies/OTRL#OTRL</title>
<path fill="none" stroke="black" d="M814.95,-428.24C797.33,-410.38 768.35,-381 748.26,-360.62"/>
<polygon fill="black" stroke="black" points="750.55,-357.96 741.03,-353.29 745.56,-362.87 750.55,-357.96"/>
</g>
<!-- http://purl.org/oseg/ontologies/OTRL#OTRL&#45;8&#45;&gt;http://www.w3.org/2002/07/owl#class -->
<g id="edge18" class="edge">
<title>http://purl.org/oseg/ontologies/OTRL#OTRL&#45;8&#45;&gt;http://www.w3.org/2002/07/owl#class</title>
<path fill="none" stroke="black" d="M845.73,-428.17C878.76,-394.44 956.61,-314.92 995.41,-275.29"/>
<polygon fill="black" stroke="black" points="998.13,-277.52 1002.62,-267.92 993.13,-272.62 998.13,-277.52"/>
<text text-anchor="middle" x="916.07" y="-355.53" font-family="Times,serif" font-size="14.00">a</text>
</g>
<!-- http://purl.org/oseg/ontologies/OTRL#ODRL&#45;5 -->
<g id="node22" class="node">
<title>http://purl.org/oseg/ontologies/OTRL#ODRL&#45;5</title>
<ellipse fill="none" stroke="#e377c2" cx="1285.03" cy="-111.9" rx="50.82" ry="16.03"/>
<text text-anchor="middle" x="1285.03" y="-108.2" font-family="Times,serif" font-size="14.00">ODRL&#45;5</text>
</g>
<!-- http://purl.org/oseg/ontologies/OTRL#ODRL&#45;5&#45;&gt;http://purl.org/oseg/ontologies/OTRL#ODRL -->
<g id="edge29" class="edge">
<title>http://purl.org/oseg/ontologies/OTRL#ODRL&#45;5&#45;&gt;http://purl.org/oseg/ontologies/OTRL#ODRL</title>
<path fill="none" stroke="black" d="M1272.47,-128C1262.43,-140.86 1248.2,-159.09 1236.83,-173.65"/>
<polygon fill="black" stroke="black" points="1233.92,-171.69 1230.53,-181.73 1239.44,-176 1233.92,-171.69"/>
</g>
<!-- http://purl.org/oseg/ontologies/OTRL#ODRL&#45;5&#45;&gt;http://www.w3.org/2002/07/owl#class -->
<g id="edge38" class="edge">
<title>http://purl.org/oseg/ontologies/OTRL#ODRL&#45;5&#45;&gt;http://www.w3.org/2002/07/owl#class</title>
<path fill="none" stroke="black" d="M1258.47,-125.85C1210.37,-151.1 1108.8,-204.44 1054.4,-233"/>
<polygon fill="black" stroke="black" points="1052.68,-229.95 1045.46,-237.7 1055.94,-236.15 1052.68,-229.95"/>
<text text-anchor="middle" x="1151.94" y="-183.22" font-family="Times,serif" font-size="14.00">a</text>
</g>
<!-- http://purl.org/oseg/ontologies/OTRL -->
<g id="node23" class="node">
<title>http://purl.org/oseg/ontologies/OTRL</title>
<ellipse fill="none" stroke="#e377c2" cx="1218.95" cy="-584.42" rx="60.62" ry="16.03"/>
<text text-anchor="middle" x="1218.95" y="-580.72" font-family="Times,serif" font-size="14.00">ns1:OTRL</text>
</g>
<!-- http://purl.org/oseg/ontologies/OTRL&#45;&gt;http://www.w3.org/2002/07/owl#Ontology -->
<g id="edge39" class="edge">
<title>http://purl.org/oseg/ontologies/OTRL&#45;&gt;http://www.w3.org/2002/07/owl#Ontology</title>
<path fill="none" stroke="black" d="M1165.65,-592.38C1158.94,-593.38 1151.98,-594.42 1145.02,-595.46"/>
<polygon fill="black" stroke="black" points="1144.22,-592.04 1134.85,-596.98 1145.26,-598.96 1144.22,-592.04"/>
<text text-anchor="middle" x="1153.08" y="-582.72" font-family="Times,serif" font-size="14.00">a</text>
</g>
<!-- http://purl.org/oseg/ontologies/OTRL&#45;&gt;http://purl.org/oseg/ontologies/OTRL -->
<g id="edge41" class="edge">
<title>http://purl.org/oseg/ontologies/OTRL&#45;&gt;http://purl.org/oseg/ontologies/OTRL</title>
<path fill="none" stroke="black" d="M1274.55,-591.05C1287.89,-590.53 1297.76,-588.32 1297.76,-584.42 1297.76,-581.58 1292.55,-579.64 1284.58,-578.59"/>
<polygon fill="black" stroke="black" points="1284.8,-575.1 1274.55,-577.78 1284.24,-582.07 1284.8,-575.1"/>
<text text-anchor="middle" x="1349.26" y="-580.72" font-family="Times,serif" font-size="14.00">owl:versionIRI</text>
</g>
<!-- http://purl.org/oseg/ontologies/OTRL#softwareDescription -->
<g id="node24" class="node">
<title>http://purl.org/oseg/ontologies/OTRL#softwareDescription</title>
<ellipse fill="none" stroke="#e377c2" cx="473.35" cy="-580.42" rx="113.69" ry="16.03"/>
<text text-anchor="middle" x="473.35" y="-576.72" font-family="Times,serif" font-size="14.00">softwareDescription</text>
</g>
<!-- http://purl.org/oseg/ontologies/OTRL#softwareDescription&#45;&gt;http://purl.org/oseg/ontologies/OTRL#OTRL -->
<g id="edge16" class="edge">
<title>http://purl.org/oseg/ontologies/OTRL#softwareDescription&#45;&gt;http://purl.org/oseg/ontologies/OTRL#OTRL</title>
<path fill="none" stroke="black" d="M490.32,-564.14C534.41,-521.8 652.67,-408.25 702.86,-360.06"/>
<polygon fill="black" stroke="black" points="705.52,-362.36 710.31,-352.91 700.67,-357.31 705.52,-362.36"/>
<text text-anchor="middle" x="570.09" y="-465.9" font-family="Times,serif" font-size="14.00">domain</text>
</g>
<!-- http://purl.org/oseg/ontologies/OTRL#softwareDescription&#45;&gt;http://www.w3.org/2002/07/owl#DatatypeProperty -->
<g id="edge20" class="edge">
<title>http://purl.org/oseg/ontologies/OTRL#softwareDescription&#45;&gt;http://www.w3.org/2002/07/owl#DatatypeProperty</title>
<path fill="none" stroke="black" d="M413.18,-566.49C352.52,-552.45 258.88,-530.77 194.55,-515.88"/>
<polygon fill="black" stroke="black" points="195.02,-512.4 184.48,-513.55 193.44,-519.22 195.02,-512.4"/>
<text text-anchor="middle" x="299.37" y="-544.99" font-family="Times,serif" font-size="14.00">a</text>
</g>
<!-- http://purl.org/oseg/ontologies/OTRL#softwareDescription&#45;&gt;http://schema.org/Text -->
<g id="edge28" class="edge">
<title>http://purl.org/oseg/ontologies/OTRL#softwareDescription&#45;&gt;http://schema.org/Text</title>
<path fill="none" stroke="black" d="M364.28,-575.69C342.85,-574.77 320.68,-573.8 300.22,-572.92"/>
<polygon fill="black" stroke="black" points="300.15,-569.41 290.01,-572.47 299.85,-576.4 300.15,-569.41"/>
<text text-anchor="middle" x="332.25" y="-563.11" font-family="Times,serif" font-size="14.00">range</text>
</g>
<!-- http://purl.org/oseg/ontologies/OTRL#ODRL&#45;1 -->
<g id="node25" class="node">
<title>http://purl.org/oseg/ontologies/OTRL#ODRL&#45;1</title>
<ellipse fill="none" stroke="#e377c2" cx="1223.96" cy="-404.73" rx="50.82" ry="16.03"/>
<text text-anchor="middle" x="1223.96" y="-401.03" font-family="Times,serif" font-size="14.00">ODRL&#45;1</text>
</g>
<!-- http://purl.org/oseg/ontologies/OTRL#ODRL&#45;1&#45;&gt;http://purl.org/oseg/ontologies/OTRL#ODRL -->
<g id="edge34" class="edge">
<title>http://purl.org/oseg/ontologies/OTRL#ODRL&#45;1&#45;&gt;http://purl.org/oseg/ontologies/OTRL#ODRL</title>
<path fill="none" stroke="black" d="M1223.51,-388.46C1222.53,-352.83 1220.18,-267.6 1218.98,-224.05"/>
<polygon fill="black" stroke="black" points="1222.48,-223.83 1218.7,-213.93 1215.48,-224.03 1222.48,-223.83"/>
</g>
<!-- http://purl.org/oseg/ontologies/OTRL#ODRL&#45;1&#45;&gt;http://www.w3.org/2002/07/owl#class -->
<g id="edge42" class="edge">
<title>http://purl.org/oseg/ontologies/OTRL#ODRL&#45;1&#45;&gt;http://www.w3.org/2002/07/owl#class</title>
<path fill="none" stroke="black" d="M1203.48,-389.52C1166.68,-362.21 1089.28,-304.76 1047.1,-273.45"/>
<polygon fill="black" stroke="black" points="1049.03,-270.52 1038.91,-267.37 1044.85,-276.14 1049.03,-270.52"/>
<text text-anchor="middle" x="1120.79" y="-335.29" font-family="Times,serif" font-size="14.00">a</text>
</g>
<!-- http://purl.org/oseg/ontologies/OTRL#ODRL&#45;2 -->
<g id="node26" class="node">
<title>http://purl.org/oseg/ontologies/OTRL#ODRL&#45;2</title>
<ellipse fill="none" stroke="#e377c2" cx="1317.81" cy="-247.99" rx="50.82" ry="16.03"/>
<text text-anchor="middle" x="1317.81" y="-244.29" font-family="Times,serif" font-size="14.00">ODRL&#45;2</text>
</g>
<!-- http://purl.org/oseg/ontologies/OTRL#ODRL&#45;2&#45;&gt;http://purl.org/oseg/ontologies/OTRL#ODRL -->
<g id="edge35" class="edge">
<title>http://purl.org/oseg/ontologies/OTRL#ODRL&#45;2&#45;&gt;http://purl.org/oseg/ontologies/OTRL#ODRL</title>
<path fill="none" stroke="black" d="M1290.61,-234.18C1278.95,-228.27 1265.21,-221.29 1252.84,-215.02"/>
<polygon fill="black" stroke="black" points="1254.21,-211.79 1243.71,-210.38 1251.04,-218.03 1254.21,-211.79"/>
</g>
<!-- http://purl.org/oseg/ontologies/OTRL#ODRL&#45;2&#45;&gt;http://www.w3.org/2002/07/owl#class -->
<g id="edge45" class="edge">
<title>http://purl.org/oseg/ontologies/OTRL#ODRL&#45;2&#45;&gt;http://www.w3.org/2002/07/owl#class</title>
<path fill="none" stroke="black" d="M1266.65,-248.68C1216.8,-249.34 1140.71,-250.36 1085.88,-251.1"/>
<polygon fill="black" stroke="black" points="1085.51,-247.6 1075.55,-251.23 1085.6,-254.6 1085.51,-247.6"/>
<text text-anchor="middle" x="1171.76" y="-253.69" font-family="Times,serif" font-size="14.00">a</text>
</g>
</g>
</svg>
