<?xml version="1.0" encoding="UTF-8" standalone="no"?>
<!DOCTYPE svg PUBLIC "-//W3C//DTD SVG 1.1//EN"
 "http://www.w3.org/Graphics/SVG/1.1/DTD/svg11.dtd">
<!-- Generated by graphviz version 2.43.0 (0)
 -->
<!-- Title: G Pages: 1 -->
<svg width="779pt" height="484pt"
 viewBox="0.00 0.00 778.76 484.00" xmlns="http://www.w3.org/2000/svg" xmlns:xlink="http://www.w3.org/1999/xlink">
<g id="graph0" class="graph" transform="scale(1 1) rotate(0) translate(4 480)">
<title>G</title>
<polygon fill="white" stroke="transparent" points="-4,4 -4,-480 774.76,-480 774.76,4 -4,4"/>
<!-- http://purl.org/oseg/ontologies/OTRL#ODRL -->
<g id="node1" class="node">
<title>http://purl.org/oseg/ontologies/OTRL#ODRL</title>
<ellipse fill="none" stroke="#e377c2" cx="213.37" cy="-233.46" rx="41.94" ry="16.03"/>
<text text-anchor="middle" x="213.37" y="-229.76" font-family="Times,serif" font-size="14.00">ODRL</text>
</g>
<!-- http://www.w3.org/2002/07/owl#class -->
<g id="node3" class="node">
<title>http://www.w3.org/2002/07/owl#class</title>
<ellipse fill="none" stroke="#1f77b4" cx="209.41" cy="-187.16" rx="57.05" ry="16.03"/>
<text text-anchor="middle" x="209.41" y="-183.46" font-family="Times,serif" font-size="14.00">owl:class</text>
</g>
<!-- http://purl.org/oseg/ontologies/OTRL#ODRL&#45;&gt;http://www.w3.org/2002/07/owl#class -->
<g id="edge5" class="edge">
<title>http://purl.org/oseg/ontologies/OTRL#ODRL&#45;&gt;http://www.w3.org/2002/07/owl#class</title>
<path fill="none" stroke="black" d="M211.96,-217.01C211.87,-215.92 211.78,-214.8 211.68,-213.68"/>
<polygon fill="black" stroke="black" points="215.15,-213.23 210.81,-203.56 208.18,-213.82 215.15,-213.23"/>
<text text-anchor="middle" x="207.32" y="-204.14" font-family="Times,serif" font-size="14.00">a</text>
</g>
<!-- http://www.w3.org/2002/07/owl#Ontology -->
<g id="node2" class="node">
<title>http://www.w3.org/2002/07/owl#Ontology</title>
<ellipse fill="none" stroke="#1f77b4" cx="441.32" cy="-168.47" rx="77.56" ry="16.03"/>
<text text-anchor="middle" x="441.32" y="-164.77" font-family="Times,serif" font-size="14.00">owl:Ontology</text>
</g>
<!-- http://purl.org/oseg/ontologies/OTRL#OTRL -->
<g id="node4" class="node">
<title>http://purl.org/oseg/ontologies/OTRL#OTRL</title>
<ellipse fill="none" stroke="#e377c2" cx="204.48" cy="-135.48" rx="39.7" ry="16.03"/>
<text text-anchor="middle" x="204.48" y="-131.78" font-family="Times,serif" font-size="14.00">OTRL</text>
</g>
<!-- http://purl.org/oseg/ontologies/OTRL#OTRL&#45;&gt;http://www.w3.org/2002/07/owl#class -->
<g id="edge1" class="edge">
<title>http://purl.org/oseg/ontologies/OTRL#OTRL&#45;&gt;http://www.w3.org/2002/07/owl#class</title>
<path fill="none" stroke="black" d="M206.04,-151.83C206.31,-154.66 206.6,-157.67 206.89,-160.68"/>
<polygon fill="black" stroke="black" points="203.41,-161.12 207.85,-170.74 210.38,-160.45 203.41,-161.12"/>
<text text-anchor="middle" x="201.96" y="-160.06" font-family="Times,serif" font-size="14.00">a</text>
</g>
<!-- http://www.w3.org/2002/07/owl#DatatypeProperty -->
<g id="node5" class="node">
<title>http://www.w3.org/2002/07/owl#DatatypeProperty</title>
<ellipse fill="none" stroke="#1f77b4" cx="461.48" cy="-414.55" rx="123.07" ry="16.03"/>
<text text-anchor="middle" x="461.48" y="-410.85" font-family="Times,serif" font-size="14.00">owl:DatatypeProperty</text>
</g>
<!-- http://purl.org/oseg/ontologies/OTRL#exitCriteria -->
<g id="node6" class="node">
<title>http://purl.org/oseg/ontologies/OTRL#exitCriteria</title>
<ellipse fill="none" stroke="#e377c2" cx="542.53" cy="-373.6" rx="70.01" ry="16.03"/>
<text text-anchor="middle" x="542.53" y="-369.9" font-family="Times,serif" font-size="14.00">exitCriteria</text>
</g>
<!-- http://purl.org/oseg/ontologies/OTRL#exitCriteria&#45;&gt;http://www.w3.org/2002/07/owl#DatatypeProperty -->
<g id="edge15" class="edge">
<title>http://purl.org/oseg/ontologies/OTRL#exitCriteria&#45;&gt;http://www.w3.org/2002/07/owl#DatatypeProperty</title>
<path fill="none" stroke="black" d="M513.27,-388.38C509.55,-390.26 505.69,-392.21 501.83,-394.16"/>
<polygon fill="black" stroke="black" points="500.24,-391.05 492.89,-398.68 503.39,-397.29 500.24,-391.05"/>
<text text-anchor="middle" x="503.05" y="-395.07" font-family="Times,serif" font-size="14.00">a</text>
</g>
<!-- http://schema.org/Text -->
<g id="node7" class="node">
<title>http://schema.org/Text</title>
<ellipse fill="none" stroke="#e377c2" cx="526.4" cy="-328.28" rx="74.91" ry="16.03"/>
<text text-anchor="middle" x="526.4" y="-324.58" font-family="Times,serif" font-size="14.00">schema:Text</text>
</g>
<!-- http://purl.org/oseg/ontologies/OTRL#exitCriteria&#45;&gt;http://schema.org/Text -->
<g id="edge3" class="edge">
<title>http://purl.org/oseg/ontologies/OTRL#exitCriteria&#45;&gt;http://schema.org/Text</title>
<path fill="none" stroke="black" d="M536.71,-357.24C536.39,-356.35 536.07,-355.45 535.75,-354.54"/>
<polygon fill="black" stroke="black" points="538.92,-353.02 532.27,-344.77 532.32,-355.36 538.92,-353.02"/>
<text text-anchor="middle" x="515.23" y="-344.69" font-family="Times,serif" font-size="14.00">range</text>
</g>
<!-- http://purl.org/oseg/ontologies/OTRL#ODRL&#45;5 -->
<g id="node8" class="node">
<title>http://purl.org/oseg/ontologies/OTRL#ODRL&#45;5</title>
<ellipse fill="none" stroke="#e377c2" cx="142.15" cy="-354.08" rx="50.82" ry="16.03"/>
<text text-anchor="middle" x="142.15" y="-350.38" font-family="Times,serif" font-size="14.00">ODRL&#45;5</text>
</g>
<!-- http://purl.org/oseg/ontologies/OTRL#ODRL&#45;5&#45;&gt;http://purl.org/oseg/ontologies/OTRL#ODRL -->
<g id="edge22" class="edge">
<title>http://purl.org/oseg/ontologies/OTRL#ODRL&#45;5&#45;&gt;http://purl.org/oseg/ontologies/OTRL#ODRL</title>
<path fill="none" stroke="black" d="M151.76,-337.81C163.82,-317.38 184.65,-282.1 198.71,-258.29"/>
<polygon fill="black" stroke="black" points="201.85,-259.86 203.92,-249.47 195.82,-256.3 201.85,-259.86"/>
</g>
<!-- http://purl.org/oseg/ontologies/OTRL#ODRL&#45;5&#45;&gt;http://www.w3.org/2002/07/owl#class -->
<g id="edge18" class="edge">
<title>http://purl.org/oseg/ontologies/OTRL#ODRL&#45;5&#45;&gt;http://www.w3.org/2002/07/owl#class</title>
<path fill="none" stroke="black" d="M148.72,-337.77C160.4,-308.8 184.84,-248.14 198.88,-213.29"/>
<polygon fill="black" stroke="black" points="202.22,-214.36 202.71,-203.78 195.73,-211.75 202.22,-214.36"/>
<text text-anchor="middle" x="169.3" y="-279.33" font-family="Times,serif" font-size="14.00">a</text>
</g>
<!-- http://purl.org/oseg/ontologies/OTRL#OTRL&#45;3 -->
<g id="node9" class="node">
<title>http://purl.org/oseg/ontologies/OTRL#OTRL&#45;3</title>
<ellipse fill="none" stroke="#e377c2" cx="350.94" cy="-91.59" rx="49.49" ry="16.03"/>
<text text-anchor="middle" x="350.94" y="-87.89" font-family="Times,serif" font-size="14.00">OTRL&#45;3</text>
</g>
<!-- http://purl.org/oseg/ontologies/OTRL#OTRL&#45;3&#45;&gt;http://www.w3.org/2002/07/owl#class -->
<g id="edge2" class="edge">
<title>http://purl.org/oseg/ontologies/OTRL#OTRL&#45;3&#45;&gt;http://www.w3.org/2002/07/owl#class</title>
<path fill="none" stroke="black" d="M329.14,-106.31C305.45,-122.3 267.41,-147.99 240.58,-166.11"/>
<polygon fill="black" stroke="black" points="238.27,-163.45 231.94,-171.94 242.19,-169.25 238.27,-163.45"/>
<text text-anchor="middle" x="280.36" y="-140.01" font-family="Times,serif" font-size="14.00">a</text>
</g>
<!-- http://purl.org/oseg/ontologies/OTRL#OTRL&#45;3&#45;&gt;http://purl.org/oseg/ontologies/OTRL#OTRL -->
<g id="edge17" class="edge">
<title>http://purl.org/oseg/ontologies/OTRL#OTRL&#45;3&#45;&gt;http://purl.org/oseg/ontologies/OTRL#OTRL</title>
<path fill="none" stroke="black" d="M314.36,-102.55C293.73,-108.73 267.88,-116.48 246.43,-122.91"/>
<polygon fill="black" stroke="black" points="245.19,-119.63 236.62,-125.85 247.2,-126.33 245.19,-119.63"/>
</g>
<!-- http://purl.org/oseg/ontologies/OTRL#goal -->
<g id="node10" class="node">
<title>http://purl.org/oseg/ontologies/OTRL#goal</title>
<ellipse fill="none" stroke="#e377c2" cx="476.79" cy="-459.68" rx="33.47" ry="16.03"/>
<text text-anchor="middle" x="476.79" y="-455.98" font-family="Times,serif" font-size="14.00">goal</text>
</g>
<!-- http://purl.org/oseg/ontologies/OTRL#goal&#45;&gt;http://www.w3.org/2002/07/owl#DatatypeProperty -->
<g id="edge4" class="edge">
<title>http://purl.org/oseg/ontologies/OTRL#goal&#45;&gt;http://www.w3.org/2002/07/owl#DatatypeProperty</title>
<path fill="none" stroke="black" d="M471.26,-443.39C470.96,-442.5 470.66,-441.61 470.35,-440.7"/>
<polygon fill="black" stroke="black" points="473.58,-439.32 467.05,-430.97 466.95,-441.56 473.58,-439.32"/>
<text text-anchor="middle" x="466.3" y="-430.84" font-family="Times,serif" font-size="14.00">a</text>
</g>
<!-- http://purl.org/oseg/ontologies/OTRL#goal&#45;&gt;http://schema.org/Text -->
<g id="edge16" class="edge">
<title>http://purl.org/oseg/ontologies/OTRL#goal&#45;&gt;http://schema.org/Text</title>
<path fill="none" stroke="black" d="M482.87,-443.57C491.31,-421.21 506.67,-380.52 516.7,-353.95"/>
<polygon fill="black" stroke="black" points="520,-355.12 520.26,-344.52 513.46,-352.64 520,-355.12"/>
<text text-anchor="middle" x="478.79" y="-387.56" font-family="Times,serif" font-size="14.00">range</text>
</g>
<!-- http://www.w3.org/1999/02/22&#45;rdf&#45;syntax&#45;ns#nil -->
<g id="node11" class="node">
<title>http://www.w3.org/1999/02/22&#45;rdf&#45;syntax&#45;ns#nil</title>
<ellipse fill="none" stroke="#e377c2" cx="406.24" cy="-16.64" rx="42.35" ry="16.03"/>
<text text-anchor="middle" x="406.24" y="-12.94" font-family="Times,serif" font-size="14.00">rdf:nil</text>
</g>
<!-- http://purl.org/oseg/ontologies/OTRL#ODRL&#45;1 -->
<g id="node12" class="node">
<title>http://purl.org/oseg/ontologies/OTRL#ODRL&#45;1</title>
<ellipse fill="none" stroke="#e377c2" cx="245.75" cy="-287.57" rx="50.82" ry="16.03"/>
<text text-anchor="middle" x="245.75" y="-283.87" font-family="Times,serif" font-size="14.00">ODRL&#45;1</text>
</g>
<!-- http://purl.org/oseg/ontologies/OTRL#ODRL&#45;1&#45;&gt;http://purl.org/oseg/ontologies/OTRL#ODRL -->
<g id="edge20" class="edge">
<title>http://purl.org/oseg/ontologies/OTRL#ODRL&#45;1&#45;&gt;http://purl.org/oseg/ontologies/OTRL#ODRL</title>
<path fill="none" stroke="black" d="M236.03,-271.34C233.56,-267.2 230.84,-262.65 228.17,-258.19"/>
<polygon fill="black" stroke="black" points="230.99,-256.1 222.85,-249.31 224.99,-259.69 230.99,-256.1"/>
</g>
<!-- http://purl.org/oseg/ontologies/OTRL#ODRL&#45;1&#45;&gt;http://www.w3.org/2002/07/owl#class -->
<g id="edge6" class="edge">
<title>http://purl.org/oseg/ontologies/OTRL#ODRL&#45;1&#45;&gt;http://www.w3.org/2002/07/owl#class</title>
<path fill="none" stroke="black" d="M239.75,-270.99C234.03,-255.2 225.35,-231.19 218.73,-212.91"/>
<polygon fill="black" stroke="black" points="221.99,-211.64 215.3,-203.43 215.41,-214.03 221.99,-211.64"/>
<text text-anchor="middle" x="224.74" y="-245.75" font-family="Times,serif" font-size="14.00">a</text>
</g>
<!-- http://purl.org/oseg/ontologies/OTRL#OTRL&#45;4 -->
<g id="node13" class="node">
<title>http://purl.org/oseg/ontologies/OTRL#OTRL&#45;4</title>
<ellipse fill="none" stroke="#e377c2" cx="125.85" cy="-22.07" rx="49.49" ry="16.03"/>
<text text-anchor="middle" x="125.85" y="-18.37" font-family="Times,serif" font-size="14.00">OTRL&#45;4</text>
</g>
<!-- http://purl.org/oseg/ontologies/OTRL#OTRL&#45;4&#45;&gt;http://www.w3.org/2002/07/owl#class -->
<g id="edge24" class="edge">
<title>http://purl.org/oseg/ontologies/OTRL#OTRL&#45;4&#45;&gt;http://www.w3.org/2002/07/owl#class</title>
<path fill="none" stroke="black" d="M134.02,-38.2C148.58,-66.97 179.14,-127.36 196.55,-161.75"/>
<polygon fill="black" stroke="black" points="193.45,-163.38 201.09,-170.72 199.7,-160.22 193.45,-163.38"/>
<text text-anchor="middle" x="160.79" y="-103.78" font-family="Times,serif" font-size="14.00">a</text>
</g>
<!-- http://purl.org/oseg/ontologies/OTRL#OTRL&#45;4&#45;&gt;http://purl.org/oseg/ontologies/OTRL#OTRL -->
<g id="edge13" class="edge">
<title>http://purl.org/oseg/ontologies/OTRL#OTRL&#45;4&#45;&gt;http://purl.org/oseg/ontologies/OTRL#OTRL</title>
<path fill="none" stroke="black" d="M137.12,-38.32C150.33,-57.38 172.36,-89.15 187.61,-111.15"/>
<polygon fill="black" stroke="black" points="184.92,-113.41 193.49,-119.63 190.67,-109.42 184.92,-113.41"/>
</g>
<!-- http://purl.org/oseg/ontologies/OTRL#OTRL&#45;5 -->
<g id="node14" class="node">
<title>http://purl.org/oseg/ontologies/OTRL#OTRL&#45;5</title>
<ellipse fill="none" stroke="#e377c2" cx="273.57" cy="-16.31" rx="49.49" ry="16.03"/>
<text text-anchor="middle" x="273.57" y="-12.61" font-family="Times,serif" font-size="14.00">OTRL&#45;5</text>
</g>
<!-- http://purl.org/oseg/ontologies/OTRL#OTRL&#45;5&#45;&gt;http://www.w3.org/2002/07/owl#class -->
<g id="edge25" class="edge">
<title>http://purl.org/oseg/ontologies/OTRL#OTRL&#45;5&#45;&gt;http://www.w3.org/2002/07/owl#class</title>
<path fill="none" stroke="black" d="M267.42,-32.69C256.26,-62.41 232.59,-125.44 219.19,-161.12"/>
<polygon fill="black" stroke="black" points="215.79,-160.23 215.55,-170.83 222.34,-162.7 215.79,-160.23"/>
<text text-anchor="middle" x="238.81" y="-100.7" font-family="Times,serif" font-size="14.00">a</text>
</g>
<!-- http://purl.org/oseg/ontologies/OTRL#OTRL&#45;5&#45;&gt;http://purl.org/oseg/ontologies/OTRL#OTRL -->
<g id="edge28" class="edge">
<title>http://purl.org/oseg/ontologies/OTRL#OTRL&#45;5&#45;&gt;http://purl.org/oseg/ontologies/OTRL#OTRL</title>
<path fill="none" stroke="black" d="M264.25,-32.38C252.61,-52.46 232.57,-87.04 218.93,-110.56"/>
<polygon fill="black" stroke="black" points="215.86,-108.88 213.87,-119.29 221.92,-112.39 215.86,-108.88"/>
</g>
<!-- http://purl.org/oseg/ontologies/OTRL#ODRL&#45;4 -->
<g id="node15" class="node">
<title>http://purl.org/oseg/ontologies/OTRL#ODRL&#45;4</title>
<ellipse fill="none" stroke="#e377c2" cx="63.44" cy="-276.22" rx="50.82" ry="16.03"/>
<text text-anchor="middle" x="63.44" y="-272.52" font-family="Times,serif" font-size="14.00">ODRL&#45;4</text>
</g>
<!-- http://purl.org/oseg/ontologies/OTRL#ODRL&#45;4&#45;&gt;http://purl.org/oseg/ontologies/OTRL#ODRL -->
<g id="edge21" class="edge">
<title>http://purl.org/oseg/ontologies/OTRL#ODRL&#45;4&#45;&gt;http://purl.org/oseg/ontologies/OTRL#ODRL</title>
<path fill="none" stroke="black" d="M101.67,-265.32C122.41,-259.4 148.15,-252.07 169.68,-245.92"/>
<polygon fill="black" stroke="black" points="170.91,-249.21 179.56,-243.1 168.99,-242.48 170.91,-249.21"/>
</g>
<!-- http://purl.org/oseg/ontologies/OTRL#ODRL&#45;4&#45;&gt;http://www.w3.org/2002/07/owl#class -->
<g id="edge7" class="edge">
<title>http://purl.org/oseg/ontologies/OTRL#ODRL&#45;4&#45;&gt;http://www.w3.org/2002/07/owl#class</title>
<path fill="none" stroke="black" d="M87.22,-261.72C111.46,-246.92 149.26,-223.86 176.4,-207.3"/>
<polygon fill="black" stroke="black" points="178.45,-210.15 185.16,-201.96 174.8,-204.18 178.45,-210.15"/>
<text text-anchor="middle" x="127.31" y="-238.31" font-family="Times,serif" font-size="14.00">a</text>
</g>
<!-- http://purl.org/oseg/ontologies/OTRL -->
<g id="node16" class="node">
<title>http://purl.org/oseg/ontologies/OTRL</title>
<ellipse fill="none" stroke="#e377c2" cx="588.95" cy="-146.42" rx="60.62" ry="16.03"/>
<text text-anchor="middle" x="588.95" y="-142.72" font-family="Times,serif" font-size="14.00">ns1:OTRL</text>
</g>
<!-- http://purl.org/oseg/ontologies/OTRL&#45;&gt;http://www.w3.org/2002/07/owl#Ontology -->
<g id="edge11" class="edge">
<title>http://purl.org/oseg/ontologies/OTRL&#45;&gt;http://www.w3.org/2002/07/owl#Ontology</title>
<path fill="none" stroke="black" d="M535.65,-154.38C528.94,-155.38 521.98,-156.42 515.02,-157.46"/>
<polygon fill="black" stroke="black" points="514.22,-154.04 504.85,-158.98 515.26,-160.96 514.22,-154.04"/>
<text text-anchor="middle" x="523.08" y="-144.72" font-family="Times,serif" font-size="14.00">a</text>
</g>
<!-- http://purl.org/oseg/ontologies/OTRL&#45;&gt;http://purl.org/oseg/ontologies/OTRL -->
<g id="edge8" class="edge">
<title>http://purl.org/oseg/ontologies/OTRL&#45;&gt;http://purl.org/oseg/ontologies/OTRL</title>
<path fill="none" stroke="black" d="M644.55,-153.05C657.89,-152.53 667.76,-150.32 667.76,-146.42 667.76,-143.58 662.55,-141.64 654.58,-140.59"/>
<polygon fill="black" stroke="black" points="654.8,-137.1 644.55,-139.78 654.24,-144.07 654.8,-137.1"/>
<text text-anchor="middle" x="719.26" y="-142.72" font-family="Times,serif" font-size="14.00">owl:versionIRI</text>
</g>
<!-- http://purl.org/oseg/ontologies/OTRL#OTRL&#45;1 -->
<g id="node17" class="node">
<title>http://purl.org/oseg/ontologies/OTRL#OTRL&#45;1</title>
<ellipse fill="none" stroke="#e377c2" cx="175.62" cy="-82.22" rx="49.49" ry="16.03"/>
<text text-anchor="middle" x="175.62" y="-78.52" font-family="Times,serif" font-size="14.00">OTRL&#45;1</text>
</g>
<!-- http://purl.org/oseg/ontologies/OTRL#OTRL&#45;1&#45;&gt;http://www.w3.org/2002/07/owl#class -->
<g id="edge9" class="edge">
<title>http://purl.org/oseg/ontologies/OTRL#OTRL&#45;1&#45;&gt;http://www.w3.org/2002/07/owl#class</title>
<path fill="none" stroke="black" d="M180.9,-98.62C186.31,-115.4 194.79,-141.74 201.1,-161.33"/>
<polygon fill="black" stroke="black" points="197.77,-162.43 204.17,-170.88 204.44,-160.29 197.77,-162.43"/>
<text text-anchor="middle" x="186.5" y="-118.77" font-family="Times,serif" font-size="14.00">a</text>
</g>
<!-- http://purl.org/oseg/ontologies/OTRL#OTRL&#45;1&#45;&gt;http://purl.org/oseg/ontologies/OTRL#OTRL -->
<g id="edge23" class="edge">
<title>http://purl.org/oseg/ontologies/OTRL#OTRL&#45;1&#45;&gt;http://purl.org/oseg/ontologies/OTRL#OTRL</title>
<path fill="none" stroke="black" d="M184.44,-98.49C186.45,-102.21 188.64,-106.24 190.8,-110.24"/>
<polygon fill="black" stroke="black" points="187.88,-112.19 195.72,-119.31 194.03,-108.85 187.88,-112.19"/>
</g>
<!-- http://purl.org/oseg/ontologies/OTRL#ODRL&#45;3 -->
<g id="node18" class="node">
<title>http://purl.org/oseg/ontologies/OTRL#ODRL&#45;3</title>
<ellipse fill="none" stroke="#e377c2" cx="371.24" cy="-245.9" rx="50.82" ry="16.03"/>
<text text-anchor="middle" x="371.24" y="-242.2" font-family="Times,serif" font-size="14.00">ODRL&#45;3</text>
</g>
<!-- http://purl.org/oseg/ontologies/OTRL#ODRL&#45;3&#45;&gt;http://purl.org/oseg/ontologies/OTRL#ODRL -->
<g id="edge26" class="edge">
<title>http://purl.org/oseg/ontologies/OTRL#ODRL&#45;3&#45;&gt;http://purl.org/oseg/ontologies/OTRL#ODRL</title>
<path fill="none" stroke="black" d="M321.72,-242C303.57,-240.57 283,-238.95 264.69,-237.51"/>
<polygon fill="black" stroke="black" points="264.75,-234 254.5,-236.7 264.2,-240.98 264.75,-234"/>
</g>
<!-- http://purl.org/oseg/ontologies/OTRL#ODRL&#45;3&#45;&gt;http://www.w3.org/2002/07/owl#class -->
<g id="edge12" class="edge">
<title>http://purl.org/oseg/ontologies/OTRL#ODRL&#45;3&#45;&gt;http://www.w3.org/2002/07/owl#class</title>
<path fill="none" stroke="black" d="M337.32,-233.59C313.32,-224.88 280.88,-213.1 254.68,-203.59"/>
<polygon fill="black" stroke="black" points="255.57,-200.19 244.97,-200.07 253.18,-206.77 255.57,-200.19"/>
<text text-anchor="middle" x="291.5" y="-222.39" font-family="Times,serif" font-size="14.00">a</text>
</g>
<!-- http://purl.org/oseg/ontologies/OTRL#OTRL&#45;2 -->
<g id="node19" class="node">
<title>http://purl.org/oseg/ontologies/OTRL#OTRL&#45;2</title>
<ellipse fill="none" stroke="#e377c2" cx="49.64" cy="-121.82" rx="49.49" ry="16.03"/>
<text text-anchor="middle" x="49.64" y="-118.12" font-family="Times,serif" font-size="14.00">OTRL&#45;2</text>
</g>
<!-- http://purl.org/oseg/ontologies/OTRL#OTRL&#45;2&#45;&gt;http://www.w3.org/2002/07/owl#class -->
<g id="edge27" class="edge">
<title>http://purl.org/oseg/ontologies/OTRL#OTRL&#45;2&#45;&gt;http://www.w3.org/2002/07/owl#class</title>
<path fill="none" stroke="black" d="M80.83,-134.57C105.42,-144.63 139.96,-158.75 167.05,-169.83"/>
<polygon fill="black" stroke="black" points="166.08,-173.22 176.66,-173.76 168.73,-166.74 166.08,-173.22"/>
<text text-anchor="middle" x="119.44" y="-156" font-family="Times,serif" font-size="14.00">a</text>
</g>
<!-- http://purl.org/oseg/ontologies/OTRL#OTRL&#45;2&#45;&gt;http://purl.org/oseg/ontologies/OTRL#OTRL -->
<g id="edge10" class="edge">
<title>http://purl.org/oseg/ontologies/OTRL#OTRL&#45;2&#45;&gt;http://purl.org/oseg/ontologies/OTRL#OTRL</title>
<path fill="none" stroke="black" d="M97.79,-126.07C116.21,-127.69 137.23,-129.55 155.72,-131.18"/>
<polygon fill="black" stroke="black" points="155.42,-134.67 165.69,-132.06 156.04,-127.7 155.42,-134.67"/>
</g>
<!-- http://purl.org/oseg/ontologies/OTRL#ODRL&#45;2 -->
<g id="node20" class="node">
<title>http://purl.org/oseg/ontologies/OTRL#ODRL&#45;2</title>
<ellipse fill="none" stroke="#e377c2" cx="293.98" cy="-348.34" rx="50.82" ry="16.03"/>
<text text-anchor="middle" x="293.98" y="-344.64" font-family="Times,serif" font-size="14.00">ODRL&#45;2</text>
</g>
<!-- http://purl.org/oseg/ontologies/OTRL#ODRL&#45;2&#45;&gt;http://purl.org/oseg/ontologies/OTRL#ODRL -->
<g id="edge19" class="edge">
<title>http://purl.org/oseg/ontologies/OTRL#ODRL&#45;2&#45;&gt;http://purl.org/oseg/ontologies/OTRL#ODRL</title>
<path fill="none" stroke="black" d="M282.77,-332.37C269.18,-312.99 246.12,-280.14 230.34,-257.65"/>
<polygon fill="black" stroke="black" points="233.09,-255.48 224.48,-249.3 227.36,-259.5 233.09,-255.48"/>
</g>
<!-- http://purl.org/oseg/ontologies/OTRL#ODRL&#45;2&#45;&gt;http://www.w3.org/2002/07/owl#class -->
<g id="edge14" class="edge">
<title>http://purl.org/oseg/ontologies/OTRL#ODRL&#45;2&#45;&gt;http://www.w3.org/2002/07/owl#class</title>
<path fill="none" stroke="black" d="M285.56,-332.3C270.89,-304.32 240.5,-246.4 222.87,-212.81"/>
<polygon fill="black" stroke="black" points="225.79,-210.85 218.05,-203.62 219.6,-214.1 225.79,-210.85"/>
<text text-anchor="middle" x="249.72" y="-261.35" font-family="Times,serif" font-size="14.00">a</text>
</g>
</g>
</svg>
