<?xml version="1.0" encoding="UTF-8" standalone="no"?>
<!DOCTYPE svg PUBLIC "-//W3C//DTD SVG 1.1//EN"
 "http://www.w3.org/Graphics/SVG/1.1/DTD/svg11.dtd">
<!-- Generated by graphviz version 2.43.0 (0)
 -->
<!-- Title: G Pages: 1 -->
<svg width="2051pt" height="1916pt"
 viewBox="0.00 0.00 2051.00 1916.00" xmlns="http://www.w3.org/2000/svg" xmlns:xlink="http://www.w3.org/1999/xlink">
<g id="graph0" class="graph" transform="scale(1 1) rotate(0) translate(4 1912)">
<title>G</title>
<polygon fill="white" stroke="transparent" points="-4,4 -4,-1912 2047,-1912 2047,4 -4,4"/>
<!-- https://w3id.org/oseg/ont/osh/otrl#OTRL3 -->
<g id="node1" class="node">
<title>https://w3id.org/oseg/ont/osh/otrl#OTRL3</title>
<ellipse fill="none" stroke="#e377c2" cx="613.08" cy="-1289.17" rx="67.35" ry="16.03"/>
<text text-anchor="middle" x="613.08" y="-1285.47" font-family="Times,serif" font-size="14.00">otrl:OTRL3</text>
</g>
<!-- https://w3id.org/oseg/ont/osh/otrl#OTRL -->
<g id="node13" class="node">
<title>https://w3id.org/oseg/ont/osh/otrl#OTRL</title>
<ellipse fill="none" stroke="#e377c2" cx="867.3" cy="-1193.04" rx="60.62" ry="16.03"/>
<text text-anchor="middle" x="867.3" y="-1189.34" font-family="Times,serif" font-size="14.00">otrl:OTRL</text>
</g>
<!-- https://w3id.org/oseg/ont/osh/otrl#OTRL3&#45;&gt;https://w3id.org/oseg/ont/osh/otrl#OTRL -->
<g id="edge9" class="edge">
<title>https://w3id.org/oseg/ont/osh/otrl#OTRL3&#45;&gt;https://w3id.org/oseg/ont/osh/otrl#OTRL</title>
<path fill="none" stroke="black" d="M649.51,-1275.4C695.2,-1258.12 773.51,-1228.5 822.73,-1209.89"/>
<polygon fill="black" stroke="black" points="824.05,-1213.13 832.17,-1206.32 821.58,-1206.58 824.05,-1213.13"/>
</g>
<!-- https://w3id.org/oseg/ont/osh/otrl#OTRL1 -->
<g id="node2" class="node">
<title>https://w3id.org/oseg/ont/osh/otrl#OTRL1</title>
<ellipse fill="none" stroke="#e377c2" cx="616.67" cy="-1149.84" rx="67.35" ry="16.03"/>
<text text-anchor="middle" x="616.67" y="-1146.14" font-family="Times,serif" font-size="14.00">otrl:OTRL1</text>
</g>
<!-- https://w3id.org/oseg/ont/osh/otrl#OTRL1&#45;&gt;https://w3id.org/oseg/ont/osh/otrl#OTRL -->
<g id="edge36" class="edge">
<title>https://w3id.org/oseg/ont/osh/otrl#OTRL1&#45;&gt;https://w3id.org/oseg/ont/osh/otrl#OTRL</title>
<path fill="none" stroke="black" d="M671.67,-1159.32C711.34,-1166.15 764.91,-1175.39 805.96,-1182.46"/>
<polygon fill="black" stroke="black" points="805.4,-1185.92 815.84,-1184.17 806.58,-1179.02 805.4,-1185.92"/>
</g>
<!-- https://w3id.org/oseg/ont/osh/otrl#ODRL1 -->
<g id="node3" class="node">
<title>https://w3id.org/oseg/ont/osh/otrl#ODRL1</title>
<ellipse fill="none" stroke="#e377c2" cx="994.36" cy="-516.43" rx="69.09" ry="16.03"/>
<text text-anchor="middle" x="994.36" y="-512.73" font-family="Times,serif" font-size="14.00">otrl:ODRL1</text>
</g>
<!-- https://w3id.org/oseg/ont/osh/otrl#ODRL -->
<g id="node8" class="node">
<title>https://w3id.org/oseg/ont/osh/otrl#ODRL</title>
<ellipse fill="none" stroke="#e377c2" cx="1180.21" cy="-708.7" rx="62.87" ry="16.03"/>
<text text-anchor="middle" x="1180.21" y="-705" font-family="Times,serif" font-size="14.00">otrl:ODRL</text>
</g>
<!-- https://w3id.org/oseg/ont/osh/otrl#ODRL1&#45;&gt;https://w3id.org/oseg/ont/osh/otrl#ODRL -->
<g id="edge18" class="edge">
<title>https://w3id.org/oseg/ont/osh/otrl#ODRL1&#45;&gt;https://w3id.org/oseg/ont/osh/otrl#ODRL</title>
<path fill="none" stroke="black" d="M1009.89,-532.49C1042.76,-566.51 1119.52,-645.92 1157.75,-685.47"/>
<polygon fill="black" stroke="black" points="1155.39,-688.06 1164.86,-692.82 1160.43,-683.2 1155.39,-688.06"/>
</g>
<!-- https://w3id.org/oseg/ont/osh/otrl#OTRL2 -->
<g id="node4" class="node">
<title>https://w3id.org/oseg/ont/osh/otrl#OTRL2</title>
<ellipse fill="none" stroke="#e377c2" cx="695.2" cy="-1406.6" rx="67.35" ry="16.03"/>
<text text-anchor="middle" x="695.2" y="-1402.9" font-family="Times,serif" font-size="14.00">otrl:OTRL2</text>
</g>
<!-- https://w3id.org/oseg/ont/osh/otrl#OTRL2&#45;&gt;https://w3id.org/oseg/ont/osh/otrl#OTRL -->
<g id="edge20" class="edge">
<title>https://w3id.org/oseg/ont/osh/otrl#OTRL2&#45;&gt;https://w3id.org/oseg/ont/osh/otrl#OTRL</title>
<path fill="none" stroke="black" d="M708.14,-1390.55C738.17,-1353.28 812.77,-1260.71 848.12,-1216.83"/>
<polygon fill="black" stroke="black" points="850.9,-1218.97 854.45,-1208.98 845.45,-1214.57 850.9,-1218.97"/>
</g>
<!-- https://w3id.org/oseg/ont/osh/otrl#ODRL3Star -->
<g id="node5" class="node">
<title>https://w3id.org/oseg/ont/osh/otrl#ODRL3Star</title>
<ellipse fill="none" stroke="#e377c2" cx="1367.92" cy="-463.99" rx="90.52" ry="16.03"/>
<text text-anchor="middle" x="1367.92" y="-460.29" font-family="Times,serif" font-size="14.00">otrl:ODRL3Star</text>
</g>
<!-- https://w3id.org/oseg/ont/osh/otrl#ODRL3Star&#45;&gt;https://w3id.org/oseg/ont/osh/otrl#ODRL -->
<g id="edge16" class="edge">
<title>https://w3id.org/oseg/ont/osh/otrl#ODRL3Star&#45;&gt;https://w3id.org/oseg/ont/osh/otrl#ODRL</title>
<path fill="none" stroke="black" d="M1355.31,-480.43C1322.91,-522.67 1236.6,-635.18 1198.61,-684.72"/>
<polygon fill="black" stroke="black" points="1195.83,-682.59 1192.52,-692.66 1201.38,-686.85 1195.83,-682.59"/>
</g>
<!-- https://w3id.org/oseg/ont/osh/otrl#ODRL4 -->
<g id="node6" class="node">
<title>https://w3id.org/oseg/ont/osh/otrl#ODRL4</title>
<ellipse fill="none" stroke="#e377c2" cx="984.4" cy="-942.66" rx="69.09" ry="16.03"/>
<text text-anchor="middle" x="984.4" y="-938.96" font-family="Times,serif" font-size="14.00">otrl:ODRL4</text>
</g>
<!-- https://w3id.org/oseg/ont/osh/otrl#ODRL4&#45;&gt;https://w3id.org/oseg/ont/osh/otrl#ODRL -->
<g id="edge8" class="edge">
<title>https://w3id.org/oseg/ont/osh/otrl#ODRL4&#45;&gt;https://w3id.org/oseg/ont/osh/otrl#ODRL</title>
<path fill="none" stroke="black" d="M997.86,-926.58C1031.6,-886.26 1119.97,-780.68 1159.99,-732.86"/>
<polygon fill="black" stroke="black" points="1162.92,-734.81 1166.66,-724.9 1157.55,-730.32 1162.92,-734.81"/>
</g>
<!-- https://w3id.org/oseg/ont/osh/otrl#OTRL4 -->
<g id="node7" class="node">
<title>https://w3id.org/oseg/ont/osh/otrl#OTRL4</title>
<ellipse fill="none" stroke="#e377c2" cx="654.6" cy="-1027.24" rx="67.35" ry="16.03"/>
<text text-anchor="middle" x="654.6" y="-1023.54" font-family="Times,serif" font-size="14.00">otrl:OTRL4</text>
</g>
<!-- https://w3id.org/oseg/ont/osh/otrl#OTRL4&#45;&gt;https://w3id.org/oseg/ont/osh/otrl#OTRL -->
<g id="edge4" class="edge">
<title>https://w3id.org/oseg/ont/osh/otrl#OTRL4&#45;&gt;https://w3id.org/oseg/ont/osh/otrl#OTRL</title>
<path fill="none" stroke="black" d="M674.61,-1042.84C712.79,-1072.6 796.1,-1137.54 839.6,-1171.45"/>
<polygon fill="black" stroke="black" points="837.46,-1174.21 847.5,-1177.6 841.76,-1168.69 837.46,-1174.21"/>
</g>
<!-- https://w3id.org/oseg/ont/osh/otrl#OTRL5 -->
<g id="node9" class="node">
<title>https://w3id.org/oseg/ont/osh/otrl#OTRL5</title>
<ellipse fill="none" stroke="#e377c2" cx="811.47" cy="-1474.34" rx="67.35" ry="16.03"/>
<text text-anchor="middle" x="811.47" y="-1470.64" font-family="Times,serif" font-size="14.00">otrl:OTRL5</text>
</g>
<!-- https://w3id.org/oseg/ont/osh/otrl#OTRL5&#45;&gt;https://w3id.org/oseg/ont/osh/otrl#OTRL -->
<g id="edge10" class="edge">
<title>https://w3id.org/oseg/ont/osh/otrl#OTRL5&#45;&gt;https://w3id.org/oseg/ont/osh/otrl#OTRL</title>
<path fill="none" stroke="black" d="M814.72,-1458C823.99,-1411.29 850.66,-1276.89 862.04,-1219.51"/>
<polygon fill="black" stroke="black" points="865.53,-1219.91 864.05,-1209.42 858.67,-1218.55 865.53,-1219.91"/>
</g>
<!-- https://w3id.org/oseg/ont/osh/otrl#OTRL6 -->
<g id="node10" class="node">
<title>https://w3id.org/oseg/ont/osh/otrl#OTRL6</title>
<ellipse fill="none" stroke="#e377c2" cx="1010.96" cy="-1425.31" rx="67.35" ry="16.03"/>
<text text-anchor="middle" x="1010.96" y="-1421.61" font-family="Times,serif" font-size="14.00">otrl:OTRL6</text>
</g>
<!-- https://w3id.org/oseg/ont/osh/otrl#OTRL6&#45;&gt;https://w3id.org/oseg/ont/osh/otrl#OTRL -->
<g id="edge22" class="edge">
<title>https://w3id.org/oseg/ont/osh/otrl#OTRL6&#45;&gt;https://w3id.org/oseg/ont/osh/otrl#OTRL</title>
<path fill="none" stroke="black" d="M1000.86,-1408.97C976.13,-1368.99 912.42,-1265.99 882.83,-1218.15"/>
<polygon fill="black" stroke="black" points="885.63,-1216.01 877.39,-1209.35 879.67,-1219.7 885.63,-1216.01"/>
</g>
<!-- https://w3id.org/oseg/ont/osh/otrl#ODRL3 -->
<g id="node11" class="node">
<title>https://w3id.org/oseg/ont/osh/otrl#ODRL3</title>
<ellipse fill="none" stroke="#e377c2" cx="1198.44" cy="-427.31" rx="69.09" ry="16.03"/>
<text text-anchor="middle" x="1198.44" y="-423.61" font-family="Times,serif" font-size="14.00">otrl:ODRL3</text>
</g>
<!-- https://w3id.org/oseg/ont/osh/otrl#ODRL3&#45;&gt;https://w3id.org/oseg/ont/osh/otrl#ODRL -->
<g id="edge31" class="edge">
<title>https://w3id.org/oseg/ont/osh/otrl#ODRL3&#45;&gt;https://w3id.org/oseg/ont/osh/otrl#ODRL</title>
<path fill="none" stroke="black" d="M1197.39,-443.65C1194.36,-490.37 1185.64,-624.82 1181.93,-682.22"/>
<polygon fill="black" stroke="black" points="1178.43,-682.11 1181.27,-692.31 1185.41,-682.56 1178.43,-682.11"/>
</g>
<!-- https://w3id.org/oseg/ont/osh/otrl#ODRL2 -->
<g id="node12" class="node">
<title>https://w3id.org/oseg/ont/osh/otrl#ODRL2</title>
<ellipse fill="none" stroke="#e377c2" cx="1439.79" cy="-602.12" rx="69.09" ry="16.03"/>
<text text-anchor="middle" x="1439.79" y="-598.42" font-family="Times,serif" font-size="14.00">otrl:ODRL2</text>
</g>
<!-- https://w3id.org/oseg/ont/osh/otrl#ODRL2&#45;&gt;https://w3id.org/oseg/ont/osh/otrl#ODRL -->
<g id="edge5" class="edge">
<title>https://w3id.org/oseg/ont/osh/otrl#ODRL2&#45;&gt;https://w3id.org/oseg/ont/osh/otrl#ODRL</title>
<path fill="none" stroke="black" d="M1405.32,-616.27C1358.42,-635.53 1274.51,-669.98 1223.44,-690.95"/>
<polygon fill="black" stroke="black" points="1221.92,-687.79 1214,-694.83 1224.58,-694.27 1221.92,-687.79"/>
</g>
<!-- https://w3id.org/oseg/ont/osh/otrl -->
<g id="node14" class="node">
<title>https://w3id.org/oseg/ont/osh/otrl</title>
<ellipse fill="none" stroke="#e377c2" cx="811.32" cy="-798.47" rx="50.82" ry="16.03"/>
<text text-anchor="middle" x="811.32" y="-794.77" font-family="Times,serif" font-size="14.00">ns1:otrl</text>
</g>
<!-- https://w3id.org/oseg/ont/osh/otrl&#45;&gt;https://w3id.org/oseg/ont/osh/otrl -->
<g id="edge27" class="edge">
<title>https://w3id.org/oseg/ont/osh/otrl&#45;&gt;https://w3id.org/oseg/ont/osh/otrl</title>
<path fill="none" stroke="black" d="M858.02,-805.17C870.63,-804.82 880.23,-802.59 880.23,-798.47 880.23,-795.58 875.48,-793.62 868.28,-792.58"/>
<polygon fill="black" stroke="black" points="868.26,-789.07 858.02,-791.77 867.71,-796.05 868.26,-789.07"/>
<text text-anchor="middle" x="931.73" y="-794.77" font-family="Times,serif" font-size="14.00">owl:versionIRI</text>
</g>
<!-- https://www.gnu.org/licenses/gpl&#45;3.0.txt -->
<g id="node16" class="node">
<title>https://www.gnu.org/licenses/gpl&#45;3.0.txt</title>
<ellipse fill="none" stroke="#e377c2" cx="958.95" cy="-776.42" rx="85.62" ry="16.03"/>
<text text-anchor="middle" x="958.95" y="-772.72" font-family="Times,serif" font-size="14.00">ns2:gpl&#45;3.0.txt</text>
</g>
<!-- https://w3id.org/oseg/ont/osh/otrl&#45;&gt;https://www.gnu.org/licenses/gpl&#45;3.0.txt -->
<g id="edge12" class="edge">
<title>https://w3id.org/oseg/ont/osh/otrl&#45;&gt;https://www.gnu.org/licenses/gpl&#45;3.0.txt</title>
<path fill="none" stroke="black" d="M862.25,-797.36C874.84,-795.84 888.42,-793.87 901.31,-791.72"/>
<polygon fill="black" stroke="black" points="902.21,-795.12 911.46,-789.96 901.01,-788.22 902.21,-795.12"/>
<text text-anchor="middle" x="938.28" y="-798.34" font-family="Times,serif" font-size="14.00">dcterms:license</text>
</g>
<!-- https://w3id.org/oseg/ont/osh/otrl&#45;&gt;https://www.gnu.org/licenses/gpl&#45;3.0.txt -->
<g id="edge23" class="edge">
<title>https://w3id.org/oseg/ont/osh/otrl&#45;&gt;https://www.gnu.org/licenses/gpl&#45;3.0.txt</title>
<path fill="none" stroke="black" d="M847.69,-787.02C853.9,-785.79 860.6,-784.57 867.51,-783.41"/>
<polygon fill="black" stroke="black" points="868.45,-786.8 877.76,-781.74 867.33,-779.89 868.45,-786.8"/>
<text text-anchor="middle" x="840.1" y="-774.01" font-family="Times,serif" font-size="14.00">cc:license</text>
</g>
<!-- https://w3id.org/oseg/ont/osh/otrl#goal -->
<g id="node15" class="node">
<title>https://w3id.org/oseg/ont/osh/otrl#goal</title>
<ellipse fill="none" stroke="#e377c2" cx="1124" cy="-948.15" rx="54.39" ry="16.03"/>
<text text-anchor="middle" x="1124" y="-944.45" font-family="Times,serif" font-size="14.00">otrl:goal</text>
</g>
<!-- https://w3id.org/oseg/ont/osh/otrl#goal&#45;&gt;https://w3id.org/oseg/ont/osh/otrl#ODRL -->
<g id="edge43" class="edge">
<title>https://w3id.org/oseg/ont/osh/otrl#goal&#45;&gt;https://w3id.org/oseg/ont/osh/otrl#ODRL</title>
<path fill="none" stroke="black" d="M1127.86,-931.69C1137.45,-890.84 1162.41,-784.53 1174.06,-734.92"/>
<polygon fill="black" stroke="black" points="1177.52,-735.49 1176.39,-724.96 1170.7,-733.89 1177.52,-735.49"/>
<text text-anchor="middle" x="1064.96" y="-837.1" font-family="Times,serif" font-size="14.00">schema:domainIncludes</text>
</g>
<!-- https://w3id.org/oseg/ont/osh/otrl#goal&#45;&gt;https://w3id.org/oseg/ont/osh/otrl#OTRL -->
<g id="edge37" class="edge">
<title>https://w3id.org/oseg/ont/osh/otrl#goal&#45;&gt;https://w3id.org/oseg/ont/osh/otrl#OTRL</title>
<path fill="none" stroke="black" d="M1107.55,-963.84C1063.56,-1005.81 943.01,-1120.81 891.34,-1170.1"/>
<polygon fill="black" stroke="black" points="888.76,-1167.72 883.94,-1177.16 893.59,-1172.79 888.76,-1167.72"/>
<text text-anchor="middle" x="913.44" y="-1070.77" font-family="Times,serif" font-size="14.00">schema:domainIncludes</text>
</g>
<!-- http://schema.org/Text -->
<g id="node19" class="node">
<title>http://schema.org/Text</title>
<ellipse fill="none" stroke="#e377c2" cx="1327.23" cy="-1004.76" rx="74.91" ry="16.03"/>
<text text-anchor="middle" x="1327.23" y="-1001.06" font-family="Times,serif" font-size="14.00">schema:Text</text>
</g>
<!-- https://w3id.org/oseg/ont/osh/otrl#goal&#45;&gt;http://schema.org/Text -->
<g id="edge30" class="edge">
<title>https://w3id.org/oseg/ont/osh/otrl#goal&#45;&gt;http://schema.org/Text</title>
<path fill="none" stroke="black" d="M1164.15,-959.33C1194.79,-967.87 1237.37,-979.73 1271.34,-989.19"/>
<polygon fill="black" stroke="black" points="1270.55,-992.61 1281.12,-991.92 1272.43,-985.86 1270.55,-992.61"/>
<text text-anchor="middle" x="1196.74" y="-978.06" font-family="Times,serif" font-size="14.00">range</text>
</g>
<!-- https://w3id.org/oseg/ont/osh/otrl#Odrl4 -->
<g id="node17" class="node">
<title>https://w3id.org/oseg/ont/osh/otrl#Odrl4</title>
<ellipse fill="none" stroke="#e377c2" cx="928.52" cy="-1242.29" rx="61.54" ry="16.03"/>
<text text-anchor="middle" x="928.52" y="-1238.59" font-family="Times,serif" font-size="14.00">otrl:Odrl4</text>
</g>
<!-- https://w3id.org/oseg/ont/osh/otrl#Odrl4&#45;&gt;https://w3id.org/oseg/ont/osh/otrl#ODRL4 -->
<g id="edge1" class="edge">
<title>https://w3id.org/oseg/ont/osh/otrl#Odrl4&#45;&gt;https://w3id.org/oseg/ont/osh/otrl#ODRL4</title>
<path fill="none" stroke="black" d="M934.97,-1225.93C948.54,-1176.73 976.16,-1029.78 983.51,-969.2"/>
<polygon fill="black" stroke="black" points="987.03,-969.27 984.64,-958.94 980.07,-968.5 987.03,-969.27"/>
<text text-anchor="middle" x="916.74" y="-1101.37" font-family="Times,serif" font-size="14.00">owl:sameAs</text>
</g>
<!-- https://w3id.org/oseg/ont/osh/otrl#Odrl4&#45;&gt;https://w3id.org/oseg/ont/osh/otrl#ODRL4 -->
<g id="edge13" class="edge">
<title>https://w3id.org/oseg/ont/osh/otrl#Odrl4&#45;&gt;https://w3id.org/oseg/ont/osh/otrl#ODRL4</title>
<path fill="none" stroke="black" d="M928.28,-1226.01C932.98,-1176.82 960.18,-1029.41 975.35,-968.96"/>
<polygon fill="black" stroke="black" points="978.79,-969.61 977.94,-959.05 972.02,-967.84 978.79,-969.61"/>
<text text-anchor="middle" x="871.81" y="-1086.29" font-family="Times,serif" font-size="14.00">schema:supersededBy</text>
</g>
<!-- https://w3id.org/oseg/ont/osh/otrl#exitCriteria -->
<g id="node18" class="node">
<title>https://w3id.org/oseg/ont/osh/otrl#exitCriteria</title>
<ellipse fill="none" stroke="#e377c2" cx="1072.8" cy="-997.01" rx="91.43" ry="16.03"/>
<text text-anchor="middle" x="1072.8" y="-993.31" font-family="Times,serif" font-size="14.00">otrl:exitCriteria</text>
</g>
<!-- https://w3id.org/oseg/ont/osh/otrl#exitCriteria&#45;&gt;https://w3id.org/oseg/ont/osh/otrl#ODRL -->
<g id="edge45" class="edge">
<title>https://w3id.org/oseg/ont/osh/otrl#exitCriteria&#45;&gt;https://w3id.org/oseg/ont/osh/otrl#ODRL</title>
<path fill="none" stroke="black" d="M1078.88,-980.69C1096.68,-932.93 1148.74,-793.19 1170.48,-734.81"/>
<polygon fill="black" stroke="black" points="1173.85,-735.8 1174.06,-725.21 1167.29,-733.36 1173.85,-735.8"/>
<text text-anchor="middle" x="1038.68" y="-861.55" font-family="Times,serif" font-size="14.00">schema:domainIncludes</text>
</g>
<!-- https://w3id.org/oseg/ont/osh/otrl#exitCriteria&#45;&gt;https://w3id.org/oseg/ont/osh/otrl#OTRL -->
<g id="edge39" class="edge">
<title>https://w3id.org/oseg/ont/osh/otrl#exitCriteria&#45;&gt;https://w3id.org/oseg/ont/osh/otrl#OTRL</title>
<path fill="none" stroke="black" d="M1055.98,-1013.06C1019.53,-1047.83 933.12,-1130.25 891.08,-1170.35"/>
<polygon fill="black" stroke="black" points="888.59,-1167.89 883.77,-1177.32 893.43,-1172.95 888.59,-1167.89"/>
<text text-anchor="middle" x="1059.53" y="-1095.5" font-family="Times,serif" font-size="14.00">schema:domainIncludes</text>
</g>
<!-- https://w3id.org/oseg/ont/osh/otrl#exitCriteria&#45;&gt;http://schema.org/Text -->
<g id="edge35" class="edge">
<title>https://w3id.org/oseg/ont/osh/otrl#exitCriteria&#45;&gt;http://schema.org/Text</title>
<path fill="none" stroke="black" d="M1162.86,-999.76C1188.86,-1000.55 1217.12,-1001.41 1242.77,-1002.19"/>
<polygon fill="black" stroke="black" points="1242.73,-1005.69 1252.83,-1002.5 1242.94,-998.69 1242.73,-1005.69"/>
<text text-anchor="middle" x="1223.82" y="-1004.77" font-family="Times,serif" font-size="14.00">range</text>
</g>
<!-- https://w3id.org/oseg/ont/osh/otrl#Otrl5 -->
<g id="node20" class="node">
<title>https://w3id.org/oseg/ont/osh/otrl#Otrl5</title>
<ellipse fill="none" stroke="black" cx="786.25" cy="-1892.1" rx="215.84" ry="16.03"/>
<text text-anchor="middle" x="786.25" y="-1888.4" font-family="Times,serif" font-size="14.00">https://w3id.org/oseg/ont/osh/otrl#Otrl5</text>
</g>
<!-- https://w3id.org/oseg/ont/osh/otrl#Otrl5&#45;&gt;https://w3id.org/oseg/ont/osh/otrl#OTRL5 -->
<g id="edge2" class="edge">
<title>https://w3id.org/oseg/ont/osh/otrl#Otrl5&#45;&gt;https://w3id.org/oseg/ont/osh/otrl#OTRL5</title>
<path fill="none" stroke="black" d="M790.11,-1875.64C798.95,-1811.73 813.17,-1579.73 813.38,-1500.83"/>
<polygon fill="black" stroke="black" points="816.88,-1500.72 813.31,-1490.74 809.88,-1500.76 816.88,-1500.72"/>
<text text-anchor="middle" x="721.74" y="-1677.03" font-family="Times,serif" font-size="14.00">schema:supersededBy</text>
</g>
<!-- https://w3id.org/oseg/ont/osh/otrl#Otrl5&#45;&gt;https://w3id.org/oseg/ont/osh/otrl#OTRL5 -->
<g id="edge19" class="edge">
<title>https://w3id.org/oseg/ont/osh/otrl#Otrl5&#45;&gt;https://w3id.org/oseg/ont/osh/otrl#OTRL5</title>
<path fill="none" stroke="black" d="M784.42,-1875.81C783.25,-1812.21 797.02,-1580.24 806.32,-1501.05"/>
<polygon fill="black" stroke="black" points="809.82,-1501.28 807.61,-1490.92 802.88,-1500.4 809.82,-1501.28"/>
<text text-anchor="middle" x="752.87" y="-1692.23" font-family="Times,serif" font-size="14.00">owl:sameAs</text>
</g>
<!-- https://w3id.org/oseg/ont/osh/otrl#Otrl3 -->
<g id="node21" class="node">
<title>https://w3id.org/oseg/ont/osh/otrl#Otrl3</title>
<ellipse fill="none" stroke="black" cx="215.79" cy="-1433.04" rx="215.84" ry="16.03"/>
<text text-anchor="middle" x="215.79" y="-1429.34" font-family="Times,serif" font-size="14.00">https://w3id.org/oseg/ont/osh/otrl#Otrl3</text>
</g>
<!-- https://w3id.org/oseg/ont/osh/otrl#Otrl3&#45;&gt;https://w3id.org/oseg/ont/osh/otrl#OTRL3 -->
<g id="edge3" class="edge">
<title>https://w3id.org/oseg/ont/osh/otrl#Otrl3&#45;&gt;https://w3id.org/oseg/ont/osh/otrl#OTRL3</title>
<path fill="none" stroke="black" d="M273.53,-1417.32C355.75,-1390.4 504.33,-1336.38 574.47,-1307.69"/>
<polygon fill="black" stroke="black" points="575.92,-1310.88 583.83,-1303.82 573.25,-1304.41 575.92,-1310.88"/>
<text text-anchor="middle" x="381.5" y="-1366.3" font-family="Times,serif" font-size="14.00">owl:sameAs</text>
</g>
<!-- https://w3id.org/oseg/ont/osh/otrl#Otrl3&#45;&gt;https://w3id.org/oseg/ont/osh/otrl#OTRL3 -->
<g id="edge44" class="edge">
<title>https://w3id.org/oseg/ont/osh/otrl#Otrl3&#45;&gt;https://w3id.org/oseg/ont/osh/otrl#OTRL3</title>
<path fill="none" stroke="black" d="M248.64,-1416.89C316.65,-1388.67 473.46,-1331.6 557.51,-1304.19"/>
<polygon fill="black" stroke="black" points="558.7,-1307.48 567.14,-1301.08 556.55,-1300.82 558.7,-1307.48"/>
<text text-anchor="middle" x="323.07" y="-1349.34" font-family="Times,serif" font-size="14.00">schema:supersededBy</text>
</g>
<!-- https://w3id.org/oseg/ont/osh/otrl#Odrl3 -->
<g id="node22" class="node">
<title>https://w3id.org/oseg/ont/osh/otrl#Odrl3</title>
<ellipse fill="none" stroke="black" cx="1218.93" cy="-16.53" rx="217.58" ry="16.03"/>
<text text-anchor="middle" x="1218.93" y="-12.83" font-family="Times,serif" font-size="14.00">https://w3id.org/oseg/ont/osh/otrl#Odrl3</text>
</g>
<!-- https://w3id.org/oseg/ont/osh/otrl#Odrl3&#45;&gt;https://w3id.org/oseg/ont/osh/otrl#ODRL3 -->
<g id="edge6" class="edge">
<title>https://w3id.org/oseg/ont/osh/otrl#Odrl3&#45;&gt;https://w3id.org/oseg/ont/osh/otrl#ODRL3</title>
<path fill="none" stroke="black" d="M1215.23,-33C1207.15,-95.99 1195.65,-322.01 1196.23,-400.35"/>
<polygon fill="black" stroke="black" points="1192.74,-400.86 1196.41,-410.8 1199.74,-400.74 1192.74,-400.86"/>
<text text-anchor="middle" x="1163.23" y="-220.47" font-family="Times,serif" font-size="14.00">owl:sameAs</text>
</g>
<!-- https://w3id.org/oseg/ont/osh/otrl#Odrl3&#45;&gt;https://w3id.org/oseg/ont/osh/otrl#ODRL3 -->
<g id="edge17" class="edge">
<title>https://w3id.org/oseg/ont/osh/otrl#Odrl3&#45;&gt;https://w3id.org/oseg/ont/osh/otrl#ODRL3</title>
<path fill="none" stroke="black" d="M1220.96,-33.03C1222.77,-96.14 1211.71,-322.6 1203.33,-400.64"/>
<polygon fill="black" stroke="black" points="1199.8,-400.71 1202.12,-411.05 1206.75,-401.52 1199.8,-400.71"/>
<text text-anchor="middle" x="1292.15" y="-220.64" font-family="Times,serif" font-size="14.00">schema:supersededBy</text>
</g>
<!-- https://w3id.org/oseg/ont/osh/otrl#Otrl2 -->
<g id="node23" class="node">
<title>https://w3id.org/oseg/ont/osh/otrl#Otrl2</title>
<ellipse fill="none" stroke="black" cx="432.03" cy="-1737.61" rx="215.84" ry="16.03"/>
<text text-anchor="middle" x="432.03" y="-1733.91" font-family="Times,serif" font-size="14.00">https://w3id.org/oseg/ont/osh/otrl#Otrl2</text>
</g>
<!-- https://w3id.org/oseg/ont/osh/otrl#Otrl2&#45;&gt;https://w3id.org/oseg/ont/osh/otrl#OTRL2 -->
<g id="edge7" class="edge">
<title>https://w3id.org/oseg/ont/osh/otrl#Otrl2&#45;&gt;https://w3id.org/oseg/ont/osh/otrl#OTRL2</title>
<path fill="none" stroke="black" d="M449.13,-1721.39C497.63,-1667.62 634.59,-1495.53 680.29,-1431.15"/>
<polygon fill="black" stroke="black" points="683.26,-1433 686.11,-1422.8 677.52,-1429 683.26,-1433"/>
<text text-anchor="middle" x="484.71" y="-1580.07" font-family="Times,serif" font-size="14.00">schema:supersededBy</text>
</g>
<!-- https://w3id.org/oseg/ont/osh/otrl#Otrl2&#45;&gt;https://w3id.org/oseg/ont/osh/otrl#OTRL2 -->
<g id="edge47" class="edge">
<title>https://w3id.org/oseg/ont/osh/otrl#Otrl2&#45;&gt;https://w3id.org/oseg/ont/osh/otrl#OTRL2</title>
<path fill="none" stroke="black" d="M441.33,-1721.09C478.57,-1666.69 615.91,-1493.51 671.62,-1430.09"/>
<polygon fill="black" stroke="black" points="674.28,-1432.37 678.31,-1422.57 669.05,-1427.72 674.28,-1432.37"/>
<text text-anchor="middle" x="513.98" y="-1564.39" font-family="Times,serif" font-size="14.00">owl:sameAs</text>
</g>
<!-- https://w3id.org/oseg/ont/osh/otrl#Odrl1 -->
<g id="node24" class="node">
<title>https://w3id.org/oseg/ont/osh/otrl#Odrl1</title>
<ellipse fill="none" stroke="black" cx="906.91" cy="-471.25" rx="217.58" ry="16.03"/>
<text text-anchor="middle" x="906.91" y="-467.55" font-family="Times,serif" font-size="14.00">https://w3id.org/oseg/ont/osh/otrl#Odrl1</text>
</g>
<!-- https://w3id.org/oseg/ont/osh/otrl#Odrl1&#45;&gt;https://w3id.org/oseg/ont/osh/otrl#ODRL1 -->
<g id="edge11" class="edge">
<title>https://w3id.org/oseg/ont/osh/otrl#Odrl1&#45;&gt;https://w3id.org/oseg/ont/osh/otrl#ODRL1</title>
<path fill="none" stroke="black" d="M925.81,-487.67C931.5,-491.16 938.02,-494.83 944.72,-498.37"/>
<polygon fill="black" stroke="black" points="943.42,-501.63 953.92,-503.06 946.6,-495.4 943.42,-501.63"/>
<text text-anchor="middle" x="892.77" y="-496.82" font-family="Times,serif" font-size="14.00">owl:sameAs</text>
</g>
<!-- https://w3id.org/oseg/ont/osh/otrl#Odrl1&#45;&gt;https://w3id.org/oseg/ont/osh/otrl#ODRL1 -->
<g id="edge33" class="edge">
<title>https://w3id.org/oseg/ont/osh/otrl#Odrl1&#45;&gt;https://w3id.org/oseg/ont/osh/otrl#ODRL1</title>
<path fill="none" stroke="black" d="M952.45,-487.18C957.66,-489.85 962.83,-492.64 967.68,-495.41"/>
<polygon fill="black" stroke="black" points="966.12,-498.56 976.51,-500.65 969.7,-492.54 966.12,-498.56"/>
<text text-anchor="middle" x="1040.06" y="-495.09" font-family="Times,serif" font-size="14.00">schema:supersededBy</text>
</g>
<!-- https://w3id.org/oseg/ont/osh/otrl#Otrl -->
<g id="node25" class="node">
<title>https://w3id.org/oseg/ont/osh/otrl#Otrl</title>
<ellipse fill="none" stroke="black" cx="1240.23" cy="-1379.95" rx="209.11" ry="16.03"/>
<text text-anchor="middle" x="1240.23" y="-1376.25" font-family="Times,serif" font-size="14.00">https://w3id.org/oseg/ont/osh/otrl#Otrl</text>
</g>
<!-- https://w3id.org/oseg/ont/osh/otrl#Otrl&#45;&gt;https://w3id.org/oseg/ont/osh/otrl#OTRL -->
<g id="edge14" class="edge">
<title>https://w3id.org/oseg/ont/osh/otrl#Otrl&#45;&gt;https://w3id.org/oseg/ont/osh/otrl#OTRL</title>
<path fill="none" stroke="black" d="M1215.94,-1363.69C1154.4,-1328.57 991.78,-1246.75 912.29,-1210.55"/>
<polygon fill="black" stroke="black" points="913.58,-1207.29 903.02,-1206.37 910.7,-1213.67 913.58,-1207.29"/>
<text text-anchor="middle" x="1106.61" y="-1275.92" font-family="Times,serif" font-size="14.00">owl:sameAs</text>
</g>
<!-- https://w3id.org/oseg/ont/osh/otrl#Otrl&#45;&gt;https://w3id.org/oseg/ont/osh/otrl#OTRL -->
<g id="edge21" class="edge">
<title>https://w3id.org/oseg/ont/osh/otrl#Otrl&#45;&gt;https://w3id.org/oseg/ont/osh/otrl#OTRL</title>
<path fill="none" stroke="black" d="M1198.36,-1363.85C1122.96,-1329.72 966.01,-1250.95 898.86,-1213.4"/>
<polygon fill="black" stroke="black" points="900.42,-1210.26 890,-1208.38 896.98,-1216.35 900.42,-1210.26"/>
<text text-anchor="middle" x="1128.61" y="-1292.43" font-family="Times,serif" font-size="14.00">schema:supersededBy</text>
</g>
<!-- https://w3id.org/oseg/ont/osh/otrl#Otrl6 -->
<g id="node26" class="node">
<title>https://w3id.org/oseg/ont/osh/otrl#Otrl6</title>
<ellipse fill="none" stroke="black" cx="1109.45" cy="-1472.49" rx="215.84" ry="16.03"/>
<text text-anchor="middle" x="1109.45" y="-1468.79" font-family="Times,serif" font-size="14.00">https://w3id.org/oseg/ont/osh/otrl#Otrl6</text>
</g>
<!-- https://w3id.org/oseg/ont/osh/otrl#Otrl6&#45;&gt;https://w3id.org/oseg/ont/osh/otrl#OTRL6 -->
<g id="edge15" class="edge">
<title>https://w3id.org/oseg/ont/osh/otrl#Otrl6&#45;&gt;https://w3id.org/oseg/ont/osh/otrl#OTRL6</title>
<path fill="none" stroke="black" d="M1088.63,-1456.04C1080.88,-1451.64 1071.71,-1446.91 1062.43,-1442.48"/>
<polygon fill="black" stroke="black" points="1063.71,-1439.22 1053.17,-1438.18 1060.76,-1445.57 1063.71,-1439.22"/>
<text text-anchor="middle" x="1155.53" y="-1438.06" font-family="Times,serif" font-size="14.00">schema:supersededBy</text>
</g>
<!-- https://w3id.org/oseg/ont/osh/otrl#Otrl6&#45;&gt;https://w3id.org/oseg/ont/osh/otrl#OTRL6 -->
<g id="edge32" class="edge">
<title>https://w3id.org/oseg/ont/osh/otrl#Otrl6&#45;&gt;https://w3id.org/oseg/ont/osh/otrl#OTRL6</title>
<path fill="none" stroke="black" d="M1060.75,-1456.63C1053.57,-1453.26 1046.37,-1449.67 1039.77,-1446.15"/>
<polygon fill="black" stroke="black" points="1041.03,-1442.85 1030.59,-1441.08 1037.65,-1448.98 1041.03,-1442.85"/>
<text text-anchor="middle" x="1007.76" y="-1440.19" font-family="Times,serif" font-size="14.00">owl:sameAs</text>
</g>
<!-- https://w3id.org/oseg/ont/osh/otrl#Odrl -->
<g id="node27" class="node">
<title>https://w3id.org/oseg/ont/osh/otrl#Odrl</title>
<ellipse fill="none" stroke="black" cx="1590.69" cy="-692.85" rx="211.35" ry="16.03"/>
<text text-anchor="middle" x="1590.69" y="-689.15" font-family="Times,serif" font-size="14.00">https://w3id.org/oseg/ont/osh/otrl#Odrl</text>
</g>
<!-- https://w3id.org/oseg/ont/osh/otrl#Odrl&#45;&gt;https://w3id.org/oseg/ont/osh/otrl#ODRL -->
<g id="edge24" class="edge">
<title>https://w3id.org/oseg/ont/osh/otrl#Odrl&#45;&gt;https://w3id.org/oseg/ont/osh/otrl#ODRL</title>
<path fill="none" stroke="black" d="M1379.78,-694.24C1331.56,-696.14 1283.76,-698.52 1247.03,-700.97"/>
<polygon fill="black" stroke="black" points="1246.71,-697.49 1236.97,-701.66 1247.19,-704.47 1246.71,-697.49"/>
<text text-anchor="middle" x="1273.4" y="-686.41" font-family="Times,serif" font-size="14.00">schema:supersededBy</text>
</g>
<!-- https://w3id.org/oseg/ont/osh/otrl#Odrl&#45;&gt;https://w3id.org/oseg/ont/osh/otrl#ODRL -->
<g id="edge46" class="edge">
<title>https://w3id.org/oseg/ont/osh/otrl#Odrl&#45;&gt;https://w3id.org/oseg/ont/osh/otrl#ODRL</title>
<path fill="none" stroke="black" d="M1447.66,-704.84C1381.85,-708 1306.61,-710.51 1252.73,-711.19"/>
<polygon fill="black" stroke="black" points="1252.55,-707.69 1242.59,-711.3 1252.63,-714.69 1252.55,-707.69"/>
<text text-anchor="middle" x="1307.7" y="-711.82" font-family="Times,serif" font-size="14.00">owl:sameAs</text>
</g>
<!-- https://w3id.org/oseg/ont/osh/otrl#Odrl3Star -->
<g id="node28" class="node">
<title>https://w3id.org/oseg/ont/osh/otrl#Odrl3Star</title>
<ellipse fill="none" stroke="black" cx="1642.18" cy="-89.44" rx="239" ry="16.03"/>
<text text-anchor="middle" x="1642.18" y="-85.74" font-family="Times,serif" font-size="14.00">https://w3id.org/oseg/ont/osh/otrl#Odrl3Star</text>
</g>
<!-- https://w3id.org/oseg/ont/osh/otrl#Odrl3Star&#45;&gt;https://w3id.org/oseg/ont/osh/otrl#ODRL3Star -->
<g id="edge25" class="edge">
<title>https://w3id.org/oseg/ont/osh/otrl#Odrl3Star&#45;&gt;https://w3id.org/oseg/ont/osh/otrl#ODRL3Star</title>
<path fill="none" stroke="black" d="M1626.04,-106.16C1576.64,-165.68 1429.02,-367.09 1382.19,-438.6"/>
<polygon fill="black" stroke="black" points="1378.98,-437.12 1376.51,-447.42 1384.87,-440.91 1378.98,-437.12"/>
<text text-anchor="middle" x="1461.62" y="-276.18" font-family="Times,serif" font-size="14.00">owl:sameAs</text>
</g>
<!-- https://w3id.org/oseg/ont/osh/otrl#Odrl3Star&#45;&gt;https://w3id.org/oseg/ont/osh/otrl#ODRL3Star -->
<g id="edge41" class="edge">
<title>https://w3id.org/oseg/ont/osh/otrl#Odrl3Star&#45;&gt;https://w3id.org/oseg/ont/osh/otrl#ODRL3Star</title>
<path fill="none" stroke="black" d="M1633.71,-105.8C1596.29,-165.25 1447.07,-369.5 1390.06,-439.94"/>
<polygon fill="black" stroke="black" points="1387.22,-437.89 1383.58,-447.85 1392.63,-442.33 1387.22,-437.89"/>
<text text-anchor="middle" x="1591.89" y="-276.67" font-family="Times,serif" font-size="14.00">schema:supersededBy</text>
</g>
<!-- https://w3id.org/oseg/ont/osh/otrl#Odrl5 -->
<g id="node29" class="node">
<title>https://w3id.org/oseg/ont/osh/otrl#Odrl5</title>
<ellipse fill="none" stroke="black" cx="911.7" cy="-1290.33" rx="217.58" ry="16.03"/>
<text text-anchor="middle" x="911.7" y="-1286.63" font-family="Times,serif" font-size="14.00">https://w3id.org/oseg/ont/osh/otrl#Odrl5</text>
</g>
<!-- https://w3id.org/oseg/ont/osh/otrl#Odrl5&#45;&gt;https://w3id.org/oseg/ont/osh/otrl#Odrl4 -->
<g id="edge26" class="edge">
<title>https://w3id.org/oseg/ont/osh/otrl#Odrl5&#45;&gt;https://w3id.org/oseg/ont/osh/otrl#Odrl4</title>
<path fill="none" stroke="black" d="M924.37,-1274.07C925.15,-1272.2 925.88,-1270.27 926.56,-1268.31"/>
<polygon fill="black" stroke="black" points="929.95,-1269.21 929.4,-1258.63 923.23,-1267.24 929.95,-1269.21"/>
<text text-anchor="middle" x="845.47" y="-1259.99" font-family="Times,serif" font-size="14.00">schema:supersededBy</text>
</g>
<!-- https://w3id.org/oseg/ont/osh/otrl#Odrl5&#45;&gt;https://w3id.org/oseg/ont/osh/otrl#Odrl4 -->
<g id="edge28" class="edge">
<title>https://w3id.org/oseg/ont/osh/otrl#Odrl5&#45;&gt;https://w3id.org/oseg/ont/osh/otrl#Odrl4</title>
<path fill="none" stroke="black" d="M910.85,-1273.85C911.3,-1271.96 911.84,-1270 912.44,-1268.03"/>
<polygon fill="black" stroke="black" points="915.86,-1268.87 915.97,-1258.27 909.28,-1266.49 915.86,-1268.87"/>
<text text-anchor="middle" x="954.15" y="-1259.74" font-family="Times,serif" font-size="14.00">owl:sameAs</text>
</g>
<!-- https://w3id.org/oseg/ont/osh/otrl#Odrl2 -->
<g id="node30" class="node">
<title>https://w3id.org/oseg/ont/osh/otrl#Odrl2</title>
<ellipse fill="none" stroke="black" cx="1825.09" cy="-450.12" rx="217.58" ry="16.03"/>
<text text-anchor="middle" x="1825.09" y="-446.42" font-family="Times,serif" font-size="14.00">https://w3id.org/oseg/ont/osh/otrl#Odrl2</text>
</g>
<!-- https://w3id.org/oseg/ont/osh/otrl#Odrl2&#45;&gt;https://w3id.org/oseg/ont/osh/otrl#ODRL2 -->
<g id="edge29" class="edge">
<title>https://w3id.org/oseg/ont/osh/otrl#Odrl2&#45;&gt;https://w3id.org/oseg/ont/osh/otrl#ODRL2</title>
<path fill="none" stroke="black" d="M1771.77,-466.02C1692.41,-494.32 1545.23,-552.57 1476.68,-583"/>
<polygon fill="black" stroke="black" points="1475.24,-579.81 1467.55,-587.1 1478.1,-586.2 1475.24,-579.81"/>
<text text-anchor="middle" x="1544.23" y="-528.31" font-family="Times,serif" font-size="14.00">schema:supersededBy</text>
</g>
<!-- https://w3id.org/oseg/ont/osh/otrl#Odrl2&#45;&gt;https://w3id.org/oseg/ont/osh/otrl#ODRL2 -->
<g id="edge34" class="edge">
<title>https://w3id.org/oseg/ont/osh/otrl#Odrl2&#45;&gt;https://w3id.org/oseg/ont/osh/otrl#ODRL2</title>
<path fill="none" stroke="black" d="M1794.67,-466.34C1729.49,-495.76 1575.7,-556.74 1493.61,-586.04"/>
<polygon fill="black" stroke="black" points="1492.22,-582.82 1483.96,-589.45 1494.56,-589.42 1492.22,-582.82"/>
<text text-anchor="middle" x="1686.64" y="-529.99" font-family="Times,serif" font-size="14.00">owl:sameAs</text>
</g>
<!-- https://w3id.org/oseg/ont/osh/otrl#Otrl1 -->
<g id="node31" class="node">
<title>https://w3id.org/oseg/ont/osh/otrl#Otrl1</title>
<ellipse fill="none" stroke="black" cx="230.28" cy="-1055.48" rx="215.84" ry="16.03"/>
<text text-anchor="middle" x="230.28" y="-1051.78" font-family="Times,serif" font-size="14.00">https://w3id.org/oseg/ont/osh/otrl#Otrl1</text>
</g>
<!-- https://w3id.org/oseg/ont/osh/otrl#Otrl1&#45;&gt;https://w3id.org/oseg/ont/osh/otrl#OTRL1 -->
<g id="edge38" class="edge">
<title>https://w3id.org/oseg/ont/osh/otrl#Otrl1&#45;&gt;https://w3id.org/oseg/ont/osh/otrl#OTRL1</title>
<path fill="none" stroke="black" d="M276.19,-1071.42C343.98,-1090.7 471.29,-1122 549.56,-1138.83"/>
<polygon fill="black" stroke="black" points="549.29,-1142.35 559.8,-1141.01 550.75,-1135.5 549.29,-1142.35"/>
<text text-anchor="middle" x="370.38" y="-1108.93" font-family="Times,serif" font-size="14.00">owl:sameAs</text>
</g>
<!-- https://w3id.org/oseg/ont/osh/otrl#Otrl1&#45;&gt;https://w3id.org/oseg/ont/osh/otrl#OTRL1 -->
<g id="edge42" class="edge">
<title>https://w3id.org/oseg/ont/osh/otrl#Otrl1&#45;&gt;https://w3id.org/oseg/ont/osh/otrl#OTRL1</title>
<path fill="none" stroke="black" d="M315.47,-1070.44C393.62,-1087.75 506.5,-1115.68 569.55,-1133.55"/>
<polygon fill="black" stroke="black" points="568.65,-1136.93 579.23,-1136.32 570.58,-1130.2 568.65,-1136.93"/>
<text text-anchor="middle" x="362.51" y="-1090.79" font-family="Times,serif" font-size="14.00">schema:supersededBy</text>
</g>
<!-- https://w3id.org/oseg/ont/osh/otrl#Otrl4 -->
<g id="node32" class="node">
<title>https://w3id.org/oseg/ont/osh/otrl#Otrl4</title>
<ellipse fill="none" stroke="black" cx="301.09" cy="-800.22" rx="215.84" ry="16.03"/>
<text text-anchor="middle" x="301.09" y="-796.52" font-family="Times,serif" font-size="14.00">https://w3id.org/oseg/ont/osh/otrl#Otrl4</text>
</g>
<!-- https://w3id.org/oseg/ont/osh/otrl#Otrl4&#45;&gt;https://w3id.org/oseg/ont/osh/otrl#OTRL4 -->
<g id="edge40" class="edge">
<title>https://w3id.org/oseg/ont/osh/otrl#Otrl4&#45;&gt;https://w3id.org/oseg/ont/osh/otrl#OTRL4</title>
<path fill="none" stroke="black" d="M320.3,-816.62C376.41,-857.56 540.55,-963.32 615.96,-1007.53"/>
<polygon fill="black" stroke="black" points="614.29,-1010.62 624.7,-1012.61 617.81,-1004.56 614.29,-1010.62"/>
<text text-anchor="middle" x="425.63" y="-915.88" font-family="Times,serif" font-size="14.00">owl:sameAs</text>
</g>
<!-- https://w3id.org/oseg/ont/osh/otrl#Otrl4&#45;&gt;https://w3id.org/oseg/ont/osh/otrl#OTRL4 -->
<g id="edge48" class="edge">
<title>https://w3id.org/oseg/ont/osh/otrl#Otrl4&#45;&gt;https://w3id.org/oseg/ont/osh/otrl#OTRL4</title>
<path fill="none" stroke="black" d="M333.69,-816.41C403.03,-856.55 563.83,-959.84 627.75,-1005.35"/>
<polygon fill="black" stroke="black" points="625.95,-1008.36 636.11,-1011.37 630.04,-1002.69 625.95,-1008.36"/>
<text text-anchor="middle" x="400.72" y="-899.68" font-family="Times,serif" font-size="14.00">schema:supersededBy</text>
</g>
</g>
</svg>
