<?xml version="1.0" encoding="UTF-8" standalone="no"?>
<!DOCTYPE svg PUBLIC "-//W3C//DTD SVG 1.1//EN"
 "http://www.w3.org/Graphics/SVG/1.1/DTD/svg11.dtd">
<!-- Generated by graphviz version 2.43.0 (0)
 -->
<!-- Title: G Pages: 1 -->
<svg width="975pt" height="1248pt"
 viewBox="0.00 0.00 974.76 1248.00" xmlns="http://www.w3.org/2000/svg" xmlns:xlink="http://www.w3.org/1999/xlink">
<g id="graph0" class="graph" transform="scale(1 1) rotate(0) translate(4 1244)">
<title>G</title>
<polygon fill="white" stroke="transparent" points="-4,4 -4,-1244 970.76,-1244 970.76,4 -4,4"/>
<!-- http://purl.org/oseg/ontologies/OTRL#OTRL -->
<g id="node1" class="node">
<title>http://purl.org/oseg/ontologies/OTRL#OTRL</title>
<ellipse fill="none" stroke="#e377c2" cx="434.6" cy="-583.29" rx="39.7" ry="16.03"/>
<text text-anchor="middle" x="434.6" y="-579.59" font-family="Times,serif" font-size="14.00">OTRL</text>
</g>
<!-- http://www.w3.org/2002/07/owl#class -->
<g id="node4" class="node">
<title>http://www.w3.org/2002/07/owl#class</title>
<ellipse fill="none" stroke="#1f77b4" cx="551.75" cy="-905.71" rx="57.05" ry="16.03"/>
<text text-anchor="middle" x="551.75" y="-902.01" font-family="Times,serif" font-size="14.00">owl:class</text>
</g>
<!-- http://purl.org/oseg/ontologies/OTRL#OTRL&#45;&gt;http://www.w3.org/2002/07/owl#class -->
<g id="edge12" class="edge">
<title>http://purl.org/oseg/ontologies/OTRL#OTRL&#45;&gt;http://www.w3.org/2002/07/owl#class</title>
<path fill="none" stroke="black" d="M440.57,-599.72C459.61,-652.11 518.98,-815.51 542.26,-879.57"/>
<polygon fill="black" stroke="black" points="539.09,-881.1 545.79,-889.31 545.67,-878.71 539.09,-881.1"/>
<text text-anchor="middle" x="486.91" y="-743.44" font-family="Times,serif" font-size="14.00">a</text>
</g>
<!-- http://purl.org/oseg/ontologies/OTRL#ODRL -->
<g id="node2" class="node">
<title>http://purl.org/oseg/ontologies/OTRL#ODRL</title>
<ellipse fill="none" stroke="#e377c2" cx="637.88" cy="-1112.9" rx="41.94" ry="16.03"/>
<text text-anchor="middle" x="637.88" y="-1109.2" font-family="Times,serif" font-size="14.00">ODRL</text>
</g>
<!-- http://purl.org/oseg/ontologies/OTRL#ODRL&#45;&gt;http://www.w3.org/2002/07/owl#class -->
<g id="edge25" class="edge">
<title>http://purl.org/oseg/ontologies/OTRL#ODRL&#45;&gt;http://www.w3.org/2002/07/owl#class</title>
<path fill="none" stroke="black" d="M631.13,-1096.64C616.19,-1060.71 580.27,-974.31 562.33,-931.14"/>
<polygon fill="black" stroke="black" points="565.55,-929.78 558.48,-921.89 559.09,-932.47 565.55,-929.78"/>
<text text-anchor="middle" x="592.23" y="-1017.69" font-family="Times,serif" font-size="14.00">a</text>
</g>
<!-- http://www.w3.org/2002/07/owl#DatatypeProperty -->
<g id="node3" class="node">
<title>http://www.w3.org/2002/07/owl#DatatypeProperty</title>
<ellipse fill="none" stroke="#1f77b4" cx="139.1" cy="-196.72" rx="123.07" ry="16.03"/>
<text text-anchor="middle" x="139.1" y="-193.02" font-family="Times,serif" font-size="14.00">owl:DatatypeProperty</text>
</g>
<!-- http://www.w3.org/2002/07/owl#Ontology -->
<g id="node5" class="node">
<title>http://www.w3.org/2002/07/owl#Ontology</title>
<ellipse fill="none" stroke="#1f77b4" cx="637.32" cy="-518.47" rx="77.56" ry="16.03"/>
<text text-anchor="middle" x="637.32" y="-514.77" font-family="Times,serif" font-size="14.00">owl:Ontology</text>
</g>
<!-- http://schema.org/Text -->
<g id="node6" class="node">
<title>http://schema.org/Text</title>
<ellipse fill="none" stroke="#e377c2" cx="314.59" cy="-15.82" rx="74.91" ry="16.03"/>
<text text-anchor="middle" x="314.59" y="-12.12" font-family="Times,serif" font-size="14.00">schema:Text</text>
</g>
<!-- http://purl.org/oseg/ontologies/OTRL#hardwareDescription -->
<g id="node7" class="node">
<title>http://purl.org/oseg/ontologies/OTRL#hardwareDescription</title>
<ellipse fill="none" stroke="#e377c2" cx="118.21" cy="-315.6" rx="118.17" ry="16.03"/>
<text text-anchor="middle" x="118.21" y="-311.9" font-family="Times,serif" font-size="14.00">hardwareDescription</text>
</g>
<!-- http://purl.org/oseg/ontologies/OTRL#hardwareDescription&#45;&gt;http://purl.org/oseg/ontologies/OTRL#OTRL -->
<g id="edge36" class="edge">
<title>http://purl.org/oseg/ontologies/OTRL#hardwareDescription&#45;&gt;http://purl.org/oseg/ontologies/OTRL#OTRL</title>
<path fill="none" stroke="black" d="M137.53,-331.94C192.23,-378.22 348.17,-510.17 409.44,-562.01"/>
<polygon fill="black" stroke="black" points="407.21,-564.7 417.11,-568.49 411.73,-559.36 407.21,-564.7"/>
<text text-anchor="middle" x="246.99" y="-450.78" font-family="Times,serif" font-size="14.00">domain</text>
</g>
<!-- http://purl.org/oseg/ontologies/OTRL#hardwareDescription&#45;&gt;http://www.w3.org/2002/07/owl#DatatypeProperty -->
<g id="edge26" class="edge">
<title>http://purl.org/oseg/ontologies/OTRL#hardwareDescription&#45;&gt;http://www.w3.org/2002/07/owl#DatatypeProperty</title>
<path fill="none" stroke="black" d="M121.12,-299.07C124.58,-279.37 130.4,-246.22 134.48,-222.99"/>
<polygon fill="black" stroke="black" points="137.94,-223.56 136.22,-213.11 131.04,-222.35 137.94,-223.56"/>
<text text-anchor="middle" x="123.3" y="-264.83" font-family="Times,serif" font-size="14.00">a</text>
</g>
<!-- http://purl.org/oseg/ontologies/OTRL#hardwareDescription&#45;&gt;http://schema.org/Text -->
<g id="edge19" class="edge">
<title>http://purl.org/oseg/ontologies/OTRL#hardwareDescription&#45;&gt;http://schema.org/Text</title>
<path fill="none" stroke="black" d="M129.05,-299.06C161.79,-249.09 259.77,-99.51 298.54,-40.32"/>
<polygon fill="black" stroke="black" points="301.48,-42.23 304.03,-31.95 295.62,-38.4 301.48,-42.23"/>
<text text-anchor="middle" x="192.8" y="-158.49" font-family="Times,serif" font-size="14.00">range</text>
</g>
<!-- http://purl.org/oseg/ontologies/OTRL#ODRL&#45;0 -->
<g id="node8" class="node">
<title>http://purl.org/oseg/ontologies/OTRL#ODRL&#45;0</title>
<ellipse fill="none" stroke="#e377c2" cx="415.93" cy="-1142.22" rx="50.82" ry="16.03"/>
<text text-anchor="middle" x="415.93" y="-1138.52" font-family="Times,serif" font-size="14.00">ODRL&#45;0</text>
</g>
<!-- http://purl.org/oseg/ontologies/OTRL#ODRL&#45;0&#45;&gt;http://purl.org/oseg/ontologies/OTRL#ODRL -->
<g id="edge22" class="edge">
<title>http://purl.org/oseg/ontologies/OTRL#ODRL&#45;0&#45;&gt;http://purl.org/oseg/ontologies/OTRL#ODRL</title>
<path fill="none" stroke="black" d="M463,-1136C499.76,-1131.15 550.7,-1124.42 588.12,-1119.47"/>
<polygon fill="black" stroke="black" points="588.84,-1122.91 598.3,-1118.13 587.93,-1115.97 588.84,-1122.91"/>
</g>
<!-- http://purl.org/oseg/ontologies/OTRL#ODRL&#45;0&#45;&gt;http://www.w3.org/2002/07/owl#class -->
<g id="edge1" class="edge">
<title>http://purl.org/oseg/ontologies/OTRL#ODRL&#45;0&#45;&gt;http://www.w3.org/2002/07/owl#class</title>
<path fill="none" stroke="black" d="M425.27,-1125.97C448.58,-1085.36 509.5,-979.28 537.41,-930.68"/>
<polygon fill="black" stroke="black" points="540.59,-932.18 542.53,-921.76 534.52,-928.69 540.59,-932.18"/>
<text text-anchor="middle" x="476.84" y="-1032.12" font-family="Times,serif" font-size="14.00">a</text>
</g>
<!-- http://purl.org/oseg/ontologies/OTRL#OTRL&#45;4 -->
<g id="node9" class="node">
<title>http://purl.org/oseg/ontologies/OTRL#OTRL&#45;4</title>
<ellipse fill="none" stroke="#e377c2" cx="411.03" cy="-704.59" rx="49.49" ry="16.03"/>
<text text-anchor="middle" x="411.03" y="-700.89" font-family="Times,serif" font-size="14.00">OTRL&#45;4</text>
</g>
<!-- http://purl.org/oseg/ontologies/OTRL#OTRL&#45;4&#45;&gt;http://purl.org/oseg/ontologies/OTRL#OTRL -->
<g id="edge8" class="edge">
<title>http://purl.org/oseg/ontologies/OTRL#OTRL&#45;4&#45;&gt;http://purl.org/oseg/ontologies/OTRL#OTRL</title>
<path fill="none" stroke="black" d="M414.21,-688.23C418.12,-668.07 424.83,-633.53 429.48,-609.62"/>
<polygon fill="black" stroke="black" points="432.92,-610.26 431.39,-599.78 426.05,-608.93 432.92,-610.26"/>
</g>
<!-- http://purl.org/oseg/ontologies/OTRL#OTRL&#45;4&#45;&gt;http://www.w3.org/2002/07/owl#class -->
<g id="edge27" class="edge">
<title>http://purl.org/oseg/ontologies/OTRL#OTRL&#45;4&#45;&gt;http://www.w3.org/2002/07/owl#class</title>
<path fill="none" stroke="black" d="M422.3,-720.71C446.9,-755.87 505.51,-839.62 534.67,-881.29"/>
<polygon fill="black" stroke="black" points="531.82,-883.32 540.42,-889.51 537.56,-879.31 531.82,-883.32"/>
<text text-anchor="middle" x="482.99" y="-804.8" font-family="Times,serif" font-size="14.00">a</text>
</g>
<!-- http://purl.org/oseg/ontologies/OTRL#exitCriteria -->
<g id="node10" class="node">
<title>http://purl.org/oseg/ontologies/OTRL#exitCriteria</title>
<ellipse fill="none" stroke="#e377c2" cx="518.48" cy="-269.66" rx="70.01" ry="16.03"/>
<text text-anchor="middle" x="518.48" y="-265.96" font-family="Times,serif" font-size="14.00">exitCriteria</text>
</g>
<!-- http://purl.org/oseg/ontologies/OTRL#exitCriteria&#45;&gt;http://purl.org/oseg/ontologies/OTRL#OTRL -->
<g id="edge15" class="edge">
<title>http://purl.org/oseg/ontologies/OTRL#exitCriteria&#45;&gt;http://purl.org/oseg/ontologies/OTRL#OTRL</title>
<path fill="none" stroke="black" d="M514.09,-286.08C500.39,-337.31 458.34,-494.53 441.59,-557.15"/>
<polygon fill="black" stroke="black" points="438.15,-556.47 438.95,-567.03 444.91,-558.28 438.15,-556.47"/>
<text text-anchor="middle" x="451.34" y="-425.41" font-family="Times,serif" font-size="14.00">domain</text>
</g>
<!-- http://purl.org/oseg/ontologies/OTRL#exitCriteria&#45;&gt;http://www.w3.org/2002/07/owl#DatatypeProperty -->
<g id="edge4" class="edge">
<title>http://purl.org/oseg/ontologies/OTRL#exitCriteria&#45;&gt;http://www.w3.org/2002/07/owl#DatatypeProperty</title>
<path fill="none" stroke="black" d="M464.53,-259.28C400.44,-246.96 292.95,-226.3 219.16,-212.11"/>
<polygon fill="black" stroke="black" points="219.46,-208.6 208.98,-210.15 218.14,-215.48 219.46,-208.6"/>
<text text-anchor="middle" x="337.34" y="-239.5" font-family="Times,serif" font-size="14.00">a</text>
</g>
<!-- http://purl.org/oseg/ontologies/OTRL#exitCriteria&#45;&gt;http://schema.org/Text -->
<g id="edge24" class="edge">
<title>http://purl.org/oseg/ontologies/OTRL#exitCriteria&#45;&gt;http://schema.org/Text</title>
<path fill="none" stroke="black" d="M505.42,-253.39C470.53,-209.96 375.06,-91.1 333.9,-39.86"/>
<polygon fill="black" stroke="black" points="336.54,-37.56 327.55,-31.95 331.08,-41.94 336.54,-37.56"/>
<text text-anchor="middle" x="398.66" y="-150.42" font-family="Times,serif" font-size="14.00">range</text>
</g>
<!-- http://purl.org/oseg/ontologies/OTRL#softwareDescription -->
<g id="node11" class="node">
<title>http://purl.org/oseg/ontologies/OTRL#softwareDescription</title>
<ellipse fill="none" stroke="#e377c2" cx="438.46" cy="-224.26" rx="113.69" ry="16.03"/>
<text text-anchor="middle" x="438.46" y="-220.56" font-family="Times,serif" font-size="14.00">softwareDescription</text>
</g>
<!-- http://purl.org/oseg/ontologies/OTRL#softwareDescription&#45;&gt;http://purl.org/oseg/ontologies/OTRL#OTRL -->
<g id="edge6" class="edge">
<title>http://purl.org/oseg/ontologies/OTRL#softwareDescription&#45;&gt;http://purl.org/oseg/ontologies/OTRL#OTRL</title>
<path fill="none" stroke="black" d="M438.28,-240.62C437.67,-297.39 435.64,-486.28 434.88,-556.6"/>
<polygon fill="black" stroke="black" points="431.38,-556.8 434.77,-566.83 438.38,-556.87 431.38,-556.8"/>
<text text-anchor="middle" x="410.08" y="-402.41" font-family="Times,serif" font-size="14.00">domain</text>
</g>
<!-- http://purl.org/oseg/ontologies/OTRL#softwareDescription&#45;&gt;http://www.w3.org/2002/07/owl#DatatypeProperty -->
<g id="edge7" class="edge">
<title>http://purl.org/oseg/ontologies/OTRL#softwareDescription&#45;&gt;http://www.w3.org/2002/07/owl#DatatypeProperty</title>
<path fill="none" stroke="black" d="M342.51,-215.43C313.16,-212.73 280.63,-209.74 250.36,-206.95"/>
<polygon fill="black" stroke="black" points="250.46,-203.45 240.18,-206.02 249.82,-210.42 250.46,-203.45"/>
<text text-anchor="middle" x="291.93" y="-214.99" font-family="Times,serif" font-size="14.00">a</text>
</g>
<!-- http://purl.org/oseg/ontologies/OTRL#softwareDescription&#45;&gt;http://schema.org/Text -->
<g id="edge13" class="edge">
<title>http://purl.org/oseg/ontologies/OTRL#softwareDescription&#45;&gt;http://schema.org/Text</title>
<path fill="none" stroke="black" d="M428.74,-207.91C407.17,-171.6 355.17,-84.11 329.48,-40.87"/>
<polygon fill="black" stroke="black" points="332.39,-38.91 324.27,-32.1 326.37,-42.49 332.39,-38.91"/>
<text text-anchor="middle" x="358.11" y="-128.19" font-family="Times,serif" font-size="14.00">range</text>
</g>
<!-- http://purl.org/oseg/ontologies/OTRL#OTRL&#45;8 -->
<g id="node12" class="node">
<title>http://purl.org/oseg/ontologies/OTRL#OTRL&#45;8</title>
<ellipse fill="none" stroke="#e377c2" cx="422.05" cy="-811.19" rx="49.49" ry="16.03"/>
<text text-anchor="middle" x="422.05" y="-807.49" font-family="Times,serif" font-size="14.00">OTRL&#45;8</text>
</g>
<!-- http://purl.org/oseg/ontologies/OTRL#OTRL&#45;8&#45;&gt;http://purl.org/oseg/ontologies/OTRL#OTRL -->
<g id="edge14" class="edge">
<title>http://purl.org/oseg/ontologies/OTRL#OTRL&#45;8&#45;&gt;http://purl.org/oseg/ontologies/OTRL#OTRL</title>
<path fill="none" stroke="black" d="M422.95,-794.8C425.09,-755.88 430.5,-657.62 433.13,-609.99"/>
<polygon fill="black" stroke="black" points="436.63,-610.01 433.69,-599.84 429.64,-609.63 436.63,-610.01"/>
</g>
<!-- http://purl.org/oseg/ontologies/OTRL#OTRL&#45;8&#45;&gt;http://www.w3.org/2002/07/owl#class -->
<g id="edge9" class="edge">
<title>http://purl.org/oseg/ontologies/OTRL#OTRL&#45;8&#45;&gt;http://www.w3.org/2002/07/owl#class</title>
<path fill="none" stroke="black" d="M442.6,-826.16C464.2,-841.9 498.35,-866.79 522.7,-884.53"/>
<polygon fill="black" stroke="black" points="520.72,-887.43 530.87,-890.49 524.85,-881.77 520.72,-887.43"/>
<text text-anchor="middle" x="478.15" y="-859.15" font-family="Times,serif" font-size="14.00">a</text>
</g>
<!-- http://purl.org/oseg/ontologies/OTRL#documentationDescription -->
<g id="node13" class="node">
<title>http://purl.org/oseg/ontologies/OTRL#documentationDescription</title>
<ellipse fill="none" stroke="#e377c2" cx="304.97" cy="-272.51" rx="120.83" ry="16.03"/>
<text text-anchor="middle" x="304.97" y="-268.81" font-family="Times,serif" font-size="14.00">documentationDesc...</text>
</g>
<!-- http://purl.org/oseg/ontologies/OTRL#documentationDescription&#45;&gt;http://purl.org/oseg/ontologies/OTRL#OTRL -->
<g id="edge42" class="edge">
<title>http://purl.org/oseg/ontologies/OTRL#documentationDescription&#45;&gt;http://purl.org/oseg/ontologies/OTRL#OTRL</title>
<path fill="none" stroke="black" d="M311.76,-288.78C332.98,-339.65 398.18,-495.98 423.95,-557.77"/>
<polygon fill="black" stroke="black" points="420.8,-559.3 427.88,-567.18 427.26,-556.6 420.8,-559.3"/>
<text text-anchor="middle" x="341.36" y="-427.08" font-family="Times,serif" font-size="14.00">domain</text>
</g>
<!-- http://purl.org/oseg/ontologies/OTRL#documentationDescription&#45;&gt;http://www.w3.org/2002/07/owl#DatatypeProperty -->
<g id="edge32" class="edge">
<title>http://purl.org/oseg/ontologies/OTRL#documentationDescription&#45;&gt;http://www.w3.org/2002/07/owl#DatatypeProperty</title>
<path fill="none" stroke="black" d="M270.6,-256.8C245.14,-245.17 210.24,-229.22 182.79,-216.68"/>
<polygon fill="black" stroke="black" points="183.97,-213.37 173.42,-212.4 181.06,-219.74 183.97,-213.37"/>
<text text-anchor="middle" x="222.2" y="-240.54" font-family="Times,serif" font-size="14.00">a</text>
</g>
<!-- http://purl.org/oseg/ontologies/OTRL#documentationDescription&#45;&gt;http://schema.org/Text -->
<g id="edge37" class="edge">
<title>http://purl.org/oseg/ontologies/OTRL#documentationDescription&#45;&gt;http://schema.org/Text</title>
<path fill="none" stroke="black" d="M305.59,-256.06C307.21,-212.78 311.61,-95.4 313.6,-42.41"/>
<polygon fill="black" stroke="black" points="317.11,-42.26 313.98,-32.13 310.11,-41.99 317.11,-42.26"/>
<text text-anchor="middle" x="288.59" y="-153.04" font-family="Times,serif" font-size="14.00">range</text>
</g>
<!-- http://purl.org/oseg/ontologies/OTRL#ODRL&#45;5 -->
<g id="node14" class="node">
<title>http://purl.org/oseg/ontologies/OTRL#ODRL&#45;5</title>
<ellipse fill="none" stroke="#e377c2" cx="811.45" cy="-985.62" rx="50.82" ry="16.03"/>
<text text-anchor="middle" x="811.45" y="-981.92" font-family="Times,serif" font-size="14.00">ODRL&#45;5</text>
</g>
<!-- http://purl.org/oseg/ontologies/OTRL#ODRL&#45;5&#45;&gt;http://purl.org/oseg/ontologies/OTRL#ODRL -->
<g id="edge20" class="edge">
<title>http://purl.org/oseg/ontologies/OTRL#ODRL&#45;5&#45;&gt;http://purl.org/oseg/ontologies/OTRL#ODRL</title>
<path fill="none" stroke="black" d="M790.86,-1000.72C759.81,-1023.48 700.95,-1066.65 665.99,-1092.29"/>
<polygon fill="black" stroke="black" points="663.64,-1089.67 657.65,-1098.4 667.78,-1095.31 663.64,-1089.67"/>
</g>
<!-- http://purl.org/oseg/ontologies/OTRL#ODRL&#45;5&#45;&gt;http://www.w3.org/2002/07/owl#class -->
<g id="edge33" class="edge">
<title>http://purl.org/oseg/ontologies/OTRL#ODRL&#45;5&#45;&gt;http://www.w3.org/2002/07/owl#class</title>
<path fill="none" stroke="black" d="M774.51,-974.25C728.83,-960.19 650.92,-936.22 600.4,-920.67"/>
<polygon fill="black" stroke="black" points="601.26,-917.28 590.68,-917.68 599.21,-923.97 601.26,-917.28"/>
<text text-anchor="middle" x="682.96" y="-951.26" font-family="Times,serif" font-size="14.00">a</text>
</g>
<!-- http://purl.org/oseg/ontologies/OTRL#OTRL&#45;3 -->
<g id="node15" class="node">
<title>http://purl.org/oseg/ontologies/OTRL#OTRL&#45;3</title>
<ellipse fill="none" stroke="#e377c2" cx="636.71" cy="-737.45" rx="49.49" ry="16.03"/>
<text text-anchor="middle" x="636.71" y="-733.75" font-family="Times,serif" font-size="14.00">OTRL&#45;3</text>
</g>
<!-- http://purl.org/oseg/ontologies/OTRL#OTRL&#45;3&#45;&gt;http://purl.org/oseg/ontologies/OTRL#OTRL -->
<g id="edge38" class="edge">
<title>http://purl.org/oseg/ontologies/OTRL#OTRL&#45;3&#45;&gt;http://purl.org/oseg/ontologies/OTRL#OTRL</title>
<path fill="none" stroke="black" d="M616.97,-722.39C580.54,-694.6 502.73,-635.26 461.51,-603.82"/>
<polygon fill="black" stroke="black" points="463.61,-601.02 453.54,-597.74 459.37,-606.58 463.61,-601.02"/>
</g>
<!-- http://purl.org/oseg/ontologies/OTRL#OTRL&#45;3&#45;&gt;http://www.w3.org/2002/07/owl#class -->
<g id="edge11" class="edge">
<title>http://purl.org/oseg/ontologies/OTRL#OTRL&#45;3&#45;&gt;http://www.w3.org/2002/07/owl#class</title>
<path fill="none" stroke="black" d="M628.57,-753.58C613.76,-782.9 582.33,-845.14 564.61,-880.24"/>
<polygon fill="black" stroke="black" points="561.38,-878.87 560,-889.37 567.63,-882.02 561.38,-878.87"/>
<text text-anchor="middle" x="592.09" y="-820.71" font-family="Times,serif" font-size="14.00">a</text>
</g>
<!-- http://purl.org/oseg/ontologies/OTRL#OTRL&#45;7 -->
<g id="node16" class="node">
<title>http://purl.org/oseg/ontologies/OTRL#OTRL&#45;7</title>
<ellipse fill="none" stroke="#e377c2" cx="260.4" cy="-791.56" rx="49.49" ry="16.03"/>
<text text-anchor="middle" x="260.4" y="-787.86" font-family="Times,serif" font-size="14.00">OTRL&#45;7</text>
</g>
<!-- http://purl.org/oseg/ontologies/OTRL#OTRL&#45;7&#45;&gt;http://purl.org/oseg/ontologies/OTRL#OTRL -->
<g id="edge29" class="edge">
<title>http://purl.org/oseg/ontologies/OTRL#OTRL&#45;7&#45;&gt;http://purl.org/oseg/ontologies/OTRL#OTRL</title>
<path fill="none" stroke="black" d="M273.78,-775.56C304.33,-739.04 379.32,-649.38 415.05,-606.66"/>
<polygon fill="black" stroke="black" points="417.92,-608.69 421.65,-598.77 412.55,-604.2 417.92,-608.69"/>
</g>
<!-- http://purl.org/oseg/ontologies/OTRL#OTRL&#45;7&#45;&gt;http://www.w3.org/2002/07/owl#class -->
<g id="edge34" class="edge">
<title>http://purl.org/oseg/ontologies/OTRL#OTRL&#45;7&#45;&gt;http://www.w3.org/2002/07/owl#class</title>
<path fill="none" stroke="black" d="M292.42,-804.1C344.93,-824.67 449.41,-865.61 508.47,-888.75"/>
<polygon fill="black" stroke="black" points="507.3,-892.05 517.89,-892.44 509.86,-885.53 507.3,-892.05"/>
<text text-anchor="middle" x="395.94" y="-850.22" font-family="Times,serif" font-size="14.00">a</text>
</g>
<!-- http://purl.org/oseg/ontologies/OTRL#OTRL&#45;6 -->
<g id="node17" class="node">
<title>http://purl.org/oseg/ontologies/OTRL#OTRL&#45;6</title>
<ellipse fill="none" stroke="#e377c2" cx="709.01" cy="-684.14" rx="49.49" ry="16.03"/>
<text text-anchor="middle" x="709.01" y="-680.44" font-family="Times,serif" font-size="14.00">OTRL&#45;6</text>
</g>
<!-- http://purl.org/oseg/ontologies/OTRL#OTRL&#45;6&#45;&gt;http://purl.org/oseg/ontologies/OTRL#OTRL -->
<g id="edge31" class="edge">
<title>http://purl.org/oseg/ontologies/OTRL#OTRL&#45;6&#45;&gt;http://purl.org/oseg/ontologies/OTRL#OTRL</title>
<path fill="none" stroke="black" d="M675.91,-671.97C625.18,-653.33 528.4,-617.76 474.09,-597.8"/>
<polygon fill="black" stroke="black" points="475.05,-594.43 464.46,-594.26 472.64,-601 475.05,-594.43"/>
</g>
<!-- http://purl.org/oseg/ontologies/OTRL#OTRL&#45;6&#45;&gt;http://www.w3.org/2002/07/owl#class -->
<g id="edge35" class="edge">
<title>http://purl.org/oseg/ontologies/OTRL#OTRL&#45;6&#45;&gt;http://www.w3.org/2002/07/owl#class</title>
<path fill="none" stroke="black" d="M697.7,-700.07C670.57,-738.3 601.61,-835.45 569.15,-881.19"/>
<polygon fill="black" stroke="black" points="566.11,-879.44 563.17,-889.62 571.81,-883.49 566.11,-879.44"/>
<text text-anchor="middle" x="628.93" y="-794.43" font-family="Times,serif" font-size="14.00">a</text>
</g>
<!-- http://purl.org/oseg/ontologies/OTRL -->
<g id="node18" class="node">
<title>http://purl.org/oseg/ontologies/OTRL</title>
<ellipse fill="none" stroke="#e377c2" cx="784.95" cy="-496.42" rx="60.62" ry="16.03"/>
<text text-anchor="middle" x="784.95" y="-492.72" font-family="Times,serif" font-size="14.00">ns1:OTRL</text>
</g>
<!-- http://purl.org/oseg/ontologies/OTRL&#45;&gt;http://www.w3.org/2002/07/owl#Ontology -->
<g id="edge16" class="edge">
<title>http://purl.org/oseg/ontologies/OTRL&#45;&gt;http://www.w3.org/2002/07/owl#Ontology</title>
<path fill="none" stroke="black" d="M731.65,-504.38C724.94,-505.38 717.98,-506.42 711.02,-507.46"/>
<polygon fill="black" stroke="black" points="710.22,-504.04 700.85,-508.98 711.26,-510.96 710.22,-504.04"/>
<text text-anchor="middle" x="719.08" y="-494.72" font-family="Times,serif" font-size="14.00">a</text>
</g>
<!-- http://purl.org/oseg/ontologies/OTRL&#45;&gt;http://purl.org/oseg/ontologies/OTRL -->
<g id="edge39" class="edge">
<title>http://purl.org/oseg/ontologies/OTRL&#45;&gt;http://purl.org/oseg/ontologies/OTRL</title>
<path fill="none" stroke="black" d="M840.55,-503.05C853.89,-502.53 863.76,-500.32 863.76,-496.42 863.76,-493.58 858.55,-491.64 850.58,-490.59"/>
<polygon fill="black" stroke="black" points="850.8,-487.1 840.55,-489.78 850.24,-494.07 850.8,-487.1"/>
<text text-anchor="middle" x="915.26" y="-492.72" font-family="Times,serif" font-size="14.00">owl:versionIRI</text>
</g>
<!-- http://purl.org/oseg/ontologies/OTRL#OTRL&#45;2 -->
<g id="node19" class="node">
<title>http://purl.org/oseg/ontologies/OTRL#OTRL&#45;2</title>
<ellipse fill="none" stroke="#e377c2" cx="682.24" cy="-604.96" rx="49.49" ry="16.03"/>
<text text-anchor="middle" x="682.24" y="-601.26" font-family="Times,serif" font-size="14.00">OTRL&#45;2</text>
</g>
<!-- http://purl.org/oseg/ontologies/OTRL#OTRL&#45;2&#45;&gt;http://purl.org/oseg/ontologies/OTRL#OTRL -->
<g id="edge46" class="edge">
<title>http://purl.org/oseg/ontologies/OTRL#OTRL&#45;2&#45;&gt;http://purl.org/oseg/ontologies/OTRL#OTRL</title>
<path fill="none" stroke="black" d="M634.2,-600.76C590.84,-596.96 527.33,-591.4 483.65,-587.58"/>
<polygon fill="black" stroke="black" points="483.82,-584.08 473.55,-586.7 483.21,-591.06 483.82,-584.08"/>
</g>
<!-- http://purl.org/oseg/ontologies/OTRL#OTRL&#45;2&#45;&gt;http://www.w3.org/2002/07/owl#class -->
<g id="edge40" class="edge">
<title>http://purl.org/oseg/ontologies/OTRL#OTRL&#45;2&#45;&gt;http://www.w3.org/2002/07/owl#class</title>
<path fill="none" stroke="black" d="M675.22,-621.13C653.76,-670.6 588.87,-820.16 562.78,-880.28"/>
<polygon fill="black" stroke="black" points="559.57,-878.89 558.8,-889.46 565.99,-881.68 559.57,-878.89"/>
<text text-anchor="middle" x="614.5" y="-754.51" font-family="Times,serif" font-size="14.00">a</text>
</g>
<!-- http://purl.org/oseg/ontologies/OTRL#OTRL&#45;9 -->
<g id="node20" class="node">
<title>http://purl.org/oseg/ontologies/OTRL#OTRL&#45;9</title>
<ellipse fill="none" stroke="#e377c2" cx="307.98" cy="-856.29" rx="49.49" ry="16.03"/>
<text text-anchor="middle" x="307.98" y="-852.59" font-family="Times,serif" font-size="14.00">OTRL&#45;9</text>
</g>
<!-- http://purl.org/oseg/ontologies/OTRL#OTRL&#45;9&#45;&gt;http://purl.org/oseg/ontologies/OTRL#OTRL -->
<g id="edge44" class="edge">
<title>http://purl.org/oseg/ontologies/OTRL#OTRL&#45;9&#45;&gt;http://purl.org/oseg/ontologies/OTRL#OTRL</title>
<path fill="none" stroke="black" d="M315.52,-840.03C336.77,-794.23 397.23,-663.87 422.87,-608.58"/>
<polygon fill="black" stroke="black" points="426.06,-610.01 427.1,-599.46 419.71,-607.06 426.06,-610.01"/>
</g>
<!-- http://purl.org/oseg/ontologies/OTRL#OTRL&#45;9&#45;&gt;http://www.w3.org/2002/07/owl#class -->
<g id="edge17" class="edge">
<title>http://purl.org/oseg/ontologies/OTRL#OTRL&#45;9&#45;&gt;http://www.w3.org/2002/07/owl#class</title>
<path fill="none" stroke="black" d="M350.16,-864.84C390.24,-872.97 450.79,-885.24 495.07,-894.22"/>
<polygon fill="black" stroke="black" points="494.6,-897.69 505.1,-896.25 496,-890.83 494.6,-897.69"/>
<text text-anchor="middle" x="418.12" y="-883.33" font-family="Times,serif" font-size="14.00">a</text>
</g>
<!-- http://purl.org/oseg/ontologies/OTRL#ODRL&#45;4 -->
<g id="node21" class="node">
<title>http://purl.org/oseg/ontologies/OTRL#ODRL&#45;4</title>
<ellipse fill="none" stroke="#e377c2" cx="806.85" cy="-1076.63" rx="50.82" ry="16.03"/>
<text text-anchor="middle" x="806.85" y="-1072.93" font-family="Times,serif" font-size="14.00">ODRL&#45;4</text>
</g>
<!-- http://purl.org/oseg/ontologies/OTRL#ODRL&#45;4&#45;&gt;http://purl.org/oseg/ontologies/OTRL#ODRL -->
<g id="edge2" class="edge">
<title>http://purl.org/oseg/ontologies/OTRL#ODRL&#45;4&#45;&gt;http://purl.org/oseg/ontologies/OTRL#ODRL</title>
<path fill="none" stroke="black" d="M764.21,-1085.78C739.9,-1091 709.39,-1097.55 684.45,-1102.9"/>
<polygon fill="black" stroke="black" points="683.53,-1099.52 674.49,-1105.04 685,-1106.36 683.53,-1099.52"/>
</g>
<!-- http://purl.org/oseg/ontologies/OTRL#ODRL&#45;4&#45;&gt;http://www.w3.org/2002/07/owl#class -->
<g id="edge18" class="edge">
<title>http://purl.org/oseg/ontologies/OTRL#ODRL&#45;4&#45;&gt;http://www.w3.org/2002/07/owl#class</title>
<path fill="none" stroke="black" d="M784.66,-1061.76C739.17,-1031.28 635.23,-961.64 582.97,-926.62"/>
<polygon fill="black" stroke="black" points="584.7,-923.57 574.44,-920.91 580.8,-929.38 584.7,-923.57"/>
<text text-anchor="middle" x="679.32" y="-997.99" font-family="Times,serif" font-size="14.00">a</text>
</g>
<!-- http://purl.org/oseg/ontologies/OTRL#ODRL&#45;1 -->
<g id="node22" class="node">
<title>http://purl.org/oseg/ontologies/OTRL#ODRL&#45;1</title>
<ellipse fill="none" stroke="#e377c2" cx="595.11" cy="-1223.86" rx="50.82" ry="16.03"/>
<text text-anchor="middle" x="595.11" y="-1220.16" font-family="Times,serif" font-size="14.00">ODRL&#45;1</text>
</g>
<!-- http://purl.org/oseg/ontologies/OTRL#ODRL&#45;1&#45;&gt;http://purl.org/oseg/ontologies/OTRL#ODRL -->
<g id="edge30" class="edge">
<title>http://purl.org/oseg/ontologies/OTRL#ODRL&#45;1&#45;&gt;http://purl.org/oseg/ontologies/OTRL#ODRL</title>
<path fill="none" stroke="black" d="M601.42,-1207.49C608.4,-1189.38 619.75,-1159.95 627.93,-1138.73"/>
<polygon fill="black" stroke="black" points="631.22,-1139.93 631.55,-1129.34 624.68,-1137.41 631.22,-1139.93"/>
</g>
<!-- http://purl.org/oseg/ontologies/OTRL#ODRL&#45;1&#45;&gt;http://www.w3.org/2002/07/owl#class -->
<g id="edge41" class="edge">
<title>http://purl.org/oseg/ontologies/OTRL#ODRL&#45;1&#45;&gt;http://www.w3.org/2002/07/owl#class</title>
<path fill="none" stroke="black" d="M592.84,-1207.21C585.76,-1155.23 564.02,-995.75 555.37,-932.22"/>
<polygon fill="black" stroke="black" points="558.82,-931.63 554,-922.2 551.88,-932.58 558.82,-931.63"/>
<text text-anchor="middle" x="569.6" y="-1073.51" font-family="Times,serif" font-size="14.00">a</text>
</g>
<!-- http://purl.org/oseg/ontologies/OTRL#OTRL&#45;1 -->
<g id="node23" class="node">
<title>http://purl.org/oseg/ontologies/OTRL#OTRL&#45;1</title>
<ellipse fill="none" stroke="#e377c2" cx="557.58" cy="-647.02" rx="49.49" ry="16.03"/>
<text text-anchor="middle" x="557.58" y="-643.32" font-family="Times,serif" font-size="14.00">OTRL&#45;1</text>
</g>
<!-- http://purl.org/oseg/ontologies/OTRL#OTRL&#45;1&#45;&gt;http://purl.org/oseg/ontologies/OTRL#OTRL -->
<g id="edge28" class="edge">
<title>http://purl.org/oseg/ontologies/OTRL#OTRL&#45;1&#45;&gt;http://purl.org/oseg/ontologies/OTRL#OTRL</title>
<path fill="none" stroke="black" d="M530.89,-633.19C512.6,-623.71 488.17,-611.05 468.5,-600.86"/>
<polygon fill="black" stroke="black" points="470.04,-597.72 459.55,-596.22 466.82,-603.93 470.04,-597.72"/>
</g>
<!-- http://purl.org/oseg/ontologies/OTRL#OTRL&#45;1&#45;&gt;http://www.w3.org/2002/07/owl#class -->
<g id="edge21" class="edge">
<title>http://purl.org/oseg/ontologies/OTRL#OTRL&#45;1&#45;&gt;http://www.w3.org/2002/07/owl#class</title>
<path fill="none" stroke="black" d="M557.2,-663.59C556.22,-707.31 553.55,-826 552.35,-879.24"/>
<polygon fill="black" stroke="black" points="548.85,-879.19 552.12,-889.27 555.85,-879.35 548.85,-879.19"/>
<text text-anchor="middle" x="550.28" y="-775.22" font-family="Times,serif" font-size="14.00">a</text>
</g>
<!-- http://purl.org/oseg/ontologies/OTRL#ODRL&#45;3 -->
<g id="node24" class="node">
<title>http://purl.org/oseg/ontologies/OTRL#ODRL&#45;3</title>
<ellipse fill="none" stroke="#e377c2" cx="483.81" cy="-1205.14" rx="50.82" ry="16.03"/>
<text text-anchor="middle" x="483.81" y="-1201.44" font-family="Times,serif" font-size="14.00">ODRL&#45;3</text>
</g>
<!-- http://purl.org/oseg/ontologies/OTRL#ODRL&#45;3&#45;&gt;http://purl.org/oseg/ontologies/OTRL#ODRL -->
<g id="edge5" class="edge">
<title>http://purl.org/oseg/ontologies/OTRL#ODRL&#45;3&#45;&gt;http://purl.org/oseg/ontologies/OTRL#ODRL</title>
<path fill="none" stroke="black" d="M507.88,-1190.73C534.42,-1174.84 577.21,-1149.22 606.4,-1131.75"/>
<polygon fill="black" stroke="black" points="608.2,-1134.75 614.98,-1126.61 604.61,-1128.74 608.2,-1134.75"/>
</g>
<!-- http://purl.org/oseg/ontologies/OTRL#ODRL&#45;3&#45;&gt;http://www.w3.org/2002/07/owl#class -->
<g id="edge43" class="edge">
<title>http://purl.org/oseg/ontologies/OTRL#ODRL&#45;3&#45;&gt;http://www.w3.org/2002/07/owl#class</title>
<path fill="none" stroke="black" d="M487.56,-1188.62C498.76,-1139.23 532.07,-992.44 545.77,-932.08"/>
<polygon fill="black" stroke="black" points="549.21,-932.71 548.01,-922.18 542.39,-931.16 549.21,-932.71"/>
<text text-anchor="middle" x="512.16" y="-1064.15" font-family="Times,serif" font-size="14.00">a</text>
</g>
<!-- http://purl.org/oseg/ontologies/OTRL#OTRL&#45;5 -->
<g id="node25" class="node">
<title>http://purl.org/oseg/ontologies/OTRL#OTRL&#45;5</title>
<ellipse fill="none" stroke="#e377c2" cx="293.43" cy="-711.45" rx="49.49" ry="16.03"/>
<text text-anchor="middle" x="293.43" y="-707.75" font-family="Times,serif" font-size="14.00">OTRL&#45;5</text>
</g>
<!-- http://purl.org/oseg/ontologies/OTRL#OTRL&#45;5&#45;&gt;http://purl.org/oseg/ontologies/OTRL#OTRL -->
<g id="edge3" class="edge">
<title>http://purl.org/oseg/ontologies/OTRL#OTRL&#45;5&#45;&gt;http://purl.org/oseg/ontologies/OTRL#OTRL</title>
<path fill="none" stroke="black" d="M310.46,-695.99C335.39,-673.36 381.96,-631.08 410.43,-605.23"/>
<polygon fill="black" stroke="black" points="412.9,-607.72 417.95,-598.41 408.19,-602.54 412.9,-607.72"/>
</g>
<!-- http://purl.org/oseg/ontologies/OTRL#OTRL&#45;5&#45;&gt;http://www.w3.org/2002/07/owl#class -->
<g id="edge45" class="edge">
<title>http://purl.org/oseg/ontologies/OTRL#OTRL&#45;5&#45;&gt;http://www.w3.org/2002/07/owl#class</title>
<path fill="none" stroke="black" d="M313.27,-726.37C358.71,-760.54 470.44,-844.56 523.24,-884.26"/>
<polygon fill="black" stroke="black" points="521.39,-887.25 531.49,-890.47 525.6,-881.66 521.39,-887.25"/>
<text text-anchor="middle" x="413.75" y="-794.12" font-family="Times,serif" font-size="14.00">a</text>
</g>
<!-- http://purl.org/oseg/ontologies/OTRL#ODRL&#45;2 -->
<g id="node26" class="node">
<title>http://purl.org/oseg/ontologies/OTRL#ODRL&#45;2</title>
<ellipse fill="none" stroke="#e377c2" cx="741.1" cy="-1163.25" rx="50.82" ry="16.03"/>
<text text-anchor="middle" x="741.1" y="-1159.55" font-family="Times,serif" font-size="14.00">ODRL&#45;2</text>
</g>
<!-- http://purl.org/oseg/ontologies/OTRL#ODRL&#45;2&#45;&gt;http://purl.org/oseg/ontologies/OTRL#ODRL -->
<g id="edge10" class="edge">
<title>http://purl.org/oseg/ontologies/OTRL#ODRL&#45;2&#45;&gt;http://purl.org/oseg/ontologies/OTRL#ODRL</title>
<path fill="none" stroke="black" d="M713.17,-1149.62C700.87,-1143.62 686.28,-1136.51 673.24,-1130.14"/>
<polygon fill="black" stroke="black" points="674.59,-1126.91 664.06,-1125.67 671.52,-1133.2 674.59,-1126.91"/>
</g>
<!-- http://purl.org/oseg/ontologies/OTRL#ODRL&#45;2&#45;&gt;http://www.w3.org/2002/07/owl#class -->
<g id="edge23" class="edge">
<title>http://purl.org/oseg/ontologies/OTRL#ODRL&#45;2&#45;&gt;http://www.w3.org/2002/07/owl#class</title>
<path fill="none" stroke="black" d="M729.26,-1147.14C697.11,-1103.42 608.08,-982.32 569.72,-930.15"/>
<polygon fill="black" stroke="black" points="572.34,-927.79 563.59,-921.81 566.7,-931.94 572.34,-927.79"/>
<text text-anchor="middle" x="644.99" y="-1042.44" font-family="Times,serif" font-size="14.00">a</text>
</g>
</g>
</svg>
