<?xml version="1.0" encoding="UTF-8" standalone="no"?>
<!DOCTYPE svg PUBLIC "-//W3C//DTD SVG 1.1//EN"
 "http://www.w3.org/Graphics/SVG/1.1/DTD/svg11.dtd">
<!-- Generated by graphviz version 2.43.0 (0)
 -->
<!-- Title: G Pages: 1 -->
<svg width="799pt" height="424pt"
 viewBox="0.00 0.00 799.00 424.00" xmlns="http://www.w3.org/2000/svg" xmlns:xlink="http://www.w3.org/1999/xlink">
<g id="graph0" class="graph" transform="scale(1 1) rotate(0) translate(4 420)">
<title>G</title>
<polygon fill="white" stroke="transparent" points="-4,4 -4,-420 795,-420 795,4 -4,4"/>
<!-- http://www.w3.org/2002/07/owl#Ontology -->
<g id="node1" class="node">
<title>http://www.w3.org/2002/07/owl#Ontology</title>
<ellipse fill="none" stroke="#1f77b4" cx="455.32" cy="-38.47" rx="77.56" ry="16.03"/>
<text text-anchor="middle" x="455.32" y="-34.77" font-family="Times,serif" font-size="14.00">owl:Ontology</text>
</g>
<!-- http://purl.org/oseg/ontologies/OTRL#ODRL -->
<g id="node2" class="node">
<title>http://purl.org/oseg/ontologies/OTRL#ODRL</title>
<ellipse fill="none" stroke="#e377c2" cx="204.19" cy="-116.81" rx="41.94" ry="16.03"/>
<text text-anchor="middle" x="204.19" y="-113.11" font-family="Times,serif" font-size="14.00">ODRL</text>
</g>
<!-- http://www.w3.org/2002/07/owl#DatatypeProperty -->
<g id="node3" class="node">
<title>http://www.w3.org/2002/07/owl#DatatypeProperty</title>
<ellipse fill="none" stroke="#1f77b4" cx="438.02" cy="-336.83" rx="123.07" ry="16.03"/>
<text text-anchor="middle" x="438.02" y="-333.13" font-family="Times,serif" font-size="14.00">owl:DatatypeProperty</text>
</g>
<!-- http://www.w3.org/2002/07/owl#class -->
<g id="node4" class="node">
<title>http://www.w3.org/2002/07/owl#class</title>
<ellipse fill="none" stroke="#1f77b4" cx="207.29" cy="-184.1" rx="57.05" ry="16.03"/>
<text text-anchor="middle" x="207.29" y="-180.4" font-family="Times,serif" font-size="14.00">owl:class</text>
</g>
<!-- http://purl.org/oseg/ontologies/OTRL#OTRL -->
<g id="node5" class="node">
<title>http://purl.org/oseg/ontologies/OTRL#OTRL</title>
<ellipse fill="none" stroke="#e377c2" cx="206.66" cy="-225.49" rx="39.7" ry="16.03"/>
<text text-anchor="middle" x="206.66" y="-221.79" font-family="Times,serif" font-size="14.00">OTRL</text>
</g>
<!-- http://purl.org/oseg/ontologies/OTRL#OTRL&#45;&gt;http://www.w3.org/2002/07/owl#class -->
<g id="edge19" class="edge">
<title>http://purl.org/oseg/ontologies/OTRL#OTRL&#45;&gt;http://www.w3.org/2002/07/owl#class</title>
<path fill="none" stroke="black" d="M206.91,-209.13C206.91,-209.04 206.91,-208.96 206.91,-208.87"/>
<polygon fill="black" stroke="black" points="210.38,-210.66 207.04,-200.61 203.38,-210.56 210.38,-210.66"/>
<text text-anchor="middle" x="202.41" y="-197.8" font-family="Times,serif" font-size="14.00">a</text>
</g>
<!-- http://purl.org/oseg/ontologies/OTRL#Otrl4 -->
<g id="node6" class="node">
<title>http://purl.org/oseg/ontologies/OTRL#Otrl4</title>
<ellipse fill="none" stroke="#e377c2" cx="223.31" cy="-266.04" rx="38.37" ry="16.03"/>
<text text-anchor="middle" x="223.31" y="-262.34" font-family="Times,serif" font-size="14.00">Otrl4</text>
</g>
<!-- http://purl.org/oseg/ontologies/OTRL#Otrl4&#45;&gt;http://www.w3.org/2002/07/owl#class -->
<g id="edge2" class="edge">
<title>http://purl.org/oseg/ontologies/OTRL#Otrl4&#45;&gt;http://www.w3.org/2002/07/owl#class</title>
<path fill="none" stroke="black" d="M220.07,-249.46C217.89,-238.28 214.95,-223.29 212.45,-210.49"/>
<polygon fill="black" stroke="black" points="215.83,-209.52 210.47,-200.38 208.96,-210.86 215.83,-209.52"/>
<text text-anchor="middle" x="211.76" y="-233.77" font-family="Times,serif" font-size="14.00">a</text>
</g>
<!-- http://purl.org/oseg/ontologies/OTRL#Otrl4&#45;&gt;http://purl.org/oseg/ontologies/OTRL#OTRL -->
<g id="edge13" class="edge">
<title>http://purl.org/oseg/ontologies/OTRL#Otrl4&#45;&gt;http://purl.org/oseg/ontologies/OTRL#OTRL</title>
<path fill="none" stroke="black" d="M216.73,-250.02C216.7,-249.93 216.66,-249.84 216.62,-249.76"/>
<polygon fill="black" stroke="black" points="220.34,-249.59 213.3,-241.67 213.86,-252.25 220.34,-249.59"/>
</g>
<!-- http://purl.org/oseg/ontologies/OTRL#Odrl -->
<g id="node7" class="node">
<title>http://purl.org/oseg/ontologies/OTRL#Odrl</title>
<ellipse fill="none" stroke="#e377c2" cx="251.24" cy="-324.39" rx="33.88" ry="16.03"/>
<text text-anchor="middle" x="251.24" y="-320.69" font-family="Times,serif" font-size="14.00">Odrl</text>
</g>
<!-- http://purl.org/oseg/ontologies/OTRL#Odrl&#45;&gt;http://www.w3.org/2002/07/owl#class -->
<g id="edge6" class="edge">
<title>http://purl.org/oseg/ontologies/OTRL#Odrl&#45;&gt;http://www.w3.org/2002/07/owl#class</title>
<path fill="none" stroke="black" d="M246.2,-308.3C238.69,-284.32 224.48,-238.98 215.47,-210.21"/>
<polygon fill="black" stroke="black" points="218.74,-208.93 212.41,-200.44 212.06,-211.02 218.74,-208.93"/>
<text text-anchor="middle" x="226.34" y="-248.06" font-family="Times,serif" font-size="14.00">a</text>
</g>
<!-- http://purl.org/oseg/ontologies/OTRL#exitCriteria -->
<g id="node8" class="node">
<title>http://purl.org/oseg/ontologies/OTRL#exitCriteria</title>
<ellipse fill="none" stroke="#e377c2" cx="721.16" cy="-393.54" rx="70.01" ry="16.03"/>
<text text-anchor="middle" x="721.16" y="-389.84" font-family="Times,serif" font-size="14.00">exitCriteria</text>
</g>
<!-- http://purl.org/oseg/ontologies/OTRL#exitCriteria&#45;&gt;http://www.w3.org/2002/07/owl#DatatypeProperty -->
<g id="edge3" class="edge">
<title>http://purl.org/oseg/ontologies/OTRL#exitCriteria&#45;&gt;http://www.w3.org/2002/07/owl#DatatypeProperty</title>
<path fill="none" stroke="black" d="M667.9,-382.87C624.97,-374.27 563.99,-362.06 515.62,-352.37"/>
<polygon fill="black" stroke="black" points="516.3,-348.94 505.81,-350.41 514.93,-355.81 516.3,-348.94"/>
<text text-anchor="middle" x="587.26" y="-371.42" font-family="Times,serif" font-size="14.00">a</text>
</g>
<!-- http://schema.org/Text -->
<g id="node17" class="node">
<title>http://schema.org/Text</title>
<ellipse fill="none" stroke="#e377c2" cx="554.2" cy="-399.77" rx="74.91" ry="16.03"/>
<text text-anchor="middle" x="554.2" y="-396.07" font-family="Times,serif" font-size="14.00">schema:Text</text>
</g>
<!-- http://purl.org/oseg/ontologies/OTRL#exitCriteria&#45;&gt;http://schema.org/Text -->
<g id="edge24" class="edge">
<title>http://purl.org/oseg/ontologies/OTRL#exitCriteria&#45;&gt;http://schema.org/Text</title>
<path fill="none" stroke="black" d="M651.8,-396.13C647.42,-396.29 642.98,-396.45 638.54,-396.62"/>
<polygon fill="black" stroke="black" points="638.06,-393.14 628.19,-397.01 638.32,-400.13 638.06,-393.14"/>
<text text-anchor="middle" x="624.17" y="-385.17" font-family="Times,serif" font-size="14.00">range</text>
</g>
<!-- http://purl.org/oseg/ontologies/OTRL#Otrl6 -->
<g id="node9" class="node">
<title>http://purl.org/oseg/ontologies/OTRL#Otrl6</title>
<ellipse fill="none" stroke="#e377c2" cx="157.89" cy="-322.38" rx="38.37" ry="16.03"/>
<text text-anchor="middle" x="157.89" y="-318.68" font-family="Times,serif" font-size="14.00">Otrl6</text>
</g>
<!-- http://purl.org/oseg/ontologies/OTRL#Otrl6&#45;&gt;http://www.w3.org/2002/07/owl#class -->
<g id="edge4" class="edge">
<title>http://purl.org/oseg/ontologies/OTRL#Otrl6&#45;&gt;http://www.w3.org/2002/07/owl#class</title>
<path fill="none" stroke="black" d="M163.65,-306.24C172.08,-282.64 187.87,-238.44 197.97,-210.18"/>
<polygon fill="black" stroke="black" points="201.34,-211.15 201.41,-200.56 194.75,-208.8 201.34,-211.15"/>
<text text-anchor="middle" x="176.31" y="-262.01" font-family="Times,serif" font-size="14.00">a</text>
</g>
<!-- http://purl.org/oseg/ontologies/OTRL#Otrl6&#45;&gt;http://purl.org/oseg/ontologies/OTRL#OTRL -->
<g id="edge16" class="edge">
<title>http://purl.org/oseg/ontologies/OTRL#Otrl6&#45;&gt;http://purl.org/oseg/ontologies/OTRL#OTRL</title>
<path fill="none" stroke="black" d="M165.94,-306.38C173.56,-291.23 185.13,-268.25 193.99,-250.66"/>
<polygon fill="black" stroke="black" points="197.22,-252.02 198.59,-241.52 190.97,-248.87 197.22,-252.02"/>
</g>
<!-- http://purl.org/oseg/ontologies/OTRL -->
<g id="node10" class="node">
<title>http://purl.org/oseg/ontologies/OTRL</title>
<ellipse fill="none" stroke="#e377c2" cx="602.95" cy="-16.42" rx="60.62" ry="16.03"/>
<text text-anchor="middle" x="602.95" y="-12.72" font-family="Times,serif" font-size="14.00">ns1:OTRL</text>
</g>
<!-- http://purl.org/oseg/ontologies/OTRL&#45;&gt;http://www.w3.org/2002/07/owl#Ontology -->
<g id="edge5" class="edge">
<title>http://purl.org/oseg/ontologies/OTRL&#45;&gt;http://www.w3.org/2002/07/owl#Ontology</title>
<path fill="none" stroke="black" d="M549.65,-24.38C542.94,-25.38 535.98,-26.42 529.02,-27.46"/>
<polygon fill="black" stroke="black" points="528.22,-24.04 518.85,-28.98 529.26,-30.96 528.22,-24.04"/>
<text text-anchor="middle" x="537.08" y="-14.72" font-family="Times,serif" font-size="14.00">a</text>
</g>
<!-- http://purl.org/oseg/ontologies/OTRL&#45;&gt;http://purl.org/oseg/ontologies/OTRL -->
<g id="edge21" class="edge">
<title>http://purl.org/oseg/ontologies/OTRL&#45;&gt;http://purl.org/oseg/ontologies/OTRL</title>
<path fill="none" stroke="black" d="M658.55,-23.05C671.89,-22.53 681.76,-20.32 681.76,-16.42 681.76,-13.58 676.55,-11.64 668.58,-10.59"/>
<polygon fill="black" stroke="black" points="668.8,-7.1 658.55,-9.78 668.24,-14.07 668.8,-7.1"/>
<text text-anchor="middle" x="733.26" y="-12.72" font-family="Times,serif" font-size="14.00">owl:versionIRI</text>
</g>
<!-- http://www.w3.org/1999/02/22&#45;rdf&#45;syntax&#45;ns#nil -->
<g id="node11" class="node">
<title>http://www.w3.org/1999/02/22&#45;rdf&#45;syntax&#45;ns#nil</title>
<ellipse fill="none" stroke="#e377c2" cx="420.24" cy="-289.64" rx="42.35" ry="16.03"/>
<text text-anchor="middle" x="420.24" y="-285.94" font-family="Times,serif" font-size="14.00">rdf:nil</text>
</g>
<!-- http://purl.org/oseg/ontologies/OTRL#Otrl -->
<g id="node12" class="node">
<title>http://purl.org/oseg/ontologies/OTRL#Otrl</title>
<ellipse fill="none" stroke="#e377c2" cx="53.24" cy="-373.64" rx="31.64" ry="16.03"/>
<text text-anchor="middle" x="53.24" y="-369.94" font-family="Times,serif" font-size="14.00">Otrl</text>
</g>
<!-- http://purl.org/oseg/ontologies/OTRL#Odrl4 -->
<g id="node13" class="node">
<title>http://purl.org/oseg/ontologies/OTRL#Odrl4</title>
<ellipse fill="none" stroke="#e377c2" cx="116.11" cy="-62.21" rx="40.11" ry="16.03"/>
<text text-anchor="middle" x="116.11" y="-58.51" font-family="Times,serif" font-size="14.00">Odrl4</text>
</g>
<!-- http://purl.org/oseg/ontologies/OTRL#Odrl4&#45;&gt;http://purl.org/oseg/ontologies/OTRL#ODRL -->
<g id="edge1" class="edge">
<title>http://purl.org/oseg/ontologies/OTRL#Odrl4&#45;&gt;http://purl.org/oseg/ontologies/OTRL#ODRL</title>
<path fill="none" stroke="black" d="M138.34,-75.99C148.98,-82.58 161.89,-90.59 173.45,-97.76"/>
<polygon fill="black" stroke="black" points="171.63,-100.74 181.97,-103.04 175.31,-94.79 171.63,-100.74"/>
</g>
<!-- http://purl.org/oseg/ontologies/OTRL#Odrl4&#45;&gt;http://www.w3.org/2002/07/owl#class -->
<g id="edge7" class="edge">
<title>http://purl.org/oseg/ontologies/OTRL#Odrl4&#45;&gt;http://www.w3.org/2002/07/owl#class</title>
<path fill="none" stroke="black" d="M128.03,-78.15C143.66,-99.04 171.23,-135.89 189.37,-160.15"/>
<polygon fill="black" stroke="black" points="186.57,-162.25 195.37,-168.16 192.18,-158.06 186.57,-162.25"/>
<text text-anchor="middle" x="154.2" y="-122.95" font-family="Times,serif" font-size="14.00">a</text>
</g>
<!-- http://purl.org/oseg/ontologies/OTRL#Otrl5 -->
<g id="node14" class="node">
<title>http://purl.org/oseg/ontologies/OTRL#Otrl5</title>
<ellipse fill="none" stroke="#e377c2" cx="331.63" cy="-216.76" rx="38.37" ry="16.03"/>
<text text-anchor="middle" x="331.63" y="-213.06" font-family="Times,serif" font-size="14.00">Otrl5</text>
</g>
<!-- http://purl.org/oseg/ontologies/OTRL#Otrl5&#45;&gt;http://www.w3.org/2002/07/owl#class -->
<g id="edge22" class="edge">
<title>http://purl.org/oseg/ontologies/OTRL#Otrl5&#45;&gt;http://www.w3.org/2002/07/owl#class</title>
<path fill="none" stroke="black" d="M298.96,-208.18C286.92,-205.02 272.96,-201.35 259.62,-197.84"/>
<polygon fill="black" stroke="black" points="260.14,-194.36 249.58,-195.21 258.36,-201.13 260.14,-194.36"/>
<text text-anchor="middle" x="274.79" y="-206.81" font-family="Times,serif" font-size="14.00">a</text>
</g>
<!-- http://purl.org/oseg/ontologies/OTRL#Otrl5&#45;&gt;http://purl.org/oseg/ontologies/OTRL#OTRL -->
<g id="edge30" class="edge">
<title>http://purl.org/oseg/ontologies/OTRL#Otrl5&#45;&gt;http://purl.org/oseg/ontologies/OTRL#OTRL</title>
<path fill="none" stroke="black" d="M293.8,-219.4C282.01,-220.23 268.83,-221.15 256.36,-222.02"/>
<polygon fill="black" stroke="black" points="255.83,-218.55 246.1,-222.74 256.32,-225.53 255.83,-218.55"/>
</g>
<!-- http://purl.org/oseg/ontologies/OTRL#goal -->
<g id="node15" class="node">
<title>http://purl.org/oseg/ontologies/OTRL#goal</title>
<ellipse fill="none" stroke="#e377c2" cx="607.54" cy="-330.85" rx="33.47" ry="16.03"/>
<text text-anchor="middle" x="607.54" y="-327.15" font-family="Times,serif" font-size="14.00">goal</text>
</g>
<!-- http://purl.org/oseg/ontologies/OTRL#goal&#45;&gt;http://www.w3.org/2002/07/owl#DatatypeProperty -->
<g id="edge9" class="edge">
<title>http://purl.org/oseg/ontologies/OTRL#goal&#45;&gt;http://www.w3.org/2002/07/owl#DatatypeProperty</title>
<path fill="none" stroke="black" d="M574.05,-332.03C571.81,-332.11 569.5,-332.19 567.12,-332.28"/>
<polygon fill="black" stroke="black" points="566.86,-328.79 556.99,-332.64 567.11,-335.78 566.86,-328.79"/>
<text text-anchor="middle" x="566.08" y="-335.96" font-family="Times,serif" font-size="14.00">a</text>
</g>
<!-- http://purl.org/oseg/ontologies/OTRL#goal&#45;&gt;http://schema.org/Text -->
<g id="edge28" class="edge">
<title>http://purl.org/oseg/ontologies/OTRL#goal&#45;&gt;http://schema.org/Text</title>
<path fill="none" stroke="black" d="M595.7,-346.15C589.06,-354.73 580.61,-365.65 573.07,-375.39"/>
<polygon fill="black" stroke="black" points="570.1,-373.5 566.75,-383.55 575.64,-377.79 570.1,-373.5"/>
<text text-anchor="middle" x="563.39" y="-364.57" font-family="Times,serif" font-size="14.00">range</text>
</g>
<!-- http://purl.org/oseg/ontologies/OTRL#Otrl2 -->
<g id="node16" class="node">
<title>http://purl.org/oseg/ontologies/OTRL#Otrl2</title>
<ellipse fill="none" stroke="#e377c2" cx="83.33" cy="-217.68" rx="38.37" ry="16.03"/>
<text text-anchor="middle" x="83.33" y="-213.98" font-family="Times,serif" font-size="14.00">Otrl2</text>
</g>
<!-- http://purl.org/oseg/ontologies/OTRL#Otrl2&#45;&gt;http://www.w3.org/2002/07/owl#class -->
<g id="edge23" class="edge">
<title>http://purl.org/oseg/ontologies/OTRL#Otrl2&#45;&gt;http://www.w3.org/2002/07/owl#class</title>
<path fill="none" stroke="black" d="M115.57,-208.95C127.93,-205.6 142.35,-201.69 156.04,-197.98"/>
<polygon fill="black" stroke="black" points="157.11,-201.32 165.85,-195.32 155.28,-194.56 157.11,-201.32"/>
<text text-anchor="middle" x="131.31" y="-207.26" font-family="Times,serif" font-size="14.00">a</text>
</g>
<!-- http://purl.org/oseg/ontologies/OTRL#Otrl2&#45;&gt;http://purl.org/oseg/ontologies/OTRL#OTRL -->
<g id="edge10" class="edge">
<title>http://purl.org/oseg/ontologies/OTRL#Otrl2&#45;&gt;http://purl.org/oseg/ontologies/OTRL#OTRL</title>
<path fill="none" stroke="black" d="M121.34,-220.09C132.61,-220.8 145.13,-221.6 157.03,-222.35"/>
<polygon fill="black" stroke="black" points="157.08,-225.86 167.28,-223 157.52,-218.87 157.08,-225.86"/>
</g>
<!-- http://purl.org/oseg/ontologies/OTRL#Odrl2 -->
<g id="node18" class="node">
<title>http://purl.org/oseg/ontologies/OTRL#Odrl2</title>
<ellipse fill="none" stroke="#e377c2" cx="205.01" cy="-74.33" rx="40.11" ry="16.03"/>
<text text-anchor="middle" x="205.01" y="-70.63" font-family="Times,serif" font-size="14.00">Odrl2</text>
</g>
<!-- http://purl.org/oseg/ontologies/OTRL#Odrl2&#45;&gt;http://purl.org/oseg/ontologies/OTRL#ODRL -->
<g id="edge17" class="edge">
<title>http://purl.org/oseg/ontologies/OTRL#Odrl2&#45;&gt;http://purl.org/oseg/ontologies/OTRL#ODRL</title>
<path fill="none" stroke="black" d="M204.69,-90.64C204.69,-90.73 204.69,-90.83 204.69,-90.93"/>
<polygon fill="black" stroke="black" points="201.2,-90.28 204.51,-100.34 208.2,-90.41 201.2,-90.28"/>
</g>
<!-- http://purl.org/oseg/ontologies/OTRL#Odrl2&#45;&gt;http://www.w3.org/2002/07/owl#class -->
<g id="edge11" class="edge">
<title>http://purl.org/oseg/ontologies/OTRL#Odrl2&#45;&gt;http://www.w3.org/2002/07/owl#class</title>
<path fill="none" stroke="black" d="M205.36,-91.01C205.72,-108.68 206.31,-136.84 206.74,-157.56"/>
<polygon fill="black" stroke="black" points="203.24,-157.7 206.95,-167.63 210.24,-157.56 203.24,-157.7"/>
<text text-anchor="middle" x="201.55" y="-128.08" font-family="Times,serif" font-size="14.00">a</text>
</g>
<!-- http://purl.org/oseg/ontologies/OTRL#Odrl1 -->
<g id="node19" class="node">
<title>http://purl.org/oseg/ontologies/OTRL#Odrl1</title>
<ellipse fill="none" stroke="#e377c2" cx="294.57" cy="-58.75" rx="40.11" ry="16.03"/>
<text text-anchor="middle" x="294.57" y="-55.05" font-family="Times,serif" font-size="14.00">Odrl1</text>
</g>
<!-- http://purl.org/oseg/ontologies/OTRL#Odrl1&#45;&gt;http://purl.org/oseg/ontologies/OTRL#ODRL -->
<g id="edge8" class="edge">
<title>http://purl.org/oseg/ontologies/OTRL#Odrl1&#45;&gt;http://purl.org/oseg/ontologies/OTRL#ODRL</title>
<path fill="none" stroke="black" d="M272.69,-72.81C261.26,-80.15 247.08,-89.26 234.59,-97.28"/>
<polygon fill="black" stroke="black" points="232.39,-94.54 225.86,-102.88 236.17,-100.42 232.39,-94.54"/>
</g>
<!-- http://purl.org/oseg/ontologies/OTRL#Odrl1&#45;&gt;http://www.w3.org/2002/07/owl#class -->
<g id="edge12" class="edge">
<title>http://purl.org/oseg/ontologies/OTRL#Odrl1&#45;&gt;http://www.w3.org/2002/07/owl#class</title>
<path fill="none" stroke="black" d="M283.52,-74.63C268.58,-96.08 241.81,-134.52 224.3,-159.67"/>
<polygon fill="black" stroke="black" points="221.37,-157.75 218.53,-167.96 227.12,-161.75 221.37,-157.75"/>
<text text-anchor="middle" x="258.41" y="-120.95" font-family="Times,serif" font-size="14.00">a</text>
</g>
<!-- http://purl.org/oseg/ontologies/OTRL#Otrl1 -->
<g id="node20" class="node">
<title>http://purl.org/oseg/ontologies/OTRL#Otrl1</title>
<ellipse fill="none" stroke="#e377c2" cx="103.26" cy="-278.42" rx="38.37" ry="16.03"/>
<text text-anchor="middle" x="103.26" y="-274.72" font-family="Times,serif" font-size="14.00">Otrl1</text>
</g>
<!-- http://purl.org/oseg/ontologies/OTRL#Otrl1&#45;&gt;http://www.w3.org/2002/07/owl#class -->
<g id="edge26" class="edge">
<title>http://purl.org/oseg/ontologies/OTRL#Otrl1&#45;&gt;http://www.w3.org/2002/07/owl#class</title>
<path fill="none" stroke="black" d="M119.51,-263.69C136.39,-248.38 163,-224.26 182.5,-206.58"/>
<polygon fill="black" stroke="black" points="185.05,-208.98 190.11,-199.67 180.35,-203.8 185.05,-208.98"/>
<text text-anchor="middle" x="146.51" y="-238.93" font-family="Times,serif" font-size="14.00">a</text>
</g>
<!-- http://purl.org/oseg/ontologies/OTRL#Otrl1&#45;&gt;http://purl.org/oseg/ontologies/OTRL#OTRL -->
<g id="edge15" class="edge">
<title>http://purl.org/oseg/ontologies/OTRL#Otrl1&#45;&gt;http://purl.org/oseg/ontologies/OTRL#OTRL</title>
<path fill="none" stroke="black" d="M127.76,-265.88C141.09,-259.06 157.78,-250.51 172.38,-243.04"/>
<polygon fill="black" stroke="black" points="174.3,-245.99 181.61,-238.31 171.11,-239.76 174.3,-245.99"/>
</g>
<!-- http://purl.org/oseg/ontologies/OTRL#Otrl3 -->
<g id="node21" class="node">
<title>http://purl.org/oseg/ontologies/OTRL#Otrl3</title>
<ellipse fill="none" stroke="#e377c2" cx="311.72" cy="-278.78" rx="38.37" ry="16.03"/>
<text text-anchor="middle" x="311.72" y="-275.08" font-family="Times,serif" font-size="14.00">Otrl3</text>
</g>
<!-- http://purl.org/oseg/ontologies/OTRL#Otrl3&#45;&gt;http://www.w3.org/2002/07/owl#class -->
<g id="edge27" class="edge">
<title>http://purl.org/oseg/ontologies/OTRL#Otrl3&#45;&gt;http://www.w3.org/2002/07/owl#class</title>
<path fill="none" stroke="black" d="M295.4,-263.98C278.46,-248.63 251.75,-224.41 232.17,-206.66"/>
<polygon fill="black" stroke="black" points="234.29,-203.86 224.53,-199.73 229.59,-209.04 234.29,-203.86"/>
<text text-anchor="middle" x="259.29" y="-224.12" font-family="Times,serif" font-size="14.00">a</text>
</g>
<!-- http://purl.org/oseg/ontologies/OTRL#Otrl3&#45;&gt;http://purl.org/oseg/ontologies/OTRL#OTRL -->
<g id="edge18" class="edge">
<title>http://purl.org/oseg/ontologies/OTRL#Otrl3&#45;&gt;http://purl.org/oseg/ontologies/OTRL#OTRL</title>
<path fill="none" stroke="black" d="M287.09,-266.29C273.32,-259.31 255.96,-250.5 240.9,-242.86"/>
<polygon fill="black" stroke="black" points="242.36,-239.68 231.86,-238.28 239.2,-245.92 242.36,-239.68"/>
</g>
<!-- http://purl.org/oseg/ontologies/OTRL#Odrl3 -->
<g id="node22" class="node">
<title>http://purl.org/oseg/ontologies/OTRL#Odrl3</title>
<ellipse fill="none" stroke="#e377c2" cx="325.32" cy="-107.64" rx="40.11" ry="16.03"/>
<text text-anchor="middle" x="325.32" y="-103.94" font-family="Times,serif" font-size="14.00">Odrl3</text>
</g>
<!-- http://purl.org/oseg/ontologies/OTRL#Odrl3&#45;&gt;http://purl.org/oseg/ontologies/OTRL#ODRL -->
<g id="edge14" class="edge">
<title>http://purl.org/oseg/ontologies/OTRL#Odrl3&#45;&gt;http://purl.org/oseg/ontologies/OTRL#ODRL</title>
<path fill="none" stroke="black" d="M285.66,-110.64C275.93,-111.38 265.38,-112.17 255.2,-112.95"/>
<polygon fill="black" stroke="black" points="254.9,-109.46 245.19,-113.7 255.42,-116.44 254.9,-109.46"/>
</g>
<!-- http://purl.org/oseg/ontologies/OTRL#Odrl3&#45;&gt;http://www.w3.org/2002/07/owl#class -->
<g id="edge20" class="edge">
<title>http://purl.org/oseg/ontologies/OTRL#Odrl3&#45;&gt;http://www.w3.org/2002/07/owl#class</title>
<path fill="none" stroke="black" d="M303.95,-121.48C285.81,-133.23 259.54,-150.25 238.96,-163.58"/>
<polygon fill="black" stroke="black" points="237.02,-160.67 230.53,-169.05 240.82,-166.55 237.02,-160.67"/>
<text text-anchor="middle" x="266.95" y="-146.33" font-family="Times,serif" font-size="14.00">a</text>
</g>
<!-- http://purl.org/oseg/ontologies/OTRL#Odrl3Star -->
<g id="node23" class="node">
<title>http://purl.org/oseg/ontologies/OTRL#Odrl3Star</title>
<ellipse fill="none" stroke="#e377c2" cx="62.46" cy="-104.17" rx="62.45" ry="16.03"/>
<text text-anchor="middle" x="62.46" y="-100.47" font-family="Times,serif" font-size="14.00">Odrl3Star</text>
</g>
<!-- http://purl.org/oseg/ontologies/OTRL#Odrl3Star&#45;&gt;http://purl.org/oseg/ontologies/OTRL#ODRL -->
<g id="edge25" class="edge">
<title>http://purl.org/oseg/ontologies/OTRL#Odrl3Star&#45;&gt;http://purl.org/oseg/ontologies/OTRL#ODRL</title>
<path fill="none" stroke="black" d="M121.74,-109.46C132.21,-110.39 143.03,-111.36 153.24,-112.27"/>
<polygon fill="black" stroke="black" points="152.95,-115.75 163.22,-113.16 153.57,-108.78 152.95,-115.75"/>
</g>
<!-- http://purl.org/oseg/ontologies/OTRL#Odrl3Star&#45;&gt;http://www.w3.org/2002/07/owl#class -->
<g id="edge29" class="edge">
<title>http://purl.org/oseg/ontologies/OTRL#Odrl3Star&#45;&gt;http://www.w3.org/2002/07/owl#class</title>
<path fill="none" stroke="black" d="M89.36,-119.02C112.68,-131.89 146.57,-150.59 172.05,-164.65"/>
<polygon fill="black" stroke="black" points="170.57,-167.83 181.02,-169.6 173.96,-161.7 170.57,-167.83"/>
<text text-anchor="middle" x="126.21" y="-145.64" font-family="Times,serif" font-size="14.00">a</text>
</g>
</g>
</svg>
