<?xml version="1.0" encoding="UTF-8" standalone="no"?>
<!DOCTYPE svg PUBLIC "-//W3C//DTD SVG 1.1//EN"
 "http://www.w3.org/Graphics/SVG/1.1/DTD/svg11.dtd">
<!-- Generated by graphviz version 2.43.0 (0)
 -->
<!-- Title: G Pages: 1 -->
<svg width="847pt" height="425pt"
 viewBox="0.00 0.00 846.76 425.00" xmlns="http://www.w3.org/2000/svg" xmlns:xlink="http://www.w3.org/1999/xlink">
<g id="graph0" class="graph" transform="scale(1 1) rotate(0) translate(4 421)">
<title>G</title>
<polygon fill="white" stroke="transparent" points="-4,4 -4,-421 842.76,-421 842.76,4 -4,4"/>
<!-- http://purl.org/oseg/ontologies/OTRL#ODRL -->
<g id="node1" class="node">
<title>http://purl.org/oseg/ontologies/OTRL#ODRL</title>
<ellipse fill="none" stroke="#e377c2" cx="41.94" cy="-227.28" rx="41.94" ry="16.03"/>
<text text-anchor="middle" x="41.94" y="-223.58" font-family="Times,serif" font-size="14.00">ODRL</text>
</g>
<!-- http://www.w3.org/2002/07/owl#class -->
<g id="node2" class="node">
<title>http://www.w3.org/2002/07/owl#class</title>
<ellipse fill="none" stroke="#1f77b4" cx="247.31" cy="-180.96" rx="57.05" ry="16.03"/>
<text text-anchor="middle" x="247.31" y="-177.26" font-family="Times,serif" font-size="14.00">owl:class</text>
</g>
<!-- http://purl.org/oseg/ontologies/OTRL#OTRL -->
<g id="node3" class="node">
<title>http://purl.org/oseg/ontologies/OTRL#OTRL</title>
<ellipse fill="none" stroke="#e377c2" cx="329.35" cy="-133.58" rx="39.7" ry="16.03"/>
<text text-anchor="middle" x="329.35" y="-129.88" font-family="Times,serif" font-size="14.00">OTRL</text>
</g>
<!-- http://purl.org/oseg/ontologies/OTRL#OTRL&#45;&gt;http://www.w3.org/2002/07/owl#class -->
<g id="edge1" class="edge">
<title>http://purl.org/oseg/ontologies/OTRL#OTRL&#45;&gt;http://www.w3.org/2002/07/owl#class</title>
<path fill="none" stroke="black" d="M306.06,-147.03C298.41,-151.45 289.73,-156.46 281.45,-161.25"/>
<polygon fill="black" stroke="black" points="279.58,-158.28 272.67,-166.31 283.08,-164.34 279.58,-158.28"/>
<text text-anchor="middle" x="289.25" y="-142.94" font-family="Times,serif" font-size="14.00">a</text>
</g>
<!-- http://www.w3.org/2002/07/owl#DatatypeProperty -->
<g id="node4" class="node">
<title>http://www.w3.org/2002/07/owl#DatatypeProperty</title>
<ellipse fill="none" stroke="#1f77b4" cx="482.9" cy="-348.96" rx="123.07" ry="16.03"/>
<text text-anchor="middle" x="482.9" y="-345.26" font-family="Times,serif" font-size="14.00">owl:DatatypeProperty</text>
</g>
<!-- http://www.w3.org/2002/07/owl#Ontology -->
<g id="node5" class="node">
<title>http://www.w3.org/2002/07/owl#Ontology</title>
<ellipse fill="none" stroke="#1f77b4" cx="509.32" cy="-38.47" rx="77.56" ry="16.03"/>
<text text-anchor="middle" x="509.32" y="-34.77" font-family="Times,serif" font-size="14.00">owl:Ontology</text>
</g>
<!-- http://purl.org/oseg/ontologies/OTRL#Odrl1 -->
<g id="node6" class="node">
<title>http://purl.org/oseg/ontologies/OTRL#Odrl1</title>
<ellipse fill="none" stroke="#e377c2" cx="94.63" cy="-280.62" rx="40.11" ry="16.03"/>
<text text-anchor="middle" x="94.63" y="-276.92" font-family="Times,serif" font-size="14.00">Odrl1</text>
</g>
<!-- http://purl.org/oseg/ontologies/OTRL#Odrl1&#45;&gt;http://purl.org/oseg/ontologies/OTRL#ODRL -->
<g id="edge2" class="edge">
<title>http://purl.org/oseg/ontologies/OTRL#Odrl1&#45;&gt;http://purl.org/oseg/ontologies/OTRL#ODRL</title>
<path fill="none" stroke="black" d="M79.67,-265.48C74.93,-260.68 69.58,-255.26 64.43,-250.04"/>
<polygon fill="black" stroke="black" points="66.64,-247.3 57.12,-242.65 61.66,-252.22 66.64,-247.3"/>
</g>
<!-- http://purl.org/oseg/ontologies/OTRL#Odrl1&#45;&gt;http://www.w3.org/2002/07/owl#class -->
<g id="edge15" class="edge">
<title>http://purl.org/oseg/ontologies/OTRL#Odrl1&#45;&gt;http://www.w3.org/2002/07/owl#class</title>
<path fill="none" stroke="black" d="M115.86,-266.76C141.81,-249.82 185.96,-221.01 215.86,-201.49"/>
<polygon fill="black" stroke="black" points="217.81,-204.4 224.27,-196 213.98,-198.54 217.81,-204.4"/>
<text text-anchor="middle" x="161.36" y="-237.93" font-family="Times,serif" font-size="14.00">a</text>
</g>
<!-- http://purl.org/oseg/ontologies/OTRL#Otrl2 -->
<g id="node7" class="node">
<title>http://purl.org/oseg/ontologies/OTRL#Otrl2</title>
<ellipse fill="none" stroke="#e377c2" cx="212.07" cy="-123.05" rx="38.37" ry="16.03"/>
<text text-anchor="middle" x="212.07" y="-119.35" font-family="Times,serif" font-size="14.00">Otrl2</text>
</g>
<!-- http://purl.org/oseg/ontologies/OTRL#Otrl2&#45;&gt;http://www.w3.org/2002/07/owl#class -->
<g id="edge16" class="edge">
<title>http://purl.org/oseg/ontologies/OTRL#Otrl2&#45;&gt;http://www.w3.org/2002/07/owl#class</title>
<path fill="none" stroke="black" d="M221.7,-138.87C224.91,-144.15 228.57,-150.16 232.09,-155.96"/>
<polygon fill="black" stroke="black" points="229.26,-158.03 237.45,-164.75 235.24,-154.39 229.26,-158.03"/>
<text text-anchor="middle" x="222.4" y="-151.22" font-family="Times,serif" font-size="14.00">a</text>
</g>
<!-- http://purl.org/oseg/ontologies/OTRL#Otrl2&#45;&gt;http://purl.org/oseg/ontologies/OTRL#OTRL -->
<g id="edge25" class="edge">
<title>http://purl.org/oseg/ontologies/OTRL#Otrl2&#45;&gt;http://purl.org/oseg/ontologies/OTRL#OTRL</title>
<path fill="none" stroke="black" d="M249.5,-126.41C259.35,-127.3 270.13,-128.26 280.49,-129.19"/>
<polygon fill="black" stroke="black" points="280.39,-132.7 290.66,-130.11 281.02,-125.73 280.39,-132.7"/>
</g>
<!-- http://purl.org/oseg/ontologies/OTRL#Odrl -->
<g id="node8" class="node">
<title>http://purl.org/oseg/ontologies/OTRL#Odrl</title>
<ellipse fill="none" stroke="#e377c2" cx="289.67" cy="-351.44" rx="33.88" ry="16.03"/>
<text text-anchor="middle" x="289.67" y="-347.74" font-family="Times,serif" font-size="14.00">Odrl</text>
</g>
<!-- http://purl.org/oseg/ontologies/OTRL#Odrl&#45;&gt;http://www.w3.org/2002/07/owl#class -->
<g id="edge8" class="edge">
<title>http://purl.org/oseg/ontologies/OTRL#Odrl&#45;&gt;http://www.w3.org/2002/07/owl#class</title>
<path fill="none" stroke="black" d="M285.61,-335.09C278.27,-305.56 262.75,-243.08 253.88,-207.4"/>
<polygon fill="black" stroke="black" points="257.17,-206.12 251.36,-197.26 250.37,-207.81 257.17,-206.12"/>
<text text-anchor="middle" x="265.24" y="-275.05" font-family="Times,serif" font-size="14.00">a</text>
</g>
<!-- http://purl.org/oseg/ontologies/OTRL#Odrl3 -->
<g id="node9" class="node">
<title>http://purl.org/oseg/ontologies/OTRL#Odrl3</title>
<ellipse fill="none" stroke="#e377c2" cx="88.11" cy="-91.36" rx="40.11" ry="16.03"/>
<text text-anchor="middle" x="88.11" y="-87.66" font-family="Times,serif" font-size="14.00">Odrl3</text>
</g>
<!-- http://purl.org/oseg/ontologies/OTRL#Odrl3&#45;&gt;http://purl.org/oseg/ontologies/OTRL#ODRL -->
<g id="edge14" class="edge">
<title>http://purl.org/oseg/ontologies/OTRL#Odrl3&#45;&gt;http://purl.org/oseg/ontologies/OTRL#ODRL</title>
<path fill="none" stroke="black" d="M82.63,-107.49C74.79,-130.56 60.29,-173.25 50.89,-200.94"/>
<polygon fill="black" stroke="black" points="47.46,-200.16 47.56,-210.75 54.09,-202.41 47.46,-200.16"/>
</g>
<!-- http://purl.org/oseg/ontologies/OTRL#Odrl3&#45;&gt;http://www.w3.org/2002/07/owl#class -->
<g id="edge17" class="edge">
<title>http://purl.org/oseg/ontologies/OTRL#Odrl3&#45;&gt;http://www.w3.org/2002/07/owl#class</title>
<path fill="none" stroke="black" d="M111.6,-104.58C138.17,-119.54 181.72,-144.04 212.3,-161.26"/>
<polygon fill="black" stroke="black" points="210.91,-164.49 221.34,-166.35 214.34,-158.39 210.91,-164.49"/>
<text text-anchor="middle" x="157.45" y="-136.72" font-family="Times,serif" font-size="14.00">a</text>
</g>
<!-- http://purl.org/oseg/ontologies/OTRL -->
<g id="node10" class="node">
<title>http://purl.org/oseg/ontologies/OTRL</title>
<ellipse fill="none" stroke="#e377c2" cx="656.95" cy="-16.42" rx="60.62" ry="16.03"/>
<text text-anchor="middle" x="656.95" y="-12.72" font-family="Times,serif" font-size="14.00">ns1:OTRL</text>
</g>
<!-- http://purl.org/oseg/ontologies/OTRL&#45;&gt;http://www.w3.org/2002/07/owl#Ontology -->
<g id="edge21" class="edge">
<title>http://purl.org/oseg/ontologies/OTRL&#45;&gt;http://www.w3.org/2002/07/owl#Ontology</title>
<path fill="none" stroke="black" d="M603.65,-24.38C596.94,-25.38 589.98,-26.42 583.02,-27.46"/>
<polygon fill="black" stroke="black" points="582.22,-24.04 572.85,-28.98 583.26,-30.96 582.22,-24.04"/>
<text text-anchor="middle" x="591.08" y="-14.72" font-family="Times,serif" font-size="14.00">a</text>
</g>
<!-- http://purl.org/oseg/ontologies/OTRL&#45;&gt;http://purl.org/oseg/ontologies/OTRL -->
<g id="edge18" class="edge">
<title>http://purl.org/oseg/ontologies/OTRL&#45;&gt;http://purl.org/oseg/ontologies/OTRL</title>
<path fill="none" stroke="black" d="M712.55,-23.05C725.89,-22.53 735.76,-20.32 735.76,-16.42 735.76,-13.58 730.55,-11.64 722.58,-10.59"/>
<polygon fill="black" stroke="black" points="722.8,-7.1 712.55,-9.78 722.24,-14.07 722.8,-7.1"/>
<text text-anchor="middle" x="787.26" y="-12.72" font-family="Times,serif" font-size="14.00">owl:versionIRI</text>
</g>
<!-- http://purl.org/oseg/ontologies/OTRL#Otrl3 -->
<g id="node11" class="node">
<title>http://purl.org/oseg/ontologies/OTRL#Otrl3</title>
<ellipse fill="none" stroke="#e377c2" cx="421.23" cy="-133.1" rx="38.37" ry="16.03"/>
<text text-anchor="middle" x="421.23" y="-129.4" font-family="Times,serif" font-size="14.00">Otrl3</text>
</g>
<!-- http://purl.org/oseg/ontologies/OTRL#Otrl3&#45;&gt;http://www.w3.org/2002/07/owl#class -->
<g id="edge19" class="edge">
<title>http://purl.org/oseg/ontologies/OTRL#Otrl3&#45;&gt;http://www.w3.org/2002/07/owl#class</title>
<path fill="none" stroke="black" d="M388.93,-141.99C363.51,-148.99 327.61,-158.86 298.32,-166.92"/>
<polygon fill="black" stroke="black" points="297.38,-163.55 288.67,-169.58 299.24,-170.3 297.38,-163.55"/>
<text text-anchor="middle" x="339.12" y="-158.26" font-family="Times,serif" font-size="14.00">a</text>
</g>
<!-- http://purl.org/oseg/ontologies/OTRL#Otrl3&#45;&gt;http://purl.org/oseg/ontologies/OTRL#OTRL -->
<g id="edge11" class="edge">
<title>http://purl.org/oseg/ontologies/OTRL#Otrl3&#45;&gt;http://purl.org/oseg/ontologies/OTRL#OTRL</title>
<path fill="none" stroke="black" d="M382.8,-133.3C381.67,-133.31 380.53,-133.32 379.39,-133.32"/>
<polygon fill="black" stroke="black" points="379.09,-129.82 369.11,-133.37 379.13,-136.82 379.09,-129.82"/>
</g>
<!-- http://purl.org/oseg/ontologies/OTRL#Otrl5 -->
<g id="node12" class="node">
<title>http://purl.org/oseg/ontologies/OTRL#Otrl5</title>
<ellipse fill="none" stroke="#e377c2" cx="263.51" cy="-16.03" rx="38.37" ry="16.03"/>
<text text-anchor="middle" x="263.51" y="-12.33" font-family="Times,serif" font-size="14.00">Otrl5</text>
</g>
<!-- http://purl.org/oseg/ontologies/OTRL#Otrl5&#45;&gt;http://www.w3.org/2002/07/owl#class -->
<g id="edge4" class="edge">
<title>http://purl.org/oseg/ontologies/OTRL#Otrl5&#45;&gt;http://www.w3.org/2002/07/owl#class</title>
<path fill="none" stroke="black" d="M261.9,-32.45C259.1,-60.97 253.31,-119.93 249.92,-154.36"/>
<polygon fill="black" stroke="black" points="246.41,-154.32 248.92,-164.61 253.38,-155 246.41,-154.32"/>
<text text-anchor="middle" x="251.41" y="-82.21" font-family="Times,serif" font-size="14.00">a</text>
</g>
<!-- http://purl.org/oseg/ontologies/OTRL#Otrl5&#45;&gt;http://purl.org/oseg/ontologies/OTRL#OTRL -->
<g id="edge3" class="edge">
<title>http://purl.org/oseg/ontologies/OTRL#Otrl5&#45;&gt;http://purl.org/oseg/ontologies/OTRL#OTRL</title>
<path fill="none" stroke="black" d="M272.39,-31.88C283.44,-51.6 302.42,-85.49 315.41,-108.69"/>
<polygon fill="black" stroke="black" points="312.46,-110.59 320.4,-117.6 318.57,-107.17 312.46,-110.59"/>
</g>
<!-- http://purl.org/oseg/ontologies/OTRL#Otrl4 -->
<g id="node13" class="node">
<title>http://purl.org/oseg/ontologies/OTRL#Otrl4</title>
<ellipse fill="none" stroke="#e377c2" cx="355.19" cy="-68.94" rx="38.37" ry="16.03"/>
<text text-anchor="middle" x="355.19" y="-65.24" font-family="Times,serif" font-size="14.00">Otrl4</text>
</g>
<!-- http://purl.org/oseg/ontologies/OTRL#Otrl4&#45;&gt;http://www.w3.org/2002/07/owl#class -->
<g id="edge5" class="edge">
<title>http://purl.org/oseg/ontologies/OTRL#Otrl4&#45;&gt;http://www.w3.org/2002/07/owl#class</title>
<path fill="none" stroke="black" d="M340.64,-84.04C322.43,-102.96 291.04,-135.55 269.75,-157.66"/>
<polygon fill="black" stroke="black" points="267.09,-155.38 262.67,-165.01 272.13,-160.23 267.09,-155.38"/>
<text text-anchor="middle" x="300.69" y="-109.65" font-family="Times,serif" font-size="14.00">a</text>
</g>
<!-- http://purl.org/oseg/ontologies/OTRL#Otrl4&#45;&gt;http://purl.org/oseg/ontologies/OTRL#OTRL -->
<g id="edge13" class="edge">
<title>http://purl.org/oseg/ontologies/OTRL#Otrl4&#45;&gt;http://purl.org/oseg/ontologies/OTRL#OTRL</title>
<path fill="none" stroke="black" d="M348.67,-85.25C345.89,-92.19 342.59,-100.45 339.51,-108.16"/>
<polygon fill="black" stroke="black" points="336.24,-106.91 335.78,-117.5 342.74,-109.51 336.24,-106.91"/>
</g>
<!-- http://purl.org/oseg/ontologies/OTRL#Otrl -->
<g id="node14" class="node">
<title>http://purl.org/oseg/ontologies/OTRL#Otrl</title>
<ellipse fill="none" stroke="#e377c2" cx="368.24" cy="-16.64" rx="31.64" ry="16.03"/>
<text text-anchor="middle" x="368.24" y="-12.94" font-family="Times,serif" font-size="14.00">Otrl</text>
</g>
<!-- http://purl.org/oseg/ontologies/OTRL#Otrl1 -->
<g id="node15" class="node">
<title>http://purl.org/oseg/ontologies/OTRL#Otrl1</title>
<ellipse fill="none" stroke="#e377c2" cx="418.45" cy="-215.04" rx="38.37" ry="16.03"/>
<text text-anchor="middle" x="418.45" y="-211.34" font-family="Times,serif" font-size="14.00">Otrl1</text>
</g>
<!-- http://purl.org/oseg/ontologies/OTRL#Otrl1&#45;&gt;http://www.w3.org/2002/07/owl#class -->
<g id="edge6" class="edge">
<title>http://purl.org/oseg/ontologies/OTRL#Otrl1&#45;&gt;http://www.w3.org/2002/07/owl#class</title>
<path fill="none" stroke="black" d="M383.81,-208.15C360.95,-203.59 330.46,-197.52 304.09,-192.27"/>
<polygon fill="black" stroke="black" points="304.71,-188.82 294.22,-190.3 303.34,-195.69 304.71,-188.82"/>
<text text-anchor="middle" x="339.45" y="-204.01" font-family="Times,serif" font-size="14.00">a</text>
</g>
<!-- http://purl.org/oseg/ontologies/OTRL#Otrl1&#45;&gt;http://purl.org/oseg/ontologies/OTRL#OTRL -->
<g id="edge22" class="edge">
<title>http://purl.org/oseg/ontologies/OTRL#Otrl1&#45;&gt;http://purl.org/oseg/ontologies/OTRL#OTRL</title>
<path fill="none" stroke="black" d="M402.11,-200.1C388.42,-187.59 368.69,-169.55 353.23,-155.41"/>
<polygon fill="black" stroke="black" points="355.33,-152.59 345.59,-148.43 350.61,-157.76 355.33,-152.59"/>
</g>
<!-- http://schema.org/Text -->
<g id="node16" class="node">
<title>http://schema.org/Text</title>
<ellipse fill="none" stroke="#e377c2" cx="687.4" cy="-304.71" rx="74.91" ry="16.03"/>
<text text-anchor="middle" x="687.4" y="-301.01" font-family="Times,serif" font-size="14.00">schema:Text</text>
</g>
<!-- http://www.w3.org/1999/02/22&#45;rdf&#45;syntax&#45;ns#nil -->
<g id="node17" class="node">
<title>http://www.w3.org/1999/02/22&#45;rdf&#45;syntax&#45;ns#nil</title>
<ellipse fill="none" stroke="#e377c2" cx="186.24" cy="-400.64" rx="42.35" ry="16.03"/>
<text text-anchor="middle" x="186.24" y="-396.94" font-family="Times,serif" font-size="14.00">rdf:nil</text>
</g>
<!-- http://purl.org/oseg/ontologies/OTRL#goal -->
<g id="node18" class="node">
<title>http://purl.org/oseg/ontologies/OTRL#goal</title>
<ellipse fill="none" stroke="#e377c2" cx="507.52" cy="-308.31" rx="33.47" ry="16.03"/>
<text text-anchor="middle" x="507.52" y="-304.61" font-family="Times,serif" font-size="14.00">goal</text>
</g>
<!-- http://purl.org/oseg/ontologies/OTRL#goal&#45;&gt;http://www.w3.org/2002/07/owl#DatatypeProperty -->
<g id="edge24" class="edge">
<title>http://purl.org/oseg/ontologies/OTRL#goal&#45;&gt;http://www.w3.org/2002/07/owl#DatatypeProperty</title>
<path fill="none" stroke="black" d="M498.07,-323.91C498.02,-324 497.96,-324.09 497.91,-324.18"/>
<polygon fill="black" stroke="black" points="494.96,-322.29 492.77,-332.66 500.94,-325.92 494.96,-322.29"/>
<text text-anchor="middle" x="493.49" y="-327.85" font-family="Times,serif" font-size="14.00">a</text>
</g>
<!-- http://purl.org/oseg/ontologies/OTRL#goal&#45;&gt;http://schema.org/Text -->
<g id="edge7" class="edge">
<title>http://purl.org/oseg/ontologies/OTRL#goal&#45;&gt;http://schema.org/Text</title>
<path fill="none" stroke="black" d="M540.93,-307.64C558.3,-307.3 580.39,-306.85 602.12,-306.42"/>
<polygon fill="black" stroke="black" points="602.47,-309.91 612.4,-306.21 602.33,-302.92 602.47,-309.91"/>
<text text-anchor="middle" x="582.03" y="-295.83" font-family="Times,serif" font-size="14.00">range</text>
</g>
<!-- http://purl.org/oseg/ontologies/OTRL#Odrl4 -->
<g id="node19" class="node">
<title>http://purl.org/oseg/ontologies/OTRL#Odrl4</title>
<ellipse fill="none" stroke="#e377c2" cx="73.8" cy="-173.2" rx="40.11" ry="16.03"/>
<text text-anchor="middle" x="73.8" y="-169.5" font-family="Times,serif" font-size="14.00">Odrl4</text>
</g>
<!-- http://purl.org/oseg/ontologies/OTRL#Odrl4&#45;&gt;http://purl.org/oseg/ontologies/OTRL#ODRL -->
<g id="edge20" class="edge">
<title>http://purl.org/oseg/ontologies/OTRL#Odrl4&#45;&gt;http://purl.org/oseg/ontologies/OTRL#ODRL</title>
<path fill="none" stroke="black" d="M64.42,-189.13C61.97,-193.28 59.29,-197.84 56.64,-202.33"/>
<polygon fill="black" stroke="black" points="53.43,-200.88 51.37,-211.27 59.46,-204.43 53.43,-200.88"/>
</g>
<!-- http://purl.org/oseg/ontologies/OTRL#Odrl4&#45;&gt;http://www.w3.org/2002/07/owl#class -->
<g id="edge26" class="edge">
<title>http://purl.org/oseg/ontologies/OTRL#Odrl4&#45;&gt;http://www.w3.org/2002/07/owl#class</title>
<path fill="none" stroke="black" d="M114.05,-175C133.75,-175.88 158,-176.96 180.39,-177.97"/>
<polygon fill="black" stroke="black" points="180.38,-181.47 190.53,-178.42 180.69,-174.48 180.38,-181.47"/>
<text text-anchor="middle" x="142.72" y="-180.28" font-family="Times,serif" font-size="14.00">a</text>
</g>
<!-- http://purl.org/oseg/ontologies/OTRL#exitCriteria -->
<g id="node20" class="node">
<title>http://purl.org/oseg/ontologies/OTRL#exitCriteria</title>
<ellipse fill="none" stroke="#e377c2" cx="499.05" cy="-394.86" rx="70.01" ry="16.03"/>
<text text-anchor="middle" x="499.05" y="-391.16" font-family="Times,serif" font-size="14.00">exitCriteria</text>
</g>
<!-- http://purl.org/oseg/ontologies/OTRL#exitCriteria&#45;&gt;http://www.w3.org/2002/07/owl#DatatypeProperty -->
<g id="edge9" class="edge">
<title>http://purl.org/oseg/ontologies/OTRL#exitCriteria&#45;&gt;http://www.w3.org/2002/07/owl#DatatypeProperty</title>
<path fill="none" stroke="black" d="M493.31,-378.55C492.88,-377.33 492.44,-376.09 492,-374.83"/>
<polygon fill="black" stroke="black" points="495.24,-373.49 488.62,-365.22 488.64,-375.82 495.24,-373.49"/>
<text text-anchor="middle" x="488.15" y="-365.49" font-family="Times,serif" font-size="14.00">a</text>
</g>
<!-- http://purl.org/oseg/ontologies/OTRL#exitCriteria&#45;&gt;http://schema.org/Text -->
<g id="edge23" class="edge">
<title>http://purl.org/oseg/ontologies/OTRL#exitCriteria&#45;&gt;http://schema.org/Text</title>
<path fill="none" stroke="black" d="M529.73,-380.18C561.78,-364.84 612.21,-340.7 647.38,-323.87"/>
<polygon fill="black" stroke="black" points="648.91,-327.02 656.42,-319.54 645.89,-320.7 648.91,-327.02"/>
<text text-anchor="middle" x="609.55" y="-355.82" font-family="Times,serif" font-size="14.00">range</text>
</g>
<!-- http://purl.org/oseg/ontologies/OTRL#Otrl6 -->
<g id="node21" class="node">
<title>http://purl.org/oseg/ontologies/OTRL#Otrl6</title>
<ellipse fill="none" stroke="#e377c2" cx="374.97" cy="-274.07" rx="38.37" ry="16.03"/>
<text text-anchor="middle" x="374.97" y="-270.37" font-family="Times,serif" font-size="14.00">Otrl6</text>
</g>
<!-- http://purl.org/oseg/ontologies/OTRL#Otrl6&#45;&gt;http://www.w3.org/2002/07/owl#class -->
<g id="edge10" class="edge">
<title>http://purl.org/oseg/ontologies/OTRL#Otrl6&#45;&gt;http://www.w3.org/2002/07/owl#class</title>
<path fill="none" stroke="black" d="M355.58,-259.93C334.49,-244.55 300.55,-219.79 276.3,-202.1"/>
<polygon fill="black" stroke="black" points="278.3,-199.23 268.16,-196.17 274.17,-204.89 278.3,-199.23"/>
<text text-anchor="middle" x="311.44" y="-234.81" font-family="Times,serif" font-size="14.00">a</text>
</g>
<!-- http://purl.org/oseg/ontologies/OTRL#Otrl6&#45;&gt;http://purl.org/oseg/ontologies/OTRL#OTRL -->
<g id="edge29" class="edge">
<title>http://purl.org/oseg/ontologies/OTRL#Otrl6&#45;&gt;http://purl.org/oseg/ontologies/OTRL#OTRL</title>
<path fill="none" stroke="black" d="M369.74,-257.95C361.94,-233.95 347.2,-188.54 337.84,-159.73"/>
<polygon fill="black" stroke="black" points="341.08,-158.37 334.66,-149.94 334.42,-160.53 341.08,-158.37"/>
</g>
<!-- http://purl.org/oseg/ontologies/OTRL#Odrl3Star -->
<g id="node22" class="node">
<title>http://purl.org/oseg/ontologies/OTRL#Odrl3Star</title>
<ellipse fill="none" stroke="#e377c2" cx="204.37" cy="-222.78" rx="62.45" ry="16.03"/>
<text text-anchor="middle" x="204.37" y="-219.08" font-family="Times,serif" font-size="14.00">Odrl3Star</text>
</g>
<!-- http://purl.org/oseg/ontologies/OTRL#Odrl3Star&#45;&gt;http://purl.org/oseg/ontologies/OTRL#ODRL -->
<g id="edge30" class="edge">
<title>http://purl.org/oseg/ontologies/OTRL#Odrl3Star&#45;&gt;http://purl.org/oseg/ontologies/OTRL#ODRL</title>
<path fill="none" stroke="black" d="M142.04,-224.5C126.19,-224.94 109.33,-225.41 94.05,-225.84"/>
<polygon fill="black" stroke="black" points="93.66,-222.34 83.76,-226.12 93.85,-229.34 93.66,-222.34"/>
</g>
<!-- http://purl.org/oseg/ontologies/OTRL#Odrl3Star&#45;&gt;http://www.w3.org/2002/07/owl#class -->
<g id="edge12" class="edge">
<title>http://purl.org/oseg/ontologies/OTRL#Odrl3Star&#45;&gt;http://www.w3.org/2002/07/owl#class</title>
<path fill="none" stroke="black" d="M220.85,-206.73C221.81,-205.8 222.78,-204.85 223.76,-203.9"/>
<polygon fill="black" stroke="black" points="226.51,-206.1 231.23,-196.62 221.62,-201.09 226.51,-206.1"/>
<text text-anchor="middle" x="217.8" y="-194.11" font-family="Times,serif" font-size="14.00">a</text>
</g>
<!-- http://purl.org/oseg/ontologies/OTRL#Odrl2 -->
<g id="node23" class="node">
<title>http://purl.org/oseg/ontologies/OTRL#Odrl2</title>
<ellipse fill="none" stroke="#e377c2" cx="145.48" cy="-329.21" rx="40.11" ry="16.03"/>
<text text-anchor="middle" x="145.48" y="-325.51" font-family="Times,serif" font-size="14.00">Odrl2</text>
</g>
<!-- http://purl.org/oseg/ontologies/OTRL#Odrl2&#45;&gt;http://purl.org/oseg/ontologies/OTRL#ODRL -->
<g id="edge27" class="edge">
<title>http://purl.org/oseg/ontologies/OTRL#Odrl2&#45;&gt;http://purl.org/oseg/ontologies/OTRL#ODRL</title>
<path fill="none" stroke="black" d="M129.75,-313.73C112.47,-296.72 84.56,-269.23 64.85,-249.83"/>
<polygon fill="black" stroke="black" points="67.06,-247.09 57.48,-242.57 62.15,-252.08 67.06,-247.09"/>
</g>
<!-- http://purl.org/oseg/ontologies/OTRL#Odrl2&#45;&gt;http://www.w3.org/2002/07/owl#class -->
<g id="edge28" class="edge">
<title>http://purl.org/oseg/ontologies/OTRL#Odrl2&#45;&gt;http://www.w3.org/2002/07/owl#class</title>
<path fill="none" stroke="black" d="M156.38,-313.34C174.12,-287.51 209.39,-236.17 230.41,-205.57"/>
<polygon fill="black" stroke="black" points="233.41,-207.39 236.18,-197.16 227.64,-203.42 233.41,-207.39"/>
<text text-anchor="middle" x="188.89" y="-263.26" font-family="Times,serif" font-size="14.00">a</text>
</g>
</g>
</svg>
