<?xml version="1.0" encoding="UTF-8" standalone="no"?>
<!DOCTYPE svg PUBLIC "-//W3C//DTD SVG 1.1//EN"
 "http://www.w3.org/Graphics/SVG/1.1/DTD/svg11.dtd">
<!-- Generated by graphviz version 2.43.0 (0)
 -->
<!-- Title: G Pages: 1 -->
<svg width="806pt" height="407pt"
 viewBox="0.00 0.00 805.76 407.00" xmlns="http://www.w3.org/2000/svg" xmlns:xlink="http://www.w3.org/1999/xlink">
<g id="graph0" class="graph" transform="scale(1 1) rotate(0) translate(4 403)">
<title>G</title>
<polygon fill="white" stroke="transparent" points="-4,4 -4,-403 801.76,-403 801.76,4 -4,4"/>
<!-- http://www.w3.org/2002/07/owl#DatatypeProperty -->
<g id="node1" class="node">
<title>http://www.w3.org/2002/07/owl#DatatypeProperty</title>
<ellipse fill="none" stroke="#1f77b4" cx="444.82" cy="-309.42" rx="123.07" ry="16.03"/>
<text text-anchor="middle" x="444.82" y="-305.72" font-family="Times,serif" font-size="14.00">owl:DatatypeProperty</text>
</g>
<!-- http://purl.org/oseg/ontologies/OTRL#OTRL -->
<g id="node2" class="node">
<title>http://purl.org/oseg/ontologies/OTRL#OTRL</title>
<ellipse fill="none" stroke="#e377c2" cx="61.86" cy="-136.33" rx="39.7" ry="16.03"/>
<text text-anchor="middle" x="61.86" y="-132.63" font-family="Times,serif" font-size="14.00">OTRL</text>
</g>
<!-- http://www.w3.org/2002/07/owl#class -->
<g id="node5" class="node">
<title>http://www.w3.org/2002/07/owl#class</title>
<ellipse fill="none" stroke="#1f77b4" cx="193.78" cy="-149.07" rx="57.05" ry="16.03"/>
<text text-anchor="middle" x="193.78" y="-145.37" font-family="Times,serif" font-size="14.00">owl:class</text>
</g>
<!-- http://purl.org/oseg/ontologies/OTRL#OTRL&#45;&gt;http://www.w3.org/2002/07/owl#class -->
<g id="edge15" class="edge">
<title>http://purl.org/oseg/ontologies/OTRL#OTRL&#45;&gt;http://www.w3.org/2002/07/owl#class</title>
<path fill="none" stroke="black" d="M100.73,-140.08C109.75,-140.95 119.6,-141.91 129.39,-142.85"/>
<polygon fill="black" stroke="black" points="129.26,-146.36 139.55,-143.83 129.93,-139.39 129.26,-146.36"/>
<text text-anchor="middle" x="110.56" y="-145.27" font-family="Times,serif" font-size="14.00">a</text>
</g>
<!-- http://www.w3.org/2002/07/owl#Ontology -->
<g id="node3" class="node">
<title>http://www.w3.org/2002/07/owl#Ontology</title>
<ellipse fill="none" stroke="#1f77b4" cx="468.32" cy="-38.47" rx="77.56" ry="16.03"/>
<text text-anchor="middle" x="468.32" y="-34.77" font-family="Times,serif" font-size="14.00">owl:Ontology</text>
</g>
<!-- http://purl.org/oseg/ontologies/OTRL#ODRL -->
<g id="node4" class="node">
<title>http://purl.org/oseg/ontologies/OTRL#ODRL</title>
<ellipse fill="none" stroke="#e377c2" cx="380.86" cy="-134.24" rx="41.94" ry="16.03"/>
<text text-anchor="middle" x="380.86" y="-130.54" font-family="Times,serif" font-size="14.00">ODRL</text>
</g>
<!-- http://www.w3.org/1999/02/22&#45;rdf&#45;syntax&#45;ns#nil -->
<g id="node6" class="node">
<title>http://www.w3.org/1999/02/22&#45;rdf&#45;syntax&#45;ns#nil</title>
<ellipse fill="none" stroke="#e377c2" cx="111.24" cy="-338.64" rx="42.35" ry="16.03"/>
<text text-anchor="middle" x="111.24" y="-334.94" font-family="Times,serif" font-size="14.00">rdf:nil</text>
</g>
<!-- http://purl.org/oseg/ontologies/OTRL -->
<g id="node7" class="node">
<title>http://purl.org/oseg/ontologies/OTRL</title>
<ellipse fill="none" stroke="#e377c2" cx="615.95" cy="-16.42" rx="60.62" ry="16.03"/>
<text text-anchor="middle" x="615.95" y="-12.72" font-family="Times,serif" font-size="14.00">ns1:OTRL</text>
</g>
<!-- http://purl.org/oseg/ontologies/OTRL&#45;&gt;http://www.w3.org/2002/07/owl#Ontology -->
<g id="edge1" class="edge">
<title>http://purl.org/oseg/ontologies/OTRL&#45;&gt;http://www.w3.org/2002/07/owl#Ontology</title>
<path fill="none" stroke="black" d="M562.65,-24.38C555.94,-25.38 548.98,-26.42 542.02,-27.46"/>
<polygon fill="black" stroke="black" points="541.22,-24.04 531.85,-28.98 542.26,-30.96 541.22,-24.04"/>
<text text-anchor="middle" x="550.08" y="-14.72" font-family="Times,serif" font-size="14.00">a</text>
</g>
<!-- http://purl.org/oseg/ontologies/OTRL&#45;&gt;http://purl.org/oseg/ontologies/OTRL -->
<g id="edge9" class="edge">
<title>http://purl.org/oseg/ontologies/OTRL&#45;&gt;http://purl.org/oseg/ontologies/OTRL</title>
<path fill="none" stroke="black" d="M671.55,-23.05C684.89,-22.53 694.76,-20.32 694.76,-16.42 694.76,-13.58 689.55,-11.64 681.58,-10.59"/>
<polygon fill="black" stroke="black" points="681.8,-7.1 671.55,-9.78 681.24,-14.07 681.8,-7.1"/>
<text text-anchor="middle" x="746.26" y="-12.72" font-family="Times,serif" font-size="14.00">owl:versionIRI</text>
</g>
<!-- http://purl.org/oseg/ontologies/OTRL#Otrl1 -->
<g id="node8" class="node">
<title>http://purl.org/oseg/ontologies/OTRL#Otrl1</title>
<ellipse fill="none" stroke="#e377c2" cx="38.54" cy="-185.35" rx="38.37" ry="16.03"/>
<text text-anchor="middle" x="38.54" y="-181.65" font-family="Times,serif" font-size="14.00">Otrl1</text>
</g>
<!-- http://purl.org/oseg/ontologies/OTRL#Otrl1&#45;&gt;http://purl.org/oseg/ontologies/OTRL#OTRL -->
<g id="edge21" class="edge">
<title>http://purl.org/oseg/ontologies/OTRL#Otrl1&#45;&gt;http://purl.org/oseg/ontologies/OTRL#OTRL</title>
<path fill="none" stroke="black" d="M46.17,-169.3C47.33,-166.87 48.54,-164.31 49.77,-161.74"/>
<polygon fill="black" stroke="black" points="52.99,-163.12 54.12,-152.58 46.67,-160.11 52.99,-163.12"/>
</g>
<!-- http://purl.org/oseg/ontologies/OTRL#Otrl1&#45;&gt;http://www.w3.org/2002/07/owl#class -->
<g id="edge16" class="edge">
<title>http://purl.org/oseg/ontologies/OTRL#Otrl1&#45;&gt;http://www.w3.org/2002/07/owl#class</title>
<path fill="none" stroke="black" d="M72.22,-177.48C91.95,-172.87 117.33,-166.94 139.79,-161.69"/>
<polygon fill="black" stroke="black" points="140.6,-165.09 149.54,-159.41 139.01,-158.28 140.6,-165.09"/>
<text text-anchor="middle" x="101.51" y="-173.38" font-family="Times,serif" font-size="14.00">a</text>
</g>
<!-- http://purl.org/oseg/ontologies/OTRL#Otrl -->
<g id="node9" class="node">
<title>http://purl.org/oseg/ontologies/OTRL#Otrl</title>
<ellipse fill="none" stroke="#e377c2" cx="216.24" cy="-39.64" rx="31.64" ry="16.03"/>
<text text-anchor="middle" x="216.24" y="-35.94" font-family="Times,serif" font-size="14.00">Otrl</text>
</g>
<!-- http://schema.org/Text -->
<g id="node10" class="node">
<title>http://schema.org/Text</title>
<ellipse fill="none" stroke="#e377c2" cx="593.34" cy="-383.12" rx="74.91" ry="16.03"/>
<text text-anchor="middle" x="593.34" y="-379.42" font-family="Times,serif" font-size="14.00">schema:Text</text>
</g>
<!-- http://purl.org/oseg/ontologies/OTRL#Odrl3 -->
<g id="node11" class="node">
<title>http://purl.org/oseg/ontologies/OTRL#Odrl3</title>
<ellipse fill="none" stroke="#e377c2" cx="263.25" cy="-95.04" rx="40.11" ry="16.03"/>
<text text-anchor="middle" x="263.25" y="-91.34" font-family="Times,serif" font-size="14.00">Odrl3</text>
</g>
<!-- http://purl.org/oseg/ontologies/OTRL#Odrl3&#45;&gt;http://purl.org/oseg/ontologies/OTRL#ODRL -->
<g id="edge29" class="edge">
<title>http://purl.org/oseg/ontologies/OTRL#Odrl3&#45;&gt;http://purl.org/oseg/ontologies/OTRL#ODRL</title>
<path fill="none" stroke="black" d="M294.46,-105.44C308.17,-110.01 324.47,-115.45 339.2,-120.36"/>
<polygon fill="black" stroke="black" points="338.5,-123.81 349.1,-123.65 340.72,-117.17 338.5,-123.81"/>
</g>
<!-- http://purl.org/oseg/ontologies/OTRL#Odrl3&#45;&gt;http://www.w3.org/2002/07/owl#class -->
<g id="edge4" class="edge">
<title>http://purl.org/oseg/ontologies/OTRL#Odrl3&#45;&gt;http://www.w3.org/2002/07/owl#class</title>
<path fill="none" stroke="black" d="M244.63,-109.52C237.66,-114.93 229.59,-121.22 221.95,-127.16"/>
<polygon fill="black" stroke="black" points="219.65,-124.51 213.91,-133.41 223.95,-130.04 219.65,-124.51"/>
<text text-anchor="middle" x="228.79" y="-122.14" font-family="Times,serif" font-size="14.00">a</text>
</g>
<!-- http://purl.org/oseg/ontologies/OTRL#exitCriteria -->
<g id="node12" class="node">
<title>http://purl.org/oseg/ontologies/OTRL#exitCriteria</title>
<ellipse fill="none" stroke="#e377c2" cx="447.93" cy="-268.88" rx="70.01" ry="16.03"/>
<text text-anchor="middle" x="447.93" y="-265.18" font-family="Times,serif" font-size="14.00">exitCriteria</text>
</g>
<!-- http://purl.org/oseg/ontologies/OTRL#exitCriteria&#45;&gt;http://www.w3.org/2002/07/owl#DatatypeProperty -->
<g id="edge19" class="edge">
<title>http://purl.org/oseg/ontologies/OTRL#exitCriteria&#45;&gt;http://www.w3.org/2002/07/owl#DatatypeProperty</title>
<path fill="none" stroke="black" d="M446.67,-285.37C446.65,-285.52 446.64,-285.68 446.63,-285.84"/>
<polygon fill="black" stroke="black" points="443.35,-282.84 446.07,-293.07 450.33,-283.37 443.35,-282.84"/>
<text text-anchor="middle" x="442.15" y="-289.4" font-family="Times,serif" font-size="14.00">a</text>
</g>
<!-- http://purl.org/oseg/ontologies/OTRL#exitCriteria&#45;&gt;http://schema.org/Text -->
<g id="edge3" class="edge">
<title>http://purl.org/oseg/ontologies/OTRL#exitCriteria&#45;&gt;http://schema.org/Text</title>
<path fill="none" stroke="black" d="M467.84,-284.52C493.05,-304.32 536.61,-338.55 565.2,-361.01"/>
<polygon fill="black" stroke="black" points="563.17,-363.87 573.2,-367.3 567.5,-358.37 563.17,-363.87"/>
<text text-anchor="middle" x="537.52" y="-326.57" font-family="Times,serif" font-size="14.00">range</text>
</g>
<!-- http://purl.org/oseg/ontologies/OTRL#Odrl -->
<g id="node13" class="node">
<title>http://purl.org/oseg/ontologies/OTRL#Odrl</title>
<ellipse fill="none" stroke="#e377c2" cx="215.5" cy="-307.87" rx="33.88" ry="16.03"/>
<text text-anchor="middle" x="215.5" y="-304.17" font-family="Times,serif" font-size="14.00">Odrl</text>
</g>
<!-- http://purl.org/oseg/ontologies/OTRL#Odrl&#45;&gt;http://www.w3.org/2002/07/owl#class -->
<g id="edge22" class="edge">
<title>http://purl.org/oseg/ontologies/OTRL#Odrl&#45;&gt;http://www.w3.org/2002/07/owl#class</title>
<path fill="none" stroke="black" d="M213.25,-291.47C209.52,-264.13 201.97,-208.98 197.45,-175.91"/>
<polygon fill="black" stroke="black" points="200.87,-175.05 196.04,-165.62 193.93,-176 200.87,-175.05"/>
<text text-anchor="middle" x="200.85" y="-237.49" font-family="Times,serif" font-size="14.00">a</text>
</g>
<!-- http://purl.org/oseg/ontologies/OTRL#Otrl4 -->
<g id="node14" class="node">
<title>http://purl.org/oseg/ontologies/OTRL#Otrl4</title>
<ellipse fill="none" stroke="#e377c2" cx="102.88" cy="-15.77" rx="38.37" ry="16.03"/>
<text text-anchor="middle" x="102.88" y="-12.07" font-family="Times,serif" font-size="14.00">Otrl4</text>
</g>
<!-- http://purl.org/oseg/ontologies/OTRL#Otrl4&#45;&gt;http://purl.org/oseg/ontologies/OTRL#OTRL -->
<g id="edge2" class="edge">
<title>http://purl.org/oseg/ontologies/OTRL#Otrl4&#45;&gt;http://purl.org/oseg/ontologies/OTRL#OTRL</title>
<path fill="none" stroke="black" d="M97.35,-32.03C90.53,-52.07 78.85,-86.39 70.76,-110.16"/>
<polygon fill="black" stroke="black" points="67.34,-109.35 67.43,-119.94 73.97,-111.6 67.34,-109.35"/>
</g>
<!-- http://purl.org/oseg/ontologies/OTRL#Otrl4&#45;&gt;http://www.w3.org/2002/07/owl#class -->
<g id="edge23" class="edge">
<title>http://purl.org/oseg/ontologies/OTRL#Otrl4&#45;&gt;http://www.w3.org/2002/07/owl#class</title>
<path fill="none" stroke="black" d="M113.66,-31.58C129.3,-54.51 158.4,-97.19 176.9,-124.31"/>
<polygon fill="black" stroke="black" points="174.2,-126.57 182.73,-132.86 179.98,-122.63 174.2,-126.57"/>
<text text-anchor="middle" x="140.78" y="-66.75" font-family="Times,serif" font-size="14.00">a</text>
</g>
<!-- http://purl.org/oseg/ontologies/OTRL#Odrl3Star -->
<g id="node15" class="node">
<title>http://purl.org/oseg/ontologies/OTRL#Odrl3Star</title>
<ellipse fill="none" stroke="#e377c2" cx="374.63" cy="-90.8" rx="62.45" ry="16.03"/>
<text text-anchor="middle" x="374.63" y="-87.1" font-family="Times,serif" font-size="14.00">Odrl3Star</text>
</g>
<!-- http://purl.org/oseg/ontologies/OTRL#Odrl3Star&#45;&gt;http://purl.org/oseg/ontologies/OTRL#ODRL -->
<g id="edge18" class="edge">
<title>http://purl.org/oseg/ontologies/OTRL#Odrl3Star&#45;&gt;http://purl.org/oseg/ontologies/OTRL#ODRL</title>
<path fill="none" stroke="black" d="M377.02,-107.47C377.04,-107.58 377.06,-107.69 377.07,-107.8"/>
<polygon fill="black" stroke="black" points="373.65,-108.57 378.53,-117.98 380.58,-107.58 373.65,-108.57"/>
</g>
<!-- http://purl.org/oseg/ontologies/OTRL#Odrl3Star&#45;&gt;http://www.w3.org/2002/07/owl#class -->
<g id="edge26" class="edge">
<title>http://purl.org/oseg/ontologies/OTRL#Odrl3Star&#45;&gt;http://www.w3.org/2002/07/owl#class</title>
<path fill="none" stroke="black" d="M335.39,-103.45C307.76,-112.35 270.63,-124.31 241.32,-133.75"/>
<polygon fill="black" stroke="black" points="240.15,-130.45 231.71,-136.85 242.3,-137.12 240.15,-130.45"/>
<text text-anchor="middle" x="283.86" y="-122.4" font-family="Times,serif" font-size="14.00">a</text>
</g>
<!-- http://purl.org/oseg/ontologies/OTRL#Otrl6 -->
<g id="node16" class="node">
<title>http://purl.org/oseg/ontologies/OTRL#Otrl6</title>
<ellipse fill="none" stroke="#e377c2" cx="164.97" cy="-96.24" rx="38.37" ry="16.03"/>
<text text-anchor="middle" x="164.97" y="-92.54" font-family="Times,serif" font-size="14.00">Otrl6</text>
</g>
<!-- http://purl.org/oseg/ontologies/OTRL#Otrl6&#45;&gt;http://purl.org/oseg/ontologies/OTRL#OTRL -->
<g id="edge20" class="edge">
<title>http://purl.org/oseg/ontologies/OTRL#Otrl6&#45;&gt;http://purl.org/oseg/ontologies/OTRL#OTRL</title>
<path fill="none" stroke="black" d="M136.52,-107.3C125.33,-111.65 112.3,-116.72 100.29,-121.38"/>
<polygon fill="black" stroke="black" points="98.98,-118.14 90.93,-125.02 101.52,-124.66 98.98,-118.14"/>
</g>
<!-- http://purl.org/oseg/ontologies/OTRL#Otrl6&#45;&gt;http://www.w3.org/2002/07/owl#class -->
<g id="edge7" class="edge">
<title>http://purl.org/oseg/ontologies/OTRL#Otrl6&#45;&gt;http://www.w3.org/2002/07/owl#class</title>
<path fill="none" stroke="black" d="M173.61,-112.09C175.63,-115.78 177.82,-119.8 180,-123.79"/>
<polygon fill="black" stroke="black" points="177.08,-125.76 184.94,-132.86 183.23,-122.41 177.08,-125.76"/>
<text text-anchor="middle" x="172.3" y="-121.74" font-family="Times,serif" font-size="14.00">a</text>
</g>
<!-- http://purl.org/oseg/ontologies/OTRL#Odrl4 -->
<g id="node17" class="node">
<title>http://purl.org/oseg/ontologies/OTRL#Odrl4</title>
<ellipse fill="none" stroke="#e377c2" cx="303.88" cy="-27.1" rx="40.11" ry="16.03"/>
<text text-anchor="middle" x="303.88" y="-23.4" font-family="Times,serif" font-size="14.00">Odrl4</text>
</g>
<!-- http://purl.org/oseg/ontologies/OTRL#Odrl4&#45;&gt;http://purl.org/oseg/ontologies/OTRL#ODRL -->
<g id="edge5" class="edge">
<title>http://purl.org/oseg/ontologies/OTRL#Odrl4&#45;&gt;http://purl.org/oseg/ontologies/OTRL#ODRL</title>
<path fill="none" stroke="black" d="M315.24,-42.91C327.97,-60.63 348.77,-89.58 363.54,-110.13"/>
<polygon fill="black" stroke="black" points="360.78,-112.29 369.46,-118.37 366.47,-108.21 360.78,-112.29"/>
</g>
<!-- http://purl.org/oseg/ontologies/OTRL#Odrl4&#45;&gt;http://www.w3.org/2002/07/owl#class -->
<g id="edge8" class="edge">
<title>http://purl.org/oseg/ontologies/OTRL#Odrl4&#45;&gt;http://www.w3.org/2002/07/owl#class</title>
<path fill="none" stroke="black" d="M289.93,-42.55C271.03,-63.49 237.11,-101.07 215.03,-125.53"/>
<polygon fill="black" stroke="black" points="212.41,-123.21 208.31,-132.97 217.61,-127.9 212.41,-123.21"/>
<text text-anchor="middle" x="247.98" y="-72.84" font-family="Times,serif" font-size="14.00">a</text>
</g>
<!-- http://purl.org/oseg/ontologies/OTRL#goal -->
<g id="node18" class="node">
<title>http://purl.org/oseg/ontologies/OTRL#goal</title>
<ellipse fill="none" stroke="#e377c2" cx="447.88" cy="-350.28" rx="33.47" ry="16.03"/>
<text text-anchor="middle" x="447.88" y="-346.58" font-family="Times,serif" font-size="14.00">goal</text>
</g>
<!-- http://purl.org/oseg/ontologies/OTRL#goal&#45;&gt;http://www.w3.org/2002/07/owl#DatatypeProperty -->
<g id="edge10" class="edge">
<title>http://purl.org/oseg/ontologies/OTRL#goal&#45;&gt;http://www.w3.org/2002/07/owl#DatatypeProperty</title>
<path fill="none" stroke="black" d="M446.64,-333.66C446.63,-333.5 446.61,-333.34 446.6,-333.18"/>
<polygon fill="black" stroke="black" points="450.29,-335.6 446.06,-325.89 443.31,-336.13 450.29,-335.6"/>
<text text-anchor="middle" x="442.12" y="-322.22" font-family="Times,serif" font-size="14.00">a</text>
</g>
<!-- http://purl.org/oseg/ontologies/OTRL#goal&#45;&gt;http://schema.org/Text -->
<g id="edge27" class="edge">
<title>http://purl.org/oseg/ontologies/OTRL#goal&#45;&gt;http://schema.org/Text</title>
<path fill="none" stroke="black" d="M478.38,-357.17C493.77,-360.64 513.03,-364.99 531.35,-369.13"/>
<polygon fill="black" stroke="black" points="530.59,-372.54 541.12,-371.33 532.13,-365.71 530.59,-372.54"/>
<text text-anchor="middle" x="525.86" y="-351.95" font-family="Times,serif" font-size="14.00">range</text>
</g>
<!-- http://purl.org/oseg/ontologies/OTRL#Odrl1 -->
<g id="node19" class="node">
<title>http://purl.org/oseg/ontologies/OTRL#Odrl1</title>
<ellipse fill="none" stroke="#e377c2" cx="259.76" cy="-202.35" rx="40.11" ry="16.03"/>
<text text-anchor="middle" x="259.76" y="-198.65" font-family="Times,serif" font-size="14.00">Odrl1</text>
</g>
<!-- http://purl.org/oseg/ontologies/OTRL#Odrl1&#45;&gt;http://purl.org/oseg/ontologies/OTRL#ODRL -->
<g id="edge6" class="edge">
<title>http://purl.org/oseg/ontologies/OTRL#Odrl1&#45;&gt;http://purl.org/oseg/ontologies/OTRL#ODRL</title>
<path fill="none" stroke="black" d="M283.39,-189.06C301.78,-178.72 327.51,-164.25 347.92,-152.77"/>
<polygon fill="black" stroke="black" points="349.87,-155.69 356.87,-147.74 346.44,-149.59 349.87,-155.69"/>
</g>
<!-- http://purl.org/oseg/ontologies/OTRL#Odrl1&#45;&gt;http://www.w3.org/2002/07/owl#class -->
<g id="edge12" class="edge">
<title>http://purl.org/oseg/ontologies/OTRL#Odrl1&#45;&gt;http://www.w3.org/2002/07/owl#class</title>
<path fill="none" stroke="black" d="M241.73,-187.79C235.37,-182.66 228.06,-176.76 221.1,-171.14"/>
<polygon fill="black" stroke="black" points="223.15,-168.29 213.17,-164.73 218.75,-173.74 223.15,-168.29"/>
<text text-anchor="middle" x="226.92" y="-168.27" font-family="Times,serif" font-size="14.00">a</text>
</g>
<!-- http://purl.org/oseg/ontologies/OTRL#Otrl2 -->
<g id="node20" class="node">
<title>http://purl.org/oseg/ontologies/OTRL#Otrl2</title>
<ellipse fill="none" stroke="#e377c2" cx="47.2" cy="-86.4" rx="38.37" ry="16.03"/>
<text text-anchor="middle" x="47.2" y="-82.7" font-family="Times,serif" font-size="14.00">Otrl2</text>
</g>
<!-- http://purl.org/oseg/ontologies/OTRL#Otrl2&#45;&gt;http://purl.org/oseg/ontologies/OTRL#OTRL -->
<g id="edge11" class="edge">
<title>http://purl.org/oseg/ontologies/OTRL#Otrl2&#45;&gt;http://purl.org/oseg/ontologies/OTRL#OTRL</title>
<path fill="none" stroke="black" d="M52,-102.75C52.71,-105.19 53.47,-107.75 54.22,-110.33"/>
<polygon fill="black" stroke="black" points="50.92,-111.5 57.1,-120.11 57.64,-109.53 50.92,-111.5"/>
</g>
<!-- http://purl.org/oseg/ontologies/OTRL#Otrl2&#45;&gt;http://www.w3.org/2002/07/owl#class -->
<g id="edge30" class="edge">
<title>http://purl.org/oseg/ontologies/OTRL#Otrl2&#45;&gt;http://www.w3.org/2002/07/owl#class</title>
<path fill="none" stroke="black" d="M74.43,-98.04C96.38,-107.43 127.6,-120.77 152.6,-131.47"/>
<polygon fill="black" stroke="black" points="151.28,-134.71 161.85,-135.42 154.03,-128.27 151.28,-134.71"/>
<text text-anchor="middle" x="109.01" y="-118.55" font-family="Times,serif" font-size="14.00">a</text>
</g>
<!-- http://purl.org/oseg/ontologies/OTRL#Otrl3 -->
<g id="node21" class="node">
<title>http://purl.org/oseg/ontologies/OTRL#Otrl3</title>
<ellipse fill="none" stroke="#e377c2" cx="152.75" cy="-204.18" rx="38.37" ry="16.03"/>
<text text-anchor="middle" x="152.75" y="-200.48" font-family="Times,serif" font-size="14.00">Otrl3</text>
</g>
<!-- http://purl.org/oseg/ontologies/OTRL#Otrl3&#45;&gt;http://purl.org/oseg/ontologies/OTRL#OTRL -->
<g id="edge25" class="edge">
<title>http://purl.org/oseg/ontologies/OTRL#Otrl3&#45;&gt;http://purl.org/oseg/ontologies/OTRL#OTRL</title>
<path fill="none" stroke="black" d="M133.47,-189.79C120.58,-180.16 103.42,-167.35 89.13,-156.69"/>
<polygon fill="black" stroke="black" points="91.21,-153.87 81.11,-150.7 87.03,-159.48 91.21,-153.87"/>
</g>
<!-- http://purl.org/oseg/ontologies/OTRL#Otrl3&#45;&gt;http://www.w3.org/2002/07/owl#class -->
<g id="edge13" class="edge">
<title>http://purl.org/oseg/ontologies/OTRL#Otrl3&#45;&gt;http://www.w3.org/2002/07/owl#class</title>
<path fill="none" stroke="black" d="M164.4,-188.53C167.86,-183.89 171.74,-178.68 175.51,-173.61"/>
<polygon fill="black" stroke="black" points="178.51,-175.44 181.67,-165.33 172.89,-171.26 178.51,-175.44"/>
<text text-anchor="middle" x="165.45" y="-169.87" font-family="Times,serif" font-size="14.00">a</text>
</g>
<!-- http://purl.org/oseg/ontologies/OTRL#Odrl2 -->
<g id="node22" class="node">
<title>http://purl.org/oseg/ontologies/OTRL#Odrl2</title>
<ellipse fill="none" stroke="#e377c2" cx="353.53" cy="-188.33" rx="40.11" ry="16.03"/>
<text text-anchor="middle" x="353.53" y="-184.63" font-family="Times,serif" font-size="14.00">Odrl2</text>
</g>
<!-- http://purl.org/oseg/ontologies/OTRL#Odrl2&#45;&gt;http://purl.org/oseg/ontologies/OTRL#ODRL -->
<g id="edge24" class="edge">
<title>http://purl.org/oseg/ontologies/OTRL#Odrl2&#45;&gt;http://purl.org/oseg/ontologies/OTRL#ODRL</title>
<path fill="none" stroke="black" d="M361.58,-172.4C363.68,-168.25 365.98,-163.69 368.25,-159.2"/>
<polygon fill="black" stroke="black" points="371.39,-160.76 372.77,-150.25 365.14,-157.6 371.39,-160.76"/>
</g>
<!-- http://purl.org/oseg/ontologies/OTRL#Odrl2&#45;&gt;http://www.w3.org/2002/07/owl#class -->
<g id="edge28" class="edge">
<title>http://purl.org/oseg/ontologies/OTRL#Odrl2&#45;&gt;http://www.w3.org/2002/07/owl#class</title>
<path fill="none" stroke="black" d="M318.87,-179.81C297.91,-174.66 270.76,-167.99 247.11,-162.18"/>
<polygon fill="black" stroke="black" points="247.77,-158.74 237.22,-159.75 246.1,-165.53 247.77,-158.74"/>
<text text-anchor="middle" x="278.49" y="-174.8" font-family="Times,serif" font-size="14.00">a</text>
</g>
<!-- http://purl.org/oseg/ontologies/OTRL#Otrl5 -->
<g id="node23" class="node">
<title>http://purl.org/oseg/ontologies/OTRL#Otrl5</title>
<ellipse fill="none" stroke="#e377c2" cx="76.95" cy="-261.06" rx="38.37" ry="16.03"/>
<text text-anchor="middle" x="76.95" y="-257.36" font-family="Times,serif" font-size="14.00">Otrl5</text>
</g>
<!-- http://purl.org/oseg/ontologies/OTRL#Otrl5&#45;&gt;http://purl.org/oseg/ontologies/OTRL#OTRL -->
<g id="edge17" class="edge">
<title>http://purl.org/oseg/ontologies/OTRL#Otrl5&#45;&gt;http://purl.org/oseg/ontologies/OTRL#OTRL</title>
<path fill="none" stroke="black" d="M74.98,-244.75C72.46,-223.93 68.07,-187.63 65.06,-162.81"/>
<polygon fill="black" stroke="black" points="68.51,-162.15 63.83,-152.64 61.56,-162.99 68.51,-162.15"/>
</g>
<!-- http://purl.org/oseg/ontologies/OTRL#Otrl5&#45;&gt;http://www.w3.org/2002/07/owl#class -->
<g id="edge14" class="edge">
<title>http://purl.org/oseg/ontologies/OTRL#Otrl5&#45;&gt;http://www.w3.org/2002/07/owl#class</title>
<path fill="none" stroke="black" d="M92.71,-245.96C112.52,-226.97 146.72,-194.19 169.79,-172.07"/>
<polygon fill="black" stroke="black" points="172.35,-174.47 177.14,-165.02 167.5,-169.41 172.35,-174.47"/>
<text text-anchor="middle" x="126.75" y="-212.81" font-family="Times,serif" font-size="14.00">a</text>
</g>
</g>
</svg>
