<?xml version="1.0" encoding="UTF-8" standalone="no"?>
<!DOCTYPE svg PUBLIC "-//W3C//DTD SVG 1.1//EN"
 "http://www.w3.org/Graphics/SVG/1.1/DTD/svg11.dtd">
<!-- Generated by graphviz version 2.43.0 (0)
 -->
<!-- Title: G Pages: 1 -->
<svg width="1116pt" height="677pt"
 viewBox="0.00 0.00 1116.00 677.00" xmlns="http://www.w3.org/2000/svg" xmlns:xlink="http://www.w3.org/1999/xlink">
<g id="graph0" class="graph" transform="scale(1 1) rotate(0) translate(4 673)">
<title>G</title>
<polygon fill="white" stroke="transparent" points="-4,4 -4,-673 1112,-673 1112,4 -4,4"/>
<!-- http://www.w3.org/2002/07/owl#DatatypeProperty -->
<g id="node1" class="node">
<title>http://www.w3.org/2002/07/owl#DatatypeProperty</title>
<ellipse fill="none" stroke="#1f77b4" cx="123.37" cy="-82.81" rx="123.07" ry="16.03"/>
<text text-anchor="middle" x="123.37" y="-79.11" font-family="Times,serif" font-size="14.00">owl:DatatypeProperty</text>
</g>
<!-- http://www.w3.org/2002/07/owl#Ontology -->
<g id="node2" class="node">
<title>http://www.w3.org/2002/07/owl#Ontology</title>
<ellipse fill="none" stroke="#1f77b4" cx="747.32" cy="-105.47" rx="77.56" ry="16.03"/>
<text text-anchor="middle" x="747.32" y="-101.77" font-family="Times,serif" font-size="14.00">owl:Ontology</text>
</g>
<!-- http://purl.org/oseg/ontologies/OTRL#OTRL -->
<g id="node3" class="node">
<title>http://purl.org/oseg/ontologies/OTRL#OTRL</title>
<ellipse fill="none" stroke="#e377c2" cx="617.01" cy="-283.3" rx="39.7" ry="16.03"/>
<text text-anchor="middle" x="617.01" y="-279.6" font-family="Times,serif" font-size="14.00">OTRL</text>
</g>
<!-- http://www.w3.org/2002/07/owl#class -->
<g id="node4" class="node">
<title>http://www.w3.org/2002/07/owl#class</title>
<ellipse fill="none" stroke="#1f77b4" cx="815.14" cy="-419.57" rx="57.05" ry="16.03"/>
<text text-anchor="middle" x="815.14" y="-415.87" font-family="Times,serif" font-size="14.00">owl:class</text>
</g>
<!-- http://purl.org/oseg/ontologies/OTRL#OTRL&#45;&gt;http://www.w3.org/2002/07/owl#class -->
<g id="edge34" class="edge">
<title>http://purl.org/oseg/ontologies/OTRL#OTRL&#45;&gt;http://www.w3.org/2002/07/owl#class</title>
<path fill="none" stroke="black" d="M637.47,-297.37C672.38,-321.38 743.64,-370.39 784.51,-398.5"/>
<polygon fill="black" stroke="black" points="782.77,-401.55 792.99,-404.33 786.73,-395.78 782.77,-401.55"/>
<text text-anchor="middle" x="706.49" y="-351.73" font-family="Times,serif" font-size="14.00">a</text>
</g>
<!-- http://purl.org/oseg/ontologies/OTRL#ODRL -->
<g id="node5" class="node">
<title>http://purl.org/oseg/ontologies/OTRL#ODRL</title>
<ellipse fill="none" stroke="#e377c2" cx="930.47" cy="-544.53" rx="41.94" ry="16.03"/>
<text text-anchor="middle" x="930.47" y="-540.83" font-family="Times,serif" font-size="14.00">ODRL</text>
</g>
<!-- http://purl.org/oseg/ontologies/OTRL#ODRL&#45;&gt;http://www.w3.org/2002/07/owl#class -->
<g id="edge30" class="edge">
<title>http://purl.org/oseg/ontologies/OTRL#ODRL&#45;&gt;http://www.w3.org/2002/07/owl#class</title>
<path fill="none" stroke="black" d="M916.33,-529.2C896.47,-507.68 860.13,-468.31 836.83,-443.07"/>
<polygon fill="black" stroke="black" points="839.12,-440.38 829.76,-435.41 833.97,-445.13 839.12,-440.38"/>
<text text-anchor="middle" x="872.08" y="-489.94" font-family="Times,serif" font-size="14.00">a</text>
</g>
<!-- http://purl.org/oseg/ontologies/OTRL#OTRL&#45;3 -->
<g id="node6" class="node">
<title>http://purl.org/oseg/ontologies/OTRL#OTRL&#45;3</title>
<ellipse fill="none" stroke="#e377c2" cx="847.78" cy="-250.71" rx="49.49" ry="16.03"/>
<text text-anchor="middle" x="847.78" y="-247.01" font-family="Times,serif" font-size="14.00">OTRL&#45;3</text>
</g>
<!-- http://purl.org/oseg/ontologies/OTRL#OTRL&#45;3&#45;&gt;http://purl.org/oseg/ontologies/OTRL#OTRL -->
<g id="edge11" class="edge">
<title>http://purl.org/oseg/ontologies/OTRL#OTRL&#45;3&#45;&gt;http://purl.org/oseg/ontologies/OTRL#OTRL</title>
<path fill="none" stroke="black" d="M802.19,-257.14C762.43,-262.76 704.97,-270.87 664.63,-276.57"/>
<polygon fill="black" stroke="black" points="663.92,-273.14 654.5,-278 664.9,-280.07 663.92,-273.14"/>
</g>
<!-- http://purl.org/oseg/ontologies/OTRL#OTRL&#45;3&#45;&gt;http://www.w3.org/2002/07/owl#class -->
<g id="edge20" class="edge">
<title>http://purl.org/oseg/ontologies/OTRL#OTRL&#45;3&#45;&gt;http://www.w3.org/2002/07/owl#class</title>
<path fill="none" stroke="black" d="M844.59,-267.2C838.92,-296.54 827.05,-357.98 820.24,-393.22"/>
<polygon fill="black" stroke="black" points="816.76,-392.77 818.3,-403.25 823.63,-394.1 816.76,-392.77"/>
<text text-anchor="middle" x="827.91" y="-334.01" font-family="Times,serif" font-size="14.00">a</text>
</g>
<!-- http://purl.org/oseg/ontologies/OTRL#ODRL&#45;0 -->
<g id="node7" class="node">
<title>http://purl.org/oseg/ontologies/OTRL#ODRL&#45;0</title>
<ellipse fill="none" stroke="#e377c2" cx="1028.12" cy="-376.36" rx="50.82" ry="16.03"/>
<text text-anchor="middle" x="1028.12" y="-372.66" font-family="Times,serif" font-size="14.00">ODRL&#45;0</text>
</g>
<!-- http://purl.org/oseg/ontologies/OTRL#ODRL&#45;0&#45;&gt;http://www.w3.org/2002/07/owl#class -->
<g id="edge21" class="edge">
<title>http://purl.org/oseg/ontologies/OTRL#ODRL&#45;0&#45;&gt;http://www.w3.org/2002/07/owl#class</title>
<path fill="none" stroke="black" d="M985.02,-385.11C952.5,-391.7 907.57,-400.82 872.08,-408.02"/>
<polygon fill="black" stroke="black" points="870.98,-404.67 861.87,-410.09 872.37,-411.53 870.98,-404.67"/>
<text text-anchor="middle" x="924.05" y="-400.36" font-family="Times,serif" font-size="14.00">a</text>
</g>
<!-- http://purl.org/oseg/ontologies/OTRL#ODRL&#45;0&#45;&gt;http://purl.org/oseg/ontologies/OTRL#ODRL -->
<g id="edge13" class="edge">
<title>http://purl.org/oseg/ontologies/OTRL#ODRL&#45;0&#45;&gt;http://purl.org/oseg/ontologies/OTRL#ODRL</title>
<path fill="none" stroke="black" d="M1018.76,-392.49C1001.67,-421.92 965.31,-484.53 944.99,-519.53"/>
<polygon fill="black" stroke="black" points="941.95,-517.8 939.95,-528.2 948,-521.31 941.95,-517.8"/>
</g>
<!-- http://purl.org/oseg/ontologies/OTRL#hardwareDescription -->
<g id="node8" class="node">
<title>http://purl.org/oseg/ontologies/OTRL#hardwareDescription</title>
<ellipse fill="none" stroke="#e377c2" cx="471.07" cy="-16.69" rx="118.17" ry="16.03"/>
<text text-anchor="middle" x="471.07" y="-12.99" font-family="Times,serif" font-size="14.00">hardwareDescription</text>
</g>
<!-- http://purl.org/oseg/ontologies/OTRL#hardwareDescription&#45;&gt;http://www.w3.org/2002/07/owl#DatatypeProperty -->
<g id="edge24" class="edge">
<title>http://purl.org/oseg/ontologies/OTRL#hardwareDescription&#45;&gt;http://www.w3.org/2002/07/owl#DatatypeProperty</title>
<path fill="none" stroke="black" d="M401.54,-29.91C344.5,-40.76 263.67,-56.13 203.84,-67.5"/>
<polygon fill="black" stroke="black" points="202.84,-64.13 193.67,-69.44 204.15,-71.01 202.84,-64.13"/>
<text text-anchor="middle" x="298.19" y="-52.51" font-family="Times,serif" font-size="14.00">a</text>
</g>
<!-- http://purl.org/oseg/ontologies/OTRL#hardwareDescription&#45;&gt;http://purl.org/oseg/ontologies/OTRL#OTRL -->
<g id="edge35" class="edge">
<title>http://purl.org/oseg/ontologies/OTRL#hardwareDescription&#45;&gt;http://purl.org/oseg/ontologies/OTRL#OTRL</title>
<path fill="none" stroke="black" d="M479.98,-32.96C504.62,-77.97 573.78,-204.33 603.34,-258.32"/>
<polygon fill="black" stroke="black" points="600.34,-260.14 608.21,-267.23 606.48,-256.78 600.34,-260.14"/>
<text text-anchor="middle" x="568.16" y="-149.44" font-family="Times,serif" font-size="14.00">domain</text>
</g>
<!-- http://schema.org/Text -->
<g id="node14" class="node">
<title>http://schema.org/Text</title>
<ellipse fill="none" stroke="#e377c2" cx="213.07" cy="-23.03" rx="74.91" ry="16.03"/>
<text text-anchor="middle" x="213.07" y="-19.33" font-family="Times,serif" font-size="14.00">schema:Text</text>
</g>
<!-- http://purl.org/oseg/ontologies/OTRL#hardwareDescription&#45;&gt;http://schema.org/Text -->
<g id="edge29" class="edge">
<title>http://purl.org/oseg/ontologies/OTRL#hardwareDescription&#45;&gt;http://schema.org/Text</title>
<path fill="none" stroke="black" d="M354.53,-19.55C335.46,-20.02 316.03,-20.5 297.92,-20.95"/>
<polygon fill="black" stroke="black" points="297.62,-17.45 287.71,-21.2 297.79,-24.45 297.62,-17.45"/>
<text text-anchor="middle" x="326.22" y="-9.05" font-family="Times,serif" font-size="14.00">range</text>
</g>
<!-- http://purl.org/oseg/ontologies/OTRL -->
<g id="node9" class="node">
<title>http://purl.org/oseg/ontologies/OTRL</title>
<ellipse fill="none" stroke="#e377c2" cx="894.95" cy="-83.42" rx="60.62" ry="16.03"/>
<text text-anchor="middle" x="894.95" y="-79.72" font-family="Times,serif" font-size="14.00">ns1:OTRL</text>
</g>
<!-- http://purl.org/oseg/ontologies/OTRL&#45;&gt;http://www.w3.org/2002/07/owl#Ontology -->
<g id="edge23" class="edge">
<title>http://purl.org/oseg/ontologies/OTRL&#45;&gt;http://www.w3.org/2002/07/owl#Ontology</title>
<path fill="none" stroke="black" d="M841.65,-91.38C834.94,-92.38 827.98,-93.42 821.02,-94.46"/>
<polygon fill="black" stroke="black" points="820.22,-91.04 810.85,-95.98 821.26,-97.96 820.22,-91.04"/>
<text text-anchor="middle" x="829.08" y="-81.72" font-family="Times,serif" font-size="14.00">a</text>
</g>
<!-- http://purl.org/oseg/ontologies/OTRL&#45;&gt;http://purl.org/oseg/ontologies/OTRL -->
<g id="edge32" class="edge">
<title>http://purl.org/oseg/ontologies/OTRL&#45;&gt;http://purl.org/oseg/ontologies/OTRL</title>
<path fill="none" stroke="black" d="M950.55,-90.05C963.89,-89.53 973.76,-87.32 973.76,-83.42 973.76,-80.58 968.55,-78.64 960.58,-77.59"/>
<polygon fill="black" stroke="black" points="960.8,-74.1 950.55,-76.78 960.24,-81.07 960.8,-74.1"/>
<text text-anchor="middle" x="1025.26" y="-79.72" font-family="Times,serif" font-size="14.00">owl:versionIRI</text>
</g>
<!-- http://purl.org/oseg/ontologies/OTRL#OTRL&#45;8 -->
<g id="node10" class="node">
<title>http://purl.org/oseg/ontologies/OTRL#OTRL&#45;8</title>
<ellipse fill="none" stroke="#e377c2" cx="577.06" cy="-418.81" rx="49.49" ry="16.03"/>
<text text-anchor="middle" x="577.06" y="-415.11" font-family="Times,serif" font-size="14.00">OTRL&#45;8</text>
</g>
<!-- http://purl.org/oseg/ontologies/OTRL#OTRL&#45;8&#45;&gt;http://purl.org/oseg/ontologies/OTRL#OTRL -->
<g id="edge42" class="edge">
<title>http://purl.org/oseg/ontologies/OTRL#OTRL&#45;8&#45;&gt;http://purl.org/oseg/ontologies/OTRL#OTRL</title>
<path fill="none" stroke="black" d="M581.88,-402.46C588.69,-379.37 601.2,-336.94 609.3,-309.44"/>
<polygon fill="black" stroke="black" points="612.7,-310.28 612.17,-299.7 605.99,-308.3 612.7,-310.28"/>
</g>
<!-- http://purl.org/oseg/ontologies/OTRL#OTRL&#45;8&#45;&gt;http://www.w3.org/2002/07/owl#class -->
<g id="edge25" class="edge">
<title>http://purl.org/oseg/ontologies/OTRL#OTRL&#45;8&#45;&gt;http://www.w3.org/2002/07/owl#class</title>
<path fill="none" stroke="black" d="M626.68,-418.97C661.71,-419.08 709.06,-419.23 747.54,-419.35"/>
<polygon fill="black" stroke="black" points="747.62,-422.85 757.63,-419.38 747.64,-415.85 747.62,-422.85"/>
<text text-anchor="middle" x="682.61" y="-422.96" font-family="Times,serif" font-size="14.00">a</text>
</g>
<!-- http://purl.org/oseg/ontologies/OTRL#documentationDescription -->
<g id="node11" class="node">
<title>http://purl.org/oseg/ontologies/OTRL#documentationDescription</title>
<ellipse fill="none" stroke="#e377c2" cx="425.13" cy="-72.83" rx="120.83" ry="16.03"/>
<text text-anchor="middle" x="425.13" y="-69.13" font-family="Times,serif" font-size="14.00">documentationDesc...</text>
</g>
<!-- http://purl.org/oseg/ontologies/OTRL#documentationDescription&#45;&gt;http://www.w3.org/2002/07/owl#DatatypeProperty -->
<g id="edge26" class="edge">
<title>http://purl.org/oseg/ontologies/OTRL#documentationDescription&#45;&gt;http://www.w3.org/2002/07/owl#DatatypeProperty</title>
<path fill="none" stroke="black" d="M307.6,-76.72C289.72,-77.31 271.19,-77.92 253.08,-78.52"/>
<polygon fill="black" stroke="black" points="252.95,-75.02 243.07,-78.85 253.18,-82.02 252.95,-75.02"/>
<text text-anchor="middle" x="275.84" y="-81.42" font-family="Times,serif" font-size="14.00">a</text>
</g>
<!-- http://purl.org/oseg/ontologies/OTRL#documentationDescription&#45;&gt;http://purl.org/oseg/ontologies/OTRL#OTRL -->
<g id="edge38" class="edge">
<title>http://purl.org/oseg/ontologies/OTRL#documentationDescription&#45;&gt;http://purl.org/oseg/ontologies/OTRL#OTRL</title>
<path fill="none" stroke="black" d="M439.87,-89C473.74,-126.15 557.21,-217.71 596.25,-260.53"/>
<polygon fill="black" stroke="black" points="593.68,-262.9 603,-267.93 598.85,-258.19 593.68,-262.9"/>
<text text-anchor="middle" x="491.56" y="-178.56" font-family="Times,serif" font-size="14.00">domain</text>
</g>
<!-- http://purl.org/oseg/ontologies/OTRL#documentationDescription&#45;&gt;http://schema.org/Text -->
<g id="edge44" class="edge">
<title>http://purl.org/oseg/ontologies/OTRL#documentationDescription&#45;&gt;http://schema.org/Text</title>
<path fill="none" stroke="black" d="M364.93,-58.7C336.45,-52.01 302.51,-44.04 273.95,-37.33"/>
<polygon fill="black" stroke="black" points="274.62,-33.89 264.08,-35.01 273.02,-40.71 274.62,-33.89"/>
<text text-anchor="middle" x="340.44" y="-36.81" font-family="Times,serif" font-size="14.00">range</text>
</g>
<!-- http://purl.org/oseg/ontologies/OTRL#ODRL&#45;2 -->
<g id="node12" class="node">
<title>http://purl.org/oseg/ontologies/OTRL#ODRL&#45;2</title>
<ellipse fill="none" stroke="#e377c2" cx="975.89" cy="-594.86" rx="50.82" ry="16.03"/>
<text text-anchor="middle" x="975.89" y="-591.16" font-family="Times,serif" font-size="14.00">ODRL&#45;2</text>
</g>
<!-- http://purl.org/oseg/ontologies/OTRL#ODRL&#45;2&#45;&gt;http://www.w3.org/2002/07/owl#class -->
<g id="edge2" class="edge">
<title>http://purl.org/oseg/ontologies/OTRL#ODRL&#45;2&#45;&gt;http://www.w3.org/2002/07/owl#class</title>
<path fill="none" stroke="black" d="M961.34,-578.99C932.96,-548.04 870.08,-479.48 836.79,-443.18"/>
<polygon fill="black" stroke="black" points="839.11,-440.53 829.77,-435.52 833.95,-445.26 839.11,-440.53"/>
<text text-anchor="middle" x="894.57" y="-514.88" font-family="Times,serif" font-size="14.00">a</text>
</g>
<!-- http://purl.org/oseg/ontologies/OTRL#ODRL&#45;2&#45;&gt;http://purl.org/oseg/ontologies/OTRL#ODRL -->
<g id="edge40" class="edge">
<title>http://purl.org/oseg/ontologies/OTRL#ODRL&#45;2&#45;&gt;http://purl.org/oseg/ontologies/OTRL#ODRL</title>
<path fill="none" stroke="black" d="M961.77,-579.21C958.41,-575.48 954.75,-571.42 951.16,-567.45"/>
<polygon fill="black" stroke="black" points="953.73,-565.07 944.43,-559.99 948.53,-569.76 953.73,-565.07"/>
</g>
<!-- http://purl.org/oseg/ontologies/OTRL#ODRL&#45;5 -->
<g id="node13" class="node">
<title>http://purl.org/oseg/ontologies/OTRL#ODRL&#45;5</title>
<ellipse fill="none" stroke="#e377c2" cx="911.91" cy="-652.36" rx="50.82" ry="16.03"/>
<text text-anchor="middle" x="911.91" y="-648.66" font-family="Times,serif" font-size="14.00">ODRL&#45;5</text>
</g>
<!-- http://purl.org/oseg/ontologies/OTRL#ODRL&#45;5&#45;&gt;http://www.w3.org/2002/07/owl#class -->
<g id="edge6" class="edge">
<title>http://purl.org/oseg/ontologies/OTRL#ODRL&#45;5&#45;&gt;http://www.w3.org/2002/07/owl#class</title>
<path fill="none" stroke="black" d="M905.1,-635.99C888.52,-596.09 845.89,-493.55 825.86,-445.34"/>
<polygon fill="black" stroke="black" points="829.01,-443.81 821.94,-435.92 822.55,-446.5 829.01,-443.81"/>
<text text-anchor="middle" x="860.98" y="-544.47" font-family="Times,serif" font-size="14.00">a</text>
</g>
<!-- http://purl.org/oseg/ontologies/OTRL#ODRL&#45;5&#45;&gt;http://purl.org/oseg/ontologies/OTRL#ODRL -->
<g id="edge7" class="edge">
<title>http://purl.org/oseg/ontologies/OTRL#ODRL&#45;5&#45;&gt;http://purl.org/oseg/ontologies/OTRL#ODRL</title>
<path fill="none" stroke="black" d="M914.73,-635.99C917.7,-618.73 922.42,-591.28 925.92,-570.95"/>
<polygon fill="black" stroke="black" points="929.38,-571.51 927.63,-561.06 922.48,-570.32 929.38,-571.51"/>
</g>
<!-- http://purl.org/oseg/ontologies/OTRL#OTRL&#45;4 -->
<g id="node15" class="node">
<title>http://purl.org/oseg/ontologies/OTRL#OTRL&#45;4</title>
<ellipse fill="none" stroke="#e377c2" cx="847.13" cy="-201.41" rx="49.49" ry="16.03"/>
<text text-anchor="middle" x="847.13" y="-197.71" font-family="Times,serif" font-size="14.00">OTRL&#45;4</text>
</g>
<!-- http://purl.org/oseg/ontologies/OTRL#OTRL&#45;4&#45;&gt;http://purl.org/oseg/ontologies/OTRL#OTRL -->
<g id="edge4" class="edge">
<title>http://purl.org/oseg/ontologies/OTRL#OTRL&#45;4&#45;&gt;http://purl.org/oseg/ontologies/OTRL#OTRL</title>
<path fill="none" stroke="black" d="M813.17,-213.49C771.45,-228.34 700.76,-253.49 656.61,-269.2"/>
<polygon fill="black" stroke="black" points="655.31,-265.95 647.07,-272.6 657.66,-272.54 655.31,-265.95"/>
</g>
<!-- http://purl.org/oseg/ontologies/OTRL#OTRL&#45;4&#45;&gt;http://www.w3.org/2002/07/owl#class -->
<g id="edge8" class="edge">
<title>http://purl.org/oseg/ontologies/OTRL#OTRL&#45;4&#45;&gt;http://www.w3.org/2002/07/owl#class</title>
<path fill="none" stroke="black" d="M844.72,-217.81C839.22,-255.33 825.68,-347.7 819,-393.27"/>
<polygon fill="black" stroke="black" points="815.52,-392.88 817.53,-403.28 822.44,-393.89 815.52,-392.88"/>
<text text-anchor="middle" x="836.36" y="-309.34" font-family="Times,serif" font-size="14.00">a</text>
</g>
<!-- http://purl.org/oseg/ontologies/OTRL#softwareDescription -->
<g id="node16" class="node">
<title>http://purl.org/oseg/ontologies/OTRL#softwareDescription</title>
<ellipse fill="none" stroke="#e377c2" cx="375.6" cy="-156.27" rx="113.69" ry="16.03"/>
<text text-anchor="middle" x="375.6" y="-152.57" font-family="Times,serif" font-size="14.00">softwareDescription</text>
</g>
<!-- http://purl.org/oseg/ontologies/OTRL#softwareDescription&#45;&gt;http://www.w3.org/2002/07/owl#DatatypeProperty -->
<g id="edge45" class="edge">
<title>http://purl.org/oseg/ontologies/OTRL#softwareDescription&#45;&gt;http://www.w3.org/2002/07/owl#DatatypeProperty</title>
<path fill="none" stroke="black" d="M325.17,-141.58C284.62,-129.77 227.51,-113.14 184.39,-100.58"/>
<polygon fill="black" stroke="black" points="185.16,-97.16 174.58,-97.72 183.21,-103.88 185.16,-97.16"/>
<text text-anchor="middle" x="250.28" y="-124.88" font-family="Times,serif" font-size="14.00">a</text>
</g>
<!-- http://purl.org/oseg/ontologies/OTRL#softwareDescription&#45;&gt;http://purl.org/oseg/ontologies/OTRL#OTRL -->
<g id="edge46" class="edge">
<title>http://purl.org/oseg/ontologies/OTRL#softwareDescription&#45;&gt;http://purl.org/oseg/ontologies/OTRL#OTRL</title>
<path fill="none" stroke="black" d="M405.69,-172.1C450.95,-195.92 536.28,-240.82 583.48,-265.66"/>
<polygon fill="black" stroke="black" points="581.91,-268.78 592.39,-270.34 585.17,-262.59 581.91,-268.78"/>
<text text-anchor="middle" x="468.09" y="-222.68" font-family="Times,serif" font-size="14.00">domain</text>
</g>
<!-- http://purl.org/oseg/ontologies/OTRL#softwareDescription&#45;&gt;http://schema.org/Text -->
<g id="edge17" class="edge">
<title>http://purl.org/oseg/ontologies/OTRL#softwareDescription&#45;&gt;http://schema.org/Text</title>
<path fill="none" stroke="black" d="M356,-140.19C327.12,-116.52 273.05,-72.2 240.32,-45.37"/>
<polygon fill="black" stroke="black" points="242.45,-42.59 232.49,-38.95 238.01,-48 242.45,-42.59"/>
<text text-anchor="middle" x="277.16" y="-96.58" font-family="Times,serif" font-size="14.00">range</text>
</g>
<!-- http://purl.org/oseg/ontologies/OTRL#OTRL&#45;1 -->
<g id="node17" class="node">
<title>http://purl.org/oseg/ontologies/OTRL#OTRL&#45;1</title>
<ellipse fill="none" stroke="#e377c2" cx="727.46" cy="-235.58" rx="49.49" ry="16.03"/>
<text text-anchor="middle" x="727.46" y="-231.88" font-family="Times,serif" font-size="14.00">OTRL&#45;1</text>
</g>
<!-- http://purl.org/oseg/ontologies/OTRL#OTRL&#45;1&#45;&gt;http://purl.org/oseg/ontologies/OTRL#OTRL -->
<g id="edge27" class="edge">
<title>http://purl.org/oseg/ontologies/OTRL#OTRL&#45;1&#45;&gt;http://purl.org/oseg/ontologies/OTRL#OTRL</title>
<path fill="none" stroke="black" d="M697.28,-248.62C683.89,-254.4 668.01,-261.26 653.92,-267.35"/>
<polygon fill="black" stroke="black" points="652.3,-264.24 644.51,-271.42 655.07,-270.66 652.3,-264.24"/>
</g>
<!-- http://purl.org/oseg/ontologies/OTRL#OTRL&#45;1&#45;&gt;http://www.w3.org/2002/07/owl#class -->
<g id="edge9" class="edge">
<title>http://purl.org/oseg/ontologies/OTRL#OTRL&#45;1&#45;&gt;http://www.w3.org/2002/07/owl#class</title>
<path fill="none" stroke="black" d="M735.24,-251.91C750.52,-283.96 784.53,-355.33 802.86,-393.8"/>
<polygon fill="black" stroke="black" points="799.92,-395.75 807.38,-403.28 806.24,-392.74 799.92,-395.75"/>
<text text-anchor="middle" x="764.55" y="-326.65" font-family="Times,serif" font-size="14.00">a</text>
</g>
<!-- http://purl.org/oseg/ontologies/OTRL#OTRL&#45;2 -->
<g id="node18" class="node">
<title>http://purl.org/oseg/ontologies/OTRL#OTRL&#45;2</title>
<ellipse fill="none" stroke="#e377c2" cx="690.02" cy="-399.45" rx="49.49" ry="16.03"/>
<text text-anchor="middle" x="690.02" y="-395.75" font-family="Times,serif" font-size="14.00">OTRL&#45;2</text>
</g>
<!-- http://purl.org/oseg/ontologies/OTRL#OTRL&#45;2&#45;&gt;http://purl.org/oseg/ontologies/OTRL#OTRL -->
<g id="edge28" class="edge">
<title>http://purl.org/oseg/ontologies/OTRL#OTRL&#45;2&#45;&gt;http://purl.org/oseg/ontologies/OTRL#OTRL</title>
<path fill="none" stroke="black" d="M679.87,-383.3C667.61,-363.79 646.86,-330.78 632.57,-308.05"/>
<polygon fill="black" stroke="black" points="635.36,-305.91 627.07,-299.31 629.43,-309.64 635.36,-305.91"/>
</g>
<!-- http://purl.org/oseg/ontologies/OTRL#OTRL&#45;2&#45;&gt;http://www.w3.org/2002/07/owl#class -->
<g id="edge10" class="edge">
<title>http://purl.org/oseg/ontologies/OTRL#OTRL&#45;2&#45;&gt;http://www.w3.org/2002/07/owl#class</title>
<path fill="none" stroke="black" d="M734.49,-406.6C741.19,-407.67 748.19,-408.8 755.16,-409.92"/>
<polygon fill="black" stroke="black" points="754.86,-413.42 765.29,-411.55 755.97,-406.51 754.86,-413.42"/>
<text text-anchor="middle" x="749.32" y="-412.06" font-family="Times,serif" font-size="14.00">a</text>
</g>
<!-- http://purl.org/oseg/ontologies/OTRL#OTRL&#45;5 -->
<g id="node19" class="node">
<title>http://purl.org/oseg/ontologies/OTRL#OTRL&#45;5</title>
<ellipse fill="none" stroke="#e377c2" cx="786.28" cy="-294.9" rx="49.49" ry="16.03"/>
<text text-anchor="middle" x="786.28" y="-291.2" font-family="Times,serif" font-size="14.00">OTRL&#45;5</text>
</g>
<!-- http://purl.org/oseg/ontologies/OTRL#OTRL&#45;5&#45;&gt;http://purl.org/oseg/ontologies/OTRL#OTRL -->
<g id="edge5" class="edge">
<title>http://purl.org/oseg/ontologies/OTRL#OTRL&#45;5&#45;&gt;http://purl.org/oseg/ontologies/OTRL#OTRL</title>
<path fill="none" stroke="black" d="M737.77,-291.58C715.32,-290.04 688.7,-288.21 666.17,-286.67"/>
<polygon fill="black" stroke="black" points="666.35,-283.17 656.13,-285.98 665.87,-290.15 666.35,-283.17"/>
</g>
<!-- http://purl.org/oseg/ontologies/OTRL#OTRL&#45;5&#45;&gt;http://www.w3.org/2002/07/owl#class -->
<g id="edge31" class="edge">
<title>http://purl.org/oseg/ontologies/OTRL#OTRL&#45;5&#45;&gt;http://www.w3.org/2002/07/owl#class</title>
<path fill="none" stroke="black" d="M790.06,-311.2C794.89,-332.11 803.35,-368.62 809.09,-393.43"/>
<polygon fill="black" stroke="black" points="805.7,-394.31 811.37,-403.27 812.52,-392.73 805.7,-394.31"/>
<text text-anchor="middle" x="795.07" y="-356.12" font-family="Times,serif" font-size="14.00">a</text>
</g>
<!-- http://purl.org/oseg/ontologies/OTRL#exitCriteria -->
<g id="node20" class="node">
<title>http://purl.org/oseg/ontologies/OTRL#exitCriteria</title>
<ellipse fill="none" stroke="#e377c2" cx="368.79" cy="-227.63" rx="70.01" ry="16.03"/>
<text text-anchor="middle" x="368.79" y="-223.93" font-family="Times,serif" font-size="14.00">exitCriteria</text>
</g>
<!-- http://purl.org/oseg/ontologies/OTRL#exitCriteria&#45;&gt;http://www.w3.org/2002/07/owl#DatatypeProperty -->
<g id="edge33" class="edge">
<title>http://purl.org/oseg/ontologies/OTRL#exitCriteria&#45;&gt;http://www.w3.org/2002/07/owl#DatatypeProperty</title>
<path fill="none" stroke="black" d="M342.99,-212.41C298.96,-186.43 209.24,-133.48 159.18,-103.94"/>
<polygon fill="black" stroke="black" points="160.7,-100.77 150.31,-98.7 157.14,-106.8 160.7,-100.77"/>
<text text-anchor="middle" x="246.58" y="-161.97" font-family="Times,serif" font-size="14.00">a</text>
</g>
<!-- http://purl.org/oseg/ontologies/OTRL#exitCriteria&#45;&gt;http://purl.org/oseg/ontologies/OTRL#OTRL -->
<g id="edge12" class="edge">
<title>http://purl.org/oseg/ontologies/OTRL#exitCriteria&#45;&gt;http://purl.org/oseg/ontologies/OTRL#OTRL</title>
<path fill="none" stroke="black" d="M419.32,-238.96C464.2,-249.03 529.17,-263.6 572.22,-273.25"/>
<polygon fill="black" stroke="black" points="571.61,-276.7 582.13,-275.47 573.14,-269.87 571.61,-276.7"/>
<text text-anchor="middle" x="469.27" y="-259.91" font-family="Times,serif" font-size="14.00">domain</text>
</g>
<!-- http://purl.org/oseg/ontologies/OTRL#exitCriteria&#45;&gt;http://schema.org/Text -->
<g id="edge16" class="edge">
<title>http://purl.org/oseg/ontologies/OTRL#exitCriteria&#45;&gt;http://schema.org/Text</title>
<path fill="none" stroke="black" d="M356.57,-211.58C329.4,-175.88 263.86,-89.76 231.62,-47.4"/>
<polygon fill="black" stroke="black" points="234.29,-45.13 225.45,-39.3 228.72,-49.37 234.29,-45.13"/>
<text text-anchor="middle" x="315.09" y="-118.29" font-family="Times,serif" font-size="14.00">range</text>
</g>
<!-- http://purl.org/oseg/ontologies/OTRL#OTRL&#45;6 -->
<g id="node21" class="node">
<title>http://purl.org/oseg/ontologies/OTRL#OTRL&#45;6</title>
<ellipse fill="none" stroke="#e377c2" cx="721.63" cy="-180.35" rx="49.49" ry="16.03"/>
<text text-anchor="middle" x="721.63" y="-176.65" font-family="Times,serif" font-size="14.00">OTRL&#45;6</text>
</g>
<!-- http://purl.org/oseg/ontologies/OTRL#OTRL&#45;6&#45;&gt;http://purl.org/oseg/ontologies/OTRL#OTRL -->
<g id="edge22" class="edge">
<title>http://purl.org/oseg/ontologies/OTRL#OTRL&#45;6&#45;&gt;http://purl.org/oseg/ontologies/OTRL#OTRL</title>
<path fill="none" stroke="black" d="M705.74,-195.99C688.1,-213.34 659.49,-241.49 639.54,-261.12"/>
<polygon fill="black" stroke="black" points="637.04,-258.68 632.36,-268.19 641.95,-263.67 637.04,-258.68"/>
</g>
<!-- http://purl.org/oseg/ontologies/OTRL#OTRL&#45;6&#45;&gt;http://www.w3.org/2002/07/owl#class -->
<g id="edge36" class="edge">
<title>http://purl.org/oseg/ontologies/OTRL#OTRL&#45;6&#45;&gt;http://www.w3.org/2002/07/owl#class</title>
<path fill="none" stroke="black" d="M728.06,-196.79C744.08,-237.78 785.88,-344.71 805.15,-394"/>
<polygon fill="black" stroke="black" points="801.89,-395.29 808.79,-403.33 808.41,-392.74 801.89,-395.29"/>
<text text-anchor="middle" x="762.1" y="-299.2" font-family="Times,serif" font-size="14.00">a</text>
</g>
<!-- http://purl.org/oseg/ontologies/OTRL#OTRL&#45;7 -->
<g id="node22" class="node">
<title>http://purl.org/oseg/ontologies/OTRL#OTRL&#45;7</title>
<ellipse fill="none" stroke="#e377c2" cx="589.13" cy="-480.41" rx="49.49" ry="16.03"/>
<text text-anchor="middle" x="589.13" y="-476.71" font-family="Times,serif" font-size="14.00">OTRL&#45;7</text>
</g>
<!-- http://purl.org/oseg/ontologies/OTRL#OTRL&#45;7&#45;&gt;http://purl.org/oseg/ontologies/OTRL#OTRL -->
<g id="edge14" class="edge">
<title>http://purl.org/oseg/ontologies/OTRL#OTRL&#45;7&#45;&gt;http://purl.org/oseg/ontologies/OTRL#OTRL</title>
<path fill="none" stroke="black" d="M591.46,-463.95C596.29,-429.8 607.43,-351.03 613.27,-309.7"/>
<polygon fill="black" stroke="black" points="616.77,-309.97 614.7,-299.58 609.84,-308.99 616.77,-309.97"/>
</g>
<!-- http://purl.org/oseg/ontologies/OTRL#OTRL&#45;7&#45;&gt;http://www.w3.org/2002/07/owl#class -->
<g id="edge37" class="edge">
<title>http://purl.org/oseg/ontologies/OTRL#OTRL&#45;7&#45;&gt;http://www.w3.org/2002/07/owl#class</title>
<path fill="none" stroke="black" d="M627.47,-470.09C664.93,-460.01 722.22,-444.59 763.64,-433.43"/>
<polygon fill="black" stroke="black" points="764.8,-436.75 773.54,-430.77 762.98,-429.99 764.8,-436.75"/>
<text text-anchor="middle" x="691.05" y="-440.56" font-family="Times,serif" font-size="14.00">a</text>
</g>
<!-- http://purl.org/oseg/ontologies/OTRL#OTRL&#45;9 -->
<g id="node23" class="node">
<title>http://purl.org/oseg/ontologies/OTRL#OTRL&#45;9</title>
<ellipse fill="none" stroke="#e377c2" cx="699.15" cy="-473.61" rx="49.49" ry="16.03"/>
<text text-anchor="middle" x="699.15" y="-469.91" font-family="Times,serif" font-size="14.00">OTRL&#45;9</text>
</g>
<!-- http://purl.org/oseg/ontologies/OTRL#OTRL&#45;9&#45;&gt;http://purl.org/oseg/ontologies/OTRL#OTRL -->
<g id="edge15" class="edge">
<title>http://purl.org/oseg/ontologies/OTRL#OTRL&#45;9&#45;&gt;http://purl.org/oseg/ontologies/OTRL#OTRL</title>
<path fill="none" stroke="black" d="M692.15,-457.39C677.84,-424.24 645.17,-348.54 628,-308.77"/>
<polygon fill="black" stroke="black" points="631.17,-307.28 623.99,-299.48 624.74,-310.05 631.17,-307.28"/>
</g>
<!-- http://purl.org/oseg/ontologies/OTRL#OTRL&#45;9&#45;&gt;http://www.w3.org/2002/07/owl#class -->
<g id="edge39" class="edge">
<title>http://purl.org/oseg/ontologies/OTRL#OTRL&#45;9&#45;&gt;http://www.w3.org/2002/07/owl#class</title>
<path fill="none" stroke="black" d="M727.83,-460.25C742.27,-453.52 760.01,-445.26 775.71,-437.94"/>
<polygon fill="black" stroke="black" points="777.6,-440.92 785.18,-433.53 774.64,-434.58 777.6,-440.92"/>
<text text-anchor="middle" x="747.27" y="-437.9" font-family="Times,serif" font-size="14.00">a</text>
</g>
<!-- http://purl.org/oseg/ontologies/OTRL#ODRL&#45;3 -->
<g id="node24" class="node">
<title>http://purl.org/oseg/ontologies/OTRL#ODRL&#45;3</title>
<ellipse fill="none" stroke="#e377c2" cx="783.86" cy="-644.2" rx="50.82" ry="16.03"/>
<text text-anchor="middle" x="783.86" y="-640.5" font-family="Times,serif" font-size="14.00">ODRL&#45;3</text>
</g>
<!-- http://purl.org/oseg/ontologies/OTRL#ODRL&#45;3&#45;&gt;http://www.w3.org/2002/07/owl#class -->
<g id="edge18" class="edge">
<title>http://purl.org/oseg/ontologies/OTRL#ODRL&#45;3&#45;&gt;http://www.w3.org/2002/07/owl#class</title>
<path fill="none" stroke="black" d="M786.16,-627.68C791.53,-589.15 804.92,-493 811.45,-446.12"/>
<polygon fill="black" stroke="black" points="814.93,-446.5 812.84,-436.11 807.99,-445.53 814.93,-446.5"/>
<text text-anchor="middle" x="794.3" y="-540.7" font-family="Times,serif" font-size="14.00">a</text>
</g>
<!-- http://purl.org/oseg/ontologies/OTRL#ODRL&#45;3&#45;&gt;http://purl.org/oseg/ontologies/OTRL#ODRL -->
<g id="edge41" class="edge">
<title>http://purl.org/oseg/ontologies/OTRL#ODRL&#45;3&#45;&gt;http://purl.org/oseg/ontologies/OTRL#ODRL</title>
<path fill="none" stroke="black" d="M805.81,-629.28C831.04,-612.13 872.57,-583.89 900.7,-564.76"/>
<polygon fill="black" stroke="black" points="903.02,-567.42 909.33,-558.9 899.09,-561.63 903.02,-567.42"/>
</g>
<!-- http://purl.org/oseg/ontologies/OTRL#ODRL&#45;1 -->
<g id="node25" class="node">
<title>http://purl.org/oseg/ontologies/OTRL#ODRL&#45;1</title>
<ellipse fill="none" stroke="#e377c2" cx="1048.7" cy="-512.7" rx="50.82" ry="16.03"/>
<text text-anchor="middle" x="1048.7" y="-509" font-family="Times,serif" font-size="14.00">ODRL&#45;1</text>
</g>
<!-- http://purl.org/oseg/ontologies/OTRL#ODRL&#45;1&#45;&gt;http://www.w3.org/2002/07/owl#class -->
<g id="edge43" class="edge">
<title>http://purl.org/oseg/ontologies/OTRL#ODRL&#45;1&#45;&gt;http://www.w3.org/2002/07/owl#class</title>
<path fill="none" stroke="black" d="M1016.72,-499.95C975.54,-483.53 903.86,-454.95 858,-436.66"/>
<polygon fill="black" stroke="black" points="859.21,-433.37 848.63,-432.92 856.62,-439.88 859.21,-433.37"/>
<text text-anchor="middle" x="932.86" y="-472.1" font-family="Times,serif" font-size="14.00">a</text>
</g>
<!-- http://purl.org/oseg/ontologies/OTRL#ODRL&#45;1&#45;&gt;http://purl.org/oseg/ontologies/OTRL#ODRL -->
<g id="edge19" class="edge">
<title>http://purl.org/oseg/ontologies/OTRL#ODRL&#45;1&#45;&gt;http://purl.org/oseg/ontologies/OTRL#ODRL</title>
<path fill="none" stroke="black" d="M1009.66,-523.21C998.53,-526.21 986.32,-529.49 974.89,-532.57"/>
<polygon fill="black" stroke="black" points="973.84,-529.23 965.1,-535.21 975.66,-535.99 973.84,-529.23"/>
</g>
<!-- http://purl.org/oseg/ontologies/OTRL#ODRL&#45;4 -->
<g id="node26" class="node">
<title>http://purl.org/oseg/ontologies/OTRL#ODRL&#45;4</title>
<ellipse fill="none" stroke="#e377c2" cx="1056.79" cy="-440.31" rx="50.82" ry="16.03"/>
<text text-anchor="middle" x="1056.79" y="-436.61" font-family="Times,serif" font-size="14.00">ODRL&#45;4</text>
</g>
<!-- http://purl.org/oseg/ontologies/OTRL#ODRL&#45;4&#45;&gt;http://www.w3.org/2002/07/owl#class -->
<g id="edge3" class="edge">
<title>http://purl.org/oseg/ontologies/OTRL#ODRL&#45;4&#45;&gt;http://www.w3.org/2002/07/owl#class</title>
<path fill="none" stroke="black" d="M1007.6,-436.08C970.91,-432.94 920.43,-428.6 880.38,-425.17"/>
<polygon fill="black" stroke="black" points="880.43,-421.66 870.17,-424.29 879.83,-428.63 880.43,-421.66"/>
<text text-anchor="middle" x="939.49" y="-434.43" font-family="Times,serif" font-size="14.00">a</text>
</g>
<!-- http://purl.org/oseg/ontologies/OTRL#ODRL&#45;4&#45;&gt;http://purl.org/oseg/ontologies/OTRL#ODRL -->
<g id="edge1" class="edge">
<title>http://purl.org/oseg/ontologies/OTRL#ODRL&#45;4&#45;&gt;http://purl.org/oseg/ontologies/OTRL#ODRL</title>
<path fill="none" stroke="black" d="M1038.15,-455.68C1016.45,-473.59 980.47,-503.27 956.14,-523.35"/>
<polygon fill="black" stroke="black" points="953.86,-520.7 948.37,-529.76 958.31,-526.09 953.86,-520.7"/>
</g>
</g>
</svg>
