<?xml version="1.0" encoding="UTF-8" standalone="no"?>
<!DOCTYPE svg PUBLIC "-//W3C//DTD SVG 1.1//EN"
 "http://www.w3.org/Graphics/SVG/1.1/DTD/svg11.dtd">
<!-- Generated by graphviz version 2.43.0 (0)
 -->
<!-- Title: G Pages: 1 -->
<svg width="820pt" height="446pt"
 viewBox="0.00 0.00 819.76 446.00" xmlns="http://www.w3.org/2000/svg" xmlns:xlink="http://www.w3.org/1999/xlink">
<g id="graph0" class="graph" transform="scale(1 1) rotate(0) translate(4 442)">
<title>G</title>
<polygon fill="white" stroke="transparent" points="-4,4 -4,-442 815.76,-442 815.76,4 -4,4"/>
<!-- http://www.w3.org/2002/07/owl#DatatypeProperty -->
<g id="node1" class="node">
<title>http://www.w3.org/2002/07/owl#DatatypeProperty</title>
<ellipse fill="none" stroke="#1f77b4" cx="446.58" cy="-397.66" rx="123.07" ry="16.03"/>
<text text-anchor="middle" x="446.58" y="-393.96" font-family="Times,serif" font-size="14.00">owl:DatatypeProperty</text>
</g>
<!-- http://purl.org/oseg/ontologies/OTRL#OTRL -->
<g id="node2" class="node">
<title>http://purl.org/oseg/ontologies/OTRL#OTRL</title>
<ellipse fill="none" stroke="#e377c2" cx="191.39" cy="-151.15" rx="39.7" ry="16.03"/>
<text text-anchor="middle" x="191.39" y="-147.45" font-family="Times,serif" font-size="14.00">OTRL</text>
</g>
<!-- http://www.w3.org/2002/07/owl#class -->
<g id="node3" class="node">
<title>http://www.w3.org/2002/07/owl#class</title>
<ellipse fill="none" stroke="#1f77b4" cx="210.93" cy="-202.01" rx="57.05" ry="16.03"/>
<text text-anchor="middle" x="210.93" y="-198.31" font-family="Times,serif" font-size="14.00">owl:class</text>
</g>
<!-- http://purl.org/oseg/ontologies/OTRL#OTRL&#45;&gt;http://www.w3.org/2002/07/owl#class -->
<g id="edge25" class="edge">
<title>http://purl.org/oseg/ontologies/OTRL#OTRL&#45;&gt;http://www.w3.org/2002/07/owl#class</title>
<path fill="none" stroke="black" d="M197.58,-167.24C198.66,-170.06 199.81,-173.06 200.96,-176.06"/>
<polygon fill="black" stroke="black" points="197.73,-177.41 204.59,-185.49 204.27,-174.9 197.73,-177.41"/>
<text text-anchor="middle" x="194.77" y="-175.45" font-family="Times,serif" font-size="14.00">a</text>
</g>
<!-- http://www.w3.org/2002/07/owl#Ontology -->
<g id="node4" class="node">
<title>http://www.w3.org/2002/07/owl#Ontology</title>
<ellipse fill="none" stroke="#1f77b4" cx="482.32" cy="-65.47" rx="77.56" ry="16.03"/>
<text text-anchor="middle" x="482.32" y="-61.77" font-family="Times,serif" font-size="14.00">owl:Ontology</text>
</g>
<!-- http://purl.org/oseg/ontologies/OTRL#ODRL -->
<g id="node5" class="node">
<title>http://purl.org/oseg/ontologies/OTRL#ODRL</title>
<ellipse fill="none" stroke="#e377c2" cx="260.29" cy="-251.88" rx="41.94" ry="16.03"/>
<text text-anchor="middle" x="260.29" y="-248.18" font-family="Times,serif" font-size="14.00">ODRL</text>
</g>
<!-- http://purl.org/oseg/ontologies/OTRL#ODRL&#45;&gt;http://www.w3.org/2002/07/owl#class -->
<g id="edge2" class="edge">
<title>http://purl.org/oseg/ontologies/OTRL#ODRL&#45;&gt;http://www.w3.org/2002/07/owl#class</title>
<path fill="none" stroke="black" d="M245.21,-236.65C241.62,-233.02 237.7,-229.06 233.85,-225.16"/>
<polygon fill="black" stroke="black" points="236.12,-222.49 226.6,-217.84 231.15,-227.41 236.12,-222.49"/>
<text text-anchor="middle" x="235.03" y="-219.71" font-family="Times,serif" font-size="14.00">a</text>
</g>
<!-- http://purl.org/oseg/ontologies/OTRL#ODRL&#45;4 -->
<g id="node6" class="node">
<title>http://purl.org/oseg/ontologies/OTRL#ODRL&#45;4</title>
<ellipse fill="none" stroke="#e377c2" cx="340.96" cy="-333.63" rx="50.82" ry="16.03"/>
<text text-anchor="middle" x="340.96" y="-329.93" font-family="Times,serif" font-size="14.00">ODRL&#45;4</text>
</g>
<!-- http://purl.org/oseg/ontologies/OTRL#ODRL&#45;4&#45;&gt;http://www.w3.org/2002/07/owl#class -->
<g id="edge15" class="edge">
<title>http://purl.org/oseg/ontologies/OTRL#ODRL&#45;4&#45;&gt;http://www.w3.org/2002/07/owl#class</title>
<path fill="none" stroke="black" d="M325.54,-318.01C302.88,-295.08 260.45,-252.13 234.06,-225.41"/>
<polygon fill="black" stroke="black" points="236.26,-222.67 226.74,-218.01 231.28,-227.59 236.26,-222.67"/>
<text text-anchor="middle" x="275.3" y="-275.51" font-family="Times,serif" font-size="14.00">a</text>
</g>
<!-- http://purl.org/oseg/ontologies/OTRL#ODRL&#45;4&#45;&gt;http://purl.org/oseg/ontologies/OTRL#ODRL -->
<g id="edge8" class="edge">
<title>http://purl.org/oseg/ontologies/OTRL#ODRL&#45;4&#45;&gt;http://purl.org/oseg/ontologies/OTRL#ODRL</title>
<path fill="none" stroke="black" d="M325.41,-317.87C313.28,-305.57 296.27,-288.34 282.67,-274.56"/>
<polygon fill="black" stroke="black" points="285.04,-271.98 275.52,-267.32 280.06,-276.9 285.04,-271.98"/>
</g>
<!-- http://www.w3.org/1999/02/22&#45;rdf&#45;syntax&#45;ns#nil -->
<g id="node7" class="node">
<title>http://www.w3.org/1999/02/22&#45;rdf&#45;syntax&#45;ns#nil</title>
<ellipse fill="none" stroke="#e377c2" cx="96.24" cy="-421.64" rx="42.35" ry="16.03"/>
<text text-anchor="middle" x="96.24" y="-417.94" font-family="Times,serif" font-size="14.00">rdf:nil</text>
</g>
<!-- http://purl.org/oseg/ontologies/OTRL#goal -->
<g id="node8" class="node">
<title>http://purl.org/oseg/ontologies/OTRL#goal</title>
<ellipse fill="none" stroke="#e377c2" cx="643.93" cy="-356.07" rx="33.47" ry="16.03"/>
<text text-anchor="middle" x="643.93" y="-352.37" font-family="Times,serif" font-size="14.00">goal</text>
</g>
<!-- http://purl.org/oseg/ontologies/OTRL#goal&#45;&gt;http://www.w3.org/2002/07/owl#DatatypeProperty -->
<g id="edge17" class="edge">
<title>http://purl.org/oseg/ontologies/OTRL#goal&#45;&gt;http://www.w3.org/2002/07/owl#DatatypeProperty</title>
<path fill="none" stroke="black" d="M613.09,-362.57C588.83,-367.68 553.97,-375.03 522.41,-381.68"/>
<polygon fill="black" stroke="black" points="521.36,-378.32 512.3,-383.81 522.8,-385.17 521.36,-378.32"/>
<text text-anchor="middle" x="572.25" y="-375.92" font-family="Times,serif" font-size="14.00">a</text>
</g>
<!-- http://schema.org/Text -->
<g id="node12" class="node">
<title>http://schema.org/Text</title>
<ellipse fill="none" stroke="#e377c2" cx="575.43" cy="-313.02" rx="74.91" ry="16.03"/>
<text text-anchor="middle" x="575.43" y="-309.32" font-family="Times,serif" font-size="14.00">schema:Text</text>
</g>
<!-- http://purl.org/oseg/ontologies/OTRL#goal&#45;&gt;http://schema.org/Text -->
<g id="edge26" class="edge">
<title>http://purl.org/oseg/ontologies/OTRL#goal&#45;&gt;http://schema.org/Text</title>
<path fill="none" stroke="black" d="M623.38,-343.15C618.84,-340.3 613.93,-337.21 609.03,-334.13"/>
<polygon fill="black" stroke="black" points="610.65,-331.02 600.32,-328.66 606.93,-336.95 610.65,-331.02"/>
<text text-anchor="middle" x="637.2" y="-327.44" font-family="Times,serif" font-size="14.00">range</text>
</g>
<!-- http://purl.org/oseg/ontologies/OTRL#OTRL&#45;3 -->
<g id="node9" class="node">
<title>http://purl.org/oseg/ontologies/OTRL#OTRL&#45;3</title>
<ellipse fill="none" stroke="#e377c2" cx="49.67" cy="-211.56" rx="49.49" ry="16.03"/>
<text text-anchor="middle" x="49.67" y="-207.86" font-family="Times,serif" font-size="14.00">OTRL&#45;3</text>
</g>
<!-- http://purl.org/oseg/ontologies/OTRL#OTRL&#45;3&#45;&gt;http://purl.org/oseg/ontologies/OTRL#OTRL -->
<g id="edge7" class="edge">
<title>http://purl.org/oseg/ontologies/OTRL#OTRL&#45;3&#45;&gt;http://purl.org/oseg/ontologies/OTRL#OTRL</title>
<path fill="none" stroke="black" d="M80.08,-198.6C101.71,-189.38 130.91,-176.93 153.98,-167.1"/>
<polygon fill="black" stroke="black" points="155.62,-170.2 163.45,-163.06 152.88,-163.76 155.62,-170.2"/>
</g>
<!-- http://purl.org/oseg/ontologies/OTRL#OTRL&#45;3&#45;&gt;http://www.w3.org/2002/07/owl#class -->
<g id="edge3" class="edge">
<title>http://purl.org/oseg/ontologies/OTRL#OTRL&#45;3&#45;&gt;http://www.w3.org/2002/07/owl#class</title>
<path fill="none" stroke="black" d="M98.49,-208.67C113.02,-207.81 129.18,-206.85 144.62,-205.94"/>
<polygon fill="black" stroke="black" points="144.86,-209.43 154.64,-205.34 144.45,-202.44 144.86,-209.43"/>
<text text-anchor="middle" x="117.06" y="-211.1" font-family="Times,serif" font-size="14.00">a</text>
</g>
<!-- http://purl.org/oseg/ontologies/OTRL#ODRL&#45;1 -->
<g id="node10" class="node">
<title>http://purl.org/oseg/ontologies/OTRL#ODRL&#45;1</title>
<ellipse fill="none" stroke="#e377c2" cx="121.46" cy="-333.15" rx="50.82" ry="16.03"/>
<text text-anchor="middle" x="121.46" y="-329.45" font-family="Times,serif" font-size="14.00">ODRL&#45;1</text>
</g>
<!-- http://purl.org/oseg/ontologies/OTRL#ODRL&#45;1&#45;&gt;http://www.w3.org/2002/07/owl#class -->
<g id="edge18" class="edge">
<title>http://purl.org/oseg/ontologies/OTRL#ODRL&#45;1&#45;&gt;http://www.w3.org/2002/07/owl#class</title>
<path fill="none" stroke="black" d="M132.43,-317.07C147.86,-294.46 176.1,-253.07 194.17,-226.58"/>
<polygon fill="black" stroke="black" points="197.13,-228.45 199.87,-218.22 191.34,-224.51 197.13,-228.45"/>
<text text-anchor="middle" x="158.8" y="-275.63" font-family="Times,serif" font-size="14.00">a</text>
</g>
<!-- http://purl.org/oseg/ontologies/OTRL#ODRL&#45;1&#45;&gt;http://purl.org/oseg/ontologies/OTRL#ODRL -->
<g id="edge24" class="edge">
<title>http://purl.org/oseg/ontologies/OTRL#ODRL&#45;1&#45;&gt;http://purl.org/oseg/ontologies/OTRL#ODRL</title>
<path fill="none" stroke="black" d="M145.96,-318.81C168.84,-305.42 203.13,-285.35 228.18,-270.68"/>
<polygon fill="black" stroke="black" points="230.1,-273.61 236.96,-265.54 226.56,-267.57 230.1,-273.61"/>
</g>
<!-- http://purl.org/oseg/ontologies/OTRL#OTRL&#45;5 -->
<g id="node11" class="node">
<title>http://purl.org/oseg/ontologies/OTRL#OTRL&#45;5</title>
<ellipse fill="none" stroke="#e377c2" cx="58.43" cy="-110.64" rx="49.49" ry="16.03"/>
<text text-anchor="middle" x="58.43" y="-106.94" font-family="Times,serif" font-size="14.00">OTRL&#45;5</text>
</g>
<!-- http://purl.org/oseg/ontologies/OTRL#OTRL&#45;5&#45;&gt;http://purl.org/oseg/ontologies/OTRL#OTRL -->
<g id="edge16" class="edge">
<title>http://purl.org/oseg/ontologies/OTRL#OTRL&#45;5&#45;&gt;http://purl.org/oseg/ontologies/OTRL#OTRL</title>
<path fill="none" stroke="black" d="M94.77,-121.71C111.61,-126.84 131.72,-132.96 149.23,-138.3"/>
<polygon fill="black" stroke="black" points="148.6,-141.77 159.19,-141.33 150.64,-135.07 148.6,-141.77"/>
</g>
<!-- http://purl.org/oseg/ontologies/OTRL#OTRL&#45;5&#45;&gt;http://www.w3.org/2002/07/owl#class -->
<g id="edge19" class="edge">
<title>http://purl.org/oseg/ontologies/OTRL#OTRL&#45;5&#45;&gt;http://www.w3.org/2002/07/owl#class</title>
<path fill="none" stroke="black" d="M82.26,-124.91C107.81,-140.22 148.58,-164.65 177.37,-181.9"/>
<polygon fill="black" stroke="black" points="175.88,-185.09 186.26,-187.22 179.48,-179.08 175.88,-185.09"/>
<text text-anchor="middle" x="125.32" y="-157.2" font-family="Times,serif" font-size="14.00">a</text>
</g>
<!-- http://purl.org/oseg/ontologies/OTRL -->
<g id="node13" class="node">
<title>http://purl.org/oseg/ontologies/OTRL</title>
<ellipse fill="none" stroke="#e377c2" cx="629.95" cy="-43.42" rx="60.62" ry="16.03"/>
<text text-anchor="middle" x="629.95" y="-39.72" font-family="Times,serif" font-size="14.00">ns1:OTRL</text>
</g>
<!-- http://purl.org/oseg/ontologies/OTRL&#45;&gt;http://www.w3.org/2002/07/owl#Ontology -->
<g id="edge22" class="edge">
<title>http://purl.org/oseg/ontologies/OTRL&#45;&gt;http://www.w3.org/2002/07/owl#Ontology</title>
<path fill="none" stroke="black" d="M576.65,-51.38C569.94,-52.38 562.98,-53.42 556.02,-54.46"/>
<polygon fill="black" stroke="black" points="555.22,-51.04 545.85,-55.98 556.26,-57.96 555.22,-51.04"/>
<text text-anchor="middle" x="564.08" y="-41.72" font-family="Times,serif" font-size="14.00">a</text>
</g>
<!-- http://purl.org/oseg/ontologies/OTRL&#45;&gt;http://purl.org/oseg/ontologies/OTRL -->
<g id="edge21" class="edge">
<title>http://purl.org/oseg/ontologies/OTRL&#45;&gt;http://purl.org/oseg/ontologies/OTRL</title>
<path fill="none" stroke="black" d="M685.55,-50.05C698.89,-49.53 708.76,-47.32 708.76,-43.42 708.76,-40.58 703.55,-38.64 695.58,-37.59"/>
<polygon fill="black" stroke="black" points="695.8,-34.1 685.55,-36.78 695.24,-41.07 695.8,-34.1"/>
<text text-anchor="middle" x="760.26" y="-39.72" font-family="Times,serif" font-size="14.00">owl:versionIRI</text>
</g>
<!-- http://purl.org/oseg/ontologies/OTRL#exitCriteria -->
<g id="node14" class="node">
<title>http://purl.org/oseg/ontologies/OTRL#exitCriteria</title>
<ellipse fill="none" stroke="#e377c2" cx="532.05" cy="-356.26" rx="70.01" ry="16.03"/>
<text text-anchor="middle" x="532.05" y="-352.56" font-family="Times,serif" font-size="14.00">exitCriteria</text>
</g>
<!-- http://purl.org/oseg/ontologies/OTRL#exitCriteria&#45;&gt;http://www.w3.org/2002/07/owl#DatatypeProperty -->
<g id="edge23" class="edge">
<title>http://purl.org/oseg/ontologies/OTRL#exitCriteria&#45;&gt;http://www.w3.org/2002/07/owl#DatatypeProperty</title>
<path fill="none" stroke="black" d="M501.68,-370.97C497.35,-373.07 492.83,-375.26 488.33,-377.44"/>
<polygon fill="black" stroke="black" points="486.65,-374.36 479.18,-381.87 489.7,-380.66 486.65,-374.36"/>
<text text-anchor="middle" x="490.5" y="-378.01" font-family="Times,serif" font-size="14.00">a</text>
</g>
<!-- http://purl.org/oseg/ontologies/OTRL#exitCriteria&#45;&gt;http://schema.org/Text -->
<g id="edge20" class="edge">
<title>http://purl.org/oseg/ontologies/OTRL#exitCriteria&#45;&gt;http://schema.org/Text</title>
<path fill="none" stroke="black" d="M548.2,-340.16C549.46,-338.9 550.75,-337.62 552.04,-336.33"/>
<polygon fill="black" stroke="black" points="554.8,-338.53 559.41,-328.99 549.86,-333.57 554.8,-338.53"/>
<text text-anchor="middle" x="529.12" y="-327.04" font-family="Times,serif" font-size="14.00">range</text>
</g>
<!-- http://purl.org/oseg/ontologies/OTRL#ODRL&#45;5 -->
<g id="node15" class="node">
<title>http://purl.org/oseg/ontologies/OTRL#ODRL&#45;5</title>
<ellipse fill="none" stroke="#e377c2" cx="309.73" cy="-81.94" rx="50.82" ry="16.03"/>
<text text-anchor="middle" x="309.73" y="-78.24" font-family="Times,serif" font-size="14.00">ODRL&#45;5</text>
</g>
<!-- http://purl.org/oseg/ontologies/OTRL#ODRL&#45;5&#45;&gt;http://www.w3.org/2002/07/owl#class -->
<g id="edge5" class="edge">
<title>http://purl.org/oseg/ontologies/OTRL#ODRL&#45;5&#45;&gt;http://www.w3.org/2002/07/owl#class</title>
<path fill="none" stroke="black" d="M296.41,-98.13C279.44,-118.75 250,-154.52 230.49,-178.23"/>
<polygon fill="black" stroke="black" points="227.7,-176.12 224.04,-186.07 233.1,-180.57 227.7,-176.12"/>
<text text-anchor="middle" x="258.95" y="-141.98" font-family="Times,serif" font-size="14.00">a</text>
</g>
<!-- http://purl.org/oseg/ontologies/OTRL#ODRL&#45;5&#45;&gt;http://purl.org/oseg/ontologies/OTRL#ODRL -->
<g id="edge1" class="edge">
<title>http://purl.org/oseg/ontologies/OTRL#ODRL&#45;5&#45;&gt;http://purl.org/oseg/ontologies/OTRL#ODRL</title>
<path fill="none" stroke="black" d="M304.99,-98.24C296.39,-127.8 278.15,-190.5 267.83,-225.98"/>
<polygon fill="black" stroke="black" points="264.45,-225.06 265.02,-235.64 271.17,-227.01 264.45,-225.06"/>
</g>
<!-- http://purl.org/oseg/ontologies/OTRL#OTRL&#45;4 -->
<g id="node16" class="node">
<title>http://purl.org/oseg/ontologies/OTRL#OTRL&#45;4</title>
<ellipse fill="none" stroke="#e377c2" cx="185.78" cy="-16.05" rx="49.49" ry="16.03"/>
<text text-anchor="middle" x="185.78" y="-12.35" font-family="Times,serif" font-size="14.00">OTRL&#45;4</text>
</g>
<!-- http://purl.org/oseg/ontologies/OTRL#OTRL&#45;4&#45;&gt;http://purl.org/oseg/ontologies/OTRL#OTRL -->
<g id="edge28" class="edge">
<title>http://purl.org/oseg/ontologies/OTRL#OTRL&#45;4&#45;&gt;http://purl.org/oseg/ontologies/OTRL#OTRL</title>
<path fill="none" stroke="black" d="M186.46,-32.35C187.41,-55.27 189.16,-97.3 190.3,-124.72"/>
<polygon fill="black" stroke="black" points="186.8,-124.95 190.72,-134.79 193.8,-124.66 186.8,-124.95"/>
</g>
<!-- http://purl.org/oseg/ontologies/OTRL#OTRL&#45;4&#45;&gt;http://www.w3.org/2002/07/owl#class -->
<g id="edge6" class="edge">
<title>http://purl.org/oseg/ontologies/OTRL#OTRL&#45;4&#45;&gt;http://www.w3.org/2002/07/owl#class</title>
<path fill="none" stroke="black" d="M188.02,-32.56C192.38,-64.81 202.07,-136.47 207.34,-175.47"/>
<polygon fill="black" stroke="black" points="203.9,-176.1 208.7,-185.54 210.83,-175.16 203.9,-176.1"/>
<text text-anchor="middle" x="193.18" y="-107.81" font-family="Times,serif" font-size="14.00">a</text>
</g>
<!-- http://purl.org/oseg/ontologies/OTRL#OTRL&#45;1 -->
<g id="node17" class="node">
<title>http://purl.org/oseg/ontologies/OTRL#OTRL&#45;1</title>
<ellipse fill="none" stroke="#e377c2" cx="174.49" cy="-96.4" rx="49.49" ry="16.03"/>
<text text-anchor="middle" x="174.49" y="-92.7" font-family="Times,serif" font-size="14.00">OTRL&#45;1</text>
</g>
<!-- http://purl.org/oseg/ontologies/OTRL#OTRL&#45;1&#45;&gt;http://purl.org/oseg/ontologies/OTRL#OTRL -->
<g id="edge13" class="edge">
<title>http://purl.org/oseg/ontologies/OTRL#OTRL&#45;1&#45;&gt;http://purl.org/oseg/ontologies/OTRL#OTRL</title>
<path fill="none" stroke="black" d="M179.56,-112.82C180.73,-116.61 182,-120.74 183.27,-124.83"/>
<polygon fill="black" stroke="black" points="180.03,-126.21 186.33,-134.73 186.72,-124.14 180.03,-126.21"/>
</g>
<!-- http://purl.org/oseg/ontologies/OTRL#OTRL&#45;1&#45;&gt;http://www.w3.org/2002/07/owl#class -->
<g id="edge27" class="edge">
<title>http://purl.org/oseg/ontologies/OTRL#OTRL&#45;1&#45;&gt;http://www.w3.org/2002/07/owl#class</title>
<path fill="none" stroke="black" d="M180.18,-112.9C186.01,-129.79 195.16,-156.3 201.96,-176.02"/>
<polygon fill="black" stroke="black" points="198.71,-177.31 205.28,-185.62 205.32,-175.03 198.71,-177.31"/>
<text text-anchor="middle" x="186.57" y="-133.26" font-family="Times,serif" font-size="14.00">a</text>
</g>
<!-- http://purl.org/oseg/ontologies/OTRL#ODRL&#45;3 -->
<g id="node18" class="node">
<title>http://purl.org/oseg/ontologies/OTRL#ODRL&#45;3</title>
<ellipse fill="none" stroke="#e377c2" cx="394.37" cy="-240.97" rx="50.82" ry="16.03"/>
<text text-anchor="middle" x="394.37" y="-237.27" font-family="Times,serif" font-size="14.00">ODRL&#45;3</text>
</g>
<!-- http://purl.org/oseg/ontologies/OTRL#ODRL&#45;3&#45;&gt;http://www.w3.org/2002/07/owl#class -->
<g id="edge9" class="edge">
<title>http://purl.org/oseg/ontologies/OTRL#ODRL&#45;3&#45;&gt;http://www.w3.org/2002/07/owl#class</title>
<path fill="none" stroke="black" d="M351.83,-231.94C326.56,-226.57 294.23,-219.7 266.92,-213.9"/>
<polygon fill="black" stroke="black" points="267.61,-210.47 257.1,-211.81 266.16,-217.32 267.61,-210.47"/>
<text text-anchor="middle" x="304.87" y="-211.72" font-family="Times,serif" font-size="14.00">a</text>
</g>
<!-- http://purl.org/oseg/ontologies/OTRL#ODRL&#45;3&#45;&gt;http://purl.org/oseg/ontologies/OTRL#ODRL -->
<g id="edge4" class="edge">
<title>http://purl.org/oseg/ontologies/OTRL#ODRL&#45;3&#45;&gt;http://purl.org/oseg/ontologies/OTRL#ODRL</title>
<path fill="none" stroke="black" d="M344.83,-245.01C333.97,-245.89 322.46,-246.83 311.54,-247.71"/>
<polygon fill="black" stroke="black" points="310.98,-244.25 301.3,-248.55 311.55,-251.22 310.98,-244.25"/>
</g>
<!-- http://purl.org/oseg/ontologies/OTRL#ODRL&#45;2 -->
<g id="node19" class="node">
<title>http://purl.org/oseg/ontologies/OTRL#ODRL&#45;2</title>
<ellipse fill="none" stroke="#e377c2" cx="224.32" cy="-381.22" rx="50.82" ry="16.03"/>
<text text-anchor="middle" x="224.32" y="-377.52" font-family="Times,serif" font-size="14.00">ODRL&#45;2</text>
</g>
<!-- http://purl.org/oseg/ontologies/OTRL#ODRL&#45;2&#45;&gt;http://www.w3.org/2002/07/owl#class -->
<g id="edge10" class="edge">
<title>http://purl.org/oseg/ontologies/OTRL#ODRL&#45;2&#45;&gt;http://www.w3.org/2002/07/owl#class</title>
<path fill="none" stroke="black" d="M223.08,-364.68C220.76,-333.61 215.73,-266.26 212.92,-228.7"/>
<polygon fill="black" stroke="black" points="216.4,-228.22 212.16,-218.51 209.42,-228.74 216.4,-228.22"/>
<text text-anchor="middle" x="213.5" y="-300.49" font-family="Times,serif" font-size="14.00">a</text>
</g>
<!-- http://purl.org/oseg/ontologies/OTRL#ODRL&#45;2&#45;&gt;http://purl.org/oseg/ontologies/OTRL#ODRL -->
<g id="edge14" class="edge">
<title>http://purl.org/oseg/ontologies/OTRL#ODRL&#45;2&#45;&gt;http://purl.org/oseg/ontologies/OTRL#ODRL</title>
<path fill="none" stroke="black" d="M228.88,-364.84C234.96,-342.97 245.8,-304 253.02,-278.04"/>
<polygon fill="black" stroke="black" points="256.47,-278.7 255.77,-268.13 249.72,-276.83 256.47,-278.7"/>
</g>
<!-- http://purl.org/oseg/ontologies/OTRL#OTRL&#45;2 -->
<g id="node20" class="node">
<title>http://purl.org/oseg/ontologies/OTRL#OTRL&#45;2</title>
<ellipse fill="none" stroke="#e377c2" cx="358.88" cy="-135.12" rx="49.49" ry="16.03"/>
<text text-anchor="middle" x="358.88" y="-131.42" font-family="Times,serif" font-size="14.00">OTRL&#45;2</text>
</g>
<!-- http://purl.org/oseg/ontologies/OTRL#OTRL&#45;2&#45;&gt;http://purl.org/oseg/ontologies/OTRL#OTRL -->
<g id="edge11" class="edge">
<title>http://purl.org/oseg/ontologies/OTRL#OTRL&#45;2&#45;&gt;http://purl.org/oseg/ontologies/OTRL#OTRL</title>
<path fill="none" stroke="black" d="M311.33,-139.67C289.02,-141.81 262.47,-144.35 240.03,-146.49"/>
<polygon fill="black" stroke="black" points="239.66,-143.01 230.04,-147.45 240.32,-149.98 239.66,-143.01"/>
</g>
<!-- http://purl.org/oseg/ontologies/OTRL#OTRL&#45;2&#45;&gt;http://www.w3.org/2002/07/owl#class -->
<g id="edge12" class="edge">
<title>http://purl.org/oseg/ontologies/OTRL#OTRL&#45;2&#45;&gt;http://www.w3.org/2002/07/owl#class</title>
<path fill="none" stroke="black" d="M329.65,-148.34C307.1,-158.53 275.66,-172.74 250.8,-183.98"/>
<polygon fill="black" stroke="black" points="249.3,-180.82 241.63,-188.13 252.18,-187.2 249.3,-180.82"/>
<text text-anchor="middle" x="285.72" y="-169.96" font-family="Times,serif" font-size="14.00">a</text>
</g>
</g>
</svg>
