<?xml version="1.0" encoding="UTF-8" standalone="no"?>
<!DOCTYPE svg PUBLIC "-//W3C//DTD SVG 1.1//EN"
 "http://www.w3.org/Graphics/SVG/1.1/DTD/svg11.dtd">
<!-- Generated by graphviz version 2.43.0 (0)
 -->
<!-- Title: G Pages: 1 -->
<svg width="1172pt" height="690pt"
 viewBox="0.00 0.00 1172.00 690.00" xmlns="http://www.w3.org/2000/svg" xmlns:xlink="http://www.w3.org/1999/xlink">
<g id="graph0" class="graph" transform="scale(1 1) rotate(0) translate(4 686)">
<title>G</title>
<polygon fill="white" stroke="transparent" points="-4,4 -4,-686 1168,-686 1168,4 -4,4"/>
<!-- http://www.w3.org/2002/07/owl#class -->
<g id="node1" class="node">
<title>http://www.w3.org/2002/07/owl#class</title>
<ellipse fill="none" stroke="#1f77b4" cx="315.8" cy="-439.67" rx="57.05" ry="16.03"/>
<text text-anchor="middle" x="315.8" y="-435.97" font-family="Times,serif" font-size="14.00">owl:class</text>
</g>
<!-- http://purl.org/oseg/ontologies/OTRL#OTRL -->
<g id="node2" class="node">
<title>http://purl.org/oseg/ontologies/OTRL#OTRL</title>
<ellipse fill="none" stroke="#e377c2" cx="553.31" cy="-314.17" rx="39.7" ry="16.03"/>
<text text-anchor="middle" x="553.31" y="-310.47" font-family="Times,serif" font-size="14.00">OTRL</text>
</g>
<!-- http://purl.org/oseg/ontologies/OTRL#OTRL&#45;&gt;http://www.w3.org/2002/07/owl#class -->
<g id="edge30" class="edge">
<title>http://purl.org/oseg/ontologies/OTRL#OTRL&#45;&gt;http://www.w3.org/2002/07/owl#class</title>
<path fill="none" stroke="black" d="M528.79,-327.13C486.81,-349.31 400.99,-394.66 352.07,-420.51"/>
<polygon fill="black" stroke="black" points="350.3,-417.48 343.1,-425.25 353.57,-423.67 350.3,-417.48"/>
<text text-anchor="middle" x="435.93" y="-377.62" font-family="Times,serif" font-size="14.00">a</text>
</g>
<!-- http://www.w3.org/2002/07/owl#DatatypeProperty -->
<g id="node3" class="node">
<title>http://www.w3.org/2002/07/owl#DatatypeProperty</title>
<ellipse fill="none" stroke="#1f77b4" cx="1040.72" cy="-15.77" rx="123.07" ry="16.03"/>
<text text-anchor="middle" x="1040.72" y="-12.07" font-family="Times,serif" font-size="14.00">owl:DatatypeProperty</text>
</g>
<!-- http://www.w3.org/2002/07/owl#Ontology -->
<g id="node4" class="node">
<title>http://www.w3.org/2002/07/owl#Ontology</title>
<ellipse fill="none" stroke="#1f77b4" cx="777.32" cy="-528.47" rx="77.56" ry="16.03"/>
<text text-anchor="middle" x="777.32" y="-524.77" font-family="Times,serif" font-size="14.00">owl:Ontology</text>
</g>
<!-- http://purl.org/oseg/ontologies/OTRL#ODRL -->
<g id="node5" class="node">
<title>http://purl.org/oseg/ontologies/OTRL#ODRL</title>
<ellipse fill="none" stroke="#e377c2" cx="154.92" cy="-521.61" rx="41.94" ry="16.03"/>
<text text-anchor="middle" x="154.92" y="-517.91" font-family="Times,serif" font-size="14.00">ODRL</text>
</g>
<!-- http://purl.org/oseg/ontologies/OTRL#ODRL&#45;&gt;http://www.w3.org/2002/07/owl#class -->
<g id="edge3" class="edge">
<title>http://purl.org/oseg/ontologies/OTRL#ODRL&#45;&gt;http://www.w3.org/2002/07/owl#class</title>
<path fill="none" stroke="black" d="M180.41,-508.63C206.91,-495.13 248.65,-473.88 278.78,-458.53"/>
<polygon fill="black" stroke="black" points="280.4,-461.63 287.73,-453.97 277.23,-455.39 280.4,-461.63"/>
<text text-anchor="middle" x="225.1" y="-487.38" font-family="Times,serif" font-size="14.00">a</text>
</g>
<!-- http://purl.org/oseg/ontologies/OTRL#exitCriteria -->
<g id="node6" class="node">
<title>http://purl.org/oseg/ontologies/OTRL#exitCriteria</title>
<ellipse fill="none" stroke="#e377c2" cx="779.05" cy="-172.79" rx="70.01" ry="16.03"/>
<text text-anchor="middle" x="779.05" y="-169.09" font-family="Times,serif" font-size="14.00">exitCriteria</text>
</g>
<!-- http://purl.org/oseg/ontologies/OTRL#exitCriteria&#45;&gt;http://purl.org/oseg/ontologies/OTRL#OTRL -->
<g id="edge20" class="edge">
<title>http://purl.org/oseg/ontologies/OTRL#exitCriteria&#45;&gt;http://purl.org/oseg/ontologies/OTRL#OTRL</title>
<path fill="none" stroke="black" d="M754.46,-188.19C712.9,-214.22 628.86,-266.85 583.68,-295.15"/>
<polygon fill="black" stroke="black" points="581.81,-292.19 575.19,-300.47 585.52,-298.12 581.81,-292.19"/>
<text text-anchor="middle" x="642.57" y="-245.47" font-family="Times,serif" font-size="14.00">domain</text>
</g>
<!-- http://purl.org/oseg/ontologies/OTRL#exitCriteria&#45;&gt;http://www.w3.org/2002/07/owl#DatatypeProperty -->
<g id="edge2" class="edge">
<title>http://purl.org/oseg/ontologies/OTRL#exitCriteria&#45;&gt;http://www.w3.org/2002/07/owl#DatatypeProperty</title>
<path fill="none" stroke="black" d="M804.62,-157.45C851.54,-129.29 951.5,-69.31 1005.07,-37.17"/>
<polygon fill="black" stroke="black" points="1007.11,-40.03 1013.88,-31.88 1003.51,-34.02 1007.11,-40.03"/>
<text text-anchor="middle" x="900.34" y="-101.11" font-family="Times,serif" font-size="14.00">a</text>
</g>
<!-- http://schema.org/Text -->
<g id="node20" class="node">
<title>http://schema.org/Text</title>
<ellipse fill="none" stroke="#e377c2" cx="1026.79" cy="-119.29" rx="74.91" ry="16.03"/>
<text text-anchor="middle" x="1026.79" y="-115.59" font-family="Times,serif" font-size="14.00">schema:Text</text>
</g>
<!-- http://purl.org/oseg/ontologies/OTRL#exitCriteria&#45;&gt;http://schema.org/Text -->
<g id="edge21" class="edge">
<title>http://purl.org/oseg/ontologies/OTRL#exitCriteria&#45;&gt;http://schema.org/Text</title>
<path fill="none" stroke="black" d="M830.38,-161.71C869.01,-153.37 922.16,-141.89 963.43,-132.97"/>
<polygon fill="black" stroke="black" points="964.35,-136.36 973.38,-130.83 962.87,-129.52 964.35,-136.36"/>
<text text-anchor="middle" x="875.91" y="-151.14" font-family="Times,serif" font-size="14.00">range</text>
</g>
<!-- http://purl.org/oseg/ontologies/OTRL -->
<g id="node7" class="node">
<title>http://purl.org/oseg/ontologies/OTRL</title>
<ellipse fill="none" stroke="#e377c2" cx="924.95" cy="-506.42" rx="60.62" ry="16.03"/>
<text text-anchor="middle" x="924.95" y="-502.72" font-family="Times,serif" font-size="14.00">ns1:OTRL</text>
</g>
<!-- http://purl.org/oseg/ontologies/OTRL&#45;&gt;http://www.w3.org/2002/07/owl#Ontology -->
<g id="edge11" class="edge">
<title>http://purl.org/oseg/ontologies/OTRL&#45;&gt;http://www.w3.org/2002/07/owl#Ontology</title>
<path fill="none" stroke="black" d="M871.65,-514.38C864.94,-515.38 857.98,-516.42 851.02,-517.46"/>
<polygon fill="black" stroke="black" points="850.22,-514.04 840.85,-518.98 851.26,-520.96 850.22,-514.04"/>
<text text-anchor="middle" x="859.08" y="-504.72" font-family="Times,serif" font-size="14.00">a</text>
</g>
<!-- http://purl.org/oseg/ontologies/OTRL&#45;&gt;http://purl.org/oseg/ontologies/OTRL -->
<g id="edge26" class="edge">
<title>http://purl.org/oseg/ontologies/OTRL&#45;&gt;http://purl.org/oseg/ontologies/OTRL</title>
<path fill="none" stroke="black" d="M980.55,-513.05C993.89,-512.53 1003.76,-510.32 1003.76,-506.42 1003.76,-503.58 998.55,-501.64 990.58,-500.59"/>
<polygon fill="black" stroke="black" points="990.8,-497.1 980.55,-499.78 990.24,-504.07 990.8,-497.1"/>
<text text-anchor="middle" x="1055.26" y="-502.72" font-family="Times,serif" font-size="14.00">owl:versionIRI</text>
</g>
<!-- http://purl.org/oseg/ontologies/OTRL#OTRL&#45;4 -->
<g id="node8" class="node">
<title>http://purl.org/oseg/ontologies/OTRL#OTRL&#45;4</title>
<ellipse fill="none" stroke="#e377c2" cx="495.27" cy="-245.91" rx="49.49" ry="16.03"/>
<text text-anchor="middle" x="495.27" y="-242.21" font-family="Times,serif" font-size="14.00">OTRL&#45;4</text>
</g>
<!-- http://purl.org/oseg/ontologies/OTRL#OTRL&#45;4&#45;&gt;http://www.w3.org/2002/07/owl#class -->
<g id="edge6" class="edge">
<title>http://purl.org/oseg/ontologies/OTRL#OTRL&#45;4&#45;&gt;http://www.w3.org/2002/07/owl#class</title>
<path fill="none" stroke="black" d="M480.58,-261.76C448.95,-295.91 374.28,-376.54 337.31,-416.45"/>
<polygon fill="black" stroke="black" points="334.67,-414.15 330.44,-423.87 339.8,-418.91 334.67,-414.15"/>
<text text-anchor="middle" x="404.45" y="-327.91" font-family="Times,serif" font-size="14.00">a</text>
</g>
<!-- http://purl.org/oseg/ontologies/OTRL#OTRL&#45;4&#45;&gt;http://purl.org/oseg/ontologies/OTRL#OTRL -->
<g id="edge24" class="edge">
<title>http://purl.org/oseg/ontologies/OTRL#OTRL&#45;4&#45;&gt;http://purl.org/oseg/ontologies/OTRL#OTRL</title>
<path fill="none" stroke="black" d="M508.73,-261.74C516.06,-270.35 525.26,-281.18 533.4,-290.75"/>
<polygon fill="black" stroke="black" points="530.78,-293.07 539.92,-298.42 536.11,-288.54 530.78,-293.07"/>
</g>
<!-- http://purl.org/oseg/ontologies/OTRL#OTRL&#45;1 -->
<g id="node9" class="node">
<title>http://purl.org/oseg/ontologies/OTRL#OTRL&#45;1</title>
<ellipse fill="none" stroke="#e377c2" cx="503.64" cy="-544.54" rx="49.49" ry="16.03"/>
<text text-anchor="middle" x="503.64" y="-540.84" font-family="Times,serif" font-size="14.00">OTRL&#45;1</text>
</g>
<!-- http://purl.org/oseg/ontologies/OTRL#OTRL&#45;1&#45;&gt;http://www.w3.org/2002/07/owl#class -->
<g id="edge7" class="edge">
<title>http://purl.org/oseg/ontologies/OTRL#OTRL&#45;1&#45;&gt;http://www.w3.org/2002/07/owl#class</title>
<path fill="none" stroke="black" d="M478.31,-530.4C445.45,-512.05 387.94,-479.95 350.89,-459.26"/>
<polygon fill="black" stroke="black" points="352.38,-456.08 341.94,-454.26 348.97,-462.19 352.38,-456.08"/>
<text text-anchor="middle" x="410.1" y="-498.63" font-family="Times,serif" font-size="14.00">a</text>
</g>
<!-- http://purl.org/oseg/ontologies/OTRL#OTRL&#45;1&#45;&gt;http://purl.org/oseg/ontologies/OTRL#OTRL -->
<g id="edge23" class="edge">
<title>http://purl.org/oseg/ontologies/OTRL#OTRL&#45;1&#45;&gt;http://purl.org/oseg/ontologies/OTRL#OTRL</title>
<path fill="none" stroke="black" d="M507.22,-527.97C515.74,-488.46 537.3,-388.41 547.63,-340.51"/>
<polygon fill="black" stroke="black" points="551.08,-341.1 549.77,-330.59 544.24,-339.62 551.08,-341.1"/>
</g>
<!-- http://purl.org/oseg/ontologies/OTRL#OTRL&#45;6 -->
<g id="node10" class="node">
<title>http://purl.org/oseg/ontologies/OTRL#OTRL&#45;6</title>
<ellipse fill="none" stroke="#e377c2" cx="567.46" cy="-503.31" rx="49.49" ry="16.03"/>
<text text-anchor="middle" x="567.46" y="-499.61" font-family="Times,serif" font-size="14.00">OTRL&#45;6</text>
</g>
<!-- http://purl.org/oseg/ontologies/OTRL#OTRL&#45;6&#45;&gt;http://www.w3.org/2002/07/owl#class -->
<g id="edge8" class="edge">
<title>http://purl.org/oseg/ontologies/OTRL#OTRL&#45;6&#45;&gt;http://www.w3.org/2002/07/owl#class</title>
<path fill="none" stroke="black" d="M528.14,-493.36C485.16,-482.5 416.09,-465.03 368.46,-452.99"/>
<polygon fill="black" stroke="black" points="369.19,-449.56 358.64,-450.5 367.47,-456.35 369.19,-449.56"/>
<text text-anchor="middle" x="443.8" y="-461.97" font-family="Times,serif" font-size="14.00">a</text>
</g>
<!-- http://purl.org/oseg/ontologies/OTRL#OTRL&#45;6&#45;&gt;http://purl.org/oseg/ontologies/OTRL#OTRL -->
<g id="edge1" class="edge">
<title>http://purl.org/oseg/ontologies/OTRL#OTRL&#45;6&#45;&gt;http://purl.org/oseg/ontologies/OTRL#OTRL</title>
<path fill="none" stroke="black" d="M566.23,-486.85C563.77,-454 558.24,-380.06 555.27,-340.43"/>
<polygon fill="black" stroke="black" points="558.76,-340.16 554.53,-330.45 551.78,-340.68 558.76,-340.16"/>
</g>
<!-- http://purl.org/oseg/ontologies/OTRL#ODRL&#45;2 -->
<g id="node11" class="node">
<title>http://purl.org/oseg/ontologies/OTRL#ODRL&#45;2</title>
<ellipse fill="none" stroke="#e377c2" cx="106.81" cy="-337.48" rx="50.82" ry="16.03"/>
<text text-anchor="middle" x="106.81" y="-333.78" font-family="Times,serif" font-size="14.00">ODRL&#45;2</text>
</g>
<!-- http://purl.org/oseg/ontologies/OTRL#ODRL&#45;2&#45;&gt;http://www.w3.org/2002/07/owl#class -->
<g id="edge27" class="edge">
<title>http://purl.org/oseg/ontologies/OTRL#ODRL&#45;2&#45;&gt;http://www.w3.org/2002/07/owl#class</title>
<path fill="none" stroke="black" d="M135,-351.26C171.8,-369.26 236.35,-400.82 277.55,-420.97"/>
<polygon fill="black" stroke="black" points="276.2,-424.2 286.72,-425.45 279.28,-417.92 276.2,-424.2"/>
<text text-anchor="middle" x="201.77" y="-389.92" font-family="Times,serif" font-size="14.00">a</text>
</g>
<!-- http://purl.org/oseg/ontologies/OTRL#ODRL&#45;2&#45;&gt;http://purl.org/oseg/ontologies/OTRL#ODRL -->
<g id="edge41" class="edge">
<title>http://purl.org/oseg/ontologies/OTRL#ODRL&#45;2&#45;&gt;http://purl.org/oseg/ontologies/OTRL#ODRL</title>
<path fill="none" stroke="black" d="M111.08,-353.82C119.43,-385.76 137.96,-456.71 148.06,-495.33"/>
<polygon fill="black" stroke="black" points="144.75,-496.52 150.66,-505.31 151.52,-494.75 144.75,-496.52"/>
</g>
<!-- http://purl.org/oseg/ontologies/OTRL#hardwareDescription -->
<g id="node12" class="node">
<title>http://purl.org/oseg/ontologies/OTRL#hardwareDescription</title>
<ellipse fill="none" stroke="#e377c2" cx="867.2" cy="-327.48" rx="118.17" ry="16.03"/>
<text text-anchor="middle" x="867.2" y="-323.78" font-family="Times,serif" font-size="14.00">hardwareDescription</text>
</g>
<!-- http://purl.org/oseg/ontologies/OTRL#hardwareDescription&#45;&gt;http://purl.org/oseg/ontologies/OTRL#OTRL -->
<g id="edge25" class="edge">
<title>http://purl.org/oseg/ontologies/OTRL#hardwareDescription&#45;&gt;http://purl.org/oseg/ontologies/OTRL#OTRL</title>
<path fill="none" stroke="black" d="M754.32,-322.69C702.42,-320.49 643.52,-317.99 602.96,-316.27"/>
<polygon fill="black" stroke="black" points="602.94,-312.77 592.81,-315.84 602.65,-319.76 602.94,-312.77"/>
<text text-anchor="middle" x="652.14" y="-323.28" font-family="Times,serif" font-size="14.00">domain</text>
</g>
<!-- http://purl.org/oseg/ontologies/OTRL#hardwareDescription&#45;&gt;http://www.w3.org/2002/07/owl#DatatypeProperty -->
<g id="edge9" class="edge">
<title>http://purl.org/oseg/ontologies/OTRL#hardwareDescription&#45;&gt;http://www.w3.org/2002/07/owl#DatatypeProperty</title>
<path fill="none" stroke="black" d="M876.29,-311.16C904.68,-260.15 991.93,-103.43 1026.45,-41.42"/>
<polygon fill="black" stroke="black" points="1029.71,-42.75 1031.52,-32.31 1023.59,-39.34 1029.71,-42.75"/>
<text text-anchor="middle" x="946.87" y="-180.09" font-family="Times,serif" font-size="14.00">a</text>
</g>
<!-- http://purl.org/oseg/ontologies/OTRL#hardwareDescription&#45;&gt;http://schema.org/Text -->
<g id="edge46" class="edge">
<title>http://purl.org/oseg/ontologies/OTRL#hardwareDescription&#45;&gt;http://schema.org/Text</title>
<path fill="none" stroke="black" d="M879.73,-311.15C907.69,-274.66 975.35,-186.39 1008.23,-143.5"/>
<polygon fill="black" stroke="black" points="1011.02,-145.62 1014.32,-135.55 1005.46,-141.36 1011.02,-145.62"/>
<text text-anchor="middle" x="922.98" y="-216.12" font-family="Times,serif" font-size="14.00">range</text>
</g>
<!-- http://purl.org/oseg/ontologies/OTRL#documentationDescription -->
<g id="node13" class="node">
<title>http://purl.org/oseg/ontologies/OTRL#documentationDescription</title>
<ellipse fill="none" stroke="#e377c2" cx="844.74" cy="-247.14" rx="120.83" ry="16.03"/>
<text text-anchor="middle" x="844.74" y="-243.44" font-family="Times,serif" font-size="14.00">documentationDesc...</text>
</g>
<!-- http://purl.org/oseg/ontologies/OTRL#documentationDescription&#45;&gt;http://purl.org/oseg/ontologies/OTRL#OTRL -->
<g id="edge4" class="edge">
<title>http://purl.org/oseg/ontologies/OTRL#documentationDescription&#45;&gt;http://purl.org/oseg/ontologies/OTRL#OTRL</title>
<path fill="none" stroke="black" d="M783.64,-261.19C728.06,-273.97 647.32,-292.54 597.68,-303.96"/>
<polygon fill="black" stroke="black" points="596.84,-300.56 587.88,-306.22 598.41,-307.39 596.84,-300.56"/>
<text text-anchor="middle" x="664.16" y="-286.38" font-family="Times,serif" font-size="14.00">domain</text>
</g>
<!-- http://purl.org/oseg/ontologies/OTRL#documentationDescription&#45;&gt;http://www.w3.org/2002/07/owl#DatatypeProperty -->
<g id="edge28" class="edge">
<title>http://purl.org/oseg/ontologies/OTRL#documentationDescription&#45;&gt;http://www.w3.org/2002/07/owl#DatatypeProperty</title>
<path fill="none" stroke="black" d="M858.52,-230.87C892.46,-190.79 980.25,-87.16 1020.28,-39.9"/>
<polygon fill="black" stroke="black" points="1023.16,-41.92 1026.96,-32.03 1017.82,-37.39 1023.16,-41.92"/>
<text text-anchor="middle" x="934.9" y="-139.18" font-family="Times,serif" font-size="14.00">a</text>
</g>
<!-- http://purl.org/oseg/ontologies/OTRL#documentationDescription&#45;&gt;http://schema.org/Text -->
<g id="edge36" class="edge">
<title>http://purl.org/oseg/ontologies/OTRL#documentationDescription&#45;&gt;http://schema.org/Text</title>
<path fill="none" stroke="black" d="M867.79,-230.94C900.39,-208.05 960,-166.19 996.25,-140.74"/>
<polygon fill="black" stroke="black" points="998.32,-143.56 1004.49,-134.95 994.29,-137.83 998.32,-143.56"/>
<text text-anchor="middle" x="911.02" y="-189.64" font-family="Times,serif" font-size="14.00">range</text>
</g>
<!-- http://purl.org/oseg/ontologies/OTRL#OTRL&#45;2 -->
<g id="node14" class="node">
<title>http://purl.org/oseg/ontologies/OTRL#OTRL&#45;2</title>
<ellipse fill="none" stroke="#e377c2" cx="387.6" cy="-287.52" rx="49.49" ry="16.03"/>
<text text-anchor="middle" x="387.6" y="-283.82" font-family="Times,serif" font-size="14.00">OTRL&#45;2</text>
</g>
<!-- http://purl.org/oseg/ontologies/OTRL#OTRL&#45;2&#45;&gt;http://www.w3.org/2002/07/owl#class -->
<g id="edge29" class="edge">
<title>http://purl.org/oseg/ontologies/OTRL#OTRL&#45;2&#45;&gt;http://www.w3.org/2002/07/owl#class</title>
<path fill="none" stroke="black" d="M379.92,-303.8C367.45,-330.23 342.71,-382.65 327.87,-414.09"/>
<polygon fill="black" stroke="black" points="324.53,-412.97 323.43,-423.51 330.87,-415.96 324.53,-412.97"/>
<text text-anchor="middle" x="349.4" y="-362.75" font-family="Times,serif" font-size="14.00">a</text>
</g>
<!-- http://purl.org/oseg/ontologies/OTRL#OTRL&#45;2&#45;&gt;http://purl.org/oseg/ontologies/OTRL#OTRL -->
<g id="edge39" class="edge">
<title>http://purl.org/oseg/ontologies/OTRL#OTRL&#45;2&#45;&gt;http://purl.org/oseg/ontologies/OTRL#OTRL</title>
<path fill="none" stroke="black" d="M432.44,-294.73C455.32,-298.41 483.14,-302.88 506.31,-306.61"/>
<polygon fill="black" stroke="black" points="505.84,-310.08 516.26,-308.21 506.95,-303.17 505.84,-310.08"/>
</g>
<!-- http://purl.org/oseg/ontologies/OTRL#OTRL&#45;8 -->
<g id="node15" class="node">
<title>http://purl.org/oseg/ontologies/OTRL#OTRL&#45;8</title>
<ellipse fill="none" stroke="#e377c2" cx="422.37" cy="-369.1" rx="49.49" ry="16.03"/>
<text text-anchor="middle" x="422.37" y="-365.4" font-family="Times,serif" font-size="14.00">OTRL&#45;8</text>
</g>
<!-- http://purl.org/oseg/ontologies/OTRL#OTRL&#45;8&#45;&gt;http://www.w3.org/2002/07/owl#class -->
<g id="edge31" class="edge">
<title>http://purl.org/oseg/ontologies/OTRL#OTRL&#45;8&#45;&gt;http://www.w3.org/2002/07/owl#class</title>
<path fill="none" stroke="black" d="M400.29,-383.73C384.92,-393.9 364.21,-407.62 347.14,-418.92"/>
<polygon fill="black" stroke="black" points="345,-416.14 338.59,-424.58 348.86,-421.98 345,-416.14"/>
<text text-anchor="middle" x="369.22" y="-405.12" font-family="Times,serif" font-size="14.00">a</text>
</g>
<!-- http://purl.org/oseg/ontologies/OTRL#OTRL&#45;8&#45;&gt;http://purl.org/oseg/ontologies/OTRL#OTRL -->
<g id="edge43" class="edge">
<title>http://purl.org/oseg/ontologies/OTRL#OTRL&#45;8&#45;&gt;http://purl.org/oseg/ontologies/OTRL#OTRL</title>
<path fill="none" stroke="black" d="M453.07,-356.22C471.91,-348.32 496.16,-338.15 516.09,-329.78"/>
<polygon fill="black" stroke="black" points="517.61,-332.94 525.48,-325.84 514.9,-326.49 517.61,-332.94"/>
</g>
<!-- http://purl.org/oseg/ontologies/OTRL#OTRL&#45;7 -->
<g id="node16" class="node">
<title>http://purl.org/oseg/ontologies/OTRL#OTRL&#45;7</title>
<ellipse fill="none" stroke="#e377c2" cx="455.81" cy="-494.22" rx="49.49" ry="16.03"/>
<text text-anchor="middle" x="455.81" y="-490.52" font-family="Times,serif" font-size="14.00">OTRL&#45;7</text>
</g>
<!-- http://purl.org/oseg/ontologies/OTRL#OTRL&#45;7&#45;&gt;http://www.w3.org/2002/07/owl#class -->
<g id="edge32" class="edge">
<title>http://purl.org/oseg/ontologies/OTRL#OTRL&#45;7&#45;&gt;http://www.w3.org/2002/07/owl#class</title>
<path fill="none" stroke="black" d="M423.69,-481.71C404.59,-474.27 380.11,-464.73 359.3,-456.62"/>
<polygon fill="black" stroke="black" points="360.32,-453.26 349.73,-452.89 357.77,-459.78 360.32,-453.26"/>
<text text-anchor="middle" x="387" y="-472.96" font-family="Times,serif" font-size="14.00">a</text>
</g>
<!-- http://purl.org/oseg/ontologies/OTRL#OTRL&#45;7&#45;&gt;http://purl.org/oseg/ontologies/OTRL#OTRL -->
<g id="edge44" class="edge">
<title>http://purl.org/oseg/ontologies/OTRL#OTRL&#45;7&#45;&gt;http://purl.org/oseg/ontologies/OTRL#OTRL</title>
<path fill="none" stroke="black" d="M464.63,-477.93C481.67,-446.46 519.22,-377.13 539.56,-339.56"/>
<polygon fill="black" stroke="black" points="542.89,-340.76 544.58,-330.3 536.74,-337.42 542.89,-340.76"/>
</g>
<!-- http://purl.org/oseg/ontologies/OTRL#OTRL&#45;5 -->
<g id="node17" class="node">
<title>http://purl.org/oseg/ontologies/OTRL#OTRL&#45;5</title>
<ellipse fill="none" stroke="#e377c2" cx="395.94" cy="-201.6" rx="49.49" ry="16.03"/>
<text text-anchor="middle" x="395.94" y="-197.9" font-family="Times,serif" font-size="14.00">OTRL&#45;5</text>
</g>
<!-- http://purl.org/oseg/ontologies/OTRL#OTRL&#45;5&#45;&gt;http://www.w3.org/2002/07/owl#class -->
<g id="edge33" class="edge">
<title>http://purl.org/oseg/ontologies/OTRL#OTRL&#45;5&#45;&gt;http://www.w3.org/2002/07/owl#class</title>
<path fill="none" stroke="black" d="M390.43,-217.96C376.77,-258.56 341.2,-364.21 324.59,-413.56"/>
<polygon fill="black" stroke="black" points="321.22,-412.6 321.35,-423.19 327.86,-414.83 321.22,-412.6"/>
<text text-anchor="middle" x="353.01" y="-319.56" font-family="Times,serif" font-size="14.00">a</text>
</g>
<!-- http://purl.org/oseg/ontologies/OTRL#OTRL&#45;5&#45;&gt;http://purl.org/oseg/ontologies/OTRL#OTRL -->
<g id="edge42" class="edge">
<title>http://purl.org/oseg/ontologies/OTRL#OTRL&#45;5&#45;&gt;http://purl.org/oseg/ontologies/OTRL#OTRL</title>
<path fill="none" stroke="black" d="M416.84,-216.54C444.66,-236.44 493.95,-271.71 525.06,-293.96"/>
<polygon fill="black" stroke="black" points="523.15,-296.9 533.32,-299.87 527.22,-291.2 523.15,-296.9"/>
</g>
<!-- http://purl.org/oseg/ontologies/OTRL#ODRL&#45;1 -->
<g id="node18" class="node">
<title>http://purl.org/oseg/ontologies/OTRL#ODRL&#45;1</title>
<ellipse fill="none" stroke="#e377c2" cx="100.8" cy="-598.88" rx="50.82" ry="16.03"/>
<text text-anchor="middle" x="100.8" y="-595.18" font-family="Times,serif" font-size="14.00">ODRL&#45;1</text>
</g>
<!-- http://purl.org/oseg/ontologies/OTRL#ODRL&#45;1&#45;&gt;http://www.w3.org/2002/07/owl#class -->
<g id="edge34" class="edge">
<title>http://purl.org/oseg/ontologies/OTRL#ODRL&#45;1&#45;&gt;http://www.w3.org/2002/07/owl#class</title>
<path fill="none" stroke="black" d="M121.03,-583.9C159.35,-555.53 242.63,-493.85 286.86,-461.11"/>
<polygon fill="black" stroke="black" points="289.2,-463.72 295.16,-454.96 285.04,-458.1 289.2,-463.72"/>
<text text-anchor="middle" x="208.44" y="-526.3" font-family="Times,serif" font-size="14.00">a</text>
</g>
<!-- http://purl.org/oseg/ontologies/OTRL#ODRL&#45;1&#45;&gt;http://purl.org/oseg/ontologies/OTRL#ODRL -->
<g id="edge37" class="edge">
<title>http://purl.org/oseg/ontologies/OTRL#ODRL&#45;1&#45;&gt;http://purl.org/oseg/ontologies/OTRL#ODRL</title>
<path fill="none" stroke="black" d="M112.01,-582.87C119.54,-572.13 129.59,-557.78 138.07,-545.67"/>
<polygon fill="black" stroke="black" points="141.04,-547.53 143.91,-537.34 135.3,-543.52 141.04,-547.53"/>
</g>
<!-- http://purl.org/oseg/ontologies/OTRL#ODRL&#45;0 -->
<g id="node19" class="node">
<title>http://purl.org/oseg/ontologies/OTRL#ODRL&#45;0</title>
<ellipse fill="none" stroke="#e377c2" cx="162.99" cy="-655.58" rx="50.82" ry="16.03"/>
<text text-anchor="middle" x="162.99" y="-651.88" font-family="Times,serif" font-size="14.00">ODRL&#45;0</text>
</g>
<!-- http://purl.org/oseg/ontologies/OTRL#ODRL&#45;0&#45;&gt;http://www.w3.org/2002/07/owl#class -->
<g id="edge35" class="edge">
<title>http://purl.org/oseg/ontologies/OTRL#ODRL&#45;0&#45;&gt;http://www.w3.org/2002/07/owl#class</title>
<path fill="none" stroke="black" d="M174.23,-639.7C200.66,-602.36 266.9,-508.76 298.51,-464.11"/>
<polygon fill="black" stroke="black" points="301.42,-466.05 304.34,-455.86 295.71,-462.01 301.42,-466.05"/>
<text text-anchor="middle" x="231.87" y="-555.71" font-family="Times,serif" font-size="14.00">a</text>
</g>
<!-- http://purl.org/oseg/ontologies/OTRL#ODRL&#45;0&#45;&gt;http://purl.org/oseg/ontologies/OTRL#ODRL -->
<g id="edge5" class="edge">
<title>http://purl.org/oseg/ontologies/OTRL#ODRL&#45;0&#45;&gt;http://purl.org/oseg/ontologies/OTRL#ODRL</title>
<path fill="none" stroke="black" d="M162,-639.15C160.64,-616.55 158.17,-575.6 156.54,-548.5"/>
<polygon fill="black" stroke="black" points="160.01,-547.94 155.92,-538.17 153.03,-548.36 160.01,-547.94"/>
</g>
<!-- http://purl.org/oseg/ontologies/OTRL#OTRL&#45;3 -->
<g id="node21" class="node">
<title>http://purl.org/oseg/ontologies/OTRL#OTRL&#45;3</title>
<ellipse fill="none" stroke="#e377c2" cx="282.69" cy="-243.4" rx="49.49" ry="16.03"/>
<text text-anchor="middle" x="282.69" y="-239.7" font-family="Times,serif" font-size="14.00">OTRL&#45;3</text>
</g>
<!-- http://purl.org/oseg/ontologies/OTRL#OTRL&#45;3&#45;&gt;http://www.w3.org/2002/07/owl#class -->
<g id="edge12" class="edge">
<title>http://purl.org/oseg/ontologies/OTRL#OTRL&#45;3&#45;&gt;http://www.w3.org/2002/07/owl#class</title>
<path fill="none" stroke="black" d="M285.46,-259.8C291.18,-293.71 304.36,-371.84 311.32,-413.07"/>
<polygon fill="black" stroke="black" points="307.91,-413.91 313.02,-423.18 314.81,-412.74 307.91,-413.91"/>
<text text-anchor="middle" x="293.89" y="-340.24" font-family="Times,serif" font-size="14.00">a</text>
</g>
<!-- http://purl.org/oseg/ontologies/OTRL#OTRL&#45;3&#45;&gt;http://purl.org/oseg/ontologies/OTRL#OTRL -->
<g id="edge19" class="edge">
<title>http://purl.org/oseg/ontologies/OTRL#OTRL&#45;3&#45;&gt;http://purl.org/oseg/ontologies/OTRL#OTRL</title>
<path fill="none" stroke="black" d="M321.46,-253.54C371.34,-266.58 457.72,-289.17 509.79,-302.79"/>
<polygon fill="black" stroke="black" points="509.17,-306.24 519.73,-305.39 510.94,-299.47 509.17,-306.24"/>
</g>
<!-- http://purl.org/oseg/ontologies/OTRL#ODRL&#45;3 -->
<g id="node22" class="node">
<title>http://purl.org/oseg/ontologies/OTRL#ODRL&#45;3</title>
<ellipse fill="none" stroke="#e377c2" cx="50.62" cy="-482.21" rx="50.82" ry="16.03"/>
<text text-anchor="middle" x="50.62" y="-478.51" font-family="Times,serif" font-size="14.00">ODRL&#45;3</text>
</g>
<!-- http://purl.org/oseg/ontologies/OTRL#ODRL&#45;3&#45;&gt;http://www.w3.org/2002/07/owl#class -->
<g id="edge13" class="edge">
<title>http://purl.org/oseg/ontologies/OTRL#ODRL&#45;3&#45;&gt;http://www.w3.org/2002/07/owl#class</title>
<path fill="none" stroke="black" d="M96.21,-474.9C140.31,-467.82 207.41,-457.06 255.82,-449.29"/>
<polygon fill="black" stroke="black" points="256.54,-452.72 265.86,-447.68 255.43,-445.81 256.54,-452.72"/>
<text text-anchor="middle" x="171.52" y="-465.9" font-family="Times,serif" font-size="14.00">a</text>
</g>
<!-- http://purl.org/oseg/ontologies/OTRL#ODRL&#45;3&#45;&gt;http://purl.org/oseg/ontologies/OTRL#ODRL -->
<g id="edge38" class="edge">
<title>http://purl.org/oseg/ontologies/OTRL#ODRL&#45;3&#45;&gt;http://purl.org/oseg/ontologies/OTRL#ODRL</title>
<path fill="none" stroke="black" d="M83.62,-494.68C93.57,-498.43 104.6,-502.6 114.95,-506.51"/>
<polygon fill="black" stroke="black" points="114.02,-509.9 124.61,-510.16 116.5,-503.35 114.02,-509.9"/>
</g>
<!-- http://purl.org/oseg/ontologies/OTRL#ODRL&#45;4 -->
<g id="node23" class="node">
<title>http://purl.org/oseg/ontologies/OTRL#ODRL&#45;4</title>
<ellipse fill="none" stroke="#e377c2" cx="273.87" cy="-665.6" rx="50.82" ry="16.03"/>
<text text-anchor="middle" x="273.87" y="-661.9" font-family="Times,serif" font-size="14.00">ODRL&#45;4</text>
</g>
<!-- http://purl.org/oseg/ontologies/OTRL#ODRL&#45;4&#45;&gt;http://www.w3.org/2002/07/owl#class -->
<g id="edge40" class="edge">
<title>http://purl.org/oseg/ontologies/OTRL#ODRL&#45;4&#45;&gt;http://www.w3.org/2002/07/owl#class</title>
<path fill="none" stroke="black" d="M276.89,-649.35C284.05,-610.77 302.13,-513.36 310.89,-466.15"/>
<polygon fill="black" stroke="black" points="314.38,-466.55 312.76,-456.08 307.49,-465.27 314.38,-466.55"/>
<text text-anchor="middle" x="289.39" y="-561.55" font-family="Times,serif" font-size="14.00">a</text>
</g>
<!-- http://purl.org/oseg/ontologies/OTRL#ODRL&#45;4&#45;&gt;http://purl.org/oseg/ontologies/OTRL#ODRL -->
<g id="edge17" class="edge">
<title>http://purl.org/oseg/ontologies/OTRL#ODRL&#45;4&#45;&gt;http://purl.org/oseg/ontologies/OTRL#ODRL</title>
<path fill="none" stroke="black" d="M260.69,-649.64C239.68,-624.21 198.5,-574.36 174.18,-544.93"/>
<polygon fill="black" stroke="black" points="176.87,-542.68 167.8,-537.2 171.47,-547.14 176.87,-542.68"/>
</g>
<!-- http://purl.org/oseg/ontologies/OTRL#ODRL&#45;5 -->
<g id="node24" class="node">
<title>http://purl.org/oseg/ontologies/OTRL#ODRL&#45;5</title>
<ellipse fill="none" stroke="#e377c2" cx="61.55" cy="-397.84" rx="50.82" ry="16.03"/>
<text text-anchor="middle" x="61.55" y="-394.14" font-family="Times,serif" font-size="14.00">ODRL&#45;5</text>
</g>
<!-- http://purl.org/oseg/ontologies/OTRL#ODRL&#45;5&#45;&gt;http://www.w3.org/2002/07/owl#class -->
<g id="edge16" class="edge">
<title>http://purl.org/oseg/ontologies/OTRL#ODRL&#45;5&#45;&gt;http://www.w3.org/2002/07/owl#class</title>
<path fill="none" stroke="black" d="M107.01,-405.32C148.57,-412.16 210.33,-422.32 255.91,-429.82"/>
<polygon fill="black" stroke="black" points="255.52,-433.3 265.96,-431.47 256.66,-426.39 255.52,-433.3"/>
<text text-anchor="middle" x="176.96" y="-421.37" font-family="Times,serif" font-size="14.00">a</text>
</g>
<!-- http://purl.org/oseg/ontologies/OTRL#ODRL&#45;5&#45;&gt;http://purl.org/oseg/ontologies/OTRL#ODRL -->
<g id="edge18" class="edge">
<title>http://purl.org/oseg/ontologies/OTRL#ODRL&#45;5&#45;&gt;http://purl.org/oseg/ontologies/OTRL#ODRL</title>
<path fill="none" stroke="black" d="M73.57,-413.77C89.61,-435.03 118.15,-472.86 136.8,-497.59"/>
<polygon fill="black" stroke="black" points="134.14,-499.87 142.95,-505.74 139.72,-495.65 134.14,-499.87"/>
</g>
<!-- http://purl.org/oseg/ontologies/OTRL#OTRL&#45;9 -->
<g id="node25" class="node">
<title>http://purl.org/oseg/ontologies/OTRL#OTRL&#45;9</title>
<ellipse fill="none" stroke="#e377c2" cx="537.17" cy="-440.94" rx="49.49" ry="16.03"/>
<text text-anchor="middle" x="537.17" y="-437.24" font-family="Times,serif" font-size="14.00">OTRL&#45;9</text>
</g>
<!-- http://purl.org/oseg/ontologies/OTRL#OTRL&#45;9&#45;&gt;http://www.w3.org/2002/07/owl#class -->
<g id="edge45" class="edge">
<title>http://purl.org/oseg/ontologies/OTRL#OTRL&#45;9&#45;&gt;http://www.w3.org/2002/07/owl#class</title>
<path fill="none" stroke="black" d="M487.49,-440.66C456.76,-440.48 416.91,-440.25 383.34,-440.06"/>
<polygon fill="black" stroke="black" points="383.16,-436.56 373.14,-440 383.12,-443.56 383.16,-436.56"/>
<text text-anchor="middle" x="430.92" y="-444.16" font-family="Times,serif" font-size="14.00">a</text>
</g>
<!-- http://purl.org/oseg/ontologies/OTRL#OTRL&#45;9&#45;&gt;http://purl.org/oseg/ontologies/OTRL#OTRL -->
<g id="edge10" class="edge">
<title>http://purl.org/oseg/ontologies/OTRL#OTRL&#45;9&#45;&gt;http://purl.org/oseg/ontologies/OTRL#OTRL</title>
<path fill="none" stroke="black" d="M539.25,-424.63C541.96,-403.33 546.74,-365.78 549.96,-340.45"/>
<polygon fill="black" stroke="black" points="553.45,-340.78 551.24,-330.42 546.51,-339.9 553.45,-340.78"/>
</g>
<!-- http://purl.org/oseg/ontologies/OTRL#softwareDescription -->
<g id="node26" class="node">
<title>http://purl.org/oseg/ontologies/OTRL#softwareDescription</title>
<ellipse fill="none" stroke="#e377c2" cx="744.02" cy="-69.75" rx="113.69" ry="16.03"/>
<text text-anchor="middle" x="744.02" y="-66.05" font-family="Times,serif" font-size="14.00">softwareDescription</text>
</g>
<!-- http://purl.org/oseg/ontologies/OTRL#softwareDescription&#45;&gt;http://purl.org/oseg/ontologies/OTRL#OTRL -->
<g id="edge14" class="edge">
<title>http://purl.org/oseg/ontologies/OTRL#softwareDescription&#45;&gt;http://purl.org/oseg/ontologies/OTRL#OTRL</title>
<path fill="none" stroke="black" d="M731.21,-86.17C698.21,-128.46 610.19,-241.27 571.72,-290.57"/>
<polygon fill="black" stroke="black" points="568.96,-288.42 565.57,-298.46 574.48,-292.73 568.96,-288.42"/>
<text text-anchor="middle" x="624.97" y="-192.17" font-family="Times,serif" font-size="14.00">domain</text>
</g>
<!-- http://purl.org/oseg/ontologies/OTRL#softwareDescription&#45;&gt;http://www.w3.org/2002/07/owl#DatatypeProperty -->
<g id="edge22" class="edge">
<title>http://purl.org/oseg/ontologies/OTRL#softwareDescription&#45;&gt;http://www.w3.org/2002/07/owl#DatatypeProperty</title>
<path fill="none" stroke="black" d="M814.33,-56.96C857.51,-49.11 913.01,-39.01 958.25,-30.78"/>
<polygon fill="black" stroke="black" points="959.12,-34.18 968.33,-28.94 957.87,-27.29 959.12,-34.18"/>
<text text-anchor="middle" x="881.79" y="-47.67" font-family="Times,serif" font-size="14.00">a</text>
</g>
<!-- http://purl.org/oseg/ontologies/OTRL#softwareDescription&#45;&gt;http://schema.org/Text -->
<g id="edge15" class="edge">
<title>http://purl.org/oseg/ontologies/OTRL#softwareDescription&#45;&gt;http://schema.org/Text</title>
<path fill="none" stroke="black" d="M816.1,-82.38C859.73,-90.03 915.06,-99.72 958.06,-107.25"/>
<polygon fill="black" stroke="black" points="957.7,-110.74 968.16,-109.02 958.91,-103.85 957.7,-110.74"/>
<text text-anchor="middle" x="866.08" y="-98.62" font-family="Times,serif" font-size="14.00">range</text>
</g>
</g>
</svg>
