<?xml version="1.0" encoding="UTF-8" standalone="no"?>
<!DOCTYPE svg PUBLIC "-//W3C//DTD SVG 1.1//EN"
 "http://www.w3.org/Graphics/SVG/1.1/DTD/svg11.dtd">
<!-- Generated by graphviz version 2.43.0 (0)
 -->
<!-- Title: G Pages: 1 -->
<svg width="847pt" height="443pt"
 viewBox="0.00 0.00 846.76 443.00" xmlns="http://www.w3.org/2000/svg" xmlns:xlink="http://www.w3.org/1999/xlink">
<g id="graph0" class="graph" transform="scale(1 1) rotate(0) translate(4 439)">
<title>G</title>
<polygon fill="white" stroke="transparent" points="-4,4 -4,-439 842.76,-439 842.76,4 -4,4"/>
<!-- http://purl.org/oseg/ontologies/OTRL#OTRL -->
<g id="node1" class="node">
<title>http://purl.org/oseg/ontologies/OTRL#OTRL</title>
<ellipse fill="none" stroke="#e377c2" cx="355.51" cy="-153.25" rx="39.7" ry="16.03"/>
<text text-anchor="middle" x="355.51" y="-149.55" font-family="Times,serif" font-size="14.00">OTRL</text>
</g>
<!-- http://www.w3.org/2002/07/owl#class -->
<g id="node3" class="node">
<title>http://www.w3.org/2002/07/owl#class</title>
<ellipse fill="none" stroke="#1f77b4" cx="242.22" cy="-185.44" rx="57.05" ry="16.03"/>
<text text-anchor="middle" x="242.22" y="-181.74" font-family="Times,serif" font-size="14.00">owl:class</text>
</g>
<!-- http://purl.org/oseg/ontologies/OTRL#OTRL&#45;&gt;http://www.w3.org/2002/07/owl#class -->
<g id="edge17" class="edge">
<title>http://purl.org/oseg/ontologies/OTRL#OTRL&#45;&gt;http://www.w3.org/2002/07/owl#class</title>
<path fill="none" stroke="black" d="M322.74,-162.56C313.33,-165.24 302.85,-168.21 292.63,-171.12"/>
<polygon fill="black" stroke="black" points="291.63,-167.76 282.97,-173.86 293.55,-174.5 291.63,-167.76"/>
<text text-anchor="middle" x="303.19" y="-155.64" font-family="Times,serif" font-size="14.00">a</text>
</g>
<!-- http://www.w3.org/2002/07/owl#DatatypeProperty -->
<g id="node2" class="node">
<title>http://www.w3.org/2002/07/owl#DatatypeProperty</title>
<ellipse fill="none" stroke="#1f77b4" cx="482.9" cy="-372.96" rx="123.07" ry="16.03"/>
<text text-anchor="middle" x="482.9" y="-369.26" font-family="Times,serif" font-size="14.00">owl:DatatypeProperty</text>
</g>
<!-- http://www.w3.org/2002/07/owl#Ontology -->
<g id="node4" class="node">
<title>http://www.w3.org/2002/07/owl#Ontology</title>
<ellipse fill="none" stroke="#1f77b4" cx="509.32" cy="-38.47" rx="77.56" ry="16.03"/>
<text text-anchor="middle" x="509.32" y="-34.77" font-family="Times,serif" font-size="14.00">owl:Ontology</text>
</g>
<!-- http://purl.org/oseg/ontologies/OTRL#ODRL -->
<g id="node5" class="node">
<title>http://purl.org/oseg/ontologies/OTRL#ODRL</title>
<ellipse fill="none" stroke="#e377c2" cx="134.84" cy="-219.64" rx="41.94" ry="16.03"/>
<text text-anchor="middle" x="134.84" y="-215.94" font-family="Times,serif" font-size="14.00">ODRL</text>
</g>
<!-- http://www.w3.org/1999/02/22&#45;rdf&#45;syntax&#45;ns#nil -->
<g id="node6" class="node">
<title>http://www.w3.org/1999/02/22&#45;rdf&#45;syntax&#45;ns#nil</title>
<ellipse fill="none" stroke="#e377c2" cx="90.24" cy="-400.64" rx="42.35" ry="16.03"/>
<text text-anchor="middle" x="90.24" y="-396.94" font-family="Times,serif" font-size="14.00">rdf:nil</text>
</g>
<!-- http://schema.org/Text -->
<g id="node7" class="node">
<title>http://schema.org/Text</title>
<ellipse fill="none" stroke="#e377c2" cx="687.4" cy="-328.71" rx="74.91" ry="16.03"/>
<text text-anchor="middle" x="687.4" y="-325.01" font-family="Times,serif" font-size="14.00">schema:Text</text>
</g>
<!-- http://purl.org/oseg/ontologies/OTRL#Odrl4 -->
<g id="node8" class="node">
<title>http://purl.org/oseg/ontologies/OTRL#Odrl4</title>
<ellipse fill="none" stroke="#e377c2" cx="40.03" cy="-234.96" rx="40.11" ry="16.03"/>
<text text-anchor="middle" x="40.03" y="-231.26" font-family="Times,serif" font-size="14.00">Odrl4</text>
</g>
<!-- http://purl.org/oseg/ontologies/OTRL#Odrl4&#45;&gt;http://www.w3.org/2002/07/owl#class -->
<g id="edge11" class="edge">
<title>http://purl.org/oseg/ontologies/OTRL#Odrl4&#45;&gt;http://www.w3.org/2002/07/owl#class</title>
<path fill="none" stroke="black" d="M74.79,-226.45C106.16,-218.77 152.8,-207.34 188.89,-198.51"/>
<polygon fill="black" stroke="black" points="189.88,-201.86 198.76,-196.09 188.22,-195.07 189.88,-201.86"/>
<text text-anchor="middle" x="127.34" y="-201.28" font-family="Times,serif" font-size="14.00">a</text>
</g>
<!-- http://purl.org/oseg/ontologies/OTRL#Odrl4&#45;&gt;http://purl.org/oseg/ontologies/OTRL#ODRL -->
<g id="edge10" class="edge">
<title>http://purl.org/oseg/ontologies/OTRL#Odrl4&#45;&gt;http://purl.org/oseg/ontologies/OTRL#ODRL</title>
<path fill="none" stroke="black" d="M77.5,-228.91C80.36,-228.44 83.28,-227.97 86.19,-227.5"/>
<polygon fill="black" stroke="black" points="86.77,-230.95 96.08,-225.9 85.65,-224.04 86.77,-230.95"/>
</g>
<!-- http://purl.org/oseg/ontologies/OTRL#Otrl5 -->
<g id="node9" class="node">
<title>http://purl.org/oseg/ontologies/OTRL#Otrl5</title>
<ellipse fill="none" stroke="#e377c2" cx="345.1" cy="-308.53" rx="38.37" ry="16.03"/>
<text text-anchor="middle" x="345.1" y="-304.83" font-family="Times,serif" font-size="14.00">Otrl5</text>
</g>
<!-- http://purl.org/oseg/ontologies/OTRL#Otrl5&#45;&gt;http://purl.org/oseg/ontologies/OTRL#OTRL -->
<g id="edge1" class="edge">
<title>http://purl.org/oseg/ontologies/OTRL#Otrl5&#45;&gt;http://purl.org/oseg/ontologies/OTRL#OTRL</title>
<path fill="none" stroke="black" d="M346.2,-292.2C347.99,-265.48 351.56,-212.15 353.73,-179.89"/>
<polygon fill="black" stroke="black" points="357.22,-180.03 354.4,-169.82 350.24,-179.57 357.22,-180.03"/>
</g>
<!-- http://purl.org/oseg/ontologies/OTRL#Otrl5&#45;&gt;http://www.w3.org/2002/07/owl#class -->
<g id="edge13" class="edge">
<title>http://purl.org/oseg/ontologies/OTRL#Otrl5&#45;&gt;http://www.w3.org/2002/07/owl#class</title>
<path fill="none" stroke="black" d="M332.28,-293.19C314.66,-272.11 282.81,-234 262.09,-209.22"/>
<polygon fill="black" stroke="black" points="264.63,-206.79 255.53,-201.37 259.25,-211.28 264.63,-206.79"/>
<text text-anchor="middle" x="292.68" y="-255" font-family="Times,serif" font-size="14.00">a</text>
</g>
<!-- http://purl.org/oseg/ontologies/OTRL#Odrl -->
<g id="node10" class="node">
<title>http://purl.org/oseg/ontologies/OTRL#Odrl</title>
<ellipse fill="none" stroke="#e377c2" cx="103.03" cy="-310.02" rx="33.88" ry="16.03"/>
<text text-anchor="middle" x="103.03" y="-306.32" font-family="Times,serif" font-size="14.00">Odrl</text>
</g>
<!-- http://purl.org/oseg/ontologies/OTRL#Odrl&#45;&gt;http://www.w3.org/2002/07/owl#class -->
<g id="edge20" class="edge">
<title>http://purl.org/oseg/ontologies/OTRL#Odrl&#45;&gt;http://www.w3.org/2002/07/owl#class</title>
<path fill="none" stroke="black" d="M119.27,-295.49C143.39,-273.9 188.89,-233.18 217.26,-207.78"/>
<polygon fill="black" stroke="black" points="219.66,-210.33 224.77,-201.06 214.99,-205.12 219.66,-210.33"/>
<text text-anchor="middle" x="163.76" y="-255.44" font-family="Times,serif" font-size="14.00">a</text>
</g>
<!-- http://purl.org/oseg/ontologies/OTRL#Odrl3Star -->
<g id="node11" class="node">
<title>http://purl.org/oseg/ontologies/OTRL#Odrl3Star</title>
<ellipse fill="none" stroke="#e377c2" cx="106.25" cy="-55.84" rx="62.45" ry="16.03"/>
<text text-anchor="middle" x="106.25" y="-52.14" font-family="Times,serif" font-size="14.00">Odrl3Star</text>
</g>
<!-- http://purl.org/oseg/ontologies/OTRL#Odrl3Star&#45;&gt;http://www.w3.org/2002/07/owl#class -->
<g id="edge16" class="edge">
<title>http://purl.org/oseg/ontologies/OTRL#Odrl3Star&#45;&gt;http://www.w3.org/2002/07/owl#class</title>
<path fill="none" stroke="black" d="M122.93,-71.73C146.8,-94.49 190.88,-136.5 218.25,-162.6"/>
<polygon fill="black" stroke="black" points="216.18,-165.46 225.83,-169.83 221.01,-160.39 216.18,-165.46"/>
<text text-anchor="middle" x="166.09" y="-120.96" font-family="Times,serif" font-size="14.00">a</text>
</g>
<!-- http://purl.org/oseg/ontologies/OTRL#Odrl3Star&#45;&gt;http://purl.org/oseg/ontologies/OTRL#ODRL -->
<g id="edge14" class="edge">
<title>http://purl.org/oseg/ontologies/OTRL#Odrl3Star&#45;&gt;http://purl.org/oseg/ontologies/OTRL#ODRL</title>
<path fill="none" stroke="black" d="M109.1,-72.14C114.04,-100.47 124.26,-159.03 130.23,-193.22"/>
<polygon fill="black" stroke="black" points="126.84,-194.15 132,-203.4 133.73,-192.95 126.84,-194.15"/>
</g>
<!-- http://purl.org/oseg/ontologies/OTRL -->
<g id="node12" class="node">
<title>http://purl.org/oseg/ontologies/OTRL</title>
<ellipse fill="none" stroke="#e377c2" cx="656.95" cy="-16.42" rx="60.62" ry="16.03"/>
<text text-anchor="middle" x="656.95" y="-12.72" font-family="Times,serif" font-size="14.00">ns1:OTRL</text>
</g>
<!-- http://purl.org/oseg/ontologies/OTRL&#45;&gt;http://www.w3.org/2002/07/owl#Ontology -->
<g id="edge4" class="edge">
<title>http://purl.org/oseg/ontologies/OTRL&#45;&gt;http://www.w3.org/2002/07/owl#Ontology</title>
<path fill="none" stroke="black" d="M603.65,-24.38C596.94,-25.38 589.98,-26.42 583.02,-27.46"/>
<polygon fill="black" stroke="black" points="582.22,-24.04 572.85,-28.98 583.26,-30.96 582.22,-24.04"/>
<text text-anchor="middle" x="591.08" y="-14.72" font-family="Times,serif" font-size="14.00">a</text>
</g>
<!-- http://purl.org/oseg/ontologies/OTRL&#45;&gt;http://purl.org/oseg/ontologies/OTRL -->
<g id="edge2" class="edge">
<title>http://purl.org/oseg/ontologies/OTRL&#45;&gt;http://purl.org/oseg/ontologies/OTRL</title>
<path fill="none" stroke="black" d="M712.55,-23.05C725.89,-22.53 735.76,-20.32 735.76,-16.42 735.76,-13.58 730.55,-11.64 722.58,-10.59"/>
<polygon fill="black" stroke="black" points="722.8,-7.1 712.55,-9.78 722.24,-14.07 722.8,-7.1"/>
<text text-anchor="middle" x="787.26" y="-12.72" font-family="Times,serif" font-size="14.00">owl:versionIRI</text>
</g>
<!-- http://purl.org/oseg/ontologies/OTRL#Otrl4 -->
<g id="node13" class="node">
<title>http://purl.org/oseg/ontologies/OTRL#Otrl4</title>
<ellipse fill="none" stroke="#e377c2" cx="431.04" cy="-198.77" rx="38.37" ry="16.03"/>
<text text-anchor="middle" x="431.04" y="-195.07" font-family="Times,serif" font-size="14.00">Otrl4</text>
</g>
<!-- http://purl.org/oseg/ontologies/OTRL#Otrl4&#45;&gt;http://purl.org/oseg/ontologies/OTRL#OTRL -->
<g id="edge15" class="edge">
<title>http://purl.org/oseg/ontologies/OTRL#Otrl4&#45;&gt;http://purl.org/oseg/ontologies/OTRL#OTRL</title>
<path fill="none" stroke="black" d="M408.79,-185.36C401.94,-181.23 394.26,-176.6 386.91,-172.17"/>
<polygon fill="black" stroke="black" points="388.24,-168.89 377.87,-166.72 384.62,-174.88 388.24,-168.89"/>
</g>
<!-- http://purl.org/oseg/ontologies/OTRL#Otrl4&#45;&gt;http://www.w3.org/2002/07/owl#class -->
<g id="edge3" class="edge">
<title>http://purl.org/oseg/ontologies/OTRL#Otrl4&#45;&gt;http://www.w3.org/2002/07/owl#class</title>
<path fill="none" stroke="black" d="M393.28,-196.11C368.94,-194.39 336.61,-192.11 308.12,-190.1"/>
<polygon fill="black" stroke="black" points="308.03,-186.58 297.81,-189.37 307.54,-193.56 308.03,-186.58"/>
<text text-anchor="middle" x="346.2" y="-196.9" font-family="Times,serif" font-size="14.00">a</text>
</g>
<!-- http://purl.org/oseg/ontologies/OTRL#Otrl -->
<g id="node14" class="node">
<title>http://purl.org/oseg/ontologies/OTRL#Otrl</title>
<ellipse fill="none" stroke="#e377c2" cx="296.24" cy="-376.64" rx="31.64" ry="16.03"/>
<text text-anchor="middle" x="296.24" y="-372.94" font-family="Times,serif" font-size="14.00">Otrl</text>
</g>
<!-- http://purl.org/oseg/ontologies/OTRL#Otrl6 -->
<g id="node15" class="node">
<title>http://purl.org/oseg/ontologies/OTRL#Otrl6</title>
<ellipse fill="none" stroke="#e377c2" cx="250.03" cy="-42.76" rx="38.37" ry="16.03"/>
<text text-anchor="middle" x="250.03" y="-39.06" font-family="Times,serif" font-size="14.00">Otrl6</text>
</g>
<!-- http://purl.org/oseg/ontologies/OTRL#Otrl6&#45;&gt;http://purl.org/oseg/ontologies/OTRL#OTRL -->
<g id="edge28" class="edge">
<title>http://purl.org/oseg/ontologies/OTRL#Otrl6&#45;&gt;http://purl.org/oseg/ontologies/OTRL#OTRL</title>
<path fill="none" stroke="black" d="M264.7,-58.12C282.65,-76.92 313.19,-108.92 333.85,-130.56"/>
<polygon fill="black" stroke="black" points="331.53,-133.2 340.97,-138.02 336.6,-128.37 331.53,-133.2"/>
</g>
<!-- http://purl.org/oseg/ontologies/OTRL#Otrl6&#45;&gt;http://www.w3.org/2002/07/owl#class -->
<g id="edge18" class="edge">
<title>http://purl.org/oseg/ontologies/OTRL#Otrl6&#45;&gt;http://www.w3.org/2002/07/owl#class</title>
<path fill="none" stroke="black" d="M249.13,-59.13C247.8,-83.4 245.3,-129.23 243.69,-158.5"/>
<polygon fill="black" stroke="black" points="240.18,-158.65 243.13,-168.83 247.17,-159.03 240.18,-158.65"/>
<text text-anchor="middle" x="241.91" y="-112.61" font-family="Times,serif" font-size="14.00">a</text>
</g>
<!-- http://purl.org/oseg/ontologies/OTRL#Otrl2 -->
<g id="node16" class="node">
<title>http://purl.org/oseg/ontologies/OTRL#Otrl2</title>
<ellipse fill="none" stroke="#e377c2" cx="346.09" cy="-39.82" rx="38.37" ry="16.03"/>
<text text-anchor="middle" x="346.09" y="-36.12" font-family="Times,serif" font-size="14.00">Otrl2</text>
</g>
<!-- http://purl.org/oseg/ontologies/OTRL#Otrl2&#45;&gt;http://purl.org/oseg/ontologies/OTRL#OTRL -->
<g id="edge29" class="edge">
<title>http://purl.org/oseg/ontologies/OTRL#Otrl2&#45;&gt;http://purl.org/oseg/ontologies/OTRL#OTRL</title>
<path fill="none" stroke="black" d="M347.48,-56.55C349.01,-75.01 351.5,-104.94 353.3,-126.63"/>
<polygon fill="black" stroke="black" points="349.83,-127.14 354.15,-136.81 356.81,-126.56 349.83,-127.14"/>
</g>
<!-- http://purl.org/oseg/ontologies/OTRL#Otrl2&#45;&gt;http://www.w3.org/2002/07/owl#class -->
<g id="edge5" class="edge">
<title>http://purl.org/oseg/ontologies/OTRL#Otrl2&#45;&gt;http://www.w3.org/2002/07/owl#class</title>
<path fill="none" stroke="black" d="M334.97,-55.4C316.96,-80.64 281.28,-130.68 259.8,-160.79"/>
<polygon fill="black" stroke="black" points="256.84,-158.91 253.89,-169.08 262.54,-162.97 256.84,-158.91"/>
<text text-anchor="middle" x="292.88" y="-111.9" font-family="Times,serif" font-size="14.00">a</text>
</g>
<!-- http://purl.org/oseg/ontologies/OTRL#Otrl3 -->
<g id="node17" class="node">
<title>http://purl.org/oseg/ontologies/OTRL#Otrl3</title>
<ellipse fill="none" stroke="#e377c2" cx="397.45" cy="-93.26" rx="38.37" ry="16.03"/>
<text text-anchor="middle" x="397.45" y="-89.56" font-family="Times,serif" font-size="14.00">Otrl3</text>
</g>
<!-- http://purl.org/oseg/ontologies/OTRL#Otrl3&#45;&gt;http://purl.org/oseg/ontologies/OTRL#OTRL -->
<g id="edge30" class="edge">
<title>http://purl.org/oseg/ontologies/OTRL#Otrl3&#45;&gt;http://purl.org/oseg/ontologies/OTRL#OTRL</title>
<path fill="none" stroke="black" d="M386.43,-109.02C382.13,-115.17 377.11,-122.36 372.37,-129.14"/>
<polygon fill="black" stroke="black" points="369.46,-127.18 366.6,-137.39 375.2,-131.2 369.46,-127.18"/>
</g>
<!-- http://purl.org/oseg/ontologies/OTRL#Otrl3&#45;&gt;http://www.w3.org/2002/07/owl#class -->
<g id="edge21" class="edge">
<title>http://purl.org/oseg/ontologies/OTRL#Otrl3&#45;&gt;http://www.w3.org/2002/07/owl#class</title>
<path fill="none" stroke="black" d="M374.88,-106.66C348.89,-122.1 305.95,-147.6 275.98,-165.39"/>
<polygon fill="black" stroke="black" points="273.94,-162.53 267.13,-170.65 277.52,-168.55 273.94,-162.53"/>
<text text-anchor="middle" x="320.93" y="-124.83" font-family="Times,serif" font-size="14.00">a</text>
</g>
<!-- http://purl.org/oseg/ontologies/OTRL#Odrl2 -->
<g id="node18" class="node">
<title>http://purl.org/oseg/ontologies/OTRL#Odrl2</title>
<ellipse fill="none" stroke="#e377c2" cx="77.55" cy="-125.28" rx="40.11" ry="16.03"/>
<text text-anchor="middle" x="77.55" y="-121.58" font-family="Times,serif" font-size="14.00">Odrl2</text>
</g>
<!-- http://purl.org/oseg/ontologies/OTRL#Odrl2&#45;&gt;http://www.w3.org/2002/07/owl#class -->
<g id="edge24" class="edge">
<title>http://purl.org/oseg/ontologies/OTRL#Odrl2&#45;&gt;http://www.w3.org/2002/07/owl#class</title>
<path fill="none" stroke="black" d="M107.75,-136.32C132.83,-145.48 168.88,-158.65 197.34,-169.05"/>
<polygon fill="black" stroke="black" points="196.47,-172.46 207.06,-172.6 198.87,-165.88 196.47,-172.46"/>
<text text-anchor="middle" x="148.05" y="-156.48" font-family="Times,serif" font-size="14.00">a</text>
</g>
<!-- http://purl.org/oseg/ontologies/OTRL#Odrl2&#45;&gt;http://purl.org/oseg/ontologies/OTRL#ODRL -->
<g id="edge22" class="edge">
<title>http://purl.org/oseg/ontologies/OTRL#Odrl2&#45;&gt;http://purl.org/oseg/ontologies/OTRL#ODRL</title>
<path fill="none" stroke="black" d="M87.27,-141.29C96.15,-155.93 109.44,-177.82 119.72,-194.74"/>
<polygon fill="black" stroke="black" points="116.89,-196.82 125.07,-203.55 122.87,-193.19 116.89,-196.82"/>
</g>
<!-- http://purl.org/oseg/ontologies/OTRL#Odrl1 -->
<g id="node19" class="node">
<title>http://purl.org/oseg/ontologies/OTRL#Odrl1</title>
<ellipse fill="none" stroke="#e377c2" cx="236.9" cy="-236.65" rx="40.11" ry="16.03"/>
<text text-anchor="middle" x="236.9" y="-232.95" font-family="Times,serif" font-size="14.00">Odrl1</text>
</g>
<!-- http://purl.org/oseg/ontologies/OTRL#Odrl1&#45;&gt;http://www.w3.org/2002/07/owl#class -->
<g id="edge25" class="edge">
<title>http://purl.org/oseg/ontologies/OTRL#Odrl1&#45;&gt;http://www.w3.org/2002/07/owl#class</title>
<path fill="none" stroke="black" d="M238.61,-220.17C238.88,-217.52 239.18,-214.72 239.47,-211.91"/>
<polygon fill="black" stroke="black" points="242.95,-212.21 240.51,-201.9 235.99,-211.48 242.95,-212.21"/>
<text text-anchor="middle" x="234.54" y="-204.84" font-family="Times,serif" font-size="14.00">a</text>
</g>
<!-- http://purl.org/oseg/ontologies/OTRL#Odrl1&#45;&gt;http://purl.org/oseg/ontologies/OTRL#ODRL -->
<g id="edge23" class="edge">
<title>http://purl.org/oseg/ontologies/OTRL#Odrl1&#45;&gt;http://purl.org/oseg/ontologies/OTRL#ODRL</title>
<path fill="none" stroke="black" d="M199.47,-230.41C194.27,-229.55 188.87,-228.65 183.5,-227.75"/>
<polygon fill="black" stroke="black" points="183.72,-224.24 173.28,-226.05 182.57,-231.15 183.72,-224.24"/>
</g>
<!-- http://purl.org/oseg/ontologies/OTRL#goal -->
<g id="node20" class="node">
<title>http://purl.org/oseg/ontologies/OTRL#goal</title>
<ellipse fill="none" stroke="#e377c2" cx="507.52" cy="-332.31" rx="33.47" ry="16.03"/>
<text text-anchor="middle" x="507.52" y="-328.61" font-family="Times,serif" font-size="14.00">goal</text>
</g>
<!-- http://purl.org/oseg/ontologies/OTRL#goal&#45;&gt;http://www.w3.org/2002/07/owl#DatatypeProperty -->
<g id="edge7" class="edge">
<title>http://purl.org/oseg/ontologies/OTRL#goal&#45;&gt;http://www.w3.org/2002/07/owl#DatatypeProperty</title>
<path fill="none" stroke="black" d="M498.07,-347.91C498.02,-348 497.96,-348.09 497.91,-348.18"/>
<polygon fill="black" stroke="black" points="494.96,-346.29 492.77,-356.66 500.94,-349.92 494.96,-346.29"/>
<text text-anchor="middle" x="493.49" y="-351.85" font-family="Times,serif" font-size="14.00">a</text>
</g>
<!-- http://purl.org/oseg/ontologies/OTRL#goal&#45;&gt;http://schema.org/Text -->
<g id="edge12" class="edge">
<title>http://purl.org/oseg/ontologies/OTRL#goal&#45;&gt;http://schema.org/Text</title>
<path fill="none" stroke="black" d="M540.93,-331.64C558.3,-331.3 580.39,-330.85 602.12,-330.42"/>
<polygon fill="black" stroke="black" points="602.47,-333.91 612.4,-330.21 602.33,-326.92 602.47,-333.91"/>
<text text-anchor="middle" x="582.03" y="-319.83" font-family="Times,serif" font-size="14.00">range</text>
</g>
<!-- http://purl.org/oseg/ontologies/OTRL#Otrl1 -->
<g id="node21" class="node">
<title>http://purl.org/oseg/ontologies/OTRL#Otrl1</title>
<ellipse fill="none" stroke="#e377c2" cx="410.26" cy="-262.76" rx="38.37" ry="16.03"/>
<text text-anchor="middle" x="410.26" y="-259.06" font-family="Times,serif" font-size="14.00">Otrl1</text>
</g>
<!-- http://purl.org/oseg/ontologies/OTRL#Otrl1&#45;&gt;http://purl.org/oseg/ontologies/OTRL#OTRL -->
<g id="edge6" class="edge">
<title>http://purl.org/oseg/ontologies/OTRL#Otrl1&#45;&gt;http://purl.org/oseg/ontologies/OTRL#OTRL</title>
<path fill="none" stroke="black" d="M402.19,-246.6C393.21,-228.64 378.6,-199.42 368.11,-178.46"/>
<polygon fill="black" stroke="black" points="371.23,-176.85 363.62,-169.47 364.97,-179.98 371.23,-176.85"/>
</g>
<!-- http://purl.org/oseg/ontologies/OTRL#Otrl1&#45;&gt;http://www.w3.org/2002/07/owl#class -->
<g id="edge26" class="edge">
<title>http://purl.org/oseg/ontologies/OTRL#Otrl1&#45;&gt;http://www.w3.org/2002/07/owl#class</title>
<path fill="none" stroke="black" d="M384.01,-250.68C356.65,-238.09 313.46,-218.22 281.93,-203.72"/>
<polygon fill="black" stroke="black" points="283.1,-200.4 272.55,-199.4 280.17,-206.76 283.1,-200.4"/>
<text text-anchor="middle" x="328.47" y="-231" font-family="Times,serif" font-size="14.00">a</text>
</g>
<!-- http://purl.org/oseg/ontologies/OTRL#Odrl3 -->
<g id="node22" class="node">
<title>http://purl.org/oseg/ontologies/OTRL#Odrl3</title>
<ellipse fill="none" stroke="#e377c2" cx="194.47" cy="-357.17" rx="40.11" ry="16.03"/>
<text text-anchor="middle" x="194.47" y="-353.47" font-family="Times,serif" font-size="14.00">Odrl3</text>
</g>
<!-- http://purl.org/oseg/ontologies/OTRL#Odrl3&#45;&gt;http://www.w3.org/2002/07/owl#class -->
<g id="edge27" class="edge">
<title>http://purl.org/oseg/ontologies/OTRL#Odrl3&#45;&gt;http://www.w3.org/2002/07/owl#class</title>
<path fill="none" stroke="black" d="M199.05,-340.71C207.35,-310.83 224.97,-247.48 234.94,-211.62"/>
<polygon fill="black" stroke="black" points="238.35,-212.43 237.65,-201.86 231.6,-210.56 238.35,-212.43"/>
<text text-anchor="middle" x="212.49" y="-279.96" font-family="Times,serif" font-size="14.00">a</text>
</g>
<!-- http://purl.org/oseg/ontologies/OTRL#Odrl3&#45;&gt;http://purl.org/oseg/ontologies/OTRL#ODRL -->
<g id="edge9" class="edge">
<title>http://purl.org/oseg/ontologies/OTRL#Odrl3&#45;&gt;http://purl.org/oseg/ontologies/OTRL#ODRL</title>
<path fill="none" stroke="black" d="M187.51,-341.13C177.29,-317.55 158.1,-273.3 145.92,-245.21"/>
<polygon fill="black" stroke="black" points="149.12,-243.79 141.93,-236.01 142.7,-246.58 149.12,-243.79"/>
</g>
<!-- http://purl.org/oseg/ontologies/OTRL#exitCriteria -->
<g id="node23" class="node">
<title>http://purl.org/oseg/ontologies/OTRL#exitCriteria</title>
<ellipse fill="none" stroke="#e377c2" cx="499.05" cy="-418.86" rx="70.01" ry="16.03"/>
<text text-anchor="middle" x="499.05" y="-415.16" font-family="Times,serif" font-size="14.00">exitCriteria</text>
</g>
<!-- http://purl.org/oseg/ontologies/OTRL#exitCriteria&#45;&gt;http://www.w3.org/2002/07/owl#DatatypeProperty -->
<g id="edge8" class="edge">
<title>http://purl.org/oseg/ontologies/OTRL#exitCriteria&#45;&gt;http://www.w3.org/2002/07/owl#DatatypeProperty</title>
<path fill="none" stroke="black" d="M493.31,-402.55C492.88,-401.33 492.44,-400.09 492,-398.83"/>
<polygon fill="black" stroke="black" points="495.24,-397.49 488.62,-389.22 488.64,-399.82 495.24,-397.49"/>
<text text-anchor="middle" x="488.15" y="-389.49" font-family="Times,serif" font-size="14.00">a</text>
</g>
<!-- http://purl.org/oseg/ontologies/OTRL#exitCriteria&#45;&gt;http://schema.org/Text -->
<g id="edge19" class="edge">
<title>http://purl.org/oseg/ontologies/OTRL#exitCriteria&#45;&gt;http://schema.org/Text</title>
<path fill="none" stroke="black" d="M529.73,-404.18C561.78,-388.84 612.21,-364.7 647.38,-347.87"/>
<polygon fill="black" stroke="black" points="648.91,-351.02 656.42,-343.54 645.89,-344.7 648.91,-351.02"/>
<text text-anchor="middle" x="609.55" y="-379.82" font-family="Times,serif" font-size="14.00">range</text>
</g>
</g>
</svg>
