<?xml version="1.0" encoding="UTF-8" standalone="no"?>
<!DOCTYPE svg PUBLIC "-//W3C//DTD SVG 1.1//EN"
 "http://www.w3.org/Graphics/SVG/1.1/DTD/svg11.dtd">
<!-- Generated by graphviz version 2.43.0 (0)
 -->
<!-- Title: G Pages: 1 -->
<svg width="871pt" height="878pt"
 viewBox="0.00 0.00 870.76 878.00" xmlns="http://www.w3.org/2000/svg" xmlns:xlink="http://www.w3.org/1999/xlink">
<g id="graph0" class="graph" transform="scale(1 1) rotate(0) translate(4 874)">
<title>G</title>
<polygon fill="white" stroke="transparent" points="-4,4 -4,-874 866.76,-874 866.76,4 -4,4"/>
<!-- http://www.w3.org/2002/07/owl#class -->
<g id="node1" class="node">
<title>http://www.w3.org/2002/07/owl#class</title>
<ellipse fill="none" stroke="#1f77b4" cx="362.77" cy="-254.34" rx="57.05" ry="16.03"/>
<text text-anchor="middle" x="362.77" y="-250.64" font-family="Times,serif" font-size="14.00">owl:class</text>
</g>
<!-- http://www.w3.org/2002/07/owl#Ontology -->
<g id="node2" class="node">
<title>http://www.w3.org/2002/07/owl#Ontology</title>
<ellipse fill="none" stroke="#1f77b4" cx="533.32" cy="-551.47" rx="77.56" ry="16.03"/>
<text text-anchor="middle" x="533.32" y="-547.77" font-family="Times,serif" font-size="14.00">owl:Ontology</text>
</g>
<!-- http://purl.org/oseg/ontologies/OTRL#ODRL -->
<g id="node3" class="node">
<title>http://purl.org/oseg/ontologies/OTRL#ODRL</title>
<ellipse fill="none" stroke="#e377c2" cx="372.65" cy="-71.66" rx="41.94" ry="16.03"/>
<text text-anchor="middle" x="372.65" y="-67.96" font-family="Times,serif" font-size="14.00">ODRL</text>
</g>
<!-- http://purl.org/oseg/ontologies/OTRL#ODRL&#45;&gt;http://www.w3.org/2002/07/owl#class -->
<g id="edge14" class="edge">
<title>http://purl.org/oseg/ontologies/OTRL#ODRL&#45;&gt;http://www.w3.org/2002/07/owl#class</title>
<path fill="none" stroke="black" d="M371.76,-88.19C370.05,-119.85 366.29,-189.27 364.22,-227.6"/>
<polygon fill="black" stroke="black" points="360.7,-227.8 363.66,-237.98 367.69,-228.18 360.7,-227.8"/>
<text text-anchor="middle" x="363.49" y="-161.69" font-family="Times,serif" font-size="14.00">a</text>
</g>
<!-- http://purl.org/oseg/ontologies/OTRL#OTRL -->
<g id="node4" class="node">
<title>http://purl.org/oseg/ontologies/OTRL#OTRL</title>
<ellipse fill="none" stroke="#e377c2" cx="332.05" cy="-491.66" rx="39.7" ry="16.03"/>
<text text-anchor="middle" x="332.05" y="-487.96" font-family="Times,serif" font-size="14.00">OTRL</text>
</g>
<!-- http://purl.org/oseg/ontologies/OTRL#OTRL&#45;&gt;http://www.w3.org/2002/07/owl#class -->
<g id="edge45" class="edge">
<title>http://purl.org/oseg/ontologies/OTRL#OTRL&#45;&gt;http://www.w3.org/2002/07/owl#class</title>
<path fill="none" stroke="black" d="M334.16,-475.35C339.38,-435.04 352.92,-330.44 359.32,-280.99"/>
<polygon fill="black" stroke="black" points="362.83,-281.13 360.65,-270.77 355.89,-280.24 362.83,-281.13"/>
<text text-anchor="middle" x="342.24" y="-381.97" font-family="Times,serif" font-size="14.00">a</text>
</g>
<!-- http://www.w3.org/2002/07/owl#DatatypeProperty -->
<g id="node5" class="node">
<title>http://www.w3.org/2002/07/owl#DatatypeProperty</title>
<ellipse fill="none" stroke="#1f77b4" cx="122.82" cy="-757.53" rx="123.07" ry="16.03"/>
<text text-anchor="middle" x="122.82" y="-753.83" font-family="Times,serif" font-size="14.00">owl:DatatypeProperty</text>
</g>
<!-- http://schema.org/Text -->
<g id="node6" class="node">
<title>http://schema.org/Text</title>
<ellipse fill="none" stroke="#e377c2" cx="266.16" cy="-854.03" rx="74.91" ry="16.03"/>
<text text-anchor="middle" x="266.16" y="-850.33" font-family="Times,serif" font-size="14.00">schema:Text</text>
</g>
<!-- http://purl.org/oseg/ontologies/OTRL#softwareDescription -->
<g id="node7" class="node">
<title>http://purl.org/oseg/ontologies/OTRL#softwareDescription</title>
<ellipse fill="none" stroke="#e377c2" cx="141.98" cy="-709.45" rx="113.69" ry="16.03"/>
<text text-anchor="middle" x="141.98" y="-705.75" font-family="Times,serif" font-size="14.00">softwareDescription</text>
</g>
<!-- http://purl.org/oseg/ontologies/OTRL#softwareDescription&#45;&gt;http://purl.org/oseg/ontologies/OTRL#OTRL -->
<g id="edge36" class="edge">
<title>http://purl.org/oseg/ontologies/OTRL#softwareDescription&#45;&gt;http://purl.org/oseg/ontologies/OTRL#OTRL</title>
<path fill="none" stroke="black" d="M156.27,-693.08C189.75,-654.71 273.38,-558.89 311.97,-514.68"/>
<polygon fill="black" stroke="black" points="314.69,-516.88 318.63,-507.05 309.41,-512.28 314.69,-516.88"/>
<text text-anchor="middle" x="207.62" y="-607.68" font-family="Times,serif" font-size="14.00">domain</text>
</g>
<!-- http://purl.org/oseg/ontologies/OTRL#softwareDescription&#45;&gt;http://www.w3.org/2002/07/owl#DatatypeProperty -->
<g id="edge28" class="edge">
<title>http://purl.org/oseg/ontologies/OTRL#softwareDescription&#45;&gt;http://www.w3.org/2002/07/owl#DatatypeProperty</title>
<path fill="none" stroke="black" d="M135.49,-725.73C134.75,-727.61 133.97,-729.56 133.18,-731.52"/>
<polygon fill="black" stroke="black" points="129.75,-730.68 129.3,-741.27 136.25,-733.27 129.75,-730.68"/>
<text text-anchor="middle" x="129.84" y="-732.43" font-family="Times,serif" font-size="14.00">a</text>
</g>
<!-- http://purl.org/oseg/ontologies/OTRL#softwareDescription&#45;&gt;http://schema.org/Text -->
<g id="edge40" class="edge">
<title>http://purl.org/oseg/ontologies/OTRL#softwareDescription&#45;&gt;http://schema.org/Text</title>
<path fill="none" stroke="black" d="M155.99,-725.75C177.9,-751.27 220.41,-800.76 245.74,-830.25"/>
<polygon fill="black" stroke="black" points="243.23,-832.7 252.4,-838 248.54,-828.14 243.23,-832.7"/>
<text text-anchor="middle" x="221.86" y="-781.8" font-family="Times,serif" font-size="14.00">range</text>
</g>
<!-- http://purl.org/oseg/ontologies/OTRL -->
<g id="node8" class="node">
<title>http://purl.org/oseg/ontologies/OTRL</title>
<ellipse fill="none" stroke="#e377c2" cx="680.95" cy="-529.42" rx="60.62" ry="16.03"/>
<text text-anchor="middle" x="680.95" y="-525.72" font-family="Times,serif" font-size="14.00">ns1:OTRL</text>
</g>
<!-- http://purl.org/oseg/ontologies/OTRL&#45;&gt;http://www.w3.org/2002/07/owl#Ontology -->
<g id="edge19" class="edge">
<title>http://purl.org/oseg/ontologies/OTRL&#45;&gt;http://www.w3.org/2002/07/owl#Ontology</title>
<path fill="none" stroke="black" d="M627.65,-537.38C620.94,-538.38 613.98,-539.42 607.02,-540.46"/>
<polygon fill="black" stroke="black" points="606.22,-537.04 596.85,-541.98 607.26,-543.96 606.22,-537.04"/>
<text text-anchor="middle" x="615.08" y="-527.72" font-family="Times,serif" font-size="14.00">a</text>
</g>
<!-- http://purl.org/oseg/ontologies/OTRL&#45;&gt;http://purl.org/oseg/ontologies/OTRL -->
<g id="edge3" class="edge">
<title>http://purl.org/oseg/ontologies/OTRL&#45;&gt;http://purl.org/oseg/ontologies/OTRL</title>
<path fill="none" stroke="black" d="M736.55,-536.05C749.89,-535.53 759.76,-533.32 759.76,-529.42 759.76,-526.58 754.55,-524.64 746.58,-523.59"/>
<polygon fill="black" stroke="black" points="746.8,-520.1 736.55,-522.78 746.24,-527.07 746.8,-520.1"/>
<text text-anchor="middle" x="811.26" y="-525.72" font-family="Times,serif" font-size="14.00">owl:versionIRI</text>
</g>
<!-- http://purl.org/oseg/ontologies/OTRL#ODRL&#45;1 -->
<g id="node9" class="node">
<title>http://purl.org/oseg/ontologies/OTRL#ODRL&#45;1</title>
<ellipse fill="none" stroke="#e377c2" cx="551.07" cy="-144.13" rx="50.82" ry="16.03"/>
<text text-anchor="middle" x="551.07" y="-140.43" font-family="Times,serif" font-size="14.00">ODRL&#45;1</text>
</g>
<!-- http://purl.org/oseg/ontologies/OTRL#ODRL&#45;1&#45;&gt;http://www.w3.org/2002/07/owl#class -->
<g id="edge4" class="edge">
<title>http://purl.org/oseg/ontologies/OTRL#ODRL&#45;1&#45;&gt;http://www.w3.org/2002/07/owl#class</title>
<path fill="none" stroke="black" d="M526.46,-158.54C493.37,-177.9 434.41,-212.41 397.01,-234.3"/>
<polygon fill="black" stroke="black" points="394.86,-231.51 388,-239.58 398.4,-237.55 394.86,-231.51"/>
<text text-anchor="middle" x="457.23" y="-200.22" font-family="Times,serif" font-size="14.00">a</text>
</g>
<!-- http://purl.org/oseg/ontologies/OTRL#ODRL&#45;1&#45;&gt;http://purl.org/oseg/ontologies/OTRL#ODRL -->
<g id="edge35" class="edge">
<title>http://purl.org/oseg/ontologies/OTRL#ODRL&#45;1&#45;&gt;http://purl.org/oseg/ontologies/OTRL#ODRL</title>
<path fill="none" stroke="black" d="M519.59,-131.34C489.4,-119.08 443.75,-100.53 411.35,-87.38"/>
<polygon fill="black" stroke="black" points="412.34,-84 401.76,-83.48 409.7,-90.48 412.34,-84"/>
</g>
<!-- http://purl.org/oseg/ontologies/OTRL#OTRL&#45;4 -->
<g id="node10" class="node">
<title>http://purl.org/oseg/ontologies/OTRL#OTRL&#45;4</title>
<ellipse fill="none" stroke="#e377c2" cx="160.46" cy="-421.76" rx="49.49" ry="16.03"/>
<text text-anchor="middle" x="160.46" y="-418.06" font-family="Times,serif" font-size="14.00">OTRL&#45;4</text>
</g>
<!-- http://purl.org/oseg/ontologies/OTRL#OTRL&#45;4&#45;&gt;http://www.w3.org/2002/07/owl#class -->
<g id="edge7" class="edge">
<title>http://purl.org/oseg/ontologies/OTRL#OTRL&#45;4&#45;&gt;http://www.w3.org/2002/07/owl#class</title>
<path fill="none" stroke="black" d="M178.77,-406.61C214.7,-376.88 294.55,-310.79 336.26,-276.28"/>
<polygon fill="black" stroke="black" points="338.59,-278.9 344.06,-269.82 334.13,-273.5 338.59,-278.9"/>
<text text-anchor="middle" x="253.01" y="-345.25" font-family="Times,serif" font-size="14.00">a</text>
</g>
<!-- http://purl.org/oseg/ontologies/OTRL#OTRL&#45;4&#45;&gt;http://purl.org/oseg/ontologies/OTRL#OTRL -->
<g id="edge5" class="edge">
<title>http://purl.org/oseg/ontologies/OTRL#OTRL&#45;4&#45;&gt;http://purl.org/oseg/ontologies/OTRL#OTRL</title>
<path fill="none" stroke="black" d="M191.93,-434.58C220.83,-446.35 263.7,-463.82 294.4,-476.32"/>
<polygon fill="black" stroke="black" points="293.33,-479.66 303.91,-480.2 295.97,-473.18 293.33,-479.66"/>
</g>
<!-- http://purl.org/oseg/ontologies/OTRL#OTRL&#45;7 -->
<g id="node11" class="node">
<title>http://purl.org/oseg/ontologies/OTRL#OTRL&#45;7</title>
<ellipse fill="none" stroke="#e377c2" cx="501.31" cy="-355.07" rx="49.49" ry="16.03"/>
<text text-anchor="middle" x="501.31" y="-351.37" font-family="Times,serif" font-size="14.00">OTRL&#45;7</text>
</g>
<!-- http://purl.org/oseg/ontologies/OTRL#OTRL&#45;7&#45;&gt;http://www.w3.org/2002/07/owl#class -->
<g id="edge8" class="edge">
<title>http://purl.org/oseg/ontologies/OTRL#OTRL&#45;7&#45;&gt;http://www.w3.org/2002/07/owl#class</title>
<path fill="none" stroke="black" d="M480.86,-340.21C457.37,-323.12 418.61,-294.95 391.95,-275.56"/>
<polygon fill="black" stroke="black" points="393.9,-272.65 383.75,-269.6 389.78,-278.31 393.9,-272.65"/>
<text text-anchor="middle" x="431.91" y="-311.68" font-family="Times,serif" font-size="14.00">a</text>
</g>
<!-- http://purl.org/oseg/ontologies/OTRL#OTRL&#45;7&#45;&gt;http://purl.org/oseg/ontologies/OTRL#OTRL -->
<g id="edge29" class="edge">
<title>http://purl.org/oseg/ontologies/OTRL#OTRL&#45;7&#45;&gt;http://purl.org/oseg/ontologies/OTRL#OTRL</title>
<path fill="none" stroke="black" d="M482.55,-370.21C452.32,-394.61 392.74,-442.69 358.31,-470.47"/>
<polygon fill="black" stroke="black" points="355.71,-468.07 350.13,-477.08 360.11,-473.52 355.71,-468.07"/>
</g>
<!-- http://purl.org/oseg/ontologies/OTRL#exitCriteria -->
<g id="node12" class="node">
<title>http://purl.org/oseg/ontologies/OTRL#exitCriteria</title>
<ellipse fill="none" stroke="#e377c2" cx="352.53" cy="-708.21" rx="70.01" ry="16.03"/>
<text text-anchor="middle" x="352.53" y="-704.51" font-family="Times,serif" font-size="14.00">exitCriteria</text>
</g>
<!-- http://purl.org/oseg/ontologies/OTRL#exitCriteria&#45;&gt;http://purl.org/oseg/ontologies/OTRL#OTRL -->
<g id="edge41" class="edge">
<title>http://purl.org/oseg/ontologies/OTRL#exitCriteria&#45;&gt;http://purl.org/oseg/ontologies/OTRL#OTRL</title>
<path fill="none" stroke="black" d="M350.99,-691.93C347.48,-654.78 338.84,-563.45 334.55,-518.1"/>
<polygon fill="black" stroke="black" points="338.04,-517.75 333.61,-508.13 331.07,-518.41 338.04,-517.75"/>
<text text-anchor="middle" x="316.27" y="-608.82" font-family="Times,serif" font-size="14.00">domain</text>
</g>
<!-- http://purl.org/oseg/ontologies/OTRL#exitCriteria&#45;&gt;http://www.w3.org/2002/07/owl#DatatypeProperty -->
<g id="edge31" class="edge">
<title>http://purl.org/oseg/ontologies/OTRL#exitCriteria&#45;&gt;http://www.w3.org/2002/07/owl#DatatypeProperty</title>
<path fill="none" stroke="black" d="M300.98,-719.28C270.4,-725.84 231.11,-734.28 197.22,-741.56"/>
<polygon fill="black" stroke="black" points="196.39,-738.15 187.35,-743.67 197.86,-745 196.39,-738.15"/>
<text text-anchor="middle" x="253.6" y="-734.22" font-family="Times,serif" font-size="14.00">a</text>
</g>
<!-- http://purl.org/oseg/ontologies/OTRL#exitCriteria&#45;&gt;http://schema.org/Text -->
<g id="edge1" class="edge">
<title>http://purl.org/oseg/ontologies/OTRL#exitCriteria&#45;&gt;http://schema.org/Text</title>
<path fill="none" stroke="black" d="M342.96,-724.37C327.91,-749.77 298.62,-799.23 280.88,-829.17"/>
<polygon fill="black" stroke="black" points="277.86,-827.41 275.78,-837.79 283.88,-830.97 277.86,-827.41"/>
<text text-anchor="middle" x="290.92" y="-780.57" font-family="Times,serif" font-size="14.00">range</text>
</g>
<!-- http://purl.org/oseg/ontologies/OTRL#ODRL&#45;5 -->
<g id="node13" class="node">
<title>http://purl.org/oseg/ontologies/OTRL#ODRL&#45;5</title>
<ellipse fill="none" stroke="#e377c2" cx="532.26" cy="-79.87" rx="50.82" ry="16.03"/>
<text text-anchor="middle" x="532.26" y="-76.17" font-family="Times,serif" font-size="14.00">ODRL&#45;5</text>
</g>
<!-- http://purl.org/oseg/ontologies/OTRL#ODRL&#45;5&#45;&gt;http://www.w3.org/2002/07/owl#class -->
<g id="edge9" class="edge">
<title>http://purl.org/oseg/ontologies/OTRL#ODRL&#45;5&#45;&gt;http://www.w3.org/2002/07/owl#class</title>
<path fill="none" stroke="black" d="M516.92,-95.66C487,-126.47 420.7,-194.71 385.6,-230.84"/>
<polygon fill="black" stroke="black" points="382.66,-228.85 378.2,-238.46 387.68,-233.73 382.66,-228.85"/>
<text text-anchor="middle" x="446.76" y="-167.05" font-family="Times,serif" font-size="14.00">a</text>
</g>
<!-- http://purl.org/oseg/ontologies/OTRL#ODRL&#45;5&#45;&gt;http://purl.org/oseg/ontologies/OTRL#ODRL -->
<g id="edge38" class="edge">
<title>http://purl.org/oseg/ontologies/OTRL#ODRL&#45;5&#45;&gt;http://purl.org/oseg/ontologies/OTRL#ODRL</title>
<path fill="none" stroke="black" d="M481.76,-77.27C463.34,-76.32 442.51,-75.25 424.02,-74.3"/>
<polygon fill="black" stroke="black" points="424.18,-70.8 414.02,-73.79 423.82,-77.79 424.18,-70.8"/>
</g>
<!-- http://purl.org/oseg/ontologies/OTRL#documentationDescription -->
<g id="node14" class="node">
<title>http://purl.org/oseg/ontologies/OTRL#documentationDescription</title>
<ellipse fill="none" stroke="#e377c2" cx="266.38" cy="-811.88" rx="120.83" ry="16.03"/>
<text text-anchor="middle" x="266.38" y="-808.18" font-family="Times,serif" font-size="14.00">documentationDesc...</text>
</g>
<!-- http://purl.org/oseg/ontologies/OTRL#documentationDescription&#45;&gt;http://purl.org/oseg/ontologies/OTRL#OTRL -->
<g id="edge20" class="edge">
<title>http://purl.org/oseg/ontologies/OTRL#documentationDescription&#45;&gt;http://purl.org/oseg/ontologies/OTRL#OTRL</title>
<path fill="none" stroke="black" d="M269.73,-795.56C280.38,-743.63 313.55,-581.91 326.65,-518.02"/>
<polygon fill="black" stroke="black" points="330.13,-518.45 328.71,-507.95 323.28,-517.04 330.13,-518.45"/>
<text text-anchor="middle" x="271.69" y="-660.59" font-family="Times,serif" font-size="14.00">domain</text>
</g>
<!-- http://purl.org/oseg/ontologies/OTRL#documentationDescription&#45;&gt;http://www.w3.org/2002/07/owl#DatatypeProperty -->
<g id="edge11" class="edge">
<title>http://purl.org/oseg/ontologies/OTRL#documentationDescription&#45;&gt;http://www.w3.org/2002/07/owl#DatatypeProperty</title>
<path fill="none" stroke="black" d="M225.63,-796.45C209.41,-790.31 190.58,-783.18 173.5,-776.71"/>
<polygon fill="black" stroke="black" points="174.27,-773.26 163.68,-773 171.79,-779.81 174.27,-773.26"/>
<text text-anchor="middle" x="195.06" y="-775.38" font-family="Times,serif" font-size="14.00">a</text>
</g>
<!-- http://purl.org/oseg/ontologies/OTRL#documentationDescription&#45;&gt;http://schema.org/Text -->
<g id="edge33" class="edge">
<title>http://purl.org/oseg/ontologies/OTRL#documentationDescription&#45;&gt;http://schema.org/Text</title>
<path fill="none" stroke="black" d="M266.3,-828.54C266.29,-828.63 266.29,-828.72 266.29,-828.81"/>
<polygon fill="black" stroke="black" points="262.8,-827.47 266.25,-837.49 269.8,-827.51 262.8,-827.47"/>
<text text-anchor="middle" x="245.29" y="-832.48" font-family="Times,serif" font-size="14.00">range</text>
</g>
<!-- http://purl.org/oseg/ontologies/OTRL#OTRL&#45;9 -->
<g id="node15" class="node">
<title>http://purl.org/oseg/ontologies/OTRL#OTRL&#45;9</title>
<ellipse fill="none" stroke="#e377c2" cx="533.97" cy="-414.6" rx="49.49" ry="16.03"/>
<text text-anchor="middle" x="533.97" y="-410.9" font-family="Times,serif" font-size="14.00">OTRL&#45;9</text>
</g>
<!-- http://purl.org/oseg/ontologies/OTRL#OTRL&#45;9&#45;&gt;http://www.w3.org/2002/07/owl#class -->
<g id="edge12" class="edge">
<title>http://purl.org/oseg/ontologies/OTRL#OTRL&#45;9&#45;&gt;http://www.w3.org/2002/07/owl#class</title>
<path fill="none" stroke="black" d="M517.55,-399.23C487.29,-370.9 422.55,-310.3 387.15,-277.16"/>
<polygon fill="black" stroke="black" points="389.34,-274.41 379.64,-270.13 384.55,-279.52 389.34,-274.41"/>
<text text-anchor="middle" x="447.85" y="-327" font-family="Times,serif" font-size="14.00">a</text>
</g>
<!-- http://purl.org/oseg/ontologies/OTRL#OTRL&#45;9&#45;&gt;http://purl.org/oseg/ontologies/OTRL#OTRL -->
<g id="edge22" class="edge">
<title>http://purl.org/oseg/ontologies/OTRL#OTRL&#45;9&#45;&gt;http://purl.org/oseg/ontologies/OTRL#OTRL</title>
<path fill="none" stroke="black" d="M501.53,-426.98C465.92,-440.57 408.77,-462.38 370.82,-476.87"/>
<polygon fill="black" stroke="black" points="369.23,-473.73 361.14,-480.56 371.73,-480.27 369.23,-473.73"/>
</g>
<!-- http://purl.org/oseg/ontologies/OTRL#hardwareDescription -->
<g id="node16" class="node">
<title>http://purl.org/oseg/ontologies/OTRL#hardwareDescription</title>
<ellipse fill="none" stroke="#e377c2" cx="448.92" cy="-759.76" rx="118.17" ry="16.03"/>
<text text-anchor="middle" x="448.92" y="-756.06" font-family="Times,serif" font-size="14.00">hardwareDescription</text>
</g>
<!-- http://purl.org/oseg/ontologies/OTRL#hardwareDescription&#45;&gt;http://purl.org/oseg/ontologies/OTRL#OTRL -->
<g id="edge21" class="edge">
<title>http://purl.org/oseg/ontologies/OTRL#hardwareDescription&#45;&gt;http://purl.org/oseg/ontologies/OTRL#OTRL</title>
<path fill="none" stroke="black" d="M441.78,-743.39C422.09,-698.23 366.9,-571.59 343.15,-517.11"/>
<polygon fill="black" stroke="black" points="346.3,-515.58 339.09,-507.81 339.88,-518.38 346.3,-515.58"/>
<text text-anchor="middle" x="365.96" y="-634.05" font-family="Times,serif" font-size="14.00">domain</text>
</g>
<!-- http://purl.org/oseg/ontologies/OTRL#hardwareDescription&#45;&gt;http://www.w3.org/2002/07/owl#DatatypeProperty -->
<g id="edge13" class="edge">
<title>http://purl.org/oseg/ontologies/OTRL#hardwareDescription&#45;&gt;http://www.w3.org/2002/07/owl#DatatypeProperty</title>
<path fill="none" stroke="black" d="M330.73,-758.95C306.46,-758.78 280.75,-758.61 255.99,-758.44"/>
<polygon fill="black" stroke="black" points="255.84,-754.94 245.82,-758.37 255.8,-761.94 255.84,-754.94"/>
<text text-anchor="middle" x="288.86" y="-762.49" font-family="Times,serif" font-size="14.00">a</text>
</g>
<!-- http://purl.org/oseg/ontologies/OTRL#hardwareDescription&#45;&gt;http://schema.org/Text -->
<g id="edge34" class="edge">
<title>http://purl.org/oseg/ontologies/OTRL#hardwareDescription&#45;&gt;http://schema.org/Text</title>
<path fill="none" stroke="black" d="M418.33,-775.54C387.03,-791.68 338.31,-816.81 304.46,-834.27"/>
<polygon fill="black" stroke="black" points="302.62,-831.28 295.34,-838.98 305.83,-837.5 302.62,-831.28"/>
<text text-anchor="middle" x="382.39" y="-793.7" font-family="Times,serif" font-size="14.00">range</text>
</g>
<!-- http://purl.org/oseg/ontologies/OTRL#ODRL&#45;0 -->
<g id="node17" class="node">
<title>http://purl.org/oseg/ontologies/OTRL#ODRL&#45;0</title>
<ellipse fill="none" stroke="#e377c2" cx="196.34" cy="-98.82" rx="50.82" ry="16.03"/>
<text text-anchor="middle" x="196.34" y="-95.12" font-family="Times,serif" font-size="14.00">ODRL&#45;0</text>
</g>
<!-- http://purl.org/oseg/ontologies/OTRL#ODRL&#45;0&#45;&gt;http://www.w3.org/2002/07/owl#class -->
<g id="edge15" class="edge">
<title>http://purl.org/oseg/ontologies/OTRL#ODRL&#45;0&#45;&gt;http://www.w3.org/2002/07/owl#class</title>
<path fill="none" stroke="black" d="M212.91,-114.3C242.29,-141.75 303.66,-199.1 338.06,-231.24"/>
<polygon fill="black" stroke="black" points="336.08,-234.19 345.78,-238.46 340.86,-229.08 336.08,-234.19"/>
<text text-anchor="middle" x="270.98" y="-176.57" font-family="Times,serif" font-size="14.00">a</text>
</g>
<!-- http://purl.org/oseg/ontologies/OTRL#ODRL&#45;0&#45;&gt;http://purl.org/oseg/ontologies/OTRL#ODRL -->
<g id="edge30" class="edge">
<title>http://purl.org/oseg/ontologies/OTRL#ODRL&#45;0&#45;&gt;http://purl.org/oseg/ontologies/OTRL#ODRL</title>
<path fill="none" stroke="black" d="M242.21,-91.75C267.14,-87.91 297.98,-83.16 323.41,-79.24"/>
<polygon fill="black" stroke="black" points="324.24,-82.66 333.59,-77.67 323.17,-75.74 324.24,-82.66"/>
</g>
<!-- http://purl.org/oseg/ontologies/OTRL#ODRL&#45;3 -->
<g id="node18" class="node">
<title>http://purl.org/oseg/ontologies/OTRL#ODRL&#45;3</title>
<ellipse fill="none" stroke="#e377c2" cx="485.06" cy="-31.17" rx="50.82" ry="16.03"/>
<text text-anchor="middle" x="485.06" y="-27.47" font-family="Times,serif" font-size="14.00">ODRL&#45;3</text>
</g>
<!-- http://purl.org/oseg/ontologies/OTRL#ODRL&#45;3&#45;&gt;http://www.w3.org/2002/07/owl#class -->
<g id="edge39" class="edge">
<title>http://purl.org/oseg/ontologies/OTRL#ODRL&#45;3&#45;&gt;http://www.w3.org/2002/07/owl#class</title>
<path fill="none" stroke="black" d="M476.27,-47.22C455.21,-85.65 401.77,-183.17 376.46,-229.36"/>
<polygon fill="black" stroke="black" points="373.39,-227.69 371.65,-238.14 379.53,-231.05 373.39,-227.69"/>
<text text-anchor="middle" x="421.86" y="-142.09" font-family="Times,serif" font-size="14.00">a</text>
</g>
<!-- http://purl.org/oseg/ontologies/OTRL#ODRL&#45;3&#45;&gt;http://purl.org/oseg/ontologies/OTRL#ODRL -->
<g id="edge6" class="edge">
<title>http://purl.org/oseg/ontologies/OTRL#ODRL&#45;3&#45;&gt;http://purl.org/oseg/ontologies/OTRL#ODRL</title>
<path fill="none" stroke="black" d="M451.03,-43.43C439.1,-47.72 425.58,-52.59 413.17,-57.06"/>
<polygon fill="black" stroke="black" points="411.73,-53.86 403.51,-60.54 414.1,-60.45 411.73,-53.86"/>
</g>
<!-- http://purl.org/oseg/ontologies/OTRL#OTRL&#45;1 -->
<g id="node19" class="node">
<title>http://purl.org/oseg/ontologies/OTRL#OTRL&#45;1</title>
<ellipse fill="none" stroke="#e377c2" cx="359.47" cy="-449.74" rx="49.49" ry="16.03"/>
<text text-anchor="middle" x="359.47" y="-446.04" font-family="Times,serif" font-size="14.00">OTRL&#45;1</text>
</g>
<!-- http://purl.org/oseg/ontologies/OTRL#OTRL&#45;1&#45;&gt;http://www.w3.org/2002/07/owl#class -->
<g id="edge42" class="edge">
<title>http://purl.org/oseg/ontologies/OTRL#OTRL&#45;1&#45;&gt;http://www.w3.org/2002/07/owl#class</title>
<path fill="none" stroke="black" d="M359.75,-433.42C360.32,-399.65 361.63,-321.88 362.33,-280.82"/>
<polygon fill="black" stroke="black" points="365.83,-280.81 362.5,-270.76 358.83,-280.7 365.83,-280.81"/>
<text text-anchor="middle" x="356.54" y="-360.92" font-family="Times,serif" font-size="14.00">a</text>
</g>
<!-- http://purl.org/oseg/ontologies/OTRL#OTRL&#45;1&#45;&gt;http://purl.org/oseg/ontologies/OTRL#OTRL -->
<g id="edge46" class="edge">
<title>http://purl.org/oseg/ontologies/OTRL#OTRL&#45;1&#45;&gt;http://purl.org/oseg/ontologies/OTRL#OTRL</title>
<path fill="none" stroke="black" d="M348.95,-465.83C348.69,-466.23 348.42,-466.64 348.15,-467.05"/>
<polygon fill="black" stroke="black" points="345.05,-465.4 342.5,-475.69 350.91,-469.23 345.05,-465.4"/>
</g>
<!-- http://purl.org/oseg/ontologies/OTRL#OTRL&#45;3 -->
<g id="node20" class="node">
<title>http://purl.org/oseg/ontologies/OTRL#OTRL&#45;3</title>
<ellipse fill="none" stroke="#e377c2" cx="285.88" cy="-381.1" rx="49.49" ry="16.03"/>
<text text-anchor="middle" x="285.88" y="-377.4" font-family="Times,serif" font-size="14.00">OTRL&#45;3</text>
</g>
<!-- http://purl.org/oseg/ontologies/OTRL#OTRL&#45;3&#45;&gt;http://www.w3.org/2002/07/owl#class -->
<g id="edge16" class="edge">
<title>http://purl.org/oseg/ontologies/OTRL#OTRL&#45;3&#45;&gt;http://www.w3.org/2002/07/owl#class</title>
<path fill="none" stroke="black" d="M295.62,-365.04C308.72,-343.45 332.15,-304.82 347.58,-279.38"/>
<polygon fill="black" stroke="black" points="350.68,-281.03 352.87,-270.67 344.69,-277.4 350.68,-281.03"/>
<text text-anchor="middle" x="317.1" y="-326.01" font-family="Times,serif" font-size="14.00">a</text>
</g>
<!-- http://purl.org/oseg/ontologies/OTRL#OTRL&#45;3&#45;&gt;http://purl.org/oseg/ontologies/OTRL#OTRL -->
<g id="edge27" class="edge">
<title>http://purl.org/oseg/ontologies/OTRL#OTRL&#45;3&#45;&gt;http://purl.org/oseg/ontologies/OTRL#OTRL</title>
<path fill="none" stroke="black" d="M292.69,-397.41C300.23,-415.46 312.47,-444.78 321.3,-465.92"/>
<polygon fill="black" stroke="black" points="318.13,-467.4 325.21,-475.28 324.59,-464.7 318.13,-467.4"/>
</g>
<!-- http://purl.org/oseg/ontologies/OTRL#ODRL&#45;2 -->
<g id="node21" class="node">
<title>http://purl.org/oseg/ontologies/OTRL#ODRL&#45;2</title>
<ellipse fill="none" stroke="#e377c2" cx="360.2" cy="-16.49" rx="50.82" ry="16.03"/>
<text text-anchor="middle" x="360.2" y="-12.79" font-family="Times,serif" font-size="14.00">ODRL&#45;2</text>
</g>
<!-- http://purl.org/oseg/ontologies/OTRL#ODRL&#45;2&#45;&gt;http://www.w3.org/2002/07/owl#class -->
<g id="edge17" class="edge">
<title>http://purl.org/oseg/ontologies/OTRL#ODRL&#45;2&#45;&gt;http://www.w3.org/2002/07/owl#class</title>
<path fill="none" stroke="black" d="M360.38,-32.83C360.81,-73.23 361.95,-178.07 362.48,-227.63"/>
<polygon fill="black" stroke="black" points="358.99,-227.92 362.59,-237.88 365.99,-227.84 358.99,-227.92"/>
<text text-anchor="middle" x="356.93" y="-134.03" font-family="Times,serif" font-size="14.00">a</text>
</g>
<!-- http://purl.org/oseg/ontologies/OTRL#ODRL&#45;2&#45;&gt;http://purl.org/oseg/ontologies/OTRL#ODRL -->
<g id="edge44" class="edge">
<title>http://purl.org/oseg/ontologies/OTRL#ODRL&#45;2&#45;&gt;http://purl.org/oseg/ontologies/OTRL#ODRL</title>
<path fill="none" stroke="black" d="M363.87,-32.74C364.77,-36.74 365.76,-41.14 366.74,-45.48"/>
<polygon fill="black" stroke="black" points="363.35,-46.34 368.97,-55.33 370.18,-44.8 363.35,-46.34"/>
</g>
<!-- http://purl.org/oseg/ontologies/OTRL#ODRL&#45;4 -->
<g id="node22" class="node">
<title>http://purl.org/oseg/ontologies/OTRL#ODRL&#45;4</title>
<ellipse fill="none" stroke="#e377c2" cx="243.59" cy="-36.5" rx="50.82" ry="16.03"/>
<text text-anchor="middle" x="243.59" y="-32.8" font-family="Times,serif" font-size="14.00">ODRL&#45;4</text>
</g>
<!-- http://purl.org/oseg/ontologies/OTRL#ODRL&#45;4&#45;&gt;http://www.w3.org/2002/07/owl#class -->
<g id="edge43" class="edge">
<title>http://purl.org/oseg/ontologies/OTRL#ODRL&#45;4&#45;&gt;http://www.w3.org/2002/07/owl#class</title>
<path fill="none" stroke="black" d="M252.55,-52.88C273.22,-90.66 324.36,-184.14 349.03,-229.23"/>
<polygon fill="black" stroke="black" points="346,-230.98 353.87,-238.08 352.14,-227.62 346,-230.98"/>
<text text-anchor="middle" x="296.29" y="-144.85" font-family="Times,serif" font-size="14.00">a</text>
</g>
<!-- http://purl.org/oseg/ontologies/OTRL#ODRL&#45;4&#45;&gt;http://purl.org/oseg/ontologies/OTRL#ODRL -->
<g id="edge10" class="edge">
<title>http://purl.org/oseg/ontologies/OTRL#ODRL&#45;4&#45;&gt;http://purl.org/oseg/ontologies/OTRL#ODRL</title>
<path fill="none" stroke="black" d="M282.67,-47.15C297.01,-51.05 313.36,-55.51 328.15,-59.53"/>
<polygon fill="black" stroke="black" points="327.52,-62.99 338.09,-62.24 329.36,-56.24 327.52,-62.99"/>
</g>
<!-- http://purl.org/oseg/ontologies/OTRL#OTRL&#45;5 -->
<g id="node23" class="node">
<title>http://purl.org/oseg/ontologies/OTRL#OTRL&#45;5</title>
<ellipse fill="none" stroke="#e377c2" cx="490.14" cy="-457.95" rx="49.49" ry="16.03"/>
<text text-anchor="middle" x="490.14" y="-454.25" font-family="Times,serif" font-size="14.00">OTRL&#45;5</text>
</g>
<!-- http://purl.org/oseg/ontologies/OTRL#OTRL&#45;5&#45;&gt;http://www.w3.org/2002/07/owl#class -->
<g id="edge18" class="edge">
<title>http://purl.org/oseg/ontologies/OTRL#OTRL&#45;5&#45;&gt;http://www.w3.org/2002/07/owl#class</title>
<path fill="none" stroke="black" d="M480.14,-441.97C458.02,-406.6 404.76,-321.46 378.27,-279.12"/>
<polygon fill="black" stroke="black" points="381.17,-277.15 372.9,-270.53 375.23,-280.86 381.17,-277.15"/>
<text text-anchor="middle" x="424.71" y="-364.34" font-family="Times,serif" font-size="14.00">a</text>
</g>
<!-- http://purl.org/oseg/ontologies/OTRL#OTRL&#45;5&#45;&gt;http://purl.org/oseg/ontologies/OTRL#OTRL -->
<g id="edge32" class="edge">
<title>http://purl.org/oseg/ontologies/OTRL#OTRL&#45;5&#45;&gt;http://purl.org/oseg/ontologies/OTRL#OTRL</title>
<path fill="none" stroke="black" d="M448.6,-466.8C426.71,-471.47 399.81,-477.21 377.38,-481.99"/>
<polygon fill="black" stroke="black" points="376.47,-478.61 367.42,-484.12 377.93,-485.46 376.47,-478.61"/>
</g>
<!-- http://purl.org/oseg/ontologies/OTRL#OTRL&#45;6 -->
<g id="node24" class="node">
<title>http://purl.org/oseg/ontologies/OTRL#OTRL&#45;6</title>
<ellipse fill="none" stroke="#e377c2" cx="408.34" cy="-396.98" rx="49.49" ry="16.03"/>
<text text-anchor="middle" x="408.34" y="-393.28" font-family="Times,serif" font-size="14.00">OTRL&#45;6</text>
</g>
<!-- http://purl.org/oseg/ontologies/OTRL#OTRL&#45;6&#45;&gt;http://www.w3.org/2002/07/owl#class -->
<g id="edge24" class="edge">
<title>http://purl.org/oseg/ontologies/OTRL#OTRL&#45;6&#45;&gt;http://www.w3.org/2002/07/owl#class</title>
<path fill="none" stroke="black" d="M403.11,-380.62C395.29,-356.14 380.47,-309.73 371.13,-280.51"/>
<polygon fill="black" stroke="black" points="374.46,-279.41 368.08,-270.95 367.79,-281.54 374.46,-279.41"/>
<text text-anchor="middle" x="382.62" y="-334.36" font-family="Times,serif" font-size="14.00">a</text>
</g>
<!-- http://purl.org/oseg/ontologies/OTRL#OTRL&#45;6&#45;&gt;http://purl.org/oseg/ontologies/OTRL#OTRL -->
<g id="edge2" class="edge">
<title>http://purl.org/oseg/ontologies/OTRL#OTRL&#45;6&#45;&gt;http://purl.org/oseg/ontologies/OTRL#OTRL</title>
<path fill="none" stroke="black" d="M395.4,-413.04C383.2,-428.18 364.77,-451.06 350.93,-468.24"/>
<polygon fill="black" stroke="black" points="348.1,-466.17 344.55,-476.15 353.55,-470.56 348.1,-466.17"/>
</g>
<!-- http://purl.org/oseg/ontologies/OTRL#OTRL&#45;8 -->
<g id="node25" class="node">
<title>http://purl.org/oseg/ontologies/OTRL#OTRL&#45;8</title>
<ellipse fill="none" stroke="#e377c2" cx="242.77" cy="-311.57" rx="49.49" ry="16.03"/>
<text text-anchor="middle" x="242.77" y="-307.87" font-family="Times,serif" font-size="14.00">OTRL&#45;8</text>
</g>
<!-- http://purl.org/oseg/ontologies/OTRL#OTRL&#45;8&#45;&gt;http://www.w3.org/2002/07/owl#class -->
<g id="edge25" class="edge">
<title>http://purl.org/oseg/ontologies/OTRL#OTRL&#45;8&#45;&gt;http://www.w3.org/2002/07/owl#class</title>
<path fill="none" stroke="black" d="M270.91,-298.15C286.69,-290.63 306.61,-281.12 323.87,-272.89"/>
<polygon fill="black" stroke="black" points="325.62,-275.94 333.14,-268.47 322.61,-269.62 325.62,-275.94"/>
<text text-anchor="middle" x="292.89" y="-274.32" font-family="Times,serif" font-size="14.00">a</text>
</g>
<!-- http://purl.org/oseg/ontologies/OTRL#OTRL&#45;8&#45;&gt;http://purl.org/oseg/ontologies/OTRL#OTRL -->
<g id="edge37" class="edge">
<title>http://purl.org/oseg/ontologies/OTRL#OTRL&#45;8&#45;&gt;http://purl.org/oseg/ontologies/OTRL#OTRL</title>
<path fill="none" stroke="black" d="M250.85,-327.87C266.45,-359.34 300.83,-428.69 319.46,-466.27"/>
<polygon fill="black" stroke="black" points="316.48,-468.12 324.05,-475.53 322.75,-465.01 316.48,-468.12"/>
</g>
<!-- http://purl.org/oseg/ontologies/OTRL#OTRL&#45;2 -->
<g id="node26" class="node">
<title>http://purl.org/oseg/ontologies/OTRL#OTRL&#45;2</title>
<ellipse fill="none" stroke="#e377c2" cx="158.7" cy="-362.12" rx="49.49" ry="16.03"/>
<text text-anchor="middle" x="158.7" y="-358.42" font-family="Times,serif" font-size="14.00">OTRL&#45;2</text>
</g>
<!-- http://purl.org/oseg/ontologies/OTRL#OTRL&#45;2&#45;&gt;http://www.w3.org/2002/07/owl#class -->
<g id="edge26" class="edge">
<title>http://purl.org/oseg/ontologies/OTRL#OTRL&#45;2&#45;&gt;http://www.w3.org/2002/07/owl#class</title>
<path fill="none" stroke="black" d="M184.96,-348.25C221.02,-329.21 285.98,-294.9 326.61,-273.44"/>
<polygon fill="black" stroke="black" points="328.43,-276.44 335.64,-268.67 325.16,-270.25 328.43,-276.44"/>
<text text-anchor="middle" x="251.29" y="-314.65" font-family="Times,serif" font-size="14.00">a</text>
</g>
<!-- http://purl.org/oseg/ontologies/OTRL#OTRL&#45;2&#45;&gt;http://purl.org/oseg/ontologies/OTRL#OTRL -->
<g id="edge23" class="edge">
<title>http://purl.org/oseg/ontologies/OTRL#OTRL&#45;2&#45;&gt;http://purl.org/oseg/ontologies/OTRL#OTRL</title>
<path fill="none" stroke="black" d="M178.93,-377.23C209.97,-400.43 269.42,-444.86 304.42,-471.01"/>
<polygon fill="black" stroke="black" points="302.65,-474.06 312.75,-477.24 306.84,-468.45 302.65,-474.06"/>
</g>
</g>
</svg>
