<?xml version="1.0" encoding="UTF-8" standalone="no"?>
<!DOCTYPE svg PUBLIC "-//W3C//DTD SVG 1.1//EN"
 "http://www.w3.org/Graphics/SVG/1.1/DTD/svg11.dtd">
<!-- Generated by graphviz version 2.43.0 (0)
 -->
<!-- Title: G Pages: 1 -->
<svg width="926pt" height="1197pt"
 viewBox="0.00 0.00 925.76 1197.00" xmlns="http://www.w3.org/2000/svg" xmlns:xlink="http://www.w3.org/1999/xlink">
<g id="graph0" class="graph" transform="scale(1 1) rotate(0) translate(4 1193)">
<title>G</title>
<polygon fill="white" stroke="transparent" points="-4,4 -4,-1193 921.76,-1193 921.76,4 -4,4"/>
<!-- http://www.w3.org/2002/07/owl#Ontology -->
<g id="node1" class="node">
<title>http://www.w3.org/2002/07/owl#Ontology</title>
<ellipse fill="none" stroke="#1f77b4" cx="588.32" cy="-476.47" rx="77.56" ry="16.03"/>
<text text-anchor="middle" x="588.32" y="-472.77" font-family="Times,serif" font-size="14.00">owl:Ontology</text>
</g>
<!-- http://purl.org/oseg/ontologies/OTRL#OTRL -->
<g id="node2" class="node">
<title>http://purl.org/oseg/ontologies/OTRL#OTRL</title>
<ellipse fill="none" stroke="#e377c2" cx="361.19" cy="-560.2" rx="39.7" ry="16.03"/>
<text text-anchor="middle" x="361.19" y="-556.5" font-family="Times,serif" font-size="14.00">OTRL</text>
</g>
<!-- http://www.w3.org/2002/07/owl#class -->
<g id="node3" class="node">
<title>http://www.w3.org/2002/07/owl#class</title>
<ellipse fill="none" stroke="#1f77b4" cx="286.13" cy="-872.97" rx="57.05" ry="16.03"/>
<text text-anchor="middle" x="286.13" y="-869.27" font-family="Times,serif" font-size="14.00">owl:class</text>
</g>
<!-- http://purl.org/oseg/ontologies/OTRL#OTRL&#45;&gt;http://www.w3.org/2002/07/owl#class -->
<g id="edge37" class="edge">
<title>http://purl.org/oseg/ontologies/OTRL#OTRL&#45;&gt;http://www.w3.org/2002/07/owl#class</title>
<path fill="none" stroke="black" d="M357.26,-576.58C345.03,-627.55 307.55,-783.72 292.49,-846.47"/>
<polygon fill="black" stroke="black" points="289.04,-845.84 290.11,-856.38 295.85,-847.47 289.04,-845.84"/>
<text text-anchor="middle" x="320.37" y="-715.32" font-family="Times,serif" font-size="14.00">a</text>
</g>
<!-- http://www.w3.org/2002/07/owl#DatatypeProperty -->
<g id="node4" class="node">
<title>http://www.w3.org/2002/07/owl#DatatypeProperty</title>
<ellipse fill="none" stroke="#1f77b4" cx="610.86" cy="-208.97" rx="123.07" ry="16.03"/>
<text text-anchor="middle" x="610.86" y="-205.27" font-family="Times,serif" font-size="14.00">owl:DatatypeProperty</text>
</g>
<!-- http://purl.org/oseg/ontologies/OTRL#ODRL -->
<g id="node5" class="node">
<title>http://purl.org/oseg/ontologies/OTRL#ODRL</title>
<ellipse fill="none" stroke="#e377c2" cx="224.76" cy="-1069.38" rx="41.94" ry="16.03"/>
<text text-anchor="middle" x="224.76" y="-1065.68" font-family="Times,serif" font-size="14.00">ODRL</text>
</g>
<!-- http://purl.org/oseg/ontologies/OTRL#ODRL&#45;&gt;http://www.w3.org/2002/07/owl#class -->
<g id="edge7" class="edge">
<title>http://purl.org/oseg/ontologies/OTRL#ODRL&#45;&gt;http://www.w3.org/2002/07/owl#class</title>
<path fill="none" stroke="black" d="M229.89,-1052.97C240.56,-1018.81 265.25,-939.79 278.07,-898.76"/>
<polygon fill="black" stroke="black" points="281.42,-899.78 281.06,-889.19 274.74,-897.69 281.42,-899.78"/>
<text text-anchor="middle" x="249.48" y="-979.67" font-family="Times,serif" font-size="14.00">a</text>
</g>
<!-- http://schema.org/Text -->
<g id="node6" class="node">
<title>http://schema.org/Text</title>
<ellipse fill="none" stroke="#e377c2" cx="408.72" cy="-16.33" rx="74.91" ry="16.03"/>
<text text-anchor="middle" x="408.72" y="-12.63" font-family="Times,serif" font-size="14.00">schema:Text</text>
</g>
<!-- http://purl.org/oseg/ontologies/OTRL#OTRL&#45;2 -->
<g id="node7" class="node">
<title>http://purl.org/oseg/ontologies/OTRL#OTRL&#45;2</title>
<ellipse fill="none" stroke="#e377c2" cx="210.11" cy="-721.79" rx="49.49" ry="16.03"/>
<text text-anchor="middle" x="210.11" y="-718.09" font-family="Times,serif" font-size="14.00">OTRL&#45;2</text>
</g>
<!-- http://purl.org/oseg/ontologies/OTRL#OTRL&#45;2&#45;&gt;http://purl.org/oseg/ontologies/OTRL#OTRL -->
<g id="edge28" class="edge">
<title>http://purl.org/oseg/ontologies/OTRL#OTRL&#45;2&#45;&gt;http://purl.org/oseg/ontologies/OTRL#OTRL</title>
<path fill="none" stroke="black" d="M224.87,-706C251.68,-677.33 308.47,-616.59 339.62,-583.27"/>
<polygon fill="black" stroke="black" points="342.32,-585.51 346.59,-575.82 337.21,-580.73 342.32,-585.51"/>
</g>
<!-- http://purl.org/oseg/ontologies/OTRL#OTRL&#45;2&#45;&gt;http://www.w3.org/2002/07/owl#class -->
<g id="edge18" class="edge">
<title>http://purl.org/oseg/ontologies/OTRL#OTRL&#45;2&#45;&gt;http://www.w3.org/2002/07/owl#class</title>
<path fill="none" stroke="black" d="M218.25,-737.97C231.44,-764.2 257.59,-816.22 273.31,-847.47"/>
<polygon fill="black" stroke="black" points="270.2,-849.09 277.82,-856.45 276.46,-845.94 270.2,-849.09"/>
<text text-anchor="middle" x="241.28" y="-796.52" font-family="Times,serif" font-size="14.00">a</text>
</g>
<!-- http://purl.org/oseg/ontologies/OTRL#OTRL&#45;5 -->
<g id="node8" class="node">
<title>http://purl.org/oseg/ontologies/OTRL#OTRL&#45;5</title>
<ellipse fill="none" stroke="#e377c2" cx="153.11" cy="-613.89" rx="49.49" ry="16.03"/>
<text text-anchor="middle" x="153.11" y="-610.19" font-family="Times,serif" font-size="14.00">OTRL&#45;5</text>
</g>
<!-- http://purl.org/oseg/ontologies/OTRL#OTRL&#45;5&#45;&gt;http://purl.org/oseg/ontologies/OTRL#OTRL -->
<g id="edge31" class="edge">
<title>http://purl.org/oseg/ontologies/OTRL#OTRL&#45;5&#45;&gt;http://purl.org/oseg/ontologies/OTRL#OTRL</title>
<path fill="none" stroke="black" d="M192.25,-603.79C227.86,-594.6 280.38,-581.05 317.39,-571.5"/>
<polygon fill="black" stroke="black" points="318.58,-574.81 327.39,-568.92 316.83,-568.03 318.58,-574.81"/>
</g>
<!-- http://purl.org/oseg/ontologies/OTRL#OTRL&#45;5&#45;&gt;http://www.w3.org/2002/07/owl#class -->
<g id="edge21" class="edge">
<title>http://purl.org/oseg/ontologies/OTRL#OTRL&#45;5&#45;&gt;http://www.w3.org/2002/07/owl#class</title>
<path fill="none" stroke="black" d="M161.43,-630.1C183.92,-673.9 246.04,-794.89 273.17,-847.73"/>
<polygon fill="black" stroke="black" points="270.13,-849.47 277.81,-856.77 276.36,-846.27 270.13,-849.47"/>
<text text-anchor="middle" x="212.8" y="-742.71" font-family="Times,serif" font-size="14.00">a</text>
</g>
<!-- http://purl.org/oseg/ontologies/OTRL#documentationDescription -->
<g id="node9" class="node">
<title>http://purl.org/oseg/ontologies/OTRL#documentationDescription</title>
<ellipse fill="none" stroke="#e377c2" cx="607.97" cy="-251.1" rx="120.83" ry="16.03"/>
<text text-anchor="middle" x="607.97" y="-247.4" font-family="Times,serif" font-size="14.00">documentationDesc...</text>
</g>
<!-- http://purl.org/oseg/ontologies/OTRL#documentationDescription&#45;&gt;http://purl.org/oseg/ontologies/OTRL#OTRL -->
<g id="edge19" class="edge">
<title>http://purl.org/oseg/ontologies/OTRL#documentationDescription&#45;&gt;http://purl.org/oseg/ontologies/OTRL#OTRL</title>
<path fill="none" stroke="black" d="M595.05,-267.28C554.31,-318.31 428.4,-476.02 380.21,-536.37"/>
<polygon fill="black" stroke="black" points="377.19,-534.55 373.69,-544.55 382.66,-538.92 377.19,-534.55"/>
<text text-anchor="middle" x="461.13" y="-405.63" font-family="Times,serif" font-size="14.00">domain</text>
</g>
<!-- http://purl.org/oseg/ontologies/OTRL#documentationDescription&#45;&gt;http://www.w3.org/2002/07/owl#DatatypeProperty -->
<g id="edge25" class="edge">
<title>http://purl.org/oseg/ontologies/OTRL#documentationDescription&#45;&gt;http://www.w3.org/2002/07/owl#DatatypeProperty</title>
<path fill="none" stroke="black" d="M609.11,-234.45C609.12,-234.35 609.13,-234.26 609.13,-234.17"/>
<polygon fill="black" stroke="black" points="612.53,-235.71 609.73,-225.5 605.55,-235.23 612.53,-235.71"/>
<text text-anchor="middle" x="604.62" y="-223.11" font-family="Times,serif" font-size="14.00">a</text>
</g>
<!-- http://purl.org/oseg/ontologies/OTRL#documentationDescription&#45;&gt;http://schema.org/Text -->
<g id="edge32" class="edge">
<title>http://purl.org/oseg/ontologies/OTRL#documentationDescription&#45;&gt;http://schema.org/Text</title>
<path fill="none" stroke="black" d="M593.96,-234.59C559.29,-193.74 469.39,-87.82 428.95,-40.17"/>
<polygon fill="black" stroke="black" points="431.59,-37.87 422.45,-32.51 426.25,-42.4 431.59,-37.87"/>
<text text-anchor="middle" x="490.46" y="-141.18" font-family="Times,serif" font-size="14.00">range</text>
</g>
<!-- http://purl.org/oseg/ontologies/OTRL#exitCriteria -->
<g id="node10" class="node">
<title>http://purl.org/oseg/ontologies/OTRL#exitCriteria</title>
<ellipse fill="none" stroke="#e377c2" cx="405.63" cy="-291.46" rx="70.01" ry="16.03"/>
<text text-anchor="middle" x="405.63" y="-287.76" font-family="Times,serif" font-size="14.00">exitCriteria</text>
</g>
<!-- http://purl.org/oseg/ontologies/OTRL#exitCriteria&#45;&gt;http://purl.org/oseg/ontologies/OTRL#OTRL -->
<g id="edge34" class="edge">
<title>http://purl.org/oseg/ontologies/OTRL#exitCriteria&#45;&gt;http://purl.org/oseg/ontologies/OTRL#OTRL</title>
<path fill="none" stroke="black" d="M402.92,-307.87C395.48,-352.85 374.71,-478.43 365.59,-533.61"/>
<polygon fill="black" stroke="black" points="362.1,-533.23 363.93,-543.67 369.01,-534.37 362.1,-533.23"/>
<text text-anchor="middle" x="357.75" y="-424.54" font-family="Times,serif" font-size="14.00">domain</text>
</g>
<!-- http://purl.org/oseg/ontologies/OTRL#exitCriteria&#45;&gt;http://www.w3.org/2002/07/owl#DatatypeProperty -->
<g id="edge4" class="edge">
<title>http://purl.org/oseg/ontologies/OTRL#exitCriteria&#45;&gt;http://www.w3.org/2002/07/owl#DatatypeProperty</title>
<path fill="none" stroke="black" d="M440.91,-277.28C474.47,-263.79 525.24,-243.38 562.55,-228.39"/>
<polygon fill="black" stroke="black" points="564.23,-231.48 572.2,-224.5 561.62,-224.99 564.23,-231.48"/>
<text text-anchor="middle" x="497.23" y="-256.63" font-family="Times,serif" font-size="14.00">a</text>
</g>
<!-- http://purl.org/oseg/ontologies/OTRL#exitCriteria&#45;&gt;http://schema.org/Text -->
<g id="edge20" class="edge">
<title>http://purl.org/oseg/ontologies/OTRL#exitCriteria&#45;&gt;http://schema.org/Text</title>
<path fill="none" stroke="black" d="M405.82,-275.07C406.33,-229.2 407.79,-99.17 408.42,-42.86"/>
<polygon fill="black" stroke="black" points="411.93,-42.67 408.54,-32.63 404.93,-42.59 411.93,-42.67"/>
<text text-anchor="middle" x="386.12" y="-162.77" font-family="Times,serif" font-size="14.00">range</text>
</g>
<!-- http://purl.org/oseg/ontologies/OTRL#OTRL&#45;7 -->
<g id="node11" class="node">
<title>http://purl.org/oseg/ontologies/OTRL#OTRL&#45;7</title>
<ellipse fill="none" stroke="#e377c2" cx="499.95" cy="-672.59" rx="49.49" ry="16.03"/>
<text text-anchor="middle" x="499.95" y="-668.89" font-family="Times,serif" font-size="14.00">OTRL&#45;7</text>
</g>
<!-- http://purl.org/oseg/ontologies/OTRL#OTRL&#45;7&#45;&gt;http://purl.org/oseg/ontologies/OTRL#OTRL -->
<g id="edge39" class="edge">
<title>http://purl.org/oseg/ontologies/OTRL#OTRL&#45;7&#45;&gt;http://purl.org/oseg/ontologies/OTRL#OTRL</title>
<path fill="none" stroke="black" d="M481.23,-657.43C456.97,-637.77 414.51,-603.39 387.14,-581.22"/>
<polygon fill="black" stroke="black" points="389.14,-578.34 379.17,-574.76 384.74,-583.78 389.14,-578.34"/>
</g>
<!-- http://purl.org/oseg/ontologies/OTRL#OTRL&#45;7&#45;&gt;http://www.w3.org/2002/07/owl#class -->
<g id="edge5" class="edge">
<title>http://purl.org/oseg/ontologies/OTRL#OTRL&#45;7&#45;&gt;http://www.w3.org/2002/07/owl#class</title>
<path fill="none" stroke="black" d="M483.52,-687.98C446.07,-723.08 354.19,-809.18 310.27,-850.34"/>
<polygon fill="black" stroke="black" points="307.8,-847.86 302.9,-857.25 312.59,-852.96 307.8,-847.86"/>
<text text-anchor="middle" x="392.4" y="-772.96" font-family="Times,serif" font-size="14.00">a</text>
</g>
<!-- http://purl.org/oseg/ontologies/OTRL#ODRL&#45;3 -->
<g id="node12" class="node">
<title>http://purl.org/oseg/ontologies/OTRL#ODRL&#45;3</title>
<ellipse fill="none" stroke="#e377c2" cx="257.86" cy="-1173.03" rx="50.82" ry="16.03"/>
<text text-anchor="middle" x="257.86" y="-1169.33" font-family="Times,serif" font-size="14.00">ODRL&#45;3</text>
</g>
<!-- http://purl.org/oseg/ontologies/OTRL#ODRL&#45;3&#45;&gt;http://www.w3.org/2002/07/owl#class -->
<g id="edge30" class="edge">
<title>http://purl.org/oseg/ontologies/OTRL#ODRL&#45;3&#45;&gt;http://www.w3.org/2002/07/owl#class</title>
<path fill="none" stroke="black" d="M259.42,-1156.47C264.07,-1107.08 277.88,-960.49 283.6,-899.77"/>
<polygon fill="black" stroke="black" points="287.12,-899.76 284.57,-889.48 280.15,-899.11 287.12,-899.76"/>
<text text-anchor="middle" x="267.01" y="-1031.92" font-family="Times,serif" font-size="14.00">a</text>
</g>
<!-- http://purl.org/oseg/ontologies/OTRL#ODRL&#45;3&#45;&gt;http://purl.org/oseg/ontologies/OTRL#ODRL -->
<g id="edge27" class="edge">
<title>http://purl.org/oseg/ontologies/OTRL#ODRL&#45;3&#45;&gt;http://purl.org/oseg/ontologies/OTRL#ODRL</title>
<path fill="none" stroke="black" d="M252.68,-1156.84C247.45,-1140.43 239.26,-1114.78 233.1,-1095.5"/>
<polygon fill="black" stroke="black" points="236.38,-1094.27 230.01,-1085.81 229.71,-1096.4 236.38,-1094.27"/>
</g>
<!-- http://purl.org/oseg/ontologies/OTRL#OTRL&#45;3 -->
<g id="node13" class="node">
<title>http://purl.org/oseg/ontologies/OTRL#OTRL&#45;3</title>
<ellipse fill="none" stroke="#e377c2" cx="505.67" cy="-793.83" rx="49.49" ry="16.03"/>
<text text-anchor="middle" x="505.67" y="-790.13" font-family="Times,serif" font-size="14.00">OTRL&#45;3</text>
</g>
<!-- http://purl.org/oseg/ontologies/OTRL#OTRL&#45;3&#45;&gt;http://purl.org/oseg/ontologies/OTRL#OTRL -->
<g id="edge29" class="edge">
<title>http://purl.org/oseg/ontologies/OTRL#OTRL&#45;3&#45;&gt;http://purl.org/oseg/ontologies/OTRL#OTRL</title>
<path fill="none" stroke="black" d="M495.74,-777.77C470.88,-737.58 405.87,-632.44 376.26,-584.57"/>
<polygon fill="black" stroke="black" points="379.24,-582.73 371,-576.06 373.28,-586.41 379.24,-582.73"/>
</g>
<!-- http://purl.org/oseg/ontologies/OTRL#OTRL&#45;3&#45;&gt;http://www.w3.org/2002/07/owl#class -->
<g id="edge6" class="edge">
<title>http://purl.org/oseg/ontologies/OTRL#OTRL&#45;3&#45;&gt;http://www.w3.org/2002/07/owl#class</title>
<path fill="none" stroke="black" d="M471.85,-806.02C434.21,-819.59 373.21,-841.58 331.46,-856.63"/>
<polygon fill="black" stroke="black" points="330.03,-853.42 321.81,-860.11 332.4,-860.01 330.03,-853.42"/>
<text text-anchor="middle" x="397.15" y="-835.13" font-family="Times,serif" font-size="14.00">a</text>
</g>
<!-- http://purl.org/oseg/ontologies/OTRL#ODRL&#45;5 -->
<g id="node14" class="node">
<title>http://purl.org/oseg/ontologies/OTRL#ODRL&#45;5</title>
<ellipse fill="none" stroke="#e377c2" cx="372.37" cy="-1144.81" rx="50.82" ry="16.03"/>
<text text-anchor="middle" x="372.37" y="-1141.11" font-family="Times,serif" font-size="14.00">ODRL&#45;5</text>
</g>
<!-- http://purl.org/oseg/ontologies/OTRL#ODRL&#45;5&#45;&gt;http://www.w3.org/2002/07/owl#class -->
<g id="edge33" class="edge">
<title>http://purl.org/oseg/ontologies/OTRL#ODRL&#45;5&#45;&gt;http://www.w3.org/2002/07/owl#class</title>
<path fill="none" stroke="black" d="M367.23,-1128.62C352.86,-1083.3 312.12,-954.89 294.46,-899.23"/>
<polygon fill="black" stroke="black" points="297.71,-897.89 291.35,-889.42 291.03,-900.01 297.71,-897.89"/>
<text text-anchor="middle" x="326.35" y="-1017.72" font-family="Times,serif" font-size="14.00">a</text>
</g>
<!-- http://purl.org/oseg/ontologies/OTRL#ODRL&#45;5&#45;&gt;http://purl.org/oseg/ontologies/OTRL#ODRL -->
<g id="edge2" class="edge">
<title>http://purl.org/oseg/ontologies/OTRL#ODRL&#45;5&#45;&gt;http://purl.org/oseg/ontologies/OTRL#ODRL</title>
<path fill="none" stroke="black" d="M345.3,-1130.97C321.13,-1118.62 285.61,-1100.48 259.39,-1087.08"/>
<polygon fill="black" stroke="black" points="260.68,-1083.81 250.18,-1082.37 257.5,-1090.04 260.68,-1083.81"/>
</g>
<!-- http://purl.org/oseg/ontologies/OTRL -->
<g id="node15" class="node">
<title>http://purl.org/oseg/ontologies/OTRL</title>
<ellipse fill="none" stroke="#e377c2" cx="735.95" cy="-454.42" rx="60.62" ry="16.03"/>
<text text-anchor="middle" x="735.95" y="-450.72" font-family="Times,serif" font-size="14.00">ns1:OTRL</text>
</g>
<!-- http://purl.org/oseg/ontologies/OTRL&#45;&gt;http://www.w3.org/2002/07/owl#Ontology -->
<g id="edge35" class="edge">
<title>http://purl.org/oseg/ontologies/OTRL&#45;&gt;http://www.w3.org/2002/07/owl#Ontology</title>
<path fill="none" stroke="black" d="M682.65,-462.38C675.94,-463.38 668.98,-464.42 662.02,-465.46"/>
<polygon fill="black" stroke="black" points="661.22,-462.04 651.85,-466.98 662.26,-468.96 661.22,-462.04"/>
<text text-anchor="middle" x="670.08" y="-452.72" font-family="Times,serif" font-size="14.00">a</text>
</g>
<!-- http://purl.org/oseg/ontologies/OTRL&#45;&gt;http://purl.org/oseg/ontologies/OTRL -->
<g id="edge36" class="edge">
<title>http://purl.org/oseg/ontologies/OTRL&#45;&gt;http://purl.org/oseg/ontologies/OTRL</title>
<path fill="none" stroke="black" d="M791.55,-461.05C804.89,-460.53 814.76,-458.32 814.76,-454.42 814.76,-451.58 809.55,-449.64 801.58,-448.59"/>
<polygon fill="black" stroke="black" points="801.8,-445.1 791.55,-447.78 801.24,-452.07 801.8,-445.1"/>
<text text-anchor="middle" x="866.26" y="-450.72" font-family="Times,serif" font-size="14.00">owl:versionIRI</text>
</g>
<!-- http://purl.org/oseg/ontologies/OTRL#ODRL&#45;4 -->
<g id="node16" class="node">
<title>http://purl.org/oseg/ontologies/OTRL#ODRL&#45;4</title>
<ellipse fill="none" stroke="#e377c2" cx="134.47" cy="-1124.98" rx="50.82" ry="16.03"/>
<text text-anchor="middle" x="134.47" y="-1121.28" font-family="Times,serif" font-size="14.00">ODRL&#45;4</text>
</g>
<!-- http://purl.org/oseg/ontologies/OTRL#ODRL&#45;4&#45;&gt;http://www.w3.org/2002/07/owl#class -->
<g id="edge9" class="edge">
<title>http://purl.org/oseg/ontologies/OTRL#ODRL&#45;4&#45;&gt;http://www.w3.org/2002/07/owl#class</title>
<path fill="none" stroke="black" d="M144.19,-1108.83C169.91,-1066.08 239.94,-949.72 270.97,-898.15"/>
<polygon fill="black" stroke="black" points="274.14,-899.68 276.29,-889.31 268.14,-896.07 274.14,-899.68"/>
<text text-anchor="middle" x="203.08" y="-1007.29" font-family="Times,serif" font-size="14.00">a</text>
</g>
<!-- http://purl.org/oseg/ontologies/OTRL#ODRL&#45;4&#45;&gt;http://purl.org/oseg/ontologies/OTRL#ODRL -->
<g id="edge8" class="edge">
<title>http://purl.org/oseg/ontologies/OTRL#ODRL&#45;4&#45;&gt;http://purl.org/oseg/ontologies/OTRL#ODRL</title>
<path fill="none" stroke="black" d="M158.19,-1110.37C169.1,-1103.65 182.18,-1095.6 193.85,-1088.42"/>
<polygon fill="black" stroke="black" points="195.76,-1091.35 202.44,-1083.13 192.09,-1085.39 195.76,-1091.35"/>
</g>
<!-- http://purl.org/oseg/ontologies/OTRL#OTRL&#45;6 -->
<g id="node17" class="node">
<title>http://purl.org/oseg/ontologies/OTRL#OTRL&#45;6</title>
<ellipse fill="none" stroke="#e377c2" cx="394.47" cy="-770.07" rx="49.49" ry="16.03"/>
<text text-anchor="middle" x="394.47" y="-766.37" font-family="Times,serif" font-size="14.00">OTRL&#45;6</text>
</g>
<!-- http://purl.org/oseg/ontologies/OTRL#OTRL&#45;6&#45;&gt;http://purl.org/oseg/ontologies/OTRL#OTRL -->
<g id="edge22" class="edge">
<title>http://purl.org/oseg/ontologies/OTRL#OTRL&#45;6&#45;&gt;http://purl.org/oseg/ontologies/OTRL#OTRL</title>
<path fill="none" stroke="black" d="M391.86,-753.6C386.11,-717.36 372.33,-630.43 365.36,-586.52"/>
<polygon fill="black" stroke="black" points="368.81,-585.92 363.79,-576.59 361.9,-587.02 368.81,-585.92"/>
</g>
<!-- http://purl.org/oseg/ontologies/OTRL#OTRL&#45;6&#45;&gt;http://www.w3.org/2002/07/owl#class -->
<g id="edge10" class="edge">
<title>http://purl.org/oseg/ontologies/OTRL#OTRL&#45;6&#45;&gt;http://www.w3.org/2002/07/owl#class</title>
<path fill="none" stroke="black" d="M378.01,-785.7C359.96,-802.85 330.8,-830.54 310.18,-850.12"/>
<polygon fill="black" stroke="black" points="307.58,-847.77 302.74,-857.19 312.4,-852.84 307.58,-847.77"/>
<text text-anchor="middle" x="339.6" y="-821.71" font-family="Times,serif" font-size="14.00">a</text>
</g>
<!-- http://purl.org/oseg/ontologies/OTRL#softwareDescription -->
<g id="node18" class="node">
<title>http://purl.org/oseg/ontologies/OTRL#softwareDescription</title>
<ellipse fill="none" stroke="#e377c2" cx="212.41" cy="-252.87" rx="113.69" ry="16.03"/>
<text text-anchor="middle" x="212.41" y="-249.17" font-family="Times,serif" font-size="14.00">softwareDescription</text>
</g>
<!-- http://purl.org/oseg/ontologies/OTRL#softwareDescription&#45;&gt;http://purl.org/oseg/ontologies/OTRL#OTRL -->
<g id="edge1" class="edge">
<title>http://purl.org/oseg/ontologies/OTRL#softwareDescription&#45;&gt;http://purl.org/oseg/ontologies/OTRL#OTRL</title>
<path fill="none" stroke="black" d="M220.41,-269.4C244.94,-320.06 319.22,-473.5 348.82,-534.65"/>
<polygon fill="black" stroke="black" points="345.83,-536.49 353.33,-543.97 352.13,-533.44 345.83,-536.49"/>
<text text-anchor="middle" x="258.12" y="-405.82" font-family="Times,serif" font-size="14.00">domain</text>
</g>
<!-- http://purl.org/oseg/ontologies/OTRL#softwareDescription&#45;&gt;http://www.w3.org/2002/07/owl#DatatypeProperty -->
<g id="edge38" class="edge">
<title>http://purl.org/oseg/ontologies/OTRL#softwareDescription&#45;&gt;http://www.w3.org/2002/07/owl#DatatypeProperty</title>
<path fill="none" stroke="black" d="M302.83,-242.91C363.31,-236.25 443.09,-227.45 506.3,-220.49"/>
<polygon fill="black" stroke="black" points="506.74,-223.96 516.3,-219.39 505.97,-217 506.74,-223.96"/>
<text text-anchor="middle" x="400.06" y="-235.5" font-family="Times,serif" font-size="14.00">a</text>
</g>
<!-- http://purl.org/oseg/ontologies/OTRL#softwareDescription&#45;&gt;http://schema.org/Text -->
<g id="edge17" class="edge">
<title>http://purl.org/oseg/ontologies/OTRL#softwareDescription&#45;&gt;http://schema.org/Text</title>
<path fill="none" stroke="black" d="M225.91,-236.61C259.89,-195.67 349.13,-88.14 388.99,-40.11"/>
<polygon fill="black" stroke="black" points="391.7,-42.32 395.39,-32.39 386.31,-37.85 391.7,-42.32"/>
<text text-anchor="middle" x="286.45" y="-142.16" font-family="Times,serif" font-size="14.00">range</text>
</g>
<!-- http://purl.org/oseg/ontologies/OTRL#ODRL&#45;0 -->
<g id="node19" class="node">
<title>http://purl.org/oseg/ontologies/OTRL#ODRL&#45;0</title>
<ellipse fill="none" stroke="#e377c2" cx="432.44" cy="-1081.75" rx="50.82" ry="16.03"/>
<text text-anchor="middle" x="432.44" y="-1078.05" font-family="Times,serif" font-size="14.00">ODRL&#45;0</text>
</g>
<!-- http://purl.org/oseg/ontologies/OTRL#ODRL&#45;0&#45;&gt;http://www.w3.org/2002/07/owl#class -->
<g id="edge11" class="edge">
<title>http://purl.org/oseg/ontologies/OTRL#ODRL&#45;0&#45;&gt;http://www.w3.org/2002/07/owl#class</title>
<path fill="none" stroke="black" d="M421.2,-1065.71C395.72,-1029.36 333.43,-940.47 303.18,-897.3"/>
<polygon fill="black" stroke="black" points="306.01,-895.24 297.4,-889.06 300.28,-899.26 306.01,-895.24"/>
<text text-anchor="middle" x="357.69" y="-985.31" font-family="Times,serif" font-size="14.00">a</text>
</g>
<!-- http://purl.org/oseg/ontologies/OTRL#ODRL&#45;0&#45;&gt;http://purl.org/oseg/ontologies/OTRL#ODRL -->
<g id="edge24" class="edge">
<title>http://purl.org/oseg/ontologies/OTRL#ODRL&#45;0&#45;&gt;http://purl.org/oseg/ontologies/OTRL#ODRL</title>
<path fill="none" stroke="black" d="M382.17,-1078.76C350.1,-1076.85 308.66,-1074.38 276.34,-1072.45"/>
<polygon fill="black" stroke="black" points="276.39,-1068.95 266.2,-1071.85 275.97,-1075.94 276.39,-1068.95"/>
</g>
<!-- http://purl.org/oseg/ontologies/OTRL#OTRL&#45;1 -->
<g id="node20" class="node">
<title>http://purl.org/oseg/ontologies/OTRL#OTRL&#45;1</title>
<ellipse fill="none" stroke="#e377c2" cx="389.72" cy="-678.68" rx="49.49" ry="16.03"/>
<text text-anchor="middle" x="389.72" y="-674.98" font-family="Times,serif" font-size="14.00">OTRL&#45;1</text>
</g>
<!-- http://purl.org/oseg/ontologies/OTRL#OTRL&#45;1&#45;&gt;http://purl.org/oseg/ontologies/OTRL#OTRL -->
<g id="edge23" class="edge">
<title>http://purl.org/oseg/ontologies/OTRL#OTRL&#45;1&#45;&gt;http://purl.org/oseg/ontologies/OTRL#OTRL</title>
<path fill="none" stroke="black" d="M385.75,-662.2C381.03,-642.58 373.07,-609.53 367.5,-586.39"/>
<polygon fill="black" stroke="black" points="370.87,-585.44 365.12,-576.54 364.06,-587.08 370.87,-585.44"/>
</g>
<!-- http://purl.org/oseg/ontologies/OTRL#OTRL&#45;1&#45;&gt;http://www.w3.org/2002/07/owl#class -->
<g id="edge12" class="edge">
<title>http://purl.org/oseg/ontologies/OTRL#OTRL&#45;1&#45;&gt;http://www.w3.org/2002/07/owl#class</title>
<path fill="none" stroke="black" d="M381.07,-694.91C363.01,-728.77 321.23,-807.14 299.62,-847.67"/>
<polygon fill="black" stroke="black" points="296.45,-846.18 294.83,-856.65 302.62,-849.47 296.45,-846.18"/>
<text text-anchor="middle" x="335.84" y="-775.09" font-family="Times,serif" font-size="14.00">a</text>
</g>
<!-- http://purl.org/oseg/ontologies/OTRL#OTRL&#45;4 -->
<g id="node21" class="node">
<title>http://purl.org/oseg/ontologies/OTRL#OTRL&#45;4</title>
<ellipse fill="none" stroke="#e377c2" cx="131.97" cy="-680.93" rx="49.49" ry="16.03"/>
<text text-anchor="middle" x="131.97" y="-677.23" font-family="Times,serif" font-size="14.00">OTRL&#45;4</text>
</g>
<!-- http://purl.org/oseg/ontologies/OTRL#OTRL&#45;4&#45;&gt;http://purl.org/oseg/ontologies/OTRL#OTRL -->
<g id="edge40" class="edge">
<title>http://purl.org/oseg/ontologies/OTRL#OTRL&#45;4&#45;&gt;http://purl.org/oseg/ontologies/OTRL#OTRL</title>
<path fill="none" stroke="black" d="M158.26,-667.08C200.07,-645.06 281.66,-602.09 327.62,-577.88"/>
<polygon fill="black" stroke="black" points="329.38,-580.91 336.59,-573.16 326.11,-574.72 329.38,-580.91"/>
</g>
<!-- http://purl.org/oseg/ontologies/OTRL#OTRL&#45;4&#45;&gt;http://www.w3.org/2002/07/owl#class -->
<g id="edge13" class="edge">
<title>http://purl.org/oseg/ontologies/OTRL#OTRL&#45;4&#45;&gt;http://www.w3.org/2002/07/owl#class</title>
<path fill="none" stroke="black" d="M144.85,-696.97C172.01,-730.8 235.26,-809.6 267.1,-849.27"/>
<polygon fill="black" stroke="black" points="264.4,-851.5 273.39,-857.11 269.86,-847.12 264.4,-851.5"/>
<text text-anchor="middle" x="201.47" y="-776.92" font-family="Times,serif" font-size="14.00">a</text>
</g>
<!-- http://purl.org/oseg/ontologies/OTRL#ODRL&#45;1 -->
<g id="node22" class="node">
<title>http://purl.org/oseg/ontologies/OTRL#ODRL&#45;1</title>
<ellipse fill="none" stroke="#e377c2" cx="50.95" cy="-965.92" rx="50.82" ry="16.03"/>
<text text-anchor="middle" x="50.95" y="-962.22" font-family="Times,serif" font-size="14.00">ODRL&#45;1</text>
</g>
<!-- http://purl.org/oseg/ontologies/OTRL#ODRL&#45;1&#45;&gt;http://www.w3.org/2002/07/owl#class -->
<g id="edge41" class="edge">
<title>http://purl.org/oseg/ontologies/OTRL#ODRL&#45;1&#45;&gt;http://www.w3.org/2002/07/owl#class</title>
<path fill="none" stroke="black" d="M83.16,-953.19C124.62,-936.81 196.8,-908.28 242.97,-890.03"/>
<polygon fill="black" stroke="black" points="244.4,-893.23 252.41,-886.3 241.82,-886.72 244.4,-893.23"/>
<text text-anchor="middle" x="158.57" y="-925.41" font-family="Times,serif" font-size="14.00">a</text>
</g>
<!-- http://purl.org/oseg/ontologies/OTRL#ODRL&#45;1&#45;&gt;http://purl.org/oseg/ontologies/OTRL#ODRL -->
<g id="edge42" class="edge">
<title>http://purl.org/oseg/ontologies/OTRL#ODRL&#45;1&#45;&gt;http://purl.org/oseg/ontologies/OTRL#ODRL</title>
<path fill="none" stroke="black" d="M75.12,-980.31C105.86,-998.61 159.02,-1030.25 193.01,-1050.48"/>
<polygon fill="black" stroke="black" points="191.25,-1053.51 201.63,-1055.61 194.83,-1047.49 191.25,-1053.51"/>
</g>
<!-- http://purl.org/oseg/ontologies/OTRL#OTRL&#45;8 -->
<g id="node23" class="node">
<title>http://purl.org/oseg/ontologies/OTRL#OTRL&#45;8</title>
<ellipse fill="none" stroke="#e377c2" cx="260.16" cy="-639.73" rx="49.49" ry="16.03"/>
<text text-anchor="middle" x="260.16" y="-636.03" font-family="Times,serif" font-size="14.00">OTRL&#45;8</text>
</g>
<!-- http://purl.org/oseg/ontologies/OTRL#OTRL&#45;8&#45;&gt;http://purl.org/oseg/ontologies/OTRL#OTRL -->
<g id="edge43" class="edge">
<title>http://purl.org/oseg/ontologies/OTRL#OTRL&#45;8&#45;&gt;http://purl.org/oseg/ontologies/OTRL#OTRL</title>
<path fill="none" stroke="black" d="M279.64,-624.4C295.31,-612.06 317.48,-594.6 334.76,-581.01"/>
<polygon fill="black" stroke="black" points="337.1,-583.62 342.79,-574.68 332.77,-578.12 337.1,-583.62"/>
</g>
<!-- http://purl.org/oseg/ontologies/OTRL#OTRL&#45;8&#45;&gt;http://www.w3.org/2002/07/owl#class -->
<g id="edge14" class="edge">
<title>http://purl.org/oseg/ontologies/OTRL#OTRL&#45;8&#45;&gt;http://www.w3.org/2002/07/owl#class</title>
<path fill="none" stroke="black" d="M261.98,-656.13C266.42,-695.94 277.78,-797.99 283.18,-846.54"/>
<polygon fill="black" stroke="black" points="279.72,-847.03 284.3,-856.59 286.67,-846.26 279.72,-847.03"/>
<text text-anchor="middle" x="268.08" y="-755.13" font-family="Times,serif" font-size="14.00">a</text>
</g>
<!-- http://purl.org/oseg/ontologies/OTRL#ODRL&#45;2 -->
<g id="node24" class="node">
<title>http://purl.org/oseg/ontologies/OTRL#ODRL&#45;2</title>
<ellipse fill="none" stroke="#e377c2" cx="63.76" cy="-1051.27" rx="50.82" ry="16.03"/>
<text text-anchor="middle" x="63.76" y="-1047.57" font-family="Times,serif" font-size="14.00">ODRL&#45;2</text>
</g>
<!-- http://purl.org/oseg/ontologies/OTRL#ODRL&#45;2&#45;&gt;http://www.w3.org/2002/07/owl#class -->
<g id="edge15" class="edge">
<title>http://purl.org/oseg/ontologies/OTRL#ODRL&#45;2&#45;&gt;http://www.w3.org/2002/07/owl#class</title>
<path fill="none" stroke="black" d="M82.72,-1036.07C122.17,-1004.44 213.21,-931.43 258.92,-894.79"/>
<polygon fill="black" stroke="black" points="261.29,-897.37 266.9,-888.39 256.91,-891.91 261.29,-897.37"/>
<text text-anchor="middle" x="166.32" y="-969.23" font-family="Times,serif" font-size="14.00">a</text>
</g>
<!-- http://purl.org/oseg/ontologies/OTRL#ODRL&#45;2&#45;&gt;http://purl.org/oseg/ontologies/OTRL#ODRL -->
<g id="edge16" class="edge">
<title>http://purl.org/oseg/ontologies/OTRL#ODRL&#45;2&#45;&gt;http://purl.org/oseg/ontologies/OTRL#ODRL</title>
<path fill="none" stroke="black" d="M112.06,-1056.71C131.78,-1058.92 154.59,-1061.49 174.5,-1063.73"/>
<polygon fill="black" stroke="black" points="174.29,-1067.23 184.62,-1064.87 175.08,-1060.27 174.29,-1067.23"/>
</g>
<!-- http://purl.org/oseg/ontologies/OTRL#hardwareDescription -->
<g id="node25" class="node">
<title>http://purl.org/oseg/ontologies/OTRL#hardwareDescription</title>
<ellipse fill="none" stroke="#e377c2" cx="360.14" cy="-211.06" rx="118.17" ry="16.03"/>
<text text-anchor="middle" x="360.14" y="-207.36" font-family="Times,serif" font-size="14.00">hardwareDescription</text>
</g>
<!-- http://purl.org/oseg/ontologies/OTRL#hardwareDescription&#45;&gt;http://purl.org/oseg/ontologies/OTRL#OTRL -->
<g id="edge26" class="edge">
<title>http://purl.org/oseg/ontologies/OTRL#hardwareDescription&#45;&gt;http://purl.org/oseg/ontologies/OTRL#OTRL</title>
<path fill="none" stroke="black" d="M360.19,-227.43C360.36,-282.98 360.9,-464.66 361.11,-533.46"/>
<polygon fill="black" stroke="black" points="357.61,-533.88 361.14,-543.87 364.61,-533.86 357.61,-533.88"/>
<text text-anchor="middle" x="334.15" y="-384.25" font-family="Times,serif" font-size="14.00">domain</text>
</g>
<!-- http://purl.org/oseg/ontologies/OTRL#hardwareDescription&#45;&gt;http://www.w3.org/2002/07/owl#DatatypeProperty -->
<g id="edge45" class="edge">
<title>http://purl.org/oseg/ontologies/OTRL#hardwareDescription&#45;&gt;http://www.w3.org/2002/07/owl#DatatypeProperty</title>
<path fill="none" stroke="black" d="M478.16,-210.07C478.26,-210.07 478.36,-210.07 478.46,-210.07"/>
<polygon fill="black" stroke="black" points="477.73,-213.58 487.7,-209.99 477.67,-206.58 477.73,-213.58"/>
<text text-anchor="middle" x="482.81" y="-213.87" font-family="Times,serif" font-size="14.00">a</text>
</g>
<!-- http://purl.org/oseg/ontologies/OTRL#hardwareDescription&#45;&gt;http://schema.org/Text -->
<g id="edge3" class="edge">
<title>http://purl.org/oseg/ontologies/OTRL#hardwareDescription&#45;&gt;http://schema.org/Text</title>
<path fill="none" stroke="black" d="M364.2,-194.79C372.61,-161.07 392.01,-83.3 402.2,-42.46"/>
<polygon fill="black" stroke="black" points="405.62,-43.24 404.64,-32.69 398.82,-41.55 405.62,-43.24"/>
<text text-anchor="middle" x="362.2" y="-122.43" font-family="Times,serif" font-size="14.00">range</text>
</g>
<!-- http://purl.org/oseg/ontologies/OTRL#OTRL&#45;9 -->
<g id="node26" class="node">
<title>http://purl.org/oseg/ontologies/OTRL#OTRL&#45;9</title>
<ellipse fill="none" stroke="#e377c2" cx="524.78" cy="-733.27" rx="49.49" ry="16.03"/>
<text text-anchor="middle" x="524.78" y="-729.57" font-family="Times,serif" font-size="14.00">OTRL&#45;9</text>
</g>
<!-- http://purl.org/oseg/ontologies/OTRL#OTRL&#45;9&#45;&gt;http://purl.org/oseg/ontologies/OTRL#OTRL -->
<g id="edge44" class="edge">
<title>http://purl.org/oseg/ontologies/OTRL#OTRL&#45;9&#45;&gt;http://purl.org/oseg/ontologies/OTRL#OTRL</title>
<path fill="none" stroke="black" d="M509.98,-717.6C481.02,-686.97 416.78,-619.01 382.97,-583.24"/>
<polygon fill="black" stroke="black" points="385.26,-580.57 375.85,-575.71 380.17,-585.38 385.26,-580.57"/>
</g>
<!-- http://purl.org/oseg/ontologies/OTRL#OTRL&#45;9&#45;&gt;http://www.w3.org/2002/07/owl#class -->
<g id="edge46" class="edge">
<title>http://purl.org/oseg/ontologies/OTRL#OTRL&#45;9&#45;&gt;http://www.w3.org/2002/07/owl#class</title>
<path fill="none" stroke="black" d="M500.14,-747.69C457.29,-772.78 368.97,-824.47 320.25,-852.99"/>
<polygon fill="black" stroke="black" points="318.21,-850.13 311.35,-858.2 321.75,-856.17 318.21,-850.13"/>
<text text-anchor="middle" x="405.7" y="-804.14" font-family="Times,serif" font-size="14.00">a</text>
</g>
</g>
</svg>
