<?xml version="1.0" encoding="UTF-8" standalone="no"?>
<!DOCTYPE svg PUBLIC "-//W3C//DTD SVG 1.1//EN"
 "http://www.w3.org/Graphics/SVG/1.1/DTD/svg11.dtd">
<!-- Generated by graphviz version 2.43.0 (0)
 -->
<!-- Title: G Pages: 1 -->
<svg width="823pt" height="449pt"
 viewBox="0.00 0.00 822.76 449.00" xmlns="http://www.w3.org/2000/svg" xmlns:xlink="http://www.w3.org/1999/xlink">
<g id="graph0" class="graph" transform="scale(1 1) rotate(0) translate(4 445)">
<title>G</title>
<polygon fill="white" stroke="transparent" points="-4,4 -4,-445 818.76,-445 818.76,4 -4,4"/>
<!-- http://www.w3.org/2002/07/owl#Ontology -->
<g id="node1" class="node">
<title>http://www.w3.org/2002/07/owl#Ontology</title>
<ellipse fill="none" stroke="#1f77b4" cx="485.32" cy="-38.47" rx="77.56" ry="16.03"/>
<text text-anchor="middle" x="485.32" y="-34.77" font-family="Times,serif" font-size="14.00">owl:Ontology</text>
</g>
<!-- http://purl.org/oseg/ontologies/OTRL#OTRL -->
<g id="node2" class="node">
<title>http://purl.org/oseg/ontologies/OTRL#OTRL</title>
<ellipse fill="none" stroke="#e377c2" cx="335.6" cy="-210.9" rx="39.7" ry="16.03"/>
<text text-anchor="middle" x="335.6" y="-207.2" font-family="Times,serif" font-size="14.00">OTRL</text>
</g>
<!-- http://www.w3.org/2002/07/owl#class -->
<g id="node3" class="node">
<title>http://www.w3.org/2002/07/owl#class</title>
<ellipse fill="none" stroke="#1f77b4" cx="227.22" cy="-207.47" rx="57.05" ry="16.03"/>
<text text-anchor="middle" x="227.22" y="-203.77" font-family="Times,serif" font-size="14.00">owl:class</text>
</g>
<!-- http://purl.org/oseg/ontologies/OTRL#OTRL&#45;&gt;http://www.w3.org/2002/07/owl#class -->
<g id="edge22" class="edge">
<title>http://purl.org/oseg/ontologies/OTRL#OTRL&#45;&gt;http://www.w3.org/2002/07/owl#class</title>
<path fill="none" stroke="black" d="M295.86,-209.64C295.39,-209.63 294.92,-209.61 294.45,-209.6"/>
<polygon fill="black" stroke="black" points="294.51,-206.1 284.4,-209.28 294.29,-213.1 294.51,-206.1"/>
<text text-anchor="middle" x="290.66" y="-213.42" font-family="Times,serif" font-size="14.00">a</text>
</g>
<!-- http://www.w3.org/2002/07/owl#DatatypeProperty -->
<g id="node4" class="node">
<title>http://www.w3.org/2002/07/owl#DatatypeProperty</title>
<ellipse fill="none" stroke="#1f77b4" cx="458.58" cy="-412.66" rx="123.07" ry="16.03"/>
<text text-anchor="middle" x="458.58" y="-408.96" font-family="Times,serif" font-size="14.00">owl:DatatypeProperty</text>
</g>
<!-- http://purl.org/oseg/ontologies/OTRL#ODRL -->
<g id="node5" class="node">
<title>http://purl.org/oseg/ontologies/OTRL#ODRL</title>
<ellipse fill="none" stroke="#e377c2" cx="102.86" cy="-159.27" rx="41.94" ry="16.03"/>
<text text-anchor="middle" x="102.86" y="-155.57" font-family="Times,serif" font-size="14.00">ODRL</text>
</g>
<!-- http://purl.org/oseg/ontologies/OTRL#Odrl -->
<g id="node6" class="node">
<title>http://purl.org/oseg/ontologies/OTRL#Odrl</title>
<ellipse fill="none" stroke="#e377c2" cx="178.26" cy="-370.74" rx="33.88" ry="16.03"/>
<text text-anchor="middle" x="178.26" y="-367.04" font-family="Times,serif" font-size="14.00">Odrl</text>
</g>
<!-- http://purl.org/oseg/ontologies/OTRL#Odrl&#45;&gt;http://www.w3.org/2002/07/owl#class -->
<g id="edge9" class="edge">
<title>http://purl.org/oseg/ontologies/OTRL#Odrl&#45;&gt;http://www.w3.org/2002/07/owl#class</title>
<path fill="none" stroke="black" d="M183.13,-354.49C191.59,-326.28 209.07,-267.99 219.3,-233.89"/>
<polygon fill="black" stroke="black" points="222.7,-234.73 222.22,-224.15 216,-232.72 222.7,-234.73"/>
<text text-anchor="middle" x="196.72" y="-297.99" font-family="Times,serif" font-size="14.00">a</text>
</g>
<!-- http://purl.org/oseg/ontologies/OTRL#goal -->
<g id="node7" class="node">
<title>http://purl.org/oseg/ontologies/OTRL#goal</title>
<ellipse fill="none" stroke="#e377c2" cx="655.93" cy="-371.07" rx="33.47" ry="16.03"/>
<text text-anchor="middle" x="655.93" y="-367.37" font-family="Times,serif" font-size="14.00">goal</text>
</g>
<!-- http://purl.org/oseg/ontologies/OTRL#goal&#45;&gt;http://www.w3.org/2002/07/owl#DatatypeProperty -->
<g id="edge1" class="edge">
<title>http://purl.org/oseg/ontologies/OTRL#goal&#45;&gt;http://www.w3.org/2002/07/owl#DatatypeProperty</title>
<path fill="none" stroke="black" d="M625.09,-377.57C600.83,-382.68 565.97,-390.03 534.41,-396.68"/>
<polygon fill="black" stroke="black" points="533.36,-393.32 524.3,-398.81 534.8,-400.17 533.36,-393.32"/>
<text text-anchor="middle" x="584.25" y="-390.92" font-family="Times,serif" font-size="14.00">a</text>
</g>
<!-- http://schema.org/Text -->
<g id="node9" class="node">
<title>http://schema.org/Text</title>
<ellipse fill="none" stroke="#e377c2" cx="587.43" cy="-328.02" rx="74.91" ry="16.03"/>
<text text-anchor="middle" x="587.43" y="-324.32" font-family="Times,serif" font-size="14.00">schema:Text</text>
</g>
<!-- http://purl.org/oseg/ontologies/OTRL#goal&#45;&gt;http://schema.org/Text -->
<g id="edge5" class="edge">
<title>http://purl.org/oseg/ontologies/OTRL#goal&#45;&gt;http://schema.org/Text</title>
<path fill="none" stroke="black" d="M635.38,-358.15C630.84,-355.3 625.93,-352.21 621.03,-349.13"/>
<polygon fill="black" stroke="black" points="622.65,-346.02 612.32,-343.66 618.93,-351.95 622.65,-346.02"/>
<text text-anchor="middle" x="649.2" y="-342.44" font-family="Times,serif" font-size="14.00">range</text>
</g>
<!-- http://purl.org/oseg/ontologies/OTRL#Otrl5 -->
<g id="node8" class="node">
<title>http://purl.org/oseg/ontologies/OTRL#Otrl5</title>
<ellipse fill="none" stroke="#e377c2" cx="284.03" cy="-346.46" rx="38.37" ry="16.03"/>
<text text-anchor="middle" x="284.03" y="-342.76" font-family="Times,serif" font-size="14.00">Otrl5</text>
</g>
<!-- http://purl.org/oseg/ontologies/OTRL#Otrl5&#45;&gt;http://purl.org/oseg/ontologies/OTRL#OTRL -->
<g id="edge19" class="edge">
<title>http://purl.org/oseg/ontologies/OTRL#Otrl5&#45;&gt;http://purl.org/oseg/ontologies/OTRL#OTRL</title>
<path fill="none" stroke="black" d="M290.15,-330.37C298.94,-307.26 315.24,-264.41 325.75,-236.8"/>
<polygon fill="black" stroke="black" points="329.05,-237.97 329.33,-227.38 322.5,-235.49 329.05,-237.97"/>
</g>
<!-- http://purl.org/oseg/ontologies/OTRL#Otrl5&#45;&gt;http://www.w3.org/2002/07/owl#class -->
<g id="edge2" class="edge">
<title>http://purl.org/oseg/ontologies/OTRL#Otrl5&#45;&gt;http://www.w3.org/2002/07/owl#class</title>
<path fill="none" stroke="black" d="M277.4,-330.24C267.66,-306.41 249.39,-261.7 237.79,-233.31"/>
<polygon fill="black" stroke="black" points="241.01,-231.95 233.98,-224.02 234.53,-234.6 241.01,-231.95"/>
<text text-anchor="middle" x="253.09" y="-285.58" font-family="Times,serif" font-size="14.00">a</text>
</g>
<!-- http://purl.org/oseg/ontologies/OTRL#Otrl -->
<g id="node10" class="node">
<title>http://purl.org/oseg/ontologies/OTRL#Otrl</title>
<ellipse fill="none" stroke="#e377c2" cx="272.24" cy="-424.64" rx="31.64" ry="16.03"/>
<text text-anchor="middle" x="272.24" y="-420.94" font-family="Times,serif" font-size="14.00">Otrl</text>
</g>
<!-- http://purl.org/oseg/ontologies/OTRL -->
<g id="node11" class="node">
<title>http://purl.org/oseg/ontologies/OTRL</title>
<ellipse fill="none" stroke="#e377c2" cx="632.95" cy="-16.42" rx="60.62" ry="16.03"/>
<text text-anchor="middle" x="632.95" y="-12.72" font-family="Times,serif" font-size="14.00">ns1:OTRL</text>
</g>
<!-- http://purl.org/oseg/ontologies/OTRL&#45;&gt;http://www.w3.org/2002/07/owl#Ontology -->
<g id="edge12" class="edge">
<title>http://purl.org/oseg/ontologies/OTRL&#45;&gt;http://www.w3.org/2002/07/owl#Ontology</title>
<path fill="none" stroke="black" d="M579.65,-24.38C572.94,-25.38 565.98,-26.42 559.02,-27.46"/>
<polygon fill="black" stroke="black" points="558.22,-24.04 548.85,-28.98 559.26,-30.96 558.22,-24.04"/>
<text text-anchor="middle" x="567.08" y="-14.72" font-family="Times,serif" font-size="14.00">a</text>
</g>
<!-- http://purl.org/oseg/ontologies/OTRL&#45;&gt;http://purl.org/oseg/ontologies/OTRL -->
<g id="edge7" class="edge">
<title>http://purl.org/oseg/ontologies/OTRL&#45;&gt;http://purl.org/oseg/ontologies/OTRL</title>
<path fill="none" stroke="black" d="M688.55,-23.05C701.89,-22.53 711.76,-20.32 711.76,-16.42 711.76,-13.58 706.55,-11.64 698.58,-10.59"/>
<polygon fill="black" stroke="black" points="698.8,-7.1 688.55,-9.78 698.24,-14.07 698.8,-7.1"/>
<text text-anchor="middle" x="763.26" y="-12.72" font-family="Times,serif" font-size="14.00">owl:versionIRI</text>
</g>
<!-- http://purl.org/oseg/ontologies/OTRL#Odrl3 -->
<g id="node12" class="node">
<title>http://purl.org/oseg/ontologies/OTRL#Odrl3</title>
<ellipse fill="none" stroke="#e377c2" cx="77.71" cy="-287.09" rx="40.11" ry="16.03"/>
<text text-anchor="middle" x="77.71" y="-283.39" font-family="Times,serif" font-size="14.00">Odrl3</text>
</g>
<!-- http://purl.org/oseg/ontologies/OTRL#Odrl3&#45;&gt;http://www.w3.org/2002/07/owl#class -->
<g id="edge8" class="edge">
<title>http://purl.org/oseg/ontologies/OTRL#Odrl3&#45;&gt;http://www.w3.org/2002/07/owl#class</title>
<path fill="none" stroke="black" d="M102.07,-274.12C126.23,-261.25 163.54,-241.39 191.14,-226.69"/>
<polygon fill="black" stroke="black" points="192.91,-229.71 200.09,-221.92 189.62,-223.53 192.91,-229.71"/>
<text text-anchor="middle" x="142.1" y="-254.2" font-family="Times,serif" font-size="14.00">a</text>
</g>
<!-- http://purl.org/oseg/ontologies/OTRL#Odrl3&#45;&gt;http://purl.org/oseg/ontologies/OTRL#ODRL -->
<g id="edge3" class="edge">
<title>http://purl.org/oseg/ontologies/OTRL#Odrl3&#45;&gt;http://purl.org/oseg/ontologies/OTRL#ODRL</title>
<path fill="none" stroke="black" d="M80.95,-270.64C85.17,-249.16 92.62,-211.31 97.64,-185.77"/>
<polygon fill="black" stroke="black" points="101.14,-186.14 99.63,-175.66 94.27,-184.79 101.14,-186.14"/>
</g>
<!-- http://purl.org/oseg/ontologies/OTRL#Odrl2 -->
<g id="node13" class="node">
<title>http://purl.org/oseg/ontologies/OTRL#Odrl2</title>
<ellipse fill="none" stroke="#e377c2" cx="181.93" cy="-40.18" rx="40.11" ry="16.03"/>
<text text-anchor="middle" x="181.93" y="-36.48" font-family="Times,serif" font-size="14.00">Odrl2</text>
</g>
<!-- http://purl.org/oseg/ontologies/OTRL#Odrl2&#45;&gt;http://www.w3.org/2002/07/owl#class -->
<g id="edge24" class="edge">
<title>http://purl.org/oseg/ontologies/OTRL#Odrl2&#45;&gt;http://www.w3.org/2002/07/owl#class</title>
<path fill="none" stroke="black" d="M186.36,-56.52C194.18,-85.43 210.53,-145.83 220.01,-180.83"/>
<polygon fill="black" stroke="black" points="216.72,-182.08 222.71,-190.81 223.48,-180.25 216.72,-182.08"/>
<text text-anchor="middle" x="198.68" y="-122.48" font-family="Times,serif" font-size="14.00">a</text>
</g>
<!-- http://purl.org/oseg/ontologies/OTRL#Odrl2&#45;&gt;http://purl.org/oseg/ontologies/OTRL#ODRL -->
<g id="edge21" class="edge">
<title>http://purl.org/oseg/ontologies/OTRL#Odrl2&#45;&gt;http://purl.org/oseg/ontologies/OTRL#ODRL</title>
<path fill="none" stroke="black" d="M171.27,-56.24C157.81,-76.51 134.54,-111.55 118.93,-135.07"/>
<polygon fill="black" stroke="black" points="115.97,-133.2 113.35,-143.46 121.8,-137.07 115.97,-133.2"/>
</g>
<!-- http://purl.org/oseg/ontologies/OTRL#Otrl2 -->
<g id="node14" class="node">
<title>http://purl.org/oseg/ontologies/OTRL#Otrl2</title>
<ellipse fill="none" stroke="#e377c2" cx="386.56" cy="-108.49" rx="38.37" ry="16.03"/>
<text text-anchor="middle" x="386.56" y="-104.79" font-family="Times,serif" font-size="14.00">Otrl2</text>
</g>
<!-- http://purl.org/oseg/ontologies/OTRL#Otrl2&#45;&gt;http://purl.org/oseg/ontologies/OTRL#OTRL -->
<g id="edge20" class="edge">
<title>http://purl.org/oseg/ontologies/OTRL#Otrl2&#45;&gt;http://purl.org/oseg/ontologies/OTRL#OTRL</title>
<path fill="none" stroke="black" d="M378.6,-124.49C370.46,-140.85 357.69,-166.51 348.18,-185.62"/>
<polygon fill="black" stroke="black" points="345,-184.16 343.68,-194.67 351.26,-187.28 345,-184.16"/>
</g>
<!-- http://purl.org/oseg/ontologies/OTRL#Otrl2&#45;&gt;http://www.w3.org/2002/07/owl#class -->
<g id="edge23" class="edge">
<title>http://purl.org/oseg/ontologies/OTRL#Otrl2&#45;&gt;http://www.w3.org/2002/07/owl#class</title>
<path fill="none" stroke="black" d="M364.74,-122.05C337.67,-138.87 291.26,-167.7 259.92,-187.16"/>
<polygon fill="black" stroke="black" points="257.76,-184.38 251.12,-192.63 261.46,-190.33 257.76,-184.38"/>
<text text-anchor="middle" x="307.83" y="-158.4" font-family="Times,serif" font-size="14.00">a</text>
</g>
<!-- http://purl.org/oseg/ontologies/OTRL#Odrl3Star -->
<g id="node15" class="node">
<title>http://purl.org/oseg/ontologies/OTRL#Odrl3Star</title>
<ellipse fill="none" stroke="#e377c2" cx="62.41" cy="-76.58" rx="62.45" ry="16.03"/>
<text text-anchor="middle" x="62.41" y="-72.88" font-family="Times,serif" font-size="14.00">Odrl3Star</text>
</g>
<!-- http://purl.org/oseg/ontologies/OTRL#Odrl3Star&#45;&gt;http://www.w3.org/2002/07/owl#class -->
<g id="edge25" class="edge">
<title>http://purl.org/oseg/ontologies/OTRL#Odrl3Star&#45;&gt;http://www.w3.org/2002/07/owl#class</title>
<path fill="none" stroke="black" d="M81.96,-92.1C111.2,-115.33 166.44,-159.2 199.73,-185.64"/>
<polygon fill="black" stroke="black" points="197.69,-188.49 207.69,-191.96 202.04,-183 197.69,-188.49"/>
<text text-anchor="middle" x="136.35" y="-127.67" font-family="Times,serif" font-size="14.00">a</text>
</g>
<!-- http://purl.org/oseg/ontologies/OTRL#Odrl3Star&#45;&gt;http://purl.org/oseg/ontologies/OTRL#ODRL -->
<g id="edge13" class="edge">
<title>http://purl.org/oseg/ontologies/OTRL#Odrl3Star&#45;&gt;http://purl.org/oseg/ontologies/OTRL#ODRL</title>
<path fill="none" stroke="black" d="M70.4,-92.91C76.14,-104.66 83.99,-120.71 90.54,-134.08"/>
<polygon fill="black" stroke="black" points="87.48,-135.8 95.02,-143.25 93.77,-132.73 87.48,-135.8"/>
</g>
<!-- http://www.w3.org/1999/02/22&#45;rdf&#45;syntax&#45;ns#nil -->
<g id="node16" class="node">
<title>http://www.w3.org/1999/02/22&#45;rdf&#45;syntax&#45;ns#nil</title>
<ellipse fill="none" stroke="#e377c2" cx="498.24" cy="-112.64" rx="42.35" ry="16.03"/>
<text text-anchor="middle" x="498.24" y="-108.94" font-family="Times,serif" font-size="14.00">rdf:nil</text>
</g>
<!-- http://purl.org/oseg/ontologies/OTRL#Otrl1 -->
<g id="node17" class="node">
<title>http://purl.org/oseg/ontologies/OTRL#Otrl1</title>
<ellipse fill="none" stroke="#e377c2" cx="318.07" cy="-65.56" rx="38.37" ry="16.03"/>
<text text-anchor="middle" x="318.07" y="-61.86" font-family="Times,serif" font-size="14.00">Otrl1</text>
</g>
<!-- http://purl.org/oseg/ontologies/OTRL#Otrl1&#45;&gt;http://purl.org/oseg/ontologies/OTRL#OTRL -->
<g id="edge4" class="edge">
<title>http://purl.org/oseg/ontologies/OTRL#Otrl1&#45;&gt;http://purl.org/oseg/ontologies/OTRL#OTRL</title>
<path fill="none" stroke="black" d="M320.05,-81.95C323.05,-106.81 328.78,-154.31 332.38,-184.2"/>
<polygon fill="black" stroke="black" points="328.93,-184.84 333.6,-194.35 335.88,-184 328.93,-184.84"/>
</g>
<!-- http://purl.org/oseg/ontologies/OTRL#Otrl1&#45;&gt;http://www.w3.org/2002/07/owl#class -->
<g id="edge11" class="edge">
<title>http://purl.org/oseg/ontologies/OTRL#Otrl1&#45;&gt;http://www.w3.org/2002/07/owl#class</title>
<path fill="none" stroke="black" d="M308,-81.29C292.33,-105.77 261.95,-153.22 243.25,-182.44"/>
<polygon fill="black" stroke="black" points="240.06,-180.93 237.62,-191.24 245.96,-184.7 240.06,-180.93"/>
<text text-anchor="middle" x="271.12" y="-135.66" font-family="Times,serif" font-size="14.00">a</text>
</g>
<!-- http://purl.org/oseg/ontologies/OTRL#exitCriteria -->
<g id="node18" class="node">
<title>http://purl.org/oseg/ontologies/OTRL#exitCriteria</title>
<ellipse fill="none" stroke="#e377c2" cx="544.05" cy="-371.26" rx="70.01" ry="16.03"/>
<text text-anchor="middle" x="544.05" y="-367.56" font-family="Times,serif" font-size="14.00">exitCriteria</text>
</g>
<!-- http://purl.org/oseg/ontologies/OTRL#exitCriteria&#45;&gt;http://www.w3.org/2002/07/owl#DatatypeProperty -->
<g id="edge14" class="edge">
<title>http://purl.org/oseg/ontologies/OTRL#exitCriteria&#45;&gt;http://www.w3.org/2002/07/owl#DatatypeProperty</title>
<path fill="none" stroke="black" d="M513.68,-385.97C509.35,-388.07 504.83,-390.26 500.33,-392.44"/>
<polygon fill="black" stroke="black" points="498.65,-389.36 491.18,-396.87 501.7,-395.66 498.65,-389.36"/>
<text text-anchor="middle" x="502.5" y="-393.01" font-family="Times,serif" font-size="14.00">a</text>
</g>
<!-- http://purl.org/oseg/ontologies/OTRL#exitCriteria&#45;&gt;http://schema.org/Text -->
<g id="edge18" class="edge">
<title>http://purl.org/oseg/ontologies/OTRL#exitCriteria&#45;&gt;http://schema.org/Text</title>
<path fill="none" stroke="black" d="M560.2,-355.16C561.46,-353.9 562.75,-352.62 564.04,-351.33"/>
<polygon fill="black" stroke="black" points="566.8,-353.53 571.41,-343.99 561.86,-348.57 566.8,-353.53"/>
<text text-anchor="middle" x="541.12" y="-342.04" font-family="Times,serif" font-size="14.00">range</text>
</g>
<!-- http://purl.org/oseg/ontologies/OTRL#Otrl3 -->
<g id="node19" class="node">
<title>http://purl.org/oseg/ontologies/OTRL#Otrl3</title>
<ellipse fill="none" stroke="#e377c2" cx="423.29" cy="-230.81" rx="38.37" ry="16.03"/>
<text text-anchor="middle" x="423.29" y="-227.11" font-family="Times,serif" font-size="14.00">Otrl3</text>
</g>
<!-- http://purl.org/oseg/ontologies/OTRL#Otrl3&#45;&gt;http://purl.org/oseg/ontologies/OTRL#OTRL -->
<g id="edge6" class="edge">
<title>http://purl.org/oseg/ontologies/OTRL#Otrl3&#45;&gt;http://purl.org/oseg/ontologies/OTRL#OTRL</title>
<path fill="none" stroke="black" d="M389.38,-223.11C386.35,-222.43 383.25,-221.72 380.14,-221.02"/>
<polygon fill="black" stroke="black" points="380.81,-217.58 370.28,-218.78 379.26,-224.4 380.81,-217.58"/>
</g>
<!-- http://purl.org/oseg/ontologies/OTRL#Otrl3&#45;&gt;http://www.w3.org/2002/07/owl#class -->
<g id="edge15" class="edge">
<title>http://purl.org/oseg/ontologies/OTRL#Otrl3&#45;&gt;http://www.w3.org/2002/07/owl#class</title>
<path fill="none" stroke="black" d="M386.41,-226.42C359.38,-223.21 322.03,-218.76 290.3,-214.98"/>
<polygon fill="black" stroke="black" points="290.56,-211.49 280.22,-213.78 289.74,-218.44 290.56,-211.49"/>
<text text-anchor="middle" x="333.86" y="-224.5" font-family="Times,serif" font-size="14.00">a</text>
</g>
<!-- http://purl.org/oseg/ontologies/OTRL#Odrl4 -->
<g id="node20" class="node">
<title>http://purl.org/oseg/ontologies/OTRL#Odrl4</title>
<ellipse fill="none" stroke="#e377c2" cx="47.46" cy="-206.36" rx="40.11" ry="16.03"/>
<text text-anchor="middle" x="47.46" y="-202.66" font-family="Times,serif" font-size="14.00">Odrl4</text>
</g>
<!-- http://purl.org/oseg/ontologies/OTRL#Odrl4&#45;&gt;http://www.w3.org/2002/07/owl#class -->
<g id="edge16" class="edge">
<title>http://purl.org/oseg/ontologies/OTRL#Odrl4&#45;&gt;http://www.w3.org/2002/07/owl#class</title>
<path fill="none" stroke="black" d="M87.8,-206.61C108.91,-206.74 135.31,-206.9 159.45,-207.05"/>
<polygon fill="black" stroke="black" points="159.61,-210.56 169.63,-207.12 159.65,-203.56 159.61,-210.56"/>
<text text-anchor="middle" x="119.13" y="-210.63" font-family="Times,serif" font-size="14.00">a</text>
</g>
<!-- http://purl.org/oseg/ontologies/OTRL#Odrl4&#45;&gt;http://purl.org/oseg/ontologies/OTRL#ODRL -->
<g id="edge10" class="edge">
<title>http://purl.org/oseg/ontologies/OTRL#Odrl4&#45;&gt;http://purl.org/oseg/ontologies/OTRL#ODRL</title>
<path fill="none" stroke="black" d="M64.99,-191.46C68.93,-188.11 73.19,-184.49 77.38,-180.93"/>
<polygon fill="black" stroke="black" points="79.9,-183.38 85.25,-174.24 75.37,-178.05 79.9,-183.38"/>
</g>
<!-- http://purl.org/oseg/ontologies/OTRL#Otrl4 -->
<g id="node21" class="node">
<title>http://purl.org/oseg/ontologies/OTRL#Otrl4</title>
<ellipse fill="none" stroke="#e377c2" cx="370.58" cy="-314.03" rx="38.37" ry="16.03"/>
<text text-anchor="middle" x="370.58" y="-310.33" font-family="Times,serif" font-size="14.00">Otrl4</text>
</g>
<!-- http://purl.org/oseg/ontologies/OTRL#Otrl4&#45;&gt;http://purl.org/oseg/ontologies/OTRL#OTRL -->
<g id="edge27" class="edge">
<title>http://purl.org/oseg/ontologies/OTRL#Otrl4&#45;&gt;http://purl.org/oseg/ontologies/OTRL#OTRL</title>
<path fill="none" stroke="black" d="M365.11,-297.92C359.57,-281.59 350.92,-256.07 344.41,-236.88"/>
<polygon fill="black" stroke="black" points="347.67,-235.59 341.14,-227.24 341.04,-237.84 347.67,-235.59"/>
</g>
<!-- http://purl.org/oseg/ontologies/OTRL#Otrl4&#45;&gt;http://www.w3.org/2002/07/owl#class -->
<g id="edge17" class="edge">
<title>http://purl.org/oseg/ontologies/OTRL#Otrl4&#45;&gt;http://www.w3.org/2002/07/owl#class</title>
<path fill="none" stroke="black" d="M351.54,-299.88C327.11,-281.72 284.48,-250.04 256.06,-228.91"/>
<polygon fill="black" stroke="black" points="257.84,-225.87 247.73,-222.72 253.67,-231.49 257.84,-225.87"/>
<text text-anchor="middle" x="299.3" y="-268.2" font-family="Times,serif" font-size="14.00">a</text>
</g>
<!-- http://purl.org/oseg/ontologies/OTRL#Odrl1 -->
<g id="node22" class="node">
<title>http://purl.org/oseg/ontologies/OTRL#Odrl1</title>
<ellipse fill="none" stroke="#e377c2" cx="215.05" cy="-248.72" rx="40.11" ry="16.03"/>
<text text-anchor="middle" x="215.05" y="-245.02" font-family="Times,serif" font-size="14.00">Odrl1</text>
</g>
<!-- http://purl.org/oseg/ontologies/OTRL#Odrl1&#45;&gt;http://www.w3.org/2002/07/owl#class -->
<g id="edge28" class="edge">
<title>http://purl.org/oseg/ontologies/OTRL#Odrl1&#45;&gt;http://www.w3.org/2002/07/owl#class</title>
<path fill="none" stroke="black" d="M219.86,-232.42C219.89,-232.33 219.91,-232.24 219.94,-232.15"/>
<polygon fill="black" stroke="black" points="222.89,-234.51 222.37,-223.93 216.18,-232.53 222.89,-234.51"/>
<text text-anchor="middle" x="215.4" y="-221.09" font-family="Times,serif" font-size="14.00">a</text>
</g>
<!-- http://purl.org/oseg/ontologies/OTRL#Odrl1&#45;&gt;http://purl.org/oseg/ontologies/OTRL#ODRL -->
<g id="edge26" class="edge">
<title>http://purl.org/oseg/ontologies/OTRL#Odrl1&#45;&gt;http://purl.org/oseg/ontologies/OTRL#ODRL</title>
<path fill="none" stroke="black" d="M196.77,-234.15C178.46,-219.55 150.1,-196.93 129.33,-180.37"/>
<polygon fill="black" stroke="black" points="131.5,-177.63 121.5,-174.13 127.14,-183.1 131.5,-177.63"/>
</g>
</g>
</svg>
