<?xml version="1.0" encoding="UTF-8" standalone="no"?>
<!DOCTYPE svg PUBLIC "-//W3C//DTD SVG 1.1//EN"
 "http://www.w3.org/Graphics/SVG/1.1/DTD/svg11.dtd">
<!-- Generated by graphviz version 2.43.0 (0)
 -->
<!-- Title: G Pages: 1 -->
<svg width="1063pt" height="1120pt"
 viewBox="0.00 0.00 1062.76 1120.00" xmlns="http://www.w3.org/2000/svg" xmlns:xlink="http://www.w3.org/1999/xlink">
<g id="graph0" class="graph" transform="scale(1 1) rotate(0) translate(4 1116)">
<title>G</title>
<polygon fill="white" stroke="transparent" points="-4,4 -4,-1116 1058.76,-1116 1058.76,4 -4,4"/>
<!-- http://www.w3.org/2002/07/owl#Ontology -->
<g id="node1" class="node">
<title>http://www.w3.org/2002/07/owl#Ontology</title>
<ellipse fill="none" stroke="#1f77b4" cx="725.32" cy="-443.47" rx="77.56" ry="16.03"/>
<text text-anchor="middle" x="725.32" y="-439.77" font-family="Times,serif" font-size="14.00">owl:Ontology</text>
</g>
<!-- http://www.w3.org/2002/07/owl#DatatypeProperty -->
<g id="node2" class="node">
<title>http://www.w3.org/2002/07/owl#DatatypeProperty</title>
<ellipse fill="none" stroke="#1f77b4" cx="122.87" cy="-52.18" rx="123.07" ry="16.03"/>
<text text-anchor="middle" x="122.87" y="-48.48" font-family="Times,serif" font-size="14.00">owl:DatatypeProperty</text>
</g>
<!-- http://purl.org/oseg/ontologies/OTRL#OTRL -->
<g id="node3" class="node">
<title>http://purl.org/oseg/ontologies/OTRL#OTRL</title>
<ellipse fill="none" stroke="#e377c2" cx="510.32" cy="-538.09" rx="39.7" ry="16.03"/>
<text text-anchor="middle" x="510.32" y="-534.39" font-family="Times,serif" font-size="14.00">OTRL</text>
</g>
<!-- http://www.w3.org/2002/07/owl#class -->
<g id="node4" class="node">
<title>http://www.w3.org/2002/07/owl#class</title>
<ellipse fill="none" stroke="#1f77b4" cx="675.6" cy="-810.69" rx="57.05" ry="16.03"/>
<text text-anchor="middle" x="675.6" y="-806.99" font-family="Times,serif" font-size="14.00">owl:class</text>
</g>
<!-- http://purl.org/oseg/ontologies/OTRL#OTRL&#45;&gt;http://www.w3.org/2002/07/owl#class -->
<g id="edge2" class="edge">
<title>http://purl.org/oseg/ontologies/OTRL#OTRL&#45;&gt;http://www.w3.org/2002/07/owl#class</title>
<path fill="none" stroke="black" d="M519.92,-553.92C547.47,-599.36 626.95,-730.44 660.44,-785.68"/>
<polygon fill="black" stroke="black" points="657.59,-787.74 665.77,-794.47 663.58,-784.11 657.59,-787.74"/>
<text text-anchor="middle" x="585.68" y="-673.6" font-family="Times,serif" font-size="14.00">a</text>
</g>
<!-- http://purl.org/oseg/ontologies/OTRL#ODRL -->
<g id="node5" class="node">
<title>http://purl.org/oseg/ontologies/OTRL#ODRL</title>
<ellipse fill="none" stroke="#e377c2" cx="787.18" cy="-984.74" rx="41.94" ry="16.03"/>
<text text-anchor="middle" x="787.18" y="-981.04" font-family="Times,serif" font-size="14.00">ODRL</text>
</g>
<!-- http://purl.org/oseg/ontologies/OTRL#ODRL&#45;&gt;http://www.w3.org/2002/07/owl#class -->
<g id="edge26" class="edge">
<title>http://purl.org/oseg/ontologies/OTRL#ODRL&#45;&gt;http://www.w3.org/2002/07/owl#class</title>
<path fill="none" stroke="black" d="M776.88,-968.68C757.29,-938.11 714.52,-871.41 691.32,-835.22"/>
<polygon fill="black" stroke="black" points="694.22,-833.25 685.87,-826.72 688.32,-837.03 694.22,-833.25"/>
<text text-anchor="middle" x="729.6" y="-905.75" font-family="Times,serif" font-size="14.00">a</text>
</g>
<!-- http://purl.org/oseg/ontologies/OTRL#ODRL&#45;4 -->
<g id="node6" class="node">
<title>http://purl.org/oseg/ontologies/OTRL#ODRL&#45;4</title>
<ellipse fill="none" stroke="#e377c2" cx="926.84" cy="-836.91" rx="50.82" ry="16.03"/>
<text text-anchor="middle" x="926.84" y="-833.21" font-family="Times,serif" font-size="14.00">ODRL&#45;4</text>
</g>
<!-- http://purl.org/oseg/ontologies/OTRL#ODRL&#45;4&#45;&gt;http://www.w3.org/2002/07/owl#class -->
<g id="edge28" class="edge">
<title>http://purl.org/oseg/ontologies/OTRL#ODRL&#45;4&#45;&gt;http://www.w3.org/2002/07/owl#class</title>
<path fill="none" stroke="black" d="M878.4,-831.86C838.93,-827.74 782.86,-821.89 739.68,-817.38"/>
<polygon fill="black" stroke="black" points="739.87,-813.88 729.56,-816.33 739.14,-820.84 739.87,-813.88"/>
<text text-anchor="middle" x="804.54" y="-828.42" font-family="Times,serif" font-size="14.00">a</text>
</g>
<!-- http://purl.org/oseg/ontologies/OTRL#ODRL&#45;4&#45;&gt;http://purl.org/oseg/ontologies/OTRL#ODRL -->
<g id="edge35" class="edge">
<title>http://purl.org/oseg/ontologies/OTRL#ODRL&#45;4&#45;&gt;http://purl.org/oseg/ontologies/OTRL#ODRL</title>
<path fill="none" stroke="black" d="M911.9,-852.74C887.09,-878.99 837.33,-931.67 808.73,-961.94"/>
<polygon fill="black" stroke="black" points="805.92,-959.81 801.6,-969.48 811.01,-964.62 805.92,-959.81"/>
</g>
<!-- http://purl.org/oseg/ontologies/OTRL#softwareDescription -->
<g id="node7" class="node">
<title>http://purl.org/oseg/ontologies/OTRL#softwareDescription</title>
<ellipse fill="none" stroke="#e377c2" cx="226.87" cy="-330.1" rx="113.69" ry="16.03"/>
<text text-anchor="middle" x="226.87" y="-326.4" font-family="Times,serif" font-size="14.00">softwareDescription</text>
</g>
<!-- http://purl.org/oseg/ontologies/OTRL#softwareDescription&#45;&gt;http://www.w3.org/2002/07/owl#DatatypeProperty -->
<g id="edge3" class="edge">
<title>http://purl.org/oseg/ontologies/OTRL#softwareDescription&#45;&gt;http://www.w3.org/2002/07/owl#DatatypeProperty</title>
<path fill="none" stroke="black" d="M220.68,-313.55C203.26,-267.01 153.77,-134.76 132.63,-78.27"/>
<polygon fill="black" stroke="black" points="135.81,-76.78 129.03,-68.64 129.25,-79.24 135.81,-76.78"/>
<text text-anchor="middle" x="172.15" y="-199.71" font-family="Times,serif" font-size="14.00">a</text>
</g>
<!-- http://purl.org/oseg/ontologies/OTRL#softwareDescription&#45;&gt;http://purl.org/oseg/ontologies/OTRL#OTRL -->
<g id="edge10" class="edge">
<title>http://purl.org/oseg/ontologies/OTRL#softwareDescription&#45;&gt;http://purl.org/oseg/ontologies/OTRL#OTRL</title>
<path fill="none" stroke="black" d="M248.64,-346.08C299.57,-383.44 426.39,-476.5 482.67,-517.8"/>
<polygon fill="black" stroke="black" points="480.63,-520.64 490.76,-523.73 484.77,-515 480.63,-520.64"/>
<text text-anchor="middle" x="339.16" y="-435.74" font-family="Times,serif" font-size="14.00">domain</text>
</g>
<!-- http://schema.org/Text -->
<g id="node13" class="node">
<title>http://schema.org/Text</title>
<ellipse fill="none" stroke="#e377c2" cx="331.76" cy="-16.33" rx="74.91" ry="16.03"/>
<text text-anchor="middle" x="331.76" y="-12.63" font-family="Times,serif" font-size="14.00">schema:Text</text>
</g>
<!-- http://purl.org/oseg/ontologies/OTRL#softwareDescription&#45;&gt;http://schema.org/Text -->
<g id="edge6" class="edge">
<title>http://purl.org/oseg/ontologies/OTRL#softwareDescription&#45;&gt;http://schema.org/Text</title>
<path fill="none" stroke="black" d="M232.36,-313.67C249.53,-262.31 302.29,-104.48 323.14,-42.09"/>
<polygon fill="black" stroke="black" points="326.47,-43.19 326.32,-32.6 319.83,-40.97 326.47,-43.19"/>
<text text-anchor="middle" x="256.75" y="-181.68" font-family="Times,serif" font-size="14.00">range</text>
</g>
<!-- http://purl.org/oseg/ontologies/OTRL -->
<g id="node8" class="node">
<title>http://purl.org/oseg/ontologies/OTRL</title>
<ellipse fill="none" stroke="#e377c2" cx="872.95" cy="-421.42" rx="60.62" ry="16.03"/>
<text text-anchor="middle" x="872.95" y="-417.72" font-family="Times,serif" font-size="14.00">ns1:OTRL</text>
</g>
<!-- http://purl.org/oseg/ontologies/OTRL&#45;&gt;http://www.w3.org/2002/07/owl#Ontology -->
<g id="edge17" class="edge">
<title>http://purl.org/oseg/ontologies/OTRL&#45;&gt;http://www.w3.org/2002/07/owl#Ontology</title>
<path fill="none" stroke="black" d="M819.65,-429.38C812.94,-430.38 805.98,-431.42 799.02,-432.46"/>
<polygon fill="black" stroke="black" points="798.22,-429.04 788.85,-433.98 799.26,-435.96 798.22,-429.04"/>
<text text-anchor="middle" x="807.08" y="-419.72" font-family="Times,serif" font-size="14.00">a</text>
</g>
<!-- http://purl.org/oseg/ontologies/OTRL&#45;&gt;http://purl.org/oseg/ontologies/OTRL -->
<g id="edge29" class="edge">
<title>http://purl.org/oseg/ontologies/OTRL&#45;&gt;http://purl.org/oseg/ontologies/OTRL</title>
<path fill="none" stroke="black" d="M928.55,-428.05C941.89,-427.53 951.76,-425.32 951.76,-421.42 951.76,-418.58 946.55,-416.64 938.58,-415.59"/>
<polygon fill="black" stroke="black" points="938.8,-412.1 928.55,-414.78 938.24,-419.07 938.8,-412.1"/>
<text text-anchor="middle" x="1003.26" y="-417.72" font-family="Times,serif" font-size="14.00">owl:versionIRI</text>
</g>
<!-- http://purl.org/oseg/ontologies/OTRL#OTRL&#45;2 -->
<g id="node9" class="node">
<title>http://purl.org/oseg/ontologies/OTRL#OTRL&#45;2</title>
<ellipse fill="none" stroke="#e377c2" cx="449.16" cy="-673.74" rx="49.49" ry="16.03"/>
<text text-anchor="middle" x="449.16" y="-670.04" font-family="Times,serif" font-size="14.00">OTRL&#45;2</text>
</g>
<!-- http://purl.org/oseg/ontologies/OTRL#OTRL&#45;2&#45;&gt;http://purl.org/oseg/ontologies/OTRL#OTRL -->
<g id="edge41" class="edge">
<title>http://purl.org/oseg/ontologies/OTRL#OTRL&#45;2&#45;&gt;http://purl.org/oseg/ontologies/OTRL#OTRL</title>
<path fill="none" stroke="black" d="M456.42,-657.64C466.9,-634.39 486.39,-591.17 498.84,-563.56"/>
<polygon fill="black" stroke="black" points="502.16,-564.72 503.08,-554.16 495.77,-561.84 502.16,-564.72"/>
</g>
<!-- http://purl.org/oseg/ontologies/OTRL#OTRL&#45;2&#45;&gt;http://www.w3.org/2002/07/owl#class -->
<g id="edge30" class="edge">
<title>http://purl.org/oseg/ontologies/OTRL#OTRL&#45;2&#45;&gt;http://www.w3.org/2002/07/owl#class</title>
<path fill="none" stroke="black" d="M472.97,-688.13C513.52,-712.67 596.11,-762.62 642.35,-790.58"/>
<polygon fill="black" stroke="black" points="640.72,-793.69 651.09,-795.87 644.35,-787.7 640.72,-793.69"/>
<text text-anchor="middle" x="553.16" y="-728.16" font-family="Times,serif" font-size="14.00">a</text>
</g>
<!-- http://purl.org/oseg/ontologies/OTRL#OTRL&#45;9 -->
<g id="node10" class="node">
<title>http://purl.org/oseg/ontologies/OTRL#OTRL&#45;9</title>
<ellipse fill="none" stroke="#e377c2" cx="525.57" cy="-759.96" rx="49.49" ry="16.03"/>
<text text-anchor="middle" x="525.57" y="-756.26" font-family="Times,serif" font-size="14.00">OTRL&#45;9</text>
</g>
<!-- http://purl.org/oseg/ontologies/OTRL#OTRL&#45;9&#45;&gt;http://purl.org/oseg/ontologies/OTRL#OTRL -->
<g id="edge14" class="edge">
<title>http://purl.org/oseg/ontologies/OTRL#OTRL&#45;9&#45;&gt;http://purl.org/oseg/ontologies/OTRL#OTRL</title>
<path fill="none" stroke="black" d="M524.45,-743.64C521.84,-705.66 515.34,-611.02 512.14,-564.61"/>
<polygon fill="black" stroke="black" points="515.62,-564.16 511.44,-554.43 508.64,-564.64 515.62,-564.16"/>
</g>
<!-- http://purl.org/oseg/ontologies/OTRL#OTRL&#45;9&#45;&gt;http://www.w3.org/2002/07/owl#class -->
<g id="edge31" class="edge">
<title>http://purl.org/oseg/ontologies/OTRL#OTRL&#45;9&#45;&gt;http://www.w3.org/2002/07/owl#class</title>
<path fill="none" stroke="black" d="M560.37,-771.73C580.81,-778.64 606.89,-787.46 629.08,-794.96"/>
<polygon fill="black" stroke="black" points="628.04,-798.31 638.64,-798.19 630.29,-791.67 628.04,-798.31"/>
<text text-anchor="middle" x="590.22" y="-787.14" font-family="Times,serif" font-size="14.00">a</text>
</g>
<!-- http://purl.org/oseg/ontologies/OTRL#OTRL&#45;6 -->
<g id="node11" class="node">
<title>http://purl.org/oseg/ontologies/OTRL#OTRL&#45;6</title>
<ellipse fill="none" stroke="#e377c2" cx="712.37" cy="-634.72" rx="49.49" ry="16.03"/>
<text text-anchor="middle" x="712.37" y="-631.02" font-family="Times,serif" font-size="14.00">OTRL&#45;6</text>
</g>
<!-- http://purl.org/oseg/ontologies/OTRL#OTRL&#45;6&#45;&gt;http://purl.org/oseg/ontologies/OTRL#OTRL -->
<g id="edge18" class="edge">
<title>http://purl.org/oseg/ontologies/OTRL#OTRL&#45;6&#45;&gt;http://purl.org/oseg/ontologies/OTRL#OTRL</title>
<path fill="none" stroke="black" d="M684.27,-621.29C648.09,-603.98 585.17,-573.89 545.75,-555.03"/>
<polygon fill="black" stroke="black" points="546.79,-551.65 536.26,-550.49 543.77,-557.96 546.79,-551.65"/>
</g>
<!-- http://purl.org/oseg/ontologies/OTRL#OTRL&#45;6&#45;&gt;http://www.w3.org/2002/07/owl#class -->
<g id="edge32" class="edge">
<title>http://purl.org/oseg/ontologies/OTRL#OTRL&#45;6&#45;&gt;http://www.w3.org/2002/07/owl#class</title>
<path fill="none" stroke="black" d="M708.98,-650.96C702.62,-681.4 688.85,-747.27 681.14,-784.21"/>
<polygon fill="black" stroke="black" points="677.66,-783.73 679.04,-794.24 684.51,-785.17 677.66,-783.73"/>
<text text-anchor="middle" x="690.56" y="-721.38" font-family="Times,serif" font-size="14.00">a</text>
</g>
<!-- http://purl.org/oseg/ontologies/OTRL#OTRL&#45;5 -->
<g id="node12" class="node">
<title>http://purl.org/oseg/ontologies/OTRL#OTRL&#45;5</title>
<ellipse fill="none" stroke="#e377c2" cx="734.36" cy="-521.84" rx="49.49" ry="16.03"/>
<text text-anchor="middle" x="734.36" y="-518.14" font-family="Times,serif" font-size="14.00">OTRL&#45;5</text>
</g>
<!-- http://purl.org/oseg/ontologies/OTRL#OTRL&#45;5&#45;&gt;http://purl.org/oseg/ontologies/OTRL#OTRL -->
<g id="edge4" class="edge">
<title>http://purl.org/oseg/ontologies/OTRL#OTRL&#45;5&#45;&gt;http://purl.org/oseg/ontologies/OTRL#OTRL</title>
<path fill="none" stroke="black" d="M686.02,-525.35C648.75,-528.05 597.39,-531.77 559.83,-534.5"/>
<polygon fill="black" stroke="black" points="559.34,-531.02 549.62,-535.24 559.85,-538.01 559.34,-531.02"/>
</g>
<!-- http://purl.org/oseg/ontologies/OTRL#OTRL&#45;5&#45;&gt;http://www.w3.org/2002/07/owl#class -->
<g id="edge5" class="edge">
<title>http://purl.org/oseg/ontologies/OTRL#OTRL&#45;5&#45;&gt;http://www.w3.org/2002/07/owl#class</title>
<path fill="none" stroke="black" d="M731.03,-538.2C721.32,-585.95 692.94,-725.47 681,-784.18"/>
<polygon fill="black" stroke="black" points="677.53,-783.66 678.97,-794.16 684.39,-785.06 677.53,-783.66"/>
<text text-anchor="middle" x="701.51" y="-664.99" font-family="Times,serif" font-size="14.00">a</text>
</g>
<!-- http://purl.org/oseg/ontologies/OTRL#hardwareDescription -->
<g id="node14" class="node">
<title>http://purl.org/oseg/ontologies/OTRL#hardwareDescription</title>
<ellipse fill="none" stroke="#e377c2" cx="396.74" cy="-227.51" rx="118.17" ry="16.03"/>
<text text-anchor="middle" x="396.74" y="-223.81" font-family="Times,serif" font-size="14.00">hardwareDescription</text>
</g>
<!-- http://purl.org/oseg/ontologies/OTRL#hardwareDescription&#45;&gt;http://www.w3.org/2002/07/owl#DatatypeProperty -->
<g id="edge34" class="edge">
<title>http://purl.org/oseg/ontologies/OTRL#hardwareDescription&#45;&gt;http://www.w3.org/2002/07/owl#DatatypeProperty</title>
<path fill="none" stroke="black" d="M371.47,-211.33C321.94,-179.62 212.12,-109.32 156.52,-73.72"/>
<polygon fill="black" stroke="black" points="158.39,-70.76 148.08,-68.32 154.61,-76.66 158.39,-70.76"/>
<text text-anchor="middle" x="259.49" y="-146.33" font-family="Times,serif" font-size="14.00">a</text>
</g>
<!-- http://purl.org/oseg/ontologies/OTRL#hardwareDescription&#45;&gt;http://purl.org/oseg/ontologies/OTRL#OTRL -->
<g id="edge43" class="edge">
<title>http://purl.org/oseg/ontologies/OTRL#hardwareDescription&#45;&gt;http://purl.org/oseg/ontologies/OTRL#OTRL</title>
<path fill="none" stroke="black" d="M402.69,-243.77C421.28,-294.61 478.41,-450.83 501,-512.59"/>
<polygon fill="black" stroke="black" points="497.71,-513.8 504.43,-521.99 504.29,-511.39 497.71,-513.8"/>
<text text-anchor="middle" x="425.34" y="-381.98" font-family="Times,serif" font-size="14.00">domain</text>
</g>
<!-- http://purl.org/oseg/ontologies/OTRL#hardwareDescription&#45;&gt;http://schema.org/Text -->
<g id="edge37" class="edge">
<title>http://purl.org/oseg/ontologies/OTRL#hardwareDescription&#45;&gt;http://schema.org/Text</title>
<path fill="none" stroke="black" d="M391.64,-210.94C380.4,-174.39 353.39,-86.63 339.82,-42.54"/>
<polygon fill="black" stroke="black" points="343.12,-41.35 336.83,-32.82 336.43,-43.41 343.12,-41.35"/>
<text text-anchor="middle" x="344.73" y="-130.54" font-family="Times,serif" font-size="14.00">range</text>
</g>
<!-- http://purl.org/oseg/ontologies/OTRL#OTRL&#45;8 -->
<g id="node15" class="node">
<title>http://purl.org/oseg/ontologies/OTRL#OTRL&#45;8</title>
<ellipse fill="none" stroke="#e377c2" cx="767.09" cy="-584.46" rx="49.49" ry="16.03"/>
<text text-anchor="middle" x="767.09" y="-580.76" font-family="Times,serif" font-size="14.00">OTRL&#45;8</text>
</g>
<!-- http://purl.org/oseg/ontologies/OTRL#OTRL&#45;8&#45;&gt;http://purl.org/oseg/ontologies/OTRL#OTRL -->
<g id="edge33" class="edge">
<title>http://purl.org/oseg/ontologies/OTRL#OTRL&#45;8&#45;&gt;http://purl.org/oseg/ontologies/OTRL#OTRL</title>
<path fill="none" stroke="black" d="M723.53,-576.59C677.14,-568.22 604.01,-555.01 556.61,-546.45"/>
<polygon fill="black" stroke="black" points="557.07,-542.97 546.61,-544.64 555.83,-549.86 557.07,-542.97"/>
</g>
<!-- http://purl.org/oseg/ontologies/OTRL#OTRL&#45;8&#45;&gt;http://www.w3.org/2002/07/owl#class -->
<g id="edge36" class="edge">
<title>http://purl.org/oseg/ontologies/OTRL#OTRL&#45;8&#45;&gt;http://www.w3.org/2002/07/owl#class</title>
<path fill="none" stroke="black" d="M760.51,-600.73C744.82,-639.53 705.11,-737.73 686.08,-784.78"/>
<polygon fill="black" stroke="black" points="682.75,-783.68 682.25,-794.27 689.24,-786.31 682.75,-783.68"/>
<text text-anchor="middle" x="718.8" y="-696.56" font-family="Times,serif" font-size="14.00">a</text>
</g>
<!-- http://purl.org/oseg/ontologies/OTRL#OTRL&#45;1 -->
<g id="node16" class="node">
<title>http://purl.org/oseg/ontologies/OTRL#OTRL&#45;1</title>
<ellipse fill="none" stroke="#e377c2" cx="579.81" cy="-668.45" rx="49.49" ry="16.03"/>
<text text-anchor="middle" x="579.81" y="-664.75" font-family="Times,serif" font-size="14.00">OTRL&#45;1</text>
</g>
<!-- http://purl.org/oseg/ontologies/OTRL#OTRL&#45;1&#45;&gt;http://purl.org/oseg/ontologies/OTRL#OTRL -->
<g id="edge46" class="edge">
<title>http://purl.org/oseg/ontologies/OTRL#OTRL&#45;1&#45;&gt;http://purl.org/oseg/ontologies/OTRL#OTRL</title>
<path fill="none" stroke="black" d="M571.15,-652.2C559.22,-629.83 537.64,-589.34 523.65,-563.09"/>
<polygon fill="black" stroke="black" points="526.67,-561.31 518.87,-554.13 520.49,-564.6 526.67,-561.31"/>
</g>
<!-- http://purl.org/oseg/ontologies/OTRL#OTRL&#45;1&#45;&gt;http://www.w3.org/2002/07/owl#class -->
<g id="edge8" class="edge">
<title>http://purl.org/oseg/ontologies/OTRL#OTRL&#45;1&#45;&gt;http://www.w3.org/2002/07/owl#class</title>
<path fill="none" stroke="black" d="M590.61,-684.49C607.28,-709.25 639.41,-756.95 659.03,-786.09"/>
<polygon fill="black" stroke="black" points="656.2,-788.15 664.69,-794.49 662.01,-784.24 656.2,-788.15"/>
<text text-anchor="middle" x="620.32" y="-739.09" font-family="Times,serif" font-size="14.00">a</text>
</g>
<!-- http://purl.org/oseg/ontologies/OTRL#ODRL&#45;0 -->
<g id="node17" class="node">
<title>http://purl.org/oseg/ontologies/OTRL#ODRL&#45;0</title>
<ellipse fill="none" stroke="#e377c2" cx="937.6" cy="-922.27" rx="50.82" ry="16.03"/>
<text text-anchor="middle" x="937.6" y="-918.57" font-family="Times,serif" font-size="14.00">ODRL&#45;0</text>
</g>
<!-- http://purl.org/oseg/ontologies/OTRL#ODRL&#45;0&#45;&gt;http://www.w3.org/2002/07/owl#class -->
<g id="edge11" class="edge">
<title>http://purl.org/oseg/ontologies/OTRL#ODRL&#45;0&#45;&gt;http://www.w3.org/2002/07/owl#class</title>
<path fill="none" stroke="black" d="M907.03,-909.26C860.01,-889.23 769.86,-850.84 717.02,-828.33"/>
<polygon fill="black" stroke="black" points="718.18,-825.02 707.61,-824.32 715.44,-831.46 718.18,-825.02"/>
<text text-anchor="middle" x="807.52" y="-872.59" font-family="Times,serif" font-size="14.00">a</text>
</g>
<!-- http://purl.org/oseg/ontologies/OTRL#ODRL&#45;0&#45;&gt;http://purl.org/oseg/ontologies/OTRL#ODRL -->
<g id="edge21" class="edge">
<title>http://purl.org/oseg/ontologies/OTRL#ODRL&#45;0&#45;&gt;http://purl.org/oseg/ontologies/OTRL#ODRL</title>
<path fill="none" stroke="black" d="M906.43,-935.22C882.78,-945.04 850.15,-958.59 825,-969.04"/>
<polygon fill="black" stroke="black" points="823.65,-965.81 815.76,-972.87 826.34,-972.27 823.65,-965.81"/>
</g>
<!-- http://purl.org/oseg/ontologies/OTRL#exitCriteria -->
<g id="node18" class="node">
<title>http://purl.org/oseg/ontologies/OTRL#exitCriteria</title>
<ellipse fill="none" stroke="#e377c2" cx="338.18" cy="-289.06" rx="70.01" ry="16.03"/>
<text text-anchor="middle" x="338.18" y="-285.36" font-family="Times,serif" font-size="14.00">exitCriteria</text>
</g>
<!-- http://purl.org/oseg/ontologies/OTRL#exitCriteria&#45;&gt;http://www.w3.org/2002/07/owl#DatatypeProperty -->
<g id="edge12" class="edge">
<title>http://purl.org/oseg/ontologies/OTRL#exitCriteria&#45;&gt;http://www.w3.org/2002/07/owl#DatatypeProperty</title>
<path fill="none" stroke="black" d="M323.38,-272.78C286.12,-231.78 188.3,-124.17 144.55,-76.04"/>
<polygon fill="black" stroke="black" points="147.08,-73.62 137.77,-68.57 141.91,-78.33 147.08,-73.62"/>
<text text-anchor="middle" x="229.47" y="-178.21" font-family="Times,serif" font-size="14.00">a</text>
</g>
<!-- http://purl.org/oseg/ontologies/OTRL#exitCriteria&#45;&gt;http://purl.org/oseg/ontologies/OTRL#OTRL -->
<g id="edge24" class="edge">
<title>http://purl.org/oseg/ontologies/OTRL#exitCriteria&#45;&gt;http://purl.org/oseg/ontologies/OTRL#OTRL</title>
<path fill="none" stroke="black" d="M349.48,-305.4C379.04,-348.17 458.82,-463.58 493.66,-513.99"/>
<polygon fill="black" stroke="black" points="490.87,-516.1 499.43,-522.33 496.62,-512.12 490.87,-516.1"/>
<text text-anchor="middle" x="395.07" y="-413.49" font-family="Times,serif" font-size="14.00">domain</text>
</g>
<!-- http://purl.org/oseg/ontologies/OTRL#exitCriteria&#45;&gt;http://schema.org/Text -->
<g id="edge19" class="edge">
<title>http://purl.org/oseg/ontologies/OTRL#exitCriteria&#45;&gt;http://schema.org/Text</title>
<path fill="none" stroke="black" d="M337.79,-272.41C336.71,-226.65 333.7,-98.71 332.38,-42.91"/>
<polygon fill="black" stroke="black" points="335.88,-42.68 332.14,-32.76 328.88,-42.84 335.88,-42.68"/>
<text text-anchor="middle" x="314.09" y="-161.46" font-family="Times,serif" font-size="14.00">range</text>
</g>
<!-- http://purl.org/oseg/ontologies/OTRL#ODRL&#45;1 -->
<g id="node19" class="node">
<title>http://purl.org/oseg/ontologies/OTRL#ODRL&#45;1</title>
<ellipse fill="none" stroke="#e377c2" cx="665.28" cy="-1095.78" rx="50.82" ry="16.03"/>
<text text-anchor="middle" x="665.28" y="-1092.08" font-family="Times,serif" font-size="14.00">ODRL&#45;1</text>
</g>
<!-- http://purl.org/oseg/ontologies/OTRL#ODRL&#45;1&#45;&gt;http://www.w3.org/2002/07/owl#class -->
<g id="edge38" class="edge">
<title>http://purl.org/oseg/ontologies/OTRL#ODRL&#45;1&#45;&gt;http://www.w3.org/2002/07/owl#class</title>
<path fill="none" stroke="black" d="M665.88,-1079.22C667.59,-1031.88 672.53,-895.67 674.63,-837.52"/>
<polygon fill="black" stroke="black" points="678.14,-837.42 675,-827.3 671.14,-837.17 678.14,-837.42"/>
<text text-anchor="middle" x="665.76" y="-962.17" font-family="Times,serif" font-size="14.00">a</text>
</g>
<!-- http://purl.org/oseg/ontologies/OTRL#ODRL&#45;1&#45;&gt;http://purl.org/oseg/ontologies/OTRL#ODRL -->
<g id="edge7" class="edge">
<title>http://purl.org/oseg/ontologies/OTRL#ODRL&#45;1&#45;&gt;http://purl.org/oseg/ontologies/OTRL#ODRL</title>
<path fill="none" stroke="black" d="M682.23,-1080.34C703.27,-1061.17 739.29,-1028.36 763.17,-1006.61"/>
<polygon fill="black" stroke="black" points="765.73,-1009.02 770.76,-999.7 761.01,-1003.84 765.73,-1009.02"/>
</g>
<!-- http://purl.org/oseg/ontologies/OTRL#ODRL&#45;5 -->
<g id="node20" class="node">
<title>http://purl.org/oseg/ontologies/OTRL#ODRL&#45;5</title>
<ellipse fill="none" stroke="#e377c2" cx="590.84" cy="-1050.5" rx="50.82" ry="16.03"/>
<text text-anchor="middle" x="590.84" y="-1046.8" font-family="Times,serif" font-size="14.00">ODRL&#45;5</text>
</g>
<!-- http://purl.org/oseg/ontologies/OTRL#ODRL&#45;5&#45;&gt;http://www.w3.org/2002/07/owl#class -->
<g id="edge13" class="edge">
<title>http://purl.org/oseg/ontologies/OTRL#ODRL&#45;5&#45;&gt;http://www.w3.org/2002/07/owl#class</title>
<path fill="none" stroke="black" d="M596.66,-1034.02C611.15,-993.02 648.92,-886.19 666.43,-836.64"/>
<polygon fill="black" stroke="black" points="669.81,-837.57 669.85,-826.98 663.21,-835.24 669.81,-837.57"/>
<text text-anchor="middle" x="627.05" y="-939.13" font-family="Times,serif" font-size="14.00">a</text>
</g>
<!-- http://purl.org/oseg/ontologies/OTRL#ODRL&#45;5&#45;&gt;http://purl.org/oseg/ontologies/OTRL#ODRL -->
<g id="edge22" class="edge">
<title>http://purl.org/oseg/ontologies/OTRL#ODRL&#45;5&#45;&gt;http://purl.org/oseg/ontologies/OTRL#ODRL</title>
<path fill="none" stroke="black" d="M626.39,-1038.59C660.03,-1027.33 710.5,-1010.42 745.9,-998.57"/>
<polygon fill="black" stroke="black" points="747.09,-1001.86 755.46,-995.37 744.86,-995.22 747.09,-1001.86"/>
</g>
<!-- http://purl.org/oseg/ontologies/OTRL#documentationDescription -->
<g id="node21" class="node">
<title>http://purl.org/oseg/ontologies/OTRL#documentationDescription</title>
<ellipse fill="none" stroke="#e377c2" cx="490.24" cy="-186.87" rx="120.83" ry="16.03"/>
<text text-anchor="middle" x="490.24" y="-183.17" font-family="Times,serif" font-size="14.00">documentationDesc...</text>
</g>
<!-- http://purl.org/oseg/ontologies/OTRL#documentationDescription&#45;&gt;http://www.w3.org/2002/07/owl#DatatypeProperty -->
<g id="edge15" class="edge">
<title>http://purl.org/oseg/ontologies/OTRL#documentationDescription&#45;&gt;http://www.w3.org/2002/07/owl#DatatypeProperty</title>
<path fill="none" stroke="black" d="M448.46,-171.55C380.78,-146.74 247.41,-97.84 174.11,-70.97"/>
<polygon fill="black" stroke="black" points="175.21,-67.64 164.61,-67.48 172.8,-74.21 175.21,-67.64"/>
<text text-anchor="middle" x="306.78" y="-125.06" font-family="Times,serif" font-size="14.00">a</text>
</g>
<!-- http://purl.org/oseg/ontologies/OTRL#documentationDescription&#45;&gt;http://purl.org/oseg/ontologies/OTRL#OTRL -->
<g id="edge25" class="edge">
<title>http://purl.org/oseg/ontologies/OTRL#documentationDescription&#45;&gt;http://purl.org/oseg/ontologies/OTRL#OTRL</title>
<path fill="none" stroke="black" d="M491.18,-203.34C494.38,-259.34 504.87,-442.73 508.81,-511.62"/>
<polygon fill="black" stroke="black" points="505.32,-511.87 509.38,-521.65 512.31,-511.47 505.32,-511.87"/>
<text text-anchor="middle" x="473.5" y="-361.28" font-family="Times,serif" font-size="14.00">domain</text>
</g>
<!-- http://purl.org/oseg/ontologies/OTRL#documentationDescription&#45;&gt;http://schema.org/Text -->
<g id="edge23" class="edge">
<title>http://purl.org/oseg/ontologies/OTRL#documentationDescription&#45;&gt;http://schema.org/Text</title>
<path fill="none" stroke="black" d="M475.04,-170.52C446.81,-140.14 386.17,-74.89 353.57,-39.8"/>
<polygon fill="black" stroke="black" points="356.05,-37.33 346.68,-32.38 350.92,-42.09 356.05,-37.33"/>
<text text-anchor="middle" x="393.31" y="-108.96" font-family="Times,serif" font-size="14.00">range</text>
</g>
<!-- http://purl.org/oseg/ontologies/OTRL#OTRL&#45;3 -->
<g id="node22" class="node">
<title>http://purl.org/oseg/ontologies/OTRL#OTRL&#45;3</title>
<ellipse fill="none" stroke="#e377c2" cx="401.37" cy="-727.67" rx="49.49" ry="16.03"/>
<text text-anchor="middle" x="401.37" y="-723.97" font-family="Times,serif" font-size="14.00">OTRL&#45;3</text>
</g>
<!-- http://purl.org/oseg/ontologies/OTRL#OTRL&#45;3&#45;&gt;http://purl.org/oseg/ontologies/OTRL#OTRL -->
<g id="edge9" class="edge">
<title>http://purl.org/oseg/ontologies/OTRL#OTRL&#45;3&#45;&gt;http://purl.org/oseg/ontologies/OTRL#OTRL</title>
<path fill="none" stroke="black" d="M410.66,-711.5C429.76,-678.26 473.56,-602.06 496.2,-562.67"/>
<polygon fill="black" stroke="black" points="499.26,-564.36 501.21,-553.94 493.19,-560.87 499.26,-564.36"/>
</g>
<!-- http://purl.org/oseg/ontologies/OTRL#OTRL&#45;3&#45;&gt;http://www.w3.org/2002/07/owl#class -->
<g id="edge16" class="edge">
<title>http://purl.org/oseg/ontologies/OTRL#OTRL&#45;3&#45;&gt;http://www.w3.org/2002/07/owl#class</title>
<path fill="none" stroke="black" d="M437.78,-738.69C486.34,-753.39 572.44,-779.46 626.64,-795.87"/>
<polygon fill="black" stroke="black" points="625.79,-799.27 636.37,-798.82 627.82,-792.57 625.79,-799.27"/>
<text text-anchor="middle" x="527.71" y="-771.08" font-family="Times,serif" font-size="14.00">a</text>
</g>
<!-- http://purl.org/oseg/ontologies/OTRL#OTRL&#45;7 -->
<g id="node23" class="node">
<title>http://purl.org/oseg/ontologies/OTRL#OTRL&#45;7</title>
<ellipse fill="none" stroke="#e377c2" cx="418.57" cy="-793.67" rx="49.49" ry="16.03"/>
<text text-anchor="middle" x="418.57" y="-789.97" font-family="Times,serif" font-size="14.00">OTRL&#45;7</text>
</g>
<!-- http://purl.org/oseg/ontologies/OTRL#OTRL&#45;7&#45;&gt;http://purl.org/oseg/ontologies/OTRL#OTRL -->
<g id="edge39" class="edge">
<title>http://purl.org/oseg/ontologies/OTRL#OTRL&#45;7&#45;&gt;http://purl.org/oseg/ontologies/OTRL#OTRL</title>
<path fill="none" stroke="black" d="M424.45,-777.3C439.99,-734.02 482.23,-616.35 501.05,-563.91"/>
<polygon fill="black" stroke="black" points="504.41,-564.92 504.49,-554.33 497.82,-562.56 504.41,-564.92"/>
</g>
<!-- http://purl.org/oseg/ontologies/OTRL#OTRL&#45;7&#45;&gt;http://www.w3.org/2002/07/owl#class -->
<g id="edge42" class="edge">
<title>http://purl.org/oseg/ontologies/OTRL#OTRL&#45;7&#45;&gt;http://www.w3.org/2002/07/owl#class</title>
<path fill="none" stroke="black" d="M467.22,-796.89C507.46,-799.56 565,-803.37 609.42,-806.31"/>
<polygon fill="black" stroke="black" points="609.34,-809.81 619.55,-806.98 609.81,-802.83 609.34,-809.81"/>
<text text-anchor="middle" x="533.82" y="-805.4" font-family="Times,serif" font-size="14.00">a</text>
</g>
<!-- http://purl.org/oseg/ontologies/OTRL#ODRL&#45;3 -->
<g id="node24" class="node">
<title>http://purl.org/oseg/ontologies/OTRL#ODRL&#45;3</title>
<ellipse fill="none" stroke="#e377c2" cx="777.29" cy="-1092.39" rx="50.82" ry="16.03"/>
<text text-anchor="middle" x="777.29" y="-1088.69" font-family="Times,serif" font-size="14.00">ODRL&#45;3</text>
</g>
<!-- http://purl.org/oseg/ontologies/OTRL#ODRL&#45;3&#45;&gt;http://www.w3.org/2002/07/owl#class -->
<g id="edge44" class="edge">
<title>http://purl.org/oseg/ontologies/OTRL#ODRL&#45;3&#45;&gt;http://www.w3.org/2002/07/owl#class</title>
<path fill="none" stroke="black" d="M771.39,-1076.03C754.47,-1029.16 705.71,-894.1 685.04,-836.85"/>
<polygon fill="black" stroke="black" points="688.21,-835.32 681.53,-827.1 681.63,-837.7 688.21,-835.32"/>
<text text-anchor="middle" x="723.72" y="-960.24" font-family="Times,serif" font-size="14.00">a</text>
</g>
<!-- http://purl.org/oseg/ontologies/OTRL#ODRL&#45;3&#45;&gt;http://purl.org/oseg/ontologies/OTRL#ODRL -->
<g id="edge1" class="edge">
<title>http://purl.org/oseg/ontologies/OTRL#ODRL&#45;3&#45;&gt;http://purl.org/oseg/ontologies/OTRL#ODRL</title>
<path fill="none" stroke="black" d="M778.79,-1076.04C780.37,-1058.89 782.87,-1031.66 784.73,-1011.4"/>
<polygon fill="black" stroke="black" points="788.23,-1011.52 785.66,-1001.25 781.26,-1010.88 788.23,-1011.52"/>
</g>
<!-- http://purl.org/oseg/ontologies/OTRL#OTRL&#45;4 -->
<g id="node25" class="node">
<title>http://purl.org/oseg/ontologies/OTRL#OTRL&#45;4</title>
<ellipse fill="none" stroke="#e377c2" cx="628.67" cy="-563.42" rx="49.49" ry="16.03"/>
<text text-anchor="middle" x="628.67" y="-559.72" font-family="Times,serif" font-size="14.00">OTRL&#45;4</text>
</g>
<!-- http://purl.org/oseg/ontologies/OTRL#OTRL&#45;4&#45;&gt;http://purl.org/oseg/ontologies/OTRL#OTRL -->
<g id="edge40" class="edge">
<title>http://purl.org/oseg/ontologies/OTRL#OTRL&#45;4&#45;&gt;http://purl.org/oseg/ontologies/OTRL#OTRL</title>
<path fill="none" stroke="black" d="M586.94,-554.49C576.86,-552.33 566.04,-550.01 555.79,-547.82"/>
<polygon fill="black" stroke="black" points="556.3,-544.35 545.79,-545.68 554.84,-551.2 556.3,-544.35"/>
</g>
<!-- http://purl.org/oseg/ontologies/OTRL#OTRL&#45;4&#45;&gt;http://www.w3.org/2002/07/owl#class -->
<g id="edge45" class="edge">
<title>http://purl.org/oseg/ontologies/OTRL#OTRL&#45;4&#45;&gt;http://www.w3.org/2002/07/owl#class</title>
<path fill="none" stroke="black" d="M631.82,-580.03C639.8,-622.08 660.87,-733.06 670.57,-784.2"/>
<polygon fill="black" stroke="black" points="667.16,-784.99 672.46,-794.16 674.04,-783.68 667.16,-784.99"/>
<text text-anchor="middle" x="646.7" y="-685.92" font-family="Times,serif" font-size="14.00">a</text>
</g>
<!-- http://purl.org/oseg/ontologies/OTRL#ODRL&#45;2 -->
<g id="node26" class="node">
<title>http://purl.org/oseg/ontologies/OTRL#ODRL&#45;2</title>
<ellipse fill="none" stroke="#e377c2" cx="891.01" cy="-1013.76" rx="50.82" ry="16.03"/>
<text text-anchor="middle" x="891.01" y="-1010.06" font-family="Times,serif" font-size="14.00">ODRL&#45;2</text>
</g>
<!-- http://purl.org/oseg/ontologies/OTRL#ODRL&#45;2&#45;&gt;http://www.w3.org/2002/07/owl#class -->
<g id="edge20" class="edge">
<title>http://purl.org/oseg/ontologies/OTRL#ODRL&#45;2&#45;&gt;http://www.w3.org/2002/07/owl#class</title>
<path fill="none" stroke="black" d="M874.46,-998.16C836.64,-962.51 743.72,-874.9 699.6,-833.32"/>
<polygon fill="black" stroke="black" points="701.88,-830.66 692.2,-826.34 697.08,-835.75 701.88,-830.66"/>
<text text-anchor="middle" x="782.53" y="-919.54" font-family="Times,serif" font-size="14.00">a</text>
</g>
<!-- http://purl.org/oseg/ontologies/OTRL#ODRL&#45;2&#45;&gt;http://purl.org/oseg/ontologies/OTRL#ODRL -->
<g id="edge27" class="edge">
<title>http://purl.org/oseg/ontologies/OTRL#ODRL&#45;2&#45;&gt;http://purl.org/oseg/ontologies/OTRL#ODRL</title>
<path fill="none" stroke="black" d="M852.64,-1003.04C845.57,-1001.06 838.14,-998.99 830.93,-996.97"/>
<polygon fill="black" stroke="black" points="831.85,-993.59 821.28,-994.27 829.97,-1000.34 831.85,-993.59"/>
</g>
</g>
</svg>
