<?xml version="1.0" encoding="UTF-8" standalone="no"?>
<!DOCTYPE svg PUBLIC "-//W3C//DTD SVG 1.1//EN"
 "http://www.w3.org/Graphics/SVG/1.1/DTD/svg11.dtd">
<!-- Generated by graphviz version 2.43.0 (0)
 -->
<!-- Title: G Pages: 1 -->
<svg width="1098pt" height="779pt"
 viewBox="0.00 0.00 1098.00 779.00" xmlns="http://www.w3.org/2000/svg" xmlns:xlink="http://www.w3.org/1999/xlink">
<g id="graph0" class="graph" transform="scale(1 1) rotate(0) translate(4 775)">
<title>G</title>
<polygon fill="white" stroke="transparent" points="-4,4 -4,-775 1094,-775 1094,4 -4,4"/>
<!-- http://www.w3.org/2002/07/owl#DatatypeProperty -->
<g id="node1" class="node">
<title>http://www.w3.org/2002/07/owl#DatatypeProperty</title>
<ellipse fill="none" stroke="#1f77b4" cx="123.09" cy="-16.63" rx="123.07" ry="16.03"/>
<text text-anchor="middle" x="123.09" y="-12.93" font-family="Times,serif" font-size="14.00">owl:DatatypeProperty</text>
</g>
<!-- http://www.w3.org/2002/07/owl#Ontology -->
<g id="node2" class="node">
<title>http://www.w3.org/2002/07/owl#Ontology</title>
<ellipse fill="none" stroke="#1f77b4" cx="653.32" cy="-182.47" rx="77.56" ry="16.03"/>
<text text-anchor="middle" x="653.32" y="-178.77" font-family="Times,serif" font-size="14.00">owl:Ontology</text>
</g>
<!-- http://purl.org/oseg/ontologies/OTRL#ODRL -->
<g id="node3" class="node">
<title>http://purl.org/oseg/ontologies/OTRL#ODRL</title>
<ellipse fill="none" stroke="#e377c2" cx="929.65" cy="-631.25" rx="41.94" ry="16.03"/>
<text text-anchor="middle" x="929.65" y="-627.55" font-family="Times,serif" font-size="14.00">ODRL</text>
</g>
<!-- http://www.w3.org/2002/07/owl#class -->
<g id="node5" class="node">
<title>http://www.w3.org/2002/07/owl#class</title>
<ellipse fill="none" stroke="#1f77b4" cx="793.85" cy="-523.33" rx="57.05" ry="16.03"/>
<text text-anchor="middle" x="793.85" y="-519.63" font-family="Times,serif" font-size="14.00">owl:class</text>
</g>
<!-- http://purl.org/oseg/ontologies/OTRL#ODRL&#45;&gt;http://www.w3.org/2002/07/owl#class -->
<g id="edge33" class="edge">
<title>http://purl.org/oseg/ontologies/OTRL#ODRL&#45;&gt;http://www.w3.org/2002/07/owl#class</title>
<path fill="none" stroke="black" d="M911.05,-616.47C887.88,-598.06 848.08,-566.43 821.38,-545.21"/>
<polygon fill="black" stroke="black" points="823.55,-542.46 813.54,-538.98 819.19,-547.94 823.55,-542.46"/>
<text text-anchor="middle" x="861.71" y="-584.64" font-family="Times,serif" font-size="14.00">a</text>
</g>
<!-- http://purl.org/oseg/ontologies/OTRL#OTRL -->
<g id="node4" class="node">
<title>http://purl.org/oseg/ontologies/OTRL#OTRL</title>
<ellipse fill="none" stroke="#e377c2" cx="573.9" cy="-369.53" rx="39.7" ry="16.03"/>
<text text-anchor="middle" x="573.9" y="-365.83" font-family="Times,serif" font-size="14.00">OTRL</text>
</g>
<!-- http://purl.org/oseg/ontologies/OTRL#OTRL&#45;&gt;http://www.w3.org/2002/07/owl#class -->
<g id="edge15" class="edge">
<title>http://purl.org/oseg/ontologies/OTRL#OTRL&#45;&gt;http://www.w3.org/2002/07/owl#class</title>
<path fill="none" stroke="black" d="M594.2,-383.73C633.06,-410.9 718.16,-470.41 763.69,-502.24"/>
<polygon fill="black" stroke="black" points="761.78,-505.18 771.98,-508.04 765.79,-499.44 761.78,-505.18"/>
<text text-anchor="middle" x="674.45" y="-446.79" font-family="Times,serif" font-size="14.00">a</text>
</g>
<!-- http://schema.org/Text -->
<g id="node6" class="node">
<title>http://schema.org/Text</title>
<ellipse fill="none" stroke="#e377c2" cx="130.72" cy="-123.94" rx="74.91" ry="16.03"/>
<text text-anchor="middle" x="130.72" y="-120.24" font-family="Times,serif" font-size="14.00">schema:Text</text>
</g>
<!-- http://purl.org/oseg/ontologies/OTRL#OTRL&#45;1 -->
<g id="node7" class="node">
<title>http://purl.org/oseg/ontologies/OTRL#OTRL&#45;1</title>
<ellipse fill="none" stroke="#e377c2" cx="574.28" cy="-512.32" rx="49.49" ry="16.03"/>
<text text-anchor="middle" x="574.28" y="-508.62" font-family="Times,serif" font-size="14.00">OTRL&#45;1</text>
</g>
<!-- http://purl.org/oseg/ontologies/OTRL#OTRL&#45;1&#45;&gt;http://purl.org/oseg/ontologies/OTRL#OTRL -->
<g id="edge1" class="edge">
<title>http://purl.org/oseg/ontologies/OTRL#OTRL&#45;1&#45;&gt;http://purl.org/oseg/ontologies/OTRL#OTRL</title>
<path fill="none" stroke="black" d="M574.23,-495.94C574.17,-471.65 574.05,-425.79 573.97,-396.5"/>
<polygon fill="black" stroke="black" points="577.47,-396.15 573.95,-386.16 570.47,-396.17 577.47,-396.15"/>
</g>
<!-- http://purl.org/oseg/ontologies/OTRL#OTRL&#45;1&#45;&gt;http://www.w3.org/2002/07/owl#class -->
<g id="edge24" class="edge">
<title>http://purl.org/oseg/ontologies/OTRL#OTRL&#45;1&#45;&gt;http://www.w3.org/2002/07/owl#class</title>
<path fill="none" stroke="black" d="M623.28,-514.78C653.86,-516.31 693.63,-518.31 727.08,-519.98"/>
<polygon fill="black" stroke="black" points="727.08,-523.49 737.24,-520.49 727.43,-516.5 727.08,-523.49"/>
<text text-anchor="middle" x="670.68" y="-521.18" font-family="Times,serif" font-size="14.00">a</text>
</g>
<!-- http://purl.org/oseg/ontologies/OTRL#ODRL&#45;0 -->
<g id="node8" class="node">
<title>http://purl.org/oseg/ontologies/OTRL#ODRL&#45;0</title>
<ellipse fill="none" stroke="#e377c2" cx="1005.62" cy="-453.55" rx="50.82" ry="16.03"/>
<text text-anchor="middle" x="1005.62" y="-449.85" font-family="Times,serif" font-size="14.00">ODRL&#45;0</text>
</g>
<!-- http://purl.org/oseg/ontologies/OTRL#ODRL&#45;0&#45;&gt;http://purl.org/oseg/ontologies/OTRL#ODRL -->
<g id="edge34" class="edge">
<title>http://purl.org/oseg/ontologies/OTRL#ODRL&#45;0&#45;&gt;http://purl.org/oseg/ontologies/OTRL#ODRL</title>
<path fill="none" stroke="black" d="M998.6,-469.95C985.34,-500.97 956.49,-568.45 940.64,-605.55"/>
<polygon fill="black" stroke="black" points="937.25,-604.58 936.53,-615.15 943.68,-607.33 937.25,-604.58"/>
</g>
<!-- http://purl.org/oseg/ontologies/OTRL#ODRL&#45;0&#45;&gt;http://www.w3.org/2002/07/owl#class -->
<g id="edge3" class="edge">
<title>http://purl.org/oseg/ontologies/OTRL#ODRL&#45;0&#45;&gt;http://www.w3.org/2002/07/owl#class</title>
<path fill="none" stroke="black" d="M970.17,-465.23C934.78,-476.89 880.19,-494.88 841.13,-507.75"/>
<polygon fill="black" stroke="black" points="839.95,-504.45 831.55,-510.91 842.15,-511.1 839.95,-504.45"/>
<text text-anchor="middle" x="901.15" y="-490.29" font-family="Times,serif" font-size="14.00">a</text>
</g>
<!-- http://purl.org/oseg/ontologies/OTRL#OTRL&#45;6 -->
<g id="node9" class="node">
<title>http://purl.org/oseg/ontologies/OTRL#OTRL&#45;6</title>
<ellipse fill="none" stroke="#e377c2" cx="748.26" cy="-266.09" rx="49.49" ry="16.03"/>
<text text-anchor="middle" x="748.26" y="-262.39" font-family="Times,serif" font-size="14.00">OTRL&#45;6</text>
</g>
<!-- http://purl.org/oseg/ontologies/OTRL#OTRL&#45;6&#45;&gt;http://purl.org/oseg/ontologies/OTRL#OTRL -->
<g id="edge25" class="edge">
<title>http://purl.org/oseg/ontologies/OTRL#OTRL&#45;6&#45;&gt;http://purl.org/oseg/ontologies/OTRL#OTRL</title>
<path fill="none" stroke="black" d="M724.01,-280.48C693.01,-298.87 639.25,-330.76 605.19,-350.97"/>
<polygon fill="black" stroke="black" points="603.37,-347.98 596.56,-356.09 606.94,-354 603.37,-347.98"/>
</g>
<!-- http://purl.org/oseg/ontologies/OTRL#OTRL&#45;6&#45;&gt;http://www.w3.org/2002/07/owl#class -->
<g id="edge28" class="edge">
<title>http://purl.org/oseg/ontologies/OTRL#OTRL&#45;6&#45;&gt;http://www.w3.org/2002/07/owl#class</title>
<path fill="none" stroke="black" d="M751.18,-282.58C758.88,-326.04 779.8,-444.07 789.18,-497.02"/>
<polygon fill="black" stroke="black" points="785.76,-497.75 790.95,-506.99 792.65,-496.53 785.76,-497.75"/>
<text text-anchor="middle" x="765.68" y="-393.6" font-family="Times,serif" font-size="14.00">a</text>
</g>
<!-- http://purl.org/oseg/ontologies/OTRL#OTRL&#45;2 -->
<g id="node10" class="node">
<title>http://purl.org/oseg/ontologies/OTRL#OTRL&#45;2</title>
<ellipse fill="none" stroke="#e377c2" cx="675.68" cy="-555.66" rx="49.49" ry="16.03"/>
<text text-anchor="middle" x="675.68" y="-551.96" font-family="Times,serif" font-size="14.00">OTRL&#45;2</text>
</g>
<!-- http://purl.org/oseg/ontologies/OTRL#OTRL&#45;2&#45;&gt;http://purl.org/oseg/ontologies/OTRL#OTRL -->
<g id="edge4" class="edge">
<title>http://purl.org/oseg/ontologies/OTRL#OTRL&#45;2&#45;&gt;http://purl.org/oseg/ontologies/OTRL#OTRL</title>
<path fill="none" stroke="black" d="M666.83,-539.47C649.04,-506.93 608.85,-433.44 587.63,-394.63"/>
<polygon fill="black" stroke="black" points="590.53,-392.65 582.66,-385.55 584.39,-396.01 590.53,-392.65"/>
</g>
<!-- http://purl.org/oseg/ontologies/OTRL#OTRL&#45;2&#45;&gt;http://www.w3.org/2002/07/owl#class -->
<g id="edge5" class="edge">
<title>http://purl.org/oseg/ontologies/OTRL#OTRL&#45;2&#45;&gt;http://www.w3.org/2002/07/owl#class</title>
<path fill="none" stroke="black" d="M713.72,-545.25C722.83,-542.76 732.72,-540.05 742.33,-537.43"/>
<polygon fill="black" stroke="black" points="743.48,-540.74 752.2,-534.72 741.63,-533.99 743.48,-540.74"/>
<text text-anchor="middle" x="732.52" y="-545.14" font-family="Times,serif" font-size="14.00">a</text>
</g>
<!-- http://purl.org/oseg/ontologies/OTRL#softwareDescription -->
<g id="node11" class="node">
<title>http://purl.org/oseg/ontologies/OTRL#softwareDescription</title>
<ellipse fill="none" stroke="#e377c2" cx="382.36" cy="-158.2" rx="113.69" ry="16.03"/>
<text text-anchor="middle" x="382.36" y="-154.5" font-family="Times,serif" font-size="14.00">softwareDescription</text>
</g>
<!-- http://purl.org/oseg/ontologies/OTRL#softwareDescription&#45;&gt;http://www.w3.org/2002/07/owl#DatatypeProperty -->
<g id="edge31" class="edge">
<title>http://purl.org/oseg/ontologies/OTRL#softwareDescription&#45;&gt;http://www.w3.org/2002/07/owl#DatatypeProperty</title>
<path fill="none" stroke="black" d="M353.38,-142.37C306.38,-116.71 213.56,-66.03 161.25,-37.47"/>
<polygon fill="black" stroke="black" points="162.74,-34.3 152.29,-32.58 159.38,-40.44 162.74,-34.3"/>
<text text-anchor="middle" x="252.81" y="-93.72" font-family="Times,serif" font-size="14.00">a</text>
</g>
<!-- http://purl.org/oseg/ontologies/OTRL#softwareDescription&#45;&gt;http://purl.org/oseg/ontologies/OTRL#OTRL -->
<g id="edge42" class="edge">
<title>http://purl.org/oseg/ontologies/OTRL#softwareDescription&#45;&gt;http://purl.org/oseg/ontologies/OTRL#OTRL</title>
<path fill="none" stroke="black" d="M397.08,-174.43C430.89,-211.74 514.21,-303.67 553.18,-346.67"/>
<polygon fill="black" stroke="black" points="550.61,-349.05 559.92,-354.11 555.8,-344.35 550.61,-349.05"/>
<text text-anchor="middle" x="448.63" y="-264.35" font-family="Times,serif" font-size="14.00">domain</text>
</g>
<!-- http://purl.org/oseg/ontologies/OTRL#softwareDescription&#45;&gt;http://schema.org/Text -->
<g id="edge22" class="edge">
<title>http://purl.org/oseg/ontologies/OTRL#softwareDescription&#45;&gt;http://schema.org/Text</title>
<path fill="none" stroke="black" d="M299.62,-146.94C268.86,-142.75 234.19,-138.03 204.31,-133.96"/>
<polygon fill="black" stroke="black" points="204.75,-130.49 194.37,-132.61 203.81,-137.43 204.75,-130.49"/>
<text text-anchor="middle" x="230.96" y="-144.25" font-family="Times,serif" font-size="14.00">range</text>
</g>
<!-- http://purl.org/oseg/ontologies/OTRL#documentationDescription -->
<g id="node12" class="node">
<title>http://purl.org/oseg/ontologies/OTRL#documentationDescription</title>
<ellipse fill="none" stroke="#e377c2" cx="434.14" cy="-89.64" rx="120.83" ry="16.03"/>
<text text-anchor="middle" x="434.14" y="-85.94" font-family="Times,serif" font-size="14.00">documentationDesc...</text>
</g>
<!-- http://purl.org/oseg/ontologies/OTRL#documentationDescription&#45;&gt;http://www.w3.org/2002/07/owl#DatatypeProperty -->
<g id="edge32" class="edge">
<title>http://purl.org/oseg/ontologies/OTRL#documentationDescription&#45;&gt;http://www.w3.org/2002/07/owl#DatatypeProperty</title>
<path fill="none" stroke="black" d="M373.8,-75.48C322.16,-63.35 247.76,-45.89 193.43,-33.14"/>
<polygon fill="black" stroke="black" points="194.06,-29.7 183.53,-30.82 192.46,-36.51 194.06,-29.7"/>
<text text-anchor="middle" x="279.11" y="-58.11" font-family="Times,serif" font-size="14.00">a</text>
</g>
<!-- http://purl.org/oseg/ontologies/OTRL#documentationDescription&#45;&gt;http://purl.org/oseg/ontologies/OTRL#OTRL -->
<g id="edge43" class="edge">
<title>http://purl.org/oseg/ontologies/OTRL#documentationDescription&#45;&gt;http://purl.org/oseg/ontologies/OTRL#OTRL</title>
<path fill="none" stroke="black" d="M442.26,-105.9C465.62,-152.67 533.12,-287.85 561.3,-344.3"/>
<polygon fill="black" stroke="black" points="558.34,-346.2 565.94,-353.58 564.6,-343.07 558.34,-346.2"/>
<text text-anchor="middle" x="475.28" y="-228.9" font-family="Times,serif" font-size="14.00">domain</text>
</g>
<!-- http://purl.org/oseg/ontologies/OTRL#documentationDescription&#45;&gt;http://schema.org/Text -->
<g id="edge23" class="edge">
<title>http://purl.org/oseg/ontologies/OTRL#documentationDescription&#45;&gt;http://schema.org/Text</title>
<path fill="none" stroke="black" d="M341.46,-100.12C298.56,-104.97 248.21,-110.66 207.48,-115.27"/>
<polygon fill="black" stroke="black" points="206.88,-111.81 197.34,-116.41 207.67,-118.77 206.88,-111.81"/>
<text text-anchor="middle" x="253.47" y="-111.49" font-family="Times,serif" font-size="14.00">range</text>
</g>
<!-- http://purl.org/oseg/ontologies/OTRL#ODRL&#45;5 -->
<g id="node13" class="node">
<title>http://purl.org/oseg/ontologies/OTRL#ODRL&#45;5</title>
<ellipse fill="none" stroke="#e377c2" cx="894.52" cy="-754.57" rx="50.82" ry="16.03"/>
<text text-anchor="middle" x="894.52" y="-750.87" font-family="Times,serif" font-size="14.00">ODRL&#45;5</text>
</g>
<!-- http://purl.org/oseg/ontologies/OTRL#ODRL&#45;5&#45;&gt;http://purl.org/oseg/ontologies/OTRL#ODRL -->
<g id="edge37" class="edge">
<title>http://purl.org/oseg/ontologies/OTRL#ODRL&#45;5&#45;&gt;http://purl.org/oseg/ontologies/OTRL#ODRL</title>
<path fill="none" stroke="black" d="M899.18,-738.2C905.06,-717.56 915.24,-681.83 922.2,-657.4"/>
<polygon fill="black" stroke="black" points="925.59,-658.27 924.97,-647.69 918.86,-656.35 925.59,-658.27"/>
</g>
<!-- http://purl.org/oseg/ontologies/OTRL#ODRL&#45;5&#45;&gt;http://www.w3.org/2002/07/owl#class -->
<g id="edge9" class="edge">
<title>http://purl.org/oseg/ontologies/OTRL#ODRL&#45;5&#45;&gt;http://www.w3.org/2002/07/owl#class</title>
<path fill="none" stroke="black" d="M887.44,-738.31C870.18,-698.67 825.84,-596.82 804.99,-548.93"/>
<polygon fill="black" stroke="black" points="808.12,-547.34 800.92,-539.57 801.7,-550.14 808.12,-547.34"/>
<text text-anchor="middle" x="841.72" y="-647.42" font-family="Times,serif" font-size="14.00">a</text>
</g>
<!-- http://purl.org/oseg/ontologies/OTRL#ODRL&#45;2 -->
<g id="node14" class="node">
<title>http://purl.org/oseg/ontologies/OTRL#ODRL&#45;2</title>
<ellipse fill="none" stroke="#e377c2" cx="1033.34" cy="-605.83" rx="50.82" ry="16.03"/>
<text text-anchor="middle" x="1033.34" y="-602.13" font-family="Times,serif" font-size="14.00">ODRL&#45;2</text>
</g>
<!-- http://purl.org/oseg/ontologies/OTRL#ODRL&#45;2&#45;&gt;http://purl.org/oseg/ontologies/OTRL#ODRL -->
<g id="edge30" class="edge">
<title>http://purl.org/oseg/ontologies/OTRL#ODRL&#45;2&#45;&gt;http://purl.org/oseg/ontologies/OTRL#ODRL</title>
<path fill="none" stroke="black" d="M992.96,-615.73C987.05,-617.18 980.94,-618.67 974.95,-620.14"/>
<polygon fill="black" stroke="black" points="973.92,-616.79 965.04,-622.57 975.58,-623.59 973.92,-616.79"/>
</g>
<!-- http://purl.org/oseg/ontologies/OTRL#ODRL&#45;2&#45;&gt;http://www.w3.org/2002/07/owl#class -->
<g id="edge35" class="edge">
<title>http://purl.org/oseg/ontologies/OTRL#ODRL&#45;2&#45;&gt;http://www.w3.org/2002/07/owl#class</title>
<path fill="none" stroke="black" d="M998.52,-593.83C956.61,-579.4 886.12,-555.11 839.79,-539.15"/>
<polygon fill="black" stroke="black" points="840.88,-535.83 830.28,-535.88 838.6,-542.45 840.88,-535.83"/>
<text text-anchor="middle" x="914.65" y="-570.29" font-family="Times,serif" font-size="14.00">a</text>
</g>
<!-- http://purl.org/oseg/ontologies/OTRL#OTRL&#45;3 -->
<g id="node15" class="node">
<title>http://purl.org/oseg/ontologies/OTRL#OTRL&#45;3</title>
<ellipse fill="none" stroke="#e377c2" cx="769.56" cy="-371.93" rx="49.49" ry="16.03"/>
<text text-anchor="middle" x="769.56" y="-368.23" font-family="Times,serif" font-size="14.00">OTRL&#45;3</text>
</g>
<!-- http://purl.org/oseg/ontologies/OTRL#OTRL&#45;3&#45;&gt;http://purl.org/oseg/ontologies/OTRL#OTRL -->
<g id="edge10" class="edge">
<title>http://purl.org/oseg/ontologies/OTRL#OTRL&#45;3&#45;&gt;http://purl.org/oseg/ontologies/OTRL#OTRL</title>
<path fill="none" stroke="black" d="M719.93,-371.32C690.46,-370.96 653.21,-370.5 623.71,-370.14"/>
<polygon fill="black" stroke="black" points="623.67,-366.64 613.62,-370.02 623.58,-373.64 623.67,-366.64"/>
</g>
<!-- http://purl.org/oseg/ontologies/OTRL#OTRL&#45;3&#45;&gt;http://www.w3.org/2002/07/owl#class -->
<g id="edge11" class="edge">
<title>http://purl.org/oseg/ontologies/OTRL#OTRL&#45;3&#45;&gt;http://www.w3.org/2002/07/owl#class</title>
<path fill="none" stroke="black" d="M772.2,-388.42C776.38,-414.47 784.55,-465.4 789.57,-496.68"/>
<polygon fill="black" stroke="black" points="786.16,-497.54 791.2,-506.86 793.08,-496.43 786.16,-497.54"/>
<text text-anchor="middle" x="776.39" y="-446.35" font-family="Times,serif" font-size="14.00">a</text>
</g>
<!-- http://purl.org/oseg/ontologies/OTRL#OTRL&#45;4 -->
<g id="node16" class="node">
<title>http://purl.org/oseg/ontologies/OTRL#OTRL&#45;4</title>
<ellipse fill="none" stroke="#e377c2" cx="601.53" cy="-601.62" rx="49.49" ry="16.03"/>
<text text-anchor="middle" x="601.53" y="-597.92" font-family="Times,serif" font-size="14.00">OTRL&#45;4</text>
</g>
<!-- http://purl.org/oseg/ontologies/OTRL#OTRL&#45;4&#45;&gt;http://purl.org/oseg/ontologies/OTRL#OTRL -->
<g id="edge46" class="edge">
<title>http://purl.org/oseg/ontologies/OTRL#OTRL&#45;4&#45;&gt;http://purl.org/oseg/ontologies/OTRL#OTRL</title>
<path fill="none" stroke="black" d="M599.59,-585.3C594.87,-545.69 582.78,-444.14 577.03,-395.83"/>
<polygon fill="black" stroke="black" points="580.5,-395.35 575.84,-385.83 573.55,-396.18 580.5,-395.35"/>
</g>
<!-- http://purl.org/oseg/ontologies/OTRL#OTRL&#45;4&#45;&gt;http://www.w3.org/2002/07/owl#class -->
<g id="edge12" class="edge">
<title>http://purl.org/oseg/ontologies/OTRL#OTRL&#45;4&#45;&gt;http://www.w3.org/2002/07/owl#class</title>
<path fill="none" stroke="black" d="M632.86,-588.87C665.06,-575.76 715.42,-555.26 751.23,-540.68"/>
<polygon fill="black" stroke="black" points="752.98,-543.75 760.92,-536.73 750.34,-537.26 752.98,-543.75"/>
<text text-anchor="middle" x="687.55" y="-568.57" font-family="Times,serif" font-size="14.00">a</text>
</g>
<!-- http://purl.org/oseg/ontologies/OTRL -->
<g id="node17" class="node">
<title>http://purl.org/oseg/ontologies/OTRL</title>
<ellipse fill="none" stroke="#e377c2" cx="800.95" cy="-160.42" rx="60.62" ry="16.03"/>
<text text-anchor="middle" x="800.95" y="-156.72" font-family="Times,serif" font-size="14.00">ns1:OTRL</text>
</g>
<!-- http://purl.org/oseg/ontologies/OTRL&#45;&gt;http://www.w3.org/2002/07/owl#Ontology -->
<g id="edge14" class="edge">
<title>http://purl.org/oseg/ontologies/OTRL&#45;&gt;http://www.w3.org/2002/07/owl#Ontology</title>
<path fill="none" stroke="black" d="M747.65,-168.38C740.94,-169.38 733.98,-170.42 727.02,-171.46"/>
<polygon fill="black" stroke="black" points="726.22,-168.04 716.85,-172.98 727.26,-174.96 726.22,-168.04"/>
<text text-anchor="middle" x="735.08" y="-158.72" font-family="Times,serif" font-size="14.00">a</text>
</g>
<!-- http://purl.org/oseg/ontologies/OTRL&#45;&gt;http://purl.org/oseg/ontologies/OTRL -->
<g id="edge45" class="edge">
<title>http://purl.org/oseg/ontologies/OTRL&#45;&gt;http://purl.org/oseg/ontologies/OTRL</title>
<path fill="none" stroke="black" d="M856.55,-167.05C869.89,-166.53 879.76,-164.32 879.76,-160.42 879.76,-157.58 874.55,-155.64 866.58,-154.59"/>
<polygon fill="black" stroke="black" points="866.8,-151.1 856.55,-153.78 866.24,-158.07 866.8,-151.1"/>
<text text-anchor="middle" x="931.26" y="-156.72" font-family="Times,serif" font-size="14.00">owl:versionIRI</text>
</g>
<!-- http://purl.org/oseg/ontologies/OTRL#OTRL&#45;5 -->
<g id="node18" class="node">
<title>http://purl.org/oseg/ontologies/OTRL#OTRL&#45;5</title>
<ellipse fill="none" stroke="#e377c2" cx="805.16" cy="-319.13" rx="49.49" ry="16.03"/>
<text text-anchor="middle" x="805.16" y="-315.43" font-family="Times,serif" font-size="14.00">OTRL&#45;5</text>
</g>
<!-- http://purl.org/oseg/ontologies/OTRL#OTRL&#45;5&#45;&gt;http://purl.org/oseg/ontologies/OTRL#OTRL -->
<g id="edge36" class="edge">
<title>http://purl.org/oseg/ontologies/OTRL#OTRL&#45;5&#45;&gt;http://purl.org/oseg/ontologies/OTRL#OTRL</title>
<path fill="none" stroke="black" d="M763.81,-328.14C723.13,-337.01 661.16,-350.51 619.17,-359.67"/>
<polygon fill="black" stroke="black" points="618.24,-356.29 609.21,-361.84 619.73,-363.13 618.24,-356.29"/>
</g>
<!-- http://purl.org/oseg/ontologies/OTRL#OTRL&#45;5&#45;&gt;http://www.w3.org/2002/07/owl#class -->
<g id="edge38" class="edge">
<title>http://purl.org/oseg/ontologies/OTRL#OTRL&#45;5&#45;&gt;http://www.w3.org/2002/07/owl#class</title>
<path fill="none" stroke="black" d="M804.25,-335.49C802.3,-370.67 797.7,-453.75 795.32,-496.65"/>
<polygon fill="black" stroke="black" points="791.82,-496.71 794.76,-506.89 798.81,-497.1 791.82,-496.71"/>
<text text-anchor="middle" x="795.29" y="-419.87" font-family="Times,serif" font-size="14.00">a</text>
</g>
<!-- http://purl.org/oseg/ontologies/OTRL#OTRL&#45;8 -->
<g id="node19" class="node">
<title>http://purl.org/oseg/ontologies/OTRL#OTRL&#45;8</title>
<ellipse fill="none" stroke="#e377c2" cx="679.67" cy="-319.87" rx="49.49" ry="16.03"/>
<text text-anchor="middle" x="679.67" y="-316.17" font-family="Times,serif" font-size="14.00">OTRL&#45;8</text>
</g>
<!-- http://purl.org/oseg/ontologies/OTRL#OTRL&#45;8&#45;&gt;http://purl.org/oseg/ontologies/OTRL#OTRL -->
<g id="edge13" class="edge">
<title>http://purl.org/oseg/ontologies/OTRL#OTRL&#45;8&#45;&gt;http://purl.org/oseg/ontologies/OTRL#OTRL</title>
<path fill="none" stroke="black" d="M651.05,-333.31C638.13,-339.38 622.73,-346.6 609.11,-353"/>
<polygon fill="black" stroke="black" points="607.58,-349.85 600.01,-357.27 610.55,-356.19 607.58,-349.85"/>
</g>
<!-- http://purl.org/oseg/ontologies/OTRL#OTRL&#45;8&#45;&gt;http://www.w3.org/2002/07/owl#class -->
<g id="edge39" class="edge">
<title>http://purl.org/oseg/ontologies/OTRL#OTRL&#45;8&#45;&gt;http://www.w3.org/2002/07/owl#class</title>
<path fill="none" stroke="black" d="M688.82,-336.17C708.75,-371.68 756.17,-456.18 779.86,-498.41"/>
<polygon fill="black" stroke="black" points="776.87,-500.22 784.81,-507.23 782.97,-496.8 776.87,-500.22"/>
<text text-anchor="middle" x="729.84" y="-421.09" font-family="Times,serif" font-size="14.00">a</text>
</g>
<!-- http://purl.org/oseg/ontologies/OTRL#exitCriteria -->
<g id="node20" class="node">
<title>http://purl.org/oseg/ontologies/OTRL#exitCriteria</title>
<ellipse fill="none" stroke="#e377c2" cx="347.88" cy="-248.74" rx="70.01" ry="16.03"/>
<text text-anchor="middle" x="347.88" y="-245.04" font-family="Times,serif" font-size="14.00">exitCriteria</text>
</g>
<!-- http://purl.org/oseg/ontologies/OTRL#exitCriteria&#45;&gt;http://www.w3.org/2002/07/owl#DatatypeProperty -->
<g id="edge40" class="edge">
<title>http://purl.org/oseg/ontologies/OTRL#exitCriteria&#45;&gt;http://www.w3.org/2002/07/owl#DatatypeProperty</title>
<path fill="none" stroke="black" d="M332.43,-232.78C293.62,-192.71 191.89,-87.68 146.06,-40.35"/>
<polygon fill="black" stroke="black" points="148.42,-37.76 138.95,-33.01 143.39,-42.63 148.42,-37.76"/>
<text text-anchor="middle" x="234.74" y="-125.37" font-family="Times,serif" font-size="14.00">a</text>
</g>
<!-- http://purl.org/oseg/ontologies/OTRL#exitCriteria&#45;&gt;http://purl.org/oseg/ontologies/OTRL#OTRL -->
<g id="edge8" class="edge">
<title>http://purl.org/oseg/ontologies/OTRL#exitCriteria&#45;&gt;http://purl.org/oseg/ontologies/OTRL#OTRL</title>
<path fill="none" stroke="black" d="M376.05,-263.79C417.81,-286.11 496,-327.9 540.56,-351.71"/>
<polygon fill="black" stroke="black" points="539.06,-354.88 549.53,-356.51 542.36,-348.71 539.06,-354.88"/>
<text text-anchor="middle" x="431.8" y="-311.55" font-family="Times,serif" font-size="14.00">domain</text>
</g>
<!-- http://purl.org/oseg/ontologies/OTRL#exitCriteria&#45;&gt;http://schema.org/Text -->
<g id="edge26" class="edge">
<title>http://purl.org/oseg/ontologies/OTRL#exitCriteria&#45;&gt;http://schema.org/Text</title>
<path fill="none" stroke="black" d="M321.25,-233.43C282.23,-211.01 209.47,-169.2 166.03,-144.23"/>
<polygon fill="black" stroke="black" points="167.64,-141.12 157.23,-139.18 164.16,-147.19 167.64,-141.12"/>
<text text-anchor="middle" x="222.64" y="-192.63" font-family="Times,serif" font-size="14.00">range</text>
</g>
<!-- http://purl.org/oseg/ontologies/OTRL#OTRL&#45;9 -->
<g id="node21" class="node">
<title>http://purl.org/oseg/ontologies/OTRL#OTRL&#45;9</title>
<ellipse fill="none" stroke="#e377c2" cx="511.33" cy="-560.79" rx="49.49" ry="16.03"/>
<text text-anchor="middle" x="511.33" y="-557.09" font-family="Times,serif" font-size="14.00">OTRL&#45;9</text>
</g>
<!-- http://purl.org/oseg/ontologies/OTRL#OTRL&#45;9&#45;&gt;http://purl.org/oseg/ontologies/OTRL#OTRL -->
<g id="edge27" class="edge">
<title>http://purl.org/oseg/ontologies/OTRL#OTRL&#45;9&#45;&gt;http://purl.org/oseg/ontologies/OTRL#OTRL</title>
<path fill="none" stroke="black" d="M516.67,-544.49C527.54,-511.25 552.35,-435.42 565.44,-395.39"/>
<polygon fill="black" stroke="black" points="568.8,-396.39 568.58,-385.8 562.15,-394.21 568.8,-396.39"/>
</g>
<!-- http://purl.org/oseg/ontologies/OTRL#OTRL&#45;9&#45;&gt;http://www.w3.org/2002/07/owl#class -->
<g id="edge41" class="edge">
<title>http://purl.org/oseg/ontologies/OTRL#OTRL&#45;9&#45;&gt;http://www.w3.org/2002/07/owl#class</title>
<path fill="none" stroke="black" d="M557.35,-554.69C604.7,-548.41 678.76,-538.59 731.38,-531.61"/>
<polygon fill="black" stroke="black" points="732.15,-535.04 741.61,-530.26 731.23,-528.1 732.15,-535.04"/>
<text text-anchor="middle" x="639.87" y="-531.95" font-family="Times,serif" font-size="14.00">a</text>
</g>
<!-- http://purl.org/oseg/ontologies/OTRL#hardwareDescription -->
<g id="node22" class="node">
<title>http://purl.org/oseg/ontologies/OTRL#hardwareDescription</title>
<ellipse fill="none" stroke="#e377c2" cx="267.09" cy="-333.83" rx="118.17" ry="16.03"/>
<text text-anchor="middle" x="267.09" y="-330.13" font-family="Times,serif" font-size="14.00">hardwareDescription</text>
</g>
<!-- http://purl.org/oseg/ontologies/OTRL#hardwareDescription&#45;&gt;http://www.w3.org/2002/07/owl#DatatypeProperty -->
<g id="edge16" class="edge">
<title>http://purl.org/oseg/ontologies/OTRL#hardwareDescription&#45;&gt;http://www.w3.org/2002/07/owl#DatatypeProperty</title>
<path fill="none" stroke="black" d="M259.55,-317.22C235.93,-265.19 163.25,-105.09 134.73,-42.29"/>
<polygon fill="black" stroke="black" points="137.87,-40.73 130.55,-33.08 131.5,-43.63 137.87,-40.73"/>
<text text-anchor="middle" x="192.64" y="-183.56" font-family="Times,serif" font-size="14.00">a</text>
</g>
<!-- http://purl.org/oseg/ontologies/OTRL#hardwareDescription&#45;&gt;http://purl.org/oseg/ontologies/OTRL#OTRL -->
<g id="edge21" class="edge">
<title>http://purl.org/oseg/ontologies/OTRL#hardwareDescription&#45;&gt;http://purl.org/oseg/ontologies/OTRL#OTRL</title>
<path fill="none" stroke="black" d="M357.49,-344.35C412.42,-350.74 480.41,-358.65 525.36,-363.88"/>
<polygon fill="black" stroke="black" points="525.09,-367.38 535.42,-365.05 525.9,-360.42 525.09,-367.38"/>
<text text-anchor="middle" x="414.92" y="-357.92" font-family="Times,serif" font-size="14.00">domain</text>
</g>
<!-- http://purl.org/oseg/ontologies/OTRL#hardwareDescription&#45;&gt;http://schema.org/Text -->
<g id="edge7" class="edge">
<title>http://purl.org/oseg/ontologies/OTRL#hardwareDescription&#45;&gt;http://schema.org/Text</title>
<path fill="none" stroke="black" d="M256.39,-317.36C232.53,-280.64 174.88,-191.9 146.72,-148.57"/>
<polygon fill="black" stroke="black" points="149.57,-146.53 141.19,-140.05 143.7,-150.34 149.57,-146.53"/>
<text text-anchor="middle" x="180.56" y="-236.77" font-family="Times,serif" font-size="14.00">range</text>
</g>
<!-- http://purl.org/oseg/ontologies/OTRL#ODRL&#45;4 -->
<g id="node23" class="node">
<title>http://purl.org/oseg/ontologies/OTRL#ODRL&#45;4</title>
<ellipse fill="none" stroke="#e377c2" cx="1039.34" cy="-518.09" rx="50.82" ry="16.03"/>
<text text-anchor="middle" x="1039.34" y="-514.39" font-family="Times,serif" font-size="14.00">ODRL&#45;4</text>
</g>
<!-- http://purl.org/oseg/ontologies/OTRL#ODRL&#45;4&#45;&gt;http://purl.org/oseg/ontologies/OTRL#ODRL -->
<g id="edge2" class="edge">
<title>http://purl.org/oseg/ontologies/OTRL#ODRL&#45;4&#45;&gt;http://purl.org/oseg/ontologies/OTRL#ODRL</title>
<path fill="none" stroke="black" d="M1024.09,-533.83C1005.23,-553.27 973.02,-586.51 951.53,-608.67"/>
<polygon fill="black" stroke="black" points="948.87,-606.4 944.42,-616.01 953.89,-611.27 948.87,-606.4"/>
</g>
<!-- http://purl.org/oseg/ontologies/OTRL#ODRL&#45;4&#45;&gt;http://www.w3.org/2002/07/owl#class -->
<g id="edge18" class="edge">
<title>http://purl.org/oseg/ontologies/OTRL#ODRL&#45;4&#45;&gt;http://www.w3.org/2002/07/owl#class</title>
<path fill="none" stroke="black" d="M988.47,-519.18C951.65,-519.96 901.51,-521.03 861.34,-521.89"/>
<polygon fill="black" stroke="black" points="861.01,-518.4 851.09,-522.11 861.16,-525.39 861.01,-518.4"/>
<text text-anchor="middle" x="920.41" y="-524.33" font-family="Times,serif" font-size="14.00">a</text>
</g>
<!-- http://purl.org/oseg/ontologies/OTRL#ODRL&#45;1 -->
<g id="node24" class="node">
<title>http://purl.org/oseg/ontologies/OTRL#ODRL&#45;1</title>
<ellipse fill="none" stroke="#e377c2" cx="784.27" cy="-746.98" rx="50.82" ry="16.03"/>
<text text-anchor="middle" x="784.27" y="-743.28" font-family="Times,serif" font-size="14.00">ODRL&#45;1</text>
</g>
<!-- http://purl.org/oseg/ontologies/OTRL#ODRL&#45;1&#45;&gt;http://purl.org/oseg/ontologies/OTRL#ODRL -->
<g id="edge29" class="edge">
<title>http://purl.org/oseg/ontologies/OTRL#ODRL&#45;1&#45;&gt;http://purl.org/oseg/ontologies/OTRL#ODRL</title>
<path fill="none" stroke="black" d="M803.28,-731.85C828.78,-711.55 874.19,-675.4 903.07,-652.41"/>
<polygon fill="black" stroke="black" points="905.45,-654.98 911.1,-646.02 901.1,-649.51 905.45,-654.98"/>
</g>
<!-- http://purl.org/oseg/ontologies/OTRL#ODRL&#45;1&#45;&gt;http://www.w3.org/2002/07/owl#class -->
<g id="edge44" class="edge">
<title>http://purl.org/oseg/ontologies/OTRL#ODRL&#45;1&#45;&gt;http://www.w3.org/2002/07/owl#class</title>
<path fill="none" stroke="black" d="M784.98,-730.53C786.62,-692.24 790.7,-596.85 792.7,-550.06"/>
<polygon fill="black" stroke="black" points="796.21,-549.94 793.14,-539.8 789.22,-549.64 796.21,-549.94"/>
<text text-anchor="middle" x="784.34" y="-644.1" font-family="Times,serif" font-size="14.00">a</text>
</g>
<!-- http://purl.org/oseg/ontologies/OTRL#OTRL&#45;7 -->
<g id="node25" class="node">
<title>http://purl.org/oseg/ontologies/OTRL#OTRL&#45;7</title>
<ellipse fill="none" stroke="#e377c2" cx="614.89" cy="-440" rx="49.49" ry="16.03"/>
<text text-anchor="middle" x="614.89" y="-436.3" font-family="Times,serif" font-size="14.00">OTRL&#45;7</text>
</g>
<!-- http://purl.org/oseg/ontologies/OTRL#OTRL&#45;7&#45;&gt;http://purl.org/oseg/ontologies/OTRL#OTRL -->
<g id="edge17" class="edge">
<title>http://purl.org/oseg/ontologies/OTRL#OTRL&#45;7&#45;&gt;http://purl.org/oseg/ontologies/OTRL#OTRL</title>
<path fill="none" stroke="black" d="M605.59,-424.01C600.45,-415.18 593.96,-404.03 588.2,-394.11"/>
<polygon fill="black" stroke="black" points="591.22,-392.35 583.17,-385.46 585.17,-395.86 591.22,-392.35"/>
</g>
<!-- http://purl.org/oseg/ontologies/OTRL#OTRL&#45;7&#45;&gt;http://www.w3.org/2002/07/owl#class -->
<g id="edge19" class="edge">
<title>http://purl.org/oseg/ontologies/OTRL#OTRL&#45;7&#45;&gt;http://www.w3.org/2002/07/owl#class</title>
<path fill="none" stroke="black" d="M643.64,-453.39C673.68,-467.38 721,-489.41 754.49,-505"/>
<polygon fill="black" stroke="black" points="753.43,-508.37 763.97,-509.42 756.38,-502.03 753.43,-508.37"/>
<text text-anchor="middle" x="694.56" y="-483" font-family="Times,serif" font-size="14.00">a</text>
</g>
<!-- http://purl.org/oseg/ontologies/OTRL#ODRL&#45;3 -->
<g id="node26" class="node">
<title>http://purl.org/oseg/ontologies/OTRL#ODRL&#45;3</title>
<ellipse fill="none" stroke="#e377c2" cx="974.23" cy="-705.88" rx="50.82" ry="16.03"/>
<text text-anchor="middle" x="974.23" y="-702.18" font-family="Times,serif" font-size="14.00">ODRL&#45;3</text>
</g>
<!-- http://purl.org/oseg/ontologies/OTRL#ODRL&#45;3&#45;&gt;http://purl.org/oseg/ontologies/OTRL#ODRL -->
<g id="edge6" class="edge">
<title>http://purl.org/oseg/ontologies/OTRL#ODRL&#45;3&#45;&gt;http://purl.org/oseg/ontologies/OTRL#ODRL</title>
<path fill="none" stroke="black" d="M964.56,-689.68C958.67,-679.84 951.04,-667.07 944.42,-655.98"/>
<polygon fill="black" stroke="black" points="947.28,-653.95 939.15,-647.16 941.27,-657.54 947.28,-653.95"/>
</g>
<!-- http://purl.org/oseg/ontologies/OTRL#ODRL&#45;3&#45;&gt;http://www.w3.org/2002/07/owl#class -->
<g id="edge20" class="edge">
<title>http://purl.org/oseg/ontologies/OTRL#ODRL&#45;3&#45;&gt;http://www.w3.org/2002/07/owl#class</title>
<path fill="none" stroke="black" d="M958.85,-690.31C927.11,-658.19 854.22,-584.42 816.85,-546.61"/>
<polygon fill="black" stroke="black" points="818.96,-543.77 809.44,-539.11 813.98,-548.69 818.96,-543.77"/>
<text text-anchor="middle" x="883.35" y="-622.26" font-family="Times,serif" font-size="14.00">a</text>
</g>
</g>
</svg>
