<?xml version="1.0" encoding="UTF-8" standalone="no"?>
<!DOCTYPE svg PUBLIC "-//W3C//DTD SVG 1.1//EN"
 "http://www.w3.org/Graphics/SVG/1.1/DTD/svg11.dtd">
<!-- Generated by graphviz version 2.43.0 (0)
 -->
<!-- Title: G Pages: 1 -->
<svg width="829pt" height="447pt"
 viewBox="0.00 0.00 828.76 447.00" xmlns="http://www.w3.org/2000/svg" xmlns:xlink="http://www.w3.org/1999/xlink">
<g id="graph0" class="graph" transform="scale(1 1) rotate(0) translate(4 443)">
<title>G</title>
<polygon fill="white" stroke="transparent" points="-4,4 -4,-443 824.76,-443 824.76,4 -4,4"/>
<!-- http://www.w3.org/2002/07/owl#class -->
<g id="node1" class="node">
<title>http://www.w3.org/2002/07/owl#class</title>
<ellipse fill="none" stroke="#1f77b4" cx="229.08" cy="-185.33" rx="57.05" ry="16.03"/>
<text text-anchor="middle" x="229.08" y="-181.63" font-family="Times,serif" font-size="14.00">owl:class</text>
</g>
<!-- http://purl.org/oseg/ontologies/OTRL#OTRL -->
<g id="node2" class="node">
<title>http://purl.org/oseg/ontologies/OTRL#OTRL</title>
<ellipse fill="none" stroke="#e377c2" cx="322.51" cy="-227.39" rx="39.7" ry="16.03"/>
<text text-anchor="middle" x="322.51" y="-223.69" font-family="Times,serif" font-size="14.00">OTRL</text>
</g>
<!-- http://purl.org/oseg/ontologies/OTRL#OTRL&#45;&gt;http://www.w3.org/2002/07/owl#class -->
<g id="edge1" class="edge">
<title>http://purl.org/oseg/ontologies/OTRL#OTRL&#45;&gt;http://www.w3.org/2002/07/owl#class</title>
<path fill="none" stroke="black" d="M295.74,-215.33C287.42,-211.59 278.05,-207.37 269.03,-203.31"/>
<polygon fill="black" stroke="black" points="270.37,-200.08 259.81,-199.16 267.49,-206.46 270.37,-200.08"/>
<text text-anchor="middle" x="277.88" y="-213.12" font-family="Times,serif" font-size="14.00">a</text>
</g>
<!-- http://www.w3.org/2002/07/owl#Ontology -->
<g id="node3" class="node">
<title>http://www.w3.org/2002/07/owl#Ontology</title>
<ellipse fill="none" stroke="#1f77b4" cx="491.32" cy="-38.47" rx="77.56" ry="16.03"/>
<text text-anchor="middle" x="491.32" y="-34.77" font-family="Times,serif" font-size="14.00">owl:Ontology</text>
</g>
<!-- http://purl.org/oseg/ontologies/OTRL#ODRL -->
<g id="node4" class="node">
<title>http://purl.org/oseg/ontologies/OTRL#ODRL</title>
<ellipse fill="none" stroke="#e377c2" cx="92.29" cy="-89.71" rx="41.94" ry="16.03"/>
<text text-anchor="middle" x="92.29" y="-86.01" font-family="Times,serif" font-size="14.00">ODRL</text>
</g>
<!-- http://www.w3.org/2002/07/owl#DatatypeProperty -->
<g id="node5" class="node">
<title>http://www.w3.org/2002/07/owl#DatatypeProperty</title>
<ellipse fill="none" stroke="#1f77b4" cx="490.58" cy="-422.66" rx="123.07" ry="16.03"/>
<text text-anchor="middle" x="490.58" y="-418.96" font-family="Times,serif" font-size="14.00">owl:DatatypeProperty</text>
</g>
<!-- http://purl.org/oseg/ontologies/OTRL#Odrl2 -->
<g id="node6" class="node">
<title>http://purl.org/oseg/ontologies/OTRL#Odrl2</title>
<ellipse fill="none" stroke="#e377c2" cx="79.85" cy="-243.64" rx="40.11" ry="16.03"/>
<text text-anchor="middle" x="79.85" y="-239.94" font-family="Times,serif" font-size="14.00">Odrl2</text>
</g>
<!-- http://purl.org/oseg/ontologies/OTRL#Odrl2&#45;&gt;http://www.w3.org/2002/07/owl#class -->
<g id="edge15" class="edge">
<title>http://purl.org/oseg/ontologies/OTRL#Odrl2&#45;&gt;http://www.w3.org/2002/07/owl#class</title>
<path fill="none" stroke="black" d="M108.98,-232.26C130.84,-223.72 161.14,-211.88 185.83,-202.23"/>
<polygon fill="black" stroke="black" points="187.29,-205.42 195.33,-198.52 184.74,-198.9 187.29,-205.42"/>
<text text-anchor="middle" x="142.9" y="-221.05" font-family="Times,serif" font-size="14.00">a</text>
</g>
<!-- http://purl.org/oseg/ontologies/OTRL#Odrl2&#45;&gt;http://purl.org/oseg/ontologies/OTRL#ODRL -->
<g id="edge26" class="edge">
<title>http://purl.org/oseg/ontologies/OTRL#Odrl2&#45;&gt;http://purl.org/oseg/ontologies/OTRL#ODRL</title>
<path fill="none" stroke="black" d="M81.18,-227.17C83.33,-200.67 87.56,-148.31 90.13,-116.42"/>
<polygon fill="black" stroke="black" points="93.65,-116.32 90.97,-106.07 86.68,-115.75 93.65,-116.32"/>
</g>
<!-- http://purl.org/oseg/ontologies/OTRL#Otrl6 -->
<g id="node7" class="node">
<title>http://purl.org/oseg/ontologies/OTRL#Otrl6</title>
<ellipse fill="none" stroke="#e377c2" cx="222.55" cy="-343.67" rx="38.37" ry="16.03"/>
<text text-anchor="middle" x="222.55" y="-339.97" font-family="Times,serif" font-size="14.00">Otrl6</text>
</g>
<!-- http://purl.org/oseg/ontologies/OTRL#Otrl6&#45;&gt;http://www.w3.org/2002/07/owl#class -->
<g id="edge17" class="edge">
<title>http://purl.org/oseg/ontologies/OTRL#Otrl6&#45;&gt;http://www.w3.org/2002/07/owl#class</title>
<path fill="none" stroke="black" d="M223.23,-327.32C224.35,-300.06 226.62,-245.07 227.98,-212.09"/>
<polygon fill="black" stroke="black" points="231.49,-211.96 228.4,-201.83 224.49,-211.67 231.49,-211.96"/>
<text text-anchor="middle" x="221.1" y="-273.51" font-family="Times,serif" font-size="14.00">a</text>
</g>
<!-- http://purl.org/oseg/ontologies/OTRL#Otrl6&#45;&gt;http://purl.org/oseg/ontologies/OTRL#OTRL -->
<g id="edge14" class="edge">
<title>http://purl.org/oseg/ontologies/OTRL#Otrl6&#45;&gt;http://purl.org/oseg/ontologies/OTRL#OTRL</title>
<path fill="none" stroke="black" d="M236.04,-327.99C253.2,-308.02 282.98,-273.37 302.72,-250.41"/>
<polygon fill="black" stroke="black" points="305.38,-252.69 309.25,-242.82 300.07,-248.12 305.38,-252.69"/>
</g>
<!-- http://purl.org/oseg/ontologies/OTRL#Otrl3 -->
<g id="node8" class="node">
<title>http://purl.org/oseg/ontologies/OTRL#Otrl3</title>
<ellipse fill="none" stroke="#e377c2" cx="206.92" cy="-231.23" rx="38.37" ry="16.03"/>
<text text-anchor="middle" x="206.92" y="-227.53" font-family="Times,serif" font-size="14.00">Otrl3</text>
</g>
<!-- http://purl.org/oseg/ontologies/OTRL#Otrl3&#45;&gt;http://www.w3.org/2002/07/owl#class -->
<g id="edge18" class="edge">
<title>http://purl.org/oseg/ontologies/OTRL#Otrl3&#45;&gt;http://www.w3.org/2002/07/owl#class</title>
<path fill="none" stroke="black" d="M214.67,-215.18C215.41,-213.65 216.17,-212.08 216.93,-210.49"/>
<polygon fill="black" stroke="black" points="220.1,-211.98 221.3,-201.45 213.8,-208.94 220.1,-211.98"/>
<text text-anchor="middle" x="211.3" y="-201.63" font-family="Times,serif" font-size="14.00">a</text>
</g>
<!-- http://purl.org/oseg/ontologies/OTRL#Otrl3&#45;&gt;http://purl.org/oseg/ontologies/OTRL#OTRL -->
<g id="edge5" class="edge">
<title>http://purl.org/oseg/ontologies/OTRL#Otrl3&#45;&gt;http://purl.org/oseg/ontologies/OTRL#OTRL</title>
<path fill="none" stroke="black" d="M245.09,-229.96C253.88,-229.67 263.36,-229.35 272.57,-229.05"/>
<polygon fill="black" stroke="black" points="272.92,-232.54 282.8,-228.71 272.69,-225.54 272.92,-232.54"/>
</g>
<!-- http://purl.org/oseg/ontologies/OTRL#Otrl5 -->
<g id="node9" class="node">
<title>http://purl.org/oseg/ontologies/OTRL#Otrl5</title>
<ellipse fill="none" stroke="#e377c2" cx="389.01" cy="-125.86" rx="38.37" ry="16.03"/>
<text text-anchor="middle" x="389.01" y="-122.16" font-family="Times,serif" font-size="14.00">Otrl5</text>
</g>
<!-- http://purl.org/oseg/ontologies/OTRL#Otrl5&#45;&gt;http://www.w3.org/2002/07/owl#class -->
<g id="edge19" class="edge">
<title>http://purl.org/oseg/ontologies/OTRL#Otrl5&#45;&gt;http://www.w3.org/2002/07/owl#class</title>
<path fill="none" stroke="black" d="M360.05,-136.63C335.9,-145.61 301.08,-158.56 273.42,-168.84"/>
<polygon fill="black" stroke="black" points="272.11,-165.59 263.96,-172.36 274.55,-172.16 272.11,-165.59"/>
<text text-anchor="middle" x="312.23" y="-156.54" font-family="Times,serif" font-size="14.00">a</text>
</g>
<!-- http://purl.org/oseg/ontologies/OTRL#Otrl5&#45;&gt;http://purl.org/oseg/ontologies/OTRL#OTRL -->
<g id="edge30" class="edge">
<title>http://purl.org/oseg/ontologies/OTRL#Otrl5&#45;&gt;http://purl.org/oseg/ontologies/OTRL#OTRL</title>
<path fill="none" stroke="black" d="M378.62,-141.73C367.84,-158.19 350.83,-184.15 338.37,-203.18"/>
<polygon fill="black" stroke="black" points="335.38,-201.35 332.83,-211.64 341.24,-205.19 335.38,-201.35"/>
</g>
<!-- http://purl.org/oseg/ontologies/OTRL -->
<g id="node10" class="node">
<title>http://purl.org/oseg/ontologies/OTRL</title>
<ellipse fill="none" stroke="#e377c2" cx="638.95" cy="-16.42" rx="60.62" ry="16.03"/>
<text text-anchor="middle" x="638.95" y="-12.72" font-family="Times,serif" font-size="14.00">ns1:OTRL</text>
</g>
<!-- http://purl.org/oseg/ontologies/OTRL&#45;&gt;http://www.w3.org/2002/07/owl#Ontology -->
<g id="edge3" class="edge">
<title>http://purl.org/oseg/ontologies/OTRL&#45;&gt;http://www.w3.org/2002/07/owl#Ontology</title>
<path fill="none" stroke="black" d="M585.65,-24.38C578.94,-25.38 571.98,-26.42 565.02,-27.46"/>
<polygon fill="black" stroke="black" points="564.22,-24.04 554.85,-28.98 565.26,-30.96 564.22,-24.04"/>
<text text-anchor="middle" x="573.08" y="-14.72" font-family="Times,serif" font-size="14.00">a</text>
</g>
<!-- http://purl.org/oseg/ontologies/OTRL&#45;&gt;http://purl.org/oseg/ontologies/OTRL -->
<g id="edge4" class="edge">
<title>http://purl.org/oseg/ontologies/OTRL&#45;&gt;http://purl.org/oseg/ontologies/OTRL</title>
<path fill="none" stroke="black" d="M694.55,-23.05C707.89,-22.53 717.76,-20.32 717.76,-16.42 717.76,-13.58 712.55,-11.64 704.58,-10.59"/>
<polygon fill="black" stroke="black" points="704.8,-7.1 694.55,-9.78 704.24,-14.07 704.8,-7.1"/>
<text text-anchor="middle" x="769.26" y="-12.72" font-family="Times,serif" font-size="14.00">owl:versionIRI</text>
</g>
<!-- http://purl.org/oseg/ontologies/OTRL#Odrl4 -->
<g id="node11" class="node">
<title>http://purl.org/oseg/ontologies/OTRL#Odrl4</title>
<ellipse fill="none" stroke="#e377c2" cx="201.45" cy="-15.87" rx="40.11" ry="16.03"/>
<text text-anchor="middle" x="201.45" y="-12.17" font-family="Times,serif" font-size="14.00">Odrl4</text>
</g>
<!-- http://purl.org/oseg/ontologies/OTRL#Odrl4&#45;&gt;http://www.w3.org/2002/07/owl#class -->
<g id="edge21" class="edge">
<title>http://purl.org/oseg/ontologies/OTRL#Odrl4&#45;&gt;http://www.w3.org/2002/07/owl#class</title>
<path fill="none" stroke="black" d="M204.1,-32.12C208.88,-61.4 218.96,-123.26 224.75,-158.77"/>
<polygon fill="black" stroke="black" points="221.34,-159.57 226.4,-168.88 228.24,-158.45 221.34,-159.57"/>
<text text-anchor="middle" x="209.93" y="-99.25" font-family="Times,serif" font-size="14.00">a</text>
</g>
<!-- http://purl.org/oseg/ontologies/OTRL#Odrl4&#45;&gt;http://purl.org/oseg/ontologies/OTRL#ODRL -->
<g id="edge20" class="edge">
<title>http://purl.org/oseg/ontologies/OTRL#Odrl4&#45;&gt;http://purl.org/oseg/ontologies/OTRL#ODRL</title>
<path fill="none" stroke="black" d="M180.66,-29.94C164,-41.21 140.42,-57.16 121.8,-69.75"/>
<polygon fill="black" stroke="black" points="119.7,-66.95 113.38,-75.45 123.62,-72.75 119.7,-66.95"/>
</g>
<!-- http://purl.org/oseg/ontologies/OTRL#Otrl -->
<g id="node12" class="node">
<title>http://purl.org/oseg/ontologies/OTRL#Otrl</title>
<ellipse fill="none" stroke="#e377c2" cx="124.24" cy="-338.64" rx="31.64" ry="16.03"/>
<text text-anchor="middle" x="124.24" y="-334.94" font-family="Times,serif" font-size="14.00">Otrl</text>
</g>
<!-- http://www.w3.org/1999/02/22&#45;rdf&#45;syntax&#45;ns#nil -->
<g id="node13" class="node">
<title>http://www.w3.org/1999/02/22&#45;rdf&#45;syntax&#45;ns#nil</title>
<ellipse fill="none" stroke="#e377c2" cx="433.24" cy="-361.64" rx="42.35" ry="16.03"/>
<text text-anchor="middle" x="433.24" y="-357.94" font-family="Times,serif" font-size="14.00">rdf:nil</text>
</g>
<!-- http://purl.org/oseg/ontologies/OTRL#Odrl3 -->
<g id="node14" class="node">
<title>http://purl.org/oseg/ontologies/OTRL#Odrl3</title>
<ellipse fill="none" stroke="#e377c2" cx="56.07" cy="-131.46" rx="40.11" ry="16.03"/>
<text text-anchor="middle" x="56.07" y="-127.76" font-family="Times,serif" font-size="14.00">Odrl3</text>
</g>
<!-- http://purl.org/oseg/ontologies/OTRL#Odrl3&#45;&gt;http://www.w3.org/2002/07/owl#class -->
<g id="edge7" class="edge">
<title>http://purl.org/oseg/ontologies/OTRL#Odrl3&#45;&gt;http://www.w3.org/2002/07/owl#class</title>
<path fill="none" stroke="black" d="M88.21,-141.47C114.2,-149.56 151.19,-161.08 180.75,-170.28"/>
<polygon fill="black" stroke="black" points="179.88,-173.67 190.46,-173.31 181.96,-166.99 179.88,-173.67"/>
<text text-anchor="middle" x="129.98" y="-159.67" font-family="Times,serif" font-size="14.00">a</text>
</g>
<!-- http://purl.org/oseg/ontologies/OTRL#Odrl3&#45;&gt;http://purl.org/oseg/ontologies/OTRL#ODRL -->
<g id="edge6" class="edge">
<title>http://purl.org/oseg/ontologies/OTRL#Odrl3&#45;&gt;http://purl.org/oseg/ontologies/OTRL#ODRL</title>
<path fill="none" stroke="black" d="M69.56,-115.92C70.42,-114.92 71.3,-113.92 72.18,-112.9"/>
<polygon fill="black" stroke="black" points="75.01,-114.98 78.92,-105.13 69.72,-110.39 75.01,-114.98"/>
</g>
<!-- http://purl.org/oseg/ontologies/OTRL#Odrl3Star -->
<g id="node15" class="node">
<title>http://purl.org/oseg/ontologies/OTRL#Odrl3Star</title>
<ellipse fill="none" stroke="#e377c2" cx="88.7" cy="-47.86" rx="62.45" ry="16.03"/>
<text text-anchor="middle" x="88.7" y="-44.16" font-family="Times,serif" font-size="14.00">Odrl3Star</text>
</g>
<!-- http://purl.org/oseg/ontologies/OTRL#Odrl3Star&#45;&gt;http://www.w3.org/2002/07/owl#class -->
<g id="edge23" class="edge">
<title>http://purl.org/oseg/ontologies/OTRL#Odrl3Star&#45;&gt;http://www.w3.org/2002/07/owl#class</title>
<path fill="none" stroke="black" d="M104.8,-63.63C129.53,-87.84 176.97,-134.3 205.55,-162.29"/>
<polygon fill="black" stroke="black" points="203.14,-164.82 212.73,-169.32 208.04,-159.82 203.14,-164.82"/>
<text text-anchor="middle" x="150.68" y="-116.76" font-family="Times,serif" font-size="14.00">a</text>
</g>
<!-- http://purl.org/oseg/ontologies/OTRL#Odrl3Star&#45;&gt;http://purl.org/oseg/ontologies/OTRL#ODRL -->
<g id="edge22" class="edge">
<title>http://purl.org/oseg/ontologies/OTRL#Odrl3Star&#45;&gt;http://purl.org/oseg/ontologies/OTRL#ODRL</title>
<path fill="none" stroke="black" d="M90.12,-64.4C90.13,-64.49 90.14,-64.58 90.14,-64.68"/>
<polygon fill="black" stroke="black" points="86.54,-63.63 90.88,-73.29 93.51,-63.03 86.54,-63.63"/>
</g>
<!-- http://purl.org/oseg/ontologies/OTRL#goal -->
<g id="node16" class="node">
<title>http://purl.org/oseg/ontologies/OTRL#goal</title>
<ellipse fill="none" stroke="#e377c2" cx="687.93" cy="-381.07" rx="33.47" ry="16.03"/>
<text text-anchor="middle" x="687.93" y="-377.37" font-family="Times,serif" font-size="14.00">goal</text>
</g>
<!-- http://purl.org/oseg/ontologies/OTRL#goal&#45;&gt;http://www.w3.org/2002/07/owl#DatatypeProperty -->
<g id="edge8" class="edge">
<title>http://purl.org/oseg/ontologies/OTRL#goal&#45;&gt;http://www.w3.org/2002/07/owl#DatatypeProperty</title>
<path fill="none" stroke="black" d="M657.09,-387.57C632.83,-392.68 597.97,-400.03 566.41,-406.68"/>
<polygon fill="black" stroke="black" points="565.36,-403.32 556.3,-408.81 566.8,-410.17 565.36,-403.32"/>
<text text-anchor="middle" x="616.25" y="-400.92" font-family="Times,serif" font-size="14.00">a</text>
</g>
<!-- http://schema.org/Text -->
<g id="node17" class="node">
<title>http://schema.org/Text</title>
<ellipse fill="none" stroke="#e377c2" cx="619.43" cy="-338.02" rx="74.91" ry="16.03"/>
<text text-anchor="middle" x="619.43" y="-334.32" font-family="Times,serif" font-size="14.00">schema:Text</text>
</g>
<!-- http://purl.org/oseg/ontologies/OTRL#goal&#45;&gt;http://schema.org/Text -->
<g id="edge13" class="edge">
<title>http://purl.org/oseg/ontologies/OTRL#goal&#45;&gt;http://schema.org/Text</title>
<path fill="none" stroke="black" d="M667.38,-368.15C662.84,-365.3 657.93,-362.21 653.03,-359.13"/>
<polygon fill="black" stroke="black" points="654.65,-356.02 644.32,-353.66 650.93,-361.95 654.65,-356.02"/>
<text text-anchor="middle" x="681.2" y="-352.44" font-family="Times,serif" font-size="14.00">range</text>
</g>
<!-- http://purl.org/oseg/ontologies/OTRL#Otrl2 -->
<g id="node18" class="node">
<title>http://purl.org/oseg/ontologies/OTRL#Otrl2</title>
<ellipse fill="none" stroke="#e377c2" cx="331.52" cy="-84.42" rx="38.37" ry="16.03"/>
<text text-anchor="middle" x="331.52" y="-80.72" font-family="Times,serif" font-size="14.00">Otrl2</text>
</g>
<!-- http://purl.org/oseg/ontologies/OTRL#Otrl2&#45;&gt;http://www.w3.org/2002/07/owl#class -->
<g id="edge25" class="edge">
<title>http://purl.org/oseg/ontologies/OTRL#Otrl2&#45;&gt;http://www.w3.org/2002/07/owl#class</title>
<path fill="none" stroke="black" d="M315.96,-99.75C299.06,-116.4 271.88,-143.17 252.42,-162.34"/>
<polygon fill="black" stroke="black" points="249.79,-160.02 245.12,-169.53 254.7,-165 249.79,-160.02"/>
<text text-anchor="middle" x="279.69" y="-134.84" font-family="Times,serif" font-size="14.00">a</text>
</g>
<!-- http://purl.org/oseg/ontologies/OTRL#Otrl2&#45;&gt;http://purl.org/oseg/ontologies/OTRL#OTRL -->
<g id="edge10" class="edge">
<title>http://purl.org/oseg/ontologies/OTRL#Otrl2&#45;&gt;http://purl.org/oseg/ontologies/OTRL#OTRL</title>
<path fill="none" stroke="black" d="M330.48,-100.82C328.95,-125.15 326.06,-171.06 324.21,-200.39"/>
<polygon fill="black" stroke="black" points="320.7,-200.54 323.56,-210.74 327.68,-200.98 320.7,-200.54"/>
</g>
<!-- http://purl.org/oseg/ontologies/OTRL#Odrl1 -->
<g id="node19" class="node">
<title>http://purl.org/oseg/ontologies/OTRL#Odrl1</title>
<ellipse fill="none" stroke="#e377c2" cx="39.89" cy="-197.04" rx="40.11" ry="16.03"/>
<text text-anchor="middle" x="39.89" y="-193.34" font-family="Times,serif" font-size="14.00">Odrl1</text>
</g>
<!-- http://purl.org/oseg/ontologies/OTRL#Odrl1&#45;&gt;http://www.w3.org/2002/07/owl#class -->
<g id="edge27" class="edge">
<title>http://purl.org/oseg/ontologies/OTRL#Odrl1&#45;&gt;http://www.w3.org/2002/07/owl#class</title>
<path fill="none" stroke="black" d="M80.01,-194.56C104.06,-193.07 135.25,-191.14 162.87,-189.43"/>
<polygon fill="black" stroke="black" points="163.1,-192.92 172.87,-188.81 162.67,-185.93 163.1,-192.92"/>
<text text-anchor="middle" x="116.94" y="-195.79" font-family="Times,serif" font-size="14.00">a</text>
</g>
<!-- http://purl.org/oseg/ontologies/OTRL#Odrl1&#45;&gt;http://purl.org/oseg/ontologies/OTRL#ODRL -->
<g id="edge2" class="edge">
<title>http://purl.org/oseg/ontologies/OTRL#Odrl1&#45;&gt;http://purl.org/oseg/ontologies/OTRL#ODRL</title>
<path fill="none" stroke="black" d="M47.85,-180.74C56.4,-163.23 70.1,-135.17 80.03,-114.83"/>
<polygon fill="black" stroke="black" points="83.19,-116.34 84.43,-105.82 76.9,-113.27 83.19,-116.34"/>
</g>
<!-- http://purl.org/oseg/ontologies/OTRL#exitCriteria -->
<g id="node20" class="node">
<title>http://purl.org/oseg/ontologies/OTRL#exitCriteria</title>
<ellipse fill="none" stroke="#e377c2" cx="576.05" cy="-381.26" rx="70.01" ry="16.03"/>
<text text-anchor="middle" x="576.05" y="-377.56" font-family="Times,serif" font-size="14.00">exitCriteria</text>
</g>
<!-- http://purl.org/oseg/ontologies/OTRL#exitCriteria&#45;&gt;http://www.w3.org/2002/07/owl#DatatypeProperty -->
<g id="edge28" class="edge">
<title>http://purl.org/oseg/ontologies/OTRL#exitCriteria&#45;&gt;http://www.w3.org/2002/07/owl#DatatypeProperty</title>
<path fill="none" stroke="black" d="M545.68,-395.97C541.35,-398.07 536.83,-400.26 532.33,-402.44"/>
<polygon fill="black" stroke="black" points="530.65,-399.36 523.18,-406.87 533.7,-405.66 530.65,-399.36"/>
<text text-anchor="middle" x="534.5" y="-403.01" font-family="Times,serif" font-size="14.00">a</text>
</g>
<!-- http://purl.org/oseg/ontologies/OTRL#exitCriteria&#45;&gt;http://schema.org/Text -->
<g id="edge24" class="edge">
<title>http://purl.org/oseg/ontologies/OTRL#exitCriteria&#45;&gt;http://schema.org/Text</title>
<path fill="none" stroke="black" d="M592.2,-365.16C593.46,-363.9 594.75,-362.62 596.04,-361.33"/>
<polygon fill="black" stroke="black" points="598.8,-363.53 603.41,-353.99 593.86,-358.57 598.8,-363.53"/>
<text text-anchor="middle" x="573.12" y="-352.04" font-family="Times,serif" font-size="14.00">range</text>
</g>
<!-- http://purl.org/oseg/ontologies/OTRL#Otrl1 -->
<g id="node21" class="node">
<title>http://purl.org/oseg/ontologies/OTRL#Otrl1</title>
<ellipse fill="none" stroke="#e377c2" cx="410.73" cy="-196.98" rx="38.37" ry="16.03"/>
<text text-anchor="middle" x="410.73" y="-193.28" font-family="Times,serif" font-size="14.00">Otrl1</text>
</g>
<!-- http://purl.org/oseg/ontologies/OTRL#Otrl1&#45;&gt;http://www.w3.org/2002/07/owl#class -->
<g id="edge9" class="edge">
<title>http://purl.org/oseg/ontologies/OTRL#Otrl1&#45;&gt;http://www.w3.org/2002/07/owl#class</title>
<path fill="none" stroke="black" d="M372.65,-194.54C350.24,-193.1 321.27,-191.24 295.24,-189.57"/>
<polygon fill="black" stroke="black" points="295.25,-186.07 285.04,-188.92 294.8,-193.05 295.25,-186.07"/>
<text text-anchor="middle" x="329.44" y="-195.86" font-family="Times,serif" font-size="14.00">a</text>
</g>
<!-- http://purl.org/oseg/ontologies/OTRL#Otrl1&#45;&gt;http://purl.org/oseg/ontologies/OTRL#OTRL -->
<g id="edge12" class="edge">
<title>http://purl.org/oseg/ontologies/OTRL#Otrl1&#45;&gt;http://purl.org/oseg/ontologies/OTRL#OTRL</title>
<path fill="none" stroke="black" d="M380.86,-207.28C374.96,-209.31 368.67,-211.48 362.5,-213.61"/>
<polygon fill="black" stroke="black" points="361.26,-210.33 352.95,-216.9 363.54,-216.95 361.26,-210.33"/>
</g>
<!-- http://purl.org/oseg/ontologies/OTRL#Odrl -->
<g id="node22" class="node">
<title>http://purl.org/oseg/ontologies/OTRL#Odrl</title>
<ellipse fill="none" stroke="#e377c2" cx="372.08" cy="-297.13" rx="33.88" ry="16.03"/>
<text text-anchor="middle" x="372.08" y="-293.43" font-family="Times,serif" font-size="14.00">Odrl</text>
</g>
<!-- http://purl.org/oseg/ontologies/OTRL#Odrl&#45;&gt;http://www.w3.org/2002/07/owl#class -->
<g id="edge11" class="edge">
<title>http://purl.org/oseg/ontologies/OTRL#Odrl&#45;&gt;http://www.w3.org/2002/07/owl#class</title>
<path fill="none" stroke="black" d="M354.26,-283.2C329.86,-264.13 285.82,-229.69 257.02,-207.17"/>
<polygon fill="black" stroke="black" points="259,-204.28 248.97,-200.88 254.69,-209.79 259,-204.28"/>
<text text-anchor="middle" x="301.14" y="-248.99" font-family="Times,serif" font-size="14.00">a</text>
</g>
<!-- http://purl.org/oseg/ontologies/OTRL#Otrl4 -->
<g id="node23" class="node">
<title>http://purl.org/oseg/ontologies/OTRL#Otrl4</title>
<ellipse fill="none" stroke="#e377c2" cx="309.43" cy="-349.1" rx="38.37" ry="16.03"/>
<text text-anchor="middle" x="309.43" y="-345.4" font-family="Times,serif" font-size="14.00">Otrl4</text>
</g>
<!-- http://purl.org/oseg/ontologies/OTRL#Otrl4&#45;&gt;http://www.w3.org/2002/07/owl#class -->
<g id="edge29" class="edge">
<title>http://purl.org/oseg/ontologies/OTRL#Otrl4&#45;&gt;http://www.w3.org/2002/07/owl#class</title>
<path fill="none" stroke="black" d="M301.58,-333.1C287.63,-304.68 258.44,-245.16 241.66,-210.97"/>
<polygon fill="black" stroke="black" points="244.63,-209.07 237.08,-201.64 238.34,-212.16 244.63,-209.07"/>
<text text-anchor="middle" x="267.12" y="-275.83" font-family="Times,serif" font-size="14.00">a</text>
</g>
<!-- http://purl.org/oseg/ontologies/OTRL#Otrl4&#45;&gt;http://purl.org/oseg/ontologies/OTRL#OTRL -->
<g id="edge16" class="edge">
<title>http://purl.org/oseg/ontologies/OTRL#Otrl4&#45;&gt;http://purl.org/oseg/ontologies/OTRL#OTRL</title>
<path fill="none" stroke="black" d="M311.19,-332.69C313.36,-312.54 317.06,-278.11 319.64,-254.13"/>
<polygon fill="black" stroke="black" points="323.15,-254.25 320.74,-243.93 316.19,-253.5 323.15,-254.25"/>
</g>
</g>
</svg>
