<?xml version="1.0" encoding="UTF-8" standalone="no"?>
<!DOCTYPE svg PUBLIC "-//W3C//DTD SVG 1.1//EN"
 "http://www.w3.org/Graphics/SVG/1.1/DTD/svg11.dtd">
<!-- Generated by graphviz version 2.43.0 (0)
 -->
<!-- Title: G Pages: 1 -->
<svg width="789pt" height="462pt"
 viewBox="0.00 0.00 788.76 462.00" xmlns="http://www.w3.org/2000/svg" xmlns:xlink="http://www.w3.org/1999/xlink">
<g id="graph0" class="graph" transform="scale(1 1) rotate(0) translate(4 458)">
<title>G</title>
<polygon fill="white" stroke="transparent" points="-4,4 -4,-458 784.76,-458 784.76,4 -4,4"/>
<!-- http://www.w3.org/2002/07/owl#class -->
<g id="node1" class="node">
<title>http://www.w3.org/2002/07/owl#class</title>
<ellipse fill="none" stroke="#1f77b4" cx="216.8" cy="-161.3" rx="57.05" ry="16.03"/>
<text text-anchor="middle" x="216.8" y="-157.6" font-family="Times,serif" font-size="14.00">owl:class</text>
</g>
<!-- http://www.w3.org/2002/07/owl#Ontology -->
<g id="node2" class="node">
<title>http://www.w3.org/2002/07/owl#Ontology</title>
<ellipse fill="none" stroke="#1f77b4" cx="451.32" cy="-38.47" rx="77.56" ry="16.03"/>
<text text-anchor="middle" x="451.32" y="-34.77" font-family="Times,serif" font-size="14.00">owl:Ontology</text>
</g>
<!-- http://purl.org/oseg/ontologies/OTRL#OTRL -->
<g id="node3" class="node">
<title>http://purl.org/oseg/ontologies/OTRL#OTRL</title>
<ellipse fill="none" stroke="#e377c2" cx="261.66" cy="-203.37" rx="39.7" ry="16.03"/>
<text text-anchor="middle" x="261.66" y="-199.67" font-family="Times,serif" font-size="14.00">OTRL</text>
</g>
<!-- http://purl.org/oseg/ontologies/OTRL#OTRL&#45;&gt;http://www.w3.org/2002/07/owl#class -->
<g id="edge8" class="edge">
<title>http://purl.org/oseg/ontologies/OTRL#OTRL&#45;&gt;http://www.w3.org/2002/07/owl#class</title>
<path fill="none" stroke="black" d="M245.72,-188.42C244.24,-187.03 242.73,-185.61 241.2,-184.18"/>
<polygon fill="black" stroke="black" points="243.29,-181.34 233.6,-177.05 238.5,-186.45 243.29,-181.34"/>
<text text-anchor="middle" x="238.96" y="-175.1" font-family="Times,serif" font-size="14.00">a</text>
</g>
<!-- http://purl.org/oseg/ontologies/OTRL#ODRL -->
<g id="node4" class="node">
<title>http://purl.org/oseg/ontologies/OTRL#ODRL</title>
<ellipse fill="none" stroke="#e377c2" cx="184.66" cy="-109.19" rx="41.94" ry="16.03"/>
<text text-anchor="middle" x="184.66" y="-105.49" font-family="Times,serif" font-size="14.00">ODRL</text>
</g>
<!-- http://www.w3.org/2002/07/owl#DatatypeProperty -->
<g id="node5" class="node">
<title>http://www.w3.org/2002/07/owl#DatatypeProperty</title>
<ellipse fill="none" stroke="#1f77b4" cx="452.82" cy="-364.42" rx="123.07" ry="16.03"/>
<text text-anchor="middle" x="452.82" y="-360.72" font-family="Times,serif" font-size="14.00">owl:DatatypeProperty</text>
</g>
<!-- http://www.w3.org/1999/02/22&#45;rdf&#45;syntax&#45;ns#nil -->
<g id="node6" class="node">
<title>http://www.w3.org/1999/02/22&#45;rdf&#45;syntax&#45;ns#nil</title>
<ellipse fill="none" stroke="#e377c2" cx="86.24" cy="-346.64" rx="42.35" ry="16.03"/>
<text text-anchor="middle" x="86.24" y="-342.94" font-family="Times,serif" font-size="14.00">rdf:nil</text>
</g>
<!-- http://purl.org/oseg/ontologies/OTRL#Odrl4 -->
<g id="node7" class="node">
<title>http://purl.org/oseg/ontologies/OTRL#Odrl4</title>
<ellipse fill="none" stroke="#e377c2" cx="77.41" cy="-133.17" rx="40.11" ry="16.03"/>
<text text-anchor="middle" x="77.41" y="-129.47" font-family="Times,serif" font-size="14.00">Odrl4</text>
</g>
<!-- http://purl.org/oseg/ontologies/OTRL#Odrl4&#45;&gt;http://www.w3.org/2002/07/owl#class -->
<g id="edge17" class="edge">
<title>http://purl.org/oseg/ontologies/OTRL#Odrl4&#45;&gt;http://www.w3.org/2002/07/owl#class</title>
<path fill="none" stroke="black" d="M113.67,-140.49C127.76,-143.33 144.25,-146.66 159.85,-149.81"/>
<polygon fill="black" stroke="black" points="159.45,-153.3 169.94,-151.84 160.83,-146.43 159.45,-153.3"/>
<text text-anchor="middle" x="132.26" y="-148.95" font-family="Times,serif" font-size="14.00">a</text>
</g>
<!-- http://purl.org/oseg/ontologies/OTRL#Odrl4&#45;&gt;http://purl.org/oseg/ontologies/OTRL#ODRL -->
<g id="edge19" class="edge">
<title>http://purl.org/oseg/ontologies/OTRL#Odrl4&#45;&gt;http://purl.org/oseg/ontologies/OTRL#ODRL</title>
<path fill="none" stroke="black" d="M112.83,-125.25C120.98,-123.43 129.78,-121.46 138.32,-119.55"/>
<polygon fill="black" stroke="black" points="139.19,-122.95 148.18,-117.35 137.66,-116.11 139.19,-122.95"/>
</g>
<!-- http://purl.org/oseg/ontologies/OTRL#Odrl3Star -->
<g id="node8" class="node">
<title>http://purl.org/oseg/ontologies/OTRL#Odrl3Star</title>
<ellipse fill="none" stroke="#e377c2" cx="61.79" cy="-188.86" rx="62.45" ry="16.03"/>
<text text-anchor="middle" x="61.79" y="-185.16" font-family="Times,serif" font-size="14.00">Odrl3Star</text>
</g>
<!-- http://purl.org/oseg/ontologies/OTRL#Odrl3Star&#45;&gt;http://www.w3.org/2002/07/owl#class -->
<g id="edge18" class="edge">
<title>http://purl.org/oseg/ontologies/OTRL#Odrl3Star&#45;&gt;http://www.w3.org/2002/07/owl#class</title>
<path fill="none" stroke="black" d="M113.4,-179.68C127.72,-177.14 143.36,-174.36 158.04,-171.74"/>
<polygon fill="black" stroke="black" points="158.8,-175.16 168.03,-169.97 157.57,-168.27 158.8,-175.16"/>
<text text-anchor="middle" x="131.22" y="-179.51" font-family="Times,serif" font-size="14.00">a</text>
</g>
<!-- http://purl.org/oseg/ontologies/OTRL#Odrl3Star&#45;&gt;http://purl.org/oseg/ontologies/OTRL#ODRL -->
<g id="edge21" class="edge">
<title>http://purl.org/oseg/ontologies/OTRL#Odrl3Star&#45;&gt;http://purl.org/oseg/ontologies/OTRL#ODRL</title>
<path fill="none" stroke="black" d="M85.19,-173.69C104.89,-160.91 133.21,-142.55 154.59,-128.69"/>
<polygon fill="black" stroke="black" points="156.51,-131.62 162.99,-123.24 152.7,-125.74 156.51,-131.62"/>
</g>
<!-- http://purl.org/oseg/ontologies/OTRL#Otrl4 -->
<g id="node9" class="node">
<title>http://purl.org/oseg/ontologies/OTRL#Otrl4</title>
<ellipse fill="none" stroke="#e377c2" cx="209.91" cy="-309.24" rx="38.37" ry="16.03"/>
<text text-anchor="middle" x="209.91" y="-305.54" font-family="Times,serif" font-size="14.00">Otrl4</text>
</g>
<!-- http://purl.org/oseg/ontologies/OTRL#Otrl4&#45;&gt;http://www.w3.org/2002/07/owl#class -->
<g id="edge2" class="edge">
<title>http://purl.org/oseg/ontologies/OTRL#Otrl4&#45;&gt;http://www.w3.org/2002/07/owl#class</title>
<path fill="none" stroke="black" d="M210.67,-292.84C211.85,-267.51 214.13,-218.62 215.55,-188.1"/>
<polygon fill="black" stroke="black" points="219.06,-187.92 216.03,-177.77 212.07,-187.59 219.06,-187.92"/>
<text text-anchor="middle" x="208.61" y="-244.27" font-family="Times,serif" font-size="14.00">a</text>
</g>
<!-- http://purl.org/oseg/ontologies/OTRL#Otrl4&#45;&gt;http://purl.org/oseg/ontologies/OTRL#OTRL -->
<g id="edge1" class="edge">
<title>http://purl.org/oseg/ontologies/OTRL#Otrl4&#45;&gt;http://purl.org/oseg/ontologies/OTRL#OTRL</title>
<path fill="none" stroke="black" d="M217.77,-293.16C226.13,-276.06 239.47,-248.77 249.25,-228.76"/>
<polygon fill="black" stroke="black" points="252.48,-230.12 253.73,-219.6 246.19,-227.04 252.48,-230.12"/>
</g>
<!-- http://purl.org/oseg/ontologies/OTRL#Odrl -->
<g id="node10" class="node">
<title>http://purl.org/oseg/ontologies/OTRL#Odrl</title>
<ellipse fill="none" stroke="#e377c2" cx="100.44" cy="-71.96" rx="33.88" ry="16.03"/>
<text text-anchor="middle" x="100.44" y="-68.26" font-family="Times,serif" font-size="14.00">Odrl</text>
</g>
<!-- http://purl.org/oseg/ontologies/OTRL#Odrl&#45;&gt;http://www.w3.org/2002/07/owl#class -->
<g id="edge20" class="edge">
<title>http://purl.org/oseg/ontologies/OTRL#Odrl&#45;&gt;http://www.w3.org/2002/07/owl#class</title>
<path fill="none" stroke="black" d="M118.62,-85.91C137.36,-100.3 166.81,-122.92 188.58,-139.63"/>
<polygon fill="black" stroke="black" points="186.73,-142.62 196.8,-145.94 191,-137.07 186.73,-142.62"/>
<text text-anchor="middle" x="149.1" y="-116.57" font-family="Times,serif" font-size="14.00">a</text>
</g>
<!-- http://purl.org/oseg/ontologies/OTRL#Odrl3 -->
<g id="node11" class="node">
<title>http://purl.org/oseg/ontologies/OTRL#Odrl3</title>
<ellipse fill="none" stroke="#e377c2" cx="245.85" cy="-16.63" rx="40.11" ry="16.03"/>
<text text-anchor="middle" x="245.85" y="-12.93" font-family="Times,serif" font-size="14.00">Odrl3</text>
</g>
<!-- http://purl.org/oseg/ontologies/OTRL#Odrl3&#45;&gt;http://www.w3.org/2002/07/owl#class -->
<g id="edge3" class="edge">
<title>http://purl.org/oseg/ontologies/OTRL#Odrl3&#45;&gt;http://www.w3.org/2002/07/owl#class</title>
<path fill="none" stroke="black" d="M242.58,-32.94C237.61,-57.69 228.11,-104.97 222.13,-134.73"/>
<polygon fill="black" stroke="black" points="218.64,-134.33 220.11,-144.82 225.51,-135.7 218.64,-134.33"/>
<text text-anchor="middle" x="236.86" y="-87.63" font-family="Times,serif" font-size="14.00">a</text>
</g>
<!-- http://purl.org/oseg/ontologies/OTRL#Odrl3&#45;&gt;http://purl.org/oseg/ontologies/OTRL#ODRL -->
<g id="edge13" class="edge">
<title>http://purl.org/oseg/ontologies/OTRL#Odrl3&#45;&gt;http://purl.org/oseg/ontologies/OTRL#ODRL</title>
<path fill="none" stroke="black" d="M235.19,-32.75C225.72,-47.09 211.72,-68.26 200.86,-84.69"/>
<polygon fill="black" stroke="black" points="197.79,-82.98 195.2,-93.25 203.63,-86.84 197.79,-82.98"/>
</g>
<!-- http://purl.org/oseg/ontologies/OTRL -->
<g id="node12" class="node">
<title>http://purl.org/oseg/ontologies/OTRL</title>
<ellipse fill="none" stroke="#e377c2" cx="598.95" cy="-16.42" rx="60.62" ry="16.03"/>
<text text-anchor="middle" x="598.95" y="-12.72" font-family="Times,serif" font-size="14.00">ns1:OTRL</text>
</g>
<!-- http://purl.org/oseg/ontologies/OTRL&#45;&gt;http://www.w3.org/2002/07/owl#Ontology -->
<g id="edge11" class="edge">
<title>http://purl.org/oseg/ontologies/OTRL&#45;&gt;http://www.w3.org/2002/07/owl#Ontology</title>
<path fill="none" stroke="black" d="M545.65,-24.38C538.94,-25.38 531.98,-26.42 525.02,-27.46"/>
<polygon fill="black" stroke="black" points="524.22,-24.04 514.85,-28.98 525.26,-30.96 524.22,-24.04"/>
<text text-anchor="middle" x="533.08" y="-14.72" font-family="Times,serif" font-size="14.00">a</text>
</g>
<!-- http://purl.org/oseg/ontologies/OTRL&#45;&gt;http://purl.org/oseg/ontologies/OTRL -->
<g id="edge22" class="edge">
<title>http://purl.org/oseg/ontologies/OTRL&#45;&gt;http://purl.org/oseg/ontologies/OTRL</title>
<path fill="none" stroke="black" d="M654.55,-23.05C667.89,-22.53 677.76,-20.32 677.76,-16.42 677.76,-13.58 672.55,-11.64 664.58,-10.59"/>
<polygon fill="black" stroke="black" points="664.8,-7.1 654.55,-9.78 664.24,-14.07 664.8,-7.1"/>
<text text-anchor="middle" x="729.26" y="-12.72" font-family="Times,serif" font-size="14.00">owl:versionIRI</text>
</g>
<!-- http://purl.org/oseg/ontologies/OTRL#Odrl2 -->
<g id="node13" class="node">
<title>http://purl.org/oseg/ontologies/OTRL#Odrl2</title>
<ellipse fill="none" stroke="#e377c2" cx="187.48" cy="-68.21" rx="40.11" ry="16.03"/>
<text text-anchor="middle" x="187.48" y="-64.51" font-family="Times,serif" font-size="14.00">Odrl2</text>
</g>
<!-- http://purl.org/oseg/ontologies/OTRL#Odrl2&#45;&gt;http://www.w3.org/2002/07/owl#class -->
<g id="edge4" class="edge">
<title>http://purl.org/oseg/ontologies/OTRL#Odrl2&#45;&gt;http://www.w3.org/2002/07/owl#class</title>
<path fill="none" stroke="black" d="M192.59,-84.42C196.97,-98.35 203.38,-118.7 208.51,-134.97"/>
<polygon fill="black" stroke="black" points="205.31,-136.47 211.65,-144.96 211.99,-134.37 205.31,-136.47"/>
<text text-anchor="middle" x="196.05" y="-113.49" font-family="Times,serif" font-size="14.00">a</text>
</g>
<!-- http://purl.org/oseg/ontologies/OTRL#Odrl2&#45;&gt;http://purl.org/oseg/ontologies/OTRL#ODRL -->
<g id="edge14" class="edge">
<title>http://purl.org/oseg/ontologies/OTRL#Odrl2&#45;&gt;http://purl.org/oseg/ontologies/OTRL#ODRL</title>
<path fill="none" stroke="black" d="M186.33,-84.88C186.32,-85.04 186.31,-85.2 186.3,-85.36"/>
<polygon fill="black" stroke="black" points="182.99,-82.45 185.8,-92.67 189.97,-82.93 182.99,-82.45"/>
</g>
<!-- http://purl.org/oseg/ontologies/OTRL#Otrl -->
<g id="node14" class="node">
<title>http://purl.org/oseg/ontologies/OTRL#Otrl</title>
<ellipse fill="none" stroke="#e377c2" cx="406.24" cy="-104.64" rx="31.64" ry="16.03"/>
<text text-anchor="middle" x="406.24" y="-100.94" font-family="Times,serif" font-size="14.00">Otrl</text>
</g>
<!-- http://schema.org/Text -->
<g id="node15" class="node">
<title>http://schema.org/Text</title>
<ellipse fill="none" stroke="#e377c2" cx="601.34" cy="-438.12" rx="74.91" ry="16.03"/>
<text text-anchor="middle" x="601.34" y="-434.42" font-family="Times,serif" font-size="14.00">schema:Text</text>
</g>
<!-- http://purl.org/oseg/ontologies/OTRL#exitCriteria -->
<g id="node16" class="node">
<title>http://purl.org/oseg/ontologies/OTRL#exitCriteria</title>
<ellipse fill="none" stroke="#e377c2" cx="455.93" cy="-323.88" rx="70.01" ry="16.03"/>
<text text-anchor="middle" x="455.93" y="-320.18" font-family="Times,serif" font-size="14.00">exitCriteria</text>
</g>
<!-- http://purl.org/oseg/ontologies/OTRL#exitCriteria&#45;&gt;http://www.w3.org/2002/07/owl#DatatypeProperty -->
<g id="edge9" class="edge">
<title>http://purl.org/oseg/ontologies/OTRL#exitCriteria&#45;&gt;http://www.w3.org/2002/07/owl#DatatypeProperty</title>
<path fill="none" stroke="black" d="M454.67,-340.37C454.65,-340.52 454.64,-340.68 454.63,-340.84"/>
<polygon fill="black" stroke="black" points="451.35,-337.84 454.07,-348.07 458.33,-338.37 451.35,-337.84"/>
<text text-anchor="middle" x="450.15" y="-344.4" font-family="Times,serif" font-size="14.00">a</text>
</g>
<!-- http://purl.org/oseg/ontologies/OTRL#exitCriteria&#45;&gt;http://schema.org/Text -->
<g id="edge6" class="edge">
<title>http://purl.org/oseg/ontologies/OTRL#exitCriteria&#45;&gt;http://schema.org/Text</title>
<path fill="none" stroke="black" d="M475.84,-339.52C501.05,-359.32 544.61,-393.55 573.2,-416.01"/>
<polygon fill="black" stroke="black" points="571.17,-418.87 581.2,-422.3 575.5,-413.37 571.17,-418.87"/>
<text text-anchor="middle" x="545.52" y="-381.57" font-family="Times,serif" font-size="14.00">range</text>
</g>
<!-- http://purl.org/oseg/ontologies/OTRL#Otrl5 -->
<g id="node17" class="node">
<title>http://purl.org/oseg/ontologies/OTRL#Otrl5</title>
<ellipse fill="none" stroke="#e377c2" cx="362.33" cy="-166.05" rx="38.37" ry="16.03"/>
<text text-anchor="middle" x="362.33" y="-162.35" font-family="Times,serif" font-size="14.00">Otrl5</text>
</g>
<!-- http://purl.org/oseg/ontologies/OTRL#Otrl5&#45;&gt;http://www.w3.org/2002/07/owl#class -->
<g id="edge10" class="edge">
<title>http://purl.org/oseg/ontologies/OTRL#Otrl5&#45;&gt;http://www.w3.org/2002/07/owl#class</title>
<path fill="none" stroke="black" d="M324.09,-164.8C311.88,-164.4 297.98,-163.95 284.32,-163.5"/>
<polygon fill="black" stroke="black" points="284.07,-159.99 273.96,-163.16 283.84,-166.99 284.07,-159.99"/>
<text text-anchor="middle" x="299.71" y="-167.95" font-family="Times,serif" font-size="14.00">a</text>
</g>
<!-- http://purl.org/oseg/ontologies/OTRL#Otrl5&#45;&gt;http://purl.org/oseg/ontologies/OTRL#OTRL -->
<g id="edge5" class="edge">
<title>http://purl.org/oseg/ontologies/OTRL#Otrl5&#45;&gt;http://purl.org/oseg/ontologies/OTRL#OTRL</title>
<path fill="none" stroke="black" d="M333.48,-176.74C323.34,-180.5 311.77,-184.79 300.91,-188.81"/>
<polygon fill="black" stroke="black" points="299.37,-185.65 291.21,-192.41 301.81,-192.22 299.37,-185.65"/>
</g>
<!-- http://purl.org/oseg/ontologies/OTRL#Odrl1 -->
<g id="node18" class="node">
<title>http://purl.org/oseg/ontologies/OTRL#Odrl1</title>
<ellipse fill="none" stroke="#e377c2" cx="303.59" cy="-59.32" rx="40.11" ry="16.03"/>
<text text-anchor="middle" x="303.59" y="-55.62" font-family="Times,serif" font-size="14.00">Odrl1</text>
</g>
<!-- http://purl.org/oseg/ontologies/OTRL#Odrl1&#45;&gt;http://www.w3.org/2002/07/owl#class -->
<g id="edge12" class="edge">
<title>http://purl.org/oseg/ontologies/OTRL#Odrl1&#45;&gt;http://www.w3.org/2002/07/owl#class</title>
<path fill="none" stroke="black" d="M290.41,-74.81C276.22,-91.48 253.47,-118.21 237.02,-137.54"/>
<polygon fill="black" stroke="black" points="234.21,-135.44 230.39,-145.33 239.54,-139.98 234.21,-135.44"/>
<text text-anchor="middle" x="259.21" y="-109.98" font-family="Times,serif" font-size="14.00">a</text>
</g>
<!-- http://purl.org/oseg/ontologies/OTRL#Odrl1&#45;&gt;http://purl.org/oseg/ontologies/OTRL#ODRL -->
<g id="edge16" class="edge">
<title>http://purl.org/oseg/ontologies/OTRL#Odrl1&#45;&gt;http://purl.org/oseg/ontologies/OTRL#ODRL</title>
<path fill="none" stroke="black" d="M275.41,-71.14C259.79,-77.69 240.15,-85.92 223.13,-93.06"/>
<polygon fill="black" stroke="black" points="221.34,-90.02 213.47,-97.11 224.04,-96.47 221.34,-90.02"/>
</g>
<!-- http://purl.org/oseg/ontologies/OTRL#Otrl1 -->
<g id="node19" class="node">
<title>http://purl.org/oseg/ontologies/OTRL#Otrl1</title>
<ellipse fill="none" stroke="#e377c2" cx="151.9" cy="-243.68" rx="38.37" ry="16.03"/>
<text text-anchor="middle" x="151.9" y="-239.98" font-family="Times,serif" font-size="14.00">Otrl1</text>
</g>
<!-- http://purl.org/oseg/ontologies/OTRL#Otrl1&#45;&gt;http://www.w3.org/2002/07/owl#class -->
<g id="edge15" class="edge">
<title>http://purl.org/oseg/ontologies/OTRL#Otrl1&#45;&gt;http://www.w3.org/2002/07/owl#class</title>
<path fill="none" stroke="black" d="M164.11,-228.19C173.6,-216.14 186.93,-199.22 197.8,-185.41"/>
<polygon fill="black" stroke="black" points="200.77,-187.31 204.2,-177.29 195.27,-182.98 200.77,-187.31"/>
<text text-anchor="middle" x="176.46" y="-210.6" font-family="Times,serif" font-size="14.00">a</text>
</g>
<!-- http://purl.org/oseg/ontologies/OTRL#Otrl1&#45;&gt;http://purl.org/oseg/ontologies/OTRL#OTRL -->
<g id="edge7" class="edge">
<title>http://purl.org/oseg/ontologies/OTRL#Otrl1&#45;&gt;http://purl.org/oseg/ontologies/OTRL#OTRL</title>
<path fill="none" stroke="black" d="M181.03,-232.99C193.7,-228.33 208.75,-222.8 222.39,-217.79"/>
<polygon fill="black" stroke="black" points="223.84,-220.99 232.02,-214.26 221.42,-214.42 223.84,-220.99"/>
</g>
<!-- http://purl.org/oseg/ontologies/OTRL#goal -->
<g id="node20" class="node">
<title>http://purl.org/oseg/ontologies/OTRL#goal</title>
<ellipse fill="none" stroke="#e377c2" cx="455.88" cy="-405.28" rx="33.47" ry="16.03"/>
<text text-anchor="middle" x="455.88" y="-401.58" font-family="Times,serif" font-size="14.00">goal</text>
</g>
<!-- http://purl.org/oseg/ontologies/OTRL#goal&#45;&gt;http://www.w3.org/2002/07/owl#DatatypeProperty -->
<g id="edge26" class="edge">
<title>http://purl.org/oseg/ontologies/OTRL#goal&#45;&gt;http://www.w3.org/2002/07/owl#DatatypeProperty</title>
<path fill="none" stroke="black" d="M454.64,-388.66C454.63,-388.5 454.61,-388.34 454.6,-388.18"/>
<polygon fill="black" stroke="black" points="458.29,-390.6 454.06,-380.89 451.31,-391.13 458.29,-390.6"/>
<text text-anchor="middle" x="450.12" y="-377.22" font-family="Times,serif" font-size="14.00">a</text>
</g>
<!-- http://purl.org/oseg/ontologies/OTRL#goal&#45;&gt;http://schema.org/Text -->
<g id="edge25" class="edge">
<title>http://purl.org/oseg/ontologies/OTRL#goal&#45;&gt;http://schema.org/Text</title>
<path fill="none" stroke="black" d="M486.38,-412.17C501.77,-415.64 521.03,-419.99 539.35,-424.13"/>
<polygon fill="black" stroke="black" points="538.59,-427.54 549.12,-426.33 540.13,-420.71 538.59,-427.54"/>
<text text-anchor="middle" x="533.86" y="-406.95" font-family="Times,serif" font-size="14.00">range</text>
</g>
<!-- http://purl.org/oseg/ontologies/OTRL#Otrl2 -->
<g id="node21" class="node">
<title>http://purl.org/oseg/ontologies/OTRL#Otrl2</title>
<ellipse fill="none" stroke="#e377c2" cx="347.87" cy="-245.46" rx="38.37" ry="16.03"/>
<text text-anchor="middle" x="347.87" y="-241.76" font-family="Times,serif" font-size="14.00">Otrl2</text>
</g>
<!-- http://purl.org/oseg/ontologies/OTRL#Otrl2&#45;&gt;http://www.w3.org/2002/07/owl#class -->
<g id="edge27" class="edge">
<title>http://purl.org/oseg/ontologies/OTRL#Otrl2&#45;&gt;http://www.w3.org/2002/07/owl#class</title>
<path fill="none" stroke="black" d="M326.52,-231.75C305.46,-218.22 273,-197.38 248.84,-181.87"/>
<polygon fill="black" stroke="black" points="250.66,-178.88 240.36,-176.42 246.88,-184.77 250.66,-178.88"/>
<text text-anchor="middle" x="283.18" y="-210.61" font-family="Times,serif" font-size="14.00">a</text>
</g>
<!-- http://purl.org/oseg/ontologies/OTRL#Otrl2&#45;&gt;http://purl.org/oseg/ontologies/OTRL#OTRL -->
<g id="edge23" class="edge">
<title>http://purl.org/oseg/ontologies/OTRL#Otrl2&#45;&gt;http://purl.org/oseg/ontologies/OTRL#OTRL</title>
<path fill="none" stroke="black" d="M322.47,-233.06C314.3,-229.07 305.1,-224.58 296.38,-220.32"/>
<polygon fill="black" stroke="black" points="297.7,-217.07 287.18,-215.82 294.63,-223.36 297.7,-217.07"/>
</g>
<!-- http://purl.org/oseg/ontologies/OTRL#Otrl3 -->
<g id="node22" class="node">
<title>http://purl.org/oseg/ontologies/OTRL#Otrl3</title>
<ellipse fill="none" stroke="#e377c2" cx="260.16" cy="-249.89" rx="38.37" ry="16.03"/>
<text text-anchor="middle" x="260.16" y="-246.19" font-family="Times,serif" font-size="14.00">Otrl3</text>
</g>
<!-- http://purl.org/oseg/ontologies/OTRL#Otrl3&#45;&gt;http://www.w3.org/2002/07/owl#class -->
<g id="edge28" class="edge">
<title>http://purl.org/oseg/ontologies/OTRL#Otrl3&#45;&gt;http://www.w3.org/2002/07/owl#class</title>
<path fill="none" stroke="black" d="M252.21,-233.64C245.79,-220.52 236.64,-201.84 229.26,-186.75"/>
<polygon fill="black" stroke="black" points="232.24,-184.89 224.7,-177.44 225.95,-187.96 232.24,-184.89"/>
<text text-anchor="middle" x="236.23" y="-213.99" font-family="Times,serif" font-size="14.00">a</text>
</g>
<!-- http://purl.org/oseg/ontologies/OTRL#Otrl3&#45;&gt;http://purl.org/oseg/ontologies/OTRL#OTRL -->
<g id="edge24" class="edge">
<title>http://purl.org/oseg/ontologies/OTRL#Otrl3&#45;&gt;http://purl.org/oseg/ontologies/OTRL#OTRL</title>
<path fill="none" stroke="black" d="M260.68,-233.62C260.73,-232.35 260.77,-231.05 260.81,-229.74"/>
<polygon fill="black" stroke="black" points="264.31,-229.81 261.13,-219.71 257.31,-229.59 264.31,-229.81"/>
</g>
</g>
</svg>
