<?xml version="1.0" encoding="UTF-8" standalone="no"?>
<!DOCTYPE svg PUBLIC "-//W3C//DTD SVG 1.1//EN"
 "http://www.w3.org/Graphics/SVG/1.1/DTD/svg11.dtd">
<!-- Generated by graphviz version 2.43.0 (0)
 -->
<!-- Title: G Pages: 1 -->
<svg width="1912pt" height="1707pt"
 viewBox="0.00 0.00 1912.00 1707.00" xmlns="http://www.w3.org/2000/svg" xmlns:xlink="http://www.w3.org/1999/xlink">
<g id="graph0" class="graph" transform="scale(1 1) rotate(0) translate(4 1703)">
<title>G</title>
<polygon fill="white" stroke="transparent" points="-4,4 -4,-1703 1908,-1703 1908,4 -4,4"/>
<!-- http://www.w3.org/2002/07/owl#Ontology -->
<g id="node1" class="node">
<title>http://www.w3.org/2002/07/owl#Ontology</title>
<ellipse fill="none" stroke="#1f77b4" cx="1329.06" cy="-657.49" rx="77.56" ry="16.03"/>
<text text-anchor="middle" x="1329.06" y="-653.79" font-family="Times,serif" font-size="14.00">owl:Ontology</text>
</g>
<!-- https://w3id.org/oseg/ont/otrl#OTRL6 -->
<g id="node2" class="node">
<title>https://w3id.org/oseg/ont/otrl#OTRL6</title>
<ellipse fill="none" stroke="#e377c2" cx="960.85" cy="-1304.77" rx="67.35" ry="16.03"/>
<text text-anchor="middle" x="960.85" y="-1301.07" font-family="Times,serif" font-size="14.00">otrl:OTRL6</text>
</g>
<!-- https://w3id.org/oseg/ont/otrl#OTRL -->
<g id="node9" class="node">
<title>https://w3id.org/oseg/ont/otrl#OTRL</title>
<ellipse fill="none" stroke="#e377c2" cx="1051.86" cy="-1040.64" rx="60.62" ry="16.03"/>
<text text-anchor="middle" x="1051.86" y="-1036.94" font-family="Times,serif" font-size="14.00">otrl:OTRL</text>
</g>
<!-- https://w3id.org/oseg/ont/otrl#OTRL6&#45;&gt;https://w3id.org/oseg/ont/otrl#OTRL -->
<g id="edge26" class="edge">
<title>https://w3id.org/oseg/ont/otrl#OTRL6&#45;&gt;https://w3id.org/oseg/ont/otrl#OTRL</title>
<path fill="none" stroke="black" d="M966.54,-1288.25C981.9,-1243.69 1024.26,-1120.76 1042.88,-1066.71"/>
<polygon fill="black" stroke="black" points="1046.22,-1067.75 1046.17,-1057.16 1039.6,-1065.47 1046.22,-1067.75"/>
</g>
<!-- https://w3id.org/oseg/ont/otrl#ODRL -->
<g id="node3" class="node">
<title>https://w3id.org/oseg/ont/otrl#ODRL</title>
<ellipse fill="none" stroke="#e377c2" cx="867.14" cy="-437.54" rx="62.87" ry="16.03"/>
<text text-anchor="middle" x="867.14" y="-433.84" font-family="Times,serif" font-size="14.00">otrl:ODRL</text>
</g>
<!-- http://www.w3.org/2002/07/owl#DatatypeProperty -->
<g id="node4" class="node">
<title>http://www.w3.org/2002/07/owl#DatatypeProperty</title>
<ellipse fill="none" stroke="#1f77b4" cx="675.62" cy="-746.35" rx="123.07" ry="16.03"/>
<text text-anchor="middle" x="675.62" y="-742.65" font-family="Times,serif" font-size="14.00">owl:DatatypeProperty</text>
</g>
<!-- https://w3id.org/oseg/ont/otrl#ODRL3 -->
<g id="node5" class="node">
<title>https://w3id.org/oseg/ont/otrl#ODRL3</title>
<ellipse fill="none" stroke="#e377c2" cx="595.89" cy="-440.32" rx="69.09" ry="16.03"/>
<text text-anchor="middle" x="595.89" y="-436.62" font-family="Times,serif" font-size="14.00">otrl:ODRL3</text>
</g>
<!-- https://w3id.org/oseg/ont/otrl#ODRL3&#45;&gt;https://w3id.org/oseg/ont/otrl#ODRL -->
<g id="edge46" class="edge">
<title>https://w3id.org/oseg/ont/otrl#ODRL3&#45;&gt;https://w3id.org/oseg/ont/otrl#ODRL</title>
<path fill="none" stroke="black" d="M665.39,-439.61C704.67,-439.2 753.74,-438.7 793.65,-438.29"/>
<polygon fill="black" stroke="black" points="793.89,-441.79 803.85,-438.19 793.82,-434.79 793.89,-441.79"/>
</g>
<!-- https://w3id.org/oseg/ont/otrl#OTRL5 -->
<g id="node6" class="node">
<title>https://w3id.org/oseg/ont/otrl#OTRL5</title>
<ellipse fill="none" stroke="#e377c2" cx="1329.34" cy="-1130.59" rx="67.35" ry="16.03"/>
<text text-anchor="middle" x="1329.34" y="-1126.89" font-family="Times,serif" font-size="14.00">otrl:OTRL5</text>
</g>
<!-- https://w3id.org/oseg/ont/otrl#OTRL5&#45;&gt;https://w3id.org/oseg/ont/otrl#OTRL -->
<g id="edge1" class="edge">
<title>https://w3id.org/oseg/ont/otrl#OTRL5&#45;&gt;https://w3id.org/oseg/ont/otrl#OTRL</title>
<path fill="none" stroke="black" d="M1288.99,-1117.51C1239.04,-1101.32 1154.04,-1073.76 1100.52,-1056.42"/>
<polygon fill="black" stroke="black" points="1101.51,-1053.06 1090.91,-1053.3 1099.35,-1059.72 1101.51,-1053.06"/>
</g>
<!-- https://w3id.org/oseg/ont/otrl#OTRL3 -->
<g id="node7" class="node">
<title>https://w3id.org/oseg/ont/otrl#OTRL3</title>
<ellipse fill="none" stroke="#e377c2" cx="842.07" cy="-1208" rx="67.35" ry="16.03"/>
<text text-anchor="middle" x="842.07" y="-1204.3" font-family="Times,serif" font-size="14.00">otrl:OTRL3</text>
</g>
<!-- https://w3id.org/oseg/ont/otrl#OTRL3&#45;&gt;https://w3id.org/oseg/ont/otrl#OTRL -->
<g id="edge4" class="edge">
<title>https://w3id.org/oseg/ont/otrl#OTRL3&#45;&gt;https://w3id.org/oseg/ont/otrl#OTRL</title>
<path fill="none" stroke="black" d="M861.81,-1192.26C899.39,-1162.28 981.3,-1096.93 1024.28,-1062.65"/>
<polygon fill="black" stroke="black" points="1026.7,-1065.2 1032.33,-1056.22 1022.33,-1059.72 1026.7,-1065.2"/>
</g>
<!-- https://w3id.org/oseg/ont/otrl#ODRL2 -->
<g id="node8" class="node">
<title>https://w3id.org/oseg/ont/otrl#ODRL2</title>
<ellipse fill="none" stroke="#e377c2" cx="631.57" cy="-300.63" rx="69.09" ry="16.03"/>
<text text-anchor="middle" x="631.57" y="-296.93" font-family="Times,serif" font-size="14.00">otrl:ODRL2</text>
</g>
<!-- https://w3id.org/oseg/ont/otrl#ODRL2&#45;&gt;https://w3id.org/oseg/ont/otrl#ODRL -->
<g id="edge39" class="edge">
<title>https://w3id.org/oseg/ont/otrl#ODRL2&#45;&gt;https://w3id.org/oseg/ont/otrl#ODRL</title>
<path fill="none" stroke="black" d="M657.68,-315.81C700.33,-340.6 784.96,-389.78 832.55,-417.44"/>
<polygon fill="black" stroke="black" points="830.87,-420.51 841.27,-422.51 834.38,-414.46 830.87,-420.51"/>
</g>
<!-- https://w3id.org/oseg/ont/otrl#ODRL4 -->
<g id="node10" class="node">
<title>https://w3id.org/oseg/ont/otrl#ODRL4</title>
<ellipse fill="none" stroke="#e377c2" cx="757.38" cy="-230.26" rx="69.09" ry="16.03"/>
<text text-anchor="middle" x="757.38" y="-226.56" font-family="Times,serif" font-size="14.00">otrl:ODRL4</text>
</g>
<!-- https://w3id.org/oseg/ont/otrl#ODRL4&#45;&gt;https://w3id.org/oseg/ont/otrl#ODRL -->
<g id="edge20" class="edge">
<title>https://w3id.org/oseg/ont/otrl#ODRL4&#45;&gt;https://w3id.org/oseg/ont/otrl#ODRL</title>
<path fill="none" stroke="black" d="M765.99,-246.53C785.06,-282.55 830.99,-369.27 853.81,-412.36"/>
<polygon fill="black" stroke="black" points="850.79,-414.15 858.57,-421.35 856.98,-410.88 850.79,-414.15"/>
</g>
<!-- https://w3id.org/oseg/ont/otrl#ODRL1 -->
<g id="node11" class="node">
<title>https://w3id.org/oseg/ont/otrl#ODRL1</title>
<ellipse fill="none" stroke="#e377c2" cx="1129.75" cy="-336.8" rx="69.09" ry="16.03"/>
<text text-anchor="middle" x="1129.75" y="-333.1" font-family="Times,serif" font-size="14.00">otrl:ODRL1</text>
</g>
<!-- https://w3id.org/oseg/ont/otrl#ODRL1&#45;&gt;https://w3id.org/oseg/ont/otrl#ODRL -->
<g id="edge17" class="edge">
<title>https://w3id.org/oseg/ont/otrl#ODRL1&#45;&gt;https://w3id.org/oseg/ont/otrl#ODRL</title>
<path fill="none" stroke="black" d="M1093.51,-350.7C1046.19,-368.85 963.36,-400.63 912.09,-420.3"/>
<polygon fill="black" stroke="black" points="910.67,-417.09 902.59,-423.94 913.18,-423.63 910.67,-417.09"/>
</g>
<!-- https://w3id.org/oseg/ont/otrl#OTRL1 -->
<g id="node12" class="node">
<title>https://w3id.org/oseg/ont/otrl#OTRL1</title>
<ellipse fill="none" stroke="#e377c2" cx="1195.35" cy="-1292.33" rx="67.35" ry="16.03"/>
<text text-anchor="middle" x="1195.35" y="-1288.63" font-family="Times,serif" font-size="14.00">otrl:OTRL1</text>
</g>
<!-- https://w3id.org/oseg/ont/otrl#OTRL1&#45;&gt;https://w3id.org/oseg/ont/otrl#OTRL -->
<g id="edge21" class="edge">
<title>https://w3id.org/oseg/ont/otrl#OTRL1&#45;&gt;https://w3id.org/oseg/ont/otrl#OTRL</title>
<path fill="none" stroke="black" d="M1186.16,-1276.2C1161.82,-1233.51 1095.56,-1117.3 1066.2,-1065.79"/>
<polygon fill="black" stroke="black" points="1069.16,-1063.92 1061.17,-1056.96 1063.08,-1067.38 1069.16,-1063.92"/>
</g>
<!-- https://w3id.org/oseg/ont/otrl#OTRL4 -->
<g id="node13" class="node">
<title>https://w3id.org/oseg/ont/otrl#OTRL4</title>
<ellipse fill="none" stroke="#e377c2" cx="1183.73" cy="-1136.85" rx="67.35" ry="16.03"/>
<text text-anchor="middle" x="1183.73" y="-1133.15" font-family="Times,serif" font-size="14.00">otrl:OTRL4</text>
</g>
<!-- https://w3id.org/oseg/ont/otrl#OTRL4&#45;&gt;https://w3id.org/oseg/ont/otrl#OTRL -->
<g id="edge10" class="edge">
<title>https://w3id.org/oseg/ont/otrl#OTRL4&#45;&gt;https://w3id.org/oseg/ont/otrl#OTRL</title>
<path fill="none" stroke="black" d="M1162.54,-1121.4C1140.53,-1105.34 1105.92,-1080.08 1081.26,-1062.1"/>
<polygon fill="black" stroke="black" points="1083.14,-1059.13 1073,-1056.06 1079.01,-1064.78 1083.14,-1059.13"/>
</g>
<!-- https://w3id.org/oseg/ont/otrl#OTRL2 -->
<g id="node14" class="node">
<title>https://w3id.org/oseg/ont/otrl#OTRL2</title>
<ellipse fill="none" stroke="#e377c2" cx="1326.66" cy="-979.48" rx="67.35" ry="16.03"/>
<text text-anchor="middle" x="1326.66" y="-975.78" font-family="Times,serif" font-size="14.00">otrl:OTRL2</text>
</g>
<!-- https://w3id.org/oseg/ont/otrl#OTRL2&#45;&gt;https://w3id.org/oseg/ont/otrl#OTRL -->
<g id="edge19" class="edge">
<title>https://w3id.org/oseg/ont/otrl#OTRL2&#45;&gt;https://w3id.org/oseg/ont/otrl#OTRL</title>
<path fill="none" stroke="black" d="M1276.9,-990.55C1229.58,-1001.08 1158.47,-1016.91 1108.89,-1027.95"/>
<polygon fill="black" stroke="black" points="1107.96,-1024.57 1098.96,-1030.16 1109.48,-1031.4 1107.96,-1024.57"/>
</g>
<!-- https://w3id.org/oseg/ont/otrl#ODRL3Star -->
<g id="node15" class="node">
<title>https://w3id.org/oseg/ont/otrl#ODRL3Star</title>
<ellipse fill="none" stroke="#e377c2" cx="880.47" cy="-115.7" rx="90.52" ry="16.03"/>
<text text-anchor="middle" x="880.47" y="-112" font-family="Times,serif" font-size="14.00">otrl:ODRL3Star</text>
</g>
<!-- https://w3id.org/oseg/ont/otrl#ODRL3Star&#45;&gt;https://w3id.org/oseg/ont/otrl#ODRL -->
<g id="edge47" class="edge">
<title>https://w3id.org/oseg/ont/otrl#ODRL3Star&#45;&gt;https://w3id.org/oseg/ont/otrl#ODRL</title>
<path fill="none" stroke="black" d="M879.79,-132.1C877.63,-184.29 870.9,-346.84 868.24,-411.05"/>
<polygon fill="black" stroke="black" points="864.74,-411.03 867.82,-421.17 871.73,-411.32 864.74,-411.03"/>
</g>
<!-- http://schema.org/Text -->
<g id="node16" class="node">
<title>http://schema.org/Text</title>
<ellipse fill="none" stroke="#e377c2" cx="779" cy="-874.2" rx="74.91" ry="16.03"/>
<text text-anchor="middle" x="779" y="-870.5" font-family="Times,serif" font-size="14.00">schema:Text</text>
</g>
<!-- https://w3id.org/oseg/ont/otrl -->
<g id="node17" class="node">
<title>https://w3id.org/oseg/ont/otrl</title>
<ellipse fill="none" stroke="#e377c2" cx="1376.54" cy="-616.92" rx="50.82" ry="16.03"/>
<text text-anchor="middle" x="1376.54" y="-613.22" font-family="Times,serif" font-size="14.00">ns1:otrl</text>
</g>
<!-- https://w3id.org/oseg/ont/otrl&#45;&gt;http://www.w3.org/2002/07/owl#Ontology -->
<g id="edge22" class="edge">
<title>https://w3id.org/oseg/ont/otrl&#45;&gt;http://www.w3.org/2002/07/owl#Ontology</title>
<path fill="none" stroke="black" d="M1358.59,-632.26C1357.58,-633.11 1356.57,-633.99 1355.54,-634.86"/>
<polygon fill="black" stroke="black" points="1353,-632.43 1347.67,-641.59 1357.54,-637.75 1353,-632.43"/>
<text text-anchor="middle" x="1352.56" y="-637.36" font-family="Times,serif" font-size="14.00">a</text>
</g>
<!-- https://w3id.org/oseg/ont/otrl&#45;&gt;https://w3id.org/oseg/ont/otrl -->
<g id="edge29" class="edge">
<title>https://w3id.org/oseg/ont/otrl&#45;&gt;https://w3id.org/oseg/ont/otrl</title>
<path fill="none" stroke="black" d="M1423.24,-623.62C1435.85,-623.27 1445.45,-621.03 1445.45,-616.92 1445.45,-614.03 1440.71,-612.06 1433.51,-611.03"/>
<polygon fill="black" stroke="black" points="1433.49,-607.52 1423.24,-610.22 1432.93,-614.5 1433.49,-607.52"/>
<text text-anchor="middle" x="1496.95" y="-613.22" font-family="Times,serif" font-size="14.00">owl:versionIRI</text>
</g>
<!-- https://www.gnu.org/licenses/gpl&#45;3.0.txt -->
<g id="node18" class="node">
<title>https://www.gnu.org/licenses/gpl&#45;3.0.txt</title>
<ellipse fill="none" stroke="#e377c2" cx="1383.03" cy="-572.4" rx="85.62" ry="16.03"/>
<text text-anchor="middle" x="1383.03" y="-568.7" font-family="Times,serif" font-size="14.00">ns2:gpl&#45;3.0.txt</text>
</g>
<!-- https://w3id.org/oseg/ont/otrl&#45;&gt;https://www.gnu.org/licenses/gpl&#45;3.0.txt -->
<g id="edge23" class="edge">
<title>https://w3id.org/oseg/ont/otrl&#45;&gt;https://www.gnu.org/licenses/gpl&#45;3.0.txt</title>
<path fill="none" stroke="black" d="M1385.55,-600.78C1385.67,-600.18 1385.8,-599.56 1385.91,-598.94"/>
<polygon fill="black" stroke="black" points="1389.41,-599.19 1387.16,-588.84 1382.46,-598.33 1389.41,-599.19"/>
<text text-anchor="middle" x="1442.23" y="-588.66" font-family="Times,serif" font-size="14.00">dcterms:license</text>
</g>
<!-- https://w3id.org/oseg/ont/otrl&#45;&gt;https://www.gnu.org/licenses/gpl&#45;3.0.txt -->
<g id="edge30" class="edge">
<title>https://w3id.org/oseg/ont/otrl&#45;&gt;https://www.gnu.org/licenses/gpl&#45;3.0.txt</title>
<path fill="none" stroke="black" d="M1372.39,-600.67C1372.42,-600.06 1372.47,-599.45 1372.52,-598.83"/>
<polygon fill="black" stroke="black" points="1376,-599.18 1373.97,-588.78 1369.07,-598.18 1376,-599.18"/>
<text text-anchor="middle" x="1337.45" y="-588.55" font-family="Times,serif" font-size="14.00">cc:license</text>
</g>
<!-- https://w3id.org/oseg/ont/otrl#exitCriteria -->
<g id="node19" class="node">
<title>https://w3id.org/oseg/ont/otrl#exitCriteria</title>
<ellipse fill="none" stroke="#e377c2" cx="1012.08" cy="-726.6" rx="91.43" ry="16.03"/>
<text text-anchor="middle" x="1012.08" y="-722.9" font-family="Times,serif" font-size="14.00">otrl:exitCriteria</text>
</g>
<!-- https://w3id.org/oseg/ont/otrl#exitCriteria&#45;&gt;https://w3id.org/oseg/ont/otrl#ODRL -->
<g id="edge45" class="edge">
<title>https://w3id.org/oseg/ont/otrl#exitCriteria&#45;&gt;https://w3id.org/oseg/ont/otrl#ODRL</title>
<path fill="none" stroke="black" d="M1003.87,-710.23C979.76,-662.14 908.99,-521 879.88,-462.94"/>
<polygon fill="black" stroke="black" points="882.87,-461.1 875.26,-453.73 876.61,-464.24 882.87,-461.1"/>
<text text-anchor="middle" x="855.88" y="-590.39" font-family="Times,serif" font-size="14.00">schema:domainIncludes</text>
</g>
<!-- https://w3id.org/oseg/ont/otrl#exitCriteria&#45;&gt;http://www.w3.org/2002/07/owl#DatatypeProperty -->
<g id="edge24" class="edge">
<title>https://w3id.org/oseg/ont/otrl#exitCriteria&#45;&gt;http://www.w3.org/2002/07/owl#DatatypeProperty</title>
<path fill="none" stroke="black" d="M925.44,-731.69C886.77,-733.96 840.52,-736.67 798.38,-739.14"/>
<polygon fill="black" stroke="black" points="798.11,-735.65 788.33,-739.73 798.52,-742.64 798.11,-735.65"/>
<text text-anchor="middle" x="857.41" y="-739.21" font-family="Times,serif" font-size="14.00">a</text>
</g>
<!-- https://w3id.org/oseg/ont/otrl#exitCriteria&#45;&gt;https://w3id.org/oseg/ont/otrl#OTRL -->
<g id="edge6" class="edge">
<title>https://w3id.org/oseg/ont/otrl#exitCriteria&#45;&gt;https://w3id.org/oseg/ont/otrl#OTRL</title>
<path fill="none" stroke="black" d="M1014.16,-743.05C1020.65,-794.24 1040.52,-951.12 1048.5,-1014.08"/>
<polygon fill="black" stroke="black" points="1045.07,-1014.88 1049.8,-1024.36 1052.02,-1014 1045.07,-1014.88"/>
<text text-anchor="middle" x="945.33" y="-882.36" font-family="Times,serif" font-size="14.00">schema:domainIncludes</text>
</g>
<!-- https://w3id.org/oseg/ont/otrl#exitCriteria&#45;&gt;http://schema.org/Text -->
<g id="edge11" class="edge">
<title>https://w3id.org/oseg/ont/otrl#exitCriteria&#45;&gt;http://schema.org/Text</title>
<path fill="none" stroke="black" d="M987.14,-742.4C944.88,-769.16 859.22,-823.4 812.03,-853.28"/>
<polygon fill="black" stroke="black" points="809.99,-850.43 803.41,-858.74 813.73,-856.35 809.99,-850.43"/>
<text text-anchor="middle" x="878.59" y="-801.64" font-family="Times,serif" font-size="14.00">range</text>
</g>
<!-- https://w3id.org/oseg/ont/otrl#Odrl4 -->
<g id="node20" class="node">
<title>https://w3id.org/oseg/ont/otrl#Odrl4</title>
<ellipse fill="none" stroke="#e377c2" cx="623.36" cy="-69.76" rx="61.54" ry="16.03"/>
<text text-anchor="middle" x="623.36" y="-66.06" font-family="Times,serif" font-size="14.00">otrl:Odrl4</text>
</g>
<!-- https://w3id.org/oseg/ont/otrl#Odrl4&#45;&gt;https://w3id.org/oseg/ont/otrl#ODRL4 -->
<g id="edge28" class="edge">
<title>https://w3id.org/oseg/ont/otrl#Odrl4&#45;&gt;https://w3id.org/oseg/ont/otrl#ODRL4</title>
<path fill="none" stroke="black" d="M631.73,-85.99C651.4,-114.59 700.23,-173.7 730.98,-206.75"/>
<polygon fill="black" stroke="black" points="728.58,-209.31 738,-214.16 733.67,-204.49 728.58,-209.31"/>
<text text-anchor="middle" x="638.85" y="-150.17" font-family="Times,serif" font-size="14.00">owl:sameAs</text>
</g>
<!-- https://w3id.org/oseg/ont/otrl#Odrl4&#45;&gt;https://w3id.org/oseg/ont/otrl#ODRL4 -->
<g id="edge38" class="edge">
<title>https://w3id.org/oseg/ont/otrl#Odrl4&#45;&gt;https://w3id.org/oseg/ont/otrl#ODRL4</title>
<path fill="none" stroke="black" d="M642.18,-85.29C669.27,-113.21 718.29,-171.75 742.82,-205.33"/>
<polygon fill="black" stroke="black" points="740.12,-207.58 748.77,-213.69 745.82,-203.52 740.12,-207.58"/>
<text text-anchor="middle" x="612.5" y="-134.11" font-family="Times,serif" font-size="14.00">schema:supersededBy</text>
</g>
<!-- https://w3id.org/oseg/ont/otrl#goal -->
<g id="node21" class="node">
<title>https://w3id.org/oseg/ont/otrl#goal</title>
<ellipse fill="none" stroke="#e377c2" cx="872" cy="-772.32" rx="54.39" ry="16.03"/>
<text text-anchor="middle" x="872" y="-768.62" font-family="Times,serif" font-size="14.00">otrl:goal</text>
</g>
<!-- https://w3id.org/oseg/ont/otrl#goal&#45;&gt;https://w3id.org/oseg/ont/otrl#ODRL -->
<g id="edge9" class="edge">
<title>https://w3id.org/oseg/ont/otrl#goal&#45;&gt;https://w3id.org/oseg/ont/otrl#ODRL</title>
<path fill="none" stroke="black" d="M871.76,-755.72C870.97,-701.61 868.48,-530 867.52,-463.87"/>
<polygon fill="black" stroke="black" points="871.02,-463.8 867.38,-453.85 864.02,-463.9 871.02,-463.8"/>
<text text-anchor="middle" x="783.64" y="-613.6" font-family="Times,serif" font-size="14.00">schema:domainIncludes</text>
</g>
<!-- https://w3id.org/oseg/ont/otrl#goal&#45;&gt;http://www.w3.org/2002/07/owl#DatatypeProperty -->
<g id="edge40" class="edge">
<title>https://w3id.org/oseg/ont/otrl#goal&#45;&gt;http://www.w3.org/2002/07/owl#DatatypeProperty</title>
<path fill="none" stroke="black" d="M822.19,-765.73C807.09,-763.74 789.95,-761.47 772.85,-759.21"/>
<polygon fill="black" stroke="black" points="773.17,-755.72 762.8,-757.88 772.26,-762.66 773.17,-755.72"/>
<text text-anchor="middle" x="793.02" y="-766.27" font-family="Times,serif" font-size="14.00">a</text>
</g>
<!-- https://w3id.org/oseg/ont/otrl#goal&#45;&gt;https://w3id.org/oseg/ont/otrl#OTRL -->
<g id="edge5" class="edge">
<title>https://w3id.org/oseg/ont/otrl#goal&#45;&gt;https://w3id.org/oseg/ont/otrl#OTRL</title>
<path fill="none" stroke="black" d="M882.71,-788.3C912.94,-833.4 999.08,-961.9 1035.4,-1016.08"/>
<polygon fill="black" stroke="black" points="1032.5,-1018.05 1040.98,-1024.41 1038.32,-1014.15 1032.5,-1018.05"/>
<text text-anchor="middle" x="873.05" y="-905.99" font-family="Times,serif" font-size="14.00">schema:domainIncludes</text>
</g>
<!-- https://w3id.org/oseg/ont/otrl#goal&#45;&gt;http://schema.org/Text -->
<g id="edge31" class="edge">
<title>https://w3id.org/oseg/ont/otrl#goal&#45;&gt;http://schema.org/Text</title>
<path fill="none" stroke="black" d="M857.47,-788.24C842.2,-804.97 818.02,-831.45 800.54,-850.6"/>
<polygon fill="black" stroke="black" points="797.89,-848.31 793.73,-858.06 803.06,-853.03 797.89,-848.31"/>
<text text-anchor="middle" x="808" y="-823.22" font-family="Times,serif" font-size="14.00">range</text>
</g>
<!-- https://w3id.org/oseg/ont/otrl#Otrl2 -->
<g id="node22" class="node">
<title>https://w3id.org/oseg/ont/otrl#Otrl2</title>
<ellipse fill="none" stroke="black" cx="1709.96" cy="-949.72" rx="194.41" ry="16.03"/>
<text text-anchor="middle" x="1709.96" y="-946.02" font-family="Times,serif" font-size="14.00">https://w3id.org/oseg/ont/otrl#Otrl2</text>
</g>
<!-- https://w3id.org/oseg/ont/otrl#Otrl2&#45;&gt;https://w3id.org/oseg/ont/otrl#OTRL2 -->
<g id="edge2" class="edge">
<title>https://w3id.org/oseg/ont/otrl#Otrl2&#45;&gt;https://w3id.org/oseg/ont/otrl#OTRL2</title>
<path fill="none" stroke="black" d="M1533.77,-956.65C1483.21,-960.44 1431.2,-964.98 1391.95,-969.15"/>
<polygon fill="black" stroke="black" points="1391.56,-965.68 1382,-970.24 1392.32,-972.63 1391.56,-965.68"/>
<text text-anchor="middle" x="1420.36" y="-951.7" font-family="Times,serif" font-size="14.00">owl:sameAs</text>
</g>
<!-- https://w3id.org/oseg/ont/otrl#Otrl2&#45;&gt;https://w3id.org/oseg/ont/otrl#OTRL2 -->
<g id="edge37" class="edge">
<title>https://w3id.org/oseg/ont/otrl#Otrl2&#45;&gt;https://w3id.org/oseg/ont/otrl#OTRL2</title>
<path fill="none" stroke="black" d="M1608.71,-963.64C1544.54,-969.72 1462.82,-975.89 1403.88,-979.03"/>
<polygon fill="black" stroke="black" points="1403.7,-975.53 1393.89,-979.54 1404.06,-982.52 1403.7,-975.53"/>
<text text-anchor="middle" x="1586.3" y="-975.13" font-family="Times,serif" font-size="14.00">schema:supersededBy</text>
</g>
<!-- https://w3id.org/oseg/ont/otrl#Odrl3 -->
<g id="node23" class="node">
<title>https://w3id.org/oseg/ont/otrl#Odrl3</title>
<ellipse fill="none" stroke="black" cx="196.29" cy="-404.56" rx="196.65" ry="16.03"/>
<text text-anchor="middle" x="196.29" y="-400.86" font-family="Times,serif" font-size="14.00">https://w3id.org/oseg/ont/otrl#Odrl3</text>
</g>
<!-- https://w3id.org/oseg/ont/otrl#Odrl3&#45;&gt;https://w3id.org/oseg/ont/otrl#ODRL3 -->
<g id="edge3" class="edge">
<title>https://w3id.org/oseg/ont/otrl#Odrl3&#45;&gt;https://w3id.org/oseg/ont/otrl#ODRL3</title>
<path fill="none" stroke="black" d="M290.47,-418.85C359.14,-426.32 451.18,-434.44 516.21,-438.72"/>
<polygon fill="black" stroke="black" points="516.2,-442.23 526.41,-439.37 516.65,-435.24 516.2,-442.23"/>
<text text-anchor="middle" x="360.84" y="-432.59" font-family="Times,serif" font-size="14.00">owl:sameAs</text>
</g>
<!-- https://w3id.org/oseg/ont/otrl#Odrl3&#45;&gt;https://w3id.org/oseg/ont/otrl#ODRL3 -->
<g id="edge12" class="edge">
<title>https://w3id.org/oseg/ont/otrl#Odrl3&#45;&gt;https://w3id.org/oseg/ont/otrl#ODRL3</title>
<path fill="none" stroke="black" d="M364.9,-412.95C423.15,-417.88 485.01,-423.91 530.05,-429.23"/>
<polygon fill="black" stroke="black" points="529.91,-432.74 540.25,-430.46 530.74,-425.79 529.91,-432.74"/>
<text text-anchor="middle" x="527.47" y="-409.89" font-family="Times,serif" font-size="14.00">schema:supersededBy</text>
</g>
<!-- https://w3id.org/oseg/ont/otrl#Otrl5 -->
<g id="node24" class="node">
<title>https://w3id.org/oseg/ont/otrl#Otrl5</title>
<ellipse fill="none" stroke="black" cx="1676.03" cy="-1305.18" rx="194.41" ry="16.03"/>
<text text-anchor="middle" x="1676.03" y="-1301.48" font-family="Times,serif" font-size="14.00">https://w3id.org/oseg/ont/otrl#Otrl5</text>
</g>
<!-- https://w3id.org/oseg/ont/otrl#Otrl5&#45;&gt;https://w3id.org/oseg/ont/otrl#OTRL5 -->
<g id="edge7" class="edge">
<title>https://w3id.org/oseg/ont/otrl#Otrl5&#45;&gt;https://w3id.org/oseg/ont/otrl#OTRL5</title>
<path fill="none" stroke="black" d="M1652.22,-1289C1595.16,-1256.15 1449.98,-1182.7 1375.27,-1148.49"/>
<polygon fill="black" stroke="black" points="1376.63,-1145.27 1366.08,-1144.32 1373.74,-1151.64 1376.63,-1145.27"/>
<text text-anchor="middle" x="1471.24" y="-1207.55" font-family="Times,serif" font-size="14.00">owl:sameAs</text>
</g>
<!-- https://w3id.org/oseg/ont/otrl#Otrl5&#45;&gt;https://w3id.org/oseg/ont/otrl#OTRL5 -->
<g id="edge13" class="edge">
<title>https://w3id.org/oseg/ont/otrl#Otrl5&#45;&gt;https://w3id.org/oseg/ont/otrl#OTRL5</title>
<path fill="none" stroke="black" d="M1634.24,-1289.16C1563.99,-1257.26 1423.84,-1186.57 1361.03,-1151.25"/>
<polygon fill="black" stroke="black" points="1362.41,-1148.01 1351.99,-1146.1 1358.95,-1154.09 1362.41,-1148.01"/>
<text text-anchor="middle" x="1417.63" y="-1224.01" font-family="Times,serif" font-size="14.00">schema:supersededBy</text>
</g>
<!-- https://w3id.org/oseg/ont/otrl#Otrl -->
<g id="node25" class="node">
<title>https://w3id.org/oseg/ont/otrl#Otrl</title>
<ellipse fill="none" stroke="black" cx="1072.15" cy="-1432.7" rx="188.18" ry="16.03"/>
<text text-anchor="middle" x="1072.15" y="-1429" font-family="Times,serif" font-size="14.00">https://w3id.org/oseg/ont/otrl#Otrl</text>
</g>
<!-- https://w3id.org/oseg/ont/otrl#Otrl&#45;&gt;https://w3id.org/oseg/ont/otrl#OTRL -->
<g id="edge8" class="edge">
<title>https://w3id.org/oseg/ont/otrl#Otrl&#45;&gt;https://w3id.org/oseg/ont/otrl#OTRL</title>
<path fill="none" stroke="black" d="M1074.21,-1416.2C1075.94,-1355.17 1065.13,-1141.88 1056.83,-1066.93"/>
<polygon fill="black" stroke="black" points="1060.3,-1066.42 1055.63,-1056.91 1053.35,-1067.26 1060.3,-1066.42"/>
<text text-anchor="middle" x="1023.02" y="-1230.36" font-family="Times,serif" font-size="14.00">owl:sameAs</text>
</g>
<!-- https://w3id.org/oseg/ont/otrl#Otrl&#45;&gt;https://w3id.org/oseg/ont/otrl#OTRL -->
<g id="edge14" class="edge">
<title>https://w3id.org/oseg/ont/otrl#Otrl&#45;&gt;https://w3id.org/oseg/ont/otrl#OTRL</title>
<path fill="none" stroke="black" d="M1068.33,-1416C1060.32,-1354.79 1049.11,-1142.29 1049.63,-1067.19"/>
<polygon fill="black" stroke="black" points="1053.13,-1067.2 1049.8,-1057.14 1046.14,-1067.08 1053.13,-1067.2"/>
<text text-anchor="middle" x="978.98" y="-1245.4" font-family="Times,serif" font-size="14.00">schema:supersededBy</text>
</g>
<!-- https://w3id.org/oseg/ont/otrl#Otrl4 -->
<g id="node26" class="node">
<title>https://w3id.org/oseg/ont/otrl#Otrl4</title>
<ellipse fill="none" stroke="black" cx="1150.74" cy="-1181.47" rx="194.41" ry="16.03"/>
<text text-anchor="middle" x="1150.74" y="-1177.77" font-family="Times,serif" font-size="14.00">https://w3id.org/oseg/ont/otrl#Otrl4</text>
</g>
<!-- https://w3id.org/oseg/ont/otrl#Otrl4&#45;&gt;https://w3id.org/oseg/ont/otrl#OTRL4 -->
<g id="edge15" class="edge">
<title>https://w3id.org/oseg/ont/otrl#Otrl4&#45;&gt;https://w3id.org/oseg/ont/otrl#OTRL4</title>
<path fill="none" stroke="black" d="M1171.1,-1165.25C1171.95,-1164.15 1172.78,-1163.03 1173.59,-1161.9"/>
<polygon fill="black" stroke="black" points="1176.7,-1163.54 1179.27,-1153.26 1170.85,-1159.7 1176.7,-1163.54"/>
<text text-anchor="middle" x="1129.85" y="-1152.37" font-family="Times,serif" font-size="14.00">owl:sameAs</text>
</g>
<!-- https://w3id.org/oseg/ont/otrl#Otrl4&#45;&gt;https://w3id.org/oseg/ont/otrl#OTRL4 -->
<g id="edge48" class="edge">
<title>https://w3id.org/oseg/ont/otrl#Otrl4&#45;&gt;https://w3id.org/oseg/ont/otrl#OTRL4</title>
<path fill="none" stroke="black" d="M1155.16,-1165.14C1155.99,-1163.73 1156.89,-1162.28 1157.85,-1160.83"/>
<polygon fill="black" stroke="black" points="1160.79,-1162.73 1163.77,-1152.57 1155.1,-1158.66 1160.79,-1162.73"/>
<text text-anchor="middle" x="1236.5" y="-1151.79" font-family="Times,serif" font-size="14.00">schema:supersededBy</text>
</g>
<!-- https://w3id.org/oseg/ont/otrl#Otrl3 -->
<g id="node27" class="node">
<title>https://w3id.org/oseg/ont/otrl#Otrl3</title>
<ellipse fill="none" stroke="black" cx="554.94" cy="-1480.83" rx="194.41" ry="16.03"/>
<text text-anchor="middle" x="554.94" y="-1477.13" font-family="Times,serif" font-size="14.00">https://w3id.org/oseg/ont/otrl#Otrl3</text>
</g>
<!-- https://w3id.org/oseg/ont/otrl#Otrl3&#45;&gt;https://w3id.org/oseg/ont/otrl#OTRL3 -->
<g id="edge16" class="edge">
<title>https://w3id.org/oseg/ont/otrl#Otrl3&#45;&gt;https://w3id.org/oseg/ont/otrl#OTRL3</title>
<path fill="none" stroke="black" d="M577.66,-1464.3C632.66,-1417.66 771.76,-1285.54 822.91,-1231.43"/>
<polygon fill="black" stroke="black" points="825.55,-1233.74 829.8,-1224.03 820.42,-1228.97 825.55,-1233.74"/>
<text text-anchor="middle" x="657.79" y="-1351.67" font-family="Times,serif" font-size="14.00">owl:sameAs</text>
</g>
<!-- https://w3id.org/oseg/ont/otrl#Otrl3&#45;&gt;https://w3id.org/oseg/ont/otrl#OTRL3 -->
<g id="edge49" class="edge">
<title>https://w3id.org/oseg/ont/otrl#Otrl3&#45;&gt;https://w3id.org/oseg/ont/otrl#OTRL3</title>
<path fill="none" stroke="black" d="M567.76,-1464.21C610.9,-1417.17 750.83,-1283.8 812.51,-1230.4"/>
<polygon fill="black" stroke="black" points="815.01,-1232.87 820.33,-1223.71 810.45,-1227.55 815.01,-1232.87"/>
<text text-anchor="middle" x="610.13" y="-1336.1" font-family="Times,serif" font-size="14.00">schema:supersededBy</text>
</g>
<!-- https://w3id.org/oseg/ont/otrl#Otrl6 -->
<g id="node28" class="node">
<title>https://w3id.org/oseg/ont/otrl#Otrl6</title>
<ellipse fill="none" stroke="black" cx="869.63" cy="-1683.19" rx="194.41" ry="16.03"/>
<text text-anchor="middle" x="869.63" y="-1679.49" font-family="Times,serif" font-size="14.00">https://w3id.org/oseg/ont/otrl#Otrl6</text>
</g>
<!-- https://w3id.org/oseg/ont/otrl#Otrl6&#45;&gt;https://w3id.org/oseg/ont/otrl#OTRL6 -->
<g id="edge18" class="edge">
<title>https://w3id.org/oseg/ont/otrl#Otrl6&#45;&gt;https://w3id.org/oseg/ont/otrl#OTRL6</title>
<path fill="none" stroke="black" d="M876.73,-1666.66C895.94,-1607.26 945.04,-1404.4 958.17,-1331.29"/>
<polygon fill="black" stroke="black" points="961.68,-1331.54 959.9,-1321.1 954.78,-1330.37 961.68,-1331.54"/>
<text text-anchor="middle" x="837.45" y="-1502.78" font-family="Times,serif" font-size="14.00">schema:supersededBy</text>
</g>
<!-- https://w3id.org/oseg/ont/otrl#Otrl6&#45;&gt;https://w3id.org/oseg/ont/otrl#OTRL6 -->
<g id="edge51" class="edge">
<title>https://w3id.org/oseg/ont/otrl#Otrl6&#45;&gt;https://w3id.org/oseg/ont/otrl#OTRL6</title>
<path fill="none" stroke="black" d="M870.6,-1666.73C879.94,-1607.34 928.73,-1403.81 950.74,-1330.96"/>
<polygon fill="black" stroke="black" points="954.15,-1331.78 953.78,-1321.19 947.46,-1329.7 954.15,-1331.78"/>
<text text-anchor="middle" x="868.17" y="-1487.65" font-family="Times,serif" font-size="14.00">owl:sameAs</text>
</g>
<!-- https://w3id.org/oseg/ont/otrl#Odrl3Star -->
<g id="node29" class="node">
<title>https://w3id.org/oseg/ont/otrl#Odrl3Star</title>
<ellipse fill="none" stroke="black" cx="914.42" cy="-67.66" rx="218.49" ry="16.03"/>
<text text-anchor="middle" x="914.42" y="-63.96" font-family="Times,serif" font-size="14.00">https://w3id.org/oseg/ont/otrl#Odrl3Star</text>
</g>
<!-- https://w3id.org/oseg/ont/otrl#Odrl3Star&#45;&gt;https://w3id.org/oseg/ont/otrl#ODRL3Star -->
<g id="edge25" class="edge">
<title>https://w3id.org/oseg/ont/otrl#Odrl3Star&#45;&gt;https://w3id.org/oseg/ont/otrl#ODRL3Star</title>
<path fill="none" stroke="black" d="M894.77,-83.91C893.14,-86.06 891.54,-88.3 890.02,-90.56"/>
<polygon fill="black" stroke="black" points="886.99,-88.81 884.72,-99.16 892.94,-92.48 886.99,-88.81"/>
<text text-anchor="middle" x="934.89" y="-91.03" font-family="Times,serif" font-size="14.00">owl:sameAs</text>
</g>
<!-- https://w3id.org/oseg/ont/otrl#Odrl3Star&#45;&gt;https://w3id.org/oseg/ont/otrl#ODRL3Star -->
<g id="edge32" class="edge">
<title>https://w3id.org/oseg/ont/otrl#Odrl3Star&#45;&gt;https://w3id.org/oseg/ont/otrl#ODRL3Star</title>
<path fill="none" stroke="black" d="M910.27,-84.03C908.96,-86.39 907.46,-88.85 905.85,-91.32"/>
<polygon fill="black" stroke="black" points="902.93,-89.39 900.02,-99.58 908.65,-93.42 902.93,-89.39"/>
<text text-anchor="middle" x="828.06" y="-91.47" font-family="Times,serif" font-size="14.00">schema:supersededBy</text>
</g>
<!-- https://w3id.org/oseg/ont/otrl#Odrl -->
<g id="node30" class="node">
<title>https://w3id.org/oseg/ont/otrl#Odrl</title>
<ellipse fill="none" stroke="black" cx="1126.12" cy="-157.5" rx="190.42" ry="16.03"/>
<text text-anchor="middle" x="1126.12" y="-153.8" font-family="Times,serif" font-size="14.00">https://w3id.org/oseg/ont/otrl#Odrl</text>
</g>
<!-- https://w3id.org/oseg/ont/otrl#Odrl&#45;&gt;https://w3id.org/oseg/ont/otrl#ODRL -->
<g id="edge27" class="edge">
<title>https://w3id.org/oseg/ont/otrl#Odrl&#45;&gt;https://w3id.org/oseg/ont/otrl#ODRL</title>
<path fill="none" stroke="black" d="M1106.08,-173.87C1056.66,-221.21 930.17,-357.89 884.12,-413.59"/>
<polygon fill="black" stroke="black" points="881.27,-411.54 877.68,-421.5 886.71,-415.95 881.27,-411.54"/>
<text text-anchor="middle" x="952.6" y="-297.53" font-family="Times,serif" font-size="14.00">owl:sameAs</text>
</g>
<!-- https://w3id.org/oseg/ont/otrl#Odrl&#45;&gt;https://w3id.org/oseg/ont/otrl#ODRL -->
<g id="edge35" class="edge">
<title>https://w3id.org/oseg/ont/otrl#Odrl&#45;&gt;https://w3id.org/oseg/ont/otrl#ODRL</title>
<path fill="none" stroke="black" d="M1115.26,-173.93C1077.16,-221.65 949.96,-359.64 893.92,-414.63"/>
<polygon fill="black" stroke="black" points="891.25,-412.35 886.5,-421.82 896.12,-417.37 891.25,-412.35"/>
<text text-anchor="middle" x="1084.59" y="-298.08" font-family="Times,serif" font-size="14.00">schema:supersededBy</text>
</g>
<!-- https://w3id.org/oseg/ont/otrl#Odrl1 -->
<g id="node31" class="node">
<title>https://w3id.org/oseg/ont/otrl#Odrl1</title>
<ellipse fill="none" stroke="black" cx="1529.99" cy="-188.62" rx="196.65" ry="16.03"/>
<text text-anchor="middle" x="1529.99" y="-184.92" font-family="Times,serif" font-size="14.00">https://w3id.org/oseg/ont/otrl#Odrl1</text>
</g>
<!-- https://w3id.org/oseg/ont/otrl#Odrl1&#45;&gt;https://w3id.org/oseg/ont/otrl#ODRL1 -->
<g id="edge33" class="edge">
<title>https://w3id.org/oseg/ont/otrl#Odrl1&#45;&gt;https://w3id.org/oseg/ont/otrl#ODRL1</title>
<path fill="none" stroke="black" d="M1473.92,-204.26C1391.41,-231.85 1239.41,-288.32 1168.3,-317.99"/>
<polygon fill="black" stroke="black" points="1166.67,-314.88 1158.82,-321.99 1169.4,-321.33 1166.67,-314.88"/>
<text text-anchor="middle" x="1278.61" y="-264.92" font-family="Times,serif" font-size="14.00">owl:sameAs</text>
</g>
<!-- https://w3id.org/oseg/ont/otrl#Odrl1&#45;&gt;https://w3id.org/oseg/ont/otrl#ODRL1 -->
<g id="edge41" class="edge">
<title>https://w3id.org/oseg/ont/otrl#Odrl1&#45;&gt;https://w3id.org/oseg/ont/otrl#ODRL1</title>
<path fill="none" stroke="black" d="M1497.92,-204.7C1429.9,-233.54 1270.47,-292.87 1185.45,-321.28"/>
<polygon fill="black" stroke="black" points="1184.1,-318.04 1175.71,-324.51 1186.3,-324.69 1184.1,-318.04"/>
<text text-anchor="middle" x="1421.68" y="-266.79" font-family="Times,serif" font-size="14.00">schema:supersededBy</text>
</g>
<!-- https://w3id.org/oseg/ont/otrl#Odrl5 -->
<g id="node32" class="node">
<title>https://w3id.org/oseg/ont/otrl#Odrl5</title>
<ellipse fill="none" stroke="black" cx="590.4" cy="-16.41" rx="196.65" ry="16.03"/>
<text text-anchor="middle" x="590.4" y="-12.71" font-family="Times,serif" font-size="14.00">https://w3id.org/oseg/ont/otrl#Odrl5</text>
</g>
<!-- https://w3id.org/oseg/ont/otrl#Odrl5&#45;&gt;https://w3id.org/oseg/ont/otrl#Odrl4 -->
<g id="edge34" class="edge">
<title>https://w3id.org/oseg/ont/otrl#Odrl5&#45;&gt;https://w3id.org/oseg/ont/otrl#Odrl4</title>
<path fill="none" stroke="black" d="M593.51,-32.71C595.39,-36.71 597.76,-41.07 600.36,-45.35"/>
<polygon fill="black" stroke="black" points="597.52,-47.42 605.91,-53.9 603.39,-43.61 597.52,-47.42"/>
<text text-anchor="middle" x="554.44" y="-42.83" font-family="Times,serif" font-size="14.00">owl:sameAs</text>
</g>
<!-- https://w3id.org/oseg/ont/otrl#Odrl5&#45;&gt;https://w3id.org/oseg/ont/otrl#Odrl4 -->
<g id="edge42" class="edge">
<title>https://w3id.org/oseg/ont/otrl#Odrl5&#45;&gt;https://w3id.org/oseg/ont/otrl#Odrl4</title>
<path fill="none" stroke="black" d="M608.25,-32.83C610.79,-36.51 613.28,-40.49 615.53,-44.43"/>
<polygon fill="black" stroke="black" points="612.48,-46.16 620.22,-53.4 618.69,-42.92 612.48,-46.16"/>
<text text-anchor="middle" x="691.89" y="-42.43" font-family="Times,serif" font-size="14.00">schema:supersededBy</text>
</g>
<!-- https://w3id.org/oseg/ont/otrl#Otrl1 -->
<g id="node33" class="node">
<title>https://w3id.org/oseg/ont/otrl#Otrl1</title>
<ellipse fill="none" stroke="black" cx="1394.76" cy="-1626.81" rx="194.41" ry="16.03"/>
<text text-anchor="middle" x="1394.76" y="-1623.11" font-family="Times,serif" font-size="14.00">https://w3id.org/oseg/ont/otrl#Otrl1</text>
</g>
<!-- https://w3id.org/oseg/ont/otrl#Otrl1&#45;&gt;https://w3id.org/oseg/ont/otrl#OTRL1 -->
<g id="edge36" class="edge">
<title>https://w3id.org/oseg/ont/otrl#Otrl1&#45;&gt;https://w3id.org/oseg/ont/otrl#OTRL1</title>
<path fill="none" stroke="black" d="M1388.51,-1610.47C1361.59,-1556.14 1257.92,-1381.69 1214.46,-1316.85"/>
<polygon fill="black" stroke="black" points="1217.27,-1314.75 1208.74,-1308.46 1211.48,-1318.69 1217.27,-1314.75"/>
<text text-anchor="middle" x="1258.99" y="-1452.46" font-family="Times,serif" font-size="14.00">owl:sameAs</text>
</g>
<!-- https://w3id.org/oseg/ont/otrl#Otrl1&#45;&gt;https://w3id.org/oseg/ont/otrl#OTRL1 -->
<g id="edge44" class="edge">
<title>https://w3id.org/oseg/ont/otrl#Otrl1&#45;&gt;https://w3id.org/oseg/ont/otrl#OTRL1</title>
<path fill="none" stroke="black" d="M1381.24,-1610.5C1343.82,-1556.53 1240.7,-1383.84 1206.4,-1318.06"/>
<polygon fill="black" stroke="black" points="1209.34,-1316.12 1201.68,-1308.81 1203.1,-1319.31 1209.34,-1316.12"/>
<text text-anchor="middle" x="1213.82" y="-1468.08" font-family="Times,serif" font-size="14.00">schema:supersededBy</text>
</g>
<!-- https://w3id.org/oseg/ont/otrl#Odrl2 -->
<g id="node34" class="node">
<title>https://w3id.org/oseg/ont/otrl#Odrl2</title>
<ellipse fill="none" stroke="black" cx="296.78" cy="-67.79" rx="196.65" ry="16.03"/>
<text text-anchor="middle" x="296.78" y="-64.09" font-family="Times,serif" font-size="14.00">https://w3id.org/oseg/ont/otrl#Odrl2</text>
</g>
<!-- https://w3id.org/oseg/ont/otrl#Odrl2&#45;&gt;https://w3id.org/oseg/ont/otrl#ODRL2 -->
<g id="edge43" class="edge">
<title>https://w3id.org/oseg/ont/otrl#Odrl2&#45;&gt;https://w3id.org/oseg/ont/otrl#ODRL2</title>
<path fill="none" stroke="black" d="M314.3,-84.09C366.66,-125.57 522.41,-234.28 594.39,-280.03"/>
<polygon fill="black" stroke="black" points="592.82,-283.18 603.15,-285.55 596.55,-277.26 592.82,-283.18"/>
<text text-anchor="middle" x="411.84" y="-185.86" font-family="Times,serif" font-size="14.00">owl:sameAs</text>
</g>
<!-- https://w3id.org/oseg/ont/otrl#Odrl2&#45;&gt;https://w3id.org/oseg/ont/otrl#ODRL2 -->
<g id="edge50" class="edge">
<title>https://w3id.org/oseg/ont/otrl#Odrl2&#45;&gt;https://w3id.org/oseg/ont/otrl#ODRL2</title>
<path fill="none" stroke="black" d="M327,-84C392.48,-124.97 546.22,-231.92 606.63,-278.54"/>
<polygon fill="black" stroke="black" points="604.48,-281.3 614.51,-284.71 608.79,-275.79 604.48,-281.3"/>
<text text-anchor="middle" x="386.81" y="-170.07" font-family="Times,serif" font-size="14.00">schema:supersededBy</text>
</g>
</g>
</svg>
