<?xml version="1.0" encoding="UTF-8" standalone="no"?>
<!DOCTYPE svg PUBLIC "-//W3C//DTD SVG 1.1//EN"
 "http://www.w3.org/Graphics/SVG/1.1/DTD/svg11.dtd">
<!-- Generated by graphviz version 2.43.0 (0)
 -->
<!-- Title: G Pages: 1 -->
<svg width="2631pt" height="991pt"
 viewBox="0.00 0.00 2631.00 991.00" xmlns="http://www.w3.org/2000/svg" xmlns:xlink="http://www.w3.org/1999/xlink">
<g id="graph0" class="graph" transform="scale(1 1) rotate(0) translate(4 987)">
<title>G</title>
<polygon fill="white" stroke="transparent" points="-4,4 -4,-987 2627,-987 2627,4 -4,4"/>
<!-- https://w3id.org/oseg/ont/otrl#OTRL6 -->
<g id="node1" class="node">
<title>https://w3id.org/oseg/ont/otrl#OTRL6</title>
<ellipse fill="none" stroke="#e377c2" cx="772.1" cy="-552.29" rx="67.35" ry="16.03"/>
<text text-anchor="middle" x="772.1" y="-548.59" font-family="Times,serif" font-size="14.00">otrl:OTRL6</text>
</g>
<!-- https://w3id.org/oseg/ont/otrl#OTRL -->
<g id="node7" class="node">
<title>https://w3id.org/oseg/ont/otrl#OTRL</title>
<ellipse fill="none" stroke="#e377c2" cx="921.26" cy="-513.5" rx="60.62" ry="16.03"/>
<text text-anchor="middle" x="921.26" y="-509.8" font-family="Times,serif" font-size="14.00">otrl:OTRL</text>
</g>
<!-- https://w3id.org/oseg/ont/otrl#OTRL6&#45;&gt;https://w3id.org/oseg/ont/otrl#OTRL -->
<g id="edge24" class="edge">
<title>https://w3id.org/oseg/ont/otrl#OTRL6&#45;&gt;https://w3id.org/oseg/ont/otrl#OTRL</title>
<path fill="none" stroke="black" d="M818.07,-540.34C833.74,-536.26 851.39,-531.67 867.6,-527.45"/>
<polygon fill="black" stroke="black" points="868.69,-530.79 877.48,-524.88 866.93,-524.01 868.69,-530.79"/>
</g>
<!-- https://w3id.org/oseg/ont/otrl#ODRL -->
<g id="node2" class="node">
<title>https://w3id.org/oseg/ont/otrl#ODRL</title>
<ellipse fill="none" stroke="#e377c2" cx="1614.78" cy="-471.37" rx="62.87" ry="16.03"/>
<text text-anchor="middle" x="1614.78" y="-467.67" font-family="Times,serif" font-size="14.00">otrl:ODRL</text>
</g>
<!-- https://w3id.org/oseg/ont/otrl#ODRL3 -->
<g id="node3" class="node">
<title>https://w3id.org/oseg/ont/otrl#ODRL3</title>
<ellipse fill="none" stroke="#e377c2" cx="1627.97" cy="-685.81" rx="69.09" ry="16.03"/>
<text text-anchor="middle" x="1627.97" y="-682.11" font-family="Times,serif" font-size="14.00">otrl:ODRL3</text>
</g>
<!-- https://w3id.org/oseg/ont/otrl#ODRL3&#45;&gt;https://w3id.org/oseg/ont/otrl#ODRL -->
<g id="edge43" class="edge">
<title>https://w3id.org/oseg/ont/otrl#ODRL3&#45;&gt;https://w3id.org/oseg/ont/otrl#ODRL</title>
<path fill="none" stroke="black" d="M1626.96,-669.34C1624.69,-632.47 1619.18,-542.99 1616.42,-498.05"/>
<polygon fill="black" stroke="black" points="1619.9,-497.67 1615.79,-487.9 1612.91,-498.1 1619.9,-497.67"/>
</g>
<!-- https://w3id.org/oseg/ont/otrl#OTRL5 -->
<g id="node4" class="node">
<title>https://w3id.org/oseg/ont/otrl#OTRL5</title>
<ellipse fill="none" stroke="#e377c2" cx="625.68" cy="-464.13" rx="67.35" ry="16.03"/>
<text text-anchor="middle" x="625.68" y="-460.43" font-family="Times,serif" font-size="14.00">otrl:OTRL5</text>
</g>
<!-- https://w3id.org/oseg/ont/otrl#OTRL5&#45;&gt;https://w3id.org/oseg/ont/otrl#OTRL -->
<g id="edge1" class="edge">
<title>https://w3id.org/oseg/ont/otrl#OTRL5&#45;&gt;https://w3id.org/oseg/ont/otrl#OTRL</title>
<path fill="none" stroke="black" d="M681.27,-473.42C732.02,-481.89 806.91,-494.4 859.5,-503.18"/>
<polygon fill="black" stroke="black" points="858.94,-506.64 869.38,-504.83 860.1,-499.73 858.94,-506.64"/>
</g>
<!-- https://w3id.org/oseg/ont/otrl#OTRL3 -->
<g id="node5" class="node">
<title>https://w3id.org/oseg/ont/otrl#OTRL3</title>
<ellipse fill="none" stroke="#e377c2" cx="710.17" cy="-749.1" rx="67.35" ry="16.03"/>
<text text-anchor="middle" x="710.17" y="-745.4" font-family="Times,serif" font-size="14.00">otrl:OTRL3</text>
</g>
<!-- https://w3id.org/oseg/ont/otrl#OTRL3&#45;&gt;https://w3id.org/oseg/ont/otrl#OTRL -->
<g id="edge4" class="edge">
<title>https://w3id.org/oseg/ont/otrl#OTRL3&#45;&gt;https://w3id.org/oseg/ont/otrl#OTRL</title>
<path fill="none" stroke="black" d="M724.68,-732.91C761.22,-692.12 857.18,-585.02 900.05,-537.18"/>
<polygon fill="black" stroke="black" points="902.87,-539.28 906.93,-529.49 897.65,-534.61 902.87,-539.28"/>
</g>
<!-- https://w3id.org/oseg/ont/otrl#ODRL2 -->
<g id="node6" class="node">
<title>https://w3id.org/oseg/ont/otrl#ODRL2</title>
<ellipse fill="none" stroke="#e377c2" cx="1898.63" cy="-334.06" rx="69.09" ry="16.03"/>
<text text-anchor="middle" x="1898.63" y="-330.36" font-family="Times,serif" font-size="14.00">otrl:ODRL2</text>
</g>
<!-- https://w3id.org/oseg/ont/otrl#ODRL2&#45;&gt;https://w3id.org/oseg/ont/otrl#ODRL -->
<g id="edge37" class="edge">
<title>https://w3id.org/oseg/ont/otrl#ODRL2&#45;&gt;https://w3id.org/oseg/ont/otrl#ODRL</title>
<path fill="none" stroke="black" d="M1868.26,-348.76C1816.37,-373.86 1710.74,-424.95 1653.59,-452.6"/>
<polygon fill="black" stroke="black" points="1651.99,-449.48 1644.51,-456.99 1655.03,-455.79 1651.99,-449.48"/>
</g>
<!-- https://w3id.org/oseg/ont/otrl#ODRL4 -->
<g id="node8" class="node">
<title>https://w3id.org/oseg/ont/otrl#ODRL4</title>
<ellipse fill="none" stroke="#e377c2" cx="1662.59" cy="-218.91" rx="69.09" ry="16.03"/>
<text text-anchor="middle" x="1662.59" y="-215.21" font-family="Times,serif" font-size="14.00">otrl:ODRL4</text>
</g>
<!-- https://w3id.org/oseg/ont/otrl#ODRL4&#45;&gt;https://w3id.org/oseg/ont/otrl#ODRL -->
<g id="edge20" class="edge">
<title>https://w3id.org/oseg/ont/otrl#ODRL4&#45;&gt;https://w3id.org/oseg/ont/otrl#ODRL</title>
<path fill="none" stroke="black" d="M1659.45,-235.47C1651.34,-278.28 1629.64,-392.88 1619.78,-444.96"/>
<polygon fill="black" stroke="black" points="1616.28,-444.6 1617.86,-455.07 1623.16,-445.9 1616.28,-444.6"/>
</g>
<!-- https://w3id.org/oseg/ont/otrl#ODRL1 -->
<g id="node9" class="node">
<title>https://w3id.org/oseg/ont/otrl#ODRL1</title>
<ellipse fill="none" stroke="#e377c2" cx="1861.21" cy="-631.72" rx="69.09" ry="16.03"/>
<text text-anchor="middle" x="1861.21" y="-628.02" font-family="Times,serif" font-size="14.00">otrl:ODRL1</text>
</g>
<!-- https://w3id.org/oseg/ont/otrl#ODRL1&#45;&gt;https://w3id.org/oseg/ont/otrl#ODRL -->
<g id="edge17" class="edge">
<title>https://w3id.org/oseg/ont/otrl#ODRL1&#45;&gt;https://w3id.org/oseg/ont/otrl#ODRL</title>
<path fill="none" stroke="black" d="M1837.58,-616.35C1793.15,-587.43 1697.1,-524.94 1646.86,-492.25"/>
<polygon fill="black" stroke="black" points="1648.62,-489.22 1638.33,-486.7 1644.81,-495.09 1648.62,-489.22"/>
</g>
<!-- https://w3id.org/oseg/ont/otrl#OTRL1 -->
<g id="node10" class="node">
<title>https://w3id.org/oseg/ont/otrl#OTRL1</title>
<ellipse fill="none" stroke="#e377c2" cx="887.23" cy="-269.28" rx="67.35" ry="16.03"/>
<text text-anchor="middle" x="887.23" y="-265.58" font-family="Times,serif" font-size="14.00">otrl:OTRL1</text>
</g>
<!-- https://w3id.org/oseg/ont/otrl#OTRL1&#45;&gt;https://w3id.org/oseg/ont/otrl#OTRL -->
<g id="edge21" class="edge">
<title>https://w3id.org/oseg/ont/otrl#OTRL1&#45;&gt;https://w3id.org/oseg/ont/otrl#OTRL</title>
<path fill="none" stroke="black" d="M889.52,-285.69C895.29,-327.14 910.52,-436.37 917.57,-487.01"/>
<polygon fill="black" stroke="black" points="914.14,-487.74 918.99,-497.17 921.07,-486.78 914.14,-487.74"/>
</g>
<!-- https://w3id.org/oseg/ont/otrl#OTRL4 -->
<g id="node11" class="node">
<title>https://w3id.org/oseg/ont/otrl#OTRL4</title>
<ellipse fill="none" stroke="#e377c2" cx="1021.47" cy="-773.69" rx="67.35" ry="16.03"/>
<text text-anchor="middle" x="1021.47" y="-769.99" font-family="Times,serif" font-size="14.00">otrl:OTRL4</text>
</g>
<!-- https://w3id.org/oseg/ont/otrl#OTRL4&#45;&gt;https://w3id.org/oseg/ont/otrl#OTRL -->
<g id="edge10" class="edge">
<title>https://w3id.org/oseg/ont/otrl#OTRL4&#45;&gt;https://w3id.org/oseg/ont/otrl#OTRL</title>
<path fill="none" stroke="black" d="M1015.2,-757.41C998.29,-713.51 951.66,-592.42 931.15,-539.18"/>
<polygon fill="black" stroke="black" points="934.39,-537.84 927.53,-529.77 927.86,-540.36 934.39,-537.84"/>
</g>
<!-- https://w3id.org/oseg/ont/otrl#OTRL2 -->
<g id="node12" class="node">
<title>https://w3id.org/oseg/ont/otrl#OTRL2</title>
<ellipse fill="none" stroke="#e377c2" cx="703.93" cy="-307.17" rx="67.35" ry="16.03"/>
<text text-anchor="middle" x="703.93" y="-303.47" font-family="Times,serif" font-size="14.00">otrl:OTRL2</text>
</g>
<!-- https://w3id.org/oseg/ont/otrl#OTRL2&#45;&gt;https://w3id.org/oseg/ont/otrl#OTRL -->
<g id="edge19" class="edge">
<title>https://w3id.org/oseg/ont/otrl#OTRL2&#45;&gt;https://w3id.org/oseg/ont/otrl#OTRL</title>
<path fill="none" stroke="black" d="M720.63,-323.02C758.79,-359.25 852.54,-448.26 897.05,-490.51"/>
<polygon fill="black" stroke="black" points="894.85,-493.25 904.51,-497.6 899.67,-488.17 894.85,-493.25"/>
</g>
<!-- https://w3id.org/oseg/ont/otrl#ODRL3Star -->
<g id="node13" class="node">
<title>https://w3id.org/oseg/ont/otrl#ODRL3Star</title>
<ellipse fill="none" stroke="#e377c2" cx="1955.5" cy="-501.01" rx="90.52" ry="16.03"/>
<text text-anchor="middle" x="1955.5" y="-497.31" font-family="Times,serif" font-size="14.00">otrl:ODRL3Star</text>
</g>
<!-- https://w3id.org/oseg/ont/otrl#ODRL3Star&#45;&gt;https://w3id.org/oseg/ont/otrl#ODRL -->
<g id="edge44" class="edge">
<title>https://w3id.org/oseg/ont/otrl#ODRL3Star&#45;&gt;https://w3id.org/oseg/ont/otrl#ODRL</title>
<path fill="none" stroke="black" d="M1873.89,-493.91C1816.16,-488.89 1739.56,-482.23 1684.64,-477.45"/>
<polygon fill="black" stroke="black" points="1684.91,-473.96 1674.65,-476.58 1684.31,-480.93 1684.91,-473.96"/>
</g>
<!-- http://schema.org/Text -->
<g id="node14" class="node">
<title>http://schema.org/Text</title>
<ellipse fill="none" stroke="#e377c2" cx="1266.06" cy="-248.18" rx="74.91" ry="16.03"/>
<text text-anchor="middle" x="1266.06" y="-244.48" font-family="Times,serif" font-size="14.00">schema:Text</text>
</g>
<!-- https://w3id.org/oseg/ont/otrl -->
<g id="node15" class="node">
<title>https://w3id.org/oseg/ont/otrl</title>
<ellipse fill="none" stroke="#e377c2" cx="1791.32" cy="-966.47" rx="50.82" ry="16.03"/>
<text text-anchor="middle" x="1791.32" y="-962.77" font-family="Times,serif" font-size="14.00">ns1:otrl</text>
</g>
<!-- https://w3id.org/oseg/ont/otrl&#45;&gt;https://w3id.org/oseg/ont/otrl -->
<g id="edge27" class="edge">
<title>https://w3id.org/oseg/ont/otrl&#45;&gt;https://w3id.org/oseg/ont/otrl</title>
<path fill="none" stroke="black" d="M1838.02,-973.17C1850.63,-972.82 1860.23,-970.59 1860.23,-966.47 1860.23,-963.58 1855.48,-961.62 1848.28,-960.58"/>
<polygon fill="black" stroke="black" points="1848.26,-957.07 1838.02,-959.77 1847.71,-964.05 1848.26,-957.07"/>
<text text-anchor="middle" x="1911.73" y="-962.77" font-family="Times,serif" font-size="14.00">owl:versionIRI</text>
</g>
<!-- https://www.gnu.org/licenses/gpl&#45;3.0.txt -->
<g id="node16" class="node">
<title>https://www.gnu.org/licenses/gpl&#45;3.0.txt</title>
<ellipse fill="none" stroke="#e377c2" cx="1938.95" cy="-944.42" rx="85.62" ry="16.03"/>
<text text-anchor="middle" x="1938.95" y="-940.72" font-family="Times,serif" font-size="14.00">ns2:gpl&#45;3.0.txt</text>
</g>
<!-- https://w3id.org/oseg/ont/otrl&#45;&gt;https://www.gnu.org/licenses/gpl&#45;3.0.txt -->
<g id="edge22" class="edge">
<title>https://w3id.org/oseg/ont/otrl&#45;&gt;https://www.gnu.org/licenses/gpl&#45;3.0.txt</title>
<path fill="none" stroke="black" d="M1842.25,-965.36C1854.84,-963.84 1868.42,-961.87 1881.31,-959.72"/>
<polygon fill="black" stroke="black" points="1882.21,-963.12 1891.46,-957.96 1881.01,-956.22 1882.21,-963.12"/>
<text text-anchor="middle" x="1918.28" y="-966.34" font-family="Times,serif" font-size="14.00">dcterms:license</text>
</g>
<!-- https://w3id.org/oseg/ont/otrl&#45;&gt;https://www.gnu.org/licenses/gpl&#45;3.0.txt -->
<g id="edge28" class="edge">
<title>https://w3id.org/oseg/ont/otrl&#45;&gt;https://www.gnu.org/licenses/gpl&#45;3.0.txt</title>
<path fill="none" stroke="black" d="M1827.69,-955.02C1833.9,-953.79 1840.6,-952.57 1847.51,-951.41"/>
<polygon fill="black" stroke="black" points="1848.45,-954.8 1857.76,-949.74 1847.33,-947.89 1848.45,-954.8"/>
<text text-anchor="middle" x="1802.6" y="-942.01" font-family="Times,serif" font-size="14.00">cc:license</text>
</g>
<!-- https://w3id.org/oseg/ont/otrl#exitCriteria -->
<g id="node17" class="node">
<title>https://w3id.org/oseg/ont/otrl#exitCriteria</title>
<ellipse fill="none" stroke="#e377c2" cx="1269.23" cy="-440.34" rx="91.43" ry="16.03"/>
<text text-anchor="middle" x="1269.23" y="-436.64" font-family="Times,serif" font-size="14.00">otrl:exitCriteria</text>
</g>
<!-- https://w3id.org/oseg/ont/otrl#exitCriteria&#45;&gt;https://w3id.org/oseg/ont/otrl#ODRL -->
<g id="edge42" class="edge">
<title>https://w3id.org/oseg/ont/otrl#exitCriteria&#45;&gt;https://w3id.org/oseg/ont/otrl#ODRL</title>
<path fill="none" stroke="black" d="M1351.12,-447.7C1410.11,-452.99 1488.87,-460.07 1544.91,-465.1"/>
<polygon fill="black" stroke="black" points="1544.82,-468.61 1555.1,-466.01 1545.45,-461.63 1544.82,-468.61"/>
<text text-anchor="middle" x="1362.01" y="-460.2" font-family="Times,serif" font-size="14.00">schema:domainIncludes</text>
</g>
<!-- https://w3id.org/oseg/ont/otrl#exitCriteria&#45;&gt;https://w3id.org/oseg/ont/otrl#OTRL -->
<g id="edge6" class="edge">
<title>https://w3id.org/oseg/ont/otrl#exitCriteria&#45;&gt;https://w3id.org/oseg/ont/otrl#OTRL</title>
<path fill="none" stroke="black" d="M1210.2,-452.75C1145.69,-466.31 1043.02,-487.9 979.01,-501.36"/>
<polygon fill="black" stroke="black" points="978.15,-497.96 969.09,-503.44 979.59,-504.81 978.15,-497.96"/>
<text text-anchor="middle" x="1008.61" y="-480.85" font-family="Times,serif" font-size="14.00">schema:domainIncludes</text>
</g>
<!-- https://w3id.org/oseg/ont/otrl#exitCriteria&#45;&gt;http://schema.org/Text -->
<g id="edge11" class="edge">
<title>https://w3id.org/oseg/ont/otrl#exitCriteria&#45;&gt;http://schema.org/Text</title>
<path fill="none" stroke="black" d="M1268.96,-423.96C1268.41,-390.7 1267.16,-315.02 1266.5,-274.67"/>
<polygon fill="black" stroke="black" points="1269.99,-274.47 1266.33,-264.52 1262.99,-274.58 1269.99,-274.47"/>
<text text-anchor="middle" x="1246.73" y="-353.12" font-family="Times,serif" font-size="14.00">range</text>
</g>
<!-- https://w3id.org/oseg/ont/otrl#Odrl4 -->
<g id="node18" class="node">
<title>https://w3id.org/oseg/ont/otrl#Odrl4</title>
<ellipse fill="none" stroke="#e377c2" cx="1779.19" cy="-112.73" rx="61.54" ry="16.03"/>
<text text-anchor="middle" x="1779.19" y="-109.03" font-family="Times,serif" font-size="14.00">otrl:Odrl4</text>
</g>
<!-- https://w3id.org/oseg/ont/otrl#Odrl4&#45;&gt;https://w3id.org/oseg/ont/otrl#ODRL4 -->
<g id="edge26" class="edge">
<title>https://w3id.org/oseg/ont/otrl#Odrl4&#45;&gt;https://w3id.org/oseg/ont/otrl#ODRL4</title>
<path fill="none" stroke="black" d="M1754.77,-127.79C1732.58,-145.43 1700.51,-174.6 1680.57,-195.25"/>
<polygon fill="black" stroke="black" points="1677.87,-193.02 1673.57,-202.7 1682.97,-197.81 1677.87,-193.02"/>
<text text-anchor="middle" x="1675.17" y="-165.32" font-family="Times,serif" font-size="14.00">owl:sameAs</text>
</g>
<!-- https://w3id.org/oseg/ont/otrl#Odrl4&#45;&gt;https://w3id.org/oseg/ont/otrl#ODRL4 -->
<g id="edge36" class="edge">
<title>https://w3id.org/oseg/ont/otrl#Odrl4&#45;&gt;https://w3id.org/oseg/ont/otrl#ODRL4</title>
<path fill="none" stroke="black" d="M1768,-129.16C1751.31,-147.5 1719.6,-176.95 1695.26,-197.15"/>
<polygon fill="black" stroke="black" points="1692.86,-194.59 1687.32,-203.61 1697.28,-200.01 1692.86,-194.59"/>
<text text-anchor="middle" x="1811.63" y="-166.96" font-family="Times,serif" font-size="14.00">schema:supersededBy</text>
</g>
<!-- https://w3id.org/oseg/ont/otrl#goal -->
<g id="node19" class="node">
<title>https://w3id.org/oseg/ont/otrl#goal</title>
<ellipse fill="none" stroke="#e377c2" cx="1275.64" cy="-494.22" rx="54.39" ry="16.03"/>
<text text-anchor="middle" x="1275.64" y="-490.52" font-family="Times,serif" font-size="14.00">otrl:goal</text>
</g>
<!-- https://w3id.org/oseg/ont/otrl#goal&#45;&gt;https://w3id.org/oseg/ont/otrl#ODRL -->
<g id="edge9" class="edge">
<title>https://w3id.org/oseg/ont/otrl#goal&#45;&gt;https://w3id.org/oseg/ont/otrl#ODRL</title>
<path fill="none" stroke="black" d="M1329,-490.62C1386.9,-486.72 1479.63,-480.48 1543.68,-476.16"/>
<polygon fill="black" stroke="black" points="1543.96,-479.65 1553.7,-475.49 1543.49,-472.67 1543.96,-479.65"/>
<text text-anchor="middle" x="1522.34" y="-487.19" font-family="Times,serif" font-size="14.00">schema:domainIncludes</text>
</g>
<!-- https://w3id.org/oseg/ont/otrl#goal&#45;&gt;https://w3id.org/oseg/ont/otrl#OTRL -->
<g id="edge5" class="edge">
<title>https://w3id.org/oseg/ont/otrl#goal&#45;&gt;https://w3id.org/oseg/ont/otrl#OTRL</title>
<path fill="none" stroke="black" d="M1221.82,-497.15C1160.12,-500.5 1058.81,-506.01 991.09,-509.7"/>
<polygon fill="black" stroke="black" points="990.73,-506.21 980.93,-510.25 991.11,-513.2 990.73,-506.21"/>
<text text-anchor="middle" x="1106.45" y="-492.22" font-family="Times,serif" font-size="14.00">schema:domainIncludes</text>
</g>
<!-- https://w3id.org/oseg/ont/otrl#goal&#45;&gt;http://schema.org/Text -->
<g id="edge29" class="edge">
<title>https://w3id.org/oseg/ont/otrl#goal&#45;&gt;http://schema.org/Text</title>
<path fill="none" stroke="black" d="M1275,-477.69C1273.37,-435.94 1269.08,-325.89 1267.1,-274.86"/>
<polygon fill="black" stroke="black" points="1270.59,-274.49 1266.7,-264.64 1263.59,-274.76 1270.59,-274.49"/>
<text text-anchor="middle" x="1250.05" y="-380.08" font-family="Times,serif" font-size="14.00">range</text>
</g>
<!-- https://w3id.org/oseg/ont/otrl#Otrl2 -->
<g id="node20" class="node">
<title>https://w3id.org/oseg/ont/otrl#Otrl2</title>
<ellipse fill="none" stroke="black" cx="391.13" cy="-16.7" rx="194.41" ry="16.03"/>
<text text-anchor="middle" x="391.13" y="-13" font-family="Times,serif" font-size="14.00">https://w3id.org/oseg/ont/otrl#Otrl2</text>
</g>
<!-- https://w3id.org/oseg/ont/otrl#Otrl2&#45;&gt;https://w3id.org/oseg/ont/otrl#OTRL2 -->
<g id="edge2" class="edge">
<title>https://w3id.org/oseg/ont/otrl#Otrl2&#45;&gt;https://w3id.org/oseg/ont/otrl#OTRL2</title>
<path fill="none" stroke="black" d="M404.1,-32.99C450.41,-82.17 607.52,-228.47 673.96,-284.82"/>
<polygon fill="black" stroke="black" points="672.06,-287.79 681.97,-291.54 676.56,-282.43 672.06,-287.79"/>
<text text-anchor="middle" x="496.53" y="-162.7" font-family="Times,serif" font-size="14.00">owl:sameAs</text>
</g>
<!-- https://w3id.org/oseg/ont/otrl#Otrl2&#45;&gt;https://w3id.org/oseg/ont/otrl#OTRL2 -->
<g id="edge35" class="edge">
<title>https://w3id.org/oseg/ont/otrl#Otrl2&#45;&gt;https://w3id.org/oseg/ont/otrl#OTRL2</title>
<path fill="none" stroke="black" d="M413.82,-32.94C472.56,-81.71 628.38,-226.34 683.97,-283.58"/>
<polygon fill="black" stroke="black" points="681.69,-286.26 691.13,-291.06 686.74,-281.42 681.69,-286.26"/>
<text text-anchor="middle" x="468.9" y="-147.06" font-family="Times,serif" font-size="14.00">schema:supersededBy</text>
</g>
<!-- https://w3id.org/oseg/ont/otrl#Odrl3 -->
<g id="node21" class="node">
<title>https://w3id.org/oseg/ont/otrl#Odrl3</title>
<ellipse fill="none" stroke="black" cx="1586.14" cy="-726.96" rx="196.65" ry="16.03"/>
<text text-anchor="middle" x="1586.14" y="-723.26" font-family="Times,serif" font-size="14.00">https://w3id.org/oseg/ont/otrl#Odrl3</text>
</g>
<!-- https://w3id.org/oseg/ont/otrl#Odrl3&#45;&gt;https://w3id.org/oseg/ont/otrl#ODRL3 -->
<g id="edge3" class="edge">
<title>https://w3id.org/oseg/ont/otrl#Odrl3&#45;&gt;https://w3id.org/oseg/ont/otrl#ODRL3</title>
<path fill="none" stroke="black" d="M1612.28,-710.71C1612.64,-710.36 1613,-710 1613.35,-709.64"/>
<polygon fill="black" stroke="black" points="1616.15,-711.77 1620.3,-702.02 1610.98,-707.05 1616.15,-711.77"/>
<text text-anchor="middle" x="1570.32" y="-698.97" font-family="Times,serif" font-size="14.00">owl:sameAs</text>
</g>
<!-- https://w3id.org/oseg/ont/otrl#Odrl3&#45;&gt;https://w3id.org/oseg/ont/otrl#ODRL3 -->
<g id="edge12" class="edge">
<title>https://w3id.org/oseg/ont/otrl#Odrl3&#45;&gt;https://w3id.org/oseg/ont/otrl#ODRL3</title>
<path fill="none" stroke="black" d="M1594.11,-710.4C1594.68,-709.72 1595.28,-709.03 1595.89,-708.34"/>
<polygon fill="black" stroke="black" points="1598.54,-710.63 1602.92,-700.99 1593.48,-705.8 1598.54,-710.63"/>
<text text-anchor="middle" x="1515" y="-698.17" font-family="Times,serif" font-size="14.00">schema:supersededBy</text>
</g>
<!-- https://w3id.org/oseg/ont/otrl#Otrl5 -->
<g id="node22" class="node">
<title>https://w3id.org/oseg/ont/otrl#Otrl5</title>
<ellipse fill="none" stroke="black" cx="194.68" cy="-434.6" rx="194.41" ry="16.03"/>
<text text-anchor="middle" x="194.68" y="-430.9" font-family="Times,serif" font-size="14.00">https://w3id.org/oseg/ont/otrl#Otrl5</text>
</g>
<!-- https://w3id.org/oseg/ont/otrl#Otrl5&#45;&gt;https://w3id.org/oseg/ont/otrl#OTRL5 -->
<g id="edge7" class="edge">
<title>https://w3id.org/oseg/ont/otrl#Otrl5&#45;&gt;https://w3id.org/oseg/ont/otrl#OTRL5</title>
<path fill="none" stroke="black" d="M303.87,-448.06C380.05,-454.52 479.88,-461.14 548.02,-464.15"/>
<polygon fill="black" stroke="black" points="548.12,-467.66 558.26,-464.58 548.42,-460.66 548.12,-467.66"/>
<text text-anchor="middle" x="383.44" y="-459.91" font-family="Times,serif" font-size="14.00">owl:sameAs</text>
</g>
<!-- https://w3id.org/oseg/ont/otrl#Otrl5&#45;&gt;https://w3id.org/oseg/ont/otrl#OTRL5 -->
<g id="edge13" class="edge">
<title>https://w3id.org/oseg/ont/otrl#Otrl5&#45;&gt;https://w3id.org/oseg/ont/otrl#OTRL5</title>
<path fill="none" stroke="black" d="M376.67,-440.38C441.12,-444.51 509.67,-449.75 558.5,-454.45"/>
<polygon fill="black" stroke="black" points="558.31,-457.95 568.61,-455.45 559,-450.98 558.31,-457.95"/>
<text text-anchor="middle" x="547.58" y="-436.22" font-family="Times,serif" font-size="14.00">schema:supersededBy</text>
</g>
<!-- https://w3id.org/oseg/ont/otrl#Otrl -->
<g id="node23" class="node">
<title>https://w3id.org/oseg/ont/otrl#Otrl</title>
<ellipse fill="none" stroke="black" cx="465.56" cy="-556.94" rx="188.18" ry="16.03"/>
<text text-anchor="middle" x="465.56" y="-553.24" font-family="Times,serif" font-size="14.00">https://w3id.org/oseg/ont/otrl#Otrl</text>
</g>
<!-- https://w3id.org/oseg/ont/otrl#Otrl&#45;&gt;https://w3id.org/oseg/ont/otrl#OTRL -->
<g id="edge8" class="edge">
<title>https://w3id.org/oseg/ont/otrl#Otrl&#45;&gt;https://w3id.org/oseg/ont/otrl#OTRL</title>
<path fill="none" stroke="black" d="M624.92,-548.25C706.57,-541.15 801.16,-531.57 861.09,-524.02"/>
<polygon fill="black" stroke="black" points="861.66,-527.47 871.13,-522.73 860.77,-520.53 861.66,-527.47"/>
<text text-anchor="middle" x="785.51" y="-524.93" font-family="Times,serif" font-size="14.00">owl:sameAs</text>
</g>
<!-- https://w3id.org/oseg/ont/otrl#Otrl&#45;&gt;https://w3id.org/oseg/ont/otrl#OTRL -->
<g id="edge14" class="edge">
<title>https://w3id.org/oseg/ont/otrl#Otrl&#45;&gt;https://w3id.org/oseg/ont/otrl#OTRL</title>
<path fill="none" stroke="black" d="M556.71,-542.69C643.1,-532.68 771.1,-520.64 850.18,-515.2"/>
<polygon fill="black" stroke="black" points="850.79,-518.67 860.53,-514.51 850.32,-511.69 850.79,-518.67"/>
<text text-anchor="middle" x="623.45" y="-517.75" font-family="Times,serif" font-size="14.00">schema:supersededBy</text>
</g>
<!-- https://w3id.org/oseg/ont/otrl#Otrl4 -->
<g id="node24" class="node">
<title>https://w3id.org/oseg/ont/otrl#Otrl4</title>
<ellipse fill="none" stroke="black" cx="1074.2" cy="-825.33" rx="194.41" ry="16.03"/>
<text text-anchor="middle" x="1074.2" y="-821.63" font-family="Times,serif" font-size="14.00">https://w3id.org/oseg/ont/otrl#Otrl4</text>
</g>
<!-- https://w3id.org/oseg/ont/otrl#Otrl4&#45;&gt;https://w3id.org/oseg/ont/otrl#OTRL4 -->
<g id="edge15" class="edge">
<title>https://w3id.org/oseg/ont/otrl#Otrl4&#45;&gt;https://w3id.org/oseg/ont/otrl#OTRL4</title>
<path fill="none" stroke="black" d="M1065.79,-808.92C1062.36,-804.78 1058.2,-800.28 1053.81,-795.93"/>
<polygon fill="black" stroke="black" points="1055.98,-793.15 1046.32,-788.8 1051.16,-798.23 1055.98,-793.15"/>
<text text-anchor="middle" x="1102.3" y="-791.22" font-family="Times,serif" font-size="14.00">owl:sameAs</text>
</g>
<!-- https://w3id.org/oseg/ont/otrl#Otrl4&#45;&gt;https://w3id.org/oseg/ont/otrl#OTRL4 -->
<g id="edge45" class="edge">
<title>https://w3id.org/oseg/ont/otrl#Otrl4&#45;&gt;https://w3id.org/oseg/ont/otrl#OTRL4</title>
<path fill="none" stroke="black" d="M1048.11,-809.07C1044.2,-805.48 1040.28,-801.6 1036.69,-797.78"/>
<polygon fill="black" stroke="black" points="1039.13,-795.26 1029.88,-790.1 1033.9,-799.9 1039.13,-795.26"/>
<text text-anchor="middle" x="962.4" y="-792.23" font-family="Times,serif" font-size="14.00">schema:supersededBy</text>
</g>
<!-- https://w3id.org/oseg/ont/otrl#Otrl3 -->
<g id="node25" class="node">
<title>https://w3id.org/oseg/ont/otrl#Otrl3</title>
<ellipse fill="none" stroke="black" cx="645.69" cy="-794.12" rx="194.41" ry="16.03"/>
<text text-anchor="middle" x="645.69" y="-790.42" font-family="Times,serif" font-size="14.00">https://w3id.org/oseg/ont/otrl#Otrl3</text>
</g>
<!-- https://w3id.org/oseg/ont/otrl#Otrl3&#45;&gt;https://w3id.org/oseg/ont/otrl#OTRL3 -->
<g id="edge16" class="edge">
<title>https://w3id.org/oseg/ont/otrl#Otrl3&#45;&gt;https://w3id.org/oseg/ont/otrl#OTRL3</title>
<path fill="none" stroke="black" d="M680.66,-777.94C683.63,-775.88 686.58,-773.76 689.39,-771.63"/>
<polygon fill="black" stroke="black" points="691.68,-774.28 697.33,-765.32 687.32,-768.8 691.68,-774.28"/>
<text text-anchor="middle" x="642.52" y="-763.58" font-family="Times,serif" font-size="14.00">owl:sameAs</text>
</g>
<!-- https://w3id.org/oseg/ont/otrl#Otrl3&#45;&gt;https://w3id.org/oseg/ont/otrl#OTRL3 -->
<g id="edge46" class="edge">
<title>https://w3id.org/oseg/ont/otrl#Otrl3&#45;&gt;https://w3id.org/oseg/ont/otrl#OTRL3</title>
<path fill="none" stroke="black" d="M658.55,-777.88C661.88,-775.09 665.63,-772.17 669.55,-769.31"/>
<polygon fill="black" stroke="black" points="671.59,-772.15 677.77,-763.54 667.57,-766.42 671.59,-772.15"/>
<text text-anchor="middle" x="744.05" y="-762.39" font-family="Times,serif" font-size="14.00">schema:supersededBy</text>
</g>
<!-- https://w3id.org/oseg/ont/otrl#Otrl6 -->
<g id="node26" class="node">
<title>https://w3id.org/oseg/ont/otrl#Otrl6</title>
<ellipse fill="none" stroke="black" cx="795.84" cy="-601.27" rx="194.41" ry="16.03"/>
<text text-anchor="middle" x="795.84" y="-597.57" font-family="Times,serif" font-size="14.00">https://w3id.org/oseg/ont/otrl#Otrl6</text>
</g>
<!-- https://w3id.org/oseg/ont/otrl#Otrl6&#45;&gt;https://w3id.org/oseg/ont/otrl#OTRL6 -->
<g id="edge18" class="edge">
<title>https://w3id.org/oseg/ont/otrl#Otrl6&#45;&gt;https://w3id.org/oseg/ont/otrl#OTRL6</title>
<path fill="none" stroke="black" d="M794.74,-584.95C793.87,-582.52 792.85,-579.97 791.71,-577.41"/>
<polygon fill="black" stroke="black" points="794.76,-575.69 787.18,-568.29 788.49,-578.81 794.76,-575.69"/>
<text text-anchor="middle" x="873.22" y="-569.98" font-family="Times,serif" font-size="14.00">schema:supersededBy</text>
</g>
<!-- https://w3id.org/oseg/ont/otrl#Otrl6&#45;&gt;https://w3id.org/oseg/ont/otrl#OTRL6 -->
<g id="edge48" class="edge">
<title>https://w3id.org/oseg/ont/otrl#Otrl6&#45;&gt;https://w3id.org/oseg/ont/otrl#OTRL6</title>
<path fill="none" stroke="black" d="M780.5,-584.8C779.3,-582.59 778.14,-580.29 777.07,-577.98"/>
<polygon fill="black" stroke="black" points="780.25,-576.51 773.2,-568.6 773.77,-579.18 780.25,-576.51"/>
<text text-anchor="middle" x="736.28" y="-570.19" font-family="Times,serif" font-size="14.00">owl:sameAs</text>
</g>
<!-- https://w3id.org/oseg/ont/otrl#Odrl3Star -->
<g id="node27" class="node">
<title>https://w3id.org/oseg/ont/otrl#Odrl3Star</title>
<ellipse fill="none" stroke="black" cx="2404.97" cy="-596.2" rx="218.49" ry="16.03"/>
<text text-anchor="middle" x="2404.97" y="-592.5" font-family="Times,serif" font-size="14.00">https://w3id.org/oseg/ont/otrl#Odrl3Star</text>
</g>
<!-- https://w3id.org/oseg/ont/otrl#Odrl3Star&#45;&gt;https://w3id.org/oseg/ont/otrl#ODRL3Star -->
<g id="edge23" class="edge">
<title>https://w3id.org/oseg/ont/otrl#Odrl3Star&#45;&gt;https://w3id.org/oseg/ont/otrl#ODRL3Star</title>
<path fill="none" stroke="black" d="M2352.15,-580.34C2274.53,-561.22 2129,-530.14 2037.45,-512.92"/>
<polygon fill="black" stroke="black" points="2037.86,-509.44 2027.38,-511.04 2036.57,-516.32 2037.86,-509.44"/>
<text text-anchor="middle" x="2152.3" y="-535.43" font-family="Times,serif" font-size="14.00">owl:sameAs</text>
</g>
<!-- https://w3id.org/oseg/ont/otrl#Odrl3Star&#45;&gt;https://w3id.org/oseg/ont/otrl#ODRL3Star -->
<g id="edge30" class="edge">
<title>https://w3id.org/oseg/ont/otrl#Odrl3Star&#45;&gt;https://w3id.org/oseg/ont/otrl#ODRL3Star</title>
<path fill="none" stroke="black" d="M2308.76,-581.58C2218.21,-564.21 2085.75,-535.83 2011.42,-517.63"/>
<polygon fill="black" stroke="black" points="2011.88,-514.14 2001.33,-515.13 2010.2,-520.93 2011.88,-514.14"/>
<text text-anchor="middle" x="2080.09" y="-553.4" font-family="Times,serif" font-size="14.00">schema:supersededBy</text>
</g>
<!-- https://w3id.org/oseg/ont/otrl#Odrl -->
<g id="node28" class="node">
<title>https://w3id.org/oseg/ont/otrl#Odrl</title>
<ellipse fill="none" stroke="black" cx="1616.96" cy="-421.44" rx="190.42" ry="16.03"/>
<text text-anchor="middle" x="1616.96" y="-417.74" font-family="Times,serif" font-size="14.00">https://w3id.org/oseg/ont/otrl#Odrl</text>
</g>
<!-- https://w3id.org/oseg/ont/otrl#Odrl&#45;&gt;https://w3id.org/oseg/ont/otrl#ODRL -->
<g id="edge25" class="edge">
<title>https://w3id.org/oseg/ont/otrl#Odrl&#45;&gt;https://w3id.org/oseg/ont/otrl#ODRL</title>
<path fill="none" stroke="black" d="M1609.84,-437.79C1609.53,-440.13 1609.31,-442.58 1609.18,-445.05"/>
<polygon fill="black" stroke="black" points="1605.68,-445.03 1609.13,-455.05 1612.68,-445.07 1605.68,-445.03"/>
<text text-anchor="middle" x="1567.01" y="-445.22" font-family="Times,serif" font-size="14.00">owl:sameAs</text>
</g>
<!-- https://w3id.org/oseg/ont/otrl#Odrl&#45;&gt;https://w3id.org/oseg/ont/otrl#ODRL -->
<g id="edge33" class="edge">
<title>https://w3id.org/oseg/ont/otrl#Odrl&#45;&gt;https://w3id.org/oseg/ont/otrl#ODRL</title>
<path fill="none" stroke="black" d="M1622.61,-437.8C1622.72,-440.03 1622.74,-442.37 1622.68,-444.72"/>
<polygon fill="black" stroke="black" points="1619.17,-444.69 1621.91,-454.92 1626.15,-445.21 1619.17,-444.69"/>
<text text-anchor="middle" x="1702.64" y="-445.06" font-family="Times,serif" font-size="14.00">schema:supersededBy</text>
</g>
<!-- https://w3id.org/oseg/ont/otrl#Odrl1 -->
<g id="node29" class="node">
<title>https://w3id.org/oseg/ont/otrl#Odrl1</title>
<ellipse fill="none" stroke="black" cx="2005.9" cy="-709.03" rx="196.65" ry="16.03"/>
<text text-anchor="middle" x="2005.9" y="-705.33" font-family="Times,serif" font-size="14.00">https://w3id.org/oseg/ont/otrl#Odrl1</text>
</g>
<!-- https://w3id.org/oseg/ont/otrl#Odrl1&#45;&gt;https://w3id.org/oseg/ont/otrl#ODRL1 -->
<g id="edge31" class="edge">
<title>https://w3id.org/oseg/ont/otrl#Odrl1&#45;&gt;https://w3id.org/oseg/ont/otrl#ODRL1</title>
<path fill="none" stroke="black" d="M1985.99,-692.68C1966.03,-680.04 1934.65,-662.8 1908.33,-649.79"/>
<polygon fill="black" stroke="black" points="1909.79,-646.6 1899.26,-645.37 1906.72,-652.9 1909.79,-646.6"/>
<text text-anchor="middle" x="1904.66" y="-660.03" font-family="Times,serif" font-size="14.00">owl:sameAs</text>
</g>
<!-- https://w3id.org/oseg/ont/otrl#Odrl1&#45;&gt;https://w3id.org/oseg/ont/otrl#ODRL1 -->
<g id="edge38" class="edge">
<title>https://w3id.org/oseg/ont/otrl#Odrl1&#45;&gt;https://w3id.org/oseg/ont/otrl#ODRL1</title>
<path fill="none" stroke="black" d="M1963.1,-693.09C1939.17,-681.43 1910.05,-665.69 1889.06,-652.98"/>
<polygon fill="black" stroke="black" points="1890.66,-649.85 1880.32,-647.56 1886.98,-655.8 1890.66,-649.85"/>
<text text-anchor="middle" x="1846.08" y="-676.83" font-family="Times,serif" font-size="14.00">schema:supersededBy</text>
</g>
<!-- https://w3id.org/oseg/ont/otrl#Odrl5 -->
<g id="node30" class="node">
<title>https://w3id.org/oseg/ont/otrl#Odrl5</title>
<ellipse fill="none" stroke="black" cx="1802.93" cy="-71.37" rx="196.65" ry="16.03"/>
<text text-anchor="middle" x="1802.93" y="-67.67" font-family="Times,serif" font-size="14.00">https://w3id.org/oseg/ont/otrl#Odrl5</text>
</g>
<!-- https://w3id.org/oseg/ont/otrl#Odrl5&#45;&gt;https://w3id.org/oseg/ont/otrl#Odrl4 -->
<g id="edge32" class="edge">
<title>https://w3id.org/oseg/ont/otrl#Odrl5&#45;&gt;https://w3id.org/oseg/ont/otrl#Odrl4</title>
<path fill="none" stroke="black" d="M1785.77,-87.73C1785.72,-87.82 1785.66,-87.9 1785.61,-87.99"/>
<polygon fill="black" stroke="black" points="1782.82,-85.78 1781.32,-96.27 1789.03,-89.01 1782.82,-85.78"/>
<text text-anchor="middle" x="1828.19" y="-91.66" font-family="Times,serif" font-size="14.00">owl:sameAs</text>
</g>
<!-- https://w3id.org/oseg/ont/otrl#Odrl5&#45;&gt;https://w3id.org/oseg/ont/otrl#Odrl4 -->
<g id="edge39" class="edge">
<title>https://w3id.org/oseg/ont/otrl#Odrl5&#45;&gt;https://w3id.org/oseg/ont/otrl#Odrl4</title>
<path fill="none" stroke="black" d="M1800.69,-88.09C1800.65,-88.18 1800.61,-88.27 1800.56,-88.36"/>
<polygon fill="black" stroke="black" points="1797.68,-86.34 1796.1,-96.81 1803.87,-89.61 1797.68,-86.34"/>
<text text-anchor="middle" x="1720.63" y="-92.03" font-family="Times,serif" font-size="14.00">schema:supersededBy</text>
</g>
<!-- https://w3id.org/oseg/ont/otrl#Otrl1 -->
<g id="node31" class="node">
<title>https://w3id.org/oseg/ont/otrl#Otrl1</title>
<ellipse fill="none" stroke="black" cx="878.65" cy="-228.63" rx="194.41" ry="16.03"/>
<text text-anchor="middle" x="878.65" y="-224.93" font-family="Times,serif" font-size="14.00">https://w3id.org/oseg/ont/otrl#Otrl1</text>
</g>
<!-- https://w3id.org/oseg/ont/otrl#Otrl1&#45;&gt;https://w3id.org/oseg/ont/otrl#OTRL1 -->
<g id="edge34" class="edge">
<title>https://w3id.org/oseg/ont/otrl#Otrl1&#45;&gt;https://w3id.org/oseg/ont/otrl#OTRL1</title>
<path fill="none" stroke="black" d="M875.44,-245.12C875.45,-245.21 875.46,-245.29 875.47,-245.37"/>
<polygon fill="black" stroke="black" points="871.65,-244.04 877,-253.19 878.52,-242.7 871.65,-244.04"/>
<text text-anchor="middle" x="832.95" y="-249.05" font-family="Times,serif" font-size="14.00">owl:sameAs</text>
</g>
<!-- https://w3id.org/oseg/ont/otrl#Otrl1&#45;&gt;https://w3id.org/oseg/ont/otrl#OTRL1 -->
<g id="edge41" class="edge">
<title>https://w3id.org/oseg/ont/otrl#Otrl1&#45;&gt;https://w3id.org/oseg/ont/otrl#OTRL1</title>
<path fill="none" stroke="black" d="M889,-245.2C889.04,-245.35 889.08,-245.51 889.12,-245.67"/>
<polygon fill="black" stroke="black" points="885.19,-243.68 890.46,-252.88 892.07,-242.4 885.19,-243.68"/>
<text text-anchor="middle" x="969.06" y="-249.23" font-family="Times,serif" font-size="14.00">schema:supersededBy</text>
</g>
<!-- https://w3id.org/oseg/ont/otrl#Odrl2 -->
<g id="node32" class="node">
<title>https://w3id.org/oseg/ont/otrl#Odrl2</title>
<ellipse fill="none" stroke="black" cx="2270.15" cy="-155.86" rx="196.65" ry="16.03"/>
<text text-anchor="middle" x="2270.15" y="-152.16" font-family="Times,serif" font-size="14.00">https://w3id.org/oseg/ont/otrl#Odrl2</text>
</g>
<!-- https://w3id.org/oseg/ont/otrl#Odrl2&#45;&gt;https://w3id.org/oseg/ont/otrl#ODRL2 -->
<g id="edge40" class="edge">
<title>https://w3id.org/oseg/ont/otrl#Odrl2&#45;&gt;https://w3id.org/oseg/ont/otrl#ODRL2</title>
<path fill="none" stroke="black" d="M2226.69,-171.77C2151.35,-204.39 1998.22,-277.96 1931.22,-313.87"/>
<polygon fill="black" stroke="black" points="1929.48,-310.83 1922.36,-318.67 1932.82,-316.98 1929.48,-310.83"/>
<text text-anchor="middle" x="2036.46" y="-246.62" font-family="Times,serif" font-size="14.00">owl:sameAs</text>
</g>
<!-- https://w3id.org/oseg/ont/otrl#Odrl2&#45;&gt;https://w3id.org/oseg/ont/otrl#ODRL2 -->
<g id="edge47" class="edge">
<title>https://w3id.org/oseg/ont/otrl#Odrl2&#45;&gt;https://w3id.org/oseg/ont/otrl#ODRL2</title>
<path fill="none" stroke="black" d="M2245.03,-172.01C2183.74,-205.56 2025.82,-281.64 1946.12,-316.4"/>
<polygon fill="black" stroke="black" points="1944.59,-313.25 1936.8,-320.43 1947.36,-319.68 1944.59,-313.25"/>
<text text-anchor="middle" x="2175.57" y="-248.01" font-family="Times,serif" font-size="14.00">schema:supersededBy</text>
</g>
</g>
</svg>
