<?xml version="1.0" encoding="UTF-8" standalone="no"?>
<!DOCTYPE svg PUBLIC "-//W3C//DTD SVG 1.1//EN"
 "http://www.w3.org/Graphics/SVG/1.1/DTD/svg11.dtd">
<!-- Generated by graphviz version 2.43.0 (0)
 -->
<!-- Title: G Pages: 1 -->
<svg width="1111pt" height="1243pt"
 viewBox="0.00 0.00 1110.76 1243.00" xmlns="http://www.w3.org/2000/svg" xmlns:xlink="http://www.w3.org/1999/xlink">
<g id="graph0" class="graph" transform="scale(1 1) rotate(0) translate(4 1239)">
<title>G</title>
<polygon fill="white" stroke="transparent" points="-4,4 -4,-1239 1106.76,-1239 1106.76,4 -4,4"/>
<!-- http://www.w3.org/2002/07/owl#Ontology -->
<g id="node1" class="node">
<title>http://www.w3.org/2002/07/owl#Ontology</title>
<ellipse fill="none" stroke="#1f77b4" cx="773.32" cy="-560.47" rx="77.56" ry="16.03"/>
<text text-anchor="middle" x="773.32" y="-556.77" font-family="Times,serif" font-size="14.00">owl:Ontology</text>
</g>
<!-- http://purl.org/oseg/ontologies/OTRL#ODRL -->
<g id="node2" class="node">
<title>http://purl.org/oseg/ontologies/OTRL#ODRL</title>
<ellipse fill="none" stroke="#e377c2" cx="223.29" cy="-1097.8" rx="41.94" ry="16.03"/>
<text text-anchor="middle" x="223.29" y="-1094.1" font-family="Times,serif" font-size="14.00">ODRL</text>
</g>
<!-- http://www.w3.org/2002/07/owl#class -->
<g id="node5" class="node">
<title>http://www.w3.org/2002/07/owl#class</title>
<ellipse fill="none" stroke="#1f77b4" cx="332.45" cy="-892.56" rx="57.05" ry="16.03"/>
<text text-anchor="middle" x="332.45" y="-888.86" font-family="Times,serif" font-size="14.00">owl:class</text>
</g>
<!-- http://purl.org/oseg/ontologies/OTRL#ODRL&#45;&gt;http://www.w3.org/2002/07/owl#class -->
<g id="edge32" class="edge">
<title>http://purl.org/oseg/ontologies/OTRL#ODRL&#45;&gt;http://www.w3.org/2002/07/owl#class</title>
<path fill="none" stroke="black" d="M231.86,-1081.69C250.78,-1046.11 296.27,-960.58 319.02,-917.81"/>
<polygon fill="black" stroke="black" points="322.17,-919.35 323.77,-908.88 315.99,-916.06 322.17,-919.35"/>
<text text-anchor="middle" x="270.94" y="-1003.55" font-family="Times,serif" font-size="14.00">a</text>
</g>
<!-- http://purl.org/oseg/ontologies/OTRL#OTRL -->
<g id="node3" class="node">
<title>http://purl.org/oseg/ontologies/OTRL#OTRL</title>
<ellipse fill="none" stroke="#e377c2" cx="488.75" cy="-591.13" rx="39.7" ry="16.03"/>
<text text-anchor="middle" x="488.75" y="-587.43" font-family="Times,serif" font-size="14.00">OTRL</text>
</g>
<!-- http://purl.org/oseg/ontologies/OTRL#OTRL&#45;&gt;http://www.w3.org/2002/07/owl#class -->
<g id="edge40" class="edge">
<title>http://purl.org/oseg/ontologies/OTRL#OTRL&#45;&gt;http://www.w3.org/2002/07/owl#class</title>
<path fill="none" stroke="black" d="M480.34,-607.33C454.64,-656.91 376.91,-806.82 345.66,-867.08"/>
<polygon fill="black" stroke="black" points="342.39,-865.79 340.89,-876.28 348.6,-869.01 342.39,-865.79"/>
<text text-anchor="middle" x="408.5" y="-726.01" font-family="Times,serif" font-size="14.00">a</text>
</g>
<!-- http://www.w3.org/2002/07/owl#DatatypeProperty -->
<g id="node4" class="node">
<title>http://www.w3.org/2002/07/owl#DatatypeProperty</title>
<ellipse fill="none" stroke="#1f77b4" cx="900.63" cy="-58.48" rx="123.07" ry="16.03"/>
<text text-anchor="middle" x="900.63" y="-54.78" font-family="Times,serif" font-size="14.00">owl:DatatypeProperty</text>
</g>
<!-- http://schema.org/Text -->
<g id="node6" class="node">
<title>http://schema.org/Text</title>
<ellipse fill="none" stroke="#e377c2" cx="697.39" cy="-16.65" rx="74.91" ry="16.03"/>
<text text-anchor="middle" x="697.39" y="-12.95" font-family="Times,serif" font-size="14.00">schema:Text</text>
</g>
<!-- http://purl.org/oseg/ontologies/OTRL#ODRL&#45;3 -->
<g id="node7" class="node">
<title>http://purl.org/oseg/ontologies/OTRL#ODRL&#45;3</title>
<ellipse fill="none" stroke="#e377c2" cx="55.51" cy="-944.48" rx="50.82" ry="16.03"/>
<text text-anchor="middle" x="55.51" y="-940.78" font-family="Times,serif" font-size="14.00">ODRL&#45;3</text>
</g>
<!-- http://purl.org/oseg/ontologies/OTRL#ODRL&#45;3&#45;&gt;http://purl.org/oseg/ontologies/OTRL#ODRL -->
<g id="edge45" class="edge">
<title>http://purl.org/oseg/ontologies/OTRL#ODRL&#45;3&#45;&gt;http://purl.org/oseg/ontologies/OTRL#ODRL</title>
<path fill="none" stroke="black" d="M72.52,-960.02C102.44,-987.37 164.59,-1044.16 199.02,-1075.62"/>
<polygon fill="black" stroke="black" points="196.99,-1078.5 206.73,-1082.67 201.71,-1073.34 196.99,-1078.5"/>
</g>
<!-- http://purl.org/oseg/ontologies/OTRL#ODRL&#45;3&#45;&gt;http://www.w3.org/2002/07/owl#class -->
<g id="edge2" class="edge">
<title>http://purl.org/oseg/ontologies/OTRL#ODRL&#45;3&#45;&gt;http://www.w3.org/2002/07/owl#class</title>
<path fill="none" stroke="black" d="M99.7,-936.19C146.94,-927.34 222.07,-913.25 274.14,-903.49"/>
<polygon fill="black" stroke="black" points="275.05,-906.88 284.23,-901.6 273.76,-900 275.05,-906.88"/>
<text text-anchor="middle" x="182.42" y="-923.64" font-family="Times,serif" font-size="14.00">a</text>
</g>
<!-- http://purl.org/oseg/ontologies/OTRL#ODRL&#45;0 -->
<g id="node8" class="node">
<title>http://purl.org/oseg/ontologies/OTRL#ODRL&#45;0</title>
<ellipse fill="none" stroke="#e377c2" cx="50.84" cy="-1041.2" rx="50.82" ry="16.03"/>
<text text-anchor="middle" x="50.84" y="-1037.5" font-family="Times,serif" font-size="14.00">ODRL&#45;0</text>
</g>
<!-- http://purl.org/oseg/ontologies/OTRL#ODRL&#45;0&#45;&gt;http://purl.org/oseg/ontologies/OTRL#ODRL -->
<g id="edge22" class="edge">
<title>http://purl.org/oseg/ontologies/OTRL#ODRL&#45;0&#45;&gt;http://purl.org/oseg/ontologies/OTRL#ODRL</title>
<path fill="none" stroke="black" d="M86.58,-1052.92C114.11,-1061.96 152.25,-1074.48 181.25,-1084"/>
<polygon fill="black" stroke="black" points="180.5,-1087.44 191.1,-1087.23 182.69,-1080.79 180.5,-1087.44"/>
</g>
<!-- http://purl.org/oseg/ontologies/OTRL#ODRL&#45;0&#45;&gt;http://www.w3.org/2002/07/owl#class -->
<g id="edge25" class="edge">
<title>http://purl.org/oseg/ontologies/OTRL#ODRL&#45;0&#45;&gt;http://www.w3.org/2002/07/owl#class</title>
<path fill="none" stroke="black" d="M77.34,-1027.21C127.92,-1000.52 238.33,-942.24 295.89,-911.86"/>
<polygon fill="black" stroke="black" points="297.78,-914.82 304.99,-907.05 294.52,-908.63 297.78,-914.82"/>
<text text-anchor="middle" x="182.11" y="-973.34" font-family="Times,serif" font-size="14.00">a</text>
</g>
<!-- http://purl.org/oseg/ontologies/OTRL -->
<g id="node9" class="node">
<title>http://purl.org/oseg/ontologies/OTRL</title>
<ellipse fill="none" stroke="#e377c2" cx="920.95" cy="-538.42" rx="60.62" ry="16.03"/>
<text text-anchor="middle" x="920.95" y="-534.72" font-family="Times,serif" font-size="14.00">ns1:OTRL</text>
</g>
<!-- http://purl.org/oseg/ontologies/OTRL&#45;&gt;http://www.w3.org/2002/07/owl#Ontology -->
<g id="edge3" class="edge">
<title>http://purl.org/oseg/ontologies/OTRL&#45;&gt;http://www.w3.org/2002/07/owl#Ontology</title>
<path fill="none" stroke="black" d="M867.65,-546.38C860.94,-547.38 853.98,-548.42 847.02,-549.46"/>
<polygon fill="black" stroke="black" points="846.22,-546.04 836.85,-550.98 847.26,-552.96 846.22,-546.04"/>
<text text-anchor="middle" x="855.08" y="-536.72" font-family="Times,serif" font-size="14.00">a</text>
</g>
<!-- http://purl.org/oseg/ontologies/OTRL&#45;&gt;http://purl.org/oseg/ontologies/OTRL -->
<g id="edge6" class="edge">
<title>http://purl.org/oseg/ontologies/OTRL&#45;&gt;http://purl.org/oseg/ontologies/OTRL</title>
<path fill="none" stroke="black" d="M976.55,-545.05C989.89,-544.53 999.76,-542.32 999.76,-538.42 999.76,-535.58 994.55,-533.64 986.58,-532.59"/>
<polygon fill="black" stroke="black" points="986.8,-529.1 976.55,-531.78 986.24,-536.07 986.8,-529.1"/>
<text text-anchor="middle" x="1051.26" y="-534.72" font-family="Times,serif" font-size="14.00">owl:versionIRI</text>
</g>
<!-- http://purl.org/oseg/ontologies/OTRL#OTRL&#45;3 -->
<g id="node10" class="node">
<title>http://purl.org/oseg/ontologies/OTRL#OTRL&#45;3</title>
<ellipse fill="none" stroke="#e377c2" cx="551.44" cy="-728.54" rx="49.49" ry="16.03"/>
<text text-anchor="middle" x="551.44" y="-724.84" font-family="Times,serif" font-size="14.00">OTRL&#45;3</text>
</g>
<!-- http://purl.org/oseg/ontologies/OTRL#OTRL&#45;3&#45;&gt;http://purl.org/oseg/ontologies/OTRL#OTRL -->
<g id="edge37" class="edge">
<title>http://purl.org/oseg/ontologies/OTRL#OTRL&#45;3&#45;&gt;http://purl.org/oseg/ontologies/OTRL#OTRL</title>
<path fill="none" stroke="black" d="M544,-712.24C533.21,-688.58 513.11,-644.52 500.35,-616.56"/>
<polygon fill="black" stroke="black" points="503.51,-615.05 496.18,-607.41 497.14,-617.96 503.51,-615.05"/>
</g>
<!-- http://purl.org/oseg/ontologies/OTRL#OTRL&#45;3&#45;&gt;http://www.w3.org/2002/07/owl#class -->
<g id="edge4" class="edge">
<title>http://purl.org/oseg/ontologies/OTRL#OTRL&#45;3&#45;&gt;http://www.w3.org/2002/07/owl#class</title>
<path fill="none" stroke="black" d="M531.23,-743.68C492.14,-772.96 406.06,-837.43 361.09,-871.11"/>
<polygon fill="black" stroke="black" points="358.83,-868.43 352.93,-877.22 363.03,-874.03 358.83,-868.43"/>
<text text-anchor="middle" x="441.66" y="-811.19" font-family="Times,serif" font-size="14.00">a</text>
</g>
<!-- http://purl.org/oseg/ontologies/OTRL#ODRL&#45;4 -->
<g id="node11" class="node">
<title>http://purl.org/oseg/ontologies/OTRL#ODRL&#45;4</title>
<ellipse fill="none" stroke="#e377c2" cx="107.36" cy="-1140.83" rx="50.82" ry="16.03"/>
<text text-anchor="middle" x="107.36" y="-1137.13" font-family="Times,serif" font-size="14.00">ODRL&#45;4</text>
</g>
<!-- http://purl.org/oseg/ontologies/OTRL#ODRL&#45;4&#45;&gt;http://purl.org/oseg/ontologies/OTRL#ODRL -->
<g id="edge15" class="edge">
<title>http://purl.org/oseg/ontologies/OTRL#ODRL&#45;4&#45;&gt;http://purl.org/oseg/ontologies/OTRL#ODRL</title>
<path fill="none" stroke="black" d="M140.58,-1128.5C153.95,-1123.54 169.49,-1117.77 183.46,-1112.58"/>
<polygon fill="black" stroke="black" points="184.69,-1115.86 192.84,-1109.1 182.25,-1109.3 184.69,-1115.86"/>
</g>
<!-- http://purl.org/oseg/ontologies/OTRL#ODRL&#45;4&#45;&gt;http://www.w3.org/2002/07/owl#class -->
<g id="edge5" class="edge">
<title>http://purl.org/oseg/ontologies/OTRL#ODRL&#45;4&#45;&gt;http://www.w3.org/2002/07/owl#class</title>
<path fill="none" stroke="black" d="M121.78,-1124.93C160.37,-1082.36 266.13,-965.71 311.42,-915.76"/>
<polygon fill="black" stroke="black" points="314.02,-918.1 318.15,-908.34 308.84,-913.4 314.02,-918.1"/>
<text text-anchor="middle" x="212.1" y="-1024.14" font-family="Times,serif" font-size="14.00">a</text>
</g>
<!-- http://purl.org/oseg/ontologies/OTRL#OTRL&#45;6 -->
<g id="node12" class="node">
<title>http://purl.org/oseg/ontologies/OTRL#OTRL&#45;6</title>
<ellipse fill="none" stroke="#e377c2" cx="355.85" cy="-616.39" rx="49.49" ry="16.03"/>
<text text-anchor="middle" x="355.85" y="-612.69" font-family="Times,serif" font-size="14.00">OTRL&#45;6</text>
</g>
<!-- http://purl.org/oseg/ontologies/OTRL#OTRL&#45;6&#45;&gt;http://purl.org/oseg/ontologies/OTRL#OTRL -->
<g id="edge23" class="edge">
<title>http://purl.org/oseg/ontologies/OTRL#OTRL&#45;6&#45;&gt;http://purl.org/oseg/ontologies/OTRL#OTRL</title>
<path fill="none" stroke="black" d="M399,-608.19C412.9,-605.54 428.37,-602.6 442.49,-599.92"/>
<polygon fill="black" stroke="black" points="443.32,-603.33 452.49,-598.02 442.01,-596.45 443.32,-603.33"/>
</g>
<!-- http://purl.org/oseg/ontologies/OTRL#OTRL&#45;6&#45;&gt;http://www.w3.org/2002/07/owl#class -->
<g id="edge11" class="edge">
<title>http://purl.org/oseg/ontologies/OTRL#OTRL&#45;6&#45;&gt;http://www.w3.org/2002/07/owl#class</title>
<path fill="none" stroke="black" d="M354.45,-632.84C350.55,-678.89 339.49,-809.41 334.71,-865.93"/>
<polygon fill="black" stroke="black" points="331.19,-865.94 333.84,-876.2 338.17,-866.53 331.19,-865.94"/>
<text text-anchor="middle" x="340.08" y="-753.18" font-family="Times,serif" font-size="14.00">a</text>
</g>
<!-- http://purl.org/oseg/ontologies/OTRL#OTRL&#45;9 -->
<g id="node13" class="node">
<title>http://purl.org/oseg/ontologies/OTRL#OTRL&#45;9</title>
<ellipse fill="none" stroke="#e377c2" cx="211.65" cy="-649.09" rx="49.49" ry="16.03"/>
<text text-anchor="middle" x="211.65" y="-645.39" font-family="Times,serif" font-size="14.00">OTRL&#45;9</text>
</g>
<!-- http://purl.org/oseg/ontologies/OTRL#OTRL&#45;9&#45;&gt;http://purl.org/oseg/ontologies/OTRL#OTRL -->
<g id="edge31" class="edge">
<title>http://purl.org/oseg/ontologies/OTRL#OTRL&#45;9&#45;&gt;http://purl.org/oseg/ontologies/OTRL#OTRL</title>
<path fill="none" stroke="black" d="M253.43,-640.35C304.46,-629.67 390.46,-611.68 443.16,-600.66"/>
<polygon fill="black" stroke="black" points="444.16,-604.03 453.23,-598.55 442.73,-597.18 444.16,-604.03"/>
</g>
<!-- http://purl.org/oseg/ontologies/OTRL#OTRL&#45;9&#45;&gt;http://www.w3.org/2002/07/owl#class -->
<g id="edge30" class="edge">
<title>http://purl.org/oseg/ontologies/OTRL#OTRL&#45;9&#45;&gt;http://www.w3.org/2002/07/owl#class</title>
<path fill="none" stroke="black" d="M219.76,-665.44C240.39,-707.02 294.98,-817.04 319.82,-867.1"/>
<polygon fill="black" stroke="black" points="316.79,-868.88 324.37,-876.28 323.06,-865.77 316.79,-868.88"/>
<text text-anchor="middle" x="265.29" y="-770.07" font-family="Times,serif" font-size="14.00">a</text>
</g>
<!-- http://purl.org/oseg/ontologies/OTRL#ODRL&#45;2 -->
<g id="node14" class="node">
<title>http://purl.org/oseg/ontologies/OTRL#ODRL&#45;2</title>
<ellipse fill="none" stroke="#e377c2" cx="247.19" cy="-1218.69" rx="50.82" ry="16.03"/>
<text text-anchor="middle" x="247.19" y="-1214.99" font-family="Times,serif" font-size="14.00">ODRL&#45;2</text>
</g>
<!-- http://purl.org/oseg/ontologies/OTRL#ODRL&#45;2&#45;&gt;http://purl.org/oseg/ontologies/OTRL#ODRL -->
<g id="edge24" class="edge">
<title>http://purl.org/oseg/ontologies/OTRL#ODRL&#45;2&#45;&gt;http://purl.org/oseg/ontologies/OTRL#ODRL</title>
<path fill="none" stroke="black" d="M243.97,-1202.39C240.01,-1182.38 233.25,-1148.18 228.54,-1124.36"/>
<polygon fill="black" stroke="black" points="231.91,-1123.36 226.54,-1114.23 225.05,-1124.72 231.91,-1123.36"/>
</g>
<!-- http://purl.org/oseg/ontologies/OTRL#ODRL&#45;2&#45;&gt;http://www.w3.org/2002/07/owl#class -->
<g id="edge12" class="edge">
<title>http://purl.org/oseg/ontologies/OTRL#ODRL&#45;2&#45;&gt;http://www.w3.org/2002/07/owl#class</title>
<path fill="none" stroke="black" d="M251.53,-1202.07C265.39,-1149.08 308.6,-983.8 325.54,-919"/>
<polygon fill="black" stroke="black" points="328.97,-919.71 328.11,-909.15 322.2,-917.94 328.97,-919.71"/>
<text text-anchor="middle" x="284.04" y="-1064.34" font-family="Times,serif" font-size="14.00">a</text>
</g>
<!-- http://purl.org/oseg/ontologies/OTRL#documentationDescription -->
<g id="node15" class="node">
<title>http://purl.org/oseg/ontologies/OTRL#documentationDescription</title>
<ellipse fill="none" stroke="#e377c2" cx="803.76" cy="-357.43" rx="120.83" ry="16.03"/>
<text text-anchor="middle" x="803.76" y="-353.73" font-family="Times,serif" font-size="14.00">documentationDesc...</text>
</g>
<!-- http://purl.org/oseg/ontologies/OTRL#documentationDescription&#45;&gt;http://purl.org/oseg/ontologies/OTRL#OTRL -->
<g id="edge36" class="edge">
<title>http://purl.org/oseg/ontologies/OTRL#documentationDescription&#45;&gt;http://purl.org/oseg/ontologies/OTRL#OTRL</title>
<path fill="none" stroke="black" d="M782.1,-373.5C726.35,-414.86 577.89,-525 516.21,-570.75"/>
<polygon fill="black" stroke="black" points="514.05,-568 508.1,-576.77 518.22,-573.62 514.05,-568"/>
<text text-anchor="middle" x="622.66" y="-475.92" font-family="Times,serif" font-size="14.00">domain</text>
</g>
<!-- http://purl.org/oseg/ontologies/OTRL#documentationDescription&#45;&gt;http://www.w3.org/2002/07/owl#DatatypeProperty -->
<g id="edge33" class="edge">
<title>http://purl.org/oseg/ontologies/OTRL#documentationDescription&#45;&gt;http://www.w3.org/2002/07/owl#DatatypeProperty</title>
<path fill="none" stroke="black" d="M809.1,-340.94C825.08,-291.63 872.57,-145.07 892.1,-84.81"/>
<polygon fill="black" stroke="black" points="895.55,-85.52 895.3,-74.93 888.89,-83.36 895.55,-85.52"/>
<text text-anchor="middle" x="846.1" y="-216.67" font-family="Times,serif" font-size="14.00">a</text>
</g>
<!-- http://purl.org/oseg/ontologies/OTRL#documentationDescription&#45;&gt;http://schema.org/Text -->
<g id="edge1" class="edge">
<title>http://purl.org/oseg/ontologies/OTRL#documentationDescription&#45;&gt;http://schema.org/Text</title>
<path fill="none" stroke="black" d="M798.63,-341C781.53,-286.22 726.41,-109.61 705.52,-42.68"/>
<polygon fill="black" stroke="black" points="708.79,-41.42 702.47,-32.92 702.11,-43.51 708.79,-41.42"/>
<text text-anchor="middle" x="731.07" y="-195.64" font-family="Times,serif" font-size="14.00">range</text>
</g>
<!-- http://purl.org/oseg/ontologies/OTRL#OTRL&#45;4 -->
<g id="node16" class="node">
<title>http://purl.org/oseg/ontologies/OTRL#OTRL&#45;4</title>
<ellipse fill="none" stroke="#e377c2" cx="625.11" cy="-778.29" rx="49.49" ry="16.03"/>
<text text-anchor="middle" x="625.11" y="-774.59" font-family="Times,serif" font-size="14.00">OTRL&#45;4</text>
</g>
<!-- http://purl.org/oseg/ontologies/OTRL#OTRL&#45;4&#45;&gt;http://purl.org/oseg/ontologies/OTRL#OTRL -->
<g id="edge35" class="edge">
<title>http://purl.org/oseg/ontologies/OTRL#OTRL&#45;4&#45;&gt;http://purl.org/oseg/ontologies/OTRL#OTRL</title>
<path fill="none" stroke="black" d="M613.49,-762.33C589.48,-729.38 534.3,-653.64 506.07,-614.9"/>
<polygon fill="black" stroke="black" points="508.87,-612.8 500.15,-606.78 503.21,-616.92 508.87,-612.8"/>
</g>
<!-- http://purl.org/oseg/ontologies/OTRL#OTRL&#45;4&#45;&gt;http://www.w3.org/2002/07/owl#class -->
<g id="edge14" class="edge">
<title>http://purl.org/oseg/ontologies/OTRL#OTRL&#45;4&#45;&gt;http://www.w3.org/2002/07/owl#class</title>
<path fill="none" stroke="black" d="M593.24,-790.74C540.61,-811.29 435.48,-852.34 376.03,-875.55"/>
<polygon fill="black" stroke="black" points="374.58,-872.35 366.54,-879.25 377.13,-878.88 374.58,-872.35"/>
<text text-anchor="middle" x="480.13" y="-821.94" font-family="Times,serif" font-size="14.00">a</text>
</g>
<!-- http://purl.org/oseg/ontologies/OTRL#ODRL&#45;1 -->
<g id="node17" class="node">
<title>http://purl.org/oseg/ontologies/OTRL#ODRL&#45;1</title>
<ellipse fill="none" stroke="#e377c2" cx="437.05" cy="-1154.81" rx="50.82" ry="16.03"/>
<text text-anchor="middle" x="437.05" y="-1151.11" font-family="Times,serif" font-size="14.00">ODRL&#45;1</text>
</g>
<!-- http://purl.org/oseg/ontologies/OTRL#ODRL&#45;1&#45;&gt;http://purl.org/oseg/ontologies/OTRL#ODRL -->
<g id="edge46" class="edge">
<title>http://purl.org/oseg/ontologies/OTRL#ODRL&#45;1&#45;&gt;http://purl.org/oseg/ontologies/OTRL#ODRL</title>
<path fill="none" stroke="black" d="M397.85,-1144.36C361.11,-1134.56 306.26,-1119.93 267.88,-1109.69"/>
<polygon fill="black" stroke="black" points="268.57,-1106.25 258.01,-1107.06 266.77,-1113.02 268.57,-1106.25"/>
</g>
<!-- http://purl.org/oseg/ontologies/OTRL#ODRL&#45;1&#45;&gt;http://www.w3.org/2002/07/owl#class -->
<g id="edge34" class="edge">
<title>http://purl.org/oseg/ontologies/OTRL#ODRL&#45;1&#45;&gt;http://www.w3.org/2002/07/owl#class</title>
<path fill="none" stroke="black" d="M430.51,-1138.41C412.86,-1094.16 364.18,-972.11 342.77,-918.45"/>
<polygon fill="black" stroke="black" points="345.95,-916.95 338.99,-908.96 339.44,-919.55 345.95,-916.95"/>
<text text-anchor="middle" x="382.14" y="-1032.23" font-family="Times,serif" font-size="14.00">a</text>
</g>
<!-- http://purl.org/oseg/ontologies/OTRL#OTRL&#45;5 -->
<g id="node18" class="node">
<title>http://purl.org/oseg/ontologies/OTRL#OTRL&#45;5</title>
<ellipse fill="none" stroke="#e377c2" cx="271.98" cy="-708.9" rx="49.49" ry="16.03"/>
<text text-anchor="middle" x="271.98" y="-705.2" font-family="Times,serif" font-size="14.00">OTRL&#45;5</text>
</g>
<!-- http://purl.org/oseg/ontologies/OTRL#OTRL&#45;5&#45;&gt;http://purl.org/oseg/ontologies/OTRL#OTRL -->
<g id="edge8" class="edge">
<title>http://purl.org/oseg/ontologies/OTRL#OTRL&#45;5&#45;&gt;http://purl.org/oseg/ontologies/OTRL#OTRL</title>
<path fill="none" stroke="black" d="M297.7,-694.93C337.09,-673.53 412.34,-632.64 455.72,-609.07"/>
<polygon fill="black" stroke="black" points="457.61,-612.03 464.72,-604.18 454.26,-605.88 457.61,-612.03"/>
</g>
<!-- http://purl.org/oseg/ontologies/OTRL#OTRL&#45;5&#45;&gt;http://www.w3.org/2002/07/owl#class -->
<g id="edge38" class="edge">
<title>http://purl.org/oseg/ontologies/OTRL#OTRL&#45;5&#45;&gt;http://www.w3.org/2002/07/owl#class</title>
<path fill="none" stroke="black" d="M277.35,-725.2C287.84,-757.06 311.14,-827.83 323.82,-866.35"/>
<polygon fill="black" stroke="black" points="320.64,-867.9 327.09,-876.3 327.29,-865.71 320.64,-867.9"/>
<text text-anchor="middle" x="296.08" y="-799.58" font-family="Times,serif" font-size="14.00">a</text>
</g>
<!-- http://purl.org/oseg/ontologies/OTRL#OTRL&#45;2 -->
<g id="node19" class="node">
<title>http://purl.org/oseg/ontologies/OTRL#OTRL&#45;2</title>
<ellipse fill="none" stroke="#e377c2" cx="413.03" cy="-739.37" rx="49.49" ry="16.03"/>
<text text-anchor="middle" x="413.03" y="-735.67" font-family="Times,serif" font-size="14.00">OTRL&#45;2</text>
</g>
<!-- http://purl.org/oseg/ontologies/OTRL#OTRL&#45;2&#45;&gt;http://purl.org/oseg/ontologies/OTRL#OTRL -->
<g id="edge9" class="edge">
<title>http://purl.org/oseg/ontologies/OTRL#OTRL&#45;2&#45;&gt;http://purl.org/oseg/ontologies/OTRL#OTRL</title>
<path fill="none" stroke="black" d="M421.28,-723.22C434.42,-697.49 460.22,-646.98 475.83,-616.42"/>
<polygon fill="black" stroke="black" points="479.08,-617.75 480.51,-607.25 472.84,-614.57 479.08,-617.75"/>
</g>
<!-- http://purl.org/oseg/ontologies/OTRL#OTRL&#45;2&#45;&gt;http://www.w3.org/2002/07/owl#class -->
<g id="edge39" class="edge">
<title>http://purl.org/oseg/ontologies/OTRL#OTRL&#45;2&#45;&gt;http://www.w3.org/2002/07/owl#class</title>
<path fill="none" stroke="black" d="M404.56,-755.47C390.57,-782.07 362.53,-835.37 345.84,-867.11"/>
<polygon fill="black" stroke="black" points="342.61,-865.73 341.05,-876.21 348.8,-868.99 342.61,-865.73"/>
<text text-anchor="middle" x="370.7" y="-815.09" font-family="Times,serif" font-size="14.00">a</text>
</g>
<!-- http://purl.org/oseg/ontologies/OTRL#ODRL&#45;5 -->
<g id="node20" class="node">
<title>http://purl.org/oseg/ontologies/OTRL#ODRL&#45;5</title>
<ellipse fill="none" stroke="#e377c2" cx="361.02" cy="-1214.02" rx="50.82" ry="16.03"/>
<text text-anchor="middle" x="361.02" y="-1210.32" font-family="Times,serif" font-size="14.00">ODRL&#45;5</text>
</g>
<!-- http://purl.org/oseg/ontologies/OTRL#ODRL&#45;5&#45;&gt;http://purl.org/oseg/ontologies/OTRL#ODRL -->
<g id="edge13" class="edge">
<title>http://purl.org/oseg/ontologies/OTRL#ODRL&#45;5&#45;&gt;http://purl.org/oseg/ontologies/OTRL#ODRL</title>
<path fill="none" stroke="black" d="M342.73,-1198.59C318.73,-1178.33 276.45,-1142.65 249.17,-1119.63"/>
<polygon fill="black" stroke="black" points="251.12,-1116.7 241.22,-1112.93 246.61,-1122.05 251.12,-1116.7"/>
</g>
<!-- http://purl.org/oseg/ontologies/OTRL#ODRL&#45;5&#45;&gt;http://www.w3.org/2002/07/owl#class -->
<g id="edge16" class="edge">
<title>http://purl.org/oseg/ontologies/OTRL#ODRL&#45;5&#45;&gt;http://www.w3.org/2002/07/owl#class</title>
<path fill="none" stroke="black" d="M359.57,-1197.64C354.93,-1145.51 340.5,-983.16 334.8,-919.02"/>
<polygon fill="black" stroke="black" points="338.27,-918.56 333.9,-908.91 331.3,-919.18 338.27,-918.56"/>
<text text-anchor="middle" x="342.68" y="-1062.13" font-family="Times,serif" font-size="14.00">a</text>
</g>
<!-- http://purl.org/oseg/ontologies/OTRL#exitCriteria -->
<g id="node21" class="node">
<title>http://purl.org/oseg/ontologies/OTRL#exitCriteria</title>
<ellipse fill="none" stroke="#e377c2" cx="592.06" cy="-263.91" rx="70.01" ry="16.03"/>
<text text-anchor="middle" x="592.06" y="-260.21" font-family="Times,serif" font-size="14.00">exitCriteria</text>
</g>
<!-- http://purl.org/oseg/ontologies/OTRL#exitCriteria&#45;&gt;http://purl.org/oseg/ontologies/OTRL#OTRL -->
<g id="edge42" class="edge">
<title>http://purl.org/oseg/ontologies/OTRL#exitCriteria&#45;&gt;http://purl.org/oseg/ontologies/OTRL#OTRL</title>
<path fill="none" stroke="black" d="M586.94,-280.14C570.27,-332.91 517.52,-499.99 497.01,-564.94"/>
<polygon fill="black" stroke="black" points="493.57,-564.21 493.9,-574.8 500.25,-566.32 493.57,-564.21"/>
<text text-anchor="middle" x="515.48" y="-426.34" font-family="Times,serif" font-size="14.00">domain</text>
</g>
<!-- http://purl.org/oseg/ontologies/OTRL#exitCriteria&#45;&gt;http://www.w3.org/2002/07/owl#DatatypeProperty -->
<g id="edge41" class="edge">
<title>http://purl.org/oseg/ontologies/OTRL#exitCriteria&#45;&gt;http://www.w3.org/2002/07/owl#DatatypeProperty</title>
<path fill="none" stroke="black" d="M615.25,-248.47C669.6,-212.29 805.31,-121.94 867.97,-80.22"/>
<polygon fill="black" stroke="black" points="869.93,-83.12 876.31,-74.67 866.05,-77.29 869.93,-83.12"/>
<text text-anchor="middle" x="737.11" y="-168.14" font-family="Times,serif" font-size="14.00">a</text>
</g>
<!-- http://purl.org/oseg/ontologies/OTRL#exitCriteria&#45;&gt;http://schema.org/Text -->
<g id="edge7" class="edge">
<title>http://purl.org/oseg/ontologies/OTRL#exitCriteria&#45;&gt;http://schema.org/Text</title>
<path fill="none" stroke="black" d="M598.97,-247.69C616.86,-205.68 664.81,-93.13 686.49,-42.25"/>
<polygon fill="black" stroke="black" points="689.75,-43.5 690.45,-32.93 683.31,-40.76 689.75,-43.5"/>
<text text-anchor="middle" x="621.73" y="-148.77" font-family="Times,serif" font-size="14.00">range</text>
</g>
<!-- http://purl.org/oseg/ontologies/OTRL#OTRL&#45;1 -->
<g id="node22" class="node">
<title>http://purl.org/oseg/ontologies/OTRL#OTRL&#45;1</title>
<ellipse fill="none" stroke="#e377c2" cx="619.98" cy="-855.53" rx="49.49" ry="16.03"/>
<text text-anchor="middle" x="619.98" y="-851.83" font-family="Times,serif" font-size="14.00">OTRL&#45;1</text>
</g>
<!-- http://purl.org/oseg/ontologies/OTRL#OTRL&#45;1&#45;&gt;http://purl.org/oseg/ontologies/OTRL#OTRL -->
<g id="edge29" class="edge">
<title>http://purl.org/oseg/ontologies/OTRL#OTRL&#45;1&#45;&gt;http://purl.org/oseg/ontologies/OTRL#OTRL</title>
<path fill="none" stroke="black" d="M611.97,-839.39C589.91,-794.95 528.17,-670.55 501.39,-616.61"/>
<polygon fill="black" stroke="black" points="504.4,-614.79 496.82,-607.39 498.13,-617.91 504.4,-614.79"/>
</g>
<!-- http://purl.org/oseg/ontologies/OTRL#OTRL&#45;1&#45;&gt;http://www.w3.org/2002/07/owl#class -->
<g id="edge17" class="edge">
<title>http://purl.org/oseg/ontologies/OTRL#OTRL&#45;1&#45;&gt;http://www.w3.org/2002/07/owl#class</title>
<path fill="none" stroke="black" d="M573.78,-861.48C525.31,-867.72 448.83,-877.57 394.98,-884.51"/>
<polygon fill="black" stroke="black" points="394.34,-881.06 384.87,-885.81 395.23,-888.01 394.34,-881.06"/>
<text text-anchor="middle" x="479.88" y="-876.8" font-family="Times,serif" font-size="14.00">a</text>
</g>
<!-- http://purl.org/oseg/ontologies/OTRL#hardwareDescription -->
<g id="node23" class="node">
<title>http://purl.org/oseg/ontologies/OTRL#hardwareDescription</title>
<ellipse fill="none" stroke="#e377c2" cx="724.16" cy="-304.55" rx="118.17" ry="16.03"/>
<text text-anchor="middle" x="724.16" y="-300.85" font-family="Times,serif" font-size="14.00">hardwareDescription</text>
</g>
<!-- http://purl.org/oseg/ontologies/OTRL#hardwareDescription&#45;&gt;http://purl.org/oseg/ontologies/OTRL#OTRL -->
<g id="edge10" class="edge">
<title>http://purl.org/oseg/ontologies/OTRL#hardwareDescription&#45;&gt;http://purl.org/oseg/ontologies/OTRL#OTRL</title>
<path fill="none" stroke="black" d="M710.83,-320.77C671.32,-368.87 554.75,-510.78 508.23,-567.41"/>
<polygon fill="black" stroke="black" points="505.29,-565.48 501.64,-575.43 510.69,-569.92 505.29,-565.48"/>
<text text-anchor="middle" x="583.03" y="-447.89" font-family="Times,serif" font-size="14.00">domain</text>
</g>
<!-- http://purl.org/oseg/ontologies/OTRL#hardwareDescription&#45;&gt;http://www.w3.org/2002/07/owl#DatatypeProperty -->
<g id="edge18" class="edge">
<title>http://purl.org/oseg/ontologies/OTRL#hardwareDescription&#45;&gt;http://www.w3.org/2002/07/owl#DatatypeProperty</title>
<path fill="none" stroke="black" d="M736.01,-288.02C766.34,-245.73 846.89,-133.42 882.85,-83.27"/>
<polygon fill="black" stroke="black" points="885.84,-85.1 888.83,-74.93 880.15,-81.02 885.84,-85.1"/>
<text text-anchor="middle" x="804.93" y="-189.44" font-family="Times,serif" font-size="14.00">a</text>
</g>
<!-- http://purl.org/oseg/ontologies/OTRL#hardwareDescription&#45;&gt;http://schema.org/Text -->
<g id="edge26" class="edge">
<title>http://purl.org/oseg/ontologies/OTRL#hardwareDescription&#45;&gt;http://schema.org/Text</title>
<path fill="none" stroke="black" d="M722.64,-288.24C718.23,-240.75 705.34,-102.17 699.88,-43.44"/>
<polygon fill="black" stroke="black" points="703.33,-42.76 698.92,-33.13 696.36,-43.41 703.33,-42.76"/>
<text text-anchor="middle" x="690.26" y="-169.64" font-family="Times,serif" font-size="14.00">range</text>
</g>
<!-- http://purl.org/oseg/ontologies/OTRL#softwareDescription -->
<g id="node24" class="node">
<title>http://purl.org/oseg/ontologies/OTRL#softwareDescription</title>
<ellipse fill="none" stroke="#e377c2" cx="519.96" cy="-198.58" rx="113.69" ry="16.03"/>
<text text-anchor="middle" x="519.96" y="-194.88" font-family="Times,serif" font-size="14.00">softwareDescription</text>
</g>
<!-- http://purl.org/oseg/ontologies/OTRL#softwareDescription&#45;&gt;http://purl.org/oseg/ontologies/OTRL#OTRL -->
<g id="edge21" class="edge">
<title>http://purl.org/oseg/ontologies/OTRL#softwareDescription&#45;&gt;http://purl.org/oseg/ontologies/OTRL#OTRL</title>
<path fill="none" stroke="black" d="M518.66,-214.95C513.82,-275.8 496.84,-489.35 490.85,-564.62"/>
<polygon fill="black" stroke="black" points="487.36,-564.44 490.05,-574.69 494.34,-565 487.36,-564.44"/>
<text text-anchor="middle" x="478.26" y="-393.59" font-family="Times,serif" font-size="14.00">domain</text>
</g>
<!-- http://purl.org/oseg/ontologies/OTRL#softwareDescription&#45;&gt;http://www.w3.org/2002/07/owl#DatatypeProperty -->
<g id="edge19" class="edge">
<title>http://purl.org/oseg/ontologies/OTRL#softwareDescription&#45;&gt;http://www.w3.org/2002/07/owl#DatatypeProperty</title>
<path fill="none" stroke="black" d="M561.43,-183.32C631.55,-157.51 773.37,-105.32 849.53,-77.29"/>
<polygon fill="black" stroke="black" points="850.75,-80.57 858.93,-73.83 848.33,-74 850.75,-80.57"/>
<text text-anchor="middle" x="700.98" y="-134.11" font-family="Times,serif" font-size="14.00">a</text>
</g>
<!-- http://purl.org/oseg/ontologies/OTRL#softwareDescription&#45;&gt;http://schema.org/Text -->
<g id="edge27" class="edge">
<title>http://purl.org/oseg/ontologies/OTRL#softwareDescription&#45;&gt;http://schema.org/Text</title>
<path fill="none" stroke="black" d="M535.71,-182.44C567.14,-150.21 637.79,-77.76 674.41,-40.21"/>
<polygon fill="black" stroke="black" points="677.2,-42.36 681.68,-32.76 672.19,-37.47 677.2,-42.36"/>
<text text-anchor="middle" x="584.06" y="-115.13" font-family="Times,serif" font-size="14.00">range</text>
</g>
<!-- http://purl.org/oseg/ontologies/OTRL#OTRL&#45;8 -->
<g id="node25" class="node">
<title>http://purl.org/oseg/ontologies/OTRL#OTRL&#45;8</title>
<ellipse fill="none" stroke="#e377c2" cx="248.57" cy="-579.62" rx="49.49" ry="16.03"/>
<text text-anchor="middle" x="248.57" y="-575.92" font-family="Times,serif" font-size="14.00">OTRL&#45;8</text>
</g>
<!-- http://purl.org/oseg/ontologies/OTRL#OTRL&#45;8&#45;&gt;http://purl.org/oseg/ontologies/OTRL#OTRL -->
<g id="edge43" class="edge">
<title>http://purl.org/oseg/ontologies/OTRL#OTRL&#45;8&#45;&gt;http://purl.org/oseg/ontologies/OTRL#OTRL</title>
<path fill="none" stroke="black" d="M297.76,-581.98C339,-583.95 397.63,-586.76 439.02,-588.74"/>
<polygon fill="black" stroke="black" points="439,-592.25 449.16,-589.23 439.34,-585.26 439,-592.25"/>
</g>
<!-- http://purl.org/oseg/ontologies/OTRL#OTRL&#45;8&#45;&gt;http://www.w3.org/2002/07/owl#class -->
<g id="edge20" class="edge">
<title>http://purl.org/oseg/ontologies/OTRL#OTRL&#45;8&#45;&gt;http://www.w3.org/2002/07/owl#class</title>
<path fill="none" stroke="black" d="M252.97,-596.01C266.67,-647.13 308.71,-804 325.46,-866.48"/>
<polygon fill="black" stroke="black" points="322.13,-867.59 328.1,-876.34 328.89,-865.78 322.13,-867.59"/>
<text text-anchor="middle" x="284.71" y="-735.04" font-family="Times,serif" font-size="14.00">a</text>
</g>
<!-- http://purl.org/oseg/ontologies/OTRL#OTRL&#45;7 -->
<g id="node26" class="node">
<title>http://purl.org/oseg/ontologies/OTRL#OTRL&#45;7</title>
<ellipse fill="none" stroke="#e377c2" cx="507.98" cy="-845.55" rx="49.49" ry="16.03"/>
<text text-anchor="middle" x="507.98" y="-841.85" font-family="Times,serif" font-size="14.00">OTRL&#45;7</text>
</g>
<!-- http://purl.org/oseg/ontologies/OTRL#OTRL&#45;7&#45;&gt;http://purl.org/oseg/ontologies/OTRL#OTRL -->
<g id="edge28" class="edge">
<title>http://purl.org/oseg/ontologies/OTRL#OTRL&#45;7&#45;&gt;http://purl.org/oseg/ontologies/OTRL#OTRL</title>
<path fill="none" stroke="black" d="M506.74,-829.25C503.51,-786.45 494.75,-670.56 490.77,-617.86"/>
<polygon fill="black" stroke="black" points="494.24,-617.33 489.99,-607.62 487.26,-617.86 494.24,-617.33"/>
</g>
<!-- http://purl.org/oseg/ontologies/OTRL#OTRL&#45;7&#45;&gt;http://www.w3.org/2002/07/owl#class -->
<g id="edge44" class="edge">
<title>http://purl.org/oseg/ontologies/OTRL#OTRL&#45;7&#45;&gt;http://www.w3.org/2002/07/owl#class</title>
<path fill="none" stroke="black" d="M469.46,-855.87C444.38,-862.59 411.37,-871.43 384.04,-878.75"/>
<polygon fill="black" stroke="black" points="383.01,-875.4 374.25,-881.37 384.82,-882.16 383.01,-875.4"/>
<text text-anchor="middle" x="422.25" y="-871.11" font-family="Times,serif" font-size="14.00">a</text>
</g>
</g>
</svg>
