<?xml version="1.0" encoding="UTF-8" standalone="no"?>
<!DOCTYPE svg PUBLIC "-//W3C//DTD SVG 1.1//EN"
 "http://www.w3.org/Graphics/SVG/1.1/DTD/svg11.dtd">
<!-- Generated by graphviz version 2.43.0 (0)
 -->
<!-- Title: G Pages: 1 -->
<svg width="783pt" height="425pt"
 viewBox="0.00 0.00 782.76 425.00" xmlns="http://www.w3.org/2000/svg" xmlns:xlink="http://www.w3.org/1999/xlink">
<g id="graph0" class="graph" transform="scale(1 1) rotate(0) translate(4 421)">
<title>G</title>
<polygon fill="white" stroke="transparent" points="-4,4 -4,-421 778.76,-421 778.76,4 -4,4"/>
<!-- http://www.w3.org/2002/07/owl#Ontology -->
<g id="node1" class="node">
<title>http://www.w3.org/2002/07/owl#Ontology</title>
<ellipse fill="none" stroke="#1f77b4" cx="445.32" cy="-38.47" rx="77.56" ry="16.03"/>
<text text-anchor="middle" x="445.32" y="-34.77" font-family="Times,serif" font-size="14.00">owl:Ontology</text>
</g>
<!-- http://purl.org/oseg/ontologies/OTRL#ODRL -->
<g id="node2" class="node">
<title>http://purl.org/oseg/ontologies/OTRL#ODRL</title>
<ellipse fill="none" stroke="#e377c2" cx="105.2" cy="-270.14" rx="41.94" ry="16.03"/>
<text text-anchor="middle" x="105.2" y="-266.44" font-family="Times,serif" font-size="14.00">ODRL</text>
</g>
<!-- http://purl.org/oseg/ontologies/OTRL#OTRL -->
<g id="node3" class="node">
<title>http://purl.org/oseg/ontologies/OTRL#OTRL</title>
<ellipse fill="none" stroke="#e377c2" cx="371.29" cy="-144.25" rx="39.7" ry="16.03"/>
<text text-anchor="middle" x="371.29" y="-140.55" font-family="Times,serif" font-size="14.00">OTRL</text>
</g>
<!-- http://www.w3.org/2002/07/owl#class -->
<g id="node5" class="node">
<title>http://www.w3.org/2002/07/owl#class</title>
<ellipse fill="none" stroke="#1f77b4" cx="237.09" cy="-185.83" rx="57.05" ry="16.03"/>
<text text-anchor="middle" x="237.09" y="-182.13" font-family="Times,serif" font-size="14.00">owl:class</text>
</g>
<!-- http://purl.org/oseg/ontologies/OTRL#OTRL&#45;&gt;http://www.w3.org/2002/07/owl#class -->
<g id="edge22" class="edge">
<title>http://purl.org/oseg/ontologies/OTRL#OTRL&#45;&gt;http://www.w3.org/2002/07/owl#class</title>
<path fill="none" stroke="black" d="M339.49,-154.1C323.4,-159.09 303.53,-165.25 285.58,-170.81"/>
<polygon fill="black" stroke="black" points="284.36,-167.52 275.85,-173.82 286.44,-174.21 284.36,-167.52"/>
<text text-anchor="middle" x="308.03" y="-166.25" font-family="Times,serif" font-size="14.00">a</text>
</g>
<!-- http://www.w3.org/2002/07/owl#DatatypeProperty -->
<g id="node4" class="node">
<title>http://www.w3.org/2002/07/owl#DatatypeProperty</title>
<ellipse fill="none" stroke="#1f77b4" cx="468.48" cy="-355.55" rx="123.07" ry="16.03"/>
<text text-anchor="middle" x="468.48" y="-351.85" font-family="Times,serif" font-size="14.00">owl:DatatypeProperty</text>
</g>
<!-- http://purl.org/oseg/ontologies/OTRL -->
<g id="node6" class="node">
<title>http://purl.org/oseg/ontologies/OTRL</title>
<ellipse fill="none" stroke="#e377c2" cx="592.95" cy="-16.42" rx="60.62" ry="16.03"/>
<text text-anchor="middle" x="592.95" y="-12.72" font-family="Times,serif" font-size="14.00">ns1:OTRL</text>
</g>
<!-- http://purl.org/oseg/ontologies/OTRL&#45;&gt;http://www.w3.org/2002/07/owl#Ontology -->
<g id="edge23" class="edge">
<title>http://purl.org/oseg/ontologies/OTRL&#45;&gt;http://www.w3.org/2002/07/owl#Ontology</title>
<path fill="none" stroke="black" d="M539.65,-24.38C532.94,-25.38 525.98,-26.42 519.02,-27.46"/>
<polygon fill="black" stroke="black" points="518.22,-24.04 508.85,-28.98 519.26,-30.96 518.22,-24.04"/>
<text text-anchor="middle" x="527.08" y="-14.72" font-family="Times,serif" font-size="14.00">a</text>
</g>
<!-- http://purl.org/oseg/ontologies/OTRL&#45;&gt;http://purl.org/oseg/ontologies/OTRL -->
<g id="edge1" class="edge">
<title>http://purl.org/oseg/ontologies/OTRL&#45;&gt;http://purl.org/oseg/ontologies/OTRL</title>
<path fill="none" stroke="black" d="M648.55,-23.05C661.89,-22.53 671.76,-20.32 671.76,-16.42 671.76,-13.58 666.55,-11.64 658.58,-10.59"/>
<polygon fill="black" stroke="black" points="658.8,-7.1 648.55,-9.78 658.24,-14.07 658.8,-7.1"/>
<text text-anchor="middle" x="723.26" y="-12.72" font-family="Times,serif" font-size="14.00">owl:versionIRI</text>
</g>
<!-- http://purl.org/oseg/ontologies/OTRL#Odrl3Star -->
<g id="node7" class="node">
<title>http://purl.org/oseg/ontologies/OTRL#Odrl3Star</title>
<ellipse fill="none" stroke="#e377c2" cx="62.32" cy="-126.54" rx="62.45" ry="16.03"/>
<text text-anchor="middle" x="62.32" y="-122.84" font-family="Times,serif" font-size="14.00">Odrl3Star</text>
</g>
<!-- http://purl.org/oseg/ontologies/OTRL#Odrl3Star&#45;&gt;http://purl.org/oseg/ontologies/OTRL#ODRL -->
<g id="edge8" class="edge">
<title>http://purl.org/oseg/ontologies/OTRL#Odrl3Star&#45;&gt;http://purl.org/oseg/ontologies/OTRL#ODRL</title>
<path fill="none" stroke="black" d="M67.24,-143.01C74.64,-167.79 88.7,-214.88 97.48,-244.27"/>
<polygon fill="black" stroke="black" points="94.13,-245.28 100.34,-253.86 100.83,-243.28 94.13,-245.28"/>
</g>
<!-- http://purl.org/oseg/ontologies/OTRL#Odrl3Star&#45;&gt;http://www.w3.org/2002/07/owl#class -->
<g id="edge2" class="edge">
<title>http://purl.org/oseg/ontologies/OTRL#Odrl3Star&#45;&gt;http://www.w3.org/2002/07/owl#class</title>
<path fill="none" stroke="black" d="M100.67,-139.55C127.19,-148.55 162.61,-160.56 190.72,-170.1"/>
<polygon fill="black" stroke="black" points="189.73,-173.46 200.32,-173.36 191.98,-166.83 189.73,-173.46"/>
<text text-anchor="middle" x="141.2" y="-158.62" font-family="Times,serif" font-size="14.00">a</text>
</g>
<!-- http://purl.org/oseg/ontologies/OTRL#Odrl3 -->
<g id="node8" class="node">
<title>http://purl.org/oseg/ontologies/OTRL#Odrl3</title>
<ellipse fill="none" stroke="#e377c2" cx="217.46" cy="-228.6" rx="40.11" ry="16.03"/>
<text text-anchor="middle" x="217.46" y="-224.9" font-family="Times,serif" font-size="14.00">Odrl3</text>
</g>
<!-- http://purl.org/oseg/ontologies/OTRL#Odrl3&#45;&gt;http://purl.org/oseg/ontologies/OTRL#ODRL -->
<g id="edge28" class="edge">
<title>http://purl.org/oseg/ontologies/OTRL#Odrl3&#45;&gt;http://purl.org/oseg/ontologies/OTRL#ODRL</title>
<path fill="none" stroke="black" d="M187.67,-239.62C174.59,-244.47 159.03,-250.22 144.97,-255.43"/>
<polygon fill="black" stroke="black" points="143.69,-252.17 135.52,-258.92 146.12,-258.73 143.69,-252.17"/>
</g>
<!-- http://purl.org/oseg/ontologies/OTRL#Odrl3&#45;&gt;http://www.w3.org/2002/07/owl#class -->
<g id="edge19" class="edge">
<title>http://purl.org/oseg/ontologies/OTRL#Odrl3&#45;&gt;http://www.w3.org/2002/07/owl#class</title>
<path fill="none" stroke="black" d="M225,-212.19C225.14,-211.88 225.28,-211.57 225.42,-211.26"/>
<polygon fill="black" stroke="black" points="228.62,-212.68 229.61,-202.13 222.26,-209.76 228.62,-212.68"/>
<text text-anchor="middle" x="220.71" y="-200.52" font-family="Times,serif" font-size="14.00">a</text>
</g>
<!-- http://purl.org/oseg/ontologies/OTRL#Odrl2 -->
<g id="node9" class="node">
<title>http://purl.org/oseg/ontologies/OTRL#Odrl2</title>
<ellipse fill="none" stroke="#e377c2" cx="134.87" cy="-321.83" rx="40.11" ry="16.03"/>
<text text-anchor="middle" x="134.87" y="-318.13" font-family="Times,serif" font-size="14.00">Odrl2</text>
</g>
<!-- http://purl.org/oseg/ontologies/OTRL#Odrl2&#45;&gt;http://purl.org/oseg/ontologies/OTRL#ODRL -->
<g id="edge17" class="edge">
<title>http://purl.org/oseg/ontologies/OTRL#Odrl2&#45;&gt;http://purl.org/oseg/ontologies/OTRL#ODRL</title>
<path fill="none" stroke="black" d="M125.65,-305.76C123.68,-302.32 121.55,-298.62 119.44,-294.94"/>
<polygon fill="black" stroke="black" points="122.34,-292.96 114.32,-286.03 116.26,-296.44 122.34,-292.96"/>
</g>
<!-- http://purl.org/oseg/ontologies/OTRL#Odrl2&#45;&gt;http://www.w3.org/2002/07/owl#class -->
<g id="edge20" class="edge">
<title>http://purl.org/oseg/ontologies/OTRL#Odrl2&#45;&gt;http://www.w3.org/2002/07/owl#class</title>
<path fill="none" stroke="black" d="M146.6,-306.23C164.28,-282.71 197.91,-237.96 218.82,-210.14"/>
<polygon fill="black" stroke="black" points="221.66,-212.19 224.87,-202.09 216.07,-207.98 221.66,-212.19"/>
<text text-anchor="middle" x="178.21" y="-261.99" font-family="Times,serif" font-size="14.00">a</text>
</g>
<!-- http://purl.org/oseg/ontologies/OTRL#Otrl1 -->
<g id="node10" class="node">
<title>http://purl.org/oseg/ontologies/OTRL#Otrl1</title>
<ellipse fill="none" stroke="#e377c2" cx="257.76" cy="-133.4" rx="38.37" ry="16.03"/>
<text text-anchor="middle" x="257.76" y="-129.7" font-family="Times,serif" font-size="14.00">Otrl1</text>
</g>
<!-- http://purl.org/oseg/ontologies/OTRL#Otrl1&#45;&gt;http://purl.org/oseg/ontologies/OTRL#OTRL -->
<g id="edge7" class="edge">
<title>http://purl.org/oseg/ontologies/OTRL#Otrl1&#45;&gt;http://purl.org/oseg/ontologies/OTRL#OTRL</title>
<path fill="none" stroke="black" d="M295.25,-136.98C303.98,-137.82 313.4,-138.72 322.53,-139.59"/>
<polygon fill="black" stroke="black" points="322.39,-143.09 332.67,-140.56 323.05,-136.12 322.39,-143.09"/>
</g>
<!-- http://purl.org/oseg/ontologies/OTRL#Otrl1&#45;&gt;http://www.w3.org/2002/07/owl#class -->
<g id="edge3" class="edge">
<title>http://purl.org/oseg/ontologies/OTRL#Otrl1&#45;&gt;http://www.w3.org/2002/07/owl#class</title>
<path fill="none" stroke="black" d="M251.34,-149.7C250.06,-152.93 248.7,-156.39 247.34,-159.84"/>
<polygon fill="black" stroke="black" points="244,-158.77 243.59,-169.36 250.51,-161.34 244,-158.77"/>
<text text-anchor="middle" x="244.84" y="-158.57" font-family="Times,serif" font-size="14.00">a</text>
</g>
<!-- http://purl.org/oseg/ontologies/OTRL#Otrl5 -->
<g id="node11" class="node">
<title>http://purl.org/oseg/ontologies/OTRL#Otrl5</title>
<ellipse fill="none" stroke="#e377c2" cx="365.38" cy="-92.88" rx="38.37" ry="16.03"/>
<text text-anchor="middle" x="365.38" y="-89.18" font-family="Times,serif" font-size="14.00">Otrl5</text>
</g>
<!-- http://purl.org/oseg/ontologies/OTRL#Otrl5&#45;&gt;http://purl.org/oseg/ontologies/OTRL#OTRL -->
<g id="edge6" class="edge">
<title>http://purl.org/oseg/ontologies/OTRL#Otrl5&#45;&gt;http://purl.org/oseg/ontologies/OTRL#OTRL</title>
<path fill="none" stroke="black" d="M367.25,-109.13C367.57,-111.94 367.92,-114.93 368.26,-117.92"/>
<polygon fill="black" stroke="black" points="364.79,-118.39 369.41,-127.92 371.75,-117.59 364.79,-118.39"/>
</g>
<!-- http://purl.org/oseg/ontologies/OTRL#Otrl5&#45;&gt;http://www.w3.org/2002/07/owl#class -->
<g id="edge5" class="edge">
<title>http://purl.org/oseg/ontologies/OTRL#Otrl5&#45;&gt;http://www.w3.org/2002/07/owl#class</title>
<path fill="none" stroke="black" d="M345.9,-106.99C324.71,-122.35 290.6,-147.06 266.22,-164.73"/>
<polygon fill="black" stroke="black" points="264.09,-161.95 258.04,-170.65 268.19,-167.62 264.09,-161.95"/>
<text text-anchor="middle" x="301.56" y="-139.66" font-family="Times,serif" font-size="14.00">a</text>
</g>
<!-- http://purl.org/oseg/ontologies/OTRL#Odrl -->
<g id="node12" class="node">
<title>http://purl.org/oseg/ontologies/OTRL#Odrl</title>
<ellipse fill="none" stroke="#e377c2" cx="165.57" cy="-45.62" rx="33.88" ry="16.03"/>
<text text-anchor="middle" x="165.57" y="-41.92" font-family="Times,serif" font-size="14.00">Odrl</text>
</g>
<!-- http://purl.org/oseg/ontologies/OTRL#Odrl&#45;&gt;http://www.w3.org/2002/07/owl#class -->
<g id="edge26" class="edge">
<title>http://purl.org/oseg/ontologies/OTRL#Odrl&#45;&gt;http://www.w3.org/2002/07/owl#class</title>
<path fill="none" stroke="black" d="M173.64,-61.43C185.91,-85.5 209.41,-131.55 224.11,-160.37"/>
<polygon fill="black" stroke="black" points="221.06,-162.11 228.73,-169.43 227.3,-158.93 221.06,-162.11"/>
<text text-anchor="middle" x="194.37" y="-114.7" font-family="Times,serif" font-size="14.00">a</text>
</g>
<!-- http://purl.org/oseg/ontologies/OTRL#Otrl -->
<g id="node13" class="node">
<title>http://purl.org/oseg/ontologies/OTRL#Otrl</title>
<ellipse fill="none" stroke="#e377c2" cx="78.24" cy="-62.64" rx="31.64" ry="16.03"/>
<text text-anchor="middle" x="78.24" y="-58.94" font-family="Times,serif" font-size="14.00">Otrl</text>
</g>
<!-- http://www.w3.org/1999/02/22&#45;rdf&#45;syntax&#45;ns#nil -->
<g id="node14" class="node">
<title>http://www.w3.org/1999/02/22&#45;rdf&#45;syntax&#45;ns#nil</title>
<ellipse fill="none" stroke="#e377c2" cx="134.24" cy="-384.64" rx="42.35" ry="16.03"/>
<text text-anchor="middle" x="134.24" y="-380.94" font-family="Times,serif" font-size="14.00">rdf:nil</text>
</g>
<!-- http://purl.org/oseg/ontologies/OTRL#exitCriteria -->
<g id="node15" class="node">
<title>http://purl.org/oseg/ontologies/OTRL#exitCriteria</title>
<ellipse fill="none" stroke="#e377c2" cx="549.53" cy="-314.6" rx="70.01" ry="16.03"/>
<text text-anchor="middle" x="549.53" y="-310.9" font-family="Times,serif" font-size="14.00">exitCriteria</text>
</g>
<!-- http://purl.org/oseg/ontologies/OTRL#exitCriteria&#45;&gt;http://www.w3.org/2002/07/owl#DatatypeProperty -->
<g id="edge9" class="edge">
<title>http://purl.org/oseg/ontologies/OTRL#exitCriteria&#45;&gt;http://www.w3.org/2002/07/owl#DatatypeProperty</title>
<path fill="none" stroke="black" d="M520.27,-329.38C516.55,-331.26 512.69,-333.21 508.83,-335.16"/>
<polygon fill="black" stroke="black" points="507.24,-332.05 499.89,-339.68 510.39,-338.29 507.24,-332.05"/>
<text text-anchor="middle" x="510.05" y="-336.07" font-family="Times,serif" font-size="14.00">a</text>
</g>
<!-- http://schema.org/Text -->
<g id="node18" class="node">
<title>http://schema.org/Text</title>
<ellipse fill="none" stroke="#e377c2" cx="533.4" cy="-269.28" rx="74.91" ry="16.03"/>
<text text-anchor="middle" x="533.4" y="-265.58" font-family="Times,serif" font-size="14.00">schema:Text</text>
</g>
<!-- http://purl.org/oseg/ontologies/OTRL#exitCriteria&#45;&gt;http://schema.org/Text -->
<g id="edge25" class="edge">
<title>http://purl.org/oseg/ontologies/OTRL#exitCriteria&#45;&gt;http://schema.org/Text</title>
<path fill="none" stroke="black" d="M543.71,-298.24C543.39,-297.35 543.07,-296.45 542.75,-295.54"/>
<polygon fill="black" stroke="black" points="545.92,-294.02 539.27,-285.77 539.32,-296.36 545.92,-294.02"/>
<text text-anchor="middle" x="522.23" y="-285.69" font-family="Times,serif" font-size="14.00">range</text>
</g>
<!-- http://purl.org/oseg/ontologies/OTRL#Otrl4 -->
<g id="node16" class="node">
<title>http://purl.org/oseg/ontologies/OTRL#Otrl4</title>
<ellipse fill="none" stroke="#e377c2" cx="299.49" cy="-38.92" rx="38.37" ry="16.03"/>
<text text-anchor="middle" x="299.49" y="-35.22" font-family="Times,serif" font-size="14.00">Otrl4</text>
</g>
<!-- http://purl.org/oseg/ontologies/OTRL#Otrl4&#45;&gt;http://purl.org/oseg/ontologies/OTRL#OTRL -->
<g id="edge4" class="edge">
<title>http://purl.org/oseg/ontologies/OTRL#Otrl4&#45;&gt;http://purl.org/oseg/ontologies/OTRL#OTRL</title>
<path fill="none" stroke="black" d="M310.4,-54.92C322.22,-72.27 341.22,-100.14 354.86,-120.14"/>
<polygon fill="black" stroke="black" points="351.99,-122.15 360.52,-128.45 357.78,-118.21 351.99,-122.15"/>
</g>
<!-- http://purl.org/oseg/ontologies/OTRL#Otrl4&#45;&gt;http://www.w3.org/2002/07/owl#class -->
<g id="edge10" class="edge">
<title>http://purl.org/oseg/ontologies/OTRL#Otrl4&#45;&gt;http://www.w3.org/2002/07/owl#class</title>
<path fill="none" stroke="black" d="M292.57,-55.21C281.8,-80.58 260.91,-129.76 248.06,-160.01"/>
<polygon fill="black" stroke="black" points="244.73,-158.9 244.04,-169.48 251.17,-161.64 244.73,-158.9"/>
<text text-anchor="middle" x="265.82" y="-96.41" font-family="Times,serif" font-size="14.00">a</text>
</g>
<!-- http://purl.org/oseg/ontologies/OTRL#Otrl2 -->
<g id="node17" class="node">
<title>http://purl.org/oseg/ontologies/OTRL#Otrl2</title>
<ellipse fill="none" stroke="#e377c2" cx="371.92" cy="-270.53" rx="38.37" ry="16.03"/>
<text text-anchor="middle" x="371.92" y="-266.83" font-family="Times,serif" font-size="14.00">Otrl2</text>
</g>
<!-- http://purl.org/oseg/ontologies/OTRL#Otrl2&#45;&gt;http://purl.org/oseg/ontologies/OTRL#OTRL -->
<g id="edge16" class="edge">
<title>http://purl.org/oseg/ontologies/OTRL#Otrl2&#45;&gt;http://purl.org/oseg/ontologies/OTRL#OTRL</title>
<path fill="none" stroke="black" d="M371.84,-254.02C371.73,-232.94 371.55,-196.19 371.42,-171.06"/>
<polygon fill="black" stroke="black" points="374.92,-170.74 371.37,-160.76 367.92,-170.78 374.92,-170.74"/>
</g>
<!-- http://purl.org/oseg/ontologies/OTRL#Otrl2&#45;&gt;http://www.w3.org/2002/07/owl#class -->
<g id="edge11" class="edge">
<title>http://purl.org/oseg/ontologies/OTRL#Otrl2&#45;&gt;http://www.w3.org/2002/07/owl#class</title>
<path fill="none" stroke="black" d="M350.26,-256.92C328.51,-243.26 294.74,-222.05 269.75,-206.34"/>
<polygon fill="black" stroke="black" points="271.3,-203.19 260.97,-200.83 267.58,-209.12 271.3,-203.19"/>
<text text-anchor="middle" x="305.5" y="-235.43" font-family="Times,serif" font-size="14.00">a</text>
</g>
<!-- http://purl.org/oseg/ontologies/OTRL#Odrl4 -->
<g id="node19" class="node">
<title>http://purl.org/oseg/ontologies/OTRL#Odrl4</title>
<ellipse fill="none" stroke="#e377c2" cx="84.46" cy="-223.32" rx="40.11" ry="16.03"/>
<text text-anchor="middle" x="84.46" y="-219.62" font-family="Times,serif" font-size="14.00">Odrl4</text>
</g>
<!-- http://purl.org/oseg/ontologies/OTRL#Odrl4&#45;&gt;http://purl.org/oseg/ontologies/OTRL#ODRL -->
<g id="edge18" class="edge">
<title>http://purl.org/oseg/ontologies/OTRL#Odrl4&#45;&gt;http://purl.org/oseg/ontologies/OTRL#ODRL</title>
<path fill="none" stroke="black" d="M91.6,-239.43C92.31,-241.03 93.04,-242.69 93.78,-244.35"/>
<polygon fill="black" stroke="black" points="90.73,-246.11 97.98,-253.84 97.13,-243.28 90.73,-246.11"/>
</g>
<!-- http://purl.org/oseg/ontologies/OTRL#Odrl4&#45;&gt;http://www.w3.org/2002/07/owl#class -->
<g id="edge13" class="edge">
<title>http://purl.org/oseg/ontologies/OTRL#Odrl4&#45;&gt;http://www.w3.org/2002/07/owl#class</title>
<path fill="none" stroke="black" d="M119.1,-214.82C138.16,-210.13 162.22,-204.22 183.63,-198.96"/>
<polygon fill="black" stroke="black" points="184.7,-202.31 193.58,-196.52 183.03,-195.51 184.7,-202.31"/>
<text text-anchor="middle" x="146.87" y="-210.69" font-family="Times,serif" font-size="14.00">a</text>
</g>
<!-- http://purl.org/oseg/ontologies/OTRL#goal -->
<g id="node20" class="node">
<title>http://purl.org/oseg/ontologies/OTRL#goal</title>
<ellipse fill="none" stroke="#e377c2" cx="483.79" cy="-400.68" rx="33.47" ry="16.03"/>
<text text-anchor="middle" x="483.79" y="-396.98" font-family="Times,serif" font-size="14.00">goal</text>
</g>
<!-- http://purl.org/oseg/ontologies/OTRL#goal&#45;&gt;http://www.w3.org/2002/07/owl#DatatypeProperty -->
<g id="edge14" class="edge">
<title>http://purl.org/oseg/ontologies/OTRL#goal&#45;&gt;http://www.w3.org/2002/07/owl#DatatypeProperty</title>
<path fill="none" stroke="black" d="M478.26,-384.39C477.96,-383.5 477.66,-382.61 477.35,-381.7"/>
<polygon fill="black" stroke="black" points="480.58,-380.32 474.05,-371.97 473.95,-382.56 480.58,-380.32"/>
<text text-anchor="middle" x="473.3" y="-371.84" font-family="Times,serif" font-size="14.00">a</text>
</g>
<!-- http://purl.org/oseg/ontologies/OTRL#goal&#45;&gt;http://schema.org/Text -->
<g id="edge12" class="edge">
<title>http://purl.org/oseg/ontologies/OTRL#goal&#45;&gt;http://schema.org/Text</title>
<path fill="none" stroke="black" d="M489.87,-384.57C498.31,-362.21 513.67,-321.52 523.7,-294.95"/>
<polygon fill="black" stroke="black" points="527,-296.12 527.26,-285.52 520.46,-293.64 527,-296.12"/>
<text text-anchor="middle" x="485.79" y="-328.56" font-family="Times,serif" font-size="14.00">range</text>
</g>
<!-- http://purl.org/oseg/ontologies/OTRL#Otrl3 -->
<g id="node21" class="node">
<title>http://purl.org/oseg/ontologies/OTRL#Otrl3</title>
<ellipse fill="none" stroke="#e377c2" cx="394.98" cy="-192.71" rx="38.37" ry="16.03"/>
<text text-anchor="middle" x="394.98" y="-189.01" font-family="Times,serif" font-size="14.00">Otrl3</text>
</g>
<!-- http://purl.org/oseg/ontologies/OTRL#Otrl3&#45;&gt;http://purl.org/oseg/ontologies/OTRL#OTRL -->
<g id="edge27" class="edge">
<title>http://purl.org/oseg/ontologies/OTRL#Otrl3&#45;&gt;http://purl.org/oseg/ontologies/OTRL#OTRL</title>
<path fill="none" stroke="black" d="M387.09,-176.57C385.98,-174.31 384.82,-171.94 383.66,-169.55"/>
<polygon fill="black" stroke="black" points="386.76,-167.93 379.22,-160.48 380.47,-171 386.76,-167.93"/>
</g>
<!-- http://purl.org/oseg/ontologies/OTRL#Otrl3&#45;&gt;http://www.w3.org/2002/07/owl#class -->
<g id="edge24" class="edge">
<title>http://purl.org/oseg/ontologies/OTRL#Otrl3&#45;&gt;http://www.w3.org/2002/07/owl#class</title>
<path fill="none" stroke="black" d="M356.76,-191.04C340.89,-190.35 322,-189.53 303.98,-188.74"/>
<polygon fill="black" stroke="black" points="303.93,-185.24 293.78,-188.3 303.62,-192.23 303.93,-185.24"/>
<text text-anchor="middle" x="325.87" y="-193.69" font-family="Times,serif" font-size="14.00">a</text>
</g>
<!-- http://purl.org/oseg/ontologies/OTRL#Odrl1 -->
<g id="node22" class="node">
<title>http://purl.org/oseg/ontologies/OTRL#Odrl1</title>
<ellipse fill="none" stroke="#e377c2" cx="228.41" cy="-342.74" rx="40.11" ry="16.03"/>
<text text-anchor="middle" x="228.41" y="-339.04" font-family="Times,serif" font-size="14.00">Odrl1</text>
</g>
<!-- http://purl.org/oseg/ontologies/OTRL#Odrl1&#45;&gt;http://purl.org/oseg/ontologies/OTRL#ODRL -->
<g id="edge21" class="edge">
<title>http://purl.org/oseg/ontologies/OTRL#Odrl1&#45;&gt;http://purl.org/oseg/ontologies/OTRL#ODRL</title>
<path fill="none" stroke="black" d="M205.52,-329.26C186.28,-317.92 158.57,-301.59 137.14,-288.96"/>
<polygon fill="black" stroke="black" points="138.78,-285.86 128.38,-283.8 135.22,-291.89 138.78,-285.86"/>
</g>
<!-- http://purl.org/oseg/ontologies/OTRL#Odrl1&#45;&gt;http://www.w3.org/2002/07/owl#class -->
<g id="edge15" class="edge">
<title>http://purl.org/oseg/ontologies/OTRL#Odrl1&#45;&gt;http://www.w3.org/2002/07/owl#class</title>
<path fill="none" stroke="black" d="M229.32,-326.25C230.82,-299.1 233.83,-244.78 235.63,-212.24"/>
<polygon fill="black" stroke="black" points="239.13,-212.29 236.19,-202.11 232.15,-211.9 239.13,-212.29"/>
<text text-anchor="middle" x="227.98" y="-273.04" font-family="Times,serif" font-size="14.00">a</text>
</g>
</g>
</svg>
