<?xml version="1.0" encoding="UTF-8" standalone="no"?>
<!DOCTYPE svg PUBLIC "-//W3C//DTD SVG 1.1//EN"
 "http://www.w3.org/Graphics/SVG/1.1/DTD/svg11.dtd">
<!-- Generated by graphviz version 2.43.0 (0)
 -->
<!-- Title: G Pages: 1 -->
<svg width="847pt" height="443pt"
 viewBox="0.00 0.00 846.76 443.00" xmlns="http://www.w3.org/2000/svg" xmlns:xlink="http://www.w3.org/1999/xlink">
<g id="graph0" class="graph" transform="scale(1 1) rotate(0) translate(4 439)">
<title>G</title>
<polygon fill="white" stroke="transparent" points="-4,4 -4,-439 842.76,-439 842.76,4 -4,4"/>
<!-- http://purl.org/oseg/ontologies/OTRL#ODRL -->
<g id="node1" class="node">
<title>http://purl.org/oseg/ontologies/OTRL#ODRL</title>
<ellipse fill="none" stroke="#e377c2" cx="120.74" cy="-169.15" rx="41.94" ry="16.03"/>
<text text-anchor="middle" x="120.74" y="-165.45" font-family="Times,serif" font-size="14.00">ODRL</text>
</g>
<!-- http://purl.org/oseg/ontologies/OTRL#OTRL -->
<g id="node2" class="node">
<title>http://purl.org/oseg/ontologies/OTRL#OTRL</title>
<ellipse fill="none" stroke="#e377c2" cx="395.14" cy="-179.55" rx="39.7" ry="16.03"/>
<text text-anchor="middle" x="395.14" y="-175.85" font-family="Times,serif" font-size="14.00">OTRL</text>
</g>
<!-- http://www.w3.org/2002/07/owl#class -->
<g id="node3" class="node">
<title>http://www.w3.org/2002/07/owl#class</title>
<ellipse fill="none" stroke="#1f77b4" cx="266.59" cy="-187.55" rx="57.05" ry="16.03"/>
<text text-anchor="middle" x="266.59" y="-183.85" font-family="Times,serif" font-size="14.00">owl:class</text>
</g>
<!-- http://purl.org/oseg/ontologies/OTRL#OTRL&#45;&gt;http://www.w3.org/2002/07/owl#class -->
<g id="edge11" class="edge">
<title>http://purl.org/oseg/ontologies/OTRL#OTRL&#45;&gt;http://www.w3.org/2002/07/owl#class</title>
<path fill="none" stroke="black" d="M355.87,-181.99C348.5,-182.45 340.61,-182.94 332.68,-183.44"/>
<polygon fill="black" stroke="black" points="332.41,-179.95 322.65,-184.06 332.85,-186.93 332.41,-179.95"/>
<text text-anchor="middle" x="339.77" y="-186.52" font-family="Times,serif" font-size="14.00">a</text>
</g>
<!-- http://www.w3.org/2002/07/owl#DatatypeProperty -->
<g id="node4" class="node">
<title>http://www.w3.org/2002/07/owl#DatatypeProperty</title>
<ellipse fill="none" stroke="#1f77b4" cx="506.9" cy="-372.96" rx="123.07" ry="16.03"/>
<text text-anchor="middle" x="506.9" y="-369.26" font-family="Times,serif" font-size="14.00">owl:DatatypeProperty</text>
</g>
<!-- http://www.w3.org/2002/07/owl#Ontology -->
<g id="node5" class="node">
<title>http://www.w3.org/2002/07/owl#Ontology</title>
<ellipse fill="none" stroke="#1f77b4" cx="509.32" cy="-38.47" rx="77.56" ry="16.03"/>
<text text-anchor="middle" x="509.32" y="-34.77" font-family="Times,serif" font-size="14.00">owl:Ontology</text>
</g>
<!-- http://purl.org/oseg/ontologies/OTRL#Odrl -->
<g id="node6" class="node">
<title>http://purl.org/oseg/ontologies/OTRL#Odrl</title>
<ellipse fill="none" stroke="#e377c2" cx="123.36" cy="-282.58" rx="33.88" ry="16.03"/>
<text text-anchor="middle" x="123.36" y="-278.88" font-family="Times,serif" font-size="14.00">Odrl</text>
</g>
<!-- http://purl.org/oseg/ontologies/OTRL#Odrl&#45;&gt;http://www.w3.org/2002/07/owl#class -->
<g id="edge9" class="edge">
<title>http://purl.org/oseg/ontologies/OTRL#Odrl&#45;&gt;http://www.w3.org/2002/07/owl#class</title>
<path fill="none" stroke="black" d="M143.27,-269.37C167.13,-253.54 207.39,-226.83 235.39,-208.25"/>
<polygon fill="black" stroke="black" points="237.61,-210.98 244.01,-202.53 233.74,-205.14 237.61,-210.98"/>
<text text-anchor="middle" x="184.83" y="-242.61" font-family="Times,serif" font-size="14.00">a</text>
</g>
<!-- http://purl.org/oseg/ontologies/OTRL#Otrl2 -->
<g id="node7" class="node">
<title>http://purl.org/oseg/ontologies/OTRL#Otrl2</title>
<ellipse fill="none" stroke="#e377c2" cx="378.5" cy="-314.1" rx="38.37" ry="16.03"/>
<text text-anchor="middle" x="378.5" y="-310.4" font-family="Times,serif" font-size="14.00">Otrl2</text>
</g>
<!-- http://purl.org/oseg/ontologies/OTRL#Otrl2&#45;&gt;http://purl.org/oseg/ontologies/OTRL#OTRL -->
<g id="edge12" class="edge">
<title>http://purl.org/oseg/ontologies/OTRL#Otrl2&#45;&gt;http://purl.org/oseg/ontologies/OTRL#OTRL</title>
<path fill="none" stroke="black" d="M380.54,-297.6C383.36,-274.8 388.48,-233.41 391.84,-206.19"/>
<polygon fill="black" stroke="black" points="395.33,-206.54 393.08,-196.18 388.38,-205.68 395.33,-206.54"/>
</g>
<!-- http://purl.org/oseg/ontologies/OTRL#Otrl2&#45;&gt;http://www.w3.org/2002/07/owl#class -->
<g id="edge1" class="edge">
<title>http://purl.org/oseg/ontologies/OTRL#Otrl2&#45;&gt;http://www.w3.org/2002/07/owl#class</title>
<path fill="none" stroke="black" d="M364.78,-298.58C345.5,-276.78 310.24,-236.91 287.63,-211.35"/>
<polygon fill="black" stroke="black" points="290.02,-208.77 280.78,-203.59 284.78,-213.4 290.02,-208.77"/>
<text text-anchor="middle" x="321.7" y="-258.76" font-family="Times,serif" font-size="14.00">a</text>
</g>
<!-- http://purl.org/oseg/ontologies/OTRL#Otrl6 -->
<g id="node8" class="node">
<title>http://purl.org/oseg/ontologies/OTRL#Otrl6</title>
<ellipse fill="none" stroke="#e377c2" cx="277.88" cy="-233.94" rx="38.37" ry="16.03"/>
<text text-anchor="middle" x="277.88" y="-230.24" font-family="Times,serif" font-size="14.00">Otrl6</text>
</g>
<!-- http://purl.org/oseg/ontologies/OTRL#Otrl6&#45;&gt;http://purl.org/oseg/ontologies/OTRL#OTRL -->
<g id="edge3" class="edge">
<title>http://purl.org/oseg/ontologies/OTRL#Otrl6&#45;&gt;http://purl.org/oseg/ontologies/OTRL#OTRL</title>
<path fill="none" stroke="black" d="M303.9,-221.87C320.19,-214.32 341.39,-204.48 359.25,-196.2"/>
<polygon fill="black" stroke="black" points="361.18,-199.16 368.78,-191.78 358.24,-192.81 361.18,-199.16"/>
</g>
<!-- http://purl.org/oseg/ontologies/OTRL#Otrl6&#45;&gt;http://www.w3.org/2002/07/owl#class -->
<g id="edge2" class="edge">
<title>http://purl.org/oseg/ontologies/OTRL#Otrl6&#45;&gt;http://www.w3.org/2002/07/owl#class</title>
<path fill="none" stroke="black" d="M273.93,-217.72C273.62,-216.45 273.31,-215.16 272.99,-213.85"/>
<polygon fill="black" stroke="black" points="276.32,-212.73 270.56,-203.85 269.52,-214.39 276.32,-212.73"/>
<text text-anchor="middle" x="268.96" y="-204.58" font-family="Times,serif" font-size="14.00">a</text>
</g>
<!-- http://schema.org/Text -->
<g id="node9" class="node">
<title>http://schema.org/Text</title>
<ellipse fill="none" stroke="#e377c2" cx="711.4" cy="-328.71" rx="74.91" ry="16.03"/>
<text text-anchor="middle" x="711.4" y="-325.01" font-family="Times,serif" font-size="14.00">schema:Text</text>
</g>
<!-- http://purl.org/oseg/ontologies/OTRL#Odrl1 -->
<g id="node10" class="node">
<title>http://purl.org/oseg/ontologies/OTRL#Odrl1</title>
<ellipse fill="none" stroke="#e377c2" cx="103.82" cy="-119.04" rx="40.11" ry="16.03"/>
<text text-anchor="middle" x="103.82" y="-115.34" font-family="Times,serif" font-size="14.00">Odrl1</text>
</g>
<!-- http://purl.org/oseg/ontologies/OTRL#Odrl1&#45;&gt;http://purl.org/oseg/ontologies/OTRL#ODRL -->
<g id="edge22" class="edge">
<title>http://purl.org/oseg/ontologies/OTRL#Odrl1&#45;&gt;http://purl.org/oseg/ontologies/OTRL#ODRL</title>
<path fill="none" stroke="black" d="M109.27,-135.17C110.12,-137.71 111.03,-140.39 111.94,-143.09"/>
<polygon fill="black" stroke="black" points="108.67,-144.35 115.19,-152.7 115.3,-142.11 108.67,-144.35"/>
</g>
<!-- http://purl.org/oseg/ontologies/OTRL#Odrl1&#45;&gt;http://www.w3.org/2002/07/owl#class -->
<g id="edge4" class="edge">
<title>http://purl.org/oseg/ontologies/OTRL#Odrl1&#45;&gt;http://www.w3.org/2002/07/owl#class</title>
<path fill="none" stroke="black" d="M131.8,-130.82C157.44,-141.61 195.75,-157.73 224.98,-170.04"/>
<polygon fill="black" stroke="black" points="223.94,-173.4 234.51,-174.05 226.65,-166.94 223.94,-173.4"/>
<text text-anchor="middle" x="173.89" y="-154.23" font-family="Times,serif" font-size="14.00">a</text>
</g>
<!-- http://purl.org/oseg/ontologies/OTRL#goal -->
<g id="node11" class="node">
<title>http://purl.org/oseg/ontologies/OTRL#goal</title>
<ellipse fill="none" stroke="#e377c2" cx="531.52" cy="-332.31" rx="33.47" ry="16.03"/>
<text text-anchor="middle" x="531.52" y="-328.61" font-family="Times,serif" font-size="14.00">goal</text>
</g>
<!-- http://purl.org/oseg/ontologies/OTRL#goal&#45;&gt;http://www.w3.org/2002/07/owl#DatatypeProperty -->
<g id="edge5" class="edge">
<title>http://purl.org/oseg/ontologies/OTRL#goal&#45;&gt;http://www.w3.org/2002/07/owl#DatatypeProperty</title>
<path fill="none" stroke="black" d="M522.07,-347.91C522.02,-348 521.96,-348.09 521.91,-348.18"/>
<polygon fill="black" stroke="black" points="518.96,-346.29 516.77,-356.66 524.94,-349.92 518.96,-346.29"/>
<text text-anchor="middle" x="517.49" y="-351.85" font-family="Times,serif" font-size="14.00">a</text>
</g>
<!-- http://purl.org/oseg/ontologies/OTRL#goal&#45;&gt;http://schema.org/Text -->
<g id="edge23" class="edge">
<title>http://purl.org/oseg/ontologies/OTRL#goal&#45;&gt;http://schema.org/Text</title>
<path fill="none" stroke="black" d="M564.93,-331.64C582.3,-331.3 604.39,-330.85 626.12,-330.42"/>
<polygon fill="black" stroke="black" points="626.47,-333.91 636.4,-330.21 626.33,-326.92 626.47,-333.91"/>
<text text-anchor="middle" x="606.03" y="-319.83" font-family="Times,serif" font-size="14.00">range</text>
</g>
<!-- http://www.w3.org/1999/02/22&#45;rdf&#45;syntax&#45;ns#nil -->
<g id="node12" class="node">
<title>http://www.w3.org/1999/02/22&#45;rdf&#45;syntax&#45;ns#nil</title>
<ellipse fill="none" stroke="#e377c2" cx="282.24" cy="-304.64" rx="42.35" ry="16.03"/>
<text text-anchor="middle" x="282.24" y="-300.94" font-family="Times,serif" font-size="14.00">rdf:nil</text>
</g>
<!-- http://purl.org/oseg/ontologies/OTRL#Otrl1 -->
<g id="node13" class="node">
<title>http://purl.org/oseg/ontologies/OTRL#Otrl1</title>
<ellipse fill="none" stroke="#e377c2" cx="421.19" cy="-110.53" rx="38.37" ry="16.03"/>
<text text-anchor="middle" x="421.19" y="-106.83" font-family="Times,serif" font-size="14.00">Otrl1</text>
</g>
<!-- http://purl.org/oseg/ontologies/OTRL#Otrl1&#45;&gt;http://purl.org/oseg/ontologies/OTRL#OTRL -->
<g id="edge7" class="edge">
<title>http://purl.org/oseg/ontologies/OTRL#Otrl1&#45;&gt;http://purl.org/oseg/ontologies/OTRL#OTRL</title>
<path fill="none" stroke="black" d="M415.02,-126.88C412,-134.88 408.3,-144.69 404.91,-153.67"/>
<polygon fill="black" stroke="black" points="401.53,-152.72 401.27,-163.31 408.07,-155.19 401.53,-152.72"/>
</g>
<!-- http://purl.org/oseg/ontologies/OTRL#Otrl1&#45;&gt;http://www.w3.org/2002/07/owl#class -->
<g id="edge6" class="edge">
<title>http://purl.org/oseg/ontologies/OTRL#Otrl1&#45;&gt;http://www.w3.org/2002/07/owl#class</title>
<path fill="none" stroke="black" d="M396.35,-122.9C371.51,-135.28 332.97,-154.48 304.34,-168.74"/>
<polygon fill="black" stroke="black" points="302.43,-165.78 295.04,-173.38 305.55,-172.05 302.43,-165.78"/>
<text text-anchor="middle" x="345.84" y="-149.62" font-family="Times,serif" font-size="14.00">a</text>
</g>
<!-- http://purl.org/oseg/ontologies/OTRL#Odrl4 -->
<g id="node14" class="node">
<title>http://purl.org/oseg/ontologies/OTRL#Odrl4</title>
<ellipse fill="none" stroke="#e377c2" cx="165.81" cy="-40" rx="40.11" ry="16.03"/>
<text text-anchor="middle" x="165.81" y="-36.3" font-family="Times,serif" font-size="14.00">Odrl4</text>
</g>
<!-- http://purl.org/oseg/ontologies/OTRL#Odrl4&#45;&gt;http://purl.org/oseg/ontologies/OTRL#ODRL -->
<g id="edge25" class="edge">
<title>http://purl.org/oseg/ontologies/OTRL#Odrl4&#45;&gt;http://purl.org/oseg/ontologies/OTRL#ODRL</title>
<path fill="none" stroke="black" d="M160.1,-56.35C152.45,-78.29 138.78,-117.46 129.73,-143.37"/>
<polygon fill="black" stroke="black" points="126.39,-142.33 126.4,-152.92 133,-144.63 126.39,-142.33"/>
</g>
<!-- http://purl.org/oseg/ontologies/OTRL#Odrl4&#45;&gt;http://www.w3.org/2002/07/owl#class -->
<g id="edge21" class="edge">
<title>http://purl.org/oseg/ontologies/OTRL#Odrl4&#45;&gt;http://www.w3.org/2002/07/owl#class</title>
<path fill="none" stroke="black" d="M176.59,-55.79C194.16,-81.5 229.06,-132.6 249.86,-163.06"/>
<polygon fill="black" stroke="black" points="247.05,-165.14 255.58,-171.43 252.83,-161.19 247.05,-165.14"/>
<text text-anchor="middle" x="208.73" y="-98.22" font-family="Times,serif" font-size="14.00">a</text>
</g>
<!-- http://purl.org/oseg/ontologies/OTRL#Odrl3 -->
<g id="node15" class="node">
<title>http://purl.org/oseg/ontologies/OTRL#Odrl3</title>
<ellipse fill="none" stroke="#e377c2" cx="229.4" cy="-116.06" rx="40.11" ry="16.03"/>
<text text-anchor="middle" x="229.4" y="-112.36" font-family="Times,serif" font-size="14.00">Odrl3</text>
</g>
<!-- http://purl.org/oseg/ontologies/OTRL#Odrl3&#45;&gt;http://purl.org/oseg/ontologies/OTRL#ODRL -->
<g id="edge10" class="edge">
<title>http://purl.org/oseg/ontologies/OTRL#Odrl3&#45;&gt;http://purl.org/oseg/ontologies/OTRL#ODRL</title>
<path fill="none" stroke="black" d="M203.65,-128.64C189.51,-135.55 171.77,-144.22 156.33,-151.76"/>
<polygon fill="black" stroke="black" points="154.51,-148.75 147.06,-156.29 157.58,-155.04 154.51,-148.75"/>
</g>
<!-- http://purl.org/oseg/ontologies/OTRL#Odrl3&#45;&gt;http://www.w3.org/2002/07/owl#class -->
<g id="edge24" class="edge">
<title>http://purl.org/oseg/ontologies/OTRL#Odrl3&#45;&gt;http://www.w3.org/2002/07/owl#class</title>
<path fill="none" stroke="black" d="M237.84,-132.28C242.45,-141.15 248.26,-152.33 253.46,-162.31"/>
<polygon fill="black" stroke="black" points="250.46,-164.14 258.18,-171.39 256.67,-160.91 250.46,-164.14"/>
<text text-anchor="middle" x="241.15" y="-151.09" font-family="Times,serif" font-size="14.00">a</text>
</g>
<!-- http://purl.org/oseg/ontologies/OTRL#exitCriteria -->
<g id="node16" class="node">
<title>http://purl.org/oseg/ontologies/OTRL#exitCriteria</title>
<ellipse fill="none" stroke="#e377c2" cx="523.05" cy="-418.86" rx="70.01" ry="16.03"/>
<text text-anchor="middle" x="523.05" y="-415.16" font-family="Times,serif" font-size="14.00">exitCriteria</text>
</g>
<!-- http://purl.org/oseg/ontologies/OTRL#exitCriteria&#45;&gt;http://www.w3.org/2002/07/owl#DatatypeProperty -->
<g id="edge26" class="edge">
<title>http://purl.org/oseg/ontologies/OTRL#exitCriteria&#45;&gt;http://www.w3.org/2002/07/owl#DatatypeProperty</title>
<path fill="none" stroke="black" d="M517.31,-402.55C516.88,-401.33 516.44,-400.09 516,-398.83"/>
<polygon fill="black" stroke="black" points="519.24,-397.49 512.62,-389.22 512.64,-399.82 519.24,-397.49"/>
<text text-anchor="middle" x="512.15" y="-389.49" font-family="Times,serif" font-size="14.00">a</text>
</g>
<!-- http://purl.org/oseg/ontologies/OTRL#exitCriteria&#45;&gt;http://schema.org/Text -->
<g id="edge20" class="edge">
<title>http://purl.org/oseg/ontologies/OTRL#exitCriteria&#45;&gt;http://schema.org/Text</title>
<path fill="none" stroke="black" d="M553.73,-404.18C585.78,-388.84 636.21,-364.7 671.38,-347.87"/>
<polygon fill="black" stroke="black" points="672.91,-351.02 680.42,-343.54 669.89,-344.7 672.91,-351.02"/>
<text text-anchor="middle" x="633.55" y="-379.82" font-family="Times,serif" font-size="14.00">range</text>
</g>
<!-- http://purl.org/oseg/ontologies/OTRL#Otrl -->
<g id="node17" class="node">
<title>http://purl.org/oseg/ontologies/OTRL#Otrl</title>
<ellipse fill="none" stroke="#e377c2" cx="272.24" cy="-64.64" rx="31.64" ry="16.03"/>
<text text-anchor="middle" x="272.24" y="-60.94" font-family="Times,serif" font-size="14.00">Otrl</text>
</g>
<!-- http://purl.org/oseg/ontologies/OTRL#Otrl5 -->
<g id="node18" class="node">
<title>http://purl.org/oseg/ontologies/OTRL#Otrl5</title>
<ellipse fill="none" stroke="#e377c2" cx="356.78" cy="-43.88" rx="38.37" ry="16.03"/>
<text text-anchor="middle" x="356.78" y="-40.18" font-family="Times,serif" font-size="14.00">Otrl5</text>
</g>
<!-- http://purl.org/oseg/ontologies/OTRL#Otrl5&#45;&gt;http://purl.org/oseg/ontologies/OTRL#OTRL -->
<g id="edge28" class="edge">
<title>http://purl.org/oseg/ontologies/OTRL#Otrl5&#45;&gt;http://purl.org/oseg/ontologies/OTRL#OTRL</title>
<path fill="none" stroke="black" d="M361.41,-60.25C367.95,-83.37 379.96,-125.85 387.74,-153.38"/>
<polygon fill="black" stroke="black" points="384.41,-154.46 390.5,-163.13 391.14,-152.55 384.41,-154.46"/>
</g>
<!-- http://purl.org/oseg/ontologies/OTRL#Otrl5&#45;&gt;http://www.w3.org/2002/07/owl#class -->
<g id="edge27" class="edge">
<title>http://purl.org/oseg/ontologies/OTRL#Otrl5&#45;&gt;http://www.w3.org/2002/07/owl#class</title>
<path fill="none" stroke="black" d="M346.79,-59.8C331.16,-84.7 300.81,-133.04 282.26,-162.59"/>
<polygon fill="black" stroke="black" points="279.26,-160.78 276.91,-171.11 285.19,-164.51 279.26,-160.78"/>
<text text-anchor="middle" x="310.02" y="-115" font-family="Times,serif" font-size="14.00">a</text>
</g>
<!-- http://purl.org/oseg/ontologies/OTRL -->
<g id="node19" class="node">
<title>http://purl.org/oseg/ontologies/OTRL</title>
<ellipse fill="none" stroke="#e377c2" cx="656.95" cy="-16.42" rx="60.62" ry="16.03"/>
<text text-anchor="middle" x="656.95" y="-12.72" font-family="Times,serif" font-size="14.00">ns1:OTRL</text>
</g>
<!-- http://purl.org/oseg/ontologies/OTRL&#45;&gt;http://www.w3.org/2002/07/owl#Ontology -->
<g id="edge14" class="edge">
<title>http://purl.org/oseg/ontologies/OTRL&#45;&gt;http://www.w3.org/2002/07/owl#Ontology</title>
<path fill="none" stroke="black" d="M603.65,-24.38C596.94,-25.38 589.98,-26.42 583.02,-27.46"/>
<polygon fill="black" stroke="black" points="582.22,-24.04 572.85,-28.98 583.26,-30.96 582.22,-24.04"/>
<text text-anchor="middle" x="591.08" y="-14.72" font-family="Times,serif" font-size="14.00">a</text>
</g>
<!-- http://purl.org/oseg/ontologies/OTRL&#45;&gt;http://purl.org/oseg/ontologies/OTRL -->
<g id="edge29" class="edge">
<title>http://purl.org/oseg/ontologies/OTRL&#45;&gt;http://purl.org/oseg/ontologies/OTRL</title>
<path fill="none" stroke="black" d="M712.55,-23.05C725.89,-22.53 735.76,-20.32 735.76,-16.42 735.76,-13.58 730.55,-11.64 722.58,-10.59"/>
<polygon fill="black" stroke="black" points="722.8,-7.1 712.55,-9.78 722.24,-14.07 722.8,-7.1"/>
<text text-anchor="middle" x="787.26" y="-12.72" font-family="Times,serif" font-size="14.00">owl:versionIRI</text>
</g>
<!-- http://purl.org/oseg/ontologies/OTRL#Odrl3Star -->
<g id="node20" class="node">
<title>http://purl.org/oseg/ontologies/OTRL#Odrl3Star</title>
<ellipse fill="none" stroke="#e377c2" cx="62.35" cy="-217.43" rx="62.45" ry="16.03"/>
<text text-anchor="middle" x="62.35" y="-213.73" font-family="Times,serif" font-size="14.00">Odrl3Star</text>
</g>
<!-- http://purl.org/oseg/ontologies/OTRL#Odrl3Star&#45;&gt;http://purl.org/oseg/ontologies/OTRL#ODRL -->
<g id="edge16" class="edge">
<title>http://purl.org/oseg/ontologies/OTRL#Odrl3Star&#45;&gt;http://purl.org/oseg/ontologies/OTRL#ODRL</title>
<path fill="none" stroke="black" d="M81.15,-201.89C85.48,-198.3 90.17,-194.43 94.75,-190.64"/>
<polygon fill="black" stroke="black" points="97.3,-193.07 102.78,-184 92.84,-187.68 97.3,-193.07"/>
</g>
<!-- http://purl.org/oseg/ontologies/OTRL#Odrl3Star&#45;&gt;http://www.w3.org/2002/07/owl#class -->
<g id="edge13" class="edge">
<title>http://purl.org/oseg/ontologies/OTRL#Odrl3Star&#45;&gt;http://www.w3.org/2002/07/owl#class</title>
<path fill="none" stroke="black" d="M116.81,-209.46C144.07,-205.47 177.17,-200.63 205.31,-196.52"/>
<polygon fill="black" stroke="black" points="206.05,-199.94 215.44,-195.03 205.04,-193.02 206.05,-199.94"/>
<text text-anchor="middle" x="156.56" y="-206.79" font-family="Times,serif" font-size="14.00">a</text>
</g>
<!-- http://purl.org/oseg/ontologies/OTRL#Otrl4 -->
<g id="node21" class="node">
<title>http://purl.org/oseg/ontologies/OTRL#Otrl4</title>
<ellipse fill="none" stroke="#e377c2" cx="462.23" cy="-221.28" rx="38.37" ry="16.03"/>
<text text-anchor="middle" x="462.23" y="-217.58" font-family="Times,serif" font-size="14.00">Otrl4</text>
</g>
<!-- http://purl.org/oseg/ontologies/OTRL#Otrl4&#45;&gt;http://purl.org/oseg/ontologies/OTRL#OTRL -->
<g id="edge8" class="edge">
<title>http://purl.org/oseg/ontologies/OTRL#Otrl4&#45;&gt;http://purl.org/oseg/ontologies/OTRL#OTRL</title>
<path fill="none" stroke="black" d="M440.64,-207.85C435.94,-204.93 430.89,-201.79 425.92,-198.7"/>
<polygon fill="black" stroke="black" points="427.5,-195.55 417.16,-193.25 423.8,-201.5 427.5,-195.55"/>
</g>
<!-- http://purl.org/oseg/ontologies/OTRL#Otrl4&#45;&gt;http://www.w3.org/2002/07/owl#class -->
<g id="edge15" class="edge">
<title>http://purl.org/oseg/ontologies/OTRL#Otrl4&#45;&gt;http://www.w3.org/2002/07/owl#class</title>
<path fill="none" stroke="black" d="M426.8,-215.17C398.66,-210.32 358.7,-203.43 325.72,-197.75"/>
<polygon fill="black" stroke="black" points="326.18,-194.27 315.74,-196.02 325,-201.17 326.18,-194.27"/>
<text text-anchor="middle" x="371.76" y="-195.26" font-family="Times,serif" font-size="14.00">a</text>
</g>
<!-- http://purl.org/oseg/ontologies/OTRL#Odrl2 -->
<g id="node22" class="node">
<title>http://purl.org/oseg/ontologies/OTRL#Odrl2</title>
<ellipse fill="none" stroke="#e377c2" cx="164.25" cy="-323.47" rx="40.11" ry="16.03"/>
<text text-anchor="middle" x="164.25" y="-319.77" font-family="Times,serif" font-size="14.00">Odrl2</text>
</g>
<!-- http://purl.org/oseg/ontologies/OTRL#Odrl2&#45;&gt;http://purl.org/oseg/ontologies/OTRL#ODRL -->
<g id="edge30" class="edge">
<title>http://purl.org/oseg/ontologies/OTRL#Odrl2&#45;&gt;http://purl.org/oseg/ontologies/OTRL#ODRL</title>
<path fill="none" stroke="black" d="M159.68,-307.25C152.19,-280.69 137.25,-227.68 128.21,-195.62"/>
<polygon fill="black" stroke="black" points="131.47,-194.29 125.38,-185.62 124.73,-196.19 131.47,-194.29"/>
</g>
<!-- http://purl.org/oseg/ontologies/OTRL#Odrl2&#45;&gt;http://www.w3.org/2002/07/owl#class -->
<g id="edge17" class="edge">
<title>http://purl.org/oseg/ontologies/OTRL#Odrl2&#45;&gt;http://www.w3.org/2002/07/owl#class</title>
<path fill="none" stroke="black" d="M175.99,-307.88C193.69,-284.37 227.36,-239.65 248.3,-211.85"/>
<polygon fill="black" stroke="black" points="251.13,-213.9 254.35,-203.8 245.54,-209.69 251.13,-213.9"/>
<text text-anchor="middle" x="207.65" y="-263.66" font-family="Times,serif" font-size="14.00">a</text>
</g>
<!-- http://purl.org/oseg/ontologies/OTRL#Otrl3 -->
<g id="node23" class="node">
<title>http://purl.org/oseg/ontologies/OTRL#Otrl3</title>
<ellipse fill="none" stroke="#e377c2" cx="364.1" cy="-232.02" rx="38.37" ry="16.03"/>
<text text-anchor="middle" x="364.1" y="-228.32" font-family="Times,serif" font-size="14.00">Otrl3</text>
</g>
<!-- http://purl.org/oseg/ontologies/OTRL#Otrl3&#45;&gt;http://purl.org/oseg/ontologies/OTRL#OTRL -->
<g id="edge19" class="edge">
<title>http://purl.org/oseg/ontologies/OTRL#Otrl3&#45;&gt;http://purl.org/oseg/ontologies/OTRL#OTRL</title>
<path fill="none" stroke="black" d="M373.58,-216C375.81,-212.23 378.23,-208.14 380.62,-204.09"/>
<polygon fill="black" stroke="black" points="383.64,-205.87 385.72,-195.48 377.61,-202.31 383.64,-205.87"/>
</g>
<!-- http://purl.org/oseg/ontologies/OTRL#Otrl3&#45;&gt;http://www.w3.org/2002/07/owl#class -->
<g id="edge18" class="edge">
<title>http://purl.org/oseg/ontologies/OTRL#Otrl3&#45;&gt;http://www.w3.org/2002/07/owl#class</title>
<path fill="none" stroke="black" d="M337.97,-220.11C328.19,-215.65 316.86,-210.48 306.15,-205.59"/>
<polygon fill="black" stroke="black" points="307.49,-202.36 296.94,-201.39 304.59,-208.73 307.49,-202.36"/>
<text text-anchor="middle" x="326.56" y="-201.65" font-family="Times,serif" font-size="14.00">a</text>
</g>
</g>
</svg>
