<?xml version="1.0" encoding="UTF-8" standalone="no"?>
<!DOCTYPE svg PUBLIC "-//W3C//DTD SVG 1.1//EN"
 "http://www.w3.org/Graphics/SVG/1.1/DTD/svg11.dtd">
<!-- Generated by graphviz version 2.43.0 (0)
 -->
<!-- Title: G Pages: 1 -->
<svg width="2266pt" height="1079pt"
 viewBox="0.00 0.00 2266.00 1079.00" xmlns="http://www.w3.org/2000/svg" xmlns:xlink="http://www.w3.org/1999/xlink">
<g id="graph0" class="graph" transform="scale(1 1) rotate(0) translate(4 1075)">
<title>G</title>
<polygon fill="white" stroke="transparent" points="-4,4 -4,-1075 2262,-1075 2262,4 -4,4"/>
<!-- http://www.w3.org/2002/07/owl#DatatypeProperty -->
<g id="node1" class="node">
<title>http://www.w3.org/2002/07/owl#DatatypeProperty</title>
<ellipse fill="none" stroke="#1f77b4" cx="813.61" cy="-347.3" rx="123.07" ry="16.03"/>
<text text-anchor="middle" x="813.61" y="-343.6" font-family="Times,serif" font-size="14.00">owl:DatatypeProperty</text>
</g>
<!-- http://www.w3.org/2002/07/owl#Ontology -->
<g id="node2" class="node">
<title>http://www.w3.org/2002/07/owl#Ontology</title>
<ellipse fill="none" stroke="#1f77b4" cx="1577.59" cy="-928.72" rx="77.56" ry="16.03"/>
<text text-anchor="middle" x="1577.59" y="-925.02" font-family="Times,serif" font-size="14.00">owl:Ontology</text>
</g>
<!-- https://w3id.org/oseg/ont/otrl#ODRL -->
<g id="node3" class="node">
<title>https://w3id.org/oseg/ont/otrl#ODRL</title>
<ellipse fill="none" stroke="#e377c2" cx="853.91" cy="-689.39" rx="62.87" ry="16.03"/>
<text text-anchor="middle" x="853.91" y="-685.69" font-family="Times,serif" font-size="14.00">otrl:ODRL</text>
</g>
<!-- https://w3id.org/oseg/ont/otrl#ODRL3 -->
<g id="node4" class="node">
<title>https://w3id.org/oseg/ont/otrl#ODRL3</title>
<ellipse fill="none" stroke="#e377c2" cx="593.7" cy="-606.55" rx="69.09" ry="16.03"/>
<text text-anchor="middle" x="593.7" y="-602.85" font-family="Times,serif" font-size="14.00">otrl:ODRL3</text>
</g>
<!-- https://w3id.org/oseg/ont/otrl#ODRL3&#45;&gt;https://w3id.org/oseg/ont/otrl#ODRL -->
<g id="edge30" class="edge">
<title>https://w3id.org/oseg/ont/otrl#ODRL3&#45;&gt;https://w3id.org/oseg/ont/otrl#ODRL</title>
<path fill="none" stroke="black" d="M634.93,-619.68C680.91,-634.32 755.27,-657.99 804.38,-673.62"/>
<polygon fill="black" stroke="black" points="803.56,-677.04 814.15,-676.73 805.68,-670.37 803.56,-677.04"/>
</g>
<!-- https://w3id.org/oseg/ont/otrl#ODRL2 -->
<g id="node5" class="node">
<title>https://w3id.org/oseg/ont/otrl#ODRL2</title>
<ellipse fill="none" stroke="#e377c2" cx="610.78" cy="-818.22" rx="69.09" ry="16.03"/>
<text text-anchor="middle" x="610.78" y="-814.52" font-family="Times,serif" font-size="14.00">otrl:ODRL2</text>
</g>
<!-- https://w3id.org/oseg/ont/otrl#ODRL2&#45;&gt;https://w3id.org/oseg/ont/otrl#ODRL -->
<g id="edge23" class="edge">
<title>https://w3id.org/oseg/ont/otrl#ODRL2&#45;&gt;https://w3id.org/oseg/ont/otrl#ODRL</title>
<path fill="none" stroke="black" d="M639.15,-803.19C683.28,-779.81 768.36,-734.72 817.14,-708.87"/>
<polygon fill="black" stroke="black" points="818.9,-711.9 826.1,-704.13 815.62,-705.72 818.9,-711.9"/>
</g>
<!-- https://w3id.org/oseg/ont/otrl#ODRL3Star -->
<g id="node6" class="node">
<title>https://w3id.org/oseg/ont/otrl#ODRL3Star</title>
<ellipse fill="none" stroke="#e377c2" cx="1064.37" cy="-721.69" rx="90.52" ry="16.03"/>
<text text-anchor="middle" x="1064.37" y="-717.99" font-family="Times,serif" font-size="14.00">otrl:ODRL3Star</text>
</g>
<!-- https://w3id.org/oseg/ont/otrl#ODRL3Star&#45;&gt;https://w3id.org/oseg/ont/otrl#ODRL -->
<g id="edge27" class="edge">
<title>https://w3id.org/oseg/ont/otrl#ODRL3Star&#45;&gt;https://w3id.org/oseg/ont/otrl#ODRL</title>
<path fill="none" stroke="black" d="M995.46,-711.11C970.59,-707.3 942.64,-703.01 918.19,-699.26"/>
<polygon fill="black" stroke="black" points="918.71,-695.8 908.3,-697.74 917.65,-702.71 918.71,-695.8"/>
</g>
<!-- https://w3id.org/oseg/ont/otrl#OTRL -->
<g id="node7" class="node">
<title>https://w3id.org/oseg/ont/otrl#OTRL</title>
<ellipse fill="none" stroke="#e377c2" cx="1357.23" cy="-346.19" rx="60.62" ry="16.03"/>
<text text-anchor="middle" x="1357.23" y="-342.49" font-family="Times,serif" font-size="14.00">otrl:OTRL</text>
</g>
<!-- https://w3id.org/oseg/ont/otrl#ODRL1 -->
<g id="node8" class="node">
<title>https://w3id.org/oseg/ont/otrl#ODRL1</title>
<ellipse fill="none" stroke="#e377c2" cx="1058.57" cy="-927.84" rx="69.09" ry="16.03"/>
<text text-anchor="middle" x="1058.57" y="-924.14" font-family="Times,serif" font-size="14.00">otrl:ODRL1</text>
</g>
<!-- https://w3id.org/oseg/ont/otrl#ODRL1&#45;&gt;https://w3id.org/oseg/ont/otrl#ODRL -->
<g id="edge42" class="edge">
<title>https://w3id.org/oseg/ont/otrl#ODRL1&#45;&gt;https://w3id.org/oseg/ont/otrl#ODRL</title>
<path fill="none" stroke="black" d="M1044.82,-911.82C1009.58,-870.76 915.85,-761.56 874.27,-713.11"/>
<polygon fill="black" stroke="black" points="876.76,-710.64 867.6,-705.34 871.45,-715.2 876.76,-710.64"/>
</g>
<!-- https://w3id.org/oseg/ont/otrl#ODRL4 -->
<g id="node9" class="node">
<title>https://w3id.org/oseg/ont/otrl#ODRL4</title>
<ellipse fill="none" stroke="#e377c2" cx="707.28" cy="-863.63" rx="69.09" ry="16.03"/>
<text text-anchor="middle" x="707.28" y="-859.93" font-family="Times,serif" font-size="14.00">otrl:ODRL4</text>
</g>
<!-- https://w3id.org/oseg/ont/otrl#ODRL4&#45;&gt;https://w3id.org/oseg/ont/otrl#ODRL -->
<g id="edge20" class="edge">
<title>https://w3id.org/oseg/ont/otrl#ODRL4&#45;&gt;https://w3id.org/oseg/ont/otrl#ODRL</title>
<path fill="none" stroke="black" d="M720.81,-847.55C746.67,-816.82 803.24,-749.6 833.63,-713.48"/>
<polygon fill="black" stroke="black" points="836.65,-715.34 840.41,-705.43 831.29,-710.83 836.65,-715.34"/>
</g>
<!-- https://w3id.org/oseg/ont/otrl#OTRL6 -->
<g id="node10" class="node">
<title>https://w3id.org/oseg/ont/otrl#OTRL6</title>
<ellipse fill="none" stroke="#e377c2" cx="1151.92" cy="-116.73" rx="67.35" ry="16.03"/>
<text text-anchor="middle" x="1151.92" y="-113.03" font-family="Times,serif" font-size="14.00">otrl:OTRL6</text>
</g>
<!-- https://w3id.org/oseg/ont/otrl#OTRL6&#45;&gt;https://w3id.org/oseg/ont/otrl#OTRL -->
<g id="edge52" class="edge">
<title>https://w3id.org/oseg/ont/otrl#OTRL6&#45;&gt;https://w3id.org/oseg/ont/otrl#OTRL</title>
<path fill="none" stroke="black" d="M1166.36,-132.87C1201.99,-172.69 1294.26,-275.82 1336.08,-322.55"/>
<polygon fill="black" stroke="black" points="1333.53,-324.95 1342.81,-330.07 1338.75,-320.28 1333.53,-324.95"/>
</g>
<!-- https://w3id.org/oseg/ont/otrl#OTRL2 -->
<g id="node11" class="node">
<title>https://w3id.org/oseg/ont/otrl#OTRL2</title>
<ellipse fill="none" stroke="#e377c2" cx="1655.18" cy="-241.66" rx="67.35" ry="16.03"/>
<text text-anchor="middle" x="1655.18" y="-237.96" font-family="Times,serif" font-size="14.00">otrl:OTRL2</text>
</g>
<!-- https://w3id.org/oseg/ont/otrl#OTRL2&#45;&gt;https://w3id.org/oseg/ont/otrl#OTRL -->
<g id="edge33" class="edge">
<title>https://w3id.org/oseg/ont/otrl#OTRL2&#45;&gt;https://w3id.org/oseg/ont/otrl#OTRL</title>
<path fill="none" stroke="black" d="M1616.84,-255.11C1562.46,-274.19 1463.03,-309.07 1404.26,-329.69"/>
<polygon fill="black" stroke="black" points="1402.77,-326.5 1394.49,-333.11 1405.08,-333.11 1402.77,-326.5"/>
</g>
<!-- https://w3id.org/oseg/ont/otrl#OTRL3 -->
<g id="node12" class="node">
<title>https://w3id.org/oseg/ont/otrl#OTRL3</title>
<ellipse fill="none" stroke="#e377c2" cx="1648.44" cy="-404.7" rx="67.35" ry="16.03"/>
<text text-anchor="middle" x="1648.44" y="-401" font-family="Times,serif" font-size="14.00">otrl:OTRL3</text>
</g>
<!-- https://w3id.org/oseg/ont/otrl#OTRL3&#45;&gt;https://w3id.org/oseg/ont/otrl#OTRL -->
<g id="edge32" class="edge">
<title>https://w3id.org/oseg/ont/otrl#OTRL3&#45;&gt;https://w3id.org/oseg/ont/otrl#OTRL</title>
<path fill="none" stroke="black" d="M1596.71,-394.31C1546.04,-384.12 1468.93,-368.63 1415.98,-357.99"/>
<polygon fill="black" stroke="black" points="1416.55,-354.53 1406.05,-356 1415.17,-361.4 1416.55,-354.53"/>
</g>
<!-- https://w3id.org/oseg/ont/otrl#OTRL5 -->
<g id="node13" class="node">
<title>https://w3id.org/oseg/ont/otrl#OTRL5</title>
<ellipse fill="none" stroke="#e377c2" cx="1502.38" cy="-460.16" rx="67.35" ry="16.03"/>
<text text-anchor="middle" x="1502.38" y="-456.46" font-family="Times,serif" font-size="14.00">otrl:OTRL5</text>
</g>
<!-- https://w3id.org/oseg/ont/otrl#OTRL5&#45;&gt;https://w3id.org/oseg/ont/otrl#OTRL -->
<g id="edge6" class="edge">
<title>https://w3id.org/oseg/ont/otrl#OTRL5&#45;&gt;https://w3id.org/oseg/ont/otrl#OTRL</title>
<path fill="none" stroke="black" d="M1482.5,-444.55C1457.2,-424.69 1413.37,-390.27 1384.84,-367.86"/>
<polygon fill="black" stroke="black" points="1386.89,-365.03 1376.87,-361.61 1382.57,-370.53 1386.89,-365.03"/>
</g>
<!-- https://w3id.org/oseg/ont/otrl#OTRL1 -->
<g id="node14" class="node">
<title>https://w3id.org/oseg/ont/otrl#OTRL1</title>
<ellipse fill="none" stroke="#e377c2" cx="1388.13" cy="-191.36" rx="67.35" ry="16.03"/>
<text text-anchor="middle" x="1388.13" y="-187.66" font-family="Times,serif" font-size="14.00">otrl:OTRL1</text>
</g>
<!-- https://w3id.org/oseg/ont/otrl#OTRL1&#45;&gt;https://w3id.org/oseg/ont/otrl#OTRL -->
<g id="edge41" class="edge">
<title>https://w3id.org/oseg/ont/otrl#OTRL1&#45;&gt;https://w3id.org/oseg/ont/otrl#OTRL</title>
<path fill="none" stroke="black" d="M1384.88,-207.63C1379.56,-234.28 1368.95,-287.46 1362.53,-319.63"/>
<polygon fill="black" stroke="black" points="1359.05,-319.17 1360.53,-329.66 1365.92,-320.54 1359.05,-319.17"/>
</g>
<!-- https://w3id.org/oseg/ont/otrl#OTRL4 -->
<g id="node15" class="node">
<title>https://w3id.org/oseg/ont/otrl#OTRL4</title>
<ellipse fill="none" stroke="#e377c2" cx="1552.56" cy="-195.06" rx="67.35" ry="16.03"/>
<text text-anchor="middle" x="1552.56" y="-191.36" font-family="Times,serif" font-size="14.00">otrl:OTRL4</text>
</g>
<!-- https://w3id.org/oseg/ont/otrl#OTRL4&#45;&gt;https://w3id.org/oseg/ont/otrl#OTRL -->
<g id="edge28" class="edge">
<title>https://w3id.org/oseg/ont/otrl#OTRL4&#45;&gt;https://w3id.org/oseg/ont/otrl#OTRL</title>
<path fill="none" stroke="black" d="M1532.39,-210.66C1497.36,-237.77 1425.19,-293.61 1385.29,-324.48"/>
<polygon fill="black" stroke="black" points="1383.06,-321.78 1377.29,-330.67 1387.34,-327.32 1383.06,-321.78"/>
</g>
<!-- https://w3id.org/oseg/ont/otrl#Odrl4 -->
<g id="node16" class="node">
<title>https://w3id.org/oseg/ont/otrl#Odrl4</title>
<ellipse fill="none" stroke="#e377c2" cx="821.04" cy="-980.53" rx="61.54" ry="16.03"/>
<text text-anchor="middle" x="821.04" y="-976.83" font-family="Times,serif" font-size="14.00">otrl:Odrl4</text>
</g>
<!-- https://w3id.org/oseg/ont/otrl#Odrl4&#45;&gt;https://w3id.org/oseg/ont/otrl#ODRL4 -->
<g id="edge10" class="edge">
<title>https://w3id.org/oseg/ont/otrl#Odrl4&#45;&gt;https://w3id.org/oseg/ont/otrl#ODRL4</title>
<path fill="none" stroke="black" d="M811.21,-963.99C794.79,-943.52 761.64,-908.85 737.12,-886.04"/>
<polygon fill="black" stroke="black" points="739.24,-883.24 729.49,-879.08 734.52,-888.41 739.24,-883.24"/>
<text text-anchor="middle" x="731.67" y="-913.81" font-family="Times,serif" font-size="14.00">owl:sameAs</text>
</g>
<!-- https://w3id.org/oseg/ont/otrl#Odrl4&#45;&gt;https://w3id.org/oseg/ont/otrl#ODRL4 -->
<g id="edge11" class="edge">
<title>https://w3id.org/oseg/ont/otrl#Odrl4&#45;&gt;https://w3id.org/oseg/ont/otrl#ODRL4</title>
<path fill="none" stroke="black" d="M799.1,-965.32C776.9,-945.55 743.3,-911.1 723.42,-887.78"/>
<polygon fill="black" stroke="black" points="726.07,-885.5 717,-880.03 720.68,-889.96 726.07,-885.5"/>
<text text-anchor="middle" x="681.26" y="-930.35" font-family="Times,serif" font-size="14.00">schema:supersededBy</text>
</g>
<!-- https://www.gnu.org/licenses/gpl&#45;3.0.txt -->
<g id="node17" class="node">
<title>https://www.gnu.org/licenses/gpl&#45;3.0.txt</title>
<ellipse fill="none" stroke="#e377c2" cx="1937.29" cy="-1054.75" rx="85.62" ry="16.03"/>
<text text-anchor="middle" x="1937.29" y="-1051.05" font-family="Times,serif" font-size="14.00">ns1:gpl&#45;3.0.txt</text>
</g>
<!-- https://orcid.org/0000&#45;0002&#45;1611&#45;7129 -->
<g id="node18" class="node">
<title>https://orcid.org/0000&#45;0002&#45;1611&#45;7129</title>
<ellipse fill="none" stroke="#e377c2" cx="1756.57" cy="-871.66" rx="113.69" ry="16.03"/>
<text text-anchor="middle" x="1756.57" y="-867.96" font-family="Times,serif" font-size="14.00">orcid:0000&#45;0002&#45;1...</text>
</g>
<!-- http://schema.org/Text -->
<g id="node19" class="node">
<title>http://schema.org/Text</title>
<ellipse fill="none" stroke="#e377c2" cx="933.06" cy="-300.21" rx="74.91" ry="16.03"/>
<text text-anchor="middle" x="933.06" y="-296.51" font-family="Times,serif" font-size="14.00">schema:Text</text>
</g>
<!-- https://w3id.org/oseg/ont/otrl#goal -->
<g id="node20" class="node">
<title>https://w3id.org/oseg/ont/otrl#goal</title>
<ellipse fill="none" stroke="#e377c2" cx="1074.33" cy="-484.7" rx="54.39" ry="16.03"/>
<text text-anchor="middle" x="1074.33" y="-481" font-family="Times,serif" font-size="14.00">otrl:goal</text>
</g>
<!-- https://w3id.org/oseg/ont/otrl#goal&#45;&gt;http://www.w3.org/2002/07/owl#DatatypeProperty -->
<g id="edge14" class="edge">
<title>https://w3id.org/oseg/ont/otrl#goal&#45;&gt;http://www.w3.org/2002/07/owl#DatatypeProperty</title>
<path fill="none" stroke="black" d="M1047.41,-470.51C1001.05,-446.08 905.95,-395.96 852.43,-367.76"/>
<polygon fill="black" stroke="black" points="854.05,-364.66 843.57,-363.09 850.79,-370.85 854.05,-364.66"/>
<text text-anchor="middle" x="945.42" y="-422.94" font-family="Times,serif" font-size="14.00">a</text>
</g>
<!-- https://w3id.org/oseg/ont/otrl#goal&#45;&gt;https://w3id.org/oseg/ont/otrl#ODRL -->
<g id="edge47" class="edge">
<title>https://w3id.org/oseg/ont/otrl#goal&#45;&gt;https://w3id.org/oseg/ont/otrl#ODRL</title>
<path fill="none" stroke="black" d="M1057.4,-500.42C1018.7,-536.37 923.61,-624.67 878.47,-666.59"/>
<polygon fill="black" stroke="black" points="875.84,-664.25 870.9,-673.62 880.61,-669.38 875.84,-664.25"/>
<text text-anchor="middle" x="881.93" y="-587.31" font-family="Times,serif" font-size="14.00">schema:domainIncludes</text>
</g>
<!-- https://w3id.org/oseg/ont/otrl#goal&#45;&gt;https://w3id.org/oseg/ont/otrl#OTRL -->
<g id="edge17" class="edge">
<title>https://w3id.org/oseg/ont/otrl#goal&#45;&gt;https://w3id.org/oseg/ont/otrl#OTRL</title>
<path fill="none" stroke="black" d="M1102.75,-470.79C1153.85,-445.77 1261.27,-393.17 1318.85,-364.98"/>
<polygon fill="black" stroke="black" points="1320.54,-368.05 1327.98,-360.51 1317.46,-361.76 1320.54,-368.05"/>
<text text-anchor="middle" x="1296.8" y="-421.68" font-family="Times,serif" font-size="14.00">schema:domainIncludes</text>
</g>
<!-- https://w3id.org/oseg/ont/otrl#goal&#45;&gt;http://schema.org/Text -->
<g id="edge37" class="edge">
<title>https://w3id.org/oseg/ont/otrl#goal&#45;&gt;http://schema.org/Text</title>
<path fill="none" stroke="black" d="M1062.04,-468.65C1037.21,-436.21 980.9,-362.69 951.59,-324.4"/>
<polygon fill="black" stroke="black" points="954.28,-322.17 945.43,-316.35 948.73,-326.42 954.28,-322.17"/>
<text text-anchor="middle" x="985.82" y="-400.33" font-family="Times,serif" font-size="14.00">range</text>
</g>
<!-- https://orcid.org/0009&#45;0004&#45;3559&#45;6542 -->
<g id="node21" class="node">
<title>https://orcid.org/0009&#45;0004&#45;3559&#45;6542</title>
<ellipse fill="none" stroke="#e377c2" cx="1780.94" cy="-957.2" rx="113.69" ry="16.03"/>
<text text-anchor="middle" x="1780.94" y="-953.5" font-family="Times,serif" font-size="14.00">orcid:0009&#45;0004&#45;3...</text>
</g>
<!-- https://w3id.org/oseg/ont/1.1.0/otrl -->
<g id="node22" class="node">
<title>https://w3id.org/oseg/ont/1.1.0/otrl</title>
<ellipse fill="none" stroke="#e377c2" cx="1874.11" cy="-766.5" rx="50.82" ry="16.03"/>
<text text-anchor="middle" x="1874.11" y="-762.8" font-family="Times,serif" font-size="14.00">ns2:otrl</text>
</g>
<!-- https://w3id.org/oseg/ont/otrl -->
<g id="node23" class="node">
<title>https://w3id.org/oseg/ont/otrl</title>
<ellipse fill="none" stroke="#e377c2" cx="1783.1" cy="-916.52" rx="50.82" ry="16.03"/>
<text text-anchor="middle" x="1783.1" y="-912.82" font-family="Times,serif" font-size="14.00">ns3:otrl</text>
</g>
<!-- https://w3id.org/oseg/ont/otrl&#45;&gt;http://www.w3.org/2002/07/owl#Ontology -->
<g id="edge40" class="edge">
<title>https://w3id.org/oseg/ont/otrl&#45;&gt;http://www.w3.org/2002/07/owl#Ontology</title>
<path fill="none" stroke="black" d="M1732.82,-919.51C1711.72,-920.76 1686.57,-922.25 1662.73,-923.67"/>
<polygon fill="black" stroke="black" points="1662.38,-920.18 1652.61,-924.27 1662.8,-927.17 1662.38,-920.18"/>
<text text-anchor="middle" x="1693.28" y="-925.39" font-family="Times,serif" font-size="14.00">a</text>
</g>
<!-- https://w3id.org/oseg/ont/otrl&#45;&gt;https://www.gnu.org/licenses/gpl&#45;3.0.txt -->
<g id="edge7" class="edge">
<title>https://w3id.org/oseg/ont/otrl&#45;&gt;https://www.gnu.org/licenses/gpl&#45;3.0.txt</title>
<path fill="none" stroke="black" d="M1794.83,-932.61C1818.11,-957.48 1870.34,-1004.88 1904.73,-1032.82"/>
<polygon fill="black" stroke="black" points="1902.63,-1035.63 1912.63,-1039.15 1907.01,-1030.17 1902.63,-1035.63"/>
<text text-anchor="middle" x="1793.28" y="-986.52" font-family="Times,serif" font-size="14.00">dcterms:license</text>
</g>
<!-- https://w3id.org/oseg/ont/otrl&#45;&gt;https://www.gnu.org/licenses/gpl&#45;3.0.txt -->
<g id="edge45" class="edge">
<title>https://w3id.org/oseg/ont/otrl&#45;&gt;https://www.gnu.org/licenses/gpl&#45;3.0.txt</title>
<path fill="none" stroke="black" d="M1806.41,-931.07C1837.09,-955.04 1890.22,-1002.59 1918.48,-1031.31"/>
<polygon fill="black" stroke="black" points="1915.98,-1033.76 1925.43,-1038.54 1921.02,-1028.9 1915.98,-1033.76"/>
<text text-anchor="middle" x="1897.45" y="-984.99" font-family="Times,serif" font-size="14.00">cc:license</text>
</g>
<!-- https://w3id.org/oseg/ont/otrl&#45;&gt;https://orcid.org/0000&#45;0002&#45;1611&#45;7129 -->
<g id="edge8" class="edge">
<title>https://w3id.org/oseg/ont/otrl&#45;&gt;https://orcid.org/0000&#45;0002&#45;1611&#45;7129</title>
<path fill="none" stroke="black" d="M1773.52,-900.33C1772.85,-899.2 1772.17,-898.04 1771.48,-896.88"/>
<polygon fill="black" stroke="black" points="1774.32,-894.81 1766.22,-887.98 1768.3,-898.37 1774.32,-894.81"/>
<text text-anchor="middle" x="1830" y="-887.4" font-family="Times,serif" font-size="14.00">dcterms:creator</text>
</g>
<!-- https://w3id.org/oseg/ont/otrl&#45;&gt;https://orcid.org/0009&#45;0004&#45;3559&#45;6542 -->
<g id="edge22" class="edge">
<title>https://w3id.org/oseg/ont/otrl&#45;&gt;https://orcid.org/0009&#45;0004&#45;3559&#45;6542</title>
<path fill="none" stroke="black" d="M1782.22,-933.07C1782.21,-933.23 1782.2,-933.39 1782.19,-933.55"/>
<polygon fill="black" stroke="black" points="1778.84,-930.63 1781.81,-940.8 1785.83,-931 1778.84,-930.63"/>
<text text-anchor="middle" x="1839.71" y="-922.11" font-family="Times,serif" font-size="14.00">dcterms:creator</text>
</g>
<!-- https://w3id.org/oseg/ont/otrl&#45;&gt;https://w3id.org/oseg/ont/1.1.0/otrl -->
<g id="edge34" class="edge">
<title>https://w3id.org/oseg/ont/otrl&#45;&gt;https://w3id.org/oseg/ont/1.1.0/otrl</title>
<path fill="none" stroke="black" d="M1792.84,-900.47C1808.63,-874.44 1839.94,-822.81 1858.76,-791.8"/>
<polygon fill="black" stroke="black" points="1861.97,-793.26 1864.16,-782.89 1855.98,-789.63 1861.97,-793.26"/>
<text text-anchor="middle" x="1774.3" y="-834.94" font-family="Times,serif" font-size="14.00">owl:versionIRI</text>
</g>
<!-- https://w3id.org/oseg/ont/otrl#exitCriteria -->
<g id="node24" class="node">
<title>https://w3id.org/oseg/ont/otrl#exitCriteria</title>
<ellipse fill="none" stroke="#e377c2" cx="1061.69" cy="-443.73" rx="91.43" ry="16.03"/>
<text text-anchor="middle" x="1061.69" y="-440.03" font-family="Times,serif" font-size="14.00">otrl:exitCriteria</text>
</g>
<!-- https://w3id.org/oseg/ont/otrl#exitCriteria&#45;&gt;http://www.w3.org/2002/07/owl#DatatypeProperty -->
<g id="edge50" class="edge">
<title>https://w3id.org/oseg/ont/otrl#exitCriteria&#45;&gt;http://www.w3.org/2002/07/owl#DatatypeProperty</title>
<path fill="none" stroke="black" d="M1023.48,-428.87C980.37,-412.12 910.14,-384.82 862.93,-366.47"/>
<polygon fill="black" stroke="black" points="864.11,-363.17 853.52,-362.81 861.57,-369.7 864.11,-363.17"/>
<text text-anchor="middle" x="938.7" y="-401.47" font-family="Times,serif" font-size="14.00">a</text>
</g>
<!-- https://w3id.org/oseg/ont/otrl#exitCriteria&#45;&gt;https://w3id.org/oseg/ont/otrl#ODRL -->
<g id="edge18" class="edge">
<title>https://w3id.org/oseg/ont/otrl#exitCriteria&#45;&gt;https://w3id.org/oseg/ont/otrl#ODRL</title>
<path fill="none" stroke="black" d="M1048.06,-459.85C1012.4,-502.01 916.2,-615.75 874.1,-665.52"/>
<polygon fill="black" stroke="black" points="871.38,-663.32 867.59,-673.21 876.72,-667.84 871.38,-663.32"/>
<text text-anchor="middle" x="875.08" y="-566.48" font-family="Times,serif" font-size="14.00">schema:domainIncludes</text>
</g>
<!-- https://w3id.org/oseg/ont/otrl#exitCriteria&#45;&gt;https://w3id.org/oseg/ont/otrl#OTRL -->
<g id="edge43" class="edge">
<title>https://w3id.org/oseg/ont/otrl#exitCriteria&#45;&gt;https://w3id.org/oseg/ont/otrl#OTRL</title>
<path fill="none" stroke="black" d="M1105.3,-429.34C1159.68,-411.39 1252.34,-380.8 1308.86,-362.15"/>
<polygon fill="black" stroke="black" points="1310.23,-365.38 1318.63,-358.93 1308.03,-358.74 1310.23,-365.38"/>
<text text-anchor="middle" x="1121.08" y="-384.54" font-family="Times,serif" font-size="14.00">schema:domainIncludes</text>
</g>
<!-- https://w3id.org/oseg/ont/otrl#exitCriteria&#45;&gt;http://schema.org/Text -->
<g id="edge12" class="edge">
<title>https://w3id.org/oseg/ont/otrl#exitCriteria&#45;&gt;http://schema.org/Text</title>
<path fill="none" stroke="black" d="M1047.19,-427.55C1024.61,-402.35 980.92,-353.6 954.63,-324.28"/>
<polygon fill="black" stroke="black" points="956.99,-321.67 947.71,-316.55 951.78,-326.34 956.99,-321.67"/>
<text text-anchor="middle" x="979.91" y="-379.71" font-family="Times,serif" font-size="14.00">range</text>
</g>
<!-- https://w3id.org/oseg/ont/otrl#Odrl2 -->
<g id="node25" class="node">
<title>https://w3id.org/oseg/ont/otrl#Odrl2</title>
<ellipse fill="none" stroke="black" cx="271.43" cy="-1045.6" rx="196.65" ry="16.03"/>
<text text-anchor="middle" x="271.43" y="-1041.9" font-family="Times,serif" font-size="14.00">https://w3id.org/oseg/ont/otrl#Odrl2</text>
</g>
<!-- https://w3id.org/oseg/ont/otrl#Odrl2&#45;&gt;https://w3id.org/oseg/ont/otrl#ODRL2 -->
<g id="edge1" class="edge">
<title>https://w3id.org/oseg/ont/otrl#Odrl2&#45;&gt;https://w3id.org/oseg/ont/otrl#ODRL2</title>
<path fill="none" stroke="black" d="M302.58,-1029.52C369.09,-989.43 523.75,-885.77 585.1,-840.15"/>
<polygon fill="black" stroke="black" points="587.23,-842.92 593.11,-834.11 583.02,-837.33 587.23,-842.92"/>
<text text-anchor="middle" x="401.34" y="-938.64" font-family="Times,serif" font-size="14.00">owl:sameAs</text>
</g>
<!-- https://w3id.org/oseg/ont/otrl#Odrl2&#45;&gt;https://w3id.org/oseg/ont/otrl#ODRL2 -->
<g id="edge4" class="edge">
<title>https://w3id.org/oseg/ont/otrl#Odrl2&#45;&gt;https://w3id.org/oseg/ont/otrl#ODRL2</title>
<path fill="none" stroke="black" d="M289.74,-1029.23C343.28,-988.4 499.98,-883.03 572.81,-838.45"/>
<polygon fill="black" stroke="black" points="574.95,-841.25 581.68,-833.07 571.32,-835.26 574.95,-841.25"/>
<text text-anchor="middle" x="351.28" y="-922.64" font-family="Times,serif" font-size="14.00">schema:supersededBy</text>
</g>
<!-- https://w3id.org/oseg/ont/otrl#Odrl -->
<g id="node26" class="node">
<title>https://w3id.org/oseg/ont/otrl#Odrl</title>
<ellipse fill="none" stroke="black" cx="467.13" cy="-729.14" rx="190.42" ry="16.03"/>
<text text-anchor="middle" x="467.13" y="-725.44" font-family="Times,serif" font-size="14.00">https://w3id.org/oseg/ont/otrl#Odrl</text>
</g>
<!-- https://w3id.org/oseg/ont/otrl#Odrl&#45;&gt;https://w3id.org/oseg/ont/otrl#ODRL -->
<g id="edge2" class="edge">
<title>https://w3id.org/oseg/ont/otrl#Odrl&#45;&gt;https://w3id.org/oseg/ont/otrl#ODRL</title>
<path fill="none" stroke="black" d="M622.9,-719.8C682.92,-714.01 747.97,-706.8 793.71,-700.68"/>
<polygon fill="black" stroke="black" points="794.3,-704.13 803.74,-699.31 793.36,-697.19 794.3,-704.13"/>
<text text-anchor="middle" x="788.3" y="-714.04" font-family="Times,serif" font-size="14.00">schema:supersededBy</text>
</g>
<!-- https://w3id.org/oseg/ont/otrl#Odrl&#45;&gt;https://w3id.org/oseg/ont/otrl#ODRL -->
<g id="edge36" class="edge">
<title>https://w3id.org/oseg/ont/otrl#Odrl&#45;&gt;https://w3id.org/oseg/ont/otrl#ODRL</title>
<path fill="none" stroke="black" d="M552.86,-714.57C621.29,-706.07 716.11,-696.43 780.94,-691.46"/>
<polygon fill="black" stroke="black" points="781.37,-694.94 791.08,-690.7 780.85,-687.96 781.37,-694.94"/>
<text text-anchor="middle" x="624.4" y="-691.81" font-family="Times,serif" font-size="14.00">owl:sameAs</text>
</g>
<!-- https://w3id.org/oseg/ont/otrl#Otrl1 -->
<g id="node27" class="node">
<title>https://w3id.org/oseg/ont/otrl#Otrl1</title>
<ellipse fill="none" stroke="black" cx="1436.25" cy="-139.2" rx="194.41" ry="16.03"/>
<text text-anchor="middle" x="1436.25" y="-135.5" font-family="Times,serif" font-size="14.00">https://w3id.org/oseg/ont/otrl#Otrl1</text>
</g>
<!-- https://w3id.org/oseg/ont/otrl#Otrl1&#45;&gt;https://w3id.org/oseg/ont/otrl#OTRL1 -->
<g id="edge3" class="edge">
<title>https://w3id.org/oseg/ont/otrl#Otrl1&#45;&gt;https://w3id.org/oseg/ont/otrl#OTRL1</title>
<path fill="none" stroke="black" d="M1412.08,-155.62C1408.57,-159.17 1405.06,-162.99 1401.84,-166.77"/>
<polygon fill="black" stroke="black" points="1398.87,-164.88 1395.36,-174.87 1404.34,-169.25 1398.87,-164.88"/>
<text text-anchor="middle" x="1486.96" y="-164.99" font-family="Times,serif" font-size="14.00">schema:supersededBy</text>
</g>
<!-- https://w3id.org/oseg/ont/otrl#Otrl1&#45;&gt;https://w3id.org/oseg/ont/otrl#OTRL1 -->
<g id="edge39" class="edge">
<title>https://w3id.org/oseg/ont/otrl#Otrl1&#45;&gt;https://w3id.org/oseg/ont/otrl#OTRL1</title>
<path fill="none" stroke="black" d="M1429.13,-155.52C1426.13,-159.57 1422.47,-163.98 1418.59,-168.28"/>
<polygon fill="black" stroke="black" points="1415.79,-166.14 1411.44,-175.8 1420.86,-170.97 1415.79,-166.14"/>
<text text-anchor="middle" x="1381.36" y="-165.7" font-family="Times,serif" font-size="14.00">owl:sameAs</text>
</g>
<!-- https://w3id.org/oseg/ont/otrl#Odrl5 -->
<g id="node28" class="node">
<title>https://w3id.org/oseg/ont/otrl#Odrl5</title>
<ellipse fill="none" stroke="black" cx="807.59" cy="-1023.03" rx="196.65" ry="16.03"/>
<text text-anchor="middle" x="807.59" y="-1019.33" font-family="Times,serif" font-size="14.00">https://w3id.org/oseg/ont/otrl#Odrl5</text>
</g>
<!-- https://w3id.org/oseg/ont/otrl#Odrl5&#45;&gt;https://w3id.org/oseg/ont/otrl#Odrl4 -->
<g id="edge5" class="edge">
<title>https://w3id.org/oseg/ont/otrl#Odrl5&#45;&gt;https://w3id.org/oseg/ont/otrl#Odrl4</title>
<path fill="none" stroke="black" d="M819.75,-1006.78C819.79,-1006.68 819.82,-1006.58 819.86,-1006.48"/>
<polygon fill="black" stroke="black" points="823.18,-1007.59 822.58,-997.01 816.45,-1005.66 823.18,-1007.59"/>
<text text-anchor="middle" x="777.3" y="-995.43" font-family="Times,serif" font-size="14.00">owl:sameAs</text>
</g>
<!-- https://w3id.org/oseg/ont/otrl#Odrl5&#45;&gt;https://w3id.org/oseg/ont/otrl#Odrl4 -->
<g id="edge24" class="edge">
<title>https://w3id.org/oseg/ont/otrl#Odrl5&#45;&gt;https://w3id.org/oseg/ont/otrl#Odrl4</title>
<path fill="none" stroke="black" d="M806.01,-1006.7C806.04,-1006.6 806.06,-1006.5 806.08,-1006.4"/>
<polygon fill="black" stroke="black" points="809.46,-1007.31 808.9,-996.73 802.74,-1005.35 809.46,-1007.31"/>
<text text-anchor="middle" x="886.05" y="-995.35" font-family="Times,serif" font-size="14.00">schema:supersededBy</text>
</g>
<!-- https://w3id.org/oseg/ont/otrl#Odrl1 -->
<g id="node29" class="node">
<title>https://w3id.org/oseg/ont/otrl#Odrl1</title>
<ellipse fill="none" stroke="black" cx="1124.46" cy="-979.31" rx="196.65" ry="16.03"/>
<text text-anchor="middle" x="1124.46" y="-975.61" font-family="Times,serif" font-size="14.00">https://w3id.org/oseg/ont/otrl#Odrl1</text>
</g>
<!-- https://w3id.org/oseg/ont/otrl#Odrl1&#45;&gt;https://w3id.org/oseg/ont/otrl#ODRL1 -->
<g id="edge9" class="edge">
<title>https://w3id.org/oseg/ont/otrl#Odrl1&#45;&gt;https://w3id.org/oseg/ont/otrl#ODRL1</title>
<path fill="none" stroke="black" d="M1112.75,-962.8C1108,-958.32 1102.27,-953.44 1096.32,-948.76"/>
<polygon fill="black" stroke="black" points="1098.24,-945.83 1088.15,-942.58 1094.01,-951.41 1098.24,-945.83"/>
<text text-anchor="middle" x="1147.04" y="-944.58" font-family="Times,serif" font-size="14.00">owl:sameAs</text>
</g>
<!-- https://w3id.org/oseg/ont/otrl#Odrl1&#45;&gt;https://w3id.org/oseg/ont/otrl#ODRL1 -->
<g id="edge21" class="edge">
<title>https://w3id.org/oseg/ont/otrl#Odrl1&#45;&gt;https://w3id.org/oseg/ont/otrl#ODRL1</title>
<path fill="none" stroke="black" d="M1092.79,-963.04C1087.55,-959.14 1082.26,-954.92 1077.45,-950.78"/>
<polygon fill="black" stroke="black" points="1079.68,-948.08 1069.9,-943.99 1074.99,-953.28 1079.68,-948.08"/>
<text text-anchor="middle" x="1005.12" y="-945.71" font-family="Times,serif" font-size="14.00">schema:supersededBy</text>
</g>
<!-- https://w3id.org/oseg/ont/otrl#Odrl3Star -->
<g id="node30" class="node">
<title>https://w3id.org/oseg/ont/otrl#Odrl3Star</title>
<ellipse fill="none" stroke="black" cx="1135.34" cy="-769.42" rx="218.49" ry="16.03"/>
<text text-anchor="middle" x="1135.34" y="-765.72" font-family="Times,serif" font-size="14.00">https://w3id.org/oseg/ont/otrl#Odrl3Star</text>
</g>
<!-- https://w3id.org/oseg/ont/otrl#Odrl3Star&#45;&gt;https://w3id.org/oseg/ont/otrl#ODRL3Star -->
<g id="edge13" class="edge">
<title>https://w3id.org/oseg/ont/otrl#Odrl3Star&#45;&gt;https://w3id.org/oseg/ont/otrl#ODRL3Star</title>
<path fill="none" stroke="black" d="M1121.44,-752.99C1117.28,-749.64 1112.5,-746.09 1107.51,-742.62"/>
<polygon fill="black" stroke="black" points="1109.25,-739.57 1098.99,-736.9 1105.35,-745.38 1109.25,-739.57"/>
<text text-anchor="middle" x="1194.48" y="-736.61" font-family="Times,serif" font-size="14.00">schema:supersededBy</text>
</g>
<!-- https://w3id.org/oseg/ont/otrl#Odrl3Star&#45;&gt;https://w3id.org/oseg/ont/otrl#ODRL3Star -->
<g id="edge29" class="edge">
<title>https://w3id.org/oseg/ont/otrl#Odrl3Star&#45;&gt;https://w3id.org/oseg/ont/otrl#ODRL3Star</title>
<path fill="none" stroke="black" d="M1099.42,-753.37C1094.85,-750.39 1090.29,-747.23 1086.04,-744.1"/>
<polygon fill="black" stroke="black" points="1087.9,-741.11 1077.84,-737.78 1083.63,-746.66 1087.9,-741.11"/>
<text text-anchor="middle" x="1050.23" y="-737.53" font-family="Times,serif" font-size="14.00">owl:sameAs</text>
</g>
<!-- https://w3id.org/oseg/ont/otrl#Odrl3 -->
<g id="node31" class="node">
<title>https://w3id.org/oseg/ont/otrl#Odrl3</title>
<ellipse fill="none" stroke="black" cx="196.41" cy="-519.63" rx="196.65" ry="16.03"/>
<text text-anchor="middle" x="196.41" y="-515.93" font-family="Times,serif" font-size="14.00">https://w3id.org/oseg/ont/otrl#Odrl3</text>
</g>
<!-- https://w3id.org/oseg/ont/otrl#Odrl3&#45;&gt;https://w3id.org/oseg/ont/otrl#ODRL3 -->
<g id="edge15" class="edge">
<title>https://w3id.org/oseg/ont/otrl#Odrl3&#45;&gt;https://w3id.org/oseg/ont/otrl#ODRL3</title>
<path fill="none" stroke="black" d="M246.53,-535.41C316.53,-553.31 443.9,-581.37 523.37,-596.56"/>
<polygon fill="black" stroke="black" points="522.82,-600.02 533.29,-598.44 524.12,-593.14 522.82,-600.02"/>
<text text-anchor="middle" x="342.45" y="-569.79" font-family="Times,serif" font-size="14.00">owl:sameAs</text>
</g>
<!-- https://w3id.org/oseg/ont/otrl#Odrl3&#45;&gt;https://w3id.org/oseg/ont/otrl#ODRL3 -->
<g id="edge16" class="edge">
<title>https://w3id.org/oseg/ont/otrl#Odrl3&#45;&gt;https://w3id.org/oseg/ont/otrl#ODRL3</title>
<path fill="none" stroke="black" d="M289.29,-534.03C368.59,-549.77 479.62,-574.43 543.36,-590.72"/>
<polygon fill="black" stroke="black" points="542.61,-594.14 553.17,-593.26 544.36,-587.36 542.61,-594.14"/>
<text text-anchor="middle" x="336.32" y="-551.17" font-family="Times,serif" font-size="14.00">schema:supersededBy</text>
</g>
<!-- https://w3id.org/oseg/ont/otrl#Otrl4 -->
<g id="node32" class="node">
<title>https://w3id.org/oseg/ont/otrl#Otrl4</title>
<ellipse fill="none" stroke="black" cx="1773.83" cy="-16.27" rx="194.41" ry="16.03"/>
<text text-anchor="middle" x="1773.83" y="-12.57" font-family="Times,serif" font-size="14.00">https://w3id.org/oseg/ont/otrl#Otrl4</text>
</g>
<!-- https://w3id.org/oseg/ont/otrl#Otrl4&#45;&gt;https://w3id.org/oseg/ont/otrl#OTRL4 -->
<g id="edge19" class="edge">
<title>https://w3id.org/oseg/ont/otrl#Otrl4&#45;&gt;https://w3id.org/oseg/ont/otrl#OTRL4</title>
<path fill="none" stroke="black" d="M1746.52,-32.64C1701.85,-64.75 1614.3,-135.5 1573.86,-172.19"/>
<polygon fill="black" stroke="black" points="1571.4,-169.7 1566.43,-179.05 1576.15,-174.84 1571.4,-169.7"/>
<text text-anchor="middle" x="1617.69" y="-106.22" font-family="Times,serif" font-size="14.00">owl:sameAs</text>
</g>
<!-- https://w3id.org/oseg/ont/otrl#Otrl4&#45;&gt;https://w3id.org/oseg/ont/otrl#OTRL4 -->
<g id="edge38" class="edge">
<title>https://w3id.org/oseg/ont/otrl#Otrl4&#45;&gt;https://w3id.org/oseg/ont/otrl#OTRL4</title>
<path fill="none" stroke="black" d="M1759.57,-32.64C1724.86,-65.28 1635.65,-137.82 1586.39,-173.95"/>
<polygon fill="black" stroke="black" points="1584.31,-171.14 1578.26,-179.84 1588.41,-176.81 1584.31,-171.14"/>
<text text-anchor="middle" x="1752.98" y="-107.1" font-family="Times,serif" font-size="14.00">schema:supersededBy</text>
</g>
<!-- https://w3id.org/oseg/ont/otrl#Otrl5 -->
<g id="node33" class="node">
<title>https://w3id.org/oseg/ont/otrl#Otrl5</title>
<ellipse fill="none" stroke="black" cx="1548.85" cy="-504.09" rx="194.41" ry="16.03"/>
<text text-anchor="middle" x="1548.85" y="-500.39" font-family="Times,serif" font-size="14.00">https://w3id.org/oseg/ont/otrl#Otrl5</text>
</g>
<!-- https://w3id.org/oseg/ont/otrl#Otrl5&#45;&gt;https://w3id.org/oseg/ont/otrl#OTRL5 -->
<g id="edge25" class="edge">
<title>https://w3id.org/oseg/ont/otrl#Otrl5&#45;&gt;https://w3id.org/oseg/ont/otrl#OTRL5</title>
<path fill="none" stroke="black" d="M1540.34,-487.66C1538.91,-486.02 1537.37,-484.34 1535.75,-482.65"/>
<polygon fill="black" stroke="black" points="1537.87,-479.84 1528.27,-475.37 1532.99,-484.85 1537.87,-479.84"/>
<text text-anchor="middle" x="1580.54" y="-473.96" font-family="Times,serif" font-size="14.00">owl:sameAs</text>
</g>
<!-- https://w3id.org/oseg/ont/otrl#Otrl5&#45;&gt;https://w3id.org/oseg/ont/otrl#OTRL5 -->
<g id="edge48" class="edge">
<title>https://w3id.org/oseg/ont/otrl#Otrl5&#45;&gt;https://w3id.org/oseg/ont/otrl#OTRL5</title>
<path fill="none" stroke="black" d="M1521.8,-487.8C1520.42,-486.51 1519.06,-485.2 1517.73,-483.87"/>
<polygon fill="black" stroke="black" points="1520.06,-481.24 1510.67,-476.33 1514.95,-486.02 1520.06,-481.24"/>
<text text-anchor="middle" x="1439.76" y="-474.64" font-family="Times,serif" font-size="14.00">schema:supersededBy</text>
</g>
<!-- https://w3id.org/oseg/ont/otrl#Otrl -->
<g id="node34" class="node">
<title>https://w3id.org/oseg/ont/otrl#Otrl</title>
<ellipse fill="none" stroke="black" cx="1371.37" cy="-400.54" rx="188.18" ry="16.03"/>
<text text-anchor="middle" x="1371.37" y="-396.84" font-family="Times,serif" font-size="14.00">https://w3id.org/oseg/ont/otrl#Otrl</text>
</g>
<!-- https://w3id.org/oseg/ont/otrl#Otrl&#45;&gt;https://w3id.org/oseg/ont/otrl#OTRL -->
<g id="edge26" class="edge">
<title>https://w3id.org/oseg/ont/otrl#Otrl&#45;&gt;https://w3id.org/oseg/ont/otrl#OTRL</title>
<path fill="none" stroke="black" d="M1373.4,-384.15C1372.86,-380.4 1372.02,-376.33 1370.99,-372.29"/>
<polygon fill="black" stroke="black" points="1374.29,-371.09 1368.08,-362.51 1367.58,-373.09 1374.29,-371.09"/>
<text text-anchor="middle" x="1292.2" y="-367.02" font-family="Times,serif" font-size="14.00">schema:supersededBy</text>
</g>
<!-- https://w3id.org/oseg/ont/otrl#Otrl&#45;&gt;https://w3id.org/oseg/ont/otrl#OTRL -->
<g id="edge53" class="edge">
<title>https://w3id.org/oseg/ont/otrl#Otrl&#45;&gt;https://w3id.org/oseg/ont/otrl#OTRL</title>
<path fill="none" stroke="black" d="M1360.46,-384.05C1359.23,-380.45 1358.1,-376.55 1357.17,-372.67"/>
<polygon fill="black" stroke="black" points="1360.57,-371.81 1355.21,-362.66 1353.7,-373.15 1360.57,-371.81"/>
<text text-anchor="middle" x="1401.32" y="-367.16" font-family="Times,serif" font-size="14.00">owl:sameAs</text>
</g>
<!-- https://w3id.org/oseg/ont/otrl#Otrl6 -->
<g id="node35" class="node">
<title>https://w3id.org/oseg/ont/otrl#Otrl6</title>
<ellipse fill="none" stroke="black" cx="1107.7" cy="-75.97" rx="194.41" ry="16.03"/>
<text text-anchor="middle" x="1107.7" y="-72.27" font-family="Times,serif" font-size="14.00">https://w3id.org/oseg/ont/otrl#Otrl6</text>
</g>
<!-- https://w3id.org/oseg/ont/otrl#Otrl6&#45;&gt;https://w3id.org/oseg/ont/otrl#OTRL6 -->
<g id="edge31" class="edge">
<title>https://w3id.org/oseg/ont/otrl#Otrl6&#45;&gt;https://w3id.org/oseg/ont/otrl#OTRL6</title>
<path fill="none" stroke="black" d="M1116.52,-92.55C1117.11,-93.2 1117.72,-93.86 1118.35,-94.52"/>
<polygon fill="black" stroke="black" points="1115.95,-97.08 1125.54,-101.59 1120.85,-92.08 1115.95,-97.08"/>
<text text-anchor="middle" x="1074.93" y="-97.34" font-family="Times,serif" font-size="14.00">owl:sameAs</text>
</g>
<!-- https://w3id.org/oseg/ont/otrl#Otrl6&#45;&gt;https://w3id.org/oseg/ont/otrl#OTRL6 -->
<g id="edge35" class="edge">
<title>https://w3id.org/oseg/ont/otrl#Otrl6&#45;&gt;https://w3id.org/oseg/ont/otrl#OTRL6</title>
<path fill="none" stroke="black" d="M1135.16,-92.11C1135.43,-92.36 1135.69,-92.61 1135.96,-92.86"/>
<polygon fill="black" stroke="black" points="1133.65,-95.5 1143.15,-100.2 1138.65,-90.61 1133.65,-95.5"/>
<text text-anchor="middle" x="1215.56" y="-96.28" font-family="Times,serif" font-size="14.00">schema:supersededBy</text>
</g>
<!-- https://w3id.org/oseg/ont/otrl#Otrl2 -->
<g id="node36" class="node">
<title>https://w3id.org/oseg/ont/otrl#Otrl2</title>
<ellipse fill="none" stroke="black" cx="2063.57" cy="-81.26" rx="194.41" ry="16.03"/>
<text text-anchor="middle" x="2063.57" y="-77.56" font-family="Times,serif" font-size="14.00">https://w3id.org/oseg/ont/otrl#Otrl2</text>
</g>
<!-- https://w3id.org/oseg/ont/otrl#Otrl2&#45;&gt;https://w3id.org/oseg/ont/otrl#OTRL2 -->
<g id="edge44" class="edge">
<title>https://w3id.org/oseg/ont/otrl#Otrl2&#45;&gt;https://w3id.org/oseg/ont/otrl#OTRL2</title>
<path fill="none" stroke="black" d="M2010.98,-96.92C1927.22,-126.64 1765.6,-190.29 1692.59,-222.49"/>
<polygon fill="black" stroke="black" points="1691.01,-219.36 1683.3,-226.63 1693.86,-225.75 1691.01,-219.36"/>
<text text-anchor="middle" x="1809.28" y="-163.51" font-family="Times,serif" font-size="14.00">owl:sameAs</text>
</g>
<!-- https://w3id.org/oseg/ont/otrl#Otrl2&#45;&gt;https://w3id.org/oseg/ont/otrl#OTRL2 -->
<g id="edge46" class="edge">
<title>https://w3id.org/oseg/ont/otrl#Otrl2&#45;&gt;https://w3id.org/oseg/ont/otrl#OTRL2</title>
<path fill="none" stroke="black" d="M2032.93,-97.42C1963.81,-128.41 1795.11,-194.97 1708.46,-225.75"/>
<polygon fill="black" stroke="black" points="1707.08,-222.52 1698.81,-229.14 1709.41,-229.12 1707.08,-222.52"/>
<text text-anchor="middle" x="1950.69" y="-165.38" font-family="Times,serif" font-size="14.00">schema:supersededBy</text>
</g>
<!-- https://w3id.org/oseg/ont/otrl#Otrl3 -->
<g id="node37" class="node">
<title>https://w3id.org/oseg/ont/otrl#Otrl3</title>
<ellipse fill="none" stroke="black" cx="2029.05" cy="-487.63" rx="194.41" ry="16.03"/>
<text text-anchor="middle" x="2029.05" y="-483.93" font-family="Times,serif" font-size="14.00">https://w3id.org/oseg/ont/otrl#Otrl3</text>
</g>
<!-- https://w3id.org/oseg/ont/otrl#Otrl3&#45;&gt;https://w3id.org/oseg/ont/otrl#OTRL3 -->
<g id="edge49" class="edge">
<title>https://w3id.org/oseg/ont/otrl#Otrl3&#45;&gt;https://w3id.org/oseg/ont/otrl#OTRL3</title>
<path fill="none" stroke="black" d="M1979.13,-471.87C1912.19,-454.79 1793.03,-428.64 1717.51,-414.31"/>
<polygon fill="black" stroke="black" points="1718.09,-410.86 1707.61,-412.46 1716.8,-417.74 1718.09,-410.86"/>
<text text-anchor="middle" x="1805.82" y="-431.89" font-family="Times,serif" font-size="14.00">owl:sameAs</text>
</g>
<!-- https://w3id.org/oseg/ont/otrl#Otrl3&#45;&gt;https://w3id.org/oseg/ont/otrl#OTRL3 -->
<g id="edge51" class="edge">
<title>https://w3id.org/oseg/ont/otrl#Otrl3&#45;&gt;https://w3id.org/oseg/ont/otrl#OTRL3</title>
<path fill="none" stroke="black" d="M1935.67,-473.3C1860.69,-458.46 1758.34,-435.78 1698.23,-420.43"/>
<polygon fill="black" stroke="black" points="1698.79,-416.96 1688.23,-417.84 1697.04,-423.74 1698.79,-416.96"/>
<text text-anchor="middle" x="1736.95" y="-450.67" font-family="Times,serif" font-size="14.00">schema:supersededBy</text>
</g>
</g>
</svg>
