<?xml version="1.0" encoding="UTF-8" standalone="no"?>
<!DOCTYPE svg PUBLIC "-//W3C//DTD SVG 1.1//EN"
 "http://www.w3.org/Graphics/SVG/1.1/DTD/svg11.dtd">
<!-- Generated by graphviz version 2.43.0 (0)
 -->
<!-- Title: G Pages: 1 -->
<svg width="765pt" height="338pt"
 viewBox="0.00 0.00 764.76 338.00" xmlns="http://www.w3.org/2000/svg" xmlns:xlink="http://www.w3.org/1999/xlink">
<g id="graph0" class="graph" transform="scale(1 1) rotate(0) translate(4 334)">
<title>G</title>
<polygon fill="white" stroke="transparent" points="-4,4 -4,-334 760.76,-334 760.76,4 -4,4"/>
<!-- http://purl.org/oseg/ontologies/OTRL#OTRL -->
<g id="node1" class="node">
<title>http://purl.org/oseg/ontologies/OTRL#OTRL</title>
<ellipse fill="none" stroke="#e377c2" cx="181.06" cy="-123.23" rx="39.7" ry="16.03"/>
<text text-anchor="middle" x="181.06" y="-119.53" font-family="Times,serif" font-size="14.00">OTRL</text>
</g>
<!-- http://www.w3.org/2002/07/owl#class -->
<g id="node4" class="node">
<title>http://www.w3.org/2002/07/owl#class</title>
<ellipse fill="none" stroke="#1f77b4" cx="187.29" cy="-163.87" rx="57.05" ry="16.03"/>
<text text-anchor="middle" x="187.29" y="-160.17" font-family="Times,serif" font-size="14.00">owl:class</text>
</g>
<!-- http://purl.org/oseg/ontologies/OTRL#OTRL&#45;&gt;http://www.w3.org/2002/07/owl#class -->
<g id="edge26" class="edge">
<title>http://purl.org/oseg/ontologies/OTRL#OTRL&#45;&gt;http://www.w3.org/2002/07/owl#class</title>
<path fill="none" stroke="black" d="M183.6,-139.76C183.62,-139.92 183.64,-140.08 183.67,-140.24"/>
<polygon fill="black" stroke="black" points="179.81,-138.13 184.78,-147.48 186.72,-137.07 179.81,-138.13"/>
<text text-anchor="middle" x="179.13" y="-143.8" font-family="Times,serif" font-size="14.00">a</text>
</g>
<!-- http://www.w3.org/2002/07/owl#Ontology -->
<g id="node2" class="node">
<title>http://www.w3.org/2002/07/owl#Ontology</title>
<ellipse fill="none" stroke="#1f77b4" cx="427.32" cy="-313.47" rx="77.56" ry="16.03"/>
<text text-anchor="middle" x="427.32" y="-309.77" font-family="Times,serif" font-size="14.00">owl:Ontology</text>
</g>
<!-- http://www.w3.org/2002/07/owl#DatatypeProperty -->
<g id="node3" class="node">
<title>http://www.w3.org/2002/07/owl#DatatypeProperty</title>
<ellipse fill="none" stroke="#1f77b4" cx="447.82" cy="-131.42" rx="123.07" ry="16.03"/>
<text text-anchor="middle" x="447.82" y="-127.72" font-family="Times,serif" font-size="14.00">owl:DatatypeProperty</text>
</g>
<!-- http://purl.org/oseg/ontologies/OTRL#ODRL -->
<g id="node5" class="node">
<title>http://purl.org/oseg/ontologies/OTRL#ODRL</title>
<ellipse fill="none" stroke="#e377c2" cx="193.19" cy="-204.43" rx="41.94" ry="16.03"/>
<text text-anchor="middle" x="193.19" y="-200.73" font-family="Times,serif" font-size="14.00">ODRL</text>
</g>
<!-- http://purl.org/oseg/ontologies/OTRL#ODRL&#45;&gt;http://www.w3.org/2002/07/owl#class -->
<g id="edge19" class="edge">
<title>http://purl.org/oseg/ontologies/OTRL#ODRL&#45;&gt;http://www.w3.org/2002/07/owl#class</title>
<path fill="none" stroke="black" d="M190.79,-187.93C190.77,-187.77 190.74,-187.61 190.72,-187.45"/>
<polygon fill="black" stroke="black" points="194.57,-189.61 189.67,-180.22 187.64,-190.62 194.57,-189.61"/>
<text text-anchor="middle" x="186.26" y="-176.49" font-family="Times,serif" font-size="14.00">a</text>
</g>
<!-- http://purl.org/oseg/ontologies/OTRL#ODRL&#45;1 -->
<g id="node6" class="node">
<title>http://purl.org/oseg/ontologies/OTRL#ODRL&#45;1</title>
<ellipse fill="none" stroke="#e377c2" cx="217.52" cy="-245.08" rx="50.82" ry="16.03"/>
<text text-anchor="middle" x="217.52" y="-241.38" font-family="Times,serif" font-size="14.00">ODRL&#45;1</text>
</g>
<!-- http://purl.org/oseg/ontologies/OTRL#ODRL&#45;1&#45;&gt;http://www.w3.org/2002/07/owl#class -->
<g id="edge1" class="edge">
<title>http://purl.org/oseg/ontologies/OTRL#ODRL&#45;1&#45;&gt;http://www.w3.org/2002/07/owl#class</title>
<path fill="none" stroke="black" d="M211.4,-228.65C207.27,-217.53 201.71,-202.61 196.98,-189.89"/>
<polygon fill="black" stroke="black" points="200.17,-188.43 193.4,-180.28 193.61,-190.87 200.17,-188.43"/>
<text text-anchor="middle" x="199.69" y="-213.07" font-family="Times,serif" font-size="14.00">a</text>
</g>
<!-- http://purl.org/oseg/ontologies/OTRL#ODRL&#45;1&#45;&gt;http://purl.org/oseg/ontologies/OTRL#ODRL -->
<g id="edge3" class="edge">
<title>http://purl.org/oseg/ontologies/OTRL#ODRL&#45;1&#45;&gt;http://purl.org/oseg/ontologies/OTRL#ODRL</title>
<path fill="none" stroke="black" d="M207.9,-229.02C207.85,-228.93 207.8,-228.84 207.74,-228.75"/>
<polygon fill="black" stroke="black" points="210.87,-227.16 202.74,-220.38 204.87,-230.76 210.87,-227.16"/>
</g>
<!-- http://www.w3.org/1999/02/22&#45;rdf&#45;syntax&#45;ns#nil -->
<g id="node7" class="node">
<title>http://www.w3.org/1999/02/22&#45;rdf&#45;syntax&#45;ns#nil</title>
<ellipse fill="none" stroke="#e377c2" cx="367.24" cy="-16.64" rx="42.35" ry="16.03"/>
<text text-anchor="middle" x="367.24" y="-12.94" font-family="Times,serif" font-size="14.00">rdf:nil</text>
</g>
<!-- http://schema.org/Text -->
<g id="node8" class="node">
<title>http://schema.org/Text</title>
<ellipse fill="none" stroke="#e377c2" cx="596.34" cy="-205.12" rx="74.91" ry="16.03"/>
<text text-anchor="middle" x="596.34" y="-201.42" font-family="Times,serif" font-size="14.00">schema:Text</text>
</g>
<!-- http://purl.org/oseg/ontologies/OTRL#ODRL&#45;3 -->
<g id="node9" class="node">
<title>http://purl.org/oseg/ontologies/OTRL#ODRL&#45;3</title>
<ellipse fill="none" stroke="#e377c2" cx="264.41" cy="-305.38" rx="50.82" ry="16.03"/>
<text text-anchor="middle" x="264.41" y="-301.68" font-family="Times,serif" font-size="14.00">ODRL&#45;3</text>
</g>
<!-- http://purl.org/oseg/ontologies/OTRL#ODRL&#45;3&#45;&gt;http://www.w3.org/2002/07/owl#class -->
<g id="edge17" class="edge">
<title>http://purl.org/oseg/ontologies/OTRL#ODRL&#45;3&#45;&gt;http://www.w3.org/2002/07/owl#class</title>
<path fill="none" stroke="black" d="M255.56,-289.14C242.27,-264.75 217.02,-218.42 201.23,-189.45"/>
<polygon fill="black" stroke="black" points="204.13,-187.45 196.27,-180.35 197.98,-190.8 204.13,-187.45"/>
<text text-anchor="middle" x="223.9" y="-228.1" font-family="Times,serif" font-size="14.00">a</text>
</g>
<!-- http://purl.org/oseg/ontologies/OTRL#ODRL&#45;3&#45;&gt;http://purl.org/oseg/ontologies/OTRL#ODRL -->
<g id="edge20" class="edge">
<title>http://purl.org/oseg/ontologies/OTRL#ODRL&#45;3&#45;&gt;http://purl.org/oseg/ontologies/OTRL#ODRL</title>
<path fill="none" stroke="black" d="M252.96,-289.16C241.42,-272.8 223.47,-247.35 210.25,-228.61"/>
<polygon fill="black" stroke="black" points="212.99,-226.43 204.37,-220.28 207.27,-230.46 212.99,-226.43"/>
</g>
<!-- http://purl.org/oseg/ontologies/OTRL#ODRL&#45;5 -->
<g id="node10" class="node">
<title>http://purl.org/oseg/ontologies/OTRL#ODRL&#45;5</title>
<ellipse fill="none" stroke="#e377c2" cx="132.34" cy="-312.97" rx="50.82" ry="16.03"/>
<text text-anchor="middle" x="132.34" y="-309.27" font-family="Times,serif" font-size="14.00">ODRL&#45;5</text>
</g>
<!-- http://purl.org/oseg/ontologies/OTRL#ODRL&#45;5&#45;&gt;http://www.w3.org/2002/07/owl#class -->
<g id="edge18" class="edge">
<title>http://purl.org/oseg/ontologies/OTRL#ODRL&#45;5&#45;&gt;http://www.w3.org/2002/07/owl#class</title>
<path fill="none" stroke="black" d="M138.33,-296.73C147.82,-270.96 166.43,-220.48 177.77,-189.71"/>
<polygon fill="black" stroke="black" points="181.14,-190.68 181.31,-180.09 174.57,-188.26 181.14,-190.68"/>
<text text-anchor="middle" x="153.55" y="-247.02" font-family="Times,serif" font-size="14.00">a</text>
</g>
<!-- http://purl.org/oseg/ontologies/OTRL#ODRL&#45;5&#45;&gt;http://purl.org/oseg/ontologies/OTRL#ODRL -->
<g id="edge22" class="edge">
<title>http://purl.org/oseg/ontologies/OTRL#ODRL&#45;5&#45;&gt;http://purl.org/oseg/ontologies/OTRL#ODRL</title>
<path fill="none" stroke="black" d="M141.32,-296.96C151.29,-279.16 167.53,-250.2 179.18,-229.41"/>
<polygon fill="black" stroke="black" points="182.34,-230.95 184.17,-220.51 176.23,-227.52 182.34,-230.95"/>
</g>
<!-- http://purl.org/oseg/ontologies/OTRL#exitCriteria -->
<g id="node11" class="node">
<title>http://purl.org/oseg/ontologies/OTRL#exitCriteria</title>
<ellipse fill="none" stroke="#e377c2" cx="450.93" cy="-90.88" rx="70.01" ry="16.03"/>
<text text-anchor="middle" x="450.93" y="-87.18" font-family="Times,serif" font-size="14.00">exitCriteria</text>
</g>
<!-- http://purl.org/oseg/ontologies/OTRL#exitCriteria&#45;&gt;http://www.w3.org/2002/07/owl#DatatypeProperty -->
<g id="edge4" class="edge">
<title>http://purl.org/oseg/ontologies/OTRL#exitCriteria&#45;&gt;http://www.w3.org/2002/07/owl#DatatypeProperty</title>
<path fill="none" stroke="black" d="M449.67,-107.37C449.65,-107.52 449.64,-107.68 449.63,-107.84"/>
<polygon fill="black" stroke="black" points="446.35,-104.84 449.07,-115.07 453.33,-105.37 446.35,-104.84"/>
<text text-anchor="middle" x="445.15" y="-111.4" font-family="Times,serif" font-size="14.00">a</text>
</g>
<!-- http://purl.org/oseg/ontologies/OTRL#exitCriteria&#45;&gt;http://schema.org/Text -->
<g id="edge16" class="edge">
<title>http://purl.org/oseg/ontologies/OTRL#exitCriteria&#45;&gt;http://schema.org/Text</title>
<path fill="none" stroke="black" d="M470.84,-106.52C496.05,-126.32 539.61,-160.55 568.2,-183.01"/>
<polygon fill="black" stroke="black" points="566.17,-185.87 576.2,-189.3 570.5,-180.37 566.17,-185.87"/>
<text text-anchor="middle" x="540.52" y="-148.57" font-family="Times,serif" font-size="14.00">range</text>
</g>
<!-- http://purl.org/oseg/ontologies/OTRL#OTRL&#45;2 -->
<g id="node12" class="node">
<title>http://purl.org/oseg/ontologies/OTRL#OTRL&#45;2</title>
<ellipse fill="none" stroke="#e377c2" cx="49.3" cy="-109.55" rx="49.49" ry="16.03"/>
<text text-anchor="middle" x="49.3" y="-105.85" font-family="Times,serif" font-size="14.00">OTRL&#45;2</text>
</g>
<!-- http://purl.org/oseg/ontologies/OTRL#OTRL&#45;2&#45;&gt;http://purl.org/oseg/ontologies/OTRL#OTRL -->
<g id="edge11" class="edge">
<title>http://purl.org/oseg/ontologies/OTRL#OTRL&#45;2&#45;&gt;http://purl.org/oseg/ontologies/OTRL#OTRL</title>
<path fill="none" stroke="black" d="M96.5,-114.45C108.15,-115.66 120.65,-116.96 132.37,-118.17"/>
<polygon fill="black" stroke="black" points="132.12,-121.67 142.43,-119.22 132.84,-114.7 132.12,-121.67"/>
</g>
<!-- http://purl.org/oseg/ontologies/OTRL#OTRL&#45;2&#45;&gt;http://www.w3.org/2002/07/owl#class -->
<g id="edge5" class="edge">
<title>http://purl.org/oseg/ontologies/OTRL#OTRL&#45;2&#45;&gt;http://www.w3.org/2002/07/owl#class</title>
<path fill="none" stroke="black" d="M81.3,-122.14C100,-129.5 123.84,-138.89 144.17,-146.89"/>
<polygon fill="black" stroke="black" points="142.95,-150.17 153.53,-150.58 145.51,-143.66 142.95,-150.17"/>
<text text-anchor="middle" x="108.24" y="-138.32" font-family="Times,serif" font-size="14.00">a</text>
</g>
<!-- http://purl.org/oseg/ontologies/OTRL#ODRL&#45;4 -->
<g id="node13" class="node">
<title>http://purl.org/oseg/ontologies/OTRL#ODRL&#45;4</title>
<ellipse fill="none" stroke="#e377c2" cx="328.03" cy="-216.75" rx="50.82" ry="16.03"/>
<text text-anchor="middle" x="328.03" y="-213.05" font-family="Times,serif" font-size="14.00">ODRL&#45;4</text>
</g>
<!-- http://purl.org/oseg/ontologies/OTRL#ODRL&#45;4&#45;&gt;http://www.w3.org/2002/07/owl#class -->
<g id="edge6" class="edge">
<title>http://purl.org/oseg/ontologies/OTRL#ODRL&#45;4&#45;&gt;http://www.w3.org/2002/07/owl#class</title>
<path fill="none" stroke="black" d="M295.03,-204.35C276.1,-197.24 252.07,-188.21 231.52,-180.49"/>
<polygon fill="black" stroke="black" points="232.64,-177.17 222.05,-176.93 230.18,-183.72 232.64,-177.17"/>
<text text-anchor="middle" x="258.77" y="-196.22" font-family="Times,serif" font-size="14.00">a</text>
</g>
<!-- http://purl.org/oseg/ontologies/OTRL#ODRL&#45;4&#45;&gt;http://purl.org/oseg/ontologies/OTRL#ODRL -->
<g id="edge9" class="edge">
<title>http://purl.org/oseg/ontologies/OTRL#ODRL&#45;4&#45;&gt;http://purl.org/oseg/ontologies/OTRL#ODRL</title>
<path fill="none" stroke="black" d="M278.97,-212.27C267.67,-211.24 255.62,-210.13 244.24,-209.09"/>
<polygon fill="black" stroke="black" points="244.29,-205.58 234.01,-208.16 243.65,-212.56 244.29,-205.58"/>
</g>
<!-- http://purl.org/oseg/ontologies/OTRL -->
<g id="node14" class="node">
<title>http://purl.org/oseg/ontologies/OTRL</title>
<ellipse fill="none" stroke="#e377c2" cx="574.95" cy="-291.42" rx="60.62" ry="16.03"/>
<text text-anchor="middle" x="574.95" y="-287.72" font-family="Times,serif" font-size="14.00">ns1:OTRL</text>
</g>
<!-- http://purl.org/oseg/ontologies/OTRL&#45;&gt;http://www.w3.org/2002/07/owl#Ontology -->
<g id="edge7" class="edge">
<title>http://purl.org/oseg/ontologies/OTRL&#45;&gt;http://www.w3.org/2002/07/owl#Ontology</title>
<path fill="none" stroke="black" d="M521.65,-299.38C514.94,-300.38 507.98,-301.42 501.02,-302.46"/>
<polygon fill="black" stroke="black" points="500.22,-299.04 490.85,-303.98 501.26,-305.96 500.22,-299.04"/>
<text text-anchor="middle" x="509.08" y="-289.72" font-family="Times,serif" font-size="14.00">a</text>
</g>
<!-- http://purl.org/oseg/ontologies/OTRL&#45;&gt;http://purl.org/oseg/ontologies/OTRL -->
<g id="edge28" class="edge">
<title>http://purl.org/oseg/ontologies/OTRL&#45;&gt;http://purl.org/oseg/ontologies/OTRL</title>
<path fill="none" stroke="black" d="M630.55,-298.05C643.89,-297.53 653.76,-295.32 653.76,-291.42 653.76,-288.58 648.55,-286.64 640.58,-285.59"/>
<polygon fill="black" stroke="black" points="640.8,-282.1 630.55,-284.78 640.24,-289.07 640.8,-282.1"/>
<text text-anchor="middle" x="705.26" y="-287.72" font-family="Times,serif" font-size="14.00">owl:versionIRI</text>
</g>
<!-- http://purl.org/oseg/ontologies/OTRL#OTRL&#45;3 -->
<g id="node15" class="node">
<title>http://purl.org/oseg/ontologies/OTRL#OTRL&#45;3</title>
<ellipse fill="none" stroke="#e377c2" cx="112.78" cy="-22.8" rx="49.49" ry="16.03"/>
<text text-anchor="middle" x="112.78" y="-19.1" font-family="Times,serif" font-size="14.00">OTRL&#45;3</text>
</g>
<!-- http://purl.org/oseg/ontologies/OTRL#OTRL&#45;3&#45;&gt;http://purl.org/oseg/ontologies/OTRL#OTRL -->
<g id="edge8" class="edge">
<title>http://purl.org/oseg/ontologies/OTRL#OTRL&#45;3&#45;&gt;http://purl.org/oseg/ontologies/OTRL#OTRL</title>
<path fill="none" stroke="black" d="M123.75,-38.93C134.82,-55.21 152.03,-80.53 164.7,-99.17"/>
<polygon fill="black" stroke="black" points="161.83,-101.16 170.34,-107.46 167.62,-97.23 161.83,-101.16"/>
</g>
<!-- http://purl.org/oseg/ontologies/OTRL#OTRL&#45;3&#45;&gt;http://www.w3.org/2002/07/owl#class -->
<g id="edge21" class="edge">
<title>http://purl.org/oseg/ontologies/OTRL#OTRL&#45;3&#45;&gt;http://www.w3.org/2002/07/owl#class</title>
<path fill="none" stroke="black" d="M121.33,-38.98C134.17,-63.3 158.57,-109.49 173.82,-138.37"/>
<polygon fill="black" stroke="black" points="170.85,-140.23 178.61,-147.44 177.04,-136.96 170.85,-140.23"/>
<text text-anchor="middle" x="143.07" y="-92.47" font-family="Times,serif" font-size="14.00">a</text>
</g>
<!-- http://purl.org/oseg/ontologies/OTRL#OTRL&#45;1 -->
<g id="node16" class="node">
<title>http://purl.org/oseg/ontologies/OTRL#OTRL&#45;1</title>
<ellipse fill="none" stroke="#e377c2" cx="156.48" cy="-82.54" rx="49.49" ry="16.03"/>
<text text-anchor="middle" x="156.48" y="-78.84" font-family="Times,serif" font-size="14.00">OTRL&#45;1</text>
</g>
<!-- http://purl.org/oseg/ontologies/OTRL#OTRL&#45;1&#45;&gt;http://purl.org/oseg/ontologies/OTRL#OTRL -->
<g id="edge2" class="edge">
<title>http://purl.org/oseg/ontologies/OTRL#OTRL&#45;1&#45;&gt;http://purl.org/oseg/ontologies/OTRL#OTRL</title>
<path fill="none" stroke="black" d="M166.2,-98.62C166.25,-98.71 166.3,-98.8 166.36,-98.89"/>
<polygon fill="black" stroke="black" points="163.25,-100.52 171.42,-107.27 169.24,-96.9 163.25,-100.52"/>
</g>
<!-- http://purl.org/oseg/ontologies/OTRL#OTRL&#45;1&#45;&gt;http://www.w3.org/2002/07/owl#class -->
<g id="edge24" class="edge">
<title>http://purl.org/oseg/ontologies/OTRL#OTRL&#45;1&#45;&gt;http://www.w3.org/2002/07/owl#class</title>
<path fill="none" stroke="black" d="M162.71,-99C166.93,-110.13 172.59,-125.07 177.42,-137.81"/>
<polygon fill="black" stroke="black" points="174.25,-139.32 181.07,-147.43 180.8,-136.84 174.25,-139.32"/>
<text text-anchor="middle" x="165.57" y="-107.2" font-family="Times,serif" font-size="14.00">a</text>
</g>
<!-- http://purl.org/oseg/ontologies/OTRL#OTRL&#45;4 -->
<g id="node17" class="node">
<title>http://purl.org/oseg/ontologies/OTRL#OTRL&#45;4</title>
<ellipse fill="none" stroke="#e377c2" cx="240.22" cy="-15.97" rx="49.49" ry="16.03"/>
<text text-anchor="middle" x="240.22" y="-12.27" font-family="Times,serif" font-size="14.00">OTRL&#45;4</text>
</g>
<!-- http://purl.org/oseg/ontologies/OTRL#OTRL&#45;4&#45;&gt;http://purl.org/oseg/ontologies/OTRL#OTRL -->
<g id="edge23" class="edge">
<title>http://purl.org/oseg/ontologies/OTRL#OTRL&#45;4&#45;&gt;http://purl.org/oseg/ontologies/OTRL#OTRL</title>
<path fill="none" stroke="black" d="M231.24,-32.26C221.58,-49.77 206.12,-77.81 194.9,-98.13"/>
<polygon fill="black" stroke="black" points="191.7,-96.69 189.94,-107.14 197.83,-100.07 191.7,-96.69"/>
</g>
<!-- http://purl.org/oseg/ontologies/OTRL#OTRL&#45;4&#45;&gt;http://www.w3.org/2002/07/owl#class -->
<g id="edge25" class="edge">
<title>http://purl.org/oseg/ontologies/OTRL#OTRL&#45;4&#45;&gt;http://www.w3.org/2002/07/owl#class</title>
<path fill="none" stroke="black" d="M234.36,-32.37C225.21,-57.91 207.49,-107.42 196.6,-137.87"/>
<polygon fill="black" stroke="black" points="193.26,-136.81 193.19,-147.4 199.85,-139.17 193.26,-136.81"/>
<text text-anchor="middle" x="210.98" y="-88.92" font-family="Times,serif" font-size="14.00">a</text>
</g>
<!-- http://purl.org/oseg/ontologies/OTRL#ODRL&#45;2 -->
<g id="node18" class="node">
<title>http://purl.org/oseg/ontologies/OTRL#ODRL&#45;2</title>
<ellipse fill="none" stroke="#e377c2" cx="64.76" cy="-248.54" rx="50.82" ry="16.03"/>
<text text-anchor="middle" x="64.76" y="-244.84" font-family="Times,serif" font-size="14.00">ODRL&#45;2</text>
</g>
<!-- http://purl.org/oseg/ontologies/OTRL#ODRL&#45;2&#45;&gt;http://www.w3.org/2002/07/owl#class -->
<g id="edge12" class="edge">
<title>http://purl.org/oseg/ontologies/OTRL#ODRL&#45;2&#45;&gt;http://www.w3.org/2002/07/owl#class</title>
<path fill="none" stroke="black" d="M86.38,-233.59C106.03,-220.01 135.22,-199.85 157.16,-184.69"/>
<polygon fill="black" stroke="black" points="159.23,-187.51 165.47,-178.94 155.25,-181.75 159.23,-187.51"/>
<text text-anchor="middle" x="117.27" y="-212.94" font-family="Times,serif" font-size="14.00">a</text>
</g>
<!-- http://purl.org/oseg/ontologies/OTRL#ODRL&#45;2&#45;&gt;http://purl.org/oseg/ontologies/OTRL#ODRL -->
<g id="edge15" class="edge">
<title>http://purl.org/oseg/ontologies/OTRL#ODRL&#45;2&#45;&gt;http://purl.org/oseg/ontologies/OTRL#ODRL</title>
<path fill="none" stroke="black" d="M99.51,-236.6C115.66,-231.05 134.98,-224.42 151.86,-218.62"/>
<polygon fill="black" stroke="black" points="153.16,-221.88 161.49,-215.32 150.89,-215.25 153.16,-221.88"/>
</g>
<!-- http://purl.org/oseg/ontologies/OTRL#OTRL&#45;5 -->
<g id="node19" class="node">
<title>http://purl.org/oseg/ontologies/OTRL#OTRL&#45;5</title>
<ellipse fill="none" stroke="#e377c2" cx="306.55" cy="-78.46" rx="49.49" ry="16.03"/>
<text text-anchor="middle" x="306.55" y="-74.76" font-family="Times,serif" font-size="14.00">OTRL&#45;5</text>
</g>
<!-- http://purl.org/oseg/ontologies/OTRL#OTRL&#45;5&#45;&gt;http://purl.org/oseg/ontologies/OTRL#OTRL -->
<g id="edge13" class="edge">
<title>http://purl.org/oseg/ontologies/OTRL#OTRL&#45;5&#45;&gt;http://purl.org/oseg/ontologies/OTRL#OTRL</title>
<path fill="none" stroke="black" d="M272.92,-90.46C256.9,-96.18 237.62,-103.05 220.87,-109.03"/>
<polygon fill="black" stroke="black" points="219.59,-105.77 211.35,-112.43 221.94,-112.36 219.59,-105.77"/>
</g>
<!-- http://purl.org/oseg/ontologies/OTRL#OTRL&#45;5&#45;&gt;http://www.w3.org/2002/07/owl#class -->
<g id="edge27" class="edge">
<title>http://purl.org/oseg/ontologies/OTRL#OTRL&#45;5&#45;&gt;http://www.w3.org/2002/07/owl#class</title>
<path fill="none" stroke="black" d="M285.78,-93.34C266.77,-106.95 238.44,-127.24 217.04,-142.56"/>
<polygon fill="black" stroke="black" points="214.72,-139.92 208.63,-148.59 218.8,-145.61 214.72,-139.92"/>
<text text-anchor="middle" x="246.91" y="-121.75" font-family="Times,serif" font-size="14.00">a</text>
</g>
<!-- http://purl.org/oseg/ontologies/OTRL#goal -->
<g id="node20" class="node">
<title>http://purl.org/oseg/ontologies/OTRL#goal</title>
<ellipse fill="none" stroke="#e377c2" cx="450.88" cy="-172.28" rx="33.47" ry="16.03"/>
<text text-anchor="middle" x="450.88" y="-168.58" font-family="Times,serif" font-size="14.00">goal</text>
</g>
<!-- http://purl.org/oseg/ontologies/OTRL#goal&#45;&gt;http://www.w3.org/2002/07/owl#DatatypeProperty -->
<g id="edge14" class="edge">
<title>http://purl.org/oseg/ontologies/OTRL#goal&#45;&gt;http://www.w3.org/2002/07/owl#DatatypeProperty</title>
<path fill="none" stroke="black" d="M449.64,-155.66C449.63,-155.5 449.61,-155.34 449.6,-155.18"/>
<polygon fill="black" stroke="black" points="453.29,-157.6 449.06,-147.89 446.31,-158.13 453.29,-157.6"/>
<text text-anchor="middle" x="445.12" y="-144.22" font-family="Times,serif" font-size="14.00">a</text>
</g>
<!-- http://purl.org/oseg/ontologies/OTRL#goal&#45;&gt;http://schema.org/Text -->
<g id="edge10" class="edge">
<title>http://purl.org/oseg/ontologies/OTRL#goal&#45;&gt;http://schema.org/Text</title>
<path fill="none" stroke="black" d="M481.38,-179.17C496.77,-182.64 516.03,-186.99 534.35,-191.13"/>
<polygon fill="black" stroke="black" points="533.59,-194.54 544.12,-193.33 535.13,-187.71 533.59,-194.54"/>
<text text-anchor="middle" x="528.86" y="-173.95" font-family="Times,serif" font-size="14.00">range</text>
</g>
</g>
</svg>
