<?xml version="1.0" encoding="UTF-8" standalone="no"?>
<!DOCTYPE svg PUBLIC "-//W3C//DTD SVG 1.1//EN"
 "http://www.w3.org/Graphics/SVG/1.1/DTD/svg11.dtd">
<!-- Generated by graphviz version 2.43.0 (0)
 -->
<!-- Title: G Pages: 1 -->
<svg width="1212pt" height="485pt"
 viewBox="0.00 0.00 1212.00 485.00" xmlns="http://www.w3.org/2000/svg" xmlns:xlink="http://www.w3.org/1999/xlink">
<g id="graph0" class="graph" transform="scale(1 1) rotate(0) translate(4 481)">
<title>G</title>
<polygon fill="white" stroke="transparent" points="-4,4 -4,-481 1208,-481 1208,4 -4,4"/>
<!-- http://purl.org/oseg/ontologies/OTRL#ODRL -->
<g id="node1" class="node">
<title>http://purl.org/oseg/ontologies/OTRL#ODRL</title>
<ellipse fill="none" stroke="#e377c2" cx="130.39" cy="-180.15" rx="41.94" ry="16.03"/>
<text text-anchor="middle" x="130.39" y="-176.45" font-family="Times,serif" font-size="14.00">ODRL</text>
</g>
<!-- http://www.w3.org/2002/07/owl#class -->
<g id="node5" class="node">
<title>http://www.w3.org/2002/07/owl#class</title>
<ellipse fill="none" stroke="#1f77b4" cx="296.99" cy="-227.2" rx="57.05" ry="16.03"/>
<text text-anchor="middle" x="296.99" y="-223.5" font-family="Times,serif" font-size="14.00">owl:class</text>
</g>
<!-- http://purl.org/oseg/ontologies/OTRL#ODRL&#45;&gt;http://www.w3.org/2002/07/owl#class -->
<g id="edge2" class="edge">
<title>http://purl.org/oseg/ontologies/OTRL#ODRL&#45;&gt;http://www.w3.org/2002/07/owl#class</title>
<path fill="none" stroke="black" d="M164.51,-189.78C188.06,-196.43 219.78,-205.39 246.28,-212.88"/>
<polygon fill="black" stroke="black" points="245.58,-216.32 256.16,-215.66 247.48,-209.58 245.58,-216.32"/>
<text text-anchor="middle" x="200.9" y="-205.13" font-family="Times,serif" font-size="14.00">a</text>
</g>
<!-- http://www.w3.org/2002/07/owl#Ontology -->
<g id="node2" class="node">
<title>http://www.w3.org/2002/07/owl#Ontology</title>
<ellipse fill="none" stroke="#1f77b4" cx="737.32" cy="-158.47" rx="77.56" ry="16.03"/>
<text text-anchor="middle" x="737.32" y="-154.77" font-family="Times,serif" font-size="14.00">owl:Ontology</text>
</g>
<!-- http://purl.org/oseg/ontologies/OTRL#OTRL -->
<g id="node3" class="node">
<title>http://purl.org/oseg/ontologies/OTRL#OTRL</title>
<ellipse fill="none" stroke="#e377c2" cx="537.05" cy="-278.57" rx="39.7" ry="16.03"/>
<text text-anchor="middle" x="537.05" y="-274.87" font-family="Times,serif" font-size="14.00">OTRL</text>
</g>
<!-- http://purl.org/oseg/ontologies/OTRL#OTRL&#45;&gt;http://www.w3.org/2002/07/owl#class -->
<g id="edge5" class="edge">
<title>http://purl.org/oseg/ontologies/OTRL#OTRL&#45;&gt;http://www.w3.org/2002/07/owl#class</title>
<path fill="none" stroke="black" d="M501.89,-271.05C462.7,-262.66 398.8,-248.99 352.77,-239.13"/>
<polygon fill="black" stroke="black" points="353.46,-235.7 342.95,-237.03 351.99,-242.55 353.46,-235.7"/>
<text text-anchor="middle" x="422.83" y="-258.89" font-family="Times,serif" font-size="14.00">a</text>
</g>
<!-- http://www.w3.org/2002/07/owl#DatatypeProperty -->
<g id="node4" class="node">
<title>http://www.w3.org/2002/07/owl#DatatypeProperty</title>
<ellipse fill="none" stroke="#1f77b4" cx="1081.07" cy="-377.84" rx="123.07" ry="16.03"/>
<text text-anchor="middle" x="1081.07" y="-374.14" font-family="Times,serif" font-size="14.00">owl:DatatypeProperty</text>
</g>
<!-- http://purl.org/oseg/ontologies/OTRL#exitCriteria -->
<g id="node6" class="node">
<title>http://purl.org/oseg/ontologies/OTRL#exitCriteria</title>
<ellipse fill="none" stroke="#e377c2" cx="799.48" cy="-225.22" rx="70.01" ry="16.03"/>
<text text-anchor="middle" x="799.48" y="-221.52" font-family="Times,serif" font-size="14.00">exitCriteria</text>
</g>
<!-- http://purl.org/oseg/ontologies/OTRL#exitCriteria&#45;&gt;http://purl.org/oseg/ontologies/OTRL#OTRL -->
<g id="edge11" class="edge">
<title>http://purl.org/oseg/ontologies/OTRL#exitCriteria&#45;&gt;http://purl.org/oseg/ontologies/OTRL#OTRL</title>
<path fill="none" stroke="black" d="M746.69,-235.95C698.54,-245.74 628.15,-260.05 582.46,-269.34"/>
<polygon fill="black" stroke="black" points="581.64,-265.94 572.54,-271.36 583.04,-272.8 581.64,-265.94"/>
<text text-anchor="middle" x="638.07" y="-256.45" font-family="Times,serif" font-size="14.00">domain</text>
</g>
<!-- http://purl.org/oseg/ontologies/OTRL#exitCriteria&#45;&gt;http://www.w3.org/2002/07/owl#DatatypeProperty -->
<g id="edge1" class="edge">
<title>http://purl.org/oseg/ontologies/OTRL#exitCriteria&#45;&gt;http://www.w3.org/2002/07/owl#DatatypeProperty</title>
<path fill="none" stroke="black" d="M827.25,-240.27C877.85,-267.7 985.14,-325.85 1042.69,-357.04"/>
<polygon fill="black" stroke="black" points="1041.37,-360.3 1051.82,-361.99 1044.7,-354.15 1041.37,-360.3"/>
<text text-anchor="middle" x="939.47" y="-302.46" font-family="Times,serif" font-size="14.00">a</text>
</g>
<!-- http://schema.org/Text -->
<g id="node13" class="node">
<title>http://schema.org/Text</title>
<ellipse fill="none" stroke="#e377c2" cx="1025.85" cy="-277.95" rx="74.91" ry="16.03"/>
<text text-anchor="middle" x="1025.85" y="-274.25" font-family="Times,serif" font-size="14.00">schema:Text</text>
</g>
<!-- http://purl.org/oseg/ontologies/OTRL#exitCriteria&#45;&gt;http://schema.org/Text -->
<g id="edge35" class="edge">
<title>http://purl.org/oseg/ontologies/OTRL#exitCriteria&#45;&gt;http://schema.org/Text</title>
<path fill="none" stroke="black" d="M849.15,-236.79C883.18,-244.72 928.52,-255.28 964.76,-263.72"/>
<polygon fill="black" stroke="black" points="964.18,-267.18 974.72,-266.04 965.77,-260.36 964.18,-267.18"/>
<text text-anchor="middle" x="885.95" y="-254.06" font-family="Times,serif" font-size="14.00">range</text>
</g>
<!-- http://purl.org/oseg/ontologies/OTRL#OTRL&#45;3 -->
<g id="node7" class="node">
<title>http://purl.org/oseg/ontologies/OTRL#OTRL&#45;3</title>
<ellipse fill="none" stroke="#e377c2" cx="350.16" cy="-399.54" rx="49.49" ry="16.03"/>
<text text-anchor="middle" x="350.16" y="-395.84" font-family="Times,serif" font-size="14.00">OTRL&#45;3</text>
</g>
<!-- http://purl.org/oseg/ontologies/OTRL#OTRL&#45;3&#45;&gt;http://purl.org/oseg/ontologies/OTRL#OTRL -->
<g id="edge33" class="edge">
<title>http://purl.org/oseg/ontologies/OTRL#OTRL&#45;3&#45;&gt;http://purl.org/oseg/ontologies/OTRL#OTRL</title>
<path fill="none" stroke="black" d="M372.71,-384.95C406.32,-363.19 469.63,-322.21 507.1,-297.96"/>
<polygon fill="black" stroke="black" points="509.09,-300.84 515.59,-292.47 505.29,-294.96 509.09,-300.84"/>
</g>
<!-- http://purl.org/oseg/ontologies/OTRL#OTRL&#45;3&#45;&gt;http://www.w3.org/2002/07/owl#class -->
<g id="edge21" class="edge">
<title>http://purl.org/oseg/ontologies/OTRL#OTRL&#45;3&#45;&gt;http://www.w3.org/2002/07/owl#class</title>
<path fill="none" stroke="black" d="M345.16,-383.33C335.94,-353.43 316.18,-289.39 305.05,-253.3"/>
<polygon fill="black" stroke="black" points="308.31,-252.02 302.02,-243.49 301.63,-254.08 308.31,-252.02"/>
<text text-anchor="middle" x="320.6" y="-307.12" font-family="Times,serif" font-size="14.00">a</text>
</g>
<!-- http://purl.org/oseg/ontologies/OTRL -->
<g id="node8" class="node">
<title>http://purl.org/oseg/ontologies/OTRL</title>
<ellipse fill="none" stroke="#e377c2" cx="884.95" cy="-136.42" rx="60.62" ry="16.03"/>
<text text-anchor="middle" x="884.95" y="-132.72" font-family="Times,serif" font-size="14.00">ns1:OTRL</text>
</g>
<!-- http://purl.org/oseg/ontologies/OTRL&#45;&gt;http://www.w3.org/2002/07/owl#Ontology -->
<g id="edge17" class="edge">
<title>http://purl.org/oseg/ontologies/OTRL&#45;&gt;http://www.w3.org/2002/07/owl#Ontology</title>
<path fill="none" stroke="black" d="M831.65,-144.38C824.94,-145.38 817.98,-146.42 811.02,-147.46"/>
<polygon fill="black" stroke="black" points="810.22,-144.04 800.85,-148.98 811.26,-150.96 810.22,-144.04"/>
<text text-anchor="middle" x="819.08" y="-134.72" font-family="Times,serif" font-size="14.00">a</text>
</g>
<!-- http://purl.org/oseg/ontologies/OTRL&#45;&gt;http://purl.org/oseg/ontologies/OTRL -->
<g id="edge22" class="edge">
<title>http://purl.org/oseg/ontologies/OTRL&#45;&gt;http://purl.org/oseg/ontologies/OTRL</title>
<path fill="none" stroke="black" d="M940.55,-143.05C953.89,-142.53 963.76,-140.32 963.76,-136.42 963.76,-133.58 958.55,-131.64 950.58,-130.59"/>
<polygon fill="black" stroke="black" points="950.8,-127.1 940.55,-129.78 950.24,-134.07 950.8,-127.1"/>
<text text-anchor="middle" x="1015.26" y="-132.72" font-family="Times,serif" font-size="14.00">owl:versionIRI</text>
</g>
<!-- http://purl.org/oseg/ontologies/OTRL#OTRL&#45;1 -->
<g id="node9" class="node">
<title>http://purl.org/oseg/ontologies/OTRL#OTRL&#45;1</title>
<ellipse fill="none" stroke="#e377c2" cx="367.19" cy="-445.67" rx="49.49" ry="16.03"/>
<text text-anchor="middle" x="367.19" y="-441.97" font-family="Times,serif" font-size="14.00">OTRL&#45;1</text>
</g>
<!-- http://purl.org/oseg/ontologies/OTRL#OTRL&#45;1&#45;&gt;http://purl.org/oseg/ontologies/OTRL#OTRL -->
<g id="edge38" class="edge">
<title>http://purl.org/oseg/ontologies/OTRL#OTRL&#45;1&#45;&gt;http://purl.org/oseg/ontologies/OTRL#OTRL</title>
<path fill="none" stroke="black" d="M383.17,-429.95C413.42,-400.19 479.15,-335.53 514.11,-301.14"/>
<polygon fill="black" stroke="black" points="516.81,-303.4 521.49,-293.89 511.9,-298.41 516.81,-303.4"/>
</g>
<!-- http://purl.org/oseg/ontologies/OTRL#OTRL&#45;1&#45;&gt;http://www.w3.org/2002/07/owl#class -->
<g id="edge23" class="edge">
<title>http://purl.org/oseg/ontologies/OTRL#OTRL&#45;1&#45;&gt;http://www.w3.org/2002/07/owl#class</title>
<path fill="none" stroke="black" d="M361.92,-429.25C349.82,-391.59 319.99,-298.78 305.36,-253.24"/>
<polygon fill="black" stroke="black" points="308.63,-251.96 302.24,-243.51 301.96,-254.1 308.63,-251.96"/>
<text text-anchor="middle" x="329.14" y="-345.04" font-family="Times,serif" font-size="14.00">a</text>
</g>
<!-- http://purl.org/oseg/ontologies/OTRL#ODRL&#45;3 -->
<g id="node10" class="node">
<title>http://purl.org/oseg/ontologies/OTRL#ODRL&#45;3</title>
<ellipse fill="none" stroke="#e377c2" cx="225.63" cy="-16.65" rx="50.82" ry="16.03"/>
<text text-anchor="middle" x="225.63" y="-12.95" font-family="Times,serif" font-size="14.00">ODRL&#45;3</text>
</g>
<!-- http://purl.org/oseg/ontologies/OTRL#ODRL&#45;3&#45;&gt;http://purl.org/oseg/ontologies/OTRL#ODRL -->
<g id="edge16" class="edge">
<title>http://purl.org/oseg/ontologies/OTRL#ODRL&#45;3&#45;&gt;http://purl.org/oseg/ontologies/OTRL#ODRL</title>
<path fill="none" stroke="black" d="M216.15,-32.93C199.46,-61.57 164.74,-121.17 144.98,-155.1"/>
<polygon fill="black" stroke="black" points="141.84,-153.54 139.83,-163.94 147.89,-157.06 141.84,-153.54"/>
</g>
<!-- http://purl.org/oseg/ontologies/OTRL#ODRL&#45;3&#45;&gt;http://www.w3.org/2002/07/owl#class -->
<g id="edge3" class="edge">
<title>http://purl.org/oseg/ontologies/OTRL#ODRL&#45;3&#45;&gt;http://www.w3.org/2002/07/owl#class</title>
<path fill="none" stroke="black" d="M231.11,-32.82C243.41,-69.11 273.29,-157.26 288.21,-201.28"/>
<polygon fill="black" stroke="black" points="284.97,-202.62 291.49,-210.97 291.6,-200.38 284.97,-202.62"/>
<text text-anchor="middle" x="255.16" y="-120.85" font-family="Times,serif" font-size="14.00">a</text>
</g>
<!-- http://purl.org/oseg/ontologies/OTRL#ODRL&#45;2 -->
<g id="node11" class="node">
<title>http://purl.org/oseg/ontologies/OTRL#ODRL&#45;2</title>
<ellipse fill="none" stroke="#e377c2" cx="50.9" cy="-239.39" rx="50.82" ry="16.03"/>
<text text-anchor="middle" x="50.9" y="-235.69" font-family="Times,serif" font-size="14.00">ODRL&#45;2</text>
</g>
<!-- http://purl.org/oseg/ontologies/OTRL#ODRL&#45;2&#45;&gt;http://purl.org/oseg/ontologies/OTRL#ODRL -->
<g id="edge9" class="edge">
<title>http://purl.org/oseg/ontologies/OTRL#ODRL&#45;2&#45;&gt;http://purl.org/oseg/ontologies/OTRL#ODRL</title>
<path fill="none" stroke="black" d="M70.96,-224.44C80.61,-217.24 92.34,-208.51 102.82,-200.7"/>
<polygon fill="black" stroke="black" points="104.96,-203.46 110.89,-194.68 100.78,-197.85 104.96,-203.46"/>
</g>
<!-- http://purl.org/oseg/ontologies/OTRL#ODRL&#45;2&#45;&gt;http://www.w3.org/2002/07/owl#class -->
<g id="edge25" class="edge">
<title>http://purl.org/oseg/ontologies/OTRL#ODRL&#45;2&#45;&gt;http://www.w3.org/2002/07/owl#class</title>
<path fill="none" stroke="black" d="M101.3,-236.89C138.5,-235.05 189.51,-232.52 230.13,-230.51"/>
<polygon fill="black" stroke="black" points="230.4,-234 240.21,-230.01 230.05,-227.01 230.4,-234"/>
<text text-anchor="middle" x="161.21" y="-237.5" font-family="Times,serif" font-size="14.00">a</text>
</g>
<!-- http://purl.org/oseg/ontologies/OTRL#OTRL&#45;4 -->
<g id="node12" class="node">
<title>http://purl.org/oseg/ontologies/OTRL#OTRL&#45;4</title>
<ellipse fill="none" stroke="#e377c2" cx="464.58" cy="-68.02" rx="49.49" ry="16.03"/>
<text text-anchor="middle" x="464.58" y="-64.32" font-family="Times,serif" font-size="14.00">OTRL&#45;4</text>
</g>
<!-- http://purl.org/oseg/ontologies/OTRL#OTRL&#45;4&#45;&gt;http://purl.org/oseg/ontologies/OTRL#OTRL -->
<g id="edge39" class="edge">
<title>http://purl.org/oseg/ontologies/OTRL#OTRL&#45;4&#45;&gt;http://purl.org/oseg/ontologies/OTRL#OTRL</title>
<path fill="none" stroke="black" d="M470.15,-84.19C482.64,-120.47 512.98,-208.63 528.13,-252.66"/>
<polygon fill="black" stroke="black" points="524.9,-254.03 531.47,-262.35 531.52,-251.75 524.9,-254.03"/>
</g>
<!-- http://purl.org/oseg/ontologies/OTRL#OTRL&#45;4&#45;&gt;http://www.w3.org/2002/07/owl#class -->
<g id="edge27" class="edge">
<title>http://purl.org/oseg/ontologies/OTRL#OTRL&#45;4&#45;&gt;http://www.w3.org/2002/07/owl#class</title>
<path fill="none" stroke="black" d="M448.21,-83.57C418.5,-111.79 355.59,-171.54 321.02,-204.38"/>
<polygon fill="black" stroke="black" points="318.52,-201.92 313.68,-211.35 323.34,-207 318.52,-201.92"/>
<text text-anchor="middle" x="380.11" y="-147.78" font-family="Times,serif" font-size="14.00">a</text>
</g>
<!-- http://purl.org/oseg/ontologies/OTRL#ODRL&#45;1 -->
<g id="node14" class="node">
<title>http://purl.org/oseg/ontologies/OTRL#ODRL&#45;1</title>
<ellipse fill="none" stroke="#e377c2" cx="134.64" cy="-370.43" rx="50.82" ry="16.03"/>
<text text-anchor="middle" x="134.64" y="-366.73" font-family="Times,serif" font-size="14.00">ODRL&#45;1</text>
</g>
<!-- http://purl.org/oseg/ontologies/OTRL#ODRL&#45;1&#45;&gt;http://purl.org/oseg/ontologies/OTRL#ODRL -->
<g id="edge46" class="edge">
<title>http://purl.org/oseg/ontologies/OTRL#ODRL&#45;1&#45;&gt;http://purl.org/oseg/ontologies/OTRL#ODRL</title>
<path fill="none" stroke="black" d="M134.27,-353.88C133.53,-320.83 131.87,-246.44 130.98,-206.57"/>
<polygon fill="black" stroke="black" points="134.48,-206.45 130.76,-196.53 127.48,-206.6 134.48,-206.45"/>
</g>
<!-- http://purl.org/oseg/ontologies/OTRL#ODRL&#45;1&#45;&gt;http://www.w3.org/2002/07/owl#class -->
<g id="edge8" class="edge">
<title>http://purl.org/oseg/ontologies/OTRL#ODRL&#45;1&#45;&gt;http://www.w3.org/2002/07/owl#class</title>
<path fill="none" stroke="black" d="M152.01,-355.1C180.79,-329.71 238.47,-278.83 271.75,-249.47"/>
<polygon fill="black" stroke="black" points="274.07,-252.09 279.25,-242.85 269.44,-246.84 274.07,-252.09"/>
<text text-anchor="middle" x="207.38" y="-306.09" font-family="Times,serif" font-size="14.00">a</text>
</g>
<!-- http://purl.org/oseg/ontologies/OTRL#OTRL&#45;5 -->
<g id="node15" class="node">
<title>http://purl.org/oseg/ontologies/OTRL#OTRL&#45;5</title>
<ellipse fill="none" stroke="#e377c2" cx="369.29" cy="-124.64" rx="49.49" ry="16.03"/>
<text text-anchor="middle" x="369.29" y="-120.94" font-family="Times,serif" font-size="14.00">OTRL&#45;5</text>
</g>
<!-- http://purl.org/oseg/ontologies/OTRL#OTRL&#45;5&#45;&gt;http://purl.org/oseg/ontologies/OTRL#OTRL -->
<g id="edge41" class="edge">
<title>http://purl.org/oseg/ontologies/OTRL#OTRL&#45;5&#45;&gt;http://purl.org/oseg/ontologies/OTRL#OTRL</title>
<path fill="none" stroke="black" d="M385.99,-139.96C415.76,-167.28 478.11,-224.49 512.68,-256.21"/>
<polygon fill="black" stroke="black" points="510.69,-259.13 520.42,-263.31 515.42,-253.97 510.69,-259.13"/>
</g>
<!-- http://purl.org/oseg/ontologies/OTRL#OTRL&#45;5&#45;&gt;http://www.w3.org/2002/07/owl#class -->
<g id="edge28" class="edge">
<title>http://purl.org/oseg/ontologies/OTRL#OTRL&#45;5&#45;&gt;http://www.w3.org/2002/07/owl#class</title>
<path fill="none" stroke="black" d="M357.99,-140.67C346.28,-157.28 327.83,-183.45 314.29,-202.67"/>
<polygon fill="black" stroke="black" points="311.35,-200.76 308.45,-210.95 317.07,-204.79 311.35,-200.76"/>
<text text-anchor="middle" x="331.64" y="-175.47" font-family="Times,serif" font-size="14.00">a</text>
</g>
<!-- http://purl.org/oseg/ontologies/OTRL#documentationDescription -->
<g id="node16" class="node">
<title>http://purl.org/oseg/ontologies/OTRL#documentationDescription</title>
<ellipse fill="none" stroke="#e377c2" cx="805.11" cy="-299.99" rx="120.83" ry="16.03"/>
<text text-anchor="middle" x="805.11" y="-296.29" font-family="Times,serif" font-size="14.00">documentationDesc...</text>
</g>
<!-- http://purl.org/oseg/ontologies/OTRL#documentationDescription&#45;&gt;http://purl.org/oseg/ontologies/OTRL#OTRL -->
<g id="edge43" class="edge">
<title>http://purl.org/oseg/ontologies/OTRL#documentationDescription&#45;&gt;http://purl.org/oseg/ontologies/OTRL#OTRL</title>
<path fill="none" stroke="black" d="M701.09,-291.68C661.52,-288.52 618.26,-285.06 586.11,-282.49"/>
<polygon fill="black" stroke="black" points="586.33,-279 576.08,-281.69 585.77,-285.98 586.33,-279"/>
<text text-anchor="middle" x="617.1" y="-290.88" font-family="Times,serif" font-size="14.00">domain</text>
</g>
<!-- http://purl.org/oseg/ontologies/OTRL#documentationDescription&#45;&gt;http://www.w3.org/2002/07/owl#DatatypeProperty -->
<g id="edge29" class="edge">
<title>http://purl.org/oseg/ontologies/OTRL#documentationDescription&#45;&gt;http://www.w3.org/2002/07/owl#DatatypeProperty</title>
<path fill="none" stroke="black" d="M857.34,-314.72C903.24,-327.67 970.12,-346.54 1018.79,-360.27"/>
<polygon fill="black" stroke="black" points="1018.01,-363.68 1028.58,-363.03 1019.91,-356.95 1018.01,-363.68"/>
<text text-anchor="middle" x="933.57" y="-341.3" font-family="Times,serif" font-size="14.00">a</text>
</g>
<!-- http://purl.org/oseg/ontologies/OTRL#documentationDescription&#45;&gt;http://schema.org/Text -->
<g id="edge32" class="edge">
<title>http://purl.org/oseg/ontologies/OTRL#documentationDescription&#45;&gt;http://schema.org/Text</title>
<path fill="none" stroke="black" d="M902.25,-290.29C917.38,-288.78 932.85,-287.23 947.49,-285.77"/>
<polygon fill="black" stroke="black" points="947.88,-289.25 957.48,-284.77 947.19,-282.29 947.88,-289.25"/>
<text text-anchor="middle" x="924.87" y="-276.83" font-family="Times,serif" font-size="14.00">range</text>
</g>
<!-- http://purl.org/oseg/ontologies/OTRL#OTRL&#45;8 -->
<g id="node17" class="node">
<title>http://purl.org/oseg/ontologies/OTRL#OTRL&#45;8</title>
<ellipse fill="none" stroke="#e377c2" cx="369.8" cy="-324.83" rx="49.49" ry="16.03"/>
<text text-anchor="middle" x="369.8" y="-321.13" font-family="Times,serif" font-size="14.00">OTRL&#45;8</text>
</g>
<!-- http://purl.org/oseg/ontologies/OTRL#OTRL&#45;8&#45;&gt;http://purl.org/oseg/ontologies/OTRL#OTRL -->
<g id="edge44" class="edge">
<title>http://purl.org/oseg/ontologies/OTRL#OTRL&#45;8&#45;&gt;http://purl.org/oseg/ontologies/OTRL#OTRL</title>
<path fill="none" stroke="black" d="M407.75,-314.33C433.48,-307.22 467.52,-297.8 494.22,-290.42"/>
<polygon fill="black" stroke="black" points="495.35,-293.74 504.06,-287.7 493.48,-286.99 495.35,-293.74"/>
</g>
<!-- http://purl.org/oseg/ontologies/OTRL#OTRL&#45;8&#45;&gt;http://www.w3.org/2002/07/owl#class -->
<g id="edge30" class="edge">
<title>http://purl.org/oseg/ontologies/OTRL#OTRL&#45;8&#45;&gt;http://www.w3.org/2002/07/owl#class</title>
<path fill="none" stroke="black" d="M357.78,-308.71C346.18,-293.16 328.49,-269.43 315.17,-251.57"/>
<polygon fill="black" stroke="black" points="317.82,-249.27 309.03,-243.34 312.21,-253.45 317.82,-249.27"/>
<text text-anchor="middle" x="331.98" y="-283.94" font-family="Times,serif" font-size="14.00">a</text>
</g>
<!-- http://purl.org/oseg/ontologies/OTRL#ODRL&#45;0 -->
<g id="node18" class="node">
<title>http://purl.org/oseg/ontologies/OTRL#ODRL&#45;0</title>
<ellipse fill="none" stroke="#e377c2" cx="112.62" cy="-54.93" rx="50.82" ry="16.03"/>
<text text-anchor="middle" x="112.62" y="-51.23" font-family="Times,serif" font-size="14.00">ODRL&#45;0</text>
</g>
<!-- http://purl.org/oseg/ontologies/OTRL#ODRL&#45;0&#45;&gt;http://purl.org/oseg/ontologies/OTRL#ODRL -->
<g id="edge15" class="edge">
<title>http://purl.org/oseg/ontologies/OTRL#ODRL&#45;0&#45;&gt;http://purl.org/oseg/ontologies/OTRL#ODRL</title>
<path fill="none" stroke="black" d="M114.95,-71.3C117.91,-92.2 123.08,-128.65 126.62,-153.56"/>
<polygon fill="black" stroke="black" points="123.2,-154.36 128.07,-163.77 130.13,-153.38 123.2,-154.36"/>
</g>
<!-- http://purl.org/oseg/ontologies/OTRL#ODRL&#45;0&#45;&gt;http://www.w3.org/2002/07/owl#class -->
<g id="edge31" class="edge">
<title>http://purl.org/oseg/ontologies/OTRL#ODRL&#45;0&#45;&gt;http://www.w3.org/2002/07/owl#class</title>
<path fill="none" stroke="black" d="M129.31,-70.52C162,-101.06 234.59,-168.89 272.64,-204.44"/>
<polygon fill="black" stroke="black" points="270.52,-207.25 280.21,-211.52 275.3,-202.13 270.52,-207.25"/>
<text text-anchor="middle" x="196.48" y="-141.28" font-family="Times,serif" font-size="14.00">a</text>
</g>
<!-- http://purl.org/oseg/ontologies/OTRL#ODRL&#45;4 -->
<g id="node19" class="node">
<title>http://purl.org/oseg/ontologies/OTRL#ODRL&#45;4</title>
<ellipse fill="none" stroke="#e377c2" cx="74.34" cy="-128.89" rx="50.82" ry="16.03"/>
<text text-anchor="middle" x="74.34" y="-125.19" font-family="Times,serif" font-size="14.00">ODRL&#45;4</text>
</g>
<!-- http://purl.org/oseg/ontologies/OTRL#ODRL&#45;4&#45;&gt;http://purl.org/oseg/ontologies/OTRL#ODRL -->
<g id="edge26" class="edge">
<title>http://purl.org/oseg/ontologies/OTRL#ODRL&#45;4&#45;&gt;http://purl.org/oseg/ontologies/OTRL#ODRL</title>
<path fill="none" stroke="black" d="M91.16,-144.27C95.9,-148.6 101.15,-153.41 106.23,-158.05"/>
<polygon fill="black" stroke="black" points="104.23,-160.97 113.97,-165.13 108.96,-155.8 104.23,-160.97"/>
</g>
<!-- http://purl.org/oseg/ontologies/OTRL#ODRL&#45;4&#45;&gt;http://www.w3.org/2002/07/owl#class -->
<g id="edge10" class="edge">
<title>http://purl.org/oseg/ontologies/OTRL#ODRL&#45;4&#45;&gt;http://www.w3.org/2002/07/owl#class</title>
<path fill="none" stroke="black" d="M104.37,-142.15C143.63,-159.48 212.54,-189.91 256.42,-209.28"/>
<polygon fill="black" stroke="black" points="255.09,-212.52 265.65,-213.36 257.92,-206.12 255.09,-212.52"/>
<text text-anchor="middle" x="184.9" y="-179.52" font-family="Times,serif" font-size="14.00">a</text>
</g>
<!-- http://purl.org/oseg/ontologies/OTRL#OTRL&#45;7 -->
<g id="node20" class="node">
<title>http://purl.org/oseg/ontologies/OTRL#OTRL&#45;7</title>
<ellipse fill="none" stroke="#e377c2" cx="496.87" cy="-335.67" rx="49.49" ry="16.03"/>
<text text-anchor="middle" x="496.87" y="-331.97" font-family="Times,serif" font-size="14.00">OTRL&#45;7</text>
</g>
<!-- http://purl.org/oseg/ontologies/OTRL#OTRL&#45;7&#45;&gt;http://purl.org/oseg/ontologies/OTRL#OTRL -->
<g id="edge24" class="edge">
<title>http://purl.org/oseg/ontologies/OTRL#OTRL&#45;7&#45;&gt;http://purl.org/oseg/ontologies/OTRL#OTRL</title>
<path fill="none" stroke="black" d="M508.06,-319.77C511.81,-314.45 516.07,-308.39 520.15,-302.59"/>
<polygon fill="black" stroke="black" points="523.03,-304.59 525.92,-294.39 517.3,-300.56 523.03,-304.59"/>
</g>
<!-- http://purl.org/oseg/ontologies/OTRL#OTRL&#45;7&#45;&gt;http://www.w3.org/2002/07/owl#class -->
<g id="edge12" class="edge">
<title>http://purl.org/oseg/ontologies/OTRL#OTRL&#45;7&#45;&gt;http://www.w3.org/2002/07/owl#class</title>
<path fill="none" stroke="black" d="M471.15,-321.71C435.84,-302.55 372.2,-268.01 332.41,-246.42"/>
<polygon fill="black" stroke="black" points="334.03,-243.31 323.57,-241.62 330.69,-249.47 334.03,-243.31"/>
<text text-anchor="middle" x="397.28" y="-287.87" font-family="Times,serif" font-size="14.00">a</text>
</g>
<!-- http://purl.org/oseg/ontologies/OTRL#softwareDescription -->
<g id="node21" class="node">
<title>http://purl.org/oseg/ontologies/OTRL#softwareDescription</title>
<ellipse fill="none" stroke="#e377c2" cx="783.09" cy="-461.05" rx="113.69" ry="16.03"/>
<text text-anchor="middle" x="783.09" y="-457.35" font-family="Times,serif" font-size="14.00">softwareDescription</text>
</g>
<!-- http://purl.org/oseg/ontologies/OTRL#softwareDescription&#45;&gt;http://purl.org/oseg/ontologies/OTRL#OTRL -->
<g id="edge36" class="edge">
<title>http://purl.org/oseg/ontologies/OTRL#softwareDescription&#45;&gt;http://purl.org/oseg/ontologies/OTRL#OTRL</title>
<path fill="none" stroke="black" d="M761.25,-444.86C716.43,-411.62 614.11,-335.73 564.73,-299.1"/>
<polygon fill="black" stroke="black" points="566.55,-296.09 556.43,-292.94 562.38,-301.71 566.55,-296.09"/>
<text text-anchor="middle" x="636.49" y="-375.78" font-family="Times,serif" font-size="14.00">domain</text>
</g>
<!-- http://purl.org/oseg/ontologies/OTRL#softwareDescription&#45;&gt;http://www.w3.org/2002/07/owl#DatatypeProperty -->
<g id="edge13" class="edge">
<title>http://purl.org/oseg/ontologies/OTRL#softwareDescription&#45;&gt;http://www.w3.org/2002/07/owl#DatatypeProperty</title>
<path fill="none" stroke="black" d="M834.99,-446.56C886.01,-432.31 963.93,-410.55 1018.37,-395.35"/>
<polygon fill="black" stroke="black" points="1019.57,-398.65 1028.26,-392.59 1017.68,-391.91 1019.57,-398.65"/>
<text text-anchor="middle" x="922.18" y="-424.75" font-family="Times,serif" font-size="14.00">a</text>
</g>
<!-- http://purl.org/oseg/ontologies/OTRL#softwareDescription&#45;&gt;http://schema.org/Text -->
<g id="edge6" class="edge">
<title>http://purl.org/oseg/ontologies/OTRL#softwareDescription&#45;&gt;http://schema.org/Text</title>
<path fill="none" stroke="black" d="M804.63,-444.8C848.4,-411.79 947.73,-336.87 997.01,-299.7"/>
<polygon fill="black" stroke="black" points="999.17,-302.46 1005.04,-293.64 994.95,-296.87 999.17,-302.46"/>
<text text-anchor="middle" x="879.82" y="-361.05" font-family="Times,serif" font-size="14.00">range</text>
</g>
<!-- http://purl.org/oseg/ontologies/OTRL#OTRL&#45;2 -->
<g id="node22" class="node">
<title>http://purl.org/oseg/ontologies/OTRL#OTRL&#45;2</title>
<ellipse fill="none" stroke="#e377c2" cx="478.72" cy="-161.48" rx="49.49" ry="16.03"/>
<text text-anchor="middle" x="478.72" y="-157.78" font-family="Times,serif" font-size="14.00">OTRL&#45;2</text>
</g>
<!-- http://purl.org/oseg/ontologies/OTRL#OTRL&#45;2&#45;&gt;http://purl.org/oseg/ontologies/OTRL#OTRL -->
<g id="edge4" class="edge">
<title>http://purl.org/oseg/ontologies/OTRL#OTRL&#45;2&#45;&gt;http://purl.org/oseg/ontologies/OTRL#OTRL</title>
<path fill="none" stroke="black" d="M486.83,-177.76C496.58,-197.34 513.06,-230.41 524.47,-253.31"/>
<polygon fill="black" stroke="black" points="521.42,-255.04 529.01,-262.43 527.68,-251.92 521.42,-255.04"/>
</g>
<!-- http://purl.org/oseg/ontologies/OTRL#OTRL&#45;2&#45;&gt;http://www.w3.org/2002/07/owl#class -->
<g id="edge37" class="edge">
<title>http://purl.org/oseg/ontologies/OTRL#OTRL&#45;2&#45;&gt;http://www.w3.org/2002/07/owl#class</title>
<path fill="none" stroke="black" d="M445.39,-173.53C416.41,-184.01 374.19,-199.28 342.18,-210.86"/>
<polygon fill="black" stroke="black" points="340.81,-207.63 332.6,-214.32 343.19,-214.21 340.81,-207.63"/>
<text text-anchor="middle" x="389.28" y="-196" font-family="Times,serif" font-size="14.00">a</text>
</g>
<!-- http://purl.org/oseg/ontologies/OTRL#OTRL&#45;9 -->
<g id="node23" class="node">
<title>http://purl.org/oseg/ontologies/OTRL#OTRL&#45;9</title>
<ellipse fill="none" stroke="#e377c2" cx="533.32" cy="-111.9" rx="49.49" ry="16.03"/>
<text text-anchor="middle" x="533.32" y="-108.2" font-family="Times,serif" font-size="14.00">OTRL&#45;9</text>
</g>
<!-- http://purl.org/oseg/ontologies/OTRL#OTRL&#45;9&#45;&gt;http://purl.org/oseg/ontologies/OTRL#OTRL -->
<g id="edge7" class="edge">
<title>http://purl.org/oseg/ontologies/OTRL#OTRL&#45;9&#45;&gt;http://purl.org/oseg/ontologies/OTRL#OTRL</title>
<path fill="none" stroke="black" d="M533.68,-128.18C534.32,-156.86 535.66,-216.64 536.45,-251.58"/>
<polygon fill="black" stroke="black" points="532.96,-252.06 536.68,-261.98 539.96,-251.9 532.96,-252.06"/>
</g>
<!-- http://purl.org/oseg/ontologies/OTRL#OTRL&#45;9&#45;&gt;http://www.w3.org/2002/07/owl#class -->
<g id="edge40" class="edge">
<title>http://purl.org/oseg/ontologies/OTRL#OTRL&#45;9&#45;&gt;http://www.w3.org/2002/07/owl#class</title>
<path fill="none" stroke="black" d="M505.28,-125.58C462.98,-146.21 382.76,-185.35 335.17,-208.57"/>
<polygon fill="black" stroke="black" points="333.56,-205.46 326.1,-213 336.63,-211.76 333.56,-205.46"/>
<text text-anchor="middle" x="415.72" y="-170.88" font-family="Times,serif" font-size="14.00">a</text>
</g>
<!-- http://purl.org/oseg/ontologies/OTRL#ODRL&#45;5 -->
<g id="node24" class="node">
<title>http://purl.org/oseg/ontologies/OTRL#ODRL&#45;5</title>
<ellipse fill="none" stroke="#e377c2" cx="71.43" cy="-322.68" rx="50.82" ry="16.03"/>
<text text-anchor="middle" x="71.43" y="-318.98" font-family="Times,serif" font-size="14.00">ODRL&#45;5</text>
</g>
<!-- http://purl.org/oseg/ontologies/OTRL#ODRL&#45;5&#45;&gt;http://purl.org/oseg/ontologies/OTRL#ODRL -->
<g id="edge20" class="edge">
<title>http://purl.org/oseg/ontologies/OTRL#ODRL&#45;5&#45;&gt;http://purl.org/oseg/ontologies/OTRL#ODRL</title>
<path fill="none" stroke="black" d="M78.19,-306.33C88.37,-281.73 107.7,-235 119.77,-205.83"/>
<polygon fill="black" stroke="black" points="123.12,-206.89 123.71,-196.31 116.65,-204.21 123.12,-206.89"/>
</g>
<!-- http://purl.org/oseg/ontologies/OTRL#ODRL&#45;5&#45;&gt;http://www.w3.org/2002/07/owl#class -->
<g id="edge42" class="edge">
<title>http://purl.org/oseg/ontologies/OTRL#ODRL&#45;5&#45;&gt;http://www.w3.org/2002/07/owl#class</title>
<path fill="none" stroke="black" d="M102.32,-309.6C142.11,-292.76 211.42,-263.42 255.7,-244.68"/>
<polygon fill="black" stroke="black" points="257.18,-247.85 265.02,-240.73 254.45,-241.41 257.18,-247.85"/>
<text text-anchor="middle" x="174.51" y="-280.94" font-family="Times,serif" font-size="14.00">a</text>
</g>
<!-- http://purl.org/oseg/ontologies/OTRL#hardwareDescription -->
<g id="node25" class="node">
<title>http://purl.org/oseg/ontologies/OTRL#hardwareDescription</title>
<ellipse fill="none" stroke="#e377c2" cx="803.95" cy="-392.25" rx="118.17" ry="16.03"/>
<text text-anchor="middle" x="803.95" y="-388.55" font-family="Times,serif" font-size="14.00">hardwareDescription</text>
</g>
<!-- http://purl.org/oseg/ontologies/OTRL#hardwareDescription&#45;&gt;http://purl.org/oseg/ontologies/OTRL#OTRL -->
<g id="edge45" class="edge">
<title>http://purl.org/oseg/ontologies/OTRL#hardwareDescription&#45;&gt;http://purl.org/oseg/ontologies/OTRL#OTRL</title>
<path fill="none" stroke="black" d="M767.4,-376.68C716.57,-355.03 625.04,-316.05 574,-294.31"/>
<polygon fill="black" stroke="black" points="575.23,-291.03 564.66,-290.33 572.48,-297.47 575.23,-291.03"/>
<text text-anchor="middle" x="644.2" y="-339.29" font-family="Times,serif" font-size="14.00">domain</text>
</g>
<!-- http://purl.org/oseg/ontologies/OTRL#hardwareDescription&#45;&gt;http://www.w3.org/2002/07/owl#DatatypeProperty -->
<g id="edge18" class="edge">
<title>http://purl.org/oseg/ontologies/OTRL#hardwareDescription&#45;&gt;http://www.w3.org/2002/07/owl#DatatypeProperty</title>
<path fill="none" stroke="black" d="M914.67,-386.49C928.38,-385.78 942.46,-385.05 956.36,-384.32"/>
<polygon fill="black" stroke="black" points="956.64,-387.81 966.44,-383.8 956.28,-380.82 956.64,-387.81"/>
<text text-anchor="middle" x="931.02" y="-389.21" font-family="Times,serif" font-size="14.00">a</text>
</g>
<!-- http://purl.org/oseg/ontologies/OTRL#hardwareDescription&#45;&gt;http://schema.org/Text -->
<g id="edge14" class="edge">
<title>http://purl.org/oseg/ontologies/OTRL#hardwareDescription&#45;&gt;http://schema.org/Text</title>
<path fill="none" stroke="black" d="M834.8,-376.35C874.74,-355.78 944.34,-319.94 987.59,-297.66"/>
<polygon fill="black" stroke="black" points="989.38,-300.67 996.67,-292.98 986.17,-294.45 989.38,-300.67"/>
<text text-anchor="middle" x="890.2" y="-340.8" font-family="Times,serif" font-size="14.00">range</text>
</g>
<!-- http://purl.org/oseg/ontologies/OTRL#OTRL&#45;6 -->
<g id="node26" class="node">
<title>http://purl.org/oseg/ontologies/OTRL#OTRL&#45;6</title>
<ellipse fill="none" stroke="#e377c2" cx="486.68" cy="-411.04" rx="49.49" ry="16.03"/>
<text text-anchor="middle" x="486.68" y="-407.34" font-family="Times,serif" font-size="14.00">OTRL&#45;6</text>
</g>
<!-- http://purl.org/oseg/ontologies/OTRL#OTRL&#45;6&#45;&gt;http://purl.org/oseg/ontologies/OTRL#OTRL -->
<g id="edge34" class="edge">
<title>http://purl.org/oseg/ontologies/OTRL#OTRL&#45;6&#45;&gt;http://purl.org/oseg/ontologies/OTRL#OTRL</title>
<path fill="none" stroke="black" d="M492.86,-394.8C501.43,-372.25 517.03,-331.24 527.21,-304.45"/>
<polygon fill="black" stroke="black" points="530.54,-305.54 530.83,-294.95 524,-303.05 530.54,-305.54"/>
</g>
<!-- http://purl.org/oseg/ontologies/OTRL#OTRL&#45;6&#45;&gt;http://www.w3.org/2002/07/owl#class -->
<g id="edge19" class="edge">
<title>http://purl.org/oseg/ontologies/OTRL#OTRL&#45;6&#45;&gt;http://www.w3.org/2002/07/owl#class</title>
<path fill="none" stroke="black" d="M470.51,-395.37C436.91,-362.8 359.45,-287.73 320.4,-249.88"/>
<polygon fill="black" stroke="black" points="322.74,-247.28 313.13,-242.83 317.87,-252.3 322.74,-247.28"/>
<text text-anchor="middle" x="390.95" y="-311.42" font-family="Times,serif" font-size="14.00">a</text>
</g>
</g>
</svg>
