<?xml version="1.0" encoding="UTF-8" standalone="no"?>
<!DOCTYPE svg PUBLIC "-//W3C//DTD SVG 1.1//EN"
 "http://www.w3.org/Graphics/SVG/1.1/DTD/svg11.dtd">
<!-- Generated by graphviz version 2.43.0 (0)
 -->
<!-- Title: G Pages: 1 -->
<svg width="1174pt" height="417pt"
 viewBox="0.00 0.00 1174.00 417.00" xmlns="http://www.w3.org/2000/svg" xmlns:xlink="http://www.w3.org/1999/xlink">
<g id="graph0" class="graph" transform="scale(1 1) rotate(0) translate(4 413)">
<title>G</title>
<polygon fill="white" stroke="transparent" points="-4,4 -4,-413 1170,-413 1170,4 -4,4"/>
<!-- http://www.w3.org/2002/07/owl#class -->
<g id="node1" class="node">
<title>http://www.w3.org/2002/07/owl#class</title>
<ellipse fill="none" stroke="#1f77b4" cx="272.77" cy="-205.3" rx="57.05" ry="16.03"/>
<text text-anchor="middle" x="272.77" y="-201.6" font-family="Times,serif" font-size="14.00">owl:class</text>
</g>
<!-- http://www.w3.org/2002/07/owl#Ontology -->
<g id="node2" class="node">
<title>http://www.w3.org/2002/07/owl#Ontology</title>
<ellipse fill="none" stroke="#1f77b4" cx="682.32" cy="-38.47" rx="77.56" ry="16.03"/>
<text text-anchor="middle" x="682.32" y="-34.77" font-family="Times,serif" font-size="14.00">owl:Ontology</text>
</g>
<!-- http://www.w3.org/2002/07/owl#DatatypeProperty -->
<g id="node3" class="node">
<title>http://www.w3.org/2002/07/owl#DatatypeProperty</title>
<ellipse fill="none" stroke="#1f77b4" cx="1042.47" cy="-195.87" rx="123.07" ry="16.03"/>
<text text-anchor="middle" x="1042.47" y="-192.17" font-family="Times,serif" font-size="14.00">owl:DatatypeProperty</text>
</g>
<!-- http://purl.org/oseg/ontologies/OTRL#OTRL -->
<g id="node4" class="node">
<title>http://purl.org/oseg/ontologies/OTRL#OTRL</title>
<ellipse fill="none" stroke="#e377c2" cx="515.38" cy="-238.91" rx="39.7" ry="16.03"/>
<text text-anchor="middle" x="515.38" y="-235.21" font-family="Times,serif" font-size="14.00">OTRL</text>
</g>
<!-- http://purl.org/oseg/ontologies/OTRL#OTRL&#45;&gt;http://www.w3.org/2002/07/owl#class -->
<g id="edge35" class="edge">
<title>http://purl.org/oseg/ontologies/OTRL#OTRL&#45;&gt;http://www.w3.org/2002/07/owl#class</title>
<path fill="none" stroke="black" d="M477.74,-233.7C439.51,-228.4 379.65,-220.11 334.47,-213.85"/>
<polygon fill="black" stroke="black" points="334.88,-210.37 324.49,-212.47 333.92,-217.3 334.88,-210.37"/>
<text text-anchor="middle" x="401.61" y="-227.57" font-family="Times,serif" font-size="14.00">a</text>
</g>
<!-- http://purl.org/oseg/ontologies/OTRL#ODRL -->
<g id="node5" class="node">
<title>http://purl.org/oseg/ontologies/OTRL#ODRL</title>
<ellipse fill="none" stroke="#e377c2" cx="100.2" cy="-180.28" rx="41.94" ry="16.03"/>
<text text-anchor="middle" x="100.2" y="-176.58" font-family="Times,serif" font-size="14.00">ODRL</text>
</g>
<!-- http://purl.org/oseg/ontologies/OTRL#ODRL&#45;&gt;http://www.w3.org/2002/07/owl#class -->
<g id="edge1" class="edge">
<title>http://purl.org/oseg/ontologies/OTRL#ODRL&#45;&gt;http://www.w3.org/2002/07/owl#class</title>
<path fill="none" stroke="black" d="M139.36,-185.96C160.68,-189.05 187.53,-192.94 211.55,-196.42"/>
<polygon fill="black" stroke="black" points="211.25,-199.92 221.65,-197.89 212.25,-192.99 211.25,-199.92"/>
<text text-anchor="middle" x="170.95" y="-194.99" font-family="Times,serif" font-size="14.00">a</text>
</g>
<!-- http://purl.org/oseg/ontologies/OTRL#OTRL&#45;1 -->
<g id="node6" class="node">
<title>http://purl.org/oseg/ontologies/OTRL#OTRL&#45;1</title>
<ellipse fill="none" stroke="#e377c2" cx="300.45" cy="-342.75" rx="49.49" ry="16.03"/>
<text text-anchor="middle" x="300.45" y="-339.05" font-family="Times,serif" font-size="14.00">OTRL&#45;1</text>
</g>
<!-- http://purl.org/oseg/ontologies/OTRL#OTRL&#45;1&#45;&gt;http://www.w3.org/2002/07/owl#class -->
<g id="edge2" class="edge">
<title>http://purl.org/oseg/ontologies/OTRL#OTRL&#45;1&#45;&gt;http://www.w3.org/2002/07/owl#class</title>
<path fill="none" stroke="black" d="M297.17,-326.45C292.44,-302.99 283.68,-259.47 278.05,-231.48"/>
<polygon fill="black" stroke="black" points="281.46,-230.7 276.05,-221.59 274.6,-232.08 281.46,-230.7"/>
<text text-anchor="middle" x="283.11" y="-282.76" font-family="Times,serif" font-size="14.00">a</text>
</g>
<!-- http://purl.org/oseg/ontologies/OTRL#OTRL&#45;1&#45;&gt;http://purl.org/oseg/ontologies/OTRL#OTRL -->
<g id="edge4" class="edge">
<title>http://purl.org/oseg/ontologies/OTRL#OTRL&#45;1&#45;&gt;http://purl.org/oseg/ontologies/OTRL#OTRL</title>
<path fill="none" stroke="black" d="M328.55,-329.18C367.59,-310.32 438.19,-276.21 480.53,-255.75"/>
<polygon fill="black" stroke="black" points="482.15,-258.86 489.63,-251.35 479.1,-252.55 482.15,-258.86"/>
</g>
<!-- http://purl.org/oseg/ontologies/OTRL#ODRL&#45;2 -->
<g id="node7" class="node">
<title>http://purl.org/oseg/ontologies/OTRL#ODRL&#45;2</title>
<ellipse fill="none" stroke="#e377c2" cx="70.72" cy="-308.35" rx="50.82" ry="16.03"/>
<text text-anchor="middle" x="70.72" y="-304.65" font-family="Times,serif" font-size="14.00">ODRL&#45;2</text>
</g>
<!-- http://purl.org/oseg/ontologies/OTRL#ODRL&#45;2&#45;&gt;http://www.w3.org/2002/07/owl#class -->
<g id="edge27" class="edge">
<title>http://purl.org/oseg/ontologies/OTRL#ODRL&#45;2&#45;&gt;http://www.w3.org/2002/07/owl#class</title>
<path fill="none" stroke="black" d="M97.97,-294.45C133.47,-276.35 195.7,-244.61 235.54,-224.29"/>
<polygon fill="black" stroke="black" points="237.34,-227.3 244.66,-219.64 234.16,-221.06 237.34,-227.3"/>
<text text-anchor="middle" x="162.25" y="-263.17" font-family="Times,serif" font-size="14.00">a</text>
</g>
<!-- http://purl.org/oseg/ontologies/OTRL#ODRL&#45;2&#45;&gt;http://purl.org/oseg/ontologies/OTRL#ODRL -->
<g id="edge7" class="edge">
<title>http://purl.org/oseg/ontologies/OTRL#ODRL&#45;2&#45;&gt;http://purl.org/oseg/ontologies/OTRL#ODRL</title>
<path fill="none" stroke="black" d="M74.46,-292.13C79.41,-270.6 88.22,-232.3 94.14,-206.6"/>
<polygon fill="black" stroke="black" points="97.57,-207.3 96.4,-196.77 90.75,-205.73 97.57,-207.3"/>
</g>
<!-- http://purl.org/oseg/ontologies/OTRL#ODRL&#45;3 -->
<g id="node8" class="node">
<title>http://purl.org/oseg/ontologies/OTRL#ODRL&#45;3</title>
<ellipse fill="none" stroke="#e377c2" cx="86.66" cy="-64.8" rx="50.82" ry="16.03"/>
<text text-anchor="middle" x="86.66" y="-61.1" font-family="Times,serif" font-size="14.00">ODRL&#45;3</text>
</g>
<!-- http://purl.org/oseg/ontologies/OTRL#ODRL&#45;3&#45;&gt;http://www.w3.org/2002/07/owl#class -->
<g id="edge5" class="edge">
<title>http://purl.org/oseg/ontologies/OTRL#ODRL&#45;3&#45;&gt;http://www.w3.org/2002/07/owl#class</title>
<path fill="none" stroke="black" d="M106.57,-79.83C139.7,-104.84 206.24,-155.07 244.31,-183.81"/>
<polygon fill="black" stroke="black" points="242.34,-186.71 252.43,-189.95 246.56,-181.13 242.34,-186.71"/>
<text text-anchor="middle" x="170.94" y="-135.62" font-family="Times,serif" font-size="14.00">a</text>
</g>
<!-- http://purl.org/oseg/ontologies/OTRL#ODRL&#45;3&#45;&gt;http://purl.org/oseg/ontologies/OTRL#ODRL -->
<g id="edge34" class="edge">
<title>http://purl.org/oseg/ontologies/OTRL#ODRL&#45;3&#45;&gt;http://purl.org/oseg/ontologies/OTRL#ODRL</title>
<path fill="none" stroke="black" d="M88.6,-81.34C90.81,-100.21 94.45,-131.32 97.07,-153.62"/>
<polygon fill="black" stroke="black" points="93.62,-154.24 98.26,-163.76 100.57,-153.42 93.62,-154.24"/>
</g>
<!-- http://purl.org/oseg/ontologies/OTRL#OTRL&#45;3 -->
<g id="node9" class="node">
<title>http://purl.org/oseg/ontologies/OTRL#OTRL&#45;3</title>
<ellipse fill="none" stroke="#e377c2" cx="468.78" cy="-182.16" rx="49.49" ry="16.03"/>
<text text-anchor="middle" x="468.78" y="-178.46" font-family="Times,serif" font-size="14.00">OTRL&#45;3</text>
</g>
<!-- http://purl.org/oseg/ontologies/OTRL#OTRL&#45;3&#45;&gt;http://www.w3.org/2002/07/owl#class -->
<g id="edge6" class="edge">
<title>http://purl.org/oseg/ontologies/OTRL#OTRL&#45;3&#45;&gt;http://www.w3.org/2002/07/owl#class</title>
<path fill="none" stroke="black" d="M421.83,-187.7C396.11,-190.74 363.88,-194.54 335.97,-197.84"/>
<polygon fill="black" stroke="black" points="335.43,-194.38 325.91,-199.03 336.25,-201.33 335.43,-194.38"/>
<text text-anchor="middle" x="374.4" y="-196.57" font-family="Times,serif" font-size="14.00">a</text>
</g>
<!-- http://purl.org/oseg/ontologies/OTRL#OTRL&#45;3&#45;&gt;http://purl.org/oseg/ontologies/OTRL#OTRL -->
<g id="edge41" class="edge">
<title>http://purl.org/oseg/ontologies/OTRL#OTRL&#45;3&#45;&gt;http://purl.org/oseg/ontologies/OTRL#OTRL</title>
<path fill="none" stroke="black" d="M481.76,-197.97C486.2,-203.38 491.27,-209.55 496.11,-215.44"/>
<polygon fill="black" stroke="black" points="493.42,-217.68 502.47,-223.19 498.83,-213.24 493.42,-217.68"/>
</g>
<!-- http://purl.org/oseg/ontologies/OTRL#OTRL&#45;5 -->
<g id="node10" class="node">
<title>http://purl.org/oseg/ontologies/OTRL#OTRL&#45;5</title>
<ellipse fill="none" stroke="#e377c2" cx="380.75" cy="-140.11" rx="49.49" ry="16.03"/>
<text text-anchor="middle" x="380.75" y="-136.41" font-family="Times,serif" font-size="14.00">OTRL&#45;5</text>
</g>
<!-- http://purl.org/oseg/ontologies/OTRL#OTRL&#45;5&#45;&gt;http://www.w3.org/2002/07/owl#class -->
<g id="edge29" class="edge">
<title>http://purl.org/oseg/ontologies/OTRL#OTRL&#45;5&#45;&gt;http://www.w3.org/2002/07/owl#class</title>
<path fill="none" stroke="black" d="M357.05,-154.42C342.07,-163.46 322.49,-175.28 305.97,-185.26"/>
<polygon fill="black" stroke="black" points="303.91,-182.41 297.16,-190.58 307.53,-188.4 303.91,-182.41"/>
<text text-anchor="middle" x="327.01" y="-173.64" font-family="Times,serif" font-size="14.00">a</text>
</g>
<!-- http://purl.org/oseg/ontologies/OTRL#OTRL&#45;5&#45;&gt;http://purl.org/oseg/ontologies/OTRL#OTRL -->
<g id="edge18" class="edge">
<title>http://purl.org/oseg/ontologies/OTRL#OTRL&#45;5&#45;&gt;http://purl.org/oseg/ontologies/OTRL#OTRL</title>
<path fill="none" stroke="black" d="M401.2,-155.12C424.2,-172 461.69,-199.51 487.39,-218.37"/>
<polygon fill="black" stroke="black" points="485.49,-221.32 495.62,-224.41 489.63,-215.67 485.49,-221.32"/>
</g>
<!-- http://purl.org/oseg/ontologies/OTRL#OTRL&#45;8 -->
<g id="node11" class="node">
<title>http://purl.org/oseg/ontologies/OTRL#OTRL&#45;8</title>
<ellipse fill="none" stroke="#e377c2" cx="410.05" cy="-299.15" rx="49.49" ry="16.03"/>
<text text-anchor="middle" x="410.05" y="-295.45" font-family="Times,serif" font-size="14.00">OTRL&#45;8</text>
</g>
<!-- http://purl.org/oseg/ontologies/OTRL#OTRL&#45;8&#45;&gt;http://www.w3.org/2002/07/owl#class -->
<g id="edge32" class="edge">
<title>http://purl.org/oseg/ontologies/OTRL#OTRL&#45;8&#45;&gt;http://www.w3.org/2002/07/owl#class</title>
<path fill="none" stroke="black" d="M388.6,-284.48C365.7,-268.83 329.22,-243.89 303.32,-226.19"/>
<polygon fill="black" stroke="black" points="305.21,-223.24 294.98,-220.48 301.26,-229.02 305.21,-223.24"/>
<text text-anchor="middle" x="341.46" y="-259.13" font-family="Times,serif" font-size="14.00">a</text>
</g>
<!-- http://purl.org/oseg/ontologies/OTRL#OTRL&#45;8&#45;&gt;http://purl.org/oseg/ontologies/OTRL#OTRL -->
<g id="edge31" class="edge">
<title>http://purl.org/oseg/ontologies/OTRL#OTRL&#45;8&#45;&gt;http://purl.org/oseg/ontologies/OTRL#OTRL</title>
<path fill="none" stroke="black" d="M434.75,-285.02C449.18,-276.77 467.57,-266.25 483.14,-257.35"/>
<polygon fill="black" stroke="black" points="484.98,-260.33 491.93,-252.32 481.51,-254.25 484.98,-260.33"/>
</g>
<!-- http://purl.org/oseg/ontologies/OTRL#exitCriteria -->
<g id="node12" class="node">
<title>http://purl.org/oseg/ontologies/OTRL#exitCriteria</title>
<ellipse fill="none" stroke="#e377c2" cx="758.33" cy="-169.93" rx="70.01" ry="16.03"/>
<text text-anchor="middle" x="758.33" y="-166.23" font-family="Times,serif" font-size="14.00">exitCriteria</text>
</g>
<!-- http://purl.org/oseg/ontologies/OTRL#exitCriteria&#45;&gt;http://www.w3.org/2002/07/owl#DatatypeProperty -->
<g id="edge33" class="edge">
<title>http://purl.org/oseg/ontologies/OTRL#exitCriteria&#45;&gt;http://www.w3.org/2002/07/owl#DatatypeProperty</title>
<path fill="none" stroke="black" d="M823.52,-175.88C855.34,-178.78 894.53,-182.36 930.92,-185.68"/>
<polygon fill="black" stroke="black" points="930.82,-189.19 941.1,-186.61 931.46,-182.22 930.82,-189.19"/>
<text text-anchor="middle" x="872.72" y="-184.58" font-family="Times,serif" font-size="14.00">a</text>
</g>
<!-- http://purl.org/oseg/ontologies/OTRL#exitCriteria&#45;&gt;http://purl.org/oseg/ontologies/OTRL#OTRL -->
<g id="edge21" class="edge">
<title>http://purl.org/oseg/ontologies/OTRL#exitCriteria&#45;&gt;http://purl.org/oseg/ontologies/OTRL#OTRL</title>
<path fill="none" stroke="black" d="M713.77,-182.58C669.29,-195.21 601.44,-214.48 557.75,-226.88"/>
<polygon fill="black" stroke="black" points="556.66,-223.55 548,-229.65 558.57,-230.29 556.66,-223.55"/>
<text text-anchor="middle" x="609.26" y="-208.53" font-family="Times,serif" font-size="14.00">domain</text>
</g>
<!-- http://schema.org/Text -->
<g id="node20" class="node">
<title>http://schema.org/Text</title>
<ellipse fill="none" stroke="#e377c2" cx="986.24" cy="-280.92" rx="74.91" ry="16.03"/>
<text text-anchor="middle" x="986.24" y="-277.22" font-family="Times,serif" font-size="14.00">schema:Text</text>
</g>
<!-- http://purl.org/oseg/ontologies/OTRL#exitCriteria&#45;&gt;http://schema.org/Text -->
<g id="edge46" class="edge">
<title>http://purl.org/oseg/ontologies/OTRL#exitCriteria&#45;&gt;http://schema.org/Text</title>
<path fill="none" stroke="black" d="M788.59,-184.67C829.18,-204.43 901.32,-239.56 946.32,-261.48"/>
<polygon fill="black" stroke="black" points="944.96,-264.71 955.49,-265.94 948.03,-258.42 944.96,-264.71"/>
<text text-anchor="middle" x="888.46" y="-211.87" font-family="Times,serif" font-size="14.00">range</text>
</g>
<!-- http://purl.org/oseg/ontologies/OTRL -->
<g id="node13" class="node">
<title>http://purl.org/oseg/ontologies/OTRL</title>
<ellipse fill="none" stroke="#e377c2" cx="829.95" cy="-16.42" rx="60.62" ry="16.03"/>
<text text-anchor="middle" x="829.95" y="-12.72" font-family="Times,serif" font-size="14.00">ns1:OTRL</text>
</g>
<!-- http://purl.org/oseg/ontologies/OTRL&#45;&gt;http://www.w3.org/2002/07/owl#Ontology -->
<g id="edge10" class="edge">
<title>http://purl.org/oseg/ontologies/OTRL&#45;&gt;http://www.w3.org/2002/07/owl#Ontology</title>
<path fill="none" stroke="black" d="M776.65,-24.38C769.94,-25.38 762.98,-26.42 756.02,-27.46"/>
<polygon fill="black" stroke="black" points="755.22,-24.04 745.85,-28.98 756.26,-30.96 755.22,-24.04"/>
<text text-anchor="middle" x="764.08" y="-14.72" font-family="Times,serif" font-size="14.00">a</text>
</g>
<!-- http://purl.org/oseg/ontologies/OTRL&#45;&gt;http://purl.org/oseg/ontologies/OTRL -->
<g id="edge37" class="edge">
<title>http://purl.org/oseg/ontologies/OTRL&#45;&gt;http://purl.org/oseg/ontologies/OTRL</title>
<path fill="none" stroke="black" d="M885.55,-23.05C898.89,-22.53 908.76,-20.32 908.76,-16.42 908.76,-13.58 903.55,-11.64 895.58,-10.59"/>
<polygon fill="black" stroke="black" points="895.8,-7.1 885.55,-9.78 895.24,-14.07 895.8,-7.1"/>
<text text-anchor="middle" x="960.26" y="-12.72" font-family="Times,serif" font-size="14.00">owl:versionIRI</text>
</g>
<!-- http://purl.org/oseg/ontologies/OTRL#OTRL&#45;9 -->
<g id="node14" class="node">
<title>http://purl.org/oseg/ontologies/OTRL#OTRL&#45;9</title>
<ellipse fill="none" stroke="#e377c2" cx="399.66" cy="-391.73" rx="49.49" ry="16.03"/>
<text text-anchor="middle" x="399.66" y="-388.03" font-family="Times,serif" font-size="14.00">OTRL&#45;9</text>
</g>
<!-- http://purl.org/oseg/ontologies/OTRL#OTRL&#45;9&#45;&gt;http://www.w3.org/2002/07/owl#class -->
<g id="edge11" class="edge">
<title>http://purl.org/oseg/ontologies/OTRL#OTRL&#45;9&#45;&gt;http://www.w3.org/2002/07/owl#class</title>
<path fill="none" stroke="black" d="M388.84,-375.83C366.7,-343.31 316.09,-268.95 289.62,-230.05"/>
<polygon fill="black" stroke="black" points="292.26,-227.72 283.74,-221.42 286.48,-231.66 292.26,-227.72"/>
<text text-anchor="middle" x="334.73" y="-306.74" font-family="Times,serif" font-size="14.00">a</text>
</g>
<!-- http://purl.org/oseg/ontologies/OTRL#OTRL&#45;9&#45;&gt;http://purl.org/oseg/ontologies/OTRL#OTRL -->
<g id="edge9" class="edge">
<title>http://purl.org/oseg/ontologies/OTRL#OTRL&#45;9&#45;&gt;http://purl.org/oseg/ontologies/OTRL#OTRL</title>
<path fill="none" stroke="black" d="M411.82,-375.66C432.19,-348.76 473.3,-294.48 497.15,-262.99"/>
<polygon fill="black" stroke="black" points="500.13,-264.85 503.38,-254.76 494.55,-260.62 500.13,-264.85"/>
</g>
<!-- http://purl.org/oseg/ontologies/OTRL#documentationDescription -->
<g id="node15" class="node">
<title>http://purl.org/oseg/ontologies/OTRL#documentationDescription</title>
<ellipse fill="none" stroke="#e377c2" cx="774.16" cy="-324.36" rx="120.83" ry="16.03"/>
<text text-anchor="middle" x="774.16" y="-320.66" font-family="Times,serif" font-size="14.00">documentationDesc...</text>
</g>
<!-- http://purl.org/oseg/ontologies/OTRL#documentationDescription&#45;&gt;http://www.w3.org/2002/07/owl#DatatypeProperty -->
<g id="edge12" class="edge">
<title>http://purl.org/oseg/ontologies/OTRL#documentationDescription&#45;&gt;http://www.w3.org/2002/07/owl#DatatypeProperty</title>
<path fill="none" stroke="black" d="M807.06,-308.6C855.77,-285.27 947.06,-241.56 1000.52,-215.96"/>
<polygon fill="black" stroke="black" points="1002.21,-219.03 1009.72,-211.55 999.19,-212.71 1002.21,-219.03"/>
<text text-anchor="middle" x="899.29" y="-266.08" font-family="Times,serif" font-size="14.00">a</text>
</g>
<!-- http://purl.org/oseg/ontologies/OTRL#documentationDescription&#45;&gt;http://purl.org/oseg/ontologies/OTRL#OTRL -->
<g id="edge26" class="edge">
<title>http://purl.org/oseg/ontologies/OTRL#documentationDescription&#45;&gt;http://purl.org/oseg/ontologies/OTRL#OTRL</title>
<path fill="none" stroke="black" d="M728.49,-309.28C679.59,-293.13 602.73,-267.75 555.9,-252.29"/>
<polygon fill="black" stroke="black" points="556.98,-248.96 546.39,-249.15 554.79,-255.61 556.98,-248.96"/>
<text text-anchor="middle" x="615.7" y="-284.58" font-family="Times,serif" font-size="14.00">domain</text>
</g>
<!-- http://purl.org/oseg/ontologies/OTRL#documentationDescription&#45;&gt;http://schema.org/Text -->
<g id="edge16" class="edge">
<title>http://purl.org/oseg/ontologies/OTRL#documentationDescription&#45;&gt;http://schema.org/Text</title>
<path fill="none" stroke="black" d="M840.68,-310.73C866.53,-305.44 896.03,-299.4 921.68,-294.14"/>
<polygon fill="black" stroke="black" points="922.58,-297.53 931.68,-292.09 921.18,-290.67 922.58,-297.53"/>
<text text-anchor="middle" x="860.18" y="-291.24" font-family="Times,serif" font-size="14.00">range</text>
</g>
<!-- http://purl.org/oseg/ontologies/OTRL#hardwareDescription -->
<g id="node16" class="node">
<title>http://purl.org/oseg/ontologies/OTRL#hardwareDescription</title>
<ellipse fill="none" stroke="#e377c2" cx="758.87" cy="-392.29" rx="118.17" ry="16.03"/>
<text text-anchor="middle" x="758.87" y="-388.59" font-family="Times,serif" font-size="14.00">hardwareDescription</text>
</g>
<!-- http://purl.org/oseg/ontologies/OTRL#hardwareDescription&#45;&gt;http://www.w3.org/2002/07/owl#DatatypeProperty -->
<g id="edge13" class="edge">
<title>http://purl.org/oseg/ontologies/OTRL#hardwareDescription&#45;&gt;http://www.w3.org/2002/07/owl#DatatypeProperty</title>
<path fill="none" stroke="black" d="M782.08,-376.22C832.79,-341.09 953.52,-257.47 1011.01,-217.66"/>
<polygon fill="black" stroke="black" points="1013.11,-220.46 1019.34,-211.89 1009.13,-214.7 1013.11,-220.46"/>
<text text-anchor="middle" x="892.04" y="-285.74" font-family="Times,serif" font-size="14.00">a</text>
</g>
<!-- http://purl.org/oseg/ontologies/OTRL#hardwareDescription&#45;&gt;http://purl.org/oseg/ontologies/OTRL#OTRL -->
<g id="edge3" class="edge">
<title>http://purl.org/oseg/ontologies/OTRL#hardwareDescription&#45;&gt;http://purl.org/oseg/ontologies/OTRL#OTRL</title>
<path fill="none" stroke="black" d="M733.27,-376.16C687.98,-347.64 593.96,-288.41 545.58,-257.93"/>
<polygon fill="black" stroke="black" points="547.43,-254.96 537.1,-252.59 543.7,-260.88 547.43,-254.96"/>
<text text-anchor="middle" x="612.93" y="-320.85" font-family="Times,serif" font-size="14.00">domain</text>
</g>
<!-- http://purl.org/oseg/ontologies/OTRL#hardwareDescription&#45;&gt;http://schema.org/Text -->
<g id="edge42" class="edge">
<title>http://purl.org/oseg/ontologies/OTRL#hardwareDescription&#45;&gt;http://schema.org/Text</title>
<path fill="none" stroke="black" d="M790.96,-376.57C831.88,-356.53 902.59,-321.89 946.76,-300.26"/>
<polygon fill="black" stroke="black" points="948.32,-303.39 955.76,-295.85 945.24,-297.1 948.32,-303.39"/>
<text text-anchor="middle" x="889.86" y="-342.21" font-family="Times,serif" font-size="14.00">range</text>
</g>
<!-- http://purl.org/oseg/ontologies/OTRL#ODRL&#45;1 -->
<g id="node17" class="node">
<title>http://purl.org/oseg/ontologies/OTRL#ODRL&#45;1</title>
<ellipse fill="none" stroke="#e377c2" cx="50.74" cy="-236.87" rx="50.82" ry="16.03"/>
<text text-anchor="middle" x="50.74" y="-233.17" font-family="Times,serif" font-size="14.00">ODRL&#45;1</text>
</g>
<!-- http://purl.org/oseg/ontologies/OTRL#ODRL&#45;1&#45;&gt;http://www.w3.org/2002/07/owl#class -->
<g id="edge38" class="edge">
<title>http://purl.org/oseg/ontologies/OTRL#ODRL&#45;1&#45;&gt;http://www.w3.org/2002/07/owl#class</title>
<path fill="none" stroke="black" d="M97.28,-230.25C130.41,-225.54 175.26,-219.17 211.32,-214.04"/>
<polygon fill="black" stroke="black" points="211.84,-217.5 221.25,-212.63 210.85,-210.57 211.84,-217.5"/>
<text text-anchor="middle" x="149.8" y="-225.94" font-family="Times,serif" font-size="14.00">a</text>
</g>
<!-- http://purl.org/oseg/ontologies/OTRL#ODRL&#45;1&#45;&gt;http://purl.org/oseg/ontologies/OTRL#ODRL -->
<g id="edge30" class="edge">
<title>http://purl.org/oseg/ontologies/OTRL#ODRL&#45;1&#45;&gt;http://purl.org/oseg/ontologies/OTRL#ODRL</title>
<path fill="none" stroke="black" d="M64.51,-221.11C69.23,-215.71 74.61,-209.55 79.74,-203.68"/>
<polygon fill="black" stroke="black" points="82.55,-205.79 86.49,-195.96 77.28,-201.18 82.55,-205.79"/>
</g>
<!-- http://purl.org/oseg/ontologies/OTRL#softwareDescription -->
<g id="node18" class="node">
<title>http://purl.org/oseg/ontologies/OTRL#softwareDescription</title>
<ellipse fill="none" stroke="#e377c2" cx="782.17" cy="-231.69" rx="113.69" ry="16.03"/>
<text text-anchor="middle" x="782.17" y="-227.99" font-family="Times,serif" font-size="14.00">softwareDescription</text>
</g>
<!-- http://purl.org/oseg/ontologies/OTRL#softwareDescription&#45;&gt;http://www.w3.org/2002/07/owl#DatatypeProperty -->
<g id="edge39" class="edge">
<title>http://purl.org/oseg/ontologies/OTRL#softwareDescription&#45;&gt;http://www.w3.org/2002/07/owl#DatatypeProperty</title>
<path fill="none" stroke="black" d="M864.17,-220.4C890.34,-216.8 919.52,-212.79 946.58,-209.06"/>
<polygon fill="black" stroke="black" points="947.41,-212.48 956.84,-207.65 946.45,-205.55 947.41,-212.48"/>
<text text-anchor="middle" x="909.88" y="-203.53" font-family="Times,serif" font-size="14.00">a</text>
</g>
<!-- http://purl.org/oseg/ontologies/OTRL#softwareDescription&#45;&gt;http://purl.org/oseg/ontologies/OTRL#OTRL -->
<g id="edge28" class="edge">
<title>http://purl.org/oseg/ontologies/OTRL#softwareDescription&#45;&gt;http://purl.org/oseg/ontologies/OTRL#OTRL</title>
<path fill="none" stroke="black" d="M670.19,-234.72C633.58,-235.71 594.76,-236.76 565.15,-237.56"/>
<polygon fill="black" stroke="black" points="564.99,-234.07 555.08,-237.84 565.18,-241.06 564.99,-234.07"/>
<text text-anchor="middle" x="591.17" y="-239.94" font-family="Times,serif" font-size="14.00">domain</text>
</g>
<!-- http://purl.org/oseg/ontologies/OTRL#softwareDescription&#45;&gt;http://schema.org/Text -->
<g id="edge19" class="edge">
<title>http://purl.org/oseg/ontologies/OTRL#softwareDescription&#45;&gt;http://schema.org/Text</title>
<path fill="none" stroke="black" d="M840.37,-245.73C867.23,-252.21 899.1,-259.9 926.18,-266.43"/>
<polygon fill="black" stroke="black" points="925.38,-269.84 935.93,-268.78 927.03,-263.03 925.38,-269.84"/>
<text text-anchor="middle" x="862.28" y="-259.88" font-family="Times,serif" font-size="14.00">range</text>
</g>
<!-- http://purl.org/oseg/ontologies/OTRL#OTRL&#45;6 -->
<g id="node19" class="node">
<title>http://purl.org/oseg/ontologies/OTRL#OTRL&#45;6</title>
<ellipse fill="none" stroke="#e377c2" cx="450.36" cy="-41.26" rx="49.49" ry="16.03"/>
<text text-anchor="middle" x="450.36" y="-37.56" font-family="Times,serif" font-size="14.00">OTRL&#45;6</text>
</g>
<!-- http://purl.org/oseg/ontologies/OTRL#OTRL&#45;6&#45;&gt;http://www.w3.org/2002/07/owl#class -->
<g id="edge15" class="edge">
<title>http://purl.org/oseg/ontologies/OTRL#OTRL&#45;6&#45;&gt;http://www.w3.org/2002/07/owl#class</title>
<path fill="none" stroke="black" d="M433.65,-56.69C402.26,-85.69 334.35,-148.42 297.6,-182.37"/>
<polygon fill="black" stroke="black" points="294.8,-180.19 289.83,-189.55 299.55,-185.33 294.8,-180.19"/>
<text text-anchor="middle" x="361.13" y="-108.33" font-family="Times,serif" font-size="14.00">a</text>
</g>
<!-- http://purl.org/oseg/ontologies/OTRL#OTRL&#45;6&#45;&gt;http://purl.org/oseg/ontologies/OTRL#OTRL -->
<g id="edge14" class="edge">
<title>http://purl.org/oseg/ontologies/OTRL#OTRL&#45;6&#45;&gt;http://purl.org/oseg/ontologies/OTRL#OTRL</title>
<path fill="none" stroke="black" d="M455.68,-57.44C466.95,-91.69 493.3,-171.78 506.91,-213.16"/>
<polygon fill="black" stroke="black" points="503.63,-214.38 510.08,-222.79 510.28,-212.2 503.63,-214.38"/>
</g>
<!-- http://purl.org/oseg/ontologies/OTRL#ODRL&#45;4 -->
<g id="node21" class="node">
<title>http://purl.org/oseg/ontologies/OTRL#ODRL&#45;4</title>
<ellipse fill="none" stroke="#e377c2" cx="62.87" cy="-137.18" rx="50.82" ry="16.03"/>
<text text-anchor="middle" x="62.87" y="-133.48" font-family="Times,serif" font-size="14.00">ODRL&#45;4</text>
</g>
<!-- http://purl.org/oseg/ontologies/OTRL#ODRL&#45;4&#45;&gt;http://www.w3.org/2002/07/owl#class -->
<g id="edge17" class="edge">
<title>http://purl.org/oseg/ontologies/OTRL#ODRL&#45;4&#45;&gt;http://www.w3.org/2002/07/owl#class</title>
<path fill="none" stroke="black" d="M98.95,-148.89C133.81,-160.2 186.83,-177.41 225.14,-189.84"/>
<polygon fill="black" stroke="black" points="224.45,-193.3 235.04,-193.05 226.61,-186.64 224.45,-193.3"/>
<text text-anchor="middle" x="157.55" y="-173.16" font-family="Times,serif" font-size="14.00">a</text>
</g>
<!-- http://purl.org/oseg/ontologies/OTRL#ODRL&#45;4&#45;&gt;http://purl.org/oseg/ontologies/OTRL#ODRL -->
<g id="edge8" class="edge">
<title>http://purl.org/oseg/ontologies/OTRL#ODRL&#45;4&#45;&gt;http://purl.org/oseg/ontologies/OTRL#ODRL</title>
<path fill="none" stroke="black" d="M76.77,-153.23C77.78,-154.39 78.81,-155.58 79.85,-156.78"/>
<polygon fill="black" stroke="black" points="77.46,-159.38 86.66,-164.65 82.76,-154.79 77.46,-159.38"/>
</g>
<!-- http://purl.org/oseg/ontologies/OTRL#ODRL&#45;0 -->
<g id="node22" class="node">
<title>http://purl.org/oseg/ontologies/OTRL#ODRL&#45;0</title>
<ellipse fill="none" stroke="#e377c2" cx="196.83" cy="-16.55" rx="50.82" ry="16.03"/>
<text text-anchor="middle" x="196.83" y="-12.85" font-family="Times,serif" font-size="14.00">ODRL&#45;0</text>
</g>
<!-- http://purl.org/oseg/ontologies/OTRL#ODRL&#45;0&#45;&gt;http://www.w3.org/2002/07/owl#class -->
<g id="edge43" class="edge">
<title>http://purl.org/oseg/ontologies/OTRL#ODRL&#45;0&#45;&gt;http://www.w3.org/2002/07/owl#class</title>
<path fill="none" stroke="black" d="M203.44,-32.97C216.68,-65.89 246.57,-140.18 262.43,-179.6"/>
<polygon fill="black" stroke="black" points="259.26,-181.08 266.24,-189.05 265.75,-178.47 259.26,-181.08"/>
<text text-anchor="middle" x="228.44" y="-110.09" font-family="Times,serif" font-size="14.00">a</text>
</g>
<!-- http://purl.org/oseg/ontologies/OTRL#ODRL&#45;0&#45;&gt;http://purl.org/oseg/ontologies/OTRL#ODRL -->
<g id="edge23" class="edge">
<title>http://purl.org/oseg/ontologies/OTRL#ODRL&#45;0&#45;&gt;http://purl.org/oseg/ontologies/OTRL#ODRL</title>
<path fill="none" stroke="black" d="M187.39,-32.55C170.55,-61.09 135.2,-120.97 115.07,-155.08"/>
<polygon fill="black" stroke="black" points="111.89,-153.58 109.82,-163.97 117.92,-157.14 111.89,-153.58"/>
</g>
<!-- http://purl.org/oseg/ontologies/OTRL#ODRL&#45;5 -->
<g id="node23" class="node">
<title>http://purl.org/oseg/ontologies/OTRL#ODRL&#45;5</title>
<ellipse fill="none" stroke="#e377c2" cx="150.47" cy="-359.79" rx="50.82" ry="16.03"/>
<text text-anchor="middle" x="150.47" y="-356.09" font-family="Times,serif" font-size="14.00">ODRL&#45;5</text>
</g>
<!-- http://purl.org/oseg/ontologies/OTRL#ODRL&#45;5&#45;&gt;http://www.w3.org/2002/07/owl#class -->
<g id="edge44" class="edge">
<title>http://purl.org/oseg/ontologies/OTRL#ODRL&#45;5&#45;&gt;http://www.w3.org/2002/07/owl#class</title>
<path fill="none" stroke="black" d="M163.1,-343.83C184.61,-316.66 228.49,-261.24 253.74,-229.35"/>
<polygon fill="black" stroke="black" points="256.57,-231.41 260.03,-221.4 251.08,-227.06 256.57,-231.41"/>
<text text-anchor="middle" x="203.92" y="-290.39" font-family="Times,serif" font-size="14.00">a</text>
</g>
<!-- http://purl.org/oseg/ontologies/OTRL#ODRL&#45;5&#45;&gt;http://purl.org/oseg/ontologies/OTRL#ODRL -->
<g id="edge40" class="edge">
<title>http://purl.org/oseg/ontologies/OTRL#ODRL&#45;5&#45;&gt;http://purl.org/oseg/ontologies/OTRL#ODRL</title>
<path fill="none" stroke="black" d="M145.92,-343.54C137.19,-312.38 118.04,-243.98 107.5,-206.36"/>
<polygon fill="black" stroke="black" points="110.84,-205.3 104.77,-196.62 104.1,-207.19 110.84,-205.3"/>
</g>
<!-- http://purl.org/oseg/ontologies/OTRL#OTRL&#45;7 -->
<g id="node24" class="node">
<title>http://purl.org/oseg/ontologies/OTRL#OTRL&#45;7</title>
<ellipse fill="none" stroke="#e377c2" cx="355.6" cy="-81.82" rx="49.49" ry="16.03"/>
<text text-anchor="middle" x="355.6" y="-78.12" font-family="Times,serif" font-size="14.00">OTRL&#45;7</text>
</g>
<!-- http://purl.org/oseg/ontologies/OTRL#OTRL&#45;7&#45;&gt;http://www.w3.org/2002/07/owl#class -->
<g id="edge22" class="edge">
<title>http://purl.org/oseg/ontologies/OTRL#OTRL&#45;7&#45;&gt;http://www.w3.org/2002/07/owl#class</title>
<path fill="none" stroke="black" d="M344.94,-97.71C330.85,-118.71 305.89,-155.92 289.34,-180.61"/>
<polygon fill="black" stroke="black" points="286.32,-178.82 283.65,-189.08 292.13,-182.72 286.32,-178.82"/>
<text text-anchor="middle" x="312.64" y="-142.96" font-family="Times,serif" font-size="14.00">a</text>
</g>
<!-- http://purl.org/oseg/ontologies/OTRL#OTRL&#45;7&#45;&gt;http://purl.org/oseg/ontologies/OTRL#OTRL -->
<g id="edge20" class="edge">
<title>http://purl.org/oseg/ontologies/OTRL#OTRL&#45;7&#45;&gt;http://purl.org/oseg/ontologies/OTRL#OTRL</title>
<path fill="none" stroke="black" d="M371.5,-97.45C400,-125.47 459.86,-184.32 492.67,-216.58"/>
<polygon fill="black" stroke="black" points="490.43,-219.28 500.01,-223.8 495.34,-214.29 490.43,-219.28"/>
</g>
<!-- http://purl.org/oseg/ontologies/OTRL#OTRL&#45;2 -->
<g id="node25" class="node">
<title>http://purl.org/oseg/ontologies/OTRL#OTRL&#45;2</title>
<ellipse fill="none" stroke="#e377c2" cx="505.49" cy="-339.76" rx="49.49" ry="16.03"/>
<text text-anchor="middle" x="505.49" y="-336.06" font-family="Times,serif" font-size="14.00">OTRL&#45;2</text>
</g>
<!-- http://purl.org/oseg/ontologies/OTRL#OTRL&#45;2&#45;&gt;http://www.w3.org/2002/07/owl#class -->
<g id="edge45" class="edge">
<title>http://purl.org/oseg/ontologies/OTRL#OTRL&#45;2&#45;&gt;http://www.w3.org/2002/07/owl#class</title>
<path fill="none" stroke="black" d="M480.58,-325.37C438.72,-301.18 354.21,-252.35 306.87,-225"/>
<polygon fill="black" stroke="black" points="308.61,-221.97 298.2,-219.99 305.11,-228.03 308.61,-221.97"/>
<text text-anchor="middle" x="389.23" y="-263.99" font-family="Times,serif" font-size="14.00">a</text>
</g>
<!-- http://purl.org/oseg/ontologies/OTRL#OTRL&#45;2&#45;&gt;http://purl.org/oseg/ontologies/OTRL#OTRL -->
<g id="edge36" class="edge">
<title>http://purl.org/oseg/ontologies/OTRL#OTRL&#45;2&#45;&gt;http://purl.org/oseg/ontologies/OTRL#OTRL</title>
<path fill="none" stroke="black" d="M507.12,-323.1C508.66,-307.39 511,-283.58 512.79,-265.29"/>
<polygon fill="black" stroke="black" points="516.29,-265.55 513.78,-255.25 509.32,-264.86 516.29,-265.55"/>
</g>
<!-- http://purl.org/oseg/ontologies/OTRL#OTRL&#45;4 -->
<g id="node26" class="node">
<title>http://purl.org/oseg/ontologies/OTRL#OTRL&#45;4</title>
<ellipse fill="none" stroke="#e377c2" cx="479.38" cy="-90.4" rx="49.49" ry="16.03"/>
<text text-anchor="middle" x="479.38" y="-86.7" font-family="Times,serif" font-size="14.00">OTRL&#45;4</text>
</g>
<!-- http://purl.org/oseg/ontologies/OTRL#OTRL&#45;4&#45;&gt;http://www.w3.org/2002/07/owl#class -->
<g id="edge25" class="edge">
<title>http://purl.org/oseg/ontologies/OTRL#OTRL&#45;4&#45;&gt;http://www.w3.org/2002/07/owl#class</title>
<path fill="none" stroke="black" d="M454.04,-104.49C417.38,-124.88 349.39,-162.69 307.9,-185.77"/>
<polygon fill="black" stroke="black" points="306,-182.81 298.97,-190.73 309.41,-188.93 306,-182.81"/>
<text text-anchor="middle" x="376.47" y="-148.93" font-family="Times,serif" font-size="14.00">a</text>
</g>
<!-- http://purl.org/oseg/ontologies/OTRL#OTRL&#45;4&#45;&gt;http://purl.org/oseg/ontologies/OTRL#OTRL -->
<g id="edge24" class="edge">
<title>http://purl.org/oseg/ontologies/OTRL#OTRL&#45;4&#45;&gt;http://purl.org/oseg/ontologies/OTRL#OTRL</title>
<path fill="none" stroke="black" d="M483.37,-106.86C489.56,-132.4 501.54,-181.8 508.96,-212.4"/>
<polygon fill="black" stroke="black" points="505.62,-213.48 511.37,-222.38 512.42,-211.83 505.62,-213.48"/>
</g>
</g>
</svg>
