<?xml version="1.0" encoding="UTF-8" standalone="no"?>
<!DOCTYPE svg PUBLIC "-//W3C//DTD SVG 1.1//EN"
 "http://www.w3.org/Graphics/SVG/1.1/DTD/svg11.dtd">
<!-- Generated by graphviz version 2.43.0 (0)
 -->
<!-- Title: G Pages: 1 -->
<svg width="954pt" height="1148pt"
 viewBox="0.00 0.00 953.76 1148.00" xmlns="http://www.w3.org/2000/svg" xmlns:xlink="http://www.w3.org/1999/xlink">
<g id="graph0" class="graph" transform="scale(1 1) rotate(0) translate(4 1144)">
<title>G</title>
<polygon fill="white" stroke="transparent" points="-4,4 -4,-1144 949.76,-1144 949.76,4 -4,4"/>
<!-- http://www.w3.org/2002/07/owl#Ontology -->
<g id="node1" class="node">
<title>http://www.w3.org/2002/07/owl#Ontology</title>
<ellipse fill="none" stroke="#1f77b4" cx="616.32" cy="-577.47" rx="77.56" ry="16.03"/>
<text text-anchor="middle" x="616.32" y="-573.77" font-family="Times,serif" font-size="14.00">owl:Ontology</text>
</g>
<!-- http://www.w3.org/2002/07/owl#class -->
<g id="node2" class="node">
<title>http://www.w3.org/2002/07/owl#class</title>
<ellipse fill="none" stroke="#1f77b4" cx="288.7" cy="-301.16" rx="57.05" ry="16.03"/>
<text text-anchor="middle" x="288.7" y="-297.46" font-family="Times,serif" font-size="14.00">owl:class</text>
</g>
<!-- http://purl.org/oseg/ontologies/OTRL#OTRL -->
<g id="node3" class="node">
<title>http://purl.org/oseg/ontologies/OTRL#OTRL</title>
<ellipse fill="none" stroke="#e377c2" cx="407.38" cy="-588.39" rx="39.7" ry="16.03"/>
<text text-anchor="middle" x="407.38" y="-584.69" font-family="Times,serif" font-size="14.00">OTRL</text>
</g>
<!-- http://purl.org/oseg/ontologies/OTRL#OTRL&#45;&gt;http://www.w3.org/2002/07/owl#class -->
<g id="edge18" class="edge">
<title>http://purl.org/oseg/ontologies/OTRL#OTRL&#45;&gt;http://www.w3.org/2002/07/owl#class</title>
<path fill="none" stroke="black" d="M400.66,-572.13C381,-524.55 323.48,-385.33 299.45,-327.16"/>
<polygon fill="black" stroke="black" points="302.55,-325.51 295.5,-317.6 296.08,-328.18 302.55,-325.51"/>
<text text-anchor="middle" x="345.55" y="-438.45" font-family="Times,serif" font-size="14.00">a</text>
</g>
<!-- http://purl.org/oseg/ontologies/OTRL#ODRL -->
<g id="node4" class="node">
<title>http://purl.org/oseg/ontologies/OTRL#ODRL</title>
<ellipse fill="none" stroke="#e377c2" cx="203.58" cy="-118.18" rx="41.94" ry="16.03"/>
<text text-anchor="middle" x="203.58" y="-114.48" font-family="Times,serif" font-size="14.00">ODRL</text>
</g>
<!-- http://purl.org/oseg/ontologies/OTRL#ODRL&#45;&gt;http://www.w3.org/2002/07/owl#class -->
<g id="edge2" class="edge">
<title>http://purl.org/oseg/ontologies/OTRL#ODRL&#45;&gt;http://www.w3.org/2002/07/owl#class</title>
<path fill="none" stroke="black" d="M211.14,-134.41C225.96,-166.29 258.98,-237.27 276.78,-275.53"/>
<polygon fill="black" stroke="black" points="273.77,-277.37 281.16,-284.96 280.12,-274.41 273.77,-277.37"/>
<text text-anchor="middle" x="239.46" y="-208.77" font-family="Times,serif" font-size="14.00">a</text>
</g>
<!-- http://www.w3.org/2002/07/owl#DatatypeProperty -->
<g id="node5" class="node">
<title>http://www.w3.org/2002/07/owl#DatatypeProperty</title>
<ellipse fill="none" stroke="#1f77b4" cx="736.57" cy="-940.77" rx="123.07" ry="16.03"/>
<text text-anchor="middle" x="736.57" y="-937.07" font-family="Times,serif" font-size="14.00">owl:DatatypeProperty</text>
</g>
<!-- http://purl.org/oseg/ontologies/OTRL#OTRL&#45;6 -->
<g id="node6" class="node">
<title>http://purl.org/oseg/ontologies/OTRL#OTRL&#45;6</title>
<ellipse fill="none" stroke="#e377c2" cx="152.07" cy="-509.95" rx="49.49" ry="16.03"/>
<text text-anchor="middle" x="152.07" y="-506.25" font-family="Times,serif" font-size="14.00">OTRL&#45;6</text>
</g>
<!-- http://purl.org/oseg/ontologies/OTRL#OTRL&#45;6&#45;&gt;http://www.w3.org/2002/07/owl#class -->
<g id="edge24" class="edge">
<title>http://purl.org/oseg/ontologies/OTRL#OTRL&#45;6&#45;&gt;http://www.w3.org/2002/07/owl#class</title>
<path fill="none" stroke="black" d="M162.56,-493.91C186.31,-457.63 244.28,-369.04 272.6,-325.76"/>
<polygon fill="black" stroke="black" points="275.62,-327.53 278.17,-317.25 269.77,-323.7 275.62,-327.53"/>
<text text-anchor="middle" x="213.08" y="-413.64" font-family="Times,serif" font-size="14.00">a</text>
</g>
<!-- http://purl.org/oseg/ontologies/OTRL#OTRL&#45;6&#45;&gt;http://purl.org/oseg/ontologies/OTRL#OTRL -->
<g id="edge29" class="edge">
<title>http://purl.org/oseg/ontologies/OTRL#OTRL&#45;6&#45;&gt;http://purl.org/oseg/ontologies/OTRL#OTRL</title>
<path fill="none" stroke="black" d="M188.38,-521.1C235.26,-535.51 316.66,-560.52 365.92,-575.66"/>
<polygon fill="black" stroke="black" points="365.04,-579.04 375.62,-578.64 367.09,-572.35 365.04,-579.04"/>
</g>
<!-- http://schema.org/Text -->
<g id="node7" class="node">
<title>http://schema.org/Text</title>
<ellipse fill="none" stroke="#e377c2" cx="552.6" cy="-1123.49" rx="74.91" ry="16.03"/>
<text text-anchor="middle" x="552.6" y="-1119.79" font-family="Times,serif" font-size="14.00">schema:Text</text>
</g>
<!-- http://purl.org/oseg/ontologies/OTRL#hardwareDescription -->
<g id="node8" class="node">
<title>http://purl.org/oseg/ontologies/OTRL#hardwareDescription</title>
<ellipse fill="none" stroke="#e377c2" cx="592.34" cy="-870.13" rx="118.17" ry="16.03"/>
<text text-anchor="middle" x="592.34" y="-866.43" font-family="Times,serif" font-size="14.00">hardwareDescription</text>
</g>
<!-- http://purl.org/oseg/ontologies/OTRL#hardwareDescription&#45;&gt;http://purl.org/oseg/ontologies/OTRL#OTRL -->
<g id="edge6" class="edge">
<title>http://purl.org/oseg/ontologies/OTRL#hardwareDescription&#45;&gt;http://purl.org/oseg/ontologies/OTRL#OTRL</title>
<path fill="none" stroke="black" d="M581.6,-853.76C550.49,-806.37 460.19,-668.84 423.34,-612.7"/>
<polygon fill="black" stroke="black" points="426.11,-610.54 417.7,-604.1 420.26,-614.39 426.11,-610.54"/>
<text text-anchor="middle" x="475.97" y="-737.03" font-family="Times,serif" font-size="14.00">domain</text>
</g>
<!-- http://purl.org/oseg/ontologies/OTRL#hardwareDescription&#45;&gt;http://www.w3.org/2002/07/owl#DatatypeProperty -->
<g id="edge5" class="edge">
<title>http://purl.org/oseg/ontologies/OTRL#hardwareDescription&#45;&gt;http://www.w3.org/2002/07/owl#DatatypeProperty</title>
<path fill="none" stroke="black" d="M624.35,-885.81C645.29,-896.06 672.83,-909.55 695.39,-920.6"/>
<polygon fill="black" stroke="black" points="693.88,-923.76 704.4,-925.02 696.96,-917.47 693.88,-923.76"/>
<text text-anchor="middle" x="655.37" y="-907.01" font-family="Times,serif" font-size="14.00">a</text>
</g>
<!-- http://purl.org/oseg/ontologies/OTRL#hardwareDescription&#45;&gt;http://schema.org/Text -->
<g id="edge36" class="edge">
<title>http://purl.org/oseg/ontologies/OTRL#hardwareDescription&#45;&gt;http://schema.org/Text</title>
<path fill="none" stroke="black" d="M589.73,-886.75C583,-929.72 564.96,-1044.72 556.76,-1096.98"/>
<polygon fill="black" stroke="black" points="553.26,-1096.72 555.17,-1107.14 560.17,-1097.8 553.26,-1096.72"/>
<text text-anchor="middle" x="552.25" y="-995.67" font-family="Times,serif" font-size="14.00">range</text>
</g>
<!-- http://purl.org/oseg/ontologies/OTRL#softwareDescription -->
<g id="node9" class="node">
<title>http://purl.org/oseg/ontologies/OTRL#softwareDescription</title>
<ellipse fill="none" stroke="#e377c2" cx="665.3" cy="-824.12" rx="113.69" ry="16.03"/>
<text text-anchor="middle" x="665.3" y="-820.42" font-family="Times,serif" font-size="14.00">softwareDescription</text>
</g>
<!-- http://purl.org/oseg/ontologies/OTRL#softwareDescription&#45;&gt;http://purl.org/oseg/ontologies/OTRL#OTRL -->
<g id="edge15" class="edge">
<title>http://purl.org/oseg/ontologies/OTRL#softwareDescription&#45;&gt;http://purl.org/oseg/ontologies/OTRL#OTRL</title>
<path fill="none" stroke="black" d="M647.57,-807.91C602.41,-766.64 483,-657.51 431.54,-610.47"/>
<polygon fill="black" stroke="black" points="433.63,-607.64 423.89,-603.48 428.91,-612.81 433.63,-607.64"/>
<text text-anchor="middle" x="513.05" y="-712.99" font-family="Times,serif" font-size="14.00">domain</text>
</g>
<!-- http://purl.org/oseg/ontologies/OTRL#softwareDescription&#45;&gt;http://www.w3.org/2002/07/owl#DatatypeProperty -->
<g id="edge28" class="edge">
<title>http://purl.org/oseg/ontologies/OTRL#softwareDescription&#45;&gt;http://www.w3.org/2002/07/owl#DatatypeProperty</title>
<path fill="none" stroke="black" d="M675.21,-840.34C687.11,-859.82 707.21,-892.71 721.14,-915.52"/>
<polygon fill="black" stroke="black" points="718.32,-917.6 726.52,-924.31 724.29,-913.96 718.32,-917.6"/>
<text text-anchor="middle" x="693.68" y="-881.73" font-family="Times,serif" font-size="14.00">a</text>
</g>
<!-- http://purl.org/oseg/ontologies/OTRL#softwareDescription&#45;&gt;http://schema.org/Text -->
<g id="edge17" class="edge">
<title>http://purl.org/oseg/ontologies/OTRL#softwareDescription&#45;&gt;http://schema.org/Text</title>
<path fill="none" stroke="black" d="M659.08,-840.64C640.45,-890.12 585.02,-1037.38 562.39,-1097.5"/>
<polygon fill="black" stroke="black" points="559.05,-1096.43 558.8,-1107.02 565.6,-1098.9 559.05,-1096.43"/>
<text text-anchor="middle" x="589.73" y="-972.87" font-family="Times,serif" font-size="14.00">range</text>
</g>
<!-- http://purl.org/oseg/ontologies/OTRL#OTRL&#45;7 -->
<g id="node10" class="node">
<title>http://purl.org/oseg/ontologies/OTRL#OTRL&#45;7</title>
<ellipse fill="none" stroke="#e377c2" cx="513.93" cy="-472.27" rx="49.49" ry="16.03"/>
<text text-anchor="middle" x="513.93" y="-468.57" font-family="Times,serif" font-size="14.00">OTRL&#45;7</text>
</g>
<!-- http://purl.org/oseg/ontologies/OTRL#OTRL&#45;7&#45;&gt;http://www.w3.org/2002/07/owl#class -->
<g id="edge46" class="edge">
<title>http://purl.org/oseg/ontologies/OTRL#OTRL&#45;7&#45;&gt;http://www.w3.org/2002/07/owl#class</title>
<path fill="none" stroke="black" d="M493.94,-457.09C453.81,-426.59 363.31,-357.84 317.06,-322.71"/>
<polygon fill="black" stroke="black" points="319.05,-319.82 308.97,-316.56 314.81,-325.39 319.05,-319.82"/>
<text text-anchor="middle" x="401" y="-393.7" font-family="Times,serif" font-size="14.00">a</text>
</g>
<!-- http://purl.org/oseg/ontologies/OTRL#OTRL&#45;7&#45;&gt;http://purl.org/oseg/ontologies/OTRL#OTRL -->
<g id="edge20" class="edge">
<title>http://purl.org/oseg/ontologies/OTRL#OTRL&#45;7&#45;&gt;http://purl.org/oseg/ontologies/OTRL#OTRL</title>
<path fill="none" stroke="black" d="M499.56,-487.93C481.27,-507.87 449.52,-542.47 428.48,-565.4"/>
<polygon fill="black" stroke="black" points="425.7,-563.25 421.52,-572.98 430.86,-567.98 425.7,-563.25"/>
</g>
<!-- http://purl.org/oseg/ontologies/OTRL#ODRL&#45;1 -->
<g id="node11" class="node">
<title>http://purl.org/oseg/ontologies/OTRL#ODRL&#45;1</title>
<ellipse fill="none" stroke="#e377c2" cx="54.35" cy="-158.22" rx="50.82" ry="16.03"/>
<text text-anchor="middle" x="54.35" y="-154.52" font-family="Times,serif" font-size="14.00">ODRL&#45;1</text>
</g>
<!-- http://purl.org/oseg/ontologies/OTRL#ODRL&#45;1&#45;&gt;http://www.w3.org/2002/07/owl#class -->
<g id="edge7" class="edge">
<title>http://purl.org/oseg/ontologies/OTRL#ODRL&#45;1&#45;&gt;http://www.w3.org/2002/07/owl#class</title>
<path fill="none" stroke="black" d="M78.11,-172.71C120.2,-198.38 207.91,-251.88 255.79,-281.08"/>
<polygon fill="black" stroke="black" points="254.17,-284.19 264.53,-286.41 257.81,-278.22 254.17,-284.19"/>
<text text-anchor="middle" x="162.45" y="-230.7" font-family="Times,serif" font-size="14.00">a</text>
</g>
<!-- http://purl.org/oseg/ontologies/OTRL#ODRL&#45;1&#45;&gt;http://purl.org/oseg/ontologies/OTRL#ODRL -->
<g id="edge43" class="edge">
<title>http://purl.org/oseg/ontologies/OTRL#ODRL&#45;1&#45;&gt;http://purl.org/oseg/ontologies/OTRL#ODRL</title>
<path fill="none" stroke="black" d="M93.56,-147.7C113.74,-142.28 138.43,-135.66 159.3,-130.06"/>
<polygon fill="black" stroke="black" points="160.45,-133.37 169.21,-127.4 158.64,-126.61 160.45,-133.37"/>
</g>
<!-- http://purl.org/oseg/ontologies/OTRL#OTRL&#45;1 -->
<g id="node12" class="node">
<title>http://purl.org/oseg/ontologies/OTRL#OTRL&#45;1</title>
<ellipse fill="none" stroke="#e377c2" cx="233.44" cy="-465.46" rx="49.49" ry="16.03"/>
<text text-anchor="middle" x="233.44" y="-461.76" font-family="Times,serif" font-size="14.00">OTRL&#45;1</text>
</g>
<!-- http://purl.org/oseg/ontologies/OTRL#OTRL&#45;1&#45;&gt;http://www.w3.org/2002/07/owl#class -->
<g id="edge32" class="edge">
<title>http://purl.org/oseg/ontologies/OTRL#OTRL&#45;1&#45;&gt;http://www.w3.org/2002/07/owl#class</title>
<path fill="none" stroke="black" d="M238.94,-449.1C248.54,-420.56 268.42,-361.45 279.94,-327.21"/>
<polygon fill="black" stroke="black" points="283.35,-328.04 283.22,-317.45 276.72,-325.81 283.35,-328.04"/>
<text text-anchor="middle" x="254.94" y="-391.96" font-family="Times,serif" font-size="14.00">a</text>
</g>
<!-- http://purl.org/oseg/ontologies/OTRL#OTRL&#45;1&#45;&gt;http://purl.org/oseg/ontologies/OTRL#OTRL -->
<g id="edge12" class="edge">
<title>http://purl.org/oseg/ontologies/OTRL#OTRL&#45;1&#45;&gt;http://purl.org/oseg/ontologies/OTRL#OTRL</title>
<path fill="none" stroke="black" d="M254.42,-480.29C285.57,-502.3 344.13,-543.69 379.06,-568.38"/>
<polygon fill="black" stroke="black" points="377.21,-571.36 387.4,-574.27 381.25,-565.64 377.21,-571.36"/>
</g>
<!-- http://purl.org/oseg/ontologies/OTRL#exitCriteria -->
<g id="node13" class="node">
<title>http://purl.org/oseg/ontologies/OTRL#exitCriteria</title>
<ellipse fill="none" stroke="#e377c2" cx="387.54" cy="-869.3" rx="70.01" ry="16.03"/>
<text text-anchor="middle" x="387.54" y="-865.6" font-family="Times,serif" font-size="14.00">exitCriteria</text>
</g>
<!-- http://purl.org/oseg/ontologies/OTRL#exitCriteria&#45;&gt;http://purl.org/oseg/ontologies/OTRL#OTRL -->
<g id="edge30" class="edge">
<title>http://purl.org/oseg/ontologies/OTRL#exitCriteria&#45;&gt;http://purl.org/oseg/ontologies/OTRL#OTRL</title>
<path fill="none" stroke="black" d="M388.69,-852.99C391.99,-806.34 401.47,-672.13 405.51,-614.83"/>
<polygon fill="black" stroke="black" points="409.01,-614.98 406.23,-604.76 402.03,-614.48 409.01,-614.98"/>
<text text-anchor="middle" x="370.6" y="-737.71" font-family="Times,serif" font-size="14.00">domain</text>
</g>
<!-- http://purl.org/oseg/ontologies/OTRL#exitCriteria&#45;&gt;http://www.w3.org/2002/07/owl#DatatypeProperty -->
<g id="edge8" class="edge">
<title>http://purl.org/oseg/ontologies/OTRL#exitCriteria&#45;&gt;http://www.w3.org/2002/07/owl#DatatypeProperty</title>
<path fill="none" stroke="black" d="M440.17,-880.08C498.5,-892.02 593.11,-911.4 659.72,-925.04"/>
<polygon fill="black" stroke="black" points="659.25,-928.51 669.75,-927.09 660.65,-921.65 659.25,-928.51"/>
<text text-anchor="middle" x="545.45" y="-891.36" font-family="Times,serif" font-size="14.00">a</text>
</g>
<!-- http://purl.org/oseg/ontologies/OTRL#exitCriteria&#45;&gt;http://schema.org/Text -->
<g id="edge27" class="edge">
<title>http://purl.org/oseg/ontologies/OTRL#exitCriteria&#45;&gt;http://schema.org/Text</title>
<path fill="none" stroke="black" d="M398.12,-885.59C426.24,-928.9 503.01,-1047.13 536.56,-1098.79"/>
<polygon fill="black" stroke="black" points="533.73,-1100.86 542.11,-1107.34 539.6,-1097.05 533.73,-1100.86"/>
<text text-anchor="middle" x="446.34" y="-995.99" font-family="Times,serif" font-size="14.00">range</text>
</g>
<!-- http://purl.org/oseg/ontologies/OTRL#documentationDescription -->
<g id="node14" class="node">
<title>http://purl.org/oseg/ontologies/OTRL#documentationDescription</title>
<ellipse fill="none" stroke="#e377c2" cx="423.37" cy="-930.72" rx="120.83" ry="16.03"/>
<text text-anchor="middle" x="423.37" y="-927.02" font-family="Times,serif" font-size="14.00">documentationDesc...</text>
</g>
<!-- http://purl.org/oseg/ontologies/OTRL#documentationDescription&#45;&gt;http://purl.org/oseg/ontologies/OTRL#OTRL -->
<g id="edge9" class="edge">
<title>http://purl.org/oseg/ontologies/OTRL#documentationDescription&#45;&gt;http://purl.org/oseg/ontologies/OTRL#OTRL</title>
<path fill="none" stroke="black" d="M422.6,-914.21C420.03,-859.3 411.78,-682.51 408.62,-614.96"/>
<polygon fill="black" stroke="black" points="412.11,-614.56 408.14,-604.74 405.11,-614.89 412.11,-614.56"/>
<text text-anchor="middle" x="389.11" y="-768.39" font-family="Times,serif" font-size="14.00">domain</text>
</g>
<!-- http://purl.org/oseg/ontologies/OTRL#documentationDescription&#45;&gt;http://www.w3.org/2002/07/owl#DatatypeProperty -->
<g id="edge11" class="edge">
<title>http://purl.org/oseg/ontologies/OTRL#documentationDescription&#45;&gt;http://www.w3.org/2002/07/owl#DatatypeProperty</title>
<path fill="none" stroke="black" d="M541.33,-934.51C562.66,-935.19 585.02,-935.91 606.67,-936.6"/>
<polygon fill="black" stroke="black" points="606.79,-940.11 616.89,-936.93 607.01,-933.11 606.79,-940.11"/>
<text text-anchor="middle" x="569.5" y="-939.35" font-family="Times,serif" font-size="14.00">a</text>
</g>
<!-- http://purl.org/oseg/ontologies/OTRL#documentationDescription&#45;&gt;http://schema.org/Text -->
<g id="edge33" class="edge">
<title>http://purl.org/oseg/ontologies/OTRL#documentationDescription&#45;&gt;http://schema.org/Text</title>
<path fill="none" stroke="black" d="M434.39,-947.16C457.14,-981.1 509.43,-1059.1 536.19,-1099.01"/>
<polygon fill="black" stroke="black" points="533.32,-1101.01 541.79,-1107.37 539.13,-1097.11 533.32,-1101.01"/>
<text text-anchor="middle" x="464.29" y="-1026.88" font-family="Times,serif" font-size="14.00">range</text>
</g>
<!-- http://purl.org/oseg/ontologies/OTRL#OTRL&#45;8 -->
<g id="node15" class="node">
<title>http://purl.org/oseg/ontologies/OTRL#OTRL&#45;8</title>
<ellipse fill="none" stroke="#e377c2" cx="416.59" cy="-373.12" rx="49.49" ry="16.03"/>
<text text-anchor="middle" x="416.59" y="-369.42" font-family="Times,serif" font-size="14.00">OTRL&#45;8</text>
</g>
<!-- http://purl.org/oseg/ontologies/OTRL#OTRL&#45;8&#45;&gt;http://www.w3.org/2002/07/owl#class -->
<g id="edge35" class="edge">
<title>http://purl.org/oseg/ontologies/OTRL#OTRL&#45;8&#45;&gt;http://www.w3.org/2002/07/owl#class</title>
<path fill="none" stroke="black" d="M391.63,-359.08C372.3,-348.2 345.27,-332.99 323.76,-320.89"/>
<polygon fill="black" stroke="black" points="325.35,-317.76 314.92,-315.91 321.92,-323.87 325.35,-317.76"/>
<text text-anchor="middle" x="353.2" y="-343.78" font-family="Times,serif" font-size="14.00">a</text>
</g>
<!-- http://purl.org/oseg/ontologies/OTRL#OTRL&#45;8&#45;&gt;http://purl.org/oseg/ontologies/OTRL#OTRL -->
<g id="edge4" class="edge">
<title>http://purl.org/oseg/ontologies/OTRL#OTRL&#45;8&#45;&gt;http://purl.org/oseg/ontologies/OTRL#OTRL</title>
<path fill="none" stroke="black" d="M415.89,-389.66C414.3,-426.77 410.44,-516.94 408.51,-561.94"/>
<polygon fill="black" stroke="black" points="405.01,-561.96 408.08,-572.1 412,-562.26 405.01,-561.96"/>
</g>
<!-- http://purl.org/oseg/ontologies/OTRL#OTRL&#45;9 -->
<g id="node16" class="node">
<title>http://purl.org/oseg/ontologies/OTRL#OTRL&#45;9</title>
<ellipse fill="none" stroke="#e377c2" cx="178.75" cy="-571.66" rx="49.49" ry="16.03"/>
<text text-anchor="middle" x="178.75" y="-567.96" font-family="Times,serif" font-size="14.00">OTRL&#45;9</text>
</g>
<!-- http://purl.org/oseg/ontologies/OTRL#OTRL&#45;9&#45;&gt;http://www.w3.org/2002/07/owl#class -->
<g id="edge13" class="edge">
<title>http://purl.org/oseg/ontologies/OTRL#OTRL&#45;9&#45;&gt;http://www.w3.org/2002/07/owl#class</title>
<path fill="none" stroke="black" d="M185.46,-555.14C203.98,-509.57 255.92,-381.81 278.26,-326.84"/>
<polygon fill="black" stroke="black" points="281.55,-328.04 282.08,-317.46 275.07,-325.4 281.55,-328.04"/>
<text text-anchor="middle" x="227.36" y="-429.79" font-family="Times,serif" font-size="14.00">a</text>
</g>
<!-- http://purl.org/oseg/ontologies/OTRL#OTRL&#45;9&#45;&gt;http://purl.org/oseg/ontologies/OTRL#OTRL -->
<g id="edge26" class="edge">
<title>http://purl.org/oseg/ontologies/OTRL#OTRL&#45;9&#45;&gt;http://purl.org/oseg/ontologies/OTRL#OTRL</title>
<path fill="none" stroke="black" d="M227.24,-575.21C265.74,-578.03 319.36,-581.95 358.08,-584.78"/>
<polygon fill="black" stroke="black" points="357.85,-588.28 368.08,-585.52 358.36,-581.3 357.85,-588.28"/>
</g>
<!-- http://purl.org/oseg/ontologies/OTRL#ODRL&#45;0 -->
<g id="node17" class="node">
<title>http://purl.org/oseg/ontologies/OTRL#ODRL&#45;0</title>
<ellipse fill="none" stroke="#e377c2" cx="109.46" cy="-76.66" rx="50.82" ry="16.03"/>
<text text-anchor="middle" x="109.46" y="-72.96" font-family="Times,serif" font-size="14.00">ODRL&#45;0</text>
</g>
<!-- http://purl.org/oseg/ontologies/OTRL#ODRL&#45;0&#45;&gt;http://www.w3.org/2002/07/owl#class -->
<g id="edge19" class="edge">
<title>http://purl.org/oseg/ontologies/OTRL#ODRL&#45;0&#45;&gt;http://www.w3.org/2002/07/owl#class</title>
<path fill="none" stroke="black" d="M122.07,-92.45C152.97,-131.16 232.68,-230.99 269.51,-277.13"/>
<polygon fill="black" stroke="black" points="266.9,-279.46 275.87,-285.09 272.37,-275.09 266.9,-279.46"/>
<text text-anchor="middle" x="191.29" y="-188.59" font-family="Times,serif" font-size="14.00">a</text>
</g>
<!-- http://purl.org/oseg/ontologies/OTRL#ODRL&#45;0&#45;&gt;http://purl.org/oseg/ontologies/OTRL#ODRL -->
<g id="edge34" class="edge">
<title>http://purl.org/oseg/ontologies/OTRL#ODRL&#45;0&#45;&gt;http://purl.org/oseg/ontologies/OTRL#ODRL</title>
<path fill="none" stroke="black" d="M139.5,-89.91C148.04,-93.68 157.43,-97.82 166.34,-101.75"/>
<polygon fill="black" stroke="black" points="165.18,-105.07 175.75,-105.9 168.01,-98.66 165.18,-105.07"/>
</g>
<!-- http://purl.org/oseg/ontologies/OTRL -->
<g id="node18" class="node">
<title>http://purl.org/oseg/ontologies/OTRL</title>
<ellipse fill="none" stroke="#e377c2" cx="763.95" cy="-555.42" rx="60.62" ry="16.03"/>
<text text-anchor="middle" x="763.95" y="-551.72" font-family="Times,serif" font-size="14.00">ns1:OTRL</text>
</g>
<!-- http://purl.org/oseg/ontologies/OTRL&#45;&gt;http://www.w3.org/2002/07/owl#Ontology -->
<g id="edge40" class="edge">
<title>http://purl.org/oseg/ontologies/OTRL&#45;&gt;http://www.w3.org/2002/07/owl#Ontology</title>
<path fill="none" stroke="black" d="M710.65,-563.38C703.94,-564.38 696.98,-565.42 690.02,-566.46"/>
<polygon fill="black" stroke="black" points="689.22,-563.04 679.85,-567.98 690.26,-569.96 689.22,-563.04"/>
<text text-anchor="middle" x="698.08" y="-553.72" font-family="Times,serif" font-size="14.00">a</text>
</g>
<!-- http://purl.org/oseg/ontologies/OTRL&#45;&gt;http://purl.org/oseg/ontologies/OTRL -->
<g id="edge37" class="edge">
<title>http://purl.org/oseg/ontologies/OTRL&#45;&gt;http://purl.org/oseg/ontologies/OTRL</title>
<path fill="none" stroke="black" d="M819.55,-562.05C832.89,-561.53 842.76,-559.32 842.76,-555.42 842.76,-552.58 837.55,-550.64 829.58,-549.59"/>
<polygon fill="black" stroke="black" points="829.8,-546.1 819.55,-548.78 829.24,-553.07 829.8,-546.1"/>
<text text-anchor="middle" x="894.26" y="-551.72" font-family="Times,serif" font-size="14.00">owl:versionIRI</text>
</g>
<!-- http://purl.org/oseg/ontologies/OTRL#OTRL&#45;3 -->
<g id="node19" class="node">
<title>http://purl.org/oseg/ontologies/OTRL#OTRL&#45;3</title>
<ellipse fill="none" stroke="#e377c2" cx="379.94" cy="-467.05" rx="49.49" ry="16.03"/>
<text text-anchor="middle" x="379.94" y="-463.35" font-family="Times,serif" font-size="14.00">OTRL&#45;3</text>
</g>
<!-- http://purl.org/oseg/ontologies/OTRL#OTRL&#45;3&#45;&gt;http://www.w3.org/2002/07/owl#class -->
<g id="edge21" class="edge">
<title>http://purl.org/oseg/ontologies/OTRL#OTRL&#45;3&#45;&gt;http://www.w3.org/2002/07/owl#class</title>
<path fill="none" stroke="black" d="M371.02,-450.84C355.12,-421.93 321.75,-361.25 302.74,-326.69"/>
<polygon fill="black" stroke="black" points="305.67,-324.75 297.79,-317.68 299.54,-328.13 305.67,-324.75"/>
<text text-anchor="middle" x="332.38" y="-392.57" font-family="Times,serif" font-size="14.00">a</text>
</g>
<!-- http://purl.org/oseg/ontologies/OTRL#OTRL&#45;3&#45;&gt;http://purl.org/oseg/ontologies/OTRL#OTRL -->
<g id="edge31" class="edge">
<title>http://purl.org/oseg/ontologies/OTRL#OTRL&#45;3&#45;&gt;http://purl.org/oseg/ontologies/OTRL#OTRL</title>
<path fill="none" stroke="black" d="M383.64,-483.42C388.2,-503.59 396.01,-538.13 401.42,-562.06"/>
<polygon fill="black" stroke="black" points="398.03,-562.92 403.65,-571.9 404.86,-561.37 398.03,-562.92"/>
</g>
<!-- http://purl.org/oseg/ontologies/OTRL#OTRL&#45;2 -->
<g id="node20" class="node">
<title>http://purl.org/oseg/ontologies/OTRL#OTRL&#45;2</title>
<ellipse fill="none" stroke="#e377c2" cx="294.73" cy="-556.81" rx="49.49" ry="16.03"/>
<text text-anchor="middle" x="294.73" y="-553.11" font-family="Times,serif" font-size="14.00">OTRL&#45;2</text>
</g>
<!-- http://purl.org/oseg/ontologies/OTRL#OTRL&#45;2&#45;&gt;http://www.w3.org/2002/07/owl#class -->
<g id="edge39" class="edge">
<title>http://purl.org/oseg/ontologies/OTRL#OTRL&#45;2&#45;&gt;http://www.w3.org/2002/07/owl#class</title>
<path fill="none" stroke="black" d="M294.35,-540.43C293.33,-497.42 290.58,-380.97 289.33,-328.02"/>
<polygon fill="black" stroke="black" points="292.83,-327.65 289.09,-317.73 285.83,-327.81 292.83,-327.65"/>
<text text-anchor="middle" x="287.34" y="-438.02" font-family="Times,serif" font-size="14.00">a</text>
</g>
<!-- http://purl.org/oseg/ontologies/OTRL#OTRL&#45;2&#45;&gt;http://purl.org/oseg/ontologies/OTRL#OTRL -->
<g id="edge10" class="edge">
<title>http://purl.org/oseg/ontologies/OTRL#OTRL&#45;2&#45;&gt;http://purl.org/oseg/ontologies/OTRL#OTRL</title>
<path fill="none" stroke="black" d="M332.56,-567.41C342.83,-570.29 354.02,-573.43 364.54,-576.38"/>
<polygon fill="black" stroke="black" points="363.8,-579.81 374.37,-579.14 365.69,-573.07 363.8,-579.81"/>
</g>
<!-- http://purl.org/oseg/ontologies/OTRL#OTRL&#45;4 -->
<g id="node21" class="node">
<title>http://purl.org/oseg/ontologies/OTRL#OTRL&#45;4</title>
<ellipse fill="none" stroke="#e377c2" cx="528.02" cy="-343.59" rx="49.49" ry="16.03"/>
<text text-anchor="middle" x="528.02" y="-339.89" font-family="Times,serif" font-size="14.00">OTRL&#45;4</text>
</g>
<!-- http://purl.org/oseg/ontologies/OTRL#OTRL&#45;4&#45;&gt;http://www.w3.org/2002/07/owl#class -->
<g id="edge41" class="edge">
<title>http://purl.org/oseg/ontologies/OTRL#OTRL&#45;4&#45;&gt;http://www.w3.org/2002/07/owl#class</title>
<path fill="none" stroke="black" d="M484.4,-335.86C445.96,-329.04 389.64,-319.06 347.27,-311.54"/>
<polygon fill="black" stroke="black" points="347.83,-308.09 337.37,-309.79 346.61,-314.98 347.83,-308.09"/>
<text text-anchor="middle" x="411.34" y="-327.5" font-family="Times,serif" font-size="14.00">a</text>
</g>
<!-- http://purl.org/oseg/ontologies/OTRL#OTRL&#45;4&#45;&gt;http://purl.org/oseg/ontologies/OTRL#OTRL -->
<g id="edge1" class="edge">
<title>http://purl.org/oseg/ontologies/OTRL#OTRL&#45;4&#45;&gt;http://purl.org/oseg/ontologies/OTRL#OTRL</title>
<path fill="none" stroke="black" d="M520.1,-359.66C499.61,-401.24 444.69,-512.68 419.87,-563.05"/>
<polygon fill="black" stroke="black" points="416.61,-561.76 415.33,-572.27 422.89,-564.85 416.61,-561.76"/>
</g>
<!-- http://purl.org/oseg/ontologies/OTRL#ODRL&#45;3 -->
<g id="node22" class="node">
<title>http://purl.org/oseg/ontologies/OTRL#ODRL&#45;3</title>
<ellipse fill="none" stroke="#e377c2" cx="51.04" cy="-240.24" rx="50.82" ry="16.03"/>
<text text-anchor="middle" x="51.04" y="-236.54" font-family="Times,serif" font-size="14.00">ODRL&#45;3</text>
</g>
<!-- http://purl.org/oseg/ontologies/OTRL#ODRL&#45;3&#45;&gt;http://www.w3.org/2002/07/owl#class -->
<g id="edge42" class="edge">
<title>http://purl.org/oseg/ontologies/OTRL#ODRL&#45;3&#45;&gt;http://www.w3.org/2002/07/owl#class</title>
<path fill="none" stroke="black" d="M90.82,-250.44C130.66,-260.65 192.2,-276.42 236.07,-287.67"/>
<polygon fill="black" stroke="black" points="235.42,-291.12 245.98,-290.21 237.16,-284.33 235.42,-291.12"/>
<text text-anchor="middle" x="158.94" y="-272.85" font-family="Times,serif" font-size="14.00">a</text>
</g>
<!-- http://purl.org/oseg/ontologies/OTRL#ODRL&#45;3&#45;&gt;http://purl.org/oseg/ontologies/OTRL#ODRL -->
<g id="edge14" class="edge">
<title>http://purl.org/oseg/ontologies/OTRL#ODRL&#45;3&#45;&gt;http://purl.org/oseg/ontologies/OTRL#ODRL</title>
<path fill="none" stroke="black" d="M70.05,-225.03C97.06,-203.42 146.65,-163.73 177.21,-139.28"/>
<polygon fill="black" stroke="black" points="179.67,-141.8 185.29,-132.82 175.29,-136.33 179.67,-141.8"/>
</g>
<!-- http://purl.org/oseg/ontologies/OTRL#ODRL&#45;4 -->
<g id="node23" class="node">
<title>http://purl.org/oseg/ontologies/OTRL#ODRL&#45;4</title>
<ellipse fill="none" stroke="#e377c2" cx="232.73" cy="-16.47" rx="50.82" ry="16.03"/>
<text text-anchor="middle" x="232.73" y="-12.77" font-family="Times,serif" font-size="14.00">ODRL&#45;4</text>
</g>
<!-- http://purl.org/oseg/ontologies/OTRL#ODRL&#45;4&#45;&gt;http://www.w3.org/2002/07/owl#class -->
<g id="edge22" class="edge">
<title>http://purl.org/oseg/ontologies/OTRL#ODRL&#45;4&#45;&gt;http://www.w3.org/2002/07/owl#class</title>
<path fill="none" stroke="black" d="M235.98,-33.01C245.3,-80.37 272.13,-216.86 283.5,-274.73"/>
<polygon fill="black" stroke="black" points="280.08,-275.44 285.44,-284.58 286.95,-274.09 280.08,-275.44"/>
<text text-anchor="middle" x="255.24" y="-157.67" font-family="Times,serif" font-size="14.00">a</text>
</g>
<!-- http://purl.org/oseg/ontologies/OTRL#ODRL&#45;4&#45;&gt;http://purl.org/oseg/ontologies/OTRL#ODRL -->
<g id="edge38" class="edge">
<title>http://purl.org/oseg/ontologies/OTRL#ODRL&#45;4&#45;&gt;http://purl.org/oseg/ontologies/OTRL#ODRL</title>
<path fill="none" stroke="black" d="M228.05,-32.81C223.46,-48.82 216.39,-73.48 211.03,-92.19"/>
<polygon fill="black" stroke="black" points="207.65,-91.3 208.26,-101.88 214.38,-93.23 207.65,-91.3"/>
</g>
<!-- http://purl.org/oseg/ontologies/OTRL#OTRL&#45;5 -->
<g id="node24" class="node">
<title>http://purl.org/oseg/ontologies/OTRL#OTRL&#45;5</title>
<ellipse fill="none" stroke="#e377c2" cx="554.58" cy="-407.96" rx="49.49" ry="16.03"/>
<text text-anchor="middle" x="554.58" y="-404.26" font-family="Times,serif" font-size="14.00">OTRL&#45;5</text>
</g>
<!-- http://purl.org/oseg/ontologies/OTRL#OTRL&#45;5&#45;&gt;http://www.w3.org/2002/07/owl#class -->
<g id="edge44" class="edge">
<title>http://purl.org/oseg/ontologies/OTRL#OTRL&#45;5&#45;&gt;http://www.w3.org/2002/07/owl#class</title>
<path fill="none" stroke="black" d="M523.04,-395.29C475.38,-376.14 384.93,-339.81 331.42,-318.32"/>
<polygon fill="black" stroke="black" points="332.46,-314.96 321.87,-314.48 329.85,-321.46 332.46,-314.96"/>
<text text-anchor="middle" x="422.73" y="-345.6" font-family="Times,serif" font-size="14.00">a</text>
</g>
<!-- http://purl.org/oseg/ontologies/OTRL#OTRL&#45;5&#45;&gt;http://purl.org/oseg/ontologies/OTRL#OTRL -->
<g id="edge16" class="edge">
<title>http://purl.org/oseg/ontologies/OTRL#OTRL&#45;5&#45;&gt;http://purl.org/oseg/ontologies/OTRL#OTRL</title>
<path fill="none" stroke="black" d="M541.52,-423.97C515.42,-455.96 456.73,-527.9 426.37,-565.12"/>
<polygon fill="black" stroke="black" points="423.61,-562.97 420,-572.93 429.03,-567.39 423.61,-562.97"/>
</g>
<!-- http://purl.org/oseg/ontologies/OTRL#ODRL&#45;2 -->
<g id="node25" class="node">
<title>http://purl.org/oseg/ontologies/OTRL#ODRL&#45;2</title>
<ellipse fill="none" stroke="#e377c2" cx="343.83" cy="-23.67" rx="50.82" ry="16.03"/>
<text text-anchor="middle" x="343.83" y="-19.97" font-family="Times,serif" font-size="14.00">ODRL&#45;2</text>
</g>
<!-- http://purl.org/oseg/ontologies/OTRL#ODRL&#45;2&#45;&gt;http://www.w3.org/2002/07/owl#class -->
<g id="edge45" class="edge">
<title>http://purl.org/oseg/ontologies/OTRL#ODRL&#45;2&#45;&gt;http://www.w3.org/2002/07/owl#class</title>
<path fill="none" stroke="black" d="M340.55,-40.19C331.34,-86.56 305.19,-218.16 293.95,-274.75"/>
<polygon fill="black" stroke="black" points="290.48,-274.23 291.97,-284.72 297.35,-275.59 290.48,-274.23"/>
<text text-anchor="middle" x="312.75" y="-161.27" font-family="Times,serif" font-size="14.00">a</text>
</g>
<!-- http://purl.org/oseg/ontologies/OTRL#ODRL&#45;2&#45;&gt;http://purl.org/oseg/ontologies/OTRL#ODRL -->
<g id="edge3" class="edge">
<title>http://purl.org/oseg/ontologies/OTRL#ODRL&#45;2&#45;&gt;http://purl.org/oseg/ontologies/OTRL#ODRL</title>
<path fill="none" stroke="black" d="M321.92,-38.43C298.11,-54.48 259.92,-80.21 233.4,-98.09"/>
<polygon fill="black" stroke="black" points="231.22,-95.33 224.88,-103.82 235.13,-101.14 231.22,-95.33"/>
</g>
<!-- http://purl.org/oseg/ontologies/OTRL#ODRL&#45;5 -->
<g id="node26" class="node">
<title>http://purl.org/oseg/ontologies/OTRL#ODRL&#45;5</title>
<ellipse fill="none" stroke="#e377c2" cx="413.8" cy="-81.86" rx="50.82" ry="16.03"/>
<text text-anchor="middle" x="413.8" y="-78.16" font-family="Times,serif" font-size="14.00">ODRL&#45;5</text>
</g>
<!-- http://purl.org/oseg/ontologies/OTRL#ODRL&#45;5&#45;&gt;http://www.w3.org/2002/07/owl#class -->
<g id="edge23" class="edge">
<title>http://purl.org/oseg/ontologies/OTRL#ODRL&#45;5&#45;&gt;http://www.w3.org/2002/07/owl#class</title>
<path fill="none" stroke="black" d="M404.6,-97.99C383,-135.85 328.92,-230.65 303,-276.1"/>
<polygon fill="black" stroke="black" points="299.83,-274.59 297.91,-285.01 305.91,-278.06 299.83,-274.59"/>
<text text-anchor="middle" x="349.3" y="-190.84" font-family="Times,serif" font-size="14.00">a</text>
</g>
<!-- http://purl.org/oseg/ontologies/OTRL#ODRL&#45;5&#45;&gt;http://purl.org/oseg/ontologies/OTRL#ODRL -->
<g id="edge25" class="edge">
<title>http://purl.org/oseg/ontologies/OTRL#ODRL&#45;5&#45;&gt;http://purl.org/oseg/ontologies/OTRL#ODRL</title>
<path fill="none" stroke="black" d="M368.96,-89.61C334.61,-95.54 287.29,-103.72 252.06,-109.8"/>
<polygon fill="black" stroke="black" points="251.27,-106.39 242.01,-111.54 252.46,-113.29 251.27,-106.39"/>
</g>
</g>
</svg>
