<?xml version="1.0" encoding="UTF-8" standalone="no"?>
<!DOCTYPE svg PUBLIC "-//W3C//DTD SVG 1.1//EN"
 "http://www.w3.org/Graphics/SVG/1.1/DTD/svg11.dtd">
<!-- Generated by graphviz version 2.43.0 (0)
 -->
<!-- Title: G Pages: 1 -->
<svg width="911pt" height="955pt"
 viewBox="0.00 0.00 910.76 955.00" xmlns="http://www.w3.org/2000/svg" xmlns:xlink="http://www.w3.org/1999/xlink">
<g id="graph0" class="graph" transform="scale(1 1) rotate(0) translate(4 951)">
<title>G</title>
<polygon fill="white" stroke="transparent" points="-4,4 -4,-951 906.76,-951 906.76,4 -4,4"/>
<!-- http://www.w3.org/2002/07/owl#DatatypeProperty -->
<g id="node1" class="node">
<title>http://www.w3.org/2002/07/owl#DatatypeProperty</title>
<ellipse fill="none" stroke="#1f77b4" cx="123.27" cy="-170.23" rx="123.07" ry="16.03"/>
<text text-anchor="middle" x="123.27" y="-166.53" font-family="Times,serif" font-size="14.00">owl:DatatypeProperty</text>
</g>
<!-- http://purl.org/oseg/ontologies/OTRL#OTRL -->
<g id="node2" class="node">
<title>http://purl.org/oseg/ontologies/OTRL#OTRL</title>
<ellipse fill="none" stroke="#e377c2" cx="358.3" cy="-408.65" rx="39.7" ry="16.03"/>
<text text-anchor="middle" x="358.3" y="-404.95" font-family="Times,serif" font-size="14.00">OTRL</text>
</g>
<!-- http://www.w3.org/2002/07/owl#class -->
<g id="node3" class="node">
<title>http://www.w3.org/2002/07/owl#class</title>
<ellipse fill="none" stroke="#1f77b4" cx="416.51" cy="-665.63" rx="57.05" ry="16.03"/>
<text text-anchor="middle" x="416.51" y="-661.93" font-family="Times,serif" font-size="14.00">owl:class</text>
</g>
<!-- http://purl.org/oseg/ontologies/OTRL#OTRL&#45;&gt;http://www.w3.org/2002/07/owl#class -->
<g id="edge39" class="edge">
<title>http://purl.org/oseg/ontologies/OTRL#OTRL&#45;&gt;http://www.w3.org/2002/07/owl#class</title>
<path fill="none" stroke="black" d="M362.03,-425.12C371.86,-468.54 398.57,-586.45 410.55,-639.34"/>
<polygon fill="black" stroke="black" points="407.19,-640.32 412.81,-649.3 414.01,-638.77 407.19,-640.32"/>
<text text-anchor="middle" x="381.79" y="-536.03" font-family="Times,serif" font-size="14.00">a</text>
</g>
<!-- http://purl.org/oseg/ontologies/OTRL#ODRL -->
<g id="node4" class="node">
<title>http://purl.org/oseg/ontologies/OTRL#ODRL</title>
<ellipse fill="none" stroke="#e377c2" cx="441.12" cy="-858.27" rx="41.94" ry="16.03"/>
<text text-anchor="middle" x="441.12" y="-854.57" font-family="Times,serif" font-size="14.00">ODRL</text>
</g>
<!-- http://purl.org/oseg/ontologies/OTRL#ODRL&#45;&gt;http://www.w3.org/2002/07/owl#class -->
<g id="edge46" class="edge">
<title>http://purl.org/oseg/ontologies/OTRL#ODRL&#45;&gt;http://www.w3.org/2002/07/owl#class</title>
<path fill="none" stroke="black" d="M439.02,-841.84C434.76,-808.5 425.07,-732.64 419.9,-692.19"/>
<polygon fill="black" stroke="black" points="423.34,-691.49 418.6,-682.01 416.4,-692.38 423.34,-691.49"/>
<text text-anchor="middle" x="424.96" y="-770.81" font-family="Times,serif" font-size="14.00">a</text>
</g>
<!-- http://www.w3.org/2002/07/owl#Ontology -->
<g id="node5" class="node">
<title>http://www.w3.org/2002/07/owl#Ontology</title>
<ellipse fill="none" stroke="#1f77b4" cx="573.32" cy="-348.47" rx="77.56" ry="16.03"/>
<text text-anchor="middle" x="573.32" y="-344.77" font-family="Times,serif" font-size="14.00">owl:Ontology</text>
</g>
<!-- http://purl.org/oseg/ontologies/OTRL#exitCriteria -->
<g id="node6" class="node">
<title>http://purl.org/oseg/ontologies/OTRL#exitCriteria</title>
<ellipse fill="none" stroke="#e377c2" cx="354.81" cy="-183.89" rx="70.01" ry="16.03"/>
<text text-anchor="middle" x="354.81" y="-180.19" font-family="Times,serif" font-size="14.00">exitCriteria</text>
</g>
<!-- http://purl.org/oseg/ontologies/OTRL#exitCriteria&#45;&gt;http://www.w3.org/2002/07/owl#DatatypeProperty -->
<g id="edge1" class="edge">
<title>http://purl.org/oseg/ontologies/OTRL#exitCriteria&#45;&gt;http://www.w3.org/2002/07/owl#DatatypeProperty</title>
<path fill="none" stroke="black" d="M286.9,-179.89C274.02,-179.12 260.17,-178.31 246.19,-177.48"/>
<polygon fill="black" stroke="black" points="246.18,-173.98 235.99,-176.88 245.77,-180.96 246.18,-173.98"/>
<text text-anchor="middle" x="262.04" y="-182.48" font-family="Times,serif" font-size="14.00">a</text>
</g>
<!-- http://purl.org/oseg/ontologies/OTRL#exitCriteria&#45;&gt;http://purl.org/oseg/ontologies/OTRL#OTRL -->
<g id="edge16" class="edge">
<title>http://purl.org/oseg/ontologies/OTRL#exitCriteria&#45;&gt;http://purl.org/oseg/ontologies/OTRL#OTRL</title>
<path fill="none" stroke="black" d="M355.06,-200.42C355.66,-238.98 357.16,-335.17 357.88,-382.09"/>
<polygon fill="black" stroke="black" points="354.39,-382.16 358.04,-392.1 361.38,-382.05 354.39,-382.16"/>
<text text-anchor="middle" x="329.97" y="-295.05" font-family="Times,serif" font-size="14.00">domain</text>
</g>
<!-- http://schema.org/Text -->
<g id="node11" class="node">
<title>http://schema.org/Text</title>
<ellipse fill="none" stroke="#e377c2" cx="215.06" cy="-16.53" rx="74.91" ry="16.03"/>
<text text-anchor="middle" x="215.06" y="-12.83" font-family="Times,serif" font-size="14.00">schema:Text</text>
</g>
<!-- http://purl.org/oseg/ontologies/OTRL#exitCriteria&#45;&gt;http://schema.org/Text -->
<g id="edge29" class="edge">
<title>http://purl.org/oseg/ontologies/OTRL#exitCriteria&#45;&gt;http://schema.org/Text</title>
<path fill="none" stroke="black" d="M341.41,-167.84C316.74,-138.3 264.03,-75.18 235.1,-40.53"/>
<polygon fill="black" stroke="black" points="237.72,-38.21 228.62,-32.78 232.34,-42.7 237.72,-38.21"/>
<text text-anchor="middle" x="267.25" y="-92.99" font-family="Times,serif" font-size="14.00">range</text>
</g>
<!-- http://purl.org/oseg/ontologies/OTRL -->
<g id="node7" class="node">
<title>http://purl.org/oseg/ontologies/OTRL</title>
<ellipse fill="none" stroke="#e377c2" cx="720.95" cy="-326.42" rx="60.62" ry="16.03"/>
<text text-anchor="middle" x="720.95" y="-322.72" font-family="Times,serif" font-size="14.00">ns1:OTRL</text>
</g>
<!-- http://purl.org/oseg/ontologies/OTRL&#45;&gt;http://www.w3.org/2002/07/owl#Ontology -->
<g id="edge30" class="edge">
<title>http://purl.org/oseg/ontologies/OTRL&#45;&gt;http://www.w3.org/2002/07/owl#Ontology</title>
<path fill="none" stroke="black" d="M667.65,-334.38C660.94,-335.38 653.98,-336.42 647.02,-337.46"/>
<polygon fill="black" stroke="black" points="646.22,-334.04 636.85,-338.98 647.26,-340.96 646.22,-334.04"/>
<text text-anchor="middle" x="655.08" y="-324.72" font-family="Times,serif" font-size="14.00">a</text>
</g>
<!-- http://purl.org/oseg/ontologies/OTRL&#45;&gt;http://purl.org/oseg/ontologies/OTRL -->
<g id="edge26" class="edge">
<title>http://purl.org/oseg/ontologies/OTRL&#45;&gt;http://purl.org/oseg/ontologies/OTRL</title>
<path fill="none" stroke="black" d="M776.55,-333.05C789.89,-332.53 799.76,-330.32 799.76,-326.42 799.76,-323.58 794.55,-321.64 786.58,-320.59"/>
<polygon fill="black" stroke="black" points="786.8,-317.1 776.55,-319.78 786.24,-324.07 786.8,-317.1"/>
<text text-anchor="middle" x="851.26" y="-322.72" font-family="Times,serif" font-size="14.00">owl:versionIRI</text>
</g>
<!-- http://purl.org/oseg/ontologies/OTRL#OTRL&#45;6 -->
<g id="node8" class="node">
<title>http://purl.org/oseg/ontologies/OTRL#OTRL&#45;6</title>
<ellipse fill="none" stroke="#e377c2" cx="311.16" cy="-514.95" rx="49.49" ry="16.03"/>
<text text-anchor="middle" x="311.16" y="-511.25" font-family="Times,serif" font-size="14.00">OTRL&#45;6</text>
</g>
<!-- http://purl.org/oseg/ontologies/OTRL#OTRL&#45;6&#45;&gt;http://purl.org/oseg/ontologies/OTRL#OTRL -->
<g id="edge18" class="edge">
<title>http://purl.org/oseg/ontologies/OTRL#OTRL&#45;6&#45;&gt;http://purl.org/oseg/ontologies/OTRL#OTRL</title>
<path fill="none" stroke="black" d="M318.32,-498.81C325.93,-481.64 338.08,-454.24 346.99,-434.15"/>
<polygon fill="black" stroke="black" points="350.22,-435.51 351.07,-424.95 343.82,-432.67 350.22,-435.51"/>
</g>
<!-- http://purl.org/oseg/ontologies/OTRL#OTRL&#45;6&#45;&gt;http://www.w3.org/2002/07/owl#class -->
<g id="edge4" class="edge">
<title>http://purl.org/oseg/ontologies/OTRL#OTRL&#45;6&#45;&gt;http://www.w3.org/2002/07/owl#class</title>
<path fill="none" stroke="black" d="M322.44,-531.08C340.89,-557.47 377.66,-610.06 399.36,-641.1"/>
<polygon fill="black" stroke="black" points="396.72,-643.43 405.32,-649.62 402.45,-639.42 396.72,-643.43"/>
<text text-anchor="middle" x="356.4" y="-589.89" font-family="Times,serif" font-size="14.00">a</text>
</g>
<!-- http://purl.org/oseg/ontologies/OTRL#hardwareDescription -->
<g id="node9" class="node">
<title>http://purl.org/oseg/ontologies/OTRL#hardwareDescription</title>
<ellipse fill="none" stroke="#e377c2" cx="198.12" cy="-122.39" rx="118.17" ry="16.03"/>
<text text-anchor="middle" x="198.12" y="-118.69" font-family="Times,serif" font-size="14.00">hardwareDescription</text>
</g>
<!-- http://purl.org/oseg/ontologies/OTRL#hardwareDescription&#45;&gt;http://www.w3.org/2002/07/owl#DatatypeProperty -->
<g id="edge27" class="edge">
<title>http://purl.org/oseg/ontologies/OTRL#hardwareDescription&#45;&gt;http://www.w3.org/2002/07/owl#DatatypeProperty</title>
<path fill="none" stroke="black" d="M173.2,-138.32C167.95,-141.67 162.33,-145.26 156.83,-148.78"/>
<polygon fill="black" stroke="black" points="154.88,-145.87 148.34,-154.21 158.65,-151.77 154.88,-145.87"/>
<text text-anchor="middle" x="160.51" y="-147.35" font-family="Times,serif" font-size="14.00">a</text>
</g>
<!-- http://purl.org/oseg/ontologies/OTRL#hardwareDescription&#45;&gt;http://purl.org/oseg/ontologies/OTRL#OTRL -->
<g id="edge25" class="edge">
<title>http://purl.org/oseg/ontologies/OTRL#hardwareDescription&#45;&gt;http://purl.org/oseg/ontologies/OTRL#OTRL</title>
<path fill="none" stroke="black" d="M207.43,-139.01C234.37,-187.17 312.56,-326.91 344.48,-383.96"/>
<polygon fill="black" stroke="black" points="341.43,-385.67 349.37,-392.69 347.54,-382.25 341.43,-385.67"/>
<text text-anchor="middle" x="249.45" y="-265.29" font-family="Times,serif" font-size="14.00">domain</text>
</g>
<!-- http://purl.org/oseg/ontologies/OTRL#hardwareDescription&#45;&gt;http://schema.org/Text -->
<g id="edge8" class="edge">
<title>http://purl.org/oseg/ontologies/OTRL#hardwareDescription&#45;&gt;http://schema.org/Text</title>
<path fill="none" stroke="black" d="M200.77,-105.85C203.47,-88.99 207.69,-62.59 210.85,-42.86"/>
<polygon fill="black" stroke="black" points="214.31,-43.38 212.43,-32.96 207.39,-42.28 214.31,-43.38"/>
<text text-anchor="middle" x="184.81" y="-78.15" font-family="Times,serif" font-size="14.00">range</text>
</g>
<!-- http://purl.org/oseg/ontologies/OTRL#OTRL&#45;2 -->
<g id="node10" class="node">
<title>http://purl.org/oseg/ontologies/OTRL#OTRL&#45;2</title>
<ellipse fill="none" stroke="#e377c2" cx="202.82" cy="-514.64" rx="49.49" ry="16.03"/>
<text text-anchor="middle" x="202.82" y="-510.94" font-family="Times,serif" font-size="14.00">OTRL&#45;2</text>
</g>
<!-- http://purl.org/oseg/ontologies/OTRL#OTRL&#45;2&#45;&gt;http://purl.org/oseg/ontologies/OTRL#OTRL -->
<g id="edge17" class="edge">
<title>http://purl.org/oseg/ontologies/OTRL#OTRL&#45;2&#45;&gt;http://purl.org/oseg/ontologies/OTRL#OTRL</title>
<path fill="none" stroke="black" d="M224.44,-499.9C251.78,-481.27 298.95,-449.11 329.37,-428.37"/>
<polygon fill="black" stroke="black" points="331.56,-431.12 337.85,-422.59 327.62,-425.33 331.56,-431.12"/>
</g>
<!-- http://purl.org/oseg/ontologies/OTRL#OTRL&#45;2&#45;&gt;http://www.w3.org/2002/07/owl#class -->
<g id="edge5" class="edge">
<title>http://purl.org/oseg/ontologies/OTRL#OTRL&#45;2&#45;&gt;http://www.w3.org/2002/07/owl#class</title>
<path fill="none" stroke="black" d="M223.7,-529.39C261.8,-556.32 342.72,-613.49 386.64,-644.53"/>
<polygon fill="black" stroke="black" points="384.72,-647.46 394.91,-650.37 388.76,-641.74 384.72,-647.46"/>
<text text-anchor="middle" x="300.67" y="-575.76" font-family="Times,serif" font-size="14.00">a</text>
</g>
<!-- http://purl.org/oseg/ontologies/OTRL#documentationDescription -->
<g id="node12" class="node">
<title>http://purl.org/oseg/ontologies/OTRL#documentationDescription</title>
<ellipse fill="none" stroke="#e377c2" cx="447.46" cy="-123.26" rx="120.83" ry="16.03"/>
<text text-anchor="middle" x="447.46" y="-119.56" font-family="Times,serif" font-size="14.00">documentationDesc...</text>
</g>
<!-- http://purl.org/oseg/ontologies/OTRL#documentationDescription&#45;&gt;http://www.w3.org/2002/07/owl#DatatypeProperty -->
<g id="edge7" class="edge">
<title>http://purl.org/oseg/ontologies/OTRL#documentationDescription&#45;&gt;http://www.w3.org/2002/07/owl#DatatypeProperty</title>
<path fill="none" stroke="black" d="M364.82,-135.24C319.55,-141.8 263.3,-149.94 216.47,-156.73"/>
<polygon fill="black" stroke="black" points="215.72,-153.3 206.33,-158.2 216.72,-160.23 215.72,-153.3"/>
<text text-anchor="middle" x="286.14" y="-149.78" font-family="Times,serif" font-size="14.00">a</text>
</g>
<!-- http://purl.org/oseg/ontologies/OTRL#documentationDescription&#45;&gt;http://purl.org/oseg/ontologies/OTRL#OTRL -->
<g id="edge3" class="edge">
<title>http://purl.org/oseg/ontologies/OTRL#documentationDescription&#45;&gt;http://purl.org/oseg/ontologies/OTRL#OTRL</title>
<path fill="none" stroke="black" d="M442.28,-139.84C427.41,-187.44 384.5,-324.8 366.45,-382.56"/>
<polygon fill="black" stroke="black" points="363.02,-381.8 363.38,-392.39 369.7,-383.88 363.02,-381.8"/>
<text text-anchor="middle" x="377.87" y="-265" font-family="Times,serif" font-size="14.00">domain</text>
</g>
<!-- http://purl.org/oseg/ontologies/OTRL#documentationDescription&#45;&gt;http://schema.org/Text -->
<g id="edge6" class="edge">
<title>http://purl.org/oseg/ontologies/OTRL#documentationDescription&#45;&gt;http://schema.org/Text</title>
<path fill="none" stroke="black" d="M413.17,-107.51C371.44,-88.35 301.04,-56.02 256.36,-35.5"/>
<polygon fill="black" stroke="black" points="257.79,-32.31 247.24,-31.31 254.87,-38.67 257.79,-32.31"/>
<text text-anchor="middle" x="313.77" y="-75.31" font-family="Times,serif" font-size="14.00">range</text>
</g>
<!-- http://purl.org/oseg/ontologies/OTRL#OTRL&#45;4 -->
<g id="node13" class="node">
<title>http://purl.org/oseg/ontologies/OTRL#OTRL&#45;4</title>
<ellipse fill="none" stroke="#e377c2" cx="529.76" cy="-432.91" rx="49.49" ry="16.03"/>
<text text-anchor="middle" x="529.76" y="-429.21" font-family="Times,serif" font-size="14.00">OTRL&#45;4</text>
</g>
<!-- http://purl.org/oseg/ontologies/OTRL#OTRL&#45;4&#45;&gt;http://purl.org/oseg/ontologies/OTRL#OTRL -->
<g id="edge40" class="edge">
<title>http://purl.org/oseg/ontologies/OTRL#OTRL&#45;4&#45;&gt;http://purl.org/oseg/ontologies/OTRL#OTRL</title>
<path fill="none" stroke="black" d="M484.26,-426.48C460.13,-423.06 430.49,-418.87 406.03,-415.41"/>
<polygon fill="black" stroke="black" points="406.29,-411.91 395.9,-413.97 405.31,-418.84 406.29,-411.91"/>
</g>
<!-- http://purl.org/oseg/ontologies/OTRL#OTRL&#45;4&#45;&gt;http://www.w3.org/2002/07/owl#class -->
<g id="edge31" class="edge">
<title>http://purl.org/oseg/ontologies/OTRL#OTRL&#45;4&#45;&gt;http://www.w3.org/2002/07/owl#class</title>
<path fill="none" stroke="black" d="M521.8,-449.28C502.34,-489.25 452.29,-592.11 428.9,-640.17"/>
<polygon fill="black" stroke="black" points="425.69,-638.76 424.46,-649.28 431.99,-641.82 425.69,-638.76"/>
<text text-anchor="middle" x="470.85" y="-533.52" font-family="Times,serif" font-size="14.00">a</text>
</g>
<!-- http://purl.org/oseg/ontologies/OTRL#softwareDescription -->
<g id="node14" class="node">
<title>http://purl.org/oseg/ontologies/OTRL#softwareDescription</title>
<ellipse fill="none" stroke="#e377c2" cx="136.85" cy="-212.66" rx="113.69" ry="16.03"/>
<text text-anchor="middle" x="136.85" y="-208.96" font-family="Times,serif" font-size="14.00">softwareDescription</text>
</g>
<!-- http://purl.org/oseg/ontologies/OTRL#softwareDescription&#45;&gt;http://www.w3.org/2002/07/owl#DatatypeProperty -->
<g id="edge10" class="edge">
<title>http://purl.org/oseg/ontologies/OTRL#softwareDescription&#45;&gt;http://www.w3.org/2002/07/owl#DatatypeProperty</title>
<path fill="none" stroke="black" d="M131.64,-196.38C131.61,-196.28 131.58,-196.18 131.54,-196.08"/>
<polygon fill="black" stroke="black" points="134.92,-195.14 128.53,-186.68 128.25,-197.27 134.92,-195.14"/>
<text text-anchor="middle" x="127.09" y="-185.03" font-family="Times,serif" font-size="14.00">a</text>
</g>
<!-- http://purl.org/oseg/ontologies/OTRL#softwareDescription&#45;&gt;http://purl.org/oseg/ontologies/OTRL#OTRL -->
<g id="edge32" class="edge">
<title>http://purl.org/oseg/ontologies/OTRL#softwareDescription&#45;&gt;http://purl.org/oseg/ontologies/OTRL#OTRL</title>
<path fill="none" stroke="black" d="M155.35,-229.03C195.18,-264.28 289.05,-347.37 333.78,-386.95"/>
<polygon fill="black" stroke="black" points="331.72,-389.81 341.53,-393.81 336.36,-384.56 331.72,-389.81"/>
<text text-anchor="middle" x="218.06" y="-311.79" font-family="Times,serif" font-size="14.00">domain</text>
</g>
<!-- http://purl.org/oseg/ontologies/OTRL#softwareDescription&#45;&gt;http://schema.org/Text -->
<g id="edge34" class="edge">
<title>http://purl.org/oseg/ontologies/OTRL#softwareDescription&#45;&gt;http://schema.org/Text</title>
<path fill="none" stroke="black" d="M143.39,-196.27C156.99,-162.17 188.43,-83.32 204.77,-42.33"/>
<polygon fill="black" stroke="black" points="208.03,-43.59 208.49,-33.01 201.53,-41 208.03,-43.59"/>
<text text-anchor="middle" x="153.08" y="-108.1" font-family="Times,serif" font-size="14.00">range</text>
</g>
<!-- http://purl.org/oseg/ontologies/OTRL#OTRL&#45;3 -->
<g id="node15" class="node">
<title>http://purl.org/oseg/ontologies/OTRL#OTRL&#45;3</title>
<ellipse fill="none" stroke="#e377c2" cx="297.44" cy="-612.23" rx="49.49" ry="16.03"/>
<text text-anchor="middle" x="297.44" y="-608.53" font-family="Times,serif" font-size="14.00">OTRL&#45;3</text>
</g>
<!-- http://purl.org/oseg/ontologies/OTRL#OTRL&#45;3&#45;&gt;http://purl.org/oseg/ontologies/OTRL#OTRL -->
<g id="edge9" class="edge">
<title>http://purl.org/oseg/ontologies/OTRL#OTRL&#45;3&#45;&gt;http://purl.org/oseg/ontologies/OTRL#OTRL</title>
<path fill="none" stroke="black" d="M302.32,-595.92C312.84,-560.7 337.77,-477.32 350.51,-434.71"/>
<polygon fill="black" stroke="black" points="353.89,-435.63 353.4,-425.05 347.18,-433.62 353.89,-435.63"/>
</g>
<!-- http://purl.org/oseg/ontologies/OTRL#OTRL&#45;3&#45;&gt;http://www.w3.org/2002/07/owl#class -->
<g id="edge12" class="edge">
<title>http://purl.org/oseg/ontologies/OTRL#OTRL&#45;3&#45;&gt;http://www.w3.org/2002/07/owl#class</title>
<path fill="none" stroke="black" d="M326.87,-625.43C341.84,-632.15 360.25,-640.4 376.49,-647.68"/>
<polygon fill="black" stroke="black" points="375.2,-650.94 385.75,-651.84 378.06,-644.55 375.2,-650.94"/>
<text text-anchor="middle" x="347.18" y="-640.36" font-family="Times,serif" font-size="14.00">a</text>
</g>
<!-- http://purl.org/oseg/ontologies/OTRL#OTRL&#45;5 -->
<g id="node16" class="node">
<title>http://purl.org/oseg/ontologies/OTRL#OTRL&#45;5</title>
<ellipse fill="none" stroke="#e377c2" cx="469.73" cy="-565.36" rx="49.49" ry="16.03"/>
<text text-anchor="middle" x="469.73" y="-561.66" font-family="Times,serif" font-size="14.00">OTRL&#45;5</text>
</g>
<!-- http://purl.org/oseg/ontologies/OTRL#OTRL&#45;5&#45;&gt;http://purl.org/oseg/ontologies/OTRL#OTRL -->
<g id="edge44" class="edge">
<title>http://purl.org/oseg/ontologies/OTRL#OTRL&#45;5&#45;&gt;http://purl.org/oseg/ontologies/OTRL#OTRL</title>
<path fill="none" stroke="black" d="M458.44,-549.47C438.91,-522.02 398.74,-465.53 375.65,-433.06"/>
<polygon fill="black" stroke="black" points="378.27,-430.7 369.63,-424.58 372.57,-434.76 378.27,-430.7"/>
</g>
<!-- http://purl.org/oseg/ontologies/OTRL#OTRL&#45;5&#45;&gt;http://www.w3.org/2002/07/owl#class -->
<g id="edge33" class="edge">
<title>http://purl.org/oseg/ontologies/OTRL#OTRL&#45;5&#45;&gt;http://www.w3.org/2002/07/owl#class</title>
<path fill="none" stroke="black" d="M461.18,-581.47C452.77,-597.31 439.81,-621.73 430.01,-640.19"/>
<polygon fill="black" stroke="black" points="426.81,-638.75 425.22,-649.23 433,-642.03 426.81,-638.75"/>
<text text-anchor="middle" x="441.1" y="-614.63" font-family="Times,serif" font-size="14.00">a</text>
</g>
<!-- http://purl.org/oseg/ontologies/OTRL#ODRL&#45;5 -->
<g id="node17" class="node">
<title>http://purl.org/oseg/ontologies/OTRL#ODRL&#45;5</title>
<ellipse fill="none" stroke="#e377c2" cx="591.4" cy="-854.98" rx="50.82" ry="16.03"/>
<text text-anchor="middle" x="591.4" y="-851.28" font-family="Times,serif" font-size="14.00">ODRL&#45;5</text>
</g>
<!-- http://purl.org/oseg/ontologies/OTRL#ODRL&#45;5&#45;&gt;http://www.w3.org/2002/07/owl#class -->
<g id="edge35" class="edge">
<title>http://purl.org/oseg/ontologies/OTRL#ODRL&#45;5&#45;&gt;http://www.w3.org/2002/07/owl#class</title>
<path fill="none" stroke="black" d="M576.79,-839.17C546.06,-805.89 474.57,-728.5 438.36,-689.29"/>
<polygon fill="black" stroke="black" points="440.56,-686.51 431.2,-681.54 435.41,-691.26 440.56,-686.51"/>
<text text-anchor="middle" x="503.08" y="-768.03" font-family="Times,serif" font-size="14.00">a</text>
</g>
<!-- http://purl.org/oseg/ontologies/OTRL#ODRL&#45;5&#45;&gt;http://purl.org/oseg/ontologies/OTRL#ODRL -->
<g id="edge36" class="edge">
<title>http://purl.org/oseg/ontologies/OTRL#ODRL&#45;5&#45;&gt;http://purl.org/oseg/ontologies/OTRL#ODRL</title>
<path fill="none" stroke="black" d="M540.52,-856.09C525.3,-856.43 508.59,-856.79 493.29,-857.13"/>
<polygon fill="black" stroke="black" points="492.88,-853.63 482.96,-857.35 493.03,-860.63 492.88,-853.63"/>
</g>
<!-- http://purl.org/oseg/ontologies/OTRL#OTRL&#45;7 -->
<g id="node18" class="node">
<title>http://purl.org/oseg/ontologies/OTRL#OTRL&#45;7</title>
<ellipse fill="none" stroke="#e377c2" cx="578.92" cy="-532.85" rx="49.49" ry="16.03"/>
<text text-anchor="middle" x="578.92" y="-529.15" font-family="Times,serif" font-size="14.00">OTRL&#45;7</text>
</g>
<!-- http://purl.org/oseg/ontologies/OTRL#OTRL&#45;7&#45;&gt;http://purl.org/oseg/ontologies/OTRL#OTRL -->
<g id="edge11" class="edge">
<title>http://purl.org/oseg/ontologies/OTRL#OTRL&#45;7&#45;&gt;http://purl.org/oseg/ontologies/OTRL#OTRL</title>
<path fill="none" stroke="black" d="M553.61,-518.6C513.35,-495.94 434.76,-451.7 390.53,-426.8"/>
<polygon fill="black" stroke="black" points="392.07,-423.65 381.64,-421.8 388.64,-429.75 392.07,-423.65"/>
</g>
<!-- http://purl.org/oseg/ontologies/OTRL#OTRL&#45;7&#45;&gt;http://www.w3.org/2002/07/owl#class -->
<g id="edge14" class="edge">
<title>http://purl.org/oseg/ontologies/OTRL#OTRL&#45;7&#45;&gt;http://www.w3.org/2002/07/owl#class</title>
<path fill="none" stroke="black" d="M560.29,-548.08C531.56,-571.57 476.32,-616.73 443.31,-643.72"/>
<polygon fill="black" stroke="black" points="440.95,-641.13 435.42,-650.17 445.38,-646.55 440.95,-641.13"/>
<text text-anchor="middle" x="497.3" y="-599.7" font-family="Times,serif" font-size="14.00">a</text>
</g>
<!-- http://purl.org/oseg/ontologies/OTRL#ODRL&#45;0 -->
<g id="node19" class="node">
<title>http://purl.org/oseg/ontologies/OTRL#ODRL&#45;0</title>
<ellipse fill="none" stroke="#e377c2" cx="607.52" cy="-782.7" rx="50.82" ry="16.03"/>
<text text-anchor="middle" x="607.52" y="-779" font-family="Times,serif" font-size="14.00">ODRL&#45;0</text>
</g>
<!-- http://purl.org/oseg/ontologies/OTRL#ODRL&#45;0&#45;&gt;http://www.w3.org/2002/07/owl#class -->
<g id="edge13" class="edge">
<title>http://purl.org/oseg/ontologies/OTRL#ODRL&#45;0&#45;&gt;http://www.w3.org/2002/07/owl#class</title>
<path fill="none" stroke="black" d="M583.72,-768.11C549.83,-747.34 487.56,-709.18 449.32,-685.74"/>
<polygon fill="black" stroke="black" points="450.97,-682.64 440.61,-680.4 447.31,-688.61 450.97,-682.64"/>
<text text-anchor="middle" x="512.02" y="-730.72" font-family="Times,serif" font-size="14.00">a</text>
</g>
<!-- http://purl.org/oseg/ontologies/OTRL#ODRL&#45;0&#45;&gt;http://purl.org/oseg/ontologies/OTRL#ODRL -->
<g id="edge20" class="edge">
<title>http://purl.org/oseg/ontologies/OTRL#ODRL&#45;0&#45;&gt;http://purl.org/oseg/ontologies/OTRL#ODRL</title>
<path fill="none" stroke="black" d="M578.16,-796.03C550.2,-808.73 508.05,-827.87 477.88,-841.57"/>
<polygon fill="black" stroke="black" points="476.2,-838.49 468.54,-845.81 479.09,-844.87 476.2,-838.49"/>
</g>
<!-- http://purl.org/oseg/ontologies/OTRL#ODRL&#45;3 -->
<g id="node20" class="node">
<title>http://purl.org/oseg/ontologies/OTRL#ODRL&#45;3</title>
<ellipse fill="none" stroke="#e377c2" cx="527.13" cy="-911.48" rx="50.82" ry="16.03"/>
<text text-anchor="middle" x="527.13" y="-907.78" font-family="Times,serif" font-size="14.00">ODRL&#45;3</text>
</g>
<!-- http://purl.org/oseg/ontologies/OTRL#ODRL&#45;3&#45;&gt;http://www.w3.org/2002/07/owl#class -->
<g id="edge15" class="edge">
<title>http://purl.org/oseg/ontologies/OTRL#ODRL&#45;3&#45;&gt;http://www.w3.org/2002/07/owl#class</title>
<path fill="none" stroke="black" d="M519.87,-895.35C501.08,-853.59 450.72,-741.67 427.96,-691.08"/>
<polygon fill="black" stroke="black" points="431.09,-689.5 423.79,-681.82 424.71,-692.38 431.09,-689.5"/>
<text text-anchor="middle" x="469.42" y="-797.02" font-family="Times,serif" font-size="14.00">a</text>
</g>
<!-- http://purl.org/oseg/ontologies/OTRL#ODRL&#45;3&#45;&gt;http://purl.org/oseg/ontologies/OTRL#ODRL -->
<g id="edge2" class="edge">
<title>http://purl.org/oseg/ontologies/OTRL#ODRL&#45;3&#45;&gt;http://purl.org/oseg/ontologies/OTRL#ODRL</title>
<path fill="none" stroke="black" d="M503.63,-896.94C493.93,-890.94 482.56,-883.91 472.2,-877.49"/>
<polygon fill="black" stroke="black" points="473.76,-874.34 463.41,-872.06 470.07,-880.29 473.76,-874.34"/>
</g>
<!-- http://purl.org/oseg/ontologies/OTRL#ODRL&#45;1 -->
<g id="node21" class="node">
<title>http://purl.org/oseg/ontologies/OTRL#ODRL&#45;1</title>
<ellipse fill="none" stroke="#e377c2" cx="287.79" cy="-891.95" rx="50.82" ry="16.03"/>
<text text-anchor="middle" x="287.79" y="-888.25" font-family="Times,serif" font-size="14.00">ODRL&#45;1</text>
</g>
<!-- http://purl.org/oseg/ontologies/OTRL#ODRL&#45;1&#45;&gt;http://www.w3.org/2002/07/owl#class -->
<g id="edge37" class="edge">
<title>http://purl.org/oseg/ontologies/OTRL#ODRL&#45;1&#45;&gt;http://www.w3.org/2002/07/owl#class</title>
<path fill="none" stroke="black" d="M297.05,-875.67C319.27,-836.61 375.74,-737.32 402.29,-690.62"/>
<polygon fill="black" stroke="black" points="405.43,-692.18 407.34,-681.76 399.35,-688.72 405.43,-692.18"/>
<text text-anchor="middle" x="345.17" y="-786.95" font-family="Times,serif" font-size="14.00">a</text>
</g>
<!-- http://purl.org/oseg/ontologies/OTRL#ODRL&#45;1&#45;&gt;http://purl.org/oseg/ontologies/OTRL#ODRL -->
<g id="edge19" class="edge">
<title>http://purl.org/oseg/ontologies/OTRL#ODRL&#45;1&#45;&gt;http://purl.org/oseg/ontologies/OTRL#ODRL</title>
<path fill="none" stroke="black" d="M330.1,-882.65C350.21,-878.24 374.29,-872.95 394.89,-868.42"/>
<polygon fill="black" stroke="black" points="395.67,-871.83 404.68,-866.27 394.16,-865 395.67,-871.83"/>
</g>
<!-- http://purl.org/oseg/ontologies/OTRL#ODRL&#45;4 -->
<g id="node22" class="node">
<title>http://purl.org/oseg/ontologies/OTRL#ODRL&#45;4</title>
<ellipse fill="none" stroke="#e377c2" cx="408.77" cy="-930.89" rx="50.82" ry="16.03"/>
<text text-anchor="middle" x="408.77" y="-927.19" font-family="Times,serif" font-size="14.00">ODRL&#45;4</text>
</g>
<!-- http://purl.org/oseg/ontologies/OTRL#ODRL&#45;4&#45;&gt;http://www.w3.org/2002/07/owl#class -->
<g id="edge38" class="edge">
<title>http://purl.org/oseg/ontologies/OTRL#ODRL&#45;4&#45;&gt;http://www.w3.org/2002/07/owl#class</title>
<path fill="none" stroke="black" d="M409.26,-914.3C410.56,-869.73 414.13,-747.11 415.73,-692.49"/>
<polygon fill="black" stroke="black" points="419.23,-692.31 416.03,-682.22 412.23,-692.11 419.23,-692.31"/>
<text text-anchor="middle" x="407.99" y="-807.19" font-family="Times,serif" font-size="14.00">a</text>
</g>
<!-- http://purl.org/oseg/ontologies/OTRL#ODRL&#45;4&#45;&gt;http://purl.org/oseg/ontologies/OTRL#ODRL -->
<g id="edge41" class="edge">
<title>http://purl.org/oseg/ontologies/OTRL#ODRL&#45;4&#45;&gt;http://purl.org/oseg/ontologies/OTRL#ODRL</title>
<path fill="none" stroke="black" d="M415.95,-914.77C420.02,-905.65 425.19,-894.04 429.79,-883.72"/>
<polygon fill="black" stroke="black" points="433.09,-884.9 433.96,-874.34 426.7,-882.05 433.09,-884.9"/>
</g>
<!-- http://purl.org/oseg/ontologies/OTRL#ODRL&#45;2 -->
<g id="node23" class="node">
<title>http://purl.org/oseg/ontologies/OTRL#ODRL&#45;2</title>
<ellipse fill="none" stroke="#e377c2" cx="245.81" cy="-841.7" rx="50.82" ry="16.03"/>
<text text-anchor="middle" x="245.81" y="-838" font-family="Times,serif" font-size="14.00">ODRL&#45;2</text>
</g>
<!-- http://purl.org/oseg/ontologies/OTRL#ODRL&#45;2&#45;&gt;http://www.w3.org/2002/07/owl#class -->
<g id="edge24" class="edge">
<title>http://purl.org/oseg/ontologies/OTRL#ODRL&#45;2&#45;&gt;http://www.w3.org/2002/07/owl#class</title>
<path fill="none" stroke="black" d="M260.96,-826.07C291.12,-794.96 358.83,-725.12 394.13,-688.71"/>
<polygon fill="black" stroke="black" points="396.7,-691.09 401.15,-681.47 391.68,-686.22 396.7,-691.09"/>
<text text-anchor="middle" x="323.05" y="-761.19" font-family="Times,serif" font-size="14.00">a</text>
</g>
<!-- http://purl.org/oseg/ontologies/OTRL#ODRL&#45;2&#45;&gt;http://purl.org/oseg/ontologies/OTRL#ODRL -->
<g id="edge28" class="edge">
<title>http://purl.org/oseg/ontologies/OTRL#ODRL&#45;2&#45;&gt;http://purl.org/oseg/ontologies/OTRL#ODRL</title>
<path fill="none" stroke="black" d="M295.1,-845.88C324.11,-848.34 360.74,-851.45 390.06,-853.93"/>
<polygon fill="black" stroke="black" points="389.84,-857.43 400.1,-854.79 390.43,-850.45 389.84,-857.43"/>
</g>
<!-- http://purl.org/oseg/ontologies/OTRL#OTRL&#45;8 -->
<g id="node24" class="node">
<title>http://purl.org/oseg/ontologies/OTRL#OTRL&#45;8</title>
<ellipse fill="none" stroke="#e377c2" cx="181.8" cy="-565.67" rx="49.49" ry="16.03"/>
<text text-anchor="middle" x="181.8" y="-561.97" font-family="Times,serif" font-size="14.00">OTRL&#45;8</text>
</g>
<!-- http://purl.org/oseg/ontologies/OTRL#OTRL&#45;8&#45;&gt;http://purl.org/oseg/ontologies/OTRL#OTRL -->
<g id="edge21" class="edge">
<title>http://purl.org/oseg/ontologies/OTRL#OTRL&#45;8&#45;&gt;http://purl.org/oseg/ontologies/OTRL#OTRL</title>
<path fill="none" stroke="black" d="M199.05,-550.33C230.58,-522.28 297.61,-462.64 333.84,-430.41"/>
<polygon fill="black" stroke="black" points="336.36,-432.86 341.5,-423.6 331.7,-427.63 336.36,-432.86"/>
</g>
<!-- http://purl.org/oseg/ontologies/OTRL#OTRL&#45;8&#45;&gt;http://www.w3.org/2002/07/owl#class -->
<g id="edge22" class="edge">
<title>http://purl.org/oseg/ontologies/OTRL#OTRL&#45;8&#45;&gt;http://www.w3.org/2002/07/owl#class</title>
<path fill="none" stroke="black" d="M212.49,-578.74C254.13,-596.47 328.68,-628.22 375.21,-648.04"/>
<polygon fill="black" stroke="black" points="374.12,-651.38 384.69,-652.08 376.86,-644.94 374.12,-651.38"/>
<text text-anchor="middle" x="289.35" y="-617.19" font-family="Times,serif" font-size="14.00">a</text>
</g>
<!-- http://purl.org/oseg/ontologies/OTRL#OTRL&#45;9 -->
<g id="node25" class="node">
<title>http://purl.org/oseg/ontologies/OTRL#OTRL&#45;9</title>
<ellipse fill="none" stroke="#e377c2" cx="422.48" cy="-465.03" rx="49.49" ry="16.03"/>
<text text-anchor="middle" x="422.48" y="-461.33" font-family="Times,serif" font-size="14.00">OTRL&#45;9</text>
</g>
<!-- http://purl.org/oseg/ontologies/OTRL#OTRL&#45;9&#45;&gt;http://purl.org/oseg/ontologies/OTRL#OTRL -->
<g id="edge43" class="edge">
<title>http://purl.org/oseg/ontologies/OTRL#OTRL&#45;9&#45;&gt;http://purl.org/oseg/ontologies/OTRL#OTRL</title>
<path fill="none" stroke="black" d="M404.94,-449.63C398.18,-443.69 390.33,-436.79 383.02,-430.37"/>
<polygon fill="black" stroke="black" points="385.19,-427.62 375.37,-423.65 380.57,-432.88 385.19,-427.62"/>
</g>
<!-- http://purl.org/oseg/ontologies/OTRL#OTRL&#45;9&#45;&gt;http://www.w3.org/2002/07/owl#class -->
<g id="edge45" class="edge">
<title>http://purl.org/oseg/ontologies/OTRL#OTRL&#45;9&#45;&gt;http://www.w3.org/2002/07/owl#class</title>
<path fill="none" stroke="black" d="M421.99,-481.45C420.96,-516.14 418.55,-597.16 417.29,-639.22"/>
<polygon fill="black" stroke="black" points="413.79,-639.17 417,-649.27 420.79,-639.38 413.79,-639.17"/>
<text text-anchor="middle" x="415.14" y="-564.14" font-family="Times,serif" font-size="14.00">a</text>
</g>
<!-- http://purl.org/oseg/ontologies/OTRL#OTRL&#45;1 -->
<g id="node26" class="node">
<title>http://purl.org/oseg/ontologies/OTRL#OTRL&#45;1</title>
<ellipse fill="none" stroke="#e377c2" cx="532.63" cy="-476.4" rx="49.49" ry="16.03"/>
<text text-anchor="middle" x="532.63" y="-472.7" font-family="Times,serif" font-size="14.00">OTRL&#45;1</text>
</g>
<!-- http://purl.org/oseg/ontologies/OTRL#OTRL&#45;1&#45;&gt;http://purl.org/oseg/ontologies/OTRL#OTRL -->
<g id="edge42" class="edge">
<title>http://purl.org/oseg/ontologies/OTRL#OTRL&#45;1&#45;&gt;http://purl.org/oseg/ontologies/OTRL#OTRL</title>
<path fill="none" stroke="black" d="M500.66,-463.97C471.39,-452.6 428.01,-435.74 396.84,-423.63"/>
<polygon fill="black" stroke="black" points="397.77,-420.23 387.18,-419.88 395.23,-426.76 397.77,-420.23"/>
</g>
<!-- http://purl.org/oseg/ontologies/OTRL#OTRL&#45;1&#45;&gt;http://www.w3.org/2002/07/owl#class -->
<g id="edge23" class="edge">
<title>http://purl.org/oseg/ontologies/OTRL#OTRL&#45;1&#45;&gt;http://www.w3.org/2002/07/owl#class</title>
<path fill="none" stroke="black" d="M522.73,-492.53C502.42,-525.63 455.92,-601.4 431.74,-640.8"/>
<polygon fill="black" stroke="black" points="428.63,-639.18 426.38,-649.54 434.6,-642.84 428.63,-639.18"/>
<text text-anchor="middle" x="472.74" y="-570.47" font-family="Times,serif" font-size="14.00">a</text>
</g>
</g>
</svg>
