<?xml version="1.0" encoding="UTF-8" standalone="no"?>
<!DOCTYPE svg PUBLIC "-//W3C//DTD SVG 1.1//EN"
 "http://www.w3.org/Graphics/SVG/1.1/DTD/svg11.dtd">
<!-- Generated by graphviz version 2.43.0 (0)
 -->
<!-- Title: G Pages: 1 -->
<svg width="1238pt" height="605pt"
 viewBox="0.00 0.00 1238.00 605.00" xmlns="http://www.w3.org/2000/svg" xmlns:xlink="http://www.w3.org/1999/xlink">
<g id="graph0" class="graph" transform="scale(1 1) rotate(0) translate(4 601)">
<title>G</title>
<polygon fill="white" stroke="transparent" points="-4,4 -4,-601 1234,-601 1234,4 -4,4"/>
<!-- http://www.w3.org/2002/07/owl#class -->
<g id="node1" class="node">
<title>http://www.w3.org/2002/07/owl#class</title>
<ellipse fill="none" stroke="#1f77b4" cx="320.84" cy="-355.54" rx="57.05" ry="16.03"/>
<text text-anchor="middle" x="320.84" y="-351.84" font-family="Times,serif" font-size="14.00">owl:class</text>
</g>
<!-- http://www.w3.org/2002/07/owl#Ontology -->
<g id="node2" class="node">
<title>http://www.w3.org/2002/07/owl#Ontology</title>
<ellipse fill="none" stroke="#1f77b4" cx="814.32" cy="-440.47" rx="77.56" ry="16.03"/>
<text text-anchor="middle" x="814.32" y="-436.77" font-family="Times,serif" font-size="14.00">owl:Ontology</text>
</g>
<!-- http://www.w3.org/2002/07/owl#DatatypeProperty -->
<g id="node3" class="node">
<title>http://www.w3.org/2002/07/owl#DatatypeProperty</title>
<ellipse fill="none" stroke="#1f77b4" cx="1106.5" cy="-85.66" rx="123.07" ry="16.03"/>
<text text-anchor="middle" x="1106.5" y="-81.96" font-family="Times,serif" font-size="14.00">owl:DatatypeProperty</text>
</g>
<!-- http://purl.org/oseg/ontologies/OTRL#OTRL -->
<g id="node4" class="node">
<title>http://purl.org/oseg/ontologies/OTRL#OTRL</title>
<ellipse fill="none" stroke="#e377c2" cx="557.81" cy="-254.91" rx="39.7" ry="16.03"/>
<text text-anchor="middle" x="557.81" y="-251.21" font-family="Times,serif" font-size="14.00">OTRL</text>
</g>
<!-- http://purl.org/oseg/ontologies/OTRL#OTRL&#45;&gt;http://www.w3.org/2002/07/owl#class -->
<g id="edge3" class="edge">
<title>http://purl.org/oseg/ontologies/OTRL#OTRL&#45;&gt;http://www.w3.org/2002/07/owl#class</title>
<path fill="none" stroke="black" d="M530.16,-266.65C488.73,-284.24 410.26,-317.57 362.05,-338.04"/>
<polygon fill="black" stroke="black" points="360.67,-334.82 352.84,-341.95 363.41,-341.27 360.67,-334.82"/>
<text text-anchor="middle" x="441.61" y="-306.14" font-family="Times,serif" font-size="14.00">a</text>
</g>
<!-- http://purl.org/oseg/ontologies/OTRL#ODRL -->
<g id="node5" class="node">
<title>http://purl.org/oseg/ontologies/OTRL#ODRL</title>
<ellipse fill="none" stroke="#e377c2" cx="153.52" cy="-427.91" rx="41.94" ry="16.03"/>
<text text-anchor="middle" x="153.52" y="-424.21" font-family="Times,serif" font-size="14.00">ODRL</text>
</g>
<!-- http://purl.org/oseg/ontologies/OTRL#ODRL&#45;&gt;http://www.w3.org/2002/07/owl#class -->
<g id="edge37" class="edge">
<title>http://purl.org/oseg/ontologies/OTRL#ODRL&#45;&gt;http://www.w3.org/2002/07/owl#class</title>
<path fill="none" stroke="black" d="M181.53,-415.79C208.39,-404.17 249.26,-386.5 279.8,-373.29"/>
<polygon fill="black" stroke="black" points="281.53,-376.35 289.32,-369.17 278.76,-369.93 281.53,-376.35"/>
<text text-anchor="middle" x="226.16" y="-398.34" font-family="Times,serif" font-size="14.00">a</text>
</g>
<!-- http://purl.org/oseg/ontologies/OTRL#OTRL&#45;8 -->
<g id="node6" class="node">
<title>http://purl.org/oseg/ontologies/OTRL#OTRL&#45;8</title>
<ellipse fill="none" stroke="#e377c2" cx="348.54" cy="-212.94" rx="49.49" ry="16.03"/>
<text text-anchor="middle" x="348.54" y="-209.24" font-family="Times,serif" font-size="14.00">OTRL&#45;8</text>
</g>
<!-- http://purl.org/oseg/ontologies/OTRL#OTRL&#45;8&#45;&gt;http://www.w3.org/2002/07/owl#class -->
<g id="edge1" class="edge">
<title>http://purl.org/oseg/ontologies/OTRL#OTRL&#45;8&#45;&gt;http://www.w3.org/2002/07/owl#class</title>
<path fill="none" stroke="black" d="M345.36,-229.29C340.63,-253.66 331.68,-299.76 326,-328.99"/>
<polygon fill="black" stroke="black" points="322.54,-328.45 324.07,-338.93 329.41,-329.78 322.54,-328.45"/>
<text text-anchor="middle" x="331.18" y="-282.94" font-family="Times,serif" font-size="14.00">a</text>
</g>
<!-- http://purl.org/oseg/ontologies/OTRL#OTRL&#45;8&#45;&gt;http://purl.org/oseg/ontologies/OTRL#OTRL -->
<g id="edge17" class="edge">
<title>http://purl.org/oseg/ontologies/OTRL#OTRL&#45;8&#45;&gt;http://purl.org/oseg/ontologies/OTRL#OTRL</title>
<path fill="none" stroke="black" d="M390.89,-221.43C426,-228.47 475.82,-238.46 511.88,-245.7"/>
<polygon fill="black" stroke="black" points="511.64,-249.22 522.13,-247.75 513.02,-242.35 511.64,-249.22"/>
</g>
<!-- http://purl.org/oseg/ontologies/OTRL#OTRL&#45;5 -->
<g id="node7" class="node">
<title>http://purl.org/oseg/ontologies/OTRL#OTRL&#45;5</title>
<ellipse fill="none" stroke="#e377c2" cx="396.78" cy="-420.01" rx="49.49" ry="16.03"/>
<text text-anchor="middle" x="396.78" y="-416.31" font-family="Times,serif" font-size="14.00">OTRL&#45;5</text>
</g>
<!-- http://purl.org/oseg/ontologies/OTRL#OTRL&#45;5&#45;&gt;http://www.w3.org/2002/07/owl#class -->
<g id="edge22" class="edge">
<title>http://purl.org/oseg/ontologies/OTRL#OTRL&#45;5&#45;&gt;http://www.w3.org/2002/07/owl#class</title>
<path fill="none" stroke="black" d="M378.78,-404.73C369.28,-396.66 357.44,-386.61 346.94,-377.7"/>
<polygon fill="black" stroke="black" points="349.13,-374.96 339.24,-371.16 344.6,-380.3 349.13,-374.96"/>
<text text-anchor="middle" x="358.36" y="-380.01" font-family="Times,serif" font-size="14.00">a</text>
</g>
<!-- http://purl.org/oseg/ontologies/OTRL#OTRL&#45;5&#45;&gt;http://purl.org/oseg/ontologies/OTRL#OTRL -->
<g id="edge7" class="edge">
<title>http://purl.org/oseg/ontologies/OTRL#OTRL&#45;5&#45;&gt;http://purl.org/oseg/ontologies/OTRL#OTRL</title>
<path fill="none" stroke="black" d="M411.93,-404.48C440.61,-375.07 502.92,-311.19 536.06,-277.21"/>
<polygon fill="black" stroke="black" points="538.57,-279.64 543.05,-270.04 533.56,-274.75 538.57,-279.64"/>
</g>
<!-- http://purl.org/oseg/ontologies/OTRL#ODRL&#45;2 -->
<g id="node8" class="node">
<title>http://purl.org/oseg/ontologies/OTRL#ODRL&#45;2</title>
<ellipse fill="none" stroke="#e377c2" cx="51.15" cy="-380.77" rx="50.82" ry="16.03"/>
<text text-anchor="middle" x="51.15" y="-377.07" font-family="Times,serif" font-size="14.00">ODRL&#45;2</text>
</g>
<!-- http://purl.org/oseg/ontologies/OTRL#ODRL&#45;2&#45;&gt;http://www.w3.org/2002/07/owl#class -->
<g id="edge23" class="edge">
<title>http://purl.org/oseg/ontologies/OTRL#ODRL&#45;2&#45;&gt;http://www.w3.org/2002/07/owl#class</title>
<path fill="none" stroke="black" d="M100.31,-376.17C143.9,-372.09 207.9,-366.11 255.74,-361.63"/>
<polygon fill="black" stroke="black" points="256.37,-365.09 266,-360.67 255.71,-358.12 256.37,-365.09"/>
<text text-anchor="middle" x="173.52" y="-372.7" font-family="Times,serif" font-size="14.00">a</text>
</g>
<!-- http://purl.org/oseg/ontologies/OTRL#ODRL&#45;2&#45;&gt;http://purl.org/oseg/ontologies/OTRL#ODRL -->
<g id="edge39" class="edge">
<title>http://purl.org/oseg/ontologies/OTRL#ODRL&#45;2&#45;&gt;http://purl.org/oseg/ontologies/OTRL#ODRL</title>
<path fill="none" stroke="black" d="M80.21,-394.15C91.69,-399.43 105,-405.56 117.1,-411.14"/>
<polygon fill="black" stroke="black" points="115.95,-414.46 126.49,-415.46 118.87,-408.1 115.95,-414.46"/>
</g>
<!-- http://purl.org/oseg/ontologies/OTRL#OTRL&#45;6 -->
<g id="node9" class="node">
<title>http://purl.org/oseg/ontologies/OTRL#OTRL&#45;6</title>
<ellipse fill="none" stroke="#e377c2" cx="509.74" cy="-469.53" rx="49.49" ry="16.03"/>
<text text-anchor="middle" x="509.74" y="-465.83" font-family="Times,serif" font-size="14.00">OTRL&#45;6</text>
</g>
<!-- http://purl.org/oseg/ontologies/OTRL#OTRL&#45;6&#45;&gt;http://www.w3.org/2002/07/owl#class -->
<g id="edge24" class="edge">
<title>http://purl.org/oseg/ontologies/OTRL#OTRL&#45;6&#45;&gt;http://www.w3.org/2002/07/owl#class</title>
<path fill="none" stroke="black" d="M485.82,-455.1C452.45,-434.96 391.82,-398.37 354.08,-375.6"/>
<polygon fill="black" stroke="black" points="355.84,-372.57 345.47,-370.4 352.22,-378.56 355.84,-372.57"/>
<text text-anchor="middle" x="415.45" y="-404.15" font-family="Times,serif" font-size="14.00">a</text>
</g>
<!-- http://purl.org/oseg/ontologies/OTRL#OTRL&#45;6&#45;&gt;http://purl.org/oseg/ontologies/OTRL#OTRL -->
<g id="edge8" class="edge">
<title>http://purl.org/oseg/ontologies/OTRL#OTRL&#45;6&#45;&gt;http://purl.org/oseg/ontologies/OTRL#OTRL</title>
<path fill="none" stroke="black" d="M513.43,-453.05C521.74,-415.97 541.94,-325.76 551.96,-280.99"/>
<polygon fill="black" stroke="black" points="555.4,-281.68 554.17,-271.15 548.57,-280.15 555.4,-281.68"/>
</g>
<!-- http://purl.org/oseg/ontologies/OTRL -->
<g id="node10" class="node">
<title>http://purl.org/oseg/ontologies/OTRL</title>
<ellipse fill="none" stroke="#e377c2" cx="961.95" cy="-418.42" rx="60.62" ry="16.03"/>
<text text-anchor="middle" x="961.95" y="-414.72" font-family="Times,serif" font-size="14.00">ns1:OTRL</text>
</g>
<!-- http://purl.org/oseg/ontologies/OTRL&#45;&gt;http://www.w3.org/2002/07/owl#Ontology -->
<g id="edge40" class="edge">
<title>http://purl.org/oseg/ontologies/OTRL&#45;&gt;http://www.w3.org/2002/07/owl#Ontology</title>
<path fill="none" stroke="black" d="M908.65,-426.38C901.94,-427.38 894.98,-428.42 888.02,-429.46"/>
<polygon fill="black" stroke="black" points="887.22,-426.04 877.85,-430.98 888.26,-432.96 887.22,-426.04"/>
<text text-anchor="middle" x="896.08" y="-416.72" font-family="Times,serif" font-size="14.00">a</text>
</g>
<!-- http://purl.org/oseg/ontologies/OTRL&#45;&gt;http://purl.org/oseg/ontologies/OTRL -->
<g id="edge5" class="edge">
<title>http://purl.org/oseg/ontologies/OTRL&#45;&gt;http://purl.org/oseg/ontologies/OTRL</title>
<path fill="none" stroke="black" d="M1017.55,-425.05C1030.89,-424.53 1040.76,-422.32 1040.76,-418.42 1040.76,-415.58 1035.55,-413.64 1027.58,-412.59"/>
<polygon fill="black" stroke="black" points="1027.8,-409.1 1017.55,-411.78 1027.24,-416.07 1027.8,-409.1"/>
<text text-anchor="middle" x="1092.26" y="-414.72" font-family="Times,serif" font-size="14.00">owl:versionIRI</text>
</g>
<!-- http://purl.org/oseg/ontologies/OTRL#exitCriteria -->
<g id="node11" class="node">
<title>http://purl.org/oseg/ontologies/OTRL#exitCriteria</title>
<ellipse fill="none" stroke="#e377c2" cx="804.99" cy="-126.59" rx="70.01" ry="16.03"/>
<text text-anchor="middle" x="804.99" y="-122.89" font-family="Times,serif" font-size="14.00">exitCriteria</text>
</g>
<!-- http://purl.org/oseg/ontologies/OTRL#exitCriteria&#45;&gt;http://www.w3.org/2002/07/owl#DatatypeProperty -->
<g id="edge26" class="edge">
<title>http://purl.org/oseg/ontologies/OTRL#exitCriteria&#45;&gt;http://www.w3.org/2002/07/owl#DatatypeProperty</title>
<path fill="none" stroke="black" d="M865.65,-118.36C907.15,-112.72 963.04,-105.13 1010.53,-98.69"/>
<polygon fill="black" stroke="black" points="1011.09,-102.14 1020.53,-97.33 1010.15,-95.21 1011.09,-102.14"/>
<text text-anchor="middle" x="933.59" y="-97.32" font-family="Times,serif" font-size="14.00">a</text>
</g>
<!-- http://purl.org/oseg/ontologies/OTRL#exitCriteria&#45;&gt;http://purl.org/oseg/ontologies/OTRL#OTRL -->
<g id="edge29" class="edge">
<title>http://purl.org/oseg/ontologies/OTRL#exitCriteria&#45;&gt;http://purl.org/oseg/ontologies/OTRL#OTRL</title>
<path fill="none" stroke="black" d="M776.15,-141.56C730.09,-165.47 640.15,-212.16 591.3,-237.52"/>
<polygon fill="black" stroke="black" points="589.66,-234.43 582.39,-242.14 592.88,-240.64 589.66,-234.43"/>
<text text-anchor="middle" x="657.23" y="-193.34" font-family="Times,serif" font-size="14.00">domain</text>
</g>
<!-- http://schema.org/Text -->
<g id="node15" class="node">
<title>http://schema.org/Text</title>
<ellipse fill="none" stroke="#e377c2" cx="1018.1" cy="-22.51" rx="74.91" ry="16.03"/>
<text text-anchor="middle" x="1018.1" y="-18.81" font-family="Times,serif" font-size="14.00">schema:Text</text>
</g>
<!-- http://purl.org/oseg/ontologies/OTRL#exitCriteria&#45;&gt;http://schema.org/Text -->
<g id="edge45" class="edge">
<title>http://purl.org/oseg/ontologies/OTRL#exitCriteria&#45;&gt;http://schema.org/Text</title>
<path fill="none" stroke="black" d="M835.07,-111.9C872.62,-93.56 936.94,-62.14 978.47,-41.86"/>
<polygon fill="black" stroke="black" points="980.03,-44.99 987.48,-37.46 976.96,-38.7 980.03,-44.99"/>
<text text-anchor="middle" x="885.77" y="-80.68" font-family="Times,serif" font-size="14.00">range</text>
</g>
<!-- http://purl.org/oseg/ontologies/OTRL#documentationDescription -->
<g id="node12" class="node">
<title>http://purl.org/oseg/ontologies/OTRL#documentationDescription</title>
<ellipse fill="none" stroke="#e377c2" cx="861.78" cy="-201.88" rx="120.83" ry="16.03"/>
<text text-anchor="middle" x="861.78" y="-198.18" font-family="Times,serif" font-size="14.00">documentationDesc...</text>
</g>
<!-- http://purl.org/oseg/ontologies/OTRL#documentationDescription&#45;&gt;http://www.w3.org/2002/07/owl#DatatypeProperty -->
<g id="edge6" class="edge">
<title>http://purl.org/oseg/ontologies/OTRL#documentationDescription&#45;&gt;http://www.w3.org/2002/07/owl#DatatypeProperty</title>
<path fill="none" stroke="black" d="M894.78,-186.21C938.57,-165.41 1015.93,-128.67 1064.03,-105.83"/>
<polygon fill="black" stroke="black" points="1065.71,-108.91 1073.24,-101.45 1062.71,-102.58 1065.71,-108.91"/>
<text text-anchor="middle" x="974.91" y="-149.82" font-family="Times,serif" font-size="14.00">a</text>
</g>
<!-- http://purl.org/oseg/ontologies/OTRL#documentationDescription&#45;&gt;http://purl.org/oseg/ontologies/OTRL#OTRL -->
<g id="edge35" class="edge">
<title>http://purl.org/oseg/ontologies/OTRL#documentationDescription&#45;&gt;http://purl.org/oseg/ontologies/OTRL#OTRL</title>
<path fill="none" stroke="black" d="M787.81,-214.78C730.71,-224.74 653.47,-238.22 604.63,-246.74"/>
<polygon fill="black" stroke="black" points="603.91,-243.31 594.66,-248.48 605.11,-250.21 603.91,-243.31"/>
<text text-anchor="middle" x="669.72" y="-234.56" font-family="Times,serif" font-size="14.00">domain</text>
</g>
<!-- http://purl.org/oseg/ontologies/OTRL#documentationDescription&#45;&gt;http://schema.org/Text -->
<g id="edge30" class="edge">
<title>http://purl.org/oseg/ontologies/OTRL#documentationDescription&#45;&gt;http://schema.org/Text</title>
<path fill="none" stroke="black" d="M875.93,-185.64C903.6,-153.9 964.98,-83.46 997.29,-46.38"/>
<polygon fill="black" stroke="black" points="1000.17,-48.41 1004.1,-38.57 994.89,-43.81 1000.17,-48.41"/>
<text text-anchor="middle" x="915.61" y="-119.81" font-family="Times,serif" font-size="14.00">range</text>
</g>
<!-- http://purl.org/oseg/ontologies/OTRL#OTRL&#45;4 -->
<g id="node13" class="node">
<title>http://purl.org/oseg/ontologies/OTRL#OTRL&#45;4</title>
<ellipse fill="none" stroke="#e377c2" cx="450.02" cy="-122.81" rx="49.49" ry="16.03"/>
<text text-anchor="middle" x="450.02" y="-119.11" font-family="Times,serif" font-size="14.00">OTRL&#45;4</text>
</g>
<!-- http://purl.org/oseg/ontologies/OTRL#OTRL&#45;4&#45;&gt;http://www.w3.org/2002/07/owl#class -->
<g id="edge9" class="edge">
<title>http://purl.org/oseg/ontologies/OTRL#OTRL&#45;4&#45;&gt;http://www.w3.org/2002/07/owl#class</title>
<path fill="none" stroke="black" d="M440.94,-139.17C418.7,-179.23 361.42,-282.44 334.81,-330.38"/>
<polygon fill="black" stroke="black" points="331.71,-328.75 329.92,-339.19 337.83,-332.15 331.71,-328.75"/>
<text text-anchor="middle" x="383.38" y="-238.57" font-family="Times,serif" font-size="14.00">a</text>
</g>
<!-- http://purl.org/oseg/ontologies/OTRL#OTRL&#45;4&#45;&gt;http://purl.org/oseg/ontologies/OTRL#OTRL -->
<g id="edge38" class="edge">
<title>http://purl.org/oseg/ontologies/OTRL#OTRL&#45;4&#45;&gt;http://purl.org/oseg/ontologies/OTRL#OTRL</title>
<path fill="none" stroke="black" d="M463.02,-138.74C481.82,-161.78 516.71,-204.54 538.51,-231.26"/>
<polygon fill="black" stroke="black" points="536.06,-233.79 545.09,-239.33 541.48,-229.37 536.06,-233.79"/>
</g>
<!-- http://purl.org/oseg/ontologies/OTRL#hardwareDescription -->
<g id="node14" class="node">
<title>http://purl.org/oseg/ontologies/OTRL#hardwareDescription</title>
<ellipse fill="none" stroke="#e377c2" cx="779.81" cy="-15.78" rx="118.17" ry="16.03"/>
<text text-anchor="middle" x="779.81" y="-12.08" font-family="Times,serif" font-size="14.00">hardwareDescription</text>
</g>
<!-- http://purl.org/oseg/ontologies/OTRL#hardwareDescription&#45;&gt;http://www.w3.org/2002/07/owl#DatatypeProperty -->
<g id="edge10" class="edge">
<title>http://purl.org/oseg/ontologies/OTRL#hardwareDescription&#45;&gt;http://www.w3.org/2002/07/owl#DatatypeProperty</title>
<path fill="none" stroke="black" d="M843.97,-29.5C897.87,-41.03 974.97,-57.52 1031.68,-69.65"/>
<polygon fill="black" stroke="black" points="1031.15,-73.12 1041.66,-71.79 1032.61,-66.27 1031.15,-73.12"/>
<text text-anchor="middle" x="933.32" y="-53.38" font-family="Times,serif" font-size="14.00">a</text>
</g>
<!-- http://purl.org/oseg/ontologies/OTRL#hardwareDescription&#45;&gt;http://purl.org/oseg/ontologies/OTRL#OTRL -->
<g id="edge25" class="edge">
<title>http://purl.org/oseg/ontologies/OTRL#hardwareDescription&#45;&gt;http://purl.org/oseg/ontologies/OTRL#OTRL</title>
<path fill="none" stroke="black" d="M764.55,-32.21C725.76,-74 623.32,-184.34 578.88,-232.21"/>
<polygon fill="black" stroke="black" points="576.25,-229.89 572.01,-239.6 581.38,-234.66 576.25,-229.89"/>
<text text-anchor="middle" x="645.21" y="-136.01" font-family="Times,serif" font-size="14.00">domain</text>
</g>
<!-- http://purl.org/oseg/ontologies/OTRL#hardwareDescription&#45;&gt;http://schema.org/Text -->
<g id="edge33" class="edge">
<title>http://purl.org/oseg/ontologies/OTRL#hardwareDescription&#45;&gt;http://schema.org/Text</title>
<path fill="none" stroke="black" d="M895.82,-19.05C908.48,-19.41 921.2,-19.77 933.39,-20.11"/>
<polygon fill="black" stroke="black" points="933.4,-23.62 943.49,-20.4 933.6,-16.62 933.4,-23.62"/>
<text text-anchor="middle" x="925.1" y="-8.38" font-family="Times,serif" font-size="14.00">range</text>
</g>
<!-- http://purl.org/oseg/ontologies/OTRL#ODRL&#45;5 -->
<g id="node16" class="node">
<title>http://purl.org/oseg/ontologies/OTRL#ODRL&#45;5</title>
<ellipse fill="none" stroke="#e377c2" cx="155.51" cy="-563.95" rx="50.82" ry="16.03"/>
<text text-anchor="middle" x="155.51" y="-560.25" font-family="Times,serif" font-size="14.00">ODRL&#45;5</text>
</g>
<!-- http://purl.org/oseg/ontologies/OTRL#ODRL&#45;5&#45;&gt;http://www.w3.org/2002/07/owl#class -->
<g id="edge31" class="edge">
<title>http://purl.org/oseg/ontologies/OTRL#ODRL&#45;5&#45;&gt;http://www.w3.org/2002/07/owl#class</title>
<path fill="none" stroke="black" d="M168.21,-547.94C197.06,-511.58 267.68,-422.56 301.79,-379.56"/>
<polygon fill="black" stroke="black" points="304.63,-381.61 308.1,-371.6 299.15,-377.26 304.63,-381.61"/>
<text text-anchor="middle" x="230.5" y="-467.55" font-family="Times,serif" font-size="14.00">a</text>
</g>
<!-- http://purl.org/oseg/ontologies/OTRL#ODRL&#45;5&#45;&gt;http://purl.org/oseg/ontologies/OTRL#ODRL -->
<g id="edge20" class="edge">
<title>http://purl.org/oseg/ontologies/OTRL#ODRL&#45;5&#45;&gt;http://purl.org/oseg/ontologies/OTRL#ODRL</title>
<path fill="none" stroke="black" d="M155.27,-547.54C154.93,-524.46 154.31,-482.13 153.91,-454.52"/>
<polygon fill="black" stroke="black" points="157.41,-454.32 153.76,-444.37 150.41,-454.42 157.41,-454.32"/>
</g>
<!-- http://purl.org/oseg/ontologies/OTRL#ODRL&#45;4 -->
<g id="node17" class="node">
<title>http://purl.org/oseg/ontologies/OTRL#ODRL&#45;4</title>
<ellipse fill="none" stroke="#e377c2" cx="64.2" cy="-295.83" rx="50.82" ry="16.03"/>
<text text-anchor="middle" x="64.2" y="-292.13" font-family="Times,serif" font-size="14.00">ODRL&#45;4</text>
</g>
<!-- http://purl.org/oseg/ontologies/OTRL#ODRL&#45;4&#45;&gt;http://www.w3.org/2002/07/owl#class -->
<g id="edge32" class="edge">
<title>http://purl.org/oseg/ontologies/OTRL#ODRL&#45;4&#45;&gt;http://www.w3.org/2002/07/owl#class</title>
<path fill="none" stroke="black" d="M105.44,-305.42C149.09,-315.58 218.2,-331.66 266.33,-342.86"/>
<polygon fill="black" stroke="black" points="265.73,-346.31 276.27,-345.17 267.32,-339.49 265.73,-346.31"/>
<text text-anchor="middle" x="181.38" y="-327.94" font-family="Times,serif" font-size="14.00">a</text>
</g>
<!-- http://purl.org/oseg/ontologies/OTRL#ODRL&#45;4&#45;&gt;http://purl.org/oseg/ontologies/OTRL#ODRL -->
<g id="edge2" class="edge">
<title>http://purl.org/oseg/ontologies/OTRL#ODRL&#45;4&#45;&gt;http://purl.org/oseg/ontologies/OTRL#ODRL</title>
<path fill="none" stroke="black" d="M74.98,-311.76C90.4,-334.57 118.9,-376.72 137,-403.48"/>
<polygon fill="black" stroke="black" points="134.21,-405.59 142.71,-411.92 140,-401.67 134.21,-405.59"/>
</g>
<!-- http://purl.org/oseg/ontologies/OTRL#OTRL&#45;2 -->
<g id="node18" class="node">
<title>http://purl.org/oseg/ontologies/OTRL#OTRL&#45;2</title>
<ellipse fill="none" stroke="#e377c2" cx="460.64" cy="-295.18" rx="49.49" ry="16.03"/>
<text text-anchor="middle" x="460.64" y="-291.48" font-family="Times,serif" font-size="14.00">OTRL&#45;2</text>
</g>
<!-- http://purl.org/oseg/ontologies/OTRL#OTRL&#45;2&#45;&gt;http://www.w3.org/2002/07/owl#class -->
<g id="edge34" class="edge">
<title>http://purl.org/oseg/ontologies/OTRL#OTRL&#45;2&#45;&gt;http://www.w3.org/2002/07/owl#class</title>
<path fill="none" stroke="black" d="M430.65,-308.13C410.67,-316.76 384.13,-328.21 362.15,-337.7"/>
<polygon fill="black" stroke="black" points="360.52,-334.59 352.73,-341.77 363.3,-341.02 360.52,-334.59"/>
<text text-anchor="middle" x="391.9" y="-326.72" font-family="Times,serif" font-size="14.00">a</text>
</g>
<!-- http://purl.org/oseg/ontologies/OTRL#OTRL&#45;2&#45;&gt;http://purl.org/oseg/ontologies/OTRL#OTRL -->
<g id="edge28" class="edge">
<title>http://purl.org/oseg/ontologies/OTRL#OTRL&#45;2&#45;&gt;http://purl.org/oseg/ontologies/OTRL#OTRL</title>
<path fill="none" stroke="black" d="M491.65,-282.33C500.82,-278.53 510.95,-274.33 520.46,-270.38"/>
<polygon fill="black" stroke="black" points="521.82,-273.61 529.72,-266.55 519.14,-267.14 521.82,-273.61"/>
</g>
<!-- http://purl.org/oseg/ontologies/OTRL#OTRL&#45;1 -->
<g id="node19" class="node">
<title>http://purl.org/oseg/ontologies/OTRL#OTRL&#45;1</title>
<ellipse fill="none" stroke="#e377c2" cx="463.43" cy="-178.29" rx="49.49" ry="16.03"/>
<text text-anchor="middle" x="463.43" y="-174.59" font-family="Times,serif" font-size="14.00">OTRL&#45;1</text>
</g>
<!-- http://purl.org/oseg/ontologies/OTRL#OTRL&#45;1&#45;&gt;http://www.w3.org/2002/07/owl#class -->
<g id="edge13" class="edge">
<title>http://purl.org/oseg/ontologies/OTRL#OTRL&#45;1&#45;&gt;http://www.w3.org/2002/07/owl#class</title>
<path fill="none" stroke="black" d="M450.77,-194.02C425.79,-225.08 369.97,-294.47 340.28,-331.38"/>
<polygon fill="black" stroke="black" points="337.22,-329.6 333.67,-339.59 342.67,-333.99 337.22,-329.6"/>
<text text-anchor="middle" x="391.03" y="-266.5" font-family="Times,serif" font-size="14.00">a</text>
</g>
<!-- http://purl.org/oseg/ontologies/OTRL#OTRL&#45;1&#45;&gt;http://purl.org/oseg/ontologies/OTRL#OTRL -->
<g id="edge43" class="edge">
<title>http://purl.org/oseg/ontologies/OTRL#OTRL&#45;1&#45;&gt;http://purl.org/oseg/ontologies/OTRL#OTRL</title>
<path fill="none" stroke="black" d="M482.07,-193.43C496.35,-205.02 516.2,-221.13 532,-233.96"/>
<polygon fill="black" stroke="black" points="529.87,-236.74 539.84,-240.32 534.28,-231.3 529.87,-236.74"/>
</g>
<!-- http://purl.org/oseg/ontologies/OTRL#OTRL&#45;9 -->
<g id="node20" class="node">
<title>http://purl.org/oseg/ontologies/OTRL#OTRL&#45;9</title>
<ellipse fill="none" stroke="#e377c2" cx="610.56" cy="-428.72" rx="49.49" ry="16.03"/>
<text text-anchor="middle" x="610.56" y="-425.02" font-family="Times,serif" font-size="14.00">OTRL&#45;9</text>
</g>
<!-- http://purl.org/oseg/ontologies/OTRL#OTRL&#45;9&#45;&gt;http://www.w3.org/2002/07/owl#class -->
<g id="edge15" class="edge">
<title>http://purl.org/oseg/ontologies/OTRL#OTRL&#45;9&#45;&gt;http://www.w3.org/2002/07/owl#class</title>
<path fill="none" stroke="black" d="M571.19,-418.78C520.11,-405.87 430.8,-383.31 373.81,-368.92"/>
<polygon fill="black" stroke="black" points="374.46,-365.47 363.91,-366.42 372.75,-372.26 374.46,-365.47"/>
<text text-anchor="middle" x="468" y="-397.65" font-family="Times,serif" font-size="14.00">a</text>
</g>
<!-- http://purl.org/oseg/ontologies/OTRL#OTRL&#45;9&#45;&gt;http://purl.org/oseg/ontologies/OTRL#OTRL -->
<g id="edge44" class="edge">
<title>http://purl.org/oseg/ontologies/OTRL#OTRL&#45;9&#45;&gt;http://purl.org/oseg/ontologies/OTRL#OTRL</title>
<path fill="none" stroke="black" d="M605.6,-412.37C596.45,-382.22 576.84,-317.63 565.8,-281.24"/>
<polygon fill="black" stroke="black" points="569.05,-279.89 562.8,-271.34 562.35,-281.93 569.05,-279.89"/>
</g>
<!-- http://purl.org/oseg/ontologies/OTRL#ODRL&#45;1 -->
<g id="node21" class="node">
<title>http://purl.org/oseg/ontologies/OTRL#ODRL&#45;1</title>
<ellipse fill="none" stroke="#e377c2" cx="117.47" cy="-239.19" rx="50.82" ry="16.03"/>
<text text-anchor="middle" x="117.47" y="-235.49" font-family="Times,serif" font-size="14.00">ODRL&#45;1</text>
</g>
<!-- http://purl.org/oseg/ontologies/OTRL#ODRL&#45;1&#45;&gt;http://www.w3.org/2002/07/owl#class -->
<g id="edge36" class="edge">
<title>http://purl.org/oseg/ontologies/OTRL#ODRL&#45;1&#45;&gt;http://www.w3.org/2002/07/owl#class</title>
<path fill="none" stroke="black" d="M142.41,-253.46C178.5,-274.11 245.43,-312.4 286.27,-335.76"/>
<polygon fill="black" stroke="black" points="284.64,-338.86 295.06,-340.79 288.12,-332.79 284.64,-338.86"/>
<text text-anchor="middle" x="209.84" y="-298.41" font-family="Times,serif" font-size="14.00">a</text>
</g>
<!-- http://purl.org/oseg/ontologies/OTRL#ODRL&#45;1&#45;&gt;http://purl.org/oseg/ontologies/OTRL#ODRL -->
<g id="edge21" class="edge">
<title>http://purl.org/oseg/ontologies/OTRL#ODRL&#45;1&#45;&gt;http://purl.org/oseg/ontologies/OTRL#ODRL</title>
<path fill="none" stroke="black" d="M120.61,-255.61C126.87,-288.38 140.96,-362.17 148.51,-401.71"/>
<polygon fill="black" stroke="black" points="145.1,-402.5 150.42,-411.66 151.98,-401.18 145.1,-402.5"/>
</g>
<!-- http://purl.org/oseg/ontologies/OTRL#OTRL&#45;7 -->
<g id="node22" class="node">
<title>http://purl.org/oseg/ontologies/OTRL#OTRL&#45;7</title>
<ellipse fill="none" stroke="#e377c2" cx="511.61" cy="-380.23" rx="49.49" ry="16.03"/>
<text text-anchor="middle" x="511.61" y="-376.53" font-family="Times,serif" font-size="14.00">OTRL&#45;7</text>
</g>
<!-- http://purl.org/oseg/ontologies/OTRL#OTRL&#45;7&#45;&gt;http://www.w3.org/2002/07/owl#class -->
<g id="edge41" class="edge">
<title>http://purl.org/oseg/ontologies/OTRL#OTRL&#45;7&#45;&gt;http://www.w3.org/2002/07/owl#class</title>
<path fill="none" stroke="black" d="M465.43,-374.26C440.7,-371.05 409.88,-367.06 383.06,-363.59"/>
<polygon fill="black" stroke="black" points="383.36,-360.1 372.99,-362.29 382.46,-367.04 383.36,-360.1"/>
<text text-anchor="middle" x="419.74" y="-372.72" font-family="Times,serif" font-size="14.00">a</text>
</g>
<!-- http://purl.org/oseg/ontologies/OTRL#OTRL&#45;7&#45;&gt;http://purl.org/oseg/ontologies/OTRL#OTRL -->
<g id="edge12" class="edge">
<title>http://purl.org/oseg/ontologies/OTRL#OTRL&#45;7&#45;&gt;http://purl.org/oseg/ontologies/OTRL#OTRL</title>
<path fill="none" stroke="black" d="M517.65,-363.85C525.43,-342.74 539.05,-305.8 548.24,-280.85"/>
<polygon fill="black" stroke="black" points="551.59,-281.89 551.77,-271.3 545.02,-279.47 551.59,-281.89"/>
</g>
<!-- http://purl.org/oseg/ontologies/OTRL#ODRL&#45;0 -->
<g id="node23" class="node">
<title>http://purl.org/oseg/ontologies/OTRL#ODRL&#45;0</title>
<ellipse fill="none" stroke="#e377c2" cx="266.31" cy="-580.45" rx="50.82" ry="16.03"/>
<text text-anchor="middle" x="266.31" y="-576.75" font-family="Times,serif" font-size="14.00">ODRL&#45;0</text>
</g>
<!-- http://purl.org/oseg/ontologies/OTRL#ODRL&#45;0&#45;&gt;http://www.w3.org/2002/07/owl#class -->
<g id="edge42" class="edge">
<title>http://purl.org/oseg/ontologies/OTRL#ODRL&#45;0&#45;&gt;http://www.w3.org/2002/07/owl#class</title>
<path fill="none" stroke="black" d="M270.32,-563.91C279.7,-525.23 303.13,-428.6 314.48,-381.78"/>
<polygon fill="black" stroke="black" points="317.95,-382.34 316.9,-371.8 311.14,-380.69 317.95,-382.34"/>
<text text-anchor="middle" x="287.9" y="-476.65" font-family="Times,serif" font-size="14.00">a</text>
</g>
<!-- http://purl.org/oseg/ontologies/OTRL#ODRL&#45;0&#45;&gt;http://purl.org/oseg/ontologies/OTRL#ODRL -->
<g id="edge27" class="edge">
<title>http://purl.org/oseg/ontologies/OTRL#ODRL&#45;0&#45;&gt;http://purl.org/oseg/ontologies/OTRL#ODRL</title>
<path fill="none" stroke="black" d="M254.45,-564.41C234.6,-537.56 194.53,-483.37 171.29,-451.95"/>
<polygon fill="black" stroke="black" points="173.98,-449.69 165.22,-443.73 168.35,-453.85 173.98,-449.69"/>
</g>
<!-- http://purl.org/oseg/ontologies/OTRL#OTRL&#45;3 -->
<g id="node24" class="node">
<title>http://purl.org/oseg/ontologies/OTRL#OTRL&#45;3</title>
<ellipse fill="none" stroke="#e377c2" cx="342.93" cy="-150.29" rx="49.49" ry="16.03"/>
<text text-anchor="middle" x="342.93" y="-146.59" font-family="Times,serif" font-size="14.00">OTRL&#45;3</text>
</g>
<!-- http://purl.org/oseg/ontologies/OTRL#OTRL&#45;3&#45;&gt;http://www.w3.org/2002/07/owl#class -->
<g id="edge18" class="edge">
<title>http://purl.org/oseg/ontologies/OTRL#OTRL&#45;3&#45;&gt;http://www.w3.org/2002/07/owl#class</title>
<path fill="none" stroke="black" d="M341.16,-166.74C337.34,-202.17 328.33,-285.96 323.7,-329"/>
<polygon fill="black" stroke="black" points="320.21,-328.69 322.62,-339.01 327.17,-329.44 320.21,-328.69"/>
<text text-anchor="middle" x="327.93" y="-251.67" font-family="Times,serif" font-size="14.00">a</text>
</g>
<!-- http://purl.org/oseg/ontologies/OTRL#OTRL&#45;3&#45;&gt;http://purl.org/oseg/ontologies/OTRL#OTRL -->
<g id="edge4" class="edge">
<title>http://purl.org/oseg/ontologies/OTRL#OTRL&#45;3&#45;&gt;http://purl.org/oseg/ontologies/OTRL#OTRL</title>
<path fill="none" stroke="black" d="M371.02,-163.97C410.04,-182.97 480.63,-217.33 522.96,-237.94"/>
<polygon fill="black" stroke="black" points="521.53,-241.14 532.06,-242.37 524.6,-234.85 521.53,-241.14"/>
</g>
<!-- http://purl.org/oseg/ontologies/OTRL#softwareDescription -->
<g id="node25" class="node">
<title>http://purl.org/oseg/ontologies/OTRL#softwareDescription</title>
<ellipse fill="none" stroke="#e377c2" cx="881.3" cy="-276.96" rx="113.69" ry="16.03"/>
<text text-anchor="middle" x="881.3" y="-273.26" font-family="Times,serif" font-size="14.00">softwareDescription</text>
</g>
<!-- http://purl.org/oseg/ontologies/OTRL#softwareDescription&#45;&gt;http://www.w3.org/2002/07/owl#DatatypeProperty -->
<g id="edge46" class="edge">
<title>http://purl.org/oseg/ontologies/OTRL#softwareDescription&#45;&gt;http://www.w3.org/2002/07/owl#DatatypeProperty</title>
<path fill="none" stroke="black" d="M900.5,-260.65C940.64,-226.55 1033.51,-147.66 1079.58,-108.53"/>
<polygon fill="black" stroke="black" points="1082,-111.07 1087.35,-101.93 1077.46,-105.73 1082,-111.07"/>
<text text-anchor="middle" x="985.54" y="-173.39" font-family="Times,serif" font-size="14.00">a</text>
</g>
<!-- http://purl.org/oseg/ontologies/OTRL#softwareDescription&#45;&gt;http://purl.org/oseg/ontologies/OTRL#OTRL -->
<g id="edge16" class="edge">
<title>http://purl.org/oseg/ontologies/OTRL#softwareDescription&#45;&gt;http://purl.org/oseg/ontologies/OTRL#OTRL</title>
<path fill="none" stroke="black" d="M778.5,-269.95C721.17,-266.04 652.4,-261.36 607.04,-258.26"/>
<polygon fill="black" stroke="black" points="607.09,-254.76 596.88,-257.57 606.62,-261.74 607.09,-254.76"/>
<text text-anchor="middle" x="666.27" y="-267.91" font-family="Times,serif" font-size="14.00">domain</text>
</g>
<!-- http://purl.org/oseg/ontologies/OTRL#softwareDescription&#45;&gt;http://schema.org/Text -->
<g id="edge14" class="edge">
<title>http://purl.org/oseg/ontologies/OTRL#softwareDescription&#45;&gt;http://schema.org/Text</title>
<path fill="none" stroke="black" d="M890.06,-260.65C913.32,-217.39 976.74,-99.44 1004.63,-47.56"/>
<polygon fill="black" stroke="black" points="1007.76,-49.14 1009.41,-38.67 1001.59,-45.82 1007.76,-49.14"/>
<text text-anchor="middle" x="926.35" y="-157.91" font-family="Times,serif" font-size="14.00">range</text>
</g>
<!-- http://purl.org/oseg/ontologies/OTRL#ODRL&#45;3 -->
<g id="node26" class="node">
<title>http://purl.org/oseg/ontologies/OTRL#ODRL&#45;3</title>
<ellipse fill="none" stroke="#e377c2" cx="95.15" cy="-505.29" rx="50.82" ry="16.03"/>
<text text-anchor="middle" x="95.15" y="-501.59" font-family="Times,serif" font-size="14.00">ODRL&#45;3</text>
</g>
<!-- http://purl.org/oseg/ontologies/OTRL#ODRL&#45;3&#45;&gt;http://www.w3.org/2002/07/owl#class -->
<g id="edge19" class="edge">
<title>http://purl.org/oseg/ontologies/OTRL#ODRL&#45;3&#45;&gt;http://www.w3.org/2002/07/owl#class</title>
<path fill="none" stroke="black" d="M117.62,-490.39C158.15,-463.49 243.6,-406.8 289.73,-376.19"/>
<polygon fill="black" stroke="black" points="291.74,-379.05 298.14,-370.61 287.87,-373.22 291.74,-379.05"/>
<text text-anchor="middle" x="208.17" y="-437.09" font-family="Times,serif" font-size="14.00">a</text>
</g>
<!-- http://purl.org/oseg/ontologies/OTRL#ODRL&#45;3&#45;&gt;http://purl.org/oseg/ontologies/OTRL#ODRL -->
<g id="edge11" class="edge">
<title>http://purl.org/oseg/ontologies/OTRL#ODRL&#45;3&#45;&gt;http://purl.org/oseg/ontologies/OTRL#ODRL</title>
<path fill="none" stroke="black" d="M107.25,-489.26C115.44,-478.4 126.41,-463.85 135.61,-451.65"/>
<polygon fill="black" stroke="black" points="138.41,-453.75 141.64,-443.66 132.82,-449.53 138.41,-453.75"/>
</g>
</g>
</svg>
