<?xml version="1.0" encoding="UTF-8" standalone="no"?>
<!DOCTYPE svg PUBLIC "-//W3C//DTD SVG 1.1//EN"
 "http://www.w3.org/Graphics/SVG/1.1/DTD/svg11.dtd">
<!-- Generated by graphviz version 2.43.0 (0)
 -->
<!-- Title: G Pages: 1 -->
<svg width="1055pt" height="1135pt"
 viewBox="0.00 0.00 1054.76 1135.00" xmlns="http://www.w3.org/2000/svg" xmlns:xlink="http://www.w3.org/1999/xlink">
<g id="graph0" class="graph" transform="scale(1 1) rotate(0) translate(4 1131)">
<title>G</title>
<polygon fill="white" stroke="transparent" points="-4,4 -4,-1131 1050.76,-1131 1050.76,4 -4,4"/>
<!-- http://purl.org/oseg/ontologies/OTRL#ODRL -->
<g id="node1" class="node">
<title>http://purl.org/oseg/ontologies/OTRL#ODRL</title>
<ellipse fill="none" stroke="#e377c2" cx="215.79" cy="-122.33" rx="41.94" ry="16.03"/>
<text text-anchor="middle" x="215.79" y="-118.63" font-family="Times,serif" font-size="14.00">ODRL</text>
</g>
<!-- http://www.w3.org/2002/07/owl#class -->
<g id="node3" class="node">
<title>http://www.w3.org/2002/07/owl#class</title>
<ellipse fill="none" stroke="#1f77b4" cx="308.64" cy="-304.36" rx="57.05" ry="16.03"/>
<text text-anchor="middle" x="308.64" y="-300.66" font-family="Times,serif" font-size="14.00">owl:class</text>
</g>
<!-- http://purl.org/oseg/ontologies/OTRL#ODRL&#45;&gt;http://www.w3.org/2002/07/owl#class -->
<g id="edge9" class="edge">
<title>http://purl.org/oseg/ontologies/OTRL#ODRL&#45;&gt;http://www.w3.org/2002/07/owl#class</title>
<path fill="none" stroke="black" d="M224.03,-138.48C240.2,-170.19 276.22,-240.8 295.63,-278.87"/>
<polygon fill="black" stroke="black" points="292.75,-280.92 300.41,-288.24 298.99,-277.74 292.75,-280.92"/>
<text text-anchor="middle" x="255.33" y="-212.47" font-family="Times,serif" font-size="14.00">a</text>
</g>
<!-- http://www.w3.org/2002/07/owl#DatatypeProperty -->
<g id="node2" class="node">
<title>http://www.w3.org/2002/07/owl#DatatypeProperty</title>
<ellipse fill="none" stroke="#1f77b4" cx="823.24" cy="-1075.66" rx="123.07" ry="16.03"/>
<text text-anchor="middle" x="823.24" y="-1071.96" font-family="Times,serif" font-size="14.00">owl:DatatypeProperty</text>
</g>
<!-- http://purl.org/oseg/ontologies/OTRL#OTRL -->
<g id="node4" class="node">
<title>http://purl.org/oseg/ontologies/OTRL#OTRL</title>
<ellipse fill="none" stroke="#e377c2" cx="451.08" cy="-585.35" rx="39.7" ry="16.03"/>
<text text-anchor="middle" x="451.08" y="-581.65" font-family="Times,serif" font-size="14.00">OTRL</text>
</g>
<!-- http://purl.org/oseg/ontologies/OTRL#OTRL&#45;&gt;http://www.w3.org/2002/07/owl#class -->
<g id="edge13" class="edge">
<title>http://purl.org/oseg/ontologies/OTRL#OTRL&#45;&gt;http://www.w3.org/2002/07/owl#class</title>
<path fill="none" stroke="black" d="M442.81,-569.03C419.01,-522.08 350.25,-386.44 321.5,-329.74"/>
<polygon fill="black" stroke="black" points="324.58,-328.06 316.93,-320.73 318.33,-331.23 324.58,-328.06"/>
<text text-anchor="middle" x="377.65" y="-438.18" font-family="Times,serif" font-size="14.00">a</text>
</g>
<!-- http://www.w3.org/2002/07/owl#Ontology -->
<g id="node5" class="node">
<title>http://www.w3.org/2002/07/owl#Ontology</title>
<ellipse fill="none" stroke="#1f77b4" cx="717.32" cy="-598.47" rx="77.56" ry="16.03"/>
<text text-anchor="middle" x="717.32" y="-594.77" font-family="Times,serif" font-size="14.00">owl:Ontology</text>
</g>
<!-- http://purl.org/oseg/ontologies/OTRL#ODRL&#45;4 -->
<g id="node6" class="node">
<title>http://purl.org/oseg/ontologies/OTRL#ODRL&#45;4</title>
<ellipse fill="none" stroke="#e377c2" cx="407.84" cy="-68.6" rx="50.82" ry="16.03"/>
<text text-anchor="middle" x="407.84" y="-64.9" font-family="Times,serif" font-size="14.00">ODRL&#45;4</text>
</g>
<!-- http://purl.org/oseg/ontologies/OTRL#ODRL&#45;4&#45;&gt;http://purl.org/oseg/ontologies/OTRL#ODRL -->
<g id="edge27" class="edge">
<title>http://purl.org/oseg/ontologies/OTRL#ODRL&#45;4&#45;&gt;http://purl.org/oseg/ontologies/OTRL#ODRL</title>
<path fill="none" stroke="black" d="M369.43,-79.34C337.79,-88.2 292.89,-100.76 259.8,-110.01"/>
<polygon fill="black" stroke="black" points="258.63,-106.71 249.94,-112.77 260.51,-113.45 258.63,-106.71"/>
</g>
<!-- http://purl.org/oseg/ontologies/OTRL#ODRL&#45;4&#45;&gt;http://www.w3.org/2002/07/owl#class -->
<g id="edge28" class="edge">
<title>http://purl.org/oseg/ontologies/OTRL#ODRL&#45;4&#45;&gt;http://www.w3.org/2002/07/owl#class</title>
<path fill="none" stroke="black" d="M401.02,-84.81C384.06,-125.1 339.89,-230.07 319.39,-278.81"/>
<polygon fill="black" stroke="black" points="316.16,-277.47 315.5,-288.04 322.61,-280.18 316.16,-277.47"/>
<text text-anchor="middle" x="355.7" y="-185.61" font-family="Times,serif" font-size="14.00">a</text>
</g>
<!-- http://schema.org/Text -->
<g id="node7" class="node">
<title>http://schema.org/Text</title>
<ellipse fill="none" stroke="#e377c2" cx="612.31" cy="-1110.6" rx="74.91" ry="16.03"/>
<text text-anchor="middle" x="612.31" y="-1106.9" font-family="Times,serif" font-size="14.00">schema:Text</text>
</g>
<!-- http://purl.org/oseg/ontologies/OTRL#OTRL&#45;8 -->
<g id="node8" class="node">
<title>http://purl.org/oseg/ontologies/OTRL#OTRL&#45;8</title>
<ellipse fill="none" stroke="#e377c2" cx="279.52" cy="-469.98" rx="49.49" ry="16.03"/>
<text text-anchor="middle" x="279.52" y="-466.28" font-family="Times,serif" font-size="14.00">OTRL&#45;8</text>
</g>
<!-- http://purl.org/oseg/ontologies/OTRL#OTRL&#45;8&#45;&gt;http://www.w3.org/2002/07/owl#class -->
<g id="edge3" class="edge">
<title>http://purl.org/oseg/ontologies/OTRL#OTRL&#45;8&#45;&gt;http://www.w3.org/2002/07/owl#class</title>
<path fill="none" stroke="black" d="M282.41,-453.5C287.45,-424.85 297.86,-365.65 303.94,-331.07"/>
<polygon fill="black" stroke="black" points="307.46,-331.23 305.75,-320.78 300.57,-330.02 307.46,-331.23"/>
<text text-anchor="middle" x="288.68" y="-396.08" font-family="Times,serif" font-size="14.00">a</text>
</g>
<!-- http://purl.org/oseg/ontologies/OTRL#OTRL&#45;8&#45;&gt;http://purl.org/oseg/ontologies/OTRL#OTRL -->
<g id="edge38" class="edge">
<title>http://purl.org/oseg/ontologies/OTRL#OTRL&#45;8&#45;&gt;http://purl.org/oseg/ontologies/OTRL#OTRL</title>
<path fill="none" stroke="black" d="M301.59,-484.83C332.25,-505.44 387.77,-542.78 421.84,-565.69"/>
<polygon fill="black" stroke="black" points="420.17,-568.78 430.43,-571.46 424.08,-562.97 420.17,-568.78"/>
</g>
<!-- http://purl.org/oseg/ontologies/OTRL#ODRL&#45;2 -->
<g id="node9" class="node">
<title>http://purl.org/oseg/ontologies/OTRL#ODRL&#45;2</title>
<ellipse fill="none" stroke="#e377c2" cx="51.05" cy="-168.84" rx="50.82" ry="16.03"/>
<text text-anchor="middle" x="51.05" y="-165.14" font-family="Times,serif" font-size="14.00">ODRL&#45;2</text>
</g>
<!-- http://purl.org/oseg/ontologies/OTRL#ODRL&#45;2&#45;&gt;http://purl.org/oseg/ontologies/OTRL#ODRL -->
<g id="edge23" class="edge">
<title>http://purl.org/oseg/ontologies/OTRL#ODRL&#45;2&#45;&gt;http://purl.org/oseg/ontologies/OTRL#ODRL</title>
<path fill="none" stroke="black" d="M89.26,-158.05C114.01,-151.06 146.32,-141.94 172.09,-134.66"/>
<polygon fill="black" stroke="black" points="173.3,-137.96 181.98,-131.87 171.4,-131.22 173.3,-137.96"/>
</g>
<!-- http://purl.org/oseg/ontologies/OTRL#ODRL&#45;2&#45;&gt;http://www.w3.org/2002/07/owl#class -->
<g id="edge29" class="edge">
<title>http://purl.org/oseg/ontologies/OTRL#ODRL&#45;2&#45;&gt;http://www.w3.org/2002/07/owl#class</title>
<path fill="none" stroke="black" d="M77.65,-182.83C124.09,-207.27 220.01,-257.73 272.46,-285.32"/>
<polygon fill="black" stroke="black" points="270.93,-288.48 281.41,-290.04 274.19,-282.28 270.93,-288.48"/>
<text text-anchor="middle" x="170.55" y="-237.88" font-family="Times,serif" font-size="14.00">a</text>
</g>
<!-- http://purl.org/oseg/ontologies/OTRL#OTRL&#45;2 -->
<g id="node10" class="node">
<title>http://purl.org/oseg/ontologies/OTRL#OTRL&#45;2</title>
<ellipse fill="none" stroke="#e377c2" cx="561.23" cy="-331.47" rx="49.49" ry="16.03"/>
<text text-anchor="middle" x="561.23" y="-327.77" font-family="Times,serif" font-size="14.00">OTRL&#45;2</text>
</g>
<!-- http://purl.org/oseg/ontologies/OTRL#OTRL&#45;2&#45;&gt;http://www.w3.org/2002/07/owl#class -->
<g id="edge30" class="edge">
<title>http://purl.org/oseg/ontologies/OTRL#OTRL&#45;2&#45;&gt;http://www.w3.org/2002/07/owl#class</title>
<path fill="none" stroke="black" d="M514.01,-326.4C474.14,-322.12 416.67,-315.95 372.65,-311.23"/>
<polygon fill="black" stroke="black" points="372.95,-307.74 362.63,-310.15 372.2,-314.7 372.95,-307.74"/>
<text text-anchor="middle" x="438.83" y="-322.61" font-family="Times,serif" font-size="14.00">a</text>
</g>
<!-- http://purl.org/oseg/ontologies/OTRL#OTRL&#45;2&#45;&gt;http://purl.org/oseg/ontologies/OTRL#OTRL -->
<g id="edge8" class="edge">
<title>http://purl.org/oseg/ontologies/OTRL#OTRL&#45;2&#45;&gt;http://purl.org/oseg/ontologies/OTRL#OTRL</title>
<path fill="none" stroke="black" d="M554.17,-347.73C535.48,-390.81 484.59,-508.1 462.07,-560.03"/>
<polygon fill="black" stroke="black" points="458.85,-558.65 458.08,-569.22 465.27,-561.43 458.85,-558.65"/>
</g>
<!-- http://purl.org/oseg/ontologies/OTRL#ODRL&#45;3 -->
<g id="node11" class="node">
<title>http://purl.org/oseg/ontologies/OTRL#ODRL&#45;3</title>
<ellipse fill="none" stroke="#e377c2" cx="56.77" cy="-256.49" rx="50.82" ry="16.03"/>
<text text-anchor="middle" x="56.77" y="-252.79" font-family="Times,serif" font-size="14.00">ODRL&#45;3</text>
</g>
<!-- http://purl.org/oseg/ontologies/OTRL#ODRL&#45;3&#45;&gt;http://purl.org/oseg/ontologies/OTRL#ODRL -->
<g id="edge6" class="edge">
<title>http://purl.org/oseg/ontologies/OTRL#ODRL&#45;3&#45;&gt;http://purl.org/oseg/ontologies/OTRL#ODRL</title>
<path fill="none" stroke="black" d="M75.01,-241.1C103.44,-217.12 158.38,-170.76 190.58,-143.6"/>
<polygon fill="black" stroke="black" points="192.86,-146.25 198.24,-137.13 188.34,-140.9 192.86,-146.25"/>
</g>
<!-- http://purl.org/oseg/ontologies/OTRL#ODRL&#45;3&#45;&gt;http://www.w3.org/2002/07/owl#class -->
<g id="edge7" class="edge">
<title>http://purl.org/oseg/ontologies/OTRL#ODRL&#45;3&#45;&gt;http://www.w3.org/2002/07/owl#class</title>
<path fill="none" stroke="black" d="M100.65,-264.83C142.31,-272.75 205.21,-284.7 250.92,-293.39"/>
<polygon fill="black" stroke="black" points="250.51,-296.87 260.99,-295.3 251.81,-290 250.51,-296.87"/>
<text text-anchor="middle" x="171.28" y="-282.91" font-family="Times,serif" font-size="14.00">a</text>
</g>
<!-- http://purl.org/oseg/ontologies/OTRL#OTRL&#45;5 -->
<g id="node12" class="node">
<title>http://purl.org/oseg/ontologies/OTRL#OTRL&#45;5</title>
<ellipse fill="none" stroke="#e377c2" cx="443.3" cy="-372.42" rx="49.49" ry="16.03"/>
<text text-anchor="middle" x="443.3" y="-368.72" font-family="Times,serif" font-size="14.00">OTRL&#45;5</text>
</g>
<!-- http://purl.org/oseg/ontologies/OTRL#OTRL&#45;5&#45;&gt;http://www.w3.org/2002/07/owl#class -->
<g id="edge10" class="edge">
<title>http://purl.org/oseg/ontologies/OTRL#OTRL&#45;5&#45;&gt;http://www.w3.org/2002/07/owl#class</title>
<path fill="none" stroke="black" d="M416.05,-358.65C395.88,-348.45 368.15,-334.44 345.93,-323.2"/>
<polygon fill="black" stroke="black" points="347.28,-319.97 336.77,-318.58 344.12,-326.21 347.28,-319.97"/>
<text text-anchor="middle" x="376.49" y="-344.72" font-family="Times,serif" font-size="14.00">a</text>
</g>
<!-- http://purl.org/oseg/ontologies/OTRL#OTRL&#45;5&#45;&gt;http://purl.org/oseg/ontologies/OTRL#OTRL -->
<g id="edge33" class="edge">
<title>http://purl.org/oseg/ontologies/OTRL#OTRL&#45;5&#45;&gt;http://purl.org/oseg/ontologies/OTRL#OTRL</title>
<path fill="none" stroke="black" d="M443.9,-388.77C445.24,-425.39 448.48,-514.24 450.11,-558.86"/>
<polygon fill="black" stroke="black" points="446.62,-559.07 450.48,-568.94 453.61,-558.82 446.62,-559.07"/>
</g>
<!-- http://purl.org/oseg/ontologies/OTRL#OTRL&#45;4 -->
<g id="node13" class="node">
<title>http://purl.org/oseg/ontologies/OTRL#OTRL&#45;4</title>
<ellipse fill="none" stroke="#e377c2" cx="394.3" cy="-465.25" rx="49.49" ry="16.03"/>
<text text-anchor="middle" x="394.3" y="-461.55" font-family="Times,serif" font-size="14.00">OTRL&#45;4</text>
</g>
<!-- http://purl.org/oseg/ontologies/OTRL#OTRL&#45;4&#45;&gt;http://www.w3.org/2002/07/owl#class -->
<g id="edge32" class="edge">
<title>http://purl.org/oseg/ontologies/OTRL#OTRL&#45;4&#45;&gt;http://www.w3.org/2002/07/owl#class</title>
<path fill="none" stroke="black" d="M385.61,-448.94C370.67,-420.87 339.99,-363.25 322.21,-329.85"/>
<polygon fill="black" stroke="black" points="325.13,-327.9 317.34,-320.71 318.95,-331.19 325.13,-327.9"/>
<text text-anchor="middle" x="349.41" y="-393.19" font-family="Times,serif" font-size="14.00">a</text>
</g>
<!-- http://purl.org/oseg/ontologies/OTRL#OTRL&#45;4&#45;&gt;http://purl.org/oseg/ontologies/OTRL#OTRL -->
<g id="edge25" class="edge">
<title>http://purl.org/oseg/ontologies/OTRL#OTRL&#45;4&#45;&gt;http://purl.org/oseg/ontologies/OTRL#OTRL</title>
<path fill="none" stroke="black" d="M401.96,-481.45C411.48,-501.59 427.85,-536.22 439.06,-559.92"/>
<polygon fill="black" stroke="black" points="435.92,-561.48 443.36,-569.02 442.25,-558.49 435.92,-561.48"/>
</g>
<!-- http://purl.org/oseg/ontologies/OTRL#exitCriteria -->
<g id="node14" class="node">
<title>http://purl.org/oseg/ontologies/OTRL#exitCriteria</title>
<ellipse fill="none" stroke="#e377c2" cx="528.57" cy="-877.52" rx="70.01" ry="16.03"/>
<text text-anchor="middle" x="528.57" y="-873.82" font-family="Times,serif" font-size="14.00">exitCriteria</text>
</g>
<!-- http://purl.org/oseg/ontologies/OTRL#exitCriteria&#45;&gt;http://www.w3.org/2002/07/owl#DatatypeProperty -->
<g id="edge11" class="edge">
<title>http://purl.org/oseg/ontologies/OTRL#exitCriteria&#45;&gt;http://www.w3.org/2002/07/owl#DatatypeProperty</title>
<path fill="none" stroke="black" d="M551.7,-893.07C603.94,-928.2 731.19,-1013.76 791.08,-1054.03"/>
<polygon fill="black" stroke="black" points="789.16,-1056.96 799.41,-1059.63 793.06,-1051.15 789.16,-1056.96"/>
<text text-anchor="middle" x="666.89" y="-977.35" font-family="Times,serif" font-size="14.00">a</text>
</g>
<!-- http://purl.org/oseg/ontologies/OTRL#exitCriteria&#45;&gt;http://purl.org/oseg/ontologies/OTRL#OTRL -->
<g id="edge19" class="edge">
<title>http://purl.org/oseg/ontologies/OTRL#exitCriteria&#45;&gt;http://purl.org/oseg/ontologies/OTRL#OTRL</title>
<path fill="none" stroke="black" d="M524.18,-860.97C511.32,-812.46 473.61,-670.3 457.99,-611.38"/>
<polygon fill="black" stroke="black" points="461.37,-610.48 455.42,-601.71 454.6,-612.27 461.37,-610.48"/>
<text text-anchor="middle" x="464.59" y="-739.98" font-family="Times,serif" font-size="14.00">domain</text>
</g>
<!-- http://purl.org/oseg/ontologies/OTRL#exitCriteria&#45;&gt;http://schema.org/Text -->
<g id="edge20" class="edge">
<title>http://purl.org/oseg/ontologies/OTRL#exitCriteria&#45;&gt;http://schema.org/Text</title>
<path fill="none" stroke="black" d="M534.46,-893.91C548.82,-933.86 585.7,-1036.53 603.04,-1084.8"/>
<polygon fill="black" stroke="black" points="599.75,-1086 606.43,-1094.23 606.34,-1083.64 599.75,-1086"/>
<text text-anchor="middle" x="547.75" y="-993.15" font-family="Times,serif" font-size="14.00">range</text>
</g>
<!-- http://purl.org/oseg/ontologies/OTRL#hardwareDescription -->
<g id="node15" class="node">
<title>http://purl.org/oseg/ontologies/OTRL#hardwareDescription</title>
<ellipse fill="none" stroke="#e377c2" cx="726.59" cy="-790.42" rx="118.17" ry="16.03"/>
<text text-anchor="middle" x="726.59" y="-786.72" font-family="Times,serif" font-size="14.00">hardwareDescription</text>
</g>
<!-- http://purl.org/oseg/ontologies/OTRL#hardwareDescription&#45;&gt;http://www.w3.org/2002/07/owl#DatatypeProperty -->
<g id="edge12" class="edge">
<title>http://purl.org/oseg/ontologies/OTRL#hardwareDescription&#45;&gt;http://www.w3.org/2002/07/owl#DatatypeProperty</title>
<path fill="none" stroke="black" d="M732.2,-806.99C748.32,-854.56 794.84,-991.85 814.41,-1049.59"/>
<polygon fill="black" stroke="black" points="811.21,-1051.05 817.73,-1059.4 817.84,-1048.81 811.21,-1051.05"/>
<text text-anchor="middle" x="768.81" y="-932.09" font-family="Times,serif" font-size="14.00">a</text>
</g>
<!-- http://purl.org/oseg/ontologies/OTRL#hardwareDescription&#45;&gt;http://purl.org/oseg/ontologies/OTRL#OTRL -->
<g id="edge31" class="edge">
<title>http://purl.org/oseg/ontologies/OTRL#hardwareDescription&#45;&gt;http://purl.org/oseg/ontologies/OTRL#OTRL</title>
<path fill="none" stroke="black" d="M704.97,-774.33C655.36,-737.4 533.41,-646.63 478.57,-605.81"/>
<polygon fill="black" stroke="black" points="480.48,-602.87 470.37,-599.71 476.3,-608.48 480.48,-602.87"/>
<text text-anchor="middle" x="565.27" y="-693.87" font-family="Times,serif" font-size="14.00">domain</text>
</g>
<!-- http://purl.org/oseg/ontologies/OTRL#hardwareDescription&#45;&gt;http://schema.org/Text -->
<g id="edge5" class="edge">
<title>http://purl.org/oseg/ontologies/OTRL#hardwareDescription&#45;&gt;http://schema.org/Text</title>
<path fill="none" stroke="black" d="M720.77,-806.74C702.2,-858.76 644.28,-1021.03 621.58,-1084.65"/>
<polygon fill="black" stroke="black" points="618.19,-1083.72 618.12,-1094.32 624.78,-1086.08 618.19,-1083.72"/>
<text text-anchor="middle" x="650.17" y="-949.49" font-family="Times,serif" font-size="14.00">range</text>
</g>
<!-- http://purl.org/oseg/ontologies/OTRL#OTRL&#45;6 -->
<g id="node16" class="node">
<title>http://purl.org/oseg/ontologies/OTRL#OTRL&#45;6</title>
<ellipse fill="none" stroke="#e377c2" cx="322.35" cy="-568.81" rx="49.49" ry="16.03"/>
<text text-anchor="middle" x="322.35" y="-565.11" font-family="Times,serif" font-size="14.00">OTRL&#45;6</text>
</g>
<!-- http://purl.org/oseg/ontologies/OTRL#OTRL&#45;6&#45;&gt;http://www.w3.org/2002/07/owl#class -->
<g id="edge35" class="edge">
<title>http://purl.org/oseg/ontologies/OTRL#OTRL&#45;6&#45;&gt;http://www.w3.org/2002/07/owl#class</title>
<path fill="none" stroke="black" d="M321.49,-552.27C319.18,-507.84 312.85,-385.59 310.02,-331.14"/>
<polygon fill="black" stroke="black" points="313.51,-330.7 309.49,-320.9 306.52,-331.06 313.51,-330.7"/>
<text text-anchor="middle" x="311.26" y="-430.5" font-family="Times,serif" font-size="14.00">a</text>
</g>
<!-- http://purl.org/oseg/ontologies/OTRL#OTRL&#45;6&#45;&gt;http://purl.org/oseg/ontologies/OTRL#OTRL -->
<g id="edge15" class="edge">
<title>http://purl.org/oseg/ontologies/OTRL#OTRL&#45;6&#45;&gt;http://purl.org/oseg/ontologies/OTRL#OTRL</title>
<path fill="none" stroke="black" d="M368.46,-574.74C379.62,-576.17 391.57,-577.7 402.83,-579.15"/>
<polygon fill="black" stroke="black" points="402.56,-582.64 412.92,-580.45 403.45,-575.7 402.56,-582.64"/>
</g>
<!-- http://purl.org/oseg/ontologies/OTRL#ODRL&#45;0 -->
<g id="node17" class="node">
<title>http://purl.org/oseg/ontologies/OTRL#ODRL&#45;0</title>
<ellipse fill="none" stroke="#e377c2" cx="225.65" cy="-16.1" rx="50.82" ry="16.03"/>
<text text-anchor="middle" x="225.65" y="-12.4" font-family="Times,serif" font-size="14.00">ODRL&#45;0</text>
</g>
<!-- http://purl.org/oseg/ontologies/OTRL#ODRL&#45;0&#45;&gt;http://purl.org/oseg/ontologies/OTRL#ODRL -->
<g id="edge34" class="edge">
<title>http://purl.org/oseg/ontologies/OTRL#ODRL&#45;0&#45;&gt;http://purl.org/oseg/ontologies/OTRL#ODRL</title>
<path fill="none" stroke="black" d="M224.11,-32.7C222.55,-49.54 220.1,-75.86 218.26,-95.64"/>
<polygon fill="black" stroke="black" points="214.76,-95.56 217.32,-105.84 221.73,-96.21 214.76,-95.56"/>
</g>
<!-- http://purl.org/oseg/ontologies/OTRL#ODRL&#45;0&#45;&gt;http://www.w3.org/2002/07/owl#class -->
<g id="edge36" class="edge">
<title>http://purl.org/oseg/ontologies/OTRL#ODRL&#45;0&#45;&gt;http://www.w3.org/2002/07/owl#class</title>
<path fill="none" stroke="black" d="M230.35,-32.42C244.07,-80.08 284.15,-219.31 301.02,-277.9"/>
<polygon fill="black" stroke="black" points="297.76,-279.21 303.89,-287.86 304.48,-277.28 297.76,-279.21"/>
<text text-anchor="middle" x="261.18" y="-158.96" font-family="Times,serif" font-size="14.00">a</text>
</g>
<!-- http://purl.org/oseg/ontologies/OTRL#OTRL&#45;3 -->
<g id="node18" class="node">
<title>http://purl.org/oseg/ontologies/OTRL#OTRL&#45;3</title>
<ellipse fill="none" stroke="#e377c2" cx="571.02" cy="-393.32" rx="49.49" ry="16.03"/>
<text text-anchor="middle" x="571.02" y="-389.62" font-family="Times,serif" font-size="14.00">OTRL&#45;3</text>
</g>
<!-- http://purl.org/oseg/ontologies/OTRL#OTRL&#45;3&#45;&gt;http://www.w3.org/2002/07/owl#class -->
<g id="edge14" class="edge">
<title>http://purl.org/oseg/ontologies/OTRL#OTRL&#45;3&#45;&gt;http://www.w3.org/2002/07/owl#class</title>
<path fill="none" stroke="black" d="M536.45,-381.59C490.04,-365.86 407.43,-337.85 355.47,-320.24"/>
<polygon fill="black" stroke="black" points="356.42,-316.86 345.83,-316.97 354.17,-323.49 356.42,-316.86"/>
<text text-anchor="middle" x="441.46" y="-339.72" font-family="Times,serif" font-size="14.00">a</text>
</g>
<!-- http://purl.org/oseg/ontologies/OTRL#OTRL&#45;3&#45;&gt;http://purl.org/oseg/ontologies/OTRL#OTRL -->
<g id="edge4" class="edge">
<title>http://purl.org/oseg/ontologies/OTRL#OTRL&#45;3&#45;&gt;http://purl.org/oseg/ontologies/OTRL#OTRL</title>
<path fill="none" stroke="black" d="M561,-409.36C540,-442.98 491.27,-521 466.35,-560.9"/>
<polygon fill="black" stroke="black" points="463.32,-559.15 460.99,-569.49 469.25,-562.86 463.32,-559.15"/>
</g>
<!-- http://purl.org/oseg/ontologies/OTRL -->
<g id="node19" class="node">
<title>http://purl.org/oseg/ontologies/OTRL</title>
<ellipse fill="none" stroke="#e377c2" cx="864.95" cy="-576.42" rx="60.62" ry="16.03"/>
<text text-anchor="middle" x="864.95" y="-572.72" font-family="Times,serif" font-size="14.00">ns1:OTRL</text>
</g>
<!-- http://purl.org/oseg/ontologies/OTRL&#45;&gt;http://www.w3.org/2002/07/owl#Ontology -->
<g id="edge16" class="edge">
<title>http://purl.org/oseg/ontologies/OTRL&#45;&gt;http://www.w3.org/2002/07/owl#Ontology</title>
<path fill="none" stroke="black" d="M811.65,-584.38C804.94,-585.38 797.98,-586.42 791.02,-587.46"/>
<polygon fill="black" stroke="black" points="790.22,-584.04 780.85,-588.98 791.26,-590.96 790.22,-584.04"/>
<text text-anchor="middle" x="799.08" y="-574.72" font-family="Times,serif" font-size="14.00">a</text>
</g>
<!-- http://purl.org/oseg/ontologies/OTRL&#45;&gt;http://purl.org/oseg/ontologies/OTRL -->
<g id="edge37" class="edge">
<title>http://purl.org/oseg/ontologies/OTRL&#45;&gt;http://purl.org/oseg/ontologies/OTRL</title>
<path fill="none" stroke="black" d="M920.55,-583.05C933.89,-582.53 943.76,-580.32 943.76,-576.42 943.76,-573.58 938.55,-571.64 930.58,-570.59"/>
<polygon fill="black" stroke="black" points="930.8,-567.1 920.55,-569.78 930.24,-574.07 930.8,-567.1"/>
<text text-anchor="middle" x="995.26" y="-572.72" font-family="Times,serif" font-size="14.00">owl:versionIRI</text>
</g>
<!-- http://purl.org/oseg/ontologies/OTRL#ODRL&#45;1 -->
<g id="node20" class="node">
<title>http://purl.org/oseg/ontologies/OTRL#ODRL&#45;1</title>
<ellipse fill="none" stroke="#e377c2" cx="103.55" cy="-83.24" rx="50.82" ry="16.03"/>
<text text-anchor="middle" x="103.55" y="-79.54" font-family="Times,serif" font-size="14.00">ODRL&#45;1</text>
</g>
<!-- http://purl.org/oseg/ontologies/OTRL#ODRL&#45;1&#45;&gt;http://purl.org/oseg/ontologies/OTRL#ODRL -->
<g id="edge17" class="edge">
<title>http://purl.org/oseg/ontologies/OTRL#ODRL&#45;1&#45;&gt;http://purl.org/oseg/ontologies/OTRL#ODRL</title>
<path fill="none" stroke="black" d="M138.14,-95.29C149.83,-99.36 162.99,-103.94 175.1,-108.16"/>
<polygon fill="black" stroke="black" points="173.96,-111.46 184.55,-111.45 176.26,-104.85 173.96,-111.46"/>
</g>
<!-- http://purl.org/oseg/ontologies/OTRL#ODRL&#45;1&#45;&gt;http://www.w3.org/2002/07/owl#class -->
<g id="edge18" class="edge">
<title>http://purl.org/oseg/ontologies/OTRL#ODRL&#45;1&#45;&gt;http://www.w3.org/2002/07/owl#class</title>
<path fill="none" stroke="black" d="M118.3,-99.14C154,-137.63 245.18,-235.94 287.04,-281.07"/>
<polygon fill="black" stroke="black" points="284.65,-283.65 294.02,-288.6 289.79,-278.89 284.65,-283.65"/>
<text text-anchor="middle" x="198.17" y="-193.91" font-family="Times,serif" font-size="14.00">a</text>
</g>
<!-- http://purl.org/oseg/ontologies/OTRL#OTRL&#45;1 -->
<g id="node21" class="node">
<title>http://purl.org/oseg/ontologies/OTRL#OTRL&#45;1</title>
<ellipse fill="none" stroke="#e377c2" cx="524.41" cy="-450.59" rx="49.49" ry="16.03"/>
<text text-anchor="middle" x="524.41" y="-446.89" font-family="Times,serif" font-size="14.00">OTRL&#45;1</text>
</g>
<!-- http://purl.org/oseg/ontologies/OTRL#OTRL&#45;1&#45;&gt;http://www.w3.org/2002/07/owl#class -->
<g id="edge21" class="edge">
<title>http://purl.org/oseg/ontologies/OTRL#OTRL&#45;1&#45;&gt;http://www.w3.org/2002/07/owl#class</title>
<path fill="none" stroke="black" d="M502.54,-435.77C463.86,-409.56 383.36,-355 339.21,-325.08"/>
<polygon fill="black" stroke="black" points="341.14,-322.16 330.89,-319.44 337.21,-327.95 341.14,-322.16"/>
<text text-anchor="middle" x="416.38" y="-384.22" font-family="Times,serif" font-size="14.00">a</text>
</g>
<!-- http://purl.org/oseg/ontologies/OTRL#OTRL&#45;1&#45;&gt;http://purl.org/oseg/ontologies/OTRL#OTRL -->
<g id="edge40" class="edge">
<title>http://purl.org/oseg/ontologies/OTRL#OTRL&#45;1&#45;&gt;http://purl.org/oseg/ontologies/OTRL#OTRL</title>
<path fill="none" stroke="black" d="M515.57,-466.85C502.89,-490.14 479.45,-533.21 464.6,-560.51"/>
<polygon fill="black" stroke="black" points="461.44,-559 459.73,-569.45 467.58,-562.34 461.44,-559"/>
</g>
<!-- http://purl.org/oseg/ontologies/OTRL#OTRL&#45;7 -->
<g id="node22" class="node">
<title>http://purl.org/oseg/ontologies/OTRL#OTRL&#45;7</title>
<ellipse fill="none" stroke="#e377c2" cx="193.22" cy="-511.38" rx="49.49" ry="16.03"/>
<text text-anchor="middle" x="193.22" y="-507.68" font-family="Times,serif" font-size="14.00">OTRL&#45;7</text>
</g>
<!-- http://purl.org/oseg/ontologies/OTRL#OTRL&#45;7&#45;&gt;http://www.w3.org/2002/07/owl#class -->
<g id="edge24" class="edge">
<title>http://purl.org/oseg/ontologies/OTRL#OTRL&#45;7&#45;&gt;http://www.w3.org/2002/07/owl#class</title>
<path fill="none" stroke="black" d="M202.28,-495.14C222.34,-459.16 270.62,-372.54 294.62,-329.5"/>
<polygon fill="black" stroke="black" points="297.81,-330.97 299.62,-320.53 291.7,-327.56 297.81,-330.97"/>
<text text-anchor="middle" x="243.95" y="-416.12" font-family="Times,serif" font-size="14.00">a</text>
</g>
<!-- http://purl.org/oseg/ontologies/OTRL#OTRL&#45;7&#45;&gt;http://purl.org/oseg/ontologies/OTRL#OTRL -->
<g id="edge44" class="edge">
<title>http://purl.org/oseg/ontologies/OTRL#OTRL&#45;7&#45;&gt;http://purl.org/oseg/ontologies/OTRL#OTRL</title>
<path fill="none" stroke="black" d="M230.72,-522.14C278.02,-535.71 359.16,-558.98 408.68,-573.18"/>
<polygon fill="black" stroke="black" points="407.86,-576.59 418.44,-575.99 409.79,-569.86 407.86,-576.59"/>
</g>
<!-- http://purl.org/oseg/ontologies/OTRL#documentationDescription -->
<g id="node23" class="node">
<title>http://purl.org/oseg/ontologies/OTRL#documentationDescription</title>
<ellipse fill="none" stroke="#e377c2" cx="461.48" cy="-933.61" rx="120.83" ry="16.03"/>
<text text-anchor="middle" x="461.48" y="-929.91" font-family="Times,serif" font-size="14.00">documentationDesc...</text>
</g>
<!-- http://purl.org/oseg/ontologies/OTRL#documentationDescription&#45;&gt;http://www.w3.org/2002/07/owl#DatatypeProperty -->
<g id="edge41" class="edge">
<title>http://purl.org/oseg/ontologies/OTRL#documentationDescription&#45;&gt;http://www.w3.org/2002/07/owl#DatatypeProperty</title>
<path fill="none" stroke="black" d="M500.88,-949.08C567.48,-975.23 702.11,-1028.09 774.52,-1056.53"/>
<polygon fill="black" stroke="black" points="773.3,-1059.81 783.89,-1060.21 775.86,-1053.29 773.3,-1059.81"/>
<text text-anchor="middle" x="633.2" y="-1006.6" font-family="Times,serif" font-size="14.00">a</text>
</g>
<!-- http://purl.org/oseg/ontologies/OTRL#documentationDescription&#45;&gt;http://purl.org/oseg/ontologies/OTRL#OTRL -->
<g id="edge1" class="edge">
<title>http://purl.org/oseg/ontologies/OTRL#documentationDescription&#45;&gt;http://purl.org/oseg/ontologies/OTRL#OTRL</title>
<path fill="none" stroke="black" d="M460.99,-917.28C459.34,-861.86 453.93,-680.65 451.88,-612.02"/>
<polygon fill="black" stroke="black" points="455.36,-611.53 451.57,-601.64 448.37,-611.74 455.36,-611.53"/>
<text text-anchor="middle" x="429.93" y="-768.45" font-family="Times,serif" font-size="14.00">domain</text>
</g>
<!-- http://purl.org/oseg/ontologies/OTRL#documentationDescription&#45;&gt;http://schema.org/Text -->
<g id="edge2" class="edge">
<title>http://purl.org/oseg/ontologies/OTRL#documentationDescription&#45;&gt;http://schema.org/Text</title>
<path fill="none" stroke="black" d="M475.4,-949.94C502.18,-981.37 560.98,-1050.36 592.09,-1086.87"/>
<polygon fill="black" stroke="black" points="589.49,-1089.22 598.64,-1094.57 594.82,-1084.68 589.49,-1089.22"/>
<text text-anchor="middle" x="512.74" y="-1022.2" font-family="Times,serif" font-size="14.00">range</text>
</g>
<!-- http://purl.org/oseg/ontologies/OTRL#softwareDescription -->
<g id="node24" class="node">
<title>http://purl.org/oseg/ontologies/OTRL#softwareDescription</title>
<ellipse fill="none" stroke="#e377c2" cx="673.5" cy="-836.78" rx="113.69" ry="16.03"/>
<text text-anchor="middle" x="673.5" y="-833.08" font-family="Times,serif" font-size="14.00">softwareDescription</text>
</g>
<!-- http://purl.org/oseg/ontologies/OTRL#softwareDescription&#45;&gt;http://www.w3.org/2002/07/owl#DatatypeProperty -->
<g id="edge43" class="edge">
<title>http://purl.org/oseg/ontologies/OTRL#softwareDescription&#45;&gt;http://www.w3.org/2002/07/owl#DatatypeProperty</title>
<path fill="none" stroke="black" d="M683.79,-853.2C709.55,-894.3 776.94,-1001.8 807.62,-1050.74"/>
<polygon fill="black" stroke="black" points="804.8,-1052.83 813.08,-1059.44 810.73,-1049.11 804.8,-1052.83"/>
<text text-anchor="middle" x="741.21" y="-955.77" font-family="Times,serif" font-size="14.00">a</text>
</g>
<!-- http://purl.org/oseg/ontologies/OTRL#softwareDescription&#45;&gt;http://purl.org/oseg/ontologies/OTRL#OTRL -->
<g id="edge22" class="edge">
<title>http://purl.org/oseg/ontologies/OTRL#softwareDescription&#45;&gt;http://purl.org/oseg/ontologies/OTRL#OTRL</title>
<path fill="none" stroke="black" d="M658.91,-820.28C620.46,-776.82 516.27,-659.04 471.73,-608.69"/>
<polygon fill="black" stroke="black" points="474.12,-606.1 464.87,-600.93 468.87,-610.74 474.12,-606.1"/>
<text text-anchor="middle" x="538.82" y="-718.29" font-family="Times,serif" font-size="14.00">domain</text>
</g>
<!-- http://purl.org/oseg/ontologies/OTRL#softwareDescription&#45;&gt;http://schema.org/Text -->
<g id="edge39" class="edge">
<title>http://purl.org/oseg/ontologies/OTRL#softwareDescription&#45;&gt;http://schema.org/Text</title>
<path fill="none" stroke="black" d="M669.86,-853.09C659.66,-898.73 630.75,-1028.09 618.22,-1084.15"/>
<polygon fill="black" stroke="black" points="614.78,-1083.51 616.01,-1094.03 621.61,-1085.04 614.78,-1083.51"/>
<text text-anchor="middle" x="623.04" y="-972.42" font-family="Times,serif" font-size="14.00">range</text>
</g>
<!-- http://purl.org/oseg/ontologies/OTRL#ODRL&#45;5 -->
<g id="node25" class="node">
<title>http://purl.org/oseg/ontologies/OTRL#ODRL&#45;5</title>
<ellipse fill="none" stroke="#e377c2" cx="346.46" cy="-19.09" rx="50.82" ry="16.03"/>
<text text-anchor="middle" x="346.46" y="-15.39" font-family="Times,serif" font-size="14.00">ODRL&#45;5</text>
</g>
<!-- http://purl.org/oseg/ontologies/OTRL#ODRL&#45;5&#45;&gt;http://purl.org/oseg/ontologies/OTRL#ODRL -->
<g id="edge42" class="edge">
<title>http://purl.org/oseg/ontologies/OTRL#ODRL&#45;5&#45;&gt;http://purl.org/oseg/ontologies/OTRL#ODRL</title>
<path fill="none" stroke="black" d="M327.18,-34.32C304.73,-52.06 267.51,-81.46 242.34,-101.35"/>
<polygon fill="black" stroke="black" points="239.98,-98.75 234.3,-107.7 244.32,-104.25 239.98,-98.75"/>
</g>
<!-- http://purl.org/oseg/ontologies/OTRL#ODRL&#45;5&#45;&gt;http://www.w3.org/2002/07/owl#class -->
<g id="edge45" class="edge">
<title>http://purl.org/oseg/ontologies/OTRL#ODRL&#45;5&#45;&gt;http://www.w3.org/2002/07/owl#class</title>
<path fill="none" stroke="black" d="M344.27,-35.66C337.97,-83.14 319.83,-219.97 312.14,-277.92"/>
<polygon fill="black" stroke="black" points="308.64,-277.72 310.79,-288.1 315.58,-278.64 308.64,-277.72"/>
<text text-anchor="middle" x="323.7" y="-160.59" font-family="Times,serif" font-size="14.00">a</text>
</g>
<!-- http://purl.org/oseg/ontologies/OTRL#OTRL&#45;9 -->
<g id="node26" class="node">
<title>http://purl.org/oseg/ontologies/OTRL#OTRL&#45;9</title>
<ellipse fill="none" stroke="#e377c2" cx="202.51" cy="-573.78" rx="49.49" ry="16.03"/>
<text text-anchor="middle" x="202.51" y="-570.08" font-family="Times,serif" font-size="14.00">OTRL&#45;9</text>
</g>
<!-- http://purl.org/oseg/ontologies/OTRL#OTRL&#45;9&#45;&gt;http://www.w3.org/2002/07/owl#class -->
<g id="edge46" class="edge">
<title>http://purl.org/oseg/ontologies/OTRL#OTRL&#45;9&#45;&gt;http://www.w3.org/2002/07/owl#class</title>
<path fill="none" stroke="black" d="M208.99,-557.33C226.87,-511.94 276.99,-384.69 298.56,-329.93"/>
<polygon fill="black" stroke="black" points="301.83,-331.18 302.24,-320.59 295.32,-328.61 301.83,-331.18"/>
<text text-anchor="middle" x="249.28" y="-432.43" font-family="Times,serif" font-size="14.00">a</text>
</g>
<!-- http://purl.org/oseg/ontologies/OTRL#OTRL&#45;9&#45;&gt;http://purl.org/oseg/ontologies/OTRL#OTRL -->
<g id="edge26" class="edge">
<title>http://purl.org/oseg/ontologies/OTRL#OTRL&#45;9&#45;&gt;http://purl.org/oseg/ontologies/OTRL#OTRL</title>
<path fill="none" stroke="black" d="M251.62,-576.06C294.98,-578.08 357.88,-581.01 401.41,-583.04"/>
<polygon fill="black" stroke="black" points="401.33,-586.54 411.48,-583.5 401.65,-579.54 401.33,-586.54"/>
</g>
</g>
</svg>
