<?xml version="1.0" encoding="UTF-8" standalone="no"?>
<!DOCTYPE svg PUBLIC "-//W3C//DTD SVG 1.1//EN"
 "http://www.w3.org/Graphics/SVG/1.1/DTD/svg11.dtd">
<!-- Generated by graphviz version 2.43.0 (0)
 -->
<!-- Title: G Pages: 1 -->
<svg width="1063pt" height="1071pt"
 viewBox="0.00 0.00 1062.76 1071.00" xmlns="http://www.w3.org/2000/svg" xmlns:xlink="http://www.w3.org/1999/xlink">
<g id="graph0" class="graph" transform="scale(1 1) rotate(0) translate(4 1067)">
<title>G</title>
<polygon fill="white" stroke="transparent" points="-4,4 -4,-1067 1058.76,-1067 1058.76,4 -4,4"/>
<!-- http://purl.org/oseg/ontologies/OTRL#OTRL -->
<g id="node1" class="node">
<title>http://purl.org/oseg/ontologies/OTRL#OTRL</title>
<ellipse fill="none" stroke="#e377c2" cx="529.98" cy="-505.18" rx="39.7" ry="16.03"/>
<text text-anchor="middle" x="529.98" y="-501.48" font-family="Times,serif" font-size="14.00">OTRL</text>
</g>
<!-- http://www.w3.org/2002/07/owl#class -->
<g id="node2" class="node">
<title>http://www.w3.org/2002/07/owl#class</title>
<ellipse fill="none" stroke="#1f77b4" cx="704.62" cy="-757.04" rx="57.05" ry="16.03"/>
<text text-anchor="middle" x="704.62" y="-753.34" font-family="Times,serif" font-size="14.00">owl:class</text>
</g>
<!-- http://purl.org/oseg/ontologies/OTRL#OTRL&#45;&gt;http://www.w3.org/2002/07/owl#class -->
<g id="edge16" class="edge">
<title>http://purl.org/oseg/ontologies/OTRL#OTRL&#45;&gt;http://www.w3.org/2002/07/owl#class</title>
<path fill="none" stroke="black" d="M540.9,-520.94C570.42,-563.51 651.93,-681.06 687.57,-732.46"/>
<polygon fill="black" stroke="black" points="684.9,-734.74 693.47,-740.97 690.65,-730.75 684.9,-734.74"/>
<text text-anchor="middle" x="618.74" y="-630.5" font-family="Times,serif" font-size="14.00">a</text>
</g>
<!-- http://www.w3.org/2002/07/owl#DatatypeProperty -->
<g id="node3" class="node">
<title>http://www.w3.org/2002/07/owl#DatatypeProperty</title>
<ellipse fill="none" stroke="#1f77b4" cx="122.65" cy="-243.74" rx="123.07" ry="16.03"/>
<text text-anchor="middle" x="122.65" y="-240.04" font-family="Times,serif" font-size="14.00">owl:DatatypeProperty</text>
</g>
<!-- http://purl.org/oseg/ontologies/OTRL#ODRL -->
<g id="node4" class="node">
<title>http://purl.org/oseg/ontologies/OTRL#ODRL</title>
<ellipse fill="none" stroke="#e377c2" cx="825.58" cy="-912.27" rx="41.94" ry="16.03"/>
<text text-anchor="middle" x="825.58" y="-908.57" font-family="Times,serif" font-size="14.00">ODRL</text>
</g>
<!-- http://purl.org/oseg/ontologies/OTRL#ODRL&#45;&gt;http://www.w3.org/2002/07/owl#class -->
<g id="edge14" class="edge">
<title>http://purl.org/oseg/ontologies/OTRL#ODRL&#45;&gt;http://www.w3.org/2002/07/owl#class</title>
<path fill="none" stroke="black" d="M813.31,-896.53C792.14,-869.36 748.6,-813.48 723.53,-781.31"/>
<polygon fill="black" stroke="black" points="726.19,-779.02 717.28,-773.29 720.66,-783.32 726.19,-779.02"/>
<text text-anchor="middle" x="763.92" y="-842.72" font-family="Times,serif" font-size="14.00">a</text>
</g>
<!-- http://www.w3.org/2002/07/owl#Ontology -->
<g id="node5" class="node">
<title>http://www.w3.org/2002/07/owl#Ontology</title>
<ellipse fill="none" stroke="#1f77b4" cx="725.32" cy="-362.47" rx="77.56" ry="16.03"/>
<text text-anchor="middle" x="725.32" y="-358.77" font-family="Times,serif" font-size="14.00">owl:Ontology</text>
</g>
<!-- http://purl.org/oseg/ontologies/OTRL#exitCriteria -->
<g id="node6" class="node">
<title>http://purl.org/oseg/ontologies/OTRL#exitCriteria</title>
<ellipse fill="none" stroke="#e377c2" cx="467.08" cy="-233.29" rx="70.01" ry="16.03"/>
<text text-anchor="middle" x="467.08" y="-229.59" font-family="Times,serif" font-size="14.00">exitCriteria</text>
</g>
<!-- http://purl.org/oseg/ontologies/OTRL#exitCriteria&#45;&gt;http://purl.org/oseg/ontologies/OTRL#OTRL -->
<g id="edge29" class="edge">
<title>http://purl.org/oseg/ontologies/OTRL#exitCriteria&#45;&gt;http://purl.org/oseg/ontologies/OTRL#OTRL</title>
<path fill="none" stroke="black" d="M470.92,-249.89C481.49,-295.6 511.1,-423.59 523.93,-479.03"/>
<polygon fill="black" stroke="black" points="520.52,-479.85 526.19,-488.8 527.34,-478.27 520.52,-479.85"/>
<text text-anchor="middle" x="470.92" y="-368.26" font-family="Times,serif" font-size="14.00">domain</text>
</g>
<!-- http://purl.org/oseg/ontologies/OTRL#exitCriteria&#45;&gt;http://www.w3.org/2002/07/owl#DatatypeProperty -->
<g id="edge1" class="edge">
<title>http://purl.org/oseg/ontologies/OTRL#exitCriteria&#45;&gt;http://www.w3.org/2002/07/owl#DatatypeProperty</title>
<path fill="none" stroke="black" d="M397.38,-235.41C355.91,-236.67 301.97,-238.3 252.88,-239.79"/>
<polygon fill="black" stroke="black" points="252.7,-236.29 242.81,-240.1 252.91,-243.29 252.7,-236.29"/>
<text text-anchor="middle" x="320.63" y="-241.4" font-family="Times,serif" font-size="14.00">a</text>
</g>
<!-- http://schema.org/Text -->
<g id="node8" class="node">
<title>http://schema.org/Text</title>
<ellipse fill="none" stroke="#e377c2" cx="276.93" cy="-16.53" rx="74.91" ry="16.03"/>
<text text-anchor="middle" x="276.93" y="-12.83" font-family="Times,serif" font-size="14.00">schema:Text</text>
</g>
<!-- http://purl.org/oseg/ontologies/OTRL#exitCriteria&#45;&gt;http://schema.org/Text -->
<g id="edge9" class="edge">
<title>http://purl.org/oseg/ontologies/OTRL#exitCriteria&#45;&gt;http://schema.org/Text</title>
<path fill="none" stroke="black" d="M453.1,-217.36C420.08,-179.71 337.09,-85.11 297.97,-40.51"/>
<polygon fill="black" stroke="black" points="300.42,-38 291.19,-32.79 295.16,-42.61 300.42,-38"/>
<text text-anchor="middle" x="354.53" y="-132.73" font-family="Times,serif" font-size="14.00">range</text>
</g>
<!-- http://purl.org/oseg/ontologies/OTRL#ODRL&#45;0 -->
<g id="node7" class="node">
<title>http://purl.org/oseg/ontologies/OTRL#ODRL&#45;0</title>
<ellipse fill="none" stroke="#e377c2" cx="927.37" cy="-936.85" rx="50.82" ry="16.03"/>
<text text-anchor="middle" x="927.37" y="-933.15" font-family="Times,serif" font-size="14.00">ODRL&#45;0</text>
</g>
<!-- http://purl.org/oseg/ontologies/OTRL#ODRL&#45;0&#45;&gt;http://www.w3.org/2002/07/owl#class -->
<g id="edge2" class="edge">
<title>http://purl.org/oseg/ontologies/OTRL#ODRL&#45;0&#45;&gt;http://www.w3.org/2002/07/owl#class</title>
<path fill="none" stroke="black" d="M908.38,-921.52C868.86,-889.62 777.66,-816 731.88,-779.04"/>
<polygon fill="black" stroke="black" points="733.86,-776.14 723.88,-772.59 729.46,-781.59 733.86,-776.14"/>
<text text-anchor="middle" x="815.63" y="-854.08" font-family="Times,serif" font-size="14.00">a</text>
</g>
<!-- http://purl.org/oseg/ontologies/OTRL#ODRL&#45;0&#45;&gt;http://purl.org/oseg/ontologies/OTRL#ODRL -->
<g id="edge22" class="edge">
<title>http://purl.org/oseg/ontologies/OTRL#ODRL&#45;0&#45;&gt;http://purl.org/oseg/ontologies/OTRL#ODRL</title>
<path fill="none" stroke="black" d="M886.55,-926.99C881.43,-925.76 876.16,-924.49 870.98,-923.23"/>
<polygon fill="black" stroke="black" points="871.69,-919.81 861.15,-920.86 870.05,-926.61 871.69,-919.81"/>
</g>
<!-- http://purl.org/oseg/ontologies/OTRL#OTRL&#45;4 -->
<g id="node9" class="node">
<title>http://purl.org/oseg/ontologies/OTRL#OTRL&#45;4</title>
<ellipse fill="none" stroke="#e377c2" cx="705.1" cy="-459.19" rx="49.49" ry="16.03"/>
<text text-anchor="middle" x="705.1" y="-455.49" font-family="Times,serif" font-size="14.00">OTRL&#45;4</text>
</g>
<!-- http://purl.org/oseg/ontologies/OTRL#OTRL&#45;4&#45;&gt;http://purl.org/oseg/ontologies/OTRL#OTRL -->
<g id="edge37" class="edge">
<title>http://purl.org/oseg/ontologies/OTRL#OTRL&#45;4&#45;&gt;http://purl.org/oseg/ontologies/OTRL#OTRL</title>
<path fill="none" stroke="black" d="M666.23,-469.4C638.65,-476.64 601.62,-486.37 573.12,-493.85"/>
<polygon fill="black" stroke="black" points="572.21,-490.47 563.42,-496.4 573.99,-497.24 572.21,-490.47"/>
</g>
<!-- http://purl.org/oseg/ontologies/OTRL#OTRL&#45;4&#45;&gt;http://www.w3.org/2002/07/owl#class -->
<g id="edge3" class="edge">
<title>http://purl.org/oseg/ontologies/OTRL#OTRL&#45;4&#45;&gt;http://www.w3.org/2002/07/owl#class</title>
<path fill="none" stroke="black" d="M705.07,-475.63C704.99,-524.65 704.76,-670.16 704.66,-730.43"/>
<polygon fill="black" stroke="black" points="701.16,-730.65 704.65,-740.65 708.16,-730.66 701.16,-730.65"/>
<text text-anchor="middle" x="700.37" y="-606.83" font-family="Times,serif" font-size="14.00">a</text>
</g>
<!-- http://purl.org/oseg/ontologies/OTRL#OTRL&#45;1 -->
<g id="node10" class="node">
<title>http://purl.org/oseg/ontologies/OTRL#OTRL&#45;1</title>
<ellipse fill="none" stroke="#e377c2" cx="669.42" cy="-536.01" rx="49.49" ry="16.03"/>
<text text-anchor="middle" x="669.42" y="-532.31" font-family="Times,serif" font-size="14.00">OTRL&#45;1</text>
</g>
<!-- http://purl.org/oseg/ontologies/OTRL#OTRL&#45;1&#45;&gt;http://purl.org/oseg/ontologies/OTRL#OTRL -->
<g id="edge13" class="edge">
<title>http://purl.org/oseg/ontologies/OTRL#OTRL&#45;1&#45;&gt;http://purl.org/oseg/ontologies/OTRL#OTRL</title>
<path fill="none" stroke="black" d="M628.33,-526.93C611.54,-523.21 592.07,-518.91 574.91,-515.12"/>
<polygon fill="black" stroke="black" points="575.63,-511.69 565.11,-512.95 574.12,-518.53 575.63,-511.69"/>
</g>
<!-- http://purl.org/oseg/ontologies/OTRL#OTRL&#45;1&#45;&gt;http://www.w3.org/2002/07/owl#class -->
<g id="edge27" class="edge">
<title>http://purl.org/oseg/ontologies/OTRL#OTRL&#45;1&#45;&gt;http://www.w3.org/2002/07/owl#class</title>
<path fill="none" stroke="black" d="M672,-552.26C678.03,-590.1 693.05,-684.38 700.41,-730.62"/>
<polygon fill="black" stroke="black" points="697,-731.44 702.03,-740.76 703.91,-730.34 697,-731.44"/>
<text text-anchor="middle" x="681.71" y="-645.24" font-family="Times,serif" font-size="14.00">a</text>
</g>
<!-- http://purl.org/oseg/ontologies/OTRL#ODRL&#45;1 -->
<g id="node11" class="node">
<title>http://purl.org/oseg/ontologies/OTRL#ODRL&#45;1</title>
<ellipse fill="none" stroke="#e377c2" cx="964.88" cy="-842.85" rx="50.82" ry="16.03"/>
<text text-anchor="middle" x="964.88" y="-839.15" font-family="Times,serif" font-size="14.00">ODRL&#45;1</text>
</g>
<!-- http://purl.org/oseg/ontologies/OTRL#ODRL&#45;1&#45;&gt;http://www.w3.org/2002/07/owl#class -->
<g id="edge28" class="edge">
<title>http://purl.org/oseg/ontologies/OTRL#ODRL&#45;1&#45;&gt;http://www.w3.org/2002/07/owl#class</title>
<path fill="none" stroke="black" d="M929.24,-831.09C883.3,-815.95 803.26,-789.56 752.17,-772.72"/>
<polygon fill="black" stroke="black" points="752.95,-769.29 742.36,-769.48 750.76,-775.94 752.95,-769.29"/>
<text text-anchor="middle" x="836.2" y="-805.71" font-family="Times,serif" font-size="14.00">a</text>
</g>
<!-- http://purl.org/oseg/ontologies/OTRL#ODRL&#45;1&#45;&gt;http://purl.org/oseg/ontologies/OTRL#ODRL -->
<g id="edge45" class="edge">
<title>http://purl.org/oseg/ontologies/OTRL#ODRL&#45;1&#45;&gt;http://purl.org/oseg/ontologies/OTRL#ODRL</title>
<path fill="none" stroke="black" d="M937.36,-856.56C915.38,-867.52 884.43,-882.94 860.67,-894.78"/>
<polygon fill="black" stroke="black" points="859.02,-891.69 851.63,-899.29 862.14,-897.96 859.02,-891.69"/>
</g>
<!-- http://purl.org/oseg/ontologies/OTRL#OTRL&#45;9 -->
<g id="node12" class="node">
<title>http://purl.org/oseg/ontologies/OTRL#OTRL&#45;9</title>
<ellipse fill="none" stroke="#e377c2" cx="566.09" cy="-721.17" rx="49.49" ry="16.03"/>
<text text-anchor="middle" x="566.09" y="-717.47" font-family="Times,serif" font-size="14.00">OTRL&#45;9</text>
</g>
<!-- http://purl.org/oseg/ontologies/OTRL#OTRL&#45;9&#45;&gt;http://purl.org/oseg/ontologies/OTRL#OTRL -->
<g id="edge17" class="edge">
<title>http://purl.org/oseg/ontologies/OTRL#OTRL&#45;9&#45;&gt;http://purl.org/oseg/ontologies/OTRL#OTRL</title>
<path fill="none" stroke="black" d="M563.31,-704.58C557.08,-667.27 541.9,-576.49 534.37,-531.44"/>
<polygon fill="black" stroke="black" points="537.81,-530.82 532.71,-521.53 530.91,-531.97 537.81,-530.82"/>
</g>
<!-- http://purl.org/oseg/ontologies/OTRL#OTRL&#45;9&#45;&gt;http://www.w3.org/2002/07/owl#class -->
<g id="edge31" class="edge">
<title>http://purl.org/oseg/ontologies/OTRL#OTRL&#45;9&#45;&gt;http://www.w3.org/2002/07/owl#class</title>
<path fill="none" stroke="black" d="M605.04,-731.26C619.62,-735.03 636.42,-739.38 652.03,-743.42"/>
<polygon fill="black" stroke="black" points="651.51,-746.9 662.07,-746.02 653.27,-740.13 651.51,-746.9"/>
<text text-anchor="middle" x="624.04" y="-741.14" font-family="Times,serif" font-size="14.00">a</text>
</g>
<!-- http://purl.org/oseg/ontologies/OTRL -->
<g id="node13" class="node">
<title>http://purl.org/oseg/ontologies/OTRL</title>
<ellipse fill="none" stroke="#e377c2" cx="872.95" cy="-340.42" rx="60.62" ry="16.03"/>
<text text-anchor="middle" x="872.95" y="-336.72" font-family="Times,serif" font-size="14.00">ns1:OTRL</text>
</g>
<!-- http://purl.org/oseg/ontologies/OTRL&#45;&gt;http://www.w3.org/2002/07/owl#Ontology -->
<g id="edge8" class="edge">
<title>http://purl.org/oseg/ontologies/OTRL&#45;&gt;http://www.w3.org/2002/07/owl#Ontology</title>
<path fill="none" stroke="black" d="M819.65,-348.38C812.94,-349.38 805.98,-350.42 799.02,-351.46"/>
<polygon fill="black" stroke="black" points="798.22,-348.04 788.85,-352.98 799.26,-354.96 798.22,-348.04"/>
<text text-anchor="middle" x="807.08" y="-338.72" font-family="Times,serif" font-size="14.00">a</text>
</g>
<!-- http://purl.org/oseg/ontologies/OTRL&#45;&gt;http://purl.org/oseg/ontologies/OTRL -->
<g id="edge11" class="edge">
<title>http://purl.org/oseg/ontologies/OTRL&#45;&gt;http://purl.org/oseg/ontologies/OTRL</title>
<path fill="none" stroke="black" d="M928.55,-347.05C941.89,-346.53 951.76,-344.32 951.76,-340.42 951.76,-337.58 946.55,-335.64 938.58,-334.59"/>
<polygon fill="black" stroke="black" points="938.8,-331.1 928.55,-333.78 938.24,-338.07 938.8,-331.1"/>
<text text-anchor="middle" x="1003.26" y="-336.72" font-family="Times,serif" font-size="14.00">owl:versionIRI</text>
</g>
<!-- http://purl.org/oseg/ontologies/OTRL#ODRL&#45;4 -->
<g id="node14" class="node">
<title>http://purl.org/oseg/ontologies/OTRL#ODRL&#45;4</title>
<ellipse fill="none" stroke="#e377c2" cx="630.28" cy="-992.74" rx="50.82" ry="16.03"/>
<text text-anchor="middle" x="630.28" y="-989.04" font-family="Times,serif" font-size="14.00">ODRL&#45;4</text>
</g>
<!-- http://purl.org/oseg/ontologies/OTRL#ODRL&#45;4&#45;&gt;http://www.w3.org/2002/07/owl#class -->
<g id="edge34" class="edge">
<title>http://purl.org/oseg/ontologies/OTRL#ODRL&#45;4&#45;&gt;http://www.w3.org/2002/07/owl#class</title>
<path fill="none" stroke="black" d="M635.39,-976.54C648.04,-936.43 680.92,-832.19 696.37,-783.2"/>
<polygon fill="black" stroke="black" points="699.8,-783.94 699.47,-773.35 693.13,-781.84 699.8,-783.94"/>
<text text-anchor="middle" x="661.38" y="-883.67" font-family="Times,serif" font-size="14.00">a</text>
</g>
<!-- http://purl.org/oseg/ontologies/OTRL#ODRL&#45;4&#45;&gt;http://purl.org/oseg/ontologies/OTRL#ODRL -->
<g id="edge20" class="edge">
<title>http://purl.org/oseg/ontologies/OTRL#ODRL&#45;4&#45;&gt;http://purl.org/oseg/ontologies/OTRL#ODRL</title>
<path fill="none" stroke="black" d="M661.65,-979.81C695.9,-965.7 750.74,-943.11 787.44,-927.98"/>
<polygon fill="black" stroke="black" points="788.91,-931.16 796.82,-924.12 786.24,-924.69 788.91,-931.16"/>
</g>
<!-- http://purl.org/oseg/ontologies/OTRL#OTRL&#45;2 -->
<g id="node15" class="node">
<title>http://purl.org/oseg/ontologies/OTRL#OTRL&#45;2</title>
<ellipse fill="none" stroke="#e377c2" cx="771.96" cy="-578.49" rx="49.49" ry="16.03"/>
<text text-anchor="middle" x="771.96" y="-574.79" font-family="Times,serif" font-size="14.00">OTRL&#45;2</text>
</g>
<!-- http://purl.org/oseg/ontologies/OTRL#OTRL&#45;2&#45;&gt;http://purl.org/oseg/ontologies/OTRL#OTRL -->
<g id="edge43" class="edge">
<title>http://purl.org/oseg/ontologies/OTRL#OTRL&#45;2&#45;&gt;http://purl.org/oseg/ontologies/OTRL#OTRL</title>
<path fill="none" stroke="black" d="M735.47,-567.44C691.56,-554.13 617.98,-531.84 571.81,-517.86"/>
<polygon fill="black" stroke="black" points="572.7,-514.47 562.11,-514.92 570.67,-521.17 572.7,-514.47"/>
</g>
<!-- http://purl.org/oseg/ontologies/OTRL#OTRL&#45;2&#45;&gt;http://www.w3.org/2002/07/owl#class -->
<g id="edge10" class="edge">
<title>http://purl.org/oseg/ontologies/OTRL#OTRL&#45;2&#45;&gt;http://www.w3.org/2002/07/owl#class</title>
<path fill="none" stroke="black" d="M765.87,-594.65C754.18,-625.64 728.52,-693.68 714.4,-731.1"/>
<polygon fill="black" stroke="black" points="711,-730.2 710.75,-740.79 717.55,-732.67 711,-730.2"/>
<text text-anchor="middle" x="735.64" y="-666.68" font-family="Times,serif" font-size="14.00">a</text>
</g>
<!-- http://purl.org/oseg/ontologies/OTRL#OTRL&#45;8 -->
<g id="node16" class="node">
<title>http://purl.org/oseg/ontologies/OTRL#OTRL&#45;8</title>
<ellipse fill="none" stroke="#e377c2" cx="570.71" cy="-619.89" rx="49.49" ry="16.03"/>
<text text-anchor="middle" x="570.71" y="-616.19" font-family="Times,serif" font-size="14.00">OTRL&#45;8</text>
</g>
<!-- http://purl.org/oseg/ontologies/OTRL#OTRL&#45;8&#45;&gt;http://purl.org/oseg/ontologies/OTRL#OTRL -->
<g id="edge23" class="edge">
<title>http://purl.org/oseg/ontologies/OTRL#OTRL&#45;8&#45;&gt;http://purl.org/oseg/ontologies/OTRL#OTRL</title>
<path fill="none" stroke="black" d="M564.87,-603.45C558.16,-584.55 547.05,-553.25 539.17,-531.06"/>
<polygon fill="black" stroke="black" points="542.45,-529.84 535.8,-521.59 535.85,-532.18 542.45,-529.84"/>
</g>
<!-- http://purl.org/oseg/ontologies/OTRL#OTRL&#45;8&#45;&gt;http://www.w3.org/2002/07/owl#class -->
<g id="edge12" class="edge">
<title>http://purl.org/oseg/ontologies/OTRL#OTRL&#45;8&#45;&gt;http://www.w3.org/2002/07/owl#class</title>
<path fill="none" stroke="black" d="M586.07,-635.62C609.56,-659.68 654.53,-705.74 681.83,-733.7"/>
<polygon fill="black" stroke="black" points="679.53,-736.36 689.02,-741.07 684.54,-731.47 679.53,-736.36"/>
<text text-anchor="middle" x="629.45" y="-688.46" font-family="Times,serif" font-size="14.00">a</text>
</g>
<!-- http://purl.org/oseg/ontologies/OTRL#ODRL&#45;3 -->
<g id="node17" class="node">
<title>http://purl.org/oseg/ontologies/OTRL#ODRL&#45;3</title>
<ellipse fill="none" stroke="#e377c2" cx="836.98" cy="-1024.57" rx="50.82" ry="16.03"/>
<text text-anchor="middle" x="836.98" y="-1020.87" font-family="Times,serif" font-size="14.00">ODRL&#45;3</text>
</g>
<!-- http://purl.org/oseg/ontologies/OTRL#ODRL&#45;3&#45;&gt;http://www.w3.org/2002/07/owl#class -->
<g id="edge36" class="edge">
<title>http://purl.org/oseg/ontologies/OTRL#ODRL&#45;3&#45;&gt;http://www.w3.org/2002/07/owl#class</title>
<path fill="none" stroke="black" d="M828.9,-1008.24C806.6,-963.17 744.08,-836.8 717.18,-782.44"/>
<polygon fill="black" stroke="black" points="720.17,-780.57 712.59,-773.16 713.89,-783.67 720.17,-780.57"/>
<text text-anchor="middle" x="768.54" y="-899.14" font-family="Times,serif" font-size="14.00">a</text>
</g>
<!-- http://purl.org/oseg/ontologies/OTRL#ODRL&#45;3&#45;&gt;http://purl.org/oseg/ontologies/OTRL#ODRL -->
<g id="edge40" class="edge">
<title>http://purl.org/oseg/ontologies/OTRL#ODRL&#45;3&#45;&gt;http://purl.org/oseg/ontologies/OTRL#ODRL</title>
<path fill="none" stroke="black" d="M835.3,-1008C833.44,-989.73 830.43,-960.09 828.25,-938.63"/>
<polygon fill="black" stroke="black" points="831.72,-938.14 827.23,-928.54 824.76,-938.85 831.72,-938.14"/>
</g>
<!-- http://purl.org/oseg/ontologies/OTRL#softwareDescription -->
<g id="node18" class="node">
<title>http://purl.org/oseg/ontologies/OTRL#softwareDescription</title>
<ellipse fill="none" stroke="#e377c2" cx="456.33" cy="-170.14" rx="113.69" ry="16.03"/>
<text text-anchor="middle" x="456.33" y="-166.44" font-family="Times,serif" font-size="14.00">softwareDescription</text>
</g>
<!-- http://purl.org/oseg/ontologies/OTRL#softwareDescription&#45;&gt;http://purl.org/oseg/ontologies/OTRL#OTRL -->
<g id="edge5" class="edge">
<title>http://purl.org/oseg/ontologies/OTRL#softwareDescription&#45;&gt;http://purl.org/oseg/ontologies/OTRL#OTRL</title>
<path fill="none" stroke="black" d="M459.98,-186.75C471.89,-240.91 509.64,-412.66 524.18,-478.83"/>
<polygon fill="black" stroke="black" points="520.82,-479.85 526.39,-488.86 527.66,-478.35 520.82,-479.85"/>
<text text-anchor="middle" x="465.58" y="-336.59" font-family="Times,serif" font-size="14.00">domain</text>
</g>
<!-- http://purl.org/oseg/ontologies/OTRL#softwareDescription&#45;&gt;http://www.w3.org/2002/07/owl#DatatypeProperty -->
<g id="edge15" class="edge">
<title>http://purl.org/oseg/ontologies/OTRL#softwareDescription&#45;&gt;http://www.w3.org/2002/07/owl#DatatypeProperty</title>
<path fill="none" stroke="black" d="M394.35,-183.81C338.23,-196.19 255.49,-214.44 196.07,-227.55"/>
<polygon fill="black" stroke="black" points="195.01,-224.19 186,-229.77 196.52,-231.03 195.01,-224.19"/>
<text text-anchor="middle" x="290.71" y="-209.48" font-family="Times,serif" font-size="14.00">a</text>
</g>
<!-- http://purl.org/oseg/ontologies/OTRL#softwareDescription&#45;&gt;http://schema.org/Text -->
<g id="edge35" class="edge">
<title>http://purl.org/oseg/ontologies/OTRL#softwareDescription&#45;&gt;http://schema.org/Text</title>
<path fill="none" stroke="black" d="M437.47,-153.99C405.35,-126.49 339.98,-70.51 303.33,-39.14"/>
<polygon fill="black" stroke="black" points="305.41,-36.31 295.54,-32.46 300.86,-41.63 305.41,-36.31"/>
<text text-anchor="middle" x="349.4" y="-100.36" font-family="Times,serif" font-size="14.00">range</text>
</g>
<!-- http://purl.org/oseg/ontologies/OTRL#hardwareDescription -->
<g id="node19" class="node">
<title>http://purl.org/oseg/ontologies/OTRL#hardwareDescription</title>
<ellipse fill="none" stroke="#e377c2" cx="385.7" cy="-277.1" rx="118.17" ry="16.03"/>
<text text-anchor="middle" x="385.7" y="-273.4" font-family="Times,serif" font-size="14.00">hardwareDescription</text>
</g>
<!-- http://purl.org/oseg/ontologies/OTRL#hardwareDescription&#45;&gt;http://purl.org/oseg/ontologies/OTRL#OTRL -->
<g id="edge32" class="edge">
<title>http://purl.org/oseg/ontologies/OTRL#hardwareDescription&#45;&gt;http://purl.org/oseg/ontologies/OTRL#OTRL</title>
<path fill="none" stroke="black" d="M396.07,-293.5C421.09,-333.05 484.85,-433.84 514.44,-480.63"/>
<polygon fill="black" stroke="black" points="511.58,-482.65 519.89,-489.23 517.5,-478.91 511.58,-482.65"/>
<text text-anchor="middle" x="428.76" y="-390.87" font-family="Times,serif" font-size="14.00">domain</text>
</g>
<!-- http://purl.org/oseg/ontologies/OTRL#hardwareDescription&#45;&gt;http://www.w3.org/2002/07/owl#DatatypeProperty -->
<g id="edge38" class="edge">
<title>http://purl.org/oseg/ontologies/OTRL#hardwareDescription&#45;&gt;http://www.w3.org/2002/07/owl#DatatypeProperty</title>
<path fill="none" stroke="black" d="M298.47,-266.04C273.78,-262.91 246.74,-259.48 221.42,-256.27"/>
<polygon fill="black" stroke="black" points="221.8,-252.79 211.44,-255 220.92,-259.73 221.8,-252.79"/>
<text text-anchor="middle" x="255.45" y="-264.95" font-family="Times,serif" font-size="14.00">a</text>
</g>
<!-- http://purl.org/oseg/ontologies/OTRL#hardwareDescription&#45;&gt;http://schema.org/Text -->
<g id="edge26" class="edge">
<title>http://purl.org/oseg/ontologies/OTRL#hardwareDescription&#45;&gt;http://schema.org/Text</title>
<path fill="none" stroke="black" d="M378.89,-260.8C360.54,-216.84 309.92,-95.56 287.67,-42.25"/>
<polygon fill="black" stroke="black" points="290.82,-40.7 283.73,-32.82 284.36,-43.4 290.82,-40.7"/>
<text text-anchor="middle" x="312.28" y="-155.32" font-family="Times,serif" font-size="14.00">range</text>
</g>
<!-- http://purl.org/oseg/ontologies/OTRL#OTRL&#45;7 -->
<g id="node20" class="node">
<title>http://purl.org/oseg/ontologies/OTRL#OTRL&#45;7</title>
<ellipse fill="none" stroke="#e377c2" cx="448.58" cy="-640.01" rx="49.49" ry="16.03"/>
<text text-anchor="middle" x="448.58" y="-636.31" font-family="Times,serif" font-size="14.00">OTRL&#45;7</text>
</g>
<!-- http://purl.org/oseg/ontologies/OTRL#OTRL&#45;7&#45;&gt;http://purl.org/oseg/ontologies/OTRL#OTRL -->
<g id="edge6" class="edge">
<title>http://purl.org/oseg/ontologies/OTRL#OTRL&#45;7&#45;&gt;http://purl.org/oseg/ontologies/OTRL#OTRL</title>
<path fill="none" stroke="black" d="M458.23,-624.02C472.31,-600.7 498.58,-557.19 515.12,-529.78"/>
<polygon fill="black" stroke="black" points="518.16,-531.53 520.33,-521.16 512.17,-527.91 518.16,-531.53"/>
</g>
<!-- http://purl.org/oseg/ontologies/OTRL#OTRL&#45;7&#45;&gt;http://www.w3.org/2002/07/owl#class -->
<g id="edge19" class="edge">
<title>http://purl.org/oseg/ontologies/OTRL#OTRL&#45;7&#45;&gt;http://www.w3.org/2002/07/owl#class</title>
<path fill="none" stroke="black" d="M477.95,-653.44C523.95,-674.46 613.07,-715.19 664.8,-738.84"/>
<polygon fill="black" stroke="black" points="663.45,-742.07 674,-743.05 666.36,-735.71 663.45,-742.07"/>
<text text-anchor="middle" x="566.87" y="-684.94" font-family="Times,serif" font-size="14.00">a</text>
</g>
<!-- http://purl.org/oseg/ontologies/OTRL#OTRL&#45;3 -->
<g id="node21" class="node">
<title>http://purl.org/oseg/ontologies/OTRL#OTRL&#45;3</title>
<ellipse fill="none" stroke="#e377c2" cx="420.78" cy="-708.22" rx="49.49" ry="16.03"/>
<text text-anchor="middle" x="420.78" y="-704.52" font-family="Times,serif" font-size="14.00">OTRL&#45;3</text>
</g>
<!-- http://purl.org/oseg/ontologies/OTRL#OTRL&#45;3&#45;&gt;http://purl.org/oseg/ontologies/OTRL#OTRL -->
<g id="edge18" class="edge">
<title>http://purl.org/oseg/ontologies/OTRL#OTRL&#45;3&#45;&gt;http://purl.org/oseg/ontologies/OTRL#OTRL</title>
<path fill="none" stroke="black" d="M429.53,-691.95C448.55,-656.59 493.75,-572.55 516.46,-530.32"/>
<polygon fill="black" stroke="black" points="519.68,-531.72 521.33,-521.25 513.52,-528.4 519.68,-531.72"/>
</g>
<!-- http://purl.org/oseg/ontologies/OTRL#OTRL&#45;3&#45;&gt;http://www.w3.org/2002/07/owl#class -->
<g id="edge41" class="edge">
<title>http://purl.org/oseg/ontologies/OTRL#OTRL&#45;3&#45;&gt;http://www.w3.org/2002/07/owl#class</title>
<path fill="none" stroke="black" d="M464.82,-715.79C513.24,-724.12 591.3,-737.55 645.13,-746.81"/>
<polygon fill="black" stroke="black" points="644.78,-750.3 655.22,-748.54 645.96,-743.4 644.78,-750.3"/>
<text text-anchor="middle" x="550.47" y="-735.1" font-family="Times,serif" font-size="14.00">a</text>
</g>
<!-- http://purl.org/oseg/ontologies/OTRL#OTRL&#45;5 -->
<g id="node22" class="node">
<title>http://purl.org/oseg/ontologies/OTRL#OTRL&#45;5</title>
<ellipse fill="none" stroke="#e377c2" cx="456.32" cy="-765.11" rx="49.49" ry="16.03"/>
<text text-anchor="middle" x="456.32" y="-761.41" font-family="Times,serif" font-size="14.00">OTRL&#45;5</text>
</g>
<!-- http://purl.org/oseg/ontologies/OTRL#OTRL&#45;5&#45;&gt;http://purl.org/oseg/ontologies/OTRL#OTRL -->
<g id="edge42" class="edge">
<title>http://purl.org/oseg/ontologies/OTRL#OTRL&#45;5&#45;&gt;http://purl.org/oseg/ontologies/OTRL#OTRL</title>
<path fill="none" stroke="black" d="M460.93,-748.85C473.33,-705.09 507.49,-584.53 522.61,-531.17"/>
<polygon fill="black" stroke="black" points="526.01,-532.01 525.37,-521.44 519.28,-530.1 526.01,-532.01"/>
</g>
<!-- http://purl.org/oseg/ontologies/OTRL#OTRL&#45;5&#45;&gt;http://www.w3.org/2002/07/owl#class -->
<g id="edge44" class="edge">
<title>http://purl.org/oseg/ontologies/OTRL#OTRL&#45;5&#45;&gt;http://www.w3.org/2002/07/owl#class</title>
<path fill="none" stroke="black" d="M505.67,-763.51C543.43,-762.28 595.91,-760.58 637.49,-759.22"/>
<polygon fill="black" stroke="black" points="637.65,-762.72 647.53,-758.9 637.43,-755.72 637.65,-762.72"/>
<text text-anchor="middle" x="567.08" y="-765.17" font-family="Times,serif" font-size="14.00">a</text>
</g>
<!-- http://purl.org/oseg/ontologies/OTRL#OTRL&#45;6 -->
<g id="node23" class="node">
<title>http://purl.org/oseg/ontologies/OTRL#OTRL&#45;6</title>
<ellipse fill="none" stroke="#e377c2" cx="790.75" cy="-504.02" rx="49.49" ry="16.03"/>
<text text-anchor="middle" x="790.75" y="-500.32" font-family="Times,serif" font-size="14.00">OTRL&#45;6</text>
</g>
<!-- http://purl.org/oseg/ontologies/OTRL#OTRL&#45;6&#45;&gt;http://purl.org/oseg/ontologies/OTRL#OTRL -->
<g id="edge39" class="edge">
<title>http://purl.org/oseg/ontologies/OTRL#OTRL&#45;6&#45;&gt;http://purl.org/oseg/ontologies/OTRL#OTRL</title>
<path fill="none" stroke="black" d="M741.09,-504.24C694.79,-504.45 626.1,-504.76 579.76,-504.96"/>
<polygon fill="black" stroke="black" points="579.64,-501.46 569.65,-505.01 579.67,-508.46 579.64,-501.46"/>
</g>
<!-- http://purl.org/oseg/ontologies/OTRL#OTRL&#45;6&#45;&gt;http://www.w3.org/2002/07/owl#class -->
<g id="edge21" class="edge">
<title>http://purl.org/oseg/ontologies/OTRL#OTRL&#45;6&#45;&gt;http://www.w3.org/2002/07/owl#class</title>
<path fill="none" stroke="black" d="M785.23,-520.23C770.68,-562.98 731.18,-679.01 713.45,-731.11"/>
<polygon fill="black" stroke="black" points="710.11,-730.04 710.2,-740.64 716.74,-732.3 710.11,-730.04"/>
<text text-anchor="middle" x="744.84" y="-629.47" font-family="Times,serif" font-size="14.00">a</text>
</g>
<!-- http://purl.org/oseg/ontologies/OTRL#ODRL&#45;5 -->
<g id="node24" class="node">
<title>http://purl.org/oseg/ontologies/OTRL#ODRL&#45;5</title>
<ellipse fill="none" stroke="#e377c2" cx="948.91" cy="-759.15" rx="50.82" ry="16.03"/>
<text text-anchor="middle" x="948.91" y="-755.45" font-family="Times,serif" font-size="14.00">ODRL&#45;5</text>
</g>
<!-- http://purl.org/oseg/ontologies/OTRL#ODRL&#45;5&#45;&gt;http://www.w3.org/2002/07/owl#class -->
<g id="edge24" class="edge">
<title>http://purl.org/oseg/ontologies/OTRL#ODRL&#45;5&#45;&gt;http://www.w3.org/2002/07/owl#class</title>
<path fill="none" stroke="black" d="M897.99,-758.71C861.46,-758.39 811.86,-757.96 772.04,-757.62"/>
<polygon fill="black" stroke="black" points="771.91,-754.12 761.88,-757.53 771.85,-761.12 771.91,-754.12"/>
<text text-anchor="middle" x="830.52" y="-761.96" font-family="Times,serif" font-size="14.00">a</text>
</g>
<!-- http://purl.org/oseg/ontologies/OTRL#ODRL&#45;5&#45;&gt;http://purl.org/oseg/ontologies/OTRL#ODRL -->
<g id="edge30" class="edge">
<title>http://purl.org/oseg/ontologies/OTRL#ODRL&#45;5&#45;&gt;http://purl.org/oseg/ontologies/OTRL#ODRL</title>
<path fill="none" stroke="black" d="M936.17,-774.96C914.48,-801.89 870.23,-856.82 844.77,-888.44"/>
<polygon fill="black" stroke="black" points="841.97,-886.33 838.43,-896.32 847.42,-890.72 841.97,-886.33"/>
</g>
<!-- http://purl.org/oseg/ontologies/OTRL#ODRL&#45;2 -->
<g id="node25" class="node">
<title>http://purl.org/oseg/ontologies/OTRL#ODRL&#45;2</title>
<ellipse fill="none" stroke="#e377c2" cx="720.09" cy="-1046.63" rx="50.82" ry="16.03"/>
<text text-anchor="middle" x="720.09" y="-1042.93" font-family="Times,serif" font-size="14.00">ODRL&#45;2</text>
</g>
<!-- http://purl.org/oseg/ontologies/OTRL#ODRL&#45;2&#45;&gt;http://www.w3.org/2002/07/owl#class -->
<g id="edge25" class="edge">
<title>http://purl.org/oseg/ontologies/OTRL#ODRL&#45;2&#45;&gt;http://www.w3.org/2002/07/owl#class</title>
<path fill="none" stroke="black" d="M719.21,-1030.23C716.66,-982.36 709.18,-842.48 706.04,-783.63"/>
<polygon fill="black" stroke="black" points="709.53,-783.42 705.5,-773.62 702.54,-783.79 709.53,-783.42"/>
<text text-anchor="middle" x="708.13" y="-910.73" font-family="Times,serif" font-size="14.00">a</text>
</g>
<!-- http://purl.org/oseg/ontologies/OTRL#ODRL&#45;2&#45;&gt;http://purl.org/oseg/ontologies/OTRL#ODRL -->
<g id="edge7" class="edge">
<title>http://purl.org/oseg/ontologies/OTRL#ODRL&#45;2&#45;&gt;http://purl.org/oseg/ontologies/OTRL#ODRL</title>
<path fill="none" stroke="black" d="M732.6,-1030.69C751,-1007.26 785.48,-963.34 806.89,-936.08"/>
<polygon fill="black" stroke="black" points="809.66,-938.22 813.08,-928.19 804.15,-933.89 809.66,-938.22"/>
</g>
<!-- http://purl.org/oseg/ontologies/OTRL#documentationDescription -->
<g id="node26" class="node">
<title>http://purl.org/oseg/ontologies/OTRL#documentationDescription</title>
<ellipse fill="none" stroke="#e377c2" cx="186.2" cy="-318.44" rx="120.83" ry="16.03"/>
<text text-anchor="middle" x="186.2" y="-314.74" font-family="Times,serif" font-size="14.00">documentationDesc...</text>
</g>
<!-- http://purl.org/oseg/ontologies/OTRL#documentationDescription&#45;&gt;http://purl.org/oseg/ontologies/OTRL#OTRL -->
<g id="edge4" class="edge">
<title>http://purl.org/oseg/ontologies/OTRL#documentationDescription&#45;&gt;http://purl.org/oseg/ontologies/OTRL#OTRL</title>
<path fill="none" stroke="black" d="M215.51,-334.37C279.25,-368.99 430.09,-450.93 497.02,-487.28"/>
<polygon fill="black" stroke="black" points="495.43,-490.4 505.88,-492.1 498.77,-484.25 495.43,-490.4"/>
<text text-anchor="middle" x="329.76" y="-414.62" font-family="Times,serif" font-size="14.00">domain</text>
</g>
<!-- http://purl.org/oseg/ontologies/OTRL#documentationDescription&#45;&gt;http://www.w3.org/2002/07/owl#DatatypeProperty -->
<g id="edge46" class="edge">
<title>http://purl.org/oseg/ontologies/OTRL#documentationDescription&#45;&gt;http://www.w3.org/2002/07/owl#DatatypeProperty</title>
<path fill="none" stroke="black" d="M172.41,-302.23C163.83,-292.15 152.65,-279 143.06,-267.73"/>
<polygon fill="black" stroke="black" points="145.56,-265.27 136.42,-259.92 140.23,-269.8 145.56,-265.27"/>
<text text-anchor="middle" x="153.23" y="-288.78" font-family="Times,serif" font-size="14.00">a</text>
</g>
<!-- http://purl.org/oseg/ontologies/OTRL#documentationDescription&#45;&gt;http://schema.org/Text -->
<g id="edge33" class="edge">
<title>http://purl.org/oseg/ontologies/OTRL#documentationDescription&#45;&gt;http://schema.org/Text</title>
<path fill="none" stroke="black" d="M191.21,-301.78C206.21,-251.87 250.86,-103.29 269.07,-42.7"/>
<polygon fill="black" stroke="black" points="272.53,-43.36 272.05,-32.77 265.82,-41.34 272.53,-43.36"/>
<text text-anchor="middle" x="209.14" y="-176.04" font-family="Times,serif" font-size="14.00">range</text>
</g>
</g>
</svg>
