<?xml version="1.0" encoding="UTF-8" standalone="no"?>
<!DOCTYPE svg PUBLIC "-//W3C//DTD SVG 1.1//EN"
 "http://www.w3.org/Graphics/SVG/1.1/DTD/svg11.dtd">
<!-- Generated by graphviz version 2.43.0 (0)
 -->
<!-- Title: G Pages: 1 -->
<svg width="760pt" height="386pt"
 viewBox="0.00 0.00 759.76 386.00" xmlns="http://www.w3.org/2000/svg" xmlns:xlink="http://www.w3.org/1999/xlink">
<g id="graph0" class="graph" transform="scale(1 1) rotate(0) translate(4 382)">
<title>G</title>
<polygon fill="white" stroke="transparent" points="-4,4 -4,-382 755.76,-382 755.76,4 -4,4"/>
<!-- http://www.w3.org/2002/07/owl#Ontology -->
<g id="node1" class="node">
<title>http://www.w3.org/2002/07/owl#Ontology</title>
<ellipse fill="none" stroke="#1f77b4" cx="422.32" cy="-38.47" rx="77.56" ry="16.03"/>
<text text-anchor="middle" x="422.32" y="-34.77" font-family="Times,serif" font-size="14.00">owl:Ontology</text>
</g>
<!-- http://purl.org/oseg/ontologies/OTRL#OTRL -->
<g id="node2" class="node">
<title>http://purl.org/oseg/ontologies/OTRL#OTRL</title>
<ellipse fill="none" stroke="#e377c2" cx="127.03" cy="-237.77" rx="39.7" ry="16.03"/>
<text text-anchor="middle" x="127.03" y="-234.07" font-family="Times,serif" font-size="14.00">OTRL</text>
</g>
<!-- http://www.w3.org/2002/07/owl#class -->
<g id="node5" class="node">
<title>http://www.w3.org/2002/07/owl#class</title>
<ellipse fill="none" stroke="#1f77b4" cx="192.64" cy="-195.23" rx="57.05" ry="16.03"/>
<text text-anchor="middle" x="192.64" y="-191.53" font-family="Times,serif" font-size="14.00">owl:class</text>
</g>
<!-- http://purl.org/oseg/ontologies/OTRL#OTRL&#45;&gt;http://www.w3.org/2002/07/owl#class -->
<g id="edge7" class="edge">
<title>http://purl.org/oseg/ontologies/OTRL#OTRL&#45;&gt;http://www.w3.org/2002/07/owl#class</title>
<path fill="none" stroke="black" d="M148.52,-223.84C152.51,-221.25 156.76,-218.5 160.98,-215.76"/>
<polygon fill="black" stroke="black" points="163.04,-218.59 169.53,-210.22 159.23,-212.72 163.04,-218.59"/>
<text text-anchor="middle" x="150.25" y="-208.6" font-family="Times,serif" font-size="14.00">a</text>
</g>
<!-- http://purl.org/oseg/ontologies/OTRL#ODRL -->
<g id="node3" class="node">
<title>http://purl.org/oseg/ontologies/OTRL#ODRL</title>
<ellipse fill="none" stroke="#e377c2" cx="371.85" cy="-105.6" rx="41.94" ry="16.03"/>
<text text-anchor="middle" x="371.85" y="-101.9" font-family="Times,serif" font-size="14.00">ODRL</text>
</g>
<!-- http://www.w3.org/2002/07/owl#DatatypeProperty -->
<g id="node4" class="node">
<title>http://www.w3.org/2002/07/owl#DatatypeProperty</title>
<ellipse fill="none" stroke="#1f77b4" cx="445.48" cy="-309.55" rx="123.07" ry="16.03"/>
<text text-anchor="middle" x="445.48" y="-305.85" font-family="Times,serif" font-size="14.00">owl:DatatypeProperty</text>
</g>
<!-- http://www.w3.org/1999/02/22&#45;rdf&#45;syntax&#45;ns#nil -->
<g id="node6" class="node">
<title>http://www.w3.org/1999/02/22&#45;rdf&#45;syntax&#45;ns#nil</title>
<ellipse fill="none" stroke="#e377c2" cx="111.24" cy="-62.64" rx="42.35" ry="16.03"/>
<text text-anchor="middle" x="111.24" y="-58.94" font-family="Times,serif" font-size="14.00">rdf:nil</text>
</g>
<!-- http://purl.org/oseg/ontologies/OTRL#Odrl -->
<g id="node7" class="node">
<title>http://purl.org/oseg/ontologies/OTRL#Odrl</title>
<ellipse fill="none" stroke="#e377c2" cx="35.95" cy="-250.53" rx="33.88" ry="16.03"/>
<text text-anchor="middle" x="35.95" y="-246.83" font-family="Times,serif" font-size="14.00">Odrl</text>
</g>
<!-- http://purl.org/oseg/ontologies/OTRL#Odrl&#45;&gt;http://www.w3.org/2002/07/owl#class -->
<g id="edge24" class="edge">
<title>http://purl.org/oseg/ontologies/OTRL#Odrl&#45;&gt;http://www.w3.org/2002/07/owl#class</title>
<path fill="none" stroke="black" d="M63.6,-240.77C86.69,-232.63 120.06,-220.85 147.08,-211.31"/>
<polygon fill="black" stroke="black" points="148.45,-214.54 156.72,-207.91 146.12,-207.94 148.45,-214.54"/>
<text text-anchor="middle" x="100.84" y="-214.84" font-family="Times,serif" font-size="14.00">a</text>
</g>
<!-- http://purl.org/oseg/ontologies/OTRL#Otrl4 -->
<g id="node8" class="node">
<title>http://purl.org/oseg/ontologies/OTRL#Otrl4</title>
<ellipse fill="none" stroke="#e377c2" cx="186.65" cy="-356.65" rx="38.37" ry="16.03"/>
<text text-anchor="middle" x="186.65" y="-352.95" font-family="Times,serif" font-size="14.00">Otrl4</text>
</g>
<!-- http://purl.org/oseg/ontologies/OTRL#Otrl4&#45;&gt;http://purl.org/oseg/ontologies/OTRL#OTRL -->
<g id="edge14" class="edge">
<title>http://purl.org/oseg/ontologies/OTRL#Otrl4&#45;&gt;http://purl.org/oseg/ontologies/OTRL#OTRL</title>
<path fill="none" stroke="black" d="M178.61,-340.62C168.61,-320.68 151.42,-286.4 139.66,-262.95"/>
<polygon fill="black" stroke="black" points="142.75,-261.3 135.14,-253.93 136.49,-264.44 142.75,-261.3"/>
</g>
<!-- http://purl.org/oseg/ontologies/OTRL#Otrl4&#45;&gt;http://www.w3.org/2002/07/owl#class -->
<g id="edge13" class="edge">
<title>http://purl.org/oseg/ontologies/OTRL#Otrl4&#45;&gt;http://www.w3.org/2002/07/owl#class</title>
<path fill="none" stroke="black" d="M187.25,-340.29C188.29,-312.37 190.41,-255.3 191.66,-221.67"/>
<polygon fill="black" stroke="black" points="195.16,-221.76 192.03,-211.64 188.16,-221.5 195.16,-221.76"/>
<text text-anchor="middle" x="184.96" y="-284.78" font-family="Times,serif" font-size="14.00">a</text>
</g>
<!-- http://purl.org/oseg/ontologies/OTRL#Otrl2 -->
<g id="node9" class="node">
<title>http://purl.org/oseg/ontologies/OTRL#Otrl2</title>
<ellipse fill="none" stroke="#e377c2" cx="38.49" cy="-167.63" rx="38.37" ry="16.03"/>
<text text-anchor="middle" x="38.49" y="-163.93" font-family="Times,serif" font-size="14.00">Otrl2</text>
</g>
<!-- http://purl.org/oseg/ontologies/OTRL#Otrl2&#45;&gt;http://purl.org/oseg/ontologies/OTRL#OTRL -->
<g id="edge16" class="edge">
<title>http://purl.org/oseg/ontologies/OTRL#Otrl2&#45;&gt;http://purl.org/oseg/ontologies/OTRL#OTRL</title>
<path fill="none" stroke="black" d="M56.84,-182.16C69.54,-192.23 86.64,-205.77 100.78,-216.98"/>
<polygon fill="black" stroke="black" points="98.7,-219.79 108.71,-223.26 103.05,-214.3 98.7,-219.79"/>
</g>
<!-- http://purl.org/oseg/ontologies/OTRL#Otrl2&#45;&gt;http://www.w3.org/2002/07/owl#class -->
<g id="edge15" class="edge">
<title>http://purl.org/oseg/ontologies/OTRL#Otrl2&#45;&gt;http://www.w3.org/2002/07/owl#class</title>
<path fill="none" stroke="black" d="M73.85,-173.96C91.65,-177.15 113.68,-181.09 133.93,-184.72"/>
<polygon fill="black" stroke="black" points="133.54,-188.2 144,-186.52 134.78,-181.31 133.54,-188.2"/>
<text text-anchor="middle" x="99.39" y="-183.14" font-family="Times,serif" font-size="14.00">a</text>
</g>
<!-- http://purl.org/oseg/ontologies/OTRL#Odrl1 -->
<g id="node10" class="node">
<title>http://purl.org/oseg/ontologies/OTRL#Odrl1</title>
<ellipse fill="none" stroke="#e377c2" cx="273.55" cy="-66.94" rx="40.11" ry="16.03"/>
<text text-anchor="middle" x="273.55" y="-63.24" font-family="Times,serif" font-size="14.00">Odrl1</text>
</g>
<!-- http://purl.org/oseg/ontologies/OTRL#Odrl1&#45;&gt;http://purl.org/oseg/ontologies/OTRL#ODRL -->
<g id="edge20" class="edge">
<title>http://purl.org/oseg/ontologies/OTRL#Odrl1&#45;&gt;http://purl.org/oseg/ontologies/OTRL#ODRL</title>
<path fill="none" stroke="black" d="M302.51,-78.33C312.04,-82.08 322.79,-86.31 332.93,-90.29"/>
<polygon fill="black" stroke="black" points="331.83,-93.62 342.41,-94.02 334.39,-87.11 331.83,-93.62"/>
</g>
<!-- http://purl.org/oseg/ontologies/OTRL#Odrl1&#45;&gt;http://www.w3.org/2002/07/owl#class -->
<g id="edge17" class="edge">
<title>http://purl.org/oseg/ontologies/OTRL#Odrl1&#45;&gt;http://www.w3.org/2002/07/owl#class</title>
<path fill="none" stroke="black" d="M263.46,-82.93C249.6,-104.92 224.5,-144.71 208.21,-170.54"/>
<polygon fill="black" stroke="black" points="205.22,-168.71 202.85,-179.04 211.14,-172.45 205.22,-168.71"/>
<text text-anchor="middle" x="231.34" y="-115.53" font-family="Times,serif" font-size="14.00">a</text>
</g>
<!-- http://purl.org/oseg/ontologies/OTRL#Otrl1 -->
<g id="node11" class="node">
<title>http://purl.org/oseg/ontologies/OTRL#Otrl1</title>
<ellipse fill="none" stroke="#e377c2" cx="237.8" cy="-252.27" rx="38.37" ry="16.03"/>
<text text-anchor="middle" x="237.8" y="-248.57" font-family="Times,serif" font-size="14.00">Otrl1</text>
</g>
<!-- http://purl.org/oseg/ontologies/OTRL#Otrl1&#45;&gt;http://purl.org/oseg/ontologies/OTRL#OTRL -->
<g id="edge19" class="edge">
<title>http://purl.org/oseg/ontologies/OTRL#Otrl1&#45;&gt;http://purl.org/oseg/ontologies/OTRL#OTRL</title>
<path fill="none" stroke="black" d="M201.22,-247.48C192.89,-246.39 183.91,-245.22 175.18,-244.07"/>
<polygon fill="black" stroke="black" points="175.46,-240.58 165.09,-242.75 174.55,-247.52 175.46,-240.58"/>
</g>
<!-- http://purl.org/oseg/ontologies/OTRL#Otrl1&#45;&gt;http://www.w3.org/2002/07/owl#class -->
<g id="edge18" class="edge">
<title>http://purl.org/oseg/ontologies/OTRL#Otrl1&#45;&gt;http://www.w3.org/2002/07/owl#class</title>
<path fill="none" stroke="black" d="M225.46,-236.68C221.15,-231.24 216.21,-225 211.49,-219.04"/>
<polygon fill="black" stroke="black" points="214.23,-216.86 205.28,-211.19 208.74,-221.21 214.23,-216.86"/>
<text text-anchor="middle" x="213.97" y="-216.66" font-family="Times,serif" font-size="14.00">a</text>
</g>
<!-- http://purl.org/oseg/ontologies/OTRL -->
<g id="node12" class="node">
<title>http://purl.org/oseg/ontologies/OTRL</title>
<ellipse fill="none" stroke="#e377c2" cx="569.95" cy="-16.42" rx="60.62" ry="16.03"/>
<text text-anchor="middle" x="569.95" y="-12.72" font-family="Times,serif" font-size="14.00">ns1:OTRL</text>
</g>
<!-- http://purl.org/oseg/ontologies/OTRL&#45;&gt;http://www.w3.org/2002/07/owl#Ontology -->
<g id="edge1" class="edge">
<title>http://purl.org/oseg/ontologies/OTRL&#45;&gt;http://www.w3.org/2002/07/owl#Ontology</title>
<path fill="none" stroke="black" d="M516.65,-24.38C509.94,-25.38 502.98,-26.42 496.02,-27.46"/>
<polygon fill="black" stroke="black" points="495.22,-24.04 485.85,-28.98 496.26,-30.96 495.22,-24.04"/>
<text text-anchor="middle" x="504.08" y="-14.72" font-family="Times,serif" font-size="14.00">a</text>
</g>
<!-- http://purl.org/oseg/ontologies/OTRL&#45;&gt;http://purl.org/oseg/ontologies/OTRL -->
<g id="edge4" class="edge">
<title>http://purl.org/oseg/ontologies/OTRL&#45;&gt;http://purl.org/oseg/ontologies/OTRL</title>
<path fill="none" stroke="black" d="M625.55,-23.05C638.89,-22.53 648.76,-20.32 648.76,-16.42 648.76,-13.58 643.55,-11.64 635.58,-10.59"/>
<polygon fill="black" stroke="black" points="635.8,-7.1 625.55,-9.78 635.24,-14.07 635.8,-7.1"/>
<text text-anchor="middle" x="700.26" y="-12.72" font-family="Times,serif" font-size="14.00">owl:versionIRI</text>
</g>
<!-- http://purl.org/oseg/ontologies/OTRL#exitCriteria -->
<g id="node13" class="node">
<title>http://purl.org/oseg/ontologies/OTRL#exitCriteria</title>
<ellipse fill="none" stroke="#e377c2" cx="526.53" cy="-268.6" rx="70.01" ry="16.03"/>
<text text-anchor="middle" x="526.53" y="-264.9" font-family="Times,serif" font-size="14.00">exitCriteria</text>
</g>
<!-- http://purl.org/oseg/ontologies/OTRL#exitCriteria&#45;&gt;http://www.w3.org/2002/07/owl#DatatypeProperty -->
<g id="edge3" class="edge">
<title>http://purl.org/oseg/ontologies/OTRL#exitCriteria&#45;&gt;http://www.w3.org/2002/07/owl#DatatypeProperty</title>
<path fill="none" stroke="black" d="M497.27,-283.38C493.55,-285.26 489.69,-287.21 485.83,-289.16"/>
<polygon fill="black" stroke="black" points="484.24,-286.05 476.89,-293.68 487.39,-292.29 484.24,-286.05"/>
<text text-anchor="middle" x="487.05" y="-290.07" font-family="Times,serif" font-size="14.00">a</text>
</g>
<!-- http://schema.org/Text -->
<g id="node18" class="node">
<title>http://schema.org/Text</title>
<ellipse fill="none" stroke="#e377c2" cx="510.4" cy="-223.28" rx="74.91" ry="16.03"/>
<text text-anchor="middle" x="510.4" y="-219.58" font-family="Times,serif" font-size="14.00">schema:Text</text>
</g>
<!-- http://purl.org/oseg/ontologies/OTRL#exitCriteria&#45;&gt;http://schema.org/Text -->
<g id="edge26" class="edge">
<title>http://purl.org/oseg/ontologies/OTRL#exitCriteria&#45;&gt;http://schema.org/Text</title>
<path fill="none" stroke="black" d="M520.71,-252.24C520.39,-251.35 520.07,-250.45 519.75,-249.54"/>
<polygon fill="black" stroke="black" points="522.92,-248.02 516.27,-239.77 516.32,-250.36 522.92,-248.02"/>
<text text-anchor="middle" x="499.23" y="-239.69" font-family="Times,serif" font-size="14.00">range</text>
</g>
<!-- http://purl.org/oseg/ontologies/OTRL#Otrl -->
<g id="node14" class="node">
<title>http://purl.org/oseg/ontologies/OTRL#Otrl</title>
<ellipse fill="none" stroke="#e377c2" cx="101.24" cy="-361.64" rx="31.64" ry="16.03"/>
<text text-anchor="middle" x="101.24" y="-357.94" font-family="Times,serif" font-size="14.00">Otrl</text>
</g>
<!-- http://purl.org/oseg/ontologies/OTRL#Otrl5 -->
<g id="node15" class="node">
<title>http://purl.org/oseg/ontologies/OTRL#Otrl5</title>
<ellipse fill="none" stroke="#e377c2" cx="77.09" cy="-112.78" rx="38.37" ry="16.03"/>
<text text-anchor="middle" x="77.09" y="-109.08" font-family="Times,serif" font-size="14.00">Otrl5</text>
</g>
<!-- http://purl.org/oseg/ontologies/OTRL#Otrl5&#45;&gt;http://purl.org/oseg/ontologies/OTRL#OTRL -->
<g id="edge12" class="edge">
<title>http://purl.org/oseg/ontologies/OTRL#Otrl5&#45;&gt;http://purl.org/oseg/ontologies/OTRL#OTRL</title>
<path fill="none" stroke="black" d="M83.52,-128.86C91.9,-149.84 106.67,-186.8 116.65,-211.78"/>
<polygon fill="black" stroke="black" points="113.51,-213.36 120.47,-221.35 120.01,-210.77 113.51,-213.36"/>
</g>
<!-- http://purl.org/oseg/ontologies/OTRL#Otrl5&#45;&gt;http://www.w3.org/2002/07/owl#class -->
<g id="edge5" class="edge">
<title>http://purl.org/oseg/ontologies/OTRL#Otrl5&#45;&gt;http://www.w3.org/2002/07/owl#class</title>
<path fill="none" stroke="black" d="M96.69,-126.77C114.92,-139.77 142.31,-159.31 163.16,-174.2"/>
<polygon fill="black" stroke="black" points="161.2,-177.09 171.37,-180.05 165.26,-171.4 161.2,-177.09"/>
<text text-anchor="middle" x="125.43" y="-154.28" font-family="Times,serif" font-size="14.00">a</text>
</g>
<!-- http://purl.org/oseg/ontologies/OTRL#Odrl3 -->
<g id="node16" class="node">
<title>http://purl.org/oseg/ontologies/OTRL#Odrl3</title>
<ellipse fill="none" stroke="#e377c2" cx="346.51" cy="-158.43" rx="40.11" ry="16.03"/>
<text text-anchor="middle" x="346.51" y="-154.73" font-family="Times,serif" font-size="14.00">Odrl3</text>
</g>
<!-- http://purl.org/oseg/ontologies/OTRL#Odrl3&#45;&gt;http://purl.org/oseg/ontologies/OTRL#ODRL -->
<g id="edge28" class="edge">
<title>http://purl.org/oseg/ontologies/OTRL#Odrl3&#45;&gt;http://purl.org/oseg/ontologies/OTRL#ODRL</title>
<path fill="none" stroke="black" d="M354.25,-142.29C355.97,-138.71 357.83,-134.82 359.68,-130.97"/>
<polygon fill="black" stroke="black" points="362.99,-132.17 364.16,-121.64 356.67,-129.14 362.99,-132.17"/>
</g>
<!-- http://purl.org/oseg/ontologies/OTRL#Odrl3&#45;&gt;http://www.w3.org/2002/07/owl#class -->
<g id="edge22" class="edge">
<title>http://purl.org/oseg/ontologies/OTRL#Odrl3&#45;&gt;http://www.w3.org/2002/07/owl#class</title>
<path fill="none" stroke="black" d="M311.59,-166.78C292.29,-171.4 267.9,-177.23 246.24,-182.41"/>
<polygon fill="black" stroke="black" points="245.42,-179.01 236.51,-184.74 247.05,-185.82 245.42,-179.01"/>
<text text-anchor="middle" x="274.42" y="-178.4" font-family="Times,serif" font-size="14.00">a</text>
</g>
<!-- http://purl.org/oseg/ontologies/OTRL#Odrl2 -->
<g id="node17" class="node">
<title>http://purl.org/oseg/ontologies/OTRL#Odrl2</title>
<ellipse fill="none" stroke="#e377c2" cx="253.72" cy="-148.77" rx="40.11" ry="16.03"/>
<text text-anchor="middle" x="253.72" y="-145.07" font-family="Times,serif" font-size="14.00">Odrl2</text>
</g>
<!-- http://purl.org/oseg/ontologies/OTRL#Odrl2&#45;&gt;http://purl.org/oseg/ontologies/OTRL#ODRL -->
<g id="edge2" class="edge">
<title>http://purl.org/oseg/ontologies/OTRL#Odrl2&#45;&gt;http://purl.org/oseg/ontologies/OTRL#ODRL</title>
<path fill="none" stroke="black" d="M283.84,-137.76C298.44,-132.42 316.18,-125.94 331.9,-120.2"/>
<polygon fill="black" stroke="black" points="333.19,-123.45 341.38,-116.73 330.79,-116.88 333.19,-123.45"/>
</g>
<!-- http://purl.org/oseg/ontologies/OTRL#Odrl2&#45;&gt;http://www.w3.org/2002/07/owl#class -->
<g id="edge6" class="edge">
<title>http://purl.org/oseg/ontologies/OTRL#Odrl2&#45;&gt;http://www.w3.org/2002/07/owl#class</title>
<path fill="none" stroke="black" d="M234.73,-163.21C230.35,-166.54 225.6,-170.16 220.93,-173.71"/>
<polygon fill="black" stroke="black" points="218.52,-171.15 212.68,-179.99 222.76,-176.72 218.52,-171.15"/>
<text text-anchor="middle" x="223.33" y="-172.26" font-family="Times,serif" font-size="14.00">a</text>
</g>
<!-- http://purl.org/oseg/ontologies/OTRL#Odrl3Star -->
<g id="node19" class="node">
<title>http://purl.org/oseg/ontologies/OTRL#Odrl3Star</title>
<ellipse fill="none" stroke="#e377c2" cx="235.03" cy="-15.87" rx="62.45" ry="16.03"/>
<text text-anchor="middle" x="235.03" y="-12.17" font-family="Times,serif" font-size="14.00">Odrl3Star</text>
</g>
<!-- http://purl.org/oseg/ontologies/OTRL#Odrl3Star&#45;&gt;http://purl.org/oseg/ontologies/OTRL#ODRL -->
<g id="edge21" class="edge">
<title>http://purl.org/oseg/ontologies/OTRL#Odrl3Star&#45;&gt;http://purl.org/oseg/ontologies/OTRL#ODRL</title>
<path fill="none" stroke="black" d="M258.24,-31.09C281.29,-46.21 316.74,-69.45 341.9,-85.95"/>
<polygon fill="black" stroke="black" points="340.05,-88.93 350.33,-91.49 343.89,-83.07 340.05,-88.93"/>
</g>
<!-- http://purl.org/oseg/ontologies/OTRL#Odrl3Star&#45;&gt;http://www.w3.org/2002/07/owl#class -->
<g id="edge25" class="edge">
<title>http://purl.org/oseg/ontologies/OTRL#Odrl3Star&#45;&gt;http://www.w3.org/2002/07/owl#class</title>
<path fill="none" stroke="black" d="M231.19,-32.1C223.87,-63.1 207.82,-131 198.91,-168.69"/>
<polygon fill="black" stroke="black" points="195.39,-168.37 196.5,-178.9 202.2,-169.98 195.39,-168.37"/>
<text text-anchor="middle" x="210.55" y="-104.19" font-family="Times,serif" font-size="14.00">a</text>
</g>
<!-- http://purl.org/oseg/ontologies/OTRL#Odrl4 -->
<g id="node20" class="node">
<title>http://purl.org/oseg/ontologies/OTRL#Odrl4</title>
<ellipse fill="none" stroke="#e377c2" cx="357.43" cy="-239.21" rx="40.11" ry="16.03"/>
<text text-anchor="middle" x="357.43" y="-235.51" font-family="Times,serif" font-size="14.00">Odrl4</text>
</g>
<!-- http://purl.org/oseg/ontologies/OTRL#Odrl4&#45;&gt;http://purl.org/oseg/ontologies/OTRL#ODRL -->
<g id="edge11" class="edge">
<title>http://purl.org/oseg/ontologies/OTRL#Odrl4&#45;&gt;http://purl.org/oseg/ontologies/OTRL#ODRL</title>
<path fill="none" stroke="black" d="M359.2,-222.82C361.63,-200.28 366.04,-159.44 368.95,-132.41"/>
<polygon fill="black" stroke="black" points="372.47,-132.43 370.07,-122.11 365.51,-131.68 372.47,-132.43"/>
</g>
<!-- http://purl.org/oseg/ontologies/OTRL#Odrl4&#45;&gt;http://www.w3.org/2002/07/owl#class -->
<g id="edge8" class="edge">
<title>http://purl.org/oseg/ontologies/OTRL#Odrl4&#45;&gt;http://www.w3.org/2002/07/owl#class</title>
<path fill="none" stroke="black" d="M323.68,-230.2C300.8,-224.09 270.13,-215.91 244.21,-208.99"/>
<polygon fill="black" stroke="black" points="245.1,-205.61 234.54,-206.41 243.3,-212.37 245.1,-205.61"/>
<text text-anchor="middle" x="279.45" y="-223.4" font-family="Times,serif" font-size="14.00">a</text>
</g>
<!-- http://purl.org/oseg/ontologies/OTRL#goal -->
<g id="node21" class="node">
<title>http://purl.org/oseg/ontologies/OTRL#goal</title>
<ellipse fill="none" stroke="#e377c2" cx="460.79" cy="-354.68" rx="33.47" ry="16.03"/>
<text text-anchor="middle" x="460.79" y="-350.98" font-family="Times,serif" font-size="14.00">goal</text>
</g>
<!-- http://purl.org/oseg/ontologies/OTRL#goal&#45;&gt;http://www.w3.org/2002/07/owl#DatatypeProperty -->
<g id="edge27" class="edge">
<title>http://purl.org/oseg/ontologies/OTRL#goal&#45;&gt;http://www.w3.org/2002/07/owl#DatatypeProperty</title>
<path fill="none" stroke="black" d="M455.26,-338.39C454.96,-337.5 454.66,-336.61 454.35,-335.7"/>
<polygon fill="black" stroke="black" points="457.58,-334.32 451.05,-325.97 450.95,-336.56 457.58,-334.32"/>
<text text-anchor="middle" x="450.3" y="-325.84" font-family="Times,serif" font-size="14.00">a</text>
</g>
<!-- http://purl.org/oseg/ontologies/OTRL#goal&#45;&gt;http://schema.org/Text -->
<g id="edge23" class="edge">
<title>http://purl.org/oseg/ontologies/OTRL#goal&#45;&gt;http://schema.org/Text</title>
<path fill="none" stroke="black" d="M466.87,-338.57C475.31,-316.21 490.67,-275.52 500.7,-248.95"/>
<polygon fill="black" stroke="black" points="504,-250.12 504.26,-239.52 497.46,-247.64 504,-250.12"/>
<text text-anchor="middle" x="462.79" y="-282.56" font-family="Times,serif" font-size="14.00">range</text>
</g>
<!-- http://purl.org/oseg/ontologies/OTRL#Otrl3 -->
<g id="node22" class="node">
<title>http://purl.org/oseg/ontologies/OTRL#Otrl3</title>
<ellipse fill="none" stroke="#e377c2" cx="124.8" cy="-292.81" rx="38.37" ry="16.03"/>
<text text-anchor="middle" x="124.8" y="-289.11" font-family="Times,serif" font-size="14.00">Otrl3</text>
</g>
<!-- http://purl.org/oseg/ontologies/OTRL#Otrl3&#45;&gt;http://purl.org/oseg/ontologies/OTRL#OTRL -->
<g id="edge10" class="edge">
<title>http://purl.org/oseg/ontologies/OTRL#Otrl3&#45;&gt;http://purl.org/oseg/ontologies/OTRL#OTRL</title>
<path fill="none" stroke="black" d="M125.47,-276.3C125.62,-272.6 125.78,-268.58 125.94,-264.58"/>
<polygon fill="black" stroke="black" points="129.45,-264.41 126.36,-254.27 122.46,-264.12 129.45,-264.41"/>
</g>
<!-- http://purl.org/oseg/ontologies/OTRL#Otrl3&#45;&gt;http://www.w3.org/2002/07/owl#class -->
<g id="edge9" class="edge">
<title>http://purl.org/oseg/ontologies/OTRL#Otrl3&#45;&gt;http://www.w3.org/2002/07/owl#class</title>
<path fill="none" stroke="black" d="M135.7,-277.13C146.51,-261.58 163.24,-237.52 175.77,-219.49"/>
<polygon fill="black" stroke="black" points="178.71,-221.4 181.54,-211.19 172.96,-217.41 178.71,-221.4"/>
<text text-anchor="middle" x="151.23" y="-252.11" font-family="Times,serif" font-size="14.00">a</text>
</g>
</g>
</svg>
