<?xml version="1.0" encoding="UTF-8" standalone="no"?>
<!DOCTYPE svg PUBLIC "-//W3C//DTD SVG 1.1//EN"
 "http://www.w3.org/Graphics/SVG/1.1/DTD/svg11.dtd">
<!-- Generated by graphviz version 2.43.0 (0)
 -->
<!-- Title: G Pages: 1 -->
<svg width="1155pt" height="863pt"
 viewBox="0.00 0.00 1154.76 863.00" xmlns="http://www.w3.org/2000/svg" xmlns:xlink="http://www.w3.org/1999/xlink">
<g id="graph0" class="graph" transform="scale(1 1) rotate(0) translate(4 859)">
<title>G</title>
<polygon fill="white" stroke="transparent" points="-4,4 -4,-859 1150.76,-859 1150.76,4 -4,4"/>
<!-- http://www.w3.org/2002/07/owl#Ontology -->
<g id="node1" class="node">
<title>http://www.w3.org/2002/07/owl#Ontology</title>
<ellipse fill="none" stroke="#1f77b4" cx="817.32" cy="-482.47" rx="77.56" ry="16.03"/>
<text text-anchor="middle" x="817.32" y="-478.77" font-family="Times,serif" font-size="14.00">owl:Ontology</text>
</g>
<!-- http://www.w3.org/2002/07/owl#class -->
<g id="node2" class="node">
<title>http://www.w3.org/2002/07/owl#class</title>
<ellipse fill="none" stroke="#1f77b4" cx="306.21" cy="-585.28" rx="57.05" ry="16.03"/>
<text text-anchor="middle" x="306.21" y="-581.58" font-family="Times,serif" font-size="14.00">owl:class</text>
</g>
<!-- http://purl.org/oseg/ontologies/OTRL#ODRL -->
<g id="node3" class="node">
<title>http://purl.org/oseg/ontologies/OTRL#ODRL</title>
<ellipse fill="none" stroke="#e377c2" cx="175.39" cy="-710.1" rx="41.94" ry="16.03"/>
<text text-anchor="middle" x="175.39" y="-706.4" font-family="Times,serif" font-size="14.00">ODRL</text>
</g>
<!-- http://purl.org/oseg/ontologies/OTRL#ODRL&#45;&gt;http://www.w3.org/2002/07/owl#class -->
<g id="edge46" class="edge">
<title>http://purl.org/oseg/ontologies/OTRL#ODRL&#45;&gt;http://www.w3.org/2002/07/owl#class</title>
<path fill="none" stroke="black" d="M191.17,-695.05C213.81,-673.44 255.69,-633.49 282.19,-608.2"/>
<polygon fill="black" stroke="black" points="284.73,-610.61 289.55,-601.17 279.9,-605.54 284.73,-610.61"/>
<text text-anchor="middle" x="232.18" y="-655.42" font-family="Times,serif" font-size="14.00">a</text>
</g>
<!-- http://www.w3.org/2002/07/owl#DatatypeProperty -->
<g id="node4" class="node">
<title>http://www.w3.org/2002/07/owl#DatatypeProperty</title>
<ellipse fill="none" stroke="#1f77b4" cx="918.94" cy="-15.87" rx="123.07" ry="16.03"/>
<text text-anchor="middle" x="918.94" y="-12.17" font-family="Times,serif" font-size="14.00">owl:DatatypeProperty</text>
</g>
<!-- http://purl.org/oseg/ontologies/OTRL#OTRL -->
<g id="node5" class="node">
<title>http://purl.org/oseg/ontologies/OTRL#OTRL</title>
<ellipse fill="none" stroke="#e377c2" cx="505.85" cy="-413.21" rx="39.7" ry="16.03"/>
<text text-anchor="middle" x="505.85" y="-409.51" font-family="Times,serif" font-size="14.00">OTRL</text>
</g>
<!-- http://purl.org/oseg/ontologies/OTRL#OTRL&#45;&gt;http://www.w3.org/2002/07/owl#class -->
<g id="edge6" class="edge">
<title>http://purl.org/oseg/ontologies/OTRL#OTRL&#45;&gt;http://www.w3.org/2002/07/owl#class</title>
<path fill="none" stroke="black" d="M488.48,-428.18C453.26,-458.53 373.29,-527.46 331.98,-563.07"/>
<polygon fill="black" stroke="black" points="329.54,-560.54 324.26,-569.72 334.11,-565.85 329.54,-560.54"/>
<text text-anchor="middle" x="405.73" y="-499.42" font-family="Times,serif" font-size="14.00">a</text>
</g>
<!-- http://purl.org/oseg/ontologies/OTRL#ODRL&#45;1 -->
<g id="node6" class="node">
<title>http://purl.org/oseg/ontologies/OTRL#ODRL&#45;1</title>
<ellipse fill="none" stroke="#e377c2" cx="80.57" cy="-543.87" rx="50.82" ry="16.03"/>
<text text-anchor="middle" x="80.57" y="-540.17" font-family="Times,serif" font-size="14.00">ODRL&#45;1</text>
</g>
<!-- http://purl.org/oseg/ontologies/OTRL#ODRL&#45;1&#45;&gt;http://www.w3.org/2002/07/owl#class -->
<g id="edge24" class="edge">
<title>http://purl.org/oseg/ontologies/OTRL#ODRL&#45;1&#45;&gt;http://www.w3.org/2002/07/owl#class</title>
<path fill="none" stroke="black" d="M124.88,-552C160.1,-558.47 209.68,-567.56 248.09,-574.61"/>
<polygon fill="black" stroke="black" points="247.63,-578.09 258.1,-576.45 248.89,-571.2 247.63,-578.09"/>
<text text-anchor="middle" x="181.98" y="-567.11" font-family="Times,serif" font-size="14.00">a</text>
</g>
<!-- http://purl.org/oseg/ontologies/OTRL#ODRL&#45;1&#45;&gt;http://purl.org/oseg/ontologies/OTRL#ODRL -->
<g id="edge2" class="edge">
<title>http://purl.org/oseg/ontologies/OTRL#ODRL&#45;1&#45;&gt;http://purl.org/oseg/ontologies/OTRL#ODRL</title>
<path fill="none" stroke="black" d="M89.83,-560.11C106.44,-589.24 141.4,-650.52 161.1,-685.06"/>
<polygon fill="black" stroke="black" points="158.23,-687.09 166.22,-694.04 164.31,-683.62 158.23,-687.09"/>
</g>
<!-- http://purl.org/oseg/ontologies/OTRL -->
<g id="node7" class="node">
<title>http://purl.org/oseg/ontologies/OTRL</title>
<ellipse fill="none" stroke="#e377c2" cx="964.95" cy="-460.42" rx="60.62" ry="16.03"/>
<text text-anchor="middle" x="964.95" y="-456.72" font-family="Times,serif" font-size="14.00">ns1:OTRL</text>
</g>
<!-- http://purl.org/oseg/ontologies/OTRL&#45;&gt;http://www.w3.org/2002/07/owl#Ontology -->
<g id="edge25" class="edge">
<title>http://purl.org/oseg/ontologies/OTRL&#45;&gt;http://www.w3.org/2002/07/owl#Ontology</title>
<path fill="none" stroke="black" d="M911.65,-468.38C904.94,-469.38 897.98,-470.42 891.02,-471.46"/>
<polygon fill="black" stroke="black" points="890.22,-468.04 880.85,-472.98 891.26,-474.96 890.22,-468.04"/>
<text text-anchor="middle" x="899.08" y="-458.72" font-family="Times,serif" font-size="14.00">a</text>
</g>
<!-- http://purl.org/oseg/ontologies/OTRL&#45;&gt;http://purl.org/oseg/ontologies/OTRL -->
<g id="edge21" class="edge">
<title>http://purl.org/oseg/ontologies/OTRL&#45;&gt;http://purl.org/oseg/ontologies/OTRL</title>
<path fill="none" stroke="black" d="M1020.55,-467.05C1033.89,-466.53 1043.76,-464.32 1043.76,-460.42 1043.76,-457.58 1038.55,-455.64 1030.58,-454.59"/>
<polygon fill="black" stroke="black" points="1030.8,-451.1 1020.55,-453.78 1030.24,-458.07 1030.8,-451.1"/>
<text text-anchor="middle" x="1095.26" y="-456.72" font-family="Times,serif" font-size="14.00">owl:versionIRI</text>
</g>
<!-- http://schema.org/Text -->
<g id="node8" class="node">
<title>http://schema.org/Text</title>
<ellipse fill="none" stroke="#e377c2" cx="924.29" cy="-118.09" rx="74.91" ry="16.03"/>
<text text-anchor="middle" x="924.29" y="-114.39" font-family="Times,serif" font-size="14.00">schema:Text</text>
</g>
<!-- http://purl.org/oseg/ontologies/OTRL#ODRL&#45;5 -->
<g id="node9" class="node">
<title>http://purl.org/oseg/ontologies/OTRL#ODRL&#45;5</title>
<ellipse fill="none" stroke="#e377c2" cx="66.11" cy="-698.54" rx="50.82" ry="16.03"/>
<text text-anchor="middle" x="66.11" y="-694.84" font-family="Times,serif" font-size="14.00">ODRL&#45;5</text>
</g>
<!-- http://purl.org/oseg/ontologies/OTRL#ODRL&#45;5&#45;&gt;http://www.w3.org/2002/07/owl#class -->
<g id="edge27" class="edge">
<title>http://purl.org/oseg/ontologies/OTRL#ODRL&#45;5&#45;&gt;http://www.w3.org/2002/07/owl#class</title>
<path fill="none" stroke="black" d="M95.07,-684.88C138.1,-664.58 219.01,-626.41 267.21,-603.67"/>
<polygon fill="black" stroke="black" points="268.84,-606.77 276.39,-599.34 265.86,-600.44 268.84,-606.77"/>
<text text-anchor="middle" x="176.64" y="-648.08" font-family="Times,serif" font-size="14.00">a</text>
</g>
<!-- http://purl.org/oseg/ontologies/OTRL#ODRL&#45;5&#45;&gt;http://purl.org/oseg/ontologies/OTRL#ODRL -->
<g id="edge7" class="edge">
<title>http://purl.org/oseg/ontologies/OTRL#ODRL&#45;5&#45;&gt;http://purl.org/oseg/ontologies/OTRL#ODRL</title>
<path fill="none" stroke="black" d="M114.68,-703.68C118.04,-704.04 121.43,-704.4 124.81,-704.75"/>
<polygon fill="black" stroke="black" points="124.5,-708.24 134.81,-705.81 125.24,-701.28 124.5,-708.24"/>
</g>
<!-- http://purl.org/oseg/ontologies/OTRL#exitCriteria -->
<g id="node10" class="node">
<title>http://purl.org/oseg/ontologies/OTRL#exitCriteria</title>
<ellipse fill="none" stroke="#e377c2" cx="704.63" cy="-217.91" rx="70.01" ry="16.03"/>
<text text-anchor="middle" x="704.63" y="-214.21" font-family="Times,serif" font-size="14.00">exitCriteria</text>
</g>
<!-- http://purl.org/oseg/ontologies/OTRL#exitCriteria&#45;&gt;http://www.w3.org/2002/07/owl#DatatypeProperty -->
<g id="edge5" class="edge">
<title>http://purl.org/oseg/ontologies/OTRL#exitCriteria&#45;&gt;http://www.w3.org/2002/07/owl#DatatypeProperty</title>
<path fill="none" stroke="black" d="M721.44,-202.06C759.05,-166.61 850.1,-80.77 894.2,-39.2"/>
<polygon fill="black" stroke="black" points="896.73,-41.62 901.61,-32.21 891.93,-36.53 896.73,-41.62"/>
<text text-anchor="middle" x="803.32" y="-124.43" font-family="Times,serif" font-size="14.00">a</text>
</g>
<!-- http://purl.org/oseg/ontologies/OTRL#exitCriteria&#45;&gt;http://purl.org/oseg/ontologies/OTRL#OTRL -->
<g id="edge16" class="edge">
<title>http://purl.org/oseg/ontologies/OTRL#exitCriteria&#45;&gt;http://purl.org/oseg/ontologies/OTRL#OTRL</title>
<path fill="none" stroke="black" d="M688.36,-233.9C652.99,-268.64 569.03,-351.13 528.51,-390.95"/>
<polygon fill="black" stroke="black" points="525.92,-388.58 521.24,-398.09 530.82,-393.58 525.92,-388.58"/>
<text text-anchor="middle" x="581.93" y="-316.22" font-family="Times,serif" font-size="14.00">domain</text>
</g>
<!-- http://purl.org/oseg/ontologies/OTRL#exitCriteria&#45;&gt;http://schema.org/Text -->
<g id="edge29" class="edge">
<title>http://purl.org/oseg/ontologies/OTRL#exitCriteria&#45;&gt;http://schema.org/Text</title>
<path fill="none" stroke="black" d="M736.57,-203.4C775.18,-185.85 840.24,-156.29 882.72,-136.98"/>
<polygon fill="black" stroke="black" points="884.3,-140.11 891.95,-132.78 881.4,-133.73 884.3,-140.11"/>
<text text-anchor="middle" x="788.65" y="-173.99" font-family="Times,serif" font-size="14.00">range</text>
</g>
<!-- http://purl.org/oseg/ontologies/OTRL#ODRL&#45;4 -->
<g id="node11" class="node">
<title>http://purl.org/oseg/ontologies/OTRL#ODRL&#45;4</title>
<ellipse fill="none" stroke="#e377c2" cx="51.17" cy="-613.88" rx="50.82" ry="16.03"/>
<text text-anchor="middle" x="51.17" y="-610.18" font-family="Times,serif" font-size="14.00">ODRL&#45;4</text>
</g>
<!-- http://purl.org/oseg/ontologies/OTRL#ODRL&#45;4&#45;&gt;http://www.w3.org/2002/07/owl#class -->
<g id="edge32" class="edge">
<title>http://purl.org/oseg/ontologies/OTRL#ODRL&#45;4&#45;&gt;http://www.w3.org/2002/07/owl#class</title>
<path fill="none" stroke="black" d="M99.44,-608.47C140.04,-603.91 198.38,-597.37 242.75,-592.39"/>
<polygon fill="black" stroke="black" points="243.3,-595.85 252.85,-591.26 242.52,-588.9 243.3,-595.85"/>
<text text-anchor="middle" x="166.6" y="-604.23" font-family="Times,serif" font-size="14.00">a</text>
</g>
<!-- http://purl.org/oseg/ontologies/OTRL#ODRL&#45;4&#45;&gt;http://purl.org/oseg/ontologies/OTRL#ODRL -->
<g id="edge22" class="edge">
<title>http://purl.org/oseg/ontologies/OTRL#ODRL&#45;4&#45;&gt;http://purl.org/oseg/ontologies/OTRL#ODRL</title>
<path fill="none" stroke="black" d="M70.85,-629.13C91.81,-645.36 125.12,-671.16 148.49,-689.27"/>
<polygon fill="black" stroke="black" points="146.56,-692.2 156.61,-695.56 150.85,-686.67 146.56,-692.2"/>
</g>
<!-- http://purl.org/oseg/ontologies/OTRL#hardwareDescription -->
<g id="node12" class="node">
<title>http://purl.org/oseg/ontologies/OTRL#hardwareDescription</title>
<ellipse fill="none" stroke="#e377c2" cx="644.01" cy="-123.7" rx="118.17" ry="16.03"/>
<text text-anchor="middle" x="644.01" y="-120" font-family="Times,serif" font-size="14.00">hardwareDescription</text>
</g>
<!-- http://purl.org/oseg/ontologies/OTRL#hardwareDescription&#45;&gt;http://www.w3.org/2002/07/owl#DatatypeProperty -->
<g id="edge8" class="edge">
<title>http://purl.org/oseg/ontologies/OTRL#hardwareDescription&#45;&gt;http://www.w3.org/2002/07/owl#DatatypeProperty</title>
<path fill="none" stroke="black" d="M683.41,-108.25C732.61,-88.96 816.78,-55.94 870.05,-35.05"/>
<polygon fill="black" stroke="black" points="871.59,-38.2 879.63,-31.29 869.04,-31.69 871.59,-38.2"/>
<text text-anchor="middle" x="772.23" y="-75.45" font-family="Times,serif" font-size="14.00">a</text>
</g>
<!-- http://purl.org/oseg/ontologies/OTRL#hardwareDescription&#45;&gt;http://purl.org/oseg/ontologies/OTRL#OTRL -->
<g id="edge19" class="edge">
<title>http://purl.org/oseg/ontologies/OTRL#hardwareDescription&#45;&gt;http://purl.org/oseg/ontologies/OTRL#OTRL</title>
<path fill="none" stroke="black" d="M636.19,-140.1C613.2,-188.27 545.74,-329.62 517.99,-387.77"/>
<polygon fill="black" stroke="black" points="514.73,-386.46 513.59,-396.99 521.05,-389.47 514.73,-386.46"/>
<text text-anchor="middle" x="550.59" y="-267.73" font-family="Times,serif" font-size="14.00">domain</text>
</g>
<!-- http://purl.org/oseg/ontologies/OTRL#hardwareDescription&#45;&gt;http://schema.org/Text -->
<g id="edge33" class="edge">
<title>http://purl.org/oseg/ontologies/OTRL#hardwareDescription&#45;&gt;http://schema.org/Text</title>
<path fill="none" stroke="black" d="M761.25,-121.35C787.49,-120.83 814.83,-120.28 839.45,-119.79"/>
<polygon fill="black" stroke="black" points="839.54,-123.29 849.46,-119.59 839.4,-116.29 839.54,-123.29"/>
<text text-anchor="middle" x="821.35" y="-109.37" font-family="Times,serif" font-size="14.00">range</text>
</g>
<!-- http://purl.org/oseg/ontologies/OTRL#OTRL&#45;5 -->
<g id="node13" class="node">
<title>http://purl.org/oseg/ontologies/OTRL#OTRL&#45;5</title>
<ellipse fill="none" stroke="#e377c2" cx="327.34" cy="-329.56" rx="49.49" ry="16.03"/>
<text text-anchor="middle" x="327.34" y="-325.86" font-family="Times,serif" font-size="14.00">OTRL&#45;5</text>
</g>
<!-- http://purl.org/oseg/ontologies/OTRL#OTRL&#45;5&#45;&gt;http://www.w3.org/2002/07/owl#class -->
<g id="edge34" class="edge">
<title>http://purl.org/oseg/ontologies/OTRL#OTRL&#45;5&#45;&gt;http://www.w3.org/2002/07/owl#class</title>
<path fill="none" stroke="black" d="M325.99,-345.94C322.43,-388.96 312.81,-505.44 308.43,-558.41"/>
<polygon fill="black" stroke="black" points="304.92,-558.44 307.58,-568.7 311.89,-559.02 304.92,-558.44"/>
<text text-anchor="middle" x="312.71" y="-455.98" font-family="Times,serif" font-size="14.00">a</text>
</g>
<!-- http://purl.org/oseg/ontologies/OTRL#OTRL&#45;5&#45;&gt;http://purl.org/oseg/ontologies/OTRL#OTRL -->
<g id="edge26" class="edge">
<title>http://purl.org/oseg/ontologies/OTRL#OTRL&#45;5&#45;&gt;http://purl.org/oseg/ontologies/OTRL#OTRL</title>
<path fill="none" stroke="black" d="M356.02,-343C387.06,-357.54 436.6,-380.76 470.13,-396.47"/>
<polygon fill="black" stroke="black" points="469.02,-399.82 479.56,-400.89 471.99,-393.48 469.02,-399.82"/>
</g>
<!-- http://purl.org/oseg/ontologies/OTRL#ODRL&#45;2 -->
<g id="node14" class="node">
<title>http://purl.org/oseg/ontologies/OTRL#ODRL&#45;2</title>
<ellipse fill="none" stroke="#e377c2" cx="216.16" cy="-838.73" rx="50.82" ry="16.03"/>
<text text-anchor="middle" x="216.16" y="-835.03" font-family="Times,serif" font-size="14.00">ODRL&#45;2</text>
</g>
<!-- http://purl.org/oseg/ontologies/OTRL#ODRL&#45;2&#45;&gt;http://www.w3.org/2002/07/owl#class -->
<g id="edge36" class="edge">
<title>http://purl.org/oseg/ontologies/OTRL#ODRL&#45;2&#45;&gt;http://www.w3.org/2002/07/owl#class</title>
<path fill="none" stroke="black" d="M221.93,-822.49C237.15,-779.67 278.44,-663.44 296.98,-611.25"/>
<polygon fill="black" stroke="black" points="300.32,-612.3 300.37,-601.71 293.73,-609.96 300.32,-612.3"/>
<text text-anchor="middle" x="254.96" y="-720.67" font-family="Times,serif" font-size="14.00">a</text>
</g>
<!-- http://purl.org/oseg/ontologies/OTRL#ODRL&#45;2&#45;&gt;http://purl.org/oseg/ontologies/OTRL#ODRL -->
<g id="edge45" class="edge">
<title>http://purl.org/oseg/ontologies/OTRL#ODRL&#45;2&#45;&gt;http://purl.org/oseg/ontologies/OTRL#ODRL</title>
<path fill="none" stroke="black" d="M211,-822.44C204.11,-800.69 191.82,-761.93 183.63,-736.11"/>
<polygon fill="black" stroke="black" points="186.87,-734.74 180.51,-726.26 180.2,-736.85 186.87,-734.74"/>
</g>
<!-- http://purl.org/oseg/ontologies/OTRL#OTRL&#45;6 -->
<g id="node15" class="node">
<title>http://purl.org/oseg/ontologies/OTRL#OTRL&#45;6</title>
<ellipse fill="none" stroke="#e377c2" cx="510.25" cy="-643.89" rx="49.49" ry="16.03"/>
<text text-anchor="middle" x="510.25" y="-640.19" font-family="Times,serif" font-size="14.00">OTRL&#45;6</text>
</g>
<!-- http://purl.org/oseg/ontologies/OTRL#OTRL&#45;6&#45;&gt;http://www.w3.org/2002/07/owl#class -->
<g id="edge11" class="edge">
<title>http://purl.org/oseg/ontologies/OTRL#OTRL&#45;6&#45;&gt;http://www.w3.org/2002/07/owl#class</title>
<path fill="none" stroke="black" d="M472.83,-633.14C440.12,-623.75 392.37,-610.03 356.36,-599.68"/>
<polygon fill="black" stroke="black" points="357.12,-596.26 346.54,-596.86 355.19,-602.99 357.12,-596.26"/>
<text text-anchor="middle" x="410.09" y="-620.21" font-family="Times,serif" font-size="14.00">a</text>
</g>
<!-- http://purl.org/oseg/ontologies/OTRL#OTRL&#45;6&#45;&gt;http://purl.org/oseg/ontologies/OTRL#OTRL -->
<g id="edge4" class="edge">
<title>http://purl.org/oseg/ontologies/OTRL#OTRL&#45;6&#45;&gt;http://purl.org/oseg/ontologies/OTRL#OTRL</title>
<path fill="none" stroke="black" d="M509.93,-627.3C509.18,-587.82 507.27,-487.97 506.36,-439.89"/>
<polygon fill="black" stroke="black" points="509.85,-439.58 506.16,-429.65 502.85,-439.71 509.85,-439.58"/>
</g>
<!-- http://purl.org/oseg/ontologies/OTRL#OTRL&#45;3 -->
<g id="node16" class="node">
<title>http://purl.org/oseg/ontologies/OTRL#OTRL&#45;3</title>
<ellipse fill="none" stroke="#e377c2" cx="443.2" cy="-372.34" rx="49.49" ry="16.03"/>
<text text-anchor="middle" x="443.2" y="-368.64" font-family="Times,serif" font-size="14.00">OTRL&#45;3</text>
</g>
<!-- http://purl.org/oseg/ontologies/OTRL#OTRL&#45;3&#45;&gt;http://www.w3.org/2002/07/owl#class -->
<g id="edge38" class="edge">
<title>http://purl.org/oseg/ontologies/OTRL#OTRL&#45;3&#45;&gt;http://www.w3.org/2002/07/owl#class</title>
<path fill="none" stroke="black" d="M432.9,-388.35C409.2,-425.19 350.65,-516.21 322.21,-560.4"/>
<polygon fill="black" stroke="black" points="319.09,-558.78 316.63,-569.09 324.98,-562.57 319.09,-558.78"/>
<text text-anchor="middle" x="373.06" y="-463.17" font-family="Times,serif" font-size="14.00">a</text>
</g>
<!-- http://purl.org/oseg/ontologies/OTRL#OTRL&#45;3&#45;&gt;http://purl.org/oseg/ontologies/OTRL#OTRL -->
<g id="edge30" class="edge">
<title>http://purl.org/oseg/ontologies/OTRL#OTRL&#45;3&#45;&gt;http://purl.org/oseg/ontologies/OTRL#OTRL</title>
<path fill="none" stroke="black" d="M465.82,-387.1C469.19,-389.3 472.71,-391.59 476.2,-393.87"/>
<polygon fill="black" stroke="black" points="474.44,-396.9 484.72,-399.43 478.26,-391.03 474.44,-396.9"/>
</g>
<!-- http://purl.org/oseg/ontologies/OTRL#OTRL&#45;2 -->
<g id="node17" class="node">
<title>http://purl.org/oseg/ontologies/OTRL#OTRL&#45;2</title>
<ellipse fill="none" stroke="#e377c2" cx="450.59" cy="-600.73" rx="49.49" ry="16.03"/>
<text text-anchor="middle" x="450.59" y="-597.03" font-family="Times,serif" font-size="14.00">OTRL&#45;2</text>
</g>
<!-- http://purl.org/oseg/ontologies/OTRL#OTRL&#45;2&#45;&gt;http://www.w3.org/2002/07/owl#class -->
<g id="edge39" class="edge">
<title>http://purl.org/oseg/ontologies/OTRL#OTRL&#45;2&#45;&gt;http://www.w3.org/2002/07/owl#class</title>
<path fill="none" stroke="black" d="M403.32,-595.67C392.67,-594.53 381.21,-593.3 370.02,-592.11"/>
<polygon fill="black" stroke="black" points="370.16,-588.6 359.85,-591.02 369.42,-595.56 370.16,-588.6"/>
<text text-anchor="middle" x="382.17" y="-597.69" font-family="Times,serif" font-size="14.00">a</text>
</g>
<!-- http://purl.org/oseg/ontologies/OTRL#OTRL&#45;2&#45;&gt;http://purl.org/oseg/ontologies/OTRL#OTRL -->
<g id="edge31" class="edge">
<title>http://purl.org/oseg/ontologies/OTRL#OTRL&#45;2&#45;&gt;http://purl.org/oseg/ontologies/OTRL#OTRL</title>
<path fill="none" stroke="black" d="M455.4,-584.42C464.99,-551.86 486.58,-478.59 498.16,-439.29"/>
<polygon fill="black" stroke="black" points="501.54,-440.2 501.01,-429.62 494.83,-438.22 501.54,-440.2"/>
</g>
<!-- http://purl.org/oseg/ontologies/OTRL#documentationDescription -->
<g id="node18" class="node">
<title>http://purl.org/oseg/ontologies/OTRL#documentationDescription</title>
<ellipse fill="none" stroke="#e377c2" cx="781.59" cy="-276.55" rx="120.83" ry="16.03"/>
<text text-anchor="middle" x="781.59" y="-272.85" font-family="Times,serif" font-size="14.00">documentationDesc...</text>
</g>
<!-- http://purl.org/oseg/ontologies/OTRL#documentationDescription&#45;&gt;http://www.w3.org/2002/07/owl#DatatypeProperty -->
<g id="edge40" class="edge">
<title>http://purl.org/oseg/ontologies/OTRL#documentationDescription&#45;&gt;http://www.w3.org/2002/07/owl#DatatypeProperty</title>
<path fill="none" stroke="black" d="M790.18,-260.24C813.4,-216.17 877.55,-94.43 905.56,-41.27"/>
<polygon fill="black" stroke="black" points="908.79,-42.65 910.35,-32.17 902.6,-39.39 908.79,-42.65"/>
<text text-anchor="middle" x="843.37" y="-154.56" font-family="Times,serif" font-size="14.00">a</text>
</g>
<!-- http://purl.org/oseg/ontologies/OTRL#documentationDescription&#45;&gt;http://purl.org/oseg/ontologies/OTRL#OTRL -->
<g id="edge41" class="edge">
<title>http://purl.org/oseg/ontologies/OTRL#documentationDescription&#45;&gt;http://purl.org/oseg/ontologies/OTRL#OTRL</title>
<path fill="none" stroke="black" d="M749.69,-292.36C697.53,-318.21 594.42,-369.31 540.52,-396.02"/>
<polygon fill="black" stroke="black" points="538.77,-392.98 531.37,-400.56 541.88,-399.25 538.77,-392.98"/>
<text text-anchor="middle" x="618.6" y="-347.99" font-family="Times,serif" font-size="14.00">domain</text>
</g>
<!-- http://purl.org/oseg/ontologies/OTRL#documentationDescription&#45;&gt;http://schema.org/Text -->
<g id="edge1" class="edge">
<title>http://purl.org/oseg/ontologies/OTRL#documentationDescription&#45;&gt;http://schema.org/Text</title>
<path fill="none" stroke="black" d="M796.32,-260.19C821.66,-232.05 873.59,-174.38 902.91,-141.83"/>
<polygon fill="black" stroke="black" points="905.76,-143.9 909.85,-134.12 900.56,-139.21 905.76,-143.9"/>
<text text-anchor="middle" x="828.62" y="-204.81" font-family="Times,serif" font-size="14.00">range</text>
</g>
<!-- http://purl.org/oseg/ontologies/OTRL#softwareDescription -->
<g id="node19" class="node">
<title>http://purl.org/oseg/ontologies/OTRL#softwareDescription</title>
<ellipse fill="none" stroke="#e377c2" cx="821.95" cy="-345.25" rx="113.69" ry="16.03"/>
<text text-anchor="middle" x="821.95" y="-341.55" font-family="Times,serif" font-size="14.00">softwareDescription</text>
</g>
<!-- http://purl.org/oseg/ontologies/OTRL#softwareDescription&#45;&gt;http://www.w3.org/2002/07/owl#DatatypeProperty -->
<g id="edge13" class="edge">
<title>http://purl.org/oseg/ontologies/OTRL#softwareDescription&#45;&gt;http://www.w3.org/2002/07/owl#DatatypeProperty</title>
<path fill="none" stroke="black" d="M826.76,-328.92C842.4,-275.8 891.93,-107.62 911.18,-42.23"/>
<polygon fill="black" stroke="black" points="914.64,-42.89 914.1,-32.31 907.92,-40.91 914.64,-42.89"/>
<text text-anchor="middle" x="864.47" y="-189.38" font-family="Times,serif" font-size="14.00">a</text>
</g>
<!-- http://purl.org/oseg/ontologies/OTRL#softwareDescription&#45;&gt;http://purl.org/oseg/ontologies/OTRL#OTRL -->
<g id="edge15" class="edge">
<title>http://purl.org/oseg/ontologies/OTRL#softwareDescription&#45;&gt;http://purl.org/oseg/ontologies/OTRL#OTRL</title>
<path fill="none" stroke="black" d="M758.74,-358.84C697.3,-372.05 605.51,-391.78 551.06,-403.49"/>
<polygon fill="black" stroke="black" points="550.06,-400.12 541.02,-405.65 551.53,-406.97 550.06,-400.12"/>
<text text-anchor="middle" x="628.4" y="-384.96" font-family="Times,serif" font-size="14.00">domain</text>
</g>
<!-- http://purl.org/oseg/ontologies/OTRL#softwareDescription&#45;&gt;http://schema.org/Text -->
<g id="edge28" class="edge">
<title>http://purl.org/oseg/ontologies/OTRL#softwareDescription&#45;&gt;http://schema.org/Text</title>
<path fill="none" stroke="black" d="M829.31,-328.92C846.94,-289.79 891.68,-190.46 912.85,-143.47"/>
<polygon fill="black" stroke="black" points="916.08,-144.83 917,-134.28 909.7,-141.96 916.08,-144.83"/>
<text text-anchor="middle" x="850.08" y="-239.99" font-family="Times,serif" font-size="14.00">range</text>
</g>
<!-- http://purl.org/oseg/ontologies/OTRL#OTRL&#45;1 -->
<g id="node20" class="node">
<title>http://purl.org/oseg/ontologies/OTRL#OTRL&#45;1</title>
<ellipse fill="none" stroke="#e377c2" cx="375.42" cy="-485.41" rx="49.49" ry="16.03"/>
<text text-anchor="middle" x="375.42" y="-481.71" font-family="Times,serif" font-size="14.00">OTRL&#45;1</text>
</g>
<!-- http://purl.org/oseg/ontologies/OTRL#OTRL&#45;1&#45;&gt;http://www.w3.org/2002/07/owl#class -->
<g id="edge14" class="edge">
<title>http://purl.org/oseg/ontologies/OTRL#OTRL&#45;1&#45;&gt;http://www.w3.org/2002/07/owl#class</title>
<path fill="none" stroke="black" d="M364.3,-501.46C353.15,-517.54 335.84,-542.52 323.02,-561.03"/>
<polygon fill="black" stroke="black" points="320.12,-559.06 317.3,-569.27 325.88,-563.04 320.12,-559.06"/>
<text text-anchor="middle" x="339.16" y="-535.04" font-family="Times,serif" font-size="14.00">a</text>
</g>
<!-- http://purl.org/oseg/ontologies/OTRL#OTRL&#45;1&#45;&gt;http://purl.org/oseg/ontologies/OTRL#OTRL -->
<g id="edge10" class="edge">
<title>http://purl.org/oseg/ontologies/OTRL#OTRL&#45;1&#45;&gt;http://purl.org/oseg/ontologies/OTRL#OTRL</title>
<path fill="none" stroke="black" d="M400.87,-471.32C421.59,-459.85 450.97,-443.58 473.38,-431.18"/>
<polygon fill="black" stroke="black" points="475.16,-434.2 482.21,-426.29 471.77,-428.07 475.16,-434.2"/>
</g>
<!-- http://purl.org/oseg/ontologies/OTRL#OTRL&#45;9 -->
<g id="node21" class="node">
<title>http://purl.org/oseg/ontologies/OTRL#OTRL&#45;9</title>
<ellipse fill="none" stroke="#e377c2" cx="567.14" cy="-600.74" rx="49.49" ry="16.03"/>
<text text-anchor="middle" x="567.14" y="-597.04" font-family="Times,serif" font-size="14.00">OTRL&#45;9</text>
</g>
<!-- http://purl.org/oseg/ontologies/OTRL#OTRL&#45;9&#45;&gt;http://www.w3.org/2002/07/owl#class -->
<g id="edge42" class="edge">
<title>http://purl.org/oseg/ontologies/OTRL#OTRL&#45;9&#45;&gt;http://www.w3.org/2002/07/owl#class</title>
<path fill="none" stroke="black" d="M518.37,-597.85C477.23,-595.41 417.95,-591.9 372.51,-589.2"/>
<polygon fill="black" stroke="black" points="372.64,-585.71 362.45,-588.61 372.23,-592.69 372.64,-585.71"/>
<text text-anchor="middle" x="440.94" y="-582.33" font-family="Times,serif" font-size="14.00">a</text>
</g>
<!-- http://purl.org/oseg/ontologies/OTRL#OTRL&#45;9&#45;&gt;http://purl.org/oseg/ontologies/OTRL#OTRL -->
<g id="edge37" class="edge">
<title>http://purl.org/oseg/ontologies/OTRL#OTRL&#45;9&#45;&gt;http://purl.org/oseg/ontologies/OTRL#OTRL</title>
<path fill="none" stroke="black" d="M561.81,-584.42C551.14,-551.79 527.1,-478.22 514.27,-438.99"/>
<polygon fill="black" stroke="black" points="517.56,-437.77 511.12,-429.35 510.9,-439.94 517.56,-437.77"/>
</g>
<!-- http://purl.org/oseg/ontologies/OTRL#OTRL&#45;4 -->
<g id="node22" class="node">
<title>http://purl.org/oseg/ontologies/OTRL#OTRL&#45;4</title>
<ellipse fill="none" stroke="#e377c2" cx="525.39" cy="-540.35" rx="49.49" ry="16.03"/>
<text text-anchor="middle" x="525.39" y="-536.65" font-family="Times,serif" font-size="14.00">OTRL&#45;4</text>
</g>
<!-- http://purl.org/oseg/ontologies/OTRL#OTRL&#45;4&#45;&gt;http://www.w3.org/2002/07/owl#class -->
<g id="edge17" class="edge">
<title>http://purl.org/oseg/ontologies/OTRL#OTRL&#45;4&#45;&gt;http://www.w3.org/2002/07/owl#class</title>
<path fill="none" stroke="black" d="M483.39,-548.96C449.16,-555.97 400.49,-565.95 362.82,-573.67"/>
<polygon fill="black" stroke="black" points="362.1,-570.25 353.01,-575.68 363.5,-577.1 362.1,-570.25"/>
<text text-anchor="middle" x="418.61" y="-565.11" font-family="Times,serif" font-size="14.00">a</text>
</g>
<!-- http://purl.org/oseg/ontologies/OTRL#OTRL&#45;4&#45;&gt;http://purl.org/oseg/ontologies/OTRL#OTRL -->
<g id="edge23" class="edge">
<title>http://purl.org/oseg/ontologies/OTRL#OTRL&#45;4&#45;&gt;http://purl.org/oseg/ontologies/OTRL#OTRL</title>
<path fill="none" stroke="black" d="M522.87,-523.98C519.59,-502.62 513.8,-464.97 509.9,-439.56"/>
<polygon fill="black" stroke="black" points="513.33,-438.86 508.35,-429.5 506.41,-439.92 513.33,-438.86"/>
</g>
<!-- http://purl.org/oseg/ontologies/OTRL#OTRL&#45;7 -->
<g id="node23" class="node">
<title>http://purl.org/oseg/ontologies/OTRL#OTRL&#45;7</title>
<ellipse fill="none" stroke="#e377c2" cx="339.5" cy="-415.74" rx="49.49" ry="16.03"/>
<text text-anchor="middle" x="339.5" y="-412.04" font-family="Times,serif" font-size="14.00">OTRL&#45;7</text>
</g>
<!-- http://purl.org/oseg/ontologies/OTRL#OTRL&#45;7&#45;&gt;http://www.w3.org/2002/07/owl#class -->
<g id="edge18" class="edge">
<title>http://purl.org/oseg/ontologies/OTRL#OTRL&#45;7&#45;&gt;http://www.w3.org/2002/07/owl#class</title>
<path fill="none" stroke="black" d="M336.31,-431.99C330.56,-461.28 318.4,-523.18 311.43,-558.71"/>
<polygon fill="black" stroke="black" points="307.93,-558.33 309.44,-568.82 314.8,-559.68 307.93,-558.33"/>
<text text-anchor="middle" x="319.37" y="-499.15" font-family="Times,serif" font-size="14.00">a</text>
</g>
<!-- http://purl.org/oseg/ontologies/OTRL#OTRL&#45;7&#45;&gt;http://purl.org/oseg/ontologies/OTRL#OTRL -->
<g id="edge12" class="edge">
<title>http://purl.org/oseg/ontologies/OTRL#OTRL&#45;7&#45;&gt;http://purl.org/oseg/ontologies/OTRL#OTRL</title>
<path fill="none" stroke="black" d="M388.96,-414.98C410.11,-414.66 434.76,-414.29 455.96,-413.96"/>
<polygon fill="black" stroke="black" points="456.12,-417.46 466.06,-413.81 456.01,-410.46 456.12,-417.46"/>
</g>
<!-- http://purl.org/oseg/ontologies/OTRL#ODRL&#45;3 -->
<g id="node24" class="node">
<title>http://purl.org/oseg/ontologies/OTRL#ODRL&#45;3</title>
<ellipse fill="none" stroke="#e377c2" cx="140.35" cy="-797.94" rx="50.82" ry="16.03"/>
<text text-anchor="middle" x="140.35" y="-794.24" font-family="Times,serif" font-size="14.00">ODRL&#45;3</text>
</g>
<!-- http://purl.org/oseg/ontologies/OTRL#ODRL&#45;3&#45;&gt;http://www.w3.org/2002/07/owl#class -->
<g id="edge43" class="edge">
<title>http://purl.org/oseg/ontologies/OTRL#ODRL&#45;3&#45;&gt;http://www.w3.org/2002/07/owl#class</title>
<path fill="none" stroke="black" d="M152.81,-781.95C181.7,-744.91 253.35,-653.04 287.52,-609.24"/>
<polygon fill="black" stroke="black" points="290.44,-611.19 293.83,-601.15 284.92,-606.89 290.44,-611.19"/>
<text text-anchor="middle" x="224.67" y="-699.4" font-family="Times,serif" font-size="14.00">a</text>
</g>
<!-- http://purl.org/oseg/ontologies/OTRL#ODRL&#45;3&#45;&gt;http://purl.org/oseg/ontologies/OTRL#ODRL -->
<g id="edge9" class="edge">
<title>http://purl.org/oseg/ontologies/OTRL#ODRL&#45;3&#45;&gt;http://purl.org/oseg/ontologies/OTRL#ODRL</title>
<path fill="none" stroke="black" d="M146.94,-781.41C152.06,-768.57 159.26,-750.53 165.13,-735.81"/>
<polygon fill="black" stroke="black" points="168.49,-736.84 168.94,-726.25 161.99,-734.24 168.49,-736.84"/>
</g>
<!-- http://purl.org/oseg/ontologies/OTRL#ODRL&#45;0 -->
<g id="node25" class="node">
<title>http://purl.org/oseg/ontologies/OTRL#ODRL&#45;0</title>
<ellipse fill="none" stroke="#e377c2" cx="333.35" cy="-814.11" rx="50.82" ry="16.03"/>
<text text-anchor="middle" x="333.35" y="-810.41" font-family="Times,serif" font-size="14.00">ODRL&#45;0</text>
</g>
<!-- http://purl.org/oseg/ontologies/OTRL#ODRL&#45;0&#45;&gt;http://www.w3.org/2002/07/owl#class -->
<g id="edge20" class="edge">
<title>http://purl.org/oseg/ontologies/OTRL#ODRL&#45;0&#45;&gt;http://www.w3.org/2002/07/owl#class</title>
<path fill="none" stroke="black" d="M331.4,-797.65C326.76,-758.48 315.01,-659.43 309.35,-611.74"/>
<polygon fill="black" stroke="black" points="312.8,-611.1 308.15,-601.58 305.85,-611.93 312.8,-611.1"/>
<text text-anchor="middle" x="315.88" y="-708.5" font-family="Times,serif" font-size="14.00">a</text>
</g>
<!-- http://purl.org/oseg/ontologies/OTRL#ODRL&#45;0&#45;&gt;http://purl.org/oseg/ontologies/OTRL#ODRL -->
<g id="edge35" class="edge">
<title>http://purl.org/oseg/ontologies/OTRL#ODRL&#45;0&#45;&gt;http://purl.org/oseg/ontologies/OTRL#ODRL</title>
<path fill="none" stroke="black" d="M311.06,-799.43C283.42,-781.23 236.22,-750.16 205.42,-729.88"/>
<polygon fill="black" stroke="black" points="207.09,-726.78 196.81,-724.21 203.24,-732.63 207.09,-726.78"/>
</g>
<!-- http://purl.org/oseg/ontologies/OTRL#OTRL&#45;8 -->
<g id="node26" class="node">
<title>http://purl.org/oseg/ontologies/OTRL#OTRL&#45;8</title>
<ellipse fill="none" stroke="#e377c2" cx="238.89" cy="-370.12" rx="49.49" ry="16.03"/>
<text text-anchor="middle" x="238.89" y="-366.42" font-family="Times,serif" font-size="14.00">OTRL&#45;8</text>
</g>
<!-- http://purl.org/oseg/ontologies/OTRL#OTRL&#45;8&#45;&gt;http://www.w3.org/2002/07/owl#class -->
<g id="edge44" class="edge">
<title>http://purl.org/oseg/ontologies/OTRL#OTRL&#45;8&#45;&gt;http://www.w3.org/2002/07/owl#class</title>
<path fill="none" stroke="black" d="M244.06,-386.64C255.71,-423.89 284.1,-514.63 298.12,-559.41"/>
<polygon fill="black" stroke="black" points="294.79,-560.49 301.11,-568.99 301.47,-558.4 294.79,-560.49"/>
<text text-anchor="middle" x="266.59" y="-476.83" font-family="Times,serif" font-size="14.00">a</text>
</g>
<!-- http://purl.org/oseg/ontologies/OTRL#OTRL&#45;8&#45;&gt;http://purl.org/oseg/ontologies/OTRL#OTRL -->
<g id="edge3" class="edge">
<title>http://purl.org/oseg/ontologies/OTRL#OTRL&#45;8&#45;&gt;http://purl.org/oseg/ontologies/OTRL#OTRL</title>
<path fill="none" stroke="black" d="M283.57,-377.33C332.07,-385.16 409.2,-397.61 458.66,-405.59"/>
<polygon fill="black" stroke="black" points="458.34,-409.08 468.77,-407.22 459.46,-402.17 458.34,-409.08"/>
</g>
</g>
</svg>
