<?xml version="1.0" encoding="UTF-8" standalone="no"?>
<!DOCTYPE svg PUBLIC "-//W3C//DTD SVG 1.1//EN"
 "http://www.w3.org/Graphics/SVG/1.1/DTD/svg11.dtd">
<!-- Generated by graphviz version 2.43.0 (0)
 -->
<!-- Title: G Pages: 1 -->
<svg width="971pt" height="760pt"
 viewBox="0.00 0.00 971.00 760.00" xmlns="http://www.w3.org/2000/svg" xmlns:xlink="http://www.w3.org/1999/xlink">
<g id="graph0" class="graph" transform="scale(1 1) rotate(0) translate(4 756)">
<title>G</title>
<polygon fill="white" stroke="transparent" points="-4,4 -4,-756 967,-756 967,4 -4,4"/>
<!-- http://www.w3.org/2002/07/owl#class -->
<g id="node1" class="node">
<title>http://www.w3.org/2002/07/owl#class</title>
<ellipse fill="none" stroke="#1f77b4" cx="675.36" cy="-475.68" rx="57.05" ry="16.03"/>
<text text-anchor="middle" x="675.36" y="-471.98" font-family="Times,serif" font-size="14.00">owl:class</text>
</g>
<!-- http://purl.org/oseg/ontologies/OTRL#ODRL -->
<g id="node2" class="node">
<title>http://purl.org/oseg/ontologies/OTRL#ODRL</title>
<ellipse fill="none" stroke="#e377c2" cx="792.38" cy="-604.05" rx="41.94" ry="16.03"/>
<text text-anchor="middle" x="792.38" y="-600.35" font-family="Times,serif" font-size="14.00">ODRL</text>
</g>
<!-- http://purl.org/oseg/ontologies/OTRL#ODRL&#45;&gt;http://www.w3.org/2002/07/owl#class -->
<g id="edge29" class="edge">
<title>http://purl.org/oseg/ontologies/OTRL#ODRL&#45;&gt;http://www.w3.org/2002/07/owl#class</title>
<path fill="none" stroke="black" d="M778.26,-588.57C757.99,-566.33 720.47,-525.17 696.77,-499.17"/>
<polygon fill="black" stroke="black" points="699.21,-496.66 689.89,-491.63 694.04,-501.37 699.21,-496.66"/>
<text text-anchor="middle" x="733.02" y="-547.67" font-family="Times,serif" font-size="14.00">a</text>
</g>
<!-- http://purl.org/oseg/ontologies/OTRL#OTRL -->
<g id="node3" class="node">
<title>http://purl.org/oseg/ontologies/OTRL#OTRL</title>
<ellipse fill="none" stroke="#e377c2" cx="486.03" cy="-303.62" rx="39.7" ry="16.03"/>
<text text-anchor="middle" x="486.03" y="-299.92" font-family="Times,serif" font-size="14.00">OTRL</text>
</g>
<!-- http://purl.org/oseg/ontologies/OTRL#OTRL&#45;&gt;http://www.w3.org/2002/07/owl#class -->
<g id="edge15" class="edge">
<title>http://purl.org/oseg/ontologies/OTRL#OTRL&#45;&gt;http://www.w3.org/2002/07/owl#class</title>
<path fill="none" stroke="black" d="M502.5,-318.59C535.76,-348.81 611.11,-417.3 650.43,-453.03"/>
<polygon fill="black" stroke="black" points="648.49,-456 658.25,-460.13 653.2,-450.82 648.49,-456"/>
<text text-anchor="middle" x="571.96" y="-389.61" font-family="Times,serif" font-size="14.00">a</text>
</g>
<!-- http://purl.org/oseg/ontologies/OTRL#ODRL&#45;5 -->
<g id="node4" class="node">
<title>http://purl.org/oseg/ontologies/OTRL#ODRL&#45;5</title>
<ellipse fill="none" stroke="#e377c2" cx="893.08" cy="-599.58" rx="50.82" ry="16.03"/>
<text text-anchor="middle" x="893.08" y="-595.88" font-family="Times,serif" font-size="14.00">ODRL&#45;5</text>
</g>
<!-- http://purl.org/oseg/ontologies/OTRL#ODRL&#45;5&#45;&gt;http://www.w3.org/2002/07/owl#class -->
<g id="edge3" class="edge">
<title>http://purl.org/oseg/ontologies/OTRL#ODRL&#45;5&#45;&gt;http://www.w3.org/2002/07/owl#class</title>
<path fill="none" stroke="black" d="M868.1,-585.37C829.21,-563.24 754.06,-520.47 709.96,-495.38"/>
<polygon fill="black" stroke="black" points="711.47,-492.21 701.05,-490.31 708.01,-498.29 711.47,-492.21"/>
<text text-anchor="middle" x="784.53" y="-544.17" font-family="Times,serif" font-size="14.00">a</text>
</g>
<!-- http://purl.org/oseg/ontologies/OTRL#ODRL&#45;5&#45;&gt;http://purl.org/oseg/ontologies/OTRL#ODRL -->
<g id="edge14" class="edge">
<title>http://purl.org/oseg/ontologies/OTRL#ODRL&#45;5&#45;&gt;http://purl.org/oseg/ontologies/OTRL#ODRL</title>
<path fill="none" stroke="black" d="M842.43,-601.83C842.35,-601.83 842.26,-601.84 842.17,-601.84"/>
<polygon fill="black" stroke="black" points="843.79,-598.27 833.95,-602.21 844.1,-605.26 843.79,-598.27"/>
</g>
<!-- http://purl.org/oseg/ontologies/OTRL#OTRL&#45;5 -->
<g id="node5" class="node">
<title>http://purl.org/oseg/ontologies/OTRL#OTRL&#45;5</title>
<ellipse fill="none" stroke="#e377c2" cx="440.14" cy="-419.34" rx="49.49" ry="16.03"/>
<text text-anchor="middle" x="440.14" y="-415.64" font-family="Times,serif" font-size="14.00">OTRL&#45;5</text>
</g>
<!-- http://purl.org/oseg/ontologies/OTRL#OTRL&#45;5&#45;&gt;http://www.w3.org/2002/07/owl#class -->
<g id="edge5" class="edge">
<title>http://purl.org/oseg/ontologies/OTRL#OTRL&#45;5&#45;&gt;http://www.w3.org/2002/07/owl#class</title>
<path fill="none" stroke="black" d="M480.3,-428.96C519.26,-438.29 578.62,-452.51 621.62,-462.81"/>
<polygon fill="black" stroke="black" points="620.82,-466.22 631.36,-465.14 622.45,-459.41 620.82,-466.22"/>
<text text-anchor="middle" x="546.46" y="-434.68" font-family="Times,serif" font-size="14.00">a</text>
</g>
<!-- http://purl.org/oseg/ontologies/OTRL#OTRL&#45;5&#45;&gt;http://purl.org/oseg/ontologies/OTRL#OTRL -->
<g id="edge25" class="edge">
<title>http://purl.org/oseg/ontologies/OTRL#OTRL&#45;5&#45;&gt;http://purl.org/oseg/ontologies/OTRL#OTRL</title>
<path fill="none" stroke="black" d="M446.71,-402.76C454.32,-383.57 466.94,-351.75 475.82,-329.35"/>
<polygon fill="black" stroke="black" points="479.18,-330.38 479.61,-319.79 472.67,-327.8 479.18,-330.38"/>
</g>
<!-- http://schema.org/Text -->
<g id="node6" class="node">
<title>http://schema.org/Text</title>
<ellipse fill="none" stroke="#e377c2" cx="74.59" cy="-15.78" rx="74.91" ry="16.03"/>
<text text-anchor="middle" x="74.59" y="-12.08" font-family="Times,serif" font-size="14.00">schema:Text</text>
</g>
<!-- http://purl.org/oseg/ontologies/OTRL#ODRL&#45;3 -->
<g id="node7" class="node">
<title>http://purl.org/oseg/ontologies/OTRL#ODRL&#45;3</title>
<ellipse fill="none" stroke="#e377c2" cx="826.07" cy="-694.76" rx="50.82" ry="16.03"/>
<text text-anchor="middle" x="826.07" y="-691.06" font-family="Times,serif" font-size="14.00">ODRL&#45;3</text>
</g>
<!-- http://purl.org/oseg/ontologies/OTRL#ODRL&#45;3&#45;&gt;http://www.w3.org/2002/07/owl#class -->
<g id="edge11" class="edge">
<title>http://purl.org/oseg/ontologies/OTRL#ODRL&#45;3&#45;&gt;http://www.w3.org/2002/07/owl#class</title>
<path fill="none" stroke="black" d="M814.99,-678.65C788.86,-640.67 723.27,-545.32 692.19,-500.15"/>
<polygon fill="black" stroke="black" points="695.01,-498.07 686.46,-491.82 689.24,-502.04 695.01,-498.07"/>
<text text-anchor="middle" x="749.09" y="-578.2" font-family="Times,serif" font-size="14.00">a</text>
</g>
<!-- http://purl.org/oseg/ontologies/OTRL#ODRL&#45;3&#45;&gt;http://purl.org/oseg/ontologies/OTRL#ODRL -->
<g id="edge23" class="edge">
<title>http://purl.org/oseg/ontologies/OTRL#ODRL&#45;3&#45;&gt;http://purl.org/oseg/ontologies/OTRL#ODRL</title>
<path fill="none" stroke="black" d="M820.05,-678.54C815.05,-665.08 807.84,-645.69 802.04,-630.06"/>
<polygon fill="black" stroke="black" points="805.23,-628.59 798.47,-620.43 798.67,-631.03 805.23,-628.59"/>
</g>
<!-- http://purl.org/oseg/ontologies/OTRL#exitCriteria -->
<g id="node8" class="node">
<title>http://purl.org/oseg/ontologies/OTRL#exitCriteria</title>
<ellipse fill="none" stroke="#e377c2" cx="302.95" cy="-135.47" rx="70.01" ry="16.03"/>
<text text-anchor="middle" x="302.95" y="-131.77" font-family="Times,serif" font-size="14.00">exitCriteria</text>
</g>
<!-- http://purl.org/oseg/ontologies/OTRL#exitCriteria&#45;&gt;http://purl.org/oseg/ontologies/OTRL#OTRL -->
<g id="edge36" class="edge">
<title>http://purl.org/oseg/ontologies/OTRL#exitCriteria&#45;&gt;http://purl.org/oseg/ontologies/OTRL#OTRL</title>
<path fill="none" stroke="black" d="M320.17,-151.29C353.08,-181.52 424.94,-247.51 462.34,-281.86"/>
<polygon fill="black" stroke="black" points="460.04,-284.5 469.77,-288.69 464.77,-279.35 460.04,-284.5"/>
<text text-anchor="middle" x="364.76" y="-220.38" font-family="Times,serif" font-size="14.00">domain</text>
</g>
<!-- http://purl.org/oseg/ontologies/OTRL#exitCriteria&#45;&gt;http://schema.org/Text -->
<g id="edge34" class="edge">
<title>http://purl.org/oseg/ontologies/OTRL#exitCriteria&#45;&gt;http://schema.org/Text</title>
<path fill="none" stroke="black" d="M274.49,-120.56C233.55,-99.1 157.96,-59.48 112.38,-35.59"/>
<polygon fill="black" stroke="black" points="113.89,-32.43 103.4,-30.89 110.64,-38.63 113.89,-32.43"/>
<text text-anchor="middle" x="172.43" y="-81.87" font-family="Times,serif" font-size="14.00">range</text>
</g>
<!-- http://purl.org/oseg/ontologies/OTRL#softwareDescription -->
<g id="node9" class="node">
<title>http://purl.org/oseg/ontologies/OTRL#softwareDescription</title>
<ellipse fill="none" stroke="#e377c2" cx="354.4" cy="-27.27" rx="113.69" ry="16.03"/>
<text text-anchor="middle" x="354.4" y="-23.57" font-family="Times,serif" font-size="14.00">softwareDescription</text>
</g>
<!-- http://purl.org/oseg/ontologies/OTRL#softwareDescription&#45;&gt;http://purl.org/oseg/ontologies/OTRL#OTRL -->
<g id="edge16" class="edge">
<title>http://purl.org/oseg/ontologies/OTRL#softwareDescription&#45;&gt;http://purl.org/oseg/ontologies/OTRL#OTRL</title>
<path fill="none" stroke="black" d="M362.24,-43.73C384.38,-90.21 447.47,-222.68 474.02,-278.41"/>
<polygon fill="black" stroke="black" points="470.93,-280.07 478.39,-287.59 477.25,-277.06 470.93,-280.07"/>
<text text-anchor="middle" x="391.63" y="-164.87" font-family="Times,serif" font-size="14.00">domain</text>
</g>
<!-- http://purl.org/oseg/ontologies/OTRL#softwareDescription&#45;&gt;http://schema.org/Text -->
<g id="edge13" class="edge">
<title>http://purl.org/oseg/ontologies/OTRL#softwareDescription&#45;&gt;http://schema.org/Text</title>
<path fill="none" stroke="black" d="M244.61,-22.76C215.97,-21.59 185.55,-20.34 158.49,-19.23"/>
<polygon fill="black" stroke="black" points="158.42,-15.72 148.29,-18.81 158.14,-22.72 158.42,-15.72"/>
<text text-anchor="middle" x="180.55" y="-24.8" font-family="Times,serif" font-size="14.00">range</text>
</g>
<!-- http://purl.org/oseg/ontologies/OTRL#ODRL&#45;1 -->
<g id="node10" class="node">
<title>http://purl.org/oseg/ontologies/OTRL#ODRL&#45;1</title>
<ellipse fill="none" stroke="#e377c2" cx="912.08" cy="-518.57" rx="50.82" ry="16.03"/>
<text text-anchor="middle" x="912.08" y="-514.87" font-family="Times,serif" font-size="14.00">ODRL&#45;1</text>
</g>
<!-- http://purl.org/oseg/ontologies/OTRL#ODRL&#45;1&#45;&gt;http://www.w3.org/2002/07/owl#class -->
<g id="edge30" class="edge">
<title>http://purl.org/oseg/ontologies/OTRL#ODRL&#45;1&#45;&gt;http://www.w3.org/2002/07/owl#class</title>
<path fill="none" stroke="black" d="M867.56,-510.5C829.69,-503.65 775.05,-493.75 733.7,-486.25"/>
<polygon fill="black" stroke="black" points="734.22,-482.79 723.76,-484.45 732.97,-489.68 734.22,-482.79"/>
<text text-anchor="middle" x="796.13" y="-502.18" font-family="Times,serif" font-size="14.00">a</text>
</g>
<!-- http://purl.org/oseg/ontologies/OTRL#ODRL&#45;1&#45;&gt;http://purl.org/oseg/ontologies/OTRL#ODRL -->
<g id="edge17" class="edge">
<title>http://purl.org/oseg/ontologies/OTRL#ODRL&#45;1&#45;&gt;http://purl.org/oseg/ontologies/OTRL#ODRL</title>
<path fill="none" stroke="black" d="M891.23,-533.46C871.72,-547.4 842.41,-568.33 820.77,-583.78"/>
<polygon fill="black" stroke="black" points="818.7,-580.96 812.59,-589.62 822.77,-586.66 818.7,-580.96"/>
</g>
<!-- http://purl.org/oseg/ontologies/OTRL#OTRL&#45;7 -->
<g id="node11" class="node">
<title>http://purl.org/oseg/ontologies/OTRL#OTRL&#45;7</title>
<ellipse fill="none" stroke="#e377c2" cx="710.97" cy="-234.21" rx="49.49" ry="16.03"/>
<text text-anchor="middle" x="710.97" y="-230.51" font-family="Times,serif" font-size="14.00">OTRL&#45;7</text>
</g>
<!-- http://purl.org/oseg/ontologies/OTRL#OTRL&#45;7&#45;&gt;http://www.w3.org/2002/07/owl#class -->
<g id="edge31" class="edge">
<title>http://purl.org/oseg/ontologies/OTRL#OTRL&#45;7&#45;&gt;http://www.w3.org/2002/07/owl#class</title>
<path fill="none" stroke="black" d="M708.52,-250.8C702.44,-292 686.63,-399.21 679.26,-449.25"/>
<polygon fill="black" stroke="black" points="675.77,-448.89 677.77,-459.29 682.7,-449.91 675.77,-448.89"/>
<text text-anchor="middle" x="689.39" y="-353.83" font-family="Times,serif" font-size="14.00">a</text>
</g>
<!-- http://purl.org/oseg/ontologies/OTRL#OTRL&#45;7&#45;&gt;http://purl.org/oseg/ontologies/OTRL#OTRL -->
<g id="edge8" class="edge">
<title>http://purl.org/oseg/ontologies/OTRL#OTRL&#45;7&#45;&gt;http://purl.org/oseg/ontologies/OTRL#OTRL</title>
<path fill="none" stroke="black" d="M674.82,-245.36C634.58,-257.78 569.66,-277.81 527.41,-290.85"/>
<polygon fill="black" stroke="black" points="526.24,-287.55 517.71,-293.84 528.3,-294.23 526.24,-287.55"/>
</g>
<!-- http://purl.org/oseg/ontologies/OTRL#documentationDescription -->
<g id="node12" class="node">
<title>http://purl.org/oseg/ontologies/OTRL#documentationDescription</title>
<ellipse fill="none" stroke="#e377c2" cx="208.89" cy="-193.91" rx="120.83" ry="16.03"/>
<text text-anchor="middle" x="208.89" y="-190.21" font-family="Times,serif" font-size="14.00">documentationDesc...</text>
</g>
<!-- http://purl.org/oseg/ontologies/OTRL#documentationDescription&#45;&gt;http://purl.org/oseg/ontologies/OTRL#OTRL -->
<g id="edge27" class="edge">
<title>http://purl.org/oseg/ontologies/OTRL#documentationDescription&#45;&gt;http://purl.org/oseg/ontologies/OTRL#OTRL</title>
<path fill="none" stroke="black" d="M248.01,-209.4C301.1,-230.42 395.37,-267.73 447.93,-288.54"/>
<polygon fill="black" stroke="black" points="446.65,-291.79 457.24,-292.22 449.23,-285.29 446.65,-291.79"/>
<text text-anchor="middle" x="321.47" y="-252.77" font-family="Times,serif" font-size="14.00">domain</text>
</g>
<!-- http://purl.org/oseg/ontologies/OTRL#documentationDescription&#45;&gt;http://schema.org/Text -->
<g id="edge26" class="edge">
<title>http://purl.org/oseg/ontologies/OTRL#documentationDescription&#45;&gt;http://schema.org/Text</title>
<path fill="none" stroke="black" d="M196.49,-177.48C172.75,-145.98 120.73,-76.99 92.94,-40.13"/>
<polygon fill="black" stroke="black" points="95.57,-37.8 86.76,-31.92 89.98,-42.02 95.57,-37.8"/>
<text text-anchor="middle" x="123.72" y="-112.6" font-family="Times,serif" font-size="14.00">range</text>
</g>
<!-- http://purl.org/oseg/ontologies/OTRL#ODRL&#45;0 -->
<g id="node13" class="node">
<title>http://purl.org/oseg/ontologies/OTRL#ODRL&#45;0</title>
<ellipse fill="none" stroke="#e377c2" cx="889.3" cy="-451.03" rx="50.82" ry="16.03"/>
<text text-anchor="middle" x="889.3" y="-447.33" font-family="Times,serif" font-size="14.00">ODRL&#45;0</text>
</g>
<!-- http://purl.org/oseg/ontologies/OTRL#ODRL&#45;0&#45;&gt;http://www.w3.org/2002/07/owl#class -->
<g id="edge32" class="edge">
<title>http://purl.org/oseg/ontologies/OTRL#ODRL&#45;0&#45;&gt;http://www.w3.org/2002/07/owl#class</title>
<path fill="none" stroke="black" d="M841.28,-456.56C810.92,-460.06 771.33,-464.62 738.44,-468.41"/>
<polygon fill="black" stroke="black" points="738,-464.94 728.46,-469.56 738.8,-471.9 738,-464.94"/>
<text text-anchor="middle" x="785.36" y="-466.29" font-family="Times,serif" font-size="14.00">a</text>
</g>
<!-- http://purl.org/oseg/ontologies/OTRL#ODRL&#45;0&#45;&gt;http://purl.org/oseg/ontologies/OTRL#ODRL -->
<g id="edge2" class="edge">
<title>http://purl.org/oseg/ontologies/OTRL#ODRL&#45;0&#45;&gt;http://purl.org/oseg/ontologies/OTRL#ODRL</title>
<path fill="none" stroke="black" d="M879.11,-467.11C862.12,-493.93 827.91,-547.95 807.91,-579.53"/>
<polygon fill="black" stroke="black" points="804.83,-577.86 802.43,-588.18 810.74,-581.61 804.83,-577.86"/>
</g>
<!-- http://purl.org/oseg/ontologies/OTRL -->
<g id="node14" class="node">
<title>http://purl.org/oseg/ontologies/OTRL</title>
<ellipse fill="none" stroke="#e377c2" cx="325.24" cy="-610.64" rx="60.62" ry="16.03"/>
<text text-anchor="middle" x="325.24" y="-606.94" font-family="Times,serif" font-size="14.00">ns1:OTRL</text>
</g>
<!-- http://purl.org/oseg/ontologies/OTRL&#45;&gt;http://purl.org/oseg/ontologies/OTRL -->
<g id="edge39" class="edge">
<title>http://purl.org/oseg/ontologies/OTRL&#45;&gt;http://purl.org/oseg/ontologies/OTRL</title>
<path fill="none" stroke="black" d="M380.84,-617.27C394.17,-616.75 404.05,-614.54 404.05,-610.64 404.05,-607.81 398.83,-605.86 390.87,-604.81"/>
<polygon fill="black" stroke="black" points="391.09,-601.32 380.84,-604.01 390.53,-608.3 391.09,-601.32"/>
<text text-anchor="middle" x="455.55" y="-606.94" font-family="Times,serif" font-size="14.00">owl:versionIRI</text>
</g>
<!-- http://purl.org/oseg/ontologies/OTRL#OTRL&#45;6 -->
<g id="node15" class="node">
<title>http://purl.org/oseg/ontologies/OTRL#OTRL&#45;6</title>
<ellipse fill="none" stroke="#e377c2" cx="594.74" cy="-216.58" rx="49.49" ry="16.03"/>
<text text-anchor="middle" x="594.74" y="-212.88" font-family="Times,serif" font-size="14.00">OTRL&#45;6</text>
</g>
<!-- http://purl.org/oseg/ontologies/OTRL#OTRL&#45;6&#45;&gt;http://www.w3.org/2002/07/owl#class -->
<g id="edge18" class="edge">
<title>http://purl.org/oseg/ontologies/OTRL#OTRL&#45;6&#45;&gt;http://www.w3.org/2002/07/owl#class</title>
<path fill="none" stroke="black" d="M599.78,-232.78C613.36,-276.41 650.75,-396.59 667.3,-449.78"/>
<polygon fill="black" stroke="black" points="664,-450.97 670.32,-459.48 670.69,-448.89 664,-450.97"/>
<text text-anchor="middle" x="629.04" y="-330.08" font-family="Times,serif" font-size="14.00">a</text>
</g>
<!-- http://purl.org/oseg/ontologies/OTRL#OTRL&#45;6&#45;&gt;http://purl.org/oseg/ontologies/OTRL#OTRL -->
<g id="edge40" class="edge">
<title>http://purl.org/oseg/ontologies/OTRL#OTRL&#45;6&#45;&gt;http://purl.org/oseg/ontologies/OTRL#OTRL</title>
<path fill="none" stroke="black" d="M575.8,-231.74C558.24,-245.8 531.93,-266.86 512.33,-282.56"/>
<polygon fill="black" stroke="black" points="510,-279.94 504.38,-288.92 514.38,-285.4 510,-279.94"/>
</g>
<!-- http://purl.org/oseg/ontologies/OTRL#ODRL&#45;2 -->
<g id="node16" class="node">
<title>http://purl.org/oseg/ontologies/OTRL#ODRL&#45;2</title>
<ellipse fill="none" stroke="#e377c2" cx="601.99" cy="-684.31" rx="50.82" ry="16.03"/>
<text text-anchor="middle" x="601.99" y="-680.61" font-family="Times,serif" font-size="14.00">ODRL&#45;2</text>
</g>
<!-- http://purl.org/oseg/ontologies/OTRL#ODRL&#45;2&#45;&gt;http://www.w3.org/2002/07/owl#class -->
<g id="edge20" class="edge">
<title>http://purl.org/oseg/ontologies/OTRL#ODRL&#45;2&#45;&gt;http://www.w3.org/2002/07/owl#class</title>
<path fill="none" stroke="black" d="M607.75,-667.94C620.45,-631.84 650.94,-545.13 666.25,-501.57"/>
<polygon fill="black" stroke="black" points="669.61,-502.57 669.63,-491.98 663.01,-500.25 669.61,-502.57"/>
<text text-anchor="middle" x="632.5" y="-588.56" font-family="Times,serif" font-size="14.00">a</text>
</g>
<!-- http://purl.org/oseg/ontologies/OTRL#ODRL&#45;2&#45;&gt;http://purl.org/oseg/ontologies/OTRL#ODRL -->
<g id="edge28" class="edge">
<title>http://purl.org/oseg/ontologies/OTRL#ODRL&#45;2&#45;&gt;http://purl.org/oseg/ontologies/OTRL#ODRL</title>
<path fill="none" stroke="black" d="M633,-671.24C666.14,-657.27 718.68,-635.12 754.3,-620.1"/>
<polygon fill="black" stroke="black" points="756.02,-623.18 763.87,-616.07 753.3,-616.73 756.02,-623.18"/>
</g>
<!-- http://purl.org/oseg/ontologies/OTRL#OTRL&#45;4 -->
<g id="node17" class="node">
<title>http://purl.org/oseg/ontologies/OTRL#OTRL&#45;4</title>
<ellipse fill="none" stroke="#e377c2" cx="591.41" cy="-278.93" rx="49.49" ry="16.03"/>
<text text-anchor="middle" x="591.41" y="-275.23" font-family="Times,serif" font-size="14.00">OTRL&#45;4</text>
</g>
<!-- http://purl.org/oseg/ontologies/OTRL#OTRL&#45;4&#45;&gt;http://www.w3.org/2002/07/owl#class -->
<g id="edge33" class="edge">
<title>http://purl.org/oseg/ontologies/OTRL#OTRL&#45;4&#45;&gt;http://www.w3.org/2002/07/owl#class</title>
<path fill="none" stroke="black" d="M598.42,-295.37C613.06,-329.67 646.94,-409.08 664.45,-450.11"/>
<polygon fill="black" stroke="black" points="661.28,-451.61 668.42,-459.43 667.72,-448.86 661.28,-451.61"/>
<text text-anchor="middle" x="626.94" y="-376.54" font-family="Times,serif" font-size="14.00">a</text>
</g>
<!-- http://purl.org/oseg/ontologies/OTRL#OTRL&#45;4&#45;&gt;http://purl.org/oseg/ontologies/OTRL#OTRL -->
<g id="edge12" class="edge">
<title>http://purl.org/oseg/ontologies/OTRL#OTRL&#45;4&#45;&gt;http://purl.org/oseg/ontologies/OTRL#OTRL</title>
<path fill="none" stroke="black" d="M550.97,-288.4C544.26,-289.97 537.27,-291.61 530.47,-293.2"/>
<polygon fill="black" stroke="black" points="529.64,-289.81 520.7,-295.49 531.23,-296.62 529.64,-289.81"/>
</g>
<!-- http://purl.org/oseg/ontologies/OTRL#OTRL&#45;8 -->
<g id="node18" class="node">
<title>http://purl.org/oseg/ontologies/OTRL#OTRL&#45;8</title>
<ellipse fill="none" stroke="#e377c2" cx="540.24" cy="-468.7" rx="49.49" ry="16.03"/>
<text text-anchor="middle" x="540.24" y="-465" font-family="Times,serif" font-size="14.00">OTRL&#45;8</text>
</g>
<!-- http://purl.org/oseg/ontologies/OTRL#OTRL&#45;8&#45;&gt;http://www.w3.org/2002/07/owl#class -->
<g id="edge21" class="edge">
<title>http://purl.org/oseg/ontologies/OTRL#OTRL&#45;8&#45;&gt;http://www.w3.org/2002/07/owl#class</title>
<path fill="none" stroke="black" d="M589.4,-471.24C595.64,-471.57 602.11,-471.9 608.56,-472.23"/>
<polygon fill="black" stroke="black" points="608.5,-475.74 618.67,-472.76 608.86,-468.74 608.5,-475.74"/>
<text text-anchor="middle" x="594.48" y="-475.54" font-family="Times,serif" font-size="14.00">a</text>
</g>
<!-- http://purl.org/oseg/ontologies/OTRL#OTRL&#45;8&#45;&gt;http://purl.org/oseg/ontologies/OTRL#OTRL -->
<g id="edge1" class="edge">
<title>http://purl.org/oseg/ontologies/OTRL#OTRL&#45;8&#45;&gt;http://purl.org/oseg/ontologies/OTRL#OTRL</title>
<path fill="none" stroke="black" d="M534.84,-452.27C525.43,-423.59 505.92,-364.19 494.62,-329.79"/>
<polygon fill="black" stroke="black" points="497.85,-328.39 491.4,-319.98 491.2,-330.58 497.85,-328.39"/>
</g>
<!-- http://purl.org/oseg/ontologies/OTRL#OTRL&#45;1 -->
<g id="node19" class="node">
<title>http://purl.org/oseg/ontologies/OTRL#OTRL&#45;1</title>
<ellipse fill="none" stroke="#e377c2" cx="417.28" cy="-485.87" rx="49.49" ry="16.03"/>
<text text-anchor="middle" x="417.28" y="-482.17" font-family="Times,serif" font-size="14.00">OTRL&#45;1</text>
</g>
<!-- http://purl.org/oseg/ontologies/OTRL#OTRL&#45;1&#45;&gt;http://www.w3.org/2002/07/owl#class -->
<g id="edge35" class="edge">
<title>http://purl.org/oseg/ontologies/OTRL#OTRL&#45;1&#45;&gt;http://www.w3.org/2002/07/owl#class</title>
<path fill="none" stroke="black" d="M466.43,-483.93C506.59,-482.35 563.77,-480.09 608.16,-478.34"/>
<polygon fill="black" stroke="black" points="608.44,-481.83 618.29,-477.94 608.16,-474.84 608.44,-481.83"/>
<text text-anchor="middle" x="532.8" y="-484.94" font-family="Times,serif" font-size="14.00">a</text>
</g>
<!-- http://purl.org/oseg/ontologies/OTRL#OTRL&#45;1&#45;&gt;http://purl.org/oseg/ontologies/OTRL#OTRL -->
<g id="edge4" class="edge">
<title>http://purl.org/oseg/ontologies/OTRL#OTRL&#45;1&#45;&gt;http://purl.org/oseg/ontologies/OTRL#OTRL</title>
<path fill="none" stroke="black" d="M423.38,-469.7C435.36,-437.95 462.02,-367.25 476.4,-329.14"/>
<polygon fill="black" stroke="black" points="479.68,-330.35 479.94,-319.75 473.13,-327.88 479.68,-330.35"/>
</g>
<!-- http://purl.org/oseg/ontologies/OTRL#hardwareDescription -->
<g id="node20" class="node">
<title>http://purl.org/oseg/ontologies/OTRL#hardwareDescription</title>
<ellipse fill="none" stroke="#e377c2" cx="182.4" cy="-289.48" rx="118.17" ry="16.03"/>
<text text-anchor="middle" x="182.4" y="-285.78" font-family="Times,serif" font-size="14.00">hardwareDescription</text>
</g>
<!-- http://purl.org/oseg/ontologies/OTRL#hardwareDescription&#45;&gt;http://purl.org/oseg/ontologies/OTRL#OTRL -->
<g id="edge9" class="edge">
<title>http://purl.org/oseg/ontologies/OTRL#hardwareDescription&#45;&gt;http://purl.org/oseg/ontologies/OTRL#OTRL</title>
<path fill="none" stroke="black" d="M294.59,-294.71C343.23,-296.97 397.71,-299.51 436.07,-301.29"/>
<polygon fill="black" stroke="black" points="436.3,-304.81 446.45,-301.77 436.62,-297.81 436.3,-304.81"/>
<text text-anchor="middle" x="338.83" y="-301.8" font-family="Times,serif" font-size="14.00">domain</text>
</g>
<!-- http://purl.org/oseg/ontologies/OTRL#hardwareDescription&#45;&gt;http://schema.org/Text -->
<g id="edge10" class="edge">
<title>http://purl.org/oseg/ontologies/OTRL#hardwareDescription&#45;&gt;http://schema.org/Text</title>
<path fill="none" stroke="black" d="M175.98,-273.18C157.92,-227.35 106.62,-97.11 84.71,-41.48"/>
<polygon fill="black" stroke="black" points="87.89,-40.02 80.97,-32 81.38,-42.59 87.89,-40.02"/>
<text text-anchor="middle" x="109.34" y="-161.13" font-family="Times,serif" font-size="14.00">range</text>
</g>
<!-- http://purl.org/oseg/ontologies/OTRL#ODRL&#45;4 -->
<g id="node21" class="node">
<title>http://purl.org/oseg/ontologies/OTRL#ODRL&#45;4</title>
<ellipse fill="none" stroke="#e377c2" cx="711.39" cy="-735.83" rx="50.82" ry="16.03"/>
<text text-anchor="middle" x="711.39" y="-732.13" font-family="Times,serif" font-size="14.00">ODRL&#45;4</text>
</g>
<!-- http://purl.org/oseg/ontologies/OTRL#ODRL&#45;4&#45;&gt;http://www.w3.org/2002/07/owl#class -->
<g id="edge37" class="edge">
<title>http://purl.org/oseg/ontologies/OTRL#ODRL&#45;4&#45;&gt;http://www.w3.org/2002/07/owl#class</title>
<path fill="none" stroke="black" d="M709.14,-719.56C703.08,-675.85 686.43,-555.6 679.01,-502.03"/>
<polygon fill="black" stroke="black" points="682.45,-501.38 677.61,-491.95 675.52,-502.34 682.45,-501.38"/>
<text text-anchor="middle" x="689.57" y="-614.59" font-family="Times,serif" font-size="14.00">a</text>
</g>
<!-- http://purl.org/oseg/ontologies/OTRL#ODRL&#45;4&#45;&gt;http://purl.org/oseg/ontologies/OTRL#ODRL -->
<g id="edge7" class="edge">
<title>http://purl.org/oseg/ontologies/OTRL#ODRL&#45;4&#45;&gt;http://purl.org/oseg/ontologies/OTRL#ODRL</title>
<path fill="none" stroke="black" d="M721.32,-719.67C735.3,-696.93 760.9,-655.27 777.26,-628.66"/>
<polygon fill="black" stroke="black" points="780.37,-630.28 782.62,-619.93 774.4,-626.62 780.37,-630.28"/>
</g>
<!-- http://purl.org/oseg/ontologies/OTRL#OTRL&#45;9 -->
<g id="node22" class="node">
<title>http://purl.org/oseg/ontologies/OTRL#OTRL&#45;9</title>
<ellipse fill="none" stroke="#e377c2" cx="671.92" cy="-346.76" rx="49.49" ry="16.03"/>
<text text-anchor="middle" x="671.92" y="-343.06" font-family="Times,serif" font-size="14.00">OTRL&#45;9</text>
</g>
<!-- http://purl.org/oseg/ontologies/OTRL#OTRL&#45;9&#45;&gt;http://www.w3.org/2002/07/owl#class -->
<g id="edge24" class="edge">
<title>http://purl.org/oseg/ontologies/OTRL#OTRL&#45;9&#45;&gt;http://www.w3.org/2002/07/owl#class</title>
<path fill="none" stroke="black" d="M672.36,-363.09C672.93,-384.67 673.95,-422.97 674.64,-448.84"/>
<polygon fill="black" stroke="black" points="671.15,-449.18 674.91,-459.08 678.15,-448.99 671.15,-449.18"/>
<text text-anchor="middle" x="669" y="-409.76" font-family="Times,serif" font-size="14.00">a</text>
</g>
<!-- http://purl.org/oseg/ontologies/OTRL#OTRL&#45;9&#45;&gt;http://purl.org/oseg/ontologies/OTRL#OTRL -->
<g id="edge19" class="edge">
<title>http://purl.org/oseg/ontologies/OTRL#OTRL&#45;9&#45;&gt;http://purl.org/oseg/ontologies/OTRL#OTRL</title>
<path fill="none" stroke="black" d="M631.13,-337.29C601.46,-330.41 561.3,-321.09 530.75,-314"/>
<polygon fill="black" stroke="black" points="531.33,-310.54 520.79,-311.69 529.74,-317.36 531.33,-310.54"/>
</g>
<!-- http://purl.org/oseg/ontologies/OTRL#OTRL&#45;2 -->
<g id="node23" class="node">
<title>http://purl.org/oseg/ontologies/OTRL#OTRL&#45;2</title>
<ellipse fill="none" stroke="#e377c2" cx="713.55" cy="-285.19" rx="49.49" ry="16.03"/>
<text text-anchor="middle" x="713.55" y="-281.49" font-family="Times,serif" font-size="14.00">OTRL&#45;2</text>
</g>
<!-- http://purl.org/oseg/ontologies/OTRL#OTRL&#45;2&#45;&gt;http://www.w3.org/2002/07/owl#class -->
<g id="edge38" class="edge">
<title>http://purl.org/oseg/ontologies/OTRL#OTRL&#45;2&#45;&gt;http://www.w3.org/2002/07/owl#class</title>
<path fill="none" stroke="black" d="M710.29,-301.43C703.69,-334.39 688.65,-409.37 680.63,-449.38"/>
<polygon fill="black" stroke="black" points="677.19,-448.72 678.66,-459.21 684.06,-450.1 677.19,-448.72"/>
<text text-anchor="middle" x="690.96" y="-379.21" font-family="Times,serif" font-size="14.00">a</text>
</g>
<!-- http://purl.org/oseg/ontologies/OTRL#OTRL&#45;2&#45;&gt;http://purl.org/oseg/ontologies/OTRL#OTRL -->
<g id="edge6" class="edge">
<title>http://purl.org/oseg/ontologies/OTRL#OTRL&#45;2&#45;&gt;http://purl.org/oseg/ontologies/OTRL#OTRL</title>
<path fill="none" stroke="black" d="M665.3,-289.1C627.14,-292.19 574.07,-296.49 535.58,-299.6"/>
<polygon fill="black" stroke="black" points="534.82,-296.15 525.14,-300.45 535.39,-303.13 534.82,-296.15"/>
</g>
<!-- http://purl.org/oseg/ontologies/OTRL#OTRL&#45;3 -->
<g id="node24" class="node">
<title>http://purl.org/oseg/ontologies/OTRL#OTRL&#45;3</title>
<ellipse fill="none" stroke="#e377c2" cx="485.46" cy="-530.55" rx="49.49" ry="16.03"/>
<text text-anchor="middle" x="485.46" y="-526.85" font-family="Times,serif" font-size="14.00">OTRL&#45;3</text>
</g>
<!-- http://purl.org/oseg/ontologies/OTRL#OTRL&#45;3&#45;&gt;http://www.w3.org/2002/07/owl#class -->
<g id="edge41" class="edge">
<title>http://purl.org/oseg/ontologies/OTRL#OTRL&#45;3&#45;&gt;http://www.w3.org/2002/07/owl#class</title>
<path fill="none" stroke="black" d="M522.98,-519.71C552.27,-511.25 593.23,-499.41 625.32,-490.14"/>
<polygon fill="black" stroke="black" points="626.33,-493.49 634.96,-487.36 624.38,-486.77 626.33,-493.49"/>
<text text-anchor="middle" x="569.65" y="-508.73" font-family="Times,serif" font-size="14.00">a</text>
</g>
<!-- http://purl.org/oseg/ontologies/OTRL#OTRL&#45;3&#45;&gt;http://purl.org/oseg/ontologies/OTRL#OTRL -->
<g id="edge22" class="edge">
<title>http://purl.org/oseg/ontologies/OTRL#OTRL&#45;3&#45;&gt;http://purl.org/oseg/ontologies/OTRL#OTRL</title>
<path fill="none" stroke="black" d="M485.5,-514.23C485.6,-475.48 485.84,-377.64 485.96,-330.21"/>
<polygon fill="black" stroke="black" points="489.46,-330.1 485.99,-320.09 482.46,-330.09 489.46,-330.1"/>
</g>
</g>
</svg>
