<?xml version="1.0" encoding="UTF-8" standalone="no"?>
<!DOCTYPE svg PUBLIC "-//W3C//DTD SVG 1.1//EN"
 "http://www.w3.org/Graphics/SVG/1.1/DTD/svg11.dtd">
<!-- Generated by graphviz version 2.43.0 (0)
 -->
<!-- Title: G Pages: 1 -->
<svg width="607pt" height="453pt"
 viewBox="0.00 0.00 607.00 453.00" xmlns="http://www.w3.org/2000/svg" xmlns:xlink="http://www.w3.org/1999/xlink">
<g id="graph0" class="graph" transform="scale(1 1) rotate(0) translate(4 449)">
<title>G</title>
<polygon fill="white" stroke="transparent" points="-4,4 -4,-449 603,-449 603,4 -4,4"/>
<!-- http://purl.org/oseg/ontologies/OTRL#ODRL -->
<g id="node1" class="node">
<title>http://purl.org/oseg/ontologies/OTRL#ODRL</title>
<ellipse fill="none" stroke="#e377c2" cx="161.89" cy="-273.15" rx="41.94" ry="16.03"/>
<text text-anchor="middle" x="161.89" y="-269.45" font-family="Times,serif" font-size="14.00">ODRL</text>
</g>
<!-- http://www.w3.org/2002/07/owl#class -->
<g id="node2" class="node">
<title>http://www.w3.org/2002/07/owl#class</title>
<ellipse fill="none" stroke="#1f77b4" cx="274.99" cy="-201.34" rx="57.05" ry="16.03"/>
<text text-anchor="middle" x="274.99" y="-197.64" font-family="Times,serif" font-size="14.00">owl:class</text>
</g>
<!-- http://purl.org/oseg/ontologies/OTRL#OTRL -->
<g id="node3" class="node">
<title>http://purl.org/oseg/ontologies/OTRL#OTRL</title>
<ellipse fill="none" stroke="#e377c2" cx="382.99" cy="-161.34" rx="39.7" ry="16.03"/>
<text text-anchor="middle" x="382.99" y="-157.64" font-family="Times,serif" font-size="14.00">OTRL</text>
</g>
<!-- http://purl.org/oseg/ontologies/OTRL#OTRL&#45;&gt;http://www.w3.org/2002/07/owl#class -->
<g id="edge13" class="edge">
<title>http://purl.org/oseg/ontologies/OTRL#OTRL&#45;&gt;http://www.w3.org/2002/07/owl#class</title>
<path fill="none" stroke="black" d="M353.48,-172.27C343.04,-176.14 331.05,-180.58 319.63,-184.81"/>
<polygon fill="black" stroke="black" points="318.39,-181.53 310.23,-188.29 320.82,-188.1 318.39,-181.53"/>
<text text-anchor="middle" x="332.06" y="-167.34" font-family="Times,serif" font-size="14.00">a</text>
</g>
<!-- http://purl.org/oseg/ontologies/OTRL -->
<g id="node4" class="node">
<title>http://purl.org/oseg/ontologies/OTRL</title>
<ellipse fill="none" stroke="#e377c2" cx="127.24" cy="-390.64" rx="60.62" ry="16.03"/>
<text text-anchor="middle" x="127.24" y="-386.94" font-family="Times,serif" font-size="14.00">ns1:OTRL</text>
</g>
<!-- http://purl.org/oseg/ontologies/OTRL&#45;&gt;http://purl.org/oseg/ontologies/OTRL -->
<g id="edge2" class="edge">
<title>http://purl.org/oseg/ontologies/OTRL&#45;&gt;http://purl.org/oseg/ontologies/OTRL</title>
<path fill="none" stroke="black" d="M182.84,-397.27C196.17,-396.75 206.05,-394.54 206.05,-390.64 206.05,-387.81 200.83,-385.86 192.87,-384.81"/>
<polygon fill="black" stroke="black" points="193.09,-381.32 182.84,-384.01 192.53,-388.3 193.09,-381.32"/>
<text text-anchor="middle" x="257.55" y="-386.94" font-family="Times,serif" font-size="14.00">owl:versionIRI</text>
</g>
<!-- http://purl.org/oseg/ontologies/OTRL#Odrl3Star -->
<g id="node5" class="node">
<title>http://purl.org/oseg/ontologies/OTRL#Odrl3Star</title>
<ellipse fill="none" stroke="#e377c2" cx="61.89" cy="-223.43" rx="62.45" ry="16.03"/>
<text text-anchor="middle" x="61.89" y="-219.73" font-family="Times,serif" font-size="14.00">Odrl3Star</text>
</g>
<!-- http://purl.org/oseg/ontologies/OTRL#Odrl3Star&#45;&gt;http://purl.org/oseg/ontologies/OTRL#ODRL -->
<g id="edge22" class="edge">
<title>http://purl.org/oseg/ontologies/OTRL#Odrl3Star&#45;&gt;http://purl.org/oseg/ontologies/OTRL#ODRL</title>
<path fill="none" stroke="black" d="M91.08,-237.94C102.27,-243.51 115.15,-249.92 126.84,-255.72"/>
<polygon fill="black" stroke="black" points="125.38,-258.91 135.89,-260.23 128.5,-252.64 125.38,-258.91"/>
</g>
<!-- http://purl.org/oseg/ontologies/OTRL#Odrl3Star&#45;&gt;http://www.w3.org/2002/07/owl#class -->
<g id="edge1" class="edge">
<title>http://purl.org/oseg/ontologies/OTRL#Odrl3Star&#45;&gt;http://www.w3.org/2002/07/owl#class</title>
<path fill="none" stroke="black" d="M119.84,-217.42C148.06,-214.5 182.08,-210.97 211.06,-207.97"/>
<polygon fill="black" stroke="black" points="211.5,-211.44 221.08,-206.93 210.77,-204.48 211.5,-211.44"/>
<text text-anchor="middle" x="160.95" y="-216.49" font-family="Times,serif" font-size="14.00">a</text>
</g>
<!-- http://purl.org/oseg/ontologies/OTRL#Otrl6 -->
<g id="node6" class="node">
<title>http://purl.org/oseg/ontologies/OTRL#Otrl6</title>
<ellipse fill="none" stroke="#e377c2" cx="441.05" cy="-270.16" rx="38.37" ry="16.03"/>
<text text-anchor="middle" x="441.05" y="-266.46" font-family="Times,serif" font-size="14.00">Otrl6</text>
</g>
<!-- http://purl.org/oseg/ontologies/OTRL#Otrl6&#45;&gt;http://www.w3.org/2002/07/owl#class -->
<g id="edge9" class="edge">
<title>http://purl.org/oseg/ontologies/OTRL#Otrl6&#45;&gt;http://www.w3.org/2002/07/owl#class</title>
<path fill="none" stroke="black" d="M413.63,-258.79C387.36,-247.91 347.35,-231.33 317.06,-218.77"/>
<polygon fill="black" stroke="black" points="318.17,-215.44 307.59,-214.85 315.49,-221.91 318.17,-215.44"/>
<text text-anchor="middle" x="360.84" y="-242.58" font-family="Times,serif" font-size="14.00">a</text>
</g>
<!-- http://purl.org/oseg/ontologies/OTRL#Otrl6&#45;&gt;http://purl.org/oseg/ontologies/OTRL#OTRL -->
<g id="edge21" class="edge">
<title>http://purl.org/oseg/ontologies/OTRL#Otrl6&#45;&gt;http://purl.org/oseg/ontologies/OTRL#OTRL</title>
<path fill="none" stroke="black" d="M432.48,-254.1C422.97,-236.26 407.47,-207.22 396.36,-186.39"/>
<polygon fill="black" stroke="black" points="399.39,-184.64 391.6,-177.46 393.21,-187.93 399.39,-184.64"/>
</g>
<!-- http://purl.org/oseg/ontologies/OTRL#Odrl4 -->
<g id="node7" class="node">
<title>http://purl.org/oseg/ontologies/OTRL#Odrl4</title>
<ellipse fill="none" stroke="#e377c2" cx="149.98" cy="-326.31" rx="40.11" ry="16.03"/>
<text text-anchor="middle" x="149.98" y="-322.61" font-family="Times,serif" font-size="14.00">Odrl4</text>
</g>
<!-- http://purl.org/oseg/ontologies/OTRL#Odrl4&#45;&gt;http://purl.org/oseg/ontologies/OTRL#ODRL -->
<g id="edge10" class="edge">
<title>http://purl.org/oseg/ontologies/OTRL#Odrl4&#45;&gt;http://purl.org/oseg/ontologies/OTRL#ODRL</title>
<path fill="none" stroke="black" d="M153.62,-310.07C154.36,-306.73 155.17,-303.14 155.97,-299.55"/>
<polygon fill="black" stroke="black" points="159.42,-300.18 158.19,-289.66 152.59,-298.65 159.42,-300.18"/>
</g>
<!-- http://purl.org/oseg/ontologies/OTRL#Odrl4&#45;&gt;http://www.w3.org/2002/07/owl#class -->
<g id="edge11" class="edge">
<title>http://purl.org/oseg/ontologies/OTRL#Odrl4&#45;&gt;http://www.w3.org/2002/07/owl#class</title>
<path fill="none" stroke="black" d="M165.31,-310.98C186.94,-289.37 226.57,-249.74 251.81,-224.51"/>
<polygon fill="black" stroke="black" points="254.55,-226.73 259.14,-217.18 249.6,-221.78 254.55,-226.73"/>
<text text-anchor="middle" x="213.06" y="-271.55" font-family="Times,serif" font-size="14.00">a</text>
</g>
<!-- http://schema.org/Text -->
<g id="node8" class="node">
<title>http://schema.org/Text</title>
<ellipse fill="none" stroke="#e377c2" cx="471.45" cy="-388.18" rx="74.91" ry="16.03"/>
<text text-anchor="middle" x="471.45" y="-384.48" font-family="Times,serif" font-size="14.00">schema:Text</text>
</g>
<!-- http://purl.org/oseg/ontologies/OTRL#Odrl -->
<g id="node9" class="node">
<title>http://purl.org/oseg/ontologies/OTRL#Odrl</title>
<ellipse fill="none" stroke="#e377c2" cx="183.16" cy="-38.21" rx="33.88" ry="16.03"/>
<text text-anchor="middle" x="183.16" y="-34.51" font-family="Times,serif" font-size="14.00">Odrl</text>
</g>
<!-- http://purl.org/oseg/ontologies/OTRL#Odrl&#45;&gt;http://www.w3.org/2002/07/owl#class -->
<g id="edge16" class="edge">
<title>http://purl.org/oseg/ontologies/OTRL#Odrl&#45;&gt;http://www.w3.org/2002/07/owl#class</title>
<path fill="none" stroke="black" d="M192.13,-54.15C208.14,-82.58 241.73,-142.25 260.86,-176.24"/>
<polygon fill="black" stroke="black" points="257.89,-178.1 265.85,-185.1 263.99,-174.66 257.89,-178.1"/>
<text text-anchor="middle" x="222" y="-118.99" font-family="Times,serif" font-size="14.00">a</text>
</g>
<!-- http://www.w3.org/1999/02/22&#45;rdf&#45;syntax&#45;ns#nil -->
<g id="node10" class="node">
<title>http://www.w3.org/1999/02/22&#45;rdf&#45;syntax&#45;ns#nil</title>
<ellipse fill="none" stroke="#e377c2" cx="482.24" cy="-16.64" rx="42.35" ry="16.03"/>
<text text-anchor="middle" x="482.24" y="-12.94" font-family="Times,serif" font-size="14.00">rdf:nil</text>
</g>
<!-- http://purl.org/oseg/ontologies/OTRL#Otrl -->
<g id="node11" class="node">
<title>http://purl.org/oseg/ontologies/OTRL#Otrl</title>
<ellipse fill="none" stroke="#e377c2" cx="76.24" cy="-82.64" rx="31.64" ry="16.03"/>
<text text-anchor="middle" x="76.24" y="-78.94" font-family="Times,serif" font-size="14.00">Otrl</text>
</g>
<!-- http://purl.org/oseg/ontologies/OTRL#Otrl3 -->
<g id="node12" class="node">
<title>http://purl.org/oseg/ontologies/OTRL#Otrl3</title>
<ellipse fill="none" stroke="#e377c2" cx="360.56" cy="-38.78" rx="38.37" ry="16.03"/>
<text text-anchor="middle" x="360.56" y="-35.08" font-family="Times,serif" font-size="14.00">Otrl3</text>
</g>
<!-- http://purl.org/oseg/ontologies/OTRL#Otrl3&#45;&gt;http://www.w3.org/2002/07/owl#class -->
<g id="edge6" class="edge">
<title>http://purl.org/oseg/ontologies/OTRL#Otrl3&#45;&gt;http://www.w3.org/2002/07/owl#class</title>
<path fill="none" stroke="black" d="M352.2,-54.66C337.35,-82.87 306.26,-141.95 288.39,-175.89"/>
<polygon fill="black" stroke="black" points="285.08,-174.67 283.52,-185.15 291.27,-177.93 285.08,-174.67"/>
<text text-anchor="middle" x="315.8" y="-119.07" font-family="Times,serif" font-size="14.00">a</text>
</g>
<!-- http://purl.org/oseg/ontologies/OTRL#Otrl3&#45;&gt;http://purl.org/oseg/ontologies/OTRL#OTRL -->
<g id="edge25" class="edge">
<title>http://purl.org/oseg/ontologies/OTRL#Otrl3&#45;&gt;http://purl.org/oseg/ontologies/OTRL#OTRL</title>
<path fill="none" stroke="black" d="M363.54,-55.05C367.28,-75.47 373.74,-110.75 378.18,-135.02"/>
<polygon fill="black" stroke="black" points="374.76,-135.79 380,-145 381.65,-134.53 374.76,-135.79"/>
</g>
<!-- http://purl.org/oseg/ontologies/OTRL#Odrl1 -->
<g id="node13" class="node">
<title>http://purl.org/oseg/ontologies/OTRL#Odrl1</title>
<ellipse fill="none" stroke="#e377c2" cx="104.56" cy="-149.45" rx="40.11" ry="16.03"/>
<text text-anchor="middle" x="104.56" y="-145.75" font-family="Times,serif" font-size="14.00">Odrl1</text>
</g>
<!-- http://purl.org/oseg/ontologies/OTRL#Odrl1&#45;&gt;http://purl.org/oseg/ontologies/OTRL#ODRL -->
<g id="edge8" class="edge">
<title>http://purl.org/oseg/ontologies/OTRL#Odrl1&#45;&gt;http://purl.org/oseg/ontologies/OTRL#ODRL</title>
<path fill="none" stroke="black" d="M112.05,-165.62C121.75,-186.55 138.76,-223.25 150.17,-247.87"/>
<polygon fill="black" stroke="black" points="147.01,-249.38 154.39,-256.98 153.36,-246.43 147.01,-249.38"/>
</g>
<!-- http://purl.org/oseg/ontologies/OTRL#Odrl1&#45;&gt;http://www.w3.org/2002/07/owl#class -->
<g id="edge15" class="edge">
<title>http://purl.org/oseg/ontologies/OTRL#Odrl1&#45;&gt;http://www.w3.org/2002/07/owl#class</title>
<path fill="none" stroke="black" d="M137.02,-159.33C162.16,-166.99 197.4,-177.72 225.97,-186.42"/>
<polygon fill="black" stroke="black" points="225.19,-189.84 235.77,-189.4 227.23,-183.14 225.19,-189.84"/>
<text text-anchor="middle" x="177" y="-176.67" font-family="Times,serif" font-size="14.00">a</text>
</g>
<!-- http://purl.org/oseg/ontologies/OTRL#Odrl2 -->
<g id="node14" class="node">
<title>http://purl.org/oseg/ontologies/OTRL#Odrl2</title>
<ellipse fill="none" stroke="#e377c2" cx="253.56" cy="-151.24" rx="40.11" ry="16.03"/>
<text text-anchor="middle" x="253.56" y="-147.54" font-family="Times,serif" font-size="14.00">Odrl2</text>
</g>
<!-- http://purl.org/oseg/ontologies/OTRL#Odrl2&#45;&gt;http://purl.org/oseg/ontologies/OTRL#ODRL -->
<g id="edge17" class="edge">
<title>http://purl.org/oseg/ontologies/OTRL#Odrl2&#45;&gt;http://purl.org/oseg/ontologies/OTRL#ODRL</title>
<path fill="none" stroke="black" d="M241.57,-167.17C225.86,-188.08 198.15,-224.93 179.9,-249.2"/>
<polygon fill="black" stroke="black" points="177.09,-247.12 173.87,-257.21 182.68,-251.32 177.09,-247.12"/>
</g>
<!-- http://purl.org/oseg/ontologies/OTRL#Odrl2&#45;&gt;http://www.w3.org/2002/07/owl#class -->
<g id="edge18" class="edge">
<title>http://purl.org/oseg/ontologies/OTRL#Odrl2&#45;&gt;http://www.w3.org/2002/07/owl#class</title>
<path fill="none" stroke="black" d="M260.46,-167.37C261.58,-169.99 262.77,-172.77 263.97,-175.56"/>
<polygon fill="black" stroke="black" points="260.81,-177.08 267.96,-184.9 267.24,-174.33 260.81,-177.08"/>
<text text-anchor="middle" x="257.71" y="-175.26" font-family="Times,serif" font-size="14.00">a</text>
</g>
<!-- http://purl.org/oseg/ontologies/OTRL#Otrl4 -->
<g id="node15" class="node">
<title>http://purl.org/oseg/ontologies/OTRL#Otrl4</title>
<ellipse fill="none" stroke="#e377c2" cx="425.8" cy="-92.42" rx="38.37" ry="16.03"/>
<text text-anchor="middle" x="425.8" y="-88.72" font-family="Times,serif" font-size="14.00">Otrl4</text>
</g>
<!-- http://purl.org/oseg/ontologies/OTRL#Otrl4&#45;&gt;http://www.w3.org/2002/07/owl#class -->
<g id="edge20" class="edge">
<title>http://purl.org/oseg/ontologies/OTRL#Otrl4&#45;&gt;http://www.w3.org/2002/07/owl#class</title>
<path fill="none" stroke="black" d="M406.39,-106.44C380.61,-125.06 334.84,-158.12 304.7,-179.88"/>
<polygon fill="black" stroke="black" points="302.33,-177.28 296.27,-185.98 306.42,-182.96 302.33,-177.28"/>
<text text-anchor="middle" x="351.05" y="-131.96" font-family="Times,serif" font-size="14.00">a</text>
</g>
<!-- http://purl.org/oseg/ontologies/OTRL#Otrl4&#45;&gt;http://purl.org/oseg/ontologies/OTRL#OTRL -->
<g id="edge19" class="edge">
<title>http://purl.org/oseg/ontologies/OTRL#Otrl4&#45;&gt;http://purl.org/oseg/ontologies/OTRL#OTRL</title>
<path fill="none" stroke="black" d="M415.87,-108.41C410.63,-116.84 404.09,-127.38 398.22,-136.82"/>
<polygon fill="black" stroke="black" points="395.17,-135.1 392.87,-145.44 401.12,-138.79 395.17,-135.1"/>
</g>
<!-- http://purl.org/oseg/ontologies/OTRL#Otrl2 -->
<g id="node16" class="node">
<title>http://purl.org/oseg/ontologies/OTRL#Otrl2</title>
<ellipse fill="none" stroke="#e377c2" cx="263.69" cy="-64.17" rx="38.37" ry="16.03"/>
<text text-anchor="middle" x="263.69" y="-60.47" font-family="Times,serif" font-size="14.00">Otrl2</text>
</g>
<!-- http://purl.org/oseg/ontologies/OTRL#Otrl2&#45;&gt;http://www.w3.org/2002/07/owl#class -->
<g id="edge23" class="edge">
<title>http://purl.org/oseg/ontologies/OTRL#Otrl2&#45;&gt;http://www.w3.org/2002/07/owl#class</title>
<path fill="none" stroke="black" d="M265.03,-80.44C266.94,-103.62 270.47,-146.43 272.77,-174.39"/>
<polygon fill="black" stroke="black" points="269.31,-174.98 273.62,-184.66 276.29,-174.41 269.31,-174.98"/>
<text text-anchor="middle" x="264.4" y="-116.22" font-family="Times,serif" font-size="14.00">a</text>
</g>
<!-- http://purl.org/oseg/ontologies/OTRL#Otrl2&#45;&gt;http://purl.org/oseg/ontologies/OTRL#OTRL -->
<g id="edge3" class="edge">
<title>http://purl.org/oseg/ontologies/OTRL#Otrl2&#45;&gt;http://purl.org/oseg/ontologies/OTRL#OTRL</title>
<path fill="none" stroke="black" d="M281.55,-78.71C301.58,-95.03 334.25,-121.64 357.08,-140.23"/>
<polygon fill="black" stroke="black" points="355.05,-143.09 365.01,-146.69 359.47,-137.66 355.05,-143.09"/>
</g>
<!-- http://purl.org/oseg/ontologies/OTRL#exitCriteria -->
<g id="node17" class="node">
<title>http://purl.org/oseg/ontologies/OTRL#exitCriteria</title>
<ellipse fill="none" stroke="#e377c2" cx="529.19" cy="-428.73" rx="70.01" ry="16.03"/>
<text text-anchor="middle" x="529.19" y="-425.03" font-family="Times,serif" font-size="14.00">exitCriteria</text>
</g>
<!-- http://purl.org/oseg/ontologies/OTRL#exitCriteria&#45;&gt;http://schema.org/Text -->
<g id="edge14" class="edge">
<title>http://purl.org/oseg/ontologies/OTRL#exitCriteria&#45;&gt;http://schema.org/Text</title>
<path fill="none" stroke="black" d="M507.03,-413.17C505.41,-412.03 503.75,-410.87 502.1,-409.7"/>
<polygon fill="black" stroke="black" points="504.03,-406.79 493.83,-403.9 500.01,-412.51 504.03,-406.79"/>
<text text-anchor="middle" x="483.56" y="-400.24" font-family="Times,serif" font-size="14.00">range</text>
</g>
<!-- http://purl.org/oseg/ontologies/OTRL#Otrl1 -->
<g id="node18" class="node">
<title>http://purl.org/oseg/ontologies/OTRL#Otrl1</title>
<ellipse fill="none" stroke="#e377c2" cx="458.83" cy="-206.52" rx="38.37" ry="16.03"/>
<text text-anchor="middle" x="458.83" y="-202.82" font-family="Times,serif" font-size="14.00">Otrl1</text>
</g>
<!-- http://purl.org/oseg/ontologies/OTRL#Otrl1&#45;&gt;http://www.w3.org/2002/07/owl#class -->
<g id="edge7" class="edge">
<title>http://purl.org/oseg/ontologies/OTRL#Otrl1&#45;&gt;http://www.w3.org/2002/07/owl#class</title>
<path fill="none" stroke="black" d="M420.3,-205.43C397.8,-204.8 368.78,-203.98 342.6,-203.24"/>
<polygon fill="black" stroke="black" points="342.44,-199.74 332.34,-202.95 342.24,-206.74 342.44,-199.74"/>
<text text-anchor="middle" x="376.95" y="-208.14" font-family="Times,serif" font-size="14.00">a</text>
</g>
<!-- http://purl.org/oseg/ontologies/OTRL#Otrl1&#45;&gt;http://purl.org/oseg/ontologies/OTRL#OTRL -->
<g id="edge4" class="edge">
<title>http://purl.org/oseg/ontologies/OTRL#Otrl1&#45;&gt;http://purl.org/oseg/ontologies/OTRL#OTRL</title>
<path fill="none" stroke="black" d="M436.49,-193.21C429.67,-189.14 422.04,-184.6 414.72,-180.24"/>
<polygon fill="black" stroke="black" points="416.09,-176.98 405.7,-174.87 412.5,-182.99 416.09,-176.98"/>
</g>
<!-- http://purl.org/oseg/ontologies/OTRL#goal -->
<g id="node19" class="node">
<title>http://purl.org/oseg/ontologies/OTRL#goal</title>
<ellipse fill="none" stroke="#e377c2" cx="462.27" cy="-346.44" rx="33.47" ry="16.03"/>
<text text-anchor="middle" x="462.27" y="-342.74" font-family="Times,serif" font-size="14.00">goal</text>
</g>
<!-- http://purl.org/oseg/ontologies/OTRL#goal&#45;&gt;http://schema.org/Text -->
<g id="edge12" class="edge">
<title>http://purl.org/oseg/ontologies/OTRL#goal&#45;&gt;http://schema.org/Text</title>
<path fill="none" stroke="black" d="M465.9,-362.94C465.92,-363.03 465.94,-363.12 465.96,-363.21"/>
<polygon fill="black" stroke="black" points="462.28,-362.79 467.85,-371.81 469.12,-361.29 462.28,-362.79"/>
<text text-anchor="middle" x="444.93" y="-366.88" font-family="Times,serif" font-size="14.00">range</text>
</g>
<!-- http://purl.org/oseg/ontologies/OTRL#Otrl5 -->
<g id="node20" class="node">
<title>http://purl.org/oseg/ontologies/OTRL#Otrl5</title>
<ellipse fill="none" stroke="#e377c2" cx="362.11" cy="-315.57" rx="38.37" ry="16.03"/>
<text text-anchor="middle" x="362.11" y="-311.87" font-family="Times,serif" font-size="14.00">Otrl5</text>
</g>
<!-- http://purl.org/oseg/ontologies/OTRL#Otrl5&#45;&gt;http://www.w3.org/2002/07/owl#class -->
<g id="edge24" class="edge">
<title>http://purl.org/oseg/ontologies/OTRL#Otrl5&#45;&gt;http://www.w3.org/2002/07/owl#class</title>
<path fill="none" stroke="black" d="M350,-299.69C335.32,-280.45 310.45,-247.83 293.4,-225.47"/>
<polygon fill="black" stroke="black" points="296.13,-223.29 287.28,-217.46 290.57,-227.53 296.13,-223.29"/>
<text text-anchor="middle" x="317.2" y="-266.38" font-family="Times,serif" font-size="14.00">a</text>
</g>
<!-- http://purl.org/oseg/ontologies/OTRL#Otrl5&#45;&gt;http://purl.org/oseg/ontologies/OTRL#OTRL -->
<g id="edge5" class="edge">
<title>http://purl.org/oseg/ontologies/OTRL#Otrl5&#45;&gt;http://purl.org/oseg/ontologies/OTRL#OTRL</title>
<path fill="none" stroke="black" d="M364.34,-299.07C367.96,-272.4 375.11,-219.6 379.43,-187.68"/>
<polygon fill="black" stroke="black" points="382.9,-188.1 380.78,-177.72 375.96,-187.16 382.9,-188.1"/>
</g>
<!-- http://purl.org/oseg/ontologies/OTRL#Odrl3 -->
<g id="node21" class="node">
<title>http://purl.org/oseg/ontologies/OTRL#Odrl3</title>
<ellipse fill="none" stroke="#e377c2" cx="246.67" cy="-367.94" rx="40.11" ry="16.03"/>
<text text-anchor="middle" x="246.67" y="-364.24" font-family="Times,serif" font-size="14.00">Odrl3</text>
</g>
<!-- http://purl.org/oseg/ontologies/OTRL#Odrl3&#45;&gt;http://purl.org/oseg/ontologies/OTRL#ODRL -->
<g id="edge26" class="edge">
<title>http://purl.org/oseg/ontologies/OTRL#Odrl3&#45;&gt;http://purl.org/oseg/ontologies/OTRL#ODRL</title>
<path fill="none" stroke="black" d="M232.67,-352.29C218.96,-336.97 197.93,-313.45 182.35,-296.04"/>
<polygon fill="black" stroke="black" points="184.9,-293.63 175.63,-288.51 179.68,-298.3 184.9,-293.63"/>
</g>
<!-- http://purl.org/oseg/ontologies/OTRL#Odrl3&#45;&gt;http://www.w3.org/2002/07/owl#class -->
<g id="edge27" class="edge">
<title>http://purl.org/oseg/ontologies/OTRL#Odrl3&#45;&gt;http://www.w3.org/2002/07/owl#class</title>
<path fill="none" stroke="black" d="M249.43,-351.66C254.33,-322.87 264.56,-262.73 270.48,-227.87"/>
<polygon fill="black" stroke="black" points="273.95,-228.38 272.17,-217.93 267.05,-227.2 273.95,-228.38"/>
<text text-anchor="middle" x="255.46" y="-293.57" font-family="Times,serif" font-size="14.00">a</text>
</g>
</g>
</svg>
