<?xml version="1.0" encoding="UTF-8" standalone="no"?>
<!DOCTYPE svg PUBLIC "-//W3C//DTD SVG 1.1//EN"
 "http://www.w3.org/Graphics/SVG/1.1/DTD/svg11.dtd">
<!-- Generated by graphviz version 2.43.0 (0)
 -->
<!-- Title: G Pages: 1 -->
<svg width="747pt" height="987pt"
 viewBox="0.00 0.00 747.05 987.00" xmlns="http://www.w3.org/2000/svg" xmlns:xlink="http://www.w3.org/1999/xlink">
<g id="graph0" class="graph" transform="scale(1 1) rotate(0) translate(4 983)">
<title>G</title>
<polygon fill="white" stroke="transparent" points="-4,4 -4,-983 743.05,-983 743.05,4 -4,4"/>
<!-- http://www.w3.org/2002/07/owl#class -->
<g id="node1" class="node">
<title>http://www.w3.org/2002/07/owl#class</title>
<ellipse fill="none" stroke="#1f77b4" cx="244.86" cy="-711.13" rx="57.05" ry="16.03"/>
<text text-anchor="middle" x="244.86" y="-707.43" font-family="Times,serif" font-size="14.00">owl:class</text>
</g>
<!-- http://purl.org/oseg/ontologies/OTRL#ODRL -->
<g id="node2" class="node">
<title>http://purl.org/oseg/ontologies/OTRL#ODRL</title>
<ellipse fill="none" stroke="#e377c2" cx="212.91" cy="-885.82" rx="41.94" ry="16.03"/>
<text text-anchor="middle" x="212.91" y="-882.12" font-family="Times,serif" font-size="14.00">ODRL</text>
</g>
<!-- http://purl.org/oseg/ontologies/OTRL#ODRL&#45;&gt;http://www.w3.org/2002/07/owl#class -->
<g id="edge21" class="edge">
<title>http://purl.org/oseg/ontologies/OTRL#ODRL&#45;&gt;http://www.w3.org/2002/07/owl#class</title>
<path fill="none" stroke="black" d="M215.92,-869.38C221.47,-839 233.39,-773.83 240.07,-737.31"/>
<polygon fill="black" stroke="black" points="243.53,-737.86 241.88,-727.39 236.64,-736.6 243.53,-737.86"/>
<text text-anchor="middle" x="223.49" y="-807.15" font-family="Times,serif" font-size="14.00">a</text>
</g>
<!-- http://purl.org/oseg/ontologies/OTRL#OTRL -->
<g id="node3" class="node">
<title>http://purl.org/oseg/ontologies/OTRL#OTRL</title>
<ellipse fill="none" stroke="#e377c2" cx="303.31" cy="-443.2" rx="39.7" ry="16.03"/>
<text text-anchor="middle" x="303.31" y="-439.5" font-family="Times,serif" font-size="14.00">OTRL</text>
</g>
<!-- http://purl.org/oseg/ontologies/OTRL#OTRL&#45;&gt;http://www.w3.org/2002/07/owl#class -->
<g id="edge30" class="edge">
<title>http://purl.org/oseg/ontologies/OTRL#OTRL&#45;&gt;http://www.w3.org/2002/07/owl#class</title>
<path fill="none" stroke="black" d="M299.74,-459.56C289.96,-504.4 262.64,-629.6 250.64,-684.62"/>
<polygon fill="black" stroke="black" points="247.17,-684.13 248.45,-694.65 254,-685.62 247.17,-684.13"/>
<text text-anchor="middle" x="270.69" y="-575.89" font-family="Times,serif" font-size="14.00">a</text>
</g>
<!-- http://purl.org/oseg/ontologies/OTRL#ODRL&#45;3 -->
<g id="node4" class="node">
<title>http://purl.org/oseg/ontologies/OTRL#ODRL&#45;3</title>
<ellipse fill="none" stroke="#e377c2" cx="61.17" cy="-872.04" rx="50.82" ry="16.03"/>
<text text-anchor="middle" x="61.17" y="-868.34" font-family="Times,serif" font-size="14.00">ODRL&#45;3</text>
</g>
<!-- http://purl.org/oseg/ontologies/OTRL#ODRL&#45;3&#45;&gt;http://www.w3.org/2002/07/owl#class -->
<g id="edge1" class="edge">
<title>http://purl.org/oseg/ontologies/OTRL#ODRL&#45;3&#45;&gt;http://www.w3.org/2002/07/owl#class</title>
<path fill="none" stroke="black" d="M78.78,-856.61C111.48,-827.97 181.66,-766.49 219.47,-733.36"/>
<polygon fill="black" stroke="black" points="221.81,-735.97 227.03,-726.75 217.2,-730.7 221.81,-735.97"/>
<text text-anchor="middle" x="144.63" y="-798.79" font-family="Times,serif" font-size="14.00">a</text>
</g>
<!-- http://purl.org/oseg/ontologies/OTRL#ODRL&#45;3&#45;&gt;http://purl.org/oseg/ontologies/OTRL#ODRL -->
<g id="edge18" class="edge">
<title>http://purl.org/oseg/ontologies/OTRL#ODRL&#45;3&#45;&gt;http://purl.org/oseg/ontologies/OTRL#ODRL</title>
<path fill="none" stroke="black" d="M110.43,-876.51C126.92,-878.01 145.32,-879.68 161.93,-881.19"/>
<polygon fill="black" stroke="black" points="161.73,-884.68 172.01,-882.1 162.37,-877.71 161.73,-884.68"/>
</g>
<!-- http://schema.org/Text -->
<g id="node5" class="node">
<title>http://schema.org/Text</title>
<ellipse fill="none" stroke="#e377c2" cx="399.41" cy="-16.65" rx="74.91" ry="16.03"/>
<text text-anchor="middle" x="399.41" y="-12.95" font-family="Times,serif" font-size="14.00">schema:Text</text>
</g>
<!-- http://purl.org/oseg/ontologies/OTRL#OTRL&#45;1 -->
<g id="node6" class="node">
<title>http://purl.org/oseg/ontologies/OTRL#OTRL&#45;1</title>
<ellipse fill="none" stroke="#e377c2" cx="120.23" cy="-481.98" rx="49.49" ry="16.03"/>
<text text-anchor="middle" x="120.23" y="-478.28" font-family="Times,serif" font-size="14.00">OTRL&#45;1</text>
</g>
<!-- http://purl.org/oseg/ontologies/OTRL#OTRL&#45;1&#45;&gt;http://www.w3.org/2002/07/owl#class -->
<g id="edge26" class="edge">
<title>http://purl.org/oseg/ontologies/OTRL#OTRL&#45;1&#45;&gt;http://www.w3.org/2002/07/owl#class</title>
<path fill="none" stroke="black" d="M128.99,-498.09C150.4,-537.45 205.48,-638.73 231.22,-686.06"/>
<polygon fill="black" stroke="black" points="228.25,-687.92 236.1,-695.03 234.4,-684.58 228.25,-687.92"/>
<text text-anchor="middle" x="175.61" y="-595.87" font-family="Times,serif" font-size="14.00">a</text>
</g>
<!-- http://purl.org/oseg/ontologies/OTRL#OTRL&#45;1&#45;&gt;http://purl.org/oseg/ontologies/OTRL#OTRL -->
<g id="edge13" class="edge">
<title>http://purl.org/oseg/ontologies/OTRL#OTRL&#45;1&#45;&gt;http://purl.org/oseg/ontologies/OTRL#OTRL</title>
<path fill="none" stroke="black" d="M162.23,-473.08C190.85,-467.02 228.7,-459 257.99,-452.8"/>
<polygon fill="black" stroke="black" points="258.91,-456.18 267.97,-450.69 257.46,-449.34 258.91,-456.18"/>
</g>
<!-- http://purl.org/oseg/ontologies/OTRL#ODRL&#45;2 -->
<g id="node7" class="node">
<title>http://purl.org/oseg/ontologies/OTRL#ODRL&#45;2</title>
<ellipse fill="none" stroke="#e377c2" cx="345.73" cy="-939.14" rx="50.82" ry="16.03"/>
<text text-anchor="middle" x="345.73" y="-935.44" font-family="Times,serif" font-size="14.00">ODRL&#45;2</text>
</g>
<!-- http://purl.org/oseg/ontologies/OTRL#ODRL&#45;2&#45;&gt;http://www.w3.org/2002/07/owl#class -->
<g id="edge27" class="edge">
<title>http://purl.org/oseg/ontologies/OTRL#ODRL&#45;2&#45;&gt;http://www.w3.org/2002/07/owl#class</title>
<path fill="none" stroke="black" d="M338.48,-922.74C321.1,-883.46 277,-783.77 256.13,-736.61"/>
<polygon fill="black" stroke="black" points="259.29,-735.11 252.05,-727.38 252.89,-737.94 259.29,-735.11"/>
<text text-anchor="middle" x="292.8" y="-833.47" font-family="Times,serif" font-size="14.00">a</text>
</g>
<!-- http://purl.org/oseg/ontologies/OTRL#ODRL&#45;2&#45;&gt;http://purl.org/oseg/ontologies/OTRL#ODRL -->
<g id="edge15" class="edge">
<title>http://purl.org/oseg/ontologies/OTRL#ODRL&#45;2&#45;&gt;http://purl.org/oseg/ontologies/OTRL#ODRL</title>
<path fill="none" stroke="black" d="M313.92,-926.37C295.19,-918.85 271.36,-909.28 251.56,-901.33"/>
<polygon fill="black" stroke="black" points="252.78,-898.05 242.2,-897.57 250.17,-904.55 252.78,-898.05"/>
</g>
<!-- http://purl.org/oseg/ontologies/OTRL#softwareDescription -->
<g id="node8" class="node">
<title>http://purl.org/oseg/ontologies/OTRL#softwareDescription</title>
<ellipse fill="none" stroke="#e377c2" cx="394.66" cy="-132.13" rx="113.69" ry="16.03"/>
<text text-anchor="middle" x="394.66" y="-128.43" font-family="Times,serif" font-size="14.00">softwareDescription</text>
</g>
<!-- http://purl.org/oseg/ontologies/OTRL#softwareDescription&#45;&gt;http://purl.org/oseg/ontologies/OTRL#OTRL -->
<g id="edge17" class="edge">
<title>http://purl.org/oseg/ontologies/OTRL#softwareDescription&#45;&gt;http://purl.org/oseg/ontologies/OTRL#OTRL</title>
<path fill="none" stroke="black" d="M389.87,-148.42C374.99,-199.11 329.37,-354.44 311.05,-416.84"/>
<polygon fill="black" stroke="black" points="307.61,-416.12 308.15,-426.7 314.33,-418.09 307.61,-416.12"/>
<text text-anchor="middle" x="323.96" y="-286.43" font-family="Times,serif" font-size="14.00">domain</text>
</g>
<!-- http://purl.org/oseg/ontologies/OTRL#softwareDescription&#45;&gt;http://schema.org/Text -->
<g id="edge40" class="edge">
<title>http://purl.org/oseg/ontologies/OTRL#softwareDescription&#45;&gt;http://schema.org/Text</title>
<path fill="none" stroke="black" d="M395.34,-115.59C396.11,-96.72 397.4,-65.61 398.32,-43.31"/>
<polygon fill="black" stroke="black" points="401.82,-43.3 398.73,-33.17 394.82,-43.01 401.82,-43.3"/>
<text text-anchor="middle" x="375.83" y="-83.25" font-family="Times,serif" font-size="14.00">range</text>
</g>
<!-- http://purl.org/oseg/ontologies/OTRL#OTRL&#45;2 -->
<g id="node9" class="node">
<title>http://purl.org/oseg/ontologies/OTRL#OTRL&#45;2</title>
<ellipse fill="none" stroke="#e377c2" cx="85.38" cy="-527.94" rx="49.49" ry="16.03"/>
<text text-anchor="middle" x="85.38" y="-524.24" font-family="Times,serif" font-size="14.00">OTRL&#45;2</text>
</g>
<!-- http://purl.org/oseg/ontologies/OTRL#OTRL&#45;2&#45;&gt;http://www.w3.org/2002/07/owl#class -->
<g id="edge6" class="edge">
<title>http://purl.org/oseg/ontologies/OTRL#OTRL&#45;2&#45;&gt;http://www.w3.org/2002/07/owl#class</title>
<path fill="none" stroke="black" d="M99.26,-543.87C127.3,-576.08 190.85,-649.09 223.95,-687.11"/>
<polygon fill="black" stroke="black" points="221.7,-689.85 230.9,-695.1 226.98,-685.26 221.7,-689.85"/>
<text text-anchor="middle" x="157.1" y="-619.29" font-family="Times,serif" font-size="14.00">a</text>
</g>
<!-- http://purl.org/oseg/ontologies/OTRL#OTRL&#45;2&#45;&gt;http://purl.org/oseg/ontologies/OTRL#OTRL -->
<g id="edge33" class="edge">
<title>http://purl.org/oseg/ontologies/OTRL#OTRL&#45;2&#45;&gt;http://purl.org/oseg/ontologies/OTRL#OTRL</title>
<path fill="none" stroke="black" d="M117.54,-515.43C156.78,-500.18 223.06,-474.41 264.93,-458.13"/>
<polygon fill="black" stroke="black" points="266.45,-461.29 274.5,-454.4 263.91,-454.77 266.45,-461.29"/>
</g>
<!-- http://purl.org/oseg/ontologies/OTRL -->
<g id="node10" class="node">
<title>http://purl.org/oseg/ontologies/OTRL</title>
<ellipse fill="none" stroke="#e377c2" cx="557.24" cy="-450.64" rx="60.62" ry="16.03"/>
<text text-anchor="middle" x="557.24" y="-446.94" font-family="Times,serif" font-size="14.00">ns1:OTRL</text>
</g>
<!-- http://purl.org/oseg/ontologies/OTRL&#45;&gt;http://purl.org/oseg/ontologies/OTRL -->
<g id="edge8" class="edge">
<title>http://purl.org/oseg/ontologies/OTRL&#45;&gt;http://purl.org/oseg/ontologies/OTRL</title>
<path fill="none" stroke="black" d="M612.84,-457.27C626.17,-456.75 636.05,-454.54 636.05,-450.64 636.05,-447.81 630.83,-445.86 622.87,-444.81"/>
<polygon fill="black" stroke="black" points="623.09,-441.32 612.84,-444.01 622.53,-448.3 623.09,-441.32"/>
<text text-anchor="middle" x="687.55" y="-446.94" font-family="Times,serif" font-size="14.00">owl:versionIRI</text>
</g>
<!-- http://purl.org/oseg/ontologies/OTRL#ODRL&#45;1 -->
<g id="node11" class="node">
<title>http://purl.org/oseg/ontologies/OTRL#ODRL&#45;1</title>
<ellipse fill="none" stroke="#e377c2" cx="403.1" cy="-877.73" rx="50.82" ry="16.03"/>
<text text-anchor="middle" x="403.1" y="-874.03" font-family="Times,serif" font-size="14.00">ODRL&#45;1</text>
</g>
<!-- http://purl.org/oseg/ontologies/OTRL#ODRL&#45;1&#45;&gt;http://www.w3.org/2002/07/owl#class -->
<g id="edge9" class="edge">
<title>http://purl.org/oseg/ontologies/OTRL#ODRL&#45;1&#45;&gt;http://www.w3.org/2002/07/owl#class</title>
<path fill="none" stroke="black" d="M388.22,-862.06C360.18,-832.54 299.42,-768.57 266.73,-734.16"/>
<polygon fill="black" stroke="black" points="269.25,-731.72 259.82,-726.88 264.17,-736.54 269.25,-731.72"/>
<text text-anchor="middle" x="322.97" y="-801.91" font-family="Times,serif" font-size="14.00">a</text>
</g>
<!-- http://purl.org/oseg/ontologies/OTRL#ODRL&#45;1&#45;&gt;http://purl.org/oseg/ontologies/OTRL#ODRL -->
<g id="edge16" class="edge">
<title>http://purl.org/oseg/ontologies/OTRL#ODRL&#45;1&#45;&gt;http://purl.org/oseg/ontologies/OTRL#ODRL</title>
<path fill="none" stroke="black" d="M352.64,-879.87C325.51,-881.03 292.11,-882.45 264.77,-883.61"/>
<polygon fill="black" stroke="black" points="264.46,-880.12 254.62,-884.04 264.76,-887.12 264.46,-880.12"/>
</g>
<!-- http://purl.org/oseg/ontologies/OTRL#OTRL&#45;6 -->
<g id="node12" class="node">
<title>http://purl.org/oseg/ontologies/OTRL#OTRL&#45;6</title>
<ellipse fill="none" stroke="#e377c2" cx="428.75" cy="-531.13" rx="49.49" ry="16.03"/>
<text text-anchor="middle" x="428.75" y="-527.43" font-family="Times,serif" font-size="14.00">OTRL&#45;6</text>
</g>
<!-- http://purl.org/oseg/ontologies/OTRL#OTRL&#45;6&#45;&gt;http://www.w3.org/2002/07/owl#class -->
<g id="edge12" class="edge">
<title>http://purl.org/oseg/ontologies/OTRL#OTRL&#45;6&#45;&gt;http://www.w3.org/2002/07/owl#class</title>
<path fill="none" stroke="black" d="M412.75,-546.78C380.29,-578.57 306.52,-650.77 268.49,-687.99"/>
<polygon fill="black" stroke="black" points="265.65,-685.88 260.95,-695.38 270.54,-690.88 265.65,-685.88"/>
<text text-anchor="middle" x="336.12" y="-621.19" font-family="Times,serif" font-size="14.00">a</text>
</g>
<!-- http://purl.org/oseg/ontologies/OTRL#OTRL&#45;6&#45;&gt;http://purl.org/oseg/ontologies/OTRL#OTRL -->
<g id="edge29" class="edge">
<title>http://purl.org/oseg/ontologies/OTRL#OTRL&#45;6&#45;&gt;http://purl.org/oseg/ontologies/OTRL#OTRL</title>
<path fill="none" stroke="black" d="M407.47,-516.21C386.64,-501.61 354.78,-479.28 331.78,-463.16"/>
<polygon fill="black" stroke="black" points="333.64,-460.19 323.44,-457.32 329.62,-465.92 333.64,-460.19"/>
</g>
<!-- http://purl.org/oseg/ontologies/OTRL#documentationDescription -->
<g id="node13" class="node">
<title>http://purl.org/oseg/ontologies/OTRL#documentationDescription</title>
<ellipse fill="none" stroke="#e377c2" cx="149.95" cy="-171.47" rx="120.83" ry="16.03"/>
<text text-anchor="middle" x="149.95" y="-167.77" font-family="Times,serif" font-size="14.00">documentationDesc...</text>
</g>
<!-- http://purl.org/oseg/ontologies/OTRL#documentationDescription&#45;&gt;http://purl.org/oseg/ontologies/OTRL#OTRL -->
<g id="edge20" class="edge">
<title>http://purl.org/oseg/ontologies/OTRL#documentationDescription&#45;&gt;http://purl.org/oseg/ontologies/OTRL#OTRL</title>
<path fill="none" stroke="black" d="M159.31,-188.06C185.26,-234.04 258.23,-363.33 289.16,-418.14"/>
<polygon fill="black" stroke="black" points="286.3,-420.19 294.26,-427.17 292.39,-416.75 286.3,-420.19"/>
<text text-anchor="middle" x="197.73" y="-306.9" font-family="Times,serif" font-size="14.00">domain</text>
</g>
<!-- http://purl.org/oseg/ontologies/OTRL#documentationDescription&#45;&gt;http://schema.org/Text -->
<g id="edge3" class="edge">
<title>http://purl.org/oseg/ontologies/OTRL#documentationDescription&#45;&gt;http://schema.org/Text</title>
<path fill="none" stroke="black" d="M175.7,-155.49C221.15,-127.28 315.53,-68.71 365.95,-37.42"/>
<polygon fill="black" stroke="black" points="367.89,-40.34 374.54,-32.09 364.19,-34.39 367.89,-40.34"/>
<text text-anchor="middle" x="249.83" y="-100.25" font-family="Times,serif" font-size="14.00">range</text>
</g>
<!-- http://purl.org/oseg/ontologies/OTRL#exitCriteria -->
<g id="node14" class="node">
<title>http://purl.org/oseg/ontologies/OTRL#exitCriteria</title>
<ellipse fill="none" stroke="#e377c2" cx="315.24" cy="-221.12" rx="70.01" ry="16.03"/>
<text text-anchor="middle" x="315.24" y="-217.42" font-family="Times,serif" font-size="14.00">exitCriteria</text>
</g>
<!-- http://purl.org/oseg/ontologies/OTRL#exitCriteria&#45;&gt;http://purl.org/oseg/ontologies/OTRL#OTRL -->
<g id="edge39" class="edge">
<title>http://purl.org/oseg/ontologies/OTRL#exitCriteria&#45;&gt;http://purl.org/oseg/ontologies/OTRL#OTRL</title>
<path fill="none" stroke="black" d="M314.37,-237.45C312.32,-275.47 307.23,-370.2 304.73,-416.66"/>
<polygon fill="black" stroke="black" points="301.23,-416.68 304.18,-426.85 308.22,-417.05 301.23,-416.68"/>
<text text-anchor="middle" x="283.05" y="-330.85" font-family="Times,serif" font-size="14.00">domain</text>
</g>
<!-- http://purl.org/oseg/ontologies/OTRL#exitCriteria&#45;&gt;http://schema.org/Text -->
<g id="edge4" class="edge">
<title>http://purl.org/oseg/ontologies/OTRL#exitCriteria&#45;&gt;http://schema.org/Text</title>
<path fill="none" stroke="black" d="M321.99,-204.73C336.58,-169.29 371.17,-85.26 388.75,-42.55"/>
<polygon fill="black" stroke="black" points="392.07,-43.7 392.64,-33.12 385.59,-41.03 392.07,-43.7"/>
<text text-anchor="middle" x="334.37" y="-112.44" font-family="Times,serif" font-size="14.00">range</text>
</g>
<!-- http://purl.org/oseg/ontologies/OTRL#OTRL&#45;7 -->
<g id="node15" class="node">
<title>http://purl.org/oseg/ontologies/OTRL#OTRL&#45;7</title>
<ellipse fill="none" stroke="#e377c2" cx="429.78" cy="-641.29" rx="49.49" ry="16.03"/>
<text text-anchor="middle" x="429.78" y="-637.59" font-family="Times,serif" font-size="14.00">OTRL&#45;7</text>
</g>
<!-- http://purl.org/oseg/ontologies/OTRL#OTRL&#45;7&#45;&gt;http://www.w3.org/2002/07/owl#class -->
<g id="edge31" class="edge">
<title>http://purl.org/oseg/ontologies/OTRL#OTRL&#45;7&#45;&gt;http://www.w3.org/2002/07/owl#class</title>
<path fill="none" stroke="black" d="M397.15,-653.61C367.04,-664.98 322.11,-681.95 288.85,-694.52"/>
<polygon fill="black" stroke="black" points="287.48,-691.29 279.36,-698.1 289.95,-697.84 287.48,-691.29"/>
<text text-anchor="middle" x="338.5" y="-677.87" font-family="Times,serif" font-size="14.00">a</text>
</g>
<!-- http://purl.org/oseg/ontologies/OTRL#OTRL&#45;7&#45;&gt;http://purl.org/oseg/ontologies/OTRL#OTRL -->
<g id="edge11" class="edge">
<title>http://purl.org/oseg/ontologies/OTRL#OTRL&#45;7&#45;&gt;http://purl.org/oseg/ontologies/OTRL#OTRL</title>
<path fill="none" stroke="black" d="M419.43,-625.08C397.27,-590.37 345.13,-508.71 318.92,-467.66"/>
<polygon fill="black" stroke="black" points="321.78,-465.63 313.45,-459.08 315.88,-469.4 321.78,-465.63"/>
</g>
<!-- http://purl.org/oseg/ontologies/OTRL#OTRL&#45;3 -->
<g id="node16" class="node">
<title>http://purl.org/oseg/ontologies/OTRL#OTRL&#45;3</title>
<ellipse fill="none" stroke="#e377c2" cx="345.96" cy="-578.63" rx="49.49" ry="16.03"/>
<text text-anchor="middle" x="345.96" y="-574.93" font-family="Times,serif" font-size="14.00">OTRL&#45;3</text>
</g>
<!-- http://purl.org/oseg/ontologies/OTRL#OTRL&#45;3&#45;&gt;http://www.w3.org/2002/07/owl#class -->
<g id="edge34" class="edge">
<title>http://purl.org/oseg/ontologies/OTRL#OTRL&#45;3&#45;&gt;http://www.w3.org/2002/07/owl#class</title>
<path fill="none" stroke="black" d="M333.76,-594.61C316.23,-617.59 283.76,-660.15 263.29,-686.98"/>
<polygon fill="black" stroke="black" points="260.38,-685.02 257.1,-695.09 265.94,-689.26 260.38,-685.02"/>
<text text-anchor="middle" x="294.03" y="-644.59" font-family="Times,serif" font-size="14.00">a</text>
</g>
<!-- http://purl.org/oseg/ontologies/OTRL#OTRL&#45;3&#45;&gt;http://purl.org/oseg/ontologies/OTRL#OTRL -->
<g id="edge25" class="edge">
<title>http://purl.org/oseg/ontologies/OTRL#OTRL&#45;3&#45;&gt;http://purl.org/oseg/ontologies/OTRL#OTRL</title>
<path fill="none" stroke="black" d="M340.81,-562.29C333.54,-539.21 320.19,-496.81 311.53,-469.33"/>
<polygon fill="black" stroke="black" points="314.81,-468.08 308.47,-459.6 308.13,-470.19 314.81,-468.08"/>
</g>
<!-- http://purl.org/oseg/ontologies/OTRL#ODRL&#45;4 -->
<g id="node17" class="node">
<title>http://purl.org/oseg/ontologies/OTRL#ODRL&#45;4</title>
<ellipse fill="none" stroke="#e377c2" cx="116.22" cy="-928.82" rx="50.82" ry="16.03"/>
<text text-anchor="middle" x="116.22" y="-925.12" font-family="Times,serif" font-size="14.00">ODRL&#45;4</text>
</g>
<!-- http://purl.org/oseg/ontologies/OTRL#ODRL&#45;4&#45;&gt;http://www.w3.org/2002/07/owl#class -->
<g id="edge37" class="edge">
<title>http://purl.org/oseg/ontologies/OTRL#ODRL&#45;4&#45;&gt;http://www.w3.org/2002/07/owl#class</title>
<path fill="none" stroke="black" d="M125.68,-912.81C147.84,-875.32 203.23,-781.57 229.96,-736.33"/>
<polygon fill="black" stroke="black" points="233.14,-737.85 235.21,-727.46 227.11,-734.28 233.14,-737.85"/>
<text text-anchor="middle" x="173.32" y="-828.37" font-family="Times,serif" font-size="14.00">a</text>
</g>
<!-- http://purl.org/oseg/ontologies/OTRL#ODRL&#45;4&#45;&gt;http://purl.org/oseg/ontologies/OTRL#ODRL -->
<g id="edge2" class="edge">
<title>http://purl.org/oseg/ontologies/OTRL#ODRL&#45;4&#45;&gt;http://purl.org/oseg/ontologies/OTRL#ODRL</title>
<path fill="none" stroke="black" d="M146.02,-915.56C155.52,-911.34 166.15,-906.61 176.09,-902.19"/>
<polygon fill="black" stroke="black" points="177.64,-905.33 185.35,-898.07 174.79,-898.94 177.64,-905.33"/>
</g>
<!-- http://purl.org/oseg/ontologies/OTRL#hardwareDescription -->
<g id="node18" class="node">
<title>http://purl.org/oseg/ontologies/OTRL#hardwareDescription</title>
<ellipse fill="none" stroke="#e377c2" cx="537.07" cy="-248.93" rx="118.17" ry="16.03"/>
<text text-anchor="middle" x="537.07" y="-245.23" font-family="Times,serif" font-size="14.00">hardwareDescription</text>
</g>
<!-- http://purl.org/oseg/ontologies/OTRL#hardwareDescription&#45;&gt;http://purl.org/oseg/ontologies/OTRL#OTRL -->
<g id="edge14" class="edge">
<title>http://purl.org/oseg/ontologies/OTRL#hardwareDescription&#45;&gt;http://purl.org/oseg/ontologies/OTRL#OTRL</title>
<path fill="none" stroke="black" d="M517.54,-265.16C475.41,-300.18 375.99,-382.8 328.9,-421.93"/>
<polygon fill="black" stroke="black" points="326.46,-419.41 321.01,-428.49 330.93,-424.79 326.46,-419.41"/>
<text text-anchor="middle" x="396.72" y="-347.35" font-family="Times,serif" font-size="14.00">domain</text>
</g>
<!-- http://purl.org/oseg/ontologies/OTRL#hardwareDescription&#45;&gt;http://schema.org/Text -->
<g id="edge10" class="edge">
<title>http://purl.org/oseg/ontologies/OTRL#hardwareDescription&#45;&gt;http://schema.org/Text</title>
<path fill="none" stroke="black" d="M527.39,-232.6C503.69,-192.62 442.65,-89.61 414.3,-41.77"/>
<polygon fill="black" stroke="black" points="417.19,-39.79 409.08,-32.97 411.17,-43.36 417.19,-39.79"/>
<text text-anchor="middle" x="491.84" y="-140.98" font-family="Times,serif" font-size="14.00">range</text>
</g>
<!-- http://purl.org/oseg/ontologies/OTRL#ODRL&#45;5 -->
<g id="node19" class="node">
<title>http://purl.org/oseg/ontologies/OTRL#ODRL&#45;5</title>
<ellipse fill="none" stroke="#e377c2" cx="51.29" cy="-802.61" rx="50.82" ry="16.03"/>
<text text-anchor="middle" x="51.29" y="-798.91" font-family="Times,serif" font-size="14.00">ODRL&#45;5</text>
</g>
<!-- http://purl.org/oseg/ontologies/OTRL#ODRL&#45;5&#45;&gt;http://www.w3.org/2002/07/owl#class -->
<g id="edge38" class="edge">
<title>http://purl.org/oseg/ontologies/OTRL#ODRL&#45;5&#45;&gt;http://www.w3.org/2002/07/owl#class</title>
<path fill="none" stroke="black" d="M79.85,-789.11C113.3,-773.3 168.86,-747.04 206.16,-729.42"/>
<polygon fill="black" stroke="black" points="207.68,-732.57 215.22,-725.13 204.69,-726.24 207.68,-732.57"/>
<text text-anchor="middle" x="138.5" y="-763.06" font-family="Times,serif" font-size="14.00">a</text>
</g>
<!-- http://purl.org/oseg/ontologies/OTRL#ODRL&#45;5&#45;&gt;http://purl.org/oseg/ontologies/OTRL#ODRL -->
<g id="edge5" class="edge">
<title>http://purl.org/oseg/ontologies/OTRL#ODRL&#45;5&#45;&gt;http://purl.org/oseg/ontologies/OTRL#ODRL</title>
<path fill="none" stroke="black" d="M78.34,-816.54C105.83,-830.69 148.51,-852.66 178.41,-868.06"/>
<polygon fill="black" stroke="black" points="177.14,-871.34 187.64,-872.8 180.35,-865.12 177.14,-871.34"/>
</g>
<!-- http://purl.org/oseg/ontologies/OTRL#OTRL&#45;8 -->
<g id="node20" class="node">
<title>http://purl.org/oseg/ontologies/OTRL#OTRL&#45;8</title>
<ellipse fill="none" stroke="#e377c2" cx="246.25" cy="-497.95" rx="49.49" ry="16.03"/>
<text text-anchor="middle" x="246.25" y="-494.25" font-family="Times,serif" font-size="14.00">OTRL&#45;8</text>
</g>
<!-- http://purl.org/oseg/ontologies/OTRL#OTRL&#45;8&#45;&gt;http://www.w3.org/2002/07/owl#class -->
<g id="edge19" class="edge">
<title>http://purl.org/oseg/ontologies/OTRL#OTRL&#45;8&#45;&gt;http://www.w3.org/2002/07/owl#class</title>
<path fill="none" stroke="black" d="M246.15,-514.33C245.91,-550.99 245.32,-639.94 245.03,-684.61"/>
<polygon fill="black" stroke="black" points="241.53,-684.68 244.97,-694.7 248.53,-684.72 241.53,-684.68"/>
<text text-anchor="middle" x="241.09" y="-588.27" font-family="Times,serif" font-size="14.00">a</text>
</g>
<!-- http://purl.org/oseg/ontologies/OTRL#OTRL&#45;8&#45;&gt;http://purl.org/oseg/ontologies/OTRL#OTRL -->
<g id="edge32" class="edge">
<title>http://purl.org/oseg/ontologies/OTRL#OTRL&#45;8&#45;&gt;http://purl.org/oseg/ontologies/OTRL#OTRL</title>
<path fill="none" stroke="black" d="M262.45,-482.41C268.01,-477.08 274.34,-471 280.33,-465.25"/>
<polygon fill="black" stroke="black" points="282.87,-467.67 287.66,-458.22 278.02,-462.62 282.87,-467.67"/>
</g>
<!-- http://purl.org/oseg/ontologies/OTRL#OTRL&#45;5 -->
<g id="node21" class="node">
<title>http://purl.org/oseg/ontologies/OTRL#OTRL&#45;5</title>
<ellipse fill="none" stroke="#e377c2" cx="156.69" cy="-578.65" rx="49.49" ry="16.03"/>
<text text-anchor="middle" x="156.69" y="-574.95" font-family="Times,serif" font-size="14.00">OTRL&#45;5</text>
</g>
<!-- http://purl.org/oseg/ontologies/OTRL#OTRL&#45;5&#45;&gt;http://www.w3.org/2002/07/owl#class -->
<g id="edge22" class="edge">
<title>http://purl.org/oseg/ontologies/OTRL#OTRL&#45;5&#45;&gt;http://www.w3.org/2002/07/owl#class</title>
<path fill="none" stroke="black" d="M167.33,-594.63C182.55,-617.51 210.69,-659.79 228.55,-686.63"/>
<polygon fill="black" stroke="black" points="225.73,-688.71 234.19,-695.09 231.56,-684.83 225.73,-688.71"/>
<text text-anchor="middle" x="193.44" y="-644.43" font-family="Times,serif" font-size="14.00">a</text>
</g>
<!-- http://purl.org/oseg/ontologies/OTRL#OTRL&#45;5&#45;&gt;http://purl.org/oseg/ontologies/OTRL#OTRL -->
<g id="edge35" class="edge">
<title>http://purl.org/oseg/ontologies/OTRL#OTRL&#45;5&#45;&gt;http://purl.org/oseg/ontologies/OTRL#OTRL</title>
<path fill="none" stroke="black" d="M173.51,-563.11C199.61,-539 249.95,-492.5 279.68,-465.03"/>
<polygon fill="black" stroke="black" points="282.16,-467.5 287.13,-458.15 277.41,-462.36 282.16,-467.5"/>
</g>
<!-- http://purl.org/oseg/ontologies/OTRL#OTRL&#45;4 -->
<g id="node22" class="node">
<title>http://purl.org/oseg/ontologies/OTRL#OTRL&#45;4</title>
<ellipse fill="none" stroke="#e377c2" cx="471.72" cy="-586.54" rx="49.49" ry="16.03"/>
<text text-anchor="middle" x="471.72" y="-582.84" font-family="Times,serif" font-size="14.00">OTRL&#45;4</text>
</g>
<!-- http://purl.org/oseg/ontologies/OTRL#OTRL&#45;4&#45;&gt;http://www.w3.org/2002/07/owl#class -->
<g id="edge23" class="edge">
<title>http://purl.org/oseg/ontologies/OTRL#OTRL&#45;4&#45;&gt;http://www.w3.org/2002/07/owl#class</title>
<path fill="none" stroke="black" d="M446.14,-600.59C405.59,-622.85 326.46,-666.31 280.42,-691.6"/>
<polygon fill="black" stroke="black" points="278.48,-688.67 271.4,-696.55 281.85,-694.81 278.48,-688.67"/>
<text text-anchor="middle" x="358.78" y="-649.89" font-family="Times,serif" font-size="14.00">a</text>
</g>
<!-- http://purl.org/oseg/ontologies/OTRL#OTRL&#45;4&#45;&gt;http://purl.org/oseg/ontologies/OTRL#OTRL -->
<g id="edge36" class="edge">
<title>http://purl.org/oseg/ontologies/OTRL#OTRL&#45;4&#45;&gt;http://purl.org/oseg/ontologies/OTRL#OTRL</title>
<path fill="none" stroke="black" d="M453.7,-571.2C423.53,-545.52 362.75,-493.8 328.41,-464.57"/>
<polygon fill="black" stroke="black" points="330.58,-461.82 320.69,-458 326.04,-467.15 330.58,-461.82"/>
</g>
<!-- http://purl.org/oseg/ontologies/OTRL#OTRL&#45;9 -->
<g id="node23" class="node">
<title>http://purl.org/oseg/ontologies/OTRL#OTRL&#45;9</title>
<ellipse fill="none" stroke="#e377c2" cx="269.12" cy="-620.68" rx="49.49" ry="16.03"/>
<text text-anchor="middle" x="269.12" y="-616.98" font-family="Times,serif" font-size="14.00">OTRL&#45;9</text>
</g>
<!-- http://purl.org/oseg/ontologies/OTRL#OTRL&#45;9&#45;&gt;http://www.w3.org/2002/07/owl#class -->
<g id="edge41" class="edge">
<title>http://purl.org/oseg/ontologies/OTRL#OTRL&#45;9&#45;&gt;http://www.w3.org/2002/07/owl#class</title>
<path fill="none" stroke="black" d="M264.67,-637.27C261.11,-650.53 256.06,-669.37 251.95,-684.7"/>
<polygon fill="black" stroke="black" points="248.49,-684.08 249.28,-694.64 255.25,-685.89 248.49,-684.08"/>
<text text-anchor="middle" x="253.81" y="-664.79" font-family="Times,serif" font-size="14.00">a</text>
</g>
<!-- http://purl.org/oseg/ontologies/OTRL#OTRL&#45;9&#45;&gt;http://purl.org/oseg/ontologies/OTRL#OTRL -->
<g id="edge7" class="edge">
<title>http://purl.org/oseg/ontologies/OTRL#OTRL&#45;9&#45;&gt;http://purl.org/oseg/ontologies/OTRL#OTRL</title>
<path fill="none" stroke="black" d="M272.27,-604.3C278.2,-573.53 291.05,-506.84 298.21,-469.63"/>
<polygon fill="black" stroke="black" points="301.7,-470.02 300.16,-459.54 294.83,-468.7 301.7,-470.02"/>
</g>
<!-- http://purl.org/oseg/ontologies/OTRL#ODRL&#45;0 -->
<g id="node24" class="node">
<title>http://purl.org/oseg/ontologies/OTRL#ODRL&#45;0</title>
<ellipse fill="none" stroke="#e377c2" cx="234.33" cy="-963.23" rx="50.82" ry="16.03"/>
<text text-anchor="middle" x="234.33" y="-959.53" font-family="Times,serif" font-size="14.00">ODRL&#45;0</text>
</g>
<!-- http://purl.org/oseg/ontologies/OTRL#ODRL&#45;0&#45;&gt;http://www.w3.org/2002/07/owl#class -->
<g id="edge24" class="edge">
<title>http://purl.org/oseg/ontologies/OTRL#ODRL&#45;0&#45;&gt;http://www.w3.org/2002/07/owl#class</title>
<path fill="none" stroke="black" d="M235.02,-946.69C236.81,-903.94 241.58,-789.51 243.76,-737.51"/>
<polygon fill="black" stroke="black" points="247.26,-737.54 244.18,-727.4 240.26,-737.25 247.26,-737.54"/>
<text text-anchor="middle" x="234.89" y="-845.9" font-family="Times,serif" font-size="14.00">a</text>
</g>
<!-- http://purl.org/oseg/ontologies/OTRL#ODRL&#45;0&#45;&gt;http://purl.org/oseg/ontologies/OTRL#ODRL -->
<g id="edge28" class="edge">
<title>http://purl.org/oseg/ontologies/OTRL#ODRL&#45;0&#45;&gt;http://purl.org/oseg/ontologies/OTRL#ODRL</title>
<path fill="none" stroke="black" d="M229.79,-946.81C227,-936.76 223.38,-923.65 220.2,-912.17"/>
<polygon fill="black" stroke="black" points="223.49,-910.92 217.45,-902.21 216.74,-912.78 223.49,-910.92"/>
</g>
</g>
</svg>
