<?xml version="1.0" encoding="UTF-8" standalone="no"?>
<!DOCTYPE svg PUBLIC "-//W3C//DTD SVG 1.1//EN"
 "http://www.w3.org/Graphics/SVG/1.1/DTD/svg11.dtd">
<!-- Generated by graphviz version 2.43.0 (0)
 -->
<!-- Title: G Pages: 1 -->
<svg width="669pt" height="475pt"
 viewBox="0.00 0.00 669.05 475.00" xmlns="http://www.w3.org/2000/svg" xmlns:xlink="http://www.w3.org/1999/xlink">
<g id="graph0" class="graph" transform="scale(1 1) rotate(0) translate(4 471)">
<title>G</title>
<polygon fill="white" stroke="transparent" points="-4,4 -4,-471 665.05,-471 665.05,4 -4,4"/>
<!-- http://purl.org/oseg/ontologies/OTRL#ODRL -->
<g id="node1" class="node">
<title>http://purl.org/oseg/ontologies/OTRL#ODRL</title>
<ellipse fill="none" stroke="#e377c2" cx="122.51" cy="-207.98" rx="41.94" ry="16.03"/>
<text text-anchor="middle" x="122.51" y="-204.28" font-family="Times,serif" font-size="14.00">ODRL</text>
</g>
<!-- http://purl.org/oseg/ontologies/OTRL#OTRL -->
<g id="node2" class="node">
<title>http://purl.org/oseg/ontologies/OTRL#OTRL</title>
<ellipse fill="none" stroke="#e377c2" cx="405.27" cy="-161.27" rx="39.7" ry="16.03"/>
<text text-anchor="middle" x="405.27" y="-157.57" font-family="Times,serif" font-size="14.00">OTRL</text>
</g>
<!-- http://www.w3.org/2002/07/owl#class -->
<g id="node3" class="node">
<title>http://www.w3.org/2002/07/owl#class</title>
<ellipse fill="none" stroke="#1f77b4" cx="258.48" cy="-200.04" rx="57.05" ry="16.03"/>
<text text-anchor="middle" x="258.48" y="-196.34" font-family="Times,serif" font-size="14.00">owl:class</text>
</g>
<!-- http://purl.org/oseg/ontologies/OTRL#OTRL&#45;&gt;http://www.w3.org/2002/07/owl#class -->
<g id="edge21" class="edge">
<title>http://purl.org/oseg/ontologies/OTRL#OTRL&#45;&gt;http://www.w3.org/2002/07/owl#class</title>
<path fill="none" stroke="black" d="M371.96,-170.06C353.79,-174.86 330.89,-180.91 310.42,-186.32"/>
<polygon fill="black" stroke="black" points="309.38,-182.97 300.6,-188.91 311.16,-189.74 309.38,-182.97"/>
<text text-anchor="middle" x="336.69" y="-181.99" font-family="Times,serif" font-size="14.00">a</text>
</g>
<!-- http://purl.org/oseg/ontologies/OTRL#Odrl -->
<g id="node4" class="node">
<title>http://purl.org/oseg/ontologies/OTRL#Odrl</title>
<ellipse fill="none" stroke="#e377c2" cx="114.29" cy="-311.01" rx="33.88" ry="16.03"/>
<text text-anchor="middle" x="114.29" y="-307.31" font-family="Times,serif" font-size="14.00">Odrl</text>
</g>
<!-- http://purl.org/oseg/ontologies/OTRL#Odrl&#45;&gt;http://www.w3.org/2002/07/owl#class -->
<g id="edge2" class="edge">
<title>http://purl.org/oseg/ontologies/OTRL#Odrl&#45;&gt;http://www.w3.org/2002/07/owl#class</title>
<path fill="none" stroke="black" d="M132.26,-297.18C156.86,-278.25 201.27,-244.07 230.31,-221.72"/>
<polygon fill="black" stroke="black" points="232.64,-224.34 238.43,-215.47 228.37,-218.8 232.64,-224.34"/>
<text text-anchor="middle" x="176.78" y="-263.25" font-family="Times,serif" font-size="14.00">a</text>
</g>
<!-- http://purl.org/oseg/ontologies/OTRL#Otrl -->
<g id="node5" class="node">
<title>http://purl.org/oseg/ontologies/OTRL#Otrl</title>
<ellipse fill="none" stroke="#e377c2" cx="98.24" cy="-390.64" rx="31.64" ry="16.03"/>
<text text-anchor="middle" x="98.24" y="-386.94" font-family="Times,serif" font-size="14.00">Otrl</text>
</g>
<!-- http://purl.org/oseg/ontologies/OTRL -->
<g id="node6" class="node">
<title>http://purl.org/oseg/ontologies/OTRL</title>
<ellipse fill="none" stroke="#e377c2" cx="479.24" cy="-390.64" rx="60.62" ry="16.03"/>
<text text-anchor="middle" x="479.24" y="-386.94" font-family="Times,serif" font-size="14.00">ns1:OTRL</text>
</g>
<!-- http://purl.org/oseg/ontologies/OTRL&#45;&gt;http://purl.org/oseg/ontologies/OTRL -->
<g id="edge8" class="edge">
<title>http://purl.org/oseg/ontologies/OTRL&#45;&gt;http://purl.org/oseg/ontologies/OTRL</title>
<path fill="none" stroke="black" d="M534.84,-397.27C548.17,-396.75 558.05,-394.54 558.05,-390.64 558.05,-387.81 552.83,-385.86 544.87,-384.81"/>
<polygon fill="black" stroke="black" points="545.09,-381.32 534.84,-384.01 544.53,-388.3 545.09,-381.32"/>
<text text-anchor="middle" x="609.55" y="-386.94" font-family="Times,serif" font-size="14.00">owl:versionIRI</text>
</g>
<!-- http://purl.org/oseg/ontologies/OTRL#Odrl4 -->
<g id="node7" class="node">
<title>http://purl.org/oseg/ontologies/OTRL#Odrl4</title>
<ellipse fill="none" stroke="#e377c2" cx="207.63" cy="-349.19" rx="40.11" ry="16.03"/>
<text text-anchor="middle" x="207.63" y="-345.49" font-family="Times,serif" font-size="14.00">Odrl4</text>
</g>
<!-- http://purl.org/oseg/ontologies/OTRL#Odrl4&#45;&gt;http://purl.org/oseg/ontologies/OTRL#ODRL -->
<g id="edge27" class="edge">
<title>http://purl.org/oseg/ontologies/OTRL#Odrl4&#45;&gt;http://purl.org/oseg/ontologies/OTRL#ODRL</title>
<path fill="none" stroke="black" d="M198.03,-333.27C183.28,-308.8 154.92,-261.74 137.46,-232.78"/>
<polygon fill="black" stroke="black" points="140.37,-230.82 132.21,-224.07 134.37,-234.44 140.37,-230.82"/>
</g>
<!-- http://purl.org/oseg/ontologies/OTRL#Odrl4&#45;&gt;http://www.w3.org/2002/07/owl#class -->
<g id="edge11" class="edge">
<title>http://purl.org/oseg/ontologies/OTRL#Odrl4&#45;&gt;http://www.w3.org/2002/07/owl#class</title>
<path fill="none" stroke="black" d="M213.17,-332.95C221.96,-307.17 239.17,-256.67 249.67,-225.88"/>
<polygon fill="black" stroke="black" points="253.03,-226.86 252.95,-216.26 246.41,-224.6 253.03,-226.86"/>
<text text-anchor="middle" x="226.92" y="-283.22" font-family="Times,serif" font-size="14.00">a</text>
</g>
<!-- http://purl.org/oseg/ontologies/OTRL#Otrl6 -->
<g id="node8" class="node">
<title>http://purl.org/oseg/ontologies/OTRL#Otrl6</title>
<ellipse fill="none" stroke="#e377c2" cx="355.76" cy="-267.93" rx="38.37" ry="16.03"/>
<text text-anchor="middle" x="355.76" y="-264.23" font-family="Times,serif" font-size="14.00">Otrl6</text>
</g>
<!-- http://purl.org/oseg/ontologies/OTRL#Otrl6&#45;&gt;http://purl.org/oseg/ontologies/OTRL#OTRL -->
<g id="edge24" class="edge">
<title>http://purl.org/oseg/ontologies/OTRL#Otrl6&#45;&gt;http://purl.org/oseg/ontologies/OTRL#OTRL</title>
<path fill="none" stroke="black" d="M363.28,-251.73C371.32,-234.4 384.19,-206.69 393.56,-186.5"/>
<polygon fill="black" stroke="black" points="396.81,-187.81 397.84,-177.27 390.46,-184.87 396.81,-187.81"/>
</g>
<!-- http://purl.org/oseg/ontologies/OTRL#Otrl6&#45;&gt;http://www.w3.org/2002/07/owl#class -->
<g id="edge3" class="edge">
<title>http://purl.org/oseg/ontologies/OTRL#Otrl6&#45;&gt;http://www.w3.org/2002/07/owl#class</title>
<path fill="none" stroke="black" d="M335.6,-253.86C322.11,-244.45 304.1,-231.88 288.88,-221.26"/>
<polygon fill="black" stroke="black" points="290.5,-218.12 280.3,-215.27 286.5,-223.86 290.5,-218.12"/>
<text text-anchor="middle" x="307.74" y="-241.36" font-family="Times,serif" font-size="14.00">a</text>
</g>
<!-- http://schema.org/Text -->
<g id="node9" class="node">
<title>http://schema.org/Text</title>
<ellipse fill="none" stroke="#e377c2" cx="317.45" cy="-410.18" rx="74.91" ry="16.03"/>
<text text-anchor="middle" x="317.45" y="-406.48" font-family="Times,serif" font-size="14.00">schema:Text</text>
</g>
<!-- http://purl.org/oseg/ontologies/OTRL#exitCriteria -->
<g id="node10" class="node">
<title>http://purl.org/oseg/ontologies/OTRL#exitCriteria</title>
<ellipse fill="none" stroke="#e377c2" cx="375.19" cy="-450.73" rx="70.01" ry="16.03"/>
<text text-anchor="middle" x="375.19" y="-447.03" font-family="Times,serif" font-size="14.00">exitCriteria</text>
</g>
<!-- http://purl.org/oseg/ontologies/OTRL#exitCriteria&#45;&gt;http://schema.org/Text -->
<g id="edge12" class="edge">
<title>http://purl.org/oseg/ontologies/OTRL#exitCriteria&#45;&gt;http://schema.org/Text</title>
<path fill="none" stroke="black" d="M353.03,-435.17C351.41,-434.03 349.75,-432.87 348.1,-431.7"/>
<polygon fill="black" stroke="black" points="350.03,-428.79 339.83,-425.9 346.01,-434.51 350.03,-428.79"/>
<text text-anchor="middle" x="329.56" y="-422.24" font-family="Times,serif" font-size="14.00">range</text>
</g>
<!-- http://purl.org/oseg/ontologies/OTRL#Otrl5 -->
<g id="node11" class="node">
<title>http://purl.org/oseg/ontologies/OTRL#Otrl5</title>
<ellipse fill="none" stroke="#e377c2" cx="355.08" cy="-38.7" rx="38.37" ry="16.03"/>
<text text-anchor="middle" x="355.08" y="-35" font-family="Times,serif" font-size="14.00">Otrl5</text>
</g>
<!-- http://purl.org/oseg/ontologies/OTRL#Otrl5&#45;&gt;http://purl.org/oseg/ontologies/OTRL#OTRL -->
<g id="edge4" class="edge">
<title>http://purl.org/oseg/ontologies/OTRL#Otrl5&#45;&gt;http://purl.org/oseg/ontologies/OTRL#OTRL</title>
<path fill="none" stroke="black" d="M361.64,-54.73C370.05,-75.26 384.73,-111.1 394.72,-135.49"/>
<polygon fill="black" stroke="black" points="391.52,-136.92 398.55,-144.85 398,-134.27 391.52,-136.92"/>
</g>
<!-- http://purl.org/oseg/ontologies/OTRL#Otrl5&#45;&gt;http://www.w3.org/2002/07/owl#class -->
<g id="edge13" class="edge">
<title>http://purl.org/oseg/ontologies/OTRL#Otrl5&#45;&gt;http://www.w3.org/2002/07/owl#class</title>
<path fill="none" stroke="black" d="M345.64,-54.47C328.8,-82.59 293.47,-141.6 273.34,-175.21"/>
<polygon fill="black" stroke="black" points="270.23,-173.59 268.1,-183.97 276.24,-177.19 270.23,-173.59"/>
<text text-anchor="middle" x="304.99" y="-118.64" font-family="Times,serif" font-size="14.00">a</text>
</g>
<!-- http://purl.org/oseg/ontologies/OTRL#Odrl3Star -->
<g id="node12" class="node">
<title>http://purl.org/oseg/ontologies/OTRL#Odrl3Star</title>
<ellipse fill="none" stroke="#e377c2" cx="62.55" cy="-138.84" rx="62.45" ry="16.03"/>
<text text-anchor="middle" x="62.55" y="-135.14" font-family="Times,serif" font-size="14.00">Odrl3Star</text>
</g>
<!-- http://purl.org/oseg/ontologies/OTRL#Odrl3Star&#45;&gt;http://purl.org/oseg/ontologies/OTRL#ODRL -->
<g id="edge1" class="edge">
<title>http://purl.org/oseg/ontologies/OTRL#Odrl3Star&#45;&gt;http://purl.org/oseg/ontologies/OTRL#ODRL</title>
<path fill="none" stroke="black" d="M76.45,-154.88C84.13,-163.73 93.8,-174.88 102.3,-184.68"/>
<polygon fill="black" stroke="black" points="99.9,-187.25 109.09,-192.51 105.18,-182.66 99.9,-187.25"/>
</g>
<!-- http://purl.org/oseg/ontologies/OTRL#Odrl3Star&#45;&gt;http://www.w3.org/2002/07/owl#class -->
<g id="edge14" class="edge">
<title>http://purl.org/oseg/ontologies/OTRL#Odrl3Star&#45;&gt;http://www.w3.org/2002/07/owl#class</title>
<path fill="none" stroke="black" d="M102.67,-151.37C133.72,-161.07 176.84,-174.54 209.85,-184.85"/>
<polygon fill="black" stroke="black" points="209.16,-188.3 219.75,-187.94 211.24,-181.62 209.16,-188.3"/>
<text text-anchor="middle" x="151.76" y="-171.91" font-family="Times,serif" font-size="14.00">a</text>
</g>
<!-- http://purl.org/oseg/ontologies/OTRL#Otrl2 -->
<g id="node13" class="node">
<title>http://purl.org/oseg/ontologies/OTRL#Otrl2</title>
<ellipse fill="none" stroke="#e377c2" cx="284.12" cy="-81.42" rx="38.37" ry="16.03"/>
<text text-anchor="middle" x="284.12" y="-77.72" font-family="Times,serif" font-size="14.00">Otrl2</text>
</g>
<!-- http://purl.org/oseg/ontologies/OTRL#Otrl2&#45;&gt;http://purl.org/oseg/ontologies/OTRL#OTRL -->
<g id="edge9" class="edge">
<title>http://purl.org/oseg/ontologies/OTRL#Otrl2&#45;&gt;http://purl.org/oseg/ontologies/OTRL#OTRL</title>
<path fill="none" stroke="black" d="M304.94,-95.15C324.45,-108 353.79,-127.34 375.72,-141.79"/>
<polygon fill="black" stroke="black" points="374.04,-144.87 384.31,-147.45 377.89,-139.03 374.04,-144.87"/>
</g>
<!-- http://purl.org/oseg/ontologies/OTRL#Otrl2&#45;&gt;http://www.w3.org/2002/07/owl#class -->
<g id="edge16" class="edge">
<title>http://purl.org/oseg/ontologies/OTRL#Otrl2&#45;&gt;http://www.w3.org/2002/07/owl#class</title>
<path fill="none" stroke="black" d="M280.55,-97.91C276.3,-117.56 269.15,-150.65 264.15,-173.82"/>
<polygon fill="black" stroke="black" points="260.7,-173.17 262.01,-183.68 267.55,-174.65 260.7,-173.17"/>
<text text-anchor="middle" x="267.85" y="-139.67" font-family="Times,serif" font-size="14.00">a</text>
</g>
<!-- http://www.w3.org/1999/02/22&#45;rdf&#45;syntax&#45;ns#nil -->
<g id="node14" class="node">
<title>http://www.w3.org/1999/02/22&#45;rdf&#45;syntax&#45;ns#nil</title>
<ellipse fill="none" stroke="#e377c2" cx="482.24" cy="-16.64" rx="42.35" ry="16.03"/>
<text text-anchor="middle" x="482.24" y="-12.94" font-family="Times,serif" font-size="14.00">rdf:nil</text>
</g>
<!-- http://purl.org/oseg/ontologies/OTRL#Otrl4 -->
<g id="node15" class="node">
<title>http://purl.org/oseg/ontologies/OTRL#Otrl4</title>
<ellipse fill="none" stroke="#e377c2" cx="418.64" cy="-114.5" rx="38.37" ry="16.03"/>
<text text-anchor="middle" x="418.64" y="-110.8" font-family="Times,serif" font-size="14.00">Otrl4</text>
</g>
<!-- http://purl.org/oseg/ontologies/OTRL#Otrl4&#45;&gt;http://purl.org/oseg/ontologies/OTRL#OTRL -->
<g id="edge10" class="edge">
<title>http://purl.org/oseg/ontologies/OTRL#Otrl4&#45;&gt;http://purl.org/oseg/ontologies/OTRL#OTRL</title>
<path fill="none" stroke="black" d="M413.96,-130.86C413.56,-132.27 413.14,-133.73 412.72,-135.2"/>
<polygon fill="black" stroke="black" points="409.35,-134.26 409.97,-144.84 416.08,-136.19 409.35,-134.26"/>
</g>
<!-- http://purl.org/oseg/ontologies/OTRL#Otrl4&#45;&gt;http://www.w3.org/2002/07/owl#class -->
<g id="edge17" class="edge">
<title>http://purl.org/oseg/ontologies/OTRL#Otrl4&#45;&gt;http://www.w3.org/2002/07/owl#class</title>
<path fill="none" stroke="black" d="M394.66,-127.31C368.17,-141.46 325.21,-164.4 294.63,-180.73"/>
<polygon fill="black" stroke="black" points="292.74,-177.77 285.57,-185.57 296.04,-183.94 292.74,-177.77"/>
<text text-anchor="middle" x="340.15" y="-157.82" font-family="Times,serif" font-size="14.00">a</text>
</g>
<!-- http://purl.org/oseg/ontologies/OTRL#Odrl3 -->
<g id="node16" class="node">
<title>http://purl.org/oseg/ontologies/OTRL#Odrl3</title>
<ellipse fill="none" stroke="#e377c2" cx="138.33" cy="-74.77" rx="40.11" ry="16.03"/>
<text text-anchor="middle" x="138.33" y="-71.07" font-family="Times,serif" font-size="14.00">Odrl3</text>
</g>
<!-- http://purl.org/oseg/ontologies/OTRL#Odrl3&#45;&gt;http://purl.org/oseg/ontologies/OTRL#ODRL -->
<g id="edge19" class="edge">
<title>http://purl.org/oseg/ontologies/OTRL#Odrl3&#45;&gt;http://purl.org/oseg/ontologies/OTRL#ODRL</title>
<path fill="none" stroke="black" d="M136.39,-91.1C133.72,-113.57 128.89,-154.3 125.69,-181.25"/>
<polygon fill="black" stroke="black" points="122.17,-181.17 124.47,-191.52 129.12,-182 122.17,-181.17"/>
</g>
<!-- http://purl.org/oseg/ontologies/OTRL#Odrl3&#45;&gt;http://www.w3.org/2002/07/owl#class -->
<g id="edge18" class="edge">
<title>http://purl.org/oseg/ontologies/OTRL#Odrl3&#45;&gt;http://www.w3.org/2002/07/owl#class</title>
<path fill="none" stroke="black" d="M153.06,-90.13C173.85,-111.8 211.94,-151.52 236.2,-176.81"/>
<polygon fill="black" stroke="black" points="233.8,-179.36 243.25,-184.16 238.85,-174.52 233.8,-179.36"/>
<text text-anchor="middle" x="190.13" y="-137.27" font-family="Times,serif" font-size="14.00">a</text>
</g>
<!-- http://purl.org/oseg/ontologies/OTRL#goal -->
<g id="node17" class="node">
<title>http://purl.org/oseg/ontologies/OTRL#goal</title>
<ellipse fill="none" stroke="#e377c2" cx="308.27" cy="-368.44" rx="33.47" ry="16.03"/>
<text text-anchor="middle" x="308.27" y="-364.74" font-family="Times,serif" font-size="14.00">goal</text>
</g>
<!-- http://purl.org/oseg/ontologies/OTRL#goal&#45;&gt;http://schema.org/Text -->
<g id="edge5" class="edge">
<title>http://purl.org/oseg/ontologies/OTRL#goal&#45;&gt;http://schema.org/Text</title>
<path fill="none" stroke="black" d="M311.9,-384.94C311.92,-385.03 311.94,-385.12 311.96,-385.21"/>
<polygon fill="black" stroke="black" points="308.28,-384.79 313.85,-393.81 315.12,-383.29 308.28,-384.79"/>
<text text-anchor="middle" x="290.93" y="-388.88" font-family="Times,serif" font-size="14.00">range</text>
</g>
<!-- http://purl.org/oseg/ontologies/OTRL#Odrl1 -->
<g id="node18" class="node">
<title>http://purl.org/oseg/ontologies/OTRL#Odrl1</title>
<ellipse fill="none" stroke="#e377c2" cx="79.67" cy="-248.96" rx="40.11" ry="16.03"/>
<text text-anchor="middle" x="79.67" y="-245.26" font-family="Times,serif" font-size="14.00">Odrl1</text>
</g>
<!-- http://purl.org/oseg/ontologies/OTRL#Odrl1&#45;&gt;http://purl.org/oseg/ontologies/OTRL#ODRL -->
<g id="edge25" class="edge">
<title>http://purl.org/oseg/ontologies/OTRL#Odrl1&#45;&gt;http://purl.org/oseg/ontologies/OTRL#ODRL</title>
<path fill="none" stroke="black" d="M95.62,-233.7C96.86,-232.52 98.13,-231.3 99.41,-230.08"/>
<polygon fill="black" stroke="black" points="101.88,-232.56 106.69,-223.12 97.04,-227.5 101.88,-232.56"/>
</g>
<!-- http://purl.org/oseg/ontologies/OTRL#Odrl1&#45;&gt;http://www.w3.org/2002/07/owl#class -->
<g id="edge20" class="edge">
<title>http://purl.org/oseg/ontologies/OTRL#Odrl1&#45;&gt;http://www.w3.org/2002/07/owl#class</title>
<path fill="none" stroke="black" d="M113.3,-239.76C139.75,-232.52 177.04,-222.32 207.21,-214.07"/>
<polygon fill="black" stroke="black" points="208.42,-217.36 217.14,-211.35 206.57,-210.61 208.42,-217.36"/>
<text text-anchor="middle" x="155.75" y="-230.71" font-family="Times,serif" font-size="14.00">a</text>
</g>
<!-- http://purl.org/oseg/ontologies/OTRL#Otrl3 -->
<g id="node19" class="node">
<title>http://purl.org/oseg/ontologies/OTRL#Otrl3</title>
<ellipse fill="none" stroke="#e377c2" cx="444.59" cy="-222.97" rx="38.37" ry="16.03"/>
<text text-anchor="middle" x="444.59" y="-219.27" font-family="Times,serif" font-size="14.00">Otrl3</text>
</g>
<!-- http://purl.org/oseg/ontologies/OTRL#Otrl3&#45;&gt;http://purl.org/oseg/ontologies/OTRL#OTRL -->
<g id="edge23" class="edge">
<title>http://purl.org/oseg/ontologies/OTRL#Otrl3&#45;&gt;http://purl.org/oseg/ontologies/OTRL#OTRL</title>
<path fill="none" stroke="black" d="M434.47,-207.08C430.37,-200.66 425.55,-193.08 421.01,-185.97"/>
<polygon fill="black" stroke="black" points="423.83,-183.87 415.5,-177.32 417.92,-187.63 423.83,-183.87"/>
</g>
<!-- http://purl.org/oseg/ontologies/OTRL#Otrl3&#45;&gt;http://www.w3.org/2002/07/owl#class -->
<g id="edge22" class="edge">
<title>http://purl.org/oseg/ontologies/OTRL#Otrl3&#45;&gt;http://www.w3.org/2002/07/owl#class</title>
<path fill="none" stroke="black" d="M407.82,-218.44C383.09,-215.39 349.86,-211.3 321.02,-207.75"/>
<polygon fill="black" stroke="black" points="321.38,-204.26 311.03,-206.51 320.52,-211.21 321.38,-204.26"/>
<text text-anchor="middle" x="359.92" y="-216.89" font-family="Times,serif" font-size="14.00">a</text>
</g>
<!-- http://purl.org/oseg/ontologies/OTRL#Otrl1 -->
<g id="node20" class="node">
<title>http://purl.org/oseg/ontologies/OTRL#Otrl1</title>
<ellipse fill="none" stroke="#e377c2" cx="407.66" cy="-316.08" rx="38.37" ry="16.03"/>
<text text-anchor="middle" x="407.66" y="-312.38" font-family="Times,serif" font-size="14.00">Otrl1</text>
</g>
<!-- http://purl.org/oseg/ontologies/OTRL#Otrl1&#45;&gt;http://purl.org/oseg/ontologies/OTRL#OTRL -->
<g id="edge7" class="edge">
<title>http://purl.org/oseg/ontologies/OTRL#Otrl1&#45;&gt;http://purl.org/oseg/ontologies/OTRL#OTRL</title>
<path fill="none" stroke="black" d="M407.41,-299.8C407,-273.16 406.18,-219.99 405.68,-187.82"/>
<polygon fill="black" stroke="black" points="409.18,-187.74 405.53,-177.79 402.18,-187.84 409.18,-187.74"/>
</g>
<!-- http://purl.org/oseg/ontologies/OTRL#Otrl1&#45;&gt;http://www.w3.org/2002/07/owl#class -->
<g id="edge26" class="edge">
<title>http://purl.org/oseg/ontologies/OTRL#Otrl1&#45;&gt;http://www.w3.org/2002/07/owl#class</title>
<path fill="none" stroke="black" d="M389.07,-301.62C363.22,-281.51 316.24,-244.97 286.24,-221.63"/>
<polygon fill="black" stroke="black" points="288.3,-218.8 278.26,-215.42 284,-224.32 288.3,-218.8"/>
<text text-anchor="middle" x="333.15" y="-250.42" font-family="Times,serif" font-size="14.00">a</text>
</g>
<!-- http://purl.org/oseg/ontologies/OTRL#Odrl2 -->
<g id="node21" class="node">
<title>http://purl.org/oseg/ontologies/OTRL#Odrl2</title>
<ellipse fill="none" stroke="#e377c2" cx="231.47" cy="-241.04" rx="40.11" ry="16.03"/>
<text text-anchor="middle" x="231.47" y="-237.34" font-family="Times,serif" font-size="14.00">Odrl2</text>
</g>
<!-- http://purl.org/oseg/ontologies/OTRL#Odrl2&#45;&gt;http://purl.org/oseg/ontologies/OTRL#ODRL -->
<g id="edge15" class="edge">
<title>http://purl.org/oseg/ontologies/OTRL#Odrl2&#45;&gt;http://purl.org/oseg/ontologies/OTRL#ODRL</title>
<path fill="none" stroke="black" d="M199.08,-231.21C188.5,-228 176.58,-224.39 165.36,-220.98"/>
<polygon fill="black" stroke="black" points="166.31,-217.61 155.73,-218.06 164.28,-224.31 166.31,-217.61"/>
</g>
<!-- http://purl.org/oseg/ontologies/OTRL#Odrl2&#45;&gt;http://www.w3.org/2002/07/owl#class -->
<g id="edge6" class="edge">
<title>http://purl.org/oseg/ontologies/OTRL#Odrl2&#45;&gt;http://www.w3.org/2002/07/owl#class</title>
<path fill="none" stroke="black" d="M241.84,-225.3C241.96,-225.12 242.08,-224.93 242.21,-224.74"/>
<polygon fill="black" stroke="black" points="245.25,-226.48 247.83,-216.2 239.41,-222.63 245.25,-226.48"/>
<text text-anchor="middle" x="237.52" y="-213.82" font-family="Times,serif" font-size="14.00">a</text>
</g>
</g>
</svg>
