<?xml version="1.0" encoding="UTF-8" standalone="no"?>
<!DOCTYPE svg PUBLIC "-//W3C//DTD SVG 1.1//EN"
 "http://www.w3.org/Graphics/SVG/1.1/DTD/svg11.dtd">
<!-- Generated by graphviz version 2.43.0 (0)
 -->
<!-- Title: G Pages: 1 -->
<svg width="608pt" height="398pt"
 viewBox="0.00 0.00 608.05 398.00" xmlns="http://www.w3.org/2000/svg" xmlns:xlink="http://www.w3.org/1999/xlink">
<g id="graph0" class="graph" transform="scale(1 1) rotate(0) translate(4 394)">
<title>G</title>
<polygon fill="white" stroke="transparent" points="-4,4 -4,-394 604.05,-394 604.05,4 -4,4"/>
<!-- http://purl.org/oseg/ontologies/OTRL#ODRL -->
<g id="node1" class="node">
<title>http://purl.org/oseg/ontologies/OTRL#ODRL</title>
<ellipse fill="none" stroke="#e377c2" cx="233.72" cy="-316.56" rx="41.94" ry="16.03"/>
<text text-anchor="middle" x="233.72" y="-312.86" font-family="Times,serif" font-size="14.00">ODRL</text>
</g>
<!-- http://www.w3.org/2002/07/owl#class -->
<g id="node2" class="node">
<title>http://www.w3.org/2002/07/owl#class</title>
<ellipse fill="none" stroke="#1f77b4" cx="187.1" cy="-216.16" rx="57.05" ry="16.03"/>
<text text-anchor="middle" x="187.1" y="-212.46" font-family="Times,serif" font-size="14.00">owl:class</text>
</g>
<!-- http://purl.org/oseg/ontologies/OTRL#OTRL -->
<g id="node3" class="node">
<title>http://purl.org/oseg/ontologies/OTRL#OTRL</title>
<ellipse fill="none" stroke="#e377c2" cx="167.2" cy="-175.24" rx="39.7" ry="16.03"/>
<text text-anchor="middle" x="167.2" y="-171.54" font-family="Times,serif" font-size="14.00">OTRL</text>
</g>
<!-- http://purl.org/oseg/ontologies/OTRL#OTRL&#45;&gt;http://www.w3.org/2002/07/owl#class -->
<g id="edge20" class="edge">
<title>http://purl.org/oseg/ontologies/OTRL#OTRL&#45;&gt;http://www.w3.org/2002/07/owl#class</title>
<path fill="none" stroke="black" d="M175.06,-191.41C175.11,-191.5 175.15,-191.58 175.19,-191.67"/>
<polygon fill="black" stroke="black" points="171.64,-192.37 179.16,-199.83 177.93,-189.31 171.64,-192.37"/>
<text text-anchor="middle" x="170.63" y="-195.34" font-family="Times,serif" font-size="14.00">a</text>
</g>
<!-- http://purl.org/oseg/ontologies/OTRL#Odrl -->
<g id="node4" class="node">
<title>http://purl.org/oseg/ontologies/OTRL#Odrl</title>
<ellipse fill="none" stroke="#e377c2" cx="47.94" cy="-294.74" rx="33.88" ry="16.03"/>
<text text-anchor="middle" x="47.94" y="-291.04" font-family="Times,serif" font-size="14.00">Odrl</text>
</g>
<!-- http://purl.org/oseg/ontologies/OTRL#Odrl&#45;&gt;http://www.w3.org/2002/07/owl#class -->
<g id="edge14" class="edge">
<title>http://purl.org/oseg/ontologies/OTRL#Odrl&#45;&gt;http://www.w3.org/2002/07/owl#class</title>
<path fill="none" stroke="black" d="M69.99,-282.29C92.07,-269.82 126.37,-250.45 152.15,-235.89"/>
<polygon fill="black" stroke="black" points="153.9,-238.93 160.88,-230.96 150.45,-232.83 153.9,-238.93"/>
<text text-anchor="middle" x="106.57" y="-262.89" font-family="Times,serif" font-size="14.00">a</text>
</g>
<!-- http://purl.org/oseg/ontologies/OTRL#Odrl3 -->
<g id="node5" class="node">
<title>http://purl.org/oseg/ontologies/OTRL#Odrl3</title>
<ellipse fill="none" stroke="#e377c2" cx="341.8" cy="-241.23" rx="40.11" ry="16.03"/>
<text text-anchor="middle" x="341.8" y="-237.53" font-family="Times,serif" font-size="14.00">Odrl3</text>
</g>
<!-- http://purl.org/oseg/ontologies/OTRL#Odrl3&#45;&gt;http://purl.org/oseg/ontologies/OTRL#ODRL -->
<g id="edge1" class="edge">
<title>http://purl.org/oseg/ontologies/OTRL#Odrl3&#45;&gt;http://purl.org/oseg/ontologies/OTRL#ODRL</title>
<path fill="none" stroke="black" d="M321.47,-255.4C304.9,-266.95 281.27,-283.42 262.71,-296.35"/>
<polygon fill="black" stroke="black" points="260.53,-293.61 254.32,-302.2 264.53,-299.35 260.53,-293.61"/>
</g>
<!-- http://purl.org/oseg/ontologies/OTRL#Odrl3&#45;&gt;http://www.w3.org/2002/07/owl#class -->
<g id="edge2" class="edge">
<title>http://purl.org/oseg/ontologies/OTRL#Odrl3&#45;&gt;http://www.w3.org/2002/07/owl#class</title>
<path fill="none" stroke="black" d="M304.35,-235.16C287.14,-232.37 266.3,-228.99 247,-225.86"/>
<polygon fill="black" stroke="black" points="247.5,-222.4 237.07,-224.25 246.38,-229.31 247.5,-222.4"/>
<text text-anchor="middle" x="271.17" y="-234.31" font-family="Times,serif" font-size="14.00">a</text>
</g>
<!-- http://purl.org/oseg/ontologies/OTRL#exitCriteria -->
<g id="node6" class="node">
<title>http://purl.org/oseg/ontologies/OTRL#exitCriteria</title>
<ellipse fill="none" stroke="#e377c2" cx="406.23" cy="-185.69" rx="70.01" ry="16.03"/>
<text text-anchor="middle" x="406.23" y="-181.99" font-family="Times,serif" font-size="14.00">exitCriteria</text>
</g>
<!-- http://schema.org/Text -->
<g id="node7" class="node">
<title>http://schema.org/Text</title>
<ellipse fill="none" stroke="#e377c2" cx="452.9" cy="-144.45" rx="74.91" ry="16.03"/>
<text text-anchor="middle" x="452.9" y="-140.75" font-family="Times,serif" font-size="14.00">schema:Text</text>
</g>
<!-- http://purl.org/oseg/ontologies/OTRL#exitCriteria&#45;&gt;http://schema.org/Text -->
<g id="edge9" class="edge">
<title>http://purl.org/oseg/ontologies/OTRL#exitCriteria&#45;&gt;http://schema.org/Text</title>
<path fill="none" stroke="black" d="M424.14,-169.86C425.12,-168.99 426.12,-168.11 427.12,-167.23"/>
<polygon fill="black" stroke="black" points="429.63,-169.68 434.81,-160.44 424.99,-164.44 429.63,-169.68"/>
<text text-anchor="middle" x="404.63" y="-157.34" font-family="Times,serif" font-size="14.00">range</text>
</g>
<!-- http://purl.org/oseg/ontologies/OTRL#Odrl1 -->
<g id="node8" class="node">
<title>http://purl.org/oseg/ontologies/OTRL#Odrl1</title>
<ellipse fill="none" stroke="#e377c2" cx="208.54" cy="-272.57" rx="40.11" ry="16.03"/>
<text text-anchor="middle" x="208.54" y="-268.87" font-family="Times,serif" font-size="14.00">Odrl1</text>
</g>
<!-- http://purl.org/oseg/ontologies/OTRL#Odrl1&#45;&gt;http://purl.org/oseg/ontologies/OTRL#ODRL -->
<g id="edge5" class="edge">
<title>http://purl.org/oseg/ontologies/OTRL#Odrl1&#45;&gt;http://purl.org/oseg/ontologies/OTRL#ODRL</title>
<path fill="none" stroke="black" d="M217.63,-288.45C218.26,-289.56 218.91,-290.69 219.56,-291.83"/>
<polygon fill="black" stroke="black" points="216.55,-293.61 224.56,-300.55 222.63,-290.14 216.55,-293.61"/>
</g>
<!-- http://purl.org/oseg/ontologies/OTRL#Odrl1&#45;&gt;http://www.w3.org/2002/07/owl#class -->
<g id="edge3" class="edge">
<title>http://purl.org/oseg/ontologies/OTRL#Odrl1&#45;&gt;http://www.w3.org/2002/07/owl#class</title>
<path fill="none" stroke="black" d="M202.34,-256.25C200.66,-251.85 198.81,-246.97 196.99,-242.17"/>
<polygon fill="black" stroke="black" points="200.18,-240.74 193.36,-232.63 193.64,-243.22 200.18,-240.74"/>
<text text-anchor="middle" x="195.16" y="-238.01" font-family="Times,serif" font-size="14.00">a</text>
</g>
<!-- http://purl.org/oseg/ontologies/OTRL#Otrl1 -->
<g id="node9" class="node">
<title>http://purl.org/oseg/ontologies/OTRL#Otrl1</title>
<ellipse fill="none" stroke="#e377c2" cx="120.87" cy="-66.04" rx="38.37" ry="16.03"/>
<text text-anchor="middle" x="120.87" y="-62.34" font-family="Times,serif" font-size="14.00">Otrl1</text>
</g>
<!-- http://purl.org/oseg/ontologies/OTRL#Otrl1&#45;&gt;http://www.w3.org/2002/07/owl#class -->
<g id="edge4" class="edge">
<title>http://purl.org/oseg/ontologies/OTRL#Otrl1&#45;&gt;http://www.w3.org/2002/07/owl#class</title>
<path fill="none" stroke="black" d="M127.95,-82.11C139.4,-108.04 162.04,-159.36 175.75,-190.43"/>
<polygon fill="black" stroke="black" points="172.62,-192.02 179.86,-199.75 179.03,-189.19 172.62,-192.02"/>
<text text-anchor="middle" x="147.35" y="-140.07" font-family="Times,serif" font-size="14.00">a</text>
</g>
<!-- http://purl.org/oseg/ontologies/OTRL#Otrl1&#45;&gt;http://purl.org/oseg/ontologies/OTRL#OTRL -->
<g id="edge18" class="edge">
<title>http://purl.org/oseg/ontologies/OTRL#Otrl1&#45;&gt;http://purl.org/oseg/ontologies/OTRL#OTRL</title>
<path fill="none" stroke="black" d="M127.7,-82.15C135.27,-99.98 147.55,-128.93 156.41,-149.82"/>
<polygon fill="black" stroke="black" points="153.21,-151.22 160.34,-159.06 159.65,-148.49 153.21,-151.22"/>
</g>
<!-- http://purl.org/oseg/ontologies/OTRL#Otrl -->
<g id="node10" class="node">
<title>http://purl.org/oseg/ontologies/OTRL#Otrl</title>
<ellipse fill="none" stroke="#e377c2" cx="452.24" cy="-16.64" rx="31.64" ry="16.03"/>
<text text-anchor="middle" x="452.24" y="-12.94" font-family="Times,serif" font-size="14.00">Otrl</text>
</g>
<!-- http://purl.org/oseg/ontologies/OTRL#Otrl6 -->
<g id="node11" class="node">
<title>http://purl.org/oseg/ontologies/OTRL#Otrl6</title>
<ellipse fill="none" stroke="#e377c2" cx="299.71" cy="-115.75" rx="38.37" ry="16.03"/>
<text text-anchor="middle" x="299.71" y="-112.05" font-family="Times,serif" font-size="14.00">Otrl6</text>
</g>
<!-- http://purl.org/oseg/ontologies/OTRL#Otrl6&#45;&gt;http://www.w3.org/2002/07/owl#class -->
<g id="edge21" class="edge">
<title>http://purl.org/oseg/ontologies/OTRL#Otrl6&#45;&gt;http://www.w3.org/2002/07/owl#class</title>
<path fill="none" stroke="black" d="M283.09,-130.56C264.35,-147.28 233.66,-174.64 212.04,-193.92"/>
<polygon fill="black" stroke="black" points="209.66,-191.35 204.52,-200.62 214.32,-196.58 209.66,-191.35"/>
<text text-anchor="middle" x="243.07" y="-166.04" font-family="Times,serif" font-size="14.00">a</text>
</g>
<!-- http://purl.org/oseg/ontologies/OTRL#Otrl6&#45;&gt;http://purl.org/oseg/ontologies/OTRL#OTRL -->
<g id="edge19" class="edge">
<title>http://purl.org/oseg/ontologies/OTRL#Otrl6&#45;&gt;http://purl.org/oseg/ontologies/OTRL#OTRL</title>
<path fill="none" stroke="black" d="M273.21,-127.64C253.21,-136.62 225.54,-149.04 203.48,-158.95"/>
<polygon fill="black" stroke="black" points="201.79,-155.87 194.1,-163.16 204.66,-162.26 201.79,-155.87"/>
</g>
<!-- http://purl.org/oseg/ontologies/OTRL -->
<g id="node12" class="node">
<title>http://purl.org/oseg/ontologies/OTRL</title>
<ellipse fill="none" stroke="#e377c2" cx="418.24" cy="-373.64" rx="60.62" ry="16.03"/>
<text text-anchor="middle" x="418.24" y="-369.94" font-family="Times,serif" font-size="14.00">ns1:OTRL</text>
</g>
<!-- http://purl.org/oseg/ontologies/OTRL&#45;&gt;http://purl.org/oseg/ontologies/OTRL -->
<g id="edge15" class="edge">
<title>http://purl.org/oseg/ontologies/OTRL&#45;&gt;http://purl.org/oseg/ontologies/OTRL</title>
<path fill="none" stroke="black" d="M473.84,-380.27C487.17,-379.75 497.05,-377.54 497.05,-373.64 497.05,-370.81 491.83,-368.86 483.87,-367.81"/>
<polygon fill="black" stroke="black" points="484.09,-364.32 473.84,-367.01 483.53,-371.3 484.09,-364.32"/>
<text text-anchor="middle" x="548.55" y="-369.94" font-family="Times,serif" font-size="14.00">owl:versionIRI</text>
</g>
<!-- http://purl.org/oseg/ontologies/OTRL#Otrl5 -->
<g id="node13" class="node">
<title>http://purl.org/oseg/ontologies/OTRL#Otrl5</title>
<ellipse fill="none" stroke="#e377c2" cx="38.25" cy="-195.34" rx="38.37" ry="16.03"/>
<text text-anchor="middle" x="38.25" y="-191.64" font-family="Times,serif" font-size="14.00">Otrl5</text>
</g>
<!-- http://purl.org/oseg/ontologies/OTRL#Otrl5&#45;&gt;http://www.w3.org/2002/07/owl#class -->
<g id="edge7" class="edge">
<title>http://purl.org/oseg/ontologies/OTRL#Otrl5&#45;&gt;http://www.w3.org/2002/07/owl#class</title>
<path fill="none" stroke="black" d="M74.67,-200.44C89.99,-202.58 108.25,-205.13 125.56,-207.55"/>
<polygon fill="black" stroke="black" points="125.22,-211.04 135.61,-208.96 126.19,-204.11 125.22,-211.04"/>
<text text-anchor="middle" x="95.61" y="-207.79" font-family="Times,serif" font-size="14.00">a</text>
</g>
<!-- http://purl.org/oseg/ontologies/OTRL#Otrl5&#45;&gt;http://purl.org/oseg/ontologies/OTRL#OTRL -->
<g id="edge13" class="edge">
<title>http://purl.org/oseg/ontologies/OTRL#Otrl5&#45;&gt;http://purl.org/oseg/ontologies/OTRL#OTRL</title>
<path fill="none" stroke="black" d="M74.17,-189.74C88.34,-187.53 104.81,-184.96 119.93,-182.61"/>
<polygon fill="black" stroke="black" points="120.79,-186.02 130.13,-181.02 119.71,-179.1 120.79,-186.02"/>
</g>
<!-- http://purl.org/oseg/ontologies/OTRL#Otrl4 -->
<g id="node14" class="node">
<title>http://purl.org/oseg/ontologies/OTRL#Otrl4</title>
<ellipse fill="none" stroke="#e377c2" cx="207.21" cy="-119.89" rx="38.37" ry="16.03"/>
<text text-anchor="middle" x="207.21" y="-116.19" font-family="Times,serif" font-size="14.00">Otrl4</text>
</g>
<!-- http://purl.org/oseg/ontologies/OTRL#Otrl4&#45;&gt;http://www.w3.org/2002/07/owl#class -->
<g id="edge22" class="edge">
<title>http://purl.org/oseg/ontologies/OTRL#Otrl4&#45;&gt;http://www.w3.org/2002/07/owl#class</title>
<path fill="none" stroke="black" d="M203.79,-136.22C200.73,-150.88 196.18,-172.66 192.61,-189.79"/>
<polygon fill="black" stroke="black" points="189.14,-189.24 190.53,-199.75 196,-190.67 189.14,-189.24"/>
<text text-anchor="middle" x="202.7" y="-151.8" font-family="Times,serif" font-size="14.00">a</text>
</g>
<!-- http://purl.org/oseg/ontologies/OTRL#Otrl4&#45;&gt;http://purl.org/oseg/ontologies/OTRL#OTRL -->
<g id="edge24" class="edge">
<title>http://purl.org/oseg/ontologies/OTRL#Otrl4&#45;&gt;http://purl.org/oseg/ontologies/OTRL#OTRL</title>
<path fill="none" stroke="black" d="M195.85,-135.6C192.42,-140.35 188.56,-145.68 184.82,-150.86"/>
<polygon fill="black" stroke="black" points="181.75,-149.14 178.72,-159.29 187.42,-153.24 181.75,-149.14"/>
</g>
<!-- http://purl.org/oseg/ontologies/OTRL#Otrl2 -->
<g id="node15" class="node">
<title>http://purl.org/oseg/ontologies/OTRL#Otrl2</title>
<ellipse fill="none" stroke="#e377c2" cx="225.43" cy="-57.93" rx="38.37" ry="16.03"/>
<text text-anchor="middle" x="225.43" y="-54.23" font-family="Times,serif" font-size="14.00">Otrl2</text>
</g>
<!-- http://purl.org/oseg/ontologies/OTRL#Otrl2&#45;&gt;http://www.w3.org/2002/07/owl#class -->
<g id="edge8" class="edge">
<title>http://purl.org/oseg/ontologies/OTRL#Otrl2&#45;&gt;http://www.w3.org/2002/07/owl#class</title>
<path fill="none" stroke="black" d="M221.47,-74.27C214.84,-101.63 201.44,-156.94 193.47,-189.84"/>
<polygon fill="black" stroke="black" points="190.04,-189.13 191.09,-199.67 196.85,-190.78 190.04,-189.13"/>
<text text-anchor="middle" x="202.97" y="-135.86" font-family="Times,serif" font-size="14.00">a</text>
</g>
<!-- http://purl.org/oseg/ontologies/OTRL#Otrl2&#45;&gt;http://purl.org/oseg/ontologies/OTRL#OTRL -->
<g id="edge6" class="edge">
<title>http://purl.org/oseg/ontologies/OTRL#Otrl2&#45;&gt;http://purl.org/oseg/ontologies/OTRL#OTRL</title>
<path fill="none" stroke="black" d="M217.33,-74.24C207.6,-93.85 191.15,-126.99 179.76,-149.93"/>
<polygon fill="black" stroke="black" points="176.54,-148.55 175.23,-159.06 182.81,-151.66 176.54,-148.55"/>
</g>
<!-- http://purl.org/oseg/ontologies/OTRL#Otrl3 -->
<g id="node16" class="node">
<title>http://purl.org/oseg/ontologies/OTRL#Otrl3</title>
<ellipse fill="none" stroke="#e377c2" cx="57.55" cy="-122.14" rx="38.37" ry="16.03"/>
<text text-anchor="middle" x="57.55" y="-118.44" font-family="Times,serif" font-size="14.00">Otrl3</text>
</g>
<!-- http://purl.org/oseg/ontologies/OTRL#Otrl3&#45;&gt;http://www.w3.org/2002/07/owl#class -->
<g id="edge23" class="edge">
<title>http://purl.org/oseg/ontologies/OTRL#Otrl3&#45;&gt;http://www.w3.org/2002/07/owl#class</title>
<path fill="none" stroke="black" d="M76.94,-136.21C98.28,-151.7 132.83,-176.78 157.55,-194.71"/>
<polygon fill="black" stroke="black" points="155.7,-197.69 165.84,-200.73 159.81,-192.03 155.7,-197.69"/>
<text text-anchor="middle" x="112.75" y="-169.26" font-family="Times,serif" font-size="14.00">a</text>
</g>
<!-- http://purl.org/oseg/ontologies/OTRL#Otrl3&#45;&gt;http://purl.org/oseg/ontologies/OTRL#OTRL -->
<g id="edge25" class="edge">
<title>http://purl.org/oseg/ontologies/OTRL#Otrl3&#45;&gt;http://purl.org/oseg/ontologies/OTRL#OTRL</title>
<path fill="none" stroke="black" d="M82.98,-134.45C97.68,-141.57 116.39,-150.63 132.43,-158.4"/>
<polygon fill="black" stroke="black" points="131,-161.6 141.53,-162.8 134.05,-155.3 131,-161.6"/>
</g>
<!-- http://purl.org/oseg/ontologies/OTRL#Odrl3Star -->
<g id="node17" class="node">
<title>http://purl.org/oseg/ontologies/OTRL#Odrl3Star</title>
<ellipse fill="none" stroke="#e377c2" cx="356.83" cy="-307.44" rx="62.45" ry="16.03"/>
<text text-anchor="middle" x="356.83" y="-303.74" font-family="Times,serif" font-size="14.00">Odrl3Star</text>
</g>
<!-- http://purl.org/oseg/ontologies/OTRL#Odrl3Star&#45;&gt;http://purl.org/oseg/ontologies/OTRL#ODRL -->
<g id="edge16" class="edge">
<title>http://purl.org/oseg/ontologies/OTRL#Odrl3Star&#45;&gt;http://purl.org/oseg/ontologies/OTRL#ODRL</title>
<path fill="none" stroke="black" d="M296.71,-311.89C292.76,-312.19 288.79,-312.48 284.89,-312.77"/>
<polygon fill="black" stroke="black" points="284.44,-309.29 274.73,-313.52 284.96,-316.27 284.44,-309.29"/>
</g>
<!-- http://purl.org/oseg/ontologies/OTRL#Odrl3Star&#45;&gt;http://www.w3.org/2002/07/owl#class -->
<g id="edge11" class="edge">
<title>http://purl.org/oseg/ontologies/OTRL#Odrl3Star&#45;&gt;http://www.w3.org/2002/07/owl#class</title>
<path fill="none" stroke="black" d="M329.56,-292.77C300.64,-277.22 254.84,-252.59 223.01,-235.47"/>
<polygon fill="black" stroke="black" points="224.48,-232.29 214.02,-230.64 221.17,-238.45 224.48,-232.29"/>
<text text-anchor="middle" x="271.78" y="-267.92" font-family="Times,serif" font-size="14.00">a</text>
</g>
<!-- http://purl.org/oseg/ontologies/OTRL#Odrl4 -->
<g id="node18" class="node">
<title>http://purl.org/oseg/ontologies/OTRL#Odrl4</title>
<ellipse fill="none" stroke="#e377c2" cx="238.97" cy="-373.7" rx="40.11" ry="16.03"/>
<text text-anchor="middle" x="238.97" y="-370" font-family="Times,serif" font-size="14.00">Odrl4</text>
</g>
<!-- http://purl.org/oseg/ontologies/OTRL#Odrl4&#45;&gt;http://purl.org/oseg/ontologies/OTRL#ODRL -->
<g id="edge10" class="edge">
<title>http://purl.org/oseg/ontologies/OTRL#Odrl4&#45;&gt;http://purl.org/oseg/ontologies/OTRL#ODRL</title>
<path fill="none" stroke="black" d="M237.45,-357.17C237.04,-352.75 236.59,-347.86 236.15,-343.05"/>
<polygon fill="black" stroke="black" points="239.61,-342.49 235.21,-332.85 232.64,-343.13 239.61,-342.49"/>
</g>
<!-- http://purl.org/oseg/ontologies/OTRL#Odrl4&#45;&gt;http://www.w3.org/2002/07/owl#class -->
<g id="edge12" class="edge">
<title>http://purl.org/oseg/ontologies/OTRL#Odrl4&#45;&gt;http://www.w3.org/2002/07/owl#class</title>
<path fill="none" stroke="black" d="M233.61,-357.43C224.64,-330.19 206.51,-275.12 195.72,-242.36"/>
<polygon fill="black" stroke="black" points="198.95,-240.97 192.5,-232.57 192.31,-243.16 198.95,-240.97"/>
<text text-anchor="middle" x="210.17" y="-288.7" font-family="Times,serif" font-size="14.00">a</text>
</g>
<!-- http://purl.org/oseg/ontologies/OTRL#goal -->
<g id="node19" class="node">
<title>http://purl.org/oseg/ontologies/OTRL#goal</title>
<ellipse fill="none" stroke="#e377c2" cx="460.78" cy="-100.5" rx="33.47" ry="16.03"/>
<text text-anchor="middle" x="460.78" y="-96.8" font-family="Times,serif" font-size="14.00">goal</text>
</g>
<!-- http://purl.org/oseg/ontologies/OTRL#goal&#45;&gt;http://schema.org/Text -->
<g id="edge17" class="edge">
<title>http://purl.org/oseg/ontologies/OTRL#goal&#45;&gt;http://schema.org/Text</title>
<path fill="none" stroke="black" d="M457.84,-116.87C457.78,-117.21 457.72,-117.55 457.66,-117.89"/>
<polygon fill="black" stroke="black" points="454.18,-117.46 455.86,-127.93 461.07,-118.7 454.18,-117.46"/>
<text text-anchor="middle" x="436.75" y="-121.18" font-family="Times,serif" font-size="14.00">range</text>
</g>
<!-- http://www.w3.org/1999/02/22&#45;rdf&#45;syntax&#45;ns#nil -->
<g id="node20" class="node">
<title>http://www.w3.org/1999/02/22&#45;rdf&#45;syntax&#45;ns#nil</title>
<ellipse fill="none" stroke="#e377c2" cx="336.24" cy="-58.64" rx="42.35" ry="16.03"/>
<text text-anchor="middle" x="336.24" y="-54.94" font-family="Times,serif" font-size="14.00">rdf:nil</text>
</g>
<!-- http://purl.org/oseg/ontologies/OTRL#Odrl2 -->
<g id="node21" class="node">
<title>http://purl.org/oseg/ontologies/OTRL#Odrl2</title>
<ellipse fill="none" stroke="#e377c2" cx="119.84" cy="-367.41" rx="40.11" ry="16.03"/>
<text text-anchor="middle" x="119.84" y="-363.71" font-family="Times,serif" font-size="14.00">Odrl2</text>
</g>
<!-- http://purl.org/oseg/ontologies/OTRL#Odrl2&#45;&gt;http://purl.org/oseg/ontologies/OTRL#ODRL -->
<g id="edge26" class="edge">
<title>http://purl.org/oseg/ontologies/OTRL#Odrl2&#45;&gt;http://purl.org/oseg/ontologies/OTRL#ODRL</title>
<path fill="none" stroke="black" d="M147.12,-355.23C162.08,-348.55 180.83,-340.18 197.05,-332.93"/>
<polygon fill="black" stroke="black" points="198.56,-336.09 206.27,-328.82 195.71,-329.7 198.56,-336.09"/>
</g>
<!-- http://purl.org/oseg/ontologies/OTRL#Odrl2&#45;&gt;http://www.w3.org/2002/07/owl#class -->
<g id="edge27" class="edge">
<title>http://purl.org/oseg/ontologies/OTRL#Odrl2&#45;&gt;http://www.w3.org/2002/07/owl#class</title>
<path fill="none" stroke="black" d="M127.04,-351.22C138.66,-325.09 161.65,-273.38 175.57,-242.08"/>
<polygon fill="black" stroke="black" points="178.88,-243.25 179.75,-232.69 172.49,-240.4 178.88,-243.25"/>
<text text-anchor="middle" x="146.81" y="-300.45" font-family="Times,serif" font-size="14.00">a</text>
</g>
</g>
</svg>
