<?xml version="1.0" encoding="UTF-8" standalone="no"?>
<!DOCTYPE svg PUBLIC "-//W3C//DTD SVG 1.1//EN"
 "http://www.w3.org/Graphics/SVG/1.1/DTD/svg11.dtd">
<!-- Generated by graphviz version 2.43.0 (0)
 -->
<!-- Title: G Pages: 1 -->
<svg width="688pt" height="468pt"
 viewBox="0.00 0.00 688.05 468.00" xmlns="http://www.w3.org/2000/svg" xmlns:xlink="http://www.w3.org/1999/xlink">
<g id="graph0" class="graph" transform="scale(1 1) rotate(0) translate(4 464)">
<title>G</title>
<polygon fill="white" stroke="transparent" points="-4,4 -4,-464 684.05,-464 684.05,4 -4,4"/>
<!-- http://purl.org/oseg/ontologies/OTRL#OTRL -->
<g id="node1" class="node">
<title>http://purl.org/oseg/ontologies/OTRL#OTRL</title>
<ellipse fill="none" stroke="#e377c2" cx="152.18" cy="-158.37" rx="39.7" ry="16.03"/>
<text text-anchor="middle" x="152.18" y="-154.67" font-family="Times,serif" font-size="14.00">OTRL</text>
</g>
<!-- http://www.w3.org/2002/07/owl#class -->
<g id="node2" class="node">
<title>http://www.w3.org/2002/07/owl#class</title>
<ellipse fill="none" stroke="#1f77b4" cx="236.26" cy="-202.96" rx="57.05" ry="16.03"/>
<text text-anchor="middle" x="236.26" y="-199.26" font-family="Times,serif" font-size="14.00">owl:class</text>
</g>
<!-- http://purl.org/oseg/ontologies/OTRL#OTRL&#45;&gt;http://www.w3.org/2002/07/owl#class -->
<g id="edge10" class="edge">
<title>http://purl.org/oseg/ontologies/OTRL#OTRL&#45;&gt;http://www.w3.org/2002/07/owl#class</title>
<path fill="none" stroke="black" d="M176.5,-171.27C183.9,-175.2 192.2,-179.6 200.2,-183.84"/>
<polygon fill="black" stroke="black" points="198.57,-186.94 209.04,-188.53 201.85,-180.75 198.57,-186.94"/>
<text text-anchor="middle" x="192.85" y="-166.36" font-family="Times,serif" font-size="14.00">a</text>
</g>
<!-- http://purl.org/oseg/ontologies/OTRL#ODRL -->
<g id="node3" class="node">
<title>http://purl.org/oseg/ontologies/OTRL#ODRL</title>
<ellipse fill="none" stroke="#e377c2" cx="406.42" cy="-218.51" rx="41.94" ry="16.03"/>
<text text-anchor="middle" x="406.42" y="-214.81" font-family="Times,serif" font-size="14.00">ODRL</text>
</g>
<!-- http://schema.org/Text -->
<g id="node4" class="node">
<title>http://schema.org/Text</title>
<ellipse fill="none" stroke="#e377c2" cx="512.45" cy="-403.18" rx="74.91" ry="16.03"/>
<text text-anchor="middle" x="512.45" y="-399.48" font-family="Times,serif" font-size="14.00">schema:Text</text>
</g>
<!-- http://purl.org/oseg/ontologies/OTRL#exitCriteria -->
<g id="node5" class="node">
<title>http://purl.org/oseg/ontologies/OTRL#exitCriteria</title>
<ellipse fill="none" stroke="#e377c2" cx="570.19" cy="-443.73" rx="70.01" ry="16.03"/>
<text text-anchor="middle" x="570.19" y="-440.03" font-family="Times,serif" font-size="14.00">exitCriteria</text>
</g>
<!-- http://purl.org/oseg/ontologies/OTRL#exitCriteria&#45;&gt;http://schema.org/Text -->
<g id="edge15" class="edge">
<title>http://purl.org/oseg/ontologies/OTRL#exitCriteria&#45;&gt;http://schema.org/Text</title>
<path fill="none" stroke="black" d="M548.03,-428.17C546.41,-427.03 544.75,-425.87 543.1,-424.7"/>
<polygon fill="black" stroke="black" points="545.03,-421.79 534.83,-418.9 541.01,-427.51 545.03,-421.79"/>
<text text-anchor="middle" x="524.56" y="-415.24" font-family="Times,serif" font-size="14.00">range</text>
</g>
<!-- http://purl.org/oseg/ontologies/OTRL#Odrl -->
<g id="node6" class="node">
<title>http://purl.org/oseg/ontologies/OTRL#Odrl</title>
<ellipse fill="none" stroke="#e377c2" cx="181.3" cy="-398.68" rx="33.88" ry="16.03"/>
<text text-anchor="middle" x="181.3" y="-394.98" font-family="Times,serif" font-size="14.00">Odrl</text>
</g>
<!-- http://purl.org/oseg/ontologies/OTRL#Odrl&#45;&gt;http://www.w3.org/2002/07/owl#class -->
<g id="edge1" class="edge">
<title>http://purl.org/oseg/ontologies/OTRL#Odrl&#45;&gt;http://www.w3.org/2002/07/owl#class</title>
<path fill="none" stroke="black" d="M185.89,-382.33C195.41,-348.44 217.35,-270.28 228.88,-229.23"/>
<polygon fill="black" stroke="black" points="232.31,-229.98 231.64,-219.4 225.57,-228.09 232.31,-229.98"/>
<text text-anchor="middle" x="202.88" y="-309.58" font-family="Times,serif" font-size="14.00">a</text>
</g>
<!-- http://purl.org/oseg/ontologies/OTRL#Otrl3 -->
<g id="node7" class="node">
<title>http://purl.org/oseg/ontologies/OTRL#Otrl3</title>
<ellipse fill="none" stroke="#e377c2" cx="314" cy="-252.93" rx="38.37" ry="16.03"/>
<text text-anchor="middle" x="314" y="-249.23" font-family="Times,serif" font-size="14.00">Otrl3</text>
</g>
<!-- http://purl.org/oseg/ontologies/OTRL#Otrl3&#45;&gt;http://purl.org/oseg/ontologies/OTRL#OTRL -->
<g id="edge23" class="edge">
<title>http://purl.org/oseg/ontologies/OTRL#Otrl3&#45;&gt;http://purl.org/oseg/ontologies/OTRL#OTRL</title>
<path fill="none" stroke="black" d="M291.5,-239.78C263.52,-223.43 215.59,-195.42 183.89,-176.9"/>
<polygon fill="black" stroke="black" points="185.41,-173.74 175.01,-171.71 181.88,-179.78 185.41,-173.74"/>
</g>
<!-- http://purl.org/oseg/ontologies/OTRL#Otrl3&#45;&gt;http://www.w3.org/2002/07/owl#class -->
<g id="edge2" class="edge">
<title>http://purl.org/oseg/ontologies/OTRL#Otrl3&#45;&gt;http://www.w3.org/2002/07/owl#class</title>
<path fill="none" stroke="black" d="M292.76,-239.27C285.15,-234.38 276.4,-228.76 268.09,-223.42"/>
<polygon fill="black" stroke="black" points="269.97,-220.47 259.66,-218 266.18,-226.36 269.97,-220.47"/>
<text text-anchor="middle" x="275.93" y="-220.15" font-family="Times,serif" font-size="14.00">a</text>
</g>
<!-- http://purl.org/oseg/ontologies/OTRL#Odrl3Star -->
<g id="node8" class="node">
<title>http://purl.org/oseg/ontologies/OTRL#Odrl3Star</title>
<ellipse fill="none" stroke="#e377c2" cx="203.48" cy="-258.06" rx="62.45" ry="16.03"/>
<text text-anchor="middle" x="203.48" y="-254.36" font-family="Times,serif" font-size="14.00">Odrl3Star</text>
</g>
<!-- http://purl.org/oseg/ontologies/OTRL#Odrl3Star&#45;&gt;http://www.w3.org/2002/07/owl#class -->
<g id="edge3" class="edge">
<title>http://purl.org/oseg/ontologies/OTRL#Odrl3Star&#45;&gt;http://www.w3.org/2002/07/owl#class</title>
<path fill="none" stroke="black" d="M213.14,-241.83C215.72,-237.5 218.56,-232.71 221.35,-228.02"/>
<polygon fill="black" stroke="black" points="224.45,-229.66 226.56,-219.27 218.44,-226.08 224.45,-229.66"/>
<text text-anchor="middle" x="212.75" y="-223.73" font-family="Times,serif" font-size="14.00">a</text>
</g>
<!-- http://purl.org/oseg/ontologies/OTRL#Odrl3Star&#45;&gt;http://purl.org/oseg/ontologies/OTRL#ODRL -->
<g id="edge6" class="edge">
<title>http://purl.org/oseg/ontologies/OTRL#Odrl3Star&#45;&gt;http://purl.org/oseg/ontologies/OTRL#ODRL</title>
<path fill="none" stroke="black" d="M253.39,-248.34C285.58,-242.06 327.21,-233.95 358.92,-227.77"/>
<polygon fill="black" stroke="black" points="359.69,-231.18 368.84,-225.83 358.35,-224.31 359.69,-231.18"/>
</g>
<!-- http://purl.org/oseg/ontologies/OTRL#Otrl1 -->
<g id="node9" class="node">
<title>http://purl.org/oseg/ontologies/OTRL#Otrl1</title>
<ellipse fill="none" stroke="#e377c2" cx="37.72" cy="-176.1" rx="38.37" ry="16.03"/>
<text text-anchor="middle" x="37.72" y="-172.4" font-family="Times,serif" font-size="14.00">Otrl1</text>
</g>
<!-- http://purl.org/oseg/ontologies/OTRL#Otrl1&#45;&gt;http://purl.org/oseg/ontologies/OTRL#OTRL -->
<g id="edge24" class="edge">
<title>http://purl.org/oseg/ontologies/OTRL#Otrl1&#45;&gt;http://purl.org/oseg/ontologies/OTRL#OTRL</title>
<path fill="none" stroke="black" d="M73.62,-170.54C83.46,-169.01 94.27,-167.34 104.65,-165.73"/>
<polygon fill="black" stroke="black" points="105.48,-169.15 114.83,-164.16 104.41,-162.23 105.48,-169.15"/>
</g>
<!-- http://purl.org/oseg/ontologies/OTRL#Otrl1&#45;&gt;http://www.w3.org/2002/07/owl#class -->
<g id="edge4" class="edge">
<title>http://purl.org/oseg/ontologies/OTRL#Otrl1&#45;&gt;http://www.w3.org/2002/07/owl#class</title>
<path fill="none" stroke="black" d="M74.13,-181.02C102.13,-184.81 141.47,-190.14 174.38,-194.59"/>
<polygon fill="black" stroke="black" points="173.99,-198.07 184.37,-195.94 174.93,-191.13 173.99,-198.07"/>
<text text-anchor="middle" x="119.76" y="-191.61" font-family="Times,serif" font-size="14.00">a</text>
</g>
<!-- http://purl.org/oseg/ontologies/OTRL#Otrl2 -->
<g id="node10" class="node">
<title>http://purl.org/oseg/ontologies/OTRL#Otrl2</title>
<ellipse fill="none" stroke="#e377c2" cx="207.15" cy="-16.74" rx="38.37" ry="16.03"/>
<text text-anchor="middle" x="207.15" y="-13.04" font-family="Times,serif" font-size="14.00">Otrl2</text>
</g>
<!-- http://purl.org/oseg/ontologies/OTRL#Otrl2&#45;&gt;http://purl.org/oseg/ontologies/OTRL#OTRL -->
<g id="edge13" class="edge">
<title>http://purl.org/oseg/ontologies/OTRL#Otrl2&#45;&gt;http://purl.org/oseg/ontologies/OTRL#OTRL</title>
<path fill="none" stroke="black" d="M200.84,-32.98C191.41,-57.29 173.53,-103.37 162.27,-132.39"/>
<polygon fill="black" stroke="black" points="158.94,-131.29 158.58,-141.88 165.46,-133.82 158.94,-131.29"/>
</g>
<!-- http://purl.org/oseg/ontologies/OTRL#Otrl2&#45;&gt;http://www.w3.org/2002/07/owl#class -->
<g id="edge5" class="edge">
<title>http://purl.org/oseg/ontologies/OTRL#Otrl2&#45;&gt;http://www.w3.org/2002/07/owl#class</title>
<path fill="none" stroke="black" d="M209.73,-33.26C214.78,-65.57 226,-137.33 232.1,-176.38"/>
<polygon fill="black" stroke="black" points="228.68,-177.13 233.68,-186.47 235.59,-176.05 228.68,-177.13"/>
<text text-anchor="middle" x="216.42" y="-108.62" font-family="Times,serif" font-size="14.00">a</text>
</g>
<!-- http://purl.org/oseg/ontologies/OTRL#Odrl3 -->
<g id="node11" class="node">
<title>http://purl.org/oseg/ontologies/OTRL#Odrl3</title>
<ellipse fill="none" stroke="#e377c2" cx="362.8" cy="-61.06" rx="40.11" ry="16.03"/>
<text text-anchor="middle" x="362.8" y="-57.36" font-family="Times,serif" font-size="14.00">Odrl3</text>
</g>
<!-- http://purl.org/oseg/ontologies/OTRL#Odrl3&#45;&gt;http://www.w3.org/2002/07/owl#class -->
<g id="edge7" class="edge">
<title>http://purl.org/oseg/ontologies/OTRL#Odrl3&#45;&gt;http://www.w3.org/2002/07/owl#class</title>
<path fill="none" stroke="black" d="M349.01,-76.52C326.88,-101.34 283.27,-150.24 257.25,-179.42"/>
<polygon fill="black" stroke="black" points="254.45,-177.3 250.41,-187.09 259.68,-181.96 254.45,-177.3"/>
<text text-anchor="middle" x="298.63" y="-131.77" font-family="Times,serif" font-size="14.00">a</text>
</g>
<!-- http://purl.org/oseg/ontologies/OTRL#Odrl3&#45;&gt;http://purl.org/oseg/ontologies/OTRL#ODRL -->
<g id="edge8" class="edge">
<title>http://purl.org/oseg/ontologies/OTRL#Odrl3&#45;&gt;http://purl.org/oseg/ontologies/OTRL#ODRL</title>
<path fill="none" stroke="black" d="M367.3,-77.32C374.84,-104.54 390.1,-159.58 399.17,-192.32"/>
<polygon fill="black" stroke="black" points="395.83,-193.4 401.88,-202.1 402.58,-191.53 395.83,-193.4"/>
</g>
<!-- http://www.w3.org/1999/02/22&#45;rdf&#45;syntax&#45;ns#nil -->
<g id="node12" class="node">
<title>http://www.w3.org/1999/02/22&#45;rdf&#45;syntax&#45;ns#nil</title>
<ellipse fill="none" stroke="#e377c2" cx="88.24" cy="-430.64" rx="42.35" ry="16.03"/>
<text text-anchor="middle" x="88.24" y="-426.94" font-family="Times,serif" font-size="14.00">rdf:nil</text>
</g>
<!-- http://purl.org/oseg/ontologies/OTRL#goal -->
<g id="node13" class="node">
<title>http://purl.org/oseg/ontologies/OTRL#goal</title>
<ellipse fill="none" stroke="#e377c2" cx="503.27" cy="-361.44" rx="33.47" ry="16.03"/>
<text text-anchor="middle" x="503.27" y="-357.74" font-family="Times,serif" font-size="14.00">goal</text>
</g>
<!-- http://purl.org/oseg/ontologies/OTRL#goal&#45;&gt;http://schema.org/Text -->
<g id="edge17" class="edge">
<title>http://purl.org/oseg/ontologies/OTRL#goal&#45;&gt;http://schema.org/Text</title>
<path fill="none" stroke="black" d="M506.9,-377.94C506.92,-378.03 506.94,-378.12 506.96,-378.21"/>
<polygon fill="black" stroke="black" points="503.28,-377.79 508.85,-386.81 510.12,-376.29 503.28,-377.79"/>
<text text-anchor="middle" x="485.93" y="-381.88" font-family="Times,serif" font-size="14.00">range</text>
</g>
<!-- http://purl.org/oseg/ontologies/OTRL#Otrl4 -->
<g id="node14" class="node">
<title>http://purl.org/oseg/ontologies/OTRL#Otrl4</title>
<ellipse fill="none" stroke="#e377c2" cx="104.92" cy="-52.53" rx="38.37" ry="16.03"/>
<text text-anchor="middle" x="104.92" y="-48.83" font-family="Times,serif" font-size="14.00">Otrl4</text>
</g>
<!-- http://purl.org/oseg/ontologies/OTRL#Otrl4&#45;&gt;http://purl.org/oseg/ontologies/OTRL#OTRL -->
<g id="edge16" class="edge">
<title>http://purl.org/oseg/ontologies/OTRL#Otrl4&#45;&gt;http://purl.org/oseg/ontologies/OTRL#OTRL</title>
<path fill="none" stroke="black" d="M112.09,-68.6C119.73,-85.7 131.91,-112.98 140.85,-132.99"/>
<polygon fill="black" stroke="black" points="137.66,-134.44 144.94,-142.15 144.06,-131.59 137.66,-134.44"/>
</g>
<!-- http://purl.org/oseg/ontologies/OTRL#Otrl4&#45;&gt;http://www.w3.org/2002/07/owl#class -->
<g id="edge19" class="edge">
<title>http://purl.org/oseg/ontologies/OTRL#Otrl4&#45;&gt;http://www.w3.org/2002/07/owl#class</title>
<path fill="none" stroke="black" d="M118.23,-67.78C141.1,-93.98 188.01,-147.7 215.3,-178.96"/>
<polygon fill="black" stroke="black" points="212.9,-181.53 222.11,-186.76 218.17,-176.93 212.9,-181.53"/>
<text text-anchor="middle" x="162.26" y="-127.17" font-family="Times,serif" font-size="14.00">a</text>
</g>
<!-- http://purl.org/oseg/ontologies/OTRL#Odrl2 -->
<g id="node15" class="node">
<title>http://purl.org/oseg/ontologies/OTRL#Odrl2</title>
<ellipse fill="none" stroke="#e377c2" cx="432.03" cy="-116.27" rx="40.11" ry="16.03"/>
<text text-anchor="middle" x="432.03" y="-112.57" font-family="Times,serif" font-size="14.00">Odrl2</text>
</g>
<!-- http://purl.org/oseg/ontologies/OTRL#Odrl2&#45;&gt;http://www.w3.org/2002/07/owl#class -->
<g id="edge20" class="edge">
<title>http://purl.org/oseg/ontologies/OTRL#Odrl2&#45;&gt;http://www.w3.org/2002/07/owl#class</title>
<path fill="none" stroke="black" d="M404.81,-128.32C371.59,-143.04 315.11,-168.04 276.78,-185.02"/>
<polygon fill="black" stroke="black" points="275.17,-181.9 267.45,-189.15 278.01,-188.3 275.17,-181.9"/>
<text text-anchor="middle" x="336.29" y="-160.47" font-family="Times,serif" font-size="14.00">a</text>
</g>
<!-- http://purl.org/oseg/ontologies/OTRL#Odrl2&#45;&gt;http://purl.org/oseg/ontologies/OTRL#ODRL -->
<g id="edge14" class="edge">
<title>http://purl.org/oseg/ontologies/OTRL#Odrl2&#45;&gt;http://purl.org/oseg/ontologies/OTRL#ODRL</title>
<path fill="none" stroke="black" d="M427.92,-132.7C423.88,-148.79 417.67,-173.58 412.97,-192.39"/>
<polygon fill="black" stroke="black" points="409.56,-191.57 410.53,-202.12 416.35,-193.27 409.56,-191.57"/>
</g>
<!-- http://purl.org/oseg/ontologies/OTRL#Otrl5 -->
<g id="node16" class="node">
<title>http://purl.org/oseg/ontologies/OTRL#Otrl5</title>
<ellipse fill="none" stroke="#e377c2" cx="64.23" cy="-285.03" rx="38.37" ry="16.03"/>
<text text-anchor="middle" x="64.23" y="-281.33" font-family="Times,serif" font-size="14.00">Otrl5</text>
</g>
<!-- http://purl.org/oseg/ontologies/OTRL#Otrl5&#45;&gt;http://purl.org/oseg/ontologies/OTRL#OTRL -->
<g id="edge11" class="edge">
<title>http://purl.org/oseg/ontologies/OTRL#Otrl5&#45;&gt;http://purl.org/oseg/ontologies/OTRL#OTRL</title>
<path fill="none" stroke="black" d="M75.19,-269.25C90.27,-247.53 117.54,-208.26 135.25,-182.75"/>
<polygon fill="black" stroke="black" points="138.25,-184.57 141.08,-174.36 132.5,-180.58 138.25,-184.57"/>
</g>
<!-- http://purl.org/oseg/ontologies/OTRL#Otrl5&#45;&gt;http://www.w3.org/2002/07/owl#class -->
<g id="edge9" class="edge">
<title>http://purl.org/oseg/ontologies/OTRL#Otrl5&#45;&gt;http://www.w3.org/2002/07/owl#class</title>
<path fill="none" stroke="black" d="M89.98,-272.74C118.47,-259.15 164.7,-237.1 197.55,-221.43"/>
<polygon fill="black" stroke="black" points="199.34,-224.45 206.86,-216.99 196.33,-218.13 199.34,-224.45"/>
<text text-anchor="middle" x="139.27" y="-235.89" font-family="Times,serif" font-size="14.00">a</text>
</g>
<!-- http://purl.org/oseg/ontologies/OTRL -->
<g id="node17" class="node">
<title>http://purl.org/oseg/ontologies/OTRL</title>
<ellipse fill="none" stroke="#e377c2" cx="498.24" cy="-39.64" rx="60.62" ry="16.03"/>
<text text-anchor="middle" x="498.24" y="-35.94" font-family="Times,serif" font-size="14.00">ns1:OTRL</text>
</g>
<!-- http://purl.org/oseg/ontologies/OTRL&#45;&gt;http://purl.org/oseg/ontologies/OTRL -->
<g id="edge25" class="edge">
<title>http://purl.org/oseg/ontologies/OTRL&#45;&gt;http://purl.org/oseg/ontologies/OTRL</title>
<path fill="none" stroke="black" d="M553.84,-46.27C567.17,-45.75 577.05,-43.54 577.05,-39.64 577.05,-36.81 571.83,-34.86 563.87,-33.81"/>
<polygon fill="black" stroke="black" points="564.09,-30.32 553.84,-33.01 563.53,-37.3 564.09,-30.32"/>
<text text-anchor="middle" x="628.55" y="-35.94" font-family="Times,serif" font-size="14.00">owl:versionIRI</text>
</g>
<!-- http://purl.org/oseg/ontologies/OTRL#Odrl4 -->
<g id="node18" class="node">
<title>http://purl.org/oseg/ontologies/OTRL#Odrl4</title>
<ellipse fill="none" stroke="#e377c2" cx="436.38" cy="-278.59" rx="40.11" ry="16.03"/>
<text text-anchor="middle" x="436.38" y="-274.89" font-family="Times,serif" font-size="14.00">Odrl4</text>
</g>
<!-- http://purl.org/oseg/ontologies/OTRL#Odrl4&#45;&gt;http://www.w3.org/2002/07/owl#class -->
<g id="edge21" class="edge">
<title>http://purl.org/oseg/ontologies/OTRL#Odrl4&#45;&gt;http://www.w3.org/2002/07/owl#class</title>
<path fill="none" stroke="black" d="M406.85,-267.43C373.47,-254.82 318.79,-234.15 280.35,-219.63"/>
<polygon fill="black" stroke="black" points="281.55,-216.34 270.95,-216.08 279.07,-222.88 281.55,-216.34"/>
<text text-anchor="middle" x="339.1" y="-232.33" font-family="Times,serif" font-size="14.00">a</text>
</g>
<!-- http://purl.org/oseg/ontologies/OTRL#Odrl4&#45;&gt;http://purl.org/oseg/ontologies/OTRL#ODRL -->
<g id="edge18" class="edge">
<title>http://purl.org/oseg/ontologies/OTRL#Odrl4&#45;&gt;http://purl.org/oseg/ontologies/OTRL#ODRL</title>
<path fill="none" stroke="black" d="M428.35,-262.49C425.46,-256.7 422.13,-250.02 418.95,-243.64"/>
<polygon fill="black" stroke="black" points="422.07,-242.04 414.47,-234.65 415.8,-245.16 422.07,-242.04"/>
</g>
<!-- http://purl.org/oseg/ontologies/OTRL#Odrl1 -->
<g id="node19" class="node">
<title>http://purl.org/oseg/ontologies/OTRL#Odrl1</title>
<ellipse fill="none" stroke="#e377c2" cx="361.23" cy="-372.49" rx="40.11" ry="16.03"/>
<text text-anchor="middle" x="361.23" y="-368.79" font-family="Times,serif" font-size="14.00">Odrl1</text>
</g>
<!-- http://purl.org/oseg/ontologies/OTRL#Odrl1&#45;&gt;http://www.w3.org/2002/07/owl#class -->
<g id="edge22" class="edge">
<title>http://purl.org/oseg/ontologies/OTRL#Odrl1&#45;&gt;http://www.w3.org/2002/07/owl#class</title>
<path fill="none" stroke="black" d="M349.7,-356.85C327.86,-327.22 280.34,-262.76 254.26,-227.39"/>
<polygon fill="black" stroke="black" points="256.88,-225.04 248.13,-219.06 251.24,-229.19 256.88,-225.04"/>
<text text-anchor="middle" x="297.48" y="-295.92" font-family="Times,serif" font-size="14.00">a</text>
</g>
<!-- http://purl.org/oseg/ontologies/OTRL#Odrl1&#45;&gt;http://purl.org/oseg/ontologies/OTRL#ODRL -->
<g id="edge12" class="edge">
<title>http://purl.org/oseg/ontologies/OTRL#Odrl1&#45;&gt;http://purl.org/oseg/ontologies/OTRL#ODRL</title>
<path fill="none" stroke="black" d="M365.99,-356.3C373.76,-329.8 389.28,-276.91 398.67,-244.92"/>
<polygon fill="black" stroke="black" points="402.14,-245.52 401.6,-234.94 395.42,-243.55 402.14,-245.52"/>
</g>
<!-- http://purl.org/oseg/ontologies/OTRL#Otrl -->
<g id="node20" class="node">
<title>http://purl.org/oseg/ontologies/OTRL#Otrl</title>
<ellipse fill="none" stroke="#e377c2" cx="101.24" cy="-361.64" rx="31.64" ry="16.03"/>
<text text-anchor="middle" x="101.24" y="-357.94" font-family="Times,serif" font-size="14.00">Otrl</text>
</g>
</g>
</svg>
