<?xml version="1.0" encoding="UTF-8" standalone="no"?>
<!DOCTYPE svg PUBLIC "-//W3C//DTD SVG 1.1//EN"
 "http://www.w3.org/Graphics/SVG/1.1/DTD/svg11.dtd">
<!-- Generated by graphviz version 2.43.0 (0)
 -->
<!-- Title: G Pages: 1 -->
<svg width="563pt" height="437pt"
 viewBox="0.00 0.00 563.05 437.00" xmlns="http://www.w3.org/2000/svg" xmlns:xlink="http://www.w3.org/1999/xlink">
<g id="graph0" class="graph" transform="scale(1 1) rotate(0) translate(4 433)">
<title>G</title>
<polygon fill="white" stroke="transparent" points="-4,4 -4,-433 559.05,-433 559.05,4 -4,4"/>
<!-- http://www.w3.org/2002/07/owl#class -->
<g id="node1" class="node">
<title>http://www.w3.org/2002/07/owl#class</title>
<ellipse fill="none" stroke="#1f77b4" cx="202.72" cy="-188.94" rx="57.05" ry="16.03"/>
<text text-anchor="middle" x="202.72" y="-185.24" font-family="Times,serif" font-size="14.00">owl:class</text>
</g>
<!-- http://purl.org/oseg/ontologies/OTRL#ODRL -->
<g id="node2" class="node">
<title>http://purl.org/oseg/ontologies/OTRL#ODRL</title>
<ellipse fill="none" stroke="#e377c2" cx="204.9" cy="-241.66" rx="41.94" ry="16.03"/>
<text text-anchor="middle" x="204.9" y="-237.96" font-family="Times,serif" font-size="14.00">ODRL</text>
</g>
<!-- http://purl.org/oseg/ontologies/OTRL#ODRL&#45;&gt;http://www.w3.org/2002/07/owl#class -->
<g id="edge20" class="edge">
<title>http://purl.org/oseg/ontologies/OTRL#ODRL&#45;&gt;http://www.w3.org/2002/07/owl#class</title>
<path fill="none" stroke="black" d="M204.23,-225.27C204.1,-222.22 203.96,-218.97 203.83,-215.71"/>
<polygon fill="black" stroke="black" points="207.32,-215.35 203.41,-205.5 200.32,-215.64 207.32,-215.35"/>
<text text-anchor="middle" x="199.53" y="-209.29" font-family="Times,serif" font-size="14.00">a</text>
</g>
<!-- http://purl.org/oseg/ontologies/OTRL#OTRL -->
<g id="node3" class="node">
<title>http://purl.org/oseg/ontologies/OTRL#OTRL</title>
<ellipse fill="none" stroke="#e377c2" cx="202.88" cy="-144.22" rx="39.7" ry="16.03"/>
<text text-anchor="middle" x="202.88" y="-140.52" font-family="Times,serif" font-size="14.00">OTRL</text>
</g>
<!-- http://purl.org/oseg/ontologies/OTRL#OTRL&#45;&gt;http://www.w3.org/2002/07/owl#class -->
<g id="edge1" class="edge">
<title>http://purl.org/oseg/ontologies/OTRL#OTRL&#45;&gt;http://www.w3.org/2002/07/owl#class</title>
<path fill="none" stroke="black" d="M202.82,-160.62C202.82,-161.22 202.82,-161.84 202.82,-162.46"/>
<polygon fill="black" stroke="black" points="199.32,-162.53 202.78,-172.54 206.32,-162.55 199.32,-162.53"/>
<text text-anchor="middle" x="198.32" y="-165.34" font-family="Times,serif" font-size="14.00">a</text>
</g>
<!-- http://schema.org/Text -->
<g id="node4" class="node">
<title>http://schema.org/Text</title>
<ellipse fill="none" stroke="#e377c2" cx="459.17" cy="-372.42" rx="74.91" ry="16.03"/>
<text text-anchor="middle" x="459.17" y="-368.72" font-family="Times,serif" font-size="14.00">schema:Text</text>
</g>
<!-- http://purl.org/oseg/ontologies/OTRL#goal -->
<g id="node5" class="node">
<title>http://purl.org/oseg/ontologies/OTRL#goal</title>
<ellipse fill="none" stroke="#e377c2" cx="519.4" cy="-412.99" rx="33.47" ry="16.03"/>
<text text-anchor="middle" x="519.4" y="-409.29" font-family="Times,serif" font-size="14.00">goal</text>
</g>
<!-- http://purl.org/oseg/ontologies/OTRL#goal&#45;&gt;http://schema.org/Text -->
<g id="edge10" class="edge">
<title>http://purl.org/oseg/ontologies/OTRL#goal&#45;&gt;http://schema.org/Text</title>
<path fill="none" stroke="black" d="M499.68,-399.71C496.85,-397.8 493.88,-395.8 490.89,-393.79"/>
<polygon fill="black" stroke="black" points="492.75,-390.82 482.5,-388.14 488.84,-396.63 492.75,-390.82"/>
<text text-anchor="middle" x="474.28" y="-400.55" font-family="Times,serif" font-size="14.00">range</text>
</g>
<!-- http://purl.org/oseg/ontologies/OTRL#ODRL&#45;1 -->
<g id="node6" class="node">
<title>http://purl.org/oseg/ontologies/OTRL#ODRL&#45;1</title>
<ellipse fill="none" stroke="#e377c2" cx="159" cy="-372.4" rx="50.82" ry="16.03"/>
<text text-anchor="middle" x="159" y="-368.7" font-family="Times,serif" font-size="14.00">ODRL&#45;1</text>
</g>
<!-- http://purl.org/oseg/ontologies/OTRL#ODRL&#45;1&#45;&gt;http://www.w3.org/2002/07/owl#class -->
<g id="edge3" class="edge">
<title>http://purl.org/oseg/ontologies/OTRL#ODRL&#45;1&#45;&gt;http://www.w3.org/2002/07/owl#class</title>
<path fill="none" stroke="black" d="M162.88,-356.12C170.47,-324.3 187.31,-253.6 196.48,-215.12"/>
<polygon fill="black" stroke="black" points="199.94,-215.72 198.85,-205.18 193.13,-214.1 199.94,-215.72"/>
<text text-anchor="middle" x="175.18" y="-274.42" font-family="Times,serif" font-size="14.00">a</text>
</g>
<!-- http://purl.org/oseg/ontologies/OTRL#ODRL&#45;1&#45;&gt;http://purl.org/oseg/ontologies/OTRL#ODRL -->
<g id="edge2" class="edge">
<title>http://purl.org/oseg/ontologies/OTRL#ODRL&#45;1&#45;&gt;http://purl.org/oseg/ontologies/OTRL#ODRL</title>
<path fill="none" stroke="black" d="M164.72,-356.11C172.49,-333.99 186.45,-294.21 195.7,-267.87"/>
<polygon fill="black" stroke="black" points="199.1,-268.75 199.11,-258.16 192.5,-266.43 199.1,-268.75"/>
</g>
<!-- http://purl.org/oseg/ontologies/OTRL -->
<g id="node7" class="node">
<title>http://purl.org/oseg/ontologies/OTRL</title>
<ellipse fill="none" stroke="#e377c2" cx="373.24" cy="-184.64" rx="60.62" ry="16.03"/>
<text text-anchor="middle" x="373.24" y="-180.94" font-family="Times,serif" font-size="14.00">ns1:OTRL</text>
</g>
<!-- http://purl.org/oseg/ontologies/OTRL&#45;&gt;http://purl.org/oseg/ontologies/OTRL -->
<g id="edge24" class="edge">
<title>http://purl.org/oseg/ontologies/OTRL&#45;&gt;http://purl.org/oseg/ontologies/OTRL</title>
<path fill="none" stroke="black" d="M428.84,-191.27C442.17,-190.75 452.05,-188.54 452.05,-184.64 452.05,-181.81 446.83,-179.86 438.87,-178.81"/>
<polygon fill="black" stroke="black" points="439.09,-175.32 428.84,-178.01 438.53,-182.3 439.09,-175.32"/>
<text text-anchor="middle" x="503.55" y="-180.94" font-family="Times,serif" font-size="14.00">owl:versionIRI</text>
</g>
<!-- http://purl.org/oseg/ontologies/OTRL#OTRL&#45;2 -->
<g id="node8" class="node">
<title>http://purl.org/oseg/ontologies/OTRL#OTRL&#45;2</title>
<ellipse fill="none" stroke="#e377c2" cx="351.19" cy="-102.67" rx="49.49" ry="16.03"/>
<text text-anchor="middle" x="351.19" y="-98.97" font-family="Times,serif" font-size="14.00">OTRL&#45;2</text>
</g>
<!-- http://purl.org/oseg/ontologies/OTRL#OTRL&#45;2&#45;&gt;http://www.w3.org/2002/07/owl#class -->
<g id="edge19" class="edge">
<title>http://purl.org/oseg/ontologies/OTRL#OTRL&#45;2&#45;&gt;http://www.w3.org/2002/07/owl#class</title>
<path fill="none" stroke="black" d="M326.67,-116.92C302.25,-131.11 264.55,-153.01 237.14,-168.94"/>
<polygon fill="black" stroke="black" points="235.16,-166.04 228.27,-174.09 238.68,-172.1 235.16,-166.04"/>
<text text-anchor="middle" x="277.41" y="-146.73" font-family="Times,serif" font-size="14.00">a</text>
</g>
<!-- http://purl.org/oseg/ontologies/OTRL#OTRL&#45;2&#45;&gt;http://purl.org/oseg/ontologies/OTRL#OTRL -->
<g id="edge22" class="edge">
<title>http://purl.org/oseg/ontologies/OTRL#OTRL&#45;2&#45;&gt;http://purl.org/oseg/ontologies/OTRL#OTRL</title>
<path fill="none" stroke="black" d="M313.38,-113.26C292.78,-119.03 267.22,-126.19 245.87,-132.18"/>
<polygon fill="black" stroke="black" points="244.76,-128.85 236.08,-134.92 246.65,-135.59 244.76,-128.85"/>
</g>
<!-- http://purl.org/oseg/ontologies/OTRL#ODRL&#45;2 -->
<g id="node9" class="node">
<title>http://purl.org/oseg/ontologies/OTRL#ODRL&#45;2</title>
<ellipse fill="none" stroke="#e377c2" cx="185.84" cy="-291.38" rx="50.82" ry="16.03"/>
<text text-anchor="middle" x="185.84" y="-287.68" font-family="Times,serif" font-size="14.00">ODRL&#45;2</text>
</g>
<!-- http://purl.org/oseg/ontologies/OTRL#ODRL&#45;2&#45;&gt;http://www.w3.org/2002/07/owl#class -->
<g id="edge4" class="edge">
<title>http://purl.org/oseg/ontologies/OTRL#ODRL&#45;2&#45;&gt;http://www.w3.org/2002/07/owl#class</title>
<path fill="none" stroke="black" d="M188.55,-274.92C191.2,-258.87 195.27,-234.18 198.37,-215.38"/>
<polygon fill="black" stroke="black" points="201.85,-215.79 200.02,-205.36 194.94,-214.66 201.85,-215.79"/>
<text text-anchor="middle" x="188.96" y="-248.95" font-family="Times,serif" font-size="14.00">a</text>
</g>
<!-- http://purl.org/oseg/ontologies/OTRL#ODRL&#45;2&#45;&gt;http://purl.org/oseg/ontologies/OTRL#ODRL -->
<g id="edge12" class="edge">
<title>http://purl.org/oseg/ontologies/OTRL#ODRL&#45;2&#45;&gt;http://purl.org/oseg/ontologies/OTRL#ODRL</title>
<path fill="none" stroke="black" d="M192.08,-275.1C193.05,-272.58 194.06,-269.94 195.08,-267.27"/>
<polygon fill="black" stroke="black" points="198.4,-268.4 198.71,-257.81 191.87,-265.89 198.4,-268.4"/>
</g>
<!-- http://purl.org/oseg/ontologies/OTRL#OTRL&#45;5 -->
<g id="node10" class="node">
<title>http://purl.org/oseg/ontologies/OTRL#OTRL&#45;5</title>
<ellipse fill="none" stroke="#e377c2" cx="112.66" cy="-38.56" rx="49.49" ry="16.03"/>
<text text-anchor="middle" x="112.66" y="-34.86" font-family="Times,serif" font-size="14.00">OTRL&#45;5</text>
</g>
<!-- http://purl.org/oseg/ontologies/OTRL#OTRL&#45;5&#45;&gt;http://www.w3.org/2002/07/owl#class -->
<g id="edge5" class="edge">
<title>http://purl.org/oseg/ontologies/OTRL#OTRL&#45;5&#45;&gt;http://www.w3.org/2002/07/owl#class</title>
<path fill="none" stroke="black" d="M122.3,-54.65C137.93,-80.74 168.92,-132.49 187.53,-163.57"/>
<polygon fill="black" stroke="black" points="184.74,-165.72 192.88,-172.51 190.75,-162.13 184.74,-165.72"/>
<text text-anchor="middle" x="150.42" y="-112.91" font-family="Times,serif" font-size="14.00">a</text>
</g>
<!-- http://purl.org/oseg/ontologies/OTRL#OTRL&#45;5&#45;&gt;http://purl.org/oseg/ontologies/OTRL#OTRL -->
<g id="edge15" class="edge">
<title>http://purl.org/oseg/ontologies/OTRL#OTRL&#45;5&#45;&gt;http://purl.org/oseg/ontologies/OTRL#OTRL</title>
<path fill="none" stroke="black" d="M126.37,-54.6C141.44,-72.26 165.81,-100.8 182.99,-120.92"/>
<polygon fill="black" stroke="black" points="180.49,-123.37 189.64,-128.71 185.81,-118.83 180.49,-123.37"/>
</g>
<!-- http://www.w3.org/1999/02/22&#45;rdf&#45;syntax&#45;ns#nil -->
<g id="node11" class="node">
<title>http://www.w3.org/1999/02/22&#45;rdf&#45;syntax&#45;ns#nil</title>
<ellipse fill="none" stroke="#e377c2" cx="378.24" cy="-40.64" rx="42.35" ry="16.03"/>
<text text-anchor="middle" x="378.24" y="-36.94" font-family="Times,serif" font-size="14.00">rdf:nil</text>
</g>
<!-- http://purl.org/oseg/ontologies/OTRL#OTRL&#45;4 -->
<g id="node12" class="node">
<title>http://purl.org/oseg/ontologies/OTRL#OTRL&#45;4</title>
<ellipse fill="none" stroke="#e377c2" cx="251.81" cy="-16.6" rx="49.49" ry="16.03"/>
<text text-anchor="middle" x="251.81" y="-12.9" font-family="Times,serif" font-size="14.00">OTRL&#45;4</text>
</g>
<!-- http://purl.org/oseg/ontologies/OTRL#OTRL&#45;4&#45;&gt;http://www.w3.org/2002/07/owl#class -->
<g id="edge6" class="edge">
<title>http://purl.org/oseg/ontologies/OTRL#OTRL&#45;4&#45;&gt;http://www.w3.org/2002/07/owl#class</title>
<path fill="none" stroke="black" d="M247.19,-32.81C238.68,-62.71 220.44,-126.75 210.16,-162.83"/>
<polygon fill="black" stroke="black" points="206.74,-162.07 207.36,-172.64 213.47,-163.98 206.74,-162.07"/>
<text text-anchor="middle" x="224.18" y="-101.62" font-family="Times,serif" font-size="14.00">a</text>
</g>
<!-- http://purl.org/oseg/ontologies/OTRL#OTRL&#45;4&#45;&gt;http://purl.org/oseg/ontologies/OTRL#OTRL -->
<g id="edge17" class="edge">
<title>http://purl.org/oseg/ontologies/OTRL#OTRL&#45;4&#45;&gt;http://purl.org/oseg/ontologies/OTRL#OTRL</title>
<path fill="none" stroke="black" d="M245.62,-32.76C237.35,-54.31 222.63,-92.71 212.81,-118.33"/>
<polygon fill="black" stroke="black" points="209.5,-117.19 209.18,-127.78 216.03,-119.7 209.5,-117.19"/>
</g>
<!-- http://purl.org/oseg/ontologies/OTRL#ODRL&#45;5 -->
<g id="node13" class="node">
<title>http://purl.org/oseg/ontologies/OTRL#ODRL&#45;5</title>
<ellipse fill="none" stroke="#e377c2" cx="50.61" cy="-276.25" rx="50.82" ry="16.03"/>
<text text-anchor="middle" x="50.61" y="-272.55" font-family="Times,serif" font-size="14.00">ODRL&#45;5</text>
</g>
<!-- http://purl.org/oseg/ontologies/OTRL#ODRL&#45;5&#45;&gt;http://www.w3.org/2002/07/owl#class -->
<g id="edge25" class="edge">
<title>http://purl.org/oseg/ontologies/OTRL#ODRL&#45;5&#45;&gt;http://www.w3.org/2002/07/owl#class</title>
<path fill="none" stroke="black" d="M75.39,-262.03C100.68,-247.51 140.14,-224.86 168.43,-208.62"/>
<polygon fill="black" stroke="black" points="170.26,-211.61 177.19,-203.59 166.78,-205.54 170.26,-211.61"/>
<text text-anchor="middle" x="117.41" y="-239.12" font-family="Times,serif" font-size="14.00">a</text>
</g>
<!-- http://purl.org/oseg/ontologies/OTRL#ODRL&#45;5&#45;&gt;http://purl.org/oseg/ontologies/OTRL#ODRL -->
<g id="edge18" class="edge">
<title>http://purl.org/oseg/ontologies/OTRL#ODRL&#45;5&#45;&gt;http://purl.org/oseg/ontologies/OTRL#ODRL</title>
<path fill="none" stroke="black" d="M92.36,-266.89C112.84,-262.3 137.57,-256.76 158.62,-252.03"/>
<polygon fill="black" stroke="black" points="159.63,-255.39 168.63,-249.79 158.1,-248.56 159.63,-255.39"/>
</g>
<!-- http://purl.org/oseg/ontologies/OTRL#OTRL&#45;1 -->
<g id="node14" class="node">
<title>http://purl.org/oseg/ontologies/OTRL#OTRL&#45;1</title>
<ellipse fill="none" stroke="#e377c2" cx="222.92" cy="-93.23" rx="49.49" ry="16.03"/>
<text text-anchor="middle" x="222.92" y="-89.53" font-family="Times,serif" font-size="14.00">OTRL&#45;1</text>
</g>
<!-- http://purl.org/oseg/ontologies/OTRL#OTRL&#45;1&#45;&gt;http://www.w3.org/2002/07/owl#class -->
<g id="edge8" class="edge">
<title>http://purl.org/oseg/ontologies/OTRL#OTRL&#45;1&#45;&gt;http://www.w3.org/2002/07/owl#class</title>
<path fill="none" stroke="black" d="M219.49,-109.47C216.42,-124.04 211.85,-145.7 208.25,-162.73"/>
<polygon fill="black" stroke="black" points="204.81,-162.12 206.17,-172.62 211.66,-163.56 204.81,-162.12"/>
<text text-anchor="middle" x="209.37" y="-124.9" font-family="Times,serif" font-size="14.00">a</text>
</g>
<!-- http://purl.org/oseg/ontologies/OTRL#OTRL&#45;1&#45;&gt;http://purl.org/oseg/ontologies/OTRL#OTRL -->
<g id="edge21" class="edge">
<title>http://purl.org/oseg/ontologies/OTRL#OTRL&#45;1&#45;&gt;http://purl.org/oseg/ontologies/OTRL#OTRL</title>
<path fill="none" stroke="black" d="M216.58,-109.36C215.41,-112.34 214.16,-115.51 212.92,-118.69"/>
<polygon fill="black" stroke="black" points="209.65,-117.43 209.25,-128.01 216.17,-119.99 209.65,-117.43"/>
</g>
<!-- http://purl.org/oseg/ontologies/OTRL#ODRL&#45;3 -->
<g id="node15" class="node">
<title>http://purl.org/oseg/ontologies/OTRL#ODRL&#45;3</title>
<ellipse fill="none" stroke="#e377c2" cx="361.92" cy="-259.13" rx="50.82" ry="16.03"/>
<text text-anchor="middle" x="361.92" y="-255.43" font-family="Times,serif" font-size="14.00">ODRL&#45;3</text>
</g>
<!-- http://purl.org/oseg/ontologies/OTRL#ODRL&#45;3&#45;&gt;http://www.w3.org/2002/07/owl#class -->
<g id="edge9" class="edge">
<title>http://purl.org/oseg/ontologies/OTRL#ODRL&#45;3&#45;&gt;http://www.w3.org/2002/07/owl#class</title>
<path fill="none" stroke="black" d="M331.98,-245.93C306.92,-234.88 270.93,-219.01 243.29,-206.83"/>
<polygon fill="black" stroke="black" points="244.45,-203.51 233.89,-202.68 241.63,-209.92 244.45,-203.51"/>
<text text-anchor="middle" x="283.13" y="-230.18" font-family="Times,serif" font-size="14.00">a</text>
</g>
<!-- http://purl.org/oseg/ontologies/OTRL#ODRL&#45;3&#45;&gt;http://purl.org/oseg/ontologies/OTRL#ODRL -->
<g id="edge7" class="edge">
<title>http://purl.org/oseg/ontologies/OTRL#ODRL&#45;3&#45;&gt;http://purl.org/oseg/ontologies/OTRL#ODRL</title>
<path fill="none" stroke="black" d="M313.53,-253.75C295.05,-251.69 273.96,-249.34 255.3,-247.27"/>
<polygon fill="black" stroke="black" points="255.54,-243.77 245.22,-246.15 254.77,-250.73 255.54,-243.77"/>
</g>
<!-- http://purl.org/oseg/ontologies/OTRL#OTRL&#45;3 -->
<g id="node16" class="node">
<title>http://purl.org/oseg/ontologies/OTRL#OTRL&#45;3</title>
<ellipse fill="none" stroke="#e377c2" cx="50.29" cy="-124.12" rx="49.49" ry="16.03"/>
<text text-anchor="middle" x="50.29" y="-120.42" font-family="Times,serif" font-size="14.00">OTRL&#45;3</text>
</g>
<!-- http://purl.org/oseg/ontologies/OTRL#OTRL&#45;3&#45;&gt;http://www.w3.org/2002/07/owl#class -->
<g id="edge11" class="edge">
<title>http://purl.org/oseg/ontologies/OTRL#OTRL&#45;3&#45;&gt;http://www.w3.org/2002/07/owl#class</title>
<path fill="none" stroke="black" d="M80.77,-137.08C103.88,-146.91 135.9,-160.53 161.33,-171.34"/>
<polygon fill="black" stroke="black" points="160.15,-174.64 170.72,-175.33 162.89,-168.2 160.15,-174.64"/>
<text text-anchor="middle" x="116.55" y="-158.01" font-family="Times,serif" font-size="14.00">a</text>
</g>
<!-- http://purl.org/oseg/ontologies/OTRL#OTRL&#45;3&#45;&gt;http://purl.org/oseg/ontologies/OTRL#OTRL -->
<g id="edge23" class="edge">
<title>http://purl.org/oseg/ontologies/OTRL#OTRL&#45;3&#45;&gt;http://purl.org/oseg/ontologies/OTRL#OTRL</title>
<path fill="none" stroke="black" d="M96.49,-130.21C114.99,-132.64 136.31,-135.45 154.98,-137.91"/>
<polygon fill="black" stroke="black" points="154.67,-141.4 165.04,-139.23 155.59,-134.46 154.67,-141.4"/>
</g>
<!-- http://purl.org/oseg/ontologies/OTRL#ODRL&#45;4 -->
<g id="node17" class="node">
<title>http://purl.org/oseg/ontologies/OTRL#ODRL&#45;4</title>
<ellipse fill="none" stroke="#e377c2" cx="299.25" cy="-347.76" rx="50.82" ry="16.03"/>
<text text-anchor="middle" x="299.25" y="-344.06" font-family="Times,serif" font-size="14.00">ODRL&#45;4</text>
</g>
<!-- http://purl.org/oseg/ontologies/OTRL#ODRL&#45;4&#45;&gt;http://www.w3.org/2002/07/owl#class -->
<g id="edge14" class="edge">
<title>http://purl.org/oseg/ontologies/OTRL#ODRL&#45;4&#45;&gt;http://www.w3.org/2002/07/owl#class</title>
<path fill="none" stroke="black" d="M289.46,-331.66C272.55,-303.83 237.76,-246.58 217.76,-213.68"/>
<polygon fill="black" stroke="black" points="220.72,-211.81 212.54,-205.08 214.74,-215.45 220.72,-211.81"/>
<text text-anchor="middle" x="249.11" y="-276.47" font-family="Times,serif" font-size="14.00">a</text>
</g>
<!-- http://purl.org/oseg/ontologies/OTRL#ODRL&#45;4&#45;&gt;http://purl.org/oseg/ontologies/OTRL#ODRL -->
<g id="edge13" class="edge">
<title>http://purl.org/oseg/ontologies/OTRL#ODRL&#45;4&#45;&gt;http://purl.org/oseg/ontologies/OTRL#ODRL</title>
<path fill="none" stroke="black" d="M285.33,-332.11C269.49,-314.29 243.48,-285.04 225.34,-264.64"/>
<polygon fill="black" stroke="black" points="227.83,-262.18 218.57,-257.03 222.6,-266.83 227.83,-262.18"/>
</g>
<!-- http://purl.org/oseg/ontologies/OTRL#exitCriteria -->
<g id="node18" class="node">
<title>http://purl.org/oseg/ontologies/OTRL#exitCriteria</title>
<ellipse fill="none" stroke="#e377c2" cx="455.21" cy="-328.22" rx="70.01" ry="16.03"/>
<text text-anchor="middle" x="455.21" y="-324.52" font-family="Times,serif" font-size="14.00">exitCriteria</text>
</g>
<!-- http://purl.org/oseg/ontologies/OTRL#exitCriteria&#45;&gt;http://schema.org/Text -->
<g id="edge16" class="edge">
<title>http://purl.org/oseg/ontologies/OTRL#exitCriteria&#45;&gt;http://schema.org/Text</title>
<path fill="none" stroke="black" d="M456.68,-344.68C456.72,-345.15 456.77,-345.62 456.81,-346.09"/>
<polygon fill="black" stroke="black" points="453.33,-346.45 457.71,-356.1 460.3,-345.82 453.33,-346.45"/>
<text text-anchor="middle" x="435.75" y="-349.19" font-family="Times,serif" font-size="14.00">range</text>
</g>
</g>
</svg>
