<?xml version="1.0" encoding="UTF-8" standalone="no"?>
<!DOCTYPE svg PUBLIC "-//W3C//DTD SVG 1.1//EN"
 "http://www.w3.org/Graphics/SVG/1.1/DTD/svg11.dtd">
<!-- Generated by graphviz version 2.43.0 (0)
 -->
<!-- Title: G Pages: 1 -->
<svg width="608pt" height="398pt"
 viewBox="0.00 0.00 608.05 398.00" xmlns="http://www.w3.org/2000/svg" xmlns:xlink="http://www.w3.org/1999/xlink">
<g id="graph0" class="graph" transform="scale(1 1) rotate(0) translate(4 394)">
<title>G</title>
<polygon fill="white" stroke="transparent" points="-4,4 -4,-394 604.05,-394 604.05,4 -4,4"/>
<!-- http://purl.org/oseg/ontologies/OTRL#ODRL -->
<g id="node1" class="node">
<title>http://purl.org/oseg/ontologies/OTRL#ODRL</title>
<ellipse fill="none" stroke="#e377c2" cx="231.16" cy="-89.99" rx="41.94" ry="16.03"/>
<text text-anchor="middle" x="231.16" y="-86.29" font-family="Times,serif" font-size="14.00">ODRL</text>
</g>
<!-- http://www.w3.org/2002/07/owl#class -->
<g id="node2" class="node">
<title>http://www.w3.org/2002/07/owl#class</title>
<ellipse fill="none" stroke="#1f77b4" cx="189.77" cy="-191.41" rx="57.05" ry="16.03"/>
<text text-anchor="middle" x="189.77" y="-187.71" font-family="Times,serif" font-size="14.00">owl:class</text>
</g>
<!-- http://purl.org/oseg/ontologies/OTRL#OTRL -->
<g id="node3" class="node">
<title>http://purl.org/oseg/ontologies/OTRL#OTRL</title>
<ellipse fill="none" stroke="#e377c2" cx="175.91" cy="-239.48" rx="39.7" ry="16.03"/>
<text text-anchor="middle" x="175.91" y="-235.78" font-family="Times,serif" font-size="14.00">OTRL</text>
</g>
<!-- http://purl.org/oseg/ontologies/OTRL#OTRL&#45;&gt;http://www.w3.org/2002/07/owl#class -->
<g id="edge5" class="edge">
<title>http://purl.org/oseg/ontologies/OTRL#OTRL&#45;&gt;http://www.w3.org/2002/07/owl#class</title>
<path fill="none" stroke="black" d="M180.6,-223.21C181.14,-221.33 181.71,-219.38 182.27,-217.41"/>
<polygon fill="black" stroke="black" points="185.67,-218.25 185.08,-207.67 178.95,-216.31 185.67,-218.25"/>
<text text-anchor="middle" x="176.94" y="-209.11" font-family="Times,serif" font-size="14.00">a</text>
</g>
<!-- http://purl.org/oseg/ontologies/OTRL#Odrl -->
<g id="node4" class="node">
<title>http://purl.org/oseg/ontologies/OTRL#Odrl</title>
<ellipse fill="none" stroke="#e377c2" cx="112.84" cy="-342.72" rx="33.88" ry="16.03"/>
<text text-anchor="middle" x="112.84" y="-339.02" font-family="Times,serif" font-size="14.00">Odrl</text>
</g>
<!-- http://purl.org/oseg/ontologies/OTRL#Odrl&#45;&gt;http://www.w3.org/2002/07/owl#class -->
<g id="edge10" class="edge">
<title>http://purl.org/oseg/ontologies/OTRL#Odrl&#45;&gt;http://www.w3.org/2002/07/owl#class</title>
<path fill="none" stroke="black" d="M120.93,-326.82C134.28,-300.55 161.05,-247.9 176.98,-216.55"/>
<polygon fill="black" stroke="black" points="180.14,-218.06 181.56,-207.56 173.9,-214.89 180.14,-218.06"/>
<text text-anchor="middle" x="144.46" y="-275.48" font-family="Times,serif" font-size="14.00">a</text>
</g>
<!-- http://purl.org/oseg/ontologies/OTRL#exitCriteria -->
<g id="node5" class="node">
<title>http://purl.org/oseg/ontologies/OTRL#exitCriteria</title>
<ellipse fill="none" stroke="#e377c2" cx="406.49" cy="-374.16" rx="70.01" ry="16.03"/>
<text text-anchor="middle" x="406.49" y="-370.46" font-family="Times,serif" font-size="14.00">exitCriteria</text>
</g>
<!-- http://schema.org/Text -->
<g id="node20" class="node">
<title>http://schema.org/Text</title>
<ellipse fill="none" stroke="#e377c2" cx="472.92" cy="-331.12" rx="74.91" ry="16.03"/>
<text text-anchor="middle" x="472.92" y="-327.42" font-family="Times,serif" font-size="14.00">schema:Text</text>
</g>
<!-- http://purl.org/oseg/ontologies/OTRL#exitCriteria&#45;&gt;http://schema.org/Text -->
<g id="edge25" class="edge">
<title>http://purl.org/oseg/ontologies/OTRL#exitCriteria&#45;&gt;http://schema.org/Text</title>
<path fill="none" stroke="black" d="M430.47,-358.62C433.63,-356.57 436.91,-354.45 440.19,-352.33"/>
<polygon fill="black" stroke="black" points="442.26,-355.15 448.75,-346.78 438.45,-349.28 442.26,-355.15"/>
<text text-anchor="middle" x="414.33" y="-344.27" font-family="Times,serif" font-size="14.00">range</text>
</g>
<!-- http://www.w3.org/1999/02/22&#45;rdf&#45;syntax&#45;ns#nil -->
<g id="node6" class="node">
<title>http://www.w3.org/1999/02/22&#45;rdf&#45;syntax&#45;ns#nil</title>
<ellipse fill="none" stroke="#e377c2" cx="420.24" cy="-268.64" rx="42.35" ry="16.03"/>
<text text-anchor="middle" x="420.24" y="-264.94" font-family="Times,serif" font-size="14.00">rdf:nil</text>
</g>
<!-- http://purl.org/oseg/ontologies/OTRL -->
<g id="node7" class="node">
<title>http://purl.org/oseg/ontologies/OTRL</title>
<ellipse fill="none" stroke="#e377c2" cx="418.24" cy="-37.64" rx="60.62" ry="16.03"/>
<text text-anchor="middle" x="418.24" y="-33.94" font-family="Times,serif" font-size="14.00">ns1:OTRL</text>
</g>
<!-- http://purl.org/oseg/ontologies/OTRL&#45;&gt;http://purl.org/oseg/ontologies/OTRL -->
<g id="edge2" class="edge">
<title>http://purl.org/oseg/ontologies/OTRL&#45;&gt;http://purl.org/oseg/ontologies/OTRL</title>
<path fill="none" stroke="black" d="M473.84,-44.27C487.17,-43.75 497.05,-41.54 497.05,-37.64 497.05,-34.81 491.83,-32.86 483.87,-31.81"/>
<polygon fill="black" stroke="black" points="484.09,-28.32 473.84,-31.01 483.53,-35.3 484.09,-28.32"/>
<text text-anchor="middle" x="548.55" y="-33.94" font-family="Times,serif" font-size="14.00">owl:versionIRI</text>
</g>
<!-- http://purl.org/oseg/ontologies/OTRL#Otrl1 -->
<g id="node8" class="node">
<title>http://purl.org/oseg/ontologies/OTRL#Otrl1</title>
<ellipse fill="none" stroke="#e377c2" cx="211.95" cy="-358.42" rx="38.37" ry="16.03"/>
<text text-anchor="middle" x="211.95" y="-354.72" font-family="Times,serif" font-size="14.00">Otrl1</text>
</g>
<!-- http://purl.org/oseg/ontologies/OTRL#Otrl1&#45;&gt;http://www.w3.org/2002/07/owl#class -->
<g id="edge12" class="edge">
<title>http://purl.org/oseg/ontologies/OTRL#Otrl1&#45;&gt;http://www.w3.org/2002/07/owl#class</title>
<path fill="none" stroke="black" d="M209.78,-342.1C205.95,-313.24 197.94,-252.95 193.3,-218.01"/>
<polygon fill="black" stroke="black" points="196.76,-217.49 191.97,-208.04 189.82,-218.41 196.76,-217.49"/>
<text text-anchor="middle" x="197.04" y="-283.85" font-family="Times,serif" font-size="14.00">a</text>
</g>
<!-- http://purl.org/oseg/ontologies/OTRL#Otrl1&#45;&gt;http://purl.org/oseg/ontologies/OTRL#OTRL -->
<g id="edge21" class="edge">
<title>http://purl.org/oseg/ontologies/OTRL#Otrl1&#45;&gt;http://purl.org/oseg/ontologies/OTRL#OTRL</title>
<path fill="none" stroke="black" d="M206.94,-341.88C200.94,-322.08 190.83,-288.7 183.78,-265.46"/>
<polygon fill="black" stroke="black" points="187.13,-264.43 180.88,-255.88 180.43,-266.46 187.13,-264.43"/>
</g>
<!-- http://purl.org/oseg/ontologies/OTRL#Otrl5 -->
<g id="node9" class="node">
<title>http://purl.org/oseg/ontologies/OTRL#Otrl5</title>
<ellipse fill="none" stroke="#e377c2" cx="38.56" cy="-197.81" rx="38.37" ry="16.03"/>
<text text-anchor="middle" x="38.56" y="-194.11" font-family="Times,serif" font-size="14.00">Otrl5</text>
</g>
<!-- http://purl.org/oseg/ontologies/OTRL#Otrl5&#45;&gt;http://www.w3.org/2002/07/owl#class -->
<g id="edge11" class="edge">
<title>http://purl.org/oseg/ontologies/OTRL#Otrl5&#45;&gt;http://www.w3.org/2002/07/owl#class</title>
<path fill="none" stroke="black" d="M76.71,-196.19C90.71,-195.6 106.99,-194.91 122.77,-194.24"/>
<polygon fill="black" stroke="black" points="123.2,-197.73 133.04,-193.81 122.9,-190.74 123.2,-197.73"/>
<text text-anchor="middle" x="95.24" y="-199.02" font-family="Times,serif" font-size="14.00">a</text>
</g>
<!-- http://purl.org/oseg/ontologies/OTRL#Otrl5&#45;&gt;http://purl.org/oseg/ontologies/OTRL#OTRL -->
<g id="edge14" class="edge">
<title>http://purl.org/oseg/ontologies/OTRL#Otrl5&#45;&gt;http://purl.org/oseg/ontologies/OTRL#OTRL</title>
<path fill="none" stroke="black" d="M69.73,-207.26C88.77,-213.04 113.37,-220.5 134.09,-226.79"/>
<polygon fill="black" stroke="black" points="133.33,-230.22 143.92,-229.77 135.36,-223.52 133.33,-230.22"/>
</g>
<!-- http://purl.org/oseg/ontologies/OTRL#Otrl3 -->
<g id="node10" class="node">
<title>http://purl.org/oseg/ontologies/OTRL#Otrl3</title>
<ellipse fill="none" stroke="#e377c2" cx="52.45" cy="-280.17" rx="38.37" ry="16.03"/>
<text text-anchor="middle" x="52.45" y="-276.47" font-family="Times,serif" font-size="14.00">Otrl3</text>
</g>
<!-- http://purl.org/oseg/ontologies/OTRL#Otrl3&#45;&gt;http://www.w3.org/2002/07/owl#class -->
<g id="edge13" class="edge">
<title>http://purl.org/oseg/ontologies/OTRL#Otrl3&#45;&gt;http://www.w3.org/2002/07/owl#class</title>
<path fill="none" stroke="black" d="M73.6,-266.5C96.08,-251.97 131.88,-228.83 157.8,-212.07"/>
<polygon fill="black" stroke="black" points="160.02,-214.8 166.52,-206.44 156.22,-208.93 160.02,-214.8"/>
<text text-anchor="middle" x="111.2" y="-243.08" font-family="Times,serif" font-size="14.00">a</text>
</g>
<!-- http://purl.org/oseg/ontologies/OTRL#Otrl3&#45;&gt;http://purl.org/oseg/ontologies/OTRL#OTRL -->
<g id="edge15" class="edge">
<title>http://purl.org/oseg/ontologies/OTRL#Otrl3&#45;&gt;http://purl.org/oseg/ontologies/OTRL#OTRL</title>
<path fill="none" stroke="black" d="M82.65,-270.22C98.41,-265.02 117.91,-258.6 135,-252.96"/>
<polygon fill="black" stroke="black" points="136.33,-256.21 144.73,-249.76 134.14,-249.56 136.33,-256.21"/>
</g>
<!-- http://purl.org/oseg/ontologies/OTRL#Odrl3 -->
<g id="node11" class="node">
<title>http://purl.org/oseg/ontologies/OTRL#Odrl3</title>
<ellipse fill="none" stroke="#e377c2" cx="355.46" cy="-91.43" rx="40.11" ry="16.03"/>
<text text-anchor="middle" x="355.46" y="-87.73" font-family="Times,serif" font-size="14.00">Odrl3</text>
</g>
<!-- http://purl.org/oseg/ontologies/OTRL#Odrl3&#45;&gt;http://purl.org/oseg/ontologies/OTRL#ODRL -->
<g id="edge20" class="edge">
<title>http://purl.org/oseg/ontologies/OTRL#Odrl3&#45;&gt;http://purl.org/oseg/ontologies/OTRL#ODRL</title>
<path fill="none" stroke="black" d="M315.11,-90.96C304.9,-90.84 293.8,-90.71 283.11,-90.59"/>
<polygon fill="black" stroke="black" points="283.07,-87.09 273.03,-90.47 282.98,-94.09 283.07,-87.09"/>
</g>
<!-- http://purl.org/oseg/ontologies/OTRL#Odrl3&#45;&gt;http://www.w3.org/2002/07/owl#class -->
<g id="edge3" class="edge">
<title>http://purl.org/oseg/ontologies/OTRL#Odrl3&#45;&gt;http://www.w3.org/2002/07/owl#class</title>
<path fill="none" stroke="black" d="M332.77,-105.12C304.42,-122.23 255.66,-151.65 223.07,-171.31"/>
<polygon fill="black" stroke="black" points="221.09,-168.42 214.34,-176.58 224.71,-174.41 221.09,-168.42"/>
<text text-anchor="middle" x="273.42" y="-127.02" font-family="Times,serif" font-size="14.00">a</text>
</g>
<!-- http://purl.org/oseg/ontologies/OTRL#Otrl -->
<g id="node12" class="node">
<title>http://purl.org/oseg/ontologies/OTRL#Otrl</title>
<ellipse fill="none" stroke="#e377c2" cx="74.24" cy="-142.64" rx="31.64" ry="16.03"/>
<text text-anchor="middle" x="74.24" y="-138.94" font-family="Times,serif" font-size="14.00">Otrl</text>
</g>
<!-- http://purl.org/oseg/ontologies/OTRL#Odrl1 -->
<g id="node13" class="node">
<title>http://purl.org/oseg/ontologies/OTRL#Odrl1</title>
<ellipse fill="none" stroke="#e377c2" cx="131.14" cy="-16.36" rx="40.11" ry="16.03"/>
<text text-anchor="middle" x="131.14" y="-12.66" font-family="Times,serif" font-size="14.00">Odrl1</text>
</g>
<!-- http://purl.org/oseg/ontologies/OTRL#Odrl1&#45;&gt;http://purl.org/oseg/ontologies/OTRL#ODRL -->
<g id="edge4" class="edge">
<title>http://purl.org/oseg/ontologies/OTRL#Odrl1&#45;&gt;http://purl.org/oseg/ontologies/OTRL#ODRL</title>
<path fill="none" stroke="black" d="M150.9,-30.91C165.83,-41.9 186.53,-57.13 203.17,-69.38"/>
<polygon fill="black" stroke="black" points="201.32,-72.36 211.44,-75.47 205.47,-66.72 201.32,-72.36"/>
</g>
<!-- http://purl.org/oseg/ontologies/OTRL#Odrl1&#45;&gt;http://www.w3.org/2002/07/owl#class -->
<g id="edge18" class="edge">
<title>http://purl.org/oseg/ontologies/OTRL#Odrl1&#45;&gt;http://www.w3.org/2002/07/owl#class</title>
<path fill="none" stroke="black" d="M136.55,-32.51C146.73,-62.92 168.82,-128.88 181.1,-165.53"/>
<polygon fill="black" stroke="black" points="177.79,-166.67 184.28,-175.04 184.43,-164.45 177.79,-166.67"/>
<text text-anchor="middle" x="154.32" y="-102.82" font-family="Times,serif" font-size="14.00">a</text>
</g>
<!-- http://purl.org/oseg/ontologies/OTRL#Odrl3Star -->
<g id="node14" class="node">
<title>http://purl.org/oseg/ontologies/OTRL#Odrl3Star</title>
<ellipse fill="none" stroke="#e377c2" cx="249.28" cy="-31.52" rx="62.45" ry="16.03"/>
<text text-anchor="middle" x="249.28" y="-27.82" font-family="Times,serif" font-size="14.00">Odrl3Star</text>
</g>
<!-- http://purl.org/oseg/ontologies/OTRL#Odrl3Star&#45;&gt;http://purl.org/oseg/ontologies/OTRL#ODRL -->
<g id="edge16" class="edge">
<title>http://purl.org/oseg/ontologies/OTRL#Odrl3Star&#45;&gt;http://purl.org/oseg/ontologies/OTRL#ODRL</title>
<path fill="none" stroke="black" d="M244.23,-47.8C242.66,-52.87 240.89,-58.59 239.17,-64.15"/>
<polygon fill="black" stroke="black" points="235.8,-63.2 236.18,-73.79 242.49,-65.27 235.8,-63.2"/>
</g>
<!-- http://purl.org/oseg/ontologies/OTRL#Odrl3Star&#45;&gt;http://www.w3.org/2002/07/owl#class -->
<g id="edge19" class="edge">
<title>http://purl.org/oseg/ontologies/OTRL#Odrl3Star&#45;&gt;http://www.w3.org/2002/07/owl#class</title>
<path fill="none" stroke="black" d="M243.25,-47.73C232.91,-75.5 211.73,-132.39 199.35,-165.65"/>
<polygon fill="black" stroke="black" points="196.02,-164.56 195.82,-175.16 202.58,-167 196.02,-164.56"/>
<text text-anchor="middle" x="216.8" y="-110.49" font-family="Times,serif" font-size="14.00">a</text>
</g>
<!-- http://purl.org/oseg/ontologies/OTRL#goal -->
<g id="node15" class="node">
<title>http://purl.org/oseg/ontologies/OTRL#goal</title>
<ellipse fill="none" stroke="#e377c2" cx="535.09" cy="-371.84" rx="33.47" ry="16.03"/>
<text text-anchor="middle" x="535.09" y="-368.14" font-family="Times,serif" font-size="14.00">goal</text>
</g>
<!-- http://purl.org/oseg/ontologies/OTRL#goal&#45;&gt;http://schema.org/Text -->
<g id="edge24" class="edge">
<title>http://purl.org/oseg/ontologies/OTRL#goal&#45;&gt;http://schema.org/Text</title>
<path fill="none" stroke="black" d="M515.08,-358.73C511.98,-356.71 508.72,-354.57 505.44,-352.42"/>
<polygon fill="black" stroke="black" points="507.09,-349.32 496.8,-346.76 503.25,-355.17 507.09,-349.32"/>
<text text-anchor="middle" x="531.26" y="-344.38" font-family="Times,serif" font-size="14.00">range</text>
</g>
<!-- http://purl.org/oseg/ontologies/OTRL#Otrl2 -->
<g id="node16" class="node">
<title>http://purl.org/oseg/ontologies/OTRL#Otrl2</title>
<ellipse fill="none" stroke="#e377c2" cx="290.43" cy="-143.31" rx="38.37" ry="16.03"/>
<text text-anchor="middle" x="290.43" y="-139.61" font-family="Times,serif" font-size="14.00">Otrl2</text>
</g>
<!-- http://purl.org/oseg/ontologies/OTRL#Otrl2&#45;&gt;http://www.w3.org/2002/07/owl#class -->
<g id="edge7" class="edge">
<title>http://purl.org/oseg/ontologies/OTRL#Otrl2&#45;&gt;http://www.w3.org/2002/07/owl#class</title>
<path fill="none" stroke="black" d="M264.77,-155.57C253.72,-160.85 240.56,-167.14 228.38,-172.96"/>
<polygon fill="black" stroke="black" points="226.82,-169.83 219.3,-177.3 229.83,-176.14 226.82,-169.83"/>
<text text-anchor="middle" x="242.07" y="-153.07" font-family="Times,serif" font-size="14.00">a</text>
</g>
<!-- http://purl.org/oseg/ontologies/OTRL#Otrl2&#45;&gt;http://purl.org/oseg/ontologies/OTRL#OTRL -->
<g id="edge1" class="edge">
<title>http://purl.org/oseg/ontologies/OTRL#Otrl2&#45;&gt;http://purl.org/oseg/ontologies/OTRL#OTRL</title>
<path fill="none" stroke="black" d="M273.03,-157.92C253.95,-173.95 223.13,-199.83 201.34,-218.13"/>
<polygon fill="black" stroke="black" points="198.88,-215.63 193.47,-224.74 203.38,-220.99 198.88,-215.63"/>
</g>
<!-- http://purl.org/oseg/ontologies/OTRL#Odrl4 -->
<g id="node17" class="node">
<title>http://purl.org/oseg/ontologies/OTRL#Odrl4</title>
<ellipse fill="none" stroke="#e377c2" cx="83.15" cy="-72.6" rx="40.11" ry="16.03"/>
<text text-anchor="middle" x="83.15" y="-68.9" font-family="Times,serif" font-size="14.00">Odrl4</text>
</g>
<!-- http://purl.org/oseg/ontologies/OTRL#Odrl4&#45;&gt;http://purl.org/oseg/ontologies/OTRL#ODRL -->
<g id="edge6" class="edge">
<title>http://purl.org/oseg/ontologies/OTRL#Odrl4&#45;&gt;http://purl.org/oseg/ontologies/OTRL#ODRL</title>
<path fill="none" stroke="black" d="M122.04,-77.17C140.04,-79.28 161.66,-81.82 180.89,-84.08"/>
<polygon fill="black" stroke="black" points="180.65,-87.58 190.99,-85.27 181.46,-80.63 180.65,-87.58"/>
</g>
<!-- http://purl.org/oseg/ontologies/OTRL#Odrl4&#45;&gt;http://www.w3.org/2002/07/owl#class -->
<g id="edge22" class="edge">
<title>http://purl.org/oseg/ontologies/OTRL#Odrl4&#45;&gt;http://www.w3.org/2002/07/owl#class</title>
<path fill="none" stroke="black" d="M97.08,-88.13C115.34,-108.48 147.52,-144.33 168.74,-167.98"/>
<polygon fill="black" stroke="black" points="166.2,-170.39 175.48,-175.49 171.41,-165.71 166.2,-170.39"/>
<text text-anchor="middle" x="128.41" y="-131.86" font-family="Times,serif" font-size="14.00">a</text>
</g>
<!-- http://purl.org/oseg/ontologies/OTRL#Odrl2 -->
<g id="node18" class="node">
<title>http://purl.org/oseg/ontologies/OTRL#Odrl2</title>
<ellipse fill="none" stroke="#e377c2" cx="364.56" cy="-193.56" rx="40.11" ry="16.03"/>
<text text-anchor="middle" x="364.56" y="-189.86" font-family="Times,serif" font-size="14.00">Odrl2</text>
</g>
<!-- http://purl.org/oseg/ontologies/OTRL#Odrl2&#45;&gt;http://purl.org/oseg/ontologies/OTRL#ODRL -->
<g id="edge8" class="edge">
<title>http://purl.org/oseg/ontologies/OTRL#Odrl2&#45;&gt;http://purl.org/oseg/ontologies/OTRL#ODRL</title>
<path fill="none" stroke="black" d="M345.73,-178.94C322.79,-161.13 283.88,-130.92 257.86,-110.71"/>
<polygon fill="black" stroke="black" points="259.94,-107.9 249.9,-104.53 255.65,-113.43 259.94,-107.9"/>
</g>
<!-- http://purl.org/oseg/ontologies/OTRL#Odrl2&#45;&gt;http://www.w3.org/2002/07/owl#class -->
<g id="edge9" class="edge">
<title>http://purl.org/oseg/ontologies/OTRL#Odrl2&#45;&gt;http://www.w3.org/2002/07/owl#class</title>
<path fill="none" stroke="black" d="M324.02,-193.06C304.26,-192.82 279.95,-192.52 257.48,-192.24"/>
<polygon fill="black" stroke="black" points="257.35,-188.74 247.3,-192.12 257.26,-195.74 257.35,-188.74"/>
<text text-anchor="middle" x="286.25" y="-196.45" font-family="Times,serif" font-size="14.00">a</text>
</g>
<!-- http://purl.org/oseg/ontologies/OTRL#Otrl4 -->
<g id="node19" class="node">
<title>http://purl.org/oseg/ontologies/OTRL#Otrl4</title>
<ellipse fill="none" stroke="#e377c2" cx="295.43" cy="-312.76" rx="38.37" ry="16.03"/>
<text text-anchor="middle" x="295.43" y="-309.06" font-family="Times,serif" font-size="14.00">Otrl4</text>
</g>
<!-- http://purl.org/oseg/ontologies/OTRL#Otrl4&#45;&gt;http://www.w3.org/2002/07/owl#class -->
<g id="edge23" class="edge">
<title>http://purl.org/oseg/ontologies/OTRL#Otrl4&#45;&gt;http://www.w3.org/2002/07/owl#class</title>
<path fill="none" stroke="black" d="M282.04,-297.39C263.98,-276.65 231.63,-239.5 210.43,-215.15"/>
<polygon fill="black" stroke="black" points="212.92,-212.67 203.71,-207.42 207.64,-217.26 212.92,-212.67"/>
<text text-anchor="middle" x="241.74" y="-260.07" font-family="Times,serif" font-size="14.00">a</text>
</g>
<!-- http://purl.org/oseg/ontologies/OTRL#Otrl4&#45;&gt;http://purl.org/oseg/ontologies/OTRL#OTRL -->
<g id="edge17" class="edge">
<title>http://purl.org/oseg/ontologies/OTRL#Otrl4&#45;&gt;http://purl.org/oseg/ontologies/OTRL#OTRL</title>
<path fill="none" stroke="black" d="M273.5,-299.32C254.75,-287.83 227.56,-271.15 206.64,-258.32"/>
<polygon fill="black" stroke="black" points="208.45,-255.33 198.1,-253.08 204.79,-261.3 208.45,-255.33"/>
</g>
</g>
</svg>
