<?xml version="1.0" encoding="UTF-8" standalone="no"?>
<!DOCTYPE svg PUBLIC "-//W3C//DTD SVG 1.1//EN"
 "http://www.w3.org/Graphics/SVG/1.1/DTD/svg11.dtd">
<!-- Generated by graphviz version 2.43.0 (0)
 -->
<!-- Title: G Pages: 1 -->
<svg width="999pt" height="881pt"
 viewBox="0.00 0.00 999.05 881.00" xmlns="http://www.w3.org/2000/svg" xmlns:xlink="http://www.w3.org/1999/xlink">
<g id="graph0" class="graph" transform="scale(1 1) rotate(0) translate(4 877)">
<title>G</title>
<polygon fill="white" stroke="transparent" points="-4,4 -4,-877 995.05,-877 995.05,4 -4,4"/>
<!-- http://purl.org/oseg/ontologies/OTRL#ODRL -->
<g id="node1" class="node">
<title>http://purl.org/oseg/ontologies/OTRL#ODRL</title>
<ellipse fill="none" stroke="#e377c2" cx="719.6" cy="-133.56" rx="41.94" ry="16.03"/>
<text text-anchor="middle" x="719.6" y="-129.86" font-family="Times,serif" font-size="14.00">ODRL</text>
</g>
<!-- http://www.w3.org/2002/07/owl#class -->
<g id="node3" class="node">
<title>http://www.w3.org/2002/07/owl#class</title>
<ellipse fill="none" stroke="#1f77b4" cx="591.51" cy="-278.15" rx="57.05" ry="16.03"/>
<text text-anchor="middle" x="591.51" y="-274.45" font-family="Times,serif" font-size="14.00">owl:class</text>
</g>
<!-- http://purl.org/oseg/ontologies/OTRL#ODRL&#45;&gt;http://www.w3.org/2002/07/owl#class -->
<g id="edge22" class="edge">
<title>http://purl.org/oseg/ontologies/OTRL#ODRL&#45;&gt;http://www.w3.org/2002/07/owl#class</title>
<path fill="none" stroke="black" d="M705.89,-149.03C683.48,-174.34 638.83,-224.73 612.43,-254.53"/>
<polygon fill="black" stroke="black" points="609.52,-252.54 605.5,-262.35 614.76,-257.19 609.52,-252.54"/>
<text text-anchor="middle" x="654.66" y="-205.58" font-family="Times,serif" font-size="14.00">a</text>
</g>
<!-- http://purl.org/oseg/ontologies/OTRL#OTRL -->
<g id="node2" class="node">
<title>http://purl.org/oseg/ontologies/OTRL#OTRL</title>
<ellipse fill="none" stroke="#e377c2" cx="418.25" cy="-468.4" rx="39.7" ry="16.03"/>
<text text-anchor="middle" x="418.25" y="-464.7" font-family="Times,serif" font-size="14.00">OTRL</text>
</g>
<!-- http://purl.org/oseg/ontologies/OTRL#OTRL&#45;&gt;http://www.w3.org/2002/07/owl#class -->
<g id="edge26" class="edge">
<title>http://purl.org/oseg/ontologies/OTRL#OTRL&#45;&gt;http://www.w3.org/2002/07/owl#class</title>
<path fill="none" stroke="black" d="M432.13,-453.15C462.27,-420.06 533.86,-341.45 569.94,-301.84"/>
<polygon fill="black" stroke="black" points="572.92,-303.76 577.07,-294 567.75,-299.04 572.92,-303.76"/>
<text text-anchor="middle" x="496.53" y="-381.29" font-family="Times,serif" font-size="14.00">a</text>
</g>
<!-- http://purl.org/oseg/ontologies/OTRL#ODRL&#45;3 -->
<g id="node4" class="node">
<title>http://purl.org/oseg/ontologies/OTRL#ODRL&#45;3</title>
<ellipse fill="none" stroke="#e377c2" cx="628.56" cy="-16.31" rx="50.82" ry="16.03"/>
<text text-anchor="middle" x="628.56" y="-12.61" font-family="Times,serif" font-size="14.00">ODRL&#45;3</text>
</g>
<!-- http://purl.org/oseg/ontologies/OTRL#ODRL&#45;3&#45;&gt;http://purl.org/oseg/ontologies/OTRL#ODRL -->
<g id="edge37" class="edge">
<title>http://purl.org/oseg/ontologies/OTRL#ODRL&#45;3&#45;&gt;http://purl.org/oseg/ontologies/OTRL#ODRL</title>
<path fill="none" stroke="black" d="M640.84,-32.12C656.32,-52.05 683.06,-86.5 701.04,-109.65"/>
<polygon fill="black" stroke="black" points="698.33,-111.87 707.23,-117.62 703.86,-107.58 698.33,-111.87"/>
</g>
<!-- http://purl.org/oseg/ontologies/OTRL#ODRL&#45;3&#45;&gt;http://www.w3.org/2002/07/owl#class -->
<g id="edge1" class="edge">
<title>http://purl.org/oseg/ontologies/OTRL#ODRL&#45;3&#45;&gt;http://www.w3.org/2002/07/owl#class</title>
<path fill="none" stroke="black" d="M626.24,-32.69C620.02,-76.68 602.89,-197.72 595.26,-251.64"/>
<polygon fill="black" stroke="black" points="591.76,-251.39 593.82,-261.78 598.69,-252.37 591.76,-251.39"/>
<text text-anchor="middle" x="606.25" y="-145.96" font-family="Times,serif" font-size="14.00">a</text>
</g>
<!-- http://purl.org/oseg/ontologies/OTRL#OTRL&#45;5 -->
<g id="node5" class="node">
<title>http://purl.org/oseg/ontologies/OTRL#OTRL&#45;5</title>
<ellipse fill="none" stroke="#e377c2" cx="642.02" cy="-517.99" rx="49.49" ry="16.03"/>
<text text-anchor="middle" x="642.02" y="-514.29" font-family="Times,serif" font-size="14.00">OTRL&#45;5</text>
</g>
<!-- http://purl.org/oseg/ontologies/OTRL#OTRL&#45;5&#45;&gt;http://purl.org/oseg/ontologies/OTRL#OTRL -->
<g id="edge3" class="edge">
<title>http://purl.org/oseg/ontologies/OTRL#OTRL&#45;5&#45;&gt;http://purl.org/oseg/ontologies/OTRL#OTRL</title>
<path fill="none" stroke="black" d="M600.98,-508.9C561.9,-500.23 503.22,-487.23 462.96,-478.31"/>
<polygon fill="black" stroke="black" points="463.67,-474.88 453.15,-476.13 462.16,-481.71 463.67,-474.88"/>
</g>
<!-- http://purl.org/oseg/ontologies/OTRL#OTRL&#45;5&#45;&gt;http://www.w3.org/2002/07/owl#class -->
<g id="edge2" class="edge">
<title>http://purl.org/oseg/ontologies/OTRL#OTRL&#45;5&#45;&gt;http://www.w3.org/2002/07/owl#class</title>
<path fill="none" stroke="black" d="M638.55,-501.51C629.93,-460.59 607.5,-354.1 597.04,-304.41"/>
<polygon fill="black" stroke="black" points="600.42,-303.5 594.94,-294.43 593.57,-304.94 600.42,-303.5"/>
<text text-anchor="middle" x="613.29" y="-391.76" font-family="Times,serif" font-size="14.00">a</text>
</g>
<!-- http://purl.org/oseg/ontologies/OTRL#OTRL&#45;6 -->
<g id="node6" class="node">
<title>http://purl.org/oseg/ontologies/OTRL#OTRL&#45;6</title>
<ellipse fill="none" stroke="#e377c2" cx="390.55" cy="-245.69" rx="49.49" ry="16.03"/>
<text text-anchor="middle" x="390.55" y="-241.99" font-family="Times,serif" font-size="14.00">OTRL&#45;6</text>
</g>
<!-- http://purl.org/oseg/ontologies/OTRL#OTRL&#45;6&#45;&gt;http://purl.org/oseg/ontologies/OTRL#OTRL -->
<g id="edge38" class="edge">
<title>http://purl.org/oseg/ontologies/OTRL#OTRL&#45;6&#45;&gt;http://purl.org/oseg/ontologies/OTRL#OTRL</title>
<path fill="none" stroke="black" d="M392.58,-262.07C397.33,-300.2 409.14,-395.19 414.94,-441.78"/>
<polygon fill="black" stroke="black" points="411.5,-442.51 416.21,-452 418.45,-441.64 411.5,-442.51"/>
</g>
<!-- http://purl.org/oseg/ontologies/OTRL#OTRL&#45;6&#45;&gt;http://www.w3.org/2002/07/owl#class -->
<g id="edge25" class="edge">
<title>http://purl.org/oseg/ontologies/OTRL#OTRL&#45;6&#45;&gt;http://www.w3.org/2002/07/owl#class</title>
<path fill="none" stroke="black" d="M435.15,-252.9C463.4,-257.46 500.31,-263.42 531.17,-268.41"/>
<polygon fill="black" stroke="black" points="530.95,-271.92 541.38,-270.05 532.06,-265 530.95,-271.92"/>
<text text-anchor="middle" x="478.66" y="-249.45" font-family="Times,serif" font-size="14.00">a</text>
</g>
<!-- http://schema.org/Text -->
<g id="node7" class="node">
<title>http://schema.org/Text</title>
<ellipse fill="none" stroke="#e377c2" cx="103.24" cy="-856.49" rx="74.91" ry="16.03"/>
<text text-anchor="middle" x="103.24" y="-852.79" font-family="Times,serif" font-size="14.00">schema:Text</text>
</g>
<!-- http://purl.org/oseg/ontologies/OTRL#OTRL&#45;2 -->
<g id="node8" class="node">
<title>http://purl.org/oseg/ontologies/OTRL#OTRL&#45;2</title>
<ellipse fill="none" stroke="#e377c2" cx="667.6" cy="-470.06" rx="49.49" ry="16.03"/>
<text text-anchor="middle" x="667.6" y="-466.36" font-family="Times,serif" font-size="14.00">OTRL&#45;2</text>
</g>
<!-- http://purl.org/oseg/ontologies/OTRL#OTRL&#45;2&#45;&gt;http://purl.org/oseg/ontologies/OTRL#OTRL -->
<g id="edge11" class="edge">
<title>http://purl.org/oseg/ontologies/OTRL#OTRL&#45;2&#45;&gt;http://purl.org/oseg/ontologies/OTRL#OTRL</title>
<path fill="none" stroke="black" d="M618.03,-469.73C574.51,-469.44 511.52,-469.02 467.96,-468.73"/>
<polygon fill="black" stroke="black" points="467.9,-465.23 457.87,-468.66 467.85,-472.23 467.9,-465.23"/>
</g>
<!-- http://purl.org/oseg/ontologies/OTRL#OTRL&#45;2&#45;&gt;http://www.w3.org/2002/07/owl#class -->
<g id="edge6" class="edge">
<title>http://purl.org/oseg/ontologies/OTRL#OTRL&#45;2&#45;&gt;http://www.w3.org/2002/07/owl#class</title>
<path fill="none" stroke="black" d="M661.11,-453.69C647.86,-420.27 617.59,-343.94 601.69,-303.84"/>
<polygon fill="black" stroke="black" points="604.92,-302.48 597.98,-294.47 598.41,-305.06 604.92,-302.48"/>
<text text-anchor="middle" x="626.9" y="-382.57" font-family="Times,serif" font-size="14.00">a</text>
</g>
<!-- http://purl.org/oseg/ontologies/OTRL -->
<g id="node9" class="node">
<title>http://purl.org/oseg/ontologies/OTRL</title>
<ellipse fill="none" stroke="#e377c2" cx="809.24" cy="-628.64" rx="60.62" ry="16.03"/>
<text text-anchor="middle" x="809.24" y="-624.94" font-family="Times,serif" font-size="14.00">ns1:OTRL</text>
</g>
<!-- http://purl.org/oseg/ontologies/OTRL&#45;&gt;http://purl.org/oseg/ontologies/OTRL -->
<g id="edge9" class="edge">
<title>http://purl.org/oseg/ontologies/OTRL&#45;&gt;http://purl.org/oseg/ontologies/OTRL</title>
<path fill="none" stroke="black" d="M864.84,-635.27C878.17,-634.75 888.05,-632.54 888.05,-628.64 888.05,-625.81 882.83,-623.86 874.87,-622.81"/>
<polygon fill="black" stroke="black" points="875.09,-619.32 864.84,-622.01 874.53,-626.3 875.09,-619.32"/>
<text text-anchor="middle" x="939.55" y="-624.94" font-family="Times,serif" font-size="14.00">owl:versionIRI</text>
</g>
<!-- http://purl.org/oseg/ontologies/OTRL#ODRL&#45;1 -->
<g id="node10" class="node">
<title>http://purl.org/oseg/ontologies/OTRL#ODRL&#45;1</title>
<ellipse fill="none" stroke="#e377c2" cx="741.91" cy="-59.62" rx="50.82" ry="16.03"/>
<text text-anchor="middle" x="741.91" y="-55.92" font-family="Times,serif" font-size="14.00">ODRL&#45;1</text>
</g>
<!-- http://purl.org/oseg/ontologies/OTRL#ODRL&#45;1&#45;&gt;http://purl.org/oseg/ontologies/OTRL#ODRL -->
<g id="edge33" class="edge">
<title>http://purl.org/oseg/ontologies/OTRL#ODRL&#45;1&#45;&gt;http://purl.org/oseg/ontologies/OTRL#ODRL</title>
<path fill="none" stroke="black" d="M736.96,-76.03C734.19,-85.22 730.67,-96.89 727.52,-107.32"/>
<polygon fill="black" stroke="black" points="724.08,-106.61 724.54,-117.19 730.78,-108.63 724.08,-106.61"/>
</g>
<!-- http://purl.org/oseg/ontologies/OTRL#ODRL&#45;1&#45;&gt;http://www.w3.org/2002/07/owl#class -->
<g id="edge8" class="edge">
<title>http://purl.org/oseg/ontologies/OTRL#ODRL&#45;1&#45;&gt;http://www.w3.org/2002/07/owl#class</title>
<path fill="none" stroke="black" d="M730.85,-75.69C704.78,-113.58 639.32,-208.68 608.3,-253.75"/>
<polygon fill="black" stroke="black" points="605.37,-251.84 602.58,-262.06 611.13,-255.81 605.37,-251.84"/>
<text text-anchor="middle" x="665.08" y="-168.52" font-family="Times,serif" font-size="14.00">a</text>
</g>
<!-- http://purl.org/oseg/ontologies/OTRL#ODRL&#45;0 -->
<g id="node11" class="node">
<title>http://purl.org/oseg/ontologies/OTRL#ODRL&#45;0</title>
<ellipse fill="none" stroke="#e377c2" cx="822.38" cy="-136.31" rx="50.82" ry="16.03"/>
<text text-anchor="middle" x="822.38" y="-132.61" font-family="Times,serif" font-size="14.00">ODRL&#45;0</text>
</g>
<!-- http://purl.org/oseg/ontologies/OTRL#ODRL&#45;0&#45;&gt;http://purl.org/oseg/ontologies/OTRL#ODRL -->
<g id="edge15" class="edge">
<title>http://purl.org/oseg/ontologies/OTRL#ODRL&#45;0&#45;&gt;http://purl.org/oseg/ontologies/OTRL#ODRL</title>
<path fill="none" stroke="black" d="M771.59,-134.95C771.48,-134.95 771.38,-134.94 771.27,-134.94"/>
<polygon fill="black" stroke="black" points="771.42,-131.44 761.33,-134.67 771.23,-138.44 771.42,-131.44"/>
</g>
<!-- http://purl.org/oseg/ontologies/OTRL#ODRL&#45;0&#45;&gt;http://www.w3.org/2002/07/owl#class -->
<g id="edge28" class="edge">
<title>http://purl.org/oseg/ontologies/OTRL#ODRL&#45;0&#45;&gt;http://www.w3.org/2002/07/owl#class</title>
<path fill="none" stroke="black" d="M798.54,-150.95C756.98,-176.49 671.2,-229.19 624.15,-258.09"/>
<polygon fill="black" stroke="black" points="622.25,-255.16 615.56,-263.37 625.91,-261.12 622.25,-255.16"/>
<text text-anchor="middle" x="706.85" y="-208.32" font-family="Times,serif" font-size="14.00">a</text>
</g>
<!-- http://purl.org/oseg/ontologies/OTRL#OTRL&#45;3 -->
<g id="node12" class="node">
<title>http://purl.org/oseg/ontologies/OTRL#OTRL&#45;3</title>
<ellipse fill="none" stroke="#e377c2" cx="377.21" cy="-334.65" rx="49.49" ry="16.03"/>
<text text-anchor="middle" x="377.21" y="-330.95" font-family="Times,serif" font-size="14.00">OTRL&#45;3</text>
</g>
<!-- http://purl.org/oseg/ontologies/OTRL#OTRL&#45;3&#45;&gt;http://purl.org/oseg/ontologies/OTRL#OTRL -->
<g id="edge21" class="edge">
<title>http://purl.org/oseg/ontologies/OTRL#OTRL&#45;3&#45;&gt;http://purl.org/oseg/ontologies/OTRL#OTRL</title>
<path fill="none" stroke="black" d="M382.25,-351.05C389.23,-373.81 401.93,-415.23 410.23,-442.27"/>
<polygon fill="black" stroke="black" points="406.89,-443.33 413.17,-451.86 413.59,-441.28 406.89,-443.33"/>
</g>
<!-- http://purl.org/oseg/ontologies/OTRL#OTRL&#45;3&#45;&gt;http://www.w3.org/2002/07/owl#class -->
<g id="edge10" class="edge">
<title>http://purl.org/oseg/ontologies/OTRL#OTRL&#45;3&#45;&gt;http://www.w3.org/2002/07/owl#class</title>
<path fill="none" stroke="black" d="M416.02,-324.42C450.56,-315.31 501.37,-301.92 539.44,-291.88"/>
<polygon fill="black" stroke="black" points="540.54,-295.21 549.32,-289.27 538.76,-288.44 540.54,-295.21"/>
<text text-anchor="middle" x="473.23" y="-311.95" font-family="Times,serif" font-size="14.00">a</text>
</g>
<!-- http://purl.org/oseg/ontologies/OTRL#documentationDescription -->
<g id="node13" class="node">
<title>http://purl.org/oseg/ontologies/OTRL#documentationDescription</title>
<ellipse fill="none" stroke="#e377c2" cx="120.91" cy="-562.88" rx="120.83" ry="16.03"/>
<text text-anchor="middle" x="120.91" y="-559.18" font-family="Times,serif" font-size="14.00">documentationDesc...</text>
</g>
<!-- http://purl.org/oseg/ontologies/OTRL#documentationDescription&#45;&gt;http://purl.org/oseg/ontologies/OTRL#OTRL -->
<g id="edge7" class="edge">
<title>http://purl.org/oseg/ontologies/OTRL#documentationDescription&#45;&gt;http://purl.org/oseg/ontologies/OTRL#OTRL</title>
<path fill="none" stroke="black" d="M168.35,-547.8C225.92,-529.51 322.07,-498.96 376.8,-481.57"/>
<polygon fill="black" stroke="black" points="378.04,-484.84 386.51,-478.48 375.92,-478.17 378.04,-484.84"/>
<text text-anchor="middle" x="246.07" y="-518.49" font-family="Times,serif" font-size="14.00">domain</text>
</g>
<!-- http://purl.org/oseg/ontologies/OTRL#documentationDescription&#45;&gt;http://schema.org/Text -->
<g id="edge27" class="edge">
<title>http://purl.org/oseg/ontologies/OTRL#documentationDescription&#45;&gt;http://schema.org/Text</title>
<path fill="none" stroke="black" d="M119.91,-579.51C116.98,-628.16 108.41,-770.53 104.84,-829.95"/>
<polygon fill="black" stroke="black" points="101.34,-829.85 104.23,-840.04 108.32,-830.27 101.34,-829.85"/>
<text text-anchor="middle" x="91.37" y="-708.53" font-family="Times,serif" font-size="14.00">range</text>
</g>
<!-- http://purl.org/oseg/ontologies/OTRL#OTRL&#45;4 -->
<g id="node14" class="node">
<title>http://purl.org/oseg/ontologies/OTRL#OTRL&#45;4</title>
<ellipse fill="none" stroke="#e377c2" cx="565.1" cy="-424.18" rx="49.49" ry="16.03"/>
<text text-anchor="middle" x="565.1" y="-420.48" font-family="Times,serif" font-size="14.00">OTRL&#45;4</text>
</g>
<!-- http://purl.org/oseg/ontologies/OTRL#OTRL&#45;4&#45;&gt;http://purl.org/oseg/ontologies/OTRL#OTRL -->
<g id="edge23" class="edge">
<title>http://purl.org/oseg/ontologies/OTRL#OTRL&#45;4&#45;&gt;http://purl.org/oseg/ontologies/OTRL#OTRL</title>
<path fill="none" stroke="black" d="M528.42,-435.22C507.74,-441.45 481.82,-449.26 460.31,-455.73"/>
<polygon fill="black" stroke="black" points="459.03,-452.46 450.47,-458.7 461.05,-459.16 459.03,-452.46"/>
</g>
<!-- http://purl.org/oseg/ontologies/OTRL#OTRL&#45;4&#45;&gt;http://www.w3.org/2002/07/owl#class -->
<g id="edge30" class="edge">
<title>http://purl.org/oseg/ontologies/OTRL#OTRL&#45;4&#45;&gt;http://www.w3.org/2002/07/owl#class</title>
<path fill="none" stroke="black" d="M568.08,-407.71C572.59,-382.73 581.22,-335 586.66,-304.97"/>
<polygon fill="black" stroke="black" points="590.16,-305.25 588.5,-294.78 583.27,-304 590.16,-305.25"/>
<text text-anchor="middle" x="572.87" y="-360.14" font-family="Times,serif" font-size="14.00">a</text>
</g>
<!-- http://purl.org/oseg/ontologies/OTRL#ODRL&#45;5 -->
<g id="node15" class="node">
<title>http://purl.org/oseg/ontologies/OTRL#ODRL&#45;5</title>
<ellipse fill="none" stroke="#e377c2" cx="847.53" cy="-220.94" rx="50.82" ry="16.03"/>
<text text-anchor="middle" x="847.53" y="-217.24" font-family="Times,serif" font-size="14.00">ODRL&#45;5</text>
</g>
<!-- http://purl.org/oseg/ontologies/OTRL#ODRL&#45;5&#45;&gt;http://purl.org/oseg/ontologies/OTRL#ODRL -->
<g id="edge18" class="edge">
<title>http://purl.org/oseg/ontologies/OTRL#ODRL&#45;5&#45;&gt;http://purl.org/oseg/ontologies/OTRL#ODRL</title>
<path fill="none" stroke="black" d="M825.83,-206.12C804.72,-191.7 772.49,-169.68 749.06,-153.68"/>
<polygon fill="black" stroke="black" points="750.79,-150.62 740.56,-147.87 746.84,-156.4 750.79,-150.62"/>
</g>
<!-- http://purl.org/oseg/ontologies/OTRL#ODRL&#45;5&#45;&gt;http://www.w3.org/2002/07/owl#class -->
<g id="edge31" class="edge">
<title>http://purl.org/oseg/ontologies/OTRL#ODRL&#45;5&#45;&gt;http://www.w3.org/2002/07/owl#class</title>
<path fill="none" stroke="black" d="M805.54,-230.32C762.1,-240.03 694.06,-255.23 646.39,-265.89"/>
<polygon fill="black" stroke="black" points="645.53,-262.49 636.54,-268.09 647.06,-269.32 645.53,-262.49"/>
<text text-anchor="middle" x="721.46" y="-251.91" font-family="Times,serif" font-size="14.00">a</text>
</g>
<!-- http://purl.org/oseg/ontologies/OTRL#OTRL&#45;9 -->
<g id="node16" class="node">
<title>http://purl.org/oseg/ontologies/OTRL#OTRL&#45;9</title>
<ellipse fill="none" stroke="#e377c2" cx="436.38" cy="-398.26" rx="49.49" ry="16.03"/>
<text text-anchor="middle" x="436.38" y="-394.56" font-family="Times,serif" font-size="14.00">OTRL&#45;9</text>
</g>
<!-- http://purl.org/oseg/ontologies/OTRL#OTRL&#45;9&#45;&gt;http://purl.org/oseg/ontologies/OTRL#OTRL -->
<g id="edge34" class="edge">
<title>http://purl.org/oseg/ontologies/OTRL#OTRL&#45;9&#45;&gt;http://purl.org/oseg/ontologies/OTRL#OTRL</title>
<path fill="none" stroke="black" d="M432.18,-414.53C430.05,-422.76 427.41,-432.95 425.01,-442.25"/>
<polygon fill="black" stroke="black" points="421.55,-441.66 422.43,-452.22 428.32,-443.41 421.55,-441.66"/>
</g>
<!-- http://purl.org/oseg/ontologies/OTRL#OTRL&#45;9&#45;&gt;http://www.w3.org/2002/07/owl#class -->
<g id="edge12" class="edge">
<title>http://purl.org/oseg/ontologies/OTRL#OTRL&#45;9&#45;&gt;http://www.w3.org/2002/07/owl#class</title>
<path fill="none" stroke="black" d="M456.03,-383.05C483.15,-362.05 532.24,-324.04 563.28,-300"/>
<polygon fill="black" stroke="black" points="565.76,-302.51 571.53,-293.62 561.48,-296.97 565.76,-302.51"/>
<text text-anchor="middle" x="505.16" y="-345.33" font-family="Times,serif" font-size="14.00">a</text>
</g>
<!-- http://purl.org/oseg/ontologies/OTRL#exitCriteria -->
<g id="node17" class="node">
<title>http://purl.org/oseg/ontologies/OTRL#exitCriteria</title>
<ellipse fill="none" stroke="#e377c2" cx="284.68" cy="-689.42" rx="70.01" ry="16.03"/>
<text text-anchor="middle" x="284.68" y="-685.72" font-family="Times,serif" font-size="14.00">exitCriteria</text>
</g>
<!-- http://purl.org/oseg/ontologies/OTRL#exitCriteria&#45;&gt;http://purl.org/oseg/ontologies/OTRL#OTRL -->
<g id="edge29" class="edge">
<title>http://purl.org/oseg/ontologies/OTRL#exitCriteria&#45;&gt;http://purl.org/oseg/ontologies/OTRL#OTRL</title>
<path fill="none" stroke="black" d="M294.51,-673.16C317.67,-634.83 375.83,-538.59 403.36,-493.03"/>
<polygon fill="black" stroke="black" points="406.41,-494.74 408.59,-484.38 400.42,-491.12 406.41,-494.74"/>
<text text-anchor="middle" x="322.43" y="-586.9" font-family="Times,serif" font-size="14.00">domain</text>
</g>
<!-- http://purl.org/oseg/ontologies/OTRL#exitCriteria&#45;&gt;http://schema.org/Text -->
<g id="edge19" class="edge">
<title>http://purl.org/oseg/ontologies/OTRL#exitCriteria&#45;&gt;http://schema.org/Text</title>
<path fill="none" stroke="black" d="M267.29,-705.44C234.91,-735.25 165.31,-799.33 128.03,-833.67"/>
<polygon fill="black" stroke="black" points="125.57,-831.17 120.58,-840.52 130.31,-836.32 125.57,-831.17"/>
<text text-anchor="middle" x="176.66" y="-773.35" font-family="Times,serif" font-size="14.00">range</text>
</g>
<!-- http://purl.org/oseg/ontologies/OTRL#ODRL&#45;4 -->
<g id="node18" class="node">
<title>http://purl.org/oseg/ontologies/OTRL#ODRL&#45;4</title>
<ellipse fill="none" stroke="#e377c2" cx="824.29" cy="-293.51" rx="50.82" ry="16.03"/>
<text text-anchor="middle" x="824.29" y="-289.81" font-family="Times,serif" font-size="14.00">ODRL&#45;4</text>
</g>
<!-- http://purl.org/oseg/ontologies/OTRL#ODRL&#45;4&#45;&gt;http://purl.org/oseg/ontologies/OTRL#ODRL -->
<g id="edge35" class="edge">
<title>http://purl.org/oseg/ontologies/OTRL#ODRL&#45;4&#45;&gt;http://purl.org/oseg/ontologies/OTRL#ODRL</title>
<path fill="none" stroke="black" d="M813.87,-277.59C795.53,-249.56 757.36,-191.25 735.64,-158.06"/>
<polygon fill="black" stroke="black" points="738.39,-155.87 729.98,-149.41 732.53,-159.7 738.39,-155.87"/>
</g>
<!-- http://purl.org/oseg/ontologies/OTRL#ODRL&#45;4&#45;&gt;http://www.w3.org/2002/07/owl#class -->
<g id="edge13" class="edge">
<title>http://purl.org/oseg/ontologies/OTRL#ODRL&#45;4&#45;&gt;http://www.w3.org/2002/07/owl#class</title>
<path fill="none" stroke="black" d="M774.35,-290.22C740.28,-287.97 694.79,-284.97 657.7,-282.52"/>
<polygon fill="black" stroke="black" points="657.69,-279.01 647.48,-281.84 657.23,-286 657.69,-279.01"/>
<text text-anchor="middle" x="711.53" y="-290.17" font-family="Times,serif" font-size="14.00">a</text>
</g>
<!-- http://purl.org/oseg/ontologies/OTRL#ODRL&#45;2 -->
<g id="node19" class="node">
<title>http://purl.org/oseg/ontologies/OTRL#ODRL&#45;2</title>
<ellipse fill="none" stroke="#e377c2" cx="531.81" cy="-61.32" rx="50.82" ry="16.03"/>
<text text-anchor="middle" x="531.81" y="-57.62" font-family="Times,serif" font-size="14.00">ODRL&#45;2</text>
</g>
<!-- http://purl.org/oseg/ontologies/OTRL#ODRL&#45;2&#45;&gt;http://purl.org/oseg/ontologies/OTRL#ODRL -->
<g id="edge39" class="edge">
<title>http://purl.org/oseg/ontologies/OTRL#ODRL&#45;2&#45;&gt;http://purl.org/oseg/ontologies/OTRL#ODRL</title>
<path fill="none" stroke="black" d="M564.52,-73.9C596.66,-86.26 645.73,-105.14 680.04,-118.34"/>
<polygon fill="black" stroke="black" points="679.15,-121.75 689.74,-122.07 681.67,-115.21 679.15,-121.75"/>
</g>
<!-- http://purl.org/oseg/ontologies/OTRL#ODRL&#45;2&#45;&gt;http://www.w3.org/2002/07/owl#class -->
<g id="edge14" class="edge">
<title>http://purl.org/oseg/ontologies/OTRL#ODRL&#45;2&#45;&gt;http://www.w3.org/2002/07/owl#class</title>
<path fill="none" stroke="black" d="M536.29,-77.61C546.56,-114.89 571.82,-206.66 584.3,-251.97"/>
<polygon fill="black" stroke="black" points="580.94,-252.95 586.97,-261.66 587.69,-251.09 580.94,-252.95"/>
<text text-anchor="middle" x="555.8" y="-168.59" font-family="Times,serif" font-size="14.00">a</text>
</g>
<!-- http://purl.org/oseg/ontologies/OTRL#OTRL&#45;7 -->
<g id="node20" class="node">
<title>http://purl.org/oseg/ontologies/OTRL#OTRL&#45;7</title>
<ellipse fill="none" stroke="#e377c2" cx="526.88" cy="-516.31" rx="49.49" ry="16.03"/>
<text text-anchor="middle" x="526.88" y="-512.61" font-family="Times,serif" font-size="14.00">OTRL&#45;7</text>
</g>
<!-- http://purl.org/oseg/ontologies/OTRL#OTRL&#45;7&#45;&gt;http://purl.org/oseg/ontologies/OTRL#OTRL -->
<g id="edge40" class="edge">
<title>http://purl.org/oseg/ontologies/OTRL#OTRL&#45;7&#45;&gt;http://purl.org/oseg/ontologies/OTRL#OTRL</title>
<path fill="none" stroke="black" d="M497.2,-503.22C484.03,-497.41 468.41,-490.52 454.55,-484.41"/>
<polygon fill="black" stroke="black" points="455.85,-481.16 445.29,-480.33 453.03,-487.56 455.85,-481.16"/>
</g>
<!-- http://purl.org/oseg/ontologies/OTRL#OTRL&#45;7&#45;&gt;http://www.w3.org/2002/07/owl#class -->
<g id="edge36" class="edge">
<title>http://purl.org/oseg/ontologies/OTRL#OTRL&#45;7&#45;&gt;http://www.w3.org/2002/07/owl#class</title>
<path fill="none" stroke="black" d="M531.33,-499.94C542.32,-459.41 570.9,-354.08 584.33,-304.58"/>
<polygon fill="black" stroke="black" points="587.79,-305.2 587.03,-294.64 581.04,-303.37 587.79,-305.2"/>
<text text-anchor="middle" x="553.33" y="-391.06" font-family="Times,serif" font-size="14.00">a</text>
</g>
<!-- http://purl.org/oseg/ontologies/OTRL#hardwareDescription -->
<g id="node21" class="node">
<title>http://purl.org/oseg/ontologies/OTRL#hardwareDescription</title>
<ellipse fill="none" stroke="#e377c2" cx="371.41" cy="-785.32" rx="118.17" ry="16.03"/>
<text text-anchor="middle" x="371.41" y="-781.62" font-family="Times,serif" font-size="14.00">hardwareDescription</text>
</g>
<!-- http://purl.org/oseg/ontologies/OTRL#hardwareDescription&#45;&gt;http://purl.org/oseg/ontologies/OTRL#OTRL -->
<g id="edge17" class="edge">
<title>http://purl.org/oseg/ontologies/OTRL#hardwareDescription&#45;&gt;http://purl.org/oseg/ontologies/OTRL#OTRL</title>
<path fill="none" stroke="black" d="M373.87,-768.73C381.52,-716.96 404.99,-558.09 414.34,-494.81"/>
<polygon fill="black" stroke="black" points="417.82,-495.23 415.82,-484.83 410.89,-494.21 417.82,-495.23"/>
<text text-anchor="middle" x="367.6" y="-635.57" font-family="Times,serif" font-size="14.00">domain</text>
</g>
<!-- http://purl.org/oseg/ontologies/OTRL#hardwareDescription&#45;&gt;http://schema.org/Text -->
<g id="edge4" class="edge">
<title>http://purl.org/oseg/ontologies/OTRL#hardwareDescription&#45;&gt;http://schema.org/Text</title>
<path fill="none" stroke="black" d="M316.82,-799.81C271.45,-811.85 207.07,-828.93 160.88,-841.19"/>
<polygon fill="black" stroke="black" points="159.79,-837.86 151.02,-843.81 161.58,-844.63 159.79,-837.86"/>
<text text-anchor="middle" x="217.85" y="-824.3" font-family="Times,serif" font-size="14.00">range</text>
</g>
<!-- http://purl.org/oseg/ontologies/OTRL#OTRL&#45;8 -->
<g id="node22" class="node">
<title>http://purl.org/oseg/ontologies/OTRL#OTRL&#45;8</title>
<ellipse fill="none" stroke="#e377c2" cx="345" cy="-287.37" rx="49.49" ry="16.03"/>
<text text-anchor="middle" x="345" y="-283.67" font-family="Times,serif" font-size="14.00">OTRL&#45;8</text>
</g>
<!-- http://purl.org/oseg/ontologies/OTRL#OTRL&#45;8&#45;&gt;http://purl.org/oseg/ontologies/OTRL#OTRL -->
<g id="edge24" class="edge">
<title>http://purl.org/oseg/ontologies/OTRL#OTRL&#45;8&#45;&gt;http://purl.org/oseg/ontologies/OTRL#OTRL</title>
<path fill="none" stroke="black" d="M351.63,-303.76C364.43,-335.39 392.64,-405.1 407.92,-442.87"/>
<polygon fill="black" stroke="black" points="404.69,-444.22 411.69,-452.18 411.18,-441.6 404.69,-444.22"/>
</g>
<!-- http://purl.org/oseg/ontologies/OTRL#OTRL&#45;8&#45;&gt;http://www.w3.org/2002/07/owl#class -->
<g id="edge20" class="edge">
<title>http://purl.org/oseg/ontologies/OTRL#OTRL&#45;8&#45;&gt;http://www.w3.org/2002/07/owl#class</title>
<path fill="none" stroke="black" d="M394.29,-285.53C431.6,-284.13 483.24,-282.2 524.33,-280.66"/>
<polygon fill="black" stroke="black" points="524.67,-284.15 534.53,-280.28 524.4,-277.16 524.67,-284.15"/>
<text text-anchor="middle" x="454.81" y="-271.9" font-family="Times,serif" font-size="14.00">a</text>
</g>
<!-- http://purl.org/oseg/ontologies/OTRL#softwareDescription -->
<g id="node23" class="node">
<title>http://purl.org/oseg/ontologies/OTRL#softwareDescription</title>
<ellipse fill="none" stroke="#e377c2" cx="179.5" cy="-638.93" rx="113.69" ry="16.03"/>
<text text-anchor="middle" x="179.5" y="-635.23" font-family="Times,serif" font-size="14.00">softwareDescription</text>
</g>
<!-- http://purl.org/oseg/ontologies/OTRL#softwareDescription&#45;&gt;http://purl.org/oseg/ontologies/OTRL#OTRL -->
<g id="edge16" class="edge">
<title>http://purl.org/oseg/ontologies/OTRL#softwareDescription&#45;&gt;http://purl.org/oseg/ontologies/OTRL#OTRL</title>
<path fill="none" stroke="black" d="M201.96,-622.89C245.67,-591.67 342.08,-522.8 390.03,-488.56"/>
<polygon fill="black" stroke="black" points="392.29,-491.24 398.39,-482.58 388.22,-485.54 392.29,-491.24"/>
<text text-anchor="middle" x="269.49" y="-559.52" font-family="Times,serif" font-size="14.00">domain</text>
</g>
<!-- http://purl.org/oseg/ontologies/OTRL#softwareDescription&#45;&gt;http://schema.org/Text -->
<g id="edge5" class="edge">
<title>http://purl.org/oseg/ontologies/OTRL#softwareDescription&#45;&gt;http://schema.org/Text</title>
<path fill="none" stroke="black" d="M173.77,-655.29C160.63,-692.78 128.23,-785.21 112.33,-830.55"/>
<polygon fill="black" stroke="black" points="108.94,-829.65 108.93,-840.24 115.55,-831.97 108.94,-829.65"/>
<text text-anchor="middle" x="122.05" y="-746.72" font-family="Times,serif" font-size="14.00">range</text>
</g>
<!-- http://purl.org/oseg/ontologies/OTRL#OTRL&#45;1 -->
<g id="node24" class="node">
<title>http://purl.org/oseg/ontologies/OTRL#OTRL&#45;1</title>
<ellipse fill="none" stroke="#e377c2" cx="468.45" cy="-290.26" rx="49.49" ry="16.03"/>
<text text-anchor="middle" x="468.45" y="-286.56" font-family="Times,serif" font-size="14.00">OTRL&#45;1</text>
</g>
<!-- http://purl.org/oseg/ontologies/OTRL#OTRL&#45;1&#45;&gt;http://purl.org/oseg/ontologies/OTRL#OTRL -->
<g id="edge32" class="edge">
<title>http://purl.org/oseg/ontologies/OTRL#OTRL&#45;1&#45;&gt;http://purl.org/oseg/ontologies/OTRL#OTRL</title>
<path fill="none" stroke="black" d="M463.81,-306.7C455.07,-337.72 436.08,-405.1 425.59,-442.35"/>
<polygon fill="black" stroke="black" points="422.21,-441.42 422.87,-452 428.95,-443.32 422.21,-441.42"/>
</g>
<!-- http://purl.org/oseg/ontologies/OTRL#OTRL&#45;1&#45;&gt;http://www.w3.org/2002/07/owl#class -->
<g id="edge41" class="edge">
<title>http://purl.org/oseg/ontologies/OTRL#OTRL&#45;1&#45;&gt;http://www.w3.org/2002/07/owl#class</title>
<path fill="none" stroke="black" d="M516.02,-285.58C519.58,-285.23 523.2,-284.87 526.84,-284.51"/>
<polygon fill="black" stroke="black" points="527.48,-287.97 537.09,-283.5 526.79,-281 527.48,-287.97"/>
<text text-anchor="middle" x="525.93" y="-288.84" font-family="Times,serif" font-size="14.00">a</text>
</g>
</g>
</svg>
