<?xml version="1.0" encoding="UTF-8" standalone="no"?>
<!DOCTYPE svg PUBLIC "-//W3C//DTD SVG 1.1//EN"
 "http://www.w3.org/Graphics/SVG/1.1/DTD/svg11.dtd">
<!-- Generated by graphviz version 2.43.0 (0)
 -->
<!-- Title: G Pages: 1 -->
<svg width="981pt" height="874pt"
 viewBox="0.00 0.00 981.00 874.00" xmlns="http://www.w3.org/2000/svg" xmlns:xlink="http://www.w3.org/1999/xlink">
<g id="graph0" class="graph" transform="scale(1 1) rotate(0) translate(4 870)">
<title>G</title>
<polygon fill="white" stroke="transparent" points="-4,4 -4,-870 977,-870 977,4 -4,4"/>
<!-- http://purl.org/oseg/ontologies/OTRL#ODRL -->
<g id="node1" class="node">
<title>http://purl.org/oseg/ontologies/OTRL#ODRL</title>
<ellipse fill="none" stroke="#e377c2" cx="186.71" cy="-158.5" rx="41.94" ry="16.03"/>
<text text-anchor="middle" x="186.71" y="-154.8" font-family="Times,serif" font-size="14.00">ODRL</text>
</g>
<!-- http://www.w3.org/2002/07/owl#class -->
<g id="node3" class="node">
<title>http://www.w3.org/2002/07/owl#class</title>
<ellipse fill="none" stroke="#1f77b4" cx="322.34" cy="-287.15" rx="57.05" ry="16.03"/>
<text text-anchor="middle" x="322.34" y="-283.45" font-family="Times,serif" font-size="14.00">owl:class</text>
</g>
<!-- http://purl.org/oseg/ontologies/OTRL#ODRL&#45;&gt;http://www.w3.org/2002/07/owl#class -->
<g id="edge37" class="edge">
<title>http://purl.org/oseg/ontologies/OTRL#ODRL&#45;&gt;http://www.w3.org/2002/07/owl#class</title>
<path fill="none" stroke="black" d="M202.8,-173.76C226.53,-196.27 271.07,-238.52 298.57,-264.6"/>
<polygon fill="black" stroke="black" points="296.18,-267.16 305.84,-271.5 301,-262.08 296.18,-267.16"/>
<text text-anchor="middle" x="246.19" y="-222.98" font-family="Times,serif" font-size="14.00">a</text>
</g>
<!-- http://purl.org/oseg/ontologies/OTRL#OTRL -->
<g id="node2" class="node">
<title>http://purl.org/oseg/ontologies/OTRL#OTRL</title>
<ellipse fill="none" stroke="#e377c2" cx="526.84" cy="-482.64" rx="39.7" ry="16.03"/>
<text text-anchor="middle" x="526.84" y="-478.94" font-family="Times,serif" font-size="14.00">OTRL</text>
</g>
<!-- http://purl.org/oseg/ontologies/OTRL#OTRL&#45;&gt;http://www.w3.org/2002/07/owl#class -->
<g id="edge36" class="edge">
<title>http://purl.org/oseg/ontologies/OTRL#OTRL&#45;&gt;http://www.w3.org/2002/07/owl#class</title>
<path fill="none" stroke="black" d="M511.13,-467.63C475.47,-433.54 388.23,-350.14 346,-309.77"/>
<polygon fill="black" stroke="black" points="348.31,-307.13 338.66,-302.75 343.47,-312.19 348.31,-307.13"/>
<text text-anchor="middle" x="424.07" y="-392.5" font-family="Times,serif" font-size="14.00">a</text>
</g>
<!-- http://purl.org/oseg/ontologies/OTRL#OTRL&#45;2 -->
<g id="node4" class="node">
<title>http://purl.org/oseg/ontologies/OTRL#OTRL&#45;2</title>
<ellipse fill="none" stroke="#e377c2" cx="238.03" cy="-504.7" rx="49.49" ry="16.03"/>
<text text-anchor="middle" x="238.03" y="-501" font-family="Times,serif" font-size="14.00">OTRL&#45;2</text>
</g>
<!-- http://purl.org/oseg/ontologies/OTRL#OTRL&#45;2&#45;&gt;http://purl.org/oseg/ontologies/OTRL#OTRL -->
<g id="edge6" class="edge">
<title>http://purl.org/oseg/ontologies/OTRL#OTRL&#45;2&#45;&gt;http://purl.org/oseg/ontologies/OTRL#OTRL</title>
<path fill="none" stroke="black" d="M286.37,-501.01C339.37,-496.96 423.94,-490.5 477.38,-486.42"/>
<polygon fill="black" stroke="black" points="477.92,-489.89 487.63,-485.64 477.39,-482.91 477.92,-489.89"/>
</g>
<!-- http://purl.org/oseg/ontologies/OTRL#OTRL&#45;2&#45;&gt;http://www.w3.org/2002/07/owl#class -->
<g id="edge23" class="edge">
<title>http://purl.org/oseg/ontologies/OTRL#OTRL&#45;2&#45;&gt;http://www.w3.org/2002/07/owl#class</title>
<path fill="none" stroke="black" d="M244.37,-488.35C258.93,-450.77 294.87,-358.04 312.4,-312.8"/>
<polygon fill="black" stroke="black" points="315.69,-313.98 316.04,-303.39 309.16,-311.45 315.69,-313.98"/>
<text text-anchor="middle" x="273.88" y="-404.37" font-family="Times,serif" font-size="14.00">a</text>
</g>
<!-- http://purl.org/oseg/ontologies/OTRL#OTRL&#45;5 -->
<g id="node5" class="node">
<title>http://purl.org/oseg/ontologies/OTRL#OTRL&#45;5</title>
<ellipse fill="none" stroke="#e377c2" cx="314.11" cy="-462.11" rx="49.49" ry="16.03"/>
<text text-anchor="middle" x="314.11" y="-458.41" font-family="Times,serif" font-size="14.00">OTRL&#45;5</text>
</g>
<!-- http://purl.org/oseg/ontologies/OTRL#OTRL&#45;5&#45;&gt;http://purl.org/oseg/ontologies/OTRL#OTRL -->
<g id="edge3" class="edge">
<title>http://purl.org/oseg/ontologies/OTRL#OTRL&#45;5&#45;&gt;http://purl.org/oseg/ontologies/OTRL#OTRL</title>
<path fill="none" stroke="black" d="M361.85,-466.72C396.53,-470.06 443.29,-474.58 478.18,-477.94"/>
<polygon fill="black" stroke="black" points="477.85,-481.43 488.14,-478.91 478.52,-474.46 477.85,-481.43"/>
</g>
<!-- http://purl.org/oseg/ontologies/OTRL#OTRL&#45;5&#45;&gt;http://www.w3.org/2002/07/owl#class -->
<g id="edge24" class="edge">
<title>http://purl.org/oseg/ontologies/OTRL#OTRL&#45;5&#45;&gt;http://www.w3.org/2002/07/owl#class</title>
<path fill="none" stroke="black" d="M314.89,-445.65C316.31,-415.35 319.36,-350.51 321.08,-313.84"/>
<polygon fill="black" stroke="black" points="324.6,-313.59 321.57,-303.43 317.6,-313.26 324.6,-313.59"/>
<text text-anchor="middle" x="313.48" y="-383.54" font-family="Times,serif" font-size="14.00">a</text>
</g>
<!-- http://purl.org/oseg/ontologies/OTRL#OTRL&#45;9 -->
<g id="node6" class="node">
<title>http://purl.org/oseg/ontologies/OTRL#OTRL&#45;9</title>
<ellipse fill="none" stroke="#e377c2" cx="412.41" cy="-507.35" rx="49.49" ry="16.03"/>
<text text-anchor="middle" x="412.41" y="-503.65" font-family="Times,serif" font-size="14.00">OTRL&#45;9</text>
</g>
<!-- http://purl.org/oseg/ontologies/OTRL#OTRL&#45;9&#45;&gt;http://purl.org/oseg/ontologies/OTRL#OTRL -->
<g id="edge8" class="edge">
<title>http://purl.org/oseg/ontologies/OTRL#OTRL&#45;9&#45;&gt;http://purl.org/oseg/ontologies/OTRL#OTRL</title>
<path fill="none" stroke="black" d="M454.05,-498.36C462.96,-496.44 472.42,-494.39 481.47,-492.44"/>
<polygon fill="black" stroke="black" points="482.42,-495.82 491.46,-490.28 480.94,-488.97 482.42,-495.82"/>
</g>
<!-- http://purl.org/oseg/ontologies/OTRL#OTRL&#45;9&#45;&gt;http://www.w3.org/2002/07/owl#class -->
<g id="edge4" class="edge">
<title>http://purl.org/oseg/ontologies/OTRL#OTRL&#45;9&#45;&gt;http://www.w3.org/2002/07/owl#class</title>
<path fill="none" stroke="black" d="M405.79,-491.16C390.3,-453.3 351.62,-358.74 332.86,-312.88"/>
<polygon fill="black" stroke="black" points="336,-311.29 328.97,-303.36 329.52,-313.94 336,-311.29"/>
<text text-anchor="middle" x="364.83" y="-405.82" font-family="Times,serif" font-size="14.00">a</text>
</g>
<!-- http://purl.org/oseg/ontologies/OTRL#OTRL&#45;3 -->
<g id="node7" class="node">
<title>http://purl.org/oseg/ontologies/OTRL#OTRL&#45;3</title>
<ellipse fill="none" stroke="#e377c2" cx="567.78" cy="-326.85" rx="49.49" ry="16.03"/>
<text text-anchor="middle" x="567.78" y="-323.15" font-family="Times,serif" font-size="14.00">OTRL&#45;3</text>
</g>
<!-- http://purl.org/oseg/ontologies/OTRL#OTRL&#45;3&#45;&gt;http://purl.org/oseg/ontologies/OTRL#OTRL -->
<g id="edge28" class="edge">
<title>http://purl.org/oseg/ontologies/OTRL#OTRL&#45;3&#45;&gt;http://purl.org/oseg/ontologies/OTRL#OTRL</title>
<path fill="none" stroke="black" d="M563.48,-343.23C556.4,-370.16 542.25,-424.02 533.75,-456.34"/>
<polygon fill="black" stroke="black" points="530.37,-455.45 531.21,-466.02 537.14,-457.23 530.37,-455.45"/>
</g>
<!-- http://purl.org/oseg/ontologies/OTRL#OTRL&#45;3&#45;&gt;http://www.w3.org/2002/07/owl#class -->
<g id="edge7" class="edge">
<title>http://purl.org/oseg/ontologies/OTRL#OTRL&#45;3&#45;&gt;http://www.w3.org/2002/07/owl#class</title>
<path fill="none" stroke="black" d="M523.34,-319.66C483.86,-313.28 425.84,-303.89 382.27,-296.84"/>
<polygon fill="black" stroke="black" points="382.8,-293.38 372.37,-295.24 381.68,-300.29 382.8,-293.38"/>
<text text-anchor="middle" x="448.3" y="-312.05" font-family="Times,serif" font-size="14.00">a</text>
</g>
<!-- http://purl.org/oseg/ontologies/OTRL#documentationDescription -->
<g id="node8" class="node">
<title>http://purl.org/oseg/ontologies/OTRL#documentationDescription</title>
<ellipse fill="none" stroke="#e377c2" cx="687.49" cy="-768.46" rx="120.83" ry="16.03"/>
<text text-anchor="middle" x="687.49" y="-764.76" font-family="Times,serif" font-size="14.00">documentationDesc...</text>
</g>
<!-- http://purl.org/oseg/ontologies/OTRL#documentationDescription&#45;&gt;http://purl.org/oseg/ontologies/OTRL#OTRL -->
<g id="edge39" class="edge">
<title>http://purl.org/oseg/ontologies/OTRL#documentationDescription&#45;&gt;http://purl.org/oseg/ontologies/OTRL#OTRL</title>
<path fill="none" stroke="black" d="M678.16,-751.86C651.19,-703.88 573.04,-564.83 540.9,-507.65"/>
<polygon fill="black" stroke="black" points="543.75,-505.58 535.8,-498.58 537.65,-509.01 543.75,-505.58"/>
<text text-anchor="middle" x="583.03" y="-633.56" font-family="Times,serif" font-size="14.00">domain</text>
</g>
<!-- http://schema.org/Text -->
<g id="node15" class="node">
<title>http://schema.org/Text</title>
<ellipse fill="none" stroke="#e377c2" cx="898.44" cy="-849.53" rx="74.91" ry="16.03"/>
<text text-anchor="middle" x="898.44" y="-845.83" font-family="Times,serif" font-size="14.00">schema:Text</text>
</g>
<!-- http://purl.org/oseg/ontologies/OTRL#documentationDescription&#45;&gt;http://schema.org/Text -->
<g id="edge38" class="edge">
<title>http://purl.org/oseg/ontologies/OTRL#documentationDescription&#45;&gt;http://schema.org/Text</title>
<path fill="none" stroke="black" d="M727.66,-783.9C763,-797.48 814.45,-817.26 851.64,-831.55"/>
<polygon fill="black" stroke="black" points="850.65,-834.92 861.24,-835.24 853.17,-828.38 850.65,-834.92"/>
<text text-anchor="middle" x="768.65" y="-811.52" font-family="Times,serif" font-size="14.00">range</text>
</g>
<!-- http://purl.org/oseg/ontologies/OTRL#ODRL&#45;5 -->
<g id="node9" class="node">
<title>http://purl.org/oseg/ontologies/OTRL#ODRL&#45;5</title>
<ellipse fill="none" stroke="#e377c2" cx="358.79" cy="-37.59" rx="50.82" ry="16.03"/>
<text text-anchor="middle" x="358.79" y="-33.89" font-family="Times,serif" font-size="14.00">ODRL&#45;5</text>
</g>
<!-- http://purl.org/oseg/ontologies/OTRL#ODRL&#45;5&#45;&gt;http://purl.org/oseg/ontologies/OTRL#ODRL -->
<g id="edge32" class="edge">
<title>http://purl.org/oseg/ontologies/OTRL#ODRL&#45;5&#45;&gt;http://purl.org/oseg/ontologies/OTRL#ODRL</title>
<path fill="none" stroke="black" d="M337.69,-52.41C307,-73.98 249.94,-114.07 215.44,-138.32"/>
<polygon fill="black" stroke="black" points="213.35,-135.51 207.18,-144.12 217.37,-141.23 213.35,-135.51"/>
</g>
<!-- http://purl.org/oseg/ontologies/OTRL#ODRL&#45;5&#45;&gt;http://www.w3.org/2002/07/owl#class -->
<g id="edge10" class="edge">
<title>http://purl.org/oseg/ontologies/OTRL#ODRL&#45;5&#45;&gt;http://www.w3.org/2002/07/owl#class</title>
<path fill="none" stroke="black" d="M356.4,-53.96C350.24,-96.18 333.75,-209.01 326.21,-260.67"/>
<polygon fill="black" stroke="black" points="322.72,-260.31 324.74,-270.71 329.65,-261.32 322.72,-260.31"/>
<text text-anchor="middle" x="336.8" y="-161.11" font-family="Times,serif" font-size="14.00">a</text>
</g>
<!-- http://purl.org/oseg/ontologies/OTRL#ODRL&#45;1 -->
<g id="node10" class="node">
<title>http://purl.org/oseg/ontologies/OTRL#ODRL&#45;1</title>
<ellipse fill="none" stroke="#e377c2" cx="155.42" cy="-58.74" rx="50.82" ry="16.03"/>
<text text-anchor="middle" x="155.42" y="-55.04" font-family="Times,serif" font-size="14.00">ODRL&#45;1</text>
</g>
<!-- http://purl.org/oseg/ontologies/OTRL#ODRL&#45;1&#45;&gt;http://purl.org/oseg/ontologies/OTRL#ODRL -->
<g id="edge27" class="edge">
<title>http://purl.org/oseg/ontologies/OTRL#ODRL&#45;1&#45;&gt;http://purl.org/oseg/ontologies/OTRL#ODRL</title>
<path fill="none" stroke="black" d="M160.58,-75.22C165.48,-90.83 172.92,-114.53 178.6,-132.66"/>
<polygon fill="black" stroke="black" points="175.31,-133.84 181.64,-142.34 181.98,-131.75 175.31,-133.84"/>
</g>
<!-- http://purl.org/oseg/ontologies/OTRL#ODRL&#45;1&#45;&gt;http://www.w3.org/2002/07/owl#class -->
<g id="edge11" class="edge">
<title>http://purl.org/oseg/ontologies/OTRL#ODRL&#45;1&#45;&gt;http://www.w3.org/2002/07/owl#class</title>
<path fill="none" stroke="black" d="M167.15,-74.8C195.95,-114.2 270.22,-215.83 304.5,-262.74"/>
<polygon fill="black" stroke="black" points="301.89,-265.09 310.61,-271.1 307.54,-260.96 301.89,-265.09"/>
<text text-anchor="middle" x="240.33" y="-172.57" font-family="Times,serif" font-size="14.00">a</text>
</g>
<!-- http://purl.org/oseg/ontologies/OTRL#exitCriteria -->
<g id="node11" class="node">
<title>http://purl.org/oseg/ontologies/OTRL#exitCriteria</title>
<ellipse fill="none" stroke="#e377c2" cx="745.11" cy="-652.98" rx="70.01" ry="16.03"/>
<text text-anchor="middle" x="745.11" y="-649.28" font-family="Times,serif" font-size="14.00">exitCriteria</text>
</g>
<!-- http://purl.org/oseg/ontologies/OTRL#exitCriteria&#45;&gt;http://purl.org/oseg/ontologies/OTRL#OTRL -->
<g id="edge33" class="edge">
<title>http://purl.org/oseg/ontologies/OTRL#exitCriteria&#45;&gt;http://purl.org/oseg/ontologies/OTRL#OTRL</title>
<path fill="none" stroke="black" d="M724.96,-637.26C685.4,-606.39 597.58,-537.85 553.36,-503.34"/>
<polygon fill="black" stroke="black" points="555.42,-500.5 545.38,-497.11 551.11,-506.02 555.42,-500.5"/>
<text text-anchor="middle" x="612.66" y="-574.1" font-family="Times,serif" font-size="14.00">domain</text>
</g>
<!-- http://purl.org/oseg/ontologies/OTRL#exitCriteria&#45;&gt;http://schema.org/Text -->
<g id="edge14" class="edge">
<title>http://purl.org/oseg/ontologies/OTRL#exitCriteria&#45;&gt;http://schema.org/Text</title>
<path fill="none" stroke="black" d="M757.65,-669.07C784.5,-703.48 847.63,-784.41 879.43,-825.17"/>
<polygon fill="black" stroke="black" points="876.81,-827.49 885.72,-833.22 882.33,-823.19 876.81,-827.49"/>
<text text-anchor="middle" x="797.54" y="-735.92" font-family="Times,serif" font-size="14.00">range</text>
</g>
<!-- http://purl.org/oseg/ontologies/OTRL#softwareDescription -->
<g id="node12" class="node">
<title>http://purl.org/oseg/ontologies/OTRL#softwareDescription</title>
<ellipse fill="none" stroke="#e377c2" cx="844.98" cy="-565.69" rx="113.69" ry="16.03"/>
<text text-anchor="middle" x="844.98" y="-561.99" font-family="Times,serif" font-size="14.00">softwareDescription</text>
</g>
<!-- http://purl.org/oseg/ontologies/OTRL#softwareDescription&#45;&gt;http://purl.org/oseg/ontologies/OTRL#OTRL -->
<g id="edge15" class="edge">
<title>http://purl.org/oseg/ontologies/OTRL#softwareDescription&#45;&gt;http://purl.org/oseg/ontologies/OTRL#OTRL</title>
<path fill="none" stroke="black" d="M790.29,-551.41C727.94,-535.14 627.3,-508.87 570.14,-493.95"/>
<polygon fill="black" stroke="black" points="570.9,-490.53 560.34,-491.39 569.13,-497.3 570.9,-490.53"/>
<text text-anchor="middle" x="653.72" y="-526.48" font-family="Times,serif" font-size="14.00">domain</text>
</g>
<!-- http://purl.org/oseg/ontologies/OTRL#softwareDescription&#45;&gt;http://schema.org/Text -->
<g id="edge30" class="edge">
<title>http://purl.org/oseg/ontologies/OTRL#softwareDescription&#45;&gt;http://schema.org/Text</title>
<path fill="none" stroke="black" d="M848.08,-582.18C856.96,-629.31 882.5,-764.92 893.41,-822.82"/>
<polygon fill="black" stroke="black" points="890.04,-823.82 895.33,-833 896.91,-822.52 890.04,-823.82"/>
<text text-anchor="middle" x="849.75" y="-706.3" font-family="Times,serif" font-size="14.00">range</text>
</g>
<!-- http://purl.org/oseg/ontologies/OTRL#OTRL&#45;1 -->
<g id="node13" class="node">
<title>http://purl.org/oseg/ontologies/OTRL#OTRL&#45;1</title>
<ellipse fill="none" stroke="#e377c2" cx="521.22" cy="-399.93" rx="49.49" ry="16.03"/>
<text text-anchor="middle" x="521.22" y="-396.23" font-family="Times,serif" font-size="14.00">OTRL&#45;1</text>
</g>
<!-- http://purl.org/oseg/ontologies/OTRL#OTRL&#45;1&#45;&gt;http://purl.org/oseg/ontologies/OTRL#OTRL -->
<g id="edge25" class="edge">
<title>http://purl.org/oseg/ontologies/OTRL#OTRL&#45;1&#45;&gt;http://purl.org/oseg/ontologies/OTRL#OTRL</title>
<path fill="none" stroke="black" d="M522.33,-416.27C523.1,-427.6 524.14,-442.94 525.03,-456.02"/>
<polygon fill="black" stroke="black" points="521.56,-456.6 525.73,-466.34 528.55,-456.12 521.56,-456.6"/>
</g>
<!-- http://purl.org/oseg/ontologies/OTRL#OTRL&#45;1&#45;&gt;http://www.w3.org/2002/07/owl#class -->
<g id="edge29" class="edge">
<title>http://purl.org/oseg/ontologies/OTRL#OTRL&#45;1&#45;&gt;http://www.w3.org/2002/07/owl#class</title>
<path fill="none" stroke="black" d="M496.03,-385.65C460.83,-365.69 396.79,-329.37 357.08,-306.85"/>
<polygon fill="black" stroke="black" points="358.69,-303.74 348.26,-301.85 355.24,-309.83 358.69,-303.74"/>
<text text-anchor="middle" x="422.05" y="-350.05" font-family="Times,serif" font-size="14.00">a</text>
</g>
<!-- http://purl.org/oseg/ontologies/OTRL#OTRL&#45;6 -->
<g id="node14" class="node">
<title>http://purl.org/oseg/ontologies/OTRL#OTRL&#45;6</title>
<ellipse fill="none" stroke="#e377c2" cx="553.39" cy="-229.1" rx="49.49" ry="16.03"/>
<text text-anchor="middle" x="553.39" y="-225.4" font-family="Times,serif" font-size="14.00">OTRL&#45;6</text>
</g>
<!-- http://purl.org/oseg/ontologies/OTRL#OTRL&#45;6&#45;&gt;http://purl.org/oseg/ontologies/OTRL#OTRL -->
<g id="edge26" class="edge">
<title>http://purl.org/oseg/ontologies/OTRL#OTRL&#45;6&#45;&gt;http://purl.org/oseg/ontologies/OTRL#OTRL</title>
<path fill="none" stroke="black" d="M551.65,-245.73C547.14,-288.72 535.1,-403.81 529.62,-456.11"/>
<polygon fill="black" stroke="black" points="526.12,-455.96 528.55,-466.27 533.08,-456.69 526.12,-455.96"/>
</g>
<!-- http://purl.org/oseg/ontologies/OTRL#OTRL&#45;6&#45;&gt;http://www.w3.org/2002/07/owl#class -->
<g id="edge13" class="edge">
<title>http://purl.org/oseg/ontologies/OTRL#OTRL&#45;6&#45;&gt;http://www.w3.org/2002/07/owl#class</title>
<path fill="none" stroke="black" d="M513.93,-239.01C475.75,-248.6 417.61,-263.21 375.39,-273.82"/>
<polygon fill="black" stroke="black" points="374.4,-270.46 365.56,-276.29 376.11,-277.24 374.4,-270.46"/>
<text text-anchor="middle" x="440.16" y="-245.21" font-family="Times,serif" font-size="14.00">a</text>
</g>
<!-- http://purl.org/oseg/ontologies/OTRL#ODRL&#45;4 -->
<g id="node16" class="node">
<title>http://purl.org/oseg/ontologies/OTRL#ODRL&#45;4</title>
<ellipse fill="none" stroke="#e377c2" cx="50.58" cy="-255.94" rx="50.82" ry="16.03"/>
<text text-anchor="middle" x="50.58" y="-252.24" font-family="Times,serif" font-size="14.00">ODRL&#45;4</text>
</g>
<!-- http://purl.org/oseg/ontologies/OTRL#ODRL&#45;4&#45;&gt;http://purl.org/oseg/ontologies/OTRL#ODRL -->
<g id="edge1" class="edge">
<title>http://purl.org/oseg/ontologies/OTRL#ODRL&#45;4&#45;&gt;http://purl.org/oseg/ontologies/OTRL#ODRL</title>
<path fill="none" stroke="black" d="M71.55,-240.93C94.74,-224.34 132.22,-197.51 158.09,-178.99"/>
<polygon fill="black" stroke="black" points="160.29,-181.72 166.38,-173.05 156.21,-176.03 160.29,-181.72"/>
</g>
<!-- http://purl.org/oseg/ontologies/OTRL#ODRL&#45;4&#45;&gt;http://www.w3.org/2002/07/owl#class -->
<g id="edge16" class="edge">
<title>http://purl.org/oseg/ontologies/OTRL#ODRL&#45;4&#45;&gt;http://www.w3.org/2002/07/owl#class</title>
<path fill="none" stroke="black" d="M98.54,-261.45C143.07,-266.56 209.67,-274.21 258.64,-279.83"/>
<polygon fill="black" stroke="black" points="258.47,-283.34 268.81,-281 259.27,-276.38 258.47,-283.34"/>
<text text-anchor="middle" x="174.09" y="-274.44" font-family="Times,serif" font-size="14.00">a</text>
</g>
<!-- http://purl.org/oseg/ontologies/OTRL -->
<g id="node17" class="node">
<title>http://purl.org/oseg/ontologies/OTRL</title>
<ellipse fill="none" stroke="#e377c2" cx="771.24" cy="-442.64" rx="60.62" ry="16.03"/>
<text text-anchor="middle" x="771.24" y="-438.94" font-family="Times,serif" font-size="14.00">ns1:OTRL</text>
</g>
<!-- http://purl.org/oseg/ontologies/OTRL&#45;&gt;http://purl.org/oseg/ontologies/OTRL -->
<g id="edge41" class="edge">
<title>http://purl.org/oseg/ontologies/OTRL&#45;&gt;http://purl.org/oseg/ontologies/OTRL</title>
<path fill="none" stroke="black" d="M826.84,-449.27C840.17,-448.75 850.05,-446.54 850.05,-442.64 850.05,-439.81 844.83,-437.86 836.87,-436.81"/>
<polygon fill="black" stroke="black" points="837.09,-433.32 826.84,-436.01 836.53,-440.3 837.09,-433.32"/>
<text text-anchor="middle" x="901.55" y="-438.94" font-family="Times,serif" font-size="14.00">owl:versionIRI</text>
</g>
<!-- http://purl.org/oseg/ontologies/OTRL#OTRL&#45;8 -->
<g id="node18" class="node">
<title>http://purl.org/oseg/ontologies/OTRL#OTRL&#45;8</title>
<ellipse fill="none" stroke="#e377c2" cx="619.21" cy="-286.28" rx="49.49" ry="16.03"/>
<text text-anchor="middle" x="619.21" y="-282.58" font-family="Times,serif" font-size="14.00">OTRL&#45;8</text>
</g>
<!-- http://purl.org/oseg/ontologies/OTRL#OTRL&#45;8&#45;&gt;http://purl.org/oseg/ontologies/OTRL#OTRL -->
<g id="edge9" class="edge">
<title>http://purl.org/oseg/ontologies/OTRL#OTRL&#45;8&#45;&gt;http://purl.org/oseg/ontologies/OTRL#OTRL</title>
<path fill="none" stroke="black" d="M611.5,-302.68C595.39,-336.91 558.11,-416.17 538.85,-457.12"/>
<polygon fill="black" stroke="black" points="535.56,-455.88 534.47,-466.42 541.89,-458.86 535.56,-455.88"/>
</g>
<!-- http://purl.org/oseg/ontologies/OTRL#OTRL&#45;8&#45;&gt;http://www.w3.org/2002/07/owl#class -->
<g id="edge31" class="edge">
<title>http://purl.org/oseg/ontologies/OTRL#OTRL&#45;8&#45;&gt;http://www.w3.org/2002/07/owl#class</title>
<path fill="none" stroke="black" d="M569.52,-286.42C520.36,-286.57 444.76,-286.79 390.11,-286.95"/>
<polygon fill="black" stroke="black" points="389.81,-283.45 379.82,-286.98 389.83,-290.45 389.81,-283.45"/>
<text text-anchor="middle" x="475.32" y="-290.49" font-family="Times,serif" font-size="14.00">a</text>
</g>
<!-- http://purl.org/oseg/ontologies/OTRL#OTRL&#45;7 -->
<g id="node19" class="node">
<title>http://purl.org/oseg/ontologies/OTRL#OTRL&#45;7</title>
<ellipse fill="none" stroke="#e377c2" cx="325.66" cy="-568.47" rx="49.49" ry="16.03"/>
<text text-anchor="middle" x="325.66" y="-564.77" font-family="Times,serif" font-size="14.00">OTRL&#45;7</text>
</g>
<!-- http://purl.org/oseg/ontologies/OTRL#OTRL&#45;7&#45;&gt;http://purl.org/oseg/ontologies/OTRL#OTRL -->
<g id="edge35" class="edge">
<title>http://purl.org/oseg/ontologies/OTRL#OTRL&#45;7&#45;&gt;http://purl.org/oseg/ontologies/OTRL#OTRL</title>
<path fill="none" stroke="black" d="M356.22,-555.43C392.09,-540.13 451.55,-514.76 489.96,-498.38"/>
<polygon fill="black" stroke="black" points="491.42,-501.56 499.24,-494.42 488.67,-495.12 491.42,-501.56"/>
</g>
<!-- http://purl.org/oseg/ontologies/OTRL#OTRL&#45;7&#45;&gt;http://www.w3.org/2002/07/owl#class -->
<g id="edge17" class="edge">
<title>http://purl.org/oseg/ontologies/OTRL#OTRL&#45;7&#45;&gt;http://www.w3.org/2002/07/owl#class</title>
<path fill="none" stroke="black" d="M325.47,-552.13C324.92,-505.41 323.33,-371 322.65,-313.62"/>
<polygon fill="black" stroke="black" points="326.15,-313.49 322.53,-303.53 319.15,-313.57 326.15,-313.49"/>
<text text-anchor="middle" x="319.56" y="-421.67" font-family="Times,serif" font-size="14.00">a</text>
</g>
<!-- http://purl.org/oseg/ontologies/OTRL#ODRL&#45;0 -->
<g id="node20" class="node">
<title>http://purl.org/oseg/ontologies/OTRL#ODRL&#45;0</title>
<ellipse fill="none" stroke="#e377c2" cx="81.1" cy="-336.76" rx="50.82" ry="16.03"/>
<text text-anchor="middle" x="81.1" y="-333.06" font-family="Times,serif" font-size="14.00">ODRL&#45;0</text>
</g>
<!-- http://purl.org/oseg/ontologies/OTRL#ODRL&#45;0&#45;&gt;http://purl.org/oseg/ontologies/OTRL#ODRL -->
<g id="edge5" class="edge">
<title>http://purl.org/oseg/ontologies/OTRL#ODRL&#45;0&#45;&gt;http://purl.org/oseg/ontologies/OTRL#ODRL</title>
<path fill="none" stroke="black" d="M90.65,-320.63C109.19,-289.34 150.13,-220.25 172.1,-183.17"/>
<polygon fill="black" stroke="black" points="175.16,-184.86 177.25,-174.47 169.14,-181.29 175.16,-184.86"/>
</g>
<!-- http://purl.org/oseg/ontologies/OTRL#ODRL&#45;0&#45;&gt;http://www.w3.org/2002/07/owl#class -->
<g id="edge18" class="edge">
<title>http://purl.org/oseg/ontologies/OTRL#ODRL&#45;0&#45;&gt;http://www.w3.org/2002/07/owl#class</title>
<path fill="none" stroke="black" d="M123.95,-327.95C163.51,-319.81 222.55,-307.67 265.93,-298.75"/>
<polygon fill="black" stroke="black" points="266.68,-302.17 275.77,-296.72 265.27,-295.31 266.68,-302.17"/>
<text text-anchor="middle" x="190.44" y="-317.15" font-family="Times,serif" font-size="14.00">a</text>
</g>
<!-- http://purl.org/oseg/ontologies/OTRL#hardwareDescription -->
<g id="node21" class="node">
<title>http://purl.org/oseg/ontologies/OTRL#hardwareDescription</title>
<ellipse fill="none" stroke="#e377c2" cx="589.82" cy="-814.5" rx="118.17" ry="16.03"/>
<text text-anchor="middle" x="589.82" y="-810.8" font-family="Times,serif" font-size="14.00">hardwareDescription</text>
</g>
<!-- http://purl.org/oseg/ontologies/OTRL#hardwareDescription&#45;&gt;http://purl.org/oseg/ontologies/OTRL#OTRL -->
<g id="edge22" class="edge">
<title>http://purl.org/oseg/ontologies/OTRL#hardwareDescription&#45;&gt;http://purl.org/oseg/ontologies/OTRL#OTRL</title>
<path fill="none" stroke="black" d="M586.7,-798.05C576.54,-744.53 544.38,-575.08 531.88,-509.2"/>
<polygon fill="black" stroke="black" points="535.29,-508.37 529.98,-499.2 528.41,-509.68 535.29,-508.37"/>
<text text-anchor="middle" x="532.79" y="-657.42" font-family="Times,serif" font-size="14.00">domain</text>
</g>
<!-- http://purl.org/oseg/ontologies/OTRL#hardwareDescription&#45;&gt;http://schema.org/Text -->
<g id="edge40" class="edge">
<title>http://purl.org/oseg/ontologies/OTRL#hardwareDescription&#45;&gt;http://schema.org/Text</title>
<path fill="none" stroke="black" d="M681.17,-824.87C725.92,-829.95 779.21,-836 821.81,-840.83"/>
<polygon fill="black" stroke="black" points="821.51,-844.32 831.84,-841.97 822.3,-837.37 821.51,-844.32"/>
<text text-anchor="middle" x="730.49" y="-836.65" font-family="Times,serif" font-size="14.00">range</text>
</g>
<!-- http://purl.org/oseg/ontologies/OTRL#ODRL&#45;2 -->
<g id="node22" class="node">
<title>http://purl.org/oseg/ontologies/OTRL#ODRL&#45;2</title>
<ellipse fill="none" stroke="#e377c2" cx="241.79" cy="-15.79" rx="50.82" ry="16.03"/>
<text text-anchor="middle" x="241.79" y="-12.09" font-family="Times,serif" font-size="14.00">ODRL&#45;2</text>
</g>
<!-- http://purl.org/oseg/ontologies/OTRL#ODRL&#45;2&#45;&gt;http://purl.org/oseg/ontologies/OTRL#ODRL -->
<g id="edge34" class="edge">
<title>http://purl.org/oseg/ontologies/OTRL#ODRL&#45;2&#45;&gt;http://purl.org/oseg/ontologies/OTRL#ODRL</title>
<path fill="none" stroke="black" d="M235.47,-32.16C225.96,-56.79 207.91,-103.58 196.63,-132.79"/>
<polygon fill="black" stroke="black" points="193.29,-131.73 192.95,-142.32 199.82,-134.25 193.29,-131.73"/>
</g>
<!-- http://purl.org/oseg/ontologies/OTRL#ODRL&#45;2&#45;&gt;http://www.w3.org/2002/07/owl#class -->
<g id="edge19" class="edge">
<title>http://purl.org/oseg/ontologies/OTRL#ODRL&#45;2&#45;&gt;http://www.w3.org/2002/07/owl#class</title>
<path fill="none" stroke="black" d="M246.7,-32.36C260.25,-77.98 298.16,-205.71 314.59,-261.04"/>
<polygon fill="black" stroke="black" points="311.28,-262.21 317.48,-270.8 317.99,-260.21 311.28,-262.21"/>
<text text-anchor="middle" x="276.15" y="-150.5" font-family="Times,serif" font-size="14.00">a</text>
</g>
<!-- http://purl.org/oseg/ontologies/OTRL#ODRL&#45;3 -->
<g id="node23" class="node">
<title>http://purl.org/oseg/ontologies/OTRL#ODRL&#45;3</title>
<ellipse fill="none" stroke="#e377c2" cx="69.45" cy="-160.31" rx="50.82" ry="16.03"/>
<text text-anchor="middle" x="69.45" y="-156.61" font-family="Times,serif" font-size="14.00">ODRL&#45;3</text>
</g>
<!-- http://purl.org/oseg/ontologies/OTRL#ODRL&#45;3&#45;&gt;http://purl.org/oseg/ontologies/OTRL#ODRL -->
<g id="edge12" class="edge">
<title>http://purl.org/oseg/ontologies/OTRL#ODRL&#45;3&#45;&gt;http://purl.org/oseg/ontologies/OTRL#ODRL</title>
<path fill="none" stroke="black" d="M120.54,-159.52C125.25,-159.45 130.03,-159.37 134.75,-159.3"/>
<polygon fill="black" stroke="black" points="134.99,-162.8 144.93,-159.14 134.88,-155.8 134.99,-162.8"/>
</g>
<!-- http://purl.org/oseg/ontologies/OTRL#ODRL&#45;3&#45;&gt;http://www.w3.org/2002/07/owl#class -->
<g id="edge20" class="edge">
<title>http://purl.org/oseg/ontologies/OTRL#ODRL&#45;3&#45;&gt;http://www.w3.org/2002/07/owl#class</title>
<path fill="none" stroke="black" d="M97,-174.12C142.55,-196.97 233.63,-242.66 284.95,-268.4"/>
<polygon fill="black" stroke="black" points="283.55,-271.61 294.05,-272.96 286.68,-265.35 283.55,-271.61"/>
<text text-anchor="middle" x="186.48" y="-225.06" font-family="Times,serif" font-size="14.00">a</text>
</g>
<!-- http://purl.org/oseg/ontologies/OTRL#OTRL&#45;4 -->
<g id="node24" class="node">
<title>http://purl.org/oseg/ontologies/OTRL#OTRL&#45;4</title>
<ellipse fill="none" stroke="#e377c2" cx="455.4" cy="-284.4" rx="49.49" ry="16.03"/>
<text text-anchor="middle" x="455.4" y="-280.7" font-family="Times,serif" font-size="14.00">OTRL&#45;4</text>
</g>
<!-- http://purl.org/oseg/ontologies/OTRL#OTRL&#45;4&#45;&gt;http://purl.org/oseg/ontologies/OTRL#OTRL -->
<g id="edge2" class="edge">
<title>http://purl.org/oseg/ontologies/OTRL#OTRL&#45;4&#45;&gt;http://purl.org/oseg/ontologies/OTRL#OTRL</title>
<path fill="none" stroke="black" d="M461.25,-300.62C473.63,-334.98 502.58,-415.31 517.53,-456.81"/>
<polygon fill="black" stroke="black" points="514.33,-458.25 521.01,-466.47 520.92,-455.88 514.33,-458.25"/>
</g>
<!-- http://purl.org/oseg/ontologies/OTRL#OTRL&#45;4&#45;&gt;http://www.w3.org/2002/07/owl#class -->
<g id="edge21" class="edge">
<title>http://purl.org/oseg/ontologies/OTRL#OTRL&#45;4&#45;&gt;http://www.w3.org/2002/07/owl#class</title>
<path fill="none" stroke="black" d="M405.85,-285.42C400.63,-285.53 395.26,-285.64 389.87,-285.75"/>
<polygon fill="black" stroke="black" points="389.48,-282.26 379.55,-285.96 389.62,-289.26 389.48,-282.26"/>
<text text-anchor="middle" x="393.36" y="-289.39" font-family="Times,serif" font-size="14.00">a</text>
</g>
</g>
</svg>
