<?xml version="1.0" encoding="UTF-8" standalone="no"?>
<!DOCTYPE svg PUBLIC "-//W3C//DTD SVG 1.1//EN"
 "http://www.w3.org/Graphics/SVG/1.1/DTD/svg11.dtd">
<!-- Generated by graphviz version 2.43.0 (0)
 -->
<!-- Title: G Pages: 1 -->
<svg width="1001pt" height="550pt"
 viewBox="0.00 0.00 1001.00 550.00" xmlns="http://www.w3.org/2000/svg" xmlns:xlink="http://www.w3.org/1999/xlink">
<g id="graph0" class="graph" transform="scale(1 1) rotate(0) translate(4 546)">
<title>G</title>
<polygon fill="white" stroke="transparent" points="-4,4 -4,-546 997,-546 997,4 -4,4"/>
<!-- http://purl.org/oseg/ontologies/OTRL#ODRL -->
<g id="node1" class="node">
<title>http://purl.org/oseg/ontologies/OTRL#ODRL</title>
<ellipse fill="none" stroke="#e377c2" cx="108.73" cy="-374.77" rx="41.94" ry="16.03"/>
<text text-anchor="middle" x="108.73" y="-371.07" font-family="Times,serif" font-size="14.00">ODRL</text>
</g>
<!-- http://www.w3.org/2002/07/owl#class -->
<g id="node2" class="node">
<title>http://www.w3.org/2002/07/owl#class</title>
<ellipse fill="none" stroke="#1f77b4" cx="294.71" cy="-311.24" rx="57.05" ry="16.03"/>
<text text-anchor="middle" x="294.71" y="-307.54" font-family="Times,serif" font-size="14.00">owl:class</text>
</g>
<!-- http://purl.org/oseg/ontologies/OTRL#ODRL&#45;&gt;http://www.w3.org/2002/07/owl#class -->
<g id="edge33" class="edge">
<title>http://purl.org/oseg/ontologies/OTRL#ODRL&#45;&gt;http://www.w3.org/2002/07/owl#class</title>
<path fill="none" stroke="black" d="M140.28,-364C169.9,-353.88 214.57,-338.62 248.26,-327.11"/>
<polygon fill="black" stroke="black" points="249.56,-330.37 257.89,-323.82 247.29,-323.74 249.56,-330.37"/>
<text text-anchor="middle" x="189.77" y="-349.35" font-family="Times,serif" font-size="14.00">a</text>
</g>
<!-- http://purl.org/oseg/ontologies/OTRL#OTRL -->
<g id="node3" class="node">
<title>http://purl.org/oseg/ontologies/OTRL#OTRL</title>
<ellipse fill="none" stroke="#e377c2" cx="505.86" cy="-243.57" rx="39.7" ry="16.03"/>
<text text-anchor="middle" x="505.86" y="-239.87" font-family="Times,serif" font-size="14.00">OTRL</text>
</g>
<!-- http://purl.org/oseg/ontologies/OTRL#OTRL&#45;&gt;http://www.w3.org/2002/07/owl#class -->
<g id="edge25" class="edge">
<title>http://purl.org/oseg/ontologies/OTRL#OTRL&#45;&gt;http://www.w3.org/2002/07/owl#class</title>
<path fill="none" stroke="black" d="M474.25,-253.7C439.39,-264.88 382.9,-282.98 342.6,-295.89"/>
<polygon fill="black" stroke="black" points="341.44,-292.59 332.99,-298.98 343.58,-299.26 341.44,-292.59"/>
<text text-anchor="middle" x="403.92" y="-278.6" font-family="Times,serif" font-size="14.00">a</text>
</g>
<!-- http://purl.org/oseg/ontologies/OTRL#OTRL&#45;4 -->
<g id="node4" class="node">
<title>http://purl.org/oseg/ontologies/OTRL#OTRL&#45;4</title>
<ellipse fill="none" stroke="#e377c2" cx="463" cy="-124.3" rx="49.49" ry="16.03"/>
<text text-anchor="middle" x="463" y="-120.6" font-family="Times,serif" font-size="14.00">OTRL&#45;4</text>
</g>
<!-- http://purl.org/oseg/ontologies/OTRL#OTRL&#45;4&#45;&gt;http://www.w3.org/2002/07/owl#class -->
<g id="edge1" class="edge">
<title>http://purl.org/oseg/ontologies/OTRL#OTRL&#45;4&#45;&gt;http://www.w3.org/2002/07/owl#class</title>
<path fill="none" stroke="black" d="M448.94,-139.92C419.44,-172.69 350.93,-248.8 316,-287.59"/>
<polygon fill="black" stroke="black" points="313.18,-285.5 309.09,-295.27 318.38,-290.18 313.18,-285.5"/>
<text text-anchor="middle" x="386.97" y="-217.56" font-family="Times,serif" font-size="14.00">a</text>
</g>
<!-- http://purl.org/oseg/ontologies/OTRL#OTRL&#45;4&#45;&gt;http://purl.org/oseg/ontologies/OTRL#OTRL -->
<g id="edge39" class="edge">
<title>http://purl.org/oseg/ontologies/OTRL#OTRL&#45;4&#45;&gt;http://purl.org/oseg/ontologies/OTRL#OTRL</title>
<path fill="none" stroke="black" d="M468.96,-140.89C476.09,-160.74 488.12,-194.21 496.5,-217.53"/>
<polygon fill="black" stroke="black" points="493.27,-218.9 499.95,-227.13 499.86,-216.54 493.27,-218.9"/>
</g>
<!-- http://purl.org/oseg/ontologies/OTRL -->
<g id="node5" class="node">
<title>http://purl.org/oseg/ontologies/OTRL</title>
<ellipse fill="none" stroke="#e377c2" cx="745.24" cy="-472.64" rx="60.62" ry="16.03"/>
<text text-anchor="middle" x="745.24" y="-468.94" font-family="Times,serif" font-size="14.00">ns1:OTRL</text>
</g>
<!-- http://purl.org/oseg/ontologies/OTRL&#45;&gt;http://purl.org/oseg/ontologies/OTRL -->
<g id="edge4" class="edge">
<title>http://purl.org/oseg/ontologies/OTRL&#45;&gt;http://purl.org/oseg/ontologies/OTRL</title>
<path fill="none" stroke="black" d="M800.84,-479.27C814.17,-478.75 824.05,-476.54 824.05,-472.64 824.05,-469.81 818.83,-467.86 810.87,-466.81"/>
<polygon fill="black" stroke="black" points="811.09,-463.32 800.84,-466.01 810.53,-470.3 811.09,-463.32"/>
<text text-anchor="middle" x="875.55" y="-468.94" font-family="Times,serif" font-size="14.00">owl:versionIRI</text>
</g>
<!-- http://purl.org/oseg/ontologies/OTRL#hardwareDescription -->
<g id="node6" class="node">
<title>http://purl.org/oseg/ontologies/OTRL#hardwareDescription</title>
<ellipse fill="none" stroke="#e377c2" cx="812.47" cy="-202.52" rx="118.17" ry="16.03"/>
<text text-anchor="middle" x="812.47" y="-198.82" font-family="Times,serif" font-size="14.00">hardwareDescription</text>
</g>
<!-- http://purl.org/oseg/ontologies/OTRL#hardwareDescription&#45;&gt;http://purl.org/oseg/ontologies/OTRL#OTRL -->
<g id="edge14" class="edge">
<title>http://purl.org/oseg/ontologies/OTRL#hardwareDescription&#45;&gt;http://purl.org/oseg/ontologies/OTRL#OTRL</title>
<path fill="none" stroke="black" d="M727.47,-213.9C671.45,-221.4 600.13,-230.95 553.76,-237.16"/>
<polygon fill="black" stroke="black" points="553.13,-233.71 543.68,-238.51 554.06,-240.65 553.13,-233.71"/>
<text text-anchor="middle" x="614.11" y="-229.33" font-family="Times,serif" font-size="14.00">domain</text>
</g>
<!-- http://schema.org/Text -->
<g id="node15" class="node">
<title>http://schema.org/Text</title>
<ellipse fill="none" stroke="#e377c2" cx="917.85" cy="-147.06" rx="74.91" ry="16.03"/>
<text text-anchor="middle" x="917.85" y="-143.36" font-family="Times,serif" font-size="14.00">schema:Text</text>
</g>
<!-- http://purl.org/oseg/ontologies/OTRL#hardwareDescription&#45;&gt;http://schema.org/Text -->
<g id="edge34" class="edge">
<title>http://purl.org/oseg/ontologies/OTRL#hardwareDescription&#45;&gt;http://schema.org/Text</title>
<path fill="none" stroke="black" d="M842.38,-186.77C854.02,-180.65 867.49,-173.56 879.81,-167.08"/>
<polygon fill="black" stroke="black" points="881.73,-170.02 888.95,-162.27 878.47,-163.83 881.73,-170.02"/>
<text text-anchor="middle" x="840.1" y="-165.72" font-family="Times,serif" font-size="14.00">range</text>
</g>
<!-- http://purl.org/oseg/ontologies/OTRL#ODRL&#45;2 -->
<g id="node7" class="node">
<title>http://purl.org/oseg/ontologies/OTRL#ODRL&#45;2</title>
<ellipse fill="none" stroke="#e377c2" cx="50.8" cy="-320.99" rx="50.82" ry="16.03"/>
<text text-anchor="middle" x="50.8" y="-317.29" font-family="Times,serif" font-size="14.00">ODRL&#45;2</text>
</g>
<!-- http://purl.org/oseg/ontologies/OTRL#ODRL&#45;2&#45;&gt;http://purl.org/oseg/ontologies/OTRL#ODRL -->
<g id="edge9" class="edge">
<title>http://purl.org/oseg/ontologies/OTRL#ODRL&#45;2&#45;&gt;http://purl.org/oseg/ontologies/OTRL#ODRL</title>
<path fill="none" stroke="black" d="M67.55,-336.55C72.88,-341.5 78.89,-347.07 84.63,-352.4"/>
<polygon fill="black" stroke="black" points="82.5,-355.2 92.21,-359.44 87.26,-350.07 82.5,-355.2"/>
</g>
<!-- http://purl.org/oseg/ontologies/OTRL#ODRL&#45;2&#45;&gt;http://www.w3.org/2002/07/owl#class -->
<g id="edge23" class="edge">
<title>http://purl.org/oseg/ontologies/OTRL#ODRL&#45;2&#45;&gt;http://www.w3.org/2002/07/owl#class</title>
<path fill="none" stroke="black" d="M101.33,-318.97C137.92,-317.51 187.74,-315.52 227.65,-313.92"/>
<polygon fill="black" stroke="black" points="227.98,-317.41 237.83,-313.52 227.7,-310.42 227.98,-317.41"/>
<text text-anchor="middle" x="159.99" y="-320.25" font-family="Times,serif" font-size="14.00">a</text>
</g>
<!-- http://purl.org/oseg/ontologies/OTRL#ODRL&#45;3 -->
<g id="node8" class="node">
<title>http://purl.org/oseg/ontologies/OTRL#ODRL&#45;3</title>
<ellipse fill="none" stroke="#e377c2" cx="61.67" cy="-235.38" rx="50.82" ry="16.03"/>
<text text-anchor="middle" x="61.67" y="-231.68" font-family="Times,serif" font-size="14.00">ODRL&#45;3</text>
</g>
<!-- http://purl.org/oseg/ontologies/OTRL#ODRL&#45;3&#45;&gt;http://purl.org/oseg/ontologies/OTRL#ODRL -->
<g id="edge10" class="edge">
<title>http://purl.org/oseg/ontologies/OTRL#ODRL&#45;3&#45;&gt;http://purl.org/oseg/ontologies/OTRL#ODRL</title>
<path fill="none" stroke="black" d="M67.16,-251.65C75.24,-275.57 90.4,-320.48 100.01,-348.94"/>
<polygon fill="black" stroke="black" points="96.76,-350.26 103.27,-358.62 103.39,-348.02 96.76,-350.26"/>
</g>
<!-- http://purl.org/oseg/ontologies/OTRL#ODRL&#45;3&#45;&gt;http://www.w3.org/2002/07/owl#class -->
<g id="edge24" class="edge">
<title>http://purl.org/oseg/ontologies/OTRL#ODRL&#45;3&#45;&gt;http://www.w3.org/2002/07/owl#class</title>
<path fill="none" stroke="black" d="M97.57,-247.07C137.69,-260.13 202.82,-281.33 247.15,-295.76"/>
<polygon fill="black" stroke="black" points="246.24,-299.15 256.83,-298.91 248.41,-292.49 246.24,-299.15"/>
<text text-anchor="middle" x="167.86" y="-275.22" font-family="Times,serif" font-size="14.00">a</text>
</g>
<!-- http://purl.org/oseg/ontologies/OTRL#OTRL&#45;6 -->
<g id="node9" class="node">
<title>http://purl.org/oseg/ontologies/OTRL#OTRL&#45;6</title>
<ellipse fill="none" stroke="#e377c2" cx="466.72" cy="-342.24" rx="49.49" ry="16.03"/>
<text text-anchor="middle" x="466.72" y="-338.54" font-family="Times,serif" font-size="14.00">OTRL&#45;6</text>
</g>
<!-- http://purl.org/oseg/ontologies/OTRL#OTRL&#45;6&#45;&gt;http://www.w3.org/2002/07/owl#class -->
<g id="edge26" class="edge">
<title>http://purl.org/oseg/ontologies/OTRL#OTRL&#45;6&#45;&gt;http://www.w3.org/2002/07/owl#class</title>
<path fill="none" stroke="black" d="M423.31,-334.42C402.07,-330.59 376.2,-325.93 353.24,-321.79"/>
<polygon fill="black" stroke="black" points="353.72,-318.32 343.26,-319.99 352.48,-325.21 353.72,-318.32"/>
<text text-anchor="middle" x="383.78" y="-331.9" font-family="Times,serif" font-size="14.00">a</text>
</g>
<!-- http://purl.org/oseg/ontologies/OTRL#OTRL&#45;6&#45;&gt;http://purl.org/oseg/ontologies/OTRL#OTRL -->
<g id="edge28" class="edge">
<title>http://purl.org/oseg/ontologies/OTRL#OTRL&#45;6&#45;&gt;http://purl.org/oseg/ontologies/OTRL#OTRL</title>
<path fill="none" stroke="black" d="M473.18,-325.95C479.3,-310.52 488.58,-287.12 495.69,-269.2"/>
<polygon fill="black" stroke="black" points="498.95,-270.48 499.38,-259.89 492.44,-267.9 498.95,-270.48"/>
</g>
<!-- http://purl.org/oseg/ontologies/OTRL#OTRL&#45;3 -->
<g id="node10" class="node">
<title>http://purl.org/oseg/ontologies/OTRL#OTRL&#45;3</title>
<ellipse fill="none" stroke="#e377c2" cx="336.1" cy="-210.42" rx="49.49" ry="16.03"/>
<text text-anchor="middle" x="336.1" y="-206.72" font-family="Times,serif" font-size="14.00">OTRL&#45;3</text>
</g>
<!-- http://purl.org/oseg/ontologies/OTRL#OTRL&#45;3&#45;&gt;http://www.w3.org/2002/07/owl#class -->
<g id="edge7" class="edge">
<title>http://purl.org/oseg/ontologies/OTRL#OTRL&#45;3&#45;&gt;http://www.w3.org/2002/07/owl#class</title>
<path fill="none" stroke="black" d="M329.45,-226.62C322.9,-242.57 312.81,-267.16 305.18,-285.74"/>
<polygon fill="black" stroke="black" points="301.9,-284.5 301.34,-295.08 308.38,-287.16 301.9,-284.5"/>
<text text-anchor="middle" x="312.82" y="-259.98" font-family="Times,serif" font-size="14.00">a</text>
</g>
<!-- http://purl.org/oseg/ontologies/OTRL#OTRL&#45;3&#45;&gt;http://purl.org/oseg/ontologies/OTRL#OTRL -->
<g id="edge31" class="edge">
<title>http://purl.org/oseg/ontologies/OTRL#OTRL&#45;3&#45;&gt;http://purl.org/oseg/ontologies/OTRL#OTRL</title>
<path fill="none" stroke="black" d="M378.94,-218.78C403.63,-223.61 434.67,-229.67 459.87,-234.59"/>
<polygon fill="black" stroke="black" points="459.43,-238.07 469.92,-236.56 460.78,-231.2 459.43,-238.07"/>
</g>
<!-- http://purl.org/oseg/ontologies/OTRL#softwareDescription -->
<g id="node11" class="node">
<title>http://purl.org/oseg/ontologies/OTRL#softwareDescription</title>
<ellipse fill="none" stroke="#e377c2" cx="694.03" cy="-16.13" rx="113.69" ry="16.03"/>
<text text-anchor="middle" x="694.03" y="-12.43" font-family="Times,serif" font-size="14.00">softwareDescription</text>
</g>
<!-- http://purl.org/oseg/ontologies/OTRL#softwareDescription&#45;&gt;http://purl.org/oseg/ontologies/OTRL#OTRL -->
<g id="edge27" class="edge">
<title>http://purl.org/oseg/ontologies/OTRL#softwareDescription&#45;&gt;http://purl.org/oseg/ontologies/OTRL#OTRL</title>
<path fill="none" stroke="black" d="M680.5,-32.49C647.65,-72.19 563.62,-173.76 525.36,-220.01"/>
<polygon fill="black" stroke="black" points="522.44,-218.03 518.77,-227.97 527.84,-222.5 522.44,-218.03"/>
<text text-anchor="middle" x="576.43" y="-130.05" font-family="Times,serif" font-size="14.00">domain</text>
</g>
<!-- http://purl.org/oseg/ontologies/OTRL#softwareDescription&#45;&gt;http://schema.org/Text -->
<g id="edge18" class="edge">
<title>http://purl.org/oseg/ontologies/OTRL#softwareDescription&#45;&gt;http://schema.org/Text</title>
<path fill="none" stroke="black" d="M721.47,-32.19C762.1,-55.95 838.23,-100.48 882.82,-126.57"/>
<polygon fill="black" stroke="black" points="881.17,-129.66 891.57,-131.69 884.71,-123.62 881.17,-129.66"/>
<text text-anchor="middle" x="781.15" y="-83.18" font-family="Times,serif" font-size="14.00">range</text>
</g>
<!-- http://purl.org/oseg/ontologies/OTRL#OTRL&#45;7 -->
<g id="node12" class="node">
<title>http://purl.org/oseg/ontologies/OTRL#OTRL&#45;7</title>
<ellipse fill="none" stroke="#e377c2" cx="341.23" cy="-135.7" rx="49.49" ry="16.03"/>
<text text-anchor="middle" x="341.23" y="-132" font-family="Times,serif" font-size="14.00">OTRL&#45;7</text>
</g>
<!-- http://purl.org/oseg/ontologies/OTRL#OTRL&#45;7&#45;&gt;http://www.w3.org/2002/07/owl#class -->
<g id="edge29" class="edge">
<title>http://purl.org/oseg/ontologies/OTRL#OTRL&#45;7&#45;&gt;http://www.w3.org/2002/07/owl#class</title>
<path fill="none" stroke="black" d="M336.86,-152.22C328.76,-182.74 311.41,-248.23 301.68,-284.93"/>
<polygon fill="black" stroke="black" points="298.22,-284.34 299.04,-294.9 304.99,-286.13 298.22,-284.34"/>
<text text-anchor="middle" x="314.77" y="-222.37" font-family="Times,serif" font-size="14.00">a</text>
</g>
<!-- http://purl.org/oseg/ontologies/OTRL#OTRL&#45;7&#45;&gt;http://purl.org/oseg/ontologies/OTRL#OTRL -->
<g id="edge22" class="edge">
<title>http://purl.org/oseg/ontologies/OTRL#OTRL&#45;7&#45;&gt;http://purl.org/oseg/ontologies/OTRL#OTRL</title>
<path fill="none" stroke="black" d="M363.43,-150.25C392.55,-169.33 443.75,-202.87 476.17,-224.12"/>
<polygon fill="black" stroke="black" points="474.5,-227.21 484.79,-229.77 478.34,-221.36 474.5,-227.21"/>
</g>
<!-- http://purl.org/oseg/ontologies/OTRL#ODRL&#45;0 -->
<g id="node13" class="node">
<title>http://purl.org/oseg/ontologies/OTRL#ODRL&#45;0</title>
<ellipse fill="none" stroke="#e377c2" cx="113.12" cy="-185.7" rx="50.82" ry="16.03"/>
<text text-anchor="middle" x="113.12" y="-182" font-family="Times,serif" font-size="14.00">ODRL&#45;0</text>
</g>
<!-- http://purl.org/oseg/ontologies/OTRL#ODRL&#45;0&#45;&gt;http://purl.org/oseg/ontologies/OTRL#ODRL -->
<g id="edge16" class="edge">
<title>http://purl.org/oseg/ontologies/OTRL#ODRL&#45;0&#45;&gt;http://purl.org/oseg/ontologies/OTRL#ODRL</title>
<path fill="none" stroke="black" d="M112.74,-202.14C111.98,-234.91 110.27,-308.59 109.35,-348.27"/>
<polygon fill="black" stroke="black" points="105.84,-348.42 109.11,-358.5 112.84,-348.58 105.84,-348.42"/>
</g>
<!-- http://purl.org/oseg/ontologies/OTRL#ODRL&#45;0&#45;&gt;http://www.w3.org/2002/07/owl#class -->
<g id="edge30" class="edge">
<title>http://purl.org/oseg/ontologies/OTRL#ODRL&#45;0&#45;&gt;http://www.w3.org/2002/07/owl#class</title>
<path fill="none" stroke="black" d="M134.67,-200.59C166.93,-222.9 227.93,-265.07 264.59,-290.42"/>
<polygon fill="black" stroke="black" points="262.7,-293.36 272.91,-296.17 266.68,-287.61 262.7,-293.36"/>
<text text-anchor="middle" x="195.13" y="-249.3" font-family="Times,serif" font-size="14.00">a</text>
</g>
<!-- http://purl.org/oseg/ontologies/OTRL#ODRL&#45;5 -->
<g id="node14" class="node">
<title>http://purl.org/oseg/ontologies/OTRL#ODRL&#45;5</title>
<ellipse fill="none" stroke="#e377c2" cx="82.2" cy="-422.83" rx="50.82" ry="16.03"/>
<text text-anchor="middle" x="82.2" y="-419.13" font-family="Times,serif" font-size="14.00">ODRL&#45;5</text>
</g>
<!-- http://purl.org/oseg/ontologies/OTRL#ODRL&#45;5&#45;&gt;http://purl.org/oseg/ontologies/OTRL#ODRL -->
<g id="edge3" class="edge">
<title>http://purl.org/oseg/ontologies/OTRL#ODRL&#45;5&#45;&gt;http://purl.org/oseg/ontologies/OTRL#ODRL</title>
<path fill="none" stroke="black" d="M91.18,-406.56C92.42,-404.32 93.71,-401.98 95.01,-399.63"/>
<polygon fill="black" stroke="black" points="98.17,-401.15 99.94,-390.7 92.04,-397.76 98.17,-401.15"/>
</g>
<!-- http://purl.org/oseg/ontologies/OTRL#ODRL&#45;5&#45;&gt;http://www.w3.org/2002/07/owl#class -->
<g id="edge11" class="edge">
<title>http://purl.org/oseg/ontologies/OTRL#ODRL&#45;5&#45;&gt;http://www.w3.org/2002/07/owl#class</title>
<path fill="none" stroke="black" d="M108.68,-408.92C146.42,-389.11 215.77,-352.69 258.31,-330.36"/>
<polygon fill="black" stroke="black" points="259.99,-333.43 267.22,-325.68 256.74,-327.23 259.99,-333.43"/>
<text text-anchor="middle" x="179" y="-373.44" font-family="Times,serif" font-size="14.00">a</text>
</g>
<!-- http://purl.org/oseg/ontologies/OTRL#OTRL&#45;5 -->
<g id="node16" class="node">
<title>http://purl.org/oseg/ontologies/OTRL#OTRL&#45;5</title>
<ellipse fill="none" stroke="#e377c2" cx="462.04" cy="-443.53" rx="49.49" ry="16.03"/>
<text text-anchor="middle" x="462.04" y="-439.83" font-family="Times,serif" font-size="14.00">OTRL&#45;5</text>
</g>
<!-- http://purl.org/oseg/ontologies/OTRL#OTRL&#45;5&#45;&gt;http://www.w3.org/2002/07/owl#class -->
<g id="edge13" class="edge">
<title>http://purl.org/oseg/ontologies/OTRL#OTRL&#45;5&#45;&gt;http://www.w3.org/2002/07/owl#class</title>
<path fill="none" stroke="black" d="M442.84,-428.36C413.25,-404.96 356.34,-359.96 322.32,-333.07"/>
<polygon fill="black" stroke="black" points="324.21,-330.1 314.2,-326.65 319.87,-335.6 324.21,-330.1"/>
<text text-anchor="middle" x="378.08" y="-369.51" font-family="Times,serif" font-size="14.00">a</text>
</g>
<!-- http://purl.org/oseg/ontologies/OTRL#OTRL&#45;5&#45;&gt;http://purl.org/oseg/ontologies/OTRL#OTRL -->
<g id="edge8" class="edge">
<title>http://purl.org/oseg/ontologies/OTRL#OTRL&#45;5&#45;&gt;http://purl.org/oseg/ontologies/OTRL#OTRL</title>
<path fill="none" stroke="black" d="M465.63,-427.17C473.2,-392.59 490.9,-311.83 500.09,-269.9"/>
<polygon fill="black" stroke="black" points="503.56,-270.4 502.28,-259.88 496.72,-268.9 503.56,-270.4"/>
</g>
<!-- http://purl.org/oseg/ontologies/OTRL#exitCriteria -->
<g id="node17" class="node">
<title>http://purl.org/oseg/ontologies/OTRL#exitCriteria</title>
<ellipse fill="none" stroke="#e377c2" cx="697.82" cy="-143.43" rx="70.01" ry="16.03"/>
<text text-anchor="middle" x="697.82" y="-139.73" font-family="Times,serif" font-size="14.00">exitCriteria</text>
</g>
<!-- http://purl.org/oseg/ontologies/OTRL#exitCriteria&#45;&gt;http://purl.org/oseg/ontologies/OTRL#OTRL -->
<g id="edge2" class="edge">
<title>http://purl.org/oseg/ontologies/OTRL#exitCriteria&#45;&gt;http://purl.org/oseg/ontologies/OTRL#OTRL</title>
<path fill="none" stroke="black" d="M669.08,-158.42C634.52,-176.45 576.57,-206.68 539.83,-225.85"/>
<polygon fill="black" stroke="black" points="537.76,-222.98 530.52,-230.71 541,-229.19 537.76,-222.98"/>
<text text-anchor="middle" x="577.96" y="-195.94" font-family="Times,serif" font-size="14.00">domain</text>
</g>
<!-- http://purl.org/oseg/ontologies/OTRL#exitCriteria&#45;&gt;http://schema.org/Text -->
<g id="edge12" class="edge">
<title>http://purl.org/oseg/ontologies/OTRL#exitCriteria&#45;&gt;http://schema.org/Text</title>
<path fill="none" stroke="black" d="M767.74,-144.58C788.38,-144.92 811.2,-145.3 832.69,-145.65"/>
<polygon fill="black" stroke="black" points="832.73,-149.15 842.78,-145.82 832.84,-142.16 832.73,-149.15"/>
<text text-anchor="middle" x="821.22" y="-148.92" font-family="Times,serif" font-size="14.00">range</text>
</g>
<!-- http://purl.org/oseg/ontologies/OTRL#OTRL&#45;2 -->
<g id="node18" class="node">
<title>http://purl.org/oseg/ontologies/OTRL#OTRL&#45;2</title>
<ellipse fill="none" stroke="#e377c2" cx="461.23" cy="-193.67" rx="49.49" ry="16.03"/>
<text text-anchor="middle" x="461.23" y="-189.97" font-family="Times,serif" font-size="14.00">OTRL&#45;2</text>
</g>
<!-- http://purl.org/oseg/ontologies/OTRL#OTRL&#45;2&#45;&gt;http://www.w3.org/2002/07/owl#class -->
<g id="edge15" class="edge">
<title>http://purl.org/oseg/ontologies/OTRL#OTRL&#45;2&#45;&gt;http://www.w3.org/2002/07/owl#class</title>
<path fill="none" stroke="black" d="M440.14,-208.56C410.9,-229.21 357.88,-266.64 324.58,-290.15"/>
<polygon fill="black" stroke="black" points="322.31,-287.47 316.16,-296.1 326.34,-293.19 322.31,-287.47"/>
<text text-anchor="middle" x="377.86" y="-253.16" font-family="Times,serif" font-size="14.00">a</text>
</g>
<!-- http://purl.org/oseg/ontologies/OTRL#OTRL&#45;2&#45;&gt;http://purl.org/oseg/ontologies/OTRL#OTRL -->
<g id="edge6" class="edge">
<title>http://purl.org/oseg/ontologies/OTRL#OTRL&#45;2&#45;&gt;http://purl.org/oseg/ontologies/OTRL#OTRL</title>
<path fill="none" stroke="black" d="M475.35,-209.46C478.51,-212.99 481.91,-216.8 485.27,-220.55"/>
<polygon fill="black" stroke="black" points="482.71,-222.94 491.98,-228.06 487.93,-218.27 482.71,-222.94"/>
</g>
<!-- http://purl.org/oseg/ontologies/OTRL#documentationDescription -->
<g id="node19" class="node">
<title>http://purl.org/oseg/ontologies/OTRL#documentationDescription</title>
<ellipse fill="none" stroke="#e377c2" cx="778.32" cy="-364.54" rx="120.83" ry="16.03"/>
<text text-anchor="middle" x="778.32" y="-360.84" font-family="Times,serif" font-size="14.00">documentationDesc...</text>
</g>
<!-- http://purl.org/oseg/ontologies/OTRL#documentationDescription&#45;&gt;http://purl.org/oseg/ontologies/OTRL#OTRL -->
<g id="edge36" class="edge">
<title>http://purl.org/oseg/ontologies/OTRL#documentationDescription&#45;&gt;http://purl.org/oseg/ontologies/OTRL#OTRL</title>
<path fill="none" stroke="black" d="M743.26,-348.98C691.43,-325.97 594.87,-283.09 542.28,-259.74"/>
<polygon fill="black" stroke="black" points="543.55,-256.48 532.99,-255.62 540.71,-262.88 543.55,-256.48"/>
<text text-anchor="middle" x="616.27" y="-308.16" font-family="Times,serif" font-size="14.00">domain</text>
</g>
<!-- http://purl.org/oseg/ontologies/OTRL#documentationDescription&#45;&gt;http://schema.org/Text -->
<g id="edge35" class="edge">
<title>http://purl.org/oseg/ontologies/OTRL#documentationDescription&#45;&gt;http://schema.org/Text</title>
<path fill="none" stroke="black" d="M788.81,-348.2C813.06,-310.4 873.13,-216.76 901.94,-171.85"/>
<polygon fill="black" stroke="black" points="904.98,-173.6 907.43,-163.3 899.08,-169.82 904.98,-173.6"/>
<text text-anchor="middle" x="824.37" y="-263.82" font-family="Times,serif" font-size="14.00">range</text>
</g>
<!-- http://purl.org/oseg/ontologies/OTRL#ODRL&#45;1 -->
<g id="node20" class="node">
<title>http://purl.org/oseg/ontologies/OTRL#ODRL&#45;1</title>
<ellipse fill="none" stroke="#e377c2" cx="236.7" cy="-525.5" rx="50.82" ry="16.03"/>
<text text-anchor="middle" x="236.7" y="-521.8" font-family="Times,serif" font-size="14.00">ODRL&#45;1</text>
</g>
<!-- http://purl.org/oseg/ontologies/OTRL#ODRL&#45;1&#45;&gt;http://purl.org/oseg/ontologies/OTRL#ODRL -->
<g id="edge20" class="edge">
<title>http://purl.org/oseg/ontologies/OTRL#ODRL&#45;1&#45;&gt;http://purl.org/oseg/ontologies/OTRL#ODRL</title>
<path fill="none" stroke="black" d="M223.25,-509.65C200.63,-483.01 154.87,-429.12 128.56,-398.13"/>
<polygon fill="black" stroke="black" points="131.14,-395.76 122,-390.41 125.81,-400.3 131.14,-395.76"/>
</g>
<!-- http://purl.org/oseg/ontologies/OTRL#ODRL&#45;1&#45;&gt;http://www.w3.org/2002/07/owl#class -->
<g id="edge38" class="edge">
<title>http://purl.org/oseg/ontologies/OTRL#ODRL&#45;1&#45;&gt;http://www.w3.org/2002/07/owl#class</title>
<path fill="none" stroke="black" d="M241.15,-509.04C251.18,-472.03 275.56,-381.97 287.66,-337.28"/>
<polygon fill="black" stroke="black" points="291.08,-338.03 290.32,-327.46 284.33,-336.2 291.08,-338.03"/>
<text text-anchor="middle" x="259.91" y="-426.96" font-family="Times,serif" font-size="14.00">a</text>
</g>
<!-- http://purl.org/oseg/ontologies/OTRL#OTRL&#45;8 -->
<g id="node21" class="node">
<title>http://purl.org/oseg/ontologies/OTRL#OTRL&#45;8</title>
<ellipse fill="none" stroke="#e377c2" cx="358.4" cy="-392.97" rx="49.49" ry="16.03"/>
<text text-anchor="middle" x="358.4" y="-389.27" font-family="Times,serif" font-size="14.00">OTRL&#45;8</text>
</g>
<!-- http://purl.org/oseg/ontologies/OTRL#OTRL&#45;8&#45;&gt;http://www.w3.org/2002/07/owl#class -->
<g id="edge40" class="edge">
<title>http://purl.org/oseg/ontologies/OTRL#OTRL&#45;8&#45;&gt;http://www.w3.org/2002/07/owl#class</title>
<path fill="none" stroke="black" d="M346.12,-377.22C336.84,-365.31 323.94,-348.75 313.39,-335.21"/>
<polygon fill="black" stroke="black" points="316.08,-332.97 307.17,-327.23 310.56,-337.27 316.08,-332.97"/>
<text text-anchor="middle" x="325.25" y="-360.01" font-family="Times,serif" font-size="14.00">a</text>
</g>
<!-- http://purl.org/oseg/ontologies/OTRL#OTRL&#45;8&#45;&gt;http://purl.org/oseg/ontologies/OTRL#OTRL -->
<g id="edge32" class="edge">
<title>http://purl.org/oseg/ontologies/OTRL#OTRL&#45;8&#45;&gt;http://purl.org/oseg/ontologies/OTRL#OTRL</title>
<path fill="none" stroke="black" d="M373.9,-377.27C400.08,-350.75 453.14,-296.99 483.39,-266.33"/>
<polygon fill="black" stroke="black" points="486.03,-268.65 490.56,-259.07 481.05,-263.73 486.03,-268.65"/>
</g>
<!-- http://purl.org/oseg/ontologies/OTRL#ODRL&#45;4 -->
<g id="node22" class="node">
<title>http://purl.org/oseg/ontologies/OTRL#ODRL&#45;4</title>
<ellipse fill="none" stroke="#e377c2" cx="110.39" cy="-488.73" rx="50.82" ry="16.03"/>
<text text-anchor="middle" x="110.39" y="-485.03" font-family="Times,serif" font-size="14.00">ODRL&#45;4</text>
</g>
<!-- http://purl.org/oseg/ontologies/OTRL#ODRL&#45;4&#45;&gt;http://purl.org/oseg/ontologies/OTRL#ODRL -->
<g id="edge5" class="edge">
<title>http://purl.org/oseg/ontologies/OTRL#ODRL&#45;4&#45;&gt;http://purl.org/oseg/ontologies/OTRL#ODRL</title>
<path fill="none" stroke="black" d="M110.15,-472.4C109.88,-453.79 109.43,-423.09 109.11,-401.08"/>
<polygon fill="black" stroke="black" points="112.61,-401.02 108.97,-391.07 105.61,-401.12 112.61,-401.02"/>
</g>
<!-- http://purl.org/oseg/ontologies/OTRL#ODRL&#45;4&#45;&gt;http://www.w3.org/2002/07/owl#class -->
<g id="edge19" class="edge">
<title>http://purl.org/oseg/ontologies/OTRL#ODRL&#45;4&#45;&gt;http://www.w3.org/2002/07/owl#class</title>
<path fill="none" stroke="black" d="M126.42,-473.29C158.89,-442.03 232.54,-371.11 270.73,-334.33"/>
<polygon fill="black" stroke="black" points="273.54,-336.49 278.32,-327.03 268.69,-331.44 273.54,-336.49"/>
<text text-anchor="middle" x="194.08" y="-407.61" font-family="Times,serif" font-size="14.00">a</text>
</g>
<!-- http://purl.org/oseg/ontologies/OTRL#OTRL&#45;1 -->
<g id="node23" class="node">
<title>http://purl.org/oseg/ontologies/OTRL#OTRL&#45;1</title>
<ellipse fill="none" stroke="#e377c2" cx="338.24" cy="-94.56" rx="49.49" ry="16.03"/>
<text text-anchor="middle" x="338.24" y="-90.86" font-family="Times,serif" font-size="14.00">OTRL&#45;1</text>
</g>
<!-- http://purl.org/oseg/ontologies/OTRL#OTRL&#45;1&#45;&gt;http://www.w3.org/2002/07/owl#class -->
<g id="edge41" class="edge">
<title>http://purl.org/oseg/ontologies/OTRL#OTRL&#45;1&#45;&gt;http://www.w3.org/2002/07/owl#class</title>
<path fill="none" stroke="black" d="M334.97,-110.85C327.5,-148.02 309.14,-239.41 300.02,-284.79"/>
<polygon fill="black" stroke="black" points="296.56,-284.27 298.02,-294.77 303.42,-285.65 296.56,-284.27"/>
<text text-anchor="middle" x="313" y="-186.62" font-family="Times,serif" font-size="14.00">a</text>
</g>
<!-- http://purl.org/oseg/ontologies/OTRL#OTRL&#45;1&#45;&gt;http://purl.org/oseg/ontologies/OTRL#OTRL -->
<g id="edge37" class="edge">
<title>http://purl.org/oseg/ontologies/OTRL#OTRL&#45;1&#45;&gt;http://purl.org/oseg/ontologies/OTRL#OTRL</title>
<path fill="none" stroke="black" d="M355.55,-109.95C385.44,-136.52 446.82,-191.09 481.18,-221.64"/>
<polygon fill="black" stroke="black" points="479.09,-224.47 488.89,-228.49 483.75,-219.23 479.09,-224.47"/>
</g>
<!-- http://purl.org/oseg/ontologies/OTRL#OTRL&#45;9 -->
<g id="node24" class="node">
<title>http://purl.org/oseg/ontologies/OTRL#OTRL&#45;9</title>
<ellipse fill="none" stroke="#e377c2" cx="541.03" cy="-393.69" rx="49.49" ry="16.03"/>
<text text-anchor="middle" x="541.03" y="-389.99" font-family="Times,serif" font-size="14.00">OTRL&#45;9</text>
</g>
<!-- http://purl.org/oseg/ontologies/OTRL#OTRL&#45;9&#45;&gt;http://www.w3.org/2002/07/owl#class -->
<g id="edge21" class="edge">
<title>http://purl.org/oseg/ontologies/OTRL#OTRL&#45;9&#45;&gt;http://www.w3.org/2002/07/owl#class</title>
<path fill="none" stroke="black" d="M506.26,-382.05C463.21,-367.64 389.7,-343.04 341.67,-326.96"/>
<polygon fill="black" stroke="black" points="342.72,-323.62 332.12,-323.77 340.5,-330.26 342.72,-323.62"/>
<text text-anchor="middle" x="419.46" y="-358.31" font-family="Times,serif" font-size="14.00">a</text>
</g>
<!-- http://purl.org/oseg/ontologies/OTRL#OTRL&#45;9&#45;&gt;http://purl.org/oseg/ontologies/OTRL#OTRL -->
<g id="edge17" class="edge">
<title>http://purl.org/oseg/ontologies/OTRL#OTRL&#45;9&#45;&gt;http://purl.org/oseg/ontologies/OTRL#OTRL</title>
<path fill="none" stroke="black" d="M537.2,-377.34C531.14,-351.51 519.31,-301.02 512.05,-269.99"/>
<polygon fill="black" stroke="black" points="515.37,-268.84 509.68,-259.9 508.56,-270.44 515.37,-268.84"/>
</g>
</g>
</svg>
