<?xml version="1.0" encoding="UTF-8" standalone="no"?>
<!DOCTYPE svg PUBLIC "-//W3C//DTD SVG 1.1//EN"
 "http://www.w3.org/Graphics/SVG/1.1/DTD/svg11.dtd">
<!-- Generated by graphviz version 2.43.0 (0)
 -->
<!-- Title: G Pages: 1 -->
<svg width="551pt" height="375pt"
 viewBox="0.00 0.00 551.05 375.00" xmlns="http://www.w3.org/2000/svg" xmlns:xlink="http://www.w3.org/1999/xlink">
<g id="graph0" class="graph" transform="scale(1 1) rotate(0) translate(4 371)">
<title>G</title>
<polygon fill="white" stroke="transparent" points="-4,4 -4,-371 547.05,-371 547.05,4 -4,4"/>
<!-- http://purl.org/oseg/ontologies/OTRL#ODRL -->
<g id="node1" class="node">
<title>http://purl.org/oseg/ontologies/OTRL#ODRL</title>
<ellipse fill="none" stroke="#e377c2" cx="171.25" cy="-132.68" rx="41.94" ry="16.03"/>
<text text-anchor="middle" x="171.25" y="-128.98" font-family="Times,serif" font-size="14.00">ODRL</text>
</g>
<!-- http://www.w3.org/2002/07/owl#class -->
<g id="node2" class="node">
<title>http://www.w3.org/2002/07/owl#class</title>
<ellipse fill="none" stroke="#1f77b4" cx="185.21" cy="-185.35" rx="57.05" ry="16.03"/>
<text text-anchor="middle" x="185.21" y="-181.65" font-family="Times,serif" font-size="14.00">owl:class</text>
</g>
<!-- http://purl.org/oseg/ontologies/OTRL#OTRL -->
<g id="node3" class="node">
<title>http://purl.org/oseg/ontologies/OTRL#OTRL</title>
<ellipse fill="none" stroke="#e377c2" cx="174.11" cy="-231.65" rx="39.7" ry="16.03"/>
<text text-anchor="middle" x="174.11" y="-227.95" font-family="Times,serif" font-size="14.00">OTRL</text>
</g>
<!-- http://purl.org/oseg/ontologies/OTRL#OTRL&#45;&gt;http://www.w3.org/2002/07/owl#class -->
<g id="edge6" class="edge">
<title>http://purl.org/oseg/ontologies/OTRL#OTRL&#45;&gt;http://www.w3.org/2002/07/owl#class</title>
<path fill="none" stroke="black" d="M177.99,-215.46C178.3,-214.2 178.61,-212.9 178.92,-211.6"/>
<polygon fill="black" stroke="black" points="182.39,-212.15 181.31,-201.61 175.58,-210.52 182.39,-212.15"/>
<text text-anchor="middle" x="173.96" y="-202.33" font-family="Times,serif" font-size="14.00">a</text>
</g>
<!-- http://www.w3.org/1999/02/22&#45;rdf&#45;syntax&#45;ns#nil -->
<g id="node4" class="node">
<title>http://www.w3.org/1999/02/22&#45;rdf&#45;syntax&#45;ns#nil</title>
<ellipse fill="none" stroke="#e377c2" cx="402.24" cy="-136.64" rx="42.35" ry="16.03"/>
<text text-anchor="middle" x="402.24" y="-132.94" font-family="Times,serif" font-size="14.00">rdf:nil</text>
</g>
<!-- http://purl.org/oseg/ontologies/OTRL#Otrl1 -->
<g id="node5" class="node">
<title>http://purl.org/oseg/ontologies/OTRL#Otrl1</title>
<ellipse fill="none" stroke="#e377c2" cx="176.15" cy="-350.54" rx="38.37" ry="16.03"/>
<text text-anchor="middle" x="176.15" y="-346.84" font-family="Times,serif" font-size="14.00">Otrl1</text>
</g>
<!-- http://purl.org/oseg/ontologies/OTRL#Otrl1&#45;&gt;http://www.w3.org/2002/07/owl#class -->
<g id="edge11" class="edge">
<title>http://purl.org/oseg/ontologies/OTRL#Otrl1&#45;&gt;http://www.w3.org/2002/07/owl#class</title>
<path fill="none" stroke="black" d="M177.06,-334.1C178.62,-305.53 181.86,-246.48 183.75,-211.99"/>
<polygon fill="black" stroke="black" points="187.26,-211.9 184.31,-201.73 180.27,-211.52 187.26,-211.9"/>
<text text-anchor="middle" x="175.9" y="-276.85" font-family="Times,serif" font-size="14.00">a</text>
</g>
<!-- http://purl.org/oseg/ontologies/OTRL#Otrl1&#45;&gt;http://purl.org/oseg/ontologies/OTRL#OTRL -->
<g id="edge20" class="edge">
<title>http://purl.org/oseg/ontologies/OTRL#Otrl1&#45;&gt;http://purl.org/oseg/ontologies/OTRL#OTRL</title>
<path fill="none" stroke="black" d="M175.87,-334.01C175.53,-314.4 174.97,-281.45 174.57,-258.24"/>
<polygon fill="black" stroke="black" points="178.07,-257.98 174.39,-248.04 171.07,-258.1 178.07,-257.98"/>
</g>
<!-- http://purl.org/oseg/ontologies/OTRL#Otrl -->
<g id="node6" class="node">
<title>http://purl.org/oseg/ontologies/OTRL#Otrl</title>
<ellipse fill="none" stroke="#e377c2" cx="72.24" cy="-196.64" rx="31.64" ry="16.03"/>
<text text-anchor="middle" x="72.24" y="-192.94" font-family="Times,serif" font-size="14.00">Otrl</text>
</g>
<!-- http://schema.org/Text -->
<g id="node7" class="node">
<title>http://schema.org/Text</title>
<ellipse fill="none" stroke="#e377c2" cx="415.45" cy="-298.18" rx="74.91" ry="16.03"/>
<text text-anchor="middle" x="415.45" y="-294.48" font-family="Times,serif" font-size="14.00">schema:Text</text>
</g>
<!-- http://purl.org/oseg/ontologies/OTRL#Odrl -->
<g id="node8" class="node">
<title>http://purl.org/oseg/ontologies/OTRL#Odrl</title>
<ellipse fill="none" stroke="#e377c2" cx="356.61" cy="-184.81" rx="33.88" ry="16.03"/>
<text text-anchor="middle" x="356.61" y="-181.11" font-family="Times,serif" font-size="14.00">Odrl</text>
</g>
<!-- http://purl.org/oseg/ontologies/OTRL#Odrl&#45;&gt;http://www.w3.org/2002/07/owl#class -->
<g id="edge24" class="edge">
<title>http://purl.org/oseg/ontologies/OTRL#Odrl&#45;&gt;http://www.w3.org/2002/07/owl#class</title>
<path fill="none" stroke="black" d="M322.33,-184.92C302.42,-184.98 276.62,-185.06 252.78,-185.14"/>
<polygon fill="black" stroke="black" points="252.7,-181.64 242.71,-185.17 252.72,-188.64 252.7,-181.64"/>
<text text-anchor="middle" x="283.06" y="-188.83" font-family="Times,serif" font-size="14.00">a</text>
</g>
<!-- http://purl.org/oseg/ontologies/OTRL#Otrl5 -->
<g id="node9" class="node">
<title>http://purl.org/oseg/ontologies/OTRL#Otrl5</title>
<ellipse fill="none" stroke="#e377c2" cx="83.45" cy="-309.31" rx="38.37" ry="16.03"/>
<text text-anchor="middle" x="83.45" y="-305.61" font-family="Times,serif" font-size="14.00">Otrl5</text>
</g>
<!-- http://purl.org/oseg/ontologies/OTRL#Otrl5&#45;&gt;http://www.w3.org/2002/07/owl#class -->
<g id="edge12" class="edge">
<title>http://purl.org/oseg/ontologies/OTRL#Otrl5&#45;&gt;http://www.w3.org/2002/07/owl#class</title>
<path fill="none" stroke="black" d="M96.13,-293.87C113.55,-272.64 145.06,-234.26 165.56,-209.29"/>
<polygon fill="black" stroke="black" points="168.41,-211.34 172.05,-201.39 163,-206.9 168.41,-211.34"/>
<text text-anchor="middle" x="126.34" y="-255.38" font-family="Times,serif" font-size="14.00">a</text>
</g>
<!-- http://purl.org/oseg/ontologies/OTRL#Otrl5&#45;&gt;http://purl.org/oseg/ontologies/OTRL#OTRL -->
<g id="edge21" class="edge">
<title>http://purl.org/oseg/ontologies/OTRL#Otrl5&#45;&gt;http://purl.org/oseg/ontologies/OTRL#OTRL</title>
<path fill="none" stroke="black" d="M100.5,-294.71C114.22,-282.96 133.68,-266.28 149.15,-253.03"/>
<polygon fill="black" stroke="black" points="151.51,-255.62 156.83,-246.46 146.96,-250.3 151.51,-255.62"/>
</g>
<!-- http://purl.org/oseg/ontologies/OTRL#exitCriteria -->
<g id="node10" class="node">
<title>http://purl.org/oseg/ontologies/OTRL#exitCriteria</title>
<ellipse fill="none" stroke="#e377c2" cx="473.19" cy="-338.73" rx="70.01" ry="16.03"/>
<text text-anchor="middle" x="473.19" y="-335.03" font-family="Times,serif" font-size="14.00">exitCriteria</text>
</g>
<!-- http://purl.org/oseg/ontologies/OTRL#exitCriteria&#45;&gt;http://schema.org/Text -->
<g id="edge2" class="edge">
<title>http://purl.org/oseg/ontologies/OTRL#exitCriteria&#45;&gt;http://schema.org/Text</title>
<path fill="none" stroke="black" d="M451.03,-323.17C449.41,-322.03 447.75,-320.87 446.1,-319.7"/>
<polygon fill="black" stroke="black" points="448.03,-316.79 437.83,-313.9 444.01,-322.51 448.03,-316.79"/>
<text text-anchor="middle" x="427.56" y="-310.24" font-family="Times,serif" font-size="14.00">range</text>
</g>
<!-- http://purl.org/oseg/ontologies/OTRL -->
<g id="node11" class="node">
<title>http://purl.org/oseg/ontologies/OTRL</title>
<ellipse fill="none" stroke="#e377c2" cx="361.24" cy="-76.64" rx="60.62" ry="16.03"/>
<text text-anchor="middle" x="361.24" y="-72.94" font-family="Times,serif" font-size="14.00">ns1:OTRL</text>
</g>
<!-- http://purl.org/oseg/ontologies/OTRL&#45;&gt;http://purl.org/oseg/ontologies/OTRL -->
<g id="edge4" class="edge">
<title>http://purl.org/oseg/ontologies/OTRL&#45;&gt;http://purl.org/oseg/ontologies/OTRL</title>
<path fill="none" stroke="black" d="M416.84,-83.27C430.17,-82.75 440.05,-80.54 440.05,-76.64 440.05,-73.81 434.83,-71.86 426.87,-70.81"/>
<polygon fill="black" stroke="black" points="427.09,-67.32 416.84,-70.01 426.53,-74.3 427.09,-67.32"/>
<text text-anchor="middle" x="491.55" y="-72.94" font-family="Times,serif" font-size="14.00">owl:versionIRI</text>
</g>
<!-- http://purl.org/oseg/ontologies/OTRL#Odrl3 -->
<g id="node12" class="node">
<title>http://purl.org/oseg/ontologies/OTRL#Odrl3</title>
<ellipse fill="none" stroke="#e377c2" cx="40.8" cy="-123.03" rx="40.11" ry="16.03"/>
<text text-anchor="middle" x="40.8" y="-119.33" font-family="Times,serif" font-size="14.00">Odrl3</text>
</g>
<!-- http://purl.org/oseg/ontologies/OTRL#Odrl3&#45;&gt;http://purl.org/oseg/ontologies/OTRL#ODRL -->
<g id="edge25" class="edge">
<title>http://purl.org/oseg/ontologies/OTRL#Odrl3&#45;&gt;http://purl.org/oseg/ontologies/OTRL#ODRL</title>
<path fill="none" stroke="black" d="M80.65,-125.98C92.95,-126.89 106.67,-127.9 119.64,-128.86"/>
<polygon fill="black" stroke="black" points="119.61,-132.37 129.84,-129.62 120.13,-125.39 119.61,-132.37"/>
</g>
<!-- http://purl.org/oseg/ontologies/OTRL#Odrl3&#45;&gt;http://www.w3.org/2002/07/owl#class -->
<g id="edge13" class="edge">
<title>http://purl.org/oseg/ontologies/OTRL#Odrl3&#45;&gt;http://www.w3.org/2002/07/owl#class</title>
<path fill="none" stroke="black" d="M68.65,-135.04C90.14,-144.32 120.19,-157.29 144.39,-167.73"/>
<polygon fill="black" stroke="black" points="143.12,-171 153.69,-171.75 145.89,-164.57 143.12,-171"/>
<text text-anchor="middle" x="102.02" y="-155.19" font-family="Times,serif" font-size="14.00">a</text>
</g>
<!-- http://purl.org/oseg/ontologies/OTRL#Odrl2 -->
<g id="node13" class="node">
<title>http://purl.org/oseg/ontologies/OTRL#Odrl2</title>
<ellipse fill="none" stroke="#e377c2" cx="189.41" cy="-77.07" rx="40.11" ry="16.03"/>
<text text-anchor="middle" x="189.41" y="-73.37" font-family="Times,serif" font-size="14.00">Odrl2</text>
</g>
<!-- http://purl.org/oseg/ontologies/OTRL#Odrl2&#45;&gt;http://purl.org/oseg/ontologies/OTRL#ODRL -->
<g id="edge1" class="edge">
<title>http://purl.org/oseg/ontologies/OTRL#Odrl2&#45;&gt;http://purl.org/oseg/ontologies/OTRL#ODRL</title>
<path fill="none" stroke="black" d="M184.06,-93.45C182.7,-97.6 181.21,-102.16 179.75,-106.66"/>
<polygon fill="black" stroke="black" points="176.4,-105.63 176.62,-116.22 183.05,-107.8 176.4,-105.63"/>
</g>
<!-- http://purl.org/oseg/ontologies/OTRL#Odrl2&#45;&gt;http://www.w3.org/2002/07/owl#class -->
<g id="edge14" class="edge">
<title>http://purl.org/oseg/ontologies/OTRL#Odrl2&#45;&gt;http://www.w3.org/2002/07/owl#class</title>
<path fill="none" stroke="black" d="M188.77,-93.51C188.1,-110.77 187.04,-138.15 186.25,-158.54"/>
<polygon fill="black" stroke="black" points="182.75,-158.62 185.86,-168.75 189.74,-158.89 182.75,-158.62"/>
<text text-anchor="middle" x="183.01" y="-114.83" font-family="Times,serif" font-size="14.00">a</text>
</g>
<!-- http://purl.org/oseg/ontologies/OTRL#goal -->
<g id="node14" class="node">
<title>http://purl.org/oseg/ontologies/OTRL#goal</title>
<ellipse fill="none" stroke="#e377c2" cx="406.27" cy="-256.44" rx="33.47" ry="16.03"/>
<text text-anchor="middle" x="406.27" y="-252.74" font-family="Times,serif" font-size="14.00">goal</text>
</g>
<!-- http://purl.org/oseg/ontologies/OTRL#goal&#45;&gt;http://schema.org/Text -->
<g id="edge22" class="edge">
<title>http://purl.org/oseg/ontologies/OTRL#goal&#45;&gt;http://schema.org/Text</title>
<path fill="none" stroke="black" d="M409.9,-272.94C409.92,-273.03 409.94,-273.12 409.96,-273.21"/>
<polygon fill="black" stroke="black" points="406.28,-272.79 411.85,-281.81 413.12,-271.29 406.28,-272.79"/>
<text text-anchor="middle" x="388.93" y="-276.88" font-family="Times,serif" font-size="14.00">range</text>
</g>
<!-- http://purl.org/oseg/ontologies/OTRL#Odrl1 -->
<g id="node15" class="node">
<title>http://purl.org/oseg/ontologies/OTRL#Odrl1</title>
<ellipse fill="none" stroke="#e377c2" cx="91.79" cy="-47.99" rx="40.11" ry="16.03"/>
<text text-anchor="middle" x="91.79" y="-44.29" font-family="Times,serif" font-size="14.00">Odrl1</text>
</g>
<!-- http://purl.org/oseg/ontologies/OTRL#Odrl1&#45;&gt;http://purl.org/oseg/ontologies/OTRL#ODRL -->
<g id="edge5" class="edge">
<title>http://purl.org/oseg/ontologies/OTRL#Odrl1&#45;&gt;http://purl.org/oseg/ontologies/OTRL#ODRL</title>
<path fill="none" stroke="black" d="M106.36,-63.52C118.46,-76.42 135.84,-94.94 149.57,-109.58"/>
<polygon fill="black" stroke="black" points="147.37,-112.35 156.77,-117.25 152.48,-107.56 147.37,-112.35"/>
</g>
<!-- http://purl.org/oseg/ontologies/OTRL#Odrl1&#45;&gt;http://www.w3.org/2002/07/owl#class -->
<g id="edge17" class="edge">
<title>http://purl.org/oseg/ontologies/OTRL#Odrl1&#45;&gt;http://www.w3.org/2002/07/owl#class</title>
<path fill="none" stroke="black" d="M102.5,-63.75C118.68,-87.53 149.46,-132.79 168.57,-160.88"/>
<polygon fill="black" stroke="black" points="165.81,-163.05 174.33,-169.35 171.6,-159.12 165.81,-163.05"/>
<text text-anchor="middle" x="131.04" y="-101.12" font-family="Times,serif" font-size="14.00">a</text>
</g>
<!-- http://purl.org/oseg/ontologies/OTRL#Otrl4 -->
<g id="node16" class="node">
<title>http://purl.org/oseg/ontologies/OTRL#Otrl4</title>
<ellipse fill="none" stroke="#e377c2" cx="281.84" cy="-138.56" rx="38.37" ry="16.03"/>
<text text-anchor="middle" x="281.84" y="-134.86" font-family="Times,serif" font-size="14.00">Otrl4</text>
</g>
<!-- http://purl.org/oseg/ontologies/OTRL#Otrl4&#45;&gt;http://www.w3.org/2002/07/owl#class -->
<g id="edge7" class="edge">
<title>http://purl.org/oseg/ontologies/OTRL#Otrl4&#45;&gt;http://www.w3.org/2002/07/owl#class</title>
<path fill="none" stroke="black" d="M256.45,-150.86C246.31,-155.76 234.43,-161.52 223.3,-166.91"/>
<polygon fill="black" stroke="black" points="221.66,-163.81 214.19,-171.32 224.71,-170.11 221.66,-163.81"/>
<text text-anchor="middle" x="235.37" y="-147.68" font-family="Times,serif" font-size="14.00">a</text>
</g>
<!-- http://purl.org/oseg/ontologies/OTRL#Otrl4&#45;&gt;http://purl.org/oseg/ontologies/OTRL#OTRL -->
<g id="edge15" class="edge">
<title>http://purl.org/oseg/ontologies/OTRL#Otrl4&#45;&gt;http://purl.org/oseg/ontologies/OTRL#OTRL</title>
<path fill="none" stroke="black" d="M264.53,-153.52C246.86,-168.79 219.26,-192.64 199.19,-209.98"/>
<polygon fill="black" stroke="black" points="196.66,-207.54 191.38,-216.73 201.23,-212.84 196.66,-207.54"/>
</g>
<!-- http://purl.org/oseg/ontologies/OTRL#Odrl3Star -->
<g id="node17" class="node">
<title>http://purl.org/oseg/ontologies/OTRL#Odrl3Star</title>
<ellipse fill="none" stroke="#e377c2" cx="267.31" cy="-16.14" rx="62.45" ry="16.03"/>
<text text-anchor="middle" x="267.31" y="-12.44" font-family="Times,serif" font-size="14.00">Odrl3Star</text>
</g>
<!-- http://purl.org/oseg/ontologies/OTRL#Odrl3Star&#45;&gt;http://purl.org/oseg/ontologies/OTRL#ODRL -->
<g id="edge18" class="edge">
<title>http://purl.org/oseg/ontologies/OTRL#Odrl3Star&#45;&gt;http://purl.org/oseg/ontologies/OTRL#ODRL</title>
<path fill="none" stroke="black" d="M253.96,-32.35C237.52,-52.29 209.48,-86.3 190.66,-109.13"/>
<polygon fill="black" stroke="black" points="187.84,-107.05 184.18,-116.99 193.25,-111.5 187.84,-107.05"/>
</g>
<!-- http://purl.org/oseg/ontologies/OTRL#Odrl3Star&#45;&gt;http://www.w3.org/2002/07/owl#class -->
<g id="edge8" class="edge">
<title>http://purl.org/oseg/ontologies/OTRL#Odrl3Star&#45;&gt;http://www.w3.org/2002/07/owl#class</title>
<path fill="none" stroke="black" d="M259.44,-32.37C245.1,-61.93 214.61,-124.76 197.5,-160.01"/>
<polygon fill="black" stroke="black" points="194.28,-158.65 193.06,-169.18 200.57,-161.71 194.28,-158.65"/>
<text text-anchor="middle" x="223.97" y="-99.99" font-family="Times,serif" font-size="14.00">a</text>
</g>
<!-- http://purl.org/oseg/ontologies/OTRL#Otrl3 -->
<g id="node18" class="node">
<title>http://purl.org/oseg/ontologies/OTRL#Otrl3</title>
<ellipse fill="none" stroke="#e377c2" cx="43.61" cy="-239.63" rx="38.37" ry="16.03"/>
<text text-anchor="middle" x="43.61" y="-235.93" font-family="Times,serif" font-size="14.00">Otrl3</text>
</g>
<!-- http://purl.org/oseg/ontologies/OTRL#Otrl3&#45;&gt;http://www.w3.org/2002/07/owl#class -->
<g id="edge9" class="edge">
<title>http://purl.org/oseg/ontologies/OTRL#Otrl3&#45;&gt;http://www.w3.org/2002/07/owl#class</title>
<path fill="none" stroke="black" d="M72.27,-228.64C92.21,-221 119.16,-210.67 141.73,-202.02"/>
<polygon fill="black" stroke="black" points="143.02,-205.27 151.11,-198.42 140.52,-198.73 143.02,-205.27"/>
<text text-anchor="middle" x="102.5" y="-219.13" font-family="Times,serif" font-size="14.00">a</text>
</g>
<!-- http://purl.org/oseg/ontologies/OTRL#Otrl3&#45;&gt;http://purl.org/oseg/ontologies/OTRL#OTRL -->
<g id="edge16" class="edge">
<title>http://purl.org/oseg/ontologies/OTRL#Otrl3&#45;&gt;http://purl.org/oseg/ontologies/OTRL#OTRL</title>
<path fill="none" stroke="black" d="M81.71,-237.3C95.15,-236.48 110.46,-235.54 124.7,-234.67"/>
<polygon fill="black" stroke="black" points="125.07,-238.15 134.83,-234.05 124.64,-231.17 125.07,-238.15"/>
</g>
<!-- http://purl.org/oseg/ontologies/OTRL#Otrl2 -->
<g id="node19" class="node">
<title>http://purl.org/oseg/ontologies/OTRL#Otrl2</title>
<ellipse fill="none" stroke="#e377c2" cx="270.22" cy="-320.32" rx="38.37" ry="16.03"/>
<text text-anchor="middle" x="270.22" y="-316.62" font-family="Times,serif" font-size="14.00">Otrl2</text>
</g>
<!-- http://purl.org/oseg/ontologies/OTRL#Otrl2&#45;&gt;http://www.w3.org/2002/07/owl#class -->
<g id="edge23" class="edge">
<title>http://purl.org/oseg/ontologies/OTRL#Otrl2&#45;&gt;http://www.w3.org/2002/07/owl#class</title>
<path fill="none" stroke="black" d="M260.3,-304.57C245.66,-281.33 218.14,-237.63 200.79,-210.08"/>
<polygon fill="black" stroke="black" points="203.62,-208.01 195.33,-201.42 197.7,-211.74 203.62,-208.01"/>
<text text-anchor="middle" x="226.05" y="-261.13" font-family="Times,serif" font-size="14.00">a</text>
</g>
<!-- http://purl.org/oseg/ontologies/OTRL#Otrl2&#45;&gt;http://purl.org/oseg/ontologies/OTRL#OTRL -->
<g id="edge3" class="edge">
<title>http://purl.org/oseg/ontologies/OTRL#Otrl2&#45;&gt;http://purl.org/oseg/ontologies/OTRL#OTRL</title>
<path fill="none" stroke="black" d="M253.92,-305.28C238.59,-291.14 215.47,-269.8 198.05,-253.73"/>
<polygon fill="black" stroke="black" points="200.22,-250.97 190.5,-246.77 195.47,-256.12 200.22,-250.97"/>
</g>
<!-- http://purl.org/oseg/ontologies/OTRL#Odrl4 -->
<g id="node20" class="node">
<title>http://purl.org/oseg/ontologies/OTRL#Odrl4</title>
<ellipse fill="none" stroke="#e377c2" cx="273.32" cy="-236.51" rx="40.11" ry="16.03"/>
<text text-anchor="middle" x="273.32" y="-232.81" font-family="Times,serif" font-size="14.00">Odrl4</text>
</g>
<!-- http://purl.org/oseg/ontologies/OTRL#Odrl4&#45;&gt;http://purl.org/oseg/ontologies/OTRL#ODRL -->
<g id="edge19" class="edge">
<title>http://purl.org/oseg/ontologies/OTRL#Odrl4&#45;&gt;http://purl.org/oseg/ontologies/OTRL#ODRL</title>
<path fill="none" stroke="black" d="M258.26,-221.19C241.14,-203.78 213.05,-175.21 193.43,-155.25"/>
<polygon fill="black" stroke="black" points="195.88,-152.74 186.37,-148.07 190.88,-157.65 195.88,-152.74"/>
</g>
<!-- http://purl.org/oseg/ontologies/OTRL#Odrl4&#45;&gt;http://www.w3.org/2002/07/owl#class -->
<g id="edge10" class="edge">
<title>http://purl.org/oseg/ontologies/OTRL#Odrl4&#45;&gt;http://www.w3.org/2002/07/owl#class</title>
<path fill="none" stroke="black" d="M250.17,-223.07C240.78,-217.62 229.75,-211.21 219.47,-205.24"/>
<polygon fill="black" stroke="black" points="221.09,-202.14 210.68,-200.14 217.57,-208.19 221.09,-202.14"/>
<text text-anchor="middle" x="230.32" y="-217.96" font-family="Times,serif" font-size="14.00">a</text>
</g>
</g>
</svg>
