<?xml version="1.0" encoding="UTF-8" standalone="no"?>
<!DOCTYPE svg PUBLIC "-//W3C//DTD SVG 1.1//EN"
 "http://www.w3.org/Graphics/SVG/1.1/DTD/svg11.dtd">
<!-- Generated by graphviz version 2.43.0 (0)
 -->
<!-- Title: G Pages: 1 -->
<svg width="571pt" height="381pt"
 viewBox="0.00 0.00 571.05 381.00" xmlns="http://www.w3.org/2000/svg" xmlns:xlink="http://www.w3.org/1999/xlink">
<g id="graph0" class="graph" transform="scale(1 1) rotate(0) translate(4 377)">
<title>G</title>
<polygon fill="white" stroke="transparent" points="-4,4 -4,-377 567.05,-377 567.05,4 -4,4"/>
<!-- http://purl.org/oseg/ontologies/OTRL#ODRL -->
<g id="node1" class="node">
<title>http://purl.org/oseg/ontologies/OTRL#ODRL</title>
<ellipse fill="none" stroke="#e377c2" cx="180.91" cy="-94.96" rx="41.94" ry="16.03"/>
<text text-anchor="middle" x="180.91" y="-91.26" font-family="Times,serif" font-size="14.00">ODRL</text>
</g>
<!-- http://purl.org/oseg/ontologies/OTRL#OTRL -->
<g id="node2" class="node">
<title>http://purl.org/oseg/ontologies/OTRL#OTRL</title>
<ellipse fill="none" stroke="#e377c2" cx="173.17" cy="-204.63" rx="39.7" ry="16.03"/>
<text text-anchor="middle" x="173.17" y="-200.93" font-family="Times,serif" font-size="14.00">OTRL</text>
</g>
<!-- http://www.w3.org/2002/07/owl#class -->
<g id="node3" class="node">
<title>http://www.w3.org/2002/07/owl#class</title>
<ellipse fill="none" stroke="#1f77b4" cx="173.96" cy="-159.45" rx="57.05" ry="16.03"/>
<text text-anchor="middle" x="173.96" y="-155.75" font-family="Times,serif" font-size="14.00">owl:class</text>
</g>
<!-- http://purl.org/oseg/ontologies/OTRL#OTRL&#45;&gt;http://www.w3.org/2002/07/owl#class -->
<g id="edge20" class="edge">
<title>http://purl.org/oseg/ontologies/OTRL#OTRL&#45;&gt;http://www.w3.org/2002/07/owl#class</title>
<path fill="none" stroke="black" d="M173.45,-188.32C173.47,-187.56 173.48,-186.8 173.49,-186.02"/>
<polygon fill="black" stroke="black" points="177,-185.95 173.67,-175.89 170,-185.83 177,-185.95"/>
<text text-anchor="middle" x="168.97" y="-175.97" font-family="Times,serif" font-size="14.00">a</text>
</g>
<!-- http://purl.org/oseg/ontologies/OTRL#Otrl -->
<g id="node4" class="node">
<title>http://purl.org/oseg/ontologies/OTRL#Otrl</title>
<ellipse fill="none" stroke="#e377c2" cx="272.24" cy="-356.64" rx="31.64" ry="16.03"/>
<text text-anchor="middle" x="272.24" y="-352.94" font-family="Times,serif" font-size="14.00">Otrl</text>
</g>
<!-- http://www.w3.org/1999/02/22&#45;rdf&#45;syntax&#45;ns#nil -->
<g id="node5" class="node">
<title>http://www.w3.org/1999/02/22&#45;rdf&#45;syntax&#45;ns#nil</title>
<ellipse fill="none" stroke="#e377c2" cx="422.24" cy="-136.64" rx="42.35" ry="16.03"/>
<text text-anchor="middle" x="422.24" y="-132.94" font-family="Times,serif" font-size="14.00">rdf:nil</text>
</g>
<!-- http://purl.org/oseg/ontologies/OTRL#Otrl3 -->
<g id="node6" class="node">
<title>http://purl.org/oseg/ontologies/OTRL#Otrl3</title>
<ellipse fill="none" stroke="#e377c2" cx="265.1" cy="-293.36" rx="38.37" ry="16.03"/>
<text text-anchor="middle" x="265.1" y="-289.66" font-family="Times,serif" font-size="14.00">Otrl3</text>
</g>
<!-- http://purl.org/oseg/ontologies/OTRL#Otrl3&#45;&gt;http://purl.org/oseg/ontologies/OTRL#OTRL -->
<g id="edge14" class="edge">
<title>http://purl.org/oseg/ontologies/OTRL#Otrl3&#45;&gt;http://purl.org/oseg/ontologies/OTRL#OTRL</title>
<path fill="none" stroke="black" d="M249.51,-278.31C234.85,-264.16 212.73,-242.81 196.07,-226.73"/>
<polygon fill="black" stroke="black" points="198.47,-224.18 188.84,-219.76 193.61,-229.22 198.47,-224.18"/>
</g>
<!-- http://purl.org/oseg/ontologies/OTRL#Otrl3&#45;&gt;http://www.w3.org/2002/07/owl#class -->
<g id="edge15" class="edge">
<title>http://purl.org/oseg/ontologies/OTRL#Otrl3&#45;&gt;http://www.w3.org/2002/07/owl#class</title>
<path fill="none" stroke="black" d="M254.47,-277.73C238.79,-254.7 209.33,-211.41 190.72,-184.08"/>
<polygon fill="black" stroke="black" points="193.61,-182.11 185.09,-175.81 187.83,-186.05 193.61,-182.11"/>
<text text-anchor="middle" x="218.09" y="-234.71" font-family="Times,serif" font-size="14.00">a</text>
</g>
<!-- http://purl.org/oseg/ontologies/OTRL#Odrl3 -->
<g id="node7" class="node">
<title>http://purl.org/oseg/ontologies/OTRL#Odrl3</title>
<ellipse fill="none" stroke="#e377c2" cx="299.63" cy="-188.02" rx="40.11" ry="16.03"/>
<text text-anchor="middle" x="299.63" y="-184.32" font-family="Times,serif" font-size="14.00">Odrl3</text>
</g>
<!-- http://purl.org/oseg/ontologies/OTRL#Odrl3&#45;&gt;http://purl.org/oseg/ontologies/OTRL#ODRL -->
<g id="edge5" class="edge">
<title>http://purl.org/oseg/ontologies/OTRL#Odrl3&#45;&gt;http://purl.org/oseg/ontologies/OTRL#ODRL</title>
<path fill="none" stroke="black" d="M281.08,-173.48C261.42,-158.07 230.18,-133.58 207.82,-116.05"/>
<polygon fill="black" stroke="black" points="209.76,-113.12 199.73,-109.71 205.44,-118.63 209.76,-113.12"/>
</g>
<!-- http://purl.org/oseg/ontologies/OTRL#Odrl3&#45;&gt;http://www.w3.org/2002/07/owl#class -->
<g id="edge1" class="edge">
<title>http://purl.org/oseg/ontologies/OTRL#Odrl3&#45;&gt;http://www.w3.org/2002/07/owl#class</title>
<path fill="none" stroke="black" d="M264.29,-179.99C253.29,-177.49 240.88,-174.67 228.87,-171.94"/>
<polygon fill="black" stroke="black" points="229.44,-168.48 218.91,-169.67 227.89,-175.3 229.44,-168.48"/>
<text text-anchor="middle" x="242.08" y="-179.76" font-family="Times,serif" font-size="14.00">a</text>
</g>
<!-- http://purl.org/oseg/ontologies/OTRL#Odrl2 -->
<g id="node8" class="node">
<title>http://purl.org/oseg/ontologies/OTRL#Odrl2</title>
<ellipse fill="none" stroke="#e377c2" cx="59.47" cy="-188.99" rx="40.11" ry="16.03"/>
<text text-anchor="middle" x="59.47" y="-185.29" font-family="Times,serif" font-size="14.00">Odrl2</text>
</g>
<!-- http://purl.org/oseg/ontologies/OTRL#Odrl2&#45;&gt;http://purl.org/oseg/ontologies/OTRL#ODRL -->
<g id="edge11" class="edge">
<title>http://purl.org/oseg/ontologies/OTRL#Odrl2&#45;&gt;http://purl.org/oseg/ontologies/OTRL#ODRL</title>
<path fill="none" stroke="black" d="M78.18,-174.5C98.44,-158.81 130.96,-133.64 153.97,-115.82"/>
<polygon fill="black" stroke="black" points="156.22,-118.51 161.98,-109.62 151.93,-112.97 156.22,-118.51"/>
</g>
<!-- http://purl.org/oseg/ontologies/OTRL#Odrl2&#45;&gt;http://www.w3.org/2002/07/owl#class -->
<g id="edge2" class="edge">
<title>http://purl.org/oseg/ontologies/OTRL#Odrl2&#45;&gt;http://www.w3.org/2002/07/owl#class</title>
<path fill="none" stroke="black" d="M93.51,-180.21C102.31,-177.94 112,-175.44 121.51,-172.98"/>
<polygon fill="black" stroke="black" points="122.51,-176.34 131.31,-170.46 120.76,-169.56 122.51,-176.34"/>
<text text-anchor="middle" x="112.01" y="-180.4" font-family="Times,serif" font-size="14.00">a</text>
</g>
<!-- http://schema.org/Text -->
<g id="node9" class="node">
<title>http://schema.org/Text</title>
<ellipse fill="none" stroke="#e377c2" cx="415.17" cy="-300.42" rx="74.91" ry="16.03"/>
<text text-anchor="middle" x="415.17" y="-296.72" font-family="Times,serif" font-size="14.00">schema:Text</text>
</g>
<!-- http://purl.org/oseg/ontologies/OTRL#Otrl1 -->
<g id="node10" class="node">
<title>http://purl.org/oseg/ontologies/OTRL#Otrl1</title>
<ellipse fill="none" stroke="#e377c2" cx="38.35" cy="-138.7" rx="38.37" ry="16.03"/>
<text text-anchor="middle" x="38.35" y="-135" font-family="Times,serif" font-size="14.00">Otrl1</text>
</g>
<!-- http://purl.org/oseg/ontologies/OTRL#Otrl1&#45;&gt;http://purl.org/oseg/ontologies/OTRL#OTRL -->
<g id="edge9" class="edge">
<title>http://purl.org/oseg/ontologies/OTRL#Otrl1&#45;&gt;http://purl.org/oseg/ontologies/OTRL#OTRL</title>
<path fill="none" stroke="black" d="M63.71,-151.1C84.76,-161.4 114.92,-176.15 138.25,-187.56"/>
<polygon fill="black" stroke="black" points="136.94,-190.81 147.47,-192.06 140.02,-184.53 136.94,-190.81"/>
</g>
<!-- http://purl.org/oseg/ontologies/OTRL#Otrl1&#45;&gt;http://www.w3.org/2002/07/owl#class -->
<g id="edge18" class="edge">
<title>http://purl.org/oseg/ontologies/OTRL#Otrl1&#45;&gt;http://www.w3.org/2002/07/owl#class</title>
<path fill="none" stroke="black" d="M74.33,-144.21C86.34,-146.04 100.07,-148.15 113.41,-150.19"/>
<polygon fill="black" stroke="black" points="113.1,-153.68 123.51,-151.73 114.16,-146.76 113.1,-153.68"/>
<text text-anchor="middle" x="89.37" y="-151" font-family="Times,serif" font-size="14.00">a</text>
</g>
<!-- http://purl.org/oseg/ontologies/OTRL -->
<g id="node11" class="node">
<title>http://purl.org/oseg/ontologies/OTRL</title>
<ellipse fill="none" stroke="#e377c2" cx="381.24" cy="-16.64" rx="60.62" ry="16.03"/>
<text text-anchor="middle" x="381.24" y="-12.94" font-family="Times,serif" font-size="14.00">ns1:OTRL</text>
</g>
<!-- http://purl.org/oseg/ontologies/OTRL&#45;&gt;http://purl.org/oseg/ontologies/OTRL -->
<g id="edge3" class="edge">
<title>http://purl.org/oseg/ontologies/OTRL&#45;&gt;http://purl.org/oseg/ontologies/OTRL</title>
<path fill="none" stroke="black" d="M436.84,-23.27C450.17,-22.75 460.05,-20.54 460.05,-16.64 460.05,-13.81 454.83,-11.86 446.87,-10.81"/>
<polygon fill="black" stroke="black" points="447.09,-7.32 436.84,-10.01 446.53,-14.3 447.09,-7.32"/>
<text text-anchor="middle" x="511.55" y="-12.94" font-family="Times,serif" font-size="14.00">owl:versionIRI</text>
</g>
<!-- http://purl.org/oseg/ontologies/OTRL#goal -->
<g id="node12" class="node">
<title>http://purl.org/oseg/ontologies/OTRL#goal</title>
<ellipse fill="none" stroke="#e377c2" cx="475.4" cy="-340.99" rx="33.47" ry="16.03"/>
<text text-anchor="middle" x="475.4" y="-337.29" font-family="Times,serif" font-size="14.00">goal</text>
</g>
<!-- http://purl.org/oseg/ontologies/OTRL#goal&#45;&gt;http://schema.org/Text -->
<g id="edge10" class="edge">
<title>http://purl.org/oseg/ontologies/OTRL#goal&#45;&gt;http://schema.org/Text</title>
<path fill="none" stroke="black" d="M455.68,-327.71C452.85,-325.8 449.88,-323.8 446.89,-321.79"/>
<polygon fill="black" stroke="black" points="448.75,-318.82 438.5,-316.14 444.84,-324.63 448.75,-318.82"/>
<text text-anchor="middle" x="430.28" y="-328.55" font-family="Times,serif" font-size="14.00">range</text>
</g>
<!-- http://purl.org/oseg/ontologies/OTRL#Odrl4 -->
<g id="node13" class="node">
<title>http://purl.org/oseg/ontologies/OTRL#Odrl4</title>
<ellipse fill="none" stroke="#e377c2" cx="159.98" cy="-40.04" rx="40.11" ry="16.03"/>
<text text-anchor="middle" x="159.98" y="-36.34" font-family="Times,serif" font-size="14.00">Odrl4</text>
</g>
<!-- http://purl.org/oseg/ontologies/OTRL#Odrl4&#45;&gt;http://purl.org/oseg/ontologies/OTRL#ODRL -->
<g id="edge8" class="edge">
<title>http://purl.org/oseg/ontologies/OTRL#Odrl4&#45;&gt;http://purl.org/oseg/ontologies/OTRL#ODRL</title>
<path fill="none" stroke="black" d="M166.15,-56.22C167.71,-60.32 169.43,-64.82 171.12,-69.26"/>
<polygon fill="black" stroke="black" points="167.89,-70.61 174.72,-78.71 174.43,-68.12 167.89,-70.61"/>
</g>
<!-- http://purl.org/oseg/ontologies/OTRL#Odrl4&#45;&gt;http://www.w3.org/2002/07/owl#class -->
<g id="edge19" class="edge">
<title>http://purl.org/oseg/ontologies/OTRL#Odrl4&#45;&gt;http://www.w3.org/2002/07/owl#class</title>
<path fill="none" stroke="black" d="M161.92,-56.65C164.23,-76.34 168.1,-109.43 170.83,-132.74"/>
<polygon fill="black" stroke="black" points="167.39,-133.47 172.03,-142.99 174.35,-132.65 167.39,-133.47"/>
<text text-anchor="middle" x="161.88" y="-98.5" font-family="Times,serif" font-size="14.00">a</text>
</g>
<!-- http://purl.org/oseg/ontologies/OTRL#Odrl -->
<g id="node14" class="node">
<title>http://purl.org/oseg/ontologies/OTRL#Odrl</title>
<ellipse fill="none" stroke="#e377c2" cx="255.18" cy="-15.77" rx="33.88" ry="16.03"/>
<text text-anchor="middle" x="255.18" y="-12.07" font-family="Times,serif" font-size="14.00">Odrl</text>
</g>
<!-- http://purl.org/oseg/ontologies/OTRL#Odrl&#45;&gt;http://www.w3.org/2002/07/owl#class -->
<g id="edge7" class="edge">
<title>http://purl.org/oseg/ontologies/OTRL#Odrl&#45;&gt;http://www.w3.org/2002/07/owl#class</title>
<path fill="none" stroke="black" d="M246.18,-31.69C232.17,-56.48 205.01,-104.52 188.29,-134.11"/>
<polygon fill="black" stroke="black" points="185.13,-132.59 183.25,-143.01 191.22,-136.03 185.13,-132.59"/>
<text text-anchor="middle" x="221.73" y="-71.7" font-family="Times,serif" font-size="14.00">a</text>
</g>
<!-- http://purl.org/oseg/ontologies/OTRL#Odrl1 -->
<g id="node15" class="node">
<title>http://purl.org/oseg/ontologies/OTRL#Odrl1</title>
<ellipse fill="none" stroke="#e377c2" cx="65.76" cy="-42.34" rx="40.11" ry="16.03"/>
<text text-anchor="middle" x="65.76" y="-38.64" font-family="Times,serif" font-size="14.00">Odrl1</text>
</g>
<!-- http://purl.org/oseg/ontologies/OTRL#Odrl1&#45;&gt;http://purl.org/oseg/ontologies/OTRL#ODRL -->
<g id="edge6" class="edge">
<title>http://purl.org/oseg/ontologies/OTRL#Odrl1&#45;&gt;http://purl.org/oseg/ontologies/OTRL#ODRL</title>
<path fill="none" stroke="black" d="M92.47,-54.54C107.8,-61.55 127.27,-70.45 144.04,-78.11"/>
<polygon fill="black" stroke="black" points="143,-81.48 153.55,-82.46 145.91,-75.12 143,-81.48"/>
</g>
<!-- http://purl.org/oseg/ontologies/OTRL#Odrl1&#45;&gt;http://www.w3.org/2002/07/owl#class -->
<g id="edge21" class="edge">
<title>http://purl.org/oseg/ontologies/OTRL#Odrl1&#45;&gt;http://www.w3.org/2002/07/owl#class</title>
<path fill="none" stroke="black" d="M79.9,-57.65C98.33,-77.59 130.72,-112.65 152.26,-135.97"/>
<polygon fill="black" stroke="black" points="149.76,-138.42 159.12,-143.39 154.9,-133.67 149.76,-138.42"/>
<text text-anchor="middle" x="111.58" y="-100.61" font-family="Times,serif" font-size="14.00">a</text>
</g>
<!-- http://purl.org/oseg/ontologies/OTRL#exitCriteria -->
<g id="node16" class="node">
<title>http://purl.org/oseg/ontologies/OTRL#exitCriteria</title>
<ellipse fill="none" stroke="#e377c2" cx="411.21" cy="-256.22" rx="70.01" ry="16.03"/>
<text text-anchor="middle" x="411.21" y="-252.52" font-family="Times,serif" font-size="14.00">exitCriteria</text>
</g>
<!-- http://purl.org/oseg/ontologies/OTRL#exitCriteria&#45;&gt;http://schema.org/Text -->
<g id="edge17" class="edge">
<title>http://purl.org/oseg/ontologies/OTRL#exitCriteria&#45;&gt;http://schema.org/Text</title>
<path fill="none" stroke="black" d="M412.68,-272.68C412.72,-273.15 412.77,-273.62 412.81,-274.09"/>
<polygon fill="black" stroke="black" points="409.33,-274.45 413.71,-284.1 416.3,-273.82 409.33,-274.45"/>
<text text-anchor="middle" x="391.75" y="-277.19" font-family="Times,serif" font-size="14.00">range</text>
</g>
<!-- http://purl.org/oseg/ontologies/OTRL#Otrl2 -->
<g id="node17" class="node">
<title>http://purl.org/oseg/ontologies/OTRL#Otrl2</title>
<ellipse fill="none" stroke="#e377c2" cx="299.1" cy="-135.96" rx="38.37" ry="16.03"/>
<text text-anchor="middle" x="299.1" y="-132.26" font-family="Times,serif" font-size="14.00">Otrl2</text>
</g>
<!-- http://purl.org/oseg/ontologies/OTRL#Otrl2&#45;&gt;http://purl.org/oseg/ontologies/OTRL#OTRL -->
<g id="edge22" class="edge">
<title>http://purl.org/oseg/ontologies/OTRL#Otrl2&#45;&gt;http://purl.org/oseg/ontologies/OTRL#OTRL</title>
<path fill="none" stroke="black" d="M275.41,-148.88C255.83,-159.55 227.83,-174.83 206.07,-186.69"/>
<polygon fill="black" stroke="black" points="204.28,-183.68 197.18,-191.54 207.63,-189.83 204.28,-183.68"/>
</g>
<!-- http://purl.org/oseg/ontologies/OTRL#Otrl2&#45;&gt;http://www.w3.org/2002/07/owl#class -->
<g id="edge23" class="edge">
<title>http://purl.org/oseg/ontologies/OTRL#Otrl2&#45;&gt;http://www.w3.org/2002/07/owl#class</title>
<path fill="none" stroke="black" d="M263.9,-142.57C253.94,-144.44 242.83,-146.52 231.9,-148.58"/>
<polygon fill="black" stroke="black" points="231.14,-145.16 221.96,-150.44 232.43,-152.04 231.14,-145.16"/>
<text text-anchor="middle" x="243.4" y="-149.37" font-family="Times,serif" font-size="14.00">a</text>
</g>
<!-- http://purl.org/oseg/ontologies/OTRL#Otrl4 -->
<g id="node18" class="node">
<title>http://purl.org/oseg/ontologies/OTRL#Otrl4</title>
<ellipse fill="none" stroke="#e377c2" cx="72.41" cy="-282.19" rx="38.37" ry="16.03"/>
<text text-anchor="middle" x="72.41" y="-278.49" font-family="Times,serif" font-size="14.00">Otrl4</text>
</g>
<!-- http://purl.org/oseg/ontologies/OTRL#Otrl4&#45;&gt;http://purl.org/oseg/ontologies/OTRL#OTRL -->
<g id="edge4" class="edge">
<title>http://purl.org/oseg/ontologies/OTRL#Otrl4&#45;&gt;http://purl.org/oseg/ontologies/OTRL#OTRL</title>
<path fill="none" stroke="black" d="M91.36,-267.6C106.84,-255.68 128.91,-238.69 146.23,-225.37"/>
<polygon fill="black" stroke="black" points="148.51,-228.03 154.3,-219.16 144.24,-222.48 148.51,-228.03"/>
</g>
<!-- http://purl.org/oseg/ontologies/OTRL#Otrl4&#45;&gt;http://www.w3.org/2002/07/owl#class -->
<g id="edge24" class="edge">
<title>http://purl.org/oseg/ontologies/OTRL#Otrl4&#45;&gt;http://www.w3.org/2002/07/owl#class</title>
<path fill="none" stroke="black" d="M85.27,-266.64C102.63,-245.66 133.72,-208.09 154.09,-183.46"/>
<polygon fill="black" stroke="black" points="156.88,-185.59 160.56,-175.65 151.49,-181.12 156.88,-185.59"/>
<text text-anchor="middle" x="115.18" y="-228.85" font-family="Times,serif" font-size="14.00">a</text>
</g>
<!-- http://purl.org/oseg/ontologies/OTRL#Odrl3Star -->
<g id="node19" class="node">
<title>http://purl.org/oseg/ontologies/OTRL#Odrl3Star</title>
<ellipse fill="none" stroke="#e377c2" cx="334.09" cy="-61.63" rx="62.45" ry="16.03"/>
<text text-anchor="middle" x="334.09" y="-57.93" font-family="Times,serif" font-size="14.00">Odrl3Star</text>
</g>
<!-- http://purl.org/oseg/ontologies/OTRL#Odrl3Star&#45;&gt;http://purl.org/oseg/ontologies/OTRL#ODRL -->
<g id="edge16" class="edge">
<title>http://purl.org/oseg/ontologies/OTRL#Odrl3Star&#45;&gt;http://purl.org/oseg/ontologies/OTRL#ODRL</title>
<path fill="none" stroke="black" d="M286.04,-72.09C267.39,-76.15 246.1,-80.78 227.58,-84.81"/>
<polygon fill="black" stroke="black" points="226.63,-81.43 217.61,-86.98 228.12,-88.27 226.63,-81.43"/>
</g>
<!-- http://purl.org/oseg/ontologies/OTRL#Odrl3Star&#45;&gt;http://www.w3.org/2002/07/owl#class -->
<g id="edge25" class="edge">
<title>http://purl.org/oseg/ontologies/OTRL#Odrl3Star&#45;&gt;http://www.w3.org/2002/07/owl#class</title>
<path fill="none" stroke="black" d="M309.42,-76.7C281.87,-93.53 237.16,-120.84 206.7,-139.45"/>
<polygon fill="black" stroke="black" points="204.84,-136.49 198.13,-144.69 208.49,-142.46 204.84,-136.49"/>
<text text-anchor="middle" x="253.56" y="-111.88" font-family="Times,serif" font-size="14.00">a</text>
</g>
<!-- http://purl.org/oseg/ontologies/OTRL#Otrl5 -->
<g id="node20" class="node">
<title>http://purl.org/oseg/ontologies/OTRL#Otrl5</title>
<ellipse fill="none" stroke="#e377c2" cx="168.14" cy="-326.07" rx="38.37" ry="16.03"/>
<text text-anchor="middle" x="168.14" y="-322.37" font-family="Times,serif" font-size="14.00">Otrl5</text>
</g>
<!-- http://purl.org/oseg/ontologies/OTRL#Otrl5&#45;&gt;http://purl.org/oseg/ontologies/OTRL#OTRL -->
<g id="edge12" class="edge">
<title>http://purl.org/oseg/ontologies/OTRL#Otrl5&#45;&gt;http://purl.org/oseg/ontologies/OTRL#OTRL</title>
<path fill="none" stroke="black" d="M168.82,-309.69C169.65,-289.59 171.07,-255.24 172.06,-231.31"/>
<polygon fill="black" stroke="black" points="175.57,-231.28 172.49,-221.14 168.57,-230.99 175.57,-231.28"/>
</g>
<!-- http://purl.org/oseg/ontologies/OTRL#Otrl5&#45;&gt;http://www.w3.org/2002/07/owl#class -->
<g id="edge13" class="edge">
<title>http://purl.org/oseg/ontologies/OTRL#Otrl5&#45;&gt;http://www.w3.org/2002/07/owl#class</title>
<path fill="none" stroke="black" d="M168.71,-309.79C169.71,-281.12 171.8,-221.36 173.02,-186.44"/>
<polygon fill="black" stroke="black" points="176.53,-186.16 173.38,-176.05 169.53,-185.92 176.53,-186.16"/>
<text text-anchor="middle" x="166.36" y="-251.91" font-family="Times,serif" font-size="14.00">a</text>
</g>
</g>
</svg>
