<?xml version="1.0" encoding="UTF-8" standalone="no"?>
<!DOCTYPE svg PUBLIC "-//W3C//DTD SVG 1.1//EN"
 "http://www.w3.org/Graphics/SVG/1.1/DTD/svg11.dtd">
<!-- Generated by graphviz version 2.43.0 (0)
 -->
<!-- Title: G Pages: 1 -->
<svg width="1220pt" height="491pt"
 viewBox="0.00 0.00 1220.00 491.00" xmlns="http://www.w3.org/2000/svg" xmlns:xlink="http://www.w3.org/1999/xlink">
<g id="graph0" class="graph" transform="scale(1 1) rotate(0) translate(4 487)">
<title>G</title>
<polygon fill="white" stroke="transparent" points="-4,4 -4,-487 1216,-487 1216,4 -4,4"/>
<!-- http://www.w3.org/2002/07/owl#class -->
<g id="node1" class="node">
<title>http://www.w3.org/2002/07/owl#class</title>
<ellipse fill="none" stroke="#1f77b4" cx="333.82" cy="-242.29" rx="57.05" ry="16.03"/>
<text text-anchor="middle" x="333.82" y="-238.59" font-family="Times,serif" font-size="14.00">owl:class</text>
</g>
<!-- http://purl.org/oseg/ontologies/OTRL#OTRL -->
<g id="node2" class="node">
<title>http://purl.org/oseg/ontologies/OTRL#OTRL</title>
<ellipse fill="none" stroke="#e377c2" cx="619.48" cy="-269.29" rx="39.7" ry="16.03"/>
<text text-anchor="middle" x="619.48" y="-265.59" font-family="Times,serif" font-size="14.00">OTRL</text>
</g>
<!-- http://purl.org/oseg/ontologies/OTRL#OTRL&#45;&gt;http://www.w3.org/2002/07/owl#class -->
<g id="edge3" class="edge">
<title>http://purl.org/oseg/ontologies/OTRL#OTRL&#45;&gt;http://www.w3.org/2002/07/owl#class</title>
<path fill="none" stroke="black" d="M580.66,-265.62C533.84,-261.19 454.46,-253.69 398.38,-248.39"/>
<polygon fill="black" stroke="black" points="398.48,-244.88 388.19,-247.43 397.82,-251.85 398.48,-244.88"/>
<text text-anchor="middle" x="485.02" y="-260.8" font-family="Times,serif" font-size="14.00">a</text>
</g>
<!-- http://purl.org/oseg/ontologies/OTRL#ODRL -->
<g id="node3" class="node">
<title>http://purl.org/oseg/ontologies/OTRL#ODRL</title>
<ellipse fill="none" stroke="#e377c2" cx="139.24" cy="-218.59" rx="41.94" ry="16.03"/>
<text text-anchor="middle" x="139.24" y="-214.89" font-family="Times,serif" font-size="14.00">ODRL</text>
</g>
<!-- http://purl.org/oseg/ontologies/OTRL#ODRL&#45;&gt;http://www.w3.org/2002/07/owl#class -->
<g id="edge29" class="edge">
<title>http://purl.org/oseg/ontologies/OTRL#ODRL&#45;&gt;http://www.w3.org/2002/07/owl#class</title>
<path fill="none" stroke="black" d="M179.09,-223.45C205.56,-226.67 240.87,-230.97 271.08,-234.65"/>
<polygon fill="black" stroke="black" points="270.75,-238.13 281.1,-235.87 271.6,-231.18 270.75,-238.13"/>
<text text-anchor="middle" x="220.58" y="-232.85" font-family="Times,serif" font-size="14.00">a</text>
</g>
<!-- http://purl.org/oseg/ontologies/OTRL#OTRL&#45;8 -->
<g id="node4" class="node">
<title>http://purl.org/oseg/ontologies/OTRL#OTRL&#45;8</title>
<ellipse fill="none" stroke="#e377c2" cx="519.34" cy="-144.94" rx="49.49" ry="16.03"/>
<text text-anchor="middle" x="519.34" y="-141.24" font-family="Times,serif" font-size="14.00">OTRL&#45;8</text>
</g>
<!-- http://purl.org/oseg/ontologies/OTRL#OTRL&#45;8&#45;&gt;http://www.w3.org/2002/07/owl#class -->
<g id="edge22" class="edge">
<title>http://purl.org/oseg/ontologies/OTRL#OTRL&#45;8&#45;&gt;http://www.w3.org/2002/07/owl#class</title>
<path fill="none" stroke="black" d="M492.76,-158.89C460.66,-175.73 406.5,-204.15 370.46,-223.06"/>
<polygon fill="black" stroke="black" points="368.49,-220.14 361.26,-227.89 371.74,-226.34 368.49,-220.14"/>
<text text-anchor="middle" x="427.11" y="-194.78" font-family="Times,serif" font-size="14.00">a</text>
</g>
<!-- http://purl.org/oseg/ontologies/OTRL#OTRL&#45;8&#45;&gt;http://purl.org/oseg/ontologies/OTRL#OTRL -->
<g id="edge5" class="edge">
<title>http://purl.org/oseg/ontologies/OTRL#OTRL&#45;8&#45;&gt;http://purl.org/oseg/ontologies/OTRL#OTRL</title>
<path fill="none" stroke="black" d="M532.02,-160.69C549.33,-182.18 580.48,-220.86 600.55,-245.79"/>
<polygon fill="black" stroke="black" points="597.9,-248.07 606.9,-253.67 603.35,-243.68 597.9,-248.07"/>
</g>
<!-- http://schema.org/Text -->
<g id="node5" class="node">
<title>http://schema.org/Text</title>
<ellipse fill="none" stroke="#e377c2" cx="1136.88" cy="-282.57" rx="74.91" ry="16.03"/>
<text text-anchor="middle" x="1136.88" y="-278.87" font-family="Times,serif" font-size="14.00">schema:Text</text>
</g>
<!-- http://purl.org/oseg/ontologies/OTRL#OTRL&#45;3 -->
<g id="node6" class="node">
<title>http://purl.org/oseg/ontologies/OTRL#OTRL&#45;3</title>
<ellipse fill="none" stroke="#e377c2" cx="525.34" cy="-462.06" rx="49.49" ry="16.03"/>
<text text-anchor="middle" x="525.34" y="-458.36" font-family="Times,serif" font-size="14.00">OTRL&#45;3</text>
</g>
<!-- http://purl.org/oseg/ontologies/OTRL#OTRL&#45;3&#45;&gt;http://www.w3.org/2002/07/owl#class -->
<g id="edge2" class="edge">
<title>http://purl.org/oseg/ontologies/OTRL#OTRL&#45;3&#45;&gt;http://www.w3.org/2002/07/owl#class</title>
<path fill="none" stroke="black" d="M511.57,-446.25C478.38,-408.17 393.85,-311.17 354.52,-266.04"/>
<polygon fill="black" stroke="black" points="356.94,-263.48 347.73,-258.24 351.66,-268.08 356.94,-263.48"/>
<text text-anchor="middle" x="428.55" y="-344.95" font-family="Times,serif" font-size="14.00">a</text>
</g>
<!-- http://purl.org/oseg/ontologies/OTRL#OTRL&#45;3&#45;&gt;http://purl.org/oseg/ontologies/OTRL#OTRL -->
<g id="edge39" class="edge">
<title>http://purl.org/oseg/ontologies/OTRL#OTRL&#45;3&#45;&gt;http://purl.org/oseg/ontologies/OTRL#OTRL</title>
<path fill="none" stroke="black" d="M533.21,-445.96C549.58,-412.43 587.42,-334.93 607.1,-294.64"/>
<polygon fill="black" stroke="black" points="610.33,-296 611.57,-285.48 604.04,-292.93 610.33,-296"/>
</g>
<!-- http://purl.org/oseg/ontologies/OTRL#ODRL&#45;2 -->
<g id="node7" class="node">
<title>http://purl.org/oseg/ontologies/OTRL#ODRL&#45;2</title>
<ellipse fill="none" stroke="#e377c2" cx="93.9" cy="-379.84" rx="50.82" ry="16.03"/>
<text text-anchor="middle" x="93.9" y="-376.14" font-family="Times,serif" font-size="14.00">ODRL&#45;2</text>
</g>
<!-- http://purl.org/oseg/ontologies/OTRL#ODRL&#45;2&#45;&gt;http://www.w3.org/2002/07/owl#class -->
<g id="edge4" class="edge">
<title>http://purl.org/oseg/ontologies/OTRL#ODRL&#45;2&#45;&gt;http://www.w3.org/2002/07/owl#class</title>
<path fill="none" stroke="black" d="M119.12,-365.38C162.3,-340.62 250.43,-290.1 299.28,-262.09"/>
<polygon fill="black" stroke="black" points="301.28,-264.98 308.22,-256.97 297.8,-258.9 301.28,-264.98"/>
<text text-anchor="middle" x="204.7" y="-317.53" font-family="Times,serif" font-size="14.00">a</text>
</g>
<!-- http://purl.org/oseg/ontologies/OTRL#ODRL&#45;2&#45;&gt;http://purl.org/oseg/ontologies/OTRL#ODRL -->
<g id="edge36" class="edge">
<title>http://purl.org/oseg/ontologies/OTRL#ODRL&#45;2&#45;&gt;http://purl.org/oseg/ontologies/OTRL#ODRL</title>
<path fill="none" stroke="black" d="M98.5,-363.49C106.34,-335.6 122.37,-278.6 131.81,-245"/>
<polygon fill="black" stroke="black" points="135.29,-245.56 134.63,-234.98 128.56,-243.66 135.29,-245.56"/>
</g>
<!-- http://purl.org/oseg/ontologies/OTRL#hardwareDescription -->
<g id="node8" class="node">
<title>http://purl.org/oseg/ontologies/OTRL#hardwareDescription</title>
<ellipse fill="none" stroke="#e377c2" cx="892.39" cy="-467.07" rx="118.17" ry="16.03"/>
<text text-anchor="middle" x="892.39" y="-463.37" font-family="Times,serif" font-size="14.00">hardwareDescription</text>
</g>
<!-- http://purl.org/oseg/ontologies/OTRL#hardwareDescription&#45;&gt;http://purl.org/oseg/ontologies/OTRL#OTRL -->
<g id="edge28" class="edge">
<title>http://purl.org/oseg/ontologies/OTRL#hardwareDescription&#45;&gt;http://purl.org/oseg/ontologies/OTRL#OTRL</title>
<path fill="none" stroke="black" d="M870.06,-450.89C820.51,-414.98 701.51,-328.74 647.27,-289.43"/>
<polygon fill="black" stroke="black" points="649.29,-286.57 639.14,-283.54 645.18,-292.24 649.29,-286.57"/>
<text text-anchor="middle" x="732.16" y="-373.96" font-family="Times,serif" font-size="14.00">domain</text>
</g>
<!-- http://purl.org/oseg/ontologies/OTRL#hardwareDescription&#45;&gt;http://schema.org/Text -->
<g id="edge1" class="edge">
<title>http://purl.org/oseg/ontologies/OTRL#hardwareDescription&#45;&gt;http://schema.org/Text</title>
<path fill="none" stroke="black" d="M913.66,-451.02C957.48,-417.95 1057.88,-342.19 1107.71,-304.58"/>
<polygon fill="black" stroke="black" points="1109.96,-307.27 1115.83,-298.45 1105.74,-301.68 1109.96,-307.27"/>
<text text-anchor="middle" x="1031.69" y="-381.6" font-family="Times,serif" font-size="14.00">range</text>
</g>
<!-- http://purl.org/oseg/ontologies/OTRL#ODRL&#45;5 -->
<g id="node9" class="node">
<title>http://purl.org/oseg/ontologies/OTRL#ODRL&#45;5</title>
<ellipse fill="none" stroke="#e377c2" cx="64.94" cy="-146.43" rx="50.82" ry="16.03"/>
<text text-anchor="middle" x="64.94" y="-142.73" font-family="Times,serif" font-size="14.00">ODRL&#45;5</text>
</g>
<!-- http://purl.org/oseg/ontologies/OTRL#ODRL&#45;5&#45;&gt;http://www.w3.org/2002/07/owl#class -->
<g id="edge27" class="edge">
<title>http://purl.org/oseg/ontologies/OTRL#ODRL&#45;5&#45;&gt;http://www.w3.org/2002/07/owl#class</title>
<path fill="none" stroke="black" d="M99,-158.57C147.02,-175.69 234.75,-206.97 288.32,-226.06"/>
<polygon fill="black" stroke="black" points="287.31,-229.42 297.91,-229.48 289.66,-222.83 287.31,-229.42"/>
<text text-anchor="middle" x="189.16" y="-196.12" font-family="Times,serif" font-size="14.00">a</text>
</g>
<!-- http://purl.org/oseg/ontologies/OTRL#ODRL&#45;5&#45;&gt;http://purl.org/oseg/ontologies/OTRL#ODRL -->
<g id="edge7" class="edge">
<title>http://purl.org/oseg/ontologies/OTRL#ODRL&#45;5&#45;&gt;http://purl.org/oseg/ontologies/OTRL#ODRL</title>
<path fill="none" stroke="black" d="M81.07,-162.09C91.33,-172.06 104.79,-185.13 116.17,-196.19"/>
<polygon fill="black" stroke="black" points="114.05,-199 123.66,-203.46 118.93,-193.98 114.05,-199"/>
</g>
<!-- http://purl.org/oseg/ontologies/OTRL -->
<g id="node10" class="node">
<title>http://purl.org/oseg/ontologies/OTRL</title>
<ellipse fill="none" stroke="#e377c2" cx="841.24" cy="-76.64" rx="60.62" ry="16.03"/>
<text text-anchor="middle" x="841.24" y="-72.94" font-family="Times,serif" font-size="14.00">ns1:OTRL</text>
</g>
<!-- http://purl.org/oseg/ontologies/OTRL&#45;&gt;http://purl.org/oseg/ontologies/OTRL -->
<g id="edge9" class="edge">
<title>http://purl.org/oseg/ontologies/OTRL&#45;&gt;http://purl.org/oseg/ontologies/OTRL</title>
<path fill="none" stroke="black" d="M896.84,-83.27C910.17,-82.75 920.05,-80.54 920.05,-76.64 920.05,-73.81 914.83,-71.86 906.87,-70.81"/>
<polygon fill="black" stroke="black" points="907.09,-67.32 896.84,-70.01 906.53,-74.3 907.09,-67.32"/>
<text text-anchor="middle" x="971.55" y="-72.94" font-family="Times,serif" font-size="14.00">owl:versionIRI</text>
</g>
<!-- http://purl.org/oseg/ontologies/OTRL#documentationDescription -->
<g id="node11" class="node">
<title>http://purl.org/oseg/ontologies/OTRL#documentationDescription</title>
<ellipse fill="none" stroke="#e377c2" cx="956.62" cy="-221.31" rx="120.83" ry="16.03"/>
<text text-anchor="middle" x="956.62" y="-217.61" font-family="Times,serif" font-size="14.00">documentationDesc...</text>
</g>
<!-- http://purl.org/oseg/ontologies/OTRL#documentationDescription&#45;&gt;http://purl.org/oseg/ontologies/OTRL#OTRL -->
<g id="edge40" class="edge">
<title>http://purl.org/oseg/ontologies/OTRL#documentationDescription&#45;&gt;http://purl.org/oseg/ontologies/OTRL#OTRL</title>
<path fill="none" stroke="black" d="M873.28,-233.17C808.38,-242.41 720.62,-254.9 667.13,-262.51"/>
<polygon fill="black" stroke="black" points="666.32,-259.09 656.91,-263.96 667.3,-266.02 666.32,-259.09"/>
<text text-anchor="middle" x="743.71" y="-251.64" font-family="Times,serif" font-size="14.00">domain</text>
</g>
<!-- http://purl.org/oseg/ontologies/OTRL#documentationDescription&#45;&gt;http://schema.org/Text -->
<g id="edge12" class="edge">
<title>http://purl.org/oseg/ontologies/OTRL#documentationDescription&#45;&gt;http://schema.org/Text</title>
<path fill="none" stroke="black" d="M1001.18,-236.45C1027.18,-245.29 1060.04,-256.46 1086.92,-265.59"/>
<polygon fill="black" stroke="black" points="1085.93,-268.95 1096.52,-268.86 1088.18,-262.33 1085.93,-268.95"/>
<text text-anchor="middle" x="1023.05" y="-254.82" font-family="Times,serif" font-size="14.00">range</text>
</g>
<!-- http://purl.org/oseg/ontologies/OTRL#ODRL&#45;4 -->
<g id="node12" class="node">
<title>http://purl.org/oseg/ontologies/OTRL#ODRL&#45;4</title>
<ellipse fill="none" stroke="#e377c2" cx="108.17" cy="-60.56" rx="50.82" ry="16.03"/>
<text text-anchor="middle" x="108.17" y="-56.86" font-family="Times,serif" font-size="14.00">ODRL&#45;4</text>
</g>
<!-- http://purl.org/oseg/ontologies/OTRL#ODRL&#45;4&#45;&gt;http://www.w3.org/2002/07/owl#class -->
<g id="edge32" class="edge">
<title>http://purl.org/oseg/ontologies/OTRL#ODRL&#45;4&#45;&gt;http://www.w3.org/2002/07/owl#class</title>
<path fill="none" stroke="black" d="M127.02,-75.74C166.99,-107.93 260.37,-183.13 306.73,-220.47"/>
<polygon fill="black" stroke="black" points="304.56,-223.22 314.55,-226.76 308.95,-217.76 304.56,-223.22"/>
<text text-anchor="middle" x="212.37" y="-151.9" font-family="Times,serif" font-size="14.00">a</text>
</g>
<!-- http://purl.org/oseg/ontologies/OTRL#ODRL&#45;4&#45;&gt;http://purl.org/oseg/ontologies/OTRL#ODRL -->
<g id="edge20" class="edge">
<title>http://purl.org/oseg/ontologies/OTRL#ODRL&#45;4&#45;&gt;http://purl.org/oseg/ontologies/OTRL#ODRL</title>
<path fill="none" stroke="black" d="M111.37,-76.87C116.75,-104.2 127.61,-159.45 134.07,-192.31"/>
<polygon fill="black" stroke="black" points="130.64,-192.99 136,-202.13 137.51,-191.64 130.64,-192.99"/>
</g>
<!-- http://purl.org/oseg/ontologies/OTRL#exitCriteria -->
<g id="node13" class="node">
<title>http://purl.org/oseg/ontologies/OTRL#exitCriteria</title>
<ellipse fill="none" stroke="#e377c2" cx="868.83" cy="-178.87" rx="70.01" ry="16.03"/>
<text text-anchor="middle" x="868.83" y="-175.17" font-family="Times,serif" font-size="14.00">exitCriteria</text>
</g>
<!-- http://purl.org/oseg/ontologies/OTRL#exitCriteria&#45;&gt;http://purl.org/oseg/ontologies/OTRL#OTRL -->
<g id="edge33" class="edge">
<title>http://purl.org/oseg/ontologies/OTRL#exitCriteria&#45;&gt;http://purl.org/oseg/ontologies/OTRL#OTRL</title>
<path fill="none" stroke="black" d="M830.96,-192.6C784.53,-209.44 706.23,-237.83 659.04,-254.94"/>
<polygon fill="black" stroke="black" points="657.68,-251.71 649.47,-258.41 660.06,-258.3 657.68,-251.71"/>
<text text-anchor="middle" x="718.5" y="-227.57" font-family="Times,serif" font-size="14.00">domain</text>
</g>
<!-- http://purl.org/oseg/ontologies/OTRL#exitCriteria&#45;&gt;http://schema.org/Text -->
<g id="edge6" class="edge">
<title>http://purl.org/oseg/ontologies/OTRL#exitCriteria&#45;&gt;http://schema.org/Text</title>
<path fill="none" stroke="black" d="M904.98,-192.86C953.01,-211.44 1037.9,-244.28 1090.57,-264.66"/>
<polygon fill="black" stroke="black" points="1089.43,-267.97 1100.02,-268.31 1091.95,-261.44 1089.43,-267.97"/>
<text text-anchor="middle" x="976.78" y="-232.56" font-family="Times,serif" font-size="14.00">range</text>
</g>
<!-- http://purl.org/oseg/ontologies/OTRL#OTRL&#45;9 -->
<g id="node14" class="node">
<title>http://purl.org/oseg/ontologies/OTRL#OTRL&#45;9</title>
<ellipse fill="none" stroke="#e377c2" cx="409.91" cy="-440.29" rx="49.49" ry="16.03"/>
<text text-anchor="middle" x="409.91" y="-436.59" font-family="Times,serif" font-size="14.00">OTRL&#45;9</text>
</g>
<!-- http://purl.org/oseg/ontologies/OTRL#OTRL&#45;9&#45;&gt;http://www.w3.org/2002/07/owl#class -->
<g id="edge10" class="edge">
<title>http://purl.org/oseg/ontologies/OTRL#OTRL&#45;9&#45;&gt;http://www.w3.org/2002/07/owl#class</title>
<path fill="none" stroke="black" d="M403.68,-424.09C390.5,-389.79 359.69,-309.6 343.75,-268.13"/>
<polygon fill="black" stroke="black" points="346.99,-266.79 340.14,-258.71 340.46,-269.3 346.99,-266.79"/>
<text text-anchor="middle" x="369.22" y="-349.91" font-family="Times,serif" font-size="14.00">a</text>
</g>
<!-- http://purl.org/oseg/ontologies/OTRL#OTRL&#45;9&#45;&gt;http://purl.org/oseg/ontologies/OTRL#OTRL -->
<g id="edge17" class="edge">
<title>http://purl.org/oseg/ontologies/OTRL#OTRL&#45;9&#45;&gt;http://purl.org/oseg/ontologies/OTRL#OTRL</title>
<path fill="none" stroke="black" d="M428.51,-425.12C465.98,-394.54 550.63,-325.47 593.52,-290.47"/>
<polygon fill="black" stroke="black" points="595.98,-292.98 601.52,-283.94 591.56,-287.55 595.98,-292.98"/>
</g>
<!-- http://purl.org/oseg/ontologies/OTRL#OTRL&#45;7 -->
<g id="node15" class="node">
<title>http://purl.org/oseg/ontologies/OTRL#OTRL&#45;7</title>
<ellipse fill="none" stroke="#e377c2" cx="567.79" cy="-394.76" rx="49.49" ry="16.03"/>
<text text-anchor="middle" x="567.79" y="-391.06" font-family="Times,serif" font-size="14.00">OTRL&#45;7</text>
</g>
<!-- http://purl.org/oseg/ontologies/OTRL#OTRL&#45;7&#45;&gt;http://www.w3.org/2002/07/owl#class -->
<g id="edge11" class="edge">
<title>http://purl.org/oseg/ontologies/OTRL#OTRL&#45;7&#45;&gt;http://www.w3.org/2002/07/owl#class</title>
<path fill="none" stroke="black" d="M545.35,-380.14C503.47,-352.84 413.29,-294.07 365.32,-262.81"/>
<polygon fill="black" stroke="black" points="367.17,-259.84 356.88,-257.31 363.34,-265.7 367.17,-259.84"/>
<text text-anchor="middle" x="450.84" y="-325.28" font-family="Times,serif" font-size="14.00">a</text>
</g>
<!-- http://purl.org/oseg/ontologies/OTRL#OTRL&#45;7&#45;&gt;http://purl.org/oseg/ontologies/OTRL#OTRL -->
<g id="edge8" class="edge">
<title>http://purl.org/oseg/ontologies/OTRL#OTRL&#45;7&#45;&gt;http://purl.org/oseg/ontologies/OTRL#OTRL</title>
<path fill="none" stroke="black" d="M574.44,-378.61C583.2,-357.34 598.71,-319.71 609.04,-294.63"/>
<polygon fill="black" stroke="black" points="612.28,-295.95 612.85,-285.37 605.81,-293.29 612.28,-295.95"/>
</g>
<!-- http://purl.org/oseg/ontologies/OTRL#OTRL&#45;4 -->
<g id="node16" class="node">
<title>http://purl.org/oseg/ontologies/OTRL#OTRL&#45;4</title>
<ellipse fill="none" stroke="#e377c2" cx="450.15" cy="-380.78" rx="49.49" ry="16.03"/>
<text text-anchor="middle" x="450.15" y="-377.08" font-family="Times,serif" font-size="14.00">OTRL&#45;4</text>
</g>
<!-- http://purl.org/oseg/ontologies/OTRL#OTRL&#45;4&#45;&gt;http://www.w3.org/2002/07/owl#class -->
<g id="edge34" class="edge">
<title>http://purl.org/oseg/ontologies/OTRL#OTRL&#45;4&#45;&gt;http://www.w3.org/2002/07/owl#class</title>
<path fill="none" stroke="black" d="M436.81,-364.89C416.49,-340.71 377.67,-294.49 353.93,-266.22"/>
<polygon fill="black" stroke="black" points="356.48,-263.82 347.37,-258.41 351.12,-268.32 356.48,-263.82"/>
<text text-anchor="middle" x="390.87" y="-319.36" font-family="Times,serif" font-size="14.00">a</text>
</g>
<!-- http://purl.org/oseg/ontologies/OTRL#OTRL&#45;4&#45;&gt;http://purl.org/oseg/ontologies/OTRL#OTRL -->
<g id="edge30" class="edge">
<title>http://purl.org/oseg/ontologies/OTRL#OTRL&#45;4&#45;&gt;http://purl.org/oseg/ontologies/OTRL#OTRL</title>
<path fill="none" stroke="black" d="M472.29,-366.2C502.41,-346.37 556.38,-310.84 589.93,-288.75"/>
<polygon fill="black" stroke="black" points="591.98,-291.59 598.4,-283.17 588.13,-285.74 591.98,-291.59"/>
</g>
<!-- http://purl.org/oseg/ontologies/OTRL#softwareDescription -->
<g id="node17" class="node">
<title>http://purl.org/oseg/ontologies/OTRL#softwareDescription</title>
<ellipse fill="none" stroke="#e377c2" cx="915.78" cy="-369.56" rx="113.69" ry="16.03"/>
<text text-anchor="middle" x="915.78" y="-365.86" font-family="Times,serif" font-size="14.00">softwareDescription</text>
</g>
<!-- http://purl.org/oseg/ontologies/OTRL#softwareDescription&#45;&gt;http://purl.org/oseg/ontologies/OTRL#OTRL -->
<g id="edge15" class="edge">
<title>http://purl.org/oseg/ontologies/OTRL#softwareDescription&#45;&gt;http://purl.org/oseg/ontologies/OTRL#OTRL</title>
<path fill="none" stroke="black" d="M871.42,-354.55C814.12,-335.16 715.2,-301.68 659.9,-282.97"/>
<polygon fill="black" stroke="black" points="660.69,-279.54 650.1,-279.65 658.45,-286.17 660.69,-279.54"/>
<text text-anchor="middle" x="739.16" y="-322.56" font-family="Times,serif" font-size="14.00">domain</text>
</g>
<!-- http://purl.org/oseg/ontologies/OTRL#softwareDescription&#45;&gt;http://schema.org/Text -->
<g id="edge31" class="edge">
<title>http://purl.org/oseg/ontologies/OTRL#softwareDescription&#45;&gt;http://schema.org/Text</title>
<path fill="none" stroke="black" d="M954.8,-354.21C992.9,-339.22 1050.88,-316.41 1091.13,-300.57"/>
<polygon fill="black" stroke="black" points="1092.43,-303.82 1100.45,-296.91 1089.87,-297.31 1092.43,-303.82"/>
<text text-anchor="middle" x="1001.97" y="-331.19" font-family="Times,serif" font-size="14.00">range</text>
</g>
<!-- http://purl.org/oseg/ontologies/OTRL#OTRL&#45;1 -->
<g id="node18" class="node">
<title>http://purl.org/oseg/ontologies/OTRL#OTRL&#45;1</title>
<ellipse fill="none" stroke="#e377c2" cx="418.95" cy="-91.97" rx="49.49" ry="16.03"/>
<text text-anchor="middle" x="418.95" y="-88.27" font-family="Times,serif" font-size="14.00">OTRL&#45;1</text>
</g>
<!-- http://purl.org/oseg/ontologies/OTRL#OTRL&#45;1&#45;&gt;http://www.w3.org/2002/07/owl#class -->
<g id="edge13" class="edge">
<title>http://purl.org/oseg/ontologies/OTRL#OTRL&#45;1&#45;&gt;http://www.w3.org/2002/07/owl#class</title>
<path fill="none" stroke="black" d="M409.84,-108.06C395.07,-134.14 365.78,-185.86 348.18,-216.93"/>
<polygon fill="black" stroke="black" points="345.01,-215.43 343.12,-225.86 351.1,-218.88 345.01,-215.43"/>
<text text-anchor="middle" x="374.51" y="-166.3" font-family="Times,serif" font-size="14.00">a</text>
</g>
<!-- http://purl.org/oseg/ontologies/OTRL#OTRL&#45;1&#45;&gt;http://purl.org/oseg/ontologies/OTRL#OTRL -->
<g id="edge41" class="edge">
<title>http://purl.org/oseg/ontologies/OTRL#OTRL&#45;1&#45;&gt;http://purl.org/oseg/ontologies/OTRL#OTRL</title>
<path fill="none" stroke="black" d="M436.39,-107.4C472.21,-139.07 554.14,-211.51 595.15,-247.78"/>
<polygon fill="black" stroke="black" points="592.97,-250.52 602.78,-254.53 597.61,-245.28 592.97,-250.52"/>
</g>
<!-- http://purl.org/oseg/ontologies/OTRL#OTRL&#45;5 -->
<g id="node19" class="node">
<title>http://purl.org/oseg/ontologies/OTRL#OTRL&#45;5</title>
<ellipse fill="none" stroke="#e377c2" cx="505.44" cy="-250.85" rx="49.49" ry="16.03"/>
<text text-anchor="middle" x="505.44" y="-247.15" font-family="Times,serif" font-size="14.00">OTRL&#45;5</text>
</g>
<!-- http://purl.org/oseg/ontologies/OTRL#OTRL&#45;5&#45;&gt;http://www.w3.org/2002/07/owl#class -->
<g id="edge14" class="edge">
<title>http://purl.org/oseg/ontologies/OTRL#OTRL&#45;5&#45;&gt;http://www.w3.org/2002/07/owl#class</title>
<path fill="none" stroke="black" d="M456.26,-248.39C438.88,-247.53 419.03,-246.54 400.44,-245.61"/>
<polygon fill="black" stroke="black" points="400.43,-242.1 390.27,-245.1 400.08,-249.1 400.43,-242.1"/>
<text text-anchor="middle" x="423.85" y="-250.8" font-family="Times,serif" font-size="14.00">a</text>
</g>
<!-- http://purl.org/oseg/ontologies/OTRL#OTRL&#45;5&#45;&gt;http://purl.org/oseg/ontologies/OTRL#OTRL -->
<g id="edge23" class="edge">
<title>http://purl.org/oseg/ontologies/OTRL#OTRL&#45;5&#45;&gt;http://purl.org/oseg/ontologies/OTRL#OTRL</title>
<path fill="none" stroke="black" d="M549.86,-258.03C557.25,-259.23 564.94,-260.47 572.4,-261.68"/>
<polygon fill="black" stroke="black" points="571.95,-265.15 582.38,-263.29 573.07,-258.24 571.95,-265.15"/>
</g>
<!-- http://purl.org/oseg/ontologies/OTRL#ODRL&#45;0 -->
<g id="node20" class="node">
<title>http://purl.org/oseg/ontologies/OTRL#ODRL&#45;0</title>
<ellipse fill="none" stroke="#e377c2" cx="165.41" cy="-423.34" rx="50.82" ry="16.03"/>
<text text-anchor="middle" x="165.41" y="-419.64" font-family="Times,serif" font-size="14.00">ODRL&#45;0</text>
</g>
<!-- http://purl.org/oseg/ontologies/OTRL#ODRL&#45;0&#45;&gt;http://www.w3.org/2002/07/owl#class -->
<g id="edge37" class="edge">
<title>http://purl.org/oseg/ontologies/OTRL#ODRL&#45;0&#45;&gt;http://www.w3.org/2002/07/owl#class</title>
<path fill="none" stroke="black" d="M180.06,-407.59C209.8,-375.62 277.35,-302.99 312.18,-265.56"/>
<polygon fill="black" stroke="black" points="314.84,-267.84 319.09,-258.13 309.71,-263.07 314.84,-267.84"/>
<text text-anchor="middle" x="241.62" y="-340.37" font-family="Times,serif" font-size="14.00">a</text>
</g>
<!-- http://purl.org/oseg/ontologies/OTRL#ODRL&#45;0&#45;&gt;http://purl.org/oseg/ontologies/OTRL#ODRL -->
<g id="edge16" class="edge">
<title>http://purl.org/oseg/ontologies/OTRL#ODRL&#45;0&#45;&gt;http://purl.org/oseg/ontologies/OTRL#ODRL</title>
<path fill="none" stroke="black" d="M163.31,-406.93C158.79,-371.59 148.11,-288.01 142.62,-245.07"/>
<polygon fill="black" stroke="black" points="146.09,-244.56 141.35,-235.08 139.14,-245.44 146.09,-244.56"/>
</g>
<!-- http://purl.org/oseg/ontologies/OTRL#ODRL&#45;3 -->
<g id="node21" class="node">
<title>http://purl.org/oseg/ontologies/OTRL#ODRL&#45;3</title>
<ellipse fill="none" stroke="#e377c2" cx="50.46" cy="-289.36" rx="50.82" ry="16.03"/>
<text text-anchor="middle" x="50.46" y="-285.66" font-family="Times,serif" font-size="14.00">ODRL&#45;3</text>
</g>
<!-- http://purl.org/oseg/ontologies/OTRL#ODRL&#45;3&#45;&gt;http://www.w3.org/2002/07/owl#class -->
<g id="edge18" class="edge">
<title>http://purl.org/oseg/ontologies/OTRL#ODRL&#45;3&#45;&gt;http://www.w3.org/2002/07/owl#class</title>
<path fill="none" stroke="black" d="M95.67,-281.85C143.96,-273.83 220.74,-261.07 274.01,-252.22"/>
<polygon fill="black" stroke="black" points="274.71,-255.65 284,-250.56 273.56,-248.75 274.71,-255.65"/>
<text text-anchor="middle" x="180.34" y="-270.84" font-family="Times,serif" font-size="14.00">a</text>
</g>
<!-- http://purl.org/oseg/ontologies/OTRL#ODRL&#45;3&#45;&gt;http://purl.org/oseg/ontologies/OTRL#ODRL -->
<g id="edge35" class="edge">
<title>http://purl.org/oseg/ontologies/OTRL#ODRL&#45;3&#45;&gt;http://purl.org/oseg/ontologies/OTRL#ODRL</title>
<path fill="none" stroke="black" d="M69.72,-274.01C82.22,-264.04 98.69,-250.92 112.46,-239.94"/>
<polygon fill="black" stroke="black" points="114.98,-242.4 120.62,-233.43 110.62,-236.93 114.98,-242.4"/>
</g>
<!-- http://purl.org/oseg/ontologies/OTRL#ODRL&#45;1 -->
<g id="node22" class="node">
<title>http://purl.org/oseg/ontologies/OTRL#ODRL&#45;1</title>
<ellipse fill="none" stroke="#e377c2" cx="227.71" cy="-16.31" rx="50.82" ry="16.03"/>
<text text-anchor="middle" x="227.71" y="-12.61" font-family="Times,serif" font-size="14.00">ODRL&#45;1</text>
</g>
<!-- http://purl.org/oseg/ontologies/OTRL#ODRL&#45;1&#45;&gt;http://www.w3.org/2002/07/owl#class -->
<g id="edge38" class="edge">
<title>http://purl.org/oseg/ontologies/OTRL#ODRL&#45;1&#45;&gt;http://www.w3.org/2002/07/owl#class</title>
<path fill="none" stroke="black" d="M235.34,-32.56C253.58,-71.39 299.79,-169.81 321.81,-216.7"/>
<polygon fill="black" stroke="black" points="318.7,-218.31 326.12,-225.88 325.04,-215.34 318.7,-218.31"/>
<text text-anchor="middle" x="274.07" y="-128.43" font-family="Times,serif" font-size="14.00">a</text>
</g>
<!-- http://purl.org/oseg/ontologies/OTRL#ODRL&#45;1&#45;&gt;http://purl.org/oseg/ontologies/OTRL#ODRL -->
<g id="edge26" class="edge">
<title>http://purl.org/oseg/ontologies/OTRL#ODRL&#45;1&#45;&gt;http://purl.org/oseg/ontologies/OTRL#ODRL</title>
<path fill="none" stroke="black" d="M220.62,-32.52C205.28,-67.58 168.93,-150.71 150.44,-192.97"/>
<polygon fill="black" stroke="black" points="147.16,-191.74 146.36,-202.3 153.58,-194.54 147.16,-191.74"/>
</g>
<!-- http://purl.org/oseg/ontologies/OTRL#OTRL&#45;6 -->
<g id="node23" class="node">
<title>http://purl.org/oseg/ontologies/OTRL#OTRL&#45;6</title>
<ellipse fill="none" stroke="#e377c2" cx="515.7" cy="-44.18" rx="49.49" ry="16.03"/>
<text text-anchor="middle" x="515.7" y="-40.48" font-family="Times,serif" font-size="14.00">OTRL&#45;6</text>
</g>
<!-- http://purl.org/oseg/ontologies/OTRL#OTRL&#45;6&#45;&gt;http://www.w3.org/2002/07/owl#class -->
<g id="edge19" class="edge">
<title>http://purl.org/oseg/ontologies/OTRL#OTRL&#45;6&#45;&gt;http://www.w3.org/2002/07/owl#class</title>
<path fill="none" stroke="black" d="M501.12,-60.05C469.2,-94.83 392.95,-177.88 355.43,-218.75"/>
<polygon fill="black" stroke="black" points="352.65,-216.6 348.47,-226.33 357.81,-221.33 352.65,-216.6"/>
<text text-anchor="middle" x="423.78" y="-143.2" font-family="Times,serif" font-size="14.00">a</text>
</g>
<!-- http://purl.org/oseg/ontologies/OTRL#OTRL&#45;6&#45;&gt;http://purl.org/oseg/ontologies/OTRL#OTRL -->
<g id="edge24" class="edge">
<title>http://purl.org/oseg/ontologies/OTRL#OTRL&#45;6&#45;&gt;http://purl.org/oseg/ontologies/OTRL#OTRL</title>
<path fill="none" stroke="black" d="M523.16,-60.37C541.04,-99.14 586.42,-197.57 607.88,-244.14"/>
<polygon fill="black" stroke="black" points="604.72,-245.63 612.08,-253.25 611.08,-242.7 604.72,-245.63"/>
</g>
<!-- http://purl.org/oseg/ontologies/OTRL#OTRL&#45;2 -->
<g id="node24" class="node">
<title>http://purl.org/oseg/ontologies/OTRL#OTRL&#45;2</title>
<ellipse fill="none" stroke="#e377c2" cx="611.44" cy="-96.33" rx="49.49" ry="16.03"/>
<text text-anchor="middle" x="611.44" y="-92.63" font-family="Times,serif" font-size="14.00">OTRL&#45;2</text>
</g>
<!-- http://purl.org/oseg/ontologies/OTRL#OTRL&#45;2&#45;&gt;http://www.w3.org/2002/07/owl#class -->
<g id="edge21" class="edge">
<title>http://purl.org/oseg/ontologies/OTRL#OTRL&#45;2&#45;&gt;http://www.w3.org/2002/07/owl#class</title>
<path fill="none" stroke="black" d="M585.07,-110.19C535.2,-136.41 426.97,-193.31 370.22,-223.15"/>
<polygon fill="black" stroke="black" points="368.46,-220.12 361.24,-227.87 371.72,-226.32 368.46,-220.12"/>
<text text-anchor="middle" x="473.15" y="-170.47" font-family="Times,serif" font-size="14.00">a</text>
</g>
<!-- http://purl.org/oseg/ontologies/OTRL#OTRL&#45;2&#45;&gt;http://purl.org/oseg/ontologies/OTRL#OTRL -->
<g id="edge25" class="edge">
<title>http://purl.org/oseg/ontologies/OTRL#OTRL&#45;2&#45;&gt;http://purl.org/oseg/ontologies/OTRL#OTRL</title>
<path fill="none" stroke="black" d="M612.2,-112.6C613.58,-142.47 616.55,-206.33 618.24,-242.62"/>
<polygon fill="black" stroke="black" points="614.76,-243.11 618.72,-252.93 621.75,-242.78 614.76,-243.11"/>
</g>
</g>
</svg>
