<?xml version="1.0" encoding="UTF-8" standalone="no"?>
<!DOCTYPE svg PUBLIC "-//W3C//DTD SVG 1.1//EN"
 "http://www.w3.org/Graphics/SVG/1.1/DTD/svg11.dtd">
<!-- Generated by graphviz version 2.43.0 (0)
 -->
<!-- Title: G Pages: 1 -->
<svg width="555pt" height="461pt"
 viewBox="0.00 0.00 555.00 461.00" xmlns="http://www.w3.org/2000/svg" xmlns:xlink="http://www.w3.org/1999/xlink">
<g id="graph0" class="graph" transform="scale(1 1) rotate(0) translate(4 457)">
<title>G</title>
<polygon fill="white" stroke="transparent" points="-4,4 -4,-457 551,-457 551,4 -4,4"/>
<!-- http://purl.org/oseg/ontologies/OTRL#OTRL -->
<g id="node1" class="node">
<title>http://purl.org/oseg/ontologies/OTRL#OTRL</title>
<ellipse fill="none" stroke="#e377c2" cx="117.52" cy="-240.31" rx="39.7" ry="16.03"/>
<text text-anchor="middle" x="117.52" y="-236.61" font-family="Times,serif" font-size="14.00">OTRL</text>
</g>
<!-- http://www.w3.org/2002/07/owl#class -->
<g id="node2" class="node">
<title>http://www.w3.org/2002/07/owl#class</title>
<ellipse fill="none" stroke="#1f77b4" cx="228.81" cy="-183.59" rx="57.05" ry="16.03"/>
<text text-anchor="middle" x="228.81" y="-179.89" font-family="Times,serif" font-size="14.00">owl:class</text>
</g>
<!-- http://purl.org/oseg/ontologies/OTRL#OTRL&#45;&gt;http://www.w3.org/2002/07/owl#class -->
<g id="edge10" class="edge">
<title>http://purl.org/oseg/ontologies/OTRL#OTRL&#45;&gt;http://www.w3.org/2002/07/owl#class</title>
<path fill="none" stroke="black" d="M142.49,-227.58C156.96,-220.21 175.44,-210.79 191.59,-202.56"/>
<polygon fill="black" stroke="black" points="193.46,-205.54 200.78,-197.88 190.29,-199.3 193.46,-205.54"/>
<text text-anchor="middle" x="162.54" y="-218.87" font-family="Times,serif" font-size="14.00">a</text>
</g>
<!-- http://purl.org/oseg/ontologies/OTRL#ODRL -->
<g id="node3" class="node">
<title>http://purl.org/oseg/ontologies/OTRL#ODRL</title>
<ellipse fill="none" stroke="#e377c2" cx="367.83" cy="-132.43" rx="41.94" ry="16.03"/>
<text text-anchor="middle" x="367.83" y="-128.73" font-family="Times,serif" font-size="14.00">ODRL</text>
</g>
<!-- http://purl.org/oseg/ontologies/OTRL#Otrl4 -->
<g id="node4" class="node">
<title>http://purl.org/oseg/ontologies/OTRL#Otrl4</title>
<ellipse fill="none" stroke="#e377c2" cx="113.57" cy="-327.08" rx="38.37" ry="16.03"/>
<text text-anchor="middle" x="113.57" y="-323.38" font-family="Times,serif" font-size="14.00">Otrl4</text>
</g>
<!-- http://purl.org/oseg/ontologies/OTRL#Otrl4&#45;&gt;http://purl.org/oseg/ontologies/OTRL#OTRL -->
<g id="edge24" class="edge">
<title>http://purl.org/oseg/ontologies/OTRL#Otrl4&#45;&gt;http://purl.org/oseg/ontologies/OTRL#OTRL</title>
<path fill="none" stroke="black" d="M114.31,-310.76C114.87,-298.47 115.65,-281.37 116.3,-267.09"/>
<polygon fill="black" stroke="black" points="119.81,-267 116.77,-256.85 112.81,-266.68 119.81,-267"/>
</g>
<!-- http://purl.org/oseg/ontologies/OTRL#Otrl4&#45;&gt;http://www.w3.org/2002/07/owl#class -->
<g id="edge1" class="edge">
<title>http://purl.org/oseg/ontologies/OTRL#Otrl4&#45;&gt;http://www.w3.org/2002/07/owl#class</title>
<path fill="none" stroke="black" d="M126.12,-311.45C146.19,-286.46 185.65,-237.33 209.39,-207.78"/>
<polygon fill="black" stroke="black" points="212.39,-209.63 215.92,-199.64 206.93,-205.25 212.39,-209.63"/>
<text text-anchor="middle" x="163.25" y="-263.41" font-family="Times,serif" font-size="14.00">a</text>
</g>
<!-- http://www.w3.org/1999/02/22&#45;rdf&#45;syntax&#45;ns#nil -->
<g id="node5" class="node">
<title>http://www.w3.org/1999/02/22&#45;rdf&#45;syntax&#45;ns#nil</title>
<ellipse fill="none" stroke="#e377c2" cx="84.24" cy="-394.64" rx="42.35" ry="16.03"/>
<text text-anchor="middle" x="84.24" y="-390.94" font-family="Times,serif" font-size="14.00">rdf:nil</text>
</g>
<!-- http://purl.org/oseg/ontologies/OTRL#Odrl4 -->
<g id="node6" class="node">
<title>http://purl.org/oseg/ontologies/OTRL#Odrl4</title>
<ellipse fill="none" stroke="#e377c2" cx="329.55" cy="-287.66" rx="40.11" ry="16.03"/>
<text text-anchor="middle" x="329.55" y="-283.96" font-family="Times,serif" font-size="14.00">Odrl4</text>
</g>
<!-- http://purl.org/oseg/ontologies/OTRL#Odrl4&#45;&gt;http://www.w3.org/2002/07/owl#class -->
<g id="edge13" class="edge">
<title>http://purl.org/oseg/ontologies/OTRL#Odrl4&#45;&gt;http://www.w3.org/2002/07/owl#class</title>
<path fill="none" stroke="black" d="M314.68,-272.31C297.89,-254.96 270.39,-226.55 251.04,-206.56"/>
<polygon fill="black" stroke="black" points="253.53,-204.1 244.06,-199.35 248.5,-208.97 253.53,-204.1"/>
<text text-anchor="middle" x="278.36" y="-243.23" font-family="Times,serif" font-size="14.00">a</text>
</g>
<!-- http://purl.org/oseg/ontologies/OTRL#Odrl4&#45;&gt;http://purl.org/oseg/ontologies/OTRL#ODRL -->
<g id="edge17" class="edge">
<title>http://purl.org/oseg/ontologies/OTRL#Odrl4&#45;&gt;http://purl.org/oseg/ontologies/OTRL#ODRL</title>
<path fill="none" stroke="black" d="M333.57,-271.34C340.16,-244.63 353.31,-191.31 361.26,-159.06"/>
<polygon fill="black" stroke="black" points="364.75,-159.54 363.74,-149 357.95,-157.87 364.75,-159.54"/>
</g>
<!-- http://purl.org/oseg/ontologies/OTRL#Otrl2 -->
<g id="node7" class="node">
<title>http://purl.org/oseg/ontologies/OTRL#Otrl2</title>
<ellipse fill="none" stroke="#e377c2" cx="38.47" cy="-199.73" rx="38.37" ry="16.03"/>
<text text-anchor="middle" x="38.47" y="-196.03" font-family="Times,serif" font-size="14.00">Otrl2</text>
</g>
<!-- http://purl.org/oseg/ontologies/OTRL#Otrl2&#45;&gt;http://purl.org/oseg/ontologies/OTRL#OTRL -->
<g id="edge4" class="edge">
<title>http://purl.org/oseg/ontologies/OTRL#Otrl2&#45;&gt;http://purl.org/oseg/ontologies/OTRL#OTRL</title>
<path fill="none" stroke="black" d="M63.05,-212.35C69.53,-215.68 76.64,-219.33 83.52,-222.86"/>
<polygon fill="black" stroke="black" points="82.19,-226.11 92.68,-227.56 85.38,-219.88 82.19,-226.11"/>
</g>
<!-- http://purl.org/oseg/ontologies/OTRL#Otrl2&#45;&gt;http://www.w3.org/2002/07/owl#class -->
<g id="edge2" class="edge">
<title>http://purl.org/oseg/ontologies/OTRL#Otrl2&#45;&gt;http://www.w3.org/2002/07/owl#class</title>
<path fill="none" stroke="black" d="M76.07,-196.54C100.98,-194.43 134.31,-191.6 163.48,-189.13"/>
<polygon fill="black" stroke="black" points="163.94,-192.61 173.61,-188.27 163.35,-185.63 163.94,-192.61"/>
<text text-anchor="middle" x="115.28" y="-196.64" font-family="Times,serif" font-size="14.00">a</text>
</g>
<!-- http://purl.org/oseg/ontologies/OTRL#Odrl3Star -->
<g id="node8" class="node">
<title>http://purl.org/oseg/ontologies/OTRL#Odrl3Star</title>
<ellipse fill="none" stroke="#e377c2" cx="230.39" cy="-141.02" rx="62.45" ry="16.03"/>
<text text-anchor="middle" x="230.39" y="-137.32" font-family="Times,serif" font-size="14.00">Odrl3Star</text>
</g>
<!-- http://purl.org/oseg/ontologies/OTRL#Odrl3Star&#45;&gt;http://www.w3.org/2002/07/owl#class -->
<g id="edge14" class="edge">
<title>http://purl.org/oseg/ontologies/OTRL#Odrl3Star&#45;&gt;http://www.w3.org/2002/07/owl#class</title>
<path fill="none" stroke="black" d="M229.78,-157.36C229.78,-157.46 229.78,-157.56 229.77,-157.66"/>
<polygon fill="black" stroke="black" points="226.29,-156.97 229.42,-167.09 233.29,-157.22 226.29,-156.97"/>
<text text-anchor="middle" x="225.28" y="-161.31" font-family="Times,serif" font-size="14.00">a</text>
</g>
<!-- http://purl.org/oseg/ontologies/OTRL#Odrl3Star&#45;&gt;http://purl.org/oseg/ontologies/OTRL#ODRL -->
<g id="edge18" class="edge">
<title>http://purl.org/oseg/ontologies/OTRL#Odrl3Star&#45;&gt;http://purl.org/oseg/ontologies/OTRL#ODRL</title>
<path fill="none" stroke="black" d="M291.07,-137.23C299.47,-136.7 308.02,-136.17 316.23,-135.65"/>
<polygon fill="black" stroke="black" points="316.64,-139.14 326.4,-135.02 316.2,-132.15 316.64,-139.14"/>
</g>
<!-- http://purl.org/oseg/ontologies/OTRL#Odrl -->
<g id="node9" class="node">
<title>http://purl.org/oseg/ontologies/OTRL#Odrl</title>
<ellipse fill="none" stroke="#e377c2" cx="406.95" cy="-179.27" rx="33.88" ry="16.03"/>
<text text-anchor="middle" x="406.95" y="-175.57" font-family="Times,serif" font-size="14.00">Odrl</text>
</g>
<!-- http://purl.org/oseg/ontologies/OTRL#Odrl&#45;&gt;http://www.w3.org/2002/07/owl#class -->
<g id="edge22" class="edge">
<title>http://purl.org/oseg/ontologies/OTRL#Odrl&#45;&gt;http://www.w3.org/2002/07/owl#class</title>
<path fill="none" stroke="black" d="M373.03,-180.09C351.37,-180.62 322.54,-181.32 296.36,-181.95"/>
<polygon fill="black" stroke="black" points="296,-178.46 286.09,-182.2 296.17,-185.46 296,-178.46"/>
<text text-anchor="middle" x="330.19" y="-184.82" font-family="Times,serif" font-size="14.00">a</text>
</g>
<!-- http://purl.org/oseg/ontologies/OTRL#Odrl3 -->
<g id="node10" class="node">
<title>http://purl.org/oseg/ontologies/OTRL#Odrl3</title>
<ellipse fill="none" stroke="#e377c2" cx="271.56" cy="-15.96" rx="40.11" ry="16.03"/>
<text text-anchor="middle" x="271.56" y="-12.26" font-family="Times,serif" font-size="14.00">Odrl3</text>
</g>
<!-- http://purl.org/oseg/ontologies/OTRL#Odrl3&#45;&gt;http://www.w3.org/2002/07/owl#class -->
<g id="edge16" class="edge">
<title>http://purl.org/oseg/ontologies/OTRL#Odrl3&#45;&gt;http://www.w3.org/2002/07/owl#class</title>
<path fill="none" stroke="black" d="M267.38,-32.34C259.99,-61.31 244.56,-121.83 235.62,-156.9"/>
<polygon fill="black" stroke="black" points="232.15,-156.35 233.07,-166.9 238.93,-158.08 232.15,-156.35"/>
<text text-anchor="middle" x="247" y="-98.42" font-family="Times,serif" font-size="14.00">a</text>
</g>
<!-- http://purl.org/oseg/ontologies/OTRL#Odrl3&#45;&gt;http://purl.org/oseg/ontologies/OTRL#ODRL -->
<g id="edge20" class="edge">
<title>http://purl.org/oseg/ontologies/OTRL#Odrl3&#45;&gt;http://purl.org/oseg/ontologies/OTRL#ODRL</title>
<path fill="none" stroke="black" d="M284.54,-31.67C300.9,-51.47 329.19,-85.68 348.2,-108.68"/>
<polygon fill="black" stroke="black" points="345.68,-111.12 354.74,-116.6 351.07,-106.66 345.68,-111.12"/>
</g>
<!-- http://purl.org/oseg/ontologies/OTRL#Otrl -->
<g id="node11" class="node">
<title>http://purl.org/oseg/ontologies/OTRL#Otrl</title>
<ellipse fill="none" stroke="#e377c2" cx="305.24" cy="-352.64" rx="31.64" ry="16.03"/>
<text text-anchor="middle" x="305.24" y="-348.94" font-family="Times,serif" font-size="14.00">Otrl</text>
</g>
<!-- http://purl.org/oseg/ontologies/OTRL#Otrl5 -->
<g id="node12" class="node">
<title>http://purl.org/oseg/ontologies/OTRL#Otrl5</title>
<ellipse fill="none" stroke="#e377c2" cx="102.63" cy="-94.64" rx="38.37" ry="16.03"/>
<text text-anchor="middle" x="102.63" y="-90.94" font-family="Times,serif" font-size="14.00">Otrl5</text>
</g>
<!-- http://purl.org/oseg/ontologies/OTRL#Otrl5&#45;&gt;http://purl.org/oseg/ontologies/OTRL#OTRL -->
<g id="edge25" class="edge">
<title>http://purl.org/oseg/ontologies/OTRL#Otrl5&#45;&gt;http://purl.org/oseg/ontologies/OTRL#OTRL</title>
<path fill="none" stroke="black" d="M104.31,-111.07C106.86,-135.99 111.72,-183.6 114.78,-213.56"/>
<polygon fill="black" stroke="black" points="111.32,-214.13 115.82,-223.72 118.29,-213.42 111.32,-214.13"/>
</g>
<!-- http://purl.org/oseg/ontologies/OTRL#Otrl5&#45;&gt;http://www.w3.org/2002/07/owl#class -->
<g id="edge3" class="edge">
<title>http://purl.org/oseg/ontologies/OTRL#Otrl5&#45;&gt;http://www.w3.org/2002/07/owl#class</title>
<path fill="none" stroke="black" d="M122.63,-108.74C143.17,-123.22 175.4,-145.94 198.97,-162.56"/>
<polygon fill="black" stroke="black" points="197.03,-165.47 207.22,-168.37 201.06,-159.75 197.03,-165.47"/>
<text text-anchor="middle" x="156.3" y="-139.45" font-family="Times,serif" font-size="14.00">a</text>
</g>
<!-- http://purl.org/oseg/ontologies/OTRL#Odrl1 -->
<g id="node13" class="node">
<title>http://purl.org/oseg/ontologies/OTRL#Odrl1</title>
<ellipse fill="none" stroke="#e377c2" cx="366.04" cy="-58.34" rx="40.11" ry="16.03"/>
<text text-anchor="middle" x="366.04" y="-54.64" font-family="Times,serif" font-size="14.00">Odrl1</text>
</g>
<!-- http://purl.org/oseg/ontologies/OTRL#Odrl1&#45;&gt;http://www.w3.org/2002/07/owl#class -->
<g id="edge5" class="edge">
<title>http://purl.org/oseg/ontologies/OTRL#Odrl1&#45;&gt;http://www.w3.org/2002/07/owl#class</title>
<path fill="none" stroke="black" d="M349.49,-73.45C325.61,-95.24 281.33,-135.66 253.56,-161.01"/>
<polygon fill="black" stroke="black" points="250.88,-158.71 245.85,-168.04 255.6,-163.88 250.88,-158.71"/>
<text text-anchor="middle" x="297.02" y="-121.03" font-family="Times,serif" font-size="14.00">a</text>
</g>
<!-- http://purl.org/oseg/ontologies/OTRL#Odrl1&#45;&gt;http://purl.org/oseg/ontologies/OTRL#ODRL -->
<g id="edge7" class="edge">
<title>http://purl.org/oseg/ontologies/OTRL#Odrl1&#45;&gt;http://purl.org/oseg/ontologies/OTRL#ODRL</title>
<path fill="none" stroke="black" d="M366.44,-74.78C366.66,-83.9 366.94,-95.45 367.19,-105.81"/>
<polygon fill="black" stroke="black" points="363.69,-106.12 367.43,-116.03 370.69,-105.95 363.69,-106.12"/>
</g>
<!-- http://schema.org/Text -->
<g id="node14" class="node">
<title>http://schema.org/Text</title>
<ellipse fill="none" stroke="#e377c2" cx="453.17" cy="-396.42" rx="74.91" ry="16.03"/>
<text text-anchor="middle" x="453.17" y="-392.72" font-family="Times,serif" font-size="14.00">schema:Text</text>
</g>
<!-- http://purl.org/oseg/ontologies/OTRL#Otrl3 -->
<g id="node15" class="node">
<title>http://purl.org/oseg/ontologies/OTRL#Otrl3</title>
<ellipse fill="none" stroke="#e377c2" cx="58.33" cy="-135.54" rx="38.37" ry="16.03"/>
<text text-anchor="middle" x="58.33" y="-131.84" font-family="Times,serif" font-size="14.00">Otrl3</text>
</g>
<!-- http://purl.org/oseg/ontologies/OTRL#Otrl3&#45;&gt;http://purl.org/oseg/ontologies/OTRL#OTRL -->
<g id="edge15" class="edge">
<title>http://purl.org/oseg/ontologies/OTRL#Otrl3&#45;&gt;http://purl.org/oseg/ontologies/OTRL#OTRL</title>
<path fill="none" stroke="black" d="M67.32,-151.46C76.92,-168.45 92.27,-195.63 103.47,-215.45"/>
<polygon fill="black" stroke="black" points="100.48,-217.27 108.44,-224.25 106.57,-213.82 100.48,-217.27"/>
</g>
<!-- http://purl.org/oseg/ontologies/OTRL#Otrl3&#45;&gt;http://www.w3.org/2002/07/owl#class -->
<g id="edge21" class="edge">
<title>http://purl.org/oseg/ontologies/OTRL#Otrl3&#45;&gt;http://www.w3.org/2002/07/owl#class</title>
<path fill="none" stroke="black" d="M90.4,-144.58C115.16,-151.56 149.89,-161.35 178.36,-169.38"/>
<polygon fill="black" stroke="black" points="177.57,-172.79 188.15,-172.13 179.47,-166.05 177.57,-172.79"/>
<text text-anchor="middle" x="129.88" y="-160.78" font-family="Times,serif" font-size="14.00">a</text>
</g>
<!-- http://purl.org/oseg/ontologies/OTRL -->
<g id="node16" class="node">
<title>http://purl.org/oseg/ontologies/OTRL</title>
<ellipse fill="none" stroke="#e377c2" cx="124.24" cy="-37.64" rx="60.62" ry="16.03"/>
<text text-anchor="middle" x="124.24" y="-33.94" font-family="Times,serif" font-size="14.00">ns1:OTRL</text>
</g>
<!-- http://purl.org/oseg/ontologies/OTRL&#45;&gt;http://purl.org/oseg/ontologies/OTRL -->
<g id="edge8" class="edge">
<title>http://purl.org/oseg/ontologies/OTRL&#45;&gt;http://purl.org/oseg/ontologies/OTRL</title>
<path fill="none" stroke="black" d="M179.84,-44.27C193.17,-43.75 203.05,-41.54 203.05,-37.64 203.05,-34.81 197.83,-32.86 189.87,-31.81"/>
<polygon fill="black" stroke="black" points="190.09,-28.32 179.84,-31.01 189.53,-35.3 190.09,-28.32"/>
<text text-anchor="middle" x="254.55" y="-33.94" font-family="Times,serif" font-size="14.00">owl:versionIRI</text>
</g>
<!-- http://purl.org/oseg/ontologies/OTRL#Otrl1 -->
<g id="node17" class="node">
<title>http://purl.org/oseg/ontologies/OTRL#Otrl1</title>
<ellipse fill="none" stroke="#e377c2" cx="204.25" cy="-349.58" rx="38.37" ry="16.03"/>
<text text-anchor="middle" x="204.25" y="-345.88" font-family="Times,serif" font-size="14.00">Otrl1</text>
</g>
<!-- http://purl.org/oseg/ontologies/OTRL#Otrl1&#45;&gt;http://purl.org/oseg/ontologies/OTRL#OTRL -->
<g id="edge19" class="edge">
<title>http://purl.org/oseg/ontologies/OTRL#Otrl1&#45;&gt;http://purl.org/oseg/ontologies/OTRL#OTRL</title>
<path fill="none" stroke="black" d="M191.82,-333.92C177.26,-315.59 153.01,-285.02 136.19,-263.83"/>
<polygon fill="black" stroke="black" points="138.88,-261.6 129.92,-255.94 133.4,-265.95 138.88,-261.6"/>
</g>
<!-- http://purl.org/oseg/ontologies/OTRL#Otrl1&#45;&gt;http://www.w3.org/2002/07/owl#class -->
<g id="edge23" class="edge">
<title>http://purl.org/oseg/ontologies/OTRL#Otrl1&#45;&gt;http://www.w3.org/2002/07/owl#class</title>
<path fill="none" stroke="black" d="M206.69,-333.06C210.94,-304.35 219.72,-245.01 224.85,-210.36"/>
<polygon fill="black" stroke="black" points="228.37,-210.45 226.37,-200.05 221.45,-209.43 228.37,-210.45"/>
<text text-anchor="middle" x="211.27" y="-275.51" font-family="Times,serif" font-size="14.00">a</text>
</g>
<!-- http://purl.org/oseg/ontologies/OTRL#goal -->
<g id="node18" class="node">
<title>http://purl.org/oseg/ontologies/OTRL#goal</title>
<ellipse fill="none" stroke="#e377c2" cx="513.4" cy="-436.99" rx="33.47" ry="16.03"/>
<text text-anchor="middle" x="513.4" y="-433.29" font-family="Times,serif" font-size="14.00">goal</text>
</g>
<!-- http://purl.org/oseg/ontologies/OTRL#goal&#45;&gt;http://schema.org/Text -->
<g id="edge9" class="edge">
<title>http://purl.org/oseg/ontologies/OTRL#goal&#45;&gt;http://schema.org/Text</title>
<path fill="none" stroke="black" d="M493.68,-423.71C490.85,-421.8 487.88,-419.8 484.89,-417.79"/>
<polygon fill="black" stroke="black" points="486.75,-414.82 476.5,-412.14 482.84,-420.63 486.75,-414.82"/>
<text text-anchor="middle" x="468.28" y="-424.55" font-family="Times,serif" font-size="14.00">range</text>
</g>
<!-- http://purl.org/oseg/ontologies/OTRL#Odrl2 -->
<g id="node19" class="node">
<title>http://purl.org/oseg/ontologies/OTRL#Odrl2</title>
<ellipse fill="none" stroke="#e377c2" cx="410.61" cy="-243.53" rx="40.11" ry="16.03"/>
<text text-anchor="middle" x="410.61" y="-239.83" font-family="Times,serif" font-size="14.00">Odrl2</text>
</g>
<!-- http://purl.org/oseg/ontologies/OTRL#Odrl2&#45;&gt;http://www.w3.org/2002/07/owl#class -->
<g id="edge11" class="edge">
<title>http://purl.org/oseg/ontologies/OTRL#Odrl2&#45;&gt;http://www.w3.org/2002/07/owl#class</title>
<path fill="none" stroke="black" d="M379.36,-233.22C350.93,-223.85 308.56,-209.88 276.01,-199.15"/>
<polygon fill="black" stroke="black" points="276.84,-195.74 266.25,-195.94 274.65,-202.39 276.84,-195.74"/>
<text text-anchor="middle" x="323.18" y="-219.99" font-family="Times,serif" font-size="14.00">a</text>
</g>
<!-- http://purl.org/oseg/ontologies/OTRL#Odrl2&#45;&gt;http://purl.org/oseg/ontologies/OTRL#ODRL -->
<g id="edge12" class="edge">
<title>http://purl.org/oseg/ontologies/OTRL#Odrl2&#45;&gt;http://purl.org/oseg/ontologies/OTRL#ODRL</title>
<path fill="none" stroke="black" d="M404.3,-227.13C397.28,-208.9 385.84,-179.2 377.65,-157.92"/>
<polygon fill="black" stroke="black" points="380.89,-156.6 374.03,-148.53 374.36,-159.12 380.89,-156.6"/>
</g>
<!-- http://purl.org/oseg/ontologies/OTRL#exitCriteria -->
<g id="node20" class="node">
<title>http://purl.org/oseg/ontologies/OTRL#exitCriteria</title>
<ellipse fill="none" stroke="#e377c2" cx="449.21" cy="-352.22" rx="70.01" ry="16.03"/>
<text text-anchor="middle" x="449.21" y="-348.52" font-family="Times,serif" font-size="14.00">exitCriteria</text>
</g>
<!-- http://purl.org/oseg/ontologies/OTRL#exitCriteria&#45;&gt;http://schema.org/Text -->
<g id="edge6" class="edge">
<title>http://purl.org/oseg/ontologies/OTRL#exitCriteria&#45;&gt;http://schema.org/Text</title>
<path fill="none" stroke="black" d="M450.68,-368.68C450.72,-369.15 450.77,-369.62 450.81,-370.09"/>
<polygon fill="black" stroke="black" points="447.33,-370.45 451.71,-380.1 454.3,-369.82 447.33,-370.45"/>
<text text-anchor="middle" x="429.75" y="-373.19" font-family="Times,serif" font-size="14.00">range</text>
</g>
</g>
</svg>
