<?xml version="1.0" encoding="UTF-8" standalone="no"?>
<!DOCTYPE svg PUBLIC "-//W3C//DTD SVG 1.1//EN"
 "http://www.w3.org/Graphics/SVG/1.1/DTD/svg11.dtd">
<!-- Generated by graphviz version 2.43.0 (0)
 -->
<!-- Title: G Pages: 1 -->
<svg width="608pt" height="405pt"
 viewBox="0.00 0.00 608.00 405.00" xmlns="http://www.w3.org/2000/svg" xmlns:xlink="http://www.w3.org/1999/xlink">
<g id="graph0" class="graph" transform="scale(1 1) rotate(0) translate(4 401)">
<title>G</title>
<polygon fill="white" stroke="transparent" points="-4,4 -4,-401 604,-401 604,4 -4,4"/>
<!-- http://purl.org/oseg/ontologies/OTRL#ODRL -->
<g id="node1" class="node">
<title>http://purl.org/oseg/ontologies/OTRL#ODRL</title>
<ellipse fill="none" stroke="#e377c2" cx="348.98" cy="-212.54" rx="41.94" ry="16.03"/>
<text text-anchor="middle" x="348.98" y="-208.84" font-family="Times,serif" font-size="14.00">ODRL</text>
</g>
<!-- http://www.w3.org/2002/07/owl#class -->
<g id="node2" class="node">
<title>http://www.w3.org/2002/07/owl#class</title>
<ellipse fill="none" stroke="#1f77b4" cx="220.41" cy="-175.24" rx="57.05" ry="16.03"/>
<text text-anchor="middle" x="220.41" y="-171.54" font-family="Times,serif" font-size="14.00">owl:class</text>
</g>
<!-- http://purl.org/oseg/ontologies/OTRL#ODRL&#45;&gt;http://www.w3.org/2002/07/owl#class -->
<g id="edge10" class="edge">
<title>http://purl.org/oseg/ontologies/OTRL#ODRL&#45;&gt;http://www.w3.org/2002/07/owl#class</title>
<path fill="none" stroke="black" d="M315.2,-202.74C301.53,-198.78 285.46,-194.11 270.48,-189.77"/>
<polygon fill="black" stroke="black" points="271.4,-186.39 260.82,-186.97 269.45,-193.11 271.4,-186.39"/>
<text text-anchor="middle" x="288.34" y="-200.05" font-family="Times,serif" font-size="14.00">a</text>
</g>
<!-- http://purl.org/oseg/ontologies/OTRL#OTRL -->
<g id="node3" class="node">
<title>http://purl.org/oseg/ontologies/OTRL#OTRL</title>
<ellipse fill="none" stroke="#e377c2" cx="95.38" cy="-138.94" rx="39.7" ry="16.03"/>
<text text-anchor="middle" x="95.38" y="-135.24" font-family="Times,serif" font-size="14.00">OTRL</text>
</g>
<!-- http://purl.org/oseg/ontologies/OTRL#OTRL&#45;&gt;http://www.w3.org/2002/07/owl#class -->
<g id="edge23" class="edge">
<title>http://purl.org/oseg/ontologies/OTRL#OTRL&#45;&gt;http://www.w3.org/2002/07/owl#class</title>
<path fill="none" stroke="black" d="M127.91,-148.39C140.84,-152.14 156.02,-156.55 170.29,-160.69"/>
<polygon fill="black" stroke="black" points="169.42,-164.08 180,-163.51 171.37,-157.36 169.42,-164.08"/>
<text text-anchor="middle" x="144.6" y="-158.34" font-family="Times,serif" font-size="14.00">a</text>
</g>
<!-- http://purl.org/oseg/ontologies/OTRL -->
<g id="node4" class="node">
<title>http://purl.org/oseg/ontologies/OTRL</title>
<ellipse fill="none" stroke="#e377c2" cx="130.24" cy="-361.64" rx="60.62" ry="16.03"/>
<text text-anchor="middle" x="130.24" y="-357.94" font-family="Times,serif" font-size="14.00">ns1:OTRL</text>
</g>
<!-- http://purl.org/oseg/ontologies/OTRL&#45;&gt;http://purl.org/oseg/ontologies/OTRL -->
<g id="edge15" class="edge">
<title>http://purl.org/oseg/ontologies/OTRL&#45;&gt;http://purl.org/oseg/ontologies/OTRL</title>
<path fill="none" stroke="black" d="M185.84,-368.27C199.17,-367.75 209.05,-365.54 209.05,-361.64 209.05,-358.81 203.83,-356.86 195.87,-355.81"/>
<polygon fill="black" stroke="black" points="196.09,-352.32 185.84,-355.01 195.53,-359.3 196.09,-352.32"/>
<text text-anchor="middle" x="260.55" y="-357.94" font-family="Times,serif" font-size="14.00">owl:versionIRI</text>
</g>
<!-- http://purl.org/oseg/ontologies/OTRL#exitCriteria -->
<g id="node5" class="node">
<title>http://purl.org/oseg/ontologies/OTRL#exitCriteria</title>
<ellipse fill="none" stroke="#e377c2" cx="438.49" cy="-381.16" rx="70.01" ry="16.03"/>
<text text-anchor="middle" x="438.49" y="-377.46" font-family="Times,serif" font-size="14.00">exitCriteria</text>
</g>
<!-- http://schema.org/Text -->
<g id="node14" class="node">
<title>http://schema.org/Text</title>
<ellipse fill="none" stroke="#e377c2" cx="504.92" cy="-338.12" rx="74.91" ry="16.03"/>
<text text-anchor="middle" x="504.92" y="-334.42" font-family="Times,serif" font-size="14.00">schema:Text</text>
</g>
<!-- http://purl.org/oseg/ontologies/OTRL#exitCriteria&#45;&gt;http://schema.org/Text -->
<g id="edge20" class="edge">
<title>http://purl.org/oseg/ontologies/OTRL#exitCriteria&#45;&gt;http://schema.org/Text</title>
<path fill="none" stroke="black" d="M462.47,-365.62C465.63,-363.57 468.91,-361.45 472.19,-359.33"/>
<polygon fill="black" stroke="black" points="474.26,-362.15 480.75,-353.78 470.45,-356.28 474.26,-362.15"/>
<text text-anchor="middle" x="446.33" y="-351.27" font-family="Times,serif" font-size="14.00">range</text>
</g>
<!-- http://purl.org/oseg/ontologies/OTRL#OTRL&#45;2 -->
<g id="node6" class="node">
<title>http://purl.org/oseg/ontologies/OTRL#OTRL&#45;2</title>
<ellipse fill="none" stroke="#e377c2" cx="85.44" cy="-277.94" rx="49.49" ry="16.03"/>
<text text-anchor="middle" x="85.44" y="-274.24" font-family="Times,serif" font-size="14.00">OTRL&#45;2</text>
</g>
<!-- http://purl.org/oseg/ontologies/OTRL#OTRL&#45;2&#45;&gt;http://www.w3.org/2002/07/owl#class -->
<g id="edge1" class="edge">
<title>http://purl.org/oseg/ontologies/OTRL#OTRL&#45;2&#45;&gt;http://www.w3.org/2002/07/owl#class</title>
<path fill="none" stroke="black" d="M105.06,-263.01C128.02,-245.54 166.21,-216.48 192.3,-196.63"/>
<polygon fill="black" stroke="black" points="194.48,-199.37 200.32,-190.53 190.24,-193.8 194.48,-199.37"/>
<text text-anchor="middle" x="144.18" y="-233.62" font-family="Times,serif" font-size="14.00">a</text>
</g>
<!-- http://purl.org/oseg/ontologies/OTRL#OTRL&#45;2&#45;&gt;http://purl.org/oseg/ontologies/OTRL#OTRL -->
<g id="edge14" class="edge">
<title>http://purl.org/oseg/ontologies/OTRL#OTRL&#45;2&#45;&gt;http://purl.org/oseg/ontologies/OTRL#OTRL</title>
<path fill="none" stroke="black" d="M86.62,-261.45C88.31,-237.73 91.46,-193.73 93.49,-165.42"/>
<polygon fill="black" stroke="black" points="96.98,-165.64 94.21,-155.41 90,-165.14 96.98,-165.64"/>
</g>
<!-- http://purl.org/oseg/ontologies/OTRL#ODRL&#45;1 -->
<g id="node7" class="node">
<title>http://purl.org/oseg/ontologies/OTRL#ODRL&#45;1</title>
<ellipse fill="none" stroke="#e377c2" cx="366.08" cy="-262.05" rx="50.82" ry="16.03"/>
<text text-anchor="middle" x="366.08" y="-258.35" font-family="Times,serif" font-size="14.00">ODRL&#45;1</text>
</g>
<!-- http://purl.org/oseg/ontologies/OTRL#ODRL&#45;1&#45;&gt;http://purl.org/oseg/ontologies/OTRL#ODRL -->
<g id="edge25" class="edge">
<title>http://purl.org/oseg/ontologies/OTRL#ODRL&#45;1&#45;&gt;http://purl.org/oseg/ontologies/OTRL#ODRL</title>
<path fill="none" stroke="black" d="M360.48,-245.84C359.66,-243.47 358.8,-240.98 357.94,-238.48"/>
<polygon fill="black" stroke="black" points="361.22,-237.27 354.65,-228.96 354.61,-239.55 361.22,-237.27"/>
</g>
<!-- http://purl.org/oseg/ontologies/OTRL#ODRL&#45;1&#45;&gt;http://www.w3.org/2002/07/owl#class -->
<g id="edge2" class="edge">
<title>http://purl.org/oseg/ontologies/OTRL#ODRL&#45;1&#45;&gt;http://www.w3.org/2002/07/owl#class</title>
<path fill="none" stroke="black" d="M342.02,-247.71C318.06,-233.43 281.07,-211.39 254.18,-195.36"/>
<polygon fill="black" stroke="black" points="255.86,-192.29 245.47,-190.18 252.27,-198.3 255.86,-192.29"/>
<text text-anchor="middle" x="293.6" y="-225.34" font-family="Times,serif" font-size="14.00">a</text>
</g>
<!-- http://purl.org/oseg/ontologies/OTRL#ODRL&#45;3 -->
<g id="node8" class="node">
<title>http://purl.org/oseg/ontologies/OTRL#ODRL&#45;3</title>
<ellipse fill="none" stroke="#e377c2" cx="281.67" cy="-336.34" rx="50.82" ry="16.03"/>
<text text-anchor="middle" x="281.67" y="-332.64" font-family="Times,serif" font-size="14.00">ODRL&#45;3</text>
</g>
<!-- http://purl.org/oseg/ontologies/OTRL#ODRL&#45;3&#45;&gt;http://purl.org/oseg/ontologies/OTRL#ODRL -->
<g id="edge4" class="edge">
<title>http://purl.org/oseg/ontologies/OTRL#ODRL&#45;3&#45;&gt;http://purl.org/oseg/ontologies/OTRL#ODRL</title>
<path fill="none" stroke="black" d="M290.47,-320.15C301.86,-299.21 321.83,-262.49 335.23,-237.84"/>
<polygon fill="black" stroke="black" points="338.48,-239.19 340.18,-228.73 332.33,-235.84 338.48,-239.19"/>
</g>
<!-- http://purl.org/oseg/ontologies/OTRL#ODRL&#45;3&#45;&gt;http://www.w3.org/2002/07/owl#class -->
<g id="edge12" class="edge">
<title>http://purl.org/oseg/ontologies/OTRL#ODRL&#45;3&#45;&gt;http://www.w3.org/2002/07/owl#class</title>
<path fill="none" stroke="black" d="M275.46,-320C264.82,-292.02 243.02,-234.7 230.28,-201.19"/>
<polygon fill="black" stroke="black" points="233.46,-199.72 226.64,-191.62 226.92,-202.21 233.46,-199.72"/>
<text text-anchor="middle" x="248.37" y="-264.4" font-family="Times,serif" font-size="14.00">a</text>
</g>
<!-- http://purl.org/oseg/ontologies/OTRL#OTRL&#45;4 -->
<g id="node9" class="node">
<title>http://purl.org/oseg/ontologies/OTRL#OTRL&#45;4</title>
<ellipse fill="none" stroke="#e377c2" cx="77.11" cy="-87.06" rx="49.49" ry="16.03"/>
<text text-anchor="middle" x="77.11" y="-83.36" font-family="Times,serif" font-size="14.00">OTRL&#45;4</text>
</g>
<!-- http://purl.org/oseg/ontologies/OTRL#OTRL&#45;4&#45;&gt;http://www.w3.org/2002/07/owl#class -->
<g id="edge13" class="edge">
<title>http://purl.org/oseg/ontologies/OTRL#OTRL&#45;4&#45;&gt;http://www.w3.org/2002/07/owl#class</title>
<path fill="none" stroke="black" d="M100.45,-101.43C124.1,-115.98 160.91,-138.63 187.52,-155"/>
<polygon fill="black" stroke="black" points="185.76,-158.03 196.12,-160.29 189.43,-152.07 185.76,-158.03"/>
<text text-anchor="middle" x="139.48" y="-132.02" font-family="Times,serif" font-size="14.00">a</text>
</g>
<!-- http://purl.org/oseg/ontologies/OTRL#OTRL&#45;4&#45;&gt;http://purl.org/oseg/ontologies/OTRL#OTRL -->
<g id="edge8" class="edge">
<title>http://purl.org/oseg/ontologies/OTRL#OTRL&#45;4&#45;&gt;http://purl.org/oseg/ontologies/OTRL#OTRL</title>
<path fill="none" stroke="black" d="M82.89,-103.48C83.98,-106.57 85.14,-109.86 86.3,-113.16"/>
<polygon fill="black" stroke="black" points="83.08,-114.55 89.7,-122.81 89.68,-112.22 83.08,-114.55"/>
</g>
<!-- http://purl.org/oseg/ontologies/OTRL#goal -->
<g id="node10" class="node">
<title>http://purl.org/oseg/ontologies/OTRL#goal</title>
<ellipse fill="none" stroke="#e377c2" cx="567.09" cy="-378.84" rx="33.47" ry="16.03"/>
<text text-anchor="middle" x="567.09" y="-375.14" font-family="Times,serif" font-size="14.00">goal</text>
</g>
<!-- http://purl.org/oseg/ontologies/OTRL#goal&#45;&gt;http://schema.org/Text -->
<g id="edge9" class="edge">
<title>http://purl.org/oseg/ontologies/OTRL#goal&#45;&gt;http://schema.org/Text</title>
<path fill="none" stroke="black" d="M547.08,-365.73C543.98,-363.71 540.72,-361.57 537.44,-359.42"/>
<polygon fill="black" stroke="black" points="539.09,-356.32 528.8,-353.76 535.25,-362.17 539.09,-356.32"/>
<text text-anchor="middle" x="563.26" y="-351.38" font-family="Times,serif" font-size="14.00">range</text>
</g>
<!-- http://purl.org/oseg/ontologies/OTRL#ODRL&#45;2 -->
<g id="node11" class="node">
<title>http://purl.org/oseg/ontologies/OTRL#ODRL&#45;2</title>
<ellipse fill="none" stroke="#e377c2" cx="356.89" cy="-71.01" rx="50.82" ry="16.03"/>
<text text-anchor="middle" x="356.89" y="-67.31" font-family="Times,serif" font-size="14.00">ODRL&#45;2</text>
</g>
<!-- http://purl.org/oseg/ontologies/OTRL#ODRL&#45;2&#45;&gt;http://purl.org/oseg/ontologies/OTRL#ODRL -->
<g id="edge11" class="edge">
<title>http://purl.org/oseg/ontologies/OTRL#ODRL&#45;2&#45;&gt;http://purl.org/oseg/ontologies/OTRL#ODRL</title>
<path fill="none" stroke="black" d="M355.97,-87.52C354.62,-111.7 352.08,-157.01 350.47,-185.93"/>
<polygon fill="black" stroke="black" points="346.96,-185.96 349.9,-196.13 353.95,-186.35 346.96,-185.96"/>
</g>
<!-- http://purl.org/oseg/ontologies/OTRL#ODRL&#45;2&#45;&gt;http://www.w3.org/2002/07/owl#class -->
<g id="edge3" class="edge">
<title>http://purl.org/oseg/ontologies/OTRL#ODRL&#45;2&#45;&gt;http://www.w3.org/2002/07/owl#class</title>
<path fill="none" stroke="black" d="M337.04,-86.16C313.83,-103.89 275.22,-133.38 248.83,-153.54"/>
<polygon fill="black" stroke="black" points="246.55,-150.87 240.72,-159.73 250.79,-156.44 246.55,-150.87"/>
<text text-anchor="middle" x="288.43" y="-123.65" font-family="Times,serif" font-size="14.00">a</text>
</g>
<!-- http://purl.org/oseg/ontologies/OTRL#ODRL&#45;5 -->
<g id="node12" class="node">
<title>http://purl.org/oseg/ontologies/OTRL#ODRL&#45;5</title>
<ellipse fill="none" stroke="#e377c2" cx="220.2" cy="-217.63" rx="50.82" ry="16.03"/>
<text text-anchor="middle" x="220.2" y="-213.93" font-family="Times,serif" font-size="14.00">ODRL&#45;5</text>
</g>
<!-- http://purl.org/oseg/ontologies/OTRL#ODRL&#45;5&#45;&gt;http://purl.org/oseg/ontologies/OTRL#ODRL -->
<g id="edge22" class="edge">
<title>http://purl.org/oseg/ontologies/OTRL#ODRL&#45;5&#45;&gt;http://purl.org/oseg/ontologies/OTRL#ODRL</title>
<path fill="none" stroke="black" d="M270.73,-215.64C279.44,-215.29 288.5,-214.93 297.25,-214.59"/>
<polygon fill="black" stroke="black" points="297.47,-218.08 307.32,-214.19 297.19,-211.09 297.47,-218.08"/>
</g>
<!-- http://purl.org/oseg/ontologies/OTRL#ODRL&#45;5&#45;&gt;http://www.w3.org/2002/07/owl#class -->
<g id="edge17" class="edge">
<title>http://purl.org/oseg/ontologies/OTRL#ODRL&#45;5&#45;&gt;http://www.w3.org/2002/07/owl#class</title>
<path fill="none" stroke="black" d="M220.28,-201.36C220.28,-201.27 220.28,-201.17 220.28,-201.07"/>
<polygon fill="black" stroke="black" points="223.77,-201.69 220.33,-191.68 216.78,-201.66 223.77,-201.69"/>
<text text-anchor="middle" x="215.78" y="-190.02" font-family="Times,serif" font-size="14.00">a</text>
</g>
<!-- http://purl.org/oseg/ontologies/OTRL#OTRL&#45;5 -->
<g id="node13" class="node">
<title>http://purl.org/oseg/ontologies/OTRL#OTRL&#45;5</title>
<ellipse fill="none" stroke="#e377c2" cx="157.92" cy="-16.26" rx="49.49" ry="16.03"/>
<text text-anchor="middle" x="157.92" y="-12.56" font-family="Times,serif" font-size="14.00">OTRL&#45;5</text>
</g>
<!-- http://purl.org/oseg/ontologies/OTRL#OTRL&#45;5&#45;&gt;http://www.w3.org/2002/07/owl#class -->
<g id="edge19" class="edge">
<title>http://purl.org/oseg/ontologies/OTRL#OTRL&#45;5&#45;&gt;http://www.w3.org/2002/07/owl#class</title>
<path fill="none" stroke="black" d="M164.37,-32.67C175.22,-60.28 197.21,-116.22 210.18,-149.23"/>
<polygon fill="black" stroke="black" points="206.98,-150.65 213.9,-158.68 213.5,-148.09 206.98,-150.65"/>
<text text-anchor="middle" x="182.77" y="-94.75" font-family="Times,serif" font-size="14.00">a</text>
</g>
<!-- http://purl.org/oseg/ontologies/OTRL#OTRL&#45;5&#45;&gt;http://purl.org/oseg/ontologies/OTRL#OTRL -->
<g id="edge24" class="edge">
<title>http://purl.org/oseg/ontologies/OTRL#OTRL&#45;5&#45;&gt;http://purl.org/oseg/ontologies/OTRL#OTRL</title>
<path fill="none" stroke="black" d="M149.61,-32.55C138.99,-53.38 120.5,-89.66 108.11,-113.98"/>
<polygon fill="black" stroke="black" points="104.95,-112.48 103.52,-122.98 111.18,-115.66 104.95,-112.48"/>
</g>
<!-- http://purl.org/oseg/ontologies/OTRL#OTRL&#45;3 -->
<g id="node15" class="node">
<title>http://purl.org/oseg/ontologies/OTRL#OTRL&#45;3</title>
<ellipse fill="none" stroke="#e377c2" cx="220.76" cy="-123.5" rx="49.49" ry="16.03"/>
<text text-anchor="middle" x="220.76" y="-119.8" font-family="Times,serif" font-size="14.00">OTRL&#45;3</text>
</g>
<!-- http://purl.org/oseg/ontologies/OTRL#OTRL&#45;3&#45;&gt;http://www.w3.org/2002/07/owl#class -->
<g id="edge21" class="edge">
<title>http://purl.org/oseg/ontologies/OTRL#OTRL&#45;3&#45;&gt;http://www.w3.org/2002/07/owl#class</title>
<path fill="none" stroke="black" d="M220.65,-139.87C220.63,-142.7 220.61,-145.71 220.59,-148.73"/>
<polygon fill="black" stroke="black" points="217.09,-148.77 220.52,-158.8 224.09,-148.82 217.09,-148.77"/>
<text text-anchor="middle" x="216.12" y="-148.1" font-family="Times,serif" font-size="14.00">a</text>
</g>
<!-- http://purl.org/oseg/ontologies/OTRL#OTRL&#45;3&#45;&gt;http://purl.org/oseg/ontologies/OTRL#OTRL -->
<g id="edge16" class="edge">
<title>http://purl.org/oseg/ontologies/OTRL#OTRL&#45;3&#45;&gt;http://purl.org/oseg/ontologies/OTRL#OTRL</title>
<path fill="none" stroke="black" d="M174.08,-129.25C164.16,-130.47 153.66,-131.76 143.68,-132.99"/>
<polygon fill="black" stroke="black" points="143.01,-129.55 133.51,-134.25 143.87,-136.5 143.01,-129.55"/>
</g>
<!-- http://purl.org/oseg/ontologies/OTRL#OTRL&#45;1 -->
<g id="node16" class="node">
<title>http://purl.org/oseg/ontologies/OTRL#OTRL&#45;1</title>
<ellipse fill="none" stroke="#e377c2" cx="49.22" cy="-183.24" rx="49.49" ry="16.03"/>
<text text-anchor="middle" x="49.22" y="-179.54" font-family="Times,serif" font-size="14.00">OTRL&#45;1</text>
</g>
<!-- http://purl.org/oseg/ontologies/OTRL#OTRL&#45;1&#45;&gt;http://www.w3.org/2002/07/owl#class -->
<g id="edge6" class="edge">
<title>http://purl.org/oseg/ontologies/OTRL#OTRL&#45;1&#45;&gt;http://www.w3.org/2002/07/owl#class</title>
<path fill="none" stroke="black" d="M98.28,-180.95C115.53,-180.14 135.23,-179.22 153.69,-178.36"/>
<polygon fill="black" stroke="black" points="153.97,-181.85 163.8,-177.89 153.64,-174.86 153.97,-181.85"/>
<text text-anchor="middle" x="121.48" y="-183.45" font-family="Times,serif" font-size="14.00">a</text>
</g>
<!-- http://purl.org/oseg/ontologies/OTRL#OTRL&#45;1&#45;&gt;http://purl.org/oseg/ontologies/OTRL#OTRL -->
<g id="edge5" class="edge">
<title>http://purl.org/oseg/ontologies/OTRL#OTRL&#45;1&#45;&gt;http://purl.org/oseg/ontologies/OTRL#OTRL</title>
<path fill="none" stroke="black" d="M65.37,-167.75C67.56,-165.64 69.85,-163.45 72.13,-161.26"/>
<polygon fill="black" stroke="black" points="75,-163.36 79.79,-153.91 70.15,-158.31 75,-163.36"/>
</g>
<!-- http://purl.org/oseg/ontologies/OTRL#ODRL&#45;4 -->
<g id="node17" class="node">
<title>http://purl.org/oseg/ontologies/OTRL#ODRL&#45;4</title>
<ellipse fill="none" stroke="#e377c2" cx="392.22" cy="-166.57" rx="50.82" ry="16.03"/>
<text text-anchor="middle" x="392.22" y="-162.87" font-family="Times,serif" font-size="14.00">ODRL&#45;4</text>
</g>
<!-- http://purl.org/oseg/ontologies/OTRL#ODRL&#45;4&#45;&gt;http://purl.org/oseg/ontologies/OTRL#ODRL -->
<g id="edge18" class="edge">
<title>http://purl.org/oseg/ontologies/OTRL#ODRL&#45;4&#45;&gt;http://purl.org/oseg/ontologies/OTRL#ODRL</title>
<path fill="none" stroke="black" d="M377.34,-182.39C375.09,-184.78 372.74,-187.29 370.39,-189.79"/>
<polygon fill="black" stroke="black" points="367.75,-187.48 363.45,-197.16 372.85,-192.27 367.75,-187.48"/>
</g>
<!-- http://purl.org/oseg/ontologies/OTRL#ODRL&#45;4&#45;&gt;http://www.w3.org/2002/07/owl#class -->
<g id="edge7" class="edge">
<title>http://purl.org/oseg/ontologies/OTRL#ODRL&#45;4&#45;&gt;http://www.w3.org/2002/07/owl#class</title>
<path fill="none" stroke="black" d="M341.6,-169.13C324.56,-169.99 305.27,-170.96 287.18,-171.87"/>
<polygon fill="black" stroke="black" points="286.8,-168.39 276.99,-172.39 287.15,-175.38 286.8,-168.39"/>
<text text-anchor="middle" x="309.89" y="-174.3" font-family="Times,serif" font-size="14.00">a</text>
</g>
<!-- http://www.w3.org/1999/02/22&#45;rdf&#45;syntax&#45;ns#nil -->
<g id="node18" class="node">
<title>http://www.w3.org/1999/02/22&#45;rdf&#45;syntax&#45;ns#nil</title>
<ellipse fill="none" stroke="#e377c2" cx="295.24" cy="-16.64" rx="42.35" ry="16.03"/>
<text text-anchor="middle" x="295.24" y="-12.94" font-family="Times,serif" font-size="14.00">rdf:nil</text>
</g>
</g>
</svg>
