<?xml version="1.0" encoding="UTF-8" standalone="no"?>
<!DOCTYPE svg PUBLIC "-//W3C//DTD SVG 1.1//EN"
 "http://www.w3.org/Graphics/SVG/1.1/DTD/svg11.dtd">
<!-- Generated by graphviz version 2.43.0 (0)
 -->
<!-- Title: G Pages: 1 -->
<svg width="922pt" height="787pt"
 viewBox="0.00 0.00 922.05 787.00" xmlns="http://www.w3.org/2000/svg" xmlns:xlink="http://www.w3.org/1999/xlink">
<g id="graph0" class="graph" transform="scale(1 1) rotate(0) translate(4 783)">
<title>G</title>
<polygon fill="white" stroke="transparent" points="-4,4 -4,-783 918.05,-783 918.05,4 -4,4"/>
<!-- http://purl.org/oseg/ontologies/OTRL#OTRL -->
<g id="node1" class="node">
<title>http://purl.org/oseg/ontologies/OTRL#OTRL</title>
<ellipse fill="none" stroke="#e377c2" cx="400.77" cy="-464.13" rx="39.7" ry="16.03"/>
<text text-anchor="middle" x="400.77" y="-460.43" font-family="Times,serif" font-size="14.00">OTRL</text>
</g>
<!-- http://www.w3.org/2002/07/owl#class -->
<g id="node2" class="node">
<title>http://www.w3.org/2002/07/owl#class</title>
<ellipse fill="none" stroke="#1f77b4" cx="533.99" cy="-266.62" rx="57.05" ry="16.03"/>
<text text-anchor="middle" x="533.99" y="-262.92" font-family="Times,serif" font-size="14.00">owl:class</text>
</g>
<!-- http://purl.org/oseg/ontologies/OTRL#OTRL&#45;&gt;http://www.w3.org/2002/07/owl#class -->
<g id="edge2" class="edge">
<title>http://purl.org/oseg/ontologies/OTRL#OTRL&#45;&gt;http://www.w3.org/2002/07/owl#class</title>
<path fill="none" stroke="black" d="M411.44,-448.3C434.62,-413.93 489.7,-332.27 517.43,-291.16"/>
<polygon fill="black" stroke="black" points="520.38,-293.05 523.07,-282.8 514.58,-289.13 520.38,-293.05"/>
<text text-anchor="middle" x="459.94" y="-373.53" font-family="Times,serif" font-size="14.00">a</text>
</g>
<!-- http://purl.org/oseg/ontologies/OTRL#ODRL -->
<g id="node3" class="node">
<title>http://purl.org/oseg/ontologies/OTRL#ODRL</title>
<ellipse fill="none" stroke="#e377c2" cx="625.58" cy="-104.02" rx="41.94" ry="16.03"/>
<text text-anchor="middle" x="625.58" y="-100.32" font-family="Times,serif" font-size="14.00">ODRL</text>
</g>
<!-- http://purl.org/oseg/ontologies/OTRL#ODRL&#45;&gt;http://www.w3.org/2002/07/owl#class -->
<g id="edge3" class="edge">
<title>http://purl.org/oseg/ontologies/OTRL#ODRL&#45;&gt;http://www.w3.org/2002/07/owl#class</title>
<path fill="none" stroke="black" d="M616.63,-119.9C600.66,-148.25 567.16,-207.72 548.08,-241.6"/>
<polygon fill="black" stroke="black" points="544.96,-240 543.11,-250.43 551.06,-243.43 544.96,-240"/>
<text text-anchor="middle" x="577.85" y="-184.55" font-family="Times,serif" font-size="14.00">a</text>
</g>
<!-- http://purl.org/oseg/ontologies/OTRL#ODRL&#45;3 -->
<g id="node4" class="node">
<title>http://purl.org/oseg/ontologies/OTRL#ODRL&#45;3</title>
<ellipse fill="none" stroke="#e377c2" cx="760.33" cy="-182" rx="50.82" ry="16.03"/>
<text text-anchor="middle" x="760.33" y="-178.3" font-family="Times,serif" font-size="14.00">ODRL&#45;3</text>
</g>
<!-- http://purl.org/oseg/ontologies/OTRL#ODRL&#45;3&#45;&gt;http://www.w3.org/2002/07/owl#class -->
<g id="edge19" class="edge">
<title>http://purl.org/oseg/ontologies/OTRL#ODRL&#45;3&#45;&gt;http://www.w3.org/2002/07/owl#class</title>
<path fill="none" stroke="black" d="M726.93,-194.49C687.49,-209.23 621.75,-233.81 578.13,-250.12"/>
<polygon fill="black" stroke="black" points="576.78,-246.89 568.64,-253.67 579.23,-253.44 576.78,-246.89"/>
<text text-anchor="middle" x="648.03" y="-226.1" font-family="Times,serif" font-size="14.00">a</text>
</g>
<!-- http://purl.org/oseg/ontologies/OTRL#ODRL&#45;3&#45;&gt;http://purl.org/oseg/ontologies/OTRL#ODRL -->
<g id="edge38" class="edge">
<title>http://purl.org/oseg/ontologies/OTRL#ODRL&#45;3&#45;&gt;http://purl.org/oseg/ontologies/OTRL#ODRL</title>
<path fill="none" stroke="black" d="M735.62,-167.7C713.79,-155.07 681.81,-136.56 657.94,-122.75"/>
<polygon fill="black" stroke="black" points="659.64,-119.69 649.23,-117.71 656.13,-125.75 659.64,-119.69"/>
</g>
<!-- http://purl.org/oseg/ontologies/OTRL -->
<g id="node5" class="node">
<title>http://purl.org/oseg/ontologies/OTRL</title>
<ellipse fill="none" stroke="#e377c2" cx="732.24" cy="-626.64" rx="60.62" ry="16.03"/>
<text text-anchor="middle" x="732.24" y="-622.94" font-family="Times,serif" font-size="14.00">ns1:OTRL</text>
</g>
<!-- http://purl.org/oseg/ontologies/OTRL&#45;&gt;http://purl.org/oseg/ontologies/OTRL -->
<g id="edge29" class="edge">
<title>http://purl.org/oseg/ontologies/OTRL&#45;&gt;http://purl.org/oseg/ontologies/OTRL</title>
<path fill="none" stroke="black" d="M787.84,-633.27C801.17,-632.75 811.05,-630.54 811.05,-626.64 811.05,-623.81 805.83,-621.86 797.87,-620.81"/>
<polygon fill="black" stroke="black" points="798.09,-617.32 787.84,-620.01 797.53,-624.3 798.09,-617.32"/>
<text text-anchor="middle" x="862.55" y="-622.94" font-family="Times,serif" font-size="14.00">owl:versionIRI</text>
</g>
<!-- http://purl.org/oseg/ontologies/OTRL#ODRL&#45;0 -->
<g id="node6" class="node">
<title>http://purl.org/oseg/ontologies/OTRL#ODRL&#45;0</title>
<ellipse fill="none" stroke="#e377c2" cx="747.89" cy="-250.98" rx="50.82" ry="16.03"/>
<text text-anchor="middle" x="747.89" y="-247.28" font-family="Times,serif" font-size="14.00">ODRL&#45;0</text>
</g>
<!-- http://purl.org/oseg/ontologies/OTRL#ODRL&#45;0&#45;&gt;http://www.w3.org/2002/07/owl#class -->
<g id="edge20" class="edge">
<title>http://purl.org/oseg/ontologies/OTRL#ODRL&#45;0&#45;&gt;http://www.w3.org/2002/07/owl#class</title>
<path fill="none" stroke="black" d="M698.01,-254.63C668.71,-256.77 631.34,-259.5 599.66,-261.82"/>
<polygon fill="black" stroke="black" points="599.32,-258.33 589.6,-262.55 599.83,-265.32 599.32,-258.33"/>
<text text-anchor="middle" x="644.34" y="-262.02" font-family="Times,serif" font-size="14.00">a</text>
</g>
<!-- http://purl.org/oseg/ontologies/OTRL#ODRL&#45;0&#45;&gt;http://purl.org/oseg/ontologies/OTRL#ODRL -->
<g id="edge9" class="edge">
<title>http://purl.org/oseg/ontologies/OTRL#ODRL&#45;0&#45;&gt;http://purl.org/oseg/ontologies/OTRL#ODRL</title>
<path fill="none" stroke="black" d="M734.8,-235.25C713.28,-209.4 670.32,-157.77 645.16,-127.55"/>
<polygon fill="black" stroke="black" points="647.66,-125.08 638.57,-119.63 642.28,-129.56 647.66,-125.08"/>
</g>
<!-- http://purl.org/oseg/ontologies/OTRL#OTRL&#45;2 -->
<g id="node7" class="node">
<title>http://purl.org/oseg/ontologies/OTRL#OTRL&#45;2</title>
<ellipse fill="none" stroke="#e377c2" cx="510.38" cy="-463.35" rx="49.49" ry="16.03"/>
<text text-anchor="middle" x="510.38" y="-459.65" font-family="Times,serif" font-size="14.00">OTRL&#45;2</text>
</g>
<!-- http://purl.org/oseg/ontologies/OTRL#OTRL&#45;2&#45;&gt;http://purl.org/oseg/ontologies/OTRL#OTRL -->
<g id="edge11" class="edge">
<title>http://purl.org/oseg/ontologies/OTRL#OTRL&#45;2&#45;&gt;http://purl.org/oseg/ontologies/OTRL#OTRL</title>
<path fill="none" stroke="black" d="M460.7,-463.7C457.3,-463.73 453.88,-463.75 450.48,-463.78"/>
<polygon fill="black" stroke="black" points="450.39,-460.28 440.42,-463.85 450.44,-467.28 450.39,-460.28"/>
</g>
<!-- http://purl.org/oseg/ontologies/OTRL#OTRL&#45;2&#45;&gt;http://www.w3.org/2002/07/owl#class -->
<g id="edge22" class="edge">
<title>http://purl.org/oseg/ontologies/OTRL#OTRL&#45;2&#45;&gt;http://www.w3.org/2002/07/owl#class</title>
<path fill="none" stroke="black" d="M512.35,-446.91C516.43,-412.92 525.83,-334.61 530.79,-293.28"/>
<polygon fill="black" stroke="black" points="534.29,-293.49 532,-283.15 527.34,-292.66 534.29,-293.49"/>
<text text-anchor="middle" x="517.07" y="-373.9" font-family="Times,serif" font-size="14.00">a</text>
</g>
<!-- http://schema.org/Text -->
<g id="node8" class="node">
<title>http://schema.org/Text</title>
<ellipse fill="none" stroke="#e377c2" cx="130.4" cy="-723.49" rx="74.91" ry="16.03"/>
<text text-anchor="middle" x="130.4" y="-719.79" font-family="Times,serif" font-size="14.00">schema:Text</text>
</g>
<!-- http://purl.org/oseg/ontologies/OTRL#OTRL&#45;5 -->
<g id="node9" class="node">
<title>http://purl.org/oseg/ontologies/OTRL#OTRL&#45;5</title>
<ellipse fill="none" stroke="#e377c2" cx="384.75" cy="-415.49" rx="49.49" ry="16.03"/>
<text text-anchor="middle" x="384.75" y="-411.79" font-family="Times,serif" font-size="14.00">OTRL&#45;5</text>
</g>
<!-- http://purl.org/oseg/ontologies/OTRL#OTRL&#45;5&#45;&gt;http://purl.org/oseg/ontologies/OTRL#OTRL -->
<g id="edge33" class="edge">
<title>http://purl.org/oseg/ontologies/OTRL#OTRL&#45;5&#45;&gt;http://purl.org/oseg/ontologies/OTRL#OTRL</title>
<path fill="none" stroke="black" d="M390.08,-431.69C390.78,-433.8 391.5,-436 392.23,-438.22"/>
<polygon fill="black" stroke="black" points="388.95,-439.44 395.4,-447.84 395.6,-437.25 388.95,-439.44"/>
</g>
<!-- http://purl.org/oseg/ontologies/OTRL#OTRL&#45;5&#45;&gt;http://www.w3.org/2002/07/owl#class -->
<g id="edge4" class="edge">
<title>http://purl.org/oseg/ontologies/OTRL#OTRL&#45;5&#45;&gt;http://www.w3.org/2002/07/owl#class</title>
<path fill="none" stroke="black" d="M400.44,-399.84C426.79,-373.55 480.07,-320.4 510.77,-289.78"/>
<polygon fill="black" stroke="black" points="513.45,-292.05 518.06,-282.51 508.51,-287.09 513.45,-292.05"/>
<text text-anchor="middle" x="451.1" y="-348.61" font-family="Times,serif" font-size="14.00">a</text>
</g>
<!-- http://purl.org/oseg/ontologies/OTRL#OTRL&#45;6 -->
<g id="node10" class="node">
<title>http://purl.org/oseg/ontologies/OTRL#OTRL&#45;6</title>
<ellipse fill="none" stroke="#e377c2" cx="571.54" cy="-409.66" rx="49.49" ry="16.03"/>
<text text-anchor="middle" x="571.54" y="-405.96" font-family="Times,serif" font-size="14.00">OTRL&#45;6</text>
</g>
<!-- http://purl.org/oseg/ontologies/OTRL#OTRL&#45;6&#45;&gt;http://purl.org/oseg/ontologies/OTRL#OTRL -->
<g id="edge7" class="edge">
<title>http://purl.org/oseg/ontologies/OTRL#OTRL&#45;6&#45;&gt;http://purl.org/oseg/ontologies/OTRL#OTRL</title>
<path fill="none" stroke="black" d="M535.74,-421.08C508.35,-429.81 470.56,-441.87 441.92,-451"/>
<polygon fill="black" stroke="black" points="440.67,-447.73 432.21,-454.1 442.8,-454.39 440.67,-447.73"/>
</g>
<!-- http://purl.org/oseg/ontologies/OTRL#OTRL&#45;6&#45;&gt;http://www.w3.org/2002/07/owl#class -->
<g id="edge5" class="edge">
<title>http://purl.org/oseg/ontologies/OTRL#OTRL&#45;6&#45;&gt;http://www.w3.org/2002/07/owl#class</title>
<path fill="none" stroke="black" d="M567.23,-393.25C560.81,-368.81 548.67,-322.57 540.97,-293.25"/>
<polygon fill="black" stroke="black" points="544.28,-292.06 538.36,-283.28 537.51,-293.84 544.28,-292.06"/>
<text text-anchor="middle" x="549.6" y="-347.05" font-family="Times,serif" font-size="14.00">a</text>
</g>
<!-- http://purl.org/oseg/ontologies/OTRL#exitCriteria -->
<g id="node11" class="node">
<title>http://purl.org/oseg/ontologies/OTRL#exitCriteria</title>
<ellipse fill="none" stroke="#e377c2" cx="357.23" cy="-676.14" rx="70.01" ry="16.03"/>
<text text-anchor="middle" x="357.23" y="-672.44" font-family="Times,serif" font-size="14.00">exitCriteria</text>
</g>
<!-- http://purl.org/oseg/ontologies/OTRL#exitCriteria&#45;&gt;http://purl.org/oseg/ontologies/OTRL#OTRL -->
<g id="edge34" class="edge">
<title>http://purl.org/oseg/ontologies/OTRL#exitCriteria&#45;&gt;http://purl.org/oseg/ontologies/OTRL#OTRL</title>
<path fill="none" stroke="black" d="M360.58,-659.86C368.06,-623.4 386.23,-534.93 395.35,-490.51"/>
<polygon fill="black" stroke="black" points="398.83,-490.97 397.41,-480.47 391.97,-489.56 398.83,-490.97"/>
<text text-anchor="middle" x="351.46" y="-578.98" font-family="Times,serif" font-size="14.00">domain</text>
</g>
<!-- http://purl.org/oseg/ontologies/OTRL#exitCriteria&#45;&gt;http://schema.org/Text -->
<g id="edge30" class="edge">
<title>http://purl.org/oseg/ontologies/OTRL#exitCriteria&#45;&gt;http://schema.org/Text</title>
<path fill="none" stroke="black" d="M304.91,-687.06C272.04,-693.93 229.42,-702.82 194.52,-710.11"/>
<polygon fill="black" stroke="black" points="193.5,-706.74 184.43,-712.21 194.94,-713.6 193.5,-706.74"/>
<text text-anchor="middle" x="228.71" y="-702.39" font-family="Times,serif" font-size="14.00">range</text>
</g>
<!-- http://purl.org/oseg/ontologies/OTRL#ODRL&#45;2 -->
<g id="node12" class="node">
<title>http://purl.org/oseg/ontologies/OTRL#ODRL&#45;2</title>
<ellipse fill="none" stroke="#e377c2" cx="528.41" cy="-15.94" rx="50.82" ry="16.03"/>
<text text-anchor="middle" x="528.41" y="-12.24" font-family="Times,serif" font-size="14.00">ODRL&#45;2</text>
</g>
<!-- http://purl.org/oseg/ontologies/OTRL#ODRL&#45;2&#45;&gt;http://www.w3.org/2002/07/owl#class -->
<g id="edge24" class="edge">
<title>http://purl.org/oseg/ontologies/OTRL#ODRL&#45;2&#45;&gt;http://www.w3.org/2002/07/owl#class</title>
<path fill="none" stroke="black" d="M528.78,-32.39C529.72,-74.8 532.24,-188.14 533.39,-240.02"/>
<polygon fill="black" stroke="black" points="529.9,-240.19 533.62,-250.11 536.89,-240.04 529.9,-240.19"/>
<text text-anchor="middle" x="526.59" y="-140.01" font-family="Times,serif" font-size="14.00">a</text>
</g>
<!-- http://purl.org/oseg/ontologies/OTRL#ODRL&#45;2&#45;&gt;http://purl.org/oseg/ontologies/OTRL#ODRL -->
<g id="edge28" class="edge">
<title>http://purl.org/oseg/ontologies/OTRL#ODRL&#45;2&#45;&gt;http://purl.org/oseg/ontologies/OTRL#ODRL</title>
<path fill="none" stroke="black" d="M545.34,-31.28C560.8,-45.3 583.85,-66.19 601.28,-81.99"/>
<polygon fill="black" stroke="black" points="599.09,-84.73 608.85,-88.85 603.79,-79.54 599.09,-84.73"/>
</g>
<!-- http://purl.org/oseg/ontologies/OTRL#OTRL&#45;7 -->
<g id="node13" class="node">
<title>http://purl.org/oseg/ontologies/OTRL#OTRL&#45;7</title>
<ellipse fill="none" stroke="#e377c2" cx="353.51" cy="-251.17" rx="49.49" ry="16.03"/>
<text text-anchor="middle" x="353.51" y="-247.47" font-family="Times,serif" font-size="14.00">OTRL&#45;7</text>
</g>
<!-- http://purl.org/oseg/ontologies/OTRL#OTRL&#45;7&#45;&gt;http://purl.org/oseg/ontologies/OTRL#OTRL -->
<g id="edge12" class="edge">
<title>http://purl.org/oseg/ontologies/OTRL#OTRL&#45;7&#45;&gt;http://purl.org/oseg/ontologies/OTRL#OTRL</title>
<path fill="none" stroke="black" d="M357.14,-267.53C365.28,-304.23 385.07,-393.39 394.95,-437.92"/>
<polygon fill="black" stroke="black" points="391.54,-438.71 397.12,-447.72 398.37,-437.2 391.54,-438.71"/>
</g>
<!-- http://purl.org/oseg/ontologies/OTRL#OTRL&#45;7&#45;&gt;http://www.w3.org/2002/07/owl#class -->
<g id="edge25" class="edge">
<title>http://purl.org/oseg/ontologies/OTRL#OTRL&#45;7&#45;&gt;http://www.w3.org/2002/07/owl#class</title>
<path fill="none" stroke="black" d="M401.87,-255.31C422.52,-257.08 446.92,-259.17 469.1,-261.07"/>
<polygon fill="black" stroke="black" points="468.85,-264.56 479.11,-261.92 469.44,-257.58 468.85,-264.56"/>
<text text-anchor="middle" x="430.98" y="-261.99" font-family="Times,serif" font-size="14.00">a</text>
</g>
<!-- http://purl.org/oseg/ontologies/OTRL#ODRL&#45;1 -->
<g id="node14" class="node">
<title>http://purl.org/oseg/ontologies/OTRL#ODRL&#45;1</title>
<ellipse fill="none" stroke="#e377c2" cx="727.06" cy="-111.26" rx="50.82" ry="16.03"/>
<text text-anchor="middle" x="727.06" y="-107.56" font-family="Times,serif" font-size="14.00">ODRL&#45;1</text>
</g>
<!-- http://purl.org/oseg/ontologies/OTRL#ODRL&#45;1&#45;&gt;http://www.w3.org/2002/07/owl#class -->
<g id="edge8" class="edge">
<title>http://purl.org/oseg/ontologies/OTRL#ODRL&#45;1&#45;&gt;http://www.w3.org/2002/07/owl#class</title>
<path fill="none" stroke="black" d="M708.2,-126.43C673.82,-154.09 600.89,-212.78 561.16,-244.75"/>
<polygon fill="black" stroke="black" points="558.81,-242.15 553.21,-251.15 563.2,-247.61 558.81,-242.15"/>
<text text-anchor="middle" x="630.18" y="-189.39" font-family="Times,serif" font-size="14.00">a</text>
</g>
<!-- http://purl.org/oseg/ontologies/OTRL#ODRL&#45;1&#45;&gt;http://purl.org/oseg/ontologies/OTRL#ODRL -->
<g id="edge18" class="edge">
<title>http://purl.org/oseg/ontologies/OTRL#ODRL&#45;1&#45;&gt;http://purl.org/oseg/ontologies/OTRL#ODRL</title>
<path fill="none" stroke="black" d="M677.21,-107.7C677.1,-107.69 676.99,-107.68 676.88,-107.68"/>
<polygon fill="black" stroke="black" points="676.96,-104.17 666.73,-106.95 676.46,-111.16 676.96,-104.17"/>
</g>
<!-- http://purl.org/oseg/ontologies/OTRL#OTRL&#45;3 -->
<g id="node15" class="node">
<title>http://purl.org/oseg/ontologies/OTRL#OTRL&#45;3</title>
<ellipse fill="none" stroke="#e377c2" cx="630.5" cy="-461.93" rx="49.49" ry="16.03"/>
<text text-anchor="middle" x="630.5" y="-458.23" font-family="Times,serif" font-size="14.00">OTRL&#45;3</text>
</g>
<!-- http://purl.org/oseg/ontologies/OTRL#OTRL&#45;3&#45;&gt;http://purl.org/oseg/ontologies/OTRL#OTRL -->
<g id="edge15" class="edge">
<title>http://purl.org/oseg/ontologies/OTRL#OTRL&#45;3&#45;&gt;http://purl.org/oseg/ontologies/OTRL#OTRL</title>
<path fill="none" stroke="black" d="M580.93,-462.4C542.59,-462.77 489.72,-463.28 451.17,-463.65"/>
<polygon fill="black" stroke="black" points="450.66,-460.15 440.7,-463.75 450.73,-467.15 450.66,-460.15"/>
</g>
<!-- http://purl.org/oseg/ontologies/OTRL#OTRL&#45;3&#45;&gt;http://www.w3.org/2002/07/owl#class -->
<g id="edge27" class="edge">
<title>http://purl.org/oseg/ontologies/OTRL#OTRL&#45;3&#45;&gt;http://www.w3.org/2002/07/owl#class</title>
<path fill="none" stroke="black" d="M622.44,-445.61C605.57,-411.49 566.49,-332.4 546.4,-291.75"/>
<polygon fill="black" stroke="black" points="549.52,-290.17 541.96,-282.75 543.25,-293.27 549.52,-290.17"/>
<text text-anchor="middle" x="579.92" y="-372.48" font-family="Times,serif" font-size="14.00">a</text>
</g>
<!-- http://purl.org/oseg/ontologies/OTRL#softwareDescription -->
<g id="node16" class="node">
<title>http://purl.org/oseg/ontologies/OTRL#softwareDescription</title>
<ellipse fill="none" stroke="#e377c2" cx="113.7" cy="-496.84" rx="113.69" ry="16.03"/>
<text text-anchor="middle" x="113.7" y="-493.14" font-family="Times,serif" font-size="14.00">softwareDescription</text>
</g>
<!-- http://purl.org/oseg/ontologies/OTRL#softwareDescription&#45;&gt;http://purl.org/oseg/ontologies/OTRL#OTRL -->
<g id="edge37" class="edge">
<title>http://purl.org/oseg/ontologies/OTRL#softwareDescription&#45;&gt;http://purl.org/oseg/ontologies/OTRL#OTRL</title>
<path fill="none" stroke="black" d="M202.95,-486.67C252.27,-481.05 311.6,-474.29 352.35,-469.65"/>
<polygon fill="black" stroke="black" points="352.75,-473.12 362.29,-468.51 351.95,-466.17 352.75,-473.12"/>
<text text-anchor="middle" x="251.15" y="-466.96" font-family="Times,serif" font-size="14.00">domain</text>
</g>
<!-- http://purl.org/oseg/ontologies/OTRL#softwareDescription&#45;&gt;http://schema.org/Text -->
<g id="edge32" class="edge">
<title>http://purl.org/oseg/ontologies/OTRL#softwareDescription&#45;&gt;http://schema.org/Text</title>
<path fill="none" stroke="black" d="M114.9,-513.14C117.75,-551.84 124.95,-649.56 128.44,-696.93"/>
<polygon fill="black" stroke="black" points="124.96,-697.32 129.19,-707.04 131.94,-696.81 124.96,-697.32"/>
<text text-anchor="middle" x="100.67" y="-608.84" font-family="Times,serif" font-size="14.00">range</text>
</g>
<!-- http://purl.org/oseg/ontologies/OTRL#hardwareDescription -->
<g id="node17" class="node">
<title>http://purl.org/oseg/ontologies/OTRL#hardwareDescription</title>
<ellipse fill="none" stroke="#e377c2" cx="155.87" cy="-663.49" rx="118.17" ry="16.03"/>
<text text-anchor="middle" x="155.87" y="-659.79" font-family="Times,serif" font-size="14.00">hardwareDescription</text>
</g>
<!-- http://purl.org/oseg/ontologies/OTRL#hardwareDescription&#45;&gt;http://purl.org/oseg/ontologies/OTRL#OTRL -->
<g id="edge1" class="edge">
<title>http://purl.org/oseg/ontologies/OTRL#hardwareDescription&#45;&gt;http://purl.org/oseg/ontologies/OTRL#OTRL</title>
<path fill="none" stroke="black" d="M175.91,-647.18C220.08,-611.22 325.76,-525.19 374.87,-485.21"/>
<polygon fill="black" stroke="black" points="377.25,-487.78 382.8,-478.75 372.84,-482.35 377.25,-487.78"/>
<text text-anchor="middle" x="248.89" y="-570" font-family="Times,serif" font-size="14.00">domain</text>
</g>
<!-- http://purl.org/oseg/ontologies/OTRL#hardwareDescription&#45;&gt;http://schema.org/Text -->
<g id="edge26" class="edge">
<title>http://purl.org/oseg/ontologies/OTRL#hardwareDescription&#45;&gt;http://schema.org/Text</title>
<path fill="none" stroke="black" d="M148.91,-679.89C146.55,-685.44 143.86,-691.79 141.27,-697.89"/>
<polygon fill="black" stroke="black" points="138.04,-696.54 137.35,-707.12 144.48,-699.28 138.04,-696.54"/>
<text text-anchor="middle" x="124.09" y="-692.69" font-family="Times,serif" font-size="14.00">range</text>
</g>
<!-- http://purl.org/oseg/ontologies/OTRL#ODRL&#45;5 -->
<g id="node18" class="node">
<title>http://purl.org/oseg/ontologies/OTRL#ODRL&#45;5</title>
<ellipse fill="none" stroke="#e377c2" cx="645.56" cy="-57.52" rx="50.82" ry="16.03"/>
<text text-anchor="middle" x="645.56" y="-53.82" font-family="Times,serif" font-size="14.00">ODRL&#45;5</text>
</g>
<!-- http://purl.org/oseg/ontologies/OTRL#ODRL&#45;5&#45;&gt;http://www.w3.org/2002/07/owl#class -->
<g id="edge31" class="edge">
<title>http://purl.org/oseg/ontologies/OTRL#ODRL&#45;5&#45;&gt;http://www.w3.org/2002/07/owl#class</title>
<path fill="none" stroke="black" d="M636.99,-73.58C617.68,-109.77 570.65,-197.9 547.42,-241.43"/>
<polygon fill="black" stroke="black" points="544.2,-240.03 542.58,-250.5 550.38,-243.33 544.2,-240.03"/>
<text text-anchor="middle" x="587.7" y="-161.31" font-family="Times,serif" font-size="14.00">a</text>
</g>
<!-- http://purl.org/oseg/ontologies/OTRL#ODRL&#45;5&#45;&gt;http://purl.org/oseg/ontologies/OTRL#ODRL -->
<g id="edge39" class="edge">
<title>http://purl.org/oseg/ontologies/OTRL#ODRL&#45;5&#45;&gt;http://purl.org/oseg/ontologies/OTRL#ODRL</title>
<path fill="none" stroke="black" d="M638.57,-73.78C637.96,-75.19 637.34,-76.64 636.71,-78.1"/>
<polygon fill="black" stroke="black" points="633.33,-77.12 632.59,-87.69 639.76,-79.88 633.33,-77.12"/>
</g>
<!-- http://purl.org/oseg/ontologies/OTRL#OTRL&#45;9 -->
<g id="node19" class="node">
<title>http://purl.org/oseg/ontologies/OTRL#OTRL&#45;9</title>
<ellipse fill="none" stroke="#e377c2" cx="442.11" cy="-308.18" rx="49.49" ry="16.03"/>
<text text-anchor="middle" x="442.11" y="-304.48" font-family="Times,serif" font-size="14.00">OTRL&#45;9</text>
</g>
<!-- http://purl.org/oseg/ontologies/OTRL#OTRL&#45;9&#45;&gt;http://purl.org/oseg/ontologies/OTRL#OTRL -->
<g id="edge6" class="edge">
<title>http://purl.org/oseg/ontologies/OTRL#OTRL&#45;9&#45;&gt;http://purl.org/oseg/ontologies/OTRL#OTRL</title>
<path fill="none" stroke="black" d="M437.77,-324.57C430.61,-351.55 416.3,-405.54 407.72,-437.88"/>
<polygon fill="black" stroke="black" points="404.23,-437.39 405.05,-447.95 411,-439.18 404.23,-437.39"/>
</g>
<!-- http://purl.org/oseg/ontologies/OTRL#OTRL&#45;9&#45;&gt;http://www.w3.org/2002/07/owl#class -->
<g id="edge13" class="edge">
<title>http://purl.org/oseg/ontologies/OTRL#OTRL&#45;9&#45;&gt;http://www.w3.org/2002/07/owl#class</title>
<path fill="none" stroke="black" d="M471.43,-294.91C478.68,-291.64 486.56,-288.07 494.21,-284.61"/>
<polygon fill="black" stroke="black" points="495.69,-287.78 503.36,-280.47 492.81,-281.41 495.69,-287.78"/>
<text text-anchor="middle" x="478.32" y="-278.56" font-family="Times,serif" font-size="14.00">a</text>
</g>
<!-- http://purl.org/oseg/ontologies/OTRL#OTRL&#45;4 -->
<g id="node20" class="node">
<title>http://purl.org/oseg/ontologies/OTRL#OTRL&#45;4</title>
<ellipse fill="none" stroke="#e377c2" cx="265.66" cy="-303.56" rx="49.49" ry="16.03"/>
<text text-anchor="middle" x="265.66" y="-299.86" font-family="Times,serif" font-size="14.00">OTRL&#45;4</text>
</g>
<!-- http://purl.org/oseg/ontologies/OTRL#OTRL&#45;4&#45;&gt;http://purl.org/oseg/ontologies/OTRL#OTRL -->
<g id="edge36" class="edge">
<title>http://purl.org/oseg/ontologies/OTRL#OTRL&#45;4&#45;&gt;http://purl.org/oseg/ontologies/OTRL#OTRL</title>
<path fill="none" stroke="black" d="M278.86,-319.25C302.73,-347.62 353.19,-407.59 381.12,-440.79"/>
<polygon fill="black" stroke="black" points="378.59,-443.22 387.71,-448.61 383.95,-438.71 378.59,-443.22"/>
</g>
<!-- http://purl.org/oseg/ontologies/OTRL#OTRL&#45;4&#45;&gt;http://www.w3.org/2002/07/owl#class -->
<g id="edge35" class="edge">
<title>http://purl.org/oseg/ontologies/OTRL#OTRL&#45;4&#45;&gt;http://www.w3.org/2002/07/owl#class</title>
<path fill="none" stroke="black" d="M311.48,-297.25C355.78,-291.16 423.21,-281.87 472.23,-275.12"/>
<polygon fill="black" stroke="black" points="472.96,-278.55 482.39,-273.72 472.01,-271.62 472.96,-278.55"/>
<text text-anchor="middle" x="387.35" y="-289.99" font-family="Times,serif" font-size="14.00">a</text>
</g>
<!-- http://purl.org/oseg/ontologies/OTRL#OTRL&#45;8 -->
<g id="node21" class="node">
<title>http://purl.org/oseg/ontologies/OTRL#OTRL&#45;8</title>
<ellipse fill="none" stroke="#e377c2" cx="574.82" cy="-510.22" rx="49.49" ry="16.03"/>
<text text-anchor="middle" x="574.82" y="-506.52" font-family="Times,serif" font-size="14.00">OTRL&#45;8</text>
</g>
<!-- http://purl.org/oseg/ontologies/OTRL#OTRL&#45;8&#45;&gt;http://purl.org/oseg/ontologies/OTRL#OTRL -->
<g id="edge40" class="edge">
<title>http://purl.org/oseg/ontologies/OTRL#OTRL&#45;8&#45;&gt;http://purl.org/oseg/ontologies/OTRL#OTRL</title>
<path fill="none" stroke="black" d="M536.19,-499.99C508.99,-492.79 472.53,-483.13 444.29,-475.66"/>
<polygon fill="black" stroke="black" points="444.86,-472.18 434.3,-473.01 443.07,-478.95 444.86,-472.18"/>
</g>
<!-- http://purl.org/oseg/ontologies/OTRL#OTRL&#45;8&#45;&gt;http://www.w3.org/2002/07/owl#class -->
<g id="edge14" class="edge">
<title>http://purl.org/oseg/ontologies/OTRL#OTRL&#45;8&#45;&gt;http://www.w3.org/2002/07/owl#class</title>
<path fill="none" stroke="black" d="M572.08,-493.86C565.15,-452.51 546.88,-343.56 538.41,-293.04"/>
<polygon fill="black" stroke="black" points="541.82,-292.19 536.72,-282.91 534.92,-293.35 541.82,-292.19"/>
<text text-anchor="middle" x="550.74" y="-382.25" font-family="Times,serif" font-size="14.00">a</text>
</g>
<!-- http://purl.org/oseg/ontologies/OTRL#OTRL&#45;1 -->
<g id="node22" class="node">
<title>http://purl.org/oseg/ontologies/OTRL#OTRL&#45;1</title>
<ellipse fill="none" stroke="#e377c2" cx="340.6" cy="-352.68" rx="49.49" ry="16.03"/>
<text text-anchor="middle" x="340.6" y="-348.98" font-family="Times,serif" font-size="14.00">OTRL&#45;1</text>
</g>
<!-- http://purl.org/oseg/ontologies/OTRL#OTRL&#45;1&#45;&gt;http://purl.org/oseg/ontologies/OTRL#OTRL -->
<g id="edge10" class="edge">
<title>http://purl.org/oseg/ontologies/OTRL#OTRL&#45;1&#45;&gt;http://purl.org/oseg/ontologies/OTRL#OTRL</title>
<path fill="none" stroke="black" d="M349.48,-369.12C359.45,-387.58 375.73,-417.75 387.27,-439.13"/>
<polygon fill="black" stroke="black" points="384.22,-440.84 392.05,-447.98 390.38,-437.52 384.22,-440.84"/>
</g>
<!-- http://purl.org/oseg/ontologies/OTRL#OTRL&#45;1&#45;&gt;http://www.w3.org/2002/07/owl#class -->
<g id="edge16" class="edge">
<title>http://purl.org/oseg/ontologies/OTRL#OTRL&#45;1&#45;&gt;http://www.w3.org/2002/07/owl#class</title>
<path fill="none" stroke="black" d="M370.4,-339.42C403.37,-324.75 456.69,-301.02 493.45,-284.66"/>
<polygon fill="black" stroke="black" points="495.16,-287.73 502.88,-280.46 492.32,-281.33 495.16,-287.73"/>
<text text-anchor="middle" x="427.42" y="-315.84" font-family="Times,serif" font-size="14.00">a</text>
</g>
<!-- http://purl.org/oseg/ontologies/OTRL#ODRL&#45;4 -->
<g id="node23" class="node">
<title>http://purl.org/oseg/ontologies/OTRL#ODRL&#45;4</title>
<ellipse fill="none" stroke="#e377c2" cx="447.68" cy="-57.78" rx="50.82" ry="16.03"/>
<text text-anchor="middle" x="447.68" y="-54.08" font-family="Times,serif" font-size="14.00">ODRL&#45;4</text>
</g>
<!-- http://purl.org/oseg/ontologies/OTRL#ODRL&#45;4&#45;&gt;http://www.w3.org/2002/07/owl#class -->
<g id="edge17" class="edge">
<title>http://purl.org/oseg/ontologies/OTRL#ODRL&#45;4&#45;&gt;http://www.w3.org/2002/07/owl#class</title>
<path fill="none" stroke="black" d="M454.45,-74.17C469.42,-110.39 505.41,-197.47 523.39,-240.98"/>
<polygon fill="black" stroke="black" points="520.19,-242.4 527.24,-250.31 526.66,-239.73 520.19,-242.4"/>
<text text-anchor="middle" x="484.42" y="-161.37" font-family="Times,serif" font-size="14.00">a</text>
</g>
<!-- http://purl.org/oseg/ontologies/OTRL#ODRL&#45;4&#45;&gt;http://purl.org/oseg/ontologies/OTRL#ODRL -->
<g id="edge21" class="edge">
<title>http://purl.org/oseg/ontologies/OTRL#ODRL&#45;4&#45;&gt;http://purl.org/oseg/ontologies/OTRL#ODRL</title>
<path fill="none" stroke="black" d="M487.6,-68.16C515.27,-75.35 552.16,-84.94 580.83,-92.39"/>
<polygon fill="black" stroke="black" points="580.04,-95.8 590.6,-94.93 581.8,-89.02 580.04,-95.8"/>
</g>
<!-- http://purl.org/oseg/ontologies/OTRL#documentationDescription -->
<g id="node24" class="node">
<title>http://purl.org/oseg/ontologies/OTRL#documentationDescription</title>
<ellipse fill="none" stroke="#e377c2" cx="391.1" cy="-763.22" rx="120.83" ry="16.03"/>
<text text-anchor="middle" x="391.1" y="-759.52" font-family="Times,serif" font-size="14.00">documentationDesc...</text>
</g>
<!-- http://purl.org/oseg/ontologies/OTRL#documentationDescription&#45;&gt;http://purl.org/oseg/ontologies/OTRL#OTRL -->
<g id="edge41" class="edge">
<title>http://purl.org/oseg/ontologies/OTRL#documentationDescription&#45;&gt;http://purl.org/oseg/ontologies/OTRL#OTRL</title>
<path fill="none" stroke="black" d="M391.64,-746.71C393.23,-697.49 397.95,-551.37 399.9,-490.85"/>
<polygon fill="black" stroke="black" points="403.41,-490.69 400.23,-480.58 396.41,-490.47 403.41,-490.69"/>
<text text-anchor="middle" x="369.27" y="-622.58" font-family="Times,serif" font-size="14.00">domain</text>
</g>
<!-- http://purl.org/oseg/ontologies/OTRL#documentationDescription&#45;&gt;http://schema.org/Text -->
<g id="edge23" class="edge">
<title>http://purl.org/oseg/ontologies/OTRL#documentationDescription&#45;&gt;http://schema.org/Text</title>
<path fill="none" stroke="black" d="M310.76,-750.98C276.05,-745.69 235.76,-739.55 202.08,-734.42"/>
<polygon fill="black" stroke="black" points="202.26,-730.9 191.85,-732.86 201.21,-737.82 202.26,-730.9"/>
<text text-anchor="middle" x="235.42" y="-746.5" font-family="Times,serif" font-size="14.00">range</text>
</g>
</g>
</svg>
