<?xml version="1.0" encoding="UTF-8" standalone="no"?>
<!DOCTYPE svg PUBLIC "-//W3C//DTD SVG 1.1//EN"
 "http://www.w3.org/Graphics/SVG/1.1/DTD/svg11.dtd">
<!-- Generated by graphviz version 2.43.0 (0)
 -->
<!-- Title: G Pages: 1 -->
<svg width="648pt" height="443pt"
 viewBox="0.00 0.00 648.00 443.00" xmlns="http://www.w3.org/2000/svg" xmlns:xlink="http://www.w3.org/1999/xlink">
<g id="graph0" class="graph" transform="scale(1 1) rotate(0) translate(4 439)">
<title>G</title>
<polygon fill="white" stroke="transparent" points="-4,4 -4,-439 644,-439 644,4 -4,4"/>
<!-- http://purl.org/oseg/ontologies/OTRL#OTRL -->
<g id="node1" class="node">
<title>http://purl.org/oseg/ontologies/OTRL#OTRL</title>
<ellipse fill="none" stroke="#e377c2" cx="91.7" cy="-140.27" rx="39.7" ry="16.03"/>
<text text-anchor="middle" x="91.7" y="-136.57" font-family="Times,serif" font-size="14.00">OTRL</text>
</g>
<!-- http://www.w3.org/2002/07/owl#class -->
<g id="node3" class="node">
<title>http://www.w3.org/2002/07/owl#class</title>
<ellipse fill="none" stroke="#1f77b4" cx="245.38" cy="-199.61" rx="57.05" ry="16.03"/>
<text text-anchor="middle" x="245.38" y="-195.91" font-family="Times,serif" font-size="14.00">owl:class</text>
</g>
<!-- http://purl.org/oseg/ontologies/OTRL#OTRL&#45;&gt;http://www.w3.org/2002/07/owl#class -->
<g id="edge18" class="edge">
<title>http://purl.org/oseg/ontologies/OTRL#OTRL&#45;&gt;http://www.w3.org/2002/07/owl#class</title>
<path fill="none" stroke="black" d="M120.61,-151.43C143.43,-160.24 175.64,-172.68 201.62,-182.71"/>
<polygon fill="black" stroke="black" points="200.65,-186.09 211.24,-186.42 203.17,-179.56 200.65,-186.09"/>
<text text-anchor="middle" x="156.61" y="-170.87" font-family="Times,serif" font-size="14.00">a</text>
</g>
<!-- http://purl.org/oseg/ontologies/OTRL#ODRL -->
<g id="node2" class="node">
<title>http://purl.org/oseg/ontologies/OTRL#ODRL</title>
<ellipse fill="none" stroke="#e377c2" cx="386.57" cy="-217.45" rx="41.94" ry="16.03"/>
<text text-anchor="middle" x="386.57" y="-213.75" font-family="Times,serif" font-size="14.00">ODRL</text>
</g>
<!-- http://purl.org/oseg/ontologies/OTRL#ODRL&#45;&gt;http://www.w3.org/2002/07/owl#class -->
<g id="edge23" class="edge">
<title>http://purl.org/oseg/ontologies/OTRL#ODRL&#45;&gt;http://www.w3.org/2002/07/owl#class</title>
<path fill="none" stroke="black" d="M346.86,-212.43C334.77,-210.9 321.18,-209.19 307.96,-207.52"/>
<polygon fill="black" stroke="black" points="308.32,-204.03 297.96,-206.25 307.44,-210.98 308.32,-204.03"/>
<text text-anchor="middle" x="322.91" y="-213.77" font-family="Times,serif" font-size="14.00">a</text>
</g>
<!-- http://purl.org/oseg/ontologies/OTRL -->
<g id="node4" class="node">
<title>http://purl.org/oseg/ontologies/OTRL</title>
<ellipse fill="none" stroke="#e377c2" cx="157.24" cy="-352.64" rx="60.62" ry="16.03"/>
<text text-anchor="middle" x="157.24" y="-348.94" font-family="Times,serif" font-size="14.00">ns1:OTRL</text>
</g>
<!-- http://purl.org/oseg/ontologies/OTRL&#45;&gt;http://purl.org/oseg/ontologies/OTRL -->
<g id="edge1" class="edge">
<title>http://purl.org/oseg/ontologies/OTRL&#45;&gt;http://purl.org/oseg/ontologies/OTRL</title>
<path fill="none" stroke="black" d="M212.84,-359.27C226.17,-358.75 236.05,-356.54 236.05,-352.64 236.05,-349.81 230.83,-347.86 222.87,-346.81"/>
<polygon fill="black" stroke="black" points="223.09,-343.32 212.84,-346.01 222.53,-350.3 223.09,-343.32"/>
<text text-anchor="middle" x="287.55" y="-348.94" font-family="Times,serif" font-size="14.00">owl:versionIRI</text>
</g>
<!-- http://www.w3.org/1999/02/22&#45;rdf&#45;syntax&#45;ns#nil -->
<g id="node5" class="node">
<title>http://www.w3.org/1999/02/22&#45;rdf&#45;syntax&#45;ns#nil</title>
<ellipse fill="none" stroke="#e377c2" cx="306.24" cy="-16.64" rx="42.35" ry="16.03"/>
<text text-anchor="middle" x="306.24" y="-12.94" font-family="Times,serif" font-size="14.00">rdf:nil</text>
</g>
<!-- http://purl.org/oseg/ontologies/OTRL#ODRL&#45;4 -->
<g id="node6" class="node">
<title>http://purl.org/oseg/ontologies/OTRL#ODRL&#45;4</title>
<ellipse fill="none" stroke="#e377c2" cx="310.55" cy="-342.49" rx="50.82" ry="16.03"/>
<text text-anchor="middle" x="310.55" y="-338.79" font-family="Times,serif" font-size="14.00">ODRL&#45;4</text>
</g>
<!-- http://purl.org/oseg/ontologies/OTRL#ODRL&#45;4&#45;&gt;http://purl.org/oseg/ontologies/OTRL#ODRL -->
<g id="edge14" class="edge">
<title>http://purl.org/oseg/ontologies/OTRL#ODRL&#45;4&#45;&gt;http://purl.org/oseg/ontologies/OTRL#ODRL</title>
<path fill="none" stroke="black" d="M320.33,-326.4C333.33,-305.01 356.42,-267.03 371.62,-242.04"/>
<polygon fill="black" stroke="black" points="374.62,-243.84 376.82,-233.48 368.64,-240.21 374.62,-243.84"/>
</g>
<!-- http://purl.org/oseg/ontologies/OTRL#ODRL&#45;4&#45;&gt;http://www.w3.org/2002/07/owl#class -->
<g id="edge17" class="edge">
<title>http://purl.org/oseg/ontologies/OTRL#ODRL&#45;4&#45;&gt;http://www.w3.org/2002/07/owl#class</title>
<path fill="none" stroke="black" d="M303.2,-326.37C291.96,-301.72 270.38,-254.41 257,-225.08"/>
<polygon fill="black" stroke="black" points="260.14,-223.53 252.8,-215.88 253.77,-226.43 260.14,-223.53"/>
<text text-anchor="middle" x="275.6" y="-279.53" font-family="Times,serif" font-size="14.00">a</text>
</g>
<!-- http://purl.org/oseg/ontologies/OTRL#ODRL&#45;5 -->
<g id="node7" class="node">
<title>http://purl.org/oseg/ontologies/OTRL#ODRL&#45;5</title>
<ellipse fill="none" stroke="#e377c2" cx="422.8" cy="-309.2" rx="50.82" ry="16.03"/>
<text text-anchor="middle" x="422.8" y="-305.5" font-family="Times,serif" font-size="14.00">ODRL&#45;5</text>
</g>
<!-- http://purl.org/oseg/ontologies/OTRL#ODRL&#45;5&#45;&gt;http://purl.org/oseg/ontologies/OTRL#ODRL -->
<g id="edge2" class="edge">
<title>http://purl.org/oseg/ontologies/OTRL#ODRL&#45;5&#45;&gt;http://purl.org/oseg/ontologies/OTRL#ODRL</title>
<path fill="none" stroke="black" d="M416.32,-292.8C410.91,-279.1 403.1,-259.32 396.84,-243.46"/>
<polygon fill="black" stroke="black" points="399.92,-241.73 392.99,-233.71 393.41,-244.3 399.92,-241.73"/>
</g>
<!-- http://purl.org/oseg/ontologies/OTRL#ODRL&#45;5&#45;&gt;http://www.w3.org/2002/07/owl#class -->
<g id="edge20" class="edge">
<title>http://purl.org/oseg/ontologies/OTRL#ODRL&#45;5&#45;&gt;http://www.w3.org/2002/07/owl#class</title>
<path fill="none" stroke="black" d="M399.24,-294.65C368.18,-275.46 313.36,-241.6 278.23,-219.9"/>
<polygon fill="black" stroke="black" points="279.67,-216.67 269.32,-214.4 275.99,-222.63 279.67,-216.67"/>
<text text-anchor="middle" x="334.24" y="-261.07" font-family="Times,serif" font-size="14.00">a</text>
</g>
<!-- http://purl.org/oseg/ontologies/OTRL#OTRL&#45;4 -->
<g id="node8" class="node">
<title>http://purl.org/oseg/ontologies/OTRL#OTRL&#45;4</title>
<ellipse fill="none" stroke="#e377c2" cx="88.77" cy="-289.43" rx="49.49" ry="16.03"/>
<text text-anchor="middle" x="88.77" y="-285.73" font-family="Times,serif" font-size="14.00">OTRL&#45;4</text>
</g>
<!-- http://purl.org/oseg/ontologies/OTRL#OTRL&#45;4&#45;&gt;http://purl.org/oseg/ontologies/OTRL#OTRL -->
<g id="edge13" class="edge">
<title>http://purl.org/oseg/ontologies/OTRL#OTRL&#45;4&#45;&gt;http://purl.org/oseg/ontologies/OTRL#OTRL</title>
<path fill="none" stroke="black" d="M89.1,-272.9C89.6,-247.25 90.57,-197.63 91.18,-166.89"/>
<polygon fill="black" stroke="black" points="94.68,-166.94 91.38,-156.87 87.68,-166.8 94.68,-166.94"/>
</g>
<!-- http://purl.org/oseg/ontologies/OTRL#OTRL&#45;4&#45;&gt;http://www.w3.org/2002/07/owl#class -->
<g id="edge3" class="edge">
<title>http://purl.org/oseg/ontologies/OTRL#OTRL&#45;4&#45;&gt;http://www.w3.org/2002/07/owl#class</title>
<path fill="none" stroke="black" d="M113.59,-275.2C139.93,-260.09 181.74,-236.11 211.19,-219.22"/>
<polygon fill="black" stroke="black" points="212.97,-222.23 219.9,-214.22 209.48,-216.16 212.97,-222.23"/>
<text text-anchor="middle" x="157.89" y="-251.01" font-family="Times,serif" font-size="14.00">a</text>
</g>
<!-- http://purl.org/oseg/ontologies/OTRL#goal -->
<g id="node9" class="node">
<title>http://purl.org/oseg/ontologies/OTRL#goal</title>
<ellipse fill="none" stroke="#e377c2" cx="441.49" cy="-419.16" rx="33.47" ry="16.03"/>
<text text-anchor="middle" x="441.49" y="-415.46" font-family="Times,serif" font-size="14.00">goal</text>
</g>
<!-- http://schema.org/Text -->
<g id="node15" class="node">
<title>http://schema.org/Text</title>
<ellipse fill="none" stroke="#e377c2" cx="507.92" cy="-376.12" rx="74.91" ry="16.03"/>
<text text-anchor="middle" x="507.92" y="-372.42" font-family="Times,serif" font-size="14.00">schema:Text</text>
</g>
<!-- http://purl.org/oseg/ontologies/OTRL#goal&#45;&gt;http://schema.org/Text -->
<g id="edge10" class="edge">
<title>http://purl.org/oseg/ontologies/OTRL#goal&#45;&gt;http://schema.org/Text</title>
<path fill="none" stroke="black" d="M461.78,-406.01C466.06,-403.24 470.68,-400.25 475.28,-397.27"/>
<polygon fill="black" stroke="black" points="477.53,-399.98 484.02,-391.6 473.72,-394.1 477.53,-399.98"/>
<text text-anchor="middle" x="447.53" y="-390.44" font-family="Times,serif" font-size="14.00">range</text>
</g>
<!-- http://purl.org/oseg/ontologies/OTRL#OTRL&#45;1 -->
<g id="node10" class="node">
<title>http://purl.org/oseg/ontologies/OTRL#OTRL&#45;1</title>
<ellipse fill="none" stroke="#e377c2" cx="76.83" cy="-92.41" rx="49.49" ry="16.03"/>
<text text-anchor="middle" x="76.83" y="-88.71" font-family="Times,serif" font-size="14.00">OTRL&#45;1</text>
</g>
<!-- http://purl.org/oseg/ontologies/OTRL#OTRL&#45;1&#45;&gt;http://purl.org/oseg/ontologies/OTRL#OTRL -->
<g id="edge6" class="edge">
<title>http://purl.org/oseg/ontologies/OTRL#OTRL&#45;1&#45;&gt;http://purl.org/oseg/ontologies/OTRL#OTRL</title>
<path fill="none" stroke="black" d="M81.87,-108.61C82.45,-110.48 83.05,-112.42 83.66,-114.38"/>
<polygon fill="black" stroke="black" points="80.36,-115.57 86.67,-124.08 87.05,-113.49 80.36,-115.57"/>
</g>
<!-- http://purl.org/oseg/ontologies/OTRL#OTRL&#45;1&#45;&gt;http://www.w3.org/2002/07/owl#class -->
<g id="edge21" class="edge">
<title>http://purl.org/oseg/ontologies/OTRL#OTRL&#45;1&#45;&gt;http://www.w3.org/2002/07/owl#class</title>
<path fill="none" stroke="black" d="M99.56,-106.86C128.93,-125.54 180.21,-158.16 213.47,-179.31"/>
<polygon fill="black" stroke="black" points="211.61,-182.28 221.93,-184.69 215.37,-176.37 211.61,-182.28"/>
<text text-anchor="middle" x="152.02" y="-146.89" font-family="Times,serif" font-size="14.00">a</text>
</g>
<!-- http://purl.org/oseg/ontologies/OTRL#exitCriteria -->
<g id="node11" class="node">
<title>http://purl.org/oseg/ontologies/OTRL#exitCriteria</title>
<ellipse fill="none" stroke="#e377c2" cx="570.09" cy="-416.84" rx="70.01" ry="16.03"/>
<text text-anchor="middle" x="570.09" y="-413.14" font-family="Times,serif" font-size="14.00">exitCriteria</text>
</g>
<!-- http://purl.org/oseg/ontologies/OTRL#exitCriteria&#45;&gt;http://schema.org/Text -->
<g id="edge11" class="edge">
<title>http://purl.org/oseg/ontologies/OTRL#exitCriteria&#45;&gt;http://schema.org/Text</title>
<path fill="none" stroke="black" d="M546.59,-401.45C544.63,-400.17 542.63,-398.86 540.62,-397.54"/>
<polygon fill="black" stroke="black" points="542.15,-394.36 531.87,-391.81 538.32,-400.21 542.15,-394.36"/>
<text text-anchor="middle" x="564.6" y="-388.29" font-family="Times,serif" font-size="14.00">range</text>
</g>
<!-- http://purl.org/oseg/ontologies/OTRL#OTRL&#45;2 -->
<g id="node12" class="node">
<title>http://purl.org/oseg/ontologies/OTRL#OTRL&#45;2</title>
<ellipse fill="none" stroke="#e377c2" cx="176.13" cy="-16.58" rx="49.49" ry="16.03"/>
<text text-anchor="middle" x="176.13" y="-12.88" font-family="Times,serif" font-size="14.00">OTRL&#45;2</text>
</g>
<!-- http://purl.org/oseg/ontologies/OTRL#OTRL&#45;2&#45;&gt;http://purl.org/oseg/ontologies/OTRL#OTRL -->
<g id="edge9" class="edge">
<title>http://purl.org/oseg/ontologies/OTRL#OTRL&#45;2&#45;&gt;http://purl.org/oseg/ontologies/OTRL#OTRL</title>
<path fill="none" stroke="black" d="M165.26,-32.49C150.82,-53.65 125.18,-91.22 108.31,-115.94"/>
<polygon fill="black" stroke="black" points="105.27,-114.18 102.52,-124.41 111.05,-118.12 105.27,-114.18"/>
</g>
<!-- http://purl.org/oseg/ontologies/OTRL#OTRL&#45;2&#45;&gt;http://www.w3.org/2002/07/owl#class -->
<g id="edge5" class="edge">
<title>http://purl.org/oseg/ontologies/OTRL#OTRL&#45;2&#45;&gt;http://www.w3.org/2002/07/owl#class</title>
<path fill="none" stroke="black" d="M182.27,-32.82C194.34,-64.7 221.2,-135.7 235.68,-173.98"/>
<polygon fill="black" stroke="black" points="232.43,-175.29 239.25,-183.4 238.98,-172.81 232.43,-175.29"/>
<text text-anchor="middle" x="204.48" y="-107.2" font-family="Times,serif" font-size="14.00">a</text>
</g>
<!-- http://purl.org/oseg/ontologies/OTRL#ODRL&#45;3 -->
<g id="node13" class="node">
<title>http://purl.org/oseg/ontologies/OTRL#ODRL&#45;3</title>
<ellipse fill="none" stroke="#e377c2" cx="249.18" cy="-253" rx="50.82" ry="16.03"/>
<text text-anchor="middle" x="249.18" y="-249.3" font-family="Times,serif" font-size="14.00">ODRL&#45;3</text>
</g>
<!-- http://purl.org/oseg/ontologies/OTRL#ODRL&#45;3&#45;&gt;http://purl.org/oseg/ontologies/OTRL#ODRL -->
<g id="edge4" class="edge">
<title>http://purl.org/oseg/ontologies/OTRL#ODRL&#45;3&#45;&gt;http://purl.org/oseg/ontologies/OTRL#ODRL</title>
<path fill="none" stroke="black" d="M288.92,-242.72C305.48,-238.43 324.79,-233.44 341.85,-229.02"/>
<polygon fill="black" stroke="black" points="342.79,-232.39 351.59,-226.5 341.03,-225.62 342.79,-232.39"/>
</g>
<!-- http://purl.org/oseg/ontologies/OTRL#ODRL&#45;3&#45;&gt;http://www.w3.org/2002/07/owl#class -->
<g id="edge22" class="edge">
<title>http://purl.org/oseg/ontologies/OTRL#ODRL&#45;3&#45;&gt;http://www.w3.org/2002/07/owl#class</title>
<path fill="none" stroke="black" d="M248.02,-236.69C247.79,-233.44 247.54,-229.95 247.29,-226.45"/>
<polygon fill="black" stroke="black" points="250.76,-225.91 246.56,-216.19 243.78,-226.41 250.76,-225.91"/>
<text text-anchor="middle" x="243.16" y="-220.37" font-family="Times,serif" font-size="14.00">a</text>
</g>
<!-- http://purl.org/oseg/ontologies/OTRL#ODRL&#45;2 -->
<g id="node14" class="node">
<title>http://purl.org/oseg/ontologies/OTRL#ODRL&#45;2</title>
<ellipse fill="none" stroke="#e377c2" cx="382.16" cy="-69.42" rx="50.82" ry="16.03"/>
<text text-anchor="middle" x="382.16" y="-65.72" font-family="Times,serif" font-size="14.00">ODRL&#45;2</text>
</g>
<!-- http://purl.org/oseg/ontologies/OTRL#ODRL&#45;2&#45;&gt;http://purl.org/oseg/ontologies/OTRL#ODRL -->
<g id="edge8" class="edge">
<title>http://purl.org/oseg/ontologies/OTRL#ODRL&#45;2&#45;&gt;http://purl.org/oseg/ontologies/OTRL#ODRL</title>
<path fill="none" stroke="black" d="M382.65,-85.82C383.4,-111.17 384.86,-160.09 385.77,-190.63"/>
<polygon fill="black" stroke="black" points="382.28,-191.08 386.07,-200.97 389.28,-190.87 382.28,-191.08"/>
</g>
<!-- http://purl.org/oseg/ontologies/OTRL#ODRL&#45;2&#45;&gt;http://www.w3.org/2002/07/owl#class -->
<g id="edge7" class="edge">
<title>http://purl.org/oseg/ontologies/OTRL#ODRL&#45;2&#45;&gt;http://www.w3.org/2002/07/owl#class</title>
<path fill="none" stroke="black" d="M365.93,-84.86C342,-107.64 297.08,-150.39 269.35,-176.79"/>
<polygon fill="black" stroke="black" points="266.84,-174.35 262.01,-183.78 271.67,-179.42 266.84,-174.35"/>
<text text-anchor="middle" x="313.14" y="-134.63" font-family="Times,serif" font-size="14.00">a</text>
</g>
<!-- http://purl.org/oseg/ontologies/OTRL#ODRL&#45;1 -->
<g id="node16" class="node">
<title>http://purl.org/oseg/ontologies/OTRL#ODRL&#45;1</title>
<ellipse fill="none" stroke="#e377c2" cx="438.13" cy="-168.27" rx="50.82" ry="16.03"/>
<text text-anchor="middle" x="438.13" y="-164.57" font-family="Times,serif" font-size="14.00">ODRL&#45;1</text>
</g>
<!-- http://purl.org/oseg/ontologies/OTRL#ODRL&#45;1&#45;&gt;http://purl.org/oseg/ontologies/OTRL#ODRL -->
<g id="edge19" class="edge">
<title>http://purl.org/oseg/ontologies/OTRL#ODRL&#45;1&#45;&gt;http://purl.org/oseg/ontologies/OTRL#ODRL</title>
<path fill="none" stroke="black" d="M421.82,-183.83C418.08,-187.4 414.03,-191.26 410.05,-195.05"/>
<polygon fill="black" stroke="black" points="407.42,-192.72 402.6,-202.16 412.25,-197.79 407.42,-192.72"/>
</g>
<!-- http://purl.org/oseg/ontologies/OTRL#ODRL&#45;1&#45;&gt;http://www.w3.org/2002/07/owl#class -->
<g id="edge24" class="edge">
<title>http://purl.org/oseg/ontologies/OTRL#ODRL&#45;1&#45;&gt;http://www.w3.org/2002/07/owl#class</title>
<path fill="none" stroke="black" d="M392.45,-175.7C366.38,-179.94 333.38,-185.3 305.25,-189.87"/>
<polygon fill="black" stroke="black" points="304.43,-186.46 295.13,-191.52 305.56,-193.37 304.43,-186.46"/>
<text text-anchor="middle" x="344.35" y="-186.59" font-family="Times,serif" font-size="14.00">a</text>
</g>
<!-- http://purl.org/oseg/ontologies/OTRL#OTRL&#45;3 -->
<g id="node17" class="node">
<title>http://purl.org/oseg/ontologies/OTRL#OTRL&#45;3</title>
<ellipse fill="none" stroke="#e377c2" cx="49.76" cy="-232.66" rx="49.49" ry="16.03"/>
<text text-anchor="middle" x="49.76" y="-228.96" font-family="Times,serif" font-size="14.00">OTRL&#45;3</text>
</g>
<!-- http://purl.org/oseg/ontologies/OTRL#OTRL&#45;3&#45;&gt;http://purl.org/oseg/ontologies/OTRL#OTRL -->
<g id="edge15" class="edge">
<title>http://purl.org/oseg/ontologies/OTRL#OTRL&#45;3&#45;&gt;http://purl.org/oseg/ontologies/OTRL#OTRL</title>
<path fill="none" stroke="black" d="M57.07,-216.57C63.4,-202.61 72.69,-182.16 80.05,-165.94"/>
<polygon fill="black" stroke="black" points="83.39,-167.04 84.34,-156.49 77.02,-164.15 83.39,-167.04"/>
</g>
<!-- http://purl.org/oseg/ontologies/OTRL#OTRL&#45;3&#45;&gt;http://www.w3.org/2002/07/owl#class -->
<g id="edge25" class="edge">
<title>http://purl.org/oseg/ontologies/OTRL#OTRL&#45;3&#45;&gt;http://www.w3.org/2002/07/owl#class</title>
<path fill="none" stroke="black" d="M94.15,-225.16C121.27,-220.58 156.31,-214.66 185.82,-209.67"/>
<polygon fill="black" stroke="black" points="186.73,-213.07 196.01,-207.95 185.57,-206.16 186.73,-213.07"/>
<text text-anchor="middle" x="135.48" y="-221.22" font-family="Times,serif" font-size="14.00">a</text>
</g>
<!-- http://purl.org/oseg/ontologies/OTRL#OTRL&#45;5 -->
<g id="node18" class="node">
<title>http://purl.org/oseg/ontologies/OTRL#OTRL&#45;5</title>
<ellipse fill="none" stroke="#e377c2" cx="222.19" cy="-154.37" rx="49.49" ry="16.03"/>
<text text-anchor="middle" x="222.19" y="-150.67" font-family="Times,serif" font-size="14.00">OTRL&#45;5</text>
</g>
<!-- http://purl.org/oseg/ontologies/OTRL#OTRL&#45;5&#45;&gt;http://purl.org/oseg/ontologies/OTRL#OTRL -->
<g id="edge16" class="edge">
<title>http://purl.org/oseg/ontologies/OTRL#OTRL&#45;5&#45;&gt;http://purl.org/oseg/ontologies/OTRL#OTRL</title>
<path fill="none" stroke="black" d="M175.08,-149.28C163.79,-148.06 151.71,-146.75 140.36,-145.52"/>
<polygon fill="black" stroke="black" points="140.49,-142.02 130.17,-144.42 139.74,-148.98 140.49,-142.02"/>
</g>
<!-- http://purl.org/oseg/ontologies/OTRL#OTRL&#45;5&#45;&gt;http://www.w3.org/2002/07/owl#class -->
<g id="edge12" class="edge">
<title>http://purl.org/oseg/ontologies/OTRL#OTRL&#45;5&#45;&gt;http://www.w3.org/2002/07/owl#class</title>
<path fill="none" stroke="black" d="M230.43,-170.44C231.03,-171.62 231.65,-172.81 232.27,-174.02"/>
<polygon fill="black" stroke="black" points="229.33,-175.97 237.01,-183.28 235.56,-172.78 229.33,-175.97"/>
<text text-anchor="middle" x="226.85" y="-176.03" font-family="Times,serif" font-size="14.00">a</text>
</g>
</g>
</svg>
