<?xml version="1.0" encoding="UTF-8" standalone="no"?>
<!DOCTYPE svg PUBLIC "-//W3C//DTD SVG 1.1//EN"
 "http://www.w3.org/Graphics/SVG/1.1/DTD/svg11.dtd">
<!-- Generated by graphviz version 2.43.0 (0)
 -->
<!-- Title: G Pages: 1 -->
<svg width="914pt" height="751pt"
 viewBox="0.00 0.00 914.00 751.00" xmlns="http://www.w3.org/2000/svg" xmlns:xlink="http://www.w3.org/1999/xlink">
<g id="graph0" class="graph" transform="scale(1 1) rotate(0) translate(4 747)">
<title>G</title>
<polygon fill="white" stroke="transparent" points="-4,4 -4,-747 910,-747 910,4 -4,4"/>
<!-- http://www.w3.org/2002/07/owl#class -->
<g id="node1" class="node">
<title>http://www.w3.org/2002/07/owl#class</title>
<ellipse fill="none" stroke="#1f77b4" cx="614.01" cy="-490.05" rx="57.05" ry="16.03"/>
<text text-anchor="middle" x="614.01" y="-486.35" font-family="Times,serif" font-size="14.00">owl:class</text>
</g>
<!-- http://purl.org/oseg/ontologies/OTRL#ODRL -->
<g id="node2" class="node">
<title>http://purl.org/oseg/ontologies/OTRL#ODRL</title>
<ellipse fill="none" stroke="#e377c2" cx="725.94" cy="-605.3" rx="41.94" ry="16.03"/>
<text text-anchor="middle" x="725.94" y="-601.6" font-family="Times,serif" font-size="14.00">ODRL</text>
</g>
<!-- http://purl.org/oseg/ontologies/OTRL#ODRL&#45;&gt;http://www.w3.org/2002/07/owl#class -->
<g id="edge21" class="edge">
<title>http://purl.org/oseg/ontologies/OTRL#ODRL&#45;&gt;http://www.w3.org/2002/07/owl#class</title>
<path fill="none" stroke="black" d="M710.84,-589.75C691.76,-570.1 658.73,-536.09 636.62,-513.33"/>
<polygon fill="black" stroke="black" points="639.06,-510.82 629.58,-506.08 634.04,-515.7 639.06,-510.82"/>
<text text-anchor="middle" x="669.23" y="-555.34" font-family="Times,serif" font-size="14.00">a</text>
</g>
<!-- http://purl.org/oseg/ontologies/OTRL#OTRL -->
<g id="node3" class="node">
<title>http://purl.org/oseg/ontologies/OTRL#OTRL</title>
<ellipse fill="none" stroke="#e377c2" cx="423.49" cy="-339.97" rx="39.7" ry="16.03"/>
<text text-anchor="middle" x="423.49" y="-336.27" font-family="Times,serif" font-size="14.00">OTRL</text>
</g>
<!-- http://purl.org/oseg/ontologies/OTRL#OTRL&#45;&gt;http://www.w3.org/2002/07/owl#class -->
<g id="edge32" class="edge">
<title>http://purl.org/oseg/ontologies/OTRL#OTRL&#45;&gt;http://www.w3.org/2002/07/owl#class</title>
<path fill="none" stroke="black" d="M442.11,-354.64C475.85,-381.22 547.25,-437.46 586.59,-468.45"/>
<polygon fill="black" stroke="black" points="584.45,-471.22 594.47,-474.65 588.78,-465.72 584.45,-471.22"/>
<text text-anchor="middle" x="509.85" y="-415.34" font-family="Times,serif" font-size="14.00">a</text>
</g>
<!-- http://purl.org/oseg/ontologies/OTRL#ODRL&#45;0 -->
<g id="node4" class="node">
<title>http://purl.org/oseg/ontologies/OTRL#ODRL&#45;0</title>
<ellipse fill="none" stroke="#e377c2" cx="843.35" cy="-583.43" rx="50.82" ry="16.03"/>
<text text-anchor="middle" x="843.35" y="-579.73" font-family="Times,serif" font-size="14.00">ODRL&#45;0</text>
</g>
<!-- http://purl.org/oseg/ontologies/OTRL#ODRL&#45;0&#45;&gt;http://www.w3.org/2002/07/owl#class -->
<g id="edge2" class="edge">
<title>http://purl.org/oseg/ontologies/OTRL#ODRL&#45;0&#45;&gt;http://www.w3.org/2002/07/owl#class</title>
<path fill="none" stroke="black" d="M811.46,-570.45C771.1,-554.01 701.44,-525.65 656.57,-507.38"/>
<polygon fill="black" stroke="black" points="657.69,-504.06 647.11,-503.53 655.05,-510.54 657.69,-504.06"/>
<text text-anchor="middle" x="729.51" y="-542.71" font-family="Times,serif" font-size="14.00">a</text>
</g>
<!-- http://purl.org/oseg/ontologies/OTRL#ODRL&#45;0&#45;&gt;http://purl.org/oseg/ontologies/OTRL#ODRL -->
<g id="edge30" class="edge">
<title>http://purl.org/oseg/ontologies/OTRL#ODRL&#45;0&#45;&gt;http://purl.org/oseg/ontologies/OTRL#ODRL</title>
<path fill="none" stroke="black" d="M799.29,-591.64C790.97,-593.19 782.22,-594.82 773.78,-596.39"/>
<polygon fill="black" stroke="black" points="772.88,-592.99 763.69,-598.27 774.17,-599.88 772.88,-592.99"/>
</g>
<!-- http://schema.org/Text -->
<g id="node5" class="node">
<title>http://schema.org/Text</title>
<ellipse fill="none" stroke="#e377c2" cx="88.4" cy="-16.37" rx="74.91" ry="16.03"/>
<text text-anchor="middle" x="88.4" y="-12.67" font-family="Times,serif" font-size="14.00">schema:Text</text>
</g>
<!-- http://purl.org/oseg/ontologies/OTRL#ODRL&#45;5 -->
<g id="node6" class="node">
<title>http://purl.org/oseg/ontologies/OTRL#ODRL&#45;5</title>
<ellipse fill="none" stroke="#e377c2" cx="576.53" cy="-718.73" rx="50.82" ry="16.03"/>
<text text-anchor="middle" x="576.53" y="-715.03" font-family="Times,serif" font-size="14.00">ODRL&#45;5</text>
</g>
<!-- http://purl.org/oseg/ontologies/OTRL#ODRL&#45;5&#45;&gt;http://www.w3.org/2002/07/owl#class -->
<g id="edge4" class="edge">
<title>http://purl.org/oseg/ontologies/OTRL#ODRL&#45;5&#45;&gt;http://www.w3.org/2002/07/owl#class</title>
<path fill="none" stroke="black" d="M579.23,-702.28C585.64,-663.14 601.86,-564.16 609.67,-516.5"/>
<polygon fill="black" stroke="black" points="613.17,-516.78 611.34,-506.34 606.27,-515.65 613.17,-516.78"/>
<text text-anchor="middle" x="589.95" y="-613.19" font-family="Times,serif" font-size="14.00">a</text>
</g>
<!-- http://purl.org/oseg/ontologies/OTRL#ODRL&#45;5&#45;&gt;http://purl.org/oseg/ontologies/OTRL#ODRL -->
<g id="edge25" class="edge">
<title>http://purl.org/oseg/ontologies/OTRL#ODRL&#45;5&#45;&gt;http://purl.org/oseg/ontologies/OTRL#ODRL</title>
<path fill="none" stroke="black" d="M596.37,-703.66C622.52,-683.81 668.67,-648.77 698.25,-626.32"/>
<polygon fill="black" stroke="black" points="700.64,-628.9 706.49,-620.06 696.41,-623.32 700.64,-628.9"/>
</g>
<!-- http://purl.org/oseg/ontologies/OTRL#exitCriteria -->
<g id="node7" class="node">
<title>http://purl.org/oseg/ontologies/OTRL#exitCriteria</title>
<ellipse fill="none" stroke="#e377c2" cx="318.71" cy="-112.31" rx="70.01" ry="16.03"/>
<text text-anchor="middle" x="318.71" y="-108.61" font-family="Times,serif" font-size="14.00">exitCriteria</text>
</g>
<!-- http://purl.org/oseg/ontologies/OTRL#exitCriteria&#45;&gt;http://purl.org/oseg/ontologies/OTRL#OTRL -->
<g id="edge1" class="edge">
<title>http://purl.org/oseg/ontologies/OTRL#exitCriteria&#45;&gt;http://purl.org/oseg/ontologies/OTRL#OTRL</title>
<path fill="none" stroke="black" d="M326.24,-128.69C344.29,-167.9 390.11,-267.44 411.79,-314.54"/>
<polygon fill="black" stroke="black" points="408.67,-316.13 416.03,-323.75 415.02,-313.2 408.67,-316.13"/>
<text text-anchor="middle" x="342.51" y="-225.41" font-family="Times,serif" font-size="14.00">domain</text>
</g>
<!-- http://purl.org/oseg/ontologies/OTRL#exitCriteria&#45;&gt;http://schema.org/Text -->
<g id="edge3" class="edge">
<title>http://purl.org/oseg/ontologies/OTRL#exitCriteria&#45;&gt;http://schema.org/Text</title>
<path fill="none" stroke="black" d="M284.23,-97.95C243.78,-81.1 176.64,-53.13 132.45,-34.72"/>
<polygon fill="black" stroke="black" points="133.69,-31.44 123.12,-30.83 131,-37.91 133.69,-31.44"/>
<text text-anchor="middle" x="187.34" y="-70.13" font-family="Times,serif" font-size="14.00">range</text>
</g>
<!-- http://purl.org/oseg/ontologies/OTRL#ODRL&#45;2 -->
<g id="node8" class="node">
<title>http://purl.org/oseg/ontologies/OTRL#ODRL&#45;2</title>
<ellipse fill="none" stroke="#e377c2" cx="855.04" cy="-504.12" rx="50.82" ry="16.03"/>
<text text-anchor="middle" x="855.04" y="-500.42" font-family="Times,serif" font-size="14.00">ODRL&#45;2</text>
</g>
<!-- http://purl.org/oseg/ontologies/OTRL#ODRL&#45;2&#45;&gt;http://www.w3.org/2002/07/owl#class -->
<g id="edge8" class="edge">
<title>http://purl.org/oseg/ontologies/OTRL#ODRL&#45;2&#45;&gt;http://www.w3.org/2002/07/owl#class</title>
<path fill="none" stroke="black" d="M804.8,-501.18C768.76,-499.08 719.82,-496.22 680.53,-493.93"/>
<polygon fill="black" stroke="black" points="680.69,-490.43 670.51,-493.35 680.29,-497.42 680.69,-490.43"/>
<text text-anchor="middle" x="738.17" y="-501.36" font-family="Times,serif" font-size="14.00">a</text>
</g>
<!-- http://purl.org/oseg/ontologies/OTRL#ODRL&#45;2&#45;&gt;http://purl.org/oseg/ontologies/OTRL#ODRL -->
<g id="edge37" class="edge">
<title>http://purl.org/oseg/ontologies/OTRL#ODRL&#45;2&#45;&gt;http://purl.org/oseg/ontologies/OTRL#ODRL</title>
<path fill="none" stroke="black" d="M835.71,-519.26C813.59,-536.6 777.23,-565.09 752.47,-584.5"/>
<polygon fill="black" stroke="black" points="750.27,-581.78 744.56,-590.7 754.59,-587.29 750.27,-581.78"/>
</g>
<!-- http://purl.org/oseg/ontologies/OTRL#ODRL&#45;1 -->
<g id="node9" class="node">
<title>http://purl.org/oseg/ontologies/OTRL#ODRL&#45;1</title>
<ellipse fill="none" stroke="#e377c2" cx="695.49" cy="-726.92" rx="50.82" ry="16.03"/>
<text text-anchor="middle" x="695.49" y="-723.22" font-family="Times,serif" font-size="14.00">ODRL&#45;1</text>
</g>
<!-- http://purl.org/oseg/ontologies/OTRL#ODRL&#45;1&#45;&gt;http://www.w3.org/2002/07/owl#class -->
<g id="edge28" class="edge">
<title>http://purl.org/oseg/ontologies/OTRL#ODRL&#45;1&#45;&gt;http://www.w3.org/2002/07/owl#class</title>
<path fill="none" stroke="black" d="M689.89,-710.64C675.99,-670.24 639.83,-565.13 622.95,-516.03"/>
<polygon fill="black" stroke="black" points="626.21,-514.76 619.65,-506.44 619.59,-517.04 626.21,-514.76"/>
<text text-anchor="middle" x="651.92" y="-617.13" font-family="Times,serif" font-size="14.00">a</text>
</g>
<!-- http://purl.org/oseg/ontologies/OTRL#ODRL&#45;1&#45;&gt;http://purl.org/oseg/ontologies/OTRL#ODRL -->
<g id="edge17" class="edge">
<title>http://purl.org/oseg/ontologies/OTRL#ODRL&#45;1&#45;&gt;http://purl.org/oseg/ontologies/OTRL#ODRL</title>
<path fill="none" stroke="black" d="M699.59,-710.51C704.66,-690.29 713.32,-655.67 719.33,-631.69"/>
<polygon fill="black" stroke="black" points="722.76,-632.38 721.8,-621.83 715.97,-630.68 722.76,-632.38"/>
</g>
<!-- http://purl.org/oseg/ontologies/OTRL#OTRL&#45;9 -->
<g id="node10" class="node">
<title>http://purl.org/oseg/ontologies/OTRL#OTRL&#45;9</title>
<ellipse fill="none" stroke="#e377c2" cx="581.16" cy="-243.87" rx="49.49" ry="16.03"/>
<text text-anchor="middle" x="581.16" y="-240.17" font-family="Times,serif" font-size="14.00">OTRL&#45;9</text>
</g>
<!-- http://purl.org/oseg/ontologies/OTRL#OTRL&#45;9&#45;&gt;http://www.w3.org/2002/07/owl#class -->
<g id="edge11" class="edge">
<title>http://purl.org/oseg/ontologies/OTRL#OTRL&#45;9&#45;&gt;http://www.w3.org/2002/07/owl#class</title>
<path fill="none" stroke="black" d="M583.36,-260.41C588.95,-302.28 603.7,-412.76 610.49,-463.67"/>
<polygon fill="black" stroke="black" points="607.02,-464.14 611.81,-473.58 613.96,-463.21 607.02,-464.14"/>
<text text-anchor="middle" x="592.43" y="-365.84" font-family="Times,serif" font-size="14.00">a</text>
</g>
<!-- http://purl.org/oseg/ontologies/OTRL#OTRL&#45;9&#45;&gt;http://purl.org/oseg/ontologies/OTRL#OTRL -->
<g id="edge36" class="edge">
<title>http://purl.org/oseg/ontologies/OTRL#OTRL&#45;9&#45;&gt;http://purl.org/oseg/ontologies/OTRL#OTRL</title>
<path fill="none" stroke="black" d="M557.55,-258.26C530.15,-274.96 484.85,-302.57 454.6,-321.01"/>
<polygon fill="black" stroke="black" points="452.45,-318.23 445.73,-326.42 456.09,-324.21 452.45,-318.23"/>
</g>
<!-- http://purl.org/oseg/ontologies/OTRL#OTRL&#45;7 -->
<g id="node11" class="node">
<title>http://purl.org/oseg/ontologies/OTRL#OTRL&#45;7</title>
<ellipse fill="none" stroke="#e377c2" cx="380.95" cy="-424.04" rx="49.49" ry="16.03"/>
<text text-anchor="middle" x="380.95" y="-420.34" font-family="Times,serif" font-size="14.00">OTRL&#45;7</text>
</g>
<!-- http://purl.org/oseg/ontologies/OTRL#OTRL&#45;7&#45;&gt;http://www.w3.org/2002/07/owl#class -->
<g id="edge12" class="edge">
<title>http://purl.org/oseg/ontologies/OTRL#OTRL&#45;7&#45;&gt;http://www.w3.org/2002/07/owl#class</title>
<path fill="none" stroke="black" d="M418.66,-434.72C457.98,-445.86 519.84,-463.38 563.4,-475.71"/>
<polygon fill="black" stroke="black" points="562.65,-479.14 573.22,-478.5 564.56,-472.4 562.65,-479.14"/>
<text text-anchor="middle" x="486.53" y="-444.02" font-family="Times,serif" font-size="14.00">a</text>
</g>
<!-- http://purl.org/oseg/ontologies/OTRL#OTRL&#45;7&#45;&gt;http://purl.org/oseg/ontologies/OTRL#OTRL -->
<g id="edge5" class="edge">
<title>http://purl.org/oseg/ontologies/OTRL#OTRL&#45;7&#45;&gt;http://purl.org/oseg/ontologies/OTRL#OTRL</title>
<path fill="none" stroke="black" d="M389.16,-407.83C395.28,-395.74 403.75,-378.98 410.75,-365.15"/>
<polygon fill="black" stroke="black" points="413.93,-366.64 415.32,-356.13 407.68,-363.48 413.93,-366.64"/>
</g>
<!-- http://purl.org/oseg/ontologies/OTRL#hardwareDescription -->
<g id="node12" class="node">
<title>http://purl.org/oseg/ontologies/OTRL#hardwareDescription</title>
<ellipse fill="none" stroke="#e377c2" cx="118.01" cy="-315.68" rx="118.17" ry="16.03"/>
<text text-anchor="middle" x="118.01" y="-311.98" font-family="Times,serif" font-size="14.00">hardwareDescription</text>
</g>
<!-- http://purl.org/oseg/ontologies/OTRL#hardwareDescription&#45;&gt;http://purl.org/oseg/ontologies/OTRL#OTRL -->
<g id="edge26" class="edge">
<title>http://purl.org/oseg/ontologies/OTRL#hardwareDescription&#45;&gt;http://purl.org/oseg/ontologies/OTRL#OTRL</title>
<path fill="none" stroke="black" d="M220.58,-323.84C272.51,-327.97 333.15,-332.79 374.52,-336.08"/>
<polygon fill="black" stroke="black" points="374.36,-339.58 384.61,-336.88 374.92,-332.6 374.36,-339.58"/>
<text text-anchor="middle" x="271.05" y="-333.76" font-family="Times,serif" font-size="14.00">domain</text>
</g>
<!-- http://purl.org/oseg/ontologies/OTRL#hardwareDescription&#45;&gt;http://schema.org/Text -->
<g id="edge40" class="edge">
<title>http://purl.org/oseg/ontologies/OTRL#hardwareDescription&#45;&gt;http://schema.org/Text</title>
<path fill="none" stroke="black" d="M116.38,-299.16C111.5,-249.9 97.04,-103.67 91.05,-43.1"/>
<polygon fill="black" stroke="black" points="94.5,-42.44 90.03,-32.83 87.53,-43.13 94.5,-42.44"/>
<text text-anchor="middle" x="82.71" y="-174.93" font-family="Times,serif" font-size="14.00">range</text>
</g>
<!-- http://purl.org/oseg/ontologies/OTRL#OTRL&#45;1 -->
<g id="node13" class="node">
<title>http://purl.org/oseg/ontologies/OTRL#OTRL&#45;1</title>
<ellipse fill="none" stroke="#e377c2" cx="488.07" cy="-477.5" rx="49.49" ry="16.03"/>
<text text-anchor="middle" x="488.07" y="-473.8" font-family="Times,serif" font-size="14.00">OTRL&#45;1</text>
</g>
<!-- http://purl.org/oseg/ontologies/OTRL#OTRL&#45;1&#45;&gt;http://www.w3.org/2002/07/owl#class -->
<g id="edge13" class="edge">
<title>http://purl.org/oseg/ontologies/OTRL#OTRL&#45;1&#45;&gt;http://www.w3.org/2002/07/owl#class</title>
<path fill="none" stroke="black" d="M535.68,-482.24C540.19,-482.69 544.81,-483.15 549.45,-483.62"/>
<polygon fill="black" stroke="black" points="549.27,-487.12 559.57,-484.62 549.97,-480.15 549.27,-487.12"/>
<text text-anchor="middle" x="547.06" y="-486.73" font-family="Times,serif" font-size="14.00">a</text>
</g>
<!-- http://purl.org/oseg/ontologies/OTRL#OTRL&#45;1&#45;&gt;http://purl.org/oseg/ontologies/OTRL#OTRL -->
<g id="edge6" class="edge">
<title>http://purl.org/oseg/ontologies/OTRL#OTRL&#45;1&#45;&gt;http://purl.org/oseg/ontologies/OTRL#OTRL</title>
<path fill="none" stroke="black" d="M480.4,-461.19C469.29,-437.51 448.58,-393.41 435.45,-365.43"/>
<polygon fill="black" stroke="black" points="438.56,-363.83 431.15,-356.27 432.23,-366.81 438.56,-363.83"/>
</g>
<!-- http://purl.org/oseg/ontologies/OTRL -->
<g id="node14" class="node">
<title>http://purl.org/oseg/ontologies/OTRL</title>
<ellipse fill="none" stroke="#e377c2" cx="565.24" cy="-142.64" rx="60.62" ry="16.03"/>
<text text-anchor="middle" x="565.24" y="-138.94" font-family="Times,serif" font-size="14.00">ns1:OTRL</text>
</g>
<!-- http://purl.org/oseg/ontologies/OTRL&#45;&gt;http://purl.org/oseg/ontologies/OTRL -->
<g id="edge33" class="edge">
<title>http://purl.org/oseg/ontologies/OTRL&#45;&gt;http://purl.org/oseg/ontologies/OTRL</title>
<path fill="none" stroke="black" d="M620.84,-149.27C634.17,-148.75 644.05,-146.54 644.05,-142.64 644.05,-139.81 638.83,-137.86 630.87,-136.81"/>
<polygon fill="black" stroke="black" points="631.09,-133.32 620.84,-136.01 630.53,-140.3 631.09,-133.32"/>
<text text-anchor="middle" x="695.55" y="-138.94" font-family="Times,serif" font-size="14.00">owl:versionIRI</text>
</g>
<!-- http://purl.org/oseg/ontologies/OTRL#ODRL&#45;3 -->
<g id="node15" class="node">
<title>http://purl.org/oseg/ontologies/OTRL#ODRL&#45;3</title>
<ellipse fill="none" stroke="#e377c2" cx="822.88" cy="-436.69" rx="50.82" ry="16.03"/>
<text text-anchor="middle" x="822.88" y="-432.99" font-family="Times,serif" font-size="14.00">ODRL&#45;3</text>
</g>
<!-- http://purl.org/oseg/ontologies/OTRL#ODRL&#45;3&#45;&gt;http://www.w3.org/2002/07/owl#class -->
<g id="edge31" class="edge">
<title>http://purl.org/oseg/ontologies/OTRL#ODRL&#45;3&#45;&gt;http://www.w3.org/2002/07/owl#class</title>
<path fill="none" stroke="black" d="M783.1,-446.85C750.1,-455.28 702.91,-467.34 666.76,-476.57"/>
<polygon fill="black" stroke="black" points="665.7,-473.23 656.87,-479.1 667.43,-480.01 665.7,-473.23"/>
<text text-anchor="middle" x="720.43" y="-465.51" font-family="Times,serif" font-size="14.00">a</text>
</g>
<!-- http://purl.org/oseg/ontologies/OTRL#ODRL&#45;3&#45;&gt;http://purl.org/oseg/ontologies/OTRL#ODRL -->
<g id="edge22" class="edge">
<title>http://purl.org/oseg/ontologies/OTRL#ODRL&#45;3&#45;&gt;http://purl.org/oseg/ontologies/OTRL#ODRL</title>
<path fill="none" stroke="black" d="M813.58,-452.85C796.6,-482.39 760.46,-545.24 740.3,-580.32"/>
<polygon fill="black" stroke="black" points="737.01,-579.01 735.06,-589.42 743.08,-582.5 737.01,-579.01"/>
</g>
<!-- http://purl.org/oseg/ontologies/OTRL#OTRL&#45;8 -->
<g id="node16" class="node">
<title>http://purl.org/oseg/ontologies/OTRL#OTRL&#45;8</title>
<ellipse fill="none" stroke="#e377c2" cx="356.98" cy="-503.33" rx="49.49" ry="16.03"/>
<text text-anchor="middle" x="356.98" y="-499.63" font-family="Times,serif" font-size="14.00">OTRL&#45;8</text>
</g>
<!-- http://purl.org/oseg/ontologies/OTRL#OTRL&#45;8&#45;&gt;http://www.w3.org/2002/07/owl#class -->
<g id="edge34" class="edge">
<title>http://purl.org/oseg/ontologies/OTRL#OTRL&#45;8&#45;&gt;http://www.w3.org/2002/07/owl#class</title>
<path fill="none" stroke="black" d="M405.93,-500.8C446.06,-498.73 503.26,-495.77 547.54,-493.48"/>
<polygon fill="black" stroke="black" points="547.83,-496.97 557.63,-492.96 547.47,-489.98 547.83,-496.97"/>
<text text-anchor="middle" x="472.23" y="-500.94" font-family="Times,serif" font-size="14.00">a</text>
</g>
<!-- http://purl.org/oseg/ontologies/OTRL#OTRL&#45;8&#45;&gt;http://purl.org/oseg/ontologies/OTRL#OTRL -->
<g id="edge27" class="edge">
<title>http://purl.org/oseg/ontologies/OTRL#OTRL&#45;8&#45;&gt;http://purl.org/oseg/ontologies/OTRL#OTRL</title>
<path fill="none" stroke="black" d="M363.6,-487.07C375.2,-458.57 399.29,-399.41 413.13,-365.44"/>
<polygon fill="black" stroke="black" points="416.37,-366.75 416.9,-356.17 409.89,-364.11 416.37,-366.75"/>
</g>
<!-- http://purl.org/oseg/ontologies/OTRL#OTRL&#45;3 -->
<g id="node17" class="node">
<title>http://purl.org/oseg/ontologies/OTRL#OTRL&#45;3</title>
<ellipse fill="none" stroke="#e377c2" cx="477.78" cy="-290.18" rx="49.49" ry="16.03"/>
<text text-anchor="middle" x="477.78" y="-286.48" font-family="Times,serif" font-size="14.00">OTRL&#45;3</text>
</g>
<!-- http://purl.org/oseg/ontologies/OTRL#OTRL&#45;3&#45;&gt;http://www.w3.org/2002/07/owl#class -->
<g id="edge14" class="edge">
<title>http://purl.org/oseg/ontologies/OTRL#OTRL&#45;3&#45;&gt;http://www.w3.org/2002/07/owl#class</title>
<path fill="none" stroke="black" d="M488.7,-306.2C512.46,-341.07 569.01,-424.02 597.29,-465.52"/>
<polygon fill="black" stroke="black" points="594.52,-467.66 603.04,-473.95 600.3,-463.72 594.52,-467.66"/>
<text text-anchor="middle" x="538.5" y="-389.66" font-family="Times,serif" font-size="14.00">a</text>
</g>
<!-- http://purl.org/oseg/ontologies/OTRL#OTRL&#45;3&#45;&gt;http://purl.org/oseg/ontologies/OTRL#OTRL -->
<g id="edge9" class="edge">
<title>http://purl.org/oseg/ontologies/OTRL#OTRL&#45;3&#45;&gt;http://purl.org/oseg/ontologies/OTRL#OTRL</title>
<path fill="none" stroke="black" d="M460.9,-305.66C456.6,-309.61 451.89,-313.94 447.3,-318.14"/>
<polygon fill="black" stroke="black" points="444.81,-315.68 439.81,-325.01 449.54,-320.83 444.81,-315.68"/>
</g>
<!-- http://purl.org/oseg/ontologies/OTRL#OTRL&#45;2 -->
<g id="node18" class="node">
<title>http://purl.org/oseg/ontologies/OTRL#OTRL&#45;2</title>
<ellipse fill="none" stroke="#e377c2" cx="677.06" cy="-289.52" rx="49.49" ry="16.03"/>
<text text-anchor="middle" x="677.06" y="-285.82" font-family="Times,serif" font-size="14.00">OTRL&#45;2</text>
</g>
<!-- http://purl.org/oseg/ontologies/OTRL#OTRL&#45;2&#45;&gt;http://www.w3.org/2002/07/owl#class -->
<g id="edge35" class="edge">
<title>http://purl.org/oseg/ontologies/OTRL#OTRL&#45;2&#45;&gt;http://www.w3.org/2002/07/owl#class</title>
<path fill="none" stroke="black" d="M671.9,-305.93C660.98,-340.68 635.42,-421.94 622.23,-463.92"/>
<polygon fill="black" stroke="black" points="618.81,-463.1 619.15,-473.69 625.49,-465.2 618.81,-463.1"/>
<text text-anchor="middle" x="642.56" y="-388.73" font-family="Times,serif" font-size="14.00">a</text>
</g>
<!-- http://purl.org/oseg/ontologies/OTRL#OTRL&#45;2&#45;&gt;http://purl.org/oseg/ontologies/OTRL#OTRL -->
<g id="edge20" class="edge">
<title>http://purl.org/oseg/ontologies/OTRL#OTRL&#45;2&#45;&gt;http://purl.org/oseg/ontologies/OTRL#OTRL</title>
<path fill="none" stroke="black" d="M634.62,-297.97C588.91,-307.06 516.44,-321.48 469.42,-330.84"/>
<polygon fill="black" stroke="black" points="468.63,-327.43 459.5,-332.81 469.99,-334.29 468.63,-327.43"/>
</g>
<!-- http://purl.org/oseg/ontologies/OTRL#ODRL&#45;4 -->
<g id="node19" class="node">
<title>http://purl.org/oseg/ontologies/OTRL#ODRL&#45;4</title>
<ellipse fill="none" stroke="#e377c2" cx="774.4" cy="-667.42" rx="50.82" ry="16.03"/>
<text text-anchor="middle" x="774.4" y="-663.72" font-family="Times,serif" font-size="14.00">ODRL&#45;4</text>
</g>
<!-- http://purl.org/oseg/ontologies/OTRL#ODRL&#45;4&#45;&gt;http://www.w3.org/2002/07/owl#class -->
<g id="edge38" class="edge">
<title>http://purl.org/oseg/ontologies/OTRL#ODRL&#45;4&#45;&gt;http://www.w3.org/2002/07/owl#class</title>
<path fill="none" stroke="black" d="M760.16,-651.68C731.94,-620.47 668.74,-550.57 635.45,-513.76"/>
<polygon fill="black" stroke="black" points="637.74,-511.08 628.44,-506.01 632.55,-515.77 637.74,-511.08"/>
<text text-anchor="middle" x="693.31" y="-571.52" font-family="Times,serif" font-size="14.00">a</text>
</g>
<!-- http://purl.org/oseg/ontologies/OTRL#ODRL&#45;4&#45;&gt;http://purl.org/oseg/ontologies/OTRL#ODRL -->
<g id="edge15" class="edge">
<title>http://purl.org/oseg/ontologies/OTRL#ODRL&#45;4&#45;&gt;http://purl.org/oseg/ontologies/OTRL#ODRL</title>
<path fill="none" stroke="black" d="M761.92,-651.42C756.68,-644.71 750.47,-636.75 744.7,-629.35"/>
<polygon fill="black" stroke="black" points="747.12,-626.76 738.21,-621.03 741.6,-631.06 747.12,-626.76"/>
</g>
<!-- http://purl.org/oseg/ontologies/OTRL#OTRL&#45;5 -->
<g id="node20" class="node">
<title>http://purl.org/oseg/ontologies/OTRL#OTRL&#45;5</title>
<ellipse fill="none" stroke="#e377c2" cx="377.15" cy="-557.23" rx="49.49" ry="16.03"/>
<text text-anchor="middle" x="377.15" y="-553.53" font-family="Times,serif" font-size="14.00">OTRL&#45;5</text>
</g>
<!-- http://purl.org/oseg/ontologies/OTRL#OTRL&#45;5&#45;&gt;http://www.w3.org/2002/07/owl#class -->
<g id="edge39" class="edge">
<title>http://purl.org/oseg/ontologies/OTRL#OTRL&#45;5&#45;&gt;http://www.w3.org/2002/07/owl#class</title>
<path fill="none" stroke="black" d="M414.68,-546.58C454.94,-535.16 519.1,-516.97 563.71,-504.31"/>
<polygon fill="black" stroke="black" points="564.82,-507.64 573.48,-501.54 562.91,-500.9 564.82,-507.64"/>
<text text-anchor="middle" x="484.7" y="-514.25" font-family="Times,serif" font-size="14.00">a</text>
</g>
<!-- http://purl.org/oseg/ontologies/OTRL#OTRL&#45;5&#45;&gt;http://purl.org/oseg/ontologies/OTRL#OTRL -->
<g id="edge29" class="edge">
<title>http://purl.org/oseg/ontologies/OTRL#OTRL&#45;5&#45;&gt;http://purl.org/oseg/ontologies/OTRL#OTRL</title>
<path fill="none" stroke="black" d="M380.63,-540.9C388.61,-503.53 408.23,-411.54 417.91,-366.16"/>
<polygon fill="black" stroke="black" points="421.37,-366.71 420.03,-356.2 414.52,-365.25 421.37,-366.71"/>
</g>
<!-- http://purl.org/oseg/ontologies/OTRL#OTRL&#45;6 -->
<g id="node21" class="node">
<title>http://purl.org/oseg/ontologies/OTRL#OTRL&#45;6</title>
<ellipse fill="none" stroke="#e377c2" cx="488.15" cy="-544.98" rx="49.49" ry="16.03"/>
<text text-anchor="middle" x="488.15" y="-541.28" font-family="Times,serif" font-size="14.00">OTRL&#45;6</text>
</g>
<!-- http://purl.org/oseg/ontologies/OTRL#OTRL&#45;6&#45;&gt;http://www.w3.org/2002/07/owl#class -->
<g id="edge18" class="edge">
<title>http://purl.org/oseg/ontologies/OTRL#OTRL&#45;6&#45;&gt;http://www.w3.org/2002/07/owl#class</title>
<path fill="none" stroke="black" d="M517.98,-531.96C534.41,-524.79 555.06,-515.78 573,-507.95"/>
<polygon fill="black" stroke="black" points="574.87,-510.95 582.64,-503.74 572.07,-504.53 574.87,-510.95"/>
<text text-anchor="middle" x="540.99" y="-508.76" font-family="Times,serif" font-size="14.00">a</text>
</g>
<!-- http://purl.org/oseg/ontologies/OTRL#OTRL&#45;6&#45;&gt;http://purl.org/oseg/ontologies/OTRL#OTRL -->
<g id="edge10" class="edge">
<title>http://purl.org/oseg/ontologies/OTRL#OTRL&#45;6&#45;&gt;http://purl.org/oseg/ontologies/OTRL#OTRL</title>
<path fill="none" stroke="black" d="M482.97,-528.55C471.76,-493 445.17,-408.71 431.67,-365.89"/>
<polygon fill="black" stroke="black" points="434.96,-364.68 428.61,-356.2 428.28,-366.79 434.96,-364.68"/>
</g>
<!-- http://purl.org/oseg/ontologies/OTRL#softwareDescription -->
<g id="node22" class="node">
<title>http://purl.org/oseg/ontologies/OTRL#softwareDescription</title>
<ellipse fill="none" stroke="#e377c2" cx="188.62" cy="-154.95" rx="113.69" ry="16.03"/>
<text text-anchor="middle" x="188.62" y="-151.25" font-family="Times,serif" font-size="14.00">softwareDescription</text>
</g>
<!-- http://purl.org/oseg/ontologies/OTRL#softwareDescription&#45;&gt;http://purl.org/oseg/ontologies/OTRL#OTRL -->
<g id="edge41" class="edge">
<title>http://purl.org/oseg/ontologies/OTRL#softwareDescription&#45;&gt;http://purl.org/oseg/ontologies/OTRL#OTRL</title>
<path fill="none" stroke="black" d="M209.05,-171.04C251.59,-204.55 349.62,-281.78 396.96,-319.07"/>
<polygon fill="black" stroke="black" points="394.89,-321.9 404.91,-325.34 399.22,-316.4 394.89,-321.9"/>
<text text-anchor="middle" x="329.51" y="-248.86" font-family="Times,serif" font-size="14.00">domain</text>
</g>
<!-- http://purl.org/oseg/ontologies/OTRL#softwareDescription&#45;&gt;http://schema.org/Text -->
<g id="edge19" class="edge">
<title>http://purl.org/oseg/ontologies/OTRL#softwareDescription&#45;&gt;http://schema.org/Text</title>
<path fill="none" stroke="black" d="M176.73,-138.51C159.25,-114.33 126.49,-69.04 106.16,-40.92"/>
<polygon fill="black" stroke="black" points="108.97,-38.84 100.28,-32.79 103.3,-42.94 108.97,-38.84"/>
<text text-anchor="middle" x="120.44" y="-93.51" font-family="Times,serif" font-size="14.00">range</text>
</g>
<!-- http://purl.org/oseg/ontologies/OTRL#documentationDescription -->
<g id="node23" class="node">
<title>http://purl.org/oseg/ontologies/OTRL#documentationDescription</title>
<ellipse fill="none" stroke="#e377c2" cx="143.7" cy="-240.02" rx="120.83" ry="16.03"/>
<text text-anchor="middle" x="143.7" y="-236.32" font-family="Times,serif" font-size="14.00">documentationDesc...</text>
</g>
<!-- http://purl.org/oseg/ontologies/OTRL#documentationDescription&#45;&gt;http://purl.org/oseg/ontologies/OTRL#OTRL -->
<g id="edge24" class="edge">
<title>http://purl.org/oseg/ontologies/OTRL#documentationDescription&#45;&gt;http://purl.org/oseg/ontologies/OTRL#OTRL</title>
<path fill="none" stroke="black" d="M186.5,-255.31C240.29,-274.52 331.86,-307.24 384.03,-325.87"/>
<polygon fill="black" stroke="black" points="383.01,-329.23 393.6,-329.29 385.36,-322.63 383.01,-329.23"/>
<text text-anchor="middle" x="258.76" y="-279.39" font-family="Times,serif" font-size="14.00">domain</text>
</g>
<!-- http://purl.org/oseg/ontologies/OTRL#documentationDescription&#45;&gt;http://schema.org/Text -->
<g id="edge7" class="edge">
<title>http://purl.org/oseg/ontologies/OTRL#documentationDescription&#45;&gt;http://schema.org/Text</title>
<path fill="none" stroke="black" d="M139.64,-223.57C130.15,-185.2 106.48,-89.48 94.94,-42.8"/>
<polygon fill="black" stroke="black" points="98.27,-41.7 92.47,-32.84 91.48,-43.38 98.27,-41.7"/>
<text text-anchor="middle" x="96.29" y="-121.99" font-family="Times,serif" font-size="14.00">range</text>
</g>
<!-- http://purl.org/oseg/ontologies/OTRL#OTRL&#45;4 -->
<g id="node24" class="node">
<title>http://purl.org/oseg/ontologies/OTRL#OTRL&#45;4</title>
<ellipse fill="none" stroke="#e377c2" cx="564.61" cy="-338.97" rx="49.49" ry="16.03"/>
<text text-anchor="middle" x="564.61" y="-335.27" font-family="Times,serif" font-size="14.00">OTRL&#45;4</text>
</g>
<!-- http://purl.org/oseg/ontologies/OTRL#OTRL&#45;4&#45;&gt;http://www.w3.org/2002/07/owl#class -->
<g id="edge23" class="edge">
<title>http://purl.org/oseg/ontologies/OTRL#OTRL&#45;4&#45;&gt;http://www.w3.org/2002/07/owl#class</title>
<path fill="none" stroke="black" d="M569.99,-355.43C578.53,-381.54 595.25,-432.68 605.45,-463.87"/>
<polygon fill="black" stroke="black" points="602.2,-465.2 608.63,-473.61 608.85,-463.02 602.2,-465.2"/>
<text text-anchor="middle" x="583.22" y="-413.45" font-family="Times,serif" font-size="14.00">a</text>
</g>
<!-- http://purl.org/oseg/ontologies/OTRL#OTRL&#45;4&#45;&gt;http://purl.org/oseg/ontologies/OTRL#OTRL -->
<g id="edge16" class="edge">
<title>http://purl.org/oseg/ontologies/OTRL#OTRL&#45;4&#45;&gt;http://purl.org/oseg/ontologies/OTRL#OTRL</title>
<path fill="none" stroke="black" d="M514.86,-339.33C501.45,-339.42 486.95,-339.52 473.53,-339.62"/>
<polygon fill="black" stroke="black" points="473.49,-336.12 463.51,-339.69 473.54,-343.12 473.49,-336.12"/>
</g>
</g>
</svg>
