<?xml version="1.0" encoding="UTF-8" standalone="no"?>
<!DOCTYPE svg PUBLIC "-//W3C//DTD SVG 1.1//EN"
 "http://www.w3.org/Graphics/SVG/1.1/DTD/svg11.dtd">
<!-- Generated by graphviz version 2.43.0 (0)
 -->
<!-- Title: G Pages: 1 -->
<svg width="573pt" height="438pt"
 viewBox="0.00 0.00 573.00 438.00" xmlns="http://www.w3.org/2000/svg" xmlns:xlink="http://www.w3.org/1999/xlink">
<g id="graph0" class="graph" transform="scale(1 1) rotate(0) translate(4 434)">
<title>G</title>
<polygon fill="white" stroke="transparent" points="-4,4 -4,-434 569,-434 569,4 -4,4"/>
<!-- http://purl.org/oseg/ontologies/OTRL#OTRL -->
<g id="node1" class="node">
<title>http://purl.org/oseg/ontologies/OTRL#OTRL</title>
<ellipse fill="none" stroke="#e377c2" cx="96.14" cy="-206.41" rx="39.7" ry="16.03"/>
<text text-anchor="middle" x="96.14" y="-202.71" font-family="Times,serif" font-size="14.00">OTRL</text>
</g>
<!-- http://www.w3.org/2002/07/owl#class -->
<g id="node2" class="node">
<title>http://www.w3.org/2002/07/owl#class</title>
<ellipse fill="none" stroke="#1f77b4" cx="242.77" cy="-150.61" rx="57.05" ry="16.03"/>
<text text-anchor="middle" x="242.77" y="-146.91" font-family="Times,serif" font-size="14.00">owl:class</text>
</g>
<!-- http://purl.org/oseg/ontologies/OTRL#OTRL&#45;&gt;http://www.w3.org/2002/07/owl#class -->
<g id="edge6" class="edge">
<title>http://purl.org/oseg/ontologies/OTRL#OTRL&#45;&gt;http://www.w3.org/2002/07/owl#class</title>
<path fill="none" stroke="black" d="M125.46,-195.25C146.47,-187.26 175.12,-176.35 198.85,-167.32"/>
<polygon fill="black" stroke="black" points="200.25,-170.54 208.35,-163.71 197.76,-163.99 200.25,-170.54"/>
<text text-anchor="middle" x="157.65" y="-185.09" font-family="Times,serif" font-size="14.00">a</text>
</g>
<!-- http://purl.org/oseg/ontologies/OTRL#ODRL -->
<g id="node3" class="node">
<title>http://purl.org/oseg/ontologies/OTRL#ODRL</title>
<ellipse fill="none" stroke="#e377c2" cx="353.07" cy="-94.92" rx="41.94" ry="16.03"/>
<text text-anchor="middle" x="353.07" y="-91.22" font-family="Times,serif" font-size="14.00">ODRL</text>
</g>
<!-- http://purl.org/oseg/ontologies/OTRL#ODRL&#45;&gt;http://www.w3.org/2002/07/owl#class -->
<g id="edge17" class="edge">
<title>http://purl.org/oseg/ontologies/OTRL#ODRL&#45;&gt;http://www.w3.org/2002/07/owl#class</title>
<path fill="none" stroke="black" d="M327.49,-107.83C313.47,-114.91 295.83,-123.82 280.28,-131.67"/>
<polygon fill="black" stroke="black" points="278.27,-128.76 270.92,-136.39 281.43,-135.01 278.27,-128.76"/>
<text text-anchor="middle" x="299.38" y="-123.55" font-family="Times,serif" font-size="14.00">a</text>
</g>
<!-- http://purl.org/oseg/ontologies/OTRL#ODRL&#45;4 -->
<g id="node4" class="node">
<title>http://purl.org/oseg/ontologies/OTRL#ODRL&#45;4</title>
<ellipse fill="none" stroke="#e377c2" cx="384.44" cy="-249.65" rx="50.82" ry="16.03"/>
<text text-anchor="middle" x="384.44" y="-245.95" font-family="Times,serif" font-size="14.00">ODRL&#45;4</text>
</g>
<!-- http://purl.org/oseg/ontologies/OTRL#ODRL&#45;4&#45;&gt;http://www.w3.org/2002/07/owl#class -->
<g id="edge1" class="edge">
<title>http://purl.org/oseg/ontologies/OTRL#ODRL&#45;4&#45;&gt;http://www.w3.org/2002/07/owl#class</title>
<path fill="none" stroke="black" d="M363.23,-234.82C339.27,-218.07 300.08,-190.68 272.94,-171.7"/>
<polygon fill="black" stroke="black" points="274.79,-168.72 264.59,-165.86 270.78,-174.46 274.79,-168.72"/>
<text text-anchor="middle" x="313.58" y="-207.06" font-family="Times,serif" font-size="14.00">a</text>
</g>
<!-- http://purl.org/oseg/ontologies/OTRL#ODRL&#45;4&#45;&gt;http://purl.org/oseg/ontologies/OTRL#ODRL -->
<g id="edge18" class="edge">
<title>http://purl.org/oseg/ontologies/OTRL#ODRL&#45;4&#45;&gt;http://purl.org/oseg/ontologies/OTRL#ODRL</title>
<path fill="none" stroke="black" d="M381.14,-233.38C375.74,-206.75 364.97,-153.61 358.45,-121.46"/>
<polygon fill="black" stroke="black" points="361.83,-120.54 356.42,-111.43 354.97,-121.93 361.83,-120.54"/>
</g>
<!-- http://purl.org/oseg/ontologies/OTRL#OTRL&#45;5 -->
<g id="node5" class="node">
<title>http://purl.org/oseg/ontologies/OTRL#OTRL&#45;5</title>
<ellipse fill="none" stroke="#e377c2" cx="179.99" cy="-323.32" rx="49.49" ry="16.03"/>
<text text-anchor="middle" x="179.99" y="-319.62" font-family="Times,serif" font-size="14.00">OTRL&#45;5</text>
</g>
<!-- http://purl.org/oseg/ontologies/OTRL#OTRL&#45;5&#45;&gt;http://purl.org/oseg/ontologies/OTRL#OTRL -->
<g id="edge9" class="edge">
<title>http://purl.org/oseg/ontologies/OTRL#OTRL&#45;5&#45;&gt;http://purl.org/oseg/ontologies/OTRL#OTRL</title>
<path fill="none" stroke="black" d="M168.33,-307.07C154.05,-287.15 129.72,-253.24 113.3,-230.34"/>
<polygon fill="black" stroke="black" points="116.1,-228.24 107.43,-222.15 110.41,-232.32 116.1,-228.24"/>
</g>
<!-- http://purl.org/oseg/ontologies/OTRL#OTRL&#45;5&#45;&gt;http://www.w3.org/2002/07/owl#class -->
<g id="edge12" class="edge">
<title>http://purl.org/oseg/ontologies/OTRL#OTRL&#45;5&#45;&gt;http://www.w3.org/2002/07/owl#class</title>
<path fill="none" stroke="black" d="M185.9,-307.08C196.79,-277.11 220.12,-212.93 233.26,-176.77"/>
<polygon fill="black" stroke="black" points="236.7,-177.53 236.83,-166.94 230.13,-175.14 236.7,-177.53"/>
<text text-anchor="middle" x="205.08" y="-245.72" font-family="Times,serif" font-size="14.00">a</text>
</g>
<!-- http://purl.org/oseg/ontologies/OTRL -->
<g id="node6" class="node">
<title>http://purl.org/oseg/ontologies/OTRL</title>
<ellipse fill="none" stroke="#e377c2" cx="325.24" cy="-328.64" rx="60.62" ry="16.03"/>
<text text-anchor="middle" x="325.24" y="-324.94" font-family="Times,serif" font-size="14.00">ns1:OTRL</text>
</g>
<!-- http://purl.org/oseg/ontologies/OTRL&#45;&gt;http://purl.org/oseg/ontologies/OTRL -->
<g id="edge23" class="edge">
<title>http://purl.org/oseg/ontologies/OTRL&#45;&gt;http://purl.org/oseg/ontologies/OTRL</title>
<path fill="none" stroke="black" d="M380.84,-335.27C394.17,-334.75 404.05,-332.54 404.05,-328.64 404.05,-325.81 398.83,-323.86 390.87,-322.81"/>
<polygon fill="black" stroke="black" points="391.09,-319.32 380.84,-322.01 390.53,-326.3 391.09,-319.32"/>
<text text-anchor="middle" x="455.55" y="-324.94" font-family="Times,serif" font-size="14.00">owl:versionIRI</text>
</g>
<!-- http://purl.org/oseg/ontologies/OTRL#OTRL&#45;1 -->
<g id="node7" class="node">
<title>http://purl.org/oseg/ontologies/OTRL#OTRL&#45;1</title>
<ellipse fill="none" stroke="#e377c2" cx="227.56" cy="-195.41" rx="49.49" ry="16.03"/>
<text text-anchor="middle" x="227.56" y="-191.71" font-family="Times,serif" font-size="14.00">OTRL&#45;1</text>
</g>
<!-- http://purl.org/oseg/ontologies/OTRL#OTRL&#45;1&#45;&gt;http://purl.org/oseg/ontologies/OTRL#OTRL -->
<g id="edge2" class="edge">
<title>http://purl.org/oseg/ontologies/OTRL#OTRL&#45;1&#45;&gt;http://purl.org/oseg/ontologies/OTRL#OTRL</title>
<path fill="none" stroke="black" d="M179.37,-199.44C168.26,-200.37 156.44,-201.36 145.29,-202.3"/>
<polygon fill="black" stroke="black" points="144.96,-198.81 135.29,-203.13 145.54,-205.79 144.96,-198.81"/>
</g>
<!-- http://purl.org/oseg/ontologies/OTRL#OTRL&#45;1&#45;&gt;http://www.w3.org/2002/07/owl#class -->
<g id="edge13" class="edge">
<title>http://purl.org/oseg/ontologies/OTRL#OTRL&#45;1&#45;&gt;http://www.w3.org/2002/07/owl#class</title>
<path fill="none" stroke="black" d="M233.05,-179.24C233.35,-178.36 233.65,-177.47 233.95,-176.57"/>
<polygon fill="black" stroke="black" points="237.33,-177.51 237.23,-166.91 230.7,-175.26 237.33,-177.51"/>
<text text-anchor="middle" x="229" y="-166.7" font-family="Times,serif" font-size="14.00">a</text>
</g>
<!-- http://purl.org/oseg/ontologies/OTRL#goal -->
<g id="node8" class="node">
<title>http://purl.org/oseg/ontologies/OTRL#goal</title>
<ellipse fill="none" stroke="#e377c2" cx="441.22" cy="-413.71" rx="33.47" ry="16.03"/>
<text text-anchor="middle" x="441.22" y="-410.01" font-family="Times,serif" font-size="14.00">goal</text>
</g>
<!-- http://schema.org/Text -->
<g id="node9" class="node">
<title>http://schema.org/Text</title>
<ellipse fill="none" stroke="#e377c2" cx="488.86" cy="-373.11" rx="74.91" ry="16.03"/>
<text text-anchor="middle" x="488.86" y="-369.41" font-family="Times,serif" font-size="14.00">schema:Text</text>
</g>
<!-- http://purl.org/oseg/ontologies/OTRL#goal&#45;&gt;http://schema.org/Text -->
<g id="edge8" class="edge">
<title>http://purl.org/oseg/ontologies/OTRL#goal&#45;&gt;http://schema.org/Text</title>
<path fill="none" stroke="black" d="M457.88,-399.51C459.37,-398.24 460.9,-396.94 462.45,-395.62"/>
<polygon fill="black" stroke="black" points="464.83,-398.18 470.17,-389.03 460.29,-392.86 464.83,-398.18"/>
<text text-anchor="middle" x="481.16" y="-401.36" font-family="Times,serif" font-size="14.00">range</text>
</g>
<!-- http://purl.org/oseg/ontologies/OTRL#OTRL&#45;4 -->
<g id="node10" class="node">
<title>http://purl.org/oseg/ontologies/OTRL#OTRL&#45;4</title>
<ellipse fill="none" stroke="#e377c2" cx="87.47" cy="-57.57" rx="49.49" ry="16.03"/>
<text text-anchor="middle" x="87.47" y="-53.87" font-family="Times,serif" font-size="14.00">OTRL&#45;4</text>
</g>
<!-- http://purl.org/oseg/ontologies/OTRL#OTRL&#45;4&#45;&gt;http://purl.org/oseg/ontologies/OTRL#OTRL -->
<g id="edge15" class="edge">
<title>http://purl.org/oseg/ontologies/OTRL#OTRL&#45;4&#45;&gt;http://purl.org/oseg/ontologies/OTRL#OTRL</title>
<path fill="none" stroke="black" d="M88.43,-74.07C89.92,-99.66 92.8,-149.17 94.59,-179.84"/>
<polygon fill="black" stroke="black" points="91.1,-180.06 95.17,-189.84 98.09,-179.65 91.1,-180.06"/>
</g>
<!-- http://purl.org/oseg/ontologies/OTRL#OTRL&#45;4&#45;&gt;http://www.w3.org/2002/07/owl#class -->
<g id="edge3" class="edge">
<title>http://purl.org/oseg/ontologies/OTRL#OTRL&#45;4&#45;&gt;http://www.w3.org/2002/07/owl#class</title>
<path fill="none" stroke="black" d="M111.39,-71.9C137.61,-87.61 179.85,-112.92 209.34,-130.58"/>
<polygon fill="black" stroke="black" points="207.67,-133.66 218.04,-135.8 211.26,-127.66 207.67,-133.66"/>
<text text-anchor="middle" x="155.87" y="-105.04" font-family="Times,serif" font-size="14.00">a</text>
</g>
<!-- http://purl.org/oseg/ontologies/OTRL#ODRL&#45;5 -->
<g id="node11" class="node">
<title>http://purl.org/oseg/ontologies/OTRL#ODRL&#45;5</title>
<ellipse fill="none" stroke="#e377c2" cx="446.32" cy="-47.14" rx="50.82" ry="16.03"/>
<text text-anchor="middle" x="446.32" y="-43.44" font-family="Times,serif" font-size="14.00">ODRL&#45;5</text>
</g>
<!-- http://purl.org/oseg/ontologies/OTRL#ODRL&#45;5&#45;&gt;http://www.w3.org/2002/07/owl#class -->
<g id="edge4" class="edge">
<title>http://purl.org/oseg/ontologies/OTRL#ODRL&#45;5&#45;&gt;http://www.w3.org/2002/07/owl#class</title>
<path fill="none" stroke="black" d="M418.87,-61.09C382.92,-79.36 319.79,-111.45 279.69,-131.84"/>
<polygon fill="black" stroke="black" points="278.09,-128.73 270.76,-136.38 281.26,-134.97 278.09,-128.73"/>
<text text-anchor="middle" x="344.78" y="-100.27" font-family="Times,serif" font-size="14.00">a</text>
</g>
<!-- http://purl.org/oseg/ontologies/OTRL#ODRL&#45;5&#45;&gt;http://purl.org/oseg/ontologies/OTRL#ODRL -->
<g id="edge21" class="edge">
<title>http://purl.org/oseg/ontologies/OTRL#ODRL&#45;5&#45;&gt;http://purl.org/oseg/ontologies/OTRL#ODRL</title>
<path fill="none" stroke="black" d="M419.35,-60.96C409.36,-66.07 397.9,-71.94 387.36,-77.35"/>
<polygon fill="black" stroke="black" points="385.68,-74.27 378.38,-81.95 388.87,-80.5 385.68,-74.27"/>
</g>
<!-- http://purl.org/oseg/ontologies/OTRL#ODRL&#45;2 -->
<g id="node12" class="node">
<title>http://purl.org/oseg/ontologies/OTRL#ODRL&#45;2</title>
<ellipse fill="none" stroke="#e377c2" cx="217.03" cy="-22.2" rx="50.82" ry="16.03"/>
<text text-anchor="middle" x="217.03" y="-18.5" font-family="Times,serif" font-size="14.00">ODRL&#45;2</text>
</g>
<!-- http://purl.org/oseg/ontologies/OTRL#ODRL&#45;2&#45;&gt;http://www.w3.org/2002/07/owl#class -->
<g id="edge5" class="edge">
<title>http://purl.org/oseg/ontologies/OTRL#ODRL&#45;2&#45;&gt;http://www.w3.org/2002/07/owl#class</title>
<path fill="none" stroke="black" d="M220.29,-38.46C224.62,-60.05 232.31,-98.45 237.48,-124.22"/>
<polygon fill="black" stroke="black" points="234.06,-124.96 239.45,-134.07 240.92,-123.58 234.06,-124.96"/>
<text text-anchor="middle" x="224.38" y="-85.14" font-family="Times,serif" font-size="14.00">a</text>
</g>
<!-- http://purl.org/oseg/ontologies/OTRL#ODRL&#45;2&#45;&gt;http://purl.org/oseg/ontologies/OTRL#ODRL -->
<g id="edge24" class="edge">
<title>http://purl.org/oseg/ontologies/OTRL#ODRL&#45;2&#45;&gt;http://purl.org/oseg/ontologies/OTRL#ODRL</title>
<path fill="none" stroke="black" d="M243.26,-36.22C264.94,-47.81 295.85,-64.33 319.36,-76.9"/>
<polygon fill="black" stroke="black" points="317.83,-80.05 328.29,-81.67 321.13,-73.87 317.83,-80.05"/>
</g>
<!-- http://purl.org/oseg/ontologies/OTRL#ODRL&#45;3 -->
<g id="node13" class="node">
<title>http://purl.org/oseg/ontologies/OTRL#ODRL&#45;3</title>
<ellipse fill="none" stroke="#e377c2" cx="332.72" cy="-16.57" rx="50.82" ry="16.03"/>
<text text-anchor="middle" x="332.72" y="-12.87" font-family="Times,serif" font-size="14.00">ODRL&#45;3</text>
</g>
<!-- http://purl.org/oseg/ontologies/OTRL#ODRL&#45;3&#45;&gt;http://www.w3.org/2002/07/owl#class -->
<g id="edge16" class="edge">
<title>http://purl.org/oseg/ontologies/OTRL#ODRL&#45;3&#45;&gt;http://www.w3.org/2002/07/owl#class</title>
<path fill="none" stroke="black" d="M322.05,-32.47C306.58,-55.52 277.78,-98.44 259.47,-125.71"/>
<polygon fill="black" stroke="black" points="256.37,-124.06 253.71,-134.31 262.18,-127.96 256.37,-124.06"/>
<text text-anchor="middle" x="286.26" y="-82.89" font-family="Times,serif" font-size="14.00">a</text>
</g>
<!-- http://purl.org/oseg/ontologies/OTRL#ODRL&#45;3&#45;&gt;http://purl.org/oseg/ontologies/OTRL#ODRL -->
<g id="edge10" class="edge">
<title>http://purl.org/oseg/ontologies/OTRL#ODRL&#45;3&#45;&gt;http://purl.org/oseg/ontologies/OTRL#ODRL</title>
<path fill="none" stroke="black" d="M336.94,-32.8C339.64,-43.2 343.2,-56.93 346.3,-68.84"/>
<polygon fill="black" stroke="black" points="342.96,-69.9 348.86,-78.7 349.73,-68.15 342.96,-69.9"/>
</g>
<!-- http://www.w3.org/1999/02/22&#45;rdf&#45;syntax&#45;ns#nil -->
<g id="node14" class="node">
<title>http://www.w3.org/1999/02/22&#45;rdf&#45;syntax&#45;ns#nil</title>
<ellipse fill="none" stroke="#e377c2" cx="474.24" cy="-136.64" rx="42.35" ry="16.03"/>
<text text-anchor="middle" x="474.24" y="-132.94" font-family="Times,serif" font-size="14.00">rdf:nil</text>
</g>
<!-- http://purl.org/oseg/ontologies/OTRL#OTRL&#45;2 -->
<g id="node15" class="node">
<title>http://purl.org/oseg/ontologies/OTRL#OTRL&#45;2</title>
<ellipse fill="none" stroke="#e377c2" cx="49.3" cy="-115.87" rx="49.49" ry="16.03"/>
<text text-anchor="middle" x="49.3" y="-112.17" font-family="Times,serif" font-size="14.00">OTRL&#45;2</text>
</g>
<!-- http://purl.org/oseg/ontologies/OTRL#OTRL&#45;2&#45;&gt;http://purl.org/oseg/ontologies/OTRL#OTRL -->
<g id="edge20" class="edge">
<title>http://purl.org/oseg/ontologies/OTRL#OTRL&#45;2&#45;&gt;http://purl.org/oseg/ontologies/OTRL#OTRL</title>
<path fill="none" stroke="black" d="M57.67,-132.06C64.73,-145.7 74.96,-165.47 83.09,-181.19"/>
<polygon fill="black" stroke="black" points="80.13,-183.09 87.84,-190.36 86.35,-179.87 80.13,-183.09"/>
</g>
<!-- http://purl.org/oseg/ontologies/OTRL#OTRL&#45;2&#45;&gt;http://www.w3.org/2002/07/owl#class -->
<g id="edge7" class="edge">
<title>http://purl.org/oseg/ontologies/OTRL#OTRL&#45;2&#45;&gt;http://www.w3.org/2002/07/owl#class</title>
<path fill="none" stroke="black" d="M93.2,-123.75C120.13,-128.59 154.93,-134.84 184.19,-140.09"/>
<polygon fill="black" stroke="black" points="183.83,-143.58 194.29,-141.9 185.06,-136.69 183.83,-143.58"/>
<text text-anchor="middle" x="134.2" y="-135.72" font-family="Times,serif" font-size="14.00">a</text>
</g>
<!-- http://purl.org/oseg/ontologies/OTRL#OTRL&#45;3 -->
<g id="node16" class="node">
<title>http://purl.org/oseg/ontologies/OTRL#OTRL&#45;3</title>
<ellipse fill="none" stroke="#e377c2" cx="81.76" cy="-253.73" rx="49.49" ry="16.03"/>
<text text-anchor="middle" x="81.76" y="-250.03" font-family="Times,serif" font-size="14.00">OTRL&#45;3</text>
</g>
<!-- http://purl.org/oseg/ontologies/OTRL#OTRL&#45;3&#45;&gt;http://purl.org/oseg/ontologies/OTRL#OTRL -->
<g id="edge22" class="edge">
<title>http://purl.org/oseg/ontologies/OTRL#OTRL&#45;3&#45;&gt;http://purl.org/oseg/ontologies/OTRL#OTRL</title>
<path fill="none" stroke="black" d="M86.71,-237.44C87.21,-235.79 87.73,-234.08 88.26,-232.36"/>
<polygon fill="black" stroke="black" points="91.67,-233.15 91.23,-222.56 84.97,-231.11 91.67,-233.15"/>
</g>
<!-- http://purl.org/oseg/ontologies/OTRL#OTRL&#45;3&#45;&gt;http://www.w3.org/2002/07/owl#class -->
<g id="edge19" class="edge">
<title>http://purl.org/oseg/ontologies/OTRL#OTRL&#45;3&#45;&gt;http://www.w3.org/2002/07/owl#class</title>
<path fill="none" stroke="black" d="M104.49,-239.17C132.18,-221.44 179.15,-191.35 210.56,-171.24"/>
<polygon fill="black" stroke="black" points="212.84,-173.93 219.37,-165.59 209.06,-168.04 212.84,-173.93"/>
<text text-anchor="middle" x="153.02" y="-209.01" font-family="Times,serif" font-size="14.00">a</text>
</g>
<!-- http://purl.org/oseg/ontologies/OTRL#exitCriteria -->
<g id="node17" class="node">
<title>http://purl.org/oseg/ontologies/OTRL#exitCriteria</title>
<ellipse fill="none" stroke="#e377c2" cx="494.99" cy="-328.39" rx="70.01" ry="16.03"/>
<text text-anchor="middle" x="494.99" y="-324.69" font-family="Times,serif" font-size="14.00">exitCriteria</text>
</g>
<!-- http://purl.org/oseg/ontologies/OTRL#exitCriteria&#45;&gt;http://schema.org/Text -->
<g id="edge14" class="edge">
<title>http://purl.org/oseg/ontologies/OTRL#exitCriteria&#45;&gt;http://schema.org/Text</title>
<path fill="none" stroke="black" d="M492.74,-344.79C492.66,-345.4 492.58,-346.01 492.49,-346.63"/>
<polygon fill="black" stroke="black" points="489,-346.33 491.11,-356.72 495.93,-347.28 489,-346.33"/>
<text text-anchor="middle" x="471.62" y="-349.51" font-family="Times,serif" font-size="14.00">range</text>
</g>
<!-- http://purl.org/oseg/ontologies/OTRL#ODRL&#45;1 -->
<g id="node18" class="node">
<title>http://purl.org/oseg/ontologies/OTRL#ODRL&#45;1</title>
<ellipse fill="none" stroke="#e377c2" cx="437.36" cy="-188.75" rx="50.82" ry="16.03"/>
<text text-anchor="middle" x="437.36" y="-185.05" font-family="Times,serif" font-size="14.00">ODRL&#45;1</text>
</g>
<!-- http://purl.org/oseg/ontologies/OTRL#ODRL&#45;1&#45;&gt;http://www.w3.org/2002/07/owl#class -->
<g id="edge25" class="edge">
<title>http://purl.org/oseg/ontologies/OTRL#ODRL&#45;1&#45;&gt;http://www.w3.org/2002/07/owl#class</title>
<path fill="none" stroke="black" d="M393.69,-180.19C366,-174.76 329.89,-167.68 299.94,-161.81"/>
<polygon fill="black" stroke="black" points="300.52,-158.36 290.03,-159.87 299.17,-165.23 300.52,-158.36"/>
<text text-anchor="middle" x="342.31" y="-174.8" font-family="Times,serif" font-size="14.00">a</text>
</g>
<!-- http://purl.org/oseg/ontologies/OTRL#ODRL&#45;1&#45;&gt;http://purl.org/oseg/ontologies/OTRL#ODRL -->
<g id="edge11" class="edge">
<title>http://purl.org/oseg/ontologies/OTRL#ODRL&#45;1&#45;&gt;http://purl.org/oseg/ontologies/OTRL#ODRL</title>
<path fill="none" stroke="black" d="M423.06,-172.83C409.58,-157.82 389.22,-135.15 373.92,-118.13"/>
<polygon fill="black" stroke="black" points="376.16,-115.39 366.88,-110.29 370.96,-120.07 376.16,-115.39"/>
</g>
</g>
</svg>
