<?xml version="1.0" encoding="UTF-8" standalone="no"?>
<!DOCTYPE svg PUBLIC "-//W3C//DTD SVG 1.1//EN"
 "http://www.w3.org/Graphics/SVG/1.1/DTD/svg11.dtd">
<!-- Generated by graphviz version 2.43.0 (0)
 -->
<!-- Title: G Pages: 1 -->
<svg width="960pt" height="765pt"
 viewBox="0.00 0.00 960.00 765.00" xmlns="http://www.w3.org/2000/svg" xmlns:xlink="http://www.w3.org/1999/xlink">
<g id="graph0" class="graph" transform="scale(1 1) rotate(0) translate(4 761)">
<title>G</title>
<polygon fill="white" stroke="transparent" points="-4,4 -4,-761 956,-761 956,4 -4,4"/>
<!-- http://www.w3.org/2002/07/owl#class -->
<g id="node1" class="node">
<title>http://www.w3.org/2002/07/owl#class</title>
<ellipse fill="none" stroke="#1f77b4" cx="283.72" cy="-280.19" rx="57.05" ry="16.03"/>
<text text-anchor="middle" x="283.72" y="-276.49" font-family="Times,serif" font-size="14.00">owl:class</text>
</g>
<!-- http://purl.org/oseg/ontologies/OTRL#OTRL -->
<g id="node2" class="node">
<title>http://purl.org/oseg/ontologies/OTRL#OTRL</title>
<ellipse fill="none" stroke="#e377c2" cx="461.22" cy="-465.02" rx="39.7" ry="16.03"/>
<text text-anchor="middle" x="461.22" y="-461.32" font-family="Times,serif" font-size="14.00">OTRL</text>
</g>
<!-- http://purl.org/oseg/ontologies/OTRL#OTRL&#45;&gt;http://www.w3.org/2002/07/owl#class -->
<g id="edge32" class="edge">
<title>http://purl.org/oseg/ontologies/OTRL#OTRL&#45;&gt;http://www.w3.org/2002/07/owl#class</title>
<path fill="none" stroke="black" d="M446.4,-449.58C415.28,-417.18 343.01,-341.93 306.17,-303.58"/>
<polygon fill="black" stroke="black" points="308.33,-300.77 298.88,-295.98 303.28,-305.62 308.33,-300.77"/>
<text text-anchor="middle" x="371.78" y="-380.38" font-family="Times,serif" font-size="14.00">a</text>
</g>
<!-- http://purl.org/oseg/ontologies/OTRL#ODRL -->
<g id="node3" class="node">
<title>http://purl.org/oseg/ontologies/OTRL#ODRL</title>
<ellipse fill="none" stroke="#e377c2" cx="175.15" cy="-144.47" rx="41.94" ry="16.03"/>
<text text-anchor="middle" x="175.15" y="-140.77" font-family="Times,serif" font-size="14.00">ODRL</text>
</g>
<!-- http://purl.org/oseg/ontologies/OTRL#ODRL&#45;&gt;http://www.w3.org/2002/07/owl#class -->
<g id="edge31" class="edge">
<title>http://purl.org/oseg/ontologies/OTRL#ODRL&#45;&gt;http://www.w3.org/2002/07/owl#class</title>
<path fill="none" stroke="black" d="M187.6,-160.04C206.38,-183.51 242.1,-228.17 264.31,-255.93"/>
<polygon fill="black" stroke="black" points="261.76,-258.34 270.74,-263.96 267.22,-253.97 261.76,-258.34"/>
<text text-anchor="middle" x="221.46" y="-211.78" font-family="Times,serif" font-size="14.00">a</text>
</g>
<!-- http://purl.org/oseg/ontologies/OTRL#ODRL&#45;4 -->
<g id="node4" class="node">
<title>http://purl.org/oseg/ontologies/OTRL#ODRL&#45;4</title>
<ellipse fill="none" stroke="#e377c2" cx="69.23" cy="-291.84" rx="50.82" ry="16.03"/>
<text text-anchor="middle" x="69.23" y="-288.14" font-family="Times,serif" font-size="14.00">ODRL&#45;4</text>
</g>
<!-- http://purl.org/oseg/ontologies/OTRL#ODRL&#45;4&#45;&gt;http://www.w3.org/2002/07/owl#class -->
<g id="edge21" class="edge">
<title>http://purl.org/oseg/ontologies/OTRL#ODRL&#45;4&#45;&gt;http://www.w3.org/2002/07/owl#class</title>
<path fill="none" stroke="black" d="M119.52,-289.11C148.68,-287.53 185.75,-285.51 217.29,-283.8"/>
<polygon fill="black" stroke="black" points="217.53,-287.29 227.32,-283.26 217.15,-280.3 217.53,-287.29"/>
<text text-anchor="middle" x="163.9" y="-290.25" font-family="Times,serif" font-size="14.00">a</text>
</g>
<!-- http://purl.org/oseg/ontologies/OTRL#ODRL&#45;4&#45;&gt;http://purl.org/oseg/ontologies/OTRL#ODRL -->
<g id="edge27" class="edge">
<title>http://purl.org/oseg/ontologies/OTRL#ODRL&#45;4&#45;&gt;http://purl.org/oseg/ontologies/OTRL#ODRL</title>
<path fill="none" stroke="black" d="M80.76,-275.79C99.31,-249.99 135.87,-199.12 157.64,-168.82"/>
<polygon fill="black" stroke="black" points="160.63,-170.66 163.63,-160.5 154.95,-166.58 160.63,-170.66"/>
</g>
<!-- http://purl.org/oseg/ontologies/OTRL#ODRL&#45;0 -->
<g id="node5" class="node">
<title>http://purl.org/oseg/ontologies/OTRL#ODRL&#45;0</title>
<ellipse fill="none" stroke="#e377c2" cx="256.03" cy="-16.19" rx="50.82" ry="16.03"/>
<text text-anchor="middle" x="256.03" y="-12.49" font-family="Times,serif" font-size="14.00">ODRL&#45;0</text>
</g>
<!-- http://purl.org/oseg/ontologies/OTRL#ODRL&#45;0&#45;&gt;http://www.w3.org/2002/07/owl#class -->
<g id="edge1" class="edge">
<title>http://purl.org/oseg/ontologies/OTRL#ODRL&#45;0&#45;&gt;http://www.w3.org/2002/07/owl#class</title>
<path fill="none" stroke="black" d="M257.76,-32.71C262.41,-77.06 275.21,-199.1 280.91,-253.46"/>
<polygon fill="black" stroke="black" points="277.46,-254.1 281.99,-263.69 284.42,-253.37 277.46,-254.1"/>
<text text-anchor="middle" x="264.84" y="-146.88" font-family="Times,serif" font-size="14.00">a</text>
</g>
<!-- http://purl.org/oseg/ontologies/OTRL#ODRL&#45;0&#45;&gt;http://purl.org/oseg/ontologies/OTRL#ODRL -->
<g id="edge41" class="edge">
<title>http://purl.org/oseg/ontologies/OTRL#ODRL&#45;0&#45;&gt;http://purl.org/oseg/ontologies/OTRL#ODRL</title>
<path fill="none" stroke="black" d="M245.95,-32.18C232.09,-54.17 207,-93.95 190.72,-119.78"/>
<polygon fill="black" stroke="black" points="187.73,-117.95 185.36,-128.28 193.65,-121.69 187.73,-117.95"/>
</g>
<!-- http://schema.org/Text -->
<g id="node6" class="node">
<title>http://schema.org/Text</title>
<ellipse fill="none" stroke="#e377c2" cx="876.71" cy="-710.19" rx="74.91" ry="16.03"/>
<text text-anchor="middle" x="876.71" y="-706.49" font-family="Times,serif" font-size="14.00">schema:Text</text>
</g>
<!-- http://purl.org/oseg/ontologies/OTRL#OTRL&#45;7 -->
<g id="node7" class="node">
<title>http://purl.org/oseg/ontologies/OTRL#OTRL&#45;7</title>
<ellipse fill="none" stroke="#e377c2" cx="240.86" cy="-501.79" rx="49.49" ry="16.03"/>
<text text-anchor="middle" x="240.86" y="-498.09" font-family="Times,serif" font-size="14.00">OTRL&#45;7</text>
</g>
<!-- http://purl.org/oseg/ontologies/OTRL#OTRL&#45;7&#45;&gt;http://www.w3.org/2002/07/owl#class -->
<g id="edge3" class="edge">
<title>http://purl.org/oseg/ontologies/OTRL#OTRL&#45;7&#45;&gt;http://www.w3.org/2002/07/owl#class</title>
<path fill="none" stroke="black" d="M244.01,-485.49C251.36,-447.47 269.7,-352.64 278.65,-306.39"/>
<polygon fill="black" stroke="black" points="282.1,-306.99 280.56,-296.51 275.22,-305.66 282.1,-306.99"/>
<text text-anchor="middle" x="256.83" y="-399.74" font-family="Times,serif" font-size="14.00">a</text>
</g>
<!-- http://purl.org/oseg/ontologies/OTRL#OTRL&#45;7&#45;&gt;http://purl.org/oseg/ontologies/OTRL#OTRL -->
<g id="edge40" class="edge">
<title>http://purl.org/oseg/ontologies/OTRL#OTRL&#45;7&#45;&gt;http://purl.org/oseg/ontologies/OTRL#OTRL</title>
<path fill="none" stroke="black" d="M285.19,-494.39C322.52,-488.16 375.8,-479.27 413.94,-472.91"/>
<polygon fill="black" stroke="black" points="414.99,-476.28 424.28,-471.18 413.84,-469.38 414.99,-476.28"/>
</g>
<!-- http://purl.org/oseg/ontologies/OTRL#documentationDescription -->
<g id="node8" class="node">
<title>http://purl.org/oseg/ontologies/OTRL#documentationDescription</title>
<ellipse fill="none" stroke="#e377c2" cx="740.03" cy="-607.87" rx="120.83" ry="16.03"/>
<text text-anchor="middle" x="740.03" y="-604.17" font-family="Times,serif" font-size="14.00">documentationDesc...</text>
</g>
<!-- http://purl.org/oseg/ontologies/OTRL#documentationDescription&#45;&gt;http://purl.org/oseg/ontologies/OTRL#OTRL -->
<g id="edge13" class="edge">
<title>http://purl.org/oseg/ontologies/OTRL#documentationDescription&#45;&gt;http://purl.org/oseg/ontologies/OTRL#OTRL</title>
<path fill="none" stroke="black" d="M709.13,-592.04C656.46,-565.05 549.7,-510.35 495.08,-482.36"/>
<polygon fill="black" stroke="black" points="496.64,-479.23 486.14,-477.79 493.45,-485.46 496.64,-479.23"/>
<text text-anchor="middle" x="575.6" y="-541" font-family="Times,serif" font-size="14.00">domain</text>
</g>
<!-- http://purl.org/oseg/ontologies/OTRL#documentationDescription&#45;&gt;http://schema.org/Text -->
<g id="edge8" class="edge">
<title>http://purl.org/oseg/ontologies/OTRL#documentationDescription&#45;&gt;http://schema.org/Text</title>
<path fill="none" stroke="black" d="M761.69,-624.08C784.82,-641.4 821.61,-668.94 847.33,-688.2"/>
<polygon fill="black" stroke="black" points="845.5,-691.2 855.6,-694.39 849.69,-685.59 845.5,-691.2"/>
<text text-anchor="middle" x="783.51" y="-659.94" font-family="Times,serif" font-size="14.00">range</text>
</g>
<!-- http://purl.org/oseg/ontologies/OTRL#softwareDescription -->
<g id="node9" class="node">
<title>http://purl.org/oseg/ontologies/OTRL#softwareDescription</title>
<ellipse fill="none" stroke="#e377c2" cx="599.97" cy="-740.89" rx="113.69" ry="16.03"/>
<text text-anchor="middle" x="599.97" y="-737.19" font-family="Times,serif" font-size="14.00">softwareDescription</text>
</g>
<!-- http://purl.org/oseg/ontologies/OTRL#softwareDescription&#45;&gt;http://purl.org/oseg/ontologies/OTRL#OTRL -->
<g id="edge33" class="edge">
<title>http://purl.org/oseg/ontologies/OTRL#softwareDescription&#45;&gt;http://purl.org/oseg/ontologies/OTRL#OTRL</title>
<path fill="none" stroke="black" d="M591.71,-724.46C568.37,-678.06 501.86,-545.82 473.88,-490.18"/>
<polygon fill="black" stroke="black" points="476.89,-488.38 469.27,-481.02 470.64,-491.52 476.89,-488.38"/>
<text text-anchor="middle" x="506.29" y="-611.12" font-family="Times,serif" font-size="14.00">domain</text>
</g>
<!-- http://purl.org/oseg/ontologies/OTRL#softwareDescription&#45;&gt;http://schema.org/Text -->
<g id="edge10" class="edge">
<title>http://purl.org/oseg/ontologies/OTRL#softwareDescription&#45;&gt;http://schema.org/Text</title>
<path fill="none" stroke="black" d="M690.2,-730.88C725.51,-726.96 765.59,-722.52 799.53,-718.75"/>
<polygon fill="black" stroke="black" points="800.29,-722.19 809.85,-717.61 799.52,-715.23 800.29,-722.19"/>
<text text-anchor="middle" x="723.86" y="-713.62" font-family="Times,serif" font-size="14.00">range</text>
</g>
<!-- http://purl.org/oseg/ontologies/OTRL#OTRL&#45;4 -->
<g id="node10" class="node">
<title>http://purl.org/oseg/ontologies/OTRL#OTRL&#45;4</title>
<ellipse fill="none" stroke="#e377c2" cx="230.34" cy="-440.29" rx="49.49" ry="16.03"/>
<text text-anchor="middle" x="230.34" y="-436.59" font-family="Times,serif" font-size="14.00">OTRL&#45;4</text>
</g>
<!-- http://purl.org/oseg/ontologies/OTRL#OTRL&#45;4&#45;&gt;http://www.w3.org/2002/07/owl#class -->
<g id="edge24" class="edge">
<title>http://purl.org/oseg/ontologies/OTRL#OTRL&#45;4&#45;&gt;http://www.w3.org/2002/07/owl#class</title>
<path fill="none" stroke="black" d="M235.75,-424.05C245.02,-396.25 264.01,-339.28 275.12,-305.98"/>
<polygon fill="black" stroke="black" points="278.45,-307.06 278.29,-296.47 271.81,-304.85 278.45,-307.06"/>
<text text-anchor="middle" x="250.93" y="-368.82" font-family="Times,serif" font-size="14.00">a</text>
</g>
<!-- http://purl.org/oseg/ontologies/OTRL#OTRL&#45;4&#45;&gt;http://purl.org/oseg/ontologies/OTRL#OTRL -->
<g id="edge11" class="edge">
<title>http://purl.org/oseg/ontologies/OTRL#OTRL&#45;4&#45;&gt;http://purl.org/oseg/ontologies/OTRL#OTRL</title>
<path fill="none" stroke="black" d="M277.62,-445.35C317.06,-449.58 373.05,-455.57 412.8,-459.83"/>
<polygon fill="black" stroke="black" points="412.48,-463.32 422.8,-460.9 413.23,-456.36 412.48,-463.32"/>
</g>
<!-- http://purl.org/oseg/ontologies/OTRL -->
<g id="node11" class="node">
<title>http://purl.org/oseg/ontologies/OTRL</title>
<ellipse fill="none" stroke="#e377c2" cx="711.24" cy="-211.64" rx="60.62" ry="16.03"/>
<text text-anchor="middle" x="711.24" y="-207.94" font-family="Times,serif" font-size="14.00">ns1:OTRL</text>
</g>
<!-- http://purl.org/oseg/ontologies/OTRL&#45;&gt;http://purl.org/oseg/ontologies/OTRL -->
<g id="edge6" class="edge">
<title>http://purl.org/oseg/ontologies/OTRL&#45;&gt;http://purl.org/oseg/ontologies/OTRL</title>
<path fill="none" stroke="black" d="M766.84,-218.27C780.17,-217.75 790.05,-215.54 790.05,-211.64 790.05,-208.81 784.83,-206.86 776.87,-205.81"/>
<polygon fill="black" stroke="black" points="777.09,-202.32 766.84,-205.01 776.53,-209.3 777.09,-202.32"/>
<text text-anchor="middle" x="841.55" y="-207.94" font-family="Times,serif" font-size="14.00">owl:versionIRI</text>
</g>
<!-- http://purl.org/oseg/ontologies/OTRL#OTRL&#45;3 -->
<g id="node12" class="node">
<title>http://purl.org/oseg/ontologies/OTRL#OTRL&#45;3</title>
<ellipse fill="none" stroke="#e377c2" cx="518.4" cy="-350.77" rx="49.49" ry="16.03"/>
<text text-anchor="middle" x="518.4" y="-347.07" font-family="Times,serif" font-size="14.00">OTRL&#45;3</text>
</g>
<!-- http://purl.org/oseg/ontologies/OTRL#OTRL&#45;3&#45;&gt;http://www.w3.org/2002/07/owl#class -->
<g id="edge5" class="edge">
<title>http://purl.org/oseg/ontologies/OTRL#OTRL&#45;3&#45;&gt;http://www.w3.org/2002/07/owl#class</title>
<path fill="none" stroke="black" d="M481.73,-339.74C441.7,-327.7 377.39,-308.36 332.98,-295.01"/>
<polygon fill="black" stroke="black" points="333.85,-291.61 323.26,-292.09 331.83,-298.32 333.85,-291.61"/>
<text text-anchor="middle" x="402.85" y="-321.17" font-family="Times,serif" font-size="14.00">a</text>
</g>
<!-- http://purl.org/oseg/ontologies/OTRL#OTRL&#45;3&#45;&gt;http://purl.org/oseg/ontologies/OTRL#OTRL -->
<g id="edge14" class="edge">
<title>http://purl.org/oseg/ontologies/OTRL#OTRL&#45;3&#45;&gt;http://purl.org/oseg/ontologies/OTRL#OTRL</title>
<path fill="none" stroke="black" d="M510.21,-367.14C500.69,-386.16 484.87,-417.78 473.79,-439.91"/>
<polygon fill="black" stroke="black" points="470.56,-438.54 469.22,-449.05 476.82,-441.67 470.56,-438.54"/>
</g>
<!-- http://purl.org/oseg/ontologies/OTRL#OTRL&#45;9 -->
<g id="node13" class="node">
<title>http://purl.org/oseg/ontologies/OTRL#OTRL&#45;9</title>
<ellipse fill="none" stroke="#e377c2" cx="344.22" cy="-433.49" rx="49.49" ry="16.03"/>
<text text-anchor="middle" x="344.22" y="-429.79" font-family="Times,serif" font-size="14.00">OTRL&#45;9</text>
</g>
<!-- http://purl.org/oseg/ontologies/OTRL#OTRL&#45;9&#45;&gt;http://www.w3.org/2002/07/owl#class -->
<g id="edge26" class="edge">
<title>http://purl.org/oseg/ontologies/OTRL#OTRL&#45;9&#45;&gt;http://www.w3.org/2002/07/owl#class</title>
<path fill="none" stroke="black" d="M337.75,-417.08C327.24,-390.46 306.39,-337.64 293.89,-305.96"/>
<polygon fill="black" stroke="black" points="297.07,-304.5 290.15,-296.48 290.56,-307.07 297.07,-304.5"/>
<text text-anchor="middle" x="311.32" y="-365.32" font-family="Times,serif" font-size="14.00">a</text>
</g>
<!-- http://purl.org/oseg/ontologies/OTRL#OTRL&#45;9&#45;&gt;http://purl.org/oseg/ontologies/OTRL#OTRL -->
<g id="edge23" class="edge">
<title>http://purl.org/oseg/ontologies/OTRL#OTRL&#45;9&#45;&gt;http://purl.org/oseg/ontologies/OTRL#OTRL</title>
<path fill="none" stroke="black" d="M382.53,-443.81C393.87,-446.87 406.37,-450.23 418,-453.37"/>
<polygon fill="black" stroke="black" points="417.37,-456.83 427.94,-456.05 419.2,-450.07 417.37,-456.83"/>
</g>
<!-- http://purl.org/oseg/ontologies/OTRL#OTRL&#45;6 -->
<g id="node14" class="node">
<title>http://purl.org/oseg/ontologies/OTRL#OTRL&#45;6</title>
<ellipse fill="none" stroke="#e377c2" cx="427.18" cy="-290.92" rx="49.49" ry="16.03"/>
<text text-anchor="middle" x="427.18" y="-287.22" font-family="Times,serif" font-size="14.00">OTRL&#45;6</text>
</g>
<!-- http://purl.org/oseg/ontologies/OTRL#OTRL&#45;6&#45;&gt;http://www.w3.org/2002/07/owl#class -->
<g id="edge29" class="edge">
<title>http://purl.org/oseg/ontologies/OTRL#OTRL&#45;6&#45;&gt;http://www.w3.org/2002/07/owl#class</title>
<path fill="none" stroke="black" d="M378.61,-287.29C369.2,-286.59 359.19,-285.84 349.34,-285.1"/>
<polygon fill="black" stroke="black" points="349.39,-281.6 339.16,-284.34 348.87,-288.58 349.39,-281.6"/>
<text text-anchor="middle" x="359.48" y="-290" font-family="Times,serif" font-size="14.00">a</text>
</g>
<!-- http://purl.org/oseg/ontologies/OTRL#OTRL&#45;6&#45;&gt;http://purl.org/oseg/ontologies/OTRL#OTRL -->
<g id="edge22" class="edge">
<title>http://purl.org/oseg/ontologies/OTRL#OTRL&#45;6&#45;&gt;http://purl.org/oseg/ontologies/OTRL#OTRL</title>
<path fill="none" stroke="black" d="M430.39,-307.3C436.29,-337.5 448.94,-402.2 456.07,-438.65"/>
<polygon fill="black" stroke="black" points="452.65,-439.41 458.01,-448.56 459.52,-438.07 452.65,-439.41"/>
</g>
<!-- http://purl.org/oseg/ontologies/OTRL#hardwareDescription -->
<g id="node15" class="node">
<title>http://purl.org/oseg/ontologies/OTRL#hardwareDescription</title>
<ellipse fill="none" stroke="#e377c2" cx="761.25" cy="-464.69" rx="118.17" ry="16.03"/>
<text text-anchor="middle" x="761.25" y="-460.99" font-family="Times,serif" font-size="14.00">hardwareDescription</text>
</g>
<!-- http://purl.org/oseg/ontologies/OTRL#hardwareDescription&#45;&gt;http://purl.org/oseg/ontologies/OTRL#OTRL -->
<g id="edge36" class="edge">
<title>http://purl.org/oseg/ontologies/OTRL#hardwareDescription&#45;&gt;http://purl.org/oseg/ontologies/OTRL#OTRL</title>
<path fill="none" stroke="black" d="M643.1,-464.82C597.28,-464.87 547.31,-464.92 511.35,-464.96"/>
<polygon fill="black" stroke="black" points="511.13,-461.46 501.14,-464.97 511.14,-468.46 511.13,-461.46"/>
<text text-anchor="middle" x="550.73" y="-468.69" font-family="Times,serif" font-size="14.00">domain</text>
</g>
<!-- http://purl.org/oseg/ontologies/OTRL#hardwareDescription&#45;&gt;http://schema.org/Text -->
<g id="edge34" class="edge">
<title>http://purl.org/oseg/ontologies/OTRL#hardwareDescription&#45;&gt;http://schema.org/Text</title>
<path fill="none" stroke="black" d="M769.01,-481.18C788.72,-523.11 840.89,-634.03 864.63,-684.52"/>
<polygon fill="black" stroke="black" points="861.56,-686.21 868.98,-693.77 867.9,-683.23 861.56,-686.21"/>
<text text-anchor="middle" x="795.82" y="-571.65" font-family="Times,serif" font-size="14.00">range</text>
</g>
<!-- http://purl.org/oseg/ontologies/OTRL#OTRL&#45;2 -->
<g id="node16" class="node">
<title>http://purl.org/oseg/ontologies/OTRL#OTRL&#45;2</title>
<ellipse fill="none" stroke="#e377c2" cx="383.26" cy="-506.72" rx="49.49" ry="16.03"/>
<text text-anchor="middle" x="383.26" y="-503.02" font-family="Times,serif" font-size="14.00">OTRL&#45;2</text>
</g>
<!-- http://purl.org/oseg/ontologies/OTRL#OTRL&#45;2&#45;&gt;http://www.w3.org/2002/07/owl#class -->
<g id="edge30" class="edge">
<title>http://purl.org/oseg/ontologies/OTRL#OTRL&#45;2&#45;&gt;http://www.w3.org/2002/07/owl#class</title>
<path fill="none" stroke="black" d="M376.1,-490.43C358.95,-451.41 315.43,-352.36 294.84,-305.5"/>
<polygon fill="black" stroke="black" points="298.04,-304.08 290.81,-296.34 291.63,-306.9 298.04,-304.08"/>
<text text-anchor="middle" x="330.97" y="-401.77" font-family="Times,serif" font-size="14.00">a</text>
</g>
<!-- http://purl.org/oseg/ontologies/OTRL#OTRL&#45;2&#45;&gt;http://purl.org/oseg/ontologies/OTRL#OTRL -->
<g id="edge15" class="edge">
<title>http://purl.org/oseg/ontologies/OTRL#OTRL&#45;2&#45;&gt;http://purl.org/oseg/ontologies/OTRL#OTRL</title>
<path fill="none" stroke="black" d="M409.22,-492.83C415.23,-489.62 421.71,-486.15 427.99,-482.8"/>
<polygon fill="black" stroke="black" points="429.79,-485.8 436.96,-478 426.49,-479.63 429.79,-485.8"/>
</g>
<!-- http://purl.org/oseg/ontologies/OTRL#ODRL&#45;5 -->
<g id="node17" class="node">
<title>http://purl.org/oseg/ontologies/OTRL#ODRL&#45;5</title>
<ellipse fill="none" stroke="#e377c2" cx="144.08" cy="-58.87" rx="50.82" ry="16.03"/>
<text text-anchor="middle" x="144.08" y="-55.17" font-family="Times,serif" font-size="14.00">ODRL&#45;5</text>
</g>
<!-- http://purl.org/oseg/ontologies/OTRL#ODRL&#45;5&#45;&gt;http://www.w3.org/2002/07/owl#class -->
<g id="edge9" class="edge">
<title>http://purl.org/oseg/ontologies/OTRL#ODRL&#45;5&#45;&gt;http://www.w3.org/2002/07/owl#class</title>
<path fill="none" stroke="black" d="M154.34,-75.15C178.5,-113.44 239.07,-209.44 267.94,-255.19"/>
<polygon fill="black" stroke="black" points="265.14,-257.31 273.43,-263.9 271.06,-253.57 265.14,-257.31"/>
<text text-anchor="middle" x="206.64" y="-168.97" font-family="Times,serif" font-size="14.00">a</text>
</g>
<!-- http://purl.org/oseg/ontologies/OTRL#ODRL&#45;5&#45;&gt;http://purl.org/oseg/ontologies/OTRL#ODRL -->
<g id="edge4" class="edge">
<title>http://purl.org/oseg/ontologies/OTRL#ODRL&#45;5&#45;&gt;http://purl.org/oseg/ontologies/OTRL#ODRL</title>
<path fill="none" stroke="black" d="M150.07,-75.37C154.52,-87.65 160.69,-104.64 165.79,-118.69"/>
<polygon fill="black" stroke="black" points="162.58,-120.1 169.28,-128.3 169.16,-117.71 162.58,-120.1"/>
</g>
<!-- http://purl.org/oseg/ontologies/OTRL#ODRL&#45;1 -->
<g id="node18" class="node">
<title>http://purl.org/oseg/ontologies/OTRL#ODRL&#45;1</title>
<ellipse fill="none" stroke="#e377c2" cx="347.75" cy="-62.28" rx="50.82" ry="16.03"/>
<text text-anchor="middle" x="347.75" y="-58.58" font-family="Times,serif" font-size="14.00">ODRL&#45;1</text>
</g>
<!-- http://purl.org/oseg/ontologies/OTRL#ODRL&#45;1&#45;&gt;http://www.w3.org/2002/07/owl#class -->
<g id="edge17" class="edge">
<title>http://purl.org/oseg/ontologies/OTRL#ODRL&#45;1&#45;&gt;http://www.w3.org/2002/07/owl#class</title>
<path fill="none" stroke="black" d="M342.93,-78.66C331.9,-116.22 304.7,-208.8 291.35,-254.21"/>
<polygon fill="black" stroke="black" points="287.96,-253.34 288.5,-263.92 294.68,-255.31 287.96,-253.34"/>
<text text-anchor="middle" x="312.64" y="-170.24" font-family="Times,serif" font-size="14.00">a</text>
</g>
<!-- http://purl.org/oseg/ontologies/OTRL#ODRL&#45;1&#45;&gt;http://purl.org/oseg/ontologies/OTRL#ODRL -->
<g id="edge16" class="edge">
<title>http://purl.org/oseg/ontologies/OTRL#ODRL&#45;1&#45;&gt;http://purl.org/oseg/ontologies/OTRL#ODRL</title>
<path fill="none" stroke="black" d="M319.25,-75.85C289.53,-90 242.89,-112.21 210.77,-127.51"/>
<polygon fill="black" stroke="black" points="209.23,-124.36 201.71,-131.82 212.24,-130.68 209.23,-124.36"/>
</g>
<!-- http://purl.org/oseg/ontologies/OTRL#OTRL&#45;1 -->
<g id="node19" class="node">
<title>http://purl.org/oseg/ontologies/OTRL#OTRL&#45;1</title>
<ellipse fill="none" stroke="#e377c2" cx="473.34" cy="-237.9" rx="49.49" ry="16.03"/>
<text text-anchor="middle" x="473.34" y="-234.2" font-family="Times,serif" font-size="14.00">OTRL&#45;1</text>
</g>
<!-- http://purl.org/oseg/ontologies/OTRL#OTRL&#45;1&#45;&gt;http://www.w3.org/2002/07/owl#class -->
<g id="edge18" class="edge">
<title>http://purl.org/oseg/ontologies/OTRL#OTRL&#45;1&#45;&gt;http://www.w3.org/2002/07/owl#class</title>
<path fill="none" stroke="black" d="M432.2,-247.08C404.79,-253.19 368.48,-261.29 338.62,-267.95"/>
<polygon fill="black" stroke="black" points="337.76,-264.56 328.76,-270.15 339.28,-271.39 337.76,-264.56"/>
<text text-anchor="middle" x="380.91" y="-261.32" font-family="Times,serif" font-size="14.00">a</text>
</g>
<!-- http://purl.org/oseg/ontologies/OTRL#OTRL&#45;1&#45;&gt;http://purl.org/oseg/ontologies/OTRL#OTRL -->
<g id="edge7" class="edge">
<title>http://purl.org/oseg/ontologies/OTRL#OTRL&#45;1&#45;&gt;http://purl.org/oseg/ontologies/OTRL#OTRL</title>
<path fill="none" stroke="black" d="M472.47,-254.24C470.4,-293.02 465.18,-390.94 462.64,-438.4"/>
<polygon fill="black" stroke="black" points="459.14,-438.35 462.1,-448.53 466.13,-438.73 459.14,-438.35"/>
</g>
<!-- http://purl.org/oseg/ontologies/OTRL#OTRL&#45;5 -->
<g id="node20" class="node">
<title>http://purl.org/oseg/ontologies/OTRL#OTRL&#45;5</title>
<ellipse fill="none" stroke="#e377c2" cx="270.69" cy="-543.55" rx="49.49" ry="16.03"/>
<text text-anchor="middle" x="270.69" y="-539.85" font-family="Times,serif" font-size="14.00">OTRL&#45;5</text>
</g>
<!-- http://purl.org/oseg/ontologies/OTRL#OTRL&#45;5&#45;&gt;http://www.w3.org/2002/07/owl#class -->
<g id="edge37" class="edge">
<title>http://purl.org/oseg/ontologies/OTRL#OTRL&#45;5&#45;&gt;http://www.w3.org/2002/07/owl#class</title>
<path fill="none" stroke="black" d="M271.51,-527.07C273.69,-482.83 279.72,-361.09 282.4,-306.86"/>
<polygon fill="black" stroke="black" points="285.9,-306.82 282.9,-296.66 278.91,-306.48 285.9,-306.82"/>
<text text-anchor="middle" x="272.45" y="-405.77" font-family="Times,serif" font-size="14.00">a</text>
</g>
<!-- http://purl.org/oseg/ontologies/OTRL#OTRL&#45;5&#45;&gt;http://purl.org/oseg/ontologies/OTRL#OTRL -->
<g id="edge28" class="edge">
<title>http://purl.org/oseg/ontologies/OTRL#OTRL&#45;5&#45;&gt;http://purl.org/oseg/ontologies/OTRL#OTRL</title>
<path fill="none" stroke="black" d="M301.73,-530.76C334.98,-517.05 387.78,-495.29 423.43,-480.6"/>
<polygon fill="black" stroke="black" points="425.09,-483.7 433,-476.65 422.42,-477.23 425.09,-483.7"/>
</g>
<!-- http://purl.org/oseg/ontologies/OTRL#ODRL&#45;3 -->
<g id="node21" class="node">
<title>http://purl.org/oseg/ontologies/OTRL#ODRL&#45;3</title>
<ellipse fill="none" stroke="#e377c2" cx="50.46" cy="-224.1" rx="50.82" ry="16.03"/>
<text text-anchor="middle" x="50.46" y="-220.4" font-family="Times,serif" font-size="14.00">ODRL&#45;3</text>
</g>
<!-- http://purl.org/oseg/ontologies/OTRL#ODRL&#45;3&#45;&gt;http://www.w3.org/2002/07/owl#class -->
<g id="edge38" class="edge">
<title>http://purl.org/oseg/ontologies/OTRL#ODRL&#45;3&#45;&gt;http://www.w3.org/2002/07/owl#class</title>
<path fill="none" stroke="black" d="M91.36,-233.93C129.82,-243.18 187.65,-257.09 229.86,-267.24"/>
<polygon fill="black" stroke="black" points="229.15,-270.67 239.69,-269.61 230.79,-263.86 229.15,-270.67"/>
<text text-anchor="middle" x="156.11" y="-254.39" font-family="Times,serif" font-size="14.00">a</text>
</g>
<!-- http://purl.org/oseg/ontologies/OTRL#ODRL&#45;3&#45;&gt;http://purl.org/oseg/ontologies/OTRL#ODRL -->
<g id="edge35" class="edge">
<title>http://purl.org/oseg/ontologies/OTRL#ODRL&#45;3&#45;&gt;http://purl.org/oseg/ontologies/OTRL#ODRL</title>
<path fill="none" stroke="black" d="M73.33,-209.49C93.35,-196.71 122.6,-178.03 144.62,-163.97"/>
<polygon fill="black" stroke="black" points="146.72,-166.78 153.26,-158.44 142.95,-160.88 146.72,-166.78"/>
</g>
<!-- http://purl.org/oseg/ontologies/OTRL#OTRL&#45;8 -->
<g id="node22" class="node">
<title>http://purl.org/oseg/ontologies/OTRL#OTRL&#45;8</title>
<ellipse fill="none" stroke="#e377c2" cx="540.58" cy="-286.29" rx="49.49" ry="16.03"/>
<text text-anchor="middle" x="540.58" y="-282.59" font-family="Times,serif" font-size="14.00">OTRL&#45;8</text>
</g>
<!-- http://purl.org/oseg/ontologies/OTRL#OTRL&#45;8&#45;&gt;http://www.w3.org/2002/07/owl#class -->
<g id="edge19" class="edge">
<title>http://purl.org/oseg/ontologies/OTRL#OTRL&#45;8&#45;&gt;http://www.w3.org/2002/07/owl#class</title>
<path fill="none" stroke="black" d="M491.06,-285.12C451.29,-284.17 395.05,-282.84 351.18,-281.8"/>
<polygon fill="black" stroke="black" points="351.24,-278.3 341.16,-281.56 351.08,-285.29 351.24,-278.3"/>
<text text-anchor="middle" x="416.62" y="-272.26" font-family="Times,serif" font-size="14.00">a</text>
</g>
<!-- http://purl.org/oseg/ontologies/OTRL#OTRL&#45;8&#45;&gt;http://purl.org/oseg/ontologies/OTRL#OTRL -->
<g id="edge12" class="edge">
<title>http://purl.org/oseg/ontologies/OTRL#OTRL&#45;8&#45;&gt;http://purl.org/oseg/ontologies/OTRL#OTRL</title>
<path fill="none" stroke="black" d="M533.4,-302.47C519.53,-333.71 488.97,-402.53 472.41,-439.81"/>
<polygon fill="black" stroke="black" points="469.19,-438.45 468.33,-449.01 475.59,-441.29 469.19,-438.45"/>
</g>
<!-- http://purl.org/oseg/ontologies/OTRL#ODRL&#45;2 -->
<g id="node23" class="node">
<title>http://purl.org/oseg/ontologies/OTRL#ODRL&#45;2</title>
<ellipse fill="none" stroke="#e377c2" cx="73.9" cy="-145.4" rx="50.82" ry="16.03"/>
<text text-anchor="middle" x="73.9" y="-141.7" font-family="Times,serif" font-size="14.00">ODRL&#45;2</text>
</g>
<!-- http://purl.org/oseg/ontologies/OTRL#ODRL&#45;2&#45;&gt;http://www.w3.org/2002/07/owl#class -->
<g id="edge20" class="edge">
<title>http://purl.org/oseg/ontologies/OTRL#ODRL&#45;2&#45;&gt;http://www.w3.org/2002/07/owl#class</title>
<path fill="none" stroke="black" d="M96.75,-160.08C134.23,-184.16 208.87,-232.11 251.63,-259.58"/>
<polygon fill="black" stroke="black" points="249.95,-262.66 260.25,-265.12 253.73,-256.77 249.95,-262.66"/>
<text text-anchor="middle" x="169.69" y="-213.63" font-family="Times,serif" font-size="14.00">a</text>
</g>
<!-- http://purl.org/oseg/ontologies/OTRL#ODRL&#45;2&#45;&gt;http://purl.org/oseg/ontologies/OTRL#ODRL -->
<g id="edge25" class="edge">
<title>http://purl.org/oseg/ontologies/OTRL#ODRL&#45;2&#45;&gt;http://purl.org/oseg/ontologies/OTRL#ODRL</title>
<path fill="none" stroke="black" d="M124.82,-144.93C124.91,-144.93 125,-144.93 125.09,-144.93"/>
<polygon fill="black" stroke="black" points="123.38,-148.44 133.35,-144.85 123.32,-141.44 123.38,-148.44"/>
</g>
<!-- http://purl.org/oseg/ontologies/OTRL#exitCriteria -->
<g id="node24" class="node">
<title>http://purl.org/oseg/ontologies/OTRL#exitCriteria</title>
<ellipse fill="none" stroke="#e377c2" cx="618.8" cy="-652.37" rx="70.01" ry="16.03"/>
<text text-anchor="middle" x="618.8" y="-648.67" font-family="Times,serif" font-size="14.00">exitCriteria</text>
</g>
<!-- http://purl.org/oseg/ontologies/OTRL#exitCriteria&#45;&gt;http://purl.org/oseg/ontologies/OTRL#OTRL -->
<g id="edge39" class="edge">
<title>http://purl.org/oseg/ontologies/OTRL#exitCriteria&#45;&gt;http://purl.org/oseg/ontologies/OTRL#OTRL</title>
<path fill="none" stroke="black" d="M605.36,-636.4C577.55,-603.33 513.54,-527.22 481,-488.53"/>
<polygon fill="black" stroke="black" points="483.3,-485.82 474.18,-480.42 477.94,-490.33 483.3,-485.82"/>
<text text-anchor="middle" x="516.68" y="-566.26" font-family="Times,serif" font-size="14.00">domain</text>
</g>
<!-- http://purl.org/oseg/ontologies/OTRL#exitCriteria&#45;&gt;http://schema.org/Text -->
<g id="edge2" class="edge">
<title>http://purl.org/oseg/ontologies/OTRL#exitCriteria&#45;&gt;http://schema.org/Text</title>
<path fill="none" stroke="black" d="M669.45,-663.73C711.04,-673.05 770.13,-686.3 814.59,-696.26"/>
<polygon fill="black" stroke="black" points="813.88,-699.69 824.41,-698.46 815.41,-692.86 813.88,-699.69"/>
<text text-anchor="middle" x="721.02" y="-683.79" font-family="Times,serif" font-size="14.00">range</text>
</g>
</g>
</svg>
