<?xml version="1.0" encoding="UTF-8" standalone="no"?>
<!DOCTYPE svg PUBLIC "-//W3C//DTD SVG 1.1//EN"
 "http://www.w3.org/Graphics/SVG/1.1/DTD/svg11.dtd">
<!-- Generated by graphviz version 2.43.0 (0)
 -->
<!-- Title: G Pages: 1 -->
<svg width="601pt" height="461pt"
 viewBox="0.00 0.00 601.00 461.00" xmlns="http://www.w3.org/2000/svg" xmlns:xlink="http://www.w3.org/1999/xlink">
<g id="graph0" class="graph" transform="scale(1 1) rotate(0) translate(4 457)">
<title>G</title>
<polygon fill="white" stroke="transparent" points="-4,4 -4,-457 597,-457 597,4 -4,4"/>
<!-- http://purl.org/oseg/ontologies/OTRL#ODRL -->
<g id="node1" class="node">
<title>http://purl.org/oseg/ontologies/OTRL#ODRL</title>
<ellipse fill="none" stroke="#e377c2" cx="384.53" cy="-129.26" rx="41.94" ry="16.03"/>
<text text-anchor="middle" x="384.53" y="-125.56" font-family="Times,serif" font-size="14.00">ODRL</text>
</g>
<!-- http://www.w3.org/2002/07/owl#class -->
<g id="node2" class="node">
<title>http://www.w3.org/2002/07/owl#class</title>
<ellipse fill="none" stroke="#1f77b4" cx="245.74" cy="-208.8" rx="57.05" ry="16.03"/>
<text text-anchor="middle" x="245.74" y="-205.1" font-family="Times,serif" font-size="14.00">owl:class</text>
</g>
<!-- http://purl.org/oseg/ontologies/OTRL#ODRL&#45;&gt;http://www.w3.org/2002/07/owl#class -->
<g id="edge2" class="edge">
<title>http://purl.org/oseg/ontologies/OTRL#ODRL&#45;&gt;http://www.w3.org/2002/07/owl#class</title>
<path fill="none" stroke="black" d="M360.98,-142.76C338.8,-155.47 305.31,-174.66 280.14,-189.08"/>
<polygon fill="black" stroke="black" points="278.22,-186.15 271.28,-194.16 281.7,-192.23 278.22,-186.15"/>
<text text-anchor="middle" x="316.06" y="-169.72" font-family="Times,serif" font-size="14.00">a</text>
</g>
<!-- http://purl.org/oseg/ontologies/OTRL#OTRL -->
<g id="node3" class="node">
<title>http://purl.org/oseg/ontologies/OTRL#OTRL</title>
<ellipse fill="none" stroke="#e377c2" cx="108.38" cy="-283.68" rx="39.7" ry="16.03"/>
<text text-anchor="middle" x="108.38" y="-279.98" font-family="Times,serif" font-size="14.00">OTRL</text>
</g>
<!-- http://purl.org/oseg/ontologies/OTRL#OTRL&#45;&gt;http://www.w3.org/2002/07/owl#class -->
<g id="edge6" class="edge">
<title>http://purl.org/oseg/ontologies/OTRL#OTRL&#45;&gt;http://www.w3.org/2002/07/owl#class</title>
<path fill="none" stroke="black" d="M132.3,-270.63C153.84,-258.89 185.78,-241.49 210.28,-228.13"/>
<polygon fill="black" stroke="black" points="212.17,-231.09 219.27,-223.23 208.82,-224.94 212.17,-231.09"/>
<text text-anchor="middle" x="166.79" y="-253.18" font-family="Times,serif" font-size="14.00">a</text>
</g>
<!-- http://schema.org/Text -->
<g id="node4" class="node">
<title>http://schema.org/Text</title>
<ellipse fill="none" stroke="#e377c2" cx="465.45" cy="-396.18" rx="74.91" ry="16.03"/>
<text text-anchor="middle" x="465.45" y="-392.48" font-family="Times,serif" font-size="14.00">schema:Text</text>
</g>
<!-- http://purl.org/oseg/ontologies/OTRL#OTRL&#45;2 -->
<g id="node5" class="node">
<title>http://purl.org/oseg/ontologies/OTRL#OTRL&#45;2</title>
<ellipse fill="none" stroke="#e377c2" cx="238.73" cy="-253.27" rx="49.49" ry="16.03"/>
<text text-anchor="middle" x="238.73" y="-249.57" font-family="Times,serif" font-size="14.00">OTRL&#45;2</text>
</g>
<!-- http://purl.org/oseg/ontologies/OTRL#OTRL&#45;2&#45;&gt;http://www.w3.org/2002/07/owl#class -->
<g id="edge1" class="edge">
<title>http://purl.org/oseg/ontologies/OTRL#OTRL&#45;2&#45;&gt;http://www.w3.org/2002/07/owl#class</title>
<path fill="none" stroke="black" d="M241.3,-236.96C241.39,-236.36 241.49,-235.75 241.59,-235.13"/>
<polygon fill="black" stroke="black" points="245.07,-235.53 243.17,-225.11 238.15,-234.44 245.07,-235.53"/>
<text text-anchor="middle" x="236.94" y="-224.85" font-family="Times,serif" font-size="14.00">a</text>
</g>
<!-- http://purl.org/oseg/ontologies/OTRL#OTRL&#45;2&#45;&gt;http://purl.org/oseg/ontologies/OTRL#OTRL -->
<g id="edge19" class="edge">
<title>http://purl.org/oseg/ontologies/OTRL#OTRL&#45;2&#45;&gt;http://purl.org/oseg/ontologies/OTRL#OTRL</title>
<path fill="none" stroke="black" d="M198.2,-262.72C183.87,-266.07 167.67,-269.84 153.02,-273.26"/>
<polygon fill="black" stroke="black" points="152.11,-269.88 143.16,-275.56 153.7,-276.7 152.11,-269.88"/>
</g>
<!-- http://purl.org/oseg/ontologies/OTRL#exitCriteria -->
<g id="node6" class="node">
<title>http://purl.org/oseg/ontologies/OTRL#exitCriteria</title>
<ellipse fill="none" stroke="#e377c2" cx="523.19" cy="-436.73" rx="70.01" ry="16.03"/>
<text text-anchor="middle" x="523.19" y="-433.03" font-family="Times,serif" font-size="14.00">exitCriteria</text>
</g>
<!-- http://purl.org/oseg/ontologies/OTRL#exitCriteria&#45;&gt;http://schema.org/Text -->
<g id="edge11" class="edge">
<title>http://purl.org/oseg/ontologies/OTRL#exitCriteria&#45;&gt;http://schema.org/Text</title>
<path fill="none" stroke="black" d="M501.03,-421.17C499.41,-420.03 497.75,-418.87 496.1,-417.7"/>
<polygon fill="black" stroke="black" points="498.03,-414.79 487.83,-411.9 494.01,-420.51 498.03,-414.79"/>
<text text-anchor="middle" x="477.56" y="-408.24" font-family="Times,serif" font-size="14.00">range</text>
</g>
<!-- http://purl.org/oseg/ontologies/OTRL#ODRL&#45;2 -->
<g id="node7" class="node">
<title>http://purl.org/oseg/ontologies/OTRL#ODRL&#45;2</title>
<ellipse fill="none" stroke="#e377c2" cx="414.93" cy="-274.31" rx="50.82" ry="16.03"/>
<text text-anchor="middle" x="414.93" y="-270.61" font-family="Times,serif" font-size="14.00">ODRL&#45;2</text>
</g>
<!-- http://purl.org/oseg/ontologies/OTRL#ODRL&#45;2&#45;&gt;http://purl.org/oseg/ontologies/OTRL#ODRL -->
<g id="edge9" class="edge">
<title>http://purl.org/oseg/ontologies/OTRL#ODRL&#45;2&#45;&gt;http://purl.org/oseg/ontologies/OTRL#ODRL</title>
<path fill="none" stroke="black" d="M411.5,-257.95C406.3,-233.14 396.37,-185.73 390.11,-155.9"/>
<polygon fill="black" stroke="black" points="393.47,-154.85 387.99,-145.78 386.62,-156.29 393.47,-154.85"/>
</g>
<!-- http://purl.org/oseg/ontologies/OTRL#ODRL&#45;2&#45;&gt;http://www.w3.org/2002/07/owl#class -->
<g id="edge3" class="edge">
<title>http://purl.org/oseg/ontologies/OTRL#ODRL&#45;2&#45;&gt;http://www.w3.org/2002/07/owl#class</title>
<path fill="none" stroke="black" d="M382.31,-261.68C355.82,-251.42 318.24,-236.87 289.2,-225.63"/>
<polygon fill="black" stroke="black" points="290.3,-222.3 279.71,-221.96 287.77,-228.83 290.3,-222.3"/>
<text text-anchor="middle" x="331.26" y="-247.45" font-family="Times,serif" font-size="14.00">a</text>
</g>
<!-- http://purl.org/oseg/ontologies/OTRL -->
<g id="node8" class="node">
<title>http://purl.org/oseg/ontologies/OTRL</title>
<ellipse fill="none" stroke="#e377c2" cx="139.24" cy="-68.64" rx="60.62" ry="16.03"/>
<text text-anchor="middle" x="139.24" y="-64.94" font-family="Times,serif" font-size="14.00">ns1:OTRL</text>
</g>
<!-- http://purl.org/oseg/ontologies/OTRL&#45;&gt;http://purl.org/oseg/ontologies/OTRL -->
<g id="edge12" class="edge">
<title>http://purl.org/oseg/ontologies/OTRL&#45;&gt;http://purl.org/oseg/ontologies/OTRL</title>
<path fill="none" stroke="black" d="M194.84,-75.27C208.17,-74.75 218.05,-72.54 218.05,-68.64 218.05,-65.81 212.83,-63.86 204.87,-62.81"/>
<polygon fill="black" stroke="black" points="205.09,-59.32 194.84,-62.01 204.53,-66.3 205.09,-59.32"/>
<text text-anchor="middle" x="269.55" y="-64.94" font-family="Times,serif" font-size="14.00">owl:versionIRI</text>
</g>
<!-- http://www.w3.org/1999/02/22&#45;rdf&#45;syntax&#45;ns#nil -->
<g id="node9" class="node">
<title>http://www.w3.org/1999/02/22&#45;rdf&#45;syntax&#45;ns#nil</title>
<ellipse fill="none" stroke="#e377c2" cx="406.24" cy="-16.64" rx="42.35" ry="16.03"/>
<text text-anchor="middle" x="406.24" y="-12.94" font-family="Times,serif" font-size="14.00">rdf:nil</text>
</g>
<!-- http://purl.org/oseg/ontologies/OTRL#OTRL&#45;3 -->
<g id="node10" class="node">
<title>http://purl.org/oseg/ontologies/OTRL#OTRL&#45;3</title>
<ellipse fill="none" stroke="#e377c2" cx="103.79" cy="-333.7" rx="49.49" ry="16.03"/>
<text text-anchor="middle" x="103.79" y="-330" font-family="Times,serif" font-size="14.00">OTRL&#45;3</text>
</g>
<!-- http://purl.org/oseg/ontologies/OTRL#OTRL&#45;3&#45;&gt;http://www.w3.org/2002/07/owl#class -->
<g id="edge13" class="edge">
<title>http://purl.org/oseg/ontologies/OTRL#OTRL&#45;3&#45;&gt;http://www.w3.org/2002/07/owl#class</title>
<path fill="none" stroke="black" d="M121.19,-318.38C145.96,-296.59 191.53,-256.49 220.15,-231.31"/>
<polygon fill="black" stroke="black" points="222.55,-233.87 227.74,-224.64 217.92,-228.61 222.55,-233.87"/>
<text text-anchor="middle" x="166.17" y="-278.65" font-family="Times,serif" font-size="14.00">a</text>
</g>
<!-- http://purl.org/oseg/ontologies/OTRL#OTRL&#45;3&#45;&gt;http://purl.org/oseg/ontologies/OTRL#OTRL -->
<g id="edge8" class="edge">
<title>http://purl.org/oseg/ontologies/OTRL#OTRL&#45;3&#45;&gt;http://purl.org/oseg/ontologies/OTRL#OTRL</title>
<path fill="none" stroke="black" d="M105.29,-317.32C105.49,-315.09 105.71,-312.77 105.92,-310.42"/>
<polygon fill="black" stroke="black" points="109.43,-310.54 106.86,-300.26 102.46,-309.9 109.43,-310.54"/>
</g>
<!-- http://purl.org/oseg/ontologies/OTRL#OTRL&#45;1 -->
<g id="node11" class="node">
<title>http://purl.org/oseg/ontologies/OTRL#OTRL&#45;1</title>
<ellipse fill="none" stroke="#e377c2" cx="49.55" cy="-207.15" rx="49.49" ry="16.03"/>
<text text-anchor="middle" x="49.55" y="-203.45" font-family="Times,serif" font-size="14.00">OTRL&#45;1</text>
</g>
<!-- http://purl.org/oseg/ontologies/OTRL#OTRL&#45;1&#45;&gt;http://www.w3.org/2002/07/owl#class -->
<g id="edge14" class="edge">
<title>http://purl.org/oseg/ontologies/OTRL#OTRL&#45;1&#45;&gt;http://www.w3.org/2002/07/owl#class</title>
<path fill="none" stroke="black" d="M99.05,-207.56C123,-207.77 152.13,-208.01 178.09,-208.23"/>
<polygon fill="black" stroke="black" points="178.21,-211.73 188.24,-208.32 178.27,-204.73 178.21,-211.73"/>
<text text-anchor="middle" x="134.07" y="-211.7" font-family="Times,serif" font-size="14.00">a</text>
</g>
<!-- http://purl.org/oseg/ontologies/OTRL#OTRL&#45;1&#45;&gt;http://purl.org/oseg/ontologies/OTRL#OTRL -->
<g id="edge10" class="edge">
<title>http://purl.org/oseg/ontologies/OTRL#OTRL&#45;1&#45;&gt;http://purl.org/oseg/ontologies/OTRL#OTRL</title>
<path fill="none" stroke="black" d="M61.74,-223C69.92,-233.64 80.84,-247.85 90.06,-259.84"/>
<polygon fill="black" stroke="black" points="87.54,-262.31 96.41,-268.1 93.09,-258.04 87.54,-262.31"/>
</g>
<!-- http://purl.org/oseg/ontologies/OTRL#ODRL&#45;1 -->
<g id="node12" class="node">
<title>http://purl.org/oseg/ontologies/OTRL#ODRL&#45;1</title>
<ellipse fill="none" stroke="#e377c2" cx="387.31" cy="-75.22" rx="50.82" ry="16.03"/>
<text text-anchor="middle" x="387.31" y="-71.52" font-family="Times,serif" font-size="14.00">ODRL&#45;1</text>
</g>
<!-- http://purl.org/oseg/ontologies/OTRL#ODRL&#45;1&#45;&gt;http://purl.org/oseg/ontologies/OTRL#ODRL -->
<g id="edge20" class="edge">
<title>http://purl.org/oseg/ontologies/OTRL#ODRL&#45;1&#45;&gt;http://purl.org/oseg/ontologies/OTRL#ODRL</title>
<path fill="none" stroke="black" d="M386.46,-91.72C386.28,-95.18 386.09,-98.91 385.9,-102.63"/>
<polygon fill="black" stroke="black" points="382.39,-102.69 385.37,-112.85 389.38,-103.05 382.39,-102.69"/>
</g>
<!-- http://purl.org/oseg/ontologies/OTRL#ODRL&#45;1&#45;&gt;http://www.w3.org/2002/07/owl#class -->
<g id="edge4" class="edge">
<title>http://purl.org/oseg/ontologies/OTRL#ODRL&#45;1&#45;&gt;http://www.w3.org/2002/07/owl#class</title>
<path fill="none" stroke="black" d="M370.8,-90.8C345.99,-114.2 298.98,-158.57 270.19,-185.73"/>
<polygon fill="black" stroke="black" points="267.46,-183.49 262.59,-192.9 272.26,-188.58 267.46,-183.49"/>
<text text-anchor="middle" x="315.99" y="-142.06" font-family="Times,serif" font-size="14.00">a</text>
</g>
<!-- http://purl.org/oseg/ontologies/OTRL#ODRL&#45;5 -->
<g id="node13" class="node">
<title>http://purl.org/oseg/ontologies/OTRL#ODRL&#45;5</title>
<ellipse fill="none" stroke="#e377c2" cx="280.05" cy="-15.88" rx="50.82" ry="16.03"/>
<text text-anchor="middle" x="280.05" y="-12.18" font-family="Times,serif" font-size="14.00">ODRL&#45;5</text>
</g>
<!-- http://purl.org/oseg/ontologies/OTRL#ODRL&#45;5&#45;&gt;http://purl.org/oseg/ontologies/OTRL#ODRL -->
<g id="edge15" class="edge">
<title>http://purl.org/oseg/ontologies/OTRL#ODRL&#45;5&#45;&gt;http://purl.org/oseg/ontologies/OTRL#ODRL</title>
<path fill="none" stroke="black" d="M294.58,-31.65C312.43,-51.02 342.87,-84.06 363.34,-106.27"/>
<polygon fill="black" stroke="black" points="360.77,-108.65 370.12,-113.63 365.92,-103.91 360.77,-108.65"/>
</g>
<!-- http://purl.org/oseg/ontologies/OTRL#ODRL&#45;5&#45;&gt;http://www.w3.org/2002/07/owl#class -->
<g id="edge7" class="edge">
<title>http://purl.org/oseg/ontologies/OTRL#ODRL&#45;5&#45;&gt;http://www.w3.org/2002/07/owl#class</title>
<path fill="none" stroke="black" d="M277.12,-32.33C271.17,-65.79 257.61,-142.02 250.42,-182.47"/>
<polygon fill="black" stroke="black" points="246.96,-181.94 248.66,-192.4 253.85,-183.16 246.96,-181.94"/>
<text text-anchor="middle" x="259.27" y="-111.2" font-family="Times,serif" font-size="14.00">a</text>
</g>
<!-- http://purl.org/oseg/ontologies/OTRL#ODRL&#45;3 -->
<g id="node14" class="node">
<title>http://purl.org/oseg/ontologies/OTRL#ODRL&#45;3</title>
<ellipse fill="none" stroke="#e377c2" cx="253.98" cy="-158.24" rx="50.82" ry="16.03"/>
<text text-anchor="middle" x="253.98" y="-154.54" font-family="Times,serif" font-size="14.00">ODRL&#45;3</text>
</g>
<!-- http://purl.org/oseg/ontologies/OTRL#ODRL&#45;3&#45;&gt;http://purl.org/oseg/ontologies/OTRL#ODRL -->
<g id="edge25" class="edge">
<title>http://purl.org/oseg/ontologies/OTRL#ODRL&#45;3&#45;&gt;http://purl.org/oseg/ontologies/OTRL#ODRL</title>
<path fill="none" stroke="black" d="M296,-148.91C309.31,-145.96 324.1,-142.68 337.71,-139.65"/>
<polygon fill="black" stroke="black" points="338.85,-142.98 347.86,-137.4 337.34,-136.15 338.85,-142.98"/>
</g>
<!-- http://purl.org/oseg/ontologies/OTRL#ODRL&#45;3&#45;&gt;http://www.w3.org/2002/07/owl#class -->
<g id="edge21" class="edge">
<title>http://purl.org/oseg/ontologies/OTRL#ODRL&#45;3&#45;&gt;http://www.w3.org/2002/07/owl#class</title>
<path fill="none" stroke="black" d="M251.32,-174.52C250.9,-177.13 250.45,-179.9 249.99,-182.67"/>
<polygon fill="black" stroke="black" points="246.54,-182.12 248.38,-192.56 253.45,-183.25 246.54,-182.12"/>
<text text-anchor="middle" x="246.16" y="-182.39" font-family="Times,serif" font-size="14.00">a</text>
</g>
<!-- http://purl.org/oseg/ontologies/OTRL#goal -->
<g id="node15" class="node">
<title>http://purl.org/oseg/ontologies/OTRL#goal</title>
<ellipse fill="none" stroke="#e377c2" cx="456.27" cy="-354.44" rx="33.47" ry="16.03"/>
<text text-anchor="middle" x="456.27" y="-350.74" font-family="Times,serif" font-size="14.00">goal</text>
</g>
<!-- http://purl.org/oseg/ontologies/OTRL#goal&#45;&gt;http://schema.org/Text -->
<g id="edge22" class="edge">
<title>http://purl.org/oseg/ontologies/OTRL#goal&#45;&gt;http://schema.org/Text</title>
<path fill="none" stroke="black" d="M459.9,-370.94C459.92,-371.03 459.94,-371.12 459.96,-371.21"/>
<polygon fill="black" stroke="black" points="456.28,-370.79 461.85,-379.81 463.12,-369.29 456.28,-370.79"/>
<text text-anchor="middle" x="438.93" y="-374.88" font-family="Times,serif" font-size="14.00">range</text>
</g>
<!-- http://purl.org/oseg/ontologies/OTRL#ODRL&#45;4 -->
<g id="node16" class="node">
<title>http://purl.org/oseg/ontologies/OTRL#ODRL&#45;4</title>
<ellipse fill="none" stroke="#e377c2" cx="444.95" cy="-194.15" rx="50.82" ry="16.03"/>
<text text-anchor="middle" x="444.95" y="-190.45" font-family="Times,serif" font-size="14.00">ODRL&#45;4</text>
</g>
<!-- http://purl.org/oseg/ontologies/OTRL#ODRL&#45;4&#45;&gt;http://purl.org/oseg/ontologies/OTRL#ODRL -->
<g id="edge5" class="edge">
<title>http://purl.org/oseg/ontologies/OTRL#ODRL&#45;4&#45;&gt;http://purl.org/oseg/ontologies/OTRL#ODRL</title>
<path fill="none" stroke="black" d="M430.32,-178.44C423.05,-170.63 414.12,-161.04 406.08,-152.4"/>
<polygon fill="black" stroke="black" points="408.39,-149.76 399.02,-144.82 403.27,-154.53 408.39,-149.76"/>
</g>
<!-- http://purl.org/oseg/ontologies/OTRL#ODRL&#45;4&#45;&gt;http://www.w3.org/2002/07/owl#class -->
<g id="edge23" class="edge">
<title>http://purl.org/oseg/ontologies/OTRL#ODRL&#45;4&#45;&gt;http://www.w3.org/2002/07/owl#class</title>
<path fill="none" stroke="black" d="M395.19,-197.81C369.95,-199.67 338.96,-201.95 311.75,-203.95"/>
<polygon fill="black" stroke="black" points="311.24,-200.47 301.53,-204.7 311.76,-207.46 311.24,-200.47"/>
<text text-anchor="middle" x="348.97" y="-204.68" font-family="Times,serif" font-size="14.00">a</text>
</g>
<!-- http://purl.org/oseg/ontologies/OTRL#OTRL&#45;4 -->
<g id="node17" class="node">
<title>http://purl.org/oseg/ontologies/OTRL#OTRL&#45;4</title>
<ellipse fill="none" stroke="#e377c2" cx="79.57" cy="-137.1" rx="49.49" ry="16.03"/>
<text text-anchor="middle" x="79.57" y="-133.4" font-family="Times,serif" font-size="14.00">OTRL&#45;4</text>
</g>
<!-- http://purl.org/oseg/ontologies/OTRL#OTRL&#45;4&#45;&gt;http://www.w3.org/2002/07/owl#class -->
<g id="edge24" class="edge">
<title>http://purl.org/oseg/ontologies/OTRL#OTRL&#45;4&#45;&gt;http://www.w3.org/2002/07/owl#class</title>
<path fill="none" stroke="black" d="M109.66,-150.08C136.33,-161.59 175.5,-178.49 204.97,-191.21"/>
<polygon fill="black" stroke="black" points="203.6,-194.43 214.17,-195.18 206.38,-188.01 203.6,-194.43"/>
<text text-anchor="middle" x="152.82" y="-174.45" font-family="Times,serif" font-size="14.00">a</text>
</g>
<!-- http://purl.org/oseg/ontologies/OTRL#OTRL&#45;4&#45;&gt;http://purl.org/oseg/ontologies/OTRL#OTRL -->
<g id="edge18" class="edge">
<title>http://purl.org/oseg/ontologies/OTRL#OTRL&#45;4&#45;&gt;http://purl.org/oseg/ontologies/OTRL#OTRL</title>
<path fill="none" stroke="black" d="M82.76,-153.34C87.71,-178.55 97.3,-227.31 103.24,-257.51"/>
<polygon fill="black" stroke="black" points="99.81,-258.22 105.17,-267.36 106.68,-256.87 99.81,-258.22"/>
</g>
<!-- http://purl.org/oseg/ontologies/OTRL#OTRL&#45;5 -->
<g id="node18" class="node">
<title>http://purl.org/oseg/ontologies/OTRL#OTRL&#45;5</title>
<ellipse fill="none" stroke="#e377c2" cx="211.69" cy="-387.49" rx="49.49" ry="16.03"/>
<text text-anchor="middle" x="211.69" y="-383.79" font-family="Times,serif" font-size="14.00">OTRL&#45;5</text>
</g>
<!-- http://purl.org/oseg/ontologies/OTRL#OTRL&#45;5&#45;&gt;http://www.w3.org/2002/07/owl#class -->
<g id="edge17" class="edge">
<title>http://purl.org/oseg/ontologies/OTRL#OTRL&#45;5&#45;&gt;http://www.w3.org/2002/07/owl#class</title>
<path fill="none" stroke="black" d="M214.83,-371C220.74,-340.02 233.53,-272.87 240.67,-235.41"/>
<polygon fill="black" stroke="black" points="244.17,-235.73 242.6,-225.25 237.29,-234.42 244.17,-235.73"/>
<text text-anchor="middle" x="223.25" y="-307.01" font-family="Times,serif" font-size="14.00">a</text>
</g>
<!-- http://purl.org/oseg/ontologies/OTRL#OTRL&#45;5&#45;&gt;http://purl.org/oseg/ontologies/OTRL#OTRL -->
<g id="edge16" class="edge">
<title>http://purl.org/oseg/ontologies/OTRL#OTRL&#45;5&#45;&gt;http://purl.org/oseg/ontologies/OTRL#OTRL</title>
<path fill="none" stroke="black" d="M196,-371.72C178.58,-354.22 150.33,-325.83 130.63,-306.04"/>
<polygon fill="black" stroke="black" points="133.08,-303.53 123.54,-298.91 128.12,-308.47 133.08,-303.53"/>
</g>
</g>
</svg>
