<?xml version="1.0" encoding="UTF-8" standalone="no"?>
<!DOCTYPE svg PUBLIC "-//W3C//DTD SVG 1.1//EN"
 "http://www.w3.org/Graphics/SVG/1.1/DTD/svg11.dtd">
<!-- Generated by graphviz version 2.43.0 (0)
 -->
<!-- Title: G Pages: 1 -->
<svg width="1879pt" height="1863pt"
 viewBox="0.00 0.00 1879.00 1863.00" xmlns="http://www.w3.org/2000/svg" xmlns:xlink="http://www.w3.org/1999/xlink">
<g id="graph0" class="graph" transform="scale(1 1) rotate(0) translate(4 1859)">
<title>G</title>
<polygon fill="white" stroke="transparent" points="-4,4 -4,-1859 1875,-1859 1875,4 -4,4"/>
<!-- http://purl.org/oseg/ontologies/OTRL#OTRL4 -->
<g id="node1" class="node">
<title>http://purl.org/oseg/ontologies/OTRL#OTRL4</title>
<ellipse fill="none" stroke="#e377c2" cx="664.5" cy="-641.88" rx="45.92" ry="16.03"/>
<text text-anchor="middle" x="664.5" y="-638.18" font-family="Times,serif" font-size="14.00">OTRL4</text>
</g>
<!-- http://purl.org/oseg/ontologies/OTRL#OTRL -->
<g id="node4" class="node">
<title>http://purl.org/oseg/ontologies/OTRL#OTRL</title>
<ellipse fill="none" stroke="#e377c2" cx="909.06" cy="-636.9" rx="39.7" ry="16.03"/>
<text text-anchor="middle" x="909.06" y="-633.2" font-family="Times,serif" font-size="14.00">OTRL</text>
</g>
<!-- http://purl.org/oseg/ontologies/OTRL#OTRL4&#45;&gt;http://purl.org/oseg/ontologies/OTRL#OTRL -->
<g id="edge21" class="edge">
<title>http://purl.org/oseg/ontologies/OTRL#OTRL4&#45;&gt;http://purl.org/oseg/ontologies/OTRL#OTRL</title>
<path fill="none" stroke="black" d="M710.5,-640.94C752.9,-640.08 815.67,-638.8 859.24,-637.91"/>
<polygon fill="black" stroke="black" points="859.4,-641.41 869.33,-637.71 859.26,-634.41 859.4,-641.41"/>
</g>
<!-- http://purl.org/oseg/ontologies/OTRL#OTRL2 -->
<g id="node2" class="node">
<title>http://purl.org/oseg/ontologies/OTRL#OTRL2</title>
<ellipse fill="none" stroke="#e377c2" cx="701.56" cy="-521.02" rx="45.92" ry="16.03"/>
<text text-anchor="middle" x="701.56" y="-517.32" font-family="Times,serif" font-size="14.00">OTRL2</text>
</g>
<!-- http://purl.org/oseg/ontologies/OTRL#OTRL2&#45;&gt;http://purl.org/oseg/ontologies/OTRL#OTRL -->
<g id="edge16" class="edge">
<title>http://purl.org/oseg/ontologies/OTRL#OTRL2&#45;&gt;http://purl.org/oseg/ontologies/OTRL#OTRL</title>
<path fill="none" stroke="black" d="M726.17,-534.76C763.6,-555.67 834.85,-595.46 876.51,-618.72"/>
<polygon fill="black" stroke="black" points="874.99,-621.88 885.43,-623.7 878.41,-615.77 874.99,-621.88"/>
</g>
<!-- http://purl.org/oseg/ontologies/OTRL#OTRL3 -->
<g id="node3" class="node">
<title>http://purl.org/oseg/ontologies/OTRL#OTRL3</title>
<ellipse fill="none" stroke="#e377c2" cx="1037.41" cy="-429.26" rx="45.92" ry="16.03"/>
<text text-anchor="middle" x="1037.41" y="-425.56" font-family="Times,serif" font-size="14.00">OTRL3</text>
</g>
<!-- http://purl.org/oseg/ontologies/OTRL#OTRL3&#45;&gt;http://purl.org/oseg/ontologies/OTRL#OTRL -->
<g id="edge22" class="edge">
<title>http://purl.org/oseg/ontologies/OTRL#OTRL3&#45;&gt;http://purl.org/oseg/ontologies/OTRL#OTRL</title>
<path fill="none" stroke="black" d="M1027.55,-445.21C1005.29,-481.22 951.01,-569.03 924.35,-612.16"/>
<polygon fill="black" stroke="black" points="921.23,-610.55 918.95,-620.9 927.18,-614.23 921.23,-610.55"/>
</g>
<!-- http://purl.org/oseg/ontologies/OTRL#ODRL1 -->
<g id="node5" class="node">
<title>http://purl.org/oseg/ontologies/OTRL#ODRL1</title>
<ellipse fill="none" stroke="#e377c2" cx="1231.1" cy="-1284.33" rx="48.17" ry="16.03"/>
<text text-anchor="middle" x="1231.1" y="-1280.63" font-family="Times,serif" font-size="14.00">ODRL1</text>
</g>
<!-- http://purl.org/oseg/ontologies/OTRL#ODRL -->
<g id="node8" class="node">
<title>http://purl.org/oseg/ontologies/OTRL#ODRL</title>
<ellipse fill="none" stroke="#e377c2" cx="983.69" cy="-1220.96" rx="41.94" ry="16.03"/>
<text text-anchor="middle" x="983.69" y="-1217.26" font-family="Times,serif" font-size="14.00">ODRL</text>
</g>
<!-- http://purl.org/oseg/ontologies/OTRL#ODRL1&#45;&gt;http://purl.org/oseg/ontologies/OTRL#ODRL -->
<g id="edge20" class="edge">
<title>http://purl.org/oseg/ontologies/OTRL#ODRL1&#45;&gt;http://purl.org/oseg/ontologies/OTRL#ODRL</title>
<path fill="none" stroke="black" d="M1192.72,-1274.5C1148.33,-1263.13 1075.38,-1244.44 1028.45,-1232.42"/>
<polygon fill="black" stroke="black" points="1029.12,-1228.98 1018.57,-1229.89 1027.39,-1235.76 1029.12,-1228.98"/>
</g>
<!-- http://purl.org/oseg/ontologies/OTRL#ODRL3Star -->
<g id="node6" class="node">
<title>http://purl.org/oseg/ontologies/OTRL#ODRL3Star</title>
<ellipse fill="none" stroke="#e377c2" cx="724.21" cy="-1309.77" rx="69.09" ry="16.03"/>
<text text-anchor="middle" x="724.21" y="-1306.07" font-family="Times,serif" font-size="14.00">ODRL3Star</text>
</g>
<!-- http://purl.org/oseg/ontologies/OTRL#ODRL3Star&#45;&gt;http://purl.org/oseg/ontologies/OTRL#ODRL -->
<g id="edge31" class="edge">
<title>http://purl.org/oseg/ontologies/OTRL#ODRL3Star&#45;&gt;http://purl.org/oseg/ontologies/OTRL#ODRL</title>
<path fill="none" stroke="black" d="M763.62,-1296.28C811.9,-1279.76 893.31,-1251.89 942.42,-1235.08"/>
<polygon fill="black" stroke="black" points="943.76,-1238.32 952.09,-1231.77 941.5,-1231.7 943.76,-1238.32"/>
</g>
<!-- http://purl.org/oseg/ontologies/OTRL#ODRL4 -->
<g id="node7" class="node">
<title>http://purl.org/oseg/ontologies/OTRL#ODRL4</title>
<ellipse fill="none" stroke="#e377c2" cx="951.92" cy="-1441.54" rx="48.17" ry="16.03"/>
<text text-anchor="middle" x="951.92" y="-1437.84" font-family="Times,serif" font-size="14.00">ODRL4</text>
</g>
<!-- http://purl.org/oseg/ontologies/OTRL#ODRL4&#45;&gt;http://purl.org/oseg/ontologies/OTRL#ODRL -->
<g id="edge41" class="edge">
<title>http://purl.org/oseg/ontologies/OTRL#ODRL4&#45;&gt;http://purl.org/oseg/ontologies/OTRL#ODRL</title>
<path fill="none" stroke="black" d="M954.31,-1424.96C959.77,-1387.03 973.23,-1293.62 979.86,-1247.54"/>
<polygon fill="black" stroke="black" points="983.36,-1247.82 981.32,-1237.43 976.43,-1246.83 983.36,-1247.82"/>
</g>
<!-- http://purl.org/oseg/ontologies/OTRL#OTRL1 -->
<g id="node9" class="node">
<title>http://purl.org/oseg/ontologies/OTRL#OTRL1</title>
<ellipse fill="none" stroke="#e377c2" cx="1166.01" cy="-577.91" rx="45.92" ry="16.03"/>
<text text-anchor="middle" x="1166.01" y="-574.21" font-family="Times,serif" font-size="14.00">OTRL1</text>
</g>
<!-- http://purl.org/oseg/ontologies/OTRL#OTRL1&#45;&gt;http://purl.org/oseg/ontologies/OTRL#OTRL -->
<g id="edge9" class="edge">
<title>http://purl.org/oseg/ontologies/OTRL#OTRL1&#45;&gt;http://purl.org/oseg/ontologies/OTRL#OTRL</title>
<path fill="none" stroke="black" d="M1127.26,-586.8C1080.8,-597.47 1003.06,-615.32 954,-626.58"/>
<polygon fill="black" stroke="black" points="952.95,-623.23 943.99,-628.88 954.52,-630.05 952.95,-623.23"/>
</g>
<!-- http://purl.org/oseg/ontologies/OTRL#OTRL6 -->
<g id="node10" class="node">
<title>http://purl.org/oseg/ontologies/OTRL#OTRL6</title>
<ellipse fill="none" stroke="#e377c2" cx="745.94" cy="-426.77" rx="45.92" ry="16.03"/>
<text text-anchor="middle" x="745.94" y="-423.07" font-family="Times,serif" font-size="14.00">OTRL6</text>
</g>
<!-- http://purl.org/oseg/ontologies/OTRL#OTRL6&#45;&gt;http://purl.org/oseg/ontologies/OTRL#OTRL -->
<g id="edge38" class="edge">
<title>http://purl.org/oseg/ontologies/OTRL#OTRL6&#45;&gt;http://purl.org/oseg/ontologies/OTRL#OTRL</title>
<path fill="none" stroke="black" d="M758.2,-442.56C786.61,-479.16 857.07,-569.93 890.67,-613.22"/>
<polygon fill="black" stroke="black" points="887.98,-615.46 896.88,-621.21 893.51,-611.16 887.98,-615.46"/>
</g>
<!-- http://purl.org/oseg/ontologies/OTRL#OTRL5 -->
<g id="node11" class="node">
<title>http://purl.org/oseg/ontologies/OTRL#OTRL5</title>
<ellipse fill="none" stroke="#e377c2" cx="893.09" cy="-430.82" rx="45.92" ry="16.03"/>
<text text-anchor="middle" x="893.09" y="-427.12" font-family="Times,serif" font-size="14.00">OTRL5</text>
</g>
<!-- http://purl.org/oseg/ontologies/OTRL#OTRL5&#45;&gt;http://purl.org/oseg/ontologies/OTRL#OTRL -->
<g id="edge48" class="edge">
<title>http://purl.org/oseg/ontologies/OTRL#OTRL5&#45;&gt;http://purl.org/oseg/ontologies/OTRL#OTRL</title>
<path fill="none" stroke="black" d="M894.37,-447.33C897.14,-482.99 903.68,-567.45 907.02,-610.57"/>
<polygon fill="black" stroke="black" points="903.53,-610.89 907.79,-620.59 910.51,-610.35 903.53,-610.89"/>
</g>
<!-- http://purl.org/oseg/ontologies/OTRL#ODRL3 -->
<g id="node12" class="node">
<title>http://purl.org/oseg/ontologies/OTRL#ODRL3</title>
<ellipse fill="none" stroke="#e377c2" cx="845.88" cy="-1422.3" rx="48.17" ry="16.03"/>
<text text-anchor="middle" x="845.88" y="-1418.6" font-family="Times,serif" font-size="14.00">ODRL3</text>
</g>
<!-- http://purl.org/oseg/ontologies/OTRL#ODRL3&#45;&gt;http://purl.org/oseg/ontologies/OTRL#ODRL -->
<g id="edge11" class="edge">
<title>http://purl.org/oseg/ontologies/OTRL#ODRL3&#45;&gt;http://purl.org/oseg/ontologies/OTRL#ODRL</title>
<path fill="none" stroke="black" d="M856.92,-1406.17C881.02,-1370.95 938.45,-1287.06 966.99,-1245.35"/>
<polygon fill="black" stroke="black" points="970.03,-1247.12 972.79,-1236.89 964.25,-1243.16 970.03,-1247.12"/>
</g>
<!-- http://purl.org/oseg/ontologies/OTRL#ODRL2 -->
<g id="node13" class="node">
<title>http://purl.org/oseg/ontologies/OTRL#ODRL2</title>
<ellipse fill="none" stroke="#e377c2" cx="1129.21" cy="-1441.92" rx="48.17" ry="16.03"/>
<text text-anchor="middle" x="1129.21" y="-1438.22" font-family="Times,serif" font-size="14.00">ODRL2</text>
</g>
<!-- http://purl.org/oseg/ontologies/OTRL#ODRL2&#45;&gt;http://purl.org/oseg/ontologies/OTRL#ODRL -->
<g id="edge34" class="edge">
<title>http://purl.org/oseg/ontologies/OTRL#ODRL2&#45;&gt;http://purl.org/oseg/ontologies/OTRL#ODRL</title>
<path fill="none" stroke="black" d="M1118.75,-1426.03C1093.64,-1387.9 1029.83,-1291.02 999.79,-1245.41"/>
<polygon fill="black" stroke="black" points="1002.68,-1243.43 994.26,-1237 996.84,-1247.28 1002.68,-1243.43"/>
</g>
<!-- http://schema.org/Text -->
<g id="node14" class="node">
<title>http://schema.org/Text</title>
<ellipse fill="none" stroke="#e377c2" cx="1133.26" cy="-940.51" rx="74.91" ry="16.03"/>
<text text-anchor="middle" x="1133.26" y="-936.81" font-family="Times,serif" font-size="14.00">schema:Text</text>
</g>
<!-- http://purl.org/oseg/ontologies/OTRL#Odrl4 -->
<g id="node15" class="node">
<title>http://purl.org/oseg/ontologies/OTRL#Odrl4</title>
<ellipse fill="none" stroke="#e377c2" cx="829.71" cy="-1572.1" rx="40.11" ry="16.03"/>
<text text-anchor="middle" x="829.71" y="-1568.4" font-family="Times,serif" font-size="14.00">Odrl4</text>
</g>
<!-- http://purl.org/oseg/ontologies/OTRL#Odrl4&#45;&gt;http://purl.org/oseg/ontologies/OTRL#ODRL4 -->
<g id="edge12" class="edge">
<title>http://purl.org/oseg/ontologies/OTRL#Odrl4&#45;&gt;http://purl.org/oseg/ontologies/OTRL#ODRL4</title>
<path fill="none" stroke="black" d="M849.69,-1557.77C873.96,-1535.51 914.12,-1492.76 936.27,-1465.71"/>
<polygon fill="black" stroke="black" points="939.04,-1467.86 942.53,-1457.86 933.56,-1463.49 939.04,-1467.86"/>
<text text-anchor="middle" x="812.98" y="-1515.54" font-family="Times,serif" font-size="14.00">schema:supersededBy</text>
</g>
<!-- http://purl.org/oseg/ontologies/OTRL#Odrl4&#45;&gt;http://purl.org/oseg/ontologies/OTRL#ODRL4 -->
<g id="edge35" class="edge">
<title>http://purl.org/oseg/ontologies/OTRL#Odrl4&#45;&gt;http://purl.org/oseg/ontologies/OTRL#ODRL4</title>
<path fill="none" stroke="black" d="M838.78,-1556.21C856.67,-1532.92 896.49,-1489.77 923.84,-1463.5"/>
<polygon fill="black" stroke="black" points="926.32,-1465.97 931.2,-1456.57 921.52,-1460.88 926.32,-1465.97"/>
<text text-anchor="middle" x="838.81" y="-1498.65" font-family="Times,serif" font-size="14.00">owl:sameAs</text>
</g>
<!-- http://purl.org/oseg/ontologies/OTRL -->
<g id="node16" class="node">
<title>http://purl.org/oseg/ontologies/OTRL</title>
<ellipse fill="none" stroke="#e377c2" cx="1347.61" cy="-1041.33" rx="60.62" ry="16.03"/>
<text text-anchor="middle" x="1347.61" y="-1037.63" font-family="Times,serif" font-size="14.00">ns1:OTRL</text>
</g>
<!-- http://purl.org/oseg/ontologies/OTRL&#45;&gt;http://purl.org/oseg/ontologies/OTRL -->
<g id="edge25" class="edge">
<title>http://purl.org/oseg/ontologies/OTRL&#45;&gt;http://purl.org/oseg/ontologies/OTRL</title>
<path fill="none" stroke="black" d="M1403.21,-1047.96C1416.54,-1047.44 1426.42,-1045.23 1426.42,-1041.33 1426.42,-1038.49 1421.2,-1036.55 1413.24,-1035.5"/>
<polygon fill="black" stroke="black" points="1413.46,-1032.01 1403.21,-1034.7 1412.9,-1038.98 1413.46,-1032.01"/>
<text text-anchor="middle" x="1477.92" y="-1037.63" font-family="Times,serif" font-size="14.00">owl:versionIRI</text>
</g>
<!-- https://www.gnu.org/licenses/gpl&#45;3.0.txt -->
<g id="node18" class="node">
<title>https://www.gnu.org/licenses/gpl&#45;3.0.txt</title>
<ellipse fill="none" stroke="#e377c2" cx="1506.66" cy="-1017.56" rx="85.62" ry="16.03"/>
<text text-anchor="middle" x="1506.66" y="-1013.86" font-family="Times,serif" font-size="14.00">ns2:gpl&#45;3.0.txt</text>
</g>
<!-- http://purl.org/oseg/ontologies/OTRL&#45;&gt;https://www.gnu.org/licenses/gpl&#45;3.0.txt -->
<g id="edge30" class="edge">
<title>http://purl.org/oseg/ontologies/OTRL&#45;&gt;https://www.gnu.org/licenses/gpl&#45;3.0.txt</title>
<path fill="none" stroke="black" d="M1407.8,-1038.96C1421.21,-1037.22 1435.41,-1035.1 1448.73,-1032.84"/>
<polygon fill="black" stroke="black" points="1449.47,-1036.26 1458.71,-1031.08 1448.26,-1029.36 1449.47,-1036.26"/>
<text text-anchor="middle" x="1393.26" y="-1039.7" font-family="Times,serif" font-size="14.00">cc:license</text>
</g>
<!-- http://purl.org/oseg/ontologies/OTRL&#45;&gt;https://www.gnu.org/licenses/gpl&#45;3.0.txt -->
<g id="edge36" class="edge">
<title>http://purl.org/oseg/ontologies/OTRL&#45;&gt;https://www.gnu.org/licenses/gpl&#45;3.0.txt</title>
<path fill="none" stroke="black" d="M1388.51,-1029.13C1396.99,-1027.5 1406.25,-1025.89 1415.74,-1024.37"/>
<polygon fill="black" stroke="black" points="1416.33,-1027.83 1425.67,-1022.84 1415.26,-1020.91 1416.33,-1027.83"/>
<text text-anchor="middle" x="1345.62" y="-1015.55" font-family="Times,serif" font-size="14.00">dcterms:license</text>
</g>
<!-- http://purl.org/oseg/ontologies/OTRL#exitCriteria -->
<g id="node17" class="node">
<title>http://purl.org/oseg/ontologies/OTRL#exitCriteria</title>
<ellipse fill="none" stroke="#e377c2" cx="868.74" cy="-943.4" rx="70.01" ry="16.03"/>
<text text-anchor="middle" x="868.74" y="-939.7" font-family="Times,serif" font-size="14.00">exitCriteria</text>
</g>
<!-- http://purl.org/oseg/ontologies/OTRL#exitCriteria&#45;&gt;http://purl.org/oseg/ontologies/OTRL#OTRL -->
<g id="edge43" class="edge">
<title>http://purl.org/oseg/ontologies/OTRL#exitCriteria&#45;&gt;http://purl.org/oseg/ontologies/OTRL#OTRL</title>
<path fill="none" stroke="black" d="M870.91,-926.92C877.52,-876.72 897.43,-725.34 905.55,-663.57"/>
<polygon fill="black" stroke="black" points="909.04,-663.83 906.88,-653.46 902.1,-662.92 909.04,-663.83"/>
<text text-anchor="middle" x="802.23" y="-799.05" font-family="Times,serif" font-size="14.00">schema:domainIncludes</text>
</g>
<!-- http://purl.org/oseg/ontologies/OTRL#exitCriteria&#45;&gt;http://purl.org/oseg/ontologies/OTRL#ODRL -->
<g id="edge46" class="edge">
<title>http://purl.org/oseg/ontologies/OTRL#exitCriteria&#45;&gt;http://purl.org/oseg/ontologies/OTRL#ODRL</title>
<path fill="none" stroke="black" d="M875.59,-959.93C894.88,-1006.52 949.8,-1139.11 973.06,-1195.3"/>
<polygon fill="black" stroke="black" points="969.97,-1196.96 977.03,-1204.86 976.43,-1194.28 969.97,-1196.96"/>
<text text-anchor="middle" x="838.33" y="-1081.41" font-family="Times,serif" font-size="14.00">schema:domainIncludes</text>
</g>
<!-- http://purl.org/oseg/ontologies/OTRL#exitCriteria&#45;&gt;http://schema.org/Text -->
<g id="edge7" class="edge">
<title>http://purl.org/oseg/ontologies/OTRL#exitCriteria&#45;&gt;http://schema.org/Text</title>
<path fill="none" stroke="black" d="M938.94,-942.63C972.37,-942.27 1012.65,-941.83 1047.84,-941.44"/>
<polygon fill="black" stroke="black" points="1048.14,-944.94 1058.11,-941.33 1048.07,-937.94 1048.14,-944.94"/>
<text text-anchor="middle" x="972.39" y="-945.84" font-family="Times,serif" font-size="14.00">range</text>
</g>
<!-- http://purl.org/oseg/ontologies/OTRL#goal -->
<g id="node19" class="node">
<title>http://purl.org/oseg/ontologies/OTRL#goal</title>
<ellipse fill="none" stroke="#e377c2" cx="981.98" cy="-923.59" rx="33.47" ry="16.03"/>
<text text-anchor="middle" x="981.98" y="-919.89" font-family="Times,serif" font-size="14.00">goal</text>
</g>
<!-- http://purl.org/oseg/ontologies/OTRL#goal&#45;&gt;http://purl.org/oseg/ontologies/OTRL#OTRL -->
<g id="edge13" class="edge">
<title>http://purl.org/oseg/ontologies/OTRL#goal&#45;&gt;http://purl.org/oseg/ontologies/OTRL#OTRL</title>
<path fill="none" stroke="black" d="M977.85,-907.35C965.8,-859.96 930.57,-721.48 915.75,-663.22"/>
<polygon fill="black" stroke="black" points="919.09,-662.14 913.23,-653.31 912.3,-663.87 919.09,-662.14"/>
<text text-anchor="middle" x="860.8" y="-774.09" font-family="Times,serif" font-size="14.00">schema:domainIncludes</text>
</g>
<!-- http://purl.org/oseg/ontologies/OTRL#goal&#45;&gt;http://purl.org/oseg/ontologies/OTRL#ODRL -->
<g id="edge18" class="edge">
<title>http://purl.org/oseg/ontologies/OTRL#goal&#45;&gt;http://purl.org/oseg/ontologies/OTRL#ODRL</title>
<path fill="none" stroke="black" d="M982.07,-940C982.36,-988.94 983.19,-1134.22 983.54,-1194.39"/>
<polygon fill="black" stroke="black" points="980.04,-1194.62 983.6,-1204.59 987.04,-1194.57 980.04,-1194.62"/>
<text text-anchor="middle" x="896.81" y="-1056" font-family="Times,serif" font-size="14.00">schema:domainIncludes</text>
</g>
<!-- http://purl.org/oseg/ontologies/OTRL#goal&#45;&gt;http://schema.org/Text -->
<g id="edge29" class="edge">
<title>http://purl.org/oseg/ontologies/OTRL#goal&#45;&gt;http://schema.org/Text</title>
<path fill="none" stroke="black" d="M1014.43,-927.22C1026.78,-928.6 1041.43,-930.24 1056.16,-931.89"/>
<polygon fill="black" stroke="black" points="1056.01,-935.39 1066.34,-933.03 1056.79,-928.44 1056.01,-935.39"/>
<text text-anchor="middle" x="1035.3" y="-918.35" font-family="Times,serif" font-size="14.00">range</text>
</g>
<!-- http://purl.org/oseg/ontologies/OTRL#Otrl1 -->
<g id="node20" class="node">
<title>http://purl.org/oseg/ontologies/OTRL#Otrl1</title>
<ellipse fill="none" stroke="black" cx="1592.12" cy="-472.09" rx="231.45" ry="16.03"/>
<text text-anchor="middle" x="1592.12" y="-468.39" font-family="Times,serif" font-size="14.00">http://purl.org/oseg/ontologies/OTRL#Otrl1</text>
</g>
<!-- http://purl.org/oseg/ontologies/OTRL#Otrl1&#45;&gt;http://purl.org/oseg/ontologies/OTRL#OTRL1 -->
<g id="edge1" class="edge">
<title>http://purl.org/oseg/ontologies/OTRL#Otrl1&#45;&gt;http://purl.org/oseg/ontologies/OTRL#OTRL1</title>
<path fill="none" stroke="black" d="M1508.4,-487.25C1417.74,-507.65 1276.83,-543.06 1207.46,-563.24"/>
<polygon fill="black" stroke="black" points="1206.36,-559.92 1197.76,-566.1 1208.34,-566.63 1206.36,-559.92"/>
<text text-anchor="middle" x="1315.43" y="-529.05" font-family="Times,serif" font-size="14.00">owl:sameAs</text>
</g>
<!-- http://purl.org/oseg/ontologies/OTRL#Otrl1&#45;&gt;http://purl.org/oseg/ontologies/OTRL#OTRL1 -->
<g id="edge26" class="edge">
<title>http://purl.org/oseg/ontologies/OTRL#Otrl1&#45;&gt;http://purl.org/oseg/ontologies/OTRL#OTRL1</title>
<path fill="none" stroke="black" d="M1545.96,-488.12C1466.11,-511.08 1302.72,-551.71 1218.61,-569.57"/>
<polygon fill="black" stroke="black" points="1217.82,-566.16 1208.75,-571.64 1219.26,-573.01 1217.82,-566.16"/>
<text text-anchor="middle" x="1462.29" y="-532.65" font-family="Times,serif" font-size="14.00">schema:supersededBy</text>
</g>
<!-- http://purl.org/oseg/ontologies/OTRL#Otrl2 -->
<g id="node21" class="node">
<title>http://purl.org/oseg/ontologies/OTRL#Otrl2</title>
<ellipse fill="none" stroke="black" cx="354.49" cy="-245.71" rx="231.45" ry="16.03"/>
<text text-anchor="middle" x="354.49" y="-242.01" font-family="Times,serif" font-size="14.00">http://purl.org/oseg/ontologies/OTRL#Otrl2</text>
</g>
<!-- http://purl.org/oseg/ontologies/OTRL#Otrl2&#45;&gt;http://purl.org/oseg/ontologies/OTRL#OTRL2 -->
<g id="edge2" class="edge">
<title>http://purl.org/oseg/ontologies/OTRL#Otrl2&#45;&gt;http://purl.org/oseg/ontologies/OTRL#OTRL2</title>
<path fill="none" stroke="black" d="M370.2,-262.24C423.56,-310.29 598,-448.98 670.05,-501.06"/>
<polygon fill="black" stroke="black" points="668.15,-504 678.32,-506.98 672.22,-498.31 668.15,-504"/>
<text text-anchor="middle" x="440.13" y="-385.45" font-family="Times,serif" font-size="14.00">schema:supersededBy</text>
</g>
<!-- http://purl.org/oseg/ontologies/OTRL#Otrl2&#45;&gt;http://purl.org/oseg/ontologies/OTRL#OTRL2 -->
<g id="edge3" class="edge">
<title>http://purl.org/oseg/ontologies/OTRL#Otrl2&#45;&gt;http://purl.org/oseg/ontologies/OTRL#OTRL2</title>
<path fill="none" stroke="black" d="M380.89,-261.99C446.86,-309.06 617.7,-444.56 679.17,-498.56"/>
<polygon fill="black" stroke="black" points="676.98,-501.29 686.77,-505.32 681.63,-496.06 676.98,-501.29"/>
<text text-anchor="middle" x="487.53" y="-369.07" font-family="Times,serif" font-size="14.00">owl:sameAs</text>
</g>
<!-- http://purl.org/oseg/ontologies/OTRL#Otrl6 -->
<g id="node22" class="node">
<title>http://purl.org/oseg/ontologies/OTRL#Otrl6</title>
<ellipse fill="none" stroke="black" cx="595.05" cy="-15.83" rx="231.45" ry="16.03"/>
<text text-anchor="middle" x="595.05" y="-12.13" font-family="Times,serif" font-size="14.00">http://purl.org/oseg/ontologies/OTRL#Otrl6</text>
</g>
<!-- http://purl.org/oseg/ontologies/OTRL#Otrl6&#45;&gt;http://purl.org/oseg/ontologies/OTRL#OTRL6 -->
<g id="edge4" class="edge">
<title>http://purl.org/oseg/ontologies/OTRL#Otrl6&#45;&gt;http://purl.org/oseg/ontologies/OTRL#OTRL6</title>
<path fill="none" stroke="black" d="M598.08,-32.14C615.94,-95.37 699.75,-324.37 732.83,-401.34"/>
<polygon fill="black" stroke="black" points="729.74,-403.01 736.97,-410.76 736.15,-400.2 729.74,-403.01"/>
<text text-anchor="middle" x="585.46" y="-205.54" font-family="Times,serif" font-size="14.00">schema:supersededBy</text>
</g>
<!-- http://purl.org/oseg/ontologies/OTRL#Otrl6&#45;&gt;http://purl.org/oseg/ontologies/OTRL#OTRL6 -->
<g id="edge39" class="edge">
<title>http://purl.org/oseg/ontologies/OTRL#Otrl6&#45;&gt;http://purl.org/oseg/ontologies/OTRL#OTRL6</title>
<path fill="none" stroke="black" d="M604.19,-32.21C632.58,-95.3 716.25,-322.67 739.96,-400.47"/>
<polygon fill="black" stroke="black" points="736.71,-401.81 742.89,-410.42 743.42,-399.84 736.71,-401.81"/>
<text text-anchor="middle" x="714.57" y="-220.14" font-family="Times,serif" font-size="14.00">owl:sameAs</text>
</g>
<!-- http://purl.org/oseg/ontologies/OTRL#Odrl3Star -->
<g id="node23" class="node">
<title>http://purl.org/oseg/ontologies/OTRL#Odrl3Star</title>
<ellipse fill="none" stroke="black" cx="289.98" cy="-1539.2" rx="255.03" ry="16.03"/>
<text text-anchor="middle" x="289.98" y="-1535.5" font-family="Times,serif" font-size="14.00">http://purl.org/oseg/ontologies/OTRL#Odrl3Star</text>
</g>
<!-- http://purl.org/oseg/ontologies/OTRL#Odrl3Star&#45;&gt;http://purl.org/oseg/ontologies/OTRL#ODRL3Star -->
<g id="edge5" class="edge">
<title>http://purl.org/oseg/ontologies/OTRL#Odrl3Star&#45;&gt;http://purl.org/oseg/ontologies/OTRL#ODRL3Star</title>
<path fill="none" stroke="black" d="M329.25,-1522.98C414.61,-1482.1 615.54,-1375.86 693.01,-1330.54"/>
<polygon fill="black" stroke="black" points="695.01,-1333.43 701.83,-1325.33 691.44,-1327.4 695.01,-1333.43"/>
<text text-anchor="middle" x="468.63" y="-1430.56" font-family="Times,serif" font-size="14.00">owl:sameAs</text>
</g>
<!-- http://purl.org/oseg/ontologies/OTRL#Odrl3Star&#45;&gt;http://purl.org/oseg/ontologies/OTRL#ODRL3Star -->
<g id="edge14" class="edge">
<title>http://purl.org/oseg/ontologies/OTRL#Odrl3Star&#45;&gt;http://purl.org/oseg/ontologies/OTRL#ODRL3Star</title>
<path fill="none" stroke="black" d="M313.63,-1522.89C383.42,-1481.25 589.17,-1372.24 680.13,-1328.31"/>
<polygon fill="black" stroke="black" points="681.84,-1331.38 689.34,-1323.9 678.81,-1325.06 681.84,-1331.38"/>
<text text-anchor="middle" x="416.88" y="-1414.4" font-family="Times,serif" font-size="14.00">schema:supersededBy</text>
</g>
<!-- http://purl.org/oseg/ontologies/OTRL#Otrl5 -->
<g id="node24" class="node">
<title>http://purl.org/oseg/ontologies/OTRL#Otrl5</title>
<ellipse fill="none" stroke="black" cx="890.74" cy="-383.62" rx="231.45" ry="16.03"/>
<text text-anchor="middle" x="890.74" y="-379.92" font-family="Times,serif" font-size="14.00">http://purl.org/oseg/ontologies/OTRL#Otrl5</text>
</g>
<!-- http://purl.org/oseg/ontologies/OTRL#Otrl5&#45;&gt;http://purl.org/oseg/ontologies/OTRL#OTRL5 -->
<g id="edge6" class="edge">
<title>http://purl.org/oseg/ontologies/OTRL#Otrl5&#45;&gt;http://purl.org/oseg/ontologies/OTRL#OTRL5</title>
<path fill="none" stroke="black" d="M885.11,-399.92C885.06,-401.4 885.05,-402.92 885.07,-404.45"/>
<polygon fill="black" stroke="black" points="881.59,-404.81 885.79,-414.53 888.57,-404.31 881.59,-404.81"/>
<text text-anchor="middle" x="842.59" y="-405.98" font-family="Times,serif" font-size="14.00">owl:sameAs</text>
</g>
<!-- http://purl.org/oseg/ontologies/OTRL#Otrl5&#45;&gt;http://purl.org/oseg/ontologies/OTRL#OTRL5 -->
<g id="edge19" class="edge">
<title>http://purl.org/oseg/ontologies/OTRL#Otrl5&#45;&gt;http://purl.org/oseg/ontologies/OTRL#OTRL5</title>
<path fill="none" stroke="black" d="M898.06,-400.07C898.22,-401.37 898.36,-402.71 898.47,-404.07"/>
<polygon fill="black" stroke="black" points="894.98,-404.5 898.72,-414.41 901.98,-404.33 894.98,-404.5"/>
<text text-anchor="middle" x="978.27" y="-405.87" font-family="Times,serif" font-size="14.00">schema:supersededBy</text>
</g>
<!-- http://purl.org/oseg/ontologies/OTRL#Otrl -->
<g id="node25" class="node">
<title>http://purl.org/oseg/ontologies/OTRL#Otrl</title>
<ellipse fill="none" stroke="black" cx="1317.83" cy="-431.16" rx="224.72" ry="16.03"/>
<text text-anchor="middle" x="1317.83" y="-427.46" font-family="Times,serif" font-size="14.00">http://purl.org/oseg/ontologies/OTRL#Otrl</text>
</g>
<!-- http://purl.org/oseg/ontologies/OTRL#Otrl&#45;&gt;http://purl.org/oseg/ontologies/OTRL#OTRL -->
<g id="edge8" class="edge">
<title>http://purl.org/oseg/ontologies/OTRL#Otrl&#45;&gt;http://purl.org/oseg/ontologies/OTRL#OTRL</title>
<path fill="none" stroke="black" d="M1276.76,-447.16C1194.26,-484.7 1010.3,-577.43 938.52,-617.82"/>
<polygon fill="black" stroke="black" points="936.5,-614.94 929.55,-622.93 939.97,-621.02 936.5,-614.94"/>
<text text-anchor="middle" x="1027.64" y="-536.29" font-family="Times,serif" font-size="14.00">schema:supersededBy</text>
</g>
<!-- http://purl.org/oseg/ontologies/OTRL#Otrl&#45;&gt;http://purl.org/oseg/ontologies/OTRL#OTRL -->
<g id="edge42" class="edge">
<title>http://purl.org/oseg/ontologies/OTRL#Otrl&#45;&gt;http://purl.org/oseg/ontologies/OTRL#OTRL</title>
<path fill="none" stroke="black" d="M1293.22,-447.49C1224.72,-486.56 1031.59,-583.98 948.18,-621.79"/>
<polygon fill="black" stroke="black" points="946.5,-618.71 938.81,-625.99 949.36,-625.1 946.5,-618.71"/>
<text text-anchor="middle" x="1163.2" y="-538.44" font-family="Times,serif" font-size="14.00">owl:sameAs</text>
</g>
<!-- http://purl.org/oseg/ontologies/OTRL#Otrl4 -->
<g id="node26" class="node">
<title>http://purl.org/oseg/ontologies/OTRL#Otrl4</title>
<ellipse fill="none" stroke="black" cx="230.94" cy="-572.78" rx="231.45" ry="16.03"/>
<text text-anchor="middle" x="230.94" y="-569.08" font-family="Times,serif" font-size="14.00">http://purl.org/oseg/ontologies/OTRL#Otrl4</text>
</g>
<!-- http://purl.org/oseg/ontologies/OTRL#Otrl4&#45;&gt;http://purl.org/oseg/ontologies/OTRL#OTRL4 -->
<g id="edge10" class="edge">
<title>http://purl.org/oseg/ontologies/OTRL#Otrl4&#45;&gt;http://purl.org/oseg/ontologies/OTRL#OTRL4</title>
<path fill="none" stroke="black" d="M296.95,-588.4C382.16,-604.41 528.95,-627.68 608.81,-637.73"/>
<polygon fill="black" stroke="black" points="608.8,-641.26 619.15,-639.01 609.65,-634.31 608.8,-641.26"/>
<text text-anchor="middle" x="410.38" y="-616.87" font-family="Times,serif" font-size="14.00">owl:sameAs</text>
</g>
<!-- http://purl.org/oseg/ontologies/OTRL#Otrl4&#45;&gt;http://purl.org/oseg/ontologies/OTRL#OTRL4 -->
<g id="edge47" class="edge">
<title>http://purl.org/oseg/ontologies/OTRL#Otrl4&#45;&gt;http://purl.org/oseg/ontologies/OTRL#OTRL4</title>
<path fill="none" stroke="black" d="M356.16,-586.49C443.8,-599.28 555.92,-617.74 617.95,-630"/>
<polygon fill="black" stroke="black" points="617.34,-633.45 627.83,-631.99 618.72,-626.58 617.34,-633.45"/>
<text text-anchor="middle" x="407.05" y="-597.04" font-family="Times,serif" font-size="14.00">schema:supersededBy</text>
</g>
<!-- http://purl.org/oseg/ontologies/OTRL#Odrl3 -->
<g id="node27" class="node">
<title>http://purl.org/oseg/ontologies/OTRL#Odrl3</title>
<ellipse fill="none" stroke="black" cx="658" cy="-1838.31" rx="233.19" ry="16.03"/>
<text text-anchor="middle" x="658" y="-1834.61" font-family="Times,serif" font-size="14.00">http://purl.org/oseg/ontologies/OTRL#Odrl3</text>
</g>
<!-- http://purl.org/oseg/ontologies/OTRL#Odrl3&#45;&gt;http://purl.org/oseg/ontologies/OTRL#ODRL3 -->
<g id="edge15" class="edge">
<title>http://purl.org/oseg/ontologies/OTRL#Odrl3&#45;&gt;http://purl.org/oseg/ontologies/OTRL#ODRL3</title>
<path fill="none" stroke="black" d="M668.62,-1821.91C702.86,-1758.07 807.75,-1526.2 837.93,-1448.13"/>
<polygon fill="black" stroke="black" points="841.28,-1449.17 841.53,-1438.58 834.73,-1446.7 841.28,-1449.17"/>
<text text-anchor="middle" x="710.78" y="-1638.82" font-family="Times,serif" font-size="14.00">owl:sameAs</text>
</g>
<!-- http://purl.org/oseg/ontologies/OTRL#Odrl3&#45;&gt;http://purl.org/oseg/ontologies/OTRL#ODRL3 -->
<g id="edge40" class="edge">
<title>http://purl.org/oseg/ontologies/OTRL#Odrl3&#45;&gt;http://purl.org/oseg/ontologies/OTRL#ODRL3</title>
<path fill="none" stroke="black" d="M662.4,-1821.88C685.78,-1757.8 790.77,-1524.72 830.68,-1447.4"/>
<polygon fill="black" stroke="black" points="833.88,-1448.84 835.44,-1438.36 827.68,-1445.58 833.88,-1448.84"/>
<text text-anchor="middle" x="826.54" y="-1638.44" font-family="Times,serif" font-size="14.00">schema:supersededBy</text>
</g>
<!-- http://purl.org/oseg/ontologies/OTRL#Odrl1 -->
<g id="node28" class="node">
<title>http://purl.org/oseg/ontologies/OTRL#Odrl1</title>
<ellipse fill="none" stroke="black" cx="1637.91" cy="-1431.81" rx="233.19" ry="16.03"/>
<text text-anchor="middle" x="1637.91" y="-1428.11" font-family="Times,serif" font-size="14.00">http://purl.org/oseg/ontologies/OTRL#Odrl1</text>
</g>
<!-- http://purl.org/oseg/ontologies/OTRL#Odrl1&#45;&gt;http://purl.org/oseg/ontologies/OTRL#ODRL1 -->
<g id="edge17" class="edge">
<title>http://purl.org/oseg/ontologies/OTRL#Odrl1&#45;&gt;http://purl.org/oseg/ontologies/OTRL#ODRL1</title>
<path fill="none" stroke="black" d="M1604.93,-1415.64C1533.26,-1385.9 1363.09,-1324.02 1279.34,-1297.04"/>
<polygon fill="black" stroke="black" points="1280.4,-1293.7 1269.81,-1294 1278.28,-1300.37 1280.4,-1293.7"/>
<text text-anchor="middle" x="1399.63" y="-1345.14" font-family="Times,serif" font-size="14.00">owl:sameAs</text>
</g>
<!-- http://purl.org/oseg/ontologies/OTRL#Odrl1&#45;&gt;http://purl.org/oseg/ontologies/OTRL#ODRL1 -->
<g id="edge27" class="edge">
<title>http://purl.org/oseg/ontologies/OTRL#Odrl1&#45;&gt;http://purl.org/oseg/ontologies/OTRL#ODRL1</title>
<path fill="none" stroke="black" d="M1580.13,-1416C1494.87,-1388.05 1337.88,-1330.88 1267.22,-1301.8"/>
<polygon fill="black" stroke="black" points="1268.42,-1298.51 1257.84,-1297.89 1265.73,-1304.97 1268.42,-1298.51"/>
<text text-anchor="middle" x="1343.67" y="-1362.7" font-family="Times,serif" font-size="14.00">schema:supersededBy</text>
</g>
<!-- http://purl.org/oseg/ontologies/OTRL#Odrl -->
<g id="node29" class="node">
<title>http://purl.org/oseg/ontologies/OTRL#Odrl</title>
<ellipse fill="none" stroke="black" cx="1313.08" cy="-1509.55" rx="226.96" ry="16.03"/>
<text text-anchor="middle" x="1313.08" y="-1505.85" font-family="Times,serif" font-size="14.00">http://purl.org/oseg/ontologies/OTRL#Odrl</text>
</g>
<!-- http://purl.org/oseg/ontologies/OTRL#Odrl&#45;&gt;http://purl.org/oseg/ontologies/OTRL#ODRL -->
<g id="edge23" class="edge">
<title>http://purl.org/oseg/ontologies/OTRL#Odrl&#45;&gt;http://purl.org/oseg/ontologies/OTRL#ODRL</title>
<path fill="none" stroke="black" d="M1299.24,-1493.29C1249.76,-1443.85 1081.62,-1296.19 1013.07,-1241.5"/>
<polygon fill="black" stroke="black" points="1014.86,-1238.46 1004.84,-1235.01 1010.52,-1243.95 1014.86,-1238.46"/>
<text text-anchor="middle" x="1113.66" y="-1356.2" font-family="Times,serif" font-size="14.00">owl:sameAs</text>
</g>
<!-- http://purl.org/oseg/ontologies/OTRL#Odrl&#45;&gt;http://purl.org/oseg/ontologies/OTRL#ODRL -->
<g id="edge45" class="edge">
<title>http://purl.org/oseg/ontologies/OTRL#Odrl&#45;&gt;http://purl.org/oseg/ontologies/OTRL#ODRL</title>
<path fill="none" stroke="black" d="M1289.12,-1493.29C1227.03,-1444.5 1062.09,-1300.03 1004.11,-1243.69"/>
<polygon fill="black" stroke="black" points="1006.55,-1241.18 996.97,-1236.66 1001.64,-1246.17 1006.55,-1241.18"/>
<text text-anchor="middle" x="1066.62" y="-1372.29" font-family="Times,serif" font-size="14.00">schema:supersededBy</text>
</g>
<!-- http://purl.org/oseg/ontologies/OTRL#Odrl5 -->
<g id="node30" class="node">
<title>http://purl.org/oseg/ontologies/OTRL#Odrl5</title>
<ellipse fill="none" stroke="black" cx="808.09" cy="-1617.59" rx="233.19" ry="16.03"/>
<text text-anchor="middle" x="808.09" y="-1613.89" font-family="Times,serif" font-size="14.00">http://purl.org/oseg/ontologies/OTRL#Odrl5</text>
</g>
<!-- http://purl.org/oseg/ontologies/OTRL#Odrl5&#45;&gt;http://purl.org/oseg/ontologies/OTRL#Odrl4 -->
<g id="edge24" class="edge">
<title>http://purl.org/oseg/ontologies/OTRL#Odrl5&#45;&gt;http://purl.org/oseg/ontologies/OTRL#Odrl4</title>
<path fill="none" stroke="black" d="M823.29,-1601.17C823.82,-1600.15 824.35,-1599.1 824.85,-1598.05"/>
<polygon fill="black" stroke="black" points="828.18,-1599.17 828.81,-1588.6 821.72,-1596.47 828.18,-1599.17"/>
<text text-anchor="middle" x="781.57" y="-1588.41" font-family="Times,serif" font-size="14.00">owl:sameAs</text>
</g>
<!-- http://purl.org/oseg/ontologies/OTRL#Odrl5&#45;&gt;http://purl.org/oseg/ontologies/OTRL#Odrl4 -->
<g id="edge33" class="edge">
<title>http://purl.org/oseg/ontologies/OTRL#Odrl5&#45;&gt;http://purl.org/oseg/ontologies/OTRL#Odrl4</title>
<path fill="none" stroke="black" d="M808.94,-1601.26C809.48,-1599.71 810.1,-1598.12 810.76,-1596.52"/>
<polygon fill="black" stroke="black" points="813.95,-1597.98 815.08,-1587.44 807.63,-1594.97 813.95,-1597.98"/>
<text text-anchor="middle" x="889.85" y="-1587.69" font-family="Times,serif" font-size="14.00">schema:supersededBy</text>
</g>
<!-- http://purl.org/oseg/ontologies/OTRL#Otrl3 -->
<g id="node31" class="node">
<title>http://purl.org/oseg/ontologies/OTRL#Otrl3</title>
<ellipse fill="none" stroke="black" cx="1194.84" cy="-21.51" rx="231.45" ry="16.03"/>
<text text-anchor="middle" x="1194.84" y="-17.81" font-family="Times,serif" font-size="14.00">http://purl.org/oseg/ontologies/OTRL#Otrl3</text>
</g>
<!-- http://purl.org/oseg/ontologies/OTRL#Otrl3&#45;&gt;http://purl.org/oseg/ontologies/OTRL#OTRL3 -->
<g id="edge28" class="edge">
<title>http://purl.org/oseg/ontologies/OTRL#Otrl3&#45;&gt;http://purl.org/oseg/ontologies/OTRL#OTRL3</title>
<path fill="none" stroke="black" d="M1185.32,-37.97C1155.8,-100.84 1068.67,-326.04 1043.79,-403.16"/>
<polygon fill="black" stroke="black" points="1040.35,-402.43 1040.7,-413.02 1047.03,-404.52 1040.35,-402.43"/>
<text text-anchor="middle" x="1072.06" y="-224.36" font-family="Times,serif" font-size="14.00">owl:sameAs</text>
</g>
<!-- http://purl.org/oseg/ontologies/OTRL#Otrl3&#45;&gt;http://purl.org/oseg/ontologies/OTRL#OTRL3 -->
<g id="edge37" class="edge">
<title>http://purl.org/oseg/ontologies/OTRL#Otrl3&#45;&gt;http://purl.org/oseg/ontologies/OTRL#OTRL3</title>
<path fill="none" stroke="black" d="M1191.47,-38C1172.48,-101.06 1085.53,-326.99 1051.13,-403.63"/>
<polygon fill="black" stroke="black" points="1047.81,-402.48 1046.82,-413.03 1054.17,-405.39 1047.81,-402.48"/>
<text text-anchor="middle" x="1201.3" y="-224.62" font-family="Times,serif" font-size="14.00">schema:supersededBy</text>
</g>
<!-- http://purl.org/oseg/ontologies/OTRL#Odrl2 -->
<g id="node32" class="node">
<title>http://purl.org/oseg/ontologies/OTRL#Odrl2</title>
<ellipse fill="none" stroke="black" cx="1338.52" cy="-1825.62" rx="233.19" ry="16.03"/>
<text text-anchor="middle" x="1338.52" y="-1821.92" font-family="Times,serif" font-size="14.00">http://purl.org/oseg/ontologies/OTRL#Odrl2</text>
</g>
<!-- http://purl.org/oseg/ontologies/OTRL#Odrl2&#45;&gt;http://purl.org/oseg/ontologies/OTRL#ODRL2 -->
<g id="edge32" class="edge">
<title>http://purl.org/oseg/ontologies/OTRL#Odrl2&#45;&gt;http://purl.org/oseg/ontologies/OTRL#ODRL2</title>
<path fill="none" stroke="black" d="M1332.8,-1809.22C1305.47,-1748.79 1191.15,-1538.67 1146.74,-1466.47"/>
<polygon fill="black" stroke="black" points="1149.7,-1464.61 1141.43,-1457.98 1143.76,-1468.32 1149.7,-1464.61"/>
<text text-anchor="middle" x="1197.27" y="-1626.64" font-family="Times,serif" font-size="14.00">owl:sameAs</text>
</g>
<!-- http://purl.org/oseg/ontologies/OTRL#Odrl2&#45;&gt;http://purl.org/oseg/ontologies/OTRL#ODRL2 -->
<g id="edge44" class="edge">
<title>http://purl.org/oseg/ontologies/OTRL#Odrl2&#45;&gt;http://purl.org/oseg/ontologies/OTRL#ODRL2</title>
<path fill="none" stroke="black" d="M1326.01,-1809.09C1287.71,-1748.83 1174.12,-1540.88 1139.27,-1467.65"/>
<polygon fill="black" stroke="black" points="1142.29,-1465.83 1134.9,-1458.24 1135.94,-1468.78 1142.29,-1465.83"/>
<text text-anchor="middle" x="1152.64" y="-1642.17" font-family="Times,serif" font-size="14.00">schema:supersededBy</text>
</g>
</g>
</svg>
