<?xml version="1.0" encoding="UTF-8" standalone="no"?>
<!DOCTYPE svg PUBLIC "-//W3C//DTD SVG 1.1//EN"
 "http://www.w3.org/Graphics/SVG/1.1/DTD/svg11.dtd">
<!-- Generated by graphviz version 2.43.0 (0)
 -->
<!-- Title: G Pages: 1 -->
<svg width="524pt" height="420pt"
 viewBox="0.00 0.00 524.05 420.00" xmlns="http://www.w3.org/2000/svg" xmlns:xlink="http://www.w3.org/1999/xlink">
<g id="graph0" class="graph" transform="scale(1 1) rotate(0) translate(4 416)">
<title>G</title>
<polygon fill="white" stroke="transparent" points="-4,4 -4,-416 520.05,-416 520.05,4 -4,4"/>
<!-- http://purl.org/oseg/ontologies/OTRL#OTRL -->
<g id="node1" class="node">
<title>http://purl.org/oseg/ontologies/OTRL#OTRL</title>
<ellipse fill="none" stroke="#e377c2" cx="171.17" cy="-117.5" rx="39.7" ry="16.03"/>
<text text-anchor="middle" x="171.17" y="-113.8" font-family="Times,serif" font-size="14.00">OTRL</text>
</g>
<!-- http://www.w3.org/2002/07/owl#class -->
<g id="node3" class="node">
<title>http://www.w3.org/2002/07/owl#class</title>
<ellipse fill="none" stroke="#1f77b4" cx="187.39" cy="-174.68" rx="57.05" ry="16.03"/>
<text text-anchor="middle" x="187.39" y="-170.98" font-family="Times,serif" font-size="14.00">owl:class</text>
</g>
<!-- http://purl.org/oseg/ontologies/OTRL#OTRL&#45;&gt;http://www.w3.org/2002/07/owl#class -->
<g id="edge12" class="edge">
<title>http://purl.org/oseg/ontologies/OTRL#OTRL&#45;&gt;http://www.w3.org/2002/07/owl#class</title>
<path fill="none" stroke="black" d="M175.78,-133.73C177.07,-138.28 178.5,-143.34 179.91,-148.32"/>
<polygon fill="black" stroke="black" points="176.62,-149.54 182.72,-158.21 183.36,-147.63 176.62,-149.54"/>
<text text-anchor="middle" x="173.35" y="-144.83" font-family="Times,serif" font-size="14.00">a</text>
</g>
<!-- http://purl.org/oseg/ontologies/OTRL#ODRL -->
<g id="node2" class="node">
<title>http://purl.org/oseg/ontologies/OTRL#ODRL</title>
<ellipse fill="none" stroke="#e377c2" cx="219.68" cy="-269.42" rx="41.94" ry="16.03"/>
<text text-anchor="middle" x="219.68" y="-265.72" font-family="Times,serif" font-size="14.00">ODRL</text>
</g>
<!-- http://purl.org/oseg/ontologies/OTRL#Odrl -->
<g id="node4" class="node">
<title>http://purl.org/oseg/ontologies/OTRL#Odrl</title>
<ellipse fill="none" stroke="#e377c2" cx="220.63" cy="-333.86" rx="33.88" ry="16.03"/>
<text text-anchor="middle" x="220.63" y="-330.16" font-family="Times,serif" font-size="14.00">Odrl</text>
</g>
<!-- http://purl.org/oseg/ontologies/OTRL#Odrl&#45;&gt;http://www.w3.org/2002/07/owl#class -->
<g id="edge6" class="edge">
<title>http://purl.org/oseg/ontologies/OTRL#Odrl&#45;&gt;http://www.w3.org/2002/07/owl#class</title>
<path fill="none" stroke="black" d="M217.2,-317.42C211.45,-289.9 199.83,-234.25 192.92,-201.15"/>
<polygon fill="black" stroke="black" points="196.32,-200.34 190.85,-191.26 189.47,-201.77 196.32,-200.34"/>
<text text-anchor="middle" x="200.56" y="-248.09" font-family="Times,serif" font-size="14.00">a</text>
</g>
<!-- http://purl.org/oseg/ontologies/OTRL#Otrl3 -->
<g id="node5" class="node">
<title>http://purl.org/oseg/ontologies/OTRL#Otrl3</title>
<ellipse fill="none" stroke="#e377c2" cx="37.96" cy="-161.08" rx="38.37" ry="16.03"/>
<text text-anchor="middle" x="37.96" y="-157.38" font-family="Times,serif" font-size="14.00">Otrl3</text>
</g>
<!-- http://purl.org/oseg/ontologies/OTRL#Otrl3&#45;&gt;http://purl.org/oseg/ontologies/OTRL#OTRL -->
<g id="edge18" class="edge">
<title>http://purl.org/oseg/ontologies/OTRL#Otrl3&#45;&gt;http://purl.org/oseg/ontologies/OTRL#OTRL</title>
<path fill="none" stroke="black" d="M68.52,-151.08C86.79,-145.11 110.24,-137.44 130.11,-130.94"/>
<polygon fill="black" stroke="black" points="131.41,-134.19 139.83,-127.75 129.24,-127.54 131.41,-134.19"/>
</g>
<!-- http://purl.org/oseg/ontologies/OTRL#Otrl3&#45;&gt;http://www.w3.org/2002/07/owl#class -->
<g id="edge1" class="edge">
<title>http://purl.org/oseg/ontologies/OTRL#Otrl3&#45;&gt;http://www.w3.org/2002/07/owl#class</title>
<path fill="none" stroke="black" d="M75.67,-164.51C89.85,-165.81 106.42,-167.31 122.38,-168.76"/>
<polygon fill="black" stroke="black" points="122.48,-172.29 132.76,-169.71 123.12,-165.32 122.48,-172.29"/>
<text text-anchor="middle" x="94.53" y="-170.44" font-family="Times,serif" font-size="14.00">a</text>
</g>
<!-- http://purl.org/oseg/ontologies/OTRL#exitCriteria -->
<g id="node6" class="node">
<title>http://purl.org/oseg/ontologies/OTRL#exitCriteria</title>
<ellipse fill="none" stroke="#e377c2" cx="385.23" cy="-395.69" rx="70.01" ry="16.03"/>
<text text-anchor="middle" x="385.23" y="-391.99" font-family="Times,serif" font-size="14.00">exitCriteria</text>
</g>
<!-- http://schema.org/Text -->
<g id="node10" class="node">
<title>http://schema.org/Text</title>
<ellipse fill="none" stroke="#e377c2" cx="431.9" cy="-354.45" rx="74.91" ry="16.03"/>
<text text-anchor="middle" x="431.9" y="-350.75" font-family="Times,serif" font-size="14.00">schema:Text</text>
</g>
<!-- http://purl.org/oseg/ontologies/OTRL#exitCriteria&#45;&gt;http://schema.org/Text -->
<g id="edge27" class="edge">
<title>http://purl.org/oseg/ontologies/OTRL#exitCriteria&#45;&gt;http://schema.org/Text</title>
<path fill="none" stroke="black" d="M403.14,-379.86C404.12,-378.99 405.12,-378.11 406.12,-377.23"/>
<polygon fill="black" stroke="black" points="408.63,-379.68 413.81,-370.44 403.99,-374.44 408.63,-379.68"/>
<text text-anchor="middle" x="383.63" y="-367.34" font-family="Times,serif" font-size="14.00">range</text>
</g>
<!-- http://purl.org/oseg/ontologies/OTRL#Otrl -->
<g id="node7" class="node">
<title>http://purl.org/oseg/ontologies/OTRL#Otrl</title>
<ellipse fill="none" stroke="#e377c2" cx="410.24" cy="-100.64" rx="31.64" ry="16.03"/>
<text text-anchor="middle" x="410.24" y="-96.94" font-family="Times,serif" font-size="14.00">Otrl</text>
</g>
<!-- http://purl.org/oseg/ontologies/OTRL -->
<g id="node8" class="node">
<title>http://purl.org/oseg/ontologies/OTRL</title>
<ellipse fill="none" stroke="#e377c2" cx="334.24" cy="-163.64" rx="60.62" ry="16.03"/>
<text text-anchor="middle" x="334.24" y="-159.94" font-family="Times,serif" font-size="14.00">ns1:OTRL</text>
</g>
<!-- http://purl.org/oseg/ontologies/OTRL&#45;&gt;http://purl.org/oseg/ontologies/OTRL -->
<g id="edge19" class="edge">
<title>http://purl.org/oseg/ontologies/OTRL&#45;&gt;http://purl.org/oseg/ontologies/OTRL</title>
<path fill="none" stroke="black" d="M389.84,-170.27C403.17,-169.75 413.05,-167.54 413.05,-163.64 413.05,-160.81 407.83,-158.86 399.87,-157.81"/>
<polygon fill="black" stroke="black" points="400.09,-154.32 389.84,-157.01 399.53,-161.3 400.09,-154.32"/>
<text text-anchor="middle" x="464.55" y="-159.94" font-family="Times,serif" font-size="14.00">owl:versionIRI</text>
</g>
<!-- http://purl.org/oseg/ontologies/OTRL#Odrl1 -->
<g id="node9" class="node">
<title>http://purl.org/oseg/ontologies/OTRL#Odrl1</title>
<ellipse fill="none" stroke="#e377c2" cx="123.91" cy="-329.41" rx="40.11" ry="16.03"/>
<text text-anchor="middle" x="123.91" y="-325.71" font-family="Times,serif" font-size="14.00">Odrl1</text>
</g>
<!-- http://purl.org/oseg/ontologies/OTRL#Odrl1&#45;&gt;http://purl.org/oseg/ontologies/OTRL#ODRL -->
<g id="edge22" class="edge">
<title>http://purl.org/oseg/ontologies/OTRL#Odrl1&#45;&gt;http://purl.org/oseg/ontologies/OTRL#ODRL</title>
<path fill="none" stroke="black" d="M146.13,-315.49C158.82,-307.54 174.92,-297.45 188.83,-288.74"/>
<polygon fill="black" stroke="black" points="190.97,-291.53 197.59,-283.26 187.25,-285.6 190.97,-291.53"/>
</g>
<!-- http://purl.org/oseg/ontologies/OTRL#Odrl1&#45;&gt;http://www.w3.org/2002/07/owl#class -->
<g id="edge14" class="edge">
<title>http://purl.org/oseg/ontologies/OTRL#Odrl1&#45;&gt;http://www.w3.org/2002/07/owl#class</title>
<path fill="none" stroke="black" d="M130.59,-313.14C141.56,-286.4 163.5,-232.91 176.67,-200.8"/>
<polygon fill="black" stroke="black" points="180.06,-201.77 180.62,-191.19 173.58,-199.12 180.06,-201.77"/>
<text text-anchor="middle" x="149.13" y="-260.77" font-family="Times,serif" font-size="14.00">a</text>
</g>
<!-- http://purl.org/oseg/ontologies/OTRL#Odrl2 -->
<g id="node11" class="node">
<title>http://purl.org/oseg/ontologies/OTRL#Odrl2</title>
<ellipse fill="none" stroke="#e377c2" cx="219.02" cy="-220.83" rx="40.11" ry="16.03"/>
<text text-anchor="middle" x="219.02" y="-217.13" font-family="Times,serif" font-size="14.00">Odrl2</text>
</g>
<!-- http://purl.org/oseg/ontologies/OTRL#Odrl2&#45;&gt;http://purl.org/oseg/ontologies/OTRL#ODRL -->
<g id="edge23" class="edge">
<title>http://purl.org/oseg/ontologies/OTRL#Odrl2&#45;&gt;http://purl.org/oseg/ontologies/OTRL#ODRL</title>
<path fill="none" stroke="black" d="M219.24,-237.28C219.27,-239.02 219.29,-240.82 219.32,-242.64"/>
<polygon fill="black" stroke="black" points="215.82,-243.03 219.46,-252.99 222.82,-242.94 215.82,-243.03"/>
</g>
<!-- http://purl.org/oseg/ontologies/OTRL#Odrl2&#45;&gt;http://www.w3.org/2002/07/owl#class -->
<g id="edge4" class="edge">
<title>http://purl.org/oseg/ontologies/OTRL#Odrl2&#45;&gt;http://www.w3.org/2002/07/owl#class</title>
<path fill="none" stroke="black" d="M208.14,-204.95C206.86,-203.08 205.53,-201.15 204.2,-199.2"/>
<polygon fill="black" stroke="black" points="206.94,-197.02 198.4,-190.75 201.17,-200.98 206.94,-197.02"/>
<text text-anchor="middle" x="201.67" y="-190.88" font-family="Times,serif" font-size="14.00">a</text>
</g>
<!-- http://purl.org/oseg/ontologies/OTRL#Otrl1 -->
<g id="node12" class="node">
<title>http://purl.org/oseg/ontologies/OTRL#Otrl1</title>
<ellipse fill="none" stroke="#e377c2" cx="200.63" cy="-76.51" rx="38.37" ry="16.03"/>
<text text-anchor="middle" x="200.63" y="-72.81" font-family="Times,serif" font-size="14.00">Otrl1</text>
</g>
<!-- http://purl.org/oseg/ontologies/OTRL#Otrl1&#45;&gt;http://purl.org/oseg/ontologies/OTRL#OTRL -->
<g id="edge21" class="edge">
<title>http://purl.org/oseg/ontologies/OTRL#Otrl1&#45;&gt;http://purl.org/oseg/ontologies/OTRL#OTRL</title>
<path fill="none" stroke="black" d="M189.33,-92.24C188.97,-92.74 188.62,-93.23 188.26,-93.73"/>
<polygon fill="black" stroke="black" points="185.39,-91.72 182.4,-101.88 191.08,-95.8 185.39,-91.72"/>
</g>
<!-- http://purl.org/oseg/ontologies/OTRL#Otrl1&#45;&gt;http://www.w3.org/2002/07/owl#class -->
<g id="edge5" class="edge">
<title>http://purl.org/oseg/ontologies/OTRL#Otrl1&#45;&gt;http://www.w3.org/2002/07/owl#class</title>
<path fill="none" stroke="black" d="M198.39,-93.16C196.36,-108.2 193.34,-130.6 190.98,-148.11"/>
<polygon fill="black" stroke="black" points="187.47,-147.89 189.6,-158.27 194.41,-148.83 187.47,-147.89"/>
<text text-anchor="middle" x="190.18" y="-124.44" font-family="Times,serif" font-size="14.00">a</text>
</g>
<!-- http://purl.org/oseg/ontologies/OTRL#Otrl6 -->
<g id="node13" class="node">
<title>http://purl.org/oseg/ontologies/OTRL#Otrl6</title>
<ellipse fill="none" stroke="#e377c2" cx="299.2" cy="-73.7" rx="38.37" ry="16.03"/>
<text text-anchor="middle" x="299.2" y="-70" font-family="Times,serif" font-size="14.00">Otrl6</text>
</g>
<!-- http://purl.org/oseg/ontologies/OTRL#Otrl6&#45;&gt;http://purl.org/oseg/ontologies/OTRL#OTRL -->
<g id="edge8" class="edge">
<title>http://purl.org/oseg/ontologies/OTRL#Otrl6&#45;&gt;http://purl.org/oseg/ontologies/OTRL#OTRL</title>
<path fill="none" stroke="black" d="M269.18,-83.97C252.02,-89.84 230.26,-97.29 211.6,-103.67"/>
<polygon fill="black" stroke="black" points="210.22,-100.44 201.89,-106.99 212.48,-107.06 210.22,-100.44"/>
</g>
<!-- http://purl.org/oseg/ontologies/OTRL#Otrl6&#45;&gt;http://www.w3.org/2002/07/owl#class -->
<g id="edge15" class="edge">
<title>http://purl.org/oseg/ontologies/OTRL#Otrl6&#45;&gt;http://www.w3.org/2002/07/owl#class</title>
<path fill="none" stroke="black" d="M282.7,-88.6C264.09,-105.41 233.63,-132.92 212.16,-152.31"/>
<polygon fill="black" stroke="black" points="209.77,-149.75 204.69,-159.05 214.46,-154.95 209.77,-149.75"/>
<text text-anchor="middle" x="242.93" y="-124.26" font-family="Times,serif" font-size="14.00">a</text>
</g>
<!-- http://purl.org/oseg/ontologies/OTRL#Otrl5 -->
<g id="node14" class="node">
<title>http://purl.org/oseg/ontologies/OTRL#Otrl5</title>
<ellipse fill="none" stroke="#e377c2" cx="54.63" cy="-85.09" rx="38.37" ry="16.03"/>
<text text-anchor="middle" x="54.63" y="-81.39" font-family="Times,serif" font-size="14.00">Otrl5</text>
</g>
<!-- http://purl.org/oseg/ontologies/OTRL#Otrl5&#45;&gt;http://purl.org/oseg/ontologies/OTRL#OTRL -->
<g id="edge2" class="edge">
<title>http://purl.org/oseg/ontologies/OTRL#Otrl5&#45;&gt;http://purl.org/oseg/ontologies/OTRL#OTRL</title>
<path fill="none" stroke="black" d="M86.79,-94.03C99.69,-97.62 114.75,-101.81 128.54,-105.64"/>
<polygon fill="black" stroke="black" points="127.74,-109.05 138.31,-108.36 129.62,-102.31 127.74,-109.05"/>
</g>
<!-- http://purl.org/oseg/ontologies/OTRL#Otrl5&#45;&gt;http://www.w3.org/2002/07/owl#class -->
<g id="edge16" class="edge">
<title>http://purl.org/oseg/ontologies/OTRL#Otrl5&#45;&gt;http://www.w3.org/2002/07/owl#class</title>
<path fill="none" stroke="black" d="M75.09,-98.89C96.82,-113.56 131.43,-136.91 156.49,-153.83"/>
<polygon fill="black" stroke="black" points="154.67,-156.82 164.92,-159.51 158.58,-151.02 154.67,-156.82"/>
<text text-anchor="middle" x="111.29" y="-130.16" font-family="Times,serif" font-size="14.00">a</text>
</g>
<!-- http://purl.org/oseg/ontologies/OTRL#Otrl2 -->
<g id="node15" class="node">
<title>http://purl.org/oseg/ontologies/OTRL#Otrl2</title>
<ellipse fill="none" stroke="#e377c2" cx="118.76" cy="-25.18" rx="38.37" ry="16.03"/>
<text text-anchor="middle" x="118.76" y="-21.48" font-family="Times,serif" font-size="14.00">Otrl2</text>
</g>
<!-- http://purl.org/oseg/ontologies/OTRL#Otrl2&#45;&gt;http://purl.org/oseg/ontologies/OTRL#OTRL -->
<g id="edge9" class="edge">
<title>http://purl.org/oseg/ontologies/OTRL#Otrl2&#45;&gt;http://purl.org/oseg/ontologies/OTRL#OTRL</title>
<path fill="none" stroke="black" d="M127.89,-41.26C135.93,-55.43 147.77,-76.28 157.04,-92.6"/>
<polygon fill="black" stroke="black" points="154.17,-94.63 162.15,-101.6 160.25,-91.18 154.17,-94.63"/>
</g>
<!-- http://purl.org/oseg/ontologies/OTRL#Otrl2&#45;&gt;http://www.w3.org/2002/07/owl#class -->
<g id="edge17" class="edge">
<title>http://purl.org/oseg/ontologies/OTRL#Otrl2&#45;&gt;http://www.w3.org/2002/07/owl#class</title>
<path fill="none" stroke="black" d="M126.1,-41.18C137.96,-67.01 161.42,-118.12 175.63,-149.06"/>
<polygon fill="black" stroke="black" points="172.54,-150.71 179.89,-158.34 178.9,-147.79 172.54,-150.71"/>
<text text-anchor="middle" x="146.37" y="-83.92" font-family="Times,serif" font-size="14.00">a</text>
</g>
<!-- http://purl.org/oseg/ontologies/OTRL#goal -->
<g id="node16" class="node">
<title>http://purl.org/oseg/ontologies/OTRL#goal</title>
<ellipse fill="none" stroke="#e377c2" cx="439.78" cy="-310.5" rx="33.47" ry="16.03"/>
<text text-anchor="middle" x="439.78" y="-306.8" font-family="Times,serif" font-size="14.00">goal</text>
</g>
<!-- http://purl.org/oseg/ontologies/OTRL#goal&#45;&gt;http://schema.org/Text -->
<g id="edge3" class="edge">
<title>http://purl.org/oseg/ontologies/OTRL#goal&#45;&gt;http://schema.org/Text</title>
<path fill="none" stroke="black" d="M436.84,-326.87C436.78,-327.21 436.72,-327.55 436.66,-327.89"/>
<polygon fill="black" stroke="black" points="433.18,-327.46 434.86,-337.93 440.07,-328.7 433.18,-327.46"/>
<text text-anchor="middle" x="415.75" y="-331.18" font-family="Times,serif" font-size="14.00">range</text>
</g>
<!-- http://www.w3.org/1999/02/22&#45;rdf&#45;syntax&#45;ns#nil -->
<g id="node17" class="node">
<title>http://www.w3.org/1999/02/22&#45;rdf&#45;syntax&#45;ns#nil</title>
<ellipse fill="none" stroke="#e377c2" cx="420.24" cy="-37.64" rx="42.35" ry="16.03"/>
<text text-anchor="middle" x="420.24" y="-33.94" font-family="Times,serif" font-size="14.00">rdf:nil</text>
</g>
<!-- http://purl.org/oseg/ontologies/OTRL#Odrl4 -->
<g id="node18" class="node">
<title>http://purl.org/oseg/ontologies/OTRL#Odrl4</title>
<ellipse fill="none" stroke="#e377c2" cx="75.32" cy="-281.84" rx="40.11" ry="16.03"/>
<text text-anchor="middle" x="75.32" y="-278.14" font-family="Times,serif" font-size="14.00">Odrl4</text>
</g>
<!-- http://purl.org/oseg/ontologies/OTRL#Odrl4&#45;&gt;http://purl.org/oseg/ontologies/OTRL#ODRL -->
<g id="edge11" class="edge">
<title>http://purl.org/oseg/ontologies/OTRL#Odrl4&#45;&gt;http://purl.org/oseg/ontologies/OTRL#ODRL</title>
<path fill="none" stroke="black" d="M114.77,-278.45C131.37,-277.02 150.92,-275.34 168.6,-273.81"/>
<polygon fill="black" stroke="black" points="169.11,-277.28 178.77,-272.94 168.5,-270.31 169.11,-277.28"/>
</g>
<!-- http://purl.org/oseg/ontologies/OTRL#Odrl4&#45;&gt;http://www.w3.org/2002/07/owl#class -->
<g id="edge20" class="edge">
<title>http://purl.org/oseg/ontologies/OTRL#Odrl4&#45;&gt;http://www.w3.org/2002/07/owl#class</title>
<path fill="none" stroke="black" d="M91.38,-266.49C110.33,-248.37 142,-218.08 163.76,-197.28"/>
<polygon fill="black" stroke="black" points="166.19,-199.79 171,-190.35 161.35,-194.74 166.19,-199.79"/>
<text text-anchor="middle" x="123.07" y="-235.68" font-family="Times,serif" font-size="14.00">a</text>
</g>
<!-- http://purl.org/oseg/ontologies/OTRL#Otrl4 -->
<g id="node19" class="node">
<title>http://purl.org/oseg/ontologies/OTRL#Otrl4</title>
<ellipse fill="none" stroke="#e377c2" cx="225.64" cy="-15.95" rx="38.37" ry="16.03"/>
<text text-anchor="middle" x="225.64" y="-12.25" font-family="Times,serif" font-size="14.00">Otrl4</text>
</g>
<!-- http://purl.org/oseg/ontologies/OTRL#Otrl4&#45;&gt;http://purl.org/oseg/ontologies/OTRL#OTRL -->
<g id="edge7" class="edge">
<title>http://purl.org/oseg/ontologies/OTRL#Otrl4&#45;&gt;http://purl.org/oseg/ontologies/OTRL#OTRL</title>
<path fill="none" stroke="black" d="M217.13,-31.82C208.43,-48.04 194.78,-73.48 184.62,-92.43"/>
<polygon fill="black" stroke="black" points="181.45,-90.94 179.8,-101.41 187.61,-94.25 181.45,-90.94"/>
</g>
<!-- http://purl.org/oseg/ontologies/OTRL#Otrl4&#45;&gt;http://www.w3.org/2002/07/owl#class -->
<g id="edge25" class="edge">
<title>http://purl.org/oseg/ontologies/OTRL#Otrl4&#45;&gt;http://www.w3.org/2002/07/owl#class</title>
<path fill="none" stroke="black" d="M221.69,-32.34C215.08,-59.79 201.71,-115.28 193.75,-148.28"/>
<polygon fill="black" stroke="black" points="190.32,-147.6 191.38,-158.14 197.12,-149.24 190.32,-147.6"/>
<text text-anchor="middle" x="212.22" y="-94.11" font-family="Times,serif" font-size="14.00">a</text>
</g>
<!-- http://purl.org/oseg/ontologies/OTRL#Odrl3Star -->
<g id="node20" class="node">
<title>http://purl.org/oseg/ontologies/OTRL#Odrl3Star</title>
<ellipse fill="none" stroke="#e377c2" cx="365.92" cy="-212.25" rx="62.45" ry="16.03"/>
<text text-anchor="middle" x="365.92" y="-208.55" font-family="Times,serif" font-size="14.00">Odrl3Star</text>
</g>
<!-- http://purl.org/oseg/ontologies/OTRL#Odrl3Star&#45;&gt;http://purl.org/oseg/ontologies/OTRL#ODRL -->
<g id="edge24" class="edge">
<title>http://purl.org/oseg/ontologies/OTRL#Odrl3Star&#45;&gt;http://purl.org/oseg/ontologies/OTRL#ODRL</title>
<path fill="none" stroke="black" d="M331.26,-225.8C309.48,-234.31 281.34,-245.31 258.77,-254.14"/>
<polygon fill="black" stroke="black" points="257.19,-250.99 249.15,-257.9 259.74,-257.51 257.19,-250.99"/>
</g>
<!-- http://purl.org/oseg/ontologies/OTRL#Odrl3Star&#45;&gt;http://www.w3.org/2002/07/owl#class -->
<g id="edge26" class="edge">
<title>http://purl.org/oseg/ontologies/OTRL#Odrl3Star&#45;&gt;http://www.w3.org/2002/07/owl#class</title>
<path fill="none" stroke="black" d="M317.13,-201.98C294.37,-197.19 267.15,-191.46 243.53,-186.49"/>
<polygon fill="black" stroke="black" points="244.16,-183.05 233.66,-184.42 242.72,-189.9 244.16,-183.05"/>
<text text-anchor="middle" x="275.83" y="-198.04" font-family="Times,serif" font-size="14.00">a</text>
</g>
<!-- http://purl.org/oseg/ontologies/OTRL#Odrl3 -->
<g id="node21" class="node">
<title>http://purl.org/oseg/ontologies/OTRL#Odrl3</title>
<ellipse fill="none" stroke="#e377c2" cx="319.22" cy="-277.05" rx="40.11" ry="16.03"/>
<text text-anchor="middle" x="319.22" y="-273.35" font-family="Times,serif" font-size="14.00">Odrl3</text>
</g>
<!-- http://purl.org/oseg/ontologies/OTRL#Odrl3&#45;&gt;http://purl.org/oseg/ontologies/OTRL#ODRL -->
<g id="edge13" class="edge">
<title>http://purl.org/oseg/ontologies/OTRL#Odrl3&#45;&gt;http://purl.org/oseg/ontologies/OTRL#ODRL</title>
<path fill="none" stroke="black" d="M279.59,-274.01C276.69,-273.79 273.75,-273.56 270.8,-273.34"/>
<polygon fill="black" stroke="black" points="271.04,-269.85 260.8,-272.57 270.5,-276.83 271.04,-269.85"/>
</g>
<!-- http://purl.org/oseg/ontologies/OTRL#Odrl3&#45;&gt;http://www.w3.org/2002/07/owl#class -->
<g id="edge10" class="edge">
<title>http://purl.org/oseg/ontologies/OTRL#Odrl3&#45;&gt;http://www.w3.org/2002/07/owl#class</title>
<path fill="none" stroke="black" d="M300.61,-262.6C278.42,-245.37 241.11,-216.4 215.42,-196.45"/>
<polygon fill="black" stroke="black" points="217.24,-193.43 207.2,-190.06 212.95,-198.96 217.24,-193.43"/>
<text text-anchor="middle" x="262.52" y="-233.32" font-family="Times,serif" font-size="14.00">a</text>
</g>
</g>
</svg>
