<?xml version="1.0" encoding="UTF-8" standalone="no"?>
<!DOCTYPE svg PUBLIC "-//W3C//DTD SVG 1.1//EN"
 "http://www.w3.org/Graphics/SVG/1.1/DTD/svg11.dtd">
<!-- Generated by graphviz version 2.43.0 (0)
 -->
<!-- Title: G Pages: 1 -->
<svg width="959pt" height="473pt"
 viewBox="0.00 0.00 959.00 473.00" xmlns="http://www.w3.org/2000/svg" xmlns:xlink="http://www.w3.org/1999/xlink">
<g id="graph0" class="graph" transform="scale(1 1) rotate(0) translate(4 469)">
<title>G</title>
<polygon fill="white" stroke="transparent" points="-4,4 -4,-469 955,-469 955,4 -4,4"/>
<!-- http://purl.org/oseg/ontologies/OTRL#OTRL -->
<g id="node1" class="node">
<title>http://purl.org/oseg/ontologies/OTRL#OTRL</title>
<ellipse fill="none" stroke="#e377c2" cx="472.76" cy="-297.92" rx="39.7" ry="16.03"/>
<text text-anchor="middle" x="472.76" y="-294.22" font-family="Times,serif" font-size="14.00">OTRL</text>
</g>
<!-- http://www.w3.org/2002/07/owl#class -->
<g id="node2" class="node">
<title>http://www.w3.org/2002/07/owl#class</title>
<ellipse fill="none" stroke="#1f77b4" cx="684.1" cy="-215.02" rx="57.05" ry="16.03"/>
<text text-anchor="middle" x="684.1" y="-211.32" font-family="Times,serif" font-size="14.00">owl:class</text>
</g>
<!-- http://purl.org/oseg/ontologies/OTRL#OTRL&#45;&gt;http://www.w3.org/2002/07/owl#class -->
<g id="edge22" class="edge">
<title>http://purl.org/oseg/ontologies/OTRL#OTRL&#45;&gt;http://www.w3.org/2002/07/owl#class</title>
<path fill="none" stroke="black" d="M501.7,-286.57C537.68,-272.46 599.39,-248.25 640.95,-231.95"/>
<polygon fill="black" stroke="black" points="642.24,-235.2 650.28,-228.29 639.69,-228.68 642.24,-235.2"/>
<text text-anchor="middle" x="566.83" y="-263.06" font-family="Times,serif" font-size="14.00">a</text>
</g>
<!-- http://purl.org/oseg/ontologies/OTRL#ODRL -->
<g id="node3" class="node">
<title>http://purl.org/oseg/ontologies/OTRL#ODRL</title>
<ellipse fill="none" stroke="#e377c2" cx="839" cy="-142.64" rx="41.94" ry="16.03"/>
<text text-anchor="middle" x="839" y="-138.94" font-family="Times,serif" font-size="14.00">ODRL</text>
</g>
<!-- http://purl.org/oseg/ontologies/OTRL#ODRL&#45;&gt;http://www.w3.org/2002/07/owl#class -->
<g id="edge39" class="edge">
<title>http://purl.org/oseg/ontologies/OTRL#ODRL&#45;&gt;http://www.w3.org/2002/07/owl#class</title>
<path fill="none" stroke="black" d="M812.02,-155.25C787.52,-166.7 751.08,-183.73 723.35,-196.68"/>
<polygon fill="black" stroke="black" points="721.52,-193.67 713.94,-201.08 724.49,-200.02 721.52,-193.67"/>
<text text-anchor="middle" x="763.19" y="-179.77" font-family="Times,serif" font-size="14.00">a</text>
</g>
<!-- http://purl.org/oseg/ontologies/OTRL#OTRL&#45;2 -->
<g id="node4" class="node">
<title>http://purl.org/oseg/ontologies/OTRL#OTRL&#45;2</title>
<ellipse fill="none" stroke="#e377c2" cx="651.51" cy="-370.97" rx="49.49" ry="16.03"/>
<text text-anchor="middle" x="651.51" y="-367.27" font-family="Times,serif" font-size="14.00">OTRL&#45;2</text>
</g>
<!-- http://purl.org/oseg/ontologies/OTRL#OTRL&#45;2&#45;&gt;http://purl.org/oseg/ontologies/OTRL#OTRL -->
<g id="edge35" class="edge">
<title>http://purl.org/oseg/ontologies/OTRL#OTRL&#45;2&#45;&gt;http://purl.org/oseg/ontologies/OTRL#OTRL</title>
<path fill="none" stroke="black" d="M620.37,-358.24C589.82,-345.76 543.2,-326.71 510.54,-313.36"/>
<polygon fill="black" stroke="black" points="511.47,-309.96 500.89,-309.42 508.83,-316.44 511.47,-309.96"/>
</g>
<!-- http://purl.org/oseg/ontologies/OTRL#OTRL&#45;2&#45;&gt;http://www.w3.org/2002/07/owl#class -->
<g id="edge1" class="edge">
<title>http://purl.org/oseg/ontologies/OTRL#OTRL&#45;2&#45;&gt;http://www.w3.org/2002/07/owl#class</title>
<path fill="none" stroke="black" d="M654.93,-354.57C660.54,-327.73 671.74,-274.17 678.51,-241.77"/>
<polygon fill="black" stroke="black" points="682,-242.17 680.62,-231.67 675.15,-240.74 682,-242.17"/>
<text text-anchor="middle" x="662.22" y="-301.97" font-family="Times,serif" font-size="14.00">a</text>
</g>
<!-- http://purl.org/oseg/ontologies/OTRL#OTRL&#45;9 -->
<g id="node5" class="node">
<title>http://purl.org/oseg/ontologies/OTRL#OTRL&#45;9</title>
<ellipse fill="none" stroke="#e377c2" cx="573.94" cy="-147.54" rx="49.49" ry="16.03"/>
<text text-anchor="middle" x="573.94" y="-143.84" font-family="Times,serif" font-size="14.00">OTRL&#45;9</text>
</g>
<!-- http://purl.org/oseg/ontologies/OTRL#OTRL&#45;9&#45;&gt;http://purl.org/oseg/ontologies/OTRL#OTRL -->
<g id="edge6" class="edge">
<title>http://purl.org/oseg/ontologies/OTRL#OTRL&#45;9&#45;&gt;http://purl.org/oseg/ontologies/OTRL#OTRL</title>
<path fill="none" stroke="black" d="M563.11,-163.64C545.38,-189.98 510.07,-242.47 489.23,-273.45"/>
<polygon fill="black" stroke="black" points="486.19,-271.69 483.51,-281.94 492,-275.6 486.19,-271.69"/>
</g>
<!-- http://purl.org/oseg/ontologies/OTRL#OTRL&#45;9&#45;&gt;http://www.w3.org/2002/07/owl#class -->
<g id="edge2" class="edge">
<title>http://purl.org/oseg/ontologies/OTRL#OTRL&#45;9&#45;&gt;http://www.w3.org/2002/07/owl#class</title>
<path fill="none" stroke="black" d="M597.57,-162.02C613.18,-171.58 633.86,-184.25 651.09,-194.81"/>
<polygon fill="black" stroke="black" points="649.39,-197.87 659.74,-200.1 653.04,-191.9 649.39,-197.87"/>
<text text-anchor="middle" x="619.83" y="-182.21" font-family="Times,serif" font-size="14.00">a</text>
</g>
<!-- http://schema.org/Text -->
<g id="node6" class="node">
<title>http://schema.org/Text</title>
<ellipse fill="none" stroke="#e377c2" cx="75.42" cy="-448.4" rx="74.91" ry="16.03"/>
<text text-anchor="middle" x="75.42" y="-444.7" font-family="Times,serif" font-size="14.00">schema:Text</text>
</g>
<!-- http://purl.org/oseg/ontologies/OTRL#exitCriteria -->
<g id="node7" class="node">
<title>http://purl.org/oseg/ontologies/OTRL#exitCriteria</title>
<ellipse fill="none" stroke="#e377c2" cx="307.88" cy="-448.01" rx="70.01" ry="16.03"/>
<text text-anchor="middle" x="307.88" y="-444.31" font-family="Times,serif" font-size="14.00">exitCriteria</text>
</g>
<!-- http://purl.org/oseg/ontologies/OTRL#exitCriteria&#45;&gt;http://purl.org/oseg/ontologies/OTRL#OTRL -->
<g id="edge29" class="edge">
<title>http://purl.org/oseg/ontologies/OTRL#exitCriteria&#45;&gt;http://purl.org/oseg/ontologies/OTRL#OTRL</title>
<path fill="none" stroke="black" d="M325.21,-432.24C354.76,-405.34 414.94,-350.56 448.6,-319.92"/>
<polygon fill="black" stroke="black" points="451.11,-322.36 456.15,-313.04 446.4,-317.19 451.11,-322.36"/>
<text text-anchor="middle" x="360.4" y="-379.88" font-family="Times,serif" font-size="14.00">domain</text>
</g>
<!-- http://purl.org/oseg/ontologies/OTRL#exitCriteria&#45;&gt;http://schema.org/Text -->
<g id="edge8" class="edge">
<title>http://purl.org/oseg/ontologies/OTRL#exitCriteria&#45;&gt;http://schema.org/Text</title>
<path fill="none" stroke="black" d="M237.82,-448.13C213.62,-448.17 186.22,-448.22 160.92,-448.26"/>
<polygon fill="black" stroke="black" points="160.59,-444.76 150.6,-448.28 160.6,-451.76 160.59,-444.76"/>
<text text-anchor="middle" x="178.37" y="-452" font-family="Times,serif" font-size="14.00">range</text>
</g>
<!-- http://purl.org/oseg/ontologies/OTRL#OTRL&#45;8 -->
<g id="node8" class="node">
<title>http://purl.org/oseg/ontologies/OTRL#OTRL&#45;8</title>
<ellipse fill="none" stroke="#e377c2" cx="636.45" cy="-298.38" rx="49.49" ry="16.03"/>
<text text-anchor="middle" x="636.45" y="-294.68" font-family="Times,serif" font-size="14.00">OTRL&#45;8</text>
</g>
<!-- http://purl.org/oseg/ontologies/OTRL#OTRL&#45;8&#45;&gt;http://purl.org/oseg/ontologies/OTRL#OTRL -->
<g id="edge23" class="edge">
<title>http://purl.org/oseg/ontologies/OTRL#OTRL&#45;8&#45;&gt;http://purl.org/oseg/ontologies/OTRL#OTRL</title>
<path fill="none" stroke="black" d="M586.89,-298.24C566.53,-298.19 542.99,-298.12 522.59,-298.06"/>
<polygon fill="black" stroke="black" points="522.56,-294.56 512.55,-298.03 522.54,-301.56 522.56,-294.56"/>
</g>
<!-- http://purl.org/oseg/ontologies/OTRL#OTRL&#45;8&#45;&gt;http://www.w3.org/2002/07/owl#class -->
<g id="edge4" class="edge">
<title>http://purl.org/oseg/ontologies/OTRL#OTRL&#45;8&#45;&gt;http://www.w3.org/2002/07/owl#class</title>
<path fill="none" stroke="black" d="M645.64,-282.31C652.45,-270.39 661.87,-253.92 669.68,-240.25"/>
<polygon fill="black" stroke="black" points="672.85,-241.75 674.78,-231.33 666.78,-238.28 672.85,-241.75"/>
<text text-anchor="middle" x="653.16" y="-265.08" font-family="Times,serif" font-size="14.00">a</text>
</g>
<!-- http://purl.org/oseg/ontologies/OTRL -->
<g id="node9" class="node">
<title>http://purl.org/oseg/ontologies/OTRL</title>
<ellipse fill="none" stroke="#e377c2" cx="321.24" cy="-68.64" rx="60.62" ry="16.03"/>
<text text-anchor="middle" x="321.24" y="-64.94" font-family="Times,serif" font-size="14.00">ns1:OTRL</text>
</g>
<!-- http://purl.org/oseg/ontologies/OTRL&#45;&gt;http://purl.org/oseg/ontologies/OTRL -->
<g id="edge17" class="edge">
<title>http://purl.org/oseg/ontologies/OTRL&#45;&gt;http://purl.org/oseg/ontologies/OTRL</title>
<path fill="none" stroke="black" d="M376.84,-75.27C390.17,-74.75 400.05,-72.54 400.05,-68.64 400.05,-65.81 394.83,-63.86 386.87,-62.81"/>
<polygon fill="black" stroke="black" points="387.09,-59.32 376.84,-62.01 386.53,-66.3 387.09,-59.32"/>
<text text-anchor="middle" x="451.55" y="-64.94" font-family="Times,serif" font-size="14.00">owl:versionIRI</text>
</g>
<!-- http://purl.org/oseg/ontologies/OTRL#ODRL&#45;1 -->
<g id="node10" class="node">
<title>http://purl.org/oseg/ontologies/OTRL#ODRL&#45;1</title>
<ellipse fill="none" stroke="#e377c2" cx="709.92" cy="-15.89" rx="50.82" ry="16.03"/>
<text text-anchor="middle" x="709.92" y="-12.19" font-family="Times,serif" font-size="14.00">ODRL&#45;1</text>
</g>
<!-- http://purl.org/oseg/ontologies/OTRL#ODRL&#45;1&#45;&gt;http://www.w3.org/2002/07/owl#class -->
<g id="edge7" class="edge">
<title>http://purl.org/oseg/ontologies/OTRL#ODRL&#45;1&#45;&gt;http://www.w3.org/2002/07/owl#class</title>
<path fill="none" stroke="black" d="M707.81,-32.18C703.35,-66.54 692.97,-146.65 687.54,-188.5"/>
<polygon fill="black" stroke="black" points="684.06,-188.14 686.24,-198.5 691,-189.04 684.06,-188.14"/>
<text text-anchor="middle" x="693.17" y="-114.14" font-family="Times,serif" font-size="14.00">a</text>
</g>
<!-- http://purl.org/oseg/ontologies/OTRL#ODRL&#45;1&#45;&gt;http://purl.org/oseg/ontologies/OTRL#ODRL -->
<g id="edge27" class="edge">
<title>http://purl.org/oseg/ontologies/OTRL#ODRL&#45;1&#45;&gt;http://purl.org/oseg/ontologies/OTRL#ODRL</title>
<path fill="none" stroke="black" d="M725.75,-31.43C748.42,-53.69 790.26,-94.78 816.25,-120.3"/>
<polygon fill="black" stroke="black" points="813.86,-122.86 823.45,-127.37 818.77,-117.87 813.86,-122.86"/>
</g>
<!-- http://purl.org/oseg/ontologies/OTRL#OTRL&#45;1 -->
<g id="node11" class="node">
<title>http://purl.org/oseg/ontologies/OTRL#OTRL&#45;1</title>
<ellipse fill="none" stroke="#e377c2" cx="529.56" cy="-100.55" rx="49.49" ry="16.03"/>
<text text-anchor="middle" x="529.56" y="-96.85" font-family="Times,serif" font-size="14.00">OTRL&#45;1</text>
</g>
<!-- http://purl.org/oseg/ontologies/OTRL#OTRL&#45;1&#45;&gt;http://purl.org/oseg/ontologies/OTRL#OTRL -->
<g id="edge18" class="edge">
<title>http://purl.org/oseg/ontologies/OTRL#OTRL&#45;1&#45;&gt;http://purl.org/oseg/ontologies/OTRL#OTRL</title>
<path fill="none" stroke="black" d="M524.81,-117.04C514.93,-151.37 492.08,-230.77 480.22,-272.01"/>
<polygon fill="black" stroke="black" points="476.85,-271.04 477.45,-281.62 483.58,-272.98 476.85,-271.04"/>
</g>
<!-- http://purl.org/oseg/ontologies/OTRL#OTRL&#45;1&#45;&gt;http://www.w3.org/2002/07/owl#class -->
<g id="edge24" class="edge">
<title>http://purl.org/oseg/ontologies/OTRL#OTRL&#45;1&#45;&gt;http://www.w3.org/2002/07/owl#class</title>
<path fill="none" stroke="black" d="M549.76,-115.51C576.68,-135.46 624.49,-170.87 655.22,-193.63"/>
<polygon fill="black" stroke="black" points="653.28,-196.55 663.4,-199.69 657.45,-190.92 653.28,-196.55"/>
<text text-anchor="middle" x="597.99" y="-158.37" font-family="Times,serif" font-size="14.00">a</text>
</g>
<!-- http://purl.org/oseg/ontologies/OTRL#OTRL&#45;4 -->
<g id="node12" class="node">
<title>http://purl.org/oseg/ontologies/OTRL#OTRL&#45;4</title>
<ellipse fill="none" stroke="#e377c2" cx="537.86" cy="-407.8" rx="49.49" ry="16.03"/>
<text text-anchor="middle" x="537.86" y="-404.1" font-family="Times,serif" font-size="14.00">OTRL&#45;4</text>
</g>
<!-- http://purl.org/oseg/ontologies/OTRL#OTRL&#45;4&#45;&gt;http://purl.org/oseg/ontologies/OTRL#OTRL -->
<g id="edge19" class="edge">
<title>http://purl.org/oseg/ontologies/OTRL#OTRL&#45;4&#45;&gt;http://purl.org/oseg/ontologies/OTRL#OTRL</title>
<path fill="none" stroke="black" d="M528.25,-391.59C517.47,-373.39 499.85,-343.65 487.36,-322.57"/>
<polygon fill="black" stroke="black" points="490.3,-320.66 482.19,-313.84 484.28,-324.23 490.3,-320.66"/>
</g>
<!-- http://purl.org/oseg/ontologies/OTRL#OTRL&#45;4&#45;&gt;http://www.w3.org/2002/07/owl#class -->
<g id="edge25" class="edge">
<title>http://purl.org/oseg/ontologies/OTRL#OTRL&#45;4&#45;&gt;http://www.w3.org/2002/07/owl#class</title>
<path fill="none" stroke="black" d="M550.07,-391.7C575.78,-357.81 635.59,-278.97 665.86,-239.07"/>
<polygon fill="black" stroke="black" points="668.76,-241.03 672.02,-230.95 663.19,-236.8 668.76,-241.03"/>
<text text-anchor="middle" x="603.47" y="-319.18" font-family="Times,serif" font-size="14.00">a</text>
</g>
<!-- http://purl.org/oseg/ontologies/OTRL#ODRL&#45;0 -->
<g id="node13" class="node">
<title>http://purl.org/oseg/ontologies/OTRL#ODRL&#45;0</title>
<ellipse fill="none" stroke="#e377c2" cx="824.13" cy="-30.22" rx="50.82" ry="16.03"/>
<text text-anchor="middle" x="824.13" y="-26.52" font-family="Times,serif" font-size="14.00">ODRL&#45;0</text>
</g>
<!-- http://purl.org/oseg/ontologies/OTRL#ODRL&#45;0&#45;&gt;http://www.w3.org/2002/07/owl#class -->
<g id="edge28" class="edge">
<title>http://purl.org/oseg/ontologies/OTRL#ODRL&#45;0&#45;&gt;http://www.w3.org/2002/07/owl#class</title>
<path fill="none" stroke="black" d="M811.95,-46.3C787.26,-78.87 731.24,-152.81 702.24,-191.08"/>
<polygon fill="black" stroke="black" points="699.4,-189.03 696.15,-199.12 704.98,-193.26 699.4,-189.03"/>
<text text-anchor="middle" x="752.59" y="-122.49" font-family="Times,serif" font-size="14.00">a</text>
</g>
<!-- http://purl.org/oseg/ontologies/OTRL#ODRL&#45;0&#45;&gt;http://purl.org/oseg/ontologies/OTRL#ODRL -->
<g id="edge41" class="edge">
<title>http://purl.org/oseg/ontologies/OTRL#ODRL&#45;0&#45;&gt;http://purl.org/oseg/ontologies/OTRL#ODRL</title>
<path fill="none" stroke="black" d="M826.32,-46.81C828.74,-65.1 832.67,-94.77 835.51,-116.26"/>
<polygon fill="black" stroke="black" points="832.07,-116.9 836.85,-126.35 839.01,-115.98 832.07,-116.9"/>
</g>
<!-- http://purl.org/oseg/ontologies/OTRL#ODRL&#45;3 -->
<g id="node14" class="node">
<title>http://purl.org/oseg/ontologies/OTRL#ODRL&#45;3</title>
<ellipse fill="none" stroke="#e377c2" cx="897.92" cy="-263.77" rx="50.82" ry="16.03"/>
<text text-anchor="middle" x="897.92" y="-260.07" font-family="Times,serif" font-size="14.00">ODRL&#45;3</text>
</g>
<!-- http://purl.org/oseg/ontologies/OTRL#ODRL&#45;3&#45;&gt;http://www.w3.org/2002/07/owl#class -->
<g id="edge10" class="edge">
<title>http://purl.org/oseg/ontologies/OTRL#ODRL&#45;3&#45;&gt;http://www.w3.org/2002/07/owl#class</title>
<path fill="none" stroke="black" d="M856.44,-254.32C822.92,-246.67 775.44,-235.85 738.81,-227.5"/>
<polygon fill="black" stroke="black" points="739.31,-224.02 728.78,-225.21 737.76,-230.85 739.31,-224.02"/>
<text text-anchor="middle" x="793.13" y="-244.71" font-family="Times,serif" font-size="14.00">a</text>
</g>
<!-- http://purl.org/oseg/ontologies/OTRL#ODRL&#45;3&#45;&gt;http://purl.org/oseg/ontologies/OTRL#ODRL -->
<g id="edge20" class="edge">
<title>http://purl.org/oseg/ontologies/OTRL#ODRL&#45;3&#45;&gt;http://purl.org/oseg/ontologies/OTRL#ODRL</title>
<path fill="none" stroke="black" d="M890.1,-247.69C880.19,-227.33 863.02,-192.01 851.34,-168.01"/>
<polygon fill="black" stroke="black" points="854.38,-166.26 846.86,-158.79 848.09,-169.32 854.38,-166.26"/>
</g>
<!-- http://purl.org/oseg/ontologies/OTRL#documentationDescription -->
<g id="node15" class="node">
<title>http://purl.org/oseg/ontologies/OTRL#documentationDescription</title>
<ellipse fill="none" stroke="#e377c2" cx="201.66" cy="-405.44" rx="120.83" ry="16.03"/>
<text text-anchor="middle" x="201.66" y="-401.74" font-family="Times,serif" font-size="14.00">documentationDesc...</text>
</g>
<!-- http://purl.org/oseg/ontologies/OTRL#documentationDescription&#45;&gt;http://purl.org/oseg/ontologies/OTRL#OTRL -->
<g id="edge26" class="edge">
<title>http://purl.org/oseg/ontologies/OTRL#documentationDescription&#45;&gt;http://purl.org/oseg/ontologies/OTRL#OTRL</title>
<path fill="none" stroke="black" d="M240.51,-390.04C292.22,-369.53 383.13,-333.47 434.53,-313.08"/>
<polygon fill="black" stroke="black" points="435.95,-316.29 443.96,-309.35 433.37,-309.78 435.95,-316.29"/>
<text text-anchor="middle" x="311.02" y="-355.36" font-family="Times,serif" font-size="14.00">domain</text>
</g>
<!-- http://purl.org/oseg/ontologies/OTRL#documentationDescription&#45;&gt;http://schema.org/Text -->
<g id="edge37" class="edge">
<title>http://purl.org/oseg/ontologies/OTRL#documentationDescription&#45;&gt;http://schema.org/Text</title>
<path fill="none" stroke="black" d="M157.16,-420.59C146.83,-424.1 135.77,-427.86 125.24,-431.45"/>
<polygon fill="black" stroke="black" points="124.08,-428.15 115.74,-434.68 126.33,-434.77 124.08,-428.15"/>
<text text-anchor="middle" x="162.2" y="-429.82" font-family="Times,serif" font-size="14.00">range</text>
</g>
<!-- http://purl.org/oseg/ontologies/OTRL#OTRL&#45;7 -->
<g id="node16" class="node">
<title>http://purl.org/oseg/ontologies/OTRL#OTRL&#45;7</title>
<ellipse fill="none" stroke="#e377c2" cx="651.63" cy="-417.56" rx="49.49" ry="16.03"/>
<text text-anchor="middle" x="651.63" y="-413.86" font-family="Times,serif" font-size="14.00">OTRL&#45;7</text>
</g>
<!-- http://purl.org/oseg/ontologies/OTRL#OTRL&#45;7&#45;&gt;http://purl.org/oseg/ontologies/OTRL#OTRL -->
<g id="edge32" class="edge">
<title>http://purl.org/oseg/ontologies/OTRL#OTRL&#45;7&#45;&gt;http://purl.org/oseg/ontologies/OTRL#OTRL</title>
<path fill="none" stroke="black" d="M629.7,-402.89C597.62,-381.43 537.84,-341.45 502.04,-317.51"/>
<polygon fill="black" stroke="black" points="503.75,-314.43 493.49,-311.78 499.85,-320.25 503.75,-314.43"/>
</g>
<!-- http://purl.org/oseg/ontologies/OTRL#OTRL&#45;7&#45;&gt;http://www.w3.org/2002/07/owl#class -->
<g id="edge11" class="edge">
<title>http://purl.org/oseg/ontologies/OTRL#OTRL&#45;7&#45;&gt;http://www.w3.org/2002/07/owl#class</title>
<path fill="none" stroke="black" d="M654.29,-400.98C659.9,-365.96 673.02,-284.16 679.83,-241.68"/>
<polygon fill="black" stroke="black" points="683.32,-241.97 681.45,-231.54 676.41,-240.86 683.32,-241.97"/>
<text text-anchor="middle" x="662.56" y="-325.13" font-family="Times,serif" font-size="14.00">a</text>
</g>
<!-- http://purl.org/oseg/ontologies/OTRL#ODRL&#45;4 -->
<g id="node17" class="node">
<title>http://purl.org/oseg/ontologies/OTRL#ODRL&#45;4</title>
<ellipse fill="none" stroke="#e377c2" cx="900.37" cy="-188.51" rx="50.82" ry="16.03"/>
<text text-anchor="middle" x="900.37" y="-184.81" font-family="Times,serif" font-size="14.00">ODRL&#45;4</text>
</g>
<!-- http://purl.org/oseg/ontologies/OTRL#ODRL&#45;4&#45;&gt;http://www.w3.org/2002/07/owl#class -->
<g id="edge31" class="edge">
<title>http://purl.org/oseg/ontologies/OTRL#ODRL&#45;4&#45;&gt;http://www.w3.org/2002/07/owl#class</title>
<path fill="none" stroke="black" d="M852.64,-194.37C821.64,-198.17 780.89,-203.16 747.22,-207.29"/>
<polygon fill="black" stroke="black" points="746.52,-203.85 737.02,-208.54 747.37,-210.79 746.52,-203.85"/>
<text text-anchor="middle" x="795.43" y="-204.63" font-family="Times,serif" font-size="14.00">a</text>
</g>
<!-- http://purl.org/oseg/ontologies/OTRL#ODRL&#45;4&#45;&gt;http://purl.org/oseg/ontologies/OTRL#ODRL -->
<g id="edge12" class="edge">
<title>http://purl.org/oseg/ontologies/OTRL#ODRL&#45;4&#45;&gt;http://purl.org/oseg/ontologies/OTRL#ODRL</title>
<path fill="none" stroke="black" d="M880.28,-173.49C875.91,-170.23 871.21,-166.72 866.61,-163.28"/>
<polygon fill="black" stroke="black" points="868.62,-160.41 858.51,-157.23 864.43,-166.02 868.62,-160.41"/>
</g>
<!-- http://purl.org/oseg/ontologies/OTRL#OTRL&#45;5 -->
<g id="node18" class="node">
<title>http://purl.org/oseg/ontologies/OTRL#OTRL&#45;5</title>
<ellipse fill="none" stroke="#e377c2" cx="456.69" cy="-147.62" rx="49.49" ry="16.03"/>
<text text-anchor="middle" x="456.69" y="-143.92" font-family="Times,serif" font-size="14.00">OTRL&#45;5</text>
</g>
<!-- http://purl.org/oseg/ontologies/OTRL#OTRL&#45;5&#45;&gt;http://purl.org/oseg/ontologies/OTRL#OTRL -->
<g id="edge5" class="edge">
<title>http://purl.org/oseg/ontologies/OTRL#OTRL&#45;5&#45;&gt;http://purl.org/oseg/ontologies/OTRL#OTRL</title>
<path fill="none" stroke="black" d="M458.44,-163.99C461.21,-189.85 466.61,-240.41 469.93,-271.47"/>
<polygon fill="black" stroke="black" points="466.47,-272 471.01,-281.57 473.43,-271.26 466.47,-272"/>
</g>
<!-- http://purl.org/oseg/ontologies/OTRL#OTRL&#45;5&#45;&gt;http://www.w3.org/2002/07/owl#class -->
<g id="edge13" class="edge">
<title>http://purl.org/oseg/ontologies/OTRL#OTRL&#45;5&#45;&gt;http://www.w3.org/2002/07/owl#class</title>
<path fill="none" stroke="black" d="M493.48,-158.52C531.77,-169.87 591.96,-187.71 634.45,-200.31"/>
<polygon fill="black" stroke="black" points="633.72,-203.74 644.3,-203.23 635.71,-197.03 633.72,-203.74"/>
<text text-anchor="middle" x="559.47" y="-183.21" font-family="Times,serif" font-size="14.00">a</text>
</g>
<!-- http://purl.org/oseg/ontologies/OTRL#ODRL&#45;2 -->
<g id="node19" class="node">
<title>http://purl.org/oseg/ontologies/OTRL#ODRL&#45;2</title>
<ellipse fill="none" stroke="#e377c2" cx="865.27" cy="-98.7" rx="50.82" ry="16.03"/>
<text text-anchor="middle" x="865.27" y="-95" font-family="Times,serif" font-size="14.00">ODRL&#45;2</text>
</g>
<!-- http://purl.org/oseg/ontologies/OTRL#ODRL&#45;2&#45;&gt;http://www.w3.org/2002/07/owl#class -->
<g id="edge14" class="edge">
<title>http://purl.org/oseg/ontologies/OTRL#ODRL&#45;2&#45;&gt;http://www.w3.org/2002/07/owl#class</title>
<path fill="none" stroke="black" d="M842.32,-113.43C810.37,-133.94 752.34,-171.21 716.14,-194.45"/>
<polygon fill="black" stroke="black" points="713.95,-191.69 707.43,-200.04 717.74,-197.58 713.95,-191.69"/>
<text text-anchor="middle" x="774.73" y="-157.74" font-family="Times,serif" font-size="14.00">a</text>
</g>
<!-- http://purl.org/oseg/ontologies/OTRL#ODRL&#45;2&#45;&gt;http://purl.org/oseg/ontologies/OTRL#ODRL -->
<g id="edge36" class="edge">
<title>http://purl.org/oseg/ontologies/OTRL#ODRL&#45;2&#45;&gt;http://purl.org/oseg/ontologies/OTRL#ODRL</title>
<path fill="none" stroke="black" d="M855.64,-114.81C855.07,-115.77 854.49,-116.74 853.9,-117.72"/>
<polygon fill="black" stroke="black" points="850.76,-116.15 848.63,-126.53 856.77,-119.74 850.76,-116.15"/>
</g>
<!-- http://purl.org/oseg/ontologies/OTRL#OTRL&#45;6 -->
<g id="node20" class="node">
<title>http://purl.org/oseg/ontologies/OTRL#OTRL&#45;6</title>
<ellipse fill="none" stroke="#e377c2" cx="489.97" cy="-191.89" rx="49.49" ry="16.03"/>
<text text-anchor="middle" x="489.97" y="-188.19" font-family="Times,serif" font-size="14.00">OTRL&#45;6</text>
</g>
<!-- http://purl.org/oseg/ontologies/OTRL#OTRL&#45;6&#45;&gt;http://purl.org/oseg/ontologies/OTRL#OTRL -->
<g id="edge38" class="edge">
<title>http://purl.org/oseg/ontologies/OTRL#OTRL&#45;6&#45;&gt;http://purl.org/oseg/ontologies/OTRL#OTRL</title>
<path fill="none" stroke="black" d="M487.28,-208.46C484.54,-225.34 480.25,-251.79 477.04,-271.56"/>
<polygon fill="black" stroke="black" points="473.58,-271.04 475.43,-281.47 480.49,-272.16 473.58,-271.04"/>
</g>
<!-- http://purl.org/oseg/ontologies/OTRL#OTRL&#45;6&#45;&gt;http://www.w3.org/2002/07/owl#class -->
<g id="edge34" class="edge">
<title>http://purl.org/oseg/ontologies/OTRL#OTRL&#45;6&#45;&gt;http://www.w3.org/2002/07/owl#class</title>
<path fill="none" stroke="black" d="M536.96,-197.49C562.14,-200.49 593.5,-204.23 620.79,-207.48"/>
<polygon fill="black" stroke="black" points="620.69,-210.99 631.03,-208.7 621.52,-204.04 620.69,-210.99"/>
<text text-anchor="middle" x="574.38" y="-206.29" font-family="Times,serif" font-size="14.00">a</text>
</g>
<!-- http://purl.org/oseg/ontologies/OTRL#OTRL&#45;3 -->
<g id="node21" class="node">
<title>http://purl.org/oseg/ontologies/OTRL#OTRL&#45;3</title>
<ellipse fill="none" stroke="#e377c2" cx="532.41" cy="-340.34" rx="49.49" ry="16.03"/>
<text text-anchor="middle" x="532.41" y="-336.64" font-family="Times,serif" font-size="14.00">OTRL&#45;3</text>
</g>
<!-- http://purl.org/oseg/ontologies/OTRL#OTRL&#45;3&#45;&gt;http://purl.org/oseg/ontologies/OTRL#OTRL -->
<g id="edge9" class="edge">
<title>http://purl.org/oseg/ontologies/OTRL#OTRL&#45;3&#45;&gt;http://purl.org/oseg/ontologies/OTRL#OTRL</title>
<path fill="none" stroke="black" d="M511.55,-325.5C508.24,-323.15 504.77,-320.69 501.33,-318.23"/>
<polygon fill="black" stroke="black" points="503.09,-315.19 492.91,-312.25 499.03,-320.9 503.09,-315.19"/>
</g>
<!-- http://purl.org/oseg/ontologies/OTRL#OTRL&#45;3&#45;&gt;http://www.w3.org/2002/07/owl#class -->
<g id="edge16" class="edge">
<title>http://purl.org/oseg/ontologies/OTRL#OTRL&#45;3&#45;&gt;http://www.w3.org/2002/07/owl#class</title>
<path fill="none" stroke="black" d="M550.71,-325.22C577.33,-303.23 626.89,-262.29 657.53,-236.97"/>
<polygon fill="black" stroke="black" points="659.78,-239.65 665.26,-230.59 655.32,-234.26 659.78,-239.65"/>
<text text-anchor="middle" x="599.62" y="-269.9" font-family="Times,serif" font-size="14.00">a</text>
</g>
<!-- http://purl.org/oseg/ontologies/OTRL#softwareDescription -->
<g id="node22" class="node">
<title>http://purl.org/oseg/ontologies/OTRL#softwareDescription</title>
<ellipse fill="none" stroke="#e377c2" cx="216.74" cy="-221.87" rx="113.69" ry="16.03"/>
<text text-anchor="middle" x="216.74" y="-218.17" font-family="Times,serif" font-size="14.00">softwareDescription</text>
</g>
<!-- http://purl.org/oseg/ontologies/OTRL#softwareDescription&#45;&gt;http://purl.org/oseg/ontologies/OTRL#OTRL -->
<g id="edge33" class="edge">
<title>http://purl.org/oseg/ontologies/OTRL#softwareDescription&#45;&gt;http://purl.org/oseg/ontologies/OTRL#OTRL</title>
<path fill="none" stroke="black" d="M266.1,-236.53C313.92,-250.74 385.65,-272.05 430.8,-285.46"/>
<polygon fill="black" stroke="black" points="429.98,-288.87 440.56,-288.36 431.97,-282.16 429.98,-288.87"/>
<text text-anchor="middle" x="321.95" y="-264.8" font-family="Times,serif" font-size="14.00">domain</text>
</g>
<!-- http://purl.org/oseg/ontologies/OTRL#softwareDescription&#45;&gt;http://schema.org/Text -->
<g id="edge21" class="edge">
<title>http://purl.org/oseg/ontologies/OTRL#softwareDescription&#45;&gt;http://schema.org/Text</title>
<path fill="none" stroke="black" d="M206.57,-238.16C182.13,-277.35 119.93,-377.06 90.85,-423.68"/>
<polygon fill="black" stroke="black" points="87.82,-421.92 85.5,-432.26 93.76,-425.63 87.82,-421.92"/>
<text text-anchor="middle" x="127.71" y="-334.72" font-family="Times,serif" font-size="14.00">range</text>
</g>
<!-- http://purl.org/oseg/ontologies/OTRL#hardwareDescription -->
<g id="node23" class="node">
<title>http://purl.org/oseg/ontologies/OTRL#hardwareDescription</title>
<ellipse fill="none" stroke="#e377c2" cx="211.16" cy="-302.63" rx="118.17" ry="16.03"/>
<text text-anchor="middle" x="211.16" y="-298.93" font-family="Times,serif" font-size="14.00">hardwareDescription</text>
</g>
<!-- http://purl.org/oseg/ontologies/OTRL#hardwareDescription&#45;&gt;http://purl.org/oseg/ontologies/OTRL#OTRL -->
<g id="edge15" class="edge">
<title>http://purl.org/oseg/ontologies/OTRL#hardwareDescription&#45;&gt;http://purl.org/oseg/ontologies/OTRL#OTRL</title>
<path fill="none" stroke="black" d="M328.57,-300.52C361.66,-299.92 395.92,-299.31 422.73,-298.82"/>
<polygon fill="black" stroke="black" points="423.06,-302.32 432.99,-298.64 422.93,-295.32 423.06,-302.32"/>
<text text-anchor="middle" x="402.15" y="-303.47" font-family="Times,serif" font-size="14.00">domain</text>
</g>
<!-- http://purl.org/oseg/ontologies/OTRL#hardwareDescription&#45;&gt;http://schema.org/Text -->
<g id="edge3" class="edge">
<title>http://purl.org/oseg/ontologies/OTRL#hardwareDescription&#45;&gt;http://schema.org/Text</title>
<path fill="none" stroke="black" d="M196.11,-318.79C172.16,-344.51 125.24,-394.9 97.49,-424.71"/>
<polygon fill="black" stroke="black" points="94.79,-422.47 90.54,-432.17 99.91,-427.24 94.79,-422.47"/>
<text text-anchor="middle" x="125.8" y="-375.55" font-family="Times,serif" font-size="14.00">range</text>
</g>
<!-- http://purl.org/oseg/ontologies/OTRL#ODRL&#45;5 -->
<g id="node24" class="node">
<title>http://purl.org/oseg/ontologies/OTRL#ODRL&#45;5</title>
<ellipse fill="none" stroke="#e377c2" cx="856.31" cy="-307.13" rx="50.82" ry="16.03"/>
<text text-anchor="middle" x="856.31" y="-303.43" font-family="Times,serif" font-size="14.00">ODRL&#45;5</text>
</g>
<!-- http://purl.org/oseg/ontologies/OTRL#ODRL&#45;5&#45;&gt;http://www.w3.org/2002/07/owl#class -->
<g id="edge40" class="edge">
<title>http://purl.org/oseg/ontologies/OTRL#ODRL&#45;5&#45;&gt;http://www.w3.org/2002/07/owl#class</title>
<path fill="none" stroke="black" d="M830.16,-293.14C800.74,-277.41 752.8,-251.77 719.92,-234.18"/>
<polygon fill="black" stroke="black" points="721.54,-231.08 711.07,-229.45 718.24,-237.25 721.54,-231.08"/>
<text text-anchor="middle" x="770.54" y="-267.46" font-family="Times,serif" font-size="14.00">a</text>
</g>
<!-- http://purl.org/oseg/ontologies/OTRL#ODRL&#45;5&#45;&gt;http://purl.org/oseg/ontologies/OTRL#ODRL -->
<g id="edge30" class="edge">
<title>http://purl.org/oseg/ontologies/OTRL#ODRL&#45;5&#45;&gt;http://purl.org/oseg/ontologies/OTRL#ODRL</title>
<path fill="none" stroke="black" d="M854.59,-290.76C851.6,-262.31 845.41,-203.51 841.79,-169.17"/>
<polygon fill="black" stroke="black" points="845.25,-168.53 840.72,-158.95 838.28,-169.26 845.25,-168.53"/>
</g>
</g>
</svg>
