<?xml version="1.0" encoding="UTF-8" standalone="no"?>
<!DOCTYPE svg PUBLIC "-//W3C//DTD SVG 1.1//EN"
 "http://www.w3.org/Graphics/SVG/1.1/DTD/svg11.dtd">
<!-- Generated by graphviz version 2.43.0 (0)
 -->
<!-- Title: G Pages: 1 -->
<svg width="771pt" height="1014pt"
 viewBox="0.00 0.00 771.05 1014.00" xmlns="http://www.w3.org/2000/svg" xmlns:xlink="http://www.w3.org/1999/xlink">
<g id="graph0" class="graph" transform="scale(1 1) rotate(0) translate(4 1010)">
<title>G</title>
<polygon fill="white" stroke="transparent" points="-4,4 -4,-1010 767.05,-1010 767.05,4 -4,4"/>
<!-- http://purl.org/oseg/ontologies/OTRL#ODRL -->
<g id="node1" class="node">
<title>http://purl.org/oseg/ontologies/OTRL#ODRL</title>
<ellipse fill="none" stroke="#e377c2" cx="498.99" cy="-103.57" rx="41.94" ry="16.03"/>
<text text-anchor="middle" x="498.99" y="-99.87" font-family="Times,serif" font-size="14.00">ODRL</text>
</g>
<!-- http://www.w3.org/2002/07/owl#class -->
<g id="node3" class="node">
<title>http://www.w3.org/2002/07/owl#class</title>
<ellipse fill="none" stroke="#1f77b4" cx="444.53" cy="-276.65" rx="57.05" ry="16.03"/>
<text text-anchor="middle" x="444.53" y="-272.95" font-family="Times,serif" font-size="14.00">owl:class</text>
</g>
<!-- http://purl.org/oseg/ontologies/OTRL#ODRL&#45;&gt;http://www.w3.org/2002/07/owl#class -->
<g id="edge27" class="edge">
<title>http://purl.org/oseg/ontologies/OTRL#ODRL&#45;&gt;http://www.w3.org/2002/07/owl#class</title>
<path fill="none" stroke="black" d="M493.87,-119.85C484.42,-149.88 464.19,-214.2 452.78,-250.43"/>
<polygon fill="black" stroke="black" points="449.35,-249.69 449.68,-260.28 456.02,-251.8 449.35,-249.69"/>
<text text-anchor="middle" x="468.83" y="-188.94" font-family="Times,serif" font-size="14.00">a</text>
</g>
<!-- http://purl.org/oseg/ontologies/OTRL#OTRL -->
<g id="node2" class="node">
<title>http://purl.org/oseg/ontologies/OTRL#OTRL</title>
<ellipse fill="none" stroke="#e377c2" cx="355.93" cy="-529.52" rx="39.7" ry="16.03"/>
<text text-anchor="middle" x="355.93" y="-525.82" font-family="Times,serif" font-size="14.00">OTRL</text>
</g>
<!-- http://purl.org/oseg/ontologies/OTRL#OTRL&#45;&gt;http://www.w3.org/2002/07/owl#class -->
<g id="edge33" class="edge">
<title>http://purl.org/oseg/ontologies/OTRL#OTRL&#45;&gt;http://www.w3.org/2002/07/owl#class</title>
<path fill="none" stroke="black" d="M361.6,-513.31C376.57,-470.6 417.21,-354.63 435.45,-302.57"/>
<polygon fill="black" stroke="black" points="438.79,-303.64 438.79,-293.04 432.18,-301.32 438.79,-303.64"/>
<text text-anchor="middle" x="394.03" y="-411.74" font-family="Times,serif" font-size="14.00">a</text>
</g>
<!-- http://purl.org/oseg/ontologies/OTRL -->
<g id="node4" class="node">
<title>http://purl.org/oseg/ontologies/OTRL</title>
<ellipse fill="none" stroke="#e377c2" cx="581.24" cy="-666.64" rx="60.62" ry="16.03"/>
<text text-anchor="middle" x="581.24" y="-662.94" font-family="Times,serif" font-size="14.00">ns1:OTRL</text>
</g>
<!-- http://purl.org/oseg/ontologies/OTRL&#45;&gt;http://purl.org/oseg/ontologies/OTRL -->
<g id="edge24" class="edge">
<title>http://purl.org/oseg/ontologies/OTRL&#45;&gt;http://purl.org/oseg/ontologies/OTRL</title>
<path fill="none" stroke="black" d="M636.84,-673.27C650.17,-672.75 660.05,-670.54 660.05,-666.64 660.05,-663.81 654.83,-661.86 646.87,-660.81"/>
<polygon fill="black" stroke="black" points="647.09,-657.32 636.84,-660.01 646.53,-664.3 647.09,-657.32"/>
<text text-anchor="middle" x="711.55" y="-662.94" font-family="Times,serif" font-size="14.00">owl:versionIRI</text>
</g>
<!-- http://schema.org/Text -->
<g id="node5" class="node">
<title>http://schema.org/Text</title>
<ellipse fill="none" stroke="#e377c2" cx="204.47" cy="-990.1" rx="74.91" ry="16.03"/>
<text text-anchor="middle" x="204.47" y="-986.4" font-family="Times,serif" font-size="14.00">schema:Text</text>
</g>
<!-- http://purl.org/oseg/ontologies/OTRL#OTRL&#45;9 -->
<g id="node6" class="node">
<title>http://purl.org/oseg/ontologies/OTRL#OTRL&#45;9</title>
<ellipse fill="none" stroke="#e377c2" cx="265.38" cy="-328.44" rx="49.49" ry="16.03"/>
<text text-anchor="middle" x="265.38" y="-324.74" font-family="Times,serif" font-size="14.00">OTRL&#45;9</text>
</g>
<!-- http://purl.org/oseg/ontologies/OTRL#OTRL&#45;9&#45;&gt;http://purl.org/oseg/ontologies/OTRL#OTRL -->
<g id="edge15" class="edge">
<title>http://purl.org/oseg/ontologies/OTRL#OTRL&#45;9&#45;&gt;http://purl.org/oseg/ontologies/OTRL#OTRL</title>
<path fill="none" stroke="black" d="M272.63,-344.56C288.33,-379.41 325.54,-462.04 344.46,-504.05"/>
<polygon fill="black" stroke="black" points="341.34,-505.64 348.64,-513.32 347.72,-502.77 341.34,-505.64"/>
</g>
<!-- http://purl.org/oseg/ontologies/OTRL#OTRL&#45;9&#45;&gt;http://www.w3.org/2002/07/owl#class -->
<g id="edge2" class="edge">
<title>http://purl.org/oseg/ontologies/OTRL#OTRL&#45;9&#45;&gt;http://www.w3.org/2002/07/owl#class</title>
<path fill="none" stroke="black" d="M302.93,-317.59C329.46,-309.92 365.3,-299.56 394.28,-291.18"/>
<polygon fill="black" stroke="black" points="395.59,-294.44 404.22,-288.3 393.64,-287.72 395.59,-294.44"/>
<text text-anchor="middle" x="344.11" y="-308.18" font-family="Times,serif" font-size="14.00">a</text>
</g>
<!-- http://purl.org/oseg/ontologies/OTRL#ODRL&#45;4 -->
<g id="node7" class="node">
<title>http://purl.org/oseg/ontologies/OTRL#ODRL&#45;4</title>
<ellipse fill="none" stroke="#e377c2" cx="653.04" cy="-128.69" rx="50.82" ry="16.03"/>
<text text-anchor="middle" x="653.04" y="-124.99" font-family="Times,serif" font-size="14.00">ODRL&#45;4</text>
</g>
<!-- http://purl.org/oseg/ontologies/OTRL#ODRL&#45;4&#45;&gt;http://purl.org/oseg/ontologies/OTRL#ODRL -->
<g id="edge4" class="edge">
<title>http://purl.org/oseg/ontologies/OTRL#ODRL&#45;4&#45;&gt;http://purl.org/oseg/ontologies/OTRL#ODRL</title>
<path fill="none" stroke="black" d="M607.66,-121.29C588.77,-118.21 566.82,-114.63 547.61,-111.5"/>
<polygon fill="black" stroke="black" points="547.98,-108.01 537.55,-109.86 546.86,-114.92 547.98,-108.01"/>
</g>
<!-- http://purl.org/oseg/ontologies/OTRL#ODRL&#45;4&#45;&gt;http://www.w3.org/2002/07/owl#class -->
<g id="edge26" class="edge">
<title>http://purl.org/oseg/ontologies/OTRL#ODRL&#45;4&#45;&gt;http://www.w3.org/2002/07/owl#class</title>
<path fill="none" stroke="black" d="M631.9,-143.69C594.61,-170.15 517.06,-225.18 474.35,-255.49"/>
<polygon fill="black" stroke="black" points="472.17,-252.75 466.04,-261.39 476.22,-258.45 472.17,-252.75"/>
<text text-anchor="middle" x="548.63" y="-203.39" font-family="Times,serif" font-size="14.00">a</text>
</g>
<!-- http://purl.org/oseg/ontologies/OTRL#OTRL&#45;1 -->
<g id="node8" class="node">
<title>http://purl.org/oseg/ontologies/OTRL#OTRL&#45;1</title>
<ellipse fill="none" stroke="#e377c2" cx="318.71" cy="-384.51" rx="49.49" ry="16.03"/>
<text text-anchor="middle" x="318.71" y="-380.81" font-family="Times,serif" font-size="14.00">OTRL&#45;1</text>
</g>
<!-- http://purl.org/oseg/ontologies/OTRL#OTRL&#45;1&#45;&gt;http://purl.org/oseg/ontologies/OTRL#OTRL -->
<g id="edge11" class="edge">
<title>http://purl.org/oseg/ontologies/OTRL#OTRL&#45;1&#45;&gt;http://purl.org/oseg/ontologies/OTRL#OTRL</title>
<path fill="none" stroke="black" d="M322.91,-400.87C329.3,-425.78 341.54,-473.48 349.19,-503.28"/>
<polygon fill="black" stroke="black" points="345.81,-504.19 351.69,-513 352.59,-502.45 345.81,-504.19"/>
</g>
<!-- http://purl.org/oseg/ontologies/OTRL#OTRL&#45;1&#45;&gt;http://www.w3.org/2002/07/owl#class -->
<g id="edge7" class="edge">
<title>http://purl.org/oseg/ontologies/OTRL#OTRL&#45;1&#45;&gt;http://www.w3.org/2002/07/owl#class</title>
<path fill="none" stroke="black" d="M336.47,-369.29C357.9,-350.92 394.08,-319.9 418.62,-298.87"/>
<polygon fill="black" stroke="black" points="421.14,-301.31 426.46,-292.15 416.59,-296 421.14,-301.31"/>
<text text-anchor="middle" x="373.05" y="-337.88" font-family="Times,serif" font-size="14.00">a</text>
</g>
<!-- http://purl.org/oseg/ontologies/OTRL#ODRL&#45;1 -->
<g id="node9" class="node">
<title>http://purl.org/oseg/ontologies/OTRL#ODRL&#45;1</title>
<ellipse fill="none" stroke="#e377c2" cx="661.48" cy="-204.11" rx="50.82" ry="16.03"/>
<text text-anchor="middle" x="661.48" y="-200.41" font-family="Times,serif" font-size="14.00">ODRL&#45;1</text>
</g>
<!-- http://purl.org/oseg/ontologies/OTRL#ODRL&#45;1&#45;&gt;http://purl.org/oseg/ontologies/OTRL#ODRL -->
<g id="edge29" class="edge">
<title>http://purl.org/oseg/ontologies/OTRL#ODRL&#45;1&#45;&gt;http://purl.org/oseg/ontologies/OTRL#ODRL</title>
<path fill="none" stroke="black" d="M637.85,-189.49C609.42,-171.89 561.57,-142.29 530.14,-122.84"/>
<polygon fill="black" stroke="black" points="531.69,-119.68 521.34,-117.4 528.01,-125.64 531.69,-119.68"/>
</g>
<!-- http://purl.org/oseg/ontologies/OTRL#ODRL&#45;1&#45;&gt;http://www.w3.org/2002/07/owl#class -->
<g id="edge9" class="edge">
<title>http://purl.org/oseg/ontologies/OTRL#ODRL&#45;1&#45;&gt;http://www.w3.org/2002/07/owl#class</title>
<path fill="none" stroke="black" d="M626.14,-215.93C589.43,-228.2 531.79,-247.47 491.32,-261.01"/>
<polygon fill="black" stroke="black" points="490.05,-257.74 481.68,-264.23 492.27,-264.38 490.05,-257.74"/>
<text text-anchor="middle" x="554.23" y="-242.27" font-family="Times,serif" font-size="14.00">a</text>
</g>
<!-- http://purl.org/oseg/ontologies/OTRL#OTRL&#45;6 -->
<g id="node10" class="node">
<title>http://purl.org/oseg/ontologies/OTRL#OTRL&#45;6</title>
<ellipse fill="none" stroke="#e377c2" cx="208.37" cy="-371.46" rx="49.49" ry="16.03"/>
<text text-anchor="middle" x="208.37" y="-367.76" font-family="Times,serif" font-size="14.00">OTRL&#45;6</text>
</g>
<!-- http://purl.org/oseg/ontologies/OTRL#OTRL&#45;6&#45;&gt;http://purl.org/oseg/ontologies/OTRL#OTRL -->
<g id="edge5" class="edge">
<title>http://purl.org/oseg/ontologies/OTRL#OTRL&#45;6&#45;&gt;http://purl.org/oseg/ontologies/OTRL#OTRL</title>
<path fill="none" stroke="black" d="M223.06,-387.19C249.27,-415.26 304.19,-474.09 334.57,-506.64"/>
<polygon fill="black" stroke="black" points="332.35,-509.39 341.73,-514.31 337.47,-504.61 332.35,-509.39"/>
</g>
<!-- http://purl.org/oseg/ontologies/OTRL#OTRL&#45;6&#45;&gt;http://www.w3.org/2002/07/owl#class -->
<g id="edge10" class="edge">
<title>http://purl.org/oseg/ontologies/OTRL#OTRL&#45;6&#45;&gt;http://www.w3.org/2002/07/owl#class</title>
<path fill="none" stroke="black" d="M239.73,-358.87C281.32,-342.17 354.88,-312.64 401.6,-293.89"/>
<polygon fill="black" stroke="black" points="403.16,-297.03 411.14,-290.06 400.55,-290.53 403.16,-297.03"/>
<text text-anchor="middle" x="325.17" y="-330.18" font-family="Times,serif" font-size="14.00">a</text>
</g>
<!-- http://purl.org/oseg/ontologies/OTRL#ODRL&#45;0 -->
<g id="node11" class="node">
<title>http://purl.org/oseg/ontologies/OTRL#ODRL&#45;0</title>
<ellipse fill="none" stroke="#e377c2" cx="483.61" cy="-16.15" rx="50.82" ry="16.03"/>
<text text-anchor="middle" x="483.61" y="-12.45" font-family="Times,serif" font-size="14.00">ODRL&#45;0</text>
</g>
<!-- http://purl.org/oseg/ontologies/OTRL#ODRL&#45;0&#45;&gt;http://purl.org/oseg/ontologies/OTRL#ODRL -->
<g id="edge12" class="edge">
<title>http://purl.org/oseg/ontologies/OTRL#ODRL&#45;0&#45;&gt;http://purl.org/oseg/ontologies/OTRL#ODRL</title>
<path fill="none" stroke="black" d="M486.5,-32.59C488.72,-45.17 491.81,-62.76 494.37,-77.28"/>
<polygon fill="black" stroke="black" points="490.93,-77.96 496.11,-87.2 497.83,-76.74 490.93,-77.96"/>
</g>
<!-- http://purl.org/oseg/ontologies/OTRL#ODRL&#45;0&#45;&gt;http://www.w3.org/2002/07/owl#class -->
<g id="edge31" class="edge">
<title>http://purl.org/oseg/ontologies/OTRL#ODRL&#45;0&#45;&gt;http://www.w3.org/2002/07/owl#class</title>
<path fill="none" stroke="black" d="M481.16,-32.45C474.6,-76.21 456.54,-196.63 448.49,-250.27"/>
<polygon fill="black" stroke="black" points="445,-249.95 446.98,-260.36 451.92,-250.99 445,-249.95"/>
<text text-anchor="middle" x="460.33" y="-145.16" font-family="Times,serif" font-size="14.00">a</text>
</g>
<!-- http://purl.org/oseg/ontologies/OTRL#ODRL&#45;5 -->
<g id="node12" class="node">
<title>http://purl.org/oseg/ontologies/OTRL#ODRL&#45;5</title>
<ellipse fill="none" stroke="#e377c2" cx="319.83" cy="-84.98" rx="50.82" ry="16.03"/>
<text text-anchor="middle" x="319.83" y="-81.28" font-family="Times,serif" font-size="14.00">ODRL&#45;5</text>
</g>
<!-- http://purl.org/oseg/ontologies/OTRL#ODRL&#45;5&#45;&gt;http://purl.org/oseg/ontologies/OTRL#ODRL -->
<g id="edge25" class="edge">
<title>http://purl.org/oseg/ontologies/OTRL#ODRL&#45;5&#45;&gt;http://purl.org/oseg/ontologies/OTRL#ODRL</title>
<path fill="none" stroke="black" d="M368.31,-90.01C393.18,-92.59 423.44,-95.73 448.58,-98.34"/>
<polygon fill="black" stroke="black" points="448.34,-101.83 458.65,-99.38 449.06,-94.87 448.34,-101.83"/>
</g>
<!-- http://purl.org/oseg/ontologies/OTRL#ODRL&#45;5&#45;&gt;http://www.w3.org/2002/07/owl#class -->
<g id="edge32" class="edge">
<title>http://purl.org/oseg/ontologies/OTRL#ODRL&#45;5&#45;&gt;http://www.w3.org/2002/07/owl#class</title>
<path fill="none" stroke="black" d="M330.24,-100.99C352.02,-134.46 402.49,-212.03 428.46,-251.95"/>
<polygon fill="black" stroke="black" points="425.67,-254.08 434.06,-260.55 431.54,-250.26 425.67,-254.08"/>
<text text-anchor="middle" x="374.85" y="-180.27" font-family="Times,serif" font-size="14.00">a</text>
</g>
<!-- http://purl.org/oseg/ontologies/OTRL#OTRL&#45;7 -->
<g id="node13" class="node">
<title>http://purl.org/oseg/ontologies/OTRL#OTRL&#45;7</title>
<ellipse fill="none" stroke="#e377c2" cx="431.21" cy="-487.53" rx="49.49" ry="16.03"/>
<text text-anchor="middle" x="431.21" y="-483.83" font-family="Times,serif" font-size="14.00">OTRL&#45;7</text>
</g>
<!-- http://purl.org/oseg/ontologies/OTRL#OTRL&#45;7&#45;&gt;http://purl.org/oseg/ontologies/OTRL#OTRL -->
<g id="edge17" class="edge">
<title>http://purl.org/oseg/ontologies/OTRL#OTRL&#45;7&#45;&gt;http://purl.org/oseg/ontologies/OTRL#OTRL</title>
<path fill="none" stroke="black" d="M405.72,-501.75C400.18,-504.84 394.24,-508.15 388.47,-511.37"/>
<polygon fill="black" stroke="black" points="386.64,-508.38 379.61,-516.31 390.05,-514.49 386.64,-508.38"/>
</g>
<!-- http://purl.org/oseg/ontologies/OTRL#OTRL&#45;7&#45;&gt;http://www.w3.org/2002/07/owl#class -->
<g id="edge34" class="edge">
<title>http://purl.org/oseg/ontologies/OTRL#OTRL&#45;7&#45;&gt;http://www.w3.org/2002/07/owl#class</title>
<path fill="none" stroke="black" d="M432.25,-470.99C434.55,-434.64 440.05,-347.58 442.84,-303.38"/>
<polygon fill="black" stroke="black" points="446.36,-303.32 443.49,-293.12 439.37,-302.88 446.36,-303.32"/>
<text text-anchor="middle" x="433.05" y="-375.98" font-family="Times,serif" font-size="14.00">a</text>
</g>
<!-- http://purl.org/oseg/ontologies/OTRL#ODRL&#45;3 -->
<g id="node14" class="node">
<title>http://purl.org/oseg/ontologies/OTRL#ODRL&#45;3</title>
<ellipse fill="none" stroke="#e377c2" cx="597.98" cy="-61.1" rx="50.82" ry="16.03"/>
<text text-anchor="middle" x="597.98" y="-57.4" font-family="Times,serif" font-size="14.00">ODRL&#45;3</text>
</g>
<!-- http://purl.org/oseg/ontologies/OTRL#ODRL&#45;3&#45;&gt;http://purl.org/oseg/ontologies/OTRL#ODRL -->
<g id="edge13" class="edge">
<title>http://purl.org/oseg/ontologies/OTRL#ODRL&#45;3&#45;&gt;http://purl.org/oseg/ontologies/OTRL#ODRL</title>
<path fill="none" stroke="black" d="M567.48,-74.19C557.75,-78.36 546.86,-83.03 536.69,-87.4"/>
<polygon fill="black" stroke="black" points="535.02,-84.31 527.21,-91.46 537.78,-90.74 535.02,-84.31"/>
</g>
<!-- http://purl.org/oseg/ontologies/OTRL#ODRL&#45;3&#45;&gt;http://www.w3.org/2002/07/owl#class -->
<g id="edge36" class="edge">
<title>http://purl.org/oseg/ontologies/OTRL#ODRL&#45;3&#45;&gt;http://www.w3.org/2002/07/owl#class</title>
<path fill="none" stroke="black" d="M586.45,-77.3C559.72,-114.84 493.43,-207.96 461.83,-252.36"/>
<polygon fill="black" stroke="black" points="458.94,-250.38 455.99,-260.55 464.64,-254.44 458.94,-250.38"/>
<text text-anchor="middle" x="519.64" y="-168.63" font-family="Times,serif" font-size="14.00">a</text>
</g>
<!-- http://purl.org/oseg/ontologies/OTRL#OTRL&#45;4 -->
<g id="node15" class="node">
<title>http://purl.org/oseg/ontologies/OTRL#OTRL&#45;4</title>
<ellipse fill="none" stroke="#e377c2" cx="430.25" cy="-391.94" rx="49.49" ry="16.03"/>
<text text-anchor="middle" x="430.25" y="-388.24" font-family="Times,serif" font-size="14.00">OTRL&#45;4</text>
</g>
<!-- http://purl.org/oseg/ontologies/OTRL#OTRL&#45;4&#45;&gt;http://purl.org/oseg/ontologies/OTRL#OTRL -->
<g id="edge38" class="edge">
<title>http://purl.org/oseg/ontologies/OTRL#OTRL&#45;4&#45;&gt;http://purl.org/oseg/ontologies/OTRL#OTRL</title>
<path fill="none" stroke="black" d="M421.58,-407.99C408.71,-431.81 384.46,-476.71 369.3,-504.76"/>
<polygon fill="black" stroke="black" points="366.22,-503.11 364.54,-513.57 372.38,-506.43 366.22,-503.11"/>
</g>
<!-- http://purl.org/oseg/ontologies/OTRL#OTRL&#45;4&#45;&gt;http://www.w3.org/2002/07/owl#class -->
<g id="edge14" class="edge">
<title>http://purl.org/oseg/ontologies/OTRL#OTRL&#45;4&#45;&gt;http://www.w3.org/2002/07/owl#class</title>
<path fill="none" stroke="black" d="M432.3,-375.42C434.63,-356.59 438.48,-325.53 441.24,-303.27"/>
<polygon fill="black" stroke="black" points="444.74,-303.49 442.49,-293.14 437.79,-302.63 444.74,-303.49"/>
<text text-anchor="middle" x="432.27" y="-343.14" font-family="Times,serif" font-size="14.00">a</text>
</g>
<!-- http://purl.org/oseg/ontologies/OTRL#OTRL&#45;5 -->
<g id="node16" class="node">
<title>http://purl.org/oseg/ontologies/OTRL#OTRL&#45;5</title>
<ellipse fill="none" stroke="#e377c2" cx="545.05" cy="-524.1" rx="49.49" ry="16.03"/>
<text text-anchor="middle" x="545.05" y="-520.4" font-family="Times,serif" font-size="14.00">OTRL&#45;5</text>
</g>
<!-- http://purl.org/oseg/ontologies/OTRL#OTRL&#45;5&#45;&gt;http://purl.org/oseg/ontologies/OTRL#OTRL -->
<g id="edge16" class="edge">
<title>http://purl.org/oseg/ontologies/OTRL#OTRL&#45;5&#45;&gt;http://purl.org/oseg/ontologies/OTRL#OTRL</title>
<path fill="none" stroke="black" d="M495.36,-525.52C467.7,-526.31 433.38,-527.3 405.71,-528.09"/>
<polygon fill="black" stroke="black" points="405.35,-524.6 395.45,-528.38 405.55,-531.6 405.35,-524.6"/>
</g>
<!-- http://purl.org/oseg/ontologies/OTRL#OTRL&#45;5&#45;&gt;http://www.w3.org/2002/07/owl#class -->
<g id="edge37" class="edge">
<title>http://purl.org/oseg/ontologies/OTRL#OTRL&#45;5&#45;&gt;http://www.w3.org/2002/07/owl#class</title>
<path fill="none" stroke="black" d="M538.45,-507.86C521.38,-465.83 475.62,-353.19 454.94,-302.27"/>
<polygon fill="black" stroke="black" points="458.16,-300.89 451.15,-292.95 451.67,-303.53 458.16,-300.89"/>
<text text-anchor="middle" x="492.2" y="-393.86" font-family="Times,serif" font-size="14.00">a</text>
</g>
<!-- http://purl.org/oseg/ontologies/OTRL#exitCriteria -->
<g id="node17" class="node">
<title>http://purl.org/oseg/ontologies/OTRL#exitCriteria</title>
<ellipse fill="none" stroke="#e377c2" cx="340.55" cy="-786.52" rx="70.01" ry="16.03"/>
<text text-anchor="middle" x="340.55" y="-782.82" font-family="Times,serif" font-size="14.00">exitCriteria</text>
</g>
<!-- http://purl.org/oseg/ontologies/OTRL#exitCriteria&#45;&gt;http://purl.org/oseg/ontologies/OTRL#OTRL -->
<g id="edge6" class="edge">
<title>http://purl.org/oseg/ontologies/OTRL#exitCriteria&#45;&gt;http://purl.org/oseg/ontologies/OTRL#OTRL</title>
<path fill="none" stroke="black" d="M341.54,-770.05C344.13,-726.71 351.16,-609.19 354.33,-556.14"/>
<polygon fill="black" stroke="black" points="357.85,-556.04 354.95,-545.85 350.86,-555.62 357.85,-556.04"/>
<text text-anchor="middle" x="321.44" y="-666.89" font-family="Times,serif" font-size="14.00">domain</text>
</g>
<!-- http://purl.org/oseg/ontologies/OTRL#exitCriteria&#45;&gt;http://schema.org/Text -->
<g id="edge40" class="edge">
<title>http://purl.org/oseg/ontologies/OTRL#exitCriteria&#45;&gt;http://schema.org/Text</title>
<path fill="none" stroke="black" d="M329.65,-802.83C305.85,-838.43 249.15,-923.26 220.96,-965.43"/>
<polygon fill="black" stroke="black" points="217.89,-963.73 215.24,-973.99 223.71,-967.62 217.89,-963.73"/>
<text text-anchor="middle" x="254.3" y="-887.93" font-family="Times,serif" font-size="14.00">range</text>
</g>
<!-- http://purl.org/oseg/ontologies/OTRL#softwareDescription -->
<g id="node18" class="node">
<title>http://purl.org/oseg/ontologies/OTRL#softwareDescription</title>
<ellipse fill="none" stroke="#e377c2" cx="114.14" cy="-715.23" rx="113.69" ry="16.03"/>
<text text-anchor="middle" x="114.14" y="-711.53" font-family="Times,serif" font-size="14.00">softwareDescription</text>
</g>
<!-- http://purl.org/oseg/ontologies/OTRL#softwareDescription&#45;&gt;http://purl.org/oseg/ontologies/OTRL#OTRL -->
<g id="edge8" class="edge">
<title>http://purl.org/oseg/ontologies/OTRL#softwareDescription&#45;&gt;http://purl.org/oseg/ontologies/OTRL#OTRL</title>
<path fill="none" stroke="black" d="M135.18,-699.07C179.07,-665.35 280.38,-587.54 328.97,-550.22"/>
<polygon fill="black" stroke="black" points="331.33,-552.82 337.13,-543.95 327.07,-547.27 331.33,-552.82"/>
<text text-anchor="middle" x="205.57" y="-628.45" font-family="Times,serif" font-size="14.00">domain</text>
</g>
<!-- http://purl.org/oseg/ontologies/OTRL#softwareDescription&#45;&gt;http://schema.org/Text -->
<g id="edge1" class="edge">
<title>http://purl.org/oseg/ontologies/OTRL#softwareDescription&#45;&gt;http://schema.org/Text</title>
<path fill="none" stroke="black" d="M119.52,-731.6C134.65,-777.62 177.63,-908.43 195.99,-964.29"/>
<polygon fill="black" stroke="black" points="192.67,-965.41 199.12,-973.81 199.32,-963.22 192.67,-965.41"/>
<text text-anchor="middle" x="136.76" y="-851.74" font-family="Times,serif" font-size="14.00">range</text>
</g>
<!-- http://purl.org/oseg/ontologies/OTRL#OTRL&#45;3 -->
<g id="node19" class="node">
<title>http://purl.org/oseg/ontologies/OTRL#OTRL&#45;3</title>
<ellipse fill="none" stroke="#e377c2" cx="246.93" cy="-428.34" rx="49.49" ry="16.03"/>
<text text-anchor="middle" x="246.93" y="-424.64" font-family="Times,serif" font-size="14.00">OTRL&#45;3</text>
</g>
<!-- http://purl.org/oseg/ontologies/OTRL#OTRL&#45;3&#45;&gt;http://purl.org/oseg/ontologies/OTRL#OTRL -->
<g id="edge30" class="edge">
<title>http://purl.org/oseg/ontologies/OTRL#OTRL&#45;3&#45;&gt;http://purl.org/oseg/ontologies/OTRL#OTRL</title>
<path fill="none" stroke="black" d="M263.48,-443.71C281.75,-460.67 311.32,-488.11 332.09,-507.39"/>
<polygon fill="black" stroke="black" points="329.86,-510.1 339.57,-514.34 334.63,-504.97 329.86,-510.1"/>
</g>
<!-- http://purl.org/oseg/ontologies/OTRL#OTRL&#45;3&#45;&gt;http://www.w3.org/2002/07/owl#class -->
<g id="edge18" class="edge">
<title>http://purl.org/oseg/ontologies/OTRL#OTRL&#45;3&#45;&gt;http://www.w3.org/2002/07/owl#class</title>
<path fill="none" stroke="black" d="M266.6,-413.24C301.87,-386.17 375.97,-329.29 416.53,-298.15"/>
<polygon fill="black" stroke="black" points="418.85,-300.78 424.65,-291.91 414.59,-295.23 418.85,-300.78"/>
<text text-anchor="middle" x="337.06" y="-344.5" font-family="Times,serif" font-size="14.00">a</text>
</g>
<!-- http://purl.org/oseg/ontologies/OTRL#hardwareDescription -->
<g id="node20" class="node">
<title>http://purl.org/oseg/ontologies/OTRL#hardwareDescription</title>
<ellipse fill="none" stroke="#e377c2" cx="144.07" cy="-772.65" rx="118.17" ry="16.03"/>
<text text-anchor="middle" x="144.07" y="-768.95" font-family="Times,serif" font-size="14.00">hardwareDescription</text>
</g>
<!-- http://purl.org/oseg/ontologies/OTRL#hardwareDescription&#45;&gt;http://purl.org/oseg/ontologies/OTRL#OTRL -->
<g id="edge41" class="edge">
<title>http://purl.org/oseg/ontologies/OTRL#hardwareDescription&#45;&gt;http://purl.org/oseg/ontologies/OTRL#OTRL</title>
<path fill="none" stroke="black" d="M158.3,-756.32C195.04,-714.15 293.21,-601.49 335.78,-552.64"/>
<polygon fill="black" stroke="black" points="338.65,-554.67 342.58,-544.83 333.37,-550.07 338.65,-554.67"/>
<text text-anchor="middle" x="220.54" y="-658.28" font-family="Times,serif" font-size="14.00">domain</text>
</g>
<!-- http://purl.org/oseg/ontologies/OTRL#hardwareDescription&#45;&gt;http://schema.org/Text -->
<g id="edge21" class="edge">
<title>http://purl.org/oseg/ontologies/OTRL#hardwareDescription&#45;&gt;http://schema.org/Text</title>
<path fill="none" stroke="black" d="M148.61,-789C159.02,-826.47 184.68,-918.85 197.27,-964.18"/>
<polygon fill="black" stroke="black" points="193.91,-965.16 199.96,-973.86 200.66,-963.29 193.91,-965.16"/>
<text text-anchor="middle" x="151.94" y="-880.39" font-family="Times,serif" font-size="14.00">range</text>
</g>
<!-- http://purl.org/oseg/ontologies/OTRL#OTRL&#45;2 -->
<g id="node21" class="node">
<title>http://purl.org/oseg/ontologies/OTRL#OTRL&#45;2</title>
<ellipse fill="none" stroke="#e377c2" cx="544.12" cy="-423.52" rx="49.49" ry="16.03"/>
<text text-anchor="middle" x="544.12" y="-419.82" font-family="Times,serif" font-size="14.00">OTRL&#45;2</text>
</g>
<!-- http://purl.org/oseg/ontologies/OTRL#OTRL&#45;2&#45;&gt;http://purl.org/oseg/ontologies/OTRL#OTRL -->
<g id="edge19" class="edge">
<title>http://purl.org/oseg/ontologies/OTRL#OTRL&#45;2&#45;&gt;http://purl.org/oseg/ontologies/OTRL#OTRL</title>
<path fill="none" stroke="black" d="M519.13,-437.6C485.48,-456.55 425.57,-490.29 388.45,-511.2"/>
<polygon fill="black" stroke="black" points="386.53,-508.26 379.54,-516.22 389.97,-514.36 386.53,-508.26"/>
</g>
<!-- http://purl.org/oseg/ontologies/OTRL#OTRL&#45;2&#45;&gt;http://www.w3.org/2002/07/owl#class -->
<g id="edge39" class="edge">
<title>http://purl.org/oseg/ontologies/OTRL#OTRL&#45;2&#45;&gt;http://www.w3.org/2002/07/owl#class</title>
<path fill="none" stroke="black" d="M533.27,-407.52C515.83,-381.81 481.46,-331.12 460.99,-300.93"/>
<polygon fill="black" stroke="black" points="463.88,-298.94 455.37,-292.63 458.08,-302.87 463.88,-298.94"/>
<text text-anchor="middle" x="492.63" y="-358.02" font-family="Times,serif" font-size="14.00">a</text>
</g>
<!-- http://purl.org/oseg/ontologies/OTRL#ODRL&#45;2 -->
<g id="node22" class="node">
<title>http://purl.org/oseg/ontologies/OTRL#ODRL&#45;2</title>
<ellipse fill="none" stroke="#e377c2" cx="368.93" cy="-32.41" rx="50.82" ry="16.03"/>
<text text-anchor="middle" x="368.93" y="-28.71" font-family="Times,serif" font-size="14.00">ODRL&#45;2</text>
</g>
<!-- http://purl.org/oseg/ontologies/OTRL#ODRL&#45;2&#45;&gt;http://purl.org/oseg/ontologies/OTRL#ODRL -->
<g id="edge28" class="edge">
<title>http://purl.org/oseg/ontologies/OTRL#ODRL&#45;2&#45;&gt;http://purl.org/oseg/ontologies/OTRL#ODRL</title>
<path fill="none" stroke="black" d="M394.63,-46.47C414.97,-57.6 443.53,-73.22 465.64,-85.32"/>
<polygon fill="black" stroke="black" points="464.22,-88.53 474.67,-90.26 467.58,-82.39 464.22,-88.53"/>
</g>
<!-- http://purl.org/oseg/ontologies/OTRL#ODRL&#45;2&#45;&gt;http://www.w3.org/2002/07/owl#class -->
<g id="edge20" class="edge">
<title>http://purl.org/oseg/ontologies/OTRL#ODRL&#45;2&#45;&gt;http://www.w3.org/2002/07/owl#class</title>
<path fill="none" stroke="black" d="M374.01,-48.81C386.87,-90.35 420.8,-199.97 436.43,-250.48"/>
<polygon fill="black" stroke="black" points="433.18,-251.8 439.48,-260.32 439.86,-249.73 433.18,-251.8"/>
<text text-anchor="middle" x="400.72" y="-153.45" font-family="Times,serif" font-size="14.00">a</text>
</g>
<!-- http://purl.org/oseg/ontologies/OTRL#documentationDescription -->
<g id="node23" class="node">
<title>http://purl.org/oseg/ontologies/OTRL#documentationDescription</title>
<ellipse fill="none" stroke="#e377c2" cx="429.24" cy="-842.04" rx="120.83" ry="16.03"/>
<text text-anchor="middle" x="429.24" y="-838.34" font-family="Times,serif" font-size="14.00">documentationDesc...</text>
</g>
<!-- http://purl.org/oseg/ontologies/OTRL#documentationDescription&#45;&gt;http://purl.org/oseg/ontologies/OTRL#OTRL -->
<g id="edge23" class="edge">
<title>http://purl.org/oseg/ontologies/OTRL#documentationDescription&#45;&gt;http://purl.org/oseg/ontologies/OTRL#OTRL</title>
<path fill="none" stroke="black" d="M425.4,-825.68C413.43,-774.62 376.68,-617.96 362.04,-555.56"/>
<polygon fill="black" stroke="black" points="365.42,-554.65 359.73,-545.72 358.6,-556.25 365.42,-554.65"/>
<text text-anchor="middle" x="367.22" y="-694.42" font-family="Times,serif" font-size="14.00">domain</text>
</g>
<!-- http://purl.org/oseg/ontologies/OTRL#documentationDescription&#45;&gt;http://schema.org/Text -->
<g id="edge3" class="edge">
<title>http://purl.org/oseg/ontologies/OTRL#documentationDescription&#45;&gt;http://schema.org/Text</title>
<path fill="none" stroke="black" d="M404.76,-858.17C364.01,-885.01 282.28,-938.85 236.83,-968.78"/>
<polygon fill="black" stroke="black" points="234.67,-966.01 228.24,-974.44 238.52,-971.86 234.67,-966.01"/>
<text text-anchor="middle" x="299.79" y="-917.27" font-family="Times,serif" font-size="14.00">range</text>
</g>
<!-- http://purl.org/oseg/ontologies/OTRL#OTRL&#45;8 -->
<g id="node24" class="node">
<title>http://purl.org/oseg/ontologies/OTRL#OTRL&#45;8</title>
<ellipse fill="none" stroke="#e377c2" cx="566.19" cy="-473.21" rx="49.49" ry="16.03"/>
<text text-anchor="middle" x="566.19" y="-469.51" font-family="Times,serif" font-size="14.00">OTRL&#45;8</text>
</g>
<!-- http://purl.org/oseg/ontologies/OTRL#OTRL&#45;8&#45;&gt;http://purl.org/oseg/ontologies/OTRL#OTRL -->
<g id="edge35" class="edge">
<title>http://purl.org/oseg/ontologies/OTRL#OTRL&#45;8&#45;&gt;http://purl.org/oseg/ontologies/OTRL#OTRL</title>
<path fill="none" stroke="black" d="M527.62,-483.54C491.27,-493.27 436.89,-507.84 399.1,-517.95"/>
<polygon fill="black" stroke="black" points="398.15,-514.59 389.4,-520.55 399.96,-521.35 398.15,-514.59"/>
</g>
<!-- http://purl.org/oseg/ontologies/OTRL#OTRL&#45;8&#45;&gt;http://www.w3.org/2002/07/owl#class -->
<g id="edge22" class="edge">
<title>http://purl.org/oseg/ontologies/OTRL#OTRL&#45;8&#45;&gt;http://www.w3.org/2002/07/owl#class</title>
<path fill="none" stroke="black" d="M556.23,-457.12C534.97,-422.77 485.01,-342.05 459.74,-301.22"/>
<polygon fill="black" stroke="black" points="462.7,-299.34 454.46,-292.68 456.74,-303.03 462.7,-299.34"/>
<text text-anchor="middle" x="503.49" y="-382.97" font-family="Times,serif" font-size="14.00">a</text>
</g>
</g>
</svg>
