<?xml version="1.0" encoding="UTF-8" standalone="no"?>
<!DOCTYPE svg PUBLIC "-//W3C//DTD SVG 1.1//EN"
 "http://www.w3.org/Graphics/SVG/1.1/DTD/svg11.dtd">
<!-- Generated by graphviz version 2.43.0 (0)
 -->
<!-- Title: G Pages: 1 -->
<svg width="647pt" height="437pt"
 viewBox="0.00 0.00 647.05 437.00" xmlns="http://www.w3.org/2000/svg" xmlns:xlink="http://www.w3.org/1999/xlink">
<g id="graph0" class="graph" transform="scale(1 1) rotate(0) translate(4 433)">
<title>G</title>
<polygon fill="white" stroke="transparent" points="-4,4 -4,-433 643.05,-433 643.05,4 -4,4"/>
<!-- http://purl.org/oseg/ontologies/OTRL#OTRL -->
<g id="node1" class="node">
<title>http://purl.org/oseg/ontologies/OTRL#OTRL</title>
<ellipse fill="none" stroke="#e377c2" cx="72.08" cy="-225.53" rx="39.7" ry="16.03"/>
<text text-anchor="middle" x="72.08" y="-221.83" font-family="Times,serif" font-size="14.00">OTRL</text>
</g>
<!-- http://www.w3.org/2002/07/owl#class -->
<g id="node2" class="node">
<title>http://www.w3.org/2002/07/owl#class</title>
<ellipse fill="none" stroke="#1f77b4" cx="218.46" cy="-184.37" rx="57.05" ry="16.03"/>
<text text-anchor="middle" x="218.46" y="-180.67" font-family="Times,serif" font-size="14.00">owl:class</text>
</g>
<!-- http://purl.org/oseg/ontologies/OTRL#OTRL&#45;&gt;http://www.w3.org/2002/07/owl#class -->
<g id="edge25" class="edge">
<title>http://purl.org/oseg/ontologies/OTRL#OTRL&#45;&gt;http://www.w3.org/2002/07/owl#class</title>
<path fill="none" stroke="black" d="M104.93,-216.29C123.48,-211.08 147.07,-204.44 167.93,-198.58"/>
<polygon fill="black" stroke="black" points="168.93,-201.93 177.61,-195.86 167.03,-195.19 168.93,-201.93"/>
<text text-anchor="middle" x="131.93" y="-211.23" font-family="Times,serif" font-size="14.00">a</text>
</g>
<!-- http://purl.org/oseg/ontologies/OTRL#ODRL -->
<g id="node3" class="node">
<title>http://purl.org/oseg/ontologies/OTRL#ODRL</title>
<ellipse fill="none" stroke="#e377c2" cx="318.6" cy="-97.26" rx="41.94" ry="16.03"/>
<text text-anchor="middle" x="318.6" y="-93.56" font-family="Times,serif" font-size="14.00">ODRL</text>
</g>
<!-- http://purl.org/oseg/ontologies/OTRL#Otrl3 -->
<g id="node4" class="node">
<title>http://purl.org/oseg/ontologies/OTRL#Otrl3</title>
<ellipse fill="none" stroke="#e377c2" cx="37.71" cy="-183.86" rx="38.37" ry="16.03"/>
<text text-anchor="middle" x="37.71" y="-180.16" font-family="Times,serif" font-size="14.00">Otrl3</text>
</g>
<!-- http://purl.org/oseg/ontologies/OTRL#Otrl3&#45;&gt;http://purl.org/oseg/ontologies/OTRL#OTRL -->
<g id="edge12" class="edge">
<title>http://purl.org/oseg/ontologies/OTRL#Otrl3&#45;&gt;http://purl.org/oseg/ontologies/OTRL#OTRL</title>
<path fill="none" stroke="black" d="M50.5,-199.38C51.21,-200.23 51.93,-201.1 52.65,-201.98"/>
<polygon fill="black" stroke="black" points="50.09,-204.37 59.15,-209.86 55.49,-199.92 50.09,-204.37"/>
</g>
<!-- http://purl.org/oseg/ontologies/OTRL#Otrl3&#45;&gt;http://www.w3.org/2002/07/owl#class -->
<g id="edge1" class="edge">
<title>http://purl.org/oseg/ontologies/OTRL#Otrl3&#45;&gt;http://www.w3.org/2002/07/owl#class</title>
<path fill="none" stroke="black" d="M76.04,-183.97C97.72,-184.03 125.45,-184.11 150.68,-184.18"/>
<polygon fill="black" stroke="black" points="150.93,-187.68 160.94,-184.21 150.95,-180.68 150.93,-187.68"/>
<text text-anchor="middle" x="108.86" y="-187.87" font-family="Times,serif" font-size="14.00">a</text>
</g>
<!-- http://purl.org/oseg/ontologies/OTRL#Odrl -->
<g id="node5" class="node">
<title>http://purl.org/oseg/ontologies/OTRL#Odrl</title>
<ellipse fill="none" stroke="#e377c2" cx="279.11" cy="-354.94" rx="33.88" ry="16.03"/>
<text text-anchor="middle" x="279.11" y="-351.24" font-family="Times,serif" font-size="14.00">Odrl</text>
</g>
<!-- http://purl.org/oseg/ontologies/OTRL#Odrl&#45;&gt;http://www.w3.org/2002/07/owl#class -->
<g id="edge17" class="edge">
<title>http://purl.org/oseg/ontologies/OTRL#Odrl&#45;&gt;http://www.w3.org/2002/07/owl#class</title>
<path fill="none" stroke="black" d="M273.41,-338.89C262.91,-309.38 240.46,-246.24 227.74,-210.48"/>
<polygon fill="black" stroke="black" points="230.93,-209 224.28,-200.75 224.33,-211.34 230.93,-209"/>
<text text-anchor="middle" x="246.07" y="-278.49" font-family="Times,serif" font-size="14.00">a</text>
</g>
<!-- http://purl.org/oseg/ontologies/OTRL#Otrl2 -->
<g id="node6" class="node">
<title>http://purl.org/oseg/ontologies/OTRL#Otrl2</title>
<ellipse fill="none" stroke="#e377c2" cx="69.28" cy="-292.97" rx="38.37" ry="16.03"/>
<text text-anchor="middle" x="69.28" y="-289.27" font-family="Times,serif" font-size="14.00">Otrl2</text>
</g>
<!-- http://purl.org/oseg/ontologies/OTRL#Otrl2&#45;&gt;http://purl.org/oseg/ontologies/OTRL#OTRL -->
<g id="edge14" class="edge">
<title>http://purl.org/oseg/ontologies/OTRL#Otrl2&#45;&gt;http://purl.org/oseg/ontologies/OTRL#OTRL</title>
<path fill="none" stroke="black" d="M69.96,-276.65C70.26,-269.3 70.63,-260.44 70.97,-252.17"/>
<polygon fill="black" stroke="black" points="74.47,-252.31 71.39,-242.17 67.48,-252.02 74.47,-252.31"/>
</g>
<!-- http://purl.org/oseg/ontologies/OTRL#Otrl2&#45;&gt;http://www.w3.org/2002/07/owl#class -->
<g id="edge18" class="edge">
<title>http://purl.org/oseg/ontologies/OTRL#Otrl2&#45;&gt;http://www.w3.org/2002/07/owl#class</title>
<path fill="none" stroke="black" d="M88.79,-278.77C114.37,-260.14 159.51,-227.29 189.2,-205.67"/>
<polygon fill="black" stroke="black" points="191.48,-208.34 197.51,-199.62 187.36,-202.68 191.48,-208.34"/>
<text text-anchor="middle" x="134.49" y="-246.02" font-family="Times,serif" font-size="14.00">a</text>
</g>
<!-- http://purl.org/oseg/ontologies/OTRL#Odrl2 -->
<g id="node7" class="node">
<title>http://purl.org/oseg/ontologies/OTRL#Odrl2</title>
<ellipse fill="none" stroke="#e377c2" cx="225.23" cy="-16.28" rx="40.11" ry="16.03"/>
<text text-anchor="middle" x="225.23" y="-12.58" font-family="Times,serif" font-size="14.00">Odrl2</text>
</g>
<!-- http://purl.org/oseg/ontologies/OTRL#Odrl2&#45;&gt;http://www.w3.org/2002/07/owl#class -->
<g id="edge2" class="edge">
<title>http://purl.org/oseg/ontologies/OTRL#Odrl2&#45;&gt;http://www.w3.org/2002/07/owl#class</title>
<path fill="none" stroke="black" d="M224.57,-32.7C223.4,-61.75 220.95,-122.43 219.54,-157.6"/>
<polygon fill="black" stroke="black" points="216.04,-157.5 219.13,-167.63 223.03,-157.78 216.04,-157.5"/>
<text text-anchor="middle" x="217.55" y="-98.95" font-family="Times,serif" font-size="14.00">a</text>
</g>
<!-- http://purl.org/oseg/ontologies/OTRL#Odrl2&#45;&gt;http://purl.org/oseg/ontologies/OTRL#ODRL -->
<g id="edge11" class="edge">
<title>http://purl.org/oseg/ontologies/OTRL#Odrl2&#45;&gt;http://purl.org/oseg/ontologies/OTRL#ODRL</title>
<path fill="none" stroke="black" d="M242.36,-31.13C256.61,-43.49 277.12,-61.28 293.27,-75.29"/>
<polygon fill="black" stroke="black" points="291.42,-78.32 301.27,-82.22 296.01,-73.03 291.42,-78.32"/>
</g>
<!-- http://purl.org/oseg/ontologies/OTRL#Odrl3Star -->
<g id="node8" class="node">
<title>http://purl.org/oseg/ontologies/OTRL#Odrl3Star</title>
<ellipse fill="none" stroke="#e377c2" cx="394.13" cy="-264.73" rx="62.45" ry="16.03"/>
<text text-anchor="middle" x="394.13" y="-261.03" font-family="Times,serif" font-size="14.00">Odrl3Star</text>
</g>
<!-- http://purl.org/oseg/ontologies/OTRL#Odrl3Star&#45;&gt;http://www.w3.org/2002/07/owl#class -->
<g id="edge19" class="edge">
<title>http://purl.org/oseg/ontologies/OTRL#Odrl3Star&#45;&gt;http://www.w3.org/2002/07/owl#class</title>
<path fill="none" stroke="black" d="M363.13,-250.55C333.94,-237.2 290.07,-217.13 258.3,-202.6"/>
<polygon fill="black" stroke="black" points="259.41,-199.25 248.86,-198.28 256.49,-205.62 259.41,-199.25"/>
<text text-anchor="middle" x="306.21" y="-230.37" font-family="Times,serif" font-size="14.00">a</text>
</g>
<!-- http://purl.org/oseg/ontologies/OTRL#Odrl3Star&#45;&gt;http://purl.org/oseg/ontologies/OTRL#ODRL -->
<g id="edge3" class="edge">
<title>http://purl.org/oseg/ontologies/OTRL#Odrl3Star&#45;&gt;http://purl.org/oseg/ontologies/OTRL#ODRL</title>
<path fill="none" stroke="black" d="M386.75,-248.37C373.57,-219.15 345.91,-157.82 330.18,-122.94"/>
<polygon fill="black" stroke="black" points="333.2,-121.12 325.9,-113.44 326.82,-123.99 333.2,-121.12"/>
</g>
<!-- http://purl.org/oseg/ontologies/OTRL#Otrl4 -->
<g id="node9" class="node">
<title>http://purl.org/oseg/ontologies/OTRL#Otrl4</title>
<ellipse fill="none" stroke="#e377c2" cx="133.41" cy="-109.64" rx="38.37" ry="16.03"/>
<text text-anchor="middle" x="133.41" y="-105.94" font-family="Times,serif" font-size="14.00">Otrl4</text>
</g>
<!-- http://purl.org/oseg/ontologies/OTRL#Otrl4&#45;&gt;http://purl.org/oseg/ontologies/OTRL#OTRL -->
<g id="edge26" class="edge">
<title>http://purl.org/oseg/ontologies/OTRL#Otrl4&#45;&gt;http://purl.org/oseg/ontologies/OTRL#OTRL</title>
<path fill="none" stroke="black" d="M124.88,-125.75C114.63,-145.12 97.3,-177.86 85.31,-200.52"/>
<polygon fill="black" stroke="black" points="82.12,-199.08 80.53,-209.55 88.3,-202.35 82.12,-199.08"/>
</g>
<!-- http://purl.org/oseg/ontologies/OTRL#Otrl4&#45;&gt;http://www.w3.org/2002/07/owl#class -->
<g id="edge4" class="edge">
<title>http://purl.org/oseg/ontologies/OTRL#Otrl4&#45;&gt;http://www.w3.org/2002/07/owl#class</title>
<path fill="none" stroke="black" d="M150.21,-124.4C162.43,-135.14 179.19,-149.87 193.05,-162.04"/>
<polygon fill="black" stroke="black" points="190.99,-164.89 200.81,-168.86 195.61,-159.63 190.99,-164.89"/>
<text text-anchor="middle" x="167.13" y="-147.02" font-family="Times,serif" font-size="14.00">a</text>
</g>
<!-- http://purl.org/oseg/ontologies/OTRL#Odrl4 -->
<g id="node10" class="node">
<title>http://purl.org/oseg/ontologies/OTRL#Odrl4</title>
<ellipse fill="none" stroke="#e377c2" cx="314.13" cy="-39.51" rx="40.11" ry="16.03"/>
<text text-anchor="middle" x="314.13" y="-35.81" font-family="Times,serif" font-size="14.00">Odrl4</text>
</g>
<!-- http://purl.org/oseg/ontologies/OTRL#Odrl4&#45;&gt;http://www.w3.org/2002/07/owl#class -->
<g id="edge5" class="edge">
<title>http://purl.org/oseg/ontologies/OTRL#Odrl4&#45;&gt;http://www.w3.org/2002/07/owl#class</title>
<path fill="none" stroke="black" d="M303.71,-55.29C287.12,-80.41 254.56,-129.7 234.84,-159.57"/>
<polygon fill="black" stroke="black" points="231.75,-157.9 229.16,-168.17 237.59,-161.75 231.75,-157.9"/>
<text text-anchor="middle" x="264.77" y="-111.23" font-family="Times,serif" font-size="14.00">a</text>
</g>
<!-- http://purl.org/oseg/ontologies/OTRL#Odrl4&#45;&gt;http://purl.org/oseg/ontologies/OTRL#ODRL -->
<g id="edge21" class="edge">
<title>http://purl.org/oseg/ontologies/OTRL#Odrl4&#45;&gt;http://purl.org/oseg/ontologies/OTRL#ODRL</title>
<path fill="none" stroke="black" d="M315.4,-55.91C315.75,-60.5 316.15,-65.61 316.54,-70.64"/>
<polygon fill="black" stroke="black" points="313.05,-70.92 317.31,-80.62 320.03,-70.38 313.05,-70.92"/>
</g>
<!-- http://purl.org/oseg/ontologies/OTRL#Odrl3 -->
<g id="node11" class="node">
<title>http://purl.org/oseg/ontologies/OTRL#Odrl3</title>
<ellipse fill="none" stroke="#e377c2" cx="407.23" cy="-138.48" rx="40.11" ry="16.03"/>
<text text-anchor="middle" x="407.23" y="-134.78" font-family="Times,serif" font-size="14.00">Odrl3</text>
</g>
<!-- http://purl.org/oseg/ontologies/OTRL#Odrl3&#45;&gt;http://www.w3.org/2002/07/owl#class -->
<g id="edge20" class="edge">
<title>http://purl.org/oseg/ontologies/OTRL#Odrl3&#45;&gt;http://www.w3.org/2002/07/owl#class</title>
<path fill="none" stroke="black" d="M372.61,-146.89C344.44,-153.74 304.21,-163.52 271.91,-171.37"/>
<polygon fill="black" stroke="black" points="271.06,-167.98 262.17,-173.74 272.71,-174.78 271.06,-167.98"/>
<text text-anchor="middle" x="317.76" y="-162.93" font-family="Times,serif" font-size="14.00">a</text>
</g>
<!-- http://purl.org/oseg/ontologies/OTRL#Odrl3&#45;&gt;http://purl.org/oseg/ontologies/OTRL#ODRL -->
<g id="edge24" class="edge">
<title>http://purl.org/oseg/ontologies/OTRL#Odrl3&#45;&gt;http://purl.org/oseg/ontologies/OTRL#ODRL</title>
<path fill="none" stroke="black" d="M380.64,-126.11C372.48,-122.31 363.35,-118.07 354.67,-114.03"/>
<polygon fill="black" stroke="black" points="356.02,-110.8 345.48,-109.76 353.07,-117.15 356.02,-110.8"/>
</g>
<!-- http://www.w3.org/1999/02/22&#45;rdf&#45;syntax&#45;ns#nil -->
<g id="node12" class="node">
<title>http://www.w3.org/1999/02/22&#45;rdf&#45;syntax&#45;ns#nil</title>
<ellipse fill="none" stroke="#e377c2" cx="108.24" cy="-38.64" rx="42.35" ry="16.03"/>
<text text-anchor="middle" x="108.24" y="-34.94" font-family="Times,serif" font-size="14.00">rdf:nil</text>
</g>
<!-- http://purl.org/oseg/ontologies/OTRL -->
<g id="node13" class="node">
<title>http://purl.org/oseg/ontologies/OTRL</title>
<ellipse fill="none" stroke="#e377c2" cx="457.24" cy="-60.64" rx="60.62" ry="16.03"/>
<text text-anchor="middle" x="457.24" y="-56.94" font-family="Times,serif" font-size="14.00">ns1:OTRL</text>
</g>
<!-- http://purl.org/oseg/ontologies/OTRL&#45;&gt;http://purl.org/oseg/ontologies/OTRL -->
<g id="edge10" class="edge">
<title>http://purl.org/oseg/ontologies/OTRL&#45;&gt;http://purl.org/oseg/ontologies/OTRL</title>
<path fill="none" stroke="black" d="M512.84,-67.27C526.17,-66.75 536.05,-64.54 536.05,-60.64 536.05,-57.81 530.83,-55.86 522.87,-54.81"/>
<polygon fill="black" stroke="black" points="523.09,-51.32 512.84,-54.01 522.53,-58.3 523.09,-51.32"/>
<text text-anchor="middle" x="587.55" y="-56.94" font-family="Times,serif" font-size="14.00">owl:versionIRI</text>
</g>
<!-- http://purl.org/oseg/ontologies/OTRL#goal -->
<g id="node14" class="node">
<title>http://purl.org/oseg/ontologies/OTRL#goal</title>
<ellipse fill="none" stroke="#e377c2" cx="385.49" cy="-367.16" rx="33.47" ry="16.03"/>
<text text-anchor="middle" x="385.49" y="-363.46" font-family="Times,serif" font-size="14.00">goal</text>
</g>
<!-- http://schema.org/Text -->
<g id="node19" class="node">
<title>http://schema.org/Text</title>
<ellipse fill="none" stroke="#e377c2" cx="451.92" cy="-324.12" rx="74.91" ry="16.03"/>
<text text-anchor="middle" x="451.92" y="-320.42" font-family="Times,serif" font-size="14.00">schema:Text</text>
</g>
<!-- http://purl.org/oseg/ontologies/OTRL#goal&#45;&gt;http://schema.org/Text -->
<g id="edge27" class="edge">
<title>http://purl.org/oseg/ontologies/OTRL#goal&#45;&gt;http://schema.org/Text</title>
<path fill="none" stroke="black" d="M405.78,-354.01C410.06,-351.24 414.68,-348.25 419.28,-345.27"/>
<polygon fill="black" stroke="black" points="421.53,-347.98 428.02,-339.6 417.72,-342.1 421.53,-347.98"/>
<text text-anchor="middle" x="391.53" y="-338.44" font-family="Times,serif" font-size="14.00">range</text>
</g>
<!-- http://purl.org/oseg/ontologies/OTRL#Otrl1 -->
<g id="node15" class="node">
<title>http://purl.org/oseg/ontologies/OTRL#Otrl1</title>
<ellipse fill="none" stroke="#e377c2" cx="48.87" cy="-103.8" rx="38.37" ry="16.03"/>
<text text-anchor="middle" x="48.87" y="-100.1" font-family="Times,serif" font-size="14.00">Otrl1</text>
</g>
<!-- http://purl.org/oseg/ontologies/OTRL#Otrl1&#45;&gt;http://purl.org/oseg/ontologies/OTRL#OTRL -->
<g id="edge9" class="edge">
<title>http://purl.org/oseg/ontologies/OTRL#Otrl1&#45;&gt;http://purl.org/oseg/ontologies/OTRL#OTRL</title>
<path fill="none" stroke="black" d="M52,-120.22C55.86,-140.46 62.46,-175.11 67.04,-199.11"/>
<polygon fill="black" stroke="black" points="63.61,-199.82 68.92,-208.98 70.49,-198.51 63.61,-199.82"/>
</g>
<!-- http://purl.org/oseg/ontologies/OTRL#Otrl1&#45;&gt;http://www.w3.org/2002/07/owl#class -->
<g id="edge7" class="edge">
<title>http://purl.org/oseg/ontologies/OTRL#Otrl1&#45;&gt;http://www.w3.org/2002/07/owl#class</title>
<path fill="none" stroke="black" d="M74.63,-116.04C102.63,-129.34 147.67,-150.74 179.89,-166.05"/>
<polygon fill="black" stroke="black" points="178.5,-169.26 189.03,-170.39 181.5,-162.94 178.5,-169.26"/>
<text text-anchor="middle" x="122.76" y="-144.84" font-family="Times,serif" font-size="14.00">a</text>
</g>
<!-- http://purl.org/oseg/ontologies/OTRL#exitCriteria -->
<g id="node16" class="node">
<title>http://purl.org/oseg/ontologies/OTRL#exitCriteria</title>
<ellipse fill="none" stroke="#e377c2" cx="514.09" cy="-364.84" rx="70.01" ry="16.03"/>
<text text-anchor="middle" x="514.09" y="-361.14" font-family="Times,serif" font-size="14.00">exitCriteria</text>
</g>
<!-- http://purl.org/oseg/ontologies/OTRL#exitCriteria&#45;&gt;http://schema.org/Text -->
<g id="edge23" class="edge">
<title>http://purl.org/oseg/ontologies/OTRL#exitCriteria&#45;&gt;http://schema.org/Text</title>
<path fill="none" stroke="black" d="M490.59,-349.45C488.63,-348.17 486.63,-346.86 484.62,-345.54"/>
<polygon fill="black" stroke="black" points="486.15,-342.36 475.87,-339.81 482.32,-348.21 486.15,-342.36"/>
<text text-anchor="middle" x="508.6" y="-336.29" font-family="Times,serif" font-size="14.00">range</text>
</g>
<!-- http://purl.org/oseg/ontologies/OTRL#Otrl6 -->
<g id="node17" class="node">
<title>http://purl.org/oseg/ontologies/OTRL#Otrl6</title>
<ellipse fill="none" stroke="#e377c2" cx="194.46" cy="-236.59" rx="38.37" ry="16.03"/>
<text text-anchor="middle" x="194.46" y="-232.89" font-family="Times,serif" font-size="14.00">Otrl6</text>
</g>
<!-- http://purl.org/oseg/ontologies/OTRL#Otrl6&#45;&gt;http://purl.org/oseg/ontologies/OTRL#OTRL -->
<g id="edge6" class="edge">
<title>http://purl.org/oseg/ontologies/OTRL#Otrl6&#45;&gt;http://purl.org/oseg/ontologies/OTRL#OTRL</title>
<path fill="none" stroke="black" d="M157.07,-233.21C145.77,-232.19 133.17,-231.05 121.22,-229.97"/>
<polygon fill="black" stroke="black" points="121.2,-226.45 110.92,-229.04 120.57,-233.43 121.2,-226.45"/>
</g>
<!-- http://purl.org/oseg/ontologies/OTRL#Otrl6&#45;&gt;http://www.w3.org/2002/07/owl#class -->
<g id="edge13" class="edge">
<title>http://purl.org/oseg/ontologies/OTRL#Otrl6&#45;&gt;http://www.w3.org/2002/07/owl#class</title>
<path fill="none" stroke="black" d="M201.92,-220.35C203.44,-217.04 205.08,-213.49 206.7,-209.94"/>
<polygon fill="black" stroke="black" points="209.92,-211.32 210.92,-200.78 203.56,-208.4 209.92,-211.32"/>
<text text-anchor="middle" x="199.81" y="-203.95" font-family="Times,serif" font-size="14.00">a</text>
</g>
<!-- http://purl.org/oseg/ontologies/OTRL#Otrl -->
<g id="node18" class="node">
<title>http://purl.org/oseg/ontologies/OTRL#Otrl</title>
<ellipse fill="none" stroke="#e377c2" cx="186.24" cy="-412.64" rx="31.64" ry="16.03"/>
<text text-anchor="middle" x="186.24" y="-408.94" font-family="Times,serif" font-size="14.00">Otrl</text>
</g>
<!-- http://purl.org/oseg/ontologies/OTRL#Odrl1 -->
<g id="node20" class="node">
<title>http://purl.org/oseg/ontologies/OTRL#Odrl1</title>
<ellipse fill="none" stroke="#e377c2" cx="389.52" cy="-203.08" rx="40.11" ry="16.03"/>
<text text-anchor="middle" x="389.52" y="-199.38" font-family="Times,serif" font-size="14.00">Odrl1</text>
</g>
<!-- http://purl.org/oseg/ontologies/OTRL#Odrl1&#45;&gt;http://www.w3.org/2002/07/owl#class -->
<g id="edge15" class="edge">
<title>http://purl.org/oseg/ontologies/OTRL#Odrl1&#45;&gt;http://www.w3.org/2002/07/owl#class</title>
<path fill="none" stroke="black" d="M350.27,-198.79C330.08,-196.58 304.96,-193.83 282.09,-191.33"/>
<polygon fill="black" stroke="black" points="282.42,-187.84 272.1,-190.24 281.66,-194.8 282.42,-187.84"/>
<text text-anchor="middle" x="311.68" y="-198.86" font-family="Times,serif" font-size="14.00">a</text>
</g>
<!-- http://purl.org/oseg/ontologies/OTRL#Odrl1&#45;&gt;http://purl.org/oseg/ontologies/OTRL#ODRL -->
<g id="edge22" class="edge">
<title>http://purl.org/oseg/ontologies/OTRL#Odrl1&#45;&gt;http://purl.org/oseg/ontologies/OTRL#ODRL</title>
<path fill="none" stroke="black" d="M378.75,-187.01C367.07,-169.58 348.3,-141.57 334.83,-121.47"/>
<polygon fill="black" stroke="black" points="337.71,-119.49 329.24,-113.13 331.9,-123.39 337.71,-119.49"/>
</g>
<!-- http://purl.org/oseg/ontologies/OTRL#Otrl5 -->
<g id="node21" class="node">
<title>http://purl.org/oseg/ontologies/OTRL#Otrl5</title>
<ellipse fill="none" stroke="#e377c2" cx="140.26" cy="-348.81" rx="38.37" ry="16.03"/>
<text text-anchor="middle" x="140.26" y="-345.11" font-family="Times,serif" font-size="14.00">Otrl5</text>
</g>
<!-- http://purl.org/oseg/ontologies/OTRL#Otrl5&#45;&gt;http://purl.org/oseg/ontologies/OTRL#OTRL -->
<g id="edge8" class="edge">
<title>http://purl.org/oseg/ontologies/OTRL#Otrl5&#45;&gt;http://purl.org/oseg/ontologies/OTRL#OTRL</title>
<path fill="none" stroke="black" d="M131.49,-332.94C119.94,-312.07 99.52,-275.15 85.89,-250.51"/>
<polygon fill="black" stroke="black" points="88.94,-248.78 81.03,-241.72 82.81,-252.17 88.94,-248.78"/>
</g>
<!-- http://purl.org/oseg/ontologies/OTRL#Otrl5&#45;&gt;http://www.w3.org/2002/07/owl#class -->
<g id="edge16" class="edge">
<title>http://purl.org/oseg/ontologies/OTRL#Otrl5&#45;&gt;http://www.w3.org/2002/07/owl#class</title>
<path fill="none" stroke="black" d="M147.9,-332.74C161.47,-304.2 189.89,-244.45 206.21,-210.11"/>
<polygon fill="black" stroke="black" points="209.54,-211.28 210.67,-200.74 203.22,-208.27 209.54,-211.28"/>
<text text-anchor="middle" x="172.56" y="-275.23" font-family="Times,serif" font-size="14.00">a</text>
</g>
</g>
</svg>
