<?xml version="1.0" encoding="UTF-8" standalone="no"?>
<!DOCTYPE svg PUBLIC "-//W3C//DTD SVG 1.1//EN"
 "http://www.w3.org/Graphics/SVG/1.1/DTD/svg11.dtd">
<!-- Generated by graphviz version 2.43.0 (0)
 -->
<!-- Title: G Pages: 1 -->
<svg width="763pt" height="1093pt"
 viewBox="0.00 0.00 763.05 1093.00" xmlns="http://www.w3.org/2000/svg" xmlns:xlink="http://www.w3.org/1999/xlink">
<g id="graph0" class="graph" transform="scale(1 1) rotate(0) translate(4 1089)">
<title>G</title>
<polygon fill="white" stroke="transparent" points="-4,4 -4,-1089 759.05,-1089 759.05,4 -4,4"/>
<!-- http://purl.org/oseg/ontologies/OTRL#ODRL -->
<g id="node1" class="node">
<title>http://purl.org/oseg/ontologies/OTRL#ODRL</title>
<ellipse fill="none" stroke="#e377c2" cx="363.87" cy="-987" rx="41.94" ry="16.03"/>
<text text-anchor="middle" x="363.87" y="-983.3" font-family="Times,serif" font-size="14.00">ODRL</text>
</g>
<!-- http://www.w3.org/2002/07/owl#class -->
<g id="node3" class="node">
<title>http://www.w3.org/2002/07/owl#class</title>
<ellipse fill="none" stroke="#1f77b4" cx="335.89" cy="-782.17" rx="57.05" ry="16.03"/>
<text text-anchor="middle" x="335.89" y="-778.47" font-family="Times,serif" font-size="14.00">owl:class</text>
</g>
<!-- http://purl.org/oseg/ontologies/OTRL#ODRL&#45;&gt;http://www.w3.org/2002/07/owl#class -->
<g id="edge40" class="edge">
<title>http://purl.org/oseg/ontologies/OTRL#ODRL&#45;&gt;http://www.w3.org/2002/07/owl#class</title>
<path fill="none" stroke="black" d="M361.63,-970.58C356.8,-935.22 345.38,-851.61 339.51,-808.65"/>
<polygon fill="black" stroke="black" points="342.97,-808.1 338.14,-798.66 336.03,-809.04 342.97,-808.1"/>
<text text-anchor="middle" x="346.07" y="-893.42" font-family="Times,serif" font-size="14.00">a</text>
</g>
<!-- http://purl.org/oseg/ontologies/OTRL#OTRL -->
<g id="node2" class="node">
<title>http://purl.org/oseg/ontologies/OTRL#OTRL</title>
<ellipse fill="none" stroke="#e377c2" cx="311.85" cy="-514.87" rx="39.7" ry="16.03"/>
<text text-anchor="middle" x="311.85" y="-511.17" font-family="Times,serif" font-size="14.00">OTRL</text>
</g>
<!-- http://purl.org/oseg/ontologies/OTRL#OTRL&#45;&gt;http://www.w3.org/2002/07/owl#class -->
<g id="edge3" class="edge">
<title>http://purl.org/oseg/ontologies/OTRL#OTRL&#45;&gt;http://www.w3.org/2002/07/owl#class</title>
<path fill="none" stroke="black" d="M313.32,-531.19C317.34,-575.92 328.58,-700.83 333.51,-755.72"/>
<polygon fill="black" stroke="black" points="330.03,-756.08 334.41,-765.72 337,-755.45 330.03,-756.08"/>
<text text-anchor="middle" x="318.92" y="-647.26" font-family="Times,serif" font-size="14.00">a</text>
</g>
<!-- http://purl.org/oseg/ontologies/OTRL#OTRL&#45;5 -->
<g id="node4" class="node">
<title>http://purl.org/oseg/ontologies/OTRL#OTRL&#45;5</title>
<ellipse fill="none" stroke="#e377c2" cx="199.48" cy="-566.24" rx="49.49" ry="16.03"/>
<text text-anchor="middle" x="199.48" y="-562.54" font-family="Times,serif" font-size="14.00">OTRL&#45;5</text>
</g>
<!-- http://purl.org/oseg/ontologies/OTRL#OTRL&#45;5&#45;&gt;http://purl.org/oseg/ontologies/OTRL#OTRL -->
<g id="edge34" class="edge">
<title>http://purl.org/oseg/ontologies/OTRL#OTRL&#45;5&#45;&gt;http://purl.org/oseg/ontologies/OTRL#OTRL</title>
<path fill="none" stroke="black" d="M228.42,-553.01C242.96,-546.37 260.71,-538.25 276.1,-531.22"/>
<polygon fill="black" stroke="black" points="277.68,-534.34 285.32,-527 274.77,-527.97 277.68,-534.34"/>
</g>
<!-- http://purl.org/oseg/ontologies/OTRL#OTRL&#45;5&#45;&gt;http://www.w3.org/2002/07/owl#class -->
<g id="edge23" class="edge">
<title>http://purl.org/oseg/ontologies/OTRL#OTRL&#45;5&#45;&gt;http://www.w3.org/2002/07/owl#class</title>
<path fill="none" stroke="black" d="M209.73,-582.47C233.44,-620 292.18,-712.97 320.34,-757.55"/>
<polygon fill="black" stroke="black" points="317.41,-759.46 325.71,-766.05 323.32,-755.72 317.41,-759.46"/>
<text text-anchor="middle" x="260.54" y="-658.81" font-family="Times,serif" font-size="14.00">a</text>
</g>
<!-- http://purl.org/oseg/ontologies/OTRL#OTRL&#45;9 -->
<g id="node5" class="node">
<title>http://purl.org/oseg/ontologies/OTRL#OTRL&#45;9</title>
<ellipse fill="none" stroke="#e377c2" cx="376.49" cy="-584.58" rx="49.49" ry="16.03"/>
<text text-anchor="middle" x="376.49" y="-580.88" font-family="Times,serif" font-size="14.00">OTRL&#45;9</text>
</g>
<!-- http://purl.org/oseg/ontologies/OTRL#OTRL&#45;9&#45;&gt;http://purl.org/oseg/ontologies/OTRL#OTRL -->
<g id="edge11" class="edge">
<title>http://purl.org/oseg/ontologies/OTRL#OTRL&#45;9&#45;&gt;http://purl.org/oseg/ontologies/OTRL#OTRL</title>
<path fill="none" stroke="black" d="M361.82,-568.76C353.27,-559.54 342.35,-547.76 332.9,-537.56"/>
<polygon fill="black" stroke="black" points="335.38,-535.1 326.02,-530.14 330.25,-539.86 335.38,-535.1"/>
</g>
<!-- http://purl.org/oseg/ontologies/OTRL#OTRL&#45;9&#45;&gt;http://www.w3.org/2002/07/owl#class -->
<g id="edge1" class="edge">
<title>http://purl.org/oseg/ontologies/OTRL#OTRL&#45;9&#45;&gt;http://www.w3.org/2002/07/owl#class</title>
<path fill="none" stroke="black" d="M373.1,-601.08C366.05,-635.38 349.77,-714.61 341.28,-755.96"/>
<polygon fill="black" stroke="black" points="337.83,-755.35 339.24,-765.85 344.69,-756.76 337.83,-755.35"/>
<text text-anchor="middle" x="352.69" y="-682.32" font-family="Times,serif" font-size="14.00">a</text>
</g>
<!-- http://schema.org/Text -->
<g id="node6" class="node">
<title>http://schema.org/Text</title>
<ellipse fill="none" stroke="#e377c2" cx="344.48" cy="-16.54" rx="74.91" ry="16.03"/>
<text text-anchor="middle" x="344.48" y="-12.84" font-family="Times,serif" font-size="14.00">schema:Text</text>
</g>
<!-- http://purl.org/oseg/ontologies/OTRL#hardwareDescription -->
<g id="node7" class="node">
<title>http://purl.org/oseg/ontologies/OTRL#hardwareDescription</title>
<ellipse fill="none" stroke="#e377c2" cx="117.9" cy="-243.63" rx="118.17" ry="16.03"/>
<text text-anchor="middle" x="117.9" y="-239.93" font-family="Times,serif" font-size="14.00">hardwareDescription</text>
</g>
<!-- http://purl.org/oseg/ontologies/OTRL#hardwareDescription&#45;&gt;http://purl.org/oseg/ontologies/OTRL#OTRL -->
<g id="edge20" class="edge">
<title>http://purl.org/oseg/ontologies/OTRL#hardwareDescription&#45;&gt;http://purl.org/oseg/ontologies/OTRL#OTRL</title>
<path fill="none" stroke="black" d="M129.74,-260.19C162.77,-306.39 256.05,-436.83 294.72,-490.91"/>
<polygon fill="black" stroke="black" points="291.99,-493.11 300.65,-499.21 297.68,-489.04 291.99,-493.11"/>
<text text-anchor="middle" x="185.73" y="-379.35" font-family="Times,serif" font-size="14.00">domain</text>
</g>
<!-- http://purl.org/oseg/ontologies/OTRL#hardwareDescription&#45;&gt;http://schema.org/Text -->
<g id="edge18" class="edge">
<title>http://purl.org/oseg/ontologies/OTRL#hardwareDescription&#45;&gt;http://schema.org/Text</title>
<path fill="none" stroke="black" d="M134.19,-227.3C173.79,-187.61 275.2,-85.97 321.19,-39.89"/>
<polygon fill="black" stroke="black" points="323.74,-42.28 328.33,-32.73 318.79,-37.33 323.74,-42.28"/>
<text text-anchor="middle" x="206.69" y="-137.39" font-family="Times,serif" font-size="14.00">range</text>
</g>
<!-- http://purl.org/oseg/ontologies/OTRL#OTRL&#45;7 -->
<g id="node8" class="node">
<title>http://purl.org/oseg/ontologies/OTRL#OTRL&#45;7</title>
<ellipse fill="none" stroke="#e377c2" cx="297.09" cy="-686.2" rx="49.49" ry="16.03"/>
<text text-anchor="middle" x="297.09" y="-682.5" font-family="Times,serif" font-size="14.00">OTRL&#45;7</text>
</g>
<!-- http://purl.org/oseg/ontologies/OTRL#OTRL&#45;7&#45;&gt;http://purl.org/oseg/ontologies/OTRL#OTRL -->
<g id="edge26" class="edge">
<title>http://purl.org/oseg/ontologies/OTRL#OTRL&#45;7&#45;&gt;http://purl.org/oseg/ontologies/OTRL#OTRL</title>
<path fill="none" stroke="black" d="M298.51,-669.77C301.07,-640.09 306.47,-577.3 309.56,-541.44"/>
<polygon fill="black" stroke="black" points="313.07,-541.51 310.44,-531.25 306.1,-540.91 313.07,-541.51"/>
</g>
<!-- http://purl.org/oseg/ontologies/OTRL#OTRL&#45;7&#45;&gt;http://www.w3.org/2002/07/owl#class -->
<g id="edge27" class="edge">
<title>http://purl.org/oseg/ontologies/OTRL#OTRL&#45;7&#45;&gt;http://www.w3.org/2002/07/owl#class</title>
<path fill="none" stroke="black" d="M303.68,-702.48C309.64,-717.23 318.53,-739.22 325.46,-756.36"/>
<polygon fill="black" stroke="black" points="322.28,-757.85 329.28,-765.81 328.77,-755.23 322.28,-757.85"/>
<text text-anchor="middle" x="310.07" y="-733.22" font-family="Times,serif" font-size="14.00">a</text>
</g>
<!-- http://purl.org/oseg/ontologies/OTRL#OTRL&#45;6 -->
<g id="node9" class="node">
<title>http://purl.org/oseg/ontologies/OTRL#OTRL&#45;6</title>
<ellipse fill="none" stroke="#e377c2" cx="108.49" cy="-611.21" rx="49.49" ry="16.03"/>
<text text-anchor="middle" x="108.49" y="-607.51" font-family="Times,serif" font-size="14.00">OTRL&#45;6</text>
</g>
<!-- http://purl.org/oseg/ontologies/OTRL#OTRL&#45;6&#45;&gt;http://purl.org/oseg/ontologies/OTRL#OTRL -->
<g id="edge41" class="edge">
<title>http://purl.org/oseg/ontologies/OTRL#OTRL&#45;6&#45;&gt;http://purl.org/oseg/ontologies/OTRL#OTRL</title>
<path fill="none" stroke="black" d="M136.76,-597.81C173.34,-580.49 237.05,-550.31 276.7,-531.52"/>
<polygon fill="black" stroke="black" points="278.21,-534.68 285.75,-527.24 275.21,-528.35 278.21,-534.68"/>
</g>
<!-- http://purl.org/oseg/ontologies/OTRL#OTRL&#45;6&#45;&gt;http://www.w3.org/2002/07/owl#class -->
<g id="edge29" class="edge">
<title>http://purl.org/oseg/ontologies/OTRL#OTRL&#45;6&#45;&gt;http://www.w3.org/2002/07/owl#class</title>
<path fill="none" stroke="black" d="M128.67,-626.38C169.19,-656.85 260.56,-725.54 307.25,-760.64"/>
<polygon fill="black" stroke="black" points="305.33,-763.57 315.43,-766.79 309.54,-757.98 305.33,-763.57"/>
<text text-anchor="middle" x="213.46" y="-697.31" font-family="Times,serif" font-size="14.00">a</text>
</g>
<!-- http://purl.org/oseg/ontologies/OTRL#softwareDescription -->
<g id="node10" class="node">
<title>http://purl.org/oseg/ontologies/OTRL#softwareDescription</title>
<ellipse fill="none" stroke="#e377c2" cx="527.95" cy="-253.68" rx="113.69" ry="16.03"/>
<text text-anchor="middle" x="527.95" y="-249.98" font-family="Times,serif" font-size="14.00">softwareDescription</text>
</g>
<!-- http://purl.org/oseg/ontologies/OTRL#softwareDescription&#45;&gt;http://purl.org/oseg/ontologies/OTRL#OTRL -->
<g id="edge31" class="edge">
<title>http://purl.org/oseg/ontologies/OTRL#softwareDescription&#45;&gt;http://purl.org/oseg/ontologies/OTRL#OTRL</title>
<path fill="none" stroke="black" d="M514.43,-270.02C477.42,-314.75 374.32,-439.36 331.2,-491.48"/>
<polygon fill="black" stroke="black" points="328.49,-489.26 324.82,-499.2 333.89,-493.73 328.49,-489.26"/>
<text text-anchor="middle" x="396.32" y="-384.55" font-family="Times,serif" font-size="14.00">domain</text>
</g>
<!-- http://purl.org/oseg/ontologies/OTRL#softwareDescription&#45;&gt;http://schema.org/Text -->
<g id="edge2" class="edge">
<title>http://purl.org/oseg/ontologies/OTRL#softwareDescription&#45;&gt;http://schema.org/Text</title>
<path fill="none" stroke="black" d="M515.34,-237.38C483.64,-196.41 400.52,-88.98 363.15,-40.68"/>
<polygon fill="black" stroke="black" points="365.82,-38.41 356.93,-32.64 360.28,-42.69 365.82,-38.41"/>
<text text-anchor="middle" x="418.24" y="-142.83" font-family="Times,serif" font-size="14.00">range</text>
</g>
<!-- http://purl.org/oseg/ontologies/OTRL#OTRL&#45;3 -->
<g id="node11" class="node">
<title>http://purl.org/oseg/ontologies/OTRL#OTRL&#45;3</title>
<ellipse fill="none" stroke="#e377c2" cx="491.66" cy="-553.55" rx="49.49" ry="16.03"/>
<text text-anchor="middle" x="491.66" y="-549.85" font-family="Times,serif" font-size="14.00">OTRL&#45;3</text>
</g>
<!-- http://purl.org/oseg/ontologies/OTRL#OTRL&#45;3&#45;&gt;http://purl.org/oseg/ontologies/OTRL#OTRL -->
<g id="edge6" class="edge">
<title>http://purl.org/oseg/ontologies/OTRL#OTRL&#45;3&#45;&gt;http://purl.org/oseg/ontologies/OTRL#OTRL</title>
<path fill="none" stroke="black" d="M449.96,-544.57C422.15,-538.59 385.6,-530.73 357.08,-524.6"/>
<polygon fill="black" stroke="black" points="357.49,-521.1 346.97,-522.42 356.01,-527.95 357.49,-521.1"/>
</g>
<!-- http://purl.org/oseg/ontologies/OTRL#OTRL&#45;3&#45;&gt;http://www.w3.org/2002/07/owl#class -->
<g id="edge7" class="edge">
<title>http://purl.org/oseg/ontologies/OTRL#OTRL&#45;3&#45;&gt;http://www.w3.org/2002/07/owl#class</title>
<path fill="none" stroke="black" d="M480.71,-569.62C453.84,-609.06 384.53,-710.78 352.53,-757.74"/>
<polygon fill="black" stroke="black" points="349.57,-755.87 346.83,-766.11 355.36,-759.82 349.57,-755.87"/>
<text text-anchor="middle" x="412.12" y="-667.48" font-family="Times,serif" font-size="14.00">a</text>
</g>
<!-- http://purl.org/oseg/ontologies/OTRL#exitCriteria -->
<g id="node12" class="node">
<title>http://purl.org/oseg/ontologies/OTRL#exitCriteria</title>
<ellipse fill="none" stroke="#e377c2" cx="330.96" cy="-259.83" rx="70.01" ry="16.03"/>
<text text-anchor="middle" x="330.96" y="-256.13" font-family="Times,serif" font-size="14.00">exitCriteria</text>
</g>
<!-- http://purl.org/oseg/ontologies/OTRL#exitCriteria&#45;&gt;http://purl.org/oseg/ontologies/OTRL#OTRL -->
<g id="edge39" class="edge">
<title>http://purl.org/oseg/ontologies/OTRL#exitCriteria&#45;&gt;http://purl.org/oseg/ontologies/OTRL#OTRL</title>
<path fill="none" stroke="black" d="M329.73,-276.17C326.52,-319.07 317.82,-435.24 313.86,-488.07"/>
<polygon fill="black" stroke="black" points="310.35,-488.1 313.09,-498.33 317.33,-488.62 310.35,-488.1"/>
<text text-anchor="middle" x="295.3" y="-385.92" font-family="Times,serif" font-size="14.00">domain</text>
</g>
<!-- http://purl.org/oseg/ontologies/OTRL#exitCriteria&#45;&gt;http://schema.org/Text -->
<g id="edge24" class="edge">
<title>http://purl.org/oseg/ontologies/OTRL#exitCriteria&#45;&gt;http://schema.org/Text</title>
<path fill="none" stroke="black" d="M331.87,-243.49C334.16,-202.2 340.21,-93.38 343.01,-42.93"/>
<polygon fill="black" stroke="black" points="346.51,-42.99 343.57,-32.81 339.52,-42.6 346.51,-42.99"/>
<text text-anchor="middle" x="316.44" y="-147.01" font-family="Times,serif" font-size="14.00">range</text>
</g>
<!-- http://purl.org/oseg/ontologies/OTRL -->
<g id="node13" class="node">
<title>http://purl.org/oseg/ontologies/OTRL</title>
<ellipse fill="none" stroke="#e377c2" cx="573.24" cy="-464.64" rx="60.62" ry="16.03"/>
<text text-anchor="middle" x="573.24" y="-460.94" font-family="Times,serif" font-size="14.00">ns1:OTRL</text>
</g>
<!-- http://purl.org/oseg/ontologies/OTRL&#45;&gt;http://purl.org/oseg/ontologies/OTRL -->
<g id="edge14" class="edge">
<title>http://purl.org/oseg/ontologies/OTRL&#45;&gt;http://purl.org/oseg/ontologies/OTRL</title>
<path fill="none" stroke="black" d="M628.84,-471.27C642.17,-470.75 652.05,-468.54 652.05,-464.64 652.05,-461.81 646.83,-459.86 638.87,-458.81"/>
<polygon fill="black" stroke="black" points="639.09,-455.32 628.84,-458.01 638.53,-462.3 639.09,-455.32"/>
<text text-anchor="middle" x="703.55" y="-460.94" font-family="Times,serif" font-size="14.00">owl:versionIRI</text>
</g>
<!-- http://purl.org/oseg/ontologies/OTRL#OTRL&#45;2 -->
<g id="node14" class="node">
<title>http://purl.org/oseg/ontologies/OTRL#OTRL&#45;2</title>
<ellipse fill="none" stroke="#e377c2" cx="473.69" cy="-664.34" rx="49.49" ry="16.03"/>
<text text-anchor="middle" x="473.69" y="-660.64" font-family="Times,serif" font-size="14.00">OTRL&#45;2</text>
</g>
<!-- http://purl.org/oseg/ontologies/OTRL#OTRL&#45;2&#45;&gt;http://purl.org/oseg/ontologies/OTRL#OTRL -->
<g id="edge13" class="edge">
<title>http://purl.org/oseg/ontologies/OTRL#OTRL&#45;2&#45;&gt;http://purl.org/oseg/ontologies/OTRL#OTRL</title>
<path fill="none" stroke="black" d="M456.98,-648.91C428.12,-622.26 368.85,-567.51 335.68,-536.87"/>
<polygon fill="black" stroke="black" points="337.95,-534.21 328.23,-530 333.2,-539.35 337.95,-534.21"/>
</g>
<!-- http://purl.org/oseg/ontologies/OTRL#OTRL&#45;2&#45;&gt;http://www.w3.org/2002/07/owl#class -->
<g id="edge10" class="edge">
<title>http://purl.org/oseg/ontologies/OTRL#OTRL&#45;2&#45;&gt;http://www.w3.org/2002/07/owl#class</title>
<path fill="none" stroke="black" d="M455.68,-679.75C431.77,-700.19 389.41,-736.41 362,-759.85"/>
<polygon fill="black" stroke="black" points="359.68,-757.23 354.35,-766.39 364.23,-762.55 359.68,-757.23"/>
<text text-anchor="middle" x="404.34" y="-723.6" font-family="Times,serif" font-size="14.00">a</text>
</g>
<!-- http://purl.org/oseg/ontologies/OTRL#ODRL&#45;1 -->
<g id="node15" class="node">
<title>http://purl.org/oseg/ontologies/OTRL#ODRL&#45;1</title>
<ellipse fill="none" stroke="#e377c2" cx="551.89" cy="-897.41" rx="50.82" ry="16.03"/>
<text text-anchor="middle" x="551.89" y="-893.71" font-family="Times,serif" font-size="14.00">ODRL&#45;1</text>
</g>
<!-- http://purl.org/oseg/ontologies/OTRL#ODRL&#45;1&#45;&gt;http://purl.org/oseg/ontologies/OTRL#ODRL -->
<g id="edge28" class="edge">
<title>http://purl.org/oseg/ontologies/OTRL#ODRL&#45;1&#45;&gt;http://purl.org/oseg/ontologies/OTRL#ODRL</title>
<path fill="none" stroke="black" d="M523.34,-911.01C490.24,-926.78 435.64,-952.8 399.72,-969.92"/>
<polygon fill="black" stroke="black" points="398.09,-966.82 390.56,-974.28 401.1,-973.14 398.09,-966.82"/>
</g>
<!-- http://purl.org/oseg/ontologies/OTRL#ODRL&#45;1&#45;&gt;http://www.w3.org/2002/07/owl#class -->
<g id="edge32" class="edge">
<title>http://purl.org/oseg/ontologies/OTRL#ODRL&#45;1&#45;&gt;http://www.w3.org/2002/07/owl#class</title>
<path fill="none" stroke="black" d="M525.41,-883.28C486.89,-862.73 415.3,-824.53 371.99,-801.43"/>
<polygon fill="black" stroke="black" points="373.4,-798.21 362.93,-796.6 370.11,-804.39 373.4,-798.21"/>
<text text-anchor="middle" x="444.2" y="-846.15" font-family="Times,serif" font-size="14.00">a</text>
</g>
<!-- http://purl.org/oseg/ontologies/OTRL#ODRL&#45;2 -->
<g id="node16" class="node">
<title>http://purl.org/oseg/ontologies/OTRL#ODRL&#45;2</title>
<ellipse fill="none" stroke="#e377c2" cx="454.01" cy="-1038.12" rx="50.82" ry="16.03"/>
<text text-anchor="middle" x="454.01" y="-1034.42" font-family="Times,serif" font-size="14.00">ODRL&#45;2</text>
</g>
<!-- http://purl.org/oseg/ontologies/OTRL#ODRL&#45;2&#45;&gt;http://purl.org/oseg/ontologies/OTRL#ODRL -->
<g id="edge9" class="edge">
<title>http://purl.org/oseg/ontologies/OTRL#ODRL&#45;2&#45;&gt;http://purl.org/oseg/ontologies/OTRL#ODRL</title>
<path fill="none" stroke="black" d="M428.91,-1023.88C418.81,-1018.15 407.04,-1011.48 396.32,-1005.4"/>
<polygon fill="black" stroke="black" points="398.03,-1002.35 387.61,-1000.46 394.58,-1008.44 398.03,-1002.35"/>
</g>
<!-- http://purl.org/oseg/ontologies/OTRL#ODRL&#45;2&#45;&gt;http://www.w3.org/2002/07/owl#class -->
<g id="edge12" class="edge">
<title>http://purl.org/oseg/ontologies/OTRL#ODRL&#45;2&#45;&gt;http://www.w3.org/2002/07/owl#class</title>
<path fill="none" stroke="black" d="M446.45,-1021.72C426.4,-978.29 371.83,-860.05 347.67,-807.7"/>
<polygon fill="black" stroke="black" points="350.76,-806.05 343.4,-798.43 344.41,-808.98 350.76,-806.05"/>
<text text-anchor="middle" x="392.56" y="-918.51" font-family="Times,serif" font-size="14.00">a</text>
</g>
<!-- http://purl.org/oseg/ontologies/OTRL#OTRL&#45;8 -->
<g id="node17" class="node">
<title>http://purl.org/oseg/ontologies/OTRL#OTRL&#45;8</title>
<ellipse fill="none" stroke="#e377c2" cx="138.28" cy="-701.68" rx="49.49" ry="16.03"/>
<text text-anchor="middle" x="138.28" y="-697.98" font-family="Times,serif" font-size="14.00">OTRL&#45;8</text>
</g>
<!-- http://purl.org/oseg/ontologies/OTRL#OTRL&#45;8&#45;&gt;http://purl.org/oseg/ontologies/OTRL#OTRL -->
<g id="edge5" class="edge">
<title>http://purl.org/oseg/ontologies/OTRL#OTRL&#45;8&#45;&gt;http://purl.org/oseg/ontologies/OTRL#OTRL</title>
<path fill="none" stroke="black" d="M152.78,-686.07C183.36,-653.16 254.58,-576.51 290.43,-537.92"/>
<polygon fill="black" stroke="black" points="293.27,-540.01 297.51,-530.3 288.14,-535.24 293.27,-540.01"/>
</g>
<!-- http://purl.org/oseg/ontologies/OTRL#OTRL&#45;8&#45;&gt;http://www.w3.org/2002/07/owl#class -->
<g id="edge33" class="edge">
<title>http://purl.org/oseg/ontologies/OTRL#OTRL&#45;8&#45;&gt;http://www.w3.org/2002/07/owl#class</title>
<path fill="none" stroke="black" d="M169.59,-714.43C203.06,-728.06 256.32,-749.76 293.52,-764.91"/>
<polygon fill="black" stroke="black" points="292.5,-768.27 303.08,-768.8 295.14,-761.79 292.5,-768.27"/>
<text text-anchor="middle" x="227.05" y="-743.47" font-family="Times,serif" font-size="14.00">a</text>
</g>
<!-- http://purl.org/oseg/ontologies/OTRL#OTRL&#45;4 -->
<g id="node18" class="node">
<title>http://purl.org/oseg/ontologies/OTRL#OTRL&#45;4</title>
<ellipse fill="none" stroke="#e377c2" cx="534.64" cy="-623.37" rx="49.49" ry="16.03"/>
<text text-anchor="middle" x="534.64" y="-619.67" font-family="Times,serif" font-size="14.00">OTRL&#45;4</text>
</g>
<!-- http://purl.org/oseg/ontologies/OTRL#OTRL&#45;4&#45;&gt;http://purl.org/oseg/ontologies/OTRL#OTRL -->
<g id="edge36" class="edge">
<title>http://purl.org/oseg/ontologies/OTRL#OTRL&#45;4&#45;&gt;http://purl.org/oseg/ontologies/OTRL#OTRL</title>
<path fill="none" stroke="black" d="M506.87,-609.85C466.34,-590.11 390.99,-553.41 346.76,-531.87"/>
<polygon fill="black" stroke="black" points="348.07,-528.62 337.55,-527.38 345.01,-534.91 348.07,-528.62"/>
</g>
<!-- http://purl.org/oseg/ontologies/OTRL#OTRL&#45;4&#45;&gt;http://www.w3.org/2002/07/owl#class -->
<g id="edge37" class="edge">
<title>http://purl.org/oseg/ontologies/OTRL#OTRL&#45;4&#45;&gt;http://www.w3.org/2002/07/owl#class</title>
<path fill="none" stroke="black" d="M515.58,-638.6C480.13,-666.92 403.95,-727.79 363.1,-760.43"/>
<polygon fill="black" stroke="black" points="360.81,-757.78 355.18,-766.76 365.18,-763.25 360.81,-757.78"/>
<text text-anchor="middle" x="434.84" y="-703.32" font-family="Times,serif" font-size="14.00">a</text>
</g>
<!-- http://purl.org/oseg/ontologies/OTRL#OTRL&#45;1 -->
<g id="node19" class="node">
<title>http://purl.org/oseg/ontologies/OTRL#OTRL&#45;1</title>
<ellipse fill="none" stroke="#e377c2" cx="184.62" cy="-654.26" rx="49.49" ry="16.03"/>
<text text-anchor="middle" x="184.62" y="-650.56" font-family="Times,serif" font-size="14.00">OTRL&#45;1</text>
</g>
<!-- http://purl.org/oseg/ontologies/OTRL#OTRL&#45;1&#45;&gt;http://purl.org/oseg/ontologies/OTRL#OTRL -->
<g id="edge30" class="edge">
<title>http://purl.org/oseg/ontologies/OTRL#OTRL&#45;1&#45;&gt;http://purl.org/oseg/ontologies/OTRL#OTRL</title>
<path fill="none" stroke="black" d="M198.96,-638.54C221.42,-613.94 264.98,-566.22 290.93,-537.79"/>
<polygon fill="black" stroke="black" points="293.59,-540.06 297.75,-530.32 288.42,-535.34 293.59,-540.06"/>
</g>
<!-- http://purl.org/oseg/ontologies/OTRL#OTRL&#45;1&#45;&gt;http://www.w3.org/2002/07/owl#class -->
<g id="edge15" class="edge">
<title>http://purl.org/oseg/ontologies/OTRL#OTRL&#45;1&#45;&gt;http://www.w3.org/2002/07/owl#class</title>
<path fill="none" stroke="black" d="M202.56,-669.43C229.15,-691.91 279.13,-734.18 309.77,-760.09"/>
<polygon fill="black" stroke="black" points="307.6,-762.83 317.5,-766.61 312.12,-757.48 307.6,-762.83"/>
<text text-anchor="middle" x="251.67" y="-718.56" font-family="Times,serif" font-size="14.00">a</text>
</g>
<!-- http://purl.org/oseg/ontologies/OTRL#ODRL&#45;0 -->
<g id="node20" class="node">
<title>http://purl.org/oseg/ontologies/OTRL#ODRL&#45;0</title>
<ellipse fill="none" stroke="#e377c2" cx="160.21" cy="-960.12" rx="50.82" ry="16.03"/>
<text text-anchor="middle" x="160.21" y="-956.42" font-family="Times,serif" font-size="14.00">ODRL&#45;0</text>
</g>
<!-- http://purl.org/oseg/ontologies/OTRL#ODRL&#45;0&#45;&gt;http://purl.org/oseg/ontologies/OTRL#ODRL -->
<g id="edge8" class="edge">
<title>http://purl.org/oseg/ontologies/OTRL#ODRL&#45;0&#45;&gt;http://purl.org/oseg/ontologies/OTRL#ODRL</title>
<path fill="none" stroke="black" d="M207.44,-966.35C239.36,-970.56 281.43,-976.12 313.91,-980.4"/>
<polygon fill="black" stroke="black" points="313.72,-983.91 324.09,-981.75 314.63,-976.97 313.72,-983.91"/>
</g>
<!-- http://purl.org/oseg/ontologies/OTRL#ODRL&#45;0&#45;&gt;http://www.w3.org/2002/07/owl#class -->
<g id="edge16" class="edge">
<title>http://purl.org/oseg/ontologies/OTRL#ODRL&#45;0&#45;&gt;http://www.w3.org/2002/07/owl#class</title>
<path fill="none" stroke="black" d="M175.8,-944.33C206.92,-912.8 276.88,-841.94 313.14,-805.22"/>
<polygon fill="black" stroke="black" points="315.8,-807.5 320.33,-797.92 310.82,-802.58 315.8,-807.5"/>
<text text-anchor="middle" x="239.97" y="-878.57" font-family="Times,serif" font-size="14.00">a</text>
</g>
<!-- http://purl.org/oseg/ontologies/OTRL#ODRL&#45;5 -->
<g id="node21" class="node">
<title>http://purl.org/oseg/ontologies/OTRL#ODRL&#45;5</title>
<ellipse fill="none" stroke="#e377c2" cx="331.01" cy="-1068.46" rx="50.82" ry="16.03"/>
<text text-anchor="middle" x="331.01" y="-1064.76" font-family="Times,serif" font-size="14.00">ODRL&#45;5</text>
</g>
<!-- http://purl.org/oseg/ontologies/OTRL#ODRL&#45;5&#45;&gt;http://purl.org/oseg/ontologies/OTRL#ODRL -->
<g id="edge22" class="edge">
<title>http://purl.org/oseg/ontologies/OTRL#ODRL&#45;5&#45;&gt;http://purl.org/oseg/ontologies/OTRL#ODRL</title>
<path fill="none" stroke="black" d="M337.66,-1051.97C342.23,-1040.64 348.39,-1025.36 353.6,-1012.47"/>
<polygon fill="black" stroke="black" points="356.85,-1013.76 357.34,-1003.18 350.36,-1011.14 356.85,-1013.76"/>
</g>
<!-- http://purl.org/oseg/ontologies/OTRL#ODRL&#45;5&#45;&gt;http://www.w3.org/2002/07/owl#class -->
<g id="edge17" class="edge">
<title>http://purl.org/oseg/ontologies/OTRL#ODRL&#45;5&#45;&gt;http://www.w3.org/2002/07/owl#class</title>
<path fill="none" stroke="black" d="M331.29,-1051.83C332.1,-1004.18 334.45,-866.86 335.44,-808.7"/>
<polygon fill="black" stroke="black" points="338.94,-808.55 335.61,-798.49 331.94,-808.43 338.94,-808.55"/>
<text text-anchor="middle" x="328.86" y="-934.06" font-family="Times,serif" font-size="14.00">a</text>
</g>
<!-- http://purl.org/oseg/ontologies/OTRL#documentationDescription -->
<g id="node22" class="node">
<title>http://purl.org/oseg/ontologies/OTRL#documentationDescription</title>
<ellipse fill="none" stroke="#e377c2" cx="229.36" cy="-196.58" rx="120.83" ry="16.03"/>
<text text-anchor="middle" x="229.36" y="-192.88" font-family="Times,serif" font-size="14.00">documentationDesc...</text>
</g>
<!-- http://purl.org/oseg/ontologies/OTRL#documentationDescription&#45;&gt;http://purl.org/oseg/ontologies/OTRL#OTRL -->
<g id="edge35" class="edge">
<title>http://purl.org/oseg/ontologies/OTRL#documentationDescription&#45;&gt;http://purl.org/oseg/ontologies/OTRL#OTRL</title>
<path fill="none" stroke="black" d="M233.68,-213.25C247.15,-265.24 288.5,-424.79 304.98,-488.34"/>
<polygon fill="black" stroke="black" points="301.68,-489.57 307.58,-498.37 308.45,-487.81 301.68,-489.57"/>
<text text-anchor="middle" x="242.83" y="-354.59" font-family="Times,serif" font-size="14.00">domain</text>
</g>
<!-- http://purl.org/oseg/ontologies/OTRL#documentationDescription&#45;&gt;http://schema.org/Text -->
<g id="edge4" class="edge">
<title>http://purl.org/oseg/ontologies/OTRL#documentationDescription&#45;&gt;http://schema.org/Text</title>
<path fill="none" stroke="black" d="M239.78,-180.29C259.98,-148.69 304.6,-78.9 328.55,-41.45"/>
<polygon fill="black" stroke="black" points="331.73,-42.98 334.16,-32.67 325.83,-39.21 331.73,-42.98"/>
<text text-anchor="middle" x="263.16" y="-114.67" font-family="Times,serif" font-size="14.00">range</text>
</g>
<!-- http://purl.org/oseg/ontologies/OTRL#ODRL&#45;3 -->
<g id="node23" class="node">
<title>http://purl.org/oseg/ontologies/OTRL#ODRL&#45;3</title>
<ellipse fill="none" stroke="#e377c2" cx="215.62" cy="-1030.14" rx="50.82" ry="16.03"/>
<text text-anchor="middle" x="215.62" y="-1026.44" font-family="Times,serif" font-size="14.00">ODRL&#45;3</text>
</g>
<!-- http://purl.org/oseg/ontologies/OTRL#ODRL&#45;3&#45;&gt;http://purl.org/oseg/ontologies/OTRL#ODRL -->
<g id="edge25" class="edge">
<title>http://purl.org/oseg/ontologies/OTRL#ODRL&#45;3&#45;&gt;http://purl.org/oseg/ontologies/OTRL#ODRL</title>
<path fill="none" stroke="black" d="M253.42,-1019.14C273.86,-1013.19 299.19,-1005.82 320.44,-999.64"/>
<polygon fill="black" stroke="black" points="321.57,-1002.95 330.19,-996.8 319.61,-996.23 321.57,-1002.95"/>
</g>
<!-- http://purl.org/oseg/ontologies/OTRL#ODRL&#45;3&#45;&gt;http://www.w3.org/2002/07/owl#class -->
<g id="edge19" class="edge">
<title>http://purl.org/oseg/ontologies/OTRL#ODRL&#45;3&#45;&gt;http://www.w3.org/2002/07/owl#class</title>
<path fill="none" stroke="black" d="M223.51,-1013.87C243.99,-971.66 298.92,-858.4 323.59,-807.52"/>
<polygon fill="black" stroke="black" points="326.76,-809.02 327.97,-798.5 320.46,-805.97 326.76,-809.02"/>
<text text-anchor="middle" x="269.05" y="-914.5" font-family="Times,serif" font-size="14.00">a</text>
</g>
<!-- http://purl.org/oseg/ontologies/OTRL#ODRL&#45;4 -->
<g id="node24" class="node">
<title>http://purl.org/oseg/ontologies/OTRL#ODRL&#45;4</title>
<ellipse fill="none" stroke="#e377c2" cx="527.95" cy="-977.35" rx="50.82" ry="16.03"/>
<text text-anchor="middle" x="527.95" y="-973.65" font-family="Times,serif" font-size="14.00">ODRL&#45;4</text>
</g>
<!-- http://purl.org/oseg/ontologies/OTRL#ODRL&#45;4&#45;&gt;http://purl.org/oseg/ontologies/OTRL#ODRL -->
<g id="edge38" class="edge">
<title>http://purl.org/oseg/ontologies/OTRL#ODRL&#45;4&#45;&gt;http://purl.org/oseg/ontologies/OTRL#ODRL</title>
<path fill="none" stroke="black" d="M477.83,-980.29C458.01,-981.46 435.24,-982.8 415.29,-983.97"/>
<polygon fill="black" stroke="black" points="414.93,-980.49 405.15,-984.57 415.34,-987.48 414.93,-980.49"/>
</g>
<!-- http://purl.org/oseg/ontologies/OTRL#ODRL&#45;4&#45;&gt;http://www.w3.org/2002/07/owl#class -->
<g id="edge21" class="edge">
<title>http://purl.org/oseg/ontologies/OTRL#ODRL&#45;4&#45;&gt;http://www.w3.org/2002/07/owl#class</title>
<path fill="none" stroke="black" d="M512.56,-961.7C478.85,-927.44 398.33,-845.62 358.71,-805.36"/>
<polygon fill="black" stroke="black" points="360.87,-802.56 351.36,-797.89 355.88,-807.47 360.87,-802.56"/>
<text text-anchor="middle" x="431.14" y="-887.33" font-family="Times,serif" font-size="14.00">a</text>
</g>
</g>
</svg>
