<?xml version="1.0" encoding="UTF-8" standalone="no"?>
<!DOCTYPE svg PUBLIC "-//W3C//DTD SVG 1.1//EN"
 "http://www.w3.org/Graphics/SVG/1.1/DTD/svg11.dtd">
<!-- Generated by graphviz version 2.43.0 (0)
 -->
<!-- Title: G Pages: 1 -->
<svg width="735pt" height="1150pt"
 viewBox="0.00 0.00 735.00 1150.00" xmlns="http://www.w3.org/2000/svg" xmlns:xlink="http://www.w3.org/1999/xlink">
<g id="graph0" class="graph" transform="scale(1 1) rotate(0) translate(4 1146)">
<title>G</title>
<polygon fill="white" stroke="transparent" points="-4,4 -4,-1146 731,-1146 731,4 -4,4"/>
<!-- http://www.w3.org/2002/07/owl#class -->
<g id="node1" class="node">
<title>http://www.w3.org/2002/07/owl#class</title>
<ellipse fill="none" stroke="#1f77b4" cx="284.55" cy="-313.94" rx="57.05" ry="16.03"/>
<text text-anchor="middle" x="284.55" y="-310.24" font-family="Times,serif" font-size="14.00">owl:class</text>
</g>
<!-- http://purl.org/oseg/ontologies/OTRL#OTRL -->
<g id="node2" class="node">
<title>http://purl.org/oseg/ontologies/OTRL#OTRL</title>
<ellipse fill="none" stroke="#e377c2" cx="366.32" cy="-607.24" rx="39.7" ry="16.03"/>
<text text-anchor="middle" x="366.32" y="-603.54" font-family="Times,serif" font-size="14.00">OTRL</text>
</g>
<!-- http://purl.org/oseg/ontologies/OTRL#OTRL&#45;&gt;http://www.w3.org/2002/07/owl#class -->
<g id="edge39" class="edge">
<title>http://purl.org/oseg/ontologies/OTRL#OTRL&#45;&gt;http://www.w3.org/2002/07/owl#class</title>
<path fill="none" stroke="black" d="M361.8,-591.05C348.35,-542.79 308.42,-399.57 291.86,-340.19"/>
<polygon fill="black" stroke="black" points="295.2,-339.13 289.15,-330.44 288.46,-341.01 295.2,-339.13"/>
<text text-anchor="middle" x="322.33" y="-469.42" font-family="Times,serif" font-size="14.00">a</text>
</g>
<!-- http://purl.org/oseg/ontologies/OTRL#ODRL -->
<g id="node3" class="node">
<title>http://purl.org/oseg/ontologies/OTRL#ODRL</title>
<ellipse fill="none" stroke="#e377c2" cx="226.73" cy="-114.74" rx="41.94" ry="16.03"/>
<text text-anchor="middle" x="226.73" y="-111.04" font-family="Times,serif" font-size="14.00">ODRL</text>
</g>
<!-- http://purl.org/oseg/ontologies/OTRL#ODRL&#45;&gt;http://www.w3.org/2002/07/owl#class -->
<g id="edge22" class="edge">
<title>http://purl.org/oseg/ontologies/OTRL#ODRL&#45;&gt;http://www.w3.org/2002/07/owl#class</title>
<path fill="none" stroke="black" d="M231.46,-131.04C241.48,-165.56 264.91,-246.28 277.01,-287.98"/>
<polygon fill="black" stroke="black" points="273.68,-289.06 279.83,-297.69 280.4,-287.11 273.68,-289.06"/>
<text text-anchor="middle" x="249.73" y="-213.31" font-family="Times,serif" font-size="14.00">a</text>
</g>
<!-- http://schema.org/Text -->
<g id="node4" class="node">
<title>http://schema.org/Text</title>
<ellipse fill="none" stroke="#e377c2" cx="491.53" cy="-1125.94" rx="74.91" ry="16.03"/>
<text text-anchor="middle" x="491.53" y="-1122.24" font-family="Times,serif" font-size="14.00">schema:Text</text>
</g>
<!-- http://purl.org/oseg/ontologies/OTRL#OTRL&#45;4 -->
<g id="node5" class="node">
<title>http://purl.org/oseg/ontologies/OTRL#OTRL&#45;4</title>
<ellipse fill="none" stroke="#e377c2" cx="482.63" cy="-377.79" rx="49.49" ry="16.03"/>
<text text-anchor="middle" x="482.63" y="-374.09" font-family="Times,serif" font-size="14.00">OTRL&#45;4</text>
</g>
<!-- http://purl.org/oseg/ontologies/OTRL#OTRL&#45;4&#45;&gt;http://www.w3.org/2002/07/owl#class -->
<g id="edge3" class="edge">
<title>http://purl.org/oseg/ontologies/OTRL#OTRL&#45;4&#45;&gt;http://www.w3.org/2002/07/owl#class</title>
<path fill="none" stroke="black" d="M447.22,-366.37C415.18,-356.05 367.73,-340.75 332.33,-329.34"/>
<polygon fill="black" stroke="black" points="333.28,-325.97 322.69,-326.23 331.14,-332.63 333.28,-325.97"/>
<text text-anchor="middle" x="385.28" y="-351.66" font-family="Times,serif" font-size="14.00">a</text>
</g>
<!-- http://purl.org/oseg/ontologies/OTRL#OTRL&#45;4&#45;&gt;http://purl.org/oseg/ontologies/OTRL#OTRL -->
<g id="edge33" class="edge">
<title>http://purl.org/oseg/ontologies/OTRL#OTRL&#45;4&#45;&gt;http://purl.org/oseg/ontologies/OTRL#OTRL</title>
<path fill="none" stroke="black" d="M474.45,-393.92C454.47,-433.34 403.07,-534.74 379.04,-582.13"/>
<polygon fill="black" stroke="black" points="375.89,-580.62 374.49,-591.12 382.13,-583.78 375.89,-580.62"/>
</g>
<!-- http://purl.org/oseg/ontologies/OTRL#OTRL&#45;9 -->
<g id="node6" class="node">
<title>http://purl.org/oseg/ontologies/OTRL#OTRL&#45;9</title>
<ellipse fill="none" stroke="#e377c2" cx="514.44" cy="-493.16" rx="49.49" ry="16.03"/>
<text text-anchor="middle" x="514.44" y="-489.46" font-family="Times,serif" font-size="14.00">OTRL&#45;9</text>
</g>
<!-- http://purl.org/oseg/ontologies/OTRL#OTRL&#45;9&#45;&gt;http://www.w3.org/2002/07/owl#class -->
<g id="edge4" class="edge">
<title>http://purl.org/oseg/ontologies/OTRL#OTRL&#45;9&#45;&gt;http://www.w3.org/2002/07/owl#class</title>
<path fill="none" stroke="black" d="M494.83,-477.88C453.96,-446.02 359.53,-372.4 312.38,-335.64"/>
<polygon fill="black" stroke="black" points="314.46,-332.82 304.42,-329.43 310.16,-338.34 314.46,-332.82"/>
<text text-anchor="middle" x="399.11" y="-395.56" font-family="Times,serif" font-size="14.00">a</text>
</g>
<!-- http://purl.org/oseg/ontologies/OTRL#OTRL&#45;9&#45;&gt;http://purl.org/oseg/ontologies/OTRL#OTRL -->
<g id="edge29" class="edge">
<title>http://purl.org/oseg/ontologies/OTRL#OTRL&#45;9&#45;&gt;http://purl.org/oseg/ontologies/OTRL#OTRL</title>
<path fill="none" stroke="black" d="M494.77,-508.31C468.7,-528.39 422.58,-563.9 393.28,-586.47"/>
<polygon fill="black" stroke="black" points="390.92,-583.87 385.13,-592.75 395.19,-589.42 390.92,-583.87"/>
</g>
<!-- http://purl.org/oseg/ontologies/OTRL#softwareDescription -->
<g id="node7" class="node">
<title>http://purl.org/oseg/ontologies/OTRL#softwareDescription</title>
<ellipse fill="none" stroke="#e377c2" cx="613.45" cy="-839.01" rx="113.69" ry="16.03"/>
<text text-anchor="middle" x="613.45" y="-835.31" font-family="Times,serif" font-size="14.00">softwareDescription</text>
</g>
<!-- http://purl.org/oseg/ontologies/OTRL#softwareDescription&#45;&gt;http://purl.org/oseg/ontologies/OTRL#OTRL -->
<g id="edge11" class="edge">
<title>http://purl.org/oseg/ontologies/OTRL#softwareDescription&#45;&gt;http://purl.org/oseg/ontologies/OTRL#OTRL</title>
<path fill="none" stroke="black" d="M596.07,-822.71C552.58,-781.92 439.02,-675.42 389.72,-629.18"/>
<polygon fill="black" stroke="black" points="392.07,-626.59 382.38,-622.3 387.28,-631.69 392.07,-626.59"/>
<text text-anchor="middle" x="466.39" y="-729.75" font-family="Times,serif" font-size="14.00">domain</text>
</g>
<!-- http://purl.org/oseg/ontologies/OTRL#softwareDescription&#45;&gt;http://schema.org/Text -->
<g id="edge20" class="edge">
<title>http://purl.org/oseg/ontologies/OTRL#softwareDescription&#45;&gt;http://schema.org/Text</title>
<path fill="none" stroke="black" d="M606.54,-855.26C586.35,-902.79 527.25,-1041.85 502.57,-1099.96"/>
<polygon fill="black" stroke="black" points="499.2,-1098.94 498.51,-1109.51 505.64,-1101.67 499.2,-1098.94"/>
<text text-anchor="middle" x="533.55" y="-981.41" font-family="Times,serif" font-size="14.00">range</text>
</g>
<!-- http://purl.org/oseg/ontologies/OTRL -->
<g id="node8" class="node">
<title>http://purl.org/oseg/ontologies/OTRL</title>
<ellipse fill="none" stroke="#e377c2" cx="271.24" cy="-716.64" rx="60.62" ry="16.03"/>
<text text-anchor="middle" x="271.24" y="-712.94" font-family="Times,serif" font-size="14.00">ns1:OTRL</text>
</g>
<!-- http://purl.org/oseg/ontologies/OTRL&#45;&gt;http://purl.org/oseg/ontologies/OTRL -->
<g id="edge23" class="edge">
<title>http://purl.org/oseg/ontologies/OTRL&#45;&gt;http://purl.org/oseg/ontologies/OTRL</title>
<path fill="none" stroke="black" d="M326.84,-723.27C340.17,-722.75 350.05,-720.54 350.05,-716.64 350.05,-713.81 344.83,-711.86 336.87,-710.81"/>
<polygon fill="black" stroke="black" points="337.09,-707.32 326.84,-710.01 336.53,-714.3 337.09,-707.32"/>
<text text-anchor="middle" x="401.55" y="-712.94" font-family="Times,serif" font-size="14.00">owl:versionIRI</text>
</g>
<!-- http://purl.org/oseg/ontologies/OTRL#documentationDescription -->
<g id="node9" class="node">
<title>http://purl.org/oseg/ontologies/OTRL#documentationDescription</title>
<ellipse fill="none" stroke="#e377c2" cx="263.58" cy="-946" rx="120.83" ry="16.03"/>
<text text-anchor="middle" x="263.58" y="-942.3" font-family="Times,serif" font-size="14.00">documentationDesc...</text>
</g>
<!-- http://purl.org/oseg/ontologies/OTRL#documentationDescription&#45;&gt;http://purl.org/oseg/ontologies/OTRL#OTRL -->
<g id="edge2" class="edge">
<title>http://purl.org/oseg/ontologies/OTRL#documentationDescription&#45;&gt;http://purl.org/oseg/ontologies/OTRL#OTRL</title>
<path fill="none" stroke="black" d="M268.53,-929.66C285.04,-875.21 338.29,-699.65 358.47,-633.12"/>
<polygon fill="black" stroke="black" points="361.86,-634 361.41,-623.41 355.16,-631.96 361.86,-634"/>
<text text-anchor="middle" x="287" y="-785.19" font-family="Times,serif" font-size="14.00">domain</text>
</g>
<!-- http://purl.org/oseg/ontologies/OTRL#documentationDescription&#45;&gt;http://schema.org/Text -->
<g id="edge1" class="edge">
<title>http://purl.org/oseg/ontologies/OTRL#documentationDescription&#45;&gt;http://schema.org/Text</title>
<path fill="none" stroke="black" d="M284.21,-962.28C325.17,-994.61 416.8,-1066.94 463.3,-1103.65"/>
<polygon fill="black" stroke="black" points="461.42,-1106.62 471.43,-1110.07 465.75,-1101.13 461.42,-1106.62"/>
<text text-anchor="middle" x="352.75" y="-1036.77" font-family="Times,serif" font-size="14.00">range</text>
</g>
<!-- http://purl.org/oseg/ontologies/OTRL#hardwareDescription -->
<g id="node10" class="node">
<title>http://purl.org/oseg/ontologies/OTRL#hardwareDescription</title>
<ellipse fill="none" stroke="#e377c2" cx="563.74" cy="-897.91" rx="118.17" ry="16.03"/>
<text text-anchor="middle" x="563.74" y="-894.21" font-family="Times,serif" font-size="14.00">hardwareDescription</text>
</g>
<!-- http://purl.org/oseg/ontologies/OTRL#hardwareDescription&#45;&gt;http://purl.org/oseg/ontologies/OTRL#OTRL -->
<g id="edge38" class="edge">
<title>http://purl.org/oseg/ontologies/OTRL#hardwareDescription&#45;&gt;http://purl.org/oseg/ontologies/OTRL#OTRL</title>
<path fill="none" stroke="black" d="M552.56,-881.45C519.5,-832.77 422.07,-689.32 382.9,-631.65"/>
<polygon fill="black" stroke="black" points="385.65,-629.47 377.13,-623.16 379.86,-633.4 385.65,-629.47"/>
<text text-anchor="middle" x="441.23" y="-760.35" font-family="Times,serif" font-size="14.00">domain</text>
</g>
<!-- http://purl.org/oseg/ontologies/OTRL#hardwareDescription&#45;&gt;http://schema.org/Text -->
<g id="edge36" class="edge">
<title>http://purl.org/oseg/ontologies/OTRL#hardwareDescription&#45;&gt;http://schema.org/Text</title>
<path fill="none" stroke="black" d="M558.54,-914.31C546.16,-953.42 514.8,-1052.45 499.79,-1099.86"/>
<polygon fill="black" stroke="black" points="496.36,-1099.09 496.68,-1109.68 503.03,-1101.21 496.36,-1099.09"/>
<text text-anchor="middle" x="508.16" y="-1010.88" font-family="Times,serif" font-size="14.00">range</text>
</g>
<!-- http://purl.org/oseg/ontologies/OTRL#ODRL&#45;5 -->
<g id="node11" class="node">
<title>http://purl.org/oseg/ontologies/OTRL#ODRL&#45;5</title>
<ellipse fill="none" stroke="#e377c2" cx="263.96" cy="-16.23" rx="50.82" ry="16.03"/>
<text text-anchor="middle" x="263.96" y="-12.53" font-family="Times,serif" font-size="14.00">ODRL&#45;5</text>
</g>
<!-- http://purl.org/oseg/ontologies/OTRL#ODRL&#45;5&#45;&gt;http://www.w3.org/2002/07/owl#class -->
<g id="edge27" class="edge">
<title>http://purl.org/oseg/ontologies/OTRL#ODRL&#45;5&#45;&gt;http://www.w3.org/2002/07/owl#class</title>
<path fill="none" stroke="black" d="M265.1,-32.66C268.49,-81.66 278.54,-227.1 282.71,-287.34"/>
<polygon fill="black" stroke="black" points="279.23,-287.82 283.41,-297.56 286.22,-287.34 279.23,-287.82"/>
<text text-anchor="middle" x="269.4" y="-163.8" font-family="Times,serif" font-size="14.00">a</text>
</g>
<!-- http://purl.org/oseg/ontologies/OTRL#ODRL&#45;5&#45;&gt;http://purl.org/oseg/ontologies/OTRL#ODRL -->
<g id="edge25" class="edge">
<title>http://purl.org/oseg/ontologies/OTRL#ODRL&#45;5&#45;&gt;http://purl.org/oseg/ontologies/OTRL#ODRL</title>
<path fill="none" stroke="black" d="M257.81,-32.49C252.02,-47.82 243.24,-71.04 236.49,-88.91"/>
<polygon fill="black" stroke="black" points="233.15,-87.86 232.88,-98.45 239.69,-90.33 233.15,-87.86"/>
</g>
<!-- http://purl.org/oseg/ontologies/OTRL#ODRL&#45;2 -->
<g id="node12" class="node">
<title>http://purl.org/oseg/ontologies/OTRL#ODRL&#45;2</title>
<ellipse fill="none" stroke="#e377c2" cx="435.68" cy="-106.38" rx="50.82" ry="16.03"/>
<text text-anchor="middle" x="435.68" y="-102.68" font-family="Times,serif" font-size="14.00">ODRL&#45;2</text>
</g>
<!-- http://purl.org/oseg/ontologies/OTRL#ODRL&#45;2&#45;&gt;http://www.w3.org/2002/07/owl#class -->
<g id="edge28" class="edge">
<title>http://purl.org/oseg/ontologies/OTRL#ODRL&#45;2&#45;&gt;http://www.w3.org/2002/07/owl#class</title>
<path fill="none" stroke="black" d="M424.07,-122.32C397.75,-158.47 333.41,-246.83 302.16,-289.75"/>
<polygon fill="black" stroke="black" points="299.25,-287.8 296.19,-297.94 304.91,-291.92 299.25,-287.8"/>
<text text-anchor="middle" x="358.61" y="-209.83" font-family="Times,serif" font-size="14.00">a</text>
</g>
<!-- http://purl.org/oseg/ontologies/OTRL#ODRL&#45;2&#45;&gt;http://purl.org/oseg/ontologies/OTRL#ODRL -->
<g id="edge6" class="edge">
<title>http://purl.org/oseg/ontologies/OTRL#ODRL&#45;2&#45;&gt;http://purl.org/oseg/ontologies/OTRL#ODRL</title>
<path fill="none" stroke="black" d="M385.1,-108.4C352.84,-109.69 311.14,-111.36 278.62,-112.66"/>
<polygon fill="black" stroke="black" points="278.27,-109.17 268.41,-113.07 278.55,-116.17 278.27,-109.17"/>
</g>
<!-- http://purl.org/oseg/ontologies/OTRL#OTRL&#45;2 -->
<g id="node13" class="node">
<title>http://purl.org/oseg/ontologies/OTRL#OTRL&#45;2</title>
<ellipse fill="none" stroke="#e377c2" cx="119.59" cy="-507.1" rx="49.49" ry="16.03"/>
<text text-anchor="middle" x="119.59" y="-503.4" font-family="Times,serif" font-size="14.00">OTRL&#45;2</text>
</g>
<!-- http://purl.org/oseg/ontologies/OTRL#OTRL&#45;2&#45;&gt;http://www.w3.org/2002/07/owl#class -->
<g id="edge30" class="edge">
<title>http://purl.org/oseg/ontologies/OTRL#OTRL&#45;2&#45;&gt;http://www.w3.org/2002/07/owl#class</title>
<path fill="none" stroke="black" d="M133.08,-491.29C162.02,-457.41 230.17,-377.61 264.31,-337.63"/>
<polygon fill="black" stroke="black" points="267.03,-339.84 270.86,-329.96 261.7,-335.3 267.03,-339.84"/>
<text text-anchor="middle" x="194.2" y="-418.26" font-family="Times,serif" font-size="14.00">a</text>
</g>
<!-- http://purl.org/oseg/ontologies/OTRL#OTRL&#45;2&#45;&gt;http://purl.org/oseg/ontologies/OTRL#OTRL -->
<g id="edge14" class="edge">
<title>http://purl.org/oseg/ontologies/OTRL#OTRL&#45;2&#45;&gt;http://purl.org/oseg/ontologies/OTRL#OTRL</title>
<path fill="none" stroke="black" d="M150.83,-519.78C196.08,-538.15 279.75,-572.1 328.45,-591.87"/>
<polygon fill="black" stroke="black" points="327.41,-595.22 337.99,-595.74 330.04,-588.74 327.41,-595.22"/>
</g>
<!-- http://purl.org/oseg/ontologies/OTRL#OTRL&#45;7 -->
<g id="node14" class="node">
<title>http://purl.org/oseg/ontologies/OTRL#OTRL&#45;7</title>
<ellipse fill="none" stroke="#e377c2" cx="258.29" cy="-560.39" rx="49.49" ry="16.03"/>
<text text-anchor="middle" x="258.29" y="-556.69" font-family="Times,serif" font-size="14.00">OTRL&#45;7</text>
</g>
<!-- http://purl.org/oseg/ontologies/OTRL#OTRL&#45;7&#45;&gt;http://www.w3.org/2002/07/owl#class -->
<g id="edge9" class="edge">
<title>http://purl.org/oseg/ontologies/OTRL#OTRL&#45;7&#45;&gt;http://www.w3.org/2002/07/owl#class</title>
<path fill="none" stroke="black" d="M260.05,-543.84C264.51,-502.01 276.25,-391.78 281.7,-340.67"/>
<polygon fill="black" stroke="black" points="285.21,-340.73 282.79,-330.42 278.25,-339.99 285.21,-340.73"/>
<text text-anchor="middle" x="266.37" y="-431.05" font-family="Times,serif" font-size="14.00">a</text>
</g>
<!-- http://purl.org/oseg/ontologies/OTRL#OTRL&#45;7&#45;&gt;http://purl.org/oseg/ontologies/OTRL#OTRL -->
<g id="edge7" class="edge">
<title>http://purl.org/oseg/ontologies/OTRL#OTRL&#45;7&#45;&gt;http://purl.org/oseg/ontologies/OTRL#OTRL</title>
<path fill="none" stroke="black" d="M288.38,-573.44C301.14,-578.98 316.13,-585.48 329.54,-591.29"/>
<polygon fill="black" stroke="black" points="328.4,-594.61 338.97,-595.38 331.19,-588.19 328.4,-594.61"/>
</g>
<!-- http://purl.org/oseg/ontologies/OTRL#OTRL&#45;1 -->
<g id="node15" class="node">
<title>http://purl.org/oseg/ontologies/OTRL#OTRL&#45;1</title>
<ellipse fill="none" stroke="#e377c2" cx="404.76" cy="-513.96" rx="49.49" ry="16.03"/>
<text text-anchor="middle" x="404.76" y="-510.26" font-family="Times,serif" font-size="14.00">OTRL&#45;1</text>
</g>
<!-- http://purl.org/oseg/ontologies/OTRL#OTRL&#45;1&#45;&gt;http://www.w3.org/2002/07/owl#class -->
<g id="edge10" class="edge">
<title>http://purl.org/oseg/ontologies/OTRL#OTRL&#45;1&#45;&gt;http://www.w3.org/2002/07/owl#class</title>
<path fill="none" stroke="black" d="M395.13,-497.93C374.2,-463.11 324.47,-380.36 299.45,-338.74"/>
<polygon fill="black" stroke="black" points="302.38,-336.81 294.23,-330.04 296.38,-340.42 302.38,-336.81"/>
<text text-anchor="middle" x="342.79" y="-422.14" font-family="Times,serif" font-size="14.00">a</text>
</g>
<!-- http://purl.org/oseg/ontologies/OTRL#OTRL&#45;1&#45;&gt;http://purl.org/oseg/ontologies/OTRL#OTRL -->
<g id="edge24" class="edge">
<title>http://purl.org/oseg/ontologies/OTRL#OTRL&#45;1&#45;&gt;http://purl.org/oseg/ontologies/OTRL#OTRL</title>
<path fill="none" stroke="black" d="M398.07,-530.21C392.22,-544.38 383.64,-565.2 376.88,-581.62"/>
<polygon fill="black" stroke="black" points="373.51,-580.6 372.94,-591.17 379.98,-583.26 373.51,-580.6"/>
</g>
<!-- http://purl.org/oseg/ontologies/OTRL#OTRL&#45;3 -->
<g id="node16" class="node">
<title>http://purl.org/oseg/ontologies/OTRL#OTRL&#45;3</title>
<ellipse fill="none" stroke="#e377c2" cx="378.71" cy="-418.46" rx="49.49" ry="16.03"/>
<text text-anchor="middle" x="378.71" y="-414.76" font-family="Times,serif" font-size="14.00">OTRL&#45;3</text>
</g>
<!-- http://purl.org/oseg/ontologies/OTRL#OTRL&#45;3&#45;&gt;http://www.w3.org/2002/07/owl#class -->
<g id="edge32" class="edge">
<title>http://purl.org/oseg/ontologies/OTRL#OTRL&#45;3&#45;&gt;http://www.w3.org/2002/07/owl#class</title>
<path fill="none" stroke="black" d="M364.41,-402.59C348.78,-385.24 323.6,-357.29 305.69,-337.41"/>
<polygon fill="black" stroke="black" points="308.28,-335.05 298.98,-329.96 303.07,-339.74 308.28,-335.05"/>
<text text-anchor="middle" x="330.55" y="-373.8" font-family="Times,serif" font-size="14.00">a</text>
</g>
<!-- http://purl.org/oseg/ontologies/OTRL#OTRL&#45;3&#45;&gt;http://purl.org/oseg/ontologies/OTRL#OTRL -->
<g id="edge17" class="edge">
<title>http://purl.org/oseg/ontologies/OTRL#OTRL&#45;3&#45;&gt;http://purl.org/oseg/ontologies/OTRL#OTRL</title>
<path fill="none" stroke="black" d="M377.63,-434.89C375.48,-467.59 370.66,-541.11 368.06,-580.73"/>
<polygon fill="black" stroke="black" points="364.56,-580.51 367.4,-590.72 371.55,-580.97 364.56,-580.51"/>
</g>
<!-- http://purl.org/oseg/ontologies/OTRL#OTRL&#45;8 -->
<g id="node17" class="node">
<title>http://purl.org/oseg/ontologies/OTRL#OTRL&#45;8</title>
<ellipse fill="none" stroke="#e377c2" cx="529.97" cy="-425.06" rx="49.49" ry="16.03"/>
<text text-anchor="middle" x="529.97" y="-421.36" font-family="Times,serif" font-size="14.00">OTRL&#45;8</text>
</g>
<!-- http://purl.org/oseg/ontologies/OTRL#OTRL&#45;8&#45;&gt;http://www.w3.org/2002/07/owl#class -->
<g id="edge34" class="edge">
<title>http://purl.org/oseg/ontologies/OTRL#OTRL&#45;8&#45;&gt;http://www.w3.org/2002/07/owl#class</title>
<path fill="none" stroke="black" d="M500.85,-411.87C456.95,-392 373.72,-354.31 324.28,-331.93"/>
<polygon fill="black" stroke="black" points="325.72,-328.74 315.16,-327.8 322.83,-335.11 325.72,-328.74"/>
<text text-anchor="middle" x="408.06" y="-375.7" font-family="Times,serif" font-size="14.00">a</text>
</g>
<!-- http://purl.org/oseg/ontologies/OTRL#OTRL&#45;8&#45;&gt;http://purl.org/oseg/ontologies/OTRL#OTRL -->
<g id="edge8" class="edge">
<title>http://purl.org/oseg/ontologies/OTRL#OTRL&#45;8&#45;&gt;http://purl.org/oseg/ontologies/OTRL#OTRL</title>
<path fill="none" stroke="black" d="M515.73,-440.91C486.81,-473.1 421.08,-546.27 387.27,-583.91"/>
<polygon fill="black" stroke="black" points="384.25,-582.03 380.17,-591.81 389.46,-586.71 384.25,-582.03"/>
</g>
<!-- http://purl.org/oseg/ontologies/OTRL#ODRL&#45;0 -->
<g id="node18" class="node">
<title>http://purl.org/oseg/ontologies/OTRL#ODRL&#45;0</title>
<ellipse fill="none" stroke="#e377c2" cx="380.45" cy="-46.74" rx="50.82" ry="16.03"/>
<text text-anchor="middle" x="380.45" y="-43.04" font-family="Times,serif" font-size="14.00">ODRL&#45;0</text>
</g>
<!-- http://purl.org/oseg/ontologies/OTRL#ODRL&#45;0&#45;&gt;http://www.w3.org/2002/07/owl#class -->
<g id="edge35" class="edge">
<title>http://purl.org/oseg/ontologies/OTRL#ODRL&#45;0&#45;&gt;http://www.w3.org/2002/07/owl#class</title>
<path fill="none" stroke="black" d="M374.6,-63.05C358.51,-107.86 313.54,-233.15 293.91,-287.85"/>
<polygon fill="black" stroke="black" points="290.53,-286.91 290.45,-297.5 297.12,-289.27 290.53,-286.91"/>
<text text-anchor="middle" x="329.75" y="-179.25" font-family="Times,serif" font-size="14.00">a</text>
</g>
<!-- http://purl.org/oseg/ontologies/OTRL#ODRL&#45;0&#45;&gt;http://purl.org/oseg/ontologies/OTRL#ODRL -->
<g id="edge31" class="edge">
<title>http://purl.org/oseg/ontologies/OTRL#ODRL&#45;0&#45;&gt;http://purl.org/oseg/ontologies/OTRL#ODRL</title>
<path fill="none" stroke="black" d="M350.45,-60.01C325.62,-70.99 290.25,-86.64 263.68,-98.39"/>
<polygon fill="black" stroke="black" points="262.06,-95.28 254.33,-102.53 264.89,-101.68 262.06,-95.28"/>
</g>
<!-- http://purl.org/oseg/ontologies/OTRL#exitCriteria -->
<g id="node19" class="node">
<title>http://purl.org/oseg/ontologies/OTRL#exitCriteria</title>
<ellipse fill="none" stroke="#e377c2" cx="367.62" cy="-892.96" rx="70.01" ry="16.03"/>
<text text-anchor="middle" x="367.62" y="-889.26" font-family="Times,serif" font-size="14.00">exitCriteria</text>
</g>
<!-- http://purl.org/oseg/ontologies/OTRL#exitCriteria&#45;&gt;http://purl.org/oseg/ontologies/OTRL#OTRL -->
<g id="edge12" class="edge">
<title>http://purl.org/oseg/ontologies/OTRL#exitCriteria&#45;&gt;http://purl.org/oseg/ontologies/OTRL#OTRL</title>
<path fill="none" stroke="black" d="M367.55,-876.37C367.33,-828.81 366.7,-691.76 366.44,-633.72"/>
<polygon fill="black" stroke="black" points="369.94,-633.51 366.39,-623.52 362.94,-633.54 369.94,-633.51"/>
<text text-anchor="middle" x="340.49" y="-758.84" font-family="Times,serif" font-size="14.00">domain</text>
</g>
<!-- http://purl.org/oseg/ontologies/OTRL#exitCriteria&#45;&gt;http://schema.org/Text -->
<g id="edge21" class="edge">
<title>http://purl.org/oseg/ontologies/OTRL#exitCriteria&#45;&gt;http://schema.org/Text</title>
<path fill="none" stroke="black" d="M376.34,-909.35C397.62,-949.37 452.38,-1052.33 477.97,-1100.45"/>
<polygon fill="black" stroke="black" points="475.04,-1102.39 482.83,-1109.57 481.22,-1099.1 475.04,-1102.39"/>
<text text-anchor="middle" x="406.15" y="-1008.7" font-family="Times,serif" font-size="14.00">range</text>
</g>
<!-- http://purl.org/oseg/ontologies/OTRL#ODRL&#45;1 -->
<g id="node20" class="node">
<title>http://purl.org/oseg/ontologies/OTRL#ODRL&#45;1</title>
<ellipse fill="none" stroke="#e377c2" cx="130.14" cy="-58.41" rx="50.82" ry="16.03"/>
<text text-anchor="middle" x="130.14" y="-54.71" font-family="Times,serif" font-size="14.00">ODRL&#45;1</text>
</g>
<!-- http://purl.org/oseg/ontologies/OTRL#ODRL&#45;1&#45;&gt;http://www.w3.org/2002/07/owl#class -->
<g id="edge15" class="edge">
<title>http://purl.org/oseg/ontologies/OTRL#ODRL&#45;1&#45;&gt;http://www.w3.org/2002/07/owl#class</title>
<path fill="none" stroke="black" d="M139.8,-74.4C165.89,-117.58 237.97,-236.85 269.47,-289"/>
<polygon fill="black" stroke="black" points="266.52,-290.88 274.69,-297.63 272.52,-287.26 266.52,-290.88"/>
<text text-anchor="middle" x="200.14" y="-185.5" font-family="Times,serif" font-size="14.00">a</text>
</g>
<!-- http://purl.org/oseg/ontologies/OTRL#ODRL&#45;1&#45;&gt;http://purl.org/oseg/ontologies/OTRL#ODRL -->
<g id="edge13" class="edge">
<title>http://purl.org/oseg/ontologies/OTRL#ODRL&#45;1&#45;&gt;http://purl.org/oseg/ontologies/OTRL#ODRL</title>
<path fill="none" stroke="black" d="M154.76,-72.77C166.93,-79.87 181.77,-88.52 194.8,-96.12"/>
<polygon fill="black" stroke="black" points="193.08,-99.17 203.48,-101.18 196.6,-93.12 193.08,-99.17"/>
</g>
<!-- http://purl.org/oseg/ontologies/OTRL#ODRL&#45;3 -->
<g id="node21" class="node">
<title>http://purl.org/oseg/ontologies/OTRL#ODRL&#45;3</title>
<ellipse fill="none" stroke="#e377c2" cx="50.97" cy="-219.86" rx="50.82" ry="16.03"/>
<text text-anchor="middle" x="50.97" y="-216.16" font-family="Times,serif" font-size="14.00">ODRL&#45;3</text>
</g>
<!-- http://purl.org/oseg/ontologies/OTRL#ODRL&#45;3&#45;&gt;http://www.w3.org/2002/07/owl#class -->
<g id="edge41" class="edge">
<title>http://purl.org/oseg/ontologies/OTRL#ODRL&#45;3&#45;&gt;http://www.w3.org/2002/07/owl#class</title>
<path fill="none" stroke="black" d="M82.96,-232.75C124.25,-249.38 196.23,-278.37 242.07,-296.83"/>
<polygon fill="black" stroke="black" points="240.86,-300.11 251.44,-300.6 243.47,-293.62 240.86,-300.11"/>
<text text-anchor="middle" x="158.02" y="-268.59" font-family="Times,serif" font-size="14.00">a</text>
</g>
<!-- http://purl.org/oseg/ontologies/OTRL#ODRL&#45;3&#45;&gt;http://purl.org/oseg/ontologies/OTRL#ODRL -->
<g id="edge37" class="edge">
<title>http://purl.org/oseg/ontologies/OTRL#ODRL&#45;3&#45;&gt;http://purl.org/oseg/ontologies/OTRL#ODRL</title>
<path fill="none" stroke="black" d="M75.04,-205.47C106.19,-186.83 160.56,-154.31 195.05,-133.69"/>
<polygon fill="black" stroke="black" points="197,-136.6 203.78,-128.46 193.4,-130.59 197,-136.6"/>
</g>
<!-- http://purl.org/oseg/ontologies/OTRL#ODRL&#45;4 -->
<g id="node22" class="node">
<title>http://purl.org/oseg/ontologies/OTRL#ODRL&#45;4</title>
<ellipse fill="none" stroke="#e377c2" cx="62.09" cy="-134.22" rx="50.82" ry="16.03"/>
<text text-anchor="middle" x="62.09" y="-130.52" font-family="Times,serif" font-size="14.00">ODRL&#45;4</text>
</g>
<!-- http://purl.org/oseg/ontologies/OTRL#ODRL&#45;4&#45;&gt;http://www.w3.org/2002/07/owl#class -->
<g id="edge16" class="edge">
<title>http://purl.org/oseg/ontologies/OTRL#ODRL&#45;4&#45;&gt;http://www.w3.org/2002/07/owl#class</title>
<path fill="none" stroke="black" d="M81.06,-149.54C120.52,-181.43 211.6,-255.01 257.33,-291.95"/>
<polygon fill="black" stroke="black" points="255.33,-294.84 265.31,-298.4 259.73,-289.39 255.33,-294.84"/>
<text text-anchor="middle" x="164.69" y="-224.55" font-family="Times,serif" font-size="14.00">a</text>
</g>
<!-- http://purl.org/oseg/ontologies/OTRL#ODRL&#45;4&#45;&gt;http://purl.org/oseg/ontologies/OTRL#ODRL -->
<g id="edge26" class="edge">
<title>http://purl.org/oseg/ontologies/OTRL#ODRL&#45;4&#45;&gt;http://purl.org/oseg/ontologies/OTRL#ODRL</title>
<path fill="none" stroke="black" d="M110.15,-128.53C131.03,-126.06 155.49,-123.17 176.6,-120.67"/>
<polygon fill="black" stroke="black" points="177.14,-124.13 186.66,-119.48 176.32,-117.18 177.14,-124.13"/>
</g>
<!-- http://purl.org/oseg/ontologies/OTRL#OTRL&#45;5 -->
<g id="node23" class="node">
<title>http://purl.org/oseg/ontologies/OTRL#OTRL&#45;5</title>
<ellipse fill="none" stroke="#e377c2" cx="222.56" cy="-463.93" rx="49.49" ry="16.03"/>
<text text-anchor="middle" x="222.56" y="-460.23" font-family="Times,serif" font-size="14.00">OTRL&#45;5</text>
</g>
<!-- http://purl.org/oseg/ontologies/OTRL#OTRL&#45;5&#45;&gt;http://www.w3.org/2002/07/owl#class -->
<g id="edge18" class="edge">
<title>http://purl.org/oseg/ontologies/OTRL#OTRL&#45;5&#45;&gt;http://www.w3.org/2002/07/owl#class</title>
<path fill="none" stroke="black" d="M229.32,-447.6C240.07,-421.56 261.19,-370.45 273.97,-339.53"/>
<polygon fill="black" stroke="black" points="277.22,-340.83 277.8,-330.26 270.75,-338.16 277.22,-340.83"/>
<text text-anchor="middle" x="247.14" y="-397.36" font-family="Times,serif" font-size="14.00">a</text>
</g>
<!-- http://purl.org/oseg/ontologies/OTRL#OTRL&#45;5&#45;&gt;http://purl.org/oseg/ontologies/OTRL#OTRL -->
<g id="edge5" class="edge">
<title>http://purl.org/oseg/ontologies/OTRL#OTRL&#45;5&#45;&gt;http://purl.org/oseg/ontologies/OTRL#OTRL</title>
<path fill="none" stroke="black" d="M238.22,-479.54C263.74,-504.98 314.39,-555.47 343.78,-584.77"/>
<polygon fill="black" stroke="black" points="341.56,-587.5 351.11,-592.08 346.5,-582.54 341.56,-587.5"/>
</g>
<!-- http://purl.org/oseg/ontologies/OTRL#OTRL&#45;6 -->
<g id="node24" class="node">
<title>http://purl.org/oseg/ontologies/OTRL#OTRL&#45;6</title>
<ellipse fill="none" stroke="#e377c2" cx="144.23" cy="-568.53" rx="49.49" ry="16.03"/>
<text text-anchor="middle" x="144.23" y="-564.83" font-family="Times,serif" font-size="14.00">OTRL&#45;6</text>
</g>
<!-- http://purl.org/oseg/ontologies/OTRL#OTRL&#45;6&#45;&gt;http://www.w3.org/2002/07/owl#class -->
<g id="edge19" class="edge">
<title>http://purl.org/oseg/ontologies/OTRL#OTRL&#45;6&#45;&gt;http://www.w3.org/2002/07/owl#class</title>
<path fill="none" stroke="black" d="M153.22,-552.21C177.08,-508.92 242.12,-390.91 270.73,-339.01"/>
<polygon fill="black" stroke="black" points="273.87,-340.56 275.63,-330.12 267.74,-337.18 273.87,-340.56"/>
<text text-anchor="middle" x="207.48" y="-434.41" font-family="Times,serif" font-size="14.00">a</text>
</g>
<!-- http://purl.org/oseg/ontologies/OTRL#OTRL&#45;6&#45;&gt;http://purl.org/oseg/ontologies/OTRL#OTRL -->
<g id="edge40" class="edge">
<title>http://purl.org/oseg/ontologies/OTRL#OTRL&#45;6&#45;&gt;http://purl.org/oseg/ontologies/OTRL#OTRL</title>
<path fill="none" stroke="black" d="M188.11,-576.17C226.05,-582.79 280.76,-592.32 319.53,-599.08"/>
<polygon fill="black" stroke="black" points="319.07,-602.55 329.52,-600.82 320.27,-595.66 319.07,-602.55"/>
</g>
</g>
</svg>
