<?xml version="1.0" encoding="UTF-8" standalone="no"?>
<!DOCTYPE svg PUBLIC "-//W3C//DTD SVG 1.1//EN"
 "http://www.w3.org/Graphics/SVG/1.1/DTD/svg11.dtd">
<!-- Generated by graphviz version 2.43.0 (0)
 -->
<!-- Title: G Pages: 1 -->
<svg width="551pt" height="466pt"
 viewBox="0.00 0.00 551.05 466.00" xmlns="http://www.w3.org/2000/svg" xmlns:xlink="http://www.w3.org/1999/xlink">
<g id="graph0" class="graph" transform="scale(1 1) rotate(0) translate(4 462)">
<title>G</title>
<polygon fill="white" stroke="transparent" points="-4,4 -4,-462 547.05,-462 547.05,4 -4,4"/>
<!-- http://purl.org/oseg/ontologies/OTRL#OTRL -->
<g id="node1" class="node">
<title>http://purl.org/oseg/ontologies/OTRL#OTRL</title>
<ellipse fill="none" stroke="#e377c2" cx="190.68" cy="-241.88" rx="39.7" ry="16.03"/>
<text text-anchor="middle" x="190.68" y="-238.18" font-family="Times,serif" font-size="14.00">OTRL</text>
</g>
<!-- http://www.w3.org/2002/07/owl#class -->
<g id="node2" class="node">
<title>http://www.w3.org/2002/07/owl#class</title>
<ellipse fill="none" stroke="#1f77b4" cx="217.42" cy="-197.05" rx="57.05" ry="16.03"/>
<text text-anchor="middle" x="217.42" y="-193.35" font-family="Times,serif" font-size="14.00">owl:class</text>
</g>
<!-- http://purl.org/oseg/ontologies/OTRL#OTRL&#45;&gt;http://www.w3.org/2002/07/owl#class -->
<g id="edge3" class="edge">
<title>http://purl.org/oseg/ontologies/OTRL#OTRL&#45;&gt;http://www.w3.org/2002/07/owl#class</title>
<path fill="none" stroke="black" d="M200.18,-225.94C200.95,-224.66 201.74,-223.33 202.53,-222"/>
<polygon fill="black" stroke="black" points="205.65,-223.61 207.77,-213.23 199.64,-220.02 205.65,-223.61"/>
<text text-anchor="middle" x="196.86" y="-212.77" font-family="Times,serif" font-size="14.00">a</text>
</g>
<!-- http://purl.org/oseg/ontologies/OTRL#ODRL -->
<g id="node3" class="node">
<title>http://purl.org/oseg/ontologies/OTRL#ODRL</title>
<ellipse fill="none" stroke="#e377c2" cx="220.71" cy="-99.32" rx="41.94" ry="16.03"/>
<text text-anchor="middle" x="220.71" y="-95.62" font-family="Times,serif" font-size="14.00">ODRL</text>
</g>
<!-- http://www.w3.org/1999/02/22&#45;rdf&#45;syntax&#45;ns#nil -->
<g id="node4" class="node">
<title>http://www.w3.org/1999/02/22&#45;rdf&#45;syntax&#45;ns#nil</title>
<ellipse fill="none" stroke="#e377c2" cx="82.24" cy="-396.64" rx="42.35" ry="16.03"/>
<text text-anchor="middle" x="82.24" y="-392.94" font-family="Times,serif" font-size="14.00">rdf:nil</text>
</g>
<!-- http://purl.org/oseg/ontologies/OTRL#Odrl3Star -->
<g id="node5" class="node">
<title>http://purl.org/oseg/ontologies/OTRL#Odrl3Star</title>
<ellipse fill="none" stroke="#e377c2" cx="62.16" cy="-220.68" rx="62.45" ry="16.03"/>
<text text-anchor="middle" x="62.16" y="-216.98" font-family="Times,serif" font-size="14.00">Odrl3Star</text>
</g>
<!-- http://purl.org/oseg/ontologies/OTRL#Odrl3Star&#45;&gt;http://www.w3.org/2002/07/owl#class -->
<g id="edge15" class="edge">
<title>http://purl.org/oseg/ontologies/OTRL#Odrl3Star&#45;&gt;http://www.w3.org/2002/07/owl#class</title>
<path fill="none" stroke="black" d="M116.03,-212.48C129.15,-210.48 143.27,-208.33 156.69,-206.29"/>
<polygon fill="black" stroke="black" points="157.42,-209.72 166.78,-204.75 156.37,-202.8 157.42,-209.72"/>
<text text-anchor="middle" x="131.86" y="-213.18" font-family="Times,serif" font-size="14.00">a</text>
</g>
<!-- http://purl.org/oseg/ontologies/OTRL#Odrl3Star&#45;&gt;http://purl.org/oseg/ontologies/OTRL#ODRL -->
<g id="edge23" class="edge">
<title>http://purl.org/oseg/ontologies/OTRL#Odrl3Star&#45;&gt;http://purl.org/oseg/ontologies/OTRL#ODRL</title>
<path fill="none" stroke="black" d="M82.57,-205.06C110.82,-183.44 161.93,-144.32 193.43,-120.2"/>
<polygon fill="black" stroke="black" points="195.56,-122.98 201.38,-114.12 191.31,-117.42 195.56,-122.98"/>
</g>
<!-- http://purl.org/oseg/ontologies/OTRL#Otrl2 -->
<g id="node6" class="node">
<title>http://purl.org/oseg/ontologies/OTRL#Otrl2</title>
<ellipse fill="none" stroke="#e377c2" cx="288.3" cy="-347.13" rx="38.37" ry="16.03"/>
<text text-anchor="middle" x="288.3" y="-343.43" font-family="Times,serif" font-size="14.00">Otrl2</text>
</g>
<!-- http://purl.org/oseg/ontologies/OTRL#Otrl2&#45;&gt;http://purl.org/oseg/ontologies/OTRL#OTRL -->
<g id="edge5" class="edge">
<title>http://purl.org/oseg/ontologies/OTRL#Otrl2&#45;&gt;http://purl.org/oseg/ontologies/OTRL#OTRL</title>
<path fill="none" stroke="black" d="M273.9,-331.6C257.51,-313.93 230.59,-284.91 211.82,-264.68"/>
<polygon fill="black" stroke="black" points="214.19,-262.08 204.82,-257.13 209.06,-266.84 214.19,-262.08"/>
</g>
<!-- http://purl.org/oseg/ontologies/OTRL#Otrl2&#45;&gt;http://www.w3.org/2002/07/owl#class -->
<g id="edge1" class="edge">
<title>http://purl.org/oseg/ontologies/OTRL#Otrl2&#45;&gt;http://www.w3.org/2002/07/owl#class</title>
<path fill="none" stroke="black" d="M280.72,-331.07C268.47,-305.14 244.24,-253.83 229.57,-222.76"/>
<polygon fill="black" stroke="black" points="232.6,-220.99 225.17,-213.45 226.27,-223.98 232.6,-220.99"/>
<text text-anchor="middle" x="250.64" y="-280.71" font-family="Times,serif" font-size="14.00">a</text>
</g>
<!-- http://purl.org/oseg/ontologies/OTRL#goal -->
<g id="node7" class="node">
<title>http://purl.org/oseg/ontologies/OTRL#goal</title>
<ellipse fill="none" stroke="#e377c2" cx="373.22" cy="-441.71" rx="33.47" ry="16.03"/>
<text text-anchor="middle" x="373.22" y="-438.01" font-family="Times,serif" font-size="14.00">goal</text>
</g>
<!-- http://schema.org/Text -->
<g id="node10" class="node">
<title>http://schema.org/Text</title>
<ellipse fill="none" stroke="#e377c2" cx="420.86" cy="-401.11" rx="74.91" ry="16.03"/>
<text text-anchor="middle" x="420.86" y="-397.41" font-family="Times,serif" font-size="14.00">schema:Text</text>
</g>
<!-- http://purl.org/oseg/ontologies/OTRL#goal&#45;&gt;http://schema.org/Text -->
<g id="edge6" class="edge">
<title>http://purl.org/oseg/ontologies/OTRL#goal&#45;&gt;http://schema.org/Text</title>
<path fill="none" stroke="black" d="M389.88,-427.51C391.37,-426.24 392.9,-424.94 394.45,-423.62"/>
<polygon fill="black" stroke="black" points="396.83,-426.18 402.17,-417.03 392.29,-420.86 396.83,-426.18"/>
<text text-anchor="middle" x="413.16" y="-429.36" font-family="Times,serif" font-size="14.00">range</text>
</g>
<!-- http://purl.org/oseg/ontologies/OTRL#Odrl -->
<g id="node8" class="node">
<title>http://purl.org/oseg/ontologies/OTRL#Odrl</title>
<ellipse fill="none" stroke="#e377c2" cx="195.81" cy="-373.14" rx="33.88" ry="16.03"/>
<text text-anchor="middle" x="195.81" y="-369.44" font-family="Times,serif" font-size="14.00">Odrl</text>
</g>
<!-- http://purl.org/oseg/ontologies/OTRL#Odrl&#45;&gt;http://www.w3.org/2002/07/owl#class -->
<g id="edge18" class="edge">
<title>http://purl.org/oseg/ontologies/OTRL#Odrl&#45;&gt;http://www.w3.org/2002/07/owl#class</title>
<path fill="none" stroke="black" d="M197.8,-356.89C201.54,-326.43 209.63,-260.52 214.17,-223.55"/>
<polygon fill="black" stroke="black" points="217.65,-223.86 215.4,-213.51 210.71,-223.01 217.65,-223.86"/>
<text text-anchor="middle" x="201.48" y="-294.02" font-family="Times,serif" font-size="14.00">a</text>
</g>
<!-- http://purl.org/oseg/ontologies/OTRL#Odrl4 -->
<g id="node9" class="node">
<title>http://purl.org/oseg/ontologies/OTRL#Odrl4</title>
<ellipse fill="none" stroke="#e377c2" cx="122.14" cy="-36.07" rx="40.11" ry="16.03"/>
<text text-anchor="middle" x="122.14" y="-32.37" font-family="Times,serif" font-size="14.00">Odrl4</text>
</g>
<!-- http://purl.org/oseg/ontologies/OTRL#Odrl4&#45;&gt;http://www.w3.org/2002/07/owl#class -->
<g id="edge16" class="edge">
<title>http://purl.org/oseg/ontologies/OTRL#Odrl4&#45;&gt;http://www.w3.org/2002/07/owl#class</title>
<path fill="none" stroke="black" d="M131.62,-52.09C148.23,-80.15 182.69,-138.37 202.51,-171.86"/>
<polygon fill="black" stroke="black" points="199.58,-173.78 207.69,-180.61 205.61,-170.22 199.58,-173.78"/>
<text text-anchor="middle" x="162.57" y="-115.78" font-family="Times,serif" font-size="14.00">a</text>
</g>
<!-- http://purl.org/oseg/ontologies/OTRL#Odrl4&#45;&gt;http://purl.org/oseg/ontologies/OTRL#ODRL -->
<g id="edge13" class="edge">
<title>http://purl.org/oseg/ontologies/OTRL#Odrl4&#45;&gt;http://purl.org/oseg/ontologies/OTRL#ODRL</title>
<path fill="none" stroke="black" d="M144.01,-50.11C157.67,-58.87 175.44,-70.27 190.44,-79.9"/>
<polygon fill="black" stroke="black" points="188.59,-82.87 198.89,-85.32 192.37,-76.98 188.59,-82.87"/>
</g>
<!-- http://purl.org/oseg/ontologies/OTRL -->
<g id="node11" class="node">
<title>http://purl.org/oseg/ontologies/OTRL</title>
<ellipse fill="none" stroke="#e377c2" cx="361.24" cy="-216.64" rx="60.62" ry="16.03"/>
<text text-anchor="middle" x="361.24" y="-212.94" font-family="Times,serif" font-size="14.00">ns1:OTRL</text>
</g>
<!-- http://purl.org/oseg/ontologies/OTRL&#45;&gt;http://purl.org/oseg/ontologies/OTRL -->
<g id="edge4" class="edge">
<title>http://purl.org/oseg/ontologies/OTRL&#45;&gt;http://purl.org/oseg/ontologies/OTRL</title>
<path fill="none" stroke="black" d="M416.84,-223.27C430.17,-222.75 440.05,-220.54 440.05,-216.64 440.05,-213.81 434.83,-211.86 426.87,-210.81"/>
<polygon fill="black" stroke="black" points="427.09,-207.32 416.84,-210.01 426.53,-214.3 427.09,-207.32"/>
<text text-anchor="middle" x="491.55" y="-212.94" font-family="Times,serif" font-size="14.00">owl:versionIRI</text>
</g>
<!-- http://purl.org/oseg/ontologies/OTRL#exitCriteria -->
<g id="node12" class="node">
<title>http://purl.org/oseg/ontologies/OTRL#exitCriteria</title>
<ellipse fill="none" stroke="#e377c2" cx="426.99" cy="-356.39" rx="70.01" ry="16.03"/>
<text text-anchor="middle" x="426.99" y="-352.69" font-family="Times,serif" font-size="14.00">exitCriteria</text>
</g>
<!-- http://purl.org/oseg/ontologies/OTRL#exitCriteria&#45;&gt;http://schema.org/Text -->
<g id="edge17" class="edge">
<title>http://purl.org/oseg/ontologies/OTRL#exitCriteria&#45;&gt;http://schema.org/Text</title>
<path fill="none" stroke="black" d="M424.74,-372.79C424.66,-373.4 424.58,-374.01 424.49,-374.63"/>
<polygon fill="black" stroke="black" points="421,-374.33 423.11,-384.72 427.93,-375.28 421,-374.33"/>
<text text-anchor="middle" x="403.62" y="-377.51" font-family="Times,serif" font-size="14.00">range</text>
</g>
<!-- http://purl.org/oseg/ontologies/OTRL#Odrl2 -->
<g id="node13" class="node">
<title>http://purl.org/oseg/ontologies/OTRL#Odrl2</title>
<ellipse fill="none" stroke="#e377c2" cx="334.07" cy="-65.74" rx="40.11" ry="16.03"/>
<text text-anchor="middle" x="334.07" y="-62.04" font-family="Times,serif" font-size="14.00">Odrl2</text>
</g>
<!-- http://purl.org/oseg/ontologies/OTRL#Odrl2&#45;&gt;http://www.w3.org/2002/07/owl#class -->
<g id="edge19" class="edge">
<title>http://purl.org/oseg/ontologies/OTRL#Odrl2&#45;&gt;http://www.w3.org/2002/07/owl#class</title>
<path fill="none" stroke="black" d="M320.46,-81.06C300.31,-103.74 262.36,-146.46 238.56,-173.25"/>
<polygon fill="black" stroke="black" points="235.69,-171.21 231.67,-181.01 240.93,-175.85 235.69,-171.21"/>
<text text-anchor="middle" x="275.01" y="-130.95" font-family="Times,serif" font-size="14.00">a</text>
</g>
<!-- http://purl.org/oseg/ontologies/OTRL#Odrl2&#45;&gt;http://purl.org/oseg/ontologies/OTRL#ODRL -->
<g id="edge25" class="edge">
<title>http://purl.org/oseg/ontologies/OTRL#Odrl2&#45;&gt;http://purl.org/oseg/ontologies/OTRL#ODRL</title>
<path fill="none" stroke="black" d="M301.28,-75.45C289.62,-78.91 276.31,-82.85 263.91,-86.53"/>
<polygon fill="black" stroke="black" points="262.8,-83.2 254.21,-89.4 264.79,-89.91 262.8,-83.2"/>
</g>
<!-- http://purl.org/oseg/ontologies/OTRL#Otrl3 -->
<g id="node14" class="node">
<title>http://purl.org/oseg/ontologies/OTRL#Otrl3</title>
<ellipse fill="none" stroke="#e377c2" cx="103.08" cy="-120.16" rx="38.37" ry="16.03"/>
<text text-anchor="middle" x="103.08" y="-116.46" font-family="Times,serif" font-size="14.00">Otrl3</text>
</g>
<!-- http://purl.org/oseg/ontologies/OTRL#Otrl3&#45;&gt;http://purl.org/oseg/ontologies/OTRL#OTRL -->
<g id="edge14" class="edge">
<title>http://purl.org/oseg/ontologies/OTRL#Otrl3&#45;&gt;http://purl.org/oseg/ontologies/OTRL#OTRL</title>
<path fill="none" stroke="black" d="M114.53,-136.07C129.48,-156.85 155.8,-193.41 173.24,-217.64"/>
<polygon fill="black" stroke="black" points="170.54,-219.89 179.22,-225.96 176.22,-215.8 170.54,-219.89"/>
</g>
<!-- http://purl.org/oseg/ontologies/OTRL#Otrl3&#45;&gt;http://www.w3.org/2002/07/owl#class -->
<g id="edge7" class="edge">
<title>http://purl.org/oseg/ontologies/OTRL#Otrl3&#45;&gt;http://www.w3.org/2002/07/owl#class</title>
<path fill="none" stroke="black" d="M123.52,-133.91C140.98,-145.65 166.36,-162.71 186.33,-176.14"/>
<polygon fill="black" stroke="black" points="184.55,-179.16 194.8,-181.84 188.46,-173.35 184.55,-179.16"/>
<text text-anchor="middle" x="150.43" y="-158.83" font-family="Times,serif" font-size="14.00">a</text>
</g>
<!-- http://purl.org/oseg/ontologies/OTRL#Odrl3 -->
<g id="node15" class="node">
<title>http://purl.org/oseg/ontologies/OTRL#Odrl3</title>
<ellipse fill="none" stroke="#e377c2" cx="232.88" cy="-38.35" rx="40.11" ry="16.03"/>
<text text-anchor="middle" x="232.88" y="-34.65" font-family="Times,serif" font-size="14.00">Odrl3</text>
</g>
<!-- http://purl.org/oseg/ontologies/OTRL#Odrl3&#45;&gt;http://www.w3.org/2002/07/owl#class -->
<g id="edge8" class="edge">
<title>http://purl.org/oseg/ontologies/OTRL#Odrl3&#45;&gt;http://www.w3.org/2002/07/owl#class</title>
<path fill="none" stroke="black" d="M231.28,-54.73C228.62,-82.06 223.25,-137.17 220.03,-170.22"/>
<polygon fill="black" stroke="black" points="216.52,-170.22 219.03,-180.51 223.48,-170.9 216.52,-170.22"/>
<text text-anchor="middle" x="221.16" y="-116.28" font-family="Times,serif" font-size="14.00">a</text>
</g>
<!-- http://purl.org/oseg/ontologies/OTRL#Odrl3&#45;&gt;http://purl.org/oseg/ontologies/OTRL#ODRL -->
<g id="edge2" class="edge">
<title>http://purl.org/oseg/ontologies/OTRL#Odrl3&#45;&gt;http://purl.org/oseg/ontologies/OTRL#ODRL</title>
<path fill="none" stroke="black" d="M229.62,-54.69C228.5,-60.29 227.22,-66.72 225.98,-72.91"/>
<polygon fill="black" stroke="black" points="222.5,-72.45 223.98,-82.94 229.37,-73.82 222.5,-72.45"/>
</g>
<!-- http://purl.org/oseg/ontologies/OTRL#Otrl4 -->
<g id="node16" class="node">
<title>http://purl.org/oseg/ontologies/OTRL#Otrl4</title>
<ellipse fill="none" stroke="#e377c2" cx="54.41" cy="-173.86" rx="38.37" ry="16.03"/>
<text text-anchor="middle" x="54.41" y="-170.16" font-family="Times,serif" font-size="14.00">Otrl4</text>
</g>
<!-- http://purl.org/oseg/ontologies/OTRL#Otrl4&#45;&gt;http://purl.org/oseg/ontologies/OTRL#OTRL -->
<g id="edge9" class="edge">
<title>http://purl.org/oseg/ontologies/OTRL#Otrl4&#45;&gt;http://purl.org/oseg/ontologies/OTRL#OTRL</title>
<path fill="none" stroke="black" d="M79.4,-186.34C100.97,-197.1 132.34,-212.76 156.28,-224.71"/>
<polygon fill="black" stroke="black" points="154.87,-227.92 165.38,-229.25 158,-221.65 154.87,-227.92"/>
</g>
<!-- http://purl.org/oseg/ontologies/OTRL#Otrl4&#45;&gt;http://www.w3.org/2002/07/owl#class -->
<g id="edge21" class="edge">
<title>http://purl.org/oseg/ontologies/OTRL#Otrl4&#45;&gt;http://www.w3.org/2002/07/owl#class</title>
<path fill="none" stroke="black" d="M90.99,-179.06C110.2,-181.8 134.25,-185.22 156.21,-188.34"/>
<polygon fill="black" stroke="black" points="155.73,-191.81 166.12,-189.75 156.72,-184.88 155.73,-191.81"/>
<text text-anchor="middle" x="119.1" y="-187.5" font-family="Times,serif" font-size="14.00">a</text>
</g>
<!-- http://purl.org/oseg/ontologies/OTRL#Otrl5 -->
<g id="node17" class="node">
<title>http://purl.org/oseg/ontologies/OTRL#Otrl5</title>
<ellipse fill="none" stroke="#e377c2" cx="99.41" cy="-333" rx="38.37" ry="16.03"/>
<text text-anchor="middle" x="99.41" y="-329.3" font-family="Times,serif" font-size="14.00">Otrl5</text>
</g>
<!-- http://purl.org/oseg/ontologies/OTRL#Otrl5&#45;&gt;http://purl.org/oseg/ontologies/OTRL#OTRL -->
<g id="edge20" class="edge">
<title>http://purl.org/oseg/ontologies/OTRL#Otrl5&#45;&gt;http://purl.org/oseg/ontologies/OTRL#OTRL</title>
<path fill="none" stroke="black" d="M114.48,-317.95C129.14,-303.31 151.6,-280.89 168.34,-264.18"/>
<polygon fill="black" stroke="black" points="170.98,-266.49 175.58,-256.95 166.03,-261.54 170.98,-266.49"/>
</g>
<!-- http://purl.org/oseg/ontologies/OTRL#Otrl5&#45;&gt;http://www.w3.org/2002/07/owl#class -->
<g id="edge11" class="edge">
<title>http://purl.org/oseg/ontologies/OTRL#Otrl5&#45;&gt;http://www.w3.org/2002/07/owl#class</title>
<path fill="none" stroke="black" d="M112.72,-317.67C133.23,-294.03 172.75,-248.51 196.93,-220.65"/>
<polygon fill="black" stroke="black" points="199.7,-222.8 203.61,-212.95 194.42,-218.21 199.7,-222.8"/>
<text text-anchor="middle" x="150.32" y="-272.96" font-family="Times,serif" font-size="14.00">a</text>
</g>
<!-- http://purl.org/oseg/ontologies/OTRL#Odrl1 -->
<g id="node18" class="node">
<title>http://purl.org/oseg/ontologies/OTRL#Odrl1</title>
<ellipse fill="none" stroke="#e377c2" cx="360.51" cy="-135.19" rx="40.11" ry="16.03"/>
<text text-anchor="middle" x="360.51" y="-131.49" font-family="Times,serif" font-size="14.00">Odrl1</text>
</g>
<!-- http://purl.org/oseg/ontologies/OTRL#Odrl1&#45;&gt;http://www.w3.org/2002/07/owl#class -->
<g id="edge22" class="edge">
<title>http://purl.org/oseg/ontologies/OTRL#Odrl1&#45;&gt;http://www.w3.org/2002/07/owl#class</title>
<path fill="none" stroke="black" d="M332.92,-147.12C311.7,-156.29 282.05,-169.1 258.11,-179.46"/>
<polygon fill="black" stroke="black" points="256.7,-176.25 248.91,-183.43 259.48,-182.68 256.7,-176.25"/>
<text text-anchor="middle" x="291.02" y="-167.09" font-family="Times,serif" font-size="14.00">a</text>
</g>
<!-- http://purl.org/oseg/ontologies/OTRL#Odrl1&#45;&gt;http://purl.org/oseg/ontologies/OTRL#ODRL -->
<g id="edge12" class="edge">
<title>http://purl.org/oseg/ontologies/OTRL#Odrl1&#45;&gt;http://purl.org/oseg/ontologies/OTRL#ODRL</title>
<path fill="none" stroke="black" d="M326.31,-126.41C308.14,-121.75 285.56,-115.96 265.96,-110.93"/>
<polygon fill="black" stroke="black" points="266.57,-107.48 256.01,-108.38 264.83,-114.26 266.57,-107.48"/>
</g>
<!-- http://purl.org/oseg/ontologies/OTRL#Otrl -->
<g id="node19" class="node">
<title>http://purl.org/oseg/ontologies/OTRL#Otrl</title>
<ellipse fill="none" stroke="#e377c2" cx="332.24" cy="-16.64" rx="31.64" ry="16.03"/>
<text text-anchor="middle" x="332.24" y="-12.94" font-family="Times,serif" font-size="14.00">Otrl</text>
</g>
<!-- http://purl.org/oseg/ontologies/OTRL#Otrl1 -->
<g id="node20" class="node">
<title>http://purl.org/oseg/ontologies/OTRL#Otrl1</title>
<ellipse fill="none" stroke="#e377c2" cx="340.58" cy="-280.67" rx="38.37" ry="16.03"/>
<text text-anchor="middle" x="340.58" y="-276.97" font-family="Times,serif" font-size="14.00">Otrl1</text>
</g>
<!-- http://purl.org/oseg/ontologies/OTRL#Otrl1&#45;&gt;http://purl.org/oseg/ontologies/OTRL#OTRL -->
<g id="edge10" class="edge">
<title>http://purl.org/oseg/ontologies/OTRL#Otrl1&#45;&gt;http://purl.org/oseg/ontologies/OTRL#OTRL</title>
<path fill="none" stroke="black" d="M307.68,-272.16C286.04,-266.56 257.48,-259.16 233.99,-253.09"/>
<polygon fill="black" stroke="black" points="234.83,-249.69 224.27,-250.57 233.08,-256.47 234.83,-249.69"/>
</g>
<!-- http://purl.org/oseg/ontologies/OTRL#Otrl1&#45;&gt;http://www.w3.org/2002/07/owl#class -->
<g id="edge24" class="edge">
<title>http://purl.org/oseg/ontologies/OTRL#Otrl1&#45;&gt;http://www.w3.org/2002/07/owl#class</title>
<path fill="none" stroke="black" d="M320.24,-266.86C300.7,-253.59 270.9,-233.36 248.41,-218.09"/>
<polygon fill="black" stroke="black" points="250.11,-215.01 239.87,-212.29 246.18,-220.81 250.11,-215.01"/>
<text text-anchor="middle" x="279.82" y="-246.27" font-family="Times,serif" font-size="14.00">a</text>
</g>
</g>
</svg>
