<?xml version="1.0" encoding="UTF-8" standalone="no"?>
<!DOCTYPE svg PUBLIC "-//W3C//DTD SVG 1.1//EN"
 "http://www.w3.org/Graphics/SVG/1.1/DTD/svg11.dtd">
<!-- Generated by graphviz version 2.43.0 (0)
 -->
<!-- Title: G Pages: 1 -->
<svg width="707pt" height="443pt"
 viewBox="0.00 0.00 707.05 443.00" xmlns="http://www.w3.org/2000/svg" xmlns:xlink="http://www.w3.org/1999/xlink">
<g id="graph0" class="graph" transform="scale(1 1) rotate(0) translate(4 439)">
<title>G</title>
<polygon fill="white" stroke="transparent" points="-4,4 -4,-439 703.05,-439 703.05,4 -4,4"/>
<!-- http://www.w3.org/2002/07/owl#class -->
<g id="node1" class="node">
<title>http://www.w3.org/2002/07/owl#class</title>
<ellipse fill="none" stroke="#1f77b4" cx="285.36" cy="-202.5" rx="57.05" ry="16.03"/>
<text text-anchor="middle" x="285.36" y="-198.8" font-family="Times,serif" font-size="14.00">owl:class</text>
</g>
<!-- http://purl.org/oseg/ontologies/OTRL#OTRL -->
<g id="node2" class="node">
<title>http://purl.org/oseg/ontologies/OTRL#OTRL</title>
<ellipse fill="none" stroke="#e377c2" cx="347.39" cy="-160.65" rx="39.7" ry="16.03"/>
<text text-anchor="middle" x="347.39" y="-156.95" font-family="Times,serif" font-size="14.00">OTRL</text>
</g>
<!-- http://purl.org/oseg/ontologies/OTRL#OTRL&#45;&gt;http://www.w3.org/2002/07/owl#class -->
<g id="edge7" class="edge">
<title>http://purl.org/oseg/ontologies/OTRL#OTRL&#45;&gt;http://www.w3.org/2002/07/owl#class</title>
<path fill="none" stroke="black" d="M326.73,-174.59C323.42,-176.82 319.93,-179.18 316.43,-181.54"/>
<polygon fill="black" stroke="black" points="314.18,-178.84 307.84,-187.33 318.09,-184.64 314.18,-178.84"/>
<text text-anchor="middle" x="317.08" y="-181.86" font-family="Times,serif" font-size="14.00">a</text>
</g>
<!-- http://purl.org/oseg/ontologies/OTRL#ODRL -->
<g id="node3" class="node">
<title>http://purl.org/oseg/ontologies/OTRL#ODRL</title>
<ellipse fill="none" stroke="#e377c2" cx="172.67" cy="-212.1" rx="41.94" ry="16.03"/>
<text text-anchor="middle" x="172.67" y="-208.4" font-family="Times,serif" font-size="14.00">ODRL</text>
</g>
<!-- http://purl.org/oseg/ontologies/OTRL#ODRL&#45;&gt;http://www.w3.org/2002/07/owl#class -->
<g id="edge10" class="edge">
<title>http://purl.org/oseg/ontologies/OTRL#ODRL&#45;&gt;http://www.w3.org/2002/07/owl#class</title>
<path fill="none" stroke="black" d="M213.67,-208.6C215.79,-208.42 217.93,-208.24 220.09,-208.06"/>
<polygon fill="black" stroke="black" points="220.63,-211.52 230.3,-207.19 220.04,-204.55 220.63,-211.52"/>
<text text-anchor="middle" x="221.38" y="-212.13" font-family="Times,serif" font-size="14.00">a</text>
</g>
<!-- http://purl.org/oseg/ontologies/OTRL#OTRL4 -->
<g id="node4" class="node">
<title>http://purl.org/oseg/ontologies/OTRL#OTRL4</title>
<ellipse fill="none" stroke="#e377c2" cx="460.74" cy="-232.5" rx="45.92" ry="16.03"/>
<text text-anchor="middle" x="460.74" y="-228.8" font-family="Times,serif" font-size="14.00">OTRL4</text>
</g>
<!-- http://purl.org/oseg/ontologies/OTRL#OTRL4&#45;&gt;http://www.w3.org/2002/07/owl#class -->
<g id="edge3" class="edge">
<title>http://purl.org/oseg/ontologies/OTRL#OTRL4&#45;&gt;http://www.w3.org/2002/07/owl#class</title>
<path fill="none" stroke="black" d="M419.18,-225.39C396.92,-221.58 369.12,-216.83 344.63,-212.64"/>
<polygon fill="black" stroke="black" points="345.17,-209.18 334.73,-210.94 343.99,-216.08 345.17,-209.18"/>
<text text-anchor="middle" x="377.41" y="-222.81" font-family="Times,serif" font-size="14.00">a</text>
</g>
<!-- http://purl.org/oseg/ontologies/OTRL#OTRL4&#45;&gt;http://purl.org/oseg/ontologies/OTRL#OTRL -->
<g id="edge2" class="edge">
<title>http://purl.org/oseg/ontologies/OTRL#OTRL4&#45;&gt;http://purl.org/oseg/ontologies/OTRL#OTRL</title>
<path fill="none" stroke="black" d="M438.07,-218.13C420.78,-207.17 396.79,-191.97 377.83,-179.95"/>
<polygon fill="black" stroke="black" points="379.57,-176.9 369.25,-174.51 375.82,-182.82 379.57,-176.9"/>
</g>
<!-- http://www.w3.org/1999/02/22&#45;rdf&#45;syntax&#45;ns#nil -->
<g id="node5" class="node">
<title>http://www.w3.org/1999/02/22&#45;rdf&#45;syntax&#45;ns#nil</title>
<ellipse fill="none" stroke="#e377c2" cx="138.24" cy="-40.64" rx="42.35" ry="16.03"/>
<text text-anchor="middle" x="138.24" y="-36.94" font-family="Times,serif" font-size="14.00">rdf:nil</text>
</g>
<!-- http://purl.org/oseg/ontologies/OTRL#ODRL4 -->
<g id="node6" class="node">
<title>http://purl.org/oseg/ontologies/OTRL#ODRL4</title>
<ellipse fill="none" stroke="#e377c2" cx="276.97" cy="-353.84" rx="48.17" ry="16.03"/>
<text text-anchor="middle" x="276.97" y="-350.14" font-family="Times,serif" font-size="14.00">ODRL4</text>
</g>
<!-- http://purl.org/oseg/ontologies/OTRL#ODRL4&#45;&gt;http://www.w3.org/2002/07/owl#class -->
<g id="edge15" class="edge">
<title>http://purl.org/oseg/ontologies/OTRL#ODRL4&#45;&gt;http://www.w3.org/2002/07/owl#class</title>
<path fill="none" stroke="black" d="M277.88,-337.35C279.33,-311.31 282.15,-260.41 283.88,-229.13"/>
<polygon fill="black" stroke="black" points="287.39,-229.14 284.44,-218.96 280.4,-228.75 287.39,-229.14"/>
<text text-anchor="middle" x="276.38" y="-287.04" font-family="Times,serif" font-size="14.00">a</text>
</g>
<!-- http://purl.org/oseg/ontologies/OTRL#ODRL4&#45;&gt;http://purl.org/oseg/ontologies/OTRL#ODRL -->
<g id="edge5" class="edge">
<title>http://purl.org/oseg/ontologies/OTRL#ODRL4&#45;&gt;http://purl.org/oseg/ontologies/OTRL#ODRL</title>
<path fill="none" stroke="black" d="M265.21,-337.85C246.96,-313.05 211.71,-265.14 190.37,-236.15"/>
<polygon fill="black" stroke="black" points="192.98,-233.78 184.23,-227.8 187.34,-237.93 192.98,-233.78"/>
</g>
<!-- http://purl.org/oseg/ontologies/OTRL -->
<g id="node7" class="node">
<title>http://purl.org/oseg/ontologies/OTRL</title>
<ellipse fill="none" stroke="#e377c2" cx="517.24" cy="-16.64" rx="60.62" ry="16.03"/>
<text text-anchor="middle" x="517.24" y="-12.94" font-family="Times,serif" font-size="14.00">ns1:OTRL</text>
</g>
<!-- http://purl.org/oseg/ontologies/OTRL&#45;&gt;http://purl.org/oseg/ontologies/OTRL -->
<g id="edge20" class="edge">
<title>http://purl.org/oseg/ontologies/OTRL&#45;&gt;http://purl.org/oseg/ontologies/OTRL</title>
<path fill="none" stroke="black" d="M572.84,-23.27C586.17,-22.75 596.05,-20.54 596.05,-16.64 596.05,-13.81 590.83,-11.86 582.87,-10.81"/>
<polygon fill="black" stroke="black" points="583.09,-7.32 572.84,-10.01 582.53,-14.3 583.09,-7.32"/>
<text text-anchor="middle" x="647.55" y="-12.94" font-family="Times,serif" font-size="14.00">owl:versionIRI</text>
</g>
<!-- http://purl.org/oseg/ontologies/OTRL#ODRL3 -->
<g id="node8" class="node">
<title>http://purl.org/oseg/ontologies/OTRL#ODRL3</title>
<ellipse fill="none" stroke="#e377c2" cx="163.83" cy="-351.73" rx="48.17" ry="16.03"/>
<text text-anchor="middle" x="163.83" y="-348.03" font-family="Times,serif" font-size="14.00">ODRL3</text>
</g>
<!-- http://purl.org/oseg/ontologies/OTRL#ODRL3&#45;&gt;http://www.w3.org/2002/07/owl#class -->
<g id="edge4" class="edge">
<title>http://purl.org/oseg/ontologies/OTRL#ODRL3&#45;&gt;http://www.w3.org/2002/07/owl#class</title>
<path fill="none" stroke="black" d="M176.61,-336.05C197.88,-309.92 240.72,-257.31 265.81,-226.5"/>
<polygon fill="black" stroke="black" points="268.79,-228.39 272.39,-218.43 263.36,-223.97 268.79,-228.39"/>
<text text-anchor="middle" x="216.71" y="-285.07" font-family="Times,serif" font-size="14.00">a</text>
</g>
<!-- http://purl.org/oseg/ontologies/OTRL#ODRL3&#45;&gt;http://purl.org/oseg/ontologies/OTRL#ODRL -->
<g id="edge14" class="edge">
<title>http://purl.org/oseg/ontologies/OTRL#ODRL3&#45;&gt;http://purl.org/oseg/ontologies/OTRL#ODRL</title>
<path fill="none" stroke="black" d="M164.86,-335.44C166.36,-311.71 169.17,-267.36 170.98,-238.81"/>
<polygon fill="black" stroke="black" points="174.48,-238.92 171.62,-228.72 167.49,-238.47 174.48,-238.92"/>
</g>
<!-- http://purl.org/oseg/ontologies/OTRL#goal -->
<g id="node9" class="node">
<title>http://purl.org/oseg/ontologies/OTRL#goal</title>
<ellipse fill="none" stroke="#e377c2" cx="465.49" cy="-419.16" rx="33.47" ry="16.03"/>
<text text-anchor="middle" x="465.49" y="-415.46" font-family="Times,serif" font-size="14.00">goal</text>
</g>
<!-- http://schema.org/Text -->
<g id="node15" class="node">
<title>http://schema.org/Text</title>
<ellipse fill="none" stroke="#e377c2" cx="531.92" cy="-376.12" rx="74.91" ry="16.03"/>
<text text-anchor="middle" x="531.92" y="-372.42" font-family="Times,serif" font-size="14.00">schema:Text</text>
</g>
<!-- http://purl.org/oseg/ontologies/OTRL#goal&#45;&gt;http://schema.org/Text -->
<g id="edge13" class="edge">
<title>http://purl.org/oseg/ontologies/OTRL#goal&#45;&gt;http://schema.org/Text</title>
<path fill="none" stroke="black" d="M485.78,-406.01C490.06,-403.24 494.68,-400.25 499.28,-397.27"/>
<polygon fill="black" stroke="black" points="501.53,-399.98 508.02,-391.6 497.72,-394.1 501.53,-399.98"/>
<text text-anchor="middle" x="471.53" y="-390.44" font-family="Times,serif" font-size="14.00">range</text>
</g>
<!-- http://purl.org/oseg/ontologies/OTRL#OTRL3 -->
<g id="node10" class="node">
<title>http://purl.org/oseg/ontologies/OTRL#OTRL3</title>
<ellipse fill="none" stroke="#e377c2" cx="376.45" cy="-40.42" rx="45.92" ry="16.03"/>
<text text-anchor="middle" x="376.45" y="-36.72" font-family="Times,serif" font-size="14.00">OTRL3</text>
</g>
<!-- http://purl.org/oseg/ontologies/OTRL#OTRL3&#45;&gt;http://www.w3.org/2002/07/owl#class -->
<g id="edge17" class="edge">
<title>http://purl.org/oseg/ontologies/OTRL#OTRL3&#45;&gt;http://www.w3.org/2002/07/owl#class</title>
<path fill="none" stroke="black" d="M367.38,-56.55C351.42,-84.95 318.22,-144.03 299.31,-177.67"/>
<polygon fill="black" stroke="black" points="296.24,-176 294.39,-186.43 302.34,-179.43 296.24,-176"/>
<text text-anchor="middle" x="328.85" y="-120.91" font-family="Times,serif" font-size="14.00">a</text>
</g>
<!-- http://purl.org/oseg/ontologies/OTRL#OTRL3&#45;&gt;http://purl.org/oseg/ontologies/OTRL#OTRL -->
<g id="edge1" class="edge">
<title>http://purl.org/oseg/ontologies/OTRL#OTRL3&#45;&gt;http://purl.org/oseg/ontologies/OTRL#OTRL</title>
<path fill="none" stroke="black" d="M372.53,-56.63C367.7,-76.62 359.43,-110.85 353.7,-134.56"/>
<polygon fill="black" stroke="black" points="350.29,-133.77 351.34,-144.31 357.09,-135.41 350.29,-133.77"/>
</g>
<!-- http://purl.org/oseg/ontologies/OTRL#ODRL2 -->
<g id="node11" class="node">
<title>http://purl.org/oseg/ontologies/OTRL#ODRL2</title>
<ellipse fill="none" stroke="#e377c2" cx="268.75" cy="-51.47" rx="48.17" ry="16.03"/>
<text text-anchor="middle" x="268.75" y="-47.77" font-family="Times,serif" font-size="14.00">ODRL2</text>
</g>
<!-- http://purl.org/oseg/ontologies/OTRL#ODRL2&#45;&gt;http://www.w3.org/2002/07/owl#class -->
<g id="edge18" class="edge">
<title>http://purl.org/oseg/ontologies/OTRL#ODRL2&#45;&gt;http://www.w3.org/2002/07/owl#class</title>
<path fill="none" stroke="black" d="M270.56,-67.92C273.42,-93.9 279,-144.71 282.43,-175.92"/>
<polygon fill="black" stroke="black" points="278.98,-176.51 283.55,-186.07 285.94,-175.74 278.98,-176.51"/>
<text text-anchor="middle" x="272" y="-125.72" font-family="Times,serif" font-size="14.00">a</text>
</g>
<!-- http://purl.org/oseg/ontologies/OTRL#ODRL2&#45;&gt;http://purl.org/oseg/ontologies/OTRL#ODRL -->
<g id="edge8" class="edge">
<title>http://purl.org/oseg/ontologies/OTRL#ODRL2&#45;&gt;http://purl.org/oseg/ontologies/OTRL#ODRL</title>
<path fill="none" stroke="black" d="M259.19,-67.45C242.35,-95.6 207.33,-154.15 187.39,-187.48"/>
<polygon fill="black" stroke="black" points="184.33,-185.79 182.2,-196.17 190.33,-189.39 184.33,-185.79"/>
</g>
<!-- http://purl.org/oseg/ontologies/OTRL#ODRL3Star -->
<g id="node12" class="node">
<title>http://purl.org/oseg/ontologies/OTRL#ODRL3Star</title>
<ellipse fill="none" stroke="#e377c2" cx="68.94" cy="-131.91" rx="69.09" ry="16.03"/>
<text text-anchor="middle" x="68.94" y="-128.21" font-family="Times,serif" font-size="14.00">ODRL3Star</text>
</g>
<!-- http://purl.org/oseg/ontologies/OTRL#ODRL3Star&#45;&gt;http://www.w3.org/2002/07/owl#class -->
<g id="edge6" class="edge">
<title>http://purl.org/oseg/ontologies/OTRL#ODRL3Star&#45;&gt;http://www.w3.org/2002/07/owl#class</title>
<path fill="none" stroke="black" d="M109.65,-145.19C146.07,-157.07 199.47,-174.48 237.83,-187"/>
<polygon fill="black" stroke="black" points="237.14,-190.45 247.73,-190.23 239.31,-183.8 237.14,-190.45"/>
<text text-anchor="middle" x="169.24" y="-169.89" font-family="Times,serif" font-size="14.00">a</text>
</g>
<!-- http://purl.org/oseg/ontologies/OTRL#ODRL3Star&#45;&gt;http://purl.org/oseg/ontologies/OTRL#ODRL -->
<g id="edge22" class="edge">
<title>http://purl.org/oseg/ontologies/OTRL#ODRL3Star&#45;&gt;http://purl.org/oseg/ontologies/OTRL#ODRL</title>
<path fill="none" stroke="black" d="M89.44,-147.75C105.47,-160.15 127.91,-177.5 145.45,-191.05"/>
<polygon fill="black" stroke="black" points="143.57,-194.02 153.62,-197.37 147.85,-188.48 143.57,-194.02"/>
</g>
<!-- http://purl.org/oseg/ontologies/OTRL#exitCriteria -->
<g id="node13" class="node">
<title>http://purl.org/oseg/ontologies/OTRL#exitCriteria</title>
<ellipse fill="none" stroke="#e377c2" cx="594.09" cy="-416.84" rx="70.01" ry="16.03"/>
<text text-anchor="middle" x="594.09" y="-413.14" font-family="Times,serif" font-size="14.00">exitCriteria</text>
</g>
<!-- http://purl.org/oseg/ontologies/OTRL#exitCriteria&#45;&gt;http://schema.org/Text -->
<g id="edge23" class="edge">
<title>http://purl.org/oseg/ontologies/OTRL#exitCriteria&#45;&gt;http://schema.org/Text</title>
<path fill="none" stroke="black" d="M570.59,-401.45C568.63,-400.17 566.63,-398.86 564.62,-397.54"/>
<polygon fill="black" stroke="black" points="566.15,-394.36 555.87,-391.81 562.32,-400.21 566.15,-394.36"/>
<text text-anchor="middle" x="588.6" y="-388.29" font-family="Times,serif" font-size="14.00">range</text>
</g>
<!-- http://purl.org/oseg/ontologies/OTRL#OTRL5 -->
<g id="node14" class="node">
<title>http://purl.org/oseg/ontologies/OTRL#OTRL5</title>
<ellipse fill="none" stroke="#e377c2" cx="456.25" cy="-129.68" rx="45.92" ry="16.03"/>
<text text-anchor="middle" x="456.25" y="-125.98" font-family="Times,serif" font-size="14.00">OTRL5</text>
</g>
<!-- http://purl.org/oseg/ontologies/OTRL#OTRL5&#45;&gt;http://www.w3.org/2002/07/owl#class -->
<g id="edge21" class="edge">
<title>http://purl.org/oseg/ontologies/OTRL#OTRL5&#45;&gt;http://www.w3.org/2002/07/owl#class</title>
<path fill="none" stroke="black" d="M426.87,-142.2C399.2,-153.99 357.47,-171.77 326.49,-184.97"/>
<polygon fill="black" stroke="black" points="325.08,-181.77 317.25,-188.91 327.82,-188.21 325.08,-181.77"/>
<text text-anchor="middle" x="372.18" y="-167.38" font-family="Times,serif" font-size="14.00">a</text>
</g>
<!-- http://purl.org/oseg/ontologies/OTRL#OTRL5&#45;&gt;http://purl.org/oseg/ontologies/OTRL#OTRL -->
<g id="edge9" class="edge">
<title>http://purl.org/oseg/ontologies/OTRL#OTRL5&#45;&gt;http://purl.org/oseg/ontologies/OTRL#OTRL</title>
<path fill="none" stroke="black" d="M420.3,-139.91C410.55,-142.68 399.9,-145.71 389.82,-148.58"/>
<polygon fill="black" stroke="black" points="388.65,-145.27 379.99,-151.38 390.57,-152.01 388.65,-145.27"/>
</g>
<!-- http://purl.org/oseg/ontologies/OTRL#OTRL2 -->
<g id="node16" class="node">
<title>http://purl.org/oseg/ontologies/OTRL#OTRL2</title>
<ellipse fill="none" stroke="#e377c2" cx="196.44" cy="-92.48" rx="45.92" ry="16.03"/>
<text text-anchor="middle" x="196.44" y="-88.78" font-family="Times,serif" font-size="14.00">OTRL2</text>
</g>
<!-- http://purl.org/oseg/ontologies/OTRL#OTRL2&#45;&gt;http://www.w3.org/2002/07/owl#class -->
<g id="edge11" class="edge">
<title>http://purl.org/oseg/ontologies/OTRL#OTRL2&#45;&gt;http://www.w3.org/2002/07/owl#class</title>
<path fill="none" stroke="black" d="M209.18,-108.24C224.01,-126.6 248.69,-157.13 265.92,-178.45"/>
<polygon fill="black" stroke="black" points="263.34,-180.83 272.35,-186.41 268.79,-176.43 263.34,-180.83"/>
<text text-anchor="middle" x="233.05" y="-147.14" font-family="Times,serif" font-size="14.00">a</text>
</g>
<!-- http://purl.org/oseg/ontologies/OTRL#OTRL2&#45;&gt;http://purl.org/oseg/ontologies/OTRL#OTRL -->
<g id="edge25" class="edge">
<title>http://purl.org/oseg/ontologies/OTRL#OTRL2&#45;&gt;http://purl.org/oseg/ontologies/OTRL#OTRL</title>
<path fill="none" stroke="black" d="M224.83,-105.3C249.32,-116.36 284.83,-132.4 311.33,-144.36"/>
<polygon fill="black" stroke="black" points="310.09,-147.65 320.64,-148.57 312.97,-141.27 310.09,-147.65"/>
</g>
<!-- http://purl.org/oseg/ontologies/OTRL#ODRL1 -->
<g id="node17" class="node">
<title>http://purl.org/oseg/ontologies/OTRL#ODRL1</title>
<ellipse fill="none" stroke="#e377c2" cx="100.25" cy="-283.29" rx="48.17" ry="16.03"/>
<text text-anchor="middle" x="100.25" y="-279.59" font-family="Times,serif" font-size="14.00">ODRL1</text>
</g>
<!-- http://purl.org/oseg/ontologies/OTRL#ODRL1&#45;&gt;http://www.w3.org/2002/07/owl#class -->
<g id="edge24" class="edge">
<title>http://purl.org/oseg/ontologies/OTRL#ODRL1&#45;&gt;http://www.w3.org/2002/07/owl#class</title>
<path fill="none" stroke="black" d="M129.99,-270.31C161,-256.78 209.83,-235.46 244.47,-220.35"/>
<polygon fill="black" stroke="black" points="246.07,-223.47 253.83,-216.26 243.27,-217.05 246.07,-223.47"/>
<text text-anchor="middle" x="182.73" y="-249.13" font-family="Times,serif" font-size="14.00">a</text>
</g>
<!-- http://purl.org/oseg/ontologies/OTRL#ODRL1&#45;&gt;http://purl.org/oseg/ontologies/OTRL#ODRL -->
<g id="edge16" class="edge">
<title>http://purl.org/oseg/ontologies/OTRL#ODRL1&#45;&gt;http://purl.org/oseg/ontologies/OTRL#ODRL</title>
<path fill="none" stroke="black" d="M115.96,-267.85C125.83,-258.14 138.73,-245.46 149.73,-234.64"/>
<polygon fill="black" stroke="black" points="152.31,-237.02 156.99,-227.51 147.4,-232.03 152.31,-237.02"/>
</g>
<!-- http://purl.org/oseg/ontologies/OTRL#OTRL1 -->
<g id="node18" class="node">
<title>http://purl.org/oseg/ontologies/OTRL#OTRL1</title>
<ellipse fill="none" stroke="#e377c2" cx="411.01" cy="-300.29" rx="45.92" ry="16.03"/>
<text text-anchor="middle" x="411.01" y="-296.59" font-family="Times,serif" font-size="14.00">OTRL1</text>
</g>
<!-- http://purl.org/oseg/ontologies/OTRL#OTRL1&#45;&gt;http://www.w3.org/2002/07/owl#class -->
<g id="edge12" class="edge">
<title>http://purl.org/oseg/ontologies/OTRL#OTRL1&#45;&gt;http://www.w3.org/2002/07/owl#class</title>
<path fill="none" stroke="black" d="M391.93,-285.44C370.92,-269.09 336.97,-242.67 313.04,-224.05"/>
<polygon fill="black" stroke="black" points="315.08,-221.19 305.04,-217.81 310.78,-226.72 315.08,-221.19"/>
<text text-anchor="middle" x="347.99" y="-258.54" font-family="Times,serif" font-size="14.00">a</text>
</g>
<!-- http://purl.org/oseg/ontologies/OTRL#OTRL1&#45;&gt;http://purl.org/oseg/ontologies/OTRL#OTRL -->
<g id="edge19" class="edge">
<title>http://purl.org/oseg/ontologies/OTRL#OTRL1&#45;&gt;http://purl.org/oseg/ontologies/OTRL#OTRL</title>
<path fill="none" stroke="black" d="M403.59,-284C392.62,-259.93 371.99,-214.65 359.01,-186.16"/>
<polygon fill="black" stroke="black" points="362.1,-184.49 354.77,-176.84 355.73,-187.39 362.1,-184.49"/>
</g>
</g>
</svg>
