<?xml version="1.0" encoding="UTF-8" standalone="no"?>
<!DOCTYPE svg PUBLIC "-//W3C//DTD SVG 1.1//EN"
 "http://www.w3.org/Graphics/SVG/1.1/DTD/svg11.dtd">
<!-- Generated by graphviz version 2.43.0 (0)
 -->
<!-- Title: G Pages: 1 -->
<svg width="1021pt" height="874pt"
 viewBox="0.00 0.00 1021.05 874.00" xmlns="http://www.w3.org/2000/svg" xmlns:xlink="http://www.w3.org/1999/xlink">
<g id="graph0" class="graph" transform="scale(1 1) rotate(0) translate(4 870)">
<title>G</title>
<polygon fill="white" stroke="transparent" points="-4,4 -4,-870 1017.05,-870 1017.05,4 -4,4"/>
<!-- http://purl.org/oseg/ontologies/OTRL#OTRL -->
<g id="node1" class="node">
<title>http://purl.org/oseg/ontologies/OTRL#OTRL</title>
<ellipse fill="none" stroke="#e377c2" cx="441.26" cy="-508.8" rx="39.7" ry="16.03"/>
<text text-anchor="middle" x="441.26" y="-505.1" font-family="Times,serif" font-size="14.00">OTRL</text>
</g>
<!-- http://www.w3.org/2002/07/owl#class -->
<g id="node3" class="node">
<title>http://www.w3.org/2002/07/owl#class</title>
<ellipse fill="none" stroke="#1f77b4" cx="637.15" cy="-293.17" rx="57.05" ry="16.03"/>
<text text-anchor="middle" x="637.15" y="-289.47" font-family="Times,serif" font-size="14.00">owl:class</text>
</g>
<!-- http://purl.org/oseg/ontologies/OTRL#OTRL&#45;&gt;http://www.w3.org/2002/07/owl#class -->
<g id="edge18" class="edge">
<title>http://purl.org/oseg/ontologies/OTRL#OTRL&#45;&gt;http://www.w3.org/2002/07/owl#class</title>
<path fill="none" stroke="black" d="M455.35,-493.3C489.28,-455.95 575.69,-360.82 615.93,-316.53"/>
<polygon fill="black" stroke="black" points="618.53,-318.88 622.66,-309.12 613.35,-314.17 618.53,-318.88"/>
<text text-anchor="middle" x="531.14" y="-393.71" font-family="Times,serif" font-size="14.00">a</text>
</g>
<!-- http://purl.org/oseg/ontologies/OTRL#ODRL -->
<g id="node2" class="node">
<title>http://purl.org/oseg/ontologies/OTRL#ODRL</title>
<ellipse fill="none" stroke="#e377c2" cx="755.24" cy="-148.27" rx="41.94" ry="16.03"/>
<text text-anchor="middle" x="755.24" y="-144.57" font-family="Times,serif" font-size="14.00">ODRL</text>
</g>
<!-- http://purl.org/oseg/ontologies/OTRL#ODRL&#45;&gt;http://www.w3.org/2002/07/owl#class -->
<g id="edge2" class="edge">
<title>http://purl.org/oseg/ontologies/OTRL#ODRL&#45;&gt;http://www.w3.org/2002/07/owl#class</title>
<path fill="none" stroke="black" d="M742.6,-163.78C722.04,-189 681.21,-239.11 656.83,-269.03"/>
<polygon fill="black" stroke="black" points="654.02,-266.93 650.42,-276.89 659.45,-271.35 654.02,-266.93"/>
<text text-anchor="middle" x="695.21" y="-220.2" font-family="Times,serif" font-size="14.00">a</text>
</g>
<!-- http://schema.org/Text -->
<g id="node4" class="node">
<title>http://schema.org/Text</title>
<ellipse fill="none" stroke="#e377c2" cx="147.37" cy="-796.91" rx="74.91" ry="16.03"/>
<text text-anchor="middle" x="147.37" y="-793.21" font-family="Times,serif" font-size="14.00">schema:Text</text>
</g>
<!-- http://purl.org/oseg/ontologies/OTRL#OTRL&#45;8 -->
<g id="node5" class="node">
<title>http://purl.org/oseg/ontologies/OTRL#OTRL&#45;8</title>
<ellipse fill="none" stroke="#e377c2" cx="525.28" cy="-416.03" rx="49.49" ry="16.03"/>
<text text-anchor="middle" x="525.28" y="-412.33" font-family="Times,serif" font-size="14.00">OTRL&#45;8</text>
</g>
<!-- http://purl.org/oseg/ontologies/OTRL#OTRL&#45;8&#45;&gt;http://purl.org/oseg/ontologies/OTRL#OTRL -->
<g id="edge14" class="edge">
<title>http://purl.org/oseg/ontologies/OTRL#OTRL&#45;8&#45;&gt;http://purl.org/oseg/ontologies/OTRL#OTRL</title>
<path fill="none" stroke="black" d="M511.02,-431.77C497.67,-446.52 477.53,-468.75 462.32,-485.55"/>
<polygon fill="black" stroke="black" points="459.42,-483.54 455.3,-493.3 464.61,-488.23 459.42,-483.54"/>
</g>
<!-- http://purl.org/oseg/ontologies/OTRL#OTRL&#45;8&#45;&gt;http://www.w3.org/2002/07/owl#class -->
<g id="edge1" class="edge">
<title>http://purl.org/oseg/ontologies/OTRL#OTRL&#45;8&#45;&gt;http://www.w3.org/2002/07/owl#class</title>
<path fill="none" stroke="black" d="M539.67,-400.22C559.06,-378.93 593.69,-340.9 616.02,-316.37"/>
<polygon fill="black" stroke="black" points="618.66,-318.67 622.81,-308.92 613.49,-313.96 618.66,-318.67"/>
<text text-anchor="middle" x="573.35" y="-362.1" font-family="Times,serif" font-size="14.00">a</text>
</g>
<!-- http://purl.org/oseg/ontologies/OTRL#exitCriteria -->
<g id="node6" class="node">
<title>http://purl.org/oseg/ontologies/OTRL#exitCriteria</title>
<ellipse fill="none" stroke="#e377c2" cx="377.85" cy="-750.16" rx="70.01" ry="16.03"/>
<text text-anchor="middle" x="377.85" y="-746.46" font-family="Times,serif" font-size="14.00">exitCriteria</text>
</g>
<!-- http://purl.org/oseg/ontologies/OTRL#exitCriteria&#45;&gt;http://purl.org/oseg/ontologies/OTRL#OTRL -->
<g id="edge24" class="edge">
<title>http://purl.org/oseg/ontologies/OTRL#exitCriteria&#45;&gt;http://purl.org/oseg/ontologies/OTRL#OTRL</title>
<path fill="none" stroke="black" d="M382.2,-733.57C393.05,-692.31 421.3,-584.79 434.4,-534.91"/>
<polygon fill="black" stroke="black" points="437.8,-535.75 436.96,-525.19 431.03,-533.97 437.8,-535.75"/>
<text text-anchor="middle" x="381.8" y="-638.04" font-family="Times,serif" font-size="14.00">domain</text>
</g>
<!-- http://purl.org/oseg/ontologies/OTRL#exitCriteria&#45;&gt;http://schema.org/Text -->
<g id="edge31" class="edge">
<title>http://purl.org/oseg/ontologies/OTRL#exitCriteria&#45;&gt;http://schema.org/Text</title>
<path fill="none" stroke="black" d="M324.97,-760.89C291.44,-767.69 247.84,-776.53 212.22,-783.76"/>
<polygon fill="black" stroke="black" points="211.51,-780.33 202.41,-785.75 212.9,-787.19 211.51,-780.33"/>
<text text-anchor="middle" x="247.6" y="-776.12" font-family="Times,serif" font-size="14.00">range</text>
</g>
<!-- http://purl.org/oseg/ontologies/OTRL#OTRL&#45;4 -->
<g id="node7" class="node">
<title>http://purl.org/oseg/ontologies/OTRL#OTRL&#45;4</title>
<ellipse fill="none" stroke="#e377c2" cx="348.03" cy="-316.41" rx="49.49" ry="16.03"/>
<text text-anchor="middle" x="348.03" y="-312.71" font-family="Times,serif" font-size="14.00">OTRL&#45;4</text>
</g>
<!-- http://purl.org/oseg/ontologies/OTRL#OTRL&#45;4&#45;&gt;http://purl.org/oseg/ontologies/OTRL#OTRL -->
<g id="edge9" class="edge">
<title>http://purl.org/oseg/ontologies/OTRL#OTRL&#45;4&#45;&gt;http://purl.org/oseg/ontologies/OTRL#OTRL</title>
<path fill="none" stroke="black" d="M355.82,-332.49C372.03,-365.94 409.52,-443.29 429,-483.5"/>
<polygon fill="black" stroke="black" points="425.92,-485.17 433.43,-492.64 432.22,-482.12 425.92,-485.17"/>
</g>
<!-- http://purl.org/oseg/ontologies/OTRL#OTRL&#45;4&#45;&gt;http://www.w3.org/2002/07/owl#class -->
<g id="edge4" class="edge">
<title>http://purl.org/oseg/ontologies/OTRL#OTRL&#45;4&#45;&gt;http://www.w3.org/2002/07/owl#class</title>
<path fill="none" stroke="black" d="M396.43,-312.52C444.52,-308.66 518.62,-302.7 571.9,-298.42"/>
<polygon fill="black" stroke="black" points="572.24,-301.9 581.93,-297.61 571.68,-294.93 572.24,-301.9"/>
<text text-anchor="middle" x="479.66" y="-294.27" font-family="Times,serif" font-size="14.00">a</text>
</g>
<!-- http://purl.org/oseg/ontologies/OTRL -->
<g id="node8" class="node">
<title>http://purl.org/oseg/ontologies/OTRL</title>
<ellipse fill="none" stroke="#e377c2" cx="831.24" cy="-716.64" rx="60.62" ry="16.03"/>
<text text-anchor="middle" x="831.24" y="-712.94" font-family="Times,serif" font-size="14.00">ns1:OTRL</text>
</g>
<!-- http://purl.org/oseg/ontologies/OTRL&#45;&gt;http://purl.org/oseg/ontologies/OTRL -->
<g id="edge16" class="edge">
<title>http://purl.org/oseg/ontologies/OTRL&#45;&gt;http://purl.org/oseg/ontologies/OTRL</title>
<path fill="none" stroke="black" d="M886.84,-723.27C900.17,-722.75 910.05,-720.54 910.05,-716.64 910.05,-713.81 904.83,-711.86 896.87,-710.81"/>
<polygon fill="black" stroke="black" points="897.09,-707.32 886.84,-710.01 896.53,-714.3 897.09,-707.32"/>
<text text-anchor="middle" x="961.55" y="-712.94" font-family="Times,serif" font-size="14.00">owl:versionIRI</text>
</g>
<!-- http://purl.org/oseg/ontologies/OTRL#ODRL&#45;0 -->
<g id="node9" class="node">
<title>http://purl.org/oseg/ontologies/OTRL#ODRL&#45;0</title>
<ellipse fill="none" stroke="#e377c2" cx="872.48" cy="-139.08" rx="50.82" ry="16.03"/>
<text text-anchor="middle" x="872.48" y="-135.38" font-family="Times,serif" font-size="14.00">ODRL&#45;0</text>
</g>
<!-- http://purl.org/oseg/ontologies/OTRL#ODRL&#45;0&#45;&gt;http://purl.org/oseg/ontologies/OTRL#ODRL -->
<g id="edge17" class="edge">
<title>http://purl.org/oseg/ontologies/OTRL#ODRL&#45;0&#45;&gt;http://purl.org/oseg/ontologies/OTRL#ODRL</title>
<path fill="none" stroke="black" d="M822.76,-142.98C817.36,-143.4 811.85,-143.83 806.43,-144.26"/>
<polygon fill="black" stroke="black" points="805.87,-140.79 796.17,-145.06 806.42,-147.77 805.87,-140.79"/>
</g>
<!-- http://purl.org/oseg/ontologies/OTRL#ODRL&#45;0&#45;&gt;http://www.w3.org/2002/07/owl#class -->
<g id="edge5" class="edge">
<title>http://purl.org/oseg/ontologies/OTRL#ODRL&#45;0&#45;&gt;http://www.w3.org/2002/07/owl#class</title>
<path fill="none" stroke="black" d="M849.91,-153.86C807.68,-181.51 716.61,-241.14 668.46,-272.67"/>
<polygon fill="black" stroke="black" points="666.44,-269.81 659.99,-278.22 670.27,-275.67 666.44,-269.81"/>
<text text-anchor="middle" x="754.69" y="-217.06" font-family="Times,serif" font-size="14.00">a</text>
</g>
<!-- http://purl.org/oseg/ontologies/OTRL#ODRL&#45;5 -->
<g id="node10" class="node">
<title>http://purl.org/oseg/ontologies/OTRL#ODRL&#45;5</title>
<ellipse fill="none" stroke="#e377c2" cx="562.87" cy="-62.82" rx="50.82" ry="16.03"/>
<text text-anchor="middle" x="562.87" y="-59.12" font-family="Times,serif" font-size="14.00">ODRL&#45;5</text>
</g>
<!-- http://purl.org/oseg/ontologies/OTRL#ODRL&#45;5&#45;&gt;http://purl.org/oseg/ontologies/OTRL#ODRL -->
<g id="edge26" class="edge">
<title>http://purl.org/oseg/ontologies/OTRL#ODRL&#45;5&#45;&gt;http://purl.org/oseg/ontologies/OTRL#ODRL</title>
<path fill="none" stroke="black" d="M592.93,-76.18C626.78,-91.21 681.82,-115.66 718.27,-131.85"/>
<polygon fill="black" stroke="black" points="717.01,-135.12 727.57,-135.98 719.86,-128.72 717.01,-135.12"/>
</g>
<!-- http://purl.org/oseg/ontologies/OTRL#ODRL&#45;5&#45;&gt;http://www.w3.org/2002/07/owl#class -->
<g id="edge6" class="edge">
<title>http://purl.org/oseg/ontologies/OTRL#ODRL&#45;5&#45;&gt;http://www.w3.org/2002/07/owl#class</title>
<path fill="none" stroke="black" d="M568.09,-79.02C580.77,-118.33 613.25,-219.06 628.72,-267.02"/>
<polygon fill="black" stroke="black" points="625.43,-268.24 631.83,-276.69 632.09,-266.09 625.43,-268.24"/>
<text text-anchor="middle" x="593.91" y="-176.82" font-family="Times,serif" font-size="14.00">a</text>
</g>
<!-- http://purl.org/oseg/ontologies/OTRL#ODRL&#45;3 -->
<g id="node11" class="node">
<title>http://purl.org/oseg/ontologies/OTRL#ODRL&#45;3</title>
<ellipse fill="none" stroke="#e377c2" cx="904.6" cy="-230.59" rx="50.82" ry="16.03"/>
<text text-anchor="middle" x="904.6" y="-226.89" font-family="Times,serif" font-size="14.00">ODRL&#45;3</text>
</g>
<!-- http://purl.org/oseg/ontologies/OTRL#ODRL&#45;3&#45;&gt;http://purl.org/oseg/ontologies/OTRL#ODRL -->
<g id="edge3" class="edge">
<title>http://purl.org/oseg/ontologies/OTRL#ODRL&#45;3&#45;&gt;http://purl.org/oseg/ontologies/OTRL#ODRL</title>
<path fill="none" stroke="black" d="M878.92,-216.44C853.89,-202.64 815.72,-181.6 788.4,-166.55"/>
<polygon fill="black" stroke="black" points="790.04,-163.45 779.59,-161.69 786.66,-169.58 790.04,-163.45"/>
</g>
<!-- http://purl.org/oseg/ontologies/OTRL#ODRL&#45;3&#45;&gt;http://www.w3.org/2002/07/owl#class -->
<g id="edge7" class="edge">
<title>http://purl.org/oseg/ontologies/OTRL#ODRL&#45;3&#45;&gt;http://www.w3.org/2002/07/owl#class</title>
<path fill="none" stroke="black" d="M863.39,-240.23C817.24,-251.03 742.24,-268.58 691.36,-280.49"/>
<polygon fill="black" stroke="black" points="690.46,-277.1 681.52,-282.79 692.05,-283.92 690.46,-277.1"/>
<text text-anchor="middle" x="772.88" y="-264.16" font-family="Times,serif" font-size="14.00">a</text>
</g>
<!-- http://purl.org/oseg/ontologies/OTRL#OTRL&#45;2 -->
<g id="node12" class="node">
<title>http://purl.org/oseg/ontologies/OTRL#OTRL&#45;2</title>
<ellipse fill="none" stroke="#e377c2" cx="377.09" cy="-390.97" rx="49.49" ry="16.03"/>
<text text-anchor="middle" x="377.09" y="-387.27" font-family="Times,serif" font-size="14.00">OTRL&#45;2</text>
</g>
<!-- http://purl.org/oseg/ontologies/OTRL#OTRL&#45;2&#45;&gt;http://purl.org/oseg/ontologies/OTRL#OTRL -->
<g id="edge40" class="edge">
<title>http://purl.org/oseg/ontologies/OTRL#OTRL&#45;2&#45;&gt;http://purl.org/oseg/ontologies/OTRL#OTRL</title>
<path fill="none" stroke="black" d="M386.02,-407.36C396.79,-427.14 415.03,-460.63 427.58,-483.69"/>
<polygon fill="black" stroke="black" points="424.56,-485.45 432.42,-492.56 430.71,-482.1 424.56,-485.45"/>
</g>
<!-- http://purl.org/oseg/ontologies/OTRL#OTRL&#45;2&#45;&gt;http://www.w3.org/2002/07/owl#class -->
<g id="edge8" class="edge">
<title>http://purl.org/oseg/ontologies/OTRL#OTRL&#45;2&#45;&gt;http://www.w3.org/2002/07/owl#class</title>
<path fill="none" stroke="black" d="M409.77,-378.69C456.03,-361.29 540.77,-329.42 592.72,-309.88"/>
<polygon fill="black" stroke="black" points="594.2,-313.06 602.33,-306.27 591.74,-306.51 594.2,-313.06"/>
<text text-anchor="middle" x="496.74" y="-348.08" font-family="Times,serif" font-size="14.00">a</text>
</g>
<!-- http://purl.org/oseg/ontologies/OTRL#ODRL&#45;2 -->
<g id="node13" class="node">
<title>http://purl.org/oseg/ontologies/OTRL#ODRL&#45;2</title>
<ellipse fill="none" stroke="#e377c2" cx="650.88" cy="-16.53" rx="50.82" ry="16.03"/>
<text text-anchor="middle" x="650.88" y="-12.83" font-family="Times,serif" font-size="14.00">ODRL&#45;2</text>
</g>
<!-- http://purl.org/oseg/ontologies/OTRL#ODRL&#45;2&#45;&gt;http://purl.org/oseg/ontologies/OTRL#ODRL -->
<g id="edge21" class="edge">
<title>http://purl.org/oseg/ontologies/OTRL#ODRL&#45;2&#45;&gt;http://purl.org/oseg/ontologies/OTRL#ODRL</title>
<path fill="none" stroke="black" d="M663.47,-32.42C681.57,-55.27 715.08,-97.58 736.21,-124.25"/>
<polygon fill="black" stroke="black" points="733.65,-126.66 742.6,-132.32 739.14,-122.31 733.65,-126.66"/>
</g>
<!-- http://purl.org/oseg/ontologies/OTRL#ODRL&#45;2&#45;&gt;http://www.w3.org/2002/07/owl#class -->
<g id="edge10" class="edge">
<title>http://purl.org/oseg/ontologies/OTRL#ODRL&#45;2&#45;&gt;http://www.w3.org/2002/07/owl#class</title>
<path fill="none" stroke="black" d="M650.06,-33.01C647.77,-79.14 641.28,-209.88 638.47,-266.5"/>
<polygon fill="black" stroke="black" points="634.96,-266.62 637.96,-276.78 641.95,-266.97 634.96,-266.62"/>
<text text-anchor="middle" x="639.77" y="-153.55" font-family="Times,serif" font-size="14.00">a</text>
</g>
<!-- http://purl.org/oseg/ontologies/OTRL#OTRL&#45;5 -->
<g id="node14" class="node">
<title>http://purl.org/oseg/ontologies/OTRL#OTRL&#45;5</title>
<ellipse fill="none" stroke="#e377c2" cx="634.03" cy="-467.48" rx="49.49" ry="16.03"/>
<text text-anchor="middle" x="634.03" y="-463.78" font-family="Times,serif" font-size="14.00">OTRL&#45;5</text>
</g>
<!-- http://purl.org/oseg/ontologies/OTRL#OTRL&#45;5&#45;&gt;http://purl.org/oseg/ontologies/OTRL#OTRL -->
<g id="edge25" class="edge">
<title>http://purl.org/oseg/ontologies/OTRL#OTRL&#45;5&#45;&gt;http://purl.org/oseg/ontologies/OTRL#OTRL</title>
<path fill="none" stroke="black" d="M592.21,-476.45C561.03,-483.13 518.5,-492.25 486.53,-499.1"/>
<polygon fill="black" stroke="black" points="485.59,-495.72 476.55,-501.24 487.06,-502.57 485.59,-495.72"/>
</g>
<!-- http://purl.org/oseg/ontologies/OTRL#OTRL&#45;5&#45;&gt;http://www.w3.org/2002/07/owl#class -->
<g id="edge30" class="edge">
<title>http://purl.org/oseg/ontologies/OTRL#OTRL&#45;5&#45;&gt;http://www.w3.org/2002/07/owl#class</title>
<path fill="none" stroke="black" d="M634.33,-451.09C634.87,-420.98 636.02,-356.63 636.67,-320.05"/>
<polygon fill="black" stroke="black" points="640.18,-319.72 636.85,-309.66 633.18,-319.59 640.18,-319.72"/>
<text text-anchor="middle" x="631" y="-389.37" font-family="Times,serif" font-size="14.00">a</text>
</g>
<!-- http://purl.org/oseg/ontologies/OTRL#softwareDescription -->
<g id="node15" class="node">
<title>http://purl.org/oseg/ontologies/OTRL#softwareDescription</title>
<ellipse fill="none" stroke="#e377c2" cx="417.62" cy="-849.52" rx="113.69" ry="16.03"/>
<text text-anchor="middle" x="417.62" y="-845.82" font-family="Times,serif" font-size="14.00">softwareDescription</text>
</g>
<!-- http://purl.org/oseg/ontologies/OTRL#softwareDescription&#45;&gt;http://purl.org/oseg/ontologies/OTRL#OTRL -->
<g id="edge11" class="edge">
<title>http://purl.org/oseg/ontologies/OTRL#softwareDescription&#45;&gt;http://purl.org/oseg/ontologies/OTRL#OTRL</title>
<path fill="none" stroke="black" d="M418.76,-833.09C422.55,-778.44 434.76,-602.47 439.43,-535.25"/>
<polygon fill="black" stroke="black" points="442.93,-535.29 440.13,-525.07 435.95,-534.81 442.93,-535.29"/>
<text text-anchor="middle" x="402.59" y="-687.97" font-family="Times,serif" font-size="14.00">domain</text>
</g>
<!-- http://purl.org/oseg/ontologies/OTRL#softwareDescription&#45;&gt;http://schema.org/Text -->
<g id="edge29" class="edge">
<title>http://purl.org/oseg/ontologies/OTRL#softwareDescription&#45;&gt;http://schema.org/Text</title>
<path fill="none" stroke="black" d="M350.12,-836.38C308.38,-828.25 255.04,-817.87 213.55,-809.79"/>
<polygon fill="black" stroke="black" points="214.02,-806.32 203.54,-807.84 212.69,-813.19 214.02,-806.32"/>
<text text-anchor="middle" x="260.84" y="-826.89" font-family="Times,serif" font-size="14.00">range</text>
</g>
<!-- http://purl.org/oseg/ontologies/OTRL#documentationDescription -->
<g id="node16" class="node">
<title>http://purl.org/oseg/ontologies/OTRL#documentationDescription</title>
<ellipse fill="none" stroke="#e377c2" cx="178.12" cy="-734.29" rx="120.83" ry="16.03"/>
<text text-anchor="middle" x="178.12" y="-730.59" font-family="Times,serif" font-size="14.00">documentationDesc...</text>
</g>
<!-- http://purl.org/oseg/ontologies/OTRL#documentationDescription&#45;&gt;http://purl.org/oseg/ontologies/OTRL#OTRL -->
<g id="edge41" class="edge">
<title>http://purl.org/oseg/ontologies/OTRL#documentationDescription&#45;&gt;http://purl.org/oseg/ontologies/OTRL#OTRL</title>
<path fill="none" stroke="black" d="M197.04,-718.07C243.58,-678.2 363.6,-575.35 416.08,-530.39"/>
<polygon fill="black" stroke="black" points="418.58,-532.85 423.9,-523.69 414.02,-527.53 418.58,-532.85"/>
<text text-anchor="middle" x="280.06" y="-628.03" font-family="Times,serif" font-size="14.00">domain</text>
</g>
<!-- http://purl.org/oseg/ontologies/OTRL#documentationDescription&#45;&gt;http://schema.org/Text -->
<g id="edge23" class="edge">
<title>http://purl.org/oseg/ontologies/OTRL#documentationDescription&#45;&gt;http://schema.org/Text</title>
<path fill="none" stroke="black" d="M170.04,-750.74C166.96,-757.02 163.36,-764.34 159.96,-771.27"/>
<polygon fill="black" stroke="black" points="156.77,-769.83 155.5,-780.35 163.05,-772.92 156.77,-769.83"/>
<text text-anchor="middle" x="144" y="-764.81" font-family="Times,serif" font-size="14.00">range</text>
</g>
<!-- http://purl.org/oseg/ontologies/OTRL#ODRL&#45;1 -->
<g id="node17" class="node">
<title>http://purl.org/oseg/ontologies/OTRL#ODRL&#45;1</title>
<ellipse fill="none" stroke="#e377c2" cx="883.92" cy="-314.53" rx="50.82" ry="16.03"/>
<text text-anchor="middle" x="883.92" y="-310.83" font-family="Times,serif" font-size="14.00">ODRL&#45;1</text>
</g>
<!-- http://purl.org/oseg/ontologies/OTRL#ODRL&#45;1&#45;&gt;http://purl.org/oseg/ontologies/OTRL#ODRL -->
<g id="edge32" class="edge">
<title>http://purl.org/oseg/ontologies/OTRL#ODRL&#45;1&#45;&gt;http://purl.org/oseg/ontologies/OTRL#ODRL</title>
<path fill="none" stroke="black" d="M871.58,-298.59C848.85,-269.22 800.25,-206.42 773.62,-172.02"/>
<polygon fill="black" stroke="black" points="776.24,-169.68 767.35,-163.92 770.7,-173.97 776.24,-169.68"/>
</g>
<!-- http://purl.org/oseg/ontologies/OTRL#ODRL&#45;1&#45;&gt;http://www.w3.org/2002/07/owl#class -->
<g id="edge13" class="edge">
<title>http://purl.org/oseg/ontologies/OTRL#ODRL&#45;1&#45;&gt;http://www.w3.org/2002/07/owl#class</title>
<path fill="none" stroke="black" d="M834.57,-310.26C796.5,-306.96 743.51,-302.38 702.01,-298.79"/>
<polygon fill="black" stroke="black" points="702.26,-295.3 691.99,-297.92 701.65,-302.27 702.26,-295.3"/>
<text text-anchor="middle" x="763.79" y="-308.32" font-family="Times,serif" font-size="14.00">a</text>
</g>
<!-- http://purl.org/oseg/ontologies/OTRL#ODRL&#45;4 -->
<g id="node18" class="node">
<title>http://purl.org/oseg/ontologies/OTRL#ODRL&#45;4</title>
<ellipse fill="none" stroke="#e377c2" cx="776.13" cy="-52.58" rx="50.82" ry="16.03"/>
<text text-anchor="middle" x="776.13" y="-48.88" font-family="Times,serif" font-size="14.00">ODRL&#45;4</text>
</g>
<!-- http://purl.org/oseg/ontologies/OTRL#ODRL&#45;4&#45;&gt;http://purl.org/oseg/ontologies/OTRL#ODRL -->
<g id="edge33" class="edge">
<title>http://purl.org/oseg/ontologies/OTRL#ODRL&#45;4&#45;&gt;http://purl.org/oseg/ontologies/OTRL#ODRL</title>
<path fill="none" stroke="black" d="M772.59,-68.81C769.41,-83.39 764.68,-105.04 760.96,-122.06"/>
<polygon fill="black" stroke="black" points="757.51,-121.44 758.8,-131.96 764.35,-122.93 757.51,-121.44"/>
</g>
<!-- http://purl.org/oseg/ontologies/OTRL#ODRL&#45;4&#45;&gt;http://www.w3.org/2002/07/owl#class -->
<g id="edge15" class="edge">
<title>http://purl.org/oseg/ontologies/OTRL#ODRL&#45;4&#45;&gt;http://www.w3.org/2002/07/owl#class</title>
<path fill="none" stroke="black" d="M766.8,-68.74C743.01,-109.92 680,-219 651.5,-268.33"/>
<polygon fill="black" stroke="black" points="648.42,-266.67 646.44,-277.08 654.48,-270.18 648.42,-266.67"/>
<text text-anchor="middle" x="704.65" y="-172.33" font-family="Times,serif" font-size="14.00">a</text>
</g>
<!-- http://purl.org/oseg/ontologies/OTRL#OTRL&#45;7 -->
<g id="node19" class="node">
<title>http://purl.org/oseg/ontologies/OTRL#OTRL&#45;7</title>
<ellipse fill="none" stroke="#e377c2" cx="712.24" cy="-514.71" rx="49.49" ry="16.03"/>
<text text-anchor="middle" x="712.24" y="-511.01" font-family="Times,serif" font-size="14.00">OTRL&#45;7</text>
</g>
<!-- http://purl.org/oseg/ontologies/OTRL#OTRL&#45;7&#45;&gt;http://purl.org/oseg/ontologies/OTRL#OTRL -->
<g id="edge20" class="edge">
<title>http://purl.org/oseg/ontologies/OTRL#OTRL&#45;7&#45;&gt;http://purl.org/oseg/ontologies/OTRL#OTRL</title>
<path fill="none" stroke="black" d="M662.54,-513.62C613.76,-512.56 539.76,-510.95 490.98,-509.89"/>
<polygon fill="black" stroke="black" points="491.04,-506.39 480.97,-509.67 490.89,-513.39 491.04,-506.39"/>
</g>
<!-- http://purl.org/oseg/ontologies/OTRL#OTRL&#45;7&#45;&gt;http://www.w3.org/2002/07/owl#class -->
<g id="edge19" class="edge">
<title>http://purl.org/oseg/ontologies/OTRL#OTRL&#45;7&#45;&gt;http://www.w3.org/2002/07/owl#class</title>
<path fill="none" stroke="black" d="M706.72,-498.42C693.81,-460.33 661.56,-365.2 645.93,-319.07"/>
<polygon fill="black" stroke="black" points="649.2,-317.83 642.68,-309.49 642.57,-320.08 649.2,-317.83"/>
<text text-anchor="middle" x="671.82" y="-412.54" font-family="Times,serif" font-size="14.00">a</text>
</g>
<!-- http://purl.org/oseg/ontologies/OTRL#OTRL&#45;6 -->
<g id="node20" class="node">
<title>http://purl.org/oseg/ontologies/OTRL#OTRL&#45;6</title>
<ellipse fill="none" stroke="#e377c2" cx="479.95" cy="-308.4" rx="49.49" ry="16.03"/>
<text text-anchor="middle" x="479.95" y="-304.7" font-family="Times,serif" font-size="14.00">OTRL&#45;6</text>
</g>
<!-- http://purl.org/oseg/ontologies/OTRL#OTRL&#45;6&#45;&gt;http://purl.org/oseg/ontologies/OTRL#OTRL -->
<g id="edge37" class="edge">
<title>http://purl.org/oseg/ontologies/OTRL#OTRL&#45;6&#45;&gt;http://purl.org/oseg/ontologies/OTRL#OTRL</title>
<path fill="none" stroke="black" d="M476.79,-324.8C470.1,-359.46 454.47,-440.4 446.36,-482.42"/>
<polygon fill="black" stroke="black" points="442.88,-481.98 444.42,-492.46 449.75,-483.3 442.88,-481.98"/>
</g>
<!-- http://purl.org/oseg/ontologies/OTRL#OTRL&#45;6&#45;&gt;http://www.w3.org/2002/07/owl#class -->
<g id="edge34" class="edge">
<title>http://purl.org/oseg/ontologies/OTRL#OTRL&#45;6&#45;&gt;http://www.w3.org/2002/07/owl#class</title>
<path fill="none" stroke="black" d="M527.54,-303.79C541.71,-302.42 557.49,-300.89 572.55,-299.43"/>
<polygon fill="black" stroke="black" points="573.22,-302.88 582.84,-298.44 572.54,-295.92 573.22,-302.88"/>
<text text-anchor="middle" x="545.55" y="-305.41" font-family="Times,serif" font-size="14.00">a</text>
</g>
<!-- http://purl.org/oseg/ontologies/OTRL#OTRL&#45;9 -->
<g id="node21" class="node">
<title>http://purl.org/oseg/ontologies/OTRL#OTRL&#45;9</title>
<ellipse fill="none" stroke="#e377c2" cx="397.92" cy="-254.16" rx="49.49" ry="16.03"/>
<text text-anchor="middle" x="397.92" y="-250.46" font-family="Times,serif" font-size="14.00">OTRL&#45;9</text>
</g>
<!-- http://purl.org/oseg/ontologies/OTRL#OTRL&#45;9&#45;&gt;http://purl.org/oseg/ontologies/OTRL#OTRL -->
<g id="edge39" class="edge">
<title>http://purl.org/oseg/ontologies/OTRL#OTRL&#45;9&#45;&gt;http://purl.org/oseg/ontologies/OTRL#OTRL</title>
<path fill="none" stroke="black" d="M400.69,-270.48C408,-313.4 427.81,-429.79 436.77,-482.38"/>
<polygon fill="black" stroke="black" points="433.32,-483.02 438.45,-492.29 440.23,-481.85 433.32,-483.02"/>
</g>
<!-- http://purl.org/oseg/ontologies/OTRL#OTRL&#45;9&#45;&gt;http://www.w3.org/2002/07/owl#class -->
<g id="edge35" class="edge">
<title>http://purl.org/oseg/ontologies/OTRL#OTRL&#45;9&#45;&gt;http://www.w3.org/2002/07/owl#class</title>
<path fill="none" stroke="black" d="M442.35,-261.41C480.3,-267.6 535.23,-276.55 577.09,-283.38"/>
<polygon fill="black" stroke="black" points="576.73,-286.87 587.16,-285.02 577.86,-279.96 576.73,-286.87"/>
<text text-anchor="middle" x="505.22" y="-276.19" font-family="Times,serif" font-size="14.00">a</text>
</g>
<!-- http://purl.org/oseg/ontologies/OTRL#OTRL&#45;1 -->
<g id="node22" class="node">
<title>http://purl.org/oseg/ontologies/OTRL#OTRL&#45;1</title>
<ellipse fill="none" stroke="#e377c2" cx="661.69" cy="-579.73" rx="49.49" ry="16.03"/>
<text text-anchor="middle" x="661.69" y="-576.03" font-family="Times,serif" font-size="14.00">OTRL&#45;1</text>
</g>
<!-- http://purl.org/oseg/ontologies/OTRL#OTRL&#45;1&#45;&gt;http://purl.org/oseg/ontologies/OTRL#OTRL -->
<g id="edge27" class="edge">
<title>http://purl.org/oseg/ontologies/OTRL#OTRL&#45;1&#45;&gt;http://purl.org/oseg/ontologies/OTRL#OTRL</title>
<path fill="none" stroke="black" d="M626.27,-568.33C587.04,-555.71 523.85,-535.38 482.44,-522.05"/>
<polygon fill="black" stroke="black" points="483.26,-518.64 472.66,-518.91 481.11,-525.3 483.26,-518.64"/>
</g>
<!-- http://purl.org/oseg/ontologies/OTRL#OTRL&#45;1&#45;&gt;http://www.w3.org/2002/07/owl#class -->
<g id="edge36" class="edge">
<title>http://purl.org/oseg/ontologies/OTRL#OTRL&#45;1&#45;&gt;http://www.w3.org/2002/07/owl#class</title>
<path fill="none" stroke="black" d="M660.26,-563.08C656.18,-515.39 644.41,-377.94 639.42,-319.73"/>
<polygon fill="black" stroke="black" points="642.89,-319.17 638.55,-309.51 635.91,-319.77 642.89,-319.17"/>
<text text-anchor="middle" x="645.34" y="-430.21" font-family="Times,serif" font-size="14.00">a</text>
</g>
<!-- http://purl.org/oseg/ontologies/OTRL#hardwareDescription -->
<g id="node23" class="node">
<title>http://purl.org/oseg/ontologies/OTRL#hardwareDescription</title>
<ellipse fill="none" stroke="#e377c2" cx="117.62" cy="-539.59" rx="118.17" ry="16.03"/>
<text text-anchor="middle" x="117.62" y="-535.89" font-family="Times,serif" font-size="14.00">hardwareDescription</text>
</g>
<!-- http://purl.org/oseg/ontologies/OTRL#hardwareDescription&#45;&gt;http://purl.org/oseg/ontologies/OTRL#OTRL -->
<g id="edge38" class="edge">
<title>http://purl.org/oseg/ontologies/OTRL#hardwareDescription&#45;&gt;http://purl.org/oseg/ontologies/OTRL#OTRL</title>
<path fill="none" stroke="black" d="M215.17,-530.31C273.65,-524.75 345.51,-517.91 392.3,-513.46"/>
<polygon fill="black" stroke="black" points="392.85,-516.92 402.47,-512.49 392.18,-509.96 392.85,-516.92"/>
<text text-anchor="middle" x="277.23" y="-525.69" font-family="Times,serif" font-size="14.00">domain</text>
</g>
<!-- http://purl.org/oseg/ontologies/OTRL#hardwareDescription&#45;&gt;http://schema.org/Text -->
<g id="edge28" class="edge">
<title>http://purl.org/oseg/ontologies/OTRL#hardwareDescription&#45;&gt;http://schema.org/Text</title>
<path fill="none" stroke="black" d="M119.53,-556.08C124.56,-599.56 138.21,-717.63 144.33,-770.59"/>
<polygon fill="black" stroke="black" points="140.86,-771.03 145.48,-780.56 147.81,-770.22 140.86,-771.03"/>
<text text-anchor="middle" x="110.93" y="-667.13" font-family="Times,serif" font-size="14.00">range</text>
</g>
<!-- http://purl.org/oseg/ontologies/OTRL#OTRL&#45;3 -->
<g id="node24" class="node">
<title>http://purl.org/oseg/ontologies/OTRL#OTRL&#45;3</title>
<ellipse fill="none" stroke="#e377c2" cx="551.39" cy="-541.39" rx="49.49" ry="16.03"/>
<text text-anchor="middle" x="551.39" y="-537.69" font-family="Times,serif" font-size="14.00">OTRL&#45;3</text>
</g>
<!-- http://purl.org/oseg/ontologies/OTRL#OTRL&#45;3&#45;&gt;http://purl.org/oseg/ontologies/OTRL#OTRL -->
<g id="edge12" class="edge">
<title>http://purl.org/oseg/ontologies/OTRL#OTRL&#45;3&#45;&gt;http://purl.org/oseg/ontologies/OTRL#OTRL</title>
<path fill="none" stroke="black" d="M514.42,-530.45C504.38,-527.48 493.44,-524.24 483.15,-521.2"/>
<polygon fill="black" stroke="black" points="484.11,-517.83 473.53,-518.35 482.13,-524.54 484.11,-517.83"/>
</g>
<!-- http://purl.org/oseg/ontologies/OTRL#OTRL&#45;3&#45;&gt;http://www.w3.org/2002/07/owl#class -->
<g id="edge22" class="edge">
<title>http://purl.org/oseg/ontologies/OTRL#OTRL&#45;3&#45;&gt;http://www.w3.org/2002/07/owl#class</title>
<path fill="none" stroke="black" d="M557.02,-525.1C571.56,-483.03 610.46,-370.42 628.16,-319.19"/>
<polygon fill="black" stroke="black" points="631.54,-320.11 631.5,-309.52 624.93,-317.83 631.54,-320.11"/>
<text text-anchor="middle" x="588.09" y="-425.95" font-family="Times,serif" font-size="14.00">a</text>
</g>
</g>
</svg>
