<?xml version="1.0" encoding="UTF-8" standalone="no"?>
<!DOCTYPE svg PUBLIC "-//W3C//DTD SVG 1.1//EN"
 "http://www.w3.org/Graphics/SVG/1.1/DTD/svg11.dtd">
<!-- Generated by graphviz version 2.43.0 (0)
 -->
<!-- Title: G Pages: 1 -->
<svg width="579pt" height="425pt"
 viewBox="0.00 0.00 579.00 425.00" xmlns="http://www.w3.org/2000/svg" xmlns:xlink="http://www.w3.org/1999/xlink">
<g id="graph0" class="graph" transform="scale(1 1) rotate(0) translate(4 421)">
<title>G</title>
<polygon fill="white" stroke="transparent" points="-4,4 -4,-421 575,-421 575,4 -4,4"/>
<!-- http://purl.org/oseg/ontologies/OTRL#ODRL -->
<g id="node1" class="node">
<title>http://purl.org/oseg/ontologies/OTRL#ODRL</title>
<ellipse fill="none" stroke="#e377c2" cx="73.83" cy="-167.14" rx="41.94" ry="16.03"/>
<text text-anchor="middle" x="73.83" y="-163.44" font-family="Times,serif" font-size="14.00">ODRL</text>
</g>
<!-- http://www.w3.org/2002/07/owl#class -->
<g id="node3" class="node">
<title>http://www.w3.org/2002/07/owl#class</title>
<ellipse fill="none" stroke="#1f77b4" cx="231.88" cy="-172.28" rx="57.05" ry="16.03"/>
<text text-anchor="middle" x="231.88" y="-168.58" font-family="Times,serif" font-size="14.00">owl:class</text>
</g>
<!-- http://purl.org/oseg/ontologies/OTRL#ODRL&#45;&gt;http://www.w3.org/2002/07/owl#class -->
<g id="edge5" class="edge">
<title>http://purl.org/oseg/ontologies/OTRL#ODRL&#45;&gt;http://www.w3.org/2002/07/owl#class</title>
<path fill="none" stroke="black" d="M115.77,-168.5C130.77,-168.99 148.07,-169.55 164.66,-170.09"/>
<polygon fill="black" stroke="black" points="164.76,-173.6 174.87,-170.43 164.99,-166.6 164.76,-173.6"/>
<text text-anchor="middle" x="135.72" y="-173.1" font-family="Times,serif" font-size="14.00">a</text>
</g>
<!-- http://purl.org/oseg/ontologies/OTRL#OTRL -->
<g id="node2" class="node">
<title>http://purl.org/oseg/ontologies/OTRL#OTRL</title>
<ellipse fill="none" stroke="#e377c2" cx="386.34" cy="-188.41" rx="39.7" ry="16.03"/>
<text text-anchor="middle" x="386.34" y="-184.71" font-family="Times,serif" font-size="14.00">OTRL</text>
</g>
<!-- http://purl.org/oseg/ontologies/OTRL#OTRL&#45;&gt;http://www.w3.org/2002/07/owl#class -->
<g id="edge24" class="edge">
<title>http://purl.org/oseg/ontologies/OTRL#OTRL&#45;&gt;http://www.w3.org/2002/07/owl#class</title>
<path fill="none" stroke="black" d="M347.76,-184.39C332.07,-182.75 313.52,-180.81 295.91,-178.97"/>
<polygon fill="black" stroke="black" points="295.99,-175.46 285.69,-177.9 295.27,-182.42 295.99,-175.46"/>
<text text-anchor="middle" x="317.34" y="-185.48" font-family="Times,serif" font-size="14.00">a</text>
</g>
<!-- http://purl.org/oseg/ontologies/OTRL#OTRL&#45;2 -->
<g id="node4" class="node">
<title>http://purl.org/oseg/ontologies/OTRL#OTRL&#45;2</title>
<ellipse fill="none" stroke="#e377c2" cx="342.48" cy="-332.78" rx="49.49" ry="16.03"/>
<text text-anchor="middle" x="342.48" y="-329.08" font-family="Times,serif" font-size="14.00">OTRL&#45;2</text>
</g>
<!-- http://purl.org/oseg/ontologies/OTRL#OTRL&#45;2&#45;&gt;http://purl.org/oseg/ontologies/OTRL#OTRL -->
<g id="edge18" class="edge">
<title>http://purl.org/oseg/ontologies/OTRL#OTRL&#45;2&#45;&gt;http://purl.org/oseg/ontologies/OTRL#OTRL</title>
<path fill="none" stroke="black" d="M347.43,-316.5C354.96,-291.69 369.39,-244.21 378.4,-214.54"/>
<polygon fill="black" stroke="black" points="381.78,-215.44 381.34,-204.86 375.09,-213.41 381.78,-215.44"/>
</g>
<!-- http://purl.org/oseg/ontologies/OTRL#OTRL&#45;2&#45;&gt;http://www.w3.org/2002/07/owl#class -->
<g id="edge14" class="edge">
<title>http://purl.org/oseg/ontologies/OTRL#OTRL&#45;2&#45;&gt;http://www.w3.org/2002/07/owl#class</title>
<path fill="none" stroke="black" d="M331.47,-316.8C312.11,-288.71 271.85,-230.28 248.89,-196.96"/>
<polygon fill="black" stroke="black" points="251.73,-194.92 243.18,-188.67 245.97,-198.89 251.73,-194.92"/>
<text text-anchor="middle" x="285.68" y="-260.68" font-family="Times,serif" font-size="14.00">a</text>
</g>
<!-- http://purl.org/oseg/ontologies/OTRL#ODRL&#45;5 -->
<g id="node5" class="node">
<title>http://purl.org/oseg/ontologies/OTRL#ODRL&#45;5</title>
<ellipse fill="none" stroke="#e377c2" cx="50.56" cy="-212.81" rx="50.82" ry="16.03"/>
<text text-anchor="middle" x="50.56" y="-209.11" font-family="Times,serif" font-size="14.00">ODRL&#45;5</text>
</g>
<!-- http://purl.org/oseg/ontologies/OTRL#ODRL&#45;5&#45;&gt;http://purl.org/oseg/ontologies/OTRL#ODRL -->
<g id="edge6" class="edge">
<title>http://purl.org/oseg/ontologies/OTRL#ODRL&#45;5&#45;&gt;http://purl.org/oseg/ontologies/OTRL#ODRL</title>
<path fill="none" stroke="black" d="M58.83,-196.58C59.52,-195.23 60.22,-193.85 60.93,-192.46"/>
<polygon fill="black" stroke="black" points="64.17,-193.81 65.59,-183.31 57.93,-190.63 64.17,-193.81"/>
</g>
<!-- http://purl.org/oseg/ontologies/OTRL#ODRL&#45;5&#45;&gt;http://www.w3.org/2002/07/owl#class -->
<g id="edge13" class="edge">
<title>http://purl.org/oseg/ontologies/OTRL#ODRL&#45;5&#45;&gt;http://www.w3.org/2002/07/owl#class</title>
<path fill="none" stroke="black" d="M92.61,-203.41C117.57,-197.83 149.5,-190.7 176.49,-184.66"/>
<polygon fill="black" stroke="black" points="177.57,-188.01 186.57,-182.41 176.04,-181.18 177.57,-188.01"/>
<text text-anchor="middle" x="130.05" y="-197.84" font-family="Times,serif" font-size="14.00">a</text>
</g>
<!-- http://purl.org/oseg/ontologies/OTRL#OTRL&#45;1 -->
<g id="node6" class="node">
<title>http://purl.org/oseg/ontologies/OTRL#OTRL&#45;1</title>
<ellipse fill="none" stroke="#e377c2" cx="257.97" cy="-222.33" rx="49.49" ry="16.03"/>
<text text-anchor="middle" x="257.97" y="-218.63" font-family="Times,serif" font-size="14.00">OTRL&#45;1</text>
</g>
<!-- http://purl.org/oseg/ontologies/OTRL#OTRL&#45;1&#45;&gt;http://purl.org/oseg/ontologies/OTRL#OTRL -->
<g id="edge10" class="edge">
<title>http://purl.org/oseg/ontologies/OTRL#OTRL&#45;1&#45;&gt;http://purl.org/oseg/ontologies/OTRL#OTRL</title>
<path fill="none" stroke="black" d="M296.83,-212.06C311.34,-208.23 327.9,-203.85 342.81,-199.91"/>
<polygon fill="black" stroke="black" points="344.04,-203.21 352.81,-197.27 342.25,-196.44 344.04,-203.21"/>
</g>
<!-- http://purl.org/oseg/ontologies/OTRL#OTRL&#45;1&#45;&gt;http://www.w3.org/2002/07/owl#class -->
<g id="edge1" class="edge">
<title>http://purl.org/oseg/ontologies/OTRL#OTRL&#45;1&#45;&gt;http://www.w3.org/2002/07/owl#class</title>
<path fill="none" stroke="black" d="M249.57,-206.22C248.16,-203.5 246.66,-200.63 245.16,-197.75"/>
<polygon fill="black" stroke="black" points="248.17,-195.96 240.44,-188.71 241.96,-199.19 248.17,-195.96"/>
<text text-anchor="middle" x="242.86" y="-190.78" font-family="Times,serif" font-size="14.00">a</text>
</g>
<!-- http://purl.org/oseg/ontologies/OTRL -->
<g id="node7" class="node">
<title>http://purl.org/oseg/ontologies/OTRL</title>
<ellipse fill="none" stroke="#e377c2" cx="314.24" cy="-16.64" rx="60.62" ry="16.03"/>
<text text-anchor="middle" x="314.24" y="-12.94" font-family="Times,serif" font-size="14.00">ns1:OTRL</text>
</g>
<!-- http://purl.org/oseg/ontologies/OTRL&#45;&gt;http://purl.org/oseg/ontologies/OTRL -->
<g id="edge21" class="edge">
<title>http://purl.org/oseg/ontologies/OTRL&#45;&gt;http://purl.org/oseg/ontologies/OTRL</title>
<path fill="none" stroke="black" d="M369.84,-23.27C383.17,-22.75 393.05,-20.54 393.05,-16.64 393.05,-13.81 387.83,-11.86 379.87,-10.81"/>
<polygon fill="black" stroke="black" points="380.09,-7.32 369.84,-10.01 379.53,-14.3 380.09,-7.32"/>
<text text-anchor="middle" x="444.55" y="-12.94" font-family="Times,serif" font-size="14.00">owl:versionIRI</text>
</g>
<!-- http://purl.org/oseg/ontologies/OTRL#goal -->
<g id="node8" class="node">
<title>http://purl.org/oseg/ontologies/OTRL#goal</title>
<ellipse fill="none" stroke="#e377c2" cx="447.22" cy="-400.71" rx="33.47" ry="16.03"/>
<text text-anchor="middle" x="447.22" y="-397.01" font-family="Times,serif" font-size="14.00">goal</text>
</g>
<!-- http://schema.org/Text -->
<g id="node9" class="node">
<title>http://schema.org/Text</title>
<ellipse fill="none" stroke="#e377c2" cx="494.86" cy="-360.11" rx="74.91" ry="16.03"/>
<text text-anchor="middle" x="494.86" y="-356.41" font-family="Times,serif" font-size="14.00">schema:Text</text>
</g>
<!-- http://purl.org/oseg/ontologies/OTRL#goal&#45;&gt;http://schema.org/Text -->
<g id="edge15" class="edge">
<title>http://purl.org/oseg/ontologies/OTRL#goal&#45;&gt;http://schema.org/Text</title>
<path fill="none" stroke="black" d="M463.88,-386.51C465.37,-385.24 466.9,-383.94 468.45,-382.62"/>
<polygon fill="black" stroke="black" points="470.83,-385.18 476.17,-376.03 466.29,-379.86 470.83,-385.18"/>
<text text-anchor="middle" x="487.16" y="-388.36" font-family="Times,serif" font-size="14.00">range</text>
</g>
<!-- http://purl.org/oseg/ontologies/OTRL#ODRL&#45;2 -->
<g id="node10" class="node">
<title>http://purl.org/oseg/ontologies/OTRL#ODRL&#45;2</title>
<ellipse fill="none" stroke="#e377c2" cx="121.22" cy="-39.23" rx="50.82" ry="16.03"/>
<text text-anchor="middle" x="121.22" y="-35.53" font-family="Times,serif" font-size="14.00">ODRL&#45;2</text>
</g>
<!-- http://purl.org/oseg/ontologies/OTRL#ODRL&#45;2&#45;&gt;http://purl.org/oseg/ontologies/OTRL#ODRL -->
<g id="edge3" class="edge">
<title>http://purl.org/oseg/ontologies/OTRL#ODRL&#45;2&#45;&gt;http://purl.org/oseg/ontologies/OTRL#ODRL</title>
<path fill="none" stroke="black" d="M115.22,-55.43C107.22,-77.03 92.96,-115.52 83.45,-141.19"/>
<polygon fill="black" stroke="black" points="80.13,-140.07 79.94,-150.66 86.69,-142.5 80.13,-140.07"/>
</g>
<!-- http://purl.org/oseg/ontologies/OTRL#ODRL&#45;2&#45;&gt;http://www.w3.org/2002/07/owl#class -->
<g id="edge16" class="edge">
<title>http://purl.org/oseg/ontologies/OTRL#ODRL&#45;2&#45;&gt;http://www.w3.org/2002/07/owl#class</title>
<path fill="none" stroke="black" d="M134.35,-55.01C153.55,-78.1 189.43,-121.24 211.91,-148.27"/>
<polygon fill="black" stroke="black" points="209.34,-150.65 218.43,-156.1 214.72,-146.18 209.34,-150.65"/>
<text text-anchor="middle" x="168.63" y="-105.44" font-family="Times,serif" font-size="14.00">a</text>
</g>
<!-- http://purl.org/oseg/ontologies/OTRL#ODRL&#45;3 -->
<g id="node11" class="node">
<title>http://purl.org/oseg/ontologies/OTRL#ODRL&#45;3</title>
<ellipse fill="none" stroke="#e377c2" cx="204.58" cy="-94.42" rx="50.82" ry="16.03"/>
<text text-anchor="middle" x="204.58" y="-90.72" font-family="Times,serif" font-size="14.00">ODRL&#45;3</text>
</g>
<!-- http://purl.org/oseg/ontologies/OTRL#ODRL&#45;3&#45;&gt;http://purl.org/oseg/ontologies/OTRL#ODRL -->
<g id="edge22" class="edge">
<title>http://purl.org/oseg/ontologies/OTRL#ODRL&#45;3&#45;&gt;http://purl.org/oseg/ontologies/OTRL#ODRL</title>
<path fill="none" stroke="black" d="M179.06,-108.61C158.42,-120.09 129.21,-136.34 106.8,-148.8"/>
<polygon fill="black" stroke="black" points="105,-145.79 97.96,-153.71 108.4,-151.91 105,-145.79"/>
</g>
<!-- http://purl.org/oseg/ontologies/OTRL#ODRL&#45;3&#45;&gt;http://www.w3.org/2002/07/owl#class -->
<g id="edge2" class="edge">
<title>http://purl.org/oseg/ontologies/OTRL#ODRL&#45;3&#45;&gt;http://www.w3.org/2002/07/owl#class</title>
<path fill="none" stroke="black" d="M210.37,-110.93C213.98,-121.22 218.7,-134.68 222.8,-146.37"/>
<polygon fill="black" stroke="black" points="219.58,-147.78 226.19,-156.06 226.19,-145.47 219.58,-147.78"/>
<text text-anchor="middle" x="212.08" y="-132.45" font-family="Times,serif" font-size="14.00">a</text>
</g>
<!-- http://purl.org/oseg/ontologies/OTRL#ODRL&#45;1 -->
<g id="node12" class="node">
<title>http://purl.org/oseg/ontologies/OTRL#ODRL&#45;1</title>
<ellipse fill="none" stroke="#e377c2" cx="106.09" cy="-311.2" rx="50.82" ry="16.03"/>
<text text-anchor="middle" x="106.09" y="-307.5" font-family="Times,serif" font-size="14.00">ODRL&#45;1</text>
</g>
<!-- http://purl.org/oseg/ontologies/OTRL#ODRL&#45;1&#45;&gt;http://purl.org/oseg/ontologies/OTRL#ODRL -->
<g id="edge11" class="edge">
<title>http://purl.org/oseg/ontologies/OTRL#ODRL&#45;1&#45;&gt;http://purl.org/oseg/ontologies/OTRL#ODRL</title>
<path fill="none" stroke="black" d="M102.46,-294.96C96.94,-270.31 86.39,-223.23 79.76,-193.6"/>
<polygon fill="black" stroke="black" points="83.11,-192.54 77.51,-183.54 76.28,-194.07 83.11,-192.54"/>
</g>
<!-- http://purl.org/oseg/ontologies/OTRL#ODRL&#45;1&#45;&gt;http://www.w3.org/2002/07/owl#class -->
<g id="edge17" class="edge">
<title>http://purl.org/oseg/ontologies/OTRL#ODRL&#45;1&#45;&gt;http://www.w3.org/2002/07/owl#class</title>
<path fill="none" stroke="black" d="M120.28,-295.54C142.36,-271.15 185.09,-223.97 210.79,-195.58"/>
<polygon fill="black" stroke="black" points="213.44,-197.87 217.56,-188.1 208.25,-193.17 213.44,-197.87"/>
<text text-anchor="middle" x="161.04" y="-249.36" font-family="Times,serif" font-size="14.00">a</text>
</g>
<!-- http://www.w3.org/1999/02/22&#45;rdf&#45;syntax&#45;ns#nil -->
<g id="node13" class="node">
<title>http://www.w3.org/1999/02/22&#45;rdf&#45;syntax&#45;ns#nil</title>
<ellipse fill="none" stroke="#e377c2" cx="226.24" cy="-315.64" rx="42.35" ry="16.03"/>
<text text-anchor="middle" x="226.24" y="-311.94" font-family="Times,serif" font-size="14.00">rdf:nil</text>
</g>
<!-- http://purl.org/oseg/ontologies/OTRL#exitCriteria -->
<g id="node14" class="node">
<title>http://purl.org/oseg/ontologies/OTRL#exitCriteria</title>
<ellipse fill="none" stroke="#e377c2" cx="500.99" cy="-315.39" rx="70.01" ry="16.03"/>
<text text-anchor="middle" x="500.99" y="-311.69" font-family="Times,serif" font-size="14.00">exitCriteria</text>
</g>
<!-- http://purl.org/oseg/ontologies/OTRL#exitCriteria&#45;&gt;http://schema.org/Text -->
<g id="edge19" class="edge">
<title>http://purl.org/oseg/ontologies/OTRL#exitCriteria&#45;&gt;http://schema.org/Text</title>
<path fill="none" stroke="black" d="M498.74,-331.79C498.66,-332.4 498.58,-333.01 498.49,-333.63"/>
<polygon fill="black" stroke="black" points="495,-333.33 497.11,-343.72 501.93,-334.28 495,-333.33"/>
<text text-anchor="middle" x="477.62" y="-336.51" font-family="Times,serif" font-size="14.00">range</text>
</g>
<!-- http://purl.org/oseg/ontologies/OTRL#OTRL&#45;5 -->
<g id="node15" class="node">
<title>http://purl.org/oseg/ontologies/OTRL#OTRL&#45;5</title>
<ellipse fill="none" stroke="#e377c2" cx="349.78" cy="-68.47" rx="49.49" ry="16.03"/>
<text text-anchor="middle" x="349.78" y="-64.77" font-family="Times,serif" font-size="14.00">OTRL&#45;5</text>
</g>
<!-- http://purl.org/oseg/ontologies/OTRL#OTRL&#45;5&#45;&gt;http://purl.org/oseg/ontologies/OTRL#OTRL -->
<g id="edge8" class="edge">
<title>http://purl.org/oseg/ontologies/OTRL#OTRL&#45;5&#45;&gt;http://purl.org/oseg/ontologies/OTRL#OTRL</title>
<path fill="none" stroke="black" d="M354.86,-85.15C360.98,-105.22 371.32,-139.15 378.47,-162.61"/>
<polygon fill="black" stroke="black" points="375.15,-163.72 381.41,-172.26 381.84,-161.68 375.15,-163.72"/>
</g>
<!-- http://purl.org/oseg/ontologies/OTRL#OTRL&#45;5&#45;&gt;http://www.w3.org/2002/07/owl#class -->
<g id="edge4" class="edge">
<title>http://purl.org/oseg/ontologies/OTRL#OTRL&#45;5&#45;&gt;http://www.w3.org/2002/07/owl#class</title>
<path fill="none" stroke="black" d="M332.38,-83.79C312.56,-101.24 279.98,-129.93 257.31,-149.9"/>
<polygon fill="black" stroke="black" points="254.93,-147.33 249.74,-156.56 259.56,-152.58 254.93,-147.33"/>
<text text-anchor="middle" x="290.34" y="-120.64" font-family="Times,serif" font-size="14.00">a</text>
</g>
<!-- http://purl.org/oseg/ontologies/OTRL#OTRL&#45;4 -->
<g id="node16" class="node">
<title>http://purl.org/oseg/ontologies/OTRL#OTRL&#45;4</title>
<ellipse fill="none" stroke="#e377c2" cx="430.4" cy="-122.57" rx="49.49" ry="16.03"/>
<text text-anchor="middle" x="430.4" y="-118.87" font-family="Times,serif" font-size="14.00">OTRL&#45;4</text>
</g>
<!-- http://purl.org/oseg/ontologies/OTRL#OTRL&#45;4&#45;&gt;http://purl.org/oseg/ontologies/OTRL#OTRL -->
<g id="edge20" class="edge">
<title>http://purl.org/oseg/ontologies/OTRL#OTRL&#45;4&#45;&gt;http://purl.org/oseg/ontologies/OTRL#OTRL</title>
<path fill="none" stroke="black" d="M419.73,-138.51C414.59,-146.2 408.31,-155.58 402.59,-164.12"/>
<polygon fill="black" stroke="black" points="399.56,-162.37 396.9,-172.62 405.37,-166.26 399.56,-162.37"/>
</g>
<!-- http://purl.org/oseg/ontologies/OTRL#OTRL&#45;4&#45;&gt;http://www.w3.org/2002/07/owl#class -->
<g id="edge7" class="edge">
<title>http://purl.org/oseg/ontologies/OTRL#OTRL&#45;4&#45;&gt;http://www.w3.org/2002/07/owl#class</title>
<path fill="none" stroke="black" d="M390.7,-132.51C360.35,-140.11 318.21,-150.67 284.96,-158.99"/>
<polygon fill="black" stroke="black" points="283.8,-155.67 274.95,-161.5 285.5,-162.47 283.8,-155.67"/>
<text text-anchor="middle" x="333.33" y="-149.55" font-family="Times,serif" font-size="14.00">a</text>
</g>
<!-- http://purl.org/oseg/ontologies/OTRL#ODRL&#45;4 -->
<g id="node17" class="node">
<title>http://purl.org/oseg/ontologies/OTRL#ODRL&#45;4</title>
<ellipse fill="none" stroke="#e377c2" cx="50.5" cy="-114.65" rx="50.82" ry="16.03"/>
<text text-anchor="middle" x="50.5" y="-110.95" font-family="Times,serif" font-size="14.00">ODRL&#45;4</text>
</g>
<!-- http://purl.org/oseg/ontologies/OTRL#ODRL&#45;4&#45;&gt;http://purl.org/oseg/ontologies/OTRL#ODRL -->
<g id="edge12" class="edge">
<title>http://purl.org/oseg/ontologies/OTRL#ODRL&#45;4&#45;&gt;http://purl.org/oseg/ontologies/OTRL#ODRL</title>
<path fill="none" stroke="black" d="M57.75,-130.97C59.26,-134.36 60.88,-138.01 62.5,-141.64"/>
<polygon fill="black" stroke="black" points="59.4,-143.29 66.66,-151.01 65.8,-140.45 59.4,-143.29"/>
</g>
<!-- http://purl.org/oseg/ontologies/OTRL#ODRL&#45;4&#45;&gt;http://www.w3.org/2002/07/owl#class -->
<g id="edge23" class="edge">
<title>http://purl.org/oseg/ontologies/OTRL#ODRL&#45;4&#45;&gt;http://www.w3.org/2002/07/owl#class</title>
<path fill="none" stroke="black" d="M86.77,-126.18C114.66,-135.04 153.45,-147.36 183.91,-157.04"/>
<polygon fill="black" stroke="black" points="182.9,-160.39 193.49,-160.08 185.01,-153.72 182.9,-160.39"/>
<text text-anchor="middle" x="130.84" y="-145.41" font-family="Times,serif" font-size="14.00">a</text>
</g>
<!-- http://purl.org/oseg/ontologies/OTRL#OTRL&#45;3 -->
<g id="node18" class="node">
<title>http://purl.org/oseg/ontologies/OTRL#OTRL&#45;3</title>
<ellipse fill="none" stroke="#e377c2" cx="414.81" cy="-242" rx="49.49" ry="16.03"/>
<text text-anchor="middle" x="414.81" y="-238.3" font-family="Times,serif" font-size="14.00">OTRL&#45;3</text>
</g>
<!-- http://purl.org/oseg/ontologies/OTRL#OTRL&#45;3&#45;&gt;http://purl.org/oseg/ontologies/OTRL#OTRL -->
<g id="edge9" class="edge">
<title>http://purl.org/oseg/ontologies/OTRL#OTRL&#45;3&#45;&gt;http://purl.org/oseg/ontologies/OTRL#OTRL</title>
<path fill="none" stroke="black" d="M406.27,-225.92C404.18,-222 401.9,-217.71 399.66,-213.48"/>
<polygon fill="black" stroke="black" points="402.65,-211.67 394.87,-204.48 396.47,-214.95 402.65,-211.67"/>
</g>
<!-- http://purl.org/oseg/ontologies/OTRL#OTRL&#45;3&#45;&gt;http://www.w3.org/2002/07/owl#class -->
<g id="edge25" class="edge">
<title>http://purl.org/oseg/ontologies/OTRL#OTRL&#45;3&#45;&gt;http://www.w3.org/2002/07/owl#class</title>
<path fill="none" stroke="black" d="M382.11,-229.54C352.49,-218.25 308.62,-201.53 275.93,-189.07"/>
<polygon fill="black" stroke="black" points="276.76,-185.64 266.17,-185.35 274.26,-192.18 276.76,-185.64"/>
<text text-anchor="middle" x="324.52" y="-213.1" font-family="Times,serif" font-size="14.00">a</text>
</g>
</g>
</svg>
