<?xml version="1.0" encoding="UTF-8" standalone="no"?>
<!DOCTYPE svg PUBLIC "-//W3C//DTD SVG 1.1//EN"
 "http://www.w3.org/Graphics/SVG/1.1/DTD/svg11.dtd">
<!-- Generated by graphviz version 2.43.0 (0)
 -->
<!-- Title: G Pages: 1 -->
<svg width="600pt" height="383pt"
 viewBox="0.00 0.00 600.00 383.00" xmlns="http://www.w3.org/2000/svg" xmlns:xlink="http://www.w3.org/1999/xlink">
<g id="graph0" class="graph" transform="scale(1 1) rotate(0) translate(4 379)">
<title>G</title>
<polygon fill="white" stroke="transparent" points="-4,4 -4,-379 596,-379 596,4 -4,4"/>
<!-- http://www.w3.org/2002/07/owl#class -->
<g id="node1" class="node">
<title>http://www.w3.org/2002/07/owl#class</title>
<ellipse fill="none" stroke="#1f77b4" cx="223.5" cy="-176.75" rx="57.05" ry="16.03"/>
<text text-anchor="middle" x="223.5" y="-173.05" font-family="Times,serif" font-size="14.00">owl:class</text>
</g>
<!-- http://purl.org/oseg/ontologies/OTRL#ODRL -->
<g id="node2" class="node">
<title>http://purl.org/oseg/ontologies/OTRL#ODRL</title>
<ellipse fill="none" stroke="#e377c2" cx="404.46" cy="-111.65" rx="41.94" ry="16.03"/>
<text text-anchor="middle" x="404.46" y="-107.95" font-family="Times,serif" font-size="14.00">ODRL</text>
</g>
<!-- http://purl.org/oseg/ontologies/OTRL#OTRL -->
<g id="node3" class="node">
<title>http://purl.org/oseg/ontologies/OTRL#OTRL</title>
<ellipse fill="none" stroke="#e377c2" cx="117.16" cy="-186.09" rx="39.7" ry="16.03"/>
<text text-anchor="middle" x="117.16" y="-182.39" font-family="Times,serif" font-size="14.00">OTRL</text>
</g>
<!-- http://purl.org/oseg/ontologies/OTRL#OTRL&#45;&gt;http://www.w3.org/2002/07/owl#class -->
<g id="edge4" class="edge">
<title>http://purl.org/oseg/ontologies/OTRL#OTRL&#45;&gt;http://www.w3.org/2002/07/owl#class</title>
<path fill="none" stroke="black" d="M156.15,-182.67C156.91,-182.6 157.67,-182.53 158.43,-182.47"/>
<polygon fill="black" stroke="black" points="158.84,-185.94 168.5,-181.58 158.23,-178.97 158.84,-185.94"/>
<text text-anchor="middle" x="161.79" y="-186.37" font-family="Times,serif" font-size="14.00">a</text>
</g>
<!-- http://purl.org/oseg/ontologies/OTRL#Odrl -->
<g id="node4" class="node">
<title>http://purl.org/oseg/ontologies/OTRL#Odrl</title>
<ellipse fill="none" stroke="#e377c2" cx="78.99" cy="-62.23" rx="33.88" ry="16.03"/>
<text text-anchor="middle" x="78.99" y="-58.53" font-family="Times,serif" font-size="14.00">Odrl</text>
</g>
<!-- http://purl.org/oseg/ontologies/OTRL#Odrl&#45;&gt;http://www.w3.org/2002/07/owl#class -->
<g id="edge14" class="edge">
<title>http://purl.org/oseg/ontologies/OTRL#Odrl&#45;&gt;http://www.w3.org/2002/07/owl#class</title>
<path fill="none" stroke="black" d="M96.71,-76.27C121.41,-95.84 166.42,-131.52 195.63,-154.67"/>
<polygon fill="black" stroke="black" points="193.77,-157.66 203.79,-161.13 198.12,-152.17 193.77,-157.66"/>
<text text-anchor="middle" x="141.67" y="-119.27" font-family="Times,serif" font-size="14.00">a</text>
</g>
<!-- http://www.w3.org/1999/02/22&#45;rdf&#45;syntax&#45;ns#nil -->
<g id="node5" class="node">
<title>http://www.w3.org/1999/02/22&#45;rdf&#45;syntax&#45;ns#nil</title>
<ellipse fill="none" stroke="#e377c2" cx="442.24" cy="-16.64" rx="42.35" ry="16.03"/>
<text text-anchor="middle" x="442.24" y="-12.94" font-family="Times,serif" font-size="14.00">rdf:nil</text>
</g>
<!-- http://purl.org/oseg/ontologies/OTRL#Odrl1 -->
<g id="node6" class="node">
<title>http://purl.org/oseg/ontologies/OTRL#Odrl1</title>
<ellipse fill="none" stroke="#e377c2" cx="399.97" cy="-160.22" rx="40.11" ry="16.03"/>
<text text-anchor="middle" x="399.97" y="-156.52" font-family="Times,serif" font-size="14.00">Odrl1</text>
</g>
<!-- http://purl.org/oseg/ontologies/OTRL#Odrl1&#45;&gt;http://www.w3.org/2002/07/owl#class -->
<g id="edge1" class="edge">
<title>http://purl.org/oseg/ontologies/OTRL#Odrl1&#45;&gt;http://www.w3.org/2002/07/owl#class</title>
<path fill="none" stroke="black" d="M360.37,-163.93C339.12,-165.92 312.39,-168.42 288.21,-170.69"/>
<polygon fill="black" stroke="black" points="287.66,-167.23 278.03,-171.64 288.31,-174.2 287.66,-167.23"/>
<text text-anchor="middle" x="319.79" y="-171.11" font-family="Times,serif" font-size="14.00">a</text>
</g>
<!-- http://purl.org/oseg/ontologies/OTRL#Odrl1&#45;&gt;http://purl.org/oseg/ontologies/OTRL#ODRL -->
<g id="edge10" class="edge">
<title>http://purl.org/oseg/ontologies/OTRL#Odrl1&#45;&gt;http://purl.org/oseg/ontologies/OTRL#ODRL</title>
<path fill="none" stroke="black" d="M401.49,-143.78C401.65,-142.03 401.82,-140.23 401.99,-138.41"/>
<polygon fill="black" stroke="black" points="405.51,-138.35 402.94,-128.07 398.54,-137.71 405.51,-138.35"/>
</g>
<!-- http://purl.org/oseg/ontologies/OTRL#Otrl3 -->
<g id="node7" class="node">
<title>http://purl.org/oseg/ontologies/OTRL#Otrl3</title>
<ellipse fill="none" stroke="#e377c2" cx="45.63" cy="-244.89" rx="38.37" ry="16.03"/>
<text text-anchor="middle" x="45.63" y="-241.19" font-family="Times,serif" font-size="14.00">Otrl3</text>
</g>
<!-- http://purl.org/oseg/ontologies/OTRL#Otrl3&#45;&gt;http://www.w3.org/2002/07/owl#class -->
<g id="edge11" class="edge">
<title>http://purl.org/oseg/ontologies/OTRL#Otrl3&#45;&gt;http://www.w3.org/2002/07/owl#class</title>
<path fill="none" stroke="black" d="M74.21,-233.94C102.72,-223.02 146.9,-206.09 179.82,-193.49"/>
<polygon fill="black" stroke="black" points="181.12,-196.73 189.21,-189.89 178.62,-190.2 181.12,-196.73"/>
<text text-anchor="middle" x="122.51" y="-217.51" font-family="Times,serif" font-size="14.00">a</text>
</g>
<!-- http://purl.org/oseg/ontologies/OTRL#Otrl3&#45;&gt;http://purl.org/oseg/ontologies/OTRL#OTRL -->
<g id="edge21" class="edge">
<title>http://purl.org/oseg/ontologies/OTRL#Otrl3&#45;&gt;http://purl.org/oseg/ontologies/OTRL#OTRL</title>
<path fill="none" stroke="black" d="M63.31,-230.35C71.76,-223.41 82.03,-214.96 91.33,-207.32"/>
<polygon fill="black" stroke="black" points="93.68,-209.92 99.19,-200.87 89.24,-204.51 93.68,-209.92"/>
</g>
<!-- http://purl.org/oseg/ontologies/OTRL#exitCriteria -->
<g id="node8" class="node">
<title>http://purl.org/oseg/ontologies/OTRL#exitCriteria</title>
<ellipse fill="none" stroke="#e377c2" cx="430.49" cy="-359.16" rx="70.01" ry="16.03"/>
<text text-anchor="middle" x="430.49" y="-355.46" font-family="Times,serif" font-size="14.00">exitCriteria</text>
</g>
<!-- http://schema.org/Text -->
<g id="node11" class="node">
<title>http://schema.org/Text</title>
<ellipse fill="none" stroke="#e377c2" cx="496.92" cy="-316.12" rx="74.91" ry="16.03"/>
<text text-anchor="middle" x="496.92" y="-312.42" font-family="Times,serif" font-size="14.00">schema:Text</text>
</g>
<!-- http://purl.org/oseg/ontologies/OTRL#exitCriteria&#45;&gt;http://schema.org/Text -->
<g id="edge16" class="edge">
<title>http://purl.org/oseg/ontologies/OTRL#exitCriteria&#45;&gt;http://schema.org/Text</title>
<path fill="none" stroke="black" d="M454.47,-343.62C457.63,-341.57 460.91,-339.45 464.19,-337.33"/>
<polygon fill="black" stroke="black" points="466.26,-340.15 472.75,-331.78 462.45,-334.28 466.26,-340.15"/>
<text text-anchor="middle" x="438.33" y="-329.27" font-family="Times,serif" font-size="14.00">range</text>
</g>
<!-- http://purl.org/oseg/ontologies/OTRL#Odrl4 -->
<g id="node9" class="node">
<title>http://purl.org/oseg/ontologies/OTRL#Odrl4</title>
<ellipse fill="none" stroke="#e377c2" cx="303.21" cy="-230.48" rx="40.11" ry="16.03"/>
<text text-anchor="middle" x="303.21" y="-226.78" font-family="Times,serif" font-size="14.00">Odrl4</text>
</g>
<!-- http://purl.org/oseg/ontologies/OTRL#Odrl4&#45;&gt;http://www.w3.org/2002/07/owl#class -->
<g id="edge2" class="edge">
<title>http://purl.org/oseg/ontologies/OTRL#Odrl4&#45;&gt;http://www.w3.org/2002/07/owl#class</title>
<path fill="none" stroke="black" d="M282.27,-216.37C273.72,-210.61 263.67,-203.83 254.31,-197.52"/>
<polygon fill="black" stroke="black" points="256.23,-194.59 245.98,-191.9 252.32,-200.4 256.23,-194.59"/>
<text text-anchor="middle" x="263.79" y="-195.74" font-family="Times,serif" font-size="14.00">a</text>
</g>
<!-- http://purl.org/oseg/ontologies/OTRL#Odrl4&#45;&gt;http://purl.org/oseg/ontologies/OTRL#ODRL -->
<g id="edge5" class="edge">
<title>http://purl.org/oseg/ontologies/OTRL#Odrl4&#45;&gt;http://purl.org/oseg/ontologies/OTRL#ODRL</title>
<path fill="none" stroke="black" d="M316.45,-214.95C333.81,-194.57 364.41,-158.65 384.57,-135"/>
<polygon fill="black" stroke="black" points="387.4,-137.07 391.22,-127.19 382.07,-132.53 387.4,-137.07"/>
</g>
<!-- http://purl.org/oseg/ontologies/OTRL#goal -->
<g id="node10" class="node">
<title>http://purl.org/oseg/ontologies/OTRL#goal</title>
<ellipse fill="none" stroke="#e377c2" cx="559.09" cy="-356.84" rx="33.47" ry="16.03"/>
<text text-anchor="middle" x="559.09" y="-353.14" font-family="Times,serif" font-size="14.00">goal</text>
</g>
<!-- http://purl.org/oseg/ontologies/OTRL#goal&#45;&gt;http://schema.org/Text -->
<g id="edge24" class="edge">
<title>http://purl.org/oseg/ontologies/OTRL#goal&#45;&gt;http://schema.org/Text</title>
<path fill="none" stroke="black" d="M539.08,-343.73C535.98,-341.71 532.72,-339.57 529.44,-337.42"/>
<polygon fill="black" stroke="black" points="531.09,-334.32 520.8,-331.76 527.25,-340.17 531.09,-334.32"/>
<text text-anchor="middle" x="555.26" y="-329.38" font-family="Times,serif" font-size="14.00">range</text>
</g>
<!-- http://purl.org/oseg/ontologies/OTRL#Odrl3Star -->
<g id="node12" class="node">
<title>http://purl.org/oseg/ontologies/OTRL#Odrl3Star</title>
<ellipse fill="none" stroke="#e377c2" cx="397.42" cy="-69.96" rx="62.45" ry="16.03"/>
<text text-anchor="middle" x="397.42" y="-66.26" font-family="Times,serif" font-size="14.00">Odrl3Star</text>
</g>
<!-- http://purl.org/oseg/ontologies/OTRL#Odrl3Star&#45;&gt;http://www.w3.org/2002/07/owl#class -->
<g id="edge3" class="edge">
<title>http://purl.org/oseg/ontologies/OTRL#Odrl3Star&#45;&gt;http://www.w3.org/2002/07/owl#class</title>
<path fill="none" stroke="black" d="M372.87,-85.04C342.36,-103.77 290.18,-135.81 256.27,-156.63"/>
<polygon fill="black" stroke="black" points="254.34,-153.71 247.65,-161.93 258,-159.68 254.34,-153.71"/>
<text text-anchor="middle" x="310.07" y="-124.63" font-family="Times,serif" font-size="14.00">a</text>
</g>
<!-- http://purl.org/oseg/ontologies/OTRL#Odrl3Star&#45;&gt;http://purl.org/oseg/ontologies/OTRL#ODRL -->
<g id="edge17" class="edge">
<title>http://purl.org/oseg/ontologies/OTRL#Odrl3Star&#45;&gt;http://purl.org/oseg/ontologies/OTRL#ODRL</title>
<path fill="none" stroke="black" d="M400.21,-86.44C400.22,-86.53 400.24,-86.62 400.25,-86.71"/>
<polygon fill="black" stroke="black" points="396.58,-86.01 401.7,-95.29 403.49,-84.85 396.58,-86.01"/>
</g>
<!-- http://purl.org/oseg/ontologies/OTRL#Odrl3 -->
<g id="node13" class="node">
<title>http://purl.org/oseg/ontologies/OTRL#Odrl3</title>
<ellipse fill="none" stroke="#e377c2" cx="277.09" cy="-69.61" rx="40.11" ry="16.03"/>
<text text-anchor="middle" x="277.09" y="-65.91" font-family="Times,serif" font-size="14.00">Odrl3</text>
</g>
<!-- http://purl.org/oseg/ontologies/OTRL#Odrl3&#45;&gt;http://www.w3.org/2002/07/owl#class -->
<g id="edge19" class="edge">
<title>http://purl.org/oseg/ontologies/OTRL#Odrl3&#45;&gt;http://www.w3.org/2002/07/owl#class</title>
<path fill="none" stroke="black" d="M268.95,-85.88C260.25,-103.27 246.36,-131.05 236.22,-151.33"/>
<polygon fill="black" stroke="black" points="233.06,-149.82 231.72,-160.33 239.32,-152.95 233.06,-149.82"/>
<text text-anchor="middle" x="248.08" y="-122.4" font-family="Times,serif" font-size="14.00">a</text>
</g>
<!-- http://purl.org/oseg/ontologies/OTRL#Odrl3&#45;&gt;http://purl.org/oseg/ontologies/OTRL#ODRL -->
<g id="edge22" class="edge">
<title>http://purl.org/oseg/ontologies/OTRL#Odrl3&#45;&gt;http://purl.org/oseg/ontologies/OTRL#ODRL</title>
<path fill="none" stroke="black" d="M308.57,-80C324.98,-85.41 345.26,-92.11 362.94,-97.94"/>
<polygon fill="black" stroke="black" points="361.86,-101.27 372.45,-101.08 364.05,-94.62 361.86,-101.27"/>
</g>
<!-- http://purl.org/oseg/ontologies/OTRL#Otrl -->
<g id="node14" class="node">
<title>http://purl.org/oseg/ontologies/OTRL#Otrl</title>
<ellipse fill="none" stroke="#e377c2" cx="292.24" cy="-296.64" rx="31.64" ry="16.03"/>
<text text-anchor="middle" x="292.24" y="-292.94" font-family="Times,serif" font-size="14.00">Otrl</text>
</g>
<!-- http://purl.org/oseg/ontologies/OTRL#Otrl5 -->
<g id="node15" class="node">
<title>http://purl.org/oseg/ontologies/OTRL#Otrl5</title>
<ellipse fill="none" stroke="#e377c2" cx="173.79" cy="-36.11" rx="38.37" ry="16.03"/>
<text text-anchor="middle" x="173.79" y="-32.41" font-family="Times,serif" font-size="14.00">Otrl5</text>
</g>
<!-- http://purl.org/oseg/ontologies/OTRL#Otrl5&#45;&gt;http://www.w3.org/2002/07/owl#class -->
<g id="edge6" class="edge">
<title>http://purl.org/oseg/ontologies/OTRL#Otrl5&#45;&gt;http://www.w3.org/2002/07/owl#class</title>
<path fill="none" stroke="black" d="M179.5,-52.25C187.99,-76.28 204.06,-121.74 214.25,-150.57"/>
<polygon fill="black" stroke="black" points="211.08,-152.11 217.71,-160.37 217.68,-149.78 211.08,-152.11"/>
<text text-anchor="middle" x="192.37" y="-105.21" font-family="Times,serif" font-size="14.00">a</text>
</g>
<!-- http://purl.org/oseg/ontologies/OTRL#Otrl5&#45;&gt;http://purl.org/oseg/ontologies/OTRL#OTRL -->
<g id="edge12" class="edge">
<title>http://purl.org/oseg/ontologies/OTRL#Otrl5&#45;&gt;http://purl.org/oseg/ontologies/OTRL#OTRL</title>
<path fill="none" stroke="black" d="M167.63,-52.45C157.84,-78.37 138.66,-129.14 126.98,-160.1"/>
<polygon fill="black" stroke="black" points="123.58,-159.18 123.32,-169.78 130.13,-161.66 123.58,-159.18"/>
</g>
<!-- http://purl.org/oseg/ontologies/OTRL -->
<g id="node16" class="node">
<title>http://purl.org/oseg/ontologies/OTRL</title>
<ellipse fill="none" stroke="#e377c2" cx="301.24" cy="-16.64" rx="60.62" ry="16.03"/>
<text text-anchor="middle" x="301.24" y="-12.94" font-family="Times,serif" font-size="14.00">ns1:OTRL</text>
</g>
<!-- http://purl.org/oseg/ontologies/OTRL&#45;&gt;http://purl.org/oseg/ontologies/OTRL -->
<g id="edge20" class="edge">
<title>http://purl.org/oseg/ontologies/OTRL&#45;&gt;http://purl.org/oseg/ontologies/OTRL</title>
<path fill="none" stroke="black" d="M356.84,-23.27C370.17,-22.75 380.05,-20.54 380.05,-16.64 380.05,-13.81 374.83,-11.86 366.87,-10.81"/>
<polygon fill="black" stroke="black" points="367.09,-7.32 356.84,-10.01 366.53,-14.3 367.09,-7.32"/>
<text text-anchor="middle" x="431.55" y="-12.94" font-family="Times,serif" font-size="14.00">owl:versionIRI</text>
</g>
<!-- http://purl.org/oseg/ontologies/OTRL#Otrl2 -->
<g id="node17" class="node">
<title>http://purl.org/oseg/ontologies/OTRL#Otrl2</title>
<ellipse fill="none" stroke="#e377c2" cx="98.04" cy="-307.9" rx="38.37" ry="16.03"/>
<text text-anchor="middle" x="98.04" y="-304.2" font-family="Times,serif" font-size="14.00">Otrl2</text>
</g>
<!-- http://purl.org/oseg/ontologies/OTRL#Otrl2&#45;&gt;http://www.w3.org/2002/07/owl#class -->
<g id="edge8" class="edge">
<title>http://purl.org/oseg/ontologies/OTRL#Otrl2&#45;&gt;http://www.w3.org/2002/07/owl#class</title>
<path fill="none" stroke="black" d="M112.68,-292.6C134.44,-269.84 175.52,-226.91 201.09,-200.18"/>
<polygon fill="black" stroke="black" points="203.79,-202.42 208.17,-192.77 198.73,-197.58 203.79,-202.42"/>
<text text-anchor="middle" x="152.38" y="-250.19" font-family="Times,serif" font-size="14.00">a</text>
</g>
<!-- http://purl.org/oseg/ontologies/OTRL#Otrl2&#45;&gt;http://purl.org/oseg/ontologies/OTRL#OTRL -->
<g id="edge13" class="edge">
<title>http://purl.org/oseg/ontologies/OTRL#Otrl2&#45;&gt;http://purl.org/oseg/ontologies/OTRL#OTRL</title>
<path fill="none" stroke="black" d="M100.62,-291.47C103.8,-271.22 109.24,-236.54 113.01,-212.53"/>
<polygon fill="black" stroke="black" points="116.47,-213.07 114.56,-202.65 109.55,-211.98 116.47,-213.07"/>
</g>
<!-- http://purl.org/oseg/ontologies/OTRL#Otrl4 -->
<g id="node18" class="node">
<title>http://purl.org/oseg/ontologies/OTRL#Otrl4</title>
<ellipse fill="none" stroke="#e377c2" cx="38.09" cy="-133.23" rx="38.37" ry="16.03"/>
<text text-anchor="middle" x="38.09" y="-129.53" font-family="Times,serif" font-size="14.00">Otrl4</text>
</g>
<!-- http://purl.org/oseg/ontologies/OTRL#Otrl4&#45;&gt;http://www.w3.org/2002/07/owl#class -->
<g id="edge9" class="edge">
<title>http://purl.org/oseg/ontologies/OTRL#Otrl4&#45;&gt;http://www.w3.org/2002/07/owl#class</title>
<path fill="none" stroke="black" d="M71.67,-141.11C98.88,-147.5 137.76,-156.62 169.36,-164.04"/>
<polygon fill="black" stroke="black" points="168.81,-167.51 179.34,-166.39 170.41,-160.69 168.81,-167.51"/>
<text text-anchor="middle" x="116.01" y="-156.38" font-family="Times,serif" font-size="14.00">a</text>
</g>
<!-- http://purl.org/oseg/ontologies/OTRL#Otrl4&#45;&gt;http://purl.org/oseg/ontologies/OTRL#OTRL -->
<g id="edge18" class="edge">
<title>http://purl.org/oseg/ontologies/OTRL#Otrl4&#45;&gt;http://purl.org/oseg/ontologies/OTRL#OTRL</title>
<path fill="none" stroke="black" d="M58.86,-147.12C67.69,-153.02 78.15,-160.01 87.75,-166.43"/>
<polygon fill="black" stroke="black" points="85.99,-169.46 96.25,-172.11 89.88,-163.64 85.99,-169.46"/>
</g>
<!-- http://purl.org/oseg/ontologies/OTRL#Otrl1 -->
<g id="node19" class="node">
<title>http://purl.org/oseg/ontologies/OTRL#Otrl1</title>
<ellipse fill="none" stroke="#e377c2" cx="188.76" cy="-323.04" rx="38.37" ry="16.03"/>
<text text-anchor="middle" x="188.76" y="-319.34" font-family="Times,serif" font-size="14.00">Otrl1</text>
</g>
<!-- http://purl.org/oseg/ontologies/OTRL#Otrl1&#45;&gt;http://www.w3.org/2002/07/owl#class -->
<g id="edge23" class="edge">
<title>http://purl.org/oseg/ontologies/OTRL#Otrl1&#45;&gt;http://www.w3.org/2002/07/owl#class</title>
<path fill="none" stroke="black" d="M192.61,-306.83C198.58,-281.67 210.14,-233.01 217.3,-202.86"/>
<polygon fill="black" stroke="black" points="220.73,-203.58 219.63,-193.04 213.92,-201.96 220.73,-203.58"/>
<text text-anchor="middle" x="200.45" y="-258.64" font-family="Times,serif" font-size="14.00">a</text>
</g>
<!-- http://purl.org/oseg/ontologies/OTRL#Otrl1&#45;&gt;http://purl.org/oseg/ontologies/OTRL#OTRL -->
<g id="edge7" class="edge">
<title>http://purl.org/oseg/ontologies/OTRL#Otrl1&#45;&gt;http://purl.org/oseg/ontologies/OTRL#OTRL</title>
<path fill="none" stroke="black" d="M180.41,-307.06C168.13,-283.58 145.1,-239.52 130.47,-211.55"/>
<polygon fill="black" stroke="black" points="133.42,-209.63 125.68,-202.39 127.21,-212.88 133.42,-209.63"/>
</g>
<!-- http://purl.org/oseg/ontologies/OTRL#Odrl2 -->
<g id="node20" class="node">
<title>http://purl.org/oseg/ontologies/OTRL#Odrl2</title>
<ellipse fill="none" stroke="#e377c2" cx="399.75" cy="-253.68" rx="40.11" ry="16.03"/>
<text text-anchor="middle" x="399.75" y="-249.98" font-family="Times,serif" font-size="14.00">Odrl2</text>
</g>
<!-- http://purl.org/oseg/ontologies/OTRL#Odrl2&#45;&gt;http://www.w3.org/2002/07/owl#class -->
<g id="edge25" class="edge">
<title>http://purl.org/oseg/ontologies/OTRL#Odrl2&#45;&gt;http://www.w3.org/2002/07/owl#class</title>
<path fill="none" stroke="black" d="M372.21,-241.66C343.31,-229.04 297.55,-209.07 264.42,-194.61"/>
<polygon fill="black" stroke="black" points="265.58,-191.3 255.01,-190.5 262.78,-197.71 265.58,-191.3"/>
<text text-anchor="middle" x="313.82" y="-206.94" font-family="Times,serif" font-size="14.00">a</text>
</g>
<!-- http://purl.org/oseg/ontologies/OTRL#Odrl2&#45;&gt;http://purl.org/oseg/ontologies/OTRL#ODRL -->
<g id="edge15" class="edge">
<title>http://purl.org/oseg/ontologies/OTRL#Odrl2&#45;&gt;http://purl.org/oseg/ontologies/OTRL#ODRL</title>
<path fill="none" stroke="black" d="M400.29,-237.39C401.09,-213.22 402.6,-167.61 403.57,-138.47"/>
<polygon fill="black" stroke="black" points="407.08,-138.3 403.91,-128.19 400.08,-138.06 407.08,-138.3"/>
</g>
</g>
</svg>
