<?xml version="1.0" encoding="UTF-8" standalone="no"?>
<!DOCTYPE svg PUBLIC "-//W3C//DTD SVG 1.1//EN"
 "http://www.w3.org/Graphics/SVG/1.1/DTD/svg11.dtd">
<!-- Generated by graphviz version 2.43.0 (0)
 -->
<!-- Title: G Pages: 1 -->
<svg width="650pt" height="420pt"
 viewBox="0.00 0.00 650.05 420.00" xmlns="http://www.w3.org/2000/svg" xmlns:xlink="http://www.w3.org/1999/xlink">
<g id="graph0" class="graph" transform="scale(1 1) rotate(0) translate(4 416)">
<title>G</title>
<polygon fill="white" stroke="transparent" points="-4,4 -4,-416 646.05,-416 646.05,4 -4,4"/>
<!-- http://purl.org/oseg/ontologies/OTRL#ODRL -->
<g id="node1" class="node">
<title>http://purl.org/oseg/ontologies/OTRL#ODRL</title>
<ellipse fill="none" stroke="#e377c2" cx="113.91" cy="-189.49" rx="41.94" ry="16.03"/>
<text text-anchor="middle" x="113.91" y="-185.79" font-family="Times,serif" font-size="14.00">ODRL</text>
</g>
<!-- http://www.w3.org/2002/07/owl#class -->
<g id="node2" class="node">
<title>http://www.w3.org/2002/07/owl#class</title>
<ellipse fill="none" stroke="#1f77b4" cx="231.53" cy="-171.94" rx="57.05" ry="16.03"/>
<text text-anchor="middle" x="231.53" y="-168.24" font-family="Times,serif" font-size="14.00">owl:class</text>
</g>
<!-- http://purl.org/oseg/ontologies/OTRL#OTRL -->
<g id="node3" class="node">
<title>http://purl.org/oseg/ontologies/OTRL#OTRL</title>
<ellipse fill="none" stroke="#e377c2" cx="353.44" cy="-145.03" rx="39.7" ry="16.03"/>
<text text-anchor="middle" x="353.44" y="-141.33" font-family="Times,serif" font-size="14.00">OTRL</text>
</g>
<!-- http://purl.org/oseg/ontologies/OTRL#OTRL&#45;&gt;http://www.w3.org/2002/07/owl#class -->
<g id="edge16" class="edge">
<title>http://purl.org/oseg/ontologies/OTRL#OTRL&#45;&gt;http://www.w3.org/2002/07/owl#class</title>
<path fill="none" stroke="black" d="M318.51,-152.74C308.59,-154.93 297.55,-157.37 286.75,-159.75"/>
<polygon fill="black" stroke="black" points="285.95,-156.34 276.94,-161.91 287.46,-163.18 285.95,-156.34"/>
<text text-anchor="middle" x="298.13" y="-160.05" font-family="Times,serif" font-size="14.00">a</text>
</g>
<!-- http://purl.org/oseg/ontologies/OTRL#Otrl -->
<g id="node4" class="node">
<title>http://purl.org/oseg/ontologies/OTRL#Otrl</title>
<ellipse fill="none" stroke="#e377c2" cx="179.24" cy="-394.64" rx="31.64" ry="16.03"/>
<text text-anchor="middle" x="179.24" y="-390.94" font-family="Times,serif" font-size="14.00">Otrl</text>
</g>
<!-- http://purl.org/oseg/ontologies/OTRL -->
<g id="node5" class="node">
<title>http://purl.org/oseg/ontologies/OTRL</title>
<ellipse fill="none" stroke="#e377c2" cx="460.24" cy="-37.64" rx="60.62" ry="16.03"/>
<text text-anchor="middle" x="460.24" y="-33.94" font-family="Times,serif" font-size="14.00">ns1:OTRL</text>
</g>
<!-- http://purl.org/oseg/ontologies/OTRL&#45;&gt;http://purl.org/oseg/ontologies/OTRL -->
<g id="edge2" class="edge">
<title>http://purl.org/oseg/ontologies/OTRL&#45;&gt;http://purl.org/oseg/ontologies/OTRL</title>
<path fill="none" stroke="black" d="M515.84,-44.27C529.17,-43.75 539.05,-41.54 539.05,-37.64 539.05,-34.81 533.83,-32.86 525.87,-31.81"/>
<polygon fill="black" stroke="black" points="526.09,-28.32 515.84,-31.01 525.53,-35.3 526.09,-28.32"/>
<text text-anchor="middle" x="590.55" y="-33.94" font-family="Times,serif" font-size="14.00">owl:versionIRI</text>
</g>
<!-- http://purl.org/oseg/ontologies/OTRL#exitCriteria -->
<g id="node6" class="node">
<title>http://purl.org/oseg/ontologies/OTRL#exitCriteria</title>
<ellipse fill="none" stroke="#e377c2" cx="406.23" cy="-395.69" rx="70.01" ry="16.03"/>
<text text-anchor="middle" x="406.23" y="-391.99" font-family="Times,serif" font-size="14.00">exitCriteria</text>
</g>
<!-- http://schema.org/Text -->
<g id="node15" class="node">
<title>http://schema.org/Text</title>
<ellipse fill="none" stroke="#e377c2" cx="452.9" cy="-354.45" rx="74.91" ry="16.03"/>
<text text-anchor="middle" x="452.9" y="-350.75" font-family="Times,serif" font-size="14.00">schema:Text</text>
</g>
<!-- http://purl.org/oseg/ontologies/OTRL#exitCriteria&#45;&gt;http://schema.org/Text -->
<g id="edge9" class="edge">
<title>http://purl.org/oseg/ontologies/OTRL#exitCriteria&#45;&gt;http://schema.org/Text</title>
<path fill="none" stroke="black" d="M424.14,-379.86C425.12,-378.99 426.12,-378.11 427.12,-377.23"/>
<polygon fill="black" stroke="black" points="429.63,-379.68 434.81,-370.44 424.99,-374.44 429.63,-379.68"/>
<text text-anchor="middle" x="404.63" y="-367.34" font-family="Times,serif" font-size="14.00">range</text>
</g>
<!-- http://www.w3.org/1999/02/22&#45;rdf&#45;syntax&#45;ns#nil -->
<g id="node7" class="node">
<title>http://www.w3.org/1999/02/22&#45;rdf&#45;syntax&#45;ns#nil</title>
<ellipse fill="none" stroke="#e377c2" cx="462.24" cy="-163.64" rx="42.35" ry="16.03"/>
<text text-anchor="middle" x="462.24" y="-159.94" font-family="Times,serif" font-size="14.00">rdf:nil</text>
</g>
<!-- http://purl.org/oseg/ontologies/OTRL#Odrl -->
<g id="node8" class="node">
<title>http://purl.org/oseg/ontologies/OTRL#Odrl</title>
<ellipse fill="none" stroke="#e377c2" cx="274.77" cy="-346.95" rx="33.88" ry="16.03"/>
<text text-anchor="middle" x="274.77" y="-343.25" font-family="Times,serif" font-size="14.00">Odrl</text>
</g>
<!-- http://purl.org/oseg/ontologies/OTRL#Odrl&#45;&gt;http://www.w3.org/2002/07/owl#class -->
<g id="edge5" class="edge">
<title>http://purl.org/oseg/ontologies/OTRL#Odrl&#45;&gt;http://www.w3.org/2002/07/owl#class</title>
<path fill="none" stroke="black" d="M270.78,-330.8C263.3,-300.53 247.11,-235.02 238.04,-198.28"/>
<polygon fill="black" stroke="black" points="241.37,-197.17 235.57,-188.3 234.57,-198.85 241.37,-197.17"/>
<text text-anchor="middle" x="249.91" y="-268.34" font-family="Times,serif" font-size="14.00">a</text>
</g>
<!-- http://purl.org/oseg/ontologies/OTRL#Otrl2 -->
<g id="node9" class="node">
<title>http://purl.org/oseg/ontologies/OTRL#Otrl2</title>
<ellipse fill="none" stroke="#e377c2" cx="319.13" cy="-272.41" rx="38.37" ry="16.03"/>
<text text-anchor="middle" x="319.13" y="-268.71" font-family="Times,serif" font-size="14.00">Otrl2</text>
</g>
<!-- http://purl.org/oseg/ontologies/OTRL#Otrl2&#45;&gt;http://www.w3.org/2002/07/owl#class -->
<g id="edge3" class="edge">
<title>http://purl.org/oseg/ontologies/OTRL#Otrl2&#45;&gt;http://www.w3.org/2002/07/owl#class</title>
<path fill="none" stroke="black" d="M305.83,-257.15C291.59,-240.82 268.81,-214.69 252.23,-195.67"/>
<polygon fill="black" stroke="black" points="254.75,-193.24 245.54,-188 249.47,-197.84 254.75,-193.24"/>
<text text-anchor="middle" x="274.53" y="-230.21" font-family="Times,serif" font-size="14.00">a</text>
</g>
<!-- http://purl.org/oseg/ontologies/OTRL#Otrl2&#45;&gt;http://purl.org/oseg/ontologies/OTRL#OTRL -->
<g id="edge23" class="edge">
<title>http://purl.org/oseg/ontologies/OTRL#Otrl2&#45;&gt;http://purl.org/oseg/ontologies/OTRL#OTRL</title>
<path fill="none" stroke="black" d="M323.55,-256.02C329.34,-234.52 339.56,-196.56 346.42,-171.1"/>
<polygon fill="black" stroke="black" points="349.82,-171.93 349.04,-161.36 343.06,-170.11 349.82,-171.93"/>
</g>
<!-- http://purl.org/oseg/ontologies/OTRL#Odrl4 -->
<g id="node10" class="node">
<title>http://purl.org/oseg/ontologies/OTRL#Odrl4</title>
<ellipse fill="none" stroke="#e377c2" cx="75.74" cy="-257.84" rx="40.11" ry="16.03"/>
<text text-anchor="middle" x="75.74" y="-254.14" font-family="Times,serif" font-size="14.00">Odrl4</text>
</g>
<!-- http://purl.org/oseg/ontologies/OTRL#Odrl4&#45;&gt;http://purl.org/oseg/ontologies/OTRL#ODRL -->
<g id="edge17" class="edge">
<title>http://purl.org/oseg/ontologies/OTRL#Odrl4&#45;&gt;http://purl.org/oseg/ontologies/OTRL#ODRL</title>
<path fill="none" stroke="black" d="M84.79,-241.64C89.3,-233.56 94.87,-223.59 99.92,-214.55"/>
<polygon fill="black" stroke="black" points="103.11,-216.01 104.93,-205.57 97,-212.6 103.11,-216.01"/>
</g>
<!-- http://purl.org/oseg/ontologies/OTRL#Odrl4&#45;&gt;http://www.w3.org/2002/07/owl#class -->
<g id="edge18" class="edge">
<title>http://purl.org/oseg/ontologies/OTRL#Odrl4&#45;&gt;http://www.w3.org/2002/07/owl#class</title>
<path fill="none" stroke="black" d="M99.74,-244.61C125.47,-230.42 166.57,-207.76 196.03,-191.51"/>
<polygon fill="black" stroke="black" points="198.09,-194.37 205.16,-186.48 194.71,-188.24 198.09,-194.37"/>
<text text-anchor="middle" x="143.39" y="-221.86" font-family="Times,serif" font-size="14.00">a</text>
</g>
<!-- http://purl.org/oseg/ontologies/OTRL#Odrl3 -->
<g id="node11" class="node">
<title>http://purl.org/oseg/ontologies/OTRL#Odrl3</title>
<ellipse fill="none" stroke="#e377c2" cx="100.67" cy="-62.54" rx="40.11" ry="16.03"/>
<text text-anchor="middle" x="100.67" y="-58.84" font-family="Times,serif" font-size="14.00">Odrl3</text>
</g>
<!-- http://purl.org/oseg/ontologies/OTRL#Odrl3&#45;&gt;http://purl.org/oseg/ontologies/OTRL#ODRL -->
<g id="edge25" class="edge">
<title>http://purl.org/oseg/ontologies/OTRL#Odrl3&#45;&gt;http://purl.org/oseg/ontologies/OTRL#ODRL</title>
<path fill="none" stroke="black" d="M102.37,-78.88C104.6,-100.2 108.52,-137.8 111.16,-163.17"/>
<polygon fill="black" stroke="black" points="107.69,-163.63 112.21,-173.22 114.65,-162.91 107.69,-163.63"/>
</g>
<!-- http://purl.org/oseg/ontologies/OTRL#Odrl3&#45;&gt;http://www.w3.org/2002/07/owl#class -->
<g id="edge6" class="edge">
<title>http://purl.org/oseg/ontologies/OTRL#Odrl3&#45;&gt;http://www.w3.org/2002/07/owl#class</title>
<path fill="none" stroke="black" d="M118.32,-77.29C140.6,-95.92 179.15,-128.14 204.99,-149.75"/>
<polygon fill="black" stroke="black" points="202.98,-152.63 212.89,-156.36 207.47,-147.26 202.98,-152.63"/>
<text text-anchor="middle" x="157.15" y="-117.32" font-family="Times,serif" font-size="14.00">a</text>
</g>
<!-- http://purl.org/oseg/ontologies/OTRL#Odrl3Star -->
<g id="node12" class="node">
<title>http://purl.org/oseg/ontologies/OTRL#Odrl3Star</title>
<ellipse fill="none" stroke="#e377c2" cx="243.02" cy="-121.74" rx="62.45" ry="16.03"/>
<text text-anchor="middle" x="243.02" y="-118.04" font-family="Times,serif" font-size="14.00">Odrl3Star</text>
</g>
<!-- http://purl.org/oseg/ontologies/OTRL#Odrl3Star&#45;&gt;http://purl.org/oseg/ontologies/OTRL#ODRL -->
<g id="edge1" class="edge">
<title>http://purl.org/oseg/ontologies/OTRL#Odrl3Star&#45;&gt;http://purl.org/oseg/ontologies/OTRL#ODRL</title>
<path fill="none" stroke="black" d="M215.01,-136.44C195.24,-146.81 168.65,-160.76 147.7,-171.76"/>
<polygon fill="black" stroke="black" points="146.04,-168.67 138.82,-176.42 149.3,-174.87 146.04,-168.67"/>
</g>
<!-- http://purl.org/oseg/ontologies/OTRL#Odrl3Star&#45;&gt;http://www.w3.org/2002/07/owl#class -->
<g id="edge7" class="edge">
<title>http://purl.org/oseg/ontologies/OTRL#Odrl3Star&#45;&gt;http://www.w3.org/2002/07/owl#class</title>
<path fill="none" stroke="black" d="M239.26,-138.17C238.7,-140.63 238.11,-143.2 237.51,-145.8"/>
<polygon fill="black" stroke="black" points="234.08,-145.1 235.26,-155.63 240.9,-146.67 234.08,-145.1"/>
<text text-anchor="middle" x="233.89" y="-145.79" font-family="Times,serif" font-size="14.00">a</text>
</g>
<!-- http://purl.org/oseg/ontologies/OTRL#Odrl1 -->
<g id="node13" class="node">
<title>http://purl.org/oseg/ontologies/OTRL#Odrl1</title>
<ellipse fill="none" stroke="#e377c2" cx="40.15" cy="-143.35" rx="40.11" ry="16.03"/>
<text text-anchor="middle" x="40.15" y="-139.65" font-family="Times,serif" font-size="14.00">Odrl1</text>
</g>
<!-- http://purl.org/oseg/ontologies/OTRL#Odrl1&#45;&gt;http://purl.org/oseg/ontologies/OTRL#ODRL -->
<g id="edge15" class="edge">
<title>http://purl.org/oseg/ontologies/OTRL#Odrl1&#45;&gt;http://purl.org/oseg/ontologies/OTRL#ODRL</title>
<path fill="none" stroke="black" d="M62.28,-157.19C68.84,-161.3 76.15,-165.87 83.16,-170.25"/>
<polygon fill="black" stroke="black" points="81.46,-173.32 91.79,-175.65 85.17,-167.38 81.46,-173.32"/>
</g>
<!-- http://purl.org/oseg/ontologies/OTRL#Odrl1&#45;&gt;http://www.w3.org/2002/07/owl#class -->
<g id="edge20" class="edge">
<title>http://purl.org/oseg/ontologies/OTRL#Odrl1&#45;&gt;http://www.w3.org/2002/07/owl#class</title>
<path fill="none" stroke="black" d="M77.96,-148.99C104.38,-152.94 140.24,-158.3 170.66,-162.84"/>
<polygon fill="black" stroke="black" points="170.34,-166.33 180.75,-164.35 171.38,-159.41 170.34,-166.33"/>
<text text-anchor="middle" x="119.81" y="-159.72" font-family="Times,serif" font-size="14.00">a</text>
</g>
<!-- http://purl.org/oseg/ontologies/OTRL#Otrl5 -->
<g id="node14" class="node">
<title>http://purl.org/oseg/ontologies/OTRL#Otrl5</title>
<ellipse fill="none" stroke="#e377c2" cx="231.57" cy="-47.16" rx="38.37" ry="16.03"/>
<text text-anchor="middle" x="231.57" y="-43.46" font-family="Times,serif" font-size="14.00">Otrl5</text>
</g>
<!-- http://purl.org/oseg/ontologies/OTRL#Otrl5&#45;&gt;http://www.w3.org/2002/07/owl#class -->
<g id="edge8" class="edge">
<title>http://purl.org/oseg/ontologies/OTRL#Otrl5&#45;&gt;http://www.w3.org/2002/07/owl#class</title>
<path fill="none" stroke="black" d="M231.56,-63.47C231.56,-84.3 231.55,-120.62 231.54,-145.44"/>
<polygon fill="black" stroke="black" points="228.04,-145.62 231.53,-155.62 235.04,-145.62 228.04,-145.62"/>
<text text-anchor="middle" x="227.05" y="-93.26" font-family="Times,serif" font-size="14.00">a</text>
</g>
<!-- http://purl.org/oseg/ontologies/OTRL#Otrl5&#45;&gt;http://purl.org/oseg/ontologies/OTRL#OTRL -->
<g id="edge22" class="edge">
<title>http://purl.org/oseg/ontologies/OTRL#Otrl5&#45;&gt;http://purl.org/oseg/ontologies/OTRL#OTRL</title>
<path fill="none" stroke="black" d="M249.55,-61.6C270.16,-78.16 304.12,-105.42 327.57,-124.26"/>
<polygon fill="black" stroke="black" points="325.4,-127 335.39,-130.53 329.78,-121.54 325.4,-127"/>
</g>
<!-- http://purl.org/oseg/ontologies/OTRL#Otrl4 -->
<g id="node16" class="node">
<title>http://purl.org/oseg/ontologies/OTRL#Otrl4</title>
<ellipse fill="none" stroke="#e377c2" cx="330.48" cy="-16.17" rx="38.37" ry="16.03"/>
<text text-anchor="middle" x="330.48" y="-12.47" font-family="Times,serif" font-size="14.00">Otrl4</text>
</g>
<!-- http://purl.org/oseg/ontologies/OTRL#Otrl4&#45;&gt;http://www.w3.org/2002/07/owl#class -->
<g id="edge10" class="edge">
<title>http://purl.org/oseg/ontologies/OTRL#Otrl4&#45;&gt;http://www.w3.org/2002/07/owl#class</title>
<path fill="none" stroke="black" d="M320.45,-31.97C303.2,-59.11 267.81,-114.82 247.26,-147.17"/>
<polygon fill="black" stroke="black" points="244.29,-145.32 241.88,-155.63 250.2,-149.07 244.29,-145.32"/>
<text text-anchor="middle" x="279.35" y="-93.37" font-family="Times,serif" font-size="14.00">a</text>
</g>
<!-- http://purl.org/oseg/ontologies/OTRL#Otrl4&#45;&gt;http://purl.org/oseg/ontologies/OTRL#OTRL -->
<g id="edge14" class="edge">
<title>http://purl.org/oseg/ontologies/OTRL#Otrl4&#45;&gt;http://purl.org/oseg/ontologies/OTRL#OTRL</title>
<path fill="none" stroke="black" d="M333.39,-32.49C337.25,-54.16 344.12,-92.69 348.72,-118.55"/>
<polygon fill="black" stroke="black" points="345.29,-119.21 350.49,-128.44 352.18,-117.98 345.29,-119.21"/>
</g>
<!-- http://purl.org/oseg/ontologies/OTRL#goal -->
<g id="node17" class="node">
<title>http://purl.org/oseg/ontologies/OTRL#goal</title>
<ellipse fill="none" stroke="#e377c2" cx="460.78" cy="-310.5" rx="33.47" ry="16.03"/>
<text text-anchor="middle" x="460.78" y="-306.8" font-family="Times,serif" font-size="14.00">goal</text>
</g>
<!-- http://purl.org/oseg/ontologies/OTRL#goal&#45;&gt;http://schema.org/Text -->
<g id="edge11" class="edge">
<title>http://purl.org/oseg/ontologies/OTRL#goal&#45;&gt;http://schema.org/Text</title>
<path fill="none" stroke="black" d="M457.84,-326.87C457.78,-327.21 457.72,-327.55 457.66,-327.89"/>
<polygon fill="black" stroke="black" points="454.18,-327.46 455.86,-337.93 461.07,-328.7 454.18,-327.46"/>
<text text-anchor="middle" x="436.75" y="-331.18" font-family="Times,serif" font-size="14.00">range</text>
</g>
<!-- http://purl.org/oseg/ontologies/OTRL#Odrl2 -->
<g id="node18" class="node">
<title>http://purl.org/oseg/ontologies/OTRL#Odrl2</title>
<ellipse fill="none" stroke="#e377c2" cx="141.91" cy="-318.61" rx="40.11" ry="16.03"/>
<text text-anchor="middle" x="141.91" y="-314.91" font-family="Times,serif" font-size="14.00">Odrl2</text>
</g>
<!-- http://purl.org/oseg/ontologies/OTRL#Odrl2&#45;&gt;http://purl.org/oseg/ontologies/OTRL#ODRL -->
<g id="edge13" class="edge">
<title>http://purl.org/oseg/ontologies/OTRL#Odrl2&#45;&gt;http://purl.org/oseg/ontologies/OTRL#ODRL</title>
<path fill="none" stroke="black" d="M138.36,-302.26C133.63,-280.43 125.19,-241.52 119.57,-215.6"/>
<polygon fill="black" stroke="black" points="122.97,-214.74 117.43,-205.71 116.12,-216.22 122.97,-214.74"/>
</g>
<!-- http://purl.org/oseg/ontologies/OTRL#Odrl2&#45;&gt;http://www.w3.org/2002/07/owl#class -->
<g id="edge12" class="edge">
<title>http://purl.org/oseg/ontologies/OTRL#Odrl2&#45;&gt;http://www.w3.org/2002/07/owl#class</title>
<path fill="none" stroke="black" d="M151.67,-302.64C167.21,-277.2 197.7,-227.29 216.19,-197.05"/>
<polygon fill="black" stroke="black" points="219.28,-198.7 221.51,-188.34 213.3,-195.05 219.28,-198.7"/>
<text text-anchor="middle" x="179.43" y="-253.64" font-family="Times,serif" font-size="14.00">a</text>
</g>
<!-- http://purl.org/oseg/ontologies/OTRL#Otrl1 -->
<g id="node19" class="node">
<title>http://purl.org/oseg/ontologies/OTRL#Otrl1</title>
<ellipse fill="none" stroke="#e377c2" cx="409.49" cy="-96.96" rx="38.37" ry="16.03"/>
<text text-anchor="middle" x="409.49" y="-93.26" font-family="Times,serif" font-size="14.00">Otrl1</text>
</g>
<!-- http://purl.org/oseg/ontologies/OTRL#Otrl1&#45;&gt;http://www.w3.org/2002/07/owl#class -->
<g id="edge24" class="edge">
<title>http://purl.org/oseg/ontologies/OTRL#Otrl1&#45;&gt;http://www.w3.org/2002/07/owl#class</title>
<path fill="none" stroke="black" d="M382.07,-108.51C353.05,-120.74 306.9,-140.18 273.34,-154.32"/>
<polygon fill="black" stroke="black" points="271.66,-151.23 263.8,-158.34 274.38,-157.68 271.66,-151.23"/>
<text text-anchor="middle" x="323.21" y="-120.22" font-family="Times,serif" font-size="14.00">a</text>
</g>
<!-- http://purl.org/oseg/ontologies/OTRL#Otrl1&#45;&gt;http://purl.org/oseg/ontologies/OTRL#OTRL -->
<g id="edge19" class="edge">
<title>http://purl.org/oseg/ontologies/OTRL#Otrl1&#45;&gt;http://purl.org/oseg/ontologies/OTRL#OTRL</title>
<path fill="none" stroke="black" d="M392.37,-111.65C388,-115.4 383.2,-119.51 378.52,-123.52"/>
<polygon fill="black" stroke="black" points="376.16,-120.94 370.84,-130.11 380.71,-126.25 376.16,-120.94"/>
</g>
<!-- http://purl.org/oseg/ontologies/OTRL#Otrl3 -->
<g id="node20" class="node">
<title>http://purl.org/oseg/ontologies/OTRL#Otrl3</title>
<ellipse fill="none" stroke="#e377c2" cx="405.83" cy="-245.88" rx="38.37" ry="16.03"/>
<text text-anchor="middle" x="405.83" y="-242.18" font-family="Times,serif" font-size="14.00">Otrl3</text>
</g>
<!-- http://purl.org/oseg/ontologies/OTRL#Otrl3&#45;&gt;http://www.w3.org/2002/07/owl#class -->
<g id="edge4" class="edge">
<title>http://purl.org/oseg/ontologies/OTRL#Otrl3&#45;&gt;http://www.w3.org/2002/07/owl#class</title>
<path fill="none" stroke="black" d="M378.59,-234.33C350.27,-222.31 305.59,-203.35 272.9,-189.49"/>
<polygon fill="black" stroke="black" points="274.17,-186.22 263.6,-185.54 271.44,-192.67 274.17,-186.22"/>
<text text-anchor="middle" x="321.25" y="-215.71" font-family="Times,serif" font-size="14.00">a</text>
</g>
<!-- http://purl.org/oseg/ontologies/OTRL#Otrl3&#45;&gt;http://purl.org/oseg/ontologies/OTRL#OTRL -->
<g id="edge21" class="edge">
<title>http://purl.org/oseg/ontologies/OTRL#Otrl3&#45;&gt;http://purl.org/oseg/ontologies/OTRL#OTRL</title>
<path fill="none" stroke="black" d="M397.41,-229.68C389.09,-213.65 376.23,-188.9 366.56,-170.29"/>
<polygon fill="black" stroke="black" points="369.55,-168.46 361.84,-161.2 363.34,-171.68 369.55,-168.46"/>
</g>
</g>
</svg>
