<?xml version="1.0" encoding="UTF-8" standalone="no"?>
<!DOCTYPE svg PUBLIC "-//W3C//DTD SVG 1.1//EN"
 "http://www.w3.org/Graphics/SVG/1.1/DTD/svg11.dtd">
<!-- Generated by graphviz version 2.43.0 (0)
 -->
<!-- Title: G Pages: 1 -->
<svg width="647pt" height="456pt"
 viewBox="0.00 0.00 647.05 456.00" xmlns="http://www.w3.org/2000/svg" xmlns:xlink="http://www.w3.org/1999/xlink">
<g id="graph0" class="graph" transform="scale(1 1) rotate(0) translate(4 452)">
<title>G</title>
<polygon fill="white" stroke="transparent" points="-4,4 -4,-452 643.05,-452 643.05,4 -4,4"/>
<!-- http://purl.org/oseg/ontologies/OTRL#ODRL -->
<g id="node1" class="node">
<title>http://purl.org/oseg/ontologies/OTRL#ODRL</title>
<ellipse fill="none" stroke="#e377c2" cx="164.61" cy="-104.45" rx="41.94" ry="16.03"/>
<text text-anchor="middle" x="164.61" y="-100.75" font-family="Times,serif" font-size="14.00">ODRL</text>
</g>
<!-- http://purl.org/oseg/ontologies/OTRL#OTRL -->
<g id="node2" class="node">
<title>http://purl.org/oseg/ontologies/OTRL#OTRL</title>
<ellipse fill="none" stroke="#e377c2" cx="277.87" cy="-246.75" rx="39.7" ry="16.03"/>
<text text-anchor="middle" x="277.87" y="-243.05" font-family="Times,serif" font-size="14.00">OTRL</text>
</g>
<!-- http://www.w3.org/2002/07/owl#class -->
<g id="node3" class="node">
<title>http://www.w3.org/2002/07/owl#class</title>
<ellipse fill="none" stroke="#1f77b4" cx="258.43" cy="-189.93" rx="57.05" ry="16.03"/>
<text text-anchor="middle" x="258.43" y="-186.23" font-family="Times,serif" font-size="14.00">owl:class</text>
</g>
<!-- http://purl.org/oseg/ontologies/OTRL#OTRL&#45;&gt;http://www.w3.org/2002/07/owl#class -->
<g id="edge18" class="edge">
<title>http://purl.org/oseg/ontologies/OTRL#OTRL&#45;&gt;http://www.w3.org/2002/07/owl#class</title>
<path fill="none" stroke="black" d="M272.35,-230.62C270.81,-226.1 269.08,-221.07 267.39,-216.12"/>
<polygon fill="black" stroke="black" points="270.58,-214.63 264.03,-206.3 263.96,-216.89 270.58,-214.63"/>
<text text-anchor="middle" x="265.37" y="-212.17" font-family="Times,serif" font-size="14.00">a</text>
</g>
<!-- http://purl.org/oseg/ontologies/OTRL#Otrl4 -->
<g id="node4" class="node">
<title>http://purl.org/oseg/ontologies/OTRL#Otrl4</title>
<ellipse fill="none" stroke="#e377c2" cx="283.66" cy="-357.81" rx="38.37" ry="16.03"/>
<text text-anchor="middle" x="283.66" y="-354.11" font-family="Times,serif" font-size="14.00">Otrl4</text>
</g>
<!-- http://purl.org/oseg/ontologies/OTRL#Otrl4&#45;&gt;http://purl.org/oseg/ontologies/OTRL#OTRL -->
<g id="edge10" class="edge">
<title>http://purl.org/oseg/ontologies/OTRL#Otrl4&#45;&gt;http://purl.org/oseg/ontologies/OTRL#OTRL</title>
<path fill="none" stroke="black" d="M282.8,-341.43C281.87,-323.54 280.37,-294.65 279.27,-273.47"/>
<polygon fill="black" stroke="black" points="282.75,-273.01 278.73,-263.2 275.76,-273.37 282.75,-273.01"/>
</g>
<!-- http://purl.org/oseg/ontologies/OTRL#Otrl4&#45;&gt;http://www.w3.org/2002/07/owl#class -->
<g id="edge1" class="edge">
<title>http://purl.org/oseg/ontologies/OTRL#Otrl4&#45;&gt;http://www.w3.org/2002/07/owl#class</title>
<path fill="none" stroke="black" d="M281.19,-341.41C276.83,-312.4 267.72,-251.79 262.45,-216.67"/>
<polygon fill="black" stroke="black" points="265.89,-216.02 260.94,-206.65 258.97,-217.06 265.89,-216.02"/>
<text text-anchor="middle" x="267.32" y="-282.84" font-family="Times,serif" font-size="14.00">a</text>
</g>
<!-- http://purl.org/oseg/ontologies/OTRL#Odrl -->
<g id="node5" class="node">
<title>http://purl.org/oseg/ontologies/OTRL#Odrl</title>
<ellipse fill="none" stroke="#e377c2" cx="369.18" cy="-65.93" rx="33.88" ry="16.03"/>
<text text-anchor="middle" x="369.18" y="-62.23" font-family="Times,serif" font-size="14.00">Odrl</text>
</g>
<!-- http://purl.org/oseg/ontologies/OTRL#Odrl&#45;&gt;http://www.w3.org/2002/07/owl#class -->
<g id="edge15" class="edge">
<title>http://purl.org/oseg/ontologies/OTRL#Odrl&#45;&gt;http://www.w3.org/2002/07/owl#class</title>
<path fill="none" stroke="black" d="M355.6,-81.14C336.62,-102.38 302.01,-141.14 279.62,-166.2"/>
<polygon fill="black" stroke="black" points="276.87,-164.03 272.82,-173.82 282.09,-168.69 276.87,-164.03"/>
<text text-anchor="middle" x="313.11" y="-112.47" font-family="Times,serif" font-size="14.00">a</text>
</g>
<!-- http://purl.org/oseg/ontologies/OTRL#Odrl3Star -->
<g id="node6" class="node">
<title>http://purl.org/oseg/ontologies/OTRL#Odrl3Star</title>
<ellipse fill="none" stroke="#e377c2" cx="61.82" cy="-227.49" rx="62.45" ry="16.03"/>
<text text-anchor="middle" x="61.82" y="-223.79" font-family="Times,serif" font-size="14.00">Odrl3Star</text>
</g>
<!-- http://purl.org/oseg/ontologies/OTRL#Odrl3Star&#45;&gt;http://purl.org/oseg/ontologies/OTRL#ODRL -->
<g id="edge14" class="edge">
<title>http://purl.org/oseg/ontologies/OTRL#Odrl3Star&#45;&gt;http://purl.org/oseg/ontologies/OTRL#ODRL</title>
<path fill="none" stroke="black" d="M75.26,-211.41C93.05,-190.1 124.57,-152.38 145.02,-127.9"/>
<polygon fill="black" stroke="black" points="147.77,-130.07 151.49,-120.15 142.39,-125.58 147.77,-130.07"/>
</g>
<!-- http://purl.org/oseg/ontologies/OTRL#Odrl3Star&#45;&gt;http://www.w3.org/2002/07/owl#class -->
<g id="edge16" class="edge">
<title>http://purl.org/oseg/ontologies/OTRL#Odrl3Star&#45;&gt;http://www.w3.org/2002/07/owl#class</title>
<path fill="none" stroke="black" d="M112.2,-217.87C139.25,-212.7 172.72,-206.31 200.81,-200.94"/>
<polygon fill="black" stroke="black" points="201.72,-204.33 210.89,-199.01 200.41,-197.45 201.72,-204.33"/>
<text text-anchor="middle" x="152" y="-213.2" font-family="Times,serif" font-size="14.00">a</text>
</g>
<!-- http://purl.org/oseg/ontologies/OTRL#exitCriteria -->
<g id="node7" class="node">
<title>http://purl.org/oseg/ontologies/OTRL#exitCriteria</title>
<ellipse fill="none" stroke="#e377c2" cx="422.23" cy="-431.69" rx="70.01" ry="16.03"/>
<text text-anchor="middle" x="422.23" y="-427.99" font-family="Times,serif" font-size="14.00">exitCriteria</text>
</g>
<!-- http://schema.org/Text -->
<g id="node15" class="node">
<title>http://schema.org/Text</title>
<ellipse fill="none" stroke="#e377c2" cx="468.9" cy="-390.45" rx="74.91" ry="16.03"/>
<text text-anchor="middle" x="468.9" y="-386.75" font-family="Times,serif" font-size="14.00">schema:Text</text>
</g>
<!-- http://purl.org/oseg/ontologies/OTRL#exitCriteria&#45;&gt;http://schema.org/Text -->
<g id="edge20" class="edge">
<title>http://purl.org/oseg/ontologies/OTRL#exitCriteria&#45;&gt;http://schema.org/Text</title>
<path fill="none" stroke="black" d="M440.14,-415.86C441.12,-414.99 442.12,-414.11 443.12,-413.23"/>
<polygon fill="black" stroke="black" points="445.63,-415.68 450.81,-406.44 440.99,-410.44 445.63,-415.68"/>
<text text-anchor="middle" x="420.63" y="-403.34" font-family="Times,serif" font-size="14.00">range</text>
</g>
<!-- http://purl.org/oseg/ontologies/OTRL#Odrl2 -->
<g id="node8" class="node">
<title>http://purl.org/oseg/ontologies/OTRL#Odrl2</title>
<ellipse fill="none" stroke="#e377c2" cx="86.08" cy="-152.43" rx="40.11" ry="16.03"/>
<text text-anchor="middle" x="86.08" y="-148.73" font-family="Times,serif" font-size="14.00">Odrl2</text>
</g>
<!-- http://purl.org/oseg/ontologies/OTRL#Odrl2&#45;&gt;http://purl.org/oseg/ontologies/OTRL#ODRL -->
<g id="edge22" class="edge">
<title>http://purl.org/oseg/ontologies/OTRL#Odrl2&#45;&gt;http://purl.org/oseg/ontologies/OTRL#ODRL</title>
<path fill="none" stroke="black" d="M108.37,-138.81C116.1,-134.09 124.91,-128.7 133.23,-123.62"/>
<polygon fill="black" stroke="black" points="135.28,-126.47 141.99,-118.27 131.63,-120.5 135.28,-126.47"/>
</g>
<!-- http://purl.org/oseg/ontologies/OTRL#Odrl2&#45;&gt;http://www.w3.org/2002/07/owl#class -->
<g id="edge3" class="edge">
<title>http://purl.org/oseg/ontologies/OTRL#Odrl2&#45;&gt;http://www.w3.org/2002/07/owl#class</title>
<path fill="none" stroke="black" d="M121.79,-160.2C145.22,-165.3 176.34,-172.07 202.96,-177.86"/>
<polygon fill="black" stroke="black" points="202.4,-181.32 212.91,-180.03 203.89,-174.48 202.4,-181.32"/>
<text text-anchor="middle" x="157.87" y="-172.83" font-family="Times,serif" font-size="14.00">a</text>
</g>
<!-- http://www.w3.org/1999/02/22&#45;rdf&#45;syntax&#45;ns#nil -->
<g id="node9" class="node">
<title>http://www.w3.org/1999/02/22&#45;rdf&#45;syntax&#45;ns#nil</title>
<ellipse fill="none" stroke="#e377c2" cx="372.24" cy="-16.64" rx="42.35" ry="16.03"/>
<text text-anchor="middle" x="372.24" y="-12.94" font-family="Times,serif" font-size="14.00">rdf:nil</text>
</g>
<!-- http://purl.org/oseg/ontologies/OTRL -->
<g id="node10" class="node">
<title>http://purl.org/oseg/ontologies/OTRL</title>
<ellipse fill="none" stroke="#e377c2" cx="457.24" cy="-126.64" rx="60.62" ry="16.03"/>
<text text-anchor="middle" x="457.24" y="-122.94" font-family="Times,serif" font-size="14.00">ns1:OTRL</text>
</g>
<!-- http://purl.org/oseg/ontologies/OTRL&#45;&gt;http://purl.org/oseg/ontologies/OTRL -->
<g id="edge13" class="edge">
<title>http://purl.org/oseg/ontologies/OTRL&#45;&gt;http://purl.org/oseg/ontologies/OTRL</title>
<path fill="none" stroke="black" d="M512.84,-133.27C526.17,-132.75 536.05,-130.54 536.05,-126.64 536.05,-123.81 530.83,-121.86 522.87,-120.81"/>
<polygon fill="black" stroke="black" points="523.09,-117.32 512.84,-120.01 522.53,-124.3 523.09,-117.32"/>
<text text-anchor="middle" x="587.55" y="-122.94" font-family="Times,serif" font-size="14.00">owl:versionIRI</text>
</g>
<!-- http://purl.org/oseg/ontologies/OTRL#Odrl4 -->
<g id="node11" class="node">
<title>http://purl.org/oseg/ontologies/OTRL#Odrl4</title>
<ellipse fill="none" stroke="#e377c2" cx="253.67" cy="-16.66" rx="40.11" ry="16.03"/>
<text text-anchor="middle" x="253.67" y="-12.96" font-family="Times,serif" font-size="14.00">Odrl4</text>
</g>
<!-- http://purl.org/oseg/ontologies/OTRL#Odrl4&#45;&gt;http://purl.org/oseg/ontologies/OTRL#ODRL -->
<g id="edge2" class="edge">
<title>http://purl.org/oseg/ontologies/OTRL#Odrl4&#45;&gt;http://purl.org/oseg/ontologies/OTRL#ODRL</title>
<path fill="none" stroke="black" d="M238.15,-31.95C224.19,-45.71 203.49,-66.12 187.6,-81.78"/>
<polygon fill="black" stroke="black" points="184.91,-79.53 180.24,-89.04 189.82,-84.51 184.91,-79.53"/>
</g>
<!-- http://purl.org/oseg/ontologies/OTRL#Odrl4&#45;&gt;http://www.w3.org/2002/07/owl#class -->
<g id="edge4" class="edge">
<title>http://purl.org/oseg/ontologies/OTRL#Odrl4&#45;&gt;http://www.w3.org/2002/07/owl#class</title>
<path fill="none" stroke="black" d="M254.11,-32.96C254.94,-62.89 256.69,-126.86 257.69,-163.22"/>
<polygon fill="black" stroke="black" points="254.2,-163.65 257.98,-173.55 261.2,-163.46 254.2,-163.65"/>
<text text-anchor="middle" x="251.4" y="-101.89" font-family="Times,serif" font-size="14.00">a</text>
</g>
<!-- http://purl.org/oseg/ontologies/OTRL#Otrl5 -->
<g id="node12" class="node">
<title>http://purl.org/oseg/ontologies/OTRL#Otrl5</title>
<ellipse fill="none" stroke="#e377c2" cx="193.27" cy="-344.71" rx="38.37" ry="16.03"/>
<text text-anchor="middle" x="193.27" y="-341.01" font-family="Times,serif" font-size="14.00">Otrl5</text>
</g>
<!-- http://purl.org/oseg/ontologies/OTRL#Otrl5&#45;&gt;http://purl.org/oseg/ontologies/OTRL#OTRL -->
<g id="edge5" class="edge">
<title>http://purl.org/oseg/ontologies/OTRL#Otrl5&#45;&gt;http://purl.org/oseg/ontologies/OTRL#OTRL</title>
<path fill="none" stroke="black" d="M206.49,-329.41C220.19,-313.54 241.78,-288.54 257.64,-270.18"/>
<polygon fill="black" stroke="black" points="260.58,-272.13 264.47,-262.27 255.28,-267.55 260.58,-272.13"/>
</g>
<!-- http://purl.org/oseg/ontologies/OTRL#Otrl5&#45;&gt;http://www.w3.org/2002/07/owl#class -->
<g id="edge17" class="edge">
<title>http://purl.org/oseg/ontologies/OTRL#Otrl5&#45;&gt;http://www.w3.org/2002/07/owl#class</title>
<path fill="none" stroke="black" d="M200.12,-328.44C211.38,-301.69 233.91,-248.18 247.43,-216.06"/>
<polygon fill="black" stroke="black" points="250.82,-217.03 251.47,-206.45 244.37,-214.31 250.82,-217.03"/>
<text text-anchor="middle" x="219.27" y="-276.05" font-family="Times,serif" font-size="14.00">a</text>
</g>
<!-- http://purl.org/oseg/ontologies/OTRL#Otrl -->
<g id="node13" class="node">
<title>http://purl.org/oseg/ontologies/OTRL#Otrl</title>
<ellipse fill="none" stroke="#e377c2" cx="76.24" cy="-390.64" rx="31.64" ry="16.03"/>
<text text-anchor="middle" x="76.24" y="-386.94" font-family="Times,serif" font-size="14.00">Otrl</text>
</g>
<!-- http://purl.org/oseg/ontologies/OTRL#Odrl3 -->
<g id="node14" class="node">
<title>http://purl.org/oseg/ontologies/OTRL#Odrl3</title>
<ellipse fill="none" stroke="#e377c2" cx="152.36" cy="-50.59" rx="40.11" ry="16.03"/>
<text text-anchor="middle" x="152.36" y="-46.89" font-family="Times,serif" font-size="14.00">Odrl3</text>
</g>
<!-- http://purl.org/oseg/ontologies/OTRL#Odrl3&#45;&gt;http://purl.org/oseg/ontologies/OTRL#ODRL -->
<g id="edge23" class="edge">
<title>http://purl.org/oseg/ontologies/OTRL#Odrl3&#45;&gt;http://purl.org/oseg/ontologies/OTRL#ODRL</title>
<path fill="none" stroke="black" d="M156.1,-67.04C156.91,-70.59 157.78,-74.43 158.65,-78.25"/>
<polygon fill="black" stroke="black" points="155.26,-79.12 160.89,-88.1 162.08,-77.57 155.26,-79.12"/>
</g>
<!-- http://purl.org/oseg/ontologies/OTRL#Odrl3&#45;&gt;http://www.w3.org/2002/07/owl#class -->
<g id="edge8" class="edge">
<title>http://purl.org/oseg/ontologies/OTRL#Odrl3&#45;&gt;http://www.w3.org/2002/07/owl#class</title>
<path fill="none" stroke="black" d="M164.32,-66.3C182.68,-90.42 217.97,-136.79 239.73,-165.37"/>
<polygon fill="black" stroke="black" points="237.18,-167.79 246.02,-173.63 242.75,-163.55 237.18,-167.79"/>
<text text-anchor="middle" x="206.53" y="-119.64" font-family="Times,serif" font-size="14.00">a</text>
</g>
<!-- http://purl.org/oseg/ontologies/OTRL#Otrl2 -->
<g id="node16" class="node">
<title>http://purl.org/oseg/ontologies/OTRL#Otrl2</title>
<ellipse fill="none" stroke="#e377c2" cx="407.84" cy="-173.71" rx="38.37" ry="16.03"/>
<text text-anchor="middle" x="407.84" y="-170.01" font-family="Times,serif" font-size="14.00">Otrl2</text>
</g>
<!-- http://purl.org/oseg/ontologies/OTRL#Otrl2&#45;&gt;http://purl.org/oseg/ontologies/OTRL#OTRL -->
<g id="edge12" class="edge">
<title>http://purl.org/oseg/ontologies/OTRL#Otrl2&#45;&gt;http://purl.org/oseg/ontologies/OTRL#OTRL</title>
<path fill="none" stroke="black" d="M384.6,-186.77C363.85,-198.43 333.24,-215.63 310.12,-228.63"/>
<polygon fill="black" stroke="black" points="308.35,-225.61 301.35,-233.56 311.78,-231.71 308.35,-225.61"/>
</g>
<!-- http://purl.org/oseg/ontologies/OTRL#Otrl2&#45;&gt;http://www.w3.org/2002/07/owl#class -->
<g id="edge9" class="edge">
<title>http://purl.org/oseg/ontologies/OTRL#Otrl2&#45;&gt;http://www.w3.org/2002/07/owl#class</title>
<path fill="none" stroke="black" d="M370.52,-177.76C355.92,-179.35 338.75,-181.21 322.3,-183"/>
<polygon fill="black" stroke="black" points="321.74,-179.54 312.17,-184.1 322.49,-186.5 321.74,-179.54"/>
<text text-anchor="middle" x="341.91" y="-184.18" font-family="Times,serif" font-size="14.00">a</text>
</g>
<!-- http://purl.org/oseg/ontologies/OTRL#Otrl3 -->
<g id="node17" class="node">
<title>http://purl.org/oseg/ontologies/OTRL#Otrl3</title>
<ellipse fill="none" stroke="#e377c2" cx="142.13" cy="-289.72" rx="38.37" ry="16.03"/>
<text text-anchor="middle" x="142.13" y="-286.02" font-family="Times,serif" font-size="14.00">Otrl3</text>
</g>
<!-- http://purl.org/oseg/ontologies/OTRL#Otrl3&#45;&gt;http://purl.org/oseg/ontologies/OTRL#OTRL -->
<g id="edge11" class="edge">
<title>http://purl.org/oseg/ontologies/OTRL#Otrl3&#45;&gt;http://purl.org/oseg/ontologies/OTRL#OTRL</title>
<path fill="none" stroke="black" d="M172.93,-279.97C191.75,-274.01 216.06,-266.31 236.55,-259.83"/>
<polygon fill="black" stroke="black" points="237.77,-263.11 246.25,-256.76 235.66,-256.44 237.77,-263.11"/>
</g>
<!-- http://purl.org/oseg/ontologies/OTRL#Otrl3&#45;&gt;http://www.w3.org/2002/07/owl#class -->
<g id="edge21" class="edge">
<title>http://purl.org/oseg/ontologies/OTRL#Otrl3&#45;&gt;http://www.w3.org/2002/07/owl#class</title>
<path fill="none" stroke="black" d="M159.29,-274.99C178.65,-258.38 210.34,-231.19 232.67,-212.03"/>
<polygon fill="black" stroke="black" points="235.12,-214.54 240.43,-205.37 230.56,-209.23 235.12,-214.54"/>
<text text-anchor="middle" x="191.48" y="-247.31" font-family="Times,serif" font-size="14.00">a</text>
</g>
<!-- http://purl.org/oseg/ontologies/OTRL#goal -->
<g id="node18" class="node">
<title>http://purl.org/oseg/ontologies/OTRL#goal</title>
<ellipse fill="none" stroke="#e377c2" cx="476.78" cy="-346.5" rx="33.47" ry="16.03"/>
<text text-anchor="middle" x="476.78" y="-342.8" font-family="Times,serif" font-size="14.00">goal</text>
</g>
<!-- http://purl.org/oseg/ontologies/OTRL#goal&#45;&gt;http://schema.org/Text -->
<g id="edge24" class="edge">
<title>http://purl.org/oseg/ontologies/OTRL#goal&#45;&gt;http://schema.org/Text</title>
<path fill="none" stroke="black" d="M473.84,-362.87C473.78,-363.21 473.72,-363.55 473.66,-363.89"/>
<polygon fill="black" stroke="black" points="470.18,-363.46 471.86,-373.93 477.07,-364.7 470.18,-363.46"/>
<text text-anchor="middle" x="452.75" y="-367.18" font-family="Times,serif" font-size="14.00">range</text>
</g>
<!-- http://purl.org/oseg/ontologies/OTRL#Odrl1 -->
<g id="node19" class="node">
<title>http://purl.org/oseg/ontologies/OTRL#Odrl1</title>
<ellipse fill="none" stroke="#e377c2" cx="271.08" cy="-143.54" rx="40.11" ry="16.03"/>
<text text-anchor="middle" x="271.08" y="-139.84" font-family="Times,serif" font-size="14.00">Odrl1</text>
</g>
<!-- http://purl.org/oseg/ontologies/OTRL#Odrl1&#45;&gt;http://purl.org/oseg/ontologies/OTRL#ODRL -->
<g id="edge19" class="edge">
<title>http://purl.org/oseg/ontologies/OTRL#Odrl1&#45;&gt;http://purl.org/oseg/ontologies/OTRL#ODRL</title>
<path fill="none" stroke="black" d="M241.14,-132.55C229.78,-128.38 216.66,-123.56 204.53,-119.11"/>
<polygon fill="black" stroke="black" points="205.66,-115.79 195.06,-115.63 203.24,-122.36 205.66,-115.79"/>
</g>
<!-- http://purl.org/oseg/ontologies/OTRL#Odrl1&#45;&gt;http://www.w3.org/2002/07/owl#class -->
<g id="edge25" class="edge">
<title>http://purl.org/oseg/ontologies/OTRL#Odrl1&#45;&gt;http://www.w3.org/2002/07/owl#class</title>
<path fill="none" stroke="black" d="M266.65,-159.76C266.31,-161.03 265.96,-162.32 265.6,-163.63"/>
<polygon fill="black" stroke="black" points="262.13,-163.07 262.87,-173.64 268.88,-164.91 262.13,-163.07"/>
<text text-anchor="middle" x="261.63" y="-165.5" font-family="Times,serif" font-size="14.00">a</text>
</g>
<!-- http://purl.org/oseg/ontologies/OTRL#Otrl1 -->
<g id="node20" class="node">
<title>http://purl.org/oseg/ontologies/OTRL#Otrl1</title>
<ellipse fill="none" stroke="#e377c2" cx="408.6" cy="-249.05" rx="38.37" ry="16.03"/>
<text text-anchor="middle" x="408.6" y="-245.35" font-family="Times,serif" font-size="14.00">Otrl1</text>
</g>
<!-- http://purl.org/oseg/ontologies/OTRL#Otrl1&#45;&gt;http://purl.org/oseg/ontologies/OTRL#OTRL -->
<g id="edge7" class="edge">
<title>http://purl.org/oseg/ontologies/OTRL#Otrl1&#45;&gt;http://purl.org/oseg/ontologies/OTRL#OTRL</title>
<path fill="none" stroke="black" d="M370.44,-248.38C357.1,-248.15 341.92,-247.88 327.76,-247.63"/>
<polygon fill="black" stroke="black" points="327.74,-244.13 317.68,-247.45 327.61,-251.13 327.74,-244.13"/>
</g>
<!-- http://purl.org/oseg/ontologies/OTRL#Otrl1&#45;&gt;http://www.w3.org/2002/07/owl#class -->
<g id="edge26" class="edge">
<title>http://purl.org/oseg/ontologies/OTRL#Otrl1&#45;&gt;http://www.w3.org/2002/07/owl#class</title>
<path fill="none" stroke="black" d="M380.36,-237.93C358.13,-229.18 326.79,-216.84 301.45,-206.87"/>
<polygon fill="black" stroke="black" points="302.65,-203.58 292.06,-203.17 300.08,-210.09 302.65,-203.58"/>
<text text-anchor="middle" x="336.4" y="-226.2" font-family="Times,serif" font-size="14.00">a</text>
</g>
<!-- http://purl.org/oseg/ontologies/OTRL#Otrl6 -->
<g id="node21" class="node">
<title>http://purl.org/oseg/ontologies/OTRL#Otrl6</title>
<ellipse fill="none" stroke="#e377c2" cx="370.99" cy="-310.24" rx="38.37" ry="16.03"/>
<text text-anchor="middle" x="370.99" y="-306.54" font-family="Times,serif" font-size="14.00">Otrl6</text>
</g>
<!-- http://purl.org/oseg/ontologies/OTRL#Otrl6&#45;&gt;http://purl.org/oseg/ontologies/OTRL#OTRL -->
<g id="edge6" class="edge">
<title>http://purl.org/oseg/ontologies/OTRL#Otrl6&#45;&gt;http://purl.org/oseg/ontologies/OTRL#OTRL</title>
<path fill="none" stroke="black" d="M350.33,-296.15C337.55,-287.44 320.95,-276.12 306.87,-266.52"/>
<polygon fill="black" stroke="black" points="308.72,-263.54 298.48,-260.8 304.77,-269.33 308.72,-263.54"/>
</g>
<!-- http://purl.org/oseg/ontologies/OTRL#Otrl6&#45;&gt;http://www.w3.org/2002/07/owl#class -->
<g id="edge27" class="edge">
<title>http://purl.org/oseg/ontologies/OTRL#Otrl6&#45;&gt;http://www.w3.org/2002/07/owl#class</title>
<path fill="none" stroke="black" d="M356.74,-295C337.41,-274.35 302.73,-237.28 280.15,-213.15"/>
<polygon fill="black" stroke="black" points="282.67,-210.72 273.28,-205.81 277.56,-215.5 282.67,-210.72"/>
<text text-anchor="middle" x="322.95" y="-257.88" font-family="Times,serif" font-size="14.00">a</text>
</g>
</g>
</svg>
