<?xml version="1.0" encoding="UTF-8" standalone="no"?>
<!DOCTYPE svg PUBLIC "-//W3C//DTD SVG 1.1//EN"
 "http://www.w3.org/Graphics/SVG/1.1/DTD/svg11.dtd">
<!-- Generated by graphviz version 2.43.0 (0)
 -->
<!-- Title: G Pages: 1 -->
<svg width="908pt" height="1075pt"
 viewBox="0.00 0.00 908.05 1075.00" xmlns="http://www.w3.org/2000/svg" xmlns:xlink="http://www.w3.org/1999/xlink">
<g id="graph0" class="graph" transform="scale(1 1) rotate(0) translate(4 1071)">
<title>G</title>
<polygon fill="white" stroke="transparent" points="-4,4 -4,-1071 904.05,-1071 904.05,4 -4,4"/>
<!-- http://purl.org/oseg/ontologies/OTRL#ODRL -->
<g id="node1" class="node">
<title>http://purl.org/oseg/ontologies/OTRL#ODRL</title>
<ellipse fill="none" stroke="#e377c2" cx="222.3" cy="-130.56" rx="41.94" ry="16.03"/>
<text text-anchor="middle" x="222.3" y="-126.86" font-family="Times,serif" font-size="14.00">ODRL</text>
</g>
<!-- http://www.w3.org/2002/07/owl#class -->
<g id="node3" class="node">
<title>http://www.w3.org/2002/07/owl#class</title>
<ellipse fill="none" stroke="#1f77b4" cx="304.85" cy="-311.02" rx="57.05" ry="16.03"/>
<text text-anchor="middle" x="304.85" y="-307.32" font-family="Times,serif" font-size="14.00">owl:class</text>
</g>
<!-- http://purl.org/oseg/ontologies/OTRL#ODRL&#45;&gt;http://www.w3.org/2002/07/owl#class -->
<g id="edge3" class="edge">
<title>http://purl.org/oseg/ontologies/OTRL#ODRL&#45;&gt;http://www.w3.org/2002/07/owl#class</title>
<path fill="none" stroke="black" d="M229.62,-146.57C243.97,-177.93 275.87,-247.66 293.16,-285.46"/>
<polygon fill="black" stroke="black" points="290.08,-287.15 297.42,-294.78 296.45,-284.24 290.08,-287.15"/>
<text text-anchor="middle" x="256.89" y="-219.82" font-family="Times,serif" font-size="14.00">a</text>
</g>
<!-- http://purl.org/oseg/ontologies/OTRL#OTRL -->
<g id="node2" class="node">
<title>http://purl.org/oseg/ontologies/OTRL#OTRL</title>
<ellipse fill="none" stroke="#e377c2" cx="423.99" cy="-570.13" rx="39.7" ry="16.03"/>
<text text-anchor="middle" x="423.99" y="-566.43" font-family="Times,serif" font-size="14.00">OTRL</text>
</g>
<!-- http://purl.org/oseg/ontologies/OTRL#OTRL&#45;&gt;http://www.w3.org/2002/07/owl#class -->
<g id="edge19" class="edge">
<title>http://purl.org/oseg/ontologies/OTRL#OTRL&#45;&gt;http://www.w3.org/2002/07/owl#class</title>
<path fill="none" stroke="black" d="M416.54,-553.92C396.44,-510.21 340.99,-389.61 316.61,-336.6"/>
<polygon fill="black" stroke="black" points="319.66,-334.85 312.3,-327.23 313.3,-337.77 319.66,-334.85"/>
<text text-anchor="middle" x="362.08" y="-449.06" font-family="Times,serif" font-size="14.00">a</text>
</g>
<!-- http://schema.org/Text -->
<g id="node4" class="node">
<title>http://schema.org/Text</title>
<ellipse fill="none" stroke="#e377c2" cx="651.67" cy="-1050.93" rx="74.91" ry="16.03"/>
<text text-anchor="middle" x="651.67" y="-1047.23" font-family="Times,serif" font-size="14.00">schema:Text</text>
</g>
<!-- http://purl.org/oseg/ontologies/OTRL#softwareDescription -->
<g id="node5" class="node">
<title>http://purl.org/oseg/ontologies/OTRL#softwareDescription</title>
<ellipse fill="none" stroke="#e377c2" cx="376.92" cy="-918.23" rx="113.69" ry="16.03"/>
<text text-anchor="middle" x="376.92" y="-914.53" font-family="Times,serif" font-size="14.00">softwareDescription</text>
</g>
<!-- http://purl.org/oseg/ontologies/OTRL#softwareDescription&#45;&gt;http://purl.org/oseg/ontologies/OTRL#OTRL -->
<g id="edge5" class="edge">
<title>http://purl.org/oseg/ontologies/OTRL#softwareDescription&#45;&gt;http://purl.org/oseg/ontologies/OTRL#OTRL</title>
<path fill="none" stroke="black" d="M379.13,-901.91C386.63,-846.41 411.21,-664.64 420.45,-596.36"/>
<polygon fill="black" stroke="black" points="423.92,-596.8 421.79,-586.42 416.98,-595.86 423.92,-596.8"/>
<text text-anchor="middle" x="373.29" y="-752.94" font-family="Times,serif" font-size="14.00">domain</text>
</g>
<!-- http://purl.org/oseg/ontologies/OTRL#softwareDescription&#45;&gt;http://schema.org/Text -->
<g id="edge22" class="edge">
<title>http://purl.org/oseg/ontologies/OTRL#softwareDescription&#45;&gt;http://schema.org/Text</title>
<path fill="none" stroke="black" d="M409.24,-933.85C459.66,-958.2 556.91,-1005.17 611.68,-1031.61"/>
<polygon fill="black" stroke="black" points="610.21,-1034.79 620.74,-1035.99 613.25,-1028.49 610.21,-1034.79"/>
<text text-anchor="middle" x="489.46" y="-986.53" font-family="Times,serif" font-size="14.00">range</text>
</g>
<!-- http://purl.org/oseg/ontologies/OTRL#OTRL&#45;5 -->
<g id="node6" class="node">
<title>http://purl.org/oseg/ontologies/OTRL#OTRL&#45;5</title>
<ellipse fill="none" stroke="#e377c2" cx="517.32" cy="-339.68" rx="49.49" ry="16.03"/>
<text text-anchor="middle" x="517.32" y="-335.98" font-family="Times,serif" font-size="14.00">OTRL&#45;5</text>
</g>
<!-- http://purl.org/oseg/ontologies/OTRL#OTRL&#45;5&#45;&gt;http://purl.org/oseg/ontologies/OTRL#OTRL -->
<g id="edge34" class="edge">
<title>http://purl.org/oseg/ontologies/OTRL#OTRL&#45;5&#45;&gt;http://purl.org/oseg/ontologies/OTRL#OTRL</title>
<path fill="none" stroke="black" d="M510.76,-355.89C494.76,-395.39 453.65,-496.9 434.33,-544.62"/>
<polygon fill="black" stroke="black" points="431.06,-543.36 430.55,-553.94 437.55,-545.99 431.06,-543.36"/>
</g>
<!-- http://purl.org/oseg/ontologies/OTRL#OTRL&#45;5&#45;&gt;http://www.w3.org/2002/07/owl#class -->
<g id="edge1" class="edge">
<title>http://purl.org/oseg/ontologies/OTRL#OTRL&#45;5&#45;&gt;http://www.w3.org/2002/07/owl#class</title>
<path fill="none" stroke="black" d="M471.48,-333.5C440.97,-329.38 400.5,-323.93 367.09,-319.42"/>
<polygon fill="black" stroke="black" points="367.34,-315.92 356.96,-318.05 366.41,-322.86 367.34,-315.92"/>
<text text-anchor="middle" x="414.79" y="-330.26" font-family="Times,serif" font-size="14.00">a</text>
</g>
<!-- http://purl.org/oseg/ontologies/OTRL#OTRL&#45;7 -->
<g id="node7" class="node">
<title>http://purl.org/oseg/ontologies/OTRL#OTRL&#45;7</title>
<ellipse fill="none" stroke="#e377c2" cx="264.58" cy="-469.45" rx="49.49" ry="16.03"/>
<text text-anchor="middle" x="264.58" y="-465.75" font-family="Times,serif" font-size="14.00">OTRL&#45;7</text>
</g>
<!-- http://purl.org/oseg/ontologies/OTRL#OTRL&#45;7&#45;&gt;http://purl.org/oseg/ontologies/OTRL#OTRL -->
<g id="edge37" class="edge">
<title>http://purl.org/oseg/ontologies/OTRL#OTRL&#45;7&#45;&gt;http://purl.org/oseg/ontologies/OTRL#OTRL</title>
<path fill="none" stroke="black" d="M287.76,-484.09C315.74,-501.76 362.87,-531.52 393.7,-551"/>
<polygon fill="black" stroke="black" points="392,-554.06 402.32,-556.44 395.74,-548.14 392,-554.06"/>
</g>
<!-- http://purl.org/oseg/ontologies/OTRL#OTRL&#45;7&#45;&gt;http://www.w3.org/2002/07/owl#class -->
<g id="edge2" class="edge">
<title>http://purl.org/oseg/ontologies/OTRL#OTRL&#45;7&#45;&gt;http://www.w3.org/2002/07/owl#class</title>
<path fill="none" stroke="black" d="M268.74,-453.09C275.7,-425.7 289.78,-370.31 298.16,-337.37"/>
<polygon fill="black" stroke="black" points="301.59,-338.08 300.66,-327.53 294.8,-336.36 301.59,-338.08"/>
<text text-anchor="middle" x="278.95" y="-399.03" font-family="Times,serif" font-size="14.00">a</text>
</g>
<!-- http://purl.org/oseg/ontologies/OTRL#hardwareDescription -->
<g id="node8" class="node">
<title>http://purl.org/oseg/ontologies/OTRL#hardwareDescription</title>
<ellipse fill="none" stroke="#e377c2" cx="608.11" cy="-877.17" rx="118.17" ry="16.03"/>
<text text-anchor="middle" x="608.11" y="-873.47" font-family="Times,serif" font-size="14.00">hardwareDescription</text>
</g>
<!-- http://purl.org/oseg/ontologies/OTRL#hardwareDescription&#45;&gt;http://purl.org/oseg/ontologies/OTRL#OTRL -->
<g id="edge40" class="edge">
<title>http://purl.org/oseg/ontologies/OTRL#hardwareDescription&#45;&gt;http://purl.org/oseg/ontologies/OTRL#OTRL</title>
<path fill="none" stroke="black" d="M598.21,-860.66C567.72,-809.82 475.13,-655.4 438.82,-594.86"/>
<polygon fill="black" stroke="black" points="441.64,-592.75 433.5,-585.98 435.64,-596.35 441.64,-592.75"/>
<text text-anchor="middle" x="492.02" y="-731.56" font-family="Times,serif" font-size="14.00">domain</text>
</g>
<!-- http://purl.org/oseg/ontologies/OTRL#hardwareDescription&#45;&gt;http://schema.org/Text -->
<g id="edge14" class="edge">
<title>http://purl.org/oseg/ontologies/OTRL#hardwareDescription&#45;&gt;http://schema.org/Text</title>
<path fill="none" stroke="black" d="M612.21,-893.51C619.76,-923.66 635.95,-988.23 645.07,-1024.61"/>
<polygon fill="black" stroke="black" points="641.73,-1025.65 647.55,-1034.5 648.52,-1023.95 641.73,-1025.65"/>
<text text-anchor="middle" x="607.64" y="-962.86" font-family="Times,serif" font-size="14.00">range</text>
</g>
<!-- http://purl.org/oseg/ontologies/OTRL#exitCriteria -->
<g id="node9" class="node">
<title>http://purl.org/oseg/ontologies/OTRL#exitCriteria</title>
<ellipse fill="none" stroke="#e377c2" cx="558.63" cy="-808.54" rx="70.01" ry="16.03"/>
<text text-anchor="middle" x="558.63" y="-804.84" font-family="Times,serif" font-size="14.00">exitCriteria</text>
</g>
<!-- http://purl.org/oseg/ontologies/OTRL#exitCriteria&#45;&gt;http://purl.org/oseg/ontologies/OTRL#OTRL -->
<g id="edge21" class="edge">
<title>http://purl.org/oseg/ontologies/OTRL#exitCriteria&#45;&gt;http://purl.org/oseg/ontologies/OTRL#OTRL</title>
<path fill="none" stroke="black" d="M549.37,-792.15C526.2,-751.13 465.59,-643.78 438.01,-594.95"/>
<polygon fill="black" stroke="black" points="440.92,-592.99 432.96,-586 434.83,-596.43 440.92,-592.99"/>
<text text-anchor="middle" x="467.19" y="-697.35" font-family="Times,serif" font-size="14.00">domain</text>
</g>
<!-- http://purl.org/oseg/ontologies/OTRL#exitCriteria&#45;&gt;http://schema.org/Text -->
<g id="edge4" class="edge">
<title>http://purl.org/oseg/ontologies/OTRL#exitCriteria&#45;&gt;http://schema.org/Text</title>
<path fill="none" stroke="black" d="M564.88,-824.82C580.74,-866.13 622.64,-975.29 641.82,-1025.28"/>
<polygon fill="black" stroke="black" points="638.6,-1026.64 645.45,-1034.72 645.14,-1024.13 638.6,-1026.64"/>
<text text-anchor="middle" x="582.35" y="-928.85" font-family="Times,serif" font-size="14.00">range</text>
</g>
<!-- http://purl.org/oseg/ontologies/OTRL#ODRL&#45;2 -->
<g id="node10" class="node">
<title>http://purl.org/oseg/ontologies/OTRL#ODRL&#45;2</title>
<ellipse fill="none" stroke="#e377c2" cx="108.15" cy="-85.78" rx="50.82" ry="16.03"/>
<text text-anchor="middle" x="108.15" y="-82.08" font-family="Times,serif" font-size="14.00">ODRL&#45;2</text>
</g>
<!-- http://purl.org/oseg/ontologies/OTRL#ODRL&#45;2&#45;&gt;http://purl.org/oseg/ontologies/OTRL#ODRL -->
<g id="edge35" class="edge">
<title>http://purl.org/oseg/ontologies/OTRL#ODRL&#45;2&#45;&gt;http://purl.org/oseg/ontologies/OTRL#ODRL</title>
<path fill="none" stroke="black" d="M140.56,-98.5C153.84,-103.7 169.33,-109.78 183.23,-115.23"/>
<polygon fill="black" stroke="black" points="181.96,-118.5 192.55,-118.89 184.52,-111.98 181.96,-118.5"/>
</g>
<!-- http://purl.org/oseg/ontologies/OTRL#ODRL&#45;2&#45;&gt;http://www.w3.org/2002/07/owl#class -->
<g id="edge27" class="edge">
<title>http://purl.org/oseg/ontologies/OTRL#ODRL&#45;2&#45;&gt;http://www.w3.org/2002/07/owl#class</title>
<path fill="none" stroke="black" d="M121.98,-101.62C156.05,-140.64 244.16,-241.53 284.34,-287.53"/>
<polygon fill="black" stroke="black" points="281.82,-289.97 291.04,-295.2 287.1,-285.37 281.82,-289.97"/>
<text text-anchor="middle" x="198.66" y="-198.38" font-family="Times,serif" font-size="14.00">a</text>
</g>
<!-- http://purl.org/oseg/ontologies/OTRL#OTRL&#45;6 -->
<g id="node11" class="node">
<title>http://purl.org/oseg/ontologies/OTRL#OTRL&#45;6</title>
<ellipse fill="none" stroke="#e377c2" cx="183.75" cy="-565.5" rx="49.49" ry="16.03"/>
<text text-anchor="middle" x="183.75" y="-561.8" font-family="Times,serif" font-size="14.00">OTRL&#45;6</text>
</g>
<!-- http://purl.org/oseg/ontologies/OTRL#OTRL&#45;6&#45;&gt;http://purl.org/oseg/ontologies/OTRL#OTRL -->
<g id="edge10" class="edge">
<title>http://purl.org/oseg/ontologies/OTRL#OTRL&#45;6&#45;&gt;http://purl.org/oseg/ontologies/OTRL#OTRL</title>
<path fill="none" stroke="black" d="M233.24,-566.45C274.39,-567.25 332.7,-568.37 374,-569.17"/>
<polygon fill="black" stroke="black" points="374.04,-572.67 384.11,-569.36 374.18,-565.67 374.04,-572.67"/>
</g>
<!-- http://purl.org/oseg/ontologies/OTRL#OTRL&#45;6&#45;&gt;http://www.w3.org/2002/07/owl#class -->
<g id="edge28" class="edge">
<title>http://purl.org/oseg/ontologies/OTRL#OTRL&#45;6&#45;&gt;http://www.w3.org/2002/07/owl#class</title>
<path fill="none" stroke="black" d="M191.51,-549.19C212.06,-506.01 268.01,-388.45 292.78,-336.4"/>
<polygon fill="black" stroke="black" points="296.02,-337.73 297.16,-327.19 289.7,-334.72 296.02,-337.73"/>
<text text-anchor="middle" x="237.64" y="-431.6" font-family="Times,serif" font-size="14.00">a</text>
</g>
<!-- http://purl.org/oseg/ontologies/OTRL#OTRL&#45;9 -->
<g id="node12" class="node">
<title>http://purl.org/oseg/ontologies/OTRL#OTRL&#45;9</title>
<ellipse fill="none" stroke="#e377c2" cx="373.47" cy="-482.37" rx="49.49" ry="16.03"/>
<text text-anchor="middle" x="373.47" y="-478.67" font-family="Times,serif" font-size="14.00">OTRL&#45;9</text>
</g>
<!-- http://purl.org/oseg/ontologies/OTRL#OTRL&#45;9&#45;&gt;http://purl.org/oseg/ontologies/OTRL#OTRL -->
<g id="edge23" class="edge">
<title>http://purl.org/oseg/ontologies/OTRL#OTRL&#45;9&#45;&gt;http://purl.org/oseg/ontologies/OTRL#OTRL</title>
<path fill="none" stroke="black" d="M382.74,-498.47C390.29,-511.58 401.08,-530.32 409.73,-545.34"/>
<polygon fill="black" stroke="black" points="406.76,-547.22 414.79,-554.14 412.83,-543.72 406.76,-547.22"/>
</g>
<!-- http://purl.org/oseg/ontologies/OTRL#OTRL&#45;9&#45;&gt;http://www.w3.org/2002/07/owl#class -->
<g id="edge6" class="edge">
<title>http://purl.org/oseg/ontologies/OTRL#OTRL&#45;9&#45;&gt;http://www.w3.org/2002/07/owl#class</title>
<path fill="none" stroke="black" d="M366.89,-465.94C354.96,-436.13 329.64,-372.92 315.31,-337.14"/>
<polygon fill="black" stroke="black" points="318.38,-335.39 311.41,-327.4 311.88,-337.99 318.38,-335.39"/>
<text text-anchor="middle" x="336.6" y="-405.34" font-family="Times,serif" font-size="14.00">a</text>
</g>
<!-- http://purl.org/oseg/ontologies/OTRL#OTRL&#45;8 -->
<g id="node13" class="node">
<title>http://purl.org/oseg/ontologies/OTRL#OTRL&#45;8</title>
<ellipse fill="none" stroke="#e377c2" cx="556.15" cy="-395.38" rx="49.49" ry="16.03"/>
<text text-anchor="middle" x="556.15" y="-391.68" font-family="Times,serif" font-size="14.00">OTRL&#45;8</text>
</g>
<!-- http://purl.org/oseg/ontologies/OTRL#OTRL&#45;8&#45;&gt;http://purl.org/oseg/ontologies/OTRL#OTRL -->
<g id="edge17" class="edge">
<title>http://purl.org/oseg/ontologies/OTRL#OTRL&#45;8&#45;&gt;http://purl.org/oseg/ontologies/OTRL#OTRL</title>
<path fill="none" stroke="black" d="M544.19,-411.19C520.9,-442 469.34,-510.17 441.93,-546.41"/>
<polygon fill="black" stroke="black" points="439.07,-544.39 435.83,-554.48 444.66,-548.61 439.07,-544.39"/>
</g>
<!-- http://purl.org/oseg/ontologies/OTRL#OTRL&#45;8&#45;&gt;http://www.w3.org/2002/07/owl#class -->
<g id="edge29" class="edge">
<title>http://purl.org/oseg/ontologies/OTRL#OTRL&#45;8&#45;&gt;http://www.w3.org/2002/07/owl#class</title>
<path fill="none" stroke="black" d="M521.48,-383.74C477.39,-368.94 401.09,-343.33 351.82,-326.79"/>
<polygon fill="black" stroke="black" points="352.63,-323.37 342.04,-323.5 350.4,-330.01 352.63,-323.37"/>
<text text-anchor="middle" x="432.15" y="-344.06" font-family="Times,serif" font-size="14.00">a</text>
</g>
<!-- http://purl.org/oseg/ontologies/OTRL#documentationDescription -->
<g id="node14" class="node">
<title>http://purl.org/oseg/ontologies/OTRL#documentationDescription</title>
<ellipse fill="none" stroke="#e377c2" cx="727.31" cy="-753.97" rx="120.83" ry="16.03"/>
<text text-anchor="middle" x="727.31" y="-750.27" font-family="Times,serif" font-size="14.00">documentationDesc...</text>
</g>
<!-- http://purl.org/oseg/ontologies/OTRL#documentationDescription&#45;&gt;http://purl.org/oseg/ontologies/OTRL#OTRL -->
<g id="edge33" class="edge">
<title>http://purl.org/oseg/ontologies/OTRL#documentationDescription&#45;&gt;http://purl.org/oseg/ontologies/OTRL#OTRL</title>
<path fill="none" stroke="black" d="M700.92,-737.97C644.99,-704.07 514.75,-625.14 454.98,-588.91"/>
<polygon fill="black" stroke="black" points="456.72,-585.87 446.35,-583.68 453.09,-591.86 456.72,-585.87"/>
<text text-anchor="middle" x="551.45" y="-667.24" font-family="Times,serif" font-size="14.00">domain</text>
</g>
<!-- http://purl.org/oseg/ontologies/OTRL#documentationDescription&#45;&gt;http://schema.org/Text -->
<g id="edge24" class="edge">
<title>http://purl.org/oseg/ontologies/OTRL#documentationDescription&#45;&gt;http://schema.org/Text</title>
<path fill="none" stroke="black" d="M723.14,-770.36C710.66,-819.33 673.58,-964.91 658.34,-1024.78"/>
<polygon fill="black" stroke="black" points="654.91,-1024.04 655.84,-1034.59 661.7,-1025.77 654.91,-1024.04"/>
<text text-anchor="middle" x="669.74" y="-901.37" font-family="Times,serif" font-size="14.00">range</text>
</g>
<!-- http://purl.org/oseg/ontologies/OTRL#OTRL&#45;3 -->
<g id="node15" class="node">
<title>http://purl.org/oseg/ontologies/OTRL#OTRL&#45;3</title>
<ellipse fill="none" stroke="#e377c2" cx="524.78" cy="-458.54" rx="49.49" ry="16.03"/>
<text text-anchor="middle" x="524.78" y="-454.84" font-family="Times,serif" font-size="14.00">OTRL&#45;3</text>
</g>
<!-- http://purl.org/oseg/ontologies/OTRL#OTRL&#45;3&#45;&gt;http://purl.org/oseg/ontologies/OTRL#OTRL -->
<g id="edge7" class="edge">
<title>http://purl.org/oseg/ontologies/OTRL#OTRL&#45;3&#45;&gt;http://purl.org/oseg/ontologies/OTRL#OTRL</title>
<path fill="none" stroke="black" d="M510.34,-474.53C493.18,-493.53 464.41,-525.38 444.84,-547.05"/>
<polygon fill="black" stroke="black" points="442.19,-544.76 438.08,-554.53 447.38,-549.46 442.19,-544.76"/>
</g>
<!-- http://purl.org/oseg/ontologies/OTRL#OTRL&#45;3&#45;&gt;http://www.w3.org/2002/07/owl#class -->
<g id="edge31" class="edge">
<title>http://purl.org/oseg/ontologies/OTRL#OTRL&#45;3&#45;&gt;http://www.w3.org/2002/07/owl#class</title>
<path fill="none" stroke="black" d="M502.89,-443.86C463.57,-417.48 380.9,-362.03 335.81,-331.78"/>
<polygon fill="black" stroke="black" points="337.57,-328.75 327.31,-326.09 333.67,-334.56 337.57,-328.75"/>
<text text-anchor="middle" x="414.85" y="-391.62" font-family="Times,serif" font-size="14.00">a</text>
</g>
<!-- http://purl.org/oseg/ontologies/OTRL#ODRL&#45;0 -->
<g id="node16" class="node">
<title>http://purl.org/oseg/ontologies/OTRL#ODRL&#45;0</title>
<ellipse fill="none" stroke="#e377c2" cx="233.73" cy="-16.09" rx="50.82" ry="16.03"/>
<text text-anchor="middle" x="233.73" y="-12.39" font-family="Times,serif" font-size="14.00">ODRL&#45;0</text>
</g>
<!-- http://purl.org/oseg/ontologies/OTRL#ODRL&#45;0&#45;&gt;http://purl.org/oseg/ontologies/OTRL#ODRL -->
<g id="edge25" class="edge">
<title>http://purl.org/oseg/ontologies/OTRL#ODRL&#45;0&#45;&gt;http://purl.org/oseg/ontologies/OTRL#ODRL</title>
<path fill="none" stroke="black" d="M232.09,-32.49C230.23,-51.19 227.15,-82.03 224.94,-104.13"/>
<polygon fill="black" stroke="black" points="221.44,-103.89 223.93,-114.19 228.41,-104.59 221.44,-103.89"/>
</g>
<!-- http://purl.org/oseg/ontologies/OTRL#ODRL&#45;0&#45;&gt;http://www.w3.org/2002/07/owl#class -->
<g id="edge11" class="edge">
<title>http://purl.org/oseg/ontologies/OTRL#ODRL&#45;0&#45;&gt;http://www.w3.org/2002/07/owl#class</title>
<path fill="none" stroke="black" d="M237.66,-32.37C249.39,-81.01 284.25,-225.6 298.59,-285.05"/>
<polygon fill="black" stroke="black" points="295.19,-285.9 300.94,-294.8 302,-284.26 295.19,-285.9"/>
<text text-anchor="middle" x="263.62" y="-162.51" font-family="Times,serif" font-size="14.00">a</text>
</g>
<!-- http://purl.org/oseg/ontologies/OTRL#ODRL&#45;1 -->
<g id="node17" class="node">
<title>http://purl.org/oseg/ontologies/OTRL#ODRL&#45;1</title>
<ellipse fill="none" stroke="#e377c2" cx="345.09" cy="-28.9" rx="50.82" ry="16.03"/>
<text text-anchor="middle" x="345.09" y="-25.2" font-family="Times,serif" font-size="14.00">ODRL&#45;1</text>
</g>
<!-- http://purl.org/oseg/ontologies/OTRL#ODRL&#45;1&#45;&gt;http://purl.org/oseg/ontologies/OTRL#ODRL -->
<g id="edge32" class="edge">
<title>http://purl.org/oseg/ontologies/OTRL#ODRL&#45;1&#45;&gt;http://purl.org/oseg/ontologies/OTRL#ODRL</title>
<path fill="none" stroke="black" d="M326.71,-44.12C305.88,-61.36 271.78,-89.59 248.25,-109.07"/>
<polygon fill="black" stroke="black" points="245.88,-106.49 240.4,-115.57 250.34,-111.89 245.88,-106.49"/>
</g>
<!-- http://purl.org/oseg/ontologies/OTRL#ODRL&#45;1&#45;&gt;http://www.w3.org/2002/07/owl#class -->
<g id="edge13" class="edge">
<title>http://purl.org/oseg/ontologies/OTRL#ODRL&#45;1&#45;&gt;http://www.w3.org/2002/07/owl#class</title>
<path fill="none" stroke="black" d="M342.75,-45.29C336.07,-92.13 316.85,-226.93 308.64,-284.47"/>
<polygon fill="black" stroke="black" points="305.14,-284.2 307.2,-294.59 312.07,-285.19 305.14,-284.2"/>
<text text-anchor="middle" x="321.2" y="-168.68" font-family="Times,serif" font-size="14.00">a</text>
</g>
<!-- http://purl.org/oseg/ontologies/OTRL#ODRL&#45;5 -->
<g id="node18" class="node">
<title>http://purl.org/oseg/ontologies/OTRL#ODRL&#45;5</title>
<ellipse fill="none" stroke="#e377c2" cx="50.97" cy="-167.47" rx="50.82" ry="16.03"/>
<text text-anchor="middle" x="50.97" y="-163.77" font-family="Times,serif" font-size="14.00">ODRL&#45;5</text>
</g>
<!-- http://purl.org/oseg/ontologies/OTRL#ODRL&#45;5&#45;&gt;http://purl.org/oseg/ontologies/OTRL#ODRL -->
<g id="edge12" class="edge">
<title>http://purl.org/oseg/ontologies/OTRL#ODRL&#45;5&#45;&gt;http://purl.org/oseg/ontologies/OTRL#ODRL</title>
<path fill="none" stroke="black" d="M93.32,-158.34C118.34,-152.95 150.05,-146.12 175.76,-140.58"/>
<polygon fill="black" stroke="black" points="176.62,-143.98 185.66,-138.45 175.15,-137.14 176.62,-143.98"/>
</g>
<!-- http://purl.org/oseg/ontologies/OTRL#ODRL&#45;5&#45;&gt;http://www.w3.org/2002/07/owl#class -->
<g id="edge15" class="edge">
<title>http://purl.org/oseg/ontologies/OTRL#ODRL&#45;5&#45;&gt;http://www.w3.org/2002/07/owl#class</title>
<path fill="none" stroke="black" d="M76.24,-181.76C121.91,-207.58 218.26,-262.06 270.09,-291.37"/>
<polygon fill="black" stroke="black" points="268.5,-294.49 278.93,-296.36 271.95,-288.4 268.5,-294.49"/>
<text text-anchor="middle" x="168.67" y="-240.36" font-family="Times,serif" font-size="14.00">a</text>
</g>
<!-- http://purl.org/oseg/ontologies/OTRL#OTRL&#45;2 -->
<g id="node19" class="node">
<title>http://purl.org/oseg/ontologies/OTRL#OTRL&#45;2</title>
<ellipse fill="none" stroke="#e377c2" cx="304.89" cy="-590.44" rx="49.49" ry="16.03"/>
<text text-anchor="middle" x="304.89" y="-586.74" font-family="Times,serif" font-size="14.00">OTRL&#45;2</text>
</g>
<!-- http://purl.org/oseg/ontologies/OTRL#OTRL&#45;2&#45;&gt;http://purl.org/oseg/ontologies/OTRL#OTRL -->
<g id="edge41" class="edge">
<title>http://purl.org/oseg/ontologies/OTRL#OTRL&#45;2&#45;&gt;http://purl.org/oseg/ontologies/OTRL#OTRL</title>
<path fill="none" stroke="black" d="M348.9,-582.93C358.15,-581.36 367.93,-579.69 377.27,-578.1"/>
<polygon fill="black" stroke="black" points="377.92,-581.54 387.19,-576.41 376.74,-574.64 377.92,-581.54"/>
</g>
<!-- http://purl.org/oseg/ontologies/OTRL#OTRL&#45;2&#45;&gt;http://www.w3.org/2002/07/owl#class -->
<g id="edge16" class="edge">
<title>http://purl.org/oseg/ontologies/OTRL#OTRL&#45;2&#45;&gt;http://www.w3.org/2002/07/owl#class</title>
<path fill="none" stroke="black" d="M304.89,-573.8C304.88,-527.11 304.87,-394.6 304.86,-337.61"/>
<polygon fill="black" stroke="black" points="308.36,-337.58 304.86,-327.58 301.36,-337.58 308.36,-337.58"/>
<text text-anchor="middle" x="300.37" y="-444.5" font-family="Times,serif" font-size="14.00">a</text>
</g>
<!-- http://purl.org/oseg/ontologies/OTRL -->
<g id="node20" class="node">
<title>http://purl.org/oseg/ontologies/OTRL</title>
<ellipse fill="none" stroke="#e377c2" cx="718.24" cy="-308.64" rx="60.62" ry="16.03"/>
<text text-anchor="middle" x="718.24" y="-304.94" font-family="Times,serif" font-size="14.00">ns1:OTRL</text>
</g>
<!-- http://purl.org/oseg/ontologies/OTRL&#45;&gt;http://purl.org/oseg/ontologies/OTRL -->
<g id="edge20" class="edge">
<title>http://purl.org/oseg/ontologies/OTRL&#45;&gt;http://purl.org/oseg/ontologies/OTRL</title>
<path fill="none" stroke="black" d="M773.84,-315.27C787.17,-314.75 797.05,-312.54 797.05,-308.64 797.05,-305.81 791.83,-303.86 783.87,-302.81"/>
<polygon fill="black" stroke="black" points="784.09,-299.32 773.84,-302.01 783.53,-306.3 784.09,-299.32"/>
<text text-anchor="middle" x="848.55" y="-304.94" font-family="Times,serif" font-size="14.00">owl:versionIRI</text>
</g>
<!-- http://purl.org/oseg/ontologies/OTRL#OTRL&#45;1 -->
<g id="node21" class="node">
<title>http://purl.org/oseg/ontologies/OTRL#OTRL&#45;1</title>
<ellipse fill="none" stroke="#e377c2" cx="157.18" cy="-510.34" rx="49.49" ry="16.03"/>
<text text-anchor="middle" x="157.18" y="-506.64" font-family="Times,serif" font-size="14.00">OTRL&#45;1</text>
</g>
<!-- http://purl.org/oseg/ontologies/OTRL#OTRL&#45;1&#45;&gt;http://purl.org/oseg/ontologies/OTRL#OTRL -->
<g id="edge30" class="edge">
<title>http://purl.org/oseg/ontologies/OTRL#OTRL&#45;1&#45;&gt;http://purl.org/oseg/ontologies/OTRL#OTRL</title>
<path fill="none" stroke="black" d="M198.29,-519.55C247.25,-530.52 328.74,-548.78 379.25,-560.1"/>
<polygon fill="black" stroke="black" points="378.7,-563.57 389.22,-562.34 380.23,-556.73 378.7,-563.57"/>
</g>
<!-- http://purl.org/oseg/ontologies/OTRL#OTRL&#45;1&#45;&gt;http://www.w3.org/2002/07/owl#class -->
<g id="edge18" class="edge">
<title>http://purl.org/oseg/ontologies/OTRL#OTRL&#45;1&#45;&gt;http://www.w3.org/2002/07/owl#class</title>
<path fill="none" stroke="black" d="M169.02,-494.36C194.83,-459.52 256.33,-376.52 286.93,-335.22"/>
<polygon fill="black" stroke="black" points="289.82,-337.19 292.96,-327.07 284.2,-333.02 289.82,-337.19"/>
<text text-anchor="middle" x="223.47" y="-418.59" font-family="Times,serif" font-size="14.00">a</text>
</g>
<!-- http://purl.org/oseg/ontologies/OTRL#ODRL&#45;3 -->
<g id="node22" class="node">
<title>http://purl.org/oseg/ontologies/OTRL#ODRL&#45;3</title>
<ellipse fill="none" stroke="#e377c2" cx="410.44" cy="-85.46" rx="50.82" ry="16.03"/>
<text text-anchor="middle" x="410.44" y="-81.76" font-family="Times,serif" font-size="14.00">ODRL&#45;3</text>
</g>
<!-- http://purl.org/oseg/ontologies/OTRL#ODRL&#45;3&#45;&gt;http://purl.org/oseg/ontologies/OTRL#ODRL -->
<g id="edge9" class="edge">
<title>http://purl.org/oseg/ontologies/OTRL#ODRL&#45;3&#45;&gt;http://purl.org/oseg/ontologies/OTRL#ODRL</title>
<path fill="none" stroke="black" d="M369.62,-95.25C339.71,-102.41 299.1,-112.15 268.09,-119.58"/>
<polygon fill="black" stroke="black" points="266.88,-116.27 257.97,-122.01 268.51,-123.08 266.88,-116.27"/>
</g>
<!-- http://purl.org/oseg/ontologies/OTRL#ODRL&#45;3&#45;&gt;http://www.w3.org/2002/07/owl#class -->
<g id="edge36" class="edge">
<title>http://purl.org/oseg/ontologies/OTRL#ODRL&#45;3&#45;&gt;http://www.w3.org/2002/07/owl#class</title>
<path fill="none" stroke="black" d="M402.85,-101.68C384.7,-140.44 338.72,-238.68 316.81,-285.48"/>
<polygon fill="black" stroke="black" points="313.59,-284.1 312.52,-294.65 319.93,-287.07 313.59,-284.1"/>
<text text-anchor="middle" x="355.33" y="-197.38" font-family="Times,serif" font-size="14.00">a</text>
</g>
<!-- http://purl.org/oseg/ontologies/OTRL#OTRL&#45;4 -->
<g id="node23" class="node">
<title>http://purl.org/oseg/ontologies/OTRL#OTRL&#45;4</title>
<ellipse fill="none" stroke="#e377c2" cx="444.07" cy="-380.83" rx="49.49" ry="16.03"/>
<text text-anchor="middle" x="444.07" y="-377.13" font-family="Times,serif" font-size="14.00">OTRL&#45;4</text>
</g>
<!-- http://purl.org/oseg/ontologies/OTRL#OTRL&#45;4&#45;&gt;http://purl.org/oseg/ontologies/OTRL#OTRL -->
<g id="edge26" class="edge">
<title>http://purl.org/oseg/ontologies/OTRL#OTRL&#45;4&#45;&gt;http://purl.org/oseg/ontologies/OTRL#OTRL</title>
<path fill="none" stroke="black" d="M442.32,-397.3C438.84,-430.17 430.99,-504.18 426.78,-543.85"/>
<polygon fill="black" stroke="black" points="423.3,-543.52 425.72,-553.83 430.26,-544.26 423.3,-543.52"/>
</g>
<!-- http://purl.org/oseg/ontologies/OTRL#OTRL&#45;4&#45;&gt;http://www.w3.org/2002/07/owl#class -->
<g id="edge38" class="edge">
<title>http://purl.org/oseg/ontologies/OTRL#OTRL&#45;4&#45;&gt;http://www.w3.org/2002/07/owl#class</title>
<path fill="none" stroke="black" d="M416.9,-367.2C395.66,-356.56 365.9,-341.63 342.39,-329.85"/>
<polygon fill="black" stroke="black" points="343.9,-326.69 333.39,-325.33 340.76,-332.94 343.9,-326.69"/>
<text text-anchor="middle" x="375.15" y="-352.32" font-family="Times,serif" font-size="14.00">a</text>
</g>
<!-- http://purl.org/oseg/ontologies/OTRL#ODRL&#45;4 -->
<g id="node24" class="node">
<title>http://purl.org/oseg/ontologies/OTRL#ODRL&#45;4</title>
<ellipse fill="none" stroke="#e377c2" cx="53.29" cy="-255.99" rx="50.82" ry="16.03"/>
<text text-anchor="middle" x="53.29" y="-252.29" font-family="Times,serif" font-size="14.00">ODRL&#45;4</text>
</g>
<!-- http://purl.org/oseg/ontologies/OTRL#ODRL&#45;4&#45;&gt;http://purl.org/oseg/ontologies/OTRL#ODRL -->
<g id="edge8" class="edge">
<title>http://purl.org/oseg/ontologies/OTRL#ODRL&#45;4&#45;&gt;http://purl.org/oseg/ontologies/OTRL#ODRL</title>
<path fill="none" stroke="black" d="M73.67,-240.86C103.94,-218.39 160.84,-176.17 194.78,-150.98"/>
<polygon fill="black" stroke="black" points="196.94,-153.74 202.88,-144.97 192.77,-148.12 196.94,-153.74"/>
</g>
<!-- http://purl.org/oseg/ontologies/OTRL#ODRL&#45;4&#45;&gt;http://www.w3.org/2002/07/owl#class -->
<g id="edge39" class="edge">
<title>http://purl.org/oseg/ontologies/OTRL#ODRL&#45;4&#45;&gt;http://www.w3.org/2002/07/owl#class</title>
<path fill="none" stroke="black" d="M95.39,-265.2C137.62,-274.44 202.86,-288.71 249.3,-298.87"/>
<polygon fill="black" stroke="black" points="248.68,-302.32 259.2,-301.04 250.18,-295.48 248.68,-302.32"/>
<text text-anchor="middle" x="167.85" y="-285.83" font-family="Times,serif" font-size="14.00">a</text>
</g>
</g>
</svg>
