<?xml version="1.0" encoding="UTF-8" standalone="no"?>
<!DOCTYPE svg PUBLIC "-//W3C//DTD SVG 1.1//EN"
 "http://www.w3.org/Graphics/SVG/1.1/DTD/svg11.dtd">
<!-- Generated by graphviz version 2.43.0 (0)
 -->
<!-- Title: G Pages: 1 -->
<svg width="854pt" height="1001pt"
 viewBox="0.00 0.00 854.05 1001.00" xmlns="http://www.w3.org/2000/svg" xmlns:xlink="http://www.w3.org/1999/xlink">
<g id="graph0" class="graph" transform="scale(1 1) rotate(0) translate(4 997)">
<title>G</title>
<polygon fill="white" stroke="transparent" points="-4,4 -4,-997 850.05,-997 850.05,4 -4,4"/>
<!-- http://purl.org/oseg/ontologies/OTRL#ODRL -->
<g id="node1" class="node">
<title>http://purl.org/oseg/ontologies/OTRL#ODRL</title>
<ellipse fill="none" stroke="#e377c2" cx="210.28" cy="-114.3" rx="41.94" ry="16.03"/>
<text text-anchor="middle" x="210.28" y="-110.6" font-family="Times,serif" font-size="14.00">ODRL</text>
</g>
<!-- http://www.w3.org/2002/07/owl#class -->
<g id="node3" class="node">
<title>http://www.w3.org/2002/07/owl#class</title>
<ellipse fill="none" stroke="#1f77b4" cx="274.73" cy="-279.94" rx="57.05" ry="16.03"/>
<text text-anchor="middle" x="274.73" y="-276.24" font-family="Times,serif" font-size="14.00">owl:class</text>
</g>
<!-- http://purl.org/oseg/ontologies/OTRL#ODRL&#45;&gt;http://www.w3.org/2002/07/owl#class -->
<g id="edge38" class="edge">
<title>http://purl.org/oseg/ontologies/OTRL#ODRL&#45;&gt;http://www.w3.org/2002/07/owl#class</title>
<path fill="none" stroke="black" d="M216.58,-130.49C227.76,-159.23 251.18,-219.42 264.64,-254.01"/>
<polygon fill="black" stroke="black" points="261.42,-255.4 268.31,-263.45 267.95,-252.86 261.42,-255.4"/>
<text text-anchor="middle" x="236.11" y="-196.05" font-family="Times,serif" font-size="14.00">a</text>
</g>
<!-- http://purl.org/oseg/ontologies/OTRL#OTRL -->
<g id="node2" class="node">
<title>http://purl.org/oseg/ontologies/OTRL#OTRL</title>
<ellipse fill="none" stroke="#e377c2" cx="379.44" cy="-521.6" rx="39.7" ry="16.03"/>
<text text-anchor="middle" x="379.44" y="-517.9" font-family="Times,serif" font-size="14.00">OTRL</text>
</g>
<!-- http://purl.org/oseg/ontologies/OTRL#OTRL&#45;&gt;http://www.w3.org/2002/07/owl#class -->
<g id="edge40" class="edge">
<title>http://purl.org/oseg/ontologies/OTRL#OTRL&#45;&gt;http://www.w3.org/2002/07/owl#class</title>
<path fill="none" stroke="black" d="M372.4,-505.37C354.56,-464.18 307.41,-355.36 285.81,-305.52"/>
<polygon fill="black" stroke="black" points="288.92,-303.89 281.73,-296.1 282.49,-306.67 288.92,-303.89"/>
<text text-anchor="middle" x="324.61" y="-409.24" font-family="Times,serif" font-size="14.00">a</text>
</g>
<!-- http://purl.org/oseg/ontologies/OTRL#ODRL&#45;3 -->
<g id="node4" class="node">
<title>http://purl.org/oseg/ontologies/OTRL#ODRL&#45;3</title>
<ellipse fill="none" stroke="#e377c2" cx="51.17" cy="-149.08" rx="50.82" ry="16.03"/>
<text text-anchor="middle" x="51.17" y="-145.38" font-family="Times,serif" font-size="14.00">ODRL&#45;3</text>
</g>
<!-- http://purl.org/oseg/ontologies/OTRL#ODRL&#45;3&#45;&gt;http://purl.org/oseg/ontologies/OTRL#ODRL -->
<g id="edge18" class="edge">
<title>http://purl.org/oseg/ontologies/OTRL#ODRL&#45;3&#45;&gt;http://purl.org/oseg/ontologies/OTRL#ODRL</title>
<path fill="none" stroke="black" d="M93.39,-139.85C115.11,-135.11 141.62,-129.31 163.91,-124.44"/>
<polygon fill="black" stroke="black" points="164.79,-127.83 173.82,-122.27 163.3,-120.99 164.79,-127.83"/>
</g>
<!-- http://purl.org/oseg/ontologies/OTRL#ODRL&#45;3&#45;&gt;http://www.w3.org/2002/07/owl#class -->
<g id="edge1" class="edge">
<title>http://purl.org/oseg/ontologies/OTRL#ODRL&#45;3&#45;&gt;http://www.w3.org/2002/07/owl#class</title>
<path fill="none" stroke="black" d="M75.95,-163.59C116.05,-187.06 195.23,-233.41 240.62,-259.98"/>
<polygon fill="black" stroke="black" points="239.1,-263.14 249.5,-265.17 242.63,-257.1 239.1,-263.14"/>
<text text-anchor="middle" x="153.79" y="-215.58" font-family="Times,serif" font-size="14.00">a</text>
</g>
<!-- http://purl.org/oseg/ontologies/OTRL#OTRL&#45;9 -->
<g id="node5" class="node">
<title>http://purl.org/oseg/ontologies/OTRL#OTRL&#45;9</title>
<ellipse fill="none" stroke="#e377c2" cx="491.01" cy="-409.67" rx="49.49" ry="16.03"/>
<text text-anchor="middle" x="491.01" y="-405.97" font-family="Times,serif" font-size="14.00">OTRL&#45;9</text>
</g>
<!-- http://purl.org/oseg/ontologies/OTRL#OTRL&#45;9&#45;&gt;http://purl.org/oseg/ontologies/OTRL#OTRL -->
<g id="edge33" class="edge">
<title>http://purl.org/oseg/ontologies/OTRL#OTRL&#45;9&#45;&gt;http://purl.org/oseg/ontologies/OTRL#OTRL</title>
<path fill="none" stroke="black" d="M475.5,-425.23C456.32,-444.47 423.55,-477.34 401.7,-499.27"/>
<polygon fill="black" stroke="black" points="399.04,-496.97 394.46,-506.52 404,-501.91 399.04,-496.97"/>
</g>
<!-- http://purl.org/oseg/ontologies/OTRL#OTRL&#45;9&#45;&gt;http://www.w3.org/2002/07/owl#class -->
<g id="edge25" class="edge">
<title>http://purl.org/oseg/ontologies/OTRL#OTRL&#45;9&#45;&gt;http://www.w3.org/2002/07/owl#class</title>
<path fill="none" stroke="black" d="M467.04,-395.29C428.35,-372.08 352.05,-326.32 308.08,-299.94"/>
<polygon fill="black" stroke="black" points="309.85,-296.92 299.47,-294.78 306.25,-302.93 309.85,-296.92"/>
<text text-anchor="middle" x="383.06" y="-351.42" font-family="Times,serif" font-size="14.00">a</text>
</g>
<!-- http://purl.org/oseg/ontologies/OTRL#documentationDescription -->
<g id="node6" class="node">
<title>http://purl.org/oseg/ontologies/OTRL#documentationDescription</title>
<ellipse fill="none" stroke="#e377c2" cx="642.96" cy="-702.04" rx="120.83" ry="16.03"/>
<text text-anchor="middle" x="642.96" y="-698.34" font-family="Times,serif" font-size="14.00">documentationDesc...</text>
</g>
<!-- http://purl.org/oseg/ontologies/OTRL#documentationDescription&#45;&gt;http://purl.org/oseg/ontologies/OTRL#OTRL -->
<g id="edge7" class="edge">
<title>http://purl.org/oseg/ontologies/OTRL#documentationDescription&#45;&gt;http://purl.org/oseg/ontologies/OTRL#OTRL</title>
<path fill="none" stroke="black" d="M619.57,-686.03C571.34,-653.01 460.97,-577.43 408.36,-541.4"/>
<polygon fill="black" stroke="black" points="410.06,-538.33 399.83,-535.56 406.11,-544.1 410.06,-538.33"/>
<text text-anchor="middle" x="487.47" y="-617.52" font-family="Times,serif" font-size="14.00">domain</text>
</g>
<!-- http://schema.org/Text -->
<g id="node14" class="node">
<title>http://schema.org/Text</title>
<ellipse fill="none" stroke="#e377c2" cx="544.57" cy="-976.27" rx="74.91" ry="16.03"/>
<text text-anchor="middle" x="544.57" y="-972.57" font-family="Times,serif" font-size="14.00">schema:Text</text>
</g>
<!-- http://purl.org/oseg/ontologies/OTRL#documentationDescription&#45;&gt;http://schema.org/Text -->
<g id="edge16" class="edge">
<title>http://purl.org/oseg/ontologies/OTRL#documentationDescription&#45;&gt;http://schema.org/Text</title>
<path fill="none" stroke="black" d="M637.1,-718.38C620.62,-764.29 573.8,-894.79 553.81,-950.53"/>
<polygon fill="black" stroke="black" points="550.48,-949.43 550.4,-960.03 557.07,-951.79 550.48,-949.43"/>
<text text-anchor="middle" x="574.45" y="-838.25" font-family="Times,serif" font-size="14.00">range</text>
</g>
<!-- http://purl.org/oseg/ontologies/OTRL#ODRL&#45;5 -->
<g id="node7" class="node">
<title>http://purl.org/oseg/ontologies/OTRL#ODRL&#45;5</title>
<ellipse fill="none" stroke="#e377c2" cx="210.64" cy="-16.65" rx="50.82" ry="16.03"/>
<text text-anchor="middle" x="210.64" y="-12.95" font-family="Times,serif" font-size="14.00">ODRL&#45;5</text>
</g>
<!-- http://purl.org/oseg/ontologies/OTRL#ODRL&#45;5&#45;&gt;http://purl.org/oseg/ontologies/OTRL#ODRL -->
<g id="edge28" class="edge">
<title>http://purl.org/oseg/ontologies/OTRL#ODRL&#45;5&#45;&gt;http://purl.org/oseg/ontologies/OTRL#ODRL</title>
<path fill="none" stroke="black" d="M210.58,-33.22C210.53,-48.18 210.44,-70.45 210.38,-87.87"/>
<polygon fill="black" stroke="black" points="206.88,-87.97 210.34,-97.98 213.88,-87.99 206.88,-87.97"/>
</g>
<!-- http://purl.org/oseg/ontologies/OTRL#ODRL&#45;5&#45;&gt;http://www.w3.org/2002/07/owl#class -->
<g id="edge4" class="edge">
<title>http://purl.org/oseg/ontologies/OTRL#ODRL&#45;5&#45;&gt;http://www.w3.org/2002/07/owl#class</title>
<path fill="none" stroke="black" d="M214.65,-33.12C225.44,-77.45 255.17,-199.57 268.32,-253.62"/>
<polygon fill="black" stroke="black" points="264.95,-254.59 270.72,-263.48 271.76,-252.93 264.95,-254.59"/>
<text text-anchor="middle" x="236.99" y="-147.17" font-family="Times,serif" font-size="14.00">a</text>
</g>
<!-- http://purl.org/oseg/ontologies/OTRL#ODRL&#45;2 -->
<g id="node8" class="node">
<title>http://purl.org/oseg/ontologies/OTRL#ODRL&#45;2</title>
<ellipse fill="none" stroke="#e377c2" cx="52.27" cy="-226.53" rx="50.82" ry="16.03"/>
<text text-anchor="middle" x="52.27" y="-222.83" font-family="Times,serif" font-size="14.00">ODRL&#45;2</text>
</g>
<!-- http://purl.org/oseg/ontologies/OTRL#ODRL&#45;2&#45;&gt;http://purl.org/oseg/ontologies/OTRL#ODRL -->
<g id="edge37" class="edge">
<title>http://purl.org/oseg/ontologies/OTRL#ODRL&#45;2&#45;&gt;http://purl.org/oseg/ontologies/OTRL#ODRL</title>
<path fill="none" stroke="black" d="M73.25,-211.63C101.03,-191.9 150.14,-157.02 181.4,-134.81"/>
<polygon fill="black" stroke="black" points="183.59,-137.55 189.71,-128.91 179.53,-131.85 183.59,-137.55"/>
</g>
<!-- http://purl.org/oseg/ontologies/OTRL#ODRL&#45;2&#45;&gt;http://www.w3.org/2002/07/owl#class -->
<g id="edge26" class="edge">
<title>http://purl.org/oseg/ontologies/OTRL#ODRL&#45;2&#45;&gt;http://www.w3.org/2002/07/owl#class</title>
<path fill="none" stroke="black" d="M93.07,-236.33C128.96,-244.94 181.46,-257.55 220.8,-266.99"/>
<polygon fill="black" stroke="black" points="220.22,-270.45 230.76,-269.38 221.85,-263.65 220.22,-270.45"/>
<text text-anchor="middle" x="152.44" y="-255.46" font-family="Times,serif" font-size="14.00">a</text>
</g>
<!-- http://purl.org/oseg/ontologies/OTRL#OTRL&#45;4 -->
<g id="node9" class="node">
<title>http://purl.org/oseg/ontologies/OTRL#OTRL&#45;4</title>
<ellipse fill="none" stroke="#e377c2" cx="281.85" cy="-508.39" rx="49.49" ry="16.03"/>
<text text-anchor="middle" x="281.85" y="-504.69" font-family="Times,serif" font-size="14.00">OTRL&#45;4</text>
</g>
<!-- http://purl.org/oseg/ontologies/OTRL#OTRL&#45;4&#45;&gt;http://purl.org/oseg/ontologies/OTRL#OTRL -->
<g id="edge14" class="edge">
<title>http://purl.org/oseg/ontologies/OTRL#OTRL&#45;4&#45;&gt;http://purl.org/oseg/ontologies/OTRL#OTRL</title>
<path fill="none" stroke="black" d="M327.79,-514.61C329.09,-514.78 330.4,-514.96 331.71,-515.14"/>
<polygon fill="black" stroke="black" points="331.28,-518.61 341.66,-516.49 332.22,-511.68 331.28,-518.61"/>
</g>
<!-- http://purl.org/oseg/ontologies/OTRL#OTRL&#45;4&#45;&gt;http://www.w3.org/2002/07/owl#class -->
<g id="edge5" class="edge">
<title>http://purl.org/oseg/ontologies/OTRL#OTRL&#45;4&#45;&gt;http://www.w3.org/2002/07/owl#class</title>
<path fill="none" stroke="black" d="M281.34,-491.96C280.12,-452.86 277.04,-353.98 275.55,-306.36"/>
<polygon fill="black" stroke="black" points="279.05,-306.11 275.24,-296.22 272.05,-306.33 279.05,-306.11"/>
<text text-anchor="middle" x="273.94" y="-387.96" font-family="Times,serif" font-size="14.00">a</text>
</g>
<!-- http://purl.org/oseg/ontologies/OTRL#OTRL&#45;7 -->
<g id="node10" class="node">
<title>http://purl.org/oseg/ontologies/OTRL#OTRL&#45;7</title>
<ellipse fill="none" stroke="#e377c2" cx="371.22" cy="-348.84" rx="49.49" ry="16.03"/>
<text text-anchor="middle" x="371.22" y="-345.14" font-family="Times,serif" font-size="14.00">OTRL&#45;7</text>
</g>
<!-- http://purl.org/oseg/ontologies/OTRL#OTRL&#45;7&#45;&gt;http://purl.org/oseg/ontologies/OTRL#OTRL -->
<g id="edge3" class="edge">
<title>http://purl.org/oseg/ontologies/OTRL#OTRL&#45;7&#45;&gt;http://purl.org/oseg/ontologies/OTRL#OTRL</title>
<path fill="none" stroke="black" d="M372.01,-365.4C373.43,-395.41 376.46,-458.97 378.18,-495.08"/>
<polygon fill="black" stroke="black" points="374.69,-495.51 378.66,-505.34 381.68,-495.18 374.69,-495.51"/>
</g>
<!-- http://purl.org/oseg/ontologies/OTRL#OTRL&#45;7&#45;&gt;http://www.w3.org/2002/07/owl#class -->
<g id="edge6" class="edge">
<title>http://purl.org/oseg/ontologies/OTRL#OTRL&#45;7&#45;&gt;http://www.w3.org/2002/07/owl#class</title>
<path fill="none" stroke="black" d="M350.28,-333.89C336.84,-324.3 319.19,-311.69 304.33,-301.08"/>
<polygon fill="black" stroke="black" points="306.13,-298.06 295.96,-295.1 302.06,-303.76 306.13,-298.06"/>
<text text-anchor="middle" x="322.81" y="-321.28" font-family="Times,serif" font-size="14.00">a</text>
</g>
<!-- http://purl.org/oseg/ontologies/OTRL#ODRL&#45;0 -->
<g id="node11" class="node">
<title>http://purl.org/oseg/ontologies/OTRL#ODRL&#45;0</title>
<ellipse fill="none" stroke="#e377c2" cx="320.76" cy="-25.77" rx="50.82" ry="16.03"/>
<text text-anchor="middle" x="320.76" y="-22.07" font-family="Times,serif" font-size="14.00">ODRL&#45;0</text>
</g>
<!-- http://purl.org/oseg/ontologies/OTRL#ODRL&#45;0&#45;&gt;http://purl.org/oseg/ontologies/OTRL#ODRL -->
<g id="edge9" class="edge">
<title>http://purl.org/oseg/ontologies/OTRL#ODRL&#45;0&#45;&gt;http://purl.org/oseg/ontologies/OTRL#ODRL</title>
<path fill="none" stroke="black" d="M301.52,-41.19C283.48,-55.65 256.37,-77.37 236.38,-93.39"/>
<polygon fill="black" stroke="black" points="234.19,-90.66 228.57,-99.65 238.56,-96.12 234.19,-90.66"/>
</g>
<!-- http://purl.org/oseg/ontologies/OTRL#ODRL&#45;0&#45;&gt;http://www.w3.org/2002/07/owl#class -->
<g id="edge27" class="edge">
<title>http://purl.org/oseg/ontologies/OTRL#ODRL&#45;0&#45;&gt;http://www.w3.org/2002/07/owl#class</title>
<path fill="none" stroke="black" d="M317.81,-42.06C310.05,-84.9 289.01,-201.07 279.5,-253.56"/>
<polygon fill="black" stroke="black" points="276.05,-253 277.71,-263.46 282.94,-254.25 276.05,-253"/>
<text text-anchor="middle" x="294.16" y="-151.61" font-family="Times,serif" font-size="14.00">a</text>
</g>
<!-- http://purl.org/oseg/ontologies/OTRL#ODRL&#45;1 -->
<g id="node12" class="node">
<title>http://purl.org/oseg/ontologies/OTRL#ODRL&#45;1</title>
<ellipse fill="none" stroke="#e377c2" cx="100.46" cy="-79.47" rx="50.82" ry="16.03"/>
<text text-anchor="middle" x="100.46" y="-75.77" font-family="Times,serif" font-size="14.00">ODRL&#45;1</text>
</g>
<!-- http://purl.org/oseg/ontologies/OTRL#ODRL&#45;1&#45;&gt;http://purl.org/oseg/ontologies/OTRL#ODRL -->
<g id="edge22" class="edge">
<title>http://purl.org/oseg/ontologies/OTRL#ODRL&#45;1&#45;&gt;http://purl.org/oseg/ontologies/OTRL#ODRL</title>
<path fill="none" stroke="black" d="M136.72,-90.97C146.76,-94.16 157.74,-97.64 168.09,-100.92"/>
<polygon fill="black" stroke="black" points="167.17,-104.3 177.76,-103.99 169.28,-97.63 167.17,-104.3"/>
</g>
<!-- http://purl.org/oseg/ontologies/OTRL#ODRL&#45;1&#45;&gt;http://www.w3.org/2002/07/owl#class -->
<g id="edge10" class="edge">
<title>http://purl.org/oseg/ontologies/OTRL#ODRL&#45;1&#45;&gt;http://www.w3.org/2002/07/owl#class</title>
<path fill="none" stroke="black" d="M114.13,-95.2C144.6,-130.25 218.2,-214.91 254.2,-256.33"/>
<polygon fill="black" stroke="black" points="251.67,-258.76 260.88,-264.01 256.96,-254.16 251.67,-258.76"/>
<text text-anchor="middle" x="179.67" y="-179.57" font-family="Times,serif" font-size="14.00">a</text>
</g>
<!-- http://purl.org/oseg/ontologies/OTRL#OTRL&#45;3 -->
<g id="node13" class="node">
<title>http://purl.org/oseg/ontologies/OTRL#OTRL&#45;3</title>
<ellipse fill="none" stroke="#e377c2" cx="237.07" cy="-418.82" rx="49.49" ry="16.03"/>
<text text-anchor="middle" x="237.07" y="-415.12" font-family="Times,serif" font-size="14.00">OTRL&#45;3</text>
</g>
<!-- http://purl.org/oseg/ontologies/OTRL#OTRL&#45;3&#45;&gt;http://purl.org/oseg/ontologies/OTRL#OTRL -->
<g id="edge36" class="edge">
<title>http://purl.org/oseg/ontologies/OTRL#OTRL&#45;3&#45;&gt;http://purl.org/oseg/ontologies/OTRL#OTRL</title>
<path fill="none" stroke="black" d="M257.78,-433.76C282.41,-451.55 323.66,-481.33 351.21,-501.22"/>
<polygon fill="black" stroke="black" points="349.47,-504.28 359.63,-507.3 353.57,-498.61 349.47,-504.28"/>
</g>
<!-- http://purl.org/oseg/ontologies/OTRL#OTRL&#45;3&#45;&gt;http://www.w3.org/2002/07/owl#class -->
<g id="edge11" class="edge">
<title>http://purl.org/oseg/ontologies/OTRL#OTRL&#45;3&#45;&gt;http://www.w3.org/2002/07/owl#class</title>
<path fill="none" stroke="black" d="M241.47,-402.62C247.89,-378.91 259.93,-334.52 267.63,-306.14"/>
<polygon fill="black" stroke="black" points="271.01,-307.04 270.25,-296.47 264.25,-305.21 271.01,-307.04"/>
<text text-anchor="middle" x="250.05" y="-358.18" font-family="Times,serif" font-size="14.00">a</text>
</g>
<!-- http://purl.org/oseg/ontologies/OTRL#OTRL&#45;8 -->
<g id="node15" class="node">
<title>http://purl.org/oseg/ontologies/OTRL#OTRL&#45;8</title>
<ellipse fill="none" stroke="#e377c2" cx="512.28" cy="-356.77" rx="49.49" ry="16.03"/>
<text text-anchor="middle" x="512.28" y="-353.07" font-family="Times,serif" font-size="14.00">OTRL&#45;8</text>
</g>
<!-- http://purl.org/oseg/ontologies/OTRL#OTRL&#45;8&#45;&gt;http://purl.org/oseg/ontologies/OTRL#OTRL -->
<g id="edge17" class="edge">
<title>http://purl.org/oseg/ontologies/OTRL#OTRL&#45;8&#45;&gt;http://purl.org/oseg/ontologies/OTRL#OTRL</title>
<path fill="none" stroke="black" d="M499.54,-372.57C476.07,-401.69 425.9,-463.95 398.41,-498.05"/>
<polygon fill="black" stroke="black" points="395.49,-496.1 391.94,-506.08 400.94,-500.49 395.49,-496.1"/>
</g>
<!-- http://purl.org/oseg/ontologies/OTRL#OTRL&#45;8&#45;&gt;http://www.w3.org/2002/07/owl#class -->
<g id="edge32" class="edge">
<title>http://purl.org/oseg/ontologies/OTRL#OTRL&#45;8&#45;&gt;http://www.w3.org/2002/07/owl#class</title>
<path fill="none" stroke="black" d="M476.97,-345.35C435.91,-332.07 367.94,-310.09 322.26,-295.32"/>
<polygon fill="black" stroke="black" points="323.18,-291.93 312.59,-292.19 321.03,-298.59 323.18,-291.93"/>
<text text-anchor="middle" x="395.12" y="-309.13" font-family="Times,serif" font-size="14.00">a</text>
</g>
<!-- http://purl.org/oseg/ontologies/OTRL#OTRL&#45;6 -->
<g id="node16" class="node">
<title>http://purl.org/oseg/ontologies/OTRL#OTRL&#45;6</title>
<ellipse fill="none" stroke="#e377c2" cx="461.86" cy="-302.97" rx="49.49" ry="16.03"/>
<text text-anchor="middle" x="461.86" y="-299.27" font-family="Times,serif" font-size="14.00">OTRL&#45;6</text>
</g>
<!-- http://purl.org/oseg/ontologies/OTRL#OTRL&#45;6&#45;&gt;http://purl.org/oseg/ontologies/OTRL#OTRL -->
<g id="edge21" class="edge">
<title>http://purl.org/oseg/ontologies/OTRL#OTRL&#45;6&#45;&gt;http://purl.org/oseg/ontologies/OTRL#OTRL</title>
<path fill="none" stroke="black" d="M455.67,-319.41C441.43,-357.17 406.3,-450.36 389.15,-495.82"/>
<polygon fill="black" stroke="black" points="385.84,-494.68 385.59,-505.27 392.39,-497.15 385.84,-494.68"/>
</g>
<!-- http://purl.org/oseg/ontologies/OTRL#OTRL&#45;6&#45;&gt;http://www.w3.org/2002/07/owl#class -->
<g id="edge12" class="edge">
<title>http://purl.org/oseg/ontologies/OTRL#OTRL&#45;6&#45;&gt;http://www.w3.org/2002/07/owl#class</title>
<path fill="none" stroke="black" d="M415.12,-297.22C391.72,-294.34 363.04,-290.81 337.72,-287.69"/>
<polygon fill="black" stroke="black" points="337.82,-284.18 327.47,-286.43 336.97,-291.13 337.82,-284.18"/>
<text text-anchor="middle" x="371.92" y="-296.26" font-family="Times,serif" font-size="14.00">a</text>
</g>
<!-- http://purl.org/oseg/ontologies/OTRL#ODRL&#45;4 -->
<g id="node17" class="node">
<title>http://purl.org/oseg/ontologies/OTRL#ODRL&#45;4</title>
<ellipse fill="none" stroke="#e377c2" cx="381.15" cy="-76.4" rx="50.82" ry="16.03"/>
<text text-anchor="middle" x="381.15" y="-72.7" font-family="Times,serif" font-size="14.00">ODRL&#45;4</text>
</g>
<!-- http://purl.org/oseg/ontologies/OTRL#ODRL&#45;4&#45;&gt;http://purl.org/oseg/ontologies/OTRL#ODRL -->
<g id="edge2" class="edge">
<title>http://purl.org/oseg/ontologies/OTRL#ODRL&#45;4&#45;&gt;http://purl.org/oseg/ontologies/OTRL#ODRL</title>
<path fill="none" stroke="black" d="M338.91,-85.77C313.96,-91.31 282.34,-98.32 256.69,-104.01"/>
<polygon fill="black" stroke="black" points="255.83,-100.61 246.82,-106.2 257.34,-107.45 255.83,-100.61"/>
</g>
<!-- http://purl.org/oseg/ontologies/OTRL#ODRL&#45;4&#45;&gt;http://www.w3.org/2002/07/owl#class -->
<g id="edge34" class="edge">
<title>http://purl.org/oseg/ontologies/OTRL#ODRL&#45;4&#45;&gt;http://www.w3.org/2002/07/owl#class</title>
<path fill="none" stroke="black" d="M372.62,-92.72C354.09,-128.16 310.04,-212.41 287.9,-254.75"/>
<polygon fill="black" stroke="black" points="284.68,-253.35 283.15,-263.83 290.88,-256.59 284.68,-253.35"/>
<text text-anchor="middle" x="325.76" y="-177.53" font-family="Times,serif" font-size="14.00">a</text>
</g>
<!-- http://purl.org/oseg/ontologies/OTRL#OTRL&#45;5 -->
<g id="node18" class="node">
<title>http://purl.org/oseg/ontologies/OTRL#OTRL&#45;5</title>
<ellipse fill="none" stroke="#e377c2" cx="151.45" cy="-466.63" rx="49.49" ry="16.03"/>
<text text-anchor="middle" x="151.45" y="-462.93" font-family="Times,serif" font-size="14.00">OTRL&#45;5</text>
</g>
<!-- http://purl.org/oseg/ontologies/OTRL#OTRL&#45;5&#45;&gt;http://purl.org/oseg/ontologies/OTRL#OTRL -->
<g id="edge29" class="edge">
<title>http://purl.org/oseg/ontologies/OTRL#OTRL&#45;5&#45;&gt;http://purl.org/oseg/ontologies/OTRL#OTRL</title>
<path fill="none" stroke="black" d="M191.42,-476.27C231.65,-485.97 293.55,-500.89 335.23,-510.94"/>
<polygon fill="black" stroke="black" points="334.56,-514.38 345.1,-513.32 336.2,-507.57 334.56,-514.38"/>
</g>
<!-- http://purl.org/oseg/ontologies/OTRL#OTRL&#45;5&#45;&gt;http://www.w3.org/2002/07/owl#class -->
<g id="edge35" class="edge">
<title>http://purl.org/oseg/ontologies/OTRL#OTRL&#45;5&#45;&gt;http://www.w3.org/2002/07/owl#class</title>
<path fill="none" stroke="black" d="M161.96,-450.72C183.47,-418.14 232.64,-343.68 258.36,-304.73"/>
<polygon fill="black" stroke="black" points="261.48,-306.36 264.07,-296.08 255.64,-302.5 261.48,-306.36"/>
<text text-anchor="middle" x="205.66" y="-381.52" font-family="Times,serif" font-size="14.00">a</text>
</g>
<!-- http://purl.org/oseg/ontologies/OTRL#exitCriteria -->
<g id="node19" class="node">
<title>http://purl.org/oseg/ontologies/OTRL#exitCriteria</title>
<ellipse fill="none" stroke="#e377c2" cx="402.27" cy="-779.9" rx="70.01" ry="16.03"/>
<text text-anchor="middle" x="402.27" y="-776.2" font-family="Times,serif" font-size="14.00">exitCriteria</text>
</g>
<!-- http://purl.org/oseg/ontologies/OTRL#exitCriteria&#45;&gt;http://purl.org/oseg/ontologies/OTRL#OTRL -->
<g id="edge19" class="edge">
<title>http://purl.org/oseg/ontologies/OTRL#exitCriteria&#45;&gt;http://purl.org/oseg/ontologies/OTRL#OTRL</title>
<path fill="none" stroke="black" d="M400.81,-763.35C396.95,-719.7 386.47,-601.18 381.77,-548.02"/>
<polygon fill="black" stroke="black" points="385.25,-547.66 380.89,-538.01 378.28,-548.28 385.25,-547.66"/>
<text text-anchor="middle" x="364.79" y="-659.49" font-family="Times,serif" font-size="14.00">domain</text>
</g>
<!-- http://purl.org/oseg/ontologies/OTRL#exitCriteria&#45;&gt;http://schema.org/Text -->
<g id="edge15" class="edge">
<title>http://purl.org/oseg/ontologies/OTRL#exitCriteria&#45;&gt;http://schema.org/Text</title>
<path fill="none" stroke="black" d="M413.91,-795.97C438.77,-830.28 497.18,-910.87 526.75,-951.67"/>
<polygon fill="black" stroke="black" points="524.06,-953.94 532.76,-959.98 529.73,-949.83 524.06,-953.94"/>
<text text-anchor="middle" x="449.33" y="-877.62" font-family="Times,serif" font-size="14.00">range</text>
</g>
<!-- http://purl.org/oseg/ontologies/OTRL -->
<g id="node20" class="node">
<title>http://purl.org/oseg/ontologies/OTRL</title>
<ellipse fill="none" stroke="#e377c2" cx="664.24" cy="-284.64" rx="60.62" ry="16.03"/>
<text text-anchor="middle" x="664.24" y="-280.94" font-family="Times,serif" font-size="14.00">ns1:OTRL</text>
</g>
<!-- http://purl.org/oseg/ontologies/OTRL&#45;&gt;http://purl.org/oseg/ontologies/OTRL -->
<g id="edge23" class="edge">
<title>http://purl.org/oseg/ontologies/OTRL&#45;&gt;http://purl.org/oseg/ontologies/OTRL</title>
<path fill="none" stroke="black" d="M719.84,-291.27C733.17,-290.75 743.05,-288.54 743.05,-284.64 743.05,-281.81 737.83,-279.86 729.87,-278.81"/>
<polygon fill="black" stroke="black" points="730.09,-275.32 719.84,-278.01 729.53,-282.3 730.09,-275.32"/>
<text text-anchor="middle" x="794.55" y="-280.94" font-family="Times,serif" font-size="14.00">owl:versionIRI</text>
</g>
<!-- http://purl.org/oseg/ontologies/OTRL#softwareDescription -->
<g id="node21" class="node">
<title>http://purl.org/oseg/ontologies/OTRL#softwareDescription</title>
<ellipse fill="none" stroke="#e377c2" cx="323.02" cy="-833.38" rx="113.69" ry="16.03"/>
<text text-anchor="middle" x="323.02" y="-829.68" font-family="Times,serif" font-size="14.00">softwareDescription</text>
</g>
<!-- http://purl.org/oseg/ontologies/OTRL#softwareDescription&#45;&gt;http://purl.org/oseg/ontologies/OTRL#OTRL -->
<g id="edge8" class="edge">
<title>http://purl.org/oseg/ontologies/OTRL#softwareDescription&#45;&gt;http://purl.org/oseg/ontologies/OTRL#OTRL</title>
<path fill="none" stroke="black" d="M325.98,-817.05C335.17,-766.24 363.34,-610.56 374.66,-548.02"/>
<polygon fill="black" stroke="black" points="378.11,-548.6 376.44,-538.14 371.22,-547.35 378.11,-548.6"/>
<text text-anchor="middle" x="323.82" y="-686.33" font-family="Times,serif" font-size="14.00">domain</text>
</g>
<!-- http://purl.org/oseg/ontologies/OTRL#softwareDescription&#45;&gt;http://schema.org/Text -->
<g id="edge20" class="edge">
<title>http://purl.org/oseg/ontologies/OTRL#softwareDescription&#45;&gt;http://schema.org/Text</title>
<path fill="none" stroke="black" d="M348.01,-849.49C388.21,-875.42 467.28,-926.42 511.91,-955.21"/>
<polygon fill="black" stroke="black" points="510.05,-958.17 520.35,-960.65 513.85,-952.29 510.05,-958.17"/>
<text text-anchor="middle" x="408.96" y="-906.15" font-family="Times,serif" font-size="14.00">range</text>
</g>
<!-- http://purl.org/oseg/ontologies/OTRL#hardwareDescription -->
<g id="node22" class="node">
<title>http://purl.org/oseg/ontologies/OTRL#hardwareDescription</title>
<ellipse fill="none" stroke="#e377c2" cx="598.83" cy="-753.71" rx="118.17" ry="16.03"/>
<text text-anchor="middle" x="598.83" y="-750.01" font-family="Times,serif" font-size="14.00">hardwareDescription</text>
</g>
<!-- http://purl.org/oseg/ontologies/OTRL#hardwareDescription&#45;&gt;http://purl.org/oseg/ontologies/OTRL#OTRL -->
<g id="edge13" class="edge">
<title>http://purl.org/oseg/ontologies/OTRL#hardwareDescription&#45;&gt;http://purl.org/oseg/ontologies/OTRL#OTRL</title>
<path fill="none" stroke="black" d="M583.4,-737.39C545.05,-696.81 445.29,-591.26 401.07,-544.49"/>
<polygon fill="black" stroke="black" points="403.39,-541.85 393.98,-536.99 398.31,-546.66 403.39,-541.85"/>
<text text-anchor="middle" x="465.74" y="-644.74" font-family="Times,serif" font-size="14.00">domain</text>
</g>
<!-- http://purl.org/oseg/ontologies/OTRL#hardwareDescription&#45;&gt;http://schema.org/Text -->
<g id="edge31" class="edge">
<title>http://purl.org/oseg/ontologies/OTRL#hardwareDescription&#45;&gt;http://schema.org/Text</title>
<path fill="none" stroke="black" d="M594.84,-770.08C585.53,-808.26 562.31,-903.51 550.98,-949.97"/>
<polygon fill="black" stroke="black" points="547.53,-949.34 548.57,-959.88 554.34,-951 547.53,-949.34"/>
<text text-anchor="middle" x="551.91" y="-863.82" font-family="Times,serif" font-size="14.00">range</text>
</g>
<!-- http://purl.org/oseg/ontologies/OTRL#OTRL&#45;1 -->
<g id="node23" class="node">
<title>http://purl.org/oseg/ontologies/OTRL#OTRL&#45;1</title>
<ellipse fill="none" stroke="#e377c2" cx="168.64" cy="-517.03" rx="49.49" ry="16.03"/>
<text text-anchor="middle" x="168.64" y="-513.33" font-family="Times,serif" font-size="14.00">OTRL&#45;1</text>
</g>
<!-- http://purl.org/oseg/ontologies/OTRL#OTRL&#45;1&#45;&gt;http://purl.org/oseg/ontologies/OTRL#OTRL -->
<g id="edge30" class="edge">
<title>http://purl.org/oseg/ontologies/OTRL#OTRL&#45;1&#45;&gt;http://purl.org/oseg/ontologies/OTRL#OTRL</title>
<path fill="none" stroke="black" d="M218.07,-518.1C251.7,-518.83 296.05,-519.79 329.74,-520.52"/>
<polygon fill="black" stroke="black" points="329.76,-524.02 339.83,-520.74 329.91,-517.02 329.76,-524.02"/>
</g>
<!-- http://purl.org/oseg/ontologies/OTRL#OTRL&#45;1&#45;&gt;http://www.w3.org/2002/07/owl#class -->
<g id="edge24" class="edge">
<title>http://purl.org/oseg/ontologies/OTRL#OTRL&#45;1&#45;&gt;http://www.w3.org/2002/07/owl#class</title>
<path fill="none" stroke="black" d="M175.94,-500.73C194.07,-460.21 241.3,-354.65 263.23,-305.64"/>
<polygon fill="black" stroke="black" points="266.5,-306.91 267.38,-296.35 260.11,-304.05 266.5,-306.91"/>
<text text-anchor="middle" x="215.08" y="-391.98" font-family="Times,serif" font-size="14.00">a</text>
</g>
<!-- http://purl.org/oseg/ontologies/OTRL#OTRL&#45;2 -->
<g id="node24" class="node">
<title>http://purl.org/oseg/ontologies/OTRL#OTRL&#45;2</title>
<ellipse fill="none" stroke="#e377c2" cx="380.3" cy="-445.61" rx="49.49" ry="16.03"/>
<text text-anchor="middle" x="380.3" y="-441.91" font-family="Times,serif" font-size="14.00">OTRL&#45;2</text>
</g>
<!-- http://purl.org/oseg/ontologies/OTRL#OTRL&#45;2&#45;&gt;http://purl.org/oseg/ontologies/OTRL#OTRL -->
<g id="edge39" class="edge">
<title>http://purl.org/oseg/ontologies/OTRL#OTRL&#45;2&#45;&gt;http://purl.org/oseg/ontologies/OTRL#OTRL</title>
<path fill="none" stroke="black" d="M380.11,-462.1C380,-471.66 379.86,-483.93 379.74,-494.84"/>
<polygon fill="black" stroke="black" points="376.24,-495.1 379.62,-505.14 383.24,-495.18 376.24,-495.1"/>
</g>
<!-- http://purl.org/oseg/ontologies/OTRL#OTRL&#45;2&#45;&gt;http://www.w3.org/2002/07/owl#class -->
<g id="edge41" class="edge">
<title>http://purl.org/oseg/ontologies/OTRL#OTRL&#45;2&#45;&gt;http://www.w3.org/2002/07/owl#class</title>
<path fill="none" stroke="black" d="M369.99,-429.42C351.41,-400.28 312.24,-338.8 290.35,-304.46"/>
<polygon fill="black" stroke="black" points="293.25,-302.5 284.93,-295.95 287.35,-306.26 293.25,-302.5"/>
<text text-anchor="middle" x="325.67" y="-370.74" font-family="Times,serif" font-size="14.00">a</text>
</g>
</g>
</svg>
