<?xml version="1.0" encoding="UTF-8" standalone="no"?>
<!DOCTYPE svg PUBLIC "-//W3C//DTD SVG 1.1//EN"
 "http://www.w3.org/Graphics/SVG/1.1/DTD/svg11.dtd">
<!-- Generated by graphviz version 2.43.0 (0)
 -->
<!-- Title: G Pages: 1 -->
<svg width="1929pt" height="1851pt"
 viewBox="0.00 0.00 1929.00 1851.00" xmlns="http://www.w3.org/2000/svg" xmlns:xlink="http://www.w3.org/1999/xlink">
<g id="graph0" class="graph" transform="scale(1 1) rotate(0) translate(4 1847)">
<title>G</title>
<polygon fill="white" stroke="transparent" points="-4,4 -4,-1847 1925,-1847 1925,4 -4,4"/>
<!-- http://purl.org/oseg/ontologies/OTRL#OTRL2 -->
<g id="node1" class="node">
<title>http://purl.org/oseg/ontologies/OTRL#OTRL2</title>
<ellipse fill="none" stroke="#e377c2" cx="906.53" cy="-469.15" rx="45.92" ry="16.03"/>
<text text-anchor="middle" x="906.53" y="-465.45" font-family="Times,serif" font-size="14.00">OTRL2</text>
</g>
<!-- http://purl.org/oseg/ontologies/OTRL#OTRL -->
<g id="node7" class="node">
<title>http://purl.org/oseg/ontologies/OTRL#OTRL</title>
<ellipse fill="none" stroke="#e377c2" cx="1080.28" cy="-580.18" rx="39.7" ry="16.03"/>
<text text-anchor="middle" x="1080.28" y="-576.48" font-family="Times,serif" font-size="14.00">OTRL</text>
</g>
<!-- http://purl.org/oseg/ontologies/OTRL#OTRL2&#45;&gt;http://purl.org/oseg/ontologies/OTRL#OTRL -->
<g id="edge30" class="edge">
<title>http://purl.org/oseg/ontologies/OTRL#OTRL2&#45;&gt;http://purl.org/oseg/ontologies/OTRL#OTRL</title>
<path fill="none" stroke="black" d="M928.89,-483.44C959.76,-503.17 1015.55,-538.82 1050.1,-560.9"/>
<polygon fill="black" stroke="black" points="1048.51,-564.04 1058.82,-566.47 1052.28,-558.14 1048.51,-564.04"/>
</g>
<!-- http://purl.org/oseg/ontologies/OTRL#OTRL1 -->
<g id="node2" class="node">
<title>http://purl.org/oseg/ontologies/OTRL#OTRL1</title>
<ellipse fill="none" stroke="#e377c2" cx="978.58" cy="-402.2" rx="45.92" ry="16.03"/>
<text text-anchor="middle" x="978.58" y="-398.5" font-family="Times,serif" font-size="14.00">OTRL1</text>
</g>
<!-- http://purl.org/oseg/ontologies/OTRL#OTRL1&#45;&gt;http://purl.org/oseg/ontologies/OTRL#OTRL -->
<g id="edge44" class="edge">
<title>http://purl.org/oseg/ontologies/OTRL#OTRL1&#45;&gt;http://purl.org/oseg/ontologies/OTRL#OTRL</title>
<path fill="none" stroke="black" d="M987.79,-418.31C1005.56,-449.41 1044.72,-517.95 1065.94,-555.08"/>
<polygon fill="black" stroke="black" points="1063.17,-557.29 1071.17,-564.24 1069.25,-553.82 1063.17,-557.29"/>
</g>
<!-- http://purl.org/oseg/ontologies/OTRL#ODRL3Star -->
<g id="node3" class="node">
<title>http://purl.org/oseg/ontologies/OTRL#ODRL3Star</title>
<ellipse fill="none" stroke="#e377c2" cx="657.48" cy="-1101.81" rx="69.09" ry="16.03"/>
<text text-anchor="middle" x="657.48" y="-1098.11" font-family="Times,serif" font-size="14.00">ODRL3Star</text>
</g>
<!-- http://purl.org/oseg/ontologies/OTRL#ODRL -->
<g id="node5" class="node">
<title>http://purl.org/oseg/ontologies/OTRL#ODRL</title>
<ellipse fill="none" stroke="#e377c2" cx="873.92" cy="-1010.19" rx="41.94" ry="16.03"/>
<text text-anchor="middle" x="873.92" y="-1006.49" font-family="Times,serif" font-size="14.00">ODRL</text>
</g>
<!-- http://purl.org/oseg/ontologies/OTRL#ODRL3Star&#45;&gt;http://purl.org/oseg/ontologies/OTRL#ODRL -->
<g id="edge5" class="edge">
<title>http://purl.org/oseg/ontologies/OTRL#ODRL3Star&#45;&gt;http://purl.org/oseg/ontologies/OTRL#ODRL</title>
<path fill="none" stroke="black" d="M691.3,-1087.49C730.59,-1070.86 795.25,-1043.49 836.16,-1026.17"/>
<polygon fill="black" stroke="black" points="837.67,-1029.33 845.51,-1022.21 834.94,-1022.89 837.67,-1029.33"/>
</g>
<!-- http://purl.org/oseg/ontologies/OTRL#ODRL3 -->
<g id="node4" class="node">
<title>http://purl.org/oseg/ontologies/OTRL#ODRL3</title>
<ellipse fill="none" stroke="#e377c2" cx="863.19" cy="-1156.6" rx="48.17" ry="16.03"/>
<text text-anchor="middle" x="863.19" y="-1152.9" font-family="Times,serif" font-size="14.00">ODRL3</text>
</g>
<!-- http://purl.org/oseg/ontologies/OTRL#ODRL3&#45;&gt;http://purl.org/oseg/ontologies/OTRL#ODRL -->
<g id="edge43" class="edge">
<title>http://purl.org/oseg/ontologies/OTRL#ODRL3&#45;&gt;http://purl.org/oseg/ontologies/OTRL#ODRL</title>
<path fill="none" stroke="black" d="M864.4,-1140.09C866.23,-1115.04 869.74,-1067.19 871.95,-1037.08"/>
<polygon fill="black" stroke="black" points="875.46,-1037.09 872.7,-1026.86 868.48,-1036.58 875.46,-1037.09"/>
</g>
<!-- http://purl.org/oseg/ontologies/OTRL#ODRL4 -->
<g id="node6" class="node">
<title>http://purl.org/oseg/ontologies/OTRL#ODRL4</title>
<ellipse fill="none" stroke="#e377c2" cx="903.02" cy="-1241.32" rx="48.17" ry="16.03"/>
<text text-anchor="middle" x="903.02" y="-1237.62" font-family="Times,serif" font-size="14.00">ODRL4</text>
</g>
<!-- http://purl.org/oseg/ontologies/OTRL#ODRL4&#45;&gt;http://purl.org/oseg/ontologies/OTRL#ODRL -->
<g id="edge10" class="edge">
<title>http://purl.org/oseg/ontologies/OTRL#ODRL4&#45;&gt;http://purl.org/oseg/ontologies/OTRL#ODRL</title>
<path fill="none" stroke="black" d="M900.97,-1225.07C896.02,-1185.71 883.34,-1084.98 877.26,-1036.73"/>
<polygon fill="black" stroke="black" points="880.72,-1036.22 876,-1026.73 873.78,-1037.09 880.72,-1036.22"/>
</g>
<!-- http://purl.org/oseg/ontologies/OTRL#ODRL2 -->
<g id="node8" class="node">
<title>http://purl.org/oseg/ontologies/OTRL#ODRL2</title>
<ellipse fill="none" stroke="#e377c2" cx="673.84" cy="-980.23" rx="48.17" ry="16.03"/>
<text text-anchor="middle" x="673.84" y="-976.53" font-family="Times,serif" font-size="14.00">ODRL2</text>
</g>
<!-- http://purl.org/oseg/ontologies/OTRL#ODRL2&#45;&gt;http://purl.org/oseg/ontologies/OTRL#ODRL -->
<g id="edge22" class="edge">
<title>http://purl.org/oseg/ontologies/OTRL#ODRL2&#45;&gt;http://purl.org/oseg/ontologies/OTRL#ODRL</title>
<path fill="none" stroke="black" d="M718.24,-986.88C749.72,-991.59 791.97,-997.92 824.52,-1002.79"/>
<polygon fill="black" stroke="black" points="824.31,-1006.3 834.71,-1004.32 825.34,-999.38 824.31,-1006.3"/>
</g>
<!-- http://purl.org/oseg/ontologies/OTRL#OTRL5 -->
<g id="node9" class="node">
<title>http://purl.org/oseg/ontologies/OTRL#OTRL5</title>
<ellipse fill="none" stroke="#e377c2" cx="1289.81" cy="-537.52" rx="45.92" ry="16.03"/>
<text text-anchor="middle" x="1289.81" y="-533.82" font-family="Times,serif" font-size="14.00">OTRL5</text>
</g>
<!-- http://purl.org/oseg/ontologies/OTRL#OTRL5&#45;&gt;http://purl.org/oseg/ontologies/OTRL#OTRL -->
<g id="edge23" class="edge">
<title>http://purl.org/oseg/ontologies/OTRL#OTRL5&#45;&gt;http://purl.org/oseg/ontologies/OTRL#OTRL</title>
<path fill="none" stroke="black" d="M1249.91,-545.64C1214.53,-552.85 1162.87,-563.37 1125.87,-570.9"/>
<polygon fill="black" stroke="black" points="1124.95,-567.51 1115.85,-572.94 1126.34,-574.37 1124.95,-567.51"/>
</g>
<!-- http://purl.org/oseg/ontologies/OTRL#OTRL4 -->
<g id="node10" class="node">
<title>http://purl.org/oseg/ontologies/OTRL#OTRL4</title>
<ellipse fill="none" stroke="#e377c2" cx="1230.8" cy="-444.37" rx="45.92" ry="16.03"/>
<text text-anchor="middle" x="1230.8" y="-440.67" font-family="Times,serif" font-size="14.00">OTRL4</text>
</g>
<!-- http://purl.org/oseg/ontologies/OTRL#OTRL4&#45;&gt;http://purl.org/oseg/ontologies/OTRL#OTRL -->
<g id="edge33" class="edge">
<title>http://purl.org/oseg/ontologies/OTRL#OTRL4&#45;&gt;http://purl.org/oseg/ontologies/OTRL#OTRL</title>
<path fill="none" stroke="black" d="M1213.83,-459.69C1187.15,-483.76 1135.29,-530.55 1104.64,-558.2"/>
<polygon fill="black" stroke="black" points="1102.04,-555.83 1096.96,-565.13 1106.73,-561.03 1102.04,-555.83"/>
</g>
<!-- http://purl.org/oseg/ontologies/OTRL#OTRL6 -->
<g id="node11" class="node">
<title>http://purl.org/oseg/ontologies/OTRL#OTRL6</title>
<ellipse fill="none" stroke="#e377c2" cx="1272.18" cy="-633.09" rx="45.92" ry="16.03"/>
<text text-anchor="middle" x="1272.18" y="-629.39" font-family="Times,serif" font-size="14.00">OTRL6</text>
</g>
<!-- http://purl.org/oseg/ontologies/OTRL#OTRL6&#45;&gt;http://purl.org/oseg/ontologies/OTRL#OTRL -->
<g id="edge29" class="edge">
<title>http://purl.org/oseg/ontologies/OTRL#OTRL6&#45;&gt;http://purl.org/oseg/ontologies/OTRL#OTRL</title>
<path fill="none" stroke="black" d="M1235.63,-623.01C1203.6,-614.18 1157.01,-601.34 1123.22,-592.02"/>
<polygon fill="black" stroke="black" points="1123.74,-588.53 1113.17,-589.25 1121.88,-595.28 1123.74,-588.53"/>
</g>
<!-- http://purl.org/oseg/ontologies/OTRL#OTRL3 -->
<g id="node12" class="node">
<title>http://purl.org/oseg/ontologies/OTRL#OTRL3</title>
<ellipse fill="none" stroke="#e377c2" cx="1078.59" cy="-361.82" rx="45.92" ry="16.03"/>
<text text-anchor="middle" x="1078.59" y="-358.12" font-family="Times,serif" font-size="14.00">OTRL3</text>
</g>
<!-- http://purl.org/oseg/ontologies/OTRL#OTRL3&#45;&gt;http://purl.org/oseg/ontologies/OTRL#OTRL -->
<g id="edge35" class="edge">
<title>http://purl.org/oseg/ontologies/OTRL#OTRL3&#45;&gt;http://purl.org/oseg/ontologies/OTRL#OTRL</title>
<path fill="none" stroke="black" d="M1078.72,-378.23C1079.01,-415.79 1079.72,-508.25 1080.08,-553.86"/>
<polygon fill="black" stroke="black" points="1076.58,-553.9 1080.15,-563.88 1083.58,-553.85 1076.58,-553.9"/>
</g>
<!-- http://purl.org/oseg/ontologies/OTRL#ODRL1 -->
<g id="node13" class="node">
<title>http://purl.org/oseg/ontologies/OTRL#ODRL1</title>
<ellipse fill="none" stroke="#e377c2" cx="1021.95" cy="-1150.02" rx="48.17" ry="16.03"/>
<text text-anchor="middle" x="1021.95" y="-1146.32" font-family="Times,serif" font-size="14.00">ODRL1</text>
</g>
<!-- http://purl.org/oseg/ontologies/OTRL#ODRL1&#45;&gt;http://purl.org/oseg/ontologies/OTRL#ODRL -->
<g id="edge18" class="edge">
<title>http://purl.org/oseg/ontologies/OTRL#ODRL1&#45;&gt;http://purl.org/oseg/ontologies/OTRL#ODRL</title>
<path fill="none" stroke="black" d="M1005.54,-1134.52C979.28,-1109.72 927.71,-1061 897.5,-1032.47"/>
<polygon fill="black" stroke="black" points="899.62,-1029.65 889.95,-1025.33 894.82,-1034.74 899.62,-1029.65"/>
</g>
<!-- http://purl.org/oseg/ontologies/OTRL -->
<g id="node14" class="node">
<title>http://purl.org/oseg/ontologies/OTRL</title>
<ellipse fill="none" stroke="#e377c2" cx="1365.61" cy="-1055.33" rx="60.62" ry="16.03"/>
<text text-anchor="middle" x="1365.61" y="-1051.63" font-family="Times,serif" font-size="14.00">ns1:OTRL</text>
</g>
<!-- http://purl.org/oseg/ontologies/OTRL&#45;&gt;http://purl.org/oseg/ontologies/OTRL -->
<g id="edge1" class="edge">
<title>http://purl.org/oseg/ontologies/OTRL&#45;&gt;http://purl.org/oseg/ontologies/OTRL</title>
<path fill="none" stroke="black" d="M1421.21,-1061.96C1434.54,-1061.44 1444.42,-1059.23 1444.42,-1055.33 1444.42,-1052.49 1439.2,-1050.55 1431.24,-1049.5"/>
<polygon fill="black" stroke="black" points="1431.46,-1046.01 1421.21,-1048.7 1430.9,-1052.98 1431.46,-1046.01"/>
<text text-anchor="middle" x="1495.92" y="-1051.63" font-family="Times,serif" font-size="14.00">owl:versionIRI</text>
</g>
<!-- https://www.gnu.org/licenses/gpl&#45;3.0.txt -->
<g id="node16" class="node">
<title>https://www.gnu.org/licenses/gpl&#45;3.0.txt</title>
<ellipse fill="none" stroke="#e377c2" cx="1524.66" cy="-1031.56" rx="85.62" ry="16.03"/>
<text text-anchor="middle" x="1524.66" y="-1027.86" font-family="Times,serif" font-size="14.00">ns2:gpl&#45;3.0.txt</text>
</g>
<!-- http://purl.org/oseg/ontologies/OTRL&#45;&gt;https://www.gnu.org/licenses/gpl&#45;3.0.txt -->
<g id="edge4" class="edge">
<title>http://purl.org/oseg/ontologies/OTRL&#45;&gt;https://www.gnu.org/licenses/gpl&#45;3.0.txt</title>
<path fill="none" stroke="black" d="M1425.8,-1052.96C1439.21,-1051.22 1453.41,-1049.1 1466.73,-1046.84"/>
<polygon fill="black" stroke="black" points="1467.47,-1050.26 1476.71,-1045.08 1466.26,-1043.36 1467.47,-1050.26"/>
<text text-anchor="middle" x="1502.76" y="-1053.7" font-family="Times,serif" font-size="14.00">dcterms:license</text>
</g>
<!-- http://purl.org/oseg/ontologies/OTRL&#45;&gt;https://www.gnu.org/licenses/gpl&#45;3.0.txt -->
<g id="edge17" class="edge">
<title>http://purl.org/oseg/ontologies/OTRL&#45;&gt;https://www.gnu.org/licenses/gpl&#45;3.0.txt</title>
<path fill="none" stroke="black" d="M1406.51,-1043.13C1414.99,-1041.5 1424.25,-1039.89 1433.74,-1038.37"/>
<polygon fill="black" stroke="black" points="1434.33,-1041.83 1443.67,-1036.84 1433.26,-1034.91 1434.33,-1041.83"/>
<text text-anchor="middle" x="1402.62" y="-1029.55" font-family="Times,serif" font-size="14.00">cc:license</text>
</g>
<!-- http://purl.org/oseg/ontologies/OTRL#exitCriteria -->
<g id="node15" class="node">
<title>http://purl.org/oseg/ontologies/OTRL#exitCriteria</title>
<ellipse fill="none" stroke="#e377c2" cx="1019.55" cy="-819.69" rx="70.01" ry="16.03"/>
<text text-anchor="middle" x="1019.55" y="-815.99" font-family="Times,serif" font-size="14.00">exitCriteria</text>
</g>
<!-- http://purl.org/oseg/ontologies/OTRL#exitCriteria&#45;&gt;http://purl.org/oseg/ontologies/OTRL#ODRL -->
<g id="edge9" class="edge">
<title>http://purl.org/oseg/ontologies/OTRL#exitCriteria&#45;&gt;http://purl.org/oseg/ontologies/OTRL#ODRL</title>
<path fill="none" stroke="black" d="M1007.14,-835.93C981.43,-869.56 922.27,-946.94 892.19,-986.28"/>
<polygon fill="black" stroke="black" points="889.19,-984.45 885.9,-994.52 894.75,-988.7 889.19,-984.45"/>
<text text-anchor="middle" x="863.67" y="-914.91" font-family="Times,serif" font-size="14.00">schema:domainIncludes</text>
</g>
<!-- http://purl.org/oseg/ontologies/OTRL#exitCriteria&#45;&gt;http://purl.org/oseg/ontologies/OTRL#OTRL -->
<g id="edge8" class="edge">
<title>http://purl.org/oseg/ontologies/OTRL#exitCriteria&#45;&gt;http://purl.org/oseg/ontologies/OTRL#OTRL</title>
<path fill="none" stroke="black" d="M1023.73,-803.23C1034.09,-762.36 1061.05,-656.03 1073.63,-606.4"/>
<polygon fill="black" stroke="black" points="1077.09,-607 1076.16,-596.44 1070.31,-605.28 1077.09,-607"/>
<text text-anchor="middle" x="962.68" y="-708.61" font-family="Times,serif" font-size="14.00">schema:domainIncludes</text>
</g>
<!-- http://schema.org/Text -->
<g id="node17" class="node">
<title>http://schema.org/Text</title>
<ellipse fill="none" stroke="#e377c2" cx="1132.92" cy="-860.3" rx="74.91" ry="16.03"/>
<text text-anchor="middle" x="1132.92" y="-856.6" font-family="Times,serif" font-size="14.00">schema:Text</text>
</g>
<!-- http://purl.org/oseg/ontologies/OTRL#exitCriteria&#45;&gt;http://schema.org/Text -->
<g id="edge15" class="edge">
<title>http://purl.org/oseg/ontologies/OTRL#exitCriteria&#45;&gt;http://schema.org/Text</title>
<path fill="none" stroke="black" d="M1057.93,-833.44C1066.42,-836.48 1075.53,-839.74 1084.36,-842.9"/>
<polygon fill="black" stroke="black" points="1083.21,-846.21 1093.8,-846.29 1085.57,-839.62 1083.21,-846.21"/>
<text text-anchor="middle" x="1050.15" y="-841.97" font-family="Times,serif" font-size="14.00">range</text>
</g>
<!-- http://purl.org/oseg/ontologies/OTRL#Odrl4 -->
<g id="node18" class="node">
<title>http://purl.org/oseg/ontologies/OTRL#Odrl4</title>
<ellipse fill="none" stroke="#e377c2" cx="909.01" cy="-1446.75" rx="40.11" ry="16.03"/>
<text text-anchor="middle" x="909.01" y="-1443.05" font-family="Times,serif" font-size="14.00">Odrl4</text>
</g>
<!-- http://purl.org/oseg/ontologies/OTRL#Odrl4&#45;&gt;http://purl.org/oseg/ontologies/OTRL#ODRL4 -->
<g id="edge14" class="edge">
<title>http://purl.org/oseg/ontologies/OTRL#Odrl4&#45;&gt;http://purl.org/oseg/ontologies/OTRL#ODRL4</title>
<path fill="none" stroke="black" d="M912.38,-1430.51C914.91,-1395.1 912.73,-1310.61 908.48,-1267.54"/>
<polygon fill="black" stroke="black" points="911.95,-1267.08 907.36,-1257.54 904.99,-1267.86 911.95,-1267.08"/>
<text text-anchor="middle" x="990.43" y="-1352.83" font-family="Times,serif" font-size="14.00">schema:supersededBy</text>
</g>
<!-- http://purl.org/oseg/ontologies/OTRL#Odrl4&#45;&gt;http://purl.org/oseg/ontologies/OTRL#ODRL4 -->
<g id="edge32" class="edge">
<title>http://purl.org/oseg/ontologies/OTRL#Odrl4&#45;&gt;http://purl.org/oseg/ontologies/OTRL#ODRL4</title>
<path fill="none" stroke="black" d="M904.65,-1430.4C900.08,-1394.95 897.35,-1310.77 899.1,-1267.7"/>
<polygon fill="black" stroke="black" points="902.59,-1267.86 899.64,-1257.69 895.6,-1267.49 902.59,-1267.86"/>
<text text-anchor="middle" x="859.37" y="-1352.85" font-family="Times,serif" font-size="14.00">owl:sameAs</text>
</g>
<!-- http://purl.org/oseg/ontologies/OTRL#goal -->
<g id="node19" class="node">
<title>http://purl.org/oseg/ontologies/OTRL#goal</title>
<ellipse fill="none" stroke="#e377c2" cx="945.36" cy="-779.15" rx="33.47" ry="16.03"/>
<text text-anchor="middle" x="945.36" y="-775.45" font-family="Times,serif" font-size="14.00">goal</text>
</g>
<!-- http://purl.org/oseg/ontologies/OTRL#goal&#45;&gt;http://purl.org/oseg/ontologies/OTRL#ODRL -->
<g id="edge31" class="edge">
<title>http://purl.org/oseg/ontologies/OTRL#goal&#45;&gt;http://purl.org/oseg/ontologies/OTRL#ODRL</title>
<path fill="none" stroke="black" d="M940.33,-795.39C928.11,-834.91 896.75,-936.34 881.92,-984.31"/>
<polygon fill="black" stroke="black" points="878.55,-983.37 878.94,-993.96 885.24,-985.44 878.55,-983.37"/>
<text text-anchor="middle" x="825.13" y="-893.65" font-family="Times,serif" font-size="14.00">schema:domainIncludes</text>
</g>
<!-- http://purl.org/oseg/ontologies/OTRL#goal&#45;&gt;http://purl.org/oseg/ontologies/OTRL#OTRL -->
<g id="edge27" class="edge">
<title>http://purl.org/oseg/ontologies/OTRL#goal&#45;&gt;http://purl.org/oseg/ontologies/OTRL#OTRL</title>
<path fill="none" stroke="black" d="M955.94,-763.53C979.38,-728.97 1035.8,-645.77 1063.86,-604.39"/>
<polygon fill="black" stroke="black" points="1066.84,-606.24 1069.55,-596 1061.04,-602.31 1066.84,-606.24"/>
<text text-anchor="middle" x="923.9" y="-687.76" font-family="Times,serif" font-size="14.00">schema:domainIncludes</text>
</g>
<!-- http://purl.org/oseg/ontologies/OTRL#goal&#45;&gt;http://schema.org/Text -->
<g id="edge39" class="edge">
<title>http://purl.org/oseg/ontologies/OTRL#goal&#45;&gt;http://schema.org/Text</title>
<path fill="none" stroke="black" d="M970.26,-789.92C1000.63,-803.06 1052.48,-825.49 1089.47,-841.5"/>
<polygon fill="black" stroke="black" points="1088.44,-844.87 1099.01,-845.63 1091.22,-838.44 1088.44,-844.87"/>
<text text-anchor="middle" x="1008.87" y="-804.51" font-family="Times,serif" font-size="14.00">range</text>
</g>
<!-- http://purl.org/oseg/ontologies/OTRL#Odrl3 -->
<g id="node20" class="node">
<title>http://purl.org/oseg/ontologies/OTRL#Odrl3</title>
<ellipse fill="none" stroke="black" cx="810.25" cy="-1197.16" rx="233.19" ry="16.03"/>
<text text-anchor="middle" x="810.25" y="-1193.46" font-family="Times,serif" font-size="14.00">http://purl.org/oseg/ontologies/OTRL#Odrl3</text>
</g>
<!-- http://purl.org/oseg/ontologies/OTRL#Odrl3&#45;&gt;http://purl.org/oseg/ontologies/OTRL#ODRL3 -->
<g id="edge2" class="edge">
<title>http://purl.org/oseg/ontologies/OTRL#Odrl3&#45;&gt;http://purl.org/oseg/ontologies/OTRL#ODRL3</title>
<path fill="none" stroke="black" d="M842.37,-1181.04C843.14,-1180.44 843.91,-1179.82 844.67,-1179.21"/>
<polygon fill="black" stroke="black" points="847.03,-1181.8 852.32,-1172.62 842.46,-1176.49 847.03,-1181.8"/>
<text text-anchor="middle" x="801.02" y="-1168.93" font-family="Times,serif" font-size="14.00">owl:sameAs</text>
</g>
<!-- http://purl.org/oseg/ontologies/OTRL#Odrl3&#45;&gt;http://purl.org/oseg/ontologies/OTRL#ODRL3 -->
<g id="edge19" class="edge">
<title>http://purl.org/oseg/ontologies/OTRL#Odrl3&#45;&gt;http://purl.org/oseg/ontologies/OTRL#ODRL3</title>
<path fill="none" stroke="black" d="M821.53,-1180.76C823.15,-1179.28 824.88,-1177.77 826.69,-1176.26"/>
<polygon fill="black" stroke="black" points="829.22,-1178.72 834.91,-1169.79 824.89,-1173.22 829.22,-1178.72"/>
<text text-anchor="middle" x="744.11" y="-1167.31" font-family="Times,serif" font-size="14.00">schema:supersededBy</text>
</g>
<!-- http://purl.org/oseg/ontologies/OTRL#Odrl2 -->
<g id="node21" class="node">
<title>http://purl.org/oseg/ontologies/OTRL#Odrl2</title>
<ellipse fill="none" stroke="black" cx="283.37" cy="-968.46" rx="233.19" ry="16.03"/>
<text text-anchor="middle" x="283.37" y="-964.76" font-family="Times,serif" font-size="14.00">http://purl.org/oseg/ontologies/OTRL#Odrl2</text>
</g>
<!-- http://purl.org/oseg/ontologies/OTRL#Odrl2&#45;&gt;http://purl.org/oseg/ontologies/OTRL#ODRL2 -->
<g id="edge3" class="edge">
<title>http://purl.org/oseg/ontologies/OTRL#Odrl2&#45;&gt;http://purl.org/oseg/ontologies/OTRL#ODRL2</title>
<path fill="none" stroke="black" d="M447.07,-980.07C507.27,-982.18 571.59,-983.55 616.29,-983.44"/>
<polygon fill="black" stroke="black" points="616.39,-986.94 626.37,-983.39 616.35,-979.94 616.39,-986.94"/>
<text text-anchor="middle" x="451.68" y="-985.56" font-family="Times,serif" font-size="14.00">schema:supersededBy</text>
</g>
<!-- http://purl.org/oseg/ontologies/OTRL#Odrl2&#45;&gt;http://purl.org/oseg/ontologies/OTRL#ODRL2 -->
<g id="edge34" class="edge">
<title>http://purl.org/oseg/ontologies/OTRL#Odrl2&#45;&gt;http://purl.org/oseg/ontologies/OTRL#ODRL2</title>
<path fill="none" stroke="black" d="M516.91,-968.86C554.74,-970.23 590.57,-971.9 618.42,-973.67"/>
<polygon fill="black" stroke="black" points="618.48,-977.18 628.69,-974.35 618.95,-970.19 618.48,-977.18"/>
<text text-anchor="middle" x="567.67" y="-960.06" font-family="Times,serif" font-size="14.00">owl:sameAs</text>
</g>
<!-- http://purl.org/oseg/ontologies/OTRL#Otrl1 -->
<g id="node22" class="node">
<title>http://purl.org/oseg/ontologies/OTRL#Otrl1</title>
<ellipse fill="none" stroke="black" cx="903.99" cy="-15.91" rx="231.45" ry="16.03"/>
<text text-anchor="middle" x="903.99" y="-12.21" font-family="Times,serif" font-size="14.00">http://purl.org/oseg/ontologies/OTRL#Otrl1</text>
</g>
<!-- http://purl.org/oseg/ontologies/OTRL#Otrl1&#45;&gt;http://purl.org/oseg/ontologies/OTRL#OTRL1 -->
<g id="edge6" class="edge">
<title>http://purl.org/oseg/ontologies/OTRL#Otrl1&#45;&gt;http://purl.org/oseg/ontologies/OTRL#OTRL1</title>
<path fill="none" stroke="black" d="M904.24,-32.57C910.99,-93.1 951,-301.66 969.75,-375.79"/>
<polygon fill="black" stroke="black" points="966.43,-376.94 972.36,-385.72 973.2,-375.16 966.43,-376.94"/>
<text text-anchor="middle" x="1017" y="-207.98" font-family="Times,serif" font-size="14.00">schema:supersededBy</text>
</g>
<!-- http://purl.org/oseg/ontologies/OTRL#Otrl1&#45;&gt;http://purl.org/oseg/ontologies/OTRL#OTRL1 -->
<g id="edge21" class="edge">
<title>http://purl.org/oseg/ontologies/OTRL#Otrl1&#45;&gt;http://purl.org/oseg/ontologies/OTRL#OTRL1</title>
<path fill="none" stroke="black" d="M910.23,-32.44C926.77,-92.76 967.25,-301.34 977.11,-375.65"/>
<polygon fill="black" stroke="black" points="973.64,-376.11 978.34,-385.61 980.59,-375.26 973.64,-376.11"/>
<text text-anchor="middle" x="901.17" y="-192.85" font-family="Times,serif" font-size="14.00">owl:sameAs</text>
</g>
<!-- http://purl.org/oseg/ontologies/OTRL#Odrl3Star -->
<g id="node23" class="node">
<title>http://purl.org/oseg/ontologies/OTRL#Odrl3Star</title>
<ellipse fill="none" stroke="black" cx="255.2" cy="-1292.35" rx="255.03" ry="16.03"/>
<text text-anchor="middle" x="255.2" y="-1288.65" font-family="Times,serif" font-size="14.00">http://purl.org/oseg/ontologies/OTRL#Odrl3Star</text>
</g>
<!-- http://purl.org/oseg/ontologies/OTRL#Odrl3Star&#45;&gt;http://purl.org/oseg/ontologies/OTRL#ODRL3Star -->
<g id="edge7" class="edge">
<title>http://purl.org/oseg/ontologies/OTRL#Odrl3Star&#45;&gt;http://purl.org/oseg/ontologies/OTRL#ODRL3Star</title>
<path fill="none" stroke="black" d="M299.34,-1276.24C380.5,-1241.47 551.62,-1160.3 624.02,-1122.1"/>
<polygon fill="black" stroke="black" points="625.99,-1125.02 633.16,-1117.23 622.69,-1118.85 625.99,-1125.02"/>
<text text-anchor="middle" x="381.68" y="-1202.97" font-family="Times,serif" font-size="14.00">schema:supersededBy</text>
</g>
<!-- http://purl.org/oseg/ontologies/OTRL#Odrl3Star&#45;&gt;http://purl.org/oseg/ontologies/OTRL#ODRL3Star -->
<g id="edge36" class="edge">
<title>http://purl.org/oseg/ontologies/OTRL#Odrl3Star&#45;&gt;http://purl.org/oseg/ontologies/OTRL#ODRL3Star</title>
<path fill="none" stroke="black" d="M280.98,-1276.14C347.25,-1240.47 524.16,-1156.35 609.77,-1119.45"/>
<polygon fill="black" stroke="black" points="611.19,-1122.65 619.01,-1115.5 608.44,-1116.21 611.19,-1122.65"/>
<text text-anchor="middle" x="402.88" y="-1186.59" font-family="Times,serif" font-size="14.00">owl:sameAs</text>
</g>
<!-- http://purl.org/oseg/ontologies/OTRL#Odrl -->
<g id="node24" class="node">
<title>http://purl.org/oseg/ontologies/OTRL#Odrl</title>
<ellipse fill="none" stroke="black" cx="659.03" cy="-1332.92" rx="226.96" ry="16.03"/>
<text text-anchor="middle" x="659.03" y="-1329.22" font-family="Times,serif" font-size="14.00">http://purl.org/oseg/ontologies/OTRL#Odrl</text>
</g>
<!-- http://purl.org/oseg/ontologies/OTRL#Odrl&#45;&gt;http://purl.org/oseg/ontologies/OTRL#ODRL -->
<g id="edge11" class="edge">
<title>http://purl.org/oseg/ontologies/OTRL#Odrl&#45;&gt;http://purl.org/oseg/ontologies/OTRL#ODRL</title>
<path fill="none" stroke="black" d="M673.98,-1316.5C714.4,-1263.78 824.25,-1099.01 861.53,-1035.47"/>
<polygon fill="black" stroke="black" points="864.73,-1036.93 866.68,-1026.52 858.67,-1033.44 864.73,-1036.93"/>
<text text-anchor="middle" x="687.76" y="-1164.79" font-family="Times,serif" font-size="14.00">schema:supersededBy</text>
</g>
<!-- http://purl.org/oseg/ontologies/OTRL#Odrl&#45;&gt;http://purl.org/oseg/ontologies/OTRL#ODRL -->
<g id="edge41" class="edge">
<title>http://purl.org/oseg/ontologies/OTRL#Odrl&#45;&gt;http://purl.org/oseg/ontologies/OTRL#ODRL</title>
<path fill="none" stroke="black" d="M666.3,-1316.54C696.07,-1263.43 806.97,-1096.35 853.44,-1033.95"/>
<polygon fill="black" stroke="black" points="856.31,-1035.95 859.55,-1025.86 850.73,-1031.73 856.31,-1035.95"/>
<text text-anchor="middle" x="717.37" y="-1179.04" font-family="Times,serif" font-size="14.00">owl:sameAs</text>
</g>
<!-- http://purl.org/oseg/ontologies/OTRL#Otrl6 -->
<g id="node25" class="node">
<title>http://purl.org/oseg/ontologies/OTRL#Otrl6</title>
<ellipse fill="none" stroke="black" cx="1658.51" cy="-677.47" rx="231.45" ry="16.03"/>
<text text-anchor="middle" x="1658.51" y="-673.77" font-family="Times,serif" font-size="14.00">http://purl.org/oseg/ontologies/OTRL#Otrl6</text>
</g>
<!-- http://purl.org/oseg/ontologies/OTRL#Otrl6&#45;&gt;http://purl.org/oseg/ontologies/OTRL#OTRL6 -->
<g id="edge12" class="edge">
<title>http://purl.org/oseg/ontologies/OTRL#Otrl6&#45;&gt;http://purl.org/oseg/ontologies/OTRL#OTRL6</title>
<path fill="none" stroke="black" d="M1575.81,-662.27C1501.14,-652.01 1393.32,-639.88 1328.27,-634.59"/>
<polygon fill="black" stroke="black" points="1328.45,-631.1 1318.21,-633.8 1327.91,-638.07 1328.45,-631.1"/>
<text text-anchor="middle" x="1532.04" y="-637.23" font-family="Times,serif" font-size="14.00">schema:supersededBy</text>
</g>
<!-- http://purl.org/oseg/ontologies/OTRL#Otrl6&#45;&gt;http://purl.org/oseg/ontologies/OTRL#OTRL6 -->
<g id="edge42" class="edge">
<title>http://purl.org/oseg/ontologies/OTRL#Otrl6&#45;&gt;http://purl.org/oseg/ontologies/OTRL#OTRL6</title>
<path fill="none" stroke="black" d="M1498.11,-665.75C1434.47,-658.79 1365.95,-650.26 1321.26,-643.46"/>
<polygon fill="black" stroke="black" points="1321.69,-639.98 1311.27,-641.9 1320.61,-646.9 1321.69,-639.98"/>
<text text-anchor="middle" x="1367.19" y="-658.4" font-family="Times,serif" font-size="14.00">owl:sameAs</text>
</g>
<!-- http://purl.org/oseg/ontologies/OTRL#Otrl2 -->
<g id="node26" class="node">
<title>http://purl.org/oseg/ontologies/OTRL#Otrl2</title>
<ellipse fill="none" stroke="black" cx="625.85" cy="-198.57" rx="231.45" ry="16.03"/>
<text text-anchor="middle" x="625.85" y="-194.87" font-family="Times,serif" font-size="14.00">http://purl.org/oseg/ontologies/OTRL#Otrl2</text>
</g>
<!-- http://purl.org/oseg/ontologies/OTRL#Otrl2&#45;&gt;http://purl.org/oseg/ontologies/OTRL#OTRL2 -->
<g id="edge13" class="edge">
<title>http://purl.org/oseg/ontologies/OTRL#Otrl2&#45;&gt;http://purl.org/oseg/ontologies/OTRL#OTRL2</title>
<path fill="none" stroke="black" d="M638.31,-215.06C680.6,-261.93 818.48,-395.25 878.4,-447.69"/>
<polygon fill="black" stroke="black" points="876.13,-450.36 885.99,-454.25 880.71,-445.06 876.13,-450.36"/>
<text text-anchor="middle" x="715.86" y="-335.18" font-family="Times,serif" font-size="14.00">owl:sameAs</text>
</g>
<!-- http://purl.org/oseg/ontologies/OTRL#Otrl2&#45;&gt;http://purl.org/oseg/ontologies/OTRL#OTRL2 -->
<g id="edge37" class="edge">
<title>http://purl.org/oseg/ontologies/OTRL#Otrl2&#45;&gt;http://purl.org/oseg/ontologies/OTRL#OTRL2</title>
<path fill="none" stroke="black" d="M648.14,-214.96C701.87,-261.12 837.4,-391.71 887.57,-445.58"/>
<polygon fill="black" stroke="black" points="885.26,-448.24 894.6,-453.25 890.42,-443.51 885.26,-448.24"/>
<text text-anchor="middle" x="687.85" y="-319.07" font-family="Times,serif" font-size="14.00">schema:supersededBy</text>
</g>
<!-- http://purl.org/oseg/ontologies/OTRL#Odrl5 -->
<g id="node27" class="node">
<title>http://purl.org/oseg/ontologies/OTRL#Odrl5</title>
<ellipse fill="none" stroke="black" cx="903.38" cy="-1826.79" rx="233.19" ry="16.03"/>
<text text-anchor="middle" x="903.38" y="-1823.09" font-family="Times,serif" font-size="14.00">http://purl.org/oseg/ontologies/OTRL#Odrl5</text>
</g>
<!-- http://purl.org/oseg/ontologies/OTRL#Odrl5&#45;&gt;http://purl.org/oseg/ontologies/OTRL#Odrl4 -->
<g id="edge16" class="edge">
<title>http://purl.org/oseg/ontologies/OTRL#Odrl5&#45;&gt;http://purl.org/oseg/ontologies/OTRL#Odrl4</title>
<path fill="none" stroke="black" d="M906.57,-1810.5C912.27,-1751.25 915.53,-1546.78 912.27,-1473.3"/>
<polygon fill="black" stroke="black" points="915.75,-1472.85 911.71,-1463.06 908.76,-1473.23 915.75,-1472.85"/>
<text text-anchor="middle" x="866.92" y="-1645.7" font-family="Times,serif" font-size="14.00">owl:sameAs</text>
</g>
<!-- http://purl.org/oseg/ontologies/OTRL#Odrl5&#45;&gt;http://purl.org/oseg/ontologies/OTRL#Odrl4 -->
<g id="edge40" class="edge">
<title>http://purl.org/oseg/ontologies/OTRL#Odrl5&#45;&gt;http://purl.org/oseg/ontologies/OTRL#Odrl4</title>
<path fill="none" stroke="black" d="M900.67,-1810.41C896.73,-1751.02 899.52,-1546.54 904.96,-1473.19"/>
<polygon fill="black" stroke="black" points="908.47,-1473.23 905.82,-1462.97 901.49,-1472.64 908.47,-1473.23"/>
<text text-anchor="middle" x="822.81" y="-1630.6" font-family="Times,serif" font-size="14.00">schema:supersededBy</text>
</g>
<!-- http://purl.org/oseg/ontologies/OTRL#Otrl3 -->
<g id="node28" class="node">
<title>http://purl.org/oseg/ontologies/OTRL#Otrl3</title>
<ellipse fill="none" stroke="black" cx="1050.24" cy="-321.17" rx="231.45" ry="16.03"/>
<text text-anchor="middle" x="1050.24" y="-317.47" font-family="Times,serif" font-size="14.00">http://purl.org/oseg/ontologies/OTRL#Otrl3</text>
</g>
<!-- http://purl.org/oseg/ontologies/OTRL#Otrl3&#45;&gt;http://purl.org/oseg/ontologies/OTRL#OTRL3 -->
<g id="edge20" class="edge">
<title>http://purl.org/oseg/ontologies/OTRL#Otrl3&#45;&gt;http://purl.org/oseg/ontologies/OTRL#OTRL3</title>
<path fill="none" stroke="black" d="M1054.02,-337.65C1054.12,-337.84 1054.23,-338.03 1054.34,-338.21"/>
<polygon fill="black" stroke="black" points="1051.43,-340.17 1059.8,-346.66 1057.31,-336.36 1051.43,-340.17"/>
<text text-anchor="middle" x="1011.68" y="-341.73" font-family="Times,serif" font-size="14.00">owl:sameAs</text>
</g>
<!-- http://purl.org/oseg/ontologies/OTRL#Otrl3&#45;&gt;http://purl.org/oseg/ontologies/OTRL#OTRL3 -->
<g id="edge45" class="edge">
<title>http://purl.org/oseg/ontologies/OTRL#Otrl3&#45;&gt;http://purl.org/oseg/ontologies/OTRL#OTRL3</title>
<path fill="none" stroke="black" d="M1069.95,-337.63C1070.06,-337.79 1070.17,-337.95 1070.28,-338.11"/>
<polygon fill="black" stroke="black" points="1066.53,-338.72 1074.81,-345.34 1072.47,-335.01 1066.53,-338.72"/>
<text text-anchor="middle" x="1150.12" y="-341.67" font-family="Times,serif" font-size="14.00">schema:supersededBy</text>
</g>
<!-- http://purl.org/oseg/ontologies/OTRL#Otrl5 -->
<g id="node29" class="node">
<title>http://purl.org/oseg/ontologies/OTRL#Otrl5</title>
<ellipse fill="none" stroke="black" cx="1689.39" cy="-444.15" rx="231.45" ry="16.03"/>
<text text-anchor="middle" x="1689.39" y="-440.45" font-family="Times,serif" font-size="14.00">http://purl.org/oseg/ontologies/OTRL#Otrl5</text>
</g>
<!-- http://purl.org/oseg/ontologies/OTRL#Otrl5&#45;&gt;http://purl.org/oseg/ontologies/OTRL#OTRL5 -->
<g id="edge24" class="edge">
<title>http://purl.org/oseg/ontologies/OTRL#Otrl5&#45;&gt;http://purl.org/oseg/ontologies/OTRL#OTRL5</title>
<path fill="none" stroke="black" d="M1599.91,-459.19C1516.4,-476.92 1395.43,-505.64 1332.1,-523.13"/>
<polygon fill="black" stroke="black" points="1331.12,-519.77 1322.44,-525.83 1333.01,-526.51 1331.12,-519.77"/>
<text text-anchor="middle" x="1423.5" y="-494.96" font-family="Times,serif" font-size="14.00">owl:sameAs</text>
</g>
<!-- http://purl.org/oseg/ontologies/OTRL#Otrl5&#45;&gt;http://purl.org/oseg/ontologies/OTRL#OTRL5 -->
<g id="edge47" class="edge">
<title>http://purl.org/oseg/ontologies/OTRL#Otrl5&#45;&gt;http://purl.org/oseg/ontologies/OTRL#OTRL5</title>
<path fill="none" stroke="black" d="M1641.45,-460.09C1566.4,-480.51 1421.69,-514.37 1343.34,-529.88"/>
<polygon fill="black" stroke="black" points="1342.34,-526.5 1333.2,-531.85 1343.68,-533.38 1342.34,-526.5"/>
<text text-anchor="middle" x="1572.39" y="-498.78" font-family="Times,serif" font-size="14.00">schema:supersededBy</text>
</g>
<!-- http://purl.org/oseg/ontologies/OTRL#Odrl1 -->
<g id="node30" class="node">
<title>http://purl.org/oseg/ontologies/OTRL#Odrl1</title>
<ellipse fill="none" stroke="black" cx="1270.29" cy="-1454.46" rx="233.19" ry="16.03"/>
<text text-anchor="middle" x="1270.29" y="-1450.76" font-family="Times,serif" font-size="14.00">http://purl.org/oseg/ontologies/OTRL#Odrl1</text>
</g>
<!-- http://purl.org/oseg/ontologies/OTRL#Odrl1&#45;&gt;http://purl.org/oseg/ontologies/OTRL#ODRL1 -->
<g id="edge25" class="edge">
<title>http://purl.org/oseg/ontologies/OTRL#Odrl1&#45;&gt;http://purl.org/oseg/ontologies/OTRL#ODRL1</title>
<path fill="none" stroke="black" d="M1260.72,-1437.81C1224.83,-1386.61 1099.02,-1231.94 1045.83,-1173.05"/>
<polygon fill="black" stroke="black" points="1048.16,-1170.41 1038.82,-1165.4 1043,-1175.14 1048.16,-1170.41"/>
<text text-anchor="middle" x="1110.78" y="-1294.23" font-family="Times,serif" font-size="14.00">owl:sameAs</text>
</g>
<!-- http://purl.org/oseg/ontologies/OTRL#Odrl1&#45;&gt;http://purl.org/oseg/ontologies/OTRL#ODRL1 -->
<g id="edge48" class="edge">
<title>http://purl.org/oseg/ontologies/OTRL#Odrl1&#45;&gt;http://purl.org/oseg/ontologies/OTRL#ODRL1</title>
<path fill="none" stroke="black" d="M1252.46,-1438.06C1205.65,-1387.5 1080.68,-1234.44 1037.07,-1174.45"/>
<polygon fill="black" stroke="black" points="1039.91,-1172.39 1031.25,-1166.29 1034.21,-1176.46 1039.91,-1172.39"/>
<text text-anchor="middle" x="1064.77" y="-1310.05" font-family="Times,serif" font-size="14.00">schema:supersededBy</text>
</g>
<!-- http://purl.org/oseg/ontologies/OTRL#Otrl -->
<g id="node31" class="node">
<title>http://purl.org/oseg/ontologies/OTRL#Otrl</title>
<ellipse fill="none" stroke="black" cx="991.84" cy="-539.63" rx="224.72" ry="16.03"/>
<text text-anchor="middle" x="991.84" y="-535.93" font-family="Times,serif" font-size="14.00">http://purl.org/oseg/ontologies/OTRL#Otrl</text>
</g>
<!-- http://purl.org/oseg/ontologies/OTRL#Otrl&#45;&gt;http://purl.org/oseg/ontologies/OTRL#OTRL -->
<g id="edge26" class="edge">
<title>http://purl.org/oseg/ontologies/OTRL#Otrl&#45;&gt;http://purl.org/oseg/ontologies/OTRL#OTRL</title>
<path fill="none" stroke="black" d="M1013.02,-556.01C1020.23,-559.91 1028.56,-563.97 1036.86,-567.68"/>
<polygon fill="black" stroke="black" points="1035.58,-570.94 1046.15,-571.68 1038.35,-564.51 1035.58,-570.94"/>
<text text-anchor="middle" x="944.94" y="-565.64" font-family="Times,serif" font-size="14.00">schema:supersededBy</text>
</g>
<!-- http://purl.org/oseg/ontologies/OTRL#Otrl&#45;&gt;http://purl.org/oseg/ontologies/OTRL#OTRL -->
<g id="edge46" class="edge">
<title>http://purl.org/oseg/ontologies/OTRL#Otrl&#45;&gt;http://purl.org/oseg/ontologies/OTRL#OTRL</title>
<path fill="none" stroke="black" d="M1042.75,-555.57C1046.32,-557.26 1049.84,-558.98 1053.2,-560.7"/>
<polygon fill="black" stroke="black" points="1051.71,-563.88 1062.18,-565.5 1055,-557.7 1051.71,-563.88"/>
<text text-anchor="middle" x="1090.47" y="-561.94" font-family="Times,serif" font-size="14.00">owl:sameAs</text>
</g>
<!-- http://purl.org/oseg/ontologies/OTRL#Otrl4 -->
<g id="node32" class="node">
<title>http://purl.org/oseg/ontologies/OTRL#Otrl4</title>
<ellipse fill="none" stroke="black" cx="1295.02" cy="-403.57" rx="231.45" ry="16.03"/>
<text text-anchor="middle" x="1295.02" y="-399.87" font-family="Times,serif" font-size="14.00">http://purl.org/oseg/ontologies/OTRL#Otrl4</text>
</g>
<!-- http://purl.org/oseg/ontologies/OTRL#Otrl4&#45;&gt;http://purl.org/oseg/ontologies/OTRL#OTRL4 -->
<g id="edge28" class="edge">
<title>http://purl.org/oseg/ontologies/OTRL#Otrl4&#45;&gt;http://purl.org/oseg/ontologies/OTRL#OTRL4</title>
<path fill="none" stroke="black" d="M1257.04,-419.72C1255.64,-420.63 1254.25,-421.56 1252.88,-422.49"/>
<polygon fill="black" stroke="black" points="1250.44,-419.93 1244.38,-428.62 1254.54,-425.61 1250.44,-419.93"/>
<text text-anchor="middle" x="1297.46" y="-424.9" font-family="Times,serif" font-size="14.00">owl:sameAs</text>
</g>
<!-- http://purl.org/oseg/ontologies/OTRL#Otrl4&#45;&gt;http://purl.org/oseg/ontologies/OTRL#OTRL4 -->
<g id="edge38" class="edge">
<title>http://purl.org/oseg/ontologies/OTRL#Otrl4&#45;&gt;http://purl.org/oseg/ontologies/OTRL#OTRL4</title>
<path fill="none" stroke="black" d="M1280.74,-419.86C1277.73,-422.13 1274.43,-424.46 1271,-426.75"/>
<polygon fill="black" stroke="black" points="1268.86,-423.97 1262.3,-432.29 1272.62,-429.87 1268.86,-423.97"/>
<text text-anchor="middle" x="1355.87" y="-427.11" font-family="Times,serif" font-size="14.00">schema:supersededBy</text>
</g>
</g>
</svg>
