<?xml version="1.0" encoding="UTF-8" standalone="no"?>
<!DOCTYPE svg PUBLIC "-//W3C//DTD SVG 1.1//EN"
 "http://www.w3.org/Graphics/SVG/1.1/DTD/svg11.dtd">
<!-- Generated by graphviz version 2.43.0 (0)
 -->
<!-- Title: G Pages: 1 -->
<svg width="755pt" height="794pt"
 viewBox="0.00 0.00 755.05 794.00" xmlns="http://www.w3.org/2000/svg" xmlns:xlink="http://www.w3.org/1999/xlink">
<g id="graph0" class="graph" transform="scale(1 1) rotate(0) translate(4 790)">
<title>G</title>
<polygon fill="white" stroke="transparent" points="-4,4 -4,-790 751.05,-790 751.05,4 -4,4"/>
<!-- http://purl.org/oseg/ontologies/OTRL#ODRL -->
<g id="node1" class="node">
<title>http://purl.org/oseg/ontologies/OTRL#ODRL</title>
<ellipse fill="none" stroke="#e377c2" cx="489.46" cy="-59.74" rx="41.94" ry="16.03"/>
<text text-anchor="middle" x="489.46" y="-56.04" font-family="Times,serif" font-size="14.00">ODRL</text>
</g>
<!-- http://www.w3.org/2002/07/owl#class -->
<g id="node2" class="node">
<title>http://www.w3.org/2002/07/owl#class</title>
<ellipse fill="none" stroke="#1f77b4" cx="444.52" cy="-234" rx="57.05" ry="16.03"/>
<text text-anchor="middle" x="444.52" y="-230.3" font-family="Times,serif" font-size="14.00">owl:class</text>
</g>
<!-- http://purl.org/oseg/ontologies/OTRL#ODRL&#45;&gt;http://www.w3.org/2002/07/owl#class -->
<g id="edge29" class="edge">
<title>http://purl.org/oseg/ontologies/OTRL#ODRL&#45;&gt;http://www.w3.org/2002/07/owl#class</title>
<path fill="none" stroke="black" d="M485.23,-76.13C477.43,-106.36 460.73,-171.12 451.32,-207.61"/>
<polygon fill="black" stroke="black" points="447.87,-206.97 448.77,-217.52 454.65,-208.71 447.87,-206.97"/>
<text text-anchor="middle" x="463.78" y="-145.67" font-family="Times,serif" font-size="14.00">a</text>
</g>
<!-- http://purl.org/oseg/ontologies/OTRL#OTRL -->
<g id="node3" class="node">
<title>http://purl.org/oseg/ontologies/OTRL#OTRL</title>
<ellipse fill="none" stroke="#e377c2" cx="367.34" cy="-454.54" rx="39.7" ry="16.03"/>
<text text-anchor="middle" x="367.34" y="-450.84" font-family="Times,serif" font-size="14.00">OTRL</text>
</g>
<!-- http://purl.org/oseg/ontologies/OTRL#OTRL&#45;&gt;http://www.w3.org/2002/07/owl#class -->
<g id="edge35" class="edge">
<title>http://purl.org/oseg/ontologies/OTRL#OTRL&#45;&gt;http://www.w3.org/2002/07/owl#class</title>
<path fill="none" stroke="black" d="M373.01,-438.32C386.28,-400.4 419.42,-305.7 435.5,-259.78"/>
<polygon fill="black" stroke="black" points="438.83,-260.84 438.83,-250.24 432.23,-258.52 438.83,-260.84"/>
<text text-anchor="middle" x="399.76" y="-352.85" font-family="Times,serif" font-size="14.00">a</text>
</g>
<!-- http://purl.org/oseg/ontologies/OTRL#OTRL&#45;3 -->
<g id="node4" class="node">
<title>http://purl.org/oseg/ontologies/OTRL#OTRL&#45;3</title>
<ellipse fill="none" stroke="#e377c2" cx="588.34" cy="-415.27" rx="49.49" ry="16.03"/>
<text text-anchor="middle" x="588.34" y="-411.57" font-family="Times,serif" font-size="14.00">OTRL&#45;3</text>
</g>
<!-- http://purl.org/oseg/ontologies/OTRL#OTRL&#45;3&#45;&gt;http://www.w3.org/2002/07/owl#class -->
<g id="edge1" class="edge">
<title>http://purl.org/oseg/ontologies/OTRL#OTRL&#45;3&#45;&gt;http://www.w3.org/2002/07/owl#class</title>
<path fill="none" stroke="black" d="M575.82,-399.5C550.6,-367.71 493.51,-295.75 463.6,-258.06"/>
<polygon fill="black" stroke="black" points="466.26,-255.78 457.31,-250.12 460.78,-260.13 466.26,-255.78"/>
<text text-anchor="middle" x="515.21" y="-317.58" font-family="Times,serif" font-size="14.00">a</text>
</g>
<!-- http://purl.org/oseg/ontologies/OTRL#OTRL&#45;3&#45;&gt;http://purl.org/oseg/ontologies/OTRL#OTRL -->
<g id="edge41" class="edge">
<title>http://purl.org/oseg/ontologies/OTRL#OTRL&#45;3&#45;&gt;http://purl.org/oseg/ontologies/OTRL#OTRL</title>
<path fill="none" stroke="black" d="M544.67,-423.02C506.91,-429.73 452.48,-439.41 413.89,-446.26"/>
<polygon fill="black" stroke="black" points="413.19,-442.83 403.95,-448.03 414.41,-449.73 413.19,-442.83"/>
</g>
<!-- http://schema.org/Text -->
<g id="node5" class="node">
<title>http://schema.org/Text</title>
<ellipse fill="none" stroke="#e377c2" cx="217.52" cy="-770.06" rx="74.91" ry="16.03"/>
<text text-anchor="middle" x="217.52" y="-766.36" font-family="Times,serif" font-size="14.00">schema:Text</text>
</g>
<!-- http://purl.org/oseg/ontologies/OTRL#OTRL&#45;2 -->
<g id="node6" class="node">
<title>http://purl.org/oseg/ontologies/OTRL#OTRL&#45;2</title>
<ellipse fill="none" stroke="#e377c2" cx="242.73" cy="-277.26" rx="49.49" ry="16.03"/>
<text text-anchor="middle" x="242.73" y="-273.56" font-family="Times,serif" font-size="14.00">OTRL&#45;2</text>
</g>
<!-- http://purl.org/oseg/ontologies/OTRL#OTRL&#45;2&#45;&gt;http://www.w3.org/2002/07/owl#class -->
<g id="edge5" class="edge">
<title>http://purl.org/oseg/ontologies/OTRL#OTRL&#45;2&#45;&gt;http://www.w3.org/2002/07/owl#class</title>
<path fill="none" stroke="black" d="M284.54,-268.3C314.67,-261.84 355.65,-253.05 388.59,-245.99"/>
<polygon fill="black" stroke="black" points="389.49,-249.38 398.54,-243.86 388.03,-242.53 389.49,-249.38"/>
<text text-anchor="middle" x="332.07" y="-260.94" font-family="Times,serif" font-size="14.00">a</text>
</g>
<!-- http://purl.org/oseg/ontologies/OTRL#OTRL&#45;2&#45;&gt;http://purl.org/oseg/ontologies/OTRL#OTRL -->
<g id="edge4" class="edge">
<title>http://purl.org/oseg/ontologies/OTRL#OTRL&#45;2&#45;&gt;http://purl.org/oseg/ontologies/OTRL#OTRL</title>
<path fill="none" stroke="black" d="M254.01,-293.3C275.93,-324.5 324.42,-393.48 350.29,-430.29"/>
<polygon fill="black" stroke="black" points="347.74,-432.74 356.35,-438.91 353.47,-428.71 347.74,-432.74"/>
</g>
<!-- http://purl.org/oseg/ontologies/OTRL#ODRL&#45;3 -->
<g id="node7" class="node">
<title>http://purl.org/oseg/ontologies/OTRL#ODRL&#45;3</title>
<ellipse fill="none" stroke="#e377c2" cx="481.34" cy="-16.28" rx="50.82" ry="16.03"/>
<text text-anchor="middle" x="481.34" y="-12.58" font-family="Times,serif" font-size="14.00">ODRL&#45;3</text>
</g>
<!-- http://purl.org/oseg/ontologies/OTRL#ODRL&#45;3&#45;&gt;http://purl.org/oseg/ontologies/OTRL#ODRL -->
<g id="edge11" class="edge">
<title>http://purl.org/oseg/ontologies/OTRL#ODRL&#45;3&#45;&gt;http://purl.org/oseg/ontologies/OTRL#ODRL</title>
<path fill="none" stroke="black" d="M484.46,-32.96C484.5,-33.17 484.54,-33.39 484.58,-33.61"/>
<polygon fill="black" stroke="black" points="481.14,-34.28 486.42,-43.46 488.02,-32.99 481.14,-34.28"/>
</g>
<!-- http://purl.org/oseg/ontologies/OTRL#ODRL&#45;3&#45;&gt;http://www.w3.org/2002/07/owl#class -->
<g id="edge7" class="edge">
<title>http://purl.org/oseg/ontologies/OTRL#ODRL&#45;3&#45;&gt;http://www.w3.org/2002/07/owl#class</title>
<path fill="none" stroke="black" d="M478.57,-32.65C472.24,-70.09 456.65,-162.28 448.96,-207.76"/>
<polygon fill="black" stroke="black" points="445.48,-207.3 447.27,-217.74 452.38,-208.47 445.48,-207.3"/>
<text text-anchor="middle" x="459.26" y="-124" font-family="Times,serif" font-size="14.00">a</text>
</g>
<!-- http://purl.org/oseg/ontologies/OTRL#OTRL&#45;6 -->
<g id="node8" class="node">
<title>http://purl.org/oseg/ontologies/OTRL#OTRL&#45;6</title>
<ellipse fill="none" stroke="#e377c2" cx="403.16" cy="-413.97" rx="49.49" ry="16.03"/>
<text text-anchor="middle" x="403.16" y="-410.27" font-family="Times,serif" font-size="14.00">OTRL&#45;6</text>
</g>
<!-- http://purl.org/oseg/ontologies/OTRL#OTRL&#45;6&#45;&gt;http://www.w3.org/2002/07/owl#class -->
<g id="edge26" class="edge">
<title>http://purl.org/oseg/ontologies/OTRL#OTRL&#45;6&#45;&gt;http://www.w3.org/2002/07/owl#class</title>
<path fill="none" stroke="black" d="M406.9,-397.69C414.08,-366.44 429.84,-297.87 438.51,-260.15"/>
<polygon fill="black" stroke="black" points="441.92,-260.91 440.75,-250.38 435.1,-259.35 441.92,-260.91"/>
<text text-anchor="middle" x="418.21" y="-332.72" font-family="Times,serif" font-size="14.00">a</text>
</g>
<!-- http://purl.org/oseg/ontologies/OTRL#OTRL&#45;6&#45;&gt;http://purl.org/oseg/ontologies/OTRL#OTRL -->
<g id="edge24" class="edge">
<title>http://purl.org/oseg/ontologies/OTRL#OTRL&#45;6&#45;&gt;http://purl.org/oseg/ontologies/OTRL#OTRL</title>
<path fill="none" stroke="black" d="M389,-430C388.59,-430.48 388.17,-430.95 387.75,-431.43"/>
<polygon fill="black" stroke="black" points="384.92,-429.34 380.93,-439.15 390.17,-433.97 384.92,-429.34"/>
</g>
<!-- http://purl.org/oseg/ontologies/OTRL#OTRL&#45;8 -->
<g id="node9" class="node">
<title>http://purl.org/oseg/ontologies/OTRL#OTRL&#45;8</title>
<ellipse fill="none" stroke="#e377c2" cx="242.14" cy="-323.59" rx="49.49" ry="16.03"/>
<text text-anchor="middle" x="242.14" y="-319.89" font-family="Times,serif" font-size="14.00">OTRL&#45;8</text>
</g>
<!-- http://purl.org/oseg/ontologies/OTRL#OTRL&#45;8&#45;&gt;http://www.w3.org/2002/07/owl#class -->
<g id="edge9" class="edge">
<title>http://purl.org/oseg/ontologies/OTRL#OTRL&#45;8&#45;&gt;http://www.w3.org/2002/07/owl#class</title>
<path fill="none" stroke="black" d="M272,-310.37C306.97,-294.89 365.06,-269.17 404.06,-251.91"/>
<polygon fill="black" stroke="black" points="405.81,-254.96 413.54,-247.72 402.97,-248.56 405.81,-254.96"/>
<text text-anchor="middle" x="342.53" y="-269.94" font-family="Times,serif" font-size="14.00">a</text>
</g>
<!-- http://purl.org/oseg/ontologies/OTRL#OTRL&#45;8&#45;&gt;http://purl.org/oseg/ontologies/OTRL#OTRL -->
<g id="edge8" class="edge">
<title>http://purl.org/oseg/ontologies/OTRL#OTRL&#45;8&#45;&gt;http://purl.org/oseg/ontologies/OTRL#OTRL</title>
<path fill="none" stroke="black" d="M256.99,-339.12C278.92,-362.06 320.1,-405.13 345.48,-431.68"/>
<polygon fill="black" stroke="black" points="343.06,-434.21 352.5,-439.02 348.12,-429.37 343.06,-434.21"/>
</g>
<!-- http://purl.org/oseg/ontologies/OTRL#OTRL&#45;9 -->
<g id="node10" class="node">
<title>http://purl.org/oseg/ontologies/OTRL#OTRL&#45;9</title>
<ellipse fill="none" stroke="#e377c2" cx="485.37" cy="-331.12" rx="49.49" ry="16.03"/>
<text text-anchor="middle" x="485.37" y="-327.42" font-family="Times,serif" font-size="14.00">OTRL&#45;9</text>
</g>
<!-- http://purl.org/oseg/ontologies/OTRL#OTRL&#45;9&#45;&gt;http://www.w3.org/2002/07/owl#class -->
<g id="edge12" class="edge">
<title>http://purl.org/oseg/ontologies/OTRL#OTRL&#45;9&#45;&gt;http://www.w3.org/2002/07/owl#class</title>
<path fill="none" stroke="black" d="M478.44,-314.64C472.12,-299.62 462.69,-277.19 455.37,-259.8"/>
<polygon fill="black" stroke="black" points="458.45,-258.09 451.34,-250.23 452,-260.81 458.45,-258.09"/>
<text text-anchor="middle" x="462.4" y="-291.02" font-family="Times,serif" font-size="14.00">a</text>
</g>
<!-- http://purl.org/oseg/ontologies/OTRL#OTRL&#45;9&#45;&gt;http://purl.org/oseg/ontologies/OTRL#OTRL -->
<g id="edge19" class="edge">
<title>http://purl.org/oseg/ontologies/OTRL#OTRL&#45;9&#45;&gt;http://purl.org/oseg/ontologies/OTRL#OTRL</title>
<path fill="none" stroke="black" d="M470.42,-346.75C449.94,-368.17 412.99,-406.8 389.34,-431.53"/>
<polygon fill="black" stroke="black" points="386.55,-429.39 382.17,-439.03 391.61,-434.22 386.55,-429.39"/>
</g>
<!-- http://purl.org/oseg/ontologies/OTRL -->
<g id="node11" class="node">
<title>http://purl.org/oseg/ontologies/OTRL</title>
<ellipse fill="none" stroke="#e377c2" cx="565.24" cy="-576.64" rx="60.62" ry="16.03"/>
<text text-anchor="middle" x="565.24" y="-572.94" font-family="Times,serif" font-size="14.00">ns1:OTRL</text>
</g>
<!-- http://purl.org/oseg/ontologies/OTRL&#45;&gt;http://purl.org/oseg/ontologies/OTRL -->
<g id="edge13" class="edge">
<title>http://purl.org/oseg/ontologies/OTRL&#45;&gt;http://purl.org/oseg/ontologies/OTRL</title>
<path fill="none" stroke="black" d="M620.84,-583.27C634.17,-582.75 644.05,-580.54 644.05,-576.64 644.05,-573.81 638.83,-571.86 630.87,-570.81"/>
<polygon fill="black" stroke="black" points="631.09,-567.32 620.84,-570.01 630.53,-574.3 631.09,-567.32"/>
<text text-anchor="middle" x="695.55" y="-572.94" font-family="Times,serif" font-size="14.00">owl:versionIRI</text>
</g>
<!-- http://purl.org/oseg/ontologies/OTRL#ODRL&#45;1 -->
<g id="node12" class="node">
<title>http://purl.org/oseg/ontologies/OTRL#ODRL&#45;1</title>
<ellipse fill="none" stroke="#e377c2" cx="591.32" cy="-57.6" rx="50.82" ry="16.03"/>
<text text-anchor="middle" x="591.32" y="-53.9" font-family="Times,serif" font-size="14.00">ODRL&#45;1</text>
</g>
<!-- http://purl.org/oseg/ontologies/OTRL#ODRL&#45;1&#45;&gt;http://purl.org/oseg/ontologies/OTRL#ODRL -->
<g id="edge17" class="edge">
<title>http://purl.org/oseg/ontologies/OTRL#ODRL&#45;1&#45;&gt;http://purl.org/oseg/ontologies/OTRL#ODRL</title>
<path fill="none" stroke="black" d="M540.39,-58.67C540.29,-58.67 540.2,-58.67 540.1,-58.67"/>
<polygon fill="black" stroke="black" points="541.11,-55.15 531.18,-58.86 541.25,-62.15 541.11,-55.15"/>
</g>
<!-- http://purl.org/oseg/ontologies/OTRL#ODRL&#45;1&#45;&gt;http://www.w3.org/2002/07/owl#class -->
<g id="edge14" class="edge">
<title>http://purl.org/oseg/ontologies/OTRL#ODRL&#45;1&#45;&gt;http://www.w3.org/2002/07/owl#class</title>
<path fill="none" stroke="black" d="M578.04,-73.56C552.12,-104.71 494.69,-173.71 464.29,-210.24"/>
<polygon fill="black" stroke="black" points="461.59,-208.02 457.88,-217.94 466.97,-212.5 461.59,-208.02"/>
<text text-anchor="middle" x="516.66" y="-145.7" font-family="Times,serif" font-size="14.00">a</text>
</g>
<!-- http://purl.org/oseg/ontologies/OTRL#ODRL&#45;0 -->
<g id="node13" class="node">
<title>http://purl.org/oseg/ontologies/OTRL#ODRL&#45;0</title>
<ellipse fill="none" stroke="#e377c2" cx="325.63" cy="-65.53" rx="50.82" ry="16.03"/>
<text text-anchor="middle" x="325.63" y="-61.83" font-family="Times,serif" font-size="14.00">ODRL&#45;0</text>
</g>
<!-- http://purl.org/oseg/ontologies/OTRL#ODRL&#45;0&#45;&gt;http://purl.org/oseg/ontologies/OTRL#ODRL -->
<g id="edge2" class="edge">
<title>http://purl.org/oseg/ontologies/OTRL#ODRL&#45;0&#45;&gt;http://purl.org/oseg/ontologies/OTRL#ODRL</title>
<path fill="none" stroke="black" d="M376.57,-63.73C396,-63.04 418.15,-62.26 437.65,-61.57"/>
<polygon fill="black" stroke="black" points="438.01,-65.06 447.88,-61.21 437.77,-58.06 438.01,-65.06"/>
</g>
<!-- http://purl.org/oseg/ontologies/OTRL#ODRL&#45;0&#45;&gt;http://www.w3.org/2002/07/owl#class -->
<g id="edge27" class="edge">
<title>http://purl.org/oseg/ontologies/OTRL#ODRL&#45;0&#45;&gt;http://www.w3.org/2002/07/owl#class</title>
<path fill="none" stroke="black" d="M337.03,-81.69C357.93,-111.3 402.48,-174.43 427.16,-209.4"/>
<polygon fill="black" stroke="black" points="424.35,-211.5 432.98,-217.65 430.07,-207.46 424.35,-211.5"/>
<text text-anchor="middle" x="377.59" y="-149.34" font-family="Times,serif" font-size="14.00">a</text>
</g>
<!-- http://purl.org/oseg/ontologies/OTRL#OTRL&#45;1 -->
<g id="node14" class="node">
<title>http://purl.org/oseg/ontologies/OTRL#OTRL&#45;1</title>
<ellipse fill="none" stroke="#e377c2" cx="510.41" cy="-373.83" rx="49.49" ry="16.03"/>
<text text-anchor="middle" x="510.41" y="-370.13" font-family="Times,serif" font-size="14.00">OTRL&#45;1</text>
</g>
<!-- http://purl.org/oseg/ontologies/OTRL#OTRL&#45;1&#45;&gt;http://www.w3.org/2002/07/owl#class -->
<g id="edge18" class="edge">
<title>http://purl.org/oseg/ontologies/OTRL#OTRL&#45;1&#45;&gt;http://www.w3.org/2002/07/owl#class</title>
<path fill="none" stroke="black" d="M502.72,-357.51C491.37,-333.41 470,-288.07 456.55,-259.54"/>
<polygon fill="black" stroke="black" points="459.58,-257.76 452.16,-250.21 453.25,-260.75 459.58,-257.76"/>
<text text-anchor="middle" x="475.14" y="-297.33" font-family="Times,serif" font-size="14.00">a</text>
</g>
<!-- http://purl.org/oseg/ontologies/OTRL#OTRL&#45;1&#45;&gt;http://purl.org/oseg/ontologies/OTRL#OTRL -->
<g id="edge16" class="edge">
<title>http://purl.org/oseg/ontologies/OTRL#OTRL&#45;1&#45;&gt;http://purl.org/oseg/ontologies/OTRL#OTRL</title>
<path fill="none" stroke="black" d="M485.49,-387.88C461.71,-401.3 425.77,-421.57 399.77,-436.24"/>
<polygon fill="black" stroke="black" points="398.02,-433.21 391.03,-441.17 401.45,-439.31 398.02,-433.21"/>
</g>
<!-- http://purl.org/oseg/ontologies/OTRL#OTRL&#45;7 -->
<g id="node15" class="node">
<title>http://purl.org/oseg/ontologies/OTRL#OTRL&#45;7</title>
<ellipse fill="none" stroke="#e377c2" cx="503.23" cy="-456.32" rx="49.49" ry="16.03"/>
<text text-anchor="middle" x="503.23" y="-452.62" font-family="Times,serif" font-size="14.00">OTRL&#45;7</text>
</g>
<!-- http://purl.org/oseg/ontologies/OTRL#OTRL&#45;7&#45;&gt;http://www.w3.org/2002/07/owl#class -->
<g id="edge31" class="edge">
<title>http://purl.org/oseg/ontologies/OTRL#OTRL&#45;7&#45;&gt;http://www.w3.org/2002/07/owl#class</title>
<path fill="none" stroke="black" d="M498.91,-439.98C488.84,-401.83 463.71,-306.68 451.46,-260.28"/>
<polygon fill="black" stroke="black" points="454.78,-259.15 448.84,-250.37 448.01,-260.94 454.78,-259.15"/>
<text text-anchor="middle" x="470.68" y="-353.93" font-family="Times,serif" font-size="14.00">a</text>
</g>
<!-- http://purl.org/oseg/ontologies/OTRL#OTRL&#45;7&#45;&gt;http://purl.org/oseg/ontologies/OTRL#OTRL -->
<g id="edge28" class="edge">
<title>http://purl.org/oseg/ontologies/OTRL#OTRL&#45;7&#45;&gt;http://purl.org/oseg/ontologies/OTRL#OTRL</title>
<path fill="none" stroke="black" d="M453.4,-455.67C441.56,-455.51 428.94,-455.35 417.11,-455.19"/>
<polygon fill="black" stroke="black" points="417,-451.69 406.95,-455.06 416.91,-458.69 417,-451.69"/>
</g>
<!-- http://purl.org/oseg/ontologies/OTRL#ODRL&#45;2 -->
<g id="node16" class="node">
<title>http://purl.org/oseg/ontologies/OTRL#ODRL&#45;2</title>
<ellipse fill="none" stroke="#e377c2" cx="370.27" cy="-20.24" rx="50.82" ry="16.03"/>
<text text-anchor="middle" x="370.27" y="-16.54" font-family="Times,serif" font-size="14.00">ODRL&#45;2</text>
</g>
<!-- http://purl.org/oseg/ontologies/OTRL#ODRL&#45;2&#45;&gt;http://purl.org/oseg/ontologies/OTRL#ODRL -->
<g id="edge6" class="edge">
<title>http://purl.org/oseg/ontologies/OTRL#ODRL&#45;2&#45;&gt;http://purl.org/oseg/ontologies/OTRL#ODRL</title>
<path fill="none" stroke="black" d="M405.7,-31.98C418.96,-36.37 434.13,-41.4 447.88,-45.96"/>
<polygon fill="black" stroke="black" points="447.01,-49.36 457.6,-49.18 449.21,-42.71 447.01,-49.36"/>
</g>
<!-- http://purl.org/oseg/ontologies/OTRL#ODRL&#45;2&#45;&gt;http://www.w3.org/2002/07/owl#class -->
<g id="edge32" class="edge">
<title>http://purl.org/oseg/ontologies/OTRL#ODRL&#45;2&#45;&gt;http://www.w3.org/2002/07/owl#class</title>
<path fill="none" stroke="black" d="M375.97,-36.65C388.79,-73.57 419.98,-163.37 435.48,-207.97"/>
<polygon fill="black" stroke="black" points="432.21,-209.23 438.79,-217.53 438.82,-206.93 432.21,-209.23"/>
<text text-anchor="middle" x="401.22" y="-126.11" font-family="Times,serif" font-size="14.00">a</text>
</g>
<!-- http://purl.org/oseg/ontologies/OTRL#ODRL&#45;5 -->
<g id="node17" class="node">
<title>http://purl.org/oseg/ontologies/OTRL#ODRL&#45;5</title>
<ellipse fill="none" stroke="#e377c2" cx="625.59" cy="-107.97" rx="50.82" ry="16.03"/>
<text text-anchor="middle" x="625.59" y="-104.27" font-family="Times,serif" font-size="14.00">ODRL&#45;5</text>
</g>
<!-- http://purl.org/oseg/ontologies/OTRL#ODRL&#45;5&#45;&gt;http://purl.org/oseg/ontologies/OTRL#ODRL -->
<g id="edge20" class="edge">
<title>http://purl.org/oseg/ontologies/OTRL#ODRL&#45;5&#45;&gt;http://purl.org/oseg/ontologies/OTRL#ODRL</title>
<path fill="none" stroke="black" d="M591.23,-95.8C572.64,-89.21 549.55,-81.03 530.06,-74.12"/>
<polygon fill="black" stroke="black" points="531.13,-70.79 520.54,-70.75 528.79,-77.39 531.13,-70.79"/>
</g>
<!-- http://purl.org/oseg/ontologies/OTRL#ODRL&#45;5&#45;&gt;http://www.w3.org/2002/07/owl#class -->
<g id="edge33" class="edge">
<title>http://purl.org/oseg/ontologies/OTRL#ODRL&#45;5&#45;&gt;http://www.w3.org/2002/07/owl#class</title>
<path fill="none" stroke="black" d="M604.1,-122.92C571.93,-145.32 511.11,-187.65 474.55,-213.1"/>
<polygon fill="black" stroke="black" points="472.46,-210.29 466.25,-218.87 476.46,-216.03 472.46,-210.29"/>
<text text-anchor="middle" x="534.83" y="-171.81" font-family="Times,serif" font-size="14.00">a</text>
</g>
<!-- http://purl.org/oseg/ontologies/OTRL#ODRL&#45;4 -->
<g id="node18" class="node">
<title>http://purl.org/oseg/ontologies/OTRL#ODRL&#45;4</title>
<ellipse fill="none" stroke="#e377c2" cx="626.33" cy="-164.54" rx="50.82" ry="16.03"/>
<text text-anchor="middle" x="626.33" y="-160.84" font-family="Times,serif" font-size="14.00">ODRL&#45;4</text>
</g>
<!-- http://purl.org/oseg/ontologies/OTRL#ODRL&#45;4&#45;&gt;http://purl.org/oseg/ontologies/OTRL#ODRL -->
<g id="edge15" class="edge">
<title>http://purl.org/oseg/ontologies/OTRL#ODRL&#45;4&#45;&gt;http://purl.org/oseg/ontologies/OTRL#ODRL</title>
<path fill="none" stroke="black" d="M606.72,-149.52C583.11,-131.44 543.31,-100.98 516.72,-80.61"/>
<polygon fill="black" stroke="black" points="518.66,-77.69 508.59,-74.39 514.4,-83.24 518.66,-77.69"/>
</g>
<!-- http://purl.org/oseg/ontologies/OTRL#ODRL&#45;4&#45;&gt;http://www.w3.org/2002/07/owl#class -->
<g id="edge37" class="edge">
<title>http://purl.org/oseg/ontologies/OTRL#ODRL&#45;4&#45;&gt;http://www.w3.org/2002/07/owl#class</title>
<path fill="none" stroke="black" d="M593.41,-177.12C564.01,-188.35 520.73,-204.89 488.39,-217.24"/>
<polygon fill="black" stroke="black" points="486.83,-214.09 478.74,-220.93 489.33,-220.63 486.83,-214.09"/>
<text text-anchor="middle" x="536.4" y="-200.98" font-family="Times,serif" font-size="14.00">a</text>
</g>
<!-- http://purl.org/oseg/ontologies/OTRL#OTRL&#45;5 -->
<g id="node19" class="node">
<title>http://purl.org/oseg/ontologies/OTRL#OTRL&#45;5</title>
<ellipse fill="none" stroke="#e377c2" cx="351.73" cy="-309.35" rx="49.49" ry="16.03"/>
<text text-anchor="middle" x="351.73" y="-305.65" font-family="Times,serif" font-size="14.00">OTRL&#45;5</text>
</g>
<!-- http://purl.org/oseg/ontologies/OTRL#OTRL&#45;5&#45;&gt;http://www.w3.org/2002/07/owl#class -->
<g id="edge39" class="edge">
<title>http://purl.org/oseg/ontologies/OTRL#OTRL&#45;5&#45;&gt;http://www.w3.org/2002/07/owl#class</title>
<path fill="none" stroke="black" d="M370.51,-294.1C384,-283.14 402.4,-268.21 417.47,-255.97"/>
<polygon fill="black" stroke="black" points="419.89,-258.51 425.45,-249.49 415.48,-253.07 419.89,-258.51"/>
<text text-anchor="middle" x="389.49" y="-278.83" font-family="Times,serif" font-size="14.00">a</text>
</g>
<!-- http://purl.org/oseg/ontologies/OTRL#OTRL&#45;5&#45;&gt;http://purl.org/oseg/ontologies/OTRL#OTRL -->
<g id="edge36" class="edge">
<title>http://purl.org/oseg/ontologies/OTRL#OTRL&#45;5&#45;&gt;http://purl.org/oseg/ontologies/OTRL#OTRL</title>
<path fill="none" stroke="black" d="M353.49,-325.72C356.16,-350.56 361.26,-398.01 364.47,-427.87"/>
<polygon fill="black" stroke="black" points="361.01,-428.43 365.56,-438 367.97,-427.68 361.01,-428.43"/>
</g>
<!-- http://purl.org/oseg/ontologies/OTRL#exitCriteria -->
<g id="node20" class="node">
<title>http://purl.org/oseg/ontologies/OTRL#exitCriteria</title>
<ellipse fill="none" stroke="#e377c2" cx="352.94" cy="-661.4" rx="70.01" ry="16.03"/>
<text text-anchor="middle" x="352.94" y="-657.7" font-family="Times,serif" font-size="14.00">exitCriteria</text>
</g>
<!-- http://purl.org/oseg/ontologies/OTRL#exitCriteria&#45;&gt;http://purl.org/oseg/ontologies/OTRL#OTRL -->
<g id="edge21" class="edge">
<title>http://purl.org/oseg/ontologies/OTRL#exitCriteria&#45;&gt;http://purl.org/oseg/ontologies/OTRL#OTRL</title>
<path fill="none" stroke="black" d="M354.09,-644.82C356.59,-609.03 362.49,-524.25 365.5,-480.96"/>
<polygon fill="black" stroke="black" points="369,-481.13 366.2,-470.91 362.01,-480.64 369,-481.13"/>
<text text-anchor="middle" x="333.3" y="-566.69" font-family="Times,serif" font-size="14.00">domain</text>
</g>
<!-- http://purl.org/oseg/ontologies/OTRL#exitCriteria&#45;&gt;http://schema.org/Text -->
<g id="edge34" class="edge">
<title>http://purl.org/oseg/ontologies/OTRL#exitCriteria&#45;&gt;http://schema.org/Text</title>
<path fill="none" stroke="black" d="M333.25,-677.2C310.08,-695.79 271.46,-726.78 245.27,-747.79"/>
<polygon fill="black" stroke="black" points="242.84,-745.25 237.24,-754.24 247.23,-750.71 242.84,-745.25"/>
<text text-anchor="middle" x="268.26" y="-701.3" font-family="Times,serif" font-size="14.00">range</text>
</g>
<!-- http://purl.org/oseg/ontologies/OTRL#documentationDescription -->
<g id="node21" class="node">
<title>http://purl.org/oseg/ontologies/OTRL#documentationDescription</title>
<ellipse fill="none" stroke="#e377c2" cx="471.31" cy="-715.79" rx="120.83" ry="16.03"/>
<text text-anchor="middle" x="471.31" y="-712.09" font-family="Times,serif" font-size="14.00">documentationDesc...</text>
</g>
<!-- http://purl.org/oseg/ontologies/OTRL#documentationDescription&#45;&gt;http://purl.org/oseg/ontologies/OTRL#OTRL -->
<g id="edge38" class="edge">
<title>http://purl.org/oseg/ontologies/OTRL#documentationDescription&#45;&gt;http://purl.org/oseg/ontologies/OTRL#OTRL</title>
<path fill="none" stroke="black" d="M464.8,-699.45C447.26,-655.37 398.87,-533.78 377.6,-480.32"/>
<polygon fill="black" stroke="black" points="380.79,-478.87 373.84,-470.87 374.29,-481.46 380.79,-478.87"/>
<text text-anchor="middle" x="394.7" y="-593.69" font-family="Times,serif" font-size="14.00">domain</text>
</g>
<!-- http://purl.org/oseg/ontologies/OTRL#documentationDescription&#45;&gt;http://schema.org/Text -->
<g id="edge3" class="edge">
<title>http://purl.org/oseg/ontologies/OTRL#documentationDescription&#45;&gt;http://schema.org/Text</title>
<path fill="none" stroke="black" d="M406.61,-729.63C368.05,-737.87 319.32,-748.29 280.98,-756.49"/>
<polygon fill="black" stroke="black" points="280.02,-753.12 270.97,-758.63 281.48,-759.96 280.02,-753.12"/>
<text text-anchor="middle" x="364.8" y="-746.86" font-family="Times,serif" font-size="14.00">range</text>
</g>
<!-- http://purl.org/oseg/ontologies/OTRL#OTRL&#45;4 -->
<g id="node22" class="node">
<title>http://purl.org/oseg/ontologies/OTRL#OTRL&#45;4</title>
<ellipse fill="none" stroke="#e377c2" cx="281.54" cy="-365.87" rx="49.49" ry="16.03"/>
<text text-anchor="middle" x="281.54" y="-362.17" font-family="Times,serif" font-size="14.00">OTRL&#45;4</text>
</g>
<!-- http://purl.org/oseg/ontologies/OTRL#OTRL&#45;4&#45;&gt;http://www.w3.org/2002/07/owl#class -->
<g id="edge22" class="edge">
<title>http://purl.org/oseg/ontologies/OTRL#OTRL&#45;4&#45;&gt;http://www.w3.org/2002/07/owl#class</title>
<path fill="none" stroke="black" d="M300.23,-350.74C329.06,-327.42 384.49,-282.57 417.62,-255.76"/>
<polygon fill="black" stroke="black" points="419.96,-258.37 425.54,-249.36 415.56,-252.93 419.96,-258.37"/>
<text text-anchor="middle" x="354.43" y="-292.05" font-family="Times,serif" font-size="14.00">a</text>
</g>
<!-- http://purl.org/oseg/ontologies/OTRL#OTRL&#45;4&#45;&gt;http://purl.org/oseg/ontologies/OTRL#OTRL -->
<g id="edge10" class="edge">
<title>http://purl.org/oseg/ontologies/OTRL#OTRL&#45;4&#45;&gt;http://purl.org/oseg/ontologies/OTRL#OTRL</title>
<path fill="none" stroke="black" d="M296.88,-381.72C310.46,-395.76 330.45,-416.41 345.67,-432.14"/>
<polygon fill="black" stroke="black" points="343.24,-434.66 352.71,-439.41 348.27,-429.79 343.24,-434.66"/>
</g>
<!-- http://purl.org/oseg/ontologies/OTRL#softwareDescription -->
<g id="node23" class="node">
<title>http://purl.org/oseg/ontologies/OTRL#softwareDescription</title>
<ellipse fill="none" stroke="#e377c2" cx="228.44" cy="-729.24" rx="113.69" ry="16.03"/>
<text text-anchor="middle" x="228.44" y="-725.54" font-family="Times,serif" font-size="14.00">softwareDescription</text>
</g>
<!-- http://purl.org/oseg/ontologies/OTRL#softwareDescription&#45;&gt;http://purl.org/oseg/ontologies/OTRL#OTRL -->
<g id="edge23" class="edge">
<title>http://purl.org/oseg/ontologies/OTRL#softwareDescription&#45;&gt;http://purl.org/oseg/ontologies/OTRL#OTRL</title>
<path fill="none" stroke="black" d="M236.71,-712.88C260.07,-666.68 326.66,-534.99 354.67,-479.59"/>
<polygon fill="black" stroke="black" points="357.89,-480.97 359.28,-470.47 351.65,-477.81 357.89,-480.97"/>
<text text-anchor="middle" x="269.19" y="-600.03" font-family="Times,serif" font-size="14.00">domain</text>
</g>
<!-- http://purl.org/oseg/ontologies/OTRL#softwareDescription&#45;&gt;http://schema.org/Text -->
<g id="edge25" class="edge">
<title>http://purl.org/oseg/ontologies/OTRL#softwareDescription&#45;&gt;http://schema.org/Text</title>
<path fill="none" stroke="black" d="M224,-745.84C223.95,-746 223.91,-746.16 223.87,-746.32"/>
<polygon fill="black" stroke="black" points="221.12,-743.04 221.92,-753.6 227.89,-744.85 221.12,-743.04"/>
<text text-anchor="middle" x="202.93" y="-749.88" font-family="Times,serif" font-size="14.00">range</text>
</g>
<!-- http://purl.org/oseg/ontologies/OTRL#hardwareDescription -->
<g id="node24" class="node">
<title>http://purl.org/oseg/ontologies/OTRL#hardwareDescription</title>
<ellipse fill="none" stroke="#e377c2" cx="117.98" cy="-570.19" rx="118.17" ry="16.03"/>
<text text-anchor="middle" x="117.98" y="-566.49" font-family="Times,serif" font-size="14.00">hardwareDescription</text>
</g>
<!-- http://purl.org/oseg/ontologies/OTRL#hardwareDescription&#45;&gt;http://purl.org/oseg/ontologies/OTRL#OTRL -->
<g id="edge30" class="edge">
<title>http://purl.org/oseg/ontologies/OTRL#hardwareDescription&#45;&gt;http://purl.org/oseg/ontologies/OTRL#OTRL</title>
<path fill="none" stroke="black" d="M151.61,-554.59C198.72,-532.74 283.96,-493.2 331.98,-470.93"/>
<polygon fill="black" stroke="black" points="333.47,-474.1 341.07,-466.72 330.53,-467.75 333.47,-474.1"/>
<text text-anchor="middle" x="215.3" y="-516.56" font-family="Times,serif" font-size="14.00">domain</text>
</g>
<!-- http://purl.org/oseg/ontologies/OTRL#hardwareDescription&#45;&gt;http://schema.org/Text -->
<g id="edge40" class="edge">
<title>http://purl.org/oseg/ontologies/OTRL#hardwareDescription&#45;&gt;http://schema.org/Text</title>
<path fill="none" stroke="black" d="M126.13,-586.54C143.45,-621.33 184.06,-702.86 204.81,-744.54"/>
<polygon fill="black" stroke="black" points="201.81,-746.36 209.4,-753.76 208.08,-743.24 201.81,-746.36"/>
<text text-anchor="middle" x="144.47" y="-669.34" font-family="Times,serif" font-size="14.00">range</text>
</g>
</g>
</svg>
