<?xml version="1.0" encoding="UTF-8" standalone="no"?>
<!DOCTYPE svg PUBLIC "-//W3C//DTD SVG 1.1//EN"
 "http://www.w3.org/Graphics/SVG/1.1/DTD/svg11.dtd">
<!-- Generated by graphviz version 2.43.0 (0)
 -->
<!-- Title: G Pages: 1 -->
<svg width="629pt" height="423pt"
 viewBox="0.00 0.00 629.05 423.00" xmlns="http://www.w3.org/2000/svg" xmlns:xlink="http://www.w3.org/1999/xlink">
<g id="graph0" class="graph" transform="scale(1 1) rotate(0) translate(4 419)">
<title>G</title>
<polygon fill="white" stroke="transparent" points="-4,4 -4,-419 625.05,-419 625.05,4 -4,4"/>
<!-- http://purl.org/oseg/ontologies/OTRL#OTRL -->
<g id="node1" class="node">
<title>http://purl.org/oseg/ontologies/OTRL#OTRL</title>
<ellipse fill="none" stroke="#e377c2" cx="182.97" cy="-275.66" rx="39.7" ry="16.03"/>
<text text-anchor="middle" x="182.97" y="-271.96" font-family="Times,serif" font-size="14.00">OTRL</text>
</g>
<!-- http://www.w3.org/2002/07/owl#class -->
<g id="node2" class="node">
<title>http://www.w3.org/2002/07/owl#class</title>
<ellipse fill="none" stroke="#1f77b4" cx="202.52" cy="-225.3" rx="57.05" ry="16.03"/>
<text text-anchor="middle" x="202.52" y="-221.6" font-family="Times,serif" font-size="14.00">owl:class</text>
</g>
<!-- http://purl.org/oseg/ontologies/OTRL#OTRL&#45;&gt;http://www.w3.org/2002/07/owl#class -->
<g id="edge1" class="edge">
<title>http://purl.org/oseg/ontologies/OTRL#OTRL&#45;&gt;http://www.w3.org/2002/07/owl#class</title>
<path fill="none" stroke="black" d="M189.26,-259.45C190.31,-256.75 191.42,-253.9 192.53,-251.04"/>
<polygon fill="black" stroke="black" points="195.88,-252.07 196.24,-241.48 189.36,-249.54 195.88,-252.07"/>
<text text-anchor="middle" x="186.4" y="-244.04" font-family="Times,serif" font-size="14.00">a</text>
</g>
<!-- http://purl.org/oseg/ontologies/OTRL#ODRL -->
<g id="node3" class="node">
<title>http://purl.org/oseg/ontologies/OTRL#ODRL</title>
<ellipse fill="none" stroke="#e377c2" cx="237.24" cy="-16.31" rx="41.94" ry="16.03"/>
<text text-anchor="middle" x="237.24" y="-12.61" font-family="Times,serif" font-size="14.00">ODRL</text>
</g>
<!-- http://purl.org/oseg/ontologies/OTRL#Otrl3 -->
<g id="node4" class="node">
<title>http://purl.org/oseg/ontologies/OTRL#Otrl3</title>
<ellipse fill="none" stroke="#e377c2" cx="111.02" cy="-380.05" rx="38.37" ry="16.03"/>
<text text-anchor="middle" x="111.02" y="-376.35" font-family="Times,serif" font-size="14.00">Otrl3</text>
</g>
<!-- http://purl.org/oseg/ontologies/OTRL#Otrl3&#45;&gt;http://purl.org/oseg/ontologies/OTRL#OTRL -->
<g id="edge16" class="edge">
<title>http://purl.org/oseg/ontologies/OTRL#Otrl3&#45;&gt;http://purl.org/oseg/ontologies/OTRL#OTRL</title>
<path fill="none" stroke="black" d="M121.95,-364.2C133.74,-347.08 152.67,-319.62 166.32,-299.81"/>
<polygon fill="black" stroke="black" points="169.38,-301.54 172.18,-291.32 163.62,-297.57 169.38,-301.54"/>
</g>
<!-- http://purl.org/oseg/ontologies/OTRL#Otrl3&#45;&gt;http://www.w3.org/2002/07/owl#class -->
<g id="edge10" class="edge">
<title>http://purl.org/oseg/ontologies/OTRL#Otrl3&#45;&gt;http://www.w3.org/2002/07/owl#class</title>
<path fill="none" stroke="black" d="M120.46,-364.07C136.42,-337.08 168.83,-282.28 187.79,-250.21"/>
<polygon fill="black" stroke="black" points="190.91,-251.81 192.99,-241.42 184.88,-248.25 190.91,-251.81"/>
<text text-anchor="middle" x="149.63" y="-310.94" font-family="Times,serif" font-size="14.00">a</text>
</g>
<!-- http://purl.org/oseg/ontologies/OTRL#Odrl -->
<g id="node5" class="node">
<title>http://purl.org/oseg/ontologies/OTRL#Odrl</title>
<ellipse fill="none" stroke="#e377c2" cx="315.47" cy="-359.43" rx="33.88" ry="16.03"/>
<text text-anchor="middle" x="315.47" y="-355.73" font-family="Times,serif" font-size="14.00">Odrl</text>
</g>
<!-- http://purl.org/oseg/ontologies/OTRL#Odrl&#45;&gt;http://www.w3.org/2002/07/owl#class -->
<g id="edge3" class="edge">
<title>http://purl.org/oseg/ontologies/OTRL#Odrl&#45;&gt;http://www.w3.org/2002/07/owl#class</title>
<path fill="none" stroke="black" d="M302.73,-344.3C283.28,-321.21 246,-276.93 222.8,-249.38"/>
<polygon fill="black" stroke="black" points="225.2,-246.81 216.08,-241.41 219.85,-251.31 225.2,-246.81"/>
<text text-anchor="middle" x="258.26" y="-300.64" font-family="Times,serif" font-size="14.00">a</text>
</g>
<!-- http://schema.org/Text -->
<g id="node6" class="node">
<title>http://schema.org/Text</title>
<ellipse fill="none" stroke="#e377c2" cx="432.17" cy="-228.42" rx="74.91" ry="16.03"/>
<text text-anchor="middle" x="432.17" y="-224.72" font-family="Times,serif" font-size="14.00">schema:Text</text>
</g>
<!-- http://purl.org/oseg/ontologies/OTRL -->
<g id="node7" class="node">
<title>http://purl.org/oseg/ontologies/OTRL</title>
<ellipse fill="none" stroke="#e377c2" cx="439.24" cy="-37.64" rx="60.62" ry="16.03"/>
<text text-anchor="middle" x="439.24" y="-33.94" font-family="Times,serif" font-size="14.00">ns1:OTRL</text>
</g>
<!-- http://purl.org/oseg/ontologies/OTRL&#45;&gt;http://purl.org/oseg/ontologies/OTRL -->
<g id="edge21" class="edge">
<title>http://purl.org/oseg/ontologies/OTRL&#45;&gt;http://purl.org/oseg/ontologies/OTRL</title>
<path fill="none" stroke="black" d="M494.84,-44.27C508.17,-43.75 518.05,-41.54 518.05,-37.64 518.05,-34.81 512.83,-32.86 504.87,-31.81"/>
<polygon fill="black" stroke="black" points="505.09,-28.32 494.84,-31.01 504.53,-35.3 505.09,-28.32"/>
<text text-anchor="middle" x="569.55" y="-33.94" font-family="Times,serif" font-size="14.00">owl:versionIRI</text>
</g>
<!-- http://purl.org/oseg/ontologies/OTRL#Odrl4 -->
<g id="node8" class="node">
<title>http://purl.org/oseg/ontologies/OTRL#Odrl4</title>
<ellipse fill="none" stroke="#e377c2" cx="217.69" cy="-151.13" rx="40.11" ry="16.03"/>
<text text-anchor="middle" x="217.69" y="-147.43" font-family="Times,serif" font-size="14.00">Odrl4</text>
</g>
<!-- http://purl.org/oseg/ontologies/OTRL#Odrl4&#45;&gt;http://www.w3.org/2002/07/owl#class -->
<g id="edge11" class="edge">
<title>http://purl.org/oseg/ontologies/OTRL#Odrl4&#45;&gt;http://www.w3.org/2002/07/owl#class</title>
<path fill="none" stroke="black" d="M214.33,-167.59C212.44,-176.81 210.04,-188.52 207.9,-198.98"/>
<polygon fill="black" stroke="black" points="204.45,-198.39 205.88,-208.89 211.31,-199.79 204.45,-198.39"/>
<text text-anchor="middle" x="206.61" y="-187.09" font-family="Times,serif" font-size="14.00">a</text>
</g>
<!-- http://purl.org/oseg/ontologies/OTRL#Odrl4&#45;&gt;http://purl.org/oseg/ontologies/OTRL#ODRL -->
<g id="edge20" class="edge">
<title>http://purl.org/oseg/ontologies/OTRL#Odrl4&#45;&gt;http://purl.org/oseg/ontologies/OTRL#ODRL</title>
<path fill="none" stroke="black" d="M220.05,-134.87C223.37,-111.99 229.45,-70.05 233.42,-42.68"/>
<polygon fill="black" stroke="black" points="236.9,-43.03 234.87,-32.63 229.97,-42.03 236.9,-43.03"/>
</g>
<!-- http://purl.org/oseg/ontologies/OTRL#goal -->
<g id="node9" class="node">
<title>http://purl.org/oseg/ontologies/OTRL#goal</title>
<ellipse fill="none" stroke="#e377c2" cx="492.4" cy="-268.99" rx="33.47" ry="16.03"/>
<text text-anchor="middle" x="492.4" y="-265.29" font-family="Times,serif" font-size="14.00">goal</text>
</g>
<!-- http://purl.org/oseg/ontologies/OTRL#goal&#45;&gt;http://schema.org/Text -->
<g id="edge2" class="edge">
<title>http://purl.org/oseg/ontologies/OTRL#goal&#45;&gt;http://schema.org/Text</title>
<path fill="none" stroke="black" d="M472.68,-255.71C469.85,-253.8 466.88,-251.8 463.89,-249.79"/>
<polygon fill="black" stroke="black" points="465.75,-246.82 455.5,-244.14 461.84,-252.63 465.75,-246.82"/>
<text text-anchor="middle" x="447.28" y="-256.55" font-family="Times,serif" font-size="14.00">range</text>
</g>
<!-- http://purl.org/oseg/ontologies/OTRL#Odrl3Star -->
<g id="node10" class="node">
<title>http://purl.org/oseg/ontologies/OTRL#Odrl3Star</title>
<ellipse fill="none" stroke="#e377c2" cx="63.17" cy="-62.02" rx="62.45" ry="16.03"/>
<text text-anchor="middle" x="63.17" y="-58.32" font-family="Times,serif" font-size="14.00">Odrl3Star</text>
</g>
<!-- http://purl.org/oseg/ontologies/OTRL#Odrl3Star&#45;&gt;http://www.w3.org/2002/07/owl#class -->
<g id="edge12" class="edge">
<title>http://purl.org/oseg/ontologies/OTRL#Odrl3Star&#45;&gt;http://www.w3.org/2002/07/owl#class</title>
<path fill="none" stroke="black" d="M76.78,-77.97C101.28,-106.67 152.91,-167.18 181.81,-201.04"/>
<polygon fill="black" stroke="black" points="179.49,-203.71 188.64,-209.04 184.81,-199.16 179.49,-203.71"/>
<text text-anchor="middle" x="124.8" y="-143.31" font-family="Times,serif" font-size="14.00">a</text>
</g>
<!-- http://purl.org/oseg/ontologies/OTRL#Odrl3Star&#45;&gt;http://purl.org/oseg/ontologies/OTRL#ODRL -->
<g id="edge13" class="edge">
<title>http://purl.org/oseg/ontologies/OTRL#Odrl3Star&#45;&gt;http://purl.org/oseg/ontologies/OTRL#ODRL</title>
<path fill="none" stroke="black" d="M107.09,-50.48C133.26,-43.61 166.38,-34.92 192.66,-28.02"/>
<polygon fill="black" stroke="black" points="193.59,-31.39 202.37,-25.47 191.81,-24.62 193.59,-31.39"/>
</g>
<!-- http://www.w3.org/1999/02/22&#45;rdf&#45;syntax&#45;ns#nil -->
<g id="node11" class="node">
<title>http://www.w3.org/1999/02/22&#45;rdf&#45;syntax&#45;ns#nil</title>
<ellipse fill="none" stroke="#e377c2" cx="63.24" cy="-163.64" rx="42.35" ry="16.03"/>
<text text-anchor="middle" x="63.24" y="-159.94" font-family="Times,serif" font-size="14.00">rdf:nil</text>
</g>
<!-- http://purl.org/oseg/ontologies/OTRL#Otrl5 -->
<g id="node12" class="node">
<title>http://purl.org/oseg/ontologies/OTRL#Otrl5</title>
<ellipse fill="none" stroke="#e377c2" cx="323.96" cy="-283.41" rx="38.37" ry="16.03"/>
<text text-anchor="middle" x="323.96" y="-279.71" font-family="Times,serif" font-size="14.00">Otrl5</text>
</g>
<!-- http://purl.org/oseg/ontologies/OTRL#Otrl5&#45;&gt;http://purl.org/oseg/ontologies/OTRL#OTRL -->
<g id="edge15" class="edge">
<title>http://purl.org/oseg/ontologies/OTRL#Otrl5&#45;&gt;http://purl.org/oseg/ontologies/OTRL#OTRL</title>
<path fill="none" stroke="black" d="M285.8,-281.31C269.44,-280.41 250.12,-279.35 232.66,-278.39"/>
<polygon fill="black" stroke="black" points="232.81,-274.89 222.63,-277.84 232.42,-281.88 232.81,-274.89"/>
</g>
<!-- http://purl.org/oseg/ontologies/OTRL#Otrl5&#45;&gt;http://www.w3.org/2002/07/owl#class -->
<g id="edge14" class="edge">
<title>http://purl.org/oseg/ontologies/OTRL#Otrl5&#45;&gt;http://www.w3.org/2002/07/owl#class</title>
<path fill="none" stroke="black" d="M298.5,-271.23C281.84,-263.26 259.76,-252.69 240.98,-243.71"/>
<polygon fill="black" stroke="black" points="242.32,-240.46 231.78,-239.31 239.29,-246.78 242.32,-240.46"/>
<text text-anchor="middle" x="265.24" y="-261.27" font-family="Times,serif" font-size="14.00">a</text>
</g>
<!-- http://purl.org/oseg/ontologies/OTRL#Otrl -->
<g id="node13" class="node">
<title>http://purl.org/oseg/ontologies/OTRL#Otrl</title>
<ellipse fill="none" stroke="#e377c2" cx="410.24" cy="-352.64" rx="31.64" ry="16.03"/>
<text text-anchor="middle" x="410.24" y="-348.94" font-family="Times,serif" font-size="14.00">Otrl</text>
</g>
<!-- http://purl.org/oseg/ontologies/OTRL#Odrl3 -->
<g id="node14" class="node">
<title>http://purl.org/oseg/ontologies/OTRL#Odrl3</title>
<ellipse fill="none" stroke="#e377c2" cx="181.02" cy="-62.66" rx="40.11" ry="16.03"/>
<text text-anchor="middle" x="181.02" y="-58.96" font-family="Times,serif" font-size="14.00">Odrl3</text>
</g>
<!-- http://purl.org/oseg/ontologies/OTRL#Odrl3&#45;&gt;http://www.w3.org/2002/07/owl#class -->
<g id="edge18" class="edge">
<title>http://purl.org/oseg/ontologies/OTRL#Odrl3&#45;&gt;http://www.w3.org/2002/07/owl#class</title>
<path fill="none" stroke="black" d="M183.2,-79.15C186.92,-107.28 194.52,-164.77 199,-198.66"/>
<polygon fill="black" stroke="black" points="195.55,-199.31 200.33,-208.77 202.49,-198.39 195.55,-199.31"/>
<text text-anchor="middle" x="186.6" y="-127.7" font-family="Times,serif" font-size="14.00">a</text>
</g>
<!-- http://purl.org/oseg/ontologies/OTRL#Odrl3&#45;&gt;http://purl.org/oseg/ontologies/OTRL#ODRL -->
<g id="edge4" class="edge">
<title>http://purl.org/oseg/ontologies/OTRL#Odrl3&#45;&gt;http://purl.org/oseg/ontologies/OTRL#ODRL</title>
<path fill="none" stroke="black" d="M198.81,-47.99C202.81,-44.7 207.13,-41.13 211.39,-37.63"/>
<polygon fill="black" stroke="black" points="213.89,-40.1 219.38,-31.04 209.43,-34.7 213.89,-40.1"/>
</g>
<!-- http://purl.org/oseg/ontologies/OTRL#Otrl2 -->
<g id="node15" class="node">
<title>http://purl.org/oseg/ontologies/OTRL#Otrl2</title>
<ellipse fill="none" stroke="#e377c2" cx="38.07" cy="-223.8" rx="38.37" ry="16.03"/>
<text text-anchor="middle" x="38.07" y="-220.1" font-family="Times,serif" font-size="14.00">Otrl2</text>
</g>
<!-- http://purl.org/oseg/ontologies/OTRL#Otrl2&#45;&gt;http://purl.org/oseg/ontologies/OTRL#OTRL -->
<g id="edge5" class="edge">
<title>http://purl.org/oseg/ontologies/OTRL#Otrl2&#45;&gt;http://purl.org/oseg/ontologies/OTRL#OTRL</title>
<path fill="none" stroke="black" d="M67.39,-234.3C89.27,-242.13 119.4,-252.91 143.41,-261.5"/>
<polygon fill="black" stroke="black" points="142.35,-264.84 152.95,-264.91 144.71,-258.25 142.35,-264.84"/>
</g>
<!-- http://purl.org/oseg/ontologies/OTRL#Otrl2&#45;&gt;http://www.w3.org/2002/07/owl#class -->
<g id="edge19" class="edge">
<title>http://purl.org/oseg/ontologies/OTRL#Otrl2&#45;&gt;http://www.w3.org/2002/07/owl#class</title>
<path fill="none" stroke="black" d="M76.63,-224.15C94.01,-224.31 115.06,-224.5 134.93,-224.69"/>
<polygon fill="black" stroke="black" points="135.15,-228.19 145.18,-224.78 135.22,-221.19 135.15,-228.19"/>
<text text-anchor="middle" x="101.28" y="-228.22" font-family="Times,serif" font-size="14.00">a</text>
</g>
<!-- http://purl.org/oseg/ontologies/OTRL#exitCriteria -->
<g id="node16" class="node">
<title>http://purl.org/oseg/ontologies/OTRL#exitCriteria</title>
<ellipse fill="none" stroke="#e377c2" cx="428.21" cy="-184.22" rx="70.01" ry="16.03"/>
<text text-anchor="middle" x="428.21" y="-180.52" font-family="Times,serif" font-size="14.00">exitCriteria</text>
</g>
<!-- http://purl.org/oseg/ontologies/OTRL#exitCriteria&#45;&gt;http://schema.org/Text -->
<g id="edge9" class="edge">
<title>http://purl.org/oseg/ontologies/OTRL#exitCriteria&#45;&gt;http://schema.org/Text</title>
<path fill="none" stroke="black" d="M429.68,-200.68C429.72,-201.15 429.77,-201.62 429.81,-202.09"/>
<polygon fill="black" stroke="black" points="426.33,-202.45 430.71,-212.1 433.3,-201.82 426.33,-202.45"/>
<text text-anchor="middle" x="408.75" y="-205.19" font-family="Times,serif" font-size="14.00">range</text>
</g>
<!-- http://purl.org/oseg/ontologies/OTRL#Odrl1 -->
<g id="node17" class="node">
<title>http://purl.org/oseg/ontologies/OTRL#Odrl1</title>
<ellipse fill="none" stroke="#e377c2" cx="294.5" cy="-74.55" rx="40.11" ry="16.03"/>
<text text-anchor="middle" x="294.5" y="-70.85" font-family="Times,serif" font-size="14.00">Odrl1</text>
</g>
<!-- http://purl.org/oseg/ontologies/OTRL#Odrl1&#45;&gt;http://www.w3.org/2002/07/owl#class -->
<g id="edge23" class="edge">
<title>http://purl.org/oseg/ontologies/OTRL#Odrl1&#45;&gt;http://www.w3.org/2002/07/owl#class</title>
<path fill="none" stroke="black" d="M284.83,-90.4C268.79,-116.68 236.58,-169.48 217.56,-200.66"/>
<polygon fill="black" stroke="black" points="214.56,-198.85 212.34,-209.21 220.53,-202.5 214.56,-198.85"/>
<text text-anchor="middle" x="255.69" y="-134.33" font-family="Times,serif" font-size="14.00">a</text>
</g>
<!-- http://purl.org/oseg/ontologies/OTRL#Odrl1&#45;&gt;http://purl.org/oseg/ontologies/OTRL#ODRL -->
<g id="edge7" class="edge">
<title>http://purl.org/oseg/ontologies/OTRL#Odrl1&#45;&gt;http://purl.org/oseg/ontologies/OTRL#ODRL</title>
<path fill="none" stroke="black" d="M279.45,-59.25C273.32,-53.01 266.11,-45.68 259.39,-38.85"/>
<polygon fill="black" stroke="black" points="261.89,-36.39 252.38,-31.71 256.9,-41.3 261.89,-36.39"/>
</g>
<!-- http://purl.org/oseg/ontologies/OTRL#Otrl1 -->
<g id="node18" class="node">
<title>http://purl.org/oseg/ontologies/OTRL#Otrl1</title>
<ellipse fill="none" stroke="#e377c2" cx="48.97" cy="-311" rx="38.37" ry="16.03"/>
<text text-anchor="middle" x="48.97" y="-307.3" font-family="Times,serif" font-size="14.00">Otrl1</text>
</g>
<!-- http://purl.org/oseg/ontologies/OTRL#Otrl1&#45;&gt;http://purl.org/oseg/ontologies/OTRL#OTRL -->
<g id="edge6" class="edge">
<title>http://purl.org/oseg/ontologies/OTRL#Otrl1&#45;&gt;http://purl.org/oseg/ontologies/OTRL#OTRL</title>
<path fill="none" stroke="black" d="M81.75,-302.35C99.22,-297.75 120.94,-292.02 139.77,-287.05"/>
<polygon fill="black" stroke="black" points="140.82,-290.39 149.6,-284.46 139.04,-283.62 140.82,-290.39"/>
</g>
<!-- http://purl.org/oseg/ontologies/OTRL#Otrl1&#45;&gt;http://www.w3.org/2002/07/owl#class -->
<g id="edge25" class="edge">
<title>http://purl.org/oseg/ontologies/OTRL#Otrl1&#45;&gt;http://www.w3.org/2002/07/owl#class</title>
<path fill="none" stroke="black" d="M72.29,-297.98C97.58,-283.87 138.22,-261.19 167.37,-244.92"/>
<polygon fill="black" stroke="black" points="169.38,-247.81 176.4,-239.88 165.97,-241.69 169.38,-247.81"/>
<text text-anchor="middle" x="115.33" y="-275.25" font-family="Times,serif" font-size="14.00">a</text>
</g>
<!-- http://purl.org/oseg/ontologies/OTRL#Odrl2 -->
<g id="node19" class="node">
<title>http://purl.org/oseg/ontologies/OTRL#Odrl2</title>
<ellipse fill="none" stroke="#e377c2" cx="341.17" cy="-123.98" rx="40.11" ry="16.03"/>
<text text-anchor="middle" x="341.17" y="-120.28" font-family="Times,serif" font-size="14.00">Odrl2</text>
</g>
<!-- http://purl.org/oseg/ontologies/OTRL#Odrl2&#45;&gt;http://www.w3.org/2002/07/owl#class -->
<g id="edge24" class="edge">
<title>http://purl.org/oseg/ontologies/OTRL#Odrl2&#45;&gt;http://www.w3.org/2002/07/owl#class</title>
<path fill="none" stroke="black" d="M321.6,-138.28C298.16,-155.41 258.68,-184.26 231.65,-204.01"/>
<polygon fill="black" stroke="black" points="229.36,-201.35 223.35,-210.08 233.49,-207 229.36,-201.35"/>
<text text-anchor="middle" x="272.12" y="-174.95" font-family="Times,serif" font-size="14.00">a</text>
</g>
<!-- http://purl.org/oseg/ontologies/OTRL#Odrl2&#45;&gt;http://purl.org/oseg/ontologies/OTRL#ODRL -->
<g id="edge22" class="edge">
<title>http://purl.org/oseg/ontologies/OTRL#Odrl2&#45;&gt;http://purl.org/oseg/ontologies/OTRL#ODRL</title>
<path fill="none" stroke="black" d="M326.28,-108.55C308.68,-90.33 279.25,-59.84 259.08,-38.94"/>
<polygon fill="black" stroke="black" points="261.57,-36.47 252.1,-31.71 256.53,-41.34 261.57,-36.47"/>
</g>
<!-- http://purl.org/oseg/ontologies/OTRL#Otrl4 -->
<g id="node20" class="node">
<title>http://purl.org/oseg/ontologies/OTRL#Otrl4</title>
<ellipse fill="none" stroke="#e377c2" cx="213.28" cy="-398.95" rx="38.37" ry="16.03"/>
<text text-anchor="middle" x="213.28" y="-395.25" font-family="Times,serif" font-size="14.00">Otrl4</text>
</g>
<!-- http://purl.org/oseg/ontologies/OTRL#Otrl4&#45;&gt;http://purl.org/oseg/ontologies/OTRL#OTRL -->
<g id="edge8" class="edge">
<title>http://purl.org/oseg/ontologies/OTRL#Otrl4&#45;&gt;http://purl.org/oseg/ontologies/OTRL#OTRL</title>
<path fill="none" stroke="black" d="M209.26,-382.57C204.21,-362.03 195.48,-326.54 189.48,-302.13"/>
<polygon fill="black" stroke="black" points="192.8,-300.97 187.01,-292.1 186,-302.64 192.8,-300.97"/>
</g>
<!-- http://purl.org/oseg/ontologies/OTRL#Otrl4&#45;&gt;http://www.w3.org/2002/07/owl#class -->
<g id="edge17" class="edge">
<title>http://purl.org/oseg/ontologies/OTRL#Otrl4&#45;&gt;http://www.w3.org/2002/07/owl#class</title>
<path fill="none" stroke="black" d="M212.27,-382.61C210.41,-352.62 206.44,-288.51 204.18,-252.07"/>
<polygon fill="black" stroke="black" points="207.65,-251.48 203.54,-241.72 200.66,-251.92 207.65,-251.48"/>
<text text-anchor="middle" x="203.72" y="-321.14" font-family="Times,serif" font-size="14.00">a</text>
</g>
</g>
</svg>
