<?xml version="1.0" encoding="UTF-8" standalone="no"?>
<!DOCTYPE svg PUBLIC "-//W3C//DTD SVG 1.1//EN"
 "http://www.w3.org/Graphics/SVG/1.1/DTD/svg11.dtd">
<!-- Generated by graphviz version 2.43.0 (0)
 -->
<!-- Title: G Pages: 1 -->
<svg width="593pt" height="401pt"
 viewBox="0.00 0.00 593.05 401.00" xmlns="http://www.w3.org/2000/svg" xmlns:xlink="http://www.w3.org/1999/xlink">
<g id="graph0" class="graph" transform="scale(1 1) rotate(0) translate(4 397)">
<title>G</title>
<polygon fill="white" stroke="transparent" points="-4,4 -4,-397 589.05,-397 589.05,4 -4,4"/>
<!-- http://www.w3.org/2002/07/owl#class -->
<g id="node1" class="node">
<title>http://www.w3.org/2002/07/owl#class</title>
<ellipse fill="none" stroke="#1f77b4" cx="168.99" cy="-158.23" rx="57.05" ry="16.03"/>
<text text-anchor="middle" x="168.99" y="-154.53" font-family="Times,serif" font-size="14.00">owl:class</text>
</g>
<!-- http://purl.org/oseg/ontologies/OTRL#ODRL -->
<g id="node2" class="node">
<title>http://purl.org/oseg/ontologies/OTRL#ODRL</title>
<ellipse fill="none" stroke="#e377c2" cx="148.01" cy="-274.3" rx="41.94" ry="16.03"/>
<text text-anchor="middle" x="148.01" y="-270.6" font-family="Times,serif" font-size="14.00">ODRL</text>
</g>
<!-- http://purl.org/oseg/ontologies/OTRL#OTRL -->
<g id="node3" class="node">
<title>http://purl.org/oseg/ontologies/OTRL#OTRL</title>
<ellipse fill="none" stroke="#e377c2" cx="181.92" cy="-117.7" rx="39.7" ry="16.03"/>
<text text-anchor="middle" x="181.92" y="-114" font-family="Times,serif" font-size="14.00">OTRL</text>
</g>
<!-- http://purl.org/oseg/ontologies/OTRL#OTRL&#45;&gt;http://www.w3.org/2002/07/owl#class -->
<g id="edge18" class="edge">
<title>http://purl.org/oseg/ontologies/OTRL#OTRL&#45;&gt;http://www.w3.org/2002/07/owl#class</title>
<path fill="none" stroke="black" d="M176.66,-134.18C176.61,-134.34 176.56,-134.5 176.51,-134.66"/>
<polygon fill="black" stroke="black" points="173.91,-131.3 174.2,-141.89 180.58,-133.43 173.91,-131.3"/>
<text text-anchor="middle" x="172.09" y="-138.22" font-family="Times,serif" font-size="14.00">a</text>
</g>
<!-- http://purl.org/oseg/ontologies/OTRL#Otrl6 -->
<g id="node4" class="node">
<title>http://purl.org/oseg/ontologies/OTRL#Otrl6</title>
<ellipse fill="none" stroke="#e377c2" cx="57.04" cy="-107.17" rx="38.37" ry="16.03"/>
<text text-anchor="middle" x="57.04" y="-103.47" font-family="Times,serif" font-size="14.00">Otrl6</text>
</g>
<!-- http://purl.org/oseg/ontologies/OTRL#Otrl6&#45;&gt;http://www.w3.org/2002/07/owl#class -->
<g id="edge1" class="edge">
<title>http://purl.org/oseg/ontologies/OTRL#Otrl6&#45;&gt;http://www.w3.org/2002/07/owl#class</title>
<path fill="none" stroke="black" d="M83.29,-119.14C96.99,-125.39 114.04,-133.17 129.31,-140.13"/>
<polygon fill="black" stroke="black" points="128,-143.38 138.55,-144.35 130.9,-137.01 128,-143.38"/>
<text text-anchor="middle" x="101.8" y="-133.44" font-family="Times,serif" font-size="14.00">a</text>
</g>
<!-- http://purl.org/oseg/ontologies/OTRL#Otrl6&#45;&gt;http://purl.org/oseg/ontologies/OTRL#OTRL -->
<g id="edge25" class="edge">
<title>http://purl.org/oseg/ontologies/OTRL#Otrl6&#45;&gt;http://purl.org/oseg/ontologies/OTRL#OTRL</title>
<path fill="none" stroke="black" d="M94.51,-110.33C106.53,-111.34 120.02,-112.48 132.75,-113.55"/>
<polygon fill="black" stroke="black" points="132.49,-117.04 142.75,-114.4 133.08,-110.07 132.49,-117.04"/>
</g>
<!-- http://purl.org/oseg/ontologies/OTRL#exitCriteria -->
<g id="node5" class="node">
<title>http://purl.org/oseg/ontologies/OTRL#exitCriteria</title>
<ellipse fill="none" stroke="#e377c2" cx="340.49" cy="-329.16" rx="70.01" ry="16.03"/>
<text text-anchor="middle" x="340.49" y="-325.46" font-family="Times,serif" font-size="14.00">exitCriteria</text>
</g>
<!-- http://schema.org/Text -->
<g id="node17" class="node">
<title>http://schema.org/Text</title>
<ellipse fill="none" stroke="#e377c2" cx="406.92" cy="-286.12" rx="74.91" ry="16.03"/>
<text text-anchor="middle" x="406.92" y="-282.42" font-family="Times,serif" font-size="14.00">schema:Text</text>
</g>
<!-- http://purl.org/oseg/ontologies/OTRL#exitCriteria&#45;&gt;http://schema.org/Text -->
<g id="edge22" class="edge">
<title>http://purl.org/oseg/ontologies/OTRL#exitCriteria&#45;&gt;http://schema.org/Text</title>
<path fill="none" stroke="black" d="M364.47,-313.62C367.63,-311.57 370.91,-309.45 374.19,-307.33"/>
<polygon fill="black" stroke="black" points="376.26,-310.15 382.75,-301.78 372.45,-304.28 376.26,-310.15"/>
<text text-anchor="middle" x="348.33" y="-299.27" font-family="Times,serif" font-size="14.00">range</text>
</g>
<!-- http://purl.org/oseg/ontologies/OTRL -->
<g id="node6" class="node">
<title>http://purl.org/oseg/ontologies/OTRL</title>
<ellipse fill="none" stroke="#e377c2" cx="403.24" cy="-34.64" rx="60.62" ry="16.03"/>
<text text-anchor="middle" x="403.24" y="-30.94" font-family="Times,serif" font-size="14.00">ns1:OTRL</text>
</g>
<!-- http://purl.org/oseg/ontologies/OTRL&#45;&gt;http://purl.org/oseg/ontologies/OTRL -->
<g id="edge2" class="edge">
<title>http://purl.org/oseg/ontologies/OTRL&#45;&gt;http://purl.org/oseg/ontologies/OTRL</title>
<path fill="none" stroke="black" d="M458.84,-41.27C472.17,-40.75 482.05,-38.54 482.05,-34.64 482.05,-31.81 476.83,-29.86 468.87,-28.81"/>
<polygon fill="black" stroke="black" points="469.09,-25.32 458.84,-28.01 468.53,-32.3 469.09,-25.32"/>
<text text-anchor="middle" x="533.55" y="-30.94" font-family="Times,serif" font-size="14.00">owl:versionIRI</text>
</g>
<!-- http://purl.org/oseg/ontologies/OTRL#Otrl -->
<g id="node7" class="node">
<title>http://purl.org/oseg/ontologies/OTRL#Otrl</title>
<ellipse fill="none" stroke="#e377c2" cx="212.24" cy="-376.64" rx="31.64" ry="16.03"/>
<text text-anchor="middle" x="212.24" y="-372.94" font-family="Times,serif" font-size="14.00">Otrl</text>
</g>
<!-- http://purl.org/oseg/ontologies/OTRL#goal -->
<g id="node8" class="node">
<title>http://purl.org/oseg/ontologies/OTRL#goal</title>
<ellipse fill="none" stroke="#e377c2" cx="469.09" cy="-326.84" rx="33.47" ry="16.03"/>
<text text-anchor="middle" x="469.09" y="-323.14" font-family="Times,serif" font-size="14.00">goal</text>
</g>
<!-- http://purl.org/oseg/ontologies/OTRL#goal&#45;&gt;http://schema.org/Text -->
<g id="edge23" class="edge">
<title>http://purl.org/oseg/ontologies/OTRL#goal&#45;&gt;http://schema.org/Text</title>
<path fill="none" stroke="black" d="M449.08,-313.73C445.98,-311.71 442.72,-309.57 439.44,-307.42"/>
<polygon fill="black" stroke="black" points="441.09,-304.32 430.8,-301.76 437.25,-310.17 441.09,-304.32"/>
<text text-anchor="middle" x="465.26" y="-299.38" font-family="Times,serif" font-size="14.00">range</text>
</g>
<!-- http://purl.org/oseg/ontologies/OTRL#Otrl4 -->
<g id="node9" class="node">
<title>http://purl.org/oseg/ontologies/OTRL#Otrl4</title>
<ellipse fill="none" stroke="#e377c2" cx="299.6" cy="-113.2" rx="38.37" ry="16.03"/>
<text text-anchor="middle" x="299.6" y="-109.5" font-family="Times,serif" font-size="14.00">Otrl4</text>
</g>
<!-- http://purl.org/oseg/ontologies/OTRL#Otrl4&#45;&gt;http://www.w3.org/2002/07/owl#class -->
<g id="edge3" class="edge">
<title>http://purl.org/oseg/ontologies/OTRL#Otrl4&#45;&gt;http://www.w3.org/2002/07/owl#class</title>
<path fill="none" stroke="black" d="M269.64,-123.53C253.62,-129.05 233.55,-135.97 215.56,-142.18"/>
<polygon fill="black" stroke="black" points="214.12,-138.97 205.81,-145.54 216.41,-145.59 214.12,-138.97"/>
<text text-anchor="middle" x="238.1" y="-136.65" font-family="Times,serif" font-size="14.00">a</text>
</g>
<!-- http://purl.org/oseg/ontologies/OTRL#Otrl4&#45;&gt;http://purl.org/oseg/ontologies/OTRL#OTRL -->
<g id="edge26" class="edge">
<title>http://purl.org/oseg/ontologies/OTRL#Otrl4&#45;&gt;http://purl.org/oseg/ontologies/OTRL#OTRL</title>
<path fill="none" stroke="black" d="M261.4,-114.66C251.93,-115.02 241.65,-115.42 231.72,-115.79"/>
<polygon fill="black" stroke="black" points="231.41,-112.3 221.56,-116.18 231.68,-119.3 231.41,-112.3"/>
</g>
<!-- http://purl.org/oseg/ontologies/OTRL#Odrl1 -->
<g id="node10" class="node">
<title>http://purl.org/oseg/ontologies/OTRL#Odrl1</title>
<ellipse fill="none" stroke="#e377c2" cx="57.71" cy="-263.51" rx="40.11" ry="16.03"/>
<text text-anchor="middle" x="57.71" y="-259.81" font-family="Times,serif" font-size="14.00">Odrl1</text>
</g>
<!-- http://purl.org/oseg/ontologies/OTRL#Odrl1&#45;&gt;http://www.w3.org/2002/07/owl#class -->
<g id="edge19" class="edge">
<title>http://purl.org/oseg/ontologies/OTRL#Odrl1&#45;&gt;http://www.w3.org/2002/07/owl#class</title>
<path fill="none" stroke="black" d="M73.66,-248.43C92.28,-230.81 123.29,-201.47 144.87,-181.05"/>
<polygon fill="black" stroke="black" points="147.49,-183.39 152.35,-173.97 142.68,-178.3 147.49,-183.39"/>
<text text-anchor="middle" x="104.76" y="-218.54" font-family="Times,serif" font-size="14.00">a</text>
</g>
<!-- http://purl.org/oseg/ontologies/OTRL#Odrl1&#45;&gt;http://purl.org/oseg/ontologies/OTRL#ODRL -->
<g id="edge14" class="edge">
<title>http://purl.org/oseg/ontologies/OTRL#Odrl1&#45;&gt;http://purl.org/oseg/ontologies/OTRL#ODRL</title>
<path fill="none" stroke="black" d="M96.53,-268.15C97.01,-268.21 97.49,-268.26 97.97,-268.32"/>
<polygon fill="black" stroke="black" points="97.73,-271.82 108.08,-269.53 98.56,-264.87 97.73,-271.82"/>
</g>
<!-- http://www.w3.org/1999/02/22&#45;rdf&#45;syntax&#45;ns#nil -->
<g id="node11" class="node">
<title>http://www.w3.org/1999/02/22&#45;rdf&#45;syntax&#45;ns#nil</title>
<ellipse fill="none" stroke="#e377c2" cx="402.24" cy="-178.64" rx="42.35" ry="16.03"/>
<text text-anchor="middle" x="402.24" y="-174.94" font-family="Times,serif" font-size="14.00">rdf:nil</text>
</g>
<!-- http://purl.org/oseg/ontologies/OTRL#Odrl -->
<g id="node12" class="node">
<title>http://purl.org/oseg/ontologies/OTRL#Odrl</title>
<ellipse fill="none" stroke="#e377c2" cx="136.05" cy="-16.12" rx="33.88" ry="16.03"/>
<text text-anchor="middle" x="136.05" y="-12.42" font-family="Times,serif" font-size="14.00">Odrl</text>
</g>
<!-- http://purl.org/oseg/ontologies/OTRL#Odrl&#45;&gt;http://www.w3.org/2002/07/owl#class -->
<g id="edge24" class="edge">
<title>http://purl.org/oseg/ontologies/OTRL#Odrl&#45;&gt;http://www.w3.org/2002/07/owl#class</title>
<path fill="none" stroke="black" d="M139.83,-32.42C145.46,-56.7 156.11,-102.64 162.86,-131.78"/>
<polygon fill="black" stroke="black" points="159.49,-132.73 165.16,-141.68 166.31,-131.15 159.49,-132.73"/>
<text text-anchor="middle" x="146.84" y="-85.9" font-family="Times,serif" font-size="14.00">a</text>
</g>
<!-- http://purl.org/oseg/ontologies/OTRL#Otrl1 -->
<g id="node13" class="node">
<title>http://purl.org/oseg/ontologies/OTRL#Otrl1</title>
<ellipse fill="none" stroke="#e377c2" cx="275.52" cy="-61.71" rx="38.37" ry="16.03"/>
<text text-anchor="middle" x="275.52" y="-58.01" font-family="Times,serif" font-size="14.00">Otrl1</text>
</g>
<!-- http://purl.org/oseg/ontologies/OTRL#Otrl1&#45;&gt;http://www.w3.org/2002/07/owl#class -->
<g id="edge20" class="edge">
<title>http://purl.org/oseg/ontologies/OTRL#Otrl1&#45;&gt;http://www.w3.org/2002/07/owl#class</title>
<path fill="none" stroke="black" d="M258.87,-76.79C241.41,-92.61 213.77,-117.65 193.75,-135.79"/>
<polygon fill="black" stroke="black" points="191.28,-133.31 186.22,-142.62 195.99,-138.49 191.28,-133.31"/>
<text text-anchor="middle" x="230.81" y="-110.09" font-family="Times,serif" font-size="14.00">a</text>
</g>
<!-- http://purl.org/oseg/ontologies/OTRL#Otrl1&#45;&gt;http://purl.org/oseg/ontologies/OTRL#OTRL -->
<g id="edge15" class="edge">
<title>http://purl.org/oseg/ontologies/OTRL#Otrl1&#45;&gt;http://purl.org/oseg/ontologies/OTRL#OTRL</title>
<path fill="none" stroke="black" d="M253.34,-74.98C241.39,-82.12 226.45,-91.06 213.33,-98.91"/>
<polygon fill="black" stroke="black" points="211.38,-96 204.59,-104.14 214.97,-102.01 211.38,-96"/>
</g>
<!-- http://purl.org/oseg/ontologies/OTRL#Odrl4 -->
<g id="node14" class="node">
<title>http://purl.org/oseg/ontologies/OTRL#Odrl4</title>
<ellipse fill="none" stroke="#e377c2" cx="165.33" cy="-200.16" rx="40.11" ry="16.03"/>
<text text-anchor="middle" x="165.33" y="-196.46" font-family="Times,serif" font-size="14.00">Odrl4</text>
</g>
<!-- http://purl.org/oseg/ontologies/OTRL#Odrl4&#45;&gt;http://www.w3.org/2002/07/owl#class -->
<g id="edge21" class="edge">
<title>http://purl.org/oseg/ontologies/OTRL#Odrl4&#45;&gt;http://www.w3.org/2002/07/owl#class</title>
<path fill="none" stroke="black" d="M166.78,-183.59C166.78,-183.5 166.79,-183.4 166.8,-183.31"/>
<polygon fill="black" stroke="black" points="170.17,-184.95 167.55,-174.68 163.2,-184.34 170.17,-184.95"/>
<text text-anchor="middle" x="162.29" y="-172.25" font-family="Times,serif" font-size="14.00">a</text>
</g>
<!-- http://purl.org/oseg/ontologies/OTRL#Odrl4&#45;&gt;http://purl.org/oseg/ontologies/OTRL#ODRL -->
<g id="edge8" class="edge">
<title>http://purl.org/oseg/ontologies/OTRL#Odrl4&#45;&gt;http://purl.org/oseg/ontologies/OTRL#ODRL</title>
<path fill="none" stroke="black" d="M161.49,-216.61C159.33,-225.83 156.6,-237.53 154.16,-247.99"/>
<polygon fill="black" stroke="black" points="150.71,-247.35 151.85,-257.89 157.53,-248.95 150.71,-247.35"/>
</g>
<!-- http://purl.org/oseg/ontologies/OTRL#Odrl3 -->
<g id="node15" class="node">
<title>http://purl.org/oseg/ontologies/OTRL#Odrl3</title>
<ellipse fill="none" stroke="#e377c2" cx="40.02" cy="-219.97" rx="40.11" ry="16.03"/>
<text text-anchor="middle" x="40.02" y="-216.27" font-family="Times,serif" font-size="14.00">Odrl3</text>
</g>
<!-- http://purl.org/oseg/ontologies/OTRL#Odrl3&#45;&gt;http://www.w3.org/2002/07/owl#class -->
<g id="edge5" class="edge">
<title>http://purl.org/oseg/ontologies/OTRL#Odrl3&#45;&gt;http://www.w3.org/2002/07/owl#class</title>
<path fill="none" stroke="black" d="M66.12,-207.47C84.5,-198.67 109.43,-186.74 130.14,-176.83"/>
<polygon fill="black" stroke="black" points="131.81,-179.91 139.32,-172.43 128.79,-173.59 131.81,-179.91"/>
<text text-anchor="middle" x="93.63" y="-195.95" font-family="Times,serif" font-size="14.00">a</text>
</g>
<!-- http://purl.org/oseg/ontologies/OTRL#Odrl3&#45;&gt;http://purl.org/oseg/ontologies/OTRL#ODRL -->
<g id="edge9" class="edge">
<title>http://purl.org/oseg/ontologies/OTRL#Odrl3&#45;&gt;http://purl.org/oseg/ontologies/OTRL#ODRL</title>
<path fill="none" stroke="black" d="M65.34,-232.7C79.49,-239.82 97.33,-248.8 112.82,-256.59"/>
<polygon fill="black" stroke="black" points="111.6,-259.89 122.1,-261.26 114.74,-253.64 111.6,-259.89"/>
</g>
<!-- http://purl.org/oseg/ontologies/OTRL#Otrl5 -->
<g id="node16" class="node">
<title>http://purl.org/oseg/ontologies/OTRL#Otrl5</title>
<ellipse fill="none" stroke="#e377c2" cx="216.57" cy="-19.73" rx="38.37" ry="16.03"/>
<text text-anchor="middle" x="216.57" y="-16.03" font-family="Times,serif" font-size="14.00">Otrl5</text>
</g>
<!-- http://purl.org/oseg/ontologies/OTRL#Otrl5&#45;&gt;http://www.w3.org/2002/07/owl#class -->
<g id="edge6" class="edge">
<title>http://purl.org/oseg/ontologies/OTRL#Otrl5&#45;&gt;http://www.w3.org/2002/07/owl#class</title>
<path fill="none" stroke="black" d="M211.02,-35.89C202.9,-59.53 187.69,-103.8 177.96,-132.11"/>
<polygon fill="black" stroke="black" points="174.59,-131.15 174.65,-141.74 181.21,-133.42 174.59,-131.15"/>
<text text-anchor="middle" x="189.99" y="-87.8" font-family="Times,serif" font-size="14.00">a</text>
</g>
<!-- http://purl.org/oseg/ontologies/OTRL#Otrl5&#45;&gt;http://purl.org/oseg/ontologies/OTRL#OTRL -->
<g id="edge27" class="edge">
<title>http://purl.org/oseg/ontologies/OTRL#Otrl5&#45;&gt;http://purl.org/oseg/ontologies/OTRL#OTRL</title>
<path fill="none" stroke="black" d="M210.85,-35.91C205.48,-51.08 197.37,-74.03 191.1,-91.76"/>
<polygon fill="black" stroke="black" points="187.69,-90.9 187.65,-101.5 194.29,-93.24 187.69,-90.9"/>
</g>
<!-- http://purl.org/oseg/ontologies/OTRL#Otrl2 -->
<g id="node18" class="node">
<title>http://purl.org/oseg/ontologies/OTRL#Otrl2</title>
<ellipse fill="none" stroke="#e377c2" cx="75.32" cy="-59.78" rx="38.37" ry="16.03"/>
<text text-anchor="middle" x="75.32" y="-56.08" font-family="Times,serif" font-size="14.00">Otrl2</text>
</g>
<!-- http://purl.org/oseg/ontologies/OTRL#Otrl2&#45;&gt;http://www.w3.org/2002/07/owl#class -->
<g id="edge10" class="edge">
<title>http://purl.org/oseg/ontologies/OTRL#Otrl2&#45;&gt;http://www.w3.org/2002/07/owl#class</title>
<path fill="none" stroke="black" d="M89.95,-75.16C105.17,-91.16 129.18,-116.39 146.75,-134.85"/>
<polygon fill="black" stroke="black" points="144.41,-137.47 153.84,-142.3 149.48,-132.65 144.41,-137.47"/>
<text text-anchor="middle" x="113.85" y="-108.81" font-family="Times,serif" font-size="14.00">a</text>
</g>
<!-- http://purl.org/oseg/ontologies/OTRL#Otrl2&#45;&gt;http://purl.org/oseg/ontologies/OTRL#OTRL -->
<g id="edge13" class="edge">
<title>http://purl.org/oseg/ontologies/OTRL#Otrl2&#45;&gt;http://purl.org/oseg/ontologies/OTRL#OTRL</title>
<path fill="none" stroke="black" d="M98.98,-72.64C113.64,-80.6 132.7,-90.96 148.85,-99.73"/>
<polygon fill="black" stroke="black" points="147.5,-102.98 157.96,-104.68 150.85,-96.83 147.5,-102.98"/>
</g>
<!-- http://purl.org/oseg/ontologies/OTRL#Odrl2 -->
<g id="node19" class="node">
<title>http://purl.org/oseg/ontologies/OTRL#Odrl2</title>
<ellipse fill="none" stroke="#e377c2" cx="259.53" cy="-276.82" rx="40.11" ry="16.03"/>
<text text-anchor="middle" x="259.53" y="-273.12" font-family="Times,serif" font-size="14.00">Odrl2</text>
</g>
<!-- http://purl.org/oseg/ontologies/OTRL#Odrl2&#45;&gt;http://www.w3.org/2002/07/owl#class -->
<g id="edge11" class="edge">
<title>http://purl.org/oseg/ontologies/OTRL#Odrl2&#45;&gt;http://www.w3.org/2002/07/owl#class</title>
<path fill="none" stroke="black" d="M247.32,-260.83C231.93,-240.67 205.33,-205.83 187.45,-182.41"/>
<polygon fill="black" stroke="black" points="190.15,-180.17 181.3,-174.35 184.58,-184.42 190.15,-180.17"/>
<text text-anchor="middle" x="212.89" y="-225.42" font-family="Times,serif" font-size="14.00">a</text>
</g>
<!-- http://purl.org/oseg/ontologies/OTRL#Odrl2&#45;&gt;http://purl.org/oseg/ontologies/OTRL#ODRL -->
<g id="edge7" class="edge">
<title>http://purl.org/oseg/ontologies/OTRL#Odrl2&#45;&gt;http://purl.org/oseg/ontologies/OTRL#ODRL</title>
<path fill="none" stroke="black" d="M219.27,-275.91C212.97,-275.77 206.37,-275.62 199.85,-275.47"/>
<polygon fill="black" stroke="black" points="199.79,-271.97 189.72,-275.24 199.64,-278.97 199.79,-271.97"/>
</g>
<!-- http://purl.org/oseg/ontologies/OTRL#Otrl3 -->
<g id="node20" class="node">
<title>http://purl.org/oseg/ontologies/OTRL#Otrl3</title>
<ellipse fill="none" stroke="#e377c2" cx="294.22" cy="-172.45" rx="38.37" ry="16.03"/>
<text text-anchor="middle" x="294.22" y="-168.75" font-family="Times,serif" font-size="14.00">Otrl3</text>
</g>
<!-- http://purl.org/oseg/ontologies/OTRL#Otrl3&#45;&gt;http://www.w3.org/2002/07/owl#class -->
<g id="edge12" class="edge">
<title>http://purl.org/oseg/ontologies/OTRL#Otrl3&#45;&gt;http://www.w3.org/2002/07/owl#class</title>
<path fill="none" stroke="black" d="M256.99,-168.22C249.3,-167.35 240.99,-166.41 232.67,-165.46"/>
<polygon fill="black" stroke="black" points="232.87,-161.96 222.53,-164.31 232.08,-168.92 232.87,-161.96"/>
<text text-anchor="middle" x="240.33" y="-170.64" font-family="Times,serif" font-size="14.00">a</text>
</g>
<!-- http://purl.org/oseg/ontologies/OTRL#Otrl3&#45;&gt;http://purl.org/oseg/ontologies/OTRL#OTRL -->
<g id="edge17" class="edge">
<title>http://purl.org/oseg/ontologies/OTRL#Otrl3&#45;&gt;http://purl.org/oseg/ontologies/OTRL#OTRL</title>
<path fill="none" stroke="black" d="M269.02,-160.16C253.63,-152.66 233.74,-142.96 216.85,-134.73"/>
<polygon fill="black" stroke="black" points="218.34,-131.56 207.82,-130.32 215.27,-137.85 218.34,-131.56"/>
</g>
<!-- http://purl.org/oseg/ontologies/OTRL#Odrl3Star -->
<g id="node21" class="node">
<title>http://purl.org/oseg/ontologies/OTRL#Odrl3Star</title>
<ellipse fill="none" stroke="#e377c2" cx="149.55" cy="-319.17" rx="62.45" ry="16.03"/>
<text text-anchor="middle" x="149.55" y="-315.47" font-family="Times,serif" font-size="14.00">Odrl3Star</text>
</g>
<!-- http://purl.org/oseg/ontologies/OTRL#Odrl3Star&#45;&gt;http://www.w3.org/2002/07/owl#class -->
<g id="edge16" class="edge">
<title>http://purl.org/oseg/ontologies/OTRL#Odrl3Star&#45;&gt;http://www.w3.org/2002/07/owl#class</title>
<path fill="none" stroke="black" d="M151.52,-302.85C154.89,-275.02 161.76,-218.13 165.81,-184.59"/>
<polygon fill="black" stroke="black" points="169.29,-184.94 167.02,-174.59 162.34,-184.1 169.29,-184.94"/>
<text text-anchor="middle" x="154.17" y="-247.52" font-family="Times,serif" font-size="14.00">a</text>
</g>
<!-- http://purl.org/oseg/ontologies/OTRL#Odrl3Star&#45;&gt;http://purl.org/oseg/ontologies/OTRL#ODRL -->
<g id="edge4" class="edge">
<title>http://purl.org/oseg/ontologies/OTRL#Odrl3Star&#45;&gt;http://purl.org/oseg/ontologies/OTRL#ODRL</title>
<path fill="none" stroke="black" d="M148.99,-302.71C148.97,-302.1 148.95,-301.49 148.93,-300.87"/>
<polygon fill="black" stroke="black" points="152.42,-300.62 148.58,-290.75 145.42,-300.86 152.42,-300.62"/>
</g>
</g>
</svg>
