<?xml version="1.0" encoding="UTF-8" standalone="no"?>
<!DOCTYPE svg PUBLIC "-//W3C//DTD SVG 1.1//EN"
 "http://www.w3.org/Graphics/SVG/1.1/DTD/svg11.dtd">
<!-- Generated by graphviz version 2.43.0 (0)
 -->
<!-- Title: G Pages: 1 -->
<svg width="999pt" height="845pt"
 viewBox="0.00 0.00 999.05 845.00" xmlns="http://www.w3.org/2000/svg" xmlns:xlink="http://www.w3.org/1999/xlink">
<g id="graph0" class="graph" transform="scale(1 1) rotate(0) translate(4 841)">
<title>G</title>
<polygon fill="white" stroke="transparent" points="-4,4 -4,-841 995.05,-841 995.05,4 -4,4"/>
<!-- http://purl.org/oseg/ontologies/OTRL#OTRL -->
<g id="node1" class="node">
<title>http://purl.org/oseg/ontologies/OTRL#OTRL</title>
<ellipse fill="none" stroke="#e377c2" cx="437.78" cy="-463.26" rx="39.7" ry="16.03"/>
<text text-anchor="middle" x="437.78" y="-459.56" font-family="Times,serif" font-size="14.00">OTRL</text>
</g>
<!-- http://www.w3.org/2002/07/owl#class -->
<g id="node3" class="node">
<title>http://www.w3.org/2002/07/owl#class</title>
<ellipse fill="none" stroke="#1f77b4" cx="619.33" cy="-278.72" rx="57.05" ry="16.03"/>
<text text-anchor="middle" x="619.33" y="-275.02" font-family="Times,serif" font-size="14.00">owl:class</text>
</g>
<!-- http://purl.org/oseg/ontologies/OTRL#OTRL&#45;&gt;http://www.w3.org/2002/07/owl#class -->
<g id="edge5" class="edge">
<title>http://purl.org/oseg/ontologies/OTRL#OTRL&#45;&gt;http://www.w3.org/2002/07/owl#class</title>
<path fill="none" stroke="black" d="M452.64,-448.16C484.4,-415.88 559.06,-339.99 596.74,-301.69"/>
<polygon fill="black" stroke="black" points="599.24,-304.13 603.76,-294.55 594.25,-299.23 599.24,-304.13"/>
<text text-anchor="middle" x="520.19" y="-363.72" font-family="Times,serif" font-size="14.00">a</text>
</g>
<!-- http://purl.org/oseg/ontologies/OTRL#ODRL -->
<g id="node2" class="node">
<title>http://purl.org/oseg/ontologies/OTRL#ODRL</title>
<ellipse fill="none" stroke="#e377c2" cx="740.16" cy="-149.2" rx="41.94" ry="16.03"/>
<text text-anchor="middle" x="740.16" y="-145.5" font-family="Times,serif" font-size="14.00">ODRL</text>
</g>
<!-- http://purl.org/oseg/ontologies/OTRL#ODRL&#45;&gt;http://www.w3.org/2002/07/owl#class -->
<g id="edge2" class="edge">
<title>http://purl.org/oseg/ontologies/OTRL#ODRL&#45;&gt;http://www.w3.org/2002/07/owl#class</title>
<path fill="none" stroke="black" d="M725.82,-164.57C704.86,-187.03 665.68,-229.03 641.14,-255.34"/>
<polygon fill="black" stroke="black" points="638.29,-253.27 634.03,-262.97 643.41,-258.04 638.29,-253.27"/>
<text text-anchor="middle" x="678.98" y="-213.76" font-family="Times,serif" font-size="14.00">a</text>
</g>
<!-- http://purl.org/oseg/ontologies/OTRL#exitCriteria -->
<g id="node4" class="node">
<title>http://purl.org/oseg/ontologies/OTRL#exitCriteria</title>
<ellipse fill="none" stroke="#e377c2" cx="271.91" cy="-672.87" rx="70.01" ry="16.03"/>
<text text-anchor="middle" x="271.91" y="-669.17" font-family="Times,serif" font-size="14.00">exitCriteria</text>
</g>
<!-- http://purl.org/oseg/ontologies/OTRL#exitCriteria&#45;&gt;http://purl.org/oseg/ontologies/OTRL#OTRL -->
<g id="edge21" class="edge">
<title>http://purl.org/oseg/ontologies/OTRL#exitCriteria&#45;&gt;http://purl.org/oseg/ontologies/OTRL#OTRL</title>
<path fill="none" stroke="black" d="M284.65,-656.77C313.73,-620.01 385.14,-529.78 419.17,-486.78"/>
<polygon fill="black" stroke="black" points="421.99,-488.86 425.45,-478.84 416.5,-484.51 421.99,-488.86"/>
<text text-anchor="middle" x="325.41" y="-575.58" font-family="Times,serif" font-size="14.00">domain</text>
</g>
<!-- http://schema.org/Text -->
<g id="node5" class="node">
<title>http://schema.org/Text</title>
<ellipse fill="none" stroke="#e377c2" cx="83.42" cy="-820.61" rx="74.91" ry="16.03"/>
<text text-anchor="middle" x="83.42" y="-816.91" font-family="Times,serif" font-size="14.00">schema:Text</text>
</g>
<!-- http://purl.org/oseg/ontologies/OTRL#exitCriteria&#45;&gt;http://schema.org/Text -->
<g id="edge41" class="edge">
<title>http://purl.org/oseg/ontologies/OTRL#exitCriteria&#45;&gt;http://schema.org/Text</title>
<path fill="none" stroke="black" d="M251.73,-688.68C218.01,-715.11 150.09,-768.35 111.64,-798.49"/>
<polygon fill="black" stroke="black" points="109.16,-795.99 103.45,-804.91 113.48,-801.5 109.16,-795.99"/>
<text text-anchor="middle" x="160.69" y="-747.39" font-family="Times,serif" font-size="14.00">range</text>
</g>
<!-- http://purl.org/oseg/ontologies/OTRL#OTRL&#45;6 -->
<g id="node6" class="node">
<title>http://purl.org/oseg/ontologies/OTRL#OTRL&#45;6</title>
<ellipse fill="none" stroke="#e377c2" cx="634.5" cy="-528.87" rx="49.49" ry="16.03"/>
<text text-anchor="middle" x="634.5" y="-525.17" font-family="Times,serif" font-size="14.00">OTRL&#45;6</text>
</g>
<!-- http://purl.org/oseg/ontologies/OTRL#OTRL&#45;6&#45;&gt;http://purl.org/oseg/ontologies/OTRL#OTRL -->
<g id="edge39" class="edge">
<title>http://purl.org/oseg/ontologies/OTRL#OTRL&#45;6&#45;&gt;http://purl.org/oseg/ontologies/OTRL#OTRL</title>
<path fill="none" stroke="black" d="M599.33,-517.14C565.39,-505.82 514.04,-488.7 478.38,-476.8"/>
<polygon fill="black" stroke="black" points="479.36,-473.44 468.76,-473.59 477.14,-480.08 479.36,-473.44"/>
</g>
<!-- http://purl.org/oseg/ontologies/OTRL#OTRL&#45;6&#45;&gt;http://www.w3.org/2002/07/owl#class -->
<g id="edge28" class="edge">
<title>http://purl.org/oseg/ontologies/OTRL#OTRL&#45;6&#45;&gt;http://www.w3.org/2002/07/owl#class</title>
<path fill="none" stroke="black" d="M633.51,-512.46C630.94,-470.14 624.08,-357.04 620.94,-305.26"/>
<polygon fill="black" stroke="black" points="624.43,-304.96 620.33,-295.19 617.44,-305.39 624.43,-304.96"/>
<text text-anchor="middle" x="622.73" y="-412.66" font-family="Times,serif" font-size="14.00">a</text>
</g>
<!-- http://purl.org/oseg/ontologies/OTRL -->
<g id="node7" class="node">
<title>http://purl.org/oseg/ontologies/OTRL</title>
<ellipse fill="none" stroke="#e377c2" cx="809.24" cy="-696.64" rx="60.62" ry="16.03"/>
<text text-anchor="middle" x="809.24" y="-692.94" font-family="Times,serif" font-size="14.00">ns1:OTRL</text>
</g>
<!-- http://purl.org/oseg/ontologies/OTRL&#45;&gt;http://purl.org/oseg/ontologies/OTRL -->
<g id="edge7" class="edge">
<title>http://purl.org/oseg/ontologies/OTRL&#45;&gt;http://purl.org/oseg/ontologies/OTRL</title>
<path fill="none" stroke="black" d="M864.84,-703.27C878.17,-702.75 888.05,-700.54 888.05,-696.64 888.05,-693.81 882.83,-691.86 874.87,-690.81"/>
<polygon fill="black" stroke="black" points="875.09,-687.32 864.84,-690.01 874.53,-694.3 875.09,-687.32"/>
<text text-anchor="middle" x="939.55" y="-692.94" font-family="Times,serif" font-size="14.00">owl:versionIRI</text>
</g>
<!-- http://purl.org/oseg/ontologies/OTRL#OTRL&#45;7 -->
<g id="node8" class="node">
<title>http://purl.org/oseg/ontologies/OTRL#OTRL&#45;7</title>
<ellipse fill="none" stroke="#e377c2" cx="585.55" cy="-451.09" rx="49.49" ry="16.03"/>
<text text-anchor="middle" x="585.55" y="-447.39" font-family="Times,serif" font-size="14.00">OTRL&#45;7</text>
</g>
<!-- http://purl.org/oseg/ontologies/OTRL#OTRL&#45;7&#45;&gt;http://purl.org/oseg/ontologies/OTRL#OTRL -->
<g id="edge1" class="edge">
<title>http://purl.org/oseg/ontologies/OTRL#OTRL&#45;7&#45;&gt;http://purl.org/oseg/ontologies/OTRL#OTRL</title>
<path fill="none" stroke="black" d="M537.16,-455.08C521.15,-456.4 503.3,-457.86 487.21,-459.19"/>
<polygon fill="black" stroke="black" points="486.6,-455.73 476.92,-460.04 487.17,-462.71 486.6,-455.73"/>
</g>
<!-- http://purl.org/oseg/ontologies/OTRL#OTRL&#45;7&#45;&gt;http://www.w3.org/2002/07/owl#class -->
<g id="edge6" class="edge">
<title>http://purl.org/oseg/ontologies/OTRL#OTRL&#45;7&#45;&gt;http://www.w3.org/2002/07/owl#class</title>
<path fill="none" stroke="black" d="M588.79,-434.56C594.64,-404.7 607.02,-341.53 614.09,-305.45"/>
<polygon fill="black" stroke="black" points="617.61,-305.68 616.1,-295.2 610.75,-304.34 617.61,-305.68"/>
<text text-anchor="middle" x="596.94" y="-373.81" font-family="Times,serif" font-size="14.00">a</text>
</g>
<!-- http://purl.org/oseg/ontologies/OTRL#OTRL&#45;5 -->
<g id="node9" class="node">
<title>http://purl.org/oseg/ontologies/OTRL#OTRL&#45;5</title>
<ellipse fill="none" stroke="#e377c2" cx="378.51" cy="-288.74" rx="49.49" ry="16.03"/>
<text text-anchor="middle" x="378.51" y="-285.04" font-family="Times,serif" font-size="14.00">OTRL&#45;5</text>
</g>
<!-- http://purl.org/oseg/ontologies/OTRL#OTRL&#45;5&#45;&gt;http://purl.org/oseg/ontologies/OTRL#OTRL -->
<g id="edge9" class="edge">
<title>http://purl.org/oseg/ontologies/OTRL#OTRL&#45;5&#45;&gt;http://purl.org/oseg/ontologies/OTRL#OTRL</title>
<path fill="none" stroke="black" d="M384.08,-305.15C394.39,-335.51 416.51,-400.62 428.9,-437.11"/>
<polygon fill="black" stroke="black" points="425.73,-438.67 432.26,-447.01 432.36,-436.42 425.73,-438.67"/>
</g>
<!-- http://purl.org/oseg/ontologies/OTRL#OTRL&#45;5&#45;&gt;http://www.w3.org/2002/07/owl#class -->
<g id="edge30" class="edge">
<title>http://purl.org/oseg/ontologies/OTRL#OTRL&#45;5&#45;&gt;http://www.w3.org/2002/07/owl#class</title>
<path fill="none" stroke="black" d="M427.82,-286.68C463.78,-285.19 512.9,-283.14 552.4,-281.5"/>
<polygon fill="black" stroke="black" points="552.63,-285 562.48,-281.08 552.34,-278 552.63,-285"/>
<text text-anchor="middle" x="485.61" y="-287.89" font-family="Times,serif" font-size="14.00">a</text>
</g>
<!-- http://purl.org/oseg/ontologies/OTRL#ODRL&#45;2 -->
<g id="node10" class="node">
<title>http://purl.org/oseg/ontologies/OTRL#ODRL&#45;2</title>
<ellipse fill="none" stroke="#e377c2" cx="699.63" cy="-15.82" rx="50.82" ry="16.03"/>
<text text-anchor="middle" x="699.63" y="-12.12" font-family="Times,serif" font-size="14.00">ODRL&#45;2</text>
</g>
<!-- http://purl.org/oseg/ontologies/OTRL#ODRL&#45;2&#45;&gt;http://purl.org/oseg/ontologies/OTRL#ODRL -->
<g id="edge10" class="edge">
<title>http://purl.org/oseg/ontologies/OTRL#ODRL&#45;2&#45;&gt;http://purl.org/oseg/ontologies/OTRL#ODRL</title>
<path fill="none" stroke="black" d="M704.6,-32.17C711.46,-54.77 723.93,-95.81 732.13,-122.79"/>
<polygon fill="black" stroke="black" points="728.89,-124.16 735.15,-132.71 735.59,-122.13 728.89,-124.16"/>
</g>
<!-- http://purl.org/oseg/ontologies/OTRL#ODRL&#45;2&#45;&gt;http://www.w3.org/2002/07/owl#class -->
<g id="edge33" class="edge">
<title>http://purl.org/oseg/ontologies/OTRL#ODRL&#45;2&#45;&gt;http://www.w3.org/2002/07/owl#class</title>
<path fill="none" stroke="black" d="M694.6,-32.26C681.09,-76.52 643.84,-198.47 627.36,-252.43"/>
<polygon fill="black" stroke="black" points="623.93,-251.69 624.35,-262.28 630.62,-253.74 623.93,-251.69"/>
<text text-anchor="middle" x="656.48" y="-146.15" font-family="Times,serif" font-size="14.00">a</text>
</g>
<!-- http://purl.org/oseg/ontologies/OTRL#OTRL&#45;3 -->
<g id="node11" class="node">
<title>http://purl.org/oseg/ontologies/OTRL#OTRL&#45;3</title>
<ellipse fill="none" stroke="#e377c2" cx="385.45" cy="-231.64" rx="49.49" ry="16.03"/>
<text text-anchor="middle" x="385.45" y="-227.94" font-family="Times,serif" font-size="14.00">OTRL&#45;3</text>
</g>
<!-- http://purl.org/oseg/ontologies/OTRL#OTRL&#45;3&#45;&gt;http://purl.org/oseg/ontologies/OTRL#OTRL -->
<g id="edge26" class="edge">
<title>http://purl.org/oseg/ontologies/OTRL#OTRL&#45;3&#45;&gt;http://purl.org/oseg/ontologies/OTRL#OTRL</title>
<path fill="none" stroke="black" d="M389.13,-247.93C398.06,-287.47 420.96,-388.8 431.85,-437.02"/>
<polygon fill="black" stroke="black" points="428.49,-438.01 434.11,-446.99 435.32,-436.47 428.49,-438.01"/>
</g>
<!-- http://purl.org/oseg/ontologies/OTRL#OTRL&#45;3&#45;&gt;http://www.w3.org/2002/07/owl#class -->
<g id="edge34" class="edge">
<title>http://purl.org/oseg/ontologies/OTRL#OTRL&#45;3&#45;&gt;http://www.w3.org/2002/07/owl#class</title>
<path fill="none" stroke="black" d="M427.81,-240.17C465.5,-247.75 520.95,-258.92 562.5,-267.28"/>
<polygon fill="black" stroke="black" points="561.98,-270.74 572.48,-269.29 563.36,-263.88 561.98,-270.74"/>
<text text-anchor="middle" x="490.65" y="-242.52" font-family="Times,serif" font-size="14.00">a</text>
</g>
<!-- http://purl.org/oseg/ontologies/OTRL#OTRL&#45;1 -->
<g id="node12" class="node">
<title>http://purl.org/oseg/ontologies/OTRL#OTRL&#45;1</title>
<ellipse fill="none" stroke="#e377c2" cx="516.35" cy="-506.8" rx="49.49" ry="16.03"/>
<text text-anchor="middle" x="516.35" y="-503.1" font-family="Times,serif" font-size="14.00">OTRL&#45;1</text>
</g>
<!-- http://purl.org/oseg/ontologies/OTRL#OTRL&#45;1&#45;&gt;http://purl.org/oseg/ontologies/OTRL#OTRL -->
<g id="edge27" class="edge">
<title>http://purl.org/oseg/ontologies/OTRL#OTRL&#45;1&#45;&gt;http://purl.org/oseg/ontologies/OTRL#OTRL</title>
<path fill="none" stroke="black" d="M491.06,-492.79C484.52,-489.16 477.39,-485.21 470.53,-481.41"/>
<polygon fill="black" stroke="black" points="471.87,-478.15 461.43,-476.36 468.48,-484.27 471.87,-478.15"/>
</g>
<!-- http://purl.org/oseg/ontologies/OTRL#OTRL&#45;1&#45;&gt;http://www.w3.org/2002/07/owl#class -->
<g id="edge35" class="edge">
<title>http://purl.org/oseg/ontologies/OTRL#OTRL&#45;1&#45;&gt;http://www.w3.org/2002/07/owl#class</title>
<path fill="none" stroke="black" d="M523.76,-490.4C541.5,-451.11 586.52,-351.39 607.83,-304.2"/>
<polygon fill="black" stroke="black" points="611.07,-305.53 611.99,-294.97 604.69,-302.65 611.07,-305.53"/>
<text text-anchor="middle" x="561.29" y="-401.1" font-family="Times,serif" font-size="14.00">a</text>
</g>
<!-- http://purl.org/oseg/ontologies/OTRL#ODRL&#45;3 -->
<g id="node13" class="node">
<title>http://purl.org/oseg/ontologies/OTRL#ODRL&#45;3</title>
<ellipse fill="none" stroke="#e377c2" cx="579.96" cy="-52.68" rx="50.82" ry="16.03"/>
<text text-anchor="middle" x="579.96" y="-48.98" font-family="Times,serif" font-size="14.00">ODRL&#45;3</text>
</g>
<!-- http://purl.org/oseg/ontologies/OTRL#ODRL&#45;3&#45;&gt;http://purl.org/oseg/ontologies/OTRL#ODRL -->
<g id="edge15" class="edge">
<title>http://purl.org/oseg/ontologies/OTRL#ODRL&#45;3&#45;&gt;http://purl.org/oseg/ontologies/OTRL#ODRL</title>
<path fill="none" stroke="black" d="M603.94,-67.13C631.83,-83.93 677.95,-111.72 708.69,-130.24"/>
<polygon fill="black" stroke="black" points="706.94,-133.27 717.31,-135.43 710.55,-127.27 706.94,-133.27"/>
</g>
<!-- http://purl.org/oseg/ontologies/OTRL#ODRL&#45;3&#45;&gt;http://www.w3.org/2002/07/owl#class -->
<g id="edge11" class="edge">
<title>http://purl.org/oseg/ontologies/OTRL#ODRL&#45;3&#45;&gt;http://www.w3.org/2002/07/owl#class</title>
<path fill="none" stroke="black" d="M582.79,-68.93C589.52,-107.53 606.49,-204.99 614.72,-252.23"/>
<polygon fill="black" stroke="black" points="611.31,-253.05 616.47,-262.31 618.21,-251.85 611.31,-253.05"/>
<text text-anchor="middle" x="594.26" y="-164.38" font-family="Times,serif" font-size="14.00">a</text>
</g>
<!-- http://purl.org/oseg/ontologies/OTRL#ODRL&#45;4 -->
<g id="node14" class="node">
<title>http://purl.org/oseg/ontologies/OTRL#ODRL&#45;4</title>
<ellipse fill="none" stroke="#e377c2" cx="871.62" cy="-238.94" rx="50.82" ry="16.03"/>
<text text-anchor="middle" x="871.62" y="-235.24" font-family="Times,serif" font-size="14.00">ODRL&#45;4</text>
</g>
<!-- http://purl.org/oseg/ontologies/OTRL#ODRL&#45;4&#45;&gt;http://purl.org/oseg/ontologies/OTRL#ODRL -->
<g id="edge16" class="edge">
<title>http://purl.org/oseg/ontologies/OTRL#ODRL&#45;4&#45;&gt;http://purl.org/oseg/ontologies/OTRL#ODRL</title>
<path fill="none" stroke="black" d="M849.91,-224.12C827.96,-209.14 793.88,-185.87 769.52,-169.25"/>
<polygon fill="black" stroke="black" points="771.26,-166.2 761.03,-163.45 767.31,-171.98 771.26,-166.2"/>
</g>
<!-- http://purl.org/oseg/ontologies/OTRL#ODRL&#45;4&#45;&gt;http://www.w3.org/2002/07/owl#class -->
<g id="edge12" class="edge">
<title>http://purl.org/oseg/ontologies/OTRL#ODRL&#45;4&#45;&gt;http://www.w3.org/2002/07/owl#class</title>
<path fill="none" stroke="black" d="M825.93,-246.14C784.87,-252.62 724.3,-262.17 679.35,-269.25"/>
<polygon fill="black" stroke="black" points="678.77,-265.8 669.44,-270.82 679.86,-272.72 678.77,-265.8"/>
<text text-anchor="middle" x="748.14" y="-261.5" font-family="Times,serif" font-size="14.00">a</text>
</g>
<!-- http://purl.org/oseg/ontologies/OTRL#ODRL&#45;1 -->
<g id="node15" class="node">
<title>http://purl.org/oseg/ontologies/OTRL#ODRL&#45;1</title>
<ellipse fill="none" stroke="#e377c2" cx="845.15" cy="-310.38" rx="50.82" ry="16.03"/>
<text text-anchor="middle" x="845.15" y="-306.68" font-family="Times,serif" font-size="14.00">ODRL&#45;1</text>
</g>
<!-- http://purl.org/oseg/ontologies/OTRL#ODRL&#45;1&#45;&gt;http://purl.org/oseg/ontologies/OTRL#ODRL -->
<g id="edge17" class="edge">
<title>http://purl.org/oseg/ontologies/OTRL#ODRL&#45;1&#45;&gt;http://purl.org/oseg/ontologies/OTRL#ODRL</title>
<path fill="none" stroke="black" d="M834.7,-294.34C816.3,-266.1 778.03,-207.34 756.24,-173.9"/>
<polygon fill="black" stroke="black" points="758.96,-171.65 750.56,-165.18 753.09,-175.47 758.96,-171.65"/>
</g>
<!-- http://purl.org/oseg/ontologies/OTRL#ODRL&#45;1&#45;&gt;http://www.w3.org/2002/07/owl#class -->
<g id="edge13" class="edge">
<title>http://purl.org/oseg/ontologies/OTRL#ODRL&#45;1&#45;&gt;http://www.w3.org/2002/07/owl#class</title>
<path fill="none" stroke="black" d="M798.36,-303.82C764.35,-299.05 717.99,-292.55 680.96,-287.36"/>
<polygon fill="black" stroke="black" points="681.18,-283.86 670.79,-285.93 680.2,-290.79 681.18,-283.86"/>
<text text-anchor="middle" x="735.16" y="-299.39" font-family="Times,serif" font-size="14.00">a</text>
</g>
<!-- http://purl.org/oseg/ontologies/OTRL#hardwareDescription -->
<g id="node16" class="node">
<title>http://purl.org/oseg/ontologies/OTRL#hardwareDescription</title>
<ellipse fill="none" stroke="#e377c2" cx="348.89" cy="-771.99" rx="118.17" ry="16.03"/>
<text text-anchor="middle" x="348.89" y="-768.29" font-family="Times,serif" font-size="14.00">hardwareDescription</text>
</g>
<!-- http://purl.org/oseg/ontologies/OTRL#hardwareDescription&#45;&gt;http://purl.org/oseg/ontologies/OTRL#OTRL -->
<g id="edge8" class="edge">
<title>http://purl.org/oseg/ontologies/OTRL#hardwareDescription&#45;&gt;http://purl.org/oseg/ontologies/OTRL#OTRL</title>
<path fill="none" stroke="black" d="M353.67,-755.39C368.29,-704.6 412.52,-550.99 430.28,-489.31"/>
<polygon fill="black" stroke="black" points="433.68,-490.15 433.09,-479.57 426.96,-488.21 433.68,-490.15"/>
<text text-anchor="middle" x="365.48" y="-626.15" font-family="Times,serif" font-size="14.00">domain</text>
</g>
<!-- http://purl.org/oseg/ontologies/OTRL#hardwareDescription&#45;&gt;http://schema.org/Text -->
<g id="edge24" class="edge">
<title>http://purl.org/oseg/ontologies/OTRL#hardwareDescription&#45;&gt;http://schema.org/Text</title>
<path fill="none" stroke="black" d="M277.75,-785.02C238.41,-792.22 189.81,-801.13 151.05,-808.23"/>
<polygon fill="black" stroke="black" points="150.11,-804.84 140.9,-810.08 151.37,-811.72 150.11,-804.84"/>
<text text-anchor="middle" x="193.4" y="-800.42" font-family="Times,serif" font-size="14.00">range</text>
</g>
<!-- http://purl.org/oseg/ontologies/OTRL#ODRL&#45;0 -->
<g id="node17" class="node">
<title>http://purl.org/oseg/ontologies/OTRL#ODRL&#45;0</title>
<ellipse fill="none" stroke="#e377c2" cx="778.46" cy="-61.54" rx="50.82" ry="16.03"/>
<text text-anchor="middle" x="778.46" y="-57.84" font-family="Times,serif" font-size="14.00">ODRL&#45;0</text>
</g>
<!-- http://purl.org/oseg/ontologies/OTRL#ODRL&#45;0&#45;&gt;http://purl.org/oseg/ontologies/OTRL#ODRL -->
<g id="edge20" class="edge">
<title>http://purl.org/oseg/ontologies/OTRL#ODRL&#45;0&#45;&gt;http://purl.org/oseg/ontologies/OTRL#ODRL</title>
<path fill="none" stroke="black" d="M771.25,-78.02C765.65,-90.84 757.79,-108.85 751.37,-123.54"/>
<polygon fill="black" stroke="black" points="747.99,-122.52 747.2,-133.08 754.41,-125.32 747.99,-122.52"/>
</g>
<!-- http://purl.org/oseg/ontologies/OTRL#ODRL&#45;0&#45;&gt;http://www.w3.org/2002/07/owl#class -->
<g id="edge14" class="edge">
<title>http://purl.org/oseg/ontologies/OTRL#ODRL&#45;0&#45;&gt;http://www.w3.org/2002/07/owl#class</title>
<path fill="none" stroke="black" d="M766.76,-77.51C739.17,-115.16 669.92,-209.68 637.1,-254.46"/>
<polygon fill="black" stroke="black" points="634.14,-252.59 631.05,-262.72 639.78,-256.73 634.14,-252.59"/>
<text text-anchor="middle" x="697.43" y="-169.78" font-family="Times,serif" font-size="14.00">a</text>
</g>
<!-- http://purl.org/oseg/ontologies/OTRL#OTRL&#45;2 -->
<g id="node18" class="node">
<title>http://purl.org/oseg/ontologies/OTRL#OTRL&#45;2</title>
<ellipse fill="none" stroke="#e377c2" cx="491.77" cy="-274.41" rx="49.49" ry="16.03"/>
<text text-anchor="middle" x="491.77" y="-270.71" font-family="Times,serif" font-size="14.00">OTRL&#45;2</text>
</g>
<!-- http://purl.org/oseg/ontologies/OTRL#OTRL&#45;2&#45;&gt;http://purl.org/oseg/ontologies/OTRL#OTRL -->
<g id="edge18" class="edge">
<title>http://purl.org/oseg/ontologies/OTRL#OTRL&#45;2&#45;&gt;http://purl.org/oseg/ontologies/OTRL#OTRL</title>
<path fill="none" stroke="black" d="M487.07,-290.84C477.67,-323.71 456.5,-397.79 445.21,-437.3"/>
<polygon fill="black" stroke="black" points="441.81,-436.43 442.43,-447.01 448.54,-438.35 441.81,-436.43"/>
</g>
<!-- http://purl.org/oseg/ontologies/OTRL#OTRL&#45;2&#45;&gt;http://www.w3.org/2002/07/owl#class -->
<g id="edge37" class="edge">
<title>http://purl.org/oseg/ontologies/OTRL#OTRL&#45;2&#45;&gt;http://www.w3.org/2002/07/owl#class</title>
<path fill="none" stroke="black" d="M541.09,-276.08C544.63,-276.2 548.24,-276.32 551.86,-276.44"/>
<polygon fill="black" stroke="black" points="551.95,-279.95 562.07,-276.79 552.19,-272.95 551.95,-279.95"/>
<text text-anchor="middle" x="550.97" y="-280.06" font-family="Times,serif" font-size="14.00">a</text>
</g>
<!-- http://purl.org/oseg/ontologies/OTRL#OTRL&#45;8 -->
<g id="node19" class="node">
<title>http://purl.org/oseg/ontologies/OTRL#OTRL&#45;8</title>
<ellipse fill="none" stroke="#e377c2" cx="513.86" cy="-377.83" rx="49.49" ry="16.03"/>
<text text-anchor="middle" x="513.86" y="-374.13" font-family="Times,serif" font-size="14.00">OTRL&#45;8</text>
</g>
<!-- http://purl.org/oseg/ontologies/OTRL#OTRL&#45;8&#45;&gt;http://purl.org/oseg/ontologies/OTRL#OTRL -->
<g id="edge29" class="edge">
<title>http://purl.org/oseg/ontologies/OTRL#OTRL&#45;8&#45;&gt;http://purl.org/oseg/ontologies/OTRL#OTRL</title>
<path fill="none" stroke="black" d="M499.91,-393.5C488.25,-406.59 471.47,-425.43 458.29,-440.23"/>
<polygon fill="black" stroke="black" points="455.43,-438.18 451.39,-447.98 460.66,-442.84 455.43,-438.18"/>
</g>
<!-- http://purl.org/oseg/ontologies/OTRL#OTRL&#45;8&#45;&gt;http://www.w3.org/2002/07/owl#class -->
<g id="edge38" class="edge">
<title>http://purl.org/oseg/ontologies/OTRL#OTRL&#45;8&#45;&gt;http://www.w3.org/2002/07/owl#class</title>
<path fill="none" stroke="black" d="M530.34,-362.35C547.73,-346.01 575.32,-320.08 595.17,-301.43"/>
<polygon fill="black" stroke="black" points="597.73,-303.82 602.62,-294.42 592.94,-298.72 597.73,-303.82"/>
<text text-anchor="middle" x="558.25" y="-335.69" font-family="Times,serif" font-size="14.00">a</text>
</g>
<!-- http://purl.org/oseg/ontologies/OTRL#ODRL&#45;5 -->
<g id="node20" class="node">
<title>http://purl.org/oseg/ontologies/OTRL#ODRL&#45;5</title>
<ellipse fill="none" stroke="#e377c2" cx="854.55" cy="-156.03" rx="50.82" ry="16.03"/>
<text text-anchor="middle" x="854.55" y="-152.33" font-family="Times,serif" font-size="14.00">ODRL&#45;5</text>
</g>
<!-- http://purl.org/oseg/ontologies/OTRL#ODRL&#45;5&#45;&gt;http://purl.org/oseg/ontologies/OTRL#ODRL -->
<g id="edge22" class="edge">
<title>http://purl.org/oseg/ontologies/OTRL#ODRL&#45;5&#45;&gt;http://purl.org/oseg/ontologies/OTRL#ODRL</title>
<path fill="none" stroke="black" d="M804.38,-153.04C800.24,-152.79 796.05,-152.54 791.9,-152.29"/>
<polygon fill="black" stroke="black" points="791.92,-148.79 781.72,-151.68 791.5,-155.77 791.92,-148.79"/>
</g>
<!-- http://purl.org/oseg/ontologies/OTRL#ODRL&#45;5&#45;&gt;http://www.w3.org/2002/07/owl#class -->
<g id="edge19" class="edge">
<title>http://purl.org/oseg/ontologies/OTRL#ODRL&#45;5&#45;&gt;http://www.w3.org/2002/07/owl#class</title>
<path fill="none" stroke="black" d="M827.57,-170.11C785.26,-192.17 703.24,-234.95 655.74,-259.73"/>
<polygon fill="black" stroke="black" points="653.97,-256.7 646.73,-264.43 657.21,-262.91 653.97,-256.7"/>
<text text-anchor="middle" x="737.16" y="-218.72" font-family="Times,serif" font-size="14.00">a</text>
</g>
<!-- http://purl.org/oseg/ontologies/OTRL#documentationDescription -->
<g id="node21" class="node">
<title>http://purl.org/oseg/ontologies/OTRL#documentationDescription</title>
<ellipse fill="none" stroke="#e377c2" cx="121.13" cy="-537.61" rx="120.83" ry="16.03"/>
<text text-anchor="middle" x="121.13" y="-533.91" font-family="Times,serif" font-size="14.00">documentationDesc...</text>
</g>
<!-- http://purl.org/oseg/ontologies/OTRL#documentationDescription&#45;&gt;http://purl.org/oseg/ontologies/OTRL#OTRL -->
<g id="edge36" class="edge">
<title>http://purl.org/oseg/ontologies/OTRL#documentationDescription&#45;&gt;http://purl.org/oseg/ontologies/OTRL#OTRL</title>
<path fill="none" stroke="black" d="M181.44,-523.45C243.26,-508.94 337.97,-486.7 393.3,-473.71"/>
<polygon fill="black" stroke="black" points="394.22,-477.09 403.16,-471.39 392.62,-470.27 394.22,-477.09"/>
<text text-anchor="middle" x="260.87" y="-502.38" font-family="Times,serif" font-size="14.00">domain</text>
</g>
<!-- http://purl.org/oseg/ontologies/OTRL#documentationDescription&#45;&gt;http://schema.org/Text -->
<g id="edge3" class="edge">
<title>http://purl.org/oseg/ontologies/OTRL#documentationDescription&#45;&gt;http://schema.org/Text</title>
<path fill="none" stroke="black" d="M118.94,-554.05C112.68,-601.04 94.66,-736.26 86.97,-793.98"/>
<polygon fill="black" stroke="black" points="83.47,-793.75 85.62,-804.13 90.41,-794.68 83.47,-793.75"/>
<text text-anchor="middle" x="81.96" y="-677.82" font-family="Times,serif" font-size="14.00">range</text>
</g>
<!-- http://purl.org/oseg/ontologies/OTRL#softwareDescription -->
<g id="node22" class="node">
<title>http://purl.org/oseg/ontologies/OTRL#softwareDescription</title>
<ellipse fill="none" stroke="#e377c2" cx="176.07" cy="-617.66" rx="113.69" ry="16.03"/>
<text text-anchor="middle" x="176.07" y="-613.96" font-family="Times,serif" font-size="14.00">softwareDescription</text>
</g>
<!-- http://purl.org/oseg/ontologies/OTRL#softwareDescription&#45;&gt;http://purl.org/oseg/ontologies/OTRL#OTRL -->
<g id="edge25" class="edge">
<title>http://purl.org/oseg/ontologies/OTRL#softwareDescription&#45;&gt;http://purl.org/oseg/ontologies/OTRL#OTRL</title>
<path fill="none" stroke="black" d="M203.09,-601.72C251.88,-572.94 354.41,-512.45 406.29,-481.84"/>
<polygon fill="black" stroke="black" points="408.23,-484.76 415.07,-476.66 404.67,-478.73 408.23,-484.76"/>
<text text-anchor="middle" x="278.19" y="-545.58" font-family="Times,serif" font-size="14.00">domain</text>
</g>
<!-- http://purl.org/oseg/ontologies/OTRL#softwareDescription&#45;&gt;http://schema.org/Text -->
<g id="edge4" class="edge">
<title>http://purl.org/oseg/ontologies/OTRL#softwareDescription&#45;&gt;http://schema.org/Text</title>
<path fill="none" stroke="black" d="M168.65,-633.93C152.59,-669.11 114.51,-752.51 95.16,-794.91"/>
<polygon fill="black" stroke="black" points="91.85,-793.72 90.88,-804.27 98.22,-796.63 91.85,-793.72"/>
<text text-anchor="middle" x="110.9" y="-718.22" font-family="Times,serif" font-size="14.00">range</text>
</g>
<!-- http://purl.org/oseg/ontologies/OTRL#OTRL&#45;4 -->
<g id="node23" class="node">
<title>http://purl.org/oseg/ontologies/OTRL#OTRL&#45;4</title>
<ellipse fill="none" stroke="#e377c2" cx="399.62" cy="-342.83" rx="49.49" ry="16.03"/>
<text text-anchor="middle" x="399.62" y="-339.13" font-family="Times,serif" font-size="14.00">OTRL&#45;4</text>
</g>
<!-- http://purl.org/oseg/ontologies/OTRL#OTRL&#45;4&#45;&gt;http://purl.org/oseg/ontologies/OTRL#OTRL -->
<g id="edge32" class="edge">
<title>http://purl.org/oseg/ontologies/OTRL#OTRL&#45;4&#45;&gt;http://purl.org/oseg/ontologies/OTRL#OTRL</title>
<path fill="none" stroke="black" d="M404.77,-359.07C411.11,-379.09 421.98,-413.38 429.5,-437.12"/>
<polygon fill="black" stroke="black" points="426.24,-438.42 432.6,-446.89 432.91,-436.3 426.24,-438.42"/>
</g>
<!-- http://purl.org/oseg/ontologies/OTRL#OTRL&#45;4&#45;&gt;http://www.w3.org/2002/07/owl#class -->
<g id="edge40" class="edge">
<title>http://purl.org/oseg/ontologies/OTRL#OTRL&#45;4&#45;&gt;http://www.w3.org/2002/07/owl#class</title>
<path fill="none" stroke="black" d="M436.89,-331.95C473.43,-321.29 529.34,-304.98 569.64,-293.22"/>
<polygon fill="black" stroke="black" points="570.65,-296.57 579.27,-290.41 568.69,-289.85 570.65,-296.57"/>
<text text-anchor="middle" x="498.77" y="-316.38" font-family="Times,serif" font-size="14.00">a</text>
</g>
<!-- http://purl.org/oseg/ontologies/OTRL#OTRL&#45;9 -->
<g id="node24" class="node">
<title>http://purl.org/oseg/ontologies/OTRL#OTRL&#45;9</title>
<ellipse fill="none" stroke="#e377c2" cx="703.34" cy="-483.51" rx="49.49" ry="16.03"/>
<text text-anchor="middle" x="703.34" y="-479.81" font-family="Times,serif" font-size="14.00">OTRL&#45;9</text>
</g>
<!-- http://purl.org/oseg/ontologies/OTRL#OTRL&#45;9&#45;&gt;http://purl.org/oseg/ontologies/OTRL#OTRL -->
<g id="edge31" class="edge">
<title>http://purl.org/oseg/ontologies/OTRL#OTRL&#45;9&#45;&gt;http://purl.org/oseg/ontologies/OTRL#OTRL</title>
<path fill="none" stroke="black" d="M654.95,-479.82C607.28,-476.18 534.84,-470.66 486.92,-467.01"/>
<polygon fill="black" stroke="black" points="487.02,-463.51 476.79,-466.24 486.49,-470.49 487.02,-463.51"/>
</g>
<!-- http://purl.org/oseg/ontologies/OTRL#OTRL&#45;9&#45;&gt;http://www.w3.org/2002/07/owl#class -->
<g id="edge23" class="edge">
<title>http://purl.org/oseg/ontologies/OTRL#OTRL&#45;9&#45;&gt;http://www.w3.org/2002/07/owl#class</title>
<path fill="none" stroke="black" d="M696.61,-467.09C682.01,-431.51 647.35,-347.02 629.84,-304.34"/>
<polygon fill="black" stroke="black" points="633.02,-302.85 625.98,-294.92 626.54,-305.5 633.02,-302.85"/>
<text text-anchor="middle" x="658.73" y="-389.52" font-family="Times,serif" font-size="14.00">a</text>
</g>
</g>
</svg>
