<?xml version="1.0" encoding="UTF-8" standalone="no"?>
<!DOCTYPE svg PUBLIC "-//W3C//DTD SVG 1.1//EN"
 "http://www.w3.org/Graphics/SVG/1.1/DTD/svg11.dtd">
<!-- Generated by graphviz version 2.43.0 (0)
 -->
<!-- Title: G Pages: 1 -->
<svg width="980pt" height="570pt"
 viewBox="0.00 0.00 980.00 570.00" xmlns="http://www.w3.org/2000/svg" xmlns:xlink="http://www.w3.org/1999/xlink">
<g id="graph0" class="graph" transform="scale(1 1) rotate(0) translate(4 566)">
<title>G</title>
<polygon fill="white" stroke="transparent" points="-4,4 -4,-566 976,-566 976,4 -4,4"/>
<!-- http://purl.org/oseg/ontologies/OTRL#ODRL -->
<g id="node1" class="node">
<title>http://purl.org/oseg/ontologies/OTRL#ODRL</title>
<ellipse fill="none" stroke="#e377c2" cx="115.52" cy="-420.32" rx="41.94" ry="16.03"/>
<text text-anchor="middle" x="115.52" y="-416.62" font-family="Times,serif" font-size="14.00">ODRL</text>
</g>
<!-- http://www.w3.org/2002/07/owl#class -->
<g id="node3" class="node">
<title>http://www.w3.org/2002/07/owl#class</title>
<ellipse fill="none" stroke="#1f77b4" cx="264.77" cy="-344.38" rx="57.05" ry="16.03"/>
<text text-anchor="middle" x="264.77" y="-340.68" font-family="Times,serif" font-size="14.00">owl:class</text>
</g>
<!-- http://purl.org/oseg/ontologies/OTRL#ODRL&#45;&gt;http://www.w3.org/2002/07/owl#class -->
<g id="edge20" class="edge">
<title>http://purl.org/oseg/ontologies/OTRL#ODRL&#45;&gt;http://www.w3.org/2002/07/owl#class</title>
<path fill="none" stroke="black" d="M141.17,-407.26C164.96,-395.16 200.62,-377.01 227.53,-363.32"/>
<polygon fill="black" stroke="black" points="229.33,-366.33 236.65,-358.68 226.16,-360.1 229.33,-366.33"/>
<text text-anchor="middle" x="179.85" y="-389.09" font-family="Times,serif" font-size="14.00">a</text>
</g>
<!-- http://purl.org/oseg/ontologies/OTRL#OTRL -->
<g id="node2" class="node">
<title>http://purl.org/oseg/ontologies/OTRL#OTRL</title>
<ellipse fill="none" stroke="#e377c2" cx="469.02" cy="-247.45" rx="39.7" ry="16.03"/>
<text text-anchor="middle" x="469.02" y="-243.75" font-family="Times,serif" font-size="14.00">OTRL</text>
</g>
<!-- http://purl.org/oseg/ontologies/OTRL#OTRL&#45;&gt;http://www.w3.org/2002/07/owl#class -->
<g id="edge7" class="edge">
<title>http://purl.org/oseg/ontologies/OTRL#OTRL&#45;&gt;http://www.w3.org/2002/07/owl#class</title>
<path fill="none" stroke="black" d="M442.74,-259.93C407.35,-276.72 344.14,-306.71 303.35,-326.07"/>
<polygon fill="black" stroke="black" points="301.79,-322.93 294.25,-330.38 304.79,-329.26 301.79,-322.93"/>
<text text-anchor="middle" x="368.54" y="-296.8" font-family="Times,serif" font-size="14.00">a</text>
</g>
<!-- http://schema.org/Text -->
<g id="node4" class="node">
<title>http://schema.org/Text</title>
<ellipse fill="none" stroke="#e377c2" cx="897.09" cy="-79.93" rx="74.91" ry="16.03"/>
<text text-anchor="middle" x="897.09" y="-76.23" font-family="Times,serif" font-size="14.00">schema:Text</text>
</g>
<!-- http://purl.org/oseg/ontologies/OTRL#OTRL&#45;7 -->
<g id="node5" class="node">
<title>http://purl.org/oseg/ontologies/OTRL#OTRL&#45;7</title>
<ellipse fill="none" stroke="#e377c2" cx="374.51" cy="-435.37" rx="49.49" ry="16.03"/>
<text text-anchor="middle" x="374.51" y="-431.67" font-family="Times,serif" font-size="14.00">OTRL&#45;7</text>
</g>
<!-- http://purl.org/oseg/ontologies/OTRL#OTRL&#45;7&#45;&gt;http://purl.org/oseg/ontologies/OTRL#OTRL -->
<g id="edge33" class="edge">
<title>http://purl.org/oseg/ontologies/OTRL#OTRL&#45;7&#45;&gt;http://purl.org/oseg/ontologies/OTRL#OTRL</title>
<path fill="none" stroke="black" d="M382.73,-419.02C399.25,-386.18 436.57,-311.98 456.28,-272.79"/>
<polygon fill="black" stroke="black" points="459.52,-274.14 460.88,-263.63 453.26,-270.99 459.52,-274.14"/>
</g>
<!-- http://purl.org/oseg/ontologies/OTRL#OTRL&#45;7&#45;&gt;http://www.w3.org/2002/07/owl#class -->
<g id="edge25" class="edge">
<title>http://purl.org/oseg/ontologies/OTRL#OTRL&#45;7&#45;&gt;http://www.w3.org/2002/07/owl#class</title>
<path fill="none" stroke="black" d="M355.89,-419.94C338.16,-405.23 311.27,-382.94 291.3,-366.37"/>
<polygon fill="black" stroke="black" points="293.41,-363.58 283.47,-359.89 288.94,-368.96 293.41,-363.58"/>
<text text-anchor="middle" x="319.09" y="-396.95" font-family="Times,serif" font-size="14.00">a</text>
</g>
<!-- http://purl.org/oseg/ontologies/OTRL#ODRL&#45;1 -->
<g id="node6" class="node">
<title>http://purl.org/oseg/ontologies/OTRL#ODRL&#45;1</title>
<ellipse fill="none" stroke="#e377c2" cx="129.22" cy="-532.02" rx="50.82" ry="16.03"/>
<text text-anchor="middle" x="129.22" y="-528.32" font-family="Times,serif" font-size="14.00">ODRL&#45;1</text>
</g>
<!-- http://purl.org/oseg/ontologies/OTRL#ODRL&#45;1&#45;&gt;http://purl.org/oseg/ontologies/OTRL#ODRL -->
<g id="edge28" class="edge">
<title>http://purl.org/oseg/ontologies/OTRL#ODRL&#45;1&#45;&gt;http://purl.org/oseg/ontologies/OTRL#ODRL</title>
<path fill="none" stroke="black" d="M127.19,-515.54C124.98,-497.47 121.39,-468.22 118.78,-446.9"/>
<polygon fill="black" stroke="black" points="122.24,-446.37 117.55,-436.87 115.29,-447.22 122.24,-446.37"/>
</g>
<!-- http://purl.org/oseg/ontologies/OTRL#ODRL&#45;1&#45;&gt;http://www.w3.org/2002/07/owl#class -->
<g id="edge26" class="edge">
<title>http://purl.org/oseg/ontologies/OTRL#ODRL&#45;1&#45;&gt;http://www.w3.org/2002/07/owl#class</title>
<path fill="none" stroke="black" d="M140.77,-516.02C164.58,-483.06 219.22,-407.43 247.34,-368.5"/>
<polygon fill="black" stroke="black" points="250.22,-370.49 253.24,-360.33 244.55,-366.39 250.22,-370.49"/>
<text text-anchor="middle" x="189.56" y="-446.06" font-family="Times,serif" font-size="14.00">a</text>
</g>
<!-- http://purl.org/oseg/ontologies/OTRL#ODRL&#45;3 -->
<g id="node7" class="node">
<title>http://purl.org/oseg/ontologies/OTRL#ODRL&#45;3</title>
<ellipse fill="none" stroke="#e377c2" cx="92" cy="-258.06" rx="50.82" ry="16.03"/>
<text text-anchor="middle" x="92" y="-254.36" font-family="Times,serif" font-size="14.00">ODRL&#45;3</text>
</g>
<!-- http://purl.org/oseg/ontologies/OTRL#ODRL&#45;3&#45;&gt;http://purl.org/oseg/ontologies/OTRL#ODRL -->
<g id="edge8" class="edge">
<title>http://purl.org/oseg/ontologies/OTRL#ODRL&#45;3&#45;&gt;http://purl.org/oseg/ontologies/OTRL#ODRL</title>
<path fill="none" stroke="black" d="M94.39,-274.51C98.45,-302.58 106.76,-359.93 111.66,-393.74"/>
<polygon fill="black" stroke="black" points="108.23,-394.43 113.13,-403.82 115.15,-393.42 108.23,-394.43"/>
</g>
<!-- http://purl.org/oseg/ontologies/OTRL#ODRL&#45;3&#45;&gt;http://www.w3.org/2002/07/owl#class -->
<g id="edge4" class="edge">
<title>http://purl.org/oseg/ontologies/OTRL#ODRL&#45;3&#45;&gt;http://www.w3.org/2002/07/owl#class</title>
<path fill="none" stroke="black" d="M119.76,-271.93C148.84,-286.46 194.71,-309.38 227.06,-325.54"/>
<polygon fill="black" stroke="black" points="225.71,-328.77 236.22,-330.11 228.83,-322.51 225.71,-328.77"/>
<text text-anchor="middle" x="168.91" y="-302.53" font-family="Times,serif" font-size="14.00">a</text>
</g>
<!-- http://purl.org/oseg/ontologies/OTRL#documentationDescription -->
<g id="node8" class="node">
<title>http://purl.org/oseg/ontologies/OTRL#documentationDescription</title>
<ellipse fill="none" stroke="#e377c2" cx="643.9" cy="-16.52" rx="120.83" ry="16.03"/>
<text text-anchor="middle" x="643.9" y="-12.82" font-family="Times,serif" font-size="14.00">documentationDesc...</text>
</g>
<!-- http://purl.org/oseg/ontologies/OTRL#documentationDescription&#45;&gt;http://purl.org/oseg/ontologies/OTRL#OTRL -->
<g id="edge30" class="edge">
<title>http://purl.org/oseg/ontologies/OTRL#documentationDescription&#45;&gt;http://purl.org/oseg/ontologies/OTRL#OTRL</title>
<path fill="none" stroke="black" d="M631.61,-32.76C601.23,-72.87 522.54,-176.77 486.96,-223.76"/>
<polygon fill="black" stroke="black" points="484.09,-221.76 480.84,-231.84 489.67,-225.98 484.09,-221.76"/>
<text text-anchor="middle" x="532.78" y="-132.06" font-family="Times,serif" font-size="14.00">domain</text>
</g>
<!-- http://purl.org/oseg/ontologies/OTRL#documentationDescription&#45;&gt;http://schema.org/Text -->
<g id="edge31" class="edge">
<title>http://purl.org/oseg/ontologies/OTRL#documentationDescription&#45;&gt;http://schema.org/Text</title>
<path fill="none" stroke="black" d="M701.35,-30.91C742.19,-41.14 796.88,-54.83 838.07,-65.15"/>
<polygon fill="black" stroke="black" points="837.42,-68.59 847.97,-67.63 839.12,-61.8 837.42,-68.59"/>
<text text-anchor="middle" x="748.71" y="-51.83" font-family="Times,serif" font-size="14.00">range</text>
</g>
<!-- http://purl.org/oseg/ontologies/OTRL -->
<g id="node9" class="node">
<title>http://purl.org/oseg/ontologies/OTRL</title>
<ellipse fill="none" stroke="#e377c2" cx="688.24" cy="-415.64" rx="60.62" ry="16.03"/>
<text text-anchor="middle" x="688.24" y="-411.94" font-family="Times,serif" font-size="14.00">ns1:OTRL</text>
</g>
<!-- http://purl.org/oseg/ontologies/OTRL&#45;&gt;http://purl.org/oseg/ontologies/OTRL -->
<g id="edge19" class="edge">
<title>http://purl.org/oseg/ontologies/OTRL&#45;&gt;http://purl.org/oseg/ontologies/OTRL</title>
<path fill="none" stroke="black" d="M743.84,-422.27C757.17,-421.75 767.05,-419.54 767.05,-415.64 767.05,-412.81 761.83,-410.86 753.87,-409.81"/>
<polygon fill="black" stroke="black" points="754.09,-406.32 743.84,-409.01 753.53,-413.3 754.09,-406.32"/>
<text text-anchor="middle" x="818.55" y="-411.94" font-family="Times,serif" font-size="14.00">owl:versionIRI</text>
</g>
<!-- http://purl.org/oseg/ontologies/OTRL#exitCriteria -->
<g id="node10" class="node">
<title>http://purl.org/oseg/ontologies/OTRL#exitCriteria</title>
<ellipse fill="none" stroke="#e377c2" cx="671.68" cy="-133.94" rx="70.01" ry="16.03"/>
<text text-anchor="middle" x="671.68" y="-130.24" font-family="Times,serif" font-size="14.00">exitCriteria</text>
</g>
<!-- http://purl.org/oseg/ontologies/OTRL#exitCriteria&#45;&gt;http://purl.org/oseg/ontologies/OTRL#OTRL -->
<g id="edge24" class="edge">
<title>http://purl.org/oseg/ontologies/OTRL#exitCriteria&#45;&gt;http://purl.org/oseg/ontologies/OTRL#OTRL</title>
<path fill="none" stroke="black" d="M644.77,-149.02C607.71,-169.77 541.05,-207.11 501.34,-229.35"/>
<polygon fill="black" stroke="black" points="499.59,-226.32 492.58,-234.26 503.01,-232.43 499.59,-226.32"/>
<text text-anchor="middle" x="546.55" y="-192.98" font-family="Times,serif" font-size="14.00">domain</text>
</g>
<!-- http://purl.org/oseg/ontologies/OTRL#exitCriteria&#45;&gt;http://schema.org/Text -->
<g id="edge34" class="edge">
<title>http://purl.org/oseg/ontologies/OTRL#exitCriteria&#45;&gt;http://schema.org/Text</title>
<path fill="none" stroke="black" d="M720.59,-122.22C754.67,-114.06 800.37,-103.11 836.72,-94.4"/>
<polygon fill="black" stroke="black" points="837.8,-97.74 846.71,-92 836.17,-90.93 837.8,-97.74"/>
<text text-anchor="middle" x="757.65" y="-97.11" font-family="Times,serif" font-size="14.00">range</text>
</g>
<!-- http://purl.org/oseg/ontologies/OTRL#softwareDescription -->
<g id="node11" class="node">
<title>http://purl.org/oseg/ontologies/OTRL#softwareDescription</title>
<ellipse fill="none" stroke="#e377c2" cx="737.91" cy="-211.4" rx="113.69" ry="16.03"/>
<text text-anchor="middle" x="737.91" y="-207.7" font-family="Times,serif" font-size="14.00">softwareDescription</text>
</g>
<!-- http://purl.org/oseg/ontologies/OTRL#softwareDescription&#45;&gt;http://purl.org/oseg/ontologies/OTRL#OTRL -->
<g id="edge38" class="edge">
<title>http://purl.org/oseg/ontologies/OTRL#softwareDescription&#45;&gt;http://purl.org/oseg/ontologies/OTRL#OTRL</title>
<path fill="none" stroke="black" d="M654.67,-222.56C609.56,-228.61 555.4,-235.87 517.25,-240.99"/>
<polygon fill="black" stroke="black" points="516.39,-237.57 506.94,-242.37 517.32,-244.51 516.39,-237.57"/>
<text text-anchor="middle" x="559.46" y="-235.57" font-family="Times,serif" font-size="14.00">domain</text>
</g>
<!-- http://purl.org/oseg/ontologies/OTRL#softwareDescription&#45;&gt;http://schema.org/Text -->
<g id="edge3" class="edge">
<title>http://purl.org/oseg/ontologies/OTRL#softwareDescription&#45;&gt;http://schema.org/Text</title>
<path fill="none" stroke="black" d="M757.43,-195.28C785.63,-171.99 837.87,-128.84 869.85,-102.43"/>
<polygon fill="black" stroke="black" points="872.43,-104.84 877.91,-95.77 867.97,-99.44 872.43,-104.84"/>
<text text-anchor="middle" x="792.64" y="-152.65" font-family="Times,serif" font-size="14.00">range</text>
</g>
<!-- http://purl.org/oseg/ontologies/OTRL#ODRL&#45;0 -->
<g id="node12" class="node">
<title>http://purl.org/oseg/ontologies/OTRL#ODRL&#45;0</title>
<ellipse fill="none" stroke="#e377c2" cx="51.29" cy="-302.5" rx="50.82" ry="16.03"/>
<text text-anchor="middle" x="51.29" y="-298.8" font-family="Times,serif" font-size="14.00">ODRL&#45;0</text>
</g>
<!-- http://purl.org/oseg/ontologies/OTRL#ODRL&#45;0&#45;&gt;http://purl.org/oseg/ontologies/OTRL#ODRL -->
<g id="edge11" class="edge">
<title>http://purl.org/oseg/ontologies/OTRL#ODRL&#45;0&#45;&gt;http://purl.org/oseg/ontologies/OTRL#ODRL</title>
<path fill="none" stroke="black" d="M60.22,-318.88C71.01,-338.66 89.26,-372.15 101.83,-395.2"/>
<polygon fill="black" stroke="black" points="98.8,-396.97 106.66,-404.07 104.95,-393.62 98.8,-396.97"/>
</g>
<!-- http://purl.org/oseg/ontologies/OTRL#ODRL&#45;0&#45;&gt;http://www.w3.org/2002/07/owl#class -->
<g id="edge5" class="edge">
<title>http://purl.org/oseg/ontologies/OTRL#ODRL&#45;0&#45;&gt;http://www.w3.org/2002/07/owl#class</title>
<path fill="none" stroke="black" d="M94.75,-311.02C127.15,-317.38 171.72,-326.12 207.1,-333.06"/>
<polygon fill="black" stroke="black" points="206.8,-336.57 217.29,-335.06 208.15,-329.7 206.8,-336.57"/>
<text text-anchor="middle" x="146.42" y="-325.84" font-family="Times,serif" font-size="14.00">a</text>
</g>
<!-- http://purl.org/oseg/ontologies/OTRL#OTRL&#45;9 -->
<g id="node13" class="node">
<title>http://purl.org/oseg/ontologies/OTRL#OTRL&#45;9</title>
<ellipse fill="none" stroke="#e377c2" cx="490.16" cy="-424.63" rx="49.49" ry="16.03"/>
<text text-anchor="middle" x="490.16" y="-420.93" font-family="Times,serif" font-size="14.00">OTRL&#45;9</text>
</g>
<!-- http://purl.org/oseg/ontologies/OTRL#OTRL&#45;9&#45;&gt;http://purl.org/oseg/ontologies/OTRL#OTRL -->
<g id="edge22" class="edge">
<title>http://purl.org/oseg/ontologies/OTRL#OTRL&#45;9&#45;&gt;http://purl.org/oseg/ontologies/OTRL#OTRL</title>
<path fill="none" stroke="black" d="M488.21,-408.28C484.54,-377.56 476.6,-310.98 472.17,-273.84"/>
<polygon fill="black" stroke="black" points="475.63,-273.28 470.97,-263.77 468.67,-274.11 475.63,-273.28"/>
</g>
<!-- http://purl.org/oseg/ontologies/OTRL#OTRL&#45;9&#45;&gt;http://www.w3.org/2002/07/owl#class -->
<g id="edge29" class="edge">
<title>http://purl.org/oseg/ontologies/OTRL#OTRL&#45;9&#45;&gt;http://www.w3.org/2002/07/owl#class</title>
<path fill="none" stroke="black" d="M456.41,-412.62C417.48,-398.75 353.29,-375.9 310.04,-360.5"/>
<polygon fill="black" stroke="black" points="311.2,-357.19 300.61,-357.14 308.85,-363.79 311.2,-357.19"/>
<text text-anchor="middle" x="378.73" y="-390.36" font-family="Times,serif" font-size="14.00">a</text>
</g>
<!-- http://purl.org/oseg/ontologies/OTRL#OTRL&#45;8 -->
<g id="node14" class="node">
<title>http://purl.org/oseg/ontologies/OTRL#OTRL&#45;8</title>
<ellipse fill="none" stroke="#e377c2" cx="327.35" cy="-217.43" rx="49.49" ry="16.03"/>
<text text-anchor="middle" x="327.35" y="-213.73" font-family="Times,serif" font-size="14.00">OTRL&#45;8</text>
</g>
<!-- http://purl.org/oseg/ontologies/OTRL#OTRL&#45;8&#45;&gt;http://purl.org/oseg/ontologies/OTRL#OTRL -->
<g id="edge1" class="edge">
<title>http://purl.org/oseg/ontologies/OTRL#OTRL&#45;8&#45;&gt;http://purl.org/oseg/ontologies/OTRL#OTRL</title>
<path fill="none" stroke="black" d="M369.09,-226.27C386.28,-229.92 406.24,-234.15 423.79,-237.87"/>
<polygon fill="black" stroke="black" points="423.29,-241.34 433.8,-239.99 424.74,-234.49 423.29,-241.34"/>
</g>
<!-- http://purl.org/oseg/ontologies/OTRL#OTRL&#45;8&#45;&gt;http://www.w3.org/2002/07/owl#class -->
<g id="edge10" class="edge">
<title>http://purl.org/oseg/ontologies/OTRL#OTRL&#45;8&#45;&gt;http://www.w3.org/2002/07/owl#class</title>
<path fill="none" stroke="black" d="M319.42,-233.5C308.81,-255.04 289.86,-293.48 277.3,-318.96"/>
<polygon fill="black" stroke="black" points="274.11,-317.51 272.83,-328.03 280.39,-320.61 274.11,-317.51"/>
<text text-anchor="middle" x="293.86" y="-280.03" font-family="Times,serif" font-size="14.00">a</text>
</g>
<!-- http://purl.org/oseg/ontologies/OTRL#OTRL&#45;6 -->
<g id="node15" class="node">
<title>http://purl.org/oseg/ontologies/OTRL#OTRL&#45;6</title>
<ellipse fill="none" stroke="#e377c2" cx="444.69" cy="-288.97" rx="49.49" ry="16.03"/>
<text text-anchor="middle" x="444.69" y="-285.27" font-family="Times,serif" font-size="14.00">OTRL&#45;6</text>
</g>
<!-- http://purl.org/oseg/ontologies/OTRL#OTRL&#45;6&#45;&gt;http://purl.org/oseg/ontologies/OTRL#OTRL -->
<g id="edge23" class="edge">
<title>http://purl.org/oseg/ontologies/OTRL#OTRL&#45;6&#45;&gt;http://purl.org/oseg/ontologies/OTRL#OTRL</title>
<path fill="none" stroke="black" d="M454.3,-272.56C454.36,-272.47 454.41,-272.38 454.47,-272.28"/>
<polygon fill="black" stroke="black" points="457.59,-273.87 459.63,-263.47 451.55,-270.33 457.59,-273.87"/>
</g>
<!-- http://purl.org/oseg/ontologies/OTRL#OTRL&#45;6&#45;&gt;http://www.w3.org/2002/07/owl#class -->
<g id="edge32" class="edge">
<title>http://purl.org/oseg/ontologies/OTRL#OTRL&#45;6&#45;&gt;http://www.w3.org/2002/07/owl#class</title>
<path fill="none" stroke="black" d="M408.28,-300.18C380.97,-308.59 343.31,-320.19 313.42,-329.39"/>
<polygon fill="black" stroke="black" points="312.14,-326.13 303.61,-332.41 314.2,-332.82 312.14,-326.13"/>
<text text-anchor="middle" x="356.35" y="-318.59" font-family="Times,serif" font-size="14.00">a</text>
</g>
<!-- http://purl.org/oseg/ontologies/OTRL#hardwareDescription -->
<g id="node16" class="node">
<title>http://purl.org/oseg/ontologies/OTRL#hardwareDescription</title>
<ellipse fill="none" stroke="#e377c2" cx="747.78" cy="-301.92" rx="118.17" ry="16.03"/>
<text text-anchor="middle" x="747.78" y="-298.22" font-family="Times,serif" font-size="14.00">hardwareDescription</text>
</g>
<!-- http://purl.org/oseg/ontologies/OTRL#hardwareDescription&#45;&gt;http://purl.org/oseg/ontologies/OTRL#OTRL -->
<g id="edge21" class="edge">
<title>http://purl.org/oseg/ontologies/OTRL#hardwareDescription&#45;&gt;http://purl.org/oseg/ontologies/OTRL#OTRL</title>
<path fill="none" stroke="black" d="M679.59,-288.6C628.45,-278.61 559.83,-265.2 515.03,-256.44"/>
<polygon fill="black" stroke="black" points="515.5,-252.97 505.01,-254.49 514.16,-259.84 515.5,-252.97"/>
<text text-anchor="middle" x="570.81" y="-276.32" font-family="Times,serif" font-size="14.00">domain</text>
</g>
<!-- http://purl.org/oseg/ontologies/OTRL#hardwareDescription&#45;&gt;http://schema.org/Text -->
<g id="edge27" class="edge">
<title>http://purl.org/oseg/ontologies/OTRL#hardwareDescription&#45;&gt;http://schema.org/Text</title>
<path fill="none" stroke="black" d="M758.76,-285.6C784.65,-247.11 849.63,-150.5 880.41,-104.72"/>
<polygon fill="black" stroke="black" points="883.42,-106.53 886.09,-96.28 877.61,-102.62 883.42,-106.53"/>
<text text-anchor="middle" x="798.59" y="-183.96" font-family="Times,serif" font-size="14.00">range</text>
</g>
<!-- http://purl.org/oseg/ontologies/OTRL#OTRL&#45;2 -->
<g id="node17" class="node">
<title>http://purl.org/oseg/ontologies/OTRL#OTRL&#45;2</title>
<ellipse fill="none" stroke="#e377c2" cx="488.76" cy="-376.52" rx="49.49" ry="16.03"/>
<text text-anchor="middle" x="488.76" y="-372.82" font-family="Times,serif" font-size="14.00">OTRL&#45;2</text>
</g>
<!-- http://purl.org/oseg/ontologies/OTRL#OTRL&#45;2&#45;&gt;http://purl.org/oseg/ontologies/OTRL#OTRL -->
<g id="edge9" class="edge">
<title>http://purl.org/oseg/ontologies/OTRL#OTRL&#45;2&#45;&gt;http://purl.org/oseg/ontologies/OTRL#OTRL</title>
<path fill="none" stroke="black" d="M486.26,-360.17C482.94,-338.47 477.04,-299.88 473.08,-273.98"/>
<polygon fill="black" stroke="black" points="476.53,-273.43 471.56,-264.08 469.61,-274.49 476.53,-273.43"/>
</g>
<!-- http://purl.org/oseg/ontologies/OTRL#OTRL&#45;2&#45;&gt;http://www.w3.org/2002/07/owl#class -->
<g id="edge35" class="edge">
<title>http://purl.org/oseg/ontologies/OTRL#OTRL&#45;2&#45;&gt;http://www.w3.org/2002/07/owl#class</title>
<path fill="none" stroke="black" d="M443.16,-369.97C409.49,-365.14 363.28,-358.51 326.33,-353.21"/>
<polygon fill="black" stroke="black" points="326.57,-349.71 316.17,-351.75 325.57,-356.64 326.57,-349.71"/>
<text text-anchor="middle" x="380.25" y="-350.39" font-family="Times,serif" font-size="14.00">a</text>
</g>
<!-- http://purl.org/oseg/ontologies/OTRL#OTRL&#45;5 -->
<g id="node18" class="node">
<title>http://purl.org/oseg/ontologies/OTRL#OTRL&#45;5</title>
<ellipse fill="none" stroke="#e377c2" cx="239.73" cy="-169.95" rx="49.49" ry="16.03"/>
<text text-anchor="middle" x="239.73" y="-166.25" font-family="Times,serif" font-size="14.00">OTRL&#45;5</text>
</g>
<!-- http://purl.org/oseg/ontologies/OTRL#OTRL&#45;5&#45;&gt;http://purl.org/oseg/ontologies/OTRL#OTRL -->
<g id="edge2" class="edge">
<title>http://purl.org/oseg/ontologies/OTRL#OTRL&#45;5&#45;&gt;http://purl.org/oseg/ontologies/OTRL#OTRL</title>
<path fill="none" stroke="black" d="M274.55,-181.72C315.93,-195.71 384.84,-219 428.55,-233.78"/>
<polygon fill="black" stroke="black" points="427.69,-237.18 438.28,-237.06 429.93,-230.55 427.69,-237.18"/>
</g>
<!-- http://purl.org/oseg/ontologies/OTRL#OTRL&#45;5&#45;&gt;http://www.w3.org/2002/07/owl#class -->
<g id="edge12" class="edge">
<title>http://purl.org/oseg/ontologies/OTRL#OTRL&#45;5&#45;&gt;http://www.w3.org/2002/07/owl#class</title>
<path fill="none" stroke="black" d="M242.08,-186.36C246.43,-216.61 255.73,-281.43 260.97,-317.95"/>
<polygon fill="black" stroke="black" points="257.51,-318.48 262.4,-327.88 264.44,-317.49 257.51,-318.48"/>
<text text-anchor="middle" x="247.03" y="-255.96" font-family="Times,serif" font-size="14.00">a</text>
</g>
<!-- http://purl.org/oseg/ontologies/OTRL#ODRL&#45;2 -->
<g id="node19" class="node">
<title>http://purl.org/oseg/ontologies/OTRL#ODRL&#45;2</title>
<ellipse fill="none" stroke="#e377c2" cx="86.59" cy="-465.93" rx="50.82" ry="16.03"/>
<text text-anchor="middle" x="86.59" y="-462.23" font-family="Times,serif" font-size="14.00">ODRL&#45;2</text>
</g>
<!-- http://purl.org/oseg/ontologies/OTRL#ODRL&#45;2&#45;&gt;http://purl.org/oseg/ontologies/OTRL#ODRL -->
<g id="edge6" class="edge">
<title>http://purl.org/oseg/ontologies/OTRL#ODRL&#45;2&#45;&gt;http://purl.org/oseg/ontologies/OTRL#ODRL</title>
<path fill="none" stroke="black" d="M96.7,-449.98C97.75,-448.32 98.84,-446.61 99.93,-444.89"/>
<polygon fill="black" stroke="black" points="102.95,-446.66 105.35,-436.34 97.04,-442.91 102.95,-446.66"/>
</g>
<!-- http://purl.org/oseg/ontologies/OTRL#ODRL&#45;2&#45;&gt;http://www.w3.org/2002/07/owl#class -->
<g id="edge16" class="edge">
<title>http://purl.org/oseg/ontologies/OTRL#ODRL&#45;2&#45;&gt;http://www.w3.org/2002/07/owl#class</title>
<path fill="none" stroke="black" d="M108.43,-451.03C139.96,-429.52 198.34,-389.69 234.15,-365.26"/>
<polygon fill="black" stroke="black" points="236.45,-367.93 242.74,-359.4 232.51,-362.15 236.45,-367.93"/>
<text text-anchor="middle" x="166.79" y="-411.95" font-family="Times,serif" font-size="14.00">a</text>
</g>
<!-- http://purl.org/oseg/ontologies/OTRL#OTRL&#45;4 -->
<g id="node20" class="node">
<title>http://purl.org/oseg/ontologies/OTRL#OTRL&#45;4</title>
<ellipse fill="none" stroke="#e377c2" cx="356.16" cy="-136.11" rx="49.49" ry="16.03"/>
<text text-anchor="middle" x="356.16" y="-132.41" font-family="Times,serif" font-size="14.00">OTRL&#45;4</text>
</g>
<!-- http://purl.org/oseg/ontologies/OTRL#OTRL&#45;4&#45;&gt;http://purl.org/oseg/ontologies/OTRL#OTRL -->
<g id="edge13" class="edge">
<title>http://purl.org/oseg/ontologies/OTRL#OTRL&#45;4&#45;&gt;http://purl.org/oseg/ontologies/OTRL#OTRL</title>
<path fill="none" stroke="black" d="M371.86,-151.59C391.14,-170.62 424.03,-203.06 446.13,-224.87"/>
<polygon fill="black" stroke="black" points="443.88,-227.57 453.46,-232.1 448.8,-222.59 443.88,-227.57"/>
</g>
<!-- http://purl.org/oseg/ontologies/OTRL#OTRL&#45;4&#45;&gt;http://www.w3.org/2002/07/owl#class -->
<g id="edge36" class="edge">
<title>http://purl.org/oseg/ontologies/OTRL#OTRL&#45;4&#45;&gt;http://www.w3.org/2002/07/owl#class</title>
<path fill="none" stroke="black" d="M348.99,-152.45C333.14,-188.57 295.03,-275.42 275.99,-318.81"/>
<polygon fill="black" stroke="black" points="272.72,-317.55 271.91,-328.11 279.13,-320.36 272.72,-317.55"/>
<text text-anchor="middle" x="307.99" y="-239.43" font-family="Times,serif" font-size="14.00">a</text>
</g>
<!-- http://purl.org/oseg/ontologies/OTRL#OTRL&#45;1 -->
<g id="node21" class="node">
<title>http://purl.org/oseg/ontologies/OTRL#OTRL&#45;1</title>
<ellipse fill="none" stroke="#e377c2" cx="380.07" cy="-380.16" rx="49.49" ry="16.03"/>
<text text-anchor="middle" x="380.07" y="-376.46" font-family="Times,serif" font-size="14.00">OTRL&#45;1</text>
</g>
<!-- http://purl.org/oseg/ontologies/OTRL#OTRL&#45;1&#45;&gt;http://purl.org/oseg/ontologies/OTRL#OTRL -->
<g id="edge15" class="edge">
<title>http://purl.org/oseg/ontologies/OTRL#OTRL&#45;1&#45;&gt;http://purl.org/oseg/ontologies/OTRL#OTRL</title>
<path fill="none" stroke="black" d="M390.8,-364.15C406.16,-341.24 434.55,-298.88 452.57,-271.99"/>
<polygon fill="black" stroke="black" points="455.59,-273.77 458.25,-263.52 449.78,-269.88 455.59,-273.77"/>
</g>
<!-- http://purl.org/oseg/ontologies/OTRL#OTRL&#45;1&#45;&gt;http://www.w3.org/2002/07/owl#class -->
<g id="edge39" class="edge">
<title>http://purl.org/oseg/ontologies/OTRL#OTRL&#45;1&#45;&gt;http://www.w3.org/2002/07/owl#class</title>
<path fill="none" stroke="black" d="M343.9,-368.94C334.19,-365.92 323.53,-362.62 313.27,-359.43"/>
<polygon fill="black" stroke="black" points="314.19,-356.05 303.6,-356.43 312.11,-362.74 314.19,-356.05"/>
<text text-anchor="middle" x="324.09" y="-367.98" font-family="Times,serif" font-size="14.00">a</text>
</g>
<!-- http://purl.org/oseg/ontologies/OTRL#OTRL&#45;3 -->
<g id="node22" class="node">
<title>http://purl.org/oseg/ontologies/OTRL#OTRL&#45;3</title>
<ellipse fill="none" stroke="#e377c2" cx="434.53" cy="-181.2" rx="49.49" ry="16.03"/>
<text text-anchor="middle" x="434.53" y="-177.5" font-family="Times,serif" font-size="14.00">OTRL&#45;3</text>
</g>
<!-- http://purl.org/oseg/ontologies/OTRL#OTRL&#45;3&#45;&gt;http://purl.org/oseg/ontologies/OTRL#OTRL -->
<g id="edge37" class="edge">
<title>http://purl.org/oseg/ontologies/OTRL#OTRL&#45;3&#45;&gt;http://purl.org/oseg/ontologies/OTRL#OTRL</title>
<path fill="none" stroke="black" d="M442.88,-197.24C446.76,-204.7 451.47,-213.74 455.82,-222.09"/>
<polygon fill="black" stroke="black" points="452.79,-223.85 460.51,-231.1 459,-220.62 452.79,-223.85"/>
</g>
<!-- http://purl.org/oseg/ontologies/OTRL#OTRL&#45;3&#45;&gt;http://www.w3.org/2002/07/owl#class -->
<g id="edge18" class="edge">
<title>http://purl.org/oseg/ontologies/OTRL#OTRL&#45;3&#45;&gt;http://www.w3.org/2002/07/owl#class</title>
<path fill="none" stroke="black" d="M418.26,-196.85C388.09,-225.84 323.39,-288.03 288.4,-321.66"/>
<polygon fill="black" stroke="black" points="285.78,-319.32 281,-328.78 290.63,-324.37 285.78,-319.32"/>
<text text-anchor="middle" x="348.83" y="-263.05" font-family="Times,serif" font-size="14.00">a</text>
</g>
<!-- http://purl.org/oseg/ontologies/OTRL#ODRL&#45;4 -->
<g id="node23" class="node">
<title>http://purl.org/oseg/ontologies/OTRL#ODRL&#45;4</title>
<ellipse fill="none" stroke="#e377c2" cx="50.86" cy="-376.73" rx="50.82" ry="16.03"/>
<text text-anchor="middle" x="50.86" y="-373.03" font-family="Times,serif" font-size="14.00">ODRL&#45;4</text>
</g>
<!-- http://purl.org/oseg/ontologies/OTRL#ODRL&#45;4&#45;&gt;http://purl.org/oseg/ontologies/OTRL#ODRL -->
<g id="edge17" class="edge">
<title>http://purl.org/oseg/ontologies/OTRL#ODRL&#45;4&#45;&gt;http://purl.org/oseg/ontologies/OTRL#ODRL</title>
<path fill="none" stroke="black" d="M72.75,-391.49C77.04,-394.38 81.6,-397.45 86.08,-400.47"/>
<polygon fill="black" stroke="black" points="84.28,-403.48 94.52,-406.17 88.19,-397.67 84.28,-403.48"/>
</g>
<!-- http://purl.org/oseg/ontologies/OTRL#ODRL&#45;4&#45;&gt;http://www.w3.org/2002/07/owl#class -->
<g id="edge40" class="edge">
<title>http://purl.org/oseg/ontologies/OTRL#ODRL&#45;4&#45;&gt;http://www.w3.org/2002/07/owl#class</title>
<path fill="none" stroke="black" d="M97.01,-369.75C128.29,-365.02 169.95,-358.72 203.93,-353.58"/>
<polygon fill="black" stroke="black" points="204.85,-356.98 214.21,-352.02 203.8,-350.06 204.85,-356.98"/>
<text text-anchor="middle" x="145.97" y="-365.46" font-family="Times,serif" font-size="14.00">a</text>
</g>
<!-- http://purl.org/oseg/ontologies/OTRL#ODRL&#45;5 -->
<g id="node24" class="node">
<title>http://purl.org/oseg/ontologies/OTRL#ODRL&#45;5</title>
<ellipse fill="none" stroke="#e377c2" cx="247.97" cy="-545.48" rx="50.82" ry="16.03"/>
<text text-anchor="middle" x="247.97" y="-541.78" font-family="Times,serif" font-size="14.00">ODRL&#45;5</text>
</g>
<!-- http://purl.org/oseg/ontologies/OTRL#ODRL&#45;5&#45;&gt;http://purl.org/oseg/ontologies/OTRL#ODRL -->
<g id="edge14" class="edge">
<title>http://purl.org/oseg/ontologies/OTRL#ODRL&#45;5&#45;&gt;http://purl.org/oseg/ontologies/OTRL#ODRL</title>
<path fill="none" stroke="black" d="M231.46,-529.88C208.24,-507.93 165.78,-467.81 139.19,-442.69"/>
<polygon fill="black" stroke="black" points="141.49,-440.04 131.82,-435.72 136.68,-445.13 141.49,-440.04"/>
</g>
<!-- http://purl.org/oseg/ontologies/OTRL#ODRL&#45;5&#45;&gt;http://www.w3.org/2002/07/owl#class -->
<g id="edge41" class="edge">
<title>http://purl.org/oseg/ontologies/OTRL#ODRL&#45;5&#45;&gt;http://www.w3.org/2002/07/owl#class</title>
<path fill="none" stroke="black" d="M249.35,-529.03C252.25,-494.25 259.03,-413.02 262.56,-370.85"/>
<polygon fill="black" stroke="black" points="266.05,-371.04 263.4,-360.78 259.08,-370.45 266.05,-371.04"/>
<text text-anchor="middle" x="251.45" y="-453.74" font-family="Times,serif" font-size="14.00">a</text>
</g>
</g>
</svg>
