<?xml version="1.0" encoding="UTF-8" standalone="no"?>
<!DOCTYPE svg PUBLIC "-//W3C//DTD SVG 1.1//EN"
 "http://www.w3.org/Graphics/SVG/1.1/DTD/svg11.dtd">
<!-- Generated by graphviz version 2.43.0 (0)
 -->
<!-- Title: G Pages: 1 -->
<svg width="952pt" height="650pt"
 viewBox="0.00 0.00 952.00 650.00" xmlns="http://www.w3.org/2000/svg" xmlns:xlink="http://www.w3.org/1999/xlink">
<g id="graph0" class="graph" transform="scale(1 1) rotate(0) translate(4 646)">
<title>G</title>
<polygon fill="white" stroke="transparent" points="-4,4 -4,-646 948,-646 948,4 -4,4"/>
<!-- http://www.w3.org/2002/07/owl#class -->
<g id="node1" class="node">
<title>http://www.w3.org/2002/07/owl#class</title>
<ellipse fill="none" stroke="#1f77b4" cx="297.3" cy="-246.64" rx="57.05" ry="16.03"/>
<text text-anchor="middle" x="297.3" y="-242.94" font-family="Times,serif" font-size="14.00">owl:class</text>
</g>
<!-- http://purl.org/oseg/ontologies/OTRL#OTRL -->
<g id="node2" class="node">
<title>http://purl.org/oseg/ontologies/OTRL#OTRL</title>
<ellipse fill="none" stroke="#e377c2" cx="485.73" cy="-364.65" rx="39.7" ry="16.03"/>
<text text-anchor="middle" x="485.73" y="-360.95" font-family="Times,serif" font-size="14.00">OTRL</text>
</g>
<!-- http://purl.org/oseg/ontologies/OTRL#OTRL&#45;&gt;http://www.w3.org/2002/07/owl#class -->
<g id="edge7" class="edge">
<title>http://purl.org/oseg/ontologies/OTRL#OTRL&#45;&gt;http://www.w3.org/2002/07/owl#class</title>
<path fill="none" stroke="black" d="M463.75,-350.88C430.76,-330.23 368.26,-291.08 329.94,-267.08"/>
<polygon fill="black" stroke="black" points="331.55,-263.96 321.22,-261.62 327.84,-269.9 331.55,-263.96"/>
<text text-anchor="middle" x="392.34" y="-312.78" font-family="Times,serif" font-size="14.00">a</text>
</g>
<!-- http://purl.org/oseg/ontologies/OTRL#ODRL -->
<g id="node3" class="node">
<title>http://purl.org/oseg/ontologies/OTRL#ODRL</title>
<ellipse fill="none" stroke="#e377c2" cx="180.97" cy="-161.58" rx="41.94" ry="16.03"/>
<text text-anchor="middle" x="180.97" y="-157.88" font-family="Times,serif" font-size="14.00">ODRL</text>
</g>
<!-- http://purl.org/oseg/ontologies/OTRL#ODRL&#45;&gt;http://www.w3.org/2002/07/owl#class -->
<g id="edge39" class="edge">
<title>http://purl.org/oseg/ontologies/OTRL#ODRL&#45;&gt;http://www.w3.org/2002/07/owl#class</title>
<path fill="none" stroke="black" d="M200.7,-176.01C219.16,-189.51 246.97,-209.84 268.02,-225.23"/>
<polygon fill="black" stroke="black" points="266.15,-228.2 276.29,-231.28 270.28,-222.55 266.15,-228.2"/>
<text text-anchor="middle" x="229.86" y="-204.42" font-family="Times,serif" font-size="14.00">a</text>
</g>
<!-- http://purl.org/oseg/ontologies/OTRL#ODRL&#45;3 -->
<g id="node4" class="node">
<title>http://purl.org/oseg/ontologies/OTRL#ODRL&#45;3</title>
<ellipse fill="none" stroke="#e377c2" cx="50.67" cy="-199.28" rx="50.82" ry="16.03"/>
<text text-anchor="middle" x="50.67" y="-195.58" font-family="Times,serif" font-size="14.00">ODRL&#45;3</text>
</g>
<!-- http://purl.org/oseg/ontologies/OTRL#ODRL&#45;3&#45;&gt;http://www.w3.org/2002/07/owl#class -->
<g id="edge1" class="edge">
<title>http://purl.org/oseg/ontologies/OTRL#ODRL&#45;3&#45;&gt;http://www.w3.org/2002/07/owl#class</title>
<path fill="none" stroke="black" d="M94.48,-207.7C134.93,-215.46 195.28,-227.05 239.64,-235.57"/>
<polygon fill="black" stroke="black" points="239.22,-239.05 249.7,-237.5 240.54,-232.18 239.22,-239.05"/>
<text text-anchor="middle" x="162.56" y="-225.43" font-family="Times,serif" font-size="14.00">a</text>
</g>
<!-- http://purl.org/oseg/ontologies/OTRL#ODRL&#45;3&#45;&gt;http://purl.org/oseg/ontologies/OTRL#ODRL -->
<g id="edge26" class="edge">
<title>http://purl.org/oseg/ontologies/OTRL#ODRL&#45;3&#45;&gt;http://purl.org/oseg/ontologies/OTRL#ODRL</title>
<path fill="none" stroke="black" d="M88.71,-188.28C103.87,-183.89 121.41,-178.81 137.1,-174.27"/>
<polygon fill="black" stroke="black" points="138.47,-177.52 147.1,-171.38 136.52,-170.8 138.47,-177.52"/>
</g>
<!-- http://purl.org/oseg/ontologies/OTRL#ODRL&#45;1 -->
<g id="node5" class="node">
<title>http://purl.org/oseg/ontologies/OTRL#ODRL&#45;1</title>
<ellipse fill="none" stroke="#e377c2" cx="56.97" cy="-275.68" rx="50.82" ry="16.03"/>
<text text-anchor="middle" x="56.97" y="-271.98" font-family="Times,serif" font-size="14.00">ODRL&#45;1</text>
</g>
<!-- http://purl.org/oseg/ontologies/OTRL#ODRL&#45;1&#45;&gt;http://www.w3.org/2002/07/owl#class -->
<g id="edge3" class="edge">
<title>http://purl.org/oseg/ontologies/OTRL#ODRL&#45;1&#45;&gt;http://www.w3.org/2002/07/owl#class</title>
<path fill="none" stroke="black" d="M104.74,-269.91C141.84,-265.43 193.62,-259.17 234.15,-254.28"/>
<polygon fill="black" stroke="black" points="234.68,-257.74 244.19,-253.06 233.84,-250.79 234.68,-257.74"/>
<text text-anchor="middle" x="164.94" y="-265.89" font-family="Times,serif" font-size="14.00">a</text>
</g>
<!-- http://purl.org/oseg/ontologies/OTRL#ODRL&#45;1&#45;&gt;http://purl.org/oseg/ontologies/OTRL#ODRL -->
<g id="edge24" class="edge">
<title>http://purl.org/oseg/ontologies/OTRL#ODRL&#45;1&#45;&gt;http://purl.org/oseg/ontologies/OTRL#ODRL</title>
<path fill="none" stroke="black" d="M73.69,-260.29C95.16,-240.53 132.57,-206.11 157.05,-183.59"/>
<polygon fill="black" stroke="black" points="159.52,-186.07 164.51,-176.72 154.78,-180.92 159.52,-186.07"/>
</g>
<!-- http://schema.org/Text -->
<g id="node6" class="node">
<title>http://schema.org/Text</title>
<ellipse fill="none" stroke="#e377c2" cx="869.42" cy="-519.53" rx="74.91" ry="16.03"/>
<text text-anchor="middle" x="869.42" y="-515.83" font-family="Times,serif" font-size="14.00">schema:Text</text>
</g>
<!-- http://purl.org/oseg/ontologies/OTRL -->
<g id="node7" class="node">
<title>http://purl.org/oseg/ontologies/OTRL</title>
<ellipse fill="none" stroke="#e377c2" cx="721.24" cy="-136.64" rx="60.62" ry="16.03"/>
<text text-anchor="middle" x="721.24" y="-132.94" font-family="Times,serif" font-size="14.00">ns1:OTRL</text>
</g>
<!-- http://purl.org/oseg/ontologies/OTRL&#45;&gt;http://purl.org/oseg/ontologies/OTRL -->
<g id="edge27" class="edge">
<title>http://purl.org/oseg/ontologies/OTRL&#45;&gt;http://purl.org/oseg/ontologies/OTRL</title>
<path fill="none" stroke="black" d="M776.84,-143.27C790.17,-142.75 800.05,-140.54 800.05,-136.64 800.05,-133.81 794.83,-131.86 786.87,-130.81"/>
<polygon fill="black" stroke="black" points="787.09,-127.32 776.84,-130.01 786.53,-134.3 787.09,-127.32"/>
<text text-anchor="middle" x="851.55" y="-132.94" font-family="Times,serif" font-size="14.00">owl:versionIRI</text>
</g>
<!-- http://purl.org/oseg/ontologies/OTRL#ODRL&#45;2 -->
<g id="node8" class="node">
<title>http://purl.org/oseg/ontologies/OTRL#ODRL&#45;2</title>
<ellipse fill="none" stroke="#e377c2" cx="104.45" cy="-107.88" rx="50.82" ry="16.03"/>
<text text-anchor="middle" x="104.45" y="-104.18" font-family="Times,serif" font-size="14.00">ODRL&#45;2</text>
</g>
<!-- http://purl.org/oseg/ontologies/OTRL#ODRL&#45;2&#45;&gt;http://www.w3.org/2002/07/owl#class -->
<g id="edge9" class="edge">
<title>http://purl.org/oseg/ontologies/OTRL#ODRL&#45;2&#45;&gt;http://www.w3.org/2002/07/owl#class</title>
<path fill="none" stroke="black" d="M125.46,-122.99C159.86,-147.74 228.3,-196.99 267.63,-225.29"/>
<polygon fill="black" stroke="black" points="265.87,-228.34 276.03,-231.34 269.96,-222.66 265.87,-228.34"/>
<text text-anchor="middle" x="192.05" y="-177.94" font-family="Times,serif" font-size="14.00">a</text>
</g>
<!-- http://purl.org/oseg/ontologies/OTRL#ODRL&#45;2&#45;&gt;http://purl.org/oseg/ontologies/OTRL#ODRL -->
<g id="edge36" class="edge">
<title>http://purl.org/oseg/ontologies/OTRL#ODRL&#45;2&#45;&gt;http://purl.org/oseg/ontologies/OTRL#ODRL</title>
<path fill="none" stroke="black" d="M125.77,-122.84C133.92,-128.56 143.37,-135.19 152.12,-141.33"/>
<polygon fill="black" stroke="black" points="150.36,-144.38 160.56,-147.26 154.38,-138.65 150.36,-144.38"/>
</g>
<!-- http://purl.org/oseg/ontologies/OTRL#ODRL&#45;5 -->
<g id="node9" class="node">
<title>http://purl.org/oseg/ontologies/OTRL#ODRL&#45;5</title>
<ellipse fill="none" stroke="#e377c2" cx="152.49" cy="-36.28" rx="50.82" ry="16.03"/>
<text text-anchor="middle" x="152.49" y="-32.58" font-family="Times,serif" font-size="14.00">ODRL&#45;5</text>
</g>
<!-- http://purl.org/oseg/ontologies/OTRL#ODRL&#45;5&#45;&gt;http://www.w3.org/2002/07/owl#class -->
<g id="edge11" class="edge">
<title>http://purl.org/oseg/ontologies/OTRL#ODRL&#45;5&#45;&gt;http://www.w3.org/2002/07/owl#class</title>
<path fill="none" stroke="black" d="M163.61,-52.44C188.83,-89.07 250.48,-178.63 280.43,-222.13"/>
<polygon fill="black" stroke="black" points="277.59,-224.18 286.14,-230.43 283.36,-220.21 277.59,-224.18"/>
<text text-anchor="middle" x="217.52" y="-126.08" font-family="Times,serif" font-size="14.00">a</text>
</g>
<!-- http://purl.org/oseg/ontologies/OTRL#ODRL&#45;5&#45;&gt;http://purl.org/oseg/ontologies/OTRL#ODRL -->
<g id="edge38" class="edge">
<title>http://purl.org/oseg/ontologies/OTRL#ODRL&#45;5&#45;&gt;http://purl.org/oseg/ontologies/OTRL#ODRL</title>
<path fill="none" stroke="black" d="M156.21,-52.66C160.99,-73.67 169.33,-110.37 175,-135.31"/>
<polygon fill="black" stroke="black" points="171.61,-136.22 177.24,-145.19 178.44,-134.67 171.61,-136.22"/>
</g>
<!-- http://purl.org/oseg/ontologies/OTRL#exitCriteria -->
<g id="node10" class="node">
<title>http://purl.org/oseg/ontologies/OTRL#exitCriteria</title>
<ellipse fill="none" stroke="#e377c2" cx="723.24" cy="-364.34" rx="70.01" ry="16.03"/>
<text text-anchor="middle" x="723.24" y="-360.64" font-family="Times,serif" font-size="14.00">exitCriteria</text>
</g>
<!-- http://purl.org/oseg/ontologies/OTRL#exitCriteria&#45;&gt;http://purl.org/oseg/ontologies/OTRL#OTRL -->
<g id="edge2" class="edge">
<title>http://purl.org/oseg/ontologies/OTRL#exitCriteria&#45;&gt;http://purl.org/oseg/ontologies/OTRL#OTRL</title>
<path fill="none" stroke="black" d="M652.94,-364.43C615.26,-364.48 569.71,-364.54 535.68,-364.59"/>
<polygon fill="black" stroke="black" points="535.51,-361.09 525.51,-364.6 535.51,-368.09 535.51,-361.09"/>
<text text-anchor="middle" x="567.81" y="-368.31" font-family="Times,serif" font-size="14.00">domain</text>
</g>
<!-- http://purl.org/oseg/ontologies/OTRL#exitCriteria&#45;&gt;http://schema.org/Text -->
<g id="edge20" class="edge">
<title>http://purl.org/oseg/ontologies/OTRL#exitCriteria&#45;&gt;http://schema.org/Text</title>
<path fill="none" stroke="black" d="M738.33,-380.36C764.15,-407.78 816.93,-463.81 847.05,-495.79"/>
<polygon fill="black" stroke="black" points="844.78,-498.48 854.19,-503.36 849.88,-493.69 844.78,-498.48"/>
<text text-anchor="middle" x="771.69" y="-441.87" font-family="Times,serif" font-size="14.00">range</text>
</g>
<!-- http://purl.org/oseg/ontologies/OTRL#OTRL&#45;1 -->
<g id="node11" class="node">
<title>http://purl.org/oseg/ontologies/OTRL#OTRL&#45;1</title>
<ellipse fill="none" stroke="#e377c2" cx="478.61" cy="-241.04" rx="49.49" ry="16.03"/>
<text text-anchor="middle" x="478.61" y="-237.34" font-family="Times,serif" font-size="14.00">OTRL&#45;1</text>
</g>
<!-- http://purl.org/oseg/ontologies/OTRL#OTRL&#45;1&#45;&gt;http://www.w3.org/2002/07/owl#class -->
<g id="edge31" class="edge">
<title>http://purl.org/oseg/ontologies/OTRL#OTRL&#45;1&#45;&gt;http://www.w3.org/2002/07/owl#class</title>
<path fill="none" stroke="black" d="M429.07,-242.57C409.15,-243.19 385.88,-243.91 364.49,-244.57"/>
<polygon fill="black" stroke="black" points="364.37,-241.07 354.48,-244.88 364.59,-248.07 364.37,-241.07"/>
<text text-anchor="middle" x="392.28" y="-247.37" font-family="Times,serif" font-size="14.00">a</text>
</g>
<!-- http://purl.org/oseg/ontologies/OTRL#OTRL&#45;1&#45;&gt;http://purl.org/oseg/ontologies/OTRL#OTRL -->
<g id="edge6" class="edge">
<title>http://purl.org/oseg/ontologies/OTRL#OTRL&#45;1&#45;&gt;http://purl.org/oseg/ontologies/OTRL#OTRL</title>
<path fill="none" stroke="black" d="M479.55,-257.46C480.74,-278.05 482.79,-313.63 484.2,-338.11"/>
<polygon fill="black" stroke="black" points="480.71,-338.39 484.78,-348.17 487.7,-337.99 480.71,-338.39"/>
</g>
<!-- http://purl.org/oseg/ontologies/OTRL#OTRL&#45;7 -->
<g id="node12" class="node">
<title>http://purl.org/oseg/ontologies/OTRL#OTRL&#45;7</title>
<ellipse fill="none" stroke="#e377c2" cx="486.06" cy="-319.01" rx="49.49" ry="16.03"/>
<text text-anchor="middle" x="486.06" y="-315.31" font-family="Times,serif" font-size="14.00">OTRL&#45;7</text>
</g>
<!-- http://purl.org/oseg/ontologies/OTRL#OTRL&#45;7&#45;&gt;http://www.w3.org/2002/07/owl#class -->
<g id="edge32" class="edge">
<title>http://purl.org/oseg/ontologies/OTRL#OTRL&#45;7&#45;&gt;http://www.w3.org/2002/07/owl#class</title>
<path fill="none" stroke="black" d="M453.61,-306.57C422.63,-294.69 375.69,-276.69 341.34,-263.52"/>
<polygon fill="black" stroke="black" points="342.15,-260.09 331.56,-259.78 339.64,-266.62 342.15,-260.09"/>
<text text-anchor="middle" x="392.98" y="-288.84" font-family="Times,serif" font-size="14.00">a</text>
</g>
<!-- http://purl.org/oseg/ontologies/OTRL#OTRL&#45;7&#45;&gt;http://purl.org/oseg/ontologies/OTRL#OTRL -->
<g id="edge16" class="edge">
<title>http://purl.org/oseg/ontologies/OTRL#OTRL&#45;7&#45;&gt;http://purl.org/oseg/ontologies/OTRL#OTRL</title>
<path fill="none" stroke="black" d="M485.94,-335.48C485.94,-336.4 485.93,-337.33 485.92,-338.27"/>
<polygon fill="black" stroke="black" points="482.42,-338.32 485.85,-348.35 489.42,-338.38 482.42,-338.32"/>
</g>
<!-- http://purl.org/oseg/ontologies/OTRL#ODRL&#45;0 -->
<g id="node13" class="node">
<title>http://purl.org/oseg/ontologies/OTRL#ODRL&#45;0</title>
<ellipse fill="none" stroke="#e377c2" cx="97.55" cy="-335.21" rx="50.82" ry="16.03"/>
<text text-anchor="middle" x="97.55" y="-331.51" font-family="Times,serif" font-size="14.00">ODRL&#45;0</text>
</g>
<!-- http://purl.org/oseg/ontologies/OTRL#ODRL&#45;0&#45;&gt;http://www.w3.org/2002/07/owl#class -->
<g id="edge13" class="edge">
<title>http://purl.org/oseg/ontologies/OTRL#ODRL&#45;0&#45;&gt;http://www.w3.org/2002/07/owl#class</title>
<path fill="none" stroke="black" d="M127.45,-321.95C161.87,-306.69 218.56,-281.56 256.88,-264.57"/>
<polygon fill="black" stroke="black" points="258.48,-267.69 266.21,-260.43 255.65,-261.29 258.48,-267.69"/>
<text text-anchor="middle" x="187.67" y="-297.06" font-family="Times,serif" font-size="14.00">a</text>
</g>
<!-- http://purl.org/oseg/ontologies/OTRL#ODRL&#45;0&#45;&gt;http://purl.org/oseg/ontologies/OTRL#ODRL -->
<g id="edge29" class="edge">
<title>http://purl.org/oseg/ontologies/OTRL#ODRL&#45;0&#45;&gt;http://purl.org/oseg/ontologies/OTRL#ODRL</title>
<path fill="none" stroke="black" d="M105.39,-318.88C119.93,-288.63 151.13,-223.68 168.55,-187.41"/>
<polygon fill="black" stroke="black" points="171.9,-188.53 173.08,-178 165.59,-185.49 171.9,-188.53"/>
</g>
<!-- http://purl.org/oseg/ontologies/OTRL#hardwareDescription -->
<g id="node14" class="node">
<title>http://purl.org/oseg/ontologies/OTRL#hardwareDescription</title>
<ellipse fill="none" stroke="#e377c2" cx="796.3" cy="-476.31" rx="118.17" ry="16.03"/>
<text text-anchor="middle" x="796.3" y="-472.61" font-family="Times,serif" font-size="14.00">hardwareDescription</text>
</g>
<!-- http://purl.org/oseg/ontologies/OTRL#hardwareDescription&#45;&gt;http://purl.org/oseg/ontologies/OTRL#OTRL -->
<g id="edge25" class="edge">
<title>http://purl.org/oseg/ontologies/OTRL#hardwareDescription&#45;&gt;http://purl.org/oseg/ontologies/OTRL#OTRL</title>
<path fill="none" stroke="black" d="M753.77,-461.02C693.46,-439.34 583.94,-399.96 525.3,-378.88"/>
<polygon fill="black" stroke="black" points="526.25,-375.5 515.65,-375.41 523.88,-382.09 526.25,-375.5"/>
<text text-anchor="middle" x="613.03" y="-423.75" font-family="Times,serif" font-size="14.00">domain</text>
</g>
<!-- http://purl.org/oseg/ontologies/OTRL#hardwareDescription&#45;&gt;http://schema.org/Text -->
<g id="edge41" class="edge">
<title>http://purl.org/oseg/ontologies/OTRL#hardwareDescription&#45;&gt;http://schema.org/Text</title>
<path fill="none" stroke="black" d="M823.11,-492.16C826.87,-494.38 830.78,-496.7 834.66,-498.99"/>
<polygon fill="black" stroke="black" points="833.2,-502.19 843.59,-504.26 836.76,-496.16 833.2,-502.19"/>
<text text-anchor="middle" x="807.89" y="-499.38" font-family="Times,serif" font-size="14.00">range</text>
</g>
<!-- http://purl.org/oseg/ontologies/OTRL#OTRL&#45;3 -->
<g id="node15" class="node">
<title>http://purl.org/oseg/ontologies/OTRL#OTRL&#45;3</title>
<ellipse fill="none" stroke="#e377c2" cx="545" cy="-196.29" rx="49.49" ry="16.03"/>
<text text-anchor="middle" x="545" y="-192.59" font-family="Times,serif" font-size="14.00">OTRL&#45;3</text>
</g>
<!-- http://purl.org/oseg/ontologies/OTRL#OTRL&#45;3&#45;&gt;http://www.w3.org/2002/07/owl#class -->
<g id="edge14" class="edge">
<title>http://purl.org/oseg/ontologies/OTRL#OTRL&#45;3&#45;&gt;http://www.w3.org/2002/07/owl#class</title>
<path fill="none" stroke="black" d="M502.7,-204.89C461.72,-213.22 399.3,-225.91 354.03,-235.11"/>
<polygon fill="black" stroke="black" points="353.17,-231.72 344.07,-237.14 354.57,-238.58 353.17,-231.72"/>
<text text-anchor="middle" x="423.87" y="-223.8" font-family="Times,serif" font-size="14.00">a</text>
</g>
<!-- http://purl.org/oseg/ontologies/OTRL#OTRL&#45;3&#45;&gt;http://purl.org/oseg/ontologies/OTRL#OTRL -->
<g id="edge37" class="edge">
<title>http://purl.org/oseg/ontologies/OTRL#OTRL&#45;3&#45;&gt;http://purl.org/oseg/ontologies/OTRL#OTRL</title>
<path fill="none" stroke="black" d="M539.21,-212.74C528.87,-242.11 507.16,-303.77 494.82,-338.84"/>
<polygon fill="black" stroke="black" points="491.48,-337.79 491.46,-348.38 498.08,-340.11 491.48,-337.79"/>
</g>
<!-- http://purl.org/oseg/ontologies/OTRL#OTRL&#45;4 -->
<g id="node16" class="node">
<title>http://purl.org/oseg/ontologies/OTRL#OTRL&#45;4</title>
<ellipse fill="none" stroke="#e377c2" cx="336.89" cy="-476.56" rx="49.49" ry="16.03"/>
<text text-anchor="middle" x="336.89" y="-472.86" font-family="Times,serif" font-size="14.00">OTRL&#45;4</text>
</g>
<!-- http://purl.org/oseg/ontologies/OTRL#OTRL&#45;4&#45;&gt;http://www.w3.org/2002/07/owl#class -->
<g id="edge15" class="edge">
<title>http://purl.org/oseg/ontologies/OTRL#OTRL&#45;4&#45;&gt;http://www.w3.org/2002/07/owl#class</title>
<path fill="none" stroke="black" d="M334.05,-460.03C327.26,-420.59 310.06,-320.74 301.83,-272.93"/>
<polygon fill="black" stroke="black" points="305.27,-272.29 300.13,-263.03 298.37,-273.48 305.27,-272.29"/>
<text text-anchor="middle" x="313.44" y="-355.28" font-family="Times,serif" font-size="14.00">a</text>
</g>
<!-- http://purl.org/oseg/ontologies/OTRL#OTRL&#45;4&#45;&gt;http://purl.org/oseg/ontologies/OTRL#OTRL -->
<g id="edge30" class="edge">
<title>http://purl.org/oseg/ontologies/OTRL#OTRL&#45;4&#45;&gt;http://purl.org/oseg/ontologies/OTRL#OTRL</title>
<path fill="none" stroke="black" d="M356.97,-461.47C383.11,-441.81 428.93,-407.36 458.27,-385.3"/>
<polygon fill="black" stroke="black" points="460.56,-387.96 466.45,-379.15 456.35,-382.36 460.56,-387.96"/>
</g>
<!-- http://purl.org/oseg/ontologies/OTRL#ODRL&#45;4 -->
<g id="node17" class="node">
<title>http://purl.org/oseg/ontologies/OTRL#ODRL&#45;4</title>
<ellipse fill="none" stroke="#e377c2" cx="265.76" cy="-16.51" rx="50.82" ry="16.03"/>
<text text-anchor="middle" x="265.76" y="-12.81" font-family="Times,serif" font-size="14.00">ODRL&#45;4</text>
</g>
<!-- http://purl.org/oseg/ontologies/OTRL#ODRL&#45;4&#45;&gt;http://www.w3.org/2002/07/owl#class -->
<g id="edge34" class="edge">
<title>http://purl.org/oseg/ontologies/OTRL#ODRL&#45;4&#45;&gt;http://www.w3.org/2002/07/owl#class</title>
<path fill="none" stroke="black" d="M268.03,-33.06C273.44,-72.54 287.14,-172.48 293.7,-220.33"/>
<polygon fill="black" stroke="black" points="290.23,-220.81 295.06,-230.24 297.17,-219.86 290.23,-220.81"/>
<text text-anchor="middle" x="276.36" y="-130.5" font-family="Times,serif" font-size="14.00">a</text>
</g>
<!-- http://purl.org/oseg/ontologies/OTRL#ODRL&#45;4&#45;&gt;http://purl.org/oseg/ontologies/OTRL#ODRL -->
<g id="edge33" class="edge">
<title>http://purl.org/oseg/ontologies/OTRL#ODRL&#45;4&#45;&gt;http://purl.org/oseg/ontologies/OTRL#ODRL</title>
<path fill="none" stroke="black" d="M256.36,-32.59C241.65,-57.75 213.08,-106.63 195.64,-136.47"/>
<polygon fill="black" stroke="black" points="192.43,-135.03 190.41,-145.43 198.47,-138.56 192.43,-135.03"/>
</g>
<!-- http://purl.org/oseg/ontologies/OTRL#OTRL&#45;9 -->
<g id="node18" class="node">
<title>http://purl.org/oseg/ontologies/OTRL#OTRL&#45;9</title>
<ellipse fill="none" stroke="#e377c2" cx="475.88" cy="-148.92" rx="49.49" ry="16.03"/>
<text text-anchor="middle" x="475.88" y="-145.22" font-family="Times,serif" font-size="14.00">OTRL&#45;9</text>
</g>
<!-- http://purl.org/oseg/ontologies/OTRL#OTRL&#45;9&#45;&gt;http://www.w3.org/2002/07/owl#class -->
<g id="edge35" class="edge">
<title>http://purl.org/oseg/ontologies/OTRL#OTRL&#45;9&#45;&gt;http://www.w3.org/2002/07/owl#class</title>
<path fill="none" stroke="black" d="M450.29,-162.92C419.4,-179.83 367.27,-208.36 332.57,-227.34"/>
<polygon fill="black" stroke="black" points="330.81,-224.32 323.71,-232.19 334.17,-230.46 330.81,-224.32"/>
<text text-anchor="middle" x="386.93" y="-198.93" font-family="Times,serif" font-size="14.00">a</text>
</g>
<!-- http://purl.org/oseg/ontologies/OTRL#OTRL&#45;9&#45;&gt;http://purl.org/oseg/ontologies/OTRL#OTRL -->
<g id="edge40" class="edge">
<title>http://purl.org/oseg/ontologies/OTRL#OTRL&#45;9&#45;&gt;http://purl.org/oseg/ontologies/OTRL#OTRL</title>
<path fill="none" stroke="black" d="M476.64,-165.49C478.33,-202.68 482.46,-293.05 484.52,-338.15"/>
<polygon fill="black" stroke="black" points="481.03,-338.49 484.99,-348.32 488.03,-338.17 481.03,-338.49"/>
</g>
<!-- http://purl.org/oseg/ontologies/OTRL#OTRL&#45;8 -->
<g id="node19" class="node">
<title>http://purl.org/oseg/ontologies/OTRL#OTRL&#45;8</title>
<ellipse fill="none" stroke="#e377c2" cx="261.27" cy="-428.74" rx="49.49" ry="16.03"/>
<text text-anchor="middle" x="261.27" y="-425.04" font-family="Times,serif" font-size="14.00">OTRL&#45;8</text>
</g>
<!-- http://purl.org/oseg/ontologies/OTRL#OTRL&#45;8&#45;&gt;http://www.w3.org/2002/07/owl#class -->
<g id="edge18" class="edge">
<title>http://purl.org/oseg/ontologies/OTRL#OTRL&#45;8&#45;&gt;http://www.w3.org/2002/07/owl#class</title>
<path fill="none" stroke="black" d="M264.53,-412.26C270.8,-380.57 284.59,-310.91 292.13,-272.81"/>
<polygon fill="black" stroke="black" points="295.57,-273.45 294.08,-262.96 288.7,-272.09 295.57,-273.45"/>
<text text-anchor="middle" x="273.83" y="-346.34" font-family="Times,serif" font-size="14.00">a</text>
</g>
<!-- http://purl.org/oseg/ontologies/OTRL#OTRL&#45;8&#45;&gt;http://purl.org/oseg/ontologies/OTRL#OTRL -->
<g id="edge5" class="edge">
<title>http://purl.org/oseg/ontologies/OTRL#OTRL&#45;8&#45;&gt;http://purl.org/oseg/ontologies/OTRL#OTRL</title>
<path fill="none" stroke="black" d="M298.84,-418.02C338.73,-406.63 401.66,-388.66 443.31,-376.77"/>
<polygon fill="black" stroke="black" points="444.5,-380.07 453.15,-373.96 442.57,-373.34 444.5,-380.07"/>
</g>
<!-- http://purl.org/oseg/ontologies/OTRL#documentationDescription -->
<g id="node20" class="node">
<title>http://purl.org/oseg/ontologies/OTRL#documentationDescription</title>
<ellipse fill="none" stroke="#e377c2" cx="703.8" cy="-567.21" rx="120.83" ry="16.03"/>
<text text-anchor="middle" x="703.8" y="-563.51" font-family="Times,serif" font-size="14.00">documentationDesc...</text>
</g>
<!-- http://purl.org/oseg/ontologies/OTRL#documentationDescription&#45;&gt;http://purl.org/oseg/ontologies/OTRL#OTRL -->
<g id="edge17" class="edge">
<title>http://purl.org/oseg/ontologies/OTRL#documentationDescription&#45;&gt;http://purl.org/oseg/ontologies/OTRL#OTRL</title>
<path fill="none" stroke="black" d="M686.32,-550.97C647.32,-514.75 553.19,-427.31 509.17,-386.42"/>
<polygon fill="black" stroke="black" points="511.51,-383.82 501.8,-379.58 506.75,-388.95 511.51,-383.82"/>
<text text-anchor="middle" x="571.24" y="-472.5" font-family="Times,serif" font-size="14.00">domain</text>
</g>
<!-- http://purl.org/oseg/ontologies/OTRL#documentationDescription&#45;&gt;http://schema.org/Text -->
<g id="edge8" class="edge">
<title>http://purl.org/oseg/ontologies/OTRL#documentationDescription&#45;&gt;http://schema.org/Text</title>
<path fill="none" stroke="black" d="M755.29,-552.38C774.05,-546.98 795.33,-540.86 814.38,-535.38"/>
<polygon fill="black" stroke="black" points="815.48,-538.7 824.12,-532.57 813.54,-531.98 815.48,-538.7"/>
<text text-anchor="middle" x="763.84" y="-532.68" font-family="Times,serif" font-size="14.00">range</text>
</g>
<!-- http://purl.org/oseg/ontologies/OTRL#softwareDescription -->
<g id="node21" class="node">
<title>http://purl.org/oseg/ontologies/OTRL#softwareDescription</title>
<ellipse fill="none" stroke="#e377c2" cx="613.36" cy="-625.37" rx="113.69" ry="16.03"/>
<text text-anchor="middle" x="613.36" y="-621.67" font-family="Times,serif" font-size="14.00">softwareDescription</text>
</g>
<!-- http://purl.org/oseg/ontologies/OTRL#softwareDescription&#45;&gt;http://purl.org/oseg/ontologies/OTRL#OTRL -->
<g id="edge28" class="edge">
<title>http://purl.org/oseg/ontologies/OTRL#softwareDescription&#45;&gt;http://purl.org/oseg/ontologies/OTRL#OTRL</title>
<path fill="none" stroke="black" d="M605.38,-609.06C583.75,-564.88 523.91,-442.65 497.98,-389.67"/>
<polygon fill="black" stroke="black" points="501.09,-388.07 493.55,-380.62 494.8,-391.14 501.09,-388.07"/>
<text text-anchor="middle" x="525.18" y="-503.17" font-family="Times,serif" font-size="14.00">domain</text>
</g>
<!-- http://purl.org/oseg/ontologies/OTRL#softwareDescription&#45;&gt;http://schema.org/Text -->
<g id="edge4" class="edge">
<title>http://purl.org/oseg/ontologies/OTRL#softwareDescription&#45;&gt;http://schema.org/Text</title>
<path fill="none" stroke="black" d="M650.59,-609.98C696.76,-590.9 775.37,-558.41 824.73,-538"/>
<polygon fill="black" stroke="black" points="826.3,-541.15 834.2,-534.09 823.62,-534.68 826.3,-541.15"/>
<text text-anchor="middle" x="716.66" y="-577.79" font-family="Times,serif" font-size="14.00">range</text>
</g>
<!-- http://purl.org/oseg/ontologies/OTRL#OTRL&#45;2 -->
<g id="node22" class="node">
<title>http://purl.org/oseg/ontologies/OTRL#OTRL&#45;2</title>
<ellipse fill="none" stroke="#e377c2" cx="396.16" cy="-192.57" rx="49.49" ry="16.03"/>
<text text-anchor="middle" x="396.16" y="-188.87" font-family="Times,serif" font-size="14.00">OTRL&#45;2</text>
</g>
<!-- http://purl.org/oseg/ontologies/OTRL#OTRL&#45;2&#45;&gt;http://www.w3.org/2002/07/owl#class -->
<g id="edge21" class="edge">
<title>http://purl.org/oseg/ontologies/OTRL#OTRL&#45;2&#45;&gt;http://www.w3.org/2002/07/owl#class</title>
<path fill="none" stroke="black" d="M370.45,-206.64C358.94,-212.93 345.18,-220.46 332.72,-227.27"/>
<polygon fill="black" stroke="black" points="331.02,-224.21 323.93,-232.08 334.38,-230.35 331.02,-224.21"/>
<text text-anchor="middle" x="356.08" y="-220.75" font-family="Times,serif" font-size="14.00">a</text>
</g>
<!-- http://purl.org/oseg/ontologies/OTRL#OTRL&#45;2&#45;&gt;http://purl.org/oseg/ontologies/OTRL#OTRL -->
<g id="edge10" class="edge">
<title>http://purl.org/oseg/ontologies/OTRL#OTRL&#45;2&#45;&gt;http://purl.org/oseg/ontologies/OTRL#OTRL</title>
<path fill="none" stroke="black" d="M404.59,-208.76C420.26,-238.87 453.98,-303.66 472.64,-339.51"/>
<polygon fill="black" stroke="black" points="469.54,-341.13 477.26,-348.38 475.75,-337.89 469.54,-341.13"/>
</g>
<!-- http://purl.org/oseg/ontologies/OTRL#OTRL&#45;6 -->
<g id="node23" class="node">
<title>http://purl.org/oseg/ontologies/OTRL#OTRL&#45;6</title>
<ellipse fill="none" stroke="#e377c2" cx="342.71" cy="-381.02" rx="49.49" ry="16.03"/>
<text text-anchor="middle" x="342.71" y="-377.32" font-family="Times,serif" font-size="14.00">OTRL&#45;6</text>
</g>
<!-- http://purl.org/oseg/ontologies/OTRL#OTRL&#45;6&#45;&gt;http://www.w3.org/2002/07/owl#class -->
<g id="edge22" class="edge">
<title>http://purl.org/oseg/ontologies/OTRL#OTRL&#45;6&#45;&gt;http://www.w3.org/2002/07/owl#class</title>
<path fill="none" stroke="black" d="M337.23,-364.81C329.49,-341.91 315.28,-299.83 306.06,-272.57"/>
<polygon fill="black" stroke="black" points="309.32,-271.26 302.8,-262.91 302.69,-273.5 309.32,-271.26"/>
<text text-anchor="middle" x="317.15" y="-322.49" font-family="Times,serif" font-size="14.00">a</text>
</g>
<!-- http://purl.org/oseg/ontologies/OTRL#OTRL&#45;6&#45;&gt;http://purl.org/oseg/ontologies/OTRL#OTRL -->
<g id="edge12" class="edge">
<title>http://purl.org/oseg/ontologies/OTRL#OTRL&#45;6&#45;&gt;http://purl.org/oseg/ontologies/OTRL#OTRL</title>
<path fill="none" stroke="black" d="M389.54,-375.66C404.76,-373.92 421.69,-371.98 437.05,-370.22"/>
<polygon fill="black" stroke="black" points="437.85,-373.65 447.39,-369.04 437.05,-366.7 437.85,-373.65"/>
</g>
<!-- http://purl.org/oseg/ontologies/OTRL#OTRL&#45;5 -->
<g id="node24" class="node">
<title>http://purl.org/oseg/ontologies/OTRL#OTRL&#45;5</title>
<ellipse fill="none" stroke="#e377c2" cx="436.6" cy="-434.34" rx="49.49" ry="16.03"/>
<text text-anchor="middle" x="436.6" y="-430.64" font-family="Times,serif" font-size="14.00">OTRL&#45;5</text>
</g>
<!-- http://purl.org/oseg/ontologies/OTRL#OTRL&#45;5&#45;&gt;http://www.w3.org/2002/07/owl#class -->
<g id="edge23" class="edge">
<title>http://purl.org/oseg/ontologies/OTRL#OTRL&#45;5&#45;&gt;http://www.w3.org/2002/07/owl#class</title>
<path fill="none" stroke="black" d="M424.73,-418.34C400.26,-385.37 344.11,-309.72 315.21,-270.78"/>
<polygon fill="black" stroke="black" points="317.92,-268.55 309.15,-262.61 312.3,-272.72 317.92,-268.55"/>
<text text-anchor="middle" x="365.47" y="-348.36" font-family="Times,serif" font-size="14.00">a</text>
</g>
<!-- http://purl.org/oseg/ontologies/OTRL#OTRL&#45;5&#45;&gt;http://purl.org/oseg/ontologies/OTRL#OTRL -->
<g id="edge19" class="edge">
<title>http://purl.org/oseg/ontologies/OTRL#OTRL&#45;5&#45;&gt;http://purl.org/oseg/ontologies/OTRL#OTRL</title>
<path fill="none" stroke="black" d="M448,-418.18C454.07,-409.56 461.68,-398.77 468.46,-389.15"/>
<polygon fill="black" stroke="black" points="471.5,-390.92 474.4,-380.73 465.78,-386.88 471.5,-390.92"/>
</g>
</g>
</svg>
