<?xml version="1.0" encoding="UTF-8" standalone="no"?>
<!DOCTYPE svg PUBLIC "-//W3C//DTD SVG 1.1//EN"
 "http://www.w3.org/Graphics/SVG/1.1/DTD/svg11.dtd">
<!-- Generated by graphviz version 2.43.0 (0)
 -->
<!-- Title: G Pages: 1 -->
<svg width="595pt" height="477pt"
 viewBox="0.00 0.00 595.00 477.00" xmlns="http://www.w3.org/2000/svg" xmlns:xlink="http://www.w3.org/1999/xlink">
<g id="graph0" class="graph" transform="scale(1 1) rotate(0) translate(4 473)">
<title>G</title>
<polygon fill="white" stroke="transparent" points="-4,4 -4,-473 591,-473 591,4 -4,4"/>
<!-- http://purl.org/oseg/ontologies/OTRL#OTRL -->
<g id="node1" class="node">
<title>http://purl.org/oseg/ontologies/OTRL#OTRL</title>
<ellipse fill="none" stroke="#e377c2" cx="89.75" cy="-192.61" rx="39.7" ry="16.03"/>
<text text-anchor="middle" x="89.75" y="-188.91" font-family="Times,serif" font-size="14.00">OTRL</text>
</g>
<!-- http://www.w3.org/2002/07/owl#class -->
<g id="node2" class="node">
<title>http://www.w3.org/2002/07/owl#class</title>
<ellipse fill="none" stroke="#1f77b4" cx="221.58" cy="-186.89" rx="57.05" ry="16.03"/>
<text text-anchor="middle" x="221.58" y="-183.19" font-family="Times,serif" font-size="14.00">owl:class</text>
</g>
<!-- http://purl.org/oseg/ontologies/OTRL#OTRL&#45;&gt;http://www.w3.org/2002/07/owl#class -->
<g id="edge3" class="edge">
<title>http://purl.org/oseg/ontologies/OTRL#OTRL&#45;&gt;http://www.w3.org/2002/07/owl#class</title>
<path fill="none" stroke="black" d="M129.31,-190.89C137.26,-190.55 145.84,-190.18 154.44,-189.8"/>
<polygon fill="black" stroke="black" points="154.67,-193.3 164.51,-189.37 154.37,-186.3 154.67,-193.3"/>
<text text-anchor="middle" x="137.37" y="-194.15" font-family="Times,serif" font-size="14.00">a</text>
</g>
<!-- http://purl.org/oseg/ontologies/OTRL#ODRL -->
<g id="node3" class="node">
<title>http://purl.org/oseg/ontologies/OTRL#ODRL</title>
<ellipse fill="none" stroke="#e377c2" cx="428.66" cy="-242.85" rx="41.94" ry="16.03"/>
<text text-anchor="middle" x="428.66" y="-239.15" font-family="Times,serif" font-size="14.00">ODRL</text>
</g>
<!-- http://purl.org/oseg/ontologies/OTRL -->
<g id="node4" class="node">
<title>http://purl.org/oseg/ontologies/OTRL</title>
<ellipse fill="none" stroke="#e377c2" cx="391.24" cy="-38.64" rx="60.62" ry="16.03"/>
<text text-anchor="middle" x="391.24" y="-34.94" font-family="Times,serif" font-size="14.00">ns1:OTRL</text>
</g>
<!-- http://purl.org/oseg/ontologies/OTRL&#45;&gt;http://purl.org/oseg/ontologies/OTRL -->
<g id="edge1" class="edge">
<title>http://purl.org/oseg/ontologies/OTRL&#45;&gt;http://purl.org/oseg/ontologies/OTRL</title>
<path fill="none" stroke="black" d="M446.84,-45.27C460.17,-44.75 470.05,-42.54 470.05,-38.64 470.05,-35.81 464.83,-33.86 456.87,-32.81"/>
<polygon fill="black" stroke="black" points="457.09,-29.32 446.84,-32.01 456.53,-36.3 457.09,-29.32"/>
<text text-anchor="middle" x="521.55" y="-34.94" font-family="Times,serif" font-size="14.00">owl:versionIRI</text>
</g>
<!-- http://schema.org/Text -->
<g id="node5" class="node">
<title>http://schema.org/Text</title>
<ellipse fill="none" stroke="#e377c2" cx="493.17" cy="-412.42" rx="74.91" ry="16.03"/>
<text text-anchor="middle" x="493.17" y="-408.72" font-family="Times,serif" font-size="14.00">schema:Text</text>
</g>
<!-- http://purl.org/oseg/ontologies/OTRL#Odrl3 -->
<g id="node6" class="node">
<title>http://purl.org/oseg/ontologies/OTRL#Odrl3</title>
<ellipse fill="none" stroke="#e377c2" cx="359.06" cy="-293.24" rx="40.11" ry="16.03"/>
<text text-anchor="middle" x="359.06" y="-289.54" font-family="Times,serif" font-size="14.00">Odrl3</text>
</g>
<!-- http://purl.org/oseg/ontologies/OTRL#Odrl3&#45;&gt;http://www.w3.org/2002/07/owl#class -->
<g id="edge2" class="edge">
<title>http://purl.org/oseg/ontologies/OTRL#Odrl3&#45;&gt;http://www.w3.org/2002/07/owl#class</title>
<path fill="none" stroke="black" d="M340.23,-278.67C316.77,-260.53 276.49,-229.36 249.45,-208.45"/>
<polygon fill="black" stroke="black" points="251.57,-205.66 241.52,-202.31 247.29,-211.2 251.57,-205.66"/>
<text text-anchor="middle" x="290.34" y="-247.36" font-family="Times,serif" font-size="14.00">a</text>
</g>
<!-- http://purl.org/oseg/ontologies/OTRL#Odrl3&#45;&gt;http://purl.org/oseg/ontologies/OTRL#ODRL -->
<g id="edge23" class="edge">
<title>http://purl.org/oseg/ontologies/OTRL#Odrl3&#45;&gt;http://purl.org/oseg/ontologies/OTRL#ODRL</title>
<path fill="none" stroke="black" d="M378.82,-278.93C385.52,-274.08 393.14,-268.56 400.38,-263.32"/>
<polygon fill="black" stroke="black" points="402.56,-266.06 408.61,-257.36 398.46,-260.39 402.56,-266.06"/>
</g>
<!-- http://www.w3.org/1999/02/22&#45;rdf&#45;syntax&#45;ns#nil -->
<g id="node7" class="node">
<title>http://www.w3.org/1999/02/22&#45;rdf&#45;syntax&#45;ns#nil</title>
<ellipse fill="none" stroke="#e377c2" cx="482.24" cy="-302.64" rx="42.35" ry="16.03"/>
<text text-anchor="middle" x="482.24" y="-298.94" font-family="Times,serif" font-size="14.00">rdf:nil</text>
</g>
<!-- http://purl.org/oseg/ontologies/OTRL#Otrl2 -->
<g id="node8" class="node">
<title>http://purl.org/oseg/ontologies/OTRL#Otrl2</title>
<ellipse fill="none" stroke="#e377c2" cx="57.56" cy="-280.3" rx="38.37" ry="16.03"/>
<text text-anchor="middle" x="57.56" y="-276.6" font-family="Times,serif" font-size="14.00">Otrl2</text>
</g>
<!-- http://purl.org/oseg/ontologies/OTRL#Otrl2&#45;&gt;http://purl.org/oseg/ontologies/OTRL#OTRL -->
<g id="edge19" class="edge">
<title>http://purl.org/oseg/ontologies/OTRL#Otrl2&#45;&gt;http://purl.org/oseg/ontologies/OTRL#OTRL</title>
<path fill="none" stroke="black" d="M63.46,-264.22C68.15,-251.44 74.8,-233.33 80.24,-218.51"/>
<polygon fill="black" stroke="black" points="83.61,-219.48 83.78,-208.89 77.04,-217.07 83.61,-219.48"/>
</g>
<!-- http://purl.org/oseg/ontologies/OTRL#Otrl2&#45;&gt;http://www.w3.org/2002/07/owl#class -->
<g id="edge13" class="edge">
<title>http://purl.org/oseg/ontologies/OTRL#Otrl2&#45;&gt;http://www.w3.org/2002/07/owl#class</title>
<path fill="none" stroke="black" d="M80.71,-267.12C108.36,-251.37 154.87,-224.88 186.84,-206.68"/>
<polygon fill="black" stroke="black" points="188.89,-209.54 195.85,-201.55 185.42,-203.45 188.89,-209.54"/>
<text text-anchor="middle" x="129.27" y="-240.7" font-family="Times,serif" font-size="14.00">a</text>
</g>
<!-- http://purl.org/oseg/ontologies/OTRL#Odrl2 -->
<g id="node9" class="node">
<title>http://purl.org/oseg/ontologies/OTRL#Odrl2</title>
<ellipse fill="none" stroke="#e377c2" cx="298.33" cy="-341.97" rx="40.11" ry="16.03"/>
<text text-anchor="middle" x="298.33" y="-338.27" font-family="Times,serif" font-size="14.00">Odrl2</text>
</g>
<!-- http://purl.org/oseg/ontologies/OTRL#Odrl2&#45;&gt;http://www.w3.org/2002/07/owl#class -->
<g id="edge14" class="edge">
<title>http://purl.org/oseg/ontologies/OTRL#Odrl2&#45;&gt;http://www.w3.org/2002/07/owl#class</title>
<path fill="none" stroke="black" d="M290.4,-325.96C277.08,-299.03 250.07,-244.46 234.14,-212.26"/>
<polygon fill="black" stroke="black" points="237.15,-210.46 229.58,-203.05 230.88,-213.56 237.15,-210.46"/>
<text text-anchor="middle" x="257.77" y="-272.91" font-family="Times,serif" font-size="14.00">a</text>
</g>
<!-- http://purl.org/oseg/ontologies/OTRL#Odrl2&#45;&gt;http://purl.org/oseg/ontologies/OTRL#ODRL -->
<g id="edge12" class="edge">
<title>http://purl.org/oseg/ontologies/OTRL#Odrl2&#45;&gt;http://purl.org/oseg/ontologies/OTRL#ODRL</title>
<path fill="none" stroke="black" d="M317.28,-327.55C339.35,-310.77 376,-282.89 401.2,-263.73"/>
<polygon fill="black" stroke="black" points="403.42,-266.44 409.26,-257.6 399.18,-260.87 403.42,-266.44"/>
</g>
<!-- http://purl.org/oseg/ontologies/OTRL#goal -->
<g id="node10" class="node">
<title>http://purl.org/oseg/ontologies/OTRL#goal</title>
<ellipse fill="none" stroke="#e377c2" cx="553.4" cy="-452.99" rx="33.47" ry="16.03"/>
<text text-anchor="middle" x="553.4" y="-449.29" font-family="Times,serif" font-size="14.00">goal</text>
</g>
<!-- http://purl.org/oseg/ontologies/OTRL#goal&#45;&gt;http://schema.org/Text -->
<g id="edge10" class="edge">
<title>http://purl.org/oseg/ontologies/OTRL#goal&#45;&gt;http://schema.org/Text</title>
<path fill="none" stroke="black" d="M533.68,-439.71C530.85,-437.8 527.88,-435.8 524.89,-433.79"/>
<polygon fill="black" stroke="black" points="526.75,-430.82 516.5,-428.14 522.84,-436.63 526.75,-430.82"/>
<text text-anchor="middle" x="508.28" y="-440.55" font-family="Times,serif" font-size="14.00">range</text>
</g>
<!-- http://purl.org/oseg/ontologies/OTRL#Odrl -->
<g id="node11" class="node">
<title>http://purl.org/oseg/ontologies/OTRL#Odrl</title>
<ellipse fill="none" stroke="#e377c2" cx="248.63" cy="-16.37" rx="33.88" ry="16.03"/>
<text text-anchor="middle" x="248.63" y="-12.67" font-family="Times,serif" font-size="14.00">Odrl</text>
</g>
<!-- http://purl.org/oseg/ontologies/OTRL#Odrl&#45;&gt;http://www.w3.org/2002/07/owl#class -->
<g id="edge9" class="edge">
<title>http://purl.org/oseg/ontologies/OTRL#Odrl&#45;&gt;http://www.w3.org/2002/07/owl#class</title>
<path fill="none" stroke="black" d="M246.04,-32.72C241.35,-62.26 231.44,-124.75 225.78,-160.44"/>
<polygon fill="black" stroke="black" points="222.28,-160.16 224.17,-170.59 229.19,-161.26 222.28,-160.16"/>
<text text-anchor="middle" x="231.41" y="-100.38" font-family="Times,serif" font-size="14.00">a</text>
</g>
<!-- http://purl.org/oseg/ontologies/OTRL#Odrl4 -->
<g id="node12" class="node">
<title>http://purl.org/oseg/ontologies/OTRL#Odrl4</title>
<ellipse fill="none" stroke="#e377c2" cx="346.11" cy="-153.26" rx="40.11" ry="16.03"/>
<text text-anchor="middle" x="346.11" y="-149.56" font-family="Times,serif" font-size="14.00">Odrl4</text>
</g>
<!-- http://purl.org/oseg/ontologies/OTRL#Odrl4&#45;&gt;http://www.w3.org/2002/07/owl#class -->
<g id="edge17" class="edge">
<title>http://purl.org/oseg/ontologies/OTRL#Odrl4&#45;&gt;http://www.w3.org/2002/07/owl#class</title>
<path fill="none" stroke="black" d="M312.41,-162.36C300.36,-165.62 286.48,-169.37 273.26,-172.94"/>
<polygon fill="black" stroke="black" points="272.06,-169.63 263.32,-175.62 273.88,-176.39 272.06,-169.63"/>
<text text-anchor="middle" x="288.33" y="-171.45" font-family="Times,serif" font-size="14.00">a</text>
</g>
<!-- http://purl.org/oseg/ontologies/OTRL#Odrl4&#45;&gt;http://purl.org/oseg/ontologies/OTRL#ODRL -->
<g id="edge8" class="edge">
<title>http://purl.org/oseg/ontologies/OTRL#Odrl4&#45;&gt;http://purl.org/oseg/ontologies/OTRL#ODRL</title>
<path fill="none" stroke="black" d="M360.49,-168.87C373.51,-183 392.86,-203.99 407.62,-220.01"/>
<polygon fill="black" stroke="black" points="405.1,-222.44 414.45,-227.42 410.24,-217.69 405.1,-222.44"/>
</g>
<!-- http://purl.org/oseg/ontologies/OTRL#Otrl1 -->
<g id="node13" class="node">
<title>http://purl.org/oseg/ontologies/OTRL#Otrl1</title>
<ellipse fill="none" stroke="#e377c2" cx="73.09" cy="-73.75" rx="38.37" ry="16.03"/>
<text text-anchor="middle" x="73.09" y="-70.05" font-family="Times,serif" font-size="14.00">Otrl1</text>
</g>
<!-- http://purl.org/oseg/ontologies/OTRL#Otrl1&#45;&gt;http://purl.org/oseg/ontologies/OTRL#OTRL -->
<g id="edge6" class="edge">
<title>http://purl.org/oseg/ontologies/OTRL#Otrl1&#45;&gt;http://purl.org/oseg/ontologies/OTRL#OTRL</title>
<path fill="none" stroke="black" d="M75.41,-90.27C78.16,-109.88 82.77,-142.82 86.03,-166.02"/>
<polygon fill="black" stroke="black" points="82.6,-166.8 87.46,-176.22 89.53,-165.83 82.6,-166.8"/>
</g>
<!-- http://purl.org/oseg/ontologies/OTRL#Otrl1&#45;&gt;http://www.w3.org/2002/07/owl#class -->
<g id="edge4" class="edge">
<title>http://purl.org/oseg/ontologies/OTRL#Otrl1&#45;&gt;http://www.w3.org/2002/07/owl#class</title>
<path fill="none" stroke="black" d="M91.9,-88.08C117.47,-107.56 163.42,-142.57 193.2,-165.26"/>
<polygon fill="black" stroke="black" points="191.43,-168.32 201.51,-171.59 195.68,-162.75 191.43,-168.32"/>
<text text-anchor="middle" x="138.05" y="-130.47" font-family="Times,serif" font-size="14.00">a</text>
</g>
<!-- http://purl.org/oseg/ontologies/OTRL#Otrl4 -->
<g id="node14" class="node">
<title>http://purl.org/oseg/ontologies/OTRL#Otrl4</title>
<ellipse fill="none" stroke="#e377c2" cx="159.31" cy="-63.37" rx="38.37" ry="16.03"/>
<text text-anchor="middle" x="159.31" y="-59.67" font-family="Times,serif" font-size="14.00">Otrl4</text>
</g>
<!-- http://purl.org/oseg/ontologies/OTRL#Otrl4&#45;&gt;http://purl.org/oseg/ontologies/OTRL#OTRL -->
<g id="edge11" class="edge">
<title>http://purl.org/oseg/ontologies/OTRL#Otrl4&#45;&gt;http://purl.org/oseg/ontologies/OTRL#OTRL</title>
<path fill="none" stroke="black" d="M150.65,-79.48C138.71,-101.66 117.1,-141.8 103.1,-167.82"/>
<polygon fill="black" stroke="black" points="99.97,-166.24 98.31,-176.7 106.13,-169.56 99.97,-166.24"/>
</g>
<!-- http://purl.org/oseg/ontologies/OTRL#Otrl4&#45;&gt;http://www.w3.org/2002/07/owl#class -->
<g id="edge5" class="edge">
<title>http://purl.org/oseg/ontologies/OTRL#Otrl4&#45;&gt;http://www.w3.org/2002/07/owl#class</title>
<path fill="none" stroke="black" d="M167.45,-79.52C177.99,-100.42 196.46,-137.06 208.86,-161.65"/>
<polygon fill="black" stroke="black" points="205.81,-163.38 213.44,-170.74 212.06,-160.23 205.81,-163.38"/>
<text text-anchor="middle" x="183.66" y="-124.38" font-family="Times,serif" font-size="14.00">a</text>
</g>
<!-- http://purl.org/oseg/ontologies/OTRL#Otrl -->
<g id="node15" class="node">
<title>http://purl.org/oseg/ontologies/OTRL#Otrl</title>
<ellipse fill="none" stroke="#e377c2" cx="186.24" cy="-390.64" rx="31.64" ry="16.03"/>
<text text-anchor="middle" x="186.24" y="-386.94" font-family="Times,serif" font-size="14.00">Otrl</text>
</g>
<!-- http://purl.org/oseg/ontologies/OTRL#Odrl1 -->
<g id="node16" class="node">
<title>http://purl.org/oseg/ontologies/OTRL#Odrl1</title>
<ellipse fill="none" stroke="#e377c2" cx="378.99" cy="-106.74" rx="40.11" ry="16.03"/>
<text text-anchor="middle" x="378.99" y="-103.04" font-family="Times,serif" font-size="14.00">Odrl1</text>
</g>
<!-- http://purl.org/oseg/ontologies/OTRL#Odrl1&#45;&gt;http://www.w3.org/2002/07/owl#class -->
<g id="edge20" class="edge">
<title>http://purl.org/oseg/ontologies/OTRL#Odrl1&#45;&gt;http://www.w3.org/2002/07/owl#class</title>
<path fill="none" stroke="black" d="M353.7,-119.62C328.05,-132.68 288.09,-153.03 258.83,-167.93"/>
<polygon fill="black" stroke="black" points="257.06,-164.9 249.73,-172.56 260.23,-171.14 257.06,-164.9"/>
<text text-anchor="middle" x="301.76" y="-132.57" font-family="Times,serif" font-size="14.00">a</text>
</g>
<!-- http://purl.org/oseg/ontologies/OTRL#Odrl1&#45;&gt;http://purl.org/oseg/ontologies/OTRL#ODRL -->
<g id="edge18" class="edge">
<title>http://purl.org/oseg/ontologies/OTRL#Odrl1&#45;&gt;http://purl.org/oseg/ontologies/OTRL#ODRL</title>
<path fill="none" stroke="black" d="M384.88,-122.89C393.39,-146.22 409.22,-189.58 419.33,-217.29"/>
<polygon fill="black" stroke="black" points="416.06,-218.53 422.78,-226.72 422.64,-216.12 416.06,-218.53"/>
</g>
<!-- http://purl.org/oseg/ontologies/OTRL#Otrl5 -->
<g id="node17" class="node">
<title>http://purl.org/oseg/ontologies/OTRL#Otrl5</title>
<ellipse fill="none" stroke="#e377c2" cx="38.59" cy="-149.71" rx="38.37" ry="16.03"/>
<text text-anchor="middle" x="38.59" y="-146.01" font-family="Times,serif" font-size="14.00">Otrl5</text>
</g>
<!-- http://purl.org/oseg/ontologies/OTRL#Otrl5&#45;&gt;http://purl.org/oseg/ontologies/OTRL#OTRL -->
<g id="edge25" class="edge">
<title>http://purl.org/oseg/ontologies/OTRL#Otrl5&#45;&gt;http://purl.org/oseg/ontologies/OTRL#OTRL</title>
<path fill="none" stroke="black" d="M55.91,-164.24C58.6,-166.49 61.43,-168.86 64.25,-171.23"/>
<polygon fill="black" stroke="black" points="62.19,-174.07 72.1,-177.81 66.68,-168.7 62.19,-174.07"/>
</g>
<!-- http://purl.org/oseg/ontologies/OTRL#Otrl5&#45;&gt;http://www.w3.org/2002/07/owl#class -->
<g id="edge21" class="edge">
<title>http://purl.org/oseg/ontologies/OTRL#Otrl5&#45;&gt;http://www.w3.org/2002/07/owl#class</title>
<path fill="none" stroke="black" d="M73.44,-156.79C99.25,-162.04 134.97,-169.29 164.86,-175.37"/>
<polygon fill="black" stroke="black" points="164.26,-178.82 174.76,-177.38 165.66,-171.96 164.26,-178.82"/>
<text text-anchor="middle" x="114.65" y="-154.88" font-family="Times,serif" font-size="14.00">a</text>
</g>
<!-- http://purl.org/oseg/ontologies/OTRL#exitCriteria -->
<g id="node18" class="node">
<title>http://purl.org/oseg/ontologies/OTRL#exitCriteria</title>
<ellipse fill="none" stroke="#e377c2" cx="489.21" cy="-368.22" rx="70.01" ry="16.03"/>
<text text-anchor="middle" x="489.21" y="-364.52" font-family="Times,serif" font-size="14.00">exitCriteria</text>
</g>
<!-- http://purl.org/oseg/ontologies/OTRL#exitCriteria&#45;&gt;http://schema.org/Text -->
<g id="edge15" class="edge">
<title>http://purl.org/oseg/ontologies/OTRL#exitCriteria&#45;&gt;http://schema.org/Text</title>
<path fill="none" stroke="black" d="M490.68,-384.68C490.72,-385.15 490.77,-385.62 490.81,-386.09"/>
<polygon fill="black" stroke="black" points="487.33,-386.45 491.71,-396.1 494.3,-385.82 487.33,-386.45"/>
<text text-anchor="middle" x="469.75" y="-389.19" font-family="Times,serif" font-size="14.00">range</text>
</g>
<!-- http://purl.org/oseg/ontologies/OTRL#Odrl3Star -->
<g id="node19" class="node">
<title>http://purl.org/oseg/ontologies/OTRL#Odrl3Star</title>
<ellipse fill="none" stroke="#e377c2" cx="430.82" cy="-200.13" rx="62.45" ry="16.03"/>
<text text-anchor="middle" x="430.82" y="-196.43" font-family="Times,serif" font-size="14.00">Odrl3Star</text>
</g>
<!-- http://purl.org/oseg/ontologies/OTRL#Odrl3Star&#45;&gt;http://www.w3.org/2002/07/owl#class -->
<g id="edge24" class="edge">
<title>http://purl.org/oseg/ontologies/OTRL#Odrl3Star&#45;&gt;http://www.w3.org/2002/07/owl#class</title>
<path fill="none" stroke="black" d="M370.3,-196.3C344.51,-194.67 314.35,-192.76 287.96,-191.09"/>
<polygon fill="black" stroke="black" points="287.87,-187.58 277.67,-190.44 287.42,-194.56 287.87,-187.58"/>
<text text-anchor="middle" x="324.63" y="-197.5" font-family="Times,serif" font-size="14.00">a</text>
</g>
<!-- http://purl.org/oseg/ontologies/OTRL#Odrl3Star&#45;&gt;http://purl.org/oseg/ontologies/OTRL#ODRL -->
<g id="edge22" class="edge">
<title>http://purl.org/oseg/ontologies/OTRL#Odrl3Star&#45;&gt;http://purl.org/oseg/ontologies/OTRL#ODRL</title>
<path fill="none" stroke="black" d="M429.99,-216.52C429.98,-216.63 429.98,-216.73 429.97,-216.83"/>
<polygon fill="black" stroke="black" points="426.49,-216.4 429.48,-226.57 433.48,-216.76 426.49,-216.4"/>
</g>
<!-- http://purl.org/oseg/ontologies/OTRL#Otrl3 -->
<g id="node20" class="node">
<title>http://purl.org/oseg/ontologies/OTRL#Otrl3</title>
<ellipse fill="none" stroke="#e377c2" cx="139.45" cy="-322.07" rx="38.37" ry="16.03"/>
<text text-anchor="middle" x="139.45" y="-318.37" font-family="Times,serif" font-size="14.00">Otrl3</text>
</g>
<!-- http://purl.org/oseg/ontologies/OTRL#Otrl3&#45;&gt;http://purl.org/oseg/ontologies/OTRL#OTRL -->
<g id="edge16" class="edge">
<title>http://purl.org/oseg/ontologies/OTRL#Otrl3&#45;&gt;http://purl.org/oseg/ontologies/OTRL#OTRL</title>
<path fill="none" stroke="black" d="M133.26,-305.93C124.85,-284.03 109.73,-244.64 99.71,-218.56"/>
<polygon fill="black" stroke="black" points="102.88,-217.03 96.02,-208.95 96.34,-219.54 102.88,-217.03"/>
</g>
<!-- http://purl.org/oseg/ontologies/OTRL#Otrl3&#45;&gt;http://www.w3.org/2002/07/owl#class -->
<g id="edge7" class="edge">
<title>http://purl.org/oseg/ontologies/OTRL#Otrl3&#45;&gt;http://www.w3.org/2002/07/owl#class</title>
<path fill="none" stroke="black" d="M149.04,-306.3C163.18,-283.02 189.77,-239.25 206.53,-211.66"/>
<polygon fill="black" stroke="black" points="209.61,-213.34 211.81,-202.98 203.62,-209.71 209.61,-213.34"/>
<text text-anchor="middle" x="173.28" y="-262.78" font-family="Times,serif" font-size="14.00">a</text>
</g>
</g>
</svg>
