<?xml version="1.0" encoding="UTF-8" standalone="no"?>
<!DOCTYPE svg PUBLIC "-//W3C//DTD SVG 1.1//EN"
 "http://www.w3.org/Graphics/SVG/1.1/DTD/svg11.dtd">
<!-- Generated by graphviz version 2.43.0 (0)
 -->
<!-- Title: G Pages: 1 -->
<svg width="936pt" height="832pt"
 viewBox="0.00 0.00 936.00 832.00" xmlns="http://www.w3.org/2000/svg" xmlns:xlink="http://www.w3.org/1999/xlink">
<g id="graph0" class="graph" transform="scale(1 1) rotate(0) translate(4 828)">
<title>G</title>
<polygon fill="white" stroke="transparent" points="-4,4 -4,-828 932,-828 932,4 -4,4"/>
<!-- http://purl.org/oseg/ontologies/OTRL#ODRL -->
<g id="node1" class="node">
<title>http://purl.org/oseg/ontologies/OTRL#ODRL</title>
<ellipse fill="none" stroke="#e377c2" cx="171.21" cy="-144.16" rx="41.94" ry="16.03"/>
<text text-anchor="middle" x="171.21" y="-140.46" font-family="Times,serif" font-size="14.00">ODRL</text>
</g>
<!-- http://www.w3.org/2002/07/owl#class -->
<g id="node3" class="node">
<title>http://www.w3.org/2002/07/owl#class</title>
<ellipse fill="none" stroke="#1f77b4" cx="291" cy="-273.03" rx="57.05" ry="16.03"/>
<text text-anchor="middle" x="291" y="-269.33" font-family="Times,serif" font-size="14.00">owl:class</text>
</g>
<!-- http://purl.org/oseg/ontologies/OTRL#ODRL&#45;&gt;http://www.w3.org/2002/07/owl#class -->
<g id="edge16" class="edge">
<title>http://purl.org/oseg/ontologies/OTRL#ODRL&#45;&gt;http://www.w3.org/2002/07/owl#class</title>
<path fill="none" stroke="black" d="M185.66,-159.71C206.41,-182.03 244.83,-223.35 269.09,-249.45"/>
<polygon fill="black" stroke="black" points="266.76,-252.08 276.13,-257.03 271.88,-247.32 266.76,-252.08"/>
<text text-anchor="middle" x="222.87" y="-208.38" font-family="Times,serif" font-size="14.00">a</text>
</g>
<!-- http://purl.org/oseg/ontologies/OTRL#OTRL -->
<g id="node2" class="node">
<title>http://purl.org/oseg/ontologies/OTRL#OTRL</title>
<ellipse fill="none" stroke="#e377c2" cx="499.4" cy="-453.29" rx="39.7" ry="16.03"/>
<text text-anchor="middle" x="499.4" y="-449.59" font-family="Times,serif" font-size="14.00">OTRL</text>
</g>
<!-- http://purl.org/oseg/ontologies/OTRL#OTRL&#45;&gt;http://www.w3.org/2002/07/owl#class -->
<g id="edge39" class="edge">
<title>http://purl.org/oseg/ontologies/OTRL#OTRL&#45;&gt;http://www.w3.org/2002/07/owl#class</title>
<path fill="none" stroke="black" d="M482.35,-438.54C445.82,-406.94 359.84,-332.57 316.67,-295.23"/>
<polygon fill="black" stroke="black" points="318.74,-292.39 308.89,-288.5 314.16,-297.68 318.74,-292.39"/>
<text text-anchor="middle" x="395.01" y="-355.68" font-family="Times,serif" font-size="14.00">a</text>
</g>
<!-- http://schema.org/Text -->
<g id="node4" class="node">
<title>http://schema.org/Text</title>
<ellipse fill="none" stroke="#e377c2" cx="853.05" cy="-807.83" rx="74.91" ry="16.03"/>
<text text-anchor="middle" x="853.05" y="-804.13" font-family="Times,serif" font-size="14.00">schema:Text</text>
</g>
<!-- http://purl.org/oseg/ontologies/OTRL#OTRL&#45;4 -->
<g id="node5" class="node">
<title>http://purl.org/oseg/ontologies/OTRL#OTRL&#45;4</title>
<ellipse fill="none" stroke="#e377c2" cx="529.01" cy="-329.51" rx="49.49" ry="16.03"/>
<text text-anchor="middle" x="529.01" y="-325.81" font-family="Times,serif" font-size="14.00">OTRL&#45;4</text>
</g>
<!-- http://purl.org/oseg/ontologies/OTRL#OTRL&#45;4&#45;&gt;http://purl.org/oseg/ontologies/OTRL#OTRL -->
<g id="edge36" class="edge">
<title>http://purl.org/oseg/ontologies/OTRL#OTRL&#45;4&#45;&gt;http://purl.org/oseg/ontologies/OTRL#OTRL</title>
<path fill="none" stroke="black" d="M525.07,-345.95C520.12,-366.66 511.54,-402.52 505.68,-427.04"/>
<polygon fill="black" stroke="black" points="502.27,-426.24 503.35,-436.78 509.08,-427.87 502.27,-426.24"/>
</g>
<!-- http://purl.org/oseg/ontologies/OTRL#OTRL&#45;4&#45;&gt;http://www.w3.org/2002/07/owl#class -->
<g id="edge25" class="edge">
<title>http://purl.org/oseg/ontologies/OTRL#OTRL&#45;4&#45;&gt;http://www.w3.org/2002/07/owl#class</title>
<path fill="none" stroke="black" d="M488.63,-319.93C449.14,-310.56 388.73,-296.22 345.09,-285.87"/>
<polygon fill="black" stroke="black" points="345.76,-282.43 335.22,-283.52 344.14,-289.24 345.76,-282.43"/>
<text text-anchor="middle" x="412.36" y="-306.7" font-family="Times,serif" font-size="14.00">a</text>
</g>
<!-- http://purl.org/oseg/ontologies/OTRL -->
<g id="node6" class="node">
<title>http://purl.org/oseg/ontologies/OTRL</title>
<ellipse fill="none" stroke="#e377c2" cx="731.24" cy="-418.64" rx="60.62" ry="16.03"/>
<text text-anchor="middle" x="731.24" y="-414.94" font-family="Times,serif" font-size="14.00">ns1:OTRL</text>
</g>
<!-- http://purl.org/oseg/ontologies/OTRL&#45;&gt;http://purl.org/oseg/ontologies/OTRL -->
<g id="edge17" class="edge">
<title>http://purl.org/oseg/ontologies/OTRL&#45;&gt;http://purl.org/oseg/ontologies/OTRL</title>
<path fill="none" stroke="black" d="M786.84,-425.27C800.17,-424.75 810.05,-422.54 810.05,-418.64 810.05,-415.81 804.83,-413.86 796.87,-412.81"/>
<polygon fill="black" stroke="black" points="797.09,-409.32 786.84,-412.01 796.53,-416.3 797.09,-409.32"/>
<text text-anchor="middle" x="861.55" y="-414.94" font-family="Times,serif" font-size="14.00">owl:versionIRI</text>
</g>
<!-- http://purl.org/oseg/ontologies/OTRL#OTRL&#45;8 -->
<g id="node7" class="node">
<title>http://purl.org/oseg/ontologies/OTRL#OTRL&#45;8</title>
<ellipse fill="none" stroke="#e377c2" cx="479.35" cy="-225.39" rx="49.49" ry="16.03"/>
<text text-anchor="middle" x="479.35" y="-221.69" font-family="Times,serif" font-size="14.00">OTRL&#45;8</text>
</g>
<!-- http://purl.org/oseg/ontologies/OTRL#OTRL&#45;8&#45;&gt;http://purl.org/oseg/ontologies/OTRL#OTRL -->
<g id="edge30" class="edge">
<title>http://purl.org/oseg/ontologies/OTRL#OTRL&#45;8&#45;&gt;http://purl.org/oseg/ontologies/OTRL#OTRL</title>
<path fill="none" stroke="black" d="M480.79,-241.78C484.22,-280.7 492.86,-378.95 497.05,-426.58"/>
<polygon fill="black" stroke="black" points="493.58,-427.09 497.95,-436.74 500.56,-426.47 493.58,-427.09"/>
</g>
<!-- http://purl.org/oseg/ontologies/OTRL#OTRL&#45;8&#45;&gt;http://www.w3.org/2002/07/owl#class -->
<g id="edge4" class="edge">
<title>http://purl.org/oseg/ontologies/OTRL#OTRL&#45;8&#45;&gt;http://www.w3.org/2002/07/owl#class</title>
<path fill="none" stroke="black" d="M439.87,-235.38C412.05,-242.41 374.5,-251.91 344.07,-259.61"/>
<polygon fill="black" stroke="black" points="342.88,-256.3 334.05,-262.14 344.6,-263.08 342.88,-256.3"/>
<text text-anchor="middle" x="387.47" y="-251.29" font-family="Times,serif" font-size="14.00">a</text>
</g>
<!-- http://purl.org/oseg/ontologies/OTRL#ODRL&#45;4 -->
<g id="node8" class="node">
<title>http://purl.org/oseg/ontologies/OTRL#ODRL&#45;4</title>
<ellipse fill="none" stroke="#e377c2" cx="138.71" cy="-56.39" rx="50.82" ry="16.03"/>
<text text-anchor="middle" x="138.71" y="-52.69" font-family="Times,serif" font-size="14.00">ODRL&#45;4</text>
</g>
<!-- http://purl.org/oseg/ontologies/OTRL#ODRL&#45;4&#45;&gt;http://purl.org/oseg/ontologies/OTRL#ODRL -->
<g id="edge5" class="edge">
<title>http://purl.org/oseg/ontologies/OTRL#ODRL&#45;4&#45;&gt;http://purl.org/oseg/ontologies/OTRL#ODRL</title>
<path fill="none" stroke="black" d="M144.82,-72.9C149.57,-85.73 156.25,-103.76 161.7,-118.47"/>
<polygon fill="black" stroke="black" points="158.48,-119.86 165.23,-128.02 165.04,-117.43 158.48,-119.86"/>
</g>
<!-- http://purl.org/oseg/ontologies/OTRL#ODRL&#45;4&#45;&gt;http://www.w3.org/2002/07/owl#class -->
<g id="edge29" class="edge">
<title>http://purl.org/oseg/ontologies/OTRL#ODRL&#45;4&#45;&gt;http://www.w3.org/2002/07/owl#class</title>
<path fill="none" stroke="black" d="M149.91,-72.32C176.31,-109.88 242.59,-204.17 274,-248.84"/>
<polygon fill="black" stroke="black" points="271.18,-250.91 279.79,-257.08 276.9,-246.88 271.18,-250.91"/>
<text text-anchor="middle" x="207.45" y="-164.38" font-family="Times,serif" font-size="14.00">a</text>
</g>
<!-- http://purl.org/oseg/ontologies/OTRL#ODRL&#45;0 -->
<g id="node9" class="node">
<title>http://purl.org/oseg/ontologies/OTRL#ODRL&#45;0</title>
<ellipse fill="none" stroke="#e377c2" cx="250.41" cy="-16.09" rx="50.82" ry="16.03"/>
<text text-anchor="middle" x="250.41" y="-12.39" font-family="Times,serif" font-size="14.00">ODRL&#45;0</text>
</g>
<!-- http://purl.org/oseg/ontologies/OTRL#ODRL&#45;0&#45;&gt;http://purl.org/oseg/ontologies/OTRL#ODRL -->
<g id="edge28" class="edge">
<title>http://purl.org/oseg/ontologies/OTRL#ODRL&#45;0&#45;&gt;http://purl.org/oseg/ontologies/OTRL#ODRL</title>
<path fill="none" stroke="black" d="M240.54,-32.05C227.03,-53.91 202.62,-93.38 186.66,-119.17"/>
<polygon fill="black" stroke="black" points="183.49,-117.65 181.2,-128 189.44,-121.33 183.49,-117.65"/>
</g>
<!-- http://purl.org/oseg/ontologies/OTRL#ODRL&#45;0&#45;&gt;http://www.w3.org/2002/07/owl#class -->
<g id="edge7" class="edge">
<title>http://purl.org/oseg/ontologies/OTRL#ODRL&#45;0&#45;&gt;http://www.w3.org/2002/07/owl#class</title>
<path fill="none" stroke="black" d="M253.02,-32.55C259.87,-75.97 278.5,-193.86 286.85,-246.74"/>
<polygon fill="black" stroke="black" points="283.41,-247.37 288.43,-256.7 290.32,-246.28 283.41,-247.37"/>
<text text-anchor="middle" x="265.43" y="-143.45" font-family="Times,serif" font-size="14.00">a</text>
</g>
<!-- http://purl.org/oseg/ontologies/OTRL#OTRL&#45;9 -->
<g id="node10" class="node">
<title>http://purl.org/oseg/ontologies/OTRL#OTRL&#45;9</title>
<ellipse fill="none" stroke="#e377c2" cx="251.83" cy="-493.43" rx="49.49" ry="16.03"/>
<text text-anchor="middle" x="251.83" y="-489.73" font-family="Times,serif" font-size="14.00">OTRL&#45;9</text>
</g>
<!-- http://purl.org/oseg/ontologies/OTRL#OTRL&#45;9&#45;&gt;http://purl.org/oseg/ontologies/OTRL#OTRL -->
<g id="edge10" class="edge">
<title>http://purl.org/oseg/ontologies/OTRL#OTRL&#45;9&#45;&gt;http://purl.org/oseg/ontologies/OTRL#OTRL</title>
<path fill="none" stroke="black" d="M296.37,-486.21C340.42,-479.07 407.54,-468.18 452.42,-460.91"/>
<polygon fill="black" stroke="black" points="453.16,-464.33 462.47,-459.28 452.04,-457.42 453.16,-464.33"/>
</g>
<!-- http://purl.org/oseg/ontologies/OTRL#OTRL&#45;9&#45;&gt;http://www.w3.org/2002/07/owl#class -->
<g id="edge31" class="edge">
<title>http://purl.org/oseg/ontologies/OTRL#OTRL&#45;9&#45;&gt;http://www.w3.org/2002/07/owl#class</title>
<path fill="none" stroke="black" d="M254.77,-476.86C261.51,-438.96 278.1,-345.64 286.28,-299.6"/>
<polygon fill="black" stroke="black" points="289.78,-299.95 288.08,-289.49 282.88,-298.72 289.78,-299.95"/>
<text text-anchor="middle" x="266.03" y="-392.03" font-family="Times,serif" font-size="14.00">a</text>
</g>
<!-- http://purl.org/oseg/ontologies/OTRL#OTRL&#45;7 -->
<g id="node11" class="node">
<title>http://purl.org/oseg/ontologies/OTRL#OTRL&#45;7</title>
<ellipse fill="none" stroke="#e377c2" cx="345.34" cy="-535.98" rx="49.49" ry="16.03"/>
<text text-anchor="middle" x="345.34" y="-532.28" font-family="Times,serif" font-size="14.00">OTRL&#45;7</text>
</g>
<!-- http://purl.org/oseg/ontologies/OTRL#OTRL&#45;7&#45;&gt;http://purl.org/oseg/ontologies/OTRL#OTRL -->
<g id="edge12" class="edge">
<title>http://purl.org/oseg/ontologies/OTRL#OTRL&#45;7&#45;&gt;http://purl.org/oseg/ontologies/OTRL#OTRL</title>
<path fill="none" stroke="black" d="M371.48,-521.95C397.55,-507.96 437.69,-486.41 466.05,-471.19"/>
<polygon fill="black" stroke="black" points="468.02,-474.11 475.17,-466.29 464.71,-467.94 468.02,-474.11"/>
</g>
<!-- http://purl.org/oseg/ontologies/OTRL#OTRL&#45;7&#45;&gt;http://www.w3.org/2002/07/owl#class -->
<g id="edge32" class="edge">
<title>http://purl.org/oseg/ontologies/OTRL#OTRL&#45;7&#45;&gt;http://www.w3.org/2002/07/owl#class</title>
<path fill="none" stroke="black" d="M341.94,-519.53C332.79,-475.26 307.59,-353.29 296.44,-299.32"/>
<polygon fill="black" stroke="black" points="299.85,-298.56 294.4,-289.47 293,-299.97 299.85,-298.56"/>
<text text-anchor="middle" x="314.69" y="-413.22" font-family="Times,serif" font-size="14.00">a</text>
</g>
<!-- http://purl.org/oseg/ontologies/OTRL#ODRL&#45;5 -->
<g id="node12" class="node">
<title>http://purl.org/oseg/ontologies/OTRL#ODRL&#45;5</title>
<ellipse fill="none" stroke="#e377c2" cx="347.06" cy="-57.15" rx="50.82" ry="16.03"/>
<text text-anchor="middle" x="347.06" y="-53.45" font-family="Times,serif" font-size="14.00">ODRL&#45;5</text>
</g>
<!-- http://purl.org/oseg/ontologies/OTRL#ODRL&#45;5&#45;&gt;http://purl.org/oseg/ontologies/OTRL#ODRL -->
<g id="edge38" class="edge">
<title>http://purl.org/oseg/ontologies/OTRL#ODRL&#45;5&#45;&gt;http://purl.org/oseg/ontologies/OTRL#ODRL</title>
<path fill="none" stroke="black" d="M319.19,-70.94C288.7,-86.03 239.73,-110.26 206.55,-126.67"/>
<polygon fill="black" stroke="black" points="204.63,-123.72 197.22,-131.29 207.74,-129.99 204.63,-123.72"/>
</g>
<!-- http://purl.org/oseg/ontologies/OTRL#ODRL&#45;5&#45;&gt;http://www.w3.org/2002/07/owl#class -->
<g id="edge8" class="edge">
<title>http://purl.org/oseg/ontologies/OTRL#ODRL&#45;5&#45;&gt;http://www.w3.org/2002/07/owl#class</title>
<path fill="none" stroke="black" d="M342.84,-73.38C333.23,-110.41 309.59,-201.46 297.85,-246.68"/>
<polygon fill="black" stroke="black" points="294.39,-246.06 295.27,-256.62 301.17,-247.82 294.39,-246.06"/>
<text text-anchor="middle" x="315.85" y="-163.83" font-family="Times,serif" font-size="14.00">a</text>
</g>
<!-- http://purl.org/oseg/ontologies/OTRL#OTRL&#45;1 -->
<g id="node13" class="node">
<title>http://purl.org/oseg/ontologies/OTRL#OTRL&#45;1</title>
<ellipse fill="none" stroke="#e377c2" cx="361.02" cy="-395.06" rx="49.49" ry="16.03"/>
<text text-anchor="middle" x="361.02" y="-391.36" font-family="Times,serif" font-size="14.00">OTRL&#45;1</text>
</g>
<!-- http://purl.org/oseg/ontologies/OTRL#OTRL&#45;1&#45;&gt;http://purl.org/oseg/ontologies/OTRL#OTRL -->
<g id="edge26" class="edge">
<title>http://purl.org/oseg/ontologies/OTRL#OTRL&#45;1&#45;&gt;http://purl.org/oseg/ontologies/OTRL#OTRL</title>
<path fill="none" stroke="black" d="M391.73,-407.98C412.54,-416.74 440.16,-428.36 462.21,-437.64"/>
<polygon fill="black" stroke="black" points="461.02,-440.94 471.6,-441.59 463.74,-434.48 461.02,-440.94"/>
</g>
<!-- http://purl.org/oseg/ontologies/OTRL#OTRL&#45;1&#45;&gt;http://www.w3.org/2002/07/owl#class -->
<g id="edge9" class="edge">
<title>http://purl.org/oseg/ontologies/OTRL#OTRL&#45;1&#45;&gt;http://www.w3.org/2002/07/owl#class</title>
<path fill="none" stroke="black" d="M351.72,-378.85C339.9,-358.25 319.36,-322.45 305.48,-298.26"/>
<polygon fill="black" stroke="black" points="308.35,-296.23 300.34,-289.3 302.28,-299.72 308.35,-296.23"/>
<text text-anchor="middle" x="324.1" y="-342.36" font-family="Times,serif" font-size="14.00">a</text>
</g>
<!-- http://purl.org/oseg/ontologies/OTRL#ODRL&#45;3 -->
<g id="node14" class="node">
<title>http://purl.org/oseg/ontologies/OTRL#ODRL&#45;3</title>
<ellipse fill="none" stroke="#e377c2" cx="50.82" cy="-231.95" rx="50.82" ry="16.03"/>
<text text-anchor="middle" x="50.82" y="-228.25" font-family="Times,serif" font-size="14.00">ODRL&#45;3</text>
</g>
<!-- http://purl.org/oseg/ontologies/OTRL#ODRL&#45;3&#45;&gt;http://purl.org/oseg/ontologies/OTRL#ODRL -->
<g id="edge21" class="edge">
<title>http://purl.org/oseg/ontologies/OTRL#ODRL&#45;3&#45;&gt;http://purl.org/oseg/ontologies/OTRL#ODRL</title>
<path fill="none" stroke="black" d="M71.52,-216.86C91.22,-202.49 121.03,-180.75 142.93,-164.78"/>
<polygon fill="black" stroke="black" points="145.16,-167.48 151.18,-158.76 141.04,-161.83 145.16,-167.48"/>
</g>
<!-- http://purl.org/oseg/ontologies/OTRL#ODRL&#45;3&#45;&gt;http://www.w3.org/2002/07/owl#class -->
<g id="edge33" class="edge">
<title>http://purl.org/oseg/ontologies/OTRL#ODRL&#45;3&#45;&gt;http://www.w3.org/2002/07/owl#class</title>
<path fill="none" stroke="black" d="M95.72,-239.63C134.1,-246.19 189.63,-255.69 231.67,-262.88"/>
<polygon fill="black" stroke="black" points="231.33,-266.37 241.78,-264.61 232.51,-259.47 231.33,-266.37"/>
<text text-anchor="middle" x="159.2" y="-255.05" font-family="Times,serif" font-size="14.00">a</text>
</g>
<!-- http://purl.org/oseg/ontologies/OTRL#documentationDescription -->
<g id="node15" class="node">
<title>http://purl.org/oseg/ontologies/OTRL#documentationDescription</title>
<ellipse fill="none" stroke="#e377c2" cx="759.71" cy="-602.8" rx="120.83" ry="16.03"/>
<text text-anchor="middle" x="759.71" y="-599.1" font-family="Times,serif" font-size="14.00">documentationDesc...</text>
</g>
<!-- http://purl.org/oseg/ontologies/OTRL#documentationDescription&#45;&gt;http://purl.org/oseg/ontologies/OTRL#OTRL -->
<g id="edge11" class="edge">
<title>http://purl.org/oseg/ontologies/OTRL#documentationDescription&#45;&gt;http://purl.org/oseg/ontologies/OTRL#OTRL</title>
<path fill="none" stroke="black" d="M731.85,-586.8C683.1,-558.8 582.63,-501.09 531.22,-471.57"/>
<polygon fill="black" stroke="black" points="532.93,-468.51 522.52,-466.56 529.45,-474.58 532.93,-468.51"/>
<text text-anchor="middle" x="605.04" y="-532.98" font-family="Times,serif" font-size="14.00">domain</text>
</g>
<!-- http://purl.org/oseg/ontologies/OTRL#documentationDescription&#45;&gt;http://schema.org/Text -->
<g id="edge22" class="edge">
<title>http://purl.org/oseg/ontologies/OTRL#documentationDescription&#45;&gt;http://schema.org/Text</title>
<path fill="none" stroke="black" d="M767.19,-619.23C783.44,-654.93 822.08,-739.8 841.5,-782.45"/>
<polygon fill="black" stroke="black" points="838.34,-783.95 845.66,-791.6 844.71,-781.05 838.34,-783.95"/>
<text text-anchor="middle" x="783.34" y="-704.64" font-family="Times,serif" font-size="14.00">range</text>
</g>
<!-- http://purl.org/oseg/ontologies/OTRL#exitCriteria -->
<g id="node16" class="node">
<title>http://purl.org/oseg/ontologies/OTRL#exitCriteria</title>
<ellipse fill="none" stroke="#e377c2" cx="655.53" cy="-651.4" rx="70.01" ry="16.03"/>
<text text-anchor="middle" x="655.53" y="-647.7" font-family="Times,serif" font-size="14.00">exitCriteria</text>
</g>
<!-- http://purl.org/oseg/ontologies/OTRL#exitCriteria&#45;&gt;http://purl.org/oseg/ontologies/OTRL#OTRL -->
<g id="edge3" class="edge">
<title>http://purl.org/oseg/ontologies/OTRL#exitCriteria&#45;&gt;http://purl.org/oseg/ontologies/OTRL#OTRL</title>
<path fill="none" stroke="black" d="M642.76,-635.18C615.22,-600.24 550.17,-517.71 518.04,-476.93"/>
<polygon fill="black" stroke="black" points="520.64,-474.58 511.7,-468.9 515.14,-478.92 520.64,-474.58"/>
<text text-anchor="middle" x="553.9" y="-559.86" font-family="Times,serif" font-size="14.00">domain</text>
</g>
<!-- http://purl.org/oseg/ontologies/OTRL#exitCriteria&#45;&gt;http://schema.org/Text -->
<g id="edge23" class="edge">
<title>http://purl.org/oseg/ontologies/OTRL#exitCriteria&#45;&gt;http://schema.org/Text</title>
<path fill="none" stroke="black" d="M675.56,-667.26C710.98,-695.31 784.73,-753.72 825.12,-785.71"/>
<polygon fill="black" stroke="black" points="822.96,-788.46 832.97,-791.93 827.31,-782.97 822.96,-788.46"/>
<text text-anchor="middle" x="729.34" y="-730.28" font-family="Times,serif" font-size="14.00">range</text>
</g>
<!-- http://purl.org/oseg/ontologies/OTRL#OTRL&#45;5 -->
<g id="node17" class="node">
<title>http://purl.org/oseg/ontologies/OTRL#OTRL&#45;5</title>
<ellipse fill="none" stroke="#e377c2" cx="551.62" cy="-266.01" rx="49.49" ry="16.03"/>
<text text-anchor="middle" x="551.62" y="-262.31" font-family="Times,serif" font-size="14.00">OTRL&#45;5</text>
</g>
<!-- http://purl.org/oseg/ontologies/OTRL#OTRL&#45;5&#45;&gt;http://purl.org/oseg/ontologies/OTRL#OTRL -->
<g id="edge27" class="edge">
<title>http://purl.org/oseg/ontologies/OTRL#OTRL&#45;5&#45;&gt;http://purl.org/oseg/ontologies/OTRL#OTRL</title>
<path fill="none" stroke="black" d="M547.07,-282.3C538.01,-314.81 517.61,-387.99 506.66,-427.24"/>
<polygon fill="black" stroke="black" points="503.29,-426.33 503.97,-436.9 510.03,-428.21 503.29,-426.33"/>
</g>
<!-- http://purl.org/oseg/ontologies/OTRL#OTRL&#45;5&#45;&gt;http://www.w3.org/2002/07/owl#class -->
<g id="edge13" class="edge">
<title>http://purl.org/oseg/ontologies/OTRL#OTRL&#45;5&#45;&gt;http://www.w3.org/2002/07/owl#class</title>
<path fill="none" stroke="black" d="M501.98,-267.34C461.29,-268.44 403.29,-270 358.4,-271.21"/>
<polygon fill="black" stroke="black" points="358.07,-267.72 348.17,-271.49 358.26,-274.72 358.07,-267.72"/>
<text text-anchor="middle" x="425.69" y="-258.08" font-family="Times,serif" font-size="14.00">a</text>
</g>
<!-- http://purl.org/oseg/ontologies/OTRL#hardwareDescription -->
<g id="node18" class="node">
<title>http://purl.org/oseg/ontologies/OTRL#hardwareDescription</title>
<ellipse fill="none" stroke="#e377c2" cx="799.84" cy="-517.35" rx="118.17" ry="16.03"/>
<text text-anchor="middle" x="799.84" y="-513.65" font-family="Times,serif" font-size="14.00">hardwareDescription</text>
</g>
<!-- http://purl.org/oseg/ontologies/OTRL#hardwareDescription&#45;&gt;http://purl.org/oseg/ontologies/OTRL#OTRL -->
<g id="edge34" class="edge">
<title>http://purl.org/oseg/ontologies/OTRL#hardwareDescription&#45;&gt;http://purl.org/oseg/ontologies/OTRL#OTRL</title>
<path fill="none" stroke="black" d="M735.76,-503.68C678.36,-491.45 595.62,-473.8 544.8,-462.97"/>
<polygon fill="black" stroke="black" points="545.28,-459.49 534.77,-460.83 543.82,-466.34 545.28,-459.49"/>
<text text-anchor="middle" x="613.78" y="-487.13" font-family="Times,serif" font-size="14.00">domain</text>
</g>
<!-- http://purl.org/oseg/ontologies/OTRL#hardwareDescription&#45;&gt;http://schema.org/Text -->
<g id="edge24" class="edge">
<title>http://purl.org/oseg/ontologies/OTRL#hardwareDescription&#45;&gt;http://schema.org/Text</title>
<path fill="none" stroke="black" d="M802.85,-533.8C811.67,-581.93 837.47,-722.78 848.24,-781.58"/>
<polygon fill="black" stroke="black" points="844.83,-782.35 850.07,-791.56 851.71,-781.09 844.83,-782.35"/>
<text text-anchor="middle" x="804.55" y="-661.49" font-family="Times,serif" font-size="14.00">range</text>
</g>
<!-- http://purl.org/oseg/ontologies/OTRL#softwareDescription -->
<g id="node19" class="node">
<title>http://purl.org/oseg/ontologies/OTRL#softwareDescription</title>
<ellipse fill="none" stroke="#e377c2" cx="582.45" cy="-749.19" rx="113.69" ry="16.03"/>
<text text-anchor="middle" x="582.45" y="-745.49" font-family="Times,serif" font-size="14.00">softwareDescription</text>
</g>
<!-- http://purl.org/oseg/ontologies/OTRL#softwareDescription&#45;&gt;http://purl.org/oseg/ontologies/OTRL#OTRL -->
<g id="edge35" class="edge">
<title>http://purl.org/oseg/ontologies/OTRL#softwareDescription&#45;&gt;http://purl.org/oseg/ontologies/OTRL#OTRL</title>
<path fill="none" stroke="black" d="M577.87,-732.86C564.17,-684.05 523.46,-539 506.72,-479.35"/>
<polygon fill="black" stroke="black" points="510.04,-478.25 503.97,-469.57 503.3,-480.14 510.04,-478.25"/>
<text text-anchor="middle" x="515.79" y="-609.9" font-family="Times,serif" font-size="14.00">domain</text>
</g>
<!-- http://purl.org/oseg/ontologies/OTRL#softwareDescription&#45;&gt;http://schema.org/Text -->
<g id="edge1" class="edge">
<title>http://purl.org/oseg/ontologies/OTRL#softwareDescription&#45;&gt;http://schema.org/Text</title>
<path fill="none" stroke="black" d="M645.21,-762.79C688.67,-772.2 746.29,-784.69 789.84,-794.13"/>
<polygon fill="black" stroke="black" points="789.24,-797.58 799.75,-796.28 790.72,-790.74 789.24,-797.58"/>
<text text-anchor="middle" x="696.53" y="-782.26" font-family="Times,serif" font-size="14.00">range</text>
</g>
<!-- http://purl.org/oseg/ontologies/OTRL#ODRL&#45;1 -->
<g id="node20" class="node">
<title>http://purl.org/oseg/ontologies/OTRL#ODRL&#45;1</title>
<ellipse fill="none" stroke="#e377c2" cx="70.44" cy="-148.22" rx="50.82" ry="16.03"/>
<text text-anchor="middle" x="70.44" y="-144.52" font-family="Times,serif" font-size="14.00">ODRL&#45;1</text>
</g>
<!-- http://purl.org/oseg/ontologies/OTRL#ODRL&#45;1&#45;&gt;http://purl.org/oseg/ontologies/OTRL#ODRL -->
<g id="edge15" class="edge">
<title>http://purl.org/oseg/ontologies/OTRL#ODRL&#45;1&#45;&gt;http://purl.org/oseg/ontologies/OTRL#ODRL</title>
<path fill="none" stroke="black" d="M121.12,-146.18C121.21,-146.18 121.3,-146.17 121.39,-146.17"/>
<polygon fill="black" stroke="black" points="119.76,-149.74 129.61,-145.84 119.48,-142.74 119.76,-149.74"/>
</g>
<!-- http://purl.org/oseg/ontologies/OTRL#ODRL&#45;1&#45;&gt;http://www.w3.org/2002/07/owl#class -->
<g id="edge14" class="edge">
<title>http://purl.org/oseg/ontologies/OTRL#ODRL&#45;1&#45;&gt;http://www.w3.org/2002/07/owl#class</title>
<path fill="none" stroke="black" d="M95.74,-162.54C135.23,-184.88 211.6,-228.1 256.23,-253.35"/>
<polygon fill="black" stroke="black" points="254.55,-256.42 264.98,-258.3 258,-250.33 254.55,-256.42"/>
<text text-anchor="middle" x="171.49" y="-211.75" font-family="Times,serif" font-size="14.00">a</text>
</g>
<!-- http://purl.org/oseg/ontologies/OTRL#OTRL&#45;6 -->
<g id="node21" class="node">
<title>http://purl.org/oseg/ontologies/OTRL#OTRL&#45;6</title>
<ellipse fill="none" stroke="#e377c2" cx="288.46" cy="-446.81" rx="49.49" ry="16.03"/>
<text text-anchor="middle" x="288.46" y="-443.11" font-family="Times,serif" font-size="14.00">OTRL&#45;6</text>
</g>
<!-- http://purl.org/oseg/ontologies/OTRL#OTRL&#45;6&#45;&gt;http://purl.org/oseg/ontologies/OTRL#OTRL -->
<g id="edge6" class="edge">
<title>http://purl.org/oseg/ontologies/OTRL#OTRL&#45;6&#45;&gt;http://purl.org/oseg/ontologies/OTRL#OTRL</title>
<path fill="none" stroke="black" d="M337.92,-448.33C371.58,-449.36 415.96,-450.73 449.67,-451.76"/>
<polygon fill="black" stroke="black" points="449.67,-455.26 459.77,-452.07 449.88,-448.27 449.67,-455.26"/>
</g>
<!-- http://purl.org/oseg/ontologies/OTRL#OTRL&#45;6&#45;&gt;http://www.w3.org/2002/07/owl#class -->
<g id="edge37" class="edge">
<title>http://purl.org/oseg/ontologies/OTRL#OTRL&#45;6&#45;&gt;http://www.w3.org/2002/07/owl#class</title>
<path fill="none" stroke="black" d="M288.7,-430.46C289.14,-400.45 290.08,-336.29 290.61,-299.82"/>
<polygon fill="black" stroke="black" points="294.12,-299.51 290.76,-289.46 287.12,-299.41 294.12,-299.51"/>
<text text-anchor="middle" x="285.16" y="-368.94" font-family="Times,serif" font-size="14.00">a</text>
</g>
<!-- http://purl.org/oseg/ontologies/OTRL#OTRL&#45;3 -->
<g id="node22" class="node">
<title>http://purl.org/oseg/ontologies/OTRL#OTRL&#45;3</title>
<ellipse fill="none" stroke="#e377c2" cx="390.93" cy="-491.94" rx="49.49" ry="16.03"/>
<text text-anchor="middle" x="390.93" y="-488.24" font-family="Times,serif" font-size="14.00">OTRL&#45;3</text>
</g>
<!-- http://purl.org/oseg/ontologies/OTRL#OTRL&#45;3&#45;&gt;http://purl.org/oseg/ontologies/OTRL#OTRL -->
<g id="edge20" class="edge">
<title>http://purl.org/oseg/ontologies/OTRL#OTRL&#45;3&#45;&gt;http://purl.org/oseg/ontologies/OTRL#OTRL</title>
<path fill="none" stroke="black" d="M424.65,-479.92C435.83,-475.94 448.37,-471.47 459.93,-467.35"/>
<polygon fill="black" stroke="black" points="461.13,-470.64 469.37,-463.99 458.78,-464.05 461.13,-470.64"/>
</g>
<!-- http://purl.org/oseg/ontologies/OTRL#OTRL&#45;3&#45;&gt;http://www.w3.org/2002/07/owl#class -->
<g id="edge18" class="edge">
<title>http://purl.org/oseg/ontologies/OTRL#OTRL&#45;3&#45;&gt;http://www.w3.org/2002/07/owl#class</title>
<path fill="none" stroke="black" d="M383.58,-475.84C366.4,-438.22 323.52,-344.26 302.71,-298.66"/>
<polygon fill="black" stroke="black" points="305.84,-297.09 298.5,-289.45 299.47,-300 305.84,-297.09"/>
<text text-anchor="middle" x="338.64" y="-376.05" font-family="Times,serif" font-size="14.00">a</text>
</g>
<!-- http://purl.org/oseg/ontologies/OTRL#OTRL&#45;2 -->
<g id="node23" class="node">
<title>http://purl.org/oseg/ontologies/OTRL#OTRL&#45;2</title>
<ellipse fill="none" stroke="#e377c2" cx="433.7" cy="-287.59" rx="49.49" ry="16.03"/>
<text text-anchor="middle" x="433.7" y="-283.89" font-family="Times,serif" font-size="14.00">OTRL&#45;2</text>
</g>
<!-- http://purl.org/oseg/ontologies/OTRL#OTRL&#45;2&#45;&gt;http://purl.org/oseg/ontologies/OTRL#OTRL -->
<g id="edge2" class="edge">
<title>http://purl.org/oseg/ontologies/OTRL#OTRL&#45;2&#45;&gt;http://purl.org/oseg/ontologies/OTRL#OTRL</title>
<path fill="none" stroke="black" d="M440.12,-303.78C451.52,-332.54 475.4,-392.75 489.12,-427.35"/>
<polygon fill="black" stroke="black" points="485.92,-428.78 492.86,-436.79 492.43,-426.2 485.92,-428.78"/>
</g>
<!-- http://purl.org/oseg/ontologies/OTRL#OTRL&#45;2&#45;&gt;http://www.w3.org/2002/07/owl#class -->
<g id="edge19" class="edge">
<title>http://purl.org/oseg/ontologies/OTRL#OTRL&#45;2&#45;&gt;http://www.w3.org/2002/07/owl#class</title>
<path fill="none" stroke="black" d="M386.18,-282.74C376.33,-281.74 365.8,-280.66 355.46,-279.61"/>
<polygon fill="black" stroke="black" points="355.52,-276.09 345.22,-278.56 354.81,-283.06 355.52,-276.09"/>
<text text-anchor="middle" x="366.32" y="-284.97" font-family="Times,serif" font-size="14.00">a</text>
</g>
<!-- http://purl.org/oseg/ontologies/OTRL#ODRL&#45;2 -->
<g id="node24" class="node">
<title>http://purl.org/oseg/ontologies/OTRL#ODRL&#45;2</title>
<ellipse fill="none" stroke="#e377c2" cx="75.45" cy="-300.97" rx="50.82" ry="16.03"/>
<text text-anchor="middle" x="75.45" y="-297.27" font-family="Times,serif" font-size="14.00">ODRL&#45;2</text>
</g>
<!-- http://purl.org/oseg/ontologies/OTRL#ODRL&#45;2&#45;&gt;http://purl.org/oseg/ontologies/OTRL#ODRL -->
<g id="edge41" class="edge">
<title>http://purl.org/oseg/ontologies/OTRL#ODRL&#45;2&#45;&gt;http://purl.org/oseg/ontologies/OTRL#ODRL</title>
<path fill="none" stroke="black" d="M85.34,-284.78C102.13,-257.29 136.31,-201.32 156.1,-168.89"/>
<polygon fill="black" stroke="black" points="159.29,-170.39 161.52,-160.03 153.32,-166.74 159.29,-170.39"/>
</g>
<!-- http://purl.org/oseg/ontologies/OTRL#ODRL&#45;2&#45;&gt;http://www.w3.org/2002/07/owl#class -->
<g id="edge40" class="edge">
<title>http://purl.org/oseg/ontologies/OTRL#ODRL&#45;2&#45;&gt;http://www.w3.org/2002/07/owl#class</title>
<path fill="none" stroke="black" d="M122.76,-294.84C153.75,-290.82 194.62,-285.52 228.31,-281.16"/>
<polygon fill="black" stroke="black" points="229.05,-284.59 238.52,-279.83 228.15,-277.65 229.05,-284.59"/>
<text text-anchor="middle" x="171.03" y="-291.8" font-family="Times,serif" font-size="14.00">a</text>
</g>
</g>
</svg>
