<?xml version="1.0" encoding="UTF-8" standalone="no"?>
<svg
   xml:space="preserve"
   version="1.1"
   style="image-rendering:optimizeQuality;shape-rendering:geometricPrecision;text-rendering:geometricPrecision"
   viewBox="0 0 803 194"
   x="0px"
   y="0px"
   fill-rule="evenodd"
   clip-rule="evenodd"
   id="svg16"
   sodipodi:docname="noun_search_bar_1174492.svg"
   width="803"
   height="194"
   inkscape:version="1.1 (c68e22c387, 2021-05-23)"
   xmlns:inkscape="http://www.inkscape.org/namespaces/inkscape"
   xmlns:sodipodi="http://sodipodi.sourceforge.net/DTD/sodipodi-0.dtd"
   xmlns="http://www.w3.org/2000/svg"
   xmlns:svg="http://www.w3.org/2000/svg"><sodipodi:namedview
     id="namedview18"
     pagecolor="#ffffff"
     bordercolor="#666666"
     borderopacity="1.0"
     inkscape:pageshadow="2"
     inkscape:pageopacity="0.0"
     inkscape:pagecheckerboard="0"
     showgrid="false"
     fit-margin-top="0"
     fit-margin-left="0"
     fit-margin-right="0"
     fit-margin-bottom="0"
     inkscape:zoom="0.38760897"
     inkscape:cx="-130.28594"
     inkscape:cy="-100.61687"
     inkscape:window-width="1920"
     inkscape:window-height="1011"
     inkscape:window-x="0"
     inkscape:window-y="0"
     inkscape:window-maximized="1"
     inkscape:current-layer="svg16" /><defs
     id="defs4"><style
       type="text/css"
       id="style2">
   
    .fil0 {fill:black;fill-rule:nonzero}
   
  </style></defs><g
     id="g10"><path
       class="fil0"
       d="m 678,59 c -18,5 -28,24 -24,41 5,18 24,29 41,24 18,-5 29,-23 24,-41 -5,-18 -23,-29 -41,-24 z m 51,59 31,30 c 5,5 -7,16 -12,12 l -30,-29 c -5,4 -11,7 -18,9 -27,7 -54,-8 -62,-35 -7,-27 8,-54 35,-62 27,-7 55,8 62,35 4,15 2,28 -6,40 z"
       id="path6" /><path
       class="fil0"
       d="M 771,17 H 33 L 17,33 v 128 l 16,16 h 738 l 16,-16 V 33 Z M 29,0 h 745 4 l 2,2 21,21 2,3 v 3 136 3 l -2,3 -21,20 -2,3 H 774 29 26 L 23,191 2,171 0,168 V 165 29 26 L 2,23 23,2 26,0 Z"
       id="path8" /></g></svg>
