<?xml version="1.0" encoding="UTF-8" standalone="no"?>
<svg
   xmlns:dc="http://purl.org/dc/elements/1.1/"
   xmlns:cc="http://creativecommons.org/ns#"
   xmlns:rdf="http://www.w3.org/1999/02/22-rdf-syntax-ns#"
   xmlns:svg="http://www.w3.org/2000/svg"
   xmlns="http://www.w3.org/2000/svg"
   xmlns:sodipodi="http://sodipodi.sourceforge.net/DTD/sodipodi-0.dtd"
   xmlns:inkscape="http://www.inkscape.org/namespaces/inkscape"
   version="1.1"
   x="0px"
   y="0px"
   viewBox="0 0 100.018 245.65499"
   xml:space="preserve"
   id="svg14"
   sodipodi:docname="noun_engineer_856401.svg"
   width="100.018"
   height="245.655"
   inkscape:version="0.92.3 (unknown)"><metadata
     id="metadata20"><rdf:RDF><cc:Work
         rdf:about=""><dc:format>image/svg+xml</dc:format><dc:type
           rdf:resource="http://purl.org/dc/dcmitype/StillImage" /><dc:title></dc:title></cc:Work></rdf:RDF></metadata><defs
     id="defs18" /><sodipodi:namedview
     pagecolor="#ffffff"
     bordercolor="#666666"
     borderopacity="1"
     objecttolerance="10"
     gridtolerance="10"
     guidetolerance="10"
     inkscape:pageopacity="0"
     inkscape:pageshadow="2"
     inkscape:window-width="640"
     inkscape:window-height="480"
     id="namedview16"
     showgrid="false"
     fit-margin-top="0"
     fit-margin-left="0"
     fit-margin-right="0"
     fit-margin-bottom="0"
     inkscape:zoom="0.76855751"
     inkscape:cx="50.008999"
     inkscape:cy="92.120622"
     inkscape:window-x="10"
     inkscape:window-y="34"
     inkscape:window-maximized="0"
     inkscape:current-layer="svg14" /><g
     id="g8"><path
       d="M 77.904,61.534 C 75.586,60.363 73.461,59.812 71.765,59.569 70.997,59.314 70.181,59.171 69.327,59.171 H 30.693 c -0.85,0 -1.666,0.143 -2.432,0.396 -1.695,0.243 -3.824,0.793 -6.15,1.964 C 16.736,64.201 10.935,70.034 6.877,80.372 2.77,90.754 0.014,105.76 0,128.417 c 0,5.858 0.188,12.228 0.598,19.16 0.248,4.252 3.777,7.533 7.983,7.534 0.156,0 0.314,-0.005 0.473,-0.014 4.412,-0.261 7.774,-4.048 7.516,-8.459 C 16.178,139.988 16,133.931 16,128.417 15.965,104.2 19.498,90.597 22.965,83.497 v 32.856 18.939 98 c 0,6.83 5.537,12.363 12.363,12.363 6.828,0 12.365,-5.533 12.365,-12.363 V 143.02 h 4.635 v 90.271 c 0,6.83 5.537,12.363 12.363,12.363 6.828,0 12.365,-5.533 12.365,-12.363 v -98 -18.939 -32.81 c 0.594,1.216 1.191,2.61 1.779,4.237 2.82,7.813 5.188,20.631 5.18,40.64 0,5.515 -0.174,11.572 -0.564,18.224 -0.258,4.411 3.111,8.196 7.523,8.451 0.158,0.009 0.316,0.014 0.475,0.014 4.205,0.001 7.73,-3.284 7.979,-7.536 0.4,-6.932 0.588,-13.299 0.59,-19.153 C 99.975,98.236 95.157,81.532 88.58,71.489 85.299,66.503 81.455,63.305 77.904,61.534 Z"
       id="path2"
       inkscape:connector-curvature="0" /><path
       d="m 28.728,31.296 c 0.559,2.556 1.568,4.937 2.936,7.07 l -3.479,3.481 c 1.797,2.571 4.033,4.808 6.606,6.604 l 3.48,-3.48 c 2.133,1.368 4.516,2.379 7.068,2.938 v 4.906 c 1.52,0.27 3.076,0.435 4.672,0.435 1.596,0 3.152,-0.165 4.67,-0.435 v -4.906 c 2.555,-0.559 4.938,-1.569 7.07,-2.937 l 3.481,3.479 c 2.572,-1.797 4.809,-4.033 6.607,-6.607 l -3.482,-3.479 c 1.369,-2.134 2.381,-4.514 2.937,-7.069 H 76.2 c 0.271,-1.519 0.436,-3.074 0.436,-4.671 0,-1.597 -0.164,-3.151 -0.436,-4.671 h -4.906 c -0.557,-2.555 -1.568,-4.935 -2.937,-7.069 l 3.482,-3.48 C 70.04,8.831 67.804,6.594 65.232,4.798 L 61.751,8.277 C 59.618,6.91 57.235,5.899 54.681,5.341 V 0.435 C 53.164,0.165 51.607,0 50.012,0 48.416,0 46.86,0.165 45.34,0.435 V 5.341 C 42.787,5.9 40.405,6.91 38.272,8.278 l -3.48,-3.48 c -2.572,1.797 -4.809,4.033 -6.606,6.605 l 3.479,3.481 c -1.367,2.134 -2.377,4.516 -2.936,7.07 h -4.906 c -0.269,1.519 -0.435,3.074 -0.435,4.671 0,1.597 0.166,3.151 0.435,4.671 z M 50.012,15.102 c 6.363,0 11.521,5.159 11.521,11.523 0,6.364 -5.158,11.522 -11.521,11.522 -6.361,0 -11.521,-5.158 -11.521,-11.522 C 38.49,20.262 43.65,15.102 50.012,15.102 Z"
       id="path4"
       inkscape:connector-curvature="0" /><circle
       cx="50.011002"
       cy="26.625"
       r="5.605"
       id="circle6" /></g></svg>