<?xml version="1.0" encoding="UTF-8" standalone="no"?>
<svg
   xmlns:dc="http://purl.org/dc/elements/1.1/"
   xmlns:cc="http://creativecommons.org/ns#"
   xmlns:rdf="http://www.w3.org/1999/02/22-rdf-syntax-ns#"
   xmlns:svg="http://www.w3.org/2000/svg"
   xmlns="http://www.w3.org/2000/svg"
   xmlns:sodipodi="http://sodipodi.sourceforge.net/DTD/sodipodi-0.dtd"
   xmlns:inkscape="http://www.inkscape.org/namespaces/inkscape"
   inkscape:version="1.0rc1 (09960d6f05, 2020-04-09)"
   height="96.241051"
   width="97.970062"
   sodipodi:docname="noun_Scientist_770801.svg"
   id="svg10"
   version="1.1"
   y="0px"
   x="0px"
   viewBox="0 0 97.970062 96.241051"
   data-name="Layer 1">
  <metadata
     id="metadata16">
    <rdf:RDF>
      <cc:Work
         rdf:about="">
        <dc:format>image/svg+xml</dc:format>
        <dc:type
           rdf:resource="http://purl.org/dc/dcmitype/StillImage" />
        <dc:title>Artboard 7</dc:title>
      </cc:Work>
    </rdf:RDF>
  </metadata>
  <defs
     id="defs14" />
  <sodipodi:namedview
     inkscape:current-layer="svg10"
     inkscape:window-maximized="1"
     inkscape:window-y="27"
     inkscape:window-x="0"
     inkscape:cy="14.244823"
     inkscape:cx="74.218867"
     inkscape:zoom="2.4211336"
     fit-margin-bottom="0"
     fit-margin-right="0"
     fit-margin-left="0"
     fit-margin-top="0"
     showgrid="false"
     id="namedview12"
     inkscape:window-height="1016"
     inkscape:window-width="1920"
     inkscape:pageshadow="2"
     inkscape:pageopacity="0"
     guidetolerance="10"
     gridtolerance="10"
     objecttolerance="10"
     borderopacity="1"
     bordercolor="#666666"
     pagecolor="#ffffff" />
  <title
     id="title2">Artboard 7</title>
  <path
     inkscape:connector-curvature="0"
     id="path4"
     d="m 32.400063,42.221052 v 0 a 7.78,7.78 0 0 0 7.51,5.72 h 0.33 a 7.83,7.83 0 0 0 7.44,-7 1.73,1.73 0 0 1 1.57,-1 1.76,1.76 0 0 1 1.57,1 7.87,7.87 0 0 0 7.76,7 7.78,7.78 0 0 0 7.52,-5.7 0.5,0.5 0 0 1 0.46,-0.36 h 1.27 v -3.47 h -1.26 a 0.47,0.47 0 0 1 -0.45,-0.32 v 0 a 7.8,7.8 0 0 0 -14.44,-1.5 5.58,5.58 0 0 0 -2.41,-0.55 5.47,5.47 0 0 0 -2.41,0.55 7.8,7.8 0 0 0 -14.44,1.48 0.5,0.5 0 0 1 -0.46,0.36 h -1.29 v 3.49 h 1.3 a 0.44,0.44 0 0 1 0.43,0.3 z m 26.19,-6.45 a 4.39,4.39 0 1 1 -4.39,4.35 4.4,4.4 0 0 1 4.39,-4.36 z m -18.62,-0.01 a 4.39,4.39 0 1 1 -4.43,4.36 4.4,4.4 0 0 1 4.43,-4.36 z m -36.6499997,60.48 H 94.620063 a 3.39,3.39 0 0 0 3.35,-3.39 c 0,-17.2 -21.69,-24.06 -31,-26.22 a 0.26,0.26 0 0 1 -0.19,-0.25 v -3.7 a 28.3,28.3 0 0 0 4.74,-9.38 c 2.45,-2.41 3.53,-6.18 4.11,-8.28 0.94,-3.34 1.9,-8.18 -0.72,-11.64 l -0.11,-0.15 c 1.26,-6.11 2.83,-20.42 -8.07,-27.6900004 a 6.72,6.72 0 0 0 1.92,-4.89000004 0.65,0.65 0 0 0 -0.23,-0.45 0.68,0.68 0 0 0 -0.45,-0.16 c -0.14,0 -13.77,1.55000004 -20.34,0.19 -6.76,-1.38999996 -14.17,3.73000004 -15.66,8.97000004 a 9.89,9.89 0 0 0 -6.46,3.6500004 c -3,3.67 -3.89,9.51 -2.71,17.35 0.08,1 0.2,2 0.38,3 l -0.12,0.15 c -2.61,3.46 -1.66,8.3 -0.71,11.64 0.58,2.06 1.66,5.87 4.1,8.28 a 28.42,28.42 0 0 0 4.74,9.45 v 3.64 a 0.25,0.25 0 0 1 -0.19,0.25 c -9.33,2.15 -30.999999669043,9 -30.999999669043,26.22 a 3.39,3.39 0 0 0 3.319999969043,3.41 z m 45.6499997,-16.44 a 17.88,17.88 0 0 1 -14.66,-7.29 7,7 0 0 0 3.19,-3.79 22.69,22.69 0 0 0 4.89,2.4 19.73,19.73 0 0 0 13.16,0 23.18,23.18 0 0 0 4.88,-2.46 7,7 0 0 0 3.2,3.84 17.89,17.89 0 0 1 -14.66,7.3 z m -20.81,-36.44 c -1.2,-4.24 -0.69,-5.78 -0.29,-6.32 a 1.38,1.38 0 0 1 1.19,-0.52 h 0.29 a 0.64,0.64 0 0 0 0.68,-0.59 c 0,-0.09 0.75,-9.23 6.17,-12.52 2.71,-1.65 6.18,-1.58 10.32,0.18 8.45,3.64 14.8,3.41 18.64,2.53 4.39,3.24 3.12,8.41 2.82,9.42 v 0.13 a 0.64,0.64 0 0 0 0.1,0.61 0.65,0.65 0 0 0 0.57,0.24 1.55,1.55 0 0 1 1.45,0.5 c 0.41,0.54 0.91,2.08 -0.29,6.32 -1.54,5.43 -2.79,5.94 -3.14,6 a 0.64,0.64 0 0 0 -0.58,0.54 c -0.9,5.79 -5.5,13 -12.57,15.54 a 13.55,13.55 0 0 1 -9.08,0 c -7.36,-2.59 -11.66,-9.88 -12.54,-15.55 a 0.64,0.64 0 0 0 -0.59,-0.54 c -0.34,-0.02 -1.62,-0.54 -3.15,-5.97 z" />
</svg>
