<?xml version="1.0" encoding="UTF-8" standalone="no"?>
<svg
   xmlns:dc="http://purl.org/dc/elements/1.1/"
   xmlns:cc="http://creativecommons.org/ns#"
   xmlns:rdf="http://www.w3.org/1999/02/22-rdf-syntax-ns#"
   xmlns:svg="http://www.w3.org/2000/svg"
   xmlns="http://www.w3.org/2000/svg"
   xmlns:sodipodi="http://sodipodi.sourceforge.net/DTD/sodipodi-0.dtd"
   xmlns:inkscape="http://www.inkscape.org/namespaces/inkscape"
   sodipodi:docname="noun_database_1472004_small.svg"
   inkscape:version="1.0 (4035a4fb49, 2020-05-01)"
   id="svg868"
   version="1.1"
   viewBox="0 0 41.08646 51.457199"
   height="51.457199mm"
   width="41.08646mm">
  <defs
     id="defs862" />
  <sodipodi:namedview
     inkscape:window-maximized="0"
     inkscape:window-y="23"
     inkscape:window-x="26"
     inkscape:window-height="991"
     inkscape:window-width="1530"
     fit-margin-bottom="0"
     fit-margin-right="0"
     fit-margin-left="0"
     fit-margin-top="0"
     showgrid="false"
     inkscape:document-rotation="0"
     inkscape:current-layer="layer1"
     inkscape:document-units="mm"
     inkscape:cy="302.60628"
     inkscape:cx="11.303369"
     inkscape:zoom="0.90509668"
     inkscape:pageshadow="2"
     inkscape:pageopacity="0.0"
     borderopacity="1.0"
     bordercolor="#666666"
     pagecolor="#ffffff"
     id="base" />
  <metadata
     id="metadata865">
    <rdf:RDF>
      <cc:Work
         rdf:about="">
        <dc:format>image/svg+xml</dc:format>
        <dc:type
           rdf:resource="http://purl.org/dc/dcmitype/StillImage" />
        <dc:title></dc:title>
      </cc:Work>
    </rdf:RDF>
  </metadata>
  <g
     transform="translate(-100.46725,-16.340088)"
     id="layer1"
     inkscape:groupmode="layer"
     inkscape:label="Layer 1">
    <g
       transform="matrix(5.3362506e-4,0,0,5.3362506e-4,94.2836,14.843003)"
       style="image-rendering:optimizeQuality;shape-rendering:geometricPrecision;text-rendering:geometricPrecision"
       id="g14">
      <path
         class="fil0"
         d="m 12189,14525 v 9550 c 0,15623 76394,15623 76394,0 v -9550 c 0,-15626 -76394,-15626 -76394,0 z"
         id="path6" />
      <path
         class="fil0"
         d="m 12189,31236 v 14324 c 0,15626 76394,15626 76394,0 V 31236 c 0,15626 -76394,15626 -76394,0 z"
         id="path8" />
      <path
         class="fil0"
         d="m 12189,52724 v 14323 c 0,15624 76394,15624 76394,0 V 52724 c 0,15625 -76394,15625 -76394,0 z"
         id="path10" />
      <path
         class="fil0"
         d="m 11588,73193 v 14324 c 0,15624 76394,15624 76394,0 V 73193 c 0,15625 -76394,15625 -76394,0 z"
         id="path12" />
    </g>
  </g>
</svg>
