<?xml version="1.0" encoding="UTF-8" standalone="no"?>
<svg
   xmlns:dc="http://purl.org/dc/elements/1.1/"
   xmlns:cc="http://creativecommons.org/ns#"
   xmlns:rdf="http://www.w3.org/1999/02/22-rdf-syntax-ns#"
   xmlns:svg="http://www.w3.org/2000/svg"
   xmlns="http://www.w3.org/2000/svg"
   xmlns:sodipodi="http://sodipodi.sourceforge.net/DTD/sodipodi-0.dtd"
   xmlns:inkscape="http://www.inkscape.org/namespaces/inkscape"
   version="1.1"
   x="0px"
   y="0px"
   viewBox="0 0 90 41.158001"
   enable-background="new 0 0 100 100"
   xml:space="preserve"
   id="svg22"
   sodipodi:docname="noun_Binoculars_79901.svg"
   width="90"
   height="41.158001"
   inkscape:version="0.92.4 (unknown)"><metadata
     id="metadata28"><rdf:RDF><cc:Work
         rdf:about=""><dc:format>image/svg+xml</dc:format><dc:type
           rdf:resource="http://purl.org/dc/dcmitype/StillImage" /><dc:title></dc:title></cc:Work></rdf:RDF></metadata><defs
     id="defs26" /><sodipodi:namedview
     pagecolor="#ffffff"
     bordercolor="#666666"
     borderopacity="1"
     objecttolerance="10"
     gridtolerance="10"
     guidetolerance="10"
     inkscape:pageopacity="0"
     inkscape:pageshadow="2"
     inkscape:window-width="640"
     inkscape:window-height="480"
     id="namedview24"
     showgrid="false"
     fit-margin-top="0"
     fit-margin-left="0"
     fit-margin-right="0"
     fit-margin-bottom="0"
     inkscape:zoom="1.888"
     inkscape:cx="45"
     inkscape:cy="8.079"
     inkscape:window-x="0"
     inkscape:window-y="27"
     inkscape:window-maximized="0"
     inkscape:current-layer="svg22" /><g
     id="g16"
     transform="translate(-5,-29.421)"><g
       id="g12"><g
         id="g10"><g
           id="g4"><path
             d="M 25.579,70.579 C 14.232,70.579 5,61.347 5,50 5,38.653 14.232,29.421 25.579,29.421 c 11.347,0 20.579,9.232 20.579,20.579 0,11.347 -9.232,20.579 -20.579,20.579 z m 0,-34.327 c -7.58,0 -13.748,6.167 -13.748,13.748 0,7.581 6.167,13.748 13.748,13.748 7.58,0 13.748,-6.167 13.748,-13.748 0,-7.581 -6.168,-13.748 -13.748,-13.748 z"
             id="path2"
             inkscape:connector-curvature="0" /></g><g
           id="g8"><path
             d="M 74.421,70.579 C 63.074,70.579 53.842,61.348 53.842,50 53.842,38.653 63.074,29.421 74.421,29.421 85.768,29.421 95,38.653 95,50 95,61.347 85.768,70.579 74.421,70.579 Z m 0,-34.327 c -7.581,0 -13.748,6.167 -13.748,13.748 0,7.581 6.167,13.748 13.748,13.748 7.58,0 13.748,-6.167 13.748,-13.748 0,-7.581 -6.167,-13.748 -13.748,-13.748 z"
             id="path6"
             inkscape:connector-curvature="0" /></g></g></g><path
       d="M 48.994,34.878 C 45.734,34.878 43,35.52 39,36.73 v 14.979 l 4.82,3.297 c 1.328,-1.613 3.689,-2.538 5.765,-2.538 2.084,0 4.062,0.925 5.391,2.538 L 59,51.708 V 36.731 C 55,35.521 52.258,34.878 48.994,34.878 Z M 50,43.994 c -1.369,0 -2.479,-1.11 -2.479,-2.479 0,-1.369 1.11,-2.479 2.479,-2.479 1.369,0 2.479,1.11 2.479,2.479 0,1.369 -1.11,2.479 -2.479,2.479 z"
       id="path14"
       inkscape:connector-curvature="0" /></g></svg>