<?xml version="1.0" encoding="UTF-8" standalone="no"?>
<svg
   version="1.1"
   x="0px"
   y="0px"
   viewBox="0 0 100.018 186.48399"
   xml:space="preserve"
   id="svg14"
   sodipodi:docname="noun_engineer_856401-headless.svg"
   width="100.018"
   height="186.48399"
   inkscape:version="1.1 (c68e22c387, 2021-05-23)"
   xmlns:inkscape="http://www.inkscape.org/namespaces/inkscape"
   xmlns:sodipodi="http://sodipodi.sourceforge.net/DTD/sodipodi-0.dtd"
   xmlns="http://www.w3.org/2000/svg"
   xmlns:svg="http://www.w3.org/2000/svg"
   xmlns:rdf="http://www.w3.org/1999/02/22-rdf-syntax-ns#"
   xmlns:cc="http://creativecommons.org/ns#"
   xmlns:dc="http://purl.org/dc/elements/1.1/"><metadata
     id="metadata20"><rdf:RDF><cc:Work
         rdf:about=""><dc:format>image/svg+xml</dc:format><dc:type
           rdf:resource="http://purl.org/dc/dcmitype/StillImage" /></cc:Work></rdf:RDF></metadata><defs
     id="defs18" /><sodipodi:namedview
     pagecolor="#ffffff"
     bordercolor="#666666"
     borderopacity="1"
     objecttolerance="10"
     gridtolerance="10"
     guidetolerance="10"
     inkscape:pageopacity="0"
     inkscape:pageshadow="2"
     inkscape:window-width="1920"
     inkscape:window-height="1011"
     id="namedview16"
     showgrid="false"
     fit-margin-top="0"
     fit-margin-left="0"
     fit-margin-right="0"
     fit-margin-bottom="0"
     inkscape:zoom="2.1738089"
     inkscape:cx="51.752479"
     inkscape:cy="71.303416"
     inkscape:window-x="0"
     inkscape:window-y="0"
     inkscape:window-maximized="1"
     inkscape:current-layer="g8"
     inkscape:pagecheckerboard="0" /><g
     id="g8"
     transform="translate(0,-59.171)"><path
       d="M 77.904,61.534 C 75.586,60.363 73.461,59.812 71.765,59.569 70.997,59.314 70.181,59.171 69.327,59.171 H 30.693 c -0.85,0 -1.666,0.143 -2.432,0.396 -1.695,0.243 -3.824,0.793 -6.15,1.964 C 16.736,64.201 10.935,70.034 6.877,80.372 2.77,90.754 0.014,105.76 0,128.417 c 0,5.858 0.188,12.228 0.598,19.16 0.248,4.252 3.777,7.533 7.983,7.534 0.156,0 0.314,-0.005 0.473,-0.014 4.412,-0.261 7.774,-4.048 7.516,-8.459 C 16.178,139.988 16,133.931 16,128.417 15.965,104.2 19.498,90.597 22.965,83.497 v 32.856 18.939 98 c 0,6.83 5.537,12.363 12.363,12.363 6.828,0 12.365,-5.533 12.365,-12.363 V 143.02 h 4.635 v 90.271 c 0,6.83 5.537,12.363 12.363,12.363 6.828,0 12.365,-5.533 12.365,-12.363 v -98 -18.939 -32.81 c 0.594,1.216 1.191,2.61 1.779,4.237 2.82,7.813 5.188,20.631 5.18,40.64 0,5.515 -0.174,11.572 -0.564,18.224 -0.258,4.411 3.111,8.196 7.523,8.451 0.158,0.009 0.316,0.014 0.475,0.014 4.205,0.001 7.73,-3.284 7.979,-7.536 0.4,-6.932 0.588,-13.299 0.59,-19.153 C 99.975,98.236 95.157,81.532 88.58,71.489 85.299,66.503 81.455,63.305 77.904,61.534 Z"
       id="path2"
       inkscape:connector-curvature="0" /></g></svg>
