<?xml version="1.0" encoding="UTF-8" standalone="no"?>
<svg
   xmlns:dc="http://purl.org/dc/elements/1.1/"
   xmlns:cc="http://creativecommons.org/ns#"
   xmlns:rdf="http://www.w3.org/1999/02/22-rdf-syntax-ns#"
   xmlns:svg="http://www.w3.org/2000/svg"
   xmlns="http://www.w3.org/2000/svg"
   xmlns:sodipodi="http://sodipodi.sourceforge.net/DTD/sodipodi-0.dtd"
   xmlns:inkscape="http://www.inkscape.org/namespaces/inkscape"
   inkscape:version="1.0 (4035a4fb49, 2020-05-01)"
   height="104"
   width="128"
   sodipodi:docname="noun_spreadsheet_45392.svg"
   id="svg8"
   y="0px"
   x="0px"
   viewBox="0 0 128 104"
   data-container-transform="translate(0 12)"
   data-icon="spreadsheet"
   version="1.1">
  <metadata
     id="metadata14">
    <rdf:RDF>
      <cc:Work
         rdf:about="">
        <dc:format>image/svg+xml</dc:format>
        <dc:type
           rdf:resource="http://purl.org/dc/dcmitype/StillImage" />
        <dc:title></dc:title>
      </cc:Work>
    </rdf:RDF>
  </metadata>
  <defs
     id="defs12" />
  <sodipodi:namedview
     inkscape:current-layer="svg8"
     inkscape:window-maximized="1"
     inkscape:window-y="0"
     inkscape:window-x="0"
     inkscape:cy="68"
     inkscape:cx="64"
     inkscape:zoom="4.9625"
     fit-margin-bottom="0"
     fit-margin-right="0"
     fit-margin-left="0"
     fit-margin-top="0"
     showgrid="false"
     id="namedview10"
     inkscape:window-height="1016"
     inkscape:window-width="1920"
     inkscape:pageshadow="2"
     inkscape:pageopacity="0"
     guidetolerance="10"
     gridtolerance="10"
     objecttolerance="10"
     borderopacity="1"
     bordercolor="#666666"
     pagecolor="#ffffff" />
  <path
     id="path2"
     d="M 3,0 C 1.3,0 0,1.3 0,3 v 98 c 0,1.7 1.3,3 3,3 h 122 c 1.7,0 3,-1.3 3,-3 V 3 c 0,-1.7 -1.3,-3 -3,-3 z M 8,8 H 24 V 24 H 8 Z M 26,8 H 72 V 24 H 26 Z m 48,0 h 46 V 24 H 74 Z M 8,26 H 24 V 42 H 8 Z m 18,0 H 72 V 42 H 26 Z m 48,0 h 46 V 42 H 74 Z M 8,44 H 24 V 60 H 8 Z m 18,0 H 72 V 60 H 26 Z m 48,0 h 46 V 60 H 74 Z M 8,62 H 24 V 78 H 8 Z m 18,0 H 72 V 78 H 26 Z m 48,0 h 46 V 78 H 74 Z M 8,80 H 24 V 96 H 8 Z m 18,0 H 72 V 96 H 26 Z m 48,0 h 46 V 96 H 74 Z" />
</svg>
