<?xml version="1.0" encoding="UTF-8" standalone="no"?>
<!-- Created with Inkscape (http://www.inkscape.org/) -->

<svg
   xmlns:dc="http://purl.org/dc/elements/1.1/"
   xmlns:cc="http://creativecommons.org/ns#"
   xmlns:rdf="http://www.w3.org/1999/02/22-rdf-syntax-ns#"
   xmlns:svg="http://www.w3.org/2000/svg"
   xmlns="http://www.w3.org/2000/svg"
   version="1.1"
   width="184.68588"
   height="127.699"
   id="svg3004"
   xml:space="preserve"><metadata
     id="metadata3010"><rdf:RDF><cc:Work
         rdf:about=""><dc:format>image/svg+xml</dc:format><dc:type
           rdf:resource="http://purl.org/dc/dcmitype/StillImage" /><dc:title></dc:title></cc:Work></rdf:RDF></metadata><path
     d="m 58.20462,17.46313 -7.9375,-7.9375 -9.05375,9.0525 2.90125,2.9025 c 4.37125,-2.03875 9.11,-3.4175 14.09,-4.0175 m -7.93825,10.168875 7.535,-7.53625 c -4.12625,0.56375 -8.07,1.6975 -11.75125,3.32 l 4.21625,4.21625 z m -27.1605,-9.054125 4.52625,4.5275 -4.52625,4.525 -4.52625,-4.5275 4.52625,-4.525 z m 21.010125,87.62975 -2.90375,2.90375 9.05375,9.0525 7.93875,-7.93875 c -4.98,-0.6 -9.7175,-1.97875 -14.08875,-4.0175 m 6.150375,-6.15025 -4.215,4.21375 c 3.68125,1.62375 7.625,2.7575 11.75,3.3225 l -7.535,-7.53625 z m -27.1605,-36.213 4.91125,4.91125 c -0.21875,-1.6075 -0.34125,-3.24375 -0.34125,-4.91125 0,-1.66625 0.1225,-3.305 0.34125,-4.91125 l -4.91125,4.91125 z m 18.14575,9.014125 c -1.11375,-2.7875 -1.73125,-5.82625 -1.73125,-9.0125 0,-3.1875 0.61875,-6.2275 1.73125,-9.01625 l -4.56625,-4.565 -5.455,5.455 c -0.645,2.60125 -0.9925,5.3225 -0.9925,8.125 0,2.80375 0.3475,5.5225 0.99375,8.125 l 5.455,5.45375 4.565,-4.565 z m 1.99175,-16.03625 c -0.75,2.20375 -1.16125,4.5625 -1.16125,7.02375 0,2.45875 0.4125,4.81625 1.1625,7.02 l 7.0225,-7.02125 -7.02375,-7.0225 z m 34.1825,-20.1375 -4.565,4.56625 c 6.18125,2.4675 11.11125,7.3975 13.57875,13.58125 l 4.56375,-4.56625 -13.5775,-13.58125 z m -6.564125,6.564125 -7.015,7.01625 3.17,3.17125 c 1.65625,0.5025 3.21625,1.405 4.525,2.7125 1.3075,1.30875 2.21125,2.86875 2.7125,4.525 l 3.17125,3.17125 7.015,-7.01625 c -2.17375,-6.36875 -7.20875,-11.405 -13.57875,-13.58 m -53.39725,26.236875 -7.9375,7.9375 9.0525,9.05375 2.90375,-2.9025 c -2.04,-4.37 -3.41875,-9.11 -4.01875,-14.08875 m 10.16875,7.938875 -7.53625,-7.5375 c 0.56375,4.1275 1.6975,8.07125 3.32125,11.75125 l 4.215,-4.21375 z m 82.592745,-7.940125 c -0.6,4.98 -1.98,9.71875 -4.01875,14.09 l 2.90375,2.9025 9.05375,-9.05375 -7.93875,-7.93875 z m -10.16812,7.9395 4.215,4.215 c 1.6225,-3.68125 2.75625,-7.62375 3.32125,-11.75 l -7.53625,7.535 z"
     id="path3142"
     style="fill:#00638e;fill-opacity:1;fill-rule:nonzero;stroke:none" /><path
     d="m 63.84812,5.000005 4.52625,4.52625 -4.52625,4.52875 -4.5275,-4.5275 4.5275,-4.5275 z m 40.73638,95.056125 4.525,4.5275 -4.52625,4.525 -4.525,-4.5275 4.52625,-4.525 z m -83.101505,-55.942625 -2.9025,-2.9025 -9.05625,9.05375 7.94,7.93625 c 0.59875,-4.97875 1.97875,-9.7175 4.01875,-14.0875 m 6.15025,6.150875 -4.21625,-4.21625 c -1.6225,3.6825 -2.7575,7.625 -3.32,11.7525 l 7.53625,-7.53625 z m 36.209,63.37963 4.5275,4.5275 -4.5275,4.5275 -4.52625,-4.52875 4.52625,-4.52625 z m -7.01675,-29.198005 7.02,-7.0225 -3.17,-3.17125 c -1.65625,-0.5025 -3.21625,-1.40375 -4.525,-2.7125 -1.30875,-1.30875 -2.21125,-2.86875 -2.71375,-4.525 l -3.17,-3.17 -7.0225,7.0225 c 1.085,3.1825 2.88125,6.0375 5.21,8.3675 2.33125,2.33 5.185,4.125 8.37125,5.21125 m -6.5585,6.557875 4.565,-4.565 c -6.1825,-2.46875 -11.11125,-7.3975 -13.58,-13.58 l -4.565,4.565 13.58,13.58 z M 84.43887,70.85863 c 0.7525,-2.20125 1.16875,-4.55875 1.1725,-7.015 -0.0037,-2.455 -0.42125,-4.81375 -1.17,-7.01375 l -7.01625,7.015 7.01375,7.01375 z m 20.14562,-7.014625 -4.911245,-4.91125 c 0.21875,1.60625 0.341255,3.24375 0.341255,4.9125 -0.001,1.66625 -0.123755,3.30375 -0.341255,4.91125 l 4.911245,-4.9125 z m -18.146245,-9.01225 c 1.1125,2.7875 1.73125,5.82625 1.7325,9.0125 -0.0012,3.185 -0.62,6.225 -1.7325,9.0125 l 4.56625,4.5675 5.4525,-5.45375 c 0.6475,-2.6025 0.99625,-5.3225 0.99625,-8.125 0,-2.805 -0.34875,-5.525 -0.995,-8.1275 l -5.45375,-5.45375 -4.56625,4.5675 z M 95.07837,32.61063 c -2.28,-2.28 -4.8125,-4.29875 -7.54,-6.03875 l -5.82875,5.8275 c 5.6575,3.22125 10.35875,7.9225 13.57875,13.58125 l 5.82875,-5.8275 c -1.74,-2.73 -3.76125,-5.2625 -6.03875,-7.5425 m -15.245,1.6655 -2.40875,2.40875 13.58,13.58125 2.40875,-2.41 c -1.555,-2.86875 -3.5125,-5.48625 -5.80375,-7.7775 -2.29,-2.28875 -4.90875,-4.24875 -7.77625,-5.8025 m 23.13575,4.02475 1.615,-1.615 -13.58,-13.58 -1.615,1.61375 c 5.41125,3.54 10.04,8.17 13.58,13.58125"
     id="path3198"
     style="fill:#2ac5f4;fill-opacity:1;fill-rule:nonzero;stroke:none" /><path
     d="m 104.5845,18.57788 4.525,4.5275 -4.52625,4.525 -4.52625,-4.5275 4.5275,-4.525 z m -45.651005,9.4385 c 1.6075,-0.21875 3.245,-0.34125 4.9125,-0.34125 1.66625,0 3.30375,0.1225 4.91125,0.34125 l -4.91125,-4.9125 -4.9125,4.9125 z m -3.2145,3.21525 -5.45375,5.45375 4.5675,4.56625 c 2.7875,-1.11375 5.8275,-1.7325 9.01375,-1.7325 0.01375,0 0.02375,0.0013 0.0375,0.0013 3.1725,0.005 6.19875,0.6225 8.975,1.73 l 4.56625,-4.565 -5.45375,-5.455 c -2.6025,-0.64625 -5.32125,-0.995 -8.12625,-0.995 -2.8025,0 -5.52375,0.34875 -8.12625,0.99625 m 8.126375,19.0315 7.02125,-7.02125 c -2.20125,-0.75 -4.55875,-1.1625 -7.01875,-1.16375 l -0.0012,0 c -2.4575,0.005 -4.815,0.42 -7.015,1.17125 l 7.01375,7.01375 z m -39.124125,39.12475 -1.615,1.615 13.58,13.57875 1.61625,-1.6125 c -5.41125,-3.54 -10.04,-8.17 -13.58125,-13.58125 m 15.433875,11.72787 5.82625,-5.827495 c -5.6575,-3.22125 -10.35875,-7.9225 -13.57875,-13.57875 l -5.82875,5.82625 c 3.4775,5.46 8.12,10.10125 13.58125,13.579995 m 7.703125,-7.70312 2.40875,-2.40875 -13.58,-13.58 -2.41,2.41 c 1.55625,2.8675 3.515,5.48375 5.805,7.775 2.29,2.28875 4.9075,4.24875 7.77625,5.80375 m -9.557375,-68.694 -1.61375,-1.61375 -13.58125,13.57875 1.61375,1.615 c 3.54125,-5.41 8.17,-10.04 13.58125,-13.58 m -11.726625,15.43325 5.82625,5.8275 c 3.22125,-5.65875 7.9225,-10.35875 13.58,-13.58 l -5.82625,-5.8275 c -2.73125,1.73875 -5.26375,3.75875 -7.5425,6.03875 -2.27875,2.28 -4.29875,4.8125 -6.0375,7.54125 m 7.701875,7.702625 2.41125,2.41 13.57875,-13.58 -2.41,-2.41 c -2.86875,1.555 -5.48625,3.5125 -7.77625,5.8025 -2.29,2.29125 -4.25,4.91 -5.80375,7.7775 m 69.99713,-1.8055 -4.215,4.215 7.535,7.535 c -0.56375,-4.1275 -1.6975,-8.06875 -3.32,-11.75 m 5.95212,12.153625 7.93875,-7.9375 -9.0525,-9.05375 -2.90375,2.90375 c 2.04,4.37 3.4175,9.10875 4.0175,14.0875 m -40.74025,52.02287 7.94,7.9375 9.0525,-9.0525 -2.9025,-2.90375 c -4.37,2.03875 -9.11,3.41875 -14.09,4.01875 m 7.94025,-10.16862 -7.535,7.535 c 4.12625,-0.56375 8.06875,-1.6975 11.74875,-3.32 l -4.21375,-4.215 z m 7.0135,-29.19825 -7.01375,-7.01375 -3.17125,3.17125 c -0.50375,1.65625 -1.405,3.215 -2.71375,4.5225 -1.3075,1.30875 -2.8675,2.21125 -4.5225,2.71375 l -3.1725,3.1725 7.01375,7.01375 c 6.3725,-2.17375 11.40625,-7.20875 13.58,-13.58 m 6.5655,6.565375 -4.565,-4.5675 c -2.46875,6.18375 -7.3975,11.1125 -13.58,13.58 l 4.565,4.5675 13.58,-13.58 z"
     id="path3202"
     style="fill:#003e64;fill-opacity:1;fill-rule:nonzero;stroke:none" /><path
     d="m 23.10212,100.06188 4.5275,4.5275 -4.5275,4.5275 -4.5275,-4.52875 4.5275,-4.52625 z M 9.526245,68.37113 l -4.52625,-4.52625 4.5275,-4.52625 4.52625,4.52625 -4.5275,4.52625 z m 108.638625,-9.056375 4.5275,4.52625 -4.5275,4.52875 -4.5275,-4.52625 4.5275,-4.52875 z m -34.58925,-37.83375 2.90375,-2.9025 -9.05375,-9.05375 -7.94,7.93875 c 4.98125,0.59875 9.71875,1.97875 14.09,4.0175 m -6.15025,6.15025 4.21625,-4.21625 c -3.68125,-1.6225 -7.625,-2.75625 -11.75125,-3.32 l 7.535,7.53625 z m 23.69087,59.903625 -5.827495,-5.8275 c -3.22125,5.6575 -7.9225,10.35875 -13.58,13.58 l 5.8275,5.8275 c 2.73,-1.73875 5.2625,-3.75875 7.5425,-6.03875 2.2775,-2.27875 4.2975,-4.81125 6.037495,-7.54125 m -11.726745,15.43325 1.61375,1.615 13.582495,-13.58 -1.61625,-1.61625 c -3.539995,5.41125 -8.169995,10.04 -13.579995,13.58125 M 68.75812,99.671005 c -1.6075,0.21875 -3.24625,0.341245 -4.9125,0.341245 -1.66625,0 -3.30375,-0.122495 -4.91125,-0.341245 l 4.91125,4.912495 4.9125,-4.912495 z m 3.214625,-3.2145 5.4525,-5.45375 -4.56625,-4.56625 c -2.78875,1.11375 -5.8275,1.7325 -9.015,1.73375 -0.0125,-0.0025 -0.02375,-0.0025 -0.0375,-0.0037 -3.17125,-0.0037 -6.19875,-0.62125 -8.975,-1.73 l -4.56625,4.56625 5.455,5.455 c 2.6,0.64625 5.32125,0.995 8.12375,0.995 2.805,-0.0012 5.525,-0.35 8.12875,-0.99625 M 41.25162,54.82988 c 2.4675,-6.1825 7.3975,-11.11125 13.58,-13.58 l -4.56625,-4.565 -13.57875,13.58 4.565,4.565 z m 1.99175,1.992375 7.02375,7.0225 3.17,-3.17125 c 0.5025,-1.655 1.40375,-3.215 2.71375,-4.52375 1.30875,-1.31 2.8675,-2.21125 4.52375,-2.71375 l 3.17125,-3.17125 -7.0225,-7.02375 c -3.185,1.085 -6.04,2.8825 -8.36875,5.2125 -2.32875,2.33 -4.12625,5.185 -5.21125,8.36875 m 50.169625,23.010125 -2.40875,-2.40875 -13.58,13.58 2.40875,2.40875 c 2.86875,-1.55625 5.485,-3.515 7.77625,-5.805 2.29,-2.29 4.24875,-4.9075 5.80375,-7.775 m -29.567625,-2.40775 -7.02,7.02125 c 2.20125,0.75 4.55875,1.16375 7.01625,1.16375 0.0012,0 0.0025,0 0.0025,0 2.45625,-0.005 4.815,-0.42 7.015,-1.17 l -7.01375,-7.015 z"
     id="path3254"
     style="fill:#008fbd;fill-opacity:1;fill-rule:nonzero;stroke:none" /><path
     d="m 63.88712,91.00538 115.79875,0 0,-27.16 -115.79875,0 0,27.16 z"
     id="path3256"
     style="fill:#00638e;fill-opacity:1;fill-rule:nonzero;stroke:none" /><path
     d="m 163.32974,86.88663 0,-18.91875 12.5125,0 0,3.0625 -9.26375,0 0,4.7525 8.28376,0 0,3.06 -8.28376,0 0,4.98125 9.26375,0 0,3.0625 -12.5125,0 z m -1.97662,-5.450625 c 0,0.85875 -0.12875,1.64 -0.38375,2.3425 -0.255,0.70375 -0.65375,1.30625 -1.195,1.80625 -0.54125,0.50375 -1.23125,0.89 -2.0675,1.1625 -0.8375,0.27125 -1.83875,0.41 -3.0025,0.41 -1.02875,0 -1.93625,-0.1125 -2.71875,-0.3375 -0.78375,-0.2225 -1.4575,-0.555 -2.02125,-0.9925 -0.5625,-0.44 -1.0175,-0.9825 -1.3625,-1.63375 -0.345,-0.6475 -0.5975,-1.3925 -0.75875,-2.23625 l 3.1425,-0.63 c 0.0887,0.42125 0.21875,0.80625 0.3875,1.155 0.17375,0.35 0.40375,0.65375 0.7,0.90625 0.29625,0.255 0.66375,0.45375 1.1075,0.59125 0.44375,0.1375 0.98375,0.20875 1.61875,0.20875 1.10125,0 1.9425,-0.20375 2.52375,-0.61 0.58125,-0.40875 0.87125,-1.045 0.87125,-1.915 0,-0.51875 -0.11375,-0.945 -0.34875,-1.275 -0.2325,-0.33125 -0.54125,-0.60625 -0.93125,-0.81875 -0.39,-0.21625 -0.8375,-0.39375 -1.3475,-0.53625 -0.50625,-0.13875 -1.03,-0.2825 -1.57375,-0.435 l -1.34375,-0.37125 c -0.43625,-0.135 -0.8575,-0.295 -1.255,-0.48375 -0.39875,-0.1875 -0.77,-0.41125 -1.11375,-0.67 -0.345,-0.26 -0.64375,-0.58125 -0.90125,-0.96125 -0.25375,-0.38 -0.455,-0.825 -0.595,-1.3375 -0.14375,-0.50875 -0.215,-1.11 -0.215,-1.7975 0,-0.94125 0.15375,-1.74625 0.4625,-2.4175 0.30625,-0.67125 0.73875,-1.21875 1.28875,-1.645 0.55,-0.425 1.2025,-0.73625 1.95125,-0.9325 0.7525,-0.1975 1.5775,-0.29625 2.4725,-0.29625 1.01125,0 1.8775,0.09625 2.60375,0.29 0.72625,0.19125 1.3325,0.48375 1.82125,0.87875 0.48625,0.39375 0.8725,0.8875 1.155,1.485 0.28125,0.595 0.48875,1.29 0.6225,2.08625 l -3.14,0.52375 c -0.16125,-0.815 -0.49125,-1.42625 -0.9875,-1.83875 -0.4975,-0.41125 -1.2075,-0.61875 -2.13,-0.6175 -0.5725,0 -1.04875,0.06 -1.42875,0.1825 -0.37875,0.12125 -0.6825,0.285 -0.90625,0.4925 -0.2225,0.2075 -0.38125,0.44625 -0.47625,0.72125 -0.095,0.275 -0.14125,0.565 -0.14125,0.8725 0,0.46625 0.09,0.85 0.275,1.15125 0.1825,0.3025 0.4375,0.55375 0.7675,0.75625 0.33125,0.2025 0.7225,0.3725 1.1775,0.51 0.4525,0.13875 0.9625,0.27875 1.52625,0.42 0.4825,0.1275 0.9625,0.26125 1.43375,0.4 0.4725,0.13875 0.92875,0.30125 1.36125,0.48875 0.43625,0.18625 0.84125,0.41375 1.2175,0.68125 0.375,0.26875 0.70125,0.59625 0.975,0.9825 0.2725,0.38875 0.49,0.84875 0.64625,1.3875 0.15625,0.53125 0.235,1.16375 0.23625,1.89625 m -21.466,-10.554 -2.3225,8.19 4.55125,0 -2.22875,-8.19 z m 4.275,16.005 -1.36,-4.835 -5.86875,0.0012 -1.3825,4.83375 -3.2375,0 5.59,-18.91875 3.89,-0.0012 5.5725,18.92 -3.20375,0 z m -15.59413,-5.70675 c 0,-0.5 -0.0825,-0.92125 -0.24375,-1.2625 -0.15875,-0.34 -0.37875,-0.61375 -0.66499,-0.81875 -0.28126,-0.20625 -0.60876,-0.35375 -0.98751,-0.4425 -0.37625,-0.09125 -0.78625,-0.135 -1.235,-0.135 l -4.1075,0 0,5.42375 4.2425,-0.0012 c 0.43,0 0.82625,-0.04125 1.18876,-0.12625 0.36124,-0.08625 0.67749,-0.2325 0.94625,-0.44375 0.27124,-0.21 0.47874,-0.49625 0.63375,-0.85125 0.14999,-0.35625 0.2275,-0.80625 0.2275,-1.3425 m -0.90125,-7.9225 c -10e-4,-0.85 -0.22,-1.455 -0.665,-1.8125 -0.44375,-0.35625 -1.10375,-0.53625 -1.98,-0.53625 l -3.6925,0 0,4.685 3.72,0 c 0.91375,0 1.575,-0.19375 1.99375,-0.5825 0.41625,-0.39 0.62375,-0.975 0.62375,-1.75375 m 4.16375,8.22875 c 0,0.96 -0.15875,1.78 -0.4775,2.4675 -0.3175,0.68375 -0.75,1.2425 -1.29625,1.6775 -0.54375,0.43375 -1.18125,0.75125 -1.905,0.95375 -0.72625,0.2025 -1.4975,0.30125 -2.31,0.3025 l -7.7625,0 0,-18.91875 7.1025,0 c 0.915,0 1.73,0.09625 2.44375,0.2875 0.71625,0.1925 1.32125,0.485 1.8125,0.88 0.49375,0.395 0.86375,0.88875 1.1175,1.48375 0.2475,0.59625 0.37375,1.29625 0.37375,2.10125 0,1.07375 -0.2425,1.98125 -0.73125,2.71875 -0.4875,0.7375 -1.2275,1.23875 -2.22,1.4975 1.2525,0.18 2.2075,0.66 2.86375,1.44125 0.66125,0.78375 0.9875,1.82125 0.98875,3.1075 m -19.47088,-13.518625 3.26375,0 0,18.91875 -3.26375,0 0,-18.91875 z m -5.13312,18.91875 -5.555,-8.69125 -1.925005,1.78625 0,6.905 -3.24875,0 -0.0025,-18.91875 3.25125,0 0,8.58 6.982505,-8.58 3.79125,0 -6.705,8.11 7.08625,10.80875 -3.675,0 z m -16.44913,0 0,-18.91875 3.26125,0.0013 0,18.9175 -3.26125,0 z m -5.819625,-6.25e-4 -3.85375,0 -2.77625,-14.98875 -2.78625,14.98875 -3.9025,0 -3.9075,-18.9175 3.2375,0 2.80375,15.17125 2.7925,-15.17125 3.7575,0 2.68,14.85125 2.62375,-14.85125 3.2175,0 -3.88625,18.9175 z"
     id="path3294"
     style="fill:#ffffff;fill-opacity:1;fill-rule:nonzero;stroke:none" /></svg>
